  0
SECTION
  2
HEADER
  9
$ACADVER
  1
AC1009
  9
$DWGCODEPAGE
  3
ansi_1252
  9
$INSBASE
 10
0.0
 20
0.0
 30
0.0
  9
$EXTMIN
 10
-0.0127587658292079
 20
-0.0113148156811533
 30
-0.0000304418251602
  9
$EXTMAX
 10
0.0129877497416793
 20
0.0138974918427657
 30
0.0253904204803617
  9
$LIMMIN
 10
0.0
 20
0.0
  9
$LIMMAX
 10
12.0
 20
9.0
  9
$ORTHOMODE
 70
     1
  9
$REGENMODE
 70
     1
  9
$FILLMODE
 70
     1
  9
$QTEXTMODE
 70
     0
  9
$MIRRTEXT
 70
     1
  9
$DRAGMODE
 70
     2
  9
$LTSCALE
 40
1.0
  9
$OSMODE
 70
    37
  9
$ATTMODE
 70
     1
  9
$TEXTSIZE
 40
0.2
  9
$TRACEWID
 40
0.05
  9
$TEXTSTYLE
  7
STANDARD
  9
$CLAYER
  8
0
  9
$CELTYPE
  6
CONTINUOUS
  9
$CECOLOR
 62
     0
  9
$DIMSCALE
 40
1.0
  9
$DIMASZ
 40
0.18
  9
$DIMEXO
 40
0.0625
  9
$DIMDLI
 40
0.38
  9
$DIMRND
 40
0.0
  9
$DIMDLE
 40
0.0
  9
$DIMEXE
 40
0.18
  9
$DIMTP
 40
0.0
  9
$DIMTM
 40
0.0
  9
$DIMTXT
 40
0.18
  9
$DIMCEN
 40
0.09
  9
$DIMTSZ
 40
0.0
  9
$DIMTOL
 70
     0
  9
$DIMLIM
 70
     0
  9
$DIMTIH
 70
     1
  9
$DIMTOH
 70
     1
  9
$DIMSE1
 70
     0
  9
$DIMSE2
 70
     0
  9
$DIMTAD
 70
     0
  9
$DIMZIN
 70
     0
  9
$DIMBLK
  1

  9
$DIMASO
 70
     1
  9
$DIMSHO
 70
     0
  9
$DIMPOST
  1

  9
$DIMAPOST
  1

  9
$DIMALT
 70
     0
  9
$DIMALTD
 70
     2
  9
$DIMALTF
 40
25.4
  9
$DIMLFAC
 40
1.0
  9
$DIMTOFL
 70
     0
  9
$DIMTVP
 40
0.0
  9
$DIMTIX
 70
     0
  9
$DIMSOXD
 70
     0
  9
$DIMSAH
 70
     0
  9
$DIMBLK1
  1

  9
$DIMBLK2
  1

  9
$DIMSTYLE
  2
STANDARD
  9
$DIMCLRD
 70
     0
  9
$DIMCLRE
 70
     0
  9
$DIMCLRT
 70
     0
  9
$DIMTFAC
 40
1.0
  9
$DIMGAP
 40
0.09
  9
$LUNITS
 70
     2
  9
$LUPREC
 70
     4
  9
$SKETCHINC
 40
0.1
  9
$FILLETRAD
 40
0.0
  9
$AUNITS
 70
     0
  9
$AUPREC
 70
     2
  9
$MENU
  1
acad
  9
$ELEVATION
 40
0.0
  9
$PELEVATION
 40
0.0
  9
$THICKNESS
 40
0.0
  9
$LIMCHECK
 70
     0
  9
$CHAMFERA
 40
0.0
  9
$CHAMFERB
 40
0.0
  9
$SKPOLY
 70
     0
  9
$TDCREATE
 40
2450224.578622222
  9
$TDUPDATE
 40
2457464.593136574
  9
$TDINDWG
 40
0.0000337963
  9
$TDUSRTIMER
 40
0.0000337963
  9
$USRTIMER
 70
     1
  9
$ANGBASE
 50
0.0
  9
$ANGDIR
 70
     0
  9
$PDMODE
 70
     0
  9
$PDSIZE
 40
0.0
  9
$PLINEWID
 40
0.0
  9
$COORDS
 70
     1
  9
$SPLFRAME
 70
     0
  9
$SPLINETYPE
 70
     6
  9
$SPLINESEGS
 70
     8
  9
$ATTDIA
 70
     0
  9
$ATTREQ
 70
     1
  9
$HANDLING
 70
     1
  9
$HANDSEED
  5
1D0
  9
$SURFTAB1
 70
    12
  9
$SURFTAB2
 70
     6
  9
$SURFTYPE
 70
     6
  9
$SURFU
 70
     6
  9
$SURFV
 70
     6
  9
$UCSNAME
  2

  9
$UCSORG
 10
0.0
 20
0.0
 30
0.0
  9
$UCSXDIR
 10
1.0
 20
0.0
 30
0.0
  9
$UCSYDIR
 10
0.0
 20
1.0
 30
0.0
  9
$PUCSNAME
  2

  9
$PUCSORG
 10
0.0
 20
0.0
 30
0.0
  9
$PUCSXDIR
 10
1.0
 20
0.0
 30
0.0
  9
$PUCSYDIR
 10
0.0
 20
1.0
 30
0.0
  9
$USERI1
 70
     0
  9
$USERI2
 70
     0
  9
$USERI3
 70
     0
  9
$USERI4
 70
     0
  9
$USERI5
 70
     0
  9
$USERR1
 40
0.0
  9
$USERR2
 40
0.0
  9
$USERR3
 40
0.0
  9
$USERR4
 40
0.0
  9
$USERR5
 40
0.0
  9
$WORLDVIEW
 70
     1
  9
$SHADEDGE
 70
     3
  9
$SHADEDIF
 70
    70
  9
$TILEMODE
 70
     1
  9
$MAXACTVP
 70
    16
  9
$PLIMCHECK
 70
     0
  9
$PEXTMIN
 10
1.000000000000000E+20
 20
1.000000000000000E+20
 30
1.000000000000000E+20
  9
$PEXTMAX
 10
-1.000000000000000E+20
 20
-1.000000000000000E+20
 30
-1.000000000000000E+20
  9
$PLIMMIN
 10
0.0
 20
0.0
  9
$PLIMMAX
 10
12.0
 20
9.0
  9
$UNITMODE
 70
     0
  9
$VISRETAIN
 70
     0
  9
$PLINEGEN
 70
     0
  9
$PSLTSCALE
 70
     0
  0
ENDSEC
  0
SECTION
  2
TABLES
  0
TABLE
  2
VPORT
 70
     1
  0
VPORT
  2
*ACTIVE
 70
     0
 10
0.0
 20
0.0
 11
1.0
 21
1.0
 12
0.0009177620451148
 22
0.0120996817977012
 13
0.0
 23
0.0
 14
0.1
 24
0.1
 15
1.0
 25
1.0
 16
0.6769057642340826
 26
-0.8067048763736975
 36
0.4254713019482865
 17
0.0
 27
0.0
 37
0.0
 40
0.0374622245825864
 41
1.56198347107438
 42
50.0
 43
0.0
 44
0.0
 50
0.0
 51
0.0
 71
     8
 72
   100
 73
     1
 74
     0
 75
     1
 76
     0
 77
     0
 78
     0
  0
ENDTAB
  0
TABLE
  2
LTYPE
 70
     4
  0
LTYPE
  2
CONTINUOUS
 70
     0
  3
Solid line
 72
    65
 73
     0
 40
0.0
  0
LTYPE
  2
DIRT
 70
     0
  3

 72
    65
 73
     2
 40
10000.0
 49
10000.0
 49
0.0
  0
LTYPE
  2
LEAF_G
 70
     0
  3

 72
    65
 73
     2
 40
10000.0
 49
10000.0
 49
0.0
  0
LTYPE
  2
BARK
 70
     0
  3

 72
    65
 73
     2
 40
10000.0
 49
10000.0
 49
0.0
  0
ENDTAB
  0
TABLE
  2
LAYER
 70
     2
  0
LAYER
  2
0
 70
     0
 62
     7
  6
CONTINUOUS
  0
LAYER
  2
_KTI_CONTROL
 70
     5
 62
     7
  6
CONTINUOUS
  0
ENDTAB
  0
TABLE
  2
STYLE
 70
     1
  0
STYLE
  2
STANDARD
 70
     0
 40
0.0
 41
1.0
 50
0.0
 71
     0
 42
0.2
  3
txt
  4

  0
ENDTAB
  0
TABLE
  2
VIEW
 70
     0
  0
ENDTAB
  0
TABLE
  2
UCS
 70
     0
  0
ENDTAB
  0
TABLE
  2
APPID
 70
     3
  0
APPID
  2
ACAD
 70
     0
  0
APPID
  2
_KTI_ARE
 70
     0
  0
APPID
  2
_KTI_ARCHT
 70
     0
  0
ENDTAB
  0
TABLE
  2
DIMSTYLE
 70
     1
  0
DIMSTYLE
  2
STANDARD
 70
     0
  3

  4

  5

  6

  7

 40
1.0
 41
0.18
 42
0.0625
 43
0.38
 44
0.18
 45
0.0
 46
0.0
 47
0.0
 48
0.0
140
0.18
141
0.09
142
0.0
143
25.4
144
1.0
145
0.0
146
1.0
147
0.09
 71
     0
 72
     0
 73
     1
 74
     1
 75
     0
 76
     0
 77
     0
 78
     0
170
     0
171
     2
172
     0
173
     0
174
     0
175
     0
176
     0
177
     0
178
     0
  0
ENDTAB
  0
ENDSEC
  0
SECTION
  2
BLOCKS
  0
BLOCK
  8
0
  2
$MODEL_SPACE
 70
     0
 10
0.0
 20
0.0
 30
0.0
  3
$MODEL_SPACE
  1

  0
ENDBLK
  5
26
  8
0
 62
     0
  0
BLOCK
 67
     1
  8
0
  2
$PAPER_SPACE
 70
     0
 10
0.0
 20
0.0
 30
0.0
  3
$PAPER_SPACE
  1

  0
ENDBLK
  5
24
 67
     1
  8
0
 62
     0
  0
BLOCK
  8
0
  2
12ZPLT11_LEAF
 70
     0
 10
0.0
 20
0.0
 30
0.0
  3
12ZPLT11_LEAF
  1

  0
3DFACE
  5
2A
  8
0
  6
LEAF_G
 62
     3
 10
-0.0799999999999841
 20
0.0100000000000193
 30
0.0
 11
-0.3349999999999795
 21
-0.2399999999999807
 31
0.0
 12
-0.6399999999999864
 22
-1.059999999999988
 32
0.0
 13
-0.0799999999999841
 23
-0.3549999999999898
 33
0.0
1001
_KTI_ARE
1070
 29000
1000
LEAF_G
  0
3DFACE
  5
2B
  8
0
  6
LEAF_G
 62
     3
 10
-0.0799999999999841
 20
-0.3599999999999852
 30
0.0
 11
-0.2064962165491693
 21
-0.5149999999999864
 31
0.0
 12
-0.0949999999999704
 22
-2.074999999999989
 32
0.0
 13
0.1350000000000479
 23
-0.7949999999999875
 33
0.0
1001
_KTI_ARE
1070
 29000
1000
LEAF_G
  0
3DFACE
  5
2C
  8
0
  6
LEAF_G
 62
     3
 10
-0.0799999999999841
 20
0.0100000000000193
 30
0.0
 11
-0.0799999999999841
 21
-0.3599999999999852
 31
0.0
 12
0.4399999999999978
 22
-1.394999999999982
 32
0.0
 13
0.2250000000000228
 23
-0.1949999999999932
 33
0.0
1001
_KTI_ARE
1070
 29000
1000
LEAF_G
  0
ENDBLK
  5
2D
  8
0
  0
ENDSEC
  0
SECTION
  2
ENTITIES
  0
3DFACE
  5
2E
  8
0
  6
BARK
 62
     8
 10
0.0001965117409492
 20
-0.0000687791093322
 30
0.0096094241324172
 11
0.0001965117409492
 21
-0.0001670349798068
 31
0.0
 12
-0.0001965117409492
 22
0.0001670349798068
 32
0.0
 13
-0.0000982558704745
 23
0.0001670349798068
 33
0.0096094241324172
1001
_KTI_ARE
1070
 29000
1000
BARK
  0
3DFACE
  5
2F
  8
0
  6
BARK
 62
     8
 10
-0.0000601614194619
 20
0.000070304394713
 30
0.0129108213803643
 11
0.0001031164573243
 21
0.0002119615187578
 31
0.0131269842954084
 12
-0.0013146687102389
 22
-0.001512390985964
 32
0.0149938458344261
 13
-0.0013591990402716
 23
-0.0015510247470671
 33
0.0148955899639515
1001
_KTI_ARE
1070
 29000
1000
BARK
  0
3DFACE
  5
30
  8
0
  6
BARK
 62
     8
 10
-0.0013146687102389
 20
-0.001512390985964
 30
0.0149938458344261
 11
-0.0013591990402716
 21
-0.0015510247470671
 31
0.0148955899639515
 12
-0.0028788582159636
 22
-0.0015686498815516
 32
0.0159371021909824
 13
-0.0027897975558984
 23
-0.0014913823593455
 33
0.0160550092355519
1001
_KTI_ARE
1070
 29000
1000
BARK
  0
3DFACE
  5
31
  8
0
  6
BARK
 62
     8
 10
-0.0028788582159636
 20
-0.0015686498815516
 30
0.0159371021909824
 11
-0.0027897975558984
 21
-0.0014913823593455
 31
0.0160550092355519
 12
-0.0045516337007429
 22
-0.0008976803181075
 32
0.0182952430823731
 13
-0.0046503932793539
 23
-0.0009607421862853
 33
0.0182952430823731
1001
_KTI_ARE
1070
 29000
1000
BARK
  0
3DFACE
  5
32
  8
0
  6
BARK
 62
     8
 10
-0.0012701383802063
 20
-0.0014737572248609
 30
0.0146794270489073
 11
-0.0014037293703041
 21
-0.0015896585081702
 31
0.0149545434862362
 12
-0.0022909545339673
 22
-0.0026030510108177
 32
0.0148955899639515
 13
-0.0022018938739021
 23
-0.0025257834886116
 33
0.0146794270489073
1001
_KTI_ARE
1070
 29000
1000
BARK
  0
3DFACE
  5
33
  8
0
  6
BARK
 62
     8
 10
-0.0022909545339673
 20
-0.0026030510108177
 30
0.0148955899639515
 11
-0.0022018938739021
 21
-0.0025257834886116
 31
0.0146794270489073
 12
-0.0021414853160808
 22
-0.0048152568257115
 32
0.0148366364416667
 13
-0.0021739318988376
 23
-0.0039676005439613
 33
0.0148955899639515
1001
_KTI_ARE
1070
 29000
1000
BARK
  0
3DFACE
  5
34
  8
0
  6
BARK
 62
     8
 10
-0.0022464242039349
 20
-0.0025644172497147
 30
0.0147187293970971
 11
-0.0024928661718566
 21
-0.0027001778048298
 31
0.0147187293970971
 12
-0.0047921586630569
 22
-0.0037786268959462
 32
0.0138540777369205
 13
-0.0047921586630569
 23
-0.0037786268959462
 33
0.0138540777369205
1001
_KTI_ARE
1070
 29000
1000
BARK
  0
3DFACE
  5
35
  8
0
  6
BARK
 62
     8
 10
-0.0028788582159636
 20
-0.0015686498815516
 30
0.0159371021909824
 11
-0.0031194036149559
 21
-0.0016212463455312
 31
0.0162122186283113
 12
-0.0044715398953318
 22
-0.0048650116305565
 32
0.0159371021909824
 13
-0.0044715398953318
 23
-0.0048650116305565
 33
0.0159371021909824
1001
_KTI_ARE
1070
 29000
1000
BARK
  0
3DFACE
  5
36
  8
0
  6
BARK
 62
     8
 10
0.0015531934559896
 20
-0.0014891778941882
 30
0.0118678287314415
 11
0.0014175633168005
 21
-0.0012498172469797
 31
0.0115927122941126
 12
0.0009251221461233
 22
-0.0032906122929132
 32
0.0142084763588042
 13
0.000983249348633
 23
-0.0033931954274312
 33
0.0142084763588042
1001
_KTI_ARE
1070
 29000
1000
BARK
  0
3DFACE
  5
37
  8
0
  6
BARK
 62
     8
 10
0.0025399874079588
 20
-0.0021272853435831
 30
0.0129093409584724
 11
0.002669106260037
 21
-0.002248148829161
 31
0.0131844573958014
 12
0.0045318640258541
 22
-0.002915121028701
 32
0.0131808190638427
 13
0.0044457847911352
 23
-0.0028345453716491
 33
0.0129646561487985
1001
_KTI_ARE
1070
 29000
1000
BARK
  0
3DFACE
  5
38
  8
0
  6
BARK
 62
     8
 10
0.0025830270253182
 20
-0.0021675731721091
 30
0.0132237597439912
 11
0.0026260666426776
 21
-0.0022078610006351
 31
0.0131255038735166
 12
0.0028010486419799
 22
-0.0037175152509689
 32
0.0141670161005475
 13
0.0027149694072611
 23
-0.0036369395939171
 33
0.014284923145117
1001
_KTI_ARE
1070
 29000
1000
BARK
  0
3DFACE
  5
39
  8
0
  6
BARK
 62
     8
 10
0.0028010486419799
 20
-0.0037175152509689
 30
0.0141670161005475
 11
0.0027149694072611
 21
-0.0036369395939171
 31
0.014284923145117
 12
0.0024329541846985
 22
-0.0045586102191588
 32
0.0165251569919382
 13
0.002547726497657
 23
-0.0046660444285614
 33
0.0165251569919382
1001
_KTI_ARE
1070
 29000
1000
BARK
  0
3DFACE
  5
3A
  8
0
  6
BARK
 62
     8
 10
0.0028010486419799
 20
-0.0037175152509689
 30
0.0141670161005475
 11
0.0028782849152457
 21
-0.0039513165236162
 31
0.0144421325378764
 12
0.0039108105368387
 22
-0.004514068418928
 32
0.0146648528134823
 13
0.0039108105368387
 23
-0.004514068418928
 33
0.0146648528134823
1001
_KTI_ARE
1070
 29000
1000
BARK
  0
3DFACE
  5
3B
  8
0
  6
BARK
 62
     8
 10
0.0044888244084947
 20
-0.0028748332001751
 30
0.0130039584969884
 11
0.0046493881276459
 21
-0.003105882683989
 31
0.0130039584969884
 12
0.0055187655093261
 22
-0.0045926053607107
 32
0.0121393068368118
 13
0.0055187655093261
 23
-0.0045926053607107
 33
0.0121393068368118
1001
_KTI_ARE
1070
 29000
1000
BARK
  0
3DFACE
  5
3C
  8
0
  6
BARK
 62
     8
 10
0.0045318640258541
 20
-0.002915121028701
 30
0.0131808190638427
 11
0.0044457847911352
 21
-0.0028345453716491
 31
0.0129646561487985
 12
0.0074336000378692
 22
-0.0030490947917568
 32
0.0136197022544927
 13
0.0059066319207896
 23
-0.0029660948184933
 33
0.0131808190638427
1001
_KTI_ARE
1070
 29000
1000
BARK
  0
3DFACE
  5
3D
  8
0
  6
BARK
 62
     8
 10
0.0013718569496141
 20
-0.0012070331704304
 30
0.0111407352899294
 11
0.0012140450192962
 21
-0.0010593111325019
 31
0.0113568982049735
 12
0.0025830270253182
 22
-0.0021675731721091
 32
0.0132237597439912
 13
0.0026260666426776
 23
-0.0022078610006351
 33
0.0131255038735166
1001
_KTI_ARE
1070
 29000
1000
BARK
  0
3DFACE
  5
3E
  8
0
  6
BARK
 62
     8
 10
0.000154980114543
 20
0.00014616885723
 30
0.0098845405697461
 11
0.0003271385839807
 21
-0.0000149824568738
 31
0.0098845405697461
 12
0.0013718569496141
 22
-0.0012070331704304
 32
0.0111407352899294
 13
0.0012140450192962
 23
-0.0010593111325019
 33
0.0113568982049735
1001
_KTI_ARE
1070
 29000
1000
BARK
  0
3DFACE
  5
3F
  8
0
  6
BARK
 62
     8
 10
-0.0030943902411101
 20
0.0032647113155314
 30
0.0180004754709492
 11
-0.0029560485077019
 21
0.0030986150463439
 31
0.01780396373
 12
-0.0054995774096174
 22
0.0039723423575216
 32
0.0189044294793157
 13
-0.0054995774096174
 23
0.0039723423575216
 33
0.0189044294793157
1001
_KTI_ARE
1070
 29000
1000
BARK
  0
3DFACE
  5
40
  8
0
  6
BARK
 62
     8
 10
-0.0029560485077019
 20
0.0030986150463439
 30
0.01780396373
 11
-0.0028805893803884
 21
0.0030080170813326
 31
0.0179218707745696
 12
-0.0035570416791438
 22
0.0044649972329129
 32
0.0205551281032892
 13
-0.0035570416791438
 23
0.0044649972329129
 33
0.0205551281032892
1001
_KTI_ARE
1070
 29000
1000
BARK
  0
3DFACE
  5
41
  8
0
  6
BARK
 62
     8
 10
-0.0014500745832585
 20
0.0021860720671574
 30
0.0153279157940398
 11
-0.0016890284864182
 21
0.0024729656230268
 31
0.0153279157940398
 12
-0.0029560485077019
 22
0.0030986150463439
 32
0.01780396373
 13
-0.0028805893803884
 23
0.0030080170813326
 33
0.0179218707745696
1001
_KTI_ARE
1070
 29000
1000
BARK
  0
3DFACE
  5
42
  8
0
  6
BARK
 62
     8
 10
-0.003292116303413
 20
0.0059670259383329
 30
0.0158191951464128
 11
-0.0028304418391708
 21
0.007942438786527
 31
0.0182952430823731
 12
-0.003405658382454
 22
0.0061599630465177
 32
0.0158781486686976
 13
-0.003292116303413
 23
0.0059670259383329
 33
0.0158191951464128
1001
_KTI_ARE
1070
 29000
1000
BARK
  0
3DFACE
  5
43
  8
0
  6
BARK
 62
     8
 10
-0.0032002200195161
 20
0.0057713694054842
 30
0.0156030322313687
 11
-0.0030414900746034
 21
0.0054334172123822
 31
0.0155047763608941
 12
-0.0048861791169028
 22
0.0072808475606291
 32
0.0151117528789956
 13
-0.0042830493642925
 23
0.0067825386191471
 33
0.0153868693163245
1001
_KTI_ARE
1070
 29000
1000
BARK
  0
3DFACE
  5
44
  8
0
  6
BARK
 62
     8
 10
-0.001577705809763
 20
0.0023707934848908
 30
0.0151117528789956
 11
-0.001577705809763
 21
0.0023707934848908
 31
0.0153279157940398
 12
-0.0041108286508577
 22
0.0077101477764385
 32
0.0159960557132671
 13
-0.0041108286508577
 23
0.0077101477764385
 33
0.0159960557132671
1001
_KTI_ARE
1070
 29000
1000
BARK
  0
3DFACE
  5
45
  8
0
  6
BARK
 62
     8
 10
0.0000196511740948
 20
0.0002063373279967
 30
0.012203379112947
 11
0.0000196511740948
 21
0.0002063373279967
 31
0.0119282626756181
 12
-0.0014752276256965
 22
0.0022162713888279
 32
0.0151117528789956
 13
-0.0014752276256965
 23
0.0022162713888279
 33
0.0153279157940398
1001
_KTI_ARE
1070
 29000
1000
BARK
  0
3DFACE
  5
46
  8
0
  6
BARK
 62
     8
 10
0.0001965117409492
 20
0.0001670349798068
 30
0.0
 11
0.0001965117409492
 21
-0.0001670349798068
 31
0.0
 12
0.0001965117409492
 22
-0.0000687791093322
 32
0.0096094241324172
 13
0.0001965117409492
 23
0.0001670349798068
 33
0.0096094241324172
1001
_KTI_ARE
1070
 29000
1000
BARK
  0
3DFACE
  5
47
  8
0
  6
BARK
 62
     8
 10
0.0001965117409492
 20
0.0002063373279967
 30
0.0098845405697461
 11
0.0001965117409492
 21
-0.0000687791093322
 31
0.0096094241324172
 12
0.0001965117409492
 22
-0.0001670349798068
 32
0.0113780298009603
 13
0.0001965117409492
 23
0.0001080814575221
 33
0.0116531462382892
1001
_KTI_ARE
1070
 29000
1000
BARK
  0
3DFACE
  5
48
  8
0
  6
BARK
 62
     8
 10
0.0001965117409492
 20
0.0002063373279967
 30
0.0098845405697461
 11
-0.0000393023481899
 21
0.0002063373279967
 31
0.0098845405697461
 12
-0.0030459319847129
 22
0.0002063373279967
 32
0.0129108213803643
 13
-0.0028297690696688
 23
0.0002063373279967
 33
0.0131269842954084
1001
_KTI_ARE
1070
 29000
1000
BARK
  0
3DFACE
  5
49
  8
0
  6
BARK
 62
     8
 10
-0.0030459319847129
 20
0.0002063373279967
 30
0.0129108213803643
 11
-0.0028297690696688
 21
0.0002063373279967
 31
0.0131269842954084
 12
-0.0050307005683002
 22
-0.0001670349798068
 32
0.0149938458344261
 13
-0.005089654090585
 23
-0.0001670349798068
 33
0.0148955899639515
1001
_KTI_ARE
1070
 29000
1000
BARK
  0
3DFACE
  5
4A
  8
0
  6
BARK
 62
     8
 10
-0.0050307005683002
 20
-0.0001670349798068
 30
0.0149938458344261
 11
-0.005089654090585
 21
-0.0001670349798068
 31
0.0148955899639515
 12
-0.0062490733621853
 22
0.0008155237249393
 32
0.0159371021909824
 13
-0.006131166317616
 23
0.0008155237249393
 33
0.0160550092355519
1001
_KTI_ARE
1070
 29000
1000
BARK
  0
3DFACE
  5
4B
  8
0
  6
BARK
 62
     8
 10
-0.0062490733621853
 20
0.0008155237249393
 30
0.0159371021909824
 11
-0.006131166317616
 21
0.0008155237249393
 31
0.0160550092355519
 12
-0.0072905855892163
 22
0.0035666880982285
 32
0.0182952430823731
 13
-0.0074477949819757
 23
0.0035666880982285
 33
0.0182952430823731
1001
_KTI_ARE
1070
 29000
1000
BARK
  0
3DFACE
  5
4C
  8
0
  6
BARK
 62
     8
 10
-0.0049717470460155
 20
-0.0001670349798068
 30
0.0146794270489073
 11
-0.0051486076128697
 21
-0.0001670349798068
 31
0.0149545434862362
 12
-0.0061901198399006
 22
-0.0009530819436037
 32
0.0148955899639515
 13
-0.0060722127953312
 23
-0.0009530819436037
 33
0.0146794270489073
1001
_KTI_ARE
1070
 29000
1000
BARK
  0
3DFACE
  5
4D
  8
0
  6
BARK
 62
     8
 10
-0.0061901198399006
 20
-0.0009530819436037
 30
0.0148955899639515
 11
-0.0060722127953312
 21
-0.0009530819436037
 31
0.0146794270489073
 12
-0.0076639578970199
 22
-0.0020928500411093
 32
0.0148366364416667
 13
-0.007388841459691
 23
-0.0018177336037803
 33
0.0148955899639515
1001
_KTI_ARE
1070
 29000
1000
BARK
  0
3DFACE
  5
4E
  8
0
  6
BARK
 62
     8
 10
-0.006131166317616
 20
-0.0009530819436037
 30
0.0147187293970971
 11
-0.0064062827549447
 21
-0.0008941284213189
 31
0.0147187293970971
 12
-0.0080569813789183
 22
-0.0004028490689459
 32
0.0138540777369205
 13
-0.0080569813789183
 23
-0.0004028490689459
 33
0.0138540777369205
1001
_KTI_ARE
1070
 29000
1000
BARK
  0
3DFACE
  5
4F
  8
0
  6
BARK
 62
     8
 10
-0.0062490733621853
 20
0.0008155237249393
 30
0.0159371021909824
 11
-0.0064652362772296
 21
0.0009334307695089
 31
0.0162122186283113
 12
-0.007880120812064
 22
0.000638663158085
 32
0.0159371021909824
 13
-0.007880120812064
 23
0.000638663158085
 33
0.0159371021909824
1001
_KTI_ARE
1070
 29000
1000
BARK
  0
3DFACE
  5
50
  8
0
  6
BARK
 62
     8
 10
-0.0034264321603413
 20
0.0002883976814526
 30
0.0136379148218764
 11
-0.0031638390292826
 21
0.0002063373279967
 31
0.0133627983845475
 12
-0.0041989717735903
 22
0.0020327663377716
 32
0.01780396373
 13
-0.0043115116869011
 23
0.0020679350606813
 33
0.01780396373
1001
_KTI_ARE
1070
 29000
1000
BARK
  0
3DFACE
  5
51
  8
0
  6
BARK
 62
     8
 10
-0.0041989717735903
 20
0.0020327663377716
 30
0.01780396373
 11
-0.0043115116869011
 21
0.0020679350606813
 31
0.01780396373
 12
-0.0064448880294266
 22
0.0047270294967535
 32
0.022146873204978
 13
-0.0064448880294266
 23
0.0047270294967535
 33
0.022146873204978
1001
_KTI_ARE
1070
 29000
1000
BARK
  0
3DFACE
  5
52
  8
0
  6
BARK
 62
     8
 10
-0.0043115116869011
 20
0.0020679350606813
 30
0.01780396373
 11
-0.0043115116869011
 21
0.0020679350606813
 31
0.0180201266450442
 12
-0.006355087655998
 22
0.0023895146220529
 32
0.020614081625574
 13
-0.0061651765522858
 23
0.0022066372629227
 33
0.0199459417063466
1001
_KTI_ARE
1070
 29000
1000
BARK
  0
3DFACE
  5
53
  8
0
  6
BARK
 62
     8
 10
-0.0000786046963797
 20
0.0002063373279967
 30
0.0101596570070751
 11
0.0001965117409492
 21
0.0002063373279967
 31
0.0098845405697461
 12
0.0002947676114238
 22
0.0002063373279967
 32
0.0116531462382892
 13
0.0000196511740948
 23
0.0002063373279967
 33
0.0119282626756181
1001
_KTI_ARE
1070
 29000
1000
BARK
  0
3DFACE
  5
54
  8
0
  6
BARK
 62
     8
 10
0.0002947676114238
 20
0.0002063373279967
 30
0.0116531462382892
 11
0.0000196511740948
 21
0.0002063373279967
 31
0.0119282626756181
 12
0.0007467446156071
 22
0.0002063373279967
 32
0.0137951242146358
 13
0.0007467446156071
 23
0.0002063373279967
 33
0.0135200077773069
1001
_KTI_ARE
1070
 29000
1000
BARK
  0
3DFACE
  5
55
  8
0
  6
BARK
 62
     8
 10
0.0007467446156071
 20
0.0002063373279967
 30
0.0137951242146358
 11
0.0007467446156071
 21
0.0002063373279967
 31
0.0135200077773069
 12
0.0031957177302551
 22
0.000015508254128
 32
0.0151117528789956
 13
0.0031957177302551
 23
0.000015508254128
 33
0.0153279157940398
1001
_KTI_ARE
1070
 29000
1000
BARK
  0
3DFACE
  5
56
  8
0
  6
BARK
 62
     8
 10
0.0031959675060315
 20
0.0000105095435278
 30
0.0151117528789956
 11
0.0031959675060315
 21
0.0000105095435278
 31
0.0153279157940398
 12
0.0077413396541407
 22
0.0008264478757139
 32
0.0159960557132671
 13
0.0077413396541407
 23
0.0008264478757139
 33
0.0159960557132671
1001
_KTI_ARE
1070
 29000
1000
BARK
  0
3DFACE
  5
57
  8
0
  6
BARK
 62
     8
 10
0.0056330606577835
 20
0.0004479913726999
 30
0.0156030322313687
 11
0.0052655624841068
 21
0.0003820218905232
 31
0.0155047763608941
 12
0.0078395571371367
 22
-0.0000543587696541
 32
0.0151117528789956
 13
0.0070842194819065
 23
0.0001494605774062
 33
0.0153868693163245
1001
_KTI_ARE
1070
 29000
1000
BARK
  0
3DFACE
  5
58
  8
0
  6
BARK
 62
     8
 10
0.0058458227583334
 20
0.0004861842308023
 30
0.0158191951464128
 11
0.0071903125061502
 21
0.0020053111345727
 31
0.0182952430823731
 12
0.006290688968574
 22
0.0005660420250162
 32
0.0158781486686976
 13
0.0058458227583334
 23
0.0004861842308023
 33
0.0158191951464128
1001
_KTI_ARE
1070
 29000
1000
BARK
  0
3DFACE
  5
59
  8
0
  6
BARK
 62
     8
 10
0.0031565341604208
 20
0.00001856151931
 30
0.0153279157940398
 11
0.0035287780738473
 21
-0.0000104444999181
 31
0.0153279157940398
 12
0.0047719658804104
 22
-0.0017630187143281
 32
0.01780396373
 13
0.0046544151709074
 23
-0.0017538589187824
 33
0.0179218707745696
1001
_KTI_ARE
1070
 29000
1000
BARK
  0
3DFACE
  5
5A
  8
0
  6
BARK
 62
     8
 10
0.0047719658804104
 20
-0.0017630187143281
 30
0.01780396373
 11
0.0046544151709074
 21
-0.0017538589187824
 31
0.0179218707745696
 12
0.0062342254637748
 22
-0.0014630354102065
 32
0.0205551281032892
 13
0.0062342254637748
 23
-0.0014630354102065
 33
0.0205551281032892
1001
_KTI_ARE
1070
 29000
1000
BARK
  0
3DFACE
  5
5B
  8
0
  6
BARK
 62
     8
 10
0.0049874755144995
 20
-0.0017798116728285
 30
0.0180004754709492
 11
0.0047719658804104
 21
-0.0017630187143281
 31
0.01780396373
 12
0.0069558138017636
 22
-0.0033326514565893
 32
0.0189044294793157
 13
0.0069558138017636
 23
-0.0033326514565893
 33
0.0189044294793157
1001
_KTI_ARE
1070
 29000
1000
BARK
  0
3DFACE
  5
5C
  8
0
  6
BARK
 62
     8
 10
0.0007527110749591
 20
0.0002152147310158
 30
0.0137951242146358
 11
0.0010074509066187
 21
0.0003191217676138
 31
0.0140112871296799
 12
0.0014077563563696
 22
0.0004824042536964
 32
0.0169196608957285
 13
0.0012985821428012
 23
0.0004378726665829
 33
0.0170965214625828
1001
_KTI_ARE
1070
 29000
1000
BARK
  0
3DFACE
  5
5D
  8
0
  6
BARK
 62
     8
 10
0.0014077563563696
 20
0.0004824042536964
 30
0.0169196608957285
 11
0.0012985821428012
 21
0.0004378726665829
 31
0.0170965214625828
 12
0.0035912406277379
 22
0.001373035995965
 32
0.0189633830016005
 13
0.0036458277345221
 23
0.0013953017895217
 33
0.0187865224347462
1001
_KTI_ARE
1070
 29000
1000
BARK
  0
3DFACE
  5
5E
  8
0
  6
BARK
 62
     8
 10
0.0035912406277379
 20
0.001373035995965
 30
0.0189633830016005
 11
0.0036458277345221
 21
0.0013953017895217
 31
0.0187865224347462
 12
0.0049741139996045
 22
0.0019371027660685
 32
0.0216555938526049
 13
0.0045556128475922
 23
0.0017663983488004
 33
0.0210464074556623
1001
_KTI_ARE
1070
 29000
1000
BARK
  0
3DFACE
  5
5F
  8
0
  6
BARK
 62
     8
 10
0.0038459804593976
 20
0.001476943032563
 30
0.0190223365238852
 11
0.0036458277345221
 21
0.0013953017895217
 31
0.0187472200865563
 12
0.0064843572873007
 22
0.002553123054471
 32
0.0197297787913024
 13
0.0053744194493552
 23
0.0021003852521511
 33
0.0196118717467329
1001
_KTI_ARE
1070
 29000
1000
BARK
  0
3DFACE
  5
60
  8
0
  6
BARK
 62
     8
 10
0.0013362798384548
 20
0.0004669951101667
 30
0.0170965214625828
 11
0.0015131404053089
 21
0.0004111398711303
 31
0.0173716378999117
 12
0.0017293033203531
 22
0.0002063373279967
 32
0.0192384994389294
 13
0.0015524427534989
 23
0.0002063373279967
 33
0.0192384994389294
1001
_KTI_ARE
1070
 29000
1000
BARK
  0
3DFACE
  5
61
  8
0
  6
BARK
 62
     8
 10
0.0016624961880291
 20
0.0005863112902944
 30
0.0192384994389294
 11
0.0014987348676766
 21
0.0005195139096242
 31
0.0192384994389294
 12
0.0018676766727401
 22
-0.0000728040824114
 32
0.0235814089139073
 13
0.0018676766727401
 23
-0.0000728040824114
 33
0.0235814089139073
1001
_KTI_ARE
1070
 29000
1000
BARK
  0
3DFACE
  5
62
  8
0
  6
BARK
 62
     8
 10
0.001607909081245
 20
0.0005640454967377
 30
0.0192384994389294
 11
0.0016624961880291
 21
0.0005863112902944
 31
0.0196708252690177
 12
0.0026883986115833
 22
0.0021295941426234
 32
0.0209285004110927
 13
0.0027429857183675
 23
0.0021518599361801
 33
0.0207123374960486
1001
_KTI_ARE
1070
 29000
1000
BARK
  0
3DFACE
  5
63
  8
0
  6
BARK
 62
     8
 10
0.0026883986115833
 20
0.0021295941426234
 30
0.0209285004110927
 11
0.0027429857183675
 21
0.0021518599361801
 31
0.0207123374960486
 12
0.0039963344201892
 22
0.002981440309019
 32
0.0222058267272627
 13
0.0039963344201892
 23
0.002981440309019
 33
0.0222058267272627
1001
_KTI_ARE
1070
 29000
1000
BARK
  0
3DFACE
  5
64
  8
0
  6
BARK
 62
     8
 10
0.0026883986115833
 20
0.0021295941426234
 30
0.0208891980629029
 11
0.0025004561605937
 21
0.0018619257856727
 31
0.0207123374960486
 12
0.0024956678178934
 22
0.0036427104359399
 32
0.022638152557351
 13
0.0024956678178934
 23
0.0036427104359399
 33
0.022638152557351
1001
_KTI_ARE
1070
 29000
1000
BARK
  0
3DFACE
  5
65
  8
0
  6
BARK
 62
     8
 10
0.0014148845348346
 20
0.0000294767611425
 30
0.0208891980629029
 11
0.0014148845348346
 21
-0.0000294767611424
 31
0.0213215238929912
 12
0.0027708155473842
 22
-0.0013068030773123
 32
0.0232473389542936
 13
0.0027708155473842
 23
-0.0013068030773123
 33
0.0232473389542936
1001
_KTI_ARE
1070
 29000
1000
BARK
  0
3DFACE
  5
66
  8
0
  6
BARK
 62
     8
 10
0.0014541868830242
 20
0.0002063373279967
 30
0.0194546623539735
 11
0.0014541868830242
 21
0.0002063373279967
 31
0.0191795459166446
 12
-0.001532791579404
 22
0.0013264542514073
 32
0.0237386183066667
 13
-0.0013952333607396
 23
0.0013264542514073
 33
0.0231294319097241
1001
_KTI_ARE
1070
 29000
1000
BARK
  0
3DFACE
  5
67
  8
0
  6
BARK
 62
     8
 10
0.0000196511740948
 20
0.0002259885020916
 30
0.0119282626756181
 11
0.0000196511740948
 21
0.0002259885020916
 31
0.0113780298009603
 12
-0.0016900009721635
 22
-0.0002063373279967
 32
0.0167624515029691
 13
-0.0015720939275937
 23
-0.0002063373279967
 33
0.017037567940298
1001
_KTI_ARE
1070
 29000
1000
BARK
  0
3DFACE
  5
68
  8
0
  6
BARK
 62
     8
 10
-0.0016900009721635
 20
-0.0001866861539017
 30
0.0167624515029691
 11
-0.0015720939275937
 21
-0.0001866861539017
 31
0.017037567940298
 12
-0.0024956991100551
 22
0.0007958725508444
 32
0.0193957088316888
 13
-0.0025546526323399
 23
0.0007958725508444
 33
0.0193957088316888
1001
_KTI_ARE
1070
 29000
1000
BARK
  0
3DFACE
  5
69
  8
0
  6
BARK
 62
     8
 10
-0.0016310474498786
 20
-0.0002063373279967
 30
0.0170965214625828
 11
-0.0017293033203532
 21
-0.0002063373279967
 31
0.0167624515029691
 12
-0.0050439526554897
 22
-0.0031199842666369
 32
0.0214394309375607
 13
-0.0050439526554897
 23
-0.0031199842666369
 33
0.0214787332857506
1001
_KTI_ARE
1070
 29000
1000
BARK
  0
3DFACE
  5
6A
  8
0
  6
BARK
 62
     8
 10
-0.0005109305264681
 20
0.0022500594338687
 30
0.0170965214625828
 11
-0.0005109305264681
 21
0.0023483153043433
 31
0.0167624515029691
 12
-0.0015131404053092
 22
0.0057479684227649
 32
0.0214394309375607
 13
-0.0015131404053092
 23
0.0057479684227649
 33
0.0214787332857506
1001
_KTI_ARE
1070
 29000
1000
BARK
  0
3DFACE
  5
6B
  8
0
  6
BARK
 62
     8
 10
0.0000181394318071
 20
0.0026554705482741
 30
0.0216555938526049
 11
0.0011685668760887
 21
0.0027144240705589
 31
0.0233455948247682
 12
0.0000181394318071
 22
0.0027304311748606
 32
0.0220879196826932
 13
0.0000181394318071
 23
0.0027304311748606
 33
0.0220879196826932
1001
_KTI_ARE
1070
 29000
1000
BARK
  0
3DFACE
  5
6C
  8
0
  6
BARK
 62
     8
 10
0.0001506404336677
 20
0.0016003528287774
 30
0.0193957088316888
 11
-0.0000911177902989
 21
0.0035109330054472
 31
0.0231883854320089
 12
0.0001703757988895
 22
0.0014443871000696
 32
0.0197297787913024
 13
0.0001703757988895
 23
0.0014443871000696
 33
0.0197297787913024
1001
_KTI_ARE
1070
 29000
1000
BARK
  0
3DFACE
  5
6D
  8
0
  6
BARK
 62
     8
 10
0.0001768605668543
 20
0.0013854077736921
 30
0.0193957088316888
 11
0.0001768605668543
 21
0.0016015706887363
 31
0.0193957088316888
 12
0.0001768605668543
 22
0.0004028490689459
 32
0.0237975718289515
 13
0.0001768605668543
 23
0.0004028490689459
 33
0.0230901295615342
1001
_KTI_ARE
1070
 29000
1000
BARK
  0
3DFACE
  5
6E
  8
0
  6
BARK
 62
     8
 10
-0.000522840723847
 20
0.0022909506771502
 30
0.0167624515029691
 11
-0.0006312143978672
 21
0.0022445048168558
 31
0.017037567940298
 12
-0.0012691653103551
 22
0.0016091472615547
 32
0.0193957088316888
 13
-0.001070480241318
 23
0.0016942980054277
 33
0.0193957088316888
1001
_KTI_ARE
1070
 29000
1000
BARK
  0
3DFACE
  5
6F
  8
0
  6
BARK
 62
     8
 10
0.0001768605668543
 20
0.0003438955466612
 30
0.0119282626756181
 11
0.0001768605668543
 21
0.0003438955466612
 31
0.0113780298009603
 12
-0.0005109305264681
 22
0.0023090129561534
 32
0.0167624515029691
 13
-0.0005109305264681
 23
0.0021911059115839
 33
0.017037567940298
1001
_KTI_ARE
1070
 29000
1000
BARK
  0
3DFACE
  5
70
  8
0
  6
BARK
 62
     8
 10
0.0001768605668543
 20
-0.0010906401622682
 30
0.0194546623539735
 11
0.0001768605668543
 21
-0.0010906401622682
 31
0.0191795459166446
 12
0.0031441878551876
 22
0.0017784312555905
 32
0.0237386183066667
 13
0.0025546526323399
 23
0.0011102913363632
 33
0.0231294319097241
1001
_KTI_ARE
1070
 29000
1000
BARK
  0
3DFACE
  5
71
  8
0
  6
BARK
 62
     8
 10
-0.0001179070445695
 20
-0.0012085472068377
 30
0.0208891980629029
 11
-0.0001768605668543
 21
-0.0012085472068377
 31
0.0213215238929912
 12
-0.0014541868830242
 22
-0.0025644782193874
 32
0.0232473389542936
 13
-0.0014541868830242
 23
-0.0025644782193874
 33
0.0232473389542936
1001
_KTI_ARE
1070
 29000
1000
BARK
  0
3DFACE
  5
72
  8
0
  6
BARK
 62
     8
 10
0.0016976376915188
 20
-0.0024415614091861
 30
0.0208891980629029
 11
0.0014365725692886
 21
-0.002244549439622
 31
0.0207123374960486
 12
0.0032164738115571
 22
-0.0023008385737832
 32
0.022638152557351
 13
0.0032164738115571
 23
-0.0023008385737832
 33
0.022638152557351
1001
_KTI_ARE
1070
 29000
1000
BARK
  0
3DFACE
  5
73
  8
0
  6
BARK
 62
     8
 10
0.0016976376915188
 20
-0.0024415614091861
 30
0.0209285004110927
 11
0.0017180182400944
 21
-0.0024968800410341
 31
0.0207123374960486
 12
0.0025041251137245
 22
-0.0037779430943571
 32
0.0222058267272627
 13
0.0025041251137245
 23
-0.0037779430943571
 33
0.0222058267272627
1001
_KTI_ARE
1070
 29000
1000
BARK
  0
3DFACE
  5
74
  8
0
  6
BARK
 62
     8
 10
0.0001700670506625
 20
-0.001308014707458
 30
0.0192384994389294
 11
0.0001904475992381
 21
-0.001363333339306
 31
0.0196708252690177
 12
0.0016976376915188
 22
-0.0024415614091861
 32
0.0209285004110927
 13
0.0017180182400944
 23
-0.0024968800410341
 33
0.0207123374960486
1001
_KTI_ARE
1070
 29000
1000
BARK
  0
3DFACE
  5
75
  8
0
  6
BARK
 62
     8
 10
0.0001768605668543
 20
-0.0013657565995971
 30
0.0192384994389294
 11
0.0001768605668543
 21
-0.0011888960327428
 31
0.0192384994389294
 12
-0.0005109305264681
 22
-0.0013068030773124
 32
0.0235814089139073
 13
-0.0005109305264681
 23
-0.0013068030773124
 33
0.0235814089139073
1001
_KTI_ARE
1070
 29000
1000
BARK
  0
3DFACE
  5
76
  8
0
  6
BARK
 62
     8
 10
0.0001768605668543
 20
-0.0009727331176986
 30
0.0170965214625828
 11
0.0001768605668543
 21
-0.001149593684553
 31
0.0173716378999117
 12
0.0001768605668543
 22
-0.0013657565995971
 32
0.0192384994389294
 13
0.0001768605668543
 23
-0.0011888960327428
 33
0.0192384994389294
1001
_KTI_ARE
1070
 29000
1000
BARK
  0
3DFACE
  5
77
  8
0
  6
BARK
 62
     8
 10
0.0001998221942708
 20
-0.0035925856048816
 30
0.0190223365238852
 11
0.0001829805366908
 21
-0.003377079771062
 31
0.0187472200865563
 12
0.0006362275271094
 22
-0.0064058064949162
 32
0.0197297787913024
 13
0.0003869043970838
 23
-0.0052307562008238
 33
0.0196118717467329
1001
_KTI_ARE
1070
 29000
1000
BARK
  0
3DFACE
  5
78
  8
0
  6
BARK
 62
     8
 10
0.0001768605668543
 20
-0.003448781053659
 30
0.0189633830016005
 11
0.0001768605668543
 21
-0.0035077345759437
 31
0.0187865224347462
 12
0.0003537211337086
 22
-0.0049422702848731
 32
0.0216555938526049
 13
0.0002358140891392
 23
-0.0044902932806899
 33
0.0210464074556623
1001
_KTI_ARE
1070
 29000
1000
BARK
  0
3DFACE
  5
79
  8
0
  6
BARK
 62
     8
 10
0.0001768605668543
 20
-0.0010906401622682
 30
0.0169196608957285
 11
0.0001768605668543
 21
-0.0009727331176986
 31
0.0170965214625828
 12
0.0001768605668543
 22
-0.003448781053659
 32
0.0189633830016005
 13
0.0001768605668543
 23
-0.0035077345759437
 33
0.0187865224347462
1001
_KTI_ARE
1070
 29000
1000
BARK
  0
3DFACE
  5
7A
  8
0
  6
BARK
 62
     8
 10
0.0001768605668543
 20
-0.000383197894851
 30
0.0137951242146358
 11
0.0001768605668543
 21
-0.0006583143321799
 31
0.0140112871296799
 12
0.0001768605668543
 22
-0.0010906401622682
 32
0.0169196608957285
 13
0.0001768605668543
 23
-0.0009727331176986
 33
0.0170965214625828
1001
_KTI_ARE
1070
 29000
1000
BARK
  0
3DFACE
  5
7B
  8
0
  6
BARK
 62
     8
 10
-0.0006877910933223
 20
-0.0046082003252594
 30
0.0180004754709492
 11
-0.0006877910933223
 21
-0.0043920374102152
 31
0.01780396373
 12
-0.0033406995961368
 22
-0.0066912247793212
 32
0.0189044294793157
 13
-0.0033406995961368
 23
-0.0066912247793212
 33
0.0189044294793157
1001
_KTI_ARE
1070
 29000
1000
BARK
  0
3DFACE
  5
7C
  8
0
  6
BARK
 62
     8
 10
-0.0006877910933223
 20
-0.0043920374102152
 30
0.01780396373
 11
-0.0006877910933223
 21
-0.0042741303656457
 31
0.0179218707745696
 12
-0.0010611634011258
 22
-0.005983782511904
 32
0.0205551281032892
 13
-0.0010611634011258
 23
-0.005983782511904
 33
0.0205551281032892
1001
_KTI_ARE
1070
 29000
1000
BARK
  0
3DFACE
  5
7D
  8
0
  6
BARK
 62
     8
 10
0.0001768605668543
 20
-0.0028002923085265
 30
0.0153279157940398
 11
0.0001768605668543
 21
-0.00317366461633
 31
0.0153279157940398
 12
-0.0006877910933223
 22
-0.0043920374102152
 32
0.01780396373
 13
-0.0006877910933223
 23
-0.0042741303656457
 33
0.0179218707745696
1001
_KTI_ARE
1070
 29000
1000
BARK
  0
3DFACE
  5
7E
  8
0
  6
BARK
 62
     8
 10
0.0019990148539119
 20
-0.0048173970354276
 30
0.0158191951464128
 11
0.0042814435876002
 21
-0.005138397193738
 31
0.0182952430823731
 12
0.0021100397176123
 22
-0.0049324507400012
 32
0.0158781486686976
 13
0.0019990148539119
 23
-0.0048173970354276
 33
0.0158191951464128
1001
_KTI_ARE
1070
 29000
1000
BARK
  0
3DFACE
  5
7F
  8
0
  6
BARK
 62
     8
 10
0.001851932129949
 20
-0.0046589890869148
 30
0.0156030322313687
 11
0.0015978801521949
 21
-0.0043853753576653
 31
0.0155047763608941
 12
0.0018580039286585
 22
-0.0074958390406168
 32
0.0151117528789956
 13
0.0018614038369977
 23
-0.0063191376502265
 33
0.0153868693163245
1001
_KTI_ARE
1070
 29000
1000
BARK
  0
3DFACE
  5
80
  8
0
  6
BARK
 62
     8
 10
0.0001671663827377
 20
-0.0028444980403132
 30
0.0151117528789956
 11
0.0001671663827377
 21
-0.0028444980403132
 31
0.0153279157940398
 12
0.0033093882128538
 22
-0.006228667849451
 32
0.0159960557132671
 13
0.0033093882128538
 23
-0.006228667849451
 33
0.0159960557132671
1001
_KTI_ARE
1070
 29000
1000
BARK
  0
3DFACE
  5
81
  8
0
  6
BARK
 62
     8
 10
0.0001768605668543
 20
-0.000383197894851
 30
0.0137951242146358
 11
0.0001768605668543
 21
-0.000383197894851
 31
0.0135200077773069
 12
0.0001768605668543
 22
-0.0028395946567163
 32
0.0151117528789956
 13
0.0001768605668543
 23
-0.0028395946567163
 33
0.0153279157940398
1001
_KTI_ARE
1070
 29000
1000
BARK
  0
3DFACE
  5
82
  8
0
  6
BARK
 62
     8
 10
0.0001768605668543
 20
0.0000687791093322
 30
0.0116531462382892
 11
0.0001768605668543
 21
0.0003438955466612
 31
0.0119282626756181
 12
0.0001768605668543
 22
-0.000383197894851
 32
0.0137951242146358
 13
0.0001768605668543
 23
-0.000383197894851
 33
0.0135200077773069
1001
_KTI_ARE
1070
 29000
1000
BARK
  0
3DFACE
  5
83
  8
0
  6
BARK
 62
     8
 10
0.0001768605668543
 20
0.0004421514171358
 30
0.0101596570070751
 11
0.0001768605668543
 21
0.0001670349798068
 31
0.0098845405697461
 12
0.0001768605668543
 22
0.0000687791093322
 32
0.0116531462382892
 13
0.0001768605668543
 23
0.0003438955466612
 33
0.0119282626756181
1001
_KTI_ARE
1070
 29000
1000
BARK
  0
3DFACE
  5
84
  8
0
  6
BARK
 62
     8
 10
0.0026248682953887
 20
0.0043354309424687
 30
0.01780396373
 11
0.0026248682953887
 21
0.0043354309424687
 31
0.0180201266450442
 12
0.0034112795114294
 22
0.0055481674182072
 32
0.020614081625574
 13
0.0032021176874161
 23
0.0053876629411012
 33
0.0199459417063466
1001
_KTI_ARE
1070
 29000
1000
BARK
  0
3DFACE
  5
85
  8
0
  6
BARK
 62
     8
 10
0.0025733044612045
 20
0.0042293967868236
 30
0.01780396373
 11
0.0026248682953887
 21
0.0043354309424687
 31
0.01780396373
 12
0.0053265506272198
 22
0.0048134455258172
 32
0.022146873204978
 13
0.0053265506272198
 23
0.0048134455258172
 33
0.022146873204978
1001
_KTI_ARE
1070
 29000
1000
BARK
  0
3DFACE
  5
86
  8
0
  6
BARK
 62
     8
 10
0.0007332080028929
 20
0.0037257257758495
 30
0.0136379148218764
 11
0.0006128923897966
 21
0.0034783127460111
 31
0.0133627983845475
 12
0.0025733044612045
 22
0.0042293967868236
 32
0.01780396373
 13
0.0026248682953887
 23
0.0043354309424687
 33
0.01780396373
1001
_KTI_ARE
1070
 29000
1000
BARK
  0
3DFACE
  5
87
  8
0
  6
BARK
 62
     8
 10
0.0025099891884465
 20
0.005986460008772
 30
0.0159371021909824
 11
0.0027105570400957
 21
0.0061292921266038
 31
0.0162122186283113
 12
0.0030642376611922
 22
0.0075306115798046
 32
0.0159371021909824
 13
0.0030642376611922
 23
0.0075306115798046
 33
0.0159371021909824
1001
_KTI_ARE
1070
 29000
1000
BARK
  0
3DFACE
  5
88
  8
0
  6
BARK
 62
     8
 10
0.0008679130195867
 20
0.0066538833658883
 30
0.0147187293970971
 11
0.0010412457105055
 21
0.0068755144786347
 31
0.0147187293970971
 12
0.0022049483709371
 22
0.008145143348565
 32
0.0138540777369205
 13
0.0022049483709371
 23
0.008145143348565
 33
0.0138540777369205
1001
_KTI_ARE
1070
 29000
1000
BARK
  0
3DFACE
  5
89
  8
0
  6
BARK
 62
     8
 10
0.0008936949366787
 20
0.0067069004437108
 30
0.0148955899639515
 11
0.0008421311024947
 21
0.0066008662880657
 31
0.0146794270489073
 12
0.0005132460260777
 22
0.0085307777863868
 32
0.0148366364416667
 13
0.00064034344282
 23
0.0081630491434521
 33
0.0148955899639515
1001
_KTI_ARE
1070
 29000
1000
BARK
  0
3DFACE
  5
8A
  8
0
  6
BARK
 62
     8
 10
0.0010677630210767
 20
0.0052674552741514
 30
0.0146794270489073
 11
0.0011451087723528
 21
0.0054265065076189
 31
0.0149545434862362
 12
0.0008936949366787
 22
0.0067069004437108
 32
0.0148955899639515
 13
0.0008421311024947
 23
0.0066008662880657
 33
0.0146794270489073
1001
_KTI_ARE
1070
 29000
1000
BARK
  0
3DFACE
  5
8B
  8
0
  6
BARK
 62
     8
 10
0.0025099891884465
 20
0.005986460008772
 30
0.0159371021909824
 11
0.0024584253542623
 21
0.0058804258531269
 31
0.0160550092355519
 12
0.0054396000221238
 22
0.0057199389193411
 32
0.0182952430823731
 13
0.005508351801036
 23
0.0058613177935345
 33
0.0182952430823731
1001
_KTI_ARE
1070
 29000
1000
BARK
  0
3DFACE
  5
8C
  8
0
  6
BARK
 62
     8
 10
0.0010935449381687
 20
0.0053204723519739
 30
0.0149938458344261
 11
0.0011193268552608
 21
0.0053734894297964
 31
0.0148955899639515
 12
0.0025099891884465
 22
0.005986460008772
 32
0.0159371021909824
 13
0.0024584253542623
 23
0.0058804258531269
 33
0.0160550092355519
1001
_KTI_ARE
1070
 29000
1000
BARK
  0
3DFACE
  5
8D
  8
0
  6
BARK
 62
     8
 10
0.0005613285556125
 20
0.003372278590366
 30
0.0129108213803643
 11
0.0004667948596084
 21
0.00317788263835
 31
0.0131269842954084
 12
0.0010935449381687
 22
0.0053204723519739
 32
0.0149938458344261
 13
0.0011193268552608
 23
0.0053734894297964
 33
0.0148955899639515
1001
_KTI_ARE
1070
 29000
1000
BARK
  0
3DFACE
  5
8E
  8
0
  6
BARK
 62
     8
 10
0.000172415677971
 20
0.0001647285553065
 30
0.0098845405697461
 11
0.0001958716640872
 21
0.0003993731830988
 31
0.0098845405697461
 12
0.0004949354870693
 22
0.0033910921874512
 32
0.0129108213803643
 13
0.0004734341664627
 23
0.0031760012786415
 33
0.0131269842954084
1001
_KTI_ARE
1070
 29000
1000
BARK
  0
3DFACE
  5
8F
  8
0
  6
BARK
 62
     8
 10
0.0001768605668543
 20
0.0001670349798068
 30
0.0098845405697461
 11
-0.0000982558704745
 21
0.0001670349798068
 31
0.0096094241324172
 12
-0.0000982558704745
 22
0.0001670349798068
 32
0.0096094241324172
 13
0.0000786046963797
 23
0.0001670349798068
 33
0.0116531462382892
1001
_KTI_ARE
1070
 29000
1000
BARK
  0
3DFACE
  5
90
  8
0
  6
BARK
 62
     8
 10
0.0001375582186646
 20
0.0001670349798068
 30
0.0
 11
-0.0001965117409492
 21
0.0001670349798068
 31
0.0
 12
-0.0000982558704745
 22
0.0001670349798068
 32
0.0096094241324172
 13
0.0001375582186646
 23
0.0001670349798068
 33
0.0096094241324172
1001
_KTI_ARE
1070
 29000
1000
BARK
  0
LINE
  5
91
  8
0
  6
BARK
 62
     8
 10
-0.0053223772951798
 20
0.0060003428014547
 30
0.0221861755531678
 11
-0.0053223772951798
 21
0.0060003428014547
 31
0.0221861755531678
1001
_KTI_ARE
1070
 29000
1000
BARK
  0
INSERT
  5
92
  8
0
  6
BYBLOCK
 62
     0
  2
12ZPLT11_LEAF
 10
0.0006655188442104
 20
-0.0030480217905614
 30
0.0240115079396465
 41
0.0009607425707933
 42
0.0009607425707933
 43
0.0009607425707933
 50
322.8876813843725
210
-0.2189149680833285
220
0.1899969169839158
230
0.957067086617068
1001
_KTI_ARE
1070
 29000
1000
BYBLOCK
  0
INSERT
  5
93
  8
0
  6
BYBLOCK
 62
     0
  2
12ZPLT11_LEAF
 10
-0.0003144271122873
 20
0.0070606169334027
 30
0.0162762819118949
 41
-0.0024018564269832
 42
0.0024018564269832
 43
0.0024018564269832
 50
0.0
210
5.829588722703998E-17
220
-0.7307971937016278
230
0.6825946540061866
1001
_KTI_ARE
1070
 29000
1000
BYBLOCK
  0
INSERT
  5
94
  8
0
  6
BYBLOCK
 62
     0
  2
12ZPLT11_LEAF
 10
0.000074241469589
 20
0.0001927473187747
 30
0.0183211837889175
 41
-0.0019214851415866
 42
0.0019214851415866
 43
0.0019214851415866
 50
355.3307090482872
210
2.992765958273903E-17
220
0.5471233640673925
230
0.837051984342418
1001
_KTI_ARE
1070
 29000
1000
BYBLOCK
  0
INSERT
  5
95
  8
0
  6
BYBLOCK
 62
     0
  2
12ZPLT11_LEAF
 10
-0.0025406095369534
 20
0.0079602858299472
 30
0.0152194013118919
 41
-0.0016812994988883
 42
0.0016812994988883
 43
0.0016812994988883
 50
354.4587952219604
210
-0.8598677795722385
220
8.990036830967629E-17
230
0.5105167986007005
1001
_KTI_ARE
1070
 29000
1000
BYBLOCK
  0
INSERT
  5
96
  8
0
  6
BYBLOCK
 62
     0
  2
12ZPLT11_LEAF
 10
0.0005710872668276
 20
0.0074765895191962
 30
0.0166504201444942
 41
-0.0026420420696816
 42
0.0026420420696816
 43
0.0026420420696816
 50
356.9564645222133
210
0.8422068303019278
220
8.464064422532715E-17
230
0.5391545743038629
1001
_KTI_ARE
1070
 29000
1000
BYBLOCK
  0
INSERT
  5
97
  8
0
  6
BYBLOCK
 62
     0
  2
12ZPLT11_LEAF
 10
-0.0007691627362854
 20
0.0040905024436205
 30
0.0162716540147065
 41
-0.0024018564269832
 42
0.0024018564269832
 43
0.0024018564269832
 50
359.7128055154926
210
-0.4014442953976615
220
0.5867262778888954
230
0.7032743081666767
1001
_KTI_ARE
1070
 29000
1000
BYBLOCK
  0
INSERT
  5
98
  8
0
  6
BYBLOCK
 62
     0
  2
12ZPLT11_LEAF
 10
0.0031276444045287
 20
0.0019633240961769
 30
0.0160463401833064
 41
-0.0014411138561899
 42
0.0014411138561899
 43
0.0014411138561899
 50
0.0000000000000072
210
0.2965620020602762
220
-0.4589867293425198
230
0.8374856185161971
1001
_KTI_ARE
1070
 29000
1000
BYBLOCK
  0
INSERT
  5
99
  8
0
  6
BYBLOCK
 62
     0
  2
12ZPLT11_LEAF
 10
0.0013597859133398
 20
-0.0023656393965688
 30
0.0192662376163739
 41
-0.0024018564269832
 42
0.0024018564269832
 43
0.0024018564269832
210
0.2340736655775009
220
0.3168310794038613
230
0.9191450300180578
1001
_KTI_ARE
1070
 29000
1000
BYBLOCK
  0
INSERT
  5
9A
  8
0
  6
BYBLOCK
 62
     0
  2
12ZPLT11_LEAF
 10
-0.0021931772950293
 20
0.0010065494045123
 30
0.01872320020629
 41
-0.0021616707842849
 42
0.0021616707842849
 43
0.0021616707842849
 50
359.9999999999999
210
-0.3209002253225345
220
-0.3447126095337467
230
0.8821543301579272
1001
_KTI_ARE
1070
 29000
1000
BYBLOCK
  0
INSERT
  5
9B
  8
0
  6
BYBLOCK
 62
     0
  2
12ZPLT11_LEAF
 10
0.0015551883439556
 20
-0.0024835905837866
 30
0.0184804099355826
 41
-0.0012009282134916
 42
0.0012009282134916
 43
0.0012009282134916
 50
0.0000000000000003
210
-0.3395641265858508
220
0.2345442936211505
230
0.9108705606537868
1001
_KTI_ARE
1070
 29000
1000
BYBLOCK
  0
INSERT
  5
9C
  8
0
  6
BYBLOCK
 62
     0
  2
12ZPLT11_LEAF
 10
0.0023541746554355
 20
0.0041821808871181
 30
0.0189031650674064
 41
-0.0024018564269832
 42
0.0024018564269832
 43
0.0024018564269832
210
0.5937739542349441
220
0.2847118013997225
230
0.752576694706874
1001
_KTI_ARE
1070
 29000
1000
BYBLOCK
  0
INSERT
  5
9D
  8
0
  6
BYBLOCK
 62
     0
  2
12ZPLT11_LEAF
 10
0.0002027270533422
 20
0.0035722839404696
 30
0.0178594013208312
 41
-0.0016812994988883
 42
0.0016812994988883
 43
0.0016812994988883
 50
0.0000000000000123
210
0.186665828502021
220
0.5690089392958166
230
0.8008649670644258
1001
_KTI_ARE
1070
 29000
1000
BYBLOCK
  0
INSERT
  5
9E
  8
0
  6
BYBLOCK
 62
     0
  2
12ZPLT11_LEAF
 10
0.0025230707277044
 20
0.0103776627031801
 30
0.0165143636895058
 41
-0.0021616707842849
 42
0.0021616707842849
 43
0.0021616707842849
 50
33.40925357485342
210
-0.6863638302859449
220
-0.4423612101497055
230
0.5772531959461937
1001
_KTI_ARE
1070
 29000
1000
BYBLOCK
  0
INSERT
  5
9F
  8
0
  6
BYBLOCK
 62
     0
  2
12ZPLT11_LEAF
 10
-0.0056336523166857
 20
0.0067740447123554
 30
0.0134487583231461
 41
-0.0024018564269832
 42
0.0024018564269832
 43
0.0024018564269832
 50
319.3064180181428
210
0.6315488257264262
220
-0.3217251093174093
230
0.7054353512252366
1001
_KTI_ARE
1070
 29000
1000
BYBLOCK
  0
INSERT
  5
A0
  8
0
  6
BYBLOCK
 62
     0
  2
12ZPLT11_LEAF
 10
0.004828824940374
 20
0.0071086681630335
 30
0.0148865859234597
 41
-0.0024018564269832
 42
0.0024018564269832
 43
0.0024018564269832
 50
0.0000000000000258
210
0.3944957412593234
220
-0.6325155181085178
230
0.6665562462989678
1001
_KTI_ARE
1070
 29000
1000
BYBLOCK
  0
INSERT
  5
A1
  8
0
  6
BYBLOCK
 62
     0
  2
12ZPLT11_LEAF
 10
-0.0014772628593771
 20
0.0031136805166123
 30
0.0200977595410651
 41
-0.0019214851415866
 42
0.0019214851415866
 43
0.0019214851415866
 50
0.0000000000000094
210
-0.5207757896189414
220
-0.262454465403195
230
0.8123485892993789
1001
_KTI_ARE
1070
 29000
1000
BYBLOCK
  0
INSERT
  5
A2
  8
0
  6
BYBLOCK
 62
     0
  2
12ZPLT11_LEAF
 10
0.0025183817075025
 20
-0.0038927394934289
 30
0.0198496334901448
 41
-0.0024018564269832
 42
0.0024018564269832
 43
0.0024018564269832
 50
0.0000000000000007
210
-0.1582972507970482
220
0.0611603014443135
230
0.9854955088265684
1001
_KTI_ARE
1070
 29000
1000
BYBLOCK
  0
INSERT
  5
A3
  8
0
  6
BYBLOCK
 62
     0
  2
12ZPLT11_LEAF
 10
0.0031936687122628
 20
0.0005837183658417
 30
0.0190468956598393
 41
-0.0021616707842849
 42
0.0021616707842849
 43
0.0021616707842849
 50
0.0000000000000134
210
0.3242396493221019
220
-0.1811068311528807
230
0.9284766908852599
1001
_KTI_ARE
1070
 29000
1000
BYBLOCK
  0
INSERT
  5
A4
  8
0
  6
BYBLOCK
 62
     0
  2
12ZPLT11_LEAF
 10
-0.0032195211958391
 20
-0.005315442108752
 30
0.0155834940444432
 41
-0.0018013923202374
 42
0.0018013923202374
 43
0.0018013923202374
210
0.1696384169275547
220
0.1172220521465689
230
0.9785099887036719
1001
_KTI_ARE
1070
 29000
1000
BYBLOCK
  0
INSERT
  5
A5
  8
0
  6
BYBLOCK
 62
     0
  2
12ZPLT11_LEAF
 10
-0.0020588119466992
 20
0.0050695727355954
 30
0.021050736781687
 41
-0.0021616707842849
 42
0.0021616707842849
 43
0.0021616707842849
 50
0.0000000000000066
210
-0.3123812794279122
220
0.5436865015997243
230
0.7789883980145234
1001
_KTI_ARE
1070
 29000
1000
BYBLOCK
  0
INSERT
  5
A6
  8
0
  6
BYBLOCK
 62
     0
  2
12ZPLT11_LEAF
 10
-0.0002375896811289
 20
-0.0037881629788891
 30
0.0212141191426112
 41
-0.0019214851415866
 42
0.0019214851415866
 43
0.0019214851415866
 50
0.0000000000000094
210
-0.1549527719720909
220
0.1320197617202212
230
0.979060989404389
1001
_KTI_ARE
1070
 29000
1000
BYBLOCK
  0
INSERT
  5
A7
  8
0
  6
BYBLOCK
 62
     0
  2
12ZPLT11_LEAF
 10
-0.0005272363936907
 20
0.0059036141810483
 30
0.0164380683692568
 41
-0.0012009282134916
 42
0.0012009282134916
 43
0.0012009282134916
 50
346.1394422655325
210
-0.1329233568058639
220
-0.7659642281337047
230
0.6289914009229371
1001
_KTI_ARE
1070
 29000
1000
BYBLOCK
  0
INSERT
  5
A8
  8
0
  6
BYBLOCK
 62
     0
  2
12ZPLT11_LEAF
 10
0.0043882304332258
 20
0.0025613834624984
 30
0.0153883706647466
 41
-0.0015612066775391
 42
0.0015612066775391
 43
0.0015612066775391
 50
0.0000000000000083
210
0.1750207818269352
220
-0.5962374634237603
230
0.7834976790895354
1001
_KTI_ARE
1070
 29000
1000
BYBLOCK
  0
INSERT
  5
A9
  8
0
  6
BYBLOCK
 62
     0
  2
12ZPLT11_LEAF
 10
-0.0000044360554808
 20
-0.0007935423109645
 30
0.0208483546837091
 41
-0.0012009282134916
 42
0.0012009282134916
 43
0.0012009282134916
 50
0.0000000000000123
210
0.4188603684957854
220
0.2160264105234158
230
0.8819799213473873
1001
_KTI_ARE
1070
 29000
1000
BYBLOCK
  0
INSERT
  5
AA
  8
0
  6
BYBLOCK
 62
     0
  2
12ZPLT11_LEAF
 10
0.0011983187750236
 20
-0.0026912311979748
 30
0.019812151142091
 41
-0.0014411138561899
 42
0.0014411138561899
 43
0.0014411138561899
 50
0.0000000000000027
210
0.08997590377987323
220
0.3265504783735048
230
0.9408874118687263
1001
_KTI_ARE
1070
 29000
1000
BYBLOCK
  0
INSERT
  5
AB
  8
0
  6
BYBLOCK
 62
     0
  2
12ZPLT11_LEAF
 10
0.0013053744146531
 20
0.0038352733990656
 30
0.0179470200677476
 41
-0.0016812994988883
 42
0.0016812994988883
 43
0.0016812994988883
 50
0.0000000000000012
210
-0.2083410212424911
220
0.5710642380819367
230
0.7940274899847819
1001
_KTI_ARE
1070
 29000
1000
BYBLOCK
  0
INSERT
  5
AC
  8
0
  6
BYBLOCK
 62
     0
  2
12ZPLT11_LEAF
 10
0.0067862117376606
 20
-0.0003699841966865
 30
0.0179313520172331
 41
-0.0013210210348408
 42
0.0013210210348408
 43
0.0013210210348408
 50
0.0000000000000405
210
0.2077157883319784
220
-0.3190996168578217
230
0.9246780984747157
1001
_KTI_ARE
1070
 29000
1000
BYBLOCK
  0
INSERT
  5
AD
  8
0
  6
BYBLOCK
 62
     0
  2
12ZPLT11_LEAF
 10
0.0019537214915235
 20
-0.0037076137684883
 30
0.0208560487843083
 41
-0.0016812994988883
 42
0.0016812994988883
 43
0.0016812994988883
 50
0.0000000000000122
210
0.05107697941547078
220
-0.2019505186119403
230
0.9780629479773579
1001
_KTI_ARE
1070
 29000
1000
BYBLOCK
  0
INSERT
  5
AE
  8
0
  6
BYBLOCK
 62
     0
  2
12ZPLT11_LEAF
 10
0.0016514992009429
 20
0.0015626525233711
 30
0.0200448629145119
 41
-0.0014411138561899
 42
0.0014411138561899
 43
0.0014411138561899
210
-0.2135947017451208
220
-0.3929087723459644
230
0.8944271909999159
1001
_KTI_ARE
1070
 29000
1000
BYBLOCK
  0
INSERT
  5
AF
  8
0
  6
BYBLOCK
 62
     0
  2
12ZPLT11_LEAF
 10
-0.0005276177799612
 20
0.004599273344396
 30
0.0206506401918192
 41
-0.0016812994988883
 42
0.0016812994988883
 43
0.0016812994988883
 50
0.0000000000000569
210
-0.3496591773520599
220
-0.3745575088662954
230
0.8587462560298913
1001
_KTI_ARE
1070
 29000
1000
BYBLOCK
  0
INSERT
  5
B0
  8
0
  6
BYBLOCK
 62
     0
  2
12ZPLT11_LEAF
 10
0.0012543236176796
 20
-0.0039013755494378
 30
0.0170304984182492
 41
-0.0012009282134916
 42
0.0012009282134916
 43
0.0012009282134916
 50
0.0
210
-0.3407993236214006
220
1.099484062981977E-17
230
0.9401360651624826
1001
_KTI_ARE
1070
 29000
1000
BYBLOCK
  0
INSERT
  5
B1
  8
0
  6
BYBLOCK
 62
     0
  2
12ZPLT11_LEAF
 10
-0.0004865267273859
 20
-0.0021408059580455
 30
0.0188318898915954
 41
-0.0016812994988883
 42
0.0016812994988883
 43
0.0016812994988883
 50
0.0000000000000062
210
-0.3150830185689241
220
0.09512646745981838
230
0.9442847275044276
1001
_KTI_ARE
1070
 29000
1000
BYBLOCK
  0
INSERT
  5
B2
  8
0
  6
BYBLOCK
 62
     0
  2
12ZPLT11_LEAF
 10
0.0015153553257785
 20
0.0090991053297979
 30
0.0199822970397962
 41
-0.0016812994988883
 42
0.0016812994988883
 43
0.0016812994988883
 50
0.0
210
6.157739754882737E-17
220
0.7470857123952035
230
0.6647277174414734
1001
_KTI_ARE
1070
 29000
1000
BYBLOCK
  0
INSERT
  5
B3
  8
0
  6
BYBLOCK
 62
     0
  2
12ZPLT11_LEAF
 10
0.0019138276543129
 20
-0.000761414219152
 30
0.0191091886592986
 41
-0.0014411138561899
 42
0.0014411138561899
 43
0.0014411138561899
 50
0.0000000000000074
210
0.2766011430934189
220
0.1847010890363202
230
0.9430680332554016
1001
_KTI_ARE
1070
 29000
1000
BYBLOCK
  0
INSERT
  5
B4
  8
0
  6
BYBLOCK
 62
     0
  2
12ZPLT11_LEAF
 10
-0.0015713242641351
 20
-0.0046461341519194
 30
0.0200986584826753
 41
-0.0012009282134916
 42
0.0012009282134916
 43
0.0012009282134916
 50
348.7519564537522
210
0.1672764267686493
220
0.1219348687341123
230
0.9783406793312376
1001
_KTI_ARE
1070
 29000
1000
BYBLOCK
  0
INSERT
  5
B5
  8
0
  6
BYBLOCK
 62
     0
  2
12ZPLT11_LEAF
 10
0.0012008511328057
 20
-0.0001423413323842
 30
0.0213282963155205
 41
-0.0012009282134916
 42
0.0012009282134916
 43
0.0012009282134916
 50
0.0000000000000033
210
0.05578974602284902
220
-0.2491077031717859
230
0.9668675485603927
1001
_KTI_ARE
1070
 29000
1000
BYBLOCK
  0
INSERT
  5
B6
  8
0
  6
BYBLOCK
 62
     0
  2
12ZPLT11_LEAF
 10
0.0037361017571495
 20
-0.0016012104165604
 30
0.0161653672014914
 41
-0.0012009282134916
 42
0.0012009282134916
 43
0.0012009282134916
 50
41.79022188494483
210
-0.07375541778300716
220
-0.0617114872316147
230
0.9953651745421458
1001
_KTI_ARE
1070
 29000
1000
BYBLOCK
  0
INSERT
  5
B7
  8
0
  6
BYBLOCK
 62
     0
  2
12ZPLT11_LEAF
 10
0.0034054811195943
 20
0.0033935839213868
 30
0.0203512445701288
 41
-0.0012009282134916
 42
0.0012009282134916
 43
0.0012009282134916
 50
0.0000000000000133
210
0.1364205796242608
220
-0.4343918456456677
230
0.8903331679161072
1001
_KTI_ARE
1070
 29000
1000
BYBLOCK
  0
INSERT
  5
B8
  8
0
  6
BYBLOCK
 62
     0
  2
12ZPLT11_LEAF
 10
0.0008384639726648
 20
0.0081362946515854
 30
0.0191947453656673
 41
-0.0016812994988883
 42
0.0016812994988883
 43
0.0016812994988883
 50
0.0
210
3.851864449615599E-17
220
-0.6127505373862449
230
0.7902763940121634
1001
_KTI_ARE
1070
 29000
1000
BYBLOCK
  0
INSERT
  5
B9
  8
0
  6
BYBLOCK
 62
     0
  2
12ZPLT11_LEAF
 10
-0.0022048146840598
 20
0.0096657268978638
 30
0.0198909683017485
 41
-0.0012009282134916
 42
0.0012009282134916
 43
0.0012009282134916
210
-0.5671063492208835
220
-0.450647009648742
230
0.6894256024894984
1001
_KTI_ARE
1070
 29000
1000
BYBLOCK
  0
INSERT
  5
BA
  8
0
  6
BYBLOCK
 62
     0
  2
12ZPLT11_LEAF
 10
0.0000742414695891
 20
-0.0047506195098293
 30
0.0179378096437056
 41
-0.0016812994988883
 42
0.0016812994988883
 43
0.0016812994988883
 50
0.000000000000014
210
2.568352708093129E-18
220
0.166650593889093
230
0.9860160138437979
1001
_KTI_ARE
1070
 29000
1000
BYBLOCK
  0
INSERT
  5
BB
  8
0
  6
BYBLOCK
 62
     0
  2
12ZPLT11_LEAF
 10
0.0011354596675822
 20
0.0000766212073135
 30
0.0229723483054282
 41
-0.0012009282134916
 42
0.0012009282134916
 43
0.0012009282134916
210
-0.2723028316713343
220
0.2050473130055234
230
0.9401099761692713
1001
_KTI_ARE
1070
 29000
1000
BYBLOCK
  0
INSERT
  5
BC
  8
0
  6
BYBLOCK
 62
     0
  2
12ZPLT11_LEAF
 10
0.0043390367088681
 20
-0.0000638604885736
 30
0.0219282938751977
 41
-0.0014411138561899
 42
0.0014411138561899
 43
0.0014411138561899
 50
0.0000000000000012
210
0.3119406370172148
220
0.1547976093468896
230
0.9374063895225923
1001
_KTI_ARE
1070
 29000
1000
BYBLOCK
  0
INSERT
  5
BD
  8
0
  6
BYBLOCK
 62
     0
  2
12ZPLT11_LEAF
 10
-0.0009944349422429
 20
-0.0027114395853142
 30
0.0208808508244859
 41
-0.0012009282134916
 42
0.0012009282134916
 43
0.0012009282134916
 50
0.0000000000000018
210
0.08398694323743092
220
0.2292782246043715
230
0.9697307301967386
1001
_KTI_ARE
1070
 29000
1000
BYBLOCK
  0
INSERT
  5
BE
  8
0
  6
BYBLOCK
 62
     0
  2
12ZPLT11_LEAF
 10
0.0034563257008162
 20
0.0054521762914808
 30
0.0198688835319595
 41
-0.0014411138561899
 42
0.0014411138561899
 43
0.0014411138561899
 50
0.0000000000000065
210
0.5860951469770437
220
0.1311002302448679
230
0.7995656372804549
1001
_KTI_ARE
1070
 29000
1000
BYBLOCK
  0
INSERT
  5
BF
  8
0
  6
BYBLOCK
 62
     0
  2
12ZPLT11_LEAF
 10
0.0007634195902967
 20
-0.0019813090961789
 30
0.021440030524488
 41
-0.0014411138561899
 42
0.0014411138561899
 43
0.0014411138561899
 50
0.000000000000017
210
0.2375642110994222
220
0.07126926332982596
230
0.9687538065520739
1001
_KTI_ARE
1070
 29000
1000
BYBLOCK
  0
INSERT
  5
C0
  8
0
  6
BYBLOCK
 62
     0
  2
12ZPLT11_LEAF
 10
0.0008833286023354
 20
0.0046717207470896
 30
0.0220056560969341
 41
-0.0012009282134916
 42
0.0012009282134916
 43
0.0012009282134916
 50
0.000000000000014
210
0.5322753593096181
220
2.817930805409796E-17
230
0.8465712857591007
1001
_KTI_ARE
1070
 29000
1000
BYBLOCK
  0
INSERT
  5
C1
  8
0
  6
BYBLOCK
 62
     0
  2
12ZPLT11_LEAF
 10
0.0030735831456313
 20
0.0027642705872437
 30
0.0193178209546112
 41
-0.0016812994988883
 42
0.0016812994988883
 43
0.0016812994988883
 50
0.0000000000000055
210
0.2290781601001203
220
-0.3242337035263255
230
0.9178211710691504
1001
_KTI_ARE
1070
 29000
1000
BYBLOCK
  0
INSERT
  5
C2
  8
0
  6
BYBLOCK
 62
     0
  2
12ZPLT11_LEAF
 10
0.0006062346256318
 20
0.0095388897794291
 30
0.0164722765661778
 41
-0.0019214851415866
 42
0.0019214851415866
 43
0.0019214851415866
 50
0.0000000000000186
210
0.3512278314829655
220
-0.6725639326269505
230
0.6513806620718368
1001
_KTI_ARE
1070
 29000
1000
BYBLOCK
  0
INSERT
  5
C3
  8
0
  6
BYBLOCK
 62
     0
  2
12ZPLT11_LEAF
 10
0.0009637093782594
 20
0.0014563656461141
 30
0.0220861408474477
 41
-0.0016812994988883
 42
0.0016812994988883
 43
0.0016812994988883
 50
0.0000000000000385
210
-0.2243990635475525
220
-0.2406056625815401
230
0.9443272607590441
1001
_KTI_ARE
1070
 29000
1000
BYBLOCK
  0
INSERT
  5
C4
  8
0
  6
BYBLOCK
 62
     0
  2
12ZPLT11_LEAF
 10
-0.0042533680366558
 20
0.0003058261367234
 30
0.0215992682580885
 41
-0.0012009282134916
 42
0.0012009282134916
 43
0.0012009282134916
 50
0.0000000000000071
210
-0.08837765295541569
220
-0.1955020807801621
230
0.976713021756503
1001
_KTI_ARE
1070
 29000
1000
BYBLOCK
  0
INSERT
  5
C5
  8
0
  6
BYBLOCK
 62
     0
  2
12ZPLT11_LEAF
 10
-0.0013845104963982
 20
0.0102690166775889
 30
0.0171040200954449
 41
-0.0014411138561899
 42
0.0014411138561899
 43
0.0014411138561899
 50
0.0000000000000089
210
-0.6943777569801045
220
-0.3545758759047272
230
0.6261912478130578
1001
_KTI_ARE
1070
 29000
1000
BYBLOCK
  0
INSERT
  5
C6
  8
0
  6
BYBLOCK
 62
     0
  2
12ZPLT11_LEAF
 10
-0.0019062443186344
 20
0.0093634534746989
 30
0.0189761575200686
 41
-0.0019214851415866
 42
0.0019214851415866
 43
0.0019214851415866
210
-0.6360157272718445
220
-0.1999843266164047
230
0.7453121921521542
1001
_KTI_ARE
1070
 29000
1000
BYBLOCK
  0
INSERT
  5
C7
  8
0
  6
BYBLOCK
 62
     0
  2
12ZPLT11_LEAF
 10
-0.0021132556862397
 20
-0.002864200995385
 30
0.0212185265553227
 41
-0.0009607425707933
 42
0.0009607425707933
 43
0.0009607425707933
 50
0.0000000000000032
210
-0.2396662512126066
220
-0.09166517974665399
230
0.9665182785916205
1001
_KTI_ARE
1070
 29000
1000
BYBLOCK
  0
INSERT
  5
C8
  8
0
  6
BYBLOCK
 62
     0
  2
12ZPLT11_LEAF
 10
0.0005485313509886
 20
-0.002818731525138
 30
0.0231888293937022
 41
-0.0012009282134916
 42
0.0012009282134916
 43
0.0012009282134916
 50
0.0000000000000149
210
-0.1807392424591282
220
0.05008436839228798
230
0.9822549986017104
1001
_KTI_ARE
1070
 29000
1000
BYBLOCK
  0
INSERT
  5
C9
  8
0
  6
BYBLOCK
 62
     0
  2
12ZPLT11_LEAF
 10
0.0012252314430238
 20
-0.0038257961819426
 30
0.0228178556665631
 41
-0.0012009282134916
 42
0.0012009282134916
 43
0.0012009282134916
 50
0.0000000000000134
210
-0.07740666778246026
220
0.1374185787598717
230
0.9874838439156525
1001
_KTI_ARE
1070
 29000
1000
BYBLOCK
  0
INSERT
  5
CA
  8
0
  6
BYBLOCK
 62
     0
  2
12ZPLT11_LEAF
 10
-0.0010504627716352
 20
0.0046075439367052
 30
0.0215032567886259
 41
-0.0012009282134916
 42
0.0012009282134916
 43
0.0012009282134916
 50
0.0000000000000033
210
-0.2035151924691838
220
0.4826731998384216
230
0.8518263605876318
1001
_KTI_ARE
1070
 29000
1000
BYBLOCK
  0
INSERT
  5
CB
  8
0
  6
BYBLOCK
 62
     0
  2
12ZPLT11_LEAF
 10
-0.0037447102493143
 20
-0.005681949918041
 30
0.0208234094893783
 41
-0.0009607425707933
 42
0.0009607425707933
 43
0.0009607425707933
 50
0.0
210
4.436322522473612E-18
220
0.2184621477987088
230
0.9758454231993789
1001
_KTI_ARE
1070
 29000
1000
BYBLOCK
  0
INSERT
  5
CC
  8
0
  6
BYBLOCK
 62
     0
  2
12ZPLT11_LEAF
 10
-0.0010306124868233
 20
0.0027335043792455
 30
0.0237648987055048
 41
-0.0014411138561899
 42
0.0014411138561899
 43
0.0014411138561899
 50
0.0
210
1.365457214402706E-17
220
0.378369741475916
230
0.925654546110723
1001
_KTI_ARE
1070
 29000
1000
BYBLOCK
  0
INSERT
  5
CD
  8
0
  6
BYBLOCK
 62
     0
  2
12ZPLT11_LEAF
 10
-0.0047224119814145
 20
0.0115457560486675
 30
0.0197700002428469
 41
-0.0014411138561899
 42
0.0014411138561899
 43
0.0014411138561899
 50
0.0000000000000106
210
-0.09816377819094194
220
0.6356570873425403
230
0.7657048647896117
1001
_KTI_ARE
1070
 29000
1000
BYBLOCK
  0
INSERT
  5
CE
  8
0
  6
BYBLOCK
 62
     0
  2
12ZPLT11_LEAF
 10
0.0024523008199555
 20
0.0008765563633872
 30
0.0220310901663075
 41
-0.0009607425707933
 42
0.0009607425707933
 43
0.0009607425707933
 50
0.0000000000000016
210
0.3233495663607472
220
0.06858930195530936
230
0.9437905305689394
1001
_KTI_ARE
1070
 29000
1000
BYBLOCK
  0
INSERT
  5
CF
  8
0
  6
BYBLOCK
 62
     0
  2
12ZPLT11_LEAF
 10
0.0049776684875425
 20
0.0139809763053191
 30
0.01609696779459
 41
-0.0014411138561899
 42
0.0014411138561899
 43
0.0014411138561899
 50
0.0000000000000012
210
0.6680082308487331
220
-0.4218999352728883
230
0.6129971028765783
1001
_KTI_ARE
1070
 29000
1000
BYBLOCK
  0
INSERT
  5
D0
  8
0
  6
BYBLOCK
 62
     0
  2
12ZPLT11_LEAF
 10
0.0052657192237244
 20
0.0010848538738757
 30
0.022066695934361
 41
-0.0012009282134916
 42
0.0012009282134916
 43
0.0012009282134916
 50
0.0000000000000009
210
0.09060190839950312
220
-0.1767479852383789
230
0.9800772642544779
1001
_KTI_ARE
1070
 29000
1000
BYBLOCK
  0
INSERT
  5
D1
  8
0
  6
BYBLOCK
 62
     0
  2
12ZPLT11_LEAF
 10
0.0044652671774093
 20
0.0103828867570686
 30
0.0191968146808094
 41
-0.0009607425707933
 42
0.0009607425707933
 43
0.0009607425707933
 50
0.000000000000014
210
3.927052745757204E-17
220
-0.6179942783065092
230
0.7861825945544819
1001
_KTI_ARE
1070
 29000
1000
BYBLOCK
  0
INSERT
  5
D2
  8
0
  6
BYBLOCK
 62
     0
  2
12ZPLT11_LEAF
 10
-0.002253427393814
 20
0.0114065063695103
 30
0.0211092374795106
 41
-0.0014411138561899
 42
0.0014411138561899
 43
0.0014411138561899
 50
0.0000000000000073
210
-0.6329066468527265
220
0.2212600472737177
230
0.7419387898270788
1001
_KTI_ARE
1070
 29000
1000
BYBLOCK
  0
INSERT
  5
D3
  8
0
  6
BYBLOCK
 62
     0
  2
12ZPLT11_LEAF
 10
-0.0096427031273756
 20
0.0118364895535433
 30
0.0184000628830204
 41
-0.0009607425707933
 42
0.0009607425707933
 43
0.0009607425707933
210
-0.4537778390447588
220
-0.4060117507242667
230
0.7932465764601098
1001
_KTI_ARE
1070
 29000
1000
BYBLOCK
  0
INSERT
  5
D4
  8
0
  6
BYBLOCK
 62
     0
  2
12ZPLT11_LEAF
 10
0.000675447480587
 20
0.0093095495336964
 30
0.022046389263648
 41
-0.0014411138561899
 42
0.0014411138561899
 43
0.0014411138561899
 50
0.0000000000000133
210
-0.2008776809590334
220
0.5806212840057614
230
0.7890038541426916
1001
_KTI_ARE
1070
 29000
1000
BYBLOCK
  0
INSERT
  5
D5
  8
0
  6
BYBLOCK
 62
     0
  2
12ZPLT11_LEAF
 10
0.0008428355262237
 20
-0.0040237504772822
 30
0.0238703868055639
 41
-0.0009607425707933
 42
0.0009607425707933
 43
0.0009607425707933
 50
0.000000000000014
210
7.657568270323095E-19
220
0.091221129260593
230
0.9958306610947577
1001
_KTI_ARE
1070
 29000
1000
BYBLOCK
  0
INSERT
  5
D6
  8
0
  6
BYBLOCK
 62
     0
  2
12ZPLT11_LEAF
 10
0.0020820261916098
 20
0.0026694410475749
 30
0.0245026123479793
 41
-0.0009607425707933
 42
0.0009607425707933
 43
0.0009607425707933
 50
37.11231861562747
210
0.2189149680833284
220
0.1899969169839158
230
0.957067086617068
1001
_KTI_ARE
1070
 29000
1000
BYBLOCK
  0
INSERT
  5
D7
  8
0
  6
BYBLOCK
 62
     0
  2
12ZPLT11_LEAF
 10
0.0002108088027802
 20
-0.0008167031353097
 30
0.0235247429963805
 41
-0.0009607425707933
 42
0.0009607425707933
 43
0.0009607425707933
 50
0.000000000000014
210
0.194098068543841
220
3.492895147112172E-18
230
0.9809821302080637
1001
_KTI_ARE
1070
 29000
1000
BYBLOCK
  0
INSERT
  5
D8
  8
0
  6
BYBLOCK
 62
     0
  2
12ZPLT11_LEAF
 10
0.0020909984104922
 20
0.0048025651609145
 30
0.0226575417032371
 41
-0.0009607425707933
 42
0.0009607425707933
 43
0.0009607425707933
 50
0.0000000000000362
210
0.3024360027079132
220
-0.2546829496487742
230
0.9185145940181131
1001
_KTI_ARE
1070
 29000
1000
BYBLOCK
  0
INSERT
  5
D9
  8
0
  6
BYBLOCK
 62
     0
  2
12ZPLT11_LEAF
 10
0.0010516430380274
 20
0.0094625743672759
 30
0.0211685356579405
 41
-0.0009607425707933
 42
0.0009607425707933
 43
0.0009607425707933
 50
0.000000000000008
210
0.1752240340400288
220
-0.3816761137505534
230
0.9075350583239269
1001
_KTI_ARE
1070
 29000
1000
BYBLOCK
  0
INSERT
  5
DA
  8
0
  6
BYBLOCK
 62
     0
  2
12ZPLT11_LEAF
 10
0.0004782598586432
 20
0.0051489110688151
 30
0.0235935883834972
 41
-0.0012009282134916
 42
0.0012009282134916
 43
0.0012009282134916
 50
3.687662688549059
210
0.04093758098037917
220
-0.314646469580293
230
0.9483257423713293
1001
_KTI_ARE
1070
 29000
1000
BYBLOCK
  0
INSERT
  5
DB
  8
0
  6
BYBLOCK
 62
     0
  2
12ZPLT11_LEAF
 10
0.0030692361023405
 20
0.0086699372793227
 30
0.0207191300282341
 41
-0.0009607425707933
 42
0.0009607425707933
 43
0.0009607425707933
 50
0.0000000000000186
210
-0.1410406945049365
220
-0.4594632259675332
230
0.8769270588122325
1001
_KTI_ARE
1070
 29000
1000
BYBLOCK
  0
INSERT
  5
DC
  8
0
  6
BYBLOCK
 62
     0
  2
12ZPLT11_LEAF
 10
0.0001234602736742
 20
0.0101789523584497
 30
0.0192762455669232
 41
-0.0009607425707933
 42
0.0009607425707933
 43
0.0009607425707933
 50
353.417127988161
210
-0.1211276618860405
220
-0.6056515078226885
230
0.7864568269130383
1001
_KTI_ARE
1070
 29000
1000
BYBLOCK
  0
INSERT
  5
DD
  8
0
  6
BYBLOCK
 62
     0
  2
12ZPLT11_LEAF
 10
-0.0020427751283845
 20
0.0133908097408715
 30
0.0182360175672803
 41
-0.0012009282134916
 42
0.0012009282134916
 43
0.0012009282134916
 50
0.0000000000000036
210
-0.05778187635873217
220
-0.7346552851323875
230
0.6759754927447552
1001
_KTI_ARE
1070
 29000
1000
BYBLOCK
  0
INSERT
  5
DE
  8
0
  6
BYBLOCK
 62
     0
  2
12ZPLT11_LEAF
 10
-0.0008118075523195
 20
0.0145806825232546
 30
0.0205669707981916
 41
-0.0009607425707933
 42
0.0009607425707933
 43
0.0009607425707933
 50
0.0000000000000028
210
-0.4735482849945705
220
-0.5346512895100011
230
0.6999285823596533
1001
_KTI_ARE
1070
 29000
1000
BYBLOCK
  0
INSERT
  5
DF
  8
0
  6
BYBLOCK
 62
     0
  2
12ZPLT11_LEAF
 10
-0.00100495263314
 20
-0.0002991280988777
 30
0.0239073172650394
 41
-0.0009607425707933
 42
0.0009607425707933
 43
0.0009607425707933
 50
0.0000000000000211
210
-0.1783635286109979
220
-0.07681349042371452
230
0.9809618439829144
1001
_KTI_ARE
1070
 29000
1000
BYBLOCK
  0
INSERT
  5
E0
  8
0
  6
BYBLOCK
 62
     0
  2
12ZPLT11_LEAF
 10
-0.0016391102112616
 20
0.0041666679607099
 30
0.0224294904297921
 41
-0.0009607425707933
 42
0.0009607425707933
 43
0.0009607425707933
210
-0.3243787155722118
220
-0.1277855546193555
230
0.9372562621366399
1001
_KTI_ARE
1070
 29000
1000
BYBLOCK
  0
INSERT
  5
E1
  8
0
  6
BYBLOCK
 62
     0
  2
12ZPLT11_LEAF
 10
0.000849734556249
 20
0.0095680120547607
 30
0.0225504151528235
 41
-0.0012009282134916
 42
0.0012009282134916
 43
0.0012009282134916
 50
0.0000000000000028
210
-0.5432147250052453
220
0.1560297614376791
230
0.8249681667089807
1001
_KTI_ARE
1070
 29000
1000
BYBLOCK
  0
INSERT
  5
E2
  8
0
  6
BYBLOCK
 62
     0
  2
12ZPLT11_LEAF
 10
-0.0013806140226004
 20
0.0005682379213984
 30
0.0253742314335636
 41
-0.0009607425707933
 42
0.0009607425707933
 43
0.0009607425707933
 50
0.0000000000000032
210
-0.1610901177046524
220
0.05097788534957408
230
0.9856222548132662
1001
_KTI_ARE
1070
 29000
1000
BYBLOCK
  0
INSERT
  5
E3
  8
0
  6
BYBLOCK
 62
     0
  2
12ZPLT11_LEAF
 10
-0.0012324457594054
 20
0.0055264668759693
 30
0.023838586075705
 41
-0.0009607425707933
 42
0.0009607425707933
 43
0.0009607425707933
 50
0.0000000000000043
210
-0.3065489324140403
220
0.2920890771114922
230
0.9059314119004643
1001
_KTI_ARE
1070
 29000
1000
BYBLOCK
  0
INSERT
  5
E4
  8
0
  6
BYBLOCK
 62
     0
  2
12ZPLT11_LEAF
 10
-0.0008384639726648
 20
0.0001727544877617
 30
0.0252298451966093
 41
-0.0009607425707933
 42
0.0009607425707933
 43
0.0009607425707933
 50
0.000000000000014
210
3.566627828535181E-18
220
0.1961161351381787
230
0.9805806756909212
1001
_KTI_ARE
1070
 29000
1000
BYBLOCK
  0
INSERT
  5
E5
  8
0
  6
BYBLOCK
 62
     0
  2
12ZPLT11_LEAF
 10
0.002396498151335
 20
0.0003353875818964
 30
0.0247304717347057
 41
-0.000720556928095
 42
0.000720556928095
 43
0.000720556928095
 50
0.0
210
0.09286125929451541
220
7.936008364039693E-19
230
0.9956790579911967
1001
_KTI_ARE
1070
 29000
1000
BYBLOCK
  0
INSERT
  5
E6
  8
0
  6
BYBLOCK
 62
     0
  2
12ZPLT11_LEAF
 10
0.0049809664103799
 20
0.0013510656110838
 30
0.0235986159466871
 41
-0.0009607425707933
 42
0.0009607425707933
 43
0.0009607425707933
210
0.1324169421763769
220
-0.04965635331614134
230
0.9899494936611668
1001
_KTI_ARE
1070
 29000
1000
BYBLOCK
  0
INSERT
  5
E7
  8
0
  6
BYBLOCK
 62
     0
  2
12ZPLT11_LEAF
 10
-0.0018315128996528
 20
0.0007818377999401
 30
0.0203201210550723
 41
-0.000720556928095
 42
0.000720556928095
 43
0.000720556928095
210
0.1843764710544309
220
0.1195955487920646
230
0.9755522649405511
1001
_KTI_ARE
1070
 29000
1000
BYBLOCK
  0
INSERT
  5
E8
  8
0
  6
BYBLOCK
 62
     0
  2
12ZPLT11_LEAF
 10
0.004115599710575
 20
0.00822640462967
 30
0.0168392418941645
 41
-0.0009607425707933
 42
0.0009607425707933
 43
0.0009607425707933
 50
0.0000000000000075
210
0.254911798831486
220
-0.4620276353820731
230
0.849441251034906
1001
_KTI_ARE
1070
 29000
1000
BYBLOCK
  0
INSERT
  5
E9
  8
0
  6
BYBLOCK
 62
     0
  2
12ZPLT11_LEAF
 10
0.0017134325604553
 20
0.0042832351568489
 30
0.0233829448378922
 41
-0.0009607425707933
 42
0.0009607425707933
 43
0.0009607425707933
 50
0.0000000000000101
210
0.1337549082665864
220
-0.2609046358780339
230
0.9560535526276482
1001
_KTI_ARE
1070
 29000
1000
BYBLOCK
  0
INSERT
  5
EA
  8
0
  6
BYBLOCK
 62
     0
  2
12ZPLT11_LEAF
 10
-0.000242445437058
 20
0.0136597090455722
 30
0.0213848892290916
 41
-0.000720556928095
 42
0.000720556928095
 43
0.000720556928095
210
0.271404971088636
220
-0.5183081045095441
230
0.8109846178985765
1001
_KTI_ARE
1070
 29000
1000
BYBLOCK
  0
INSERT
  5
EB
  8
0
  6
BYBLOCK
 62
     0
  2
12ZPLT11_LEAF
 10
-0.0003384456765572
 20
0.0032228435296148
 30
0.0244158590624518
 41
-0.0009607425707933
 42
0.0009607425707933
 43
0.0009607425707933
 50
0.0
210
3.660792020344162E-18
220
-0.1986624277952547
230
0.9800679771232683
1001
_KTI_ARE
1070
 29000
1000
BYBLOCK
  0
INSERT
  5
EC
  8
0
  6
BYBLOCK
 62
     0
  2
12ZPLT11_LEAF
 10
-0.001142320639527
 20
0.0111794393937205
 30
0.0226434598507373
 41
-0.0009607425707933
 42
0.0009607425707933
 43
0.0009607425707933
 50
0.00000000000001
210
-0.4237042157978927
220
-0.2567904338169071
230
0.8686388263341774
1001
_KTI_ARE
1070
 29000
1000
BYBLOCK
  0
INSERT
  5
ED
  8
0
  6
BYBLOCK
 62
     0
  2
12ZPLT11_LEAF
 10
0.0018516152255566
 20
0.0105047518903491
 30
0.0230081986606495
 41
-0.000720556928095
 42
0.000720556928095
 43
0.000720556928095
 50
51.07245640720734
210
1.767987892744180E-17
220
0.4280863447390439
230
0.9037378388935391
1001
_KTI_ARE
1070
 29000
1000
BYBLOCK
  0
INSERT
  5
EE
  8
0
  6
BYBLOCK
 62
     0
  2
12ZPLT11_LEAF
 10
-0.0018185752685672
 20
0.0189102041966686
 30
0.0163846472732642
 41
-0.0009607425707933
 42
0.0009607425707933
 43
0.0009607425707933
 50
344.091752542743
210
-0.613639041908367
220
0.5667508110147195
230
0.5497641716772191
1001
_KTI_ARE
1070
 29000
1000
BYBLOCK
  0
INSERT
  5
EF
  8
0
  6
BYBLOCK
 62
     0
  2
12ZPLT11_LEAF
 10
-0.0019410600648229
 20
0.0128637958046357
 30
0.021477734497017
 41
-0.0009607425707933
 42
0.0009607425707933
 43
0.0009607425707933
 50
326.5632369589075
210
-0.0892135852016975
220
-0.3879754384952693
230
0.9173418094362989
1001
_KTI_ARE
1070
 29000
1000
BYBLOCK
  0
INSERT
  5
F0
  8
0
  6
BYBLOCK
 62
     0
  2
12ZPLT11_LEAF
 10
0.0020470504970033
 20
0.0040791353681795
 30
0.0220641962727325
 41
-0.000720556928095
 42
0.000720556928095
 43
0.000720556928095
210
0.2117124015514258
220
0.2198551862264819
230
0.9522822880420736
1001
_KTI_ARE
1070
 29000
1000
BYBLOCK
  0
INSERT
  5
F1
  8
0
  6
BYBLOCK
 62
     0
  2
12ZPLT11_LEAF
 10
0.0006538091934223
 20
0.0117922405633558
 30
0.0196123476043001
 41
-0.000720556928095
 42
0.000720556928095
 43
0.000720556928095
 50
0.0000000000000106
210
0.5922401177795708
220
-0.144909816052442
230
0.792623989104599
1001
_KTI_ARE
1070
 29000
1000
BYBLOCK
  0
INSERT
  5
F2
  8
0
  6
BYBLOCK
 62
     0
  2
12ZPLT11_LEAF
 10
0.0027037902064872
 20
0.011326980950023
 30
0.0224962836678716
 41
-0.0009607425707933
 42
0.0009607425707933
 43
0.0009607425707933
 50
0.0000000000000118
210
0.3577963205985866
220
-0.2981636004988241
230
0.8849182223819844
1001
_KTI_ARE
1070
 29000
1000
BYBLOCK
  0
INSERT
  5
F3
  8
0
  6
BYBLOCK
 62
     0
  2
12ZPLT11_LEAF
 10
-0.0003384456765572
 20
-0.0031026893621636
 30
0.0119496127211943
 41
-0.0009607425707933
 42
0.0009607425707933
 43
0.0009607425707933
 50
0.0
210
3.660792020344162E-18
220
-0.1986624277952547
230
0.9800679771232683
1001
_KTI_ARE
1070
 29000
1000
BYBLOCK
  0
INSERT
  5
F4
  8
0
  6
BYBLOCK
 62
     0
  2
12ZPLT11_LEAF
 10
0.0038322450469024
 20
0.0026166293986933
 30
0.0120153304062853
 41
-0.0009607425707933
 42
0.0009607425707933
 43
0.0009607425707933
 50
0.00000000000001
210
-0.4237042157978927
220
-0.2567904338169071
230
0.8686388263341774
1001
_KTI_ARE
1070
 29000
1000
BYBLOCK
  0
INSERT
  5
F5
  8
0
  6
BYBLOCK
 62
     0
  2
12ZPLT11_LEAF
 10
-0.000358092687268
 20
-0.002290799354234
 30
0.0135244316261327
 41
-0.0009607425707933
 42
0.0009607425707933
 43
0.0009607425707933
 50
0.000000000000014
210
3.566627828535181E-18
220
0.1961161351381787
230
0.9805806756909212
1001
_KTI_ARE
1070
 29000
1000
BYBLOCK
  0
INSERT
  5
F6
  8
0
  6
BYBLOCK
 62
     0
  2
12ZPLT11_LEAF
 10
0.0038357038197969
 20
-0.0009290710789756
 30
0.0136036170817875
 41
-0.0009607425707933
 42
0.0009607425707933
 43
0.0009607425707933
 50
0.0000000000000006
210
0.3233495663607472
220
0.06858930195530936
230
0.9437905305689394
1001
_KTI_ARE
1070
 29000
1000
BYBLOCK
  0
INSERT
  5
F7
  8
0
  6
BYBLOCK
 62
     0
  2
12ZPLT11_LEAF
 10
0.000680907746839
 20
0.0024464433725326
 30
0.0123220980785434
 41
-0.000720556928095
 42
0.000720556928095
 43
0.000720556928095
 50
0.0000000000000011
210
0.2117124015514258
220
0.2198551862264819
230
0.9522822880420736
1001
_KTI_ARE
1070
 29000
1000
BYBLOCK
  0
INSERT
  5
F8
  8
0
  6
BYBLOCK
 62
     0
  2
12ZPLT11_LEAF
 10
0.0025746292012451
 20
0.0063432065152224
 30
0.0132582126076314
 41
-0.0009607425707933
 42
0.0009607425707933
 43
0.0009607425707933
 50
0.0000000000000118
210
0.3577963205985866
220
-0.2981636004988241
230
0.8849182223819844
1001
_KTI_ARE
1070
 29000
1000
BYBLOCK
  0
INSERT
  5
F9
  8
0
  6
BYBLOCK
 62
     0
  2
12ZPLT11_LEAF
 10
0.0002827381338243
 20
0.0013301181329607
 30
0.0169755101862052
 41
-0.0009607425707933
 42
0.0009607425707933
 43
0.0009607425707933
210
-0.3243787155722118
220
-0.1277855546193555
230
0.9372562621366399
1001
_KTI_ARE
1070
 29000
1000
BYBLOCK
  0
INSERT
  5
FA
  8
0
  6
BYBLOCK
 62
     0
  2
12ZPLT11_LEAF
 10
0.0018717866959677
 20
0.000078713839084
 30
0.0165127237359433
 41
-0.0009607425707933
 42
0.0009607425707933
 43
0.0009607425707933
 50
0.000000000000008
210
0.1752240340400288
220
-0.3816761137505534
230
0.9075350583239269
1001
_KTI_ARE
1070
 29000
1000
BYBLOCK
  0
INSERT
  5
FB
  8
0
  6
BYBLOCK
 62
     0
  2
12ZPLT11_LEAF
 10
0.0047793359973316
 20
0.0002335322638922
 30
0.0193621129228997
 41
-0.000720556928095
 42
0.000720556928095
 43
0.000720556928095
210
0.2117124015514258
220
0.2198551862264819
230
0.9522822880420736
1001
_KTI_ARE
1070
 29000
1000
BYBLOCK
  0
INSERT
  5
FC
  8
0
  6
BYBLOCK
 62
     0
  2
12ZPLT11_LEAF
 10
-0.0010306124868233
 20
0.0001014219344922
 30
0.0195474649195595
 41
-0.0014411138561899
 42
0.0014411138561899
 43
0.0014411138561899
 50
0.0
210
1.365457214402706E-17
220
0.378369741475916
230
0.925654546110723
1001
_KTI_ARE
1070
 29000
1000
BYBLOCK
  0
INSERT
  5
FD
  8
0
  6
BYBLOCK
 62
     0
  2
12ZPLT11_LEAF
 10
-0.0011695569888967
 20
0.0002707637618736
 30
0.0221632075394885
 41
-0.0012009282134916
 42
0.0012009282134916
 43
0.0012009282134916
 50
0.0000000000000036
210
0.05578974602284902
220
-0.2491077031717859
230
0.9668675485603927
1001
_KTI_ARE
1070
 29000
1000
BYBLOCK
  0
INSERT
  5
FE
  8
0
  6
BYBLOCK
 62
     0
  2
12ZPLT11_LEAF
 10
0.000582989887735
 20
0.0060261963394626
 30
0.0243502278513895
 41
-0.0009607425707933
 42
0.0009607425707933
 43
0.0009607425707933
 50
0.0000000000000024
210
-0.2396662512126066
220
-0.09166517974665399
230
0.9665182785916205
1001
_KTI_ARE
1070
 29000
1000
BYBLOCK
  0
INSERT
  5
FF
  8
0
  6
BYBLOCK
 62
     0
  2
12ZPLT11_LEAF
 10
0.0001585994521392
 20
0.0169405302633988
 30
0.0157911771339557
 41
-0.0009607425707933
 42
0.0009607425707933
 43
0.0009607425707933
 50
0.0000000000000028
210
-0.4735482849945705
220
-0.5346512895100011
230
0.6999285823596533
1001
_KTI_ARE
1070
 29000
1000
BYBLOCK
  0
INSERT
  5
100
  8
0
  6
BYBLOCK
 62
     0
  2
12ZPLT11_LEAF
 10
0.0010960346836392
 20
0.0026668339547238
 30
0.0234766833382888
 41
-0.0009607425707933
 42
0.0009607425707933
 43
0.0009607425707933
 50
0.0000000000000101
210
0.1337549082665864
220
-0.2609046358780339
230
0.9560535526276482
1001
_KTI_ARE
1070
 29000
1000
BYBLOCK
  0
INSERT
  5
101
  8
0
  6
BYBLOCK
 62
     0
  2
12ZPLT11_LEAF
 10
-0.0087877377977086
 20
0.0116013484743849
 30
0.0181093697978827
 41
-0.0009607425707933
 42
0.0009607425707933
 43
0.0009607425707933
 50
0.0000000000000043
210
-0.3065489324140403
220
0.2920890771114922
230
0.9059314119004643
1001
_KTI_ARE
1070
 29000
1000
BYBLOCK
  0
INSERT
  5
102
  8
0
  6
BYBLOCK
 62
     0
  2
12ZPLT11_LEAF
 10
-0.0000366341105174
 20
0.0086087839634925
 30
0.0209230819830287
 41
-0.0015612066775391
 42
0.0015612066775391
 43
0.0015612066775391
 50
0.0000000000000083
210
0.1750207818269352
220
-0.5962374634237603
230
0.7834976790895354
1001
_KTI_ARE
1070
 29000
1000
BYBLOCK
  0
INSERT
  5
103
  8
0
  6
BYBLOCK
 62
     0
  2
12ZPLT11_LEAF
 10
-0.0003284641994788
 20
0.0115660232625
 30
0.0139121455241517
 41
-0.0019214851415866
 42
0.0019214851415866
 43
0.0019214851415866
210
-0.6360157272718445
220
-0.1999843266164047
230
0.7453121921521542
1001
_KTI_ARE
1070
 29000
1000
BYBLOCK
  0
INSERT
  5
104
  8
0
  6
BYBLOCK
 62
     0
  2
12ZPLT11_LEAF
 10
-0.0000982654363299
 20
0.0109064720031438
 30
0.0145021441052489
 41
0.0019214851415866
 42
0.0019214851415866
 43
0.0019214851415866
 50
0.000000000000002
210
0.6360157272718446
220
-0.1999843266164047
230
0.7453121921521542
1001
_KTI_ARE
1070
 29000
1000
BYBLOCK
  0
INSERT
  5
105
  8
0
  6
BYBLOCK
 62
     0
  2
12ZPLT11_LEAF
 10
0.0003089935738699
 20
0.0086714237895439
 30
0.0208734021209881
 41
0.0015612066775391
 42
0.0015612066775391
 43
0.0015612066775391
 50
0.0000000000000274
210
-0.1750207818269352
220
-0.5962374634237603
230
0.7834976790895354
1001
_KTI_ARE
1070
 29000
1000
BYBLOCK
  0
INSERT
  5
106
  8
0
  6
BYBLOCK
 62
     0
  2
12ZPLT11_LEAF
 10
0.0085919299330066
 20
0.0114151783703743
 30
0.0181963840856266
 41
0.0009607425707933
 42
0.0009607425707933
 43
0.0009607425707933
 50
0.0000000000000295
210
0.3065489324140404
220
0.2920890771114922
230
0.9059314119004643
1001
_KTI_ARE
1070
 29000
1000
BYBLOCK
  0
INSERT
  5
107
  8
0
  6
BYBLOCK
 62
     0
  2
12ZPLT11_LEAF
 10
-0.0008434422710817
 20
0.0027906367505769
 30
0.0234387168447068
 41
0.0009607425707933
 42
0.0009607425707933
 43
0.0009607425707933
 50
0.0000000000000276
210
-0.1337549082665864
220
-0.2609046358780339
230
0.9560535526276482
1001
_KTI_ARE
1070
 29000
1000
BYBLOCK
  0
INSERT
  5
108
  8
0
  6
BYBLOCK
 62
     0
  2
12ZPLT11_LEAF
 10
0.0000538882143427
 20
0.0168088013512202
 30
0.0159255943912811
 41
0.0009607425707933
 42
0.0009607425707933
 43
0.0009607425707933
 50
0.0000000000000043
210
0.4735482849945706
220
-0.5346512895100011
230
0.6999285823596533
1001
_KTI_ARE
1070
 29000
1000
BYBLOCK
  0
INSERT
  5
109
  8
0
  6
BYBLOCK
 62
     0
  2
12ZPLT11_LEAF
 10
-0.0009078293125426
 20
0.0054090031428853
 30
0.0236940144768961
 41
0.0009607425707933
 42
0.0009607425707933
 43
0.0009607425707933
 50
0.0000000000000266
210
0.2396662512126066
220
-0.09166517974665399
230
0.9665182785916205
1001
_KTI_ARE
1070
 29000
1000
BYBLOCK
  0
INSERT
  5
10A
  8
0
  6
BYBLOCK
 62
     0
  2
12ZPLT11_LEAF
 10
0.0014465466612417
 20
0.0006311823652326
 30
0.0232852872995661
 41
0.0012009282134916
 42
0.0012009282134916
 43
0.0012009282134916
 50
0.0000000000000099
210
-0.05578974602284903
220
-0.2491077031717859
230
0.9668675485603927
1001
_KTI_ARE
1070
 29000
1000
BYBLOCK
  0
INSERT
  5
10B
  8
0
  6
BYBLOCK
 62
     0
  2
12ZPLT11_LEAF
 10
0.0007467612691445
 20
0.0001014219344922
 30
0.0195474649195595
 41
0.0014411138561899
 42
0.0014411138561899
 43
0.0014411138561899
 50
0.000000000000014
210
-1.365457214402706E-17
220
0.378369741475916
230
0.925654546110723
1001
_KTI_ARE
1070
 29000
1000
BYBLOCK
  0
INSERT
  5
10C
  8
0
  6
BYBLOCK
 62
     0
  2
12ZPLT11_LEAF
 10
-0.0049837997670502
 20
0.0004210281115844
 30
0.0193020180999216
 41
0.000720556928095
 42
0.000720556928095
 43
0.000720556928095
 50
0.0000000000000377
210
-0.2117124015514258
220
0.2198551862264819
230
0.9522822880420736
1001
_KTI_ARE
1070
 29000
1000
BYBLOCK
  0
INSERT
  5
10D
  8
0
  6
BYBLOCK
 62
     0
  2
12ZPLT11_LEAF
 10
-0.0016138216111251
 20
0.0001861926944934
 30
0.0164629861805145
 41
0.0009607425707933
 42
0.0009607425707933
 43
0.0009607425707933
210
-0.1752240340400288
220
-0.3816761137505534
230
0.9075350583239269
1001
_KTI_ARE
1070
 29000
1000
BYBLOCK
  0
INSERT
  5
10E
  8
0
  6
BYBLOCK
 62
     0
  2
12ZPLT11_LEAF
 10
-0.0001786997029721
 20
0.0010825910454973
 30
0.0170675854796094
 41
0.0009607425707933
 42
0.0009607425707933
 43
0.0009607425707933
 50
0.0000000000000552
210
0.3243787155722118
220
-0.1277855546193555
230
0.9372562621366399
1001
_KTI_ARE
1070
 29000
1000
BYBLOCK
  0
INSERT
  5
10F
  8
0
  6
BYBLOCK
 62
     0
  2
12ZPLT11_LEAF
 10
-0.0023929120798614
 20
0.0065361722656594
 30
0.0131566516863486
 41
0.0009607425707933
 42
0.0009607425707933
 43
0.0009607425707933
 50
0.0000000000000001
210
-0.3577963205985866
220
-0.2981636004988241
230
0.8849182223819844
1001
_KTI_ARE
1070
 29000
1000
BYBLOCK
  0
INSERT
  5
110
  8
0
  6
BYBLOCK
 62
     0
  2
12ZPLT11_LEAF
 10
-0.0007187687421473
 20
0.0027986941249426
 30
0.012209197196361
 41
0.000720556928095
 42
0.000720556928095
 43
0.000720556928095
 50
0.0000000000000377
210
-0.2117124015514258
220
0.2198551862264819
230
0.9522822880420736
1001
_KTI_ARE
1070
 29000
1000
BYBLOCK
  0
INSERT
  5
111
  8
0
  6
BYBLOCK
 62
     0
  2
12ZPLT11_LEAF
 10
-0.0030259723047471
 20
-0.0008175278301
 30
0.0135645512434717
 41
0.0009607425707933
 42
0.0009607425707933
 43
0.0009607425707933
 50
0.0000000000000161
210
-0.3233495663607472
220
0.06858930195530936
230
0.9437905305689394
1001
_KTI_ARE
1070
 29000
1000
BYBLOCK
  0
INSERT
  5
112
  8
0
  6
BYBLOCK
 62
     0
  2
12ZPLT11_LEAF
 10
0.0006506870120652
 20
-0.0022625367862569
 30
0.0126859754428149
 41
0.0009607425707933
 42
0.0009607425707933
 43
0.0009607425707933
 50
0.0
210
-3.566627828535181E-18
220
0.1961161351381787
230
0.9805806756909212
1001
_KTI_ARE
1070
 29000
1000
BYBLOCK
  0
INSERT
  5
113
  8
0
  6
BYBLOCK
 62
     0
  2
12ZPLT11_LEAF
 10
-0.0023667898735822
 20
0.0021299227995587
 30
0.0117399172957083
 41
0.0009607425707933
 42
0.0009607425707933
 43
0.0009607425707933
 50
0.0000000000000032
210
0.4237042157978928
220
-0.2567904338169071
230
0.8686388263341774
1001
_KTI_ARE
1070
 29000
1000
BYBLOCK
  0
INSERT
  5
114
  8
0
  6
BYBLOCK
 62
     0
  2
12ZPLT11_LEAF
 10
0.0006222968942361
 20
-0.0026004003787028
 30
0.0130976563825686
 41
0.0009607425707933
 42
0.0009607425707933
 43
0.0009607425707933
 50
0.000000000000013
210
-3.660792020344163E-18
220
-0.1986624277952547
230
0.9800679771232683
1001
_KTI_ARE
1070
 29000
1000
BYBLOCK
  0
INSERT
  5
115
  8
0
  6
BYBLOCK
 62
     0
  2
12ZPLT11_LEAF
 10
-0.0025220730851036
 20
0.01151994670046
 30
0.0223947227465887
 41
0.0009607425707933
 42
0.0009607425707933
 43
0.0009607425707933
 50
0.000000000000001
210
-0.3577963205985866
220
-0.2981636004988241
230
0.8849182223819844
1001
_KTI_ARE
1070
 29000
1000
BYBLOCK
  0
INSERT
  5
116
  8
0
  6
BYBLOCK
 62
     0
  2
12ZPLT11_LEAF
 10
-0.0005863463399165
 20
0.0120107810655229
 30
0.0194442395257101
 41
0.000720556928095
 42
0.000720556928095
 43
0.000720556928095
 50
0.0000000000000041
210
-0.5922401177795709
220
-0.144909816052442
230
0.792623989104599
1001
_KTI_ARE
1070
 29000
1000
BYBLOCK
  0
INSERT
  5
117
  8
0
  6
BYBLOCK
 62
     0
  2
12ZPLT11_LEAF
 10
-0.0022515142667218
 20
0.0042666312158715
 30
0.0220041014497544
 41
0.000720556928095
 42
0.000720556928095
 43
0.000720556928095
 50
0.0000000000000362
210
-0.2117124015514258
220
0.2198551862264819
230
0.9522822880420736
1001
_KTI_ARE
1070
 29000
1000
BYBLOCK
  0
INSERT
  5
118
  8
0
  6
BYBLOCK
 62
     0
  2
12ZPLT11_LEAF
 10
0.0022176919752123
 20
0.0128054432030208
 30
0.0215030578818099
 41
0.0009607425707933
 42
0.0009607425707933
 43
0.0009607425707933
 50
33.43676304109248
210
0.08921358520169752
220
-0.3879754384952693
230
0.9173418094362989
1001
_KTI_ARE
1070
 29000
1000
BYBLOCK
  0
INSERT
  5
119
  8
0
  6
BYBLOCK
 62
     0
  2
12ZPLT11_LEAF
 10
0.0016259868895547
 20
0.018795566528377
 30
0.0165588294625251
 41
0.0009607425707933
 42
0.0009607425707933
 43
0.0009607425707933
 50
15.90824745725699
210
0.6136390419083672
220
0.5667508110147195
230
0.5497641716772191
1001
_KTI_ARE
1070
 29000
1000
BYBLOCK
  0
INSERT
  5
11A
  8
0
  6
BYBLOCK
 62
     0
  2
12ZPLT11_LEAF
 10
-0.0021354664432355
 20
0.0105047518903491
 30
0.0230081986606495
 41
0.000720556928095
 42
0.000720556928095
 43
0.000720556928095
 50
308.9275435927926
210
-1.767987892744180E-17
220
0.4280863447390439
230
0.9037378388935391
1001
_KTI_ARE
1070
 29000
1000
BYBLOCK
  0
INSERT
  5
11B
  8
0
  6
BYBLOCK
 62
     0
  2
12ZPLT11_LEAF
 10
0.0012894412127651
 20
0.0109685782343096
 30
0.0227637288083272
 41
0.0009607425707933
 42
0.0009607425707933
 43
0.0009607425707933
 50
0.0000000000000044
210
0.4237042157978928
220
-0.2567904338169071
230
0.8686388263341774
1001
_KTI_ARE
1070
 29000
1000
BYBLOCK
  0
INSERT
  5
11C
  8
0
  6
BYBLOCK
 62
     0
  2
12ZPLT11_LEAF
 10
0.0006222968942361
 20
0.0032228435296148
 30
0.0244158590624518
 41
0.0009607425707933
 42
0.0009607425707933
 43
0.0009607425707933
 50
0.000000000000013
210
-3.660792020344163E-18
220
-0.1986624277952547
230
0.9800679771232683
1001
_KTI_ARE
1070
 29000
1000
BYBLOCK
  0
INSERT
  5
11D
  8
0
  6
BYBLOCK
 62
     0
  2
12ZPLT11_LEAF
 10
0.0001747389537278
 20
0.0136309567401985
 30
0.0214056319636826
 41
0.000720556928095
 42
0.000720556928095
 43
0.000720556928095
210
-0.2714049710886361
220
-0.5183081045095441
230
0.8109846178985765
1001
_KTI_ARE
1070
 29000
1000
BYBLOCK
  0
INSERT
  5
11E
  8
0
  6
BYBLOCK
 62
     0
  2
12ZPLT11_LEAF
 10
-0.0014608401478978
 20
0.004407037952702
 30
0.0233449783443102
 41
0.0009607425707933
 42
0.0009607425707933
 43
0.0009607425707933
 50
0.0000000000000265
210
-0.1337549082665864
220
-0.2609046358780339
230
0.9560535526276482
1001
_KTI_ARE
1070
 29000
1000
BYBLOCK
  0
INSERT
  5
11F
  8
0
  6
BYBLOCK
 62
     0
  2
12ZPLT11_LEAF
 10
-0.0038670659187922
 20
0.0083428817910583
 30
0.0167668848696655
 41
0.0009607425707933
 42
0.0009607425707933
 43
0.0009607425707933
 50
0.0000000000000109
210
-0.254911798831486
220
-0.4620276353820731
230
0.849441251034906
1001
_KTI_ARE
1070
 29000
1000
BYBLOCK
  0
INSERT
  5
120
  8
0
  6
BYBLOCK
 62
     0
  2
12ZPLT11_LEAF
 10
0.000778978332852
 20
0.0011161651170724
 30
0.0202448054622518
 41
0.000720556928095
 42
0.000720556928095
 43
0.000720556928095
 50
0.0000000000000482
210
-0.184376471054431
220
0.1195955487920646
230
0.9755522649405511
1001
_KTI_ARE
1070
 29000
1000
BYBLOCK
  0
INSERT
  5
121
  8
0
  6
BYBLOCK
 62
     0
  2
12ZPLT11_LEAF
 10
-0.0048812995939297
 20
0.0016141725830296
 30
0.023561029236409
 41
0.0009607425707933
 42
0.0009607425707933
 43
0.0009607425707933
 50
0.0000000000000194
210
-0.1324169421763769
220
-0.04965635331614134
230
0.9899494936611668
1001
_KTI_ARE
1070
 29000
1000
BYBLOCK
  0
INSERT
  5
122
  8
0
  6
BYBLOCK
 62
     0
  2
12ZPLT11_LEAF
 10
-0.002396498151335
 20
0.0006180122949245
 30
0.0247041129531798
 41
0.000720556928095
 42
0.000720556928095
 43
0.000720556928095
 50
0.000000000000014
210
-0.09286125929451543
220
7.936008364039693E-19
230
0.9956790579911967
1001
_KTI_ARE
1070
 29000
1000
BYBLOCK
  0
INSERT
  5
123
  8
0
  6
BYBLOCK
 62
     0
  2
12ZPLT11_LEAF
 10
0.0000742414695891
 20
0.0003611716076084
 30
0.02519216177264
 41
0.0009607425707933
 42
0.0009607425707933
 43
0.0009607425707933
 50
0.0
210
-3.566627828535181E-18
220
0.1961161351381787
230
0.9805806756909212
1001
_KTI_ARE
1070
 29000
1000
BYBLOCK
  0
INSERT
  5
124
  8
0
  6
BYBLOCK
 62
     0
  2
12ZPLT11_LEAF
 10
0.0010366378947034
 20
0.0053402967719586
 30
0.0239256003634489
 41
0.0009607425707933
 42
0.0009607425707933
 43
0.0009607425707933
 50
0.0000000000000283
210
0.3065489324140404
220
0.2920890771114922
230
0.9059314119004643
1001
_KTI_ARE
1070
 29000
1000
BYBLOCK
  0
INSERT
  5
125
  8
0
  6
BYBLOCK
 62
     0
  2
12ZPLT11_LEAF
 10
0.0012225074423851
 20
0.0000433383448457
 30
0.0252692627412993
 41
0.0009607425707933
 42
0.0009607425707933
 43
0.0009607425707933
 50
0.0000000000000273
210
0.1610901177046524
220
0.05097788534957408
230
0.9856222548132662
1001
_KTI_ARE
1070
 29000
1000
BYBLOCK
  0
INSERT
  5
126
  8
0
  6
BYBLOCK
 62
     0
  2
12ZPLT11_LEAF
 10
-0.0009280977339265
 20
0.0093429442791886
 30
0.0227046073139774
 41
0.0012009282134916
 42
0.0012009282134916
 43
0.0012009282134916
 50
0.0000000000000152
210
0.5432147250052454
220
0.1560297614376791
230
0.8249681667089807
1001
_KTI_ARE
1070
 29000
1000
BYBLOCK
  0
INSERT
  5
127
  8
0
  6
BYBLOCK
 62
     0
  2
12ZPLT11_LEAF
 10
0.0017431486421138
 20
0.0039191408732465
 30
0.0225215657231964
 41
0.0009607425707933
 42
0.0009607425707933
 43
0.0009607425707933
 50
0.0000000000000531
210
0.3243787155722118
220
-0.1277855546193555
230
0.9372562621366399
1001
_KTI_ARE
1070
 29000
1000
BYBLOCK
  0
INSERT
  5
128
  8
0
  6
BYBLOCK
 62
     0
  2
12ZPLT11_LEAF
 10
0.0011172262634616
 20
-0.0005548679666413
 30
0.0239579459698251
 41
0.0009607425707933
 42
0.0009607425707933
 43
0.0009607425707933
 50
0.0000000000000009
210
0.1783635286109979
220
-0.07681349042371452
230
0.9809618439829144
1001
_KTI_ARE
1070
 29000
1000
BYBLOCK
  0
INSERT
  5
129
  8
0
  6
BYBLOCK
 62
     0
  2
12ZPLT11_LEAF
 10
0.0012203498598497
 20
0.0139832149678026
 30
0.0199701958976745
 41
0.0009607425707933
 42
0.0009607425707933
 43
0.0009607425707933
 50
0.0000000000000048
210
0.4735482849945706
220
-0.5346512895100011
230
0.6999285823596533
1001
_KTI_ARE
1070
 29000
1000
BYBLOCK
  0
INSERT
  5
12A
  8
0
  6
BYBLOCK
 62
     0
  2
12ZPLT11_LEAF
 10
0.0023257524342987
 20
0.0133757647963029
 30
0.0182524190232445
 41
0.0012009282134916
 42
0.0012009282134916
 43
0.0012009282134916
 50
0.0000000000000076
210
0.05778187635873218
220
-0.7346552851323875
230
0.6759754927447552
1001
_KTI_ARE
1070
 29000
1000
BYBLOCK
  0
INSERT
  5
12B
  8
0
  6
BYBLOCK
 62
     0
  2
12ZPLT11_LEAF
 10
0.0001548789784422
 20
0.0112181244636882
 30
0.0206895659617583
 41
0.0009607425707933
 42
0.0009607425707933
 43
0.0009607425707933
 50
6.582872011838912
210
0.1211276618860405
220
-0.6056515078226885
230
0.7864568269130383
1001
_KTI_ARE
1070
 29000
1000
BYBLOCK
  0
INSERT
  5
12C
  8
0
  6
BYBLOCK
 62
     0
  2
12ZPLT11_LEAF
 10
-0.0027978819124841
 20
0.0085968917428444
 30
0.0207591646011115
 41
0.0009607425707933
 42
0.0009607425707933
 43
0.0009607425707933
 50
0.00000000000003
210
0.1410406945049365
220
-0.4594632259675332
230
0.8769270588122325
1001
_KTI_ARE
1070
 29000
1000
BYBLOCK
  0
INSERT
  5
12D
  8
0
  6
BYBLOCK
 62
     0
  2
12ZPLT11_LEAF
 10
-0.0001967810414373
 20
0.0052979566786923
 30
0.0239236295431653
 41
0.0012009282134916
 42
0.0012009282134916
 43
0.0012009282134916
 50
356.312337311451
210
-0.04093758098037918
220
-0.314646469580293
230
0.9483257423713293
1001
_KTI_ARE
1070
 29000
1000
BYBLOCK
  0
INSERT
  5
12E
  8
0
  6
BYBLOCK
 62
     0
  2
12ZPLT11_LEAF
 10
-0.0007936779531847
 20
0.0095700532226853
 30
0.0211187981025116
 41
0.0009607425707933
 42
0.0009607425707933
 43
0.0009607425707933
210
-0.1752240340400288
220
-0.3816761137505534
230
0.9075350583239269
1001
_KTI_ARE
1070
 29000
1000
BYBLOCK
  0
INSERT
  5
12F
  8
0
  6
BYBLOCK
 62
     0
  2
12ZPLT11_LEAF
 10
-0.0019081596947006
 20
0.0050019939451213
 30
0.0225716948755986
 41
0.0009607425707933
 42
0.0009607425707933
 43
0.0009607425707933
 50
0.0000000000000011
210
-0.3024360027079133
220
-0.2546829496487742
230
0.9185145940181131
1001
_KTI_ARE
1070
 29000
1000
BYBLOCK
  0
INSERT
  5
130
  8
0
  6
BYBLOCK
 62
     0
  2
12ZPLT11_LEAF
 10
-0.0002108088027802
 20
-0.000538250163129
 30
0.0234696480232752
 41
0.0009607425707933
 42
0.0009607425707933
 43
0.0009607425707933
 50
0.0
210
-0.194098068543841
220
3.492895147112172E-18
230
0.9809821302080637
1001
_KTI_ARE
1070
 29000
1000
BYBLOCK
  0
INSERT
  5
131
  8
0
  6
BYBLOCK
 62
     0
  2
12ZPLT11_LEAF
 10
-0.0022680803061488
 20
0.0028746094907861
 30
0.0244404730677208
 41
0.0009607425707933
 42
0.0009607425707933
 43
0.0009607425707933
 50
322.8876813843725
210
-0.2189149680833285
220
0.1899969169839158
230
0.957067086617068
1001
_KTI_ARE
1070
 29000
1000
BYBLOCK
  0
INSERT
  5
132
  8
0
  6
BYBLOCK
 62
     0
  2
12ZPLT11_LEAF
 10
-0.0011266867439026
 20
-0.0040237504772821
 30
0.0238703868055639
 41
0.0009607425707933
 42
0.0009607425707933
 43
0.0009607425707933
 50
0.0
210
-7.657568270323096E-19
220
0.091221129260593
230
0.9958306610947577
1001
_KTI_ARE
1070
 29000
1000
BYBLOCK
  0
INSERT
  5
133
  8
0
  6
BYBLOCK
 62
     0
  2
12ZPLT11_LEAF
 10
-0.0009436981498643
 20
0.0092363246529591
 30
0.0221034086379927
 41
0.0014411138561899
 42
0.0014411138561899
 43
0.0014411138561899
 50
0.0000000000000079
210
0.2008776809590334
220
0.5806212840057614
230
0.7890038541426916
1001
_KTI_ARE
1070
 29000
1000
BYBLOCK
  0
INSERT
  5
134
  8
0
  6
BYBLOCK
 62
     0
  2
12ZPLT11_LEAF
 10
0.0026126652297634
 20
0.0091289760854211
 30
0.0226361034018087
 41
0.0009607425707933
 42
0.0009607425707933
 43
0.0009607425707933
 50
0.000000000000014
210
0.6089005410855826
220
3.797312935844753E-17
230
0.7932465764601098
1001
_KTI_ARE
1070
 29000
1000
BYBLOCK
  0
INSERT
  5
135
  8
0
  6
BYBLOCK
 62
     0
  2
12ZPLT11_LEAF
 10
0.0021597540652573
 20
0.0112077043985445
 30
0.0212888888018968
 41
0.0014411138561899
 42
0.0014411138561899
 43
0.0014411138561899
 50
0.0000000000000172
210
0.6329066468527266
220
0.2212600472737177
230
0.7419387898270788
1001
_KTI_ARE
1070
 29000
1000
BYBLOCK
  0
INSERT
  5
136
  8
0
  6
BYBLOCK
 62
     0
  2
12ZPLT11_LEAF
 10
-0.0041814159597305
 20
0.0103828867570686
 30
0.0191968146808094
 41
0.0009607425707933
 42
0.0009607425707933
 43
0.0009607425707933
 50
0.0000000000000104
210
-3.927052745757205E-17
220
-0.6179942783065092
230
0.7861825945544819
1001
_KTI_ARE
1070
 29000
1000
BYBLOCK
  0
INSERT
  5
137
  8
0
  6
BYBLOCK
 62
     0
  2
12ZPLT11_LEAF
 10
-0.0050131213574215
 20
0.0012117571593507
 30
0.0220409784723377
 41
0.0012009282134916
 42
0.0012009282134916
 43
0.0012009282134916
 50
0.0000000000000004
210
-0.09060190839950313
220
-0.1767479852383789
230
0.9800772642544779
1001
_KTI_ARE
1070
 29000
1000
BYBLOCK
  0
INSERT
  5
138
  8
0
  6
BYBLOCK
 62
     0
  2
12ZPLT11_LEAF
 10
-0.0048260939267051
 20
0.014128091352536
 30
0.0159073528448441
 41
0.0014411138561899
 42
0.0014411138561899
 43
0.0014411138561899
 50
0.0000000000000013
210
-0.6680082308487332
220
-0.4218999352728883
230
0.6129971028765783
1001
_KTI_ARE
1070
 29000
1000
BYBLOCK
  0
INSERT
  5
139
  8
0
  6
BYBLOCK
 62
     0
  2
12ZPLT11_LEAF
 10
-0.0025112011421709
 20
0.0011386214619136
 30
0.0219393069981601
 41
0.0009607425707933
 42
0.0009607425707933
 43
0.0009607425707933
 50
0.0000000000000157
210
-0.3233495663607472
220
0.06858930195530936
230
0.9437905305689394
1001
_KTI_ARE
1070
 29000
1000
BYBLOCK
  0
INSERT
  5
13A
  8
0
  6
BYBLOCK
 62
     0
  2
12ZPLT11_LEAF
 10
0.0044418860824225
 20
0.0115125847296538
 30
0.0197978641508184
 41
0.0014411138561899
 42
0.0014411138561899
 43
0.0014411138561899
 50
0.0000000000000142
210
0.09816377819094195
220
0.6356570873425403
230
0.7657048647896117
1001
_KTI_ARE
1070
 29000
1000
BYBLOCK
  0
INSERT
  5
13B
  8
0
  6
BYBLOCK
 62
     0
  2
12ZPLT11_LEAF
 10
0.0007467612691445
 20
0.0027335043792455
 30
0.0237648987055048
 41
0.0014411138561899
 42
0.0014411138561899
 43
0.0014411138561899
 50
0.000000000000014
210
-1.365457214402706E-17
220
0.378369741475916
230
0.925654546110723
1001
_KTI_ARE
1070
 29000
1000
BYBLOCK
  0
INSERT
  5
13C
  8
0
  6
BYBLOCK
 62
     0
  2
12ZPLT11_LEAF
 10
0.0034608590316354
 20
-0.0056819499180411
 30
0.0208234094893783
 41
0.0009607425707933
 42
0.0009607425707933
 43
0.0009607425707933
 50
0.000000000000011
210
-4.436322522473613E-18
220
0.2184621477987088
230
0.9758454231993789
1001
_KTI_ARE
1070
 29000
1000
BYBLOCK
  0
INSERT
  5
13D
  8
0
  6
BYBLOCK
 62
     0
  2
12ZPLT11_LEAF
 10
0.0007889105928509
 20
0.0045136033934852
 30
0.0215610248238244
 41
0.0012009282134916
 42
0.0012009282134916
 43
0.0012009282134916
 50
0.0000000000000065
210
0.2035151924691839
220
0.4826731998384216
230
0.8518263605876318
1001
_KTI_ARE
1070
 29000
1000
BYBLOCK
  0
INSERT
  5
13E
  8
0
  6
BYBLOCK
 62
     0
  2
12ZPLT11_LEAF
 10
-0.0014725455704666
 20
-0.0039633624146309
 30
0.0228398276434696
 41
0.0012009282134916
 42
0.0012009282134916
 43
0.0012009282134916
 50
0.0000000000000117
210
0.07740666778246028
220
0.1374185787598717
230
0.9874838439156525
1001
_KTI_ARE
1070
 29000
1000
BYBLOCK
  0
INSERT
  5
13F
  8
0
  6
BYBLOCK
 62
     0
  2
12ZPLT11_LEAF
 10
-0.0004703955048083
 20
-0.0025417665679684
 30
0.0231359461170905
 41
0.0012009282134916
 42
0.0012009282134916
 43
0.0012009282134916
 50
0.0000000000000003
210
0.1807392424591283
220
0.05008436839228798
230
0.9822549986017104
1001
_KTI_ARE
1070
 29000
1000
BYBLOCK
  0
INSERT
  5
140
  8
0
  6
BYBLOCK
 62
     0
  2
12ZPLT11_LEAF
 10
0.0022146566944314
 20
-0.0031204456610012
 30
0.0212865561125659
 41
0.0009607425707933
 42
0.0009607425707933
 43
0.0009607425707933
 50
0.0000000000000251
210
0.2396662512126066
220
-0.09166517974665399
230
0.9665182785916205
1001
_KTI_ARE
1070
 29000
1000
BYBLOCK
  0
INSERT
  5
141
  8
0
  6
BYBLOCK
 62
     0
  2
12ZPLT11_LEAF
 10
0.0019913867568148
 20
0.0091616371916565
 30
0.0191566913587177
 41
0.0019214851415866
 42
0.0019214851415866
 43
0.0019214851415866
 50
0.0000000000000033
210
0.6360157272718446
220
-0.1999843266164047
230
0.7453121921521542
1001
_KTI_ARE
1070
 29000
1000
BYBLOCK
  0
INSERT
  5
142
  8
0
  6
BYBLOCK
 62
     0
  2
12ZPLT11_LEAF
 10
0.0015135995460572
 20
0.0101107159127977
 30
0.0173011200672927
 41
0.0014411138561899
 42
0.0014411138561899
 43
0.0014411138561899
 50
0.000000000000041
210
0.6943777569801046
220
-0.3545758759047272
230
0.6261912478130578
1001
_KTI_ARE
1070
 29000
1000
BYBLOCK
  0
INSERT
  5
143
  8
0
  6
BYBLOCK
 62
     0
  2
12ZPLT11_LEAF
 10
0.004512018800538
 20
0.0001916246328516
 30
0.0216243543624955
 41
0.0012009282134916
 42
0.0012009282134916
 43
0.0012009282134916
 50
0.0000000000000236
210
0.08837765295541571
220
-0.1955020807801621
230
0.976713021756503
1001
_KTI_ARE
1070
 29000
1000
BYBLOCK
  0
INSERT
  5
144
  8
0
  6
BYBLOCK
 62
     0
  2
12ZPLT11_LEAF
 10
-0.0007561269308685
 20
0.0012735436901204
 30
0.0221498367948816
 41
0.0016812994988883
 42
0.0016812994988883
 43
0.0016812994988883
210
0.2243990635475525
220
-0.2406056625815401
230
0.9443272607590441
1001
_KTI_ARE
1070
 29000
1000
BYBLOCK
  0
INSERT
  5
145
  8
0
  6
BYBLOCK
 62
     0
  2
12ZPLT11_LEAF
 10
-0.0003546263037159
 20
0.0096244782392033
 30
0.0163725801185287
 41
0.0019214851415866
 42
0.0019214851415866
 43
0.0019214851415866
 50
0.0000000000000007
210
-0.3512278314829655
220
-0.6725639326269505
230
0.6513806620718368
1001
_KTI_ARE
1070
 29000
1000
BYBLOCK
  0
INSERT
  5
146
  8
0
  6
BYBLOCK
 62
     0
  2
12ZPLT11_LEAF
 10
-0.0028417556785042
 20
0.0029146015679905
 30
0.0192527968399231
 41
0.0016812994988883
 42
0.0016812994988883
 43
0.0016812994988883
 50
0.0000000000000036
210
-0.2290781601001203
220
-0.3242337035263255
230
0.9178211710691504
1001
_KTI_ARE
1070
 29000
1000
BYBLOCK
  0
INSERT
  5
147
  8
0
  6
BYBLOCK
 62
     0
  2
12ZPLT11_LEAF
 10
-0.0008833286023353
 20
0.004912021037404
 30
0.0218545690880536
 41
0.0012009282134916
 42
0.0012009282134916
 43
0.0012009282134916
 50
0.000000000000014
210
-0.5322753593096182
220
2.817930805409796E-17
230
0.8465712857591007
1001
_KTI_ARE
1070
 29000
1000
BYBLOCK
  0
INSERT
  5
148
  8
0
  6
BYBLOCK
 62
     0
  2
12ZPLT11_LEAF
 10
-0.0008449836375118
 20
-0.0017179241587869
 30
0.0213725976338905
 41
0.0014411138561899
 42
0.0014411138561899
 43
0.0014411138561899
 50
0.0000000000000052
210
-0.2375642110994222
220
0.07126926332982596
230
0.9687538065520739
1001
_KTI_ARE
1070
 29000
1000
BYBLOCK
  0
INSERT
  5
149
  8
0
  6
BYBLOCK
 62
     0
  2
12ZPLT11_LEAF
 10
-0.0035182875371699
 20
0.0056736606557766
 30
0.0197025197108144
 41
0.0014411138561899
 42
0.0014411138561899
 43
0.0014411138561899
 50
0.000000000000003
210
-0.5860951469770438
220
0.1311002302448679
230
0.7995656372804549
1001
_KTI_ARE
1070
 29000
1000
BYBLOCK
  0
INSERT
  5
14A
  8
0
  6
BYBLOCK
 62
     0
  2
12ZPLT11_LEAF
 10
0.0007279030581454
 20
-0.0026167615379176
 30
0.0208570110283788
 41
0.0012009282134916
 42
0.0012009282134916
 43
0.0012009282134916
 50
0.0000000000000092
210
-0.08398694323743093
220
0.2292782246043715
230
0.9697307301967386
1001
_KTI_ARE
1070
 29000
1000
BYBLOCK
  0
INSERT
  5
14B
  8
0
  6
BYBLOCK
 62
     0
  2
12ZPLT11_LEAF
 10
-0.0044652135485613
 20
0.0001744895685948
 30
0.0218397491455368
 41
0.0014411138561899
 42
0.0014411138561899
 43
0.0014411138561899
 50
0.0000000000000221
210
-0.3119406370172149
220
0.1547976093468896
230
0.9374063895225923
1001
_KTI_ARE
1070
 29000
1000
BYBLOCK
  0
INSERT
  5
14C
  8
0
  6
BYBLOCK
 62
     0
  2
12ZPLT11_LEAF
 10
-0.0013062071963338
 20
-0.0001365512851734
 30
0.0230496417957755
 41
0.0012009282134916
 42
0.0012009282134916
 43
0.0012009282134916
 50
0.0000000000000268
210
0.2723028316713344
220
0.2050473130055234
230
0.9401099761692713
1001
_KTI_ARE
1070
 29000
1000
BYBLOCK
  0
INSERT
  5
14D
  8
0
  6
BYBLOCK
 62
     0
  2
12ZPLT11_LEAF
 10
-0.000358092687268
 20
-0.0046745680578307
 30
0.0183877807346978
 41
0.0016812994988883
 42
0.0016812994988883
 43
0.0016812994988883
 50
0.0
210
-2.568352708093130E-18
220
0.166650593889093
230
0.9860160138437979
1001
_KTI_ARE
1070
 29000
1000
BYBLOCK
  0
INSERT
  5
14E
  8
0
  6
BYBLOCK
 62
     0
  2
12ZPLT11_LEAF
 10
0.002381408257098
 20
0.0095125157673624
 30
0.0200519421295281
 41
0.0012009282134916
 42
0.0012009282134916
 43
0.0012009282134916
 50
0.0000000000000378
210
0.5671063492208837
220
-0.450647009648742
230
0.6894256024894984
1001
_KTI_ARE
1070
 29000
1000
BYBLOCK
  0
INSERT
  5
14F
  8
0
  6
BYBLOCK
 62
     0
  2
12ZPLT11_LEAF
 10
-0.0005546127549858
 20
0.0076653382303506
 30
0.0185873436261309
 41
0.0016812994988883
 42
0.0016812994988883
 43
0.0016812994988883
 50
0.0000000000000104
210
-3.851864449615599E-17
220
-0.6127505373862449
230
0.7902763940121634
1001
_KTI_ARE
1070
 29000
1000
BYBLOCK
  0
INSERT
  5
150
  8
0
  6
BYBLOCK
 62
     0
  2
12ZPLT11_LEAF
 10
-0.0031346705570508
 20
0.0034693049279163
 30
0.020312521422486
 41
0.0012009282134916
 42
0.0012009282134916
 43
0.0012009282134916
 50
0.0000000000000004
210
-0.1364205796242608
220
-0.4343918456456677
230
0.8903331679161072
1001
_KTI_ARE
1070
 29000
1000
BYBLOCK
  0
INSERT
  5
151
  8
0
  6
BYBLOCK
 62
     0
  2
12ZPLT11_LEAF
 10
-0.0035096033654215
 20
-0.0024113127854922
 30
0.0168227651091262
 41
0.0012009282134916
 42
0.0012009282134916
 43
0.0012009282134916
 50
318.2097781150551
210
0.07375541778300718
220
-0.0617114872316147
230
0.9953651745421458
1001
_KTI_ARE
1070
 29000
1000
BYBLOCK
  0
INSERT
  5
152
  8
0
  6
BYBLOCK
 62
     0
  2
12ZPLT11_LEAF
 10
-0.0009238614604607
 20
-0.0000823625303243
 30
0.0213124603281779
 41
0.0012009282134916
 42
0.0012009282134916
 43
0.0012009282134916
 50
0.0000000000000104
210
-0.05578974602284903
220
-0.2491077031717859
230
0.9668675485603927
1001
_KTI_ARE
1070
 29000
1000
BYBLOCK
  0
INSERT
  5
153
  8
0
  6
BYBLOCK
 62
     0
  2
12ZPLT11_LEAF
 10
0.0014041206269055
 20
-0.004421723917123
 30
0.020051176865248
 41
0.0012009282134916
 42
0.0012009282134916
 43
0.0012009282134916
 50
11.24804354624776
210
-0.1672764267686494
220
0.1219348687341123
230
0.9783406793312376
1001
_KTI_ARE
1070
 29000
1000
BYBLOCK
  0
INSERT
  5
154
  8
0
  6
BYBLOCK
 62
     0
  2
12ZPLT11_LEAF
 10
-0.0020714573803639
 20
-0.0005387934600839
 30
0.0190306750880202
 41
0.0014411138561899
 42
0.0014411138561899
 43
0.0014411138561899
 50
0.0000000000000606
210
-0.276601143093419
220
0.1847010890363202
230
0.9430680332554016
1001
_KTI_ARE
1070
 29000
1000
BYBLOCK
  0
INSERT
  5
155
  8
0
  6
BYBLOCK
 62
     0
  2
12ZPLT11_LEAF
 10
-0.0017992065434575
 20
0.0087581707320314
 30
0.0196789467371334
 41
0.0016812994988883
 42
0.0016812994988883
 43
0.0016812994988883
 50
0.0000000000000024
210
-6.157739754882738E-17
220
0.7470857123952035
230
0.6647277174414734
1001
_KTI_ARE
1070
 29000
1000
BYBLOCK
  0
INSERT
  5
156
  8
0
  6
BYBLOCK
 62
     0
  2
12ZPLT11_LEAF
 10
0.0004044868374205
 20
-0.0023974030102414
 30
0.0189213265900861
 41
0.0016812994988883
 42
0.0016812994988883
 43
0.0016812994988883
 50
0.0000000000000021
210
0.3150830185689241
220
0.09512646745981838
230
0.9442847275044276
1001
_KTI_ARE
1070
 29000
1000
BYBLOCK
  0
INSERT
  5
157
  8
0
  6
BYBLOCK
 62
     0
  2
12ZPLT11_LEAF
 10
-0.0012543236176796
 20
-0.004168234316318
 30
0.0171272347212433
 41
0.0012009282134916
 42
0.0012009282134916
 43
0.0012009282134916
 50
0.0
210
0.3407993236214007
220
1.099484062981977E-17
230
0.9401360651624826
1001
_KTI_ARE
1070
 29000
1000
BYBLOCK
  0
INSERT
  5
158
  8
0
  6
BYBLOCK
 62
     0
  2
12ZPLT11_LEAF
 10
0.0007351087649256
 20
0.004432935713185
 30
0.0207498913750832
 41
0.0016812994988883
 42
0.0016812994988883
 43
0.0016812994988883
210
0.3496591773520599
220
-0.3745575088662954
230
0.8587462560298913
1001
_KTI_ARE
1070
 29000
1000
BYBLOCK
  0
INSERT
  5
159
  8
0
  6
BYBLOCK
 62
     0
  2
12ZPLT11_LEAF
 10
-0.0014021158311408
 20
0.0014413942910112
 30
0.0201054920306919
 41
0.0014411138561899
 42
0.0014411138561899
 43
0.0014411138561899
 50
0.0000000000000272
210
0.2135947017451208
220
-0.3929087723459644
230
0.8944271909999159
1001
_KTI_ARE
1070
 29000
1000
BYBLOCK
  0
INSERT
  5
15A
  8
0
  6
BYBLOCK
 62
     0
  2
12ZPLT11_LEAF
 10
-0.0016785353570219
 20
-0.0036395409726637
 30
0.0208415505215059
 41
0.0016812994988883
 42
0.0016812994988883
 43
0.0016812994988883
 50
0.0000000000000143
210
-0.05107697941547078
220
-0.2019505186119403
230
0.9780629479773579
1001
_KTI_ARE
1070
 29000
1000
BYBLOCK
  0
INSERT
  5
15B
  8
0
  6
BYBLOCK
 62
     0
  2
12ZPLT11_LEAF
 10
-0.0065483210977811
 20
-0.0002267947037386
 30
0.0178723916377841
 41
0.0013210210348408
 42
0.0013210210348408
 43
0.0013210210348408
210
-0.2077157883319784
220
-0.3190996168578217
230
0.9246780984747157
1001
_KTI_ARE
1070
 29000
1000
BYBLOCK
  0
INSERT
  5
15C
  8
0
  6
BYBLOCK
 62
     0
  2
12ZPLT11_LEAF
 10
-0.0015720336001568
 20
0.0037580263476199
 30
0.0180061579203198
 41
0.0016812994988883
 42
0.0016812994988883
 43
0.0016812994988883
 50
0.0000000000000188
210
0.2083410212424911
220
0.5710642380819367
230
0.7940274899847819
1001
_KTI_ARE
1070
 29000
1000
BYBLOCK
  0
INSERT
  5
15D
  8
0
  6
BYBLOCK
 62
     0
  2
12ZPLT11_LEAF
 10
-0.0014719722245658
 20
-0.0026202873928368
 30
0.0197866113722414
 41
0.0014411138561899
 42
0.0014411138561899
 43
0.0014411138561899
 50
0.0000000000000137
210
-0.08997590377987325
220
0.3265504783735048
230
0.9408874118687263
1001
_KTI_ARE
1070
 29000
1000
BYBLOCK
  0
INSERT
  5
15E
  8
0
  6
BYBLOCK
 62
     0
  2
12ZPLT11_LEAF
 10
-0.0001256743913729
 20
-0.0005710406344194
 30
0.0207294606580742
 41
0.0012009282134916
 42
0.0012009282134916
 43
0.0012009282134916
 50
0.0000000000000035
210
-0.4188603684957855
220
0.2160264105234158
230
0.8819799213473873
1001
_KTI_ARE
1070
 29000
1000
BYBLOCK
  0
INSERT
  5
15F
  8
0
  6
BYBLOCK
 62
     0
  2
12ZPLT11_LEAF
 10
-0.0041158709698734
 20
0.0026240232885498
 30
0.0153386908027059
 41
0.0015612066775391
 42
0.0015612066775391
 43
0.0015612066775391
 50
0.0000000000000263
210
-0.1750207818269352
220
-0.5962374634237603
230
0.7834976790895354
1001
_KTI_ARE
1070
 29000
1000
BYBLOCK
  0
INSERT
  5
160
  8
0
  6
BYBLOCK
 62
     0
  2
12ZPLT11_LEAF
 10
0.0008069076708742
 20
0.0058730870925041
 30
0.0164757988259441
 41
0.0012009282134916
 42
0.0012009282134916
 43
0.0012009282134916
 50
13.86055773446751
210
0.1329233568058639
220
-0.7659642281337047
230
0.6289914009229371
1001
_KTI_ARE
1070
 29000
1000
BYBLOCK
  0
INSERT
  5
161
  8
0
  6
BYBLOCK
 62
     0
  2
12ZPLT11_LEAF
 10
0.0000535031395456
 20
-0.0039997028281127
 30
0.0212581026756181
 41
0.0019214851415866
 42
0.0019214851415866
 43
0.0019214851415866
 50
0.0000000000000018
210
0.1549527719720909
220
0.1320197617202212
230
0.979060989404389
1001
_KTI_ARE
1070
 29000
1000
BYBLOCK
  0
INSERT
  5
162
  8
0
  6
BYBLOCK
 62
     0
  2
12ZPLT11_LEAF
 10
0.0018126929034624
 20
0.0049594155944693
 30
0.0211394065882326
 41
0.0021616707842849
 42
0.0021616707842849
 43
0.0021616707842849
 50
0.0000000000000009
210
0.3123812794279123
220
0.5436865015997243
230
0.7789883980145234
1001
_KTI_ARE
1070
 29000
1000
BYBLOCK
  0
INSERT
  5
163
  8
0
  6
BYBLOCK
 62
     0
  2
12ZPLT11_LEAF
 10
0.003058154971959
 20
-0.0050869386435552
 30
0.0155353419732332
 41
0.0018013923202374
 42
0.0018013923202374
 43
0.0018013923202374
 50
0.000000000000004
210
-0.1696384169275547
220
0.1172220521465689
230
0.9785099887036719
1001
_KTI_ARE
1070
 29000
1000
BYBLOCK
  0
INSERT
  5
164
  8
0
  6
BYBLOCK
 62
     0
  2
12ZPLT11_LEAF
 10
-0.0030552500662771
 20
0.0008138079140416
 30
0.0189548598405595
 41
0.0021616707842849
 42
0.0021616707842849
 43
0.0021616707842849
 50
0.0000000000000033
210
-0.3242396493221019
220
-0.1811068311528807
230
0.9284766908852599
1001
_KTI_ARE
1070
 29000
1000
BYBLOCK
  0
INSERT
  5
165
  8
0
  6
BYBLOCK
 62
     0
  2
12ZPLT11_LEAF
 10
-0.0026206814817545
 20
-0.0041129150742692
 30
0.0201312682297025
 41
0.0024018564269832
 42
0.0024018564269832
 43
0.0024018564269832
 50
0.0000000000000513
210
0.1582972507970482
220
0.0611603014443135
230
0.9854955088265684
1001
_KTI_ARE
1070
 29000
1000
BYBLOCK
  0
INSERT
  5
166
  8
0
  6
BYBLOCK
 62
     0
  2
12ZPLT11_LEAF
 10
0.0016050090457719
 20
0.00290776589106
 30
0.0202455823830862
 41
0.0019214851415866
 42
0.0019214851415866
 43
0.0019214851415866
 50
0.0000000000000028
210
0.5207757896189416
220
-0.262454465403195
230
0.8123485892993789
1001
_KTI_ARE
1070
 29000
1000
BYBLOCK
  0
INSERT
  5
167
  8
0
  6
BYBLOCK
 62
     0
  2
12ZPLT11_LEAF
 10
-0.0045879782595507
 20
0.0072087945632114
 30
0.0147746078269342
 41
0.0024018564269832
 42
0.0024018564269832
 43
0.0024018564269832
 50
0.0000000000000159
210
-0.3944957412593235
220
-0.6325155181085178
230
0.6665562462989678
1001
_KTI_ARE
1070
 29000
1000
BYBLOCK
  0
INSERT
  5
168
  8
0
  6
BYBLOCK
 62
     0
  2
12ZPLT11_LEAF
 10
0.0057624973777366
 20
0.0069524661235375
 30
0.01326949241994
 41
0.0024018564269832
 42
0.0024018564269832
 43
0.0024018564269832
 50
40.69358198185724
210
-0.6315488257264263
220
-0.3217251093174093
230
0.7054353512252366
1001
_KTI_ARE
1070
 29000
1000
BYBLOCK
  0
INSERT
  5
169
  8
0
  6
BYBLOCK
 62
     0
  2
12ZPLT11_LEAF
 10
-0.0023692988475271
 20
0.0102399352165125
 30
0.0167091888985032
 41
0.0021616707842849
 42
0.0021616707842849
 43
0.0021616707842849
 50
326.5907464251466
210
0.6863638302859449
220
-0.4423612101497054
230
0.5772531959461936
1001
_KTI_ARE
1070
 29000
1000
BYBLOCK
  0
INSERT
  5
16A
  8
0
  6
BYBLOCK
 62
     0
  2
12ZPLT11_LEAF
 10
-0.0004724360547224
 20
0.0036431438298894
 30
0.0178064159981119
 41
0.0016812994988883
 42
0.0016812994988883
 43
0.0016812994988883
 50
0.0000000000000319
210
-0.186665828502021
220
0.5690089392958166
230
0.8008649670644258
1001
_KTI_ARE
1070
 29000
1000
BYBLOCK
  0
INSERT
  5
16B
  8
0
  6
BYBLOCK
 62
     0
  2
12ZPLT11_LEAF
 10
-0.0024769008908319
 20
0.0043748019841873
 30
0.0187346216074708
 41
0.0024018564269832
 42
0.0024018564269832
 43
0.0024018564269832
 50
0.000000000000007
210
-0.5937739542349442
220
0.2847118013997225
230
0.752576694706874
1001
_KTI_ARE
1070
 29000
1000
BYBLOCK
  0
INSERT
  5
16C
  8
0
  6
BYBLOCK
 62
     0
  2
12ZPLT11_LEAF
 10
-0.0017108041397925
 20
-0.002380844198576
 30
0.0184338581752927
 41
0.0012009282134916
 42
0.0012009282134916
 43
0.0012009282134916
 50
0.0000000000000515
210
0.3395641265858508
220
0.2345442936211505
230
0.9108705606537868
1001
_KTI_ARE
1070
 29000
1000
BYBLOCK
  0
INSERT
  5
16D
  8
0
  6
BYBLOCK
 62
     0
  2
12ZPLT11_LEAF
 10
0.0024009380436437
 20
0.0008359329457637
 30
0.0188142881260012
 41
0.0021616707842849
 42
0.0021616707842849
 43
0.0021616707842849
 50
0.0000000000000538
210
0.3209002253225345
220
-0.3447126095337467
230
0.8821543301579272
1001
_KTI_ARE
1070
 29000
1000
BYBLOCK
  0
INSERT
  5
16E
  8
0
  6
BYBLOCK
 62
     0
  2
12ZPLT11_LEAF
 10
-0.0015880887358007
 20
-0.0022106078415667
 30
0.0191997955213732
 41
0.0024018564269832
 42
0.0024018564269832
 43
0.0024018564269832
 50
0.0000000000000334
210
-0.234073665577501
220
0.3168310794038613
230
0.9191450300180578
1001
_KTI_ARE
1070
 29000
1000
BYBLOCK
  0
INSERT
  5
16F
  8
0
  6
BYBLOCK
 62
     0
  2
12ZPLT11_LEAF
 10
-0.0028892297114902
 20
0.002092334801774
 30
0.0159621606979044
 41
0.0014411138561899
 42
0.0014411138561899
 43
0.0014411138561899
 50
0.0000000000000014
210
-0.2965620020602762
220
-0.4589867293425198
230
0.8374856185161971
1001
_KTI_ARE
1070
 29000
1000
BYBLOCK
  0
INSERT
  5
170
  8
0
  6
BYBLOCK
 62
     0
  2
12ZPLT11_LEAF
 10
0.0005348982652201
 20
0.0039777772652198
 30
0.0163856044667853
 41
0.0024018564269832
 42
0.0024018564269832
 43
0.0024018564269832
 50
0.2871944845073481
210
0.4014442953976616
220
0.5867262778888954
230
0.7032743081666767
1001
_KTI_ARE
1070
 29000
1000
BYBLOCK
  0
INSERT
  5
171
  8
0
  6
BYBLOCK
 62
     0
  2
12ZPLT11_LEAF
 10
-0.0005710872668275
 20
0.0076296292016293
 30
0.0164113587101758
 41
0.0026420420696816
 42
0.0026420420696816
 43
0.0026420420696816
 50
3.043535477786749
210
-0.8422068303019279
220
8.464064422532715E-17
230
0.5391545743038629
1001
_KTI_ARE
1070
 29000
1000
BYBLOCK
  0
INSERT
  5
172
  8
0
  6
BYBLOCK
 62
     0
  2
12ZPLT11_LEAF
 10
0.0025406095369534
 20
0.0082490607712905
 30
0.0148271103243714
 41
0.0016812994988883
 42
0.0016812994988883
 43
0.0016812994988883
 50
5.541204778039669
210
0.8598677795722385
220
8.990036830967628E-17
230
0.5105167986007004
1001
_KTI_ARE
1070
 29000
1000
BYBLOCK
  0
INSERT
  5
173
  8
0
  6
BYBLOCK
 62
     0
  2
12ZPLT11_LEAF
 10
-0.0003580926872667
 20
0.0000109056988653
 30
0.0192721739036625
 41
0.0019214851415866
 42
0.0019214851415866
 43
0.0019214851415866
 50
4.669290951712804
210
-2.992765958273904E-17
220
0.5471233640673925
230
0.837051984342418
1001
_KTI_ARE
1070
 29000
1000
BYBLOCK
  0
INSERT
  5
174
  8
0
  6
BYBLOCK
 62
     0
  2
12ZPLT11_LEAF
 10
0.0005982783299661
 20
0.0054290009234417
 30
0.0157711392038947
 41
0.0024018564269832
 42
0.0024018564269832
 43
0.0024018564269832
 50
0.0000000000000095
210
-5.829588722704000E-17
220
-0.7307971937016278
230
0.6825946540061866
1001
_KTI_ARE
1070
 29000
1000
BYBLOCK
  0
POLYLINE
  5
17A
  8
_KTI_CONTROL
 10
0.0
 20
0.0
 30
0.0
 66
     1
 70
     8
1001
_KTI_ARCHT
1070
 12000
1000
ENVIRONMENT
1070
 10003
1000
02zplt11
1070
 20000
1000
standard
1070
 20001
1000
c:\program files\ketiv\archt
1070
 20003
1000
d:\archt
1070
 20002
1000
c:\program files\ketiv\archt\tmp
1070
 20004
1002
{
1000
c:\program files\ketiv\archt\blks
1000
c:\program files\ketiv\archt\blks3d
1000
e:\archt\blks
1000
e:\archt\blks3d
1000
d:\archt\blks
1000
d:\archt\blks3d
1002
}
1070
 20005
1002
{
1000
c:\program files\ketiv\archt\slds
1002
}
1070
 20006
1002
{
1000
c:\program files\ketiv\archt\dclswin
1002
}
1070
 20007
1002
{
1000
c:\program files\ketiv\archt\docs
1000
e:\archt\docs
1000
d:\archt\docs
1002
}
1070
 20008
1002
{
1000
c:\program files\ketiv\archt\help
1002
}
  0
VERTEX
  5
17B
  8
_KTI_CONTROL
 10
0.0
 20
0.0
 30
0.0
 70
    32
  0
VERTEX
  5
17C
  8
_KTI_CONTROL
 10
0.0
 20
0.0
 30
0.0
 70
    32
  0
SEQEND
  5
17D
  8
_KTI_CONTROL
  0
POLYLINE
  5
17E
  8
_KTI_CONTROL
 10
0.0
 20
0.0
 30
0.0
 66
     1
 70
     8
1001
_KTI_ARCHT
1070
 12000
1000
ARCHTVARS
1070
 10003
1000
02zplt11
1070
 12030
1000
m
1070
 12020
1070
     1
1070
 12021
1070
     0
1070
 12070
1070
     0
1070
 12071
1070
     1
1070
 12907
1070
     0
1070
 12913
1070
     1
1070
 12914
1070
     1
1070
 12072
1070
     2
1070
 12073
1070
    48
1070
 12074
1070
     0
1070
 12080
1070
     1
1070
 12092
1070
     1
1070
 12096
1070
     0
1070
 12095
1070
     0
1070
 12081
1070
     1
1070
 12082
1070
     1
1070
 12083
1070
     1
1070
 12084
1070
     1
1070
 12085
1070
     0
1070
 12086
1070
     1
1070
 12087
1070
     0
1070
 12088
1070
     0
1070
 12097
1070
     1
1070
 12089
1070
     4
1070
 12090
1070
     6
1070
 12091
1070
     1
1070
 12045
1000

1070
 12046
1000

1070
 12047
1000
standard
1070
 12048
1000

1070
 12049
1000

1070
 12093
1070
     1
1070
 12094
1070
     1
1070
 12908
1070
     0
1070
 12909
1070
     0
1070
 12911
1070
     0
1070
 12910
1070
     0
1070
 12912
1070
     0
1070
 12098
1070
   800
1070
 12060
1002
{
1000

1000

1000

1000

1002
}
1070
 12904
1002
{
1070
     0
1070
     0
1070
     0
1070
     0
1070
     0
1002
}
1070
 12905
1002
{
1040
0.0
1040
0.0
1040
0.0
1040
0.0
1040
0.0
1002
}
1070
 12906
1002
{
1000

1000

1000

1000

1000

1002
}
1070
 12040
1002
{
1002
}
  0
VERTEX
  5
17F
  8
_KTI_CONTROL
 10
0.0
 20
0.0
 30
0.0
 70
    32
  0
VERTEX
  5
180
  8
_KTI_CONTROL
 10
0.0
 20
0.0
 30
0.0
 70
    32
  0
SEQEND
  5
181
  8
_KTI_CONTROL
  0
ENDSEC
  0
EOF
