  0
SECTION
  2
HEADER
  9
$ACADVER
  1
AC1009
  9
$DWGCODEPAGE
  3
ansi_1252
  9
$INSBASE
 10
0.0
 20
0.0
 30
0.0
  9
$EXTMIN
 10
-0.0123353970698439
 20
-0.0114466454490234
 30
-0.0007326121634477
  9
$EXTMAX
 10
0.0133734771496989
 20
0.0108756588616998
 30
0.0250504356899777
  9
$LIMMIN
 10
0.0
 20
0.0
  9
$LIMMAX
 10
12.0
 20
9.0
  9
$ORTHOMODE
 70
     0
  9
$REGENMODE
 70
     1
  9
$FILLMODE
 70
     1
  9
$QTEXTMODE
 70
     0
  9
$MIRRTEXT
 70
     1
  9
$DRAGMODE
 70
     2
  9
$LTSCALE
 40
1.0
  9
$OSMODE
 70
    37
  9
$ATTMODE
 70
     1
  9
$TEXTSIZE
 40
0.2
  9
$TRACEWID
 40
0.05
  9
$TEXTSTYLE
  7
STANDARD
  9
$CLAYER
  8
0
  9
$CELTYPE
  6
CONTINUOUS
  9
$CECOLOR
 62
     0
  9
$DIMSCALE
 40
1.0
  9
$DIMASZ
 40
0.18
  9
$DIMEXO
 40
0.0625
  9
$DIMDLI
 40
0.38
  9
$DIMRND
 40
0.0
  9
$DIMDLE
 40
0.0
  9
$DIMEXE
 40
0.18
  9
$DIMTP
 40
0.0
  9
$DIMTM
 40
0.0
  9
$DIMTXT
 40
0.18
  9
$DIMCEN
 40
0.09
  9
$DIMTSZ
 40
0.0
  9
$DIMTOL
 70
     0
  9
$DIMLIM
 70
     0
  9
$DIMTIH
 70
     1
  9
$DIMTOH
 70
     1
  9
$DIMSE1
 70
     0
  9
$DIMSE2
 70
     0
  9
$DIMTAD
 70
     0
  9
$DIMZIN
 70
     0
  9
$DIMBLK
  1

  9
$DIMASO
 70
     1
  9
$DIMSHO
 70
     0
  9
$DIMPOST
  1

  9
$DIMAPOST
  1

  9
$DIMALT
 70
     0
  9
$DIMALTD
 70
     2
  9
$DIMALTF
 40
25.4
  9
$DIMLFAC
 40
1.0
  9
$DIMTOFL
 70
     0
  9
$DIMTVP
 40
0.0
  9
$DIMTIX
 70
     0
  9
$DIMSOXD
 70
     0
  9
$DIMSAH
 70
     0
  9
$DIMBLK1
  1

  9
$DIMBLK2
  1

  9
$DIMSTYLE
  2
STANDARD
  9
$DIMCLRD
 70
     0
  9
$DIMCLRE
 70
     0
  9
$DIMCLRT
 70
     0
  9
$DIMTFAC
 40
1.0
  9
$DIMGAP
 40
0.09
  9
$LUNITS
 70
     2
  9
$LUPREC
 70
     4
  9
$SKETCHINC
 40
0.1
  9
$FILLETRAD
 40
0.0
  9
$AUNITS
 70
     0
  9
$AUPREC
 70
     2
  9
$MENU
  1
acad
  9
$ELEVATION
 40
0.0
  9
$PELEVATION
 40
0.0
  9
$THICKNESS
 40
0.0
  9
$LIMCHECK
 70
     0
  9
$CHAMFERA
 40
0.0
  9
$CHAMFERB
 40
0.0
  9
$SKPOLY
 70
     0
  9
$TDCREATE
 40
2450224.577939468
  9
$TDUPDATE
 40
2457464.593136574
  9
$TDINDWG
 40
0.000025463
  9
$TDUSRTIMER
 40
0.000025463
  9
$USRTIMER
 70
     1
  9
$ANGBASE
 50
0.0
  9
$ANGDIR
 70
     0
  9
$PDMODE
 70
     0
  9
$PDSIZE
 40
0.0
  9
$PLINEWID
 40
0.0
  9
$COORDS
 70
     1
  9
$SPLFRAME
 70
     0
  9
$SPLINETYPE
 70
     6
  9
$SPLINESEGS
 70
     8
  9
$ATTDIA
 70
     0
  9
$ATTREQ
 70
     1
  9
$HANDLING
 70
     1
  9
$HANDSEED
  5
20D
  9
$SURFTAB1
 70
    12
  9
$SURFTAB2
 70
     6
  9
$SURFTYPE
 70
     6
  9
$SURFU
 70
     6
  9
$SURFV
 70
     6
  9
$UCSNAME
  2

  9
$UCSORG
 10
0.0
 20
0.0
 30
0.0
  9
$UCSXDIR
 10
1.0
 20
0.0
 30
0.0
  9
$UCSYDIR
 10
0.0
 20
1.0
 30
0.0
  9
$PUCSNAME
  2

  9
$PUCSORG
 10
0.0
 20
0.0
 30
0.0
  9
$PUCSXDIR
 10
1.0
 20
0.0
 30
0.0
  9
$PUCSYDIR
 10
0.0
 20
1.0
 30
0.0
  9
$USERI1
 70
     0
  9
$USERI2
 70
     0
  9
$USERI3
 70
     0
  9
$USERI4
 70
     0
  9
$USERI5
 70
     0
  9
$USERR1
 40
0.0
  9
$USERR2
 40
0.0
  9
$USERR3
 40
0.0
  9
$USERR4
 40
0.0
  9
$USERR5
 40
0.0
  9
$WORLDVIEW
 70
     1
  9
$SHADEDGE
 70
     3
  9
$SHADEDIF
 70
    70
  9
$TILEMODE
 70
     1
  9
$MAXACTVP
 70
    16
  9
$PLIMCHECK
 70
     0
  9
$PEXTMIN
 10
1.000000000000000E+20
 20
1.000000000000000E+20
 30
1.000000000000000E+20
  9
$PEXTMAX
 10
-1.000000000000000E+20
 20
-1.000000000000000E+20
 30
-1.000000000000000E+20
  9
$PLIMMIN
 10
0.0
 20
0.0
  9
$PLIMMAX
 10
12.0
 20
9.0
  9
$UNITMODE
 70
     0
  9
$VISRETAIN
 70
     0
  9
$PLINEGEN
 70
     0
  9
$PSLTSCALE
 70
     0
  0
ENDSEC
  0
SECTION
  2
TABLES
  0
TABLE
  2
VPORT
 70
     1
  0
VPORT
  2
*ACTIVE
 70
     0
 10
0.0
 20
0.0
 11
1.0
 21
1.0
 12
0.0002140961865283
 22
0.0110666390708053
 13
0.0
 23
0.0
 14
0.1
 24
0.1
 15
1.0
 25
1.0
 16
1.032271612955968
 26
-1.230213403273295
 36
0.6488376526466564
 17
0.0
 27
0.0
 37
0.0
 40
0.0369534252770679
 41
1.56198347107438
 42
50.0
 43
0.0
 44
0.0
 50
0.0
 51
0.0
 71
     8
 72
   100
 73
     1
 74
     0
 75
     0
 76
     0
 77
     0
 78
     0
  0
ENDTAB
  0
TABLE
  2
LTYPE
 70
     2
  0
LTYPE
  2
CONTINUOUS
 70
     0
  3
Solid line
 72
    65
 73
     0
 40
0.0
  0
LTYPE
  2
LEAF_G
 70
     0
  3

 72
    65
 73
     2
 40
10000.0
 49
10000.0
 49
0.0
  0
ENDTAB
  0
TABLE
  2
LAYER
 70
     2
  0
LAYER
  2
0
 70
     0
 62
     7
  6
CONTINUOUS
  0
LAYER
  2
_KTI_CONTROL
 70
     5
 62
     7
  6
CONTINUOUS
  0
ENDTAB
  0
TABLE
  2
STYLE
 70
     1
  0
STYLE
  2
STANDARD
 70
     0
 40
0.0
 41
1.0
 50
0.0
 71
     0
 42
0.2
  3
txt
  4

  0
ENDTAB
  0
TABLE
  2
VIEW
 70
     0
  0
ENDTAB
  0
TABLE
  2
UCS
 70
     0
  0
ENDTAB
  0
TABLE
  2
APPID
 70
     3
  0
APPID
  2
ACAD
 70
     0
  0
APPID
  2
_KTI_ARE
 70
     0
  0
APPID
  2
_KTI_ARCHT
 70
     0
  0
ENDTAB
  0
TABLE
  2
DIMSTYLE
 70
     1
  0
DIMSTYLE
  2
STANDARD
 70
     0
  3

  4

  5

  6

  7

 40
1.0
 41
0.18
 42
0.0625
 43
0.38
 44
0.18
 45
0.0
 46
0.0
 47
0.0
 48
0.0
140
0.18
141
0.09
142
0.0
143
25.4
144
1.0
145
0.0
146
1.0
147
0.09
 71
     0
 72
     0
 73
     1
 74
     1
 75
     0
 76
     0
 77
     0
 78
     0
170
     0
171
     2
172
     0
173
     0
174
     0
175
     0
176
     0
177
     0
178
     0
  0
ENDTAB
  0
ENDSEC
  0
SECTION
  2
BLOCKS
  0
BLOCK
  8
0
  2
$MODEL_SPACE
 70
     0
 10
0.0
 20
0.0
 30
0.0
  3
$MODEL_SPACE
  1

  0
ENDBLK
  5
23
  8
0
 62
     0
  0
BLOCK
 67
     1
  8
0
  2
$PAPER_SPACE
 70
     0
 10
0.0
 20
0.0
 30
0.0
  3
$PAPER_SPACE
  1

  0
ENDBLK
  5
21
 67
     1
  8
0
 62
     0
  0
ENDSEC
  0
SECTION
  2
ENTITIES
  0
3DFACE
  5
26
  8
0
  6
LEAF_G
 62
     3
 10
0.0063088279541745
 20
0.00643842544132
 30
0.0164707726205106
 11
0.0059066018777731
 21
0.0052295448096376
 31
0.0168601332000027
 12
0.0052386183384239
 22
0.0041818482621795
 32
0.0170500212646757
 13
0.004658890662572
 23
0.0047459925569647
 33
0.0169432389870115
1001
_KTI_ARE
1070
 29000
1000
LEAF_G
  0
3DFACE
  5
27
  8
0
  6
LEAF_G
 62
     3
 10
0.00294839376443
 20
0.0030535596726093
 30
0.0168777249681416
 11
0.0041847479955034
 21
0.0034968159042262
 31
0.017053959585619
 12
0.0052386183384239
 22
0.0041818482621795
 32
0.0170500212646757
 13
0.004658890662572
 23
0.0047459925569647
 33
0.0169432389870115
1001
_KTI_ARE
1070
 29000
1000
LEAF_G
  0
3DFACE
  5
28
  8
0
  6
LEAF_G
 62
     3
 10
0.00294839376443
 20
0.0030535596726093
 30
0.0168777249681416
 11
0.0034239288382214
 21
0.0042624403042917
 31
0.0171396038025192
 12
0.0041174111592715
 22
0.0053101368517498
 32
0.0171762337948445
 13
0.004658890662572
 23
0.0047459925569647
 33
0.0169432389870115
1001
_KTI_ARE
1070
 29000
1000
LEAF_G
  0
3DFACE
  5
29
  8
0
  6
LEAF_G
 62
     3
 10
0.0063088279541745
 20
0.00643842544132
 30
0.0164707726205106
 11
0.0051457827204911
 21
0.0059951692097031
 31
0.016945777416903
 12
0.0041174111592715
 22
0.0053101368517498
 32
0.0171762337948445
 13
0.004658890662572
 23
0.0047459925569647
 33
0.0169432389870115
1001
_KTI_ARE
1070
 29000
1000
LEAF_G
  0
3DFACE
  5
2A
  8
0
  6
LEAF_G
 62
     3
 10
0.0029452064167174
 20
0.0030535596726093
 30
0.0168494102110168
 11
0.0032118613501602
 21
0.0033154838094738
 31
0.0168767403879058
 12
0.0022122118899892
 22
0.0023327107888282
 32
0.0165018189752648
 13
0.0021528587217641
 23
0.0023246766969294
 33
0.0166231944755291
1001
_KTI_ARE
1070
 29000
1000
LEAF_G
  0
3DFACE
  5
2B
  8
0
  6
LEAF_G
 62
     3
 10
0.0022122118899892
 20
0.0023327107888282
 30
0.0165018189752648
 11
0.0021528587217641
 21
0.0023246766969294
 31
0.0166231944755291
 12
0.0013014566574724
 22
0.0015086731787961
 32
0.0161742379828106
 13
0.0013502989864846
 23
0.0014837809954355
 33
0.0160253721193508
1001
_KTI_ARE
1070
 29000
1000
LEAF_G
  0
3DFACE
  5
2C
  8
0
  6
LEAF_G
 62
     3
 10
0.0013014566574724
 20
0.0015086731787961
 30
0.0161742379828106
 11
0.0013502989864846
 21
0.0014837809954355
 31
0.0160253721193508
 12
0.0006270489559313
 22
0.0008419393473808
 32
0.0153899484424996
 13
0.0005784606317986
 23
0.0008794058360754
 33
0.0156534799204207
1001
_KTI_ARE
1070
 29000
1000
LEAF_G
  0
3DFACE
  5
2D
  8
0
  6
LEAF_G
 62
     3
 10
0.0006270489559313
 20
0.0008419393473808
 30
0.0153899484424996
 11
0.0005784606317986
 21
0.0008794058360754
 31
0.0156534799204207
 12
0.0001723842888659
 22
0.0005613173286062
 32
0.0153264351221697
 13
0.0001373234640272
 23
0.0005613173286062
 33
0.0150149727937972
1001
_KTI_ARE
1070
 29000
1000
LEAF_G
  0
3DFACE
  5
2E
  8
0
  6
LEAF_G
 62
     3
 10
0.0002779869790919
 20
-0.0003263391839565
 30
0.0147430913485082
 11
0.0003775536215397
 21
-0.0002777281193976
 31
0.0149899452546683
 12
0.0000644966387984
 22
0.0002633931363424
 32
0.0142383976563146
 13
0.0000294358139597
 23
0.0002633931363424
 33
0.0139269353279421
1001
_KTI_ARE
1070
 29000
1000
LEAF_G
  0
3DFACE
  5
2F
  8
0
  6
LEAF_G
 62
     3
 10
0.0006329386978724
 20
-0.001034831385394
 30
0.0156475880660234
 11
0.0005631904609415
 21
-0.0010788399347657
 31
0.0155120717562055
 12
0.0002779869790919
 22
-0.0003263391839565
 32
0.0147430913485082
 13
0.0003775536215397
 23
-0.0002777281193976
 33
0.0149899452546683
1001
_KTI_ARE
1070
 29000
1000
LEAF_G
  0
3DFACE
  5
30
  8
0
  6
LEAF_G
 62
     3
 10
0.0009836961240948
 20
-0.0022797056796178
 30
0.0160719057391912
 11
0.0010255827351739
 21
-0.0022128516055371
 31
0.0161818848365986
 12
0.0006329386978724
 22
-0.001034831385394
 32
0.0156475880660234
 13
0.0005631904609415
 23
-0.0010788399347657
 33
0.0155120717562055
1001
_KTI_ARE
1070
 29000
1000
LEAF_G
  0
3DFACE
  5
31
  8
0
  6
LEAF_G
 62
     3
 10
0.0013135689391163
 20
-0.0033181526954355
 30
0.0163097982734779
 11
0.0013447257943498
 21
-0.0034606975486889
 31
0.0162451339903445
 12
0.0009836961240948
 22
-0.0022797056796178
 32
0.0160719057391912
 13
0.0010255827351739
 23
-0.0022128516055371
 33
0.0161818848365986
1001
_KTI_ARE
1070
 29000
1000
LEAF_G
  0
3DFACE
  5
32
  8
0
  6
LEAF_G
 62
     3
 10
0.0020348509801026
 20
-0.0072367184051362
 30
0.0133309345992303
 11
0.0024929362587733
 21
-0.006367898079224
 31
0.0144710363195236
 12
0.0025738681576629
 22
-0.0053176002042086
 32
0.0153324715939865
 13
0.0017694350806596
 23
-0.0054410854835308
 33
0.0152742974698062
1001
_KTI_ARE
1070
 29000
1000
LEAF_G
  0
3DFACE
  5
33
  8
0
  6
LEAF_G
 62
     3
 10
0.0013138948503681
 20
-0.0033179581624623
 30
0.016313159477191
 11
0.0020984347744617
 21
-0.004305532774526
 31
0.0159065884439533
 12
0.0025738681576629
 22
-0.0053176002042086
 32
0.0153324715939865
 13
0.0017694350806596
 23
-0.0054410854835308
 33
0.0152742974698062
1001
_KTI_ARE
1070
 29000
1000
LEAF_G
  0
3DFACE
  5
34
  8
0
  6
LEAF_G
 62
     3
 10
0.0013138948503681
 20
-0.0033179581624623
 30
0.016313159477191
 11
0.0010591364779287
 21
-0.0045857707547072
 31
0.0160235806199262
 12
0.0010422706680352
 22
-0.0057305824907914
 32
0.0155048811164729
 13
0.0017694350806596
 23
-0.0054410854835308
 33
0.0152742974698062
1001
_KTI_ARE
1070
 29000
1000
LEAF_G
  0
3DFACE
  5
35
  8
0
  6
LEAF_G
 62
     3
 10
0.0020348509801026
 20
-0.0072367184051362
 30
0.0133309345992303
 11
0.0014536379622403
 21
-0.0066481360594052
 31
0.0145880284954965
 12
0.0010422706680352
 22
-0.0057305824907914
 32
0.0155048811164729
 13
0.0017694350806596
 23
-0.0054410854835308
 33
0.0152742974698062
1001
_KTI_ARE
1070
 29000
1000
LEAF_G
  0
3DFACE
  5
36
  8
0
  6
LEAF_G
 62
     3
 10
0.000292244031751
 20
0.0013031861762696
 30
0.0174349437803598
 11
0.0001775486414913
 21
0.0012539754222372
 31
0.0176750201682307
 12
0.0003176763611506
 22
0.0008167082678248
 32
0.01720751062619
 13
0.0003692980732364
 23
0.0008217090121131
 33
0.01689840185111
1001
_KTI_ARE
1070
 29000
1000
LEAF_G
  0
3DFACE
  5
37
  8
0
  6
LEAF_G
 62
     3
 10
-0.0000986133223007
 20
0.0021186027758681
 30
0.0183114708101431
 11
-0.0000198204352249
 21
0.0021622243226195
 31
0.0181808757076135
 12
0.000292244031751
 22
0.0013031861762696
 32
0.0174349437803598
 13
0.0001775486414913
 23
0.0012539754222372
 33
0.0176750201682307
1001
_KTI_ARE
1070
 29000
1000
LEAF_G
  0
3DFACE
  5
38
  8
0
  6
LEAF_G
 62
     3
 10
-0.0003921912430895
 20
0.0032877954796073
 30
0.0187147359944446
 11
-0.0004428490567547
 21
0.0032206185360236
 31
0.0188207567539251
 12
-0.0000986133223007
 22
0.0021186027758681
 32
0.0183114708101431
 13
-0.0000198204352249
 23
0.0021622243226195
 33
0.0181808757076135
1001
_KTI_ARE
1070
 29000
1000
LEAF_G
  0
3DFACE
  5
39
  8
0
  6
LEAF_G
 62
     3
 10
-0.0006828345003316
 20
0.0043037871701924
 30
0.0189727540543524
 11
-0.0007674655089722
 21
0.0046706481690729
 31
0.0189955024009787
 12
-0.0003921912430895
 22
0.0032877954796073
 32
0.0187147359944446
 13
-0.0004428490567547
 23
0.0032206185360236
 33
0.0188207567539251
1001
_KTI_ARE
1070
 29000
1000
LEAF_G
  0
3DFACE
  5
3A
  8
0
  6
LEAF_G
 62
     3
 10
-0.001769018582951
 20
0.0093972862466801
 30
0.0187677687955714
 11
-0.0020237314807511
 21
0.0077252849164247
 31
0.0191240402245022
 12
-0.0020735529136927
 22
0.0066710278718071
 32
0.0192159611000734
 13
-0.0012768171867413
 23
0.0068429298912041
 33
0.0191784471635069
1001
_KTI_ARE
1070
 29000
1000
LEAF_G
  0
3DFACE
  5
3B
  8
0
  6
LEAF_G
 62
     3
 10
-0.0006843390897658
 20
0.0043091577226869
 30
0.0189746446158007
 11
-0.0015048634714519
 21
0.0053308791381735
 31
0.0191719555383379
 12
-0.0020735529136927
 22
0.0066710278718071
 32
0.0192159611000734
 13
-0.0012768171867413
 23
0.0068429298912041
 33
0.0191784471635069
1001
_KTI_ARE
1070
 29000
1000
LEAF_G
  0
3DFACE
  5
3C
  8
0
  6
LEAF_G
 62
     3
 10
-0.0006843390897658
 20
0.0043091577226869
 30
0.0189746446158007
 11
-0.0004617927457697
 21
0.0055604728862586
 31
0.0193498645488361
 12
-0.0005363960547926
 22
0.0070093765531957
 32
0.0194781427997549
 13
-0.0012768171867413
 23
0.0068429298912041
 33
0.0191784471635069
1001
_KTI_ARE
1070
 29000
1000
LEAF_G
  0
3DFACE
  5
3D
  8
0
  6
LEAF_G
 62
     3
 10
-0.001769018582951
 20
0.0093972862466801
 30
0.0187677687955714
 11
-0.0009806607550689
 21
0.0079548786645097
 31
0.0193019492350004
 12
-0.0005363960547926
 22
0.0070093765531957
 32
0.0194781427997549
 13
-0.0012768171867413
 23
0.0068429298912041
 33
0.0191784471635069
1001
_KTI_ARE
1070
 29000
1000
LEAF_G
  0
3DFACE
  5
3E
  8
0
  6
LEAF_G
 62
     3
 10
0.0037084579863874
 20
0.0076781630897411
 30
0.0096422415946103
 11
0.0038542395147063
 21
0.0065879960039839
 31
0.0109755382273544
 12
0.0038062490426042
 22
0.0058462463215299
 32
0.0117304513758944
 13
0.0030504276099593
 23
0.0061500431384815
 33
0.0116836873483206
1001
_KTI_ARE
1070
 29000
1000
LEAF_G
  0
3DFACE
  5
3F
  8
0
  6
LEAF_G
 62
     3
 10
0.002143559516133
 20
0.0042826334091283
 30
0.0132657550898905
 11
0.0030972616196522
 21
0.0049616635077363
 31
0.0126448872014592
 12
0.0038062490426042
 22
0.0058462463215299
 32
0.0117304513758944
 13
0.0030504276099593
 23
0.0061500431384815
 33
0.0116836873483206
1001
_KTI_ARE
1070
 29000
1000
LEAF_G
  0
3DFACE
  5
40
  8
0
  6
LEAF_G
 62
     3
 10
0.002143559516133
 20
0.0042826334091283
 30
0.0132657550898905
 11
0.0021654522587146
 21
0.0055030417128645
 31
0.0127497795168721
 12
0.0024330563001699
 22
0.0066440668343504
 32
0.011885029524924
 13
0.0030504276099593
 23
0.0061500431384815
 33
0.0116836873483206
1001
_KTI_ARE
1070
 29000
1000
LEAF_G
  0
3DFACE
  5
41
  8
0
  6
LEAF_G
 62
     3
 10
0.0037084579863874
 20
0.0076781630897411
 30
0.0096422415946103
 11
0.0029224301537687
 21
0.0071293742091121
 31
0.0110804305427672
 12
0.0024330563001699
 22
0.0066440668343504
 32
0.011885029524924
 13
0.0030504276099593
 23
0.0061500431384815
 33
0.0116836873483206
1001
_KTI_ARE
1070
 29000
1000
LEAF_G
  0
3DFACE
  5
42
  8
0
  6
LEAF_G
 62
     3
 10
0.0021410308137761
 20
0.0042778361537602
 30
0.0132680513589025
 11
0.0022695239174838
 21
0.0045443266077732
 31
0.0130340871573312
 12
0.0017201170531495
 22
0.0034111999506157
 32
0.0137730852538751
 13
0.001709398315509
 23
0.0034595998531768
 33
0.013899029350088
1001
_KTI_ARE
1070
 29000
1000
LEAF_G
  0
3DFACE
  5
43
  8
0
  6
LEAF_G
 62
     3
 10
0.0017201170531495
 20
0.0034111999506157
 30
0.0137730852538751
 11
0.001709398315509
 21
0.0034595998531768
 31
0.013899029350088
 12
0.0011503745937731
 22
0.0023948437494338
 32
0.0142812545024767
 13
0.0011563056429445
 23
0.0023026451663399
 33
0.0141522952719787
1001
_KTI_ARE
1070
 29000
1000
LEAF_G
  0
3DFACE
  5
44
  8
0
  6
LEAF_G
 62
     3
 10
0.0011503745937731
 20
0.0023948437494338
 30
0.0142812545024767
 11
0.0011563056429445
 21
0.0023026451663399
 31
0.0141522952719787
 12
0.0005644384683723
 22
0.001283180429994
 32
0.0141984483600715
 13
0.0005893538002687
 23
0.0014476793492974
 33
0.0144118323675718
1001
_KTI_ARE
1070
 29000
1000
LEAF_G
  0
3DFACE
  5
45
  8
0
  6
LEAF_G
 62
     3
 10
0.0005644384683723
 20
0.001283180429994
 30
0.0141984483600715
 11
0.0005893538002687
 21
0.0014476793492974
 31
0.0144118323675718
 12
0.0002280807207541
 22
0.0009022862916018
 32
0.0143739947053903
 13
0.0001011681081365
 23
0.0007279116525942
 33
0.0141465640182279
1001
_KTI_ARE
1070
 29000
1000
LEAF_G
  0
3DFACE
  5
46
  8
0
  6
LEAF_G
 62
     3
 10
-0.0006020916664573
 20
-0.0000958149908253
 30
0.0079913665218691
 11
-0.0005396566394555
 21
-0.0002913542537182
 31
0.0081676607842345
 12
-0.0002450488204844
 22
0.0003828365636041
 32
0.0081367146822953
 13
-0.0002571819097438
 23
0.0005385835421855
 33
0.0079264774796953
1001
_KTI_ARE
1070
 29000
1000
LEAF_G
  0
3DFACE
  5
47
  8
0
  6
LEAF_G
 62
     3
 10
-0.0009760151412102
 20
-0.0012982253329099
 30
0.0080104437421664
 11
-0.0010325765220068
 21
-0.0011910288016842
 31
0.0079080916386463
 12
-0.0006020916664573
 22
-0.0000958149908253
 32
0.0079913665218691
 13
-0.0005396566394555
 23
-0.0002913542537182
 33
0.0081676607842345
1001
_KTI_ARE
1070
 29000
1000
LEAF_G
  0
3DFACE
  5
48
  8
0
  6
LEAF_G
 62
     3
 10
-0.0036028021043044
 20
-0.0056381690017102
 30
0.0040781139987824
 11
-0.0025933889437416
 21
-0.0052750486042836
 31
0.0051735148022599
 12
-0.002061690992433
 22
-0.0049450319314085
 32
0.0056736496078879
 13
-0.0027737116035503
 23
-0.0045527414214923
 33
0.0057435082042381
1001
_KTI_ARE
1070
 29000
1000
LEAF_G
  0
3DFACE
  5
49
  8
0
  6
LEAF_G
 62
     3
 10
-0.0019666211401663
 20
-0.0031956516872474
 30
0.0069329318618333
 11
-0.0019068863646276
 21
-0.0042084168339066
 31
0.0063112462512385
 12
-0.002061690992433
 22
-0.0049450319314085
 32
0.0056736496078879
 13
-0.0027737116035503
 23
-0.0045527414214923
 33
0.0057435082042381
1001
_KTI_ARE
1070
 29000
1000
LEAF_G
  0
3DFACE
  5
4A
  8
0
  6
LEAF_G
 62
     3
 10
-0.0019666211401663
 20
-0.0031956516872474
 30
0.0069329318618333
 11
-0.0028942543993861
 21
-0.0038436682181613
 31
0.0065650655869883
 12
-0.0035167596752349
 22
-0.0044075076555733
 32
0.0060476991553086
 13
-0.0027737116035503
 23
-0.0045527414214923
 33
0.0057435082042381
1001
_KTI_ARE
1070
 29000
1000
LEAF_G
  0
3DFACE
  5
4B
  8
0
  6
LEAF_G
 62
     3
 10
-0.0036028021043044
 20
-0.0056381690017102
 30
0.0040781139987824
 11
-0.0035807569785
 21
-0.0049102999885383
 31
0.0054273341380096
 12
-0.0035167596752349
 22
-0.0044075076555733
 32
0.0060476991553086
 13
-0.0027737116035503
 23
-0.0045527414214923
 33
0.0057435082042381
1001
_KTI_ARE
1070
 29000
1000
LEAF_G
  0
3DFACE
  5
4C
  8
0
  6
LEAF_G
 62
     3
 10
-0.0015223928859887
 20
-0.0023189317863411
 30
0.0074856084548085
 11
-0.0014683204987242
 21
-0.002382251374072
 31
0.0075923144247471
 12
-0.0009760151412102
 22
-0.0012982253329099
 32
0.0080104437421664
 13
-0.0010325765220068
 23
-0.0011910288016842
 33
0.0079080916386463
1001
_KTI_ARE
1070
 29000
1000
LEAF_G
  0
3DFACE
  5
4D
  8
0
  6
LEAF_G
 62
     3
 10
-0.0019481128795415
 20
-0.0031665532435915
 30
0.0069530802491189
 11
-0.0021013546585182
 21
-0.0034155596305379
 31
0.0067147954115121
 12
-0.0015223928859887
 22
-0.0023189317863411
 32
0.0074856084548085
 13
-0.0014683204987242
 23
-0.002382251374072
 33
0.0075923144247471
1001
_KTI_ARE
1070
 29000
1000
LEAF_G
  0
3DFACE
  5
4E
  8
0
  6
LEAF_G
 62
     3
 10
-0.0003118828831714
 20
0.0012427106184934
 30
0.0136595916989091
 11
-0.00036656718436
 21
0.001326358450228
 31
0.0139110396464489
 12
-0.000115421130782
 22
0.0007643476489408
 32
0.0137053080841984
 13
-0.0001044827516175
 23
0.0005872285738869
 33
0.0134469532341434
1001
_KTI_ARE
1070
 29000
1000
LEAF_G
  0
3DFACE
  5
4F
  8
0
  6
LEAF_G
 62
     3
 10
-0.0009349381261791
 20
0.0022525557284688
 30
0.0139921377866446
 11
-0.0008980995175528
 21
0.002223868888985
 31
0.0138405257114186
 12
-0.0003118828831714
 22
0.0012427106184934
 32
0.0136595916989091
 13
-0.00036656718436
 23
0.001326358450228
 33
0.0139110396464489
1001
_KTI_ARE
1070
 29000
1000
LEAF_G
  0
3DFACE
  5
50
  8
0
  6
LEAF_G
 62
     3
 10
-0.0053890086888594
 20
0.006674621627645
 30
0.0105681576724594
 11
-0.0050899528396738
 21
0.0062044458905778
 31
0.0121531170738583
 12
-0.0046898763753432
 22
0.0056664339243161
 32
0.0130067110618162
 13
-0.004061719784941
 23
0.0059936143654083
 33
0.0126015966641317
1001
_KTI_ARE
1070
 29000
1000
LEAF_G
  0
3DFACE
  5
51
  8
0
  6
LEAF_G
 62
     3
 10
-0.0024918976940354
 20
0.0042836503523128
 30
0.013555672980011
 11
-0.0035584778083028
 21
0.0046575478819204
 31
0.0132784568884899
 12
-0.0046898763753432
 22
0.0056664339243161
 32
0.0130067110618162
 13
-0.004061719784941
 23
0.0059936143654083
 33
0.0126015966641317
1001
_KTI_ARE
1070
 29000
1000
LEAF_G
  0
3DFACE
  5
52
  8
0
  6
LEAF_G
 62
     3
 10
-0.0024918976940354
 20
0.0042836503523128
 30
0.013555672980011
 11
-0.0027140768201903
 21
0.00523269260104
 31
0.0129199084715432
 12
-0.0034454959718091
 22
0.0065140156156502
 32
0.0124783239210526
 13
-0.004061719784941
 23
0.0059936143654083
 33
0.0126015966641317
1001
_KTI_ARE
1070
 29000
1000
LEAF_G
  0
3DFACE
  5
53
  8
0
  6
LEAF_G
 62
     3
 10
-0.0053890086888594
 20
0.006674621627645
 30
0.0105681576724594
 11
-0.0042455518515615
 21
0.0067795906096974
 31
0.0117945686569116
 12
-0.0034454959718091
 22
0.0065140156156502
 32
0.0124783239210526
 13
-0.004061719784941
 23
0.0059936143654083
 33
0.0126015966641317
1001
_KTI_ARE
1070
 29000
1000
LEAF_G
  0
3DFACE
  5
54
  8
0
  6
LEAF_G
 62
     3
 10
-0.0016917510115673
 20
0.003274872306235
 30
0.0137549735060081
 11
-0.0016956943275693
 21
0.0032790693859507
 31
0.0138901999533333
 12
-0.0009349381261791
 22
0.0022525557284688
 32
0.0139921377866446
 13
-0.0008980995175528
 23
0.002223868888985
 33
0.0138405257114186
1001
_KTI_ARE
1070
 29000
1000
LEAF_G
  0
3DFACE
  5
55
  8
0
  6
LEAF_G
 62
     3
 10
-0.0024883712509717
 20
0.0042790145925189
 30
0.0135565417587538
 11
-0.0026491683665669
 21
0.0044289860634103
 31
0.0134184238883303
 12
-0.0016917510115673
 22
0.003274872306235
 32
0.0137549735060081
 13
-0.0016956943275693
 23
0.0032790693859507
 33
0.0138901999533333
1001
_KTI_ARE
1070
 29000
1000
LEAF_G
  0
3DFACE
  5
56
  8
0
  6
LEAF_G
 62
     3
 10
-0.0004387431655551
 20
0.0002503877878987
 30
0.011926593924491
 11
-0.0003575517235874
 21
0.0001791099511516
 31
0.0121746681525201
 12
-0.0001928949670637
 22
0.0004826504003503
 32
0.0117141356626389
 13
-0.0002350060163074
 23
0.0004531234583321
 33
0.0114924394695495
1001
_KTI_ARE
1070
 29000
1000
LEAF_G
  0
3DFACE
  5
57
  8
0
  6
LEAF_G
 62
     3
 10
-0.0006576669228674
 20
-0.0003886394797899
 30
0.01266473164675
 11
-0.0007250815791459
 21
-0.0003504578854825
 31
0.0125262987417945
 12
-0.0004387431655551
 22
0.0002503877878987
 32
0.011926593924491
 13
-0.0003575517235874
 23
0.0001791099511516
 33
0.0121746681525201
1001
_KTI_ARE
1070
 29000
1000
LEAF_G
  0
3DFACE
  5
58
  8
0
  6
LEAF_G
 62
     3
 10
-0.001070939974248
 20
-0.0010215854178398
 30
0.0125840083652539
 11
-0.0010041887725291
 21
-0.0010207574834828
 31
0.0127017493898342
 12
-0.0006576669228674
 22
-0.0003886394797899
 32
0.01266473164675
 13
-0.0007250815791459
 23
-0.0003504578854825
 33
0.0125262987417945
1001
_KTI_ARE
1070
 29000
1000
LEAF_G
  0
3DFACE
  5
59
  8
0
  6
LEAF_G
 62
     3
 10
-0.0014140989612687
 20
-0.0016372860100076
 30
0.012484627680186
 11
-0.0016059102657535
 21
-0.0019594052519574
 31
0.0124432211005771
 12
-0.001070939974248
 22
-0.0010215854178398
 32
0.0125840083652539
 13
-0.0010041887725291
 23
-0.0010207574834828
 33
0.0127017493898342
1001
_KTI_ARE
1070
 29000
1000
LEAF_G
  0
3DFACE
  5
5A
  8
0
  6
LEAF_G
 62
     3
 10
-0.0033260841486396
 20
-0.0044942033381189
 30
0.0102448742783397
 11
-0.0024036810498868
 21
-0.0041782999096386
 31
0.011220159154956
 12
-0.0018594154476568
 22
-0.0038557678007591
 32
0.0117433183212119
 13
-0.0025437215075817
 23
-0.003420550245545
 33
0.0116535613477013
1001
_KTI_ARE
1070
 29000
1000
LEAF_G
  0
3DFACE
  5
5B
  8
0
  6
LEAF_G
 62
     3
 10
-0.0014169412235023
 20
-0.0016423587462906
 30
0.0124855602776608
 11
-0.0014627021507044
 21
-0.0027404986075587
 31
0.0121584419840126
 12
-0.0018594154476568
 22
-0.0038557678007591
 32
0.0117433183212119
 13
-0.0025437215075817
 23
-0.003420550245545
 33
0.0116535613477013
1001
_KTI_ARE
1070
 29000
1000
LEAF_G
  0
3DFACE
  5
5C
  8
0
  6
LEAF_G
 62
     3
 10
-0.0014169412235023
 20
-0.0016423587462906
 30
0.0124855602776608
 11
-0.0023945115116419
 21
-0.0021991204024305
 31
0.0122633342994255
 12
-0.0032326081900911
 22
-0.0030579472879386
 32
0.0118978964702415
 13
-0.0025437215075817
 23
-0.003420550245545
 33
0.0116535613477013
1001
_KTI_ARE
1070
 29000
1000
LEAF_G
  0
3DFACE
  5
5D
  8
0
  6
LEAF_G
 62
     3
 10
-0.0033260841486396
 20
-0.0044942033381189
 30
0.0102448742783397
 11
-0.0033354904108243
 21
-0.0036369217045104
 31
0.0113250514703689
 12
-0.0032326081900911
 22
-0.0030579472879386
 32
0.0118978964702415
 13
-0.0025437215075817
 23
-0.003420550245545
 33
0.0116535613477013
1001
_KTI_ARE
1070
 29000
1000
LEAF_G
  0
3DFACE
  5
5E
  8
0
  6
LEAF_G
 62
     3
 10
-0.007722667094273
 20
0.0006328936017548
 30
0.0055220002786585
 11
-0.0068525907417566
 21
0.001174271806883
 31
0.0069138599050425
 12
-0.0063041135051361
 22
0.0014307141145753
 32
0.0077867178521966
 13
-0.0061871588033567
 23
0.0006328936017548
 33
0.0076620204369674
1001
_KTI_ARE
1070
 29000
1000
LEAF_G
  0
3DFACE
  5
5F
  8
0
  6
LEAF_G
 62
     3
 10
-0.0039987451661437
 20
0.0006328936017548
 30
0.0091607891647856
 11
-0.0050652611234718
 21
0.001174271806883
 31
0.0085902106305467
 12
-0.0063041135051361
 22
0.0014307141145753
 32
0.0077867178521966
 13
-0.0061871588033567
 23
0.0006328936017548
 33
0.0076620204369674
1001
_KTI_ARE
1070
 29000
1000
LEAF_G
  0
3DFACE
  5
60
  8
0
  6
LEAF_G
 62
     3
 10
-0.0039987451661437
 20
0.0006328936017548
 30
0.0091607891647856
 11
-0.0050652611234718
 21
0.0000915153966266
 31
0.0085902106305467
 12
-0.0063041135051361
 22
-0.0001649269110657
 32
0.0077867178521966
 13
-0.0061871588033567
 23
0.0006328936017548
 33
0.0076620204369674
1001
_KTI_ARE
1070
 29000
1000
LEAF_G
  0
3DFACE
  5
61
  8
0
  6
LEAF_G
 62
     3
 10
-0.007722667094273
 20
0.0006328936017548
 30
0.0055220002786585
 11
-0.0068525907417566
 21
0.0000915153966266
 31
0.0069138599050425
 12
-0.0063041135051361
 22
-0.0001649269110657
 32
0.0077867178521966
 13
-0.0061871588033567
 23
0.0006328936017548
 33
0.0076620204369674
1001
_KTI_ARE
1070
 29000
1000
LEAF_G
  0
3DFACE
  5
62
  8
0
  6
LEAF_G
 62
     3
 10
-0.0039992867309487
 20
0.0006328936017548
 30
0.0091620823220503
 11
-0.0042003395577337
 21
0.0006328936017548
 31
0.0090179305699497
 12
-0.0031324054092293
 22
0.0006550522285939
 32
0.0092643423522855
 13
-0.0031014362230623
 23
0.0006094269708313
 33
0.0093879489970813
1001
_KTI_ARE
1070
 29000
1000
LEAF_G
  0
3DFACE
  5
63
  8
0
  6
LEAF_G
 62
     3
 10
-0.0031324054092293
 20
0.0006550522285939
 30
0.0092643423522855
 11
-0.0031014362230623
 21
0.0006094269708313
 31
0.0093879489970813
 12
-0.0018992045441484
 22
0.0006236866233761
 32
0.0093132812629391
 13
-0.0018961886554934
 23
0.0006873830764253
 33
0.0091680231978137
1001
_KTI_ARE
1070
 29000
1000
LEAF_G
  0
3DFACE
  5
64
  8
0
  6
LEAF_G
 62
     3
 10
-0.0018992045441484
 20
0.0006236866233761
 30
0.0093132812629391
 11
-0.0018961886554934
 21
0.0006873830764253
 31
0.0091680231978137
 12
-0.00118068136142
 22
0.0006832893682052
 32
0.0086930538357686
 13
-0.0012083645590597
 23
0.0006018101620152
 33
0.0089495848911975
1001
_KTI_ARE
1070
 29000
1000
LEAF_G
  0
3DFACE
  5
65
  8
0
  6
LEAF_G
 62
     3
 10
-0.00118068136142
 20
0.0006832893682052
 30
0.0086930538357686
 11
-0.0012083645590597
 21
0.0006018101620152
 31
0.0089495848911975
 12
-0.000777126024914
 22
0.0005672642176722
 32
0.0085164033337293
 13
-0.0006687159970934
 23
0.0006379859210882
 33
0.0082058351545012
1001
_KTI_ARE
1070
 29000
1000
LEAF_G
  0
3DFACE
  5
66
  8
0
  6
LEAF_G
 62
     3
 10
0.0047381759962
 20
0.0032137009571466
 30
0.0028352358284414
 11
0.0047136385484477
 21
0.0021907194833809
 31
0.0042281835150915
 12
0.0042024071863452
 22
0.0012336096345342
 32
0.0060329011861413
 13
0.0038762259655128
 23
0.0019624241037187
 33
0.0062007722646332
1001
_KTI_ARE
1070
 29000
1000
LEAF_G
  0
3DFACE
  5
67
  8
0
  6
LEAF_G
 62
     3
 10
0.0027868567170528
 20
0.0010633553362125
 30
0.0082785771199104
 11
0.0037235956104063
 21
0.0011323608641345
 31
0.0068858248081719
 12
0.0042024071863452
 22
0.0012336096345342
 32
0.0060329011861413
 13
0.0038762259655128
 23
0.0019624241037187
 33
0.0062007722646332
1001
_KTI_ARE
1070
 29000
1000
LEAF_G
  0
3DFACE
  5
68
  8
0
  6
LEAF_G
 62
     3
 10
0.0027868567170528
 20
0.0010633553362125
 30
0.0082785771199104
 11
0.0034942669075985
 21
0.0021420606811204
 31
0.0072024887777019
 12
0.0038644490979968
 22
0.0027215883121977
 32
0.0064995638780802
 13
0.0038762259655128
 23
0.0019624241037187
 33
0.0062007722646332
1001
_KTI_ARE
1070
 29000
1000
LEAF_G
  0
3DFACE
  5
69
  8
0
  6
LEAF_G
 62
     3
 10
0.0047381759962
 20
0.0032137009571466
 30
0.0028352358284414
 11
0.00448430984564
 21
0.0032004193003668
 31
0.0045448474846215
 12
0.0038644490979968
 22
0.0027215883121977
 32
0.0064995638780802
 13
0.0038762259655128
 23
0.0019624241037187
 33
0.0062007722646332
1001
_KTI_ARE
1070
 29000
1000
LEAF_G
  0
3DFACE
  5
6A
  8
0
  6
LEAF_G
 62
     3
 10
0.0027831624373951
 20
0.0010612400655708
 30
0.0082826463672579
 11
0.0029357021650446
 21
0.001195537894361
 31
0.0079649002231928
 12
0.002029665209215
 22
0.0007101342585729
 32
0.0087807154470535
 13
0.0021059347183595
 23
0.0007428509538201
 33
0.0088876356841576
1001
_KTI_ARE
1070
 29000
1000
LEAF_G
  0
3DFACE
  5
6B
  8
0
  6
LEAF_G
 62
     3
 10
0.002029665209215
 20
0.0007101342585729
 30
0.0087807154470535
 11
0.0021059347183595
 21
0.0007428509538201
 31
0.0088876356841576
 12
0.0014582446927152
 22
0.0004705942203654
 32
0.009237924763473
 13
0.001377816474174
 23
0.0004555714860283
 33
0.0090097845368683
1001
_KTI_ARE
1070
 29000
1000
LEAF_G
  0
3DFACE
  5
6C
  8
0
  6
LEAF_G
 62
     3
 10
0.0014582446927152
 20
0.0004705942203654
 30
0.009237924763473
 11
0.001377816474174
 21
0.0004555714860283
 31
0.0090097845368683
 12
0.0005692579182742
 22
0.0002936677619285
 32
0.008954460796107
 13
0.0005110261198538
 23
0.0002862948416607
 33
0.0092143967350717
1001
_KTI_ARE
1070
 29000
1000
LEAF_G
  0
3DFACE
  5
6D
  8
0
  6
LEAF_G
 62
     3
 10
0.0003306974947014
 20
0.0004322705913726
 30
0.0089813151680885
 11
0.0002724656962811
 21
0.0004248976711048
 31
0.0092412511070532
 12
-0.0005020606041638
 22
0.0003877751467379
 32
0.00891682625007
 13
-0.0003117326794288
 23
0.0005892088815505
 33
0.0084123800090763
1001
_KTI_ARE
1070
 29000
1000
LEAF_G
  0
3DFACE
  5
6E
  8
0
  6
LEAF_G
 62
     3
 10
0.0037871444083941
 20
-0.0004264705652519
 30
0.0145680880093382
 11
0.0048079338013701
 21
-0.0012535558050886
 31
0.014741366782388
 12
0.0061185229709013
 22
-0.0018675982201153
 32
0.0147551614477553
 13
0.0063008111018212
 23
-0.0010959413707816
 33
0.0145626460911927
1001
_KTI_ARE
1070
 29000
1000
LEAF_G
  0
3DFACE
  5
6F
  8
0
  6
LEAF_G
 62
     3
 10
0.0037871444083941
 20
-0.0004264705652519
 30
0.0145680880093382
 11
0.0050864129406211
 21
-0.0002076934248419
 31
0.0147100188233153
 12
0.0065289132813765
 22
-0.0003263273439622
 32
0.0147089644554377
 13
0.0063008111018212
 23
-0.0010959413707816
 33
0.0145626460911927
1001
_KTI_ARE
1070
 29000
1000
LEAF_G
  0
3DFACE
  5
70
  8
0
  6
LEAF_G
 62
     3
 10
0.0037815811383045
 20
-0.0004250277385336
 30
0.0145668038274885
 11
0.0041454604352336
 21
-0.0005224861422007
 31
0.0145478142456506
 12
0.0028891853729531
 22
-0.0002217782086957
 32
0.0141855932910762
 13
0.0028616531110023
 23
-0.0001636430975392
 33
0.0143046799850354
1001
_KTI_ARE
1070
 29000
1000
LEAF_G
  0
3DFACE
  5
71
  8
0
  6
LEAF_G
 62
     3
 10
0.0028891853729531
 20
-0.0002217782086957
 30
0.0141855932910762
 11
0.0028616531110023
 21
-0.0001636430975392
 31
0.0143046799850354
 12
0.0016946830346818
 22
0.0001207263485881
 32
0.0139178673584033
 13
0.0016864805532822
 23
0.0000526787569972
 33
0.0137747992495286
1001
_KTI_ARE
1070
 29000
1000
LEAF_G
  0
3DFACE
  5
72
  8
0
  6
LEAF_G
 62
     3
 10
0.0016946830346818
 20
0.0001207263485881
 30
0.0139178673584033
 11
0.0016864805532822
 21
0.0000526787569972
 31
0.0137747992495286
 12
0.0006882671751492
 22
0.0003080576044952
 32
0.013285996715244
 13
0.0007163146347894
 23
0.0003926010757693
 33
0.0135414945515266
1001
_KTI_ARE
1070
 29000
1000
LEAF_G
  0
3DFACE
  5
73
  8
0
  6
LEAF_G
 62
     3
 10
0.0006882671751492
 20
0.0003080576044952
 30
0.013285996715244
 11
0.0007163146347894
 21
0.0003926010757693
 31
0.0135414945515266
 12
0.0001532118368629
 22
0.0005731431948265
 32
0.013369393561546
 13
0.0001996831814439
 23
0.0006005856597443
 33
0.0130911769918672
1001
_KTI_ARE
1070
 29000
1000
LEAF_G
  0
3DFACE
  5
74
  8
0
  6
LEAF_G
 62
     3
 10
-0.0082708850298985
 20
0.0067293639516367
 30
0.0029100681476093
 11
-0.0069969187478204
 21
0.0067264807409721
 31
0.0049229119309203
 12
-0.006154934620317
 22
0.0065285780741788
 32
0.0060677339233476
 13
-0.0066359081214377
 23
0.0058707910575605
 33
0.0061092808883205
1001
_KTI_ARE
1070
 29000
1000
LEAF_G
  0
3DFACE
  5
75
  8
0
  6
LEAF_G
 62
     3
 10
-0.0044737897640472
 20
0.0042586525391404
 30
0.0084982323502041
 11
-0.0051660147981261
 21
0.0055240962823004
 31
0.0075747810274945
 12
-0.006154934620317
 22
0.0065285780741788
 32
0.0060677339233476
 13
-0.0066359081214377
 23
0.0058707910575605
 33
0.0061092808883205
1001
_KTI_ARE
1070
 29000
1000
LEAF_G
  0
3DFACE
  5
76
  8
0
  6
LEAF_G
 62
     3
 10
-0.0044737897640472
 20
0.0042586525391404
 30
0.0084982323502041
 11
-0.005931151136114
 21
0.0047824299020354
 31
0.0077667675078168
 12
-0.0072825039605097
 22
0.0054355960401041
 32
0.006350661368033
 13
-0.0066359081214377
 23
0.0058707910575605
 33
0.0061092808883205
1001
_KTI_ARE
1070
 29000
1000
LEAF_G
  0
3DFACE
  5
77
  8
0
  6
LEAF_G
 62
     3
 10
-0.0082708850298985
 20
0.0067293639516367
 30
0.0029100681476093
 11
-0.0077620550858082
 21
0.0059848143607071
 31
0.0051148984112426
 12
-0.0072825039605097
 22
0.0054355960401041
 32
0.006350661368033
 13
-0.0066359081214377
 23
0.0058707910575605
 33
0.0061092808883205
1001
_KTI_ARE
1070
 29000
1000
LEAF_G
  0
3DFACE
  5
78
  8
0
  6
LEAF_G
 62
     3
 10
-0.0044699562842694
 20
0.0042555245035602
 30
0.0085014261993324
 11
-0.0046786378201197
 21
0.0043983690332434
 31
0.0082215791976831
 12
-0.0032886347036509
 22
0.0031896890660988
 32
0.0089670077440207
 13
-0.003346691790559
 23
0.003213992912874
 33
0.0090868328455943
1001
_KTI_ARE
1070
 29000
1000
LEAF_G
  0
3DFACE
  5
79
  8
0
  6
LEAF_G
 62
     3
 10
-0.0032886347036509
 20
0.0031896890660988
 30
0.0089670077440207
 11
-0.003346691790559
 21
0.003213992912874
 31
0.0090868328455943
 12
-0.0022339051320391
 22
0.0022186544090003
 32
0.0095961638838538
 13
-0.0021345802035345
 23
0.0021788590837121
 33
0.0094790437324613
1001
_KTI_ARE
1070
 29000
1000
LEAF_G
  0
3DFACE
  5
7A
  8
0
  6
LEAF_G
 62
     3
 10
-0.0022339051320391
 20
0.0022186544090003
 30
0.0095961638838538
 11
-0.0021345802035345
 21
0.0021788590837121
 31
0.0094790437324613
 12
-0.0012236497342896
 22
0.0012782362502766
 32
0.0096533102500955
 13
-0.0013907483983779
 23
0.0013800480801073
 33
0.0098401946813327
1001
_KTI_ARE
1070
 29000
1000
LEAF_G
  0
3DFACE
  5
7B
  8
0
  6
LEAF_G
 62
     3
 10
-0.0012236497342896
 20
0.0012782362502766
 30
0.0096533102500955
 11
-0.0013907483983779
 21
0.0013800480801073
 31
0.0098401946813327
 12
-0.0005521303618268
 22
0.0004644559764295
 32
0.009840184757765
 13
-0.0006574166597977
 23
0.0005305854191233
 33
0.0096760461787091
1001
_KTI_ARE
1070
 29000
1000
LEAF_G
  0
3DFACE
  5
7C
  8
0
  6
LEAF_G
 62
     3
 10
0.0053948585577574
 20
-0.0037097147265447
 30
0.0087007472021229
 11
0.0046463694919852
 21
-0.0041010871418742
 31
0.0100164844828008
 12
0.004105331972606
 22
-0.0041899575289389
 32
0.0109153083656374
 13
0.0045401019439757
 23
-0.0034999907173884
 33
0.010941120945211
1001
_KTI_ARE
1070
 29000
1000
LEAF_G
  0
3DFACE
  5
7D
  8
0
  6
LEAF_G
 62
     3
 10
0.0027923678181439
 20
-0.0023538546339393
 30
0.012508857430372
 11
0.0033569456475598
 21
-0.0034302976732217
 31
0.0119073656278633
 12
0.004105331972606
 22
-0.0041899575289389
 32
0.0109153083656374
 13
0.0045401019439757
 23
-0.0034999907173884
 33
0.010941120945211
1001
_KTI_ARE
1070
 29000
1000
LEAF_G
  0
3DFACE
  5
7E
  8
0
  6
LEAF_G
 62
     3
 10
0.0027923678181439
 20
-0.0023538546339393
 30
0.012508857430372
 11
0.0040561205279629
 21
-0.0026260229326206
 31
0.0120988286065185
 12
0.0051356949542527
 22
-0.0030047105427898
 32
0.0111974643341819
 13
0.0045401019439757
 23
-0.0034999907173884
 33
0.010941120945211
1001
_KTI_ARE
1070
 29000
1000
LEAF_G
  0
3DFACE
  5
7F
  8
0
  6
LEAF_G
 62
     3
 10
0.0053948585577574
 20
-0.0037097147265447
 30
0.0087007472021229
 11
0.0053455443723883
 21
-0.003296812401273
 31
0.010207947461456
 12
0.0051356949542527
 22
-0.0030047105427898
 32
0.0111974643341819
 13
0.0045401019439757
 23
-0.0034999907173884
 33
0.010941120945211
1001
_KTI_ARE
1070
 29000
1000
LEAF_G
  0
3DFACE
  5
80
  8
0
  6
LEAF_G
 62
     3
 10
0.0028133381667199
 20
-0.0023683011646673
 30
0.012492964221015
 11
0.0030599325685227
 21
-0.0025288047557276
 31
0.0122666874356688
 12
0.0019692847359925
 22
-0.0016919680135837
 32
0.0126088659568927
 13
0.0019758277559053
 23
-0.0016679019532389
 33
0.0127418974227394
1001
_KTI_ARE
1070
 29000
1000
LEAF_G
  0
3DFACE
  5
81
  8
0
  6
LEAF_G
 62
     3
 10
0.0019692847359925
 20
-0.0016919680135837
 30
0.0126088659568927
 11
0.0019758277559053
 21
-0.0016679019532389
 31
0.0127418974227394
 12
0.0010258861433105
 22
-0.0008414713904433
 32
0.0126586351468981
 13
0.0009815976082441
 23
-0.0008525544713922
 33
0.0125067077623429
1001
_KTI_ARE
1070
 29000
1000
LEAF_G
  0
3DFACE
  5
82
  8
0
  6
LEAF_G
 62
     3
 10
0.0010258861433105
 20
-0.0008414713904433
 30
0.0126586351468981
 11
0.0009815976082441
 21
-0.0008525544713922
 31
0.0125067077623429
 12
0.0001890364002393
 22
-0.0000669566936014
 32
0.0121240485515226
 13
0.0002642970536035
 23
-0.0000844226332719
 33
0.0123833633753932
1001
_KTI_ARE
1070
 29000
1000
LEAF_G
  0
3DFACE
  5
83
  8
0
  6
LEAF_G
 62
     3
 10
0.00007243522155
 20
-0.0002055595230455
 30
0.0089421212427807
 11
0.0001476958749142
 21
-0.000223025462716
 31
0.0092014360666512
 12
-0.0002448256995716
 22
0.0002283897346508
 32
0.0089339390625683
 13
-0.0002984208702825
 23
0.0003432245192932
 33
0.0086472710082857
1001
_KTI_ARE
1070
 29000
1000
LEAF_G
  0
3DFACE
  5
84
  8
0
  6
LEAF_G
 62
     3
 10
0.0004438702190145
 20
0.0005968227430446
 30
0.0132751617367098
 11
0.0006217748287153
 21
0.0006783019492345
 31
0.0134620426926102
 12
0.0000702338369376
 22
0.0007128478935776
 32
0.0137339030991738
 13
0.0000420510239499
 23
0.0007128478935776
 33
0.0133876042317207
1001
_KTI_ARE
1070
 29000
1000
LEAF_G
  0
3DFACE
  5
85
  8
0
  6
LEAF_G
 62
     3
 10
0.0016250406037652
 20
0.0006564254878737
 30
0.0130549109105102
 11
0.0015343566010501
 21
0.0005927290348244
 31
0.0129413969786783
 12
0.0004438702190145
 22
0.0005968227430446
 32
0.0132751617367098
 13
0.0006217748287153
 23
0.0006783019492345
 33
0.0134620426926102
1001
_KTI_ARE
1070
 29000
1000
LEAF_G
  0
3DFACE
  5
86
  8
0
  6
LEAF_G
 62
     3
 10
0.0027224716326802
 20
0.0006250598826558
 30
0.0124142208774167
 11
0.0027730087276317
 21
0.0006706851404185
 31
0.012531198204978
 12
0.0016250406037652
 22
0.0006564254878737
 32
0.0130549109105102
 13
0.0015343566010501
 23
0.0005927290348244
 33
0.0129413969786783
1001
_KTI_ARE
1070
 29000
1000
LEAF_G
  0
3DFACE
  5
87
  8
0
  6
LEAF_G
 62
     3
 10
0.003655475205025
 20
0.000647218509495
 30
0.0120795338957211
 11
0.0039208334089993
 21
0.000647218509495
 31
0.0118114818280535
 12
0.0027224716326802
 22
0.0006250598826558
 32
0.0124142208774167
 13
0.0027730087276317
 23
0.0006706851404185
 33
0.012531198204978
1001
_KTI_ARE
1070
 29000
1000
LEAF_G
  0
3DFACE
  5
88
  8
0
  6
LEAF_G
 62
     3
 10
0.006599538341445
 20
0.000647218509495
 30
0.0080217331874342
 11
0.0062195751441842
 21
0.0011885967146232
 31
0.0093334983158716
 12
0.0057086107960487
 22
0.0014450390223155
 32
0.0104285033113349
 13
0.0055777798855701
 23
0.000647218509495
 33
0.0103184527752322
1001
_KTI_ARE
1070
 29000
1000
LEAF_G
  0
3DFACE
  5
89
  8
0
  6
LEAF_G
 62
     3
 10
0.0036605854290306
 20
0.000647218509495
 30
0.01207660704474
 11
0.0046524540949427
 21
0.0011885967146232
 31
0.0113843551393245
 12
0.0057086107960487
 22
0.0014450390223155
 32
0.0104285033113349
 13
0.0055777798855701
 23
0.000647218509495
 33
0.0103184527752322
1001
_KTI_ARE
1070
 29000
1000
LEAF_G
  0
3DFACE
  5
8A
  8
0
  6
LEAF_G
 62
     3
 10
0.0036605854290306
 20
0.000647218509495
 30
0.01207660704474
 11
0.0046524540949427
 21
0.0001058403043668
 31
0.0113843551393245
 12
0.0057086107960487
 22
-0.0001506020033255
 32
0.0104285033113349
 13
0.0055777798855701
 23
0.000647218509495
 33
0.0103184527752322
1001
_KTI_ARE
1070
 29000
1000
LEAF_G
  0
3DFACE
  5
8B
  8
0
  6
LEAF_G
 62
     3
 10
0.006599538341445
 20
0.000647218509495
 30
0.0080217331874342
 11
0.0062195751441843
 21
0.0001058403043668
 31
0.0093334983158716
 12
0.0057086107960487
 22
-0.0001506020033255
 32
0.0104285033113349
 13
0.0055777798855701
 23
0.000647218509495
 33
0.0103184527752322
1001
_KTI_ARE
1070
 29000
1000
LEAF_G
  0
3DFACE
  5
8C
  8
0
  6
LEAF_G
 62
     3
 10
-0.0083961706253031
 20
0.0029909957800452
 30
0.015951538372746
 11
-0.0066831197798234
 21
0.0031013864570961
 31
0.0161531993232929
 12
-0.0056240357399681
 22
0.0030842489677657
 32
0.0161322985660092
 13
-0.0058512375888378
 23
0.0023143915976308
 33
0.015985859610026
1001
_KTI_ARE
1070
 29000
1000
LEAF_G
  0
3DFACE
  5
8D
  8
0
  6
LEAF_G
 62
     3
 10
-0.003396915659478
 20
0.0016434417056625
 30
0.0154038825612256
 11
-0.0043362073438641
 21
0.002467261719683
 31
0.0158456497262573
 12
-0.0056240357399681
 22
0.0030842489677657
 32
0.0161322985660092
 13
-0.0058512375888378
 23
0.0023143915976308
 33
0.015985859610026
1001
_KTI_ARE
1070
 29000
1000
LEAF_G
  0
3DFACE
  5
8E
  8
0
  6
LEAF_G
 62
     3
 10
-0.003396915659478
 20
0.0016434417056625
 30
0.0154038825612256
 11
-0.0046146864831152
 21
0.0014213993394363
 31
0.01587699768533
 12
-0.0060344260504433
 22
0.0015429780916127
 32
0.0161784955583268
 13
-0.0058512375888378
 23
0.0023143915976308
 33
0.015985859610026
1001
_KTI_ARE
1070
 29000
1000
LEAF_G
  0
3DFACE
  5
8F
  8
0
  6
LEAF_G
 62
     3
 10
-0.0083961706253031
 20
0.0029909957800452
 30
0.015951538372746
 11
-0.0069615989190745
 21
0.0020555240768494
 31
0.0161845472823656
 12
-0.0060344260504433
 22
0.0015429780916127
 32
0.0161784955583268
 13
-0.0058512375888378
 23
0.0023143915976308
 33
0.015985859610026
1001
_KTI_ARE
1070
 29000
1000
LEAF_G
  0
3DFACE
  5
90
  8
0
  6
LEAF_G
 62
     3
 10
-0.0033918808118838
 20
0.001642020050322
 30
0.0154011788504704
 11
-0.0037480137105487
 21
0.0017391680926301
 31
0.0154786288586151
 12
-0.0024180926884972
 22
0.0013932013299597
 32
0.0149851117011959
 13
-0.0023605767719303
 23
0.0013338649162781
 33
0.0150923052953529
1001
_KTI_ARE
1070
 29000
1000
LEAF_G
  0
3DFACE
  5
91
  8
0
  6
LEAF_G
 62
     3
 10
-0.0024180926884972
 20
0.0013932013299597
 30
0.0149851117011959
 11
-0.0023605767719303
 21
0.0013338649162781
 31
0.0150923052953529
 12
-0.0013350099494575
 22
0.0010551608264283
 32
0.0144119775272996
 13
-0.0013642561543408
 23
0.0011247088088812
 33
0.0142724283358434
1001
_KTI_ARE
1070
 29000
1000
LEAF_G
  0
3DFACE
  5
92
  8
0
  6
LEAF_G
 62
     3
 10
-0.0013350099494575
 20
0.0010551608264283
 30
0.0144119775272996
 11
-0.0013642561543408
 21
0.0011247088088812
 31
0.0142724283358434
 12
-0.0006116137110725
 22
0.0008937321649123
 32
0.0133938360805501
 13
-0.0005722700057966
 23
0.0008064886499771
 33
0.0136469250862957
1001
_KTI_ARE
1070
 29000
1000
LEAF_G
  0
3DFACE
  5
93
  8
0
  6
LEAF_G
 62
     3
 10
-0.0006116137110725
 20
0.0008937321649123
 30
0.0133938360805501
 11
-0.0005722700057966
 21
0.0008064886499771
 31
0.0136469250862957
 12
-0.0002137014171394
 22
0.0006594111822361
 32
0.0131185310101034
 13
-0.0002540470221316
 23
0.0006608376401291
 33
0.012807712347843
1001
_KTI_ARE
1070
 29000
1000
LEAF_G
  0
3DFACE
  5
94
  8
0
  6
LEAF_G
 62
     3
 10
0.0066953211691967
 20
-0.0029605668214894
 30
0.018471182465438
 11
0.0054894362292342
 21
-0.0028362668349965
 31
0.0193627618723322
 12
0.0042911894373477
 22
-0.0024134614193456
 32
0.0198497798769674
 13
0.004655683860924
 23
-0.0017150562149446
 33
0.0196373665912301
1001
_KTI_ARE
1070
 29000
1000
LEAF_G
  0
3DFACE
  5
95
  8
0
  6
LEAF_G
 62
     3
 10
0.0025793160143283
 20
-0.0005116980811159
 30
0.0198245738577592
 11
0.0033589324645739
 21
-0.0015761272402407
 31
0.0199482478957335
 12
0.0042911894373477
 22
-0.0024134614193456
 32
0.0198497798769674
 13
0.004655683860924
 23
-0.0017150562149446
 33
0.0196373665912301
1001
_KTI_ARE
1070
 29000
1000
LEAF_G
  0
3DFACE
  5
96
  8
0
  6
LEAF_G
 62
     3
 10
0.0025793160143283
 20
-0.0005116980811159
 30
0.0198245738577592
 11
0.0038969128499446
 21
-0.0006384326828482
 31
0.019887688289194
 12
0.0050840026368413
 22
-0.0010315957558198
 32
0.0197605341410144
 13
0.004655683860924
 23
-0.0017150562149446
 33
0.0196373665912301
1001
_KTI_ARE
1070
 29000
1000
LEAF_G
  0
3DFACE
  5
97
  8
0
  6
LEAF_G
 62
     3
 10
0.0066953211691967
 20
-0.0029605668214894
 30
0.018471182465438
 11
0.0060274166146049
 21
-0.001898572277604
 31
0.0193022022657926
 12
0.0050840026368413
 22
-0.0010315957558198
 32
0.0197605341410144
 13
0.004655683860924
 23
-0.0017150562149446
 33
0.0196373665912301
1001
_KTI_ARE
1070
 29000
1000
LEAF_G
  0
3DFACE
  5
98
  8
0
  6
LEAF_G
 62
     3
 10
0.0025803760316325
 20
-0.0005125070093256
 30
0.0198214652004785
 11
0.002718427589362
 21
-0.0005922118199373
 31
0.0198137085965796
 12
0.0017482355834667
 22
-0.0001005697116894
 32
0.019203702241114
 13
0.0016936435065269
 23
-0.000011038483779
 33
0.0192892780650345
1001
_KTI_ARE
1070
 29000
1000
LEAF_G
  0
3DFACE
  5
99
  8
0
  6
LEAF_G
 62
     3
 10
0.0017482355834667
 20
-0.0001005697116894
 30
0.019203702241114
 11
0.0016936435065269
 21
-0.000011038483779
 31
0.0192892780650345
 12
0.0008275565390558
 22
0.000408068792638
 32
0.0183397431927038
 13
0.0008571603592388
 23
0.0003097253841934
 33
0.0182188365053558
1001
_KTI_ARE
1070
 29000
1000
LEAF_G
  0
3DFACE
  5
9A
  8
0
  6
LEAF_G
 62
     3
 10
0.0008275565390558
 20
0.000408068792638
 30
0.0183397431927038
 11
0.0008571603592388
 21
0.0003097253841934
 31
0.0182188365053558
 12
0.0004268890474501
 22
0.0004961145981611
 32
0.0172093539980195
 13
0.0003759589388301
 23
0.0006340868081165
 33
0.0174364733415118
1001
_KTI_ARE
1070
 29000
1000
LEAF_G
  0
3DFACE
  5
9B
  8
0
  6
LEAF_G
 62
     3
 10
0.0004268890474501
 20
0.0004961145981611
 30
0.0172093539980195
 11
0.0003759589388301
 21
0.0006340868081165
 31
0.0174364733415118
 12
0.0001578018502323
 22
0.0007541943721939
 32
0.0167405495970856
 13
0.0002407469668562
 23
0.0006875660369546
 33
0.0164457296248906
1001
_KTI_ARE
1070
 29000
1000
LEAF_G
  0
3DFACE
  5
9C
  8
0
  6
LEAF_G
 62
     3
 10
-0.0003014756762539
 20
-0.0000677696392309
 30
0.0163050786119703
 11
-0.0002436463643377
 21
-0.0001535020363456
 31
0.0165551168683245
 12
0.0001526430927947
 22
0.0002456428022176
 32
0.0160706094382068
 13
0.0001765744378156
 23
0.0003037723513773
 33
0.0157635487118454
1001
_KTI_ARE
1070
 29000
1000
LEAF_G
  0
3DFACE
  5
9D
  8
0
  6
LEAF_G
 62
     3
 10
-0.0009109601701277
 20
-0.0008224741258234
 30
0.0168839552545563
 11
-0.0009649964033532
 21
-0.000770454051919
 31
0.0167441688581895
 12
-0.0003014756762539
 22
-0.0000677696392309
 32
0.0163050786119703
 13
-0.0002436463643377
 23
-0.0001535020363456
 33
0.0165551168683245
1001
_KTI_ARE
1070
 29000
1000
LEAF_G
  0
3DFACE
  5
9E
  8
0
  6
LEAF_G
 62
     3
 10
-0.0018498972619196
 20
-0.0017205028709251
 30
0.016967471721426
 11
-0.0017862269106227
 21
-0.0017350175332997
 31
0.0170860245291418
 12
-0.0009109601701277
 22
-0.0008224741258234
 32
0.0168839552545563
 13
-0.0009649964033532
 23
-0.000770454051919
 33
0.0167441688581895
1001
_KTI_ARE
1070
 29000
1000
LEAF_G
  0
3DFACE
  5
9F
  8
0
  6
LEAF_G
 62
     3
 10
-0.0025498948575686
 20
-0.0024387415595192
 30
0.0168896741624535
 11
-0.0027575671514879
 21
-0.0026394589226769
 31
0.0168391517914539
 12
-0.0018498972619196
 22
-0.0017205028709251
 32
0.016967471721426
 13
-0.0017862269106227
 23
-0.0017350175332997
 33
0.0170860245291418
1001
_KTI_ARE
1070
 29000
1000
LEAF_G
  0
3DFACE
  5
A0
  8
0
  6
LEAF_G
 62
     3
 10
-0.00488373416882
 20
-0.0046300653409257
 30
0.0157465881950357
 11
-0.0041907892047709
 21
-0.0047661239064876
 31
0.0162742927019225
 12
-0.0034250383780948
 22
-0.0044125742712077
 32
0.0166741693072537
 13
-0.0039725885067505
 23
-0.0038167229496082
 33
0.0165697879034137
1001
_KTI_ARE
1070
 29000
1000
LEAF_G
  0
3DFACE
  5
A1
  8
0
  6
LEAF_G
 62
     3
 10
-0.0025507430564734
 20
-0.0024403433583374
 30
0.0168964586285196
 11
-0.0029984166384031
 21
-0.0036540844106704
 31
0.0169255371325991
 12
-0.0034250383780948
 22
-0.0044125742712077
 32
0.0166741693072537
 13
-0.0039725885067505
 23
-0.0038167229496082
 33
0.0165697879034137
1001
_KTI_ARE
1070
 29000
1000
LEAF_G
  0
3DFACE
  5
A2
  8
0
  6
LEAF_G
 62
     3
 10
-0.0025507430564734
 20
-0.0024403433583374
 30
0.0168964586285196
 11
-0.0037592357956851
 21
-0.0028884600106049
 31
0.0170111813494993
 12
-0.0045462455572472
 22
-0.0032842856816374
 32
0.0168003818374225
 13
-0.0039725885067505
 23
-0.0038167229496082
 33
0.0165697879034137
1001
_KTI_ARE
1070
 29000
1000
LEAF_G
  0
3DFACE
  5
A3
  8
0
  6
LEAF_G
 62
     3
 10
-0.00488373416882
 20
-0.0046300653409257
 30
0.0157465881950357
 11
-0.0049516083620529
 21
-0.0040004995064221
 31
0.0163599369188228
 12
-0.0045462455572472
 22
-0.0032842856816374
 32
0.0168003818374225
 13
-0.0039725885067505
 23
-0.0038167229496082
 33
0.0165697879034137
1001
_KTI_ARE
1070
 29000
1000
LEAF_G
  0
3DFACE
  5
A4
  8
0
  6
LEAF_G
 62
     3
 10
0.0002333289336071
 20
0.0015668811855527
 30
0.0134077560417504
 11
0.0002307062043451
 21
0.001810424502501
 31
0.0135256253631762
 12
-0.0001702188562449
 22
0.000684752055557
 32
0.0138628341258535
 13
-0.0001522052758825
 23
0.000752568764695
 33
0.013669246456437
1001
_KTI_ARE
1070
 29000
1000
LEAF_G
  0
3DFACE
  5
A5
  8
0
  6
LEAF_G
 62
     3
 10
0.0005775516455324
 20
0.0028284715510501
 30
0.0129625948761119
 11
0.0005976458074838
 21
0.0026916586229724
 31
0.0128848472937333
 12
0.0002333289336071
 22
0.0015668811855527
 32
0.0134077560417504
 13
0.0002307062043451
 23
0.001810424502501
 33
0.0135256253631762
1001
_KTI_ARE
1070
 29000
1000
LEAF_G
  0
3DFACE
  5
A6
  8
0
  6
LEAF_G
 62
     3
 10
0.0009637106687051
 20
0.0039655992684735
 30
0.0119580940120513
 11
0.0009496110756651
 21
0.0040618374307217
 31
0.0120522150770614
 12
0.0005775516455324
 22
0.0028284715510501
 32
0.0129625948761119
 13
0.0005976458074838
 23
0.0026916586229724
 33
0.0128848472937333
1001
_KTI_ARE
1070
 29000
1000
LEAF_G
  0
3DFACE
  5
A7
  8
0
  6
LEAF_G
 62
     3
 10
0.0010067990044406
 20
0.0053023469915737
 30
0.007907033049138
 11
0.0010499218916118
 21
0.0054563009422332
 31
0.0075654112039997
 12
0.000608549066443
 22
0.0039655992684735
 32
0.0088030210752908
 13
0.0005944494734031
 23
0.0040618374307217
 33
0.0088971421403009
1001
_KTI_ARE
1070
 29000
1000
LEAF_G
  0
3DFACE
  5
A8
  8
0
  6
LEAF_G
 62
     3
 10
0.0017116201069499
 20
0.0078941548785796
 30
0.0012275132387707
 11
0.0011625373528904
 21
0.0077988595568009
 31
0.0035435368629229
 12
0.000832193752644
 22
0.0075225455466249
 32
0.0049122018344895
 13
0.0015379743154252
 23
0.0071204115370327
 33
0.0048353418719612
1001
_KTI_ARE
1070
 29000
1000
LEAF_G
  0
3DFACE
  5
A9
  8
0
  6
LEAF_G
 62
     3
 10
0.0010079087670222
 20
0.0053060115102078
 30
0.0079025586132803
 11
0.0008162587319634
 21
0.0065325673686484
 31
0.0067226786615439
 12
0.000832193752644
 22
0.0075225455466249
 32
0.0049122018344895
 13
0.0015379743154252
 23
0.0071204115370327
 33
0.0048353418719612
1001
_KTI_ARE
1070
 29000
1000
LEAF_G
  0
3DFACE
  5
AA
  8
0
  6
LEAF_G
 62
     3
 10
0.0010079087670222
 20
0.0053060115102078
 30
0.0079025586132803
 11
0.0018440329711438
 21
0.0061927244240014
 31
0.006699262210013
 12
0.0023468084209098
 22
0.0070217243650399
 32
0.0048776933796017
 13
0.0015379743154252
 23
0.0071204115370327
 33
0.0048353418719612
1001
_KTI_ARE
1070
 29000
1000
LEAF_G
  0
3DFACE
  5
AB
  8
0
  6
LEAF_G
 62
     3
 10
0.0017116201069499
 20
0.0078941548785796
 30
0.0012275132387707
 11
0.0021903115920708
 21
0.0074590166121539
 31
0.003520120411392
 12
0.0023468084209098
 22
0.0070217243650399
 32
0.0048776933796017
 13
0.0015379743154252
 23
0.0071204115370327
 33
0.0048353418719612
1001
_KTI_ARE
1070
 29000
1000
LEAF_G
  0
3DFACE
  5
AC
  8
0
  6
LEAF_G
 62
     3
 10
-0.0019492200657642
 20
0.0004080676137656
 30
0.0078337055551723
 11
-0.001881604456465
 21
0.0003334275977259
 31
0.0080804219754826
 12
-0.0009157888507903
 22
0.0005225799035727
 32
0.0076793069656
 13
-0.0011253688640016
 23
0.0004894061993991
 33
0.0071442910761904
1001
_KTI_ARE
1070
 29000
1000
LEAF_G
  0
3DFACE
  5
AD
  8
0
  6
LEAF_G
 62
     3
 10
-0.0028284174859725
 20
0.0001455838379934
 30
0.0080787901148174
 11
-0.0027561876009986
 21
0.0002322586353731
 31
0.0078642844806357
 12
-0.0019492200657642
 22
0.0004080676137656
 32
0.0078337055551723
 13
-0.001881604456465
 23
0.0003334275977259
 33
0.0080804219754826
1001
_KTI_ARE
1070
 29000
1000
LEAF_G
  0
3DFACE
  5
AE
  8
0
  6
LEAF_G
 62
     3
 10
-0.0034173534561883
 20
0.0000591259333177
 30
0.0075903019887517
 11
-0.0034899049278804
 21
-0.0000060857868929
 31
0.00768412668048
 12
-0.0028284174859725
 22
0.0001455838379934
 32
0.0080787901148174
 13
-0.0027561876009986
 23
0.0002322586353731
 33
0.0078642844806357
1001
_KTI_ARE
1070
 29000
1000
LEAF_G
  0
3DFACE
  5
AF
  8
0
  6
LEAF_G
 62
     3
 10
-0.0041903705205096
 20
-0.0001213797732682
 30
0.0070344526593566
 11
-0.0043550584623466
 21
-0.0001495042435728
 31
0.006696290296902
 12
-0.0034173534561883
 22
0.0000591259333177
 32
0.0075903019887517
 13
-0.0034899049278804
 23
-0.0000060857868929
 33
0.00768412668048
1001
_KTI_ARE
1070
 29000
1000
LEAF_G
  0
3DFACE
  5
B0
  8
0
  6
LEAF_G
 62
     3
 10
-0.0063532173682666
 20
-0.0004574125090232
 30
0.0012604918873274
 11
-0.006037752792128
 21
-0.0009824907807188
 31
0.0028767132055721
 12
-0.0053449744261419
 22
-0.0011409475710449
 32
0.0048589776232968
 13
-0.0053630908348273
 23
-0.0003263768339326
 33
0.0048154836204112
1001
_KTI_ARE
1070
 29000
1000
LEAF_G
  0
3DFACE
  5
B1
  8
0
  6
LEAF_G
 62
     3
 10
-0.0041942215234694
 20
-0.0001221253084845
 30
0.0070300600747533
 11
-0.004946289865399
 21
-0.0008105258857124
 31
0.005694957691639
 12
-0.0053449744261419
 22
-0.0011409475710449
 32
0.0048589776232968
 13
-0.0053630908348273
 23
-0.0003263768339326
 33
0.0048154836204112
1001
_KTI_ARE
1070
 29000
1000
LEAF_G
  0
3DFACE
  5
B2
  8
0
  6
LEAF_G
 62
     3
 10
-0.0041942215234694
 20
-0.0001221253084845
 30
0.0070300600747533
 11
-0.0051809942299203
 21
0.0002461563148077
 31
0.0057213779931129
 12
-0.0056908545422787
 22
0.0004162683034058
 32
0.0048979128044162
 13
-0.0053630908348273
 23
-0.0003263768339326
 33
0.0048154836204112
1001
_KTI_ARE
1070
 29000
1000
LEAF_G
  0
3DFACE
  5
B3
  8
0
  6
LEAF_G
 62
     3
 10
-0.0063532173682666
 20
-0.0004574125090232
 30
0.0012604918873274
 11
-0.0062724571566494
 21
0.0000741914198013
 31
0.002903133507046
 12
-0.0056908545422787
 22
0.0004162683034058
 32
0.0048979128044162
 13
-0.0053630908348273
 23
-0.0003263768339326
 33
0.0048154836204112
1001
_KTI_ARE
1070
 29000
1000
LEAF_G
  0
3DFACE
  5
B4
  8
0
  6
LEAF_G
 62
     3
 10
-0.0001351421921054
 20
-0.0002131912505019
 30
0.0091566377347072
 11
0.0000634118594601
 21
-0.0003751263606692
 31
0.0092436245818417
 12
-0.0001719491856067
 22
0.0001573451211717
 32
0.009544428194744
 13
-0.0003307396393903
 23
0.0004146602613336
 33
0.0094618899983485
1001
_KTI_ARE
1070
 29000
1000
LEAF_G
  0
3DFACE
  5
B5
  8
0
  6
LEAF_G
 62
     3
 10
0.0004250837412339
 20
-0.0011730038325192
 30
0.0085642864478235
 11
0.0002995753327465
 21
-0.0010957464876586
 31
0.0085055907813441
 12
-0.0001351421921054
 22
-0.0002131912505019
 32
0.0091566377347072
 13
0.0000634118594601
 23
-0.0003751263606692
 33
0.0092436245818417
1001
_KTI_ARE
1070
 29000
1000
LEAF_G
  0
3DFACE
  5
B6
  8
0
  6
LEAF_G
 62
     3
 10
0.0006770185487927
 20
-0.0018695168675326
 30
0.0075312226416052
 11
0.0007710539688463
 21
-0.0019245616686062
 31
0.0076115144028609
 12
0.0004250837412339
 22
-0.0011730038325192
 32
0.0085642864478235
 13
0.0002995753327465
 23
-0.0010957464876586
 33
0.0085055907813441
1001
_KTI_ARE
1070
 29000
1000
LEAF_G
  0
3DFACE
  5
B7
  8
0
  6
LEAF_G
 62
     3
 10
0.0008957489203754
 20
-0.0023826177174699
 30
0.0065973219617159
 11
0.0008606015068477
 21
-0.0023936829242965
 31
0.0062279798359699
 12
0.0006770185487927
 22
-0.0018695168675326
 32
0.0075312226416052
 13
0.0007710539688463
 23
-0.0019245616686062
 33
0.0076115144028609
1001
_KTI_ARE
1070
 29000
1000
LEAF_G
  0
3DFACE
  5
B8
  8
0
  6
LEAF_G
 62
     3
 10
-0.0001775632664107
 20
-0.0014180900465886
 30
0.0020407623918752
 11
0.0008632629529883
 21
-0.0019229920567072
 31
0.0030925834707745
 12
0.0014346294709044
 22
-0.0022330701731816
 32
0.0039207717219099
 13
0.0006658095832622
 23
-0.0024848808792482
 33
0.0040268507819844
1001
_KTI_ARE
1070
 29000
1000
LEAF_G
  0
3DFACE
  5
B9
  8
0
  6
LEAF_G
 62
     3
 10
0.0008970780863764
 20
-0.0023791345702241
 30
0.0066271070733683
 11
0.0013977458166775
 21
-0.0024022789830784
 31
0.0053669220509365
 12
0.0014346294709044
 22
-0.0022330701731816
 32
0.0039207717219099
 13
0.0006658095832622
 23
-0.0024848808792482
 33
0.0040268507819844
1001
_KTI_ARE
1070
 29000
1000
LEAF_G
  0
3DFACE
  5
BA
  8
0
  6
LEAF_G
 62
     3
 10
0.0008970780863764
 20
-0.0023791345702241
 30
0.0066271070733683
 11
0.00046593645574
 21
-0.0029436571882066
 31
0.0054718143663494
 12
0.0000614367284702
 22
-0.0030308906860021
 32
0.0040753498709394
 13
0.0006658095832622
 23
-0.0024848808792482
 33
0.0040268507819844
1001
_KTI_ARE
1070
 29000
1000
LEAF_G
  0
3DFACE
  5
BB
  8
0
  6
LEAF_G
 62
     3
 10
-0.0001775632664107
 20
-0.0014180900465886
 30
0.0020407623918752
 11
-0.0000685464079493
 21
-0.0024643702618354
 31
0.0031974757861874
 12
0.0000614367284702
 22
-0.0030308906860021
 32
0.0040753498709394
 13
0.0006658095832622
 23
-0.0024848808792482
 33
0.0040268507819844
1001
_KTI_ARE
1070
 29000
1000
LEAF_G
  0
3DFACE
  5
BC
  8
0
  6
LEAF_G
 62
     3
 10
0.0045738418787765
 20
0.0030810244415561
 30
0.0204663960364049
 11
0.0037431349851929
 21
0.0019873818937208
 31
0.020341195885495
 12
0.003208675640865
 22
0.0013976304499683
 32
0.0201399647643459
 13
0.002918971440505
 23
0.002157182749763
 33
0.0200699847780593
1001
_KTI_ARE
1070
 29000
1000
LEAF_G
  0
3DFACE
  5
BD
  8
0
  6
LEAF_G
 62
     3
 10
0.0013155247228545
 20
0.0013253421888055
 30
0.0187058656700391
 11
0.0022454223571814
 21
0.0011912551032529
 31
0.019363378132708
 12
0.003208675640865
 22
0.0013976304499683
 32
0.0201399647643459
 13
0.002918971440505
 23
0.002157182749763
 33
0.0200699847780593
1001
_KTI_ARE
1070
 29000
1000
LEAF_G
  0
3DFACE
  5
BE
  8
0
  6
LEAF_G
 62
     3
 10
0.0013155247228545
 20
0.0013253421888055
 30
0.0187058656700391
 11
0.0017074419718106
 21
0.0021289496606454
 31
0.0194239377392476
 12
0.0024158624413713
 22
0.0027794961134941
 32
0.0202292105002989
 13
0.002918971440505
 23
0.002157182749763
 33
0.0200699847780593
1001
_KTI_ARE
1070
 29000
1000
LEAF_G
  0
3DFACE
  5
BF
  8
0
  6
LEAF_G
 62
     3
 10
0.0045738418787765
 20
0.0030810244415561
 30
0.0204663960364049
 11
0.0032051545998222
 21
0.0029250764511133
 31
0.0204017554920345
 12
0.0024158624413713
 22
0.0027794961134941
 32
0.0202292105002989
 13
0.002918971440505
 23
0.002157182749763
 33
0.0200699847780593
1001
_KTI_ARE
1070
 29000
1000
LEAF_G
  0
3DFACE
  5
C0
  8
0
  6
LEAF_G
 62
     3
 10
0.0013134554953896
 20
0.0013245069925492
 30
0.0187004157534375
 11
0.0015210960174661
 21
0.0014243488915032
 31
0.0189990524829307
 12
0.0009199365049597
 22
0.0011088359767377
 32
0.0181478303326715
 13
0.0007917698087207
 23
0.0010856110230389
 33
0.0181846169712284
1001
_KTI_ARE
1070
 29000
1000
LEAF_G
  0
3DFACE
  5
C1
  8
0
  6
LEAF_G
 62
     3
 10
0.0009199365049597
 20
0.0011088359767377
 30
0.0181478303326715
 11
0.0007917698087207
 21
0.0010856110230389
 31
0.0181846169712284
 12
0.000485949887912
 22
0.0009347760422954
 32
0.017548422141943
 13
0.0006236980494546
 23
0.0009452918228274
 33
0.0174704407239585
1001
_KTI_ARE
1070
 29000
1000
LEAF_G
  0
3DFACE
  5
C2
  8
0
  6
LEAF_G
 62
     3
 10
0.000485949887912
 20
0.0009347760422954
 30
0.017548422141943
 11
0.0006236980494546
 21
0.0009452918228274
 31
0.0174704407239585
 12
0.0005171149802226
 22
0.0009368967080632
 32
0.01672679225937
 13
0.0002993963136019
 23
0.000896034931479
 33
0.0168821701866687
1001
_KTI_ARE
1070
 29000
1000
LEAF_G
  0
3DFACE
  5
C3
  8
0
  6
LEAF_G
 62
     3
 10
0.0005171149802226
 20
0.0009368967080632
 30
0.01672679225937
 11
0.0002993963136019
 21
0.000896034931479
 31
0.0168821701866687
 12
0.0002018444045157
 22
0.0009130880310175
 32
0.0163691752820267
 13
0.0003859801657044
 23
0.0010235973433366
 33
0.0162938354111353
1001
_KTI_ARE
1070
 29000
1000
LEAF_G
  0
3DFACE
  5
C4
  8
0
  6
LEAF_G
 62
     3
 10
0.0003162394789992
 20
0.00100047767308
 30
0.0174822931870206
 11
0.0002556064326242
 21
0.0008173687039688
 31
0.0176720513014471
 12
0.0001533419203444
 22
0.0008865194289054
 32
0.0170724126568434
 13
0.0001260436882756
 23
0.0010832042721543
 33
0.0168299092086294
1001
_KTI_ARE
1070
 29000
1000
LEAF_G
  0
3DFACE
  5
C5
  8
0
  6
LEAF_G
 62
     3
 10
0.000363112808172
 20
0.0009645736646865
 30
0.0184315159774747
 11
0.000416001340083
 21
0.0010761608726162
 31
0.0183319301480703
 12
0.0003162394789992
 22
0.00100047767308
 32
0.0174822931870206
 13
0.0002556064326242
 23
0.0008173687039688
 33
0.0176720513014471
1001
_KTI_ARE
1070
 29000
1000
LEAF_G
  0
3DFACE
  5
C6
  8
0
  6
LEAF_G
 62
     3
 10
0.0004986236694765
 20
0.0017727248616793
 30
0.0193549290167321
 11
0.0004592111158084
 21
0.0016568330875919
 31
0.0194126793811261
 12
0.000363112808172
 22
0.0009645736646865
 32
0.0184315159774747
 13
0.000416001340083
 23
0.0010761608726162
 33
0.0183319301480703
1001
_KTI_ARE
1070
 29000
1000
LEAF_G
  0
3DFACE
  5
C7
  8
0
  6
LEAF_G
 62
     3
 10
0.0005452125136535
 20
0.0023938249133069
 30
0.0199668894320691
 11
0.0005527136251613
 21
0.0026319537473468
 31
0.0200335254472322
 12
0.0004986236694765
 22
0.0017727248616793
 32
0.0193549290167321
 13
0.0004592111158084
 23
0.0016568330875919
 33
0.0194126793811261
1001
_KTI_ARE
1070
 29000
1000
LEAF_G
  0
3DFACE
  5
C8
  8
0
  6
LEAF_G
 62
     3
 10
0.0006163520538732
 20
0.0075619305040995
 30
0.0205988565046667
 11
0.0000995478376134
 21
0.0059314492270188
 31
0.0208475343020257
 12
-0.0001422530556994
 22
0.0049071758208289
 32
0.020991989310733
 13
0.0006316316864051
 23
0.0049315666217278
 33
0.0207345928984046
1001
_KTI_ARE
1070
 29000
1000
LEAF_G
  0
3DFACE
  5
C9
  8
0
  6
LEAF_G
 62
     3
 10
0.0005450748782528
 20
0.0023944969647682
 30
0.0199656667499849
 11
0.0000604407441865
 21
0.0035060672519904
 31
0.0205001270054017
 12
-0.0001422530556994
 22
0.0049071758208289
 32
0.020991989310733
 13
0.0006316316864051
 23
0.0049315666217278
 33
0.0207345928984046
1001
_KTI_ARE
1070
 29000
1000
LEAF_G
  0
3DFACE
  5
CA
  8
0
  6
LEAF_G
 62
     3
 10
0.0005450748782528
 20
0.0023944969647682
 30
0.0199656667499849
 11
0.0011364015149279
 21
0.0035060672519904
 31
0.0203790077923226
 12
0.0014433733432879
 22
0.0049071758208289
 32
0.020813497838827
 13
0.0006316316864051
 23
0.0049315666217278
 33
0.0207345928984046
1001
_KTI_ARE
1070
 29000
1000
LEAF_G
  0
3DFACE
  5
CB
  8
0
  6
LEAF_G
 62
     3
 10
0.0006163520538732
 20
0.0075619305040995
 30
0.0205988565046667
 11
0.0011755086083547
 21
0.0059314492270188
 31
0.0207264150889466
 12
0.0014433733432879
 22
0.0049071758208289
 32
0.020813497838827
 13
0.0006316316864051
 23
0.0049315666217278
 33
0.0207345928984046
1001
_KTI_ARE
1070
 29000
1000
LEAF_G
  0
3DFACE
  5
CC
  8
0
  6
LEAF_G
 62
     3
 10
-0.0002184708923794
 20
0.0005543369534488
 30
0.0168219579823707
 11
0.0000451832782745
 21
0.0006126384442286
 31
0.0168046138957118
 12
0.0000497662831067
 22
0.0006016999262227
 32
0.0163970437579522
 13
-0.0002221233474992
 23
0.0004469417091877
 33
0.0163779658528586
1001
_KTI_ARE
1070
 29000
1000
LEAF_G
  0
3DFACE
  5
CD
  8
0
  6
LEAF_G
 62
     3
 10
0.0000878156579932
 20
0.0006201635647201
 30
0.017457953647648
 11
-0.0000681339839232
 21
0.0006027374732567
 31
0.0174812405478687
 12
-0.0002184708923794
 22
0.0005543369534488
 32
0.0168219579823707
 13
0.0000451832782745
 23
0.0006126384442286
 33
0.0168046138957118
1001
_KTI_ARE
1070
 29000
1000
LEAF_G
  0
3DFACE
  5
CE
  8
0
  6
LEAF_G
 62
     3
 10
0.0000538993613266
 20
0.0005564821785073
 30
0.0187034818359769
 11
0.0001768679828241
 21
0.0005777336491724
 31
0.0186510752486333
 12
0.0000878156579932
 22
0.0006201635647201
 32
0.017457953647648
 13
-0.0000681339839232
 23
0.0006027374732567
 33
0.0174812405478687
1001
_KTI_ARE
1070
 29000
1000
LEAF_G
  0
3DFACE
  5
CF
  8
0
  6
LEAF_G
 62
     3
 10
0.0001192607281772
 20
0.0005122334459462
 30
0.0195730801834127
 11
0.0000292150267427
 21
0.0004463124407087
 31
0.0197938700371504
 12
0.0000538993613266
 22
0.0005564821785073
 32
0.0187034818359769
 13
0.0001768679828241
 23
0.0005777336491724
 33
0.0186510752486333
1001
_KTI_ARE
1070
 29000
1000
LEAF_G
  0
3DFACE
  5
D0
  8
0
  6
LEAF_G
 62
     3
 10
-0.0023755066420313
 20
-0.0011929505901017
 30
0.0238136275283155
 11
-0.0010622147458574
 21
-0.0009931942826103
 31
0.0227078435291478
 12
-0.0002803629533292
 22
-0.00079607264088
 32
0.022016235428373
 13
-0.0008021458654832
 23
-0.0001708814008841
 33
0.0219650111731155
1001
_KTI_ARE
1070
 29000
1000
LEAF_G
  0
3DFACE
  5
D1
  8
0
  6
LEAF_G
 62
     3
 10
0.0001180701146939
 20
0.0005115717997877
 30
0.01957274820142
 11
0.0000748350166194
 21
-0.0002100897569913
 31
0.0206833524674479
 12
-0.0002803629533292
 22
-0.00079607264088
 32
0.022016235428373
 13
-0.0008021458654832
 23
-0.0001708814008841
 33
0.0219650111731155
1001
_KTI_ARE
1070
 29000
1000
LEAF_G
  0
3DFACE
  5
D2
  8
0
  6
LEAF_G
 62
     3
 10
0.0001180701146939
 20
0.0005115717997877
 30
0.01957274820142
 11
-0.0004631453687512
 21
0.0007276048004012
 31
0.0207439120739874
 12
-0.0010731761528228
 22
0.0005857930226458
 32
0.022105481164326
 13
-0.0008021458654832
 23
-0.0001708814008841
 33
0.0219650111731155
1001
_KTI_ARE
1070
 29000
1000
LEAF_G
  0
3DFACE
  5
D3
  8
0
  6
LEAF_G
 62
     3
 10
-0.0023755066420313
 20
-0.0011929505901017
 30
0.0238136275283155
 11
-0.0016001951312281
 21
-0.0000554997252178
 31
0.0227684031356873
 12
-0.0010731761528228
 22
0.0005857930226458
 32
0.022105481164326
 13
-0.0008021458654832
 23
-0.0001708814008841
 33
0.0219650111731155
1001
_KTI_ARE
1070
 29000
1000
LEAF_G
  0
3DFACE
  5
D4
  8
0
  6
LEAF_G
 62
     3
 10
-0.0005671524087746
 20
0.001685652409477
 30
0.022425451758954
 11
0.0002900987680781
 21
0.0017493096407107
 31
0.0213470866909147
 12
0.0006788739933779
 22
0.0017757070135591
 32
0.0206245186850036
 13
0.000136938026892
 23
0.0011700655365747
 33
0.0206969702405115
1001
_KTI_ARE
1070
 29000
1000
LEAF_G
  0
3DFACE
  5
D5
  8
0
  6
LEAF_G
 62
     3
 10
0.000119025712318
 20
0.0010344192963267
 30
0.0184375233430259
 11
0.0004850772407979
 21
0.001512563038272
 31
0.0194134313489054
 12
0.0006788739933779
 22
0.0017757070135591
 32
0.0206245186850036
 13
0.000136938026892
 23
0.0011700655365747
 33
0.0206969702405115
1001
_KTI_ARE
1070
 29000
1000
LEAF_G
  0
3DFACE
  5
D6
  8
0
  6
LEAF_G
 62
     3
 10
0.000119025712318
 20
0.0010344192963267
 30
0.0184375233430259
 11
-0.0000529031445728
 21
0.0005748684808795
 31
0.019473990955445
 12
-0.0001139392061157
 22
0.0003938413500333
 32
0.0207137644209566
 13
0.000136938026892
 23
0.0011700655365747
 33
0.0206969702405115
1001
_KTI_ARE
1070
 29000
1000
LEAF_G
  0
3DFACE
  5
D7
  8
0
  6
LEAF_G
 62
     3
 10
-0.0005671524087746
 20
0.001685652409477
 30
0.022425451758954
 11
-0.0002478816172926
 21
0.0008116150833182
 31
0.0214076462974542
 12
-0.0001139392061157
 22
0.0003938413500333
 32
0.0207137644209566
 13
0.000136938026892
 23
0.0011700655365747
 33
0.0206969702405115
1001
_KTI_ARE
1070
 29000
1000
LEAF_G
  0
3DFACE
  5
D8
  8
0
  6
LEAF_G
 62
     3
 10
0.000116366816285
 20
0.0010356143060034
 30
0.0184324064035295
 11
0.0001131734535359
 21
0.0010547484794963
 31
0.0187003084714117
 12
-0.0000251622152906
 22
0.0010975220488421
 32
0.017737525985953
 13
0.0000395643185993
 23
0.0010030443189351
 33
0.0176653886749577
1001
_KTI_ARE
1070
 29000
1000
LEAF_G
  0
3DFACE
  5
D9
  8
0
  6
LEAF_G
 62
     3
 10
-0.0000251622152906
 20
0.0010975220488421
 30
0.017737525985953
 11
0.0000395643185993
 21
0.0010030443189351
 31
0.0176653886749577
 12
0.0000073509196474
 22
0.000998807835301
 32
0.0170586734611575
 13
-0.0000774634169374
 23
0.001124098807977
 33
0.0171063697888464
1001
_KTI_ARE
1070
 29000
1000
LEAF_G
  0
3DFACE
  5
DA
  8
0
  6
LEAF_G
 62
     3
 10
0.0000073509196474
 20
0.000998807835301
 30
0.0170586734611575
 11
-0.0000774634169374
 21
0.001124098807977
 31
0.0171063697888464
 12
-0.0000939621949136
 22
0.0011146821592725
 32
0.0168871895280367
 13
0.0000790361473436
 23
0.0009171299674417
 33
0.0168219353484657
1001
_KTI_ARE
1070
 29000
1000
LEAF_G
  0
3DFACE
  5
DB
  8
0
  6
LEAF_G
 62
     3
 10
0.0001883340201058
 20
0.0004217669376246
 30
0.0168799714453931
 11
0.0001250893339662
 21
0.0002764783109683
 31
0.0168875585290798
 12
0.000105756287017
 22
0.0003444574390554
 32
0.0166792176038723
 13
0.0001891324715755
 23
0.000601578054398
 33
0.0166914978272691
1001
_KTI_ARE
1070
 29000
1000
LEAF_G
  0
3DFACE
  5
DC
  8
0
  6
LEAF_G
 62
     3
 10
0.0002255546118503
 20
0.0001105084888417
 30
0.017491015761242
 11
0.0002670989980428
 21
0.0002333377591249
 31
0.017452203500125
 12
0.0001883340201058
 22
0.0004217669376246
 32
0.0168799714453931
 13
0.0001250893339662
 23
0.0002764783109683
 33
0.0168875585290798
1001
_KTI_ARE
1070
 29000
1000
LEAF_G
  0
3DFACE
  5
DD
  8
0
  6
LEAF_G
 62
     3
 10
0.0003263805310371
 20
0.0000109339190541
 30
0.0181886122557895
 11
0.0003540112609064
 21
-0.0000945892725197
 31
0.0184340694433874
 12
0.0002255546118503
 22
0.0001105084888417
 32
0.017491015761242
 13
0.0002670989980428
 23
0.0002333377591249
 33
0.017452203500125
1001
_KTI_ARE
1070
 29000
1000
LEAF_G
  0
3DFACE
  5
DE
  8
0
  6
LEAF_G
 62
     3
 10
0.0007094789914117
 20
-0.002248554283629
 30
0.0215918618659512
 11
0.001165378452886
 21
-0.001214004018598
 31
0.0208021375637907
 12
0.0013585947379568
 22
-0.0006619398449334
 32
0.0202260818932119
 13
0.0005620910072954
 23
-0.0008296878279628
 33
0.0202825428491233
1001
_KTI_ARE
1070
 29000
1000
LEAF_G
  0
3DFACE
  5
DF
  8
0
  6
LEAF_G
 62
     3
 10
0.000327031176358
 20
0.0000118553998289
 30
0.0181943922540508
 11
0.0009737147982526
 21
-0.0002667098661926
 31
0.0190994962708043
 12
0.0013585947379568
 22
-0.0006619398449334
 32
0.0202260818932119
 13
0.0005620910072954
 23
-0.0008296878279628
 33
0.0202825428491233
1001
_KTI_ARE
1070
 29000
1000
LEAF_G
  0
3DFACE
  5
E0
  8
0
  6
LEAF_G
 62
     3
 10
0.000327031176358
 20
0.0000118553998289
 30
0.0181943922540508
 11
-0.0001022459724888
 21
-0.0002667098661926
 31
0.0192206154838834
 12
-0.0002270316610305
 22
-0.0006619398449334
 32
0.020404573365118
 13
0.0005620910072954
 23
-0.0008296878279628
 33
0.0202825428491233
1001
_KTI_ARE
1070
 29000
1000
LEAF_G
  0
3DFACE
  5
E1
  8
0
  6
LEAF_G
 62
     3
 10
0.0007094789914117
 20
-0.002248554283629
 30
0.0215918618659512
 11
0.0000894176821446
 21
-0.0012140040185981
 31
0.0209232567768698
 12
-0.0002270316610305
 22
-0.0006619398449334
 32
0.020404573365118
 13
0.0005620910072954
 23
-0.0008296878279628
 33
0.0202825428491233
1001
_KTI_ARE
1070
 29000
1000
LEAF_G
  0
3DFACE
  5
E2
  8
0
  6
LEAF_G
 62
     3
 10
0.000086184543665
 20
0.0014475201235731
 30
0.0000916918829962
 11
-0.0006479641931846
 21
0.0000695942467998
 31
0.0000916918829962
 12
-0.0003272847077887
 22
0.0001345150370982
 32
0.0037135212613474
 13
0.0002899626133834
 23
0.0012537657667271
 33
0.0037135212613474
1001
_KTI_ARE
1070
 29000
1000
LEAF_G
  0
3DFACE
  5
E3
  8
0
  6
LEAF_G
 62
     3
 10
-0.0003272847077887
 20
0.0001345150370982
 30
0.0037135212613474
 11
0.0002899626133834
 21
0.0012537657667271
 31
0.0037135212613474
 12
-0.0000077736540886
 22
0.0013530572010509
 32
0.0060058183362531
 13
-0.0005689901077933
 23
0.0004715251391806
 33
0.0060058183362531
1001
_KTI_ARE
1070
 29000
1000
LEAF_G
  0
3DFACE
  5
E4
  8
0
  6
LEAF_G
 62
     3
 10
-0.0000077736540886
 20
0.0013530572010509
 30
0.0060058183362531
 11
-0.0005689901077933
 21
0.0004715251391806
 31
0.0060058183362531
 12
-0.0005105301280149
 22
0.0002643566176951
 32
0.0084356532356532
 13
0.0001646850163786
 23
0.0011927359936626
 33
0.0084356532356532
1001
_KTI_ARE
1070
 29000
1000
LEAF_G
  0
3DFACE
  5
E5
  8
0
  6
LEAF_G
 62
     3
 10
-0.0005105301280149
 20
0.0002643566176951
 30
0.0084356532356532
 11
0.0001646850163786
 21
0.0011927359936626
 31
0.0084356532356532
 12
0.000086184543665
 22
0.0010062556163528
 32
0.0100861071295854
 13
-0.0006479641931846
 23
0.0001476960619671
 33
0.0100861071295854
1001
_KTI_ARE
1070
 29000
1000
LEAF_G
  0
3DFACE
  5
E6
  8
0
  6
LEAF_G
 62
     3
 10
0.000086184543665
 20
0.0010062556163528
 30
0.0100861071295854
 11
-0.0006479641931846
 21
0.0001476960619671
 31
0.0100861071295854
 12
-0.0004189074179018
 22
0.0002643566176951
 32
0.0116907150820194
 13
0.000227323814881
 23
0.0011258696947472
 33
0.0116907150820194
1001
_KTI_ARE
1070
 29000
1000
LEAF_G
  0
3DFACE
  5
E7
  8
0
  6
LEAF_G
 62
     3
 10
-0.0004189074179018
 20
0.0002643566176951
 30
0.0116907150820194
 11
0.000227323814881
 21
0.0011258696947472
 31
0.0116907150820194
 12
0.0003526014118858
 22
0.0006600884120647
 32
0.0162749337098763
 13
-0.0002356619976755
 23
0.0004933557106963
 33
0.0165041112615399
1001
_KTI_ARE
1070
 29000
1000
LEAF_G
  0
3DFACE
  5
E8
  8
0
  6
LEAF_G
 62
     3
 10
0.0002267147710117
 20
0.0001251681240956
 30
0.0117164303355146
 11
0.000227323814881
 21
0.0011258696947472
 31
0.0116907150820194
 12
0.0003526014118858
 22
0.0006600884120647
 32
0.0162749337098763
 13
0.0002356619976756
 23
0.0004228669449971
 33
0.0164926941086183
1001
_KTI_ARE
1070
 29000
1000
LEAF_G
  0
3DFACE
  5
E9
  8
0
  6
LEAF_G
 62
     3
 10
0.000086184543665
 20
0.0010062556163528
 30
0.0100861071295854
 11
0.0004647187729584
 21
0.0000085075683676
 31
0.0100402611880873
 12
0.0002267147710117
 22
0.0001251681240956
 32
0.0117164303355146
 13
0.000227323814881
 23
0.0011258696947472
 33
0.0116907150820194
1001
_KTI_ARE
1070
 29000
1000
LEAF_G
  0
3DFACE
  5
EA
  8
0
  6
LEAF_G
 62
     3
 10
0.000189850642619
 20
0.0001251681240956
 30
0.008343961352657
 11
0.0001646850163786
 21
0.0011927359936626
 31
0.0084356532356532
 12
0.000086184543665
 22
0.0010062556163528
 32
0.0100861071295854
 13
0.0004647187729584
 23
0.0000085075683676
 33
0.0100402611880873
1001
_KTI_ARE
1070
 29000
1000
LEAF_G
  0
3DFACE
  5
EB
  8
0
  6
LEAF_G
 62
     3
 10
-0.0000077736540886
 20
0.0013530572010509
 30
0.0060058183362531
 11
0.0004189074179018
 21
0.0002550097046925
 31
0.0059141264532569
 12
0.000189850642619
 22
0.0001251681240956
 32
0.008343961352657
 13
0.0001646850163786
 23
0.0011927359936626
 33
0.0084356532356532
1001
_KTI_ARE
1070
 29000
1000
LEAF_G
  0
3DFACE
  5
EC
  8
0
  6
LEAF_G
 62
     3
 10
0.0003730960628452
 20
-0.0000046734565013
 30
0.0036676753198492
 11
0.0002899626133834
 21
0.0012537657667271
 31
0.0037135212613474
 12
-0.0000077736540886
 22
0.0013530572010509
 32
0.0060058183362531
 13
0.0004189074179018
 23
0.0002550097046925
 33
0.0059141264532569
1001
_KTI_ARE
1070
 29000
1000
LEAF_G
  0
3DFACE
  5
ED
  8
0
  6
LEAF_G
 62
     3
 10
0.000086184543665
 20
0.0014475201235731
 30
0.0000916918829962
 11
0.0006479641931846
 21
-0.0000695942467998
 31
-0.0000916918829962
 12
0.0003730960628452
 22
-0.0000046734565013
 32
0.0036676753198492
 13
0.0002899626133834
 23
0.0012537657667271
 33
0.0037135212613474
1001
_KTI_ARE
1070
 29000
1000
LEAF_G
  0
3DFACE
  5
EE
  8
0
  6
LEAF_G
 62
     3
 10
0.0002267147710117
 20
0.0001251681240956
 30
0.0117164303355146
 11
-0.0004189074179018
 21
0.0002643566176951
 31
0.0116907150820194
 12
-0.0002356619976755
 22
0.0004933557106963
 32
0.0165041112615399
 13
0.0002356619976756
 23
0.0004228669449971
 33
0.0164926941086183
1001
_KTI_ARE
1070
 29000
1000
LEAF_G
  0
3DFACE
  5
EF
  8
0
  6
LEAF_G
 62
     3
 10
-0.0006479641931846
 20
0.0001476960619671
 30
0.0100861071295854
 11
0.0004647187729584
 21
0.0000085075683676
 31
0.0100402611880873
 12
0.0002267147710117
 22
0.0001251681240956
 32
0.0117164303355146
 13
-0.0004189074179018
 23
0.0002643566176951
 33
0.0116907150820194
1001
_KTI_ARE
1070
 29000
1000
LEAF_G
  0
3DFACE
  5
F0
  8
0
  6
LEAF_G
 62
     3
 10
0.000189850642619
 20
0.0001251681240956
 30
0.008343961352657
 11
-0.0005105301280149
 21
0.0002643566176951
 31
0.0084356532356532
 12
-0.0006479641931846
 22
0.0001476960619671
 32
0.0100861071295854
 13
0.0004647187729584
 23
0.0000085075683676
 33
0.0100402611880873
1001
_KTI_ARE
1070
 29000
1000
LEAF_G
  0
3DFACE
  5
F1
  8
0
  6
LEAF_G
 62
     3
 10
-0.0005689901077933
 20
0.0004715251391806
 30
0.0060058183362531
 11
0.0004189074179018
 21
0.0002550097046925
 31
0.0059141264532569
 12
0.000189850642619
 22
0.0001251681240956
 32
0.008343961352657
 13
-0.0005105301280149
 23
0.0002643566176951
 33
0.0084356532356532
1001
_KTI_ARE
1070
 29000
1000
LEAF_G
  0
3DFACE
  5
F2
  8
0
  6
LEAF_G
 62
     3
 10
0.0003730960628452
 20
-0.0000046734565013
 30
0.0036676753198492
 11
-0.0003272847077887
 21
0.0001345150370982
 31
0.0037135212613474
 12
-0.0005689901077933
 22
0.0004715251391806
 32
0.0060058183362531
 13
0.0004189074179018
 23
0.0002550097046925
 33
0.0059141264532569
1001
_KTI_ARE
1070
 29000
1000
LEAF_G
  0
3DFACE
  5
F3
  8
0
  6
LEAF_G
 62
     3
 10
-0.0006479641931846
 20
0.0000695942467998
 30
0.0000916918829962
 11
0.0006479641931846
 21
-0.0000695942467998
 31
-0.0000916918829962
 12
0.0003730960628452
 22
-0.0000046734565013
 32
0.0036676753198492
 13
-0.0003272847077887
 23
0.0001345150370982
 33
0.0037135212613474
1001
_KTI_ARE
1070
 29000
1000
LEAF_G
  0
3DFACE
  5
F4
  8
0
  6
LEAF_G
 62
     3
 10
-0.001869484659461
 20
0.0042352638089429
 30
0.022356342401944
 11
-0.00046073835773
 21
0.0033420385111649
 31
0.0213080995267849
 12
0.0002508582706971
 22
0.0028422093039268
 32
0.0205212042957741
 13
-0.0008560086196995
 23
0.0024798718158223
 33
0.0204740730889305
1001
_KTI_ARE
1070
 29000
1000
LEAF_G
  0
3DFACE
  5
F5
  8
0
  6
LEAF_G
 62
     3
 10
-0.000254906314134
 20
0.001438732082036
 30
0.0174721600825967
 11
0.0002159003225596
 21
0.0021700659385369
 31
0.0188603924243384
 12
0.0002508582706971
 22
0.0028422093039268
 32
0.0205212042957741
 13
-0.0008560086196995
 23
0.0024798718158223
 33
0.0204740730889305
1001
_KTI_ARE
1070
 29000
1000
LEAF_G
  0
3DFACE
  5
F6
  8
0
  6
LEAF_G
 62
     3
 10
-0.000254906314134
 20
0.001438732082036
 30
0.0174721600825967
 11
-0.0011236633308582
 21
0.0013966685026395
 31
0.0188603924243384
 12
-0.0017232355343397
 22
0.0017024657141832
 32
0.0205212042957741
 13
-0.0008560086196995
 23
0.0024798718158223
 33
0.0204740730889305
1001
_KTI_ARE
1070
 29000
1000
LEAF_G
  0
3DFACE
  5
F7
  8
0
  6
LEAF_G
 62
     3
 10
-0.001869484659461
 20
0.0042352638089429
 30
0.022356342401944
 11
-0.0018003020111479
 21
0.0025686410752675
 31
0.0213080995267849
 12
-0.0017232355343397
 22
0.0017024657141832
 32
0.0205212042957741
 13
-0.0008560086196995
 23
0.0024798718158223
 33
0.0204740730889305
1001
_KTI_ARE
1070
 29000
1000
LEAF_G
  0
3DFACE
  5
F8
  8
0
  6
LEAF_G
 62
     3
 10
-0.0002555645146874
 20
0.0014398721188361
 30
0.0174638507911127
 11
-0.0003309382229544
 21
0.0015704232111094
 31
0.0178167185994435
 12
-0.0001570256309024
 22
0.0013325081279969
 32
0.016457426802031
 13
-0.0001257370553811
 23
0.0011479568461757
 33
0.0164089676146746
1001
_KTI_ARE
1070
 29000
1000
LEAF_G
  0
3DFACE
  5
F9
  8
0
  6
LEAF_G
 62
     3
 10
-0.0001570256309024
 20
0.0013325081279969
 30
0.016457426802031
 11
-0.0001257370553811
 21
0.0011479568461757
 31
0.0164089676146746
 12
0.0000264969597658
 22
0.0009250216617148
 32
0.0155840370566554
 13
0.0000015232928278
 23
0.0011502671875576
 33
0.0155847010469119
1001
_KTI_ARE
1070
 29000
1000
LEAF_G
  0
3DFACE
  5
FA
  8
0
  6
LEAF_G
 62
     3
 10
0.0000264969597658
 20
0.0009250216617148
 30
0.0155840370566554
 11
0.0000015232928278
 21
0.0011502671875576
 31
0.0155847010469119
 12
0.000045015162441
 22
0.0010632407504711
 32
0.0152858496765303
 13
0.0001278683699133
 23
0.0006869370535877
 33
0.0153166064908363
1001
_KTI_ARE
1070
 29000
1000
LEAF_G
  0
3DFACE
  5
FB
  8
0
  6
LEAF_G
 62
     3
 10
0.0006859033944072
 20
0.0003538595225265
 30
0.0158088018016461
 11
0.0008862697549913
 21
0.000262864589599
 31
0.0158629582007452
 12
0.0008694943453049
 22
0.0002687127441992
 32
0.01554917217529
 13
0.0005066682613332
 23
0.0003851116101849
 33
0.0154841826015891
1001
_KTI_ARE
1070
 29000
1000
LEAF_G
  0
3DFACE
  5
FC
  8
0
  6
LEAF_G
 62
     3
 10
0.0008903342590283
 20
0.0003090515150724
 30
0.0167673088036415
 11
0.0007332911229415
 21
0.0003742304547333
 31
0.0166752457673459
 12
0.0006859033944072
 22
0.0003538595225265
 32
0.0158088018016461
 13
0.0008862697549913
 23
0.000262864589599
 33
0.0158629582007452
1001
_KTI_ARE
1070
 29000
1000
LEAF_G
  0
3DFACE
  5
FD
  8
0
  6
LEAF_G
 62
     3
 10
0.000768283375934
 20
0.0003407066962712
 30
0.0177763815043844
 11
0.0008229524430565
 21
0.0003407066962712
 31
0.0181561864106822
 12
0.0008903342590283
 22
0.0003090515150724
 32
0.0167673088036415
 13
0.0007332911229415
 23
0.0003742304547333
 33
0.0166752457673459
1001
_KTI_ARE
1070
 29000
1000
LEAF_G
  0
3DFACE
  5
FE
  8
0
  6
LEAF_G
 62
     3
 10
0.0026255351001443
 20
0.0003407066962712
 30
0.0233357018881901
 11
0.0014678492502512
 21
0.0011141041321687
 31
0.0219418401376359
 12
0.0009087401639133
 22
0.0014804502860148
 32
0.0209782060640783
 13
0.0011524297489948
 23
0.0003407066962712
 33
0.020994455825981
1001
_KTI_ARE
1070
 29000
1000
LEAF_G
  0
3DFACE
  5
FF
  8
0
  6
LEAF_G
 62
     3
 10
0.0007648690625719
 20
0.0003407066962712
 30
0.0177840704380626
 11
0.0007914303861405
 21
0.0011141041321687
 31
0.0192279707239945
 12
0.0009087401639133
 22
0.0014804502860148
 32
0.0209782060640783
 13
0.0011524297489948
 23
0.0003407066962712
 33
0.020994455825981
1001
_KTI_ARE
1070
 29000
1000
LEAF_G
  0
3DFACE
  5
100
  8
0
  6
LEAF_G
 62
     3
 10
0.0007648690625719
 20
0.0003407066962712
 30
0.0177840704380626
 11
0.0007914303861405
 21
-0.0004326907396262
 31
0.0192279707239945
 12
0.0009087401639133
 22
-0.0007990368934724
 32
0.0209782060640783
 13
0.0011524297489948
 23
0.0003407066962712
 33
0.020994455825981
1001
_KTI_ARE
1070
 29000
1000
LEAF_G
  0
3DFACE
  5
101
  8
0
  6
LEAF_G
 62
     3
 10
0.0026255351001443
 20
0.0003407066962712
 30
0.0233357018881901
 11
0.0014678492502512
 21
-0.0004326907396262
 31
0.0219418401376359
 12
0.0009087401639133
 22
-0.0007990368934724
 32
0.0209782060640783
 13
0.0011524297489948
 23
0.0003407066962712
 33
0.020994455825981
1001
_KTI_ARE
1070
 29000
1000
LEAF_G
  0
3DFACE
  5
102
  8
0
  6
LEAF_G
 62
     3
 10
0.0029847208192704
 20
0.0052965461441745
 30
0.0250173836944616
 11
0.0026993546657112
 21
0.0032554825956547
 31
0.023657474441101
 12
0.0024177523203821
 22
0.0020350407183219
 32
0.02280060592986
 13
0.0015246219775308
 23
0.0027675807662092
 33
0.0226445053599692
1001
_KTI_ARE
1070
 29000
1000
LEAF_G
  0
3DFACE
  5
103
  8
0
  6
LEAF_G
 62
     3
 10
0.000549688833714
 20
0.0010789470271356
 30
0.0193954890370608
 11
0.0015806339148269
 21
0.0013178014156415
 31
0.0209651997306443
 12
0.0024177523203821
 22
0.0020350407183219
 32
0.02280060592986
 13
0.0015246219775308
 23
0.0027675807662092
 33
0.0226445053599692
1001
_KTI_ARE
1070
 29000
1000
LEAF_G
  0
3DFACE
  5
104
  8
0
  6
LEAF_G
 62
     3
 10
0.000549688833714
 20
0.0010789470271356
 30
0.0193954890370608
 11
0.0002410702614091
 21
0.0020911988515389
 31
0.0209651997306443
 12
0.0004436585153453
 22
0.0031747843080655
 32
0.02280060592986
 13
0.0015246219775308
 23
0.0027675807662092
 33
0.0226445053599692
1001
_KTI_ARE
1070
 29000
1000
LEAF_G
  0
3DFACE
  5
105
  8
0
  6
LEAF_G
 62
     3
 10
0.0029847208192704
 20
0.0052965461441745
 30
0.0250173836944616
 11
0.0013597910122934
 21
0.0040288800315521
 31
0.023657474441101
 12
0.0004436585153453
 22
0.0031747843080655
 32
0.02280060592986
 13
0.0015246219775308
 23
0.0027675807662092
 33
0.0226445053599692
1001
_KTI_ARE
1070
 29000
1000
LEAF_G
  0
3DFACE
  5
106
  8
0
  6
LEAF_G
 62
     3
 10
0.0005487436249162
 20
0.0010773098774739
 30
0.0193961505837844
 11
0.0006429164895411
 21
0.0012404220636987
 31
0.0196951954956588
 12
0.0005403595319879
 22
0.0009994778401493
 32
0.0181512191733803
 13
0.0003971070531045
 23
0.0008817151477348
 33
0.0180964732238654
1001
_KTI_ARE
1070
 29000
1000
LEAF_G
  0
3DFACE
  5
107
  8
0
  6
LEAF_G
 62
     3
 10
0.0005403595319879
 20
0.0009994778401493
 30
0.0181512191733803
 11
0.0003971070531045
 21
0.0008817151477348
 31
0.0180964732238654
 12
0.0003717763776161
 22
0.0007970992663853
 32
0.0163884805849879
 13
0.0005542786410541
 23
0.0009312125933012
 33
0.016396617612647
1001
_KTI_ARE
1070
 29000
1000
LEAF_G
  0
3DFACE
  5
108
  8
0
  6
LEAF_G
 62
     3
 10
0.0003717763776161
 20
0.0007970992663853
 30
0.0163884805849879
 11
0.0005542786410541
 21
0.0009312125933012
 31
0.016396617612647
 12
0.0006132929398817
 22
0.001045124666444
 32
0.015436672290997
 13
0.00032839634608
 23
0.0007844670230475
 33
0.0154541831928022
1001
_KTI_ARE
1070
 29000
1000
LEAF_G
  0
3DFACE
  5
109
  8
0
  6
LEAF_G
 62
     3
 10
0.0006132929398817
 20
0.001045124666444
 30
0.015436672290997
 11
0.00032839634608
 21
0.0007844670230475
 31
0.0154541831928022
 12
0.0002585437563774
 22
0.0007621814867655
 32
0.0148763268129876
 13
0.0004796269235704
 23
0.0011451087650419
 33
0.0148057950069605
1001
_KTI_ARE
1070
 29000
1000
LEAF_G
  0
3DFACE
  5
10A
  8
0
  6
LEAF_G
 62
     3
 10
0.0051150708380554
 20
-0.0079153041460411
 30
0.0209317847174461
 11
0.0032806595277174
 21
-0.0062848054263516
 31
0.0212022223214586
 12
0.0022317705903437
 22
-0.0052007688030157
 32
0.0213686509810108
 13
0.0032362394935042
 23
-0.0046610727984254
 33
0.0211269185582504
1001
_KTI_ARE
1070
 29000
1000
LEAF_G
  0
3DFACE
  5
10B
  8
0
  6
LEAF_G
 62
     3
 10
0.0014240468813902
 20
-0.0015222631211431
 30
0.0200215148525512
 11
0.0015482438312685
 21
-0.0032841734202723
 31
0.0207027916363865
 12
0.0022317705903437
 22
-0.0052007688030157
 32
0.0213686509810108
 13
0.0032362394935042
 23
-0.0046610727984254
 33
0.0211269185582504
1001
_KTI_ARE
1070
 29000
1000
LEAF_G
  0
3DFACE
  5
10C
  8
0
  6
LEAF_G
 62
     3
 10
0.0014240468813902
 20
-0.0015222631211431
 30
0.0200215148525512
 11
0.0028878074846864
 21
-0.0025107759843749
 31
0.0207027916363865
 12
0.0042058643953805
 22
-0.0040610252132721
 32
0.0213686509810108
 13
0.0032362394935042
 23
-0.0046610727984254
 33
0.0211269185582504
1001
_KTI_ARE
1070
 29000
1000
LEAF_G
  0
3DFACE
  5
10D
  8
0
  6
LEAF_G
 62
     3
 10
0.0051150708380554
 20
-0.0079153041460411
 30
0.0209317847174461
 11
0.0046202231811352
 21
-0.0055114079904541
 31
0.0212022223214586
 12
0.0042058643953805
 22
-0.0040610252132721
 32
0.0213686509810108
 13
0.0032362394935042
 23
-0.0046610727984254
 33
0.0211269185582504
1001
_KTI_ARE
1070
 29000
1000
LEAF_G
  0
3DFACE
  5
10E
  8
0
  6
LEAF_G
 62
     3
 10
0.0014235668446321
 20
-0.0015214316730886
 30
0.0200232725731197
 11
0.0015936588689463
 21
-0.001816039701163
 31
0.0201190681163534
 12
0.0009525097595328
 22
-0.000768847230829
 32
0.0191470852555296
 13
0.000926176538437
 23
-0.0005928788746423
 33
0.019222769748703
1001
_KTI_ARE
1070
 29000
1000
LEAF_G
  0
3DFACE
  5
10F
  8
0
  6
LEAF_G
 62
     3
 10
0.0009525097595328
 20
-0.000768847230829
 30
0.0191470852555296
 11
0.000926176538437
 21
-0.0005928788746423
 31
0.019222769748703
 12
0.0004140637772862
 22
0.0002533845824618
 32
0.0178145481377625
 13
0.0004149650022765
 23
0.0000698337491344
 33
0.0176816272920915
1001
_KTI_ARE
1070
 29000
1000
LEAF_G
  0
3DFACE
  5
110
  8
0
  6
LEAF_G
 62
     3
 10
0.0004140637772862
 20
0.0002533845824618
 30
0.0178145481377625
 11
0.0004149650022765
 21
0.0000698337491344
 31
0.0176816272920915
 12
0.0003659702244854
 22
0.0001663915027746
 32
0.0164595358795801
 13
0.000335982478607
 23
0.0004511295342119
 33
0.016719228190697
1001
_KTI_ARE
1070
 29000
1000
LEAF_G
  0
3DFACE
  5
111
  8
0
  6
LEAF_G
 62
     3
 10
0.0003659702244854
 20
0.0001663915027746
 30
0.0164595358795801
 11
0.000335982478607
 21
0.0004511295342119
 31
0.016719228190697
 12
0.00042811537556
 22
0.0003902533737637
 32
0.0158516358003883
 13
0.0005686045493092
 23
0.0001469189869167
 33
0.0155030142704124
1001
_KTI_ARE
1070
 29000
1000
LEAF_G
  0
3DFACE
  5
112
  8
0
  6
LEAF_G
 62
     3
 10
-0.0000309601863652
 20
0.0000421050154141
 30
0.0154191231616236
 11
0.0002290225300142
 21
0.0002596105573017
 31
0.0156049064610211
 12
0.0002901400032416
 22
0.0002667664280386
 32
0.014861067076244
 13
0.0001322695570715
 23
-0.0000066732057415
 33
0.0147835395911008
1001
_KTI_ARE
1070
 29000
1000
LEAF_G
  0
3DFACE
  5
113
  8
0
  6
LEAF_G
 62
     3
 10
0.0001195478823239
 20
0.0001324990806782
 30
0.0165805330884719
 11
-0.000053082508355
 21
0.0000154843389468
 31
0.0164918427830991
 12
-0.0000309601863652
 22
0.0000421050154141
 32
0.0154191231616236
 13
0.0002290225300142
 23
0.0002596105573017
 33
0.0156049064610211
1001
_KTI_ARE
1070
 29000
1000
LEAF_G
  0
3DFACE
  5
114
  8
0
  6
LEAF_G
 62
     3
 10
-0.0002067189123758
 20
-0.0003429955696563
 30
0.0175008084283643
 11
-0.0000606471720156
 21
-0.0002203497731241
 31
0.0175325495480729
 12
0.0001195478823239
 22
0.0001324990806782
 32
0.0165805330884719
 13
-0.000053082508355
 23
0.0000154843389468
 33
0.0164918427830991
1001
_KTI_ARE
1070
 29000
1000
LEAF_G
  0
3DFACE
  5
115
  8
0
  6
LEAF_G
 62
     3
 10
-0.0004599919813759
 20
-0.0008449877557509
 30
0.0183481470746945
 11
-0.000602623265596
 21
-0.0010920323867689
 31
0.0188052749053635
 12
-0.0002067189123758
 22
-0.0003429955696563
 32
0.0175008084283643
 13
-0.0000606471720156
 23
-0.0002203497731241
 33
0.0175325495480729
1001
_KTI_ARE
1070
 29000
1000
LEAF_G
  0
3DFACE
  5
116
  8
0
  6
LEAF_G
 62
     3
 10
-0.0029693026228144
 20
-0.0051912412786957
 30
0.0213761608652728
 11
-0.0014069561259068
 21
-0.0040319726388192
 31
0.0210656768161617
 12
-0.0005644540634033
 22
-0.0033054085687739
 32
0.0206945999651169
 13
-0.0016495287773957
 23
-0.0029053259239299
 33
0.02054896047408
1001
_KTI_ARE
1070
 29000
1000
LEAF_G
  0
3DFACE
  5
117
  8
0
  6
LEAF_G
 62
     3
 10
-0.000461185118885
 20
-0.000847054330537
 30
0.0183562144738032
 11
-0.0002696321395241
 21
-0.0020620697097376
 31
0.0194382228923844
 12
-0.0005644540634033
 22
-0.0033054085687739
 32
0.0206945999651169
 13
-0.0016495287773957
 23
-0.0029053259239299
 33
0.02054896047408
1001
_KTI_ARE
1070
 29000
1000
LEAF_G
  0
3DFACE
  5
118
  8
0
  6
LEAF_G
 62
     3
 10
-0.000461185118885
 20
-0.000847054330537
 30
0.0183562144738032
 11
-0.001609195792942
 21
-0.0012886722738402
 31
0.0194382228923844
 12
-0.0025385478684401
 22
-0.0021656649790303
 32
0.0206945999651169
 13
-0.0016495287773957
 23
-0.0029053259239299
 33
0.02054896047408
1001
_KTI_ARE
1070
 29000
1000
LEAF_G
  0
3DFACE
  5
119
  8
0
  6
LEAF_G
 62
     3
 10
-0.0029693026228144
 20
-0.0051912412786957
 30
0.0213761608652728
 11
-0.0027465197793246
 21
-0.0032585752029218
 31
0.0210656768161617
 12
-0.0025385478684401
 22
-0.0021656649790303
 32
0.0206945999651169
 13
-0.0016495287773957
 23
-0.0029053259239299
 33
0.02054896047408
1001
_KTI_ARE
1070
 29000
1000
LEAF_G
  0
3DFACE
  5
11A
  8
0
  6
LEAF_G
 62
     3
 10
-0.0028914934193103
 20
0.0022752960597366
 30
0.0014120453911422
 11
-0.003612782005194
 21
0.0035847746545719
 31
0.0030715431315731
 12
-0.0040557507430145
 22
0.0042635428756745
 32
0.0043385495593266
 13
-0.0044154803231097
 23
0.0031551703088867
 33
0.0043662804337708
1001
_KTI_ARE
1070
 29000
1000
LEAF_G
  0
3DFACE
  5
11B
  8
0
  6
LEAF_G
 62
     3
 10
-0.004264414167361
 20
0.0030679522231997
 30
0.0080945755724458
 11
-0.0042974776142957
 21
0.0039800838487997
 31
0.0063856182242834
 12
-0.0040557507430145
 22
0.0042635428756745
 32
0.0043385495593266
 13
-0.0044154803231097
 23
0.0031551703088867
 33
0.0043662804337708
1001
_KTI_ARE
1070
 29000
1000
LEAF_G
  0
3DFACE
  5
11C
  8
0
  6
LEAF_G
 62
     3
 10
-0.004264414167361
 20
0.0030679522231997
 30
0.0080945755724458
 11
-0.0050708750501931
 21
0.0026405201953819
 31
0.0063856182242834
 12
-0.0051954943327581
 22
0.0022894490706376
 32
0.0043385495593266
 13
-0.0044154803231097
 23
0.0031551703088867
 33
0.0043662804337708
1001
_KTI_ARE
1070
 29000
1000
LEAF_G
  0
3DFACE
  5
11D
  8
0
  6
LEAF_G
 62
     3
 10
-0.0028914934193103
 20
0.0022752960597366
 30
0.0014120453911422
 11
-0.0043861794410914
 21
0.002245211001154
 31
0.0030715431315731
 12
-0.0051954943327581
 22
0.0022894490706376
 32
0.0043385495593266
 13
-0.0044154803231097
 23
0.0031551703088867
 33
0.0043662804337708
1001
_KTI_ARE
1070
 29000
1000
LEAF_G
  0
3DFACE
  5
11E
  8
0
  6
LEAF_G
 62
     3
 10
-0.0042693900919979
 20
0.0030708250746283
 30
0.0080520800635956
 11
-0.0042851975303216
 21
0.0030799515033997
 31
0.0075221433450127
 12
-0.003504733696603
 22
0.0026659027536822
 32
0.0093428967706851
 13
-0.003648548066369
 23
0.0026736718620625
 33
0.0094719065045156
1001
_KTI_ARE
1070
 29000
1000
LEAF_G
  0
3DFACE
  5
11F
  8
0
  6
LEAF_G
 62
     3
 10
-0.003504733696603
 20
0.0026659027536822
 30
0.0093428967706851
 11
-0.003648548066369
 21
0.0026736718620625
 31
0.0094719065045156
 12
-0.0025545230826093
 22
0.0020655585695752
 32
0.0107691798244659
 13
-0.0023531605141667
 23
0.0020543737345213
 33
0.0106657985528034
1001
_KTI_ARE
1070
 29000
1000
LEAF_G
  0
3DFACE
  5
120
  8
0
  6
LEAF_G
 62
     3
 10
-0.0025545230826093
 20
0.0020655585695752
 30
0.0107691798244659
 11
-0.0023531605141667
 21
0.0020543737345213
 31
0.0106657985528034
 12
-0.0010982154728287
 22
0.0013230780098213
 32
0.0115205592504226
 13
-0.001445950210482
 23
0.0013894369209916
 33
0.0116757757284148
1001
_KTI_ARE
1070
 29000
1000
LEAF_G
  0
3DFACE
  5
121
  8
0
  6
LEAF_G
 62
     3
 10
-0.0010982154728287
 20
0.0013230780098213
 30
0.0115205592504226
 11
-0.001445950210482
 21
0.0013894369209916
 31
0.0116757757284148
 12
-0.0007346280140565
 22
0.0009217688300737
 32
0.0120651868116417
 13
-0.0003670349566823
 23
0.0007095388794464
 33
0.0119226399942352
1001
_KTI_ARE
1070
 29000
1000
LEAF_G
  0
3DFACE
  5
122
  8
0
  6
LEAF_G
 62
     3
 10
0.0052791582150402
 20
0.0054079170233755
 30
-0.0006825172896599
 11
0.0057869180384083
 21
0.004824153232912
 31
0.0016622912796664
 12
0.0055922920548424
 22
0.0041475053522444
 32
0.0045870323785831
 13
0.0046474662071096
 23
0.0048270566660176
 33
0.0045223930066364
1001
_KTI_ARE
1070
 29000
1000
LEAF_G
  0
3DFACE
  5
123
  8
0
  6
LEAF_G
 62
     3
 10
0.003662817895541
 20
0.0039216420605624
 30
0.0078530061607145
 11
0.0049579159384454
 21
0.0040618601375593
 31
0.0058375050610076
 12
0.0055922920548424
 22
0.0041475053522444
 32
0.0045870323785831
 13
0.0046474662071096
 23
0.0048270566660176
 33
0.0045223930066364
1001
_KTI_ARE
1070
 29000
1000
LEAF_G
  0
3DFACE
  5
124
  8
0
  6
LEAF_G
 62
     3
 10
0.003662817895541
 20
0.0039216420605624
 30
0.0078530061607145
 11
0.0039109376415976
 21
0.0052004605158047
 31
0.0058375050610076
 12
0.0040493766700141
 22
0.0058254427517639
 32
0.0045870323785831
 13
0.0046474662071096
 23
0.0048270566660176
 33
0.0045223930066364
1001
_KTI_ARE
1070
 29000
1000
LEAF_G
  0
3DFACE
  5
125
  8
0
  6
LEAF_G
 62
     3
 10
0.0052791582150402
 20
0.0054079170233755
 30
-0.0006825172896599
 11
0.0047399397415605
 21
0.0059627536111574
 31
0.0016622912796664
 12
0.0040493766700141
 22
0.0058254427517639
 32
0.0045870323785831
 13
0.0046474662071096
 23
0.0048270566660176
 33
0.0045223930066364
1001
_KTI_ARE
1070
 29000
1000
LEAF_G
  0
3DFACE
  5
126
  8
0
  6
LEAF_G
 62
     3
 10
0.0036592238465351
 20
0.0039183372212361
 30
0.007859857298256
 11
0.0037948052682088
 21
0.0040430085358257
 31
0.0073534826070039
 12
0.0029147240380224
 22
0.0031907428612722
 32
0.0087724742409922
 13
0.0029703247585415
 23
0.0033304153928536
 33
0.0088940743529108
1001
_KTI_ARE
1070
 29000
1000
LEAF_G
  0
3DFACE
  5
127
  8
0
  6
LEAF_G
 62
     3
 10
0.0029147240380224
 20
0.0031907428612722
 30
0.0087724742409922
 11
0.0029703247585415
 21
0.0033304153928536
 31
0.0088940743529108
 12
0.0023200368252712
 22
0.0027047814830837
 32
0.0095600481934288
 13
0.0022634608111608
 23
0.0025291409701098
 33
0.0092670773770009
1001
_KTI_ARE
1070
 29000
1000
LEAF_G
  0
3DFACE
  5
128
  8
0
  6
LEAF_G
 62
     3
 10
0.0023200368252712
 20
0.0027047814830837
 30
0.0095600481934288
 11
0.0022634608111608
 21
0.0025291409701098
 31
0.0092670773770009
 12
0.0013927092972078
 22
0.0017364027462721
 32
0.0093526229979785
 13
0.0012904112861927
 23
0.0018004650573688
 33
0.0097136681133495
1001
_KTI_ARE
1070
 29000
1000
LEAF_G
  0
3DFACE
  5
129
  8
0
  6
LEAF_G
 62
     3
 10
0.0013927092972078
 20
0.0017364027462721
 30
0.0093526229979785
 11
0.0012904112861927
 21
0.0018004650573688
 31
0.0097136681133495
 12
0.0001826209405103
 22
0.0008488616182305
 32
0.0092985830765855
 13
0.0003425435248406
 23
0.0009959153854422
 33
0.0085055801849286
1001
_KTI_ARE
1070
 29000
1000
LEAF_G
  0
3DFACE
  5
12A
  8
0
  6
LEAF_G
 62
     3
 10
0.0013249728336294
 20
-0.0106515463406871
 30
0.0005594492156848
 11
0.0007429309507228
 21
-0.0102697963920184
 31
0.0038905428848885
 12
0.000426058822097
 22
-0.0097313974676768
 32
0.0058427693848461
 13
0.0014850807243429
 23
-0.0092827625025249
 33
0.0056533930462833
1001
_KTI_ARE
1070
 29000
1000
LEAF_G
  0
3DFACE
  5
12B
  8
0
  6
LEAF_G
 62
     3
 10
0.001265232932506
 20
-0.0064167078445941
 30
0.0099229244758627
 11
0.0007041281494969
 21
-0.0082033588120299
 31
0.0083483333825784
 12
0.000426058822097
 22
-0.0097313974676768
 32
0.0058427693848461
 13
0.0014850807243429
 23
-0.0092827625025249
 33
0.0056533930462833
1001
_KTI_ARE
1070
 29000
1000
LEAF_G
  0
3DFACE
  5
12C
  8
0
  6
LEAF_G
 62
     3
 10
0.001265232932506
 20
-0.0064167078445941
 30
0.0099229244758627
 11
0.0022136741502399
 21
-0.0078924174952156
 31
0.0082173343575837
 12
0.0026506529284551
 22
-0.0092731681586874
 32
0.0056497181901171
 13
0.0014850807243429
 23
-0.0092827625025249
 33
0.0056533930462833
1001
_KTI_ARE
1070
 29000
1000
LEAF_G
  0
3DFACE
  5
12D
  8
0
  6
LEAF_G
 62
     3
 10
0.0013249728336294
 20
-0.0106515463406871
 30
0.0005594492156848
 11
0.0022524769514658
 21
-0.0099588550752041
 31
0.0037595438598939
 12
0.0026506529284551
 22
-0.0092731681586874
 32
0.0056497181901171
 13
0.0014850807243429
 23
-0.0092827625025249
 33
0.0056533930462833
1001
_KTI_ARE
1070
 29000
1000
LEAF_G
  0
3DFACE
  5
12E
  8
0
  6
LEAF_G
 62
     3
 10
0.001264599008863
 20
-0.0064110289525232
 30
0.0099290990659303
 11
0.0012742720686074
 21
-0.0066594023656075
 31
0.0094510220155364
 12
0.0009233920647458
 22
-0.0044029629942143
 32
0.011137407046536
 13
0.0010224935696106
 23
-0.0045044985105044
 33
0.0112687686622556
1001
_KTI_ARE
1070
 29000
1000
LEAF_G
  0
3DFACE
  5
12F
  8
0
  6
LEAF_G
 62
     3
 10
0.0009233920647458
 20
-0.0044029629942143
 30
0.011137407046536
 11
0.0010224935696106
 21
-0.0045044985105044
 31
0.0112687686622556
 12
0.0007249235381397
 22
-0.0026417745835978
 32
0.0125016925960307
 13
0.0005917362281214
 23
-0.0024929875104486
 33
0.0123945328127658
1001
_KTI_ARE
1070
 29000
1000
LEAF_G
  0
3DFACE
  5
130
  8
0
  6
LEAF_G
 62
     3
 10
0.0007249235381397
 20
-0.0026417745835978
 30
0.0125016925960307
 11
0.0005917362281214
 21
-0.0024929875104486
 31
0.0123945328127658
 12
0.000308587187064
 22
-0.0008010620961734
 32
0.013078638043185
 13
0.000502083437044
 23
-0.0010910892687302
 33
0.0132455468456048
1001
_KTI_ARE
1070
 29000
1000
LEAF_G
  0
3DFACE
  5
131
  8
0
  6
LEAF_G
 62
     3
 10
0.000308587187064
 20
-0.0008010620961734
 30
0.013078638043185
 11
0.000502083437044
 21
-0.0010910892687302
 31
0.0132455468456048
 12
0.0002376021100964
 22
0.0006130903381395
 32
0.0136601812907141
 13
0.0002371052387888
 23
0.0005009349114238
 33
0.0133882418150773
1001
_KTI_ARE
1070
 29000
1000
LEAF_G
  0
3DFACE
  5
132
  8
0
  6
LEAF_G
 62
     3
 10
0.002496865990758
 20
0.0106846519608184
 30
0.0140794422382186
 11
0.0031148846928021
 21
0.0100029509275986
 31
0.0149393088982845
 12
0.0031890617595752
 22
0.0088643306641055
 32
0.0156293449595038
 13
0.0020715745947623
 23
0.0090974428629405
 33
0.0153936645440397
1001
_KTI_ARE
1070
 29000
1000
LEAF_G
  0
3DFACE
  5
133
  8
0
  6
LEAF_G
 62
     3
 10
0.0013518747438258
 20
0.0064114864530458
 30
0.0160846228667857
 11
0.0025334065421154
 21
0.0078328449257444
 31
0.0160543633997954
 12
0.0031890617595752
 22
0.0088643306641055
 32
0.0156293449595038
 13
0.0020715745947623
 23
0.0090974428629405
 33
0.0153936645440397
1001
_KTI_ARE
1070
 29000
1000
LEAF_G
  0
3DFACE
  5
134
  8
0
  6
LEAF_G
 62
     3
 10
0.0013518747438258
 20
0.0064114864530458
 30
0.0160846228667857
 11
0.0010393174274772
 21
0.0082331848974319
 31
0.0160543633997954
 12
0.0009872462222137
 22
0.0094543053592238
 32
0.0156293449595038
 13
0.0020715745947623
 23
0.0090974428629405
 33
0.0153936645440397
1001
_KTI_ARE
1070
 29000
1000
LEAF_G
  0
3DFACE
  5
135
  8
0
  6
LEAF_G
 62
     3
 10
0.002496865990758
 20
0.0106846519608184
 30
0.0140794422382186
 11
0.001620795578164
 21
0.010403290899286
 31
0.0149393088982845
 12
0.0009872462222137
 22
0.0094543053592238
 32
0.0156293449595038
 13
0.0020715745947623
 23
0.0090974428629405
 33
0.0153936645440397
1001
_KTI_ARE
1070
 29000
1000
LEAF_G
  0
3DFACE
  5
136
  8
0
  6
LEAF_G
 62
     3
 10
0.0013510371737412
 20
0.0064083605989352
 30
0.0160751271468336
 11
0.0014559909650217
 21
0.0068000534804409
 31
0.0159702187148446
 12
0.0010142444002728
 22
0.0050291266285058
 32
0.0162974305171421
 13
0.0009420064498524
 23
0.0050113630118967
 33
0.0164759034166626
1001
_KTI_ARE
1070
 29000
1000
LEAF_G
  0
3DFACE
  5
137
  8
0
  6
LEAF_G
 62
     3
 10
0.0010142444002728
 20
0.0050291266285058
 30
0.0162974305171421
 11
0.0009420064498524
 21
0.0050113630118967
 31
0.0164759034166626
 12
0.0004897926886091
 22
0.0032449710409585
 32
0.0163289148175018
 13
0.000574037310955
 23
0.0032077988287134
 33
0.0161218381600095
1001
_KTI_ARE
1070
 29000
1000
LEAF_G
  0
3DFACE
  5
138
  8
0
  6
LEAF_G
 62
     3
 10
0.0004897926886091
 20
0.0032449710409585
 30
0.0163289148175018
 11
0.000574037310955
 21
0.0032077988287134
 31
0.0161218381600095
 12
0.0001994457480482
 22
0.0018323996181163
 32
0.0156045357221823
 13
0.0001017157414269
 23
0.0019173969512068
 33
0.0159687326566506
1001
_KTI_ARE
1070
 29000
1000
LEAF_G
  0
3DFACE
  5
139
  8
0
  6
LEAF_G
 62
     3
 10
0.0001994457480482
 20
0.0018323996181163
 30
0.0156045357221823
 11
0.0001017157414269
 21
0.0019173969512068
 31
0.0159687326566506
 12
-0.0001674372855232
 22
0.0011035831501009
 32
0.0153442514499604
 13
-0.0001978328450989
 23
0.0009901453774399
 33
0.0149121706882763
1001
_KTI_ARE
1070
 29000
1000
LEAF_G
  0
3DFACE
  5
13A
  8
0
  6
LEAF_G
 62
     3
 10
-0.0001680962160569
 20
0.0006900314054873
 30
0.0160897520457991
 11
0.0000245013482707
 21
0.0005736325395015
 31
0.0164040331144545
 12
0.0002821867730667
 22
0.00052428119044
 32
0.0153812339274042
 13
0.0000918201009543
 23
0.00052428119044
 33
0.014975960768813
1001
_KTI_ARE
1070
 29000
1000
LEAF_G
  0
3DFACE
  5
13B
  8
0
  6
LEAF_G
 62
     3
 10
-0.0005671342065723
 20
0.0006048846271599
 30
0.0177584863830086
 11
-0.0006905075264954
 21
0.0006958795600874
 31
0.0175915773720228
 12
-0.0001680962160569
 22
0.0006900314054873
 32
0.0160897520457991
 13
0.0000245013482707
 23
0.0005736325395015
 33
0.0164040331144545
1001
_KTI_ARE
1070
 29000
1000
LEAF_G
  0
3DFACE
  5
13C
  8
0
  6
LEAF_G
 62
     3
 10
-0.001942777330583
 20
0.000649692634614
 30
0.0191320943275262
 11
-0.0017998670573437
 21
0.0005845136949531
 31
0.0192448542629935
 12
-0.0005671342065723
 22
0.0006048846271599
 32
0.0177584863830086
 13
-0.0006905075264954
 23
0.0006958795600874
 33
0.0175915773720228
1001
_KTI_ARE
1070
 29000
1000
LEAF_G
  0
3DFACE
  5
13D
  8
0
  6
LEAF_G
 62
     3
 10
-0.003174569420274
 20
0.0006180374534152
 30
0.020142052270969
 11
-0.003402297450593
 21
0.0006180374534152
 31
0.0201531019723843
 12
-0.001942777330583
 22
0.000649692634614
 32
0.0191320943275262
 13
-0.0017998670573437
 23
0.0005845136949531
 33
0.0192448542629935
1001
_KTI_ARE
1070
 29000
1000
LEAF_G
  0
3DFACE
  5
13E
  8
0
  6
LEAF_G
 62
     3
 10
-0.0101690260264563
 20
0.0006180374534152
 30
0.0188827631793949
 11
-0.0084743195544872
 21
-0.0001553599824822
 31
0.0199557503696059
 12
-0.00663177392958
 22
-0.0005217061363284
 32
0.0204556406173576
 13
-0.0066104242934712
 23
0.0006180374534152
 33
0.0202123447857511
1001
_KTI_ARE
1070
 29000
1000
LEAF_G
  0
3DFACE
  5
13F
  8
0
  6
LEAF_G
 62
     3
 10
-0.0031722581968176
 20
0.0006180374534152
 30
0.0201462959438653
 11
-0.0048739207123279
 21
-0.0001553599824822
 31
0.0204464491217333
 12
-0.00663177392958
 22
-0.0005217061363284
 32
0.0204556406173576
 13
-0.0066104242934712
 23
0.0006180374534152
 33
0.0202123447857511
1001
_KTI_ARE
1070
 29000
1000
LEAF_G
  0
3DFACE
  5
140
  8
0
  6
LEAF_G
 62
     3
 10
-0.0031722581968176
 20
0.0006180374534152
 30
0.0201462959438653
 11
-0.0048739207123279
 21
0.0013914348893127
 31
0.0204464491217333
 12
-0.00663177392958
 22
0.0017577810431588
 32
0.0204556406173576
 13
-0.0066104242934712
 23
0.0006180374534152
 33
0.0202123447857511
1001
_KTI_ARE
1070
 29000
1000
LEAF_G
  0
3DFACE
  5
141
  8
0
  6
LEAF_G
 62
     3
 10
-0.0101690260264563
 20
0.0006180374534152
 30
0.0188827631793949
 11
-0.0084743195544872
 21
0.0013914348893127
 31
0.0199557503696059
 12
-0.00663177392958
 22
0.0017577810431588
 32
0.0204556406173576
 13
-0.0066104242934712
 23
0.0006180374534152
 33
0.0202123447857511
1001
_KTI_ARE
1070
 29000
1000
LEAF_G
  0
3DFACE
  5
142
  8
0
  6
LEAF_G
 62
     3
 10
0.0008646246118609
 20
0.0006303741700596
 30
0.0129238530369453
 11
0.0007889639078686
 21
0.0007306059189079
 31
0.0132894267809382
 12
0.0001699530513342
 22
0.0006158347359479
 32
0.0125966159574193
 13
0.000177558213236
 23
0.0006178725329378
 33
0.012148928776654
1001
_KTI_ARE
1070
 29000
1000
LEAF_G
  0
3DFACE
  5
143
  8
0
  6
LEAF_G
 62
     3
 10
0.0020101883800953
 20
0.0010254774880773
 30
0.0142536113979525
 11
0.0020765085489729
 21
0.0009490430371721
 31
0.0140508329924196
 12
0.0008646246118609
 22
0.0006303741700596
 32
0.0129238530369453
 13
0.0007889639078686
 23
0.0007306059189079
 33
0.0132894267809382
1001
_KTI_ARE
1070
 29000
1000
LEAF_G
  0
3DFACE
  5
144
  8
0
  6
LEAF_G
 62
     3
 10
0.0036625211995667
 20
0.0014218300698733
 30
0.0148941561539539
 11
0.003564262024315
 21
0.001462979806911
 31
0.0150555199573294
 12
0.0020101883800953
 22
0.0010254774880773
 32
0.0142536113979525
 13
0.0020765085489729
 23
0.0009490430371721
 33
0.0140508329924196
1001
_KTI_ARE
1070
 29000
1000
LEAF_G
  0
3DFACE
  5
145
  8
0
  6
LEAF_G
 62
     3
 10
0.0050950187949149
 20
0.001838438498788
 30
0.0153291932978842
 11
0.0056129636945574
 21
0.001977221416371
 31
0.0153822307303888
 12
0.0036625211995667
 22
0.0014218300698733
 32
0.0148941561539539
 13
0.003564262024315
 23
0.001462979806911
 33
0.0150555199573294
1001
_KTI_ARE
1070
 29000
1000
LEAF_G
  0
3DFACE
  5
146
  8
0
  6
LEAF_G
 62
     3
 10
0.0122870844542072
 20
0.003765546684107
 30
0.0153107873792802
 11
0.0098874542469821
 21
0.0039232476513226
 31
0.0158708165763596
 12
0.0083806328573992
 22
0.0038987655237077
 32
0.0160103902865334
 13
0.0086797684750866
 23
0.0027989692806578
 33
0.0157661972788433
1001
_KTI_ARE
1070
 29000
1000
LEAF_G
  0
3DFACE
  5
147
  8
0
  6
LEAF_G
 62
     3
 10
0.0051025983520033
 20
0.0018404694349888
 30
0.015332226917724
 11
0.0065066174778932
 21
0.0030173551693037
 31
0.015809260567723
 12
0.0083806328573992
 22
0.0038987655237077
 32
0.0160103902865334
 13
0.0086797684750866
 23
0.0027989692806578
 33
0.0157661972788433
1001
_KTI_ARE
1070
 29000
1000
LEAF_G
  0
3DFACE
  5
148
  8
0
  6
LEAF_G
 62
     3
 10
0.0051025983520033
 20
0.0018404694349888
 30
0.015332226917724
 11
0.0069069574495806
 21
0.0015232660546656
 31
0.015809260567723
 12
0.0089706075525175
 22
0.0016969499863462
 32
0.0160103902865334
 13
0.0086797684750866
 23
0.0027989692806578
 33
0.0157661972788433
1001
_KTI_ARE
1070
 29000
1000
LEAF_G
  0
3DFACE
  5
149
  8
0
  6
LEAF_G
 62
     3
 10
0.0122870844542072
 20
0.003765546684107
 30
0.0153107873792802
 11
0.0102877942186695
 21
0.0024291585366844
 31
0.0158708165763596
 12
0.0089706075525175
 22
0.0016969499863462
 32
0.0160103902865334
 13
0.0086797684750866
 23
0.0027989692806578
 33
0.0157661972788433
1001
_KTI_ARE
1070
 29000
1000
LEAF_G
  0
3DFACE
  5
14A
  8
0
  6
LEAF_G
 62
     3
 10
-0.0089204128388962
 20
-0.0046123777638396
 30
0.0064499488144771
 11
-0.008658439940375
 21
-0.003568085204746
 31
0.0082514184739503
 12
-0.008061884847254
 22
-0.0028006438600669
 32
0.0097242399408665
 13
-0.0073463979082209
 23
-0.0037036198199057
 33
0.0095471044700344
1001
_KTI_ARE
1070
 29000
1000
LEAF_G
  0
3DFACE
  5
14B
  8
0
  6
LEAF_G
 62
     3
 10
-0.0047460549385112
 20
-0.0022023111063585
 30
0.0117366167756999
 11
-0.0064479741747105
 21
-0.0022918721999052
 31
0.0109123955889378
 12
-0.008061884847254
 22
-0.0028006438600669
 32
0.0097242399408665
 13
-0.0073463979082209
 23
-0.0037036198199057
 33
0.0095471044700344
1001
_KTI_ARE
1070
 29000
1000
LEAF_G
  0
3DFACE
  5
14C
  8
0
  6
LEAF_G
 62
     3
 10
-0.0047460549385112
 20
-0.0022023111063585
 30
0.0117366167756999
 11
-0.0056745767388131
 21
-0.003631435853323
 31
0.0109123955889378
 12
-0.0069221412575104
 22
-0.0047747376651037
 32
0.0097242399408665
 13
-0.0073463979082209
 23
-0.0037036198199057
 33
0.0095471044700344
1001
_KTI_ARE
1070
 29000
1000
LEAF_G
  0
3DFACE
  5
14D
  8
0
  6
LEAF_G
 62
     3
 10
-0.0089204128388962
 20
-0.0046123777638396
 30
0.0064499488144771
 11
-0.0078850425044775
 21
-0.0049076488581639
 31
0.0082514184739503
 12
-0.0069221412575104
 22
-0.0047747376651037
 32
0.0097242399408665
 13
-0.0073463979082209
 23
-0.0037036198199057
 33
0.0095471044700344
1001
_KTI_ARE
1070
 29000
1000
LEAF_G
  0
3DFACE
  5
14E
  8
0
  6
LEAF_G
 62
     3
 10
-0.0047393672995859
 20
-0.0021984499962247
 30
0.0117399551212452
 11
-0.0051026990674506
 21
-0.0024082196902065
 31
0.0114018319358937
 12
-0.0035618285279481
 22
-0.0014820454146656
 32
0.0120659820254358
 13
-0.0035751812150078
 23
-0.0015650167488514
 33
0.0122401196344436
1001
_KTI_ARE
1070
 29000
1000
LEAF_G
  0
3DFACE
  5
14F
  8
0
  6
LEAF_G
 62
     3
 10
-0.0035618285279481
 20
-0.0014820454146656
 30
0.0120659820254358
 11
-0.0035751812150078
 21
-0.0015650167488514
 31
0.0122401196344436
 12
-0.0021015599402544
 22
-0.0006906987828024
 32
0.0128001365458696
 13
-0.0020512787561924
 23
-0.0005565970296079
 33
0.0126245000059497
1001
_KTI_ARE
1070
 29000
1000
LEAF_G
  0
3DFACE
  5
150
  8
0
  6
LEAF_G
 62
     3
 10
-0.0021015599402544
 20
-0.0006906987828024
 30
0.0128001365458696
 11
-0.0020512787561924
 21
-0.0005565970296079
 31
0.0126245000059497
 12
-0.0006615043256484
 22
0.0002390367447142
 32
0.0129240515310885
 13
-0.0007961603059554
 23
0.0000268872450155
 33
0.0132177783848966
1001
_KTI_ARE
1070
 29000
1000
LEAF_G
  0
3DFACE
  5
151
  8
0
  6
LEAF_G
 62
     3
 10
-0.0006615043256484
 20
0.0002390367447142
 30
0.0129240515310885
 11
-0.0007961603059554
 21
0.0000268872450155
 31
0.0132177783848966
 12
-0.0000557885993156
 22
0.0003973550198133
 32
0.0135155751133432
 13
-0.000069065666962
 23
0.0003896895012336
 33
0.0130194636902839
1001
_KTI_ARE
1070
 29000
1000
LEAF_G
  0
3DFACE
  5
152
  8
0
  6
LEAF_G
 62
     3
 10
-0.0013776505144333
 20
0.0011491570278975
 30
0.0112492019269854
 11
-0.0014467652922249
 21
0.0011380649208214
 31
0.0116293535027473
 12
-0.0006787739994784
 22
0.0008368229412353
 32
0.0111868872937201
 13
-0.0005705314033207
 23
0.0007098885651916
 33
0.0107713671287688
1001
_KTI_ARE
1070
 29000
1000
LEAF_G
  0
3DFACE
  5
153
  8
0
  6
LEAF_G
 62
     3
 10
-0.0024897190974252
 20
0.0015560864687869
 30
0.012141834815636
 11
-0.0024642123474279
 21
0.0015890951399619
 31
0.0119190804550336
 12
-0.0009816424303074
 22
0.0011491570278975
 32
0.0112492019269854
 13
-0.0010507572080989
 23
0.0011380649208214
 33
0.0116293535027473
1001
_KTI_ARE
1070
 29000
1000
LEAF_G
  0
3DFACE
  5
154
  8
0
  6
LEAF_G
 62
     3
 10
-0.0042639321388518
 20
0.0019346996754766
 30
0.0122219398915766
 11
-0.0042363755228616
 21
0.0019109107910838
 31
0.0124118376675345
 12
-0.0024897190974252
 22
0.0015560864687869
 32
0.012141834815636
 13
-0.0024642123474279
 23
0.0015890951399619
 33
0.0119190804550336
1001
_KTI_ARE
1070
 29000
1000
LEAF_G
  0
3DFACE
  5
155
  8
0
  6
LEAF_G
 62
     3
 10
-0.0058007586331696
 20
0.0021630728476843
 30
0.0121922872205578
 11
-0.0062498859196741
 21
0.0021685313493623
 31
0.011910469943253
 12
-0.0042639321388518
 22
0.0019346996754766
 32
0.0122219398915766
 13
-0.0042363755228616
 23
0.0019109107910838
 33
0.0124118376675345
1001
_KTI_ARE
1070
 29000
1000
LEAF_G
  0
3DFACE
  5
156
  8
0
  6
LEAF_G
 62
     3
 10
-0.010457486489316
 20
0.0016872682836655
 30
0.0072213696195337
 11
-0.0098933423683553
 21
0.0013318648476365
 31
0.0093531186604382
 12
-0.0092897638617464
 22
0.0011984979562583
 32
0.0107243076143311
 13
-0.0089467810340393
 23
0.0022135195902445
 33
0.0102652237642137
1001
_KTI_ARE
1070
 29000
1000
LEAF_G
  0
3DFACE
  5
157
  8
0
  6
LEAF_G
 62
     3
 10
-0.0057624589232349
 20
0.0021613546000832
 30
0.0122114981866412
 11
-0.0075672857386726
 21
0.0015682986109453
 31
0.0118313702189698
 12
-0.0092897638617464
 22
0.0011984979562583
 32
0.0107243076143311
 13
-0.0089467810340393
 23
0.0022135195902445
 33
0.0102652237642137
1001
_KTI_ARE
1070
 29000
1000
LEAF_G
  0
3DFACE
  5
158
  8
0
  6
LEAF_G
 62
     3
 10
-0.0057624589232349
 20
0.0021613546000832
 30
0.0122114981866412
 11
-0.0073086892713708
 21
0.0030443086023492
 31
0.0114478382805527
 12
-0.008908674330986
 22
0.0033736705751692
 32
0.0101591026524533
 13
-0.0089467810340393
 23
0.0022135195902445
 33
0.0102652237642137
1001
_KTI_ARE
1070
 29000
1000
LEAF_G
  0
3DFACE
  5
159
  8
0
  6
LEAF_G
 62
     3
 10
-0.010457486489316
 20
0.0016872682836655
 30
0.0072213696195337
 11
-0.0096347459010536
 21
0.0028078748390403
 31
0.0089695867220211
 12
-0.008908674330986
 22
0.0033736705751692
 32
0.0101591026524533
 13
-0.0089467810340393
 23
0.0022135195902445
 33
0.0102652237642137
1001
_KTI_ARE
1070
 29000
1000
LEAF_G
  0
3DFACE
  5
15A
  8
0
  6
LEAF_G
 62
     3
 10
0.0013740527560045
 20
0.0002902253971005
 30
0.0120516917269031
 11
0.0016780725226146
 21
0.0002978053273078
 31
0.0122902910438996
 12
-0.0000069322290629
 22
0.0008353026589874
 32
0.0124242904211629
 13
0.0001470278996661
 23
0.0008151062906375
 33
0.0121744533732702
1001
_KTI_ARE
1070
 29000
1000
LEAF_G
  0
3DFACE
  5
15B
  8
0
  6
LEAF_G
 62
     3
 10
0.0032798937889262
 20
-0.0001607244183378
 30
0.0118091248520675
 11
0.003113148430775
 21
-0.0001913496335594
 31
0.0116587328524025
 12
0.0013740527560045
 22
0.0002902253971005
 32
0.0120516917269031
 13
0.0016780725226146
 23
0.0002978053273078
 33
0.0122902910438996
1001
_KTI_ARE
1070
 29000
1000
LEAF_G
  0
3DFACE
  5
15C
  8
0
  6
LEAF_G
 62
     3
 10
0.0051831186508689
 20
-0.0006636888053048
 30
0.0107474227353562
 11
0.0052884377388493
 21
-0.0006429737514457
 31
0.0109082494112214
 12
0.0032798937889262
 22
-0.0001607244183378
 32
0.0118091248520675
 13
0.003113148430775
 23
-0.0001913496335594
 33
0.0116587328524025
1001
_KTI_ARE
1070
 29000
1000
LEAF_G
  0
3DFACE
  5
15D
  8
0
  6
LEAF_G
 62
     3
 10
0.0073323300016751
 20
-0.0011810135583148
 30
0.0098977022418307
 11
0.007652188943422
 21
-0.0012319752769513
 31
0.0094670820528667
 12
0.0051831186508689
 22
-0.0006636888053048
 32
0.0107474227353562
 13
0.0052884377388493
 23
-0.0006429737514457
 33
0.0109082494112214
1001
_KTI_ARE
1070
 29000
1000
LEAF_G
  0
3DFACE
  5
15E
  8
0
  6
LEAF_G
 62
     3
 10
0.0129984682452767
 20
-0.0019904438931883
 30
0.0013527814714769
 11
0.0121462178899646
 21
-0.0012543025602497
 31
0.0045640827777366
 12
0.0113353733077322
 22
-0.0008164686259467
 32
0.0063950120948337
 13
0.0108178872853434
 23
-0.0018331249216418
 33
0.0061556748598359
1001
_KTI_ARE
1070
 29000
1000
LEAF_G
  0
3DFACE
  5
15F
  8
0
  6
LEAF_G
 62
     3
 10
0.0073388352405965
 20
-0.0011824176773988
 30
0.0098925556358604
 11
0.0094034330730857
 21
-0.0008544301386511
 31
0.0086212738683076
 12
0.0113353733077322
 22
-0.0008164686259467
 32
0.0063950120948337
 13
0.0108178872853434
 23
-0.0018331249216418
 33
0.0061556748598359
1001
_KTI_ARE
1070
 29000
1000
LEAF_G
  0
3DFACE
  5
160
  8
0
  6
LEAF_G
 62
     3
 10
0.0073388352405965
 20
-0.0011824176773988
 30
0.0098925556358604
 11
0.008965955576252
 21
-0.0023304401300549
 31
0.0084709997173335
 12
0.0106906696281878
 22
-0.0029916412448577
 32
0.0061735554512929
 13
0.0108178872853434
 23
-0.0018331249216418
 33
0.0061556748598359
1001
_KTI_ARE
1070
 29000
1000
LEAF_G
  0
3DFACE
  5
161
  8
0
  6
LEAF_G
 62
     3
 10
0.0129984682452767
 20
-0.0019904438931883
 30
0.0013527814714769
 11
0.0117087403931309
 21
-0.0027303125516536
 31
0.0044138086267625
 12
0.0106906696281878
 22
-0.0029916412448577
 32
0.0061735554512929
 13
0.0108178872853434
 23
-0.0018331249216418
 33
0.0061556748598359
1001
_KTI_ARE
1070
 29000
1000
LEAF_G
  0
3DFACE
  5
162
  8
0
  6
LEAF_G
 62
     3
 10
-0.0011667307674398
 20
0.0004236830667557
 30
0.0129784882294338
 11
-0.0011054653493415
 21
0.0003195941126773
 31
0.0133456763911261
 12
-0.0003080376657077
 22
0.0004821719403748
 32
0.0130113755282116
 13
-0.0003840717330569
 23
0.0003930053239587
 33
0.0126238440400896
1001
_KTI_ARE
1070
 29000
1000
LEAF_G
  0
3DFACE
  5
163
  8
0
  6
LEAF_G
 62
     3
 10
-0.0024503942475532
 20
-0.000008423957535
 30
0.0140363232058022
 11
-0.0025087150808195
 21
0.0000701539088873
 31
0.0138319121709943
 12
-0.0011667307674398
 22
0.0004236830667557
 32
0.0129784882294338
 13
-0.0011054653493415
 23
0.0003195941126773
 33
0.0133456763911261
1001
_KTI_ARE
1070
 29000
1000
LEAF_G
  0
3DFACE
  5
164
  8
0
  6
LEAF_G
 62
     3
 10
-0.004126527174756
 20
-0.0004111537589773
 30
0.0146072731311168
 11
-0.0040346727453027
 21
-0.0004540196424794
 31
0.014771929510406
 12
-0.0024503942475532
 22
-0.000008423957535
 32
0.0140363232058022
 13
-0.0025087150808195
 23
0.0000701539088873
 33
0.0138319121709943
1001
_KTI_ARE
1070
 29000
1000
LEAF_G
  0
3DFACE
  5
165
  8
0
  6
LEAF_G
 62
     3
 10
-0.0053160725782516
 20
-0.0007626633442858
 30
0.0152910489495718
 11
-0.0058356721698378
 21
-0.0009018896352389
 31
0.0153222401479476
 12
-0.004126527174756
 22
-0.0004111537589773
 32
0.0146072731311168
 13
-0.0040346727453027
 23
-0.0004540196424794
 33
0.014771929510406
1001
_KTI_ARE
1070
 29000
1000
LEAF_G
  0
3DFACE
  5
166
  8
0
  6
LEAF_G
 62
     3
 10
-0.0122028619941989
 20
-0.0026079730067321
 30
0.0146133177456459
 11
-0.0102980761801697
 21
-0.0028982671294835
 31
0.0154451771132735
 12
-0.0086035076903314
 22
-0.0028234783179739
 32
0.0159318921602781
 13
-0.0088930493825947
 23
-0.0017211113903544
 33
0.0156877264699516
1001
_KTI_ARE
1070
 29000
1000
LEAF_G
  0
3DFACE
  5
167
  8
0
  6
LEAF_G
 62
     3
 10
-0.0053237650105649
 20
-0.000764724525312
 30
0.0152937610068581
 11
-0.0067451926916611
 21
-0.0019462748679358
 31
0.0157028734314907
 12
-0.0086035076903314
 22
-0.0028234783179739
 32
0.0159318921602781
 13
-0.0088930493825947
 23
-0.0017211113903544
 33
0.0156877264699516
1001
_KTI_ARE
1070
 29000
1000
LEAF_G
  0
3DFACE
  5
168
  8
0
  6
LEAF_G
 62
     3
 10
-0.0053237650105649
 20
-0.000764724525312
 30
0.0152937610068581
 11
-0.0071455326633485
 21
-0.0004521857532976
 31
0.0157028734314907
 12
-0.0091934823854497
 22
-0.0006216627806124
 32
0.0159318921602781
 13
-0.0088930493825947
 23
-0.0017211113903544
 33
0.0156877264699516
1001
_KTI_ARE
1070
 29000
1000
LEAF_G
  0
3DFACE
  5
169
  8
0
  6
LEAF_G
 62
     3
 10
-0.0122028619941989
 20
-0.0026079730067321
 30
0.0146133177456459
 11
-0.0106984161518571
 21
-0.0014041780148454
 31
0.0154451771132735
 12
-0.0091934823854497
 22
-0.0006216627806124
 32
0.0159318921602781
 13
-0.0088930493825947
 23
-0.0017211113903544
 33
0.0156877264699516
1001
_KTI_ARE
1070
 29000
1000
LEAF_G
  0
3DFACE
  5
16A
  8
0
  6
LEAF_G
 62
     3
 10
-0.0012341447368691
 20
0.0001798633036143
 30
0.0113461128542117
 11
-0.001131846725854
 21
0.000251087252101
 31
0.0117058137079752
 12
-0.0002510473001803
 22
0.0008208533217192
 32
0.0111214870091495
 13
-0.0004109698845106
 23
0.0003962424859839
 33
0.0104357873410705
1001
_KTI_ARE
1070
 29000
1000
LEAF_G
  0
3DFACE
  5
16B
  8
0
  6
LEAF_G
 62
     3
 10
-0.0025574803490585
 20
-0.0006473824612123
 30
0.011890582352157
 11
-0.0025009043349481
 21
-0.0005899371993404
 31
0.0115538606110048
 12
-0.0016301528209951
 22
0.0001798633036143
 32
0.0113461128542117
 13
-0.00152785480998
 23
0.000251087252101
 33
0.0117058137079752
1001
_KTI_ARE
1070
 29000
1000
LEAF_G
  0
3DFACE
  5
16C
  8
0
  6
LEAF_G
 62
     3
 10
-0.0031521675618097
 20
-0.0013858638708373
 30
0.0113328401184273
 11
-0.0032077682823288
 21
-0.0014719335126761
 31
0.0114968127382476
 12
-0.0025574803490585
 22
-0.0006473824612123
 32
0.011890582352157
 13
-0.0025009043349481
 23
-0.0005899371993404
 33
0.0115538606110048
1001
_KTI_ARE
1070
 29000
1000
LEAF_G
  0
3DFACE
  5
16D
  8
0
  6
LEAF_G
 62
     3
 10
-0.0038966673703224
 20
-0.0023948754133632
 30
0.0107461895036062
 11
-0.0040322487919961
 21
-0.0026946873482452
 31
0.0103194916382207
 12
-0.0031521675618097
 22
-0.0013858638708373
 32
0.0113328401184273
 13
-0.0032077682823288
 23
-0.0014719335126761
 33
0.0114968127382476
1001
_KTI_ARE
1070
 29000
1000
LEAF_G
  0
3DFACE
  5
16E
  8
0
  6
LEAF_G
 62
     3
 10
-0.0055166017388275
 20
-0.0068807846004359
 30
0.003325432779892
 11
-0.0049773832653478
 21
-0.0065475576178574
 31
0.0057118381612153
 12
-0.0042868201938015
 22
-0.005358994557134
 32
0.0083877086024893
 13
-0.004884909730897
 23
-0.0044520055405913
 33
0.0079654243990332
1001
_KTI_ARE
1070
 29000
1000
LEAF_G
  0
3DFACE
  5
16F
  8
0
  6
LEAF_G
 62
     3
 10
-0.0039002614193283
 20
-0.0024004397301653
 30
0.0107410031342489
 11
-0.0041483811653849
 21
-0.0043230940787962
 31
0.0093264284348855
 12
-0.0042868201938015
 22
-0.005358994557134
 32
0.0083877086024893
 13
-0.004884909730897
 23
-0.0044520055405913
 33
0.0079654243990332
1001
_KTI_ARE
1070
 29000
1000
LEAF_G
  0
3DFACE
  5
170
  8
0
  6
LEAF_G
 62
     3
 10
-0.0039002614193283
 20
-0.0024004397301653
 30
0.0107410031342489
 11
-0.0051953594622327
 21
-0.0032619945342097
 31
0.0089135379193502
 12
-0.0058297355786298
 22
-0.0037952689124803
 32
0.0077792383690689
 13
-0.004884909730897
 23
-0.0044520055405913
 33
0.0079654243990332
1001
_KTI_ARE
1070
 29000
1000
LEAF_G
  0
3DFACE
  5
171
  8
0
  6
LEAF_G
 62
     3
 10
-0.0055166017388275
 20
-0.0068807846004359
 30
0.003325432779892
 11
-0.0060243615621956
 21
-0.0054864580732709
 31
0.00529894764568
 12
-0.0058297355786298
 22
-0.0037952689124803
 32
0.0077792383690689
 13
-0.004884909730897
 23
-0.0044520055405913
 33
0.0079654243990332
1001
_KTI_ARE
1070
 29000
1000
LEAF_G
  0
3DFACE
  5
172
  8
0
  6
LEAF_G
 62
     3
 10
0.0007633717708408
 20
0.0009190564016914
 30
0.0106953730276732
 11
0.0007747086205393
 21
0.0010600075681371
 31
0.0110551220407633
 12
0.000159912721058
 22
0.0007620410194059
 32
0.0105090882770165
 13
0.0000341668477167
 23
0.0005727810498548
 33
0.010085528241867
1001
_KTI_ARE
1070
 29000
1000
LEAF_G
  0
3DFACE
  5
173
  8
0
  6
LEAF_G
 62
     3
 10
0.0016899963493787
 20
0.0015523623823238
 30
0.0114610292370149
 11
0.0017116833052752
 21
0.0014598114541074
 31
0.0112553020548882
 12
0.0007633717708408
 22
0.0009190564016914
 32
0.0106953730276732
 13
0.0007747086205393
 23
0.0010600075681371
 33
0.0110551220407633
1001
_KTI_ARE
1070
 29000
1000
LEAF_G
  0
3DFACE
  5
174
  8
0
  6
LEAF_G
 62
     3
 10
0.0032217423350407
 20
0.002384976509145
 30
0.011194486412398
 11
0.0031681852281585
 21
0.002429317455787
 31
0.0113749080302062
 12
0.0016899963493787
 22
0.0015523623823238
 32
0.0114610292370149
 13
0.0017116833052752
 23
0.0014598114541074
 33
0.0112553020548882
1001
_KTI_ARE
1070
 29000
1000
LEAF_G
  0
3DFACE
  5
175
  8
0
  6
LEAF_G
 62
     3
 10
0.00425751895372
 20
0.0030195346735326
 30
0.0109107875088658
 11
0.0044847465493021
 21
0.0031507245870092
 31
0.0106740201136176
 12
0.0032217423350407
 22
0.002384976509145
 32
0.011194486412398
 13
0.0031681852281585
 23
0.002429317455787
 33
0.0113749080302062
1001
_KTI_ARE
1070
 29000
1000
LEAF_G
  0
3DFACE
  5
176
  8
0
  6
LEAF_G
 62
     3
 10
0.0083313333326046
 20
0.0053715525018101
 30
0.0051483010844058
 11
0.0070675742517746
 21
0.005534963291914
 31
0.0072632330755976
 12
0.0063308930460126
 22
0.0055326603005397
 32
0.0085899950737368
 13
0.0067397217773835
 23
0.0044526351419579
 33
0.0084316636358077
1001
_KTI_ARE
1070
 29000
1000
LEAF_G
  0
3DFACE
  5
177
  8
0
  6
LEAF_G
 62
     3
 10
0.0042566741819763
 20
0.0030190469443389
 30
0.0109090382794103
 11
0.005102201238119
 21
0.0044002546534219
 31
0.0099286097494143
 12
0.0063308930460126
 22
0.0055326603005397
 32
0.0085899950737368
 13
0.0067397217773835
 23
0.0044526351419579
 33
0.0084316636358077
1001
_KTI_ARE
1070
 29000
1000
LEAF_G
  0
3DFACE
  5
178
  8
0
  6
LEAF_G
 62
     3
 10
0.0042566741819763
 20
0.0030190469443389
 30
0.0109090382794103
 11
0.0058755986740164
 21
0.003060691000004
 31
0.0099286097494143
 12
0.0074706366357562
 22
0.0035585664955029
 32
0.0085899950737368
 13
0.0067397217773835
 23
0.0044526351419579
 33
0.0084316636358077
1001
_KTI_ARE
1070
 29000
1000
LEAF_G
  0
3DFACE
  5
179
  8
0
  6
LEAF_G
 62
     3
 10
0.0083313333326046
 20
0.0053715525018101
 30
0.0051483010844058
 11
0.0078409716876721
 21
0.0041953996384962
 31
0.0072632330755976
 12
0.0074706366357562
 22
0.0035585664955029
 32
0.0085899950737368
 13
0.0067397217773835
 23
0.0044526351419579
 33
0.0084316636358077
1001
_KTI_ARE
1070
 29000
1000
LEAF_G
  0
3DFACE
  5
17A
  8
0
  6
LEAF_G
 62
     3
 10
-0.0000824869532482
 20
0.0089713476617096
 30
0.0096668798763999
 11
0.0006909104826492
 21
0.0080037209311292
 31
0.0111988020731731
 12
0.0010572566364954
 22
0.0072601708809214
 32
0.012028456773023
 13
-0.0000824869532482
 23
0.0072002793702414
 33
0.0117916833040964
1001
_KTI_ARE
1070
 29000
1000
LEAF_G
  0
3DFACE
  5
17B
  8
0
  6
LEAF_G
 62
     3
 10
-0.0000824869532482
 20
0.0042670241109123
 30
0.0131528560367937
 11
0.0006909104826492
 21
0.0056319638774235
 31
0.0126811644284091
 12
0.0010572566364954
 22
0.0072601708809214
 32
0.012028456773023
 13
-0.0000824869532482
 23
0.0072002793702414
 33
0.0117916833040964
1001
_KTI_ARE
1070
 29000
1000
LEAF_G
  0
3DFACE
  5
17C
  8
0
  6
LEAF_G
 62
     3
 10
-0.0000824869532482
 20
0.0042670241109123
 30
0.0131528560367937
 11
-0.0008558843891456
 21
0.0056319638774235
 31
0.0126811644284091
 12
-0.0012222305429918
 22
0.0072601708809214
 32
0.012028456773023
 13
-0.0000824869532482
 23
0.0072002793702414
 33
0.0117916833040964
1001
_KTI_ARE
1070
 29000
1000
LEAF_G
  0
3DFACE
  5
17D
  8
0
  6
LEAF_G
 62
     3
 10
-0.0000824869532482
 20
0.0089713476617096
 30
0.0096668798763999
 11
-0.0008558843891456
 21
0.0080037209311292
 31
0.0111988020731731
 12
-0.0012222305429918
 22
0.0072601708809214
 32
0.012028456773023
 13
-0.0000824869532482
 23
0.0072002793702414
 33
0.0117916833040964
1001
_KTI_ARE
1070
 29000
1000
LEAF_G
  0
3DFACE
  5
17E
  8
0
  6
LEAF_G
 62
     3
 10
-0.0000824869532482
 20
0.0042586562661736
 30
0.0131519863177185
 11
-0.0000824869532482
 21
0.0047900152120332
 31
0.0130625533418082
 12
-0.0000508317720494
 22
0.0032612898146221
 32
0.0133479054203306
 13
-0.0001160107117103
 23
0.0032222929987666
 33
0.0135257182365083
1001
_KTI_ARE
1070
 29000
1000
LEAF_G
  0
3DFACE
  5
17F
  8
0
  6
LEAF_G
 62
     3
 10
-0.0000508317720494
 20
0.0032612898146221
 30
0.0133479054203306
 11
-0.0001160107117103
 21
0.0032222929987666
 31
0.0135257182365083
 12
-0.0000956397795035
 22
0.002191329877412
 32
0.0135285427926207
 13
-0.000004644846576
 23
0.0021808825299998
 33
0.0133212496500686
1001
_KTI_ARE
1070
 29000
1000
LEAF_G
  0
3DFACE
  5
180
  8
0
  6
LEAF_G
 62
     3
 10
-0.0000956397795035
 20
0.002191329877412
 30
0.0135285427926207
 11
-0.000004644846576
 21
0.0021808825299998
 31
0.0133212496500686
 12
-0.0000104930011762
 22
0.0011863677784585
 32
0.0125156631351714
 13
-0.0001268918671619
 23
0.0012367427996574
 33
0.0128808052570079
1001
_KTI_ARE
1070
 29000
1000
LEAF_G
  0
3DFACE
  5
181
  8
0
  6
LEAF_G
 62
     3
 10
-0.0000104930011762
 20
0.0011863677784585
 30
0.0125156631351714
 11
-0.0001268918671619
 21
0.0012367427996574
 31
0.0128808052570079
 12
-0.0001762432162234
 22
0.0007075378991208
 32
0.0122533434626984
 13
-0.0001762432162234
 23
0.0007562447217567
 33
0.0119318928949946
1001
_KTI_ARE
1070
 29000
1000
LEAF_G
  0
3DFACE
  5
182
  8
0
  6
LEAF_G
 62
     3
 10
0.0056125134387054
 20
-0.0022126987115695
 30
0.0128549198837528
 11
0.0058982076143367
 21
-0.0022951418711912
 31
0.0126331511925177
 12
0.0039433542348354
 22
-0.0015199830292708
 32
0.0132639167594232
 13
0.0039699145438782
 23
-0.0015115718137057
 33
0.0134552547976057
1001
_KTI_ARE
1070
 29000
1000
LEAF_G
  0
3DFACE
  5
183
  8
0
  6
LEAF_G
 62
     3
 10
0.0039433542348354
 20
-0.0015199830292708
 30
0.0132639167594232
 11
0.0039699145438782
 21
-0.0015115718137057
 31
0.0134552547976057
 12
0.0023155134457287
 22
-0.0007734323431442
 32
0.0137215372230405
 13
0.0022287508474134
 23
-0.0007762037397852
 33
0.0135121948175661
1001
_KTI_ARE
1070
 29000
1000
LEAF_G
  0
3DFACE
  5
184
  8
0
  6
LEAF_G
 62
     3
 10
0.010476174360175
 20
-0.0033563895310339
 30
0.0081490639578429
 11
0.0093150969871432
 21
-0.0041998917793165
 31
0.010072811120427
 12
0.0082364275163968
 22
-0.0043845767620382
 32
0.0111713248920405
 13
0.0086393668284584
 23
-0.0032935002077129
 33
0.0112478492829089
1001
_KTI_ARE
1070
 29000
1000
LEAF_G
  0
3DFACE
  5
185
  8
0
  6
LEAF_G
 62
     3
 10
0.0056200399221801
 20
-0.0022160003147805
 30
0.0128531230254994
 11
0.0064830919322644
 21
-0.0032832307123622
 31
0.0119150834802783
 12
0.0082364275163968
 22
-0.0043845767620382
 32
0.0111713248920405
 13
0.0086393668284584
 23
-0.0032935002077129
 33
0.0112478492829089
1001
_KTI_ARE
1070
 29000
1000
LEAF_G
  0
3DFACE
  5
186
  8
0
  6
LEAF_G
 62
     3
 10
0.0056200399221801
 20
-0.0022160003147805
 30
0.0128531230254994
 11
0.0071600136139007
 21
-0.0019436670589444
 31
0.0122891431423423
 12
0.0092339963103871
 22
-0.0024104829570013
 32
0.011722570709819
 13
0.0086393668284584
 23
-0.0032935002077129
 33
0.0112478492829089
1001
_KTI_ARE
1070
 29000
1000
LEAF_G
  0
3DFACE
  5
187
  8
0
  6
LEAF_G
 62
     3
 10
0.010476174360175
 20
-0.0033563895310339
 30
0.0081490639578429
 11
0.0099920186687795
 21
-0.0028603281258987
 31
0.010446870782491
 12
0.0092339963103871
 22
-0.0024104829570013
 32
0.011722570709819
 13
0.0086393668284584
 23
-0.0032935002077129
 33
0.0112478492829089
1001
_KTI_ARE
1070
 29000
1000
LEAF_G
  0
3DFACE
  5
188
  8
0
  6
LEAF_G
 62
     3
 10
0.0023155134457287
 20
-0.0007734323431442
 30
0.0137215372230405
 11
0.0022287508474134
 21
-0.0007762037397852
 31
0.0135121948175661
 12
0.0007821803458903
 22
0.0000071097962899
 32
0.0133490189493688
 13
0.0009439571552749
 23
-0.0000374714568892
 33
0.0136972371047155
1001
_KTI_ARE
1070
 29000
1000
LEAF_G
  0
3DFACE
  5
189
  8
0
  6
LEAF_G
 62
     3
 10
0.0007821803458903
 20
0.0000071097962899
 30
0.0133490189493688
 11
0.0009439571552749
 21
-0.0000374714568892
 31
0.0136972371047155
 12
0.0002052864584117
 22
0.0004631342100363
 32
0.0134453133029141
 13
0.0000295704693669
 23
0.0006538552383487
 33
0.0130802993532092
1001
_KTI_ARE
1070
 29000
1000
LEAF_G
  0
3DFACE
  5
18A
  8
0
  6
LEAF_G
 62
     3
 10
-0.0012838250927771
 20
0.0060877000792789
 30
0.0081026595151787
 11
-0.0013062661711696
 21
0.0064854977295809
 31
0.0077399006228824
 12
-0.0011280691464287
 22
0.0047794130267899
 32
0.0089266706399742
 13
-0.0012250074056785
 23
0.004827895928207
 33
0.0090867919239531
1001
_KTI_ARE
1070
 29000
1000
LEAF_G
  0
3DFACE
  5
18B
  8
0
  6
LEAF_G
 62
     3
 10
-0.0011280691464287
 20
0.0047794130267899
 30
0.0089266706399742
 11
-0.0012250074056785
 21
0.004827895928207
 31
0.0090867919239531
 12
-0.0009980840743387
 22
0.0031707309555742
 32
0.0097590422965212
 13
-0.0008661425912182
 23
0.003070078988773
 33
0.0096047040366937
1001
_KTI_ARE
1070
 29000
1000
LEAF_G
  0
3DFACE
  5
18C
  8
0
  6
LEAF_G
 62
     3
 10
-0.001412842187647
 20
0.0100903206627777
 30
0.003756918103773
 11
-0.0007333153999326
 21
0.0092819731489015
 31
0.0056758011315393
 12
-0.0003670028968864
 22
0.0086640715174749
 32
0.0065667015867749
 13
-0.0014263532073128
 23
0.0082920289130091
 33
0.0062536116008884
1001
_KTI_ARE
1070
 29000
1000
LEAF_G
  0
3DFACE
  5
18D
  8
0
  6
LEAF_G
 62
     3
 10
-0.0012846437753834
 20
0.0061352273963066
 30
0.008071099085508
 11
-0.0006579773232109
 21
0.007565983494196
 31
0.0074006358041733
 12
-0.0003670028968864
 22
0.0086640715174749
 32
0.0065667015867749
 13
-0.0014263532073128
 23
0.0082920289130091
 33
0.0062536116008884
1001
_KTI_ARE
1070
 29000
1000
LEAF_G
  0
3DFACE
  5
18E
  8
0
  6
LEAF_G
 62
     3
 10
-0.0012846437753834
 20
0.0061352273963066
 30
0.008071099085508
 11
-0.0021675233239539
 21
0.0072961258799903
 31
0.0071980966348579
 12
-0.0025915970032445
 22
0.0082663866123297
 32
0.0062682228109417
 13
-0.0014263532073128
 23
0.0082920289130091
 33
0.0062536116008884
1001
_KTI_ARE
1070
 29000
1000
LEAF_G
  0
3DFACE
  5
18F
  8
0
  6
LEAF_G
 62
     3
 10
-0.001412842187647
 20
0.0100903206627777
 30
0.003756918103773
 11
-0.0022428614006755
 21
0.0090121155346959
 31
0.005473261962224
 12
-0.0025915970032445
 22
0.0082663866123297
 32
0.0062682228109417
 13
-0.0014263532073128
 23
0.0082920289130091
 33
0.0062536116008884
1001
_KTI_ARE
1070
 29000
1000
LEAF_G
  0
3DFACE
  5
190
  8
0
  6
LEAF_G
 62
     3
 10
-0.0009980840743387
 20
0.0031707309555742
 30
0.0097590422965212
 11
-0.0008661425912182
 21
0.003070078988773
 31
0.0096047040366937
 12
-0.0006015665749522
 22
0.0014161977700722
 32
0.0097917141700635
 13
-0.0007935980592475
 23
0.0016278844725454
 33
0.0100519597405123
1001
_KTI_ARE
1070
 29000
1000
LEAF_G
  0
3DFACE
  5
191
  8
0
  6
LEAF_G
 62
     3
 10
-0.0006015665749522
 20
0.0014161977700722
 30
0.0097917141700635
 11
-0.0007935980592475
 21
0.0016278844725454
 31
0.0100519597405123
 12
-0.0006785109907757
 22
0.0005822035943186
 32
0.0100551076263607
 13
-0.0005814419623959
 23
0.0003813305382424
 33
0.0097547148634158
1001
_KTI_ARE
1070
 29000
1000
LEAF_G
  0
3DFACE
  5
192
  8
0
  6
LEAF_G
 62
     3
 10
-0.0001917005417998
 20
-0.0006219184722735
 30
0.0142540213177545
 11
-0.0000753016758141
 21
-0.0008260683994952
 31
0.0145609239393064
 12
-0.0000259503267526
 22
0.0001020898399552
 32
0.0144494769608075
 13
-0.0000259503267526
 23
0.0003897333964433
 33
0.0141063341518538
1001
_KTI_ARE
1070
 29000
1000
LEAF_G
  0
3DFACE
  5
193
  8
0
  6
LEAF_G
 62
     3
 10
-0.0001065537634725
 20
-0.0024065278618193
 30
0.0144652075638831
 11
-0.0001975486963999
 21
-0.0023069755915023
 31
0.0142830841455871
 12
-0.0001917005417998
 22
-0.0006219184722735
 32
0.0142540213177545
 13
-0.0000753016758141
 23
-0.0008260683994952
 33
0.0145609239393064
1001
_KTI_ARE
1070
 29000
1000
LEAF_G
  0
3DFACE
  5
194
  8
0
  6
LEAF_G
 62
     3
 10
-0.0001513617709265
 20
-0.0041089507093987
 30
0.0138348541785926
 11
-0.0000861828312656
 21
-0.0041511587646756
 31
0.0140119322103009
 12
-0.0001065537634725
 22
-0.0024065278618193
 32
0.0144652075638831
 13
-0.0001975486963999
 23
-0.0023069755915023
 33
0.0142830841455871
1001
_KTI_ARE
1070
 29000
1000
LEAF_G
  0
3DFACE
  5
195
  8
0
  6
LEAF_G
 62
     3
 10
-0.0001197065897278
 20
-0.0055202535682266
 30
0.0131851685234581
 11
-0.0001197065897278
 21
-0.0059598488121147
 31
0.0128735652370888
 12
-0.0001513617709265
 22
-0.0041089507093987
 32
0.0138348541785926
 13
-0.0000861828312656
 23
-0.0041511587646756
 33
0.0140119322103009
1001
_KTI_ARE
1070
 29000
1000
LEAF_G
  0
3DFACE
  5
196
  8
0
  6
LEAF_G
 62
     3
 10
-0.0001197065897278
 20
-0.0111293383448588
 30
0.0082884286741413
 11
0.0006536908461697
 21
-0.0097775502471688
 31
0.0102044800234428
 12
0.0010200370000158
 22
-0.008765490643891
 32
0.0112684897744432
 13
-0.0001197065897278
 23
-0.0086085941585339
 33
0.0110813209695594
1001
_KTI_ARE
1070
 29000
1000
LEAF_G
  0
3DFACE
  5
197
  8
0
  6
LEAF_G
 62
     3
 10
-0.0001197065897278
 20
-0.005528166987307
 30
0.0131823128212153
 11
0.0006536908461697
 21
-0.0070947973771677
 31
0.0124533296468952
 12
0.0010200370000158
 22
-0.008765490643891
 32
0.0112684897744432
 13
-0.0001197065897278
 23
-0.0086085941585339
 33
0.0110813209695594
1001
_KTI_ARE
1070
 29000
1000
LEAF_G
  0
3DFACE
  5
198
  8
0
  6
LEAF_G
 62
     3
 10
-0.0001197065897278
 20
-0.005528166987307
 30
0.0131823128212153
 11
-0.0008931040256252
 21
-0.0070947973771677
 31
0.0124533296468952
 12
-0.0012594501794713
 22
-0.008765490643891
 32
0.0112684897744432
 13
-0.0001197065897278
 23
-0.0086085941585339
 33
0.0110813209695594
1001
_KTI_ARE
1070
 29000
1000
LEAF_G
  0
3DFACE
  5
199
  8
0
  6
LEAF_G
 62
     3
 10
-0.0001197065897278
 20
-0.0111293383448588
 30
0.0082884286741413
 11
-0.0008931040256252
 21
-0.0097775502471688
 31
0.0102044800234428
 12
-0.0012594501794713
 22
-0.008765490643891
 32
0.0112684897744432
 13
-0.0001197065897278
 23
-0.0086085941585339
 33
0.0110813209695594
1001
_KTI_ARE
1070
 29000
1000
LEAF_G
  0
3DFACE
  5
19A
  8
0
  6
LEAF_G
 62
     3
 10
0.0091052378760361
 20
-0.0086391319383731
 30
0.0179511739938623
 11
0.0071796553076909
 21
-0.0073715121072764
 31
0.0188354811601596
 12
0.0059824952726218
 22
-0.0065030187801108
 32
0.0191566012099085
 13
0.0067324132888439
 23
-0.005795487625556
 33
0.0186128303452232
1001
_KTI_ARE
1070
 29000
1000
LEAF_G
  0
3DFACE
  5
19B
  8
0
  6
LEAF_G
 62
     3
 10
0.0041659700777975
 20
-0.0030975841798605
 30
0.0184181907805512
 11
0.0048380928635027
 21
-0.0047736686129742
 31
0.0189864185295565
 12
0.0059824952726218
 22
-0.0065030187801108
 32
0.0191566012099085
 13
0.0067324132888439
 23
-0.005795487625556
 33
0.0186128303452232
1001
_KTI_ARE
1070
 29000
1000
LEAF_G
  0
3DFACE
  5
19C
  8
0
  6
LEAF_G
 62
     3
 10
0.0041659700777975
 20
-0.0030975841798605
 30
0.0184181907805512
 11
0.0059318420064535
 21
-0.0037634607872623
 31
0.0185671723768301
 12
0.007594336114865
 22
-0.005014291458009
 32
0.0185387647743116
 13
0.0067324132888439
 23
-0.005795487625556
 33
0.0186128303452232
1001
_KTI_ARE
1070
 29000
1000
LEAF_G
  0
3DFACE
  5
19D
  8
0
  6
LEAF_G
 62
     3
 10
0.0091052378760361
 20
-0.0086391319383731
 30
0.0179511739938623
 11
0.0082734044506416
 21
-0.0063613042815645
 31
0.0184162350074332
 12
0.007594336114865
 22
-0.005014291458009
 32
0.0185387647743116
 13
0.0067324132888439
 23
-0.005795487625556
 33
0.0186128303452232
1001
_KTI_ARE
1070
 29000
1000
LEAF_G
  0
3DFACE
  5
19E
  8
0
  6
LEAF_G
 62
     3
 10
0.0041600225641656
 20
-0.0030921588643757
 30
0.018415747366888
 11
0.0045292609256038
 21
-0.0034841427011724
 31
0.0184345167743871
 12
0.0030412852782696
 22
-0.0020621104916725
 32
0.0180959091337803
 13
0.0030702537445315
 23
-0.001934572321417
 33
0.0182383215156491
1001
_KTI_ARE
1070
 29000
1000
LEAF_G
  0
3DFACE
  5
19F
  8
0
  6
LEAF_G
 62
     3
 10
0.0030412852782696
 20
-0.0020621104916725
 30
0.0180959091337803
 11
0.0030702537445315
 21
-0.001934572321417
 31
0.0182383215156491
 12
0.0017894095601304
 22
-0.0008562134967082
 32
0.0175703462700721
 13
0.0017056252255354
 23
-0.0009765432955815
 33
0.017397544080806
1001
_KTI_ARE
1070
 29000
1000
LEAF_G
  0
3DFACE
  5
1A0
  8
0
  6
LEAF_G
 62
     3
 10
0.0017894095601304
 20
-0.0008562134967082
 30
0.0175703462700721
 11
0.0017056252255354
 21
-0.0009765432955815
 31
0.017397544080806
 12
0.0006051380925627
 22
-0.0001948643950738
 32
0.016388483869223
 13
0.0007442206570915
 23
-0.0000333883473245
 33
0.016710968960584
1001
_KTI_ARE
1070
 29000
1000
LEAF_G
  0
3DFACE
  5
1A1
  8
0
  6
LEAF_G
 62
     3
 10
0.0006051380925627
 20
-0.0001948643950738
 30
0.016388483869223
 11
0.0007442206570915
 21
-0.0000333883473245
 31
0.016710968960584
 12
0.0001949117919434
 22
0.0003707717723933
 32
0.0160696826981163
 13
0.0000922407162944
 23
0.0003032455104837
 33
0.0156391195121572
1001
_KTI_ARE
1070
 29000
1000
LEAF_G
  0
3DFACE
  5
1A2
  8
0
  6
LEAF_G
 62
     3
 10
-0.0082051467948751
 20
0.0088057044218934
 30
0.0132574700802089
 11
-0.006896205935736
 21
0.0085905127057049
 31
0.0149491678909611
 12
-0.0056081834871724
 22
0.0078205819564338
 32
0.0161849991729016
 13
-0.0063272974657916
 23
0.0069278550928099
 33
0.0159738642593528
1001
_KTI_ARE
1070
 29000
1000
LEAF_G
  0
3DFACE
  5
1A3
  8
0
  6
LEAF_G
 62
     3
 10
-0.0041069587944205
 20
0.0047075164214387
 30
0.017375841765064
 11
-0.0047394113831556
 21
0.0064337181531246
 31
0.0169240429766009
 12
-0.0056081834871724
 22
0.0078205819564338
 32
0.0161849991729016
 13
-0.0063272974657916
 23
0.0069278550928099
 33
0.0159738642593528
1001
_KTI_ARE
1070
 29000
1000
LEAF_G
  0
3DFACE
  5
1A4
  8
0
  6
LEAF_G
 62
     3
 10
-0.0041069587944205
 20
0.0047075164214387
 30
0.017375841765064
 11
-0.0058331605261064
 21
0.0053399690101739
 31
0.0169240429766009
 12
-0.0072200243294155
 22
0.0062087411141906
 32
0.0161849991729016
 13
-0.0063272974657916
 23
0.0069278550928099
 33
0.0159738642593528
1001
_KTI_ARE
1070
 29000
1000
LEAF_G
  0
3DFACE
  5
1A5
  8
0
  6
LEAF_G
 62
     3
 10
-0.0082051467948751
 20
0.0088057044218934
 30
0.0132574700802089
 11
-0.0079899550786867
 21
0.0074967635627542
 31
0.0149491678909611
 12
-0.0072200243294155
 22
0.0062087411141906
 32
0.0161849991729016
 13
-0.0063272974657916
 23
0.0069278550928099
 33
0.0159738642593528
1001
_KTI_ARE
1070
 29000
1000
LEAF_G
  0
3DFACE
  5
1A6
  8
0
  6
LEAF_G
 62
     3
 10
-0.0041071622344493
 20
0.0047077198614675
 30
0.0173710181007075
 11
-0.0042562337700763
 21
0.0048567913970946
 31
0.0172841992880807
 12
-0.0029927867232097
 22
0.0036381115367986
 32
0.0169805899997801
 13
-0.0029813094490686
 23
0.003534457322208
 33
0.0171434105126007
1001
_KTI_ARE
1070
 29000
1000
LEAF_G
  0
3DFACE
  5
1A7
  8
0
  6
LEAF_G
 62
     3
 10
-0.0029927867232097
 20
0.0036381115367986
 30
0.0169805899997801
 11
-0.0029813094490686
 21
0.003534457322208
 31
0.0171434105126007
 12
-0.0017310872944951
 22
0.0023130440162396
 32
0.0163221743522196
 13
-0.0016955270325514
 23
0.0024061700225491
 33
0.016118648711194
1001
_KTI_ARE
1070
 29000
1000
LEAF_G
  0
3DFACE
  5
1A8
  8
0
  6
LEAF_G
 62
     3
 10
-0.0017310872944951
 20
0.0023130440162396
 30
0.0163221743522196
 11
-0.0016955270325514
 21
0.0024061700225491
 31
0.016118648711194
 12
-0.0009138149412004
 22
0.0016161873916477
 32
0.0149814236948568
 13
-0.0009673384964784
 23
0.0015050980920039
 33
0.015347769848703
1001
_KTI_ARE
1070
 29000
1000
LEAF_G
  0
3DFACE
  5
1A9
  8
0
  6
LEAF_G
 62
     3
 10
-0.0009138149412004
 20
0.0016161873916477
 30
0.0149814236948568
 11
-0.0009673384964784
 21
0.0015050980920039
 31
0.015347769848703
 12
-0.0002999556831213
 22
0.0009977931599031
 32
0.0142308414762202
 13
-0.0002999556831213
 23
0.0009977931599031
 33
0.0137830850659638
1001
_KTI_ARE
1070
 29000
1000
LEAF_G
  0
3DFACE
  5
1AA
  8
0
  6
LEAF_G
 62
     3
 10
-0.0004189514196019
 20
-0.0000252628053912
 30
0.0144537928042055
 11
-0.0002959834863827
 21
-0.0000160709141409
 31
0.0148201389580517
 12
-0.000069214282744
 22
0.0006395643049481
 32
0.014290972291385
 13
-0.000069214282744
 23
0.0006395643049481
 33
0.0138432158811286
1001
_KTI_ARE
1070
 29000
1000
LEAF_G
  0
3DFACE
  5
1AB
  8
0
  6
LEAF_G
 62
     3
 10
-0.0006632990821879
 20
-0.0012661625857194
 30
0.0156749466503593
 11
-0.0007617287003768
 21
-0.0012819294986656
 31
0.0154714210093337
 12
-0.0004189514196019
 22
-0.0000252628053912
 32
0.0144537928042055
 13
-0.0002959834863827
 23
-0.0000160709141409
 33
0.0148201389580517
1001
_KTI_ARE
1070
 29000
1000
LEAF_G
  0
3DFACE
  5
1AC
  8
0
  6
LEAF_G
 62
     3
 10
-0.001149061315151
 20
-0.0029059270730383
 30
0.0162855235734363
 11
-0.0010650327691768
 21
-0.0028441603547706
 31
0.0164483440862568
 12
-0.0006632990821879
 22
-0.0012661625857194
 32
0.0156749466503593
 13
-0.0007617287003768
 23
-0.0012819294986656
 33
0.0154714210093337
1001
_KTI_ARE
1070
 29000
1000
LEAF_G
  0
3DFACE
  5
1AD
  8
0
  6
LEAF_G
 62
     3
 10
-0.0014872189425442
 20
-0.0042902547476596
 30
0.0168961004965132
 11
-0.001624177353911
 21
-0.0048013904974042
 31
0.0169775107529234
 12
-0.001149061315151
 22
-0.0029059270730383
 32
0.0162855235734363
 13
-0.0010650327691768
 23
-0.0028441603547706
 33
0.0164483440862568
1001
_KTI_ARE
1070
 29000
1000
LEAF_G
  0
3DFACE
  5
1AE
  8
0
  6
LEAF_G
 62
     3
 10
-0.0032571430278992
 20
-0.0108957013597441
 30
0.0168961004965132
 11
-0.0020781527116542
 21
-0.0094838278271624
 31
0.0173845620349747
 12
-0.001271273216541
 22
-0.007887965401261
 32
0.0175473825477953
 13
-0.0023721809852217
 23
-0.0075929780537019
 33
0.0173031517785645
1001
_KTI_ARE
1070
 29000
1000
LEAF_G
  0
3DFACE
  5
1AF
  8
0
  6
LEAF_G
 62
     3
 10
-0.0014872189425442
 20
-0.0042902547476596
 30
0.0169368056247183
 11
-0.0011721201441511
 21
-0.0061024682519287
 31
0.0173845620349747
 12
-0.001271273216541
 22
-0.007887965401261
 32
0.0175473825477953
 13
-0.0023721809852217
 23
-0.0075929780537019
 33
0.0173031517785645
1001
_KTI_ARE
1070
 29000
1000
LEAF_G
  0
3DFACE
  5
1B0
  8
0
  6
LEAF_G
 62
     3
 10
-0.0014872189425442
 20
-0.0042902547476596
 30
0.0169368056247183
 11
-0.0026662092587892
 21
-0.0057021282802413
 31
0.0173845620349747
 12
-0.0034730887539025
 22
-0.0072979907061427
 32
0.0175473825477953
 13
-0.0023721809852217
 23
-0.0075929780537019
 33
0.0173031517785645
1001
_KTI_ARE
1070
 29000
1000
LEAF_G
  0
3DFACE
  5
1B1
  8
0
  6
LEAF_G
 62
     3
 10
-0.0032571430278992
 20
-0.0108957013597441
 30
0.0168961004965132
 11
-0.0035722418262923
 21
-0.009083487855475
 31
0.0173845620349747
 12
-0.0034730887539025
 22
-0.0072979907061427
 32
0.0175473825477953
 13
-0.0023721809852217
 23
-0.0075929780537019
 33
0.0173031517785645
1001
_KTI_ARE
1070
 29000
1000
LEAF_G
  0
POLYLINE
  5
1B7
  8
_KTI_CONTROL
 10
0.0
 20
0.0
 30
0.0
 66
     1
 70
     8
1001
_KTI_ARCHT
1070
 12000
1000
ENVIRONMENT
1070
 10003
1000
02zplt10
1070
 20000
1000
standard
1070
 20001
1000
c:\program files\ketiv\archt
1070
 20003
1000
d:\archt
1070
 20002
1000
c:\program files\ketiv\archt\tmp
1070
 20004
1002
{
1000
c:\program files\ketiv\archt\blks
1000
c:\program files\ketiv\archt\blks3d
1000
e:\archt\blks
1000
e:\archt\blks3d
1000
d:\archt\blks
1000
d:\archt\blks3d
1002
}
1070
 20005
1002
{
1000
c:\program files\ketiv\archt\slds
1002
}
1070
 20006
1002
{
1000
c:\program files\ketiv\archt\dclswin
1002
}
1070
 20007
1002
{
1000
c:\program files\ketiv\archt\docs
1000
e:\archt\docs
1000
d:\archt\docs
1002
}
1070
 20008
1002
{
1000
c:\program files\ketiv\archt\help
1002
}
  0
VERTEX
  5
1B8
  8
_KTI_CONTROL
 10
0.0
 20
0.0
 30
0.0
 70
    32
  0
VERTEX
  5
1B9
  8
_KTI_CONTROL
 10
0.0
 20
0.0
 30
0.0
 70
    32
  0
SEQEND
  5
1BA
  8
_KTI_CONTROL
  0
POLYLINE
  5
1BB
  8
_KTI_CONTROL
 10
0.0
 20
0.0
 30
0.0
 66
     1
 70
     8
1001
_KTI_ARCHT
1070
 12000
1000
ARCHTVARS
1070
 10003
1000
02zplt10
1070
 12030
1000
m
1070
 12020
1070
     1
1070
 12021
1070
     0
1070
 12070
1070
     0
1070
 12071
1070
     1
1070
 12907
1070
     0
1070
 12913
1070
     1
1070
 12914
1070
     1
1070
 12072
1070
     2
1070
 12073
1070
    48
1070
 12074
1070
     0
1070
 12080
1070
     1
1070
 12092
1070
     1
1070
 12096
1070
     0
1070
 12095
1070
     0
1070
 12081
1070
     1
1070
 12082
1070
     1
1070
 12083
1070
     1
1070
 12084
1070
     1
1070
 12085
1070
     0
1070
 12086
1070
     1
1070
 12087
1070
     0
1070
 12088
1070
     0
1070
 12097
1070
     1
1070
 12089
1070
     4
1070
 12090
1070
     6
1070
 12091
1070
     1
1070
 12045
1000

1070
 12046
1000

1070
 12047
1000
standard
1070
 12048
1000

1070
 12049
1000

1070
 12093
1070
     1
1070
 12094
1070
     1
1070
 12908
1070
     0
1070
 12909
1070
     0
1070
 12911
1070
     0
1070
 12910
1070
     0
1070
 12912
1070
     0
1070
 12098
1070
   800
1070
 12060
1002
{
1000

1000

1000

1000

1002
}
1070
 12904
1002
{
1070
     0
1070
     0
1070
     0
1070
     0
1070
     0
1002
}
1070
 12905
1002
{
1040
0.0
1040
0.0
1040
0.0
1040
0.0
1040
0.0
1002
}
1070
 12906
1002
{
1000

1000

1000

1000

1000

1002
}
1070
 12040
1002
{
1002
}
  0
VERTEX
  5
1BC
  8
_KTI_CONTROL
 10
0.0
 20
0.0
 30
0.0
 70
    32
  0
VERTEX
  5
1BD
  8
_KTI_CONTROL
 10
0.0
 20
0.0
 30
0.0
 70
    32
  0
SEQEND
  5
1BE
  8
_KTI_CONTROL
  0
ENDSEC
  0
EOF
