  0
SECTION
  2
HEADER
  9
$ACADVER
  1
AC1009
  9
$DWGCODEPAGE
  3
ansi_1252
  9
$INSBASE
 10
0.0
 20
0.0
 30
0.0
  9
$EXTMIN
 10
-1.949526027369089
 20
0.0221253023740431
 30
-0.0000000349181948
  9
$EXTMAX
 10
2.084812799821961
 20
8.895111123443478
 30
0.0000000814935746
  9
$LIMMIN
 10
0.0
 20
0.0
  9
$LIMMAX
 10
30.0
 20
25.0
  9
$ORTHOMODE
 70
     0
  9
$REGENMODE
 70
     1
  9
$FILLMODE
 70
     1
  9
$QTEXTMODE
 70
     0
  9
$MIRRTEXT
 70
     0
  9
$DRAGMODE
 70
     2
  9
$LTSCALE
 40
0.4
  9
$OSMODE
 70
    37
  9
$ATTMODE
 70
     1
  9
$TEXTSIZE
 40
0.2
  9
$TRACEWID
 40
0.05
  9
$TEXTSTYLE
  7
STANDARD
  9
$CLAYER
  8
ARBOLES
  9
$CELTYPE
  6
BYLAYER
  9
$CECOLOR
 62
   256
  9
$DIMSCALE
 40
1.0
  9
$DIMASZ
 40
0.15
  9
$DIMEXO
 40
0.1
  9
$DIMDLI
 40
0.4
  9
$DIMRND
 40
0.0
  9
$DIMDLE
 40
0.0
  9
$DIMEXE
 40
0.0
  9
$DIMTP
 40
0.0
  9
$DIMTM
 40
0.0
  9
$DIMTXT
 40
0.1
  9
$DIMCEN
 40
0.2
  9
$DIMTSZ
 40
0.0
  9
$DIMTOL
 70
     0
  9
$DIMLIM
 70
     0
  9
$DIMTIH
 70
     1
  9
$DIMTOH
 70
     1
  9
$DIMSE1
 70
     0
  9
$DIMSE2
 70
     0
  9
$DIMTAD
 70
     1
  9
$DIMZIN
 70
     0
  9
$DIMBLK
  1

  9
$DIMASO
 70
     1
  9
$DIMSHO
 70
     0
  9
$DIMPOST
  1

  9
$DIMAPOST
  1

  9
$DIMALT
 70
     0
  9
$DIMALTD
 70
     2
  9
$DIMALTF
 40
25.4
  9
$DIMLFAC
 40
1.0
  9
$DIMTOFL
 70
     0
  9
$DIMTVP
 40
0.0
  9
$DIMTIX
 70
     1
  9
$DIMSOXD
 70
     0
  9
$DIMSAH
 70
     0
  9
$DIMBLK1
  1

  9
$DIMBLK2
  1

  9
$DIMSTYLE
  2
STANDARD
  9
$DIMCLRD
 70
     0
  9
$DIMCLRE
 70
     0
  9
$DIMCLRT
 70
     0
  9
$DIMTFAC
 40
1.0
  9
$DIMGAP
 40
0.09
  9
$LUNITS
 70
     2
  9
$LUPREC
 70
     3
  9
$SKETCHINC
 40
0.1
  9
$FILLETRAD
 40
0.0
  9
$AUNITS
 70
     0
  9
$AUPREC
 70
     2
  9
$MENU
  1
A3ARQ10C
  9
$ELEVATION
 40
0.0
  9
$PELEVATION
 40
0.0
  9
$THICKNESS
 40
0.0
  9
$LIMCHECK
 70
     0
  9
$CHAMFERA
 40
0.0
  9
$CHAMFERB
 40
0.0
  9
$SKPOLY
 70
     0
  9
$TDCREATE
 40
2448281.396533218
  9
$TDUPDATE
 40
2457464.593148148
  9
$TDINDWG
 40
0.0018796991
  9
$TDUSRTIMER
 40
0.0018796991
  9
$USRTIMER
 70
     1
  9
$ANGBASE
 50
0.0
  9
$ANGDIR
 70
     0
  9
$PDMODE
 70
     3
  9
$PDSIZE
 40
0.1
  9
$PLINEWID
 40
0.0
  9
$COORDS
 70
     1
  9
$SPLFRAME
 70
     0
  9
$SPLINETYPE
 70
     6
  9
$SPLINESEGS
 70
     8
  9
$ATTDIA
 70
     0
  9
$ATTREQ
 70
     1
  9
$HANDLING
 70
     1
  9
$HANDSEED
  5
879
  9
$SURFTAB1
 70
     6
  9
$SURFTAB2
 70
     6
  9
$SURFTYPE
 70
     6
  9
$SURFU
 70
     6
  9
$SURFV
 70
     6
  9
$UCSNAME
  2

  9
$UCSORG
 10
0.0
 20
0.0
 30
0.0
  9
$UCSXDIR
 10
1.0
 20
0.0
 30
0.0
  9
$UCSYDIR
 10
0.0
 20
1.0
 30
0.0
  9
$PUCSNAME
  2

  9
$PUCSORG
 10
0.0
 20
0.0
 30
0.0
  9
$PUCSXDIR
 10
1.0
 20
0.0
 30
0.0
  9
$PUCSYDIR
 10
0.0
 20
1.0
 30
0.0
  9
$USERI1
 70
     0
  9
$USERI2
 70
     0
  9
$USERI3
 70
     0
  9
$USERI4
 70
     0
  9
$USERI5
 70
     0
  9
$USERR1
 40
0.0
  9
$USERR2
 40
0.0
  9
$USERR3
 40
0.0
  9
$USERR4
 40
0.0
  9
$USERR5
 40
0.0
  9
$WORLDVIEW
 70
     1
  9
$SHADEDGE
 70
     3
  9
$SHADEDIF
 70
    70
  9
$TILEMODE
 70
     1
  9
$MAXACTVP
 70
    48
  9
$PLIMCHECK
 70
     0
  9
$PEXTMIN
 10
1.000000000000000E+20
 20
1.000000000000000E+20
 30
1.000000000000000E+20
  9
$PEXTMAX
 10
-1.000000000000000E+20
 20
-1.000000000000000E+20
 30
-1.000000000000000E+20
  9
$PLIMMIN
 10
0.0
 20
0.0
  9
$PLIMMAX
 10
12.0
 20
9.0
  9
$UNITMODE
 70
     0
  9
$VISRETAIN
 70
     0
  9
$PLINEGEN
 70
     0
  9
$PSLTSCALE
 70
     0
  0
ENDSEC
  0
SECTION
  2
TABLES
  0
TABLE
  2
VPORT
 70
     1
  0
VPORT
  2
*ACTIVE
 70
     0
 10
0.0
 20
0.0
 11
1.0
 21
1.0
 12
0.0676433862264352
 22
4.45861821290876
 13
0.0
 23
0.0
 14
0.05
 24
0.05
 15
0.0
 25
0.0
 16
0.0
 26
0.0
 36
1.0
 17
0.0
 27
0.0
 37
0.0
 40
8.965412756705575
 41
1.365217391304348
 42
50.0
 43
0.0
 44
0.0
 50
0.0
 51
0.0
 71
     0
 72
   100
 73
     1
 74
     0
 75
     0
 76
     0
 77
     0
 78
     0
  0
ENDTAB
  0
TABLE
  2
LTYPE
 70
     1
  0
LTYPE
  2
CONTINUOUS
 70
     0
  3
Solid line
 72
    65
 73
     0
 40
0.0
  0
ENDTAB
  0
TABLE
  2
LAYER
 70
     2
  0
LAYER
  2
0
 70
     0
 62
     7
  6
CONTINUOUS
  0
LAYER
  2
ARBOLES
 70
     0
 62
     3
  6
CONTINUOUS
  0
ENDTAB
  0
TABLE
  2
STYLE
 70
     1
  0
STYLE
  2
STANDARD
 70
     0
 40
0.0
 41
1.0
 50
0.0
 71
     0
 42
0.2
  3
txt
  4

  0
ENDTAB
  0
TABLE
  2
VIEW
 70
     0
  0
ENDTAB
  0
TABLE
  2
UCS
 70
     0
  0
ENDTAB
  0
TABLE
  2
APPID
 70
     1
  0
APPID
  2
ACAD
 70
     0
  0
ENDTAB
  0
TABLE
  2
DIMSTYLE
 70
     1
  0
DIMSTYLE
  2
STANDARD
 70
     0
  3

  4

  5

  6

  7

 40
1.0
 41
0.18
 42
0.0625
 43
0.38
 44
0.18
 45
0.0
 46
0.0
 47
0.0
 48
0.0
140
0.18
141
0.09
142
0.0
143
25.4
144
1.0
145
0.0
146
1.0
147
0.09
 71
     0
 72
     0
 73
     1
 74
     1
 75
     0
 76
     0
 77
     0
 78
     0
170
     0
171
     2
172
     0
173
     0
174
     0
175
     0
176
     0
177
     0
178
     0
  0
ENDTAB
  0
ENDSEC
  0
SECTION
  2
BLOCKS
  0
BLOCK
  8
0
  2
$MODEL_SPACE
 70
     0
 10
0.0
 20
0.0
 30
0.0
  3
$MODEL_SPACE
  1

  0
ENDBLK
  5
5D
  8
0
  0
BLOCK
 67
     1
  8
0
  2
$PAPER_SPACE
 70
     0
 10
0.0
 20
0.0
 30
0.0
  3
$PAPER_SPACE
  1

  0
ENDBLK
  5
5B
 67
     1
  8
0
  0
BLOCK
  8
ARBOLES
  2
*X0
 70
     1
 10
0.0
 20
0.0
 30
0.0
  3
*X0
  1

  0
LINE
  5
62
  8
0
 62
     0
 10
12.26
 20
7.86888976262815
 30
0.0
 11
12.26
 21
8.604371052884265
 31
0.0
  0
LINE
  5
63
  8
0
 62
     0
 10
12.26
 20
8.86710857834153
 30
0.0
 11
12.26
 21
9.216027005879736
 31
0.0
  0
LINE
  5
64
  8
0
 62
     0
 10
12.24
 20
7.897713734527271
 30
0.0
 11
12.24
 21
8.577895993359343
 31
0.0
  0
LINE
  5
65
  8
0
 62
     0
 10
12.24
 20
8.861225444038105
 30
0.0
 11
12.24
 21
9.19084102569864
 31
0.0
  0
LINE
  5
66
  8
0
 62
     0
 10
12.22
 20
7.914772335506508
 30
0.0
 11
12.22
 21
8.57451728248718
 31
0.0
  0
LINE
  5
67
  8
0
 62
     0
 10
12.22
 20
8.855342309734683
 30
0.0
 11
12.22
 21
9.163965776339673
 31
0.0
  0
LINE
  5
68
  8
0
 62
     0
 10
12.2
 20
7.904508142372102
 30
0.0
 11
12.2
 21
8.571138571615016
 31
0.0
  0
LINE
  5
69
  8
0
 62
     0
 10
12.2
 20
8.84945917543126
 30
0.0
 11
12.2
 21
9.149130214453878
 31
0.0
  0
LINE
  5
6A
  8
0
 62
     0
 10
12.18
 20
7.894243949237694
 30
0.0
 11
12.18
 21
8.567759860742852
 31
0.0
  0
LINE
  5
6B
  8
0
 62
     0
 10
12.18
 20
8.843576041127836
 30
0.0
 11
12.18
 21
9.136077584268651
 31
0.0
  0
LINE
  5
6C
  8
0
 62
     0
 10
12.16
 20
7.874911057216232
 30
0.0
 11
12.16
 21
8.569519053345065
 31
0.0
  0
LINE
  5
6D
  8
0
 62
     0
 10
12.16
 20
8.843446619766366
 30
0.0
 11
12.16
 21
9.065271982393991
 31
0.0
  0
LINE
  5
6E
  8
0
 62
     0
 10
12.14
 20
7.854945082416958
 30
0.0
 11
12.14
 21
8.119085991438384
 31
0.0
  0
LINE
  5
6F
  8
0
 62
     0
 10
12.14
 20
8.849091895954428
 30
0.0
 11
12.14
 21
9.032575460947317
 31
0.0
  0
LINE
  5
70
  8
0
 62
     0
 10
12.14
 20
8.214525998654311
 30
0.0
 11
12.14
 21
8.582620296374253
 31
0.0
  0
LINE
  5
71
  8
0
 62
     0
 10
12.12
 20
7.810079524811562
 30
0.0
 11
12.12
 21
8.11396128327897
 31
0.0
  0
LINE
  5
72
  8
0
 62
     0
 10
12.12
 20
8.857484006849244
 30
0.0
 11
12.12
 21
9.012609486148044
 31
0.0
  0
LINE
  5
73
  8
0
 62
     0
 10
12.12
 20
8.249785191763593
 30
0.0
 11
12.12
 21
8.611178581597796
 31
0.0
  0
LINE
  5
74
  8
0
 62
     0
 10
12.1
 20
7.789345651914403
 30
0.0
 11
12.1
 21
8.109386017644479
 31
0.0
  0
LINE
  5
75
  8
0
 62
     0
 10
12.1
 20
8.865876117744062
 30
0.0
 11
12.1
 21
8.992643511348769
 31
0.0
  0
LINE
  5
76
  8
0
 62
     0
 10
12.1
 20
8.25319893878678
 30
0.0
 11
12.1
 21
8.654360411791474
 31
0.0
  0
LINE
  5
77
  8
0
 62
     0
 10
12.08
 20
7.77110418193425
 30
0.0
 11
12.08
 21
8.109403044728591
 31
0.0
  0
LINE
  5
78
  8
0
 62
     0
 10
12.08
 20
8.890768942855459
 30
0.0
 11
12.08
 21
8.972677536549494
 31
0.0
  0
LINE
  5
79
  8
0
 62
     0
 10
12.08
 20
8.256612685809966
 30
0.0
 11
12.08
 21
8.658564234468123
 31
0.0
  0
LINE
  5
7A
  8
0
 62
     0
 10
12.06
 20
7.755222873147133
 30
0.0
 11
12.06
 21
8.109420071812702
 31
0.0
  0
LINE
  5
7B
  8
0
 62
     0
 10
12.06
 20
8.260026432833152
 30
0.0
 11
12.06
 21
8.66276805714477
 31
0.0
  0
LINE
  5
7C
  8
0
 62
     0
 10
12.04
 20
7.739341564360016
 30
0.0
 11
12.04
 21
8.10649116674323
 31
0.0
  0
LINE
  5
7D
  8
0
 62
     0
 10
12.04
 20
9.033061143900365
 30
0.0
 11
12.04
 21
9.035932806822963
 31
0.0
  0
LINE
  5
7E
  8
0
 62
     0
 10
12.04
 20
8.26760983625555
 30
0.0
 11
12.04
 21
8.666988625478783
 31
0.0
  0
LINE
  5
7F
  8
0
 62
     0
 10
12.02
 20
7.713099905308829
 30
0.0
 11
12.02
 21
8.101366458583815
 31
0.0
  0
LINE
  5
80
  8
0
 62
     0
 10
12.02
 20
8.984290777522645
 30
0.0
 11
12.02
 21
9.066969588562621
 31
0.0
  0
LINE
  5
81
  8
0
 62
     0
 10
12.02
 20
8.279089840383467
 30
0.0
 11
12.02
 21
8.672149639553162
 31
0.0
  0
LINE
  5
82
  8
0
 62
     0
 10
12.0
 20
7.665568740477426
 30
0.0
 11
12.0
 21
8.09613545665647
 31
0.0
  0
LINE
  5
83
  8
0
 62
     0
 10
12.0
 20
8.96093847855244
 30
0.0
 11
12.0
 21
9.087003671747707
 31
0.0
  0
LINE
  5
84
  8
0
 62
     0
 10
12.0
 20
8.292191083412655
 30
0.0
 11
12.0
 21
8.67731065362754
 31
0.0
  0
LINE
  5
85
  8
0
 62
     0
 10
11.98
 20
7.624481314523354
 30
0.0
 11
11.98
 21
8.088248161717075
 31
0.0
  0
LINE
  5
86
  8
0
 62
     0
 10
11.98
 20
8.947117497863502
 30
0.0
 11
11.98
 21
9.107037754932794
 31
0.0
  0
LINE
  5
87
  8
0
 62
     0
 10
11.98
 20
8.296051281162798
 30
0.0
 11
11.98
 21
8.672516667750651
 31
0.0
  0
LINE
  5
88
  8
0
 62
     0
 10
11.96
 20
7.599417318770039
 30
0.0
 11
11.96
 21
8.08036086677768
 31
0.0
  0
LINE
  5
89
  8
0
 62
     0
 10
11.96
 20
8.944973533282427
 30
0.0
 11
11.96
 21
9.11004006563876
 31
0.0
  0
LINE
  5
8A
  8
0
 62
     0
 10
11.96
 20
8.289403528111082
 30
0.0
 11
11.96
 21
8.657115238432871
 31
0.0
  0
LINE
  5
8B
  8
0
 62
     0
 10
11.94
 20
7.578683445872881
 30
0.0
 11
11.94
 21
8.072473571838284
 31
0.0
  0
LINE
  5
8C
  8
0
 62
     0
 10
11.94
 20
8.94499056036654
 30
0.0
 11
11.94
 21
9.110057092722872
 31
0.0
  0
LINE
  5
8D
  8
0
 62
     0
 10
11.94
 20
8.277832914533493
 30
0.0
 11
11.94
 21
8.641713809115089
 31
0.0
  0
LINE
  5
8E
  8
0
 62
     0
 10
11.92
 20
7.524632890776466
 30
0.0
 11
11.92
 21
8.071892508407936
 31
0.0
  0
LINE
  5
8F
  8
0
 62
     0
 10
11.92
 20
8.939311241165699
 30
0.0
 11
11.92
 21
9.110074119806983
 31
0.0
  0
LINE
  5
90
  8
0
 62
     0
 10
11.92
 20
8.261582133036
 30
0.0
 11
11.92
 21
8.640937659425823
 31
0.0
  0
LINE
  5
91
  8
0
 62
     0
 10
11.9
 20
7.477581268307876
 30
0.0
 11
11.9
 21
8.071909535492049
 31
0.0
  0
LINE
  5
92
  8
0
 62
     0
 10
11.9
 20
8.933018763613624
 30
0.0
 11
11.9
 21
9.110091146891095
 31
0.0
  0
LINE
  5
93
  8
0
 62
     0
 10
11.9
 20
8.245331351538509
 30
0.0
 11
11.9
 21
8.640954686509936
 31
0.0
  0
LINE
  5
94
  8
0
 62
     0
 10
11.88
 20
7.471054789717902
 30
0.0
 11
11.88
 21
8.058509231602057
 31
0.0
  0
LINE
  5
95
  8
0
 62
     0
 10
11.88
 20
8.827720404634343
 30
0.0
 11
11.88
 21
9.110108173975206
 31
0.0
  0
LINE
  5
96
  8
0
 62
     0
 10
11.88
 20
8.229644873805043
 30
0.0
 11
11.88
 21
8.63851519110753
 31
0.0
  0
LINE
  5
97
  8
0
 62
     0
 10
11.86
 20
7.466501274323038
 30
0.0
 11
11.86
 21
8.045880452972428
 31
0.0
  0
LINE
  5
98
  8
0
 62
     0
 10
11.86
 20
8.808422639976637
 30
0.0
 11
11.86
 21
9.110125201059319
 31
0.0
  0
LINE
  5
99
  8
0
 62
     0
 10
11.86
 20
8.21481413750209
 30
0.0
 11
11.86
 21
8.632607782427856
 31
0.0
  0
LINE
  5
9A
  8
0
 62
     0
 10
11.84
 20
7.461713684950749
 30
0.0
 11
11.84
 21
8.04589748005654
 31
0.0
  0
LINE
  5
9B
  8
0
 62
     0
 10
11.84
 20
8.794601659287695
 30
0.0
 11
11.84
 21
9.110142228143431
 31
0.0
  0
LINE
  5
9C
  8
0
 62
     0
 10
11.84
 20
8.199983401199141
 30
0.0
 11
11.84
 21
8.629422151456565
 31
0.0
  0
LINE
  5
9D
  8
0
 62
     0
 10
11.82
 20
7.456588976791335
 30
0.0
 11
11.82
 21
8.042067704041802
 31
0.0
  0
LINE
  5
9E
  8
0
 62
     0
 10
11.82
 20
8.793057758858795
 30
0.0
 11
11.82
 21
9.10115609855916
 31
0.0
  0
LINE
  5
9F
  8
0
 62
     0
 10
11.82
 20
8.195022794616488
 30
0.0
 11
11.82
 21
8.629439178540675
 31
0.0
  0
LINE
  5
A0
  8
0
 62
     0
 10
11.8
 20
7.451464268631922
 30
0.0
 11
11.8
 21
8.023211004093895
 31
0.0
  0
LINE
  5
A1
  8
0
 62
     0
 10
11.8
 20
8.793074785942908
 30
0.0
 11
11.8
 21
9.050865530115608
 31
0.0
  0
LINE
  5
A2
  8
0
 62
     0
 10
11.8
 20
8.191644083744324
 30
0.0
 11
11.8
 21
8.611150192823121
 31
0.0
  0
LINE
  5
A3
  8
0
 62
     0
 10
11.78
 20
7.48515534455981
 30
0.0
 11
11.78
 21
8.007462714608973
 31
0.0
  0
LINE
  5
A4
  8
0
 62
     0
 10
11.78
 20
8.793091813027019
 30
0.0
 11
11.78
 21
8.988928404135592
 31
0.0
  0
LINE
  5
A5
  8
0
 62
     0
 10
11.78
 20
8.18826537287216
 30
0.0
 11
11.78
 21
8.573945005977645
 31
0.0
  0
LINE
  5
A6
  8
0
 62
     0
 10
11.76
 20
7.517810269419289
 30
0.0
 11
11.76
 21
7.992061285291193
 31
0.0
  0
LINE
  5
A7
  8
0
 62
     0
 10
11.76
 20
8.87120509959785
 30
0.0
 11
11.76
 21
8.943669045052967
 31
0.0
  0
LINE
  5
A8
  8
0
 62
     0
 10
11.76
 20
8.184880842149038
 30
0.0
 11
11.76
 21
8.374118781742354
 31
0.0
  0
LINE
  5
A9
  8
0
 62
     0
 10
11.74
 20
7.561698056491908
 30
0.0
 11
11.74
 21
7.950537774216654
 31
0.0
  0
LINE
  5
AA
  8
0
 62
     0
 10
11.74
 20
8.181262065753241
 30
0.0
 11
11.74
 21
8.316952815108877
 31
0.0
  0
LINE
  5
AB
  8
0
 62
     0
 10
11.72
 20
7.576863182180053
 30
0.0
 11
11.72
 21
7.873798366785669
 31
0.0
  0
LINE
  5
AC
  8
0
 62
     0
 10
11.72
 20
8.177643289357444
 30
0.0
 11
11.72
 21
8.218523663712157
 31
0.0
  0
LINE
  5
AD
  8
0
 62
     0
 10
11.7
 20
7.576880209264164
 30
0.0
 11
11.7
 21
7.818491404538391
 31
0.0
  0
LINE
  5
AE
  8
0
 62
     0
 10
11.7
 20
8.174024512961648
 30
0.0
 11
11.7
 21
8.17971604446543
 31
0.0
  0
LINE
  5
AF
  8
0
 62
     0
 10
11.68
 20
7.576897236348276
 30
0.0
 11
11.68
 21
7.763184442291108
 31
0.0
  0
LINE
  5
B0
  8
0
 62
     0
 10
11.66
 20
7.60543210582281
 30
0.0
 11
11.66
 21
7.70787748004383
 31
0.0
  0
LINE
  5
B1
  8
0
 62
     0
 10
12.28
 20
7.868872735544038
 30
0.0
 11
12.28
 21
8.640019224738582
 31
0.0
  0
LINE
  5
B2
  8
0
 62
     0
 10
12.28
 20
8.866282821806907
 30
0.0
 11
12.28
 21
9.224155843311832
 31
0.0
  0
LINE
  5
B3
  8
0
 62
     0
 10
12.3
 20
6.792136025575976
 30
0.0
 11
12.3
 21
6.837501873908717
 31
0.0
  0
LINE
  5
B4
  8
0
 62
     0
 10
12.3
 20
8.861121807732529
 30
0.0
 11
12.3
 21
9.21800895704167
 31
0.0
  0
LINE
  5
B5
  8
0
 62
     0
 10
12.3
 20
7.895706937360027
 30
0.0
 11
12.3
 21
8.676236948258053
 31
0.0
  0
LINE
  5
B6
  8
0
 62
     0
 10
12.32
 20
6.764906030748632
 30
0.0
 11
12.32
 21
6.85462053036905
 31
0.0
  0
LINE
  5
B7
  8
0
 62
     0
 10
12.32
 20
8.853538065803066
 30
0.0
 11
12.32
 21
9.198058652455767
 31
0.0
  0
LINE
  5
B8
  8
0
 62
     0
 10
12.32
 20
7.920218235449491
 30
0.0
 11
12.32
 21
8.703252767691946
 31
0.0
  0
LINE
  5
B9
  8
0
 62
     0
 10
12.34
 20
6.761252074426142
 30
0.0
 11
12.34
 21
6.850511878710829
 31
0.0
  0
LINE
  5
BA
  8
0
 62
     0
 10
12.34
 20
8.827351112850687
 30
0.0
 11
12.34
 21
9.198041625371655
 31
0.0
  0
LINE
  5
BB
  8
0
 62
     0
 10
12.34
 20
7.926353447368927
 30
0.0
 11
12.34
 21
8.69015152466276
 31
0.0
  0
LINE
  5
BC
  8
0
 62
     0
 10
12.36
 20
6.757598118103652
 30
0.0
 11
12.36
 21
6.846403227052607
 31
0.0
  0
LINE
  5
BD
  8
0
 62
     0
 10
12.36
 20
8.8170438585598
 30
0.0
 11
12.36
 21
9.198935812753465
 31
0.0
  0
LINE
  5
BE
  8
0
 62
     0
 10
12.36
 20
7.935685650001459
 30
0.0
 11
12.36
 21
8.683419017854694
 31
0.0
  0
LINE
  5
BF
  8
0
 62
     0
 10
12.38
 20
6.753944161781161
 30
0.0
 11
12.38
 21
6.842294575394385
 31
0.0
  0
LINE
  5
C0
  8
0
 62
     0
 10
12.38
 20
8.80673660426891
 30
0.0
 11
12.38
 21
9.20406052091288
 31
0.0
  0
LINE
  5
C1
  8
0
 62
     0
 10
12.38
 20
7.955651624800734
 30
0.0
 11
12.38
 21
8.702275717802602
 31
0.0
  0
LINE
  5
C2
  8
0
 62
     0
 10
12.4
 20
6.743685761505648
 30
0.0
 11
12.4
 21
6.838185923736164
 31
0.0
  0
LINE
  5
C3
  8
0
 62
     0
 10
12.4
 20
8.764369051555134
 30
0.0
 11
12.4
 21
9.209185229072293
 31
0.0
  0
LINE
  5
C4
  8
0
 62
     0
 10
12.4
 20
7.975617599600008
 30
0.0
 11
12.4
 21
8.704238899088532
 31
0.0
  0
LINE
  5
C5
  8
0
 62
     0
 10
12.42
 20
6.733279518964699
 30
0.0
 11
12.42
 21
6.834077272077943
 31
0.0
  0
LINE
  5
C6
  8
0
 62
     0
 10
12.42
 20
8.749485468721828
 30
0.0
 11
12.42
 21
9.21100508537913
 31
0.0
  0
LINE
  5
C7
  8
0
 62
     0
 10
12.42
 20
6.956543761880778
 30
0.0
 11
12.42
 21
7.015458807815483
 31
0.0
  0
LINE
  5
C8
  8
0
 62
     0
 10
12.42
 20
7.990219874675353
 30
0.0
 11
12.42
 21
8.704221872004421
 31
0.0
  0
LINE
  5
C9
  8
0
 62
     0
 10
12.42
 20
7.332190311064913
 30
0.0
 11
12.42
 21
7.349811947603675
 31
0.0
  0
LINE
  5
CA
  8
0
 62
     0
 10
12.44
 20
6.722873276423751
 30
0.0
 11
12.44
 21
6.829968620419722
 31
0.0
  0
LINE
  5
CB
  8
0
 62
     0
 10
12.44
 20
8.734601885888521
 30
0.0
 11
12.44
 21
9.210988058295017
 31
0.0
  0
LINE
  5
CC
  8
0
 62
     0
 10
12.44
 20
6.956526734796666
 30
0.0
 11
12.44
 21
7.040460022012486
 31
0.0
  0
LINE
  5
CD
  8
0
 62
     0
 10
12.44
 20
8.00246917556094
 30
0.0
 11
12.44
 21
8.718626978385759
 31
0.0
  0
LINE
  5
CE
  8
0
 62
     0
 10
12.44
 20
7.327029296990535
 30
0.0
 11
12.44
 21
7.369038417484904
 31
0.0
  0
LINE
  5
CF
  8
0
 62
     0
 10
12.46
 20
6.710635511827013
 30
0.0
 11
12.46
 21
6.837206001861023
 31
0.0
  0
LINE
  5
D0
  8
0
 62
     0
 10
12.46
 20
8.014718476446527
 30
0.0
 11
12.46
 21
9.210971031210907
 31
0.0
  0
LINE
  5
D1
  8
0
 62
     0
 10
12.46
 20
6.960092938281589
 30
0.0
 11
12.46
 21
7.060425996811762
 31
0.0
  0
LINE
  5
D2
  8
0
 62
     0
 10
12.46
 20
7.321720049033233
 30
0.0
 11
12.46
 21
7.377459659330504
 31
0.0
  0
LINE
  5
D3
  8
0
 62
     0
 10
12.46
 20
7.117617331689883
 30
0.0
 11
12.46
 21
7.143904572096777
 31
0.0
  0
LINE
  5
D4
  8
0
 62
     0
 10
12.48
 20
6.691714382192018
 30
0.0
 11
12.48
 21
6.84747019499543
 31
0.0
  0
LINE
  5
D5
  8
0
 62
     0
 10
12.48
 20
8.037514344842322
 30
0.0
 11
12.48
 21
9.197728051089198
 31
0.0
  0
LINE
  5
D6
  8
0
 62
     0
 10
12.48
 20
6.964646453676452
 30
0.0
 11
12.48
 21
7.074914787122088
 31
0.0
  0
LINE
  5
D7
  8
0
 62
     0
 10
12.48
 20
7.315775596516633
 30
0.0
 11
12.48
 21
7.382584367489917
 31
0.0
  0
LINE
  5
D8
  8
0
 62
     0
 10
12.48
 20
7.097583248504798
 30
0.0
 11
12.48
 21
7.157725552785718
 31
0.0
  0
LINE
  5
D9
  8
0
 62
     0
 10
12.5
 20
6.680381176702764
 30
0.0
 11
12.5
 21
6.852424317409554
 31
0.0
  0
LINE
  5
DA
  8
0
 62
     0
 10
12.5
 20
8.070527757656782
 30
0.0
 11
12.5
 21
9.170173473005011
 31
0.0
  0
LINE
  5
DB
  8
0
 62
     0
 10
12.5
 20
6.967404569835117
 30
0.0
 11
12.5
 21
7.159188938894213
 31
0.0
  0
LINE
  5
DC
  8
0
 62
     0
 10
12.5
 20
7.301531729566045
 30
0.0
 11
12.5
 21
7.385325220265331
 31
0.0
  0
LINE
  5
DD
  8
0
 62
     0
 10
12.52
 20
6.690143049596273
 30
0.0
 11
12.52
 21
6.841735413336629
 31
0.0
  0
LINE
  5
DE
  8
0
 62
     0
 10
12.52
 20
8.194090477137296
 30
0.0
 11
12.52
 21
9.150139389819925
 31
0.0
  0
LINE
  5
DF
  8
0
 62
     0
 10
12.52
 20
6.964764297136938
 30
0.0
 11
12.52
 21
7.159171911810102
 31
0.0
  0
LINE
  5
E0
  8
0
 62
     0
 10
12.52
 20
7.260401095345112
 30
0.0
 11
12.52
 21
7.380164206190953
 31
0.0
  0
LINE
  5
E1
  8
0
 62
     0
 10
12.54
 20
6.709369519477503
 30
0.0
 11
12.54
 21
6.82786405664169
 31
0.0
  0
LINE
  5
E2
  8
0
 62
     0
 10
12.54
 20
8.19733649612504
 30
0.0
 11
12.54
 21
9.130105306634837
 31
0.0
  0
LINE
  5
E3
  8
0
 62
     0
 10
12.54
 20
6.962124024438758
 30
0.0
 11
12.54
 21
7.179852232131123
 31
0.0
  0
LINE
  5
E4
  8
0
 62
     0
 10
12.54
 20
7.240367012160024
 30
0.0
 11
12.54
 21
7.375003192116574
 31
0.0
  0
LINE
  5
E5
  8
0
 62
     0
 10
12.56
 20
6.714616581910349
 30
0.0
 11
12.56
 21
6.813429902851161
 31
0.0
  0
LINE
  5
E6
  8
0
 62
     0
 10
12.56
 20
8.197880328793705
 30
0.0
 11
12.56
 21
9.110071223449754
 31
0.0
  0
LINE
  5
E7
  8
0
 62
     0
 10
12.56
 20
6.959483751740579
 30
0.0
 11
12.56
 21
7.373434759297471
 31
0.0
  0
LINE
  5
E8
  8
0
 62
     0
 10
12.58
 20
6.70978228452548
 30
0.0
 11
12.58
 21
6.77478487354989
 31
0.0
  0
LINE
  5
E9
  8
0
 62
     0
 10
12.58
 20
8.204528081845421
 30
0.0
 11
12.58
 21
9.090037140264666
 31
0.0
  0
LINE
  5
EA
  8
0
 62
     0
 10
12.58
 20
6.956843479042399
 30
0.0
 11
12.58
 21
7.373417732213359
 31
0.0
  0
LINE
  5
EB
  8
0
 62
     0
 10
12.6
 20
6.700046946019555
 30
0.0
 11
12.6
 21
6.742005681376238
 31
0.0
  0
LINE
  5
EC
  8
0
 62
     0
 10
12.6
 20
8.209424582685962
 30
0.0
 11
12.6
 21
9.054223326207111
 31
0.0
  0
LINE
  5
ED
  8
0
 62
     0
 10
12.6
 20
6.952101364535813
 30
0.0
 11
12.6
 21
7.31562704221272
 31
0.0
  0
LINE
  5
EE
  8
0
 62
     0
 10
12.6
 20
7.344679293461705
 30
0.0
 11
12.6
 21
7.386432273473168
 31
0.0
  0
LINE
  5
EF
  8
0
 62
     0
 10
12.62
 20
6.690311607513629
 30
0.0
 11
12.62
 21
6.728134324681299
 31
0.0
  0
LINE
  5
F0
  8
0
 62
     0
 10
12.62
 20
8.202482432830454
 30
0.0
 11
12.62
 21
9.02123195335268
 31
0.0
  0
LINE
  5
F1
  8
0
 62
     0
 10
12.62
 20
6.946940350461434
 30
0.0
 11
12.62
 21
7.28934098878855
 31
0.0
  0
LINE
  5
F2
  8
0
 62
     0
 10
12.64
 20
6.934122383921614
 30
0.0
 11
12.64
 21
7.274457405955243
 31
0.0
  0
LINE
  5
F3
  8
0
 62
     0
 10
12.64
 20
8.189900172447917
 30
0.0
 11
12.64
 21
8.996045112308167
 31
0.0
  0
LINE
  5
F4
  8
0
 62
     0
 10
12.66
 20
6.905185622981389
 30
0.0
 11
12.66
 21
7.169253292966348
 31
0.0
  0
LINE
  5
F5
  8
0
 62
     0
 10
12.66
 20
8.16013120580331
 30
0.0
 11
12.66
 21
8.970858271263651
 31
0.0
  0
LINE
  5
F6
  8
0
 62
     0
 10
12.66
 20
7.170636338527028
 30
0.0
 11
12.66
 21
7.259284350679551
 31
0.0
  0
LINE
  5
F7
  8
0
 62
     0
 10
12.66
 20
7.906195973939464
 30
0.0
 11
12.66
 21
7.972895737442463
 31
0.0
  0
LINE
  5
F8
  8
0
 62
     0
 10
12.68
 20
6.898500031961933
 30
0.0
 11
12.68
 21
7.14619480385502
 31
0.0
  0
LINE
  5
F9
  8
0
 62
     0
 10
12.68
 20
8.130362239158703
 30
0.0
 11
12.68
 21
8.945671430219134
 31
0.0
  0
LINE
  5
FA
  8
0
 62
     0
 10
12.68
 20
7.170619311442916
 30
0.0
 11
12.68
 21
7.239250267494465
 31
0.0
  0
LINE
  5
FB
  8
0
 62
     0
 10
12.68
 20
7.906178946855351
 30
0.0
 11
12.68
 21
8.088685518095145
 31
0.0
  0
LINE
  5
FC
  8
0
 62
     0
 10
12.7
 20
6.900187583138502
 30
0.0
 11
12.7
 21
7.12313631474369
 31
0.0
  0
LINE
  5
FD
  8
0
 62
     0
 10
12.7
 20
7.905649603976092
 30
0.0
 11
12.7
 21
8.920484589174617
 31
0.0
  0
LINE
  5
FE
  8
0
 62
     0
 10
12.7
 20
7.181075834059241
 30
0.0
 11
12.7
 21
7.219216184309377
 31
0.0
  0
LINE
  5
FF
  8
0
 62
     0
 10
12.72
 20
6.991578145951229
 30
0.0
 11
12.72
 21
7.100077825632362
 31
0.0
  0
LINE
  5
100
  8
0
 62
     0
 10
12.72
 20
7.898707454120585
 30
0.0
 11
12.72
 21
8.890893621282492
 31
0.0
  0
LINE
  5
101
  8
0
 62
     0
 10
12.72
 20
7.194896814748182
 30
0.0
 11
12.72
 21
7.19918210112429
 31
0.0
  0
LINE
  5
102
  8
0
 62
     0
 10
12.74
 20
7.011544120750502
 30
0.0
 11
12.74
 21
7.082243155859559
 31
0.0
  0
LINE
  5
103
  8
0
 62
     0
 10
12.74
 20
7.887915801656616
 30
0.0
 11
12.74
 21
8.855967628545843
 31
0.0
  0
LINE
  5
104
  8
0
 62
     0
 10
12.76
 20
7.031510095549775
 30
0.0
 11
12.76
 21
7.082226128775448
 31
0.0
  0
LINE
  5
105
  8
0
 62
     0
 10
12.76
 20
7.860944787417734
 30
0.0
 11
12.76
 21
8.821041635809193
 31
0.0
  0
LINE
  5
106
  8
0
 62
     0
 10
12.78
 20
7.830577553357722
 30
0.0
 11
12.78
 21
8.332344415798943
 31
0.0
  0
LINE
  5
107
  8
0
 62
     0
 10
12.78
 20
8.390660400122925
 30
0.0
 11
12.78
 21
8.677104611612842
 31
0.0
  0
LINE
  5
108
  8
0
 62
     0
 10
12.8
 20
7.824174947698624
 30
0.0
 11
12.8
 21
8.297928198648963
 31
0.0
  0
LINE
  5
109
  8
0
 62
     0
 10
12.8
 20
8.394733572824851
 30
0.0
 11
12.8
 21
8.659816405899154
 31
0.0
  0
LINE
  5
10A
  8
0
 62
     0
 10
12.82
 20
7.833868198025359
 30
0.0
 11
12.82
 21
8.279315685616378
 31
0.0
  0
LINE
  5
10B
  8
0
 62
     0
 10
12.82
 20
8.398806745526775
 30
0.0
 11
12.82
 21
8.649509151608266
 31
0.0
  0
LINE
  5
10C
  8
0
 62
     0
 10
12.84
 20
7.849625332746024
 30
0.0
 11
12.84
 21
8.264432102783072
 31
0.0
  0
LINE
  5
10D
  8
0
 62
     0
 10
12.84
 20
8.414869045184037
 30
0.0
 11
12.84
 21
8.63834367812473
 31
0.0
  0
LINE
  5
10E
  8
0
 62
     0
 10
12.86
 20
7.889784923263495
 30
0.0
 11
12.86
 21
8.249548519949766
 31
0.0
  0
LINE
  5
10F
  8
0
 62
     0
 10
12.86
 20
8.434835019983312
 30
0.0
 11
12.86
 21
8.61876490685475
 31
0.0
  0
LINE
  5
110
  8
0
 62
     0
 10
12.88
 20
7.910518796160653
 30
0.0
 11
12.88
 21
8.204686373551391
 31
0.0
  0
LINE
  5
111
  8
0
 62
     0
 10
12.88
 20
8.463734922175428
 30
0.0
 11
12.88
 21
8.599186135584768
 31
0.0
  0
LINE
  5
112
  8
0
 62
     0
 10
12.9
 20
7.943247946176516
 30
0.0
 11
12.9
 21
8.128535360035158
 31
0.0
  0
LINE
  5
113
  8
0
 62
     0
 10
12.9
 20
8.493964637424282
 30
0.0
 11
12.9
 21
8.579607364314787
 31
0.0
  0
ENDBLK
  5
114
  8
ARBOLES
  0
BLOCK
  8
ARBOLES
  2
*X1
 70
     1
 10
0.0
 20
0.0
 30
0.0
  3
*X1
  1

  0
LINE
  5
116
  8
0
 62
     0
 10
11.92
 20
7.276143535216574
 30
0.0
 11
11.92
 21
7.290910506417133
 31
0.0
  0
LINE
  5
117
  8
0
 62
     0
 10
11.92
 20
7.334210862219919
 30
0.0
 11
11.92
 21
7.371099151096078
 31
0.0
  0
LINE
  5
118
  8
0
 62
     0
 10
11.9
 20
7.238636770205608
 30
0.0
 11
11.9
 21
7.370491671774233
 31
0.0
  0
LINE
  5
119
  8
0
 62
     0
 10
11.88
 20
7.21019490449405
 30
0.0
 11
11.88
 21
7.364623394431419
 31
0.0
  0
LINE
  5
11A
  8
0
 62
     0
 10
11.86
 20
6.99160233532763
 30
0.0
 11
11.86
 21
6.993869129097675
 31
0.0
  0
LINE
  5
11B
  8
0
 62
     0
 10
11.86
 20
7.203268458481936
 30
0.0
 11
11.86
 21
7.362157523148862
 31
0.0
  0
LINE
  5
11C
  8
0
 62
     0
 10
11.86
 20
7.021998453128067
 30
0.0
 11
11.86
 21
7.116567756887942
 31
0.0
  0
LINE
  5
11D
  8
0
 62
     0
 10
11.84
 20
6.969264482269399
 30
0.0
 11
11.84
 21
7.147193349647591
 31
0.0
  0
LINE
  5
11E
  8
0
 62
     0
 10
11.84
 20
7.201333965619084
 30
0.0
 11
11.84
 21
7.359848928937132
 31
0.0
  0
LINE
  5
11F
  8
0
 62
     0
 10
11.82
 20
6.989195155796542
 30
0.0
 11
11.82
 21
7.353980651594319
 31
0.0
  0
LINE
  5
120
  8
0
 62
     0
 10
11.8
 20
7.000842595324439
 30
0.0
 11
11.8
 21
7.350299348761655
 31
0.0
  0
LINE
  5
121
  8
0
 62
     0
 10
11.78
 20
7.000794795850191
 30
0.0
 11
11.78
 21
7.350783721220334
 31
0.0
  0
LINE
  5
122
  8
0
 62
     0
 10
11.76
 20
7.002233764091597
 30
0.0
 11
11.76
 21
7.353955970003885
 31
0.0
  0
LINE
  5
123
  8
0
 62
     0
 10
11.74
 20
7.033747390187884
 30
0.0
 11
11.74
 21
7.046694619252281
 31
0.0
  0
LINE
  5
124
  8
0
 62
     0
 10
11.74
 20
7.102294600666792
 30
0.0
 11
11.74
 21
7.359026705658766
 31
0.0
  0
LINE
  5
125
  8
0
 62
     0
 10
11.72
 20
7.126984963398358
 30
0.0
 11
11.72
 21
7.357902579905553
 31
0.0
  0
LINE
  5
126
  8
0
 62
     0
 10
11.7
 20
7.136831738874767
 30
0.0
 11
11.7
 21
7.378407037336069
 31
0.0
  0
LINE
  5
127
  8
0
 62
     0
 10
11.7
 20
7.400681969503029
 30
0.0
 11
11.7
 21
7.417745141695344
 31
0.0
  0
LINE
  5
128
  8
0
 62
     0
 10
11.68
 20
7.136529784013918
 30
0.0
 11
11.68
 21
7.448823028078833
 31
0.0
  0
LINE
  5
129
  8
0
 62
     0
 10
11.68
 20
7.458861442016527
 30
0.0
 11
11.68
 21
7.490868322083157
 31
0.0
  0
LINE
  5
12A
  8
0
 62
     0
 10
11.66
 20
7.128403247921001
 30
0.0
 11
11.66
 21
7.493208865357575
 31
0.0
  0
LINE
  5
12B
  8
0
 62
     0
 10
11.64
 20
7.027679127644495
 30
0.0
 11
11.64
 21
7.091649518234812
 31
0.0
  0
LINE
  5
12C
  8
0
 62
     0
 10
11.64
 20
7.117831140136946
 30
0.0
 11
11.64
 21
7.500230893797504
 31
0.0
  0
LINE
  5
12D
  8
0
 62
     0
 10
11.62
 20
6.995979521802544
 30
0.0
 11
11.62
 21
7.101685241036801
 31
0.0
  0
LINE
  5
12E
  8
0
 62
     0
 10
11.62
 20
7.723909836972796
 30
0.0
 11
11.62
 21
7.798735043097043
 31
0.0
  0
LINE
  5
12F
  8
0
 62
     0
 10
11.62
 20
7.106827156332903
 30
0.0
 11
11.62
 21
7.515974867633215
 31
0.0
  0
LINE
  5
130
  8
0
 62
     0
 10
11.6
 20
6.969965466892885
 30
0.0
 11
11.6
 21
7.527589939010588
 31
0.0
  0
LINE
  5
131
  8
0
 62
     0
 10
11.6
 20
7.715175241336377
 30
0.0
 11
11.6
 21
7.810223073087504
 31
0.0
  0
LINE
  5
132
  8
0
 62
     0
 10
11.58
 20
6.942489572836179
 30
0.0
 11
11.58
 21
7.549721671707675
 31
0.0
  0
LINE
  5
133
  8
0
 62
     0
 10
11.58
 20
7.665045988028595
 30
0.0
 11
11.58
 21
7.80962340647852
 31
0.0
  0
LINE
  5
134
  8
0
 62
     0
 10
11.56
 20
6.92642664402104
 30
0.0
 11
11.56
 21
7.565014362638988
 31
0.0
  0
LINE
  5
135
  8
0
 62
     0
 10
11.56
 20
7.62797889996803
 30
0.0
 11
11.56
 21
7.805559237986574
 31
0.0
  0
LINE
  5
136
  8
0
 62
     0
 10
11.54
 20
6.932474939261532
 30
0.0
 11
11.54
 21
7.353049142693921
 31
0.0
  0
LINE
  5
137
  8
0
 62
     0
 10
11.54
 20
7.625081123305359
 30
0.0
 11
11.54
 21
7.803734188447056
 31
0.0
  0
LINE
  5
138
  8
0
 62
     0
 10
11.54
 20
7.383358601351858
 30
0.0
 11
11.54
 21
7.576097970471024
 31
0.0
  0
LINE
  5
139
  8
0
 62
     0
 10
11.52
 20
6.921258728778497
 30
0.0
 11
11.52
 21
7.347180865351106
 31
0.0
  0
LINE
  5
13A
  8
0
 62
     0
 10
11.52
 20
7.644828690594744
 30
0.0
 11
11.52
 21
7.800784772492287
 31
0.0
  0
LINE
  5
13B
  8
0
 62
     0
 10
11.52
 20
7.381164620729791
 30
0.0
 11
11.52
 21
7.586719163395289
 31
0.0
  0
LINE
  5
13C
  8
0
 62
     0
 10
11.5
 20
6.868039591276921
 30
0.0
 11
11.5
 21
7.345850910771423
 31
0.0
  0
LINE
  5
13D
  8
0
 62
     0
 10
11.5
 20
7.678655932044733
 30
0.0
 11
11.5
 21
7.761231336845348
 31
0.0
  0
LINE
  5
13E
  8
0
 62
     0
 10
11.5
 20
7.380490093150141
 30
0.0
 11
11.5
 21
7.597645072739701
 31
0.0
  0
LINE
  5
13F
  8
0
 62
     0
 10
11.48
 20
6.810525605044135
 30
0.0
 11
11.48
 21
7.339292029016551
 31
0.0
  0
LINE
  5
140
  8
0
 62
     0
 10
11.48
 20
7.399431110516221
 30
0.0
 11
11.48
 21
7.608570982084114
 31
0.0
  0
LINE
  5
141
  8
0
 62
     0
 10
11.46
 20
6.755719963094211
 30
0.0
 11
11.46
 21
7.024791239834965
 31
0.0
  0
LINE
  5
142
  8
0
 62
     0
 10
11.46
 20
7.41078051042495
 30
0.0
 11
11.46
 21
7.61533701837052
 31
0.0
  0
LINE
  5
143
  8
0
 62
     0
 10
11.46
 20
7.072272628212899
 30
0.0
 11
11.46
 21
7.305271639899101
 31
0.0
  0
LINE
  5
144
  8
0
 62
     0
 10
11.44
 20
6.679578710662929
 30
0.0
 11
11.44
 21
7.015098374774994
 31
0.0
  0
LINE
  5
145
  8
0
 62
     0
 10
11.44
 20
7.425044831987178
 30
0.0
 11
11.44
 21
7.614568371084859
 31
0.0
  0
LINE
  5
146
  8
0
 62
     0
 10
11.44
 20
7.091042671703158
 30
0.0
 11
11.44
 21
7.262596084189167
 31
0.0
  0
LINE
  5
147
  8
0
 62
     0
 10
11.42
 20
6.670747659159792
 30
0.0
 11
11.42
 21
7.006092595957992
 31
0.0
  0
LINE
  5
148
  8
0
 62
     0
 10
11.42
 20
7.425249098505769
 30
0.0
 11
11.42
 21
7.608143068888856
 31
0.0
  0
LINE
  5
149
  8
0
 62
     0
 10
11.42
 20
7.097545101438588
 30
0.0
 11
11.42
 21
7.259773423460884
 31
0.0
  0
LINE
  5
14A
  8
0
 62
     0
 10
11.4
 20
6.663220356978515
 30
0.0
 11
11.4
 21
7.000224318615178
 31
0.0
  0
LINE
  5
14B
  8
0
 62
     0
 10
11.4
 20
7.406251020823021
 30
0.0
 11
11.4
 21
7.59623335506902
 31
0.0
  0
LINE
  5
14C
  8
0
 62
     0
 10
11.4
 20
7.105390170446767
 30
0.0
 11
11.4
 21
7.272549627619239
 31
0.0
  0
LINE
  5
14D
  8
0
 62
     0
 10
11.38
 20
6.669268652219006
 30
0.0
 11
11.38
 21
6.983187610859273
 31
0.0
  0
LINE
  5
14E
  8
0
 62
     0
 10
11.38
 20
7.39087816277778
 30
0.0
 11
11.38
 21
7.590001449865071
 31
0.0
  0
LINE
  5
14F
  8
0
 62
     0
 10
11.38
 20
7.102655206471038
 30
0.0
 11
11.38
 21
7.281209408504902
 31
0.0
  0
LINE
  5
150
  8
0
 62
     0
 10
11.36
 20
6.694488135404201
 30
0.0
 11
11.36
 21
6.975337151012567
 31
0.0
  0
LINE
  5
151
  8
0
 62
     0
 10
11.36
 20
7.384301134799255
 30
0.0
 11
11.36
 21
7.569826257228938
 31
0.0
  0
LINE
  5
152
  8
0
 62
     0
 10
11.36
 20
7.088265026586114
 30
0.0
 11
11.36
 21
7.2865757998274
 31
0.0
  0
LINE
  5
153
  8
0
 62
     0
 10
11.34
 20
6.704909484398705
 30
0.0
 11
11.34
 21
6.961190511831894
 31
0.0
  0
LINE
  5
154
  8
0
 62
     0
 10
11.34
 20
7.385930515467904
 30
0.0
 11
11.34
 21
7.530807195360434
 31
0.0
  0
LINE
  5
155
  8
0
 62
     0
 10
11.34
 20
7.074798743731771
 30
0.0
 11
11.34
 21
7.28590127224775
 31
0.0
  0
LINE
  5
156
  8
0
 62
     0
 10
11.32
 20
6.700190895800676
 30
0.0
 11
11.32
 21
6.93436719352247
 31
0.0
  0
LINE
  5
157
  8
0
 62
     0
 10
11.32
 20
7.398691940615541
 30
0.0
 11
11.32
 21
7.460285149190261
 31
0.0
  0
LINE
  5
158
  8
0
 62
     0
 10
11.32
 20
7.044824970225943
 30
0.0
 11
11.32
 21
7.292951010342038
 31
0.0
  0
LINE
  5
159
  8
0
 62
     0
 10
11.3
 20
6.702218612553546
 30
0.0
 11
11.3
 21
6.897859268228723
 31
0.0
  0
LINE
  5
15A
  8
0
 62
     0
 10
11.3
 20
7.027796711519575
 30
0.0
 11
11.3
 21
7.277843614443395
 31
0.0
  0
LINE
  5
15B
  8
0
 62
     0
 10
11.28
 20
6.732269085679912
 30
0.0
 11
11.28
 21
6.738991386363075
 31
0.0
  0
LINE
  5
15C
  8
0
 62
     0
 10
11.28
 20
7.012553478046268
 30
0.0
 11
11.28
 21
7.25203382370458
 31
0.0
  0
LINE
  5
15D
  8
0
 62
     0
 10
11.28
 20
6.77708841560843
 30
0.0
 11
11.28
 21
6.837311693229433
 31
0.0
  0
LINE
  5
15E
  8
0
 62
     0
 10
11.26
 20
7.006637899217389
 30
0.0
 11
11.26
 21
7.236969177642078
 31
0.0
  0
LINE
  5
15F
  8
0
 62
     0
 10
11.24
 20
7.158656837383754
 30
0.0
 11
11.24
 21
7.237926722860442
 31
0.0
  0
LINE
  5
160
  8
0
 62
     0
 10
11.22
 20
7.193219664688827
 30
0.0
 11
11.22
 21
7.218998923156538
 31
0.0
  0
LINE
  5
161
  8
0
 62
     0
 10
13.02
 20
8.26175385371694
 30
0.0
 11
13.02
 21
8.276899242426996
 31
0.0
  0
LINE
  5
162
  8
0
 62
     0
 10
13.04
 20
7.996874218063068
 30
0.0
 11
13.04
 21
8.033591800930441
 31
0.0
  0
LINE
  5
163
  8
0
 62
     0
 10
13.04
 20
8.266985768147297
 30
0.0
 11
13.04
 21
8.294696922359423
 31
0.0
  0
LINE
  5
164
  8
0
 62
     0
 10
13.06
 20
7.988749309920911
 30
0.0
 11
13.06
 21
8.041349000010296
 31
0.0
  0
LINE
  5
165
  8
0
 62
     0
 10
13.06
 20
8.254437799151814
 30
0.0
 11
13.06
 21
8.300565199702238
 31
0.0
  0
LINE
  5
166
  8
0
 62
     0
 10
13.06
 20
8.090155393030527
 30
0.0
 11
13.06
 21
8.097626895497628
 31
0.0
  0
LINE
  5
167
  8
0
 62
     0
 10
13.06
 20
8.169008440264484
 30
0.0
 11
13.06
 21
8.182899272036503
 31
0.0
  0
LINE
  5
168
  8
0
 62
     0
 10
13.08
 20
7.983073546857126
 30
0.0
 11
13.08
 21
8.037465412636879
 31
0.0
  0
LINE
  5
169
  8
0
 62
     0
 10
13.08
 20
8.235742840008593
 30
0.0
 11
13.08
 21
8.306433477045053
 31
0.0
  0
LINE
  5
16A
  8
0
 62
     0
 10
13.08
 20
8.09602367037334
 30
0.0
 11
13.08
 21
8.201495787075832
 31
0.0
  0
LINE
  5
16B
  8
0
 62
     0
 10
13.1
 20
7.972417771587581
 30
0.0
 11
13.1
 21
8.049013739511151
 31
0.0
  0
LINE
  5
16C
  8
0
 62
     0
 10
13.1
 20
8.311748275203971
 30
0.0
 11
13.1
 21
8.313425024505529
 31
0.0
  0
LINE
  5
16D
  8
0
 62
     0
 10
13.1
 20
8.101891947716156
 30
0.0
 11
13.1
 21
8.296056386488948
 31
0.0
  0
LINE
  5
16E
  8
0
 62
     0
 10
13.12
 20
7.965180078689119
 30
0.0
 11
13.12
 21
8.060562066385426
 31
0.0
  0
LINE
  5
16F
  8
0
 62
     0
 10
13.12
 20
8.101571701333333
 30
0.0
 11
13.12
 21
8.280697847884102
 31
0.0
  0
LINE
  5
170
  8
0
 62
     0
 10
13.14
 20
7.960109343034239
 30
0.0
 11
13.14
 21
8.05722380688746
 31
0.0
  0
LINE
  5
171
  8
0
 62
     0
 10
13.14
 20
8.107439978676148
 30
0.0
 11
13.14
 21
8.26540270164576
 31
0.0
  0
LINE
  5
172
  8
0
 62
     0
 10
13.16
 20
7.973556357289316
 30
0.0
 11
13.16
 21
8.049517893882168
 31
0.0
  0
LINE
  5
173
  8
0
 62
     0
 10
13.16
 20
8.240934840472795
 30
0.0
 11
13.16
 21
8.253463305715798
 31
0.0
  0
LINE
  5
174
  8
0
 62
     0
 10
13.16
 20
8.117312111483333
 30
0.0
 11
13.16
 21
8.217833698461488
 31
0.0
  0
LINE
  5
175
  8
0
 62
     0
 10
13.18
 20
7.983802576863432
 30
0.0
 11
13.18
 21
8.027298474061153
 31
0.0
  0
LINE
  5
176
  8
0
 62
     0
 10
13.18
 20
8.104784755409545
 30
0.0
 11
13.18
 21
8.206054492788244
 31
0.0
  0
LINE
  5
177
  8
0
 62
     0
 10
13.2
 20
7.983965347471499
 30
0.0
 11
13.2
 21
8.01712860413033
 31
0.0
  0
LINE
  5
178
  8
0
 62
     0
 10
13.2
 20
8.139748237055395
 30
0.0
 11
13.2
 21
8.197205011548823
 31
0.0
  0
LINE
  5
179
  8
0
 62
     0
 10
13.22
 20
7.986487036780644
 30
0.0
 11
13.22
 21
8.004888563697442
 31
0.0
  0
LINE
  5
17A
  8
0
 62
     0
 10
13.22
 20
8.161335142380517
 30
0.0
 11
13.22
 21
8.190099934573077
 31
0.0
  0
ENDBLK
  5
17B
  8
ARBOLES
  0
ENDSEC
  0
SECTION
  2
ENTITIES
  0
POLYLINE
  5
17C
  8
0
 62
     0
 66
     1
 10
0.0
 20
0.0
 30
0.0
  0
VERTEX
  5
53C
  8
0
 62
     0
 10
0.246088102331246
 20
0.4292079441267092
 30
0.0
  0
VERTEX
  5
53D
  8
0
 62
     0
 10
0.2459796230448354
 20
0.301788257118222
 30
0.0
  0
VERTEX
  5
53E
  8
0
 62
     0
 10
0.2979332779562931
 20
0.0990307408057332
 30
0.0
  0
VERTEX
  5
53F
  8
0
 62
     0
 10
0.3731848169188297
 20
0.0497363057923037
 30
0.0
  0
VERTEX
  5
540
  8
0
 62
     0
 10
0.4252888635682623
 20
0.023628810105218
 30
0.0
  0
SEQEND
  5
856
  8
0
 62
     0
  0
POLYLINE
  5
183
  8
0
 62
     0
 66
     1
 10
0.0
 20
0.0
 30
0.0
  0
VERTEX
  5
541
  8
0
 62
     0
 10
-0.2831977685775229
 20
4.611344040239331
 30
0.0
  0
VERTEX
  5
542
  8
0
 62
     0
 10
-0.3069246388975913
 20
3.953994014861252
 30
0.0
  0
VERTEX
  5
543
  8
0
 62
     0
 10
-0.3074645698913123
 20
3.31979148179628
 30
0.0
  0
VERTEX
  5
544
  8
0
 62
     0
 10
-0.2846647043823864
 20
2.888282363647285
 30
0.0
  0
VERTEX
  5
545
  8
0
 62
     0
 10
-0.2848791975168758
 20
2.636338891607775
 30
0.0
  0
VERTEX
  5
546
  8
0
 62
     0
 10
-0.2593338217684611
 20
2.028177287395046
 30
0.0
  0
VERTEX
  5
547
  8
0
 62
     0
 10
-0.233509851489039
 20
1.747252606635932
 30
0.0
  0
VERTEX
  5
548
  8
0
 62
     0
 10
-0.2336602432270141
 20
1.57060258601053
 30
0.0
  0
VERTEX
  5
549
  8
0
 62
     0
 10
-0.2077697061127495
 20
1.367867258642988
 30
0.0
  0
VERTEX
  5
54A
  8
0
 62
     0
 10
-0.2078559964542137
 20
1.266510689431691
 30
0.0
  0
VERTEX
  5
54B
  8
0
 62
     0
 10
-0.2079644757406207
 20
1.139091002423203
 30
0.0
  0
VERTEX
  5
54C
  8
0
 62
     0
 10
-0.1850117530553881
 20
0.8871278068770749
 30
0.0
  0
VERTEX
  5
54D
  8
0
 62
     0
 10
-0.234436856300178
 20
0.6583934631088582
 30
0.0
  0
VERTEX
  5
54E
  8
0
 62
     0
 10
-0.2345453355865885
 20
0.530973776100371
 30
0.0
  0
VERTEX
  5
54F
  8
0
 62
     0
 10
-0.2606725547802924
 20
0.4557025136312127
 30
0.0
  0
VERTEX
  5
550
  8
0
 62
     0
 10
-0.2868860643154605
 20
0.2790746819507559
 30
0.0
  0
VERTEX
  5
551
  8
0
 62
     0
 10
-0.2869304422053567
 20
0.2269484463563751
 30
0.0
  0
VERTEX
  5
552
  8
0
 62
     0
 10
-0.3101617594215966
 20
0.1516747184488887
 30
0.0
  0
VERTEX
  5
553
  8
0
 62
     0
 10
-0.3362889786153005
 20
0.0764034559797304
 30
0.0
  0
VERTEX
  5
554
  8
0
 62
     0
 10
-0.3884374031546294
 20
0.0503847160724353
 30
0.0
  0
VERTEX
  5
555
  8
0
 62
     0
 10
-0.4637530435136838
 20
0.0243856996717584
 30
0.0
  0
SEQEND
  5
857
  8
0
 62
     0
  0
POLYLINE
  5
19A
  8
0
 62
     0
 66
     1
 10
0.0
 20
0.0
 30
0.0
 70
     1
  0
VERTEX
  5
556
  8
0
 62
     0
 10
-1.131552906161243
 20
6.027698237076088
 30
0.0
  0
VERTEX
  5
557
  8
0
 62
     0
 10
-1.141029620743055
 20
6.01254059015157
 30
0.0
  0
VERTEX
  5
558
  8
0
 62
     0
 10
-1.137267924529294
 20
5.999720145601973
 30
0.0
  0
VERTEX
  5
559
  8
0
 62
     0
 10
-1.142564976651371
 20
5.970317560289015
 30
0.0
  0
VERTEX
  5
55A
  8
0
 62
     0
 10
-1.135459550469822
 20
5.946101165028661
 30
0.0
  0
VERTEX
  5
55B
  8
0
 62
     0
 10
-1.127936158042299
 20
5.920460275929464
 30
0.0
  0
VERTEX
  5
55C
  8
0
 62
     0
 10
-1.1407566025919
 20
5.916698579715703
 30
0.0
  0
VERTEX
  5
55D
  8
0
 62
     0
 10
-1.145047127121103
 20
5.889138454487565
 30
0.0
  0
VERTEX
  5
55E
  8
0
 62
     0
 10
-1.1835084607699
 20
5.877853365846281
 30
0.0
  0
VERTEX
  5
55F
  8
0
 62
     0
 10
-1.1835084607699
 20
5.877853365846281
 30
0.0
  0
VERTEX
  5
560
  8
0
 62
     0
 10
-1.191142715266892
 20
5.861689191328896
 30
0.0
  0
VERTEX
  5
561
  8
0
 62
     0
 10
-1.203963159816492
 20
5.857927495115135
 30
0.0
  0
VERTEX
  5
562
  8
0
 62
     0
 10
-1.22249862273414
 20
5.826187707427259
 30
0.0
  0
VERTEX
  5
563
  8
0
 62
     0
 10
-1.214975230306617
 20
5.800546818328062
 30
0.0
  0
VERTEX
  5
564
  8
0
 62
     0
 10
-1.222609484803613
 20
5.784382643810677
 30
0.0
  0
VERTEX
  5
565
  8
0
 62
     0
 10
-1.228324503171663
 20
5.756404552336562
 30
0.0
  0
VERTEX
  5
566
  8
0
 62
     0
 10
-1.254494220586302
 20
5.708500590131305
 30
0.0
  0
VERTEX
  5
567
  8
0
 62
     0
 10
-1.289193858021338
 20
5.684395056940421
 30
0.0
  0
VERTEX
  5
568
  8
0
 62
     0
 10
-1.340859516440361
 20
5.72338521890466
 30
0.0
  0
VERTEX
  5
569
  8
0
 62
     0
 10
-1.351726638835668
 20
5.760422058714614
 30
0.0
  0
VERTEX
  5
56A
  8
0
 62
     0
 10
-1.394333548918851
 20
5.815994361442211
 30
0.0
  0
VERTEX
  5
56B
  8
0
 62
     0
 10
-1.401438975100401
 20
5.840210756702565
 30
0.0
  0
VERTEX
  5
56C
  8
0
 62
     0
 10
-1.384601024172753
 20
5.967374588580334
 30
0.0
  0
VERTEX
  5
56D
  8
0
 62
     0
 10
-1.37125175130771
 20
6.011516854571834
 30
0.0
  0
VERTEX
  5
56E
  8
0
 62
     0
 10
-1.353134254636036
 20
6.04468113609855
 30
0.0
  0
VERTEX
  5
56F
  8
0
 62
     0
 10
-1.316097414826082
 20
6.055548258493861
 30
0.0
  0
VERTEX
  5
570
  8
0
 62
     0
 10
-1.288119323351971
 20
6.04983324012581
 30
0.0
  0
VERTEX
  5
571
  8
0
 62
     0
 10
-1.275298878802371
 20
6.053594936339572
 30
0.0
  0
VERTEX
  5
572
  8
0
 62
     0
 10
-1.238262038992421
 20
6.064462058734883
 30
0.0
  0
VERTEX
  5
573
  8
0
 62
     0
 10
-1.184643058419109
 20
6.066270432794354
 30
0.0
  0
VERTEX
  5
574
  8
0
 62
     0
 10
-1.151896743138366
 20
6.049577429961523
 30
0.0
  0
VERTEX
  5
575
  8
0
 62
     0
 10
-1.116813225482701
 20
6.01964601633312
 30
0.0
  0
SEQEND
  5
858
  8
0
 62
     0
  0
POLYLINE
  5
1BC
  8
0
 62
     0
 66
     1
 10
0.0
 20
0.0
 30
0.0
 70
     1
  0
VERTEX
  5
576
  8
0
 62
     0
 10
-1.601599702635777
 20
4.996496352885707
 30
0.0
  0
VERTEX
  5
577
  8
0
 62
     0
 10
-1.634346017916521
 20
5.013189355718538
 30
0.0
  0
VERTEX
  5
578
  8
0
 62
     0
 10
-1.662324109390635
 20
5.018904374086588
 30
0.0
  0
VERTEX
  5
579
  8
0
 62
     0
 10
-1.715943089963947
 20
5.017096000027117
 30
0.0
  0
VERTEX
  5
57A
  8
0
 62
     0
 10
-1.74868940524469
 20
5.033789002859947
 30
0.0
  0
VERTEX
  5
57B
  8
0
 62
     0
 10
-1.791441263422694
 20
4.994943788990525
 30
0.0
  0
VERTEX
  5
57C
  8
0
 62
     0
 10
-1.808134266255525
 20
4.962197473709779
 30
0.0
  0
VERTEX
  5
57D
  8
0
 62
     0
 10
-1.863706568983122
 20
4.919590563626596
 30
0.0
  0
VERTEX
  5
57E
  8
0
 62
     0
 10
-1.904505105006834
 20
4.921543885780885
 30
0.0
  0
VERTEX
  5
57F
  8
0
 62
     0
 10
-1.92638429789227
 20
4.901200048803762
 30
0.0
  0
VERTEX
  5
580
  8
0
 62
     0
 10
-1.946838996938862
 20
4.881274178072616
 30
0.0
  0
VERTEX
  5
581
  8
0
 62
     0
 10
-1.948792319093151
 20
4.840475642048904
 30
0.0
  0
VERTEX
  5
582
  8
0
 62
     0
 10
-1.917581359720721
 20
4.781559609353518
 30
0.0
  0
VERTEX
  5
583
  8
0
 62
     0
 10
-1.893893792775813
 20
4.748284465757326
 30
0.0
  0
VERTEX
  5
584
  8
0
 62
     0
 10
-1.871630719669753
 20
4.714591355915164
 30
0.0
  0
VERTEX
  5
585
  8
0
 62
     0
 10
-1.877456600107273
 20
4.644808200824468
 30
0.0
  0
VERTEX
  5
586
  8
0
 62
     0
 10
-1.886515348443112
 20
4.628226060061106
 30
0.0
  0
VERTEX
  5
587
  8
0
 62
     0
 10
-1.888997498912843
 20
4.547046954259656
 30
0.0
  0
VERTEX
  5
588
  8
0
 62
     0
 10
-1.881474106485321
 20
4.521406065160459
 30
0.0
  0
VERTEX
  5
589
  8
0
 62
     0
 10
-1.88342742863961
 20
4.480607529136748
 30
0.0
  0
VERTEX
  5
58A
  8
0
 62
     0
 10
-1.892486176975449
 20
4.46402538837339
 30
0.0
  0
VERTEX
  5
58B
  8
0
 62
     0
 10
-1.863083591662491
 20
4.458728336251312
 30
0.0
  0
VERTEX
  5
58C
  8
0
 62
     0
 10
-1.826046751852541
 20
4.469595458646623
 30
0.0
  0
VERTEX
  5
58D
  8
0
 62
     0
 10
-1.792771608256349
 20
4.493283025591531
 30
0.0
  0
VERTEX
  5
58E
  8
0
 62
     0
 10
-1.750437716324321
 20
4.533552733299796
 30
0.0
  0
VERTEX
  5
58F
  8
0
 62
     0
 10
-1.737617271774724
 20
4.537314429513557
 30
0.0
  0
VERTEX
  5
590
  8
0
 62
     0
 10
-1.740961001742512
 20
4.548710380224311
 30
0.0
  0
VERTEX
  5
591
  8
0
 62
     0
 10
-1.728140557192912
 20
4.552472076438072
 30
0.0
  0
VERTEX
  5
592
  8
0
 62
     0
 10
-1.724267998909681
 20
4.581456695505057
 30
0.0
  0
VERTEX
  5
593
  8
0
 62
     0
 10
-1.689568361474645
 20
4.605562228695938
 30
0.0
  0
VERTEX
  5
594
  8
0
 62
     0
 10
-1.655875251632484
 20
4.627825301802002
 30
0.0
  0
VERTEX
  5
595
  8
0
 62
     0
 10
-1.635420552585892
 20
4.647751172533148
 30
0.0
  0
VERTEX
  5
596
  8
0
 62
     0
 10
-1.596959218937094
 20
4.659036261174432
 30
0.0
  0
VERTEX
  5
597
  8
0
 62
     0
 10
-1.56898112746298
 20
4.653321242806381
 30
0.0
  0
VERTEX
  5
598
  8
0
 62
     0
 10
-1.536234812182236
 20
4.63662823997355
 30
0.0
  0
VERTEX
  5
599
  8
0
 62
     0
 10
-1.508256720708122
 20
4.6309132216055
 30
0.0
  0
VERTEX
  5
59A
  8
0
 62
     0
 10
-1.471748709213617
 20
4.601399774223072
 30
0.0
  0
VERTEX
  5
59B
  8
0
 62
     0
 10
-1.449485636107553
 20
4.567706664380907
 30
0.0
  0
VERTEX
  5
59C
  8
0
 62
     0
 10
-1.42538010291667
 20
4.533007026945874
 30
0.0
  0
VERTEX
  5
59D
  8
0
 62
     0
 10
-1.455311516545073
 20
4.49792350929021
 30
0.0
  0
VERTEX
  5
59E
  8
0
 62
     0
 10
-1.492348356355023
 20
4.487056386894903
 30
0.0
  0
VERTEX
  5
59F
  8
0
 62
     0
 10
-1.514227549240459
 20
4.46671254991778
 30
0.0
  0
VERTEX
  5
5A0
  8
0
 62
     0
 10
-1.538443944500813
 20
4.459607123736234
 30
0.0
  0
VERTEX
  5
5A1
  8
0
 62
     0
 10
-1.56408483360001
 20
4.452083731308711
 30
0.0
  0
VERTEX
  5
5A2
  8
0
 62
     0
 10
-1.588301228860363
 20
4.444978305127162
 30
0.0
  0
VERTEX
  5
5A3
  8
0
 62
     0
 10
-1.610180421745799
 20
4.424634468150042
 30
0.0
  0
VERTEX
  5
5A4
  8
0
 62
     0
 10
-1.631053087038364
 20
4.40613309125774
 30
0.0
  0
VERTEX
  5
5A5
  8
0
 62
     0
 10
-1.680910371397914
 20
4.391504272648671
 30
0.0
  0
VERTEX
  5
5A6
  8
0
 62
     0
 10
-1.70278956428335
 20
4.371160435671548
 30
0.0
  0
VERTEX
  5
5A7
  8
0
 62
     0
 10
-1.719482567116181
 20
4.338414120390805
 30
0.0
  0
VERTEX
  5
5A8
  8
0
 62
     0
 10
-1.741779726247589
 20
4.319494777252526
 30
0.0
  0
VERTEX
  5
5A9
  8
0
 62
     0
 10
-1.75847272908042
 20
4.286748461971783
 30
0.0
  0
VERTEX
  5
5AA
  8
0
 62
     0
 10
-1.786066940333907
 20
4.238426533520549
 30
0.0
  0
VERTEX
  5
5AB
  8
0
 62
     0
 10
-1.804713265321027
 20
4.164881682216091
 30
0.0
  0
VERTEX
  5
5AC
  8
0
 62
     0
 10
-1.821824234399831
 20
4.133559860774191
 30
0.0
  0
VERTEX
  5
5AD
  8
0
 62
     0
 10
-1.832836304889959
 20
4.076179183987119
 30
0.0
  0
VERTEX
  5
5AE
  8
0
 62
     0
 10
-1.825312912462437
 20
4.050538294887922
 30
0.0
  0
VERTEX
  5
5AF
  8
0
 62
     0
 10
-1.831027930830487
 20
4.022560203413807
 30
0.0
  0
VERTEX
  5
5B0
  8
0
 62
     0
 10
-1.819742842189203
 20
3.984098869765013
 30
0.0
  0
VERTEX
  5
5B1
  8
0
 62
     0
 10
-1.820271670504649
 20
3.943718299987275
 30
0.0
  0
VERTEX
  5
5B2
  8
0
 62
     0
 10
-1.8259866888727
 20
3.91574020851316
 30
0.0
  0
VERTEX
  5
5B3
  8
0
 62
     0
 10
-1.811357870263627
 20
3.86588292415361
 30
0.0
  0
VERTEX
  5
5B4
  8
0
 62
     0
 10
-1.779618082575755
 20
3.847347461235962
 30
0.0
  0
VERTEX
  5
5B5
  8
0
 62
     0
 10
-1.737395052713197
 20
3.845812105327646
 30
0.0
  0
VERTEX
  5
5B6
  8
0
 62
     0
 10
-1.700358212903247
 20
3.856679227722957
 30
0.0
  0
VERTEX
  5
5B7
  8
0
 62
     0
 10
-1.669036391461344
 20
3.839568258644153
 30
0.0
  0
VERTEX
  5
5B8
  8
0
 62
     0
 10
-1.628766683753078
 20
3.797234366712125
 30
0.0
  0
VERTEX
  5
5B9
  8
0
 62
     0
 10
-1.625004987539317
 20
3.784413922162525
 30
0.0
  0
VERTEX
  5
5BA
  8
0
 62
     0
 10
-1.580862721547817
 20
3.771064649297482
 30
0.0
  0
VERTEX
  5
5BB
  8
0
 62
     0
 10
-1.580862721547817
 20
3.771064649297482
 30
0.0
  0
VERTEX
  5
5BC
  8
0
 62
     0
 10
-1.497312327346105
 20
3.807956541012615
 30
0.0
  0
VERTEX
  5
5BD
  8
0
 62
     0
 10
-1.492015275224027
 20
3.837359126325573
 30
0.0
  0
VERTEX
  5
5BE
  8
0
 62
     0
 10
-1.473368950236907
 20
3.910903977630031
 30
0.0
  0
VERTEX
  5
5BF
  8
0
 62
     0
 10
-1.467653931868856
 20
3.938882069104146
 30
0.0
  0
VERTEX
  5
5C0
  8
0
 62
     0
 10
-1.462356879746782
 20
3.968284654417104
 30
0.0
  0
VERTEX
  5
5C1
  8
0
 62
     0
 10
-1.462356879746782
 20
3.968284654417104
 30
0.0
  0
VERTEX
  5
5C2
  8
0
 62
     0
 10
-1.456641861378731
 20
3.996262745891215
 30
0.0
  0
VERTEX
  5
5C3
  8
0
 62
     0
 10
-1.44705428472745
 20
4.053225456432315
 30
0.0
  0
VERTEX
  5
5C4
  8
0
 62
     0
 10
-1.400958696581661
 20
4.080674719590984
 30
0.0
  0
VERTEX
  5
5C5
  8
0
 62
     0
 10
-1.386184929877771
 20
4.125234951828457
 30
0.0
  0
VERTEX
  5
5C6
  8
0
 62
     0
 10
-1.393708322305294
 20
4.150875840927654
 30
0.0
  0
VERTEX
  5
5C7
  8
0
 62
     0
 10
-1.380359049440251
 20
4.195018106919154
 30
0.0
  0
VERTEX
  5
5C8
  8
0
 62
     0
 10
-1.365585282736362
 20
4.239578339156626
 30
0.0
  0
VERTEX
  5
5C9
  8
0
 62
     0
 10
-1.361712724453131
 20
4.268562958223608
 30
0.0
  0
VERTEX
  5
5CA
  8
0
 62
     0
 10
-1.330356816985883
 20
4.304064442125245
 30
0.0
  0
VERTEX
  5
5CB
  8
0
 62
     0
 10
-1.322722562488892
 20
4.32022861664263
 30
0.0
  0
VERTEX
  5
5CC
  8
0
 62
     0
 10
-1.30614042172553
 20
4.311169868306795
 30
0.0
  0
VERTEX
  5
5CD
  8
0
 62
     0
 10
-1.26199815573403
 20
4.297820595441749
 30
0.0
  0
VERTEX
  5
5CE
  8
0
 62
     0
 10
-1.249177711184434
 20
4.30158229165551
 30
0.0
  0
VERTEX
  5
5CF
  8
0
 62
     0
 10
-1.21924629755603
 20
4.336665809311175
 30
0.0
  0
VERTEX
  5
5D0
  8
0
 62
     0
 10
-1.213949245433955
 20
4.366068394624133
 30
0.0
  0
VERTEX
  5
5D1
  8
0
 62
     0
 10
-1.18025613559179
 20
4.388331467730193
 30
0.0
  0
VERTEX
  5
5D2
  8
0
 62
     0
 10
-1.162138638920116
 20
4.421495749256913
 30
0.0
  0
VERTEX
  5
5D3
  8
0
 62
     0
 10
-1.119386780742115
 20
4.460340963126338
 30
0.0
  0
VERTEX
  5
5D4
  8
0
 62
     0
 10
-1.096978759541233
 20
4.521065369881196
 30
0.0
  0
VERTEX
  5
5D5
  8
0
 62
     0
 10
-1.074570738340352
 20
4.581789776636054
 30
0.0
  0
VERTEX
  5
5D6
  8
0
 62
     0
 10
-1.085855826981636
 20
4.620251110284851
 30
0.0
  0
VERTEX
  5
5D7
  8
0
 62
     0
 10
-1.100595507660177
 20
4.628303331027816
 30
0.0
  0
VERTEX
  5
5D8
  8
0
 62
     0
 10
-1.129998092973135
 20
4.633600383149894
 30
0.0
  0
VERTEX
  5
5D9
  8
0
 62
     0
 10
-1.150341929950255
 20
4.655479576035329
 30
0.0
  0
VERTEX
  5
5DA
  8
0
 62
     0
 10
-1.115224326269246
 20
4.678160615387366
 30
0.0
  0
VERTEX
  5
5DB
  8
0
 62
     0
 10
-1.078187486459296
 20
4.689027737782677
 30
0.0
  0
VERTEX
  5
5DC
  8
0
 62
     0
 10
-1.057732787412704
 20
4.708953608513823
 30
0.0
  0
VERTEX
  5
5DD
  8
0
 62
     0
 10
-1.032091898313507
 20
4.716477000941346
 30
0.0
  0
VERTEX
  5
5DE
  8
0
 62
     0
 10
-1.007875503053153
 20
4.723582427122892
 30
0.0
  0
VERTEX
  5
5DF
  8
0
 62
     0
 10
-0.978472917740195
 20
4.718285375000818
 30
0.0
  0
VERTEX
  5
5E0
  8
0
 62
     0
 10
-0.9623087432228097
 20
4.710651120503822
 30
0.0
  0
VERTEX
  5
5E1
  8
0
 62
     0
 10
-0.9471510962982954
 20
4.701174405922011
 30
0.0
  0
VERTEX
  5
5E2
  8
0
 62
     0
 10
-0.9305689555349375
 20
4.692115657586175
 30
0.0
  0
VERTEX
  5
5E3
  8
0
 62
     0
 10
-0.913986814771576
 20
4.683056909250336
 30
0.0
  0
VERTEX
  5
5E4
  8
0
 62
     0
 10
-0.9031196923762685
 20
4.646020069440386
 30
0.0
  0
VERTEX
  5
5E5
  8
0
 62
     0
 10
-0.8884908737671964
 20
4.596162785080836
 30
0.0
  0
VERTEX
  5
5E6
  8
0
 62
     0
 10
-0.8975496221030355
 20
4.579580644317478
 30
0.0
  0
VERTEX
  5
5E7
  8
0
 62
     0
 10
-0.9071371987543166
 20
4.522617933776377
 30
0.0
  0
VERTEX
  5
5E8
  8
0
 62
     0
 10
-0.9000317725727669
 20
4.498401538516028
 30
0.0
  0
VERTEX
  5
5E9
  8
0
 62
     0
 10
-0.8811124294344914
 20
4.476104379384616
 30
0.0
  0
VERTEX
  5
5EA
  8
0
 62
     0
 10
-0.8740070032529452
 20
4.451887984124262
 30
0.0
  0
VERTEX
  5
5EB
  8
0
 62
     0
 10
-0.844604417939987
 20
4.446590932002188
 30
0.0
  0
VERTEX
  5
5EC
  8
0
 62
     0
 10
-0.7909854373666754
 20
4.44839930606166
 30
0.0
  0
VERTEX
  5
5ED
  8
0
 62
     0
 10
-0.763425312138537
 20
4.444108781532453
 30
0.0
  0
VERTEX
  5
5EE
  8
0
 62
     0
 10
-0.7231556044302678
 20
4.401774889600425
 30
0.0
  0
VERTEX
  5
5EF
  8
0
 62
     0
 10
-0.6677282497974844
 20
4.349964283086585
 30
0.0
  0
VERTEX
  5
5F0
  8
0
 62
     0
 10
-0.6785953721927953
 20
4.387001122896539
 30
0.0
  0
VERTEX
  5
5F1
  8
0
 62
     0
 10
-0.6695366238569562
 20
4.403583263659897
 30
0.0
  0
VERTEX
  5
5F2
  8
0
 62
     0
 10
-0.6638216054889092
 20
4.431561355134011
 30
0.0
  0
VERTEX
  5
5F3
  8
0
 62
     0
 10
-0.6675833017026669
 20
4.444381799683608
 30
0.0
  0
VERTEX
  5
5F4
  8
0
 62
     0
 10
-0.6670544733872248
 20
4.484762369461347
 30
0.0
  0
VERTEX
  5
5F5
  8
0
 62
     0
 10
-0.6579957250513857
 20
4.501344510224708
 30
0.0
  0
VERTEX
  5
5F6
  8
0
 62
     0
 10
-0.6398782283797111
 20
4.534508791751428
 30
0.0
  0
VERTEX
  5
5F7
  8
0
 62
     0
 10
-0.6398782283797111
 20
4.534508791751428
 30
0.0
  0
VERTEX
  5
5F8
  8
0
 62
     0
 10
-0.631826007636743
 20
4.549248472429969
 30
0.0
  0
VERTEX
  5
5F9
  8
0
 62
     0
 10
-0.6393494000642654
 20
4.574889361529166
 30
0.0
  0
VERTEX
  5
5FA
  8
0
 62
     0
 10
-0.6616124731703295
 20
4.608582471371328
 30
0.0
  0
VERTEX
  5
5FB
  8
0
 62
     0
 10
-0.6520248965190483
 20
4.665545181912428
 30
0.0
  0
VERTEX
  5
5FC
  8
0
 62
     0
 10
-0.6723687334961674
 20
4.687424374797864
 30
0.0
  0
VERTEX
  5
5FD
  8
0
 62
     0
 10
-0.6983935028159927
 20
4.733937929189626
 30
0.0
  0
VERTEX
  5
5FE
  8
0
 62
     0
 10
-0.7183193735471392
 20
4.754392628236218
 30
0.0
  0
VERTEX
  5
5FF
  8
0
 62
     0
 10
-0.7291864959424501
 20
4.791429468046168
 30
0.0
  0
VERTEX
  5
600
  8
0
 62
     0
 10
-0.736709888369969
 20
4.817070357145365
 30
0.0
  0
VERTEX
  5
601
  8
0
 62
     0
 10
-0.7195989192911654
 20
4.848392178587265
 30
0.0
  0
VERTEX
  5
602
  8
0
 62
     0
 10
-0.6777938556745831
 20
4.848281316517795
 30
0.0
  0
VERTEX
  5
603
  8
0
 62
     0
 10
-0.6279365713150327
 20
4.862910135126864
 30
0.0
  0
VERTEX
  5
604
  8
0
 62
     0
 10
-0.6070639060224678
 20
4.881411512019167
 30
0.0
  0
VERTEX
  5
605
  8
0
 62
     0
 10
-0.5889464093507932
 20
4.914575793545886
 30
0.0
  0
VERTEX
  5
606
  8
0
 62
     0
 10
-0.5718354402719896
 20
4.945897614987786
 30
0.0
  0
VERTEX
  5
607
  8
0
 62
     0
 10
-0.5460836891033196
 20
4.99522607103189
 30
0.0
  0
VERTEX
  5
608
  8
0
 62
     0
 10
-0.5366069745215114
 20
5.010383717956408
 30
0.0
  0
VERTEX
  5
609
  8
0
 62
     0
 10
-0.5403686707352691
 20
5.023204162506005
 30
0.0
  0
VERTEX
  5
60A
  8
0
 62
     0
 10
-0.5607125077123918
 20
5.045083355391441
 30
0.0
  0
VERTEX
  5
60B
  8
0
 62
     0
 10
-0.5721084584231448
 20
5.041739625423652
 30
0.0
  0
VERTEX
  5
60C
  8
0
 62
     0
 10
-0.5754521883909334
 20
5.053135576134409
 30
0.0
  0
VERTEX
  5
60D
  8
0
 62
     0
 10
-0.5625208817718637
 20
5.098702335964752
 30
0.0
  0
VERTEX
  5
60E
  8
0
 62
     0
 10
-0.5402237226404516
 20
5.117621679103028
 30
0.0
  0
VERTEX
  5
60F
  8
0
 62
     0
 10
-0.5235307198076242
 20
5.150367994383775
 30
0.0
  0
VERTEX
  5
610
  8
0
 62
     0
 10
-0.5343978422029316
 20
5.187404834193725
 30
0.0
  0
VERTEX
  5
611
  8
0
 62
     0
 10
-0.5751963782266429
 20
5.189358156348014
 30
0.0
  0
VERTEX
  5
612
  8
0
 62
     0
 10
-0.6122332180365966
 20
5.178491033952703
 30
0.0
  0
VERTEX
  5
613
  8
0
 62
     0
 10
-0.6506945516853904
 20
5.167205945311423
 30
0.0
  0
VERTEX
  5
614
  8
0
 62
     0
 10
-0.6786726431595049
 20
5.17292096367947
 30
0.0
  0
VERTEX
  5
615
  8
0
 62
     0
 10
-0.715709482969455
 20
5.162053841284163
 30
0.0
  0
VERTEX
  5
616
  8
0
 62
     0
 10
-0.7413503720686521
 20
5.15453044885664
 30
0.0
  0
VERTEX
  5
617
  8
0
 62
     0
 10
-0.7655667673290054
 20
5.14742502267509
 30
0.0
  0
VERTEX
  5
618
  8
0
 62
     0
 10
-0.8187677816563408
 20
5.144192154776775
 30
0.0
  0
VERTEX
  5
619
  8
0
 62
     0
 10
-0.8353499224197023
 20
5.153250903112614
 30
0.0
  0
VERTEX
  5
61A
  8
0
 62
     0
 10
-0.848170366969299
 20
5.149489206898853
 30
0.0
  0
VERTEX
  5
61B
  8
0
 62
     0
 10
-0.9217152182737571
 20
5.168135531885973
 30
0.0
  0
VERTEX
  5
61C
  8
0
 62
     0
 10
-0.9459316135341105
 20
5.161030105704423
 30
0.0
  0
VERTEX
  5
61D
  8
0
 62
     0
 10
-0.9534550059616329
 20
5.18667099480362
 30
0.0
  0
VERTEX
  5
61E
  8
0
 62
     0
 10
-0.9700371467249909
 20
5.195729743139459
 30
0.0
  0
VERTEX
  5
61F
  8
0
 62
     0
 10
-0.9862013212423761
 20
5.203363997636451
 30
0.0
  0
VERTEX
  5
620
  8
0
 62
     0
 10
-0.9899630174561374
 20
5.216184442186051
 30
0.0
  0
VERTEX
  5
621
  8
0
 62
     0
 10
-0.984665965334063
 20
5.245587027499006
 30
0.0
  0
VERTEX
  5
622
  8
0
 62
     0
 10
-0.9789509469660125
 20
5.273565118973121
 30
0.0
  0
VERTEX
  5
623
  8
0
 62
     0
 10
-1.00263851391092
 20
5.306840262569313
 30
0.0
  0
VERTEX
  5
624
  8
0
 62
     0
 10
-1.030087777069589
 20
5.352935850715099
 30
0.0
  0
VERTEX
  5
625
  8
0
 62
     0
 10
-1.030087777069589
 20
5.352935850715099
 30
0.0
  0
VERTEX
  5
626
  8
0
 62
     0
 10
-1.002911532062075
 20
5.40268227300518
 30
0.0
  0
VERTEX
  5
627
  8
0
 62
     0
 10
-1.010016958243625
 20
5.42689866826553
 30
0.0
  0
VERTEX
  5
628
  8
0
 62
     0
 10
-1.05223998810618
 20
5.428434024173846
 30
0.0
  0
VERTEX
  5
629
  8
0
 62
     0
 10
-1.09638225409768
 20
5.441783297038889
 30
0.0
  0
VERTEX
  5
62A
  8
0
 62
     0
 10
-1.112964394861038
 20
5.450842045374728
 30
0.0
  0
VERTEX
  5
62B
  8
0
 62
     0
 10
-1.148047912516702
 20
5.480773459003132
 30
0.0
  0
VERTEX
  5
62C
  8
0
 62
     0
 10
-1.16463005328006
 20
5.489832207338967
 30
0.0
  0
VERTEX
  5
62D
  8
0
 62
     0
 10
-1.181212194043418
 20
5.498890955674806
 30
0.0
  0
VERTEX
  5
62E
  8
0
 62
     0
 10
-1.196369840967936
 20
5.508367670256618
 30
0.0
  0
VERTEX
  5
62F
  8
0
 62
     0
 10
-1.220057407912844
 20
5.541642813852807
 30
0.0
  0
VERTEX
  5
630
  8
0
 62
     0
 10
-1.256565419407348
 20
5.571156261235235
 30
0.0
  0
VERTEX
  5
631
  8
0
 62
     0
 10
-1.288305207095224
 20
5.589691724152885
 30
0.0
  0
VERTEX
  5
632
  8
0
 62
     0
 10
-1.321051522375971
 20
5.606384726985716
 30
0.0
  0
VERTEX
  5
633
  8
0
 62
     0
 10
-1.38553762534459
 20
5.641613192736195
 30
0.0
  0
VERTEX
  5
634
  8
0
 62
     0
 10
-1.450023728313209
 20
5.676841658486673
 30
0.0
  0
VERTEX
  5
635
  8
0
 62
     0
 10
-1.50364270888652
 20
5.675033284427201
 30
0.0
  0
VERTEX
  5
636
  8
0
 62
     0
 10
-1.54067954869647
 20
5.664166162031893
 30
0.0
  0
VERTEX
  5
637
  8
0
 62
     0
 10
-1.58677513684226
 20
5.636716898873225
 30
0.0
  0
VERTEX
  5
638
  8
0
 62
     0
 10
-1.63663242120181
 20
5.622088080264152
 30
0.0
  0
VERTEX
  5
639
  8
0
 62
     0
 10
-1.675622583166049
 20
5.570422421845134
 30
0.0
  0
VERTEX
  5
63A
  8
0
 62
     0
 10
-1.696077282212642
 20
5.550496551113987
 30
0.0
  0
VERTEX
  5
63B
  8
0
 62
     0
 10
-1.707089352702766
 20
5.493115874326914
 30
0.0
  0
VERTEX
  5
63C
  8
0
 62
     0
 10
-1.716148101038605
 20
5.476533733563556
 30
0.0
  0
VERTEX
  5
63D
  8
0
 62
     0
 10
-1.731450696057937
 20
5.391592931548342
 30
0.0
  0
VERTEX
  5
63E
  8
0
 62
     0
 10
-1.748143698890768
 20
5.358846616267599
 30
0.0
  0
VERTEX
  5
63F
  8
0
 62
     0
 10
-1.762917465594654
 20
5.314286384030126
 30
0.0
  0
VERTEX
  5
640
  8
0
 62
     0
 10
-1.761109091535182
 20
5.260667403456814
 30
0.0
  0
VERTEX
  5
641
  8
0
 62
     0
 10
-1.720839383826917
 20
5.218333511524786
 30
0.0
  0
VERTEX
  5
642
  8
0
 62
     0
 10
-1.680040847803205
 20
5.216380189370497
 30
0.0
  0
VERTEX
  5
643
  8
0
 62
     0
 10
-1.65105622873622
 20
5.212507631087266
 30
0.0
  0
VERTEX
  5
644
  8
0
 62
     0
 10
-1.604542674344458
 20
5.238532400407088
 30
0.0
  0
VERTEX
  5
645
  8
0
 62
     0
 10
-1.584087975297866
 20
5.258458271138235
 30
0.0
  0
VERTEX
  5
646
  8
0
 62
     0
 10
-1.56220878241243
 20
5.278802108115357
 30
0.0
  0
VERTEX
  5
647
  8
0
 62
     0
 10
-1.541754083365838
 20
5.298727978846504
 30
0.0
  0
VERTEX
  5
648
  8
0
 62
     0
 10
-1.51235149805288
 20
5.293430926724426
 30
0.0
  0
VERTEX
  5
649
  8
0
 62
     0
 10
-1.48813510279253
 20
5.300536352905976
 30
0.0
  0
VERTEX
  5
64A
  8
0
 62
     0
 10
-1.480611710365007
 20
5.274895463806779
 30
0.0
  0
VERTEX
  5
64B
  8
0
 62
     0
 10
-1.464447535847619
 20
5.267261209309787
 30
0.0
  0
VERTEX
  5
64C
  8
0
 62
     0
 10
-1.436469444373508
 20
5.261546190941736
 30
0.0
  0
VERTEX
  5
64D
  8
0
 62
     0
 10
-1.4127818774286
 20
5.228271047345544
 30
0.0
  0
VERTEX
  5
64E
  8
0
 62
     0
 10
-1.392438040451477
 20
5.206391854460108
 30
0.0
  0
VERTEX
  5
64F
  8
0
 62
     0
 10
-1.338819059878169
 20
5.20820022851958
 30
0.0
  0
VERTEX
  5
650
  8
0
 62
     0
 10
-1.314602664617816
 20
5.21530565470113
 30
0.0
  0
VERTEX
  5
651
  8
0
 62
     0
 10
-1.269035904787472
 20
5.20237434808206
 30
0.0
  0
VERTEX
  5
652
  8
0
 62
     0
 10
-1.274332956909547
 20
5.172971762769102
 30
0.0
  0
VERTEX
  5
653
  8
0
 62
     0
 10
-1.283809671491358
 20
5.157814115844587
 30
0.0
  0
VERTEX
  5
654
  8
0
 62
     0
 10
-1.320846511301312
 20
5.146946993449276
 30
0.0
  0
VERTEX
  5
655
  8
0
 62
     0
 10
-1.346487400400505
 20
5.139423601021754
 30
0.0
  0
VERTEX
  5
656
  8
0
 62
     0
 10
-1.366942099447098
 20
5.119497730290608
 30
0.0
  0
VERTEX
  5
657
  8
0
 62
     0
 10
-1.386867970178248
 20
5.1399524293372
 30
0.0
  0
VERTEX
  5
658
  8
0
 62
     0
 10
-1.411084365438597
 20
5.13284700315565
 30
0.0
  0
VERTEX
  5
659
  8
0
 62
     0
 10
-1.446201969119606
 20
5.110165963803613
 30
0.0
  0
VERTEX
  5
65A
  8
0
 62
     0
 10
-1.45007452740284
 20
5.081181344736631
 30
0.0
  0
VERTEX
  5
65B
  8
0
 62
     0
 10
-1.459133275738676
 20
5.06459920397327
 30
0.0
  0
VERTEX
  5
65C
  8
0
 62
     0
 10
-1.468609990320488
 20
5.049441557048755
 30
0.0
  0
VERTEX
  5
65D
  8
0
 62
     0
 10
-1.464848294106726
 20
5.036621112499159
 30
0.0
  0
VERTEX
  5
65E
  8
0
 62
     0
 10
-1.473907042442566
 20
5.020038971735797
 30
0.0
  0
VERTEX
  5
65F
  8
0
 62
     0
 10
-1.470145346228804
 20
5.0072185271862
 30
0.0
  0
VERTEX
  5
660
  8
0
 62
     0
 10
-1.478197566971769
 20
4.992478846507659
 30
0.0
  0
VERTEX
  5
661
  8
0
 62
     0
 10
-1.487256315307608
 20
4.975896705744297
 30
0.0
  0
VERTEX
  5
662
  8
0
 62
     0
 10
-1.500076759857205
 20
4.972135009530536
 30
0.0
  0
VERTEX
  5
663
  8
0
 62
     0
 10
-1.524293155117558
 20
4.96502958334899
 30
0.0
  0
VERTEX
  5
664
  8
0
 62
     0
 10
-1.537113599667158
 20
4.961267887135229
 30
0.0
  0
VERTEX
  5
665
  8
0
 62
     0
 10
-1.553695740430516
 20
4.970326635471064
 30
0.0
  0
VERTEX
  5
666
  8
0
 62
     0
 10
-1.557039470398305
 20
4.981722586181821
 30
0.0
  0
SEQEND
  5
859
  8
0
 62
     0
  0
POLYLINE
  5
2AF
  8
0
 62
     0
 66
     1
 10
0.0
 20
0.0
 30
0.0
 70
     1
  0
VERTEX
  5
667
  8
0
 62
     0
 10
1.788679212535857
 20
7.074755966414006
 30
0.0
  0
VERTEX
  5
668
  8
0
 62
     0
 10
1.779202497954046
 20
7.059598319489492
 30
0.0
  0
VERTEX
  5
669
  8
0
 62
     0
 10
1.754986102693696
 20
7.052492893307946
 30
0.0
  0
VERTEX
  5
66A
  8
0
 62
     0
 10
1.692308373784545
 20
7.034102378485112
 30
0.0
  0
VERTEX
  5
66B
  8
0
 62
     0
 10
1.628095288967081
 20
6.973488833799724
 30
0.0
  0
VERTEX
  5
66C
  8
0
 62
     0
 10
1.64425946348447
 20
6.965854579302732
 30
0.0
  0
VERTEX
  5
66D
  8
0
 62
     0
 10
1.694116747844017
 20
6.980483397911801
 30
0.0
  0
VERTEX
  5
66E
  8
0
 62
     0
 10
1.727281029370737
 20
6.962365901240126
 30
0.0
  0
VERTEX
  5
66F
  8
0
 62
     0
 10
1.78270838400352
 20
6.91055529472629
 30
0.0
  0
VERTEX
  5
670
  8
0
 62
     0
 10
1.802634254734667
 20
6.890100595679694
 30
0.0
  0
VERTEX
  5
671
  8
0
 62
     0
 10
1.806395950948428
 20
6.877280151130098
 30
0.0
  0
VERTEX
  5
672
  8
0
 62
     0
 10
1.721310200838399
 20
6.798165229552406
 30
0.0
  0
VERTEX
  5
673
  8
0
 62
     0
 10
1.72507189705216
 20
6.78534478500281
 30
0.0
  0
VERTEX
  5
674
  8
0
 62
     0
 10
1.752632022280299
 20
6.781054260473603
 30
0.0
  0
VERTEX
  5
675
  8
0
 62
     0
 10
1.760155414707821
 20
6.755413371374406
 30
0.0
  0
VERTEX
  5
676
  8
0
 62
     0
 10
1.746806141842779
 20
6.711271105382909
 30
0.0
  0
VERTEX
  5
677
  8
0
 62
     0
 10
1.744852819688489
 20
6.670472569359195
 30
0.0
  0
VERTEX
  5
678
  8
0
 62
     0
 10
1.730497019230576
 20
6.624487843282878
 30
0.0
  0
VERTEX
  5
679
  8
0
 62
     0
 10
1.756137908329773
 20
6.632011235710397
 30
0.0
  0
VERTEX
  5
67A
  8
0
 62
     0
 10
1.81881563723892
 20
6.650401750533231
 30
0.0
  0
VERTEX
  5
67B
  8
0
 62
     0
 10
1.833555317917462
 20
6.642349529790263
 30
0.0
  0
VERTEX
  5
67C
  8
0
 62
     0
 10
1.872016651566256
 20
6.653634618431546
 30
0.0
  0
VERTEX
  5
67D
  8
0
 62
     0
 10
1.896233046826609
 20
6.660740044613096
 30
0.0
  0
VERTEX
  5
67E
  8
0
 62
     0
 10
1.909053491376209
 20
6.664501740826854
 30
0.0
  0
VERTEX
  5
67F
  8
0
 62
     0
 10
1.929926156668774
 20
6.683003117719156
 30
0.0
  0
VERTEX
  5
680
  8
0
 62
     0
 10
1.946090331186159
 20
6.675368863222165
 30
0.0
  0
VERTEX
  5
681
  8
0
 62
     0
 10
1.962672471949517
 20
6.666310114886326
 30
0.0
  0
VERTEX
  5
682
  8
0
 62
     0
 10
1.997755989605182
 20
6.636378701257925
 30
0.0
  0
VERTEX
  5
683
  8
0
 62
     0
 10
1.994412259637393
 20
6.647774651968678
 30
0.0
  0
VERTEX
  5
684
  8
0
 62
     0
 10
2.012529756309068
 20
6.680938933495398
 30
0.0
  0
VERTEX
  5
685
  8
0
 62
     0
 10
2.005424330127521
 20
6.705155328755751
 30
0.0
  0
VERTEX
  5
686
  8
0
 62
     0
 10
2.022117332960352
 20
6.737901644036494
 30
0.0
  0
VERTEX
  5
687
  8
0
 62
     0
 10
2.064869191138353
 20
6.77674685790592
 30
0.0
  0
VERTEX
  5
688
  8
0
 62
     0
 10
2.082986687810028
 20
6.809911139432639
 30
0.0
  0
VERTEX
  5
689
  8
0
 62
     0
 10
2.079224991596266
 20
6.822731583982236
 30
0.0
  0
VERTEX
  5
68A
  8
0
 62
     0
 10
2.050240372529281
 20
6.82660414226547
 30
0.0
  0
VERTEX
  5
68B
  8
0
 62
     0
 10
1.98909799952845
 20
6.850436657305192
 30
0.0
  0
VERTEX
  5
68C
  8
0
 62
     0
 10
1.941194037323189
 20
6.876606374719838
 30
0.0
  0
VERTEX
  5
68D
  8
0
 62
     0
 10
1.906110519667525
 20
6.906537788348238
 30
0.0
  0
VERTEX
  5
68E
  8
0
 62
     0
 10
1.939385663263717
 20
6.930225355293146
 30
0.0
  0
VERTEX
  5
68F
  8
0
 62
     0
 10
1.963602058524071
 20
6.937330781474696
 30
0.0
  0
VERTEX
  5
690
  8
0
 62
     0
 10
1.932280237082168
 20
6.954441750553499
 30
0.0
  0
VERTEX
  5
691
  8
0
 62
     0
 10
1.899115955555448
 20
6.972559247225174
 30
0.0
  0
VERTEX
  5
692
  8
0
 62
     0
 10
1.880614578663145
 20
6.993431912517739
 30
0.0
  0
VERTEX
  5
693
  8
0
 62
     0
 10
1.830868156373068
 20
7.020608157525253
 30
0.0
  0
VERTEX
  5
694
  8
0
 62
     0
 10
1.830868156373068
 20
7.020608157525253
 30
0.0
  0
VERTEX
  5
695
  8
0
 62
     0
 10
1.830868156373068
 20
7.020608157525253
 30
0.0
  0
VERTEX
  5
696
  8
0
 62
     0
 10
1.812366779480765
 20
7.041480822817817
 30
0.0
  0
VERTEX
  5
697
  8
0
 62
     0
 10
1.808605083267004
 20
7.054301267367418
 30
0.0
  0
VERTEX
  5
698
  8
0
 62
     0
 10
1.816239337763999
 20
7.070465441884803
 30
0.0
  0
VERTEX
  5
699
  8
0
 62
     0
 10
1.80913391158245
 20
7.094681837145156
 30
0.0
  0
VERTEX
  5
69A
  8
0
 62
     0
 10
1.797737960871697
 20
7.091338107177368
 30
0.0
  0
SEQEND
  5
85A
  8
0
 62
     0
  0
POLYLINE
  5
2E5
  8
0
 62
     0
 66
     1
 10
0.0
 20
0.0
 30
0.0
 70
     1
  0
VERTEX
  5
69B
  8
0
 62
     0
 10
2.034008190935399
 20
6.470642673661889
 30
0.0
  0
VERTEX
  5
69C
  8
0
 62
     0
 10
2.021187746385799
 20
6.466880977448131
 30
0.0
  0
VERTEX
  5
69D
  8
0
 62
     0
 10
2.017426050172038
 20
6.479701421997728
 30
0.0
  0
VERTEX
  5
69E
  8
0
 62
     0
 10
1.988441431105056
 20
6.483573980280962
 30
0.0
  0
VERTEX
  5
69F
  8
0
 62
     0
 10
1.945834521021869
 20
6.539146283008559
 30
0.0
  0
VERTEX
  5
6A0
  8
0
 62
     0
 10
1.912670239495153
 20
6.557263779680238
 30
0.0
  0
VERTEX
  5
6A1
  8
0
 62
     0
 10
1.855707528954053
 20
6.566851356331515
 30
0.0
  0
VERTEX
  5
6A2
  8
0
 62
     0
 10
1.763098386416502
 20
6.513377323853025
 30
0.0
  0
VERTEX
  5
6A3
  8
0
 62
     0
 10
1.731776564974602
 20
6.530488292931828
 30
0.0
  0
VERTEX
  5
6A4
  8
0
 62
     0
 10
1.660040087729616
 20
6.495515637345637
 30
0.0
  0
VERTEX
  5
6A5
  8
0
 62
     0
 10
1.65951125941417
 20
6.455135067567898
 30
0.0
  0
VERTEX
  5
6A6
  8
0
 62
     0
 10
1.678012636306473
 20
6.434262402275333
 30
0.0
  0
VERTEX
  5
6A7
  8
0
 62
     0
 10
1.70365352540567
 20
6.441785794702856
 30
0.0
  0
VERTEX
  5
6A8
  8
0
 62
     0
 10
1.735393313093546
 20
6.423250331785209
 30
0.0
  0
VERTEX
  5
6A9
  8
0
 62
     0
 10
1.780960072923889
 20
6.410319025166139
 30
0.0
  0
VERTEX
  5
6AA
  8
0
 62
     0
 10
1.829282001375123
 20
6.382724813912652
 30
0.0
  0
VERTEX
  5
6AB
  8
0
 62
     0
 10
1.902826852679581
 20
6.364078488925532
 30
0.0
  0
VERTEX
  5
6AC
  8
0
 62
     0
 10
1.914222803390334
 20
6.367422218893321
 30
0.0
  0
VERTEX
  5
6AD
  8
0
 62
     0
 10
1.923281551726173
 20
6.384004359656679
 30
0.0
  0
VERTEX
  5
6AE
  8
0
 62
     0
 10
1.956556695322362
 20
6.407691926601586
 30
0.0
  0
VERTEX
  5
6AF
  8
0
 62
     0
 10
1.982197584421559
 20
6.415215319029109
 30
0.0
  0
VERTEX
  5
6B0
  8
0
 62
     0
 10
2.022996120445271
 20
6.413261996874819
 30
0.0
  0
VERTEX
  5
6B1
  8
0
 62
     0
 10
2.052398705758229
 20
6.407964944752745
 30
0.0
  0
VERTEX
  5
6B2
  8
0
 62
     0
 10
2.065747978623271
 20
6.452107210744241
 30
0.0
  0
VERTEX
  5
6B3
  8
0
 62
     0
 10
2.021187746385799
 20
6.466880977448131
 30
0.0
  0
SEQEND
  5
85B
  8
0
 62
     0
  0
POLYLINE
  5
300
  8
0
 62
     0
 66
     1
 10
0.0
 20
0.0
 30
0.0
  0
VERTEX
  5
6B4
  8
0
 62
     0
 10
0.2156324221051342
 20
6.245683855638575
 30
0.0
  0
VERTEX
  5
6B5
  8
0
 62
     0
 10
0.2156324221051342
 20
6.245683855638575
 30
0.0
  0
VERTEX
  5
6B6
  8
0
 62
     0
 10
0.2156324221051342
 20
6.145683855638577
 30
0.0
  0
VERTEX
  5
6B7
  8
0
 62
     0
 10
0.2156324221051342
 20
6.145683855638577
 30
0.0
  0
VERTEX
  5
6B8
  8
0
 62
     0
 10
0.6072247839678226
 20
6.232292258053537
 30
0.0
  0
VERTEX
  5
6B9
  8
0
 62
     0
 10
0.7581346592169353
 20
6.611527214308502
 30
0.0
  0
VERTEX
  5
6BA
  8
0
 62
     0
 10
0.7583294288448101
 20
6.840303470528287
 30
0.0
  0
SEQEND
  5
85C
  8
0
 62
     0
  0
POLYLINE
  5
309
  8
0
 62
     0
 66
     1
 10
0.0
 20
0.0
 30
0.0
  0
VERTEX
  5
6BB
  8
0
 62
     0
 10
0.810477853384139
 20
6.86632221043558
 30
0.0
  0
VERTEX
  5
6BC
  8
0
 62
     0
 10
0.8334724885209397
 20
6.663589348506367
 30
0.0
  0
VERTEX
  5
6BD
  8
0
 62
     0
 10
0.9609562769259412
 20
6.738774320634064
 30
0.0
  0
SEQEND
  5
85D
  8
0
 62
     0
  0
POLYLINE
  5
30E
  8
0
 62
     0
 66
     1
 10
0.0
 20
0.0
 30
0.0
  0
VERTEX
  5
6BE
  8
0
 62
     0
 10
0.9345479977628983
 20
6.333370232733827
 30
0.0
  0
VERTEX
  5
6BF
  8
0
 62
     0
 10
0.6825404243268771
 20
6.258291274454212
 30
0.0
  0
VERTEX
  5
6C0
  8
0
 62
     0
 10
0.8102189823597499
 20
6.562252502801691
 30
0.0
  0
VERTEX
  5
6C1
  8
0
 62
     0
 10
0.9609340879809913
 20
6.712711202836875
 30
0.0
  0
SEQEND
  5
85E
  8
0
 62
     0
  0
POLYLINE
  5
314
  8
0
 62
     0
 66
     1
 10
0.0
 20
0.0
 30
0.0
  0
VERTEX
  5
6C2
  8
0
 62
     0
 10
0.5550344469769257
 20
6.157043184529325
 30
0.0
  0
VERTEX
  5
6C3
  8
0
 62
     0
 10
0.2016703043296033
 20
6.082050516591174
 30
0.0
  0
VERTEX
  5
6C4
  8
0
 62
     0
 10
0.2015618250431963
 20
5.954630829582687
 30
0.0
  0
VERTEX
  5
6C5
  8
0
 62
     0
 10
0.2015174471533001
 20
5.902504593988304
 30
0.0
  0
VERTEX
  5
6C6
  8
0
 62
     0
 10
0.2245983726315615
 20
5.801128301270388
 30
0.0
  0
VERTEX
  5
6C7
  8
0
 62
     0
 10
0.2244923587834791
 20
5.676604516239365
 30
0.0
  0
VERTEX
  5
6C8
  8
0
 62
     0
 10
0.2244479808935864
 20
5.624478280644986
 30
0.0
  0
VERTEX
  5
6C9
  8
0
 62
     0
 10
0.3028321039130297
 20
5.853187970029929
 30
0.0
  0
VERTEX
  5
6CA
  8
0
 62
     0
 10
0.3782340346135449
 20
5.980543555641898
 30
0.0
  0
VERTEX
  5
6CB
  8
0
 62
     0
 10
0.5550344469769257
 20
6.157043184529325
 30
0.0
  0
SEQEND
  5
85F
  8
0
 62
     0
  0
POLYLINE
  5
320
  8
0
 62
     0
 66
     1
 10
0.0
 20
0.0
 30
0.0
  0
VERTEX
  5
6CC
  8
0
 62
     0
 10
0.934525808817952
 20
6.307307114936634
 30
0.0
  0
VERTEX
  5
6CD
  8
0
 62
     0
 10
0.6071606825713083
 20
6.156998806639429
 30
0.0
  0
VERTEX
  5
6CE
  8
0
 62
     0
 10
0.42746436823046
 20
5.980501643190333
 30
0.0
  0
VERTEX
  5
6CF
  8
0
 62
     0
 10
0.3026595232301048
 20
5.650474831607333
 30
0.0
  0
VERTEX
  5
6D0
  8
0
 62
     0
 10
0.2243197781005541
 20
5.473891377816773
 30
0.0
  0
VERTEX
  5
6D1
  8
0
 62
     0
 10
0.2241028195277366
 20
5.219052003799799
 30
0.0
  0
VERTEX
  5
6D2
  8
0
 62
     0
 10
0.2005485298905931
 20
4.764415116844315
 30
0.0
  0
VERTEX
  5
6D3
  8
0
 62
     0
 10
0.2004178616592363
 20
4.610932312038639
 30
0.0
  0
VERTEX
  5
6D4
  8
0
 62
     0
 10
0.3018829101569409
 20
4.738265708705661
 30
0.0
  0
VERTEX
  5
6D5
  8
0
 62
     0
 10
0.3772626519125097
 20
4.839558176520445
 30
0.0
  0
VERTEX
  5
6D6
  8
0
 62
     0
 10
0.5047464403175148
 20
4.914743148648139
 30
0.0
  0
VERTEX
  5
6D7
  8
0
 62
     0
 10
0.6061473874187051
 20
4.966783093901057
 30
0.0
  0
SEQEND
  5
860
  8
0
 62
     0
  0
POLYLINE
  5
32E
  8
0
 62
     0
 66
     1
 10
0.0
 20
0.0
 30
0.0
  0
VERTEX
  5
6D8
  8
0
 62
     0
 10
-0.533156562763395
 20
6.942759625233649
 30
0.0
  0
VERTEX
  5
6D9
  8
0
 62
     0
 10
-0.5071353574177735
 20
6.893507102671784
 30
0.0
  0
VERTEX
  5
6DA
  8
0
 62
     0
 10
-0.4579272127458047
 20
6.867402072423026
 30
0.0
  0
VERTEX
  5
6DB
  8
0
 62
     0
 10
-0.405823166096372
 20
6.84129457673594
 30
0.0
  0
VERTEX
  5
6DC
  8
0
 62
     0
 10
-0.3826978627282145
 20
6.792044519612404
 30
0.0
  0
VERTEX
  5
6DD
  8
0
 62
     0
 10
-0.3306381939686744
 20
6.713810788330939
 30
0.0
  0
VERTEX
  5
6DE
  8
0
 62
     0
 10
-0.3306801064202425
 20
6.664580454714024
 30
0.0
  0
SEQEND
  5
861
  8
0
 62
     0
  0
POLYLINE
  5
337
  8
0
 62
     0
 66
     1
 10
0.0
 20
0.0
 30
0.0
  0
VERTEX
  5
6DF
  8
0
 62
     0
 10
-0.5070490670763093
 20
6.994863671883081
 30
0.0
  0
VERTEX
  5
6E0
  8
0
 62
     0
 10
-0.4839040402015335
 20
6.96878083057927
 30
0.0
  0
VERTEX
  5
6E1
  8
0
 62
     0
 10
-0.4317999935521009
 20
6.942673334892184
 30
0.0
  0
VERTEX
  5
6E2
  8
0
 62
     0
 10
-0.3825918488801321
 20
6.916568304643427
 30
0.0
  0
VERTEX
  5
6E3
  8
0
 62
     0
 10
-0.3825474709902359
 20
6.968694540237809
 30
0.0
  0
VERTEX
  5
6E4
  8
0
 62
     0
 10
-0.3825055585386679
 20
7.017924873854724
 30
0.0
  0
VERTEX
  5
6E5
  8
0
 62
     0
 10
-0.356420251796532
 20
7.043965802706968
 30
0.0
  0
SEQEND
  5
862
  8
0
 62
     0
  0
POLYLINE
  5
340
  8
0
 62
     0
 66
     1
 10
0.0
 20
0.0
 30
0.0
 70
     1
  0
VERTEX
  5
6E6
  8
0
 62
     0
 10
-0.3029996610802144
 20
8.564269962986529
 30
0.0
  0
VERTEX
  5
6E7
  8
0
 62
     0
 10
-0.3030415735317789
 20
8.51503962936961
 30
0.0
  0
VERTEX
  5
6E8
  8
0
 62
     0
 10
-0.355276288412572
 20
8.38766432025102
 30
0.0
  0
VERTEX
  5
6E9
  8
0
 62
     0
 10
-0.4306141177165728
 20
8.335602186053151
 30
0.0
  0
VERTEX
  5
6EA
  8
0
 62
     0
 10
-0.5059075691306774
 20
8.33566628744967
 30
0.0
  0
VERTEX
  5
6EB
  8
0
 62
     0
 10
-0.5841166460288711
 20
8.312565638464783
 30
0.0
  0
VERTEX
  5
6EC
  8
0
 62
     0
 10
-0.6073504286834392
 20
8.234396008579834
 30
0.0
  0
VERTEX
  5
6ED
  8
0
 62
     0
 10
-0.6074367190248999
 20
8.133039439368536
 30
0.0
  0
VERTEX
  5
6EE
  8
0
 62
     0
 10
-0.6335417492736575
 20
8.083831294696568
 30
0.0
  0
VERTEX
  5
6EF
  8
0
 62
     0
 10
-0.7088795785776583
 20
8.0317691604987
 30
0.0
  0
VERTEX
  5
6F0
  8
0
 62
     0
 10
-0.836299265586149
 20
8.03187763978511
 30
0.0
  0
VERTEX
  5
6F1
  8
0
 62
     0
 10
-0.8362129752446847
 20
8.133234208996408
 30
0.0
  0
VERTEX
  5
6F2
  8
0
 62
     0
 10
-0.8882529204976031
 20
8.234635156097598
 30
0.0
  0
VERTEX
  5
6F3
  8
0
 62
     0
 10
-0.8882085426077104
 20
8.286761391691982
 30
0.0
  0
VERTEX
  5
6F4
  8
0
 62
     0
 10
-0.8359960166718636
 20
8.38807358301338
 30
0.0
  0
VERTEX
  5
6F5
  8
0
 62
     0
 10
-0.7866374802619198
 20
8.538618573390025
 30
0.0
  0
VERTEX
  5
6F6
  8
0
 62
     0
 10
-0.7604880721232661
 20
8.639952953656376
 30
0.0
  0
VERTEX
  5
6F7
  8
0
 62
     0
 10
-0.7083396475839372
 20
8.66597169356367
 30
0.0
  0
VERTEX
  5
6F8
  8
0
 62
     0
 10
-0.5838158625529175
 20
8.665865679715587
 30
0.0
  0
VERTEX
  5
6F9
  8
0
 62
     0
 10
-0.4824592933416199
 20
8.66577938937413
 30
0.0
  0
VERTEX
  5
6FA
  8
0
 62
     0
 10
-0.4303330577472373
 20
8.66573501148423
 30
0.0
  0
VERTEX
  5
6FB
  8
0
 62
     0
 10
-0.3811446365818902
 20
8.616462765415747
 30
0.0
  0
VERTEX
  5
6FC
  8
0
 62
     0
 10
-0.3290627788774039
 20
8.564292151931475
 30
0.0
  0
VERTEX
  5
6FD
  8
0
 62
     0
 10
-0.3030415735317789
 20
8.51503962936961
 30
0.0
  0
SEQEND
  5
863
  8
0
 62
     0
  0
POLYLINE
  5
35A
  8
0
 62
     0
 66
     1
 10
0.0
 20
0.0
 30
0.0
 70
     1
  0
VERTEX
  5
6FE
  8
0
 62
     0
 10
0.1519380093512233
 20
8.894015714600187
 30
0.0
  0
VERTEX
  5
6FF
  8
0
 62
     0
 10
0.1258527026090874
 20
8.867974785747947
 30
0.0
  0
VERTEX
  5
700
  8
0
 62
     0
 10
0.0504729608535186
 20
8.766682317933167
 30
0.0
  0
VERTEX
  5
701
  8
0
 62
     0
 10
-0.024862403012154
 20
8.717516085712766
 30
0.0
  0
VERTEX
  5
702
  8
0
 62
     0
 10
-0.0510118111508078
 20
8.616181705446415
 30
0.0
  0
VERTEX
  5
703
  8
0
 62
     0
 10
-0.0771414957828434
 20
8.53801454099979
 30
0.0
  0
VERTEX
  5
704
  8
0
 62
     0
 10
-0.1785843553356017
 20
8.436744262129956
 30
0.0
  0
VERTEX
  5
705
  8
0
 62
     0
 10
-0.2278566014040848
 20
8.387555840964609
 30
0.0
  0
VERTEX
  5
706
  8
0
 62
     0
 10
-0.2279207028005992
 20
8.312262389550504
 30
0.0
  0
VERTEX
  5
707
  8
0
 62
     0
 10
-0.2279872696354417
 20
8.23407303615893
 30
0.0
  0
VERTEX
  5
708
  8
0
 62
     0
 10
-0.2019660642898167
 20
8.184820513597066
 30
0.0
  0
VERTEX
  5
709
  8
0
 62
     0
 10
-0.0774866571486932
 20
8.132588264154604
 30
0.0
  0
VERTEX
  5
70A
  8
0
 62
     0
 10
-0.0253604215543106
 20
8.132543886264708
 30
0.0
  0
VERTEX
  5
70B
  8
0
 62
     0
 10
0.1513339769609878
 20
8.184519730121112
 30
0.0
  0
VERTEX
  5
70C
  8
0
 62
     0
 10
0.2526683572273356
 20
8.158370321982458
 30
0.0
  0
VERTEX
  5
70D
  8
0
 62
     0
 10
0.2786895625729606
 20
8.109117799420597
 30
0.0
  0
VERTEX
  5
70E
  8
0
 62
     0
 10
0.3800017538943621
 20
8.056905273484753
 30
0.0
  0
VERTEX
  5
70F
  8
0
 62
     0
 10
0.4060007702950372
 20
7.981589633125697
 30
0.0
  0
VERTEX
  5
710
  8
0
 62
     0
 10
0.5072932381098205
 20
7.906209891370128
 30
0.0
  0
VERTEX
  5
711
  8
0
 62
     0
 10
0.4811857424227348
 20
7.854105844720696
 30
0.0
  0
VERTEX
  5
712
  8
0
 62
     0
 10
0.3798291732114372
 20
7.854192135062156
 30
0.0
  0
VERTEX
  5
713
  8
0
 62
     0
 10
0.3276610251654901
 20
7.805006179335138
 30
0.0
  0
VERTEX
  5
714
  8
0
 62
     0
 10
0.25240948620295
 20
7.854300614348567
 30
0.0
  0
VERTEX
  5
715
  8
0
 62
     0
 10
0.2031150511895206
 20
7.779049075386027
 30
0.0
  0
VERTEX
  5
716
  8
0
 62
     0
 10
0.1509025252536738
 20
7.677736884064625
 30
0.0
  0
VERTEX
  5
717
  8
0
 62
     0
 10
0.1016080902402443
 20
7.602485345102089
 30
0.0
  0
VERTEX
  5
718
  8
0
 62
     0
 10
-0.0518969035103822
 20
7.576552895536253
 30
0.0
  0
VERTEX
  5
719
  8
0
 62
     0
 10
-0.1271484424729188
 20
7.625847330549686
 30
0.0
  0
VERTEX
  5
71A
  8
0
 62
     0
 10
-0.1791661987808908
 20
7.753311395448065
 30
0.0
  0
VERTEX
  5
71B
  8
0
 62
     0
 10
-0.3036677948669642
 20
7.779480527093341
 30
0.0
  0
VERTEX
  5
71C
  8
0
 62
     0
 10
-0.4050021751333155
 20
7.805629935231995
 30
0.0
  0
VERTEX
  5
71D
  8
0
 62
     0
 10
-0.5064253111794521
 20
7.727526872181883
 30
0.0
  0
VERTEX
  5
71E
  8
0
 62
     0
 10
-0.6077818803907498
 20
7.727613162523348
 30
0.0
  0
VERTEX
  5
71F
  8
0
 62
     0
 10
-0.6859909572889435
 20
7.704512513538464
 30
0.0
  0
VERTEX
  5
720
  8
0
 62
     0
 10
-0.7612844087030481
 20
7.704576614934979
 30
0.0
  0
VERTEX
  5
721
  8
0
 62
     0
 10
-0.8105813091548058
 20
7.626429173994975
 30
0.0
  0
VERTEX
  5
722
  8
0
 62
     0
 10
-0.8628135585972707
 20
7.501949766853848
 30
0.0
  0
VERTEX
  5
723
  8
0
 62
     0
 10
-0.8368589200864882
 20
7.374507890900414
 30
0.0
  0
VERTEX
  5
724
  8
0
 62
     0
 10
-0.8368811090314381
 20
7.348444773103221
 30
0.0
  0
VERTEX
  5
725
  8
0
 62
     0
 10
-0.8369673993728988
 20
7.247088203891924
 30
0.0
  0
VERTEX
  5
726
  8
0
 62
     0
 10
-0.889179925308742
 20
7.145776012570522
 30
0.0
  0
VERTEX
  5
727
  8
0
 62
     0
 10
-0.9124334314699318
 20
7.044439166865846
 30
0.0
  0
VERTEX
  5
728
  8
0
 62
     0
 10
-0.9386247520601501
 20
6.893874452982583
 30
0.0
  0
VERTEX
  5
729
  8
0
 62
     0
 10
-0.9908372779959933
 20
6.792562261661178
 30
0.0
  0
VERTEX
  5
72A
  8
0
 62
     0
 10
-0.863397867480888
 20
6.815620998194493
 30
0.0
  0
VERTEX
  5
72B
  8
0
 62
     0
 10
-0.7098928737302614
 20
6.841553447760329
 30
0.0
  0
VERTEX
  5
72C
  8
0
 62
     0
 10
-0.6084722031224494
 20
6.916760608832973
 30
0.0
  0
VERTEX
  5
72D
  8
0
 62
     0
 10
-0.4838621277499655
 20
7.018011164196185
 30
0.0
  0
VERTEX
  5
72E
  8
0
 62
     0
 10
-0.4056505854134471
 20
7.044007715158536
 30
0.0
  0
VERTEX
  5
72F
  8
0
 62
     0
 10
-0.330399046450907
 20
6.994713280145103
 30
0.0
  0
VERTEX
  5
730
  8
0
 62
     0
 10
-0.2811909017789382
 20
6.968608249896345
 30
0.0
  0
VERTEX
  5
731
  8
0
 62
     0
 10
-0.1277302859182079
 20
6.942414463867799
 30
0.0
  0
VERTEX
  5
732
  8
0
 62
     0
 10
-0.1017312695175328
 20
6.867098823508744
 30
0.0
  0
VERTEX
  5
733
  8
0
 62
     0
 10
-0.0786725329842177
 20
6.739659412993635
 30
0.0
  0
VERTEX
  5
734
  8
0
 62
     0
 10
-0.0787144454357858
 20
6.69042907937672
 30
0.0
  0
VERTEX
  5
735
  8
0
 62
     0
 10
-0.1800932035920297
 20
6.664452251920991
 30
0.0
  0
VERTEX
  5
736
  8
0
 62
     0
 10
-0.2814497728033274
 20
6.664538542262456
 30
0.0
  0
VERTEX
  5
737
  8
0
 62
     0
 10
-0.3828285309595714
 20
6.638561714806727
 30
0.0
  0
VERTEX
  5
738
  8
0
 62
     0
 10
-0.5073942284421591
 20
6.589437395037894
 30
0.0
  0
VERTEX
  5
739
  8
0
 62
     0
 10
-0.5855835818337312
 20
6.589503961872737
 30
0.0
  0
VERTEX
  5
73A
  8
0
 62
     0
 10
-0.660921411137732
 20
6.537441827674868
 30
0.0
  0
VERTEX
  5
73B
  8
0
 62
     0
 10
-0.7362148625518401
 20
6.537505929071386
 30
0.0
  0
VERTEX
  5
73C
  8
0
 62
     0
 10
-0.7883830105977871
 20
6.488319973344364
 30
0.0
  0
VERTEX
  5
73D
  8
0
 62
     0
 10
-0.8898061466439273
 20
6.410216910294256
 30
0.0
  0
VERTEX
  5
73E
  8
0
 62
     0
 10
-0.9130596528051136
 20
6.30888006458958
 30
0.0
  0
VERTEX
  5
73F
  8
0
 62
     0
 10
-0.9392090609437673
 20
6.207545684323229
 30
0.0
  0
VERTEX
  5
740
  8
0
 62
     0
 10
-1.066929531428212
 20
5.854354122358835
 30
0.0
  0
VERTEX
  5
741
  8
0
 62
     0
 10
-1.093101128511812
 20
5.726956624295294
 30
0.0
  0
VERTEX
  5
742
  8
0
 62
     0
 10
-1.04108337220384
 20
5.599492559396911
 30
0.0
  0
VERTEX
  5
743
  8
0
 62
     0
 10
-0.9136636851953526
 20
5.5993840801105
 30
0.0
  0
VERTEX
  5
744
  8
0
 62
     0
 10
-0.8905605707721413
 20
5.524070905189774
 30
0.0
  0
VERTEX
  5
745
  8
0
 62
     0
 10
-0.8124796966669798
 20
5.396584651346444
 30
0.0
  0
VERTEX
  5
746
  8
0
 62
     0
 10
-0.7893543932988223
 20
5.347334594222911
 30
0.0
  0
VERTEX
  5
747
  8
0
 62
     0
 10
-0.6879756351425783
 20
5.373311421678636
 30
0.0
  0
VERTEX
  5
748
  8
0
 62
     0
 10
-0.5865993424246625
 20
5.396392347156901
 30
0.0
  0
VERTEX
  5
749
  8
0
 62
     0
 10
-0.5604918467375768
 20
5.448496393806334
 30
0.0
  0
VERTEX
  5
74A
  8
0
 62
     0
 10
-0.5082374083501655
 20
5.59903891874465
 30
0.0
  0
VERTEX
  5
74B
  8
0
 62
     0
 10
-0.4328773901012148
 20
5.677164170739708
 30
0.0
  0
VERTEX
  5
74C
  8
0
 62
     0
 10
-0.3835607661428391
 20
5.778478827499438
 30
0.0
  0
VERTEX
  5
74D
  8
0
 62
     0
 10
-0.3313285167003741
 20
5.902958234640565
 30
0.0
  0
VERTEX
  5
74E
  8
0
 62
     0
 10
-0.2038225393504263
 20
6.004206324565452
 30
0.0
  0
VERTEX
  5
74F
  8
0
 62
     0
 10
-0.1284625211014756
 20
6.082331576560509
 30
0.0
  0
VERTEX
  5
750
  8
0
 62
     0
 10
-0.1284206086499076
 20
6.131561910177425
 30
0.0
  0
VERTEX
  5
751
  8
0
 62
     0
 10
-0.0269777490971492
 20
6.232832189047258
 30
0.0
  0
VERTEX
  5
752
  8
0
 62
     0
 10
0.0744231980040411
 20
6.284872134300176
 30
0.0
  0
VERTEX
  5
753
  8
0
 62
     0
 10
0.1235672412794955
 20
6.183473652637314
 30
0.0
  0
VERTEX
  5
754
  8
0
 62
     0
 10
0.175693476873878
 20
6.183429274747418
 30
0.0
  0
VERTEX
  5
755
  8
0
 62
     0
 10
0.2510732186294469
 20
6.284721742562201
 30
0.0
  0
VERTEX
  5
756
  8
0
 62
     0
 10
0.3263863935501732
 20
6.307824856985409
 30
0.0
  0
VERTEX
  5
757
  8
0
 62
     0
 10
0.4278292531029315
 20
6.409095135855242
 30
0.0
  0
VERTEX
  5
758
  8
0
 62
     0
 10
0.5553155069462612
 20
6.487176009960404
 30
0.0
  0
VERTEX
  5
759
  8
0
 62
     0
 10
0.6307149722084482
 20
6.611635693594913
 30
0.0
  0
VERTEX
  5
75A
  8
0
 62
     0
 10
0.6308012625499124
 20
6.71299226280621
 30
0.0
  0
VERTEX
  5
75B
  8
0
 62
     0
 10
0.6569728596335125
 20
6.840389760869748
 30
0.0
  0
VERTEX
  5
75C
  8
0
 62
     0
 10
0.7322663110476171
 20
6.840325659473233
 30
0.0
  0
VERTEX
  5
75D
  8
0
 62
     0
 10
0.810477853384139
 20
6.86632221043558
 30
0.0
  0
VERTEX
  5
75E
  8
0
 62
     0
 10
0.8857491158532973
 20
6.840194991241876
 30
0.0
  0
VERTEX
  5
75F
  8
0
 62
     0
 10
0.9869774822715627
 20
6.689521798072203
 30
0.0
  0
VERTEX
  5
760
  8
0
 62
     0
 10
0.9607836962430163
 20
6.536061182211473
 30
0.0
  0
VERTEX
  5
761
  8
0
 62
     0
 10
0.9345923756527945
 20
6.385496468328206
 30
0.0
  0
VERTEX
  5
762
  8
0
 62
     0
 10
0.934483896366384
 20
6.258076781319719
 30
0.0
  0
VERTEX
  5
763
  8
0
 62
     0
 10
1.012673249757956
 20
6.258010214484877
 30
0.0
  0
VERTEX
  5
764
  8
0
 62
     0
 10
1.087944512227114
 20
6.231882995291173
 30
0.0
  0
VERTEX
  5
765
  8
0
 62
     0
 10
1.163151673299758
 20
6.130462324683361
 30
0.0
  0
VERTEX
  5
766
  8
0
 62
     0
 10
1.189172878645383
 20
6.081209802121496
 30
0.0
  0
VERTEX
  5
767
  8
0
 62
     0
 10
1.290571360308245
 20
6.13035384539695
 30
0.0
  0
VERTEX
  5
768
  8
0
 62
     0
 10
1.316698579501953
 20
6.205625107866108
 30
0.0
  0
VERTEX
  5
769
  8
0
 62
     0
 10
1.3920585977509
 20
6.283750359861166
 30
0.0
  0
VERTEX
  5
76A
  8
0
 62
     0
 10
1.441375221709279
 20
6.385065016620896
 30
0.0
  0
VERTEX
  5
76B
  8
0
 62
     0
 10
1.441525613447258
 20
6.561715037246298
 30
0.0
  0
VERTEX
  5
76C
  8
0
 62
     0
 10
1.418466876913943
 20
6.689154447761403
 30
0.0
  0
VERTEX
  5
76D
  8
0
 62
     0
 10
1.392509772964832
 20
6.813700421737373
 30
0.0
  0
VERTEX
  5
76E
  8
0
 62
     0
 10
1.340492016656864
 20
6.941164486635756
 30
0.0
  0
VERTEX
  5
76F
  8
0
 62
     0
 10
1.23919954884208
 20
7.016544228391325
 30
0.0
  0
VERTEX
  5
770
  8
0
 62
     0
 10
1.190013593115058
 20
7.068712376437272
 30
0.0
  0
VERTEX
  5
771
  8
0
 62
     0
 10
1.138015560313708
 20
7.219343657155381
 30
0.0
  0
VERTEX
  5
772
  8
0
 62
     0
 10
1.265457436267145
 20
7.24529829566616
 30
0.0
  0
VERTEX
  5
773
  8
0
 62
     0
 10
1.340814989077764
 20
7.320527645683754
 30
0.0
  0
VERTEX
  5
774
  8
0
 62
     0
 10
1.442302226520418
 20
7.47392416014797
 30
0.0
  0
VERTEX
  5
775
  8
0
 62
     0
 10
1.442366327916933
 20
7.549217611562074
 30
0.0
  0
VERTEX
  5
776
  8
0
 62
     0
 10
1.419243489987103
 20
7.601363570663075
 30
0.0
  0
VERTEX
  5
777
  8
0
 62
     0
 10
1.291929816826698
 20
7.725995834980509
 30
0.0
  0
VERTEX
  5
778
  8
0
 62
     0
 10
1.190617625505297
 20
7.778208360916352
 30
0.0
  0
VERTEX
  5
779
  8
0
 62
     0
 10
1.138555491307429
 20
7.853546190220353
 30
0.0
  0
VERTEX
  5
77A
  8
0
 62
     0
 10
1.138750260935304
 20
8.08232244644014
 30
0.0
  0
VERTEX
  5
77B
  8
0
 62
     0
 10
1.037544083461984
 20
8.259058757407002
 30
0.0
  0
VERTEX
  5
77C
  8
0
 62
     0
 10
0.9362959935370974
 20
8.386564734756952
 30
0.0
  0
VERTEX
  5
77D
  8
0
 62
     0
 10
0.8350479036122103
 20
8.5140707121069
 30
0.0
  0
VERTEX
  5
77E
  8
0
 62
     0
 10
0.7859038603367559
 20
8.61546919376977
 30
0.0
  0
VERTEX
  5
77F
  8
0
 62
     0
 10
0.7106745103191656
 20
8.690826746580392
 30
0.0
  0
VERTEX
  5
780
  8
0
 62
     0
 10
0.6094042314493322
 20
8.792269606133146
 30
0.0
  0
VERTEX
  5
781
  8
0
 62
     0
 10
0.557342097251464
 20
8.86760743543715
 30
0.0
  0
VERTEX
  5
782
  8
0
 62
     0
 10
0.4299224102429768
 20
8.867715914723561
 30
0.0
  0
VERTEX
  5
783
  8
0
 62
     0
 10
0.3285436520867329
 20
8.841739087267833
 30
0.0
  0
VERTEX
  5
784
  8
0
 62
     0
 10
0.2532502006726283
 20
8.841803188664343
 30
0.0
  0
VERTEX
  5
785
  8
0
 62
     0
 10
0.2040642449456058
 20
8.893971336710294
 30
0.0
  0
SEQEND
  5
864
  8
0
 62
     0
  0
POLYLINE
  5
3E4
  8
0
 62
     0
 66
     1
 10
0.0
 20
0.0
 30
0.0
  0
VERTEX
  5
786
  8
0
 62
     0
 10
-0.3304212353958569
 20
6.968650162347913
 30
0.0
  0
VERTEX
  5
787
  8
0
 62
     0
 10
-0.3304853367923712
 20
6.893356710933809
 30
0.0
  0
VERTEX
  5
788
  8
0
 62
     0
 10
-0.3045306982815887
 20
6.765914834980371
 30
0.0
  0
VERTEX
  5
789
  8
0
 62
     0
 10
-0.2553866550061379
 20
6.664516353317509
 30
0.0
  0
SEQEND
  5
865
  8
0
 62
     0
  0
POLYLINE
  5
3EA
  8
0
 62
     0
 66
     1
 10
0.0
 20
0.0
 30
0.0
  0
VERTEX
  5
78A
  8
0
 62
     0
 10
-0.6074564425315216
 20
8.10987222354881
 30
0.0
  0
VERTEX
  5
78B
  8
0
 62
     0
 10
-0.532229557952256
 20
8.031618768760724
 30
0.0
  0
VERTEX
  5
78C
  8
0
 62
     0
 10
-0.5062305415515809
 20
7.956303128401668
 30
0.0
  0
VERTEX
  5
78D
  8
0
 62
     0
 10
-0.4570643093311801
 20
7.880967764535995
 30
0.0
  0
VERTEX
  5
78E
  8
0
 62
     0
 10
-0.431065292930505
 20
7.805652124176941
 30
0.0
  0
SEQEND
  5
866
  8
0
 62
     0
  0
POLYLINE
  5
3F1
  8
0
 62
     0
 66
     1
 10
0.0
 20
0.0
 30
0.0
  0
VERTEX
  5
78F
  8
0
 62
     0
 10
-0.4306141177165728
 20
8.335602186053151
 30
0.0
  0
VERTEX
  5
790
  8
0
 62
     0
 10
-0.4567832493618447
 20
8.211100589967076
 30
0.0
  0
VERTEX
  5
791
  8
0
 62
     0
 10
-0.4568917286482552
 20
8.083680902958589
 30
0.0
  0
VERTEX
  5
792
  8
0
 62
     0
 10
-0.4309370901374763
 20
7.956239027005154
 30
0.0
  0
VERTEX
  5
793
  8
0
 62
     0
 10
-0.3818349593135899
 20
7.805610211725373
 30
0.0
  0
SEQEND
  5
867
  8
0
 62
     0
  0
POLYLINE
  5
3F8
  8
0
 62
     0
 66
     1
 10
0.0
 20
0.0
 30
0.0
  0
VERTEX
  5
794
  8
0
 62
     0
 10
-0.4566772355137623
 20
8.335624374998098
 30
0.0
  0
VERTEX
  5
795
  8
0
 62
     0
 10
-0.4829770353903946
 20
8.057639974106346
 30
0.0
  0
VERTEX
  5
796
  8
0
 62
     0
 10
-0.6074145300799536
 20
8.159102557165726
 30
0.0
  0
SEQEND
  5
868
  8
0
 62
     0
  0
POLYLINE
  5
3FD
  8
0
 62
     0
 66
     1
 10
0.0
 20
0.0
 30
0.0
 70
     1
  0
VERTEX
  5
797
  8
0
 62
     0
 10
0.8322422347955154
 20
5.218534261751024
 30
0.0
  0
VERTEX
  5
798
  8
0
 62
     0
 10
0.8090750189757898
 20
5.218553985257643
 30
0.0
  0
VERTEX
  5
799
  8
0
 62
     0
 10
0.782989712233654
 20
5.192513056405399
 30
0.0
  0
VERTEX
  5
79A
  8
0
 62
     0
 10
0.7569265944364609
 20
5.192535245350346
 30
0.0
  0
VERTEX
  5
79B
  8
0
 62
     0
 10
0.7076962608195458
 20
5.192577157801914
 30
0.0
  0
VERTEX
  5
79C
  8
0
 62
     0
 10
0.6063618805531981
 20
5.218726565940567
 30
0.0
  0
VERTEX
  5
79D
  8
0
 62
     0
 10
0.5049831223969541
 20
5.192749738484839
 30
0.0
  0
VERTEX
  5
79E
  8
0
 62
     0
 10
0.4267296676088677
 20
5.117522853905577
 30
0.0
  0
VERTEX
  5
79F
  8
0
 62
     0
 10
0.5280640478752154
 20
5.091373445766923
 30
0.0
  0
VERTEX
  5
7A0
  8
0
 62
     0
 10
0.6062336777601693
 20
5.068139663112355
 30
0.0
  0
VERTEX
  5
7A1
  8
0
 62
     0
 10
0.6553777210356202
 20
4.966741181449493
 30
0.0
  0
VERTEX
  5
7A2
  8
0
 62
     0
 10
0.7074595787401066
 20
4.914570567965214
 30
0.0
  0
VERTEX
  5
7A3
  8
0
 62
     0
 10
0.7073954773435922
 20
4.839277116551109
 30
0.0
  0
VERTEX
  5
7A4
  8
0
 62
     0
 10
0.6812682581498848
 20
4.764005854081951
 30
0.0
  0
VERTEX
  5
7A5
  8
0
 62
     0
 10
0.6059748067357802
 20
4.764069955478465
 30
0.0
  0
VERTEX
  5
7A6
  8
0
 62
     0
 10
0.5799116889385907
 20
4.764092144423412
 30
0.0
  0
VERTEX
  5
7A7
  8
0
 62
     0
 10
0.5045738596345899
 20
4.712030010225547
 30
0.0
  0
VERTEX
  5
7A8
  8
0
 62
     0
 10
0.553762280799937
 20
4.662757764157064
 30
0.0
  0
VERTEX
  5
7A9
  8
0
 62
     0
 10
0.6058441385044233
 20
4.610587150672789
 30
0.0
  0
VERTEX
  5
7AA
  8
0
 62
     0
 10
0.5536957139650944
 20
4.584568410765492
 30
0.0
  0
VERTEX
  5
7AB
  8
0
 62
     0
 10
0.4783381611544719
 20
4.509339060747902
 30
0.0
  0
VERTEX
  5
7AC
  8
0
 62
     0
 10
0.4261478241635785
 20
4.43408998722369
 30
0.0
  0
VERTEX
  5
7AD
  8
0
 62
     0
 10
0.4260837227670606
 20
4.358796535809581
 30
0.0
  0
VERTEX
  5
7AE
  8
0
 62
     0
 10
0.5042730761586327
 20
4.358729968974739
 30
0.0
  0
VERTEX
  5
7AF
  8
0
 62
     0
 10
0.6056493688765521
 20
4.381810894453004
 30
0.0
  0
VERTEX
  5
7B0
  8
0
 62
     0
 10
0.7822796659953326
 20
4.3584932868953
 30
0.0
  0
VERTEX
  5
7B1
  8
0
 62
     0
 10
0.8836140462616839
 20
4.332343878756646
 30
0.0
  0
VERTEX
  5
7B2
  8
0
 62
     0
 10
0.9327802784820847
 20
4.257008514890973
 30
0.0
  0
VERTEX
  5
7B3
  8
0
 62
     0
 10
1.010947442928707
 20
4.230878830258941
 30
0.0
  0
VERTEX
  5
7B4
  8
0
 62
     0
 10
1.034178760144947
 20
4.306152558166428
 30
0.0
  0
VERTEX
  5
7B5
  8
0
 62
     0
 10
1.034223138034843
 20
4.358278793760807
 30
0.0
  0
VERTEX
  5
7B6
  8
0
 62
     0
 10
1.034265050486411
 20
4.407509127377725
 30
0.0
  0
VERTEX
  5
7B7
  8
0
 62
     0
 10
1.135707910039169
 20
4.508779406247559
 30
0.0
  0
VERTEX
  5
7B8
  8
0
 62
     0
 10
1.135794200380634
 20
4.610135975458856
 30
0.0
  0
VERTEX
  5
7B9
  8
0
 62
     0
 10
1.086563866763715
 20
4.610177887910421
 30
0.0
  0
VERTEX
  5
7BA
  8
0
 62
     0
 10
0.9332314536960169
 20
4.786958576767184
 30
0.0
  0
VERTEX
  5
7BB
  8
0
 62
     0
 10
0.9853576892903959
 20
4.786914198877287
 30
0.0
  0
VERTEX
  5
7BC
  8
0
 62
     0
 10
1.060695518594397
 20
4.838976333075156
 30
0.0
  0
VERTEX
  5
7BD
  8
0
 62
     0
 10
1.01150709742905
 20
4.888248579143639
 30
0.0
  0
VERTEX
  5
7BE
  8
0
 62
     0
 10
0.9333843108723201
 20
4.96650449937005
 30
0.0
  0
VERTEX
  5
7BF
  8
0
 62
     0
 10
0.8320918430575404
 20
5.041884241125619
 30
0.0
  0
VERTEX
  5
7C0
  8
0
 62
     0
 10
0.8089665396893828
 20
5.091134298249155
 30
0.0
  0
VERTEX
  5
7C1
  8
0
 62
     0
 10
0.8322644237404653
 20
5.244597379548214
 30
0.0
  0
SEQEND
  5
869
  8
0
 62
     0
  0
POLYLINE
  5
42A
  8
0
 62
     0
 66
     1
 10
0.0
 20
0.0
 30
0.0
 70
     1
  0
VERTEX
  5
7C2
  8
0
 62
     0
 10
0.7819542281361045
 20
3.976234225869838
 30
0.0
  0
VERTEX
  5
7C3
  8
0
 62
     0
 10
0.755957677173754
 20
4.054445768206357
 30
0.0
  0
VERTEX
  5
7C4
  8
0
 62
     0
 10
0.7299142828831862
 20
4.077635172971029
 30
0.0
  0
VERTEX
  5
7C5
  8
0
 62
     0
 10
0.6546652093589742
 20
4.129825509961925
 30
0.0
  0
VERTEX
  5
7C6
  8
0
 62
     0
 10
0.6054570646870054
 20
4.155930540210683
 30
0.0
  0
VERTEX
  5
7C7
  8
0
 62
     0
 10
0.5040561175858151
 20
4.103890594957765
 30
0.0
  0
VERTEX
  5
7C8
  8
0
 62
     0
 10
0.3766586195222743
 20
4.130062192041365
 30
0.0
  0
VERTEX
  5
7C9
  8
0
 62
     0
 10
0.2492611214587335
 20
4.156233789124968
 30
0.0
  0
VERTEX
  5
7CA
  8
0
 62
     0
 10
0.1999864099519222
 20
4.104149465982154
 30
0.0
  0
VERTEX
  5
7CB
  8
0
 62
     0
 10
0.1999444975003577
 20
4.054919132365239
 30
0.0
  0
VERTEX
  5
7CC
  8
0
 62
     0
 10
0.2491082642824303
 20
3.976687866522099
 30
0.0
  0
VERTEX
  5
7CD
  8
0
 62
     0
 10
0.3765082277842957
 20
3.953412171415962
 30
0.0
  0
VERTEX
  5
7CE
  8
0
 62
     0
 10
0.5270285637776659
 20
3.875094615231362
 30
0.0
  0
VERTEX
  5
7CF
  8
0
 62
     0
 10
0.5791128869204805
 20
3.82581990372455
 30
0.0
  0
VERTEX
  5
7D0
  8
0
 62
     0
 10
0.6283210315924492
 20
3.799714873475793
 30
0.0
  0
VERTEX
  5
7D1
  8
0
 62
     0
 10
0.7065744863805357
 20
3.874941758055055
 30
0.0
  0
VERTEX
  5
7D2
  8
0
 62
     0
 10
0.7558048199974507
 20
3.87489984560349
 30
0.0
  0
VERTEX
  5
7D3
  8
0
 62
     0
 10
0.8571194767571804
 20
3.825583221645111
 30
0.0
  0
VERTEX
  5
7D4
  8
0
 62
     0
 10
0.8831825945543699
 20
3.825561032700165
 30
0.0
  0
VERTEX
  5
7D5
  8
0
 62
     0
 10
0.8832245070059379
 20
3.87479136631708
 30
0.0
  0
VERTEX
  5
7D6
  8
0
 62
     0
 10
0.8571835781536947
 20
3.900876673059216
 30
0.0
  0
VERTEX
  5
7D7
  8
0
 62
     0
 10
0.7819345046294828
 20
3.953067010050113
 30
0.0
  0
SEQEND
  5
86A
  8
0
 62
     0
  0
INSERT
  5
442
  8
0
 62
     0
  2
*X0
 10
-24.38436757789487
 20
-9.554316144361424
 30
0.0
 41
2.0
 42
2.0
 43
2.0
  0
POLYLINE
  5
443
  8
0
 62
     0
 66
     1
 10
0.0
 20
0.0
 30
0.0
  0
VERTEX
  5
7D8
  8
0
 62
     0
 10
-0.0270196615487173
 20
6.183601855430343
 30
0.0
  0
VERTEX
  5
7D9
  8
0
 62
     0
 10
0.1001189654904344
 20
5.853360550712853
 30
0.0
  0
VERTEX
  5
7DA
  8
0
 62
     0
 10
0.1236091537310635
 20
6.232703986254229
 30
0.0
  0
SEQEND
  5
86B
  8
0
 62
     0
  0
POLYLINE
  5
448
  8
0
 62
     0
 66
     1
 10
0.0
 20
0.0
 30
0.0
  0
VERTEX
  5
7DB
  8
0
 62
     0
 10
-0.0791902750329925
 20
6.131519997725857
 30
0.0
  0
VERTEX
  5
7DC
  8
0
 62
     0
 10
0.0219715245504304
 20
5.902657451164611
 30
0.0
  0
VERTEX
  5
7DD
  8
0
 62
     0
 10
0.047928628499541
 20
5.778111477188641
 30
0.0
  0
VERTEX
  5
7DE
  8
0
 62
     0
 10
0.0999020069176169
 20
5.598521176695876
 30
0.0
  0
VERTEX
  5
7DF
  8
0
 62
     0
 10
0.0993423524172741
 20
4.941151427811182
 30
0.0
  0
VERTEX
  5
7E0
  8
0
 62
     0
 10
0.0989330896549099
 20
4.460431699551886
 30
0.0
  0
VERTEX
  5
7E1
  8
0
 62
     0
 10
-0.0023593781598734
 20
4.535811441307455
 30
0.0
  0
VERTEX
  5
7E2
  8
0
 62
     0
 10
-0.1036518459746532
 20
4.611191183063024
 30
0.0
  0
VERTEX
  5
7E3
  8
0
 62
     0
 10
-0.3062786940557842
 20
4.712720332957247
 30
0.0
  0
VERTEX
  5
7E4
  8
0
 62
     0
 10
-0.4075908853771892
 20
4.76493285889309
 30
0.0
  0
VERTEX
  5
7E5
  8
0
 62
     0
 10
-0.5350105723856764
 20
4.7650413381795
 30
0.0
  0
VERTEX
  5
7E6
  8
0
 62
     0
 10
-0.7116186805595106
 20
4.814422063534394
 30
0.0
  0
SEQEND
  5
86C
  8
0
 62
     0
  0
POLYLINE
  5
456
  8
0
 62
     0
 66
     1
 10
0.0
 20
0.0
 30
0.0
  0
VERTEX
  5
7E7
  8
0
 62
     0
 10
-0.7116408695044569
 20
4.788358945737201
 30
0.0
  0
VERTEX
  5
7E8
  8
0
 62
     0
 10
-0.5871589969250053
 20
4.739022598272204
 30
0.0
  0
VERTEX
  5
7E9
  8
0
 62
     0
 10
-0.485824616658654
 20
4.71287319013355
 30
0.0
  0
VERTEX
  5
7EA
  8
0
 62
     0
 10
-0.4076574522120318
 20
4.686743505501518
 30
0.0
  0
VERTEX
  5
7EB
  8
0
 62
     0
 10
-0.2831977685775229
 20
4.611344040239331
 30
0.0
  0
VERTEX
  5
7EC
  8
0
 62
     0
 10
-0.1298012541133069
 20
4.509856802796676
 30
0.0
  0
VERTEX
  5
7ED
  8
0
 62
     0
 10
-0.054594093040663
 20
4.408436132188864
 30
0.0
  0
VERTEX
  5
7EE
  8
0
 62
     0
 10
0.0206352569769273
 20
4.333078579378242
 30
0.0
  0
VERTEX
  5
7EF
  8
0
 62
     0
 10
0.0466342733776024
 20
4.257762939019187
 30
0.0
  0
VERTEX
  5
7F0
  8
0
 62
     0
 10
0.072566722943435
 20
4.104257945268564
 30
0.0
  0
VERTEX
  5
7F1
  8
0
 62
     0
 10
0.0723078519190494
 20
3.800188237634671
 30
0.0
  0
VERTEX
  5
7F2
  8
0
 62
     0
 10
0.0199868466967956
 20
3.571456359304783
 30
0.0
  0
VERTEX
  5
7F3
  8
0
 62
     0
 10
0.0459217617009564
 20
3.420847267531624
 30
0.0
  0
VERTEX
  5
7F4
  8
0
 62
     0
 10
0.0457269920730816
 20
3.192071011311839
 30
0.0
  0
VERTEX
  5
7F5
  8
0
 62
     0
 10
0.0455544113901567
 20
2.989357872889244
 30
0.0
  0
VERTEX
  5
7F6
  8
0
 62
     0
 10
0.0454040196521817
 20
2.812707852263841
 30
0.0
  0
VERTEX
  5
7F7
  8
0
 62
     0
 10
0.0451673375727424
 20
2.534701262427141
 30
0.0
  0
VERTEX
  5
7F8
  8
0
 62
     0
 10
0.0709913078521645
 20
2.253776581668028
 30
0.0
  0
VERTEX
  5
7F9
  8
0
 62
     0
 10
0.0708631050591357
 20
2.103189678839819
 30
0.0
  0
VERTEX
  5
7FA
  8
0
 62
     0
 10
0.0707324368277753
 20
1.949706874034138
 30
0.0
  0
VERTEX
  5
7FB
  8
0
 62
     0
 10
0.0207920569725388
 20
1.115729016975607
 30
0.0
  0
VERTEX
  5
7FC
  8
0
 62
     0
 10
-0.0566206833458693
 20
2.028004706712121
 30
0.0
  0
VERTEX
  5
7FD
  8
0
 62
     0
 10
-0.082338639777209
 20
2.433453172502254
 30
0.0
  0
VERTEX
  5
7FE
  8
0
 62
     0
 10
-0.0821241466427161
 20
2.685396644541765
 30
0.0
  0
VERTEX
  5
7FF
  8
0
 62
     0
 10
-0.1051187817795167
 20
2.888129506470978
 30
0.0
  0
VERTEX
  5
800
  8
0
 62
     0
 10
-0.1048820997000774
 20
3.166136096307678
 30
0.0
  0
VERTEX
  5
801
  8
0
 62
     0
 10
-0.1307923603209638
 20
3.345704207855494
 30
0.0
  0
VERTEX
  5
802
  8
0
 62
     0
 10
-0.1306197796380388
 20
3.548417346278089
 30
0.0
  0
VERTEX
  5
803
  8
0
 62
     0
 10
-0.1565103167523034
 20
3.751152673645628
 30
0.0
  0
VERTEX
  5
804
  8
0
 62
     0
 10
-0.130232705820621
 20
4.003073956740192
 30
0.0
  0
VERTEX
  5
805
  8
0
 62
     0
 10
-0.1300823140826424
 20
4.179723977365594
 30
0.0
  0
VERTEX
  5
806
  8
0
 62
     0
 10
-0.1299516458512855
 20
4.333206782171271
 30
0.0
  0
VERTEX
  5
807
  8
0
 62
     0
 10
-0.1298012541133069
 20
4.509856802796676
 30
0.0
  0
SEQEND
  5
86D
  8
0
 62
     0
  0
POLYLINE
  5
479
  8
0
 62
     0
 66
     1
 10
0.0
 20
0.0
 30
0.0
  0
VERTEX
  5
808
  8
0
 62
     0
 10
-0.2820759941385127
 20
5.928979439986186
 30
0.0
  0
VERTEX
  5
809
  8
0
 62
     0
 10
-0.2300360488855944
 20
5.827578492884996
 30
0.0
  0
VERTEX
  5
80A
  8
0
 62
     0
 10
-0.18089200561014
 20
5.72618001122213
 30
0.0
  0
VERTEX
  5
80B
  8
0
 62
     0
 10
-0.1549151781544111
 20
5.624801253065886
 30
0.0
  0
VERTEX
  5
80C
  8
0
 62
     0
 10
-0.1550236574408217
 20
5.497381566057399
 30
0.0
  0
VERTEX
  5
80D
  8
0
 62
     0
 10
-0.1290887424366609
 20
5.34677247428424
 30
0.0
  0
VERTEX
  5
80E
  8
0
 62
     0
 10
-0.1291972217230715
 20
5.219352787275753
 30
0.0
  0
VERTEX
  5
80F
  8
0
 62
     0
 10
-0.1553885423132897
 20
5.068788073392486
 30
0.0
  0
VERTEX
  5
810
  8
0
 62
     0
 10
-0.1815379504519434
 20
4.967453693126139
 30
0.0
  0
VERTEX
  5
811
  8
0
 62
     0
 10
-0.1815601393968933
 20
4.941390575328949
 30
0.0
  0
VERTEX
  5
812
  8
0
 62
     0
 10
-0.2306819937273978
 20
5.068852174789004
 30
0.0
  0
VERTEX
  5
813
  8
0
 62
     0
 10
-0.2566588211831267
 20
5.170230932945248
 30
0.0
  0
VERTEX
  5
814
  8
0
 62
     0
 10
-0.3057831409519594
 20
5.294796630427836
 30
0.0
  0
VERTEX
  5
815
  8
0
 62
     0
 10
-0.3318018808592527
 20
5.346945054967165
 30
0.0
  0
VERTEX
  5
816
  8
0
 62
     0
 10
-0.3317599684076882
 20
5.39617538858408
 30
0.0
  0
VERTEX
  5
817
  8
0
 62
     0
 10
-0.331715590517792
 20
5.448301624178463
 30
0.0
  0
VERTEX
  5
818
  8
0
 62
     0
 10
-0.3316293001763277
 20
5.54965819338976
 30
0.0
  0
VERTEX
  5
819
  8
0
 62
     0
 10
-0.3315873877247633
 20
5.598888527006675
 30
0.0
  0
VERTEX
  5
81A
  8
0
 62
     0
 10
-0.3315208208899207
 20
5.677077880398247
 30
0.0
  0
VERTEX
  5
81B
  8
0
 62
     0
 10
-0.3314567194934064
 20
5.752371331812352
 30
0.0
  0
VERTEX
  5
81C
  8
0
 62
     0
 10
-0.3574779248390278
 20
5.801623854374217
 30
0.0
  0
VERTEX
  5
81D
  8
0
 62
     0
 10
-0.3574335469491317
 20
5.853750089968596
 30
0.0
  0
SEQEND
  5
86E
  8
0
 62
     0
  0
POLYLINE
  5
491
  8
0
 62
     0
 66
     1
 10
0.0
 20
0.0
 30
0.0
  0
VERTEX
  5
81E
  8
0
 62
     0
 10
-0.3836051440327317
 20
5.726352591905055
 30
0.0
  0
VERTEX
  5
81F
  8
0
 62
     0
 10
-0.3838418261121745
 20
5.448346002068355
 30
0.0
  0
VERTEX
  5
820
  8
0
 62
     0
 10
-0.3579291000529601
 20
5.271673792498007
 30
0.0
  0
VERTEX
  5
821
  8
0
 62
     0
 10
-0.5344287289403873
 20
5.448474204861387
 30
0.0
  0
SEQEND
  5
86F
  8
0
 62
     0
  0
POLYLINE
  5
497
  8
0
 62
     0
 66
     1
 10
0.0
 20
0.0
 30
0.0
  0
VERTEX
  5
822
  8
0
 62
     0
 10
-0.1297149637718462
 20
4.61121337200797
 30
0.0
  0
VERTEX
  5
823
  8
0
 62
     0
 10
-0.0801616577340276
 20
4.9905346186044
 30
0.0
  0
VERTEX
  5
824
  8
0
 62
     0
 10
-0.0799668881061564
 20
5.219310874824185
 30
0.0
  0
VERTEX
  5
825
  8
0
 62
     0
 10
-0.0797721184782816
 20
5.44808713104397
 30
0.0
  0
VERTEX
  5
826
  8
0
 62
     0
 10
-0.1028308550115966
 20
5.575526541559078
 30
0.0
  0
VERTEX
  5
827
  8
0
 62
     0
 10
-0.1287435810708111
 20
5.752198751129427
 30
0.0
  0
VERTEX
  5
828
  8
0
 62
     0
 10
-0.1807835263237294
 20
5.853599698230621
 30
0.0
  0
VERTEX
  5
829
  8
0
 62
     0
 10
-0.2038644518019908
 20
5.954975990948537
 30
0.0
  0
SEQEND
  5
870
  8
0
 62
     0
  0
POLYLINE
  5
4A1
  8
0
 62
     0
 66
     1
 10
0.0
 20
0.0
 30
0.0
  0
VERTEX
  5
82A
  8
0
 62
     0
 10
-0.5865771534797126
 20
5.422455464954091
 30
0.0
  0
VERTEX
  5
82B
  8
0
 62
     0
 10
-0.4853068746098792
 20
5.321012605401332
 30
0.0
  0
VERTEX
  5
82C
  8
0
 62
     0
 10
-0.3840365957400458
 20
5.219569745848574
 30
0.0
  0
VERTEX
  5
82D
  8
0
 62
     0
 10
-0.3319966504871275
 20
5.11816879874738
 30
0.0
  0
VERTEX
  5
82E
  8
0
 62
     0
 10
-0.2568535908109979
 20
4.941454676725463
 30
0.0
  0
VERTEX
  5
82F
  8
0
 62
     0
 10
-0.2570039825489765
 20
4.764804656100061
 30
0.0
  0
VERTEX
  5
830
  8
0
 62
     0
 10
-0.2570483604388691
 20
4.712678420505679
 30
0.0
  0
SEQEND
  5
871
  8
0
 62
     0
  0
POLYLINE
  5
4AA
  8
0
 62
     0
 66
     1
 10
0.0
 20
0.0
 30
0.0
  0
VERTEX
  5
831
  8
0
 62
     0
 10
0.6292924142934844
 20
4.940700252597249
 30
0.0
  0
VERTEX
  5
832
  8
0
 62
     0
 10
0.4786192211238074
 20
4.83947188617898
 30
0.0
  0
VERTEX
  5
833
  8
0
 62
     0
 10
0.3771763615710491
 20
4.738201607309147
 30
0.0
  0
VERTEX
  5
834
  8
0
 62
     0
 10
0.3017966198154802
 20
4.636909139494364
 30
0.0
  0
VERTEX
  5
835
  8
0
 62
     0
 10
0.2003093823728257
 20
4.483512625030148
 30
0.0
  0
VERTEX
  5
836
  8
0
 62
     0
 10
0.2233040175096264
 20
4.280779763100934
 30
0.0
  0
VERTEX
  5
837
  8
0
 62
     0
 10
0.223198003661544
 20
4.156255978069915
 30
0.0
  0
SEQEND
  5
872
  8
0
 62
     0
  0
POLYLINE
  5
4B3
  8
0
 62
     0
 66
     1
 10
0.0
 20
0.0
 30
0.0
  0
VERTEX
  5
838
  8
0
 62
     0
 10
0.246088102331246
 20
0.4292079441267092
 30
0.0
  0
VERTEX
  5
839
  8
0
 62
     0
 10
0.2202197541619242
 20
0.6580063892914403
 30
0.0
  0
VERTEX
  5
83A
  8
0
 62
     0
 10
0.1971610176286092
 20
0.7854457998065492
 30
0.0
  0
VERTEX
  5
83B
  8
0
 62
     0
 10
0.1973114093665878
 20
0.9620958204319514
 30
0.0
  0
VERTEX
  5
83C
  8
0
 62
     0
 10
0.2207153072657526
 20
1.24008268676203
 30
0.0
  0
VERTEX
  5
83D
  8
0
 62
     0
 10
0.1983912713540334
 20
2.230500886561895
 30
0.0
  0
VERTEX
  5
83E
  8
0
 62
     0
 10
0.1991456954822475
 20
3.116646891666374
 30
0.0
  0
VERTEX
  5
83F
  8
0
 62
     0
 10
0.1996856264759685
 20
3.750849424731346
 30
0.0
  0
VERTEX
  5
840
  8
0
 62
     0
 10
0.2233040175096264
 20
4.280779763100934
 30
0.0
  0
SEQEND
  5
873
  8
0
 62
     0
  0
POLYLINE
  5
4BE
  8
0
 62
     0
 66
     1
 10
0.0
 20
0.0
 30
0.0
  0
VERTEX
  5
841
  8
0
 62
     0
 10
0.60517600471767
 20
3.825797714779604
 30
0.0
  0
VERTEX
  5
842
  8
0
 62
     0
 10
0.5269422734362053
 20
3.773738046020064
 30
0.0
  0
VERTEX
  5
843
  8
0
 62
     0
 10
0.4776478384227723
 20
3.698486507057524
 30
0.0
  0
VERTEX
  5
844
  8
0
 62
     0
 10
0.4023124745570996
 20
3.649320274837127
 30
0.0
  0
VERTEX
  5
845
  8
0
 62
     0
 10
0.3501196721278745
 20
3.571175299335447
 30
0.0
  0
VERTEX
  5
846
  8
0
 62
     0
 10
0.3008252371144451
 20
3.495923760372911
 30
0.0
  0
VERTEX
  5
847
  8
0
 62
     0
 10
0.2225495933814123
 20
3.394633757996456
 30
0.0
  0
VERTEX
  5
848
  8
0
 62
     0
 10
0.1993182761651724
 20
3.319360030088969
 30
0.0
  0
SEQEND
  5
874
  8
0
 62
     0
  0
POLYLINE
  5
4C8
  8
0
 62
     0
 66
     1
 10
0.0
 20
0.0
 30
0.0
  0
VERTEX
  5
849
  8
0
 62
     0
 10
0.5269866513260979
 20
3.825864281614447
 30
0.0
  0
VERTEX
  5
84A
  8
0
 62
     0
 10
0.4255437917733396
 20
3.72459400274461
 30
0.0
  0
VERTEX
  5
84B
  8
0
 62
     0
 10
0.3241009322205812
 20
3.623323723874776
 30
0.0
  0
VERTEX
  5
84C
  8
0
 62
     0
 10
0.1994464789582011
 20
3.469946932917182
 30
0.0
  0
SEQEND
  5
875
  8
0
 62
     0
  0
POLYLINE
  5
4CE
  8
0
 62
     0
 66
     1
 10
0.0
 20
0.0
 30
0.0
  0
VERTEX
  5
84D
  8
0
 62
     0
 10
1.722600685944347
 20
6.764189028151122
 30
0.0
  0
VERTEX
  5
84E
  8
0
 62
     0
 10
1.56909569219372
 20
6.73825657858529
 30
0.0
  0
VERTEX
  5
84F
  8
0
 62
     0
 10
1.441634092733665
 20
6.689134724254785
 30
0.0
  0
SEQEND
  5
876
  8
0
 62
     0
  0
POLYLINE
  5
4D3
  8
0
 62
     0
 66
     1
 10
0.0
 20
0.0
 30
0.0
  0
VERTEX
  5
850
  8
0
 62
     0
 10
1.696515379202207
 20
6.738148099298879
 30
0.0
  0
VERTEX
  5
851
  8
0
 62
     0
 10
1.569053779742156
 20
6.689026244968375
 30
0.0
  0
VERTEX
  5
852
  8
0
 62
     0
 10
1.467652832640962
 20
6.636986299715456
 30
0.0
  0
SEQEND
  5
877
  8
0
 62
     0
  0
POLYLINE
  5
4D8
  8
0
 62
     0
 66
     1
 10
0.0
 20
0.0
 30
0.0
  0
VERTEX
  5
853
  8
0
 62
     0
 10
1.79769936773058
 20
6.535348670534823
 30
0.0
  0
VERTEX
  5
854
  8
0
 62
     0
 10
1.644280664321418
 20
6.610772790180288
 30
0.0
  0
VERTEX
  5
855
  8
0
 62
     0
 10
1.519779068235344
 20
6.63694192182556
 30
0.0
  0
SEQEND
  5
878
  8
0
 62
     0
  0
INSERT
  5
4DD
  8
0
 62
     0
  2
*X1
 10
-24.38436757789487
 20
-9.554316144361424
 30
0.0
 41
2.0
 42
2.0
 43
2.0
  0
ENDSEC
  0
EOF
