  0
SECTION
  2
HEADER
  9
$ACADVER
  1
AC1009
  9
$DWGCODEPAGE
  3
ansi_1252
  9
$INSBASE
 10
0.0
 20
0.0
 30
0.0
  9
$EXTMIN
 10
-1.468557755614441
 20
0.0202179537390066
 30
-0.0000000349181948
  9
$EXTMAX
 10
2.167343533212033
 20
6.770324744016776
 30
0.0000000814935746
  9
$LIMMIN
 10
0.0
 20
0.0
  9
$LIMMAX
 10
30.0
 20
25.0
  9
$ORTHOMODE
 70
     0
  9
$REGENMODE
 70
     1
  9
$FILLMODE
 70
     1
  9
$QTEXTMODE
 70
     0
  9
$MIRRTEXT
 70
     0
  9
$DRAGMODE
 70
     2
  9
$LTSCALE
 40
0.4
  9
$OSMODE
 70
    37
  9
$ATTMODE
 70
     1
  9
$TEXTSIZE
 40
0.2
  9
$TRACEWID
 40
0.05
  9
$TEXTSTYLE
  7
STANDARD
  9
$CLAYER
  8
ARBOLES
  9
$CELTYPE
  6
BYLAYER
  9
$CECOLOR
 62
   256
  9
$DIMSCALE
 40
1.0
  9
$DIMASZ
 40
0.15
  9
$DIMEXO
 40
0.1
  9
$DIMDLI
 40
0.4
  9
$DIMRND
 40
0.0
  9
$DIMDLE
 40
0.0
  9
$DIMEXE
 40
0.0
  9
$DIMTP
 40
0.0
  9
$DIMTM
 40
0.0
  9
$DIMTXT
 40
0.1
  9
$DIMCEN
 40
0.2
  9
$DIMTSZ
 40
0.0
  9
$DIMTOL
 70
     0
  9
$DIMLIM
 70
     0
  9
$DIMTIH
 70
     1
  9
$DIMTOH
 70
     1
  9
$DIMSE1
 70
     0
  9
$DIMSE2
 70
     0
  9
$DIMTAD
 70
     1
  9
$DIMZIN
 70
     0
  9
$DIMBLK
  1

  9
$DIMASO
 70
     1
  9
$DIMSHO
 70
     0
  9
$DIMPOST
  1

  9
$DIMAPOST
  1

  9
$DIMALT
 70
     0
  9
$DIMALTD
 70
     2
  9
$DIMALTF
 40
25.4
  9
$DIMLFAC
 40
1.0
  9
$DIMTOFL
 70
     0
  9
$DIMTVP
 40
0.0
  9
$DIMTIX
 70
     1
  9
$DIMSOXD
 70
     0
  9
$DIMSAH
 70
     0
  9
$DIMBLK1
  1

  9
$DIMBLK2
  1

  9
$DIMSTYLE
  2
STANDARD
  9
$DIMCLRD
 70
     0
  9
$DIMCLRE
 70
     0
  9
$DIMCLRT
 70
     0
  9
$DIMTFAC
 40
1.0
  9
$DIMGAP
 40
0.09
  9
$LUNITS
 70
     2
  9
$LUPREC
 70
     3
  9
$SKETCHINC
 40
0.1
  9
$FILLETRAD
 40
0.0
  9
$AUNITS
 70
     0
  9
$AUPREC
 70
     2
  9
$MENU
  1
A3ARQ10C
  9
$ELEVATION
 40
0.0
  9
$PELEVATION
 40
0.0
  9
$THICKNESS
 40
0.0
  9
$LIMCHECK
 70
     0
  9
$CHAMFERA
 40
0.0
  9
$CHAMFERB
 40
0.0
  9
$SKPOLY
 70
     0
  9
$TDCREATE
 40
2448281.405001505
  9
$TDUPDATE
 40
2457464.593148148
  9
$TDINDWG
 40
0.0061396181
  9
$TDUSRTIMER
 40
0.0061396181
  9
$USRTIMER
 70
     1
  9
$ANGBASE
 50
0.0
  9
$ANGDIR
 70
     0
  9
$PDMODE
 70
     3
  9
$PDSIZE
 40
0.1
  9
$PLINEWID
 40
0.0
  9
$COORDS
 70
     1
  9
$SPLFRAME
 70
     0
  9
$SPLINETYPE
 70
     6
  9
$SPLINESEGS
 70
     8
  9
$ATTDIA
 70
     0
  9
$ATTREQ
 70
     1
  9
$HANDLING
 70
     1
  9
$HANDSEED
  5
2E1
  9
$SURFTAB1
 70
     6
  9
$SURFTAB2
 70
     6
  9
$SURFTYPE
 70
     6
  9
$SURFU
 70
     6
  9
$SURFV
 70
     6
  9
$UCSNAME
  2

  9
$UCSORG
 10
0.0
 20
0.0
 30
0.0
  9
$UCSXDIR
 10
1.0
 20
0.0
 30
0.0
  9
$UCSYDIR
 10
0.0
 20
1.0
 30
0.0
  9
$PUCSNAME
  2

  9
$PUCSORG
 10
0.0
 20
0.0
 30
0.0
  9
$PUCSXDIR
 10
1.0
 20
0.0
 30
0.0
  9
$PUCSYDIR
 10
0.0
 20
1.0
 30
0.0
  9
$USERI1
 70
     0
  9
$USERI2
 70
     0
  9
$USERI3
 70
     0
  9
$USERI4
 70
     0
  9
$USERI5
 70
     0
  9
$USERR1
 40
0.0
  9
$USERR2
 40
0.0
  9
$USERR3
 40
0.0
  9
$USERR4
 40
0.0
  9
$USERR5
 40
0.0
  9
$WORLDVIEW
 70
     1
  9
$SHADEDGE
 70
     3
  9
$SHADEDIF
 70
    70
  9
$TILEMODE
 70
     1
  9
$MAXACTVP
 70
    48
  9
$PLIMCHECK
 70
     0
  9
$PEXTMIN
 10
1.000000000000000E+20
 20
1.000000000000000E+20
 30
1.000000000000000E+20
  9
$PEXTMAX
 10
-1.000000000000000E+20
 20
-1.000000000000000E+20
 30
-1.000000000000000E+20
  9
$PLIMMIN
 10
0.0
 20
0.0
  9
$PLIMMAX
 10
12.0
 20
9.0
  9
$UNITMODE
 70
     0
  9
$VISRETAIN
 70
     0
  9
$PLINEGEN
 70
     0
  9
$PSLTSCALE
 70
     0
  0
ENDSEC
  0
SECTION
  2
TABLES
  0
TABLE
  2
VPORT
 70
     1
  0
VPORT
  2
*ACTIVE
 70
     0
 10
0.0
 20
0.0
 11
1.0
 21
1.0
 12
0.3493928887987963
 22
3.395271348877891
 13
0.0
 23
0.0
 14
0.05
 24
0.05
 15
0.0
 25
0.0
 16
0.0
 26
0.0
 36
1.0
 17
0.0
 27
0.0
 37
0.0
 40
6.820420402676495
 41
1.365217391304348
 42
50.0
 43
0.0
 44
0.0
 50
0.0
 51
0.0
 71
     0
 72
   100
 73
     1
 74
     0
 75
     0
 76
     0
 77
     0
 78
     0
  0
ENDTAB
  0
TABLE
  2
LTYPE
 70
     1
  0
LTYPE
  2
CONTINUOUS
 70
     0
  3
Solid line
 72
    65
 73
     0
 40
0.0
  0
ENDTAB
  0
TABLE
  2
LAYER
 70
     2
  0
LAYER
  2
0
 70
     0
 62
     7
  6
CONTINUOUS
  0
LAYER
  2
ARBOLES
 70
     0
 62
     3
  6
CONTINUOUS
  0
ENDTAB
  0
TABLE
  2
STYLE
 70
     1
  0
STYLE
  2
STANDARD
 70
     0
 40
0.0
 41
1.0
 50
0.0
 71
     0
 42
0.2
  3
txt
  4

  0
ENDTAB
  0
TABLE
  2
VIEW
 70
     0
  0
ENDTAB
  0
TABLE
  2
UCS
 70
     0
  0
ENDTAB
  0
TABLE
  2
APPID
 70
     1
  0
APPID
  2
ACAD
 70
     0
  0
ENDTAB
  0
TABLE
  2
DIMSTYLE
 70
     1
  0
DIMSTYLE
  2
STANDARD
 70
     0
  3

  4

  5

  6

  7

 40
1.0
 41
0.18
 42
0.0625
 43
0.38
 44
0.18
 45
0.0
 46
0.0
 47
0.0
 48
0.0
140
0.18
141
0.09
142
0.0
143
25.4
144
1.0
145
0.0
146
1.0
147
0.09
 71
     0
 72
     0
 73
     1
 74
     1
 75
     0
 76
     0
 77
     0
 78
     0
170
     0
171
     2
172
     0
173
     0
174
     0
175
     0
176
     0
177
     0
178
     0
  0
ENDTAB
  0
ENDSEC
  0
SECTION
  2
BLOCKS
  0
BLOCK
  8
0
  2
$MODEL_SPACE
 70
     0
 10
0.0
 20
0.0
 30
0.0
  3
$MODEL_SPACE
  1

  0
ENDBLK
  5
4D
  8
0
  0
BLOCK
 67
     1
  8
0
  2
$PAPER_SPACE
 70
     0
 10
0.0
 20
0.0
 30
0.0
  3
$PAPER_SPACE
  1

  0
ENDBLK
  5
4B
 67
     1
  8
0
  0
ENDSEC
  0
SECTION
  2
ENTITIES
  0
ARC
  5
51
  8
0
 62
     0
 10
3.271455596215162
 20
7.068254477396552
 30
0.0
 40
5.16520082121759
 50
207.2745183072703
 51
222.1374385746527
  0
ARC
  5
52
  8
0
 62
     0
 10
2.578289945982853
 20
5.767009971041356
 30
0.0
 40
3.81109677325115
 50
194.4747575881854
 51
214.6007239831535
  0
ARC
  5
53
  8
0
 62
     0
 10
2.447909410022383
 20
5.39696909381516
 30
0.0
 40
3.477860100848377
 50
189.9631414613599
 51
211.4290578933874
  0
ARC
  5
54
  8
0
 62
     0
 10
4.037844400735878
 20
5.650346789356755
 30
0.0
 40
4.96735824707129
 50
190.5687413416842
 51
205.551120309197
  0
ARC
  5
55
  8
0
 62
     0
 10
3.398154715525472
 20
4.546337076522066
 30
0.0
 40
3.959257699220012
 50
180.4891793577827
 51
196.0511342661101
  0
ARC
  5
56
  8
0
 62
     0
 10
0.6117855131790222
 20
5.08468922407498
 30
0.0
 40
1.880941043656835
 50
189.4065616375564
 51
229.2834213891026
  0
ARC
  5
57
  8
0
 62
     0
 10
-3.277340890275049
 20
6.280987601526062
 30
0.0
 40
4.29573604009917
 50
333.7821570789761
 51
4.287263804194898
  0
ARC
  5
58
  8
0
 62
     0
 10
-2.404510007134199
 20
6.003318468349091
 30
0.0
 40
3.366306290599563
 50
333.7684014363397
 51
11.55563590915545
  0
ARC
  5
59
  8
0
 62
     0
 10
-2.867698249044231
 20
6.000944178334711
 30
0.0
 40
3.773392891301131
 50
335.8808325553408
 51
9.428373745328196
  0
ARC
  5
5A
  8
0
 62
     0
 10
-2.826064324640093
 20
5.840223367376813
 30
0.0
 40
3.682762671997778
 50
338.3001256187978
 51
14.35183362820174
  0
ARC
  5
5B
  8
0
 62
     0
 10
-5.33839574077443
 20
5.930725658056554
 30
0.0
 40
6.062718356023007
 50
349.0761262323265
 51
7.959337508258387
  0
ARC
  5
5C
  8
0
 62
     0
 10
3.562966417425969
 20
6.316212174947848
 30
0.0
 40
3.479350972351851
 50
175.0368603033895
 51
208.9891076923946
  0
ARC
  5
5D
  8
0
 62
     0
 10
5.783031523100703
 20
6.394397878804012
 30
0.0
 40
5.504090824759306
 50
176.8849157501506
 51
197.6762216858549
  0
ARC
  5
5E
  8
0
 62
     0
 10
4.771563143330845
 20
6.360621735405433
 30
0.0
 40
4.579020901932712
 50
179.8486718359763
 51
202.9983239643701
  0
ARC
  5
5F
  8
0
 62
     0
 10
9.490361240688806
 20
6.610849966533587
 30
0.0
 40
9.12750773193652
 50
179.7111516278287
 51
191.8104325163599
  0
ARC
  5
60
  8
0
 62
     0
 10
-22.50214871542662
 20
4.256585453278474
 30
0.0
 40
23.12219296308371
 50
1.253287398303717
 51
5.959326011475394
  0
ARC
  5
61
  8
0
 62
     0
 10
-17.22779853929326
 20
-3.937242772125897
 30
0.0
 40
18.77946477991873
 50
24.94436438945924
 51
29.62402913741396
  0
ARC
  5
62
  8
0
 62
     0
 10
-17.98554587165613
 20
-2.481536302945326
 30
0.0
 40
18.90472150673881
 50
19.81368652718172
 51
24.96446970282325
  0
ARC
  5
63
  8
0
 62
     0
 10
6.845774936445387
 20
6.551580776211813
 30
0.0
 40
7.486391176443735
 50
184.1560186417371
 51
199.7503796741173
  0
ARC
  5
64
  8
0
 62
     0
 10
8.34519998180454
 20
6.427910803834864
 30
0.0
 40
8.856124060504472
 50
181.2370572701369
 51
196.1579457929466
  0
ARC
  5
65
  8
0
 62
     0
 10
11.54883790902111
 20
8.849112447143677
 30
0.0
 40
12.70211485185469
 50
193.7051160327609
 51
202.3363718678576
  0
ARC
  5
66
  8
0
 62
     0
 10
-4.037839050261553
 20
5.539085951324564
 30
0.0
 40
4.272627149890508
 50
337.0107929171701
 51
1.508603154205903
  0
ARC
  5
67
  8
0
 62
     0
 10
-5.66792300879974
 20
5.531288823484635
 30
0.0
 40
5.784600833466227
 50
344.0962950239431
 51
4.5825656042032
  0
ARC
  5
68
  8
0
 62
     0
 10
-7.626116708693589
 20
5.375792816350339
 30
0.0
 40
7.659750695724666
 50
349.0948393408294
 51
6.46252025839954
  0
ARC
  5
69
  8
0
 62
     0
 10
-9.253531371620513
 20
5.035293545617529
 30
0.0
 40
9.189664496254727
 50
353.4244588041644
 51
8.59485271900979
  0
ARC
  5
6A
  8
0
 62
     0
 10
-74.06127310192082
 20
1.597243318398755
 30
0.0
 40
73.94214250574963
 50
1.937874060824071
 51
3.804657694326405
  0
ARC
  5
6B
  8
0
 62
     0
 10
2.252587772139833
 20
5.228610382324492
 30
0.0
 40
2.378910401162527
 50
172.9978268078367
 51
212.1032083043122
  0
ARC
  5
6C
  8
0
 62
     0
 10
12.43394038527433
 20
6.159899186212291
 30
0.0
 40
12.40167237415736
 50
182.3512879071258
 51
189.9230357012271
  0
ARC
  5
6D
  8
0
 62
     0
 10
-1.885361997123269
 20
5.41885737234996
 30
0.0
 40
2.587583849457529
 50
325.7992178675315
 51
354.2814978280765
  0
ARC
  5
6E
  8
0
 62
     0
 10
-2.302865320290977
 20
5.264024631457707
 30
0.0
 40
2.860062545835584
 50
333.4107000787091
 51
2.486735895666666
  0
ARC
  5
6F
  8
0
 62
     0
 10
-9.770974810136268
 20
5.800749733246617
 30
0.0
 40
10.1981482904331
 50
350.0592346059881
 51
358.2028623946031
  0
ARC
  5
70
  8
0
 62
     0
 10
12.61401072032032
 20
4.726709803288992
 30
0.0
 40
12.3784892905666
 50
175.714721300773
 51
183.1792670093845
  0
POLYLINE
  5
71
  8
0
 62
     0
 66
     1
 10
0.0
 20
0.0
 30
0.0
  0
VERTEX
  5
1E9
  8
0
 62
     0
 10
-0.378873416183481
 20
0.0209088747077697
 30
0.0
  0
VERTEX
  5
1EA
  8
0
 62
     0
 10
-0.3226557282864135
 20
0.0600324402630346
 30
0.0
  0
VERTEX
  5
1EB
  8
0
 62
     0
 10
-0.2663427425881224
 20
0.0601700926425632
 30
0.0
  0
VERTEX
  5
1EC
  8
0
 62
     0
 10
-0.2469397894791925
 20
0.0970377706535839
 30
0.0
  0
VERTEX
  5
1ED
  8
0
 62
     0
 10
-0.2275421306925338
 20
0.1360713327299212
 30
0.0
  0
VERTEX
  5
1EE
  8
0
 62
     0
 10
-0.1714620951749879
 20
0.2315078839834666
 30
0.0
  0
VERTEX
  5
1EF
  8
0
 62
     0
 10
-0.1326138343787875
 20
0.28791616748296
 30
0.0
  0
VERTEX
  5
1F0
  8
0
 62
     0
 10
-0.0960267554491239
 20
0.3833050698358935
 30
0.0
  0
VERTEX
  5
1F1
  8
0
 62
     0
 10
-0.0206337703015578
 20
0.5524293282108683
 30
0.0
  0
VERTEX
  5
1F2
  8
0
 62
     0
 10
0.0179815403138974
 20
0.7041365105843749
 30
0.0
  0
VERTEX
  5
1F3
  8
0
 62
     0
 10
0.0546162681441729
 20
0.7800324563494474
 30
0.0
  0
VERTEX
  5
1F4
  8
0
 62
     0
 10
0.0545209703429705
 20
0.81901836952518
 30
0.0
  0
VERTEX
  5
1F5
  8
0
 62
     0
 10
0.0738286256506981
 20
0.8948719607119333
 30
0.0
  0
VERTEX
  5
1F6
  8
0
 62
     0
 10
0.0932315787596281
 20
0.931739638722954
 30
0.0
  0
VERTEX
  5
1F7
  8
0
 62
     0
 10
0.0929986285788829
 20
1.027038537596967
 30
0.0
  0
VERTEX
  5
1F8
  8
0
 62
     0
 10
0.1099074496405521
 20
1.198185733335441
 30
0.0
  0
VERTEX
  5
1F9
  8
0
 62
     0
 10
0.129215104948301
 20
1.274039324522194
 30
0.0
  0
VERTEX
  5
1FA
  8
0
 62
     0
 10
0.1289821547675558
 20
1.369338223396207
 30
0.0
  0
VERTEX
  5
1FB
  8
0
 62
     0
 10
0.1483851078764857
 20
1.406205901407228
 30
0.0
  0
VERTEX
  5
1FC
  8
0
 62
     0
 10
0.1482474554969642
 20
1.462518887105508
 30
0.0
  0
VERTEX
  5
1FD
  8
0
 62
     0
 10
0.1479192075150166
 20
1.596803699155254
 30
0.0
  0
VERTEX
  5
1FE
  8
0
 62
     0
 10
0.1477339062348619
 20
1.672609641441399
 30
0.0
  0
VERTEX
  5
1FF
  8
0
 62
     0
 10
0.1669992069642916
 20
1.765790305150697
 30
0.0
  0
VERTEX
  5
200
  8
0
 62
     0
 10
0.1669515580636798
 20
1.785283261738565
 30
0.0
  0
VERTEX
  5
201
  8
0
 62
     0
 10
0.184183332785004
 20
1.824311529492613
 30
0.0
  0
VERTEX
  5
202
  8
0
 62
     0
 10
0.2033056868125982
 20
1.975971062965515
 30
0.0
  0
VERTEX
  5
203
  8
0
 62
     0
 10
0.2031680344330766
 20
2.032284048663795
 30
0.0
  0
VERTEX
  5
204
  8
0
 62
     0
 10
0.24173569614792
 20
2.203484187625167
 30
0.0
  0
VERTEX
  5
205
  8
0
 62
     0
 10
0.2415503948677866
 20
2.279290129911312
 30
0.0
  0
VERTEX
  5
206
  8
0
 62
     0
 10
0.2412750901087435
 20
2.391916101307872
 30
0.0
  0
VERTEX
  5
207
  8
0
 62
     0
 10
0.2583692124505461
 20
2.487257354760201
 30
0.0
  0
VERTEX
  5
208
  8
0
 62
     0
 10
0.2581362622698009
 20
2.582556253634214
 30
0.0
  0
VERTEX
  5
209
  8
0
 62
     0
 10
0.2579509609896675
 20
2.658362195920363
 30
0.0
  0
VERTEX
  5
20A
  8
0
 62
     0
 10
0.2013150216317214
 20
2.79034347152526
 30
0.0
  0
VERTEX
  5
20B
  8
0
 62
     0
 10
0.2012250181527904
 20
2.827163500635672
 30
0.0
  0
VERTEX
  5
20C
  8
0
 62
     0
 10
0.1642620423405461
 20
2.885552366920345
 30
0.0
  0
VERTEX
  5
20D
  8
0
 62
     0
 10
0.1250484733063715
 20
2.978590083927829
 30
0.0
  0
VERTEX
  5
20E
  8
0
 62
     0
 10
0.088133146394739
 20
3.017485993624637
 30
0.0
  0
VERTEX
  5
20F
  8
0
 62
     0
 10
0.049057229740086
 20
3.05421072493384
 30
0.0
  0
VERTEX
  5
210
  8
0
 62
     0
 10
0.0294689753510013
 20
3.093148989208965
 30
0.0
  0
VERTEX
  5
211
  8
0
 62
     0
 10
0.0293789718720916
 20
3.129969018319381
 30
0.0
  0
VERTEX
  5
212
  8
0
 62
     0
 10
0.0488242795593408
 20
3.149509623807853
 30
0.0
  0
VERTEX
  5
213
  8
0
 62
     0
 10
0.068036637065866
 20
3.264349128170339
 30
0.0
  0
VERTEX
  5
214
  8
0
 62
     0
 10
0.0483160246195524
 20
3.357434494078424
 30
0.0
  0
VERTEX
  5
215
  8
0
 62
     0
 10
0.0482683757189406
 20
3.376927450666289
 30
0.0
  0
VERTEX
  5
216
  8
0
 62
     0
 10
0.028680121329856
 20
3.415865714941416
 30
0.0
  0
VERTEX
  5
217
  8
0
 62
     0
 10
-0.0278181656485685
 20
3.491534004848033
 30
0.0
  0
VERTEX
  5
218
  8
0
 62
     0
 10
-0.0846870551872385
 20
3.718814179326943
 30
0.0
  0
VERTEX
  5
219
  8
0
 62
     0
 10
-0.1412753456445941
 20
3.831302498343971
 30
0.0
  0
VERTEX
  5
21A
  8
0
 62
     0
 10
-0.1998918677877199
 20
3.887472537340434
 30
0.0
  0
VERTEX
  5
21B
  8
0
 62
     0
 10
-0.2368971981782622
 20
3.963188476147659
 30
0.0
  0
SEQEND
  5
2D8
  8
0
 62
     0
  0
POLYLINE
  5
A6
  8
0
 62
     0
 66
     1
 10
0.0
 20
0.0
 30
0.0
  0
VERTEX
  5
21C
  8
0
 62
     0
 10
-0.1045929689137068
 20
3.887705487521176
 30
0.0
  0
VERTEX
  5
21D
  8
0
 62
     0
 10
-0.065469403358442
 20
3.831487799624108
 30
0.0
  0
VERTEX
  5
21E
  8
0
 62
     0
 10
-0.0285117218684903
 20
3.775264817404755
 30
0.0
  0
VERTEX
  5
21F
  8
0
 62
     0
 10
-0.008923467479427
 20
3.736326553129627
 30
0.0
  0
VERTEX
  5
220
  8
0
 62
     0
 10
0.010797144966908
 20
3.643241187221539
 30
0.0
  0
VERTEX
  5
221
  8
0
 62
     0
 10
0.0478977731586738
 20
3.528539335238582
 30
0.0
  0
VERTEX
  5
222
  8
0
 62
     0
 10
0.0675760310266682
 20
3.452781041853042
 30
0.0
  0
VERTEX
  5
223
  8
0
 62
     0
 10
0.0870689876145292
 20
3.45282869075365
 30
0.0
  0
VERTEX
  5
224
  8
0
 62
     0
 10
0.1039778086761984
 20
3.623975886492127
 30
0.0
  0
VERTEX
  5
225
  8
0
 62
     0
 10
0.1231954605050163
 20
3.736649506789293
 30
0.0
  0
VERTEX
  5
226
  8
0
 62
     0
 10
0.1425454703910631
 20
3.795176025453499
 30
0.0
  0
VERTEX
  5
227
  8
0
 62
     0
 10
0.1791801982213386
 20
3.871071971218567
 30
0.0
  0
VERTEX
  5
228
  8
0
 62
     0
 10
0.2375214156054
 20
3.927527903618666
 30
0.0
  0
VERTEX
  5
229
  8
0
 62
     0
 10
0.2374737667047881
 20
3.947020860206534
 30
0.0
  0
SEQEND
  5
2D9
  8
0
 62
     0
  0
POLYLINE
  5
B6
  8
0
 62
     0
 66
     1
 10
0.0
 20
0.0
 30
0.0
  0
VERTEX
  5
22A
  8
0
 62
     0
 10
0.2548961370285596
 20
3.90807730160912
 30
0.0
  0
VERTEX
  5
22B
  8
0
 62
     0
 10
0.2183090580988747
 20
3.812688399256183
 30
0.0
  0
VERTEX
  5
22C
  8
0
 62
     0
 10
0.1988584560893329
 20
3.795313677833027
 30
0.0
  0
VERTEX
  5
22D
  8
0
 62
     0
 10
0.1795084462032861
 20
3.736787159168822
 30
0.0
  0
VERTEX
  5
22E
  8
0
 62
     0
 10
0.1796937474834195
 20
3.660981216882677
 30
0.0
  0
VERTEX
  5
22F
  8
0
 62
     0
 10
0.1624566784398027
 20
3.624118833193945
 30
0.0
  0
VERTEX
  5
230
  8
0
 62
     0
 10
0.1237937189237357
 20
3.491904607408307
 30
0.0
  0
VERTEX
  5
231
  8
0
 62
     0
 10
0.1044860636160081
 20
3.416051016221553
 30
0.0
  0
VERTEX
  5
232
  8
0
 62
     0
 10
0.1437049269724753
 20
3.320847415148753
 30
0.0
  0
VERTEX
  5
233
  8
0
 62
     0
 10
0.1438902282526087
 20
3.245041472862608
 30
0.0
  0
VERTEX
  5
234
  8
0
 62
     0
 10
0.1439855260538323
 20
3.206055559686876
 30
0.0
  0
VERTEX
  5
235
  8
0
 62
     0
 10
0.1441231784333539
 20
3.149742573988595
 30
0.0
  0
VERTEX
  5
236
  8
0
 62
     0
 10
0.1441708273339657
 20
3.130249617400727
 30
0.0
  0
VERTEX
  5
237
  8
0
 62
     0
 10
0.2007114688906881
 20
3.037254254971563
 30
0.0
  0
VERTEX
  5
238
  8
0
 62
     0
 10
0.2398403287682456
 20
2.978870683009179
 30
0.0
  0
VERTEX
  5
239
  8
0
 62
     0
 10
0.2572574047697245
 20
2.942093008477078
 30
0.0
  0
VERTEX
  5
23A
  8
0
 62
     0
 10
0.2767980102581973
 20
2.922647700789819
 30
0.0
  0
VERTEX
  5
23B
  8
0
 62
     0
 10
0.2963809703249893
 20
2.885875320580011
 30
0.0
  0
VERTEX
  5
23C
  8
0
 62
     0
 10
0.3160592281929837
 20
2.810117027194474
 30
0.0
  0
VERTEX
  5
23D
  8
0
 62
     0
 10
0.353022204005228
 20
2.751728160909797
 30
0.0
  0
VERTEX
  5
23E
  8
0
 62
     0
 10
0.3726528129726105
 20
2.695462824112125
 30
0.0
  0
VERTEX
  5
23F
  8
0
 62
     0
 10
0.3727428164515416
 20
2.658642795001709
 30
0.0
  0
VERTEX
  5
240
  8
0
 62
     0
 10
0.3923310708406262
 20
2.619704530726585
 30
0.0
  0
VERTEX
  5
241
  8
0
 62
     0
 10
0.4097057922637646
 20
2.600253928717036
 30
0.0
  0
VERTEX
  5
242
  8
0
 62
     0
 10
0.4291987488516469
 20
2.600301577617641
 30
0.0
  0
VERTEX
  5
243
  8
0
 62
     0
 10
0.4291510999510351
 20
2.619794534205509
 30
0.0
  0
VERTEX
  5
244
  8
0
 62
     0
 10
0.4679993607472355
 20
2.676202817705002
 30
0.0
  0
VERTEX
  5
245
  8
0
 62
     0
 10
0.4852311354685597
 20
2.715231085459051
 30
0.0
  0
VERTEX
  5
246
  8
0
 62
     0
 10
0.5240317473641696
 20
2.791132325546409
 30
0.0
  0
VERTEX
  5
247
  8
0
 62
     0
 10
0.543387051572509
 20
2.847492960145297
 30
0.0
  0
VERTEX
  5
248
  8
0
 62
     0
 10
0.5432917537712854
 20
2.88647887332103
 30
0.0
  0
VERTEX
  5
249
  8
0
 62
     0
 10
0.5431541013917638
 20
2.942791859019307
 30
0.0
  0
VERTEX
  5
24A
  8
0
 62
     0
 10
0.523200538764705
 20
3.131176123801408
 30
0.0
  0
VERTEX
  5
24B
  8
0
 62
     0
 10
0.5228722907827361
 20
3.265460935851154
 30
0.0
  0
VERTEX
  5
24C
  8
0
 62
     0
 10
0.5226869895026027
 20
3.341266878137302
 30
0.0
  0
VERTEX
  5
24D
  8
0
 62
     0
 10
0.5225969860236717
 20
3.378086907247715
 30
0.0
  0
VERTEX
  5
24E
  8
0
 62
     0
 10
0.5224116847435383
 20
3.453892849533863
 30
0.0
  0
VERTEX
  5
24F
  8
0
 62
     0
 10
0.5222263834634049
 20
3.529698791820005
 30
0.0
  0
VERTEX
  5
250
  8
0
 62
     0
 10
0.5220887310838833
 20
3.586011777518285
 30
0.0
  0
VERTEX
  5
251
  8
0
 62
     0
 10
0.5219034298037499
 20
3.661817719804434
 30
0.0
  0
VERTEX
  5
252
  8
0
 62
     0
 10
0.5216704796230047
 20
3.757116618678447
 30
0.0
  0
VERTEX
  5
253
  8
0
 62
     0
 10
0.5409304860301205
 20
3.852463166453065
 30
0.0
  0
VERTEX
  5
254
  8
0
 62
     0
 10
0.5405598834698537
 20
4.004075051025358
 30
0.0
  0
VERTEX
  5
255
  8
0
 62
     0
 10
0.5402845787107893
 20
4.116701022421919
 30
0.0
  0
VERTEX
  5
256
  8
0
 62
     0
 10
0.5206063208427949
 20
4.19245931580746
 30
0.0
  0
VERTEX
  5
257
  8
0
 62
     0
 10
0.5203257217614379
 20
4.307251171269337
 30
0.0
  0
VERTEX
  5
258
  8
0
 62
     0
 10
0.5202357182825068
 20
4.344071200379753
 30
0.0
  0
VERTEX
  5
259
  8
0
 62
     0
 10
0.5395857281685537
 20
4.402597719043959
 30
0.0
  0
SEQEND
  5
2DA
  8
0
 62
     0
  0
POLYLINE
  5
E8
  8
0
 62
     0
 66
     1
 10
0.0
 20
0.0
 30
0.0
  0
VERTEX
  5
25A
  8
0
 62
     0
 10
0.5958563592885255
 20
4.420062443946035
 30
0.0
  0
VERTEX
  5
25B
  8
0
 62
     0
 10
0.6156722695360628
 20
4.287991164862214
 30
0.0
  0
VERTEX
  5
25C
  8
0
 62
     0
 10
0.6158099219155844
 20
4.231678179163934
 30
0.0
  0
VERTEX
  5
25D
  8
0
 62
     0
 10
0.5967828656892138
 20
4.041032732515299
 30
0.0
  0
VERTEX
  5
25E
  8
0
 62
     0
 10
0.5776128627610078
 20
3.908866155630269
 30
0.0
  0
VERTEX
  5
25F
  8
0
 62
     0
 10
0.5582575585526683
 20
3.852505521031384
 30
0.0
  0
VERTEX
  5
260
  8
0
 62
     0
 10
0.5584905087334135
 20
3.757206622157371
 30
0.0
  0
VERTEX
  5
261
  8
0
 62
     0
 10
0.5588134623930898
 20
3.625087694172942
 30
0.0
  0
VERTEX
  5
262
  8
0
 62
     0
 10
0.5589511147726114
 20
3.568774708474661
 30
0.0
  0
VERTEX
  5
263
  8
0
 62
     0
 10
0.5591840649533566
 20
3.473475809600652
 30
0.0
  0
VERTEX
  5
264
  8
0
 62
     0
 10
0.5594646640346923
 20
3.358683954138771
 30
0.0
  0
VERTEX
  5
265
  8
0
 62
     0
 10
0.5596923198931449
 20
3.265550939330078
 30
0.0
  0
VERTEX
  5
266
  8
0
 62
     0
 10
0.5601582202546354
 20
3.074953141582052
 30
0.0
  0
VERTEX
  5
267
  8
0
 62
     0
 10
0.5797888292220392
 20
3.018687804784376
 30
0.0
  0
VERTEX
  5
268
  8
0
 62
     0
 10
0.5799264816015608
 20
2.962374819086099
 30
0.0
  0
VERTEX
  5
269
  8
0
 62
     0
 10
0.5996047394695765
 20
2.886616525700559
 30
0.0
  0
VERTEX
  5
26A
  8
0
 62
     0
 10
0.6191453449580493
 20
2.867171218013299
 30
0.0
  0
VERTEX
  5
26B
  8
0
 62
     0
 10
0.6364724174805971
 20
2.867213572591615
 30
0.0
  0
VERTEX
  5
26C
  8
0
 62
     0
 10
0.6753206782767975
 20
2.923621856091108
 30
0.0
  0
VERTEX
  5
26D
  8
0
 62
     0
 10
0.6947659859640467
 20
2.943162461579581
 30
0.0
  0
VERTEX
  5
26E
  8
0
 62
     0
 10
0.750941319282795
 20
2.999613099657394
 30
0.0
  0
VERTEX
  5
26F
  8
0
 62
     0
 10
0.7876236960136822
 20
3.056016088834594
 30
0.0
  0
VERTEX
  5
270
  8
0
 62
     0
 10
0.8264243079092921
 20
3.131917328921952
 30
0.0
  0
VERTEX
  5
271
  8
0
 62
     0
 10
0.9213949588013364
 20
3.26643509115244
 30
0.0
  0
VERTEX
  5
272
  8
0
 62
     0
 10
0.9580773355322236
 20
3.322838080329644
 30
0.0
  0
VERTEX
  5
273
  8
0
 62
     0
 10
0.996925596328424
 20
3.379246363829138
 30
0.0
  0
VERTEX
  5
274
  8
0
 62
     0
 10
1.05305328074656
 20
3.455189958494815
 30
0.0
  0
VERTEX
  5
275
  8
0
 62
     0
 10
1.0724085849549
 20
3.5115505930937
 30
0.0
  0
VERTEX
  5
276
  8
0
 62
     0
 10
1.109043312785175
 20
3.587446538858773
 30
0.0
  0
VERTEX
  5
277
  8
0
 62
     0
 10
1.147886279259104
 20
3.646020706423583
 30
0.0
  0
VERTEX
  5
278
  8
0
 62
     0
 10
1.165123348302721
 20
3.682883090112314
 30
0.0
  0
VERTEX
  5
279
  8
0
 62
     0
 10
1.165075699402109
 20
3.702376046700179
 30
0.0
  0
SEQEND
  5
2DB
  8
0
 62
     0
  0
POLYLINE
  5
10A
  8
0
 62
     0
 66
     1
 10
0.0
 20
0.0
 30
0.0
  0
VERTEX
  5
27A
  8
0
 62
     0
 10
1.280005207243526
 20
3.646343660083248
 30
0.0
  0
VERTEX
  5
27B
  8
0
 62
     0
 10
1.241019294067783
 20
3.646248362282035
 30
0.0
  0
VERTEX
  5
27C
  8
0
 62
     0
 10
1.223739870445847
 20
3.626713051115852
 30
0.0
  0
VERTEX
  5
27D
  8
0
 62
     0
 10
1.184849255071327
 20
3.587631840138906
 30
0.0
  0
VERTEX
  5
27E
  8
0
 62
     0
 10
1.184891609649647
 20
3.570304767616358
 30
0.0
  0
VERTEX
  5
27F
  8
0
 62
     0
 10
1.14811922943985
 20
3.55072180754957
 30
0.0
  0
VERTEX
  5
280
  8
0
 62
     0
 10
1.109270968643628
 20
3.494313524050076
 30
0.0
  0
VERTEX
  5
281
  8
0
 62
     0
 10
1.089873309856991
 20
3.455279961973739
 30
0.0
  0
VERTEX
  5
282
  8
0
 62
     0
 10
1.072636240813353
 20
3.418417578285007
 30
0.0
  0
VERTEX
  5
283
  8
0
 62
     0
 10
1.053238582026715
 20
3.379384016208666
 30
0.0
  0
VERTEX
  5
284
  8
0
 62
     0
 10
1.033793274339445
 20
3.359843410720194
 30
0.0
  0
VERTEX
  5
285
  8
0
 62
     0
 10
1.014342672329903
 20
3.342468689297041
 30
0.0
  0
VERTEX
  5
286
  8
0
 62
     0
 10
0.9971585465091692
 20
3.283947464955125
 30
0.0
  0
VERTEX
  5
287
  8
0
 62
     0
 10
0.9972009010874885
 20
3.266620392432577
 30
0.0
  0
VERTEX
  5
288
  8
0
 62
     0
 10
0.9583579346135807
 20
3.208046224867767
 30
0.0
  0
VERTEX
  5
289
  8
0
 62
     0
 10
0.9216279089820816
 20
3.171136192278427
 30
0.0
  0
VERTEX
  5
28A
  8
0
 62
     0
 10
0.9022726047737422
 20
3.114775557679542
 30
0.0
  0
VERTEX
  5
28B
  8
0
 62
     0
 10
0.882827297086493
 20
3.095234952191072
 30
0.0
  0
VERTEX
  5
28C
  8
0
 62
     0
 10
0.8267949104695589
 20
2.980305444349662
 30
0.0
  0
VERTEX
  5
28D
  8
0
 62
     0
 10
0.7706195771508106
 20
2.923854806271853
 30
0.0
  0
VERTEX
  5
28E
  8
0
 62
     0
 10
0.7317236674539984
 20
2.886939479360224
 30
0.0
  0
VERTEX
  5
28F
  8
0
 62
     0
 10
0.6949989361447919
 20
2.847863562705568
 30
0.0
  0
VERTEX
  5
290
  8
0
 62
     0
 10
0.6561030264479797
 20
2.810948235793942
 30
0.0
  0
VERTEX
  5
291
  8
0
 62
     0
 10
0.6366577187607305
 20
2.79140763030547
 30
0.0
  0
VERTEX
  5
292
  8
0
 62
     0
 10
0.6195159475183161
 20
2.715559333441005
 30
0.0
  0
VERTEX
  5
293
  8
0
 62
     0
 10
0.6001182887316574
 20
2.676525771364668
 30
0.0
  0
VERTEX
  5
294
  8
0
 62
     0
 10
0.580762984523318
 20
2.620165136765779
 30
0.0
  0
VERTEX
  5
295
  8
0
 62
     0
 10
0.5614076803149786
 20
2.563804502166894
 30
0.0
  0
VERTEX
  5
296
  8
0
 62
     0
 10
0.5615029781162022
 20
2.524818588991161
 30
0.0
  0
VERTEX
  5
297
  8
0
 62
     0
 10
0.544403561452107
 20
2.431643219604149
 30
0.0
  0
VERTEX
  5
298
  8
0
 62
     0
 10
0.5250959061443794
 20
2.3557896284174
 30
0.0
  0
VERTEX
  5
299
  8
0
 62
     0
 10
0.5251435550449912
 20
2.336296671829531
 30
0.0
  0
VERTEX
  5
29A
  8
0
 62
     0
 10
0.4863429431493813
 20
2.260395431742173
 30
0.0
  0
VERTEX
  5
29B
  8
0
 62
     0
 10
0.4692011719069669
 20
2.184547134877709
 30
0.0
  0
VERTEX
  5
29C
  8
0
 62
     0
 10
0.4498458676986488
 20
2.128186500278821
 30
0.0
  0
VERTEX
  5
29D
  8
0
 62
     0
 10
0.4305382123908998
 20
2.052332909092067
 30
0.0
  0
VERTEX
  5
29E
  8
0
 62
     0
 10
0.4112782059837841
 20
1.956986361317449
 30
0.0
  0
VERTEX
  5
29F
  8
0
 62
     0
 10
0.3941364347413696
 20
1.881138064452985
 30
0.0
  0
VERTEX
  5
2A0
  8
0
 62
     0
 10
0.3748764283342538
 20
1.785791516678367
 30
0.0
  0
VERTEX
  5
2A1
  8
0
 62
     0
 10
0.375109378514999
 20
1.690492617804354
 30
0.0
  0
VERTEX
  5
2A2
  8
0
 62
     0
 10
0.3557540743066596
 20
1.634131983205469
 30
0.0
  0
VERTEX
  5
2A3
  8
0
 62
     0
 10
0.3560770279663146
 20
1.50201305522104
 30
0.0
  0
VERTEX
  5
2A4
  8
0
 62
     0
 10
0.3563099781470598
 20
1.406714156347027
 30
0.0
  0
VERTEX
  5
2A5
  8
0
 62
     0
 10
0.3370023228393322
 20
1.330860565160274
 30
0.0
  0
VERTEX
  5
2A6
  8
0
 62
     0
 10
0.3372352730200774
 20
1.235561666286264
 30
0.0
  0
VERTEX
  5
2A7
  8
0
 62
     0
 10
0.3200458528770511
 20
1.179206326009668
 30
0.0
  0
VERTEX
  5
2A8
  8
0
 62
     0
 10
0.3202311541572058
 20
1.103400383723519
 30
0.0
  0
VERTEX
  5
2A9
  8
0
 62
     0
 10
0.3203688065367274
 20
1.047087398025239
 30
0.0
  0
VERTEX
  5
2AA
  8
0
 62
     0
 10
0.3011564490302021
 20
0.932247893662753
 30
0.0
  0
VERTEX
  5
2AB
  8
0
 62
     0
 10
0.2818487937224745
 20
0.8563943024759997
 30
0.0
  0
VERTEX
  5
2AC
  8
0
 62
     0
 10
0.2820764495809271
 20
0.7632612876673068
 30
0.0
  0
VERTEX
  5
2AD
  8
0
 62
     0
 10
0.2627687942731995
 20
0.6874076964805571
 30
0.0
  0
VERTEX
  5
2AE
  8
0
 62
     0
 10
0.2456746719313969
 20
0.5920664430282248
 30
0.0
  0
VERTEX
  5
2AF
  8
0
 62
     0
 10
0.2264623144248716
 20
0.4772269386657388
 30
0.0
  0
VERTEX
  5
2B0
  8
0
 62
     0
 10
0.226647615705005
 20
0.4014209963795938
 30
0.0
  0
VERTEX
  5
2B1
  8
0
 62
     0
 10
0.2073399603972774
 20
0.3255674051928406
 30
0.0
  0
VERTEX
  5
2B2
  8
0
 62
     0
 10
0.2074776127768203
 20
0.2692544194945601
 30
0.0
  0
VERTEX
  5
2B3
  8
0
 62
     0
 10
0.2271558706448147
 20
0.1934961261090198
 30
0.0
  0
VERTEX
  5
2B4
  8
0
 62
     0
 10
0.2467388307116067
 20
0.1567237458992121
 30
0.0
  0
VERTEX
  5
2B5
  8
0
 62
     0
 10
0.2836541576232392
 20
0.1178278362024034
 30
0.0
  0
VERTEX
  5
2B6
  8
0
 62
     0
 10
0.3227777231785041
 20
0.061610148305336
 30
0.0
  0
VERTEX
  5
2B7
  8
0
 62
     0
 10
0.3596930500901152
 20
0.0227142386085273
 30
0.0
  0
VERTEX
  5
2B8
  8
0
 62
     0
 10
0.4354989923762673
 20
0.0228995398886642
 30
0.0
  0
SEQEND
  5
2DC
  8
0
 62
     0
  0
POLYLINE
  5
14B
  8
0
 62
     0
 66
     1
 10
0.0
 20
0.0
 30
0.0
  0
VERTEX
  5
2B9
  8
0
 62
     0
 10
-0.4066625757991531
 20
3.414801556161207
 30
0.0
  0
VERTEX
  5
2BA
  8
0
 62
     0
 10
-0.3869843179311587
 20
3.339043262775666
 30
0.0
  0
VERTEX
  5
2BB
  8
0
 62
     0
 10
-0.3499313386400047
 20
3.243834367380577
 30
0.0
  0
VERTEX
  5
2BC
  8
0
 62
     0
 10
-0.3300201305912438
 20
3.072777175121024
 30
0.0
  0
VERTEX
  5
2BD
  8
0
 62
     0
 10
-0.1972552952874906
 20
2.808862272811835
 30
0.0
  0
VERTEX
  5
2BE
  8
0
 62
     0
 10
-0.1213064062995244
 20
2.750568704328375
 30
0.0
  0
VERTEX
  5
2BF
  8
0
 62
     0
 10
-0.0627375330570104
 20
2.71389162191978
 30
0.0
  0
VERTEX
  5
2C0
  8
0
 62
     0
 10
0.0502590408998387
 20
2.562555042106547
 30
0.0
  0
VERTEX
  5
2C1
  8
0
 62
     0
 10
0.1066673243993321
 20
2.523706781310343
 30
0.0
  0
VERTEX
  5
2C2
  8
0
 62
     0
 10
0.1653314954430485
 20
2.448043785726016
 30
0.0
  0
VERTEX
  5
2C3
  8
0
 62
     0
 10
0.202336825833612
 20
2.372327846918791
 30
0.0
  0
VERTEX
  5
2C4
  8
0
 62
     0
 10
0.2415080402894674
 20
2.296617202433859
 30
0.0
  0
VERTEX
  5
2C5
  8
0
 62
     0
 10
0.2415503948677866
 20
2.279290129911312
 30
0.0
  0
SEQEND
  5
2DD
  8
0
 62
     0
  0
POLYLINE
  5
15A
  8
0
 62
     0
 66
     1
 10
0.0
 20
0.0
 30
0.0
  0
VERTEX
  5
2C6
  8
0
 62
     0
 10
-0.4068002281786747
 20
3.471114541859487
 30
0.0
  0
VERTEX
  5
2C7
  8
0
 62
     0
 10
-0.3109930743648732
 20
3.263422621769655
 30
0.0
  0
VERTEX
  5
2C8
  8
0
 62
     0
 10
-0.2910818663161336
 20
3.092365429510105
 30
0.0
  0
VERTEX
  5
2C9
  8
0
 62
     0
 10
-0.2343982780575757
 20
2.94089119731734
 30
0.0
  0
VERTEX
  5
2CA
  8
0
 62
     0
 10
-0.1583593855906784
 20
2.845777599723464
 30
0.0
  0
VERTEX
  5
2CB
  8
0
 62
     0
 10
-0.025965152847192
 20
2.733474581986568
 30
0.0
  0
VERTEX
  5
2CC
  8
0
 62
     0
 10
0.1065243776974967
 20
2.582185651073944
 30
0.0
  0
VERTEX
  5
2CD
  8
0
 62
     0
 10
0.2585068648300677
 20
2.430944369061921
 30
0.0
  0
SEQEND
  5
2DE
  8
0
 62
     0
  0
ARC
  5
164
  8
0
 62
     0
 10
-34.54329919864458
 20
-11.31276450705616
 30
0.0
 40
38.71333714311
 50
22.78969936288783
 51
24.74916501400662
  0
ARC
  5
165
  8
0
 62
     0
 10
5.221435018235624
 20
5.896471264093273
 30
0.0
 40
4.585342134840606
 50
191.4016803807498
 51
208.3099058214824
  0
ARC
  5
166
  8
0
 62
     0
 10
3.526444808090467
 20
5.06707536956049
 30
0.0
 40
2.665657242138505
 50
170.618879883632
 51
209.392842918117
  0
ARC
  5
167
  8
0
 62
     0
 10
0.0269193893584116
 20
5.415410423284124
 30
0.0
 40
2.142523217082035
 50
305.1519354351332
 51
356.8253332276081
  0
ARC
  5
168
  8
0
 62
     0
 10
-1.078713066577293
 20
5.968222487079883
 30
0.0
 40
3.23031083197004
 50
314.4806618684308
 51
350.7366582992961
  0
ARC
  5
169
  8
0
 62
     0
 10
-0.7689789866008994
 20
5.950987356825449
 30
0.0
 40
2.988373968222267
 50
312.2626195357114
 51
339.7652155388904
  0
ARC
  5
16A
  8
0
 62
     0
 10
-1.909316389965674
 20
5.826368328079594
 30
0.0
 40
3.773576471047153
 50
327.1317661538214
 51
357.9979710886753
  0
ARC
  5
16B
  8
0
 62
     0
 10
-3.749882191442119
 20
5.762607063373549
 30
0.0
 40
5.385189639335136
 50
337.9323021828591
 51
359.0624358030756
  0
ARC
  5
16C
  8
0
 62
     0
 10
-19.08579941606682
 20
7.449310671139758
 30
0.0
 40
20.6487196545272
 50
349.8632874520859
 51
354.9595474715909
  0
ARC
  5
16D
  8
0
 62
     0
 10
-215.4458339686865
 20
17.95213694810416
 30
0.0
 40
217.114183942875
 50
356.2517439777838
 51
356.7179532419764
  0
ARC
  5
16E
  8
0
 62
     0
 10
4.663663757069706
 20
4.85688679733005
 30
0.0
 40
3.594644836837491
 50
169.9748729290186
 51
196.8462118329292
  0
ARC
  5
16F
  8
0
 62
     0
 10
1.16447309475938
 20
3.797338569303184
 30
0.0
 40
0.0614429272505989
 50
289.0016739680319
 51
16.84621183292975
  0
ARC
  5
170
  8
0
 62
     0
 10
3.853220537976739
 20
4.882949630211533
 30
0.0
 40
2.870422585223875
 50
172.161182671575
 51
202.6342167065134
  0
ARC
  5
171
  8
0
 62
     0
 10
1.180363273034352
 20
3.768473274603002
 30
0.0
 40
0.0254751177286506
 50
337.6458922090385
 51
22.63421670651601
  0
ARC
  5
172
  8
0
 62
     0
 10
-1.06843918761632
 20
5.731242796606532
 30
0.0
 40
3.009024206822889
 50
319.04133982468
 51
353.1424180506232
  0
ARC
  5
173
  8
0
 62
     0
 10
-2.735113727386313
 20
5.76574637043319
 30
0.0
 40
4.453647937961764
 50
333.2169743480703
 51
356.6251794640618
  0
POLYLINE
  5
174
  8
0
 62
     0
 66
     1
 10
0.0
 20
0.0
 30
0.0
  0
VERTEX
  5
2CE
  8
0
 62
     0
 10
-0.2734318401339095
 20
2.960288856103995
 30
0.0
  0
VERTEX
  5
2CF
  8
0
 62
     0
 10
-0.5008496669923446
 20
2.959732952263584
 30
0.0
  0
VERTEX
  5
2D0
  8
0
 62
     0
 10
-0.7849034332087257
 20
3.091158324028074
 30
0.0
  0
VERTEX
  5
2D1
  8
0
 62
     0
 10
-0.5007543691911422
 20
2.920747039087852
 30
0.0
  0
VERTEX
  5
2D2
  8
0
 62
     0
 10
-0.2537959368442344
 20
2.901857635241003
 30
0.0
  0
SEQEND
  5
2DF
  8
0
 62
     0
  0
ARC
  5
17B
  8
0
 62
     0
 10
-1.061164658579273
 20
3.706232608414338
 30
0.0
 40
0.6921142805335755
 50
234.0700275751788
 51
293.5296978485819
  0
ARC
  5
17C
  8
0
 62
     0
 10
-0.7309892458823839
 20
4.740888857159929
 30
0.0
 40
1.670882326718272
 50
243.8445549191724
 51
267.4836402814858
  0
ARC
  5
17D
  8
0
 62
     0
 10
-0.1287228551506701
 20
5.035509422695617
 30
0.0
 40
2.058451168953377
 50
234.7689863057719
 51
250.8377928981805
  0
ARC
  5
17E
  8
0
 62
     0
 10
-0.471910638843589
 20
3.768921688797532
 30
0.0
 40
0.754966585246809
 50
203.3856761209254
 51
243.8707241090013
  0
ARC
  5
17F
  8
0
 62
     0
 10
0.3475574880579728
 20
3.548745362131774
 30
0.0
 40
1.246811432648407
 50
181.9310061573327
 51
202.499679924636
  0
POLYLINE
  5
180
  8
0
 62
     0
 66
     1
 10
0.0
 20
0.0
 30
0.0
  0
VERTEX
  5
2D3
  8
0
 62
     0
 10
0.9022302501954229
 20
3.132102630202089
 30
0.0
  0
VERTEX
  5
2D4
  8
0
 62
     0
 10
1.129690431632177
 20
3.115331461519952
 30
0.0
  0
VERTEX
  5
2D5
  8
0
 62
     0
 10
1.432686544918312
 20
3.209205681449189
 30
0.0
  0
VERTEX
  5
2D6
  8
0
 62
     0
 10
1.11029277284554
 20
3.076297899443611
 30
0.0
  0
VERTEX
  5
2D7
  8
0
 62
     0
 10
0.902320253674354
 20
3.095282601091677
 30
0.0
  0
SEQEND
  5
2E0
  8
0
 62
     0
  0
ARC
  5
187
  8
0
 62
     0
 10
1.701087530653496
 20
3.350972473671648
 30
0.0
 40
0.3035406274630436
 50
207.8425788148795
 51
303.4279835463072
  0
ARC
  5
188
  8
0
 62
     0
 10
1.687274898913351
 20
3.613184667028269
 30
0.0
 40
0.4673653502698776
 50
239.7998150540461
 51
300.4802938615348
  0
ARC
  5
189
  8
0
 62
     0
 10
0.5331258038516324
 20
7.328454578185012
 30
0.0
 40
4.256446639834464
 50
282.4707720501532
 51
289.0743314715375
  0
ARC
  5
18A
  8
0
 62
     0
 10
1.160143127022188
 20
3.46159028625001
 30
0.0
 40
0.3859523070727115
 50
319.1710154741956
 51
5.022269430723293
  0
ENDSEC
  0
EOF
