  0
SECTION
  2
HEADER
  9
$ACADVER
  1
AC1009
  9
$DWGCODEPAGE
  3
ansi_1252
  9
$INSBASE
 10
0.0
 20
0.0
 30
0.0
  9
$EXTMIN
 10
-5.890029728009171
 20
-5.890029728009175
 30
-0.0015258207003583
  9
$EXTMAX
 10
5.890029782860999
 20
5.890029782860996
 30
0.0000000349246037
  9
$LIMMIN
 10
0.0
 20
0.0
  9
$LIMMAX
 10
1.0
 20
1.0
  9
$ORTHOMODE
 70
     0
  9
$REGENMODE
 70
     0
  9
$FILLMODE
 70
     1
  9
$QTEXTMODE
 70
     0
  9
$MIRRTEXT
 70
     1
  9
$DRAGMODE
 70
     2
  9
$LTSCALE
 40
1.0
  9
$OSMODE
 70
    37
  9
$ATTMODE
 70
     1
  9
$TEXTSIZE
 40
0.2
  9
$TRACEWID
 40
0.05
  9
$TEXTSTYLE
  7
STANDARD
  9
$CLAYER
  8
0
  9
$CELTYPE
  6
BYLAYER
  9
$CECOLOR
 62
    84
  9
$DIMSCALE
 40
1.000000000000049
  9
$DIMASZ
 40
0.125
  9
$DIMEXO
 40
0.0625
  9
$DIMDLI
 40
0.3799999999999999
  9
$DIMRND
 40
0.0
  9
$DIMDLE
 40
0.0
  9
$DIMEXE
 40
0.18
  9
$DIMTP
 40
0.0
  9
$DIMTM
 40
0.0
  9
$DIMTXT
 40
0.18
  9
$DIMCEN
 40
0.09
  9
$DIMTSZ
 40
0.0
  9
$DIMTOL
 70
     0
  9
$DIMLIM
 70
     0
  9
$DIMTIH
 70
     0
  9
$DIMTOH
 70
     0
  9
$DIMSE1
 70
     0
  9
$DIMSE2
 70
     0
  9
$DIMTAD
 70
     0
  9
$DIMZIN
 70
     1
  9
$DIMBLK
  1

  9
$DIMASO
 70
     0
  9
$DIMSHO
 70
     0
  9
$DIMPOST
  1

  9
$DIMAPOST
  1

  9
$DIMALT
 70
     0
  9
$DIMALTD
 70
     2
  9
$DIMALTF
 40
25.4
  9
$DIMLFAC
 40
1.0
  9
$DIMTOFL
 70
     0
  9
$DIMTVP
 40
0.0
  9
$DIMTIX
 70
     0
  9
$DIMSOXD
 70
     0
  9
$DIMSAH
 70
     0
  9
$DIMBLK1
  1

  9
$DIMBLK2
  1

  9
$DIMSTYLE
  2
STANDARD
  9
$DIMCLRD
 70
     0
  9
$DIMCLRE
 70
     0
  9
$DIMCLRT
 70
     0
  9
$DIMTFAC
 40
1.0
  9
$DIMGAP
 40
0.09
  9
$LUNITS
 70
     2
  9
$LUPREC
 70
     2
  9
$SKETCHINC
 40
0.1
  9
$FILLETRAD
 40
0.0
  9
$AUNITS
 70
     0
  9
$AUPREC
 70
     0
  9
$MENU
  1
ACAD
  9
$ELEVATION
 40
0.0
  9
$PELEVATION
 40
0.0
  9
$THICKNESS
 40
0.0
  9
$LIMCHECK
 70
     0
  9
$CHAMFERA
 40
0.0
  9
$CHAMFERB
 40
0.0
  9
$SKPOLY
 70
     0
  9
$TDCREATE
 40
2447610.634334491
  9
$TDUPDATE
 40
2457464.593229167
  9
$TDINDWG
 40
0.0074917824
  9
$TDUSRTIMER
 40
0.0074917824
  9
$USRTIMER
 70
     1
  9
$ANGBASE
 50
0.0
  9
$ANGDIR
 70
     0
  9
$PDMODE
 70
     0
  9
$PDSIZE
 40
0.0
  9
$PLINEWID
 40
0.0
  9
$COORDS
 70
     1
  9
$SPLFRAME
 70
     0
  9
$SPLINETYPE
 70
     6
  9
$SPLINESEGS
 70
     8
  9
$ATTDIA
 70
     0
  9
$ATTREQ
 70
     1
  9
$HANDLING
 70
     1
  9
$HANDSEED
  5
10F
  9
$SURFTAB1
 70
     6
  9
$SURFTAB2
 70
     6
  9
$SURFTYPE
 70
     6
  9
$SURFU
 70
     6
  9
$SURFV
 70
     6
  9
$UCSNAME
  2

  9
$UCSORG
 10
0.0
 20
0.0
 30
0.0
  9
$UCSXDIR
 10
1.0
 20
0.0
 30
0.0
  9
$UCSYDIR
 10
0.0
 20
1.0
 30
0.0
  9
$PUCSNAME
  2

  9
$PUCSORG
 10
0.0
 20
0.0
 30
0.0
  9
$PUCSXDIR
 10
1.0
 20
0.0
 30
0.0
  9
$PUCSYDIR
 10
0.0
 20
1.0
 30
0.0
  9
$USERI1
 70
     0
  9
$USERI2
 70
     0
  9
$USERI3
 70
     0
  9
$USERI4
 70
     0
  9
$USERI5
 70
     0
  9
$USERR1
 40
0.0
  9
$USERR2
 40
0.0
  9
$USERR3
 40
0.0
  9
$USERR4
 40
0.0104166666666667
  9
$USERR5
 40
1.0
  9
$WORLDVIEW
 70
     1
  9
$SHADEDGE
 70
     3
  9
$SHADEDIF
 70
    70
  9
$TILEMODE
 70
     1
  9
$MAXACTVP
 70
    16
  9
$PLIMCHECK
 70
     0
  9
$PEXTMIN
 10
1.000000000000000E+20
 20
1.000000000000000E+20
 30
1.000000000000000E+20
  9
$PEXTMAX
 10
-1.000000000000000E+20
 20
-1.000000000000000E+20
 30
-1.000000000000000E+20
  9
$PLIMMIN
 10
0.0
 20
0.0
  9
$PLIMMAX
 10
12.0
 20
9.0
  9
$UNITMODE
 70
     0
  9
$VISRETAIN
 70
     0
  9
$PLINEGEN
 70
     0
  9
$PSLTSCALE
 70
     0
  0
ENDSEC
  0
SECTION
  2
TABLES
  0
TABLE
  2
VPORT
 70
     1
  0
VPORT
  2
*ACTIVE
 70
     0
 10
0.0
 20
0.0
 11
1.0
 21
1.0
 12
0.0000000274259135
 22
0.0000000274259104
 13
0.0
 23
0.0
 14
0.03125
 24
0.03125
 15
0.0625
 25
0.0625
 16
0.0
 26
0.0
 36
1.0
 17
0.0
 27
0.0
 37
0.0
 40
11.9027684641084
 41
1.424347826086956
 42
50.0
 43
0.0
 44
0.0
 50
0.0
 51
0.0
 71
     0
 72
   750
 73
     1
 74
     1
 75
     0
 76
     0
 77
     0
 78
     0
  0
ENDTAB
  0
TABLE
  2
LTYPE
 70
     1
  0
LTYPE
  2
CONTINUOUS
 70
     0
  3
Solid line
 72
    65
 73
     0
 40
0.0
  0
ENDTAB
  0
TABLE
  2
LAYER
 70
     1
  0
LAYER
  2
0
 70
     0
 62
    94
  6
CONTINUOUS
  0
ENDTAB
  0
TABLE
  2
STYLE
 70
     1
  0
STYLE
  2
STANDARD
 70
     0
 40
0.0
 41
1.0
 50
0.0
 71
     0
 42
0.2
  3
txt
  4

  0
ENDTAB
  0
TABLE
  2
VIEW
 70
     0
  0
ENDTAB
  0
TABLE
  2
UCS
 70
     0
  0
ENDTAB
  0
TABLE
  2
APPID
 70
     1
  0
APPID
  2
ACAD
 70
     0
  0
ENDTAB
  0
TABLE
  2
DIMSTYLE
 70
     1
  0
DIMSTYLE
  2
STANDARD
 70
     0
  3

  4

  5

  6

  7

 40
1.0
 41
0.18
 42
0.0625
 43
0.38
 44
0.18
 45
0.0
 46
0.0
 47
0.0
 48
0.0
140
0.18
141
0.09
142
0.0
143
25.4
144
1.0
145
0.0
146
1.0
147
0.09
 71
     0
 72
     0
 73
     1
 74
     1
 75
     0
 76
     0
 77
     0
 78
     0
170
     0
171
     2
172
     0
173
     0
174
     0
175
     0
176
     0
177
     0
178
     0
  0
ENDTAB
  0
ENDSEC
  0
SECTION
  2
BLOCKS
  0
BLOCK
  8
0
  2
$MODEL_SPACE
 70
     0
 10
0.0
 20
0.0
 30
0.0
  3
$MODEL_SPACE
  1

  0
ENDBLK
  5
1F
  8
0
  0
BLOCK
 67
     1
  8
0
  2
$PAPER_SPACE
 70
     0
 10
0.0
 20
0.0
 30
0.0
  3
$PAPER_SPACE
  1

  0
ENDBLK
  5
1D
 67
     1
  8
0
  0
ENDSEC
  0
SECTION
  2
ENTITIES
  0
LINE
  5
21
  8
0
 62
     0
 10
0.0704458746523367
 20
-2.369483380132232
 30
0.0
 11
0.1354481142702642
 21
-4.5558672841746
 31
0.0
  0
LINE
  5
22
  8
0
 62
     0
 10
0.9978822151128726
 20
-3.176140690737045
 30
0.0
 11
1.737034199972963
 21
-5.383501378262966
 31
0.0
  0
LINE
  5
23
  8
0
 62
     0
 10
0.946427900040757
 20
-1.853495410794055
 30
0.0
 11
2.032803136124002
 21
-3.981065312731522
 31
0.0
  0
LINE
  5
24
  8
0
 62
     0
 10
0.1354481142702642
 20
-4.831913533849195
 30
0.0
 11
0.2089848150317651
 21
-5.88967027848896
 31
0.0
  0
LINE
  5
25
  8
0
 62
     0
 10
0.4804217546073071
 20
-4.670928609450299
 30
0.0
 11
0.5296264587933115
 21
-5.843746679365764
 31
0.0
  0
LINE
  5
26
  8
0
 62
     0
 10
0.8746000991303549
 20
-4.348958760652509
 30
0.0
 11
1.194701031856891
 21
-5.751899481119372
 31
0.0
  0
LINE
  5
27
  8
0
 62
     0
 10
1.613752083990446
 20
-4.11883611010111
 30
0.0
 11
2.254494660478528
 21
-5.314868307045882
 31
0.0
  0
LINE
  5
28
  8
0
 62
     0
 10
0.3322669310142832
 20
-2.417139667865764
 30
0.0
 11
0.7756499797233349
 21
-5.153883382646987
 31
0.0
  0
LINE
  5
29
  8
0
 62
     0
 10
2.057135132699499
 20
-4.279821034500004
 30
0.0
 11
2.500518181408551
 21
-4.923760732095587
 31
0.0
  0
LINE
  5
2A
  8
0
 62
     0
 10
0.2338575226422741
 20
-0.9223517491525075
 30
0.0
 11
0.7062308756651836
 21
-2.685418630092597
 31
0.0
  0
LINE
  5
2B
  8
0
 62
     0
 10
0.0
 20
-0.0000000000000013
 30
0.0
 11
0.7295851507650803
 21
-1.428828047723794
 31
0.0
  0
LINE
  5
2C
  8
0
 62
     0
 10
0.0
 20
-0.0000000000000013
 30
0.0
 11
0.0595028952958808
 21
-2.001410617288139
 31
0.0
  0
LINE
  5
2D
  8
0
 62
     0
 10
-1.123733773025378
 20
-2.0872557383657
 30
0.0
 11
-2.160632134234555
 21
-4.013220861500752
 31
0.0
  0
LINE
  5
2E
  8
0
 62
     0
 10
-0.7238789970960877
 20
-3.249559631728171
 30
0.0
 11
-1.18743494471252
 21
-5.530766054870747
 31
0.0
  0
LINE
  5
2F
  8
0
 62
     0
 10
-0.1071171011113724
 20
-2.078388061565902
 30
0.0
 11
-0.2300734995896995
 21
-4.464105263012539
 31
0.0
  0
LINE
  5
30
  8
0
 62
     0
 10
-2.298655259071853
 20
-4.252283926338374
 30
0.0
 11
-2.763848980421781
 21
-5.205096488601489
 31
0.0
  0
LINE
  5
31
  8
0
 62
     0
 10
-1.919406860704529
 20
-4.285353712351134
 30
0.0
 11
-2.463203371851483
 21
-5.325646307008363
 31
0.0
  0
LINE
  5
32
  8
0
 62
     0
 10
-1.41705347632698
 20
-4.203608816301137
 30
0.0
 11
-1.841308297044138
 21
-5.578641586592351
 31
0.0
  0
LINE
  5
33
  8
0
 62
     0
 10
-0.66186775490475
 20
-4.373892747367463
 30
0.0
 11
-0.7049845048521646
 21
-5.730058301909788
 31
0.0
  0
LINE
  5
34
  8
0
 62
     0
 10
-0.9208182308370212
 20
-2.259437822373972
 30
0.0
 11
-1.905209104438202
 21
-4.851218927376431
 31
0.0
  0
LINE
  5
35
  8
0
 62
     0
 10
-0.3583792333147653
 20
-4.735001305877748
 30
0.0
 11
-0.2963680983231249
 21
-5.514360966855319
 31
0.0
  0
LINE
  5
36
  8
0
 62
     0
 10
-0.2586493191019494
 20
-0.9157088073122195
 30
0.0
 11
-0.7310954357833204
 21
-2.678756191288786
 31
0.0
  0
LINE
  5
37
  8
0
 62
     0
 10
0.0
 20
0.0
 30
0.0
 11
-0.0825747490754377
 21
-1.602193962351069
 31
0.0
  0
LINE
  5
38
  8
0
 62
     0
 10
0.0
 20
0.0
 30
0.0
 11
-0.9491742897191109
 21
-1.763023885623362
 31
0.0
  0
LINE
  5
39
  8
0
 62
     0
 10
-2.016809863713364
 20
-1.245749607106852
 30
0.0
 11
-3.87777274723049
 21
-2.395235149940044
 31
0.0
  0
LINE
  5
3A
  8
0
 62
     0
 10
-2.2516774166153
 20
-2.452261693640956
 30
0.0
 11
-3.793731854897787
 21
-4.196066433550445
 31
0.0
  0
LINE
  5
3B
  8
0
 62
     0
 10
-1.131960161525146
 20
-1.746378309682681
 30
0.0
 11
-2.431302126888538
 21
-3.750991813141822
 31
0.0
  0
LINE
  5
3C
  8
0
 62
     0
 10
-4.116835812068112
 20
-2.533258274777341
 30
0.0
 11
-4.996111673569727
 21
-3.125821298067177
 31
0.0
  0
LINE
  5
3D
  8
0
 62
     0
 10
-3.80493195774383
 20
-2.751521748745769
 30
0.0
 11
-4.796019848215053
 21
-3.380543307514279
 31
0.0
  0
LINE
  5
3E
  8
0
 62
     0
 10
-3.329008717170784
 20
-2.931905284325528
 30
0.0
 11
-4.383940554735464
 21
-3.910591184075232
 31
0.0
  0
LINE
  5
3F
  8
0
 62
     0
 10
-2.760140663377018
 20
-3.456968355196359
 30
0.0
 11
-3.475563641431264
 21
-4.609883802193716
 31
0.0
  0
LINE
  5
40
  8
0
 62
     0
 10
-1.92717089135969
 20
-1.496321437028741
 30
0.0
 11
-4.075568947653099
 21
-3.248674278208783
 31
0.0
  0
LINE
  5
41
  8
0
 62
     0
 10
-2.677866173178252
 20
-3.921441801185238
 30
0.0
 11
-3.013842785446771
 21
-4.627392633772462
 31
0.0
  0
LINE
  5
42
  8
0
 62
     0
 10
-0.6818512846699458
 20
-0.6637024300505567
 30
0.0
 11
-1.972525315623603
 21
-1.954323194309275
 31
0.0
  0
LINE
  5
43
  8
0
 62
     0
 10
0.0
 20
0.0
 30
0.0
 11
-0.8726088115859896
 21
-1.346253298648355
 31
0.0
  0
LINE
  5
44
  8
0
 62
     0
 10
0.0
 20
0.0
 30
0.0
 11
-1.703520990327482
 21
-1.052236327569026
 31
0.0
  0
LINE
  5
45
  8
0
 62
     0
 10
-2.369483380132231
 20
-0.0704458746523357
 30
0.0
 11
-4.5558672841746
 21
-0.1354481142702625
 31
0.0
  0
LINE
  5
46
  8
0
 62
     0
 10
-3.176140690737045
 20
-0.9978822151128712
 30
0.0
 11
-5.383501378262966
 21
-1.73703419997296
 31
0.0
  0
LINE
  5
47
  8
0
 62
     0
 10
-1.853495410794054
 20
-0.9464279000407563
 30
0.0
 11
-3.981065312731522
 21
-2.032803136124001
 31
0.0
  0
LINE
  5
48
  8
0
 62
     0
 10
-4.831913533849194
 20
-0.1354481142702623
 30
0.0
 11
-5.889670278488959
 21
-0.2089848150317628
 31
0.0
  0
LINE
  5
49
  8
0
 62
     0
 10
-4.670928609450299
 20
-0.4804217546073053
 30
0.0
 11
-5.843746679365763
 21
-0.5296264587933093
 31
0.0
  0
LINE
  5
4A
  8
0
 62
     0
 10
-4.348958760652509
 20
-0.8746000991303531
 30
0.0
 11
-5.751899481119372
 21
-1.194701031856888
 31
0.0
  0
LINE
  5
4B
  8
0
 62
     0
 10
-4.11883611010111
 20
-1.613752083990445
 30
0.0
 11
-5.314868307045882
 21
-2.254494660478525
 31
0.0
  0
LINE
  5
4C
  8
0
 62
     0
 10
-2.417139667865763
 20
-0.3322669310142822
 30
0.0
 11
-5.153883382646987
 21
-0.7756499797233328
 31
0.0
  0
LINE
  5
4D
  8
0
 62
     0
 10
-4.279821034500005
 20
-2.057135132699497
 30
0.0
 11
-4.923760732095587
 21
-2.500518181408549
 31
0.0
  0
LINE
  5
4E
  8
0
 62
     0
 10
-0.9223517491525064
 20
-0.2338575226422738
 30
0.0
 11
-2.685418630092596
 21
-0.7062308756651825
 31
0.0
  0
LINE
  5
4F
  8
0
 62
     0
 10
0.0
 20
0.0
 30
0.0
 11
-1.428828047723793
 21
-0.7295851507650797
 31
0.0
  0
LINE
  5
50
  8
0
 62
     0
 10
0.0
 20
0.0
 30
0.0
 11
-2.001410617288137
 21
-0.05950289529588
 31
0.0
  0
LINE
  5
51
  8
0
 62
     0
 10
-2.0872557383657
 20
1.123733773025378
 30
0.0
 11
-4.013220861500753
 21
2.160632134234554
 31
0.0
  0
LINE
  5
52
  8
0
 62
     0
 10
-3.249559631728171
 20
0.7238789970960872
 30
0.0
 11
-5.530766054870747
 21
1.187434944712519
 31
0.0
  0
LINE
  5
53
  8
0
 62
     0
 10
-2.078388061565903
 20
0.1071171011113721
 30
0.0
 11
-4.464105263012539
 21
0.2300734995896989
 31
0.0
  0
LINE
  5
54
  8
0
 62
     0
 10
-4.252283926338374
 20
2.298655259071852
 30
0.0
 11
-5.20509648860149
 21
2.76384898042178
 31
0.0
  0
LINE
  5
55
  8
0
 62
     0
 10
-4.285353712351134
 20
1.919406860704528
 30
0.0
 11
-5.325646307008363
 21
2.463203371851483
 31
0.0
  0
LINE
  5
56
  8
0
 62
     0
 10
-4.203608816301137
 20
1.417053476326979
 30
0.0
 11
-5.578641586592352
 21
1.841308297044137
 31
0.0
  0
LINE
  5
57
  8
0
 62
     0
 10
-4.373892747367463
 20
0.6618677549047495
 30
0.0
 11
-5.730058301909788
 21
0.7049845048521638
 31
0.0
  0
LINE
  5
58
  8
0
 62
     0
 10
-2.259437822373973
 20
0.9208182308370209
 30
0.0
 11
-4.851218927376431
 21
1.905209104438201
 31
0.0
  0
LINE
  5
59
  8
0
 62
     0
 10
-4.735001305877749
 20
0.3583792333147646
 30
0.0
 11
-5.514360966855319
 21
0.2963680983231241
 31
0.0
  0
LINE
  5
5A
  8
0
 62
     0
 10
-0.9157088073122196
 20
0.2586493191019493
 30
0.0
 11
-2.678756191288786
 21
0.7310954357833199
 31
0.0
  0
LINE
  5
5B
  8
0
 62
     0
 10
0.0
 20
0.0
 30
0.0
 11
-1.602193962351069
 21
0.0825747490754375
 31
0.0
  0
LINE
  5
5C
  8
0
 62
     0
 10
0.0
 20
0.0
 30
0.0
 11
-1.763023885623362
 21
0.9491742897191108
 31
0.0
  0
LINE
  5
5D
  8
0
 62
     0
 10
-1.245749607106854
 20
2.016809863713363
 30
0.0
 11
-2.395235149940047
 21
3.877772747230489
 31
0.0
  0
LINE
  5
5E
  8
0
 62
     0
 10
-2.452261693640958
 20
2.251677416615298
 30
0.0
 11
-4.196066433550447
 21
3.793731854897785
 31
0.0
  0
LINE
  5
5F
  8
0
 62
     0
 10
-1.746378309682682
 20
1.131960161525145
 30
0.0
 11
-3.750991813141823
 21
2.431302126888537
 31
0.0
  0
LINE
  5
60
  8
0
 62
     0
 10
-2.533258274777344
 20
4.116835812068111
 30
0.0
 11
-3.125821298067181
 21
4.996111673569725
 31
0.0
  0
LINE
  5
61
  8
0
 62
     0
 10
-2.751521748745771
 20
3.804931957743828
 30
0.0
 11
-3.380543307514282
 21
4.796019848215051
 31
0.0
  0
LINE
  5
62
  8
0
 62
     0
 10
-2.93190528432553
 20
3.329008717170782
 30
0.0
 11
-3.910591184075235
 21
4.383940554735461
 31
0.0
  0
LINE
  5
63
  8
0
 62
     0
 10
-3.456968355196361
 20
2.760140663377016
 30
0.0
 11
-4.609883802193719
 21
3.475563641431261
 31
0.0
  0
LINE
  5
64
  8
0
 62
     0
 10
-1.496321437028743
 20
1.927170891359689
 30
0.0
 11
-3.248674278208786
 21
4.075568947653097
 31
0.0
  0
LINE
  5
65
  8
0
 62
     0
 10
-3.921441801185241
 20
2.67786617317825
 30
0.0
 11
-4.627392633772464
 21
3.013842785446768
 31
0.0
  0
LINE
  5
66
  8
0
 62
     0
 10
-0.6637024300505578
 20
0.6818512846699454
 30
0.0
 11
-1.954323194309276
 21
1.972525315623602
 31
0.0
  0
LINE
  5
67
  8
0
 62
     0
 10
-0.0000000000000007
 20
0.0
 30
0.0
 11
-1.346253298648356
 21
0.8726088115859887
 31
0.0
  0
LINE
  5
68
  8
0
 62
     0
 10
-0.0000000000000007
 20
0.0
 30
0.0
 11
-1.052236327569028
 21
1.703520990327481
 31
0.0
  0
LINE
  5
69
  8
0
 62
     0
 10
-0.070445874652337
 20
2.369483380132231
 30
0.0
 11
-0.1354481142702648
 21
4.5558672841746
 31
0.0
  0
LINE
  5
6A
  8
0
 62
     0
 10
-0.9978822151128728
 20
3.176140690737044
 30
0.0
 11
-1.737034199972963
 21
5.383501378262965
 31
0.0
  0
LINE
  5
6B
  8
0
 62
     0
 10
-0.9464279000407572
 20
1.853495410794053
 30
0.0
 11
-2.032803136124003
 21
3.98106531273152
 31
0.0
  0
LINE
  5
6C
  8
0
 62
     0
 10
-0.1354481142702648
 20
4.831913533849194
 30
0.0
 11
-0.2089848150317658
 21
5.889670278488959
 31
0.0
  0
LINE
  5
6D
  8
0
 62
     0
 10
-0.4804217546073076
 20
4.670928609450298
 30
0.0
 11
-0.5296264587933122
 21
5.843746679365763
 31
0.0
  0
LINE
  5
6E
  8
0
 62
     0
 10
-0.8746000991303552
 20
4.348958760652508
 30
0.0
 11
-1.194701031856891
 21
5.751899481119371
 31
0.0
  0
LINE
  5
6F
  8
0
 62
     0
 10
-1.613752083990447
 20
4.118836110101109
 30
0.0
 11
-2.254494660478528
 21
5.314868307045881
 31
0.0
  0
LINE
  5
70
  8
0
 62
     0
 10
-0.3322669310142835
 20
2.417139667865762
 30
0.0
 11
-0.7756499797233355
 21
5.153883382646986
 31
0.0
  0
LINE
  5
71
  8
0
 62
     0
 10
-2.057135132699499
 20
4.279821034500003
 30
0.0
 11
-2.500518181408551
 21
4.923760732095587
 31
0.0
  0
LINE
  5
72
  8
0
 62
     0
 10
-0.2338575226422743
 20
0.9223517491525062
 30
0.0
 11
-0.7062308756651838
 21
2.685418630092595
 31
0.0
  0
LINE
  5
73
  8
0
 62
     0
 10
0.0
 20
0.0
 30
0.0
 11
-0.7295851507650805
 21
1.428828047723793
 31
0.0
  0
LINE
  5
74
  8
0
 62
     0
 10
0.0
 20
0.0
 30
0.0
 11
-0.0595028952958811
 21
2.001410617288137
 31
0.0
  0
LINE
  5
75
  8
0
 62
     0
 10
1.123733773025377
 20
2.087255738365699
 30
0.0
 11
2.160632134234552
 21
4.013220861500752
 31
0.0
  0
LINE
  5
76
  8
0
 62
     0
 10
0.7238789970960857
 20
3.24955963172817
 30
0.0
 11
1.187434944712517
 21
5.530766054870747
 31
0.0
  0
LINE
  5
77
  8
0
 62
     0
 10
0.1071171011113709
 20
2.078388061565902
 30
0.0
 11
0.2300734995896971
 21
4.464105263012538
 31
0.0
  0
LINE
  5
78
  8
0
 62
     0
 10
2.29865525907185
 20
4.252283926338374
 30
0.0
 11
2.763848980421778
 21
5.20509648860149
 31
0.0
  0
LINE
  5
79
  8
0
 62
     0
 10
1.919406860704527
 20
4.285353712351134
 30
0.0
 11
2.46320337185148
 21
5.325646307008363
 31
0.0
  0
LINE
  5
7A
  8
0
 62
     0
 10
1.417053476326978
 20
4.203608816301137
 30
0.0
 11
1.841308297044135
 21
5.578641586592352
 31
0.0
  0
LINE
  5
7B
  8
0
 62
     0
 10
0.6618677549047476
 20
4.373892747367462
 30
0.0
 11
0.7049845048521617
 21
5.730058301909787
 31
0.0
  0
LINE
  5
7C
  8
0
 62
     0
 10
0.9208182308370196
 20
2.259437822373972
 30
0.0
 11
1.905209104438199
 21
4.851218927376431
 31
0.0
  0
LINE
  5
7D
  8
0
 62
     0
 10
0.3583792333147627
 20
4.735001305877748
 30
0.0
 11
0.2963680983231221
 21
5.514360966855318
 31
0.0
  0
LINE
  5
7E
  8
0
 62
     0
 10
0.2586493191019484
 20
0.9157088073122188
 30
0.0
 11
0.7310954357833186
 21
2.678756191288785
 31
0.0
  0
LINE
  5
7F
  8
0
 62
     0
 10
-0.0000000000000007
 20
-0.0000000000000007
 30
0.0
 11
0.0825747490754364
 21
1.602193962351068
 31
0.0
  0
LINE
  5
80
  8
0
 62
     0
 10
-0.0000000000000007
 20
-0.0000000000000007
 30
0.0
 11
0.9491742897191096
 21
1.763023885623362
 31
0.0
  0
LINE
  5
81
  8
0
 62
     0
 10
2.016809863713363
 20
1.245749607106853
 30
0.0
 11
3.877772747230489
 21
2.395235149940046
 31
0.0
  0
LINE
  5
82
  8
0
 62
     0
 10
2.251677416615298
 20
2.452261693640958
 30
0.0
 11
3.793731854897784
 21
4.196066433550447
 31
0.0
  0
LINE
  5
83
  8
0
 62
     0
 10
1.131960161525145
 20
1.746378309682682
 30
0.0
 11
2.431302126888536
 21
3.750991813141823
 31
0.0
  0
LINE
  5
84
  8
0
 62
     0
 10
4.116835812068111
 20
2.533258274777344
 30
0.0
 11
4.996111673569725
 21
3.125821298067181
 31
0.0
  0
LINE
  5
85
  8
0
 62
     0
 10
3.804931957743828
 20
2.751521748745771
 30
0.0
 11
4.796019848215051
 21
3.380543307514281
 31
0.0
  0
LINE
  5
86
  8
0
 62
     0
 10
3.329008717170782
 20
2.93190528432553
 30
0.0
 11
4.38394055473546
 21
3.910591184075235
 31
0.0
  0
LINE
  5
87
  8
0
 62
     0
 10
2.760140663377016
 20
3.45696835519636
 30
0.0
 11
3.47556364143126
 21
4.609883802193719
 31
0.0
  0
LINE
  5
88
  8
0
 62
     0
 10
1.927170891359689
 20
1.496321437028742
 30
0.0
 11
4.075568947653097
 21
3.248674278208786
 31
0.0
  0
LINE
  5
89
  8
0
 62
     0
 10
2.67786617317825
 20
3.921441801185241
 30
0.0
 11
3.013842785446768
 21
4.627392633772464
 31
0.0
  0
LINE
  5
8A
  8
0
 62
     0
 10
0.6818512846699454
 20
0.6637024300505572
 30
0.0
 11
1.972525315623602
 21
1.954323194309276
 31
0.0
  0
LINE
  5
8B
  8
0
 62
     0
 10
0.0
 20
0.0
 30
0.0
 11
0.8726088115859885
 21
1.346253298648356
 31
0.0
  0
LINE
  5
8C
  8
0
 62
     0
 10
0.0
 20
0.0
 30
0.0
 11
1.703520990327481
 21
1.052236327569027
 31
0.0
  0
LINE
  5
8D
  8
0
 62
     0
 10
2.369483380132231
 20
0.0704458746523371
 30
0.0
 11
4.5558672841746
 21
0.135448114270265
 31
0.0
  0
LINE
  5
8E
  8
0
 62
     0
 10
3.176140690737044
 20
0.997882215112873
 30
0.0
 11
5.383501378262965
 21
1.737034199972963
 31
0.0
  0
LINE
  5
8F
  8
0
 62
     0
 10
1.853495410794053
 20
0.9464279000407574
 30
0.0
 11
3.98106531273152
 21
2.032803136124003
 31
0.0
  0
LINE
  5
90
  8
0
 62
     0
 10
4.831913533849194
 20
0.135448114270265
 30
0.0
 11
5.889670278488959
 21
0.2089848150317661
 31
0.0
  0
LINE
  5
91
  8
0
 62
     0
 10
4.670928609450298
 20
0.480421754607308
 30
0.0
 11
5.843746679365763
 21
0.5296264587933126
 31
0.0
  0
LINE
  5
92
  8
0
 62
     0
 10
4.348958760652508
 20
0.8746000991303555
 30
0.0
 11
5.751899481119371
 21
1.194701031856892
 31
0.0
  0
LINE
  5
93
  8
0
 62
     0
 10
4.118836110101109
 20
1.613752083990447
 30
0.0
 11
5.314868307045881
 21
2.254494660478529
 31
0.0
  0
LINE
  5
94
  8
0
 62
     0
 10
2.417139667865762
 20
0.3322669310142836
 30
0.0
 11
5.153883382646986
 21
0.7756499797233358
 31
0.0
  0
LINE
  5
95
  8
0
 62
     0
 10
4.279821034500003
 20
2.0571351326995
 30
0.0
 11
4.923760732095587
 21
2.500518181408552
 31
0.0
  0
LINE
  5
96
  8
0
 62
     0
 10
0.9223517491525062
 20
0.2338575226422743
 30
0.0
 11
2.685418630092595
 21
0.706230875665184
 31
0.0
  0
LINE
  5
97
  8
0
 62
     0
 10
0.0
 20
0.0
 30
0.0
 11
1.428828047723793
 21
0.7295851507650806
 31
0.0
  0
LINE
  5
98
  8
0
 62
     0
 10
0.0
 20
0.0
 30
0.0
 11
2.001410617288137
 21
0.0595028952958812
 31
0.0
  0
LINE
  5
99
  8
0
 62
     0
 10
2.0872557383657
 20
-1.123733773025376
 30
0.0
 11
4.013220861500755
 21
-2.160632134234551
 31
0.0
  0
LINE
  5
9A
  8
0
 62
     0
 10
3.249559631728171
 20
-0.7238789970960847
 30
0.0
 11
5.530766054870748
 21
-1.187434944712515
 31
0.0
  0
LINE
  5
9B
  8
0
 62
     0
 10
2.078388061565903
 20
-0.1071171011113705
 30
0.0
 11
4.464105263012539
 21
-0.2300734995896955
 31
0.0
  0
LINE
  5
9C
  8
0
 62
     0
 10
4.252283926338376
 20
-2.298655259071849
 30
0.0
 11
5.205096488601493
 21
-2.763848980421776
 31
0.0
  0
LINE
  5
9D
  8
0
 62
     0
 10
4.285353712351136
 20
-1.919406860704525
 30
0.0
 11
5.325646307008364
 21
-2.463203371851479
 31
0.0
  0
LINE
  5
9E
  8
0
 62
     0
 10
4.203608816301138
 20
-1.417053476326976
 30
0.0
 11
5.578641586592353
 21
-1.841308297044133
 31
0.0
  0
LINE
  5
9F
  8
0
 62
     0
 10
4.373892747367463
 20
-0.6618677549047461
 30
0.0
 11
5.730058301909789
 21
-0.7049845048521595
 31
0.0
  0
LINE
  5
A0
  8
0
 62
     0
 10
2.259437822373973
 20
-0.9208182308370192
 30
0.0
 11
4.851218927376433
 21
-1.905209104438197
 31
0.0
  0
LINE
  5
A1
  8
0
 62
     0
 10
4.735001305877749
 20
-0.358379233314761
 30
0.0
 11
5.514360966855319
 21
-0.2963680983231199
 31
0.0
  0
LINE
  5
A2
  8
0
 62
     0
 10
0.9157088073122197
 20
-0.2586493191019486
 30
0.0
 11
2.678756191288786
 21
-0.7310954357833179
 31
0.0
  0
LINE
  5
A3
  8
0
 62
     0
 10
0.0000000000000001
 20
0.0
 30
0.0
 11
1.602193962351069
 21
-0.0825747490754363
 31
0.0
  0
LINE
  5
A4
  8
0
 62
     0
 10
0.0000000000000001
 20
0.0
 30
0.0
 11
1.763023885623363
 21
-0.9491742897191094
 31
0.0
  0
LINE
  5
A5
  8
0
 62
     0
 10
1.245749607106853
 20
-2.016809863713364
 30
0.0
 11
2.395235149940047
 21
-3.877772747230489
 31
0.0
  0
LINE
  5
A6
  8
0
 62
     0
 10
2.452261693640957
 20
-2.251677416615299
 30
0.0
 11
4.196066433550446
 21
-3.793731854897784
 31
0.0
  0
LINE
  5
A7
  8
0
 62
     0
 10
1.746378309682681
 20
-1.131960161525146
 30
0.0
 11
3.750991813141822
 21
-2.431302126888536
 31
0.0
  0
LINE
  5
A8
  8
0
 62
     0
 10
2.533258274777344
 20
-4.116835812068111
 30
0.0
 11
3.125821298067181
 21
-4.996111673569726
 31
0.0
  0
LINE
  5
A9
  8
0
 62
     0
 10
2.751521748745771
 20
-3.804931957743828
 30
0.0
 11
3.380543307514282
 21
-4.796019848215051
 31
0.0
  0
LINE
  5
AA
  8
0
 62
     0
 10
2.93190528432553
 20
-3.329008717170782
 30
0.0
 11
3.910591184075235
 21
-4.383940554735461
 31
0.0
  0
LINE
  5
AB
  8
0
 62
     0
 10
3.456968355196361
 20
-2.760140663377015
 30
0.0
 11
4.609883802193719
 21
-3.47556364143126
 31
0.0
  0
LINE
  5
AC
  8
0
 62
     0
 10
1.496321437028742
 20
-1.927170891359689
 30
0.0
 11
3.248674278208786
 21
-4.075568947653097
 31
0.0
  0
LINE
  5
AD
  8
0
 62
     0
 10
3.92144180118524
 20
-2.67786617317825
 30
0.0
 11
4.627392633772463
 21
-3.013842785446768
 31
0.0
  0
LINE
  5
AE
  8
0
 62
     0
 10
0.6637024300505565
 20
-0.6818512846699458
 30
0.0
 11
1.954323194309276
 21
-1.972525315623602
 31
0.0
  0
LINE
  5
AF
  8
0
 62
     0
 10
-0.0000000000000007
 20
-0.0000000000000007
 30
0.0
 11
1.346253298648355
 21
-0.872608811585989
 31
0.0
  0
LINE
  5
B0
  8
0
 62
     0
 10
-0.0000000000000007
 20
-0.0000000000000007
 30
0.0
 11
1.052236327569027
 21
-1.703520990327482
 31
0.0
  0
ENDSEC
  0
EOF
