  0
SECTION
  2
HEADER
  9
$ACADVER
  1
AC1009
  9
$DWGCODEPAGE
  3
ansi_1252
  9
$INSBASE
 10
83.03102050408357
 20
52.63339404265358
 30
0.0
  9
$EXTMIN
 10
71.56830564090978
 20
41.59851579647329
 30
-0.0015258207003583
  9
$EXTMAX
 10
92.14477910677033
 20
62.92267103321228
 30
0.0000000349246037
  9
$LIMMIN
 10
0.0
 20
0.0
  9
$LIMMAX
 10
3100.0
 20
2150.0
  9
$ORTHOMODE
 70
     0
  9
$REGENMODE
 70
     1
  9
$FILLMODE
 70
     1
  9
$QTEXTMODE
 70
     0
  9
$MIRRTEXT
 70
     1
  9
$DRAGMODE
 70
     2
  9
$LTSCALE
 40
1.0
  9
$OSMODE
 70
    37
  9
$ATTMODE
 70
     1
  9
$TEXTSIZE
 40
0.2
  9
$TRACEWID
 40
0.05
  9
$TEXTSTYLE
  7
STANDARD
  9
$CLAYER
  8
0
  9
$CELTYPE
  6
BYLAYER
  9
$CECOLOR
 62
   256
  9
$DIMSCALE
 40
1.0
  9
$DIMASZ
 40
0.18
  9
$DIMEXO
 40
0.0625
  9
$DIMDLI
 40
0.3799999999999999
  9
$DIMRND
 40
0.0
  9
$DIMDLE
 40
0.0
  9
$DIMEXE
 40
0.18
  9
$DIMTP
 40
0.0
  9
$DIMTM
 40
0.0
  9
$DIMTXT
 40
0.18
  9
$DIMCEN
 40
0.09
  9
$DIMTSZ
 40
0.0
  9
$DIMTOL
 70
     0
  9
$DIMLIM
 70
     0
  9
$DIMTIH
 70
     1
  9
$DIMTOH
 70
     1
  9
$DIMSE1
 70
     0
  9
$DIMSE2
 70
     0
  9
$DIMTAD
 70
     0
  9
$DIMZIN
 70
     0
  9
$DIMBLK
  1

  9
$DIMASO
 70
     0
  9
$DIMSHO
 70
     1
  9
$DIMPOST
  1

  9
$DIMAPOST
  1

  9
$DIMALT
 70
     0
  9
$DIMALTD
 70
     2
  9
$DIMALTF
 40
25.4
  9
$DIMLFAC
 40
1.0
  9
$DIMTOFL
 70
     0
  9
$DIMTVP
 40
0.0
  9
$DIMTIX
 70
     0
  9
$DIMSOXD
 70
     0
  9
$DIMSAH
 70
     0
  9
$DIMBLK1
  1

  9
$DIMBLK2
  1

  9
$DIMSTYLE
  2
STANDARD
  9
$DIMCLRD
 70
     0
  9
$DIMCLRE
 70
     0
  9
$DIMCLRT
 70
     0
  9
$DIMTFAC
 40
1.0
  9
$DIMGAP
 40
0.09
  9
$LUNITS
 70
     2
  9
$LUPREC
 70
     2
  9
$SKETCHINC
 40
0.1
  9
$FILLETRAD
 40
0.0
  9
$AUNITS
 70
     0
  9
$AUPREC
 70
     0
  9
$MENU
  1
.
  9
$ELEVATION
 40
0.0
  9
$PELEVATION
 40
0.0
  9
$THICKNESS
 40
0.0
  9
$LIMCHECK
 70
     0
  9
$CHAMFERA
 40
0.0
  9
$CHAMFERB
 40
0.0
  9
$SKPOLY
 70
     0
  9
$TDCREATE
 40
2451250.877440162
  9
$TDUPDATE
 40
2457464.593194445
  9
$TDINDWG
 40
0.0022277199
  9
$TDUSRTIMER
 40
0.0022277199
  9
$USRTIMER
 70
     1
  9
$ANGBASE
 50
0.0
  9
$ANGDIR
 70
     0
  9
$PDMODE
 70
     0
  9
$PDSIZE
 40
0.0
  9
$PLINEWID
 40
0.0
  9
$COORDS
 70
     1
  9
$SPLFRAME
 70
     0
  9
$SPLINETYPE
 70
     6
  9
$SPLINESEGS
 70
     8
  9
$ATTDIA
 70
     0
  9
$ATTREQ
 70
     1
  9
$HANDLING
 70
     1
  9
$HANDSEED
  5
A0
  9
$SURFTAB1
 70
     6
  9
$SURFTAB2
 70
     6
  9
$SURFTYPE
 70
     6
  9
$SURFU
 70
     6
  9
$SURFV
 70
     6
  9
$UCSNAME
  2

  9
$UCSORG
 10
0.0
 20
0.0
 30
0.0
  9
$UCSXDIR
 10
1.0
 20
0.0
 30
0.0
  9
$UCSYDIR
 10
0.0
 20
1.0
 30
0.0
  9
$PUCSNAME
  2

  9
$PUCSORG
 10
0.0
 20
0.0
 30
0.0
  9
$PUCSXDIR
 10
1.0
 20
0.0
 30
0.0
  9
$PUCSYDIR
 10
0.0
 20
1.0
 30
0.0
  9
$USERI1
 70
     0
  9
$USERI2
 70
     0
  9
$USERI3
 70
     0
  9
$USERI4
 70
     0
  9
$USERI5
 70
     0
  9
$USERR1
 40
0.0
  9
$USERR2
 40
0.0
  9
$USERR3
 40
0.0
  9
$USERR4
 40
0.0
  9
$USERR5
 40
0.0
  9
$WORLDVIEW
 70
     1
  9
$SHADEDGE
 70
     3
  9
$SHADEDIF
 70
    70
  9
$TILEMODE
 70
     1
  9
$MAXACTVP
 70
    16
  9
$PLIMCHECK
 70
     0
  9
$PEXTMIN
 10
1.000000000000000E+20
 20
1.000000000000000E+20
 30
1.000000000000000E+20
  9
$PEXTMAX
 10
-1.000000000000000E+20
 20
-1.000000000000000E+20
 30
-1.000000000000000E+20
  9
$PLIMMIN
 10
0.0
 20
0.0
  9
$PLIMMAX
 10
12.0
 20
9.0
  9
$UNITMODE
 70
     0
  9
$VISRETAIN
 70
     0
  9
$PLINEGEN
 70
     1
  9
$PSLTSCALE
 70
     0
  0
ENDSEC
  0
SECTION
  2
TABLES
  0
TABLE
  2
VPORT
 70
     1
  0
VPORT
  2
*ACTIVE
 70
     0
 10
0.0
 20
0.0
 11
1.0
 21
1.0
 12
81.85654237384006
 22
52.26059341484279
 13
0.0
 23
0.0
 14
0.5
 24
0.5
 15
0.0
 25
0.0
 16
0.0
 26
0.0
 36
1.0
 17
0.0
 27
0.0
 37
0.0
 40
21.54628185378836
 41
1.365217391304348
 42
50.0
 43
0.0
 44
0.0
 50
0.0
 51
0.0
 71
     0
 72
   100
 73
     1
 74
     1
 75
     0
 76
     0
 77
     0
 78
     0
  0
ENDTAB
  0
TABLE
  2
LTYPE
 70
     1
  0
LTYPE
  2
CONTINUOUS
 70
     0
  3
Solid line
 72
    65
 73
     0
 40
0.0
  0
ENDTAB
  0
TABLE
  2
LAYER
 70
     1
  0
LAYER
  2
0
 70
     0
 62
     7
  6
CONTINUOUS
  0
ENDTAB
  0
TABLE
  2
STYLE
 70
     1
  0
STYLE
  2
STANDARD
 70
     0
 40
0.0
 41
1.0
 50
0.0
 71
     0
 42
0.2
  3
TXT
  4

  0
ENDTAB
  0
TABLE
  2
VIEW
 70
     0
  0
ENDTAB
  0
TABLE
  2
UCS
 70
     0
  0
ENDTAB
  0
TABLE
  2
APPID
 70
     1
  0
APPID
  2
ACAD
 70
     0
  0
ENDTAB
  0
TABLE
  2
DIMSTYLE
 70
     1
  0
DIMSTYLE
  2
STANDARD
 70
     0
  3

  4

  5

  6

  7

 40
1.0
 41
0.18
 42
0.0625
 43
0.38
 44
0.18
 45
0.0
 46
0.0
 47
0.0
 48
0.0
140
0.18
141
0.09
142
0.0
143
25.4
144
1.0
145
0.0
146
1.0
147
0.09
 71
     0
 72
     0
 73
     1
 74
     1
 75
     0
 76
     0
 77
     0
 78
     0
170
     0
171
     2
172
     0
173
     0
174
     0
175
     0
176
     0
177
     0
178
     0
  0
ENDTAB
  0
ENDSEC
  0
SECTION
  2
BLOCKS
  0
BLOCK
  8
0
  2
$MODEL_SPACE
 70
     0
 10
0.0
 20
0.0
 30
0.0
  3
$MODEL_SPACE
  1

  0
ENDBLK
  5
21
  8
0
  0
BLOCK
 67
     1
  8
0
  2
$PAPER_SPACE
 70
     0
 10
0.0
 20
0.0
 30
0.0
  3
$PAPER_SPACE
  1

  0
ENDBLK
  5
1F
 67
     1
  8
0
  0
ENDSEC
  0
SECTION
  2
ENTITIES
  0
LINE
  5
23
  8
0
 62
     0
 10
83.03178426649467
 20
52.53345866870379
 30
0.0
 11
84.15616003760098
 21
62.33629046472049
 31
0.0
  0
LINE
  5
24
  8
0
 62
     0
 10
83.03102050408357
 20
52.63339404265358
 30
0.0
 11
84.60260854238918
 21
43.15098995358719
 31
0.0
  0
LINE
  5
25
  8
0
 62
     0
 10
83.03254802890588
 20
52.433523294754
 30
0.0
 11
86.99494741789596
 21
43.96880324305309
 31
0.0
  0
LINE
  5
26
  8
0
 62
     0
 10
88.09270900652177
 20
44.17707537747528
 30
0.0
 11
83.03254802890588
 21
52.433523294754
 31
0.0
  0
LINE
  5
27
  8
0
 62
     0
 10
82.93108513013378
 20
52.63263028024248
 30
0.0
 11
91.96574819340856
 21
47.40479407790419
 31
0.0
  0
LINE
  5
28
  8
0
 62
     0
 10
91.85893895775848
 20
48.30344868104149
 30
0.0
 11
82.93108513013378
 21
52.63263028024248
 31
0.0
  0
LINE
  5
29
  8
0
 62
     0
 10
83.03102050408357
 20
52.63339404265358
 30
0.0
 11
90.79161036366878
 21
57.19005933846468
 31
0.0
  0
LINE
  5
2A
  8
0
 62
     0
 10
90.68098231596306
 20
58.58839081135108
 30
0.0
 11
83.03102050408357
 21
52.63339404265358
 31
0.0
  0
LINE
  5
2B
  8
0
 62
     0
 10
83.13171964044457
 20
52.53422243111488
 30
0.0
 11
77.27283943364118
 21
60.68462487515468
 31
0.0
  0
LINE
  5
2C
  8
0
 62
     0
 10
76.58169320251498
 20
59.57998942482858
 30
0.0
 11
83.13171964044457
 21
52.53422243111488
 31
0.0
  0
LINE
  5
2D
  8
0
 62
     0
 10
83.03178426649467
 20
52.53345866870379
 30
0.0
 11
76.18729804359357
 21
58.87738675753518
 31
0.0
  0
LINE
  5
2E
  8
0
 62
     0
 10
75.69143998590016
 20
58.37389107573038
 30
0.0
 11
83.03178426649467
 21
52.53345866870379
 31
0.0
  0
LINE
  5
2F
  8
0
 62
     0
 10
82.93184889254488
 20
52.53269490629268
 30
0.0
 11
77.80471182656758
 21
43.39886023147918
 31
0.0
  0
LINE
  5
30
  8
0
 62
     0
 10
77.29892485752929
 20
44.19452441102209
 30
0.0
 11
82.93184889254488
 21
52.53269490629268
 31
0.0
  0
LINE
  5
31
  8
0
 62
     0
 10
83.03178426649467
 20
52.53345866870379
 30
0.0
 11
74.27489571705577
 21
47.56941425298199
 31
0.0
  0
LINE
  5
32
  8
0
 62
     0
 10
73.87057164678967
 20
48.16597144703638
 30
0.0
 11
83.03178426649467
 21
52.53345866870379
 31
0.0
  0
ARC
  5
33
  8
0
 62
     0
 10
67.99714218570568
 20
56.3519559871402
 30
0.0
 40
7.887986654754019
 50
301.8551537487676
 51
323.5679804449
  0
ARC
  5
34
  8
0
 62
     0
 10
71.31096880324033
 20
26.73400505253295
 30
0.0
 40
25.11726361370059
 50
83.06544165327084
 51
89.01290381821913
  0
LINE
  5
35
  8
0
 62
     0
 10
78.06162975148388
 20
62.08983020974129
 30
0.0
 11
71.74366958463116
 21
51.84754127254608
 31
0.0
  0
ARC
  5
36
  8
0
 62
     0
 10
75.42284367676697
 20
56.46740301196779
 30
0.0
 40
6.210867857424039
 50
45.58274700961321
 51
64.8578232354814
  0
ARC
  5
37
  8
0
 62
     0
 10
107.8049664140856
 20
65.03221510683478
 30
0.0
 40
28.33764140920526
 50
184.5162966070709
 51
188.3774714893983
  0
LINE
  5
38
  8
0
 62
     0
 10
88.35726455554936
 20
61.86869161623918
 30
0.0
 11
79.55531402385327
 21
62.80083426355718
 31
0.0
  0
ARC
  5
39
  8
0
 62
     0
 10
103.4025027906619
 20
61.33405792844137
 30
0.0
 40
15.05473436269864
 50
177.9648464426495
 51
187.4921298241073
  0
ARC
  5
3A
  8
0
 62
     0
 10
87.20437107103173
 20
67.56652370600686
 30
0.0
 40
8.293565727566266
 50
278.8218455639895
 51
293.9447024193312
  0
LINE
  5
3B
  8
0
 62
     0
 10
92.06950237941408
 20
46.90588097056617
 30
0.0
 11
90.57035426825729
 21
59.98672228423749
 31
0.0
  0
ARC
  5
3C
  8
0
 62
     0
 10
90.77803889313219
 20
39.35044944480197
 30
0.0
 40
7.665012946949991
 50
80.30007423765532
 51
94.55010693545572
  0
ARC
  5
3D
  8
0
 62
     0
 10
91.76077198754517
 20
46.76360378356196
 30
0.0
 40
1.60701892981537
 50
171.8542566106277
 51
256.401634622815
  0
LINE
  5
3E
  8
0
 62
     0
 10
80.31684389871367
 20
41.61911756066079
 30
0.0
 11
91.38293872275466
 21
45.20163327654119
 31
0.0
  0
ARC
  5
3F
  8
0
 62
     0
 10
75.16520768462493
 20
42.22936372716106
 30
0.0
 40
5.187654196844546
 50
353.2444080354439
 51
21.31689497129451
  0
ARC
  5
40
  8
0
 62
     0
 10
64.03222489862037
 20
53.93734210683336
 30
0.0
 40
18.74509120480056
 50
322.0404550026909
 51
328.4001152424049
  0
LINE
  5
41
  8
0
 62
     0
 10
72.25938546501416
 20
49.7527172316554
 30
0.0
 11
78.81170319017728
 21
42.40714411609229
 31
0.0
  0
ENDSEC
  0
EOF
