  0
SECTION
  2
HEADER
  9
$ACADVER
  1
AC1009
  9
$DWGCODEPAGE
  3
ansi_1252
  9
$INSBASE
 10
0.0
 20
0.0
 30
0.0
  9
$EXTMIN
 10
-5.972249992986313
 20
-6.013944703830898
 30
0.0
  9
$EXTMAX
 10
6.059419218448308
 20
5.841369337750816
 30
0.0
  9
$LIMMIN
 10
0.0
 20
0.0
  9
$LIMMAX
 10
1.0
 20
1.0
  9
$ORTHOMODE
 70
     0
  9
$REGENMODE
 70
     0
  9
$FILLMODE
 70
     1
  9
$QTEXTMODE
 70
     0
  9
$MIRRTEXT
 70
     1
  9
$DRAGMODE
 70
     2
  9
$LTSCALE
 40
1.0
  9
$OSMODE
 70
    37
  9
$ATTMODE
 70
     1
  9
$TEXTSIZE
 40
0.2
  9
$TRACEWID
 40
0.05
  9
$TEXTSTYLE
  7
STANDARD
  9
$CLAYER
  8
0
  9
$CELTYPE
  6
BYLAYER
  9
$CECOLOR
 62
   256
  9
$DIMSCALE
 40
1.000000000000049
  9
$DIMASZ
 40
0.125
  9
$DIMEXO
 40
0.0625
  9
$DIMDLI
 40
0.3799999999999999
  9
$DIMRND
 40
0.0
  9
$DIMDLE
 40
0.0
  9
$DIMEXE
 40
0.18
  9
$DIMTP
 40
0.0
  9
$DIMTM
 40
0.0
  9
$DIMTXT
 40
0.18
  9
$DIMCEN
 40
0.09
  9
$DIMTSZ
 40
0.0
  9
$DIMTOL
 70
     0
  9
$DIMLIM
 70
     0
  9
$DIMTIH
 70
     0
  9
$DIMTOH
 70
     0
  9
$DIMSE1
 70
     0
  9
$DIMSE2
 70
     0
  9
$DIMTAD
 70
     0
  9
$DIMZIN
 70
     1
  9
$DIMBLK
  1

  9
$DIMASO
 70
     0
  9
$DIMSHO
 70
     0
  9
$DIMPOST
  1

  9
$DIMAPOST
  1

  9
$DIMALT
 70
     0
  9
$DIMALTD
 70
     2
  9
$DIMALTF
 40
25.4
  9
$DIMLFAC
 40
1.0
  9
$DIMTOFL
 70
     0
  9
$DIMTVP
 40
0.0
  9
$DIMTIX
 70
     0
  9
$DIMSOXD
 70
     0
  9
$DIMSAH
 70
     0
  9
$DIMBLK1
  1

  9
$DIMBLK2
  1

  9
$DIMSTYLE
  2
STANDARD
  9
$DIMCLRD
 70
     0
  9
$DIMCLRE
 70
     0
  9
$DIMCLRT
 70
     0
  9
$DIMTFAC
 40
1.0
  9
$DIMGAP
 40
0.09
  9
$LUNITS
 70
     2
  9
$LUPREC
 70
     2
  9
$SKETCHINC
 40
0.1
  9
$FILLETRAD
 40
0.0
  9
$AUNITS
 70
     0
  9
$AUPREC
 70
     0
  9
$MENU
  1
ACAD
  9
$ELEVATION
 40
0.0
  9
$PELEVATION
 40
0.0
  9
$THICKNESS
 40
0.0
  9
$LIMCHECK
 70
     0
  9
$CHAMFERA
 40
0.0
  9
$CHAMFERB
 40
0.0
  9
$SKPOLY
 70
     0
  9
$TDCREATE
 40
2447557.51556007
  9
$TDUPDATE
 40
2457464.593194445
  9
$TDINDWG
 40
0.003673287
  9
$TDUSRTIMER
 40
0.003673287
  9
$USRTIMER
 70
     1
  9
$ANGBASE
 50
0.0
  9
$ANGDIR
 70
     0
  9
$PDMODE
 70
     0
  9
$PDSIZE
 40
0.0
  9
$PLINEWID
 40
0.0
  9
$COORDS
 70
     1
  9
$SPLFRAME
 70
     0
  9
$SPLINETYPE
 70
     6
  9
$SPLINESEGS
 70
     8
  9
$ATTDIA
 70
     0
  9
$ATTREQ
 70
     1
  9
$HANDLING
 70
     1
  9
$HANDSEED
  5
112
  9
$SURFTAB1
 70
     6
  9
$SURFTAB2
 70
     6
  9
$SURFTYPE
 70
     6
  9
$SURFU
 70
     6
  9
$SURFV
 70
     6
  9
$UCSNAME
  2

  9
$UCSORG
 10
0.0
 20
0.0
 30
0.0
  9
$UCSXDIR
 10
1.0
 20
0.0
 30
0.0
  9
$UCSYDIR
 10
0.0
 20
1.0
 30
0.0
  9
$PUCSNAME
  2

  9
$PUCSORG
 10
0.0
 20
0.0
 30
0.0
  9
$PUCSXDIR
 10
1.0
 20
0.0
 30
0.0
  9
$PUCSYDIR
 10
0.0
 20
1.0
 30
0.0
  9
$USERI1
 70
     0
  9
$USERI2
 70
     0
  9
$USERI3
 70
     0
  9
$USERI4
 70
     0
  9
$USERI5
 70
     0
  9
$USERR1
 40
0.0
  9
$USERR2
 40
0.0
  9
$USERR3
 40
0.0
  9
$USERR4
 40
0.0
  9
$USERR5
 40
0.0
  9
$WORLDVIEW
 70
     1
  9
$SHADEDGE
 70
     3
  9
$SHADEDIF
 70
    70
  9
$TILEMODE
 70
     1
  9
$MAXACTVP
 70
    16
  9
$PLIMCHECK
 70
     0
  9
$PEXTMIN
 10
1.000000000000000E+20
 20
1.000000000000000E+20
 30
1.000000000000000E+20
  9
$PEXTMAX
 10
-1.000000000000000E+20
 20
-1.000000000000000E+20
 30
-1.000000000000000E+20
  9
$PLIMMIN
 10
0.0
 20
0.0
  9
$PLIMMAX
 10
12.0
 20
9.0
  9
$UNITMODE
 70
     0
  9
$VISRETAIN
 70
     0
  9
$PLINEGEN
 70
     0
  9
$PSLTSCALE
 70
     0
  0
ENDSEC
  0
SECTION
  2
TABLES
  0
TABLE
  2
VPORT
 70
     1
  0
VPORT
  2
*ACTIVE
 70
     0
 10
0.0
 20
0.0
 11
1.0
 21
1.0
 12
0.0435846127309976
 22
-0.086287683040041
 13
0.0
 23
0.0
 14
0.03125
 24
0.03125
 15
0.0625
 25
0.0625
 16
0.0
 26
0.0
 36
1.0
 17
0.0
 27
0.0
 37
0.0
 40
11.97880689618152
 41
1.365217391304348
 42
50.0
 43
0.0
 44
0.0
 50
0.0
 51
0.0
 71
     0
 72
   750
 73
     1
 74
     1
 75
     0
 76
     0
 77
     0
 78
     0
  0
ENDTAB
  0
TABLE
  2
LTYPE
 70
     1
  0
LTYPE
  2
CONTINUOUS
 70
     0
  3
Solid line
 72
    65
 73
     0
 40
0.0
  0
ENDTAB
  0
TABLE
  2
LAYER
 70
     1
  0
LAYER
  2
0
 70
     0
 62
    34
  6
CONTINUOUS
  0
ENDTAB
  0
TABLE
  2
STYLE
 70
     1
  0
STYLE
  2
STANDARD
 70
     0
 40
0.0
 41
1.0
 50
0.0
 71
     0
 42
0.2
  3
txt
  4

  0
ENDTAB
  0
TABLE
  2
VIEW
 70
     0
  0
ENDTAB
  0
TABLE
  2
UCS
 70
     0
  0
ENDTAB
  0
TABLE
  2
APPID
 70
     5
  0
APPID
  2
ACAD
 70
     0
  0
APPID
  2
ACAUTHENVIRON
 70
     0
  0
APPID
  2
ACDBDYNAMICBLOCKTRUENAME
 70
     0
  0
APPID
  2
ACDBDYNAMICBLOCKGUID
 70
     0
  0
APPID
  2
ACDBBLOCKREPETAG
 70
     0
  0
ENDTAB
  0
TABLE
  2
DIMSTYLE
 70
     1
  0
DIMSTYLE
  2
STANDARD
 70
     0
  3

  4

  5

  6

  7

 40
1.0
 41
0.18
 42
0.0625
 43
0.38
 44
0.18
 45
0.0
 46
0.0
 47
0.0
 48
0.0
140
0.18
141
0.09
142
0.0
143
25.4
144
1.0
145
0.0
146
1.0
147
0.09
 71
     0
 72
     0
 73
     1
 74
     1
 75
     0
 76
     0
 77
     0
 78
     0
170
     0
171
     2
172
     0
173
     0
174
     0
175
     0
176
     0
177
     0
178
     0
  0
ENDTAB
  0
ENDSEC
  0
SECTION
  2
BLOCKS
  0
BLOCK
  8
0
  2
$MODEL_SPACE
 70
     0
 10
0.0
 20
0.0
 30
0.0
  3
$MODEL_SPACE
  1

  0
ENDBLK
  5
20
  8
0
  0
BLOCK
 67
     1
  8
0
  2
$PAPER_SPACE
 70
     0
 10
0.0
 20
0.0
 30
0.0
  3
$PAPER_SPACE
  1

  0
ENDBLK
  5
1E
 67
     1
  8
0
  0
BLOCK
  8
0
  2
BRANCHW
 70
     0
 10
1.452875398724534
 20
0.6284377075612548
 30
0.0
  3
BRANCHW
  1

  0
LINE
  5
B5
  8
0
 62
     0
 10
1.429913599162936
 20
0.5884250909704379
 30
0.0
 11
1.498925161581584
 21
0.5730148264726233
 31
0.0
1001
ACDBBLOCKREPETAG
1070
     1
1071
        0
1005
B5
  0
LINE
  5
B6
  8
0
 62
     0
 10
1.409790483613074
 20
0.6346558844638818
 30
0.0
 11
1.429913599162936
 21
0.5884250909704379
 31
0.0
1001
ACDBBLOCKREPETAG
1070
     1
1071
        1
1005
B6
  0
LINE
  5
B7
  8
0
 62
     0
 10
1.478802046031722
 20
0.696229353575764
 30
0.0
 11
1.409790483613074
 21
0.6346558844638818
 31
0.0
1001
ACDBBLOCKREPETAG
1070
     1
1071
        2
1005
B7
  0
LINE
  5
B8
  8
0
 62
     0
 10
1.524788727021846
 20
0.6777775895060122
 30
0.0
 11
1.478802046031722
 21
0.696229353575764
 31
0.0
1001
ACDBBLOCKREPETAG
1070
     1
1071
        3
1005
B8
  0
LINE
  5
B9
  8
0
 62
     0
 10
1.487381179933858
 20
0.6408064724871324
 30
0.0
 11
1.524788727021846
 21
0.6777775895060122
 31
0.0
1001
ACDBBLOCKREPETAG
1070
     1
1071
        4
1005
B9
  0
LINE
  5
BA
  8
0
 62
     0
 10
1.524788727021846
 20
0.6068768550401896
 30
0.0
 11
1.487381179933858
 21
0.6408064724871324
 31
0.0
1001
ACDBBLOCKREPETAG
1070
     1
1071
        5
1005
BA
  0
LINE
  5
BB
  8
0
 62
     0
 10
1.498925161581584
 20
0.5730148264726233
 30
0.0
 11
1.524788727021846
 21
0.6068768550401896
 31
0.0
1001
ACDBBLOCKREPETAG
1070
     1
1071
        6
1005
BB
  0
ENDBLK
  5
2A
  8
0
  0
ENDSEC
  0
SECTION
  2
ENTITIES
  0
LINE
  5
2B
  8
0
 62
     0
 10
-3.05413841120619
 20
-4.593654912500197
 30
0.0
 11
-1.880815686355307
 21
-4.150812574826156
 31
0.0
  0
LINE
  5
2C
  8
0
 62
     0
 10
-1.880815686355307
 20
-4.150812574826156
 30
0.0
 11
-1.302932193382268
 21
-3.641796927565107
 31
0.0
  0
LINE
  5
2D
  8
0
 62
     0
 10
-1.302932193382268
 20
-3.641796927565107
 30
0.0
 11
-1.302932193382268
 21
-3.159355691160084
 31
0.0
  0
LINE
  5
2E
  8
0
 62
     0
 10
-1.302932193382268
 20
-3.159355691160084
 30
0.0
 11
-1.002568671624423
 21
-3.105816480778552
 31
0.0
  0
LINE
  5
2F
  8
0
 62
     0
 10
-1.002568671624423
 20
-3.105816480778552
 30
0.0
 11
-0.2771935121324423
 21
-3.668860704241486
 31
0.0
  0
LINE
  5
30
  8
0
 62
     0
 10
-0.2771935121324423
 20
-3.668860704241486
 30
0.0
 11
-0.3271625806515721
 21
-4.044223519883444
 31
0.0
  0
LINE
  5
31
  8
0
 62
     0
 10
-0.3271625806515721
 20
-4.044223519883444
 30
0.0
 11
-0.076768127412856
 21
-4.39252255884902
 31
0.0
  0
LINE
  5
32
  8
0
 62
     0
 10
-0.076768127412856
 20
-4.39252255884902
 30
0.0
 11
0.3235335313832484
 21
-4.39252255884902
 31
0.0
  0
LINE
  5
33
  8
0
 62
     0
 10
0.3235335313832484
 20
-4.39252255884902
 30
0.0
 11
0.7490942797604507
 21
-4.044223519883444
 31
0.0
  0
LINE
  5
34
  8
0
 62
     0
 10
0.7490942797604507
 20
-4.044223519883444
 30
0.0
 11
0.6238970531410937
 21
-3.615321493859954
 31
0.0
  0
LINE
  5
35
  8
0
 62
     0
 10
0.6238970531410937
 20
-3.615321493859954
 30
0.0
 11
1.299303144113945
 21
-3.507654730125662
 31
0.0
  0
LINE
  5
36
  8
0
 62
     0
 10
1.299303144113945
 20
-3.507654730125662
 30
0.0
 11
1.424500370733302
 21
-3.910081322443997
 31
0.0
  0
LINE
  5
37
  8
0
 62
     0
 10
1.424500370733302
 20
-3.910081322443997
 30
0.0
 11
0.8990014853178403
 21
-4.097762730264975
 31
0.0
  0
LINE
  5
38
  8
0
 62
     0
 10
0.8990014853178403
 20
-4.097762730264975
 30
0.0
 11
0.9742296434180675
 21
-4.312507914762334
 31
0.0
  0
LINE
  5
39
  8
0
 62
     0
 10
0.9742296434180675
 20
-4.312507914762334
 30
0.0
 11
1.724863892491148
 21
-4.580203966669998
 31
0.0
  0
LINE
  5
3A
  8
0
 62
     0
 10
1.724863892491148
 20
-4.580203966669998
 30
0.0
 11
2.801120752903171
 21
-4.39252255884902
 31
0.0
  0
LINE
  5
3B
  8
0
 62
     0
 10
2.801120752903171
 20
-4.39252255884902
 30
0.0
 11
2.775861663322073
 21
-3.937145099120377
 31
0.0
  0
LINE
  5
3C
  8
0
 62
     0
 10
2.775861663322073
 20
-3.937145099120377
 30
0.0
 11
3.00099702697969
 21
-3.56178228347842
 31
0.0
  0
LINE
  5
3D
  8
0
 62
     0
 10
3.00099702697969
 20
-3.56178228347842
 30
0.0
 11
3.351329617256665
 21
-3.132291914483705
 31
0.0
  0
LINE
  5
3E
  8
0
 62
     0
 10
3.351329617256665
 20
-3.132291914483705
 30
0.0
 11
3.576464980914282
 21
-3.347037098981062
 31
0.0
  0
LINE
  5
3F
  8
0
 62
     0
 10
3.576464980914282
 20
-3.347037098981062
 30
0.0
 11
3.726921297114738
 21
-3.910081322443997
 31
0.0
  0
LINE
  5
40
  8
0
 62
     0
 10
3.726921297114738
 20
-3.910081322443997
 30
0.0
 11
4.051994797810615
 21
-3.507654730125662
 31
0.0
  0
LINE
  5
41
  8
0
 62
     0
 10
4.051994797810615
 20
-3.507654730125662
 30
0.0
 11
4.227161092949101
 21
-3.507654730125662
 31
0.0
  0
LINE
  5
42
  8
0
 62
     0
 10
4.227161092949101
 20
-3.507654730125662
 30
0.0
 11
4.20245111401107
 21
-3.26643411192315
 31
0.0
  0
LINE
  5
43
  8
0
 62
     0
 10
4.20245111401107
 20
-3.26643411192315
 30
0.0
 11
4.177192024429973
 21
-2.891071296281194
 31
0.0
  0
LINE
  5
44
  8
0
 62
     0
 10
4.177192024429973
 20
-2.891071296281194
 30
0.0
 11
4.502265525125849
 21
-2.489233046934083
 31
0.0
  0
LINE
  5
45
  8
0
 62
     0
 10
4.502265525125849
 20
-2.489233046934083
 30
0.0
 11
3.826859434152997
 21
-1.979728033852682
 31
0.0
  0
LINE
  5
46
  8
0
 62
     0
 10
3.826859434152997
 20
-1.979728033852682
 30
0.0
 11
3.902087592253226
 21
-1.630840651915878
 31
0.0
  0
LINE
  5
47
  8
0
 62
     0
 10
3.902087592253226
 20
-1.630840651915878
 30
0.0
 11
4.402327388087589
 21
-1.067796428452944
 31
0.0
  0
LINE
  5
48
  8
0
 62
     0
 10
4.402327388087589
 20
-1.067796428452944
 30
0.0
 11
3.876828502672127
 21
-0.719497389487366
 31
0.0
  0
LINE
  5
49
  8
0
 62
     0
 10
3.876828502672127
 20
-0.719497389487366
 30
0.0
 11
3.176163322118177
 21
-0.8001003765452781
 31
0.0
  0
LINE
  5
4A
  8
0
 62
     0
 10
3.176163322118177
 20
-0.8001003765452781
 30
0.0
 11
3.301360548737534
 21
-0.3976737842269418
 31
0.0
  0
LINE
  5
4B
  8
0
 62
     0
 10
3.301360548737534
 20
-0.3976737842269418
 30
0.0
 11
3.852118523734096
 21
-0.1029139556428973
 31
0.0
  0
LINE
  5
4C
  8
0
 62
     0
 10
3.852118523734096
 20
-0.1029139556428973
 30
0.0
 11
3.902087592253226
 21
-0.2905953634638756
 31
0.0
  0
LINE
  5
4D
  8
0
 62
     0
 10
3.902087592253226
 20
-0.2905953634638756
 30
0.0
 11
4.051994797810615
 21
-0.2370561530823432
 31
0.0
  0
LINE
  5
4E
  8
0
 62
     0
 10
4.051994797810615
 20
-0.2370561530823432
 30
0.0
 11
4.452296456606719
 21
0.0312282417965473
 31
0.0
  0
LINE
  5
4F
  8
0
 62
     0
 10
4.452296456606719
 20
0.0312282417965473
 30
0.0
 11
4.477555546187817
 21
0.862556860138374
 31
0.0
  0
LINE
  5
50
  8
0
 62
     0
 10
4.477555546187817
 20
0.862556860138374
 30
0.0
 11
3.726921297114738
 21
1.425601083601309
 31
0.0
  0
LINE
  5
51
  8
0
 62
     0
 10
3.726921297114738
 20
1.425601083601309
 30
0.0
 11
3.351329617256665
 21
1.720360912185352
 31
0.0
  0
LINE
  5
52
  8
0
 62
     0
 10
3.351329617256665
 20
1.720360912185352
 30
0.0
 11
3.401298685775794
 21
2.309880569353441
 31
0.0
  0
LINE
  5
53
  8
0
 62
     0
 10
3.401298685775794
 20
2.309880569353441
 30
0.0
 11
3.476526843876022
 21
2.927052346169135
 31
0.0
  0
LINE
  5
54
  8
0
 62
     0
 10
3.476526843876022
 20
2.927052346169135
 30
0.0
 11
3.026256116560789
 21
3.355954372192624
 31
0.0
  0
LINE
  5
55
  8
0
 62
     0
 10
3.026256116560789
 20
3.355954372192624
 30
0.0
 11
2.475498141564227
 21
3.355954372192624
 31
0.0
  0
LINE
  5
56
  8
0
 62
     0
 10
2.475498141564227
 20
3.355954372192624
 30
0.0
 11
1.149395938556556
 21
3.007066990255822
 31
0.0
  0
LINE
  5
57
  8
0
 62
     0
 10
1.149395938556556
 20
3.007066990255822
 30
0.0
 11
0.9989396223560987
 21
2.739370938348156
 31
0.0
  0
LINE
  5
58
  8
0
 62
     0
 10
0.9989396223560987
 20
2.739370938348156
 30
0.0
 11
1.424500370733302
 21
2.524625753850799
 31
0.0
  0
LINE
  5
59
  8
0
 62
     0
 10
1.424500370733302
 20
2.524625753850799
 30
0.0
 11
1.224624096656784
 21
2.229865925266755
 31
0.0
  0
LINE
  5
5A
  8
0
 62
     0
 10
1.224624096656784
 20
2.229865925266755
 30
0.0
 11
0.6738661216602235
 21
2.283405135648287
 31
0.0
  0
LINE
  5
5B
  8
0
 62
     0
 10
0.6738661216602235
 20
2.283405135648287
 30
0.0
 11
0.3735025999023782
 21
2.712307161671777
 31
0.0
  0
LINE
  5
5C
  8
0
 62
     0
 10
0.3735025999023782
 20
2.712307161671777
 30
0.0
 11
-0.1267371959319865
 21
2.819385582434842
 31
0.0
  0
LINE
  5
5D
  8
0
 62
     0
 10
-0.1267371959319865
 20
2.819385582434842
 30
0.0
 11
-0.6774951709285466
 21
2.390483556411353
 31
0.0
  0
LINE
  5
5E
  8
0
 62
     0
 10
-0.6774951709285466
 20
2.390483556411353
 30
0.0
 11
-0.5775570338902876
 21
2.176326714885221
 31
0.0
  0
LINE
  5
5F
  8
0
 62
     0
 10
-0.5775570338902876
 20
2.176326714885221
 30
0.0
 11
-0.4023907387518
 21
1.773900122566886
 31
0.0
  0
LINE
  5
60
  8
0
 62
     0
 10
-0.4023907387518
 20
1.773900122566886
 30
0.0
 11
-1.302932193382268
 21
2.122199161532463
 31
0.0
  0
LINE
  5
61
  8
0
 62
     0
 10
-1.302932193382268
 20
2.122199161532463
 30
0.0
 11
-0.8526614660670342
 21
2.819385582434842
 31
0.0
  0
LINE
  5
62
  8
0
 62
     0
 10
-0.8526614660670342
 20
2.819385582434842
 30
0.0
 11
-1.278222214444237
 21
3.141209187695266
 31
0.0
  0
LINE
  5
63
  8
0
 62
     0
 10
-1.278222214444237
 20
3.141209187695266
 30
0.0
 11
-2.128794600555576
 21
3.087669977313734
 31
0.0
  0
LINE
  5
64
  8
0
 62
     0
 10
-2.128794600555576
 20
3.087669977313734
 30
0.0
 11
-2.128794600555576
 21
2.497561977174419
 31
0.0
  0
LINE
  5
65
  8
0
 62
     0
 10
-2.128794600555576
 20
2.497561977174419
 30
0.0
 11
-2.303960895694063
 21
2.176326714885221
 31
0.0
  0
LINE
  5
66
  8
0
 62
     0
 10
-2.303960895694063
 20
2.176326714885221
 30
0.0
 11
-2.954657007728884
 21
2.309880569353441
 31
0.0
  0
LINE
  5
67
  8
0
 62
     0
 10
-2.954657007728884
 20
2.309880569353441
 30
0.0
 11
-2.879428849628656
 21
2.846449359111222
 31
0.0
  0
LINE
  5
68
  8
0
 62
     0
 10
-2.879428849628656
 20
2.846449359111222
 30
0.0
 11
-3.104564213286273
 21
3.060606200637354
 31
0.0
  0
LINE
  5
69
  8
0
 62
     0
 10
-3.104564213286273
 20
3.060606200637354
 30
0.0
 11
-3.830488483421321
 21
3.141209187695266
 31
0.0
  0
LINE
  5
6A
  8
0
 62
     0
 10
-3.830488483421321
 20
3.141209187695266
 30
0.0
 11
-3.955685710040679
 21
2.712307161671777
 31
0.0
  0
LINE
  5
6B
  8
0
 62
     0
 10
-3.955685710040679
 20
2.712307161671777
 30
0.0
 11
-3.730550346383061
 21
2.229865925266755
 31
0.0
  0
LINE
  5
6C
  8
0
 62
     0
 10
-3.730550346383061
 20
2.229865925266755
 30
0.0
 11
-3.454896803563247
 21
1.90804232000633
 31
0.0
  0
LINE
  5
6D
  8
0
 62
     0
 10
-3.454896803563247
 20
1.90804232000633
 30
0.0
 11
-3.805229393840222
 21
1.63975792512744
 31
0.0
  0
LINE
  5
6E
  8
0
 62
     0
 10
-3.805229393840222
 20
1.63975792512744
 30
0.0
 11
-2.879428849628656
 21
1.237919675780331
 31
0.0
  0
LINE
  5
6F
  8
0
 62
     0
 10
-2.879428849628656
 20
1.237919675780331
 30
0.0
 11
-3.27973050842476
 21
0.8354930834619929
 31
0.0
  0
LINE
  5
70
  8
0
 62
     0
 10
-3.27973050842476
 20
0.8354930834619929
 30
0.0
 11
-3.504865872082377
 21
0.7013508860225484
 31
0.0
  0
LINE
  5
71
  8
0
 62
     0
 10
-3.504865872082377
 20
0.7013508860225484
 30
0.0
 11
-3.129823302867371
 21
0.2995126366754377
 31
0.0
  0
LINE
  5
72
  8
0
 62
     0
 10
-3.129823302867371
 20
0.2995126366754377
 30
0.0
 11
-3.27973050842476
 21
-0.2370561530823432
 31
0.0
  0
LINE
  5
73
  8
0
 62
     0
 10
-3.27973050842476
 20
-0.2370561530823432
 30
0.0
 11
-3.680032167220864
 21
-0.4512129946084755
 31
0.0
  0
LINE
  5
74
  8
0
 62
     0
 10
-3.680032167220864
 20
-0.4512129946084755
 30
0.0
 11
-3.22976143990563
 21
-0.9342425739847233
 31
0.0
  0
LINE
  5
75
  8
0
 62
     0
 10
-3.22976143990563
 20
-0.9342425739847233
 30
0.0
 11
-3.430186824625216
 21
-1.30960538962668
 31
0.0
  0
LINE
  5
76
  8
0
 62
     0
 10
-3.430186824625216
 20
-1.30960538962668
 30
0.0
 11
-3.90571664152155
 21
-1.577301441534345
 31
0.0
  0
LINE
  5
77
  8
0
 62
     0
 10
-3.90571664152155
 20
-1.577301441534345
 30
0.0
 11
-3.90571664152155
 21
-1.899125046794769
 31
0.0
  0
LINE
  5
78
  8
0
 62
     0
 10
-3.90571664152155
 20
-1.899125046794769
 30
0.0
 11
-3.930426620459581
 21
-2.328027072818259
 31
0.0
  0
LINE
  5
79
  8
0
 62
     0
 10
-3.930426620459581
 20
-2.328027072818259
 30
0.0
 11
-3.354958666524988
 21
-2.462169270257704
 31
0.0
  0
LINE
  5
7A
  8
0
 62
     0
 10
-3.354958666524988
 20
-2.462169270257704
 30
0.0
 11
-2.904687939209754
 21
-2.623375244373529
 31
0.0
  0
LINE
  5
7B
  8
0
 62
     0
 10
-2.904687939209754
 20
-2.623375244373529
 30
0.0
 11
-3.22976143990563
 21
-2.918135072957573
 31
0.0
  0
LINE
  5
7C
  8
0
 62
     0
 10
-3.22976143990563
 20
-2.918135072957573
 30
0.0
 11
-3.630063098701735
 21
-3.159355691160084
 31
0.0
  0
LINE
  5
7D
  8
0
 62
     0
 10
-3.630063098701735
 20
-3.159355691160084
 30
0.0
 11
-4.122997564425189
 21
-4.224619631105162
 31
0.0
  0
LINE
  5
7E
  8
0
 62
     0
 10
-4.122997564425189
 20
-4.224619631105162
 30
0.0
 11
-3.05413841120619
 21
-4.593654912500197
 31
0.0
  0
INSERT
  5
7F
  8
0
 62
     0
  2
BRANCHW
 10
-5.192613700047318
 20
5.053170663131761
 30
0.0
 41
12.0
 42
12.0
 43
12.0
 50
319.6971468221898
  0
INSERT
  5
80
  8
0
 62
     0
  2
BRANCHW
 10
1.603574315250254
 20
5.348398888247787
 30
0.0
 41
12.0
 42
12.0
 43
12.0
 50
319.6971468221898
  0
INSERT
  5
81
  8
0
 62
     0
  2
BRANCHW
 10
3.776870794635343
 20
5.38570794966355
 30
0.0
 41
12.0
 42
12.0
 43
12.0
 50
319.6971468221898
  0
INSERT
  5
82
  8
0
 62
     0
  2
BRANCHW
 10
4.293889775972861
 20
2.207138130351154
 30
0.0
 41
12.0
 42
12.0
 43
12.0
 50
319.6971468221898
  0
INSERT
  5
83
  8
0
 62
     0
  2
BRANCHW
 10
4.915372328942265
 20
-1.600008267161576
 30
0.0
 41
12.0
 42
12.0
 43
12.0
 50
319.6971468221898
  0
INSERT
  5
84
  8
0
 62
     0
  2
BRANCHW
 10
5.018321935767891
 20
-3.226196704957278
 30
0.0
 41
12.0
 42
12.0
 43
12.0
 50
319.6971468221898
  0
INSERT
  5
85
  8
0
 62
     0
  2
BRANCHW
 10
-5.22667790818815
 20
3.278557046225528
 30
0.0
 41
12.0
 42
12.0
 43
12.0
 50
319.6971468221898
  0
INSERT
  5
86
  8
0
 62
     0
  2
BRANCHW
 10
-3.294858815401403
 20
5.348398888247787
 30
0.0
 41
12.0
 42
12.0
 43
12.0
 50
319.6971468221898
  0
INSERT
  5
87
  8
0
 62
     0
  2
BRANCHW
 10
-1.535631710528207
 20
5.422205944526794
 30
0.0
 41
12.0
 42
12.0
 43
12.0
 50
319.6971468221898
  0
INSERT
  5
88
  8
0
 62
     0
  2
BRANCHW
 10
-0.0178819922533542
 20
5.422205944526794
 30
0.0
 41
12.0
 42
12.0
 43
12.0
 50
319.6971468221898
  0
INSERT
  5
89
  8
0
 62
     0
  2
BRANCHW
 10
-2.432655858236787
 20
4.165863854678644
 30
0.0
 41
12.0
 42
12.0
 43
12.0
 50
319.6971468221898
  0
INSERT
  5
8A
  8
0
 62
     0
  2
BRANCHW
 10
-0.707492961504423
 20
4.092056798399637
 30
0.0
 41
12.0
 42
12.0
 43
12.0
 50
319.6971468221898
  0
INSERT
  5
8B
  8
0
 62
     0
  2
BRANCHW
 10
1.016912952824812
 20
4.092056798399637
 30
0.0
 41
12.0
 42
12.0
 43
12.0
 50
319.6971468221898
  0
INSERT
  5
8C
  8
0
 62
     0
  2
BRANCHW
 10
2.845025456382803
 20
4.239670910957651
 30
0.0
 41
12.0
 42
12.0
 43
12.0
 50
319.6971468221898
  0
INSERT
  5
8D
  8
0
 62
     0
  2
BRANCHW
 10
4.156118978603274
 20
3.611094332757318
 30
0.0
 41
12.0
 42
12.0
 43
12.0
 50
319.6971468221898
  0
INSERT
  5
8E
  8
0
 62
     0
  2
BRANCHW
 10
-5.468155294786493
 20
1.356329316761283
 30
0.0
 41
12.0
 42
12.0
 43
12.0
 50
56.29381207835348
  0
INSERT
  5
8F
  8
0
 62
     0
  2
BRANCHW
 10
-5.3992698961017
 20
-0.4912802898714399
 30
0.0
 41
12.0
 42
12.0
 43
12.0
 50
56.29381207835348
  0
INSERT
  5
90
  8
0
 62
     0
  2
BRANCHW
 10
-5.295563306872944
 20
-2.192086850498665
 30
0.0
 41
12.0
 42
12.0
 43
12.0
 50
56.29381207835348
  0
INSERT
  5
91
  8
0
 62
     0
  2
BRANCHW
 10
-5.295563306872944
 20
-3.818275288294366
 30
0.0
 41
12.0
 42
12.0
 43
12.0
 50
56.29381207835348
  0
INSERT
  5
92
  8
0
 62
     0
  2
BRANCHW
 10
-5.330384497416905
 20
-5.407154664674305
 30
0.0
 41
12.0
 42
12.0
 43
12.0
 50
56.29381207835348
  0
INSERT
  5
93
  8
0
 62
     0
  2
BRANCHW
 10
-4.363717968620403
 20
0.91348697908724
 30
0.0
 41
12.0
 42
12.0
 43
12.0
 50
56.29381207835348
  0
INSERT
  5
94
  8
0
 62
     0
  2
BRANCHW
 10
-4.708901944447502
 20
-0.6762034638452161
 30
0.0
 41
12.0
 42
12.0
 43
12.0
 50
56.29381207835348
  0
INSERT
  5
95
  8
0
 62
     0
  2
BRANCHW
 10
-4.640016545762708
 20
-3.042084597536019
 30
0.0
 41
12.0
 42
12.0
 43
12.0
 50
56.29381207835348
  0
INSERT
  5
96
  8
0
 62
     0
  2
BRANCHW
 10
-3.708928189913297
 20
-5.518270782369076
 30
0.0
 41
12.0
 42
12.0
 43
12.0
 50
56.29381207835348
  0
INSERT
  5
97
  8
0
 62
     0
  2
BRANCHW
 10
-0.8800849494179723
 20
-4.963501260447749
 30
0.0
 41
12.0
 42
12.0
 43
12.0
 50
56.29381207835348
  0
INSERT
  5
98
  8
0
 62
     0
  2
BRANCHW
 10
5.018321935767891
 20
-5.22223149070053
 30
0.0
 41
12.0
 42
12.0
 43
12.0
 50
151.8056041760115
  0
INSERT
  5
99
  8
0
 62
     0
  2
BRANCHW
 10
3.810935002776175
 20
-4.778578086473972
 30
0.0
 41
12.0
 42
12.0
 43
12.0
 50
151.8056041760115
  0
INSERT
  5
9A
  8
0
 62
     0
  2
BRANCHW
 10
2.051707897902979
 20
-5.369845603258544
 30
0.0
 41
12.0
 42
12.0
 43
12.0
 50
151.8056041760115
  0
INSERT
  5
9B
  8
0
 62
     0
  2
BRANCHW
 10
0.7065501675416757
 20
-5.407154664674306
 30
0.0
 41
12.0
 42
12.0
 43
12.0
 50
151.8056041760115
  0
INSERT
  5
9C
  8
0
 62
     0
  2
BRANCHW
 10
-1.984522275584062
 20
-5.369845603258544
 30
0.0
 41
12.0
 42
12.0
 43
12.0
 50
151.8056041760115
  0
INSERT
  5
9D
  8
0
 62
     0
  2
BRANCHW
 10
5.294620512910196
 20
-0.342855110760909
 30
0.0
 41
12.0
 42
12.0
 43
12.0
 50
151.8056041760115
  0
INSERT
  5
9E
  8
0
 62
     0
  2
BRANCHW
 10
5.36350591159499
 20
4.942054545436992
 30
0.0
 41
12.0
 42
12.0
 43
12.0
 50
151.8056041760115
  0
INSERT
  5
9F
  8
0
 62
     0
  2
BRANCHW
 10
-3.640042791228503
 20
3.944442685841624
 30
0.0
 41
12.0
 42
12.0
 43
12.0
 50
151.8056041760115
  0
INSERT
  5
A0
  8
0
 62
     0
  2
BRANCHW
 10
5.397570119735822
 20
3.833326568146854
 30
0.0
 41
12.0
 42
12.0
 43
12.0
 50
229.304830264814
  0
INSERT
  5
A1
  8
0
 62
     0
  2
BRANCHW
 10
5.397570119735822
 20
1.615059547014064
 30
0.0
 41
12.0
 42
12.0
 43
12.0
 50
229.304830264814
  0
ENDSEC
  0
EOF
