  0
SECTION
  2
HEADER
  9
$ACADVER
  1
AC1009
  9
$DWGCODEPAGE
  3
ansi_1252
  9
$INSBASE
 10
0.0
 20
0.0
 30
0.0
  9
$EXTMIN
 10
-6.000375443989817
 20
-6.000366182998246
 30
-0.0015258207003583
  9
$EXTMAX
 10
6.303862826815532
 20
6.000366238877607
 30
0.0000000349246037
  9
$LIMMIN
 10
0.0
 20
0.0
  9
$LIMMAX
 10
1.0
 20
1.0
  9
$ORTHOMODE
 70
     0
  9
$REGENMODE
 70
     0
  9
$FILLMODE
 70
     1
  9
$QTEXTMODE
 70
     0
  9
$MIRRTEXT
 70
     1
  9
$DRAGMODE
 70
     2
  9
$LTSCALE
 40
1.0
  9
$OSMODE
 70
    37
  9
$ATTMODE
 70
     1
  9
$TEXTSIZE
 40
0.2
  9
$TRACEWID
 40
0.05
  9
$TEXTSTYLE
  7
STANDARD
  9
$CLAYER
  8
0
  9
$CELTYPE
  6
BYLAYER
  9
$CECOLOR
 62
   256
  9
$DIMSCALE
 40
1.000000000000049
  9
$DIMASZ
 40
0.125
  9
$DIMEXO
 40
0.0625
  9
$DIMDLI
 40
0.3799999999999999
  9
$DIMRND
 40
0.0
  9
$DIMDLE
 40
0.0
  9
$DIMEXE
 40
0.18
  9
$DIMTP
 40
0.0
  9
$DIMTM
 40
0.0
  9
$DIMTXT
 40
0.18
  9
$DIMCEN
 40
0.09
  9
$DIMTSZ
 40
0.0
  9
$DIMTOL
 70
     0
  9
$DIMLIM
 70
     0
  9
$DIMTIH
 70
     0
  9
$DIMTOH
 70
     0
  9
$DIMSE1
 70
     0
  9
$DIMSE2
 70
     0
  9
$DIMTAD
 70
     0
  9
$DIMZIN
 70
     1
  9
$DIMBLK
  1

  9
$DIMASO
 70
     0
  9
$DIMSHO
 70
     0
  9
$DIMPOST
  1

  9
$DIMAPOST
  1

  9
$DIMALT
 70
     0
  9
$DIMALTD
 70
     2
  9
$DIMALTF
 40
25.4
  9
$DIMLFAC
 40
1.0
  9
$DIMTOFL
 70
     0
  9
$DIMTVP
 40
0.0
  9
$DIMTIX
 70
     0
  9
$DIMSOXD
 70
     0
  9
$DIMSAH
 70
     0
  9
$DIMBLK1
  1

  9
$DIMBLK2
  1

  9
$DIMSTYLE
  2
STANDARD
  9
$DIMCLRD
 70
     0
  9
$DIMCLRE
 70
     0
  9
$DIMCLRT
 70
     0
  9
$DIMTFAC
 40
1.0
  9
$DIMGAP
 40
0.09
  9
$LUNITS
 70
     2
  9
$LUPREC
 70
     2
  9
$SKETCHINC
 40
0.1
  9
$FILLETRAD
 40
0.0
  9
$AUNITS
 70
     0
  9
$AUPREC
 70
     0
  9
$MENU
  1
ACAD
  9
$ELEVATION
 40
0.0
  9
$PELEVATION
 40
0.0
  9
$THICKNESS
 40
0.0
  9
$LIMCHECK
 70
     0
  9
$CHAMFERA
 40
0.0
  9
$CHAMFERB
 40
0.0
  9
$SKPOLY
 70
     0
  9
$TDCREATE
 40
2447557.507709028
  9
$TDUPDATE
 40
2457464.59318287
  9
$TDINDWG
 40
0.0052359259
  9
$TDUSRTIMER
 40
0.0052359259
  9
$USRTIMER
 70
     1
  9
$ANGBASE
 50
0.0
  9
$ANGDIR
 70
     0
  9
$PDMODE
 70
     0
  9
$PDSIZE
 40
0.0
  9
$PLINEWID
 40
0.0
  9
$COORDS
 70
     1
  9
$SPLFRAME
 70
     0
  9
$SPLINETYPE
 70
     6
  9
$SPLINESEGS
 70
     8
  9
$ATTDIA
 70
     0
  9
$ATTREQ
 70
     1
  9
$HANDLING
 70
     1
  9
$HANDSEED
  5
10C
  9
$SURFTAB1
 70
     6
  9
$SURFTAB2
 70
     6
  9
$SURFTYPE
 70
     6
  9
$SURFU
 70
     6
  9
$SURFV
 70
     6
  9
$UCSNAME
  2

  9
$UCSORG
 10
0.0
 20
0.0
 30
0.0
  9
$UCSXDIR
 10
1.0
 20
0.0
 30
0.0
  9
$UCSYDIR
 10
0.0
 20
1.0
 30
0.0
  9
$PUCSNAME
  2

  9
$PUCSORG
 10
0.0
 20
0.0
 30
0.0
  9
$PUCSXDIR
 10
1.0
 20
0.0
 30
0.0
  9
$PUCSYDIR
 10
0.0
 20
1.0
 30
0.0
  9
$USERI1
 70
     0
  9
$USERI2
 70
     0
  9
$USERI3
 70
     0
  9
$USERI4
 70
     0
  9
$USERI5
 70
     0
  9
$USERR1
 40
0.0
  9
$USERR2
 40
0.0
  9
$USERR3
 40
0.0
  9
$USERR4
 40
0.0
  9
$USERR5
 40
0.0
  9
$WORLDVIEW
 70
     1
  9
$SHADEDGE
 70
     3
  9
$SHADEDIF
 70
    70
  9
$TILEMODE
 70
     1
  9
$MAXACTVP
 70
    16
  9
$PLIMCHECK
 70
     0
  9
$PEXTMIN
 10
1.000000000000000E+20
 20
1.000000000000000E+20
 30
1.000000000000000E+20
  9
$PEXTMAX
 10
-1.000000000000000E+20
 20
-1.000000000000000E+20
 30
-1.000000000000000E+20
  9
$PLIMMIN
 10
0.0
 20
0.0
  9
$PLIMMAX
 10
12.0
 20
9.0
  9
$UNITMODE
 70
     0
  9
$VISRETAIN
 70
     0
  9
$PLINEGEN
 70
     0
  9
$PSLTSCALE
 70
     0
  0
ENDSEC
  0
SECTION
  2
TABLES
  0
TABLE
  2
VPORT
 70
     1
  0
VPORT
  2
*ACTIVE
 70
     0
 10
0.0
 20
0.0
 11
1.0
 21
1.0
 12
0.1517436914128574
 22
0.0000000279396808
 13
0.0
 23
0.0
 14
0.03125
 24
0.03125
 15
0.0625
 25
0.0625
 16
0.0
 26
0.0
 36
1.0
 17
0.0
 27
0.0
 37
0.0
 40
12.12574005127039
 41
1.365217391304348
 42
50.0
 43
0.0
 44
0.0
 50
0.0
 51
0.0
 71
     0
 72
   750
 73
     1
 74
     1
 75
     0
 76
     1
 77
     0
 78
     0
  0
ENDTAB
  0
TABLE
  2
LTYPE
 70
     1
  0
LTYPE
  2
CONTINUOUS
 70
     0
  3
Solid line
 72
    65
 73
     0
 40
0.0
  0
ENDTAB
  0
TABLE
  2
LAYER
 70
     1
  0
LAYER
  2
0
 70
     0
 62
     7
  6
CONTINUOUS
  0
ENDTAB
  0
TABLE
  2
STYLE
 70
     1
  0
STYLE
  2
STANDARD
 70
     0
 40
0.0
 41
1.0
 50
0.0
 71
     0
 42
0.2
  3
txt
  4

  0
ENDTAB
  0
TABLE
  2
VIEW
 70
     0
  0
ENDTAB
  0
TABLE
  2
UCS
 70
     0
  0
ENDTAB
  0
TABLE
  2
APPID
 70
     1
  0
APPID
  2
ACAD
 70
     0
  0
ENDTAB
  0
TABLE
  2
DIMSTYLE
 70
     1
  0
DIMSTYLE
  2
STANDARD
 70
     0
  3

  4

  5

  6

  7

 40
1.0
 41
0.18
 42
0.0625
 43
0.38
 44
0.18
 45
0.0
 46
0.0
 47
0.0
 48
0.0
140
0.18
141
0.09
142
0.0
143
25.4
144
1.0
145
0.0
146
1.0
147
0.09
 71
     0
 72
     0
 73
     1
 74
     1
 75
     0
 76
     0
 77
     0
 78
     0
170
     0
171
     2
172
     0
173
     0
174
     0
175
     0
176
     0
177
     0
178
     0
  0
ENDTAB
  0
ENDSEC
  0
SECTION
  2
BLOCKS
  0
BLOCK
  8
0
  2
$MODEL_SPACE
 70
     0
 10
0.0
 20
0.0
 30
0.0
  3
$MODEL_SPACE
  1

  0
ENDBLK
  5
1F
  8
0
  0
BLOCK
 67
     1
  8
0
  2
$PAPER_SPACE
 70
     0
 10
0.0
 20
0.0
 30
0.0
  3
$PAPER_SPACE
  1

  0
ENDBLK
  5
1D
 67
     1
  8
0
  0
ENDSEC
  0
SECTION
  2
ENTITIES
  0
LINE
  5
21
  8
0
 62
     0
 10
0.2092743254044214
 20
-3.09259676474564
 30
0.0
 11
0.4393969759558205
 21
-3.240751588338666
 31
0.0
  0
LINE
  5
22
  8
0
 62
     0
 10
0.4393969759558205
 20
-3.240751588338666
 30
0.0
 11
0.5312441742022123
 21
-3.807416753030235
 31
0.0
  0
LINE
  5
23
  8
0
 62
     0
 10
0.5312441742022123
 20
-3.807416753030235
 30
0.0
 11
0.2551979245276166
 21
-4.546568737890325
 31
0.0
  0
LINE
  5
24
  8
0
 62
     0
 10
0.2551979245276166
 20
-4.546568737890325
 30
0.0
 11
0.6463054994779118
 21
-5.753976479069976
 31
0.0
  0
LINE
  5
25
  8
0
 62
     0
 10
0.6463054994779118
 20
-5.753976479069976
 30
0.0
 11
1.382092395319885
 21
-6.0
 31
0.0
  0
LINE
  5
26
  8
0
 62
     0
 10
1.382092395319885
 20
-6.0
 30
0.0
 11
2.393925540836455
 21
-6.0
 31
0.0
  0
LINE
  5
27
  8
0
 62
     0
 10
2.393925540836455
 20
-6.0
 30
0.0
 11
2.600834064358546
 21
-5.039156490785382
 31
0.0
  0
LINE
  5
28
  8
0
 62
     0
 10
2.600834064358546
 20
-5.039156490785382
 30
0.0
 11
2.807742587880637
 21
-5.039156490785382
 31
0.0
  0
LINE
  5
29
  8
0
 62
     0
 10
2.807742587880637
 20
-5.039156490785382
 30
0.0
 11
3.129712436678428
 21
-5.433334835308431
 31
0.0
  0
LINE
  5
2A
  8
0
 62
     0
 10
3.129712436678428
 20
-5.433334835308431
 30
0.0
 11
2.785033115786749
 21
-6.0
 31
0.0
  0
LINE
  5
2B
  8
0
 62
     0
 10
2.785033115786749
 20
-6.0
 30
0.0
 11
3.337125615135939
 21
-5.803181183255981
 31
0.0
  0
LINE
  5
2C
  8
0
 62
     0
 10
3.337125615135939
 20
-5.803181183255981
 30
0.0
 11
3.498110539534835
 21
-5.384130131122426
 31
0.0
  0
LINE
  5
2D
  8
0
 62
     0
 10
3.498110539534835
 20
-5.384130131122426
 30
0.0
 11
3.383049214259135
 21
-4.965619790023881
 31
0.0
  0
LINE
  5
2E
  8
0
 62
     0
 10
3.383049214259135
 20
-4.965619790023881
 30
0.0
 11
3.796866261303318
 21
-5.1624386067679
 31
0.0
  0
LINE
  5
2F
  8
0
 62
     0
 10
3.796866261303318
 20
-5.1624386067679
 30
0.0
 11
3.842789860426513
 21
-5.384130131122426
 31
0.0
  0
LINE
  5
30
  8
0
 62
     0
 10
3.842789860426513
 20
-5.384130131122426
 30
0.0
 11
3.820080388332626
 21
-5.63069436308746
 31
0.0
  0
LINE
  5
31
  8
0
 62
     0
 10
3.820080388332626
 20
-5.63069436308746
 30
0.0
 11
4.118836110101109
 21
-5.82805389086649
 31
0.0
  0
LINE
  5
32
  8
0
 62
     0
 10
4.118836110101109
 20
-5.82805389086649
 30
0.0
 11
4.486729558022096
 21
-5.334925426936421
 31
0.0
  0
LINE
  5
33
  8
0
 62
     0
 10
4.486729558022096
 20
-5.334925426936421
 30
0.0
 11
4.003774784825409
 21
-4.374081917721804
 31
0.0
  0
LINE
  5
34
  8
0
 62
     0
 10
4.003774784825409
 20
-4.374081917721804
 30
0.0
 11
3.589957737781226
 21
-3.831748749605732
 31
0.0
  0
LINE
  5
35
  8
0
 62
     0
 10
3.589957737781226
 20
-3.831748749605732
 30
0.0
 11
4.026988911854717
 21
-3.5608525210652
 31
0.0
  0
LINE
  5
36
  8
0
 62
     0
 10
4.026988911854717
 20
-3.5608525210652
 30
0.0
 11
4.647714482420991
 21
-3.634929932861713
 31
0.0
  0
LINE
  5
37
  8
0
 62
     0
 10
4.647714482420991
 20
-3.634929932861713
 30
0.0
 11
5.176592854740873
 21
-3.708466633623214
 31
0.0
  0
LINE
  5
38
  8
0
 62
     0
 10
5.176592854740873
 20
-3.708466633623214
 30
0.0
 11
5.728685354090063
 21
-3.38836570089668
 31
0.0
  0
LINE
  5
39
  8
0
 62
     0
 10
5.728685354090063
 20
-3.38836570089668
 30
0.0
 11
6.257563726409947
 21
-3.19100617311765
 31
0.0
  0
LINE
  5
3A
  8
0
 62
     0
 10
6.257563726409947
 20
-3.19100617311765
 30
0.0
 11
5.981517476735351
 21
-2.427522191682062
 31
0.0
  0
LINE
  5
3B
  8
0
 62
     0
 10
5.981517476735351
 20
-2.427522191682062
 30
0.0
 11
6.303487325533141
 21
-1.638624791600956
 31
0.0
  0
LINE
  5
3C
  8
0
 62
     0
 10
6.303487325533141
 20
-1.638624791600956
 30
0.0
 11
5.912884405518267
 21
-1.12116433109539
 31
0.0
  0
LINE
  5
3D
  8
0
 62
     0
 10
5.912884405518267
 20
-1.12116433109539
 30
0.0
 11
5.452639104415469
 21
-0.8259361059793633
 31
0.0
  0
LINE
  5
3E
  8
0
 62
     0
 10
5.452639104415469
 20
-0.8259361059793633
 30
0.0
 11
4.785989934725999
 21
-0.5301671698283243
 31
0.0
  0
LINE
  5
3F
  8
0
 62
     0
 10
4.785989934725999
 20
-0.5301671698283243
 30
0.0
 11
5.268944707922685
 21
-0.1603208218807732
 31
0.0
  0
LINE
  5
40
  8
0
 62
     0
 10
5.268944707922685
 20
-0.1603208218807732
 30
0.0
 11
4.900546605066278
 21
0.5047537511828044
 31
0.0
  0
LINE
  5
41
  8
0
 62
     0
 10
4.900546605066278
 20
0.5047537511828044
 30
0.0
 11
3.705019063056926
 21
0.6772405713513265
 31
0.0
  0
LINE
  5
42
  8
0
 62
     0
 10
3.705019063056926
 20
0.6772405713513265
 30
0.0
 11
2.830956714909945
 21
0.6031631595548137
 31
0.0
  0
LINE
  5
43
  8
0
 62
     0
 10
2.830956714909945
 20
0.6031631595548137
 30
0.0
 11
2.946018040185645
 21
1.170369035281395
 31
0.0
  0
LINE
  5
44
  8
0
 62
     0
 10
2.946018040185645
 20
1.170369035281395
 30
0.0
 11
3.796866261303318
 21
1.515342675618438
 31
0.0
  0
LINE
  5
45
  8
0
 62
     0
 10
3.796866261303318
 20
1.515342675618438
 30
0.0
 11
4.647714482420991
 21
1.515342675618438
 31
0.0
  0
LINE
  5
46
  8
0
 62
     0
 10
4.647714482420991
 20
1.515342675618438
 30
0.0
 11
5.866456151459651
 21
1.243905736042896
 31
0.0
  0
LINE
  5
47
  8
0
 62
     0
 10
5.866456151459651
 20
1.243905736042896
 30
0.0
 11
6.119792929040357
 21
1.465597260397422
 31
0.0
  0
LINE
  5
48
  8
0
 62
     0
 10
6.119792929040357
 20
1.465597260397422
 30
0.0
 11
6.142502401134247
 21
2.574595593205065
 31
0.0
  0
LINE
  5
49
  8
0
 62
     0
 10
6.142502401134247
 20
2.574595593205065
 30
0.0
 11
5.843746679365763
 21
2.845491821745595
 31
0.0
  0
LINE
  5
4A
  8
0
 62
     0
 10
5.843746679365763
 20
2.845491821745595
 30
0.0
 11
5.314868307045881
 21
2.821159825170098
 31
0.0
  0
LINE
  5
4B
  8
0
 62
     0
 10
5.314868307045881
 20
2.821159825170098
 30
0.0
 11
4.946974859124895
 21
3.116928761321136
 31
0.0
  0
LINE
  5
4C
  8
0
 62
     0
 10
4.946974859124895
 20
3.116928761321136
 30
0.0
 11
5.42992963232158
 21
3.387824989861668
 31
0.0
  0
LINE
  5
4D
  8
0
 62
     0
 10
5.42992963232158
 20
3.387824989861668
 30
0.0
 11
5.383501378262965
 21
3.782003334384715
 31
0.0
  0
LINE
  5
4E
  8
0
 62
     0
 10
5.383501378262965
 20
3.782003334384715
 30
0.0
 11
4.670928609450298
 21
4.102644978146262
 31
0.0
  0
LINE
  5
4F
  8
0
 62
     0
 10
4.670928609450298
 20
4.102644978146262
 30
0.0
 11
3.957851185702213
 21
3.166133465507141
 31
0.0
  0
LINE
  5
50
  8
0
 62
     0
 10
3.957851185702213
 20
3.166133465507141
 30
0.0
 11
3.015155766338148
 21
2.968773937728112
 31
0.0
  0
LINE
  5
51
  8
0
 62
     0
 10
3.015155766338148
 20
2.968773937728112
 30
0.0
 11
3.474896412505527
 21
3.954490154553236
 31
0.0
  0
LINE
  5
52
  8
0
 62
     0
 10
3.474896412505527
 20
3.954490154553236
 30
0.0
 11
3.842789860426513
 21
4.57036002343081
 31
0.0
  0
LINE
  5
53
  8
0
 62
     0
 10
3.842789860426513
 20
4.57036002343081
 30
0.0
 11
3.750942662180121
 21
5.112693191546883
 31
0.0
  0
LINE
  5
54
  8
0
 62
     0
 10
3.750942662180121
 20
5.112693191546883
 30
0.0
 11
3.337125615135939
 21
4.96507907898887
 31
0.0
  0
LINE
  5
55
  8
0
 62
     0
 10
3.337125615135939
 20
4.96507907898887
 30
0.0
 11
3.566743610751919
 21
5.580948947866444
 31
0.0
  0
LINE
  5
56
  8
0
 62
     0
 10
3.566743610751919
 20
5.580948947866444
 30
0.0
 11
2.87688031403314
 21
5.556076240255936
 31
0.0
  0
LINE
  5
57
  8
0
 62
     0
 10
2.87688031403314
 20
5.556076240255936
 30
0.0
 11
2.32478781468395
 21
5.161897895732888
 31
0.0
  0
LINE
  5
58
  8
0
 62
     0
 10
2.32478781468395
 20
5.161897895732888
 30
0.0
 11
1.980108493792271
 21
5.679358356238454
 31
0.0
  0
LINE
  5
59
  8
0
 62
     0
 10
1.980108493792271
 20
5.679358356238454
 30
0.0
 11
1.956894366762963
 21
5.925922588203488
 31
0.0
  0
LINE
  5
5A
  8
0
 62
     0
 10
1.956894366762963
 20
5.925922588203488
 30
0.0
 11
1.589000918841977
 21
5.70423106384896
 31
0.0
  0
LINE
  5
5B
  8
0
 62
     0
 10
1.589000918841977
 20
5.70423106384896
 30
0.0
 11
1.036908419492787
 21
4.546028026855314
 31
0.0
  0
LINE
  5
5C
  8
0
 62
     0
 10
1.036908419492787
 20
4.546028026855314
 30
0.0
 11
0.7381526977243036
 21
4.052899562925246
 31
0.0
  0
LINE
  5
5D
  8
0
 62
     0
 10
0.7381526977243036
 20
4.052899562925246
 30
0.0
 11
0.4161828489265127
 21
4.767719551209841
 31
0.0
  0
LINE
  5
5E
  8
0
 62
     0
 10
0.4161828489265127
 20
4.767719551209841
 30
0.0
 11
0.3470451227740083
 21
5.999999999999998
 31
0.0
  0
LINE
  5
5F
  8
0
 62
     0
 10
0.3470451227740083
 20
5.999999999999998
 30
0.0
 11
-0.3428181739447693
 21
5.999999999999998
 31
0.0
  0
LINE
  5
60
  8
0
 62
     0
 10
-0.3428181739447693
 20
5.999999999999998
 30
0.0
 11
-0.3428181739447693
 21
5.851845176406974
 31
0.0
  0
LINE
  5
61
  8
0
 62
     0
 10
-0.3428181739447693
 20
5.851845176406974
 30
0.0
 11
-0.0208483251469784
 21
5.728563060424457
 31
0.0
  0
LINE
  5
62
  8
0
 62
     0
 10
-0.0208483251469784
 20
5.728563060424457
 30
0.0
 11
-0.2509709756983776
 21
5.408462127697922
 31
0.0
  0
LINE
  5
63
  8
0
 62
     0
 10
-0.2509709756983776
 20
5.408462127697922
 30
0.0
 11
-0.6415738957132524
 21
5.556076240255936
 31
0.0
  0
LINE
  5
64
  8
0
 62
     0
 10
-0.6415738957132524
 20
5.556076240255936
 30
0.0
 11
-1.147742795939247
 21
5.999999999999998
 31
0.0
  0
LINE
  5
65
  8
0
 62
     0
 10
-1.147742795939247
 20
5.999999999999998
 30
0.0
 11
-1.745758894411633
 21
5.999999999999998
 31
0.0
  0
LINE
  5
66
  8
0
 62
     0
 10
-1.745758894411633
 20
5.999999999999998
 30
0.0
 11
-1.653407041229822
 21
5.679358356238454
 31
0.0
  0
LINE
  5
67
  8
0
 62
     0
 10
-1.653407041229822
 20
5.679358356238454
 30
0.0
 11
-1.44649851770773
 21
5.556076240255936
 31
0.0
  0
LINE
  5
68
  8
0
 62
     0
 10
-1.44649851770773
 20
5.556076240255936
 30
0.0
 11
-2.136361814426508
 21
5.186770603343396
 31
0.0
  0
LINE
  5
69
  8
0
 62
     0
 10
-2.136361814426508
 20
5.186770603343396
 30
0.0
 11
-2.320560865854711
 21
5.014283783174875
 31
0.0
  0
LINE
  5
6A
  8
0
 62
     0
 10
-2.320560865854711
 20
5.014283783174875
 30
0.0
 11
-1.952667417933724
 21
4.496823322669309
 31
0.0
  0
LINE
  5
6B
  8
0
 62
     0
 10
-1.952667417933724
 20
4.496823322669309
 30
0.0
 11
-2.021805144086228
 21
3.93015815797774
 31
0.0
  0
LINE
  5
6C
  8
0
 62
     0
 10
-2.021805144086228
 20
3.93015815797774
 30
0.0
 11
-1.308727720338143
 21
3.437029694047673
 31
0.0
  0
LINE
  5
6D
  8
0
 62
     0
 10
-1.308727720338143
 20
3.437029694047673
 30
0.0
 11
-0.5729408244961685
 21
2.79628711755959
 31
0.0
  0
LINE
  5
6E
  8
0
 62
     0
 10
-0.5729408244961685
 20
2.79628711755959
 30
0.0
 11
-1.308727720338143
 21
2.895237236966611
 31
0.0
  0
LINE
  5
6F
  8
0
 62
     0
 10
-1.308727720338143
 20
2.895237236966611
 30
0.0
 11
-2.343774992884019
 21
3.634389221826702
 31
0.0
  0
LINE
  5
70
  8
0
 62
     0
 10
-2.343774992884019
 20
3.634389221826702
 30
0.0
 11
-2.918576964327098
 21
5.2359753075294
 31
0.0
  0
LINE
  5
71
  8
0
 62
     0
 10
-2.918576964327098
 20
5.2359753075294
 30
0.0
 11
-3.355608138400588
 21
5.310052719325913
 31
0.0
  0
LINE
  5
72
  8
0
 62
     0
 10
-3.355608138400588
 20
5.310052719325913
 30
0.0
 11
-3.792639312474079
 21
4.816924255395844
 31
0.0
  0
LINE
  5
73
  8
0
 62
     0
 10
-3.792639312474079
 20
4.816924255395844
 30
0.0
 11
-3.815348784567967
 21
4.373541206686792
 31
0.0
  0
LINE
  5
74
  8
0
 62
     0
 10
-3.815348784567967
 20
4.373541206686792
 30
0.0
 11
-3.746211058415463
 21
3.979362862163744
 31
0.0
  0
LINE
  5
75
  8
0
 62
     0
 10
-3.746211058415463
 20
3.979362862163744
 30
0.0
 11
-4.252379958641457
 21
3.83120803857072
 31
0.0
  0
LINE
  5
76
  8
0
 62
     0
 10
-4.252379958641457
 20
3.83120803857072
 30
0.0
 11
-5.172365905911635
 21
3.634389221826702
 31
0.0
  0
LINE
  5
77
  8
0
 62
     0
 10
-5.172365905911635
 20
3.634389221826702
 30
0.0
 11
-5.701244278231517
 21
3.36295228225116
 31
0.0
  0
LINE
  5
78
  8
0
 62
     0
 10
-5.701244278231517
 20
3.36295228225116
 30
0.0
 11
-6.0
 21
3.141260757896633
 31
0.0
  0
LINE
  5
79
  8
0
 62
     0
 10
-6.0
 20
3.141260757896633
 30
0.0
 11
-5.540259353832622
 21
2.722750416798089
 31
0.0
  0
LINE
  5
7A
  8
0
 62
     0
 10
-5.540259353832622
 20
2.722750416798089
 30
0.0
 11
-4.643487533591752
 21
2.697877709187581
 31
0.0
  0
LINE
  5
7B
  8
0
 62
     0
 10
-4.643487533591752
 20
2.697877709187581
 30
0.0
 11
-4.482502609192856
 21
2.574595593205065
 31
0.0
  0
LINE
  5
7C
  8
0
 62
     0
 10
-4.482502609192856
 20
2.574595593205065
 30
0.0
 11
-5.10322817975913
 21
2.32803136124003
 31
0.0
  0
LINE
  5
7D
  8
0
 62
     0
 10
-5.10322817975913
 20
2.32803136124003
 30
0.0
 11
-5.793091476477908
 21
2.082007840310008
 31
0.0
  0
LINE
  5
7E
  8
0
 62
     0
 10
-5.793091476477908
 20
2.082007840310008
 30
0.0
 11
-5.954076400876804
 21
1.687829495786959
 31
0.0
  0
LINE
  5
7F
  8
0
 62
     0
 10
-5.954076400876804
 20
1.687829495786959
 30
0.0
 11
-5.67803015120221
 21
1.465597260397422
 31
0.0
  0
LINE
  5
80
  8
0
 62
     0
 10
-5.67803015120221
 20
1.465597260397422
 30
0.0
 11
-4.873105529207731
 21
1.638084080565944
 31
0.0
  0
LINE
  5
81
  8
0
 62
     0
 10
-4.873105529207731
 20
1.638084080565944
 30
0.0
 11
-4.597563934468556
 21
1.317983147839408
 31
0.0
  0
LINE
  5
82
  8
0
 62
     0
 10
-4.597563934468556
 20
1.317983147839408
 30
0.0
 11
-4.022257308090058
 21
0.800522687333844
 31
0.0
  0
LINE
  5
83
  8
0
 62
     0
 10
-4.022257308090058
 20
0.800522687333844
 30
0.0
 11
-2.78030151202209
 21
0.7756499797233358
 31
0.0
  0
LINE
  5
84
  8
0
 62
     0
 10
-2.78030151202209
 20
0.7756499797233358
 30
0.0
 11
-3.079561888725993
 21
0.2581895192177708
 31
0.0
  0
LINE
  5
85
  8
0
 62
     0
 10
-3.079561888725993
 20
0.2581895192177708
 30
0.0
 11
-5.241503632064139
 21
-0.01270670932276
 31
0.0
  0
LINE
  5
86
  8
0
 62
     0
 10
-5.241503632064139
 20
-0.01270670932276
 30
0.0
 11
-5.632106552079013
 21
-0.5301671698283243
 31
0.0
  0
LINE
  5
87
  8
0
 62
     0
 10
-5.632106552079013
 20
-0.5301671698283243
 30
0.0
 11
-5.908152801753609
 21
-1.096832334519894
 31
0.0
  0
LINE
  5
88
  8
0
 62
     0
 10
-5.908152801753609
 20
-1.096832334519894
 30
0.0
 11
-5.10322817975913
 21
-1.293651151263913
 31
0.0
  0
LINE
  5
89
  8
0
 62
     0
 10
-5.10322817975913
 20
-1.293651151263913
 30
0.0
 11
-5.264213104158026
 21
-1.638624791600956
 31
0.0
  0
LINE
  5
8A
  8
0
 62
     0
 10
-5.264213104158026
 20
-1.638624791600956
 30
0.0
 11
-5.494335754709425
 21
-2.205830667327536
 31
0.0
  0
LINE
  5
8B
  8
0
 62
     0
 10
-5.494335754709425
 20
-2.205830667327536
 30
0.0
 11
-4.482502609192856
 21
-3.486775109268689
 31
0.0
  0
LINE
  5
8C
  8
0
 62
     0
 10
-4.482502609192856
 20
-3.486775109268689
 30
0.0
 11
-4.298303557764653
 21
-3.462443112693192
 31
0.0
  0
LINE
  5
8D
  8
0
 62
     0
 10
-4.298303557764653
 20
-3.462443112693192
 30
0.0
 11
-3.309684539277392
 21
-3.265083584914162
 31
0.0
  0
LINE
  5
8E
  8
0
 62
     0
 10
-3.309684539277392
 20
-3.265083584914162
 30
0.0
 11
-2.964500563450294
 21
-3.955030865588249
 31
0.0
  0
LINE
  5
8F
  8
0
 62
     0
 10
-2.964500563450294
 20
-3.955030865588249
 30
0.0
 11
-3.378317610494476
 21
-4.644978146262336
 31
0.0
  0
LINE
  5
90
  8
0
 62
     0
 10
-3.378317610494476
 20
-4.644978146262336
 30
0.0
 11
-2.619316587623194
 21
-5.679899067273465
 31
0.0
  0
LINE
  5
91
  8
0
 62
     0
 10
-2.619316587623194
 20
-5.679899067273465
 30
0.0
 11
-1.423789045613842
 21
-5.950795295813995
 31
0.0
  0
LINE
  5
92
  8
0
 62
     0
 10
-1.423789045613842
 20
-5.950795295813995
 30
0.0
 11
-1.492422116830926
 21
-5.729103771459469
 31
0.0
  0
LINE
  5
93
  8
0
 62
     0
 10
-1.492422116830926
 20
-5.729103771459469
 30
0.0
 11
-1.975376890027613
 21
-5.260848015139909
 31
0.0
  0
LINE
  5
94
  8
0
 62
     0
 10
-1.975376890027613
 20
-5.260848015139909
 30
0.0
 11
-1.492422116830926
 21
-5.334925426936421
 31
0.0
  0
LINE
  5
95
  8
0
 62
     0
 10
-1.492422116830926
 20
-5.334925426936421
 30
0.0
 11
-1.308727720338143
 21
-5.82805389086649
 31
0.0
  0
LINE
  5
96
  8
0
 62
     0
 10
-1.308727720338143
 20
-5.82805389086649
 30
0.0
 11
-1.032681470663548
 21
-6.0
 31
0.0
  0
LINE
  5
97
  8
0
 62
     0
 10
-1.032681470663548
 20
-6.0
 30
0.0
 11
-0.6647880227425602
 21
-5.950795295813995
 31
0.0
  0
LINE
  5
98
  8
0
 62
     0
 10
-0.6647880227425602
 20
-5.950795295813995
 30
0.0
 11
-0.756635220988952
 21
-5.409002838732934
 31
0.0
  0
LINE
  5
99
  8
0
 62
     0
 10
-0.756635220988952
 20
-5.409002838732934
 30
0.0
 11
-0.9176201453878481
 21
-4.965619790023881
 31
0.0
  0
LINE
  5
9A
  8
0
 62
     0
 10
-0.9176201453878481
 20
-4.965619790023881
 30
0.0
 11
-0.3428181739447693
 21
-4.349209210111297
 31
0.0
  0
LINE
  5
9B
  8
0
 62
     0
 10
-0.3428181739447693
 20
-4.349209210111297
 30
0.0
 11
-0.1126955233933702
 21
-3.634929932861713
 31
0.0
  0
LINE
  5
9C
  8
0
 62
     0
 10
-0.1126955233933702
 20
-3.634929932861713
 30
0.0
 11
0.2092743254044214
 21
-3.09259676474564
 31
0.0
  0
LINE
  5
9D
  8
0
 62
     0
 10
0.0023658018823287
 20
0.6772405713513265
 30
0.0
 11
-0.3887417730679652
 21
0.5788311629793172
 31
0.0
  0
LINE
  5
9E
  8
0
 62
     0
 10
-0.3887417730679652
 20
0.5788311629793172
 30
0.0
 11
-0.2968945748215734
 21
-0.1359888253052768
 31
0.0
  0
LINE
  5
9F
  8
0
 62
     0
 10
-0.2968945748215734
 20
-0.1359888253052768
 30
0.0
 11
-1.216880522091751
 21
-0.2587302302527825
 31
0.0
  0
LINE
  5
A0
  8
0
 62
     0
 10
-1.216880522091751
 20
-0.2587302302527825
 30
0.0
 11
-1.032681470663548
 21
-1.047627630333889
 31
0.0
  0
LINE
  5
A1
  8
0
 62
     0
 10
-1.032681470663548
 20
-1.047627630333889
 30
0.0
 11
-0.3887417730679652
 21
-1.220114450502411
 31
0.0
  0
LINE
  5
A2
  8
0
 62
     0
 10
-0.3887417730679652
 20
-1.220114450502411
 30
0.0
 11
0.0250752739762174
 21
-1.392601270670932
 31
0.0
  0
LINE
  5
A3
  8
0
 62
     0
 10
0.0250752739762174
 20
-1.392601270670932
 30
0.0
 11
0.7613668247536114
 21
-1.712702203397468
 31
0.0
  0
LINE
  5
A4
  8
0
 62
     0
 10
0.7613668247536114
 20
-1.712702203397468
 30
0.0
 11
1.405306522349193
 21
-1.441805974856937
 31
0.0
  0
LINE
  5
A5
  8
0
 62
     0
 10
1.405306522349193
 20
-1.441805974856937
 30
0.0
 11
1.060122546522094
 21
-1.12116433109539
 31
0.0
  0
LINE
  5
A6
  8
0
 62
     0
 10
1.060122546522094
 20
-1.12116433109539
 30
0.0
 11
1.451230121472388
 21
-0.8994728067408644
 31
0.0
  0
LINE
  5
A7
  8
0
 62
     0
 10
1.451230121472388
 20
-0.8994728067408644
 30
0.0
 11
1.014198947398898
 21
-0.3820123462353
 31
0.0
  0
LINE
  5
A8
  8
0
 62
     0
 10
1.014198947398898
 20
-0.3820123462353
 30
0.0
 11
0.8991376221231984
 21
-0.01270670932276
 31
0.0
  0
LINE
  5
A9
  8
0
 62
     0
 10
0.8991376221231984
 20
-0.01270670932276
 30
0.0
 11
1.54307731971878
 21
0.2089848150317661
 31
0.0
  0
LINE
  5
AA
  8
0
 62
     0
 10
1.54307731971878
 20
0.2089848150317661
 30
0.0
 11
1.819123569393376
 21
0.8253953949443509
 31
0.0
  0
LINE
  5
AB
  8
0
 62
     0
 10
1.819123569393376
 20
0.8253953949443509
 30
0.0
 11
1.428015994443081
 21
1.2195737394674
 31
0.0
  0
LINE
  5
AC
  8
0
 62
     0
 10
1.428015994443081
 20
1.2195737394674
 30
0.0
 11
0.6690149715717992
 21
0.800522687333844
 31
0.0
  0
LINE
  5
AD
  8
0
 62
     0
 10
0.6690149715717992
 20
0.800522687333844
 30
0.0
 11
0.0023658018823287
 21
0.6772405713513265
 31
0.0
  0
ENDSEC
  0
EOF
