  0
SECTION
  2
HEADER
  9
$ACADVER
  1
AC1009
  9
$DWGCODEPAGE
  3
ansi_1252
  9
$INSBASE
 10
32.82184961155698
 20
16.27518900838743
 30
0.0
  9
$EXTMIN
 10
31.72840975388647
 20
15.17537616225086
 30
0.0
  9
$EXTMAX
 10
34.04648228221726
 20
17.40956340737645
 30
0.0
  9
$LIMMIN
 10
-0.0070710678118655
 20
-0.0070710678118655
  9
$LIMMAX
 10
84.78574829325055
 20
59.40707106781186
  9
$ORTHOMODE
 70
     0
  9
$REGENMODE
 70
     1
  9
$FILLMODE
 70
     1
  9
$QTEXTMODE
 70
     0
  9
$MIRRTEXT
 70
     1
  9
$DRAGMODE
 70
     2
  9
$LTSCALE
 40
1.0
  9
$OSMODE
 70
    37
  9
$ATTMODE
 70
     1
  9
$TEXTSIZE
 40
0.3
  9
$TRACEWID
 40
0.05
  9
$TEXTSTYLE
  7
STANDARD
  9
$CLAYER
  8
0
  9
$CELTYPE
  6
BYLAYER
  9
$CECOLOR
 62
   256
  9
$DIMSCALE
 40
1.0
  9
$DIMASZ
 40
0.1000000014901161
  9
$DIMEXO
 40
0.0625
  9
$DIMDLI
 40
0.38
  9
$DIMRND
 40
0.0
  9
$DIMDLE
 40
0.1000000014901161
  9
$DIMEXE
 40
0.1000000014901161
  9
$DIMTP
 40
0.0
  9
$DIMTM
 40
0.0
  9
$DIMTXT
 40
0.2000000029802322
  9
$DIMCEN
 40
0.09
  9
$DIMTSZ
 40
0.0
  9
$DIMTOL
 70
     0
  9
$DIMLIM
 70
     0
  9
$DIMTIH
 70
     0
  9
$DIMTOH
 70
     1
  9
$DIMSE1
 70
     0
  9
$DIMSE2
 70
     0
  9
$DIMTAD
 70
     0
  9
$DIMZIN
 70
     0
  9
$DIMBLK
  1

  9
$DIMASO
 70
     1
  9
$DIMSHO
 70
     1
  9
$DIMPOST
  1

  9
$DIMAPOST
  1

  9
$DIMALT
 70
     0
  9
$DIMALTD
 70
     2
  9
$DIMALTF
 40
25.39999999999999
  9
$DIMLFAC
 40
1.0
  9
$DIMTOFL
 70
     0
  9
$DIMTVP
 40
0.0
  9
$DIMTIX
 70
     1
  9
$DIMSOXD
 70
     0
  9
$DIMSAH
 70
     0
  9
$DIMBLK1
  1

  9
$DIMBLK2
  1

  9
$DIMSTYLE
  2
STANDARD
  9
$DIMCLRD
 70
     0
  9
$DIMCLRE
 70
     0
  9
$DIMCLRT
 70
     0
  9
$DIMTFAC
 40
1.0
  9
$DIMGAP
 40
0.09
  9
$LUNITS
 70
     2
  9
$LUPREC
 70
     2
  9
$SKETCHINC
 40
0.1
  9
$FILLETRAD
 40
0.0
  9
$AUNITS
 70
     0
  9
$AUPREC
 70
     4
  9
$MENU
  1
ART90A20
  9
$ELEVATION
 40
0.0
  9
$PELEVATION
 40
0.0
  9
$THICKNESS
 40
0.0
  9
$LIMCHECK
 70
     0
  9
$CHAMFERA
 40
0.05
  9
$CHAMFERB
 40
0.1
  9
$SKPOLY
 70
     0
  9
$TDCREATE
 40
2449479.659021296
  9
$TDUPDATE
 40
2457464.593171296
  9
$TDINDWG
 40
0.0118043634
  9
$TDUSRTIMER
 40
0.0118043634
  9
$USRTIMER
 70
     1
  9
$ANGBASE
 50
0.0
  9
$ANGDIR
 70
     0
  9
$PDMODE
 70
     4
  9
$PDSIZE
 40
0.2000000029802322
  9
$PLINEWID
 40
0.0
  9
$COORDS
 70
     1
  9
$SPLFRAME
 70
     0
  9
$SPLINETYPE
 70
     6
  9
$SPLINESEGS
 70
     8
  9
$ATTDIA
 70
     0
  9
$ATTREQ
 70
     1
  9
$HANDLING
 70
     1
  9
$HANDSEED
  5
C1108C
  9
$SURFTAB1
 70
    12
  9
$SURFTAB2
 70
     6
  9
$SURFTYPE
 70
     6
  9
$SURFU
 70
     6
  9
$SURFV
 70
     6
  9
$UCSNAME
  2

  9
$UCSORG
 10
0.0
 20
0.0
 30
0.0
  9
$UCSXDIR
 10
1.0
 20
0.0
 30
0.0
  9
$UCSYDIR
 10
0.0
 20
1.0
 30
0.0
  9
$PUCSNAME
  2

  9
$PUCSORG
 10
0.0
 20
0.0
 30
0.0
  9
$PUCSXDIR
 10
1.0
 20
0.0
 30
0.0
  9
$PUCSYDIR
 10
0.0
 20
1.0
 30
0.0
  9
$USERI1
 70
     3
  9
$USERI2
 70
     0
  9
$USERI3
 70
     0
  9
$USERI4
 70
     0
  9
$USERI5
 70
     0
  9
$USERR1
 40
1.0
  9
$USERR2
 40
0.0
  9
$USERR3
 40
42.0
  9
$USERR4
 40
29.7
  9
$USERR5
 40
0.0
  9
$WORLDVIEW
 70
     1
  9
$SHADEDGE
 70
     1
  9
$SHADEDIF
 70
    70
  9
$TILEMODE
 70
     1
  9
$MAXACTVP
 70
    16
  9
$PLIMCHECK
 70
     0
  9
$PEXTMIN
 10
1.000000000000000E+20
 20
1.000000000000000E+20
 30
1.000000000000000E+20
  9
$PEXTMAX
 10
-1.000000000000000E+20
 20
-1.000000000000000E+20
 30
-1.000000000000000E+20
  9
$PLIMMIN
 10
0.0
 20
0.0
  9
$PLIMMAX
 10
12.0
 20
9.0
  9
$UNITMODE
 70
     0
  9
$VISRETAIN
 70
     0
  9
$PLINEGEN
 70
     0
  9
$PSLTSCALE
 70
     0
  0
ENDSEC
  0
SECTION
  2
TABLES
  0
TABLE
  2
VPORT
 70
     1
  0
VPORT
  2
*ACTIVE
 70
     0
 10
0.0
 20
0.0
 11
1.0
 21
1.0
 12
32.87641148656526
 22
16.54309036433462
 13
0.0
 23
0.0
 14
1.0
 24
1.0
 15
1.0
 25
1.0
 16
0.0
 26
0.0
 36
1.0
 17
0.0
 27
0.0
 37
0.0
 40
2.794935814871794
 41
1.503537735849057
 42
50.0
 43
0.0
 44
0.0
 50
0.0
 51
0.0
 71
     0
 72
   500
 73
     1
 74
     1
 75
     0
 76
     0
 77
     0
 78
     0
  0
ENDTAB
  0
TABLE
  2
LTYPE
 70
     1
  0
LTYPE
  2
CONTINUOUS
 70
     0
  3
Solid line
 72
    65
 73
     0
 40
0.0
  0
ENDTAB
  0
TABLE
  2
LAYER
 70
     1
  0
LAYER
  2
0
 70
     0
 62
     7
  6
CONTINUOUS
  0
ENDTAB
  0
TABLE
  2
STYLE
 70
     1
  0
STYLE
  2
STANDARD
 70
     0
 40
0.0
 41
1.0
 50
0.0
 71
     0
 42
0.3
  3
txt8
  4

  0
ENDTAB
  0
TABLE
  2
VIEW
 70
     0
  0
ENDTAB
  0
TABLE
  2
UCS
 70
     0
  0
ENDTAB
  0
TABLE
  2
APPID
 70
     2
  0
APPID
  2
ACAD
 70
     0
  0
APPID
  2
DCO15
 70
     0
  0
ENDTAB
  0
TABLE
  2
DIMSTYLE
 70
     1
  0
DIMSTYLE
  2
STANDARD
 70
     0
  3

  4

  5

  6

  7

 40
1.0
 41
0.18
 42
0.0625
 43
0.38
 44
0.18
 45
0.0
 46
0.0
 47
0.0
 48
0.0
140
0.18
141
0.09
142
0.0
143
25.4
144
1.0
145
0.0
146
1.0
147
0.09
 71
     0
 72
     0
 73
     1
 74
     1
 75
     0
 76
     0
 77
     0
 78
     0
170
     0
171
     2
172
     0
173
     0
174
     0
175
     0
176
     0
177
     0
178
     0
  0
ENDTAB
  0
ENDSEC
  0
SECTION
  2
BLOCKS
  0
BLOCK
  8
0
  2
$MODEL_SPACE
 70
     0
 10
0.0
 20
0.0
 30
0.0
  3
$MODEL_SPACE
  1

  0
ENDBLK
  5
C10FFE
  8
0
  0
BLOCK
 67
     1
  8
0
  2
$PAPER_SPACE
 70
     0
 10
0.0
 20
0.0
 30
0.0
  3
$PAPER_SPACE
  1

  0
ENDBLK
  5
C10FFC
 67
     1
  8
0
  0
BLOCK
  8
0
  2
L
 70
     0
 10
0.0
 20
0.0
 30
0.0
  3
L
  1

  0
LINE
  5
C0F161
  8
0
 10
-0.0274275239095232
 20
-0.0085144270001507
 30
0.0
 11
-0.0648922146534687
 21
-0.0501146557345322
 31
0.0
  0
ARC
  5
C0F162
  8
0
 10
-0.0842988954422594
 20
-0.0237487992092937
 30
0.0
 40
0.0624281098584448
 50
246.9415402977124
 51
13.51472656745948
  0
ARC
  5
C0F163
  8
0
 10
-0.0459951971106989
 20
-0.0695744459241716
 30
0.0
 40
0.0638207207661125
 50
73.08606629328266
 51
190.4857665857112
  0
LINE
  5
C0F164
  8
0
 10
0.0185385604870589
 20
-0.0382219237488464
 30
0.0
 11
-0.0046342006110649
 21
-0.0891847065062699
 31
0.0
  0
LINE
  5
C0F165
  8
0
 10
-0.0046342006110649
 20
-0.0891847065062699
 30
0.0
 11
-0.0196971106398678
 21
-0.107716865064198
 31
0.0
  0
ARC
  5
C0F166
  8
0
 10
-0.0310894230890995
 20
-0.0699000272715047
 30
0.0
 40
0.0624281098584448
 50
264.4961009703122
 51
31.0692872400592
  0
ARC
  5
C0F167
  8
0
 10
0.0192521282781399
 20
-0.1020386552548835
 30
0.0
 40
0.0638207207661125
 50
90.64062696588239
 51
208.0403272583109
  0
LINE
  5
C0F168
  8
0
 10
-0.0745551853075881
 20
0.0235391202869124
 30
0.0
 11
-0.0980053148256843
 21
0.0280583663453768
 31
0.0
  0
LINE
  5
C0F169
  8
0
 10
-0.0186909475546599
 20
0.0271954878245282
 30
0.0
 11
-0.0745551853075881
 21
0.0235391202869124
 31
0.0
  0
ARC
  5
C0F16A
  8
0
 10
-0.0745978054418401
 20
-0.0035861242237125
 30
0.0
 40
0.0638207207661125
 50
28.83662693103001
 51
146.2363272234585
  0
ARC
  5
C0F16B
  8
0
 10
-0.0700587026277617
 20
0.0559668752671456
 30
0.0
 40
0.0624281098584448
 50
202.6921009354598
 51
329.2652872052068
  0
ENDBLK
  5
C0F16C
  8
0
  0
ENDSEC
  0
SECTION
  2
ENTITIES
  0
INSERT
  5
C0F16E
  8
0
  2
L
 10
33.23170696417982
 20
15.71051360677465
 30
0.0
 41
1.911819203355955
 42
1.911819203355955
 43
1.911819203355955
 50
189.7583144126277
  0
INSERT
  5
C0F16F
  8
0
  2
L
 10
33.4296905076301
 20
15.67035263013365
 30
0.0
 41
1.759172311867475
 42
1.759172311867475
 43
1.759172311867475
 50
108.6278826430899
  0
LINE
  5
C0F11A
  8
0
 10
32.64693587478035
 20
15.82214799039208
 30
0.0
 11
32.68937826154448
 21
15.73094858998022
 31
0.0
  0
INSERT
  5
C0F11F
  8
0
  2
L
 10
32.15711974872672
 20
15.729886541142
 30
0.0
 41
1.84839113547052
 42
1.84839113547052
 43
1.84839113547052
  0
INSERT
  5
C0F11B
  8
0
  2
L
 10
32.56718149965221
 20
15.94170665641145
 30
0.0
 41
1.84839113547052
 42
1.84839113547052
 43
1.84839113547052
  0
INSERT
  5
C0F11C
  8
0
  2
L
 10
32.32278797586766
 20
15.99867504899748
 30
0.0
 41
1.84839113547052
 42
1.84839113547052
 43
1.84839113547052
  0
INSERT
  5
C0F121
  8
0
  2
L
 10
32.42901054274155
 20
15.65136774331947
 30
0.0
 41
1.84839113547052
 42
1.84839113547052
 43
1.84839113547052
  0
INSERT
  5
C0F127
  8
0
  2
L
 10
32.5619345012885
 20
15.42361910366083
 30
0.0
 41
1.84839113547052
 42
1.84839113547052
 43
1.84839113547052
 50
66.16076666471405
  0
INSERT
  5
C0F16D
  8
0
  2
L
 10
32.27128734028587
 20
15.44905970572976
 30
0.0
 41
1.770987118748698
 42
1.620547944716342
 43
1.770987118748698
 50
28.43123597543072
  0
INSERT
  5
C0F125
  8
0
  2
L
 10
33.14108652067675
 20
15.66273643569958
 30
0.0
 41
1.84839113547052
 42
1.84839113547052
 43
1.84839113547052
 50
66.16076666471405
  0
INSERT
  5
C0F126
  8
0
  2
L
 10
33.21023029911393
 20
15.46921880386676
 30
0.0
 41
1.84839113547052
 42
1.84839113547052
 43
1.84839113547052
 50
66.16076666471405
  0
INSERT
  5
C0F123
  8
0
  2
L
 10
32.77449623499992
 20
15.72532670913292
 30
0.0
 41
1.84839113547052
 42
1.84839113547052
 43
1.84839113547052
 50
66.16076666471405
  0
INSERT
  5
C0F124
  8
0
  2
L
 10
32.82766581841872
 20
15.54892458121301
 30
0.0
 41
1.84839113547052
 42
1.84839113547052
 43
1.84839113547052
 50
66.16076666471405
  0
LINE
  5
C0F10E
  8
0
 10
32.62035108307101
 20
16.48253159392227
 30
0.0
 11
32.35461976594068
 21
16.5166376710626
 31
0.0
  0
LINE
  5
C0F112
  8
0
 10
32.61498748474361
 20
16.40844769742333
 30
0.0
 11
32.35461976594068
 21
16.45404739762925
 31
0.0
  0
INSERT
  5
C0F129
  8
0
  2
L
 10
32.62571468139829
 20
16.6874179181352
 30
0.0
 41
1.84839113547052
 42
1.84839113547052
 43
1.84839113547052
 50
295.0165150851705
  0
INSERT
  5
C0F12A
  8
0
  2
L
 10
32.68413126318079
 20
16.96076625799977
 30
0.0
 41
1.84839113547052
 42
1.84839113547052
 43
1.84839113547052
 50
295.0165150851705
  0
INSERT
  5
C0F12B
  8
0
  2
L
 10
32.54071330790646
 20
17.03472522381321
 30
0.0
 41
1.84839113547052
 42
1.84839113547052
 43
1.84839113547052
 50
295.0165150851705
  0
INSERT
  5
C0F12C
  8
0
  2
L
 10
32.4025423509958
 20
17.14866200898528
 30
0.0
 41
1.84839113547052
 42
1.84839113547052
 43
1.84839113547052
 50
295.0165150851705
  0
INSERT
  5
C0F12D
  8
0
  2
L
 10
32.27498199077624
 20
16.8525762843605
 30
0.0
 41
1.84839113547052
 42
1.84839113547052
 43
1.84839113547052
 50
295.0165150851705
  0
INSERT
  5
C0F130
  8
0
  2
L
 10
32.04656266201006
 20
16.80710151484007
 30
0.0
 41
1.84839113547052
 42
1.84839113547052
 43
1.84839113547052
 50
347.8021081598379
  0
LINE
  5
C0F10F
  8
0
 10
32.35461976594068
 20
16.5166376710626
 30
0.0
 11
32.25900779575787
 21
16.57360606364863
 31
0.0
  0
LINE
  5
C0F113
  8
0
 10
32.35461976594068
 20
16.45404739762925
 30
0.0
 11
32.25376079739418
 21
16.5223844825954
 31
0.0
  0
INSERT
  5
C0F128
  8
0
  2
L
 10
32.32278797586766
 20
16.55086867888841
 30
0.0
 41
1.84839113547052
 42
1.84839113547052
 43
1.84839113547052
 50
295.0165150851705
  0
INSERT
  5
C0F12E
  8
0
  2
L
 10
32.15278522888396
 20
16.5223844825954
 30
0.0
 41
1.84839113547052
 42
1.84839113547052
 43
1.84839113547052
 50
347.8021081598379
  0
INSERT
  5
C0F12F
  8
0
  2
L
 10
31.96156128851823
 20
16.49390028630238
 30
0.0
 41
1.84839113547052
 42
1.84839113547052
 43
1.84839113547052
 50
347.8021081598379
  0
INSERT
  5
C0F11E
  8
0
  2
L
 10
32.0512907316932
 20
16.09421625892365
 30
0.0
 41
1.84839113547052
 42
1.84839113547052
 43
1.84839113547052
  0
INSERT
  5
C0F131
  8
0
  2
L
 10
33.24730908755065
 20
16.74438631072124
 30
0.0
 41
1.84839113547052
 42
1.84839113547052
 43
1.84839113547052
 50
190.1248425347958
  0
INSERT
  5
C0F139
  8
0
  2
L
 10
33.05072154885761
 20
16.8468294728277
 30
0.0
 41
1.84839113547052
 42
1.84839113547052
 43
1.84839113547052
 50
190.1248425347958
  0
INSERT
  5
C0F133
  8
0
  2
L
 10
33.63523716657313
 20
16.72727080680833
 30
0.0
 41
1.84839113547052
 42
1.84839113547052
 43
1.84839113547052
 50
190.1248425347958
  0
INSERT
  5
C0F134
  8
0
  2
L
 10
33.57145698646335
 20
16.96638813884707
 30
0.0
 41
1.84839113547052
 42
1.84839113547052
 43
1.84839113547052
 50
190.1248425347958
  0
LINE
  5
C0F10B
  8
0
 10
33.22084089580491
 20
16.67604922575509
 30
0.0
 11
33.31108926766044
 21
16.70453342204812
 31
0.0
  0
INSERT
  5
C0F136
  8
0
  2
L
 10
33.30047867096945
 20
16.43693189371636
 30
0.0
 41
1.84839113547052
 42
1.84839113547052
 43
1.84839113547052
 50
190.1248425347958
  0
INSERT
  5
C0F13D
  8
0
  2
L
 10
33.32169986435152
 20
16.08962458803834
 30
0.0
 41
1.84839113547052
 42
1.84839113547052
 43
1.84839113547052
 50
190.1248425347958
  0
LINE
  5
C0F104
  8
0
 10
33.08266993889426
 20
16.59634344840885
 30
0.0
 11
33.13047592398577
 21
16.67042734490779
 31
0.0
  0
LINE
  5
C0F105
  8
0
 10
33.13047592398577
 20
16.67042734490779
 30
0.0
 11
33.18364550740446
 21
16.70453342204812
 31
0.0
  0
LINE
  5
C0F106
  8
0
 10
33.18364550740446
 20
16.70453342204812
 30
0.0
 11
33.20486670078654
 21
16.76712369548145
 31
0.0
  0
LINE
  5
C0F102
  8
0
 10
32.85413401016447
 20
16.31175134684967
 30
0.0
 11
33.02950035547555
 21
16.47116290154217
 31
0.0
  0
LINE
  5
C0F107
  8
0
 10
32.90730359358328
 20
16.23766745035073
 30
0.0
 11
33.0082791620935
 21
16.35160423552279
 31
0.0
  0
LINE
  5
C0F108
  8
0
 10
33.0082791620935
 20
16.35160423552279
 30
0.0
 11
33.09328053558534
 21
16.44267870524915
 31
0.0
  0
LINE
  5
C0F109
  8
0
 10
33.09328053558534
 20
16.44267870524915
 30
0.0
 11
33.14108652067675
 21
16.57922794449594
 31
0.0
  0
LINE
  5
C0F10C
  8
0
 10
32.85413401016447
 20
16.31175134684967
 30
0.0
 11
32.79571742838198
 21
16.38571031266311
 31
0.0
  0
LINE
  5
C0F117
  8
0
 10
32.90730359358328
 20
16.23766745035073
 30
0.0
 11
32.80632802507306
 21
16.03840300698511
 31
0.0
  0
LINE
  5
C0F103
  8
0
 10
33.02950035547555
 20
16.47116290154217
 30
0.0
 11
33.08266993889426
 21
16.59634344840885
 31
0.0
  0
LINE
  5
C0F10A
  8
0
 10
33.14108652067675
 20
16.57922794449594
 30
0.0
 11
33.22084089580491
 21
16.67604922575509
 31
0.0
  0
LINE
  5
C0F111
  8
0
 10
32.75852203998156
 20
16.33448873160989
 30
0.0
 11
32.61498748474361
 21
16.40844769742333
 31
0.0
  0
LINE
  5
C0F115
  8
0
 10
32.74791144329058
 20
16.08962458803834
 30
0.0
 11
32.65754647147133
 21
16.03278112613781
 31
0.0
  0
LINE
  5
C0F119
  8
0
 10
32.71596305325383
 20
15.99855011831199
 30
0.0
 11
32.64693587478035
 21
15.82214799039208
 31
0.0
  0
LINE
  5
C0F116
  8
0
 10
32.65754647147133
 20
16.03278112613781
 30
0.0
 11
32.58315569467057
 21
15.85050725599959
 31
0.0
  0
LINE
  5
C0F10D
  8
0
 10
32.79571742838198
 20
16.38571031266311
 30
0.0
 11
32.62035108307101
 21
16.48253159392227
 31
0.0
  0
LINE
  5
C0F110
  8
0
 10
32.79571742838198
 20
16.24903614273084
 30
0.0
 11
32.75852203998156
 21
16.33448873160989
 31
0.0
  0
LINE
  5
C0F114
  8
0
 10
32.79571742838198
 20
16.24903614273084
 30
0.0
 11
32.74791144329058
 21
16.08962458803834
 31
0.0
  0
LINE
  5
C0F118
  8
0
 10
32.80632802507306
 20
16.03840300698511
 30
0.0
 11
32.71596305325383
 21
15.99855011831199
 31
0.0
  0
INSERT
  5
C0F13C
  8
0
  2
L
 10
33.79462931686584
 20
16.3401106124572
 30
0.0
 41
1.84839113547052
 42
1.84839113547052
 43
1.84839113547052
 50
190.1248425347958
  0
INSERT
  5
C0F132
  8
0
  2
L
 10
33.51828740304455
 20
16.61345895232176
 30
0.0
 41
1.84839113547052
 42
1.84839113547052
 43
1.84839113547052
 50
190.1248425347958
  0
INSERT
  5
C0F137
  8
0
  2
L
 10
33.59267817984542
 20
16.29463584293676
 30
0.0
 41
1.84839113547052
 42
1.84839113547052
 43
1.84839113547052
 50
190.1248425347958
  0
INSERT
  5
C0F13A
  8
0
  2
L
 10
33.56609338813607
 20
16.07825589565824
 30
0.0
 41
1.84839113547052
 42
1.84839113547052
 43
1.84839113547052
 50
190.1248425347958
  0
INSERT
  5
C0F135
  8
0
  2
L
 10
33.35353165442454
 20
17.08594680486645
 30
0.0
 41
1.84839113547052
 42
1.84839113547052
 43
1.84839113547052
 50
190.1248425347958
  0
INSERT
  5
C0F138
  8
0
  2
L
 10
33.18889250576817
 20
17.12017781269226
 30
0.0
 41
1.84839113547052
 42
1.84839113547052
 43
1.84839113547052
 50
190.1248425347958
  0
INSERT
  5
C0F13B
  8
0
  2
L
 10
32.93913538365632
 20
17.14853707829979
 30
0.0
 41
1.84839113547052
 42
1.84839113547052
 43
1.84839113547052
 50
190.1248425347958
  0
ENDSEC
  0
EOF
