  0
SECTION
  2
HEADER
  9
$ACADVER
  1
AC1009
  9
$DWGCODEPAGE
  3
ansi_1252
  9
$INSBASE
 10
372.3058953888215
 20
85.88902108566549
 30
0.0
  9
$EXTMIN
 10
371.7071308594394
 20
85.30262983516414
 30
0.0
  9
$EXTMAX
 10
372.9071243344944
 20
86.49333309141248
 30
0.0
  9
$LIMMIN
 10
260.9765480859805
 20
-17.8231871367001
  9
$LIMMAX
 10
331.9963493331041
 20
29.49370838591866
  9
$ORTHOMODE
 70
     0
  9
$REGENMODE
 70
     1
  9
$FILLMODE
 70
     1
  9
$QTEXTMODE
 70
     0
  9
$MIRRTEXT
 70
     1
  9
$DRAGMODE
 70
     2
  9
$LTSCALE
 40
0.5
  9
$OSMODE
 70
    37
  9
$ATTMODE
 70
     1
  9
$TEXTSIZE
 40
0.25
  9
$TRACEWID
 40
0.05
  9
$TEXTSTYLE
  7
CITYBLUEPRINT
  9
$CLAYER
  8
0
  9
$CELTYPE
  6
BYLAYER
  9
$CECOLOR
 62
   256
  9
$DIMSCALE
 40
1.0
  9
$DIMASZ
 40
3.0
  9
$DIMEXO
 40
2.5
  9
$DIMDLI
 40
10.0
  9
$DIMRND
 40
0.0
  9
$DIMDLE
 40
1.25
  9
$DIMEXE
 40
2.5
  9
$DIMTP
 40
0.0
  9
$DIMTM
 40
0.0
  9
$DIMTXT
 40
3.0
  9
$DIMCEN
 40
-3.0
  9
$DIMTSZ
 40
0.0
  9
$DIMTOL
 70
     0
  9
$DIMLIM
 70
     0
  9
$DIMTIH
 70
     0
  9
$DIMTOH
 70
     0
  9
$DIMSE1
 70
     0
  9
$DIMSE2
 70
     0
  9
$DIMTAD
 70
     0
  9
$DIMZIN
 70
     0
  9
$DIMBLK
  1

  9
$DIMASO
 70
     1
  9
$DIMSHO
 70
     0
  9
$DIMPOST
  1

  9
$DIMAPOST
  1

  9
$DIMALT
 70
     0
  9
$DIMALTD
 70
     2
  9
$DIMALTF
 40
0.039
  9
$DIMLFAC
 40
1.0
  9
$DIMTOFL
 70
     0
  9
$DIMTVP
 40
1.5
  9
$DIMTIX
 70
     0
  9
$DIMSOXD
 70
     0
  9
$DIMSAH
 70
     0
  9
$DIMBLK1
  1

  9
$DIMBLK2
  1

  9
$DIMSTYLE
  2
STANDARD
  9
$DIMCLRD
 70
     0
  9
$DIMCLRE
 70
     0
  9
$DIMCLRT
 70
     0
  9
$DIMTFAC
 40
0.75
  9
$DIMGAP
 40
1.5
  9
$LUNITS
 70
     2
  9
$LUPREC
 70
     3
  9
$SKETCHINC
 40
0.718912579955703
  9
$FILLETRAD
 40
0.0
  9
$AUNITS
 70
     0
  9
$AUPREC
 70
     4
  9
$MENU
  1
acad
  9
$ELEVATION
 40
0.0
  9
$PELEVATION
 40
0.0
  9
$THICKNESS
 40
0.0
  9
$LIMCHECK
 70
     0
  9
$CHAMFERA
 40
0.5
  9
$CHAMFERB
 40
0.5
  9
$SKPOLY
 70
     0
  9
$TDCREATE
 40
2449868.591385417
  9
$TDUPDATE
 40
2457464.593240741
  9
$TDINDWG
 40
3.3472210764
  9
$TDUSRTIMER
 40
3.3472210764
  9
$USRTIMER
 70
     1
  9
$ANGBASE
 50
0.0
  9
$ANGDIR
 70
     0
  9
$PDMODE
 70
     3
  9
$PDSIZE
 40
0.0
  9
$PLINEWID
 40
0.0
  9
$COORDS
 70
     1
  9
$SPLFRAME
 70
     0
  9
$SPLINETYPE
 70
     6
  9
$SPLINESEGS
 70
     6
  9
$ATTDIA
 70
     0
  9
$ATTREQ
 70
     1
  9
$HANDLING
 70
     1
  9
$HANDSEED
  5
1EF
  9
$SURFTAB1
 70
    18
  9
$SURFTAB2
 70
    18
  9
$SURFTYPE
 70
     6
  9
$SURFU
 70
    18
  9
$SURFV
 70
    18
  9
$UCSNAME
  2

  9
$UCSORG
 10
0.0
 20
0.0
 30
0.0
  9
$UCSXDIR
 10
1.0
 20
0.0
 30
0.0
  9
$UCSYDIR
 10
0.0
 20
1.0
 30
0.0
  9
$PUCSNAME
  2

  9
$PUCSORG
 10
0.0
 20
0.0
 30
0.0
  9
$PUCSXDIR
 10
1.0
 20
0.0
 30
0.0
  9
$PUCSYDIR
 10
0.0
 20
1.0
 30
0.0
  9
$USERI1
 70
     0
  9
$USERI2
 70
     0
  9
$USERI3
 70
     0
  9
$USERI4
 70
     0
  9
$USERI5
 70
     0
  9
$USERR1
 40
0.0
  9
$USERR2
 40
0.0
  9
$USERR3
 40
0.0
  9
$USERR4
 40
0.0
  9
$USERR5
 40
0.0
  9
$WORLDVIEW
 70
     1
  9
$SHADEDGE
 70
     3
  9
$SHADEDIF
 70
    70
  9
$TILEMODE
 70
     1
  9
$MAXACTVP
 70
    16
  9
$PLIMCHECK
 70
     0
  9
$PEXTMIN
 10
1.000000000000000E+20
 20
1.000000000000000E+20
 30
1.000000000000000E+20
  9
$PEXTMAX
 10
-1.000000000000000E+20
 20
-1.000000000000000E+20
 30
-1.000000000000000E+20
  9
$PLIMMIN
 10
0.0
 20
0.0
  9
$PLIMMAX
 10
12.0
 20
9.0
  9
$UNITMODE
 70
     0
  9
$VISRETAIN
 70
     0
  9
$PLINEGEN
 70
     0
  9
$PSLTSCALE
 70
     1
  0
ENDSEC
  0
SECTION
  2
TABLES
  0
TABLE
  2
VPORT
 70
     1
  0
VPORT
  2
*ACTIVE
 70
     0
 10
0.0
 20
0.0
 11
1.0
 21
1.0
 12
372.3080272586592
 22
86.03096091098908
 13
0.0
 23
0.0
 14
5.0
 24
5.0
 15
10.0
 25
10.0
 16
0.0
 26
0.0
 36
1.0
 17
0.0
 27
0.0
 37
0.0
 40
1.482006833938792
 41
1.503537735849056
 42
50.0
 43
0.0
 44
0.0
 50
0.0
 51
0.0
 71
     0
 72
   100
 73
     1
 74
     0
 75
     0
 76
     0
 77
     0
 78
     0
  0
ENDTAB
  0
TABLE
  2
LTYPE
 70
     1
  0
LTYPE
  2
CONTINUOUS
 70
     0
  3
Solid line
 72
    65
 73
     0
 40
0.0
  0
ENDTAB
  0
TABLE
  2
LAYER
 70
     1
  0
LAYER
  2
0
 70
     0
 62
     7
  6
CONTINUOUS
  0
ENDTAB
  0
TABLE
  2
STYLE
 70
     2
  0
STYLE
  2
STANDARD
 70
     0
 40
0.0
 41
1.0
 50
0.0
 71
     0
 42
3.0
  3
TXT
  4

  0
STYLE
  2
CITYBLUEPRINT
 70
     0
 40
0.2
 41
1.0
 50
30.0
 71
     0
 42
0.25
  3
cibt____.pfb
  4

  0
ENDTAB
  0
TABLE
  2
VIEW
 70
     0
  0
ENDTAB
  0
TABLE
  2
UCS
 70
     0
  0
ENDTAB
  0
TABLE
  2
APPID
 70
     2
  0
APPID
  2
ACAD
 70
     0
  0
APPID
  2
DCO15
 70
     0
  0
ENDTAB
  0
TABLE
  2
DIMSTYLE
 70
     1
  0
DIMSTYLE
  2
STANDARD
 70
     0
  3

  4

  5

  6

  7

 40
1.0
 41
0.18
 42
0.0625
 43
0.38
 44
0.18
 45
0.0
 46
0.0
 47
0.0
 48
0.0
140
0.18
141
0.09
142
0.0
143
25.4
144
1.0
145
0.0
146
1.0
147
0.09
 71
     0
 72
     0
 73
     1
 74
     1
 75
     0
 76
     0
 77
     0
 78
     0
170
     0
171
     2
172
     0
173
     0
174
     0
175
     0
176
     0
177
     0
178
     0
  0
ENDTAB
  0
ENDSEC
  0
SECTION
  2
BLOCKS
  0
BLOCK
  8
0
  2
$MODEL_SPACE
 70
     0
 10
0.0
 20
0.0
 30
0.0
  3
$MODEL_SPACE
  1

  0
ENDBLK
  5
6
  8
0
  0
BLOCK
 67
     1
  8
0
  2
$PAPER_SPACE
 70
     0
 10
0.0
 20
0.0
 30
0.0
  3
$PAPER_SPACE
  1

  0
ENDBLK
  5
9
 67
     1
  8
0
  0
ENDSEC
  0
SECTION
  2
ENTITIES
  0
LINE
  5
1E
  8
0
 10
372.5575642196255
 20
86.35534363527766
 30
0.0
 11
372.6386429305229
 21
86.39807903738489
 31
0.0
  0
LINE
  5
1F
  8
0
 10
372.5069977950965
 20
86.30111031846606
 30
0.0
 11
372.5575642196255
 21
86.35534363527766
 31
0.0
  0
LINE
  5
20
  8
0
 10
372.4885778899537
 20
86.23211559039865
 30
0.0
 11
372.5069977950965
 21
86.30111031846606
 31
0.0
  0
LINE
  5
21
  8
0
 10
372.5000840224812
 20
86.15327992149405
 30
0.0
 11
372.4885778899537
 21
86.23211559039865
 31
0.0
  0
LINE
  5
22
  8
0
 10
372.4724793975138
 20
86.05470829981152
 30
0.0
 11
372.5000840224812
 21
86.15327992149405
 31
0.0
  0
LINE
  5
23
  8
0
 10
372.4356900527217
 20
85.98079310132552
 30
0.0
 11
372.4724793975138
 21
86.05470829981152
 31
0.0
  0
LINE
  5
24
  8
0
 10
372.307127596967
 20
85.89798146328832
 30
0.0
 11
372.4356900527217
 21
85.98079310132552
 31
0.0
  0
LINE
  5
25
  8
0
 10
372.5046763823935
 20
86.41693062216542
 30
0.0
 11
372.5219254761335
 21
86.45821522798438
 31
0.0
  0
LINE
  5
26
  8
0
 10
372.4863069427443
 20
86.34544862333696
 30
0.0
 11
372.5046763823935
 21
86.41693062216542
 31
0.0
  0
LINE
  5
27
  8
0
 10
372.4959434183431
 20
86.25970436593062
 30
0.0
 11
372.4863069427443
 21
86.34544862333696
 31
0.0
  0
LINE
  5
28
  8
0
 10
372.5529718597132
 20
86.39719466938752
 30
0.0
 11
372.5741023334215
 21
86.43531235770536
 31
0.0
  0
LINE
  5
29
  8
0
 10
372.493721253132
 20
86.37430033229299
 30
0.0
 11
372.5529718597132
 21
86.39719466938752
 31
0.0
  0
LINE
  5
2A
  8
0
 10
372.5667994049437
 20
86.38735372855032
 30
0.0
 11
372.6054124263356
 21
86.41858319260591
 31
0.0
  0
LINE
  5
2B
  8
0
 10
372.5313724246826
 20
86.32725250709852
 30
0.0
 11
372.5667994049437
 21
86.38735372855032
 31
0.0
  0
LINE
  5
2C
  8
0
 10
372.4748008102167
 20
86.41201015174683
 30
0.0
 11
372.4930915196888
 21
86.46843515943364
 31
0.0
  0
LINE
  5
2D
  8
0
 10
372.4724793975138
 20
86.37259231729452
 30
0.0
 11
372.4748008102167
 21
86.41201015174683
 31
0.0
  0
LINE
  5
2E
  8
0
 10
372.4876462271673
 20
86.33353182376322
 30
0.0
 11
372.4724793975138
 21
86.37259231729452
 31
0.0
  0
LINE
  5
2F
  8
0
 10
372.442603825337
 20
86.44158704536193
 30
0.0
 11
372.4483547261783
 21
86.48112372549772
 31
0.0
  0
LINE
  5
30
  8
0
 10
372.4740692575322
 20
86.39958830940265
 30
0.0
 11
372.442603825337
 21
86.44158704536193
 31
0.0
  0
LINE
  5
31
  8
0
 10
372.387394575402
 20
86.31095125930327
 30
0.0
 11
372.3069021132026
 21
86.49333309141248
 31
0.0
  0
LINE
  5
32
  8
0
 10
372.3851236281926
 20
86.1951309556039
 30
0.0
 11
372.387394575402
 21
86.31095125930327
 31
0.0
  0
LINE
  5
33
  8
0
 10
372.3758884428744
 20
86.12121575711788
 30
0.0
 11
372.3851236281926
 21
86.1951309556039
 31
0.0
  0
LINE
  5
34
  8
0
 10
372.3230006056424
 20
86.03989281745223
 30
0.0
 11
372.3758884428744
 21
86.12121575711788
 31
0.0
  0
LINE
  5
35
  8
0
 10
372.307127596967
 20
85.89798146328832
 30
0.0
 11
372.3230006056424
 21
86.03989281745223
 31
0.0
  0
LINE
  5
36
  8
0
 10
372.4149992003695
 20
86.43417930418228
 30
0.0
 11
372.4189509868463
 21
86.48746897755463
 31
0.0
  0
LINE
  5
37
  8
0
 10
372.4058144805448
 20
86.39476146972997
 30
0.0
 11
372.4149992003695
 21
86.43417930418228
 31
0.0
  0
LINE
  5
38
  8
0
 10
372.3784568330991
 20
86.33120261913969
 30
0.0
 11
372.4058144805448
 21
86.39476146972997
 31
0.0
  0
LINE
  5
39
  8
0
 10
372.387394575402
 20
86.42677156300263
 30
0.0
 11
372.3667037230498
 21
86.49333309141248
 31
0.0
  0
LINE
  5
3A
  8
0
 10
372.3981070752389
 20
86.37685518508874
 30
0.0
 11
372.387394575402
 21
86.42677156300263
 31
0.0
  0
LINE
  5
3B
  8
0
 10
372.3460128706976
 20
86.46375619779738
 30
0.0
 11
372.336828150873
 21
86.49333309141248
 31
0.0
  0
LINE
  5
3C
  8
0
 10
372.3480421138357
 20
86.40011705001652
 30
0.0
 11
372.3460128706976
 21
86.46375619779738
 31
0.0
  0
LINE
  5
3D
  8
0
 10
372.2931250334656
 20
86.41936382182297
 30
0.0
 11
372.2792974882351
 21
86.49333309141248
 31
0.0
  0
LINE
  5
3E
  8
0
 10
372.3069021132026
 20
86.37502551695206
 30
0.0
 11
372.2931250334656
 21
86.41936382182297
 31
0.0
  0
LINE
  5
3F
  8
0
 10
372.3655973804945
 20
86.36033988816905
 30
0.0
 11
372.3069021132026
 21
86.37502551695206
 31
0.0
  0
LINE
  5
40
  8
0
 10
372.663390359583
 20
86.29370257728641
 30
0.0
 11
372.7302796252592
 21
86.32335466525586
 31
0.0
  0
LINE
  5
41
  8
0
 10
372.6081811096482
 20
86.28634890721025
 30
0.0
 11
372.663390359583
 21
86.29370257728641
 31
0.0
  0
LINE
  5
42
  8
0
 10
372.515859089655
 20
86.31061420171723
 30
0.0
 11
372.6081811096482
 21
86.28634890721025
 31
0.0
  0
LINE
  5
43
  8
0
 10
372.6127734695605
 20
86.33312041173872
 30
0.0
 11
372.6864722605396
 21
86.36284448205718
 31
0.0
  0
LINE
  5
44
  8
0
 10
372.5885320602476
 20
86.29151333028638
 30
0.0
 11
372.6127734695605
 21
86.33312041173872
 31
0.0
  0
LINE
  5
45
  8
0
 10
372.1919417189139
 20
86.39227419896892
 30
0.0
 11
372.2086215790465
 21
86.4898400312194
 31
0.0
  0
LINE
  5
46
  8
0
 10
372.2448295561459
 20
86.27153342485096
 30
0.0
 11
372.1919417189139
 21
86.39227419896892
 31
0.0
  0
LINE
  5
47
  8
0
 10
372.3160868330272
 20
86.1951309556039
 30
0.0
 11
372.2448295561459
 21
86.27153342485096
 31
0.0
  0
LINE
  5
48
  8
0
 10
372.2792974882351
 20
86.08671839308418
 30
0.0
 11
372.3160868330272
 21
86.1951309556039
 31
0.0
  0
LINE
  5
49
  8
0
 10
372.281618900938
 20
85.98571357174411
 30
0.0
 11
372.2792974882351
 21
86.08671839308418
 31
0.0
  0
LINE
  5
4A
  8
0
 10
372.307127596967
 20
85.89798146328832
 30
0.0
 11
372.281618900938
 21
85.98571357174411
 31
0.0
  0
LINE
  5
4B
  8
0
 10
372.2239159729412
 20
86.31927828185175
 30
0.0
 11
372.2563356886735
 21
86.49333309141248
 31
0.0
  0
LINE
  5
4C
  8
0
 10
372.2429279893083
 20
86.42134990133975
 30
0.0
 11
372.2265169426825
 21
86.49254173980856
 31
0.0
  0
LINE
  5
4D
  8
0
 10
372.1137202039239
 20
86.40460241056718
 30
0.0
 11
372.1056250794194
 21
86.46313342110322
 31
0.0
  0
LINE
  5
4E
  8
0
 10
372.1482386015066
 20
86.36269730535382
 30
0.0
 11
372.1137202039239
 21
86.40460241056718
 31
0.0
  0
LINE
  5
4F
  8
0
 10
372.2059237178302
 20
86.36035386603014
 30
0.0
 11
372.1482386015066
 21
86.36269730535382
 31
0.0
  0
LINE
  5
50
  8
0
 10
372.1390034161884
 20
86.41444335140437
 30
0.0
 11
372.1487367338958
 21
86.47669757201137
 31
0.0
  0
LINE
  5
51
  8
0
 10
372.1299131597166
 20
86.38494426987332
 30
0.0
 11
372.1390034161884
 21
86.41444335140437
 31
0.0
  0
LINE
  5
52
  8
0
 10
372.1983458824119
 20
86.42973419782864
 30
0.0
 11
372.1736348555341
 21
86.48294273378811
 31
0.0
  0
LINE
  5
53
  8
0
 10
371.7922253630456
 20
86.06965010228656
 30
0.0
 11
371.7337899057677
 21
86.07485399323653
 31
0.0
  0
LINE
  5
54
  8
0
 10
371.7757963913827
 20
86.0106125958017
 30
0.0
 11
371.7267493136979
 21
86.05016900650286
 31
0.0
  0
LINE
  5
55
  8
0
 10
371.796798217141
 20
85.98799066200463
 30
0.0
 11
371.7757963913827
 21
86.0106125958017
 31
0.0
  0
LINE
  5
56
  8
0
 10
371.7716772900126
 20
85.98379622127274
 30
0.0
 11
371.716940385727
 21
86.00605114307312
 31
0.0
  0
LINE
  5
57
  8
0
 10
371.825227374467
 20
85.99273747787063
 30
0.0
 11
371.7716772900126
 21
85.98379622127274
 31
0.0
  0
LINE
  5
58
  8
0
 10
371.8560994106153
 20
86.04152253436523
 30
0.0
 11
371.825227374467
 21
85.99273747787063
 31
0.0
  0
LINE
  5
59
  8
0
 10
371.8217774302461
 20
86.10406719116864
 30
0.0
 11
371.7519179662771
 21
86.12545072712243
 31
0.0
  0
LINE
  5
5A
  8
0
 10
371.9006680375446
 20
86.03656649227358
 30
0.0
 11
371.7661420086803
 21
86.1516701944616
 31
0.0
  0
LINE
  5
5B
  8
0
 10
371.8214645919349
 20
86.04537393457751
 30
0.0
 11
371.7453100327309
 21
86.10860203330905
 31
0.0
  0
LINE
  5
5C
  8
0
 10
371.9524730882097
 20
86.03080575811265
 30
0.0
 11
371.8214645919349
 21
86.04537393457751
 31
0.0
  0
LINE
  5
5D
  8
0
 10
372.0542682059301
 20
86.0543151354728
 30
0.0
 11
371.9524730882097
 21
86.03080575811265
 31
0.0
  0
LINE
  5
5E
  8
0
 10
372.1297615667655
 20
85.9682483470344
 30
0.0
 11
372.0542682059301
 21
86.0543151354728
 31
0.0
  0
LINE
  5
5F
  8
0
 10
372.2183950143022
 20
85.91975633873778
 30
0.0
 11
372.1297615667655
 21
85.9682483470344
 31
0.0
  0
LINE
  5
60
  8
0
 10
372.307127596967
 20
85.89798146328832
 30
0.0
 11
372.2183950143022
 21
85.91975633873778
 31
0.0
  0
LINE
  5
61
  8
0
 10
372.0831091497296
 20
86.38024802774137
 30
0.0
 11
372.0942167452195
 21
86.45893508811677
 31
0.0
  0
LINE
  5
62
  8
0
 10
372.1070212345882
 20
86.3384508107267
 30
0.0
 11
372.0831091497296
 21
86.38024802774137
 31
0.0
  0
LINE
  5
63
  8
0
 10
372.1425544407388
 20
86.40437462313535
 30
0.0
 11
372.15031961212
 21
86.47712847043611
 31
0.0
  0
LINE
  5
64
  8
0
 10
372.1213182808683
 20
86.35288517512976
 30
0.0
 11
372.1425544407388
 21
86.40437462313535
 31
0.0
  0
LINE
  5
65
  8
0
 10
372.0541429093984
 20
86.28506460774048
 30
0.0
 11
372.1213182808683
 21
86.35288517512976
 31
0.0
  0
LINE
  5
66
  8
0
 10
371.8485959476402
 20
86.14654606684539
 30
0.0
 11
371.7776229084611
 21
86.17155569619855
 31
0.0
  0
LINE
  5
67
  8
0
 10
371.8938825858876
 20
86.1363082154521
 30
0.0
 11
371.8485959476402
 21
86.14654606684539
 31
0.0
  0
LINE
  5
68
  8
0
 10
371.9359483471302
 20
86.17979699361739
 30
0.0
 11
371.8938825858876
 21
86.1363082154521
 31
0.0
  0
LINE
  5
69
  8
0
 10
371.836594940928
 20
86.21454446542671
 30
0.0
 11
371.80638823978
 21
86.22137871153949
 31
0.0
  0
LINE
  5
6A
  8
0
 10
371.8927226811505
 20
86.18448226764434
 30
0.0
 11
371.836594940928
 21
86.21454446542671
 31
0.0
  0
LINE
  5
6B
  8
0
 10
371.8893154265622
 20
86.23188975555527
 30
0.0
 11
371.8213260258684
 21
86.24725171599722
 31
0.0
  0
LINE
  5
6C
  8
0
 10
371.937900527819
 20
86.21620886359513
 30
0.0
 11
371.8893154265622
 21
86.23188975555527
 31
0.0
  0
LINE
  5
6D
  8
0
 10
371.8967024469997
 20
86.25949993262886
 30
0.0
 11
371.8525281293383
 21
86.28956711679432
 31
0.0
  0
LINE
  5
6E
  8
0
 10
371.9262469330852
 20
86.23183681470792
 30
0.0
 11
371.8967024469997
 21
86.25949993262886
 31
0.0
  0
LINE
  5
6F
  8
0
 10
371.9676116886089
 20
86.17636497173702
 30
0.0
 11
371.9262469330852
 21
86.23183681470792
 31
0.0
  0
LINE
  5
70
  8
0
 10
371.9896187518398
 20
86.17397960370559
 30
0.0
 11
371.7914252209448
 21
86.19546200268232
 31
0.0
  0
LINE
  5
71
  8
0
 10
372.0887866035129
 20
86.11410275388192
 30
0.0
 11
371.9896187518398
 21
86.17397960370559
 31
0.0
  0
LINE
  5
72
  8
0
 10
372.1481814504684
 20
86.06914724954471
 30
0.0
 11
372.0887866035129
 21
86.11410275388192
 31
0.0
  0
LINE
  5
73
  8
0
 10
372.1921652635133
 20
85.98268356911777
 30
0.0
 11
372.1481814504684
 21
86.06914724954471
 31
0.0
  0
LINE
  5
74
  8
0
 10
372.307127596967
 20
85.89798146328832
 30
0.0
 11
372.1921652635133
 21
85.98268356911777
 31
0.0
  0
LINE
  5
75
  8
0
 10
371.9040894674371
 20
86.28711010970244
 30
0.0
 11
371.8727251484789
 21
86.31185887599361
 31
0.0
  0
LINE
  5
76
  8
0
 10
371.9561941558023
 20
86.29336060534494
 30
0.0
 11
371.9040894674371
 21
86.28711010970244
 31
0.0
  0
LINE
  5
77
  8
0
 10
371.9458023011127
 20
86.30020506972605
 30
0.0
 11
371.9060821657833
 21
86.34425779262558
 31
0.0
  0
LINE
  5
78
  8
0
 10
371.9787784407591
 20
86.27848575012648
 30
0.0
 11
371.9458023011127
 21
86.30020506972605
 31
0.0
  0
LINE
  5
79
  8
0
 10
372.0201892352684
 20
86.27209036313566
 30
0.0
 11
371.9787784407591
 21
86.27848575012648
 31
0.0
  0
LINE
  5
7A
  8
0
 10
372.0131546873309
 20
86.36754997827386
 30
0.0
 11
372.0054156888081
 21
86.41660456774393
 31
0.0
  0
LINE
  5
7B
  8
0
 10
372.0474903817761
 20
86.30681870266243
 30
0.0
 11
372.0131546873309
 21
86.36754997827386
 31
0.0
  0
LINE
  5
7C
  8
0
 10
371.9977184099535
 20
86.36049544325087
 30
0.0
 11
371.9752727603909
 21
86.39785381443514
 31
0.0
  0
LINE
  5
7D
  8
0
 10
371.9879201841895
 20
86.29773574421459
 30
0.0
 11
371.9977184099535
 21
86.36049544325087
 31
0.0
  0
LINE
  5
7E
  8
0
 10
371.9564788348201
 20
86.32853830939308
 30
0.0
 11
371.9293498642656
 21
86.36411876567364
 31
0.0
  0
LINE
  5
7F
  8
0
 10
372.0091993418942
 20
86.2768889085893
 30
0.0
 11
371.9564788348201
 21
86.32853830939308
 31
0.0
  0
LINE
  5
80
  8
0
 10
372.0882742848362
 20
86.2423622125577
 30
0.0
 11
372.0091993418942
 21
86.2768889085893
 31
0.0
  0
LINE
  5
81
  8
0
 10
372.0362586486234
 20
86.34354702654332
 30
0.0
 11
372.0397880602063
 21
86.43513095094013
 31
0.0
  0
LINE
  5
82
  8
0
 10
372.0579428664493
 20
86.27263855991681
 30
0.0
 11
372.0362586486234
 21
86.34354702654332
 31
0.0
  0
LINE
  5
83
  8
0
 10
372.1084841011114
 20
86.22218909009412
 30
0.0
 11
372.0579428664493
 21
86.27263855991681
 31
0.0
  0
LINE
  5
84
  8
0
 10
372.182510859371
 20
86.19273585871001
 30
0.0
 11
372.1084841011114
 21
86.22218909009412
 31
0.0
  0
LINE
  5
85
  8
0
 10
372.2540740753565
 20
86.11954374138499
 30
0.0
 11
372.182510859371
 21
86.19273585871001
 31
0.0
  0
LINE
  5
86
  8
0
 10
372.2996918425751
 20
86.05072563496344
 30
0.0
 11
372.2540740753565
 21
86.11954374138499
 31
0.0
  0
LINE
  5
87
  8
0
 10
372.307127596967
 20
85.89798146328832
 30
0.0
 11
372.2996918425751
 21
86.05072563496344
 31
0.0
  0
LINE
  5
88
  8
0
 10
371.9010070776007
 20
85.53789736774624
 30
0.0
 11
371.8672826472005
 21
85.48989272273673
 31
0.0
  0
LINE
  5
89
  8
0
 10
371.9439205721612
 20
85.49415070768563
 30
0.0
 11
371.8851401767691
 21
85.47145289777978
 31
0.0
  0
LINE
  5
8A
  8
0
 10
371.9740126543913
 20
85.50102785541964
 30
0.0
 11
371.9439205721612
 21
85.49415070768563
 31
0.0
  0
LINE
  5
8B
  8
0
 10
371.9650846830556
 20
85.47717527399388
 30
0.0
 11
371.9184429032745
 21
85.44089918525822
 31
0.0
  0
LINE
  5
8C
  8
0
 10
371.9841163699273
 20
85.52802163580512
 30
0.0
 11
371.9650846830556
 21
85.47717527399388
 31
0.0
  0
LINE
  5
8D
  8
0
 10
371.9573032897521
 20
85.57915013162341
 30
0.0
 11
371.9841163699273
 21
85.52802163580512
 31
0.0
  0
LINE
  5
8E
  8
0
 10
371.8859770379048
 20
85.58069875311719
 30
0.0
 11
371.8325286205615
 21
85.53089045060219
 31
0.0
  0
LINE
  5
8F
  8
0
 10
371.9838796615703
 20
85.61526967371015
 30
0.0
 11
371.8169339169737
 21
85.55631856633742
 31
0.0
  0
LINE
  5
90
  8
0
 10
371.9366504699879
 20
85.55108119889691
 30
0.0
 11
371.8438160506514
 21
85.51674346537796
 31
0.0
  0
LINE
  5
91
  8
0
 10
372.0147711290307
 20
85.65725379655001
 30
0.0
 11
371.9366504699879
 21
85.55108119889691
 31
0.0
  0
LINE
  5
92
  8
0
 10
372.0453089698698
 20
85.75716564315721
 30
0.0
 11
372.0147711290307
 21
85.65725379655001
 31
0.0
  0
LINE
  5
93
  8
0
 10
372.1575916754973
 20
85.77951141723852
 30
0.0
 11
372.0453089698698
 21
85.75716564315721
 31
0.0
  0
LINE
  5
94
  8
0
 10
372.2439037103311
 20
85.83202423028197
 30
0.0
 11
372.1575916754973
 21
85.77951141723852
 31
0.0
  0
LINE
  5
95
  8
0
 10
372.307127596967
 20
85.89798146328832
 30
0.0
 11
372.2439037103311
 21
85.83202423028197
 31
0.0
  0
LINE
  5
96
  8
0
 10
371.7774632771361
 20
85.94510907929097
 30
0.0
 11
371.7148720816468
 21
85.9940720693479
 31
0.0
  0
LINE
  5
97
  8
0
 10
371.8256167713076
 20
85.94491894372862
 30
0.0
 11
371.7774632771361
 21
85.94510907929097
 31
0.0
  0
LINE
  5
98
  8
0
 10
371.7862916781226
 20
86.00865350913726
 30
0.0
 11
371.7271675838277
 21
86.05175526846855
 31
0.0
  0
LINE
  5
99
  8
0
 10
371.8202647681871
 20
85.9645177312078
 30
0.0
 11
371.7862916781226
 21
86.00865350913726
 31
0.0
  0
LINE
  5
9A
  8
0
 10
371.8454114167103
 20
85.87243186931157
 30
0.0
 11
371.8202647681871
 21
85.9645177312078
 31
0.0
  0
LINE
  5
9B
  8
0
 10
371.8625985111415
 20
85.62516370831072
 30
0.0
 11
371.8054530171929
 21
85.57620406807438
 31
0.0
  0
LINE
  5
9C
  8
0
 10
371.894108069652
 20
85.65926416178834
 30
0.0
 11
371.8625985111415
 21
85.62516370831072
 31
0.0
  0
LINE
  5
9D
  8
0
 10
371.8774785636026
 20
85.71743856873664
 30
0.0
 11
371.894108069652
 21
85.65926416178834
 31
0.0
  0
LINE
  5
9E
  8
0
 10
371.7977096671974
 20
85.64876973091764
 30
0.0
 11
371.776687685874
 21
85.62602708341531
 31
0.0
  0
LINE
  5
9F
  8
0
 10
371.8518081642817
 20
85.68234668091614
 30
0.0
 11
371.7977096671974
 21
85.64876973091764
 31
0.0
  0
LINE
  5
A0
  8
0
 10
371.8090484481271
 20
85.70309965584096
 30
0.0
 11
371.7617498997855
 21
85.65190008787306
 31
0.0
  0
LINE
  5
A1
  8
0
 10
371.8469210495469
 20
85.73733514179469
 30
0.0
 11
371.8090484481271
 21
85.70309965584096
 31
0.0
  0
LINE
  5
A2
  8
0
 10
371.7888308435971
 20
85.7233020917349
 30
0.0
 11
371.7407047394589
 21
85.700079602528
 31
0.0
  0
LINE
  5
A3
  8
0
 10
371.8275600495073
 20
85.73505680826626
 30
0.0
 11
371.7888308435971
 21
85.7233020917349
 31
0.0
  0
LINE
  5
A4
  8
0
 10
371.8962824524767
 20
85.74314381588563
 30
0.0
 11
371.8275600495073
 21
85.73505680826626
 31
0.0
  0
LINE
  5
A5
  8
0
 10
371.9093517734048
 20
85.76100980769064
 30
0.0
 11
371.7916507047091
 21
85.60011037455814
 31
0.0
  0
LINE
  5
A6
  8
0
 10
372.0107905722871
 20
85.81695326156633
 30
0.0
 11
371.9093517734048
 21
85.76100980769064
 31
0.0
  0
LINE
  5
A7
  8
0
 10
372.0794206045609
 20
85.84591295571514
 30
0.0
 11
372.0107905722871
 21
85.81695326156633
 31
0.0
  0
LINE
  5
A8
  8
0
 10
372.1762922548378
 20
85.84077221495384
 30
0.0
 11
372.0794206045609
 21
85.84591295571514
 31
0.0
  0
LINE
  5
A9
  8
0
 10
372.307127596967
 20
85.89798146328832
 30
0.0
 11
372.1762922548378
 21
85.84077221495384
 31
0.0
  0
LINE
  5
AA
  8
0
 10
371.7686132390672
 20
85.74350452762883
 30
0.0
 11
371.7314980192676
 21
85.72871661378419
 31
0.0
  0
LINE
  5
AB
  8
0
 10
371.7892524952371
 20
85.79175375923062
 30
0.0
 11
371.7686132390672
 21
85.74350452762883
 31
0.0
  0
LINE
  5
AC
  8
0
 10
371.778129087863
 20
85.78617638126752
 30
0.0
 11
371.7201182430614
 21
85.77380409648025
 31
0.0
  0
LINE
  5
AD
  8
0
 10
371.8134266402123
 20
85.80387489612028
 30
0.0
 11
371.778129087863
 21
85.78617638126752
 31
0.0
  0
LINE
  5
AE
  8
0
 10
371.839670605068
 20
85.83654000266075
 30
0.0
 11
371.8134266402123
 21
85.80387489612028
 31
0.0
  0
LINE
  5
AF
  8
0
 10
371.7534828793541
 20
85.87817771301185
 30
0.0
 11
371.7071308594394
 21
85.89600283842633
 31
0.0
  0
LINE
  5
B0
  8
0
 10
371.8232455540604
 20
85.87754765885222
 30
0.0
 11
371.7534828793541
 21
85.87817771301185
 31
0.0
  0
LINE
  5
B1
  8
0
 10
371.7518741472072
 20
85.86128223715166
 30
0.0
 11
371.7082980239363
 21
85.86052292001808
 31
0.0
  0
LINE
  5
B2
  8
0
 10
371.8013265280245
 20
85.8214168752099
 30
0.0
 11
371.7518741472072
 21
85.86128223715166
 31
0.0
  0
LINE
  5
B3
  8
0
 10
371.7589300493935
 20
85.80958915051598
 30
0.0
 11
371.714551985099
 21
85.80388500097756
 31
0.0
  0
LINE
  5
B4
  8
0
 10
371.8300199961168
 20
85.82942174854064
 30
0.0
 11
371.7589300493935
 21
85.80958915051598
 31
0.0
  0
LINE
  5
B5
  8
0
 10
371.89945846346
 20
85.8806393099154
 30
0.0
 11
371.8300199961168
 21
85.82942174854064
 31
0.0
  0
LINE
  5
B6
  8
0
 10
371.7858220259648
 20
85.88618485455397
 30
0.0
 11
371.7082727266504
 21
85.93503337684355
 31
0.0
  0
LINE
  5
B7
  8
0
 10
371.8580726683197
 20
85.86950970473906
 30
0.0
 11
371.7858220259648
 21
85.88618485455397
 31
0.0
  0
LINE
  5
B8
  8
0
 10
371.9270338081247
 20
85.88805496298379
 30
0.0
 11
371.8580726683197
 21
85.86950970473906
 31
0.0
  0
LINE
  5
B9
  8
0
 10
371.9895544338566
 20
85.93743740050428
 30
0.0
 11
371.9270338081247
 21
85.88805496298379
 31
0.0
  0
LINE
  5
BA
  8
0
 10
372.0887222748096
 20
85.96281690486177
 30
0.0
 11
371.9895544338566
 21
85.93743740050428
 31
0.0
  0
LINE
  5
BB
  8
0
 10
372.1711293868203
 20
85.96791399692623
 30
0.0
 11
372.0887222748096
 21
85.96281690486177
 31
0.0
  0
LINE
  5
BC
  8
0
 10
372.307127596967
 20
85.89798146328832
 30
0.0
 11
372.1711293868203
 21
85.96791399692623
 31
0.0
  0
LINE
  5
BD
  8
0
 10
372.415909311522
 20
85.36622872874798
 30
0.0
 11
372.4406203383998
 21
85.31302019278851
 31
0.0
  0
LINE
  5
BE
  8
0
 10
372.4752517777454
 20
85.38151957517225
 30
0.0
 11
372.4655184600381
 21
85.31926535456525
 31
0.0
  0
LINE
  5
BF
  8
0
 10
372.4843420342173
 20
85.4110186567033
 30
0.0
 11
372.4752517777454
 21
85.38151957517225
 31
0.0
  0
LINE
  5
C0
  8
0
 10
372.50053499001
 20
85.39136051600946
 30
0.0
 11
372.5086301145144
 21
85.3328295054734
 31
0.0
  0
LINE
  5
C1
  8
0
 10
372.4660165924273
 20
85.4332656212228
 30
0.0
 11
372.50053499001
 21
85.39136051600946
 31
0.0
  0
LINE
  5
C2
  8
0
 10
372.4083314761037
 20
85.43560906054648
 30
0.0
 11
372.4660165924273
 21
85.4332656212228
 31
0.0
  0
LINE
  5
C3
  8
0
 10
372.3713272046256
 20
85.37461302523687
 30
0.0
 11
372.3877382512514
 21
85.30342118676806
 31
0.0
  0
LINE
  5
C4
  8
0
 10
372.3903392209927
 20
85.47668464472488
 30
0.0
 11
372.3579195052604
 21
85.30262983516414
 31
0.0
  0
LINE
  5
C5
  8
0
 10
372.4223134750199
 20
85.4036887276077
 30
0.0
 11
372.4056336148874
 21
85.30612289535722
 31
0.0
  0
LINE
  5
C6
  8
0
 10
372.3694256377879
 20
85.52442950172566
 30
0.0
 11
372.4223134750199
 21
85.4036887276077
 31
0.0
  0
LINE
  5
C7
  8
0
 10
372.2981683609067
 20
85.60083197097272
 30
0.0
 11
372.3694256377879
 21
85.52442950172566
 31
0.0
  0
LINE
  5
C8
  8
0
 10
372.3349577056987
 20
85.70924453349244
 30
0.0
 11
372.2981683609067
 21
85.60083197097272
 31
0.0
  0
LINE
  5
C9
  8
0
 10
372.3326362929958
 20
85.81024935483251
 30
0.0
 11
372.3349577056987
 21
85.70924453349244
 31
0.0
  0
LINE
  5
CA
  8
0
 10
372.307127596967
 20
85.89798146328832
 30
0.0
 11
372.3326362929958
 21
85.81024935483251
 31
0.0
  0
LINE
  5
CB
  8
0
 10
372.0014817243734
 20
85.4628425148379
 30
0.0
 11
371.9277829333942
 21
85.43311844451944
 31
0.0
  0
LINE
  5
CC
  8
0
 10
372.0257231336863
 20
85.50444959629024
 30
0.0
 11
372.0014817243734
 21
85.4628425148379
 31
0.0
  0
LINE
  5
CD
  8
0
 10
371.9508648343508
 20
85.50226034929021
 30
0.0
 11
371.8839755686747
 21
85.47260826132076
 31
0.0
  0
LINE
  5
CE
  8
0
 10
372.0060740842857
 20
85.50961401936637
 30
0.0
 11
371.9508648343508
 21
85.50226034929021
 31
0.0
  0
LINE
  5
CF
  8
0
 10
372.0983961042788
 20
85.48534872485939
 30
0.0
 11
372.0060740842857
 21
85.50961401936637
 31
0.0
  0
LINE
  5
D0
  8
0
 10
372.3211301604683
 20
85.37659910475365
 30
0.0
 11
372.3349577056987
 21
85.30262983516414
 31
0.0
  0
LINE
  5
D1
  8
0
 10
372.3073530807313
 20
85.42093740962456
 30
0.0
 11
372.3211301604683
 21
85.37659910475365
 31
0.0
  0
LINE
  5
D2
  8
0
 10
372.2486578134393
 20
85.43562303840757
 30
0.0
 11
372.3073530807313
 21
85.42093740962456
 31
0.0
  0
LINE
  5
D3
  8
0
 10
372.2682423232363
 20
85.33220672877924
 30
0.0
 11
372.2774270430609
 21
85.30262983516414
 31
0.0
  0
LINE
  5
D4
  8
0
 10
372.2662130800982
 20
85.3958458765601
 30
0.0
 11
372.2682423232363
 21
85.33220672877924
 31
0.0
  0
LINE
  5
D5
  8
0
 10
372.2268606185319
 20
85.369191363574
 30
0.0
 11
372.247551470884
 21
85.30262983516414
 31
0.0
  0
LINE
  5
D6
  8
0
 10
372.2161481186949
 20
85.41910774148788
 30
0.0
 11
372.2268606185319
 21
85.369191363574
 31
0.0
  0
LINE
  5
D7
  8
0
 10
372.1992559935644
 20
85.36178362239434
 30
0.0
 11
372.1953042070875
 21
85.308493949022
 31
0.0
  0
LINE
  5
D8
  8
0
 10
372.2084407133891
 20
85.40120145684665
 30
0.0
 11
372.1992559935644
 21
85.36178362239434
 31
0.0
  0
LINE
  5
D9
  8
0
 10
372.2357983608347
 20
85.46476030743693
 30
0.0
 11
372.2084407133891
 21
85.40120145684665
 31
0.0
  0
LINE
  5
DA
  8
0
 10
372.2268606185319
 20
85.48501166727335
 30
0.0
 11
372.3073530807313
 21
85.30262983516414
 31
0.0
  0
LINE
  5
DB
  8
0
 10
372.2291315657412
 20
85.60083197097272
 30
0.0
 11
372.2268606185319
 21
85.48501166727335
 31
0.0
  0
LINE
  5
DC
  8
0
 10
372.2383667510594
 20
85.67474716945874
 30
0.0
 11
372.2291315657412
 21
85.60083197097272
 31
0.0
  0
LINE
  5
DD
  8
0
 10
372.2912545882914
 20
85.7560701091244
 30
0.0
 11
372.2383667510594
 21
85.67474716945874
 31
0.0
  0
LINE
  5
DE
  8
0
 10
372.307127596967
 20
85.89798146328832
 30
0.0
 11
372.2912545882914
 21
85.7560701091244
 31
0.0
  0
LINE
  5
DF
  8
0
 10
372.1716513685969
 20
85.3543758812147
 30
0.0
 11
372.1659004677556
 21
85.3148392010789
 31
0.0
  0
LINE
  5
E0
  8
0
 10
372.1401859364017
 20
85.39637461717398
 30
0.0
 11
372.1716513685969
 21
85.3543758812147
 31
0.0
  0
LINE
  5
E1
  8
0
 10
372.1394543837172
 20
85.3839527748298
 30
0.0
 11
372.121163674245
 21
85.32752776714298
 31
0.0
  0
LINE
  5
E2
  8
0
 10
372.1417757964201
 20
85.4233706092821
 30
0.0
 11
372.1394543837172
 21
85.3839527748298
 31
0.0
  0
LINE
  5
E3
  8
0
 10
372.1266089667665
 20
85.4624311028134
 30
0.0
 11
372.1417757964201
 21
85.4233706092821
 31
0.0
  0
LINE
  5
E4
  8
0
 10
372.0474557889901
 20
85.4086091980263
 30
0.0
 11
372.0088427675982
 21
85.37737973397071
 31
0.0
  0
LINE
  5
E5
  8
0
 10
372.0828827692513
 20
85.4687104194781
 30
0.0
 11
372.0474557889901
 21
85.4086091980263
 31
0.0
  0
LINE
  5
E6
  8
0
 10
372.0612833342207
 20
85.3987682571891
 30
0.0
 11
372.0401528605124
 21
85.36065056887126
 31
0.0
  0
LINE
  5
E7
  8
0
 10
372.1205339408019
 20
85.42166259428363
 30
0.0
 11
372.0612833342207
 21
85.3987682571891
 31
0.0
  0
LINE
  5
E8
  8
0
 10
372.1095788115403
 20
85.3790323044112
 30
0.0
 11
372.0923297178003
 21
85.33774769859224
 31
0.0
  0
LINE
  5
E9
  8
0
 10
372.1279482511896
 20
85.45051430323966
 30
0.0
 11
372.1095788115403
 21
85.3790323044112
 31
0.0
  0
LINE
  5
EA
  8
0
 10
372.1183117755907
 20
85.53625856064602
 30
0.0
 11
372.1279482511896
 21
85.45051430323966
 31
0.0
  0
LINE
  5
EB
  8
0
 10
372.0566909743083
 20
85.44061929129896
 30
0.0
 11
371.975612263411
 21
85.39788388919173
 31
0.0
  0
LINE
  5
EC
  8
0
 10
372.1072573988374
 20
85.49485260811056
 30
0.0
 11
372.0566909743083
 21
85.44061929129896
 31
0.0
  0
LINE
  5
ED
  8
0
 10
372.1256773039802
 20
85.56384733617797
 30
0.0
 11
372.1072573988374
 21
85.49485260811056
 31
0.0
  0
LINE
  5
EE
  8
0
 10
372.1141711714526
 20
85.64268300508257
 30
0.0
 11
372.1256773039802
 21
85.56384733617797
 31
0.0
  0
LINE
  5
EF
  8
0
 10
372.1417757964201
 20
85.7412546267651
 30
0.0
 11
372.1141711714526
 21
85.64268300508257
 31
0.0
  0
LINE
  5
F0
  8
0
 10
372.1785651412122
 20
85.8151698252511
 30
0.0
 11
372.1417757964201
 21
85.7412546267651
 31
0.0
  0
LINE
  5
F1
  8
0
 10
372.307127596967
 20
85.89798146328832
 30
0.0
 11
372.1785651412122
 21
85.8151698252511
 31
0.0
  0
LINE
  5
F2
  8
0
 10
372.8220298308883
 20
85.72631282429006
 30
0.0
 11
372.8804652881662
 21
85.72110893334009
 31
0.0
  0
LINE
  5
F3
  8
0
 10
372.8384588025512
 20
85.78535033077492
 30
0.0
 11
372.8875058802359
 21
85.74579392007377
 31
0.0
  0
LINE
  5
F4
  8
0
 10
372.8174569767929
 20
85.80797226457199
 30
0.0
 11
372.8384588025512
 21
85.78535033077492
 31
0.0
  0
LINE
  5
F5
  8
0
 10
372.8425779039213
 20
85.81216670530388
 30
0.0
 11
372.8973148082069
 21
85.7899117835035
 31
0.0
  0
LINE
  5
F6
  8
0
 10
372.7890278194669
 20
85.803225448706
 30
0.0
 11
372.8425779039213
 21
85.81216670530388
 31
0.0
  0
LINE
  5
F7
  8
0
 10
372.7581557833186
 20
85.7544403922114
 30
0.0
 11
372.7890278194669
 21
85.803225448706
 31
0.0
  0
LINE
  5
F8
  8
0
 10
372.7924777636878
 20
85.69189573540798
 30
0.0
 11
372.8623372276568
 21
85.6705121994542
 31
0.0
  0
LINE
  5
F9
  8
0
 10
372.7135871563893
 20
85.75939643430306
 30
0.0
 11
372.8481131852536
 21
85.64429273211502
 31
0.0
  0
LINE
  5
FA
  8
0
 10
372.7927906019989
 20
85.75058899199911
 30
0.0
 11
372.868945161203
 21
85.68736089326757
 31
0.0
  0
LINE
  5
FB
  8
0
 10
372.6617821057242
 20
85.76515716846397
 30
0.0
 11
372.7927906019989
 21
85.75058899199911
 31
0.0
  0
LINE
  5
FC
  8
0
 10
372.5599869880037
 20
85.74164779110382
 30
0.0
 11
372.6617821057242
 21
85.76515716846397
 31
0.0
  0
LINE
  5
FD
  8
0
 10
372.4844936271684
 20
85.82771457954222
 30
0.0
 11
372.5599869880037
 21
85.74164779110382
 31
0.0
  0
LINE
  5
FE
  8
0
 10
372.3958601796317
 20
85.87620658783885
 30
0.0
 11
372.4844936271684
 21
85.82771457954222
 31
0.0
  0
LINE
  5
FF
  8
0
 10
372.307127596967
 20
85.89798146328832
 30
0.0
 11
372.3958601796317
 21
85.87620658783885
 31
0.0
  0
LINE
  5
100
  8
0
 10
372.5311460442043
 20
85.41571489883525
 30
0.0
 11
372.5200384487143
 21
85.33702783845985
 31
0.0
  0
LINE
  5
101
  8
0
 10
372.5072339593457
 20
85.45751211584992
 30
0.0
 11
372.5311460442043
 21
85.41571489883525
 31
0.0
  0
LINE
  5
102
  8
0
 10
372.4717007531951
 20
85.39158830344127
 30
0.0
 11
372.4639355818138
 21
85.31883445614051
 31
0.0
  0
LINE
  5
103
  8
0
 10
372.4929369130655
 20
85.44307775144686
 30
0.0
 11
372.4717007531951
 21
85.39158830344127
 31
0.0
  0
LINE
  5
104
  8
0
 10
372.5601122845355
 20
85.51089831883614
 30
0.0
 11
372.4929369130655
 21
85.44307775144686
 31
0.0
  0
LINE
  5
105
  8
0
 10
372.7656592462936
 20
85.64941685973123
 30
0.0
 11
372.8366322854728
 21
85.62440723037807
 31
0.0
  0
LINE
  5
106
  8
0
 10
372.7203726080463
 20
85.65965471112452
 30
0.0
 11
372.7656592462936
 21
85.64941685973123
 31
0.0
  0
LINE
  5
107
  8
0
 10
372.6783068468036
 20
85.61616593295923
 30
0.0
 11
372.7203726080463
 21
85.65965471112452
 31
0.0
  0
LINE
  5
108
  8
0
 10
372.7776602530059
 20
85.58141846114991
 30
0.0
 11
372.8078669541539
 21
85.57458421503713
 31
0.0
  0
LINE
  5
109
  8
0
 10
372.7215325127834
 20
85.61148065893228
 30
0.0
 11
372.7776602530059
 21
85.58141846114991
 31
0.0
  0
LINE
  5
10A
  8
0
 10
372.7249397673717
 20
85.56407317102136
 30
0.0
 11
372.7929291680655
 21
85.5487112105794
 31
0.0
  0
LINE
  5
10B
  8
0
 10
372.6763546661149
 20
85.5797540629815
 30
0.0
 11
372.7249397673717
 21
85.56407317102136
 31
0.0
  0
LINE
  5
10C
  8
0
 10
372.7175527469342
 20
85.53646299394777
 30
0.0
 11
372.7617270645956
 21
85.5063958097823
 31
0.0
  0
LINE
  5
10D
  8
0
 10
372.6880082608487
 20
85.5641261118687
 30
0.0
 11
372.7175527469342
 21
85.53646299394777
 31
0.0
  0
LINE
  5
10E
  8
0
 10
372.646643505325
 20
85.6195979548396
 30
0.0
 11
372.6880082608487
 21
85.5641261118687
 31
0.0
  0
LINE
  5
10F
  8
0
 10
372.624636442094
 20
85.62198332287105
 30
0.0
 11
372.8228299729891
 21
85.6005009238943
 31
0.0
  0
LINE
  5
110
  8
0
 10
372.525468590421
 20
85.68186017269471
 30
0.0
 11
372.624636442094
 21
85.62198332287105
 31
0.0
  0
LINE
  5
111
  8
0
 10
372.4660737434655
 20
85.72681567703191
 30
0.0
 11
372.525468590421
 21
85.68186017269471
 31
0.0
  0
LINE
  5
112
  8
0
 10
372.4220899304206
 20
85.81327935745887
 30
0.0
 11
372.4660737434655
 21
85.72681567703191
 31
0.0
  0
LINE
  5
113
  8
0
 10
372.307127596967
 20
85.89798146328832
 30
0.0
 11
372.4220899304206
 21
85.81327935745887
 31
0.0
  0
LINE
  5
114
  8
0
 10
372.7101657264967
 20
85.50885281687418
 30
0.0
 11
372.741530045455
 21
85.48410405058301
 31
0.0
  0
LINE
  5
115
  8
0
 10
372.6580610381315
 20
85.50260232123168
 30
0.0
 11
372.7101657264967
 21
85.50885281687418
 31
0.0
  0
LINE
  5
116
  8
0
 10
372.6684528928211
 20
85.49575785685059
 30
0.0
 11
372.7081730281506
 21
85.45170513395104
 31
0.0
  0
LINE
  5
117
  8
0
 10
372.6354767531747
 20
85.51747717645014
 30
0.0
 11
372.6684528928211
 21
85.49575785685059
 31
0.0
  0
LINE
  5
118
  8
0
 10
372.5940659586655
 20
85.52387256344096
 30
0.0
 11
372.6354767531747
 21
85.51747717645014
 31
0.0
  0
LINE
  5
119
  8
0
 10
372.601100506603
 20
85.42841294830276
 30
0.0
 11
372.6088395051257
 21
85.37935835883269
 31
0.0
  0
LINE
  5
11A
  8
0
 10
372.5667648121578
 20
85.4891442239142
 30
0.0
 11
372.601100506603
 21
85.42841294830276
 31
0.0
  0
LINE
  5
11B
  8
0
 10
372.6165367839804
 20
85.43546748332575
 30
0.0
 11
372.638982433543
 21
85.39810911214148
 31
0.0
  0
LINE
  5
11C
  8
0
 10
372.6263350097444
 20
85.49822718236203
 30
0.0
 11
372.6165367839804
 21
85.43546748332575
 31
0.0
  0
LINE
  5
11D
  8
0
 10
372.6577763591138
 20
85.46742461718354
 30
0.0
 11
372.6849053296683
 21
85.43184416090298
 31
0.0
  0
LINE
  5
11E
  8
0
 10
372.6050558520396
 20
85.51907401798732
 30
0.0
 11
372.6577763591138
 21
85.46742461718354
 31
0.0
  0
LINE
  5
11F
  8
0
 10
372.5259809090977
 20
85.55360071401893
 30
0.0
 11
372.6050558520396
 21
85.51907401798732
 31
0.0
  0
LINE
  5
120
  8
0
 10
372.5779965453104
 20
85.45241590003329
 30
0.0
 11
372.5744671337276
 21
85.36083197563649
 31
0.0
  0
LINE
  5
121
  8
0
 10
372.5563123274846
 20
85.5233243666598
 30
0.0
 11
372.5779965453104
 21
85.45241590003329
 31
0.0
  0
LINE
  5
122
  8
0
 10
372.5057710928224
 20
85.5737738364825
 30
0.0
 11
372.5563123274846
 21
85.5233243666598
 31
0.0
  0
LINE
  5
123
  8
0
 10
372.4317443345629
 20
85.60322706786661
 30
0.0
 11
372.5057710928224
 21
85.5737738364825
 31
0.0
  0
LINE
  5
124
  8
0
 10
372.3601811185774
 20
85.67641918519163
 30
0.0
 11
372.4317443345629
 21
85.60322706786661
 31
0.0
  0
LINE
  5
125
  8
0
 10
372.3145633513588
 20
85.74523729161318
 30
0.0
 11
372.3601811185774
 21
85.67641918519163
 31
0.0
  0
LINE
  5
126
  8
0
 10
372.307127596967
 20
85.89798146328832
 30
0.0
 11
372.3145633513588
 21
85.74523729161318
 31
0.0
  0
LINE
  5
127
  8
0
 10
372.7132481163331
 20
86.25806555883038
 30
0.0
 11
372.7469725467333
 21
86.3060702038399
 31
0.0
  0
LINE
  5
128
  8
0
 10
372.6703346217727
 20
86.30181221889099
 30
0.0
 11
372.7291150171648
 21
86.32451002879684
 31
0.0
  0
LINE
  5
129
  8
0
 10
372.6402425395426
 20
86.29493507115698
 30
0.0
 11
372.6703346217727
 21
86.30181221889099
 31
0.0
  0
LINE
  5
12A
  8
0
 10
372.7282781560291
 20
86.21526417345943
 30
0.0
 11
372.7817265733723
 21
86.26507247597443
 31
0.0
  0
LINE
  5
12B
  8
0
 10
372.6303755323635
 20
86.18069325286649
 30
0.0
 11
372.7973212769602
 21
86.2396443602392
 31
0.0
  0
LINE
  5
12C
  8
0
 10
372.6776047239459
 20
86.24488172767971
 30
0.0
 11
372.7704391432825
 21
86.27921946119866
 31
0.0
  0
LINE
  5
12D
  8
0
 10
372.5994840649032
 20
86.13870913002661
 30
0.0
 11
372.6776047239459
 21
86.24488172767971
 31
0.0
  0
LINE
  5
12E
  8
0
 10
372.568946224064
 20
86.0387972834194
 30
0.0
 11
372.5994840649032
 21
86.13870913002661
 31
0.0
  0
LINE
  5
12F
  8
0
 10
372.4566635184365
 20
86.0164515093381
 30
0.0
 11
372.568946224064
 21
86.0387972834194
 31
0.0
  0
LINE
  5
130
  8
0
 10
372.3703514836028
 20
85.96393869629466
 30
0.0
 11
372.4566635184365
 21
86.0164515093381
 31
0.0
  0
LINE
  5
131
  8
0
 10
372.307127596967
 20
85.89798146328832
 30
0.0
 11
372.3703514836028
 21
85.96393869629466
 31
0.0
  0
LINE
  5
132
  8
0
 10
372.8367919167978
 20
85.85085384728565
 30
0.0
 11
372.8993831122871
 21
85.80189085722873
 31
0.0
  0
LINE
  5
133
  8
0
 10
372.7886384226263
 20
85.851043982848
 30
0.0
 11
372.8367919167978
 21
85.85085384728565
 31
0.0
  0
LINE
  5
134
  8
0
 10
372.8279635158112
 20
85.78730941743936
 30
0.0
 11
372.8870876101061
 21
85.74420765810807
 31
0.0
  0
LINE
  5
135
  8
0
 10
372.7939904257468
 20
85.83144519536881
 30
0.0
 11
372.8279635158112
 21
85.78730941743936
 31
0.0
  0
LINE
  5
136
  8
0
 10
372.7688437772235
 20
85.92353105726505
 30
0.0
 11
372.7939904257468
 21
85.83144519536881
 31
0.0
  0
LINE
  5
137
  8
0
 10
372.7516566827923
 20
86.1707992182659
 30
0.0
 11
372.808802176741
 21
86.21975885850225
 31
0.0
  0
LINE
  5
138
  8
0
 10
372.7201471242819
 20
86.13669876478828
 30
0.0
 11
372.7516566827923
 21
86.1707992182659
 31
0.0
  0
LINE
  5
139
  8
0
 10
372.7367766303312
 20
86.07852435783998
 30
0.0
 11
372.7201471242819
 21
86.13669876478828
 31
0.0
  0
LINE
  5
13A
  8
0
 10
372.8165455267365
 20
86.14719319565899
 30
0.0
 11
372.8375675080599
 21
86.16993584316131
 31
0.0
  0
LINE
  5
13B
  8
0
 10
372.7624470296522
 20
86.11361624566048
 30
0.0
 11
372.8165455267365
 21
86.14719319565899
 31
0.0
  0
LINE
  5
13C
  8
0
 10
372.8052067458068
 20
86.09286327073568
 30
0.0
 11
372.8525052941483
 21
86.14406283870356
 31
0.0
  0
LINE
  5
13D
  8
0
 10
372.7673341443869
 20
86.05862778478193
 30
0.0
 11
372.8052067458068
 21
86.09286327073568
 31
0.0
  0
LINE
  5
13E
  8
0
 10
372.8254243503367
 20
86.07266083484173
 30
0.0
 11
372.873550454475
 21
86.09588332404861
 31
0.0
  0
LINE
  5
13F
  8
0
 10
372.7866951444266
 20
86.06090611831036
 30
0.0
 11
372.8254243503367
 21
86.07266083484173
 31
0.0
  0
LINE
  5
140
  8
0
 10
372.7179727414572
 20
86.05281911069099
 30
0.0
 11
372.7866951444266
 21
86.06090611831036
 31
0.0
  0
LINE
  5
141
  8
0
 10
372.7049034205291
 20
86.034953118886
 30
0.0
 11
372.8226044892247
 21
86.19585255201848
 31
0.0
  0
LINE
  5
142
  8
0
 10
372.6034646216467
 20
85.9790096650103
 30
0.0
 11
372.7049034205291
 21
86.034953118886
 31
0.0
  0
LINE
  5
143
  8
0
 10
372.534834589373
 20
85.95004997086149
 30
0.0
 11
372.6034646216467
 21
85.9790096650103
 31
0.0
  0
LINE
  5
144
  8
0
 10
372.4379629390961
 20
85.95519071162278
 30
0.0
 11
372.534834589373
 21
85.95004997086149
 31
0.0
  0
LINE
  5
145
  8
0
 10
372.307127596967
 20
85.89798146328832
 30
0.0
 11
372.4379629390961
 21
85.95519071162278
 31
0.0
  0
LINE
  5
146
  8
0
 10
372.8456419548667
 20
86.05245839894779
 30
0.0
 11
372.8827571746663
 21
86.06724631279243
 31
0.0
  0
LINE
  5
147
  8
0
 10
372.8250026986968
 20
86.004209167346
 30
0.0
 11
372.8456419548667
 21
86.05245839894779
 31
0.0
  0
LINE
  5
148
  8
0
 10
372.8361261060709
 20
86.0097865453091
 30
0.0
 11
372.8941369508725
 21
86.02215883009637
 31
0.0
  0
LINE
  5
149
  8
0
 10
372.8008285537215
 20
85.99208803045634
 30
0.0
 11
372.8361261060709
 21
86.0097865453091
 31
0.0
  0
LINE
  5
14A
  8
0
 10
372.7745845888659
 20
85.95942292391587
 30
0.0
 11
372.8008285537215
 21
85.99208803045634
 31
0.0
  0
LINE
  5
14B
  8
0
 10
372.8607723145798
 20
85.91778521356477
 30
0.0
 11
372.9071243344944
 21
85.8999600881503
 31
0.0
  0
LINE
  5
14C
  8
0
 10
372.7910096398734
 20
85.91841526772441
 30
0.0
 11
372.8607723145798
 21
85.91778521356477
 31
0.0
  0
LINE
  5
14D
  8
0
 10
372.8623810467267
 20
85.93468068942497
 30
0.0
 11
372.9059571699976
 21
85.93544000655854
 31
0.0
  0
LINE
  5
14E
  8
0
 10
372.8129286659094
 20
85.97454605136672
 30
0.0
 11
372.8623810467267
 21
85.93468068942497
 31
0.0
  0
LINE
  5
14F
  8
0
 10
372.8553251445404
 20
85.98637377606065
 30
0.0
 11
372.8997032088348
 21
85.99207792559906
 31
0.0
  0
LINE
  5
150
  8
0
 10
372.784235197817
 20
85.96654117803598
 30
0.0
 11
372.8553251445404
 21
85.98637377606065
 31
0.0
  0
LINE
  5
151
  8
0
 10
372.7147967304739
 20
85.91532361666123
 30
0.0
 11
372.784235197817
 21
85.96654117803598
 31
0.0
  0
LINE
  5
152
  8
0
 10
372.828433167969
 20
85.90977807202265
 30
0.0
 11
372.9059824672835
 21
85.86092954973307
 31
0.0
  0
LINE
  5
153
  8
0
 10
372.7561825256142
 20
85.92645322183756
 30
0.0
 11
372.828433167969
 21
85.90977807202265
 31
0.0
  0
LINE
  5
154
  8
0
 10
372.6872213858092
 20
85.90790796359283
 30
0.0
 11
372.7561825256142
 21
85.92645322183756
 31
0.0
  0
LINE
  5
155
  8
0
 10
372.6247007600772
 20
85.85852552607234
 30
0.0
 11
372.6872213858092
 21
85.90790796359283
 31
0.0
  0
LINE
  5
156
  8
0
 10
372.5255329191243
 20
85.83314602171485
 30
0.0
 11
372.6247007600772
 21
85.85852552607234
 31
0.0
  0
LINE
  5
157
  8
0
 10
372.4431258071135
 20
85.8280489296504
 30
0.0
 11
372.5255329191243
 21
85.83314602171485
 31
0.0
  0
LINE
  5
158
  8
0
 10
372.307127596967
 20
85.89798146328832
 30
0.0
 11
372.4431258071135
 21
85.8280489296504
 31
0.0
  0
ENDSEC
  0
EOF
