  0
SECTION
  2
HEADER
  9
$ACADVER
  1
AC1009
  9
$DWGCODEPAGE
  3
ansi_1252
  9
$INSBASE
 10
374.0213303352688
 20
85.90817989961334
 30
0.0
  9
$EXTMIN
 10
373.3944108927215
 20
85.34636798813152
 30
0.0
  9
$EXTMAX
 10
374.6247596252747
 20
86.54636798813152
 30
0.0
  9
$LIMMIN
 10
260.9765480859805
 20
-17.8231871367001
  9
$LIMMAX
 10
331.9963493331041
 20
29.49370838591866
  9
$ORTHOMODE
 70
     0
  9
$REGENMODE
 70
     1
  9
$FILLMODE
 70
     1
  9
$QTEXTMODE
 70
     0
  9
$MIRRTEXT
 70
     1
  9
$DRAGMODE
 70
     2
  9
$LTSCALE
 40
0.5
  9
$OSMODE
 70
    37
  9
$ATTMODE
 70
     1
  9
$TEXTSIZE
 40
0.25
  9
$TRACEWID
 40
0.05
  9
$TEXTSTYLE
  7
CITYBLUEPRINT
  9
$CLAYER
  8
0
  9
$CELTYPE
  6
BYLAYER
  9
$CECOLOR
 62
   256
  9
$DIMSCALE
 40
1.0
  9
$DIMASZ
 40
3.0
  9
$DIMEXO
 40
2.5
  9
$DIMDLI
 40
10.0
  9
$DIMRND
 40
0.0
  9
$DIMDLE
 40
1.25
  9
$DIMEXE
 40
2.5
  9
$DIMTP
 40
0.0
  9
$DIMTM
 40
0.0
  9
$DIMTXT
 40
3.0
  9
$DIMCEN
 40
-3.0
  9
$DIMTSZ
 40
0.0
  9
$DIMTOL
 70
     0
  9
$DIMLIM
 70
     0
  9
$DIMTIH
 70
     0
  9
$DIMTOH
 70
     0
  9
$DIMSE1
 70
     0
  9
$DIMSE2
 70
     0
  9
$DIMTAD
 70
     0
  9
$DIMZIN
 70
     0
  9
$DIMBLK
  1

  9
$DIMASO
 70
     1
  9
$DIMSHO
 70
     0
  9
$DIMPOST
  1

  9
$DIMAPOST
  1

  9
$DIMALT
 70
     0
  9
$DIMALTD
 70
     2
  9
$DIMALTF
 40
0.039
  9
$DIMLFAC
 40
1.0
  9
$DIMTOFL
 70
     0
  9
$DIMTVP
 40
1.5
  9
$DIMTIX
 70
     0
  9
$DIMSOXD
 70
     0
  9
$DIMSAH
 70
     0
  9
$DIMBLK1
  1

  9
$DIMBLK2
  1

  9
$DIMSTYLE
  2
STANDARD
  9
$DIMCLRD
 70
     0
  9
$DIMCLRE
 70
     0
  9
$DIMCLRT
 70
     0
  9
$DIMTFAC
 40
0.75
  9
$DIMGAP
 40
1.5
  9
$LUNITS
 70
     2
  9
$LUPREC
 70
     3
  9
$SKETCHINC
 40
0.718912579955703
  9
$FILLETRAD
 40
0.0
  9
$AUNITS
 70
     0
  9
$AUPREC
 70
     4
  9
$MENU
  1
acad
  9
$ELEVATION
 40
0.0
  9
$PELEVATION
 40
0.0
  9
$THICKNESS
 40
0.0
  9
$LIMCHECK
 70
     0
  9
$CHAMFERA
 40
0.5
  9
$CHAMFERB
 40
0.5
  9
$SKPOLY
 70
     0
  9
$TDCREATE
 40
2449868.591385417
  9
$TDUPDATE
 40
2457464.593240741
  9
$TDINDWG
 40
3.3473049306
  9
$TDUSRTIMER
 40
3.3473049306
  9
$USRTIMER
 70
     1
  9
$ANGBASE
 50
0.0
  9
$ANGDIR
 70
     0
  9
$PDMODE
 70
     3
  9
$PDSIZE
 40
0.0
  9
$PLINEWID
 40
0.0
  9
$COORDS
 70
     1
  9
$SPLFRAME
 70
     0
  9
$SPLINETYPE
 70
     6
  9
$SPLINESEGS
 70
     6
  9
$ATTDIA
 70
     0
  9
$ATTREQ
 70
     1
  9
$HANDLING
 70
     1
  9
$HANDSEED
  5
141
  9
$SURFTAB1
 70
    18
  9
$SURFTAB2
 70
    18
  9
$SURFTYPE
 70
     6
  9
$SURFU
 70
    18
  9
$SURFV
 70
    18
  9
$UCSNAME
  2

  9
$UCSORG
 10
0.0
 20
0.0
 30
0.0
  9
$UCSXDIR
 10
1.0
 20
0.0
 30
0.0
  9
$UCSYDIR
 10
0.0
 20
1.0
 30
0.0
  9
$PUCSNAME
  2

  9
$PUCSORG
 10
0.0
 20
0.0
 30
0.0
  9
$PUCSXDIR
 10
1.0
 20
0.0
 30
0.0
  9
$PUCSYDIR
 10
0.0
 20
1.0
 30
0.0
  9
$USERI1
 70
     0
  9
$USERI2
 70
     0
  9
$USERI3
 70
     0
  9
$USERI4
 70
     0
  9
$USERI5
 70
     0
  9
$USERR1
 40
0.0
  9
$USERR2
 40
0.0
  9
$USERR3
 40
0.0
  9
$USERR4
 40
0.0
  9
$USERR5
 40
0.0
  9
$WORLDVIEW
 70
     1
  9
$SHADEDGE
 70
     3
  9
$SHADEDIF
 70
    70
  9
$TILEMODE
 70
     1
  9
$MAXACTVP
 70
    16
  9
$PLIMCHECK
 70
     0
  9
$PEXTMIN
 10
1.000000000000000E+20
 20
1.000000000000000E+20
 30
1.000000000000000E+20
  9
$PEXTMAX
 10
-1.000000000000000E+20
 20
-1.000000000000000E+20
 30
-1.000000000000000E+20
  9
$PLIMMIN
 10
0.0
 20
0.0
  9
$PLIMMAX
 10
12.0
 20
9.0
  9
$UNITMODE
 70
     0
  9
$VISRETAIN
 70
     0
  9
$PLINEGEN
 70
     0
  9
$PSLTSCALE
 70
     1
  0
ENDSEC
  0
SECTION
  2
TABLES
  0
TABLE
  2
VPORT
 70
     1
  0
VPORT
  2
*ACTIVE
 70
     0
 10
0.0
 20
0.0
 11
1.0
 21
1.0
 12
374.0097870218201
 22
86.07895754044985
 13
0.0
 23
0.0
 14
5.0
 24
5.0
 15
10.0
 25
10.0
 16
0.0
 26
0.0
 36
1.0
 17
0.0
 27
0.0
 37
0.0
 40
1.492503014031991
 41
1.503537735849057
 42
50.0
 43
0.0
 44
0.0
 50
0.0
 51
0.0
 71
     0
 72
   100
 73
     1
 74
     0
 75
     0
 76
     0
 77
     0
 78
     0
  0
ENDTAB
  0
TABLE
  2
LTYPE
 70
     1
  0
LTYPE
  2
CONTINUOUS
 70
     0
  3
Solid line
 72
    65
 73
     0
 40
0.0
  0
ENDTAB
  0
TABLE
  2
LAYER
 70
     1
  0
LAYER
  2
0
 70
     0
 62
     7
  6
CONTINUOUS
  0
ENDTAB
  0
TABLE
  2
STYLE
 70
     2
  0
STYLE
  2
STANDARD
 70
     0
 40
0.0
 41
1.0
 50
0.0
 71
     0
 42
3.0
  3
TXT
  4

  0
STYLE
  2
CITYBLUEPRINT
 70
     0
 40
0.2
 41
1.0
 50
30.0
 71
     0
 42
0.25
  3
cibt____.pfb
  4

  0
ENDTAB
  0
TABLE
  2
VIEW
 70
     0
  0
ENDTAB
  0
TABLE
  2
UCS
 70
     0
  0
ENDTAB
  0
TABLE
  2
APPID
 70
     2
  0
APPID
  2
ACAD
 70
     0
  0
APPID
  2
DCO15
 70
     0
  0
ENDTAB
  0
TABLE
  2
DIMSTYLE
 70
     1
  0
DIMSTYLE
  2
STANDARD
 70
     0
  3

  4

  5

  6

  7

 40
1.0
 41
0.18
 42
0.0625
 43
0.38
 44
0.18
 45
0.0
 46
0.0
 47
0.0
 48
0.0
140
0.18
141
0.09
142
0.0
143
25.4
144
1.0
145
0.0
146
1.0
147
0.09
 71
     0
 72
     0
 73
     1
 74
     1
 75
     0
 76
     0
 77
     0
 78
     0
170
     0
171
     2
172
     0
173
     0
174
     0
175
     0
176
     0
177
     0
178
     0
  0
ENDTAB
  0
ENDSEC
  0
SECTION
  2
BLOCKS
  0
BLOCK
  8
0
  2
$MODEL_SPACE
 70
     0
 10
0.0
 20
0.0
 30
0.0
  3
$MODEL_SPACE
  1

  0
ENDBLK
  5
6
  8
0
  0
BLOCK
 67
     1
  8
0
  2
$PAPER_SPACE
 70
     0
 10
0.0
 20
0.0
 30
0.0
  3
$PAPER_SPACE
  1

  0
ENDBLK
  5
9
 67
     1
  8
0
  0
ENDSEC
  0
SECTION
  2
ENTITIES
  0
LINE
  5
1E
  8
0
 10
373.8451686810383
 20
85.41287544543788
 30
0.0
 11
373.8635381206876
 21
85.36356259904487
 31
0.0
  0
LINE
  5
1F
  8
0
 10
373.85203198816
 20
85.35128845855012
 30
0.0
 11
373.8451686810383
 21
85.37345761098557
 31
0.0
  0
LINE
  5
20
  8
0
 10
373.7324792339591
 20
85.37837808140416
 30
0.0
 11
373.85203198816
 21
85.35128845855012
 31
0.0
  0
LINE
  5
21
  8
0
 10
373.8635381206876
 20
86.23589171182817
 30
0.0
 11
373.760033393433
 21
86.3098069103142
 31
0.0
  0
LINE
  5
22
  8
0
 10
373.7922303783128
 20
86.3393838039293
 30
0.0
 11
373.8635381206876
 21
86.29007095753629
 31
0.0
  0
LINE
  5
23
  8
0
 10
373.8796366131275
 20
86.54636798813152
 30
0.0
 11
373.8198350032803
 21
86.54636798813152
 31
0.0
  0
LINE
  5
24
  8
0
 10
373.7968732037187
 20
85.42028318661752
 30
0.0
 11
373.8451686810383
 21
85.41287544543788
 31
0.0
  0
LINE
  5
25
  8
0
 10
373.8451686810383
 20
85.37345761098557
 30
0.0
 11
373.7968732037187
 21
85.42028318661752
 31
0.0
  0
LINE
  5
26
  8
0
 10
373.656579131672
 20
85.48187017350529
 30
0.0
 11
373.7324792339591
 21
85.37837808140416
 31
0.0
  0
LINE
  5
27
  8
0
 10
373.6979608363764
 20
85.5508649015727
 30
0.0
 11
373.656579131672
 21
85.48187017350529
 31
0.0
  0
LINE
  5
28
  8
0
 10
373.6634424387937
 20
85.6198596296401
 30
0.0
 11
373.6979608363764
 21
85.5508649015727
 31
0.0
  0
LINE
  5
29
  8
0
 10
373.564580536945
 20
85.6001236768622
 30
0.0
 11
373.6634424387937
 21
85.6198596296401
 31
0.0
  0
LINE
  5
2A
  8
0
 10
373.5461606318021
 20
85.59769047720465
 30
0.0
 11
373.564580536945
 21
85.6001236768622
 31
0.0
  0
LINE
  5
2B
  8
0
 10
373.4449773172505
 20
85.72578492139877
 30
0.0
 11
373.5461606318021
 21
85.59769047720465
 31
0.0
  0
LINE
  5
2C
  8
0
 10
373.4679895823056
 20
85.78250550897143
 30
0.0
 11
373.4449773172505
 21
85.72578492139877
 31
0.0
  0
LINE
  5
2D
  8
0
 10
373.4840880747455
 20
85.81700287300512
 30
0.0
 11
373.4679895823056
 21
85.78250550897143
 31
0.0
  0
LINE
  5
2E
  8
0
 10
373.403595612546
 20
85.83668475467952
 30
0.0
 11
373.4840880747455
 21
85.81700287300512
 31
0.0
  0
LINE
  5
2F
  8
0
 10
373.4312002375135
 20
85.89335127114869
 30
0.0
 11
373.403595612546
 21
85.83668475467952
 31
0.0
  0
LINE
  5
30
  8
0
 10
373.470260529515
 20
85.94509731719924
 30
0.0
 11
373.4312002375135
 21
85.89335127114869
 31
0.0
  0
LINE
  5
31
  8
0
 10
373.6864547038488
 20
85.97218694005329
 30
0.0
 11
373.470260529515
 21
85.94509731719924
 31
0.0
  0
LINE
  5
32
  8
0
 10
373.7163807415192
 20
86.02393298610384
 30
0.0
 11
373.6864547038488
 21
85.97218694005329
 31
0.0
  0
LINE
  5
33
  8
0
 10
373.5921851619124
 20
86.0264202568649
 30
0.0
 11
373.7163807415192
 21
86.02393298610384
 31
0.0
  0
LINE
  5
34
  8
0
 10
373.5346544992746
 20
86.07816630291546
 30
0.0
 11
373.5921851619124
 21
86.0264202568649
 31
0.0
  0
LINE
  5
35
  8
0
 10
373.5071003398007
 20
86.11017639618811
 30
0.0
 11
373.5346544992746
 21
86.07816630291546
 31
0.0
  0
LINE
  5
36
  8
0
 10
373.4266078776012
 20
86.09292771417125
 30
0.0
 11
373.5071003398007
 21
86.11017639618811
 31
0.0
  0
LINE
  5
37
  8
0
 10
373.3990032526337
 20
86.11515093771021
 30
0.0
 11
373.4266078776012
 21
86.09292771417125
 31
0.0
  0
LINE
  5
38
  8
0
 10
373.4151017450736
 20
86.15456877216252
 30
0.0
 11
373.3990032526337
 21
86.11515093771021
 31
0.0
  0
LINE
  5
39
  8
0
 10
373.4840880747455
 20
86.17917112425552
 30
0.0
 11
373.4151017450736
 21
86.15456877216252
 31
0.0
  0
LINE
  5
3A
  8
0
 10
373.5461606318021
 20
86.20382754745202
 30
0.0
 11
373.4840880747455
 21
86.17917112425552
 31
0.0
  0
LINE
  5
3B
  8
0
 10
373.5300621393623
 20
86.21615575905028
 30
0.0
 11
373.5461606318021
 21
86.20382754745202
 31
0.0
  0
LINE
  5
3C
  8
0
 10
373.4403849573382
 20
86.21864302981133
 30
0.0
 11
373.5300621393623
 21
86.21615575905028
 31
0.0
  0
LINE
  5
3D
  8
0
 10
373.3944108927215
 20
86.26049406392119
 30
0.0
 11
373.4403849573382
 21
86.21864302981133
 31
0.0
  0
LINE
  5
3E
  8
0
 10
373.4242864648983
 20
86.28266321635664
 30
0.0
 11
373.3944108927215
 21
86.26049406392119
 31
0.0
  0
LINE
  5
3F
  8
0
 10
373.4771743021303
 20
86.3098069103142
 30
0.0
 11
373.4242864648983
 21
86.28266321635664
 31
0.0
  0
LINE
  5
40
  8
0
 10
373.5691728968573
 20
86.3294887919886
 30
0.0
 11
373.4771743021303
 21
86.3098069103142
 31
0.0
  0
LINE
  5
41
  8
0
 10
373.6197897868799
 20
86.34430427434789
 30
0.0
 11
373.5691728968573
 21
86.3294887919886
 31
0.0
  0
LINE
  5
42
  8
0
 10
373.6128760142647
 20
86.3837221088002
 30
0.0
 11
373.6197897868799
 21
86.34430427434789
 31
0.0
  0
LINE
  5
43
  8
0
 10
373.615146961474
 20
86.4280604136711
 30
0.0
 11
373.6128760142647
 21
86.3837221088002
 31
0.0
  0
LINE
  5
44
  8
0
 10
373.6588500788814
 20
86.47737326006411
 30
0.0
 11
373.615146961474
 21
86.4280604136711
 31
0.0
  0
LINE
  5
45
  8
0
 10
373.7025531962887
 20
86.46996551888446
 30
0.0
 11
373.6588500788814
 21
86.47737326006411
 31
0.0
  0
LINE
  5
46
  8
0
 10
373.760033393433
 20
86.3098069103142
 30
0.0
 11
373.7025531962887
 21
86.46996551888446
 31
0.0
  0
LINE
  5
47
  8
0
 10
373.799144150928
 20
86.39605032039844
 30
0.0
 11
373.7922303783128
 21
86.3393838039293
 31
0.0
  0
LINE
  5
48
  8
0
 10
373.7623548061359
 20
86.44779636644901
 30
0.0
 11
373.799144150928
 21
86.39605032039844
 31
0.0
  0
LINE
  5
49
  8
0
 10
373.7807747112788
 20
86.46504504846585
 30
0.0
 11
373.7623548061359
 21
86.44779636644901
 31
0.0
  0
LINE
  5
4A
  8
0
 10
373.8497610409506
 20
86.50197561215711
 30
0.0
 11
373.7807747112788
 21
86.46504504846585
 31
0.0
  0
LINE
  5
4B
  8
0
 10
373.8290701885985
 20
86.51430382375537
 30
0.0
 11
373.8497610409506
 21
86.50197561215711
 31
0.0
  0
LINE
  5
4C
  8
0
 10
373.8198350032803
 20
86.54636798813152
 30
0.0
 11
373.8290701885985
 21
86.51430382375537
 31
0.0
  0
LINE
  5
4D
  8
0
 10
374.0613123898786
 20
86.0264202568649
 30
0.0
 11
373.9946474729097
 21
86.01409204526665
 31
0.0
  0
LINE
  5
4E
  8
0
 10
374.1372124921658
 20
86.06832536207826
 30
0.0
 11
374.0613123898786
 21
86.0264202568649
 31
0.0
  0
LINE
  5
4F
  8
0
 10
374.1763232496608
 20
86.02890752762595
 30
0.0
 11
374.1372124921658
 21
86.06832536207826
 31
0.0
  0
LINE
  5
50
  8
0
 10
374.1487186246933
 20
85.9672664696347
 30
0.0
 11
374.1763232496608
 21
86.02890752762595
 31
0.0
  0
LINE
  5
51
  8
0
 10
374.0843246549338
 20
85.94509731719924
 30
0.0
 11
374.1487186246933
 21
85.9672664696347
 31
0.0
  0
LINE
  5
52
  8
0
 10
374.0958307874613
 20
85.90816675350798
 30
0.0
 11
374.0843246549338
 21
85.94509731719924
 31
0.0
  0
LINE
  5
53
  8
0
 10
374.1395339048687
 20
85.85642070745743
 30
0.0
 11
374.0958307874613
 21
85.90816675350798
 31
0.0
  0
LINE
  5
54
  8
0
 10
374.1004231473736
 20
85.83425155502198
 30
0.0
 11
374.1395339048687
 21
85.85642070745743
 31
0.0
  0
LINE
  5
55
  8
0
 10
374.1349415449563
 20
85.80218739064583
 30
0.0
 11
374.1004231473736
 21
85.83425155502198
 31
0.0
  0
LINE
  5
56
  8
0
 10
374.0705475751968
 20
85.77509776779178
 30
0.0
 11
374.1349415449563
 21
85.80218739064583
 31
0.0
  0
LINE
  5
57
  8
0
 10
373.9969184201191
 20
85.80710786106442
 30
0.0
 11
374.0705475751968
 21
85.77509776779178
 31
0.0
  0
LINE
  5
58
  8
0
 10
373.9555367154146
 20
85.82435654308128
 30
0.0
 11
373.9969184201191
 21
85.80710786106442
 31
0.0
  0
LINE
  5
59
  8
0
 10
373.8911427456551
 20
85.84160522509814
 30
0.0
 11
373.9555367154146
 21
85.82435654308128
 31
0.0
  0
LINE
  5
5A
  8
0
 10
373.8727228405123
 20
85.92049496510624
 30
0.0
 11
373.8911427456551
 21
85.84160522509814
 31
0.0
  0
LINE
  5
5B
  8
0
 10
373.9647214352393
 20
85.93276910560098
 30
0.0
 11
373.8727228405123
 21
85.92049496510624
 31
0.0
  0
LINE
  5
5C
  8
0
 10
373.9555367154146
 20
86.00425110442944
 30
0.0
 11
373.9647214352393
 21
85.93276910560098
 31
0.0
  0
LINE
  5
5D
  8
0
 10
373.9946474729097
 20
86.01409204526665
 30
0.0
 11
373.9555367154146
 21
86.00425110442944
 31
0.0
  0
LINE
  5
5E
  8
0
 10
373.9831413403821
 20
85.58287499484534
 30
0.0
 11
374.0153383252619
 21
85.63710831165696
 31
0.0
  0
LINE
  5
5F
  8
0
 10
373.960129075327
 20
85.51144706712039
 30
0.0
 11
373.9831413403821
 21
85.58287499484534
 31
0.0
  0
LINE
  5
60
  8
0
 10
373.9026488781826
 20
85.44980600912913
 30
0.0
 11
373.960129075327
 21
85.51144706712039
 31
0.0
  0
LINE
  5
61
  8
0
 10
373.9187473706226
 20
85.40546770425823
 30
0.0
 11
373.9026488781826
 21
85.44980600912913
 31
0.0
  0
LINE
  5
62
  8
0
 10
373.9279320904471
 20
85.35128845855012
 30
0.0
 11
373.9187473706226
 21
85.40546770425823
 31
0.0
  0
LINE
  5
63
  8
0
 10
373.8911427456551
 20
85.34636798813152
 30
0.0
 11
373.9279320904471
 21
85.35128845855012
 31
0.0
  0
LINE
  5
64
  8
0
 10
373.8635381206876
 20
85.36356259904487
 30
0.0
 11
373.8911427456551
 21
85.34636798813152
 31
0.0
  0
LINE
  5
65
  8
0
 10
373.9371168102718
 20
86.22599669988747
 30
0.0
 11
373.8635381206876
 21
86.23589171182817
 31
0.0
  0
LINE
  5
66
  8
0
 10
373.8635381206876
 20
86.29007095753629
 30
0.0
 11
373.9371168102718
 21
86.22599669988747
 31
0.0
  0
LINE
  5
67
  8
0
 10
373.9302535031501
 20
86.50197561215711
 30
0.0
 11
373.8796366131275
 21
86.54636798813152
 31
0.0
  0
LINE
  5
68
  8
0
 10
373.9693137951516
 20
86.4872142009013
 30
0.0
 11
373.9302535031501
 21
86.50197561215711
 31
0.0
  0
LINE
  5
69
  8
0
 10
373.9923260602067
 20
86.51922429417397
 30
0.0
 11
373.9693137951516
 21
86.4872142009013
 31
0.0
  0
LINE
  5
6A
  8
0
 10
373.960129075327
 20
86.53155250577221
 30
0.0
 11
373.9923260602067
 21
86.51922429417397
 31
0.0
  0
LINE
  5
6B
  8
0
 10
373.960129075327
 20
86.54636798813152
 30
0.0
 11
373.960129075327
 21
86.53155250577221
 31
0.0
  0
LINE
  5
6C
  8
0
 10
374.0291154049988
 20
86.54636798813152
 30
0.0
 11
373.960129075327
 21
86.54636798813152
 31
0.0
  0
LINE
  5
6D
  8
0
 10
374.0360291776141
 20
86.4231399432525
 30
0.0
 11
374.0291154049988
 21
86.54636798813152
 31
0.0
  0
LINE
  5
6E
  8
0
 10
374.0682261624938
 20
86.35165794442405
 30
0.0
 11
374.0360291776141
 21
86.4231399432525
 31
0.0
  0
LINE
  5
6F
  8
0
 10
374.0981017346707
 20
86.40097079081704
 30
0.0
 11
374.0682261624938
 21
86.35165794442405
 31
0.0
  0
LINE
  5
70
  8
0
 10
374.1533109846056
 20
86.5167910945164
 30
0.0
 11
374.0981017346707
 21
86.40097079081704
 31
0.0
  0
LINE
  5
71
  8
0
 10
374.1901003293978
 20
86.53896024695186
 30
0.0
 11
374.1533109846056
 21
86.5167910945164
 31
0.0
  0
LINE
  5
72
  8
0
 10
374.1924217421006
 20
86.51430382375537
 30
0.0
 11
374.1901003293978
 21
86.53896024695186
 31
0.0
  0
LINE
  5
73
  8
0
 10
374.2268896741898
 20
86.4625577777048
 30
0.0
 11
374.1924217421006
 21
86.51430382375537
 31
0.0
  0
LINE
  5
74
  8
0
 10
374.2820989241247
 20
86.50197561215711
 30
0.0
 11
374.2268896741898
 21
86.4625577777048
 31
0.0
  0
LINE
  5
75
  8
0
 10
374.3510852537966
 20
86.50446288291816
 30
0.0
 11
374.2820989241247
 21
86.50197561215711
 31
0.0
  0
LINE
  5
76
  8
0
 10
374.328123454235
 20
86.4428758960304
 30
0.0
 11
374.3510852537966
 21
86.50446288291816
 31
0.0
  0
LINE
  5
77
  8
0
 10
374.3695051589394
 20
86.4576373072862
 30
0.0
 11
374.328123454235
 21
86.4428758960304
 31
0.0
  0
LINE
  5
78
  8
0
 10
374.3786898787641
 20
86.4034039904746
 30
0.0
 11
374.3695051589394
 21
86.4576373072862
 31
0.0
  0
LINE
  5
79
  8
0
 10
374.341900533972
 20
86.34181700358684
 30
0.0
 11
374.3786898787641
 21
86.4034039904746
 31
0.0
  0
LINE
  5
7A
  8
0
 10
374.2959264693553
 20
86.24324538190433
 30
0.0
 11
374.341900533972
 21
86.34181700358684
 31
0.0
  0
LINE
  5
7B
  8
0
 10
374.3901960112917
 20
86.26298133468224
 30
0.0
 11
374.2959264693553
 21
86.24324538190433
 31
0.0
  0
LINE
  5
7C
  8
0
 10
374.4615037536665
 20
86.35663248594614
 30
0.0
 11
374.3901960112917
 21
86.26298133468224
 31
0.0
  0
LINE
  5
7D
  8
0
 10
374.5327610305477
 20
86.32456832156998
 30
0.0
 11
374.4615037536665
 21
86.35663248594614
 31
0.0
  0
LINE
  5
7E
  8
0
 10
374.5374038559536
 20
86.28515048711769
 30
0.0
 11
374.5327610305477
 21
86.32456832156998
 31
0.0
  0
LINE
  5
7F
  8
0
 10
374.4891083786339
 20
86.25806086426363
 30
0.0
 11
374.5374038559536
 21
86.28515048711769
 31
0.0
  0
LINE
  5
80
  8
0
 10
374.525897723426
 20
86.22848397064853
 30
0.0
 11
374.4891083786339
 21
86.25806086426363
 31
0.0
  0
LINE
  5
81
  8
0
 10
374.578785560658
 20
86.23091717030607
 30
0.0
 11
374.525897723426
 21
86.22848397064853
 31
0.0
  0
LINE
  5
82
  8
0
 10
374.6086611328349
 20
86.20382754745202
 30
0.0
 11
374.578785560658
 21
86.23091717030607
 31
0.0
  0
LINE
  5
83
  8
0
 10
374.6063901856255
 20
86.09292771417125
 30
0.0
 11
374.6086611328349
 21
86.20382754745202
 31
0.0
  0
LINE
  5
84
  8
0
 10
374.5810565078674
 20
86.0707585617358
 30
0.0
 11
374.6063901856255
 21
86.09292771417125
 31
0.0
  0
LINE
  5
85
  8
0
 10
374.4591823409635
 20
86.09790225569336
 30
0.0
 11
374.5810565078674
 21
86.0707585617358
 31
0.0
  0
LINE
  5
86
  8
0
 10
374.3740975188518
 20
86.09790225569336
 30
0.0
 11
374.4591823409635
 21
86.09790225569336
 31
0.0
  0
LINE
  5
87
  8
0
 10
374.28901269674
 20
86.06340489165966
 30
0.0
 11
374.3740975188518
 21
86.09790225569336
 31
0.0
  0
LINE
  5
88
  8
0
 10
374.2775065642124
 20
86.006684304087
 30
0.0
 11
374.28901269674
 21
86.06340489165966
 31
0.0
  0
LINE
  5
89
  8
0
 10
374.3649127990271
 20
86.01409204526665
 30
0.0
 11
374.2775065642124
 21
86.006684304087
 31
0.0
  0
LINE
  5
8A
  8
0
 10
374.4844655532281
 20
85.9968433632498
 30
0.0
 11
374.3649127990271
 21
86.01409204526665
 31
0.0
  0
LINE
  5
8B
  8
0
 10
374.5213053635137
 20
85.93033590594344
 30
0.0
 11
374.4844655532281
 21
85.9968433632498
 31
0.0
  0
LINE
  5
8C
  8
0
 10
374.473009886194
 20
85.89335127114869
 30
0.0
 11
374.5213053635137
 21
85.93033590594344
 31
0.0
  0
LINE
  5
8D
  8
0
 10
374.539674803163
 20
85.86377437753359
 30
0.0
 11
374.473009886194
 21
85.89335127114869
 31
0.0
  0
LINE
  5
8E
  8
0
 10
374.5856993332733
 20
85.83425155502198
 30
0.0
 11
374.539674803163
 21
85.86377437753359
 31
0.0
  0
LINE
  5
8F
  8
0
 10
374.6247596252747
 20
85.78250550897143
 30
0.0
 11
374.5856993332733
 21
85.83425155502198
 31
0.0
  0
LINE
  5
90
  8
0
 10
374.592562640395
 20
85.70361576896332
 30
0.0
 11
374.6247596252747
 21
85.78250550897143
 31
0.0
  0
LINE
  5
91
  8
0
 10
374.6201672653624
 20
85.62726737081975
 30
0.0
 11
374.592562640395
 21
85.70361576896332
 31
0.0
  0
LINE
  5
92
  8
0
 10
374.5672794281304
 20
85.60753141804184
 30
0.0
 11
374.6201672653624
 21
85.62726737081975
 31
0.0
  0
LINE
  5
93
  8
0
 10
374.5120701781955
 20
85.5755213247692
 30
0.0
 11
374.5672794281304
 21
85.60753141804184
 31
0.0
  0
LINE
  5
94
  8
0
 10
374.4591823409635
 20
85.58287499484534
 30
0.0
 11
374.5120701781955
 21
85.5755213247692
 31
0.0
  0
LINE
  5
95
  8
0
 10
374.3971097839069
 20
85.590282736025
 30
0.0
 11
374.4591823409635
 21
85.58287499484534
 31
0.0
  0
LINE
  5
96
  8
0
 10
374.3534066664996
 20
85.56319311317094
 30
0.0
 11
374.3971097839069
 21
85.590282736025
 31
0.0
  0
LINE
  5
97
  8
0
 10
374.394788371204
 20
85.50895979635933
 30
0.0
 11
374.3534066664996
 21
85.56319311317094
 31
0.0
  0
LINE
  5
98
  8
0
 10
374.4430838485237
 20
85.41287544543788
 30
0.0
 11
374.394788371204
 21
85.50895979635933
 31
0.0
  0
LINE
  5
99
  8
0
 10
374.4062945037315
 20
85.36356259904487
 30
0.0
 11
374.4430838485237
 21
85.41287544543788
 31
0.0
  0
LINE
  5
9A
  8
0
 10
374.3764189315547
 20
85.38329855182278
 30
0.0
 11
374.4062945037315
 21
85.36356259904487
 31
0.0
  0
LINE
  5
9B
  8
0
 10
374.3786898787641
 20
85.40795497501928
 30
0.0
 11
374.3764189315547
 21
85.38329855182278
 31
0.0
  0
LINE
  5
9C
  8
0
 10
374.3740975188518
 20
85.43012412745473
 30
0.0
 11
374.3786898787641
 21
85.40795497501928
 31
0.0
  0
LINE
  5
9D
  8
0
 10
374.3327158141473
 20
85.44980600912913
 30
0.0
 11
374.3740975188518
 21
85.43012412745473
 31
0.0
  0
LINE
  5
9E
  8
0
 10
374.3442219466749
 20
85.40795497501928
 30
0.0
 11
374.3327158141473
 21
85.44980600912913
 31
0.0
  0
LINE
  5
9F
  8
0
 10
374.328123454235
 20
85.36604986980592
 30
0.0
 11
374.3442219466749
 21
85.40795497501928
 31
0.0
  0
LINE
  5
A0
  8
0
 10
374.2729142043001
 20
85.34636798813152
 30
0.0
 11
374.328123454235
 21
85.36604986980592
 31
0.0
  0
LINE
  5
A1
  8
0
 10
374.3073821363893
 20
85.40303450460067
 30
0.0
 11
374.2729142043001
 21
85.34636798813152
 31
0.0
  0
LINE
  5
A2
  8
0
 10
374.2751851515095
 20
85.44245233905298
 30
0.0
 11
374.3073821363893
 21
85.40303450460067
 31
0.0
  0
LINE
  5
A3
  8
0
 10
374.2544942991573
 20
85.44245233905298
 30
0.0
 11
374.2751851515095
 21
85.44245233905298
 31
0.0
  0
LINE
  5
A4
  8
0
 10
374.2338034468051
 20
85.34636798813152
 30
0.0
 11
374.2544942991573
 21
85.44245233905298
 31
0.0
  0
LINE
  5
A5
  8
0
 10
374.1326201322534
 20
85.34636798813152
 30
0.0
 11
374.2338034468051
 21
85.34636798813152
 31
0.0
  0
LINE
  5
A6
  8
0
 10
374.0590414426692
 20
85.37097034022452
 30
0.0
 11
374.1326201322534
 21
85.34636798813152
 31
0.0
  0
LINE
  5
A7
  8
0
 10
374.0199306851742
 20
85.49171111434248
 30
0.0
 11
374.0590414426692
 21
85.37097034022452
 31
0.0
  0
LINE
  5
A8
  8
0
 10
374.0475353101417
 20
85.5656263128285
 30
0.0
 11
374.0199306851742
 21
85.49171111434248
 31
0.0
  0
LINE
  5
A9
  8
0
 10
374.038350590317
 20
85.62229282929765
 30
0.0
 11
374.0475353101417
 21
85.5656263128285
 31
0.0
  0
LINE
  5
AA
  8
0
 10
374.0153383252619
 20
85.63710831165696
 30
0.0
 11
374.038350590317
 21
85.62229282929765
 31
0.0
  0
ENDSEC
  0
EOF
