  0
SECTION
  2
HEADER
  9
$ACADVER
  1
AC1009
  9
$DWGCODEPAGE
  3
ansi_1252
  9
$INSBASE
 10
12.0
 20
12.0
 30
0.0
  9
$EXTMIN
 10
11.87237558592155
 20
11.87365729626461
 30
-0.0015258207003583
  9
$EXTMAX
 10
12.12780767321564
 20
12.12817387018373
 30
0.0000000349246037
  9
$LIMMIN
 10
0.0
 20
0.0
  9
$LIMMAX
 10
36.0
 20
24.0
  9
$ORTHOMODE
 70
     0
  9
$REGENMODE
 70
     0
  9
$FILLMODE
 70
     1
  9
$QTEXTMODE
 70
     0
  9
$MIRRTEXT
 70
     1
  9
$DRAGMODE
 70
     2
  9
$LTSCALE
 40
1.0
  9
$OSMODE
 70
    37
  9
$ATTMODE
 70
     1
  9
$TEXTSIZE
 40
0.2
  9
$TRACEWID
 40
0.05
  9
$TEXTSTYLE
  7
STANDARD
  9
$CLAYER
  8
0
  9
$CELTYPE
  6
BYLAYER
  9
$CECOLOR
 62
   256
  9
$DIMSCALE
 40
1.0
  9
$DIMASZ
 40
0.1
  9
$DIMEXO
 40
0.0
  9
$DIMDLI
 40
0.3799999999999999
  9
$DIMRND
 40
0.0
  9
$DIMDLE
 40
0.0
  9
$DIMEXE
 40
0.0
  9
$DIMTP
 40
0.0
  9
$DIMTM
 40
0.0
  9
$DIMTXT
 40
0.18
  9
$DIMCEN
 40
0.09
  9
$DIMTSZ
 40
0.0
  9
$DIMTOL
 70
     0
  9
$DIMLIM
 70
     0
  9
$DIMTIH
 70
     0
  9
$DIMTOH
 70
     0
  9
$DIMSE1
 70
     0
  9
$DIMSE2
 70
     0
  9
$DIMTAD
 70
     0
  9
$DIMZIN
 70
     0
  9
$DIMBLK
  1

  9
$DIMASO
 70
     1
  9
$DIMSHO
 70
     0
  9
$DIMPOST
  1
'
  9
$DIMAPOST
  1
m
  9
$DIMALT
 70
     0
  9
$DIMALTD
 70
     2
  9
$DIMALTF
 40
0.3048
  9
$DIMLFAC
 40
1.0
  9
$DIMTOFL
 70
     0
  9
$DIMTVP
 40
0.0
  9
$DIMTIX
 70
     0
  9
$DIMSOXD
 70
     0
  9
$DIMSAH
 70
     0
  9
$DIMBLK1
  1

  9
$DIMBLK2
  1

  9
$DIMSTYLE
  2
STANDARD
  9
$DIMCLRD
 70
     0
  9
$DIMCLRE
 70
     0
  9
$DIMCLRT
 70
     0
  9
$DIMTFAC
 40
1.0
  9
$DIMGAP
 40
0.09
  9
$LUNITS
 70
     2
  9
$LUPREC
 70
     2
  9
$SKETCHINC
 40
0.1
  9
$FILLETRAD
 40
0.0
  9
$AUNITS
 70
     1
  9
$AUPREC
 70
     4
  9
$MENU
  1

  9
$ELEVATION
 40
0.0
  9
$PELEVATION
 40
0.0
  9
$THICKNESS
 40
0.0
  9
$LIMCHECK
 70
     0
  9
$CHAMFERA
 40
0.0
  9
$CHAMFERB
 40
0.0
  9
$SKPOLY
 70
     0
  9
$TDCREATE
 40
2447851.642186111
  9
$TDUPDATE
 40
2457464.593217593
  9
$TDINDWG
 40
0.0084222338
  9
$TDUSRTIMER
 40
0.0084222338
  9
$USRTIMER
 70
     1
  9
$ANGBASE
 50
0.0
  9
$ANGDIR
 70
     0
  9
$PDMODE
 70
     0
  9
$PDSIZE
 40
0.0
  9
$PLINEWID
 40
0.0
  9
$COORDS
 70
     1
  9
$SPLFRAME
 70
     0
  9
$SPLINETYPE
 70
     6
  9
$SPLINESEGS
 70
     8
  9
$ATTDIA
 70
     0
  9
$ATTREQ
 70
     1
  9
$HANDLING
 70
     1
  9
$HANDSEED
  5
1CC
  9
$SURFTAB1
 70
     6
  9
$SURFTAB2
 70
     6
  9
$SURFTYPE
 70
     6
  9
$SURFU
 70
     6
  9
$SURFV
 70
     6
  9
$UCSNAME
  2

  9
$UCSORG
 10
0.0
 20
0.0
 30
0.0
  9
$UCSXDIR
 10
1.0
 20
0.0
 30
0.0
  9
$UCSYDIR
 10
0.0
 20
1.0
 30
0.0
  9
$PUCSNAME
  2

  9
$PUCSORG
 10
0.0
 20
0.0
 30
0.0
  9
$PUCSXDIR
 10
1.0
 20
0.0
 30
0.0
  9
$PUCSYDIR
 10
0.0
 20
1.0
 30
0.0
  9
$USERI1
 70
     1
  9
$USERI2
 70
     0
  9
$USERI3
 70
     0
  9
$USERI4
 70
     0
  9
$USERI5
 70
     0
  9
$USERR1
 40
1.0
  9
$USERR2
 40
1.0
  9
$USERR3
 40
0.0
  9
$USERR4
 40
0.0
  9
$USERR5
 40
0.0
  9
$WORLDVIEW
 70
     1
  9
$SHADEDGE
 70
     3
  9
$SHADEDIF
 70
    70
  9
$TILEMODE
 70
     1
  9
$MAXACTVP
 70
    16
  9
$PLIMCHECK
 70
     0
  9
$PEXTMIN
 10
1.000000000000000E+20
 20
1.000000000000000E+20
 30
1.000000000000000E+20
  9
$PEXTMAX
 10
-1.000000000000000E+20
 20
-1.000000000000000E+20
 30
-1.000000000000000E+20
  9
$PLIMMIN
 10
0.0
 20
0.0
  9
$PLIMMAX
 10
12.0
 20
9.0
  9
$UNITMODE
 70
     0
  9
$VISRETAIN
 70
     0
  9
$PLINEGEN
 70
     0
  9
$PSLTSCALE
 70
     0
  0
ENDSEC
  0
SECTION
  2
TABLES
  0
TABLE
  2
VPORT
 70
     1
  0
VPORT
  2
*ACTIVE
 70
     0
 10
0.0
 20
0.0
 11
1.0
 21
1.0
 12
12.00009162956859
 22
12.00091558322417
 13
0.0
 23
0.0
 14
1.0
 24
1.0
 15
0.0
 25
0.0
 16
0.0
 26
0.0
 36
1.0
 17
0.0
 27
0.0
 37
0.0
 40
0.2571677882307775
 41
1.424347826086956
 42
50.0
 43
0.0
 44
0.0
 50
0.0
 51
0.0
 71
     0
 72
  1000
 73
     1
 74
     0
 75
     0
 76
     0
 77
     0
 78
     0
  0
ENDTAB
  0
TABLE
  2
LTYPE
 70
     1
  0
LTYPE
  2
CONTINUOUS
 70
     0
  3
Solid line
 72
    65
 73
     0
 40
0.0
  0
ENDTAB
  0
TABLE
  2
LAYER
 70
     1
  0
LAYER
  2
0
 70
     0
 62
     7
  6
CONTINUOUS
  0
ENDTAB
  0
TABLE
  2
STYLE
 70
     1
  0
STYLE
  2
STANDARD
 70
     0
 40
0.0
 41
1.0
 50
0.0
 71
     0
 42
0.2
  3
simplex
  4

  0
ENDTAB
  0
TABLE
  2
VIEW
 70
     0
  0
ENDTAB
  0
TABLE
  2
UCS
 70
     0
  0
ENDTAB
  0
TABLE
  2
APPID
 70
     1
  0
APPID
  2
ACAD
 70
     0
  0
ENDTAB
  0
TABLE
  2
DIMSTYLE
 70
     1
  0
DIMSTYLE
  2
STANDARD
 70
     0
  3

  4

  5

  6

  7

 40
1.0
 41
0.18
 42
0.0625
 43
0.38
 44
0.18
 45
0.0
 46
0.0
 47
0.0
 48
0.0
140
0.18
141
0.09
142
0.0
143
25.4
144
1.0
145
0.0
146
1.0
147
0.09
 71
     0
 72
     0
 73
     1
 74
     1
 75
     0
 76
     0
 77
     0
 78
     0
170
     0
171
     2
172
     0
173
     0
174
     0
175
     0
176
     0
177
     0
178
     0
  0
ENDTAB
  0
ENDSEC
  0
SECTION
  2
BLOCKS
  0
BLOCK
  8
0
  2
$MODEL_SPACE
 70
     0
 10
0.0
 20
0.0
 30
0.0
  3
$MODEL_SPACE
  1

  0
ENDBLK
  5
20
  8
0
  0
BLOCK
 67
     1
  8
0
  2
$PAPER_SPACE
 70
     0
 10
0.0
 20
0.0
 30
0.0
  3
$PAPER_SPACE
  1

  0
ENDBLK
  5
1E
 67
     1
  8
0
  0
ENDSEC
  0
SECTION
  2
ENTITIES
  0
LINE
  5
21
  8
0
 62
     0
 10
11.94839648586839
 20
12.11301716307566
 30
0.0
 11
11.94839648586839
 21
12.10525873079092
 31
0.0
  0
LINE
  5
22
  8
0
 62
     0
 10
11.94839648586839
 20
12.10525873079092
 30
0.0
 11
11.94839648586839
 21
12.10525873079092
 31
0.0
  0
LINE
  5
23
  8
0
 62
     0
 10
11.94839648586839
 20
12.10525873079092
 30
0.0
 11
11.940643217592
 21
12.10525873079092
 31
0.0
  0
LINE
  5
24
  8
0
 62
     0
 10
11.940643217592
 20
12.10525873079092
 30
0.0
 11
11.940643217592
 21
12.10173944191949
 31
0.0
  0
LINE
  5
25
  8
0
 62
     0
 10
11.940643217592
 20
12.10173944191949
 30
0.0
 11
11.9328899493156
 21
12.10173944191949
 31
0.0
  0
LINE
  5
26
  8
0
 62
     0
 10
11.9328899493156
 20
12.10173944191949
 30
0.0
 11
11.9328899493156
 21
12.10173944191949
 31
0.0
  0
LINE
  5
27
  8
0
 62
     0
 10
11.9328899493156
 20
12.10173944191949
 30
0.0
 11
11.9251366810392
 21
12.10173944191949
 31
0.0
  0
LINE
  5
28
  8
0
 62
     0
 10
11.9251366810392
 20
12.10173944191949
 30
0.0
 11
11.9251366810392
 21
12.10173944191949
 31
0.0
  0
LINE
  5
29
  8
0
 62
     0
 10
11.9251366810392
 20
12.10173944191949
 30
0.0
 11
11.91738341276281
 21
12.10173944191949
 31
0.0
  0
LINE
  5
2A
  8
0
 62
     0
 10
11.91738341276281
 20
12.10173944191949
 30
0.0
 11
11.91738341276281
 21
12.08966188238345
 31
0.0
  0
LINE
  5
2B
  8
0
 62
     0
 10
11.91738341276281
 20
12.08966188238345
 30
0.0
 11
11.91650417615415
 21
12.08966188238345
 31
0.0
  0
LINE
  5
2C
  8
0
 62
     0
 10
11.91650417615415
 20
12.08966188238345
 30
0.0
 11
11.91650417615415
 21
12.08190345009871
 31
0.0
  0
LINE
  5
2D
  8
0
 62
     0
 10
11.91650417615415
 20
12.08190345009871
 30
0.0
 11
11.91906195537935
 21
12.08190345009871
 31
0.0
  0
LINE
  5
2E
  8
0
 62
     0
 10
11.91906195537935
 20
12.08190345009871
 30
0.0
 11
11.91130868710295
 21
12.08190345009871
 31
0.0
  0
LINE
  5
2F
  8
0
 62
     0
 10
11.91130868710295
 20
12.08190345009871
 30
0.0
 11
11.91130868710295
 21
12.08110361171884
 31
0.0
  0
LINE
  5
30
  8
0
 62
     0
 10
11.91130868710295
 20
12.08110361171884
 30
0.0
 11
11.90355541882656
 21
12.08110361171884
 31
0.0
  0
LINE
  5
31
  8
0
 62
     0
 10
11.90355541882656
 20
12.08110361171884
 30
0.0
 11
11.90355541882656
 21
12.06982589056267
 31
0.0
  0
LINE
  5
32
  8
0
 62
     0
 10
11.90355541882656
 20
12.06982589056267
 30
0.0
 11
11.90699243466042
 21
12.06982589056267
 31
0.0
  0
LINE
  5
33
  8
0
 62
     0
 10
11.90699243466042
 20
12.06982589056267
 30
0.0
 11
11.89923916638403
 21
12.06982589056267
 31
0.0
  0
LINE
  5
34
  8
0
 62
     0
 10
11.89923916638403
 20
12.06982589056267
 30
0.0
 11
11.89923916638403
 21
12.06726640774708
 31
0.0
  0
LINE
  5
35
  8
0
 62
     0
 10
11.89923916638403
 20
12.06726640774708
 30
0.0
 11
11.89148589810763
 21
12.06726640774708
 31
0.0
  0
LINE
  5
36
  8
0
 62
     0
 10
11.89148589810763
 20
12.06726640774708
 30
0.0
 11
11.89148589810763
 21
12.05518884821104
 31
0.0
  0
LINE
  5
37
  8
0
 62
     0
 10
11.89148589810763
 20
12.05518884821104
 30
0.0
 11
11.88980735549109
 21
12.05518884821104
 31
0.0
  0
LINE
  5
38
  8
0
 62
     0
 10
11.88980735549109
 20
12.05518884821104
 30
0.0
 11
11.89756062376749
 21
12.05518884821104
 31
0.0
  0
LINE
  5
39
  8
0
 62
     0
 10
11.89756062376749
 20
12.05518884821104
 30
0.0
 11
11.89756062376749
 21
12.04911007652403
 31
0.0
  0
LINE
  5
3A
  8
0
 62
     0
 10
11.89756062376749
 20
12.04911007652403
 30
0.0
 11
11.90531389204388
 21
12.04911007652403
 31
0.0
  0
LINE
  5
3B
  8
0
 62
     0
 10
11.90531389204388
 20
12.04911007652403
 30
0.0
 11
11.90531389204388
 21
12.0517495431776
 31
0.0
  0
LINE
  5
3C
  8
0
 62
     0
 10
11.90531389204388
 20
12.0517495431776
 30
0.0
 11
11.89756062376749
 21
12.0517495431776
 31
0.0
  0
LINE
  5
3D
  8
0
 62
     0
 10
11.89756062376749
 20
12.0517495431776
 30
0.0
 11
11.89756062376749
 21
12.04479094927273
 31
0.0
  0
LINE
  5
3E
  8
0
 62
     0
 10
11.89756062376749
 20
12.04479094927273
 30
0.0
 11
11.88980735549109
 21
12.04479094927273
 31
0.0
  0
LINE
  5
3F
  8
0
 62
     0
 10
11.88980735549109
 20
12.04479094927273
 30
0.0
 11
11.88980735549109
 21
12.04567077149059
 31
0.0
  0
LINE
  5
40
  8
0
 62
     0
 10
11.88980735549109
 20
12.04567077149059
 30
0.0
 11
11.88197415661391
 21
12.04567077149059
 31
0.0
  0
LINE
  5
41
  8
0
 62
     0
 10
11.88197415661391
 20
12.04567077149059
 30
0.0
 11
11.88197415661391
 21
12.03623267860812
 31
0.0
  0
LINE
  5
42
  8
0
 62
     0
 10
11.88197415661391
 20
12.03623267860812
 30
0.0
 11
11.87773783477217
 21
12.03623267860812
 31
0.0
  0
LINE
  5
43
  8
0
 62
     0
 10
11.87773783477217
 20
12.03623267860812
 30
0.0
 11
11.87773783477217
 21
12.02839426248539
 31
0.0
  0
LINE
  5
44
  8
0
 62
     0
 10
11.87773783477217
 20
12.02839426248539
 30
0.0
 11
11.88285339322257
 21
12.02839426248539
 31
0.0
  0
LINE
  5
45
  8
0
 62
     0
 10
11.88285339322257
 20
12.02839426248539
 30
0.0
 11
11.88285339322257
 21
12.02063583020065
 31
0.0
  0
LINE
  5
46
  8
0
 62
     0
 10
11.88285339322257
 20
12.02063583020065
 30
0.0
 11
11.88549110304856
 21
12.02063583020065
 31
0.0
  0
LINE
  5
47
  8
0
 62
     0
 10
11.88549110304856
 20
12.02063583020065
 30
0.0
 11
11.88549110304856
 21
12.01287739791591
 31
0.0
  0
LINE
  5
48
  8
0
 62
     0
 10
11.88549110304856
 20
12.01287739791591
 30
0.0
 11
11.88373262983124
 21
12.01287739791591
 31
0.0
  0
LINE
  5
49
  8
0
 62
     0
 10
11.88373262983124
 20
12.01287739791591
 30
0.0
 11
11.88373262983124
 21
12.00511896563117
 31
0.0
  0
LINE
  5
4A
  8
0
 62
     0
 10
11.88373262983124
 20
12.00511896563117
 30
0.0
 11
11.88549110304856
 21
12.00511896563117
 31
0.0
  0
LINE
  5
4B
  8
0
 62
     0
 10
11.88549110304856
 20
12.00511896563117
 30
0.0
 11
11.87773783477217
 21
12.00511896563117
 31
0.0
  0
LINE
  5
4C
  8
0
 62
     0
 10
11.87773783477217
 20
12.00511896563117
 30
0.0
 11
11.87773783477217
 21
11.99480105053084
 31
0.0
  0
LINE
  5
4D
  8
0
 62
     0
 10
11.87773783477217
 20
11.99480105053084
 30
0.0
 11
11.87254234572097
 21
11.99480105053084
 31
0.0
  0
LINE
  5
4E
  8
0
 62
     0
 10
11.87254234572097
 20
11.99480105053084
 30
0.0
 11
11.87254234572097
 21
11.9870426182461
 31
0.0
  0
LINE
  5
4F
  8
0
 62
     0
 10
11.87254234572097
 20
11.9870426182461
 30
0.0
 11
11.88629040905644
 21
11.9870426182461
 31
0.0
  0
LINE
  5
50
  8
0
 62
     0
 10
11.88629040905644
 20
11.9870426182461
 30
0.0
 11
11.88629040905644
 21
11.97496505871006
 31
0.0
  0
LINE
  5
51
  8
0
 62
     0
 10
11.88629040905644
 20
11.97496505871006
 30
0.0
 11
11.88549110304856
 21
11.97496505871006
 31
0.0
  0
LINE
  5
52
  8
0
 62
     0
 10
11.88549110304856
 20
11.97496505871006
 30
0.0
 11
11.88549110304856
 21
11.96720662642532
 31
0.0
  0
LINE
  5
53
  8
0
 62
     0
 10
11.88549110304856
 20
11.96720662642532
 30
0.0
 11
11.87853714078004
 21
11.96720662642532
 31
0.0
  0
LINE
  5
54
  8
0
 62
     0
 10
11.87853714078004
 20
11.96720662642532
 30
0.0
 11
11.87853714078004
 21
11.95936821030259
 31
0.0
  0
LINE
  5
55
  8
0
 62
     0
 10
11.87853714078004
 20
11.95936821030259
 30
0.0
 11
11.88804888227376
 21
11.95936821030259
 31
0.0
  0
LINE
  5
56
  8
0
 62
     0
 10
11.88804888227376
 20
11.95936821030259
 30
0.0
 11
11.88804888227376
 21
11.94905029520227
 31
0.0
  0
LINE
  5
57
  8
0
 62
     0
 10
11.88804888227376
 20
11.94905029520227
 30
0.0
 11
11.89060666149897
 21
11.94905029520227
 31
0.0
  0
LINE
  5
58
  8
0
 62
     0
 10
11.89060666149897
 20
11.94905029520227
 30
0.0
 11
11.89060666149897
 21
11.94129186291753
 31
0.0
  0
LINE
  5
59
  8
0
 62
     0
 10
11.89060666149897
 20
11.94129186291753
 30
0.0
 11
11.90267618221789
 21
11.94129186291753
 31
0.0
  0
LINE
  5
5A
  8
0
 62
     0
 10
11.90267618221789
 20
11.94129186291753
 30
0.0
 11
11.90267618221789
 21
11.94217168513538
 31
0.0
  0
LINE
  5
5B
  8
0
 62
     0
 10
11.90267618221789
 20
11.94217168513538
 30
0.0
 11
11.90267618221789
 21
11.93441325285064
 31
0.0
  0
LINE
  5
5C
  8
0
 62
     0
 10
11.90267618221789
 20
11.93441325285064
 30
0.0
 11
11.90187687621002
 21
11.93441325285064
 31
0.0
  0
LINE
  5
5D
  8
0
 62
     0
 10
11.90187687621002
 20
11.93441325285064
 30
0.0
 11
11.90187687621002
 21
11.9266548205659
 31
0.0
  0
LINE
  5
5E
  8
0
 62
     0
 10
11.90187687621002
 20
11.9266548205659
 30
0.0
 11
11.90611319805176
 21
11.9266548205659
 31
0.0
  0
LINE
  5
5F
  8
0
 62
     0
 10
11.90611319805176
 20
11.9266548205659
 30
0.0
 11
11.90611319805176
 21
11.91881640444317
 31
0.0
  0
LINE
  5
60
  8
0
 62
     0
 10
11.90611319805176
 20
11.91881640444317
 30
0.0
 11
11.91474570293682
 21
11.91881640444317
 31
0.0
  0
LINE
  5
61
  8
0
 62
     0
 10
11.91474570293682
 20
11.91881640444317
 30
0.0
 11
11.91474570293682
 21
11.91625692162759
 31
0.0
  0
LINE
  5
62
  8
0
 62
     0
 10
11.91474570293682
 20
11.91625692162759
 30
0.0
 11
11.92249897121321
 21
11.91625692162759
 31
0.0
  0
LINE
  5
63
  8
0
 62
     0
 10
11.92249897121321
 20
11.91625692162759
 30
0.0
 11
11.92249897121321
 21
11.92745465894577
 31
0.0
  0
LINE
  5
64
  8
0
 62
     0
 10
11.92249897121321
 20
11.92745465894577
 30
0.0
 11
11.91394639692894
 21
11.92745465894577
 31
0.0
  0
LINE
  5
65
  8
0
 62
     0
 10
11.91394639692894
 20
11.92745465894577
 30
0.0
 11
11.91394639692894
 21
11.93353343063279
 31
0.0
  0
LINE
  5
66
  8
0
 62
     0
 10
11.91394639692894
 20
11.93353343063279
 30
0.0
 11
11.91394639692894
 21
11.92577499834804
 31
0.0
  0
LINE
  5
67
  8
0
 62
     0
 10
11.91394639692894
 20
11.92577499834804
 30
0.0
 11
11.90963014448641
 21
11.92577499834804
 31
0.0
  0
LINE
  5
68
  8
0
 62
     0
 10
11.90963014448641
 20
11.92577499834804
 30
0.0
 11
11.90963014448641
 21
11.9180165660633
 31
0.0
  0
LINE
  5
69
  8
0
 62
     0
 10
11.90963014448641
 20
11.9180165660633
 30
0.0
 11
11.90699243466042
 21
11.9180165660633
 31
0.0
  0
LINE
  5
6A
  8
0
 62
     0
 10
11.90699243466042
 20
11.9180165660633
 30
0.0
 11
11.90699243466042
 21
11.91025813377856
 31
0.0
  0
LINE
  5
6B
  8
0
 62
     0
 10
11.90699243466042
 20
11.91025813377856
 30
0.0
 11
11.91906195537935
 21
11.91025813377856
 31
0.0
  0
LINE
  5
6C
  8
0
 62
     0
 10
11.91906195537935
 20
11.91025813377856
 30
0.0
 11
11.91906195537935
 21
11.90505918430941
 31
0.0
  0
LINE
  5
6D
  8
0
 62
     0
 10
11.91906195537935
 20
11.90505918430941
 30
0.0
 11
11.92681522365574
 21
11.90505918430941
 31
0.0
  0
LINE
  5
6E
  8
0
 62
     0
 10
11.92681522365574
 20
11.90505918430941
 30
0.0
 11
11.92681522365574
 21
11.90074005705811
 31
0.0
  0
LINE
  5
6F
  8
0
 62
     0
 10
11.92681522365574
 20
11.90074005705811
 30
0.0
 11
11.93456849193214
 21
11.90074005705811
 31
0.0
  0
LINE
  5
70
  8
0
 62
     0
 10
11.93456849193214
 20
11.90074005705811
 30
0.0
 11
11.93456849193214
 21
11.89986023484025
 31
0.0
  0
LINE
  5
71
  8
0
 62
     0
 10
11.93456849193214
 20
11.89986023484025
 30
0.0
 11
11.94240169080932
 21
11.89986023484025
 31
0.0
  0
LINE
  5
72
  8
0
 62
     0
 10
11.94240169080932
 20
11.89986023484025
 30
0.0
 11
11.94240169080932
 21
11.89818057424252
 31
0.0
  0
LINE
  5
73
  8
0
 62
     0
 10
11.94240169080932
 20
11.89818057424252
 30
0.0
 11
11.95015495908572
 21
11.89818057424252
 31
0.0
  0
LINE
  5
74
  8
0
 62
     0
 10
11.95015495908572
 20
11.89818057424252
 30
0.0
 11
11.95015495908572
 21
11.88522319248863
 31
0.0
  0
LINE
  5
75
  8
0
 62
     0
 10
11.95015495908572
 20
11.88522319248863
 30
0.0
 11
11.96478225902985
 21
11.88522319248863
 31
0.0
  0
LINE
  5
76
  8
0
 62
     0
 10
11.96478225902985
 20
11.88522319248863
 30
0.0
 11
11.96478225902985
 21
11.88178388745519
 31
0.0
  0
LINE
  5
77
  8
0
 62
     0
 10
11.96478225902985
 20
11.88178388745519
 30
0.0
 11
11.96478225902985
 21
11.88954231973993
 31
0.0
  0
LINE
  5
78
  8
0
 62
     0
 10
11.96478225902985
 20
11.88954231973993
 30
0.0
 11
11.96566149563851
 21
11.88954231973993
 31
0.0
  0
LINE
  5
79
  8
0
 62
     0
 10
11.96566149563851
 20
11.88954231973993
 30
0.0
 11
11.96566149563851
 21
11.89730075202467
 31
0.0
  0
LINE
  5
7A
  8
0
 62
     0
 10
11.96566149563851
 20
11.89730075202467
 30
0.0
 11
11.95958676997865
 21
11.89730075202467
 31
0.0
  0
LINE
  5
7B
  8
0
 62
     0
 10
11.95958676997865
 20
11.89730075202467
 30
0.0
 11
11.95958676997865
 21
11.90505918430941
 31
0.0
  0
LINE
  5
7C
  8
0
 62
     0
 10
11.95958676997865
 20
11.90505918430941
 30
0.0
 11
11.94663801265106
 21
11.90505918430941
 31
0.0
  0
LINE
  5
7D
  8
0
 62
     0
 10
11.94663801265106
 20
11.90505918430941
 30
0.0
 11
11.94663801265106
 21
11.91025813377856
 31
0.0
  0
LINE
  5
7E
  8
0
 62
     0
 10
11.94663801265106
 20
11.91025813377856
 30
0.0
 11
11.94663801265106
 21
11.90249970149382
 31
0.0
  0
LINE
  5
7F
  8
0
 62
     0
 10
11.94663801265106
 20
11.90249970149382
 30
0.0
 11
11.94152245420066
 21
11.90249970149382
 31
0.0
  0
LINE
  5
80
  8
0
 62
     0
 10
11.94152245420066
 20
11.90249970149382
 30
0.0
 11
11.94152245420066
 21
11.89466128537109
 31
0.0
  0
LINE
  5
81
  8
0
 62
     0
 10
11.94152245420066
 20
11.89466128537109
 30
0.0
 11
11.93808543836679
 21
11.89466128537109
 31
0.0
  0
LINE
  5
82
  8
0
 62
     0
 10
11.93808543836679
 20
11.89466128537109
 30
0.0
 11
11.93808543836679
 21
11.90249970149382
 31
0.0
  0
LINE
  5
83
  8
0
 62
     0
 10
11.93808543836679
 20
11.90249970149382
 30
0.0
 11
11.93456849193214
 21
11.90249970149382
 31
0.0
  0
LINE
  5
84
  8
0
 62
     0
 10
11.93456849193214
 20
11.90249970149382
 30
0.0
 11
11.93456849193214
 21
11.91025813377856
 31
0.0
  0
LINE
  5
85
  8
0
 62
     0
 10
11.93456849193214
 20
11.91025813377856
 30
0.0
 11
11.93808543836679
 21
11.91025813377856
 31
0.0
  0
LINE
  5
86
  8
0
 62
     0
 10
11.93808543836679
 20
11.91025813377856
 30
0.0
 11
11.93808543836679
 21
11.9180165660633
 31
0.0
  0
LINE
  5
87
  8
0
 62
     0
 10
11.93808543836679
 20
11.9180165660633
 30
0.0
 11
11.94927572247705
 21
11.9180165660633
 31
0.0
  0
LINE
  5
88
  8
0
 62
     0
 10
11.94927572247705
 20
11.9180165660633
 30
0.0
 11
11.94927572247705
 21
11.9223356933146
 31
0.0
  0
LINE
  5
89
  8
0
 62
     0
 10
11.94927572247705
 20
11.9223356933146
 30
0.0
 11
11.95702899075345
 21
11.9223356933146
 31
0.0
  0
LINE
  5
8A
  8
0
 62
     0
 10
11.95702899075345
 20
11.9223356933146
 30
0.0
 11
11.95702899075345
 21
11.9180165660633
 31
0.0
  0
LINE
  5
8B
  8
0
 62
     0
 10
11.95702899075345
 20
11.9180165660633
 30
0.0
 11
11.96478225902985
 21
11.9180165660633
 31
0.0
  0
LINE
  5
8C
  8
0
 62
     0
 10
11.96478225902985
 20
11.9180165660633
 30
0.0
 11
11.96478225902985
 21
11.90505918430941
 31
0.0
  0
LINE
  5
8D
  8
0
 62
     0
 10
11.96478225902985
 20
11.90505918430941
 30
0.0
 11
11.96654073224717
 21
11.90505918430941
 31
0.0
  0
LINE
  5
8E
  8
0
 62
     0
 10
11.96654073224717
 20
11.90505918430941
 30
0.0
 11
11.96654073224717
 21
11.89730075202467
 31
0.0
  0
LINE
  5
8F
  8
0
 62
     0
 10
11.96654073224717
 20
11.89730075202467
 30
0.0
 11
11.96390302242118
 21
11.89730075202467
 31
0.0
  0
LINE
  5
90
  8
0
 62
     0
 10
11.96390302242118
 20
11.89730075202467
 30
0.0
 11
11.96390302242118
 21
11.88954231973993
 31
0.0
  0
LINE
  5
91
  8
0
 62
     0
 10
11.96390302242118
 20
11.88954231973993
 30
0.0
 11
11.97685177974877
 21
11.88954231973993
 31
0.0
  0
LINE
  5
92
  8
0
 62
     0
 10
11.97685177974877
 20
11.88954231973993
 30
0.0
 11
11.97685177974877
 21
11.88610301470648
 31
0.0
  0
LINE
  5
93
  8
0
 62
     0
 10
11.97685177974877
 20
11.88610301470648
 30
0.0
 11
11.98460504802517
 21
11.88610301470648
 31
0.0
  0
LINE
  5
94
  8
0
 62
     0
 10
11.98460504802517
 20
11.88610301470648
 30
0.0
 11
11.98460504802517
 21
11.87746476020389
 31
0.0
  0
LINE
  5
95
  8
0
 62
     0
 10
11.98460504802517
 20
11.87746476020389
 30
0.0
 11
11.98716282725037
 21
11.87746476020389
 31
0.0
  0
LINE
  5
96
  8
0
 62
     0
 10
11.98716282725037
 20
11.87746476020389
 30
0.0
 11
11.97940955897397
 21
11.87746476020389
 31
0.0
  0
LINE
  5
97
  8
0
 62
     0
 10
11.97940955897397
 20
11.87746476020389
 30
0.0
 11
11.97940955897397
 21
11.88610301470648
 31
0.0
  0
LINE
  5
98
  8
0
 62
     0
 10
11.97940955897397
 20
11.88610301470648
 30
0.0
 11
11.97509330653144
 21
11.88610301470648
 31
0.0
  0
LINE
  5
99
  8
0
 62
     0
 10
11.97509330653144
 20
11.88610301470648
 30
0.0
 11
11.97509330653144
 21
11.89386144699122
 31
0.0
  0
LINE
  5
9A
  8
0
 62
     0
 10
11.97509330653144
 20
11.89386144699122
 30
0.0
 11
11.98028879558264
 21
11.89386144699122
 31
0.0
  0
LINE
  5
9B
  8
0
 62
     0
 10
11.98028879558264
 20
11.89386144699122
 30
0.0
 11
11.98028879558264
 21
11.90161987927597
 31
0.0
  0
LINE
  5
9C
  8
0
 62
     0
 10
11.98028879558264
 20
11.90161987927597
 30
0.0
 11
11.99235831630156
 21
11.90161987927597
 31
0.0
  0
LINE
  5
9D
  8
0
 62
     0
 10
11.99235831630156
 20
11.90161987927597
 30
0.0
 11
11.99235831630156
 21
11.90673884490714
 31
0.0
  0
LINE
  5
9E
  8
0
 62
     0
 10
11.99235831630156
 20
11.90673884490714
 30
0.0
 11
12.00011158457796
 21
11.90673884490714
 31
0.0
  0
LINE
  5
9F
  8
0
 62
     0
 10
12.00011158457796
 20
11.90673884490714
 30
0.0
 11
12.00011158457796
 21
11.89818057424252
 31
0.0
  0
LINE
  5
A0
  8
0
 62
     0
 10
12.00011158457796
 20
11.89818057424252
 30
0.0
 11
12.00274929440395
 21
11.89818057424252
 31
0.0
  0
LINE
  5
A1
  8
0
 62
     0
 10
12.00274929440395
 20
11.89818057424252
 30
0.0
 11
11.99499602612755
 21
11.89818057424252
 31
0.0
  0
LINE
  5
A2
  8
0
 62
     0
 10
11.99499602612755
 20
11.89818057424252
 30
0.0
 11
11.99499602612755
 21
11.88610301470648
 31
0.0
  0
LINE
  5
A3
  8
0
 62
     0
 10
11.99499602612755
 20
11.88610301470648
 30
0.0
 11
11.98980053707636
 21
11.88610301470648
 31
0.0
  0
LINE
  5
A4
  8
0
 62
     0
 10
11.98980053707636
 20
11.88610301470648
 30
0.0
 11
11.98980053707636
 21
11.87826459858375
 31
0.0
  0
LINE
  5
A5
  8
0
 62
     0
 10
11.98980053707636
 20
11.87826459858375
 30
0.0
 11
12.00442783702049
 21
11.87826459858375
 31
0.0
  0
LINE
  5
A6
  8
0
 62
     0
 10
12.00442783702049
 20
11.87826459858375
 30
0.0
 11
12.00442783702049
 21
11.87570511576817
 31
0.0
  0
LINE
  5
A7
  8
0
 62
     0
 10
12.00442783702049
 20
11.87570511576817
 30
0.0
 11
12.01218110529688
 21
11.87570511576817
 31
0.0
  0
LINE
  5
A8
  8
0
 62
     0
 10
12.01218110529688
 20
11.87570511576817
 30
0.0
 11
12.01218110529688
 21
11.87482529355031
 31
0.0
  0
LINE
  5
A9
  8
0
 62
     0
 10
12.01218110529688
 20
11.87482529355031
 30
0.0
 11
12.01993437357328
 21
11.87482529355031
 31
0.0
  0
LINE
  5
AA
  8
0
 62
     0
 10
12.01993437357328
 20
11.87482529355031
 30
0.0
 11
12.01993437357328
 21
11.88610301470648
 31
0.0
  0
LINE
  5
AB
  8
0
 62
     0
 10
12.01993437357328
 20
11.88610301470648
 30
0.0
 11
12.01825583095674
 21
11.88610301470648
 31
0.0
  0
LINE
  5
AC
  8
0
 62
     0
 10
12.01825583095674
 20
11.88610301470648
 30
0.0
 11
12.01825583095674
 21
11.89386144699122
 31
0.0
  0
LINE
  5
AD
  8
0
 62
     0
 10
12.01825583095674
 20
11.89386144699122
 30
0.0
 11
12.01561812113075
 21
11.89386144699122
 31
0.0
  0
LINE
  5
AE
  8
0
 62
     0
 10
12.01561812113075
 20
11.89386144699122
 30
0.0
 11
12.02337138940715
 21
11.89386144699122
 31
0.0
  0
LINE
  5
AF
  8
0
 62
     0
 10
12.02337138940715
 20
11.89386144699122
 30
0.0
 11
12.02337138940715
 21
11.89986023484025
 31
0.0
  0
LINE
  5
B0
  8
0
 62
     0
 10
12.02337138940715
 20
11.89986023484025
 30
0.0
 11
12.03120458828433
 21
11.89986023484025
 31
0.0
  0
LINE
  5
B1
  8
0
 62
     0
 10
12.03120458828433
 20
11.89986023484025
 30
0.0
 11
12.03120458828433
 21
11.91193779437629
 31
0.0
  0
LINE
  5
B2
  8
0
 62
     0
 10
12.03120458828433
 20
11.91193779437629
 30
0.0
 11
12.01737659434808
 21
11.91193779437629
 31
0.0
  0
LINE
  5
B3
  8
0
 62
     0
 10
12.01737659434808
 20
11.91193779437629
 30
0.0
 11
12.01737659434808
 21
11.90161987927597
 31
0.0
  0
LINE
  5
B4
  8
0
 62
     0
 10
12.01737659434808
 20
11.90161987927597
 30
0.0
 11
12.01050256268034
 21
11.90161987927597
 31
0.0
  0
LINE
  5
B5
  8
0
 62
     0
 10
12.01050256268034
 20
11.90161987927597
 30
0.0
 11
12.01050256268034
 21
11.89386144699122
 31
0.0
  0
LINE
  5
B6
  8
0
 62
     0
 10
12.01050256268034
 20
11.89386144699122
 30
0.0
 11
12.00530707362915
 21
11.89386144699122
 31
0.0
  0
LINE
  5
B7
  8
0
 62
     0
 10
12.00530707362915
 20
11.89386144699122
 30
0.0
 11
12.00530707362915
 21
11.88610301470648
 31
0.0
  0
LINE
  5
B8
  8
0
 62
     0
 10
12.00530707362915
 20
11.88610301470648
 30
0.0
 11
12.01825583095674
 21
11.88610301470648
 31
0.0
  0
LINE
  5
B9
  8
0
 62
     0
 10
12.01825583095674
 20
11.88610301470648
 30
0.0
 11
12.01825583095674
 21
11.88610301470648
 31
0.0
  0
LINE
  5
BA
  8
0
 62
     0
 10
12.01825583095674
 20
11.88610301470648
 30
0.0
 11
12.0268883358418
 21
11.88610301470648
 31
0.0
  0
LINE
  5
BB
  8
0
 62
     0
 10
12.0268883358418
 20
11.88610301470648
 30
0.0
 11
12.0268883358418
 21
11.88610301470648
 31
0.0
  0
LINE
  5
BC
  8
0
 62
     0
 10
12.0268883358418
 20
11.88610301470648
 30
0.0
 11
12.03464160411819
 21
11.88610301470648
 31
0.0
  0
LINE
  5
BD
  8
0
 62
     0
 10
12.03464160411819
 20
11.88610301470648
 30
0.0
 11
12.03464160411819
 21
11.88778267530421
 31
0.0
  0
LINE
  5
BE
  8
0
 62
     0
 10
12.03464160411819
 20
11.88778267530421
 30
0.0
 11
12.04239487239459
 21
11.88778267530421
 31
0.0
  0
LINE
  5
BF
  8
0
 62
     0
 10
12.04239487239459
 20
11.88778267530421
 30
0.0
 11
12.04239487239459
 21
11.88346354805291
 31
0.0
  0
LINE
  5
C0
  8
0
 62
     0
 10
12.04239487239459
 20
11.88346354805291
 30
0.0
 11
12.05014814067099
 21
11.88346354805291
 31
0.0
  0
LINE
  5
C1
  8
0
 62
     0
 10
12.05014814067099
 20
11.88346354805291
 30
0.0
 11
12.05014814067099
 21
11.89642092980681
 31
0.0
  0
LINE
  5
C2
  8
0
 62
     0
 10
12.05014814067099
 20
11.89642092980681
 30
0.0
 11
12.05102737727965
 21
11.89642092980681
 31
0.0
  0
LINE
  5
C3
  8
0
 62
     0
 10
12.05102737727965
 20
11.89642092980681
 30
0.0
 11
12.05102737727965
 21
11.90505918430941
 31
0.0
  0
LINE
  5
C4
  8
0
 62
     0
 10
12.05102737727965
 20
11.90505918430941
 30
0.0
 11
12.04407341501113
 21
11.90505918430941
 31
0.0
  0
LINE
  5
C5
  8
0
 62
     0
 10
12.04407341501113
 20
11.90505918430941
 30
0.0
 11
12.04407341501113
 21
11.91281761659415
 31
0.0
  0
LINE
  5
C6
  8
0
 62
     0
 10
12.04407341501113
 20
11.91281761659415
 30
0.0
 11
12.05534362972218
 21
11.91281761659415
 31
0.0
  0
LINE
  5
C7
  8
0
 62
     0
 10
12.05534362972218
 20
11.91281761659415
 30
0.0
 11
12.05534362972218
 21
11.91625692162759
 31
0.0
  0
LINE
  5
C8
  8
0
 62
     0
 10
12.05534362972218
 20
11.91625692162759
 30
0.0
 11
12.06309689799857
 21
11.91625692162759
 31
0.0
  0
LINE
  5
C9
  8
0
 62
     0
 10
12.06309689799857
 20
11.91625692162759
 30
0.0
 11
12.06309689799857
 21
11.91457726102986
 31
0.0
  0
LINE
  5
CA
  8
0
 62
     0
 10
12.06309689799857
 20
11.91457726102986
 30
0.0
 11
12.07085016627497
 21
11.91457726102986
 31
0.0
  0
LINE
  5
CB
  8
0
 62
     0
 10
12.07085016627497
 20
11.91457726102986
 30
0.0
 11
12.07085016627497
 21
11.90074005705811
 31
0.0
  0
LINE
  5
CC
  8
0
 62
     0
 10
12.07085016627497
 20
11.90074005705811
 30
0.0
 11
12.06309689799857
 21
11.90074005705811
 31
0.0
  0
LINE
  5
CD
  8
0
 62
     0
 10
12.06309689799857
 20
11.90074005705811
 30
0.0
 11
12.06309689799857
 21
11.89298162477337
 31
0.0
  0
LINE
  5
CE
  8
0
 62
     0
 10
12.06309689799857
 20
11.89298162477337
 30
0.0
 11
12.05790140894738
 21
11.89298162477337
 31
0.0
  0
LINE
  5
CF
  8
0
 62
     0
 10
12.05790140894738
 20
11.89298162477337
 30
0.0
 11
12.06565467722378
 21
11.89298162477337
 31
0.0
  0
LINE
  5
D0
  8
0
 62
     0
 10
12.06565467722378
 20
11.89298162477337
 30
0.0
 11
12.06565467722378
 21
11.88690285308635
 31
0.0
  0
LINE
  5
D1
  8
0
 62
     0
 10
12.06565467722378
 20
11.88690285308635
 30
0.0
 11
12.07340794550017
 21
11.88690285308635
 31
0.0
  0
LINE
  5
D2
  8
0
 62
     0
 10
12.07340794550017
 20
11.88690285308635
 30
0.0
 11
12.07340794550017
 21
11.89898041262239
 31
0.0
  0
LINE
  5
D3
  8
0
 62
     0
 10
12.07340794550017
 20
11.89898041262239
 30
0.0
 11
12.07340794550017
 21
11.89898041262239
 31
0.0
  0
LINE
  5
D4
  8
0
 62
     0
 10
12.07340794550017
 20
11.89898041262239
 30
0.0
 11
12.06565467722378
 21
11.89898041262239
 31
0.0
  0
LINE
  5
D5
  8
0
 62
     0
 10
12.06565467722378
 20
11.89898041262239
 30
0.0
 11
12.06565467722378
 21
11.90417936209155
 31
0.0
  0
LINE
  5
D6
  8
0
 62
     0
 10
12.06565467722378
 20
11.90417936209155
 30
0.0
 11
12.05790140894738
 21
11.90417936209155
 31
0.0
  0
LINE
  5
D7
  8
0
 62
     0
 10
12.05790140894738
 20
11.90417936209155
 30
0.0
 11
12.05790140894738
 21
11.91625692162759
 31
0.0
  0
LINE
  5
D8
  8
0
 62
     0
 10
12.05790140894738
 20
11.91625692162759
 30
0.0
 11
12.05270591989619
 21
11.91625692162759
 31
0.0
  0
LINE
  5
D9
  8
0
 62
     0
 10
12.05270591989619
 20
11.91625692162759
 30
0.0
 11
12.05270591989619
 21
11.92401535391233
 31
0.0
  0
LINE
  5
DA
  8
0
 62
     0
 10
12.05270591989619
 20
11.92401535391233
 30
0.0
 11
12.05790140894738
 21
11.92401535391233
 31
0.0
  0
LINE
  5
DB
  8
0
 62
     0
 10
12.05790140894738
 20
11.92401535391233
 30
0.0
 11
12.05790140894738
 21
11.93353343063279
 31
0.0
  0
LINE
  5
DC
  8
0
 62
     0
 10
12.05790140894738
 20
11.93353343063279
 30
0.0
 11
12.05790140894738
 21
11.93353343063279
 31
0.0
  0
LINE
  5
DD
  8
0
 62
     0
 10
12.05790140894738
 20
11.93353343063279
 30
0.0
 11
12.06565467722378
 21
11.93353343063279
 31
0.0
  0
LINE
  5
DE
  8
0
 62
     0
 10
12.06565467722378
 20
11.93353343063279
 30
0.0
 11
12.06565467722378
 21
11.93697273566623
 31
0.0
  0
LINE
  5
DF
  8
0
 62
     0
 10
12.06565467722378
 20
11.93697273566623
 30
0.0
 11
12.07340794550017
 21
11.93697273566623
 31
0.0
  0
LINE
  5
E0
  8
0
 62
     0
 10
12.07340794550017
 20
11.93697273566623
 30
0.0
 11
12.07340794550017
 21
11.94217168513538
 31
0.0
  0
LINE
  5
E1
  8
0
 62
     0
 10
12.07340794550017
 20
11.94217168513538
 30
0.0
 11
12.08116121377657
 21
11.94217168513538
 31
0.0
  0
LINE
  5
E2
  8
0
 62
     0
 10
12.08116121377657
 20
11.94217168513538
 30
0.0
 11
12.08116121377657
 21
11.93177378619707
 31
0.0
  0
LINE
  5
E3
  8
0
 62
     0
 10
12.08116121377657
 20
11.93177378619707
 30
0.0
 11
12.0854774662191
 21
11.93177378619707
 31
0.0
  0
LINE
  5
E4
  8
0
 62
     0
 10
12.0854774662191
 20
11.93177378619707
 30
0.0
 11
12.0777241979427
 21
11.93177378619707
 31
0.0
  0
LINE
  5
E5
  8
0
 62
     0
 10
12.0777241979427
 20
11.93177378619707
 30
0.0
 11
12.0777241979427
 21
11.91713674384545
 31
0.0
  0
LINE
  5
E6
  8
0
 62
     0
 10
12.0777241979427
 20
11.91713674384545
 30
0.0
 11
12.08635670282776
 21
11.91713674384545
 31
0.0
  0
LINE
  5
E7
  8
0
 62
     0
 10
12.08635670282776
 20
11.91713674384545
 30
0.0
 11
12.08635670282776
 21
11.91193779437629
 31
0.0
  0
LINE
  5
E8
  8
0
 62
     0
 10
12.08635670282776
 20
11.91193779437629
 30
0.0
 11
12.09410997110416
 21
11.91193779437629
 31
0.0
  0
LINE
  5
E9
  8
0
 62
     0
 10
12.09410997110416
 20
11.91193779437629
 30
0.0
 11
12.09410997110416
 21
11.9223356933146
 31
0.0
  0
LINE
  5
EA
  8
0
 62
     0
 10
12.09410997110416
 20
11.9223356933146
 30
0.0
 11
12.10010476616323
 21
11.9223356933146
 31
0.0
  0
LINE
  5
EB
  8
0
 62
     0
 10
12.10010476616323
 20
11.9223356933146
 30
0.0
 11
12.10010476616323
 21
11.93009412559934
 31
0.0
  0
LINE
  5
EC
  8
0
 62
     0
 10
12.10010476616323
 20
11.93009412559934
 30
0.0
 11
12.09930546015535
 21
11.93009412559934
 31
0.0
  0
LINE
  5
ED
  8
0
 62
     0
 10
12.09930546015535
 20
11.93009412559934
 30
0.0
 11
12.09930546015535
 21
11.93785255788409
 31
0.0
  0
LINE
  5
EE
  8
0
 62
     0
 10
12.09930546015535
 20
11.93785255788409
 30
0.0
 11
12.09666775032936
 21
11.93785255788409
 31
0.0
  0
LINE
  5
EF
  8
0
 62
     0
 10
12.09666775032936
 20
11.93785255788409
 30
0.0
 11
12.09666775032936
 21
11.94561099016883
 31
0.0
  0
LINE
  5
F0
  8
0
 62
     0
 10
12.09666775032936
 20
11.94561099016883
 30
0.0
 11
12.09666775032936
 21
11.94561099016883
 31
0.0
  0
LINE
  5
F1
  8
0
 62
     0
 10
12.09666775032936
 20
11.94561099016883
 30
0.0
 11
12.08891448205296
 21
11.94561099016883
 31
0.0
  0
LINE
  5
F2
  8
0
 62
     0
 10
12.08891448205296
 20
11.94561099016883
 30
0.0
 11
12.08891448205296
 21
11.94817047298441
 31
0.0
  0
LINE
  5
F3
  8
0
 62
     0
 10
12.08891448205296
 20
11.94817047298441
 30
0.0
 11
12.08116121377657
 21
11.94817047298441
 31
0.0
  0
LINE
  5
F4
  8
0
 62
     0
 10
12.08116121377657
 20
11.94817047298441
 30
0.0
 11
12.08116121377657
 21
11.95080993963798
 31
0.0
  0
LINE
  5
F5
  8
0
 62
     0
 10
12.08116121377657
 20
11.95080993963798
 30
0.0
 11
12.07340794550017
 21
11.95080993963798
 31
0.0
  0
LINE
  5
F6
  8
0
 62
     0
 10
12.07340794550017
 20
11.95080993963798
 30
0.0
 11
12.07340794550017
 21
11.96288749917402
 31
0.0
  0
LINE
  5
F7
  8
0
 62
     0
 10
12.07340794550017
 20
11.96288749917402
 30
0.0
 11
12.07172940288363
 21
11.96288749917402
 31
0.0
  0
LINE
  5
F8
  8
0
 62
     0
 10
12.07172940288363
 20
11.96288749917402
 30
0.0
 11
12.07948267116003
 21
11.96288749917402
 31
0.0
  0
LINE
  5
F9
  8
0
 62
     0
 10
12.07948267116003
 20
11.96288749917402
 30
0.0
 11
12.07948267116003
 21
11.96368733755389
 31
0.0
  0
LINE
  5
FA
  8
0
 62
     0
 10
12.07948267116003
 20
11.96368733755389
 30
0.0
 11
12.08723593943643
 21
11.96368733755389
 31
0.0
  0
LINE
  5
FB
  8
0
 62
     0
 10
12.08723593943643
 20
11.96368733755389
 30
0.0
 11
12.08723593943643
 21
11.94993011742013
 31
0.0
  0
LINE
  5
FC
  8
0
 62
     0
 10
12.08723593943643
 20
11.94993011742013
 30
0.0
 11
12.09067295527029
 21
11.94993011742013
 31
0.0
  0
LINE
  5
FD
  8
0
 62
     0
 10
12.09067295527029
 20
11.94993011742013
 30
0.0
 11
12.09067295527029
 21
11.94217168513538
 31
0.0
  0
LINE
  5
FE
  8
0
 62
     0
 10
12.09067295527029
 20
11.94217168513538
 30
0.0
 11
12.08891448205296
 21
11.94217168513538
 31
0.0
  0
LINE
  5
FF
  8
0
 62
     0
 10
12.08891448205296
 20
11.94217168513538
 30
0.0
 11
12.08891448205296
 21
11.93441325285064
 31
0.0
  0
LINE
  5
100
  8
0
 62
     0
 10
12.08891448205296
 20
11.93441325285064
 30
0.0
 11
12.08723593943643
 21
11.93441325285064
 31
0.0
  0
LINE
  5
101
  8
0
 62
     0
 10
12.08723593943643
 20
11.93441325285064
 30
0.0
 11
12.09498920771282
 21
11.93441325285064
 31
0.0
  0
LINE
  5
102
  8
0
 62
     0
 10
12.09498920771282
 20
11.93441325285064
 30
0.0
 11
12.09498920771282
 21
11.9309739478172
 31
0.0
  0
LINE
  5
103
  8
0
 62
     0
 10
12.09498920771282
 20
11.9309739478172
 30
0.0
 11
12.10274247598922
 21
11.9309739478172
 31
0.0
  0
LINE
  5
104
  8
0
 62
     0
 10
12.10274247598922
 20
11.9309739478172
 30
0.0
 11
12.10274247598922
 21
11.9309739478172
 31
0.0
  0
LINE
  5
105
  8
0
 62
     0
 10
12.10274247598922
 20
11.9309739478172
 30
0.0
 11
12.11049574426561
 21
11.9309739478172
 31
0.0
  0
LINE
  5
106
  8
0
 62
     0
 10
12.11049574426561
 20
11.9309739478172
 30
0.0
 11
12.11049574426561
 21
11.94305150735324
 31
0.0
  0
LINE
  5
107
  8
0
 62
     0
 10
12.11049574426561
 20
11.94305150735324
 30
0.0
 11
12.10961650765695
 21
11.94305150735324
 31
0.0
  0
LINE
  5
108
  8
0
 62
     0
 10
12.10961650765695
 20
11.94305150735324
 30
0.0
 11
12.10961650765695
 21
11.95080993963798
 31
0.0
  0
LINE
  5
109
  8
0
 62
     0
 10
12.10961650765695
 20
11.95080993963798
 30
0.0
 11
12.10098400277189
 21
11.95080993963798
 31
0.0
  0
LINE
  5
10A
  8
0
 62
     0
 10
12.10098400277189
 20
11.95080993963798
 30
0.0
 11
12.10098400277189
 21
11.95512906688928
 31
0.0
  0
LINE
  5
10B
  8
0
 62
     0
 10
12.10098400277189
 20
11.95512906688928
 30
0.0
 11
12.09323073449549
 21
11.95512906688928
 31
0.0
  0
LINE
  5
10C
  8
0
 62
     0
 10
12.09323073449549
 20
11.95512906688928
 30
0.0
 11
12.09323073449549
 21
11.96200767695617
 31
0.0
  0
LINE
  5
10D
  8
0
 62
     0
 10
12.09323073449549
 20
11.96200767695617
 30
0.0
 11
12.0854774662191
 21
11.96200767695617
 31
0.0
  0
LINE
  5
10E
  8
0
 62
     0
 10
12.0854774662191
 20
11.96200767695617
 30
0.0
 11
12.0854774662191
 21
11.97664471930779
 31
0.0
  0
LINE
  5
10F
  8
0
 62
     0
 10
12.0854774662191
 20
11.97664471930779
 30
0.0
 11
12.07860343455136
 21
11.97664471930779
 31
0.0
  0
LINE
  5
110
  8
0
 62
     0
 10
12.07860343455136
 20
11.97664471930779
 30
0.0
 11
12.08635670282776
 21
11.97664471930779
 31
0.0
  0
LINE
  5
111
  8
0
 62
     0
 10
12.08635670282776
 20
11.97664471930779
 30
0.0
 11
12.08635670282776
 21
11.98184366877695
 31
0.0
  0
LINE
  5
112
  8
0
 62
     0
 10
12.08635670282776
 20
11.98184366877695
 30
0.0
 11
12.09410997110416
 21
11.98184366877695
 31
0.0
  0
LINE
  5
113
  8
0
 62
     0
 10
12.09410997110416
 20
11.98184366877695
 30
0.0
 11
12.09410997110416
 21
11.9827234909948
 31
0.0
  0
LINE
  5
114
  8
0
 62
     0
 10
12.09410997110416
 20
11.9827234909948
 30
0.0
 11
12.10186323938055
 21
11.9827234909948
 31
0.0
  0
LINE
  5
115
  8
0
 62
     0
 10
12.10186323938055
 20
11.9827234909948
 30
0.0
 11
12.10186323938055
 21
11.96888628702305
 31
0.0
  0
LINE
  5
116
  8
0
 62
     0
 10
12.10186323938055
 20
11.96888628702305
 30
0.0
 11
12.10362171259788
 21
11.96888628702305
 31
0.0
  0
LINE
  5
117
  8
0
 62
     0
 10
12.10362171259788
 20
11.96888628702305
 30
0.0
 11
12.10362171259788
 21
11.96112785473831
 31
0.0
  0
LINE
  5
118
  8
0
 62
     0
 10
12.10362171259788
 20
11.96112785473831
 30
0.0
 11
12.11393276009948
 21
11.96112785473831
 31
0.0
  0
LINE
  5
119
  8
0
 62
     0
 10
12.11393276009948
 20
11.96112785473831
 30
0.0
 11
12.11393276009948
 21
11.96112785473831
 31
0.0
  0
LINE
  5
11A
  8
0
 62
     0
 10
12.11393276009948
 20
11.96112785473831
 30
0.0
 11
12.11393276009948
 21
11.96888628702305
 31
0.0
  0
LINE
  5
11B
  8
0
 62
     0
 10
12.11393276009948
 20
11.96888628702305
 30
0.0
 11
12.12256526498454
 21
11.96888628702305
 31
0.0
  0
LINE
  5
11C
  8
0
 62
     0
 10
12.12256526498454
 20
11.96888628702305
 30
0.0
 11
12.12256526498454
 21
11.98360331321266
 31
0.0
  0
LINE
  5
11D
  8
0
 62
     0
 10
12.12256526498454
 20
11.98360331321266
 30
0.0
 11
12.11225421748294
 21
11.98360331321266
 31
0.0
  0
LINE
  5
11E
  8
0
 62
     0
 10
12.11225421748294
 20
11.98360331321266
 30
0.0
 11
12.11225421748294
 21
11.99736053334643
 31
0.0
  0
LINE
  5
11F
  8
0
 62
     0
 10
12.11225421748294
 20
11.99736053334643
 30
0.0
 11
12.11225421748294
 21
11.99736053334643
 31
0.0
  0
LINE
  5
120
  8
0
 62
     0
 10
12.11225421748294
 20
11.99736053334643
 30
0.0
 11
12.11225421748294
 21
12.00511896563117
 31
0.0
  0
LINE
  5
121
  8
0
 62
     0
 10
12.11225421748294
 20
12.00511896563117
 30
0.0
 11
12.11824901254201
 21
12.00511896563117
 31
0.0
  0
LINE
  5
122
  8
0
 62
     0
 10
12.11824901254201
 20
12.00511896563117
 30
0.0
 11
12.11049574426561
 21
12.00511896563117
 31
0.0
  0
LINE
  5
123
  8
0
 62
     0
 10
12.11049574426561
 20
12.00511896563117
 30
0.0
 11
12.11049574426561
 21
12.00775843228474
 31
0.0
  0
LINE
  5
124
  8
0
 62
     0
 10
12.11049574426561
 20
12.00775843228474
 30
0.0
 11
12.11049574426561
 21
12.0
 31
0.0
  0
LINE
  5
125
  8
0
 62
     0
 10
12.11049574426561
 20
12.0
 30
0.0
 11
12.10705872843175
 21
12.0
 31
0.0
  0
LINE
  5
126
  8
0
 62
     0
 10
12.10705872843175
 20
12.0
 30
0.0
 11
12.11481199670814
 21
12.0
 31
0.0
  0
LINE
  5
127
  8
0
 62
     0
 10
12.11481199670814
 20
12.0
 30
0.0
 11
12.11481199670814
 21
11.99736053334643
 31
0.0
  0
LINE
  5
128
  8
0
 62
     0
 10
12.11481199670814
 20
11.99736053334643
 30
0.0
 11
12.12256526498454
 21
11.99736053334643
 31
0.0
  0
LINE
  5
129
  8
0
 62
     0
 10
12.12256526498454
 20
11.99736053334643
 30
0.0
 11
12.12256526498454
 21
12.00687861006688
 31
0.0
  0
LINE
  5
12A
  8
0
 62
     0
 10
12.12256526498454
 20
12.00687861006688
 30
0.0
 11
12.12512304420974
 21
12.00687861006688
 31
0.0
  0
LINE
  5
12B
  8
0
 62
     0
 10
12.12512304420974
 20
12.00687861006688
 30
0.0
 11
12.12512304420974
 21
12.01463704235162
 31
0.0
  0
LINE
  5
12C
  8
0
 62
     0
 10
12.12512304420974
 20
12.01463704235162
 30
0.0
 11
12.12000748575933
 21
12.01463704235162
 31
0.0
  0
LINE
  5
12D
  8
0
 62
     0
 10
12.12000748575933
 20
12.01463704235162
 30
0.0
 11
12.12000748575933
 21
12.02239547463637
 31
0.0
  0
LINE
  5
12E
  8
0
 62
     0
 10
12.12000748575933
 20
12.02239547463637
 30
0.0
 11
12.11481199670814
 21
12.02239547463637
 31
0.0
  0
LINE
  5
12F
  8
0
 62
     0
 10
12.11481199670814
 20
12.02239547463637
 30
0.0
 11
12.12256526498454
 21
12.02239547463637
 31
0.0
  0
LINE
  5
130
  8
0
 62
     0
 10
12.12256526498454
 20
12.02239547463637
 30
0.0
 11
12.12256526498454
 21
12.03535285639026
 31
0.0
  0
LINE
  5
131
  8
0
 62
     0
 10
12.12256526498454
 20
12.03535285639026
 30
0.0
 11
12.11137498087428
 21
12.03535285639026
 31
0.0
  0
LINE
  5
132
  8
0
 62
     0
 10
12.11137498087428
 20
12.03535285639026
 30
0.0
 11
12.11137498087428
 21
12.04055180585942
 31
0.0
  0
LINE
  5
133
  8
0
 62
     0
 10
12.11137498087428
 20
12.04055180585942
 30
0.0
 11
12.10362171259788
 21
12.04055180585942
 31
0.0
  0
LINE
  5
134
  8
0
 62
     0
 10
12.10362171259788
 20
12.04055180585942
 30
0.0
 11
12.10362171259788
 21
12.03703251698799
 31
0.0
  0
LINE
  5
135
  8
0
 62
     0
 10
12.10362171259788
 20
12.03703251698799
 30
0.0
 11
12.10362171259788
 21
12.04479094927273
 31
0.0
  0
LINE
  5
136
  8
0
 62
     0
 10
12.10362171259788
 20
12.04479094927273
 30
0.0
 11
12.10010476616323
 21
12.04479094927273
 31
0.0
  0
LINE
  5
137
  8
0
 62
     0
 10
12.10010476616323
 20
12.04479094927273
 30
0.0
 11
12.10793796504041
 21
12.04479094927273
 31
0.0
  0
LINE
  5
138
  8
0
 62
     0
 10
12.10793796504041
 20
12.04479094927273
 30
0.0
 11
12.10793796504041
 21
12.05518884821104
 31
0.0
  0
LINE
  5
139
  8
0
 62
     0
 10
12.10793796504041
 20
12.05518884821104
 30
0.0
 11
12.11305352349081
 21
12.05518884821104
 31
0.0
  0
LINE
  5
13A
  8
0
 62
     0
 10
12.11305352349081
 20
12.05518884821104
 30
0.0
 11
12.11305352349081
 21
12.06294728049578
 31
0.0
  0
LINE
  5
13B
  8
0
 62
     0
 10
12.11305352349081
 20
12.06294728049578
 30
0.0
 11
12.09842622354669
 21
12.06294728049578
 31
0.0
  0
LINE
  5
13C
  8
0
 62
     0
 10
12.09842622354669
 20
12.06294728049578
 30
0.0
 11
12.09842622354669
 21
12.0647069249315
 31
0.0
  0
LINE
  5
13D
  8
0
 62
     0
 10
12.09842622354669
 20
12.0647069249315
 30
0.0
 11
12.09067295527029
 21
12.0647069249315
 31
0.0
  0
LINE
  5
13E
  8
0
 62
     0
 10
12.09067295527029
 20
12.0647069249315
 30
0.0
 11
12.09067295527029
 21
12.0647069249315
 31
0.0
  0
LINE
  5
13F
  8
0
 62
     0
 10
12.09067295527029
 20
12.0647069249315
 30
0.0
 11
12.09067295527029
 21
12.07246535721624
 31
0.0
  0
LINE
  5
140
  8
0
 62
     0
 10
12.09067295527029
 20
12.07246535721624
 30
0.0
 11
12.09067295527029
 21
12.07246535721624
 31
0.0
  0
LINE
  5
141
  8
0
 62
     0
 10
12.09067295527029
 20
12.07246535721624
 30
0.0
 11
12.09067295527029
 21
12.08022378950098
 31
0.0
  0
LINE
  5
142
  8
0
 62
     0
 10
12.09067295527029
 20
12.08022378950098
 30
0.0
 11
12.09067295527029
 21
12.08022378950098
 31
0.0
  0
LINE
  5
143
  8
0
 62
     0
 10
12.09067295527029
 20
12.08022378950098
 30
0.0
 11
12.09067295527029
 21
12.08798222178572
 31
0.0
  0
LINE
  5
144
  8
0
 62
     0
 10
12.09067295527029
 20
12.08798222178572
 30
0.0
 11
12.07596572472537
 21
12.08798222178572
 31
0.0
  0
LINE
  5
145
  8
0
 62
     0
 10
12.07596572472537
 20
12.08798222178572
 30
0.0
 11
12.07596572472537
 21
12.09398100963475
 31
0.0
  0
LINE
  5
146
  8
0
 62
     0
 10
12.07596572472537
 20
12.09398100963475
 30
0.0
 11
12.07596572472537
 21
12.08622257735001
 31
0.0
  0
LINE
  5
147
  8
0
 62
     0
 10
12.07596572472537
 20
12.08622257735001
 30
0.0
 11
12.06389620400645
 21
12.08622257735001
 31
0.0
  0
LINE
  5
148
  8
0
 62
     0
 10
12.06389620400645
 20
12.08622257735001
 30
0.0
 11
12.06389620400645
 21
12.0948608318526
 31
0.0
  0
LINE
  5
149
  8
0
 62
     0
 10
12.06389620400645
 20
12.0948608318526
 30
0.0
 11
12.06309689799857
 21
12.0948608318526
 31
0.0
  0
LINE
  5
14A
  8
0
 62
     0
 10
12.06309689799857
 20
12.0948608318526
 30
0.0
 11
12.06309689799857
 21
12.10261926413735
 31
0.0
  0
LINE
  5
14B
  8
0
 62
     0
 10
12.06309689799857
 20
12.10261926413735
 30
0.0
 11
12.06653391383244
 21
12.10261926413735
 31
0.0
  0
LINE
  5
14C
  8
0
 62
     0
 10
12.06653391383244
 20
12.10261926413735
 30
0.0
 11
12.06653391383244
 21
12.11037769642209
 31
0.0
  0
LINE
  5
14D
  8
0
 62
     0
 10
12.06653391383244
 20
12.11037769642209
 30
0.0
 11
12.05182668328753
 21
12.11037769642209
 31
0.0
  0
LINE
  5
14E
  8
0
 62
     0
 10
12.05182668328753
 20
12.11037769642209
 30
0.0
 11
12.05182668328753
 21
12.10869803582436
 31
0.0
  0
LINE
  5
14F
  8
0
 62
     0
 10
12.05182668328753
 20
12.10869803582436
 30
0.0
 11
12.04407341501113
 21
12.10869803582436
 31
0.0
  0
LINE
  5
150
  8
0
 62
     0
 10
12.04407341501113
 20
12.10869803582436
 30
0.0
 11
12.04407341501113
 21
12.10525873079092
 31
0.0
  0
LINE
  5
151
  8
0
 62
     0
 10
12.04407341501113
 20
12.10525873079092
 30
0.0
 11
12.04407341501113
 21
12.11301716307566
 31
0.0
  0
LINE
  5
152
  8
0
 62
     0
 10
12.04407341501113
 20
12.11301716307566
 30
0.0
 11
12.03032535167566
 21
12.11301716307566
 31
0.0
  0
LINE
  5
153
  8
0
 62
     0
 10
12.03032535167566
 20
12.11301716307566
 30
0.0
 11
12.03032535167566
 21
12.11901595092468
 31
0.0
  0
LINE
  5
154
  8
0
 62
     0
 10
12.03032535167566
 20
12.11901595092468
 30
0.0
 11
12.02257208339927
 21
12.11901595092468
 31
0.0
  0
LINE
  5
155
  8
0
 62
     0
 10
12.02257208339927
 20
12.11901595092468
 30
0.0
 11
12.02257208339927
 21
12.12165541757826
 31
0.0
  0
LINE
  5
156
  8
0
 62
     0
 10
12.02257208339927
 20
12.12165541757826
 30
0.0
 11
12.01481881512287
 21
12.12165541757826
 31
0.0
  0
LINE
  5
157
  8
0
 62
     0
 10
12.01481881512287
 20
12.12165541757826
 30
0.0
 11
12.01481881512287
 21
12.12677438320943
 31
0.0
  0
LINE
  5
158
  8
0
 62
     0
 10
12.01481881512287
 20
12.12677438320943
 30
0.0
 11
12.01481881512287
 21
12.11901595092468
 31
0.0
  0
LINE
  5
159
  8
0
 62
     0
 10
12.01481881512287
 20
12.11901595092468
 30
0.0
 11
12.00274929440395
 21
12.11901595092468
 31
0.0
  0
LINE
  5
15A
  8
0
 62
     0
 10
12.00274929440395
 20
12.11901595092468
 30
0.0
 11
12.00274929440395
 21
12.11557664589124
 31
0.0
  0
LINE
  5
15B
  8
0
 62
     0
 10
12.00274929440395
 20
12.11557664589124
 30
0.0
 11
12.00274929440395
 21
12.12333507817598
 31
0.0
  0
LINE
  5
15C
  8
0
 62
     0
 10
12.00274929440395
 20
12.12333507817598
 30
0.0
 11
11.98804206385903
 21
12.12333507817598
 31
0.0
  0
LINE
  5
15D
  8
0
 62
     0
 10
11.98804206385903
 20
12.12333507817598
 30
0.0
 11
11.98804206385903
 21
12.12333507817598
 31
0.0
  0
LINE
  5
15E
  8
0
 62
     0
 10
11.98804206385903
 20
12.12333507817598
 30
0.0
 11
11.98804206385903
 21
12.11557664589124
 31
0.0
  0
LINE
  5
15F
  8
0
 62
     0
 10
11.98804206385903
 20
12.11557664589124
 30
0.0
 11
11.99323755291023
 21
12.11557664589124
 31
0.0
  0
LINE
  5
160
  8
0
 62
     0
 10
11.99323755291023
 20
12.11557664589124
 30
0.0
 11
11.98548428463383
 21
12.11557664589124
 31
0.0
  0
LINE
  5
161
  8
0
 62
     0
 10
11.98548428463383
 20
12.11557664589124
 30
0.0
 11
11.98548428463383
 21
12.1121373408578
 31
0.0
  0
LINE
  5
162
  8
0
 62
     0
 10
11.98548428463383
 20
12.1121373408578
 30
0.0
 11
11.97773101635743
 21
12.1121373408578
 31
0.0
  0
LINE
  5
163
  8
0
 62
     0
 10
11.97773101635743
 20
12.1121373408578
 30
0.0
 11
11.97773101635743
 21
12.1164564681091
 31
0.0
  0
LINE
  5
164
  8
0
 62
     0
 10
11.97773101635743
 20
12.1164564681091
 30
0.0
 11
11.96997774808104
 21
12.1164564681091
 31
0.0
  0
LINE
  5
165
  8
0
 62
     0
 10
11.96997774808104
 20
12.1164564681091
 30
0.0
 11
11.96997774808104
 21
12.12245525595813
 31
0.0
  0
LINE
  5
166
  8
0
 62
     0
 10
11.96997774808104
 20
12.12245525595813
 30
0.0
 11
11.96222447980464
 21
12.12245525595813
 31
0.0
  0
LINE
  5
167
  8
0
 62
     0
 10
11.96222447980464
 20
12.12245525595813
 30
0.0
 11
11.96222447980464
 21
12.10869803582436
 31
0.0
  0
LINE
  5
168
  8
0
 62
     0
 10
11.96222447980464
 20
12.10869803582436
 30
0.0
 11
11.96222447980464
 21
12.10869803582436
 31
0.0
  0
LINE
  5
169
  8
0
 62
     0
 10
11.96222447980464
 20
12.10869803582436
 30
0.0
 11
11.95447121152825
 21
12.10869803582436
 31
0.0
  0
LINE
  5
16A
  8
0
 62
     0
 10
11.95447121152825
 20
12.10869803582436
 30
0.0
 11
11.95447121152825
 21
12.11037769642209
 31
0.0
  0
LINE
  5
16B
  8
0
 62
     0
 10
11.95447121152825
 20
12.11037769642209
 30
0.0
 11
11.94663801265106
 21
12.11037769642209
 31
0.0
  0
LINE
  5
16C
  8
0
 62
     0
 10
11.94663801265106
 20
12.11037769642209
 30
0.0
 11
11.94663801265106
 21
12.11125751863994
 31
0.0
  0
LINE
  5
16D
  8
0
 62
     0
 10
11.94663801265106
 20
12.11125751863994
 30
0.0
 11
11.94583870664319
 21
12.11125751863994
 31
0.0
  0
LINE
  5
16E
  8
0
 62
     0
 10
11.94583870664319
 20
12.11125751863994
 30
0.0
 11
11.94583870664319
 21
12.11125751863994
 31
0.0
  0
ENDSEC
  0
EOF
