  0
SECTION
  2
HEADER
  9
$ACADVER
  1
AC1009
  9
$DWGCODEPAGE
  3
ansi_1252
  9
$INSBASE
 10
728.6815621405378
 20
714.9366704022259
 30
0.0
  9
$EXTMIN
 10
36.27321295937509
 20
22.44250399732664
 30
-0.0015258207003583
  9
$EXTMAX
 10
1506.427013485722
 20
1407.348683016808
 30
0.0000000349246037
  9
$LIMMIN
 10
0.0
 20
0.0
  9
$LIMMAX
 10
8400.0
 20
5940.0
  9
$ORTHOMODE
 70
     0
  9
$REGENMODE
 70
     0
  9
$FILLMODE
 70
     1
  9
$QTEXTMODE
 70
     0
  9
$MIRRTEXT
 70
     1
  9
$DRAGMODE
 70
     2
  9
$LTSCALE
 40
1.0
  9
$OSMODE
 70
    37
  9
$ATTMODE
 70
     1
  9
$TEXTSIZE
 40
0.2
  9
$TRACEWID
 40
0.05
  9
$TEXTSTYLE
  7
STANDARD
  9
$CLAYER
  8
0
  9
$CELTYPE
  6
BYLAYER
  9
$CECOLOR
 62
   256
  9
$DIMSCALE
 40
1.0
  9
$DIMASZ
 40
0.18
  9
$DIMEXO
 40
0.0625
  9
$DIMDLI
 40
0.3799999999999999
  9
$DIMRND
 40
0.0
  9
$DIMDLE
 40
0.0
  9
$DIMEXE
 40
0.18
  9
$DIMTP
 40
0.0
  9
$DIMTM
 40
0.0
  9
$DIMTXT
 40
0.18
  9
$DIMCEN
 40
0.09
  9
$DIMTSZ
 40
0.0
  9
$DIMTOL
 70
     0
  9
$DIMLIM
 70
     0
  9
$DIMTIH
 70
     1
  9
$DIMTOH
 70
     1
  9
$DIMSE1
 70
     0
  9
$DIMSE2
 70
     0
  9
$DIMTAD
 70
     0
  9
$DIMZIN
 70
     0
  9
$DIMBLK
  1

  9
$DIMASO
 70
     0
  9
$DIMSHO
 70
     1
  9
$DIMPOST
  1

  9
$DIMAPOST
  1

  9
$DIMALT
 70
     0
  9
$DIMALTD
 70
     2
  9
$DIMALTF
 40
25.4
  9
$DIMLFAC
 40
1.0
  9
$DIMTOFL
 70
     0
  9
$DIMTVP
 40
0.0
  9
$DIMTIX
 70
     0
  9
$DIMSOXD
 70
     0
  9
$DIMSAH
 70
     0
  9
$DIMBLK1
  1

  9
$DIMBLK2
  1

  9
$DIMSTYLE
  2
STANDARD
  9
$DIMCLRD
 70
     0
  9
$DIMCLRE
 70
     0
  9
$DIMCLRT
 70
     0
  9
$DIMTFAC
 40
1.0
  9
$DIMGAP
 40
0.09
  9
$LUNITS
 70
     2
  9
$LUPREC
 70
     2
  9
$SKETCHINC
 40
0.1
  9
$FILLETRAD
 40
0.0
  9
$AUNITS
 70
     0
  9
$AUPREC
 70
     1
  9
$MENU
  1
acad
  9
$ELEVATION
 40
0.0
  9
$PELEVATION
 40
0.0
  9
$THICKNESS
 40
0.0
  9
$LIMCHECK
 70
     0
  9
$CHAMFERA
 40
0.0
  9
$CHAMFERB
 40
0.0
  9
$SKPOLY
 70
     0
  9
$TDCREATE
 40
2452051.407406366
  9
$TDUPDATE
 40
2457464.593252315
  9
$TDINDWG
 40
0.0054074769
  9
$TDUSRTIMER
 40
0.0054074769
  9
$USRTIMER
 70
     1
  9
$ANGBASE
 50
0.0
  9
$ANGDIR
 70
     0
  9
$PDMODE
 70
     0
  9
$PDSIZE
 40
0.0
  9
$PLINEWID
 40
0.0
  9
$COORDS
 70
     1
  9
$SPLFRAME
 70
     0
  9
$SPLINETYPE
 70
     6
  9
$SPLINESEGS
 70
     8
  9
$ATTDIA
 70
     0
  9
$ATTREQ
 70
     1
  9
$HANDLING
 70
     1
  9
$HANDSEED
  5
1AB
  9
$SURFTAB1
 70
     6
  9
$SURFTAB2
 70
     6
  9
$SURFTYPE
 70
     6
  9
$SURFU
 70
     6
  9
$SURFV
 70
     6
  9
$UCSNAME
  2

  9
$UCSORG
 10
0.0
 20
0.0
 30
0.0
  9
$UCSXDIR
 10
1.0
 20
0.0
 30
0.0
  9
$UCSYDIR
 10
0.0
 20
1.0
 30
0.0
  9
$PUCSNAME
  2

  9
$PUCSORG
 10
0.0
 20
0.0
 30
0.0
  9
$PUCSXDIR
 10
1.0
 20
0.0
 30
0.0
  9
$PUCSYDIR
 10
0.0
 20
1.0
 30
0.0
  9
$USERI1
 70
     0
  9
$USERI2
 70
     0
  9
$USERI3
 70
     0
  9
$USERI4
 70
     0
  9
$USERI5
 70
     0
  9
$USERR1
 40
0.0
  9
$USERR2
 40
0.0
  9
$USERR3
 40
0.0
  9
$USERR4
 40
0.0
  9
$USERR5
 40
0.0
  9
$WORLDVIEW
 70
     1
  9
$SHADEDGE
 70
     3
  9
$SHADEDIF
 70
    70
  9
$TILEMODE
 70
     1
  9
$MAXACTVP
 70
    48
  9
$PLIMCHECK
 70
     0
  9
$PEXTMIN
 10
1.000000000000000E+20
 20
1.000000000000000E+20
 30
1.000000000000000E+20
  9
$PEXTMAX
 10
-1.000000000000000E+20
 20
-1.000000000000000E+20
 30
-1.000000000000000E+20
  9
$PLIMMIN
 10
0.0
 20
0.0
  9
$PLIMMAX
 10
12.0
 20
9.0
  9
$UNITMODE
 70
     0
  9
$VISRETAIN
 70
     1
  9
$PLINEGEN
 70
     1
  9
$PSLTSCALE
 70
     0
  0
ENDSEC
  0
SECTION
  2
TABLES
  0
TABLE
  2
VPORT
 70
     1
  0
VPORT
  2
*ACTIVE
 70
     0
 10
0.0
 20
0.0
 11
1.0
 21
1.0
 12
771.3501132225484
 22
714.8955935070671
 13
0.0
 23
0.0
 14
100.0
 24
100.0
 15
0.0
 25
0.0
 16
0.0
 26
0.0
 36
1.0
 17
0.0
 27
0.0
 37
0.0
 40
1399.332285050934
 41
1.424347826086956
 42
50.0
 43
0.0
 44
0.0
 50
0.0
 51
0.0
 71
     0
 72
   100
 73
     1
 74
     3
 75
     0
 76
     0
 77
     0
 78
     0
  0
ENDTAB
  0
TABLE
  2
LTYPE
 70
     1
  0
LTYPE
  2
CONTINUOUS
 70
     0
  3
Solid line
 72
    65
 73
     0
 40
0.0
  0
ENDTAB
  0
TABLE
  2
LAYER
 70
     1
  0
LAYER
  2
0
 70
     0
 62
     7
  6
CONTINUOUS
  0
ENDTAB
  0
TABLE
  2
STYLE
 70
     1
  0
STYLE
  2
STANDARD
 70
     0
 40
0.0
 41
1.0
 50
0.0
 71
     0
 42
0.2
  3
TXT
  4

  0
ENDTAB
  0
TABLE
  2
VIEW
 70
     0
  0
ENDTAB
  0
TABLE
  2
UCS
 70
     0
  0
ENDTAB
  0
TABLE
  2
APPID
 70
     1
  0
APPID
  2
ACAD
 70
     0
  0
ENDTAB
  0
TABLE
  2
DIMSTYLE
 70
     1
  0
DIMSTYLE
  2
STANDARD
 70
     0
  3

  4

  5

  6

  7

 40
1.0
 41
0.18
 42
0.0625
 43
0.38
 44
0.18
 45
0.0
 46
0.0
 47
0.0
 48
0.0
140
0.18
141
0.09
142
0.0
143
25.4
144
1.0
145
0.0
146
1.0
147
0.09
 71
     0
 72
     0
 73
     1
 74
     1
 75
     0
 76
     0
 77
     0
 78
     0
170
     0
171
     2
172
     0
173
     0
174
     0
175
     0
176
     0
177
     0
178
     0
  0
ENDTAB
  0
ENDSEC
  0
SECTION
  2
BLOCKS
  0
BLOCK
  8
0
  2
$MODEL_SPACE
 70
     0
 10
0.0
 20
0.0
 30
0.0
  3
$MODEL_SPACE
  1

  0
ENDBLK
  5
25
  8
0
  0
BLOCK
 67
     1
  8
0
  2
$PAPER_SPACE
 70
     0
 10
0.0
 20
0.0
 30
0.0
  3
$PAPER_SPACE
  1

  0
ENDBLK
  5
23
 67
     1
  8
0
  0
ENDSEC
  0
SECTION
  2
ENTITIES
  0
ARC
  5
27
  8
0
 62
     0
 10
728.6815621405378
 20
714.9366704022259
 30
0.0
 40
692.2455188859702
 50
253.0884685727503
 51
302.2741574908871
  0
ARC
  5
28
  8
0
 62
     0
 10
728.6815621405378
 20
714.9366704022259
 30
0.0
 40
692.2455188859702
 50
343.3162244512783
 51
352.405119425031
  0
ARC
  5
29
  8
0
 62
     0
 10
728.6815621405378
 20
714.9366704022259
 30
0.0
 40
692.2455188859702
 50
23.93977415798252
 51
218.8362638897233
  0
POLYLINE
  5
2A
  8
0
 62
     0
 66
     1
 10
0.0
 20
0.0
 30
0.0
 70
     2
  0
VERTEX
  5
2B
  8
0
 62
     0
 10
185.9399241310368
 20
413.7221622714707
 30
0.0
  0
VERTEX
  5
2C
  8
0
 62
     0
 10
370.9181231890644
 20
568.5607947764406
 30
0.0
  0
VERTEX
  5
2D
  8
0
 62
     0
 10
611.8436270411928
 20
669.2979342368677
 30
0.0
  0
VERTEX
  5
2E
  8
0
 62
     0
 10
658.7601348701322
 20
658.749444042878
 30
0.0
  0
VERTEX
  5
2F
  8
0
 62
     0
 10
667.6915065399817
 20
601.1872967132879
 30
0.0
  0
VERTEX
  5
30
  8
0
 62
     0
 10
547.492967907256
 20
402.9837458901302
 30
0.0
  0
VERTEX
  5
31
  8
0
 62
     0
 10
319.7401882219543
 20
266.5447483041427
 30
0.0
  0
SEQEND
  5
32
  8
0
 62
     0
  0
POLYLINE
  5
33
  8
0
 62
     0
 66
     1
 10
0.0
 20
0.0
 30
0.0
  0
VERTEX
  5
16E
  8
0
 62
     0
 10
404.5312315997502
 20
122.9257518135186
 30
0.0
  0
VERTEX
  5
16F
  8
0
 62
     0
 10
427.1084161024843
 20
260.82091570376
 30
0.0
  0
VERTEX
  5
170
  8
0
 62
     0
 10
583.3251171045814
 20
393.3895389182022
 30
0.0
  0
VERTEX
  5
171
  8
0
 62
     0
 10
627.4183357417285
 20
396.2871924531466
 30
0.0
  0
VERTEX
  5
172
  8
0
 62
     0
 10
642.8405822919858
 20
266.2947526675409
 30
0.0
  0
SEQEND
  5
1A1
  8
0
 62
     0
  0
POLYLINE
  5
3A
  8
0
 62
     0
 66
     1
 10
0.0
 20
0.0
 30
0.0
  0
VERTEX
  5
173
  8
0
 62
     0
 10
123.5955695558783
 20
676.8493205235998
 30
0.0
  0
VERTEX
  5
174
  8
0
 62
     0
 10
346.077530665662
 20
646.3750121121917
 30
0.0
  0
VERTEX
  5
175
  8
0
 62
     0
 10
373.3816095703467
 20
627.7933021134697
 30
0.0
  0
VERTEX
  5
176
  8
0
 62
     0
 10
285.9750519946548
 20
526.2584843018974
 30
0.0
  0
VERTEX
  5
177
  8
0
 62
     0
 10
189.353346385411
 20
442.3013806193297
 30
0.0
  0
SEQEND
  5
1A2
  8
0
 62
     0
  0
POLYLINE
  5
41
  8
0
 62
     0
 66
     1
 10
0.0
 20
0.0
 30
0.0
  0
VERTEX
  5
178
  8
0
 62
     0
 10
638.4344939571448
 20
1249.350506665768
 30
0.0
  0
VERTEX
  5
179
  8
0
 62
     0
 10
752.0732140109421
 20
975.6437878148643
 30
0.0
  0
VERTEX
  5
17A
  8
0
 62
     0
 10
747.2187388595421
 20
867.3937743234376
 30
0.0
  0
VERTEX
  5
17B
  8
0
 62
     0
 10
701.5125444188926
 20
760.6011799832567
 30
0.0
  0
VERTEX
  5
17C
  8
0
 62
     0
 10
626.5216162749338
 20
722.3144437309201
 30
0.0
  0
VERTEX
  5
17D
  8
0
 62
     0
 10
176.9227830977801
 20
705.9499077868503
 30
0.0
  0
SEQEND
  5
1A3
  8
0
 62
     0
  0
POLYLINE
  5
49
  8
0
 62
     0
 66
     1
 10
0.0
 20
0.0
 30
0.0
  0
VERTEX
  5
17E
  8
0
 62
     0
 10
887.8048044324904
 20
1265.092995552142
 30
0.0
  0
VERTEX
  5
17F
  8
0
 62
     0
 10
810.6540613608146
 20
1045.861023859864
 30
0.0
  0
VERTEX
  5
180
  8
0
 62
     0
 10
783.2257008369901
 20
1046.93130325979
 30
0.0
  0
VERTEX
  5
181
  8
0
 62
     0
 10
665.2109898654809
 20
1279.807016424634
 30
0.0
  0
SEQEND
  5
1A4
  8
0
 62
     0
  0
POLYLINE
  5
4F
  8
0
 62
     0
 66
     1
 10
0.0
 20
0.0
 30
0.0
  0
VERTEX
  5
182
  8
0
 62
     0
 10
1506.157794122633
 20
1000.938467658793
 30
0.0
  0
VERTEX
  5
183
  8
0
 62
     0
 10
852.31757434378
 20
706.4102091883337
 30
0.0
  0
VERTEX
  5
184
  8
0
 62
     0
 10
807.4212817878579
 20
713.7337709169776
 30
0.0
  0
VERTEX
  5
185
  8
0
 62
     0
 10
784.0273423574428
 20
748.632555123763
 30
0.0
  0
VERTEX
  5
186
  8
0
 62
     0
 10
921.6602369234973
 20
1264.852717755139
 30
0.0
  0
SEQEND
  5
1A5
  8
0
 62
     0
  0
POLYLINE
  5
56
  8
0
 62
     0
 66
     1
 10
0.0
 20
0.0
 30
0.0
  0
VERTEX
  5
187
  8
0
 62
     0
 10
1411.485059022234
 20
739.2175584349302
 30
0.0
  0
VERTEX
  5
188
  8
0
 62
     0
 10
1160.200377278471
 20
782.7386472903697
 30
0.0
  0
VERTEX
  5
189
  8
0
 62
     0
 10
1150.095158192747
 20
798.2795752638051
 30
0.0
  0
VERTEX
  5
18A
  8
0
 62
     0
 10
1372.666801681242
 20
903.8169252506747
 30
0.0
  0
SEQEND
  5
1A6
  8
0
 62
     0
  0
POLYLINE
  5
5C
  8
0
 62
     0
 66
     1
 10
0.0
 20
0.0
 30
0.0
  0
VERTEX
  5
18B
  8
0
 62
     0
 10
1277.599894235239
 20
463.1813526614823
 30
0.0
  0
VERTEX
  5
18C
  8
0
 62
     0
 10
1010.140857517092
 20
489.5967929123165
 30
0.0
  0
VERTEX
  5
18D
  8
0
 62
     0
 10
877.7725423685971
 20
550.6618402466614
 30
0.0
  0
VERTEX
  5
18E
  8
0
 62
     0
 10
844.4390926779771
 20
624.4501265586109
 30
0.0
  0
VERTEX
  5
18F
  8
0
 62
     0
 10
911.3180893250817
 20
671.258719022631
 30
0.0
  0
VERTEX
  5
190
  8
0
 62
     0
 10
1113.08087613827
 20
764.6851341729914
 30
0.0
  0
VERTEX
  5
191
  8
0
 62
     0
 10
1371.390843724741
 20
724.0329044363623
 30
0.0
  0
SEQEND
  5
1A7
  8
0
 62
     0
  0
POLYLINE
  5
65
  8
0
 62
     0
 66
     1
 10
0.0
 20
0.0
 30
0.0
  0
VERTEX
  5
192
  8
0
 62
     0
 10
1295.733371891731
 20
262.8285483405344
 30
0.0
  0
VERTEX
  5
193
  8
0
 62
     0
 10
1146.572388175131
 20
425.292317590393
 30
0.0
  0
VERTEX
  5
194
  8
0
 62
     0
 10
1156.89510009435
 20
440.396393164852
 30
0.0
  0
VERTEX
  5
195
  8
0
 62
     0
 10
1354.111839815337
 20
427.9055808766398
 30
0.0
  0
SEQEND
  5
1A8
  8
0
 62
     0
  0
POLYLINE
  5
6B
  8
0
 62
     0
 66
     1
 10
0.0
 20
0.0
 30
0.0
  0
VERTEX
  5
196
  8
0
 62
     0
 10
1204.427440900027
 20
228.7438087391143
 30
0.0
  0
VERTEX
  5
197
  8
0
 62
     0
 10
1038.06138328351
 20
393.3727884843199
 30
0.0
  0
VERTEX
  5
198
  8
0
 62
     0
 10
1037.103161969143
 20
422.8586487669036
 30
0.0
  0
VERTEX
  5
199
  8
0
 62
     0
 10
1113.774602293803
 20
410.0558795838501
 30
0.0
  0
VERTEX
  5
19A
  8
0
 62
     0
 10
1175.621191430406
 20
364.668674632326
 30
0.0
  0
SEQEND
  5
1A9
  8
0
 62
     0
  0
POLYLINE
  5
72
  8
0
 62
     0
 66
     1
 10
0.0
 20
0.0
 30
0.0
  0
VERTEX
  5
19B
  8
0
 62
     0
 10
699.4003958555139
 20
175.1211841079218
 30
0.0
  0
VERTEX
  5
19C
  8
0
 62
     0
 10
648.1818271183496
 20
443.1312026709213
 30
0.0
  0
VERTEX
  5
19D
  8
0
 62
     0
 10
716.2678129464333
 20
536.6307293174422
 30
0.0
  0
VERTEX
  5
19E
  8
0
 62
     0
 10
757.2355284135467
 20
551.5173120584064
 30
0.0
  0
VERTEX
  5
19F
  8
0
 62
     0
 10
832.6028302505675
 20
519.4602546579526
 30
0.0
  0
VERTEX
  5
1A0
  8
0
 62
     0
 10
1086.324914281794
 20
284.7457874148359
 30
0.0
  0
SEQEND
  5
1AA
  8
0
 62
     0
  0
ENDSEC
  0
EOF
