  0
SECTION
  2
HEADER
  9
$ACADVER
  1
AC1009
  9
$DWGCODEPAGE
  3
ansi_1252
  9
$INSBASE
 10
405.5332382976964
 20
-333.1336897609733
 30
0.0
  9
$EXTMIN
 10
-42.61025251553103
 20
-329.3270816955782
 30
0.0
  9
$EXTMAX
 10
913.338328132101
 20
907.7716875924513
 30
0.0
  9
$LIMMIN
 10
0.0
 20
0.0
  9
$LIMMAX
 10
8400.0
 20
5940.0
  9
$ORTHOMODE
 70
     0
  9
$REGENMODE
 70
     0
  9
$FILLMODE
 70
     1
  9
$QTEXTMODE
 70
     0
  9
$MIRRTEXT
 70
     1
  9
$DRAGMODE
 70
     2
  9
$LTSCALE
 40
1.0
  9
$OSMODE
 70
    37
  9
$ATTMODE
 70
     1
  9
$TEXTSIZE
 40
0.2
  9
$TRACEWID
 40
0.05
  9
$TEXTSTYLE
  7
STANDARD
  9
$CLAYER
  8
0
  9
$CELTYPE
  6
BYLAYER
  9
$CECOLOR
 62
   256
  9
$DIMSCALE
 40
1.0
  9
$DIMASZ
 40
0.18
  9
$DIMEXO
 40
0.0625
  9
$DIMDLI
 40
0.3799999999999999
  9
$DIMRND
 40
0.0
  9
$DIMDLE
 40
0.0
  9
$DIMEXE
 40
0.18
  9
$DIMTP
 40
0.0
  9
$DIMTM
 40
0.0
  9
$DIMTXT
 40
0.18
  9
$DIMCEN
 40
0.09
  9
$DIMTSZ
 40
0.0
  9
$DIMTOL
 70
     0
  9
$DIMLIM
 70
     0
  9
$DIMTIH
 70
     1
  9
$DIMTOH
 70
     1
  9
$DIMSE1
 70
     0
  9
$DIMSE2
 70
     0
  9
$DIMTAD
 70
     0
  9
$DIMZIN
 70
     0
  9
$DIMBLK
  1

  9
$DIMASO
 70
     0
  9
$DIMSHO
 70
     1
  9
$DIMPOST
  1

  9
$DIMAPOST
  1

  9
$DIMALT
 70
     0
  9
$DIMALTD
 70
     2
  9
$DIMALTF
 40
25.4
  9
$DIMLFAC
 40
1.0
  9
$DIMTOFL
 70
     0
  9
$DIMTVP
 40
0.0
  9
$DIMTIX
 70
     0
  9
$DIMSOXD
 70
     0
  9
$DIMSAH
 70
     0
  9
$DIMBLK1
  1

  9
$DIMBLK2
  1

  9
$DIMSTYLE
  2
STANDARD
  9
$DIMCLRD
 70
     0
  9
$DIMCLRE
 70
     0
  9
$DIMCLRT
 70
     0
  9
$DIMTFAC
 40
1.0
  9
$DIMGAP
 40
0.09
  9
$LUNITS
 70
     2
  9
$LUPREC
 70
     2
  9
$SKETCHINC
 40
0.1
  9
$FILLETRAD
 40
0.0
  9
$AUNITS
 70
     0
  9
$AUPREC
 70
     0
  9
$MENU
  1
acad
  9
$ELEVATION
 40
0.0
  9
$PELEVATION
 40
0.0
  9
$THICKNESS
 40
0.0
  9
$LIMCHECK
 70
     0
  9
$CHAMFERA
 40
0.0
  9
$CHAMFERB
 40
0.0
  9
$SKPOLY
 70
     0
  9
$TDCREATE
 40
2451583.843523264
  9
$TDUPDATE
 40
2457464.593240741
  9
$TDINDWG
 40
0.0000421181
  9
$TDUSRTIMER
 40
0.0000421181
  9
$USRTIMER
 70
     1
  9
$ANGBASE
 50
0.0
  9
$ANGDIR
 70
     0
  9
$PDMODE
 70
     0
  9
$PDSIZE
 40
0.0
  9
$PLINEWID
 40
0.0
  9
$COORDS
 70
     1
  9
$SPLFRAME
 70
     0
  9
$SPLINETYPE
 70
     6
  9
$SPLINESEGS
 70
     8
  9
$ATTDIA
 70
     0
  9
$ATTREQ
 70
     1
  9
$HANDLING
 70
     1
  9
$HANDSEED
  5
321
  9
$SURFTAB1
 70
     6
  9
$SURFTAB2
 70
     6
  9
$SURFTYPE
 70
     6
  9
$SURFU
 70
     6
  9
$SURFV
 70
     6
  9
$UCSNAME
  2

  9
$UCSORG
 10
0.0
 20
0.0
 30
0.0
  9
$UCSXDIR
 10
1.0
 20
0.0
 30
0.0
  9
$UCSYDIR
 10
0.0
 20
1.0
 30
0.0
  9
$PUCSNAME
  2

  9
$PUCSORG
 10
0.0
 20
0.0
 30
0.0
  9
$PUCSXDIR
 10
1.0
 20
0.0
 30
0.0
  9
$PUCSYDIR
 10
0.0
 20
1.0
 30
0.0
  9
$USERI1
 70
     0
  9
$USERI2
 70
     0
  9
$USERI3
 70
     0
  9
$USERI4
 70
     0
  9
$USERI5
 70
     0
  9
$USERR1
 40
0.0
  9
$USERR2
 40
0.0
  9
$USERR3
 40
0.0
  9
$USERR4
 40
0.0
  9
$USERR5
 40
0.0
  9
$WORLDVIEW
 70
     1
  9
$SHADEDGE
 70
     3
  9
$SHADEDIF
 70
    70
  9
$TILEMODE
 70
     1
  9
$MAXACTVP
 70
    48
  9
$PLIMCHECK
 70
     0
  9
$PEXTMIN
 10
1.000000000000000E+20
 20
1.000000000000000E+20
 30
1.000000000000000E+20
  9
$PEXTMAX
 10
-1.000000000000000E+20
 20
-1.000000000000000E+20
 30
-1.000000000000000E+20
  9
$PLIMMIN
 10
0.0
 20
0.0
  9
$PLIMMAX
 10
12.0
 20
9.0
  9
$UNITMODE
 70
     0
  9
$VISRETAIN
 70
     0
  9
$PLINEGEN
 70
     1
  9
$PSLTSCALE
 70
     0
  0
ENDSEC
  0
SECTION
  2
TABLES
  0
TABLE
  2
VPORT
 70
     1
  0
VPORT
  2
*ACTIVE
 70
     0
 10
0.0
 20
0.0
 11
1.0
 21
1.0
 12
435.1482060780363
 22
444.0356017444186
 13
0.0
 23
0.0
 14
100.0
 24
100.0
 15
0.0
 25
0.0
 16
0.0
 26
0.0
 36
1.0
 17
0.0
 27
0.0
 37
0.0
 40
1568.279527662754
 41
1.503537735849057
 42
50.0
 43
0.0
 44
0.0
 50
0.0
 51
0.0
 71
     0
 72
   100
 73
     1
 74
     1
 75
     0
 76
     0
 77
     0
 78
     0
  0
ENDTAB
  0
TABLE
  2
LTYPE
 70
     1
  0
LTYPE
  2
CONTINUOUS
 70
     0
  3
Solid line
 72
    65
 73
     0
 40
0.0
  0
ENDTAB
  0
TABLE
  2
LAYER
 70
     1
  0
LAYER
  2
0
 70
     0
 62
     7
  6
CONTINUOUS
  0
ENDTAB
  0
TABLE
  2
STYLE
 70
     1
  0
STYLE
  2
STANDARD
 70
     0
 40
0.0
 41
1.0
 50
0.0
 71
     0
 42
0.2
  3
TXT
  4

  0
ENDTAB
  0
TABLE
  2
VIEW
 70
     0
  0
ENDTAB
  0
TABLE
  2
UCS
 70
     0
  0
ENDTAB
  0
TABLE
  2
APPID
 70
     1
  0
APPID
  2
ACAD
 70
     0
  0
ENDTAB
  0
TABLE
  2
DIMSTYLE
 70
     1
  0
DIMSTYLE
  2
STANDARD
 70
     0
  3

  4

  5

  6

  7

 40
1.0
 41
0.18
 42
0.0625
 43
0.38
 44
0.18
 45
0.0
 46
0.0
 47
0.0
 48
0.0
140
0.18
141
0.09
142
0.0
143
25.4
144
1.0
145
0.0
146
1.0
147
0.09
 71
     0
 72
     0
 73
     1
 74
     1
 75
     0
 76
     0
 77
     0
 78
     0
170
     0
171
     2
172
     0
173
     0
174
     0
175
     0
176
     0
177
     0
178
     0
  0
ENDTAB
  0
ENDSEC
  0
SECTION
  2
BLOCKS
  0
BLOCK
  8
0
  2
$MODEL_SPACE
 70
     0
 10
0.0
 20
0.0
 30
0.0
  3
$MODEL_SPACE
  1

  0
ENDBLK
  5
1F
  8
0
  0
BLOCK
 67
     1
  8
0
  2
$PAPER_SPACE
 70
     0
 10
0.0
 20
0.0
 30
0.0
  3
$PAPER_SPACE
  1

  0
ENDBLK
  5
1D
 67
     1
  8
0
  0
ENDSEC
  0
SECTION
  2
ENTITIES
  0
POLYLINE
  5
23
  8
0
 62
     0
 66
     1
 10
0.0
 20
0.0
 30
0.0
 70
     2
  0
VERTEX
  5
24
  8
0
 62
     0
 10
355.59688980661
 20
226.170628443051
 30
0.0
  0
VERTEX
  5
25
  8
0
 62
     0
 10
391.2586134137362
 20
165.9190991618659
 30
0.0
  0
VERTEX
  5
26
  8
0
 62
     0
 10
390.3529707495658
 20
216.1422762527345
 30
0.0
  0
SEQEND
  5
27
  8
0
 62
     0
  0
POLYLINE
  5
28
  8
0
 62
     0
 66
     1
 10
0.0
 20
0.0
 30
0.0
  0
VERTEX
  5
245
  8
0
 62
     0
 10
512.0667418737166
 20
277.8679190157403
 30
0.0
  0
VERTEX
  5
246
  8
0
 62
     0
 10
415.6851441677895
 20
88.37891247910318
 30
0.0
  0
VERTEX
  5
247
  8
0
 62
     0
 10
407.9912813796915
 20
63.86558803674635
 30
0.0
  0
VERTEX
  5
248
  8
0
 62
     0
 10
421.5511216296432
 20
-124.6709413540669
 30
0.0
  0
VERTEX
  5
249
  8
0
 62
     0
 10
441.2680655059776
 20
-291.9765516398333
 30
0.0
  0
VERTEX
  5
24A
  8
0
 62
     0
 10
467.9377360579696
 20
-326.385522428032
 30
0.0
  0
SEQEND
  5
31D
  8
0
 62
     0
  0
POLYLINE
  5
30
  8
0
 62
     0
 66
     1
 10
0.0
 20
0.0
 30
0.0
  0
VERTEX
  5
24B
  8
0
 62
     0
 10
405.4971902693952
 20
220.0484781635533
 30
0.0
  0
VERTEX
  5
24C
  8
0
 62
     0
 10
411.177713122075
 20
161.2963059724503
 30
0.0
  0
VERTEX
  5
24D
  8
0
 62
     0
 10
410.2398627881821
 20
111.3758837993144
 30
0.0
  0
VERTEX
  5
24E
  8
0
 62
     0
 10
472.2170461467874
 20
226.0359133174007
 30
0.0
  0
SEQEND
  5
31E
  8
0
 62
     0
  0
POLYLINE
  5
36
  8
0
 62
     0
 66
     1
 10
0.0
 20
0.0
 30
0.0
  0
VERTEX
  5
24F
  8
0
 62
     0
 10
338.7501632686656
 20
224.3199598429296
 30
0.0
  0
VERTEX
  5
250
  8
0
 62
     0
 10
380.5116383417772
 20
151.2625135499046
 30
0.0
  0
VERTEX
  5
251
  8
0
 62
     0
 10
382.4658286194078
 20
-38.13541154654694
 30
0.0
  0
VERTEX
  5
252
  8
0
 62
     0
 10
375.5365008691234
 20
-152.2020076116971
 30
0.0
  0
VERTEX
  5
253
  8
0
 62
     0
 10
368.3098599334909
 20
-329.3270816955782
 30
0.0
  0
SEQEND
  5
31F
  8
0
 62
     0
  0
POLYLINE
  5
3D
  8
0
 62
     0
 66
     1
 10
0.0
 20
0.0
 30
0.0
  0
VERTEX
  5
254
  8
0
 62
     0
 10
194.7632856322608
 20
90.84298166545074
 30
0.0
  0
VERTEX
  5
255
  8
0
 62
     0
 10
228.4813843743092
 20
90.14421928400014
 30
0.0
  0
VERTEX
  5
256
  8
0
 62
     0
 10
227.6303277287198
 20
110.070121005529
 30
0.0
  0
VERTEX
  5
257
  8
0
 62
     0
 10
208.5832348665953
 20
111.6264699652314
 30
0.0
  0
VERTEX
  5
258
  8
0
 62
     0
 10
202.4829960704805
 20
136.1569354808268
 30
0.0
  0
VERTEX
  5
259
  8
0
 62
     0
 10
217.8144009774638
 20
139.8601077316985
 30
0.0
  0
VERTEX
  5
25A
  8
0
 62
     0
 10
211.7495326499366
 20
192.8545923893203
 30
0.0
  0
VERTEX
  5
25B
  8
0
 62
     0
 10
224.6259178592987
 20
159.1196246545608
 30
0.0
  0
VERTEX
  5
25C
  8
0
 62
     0
 10
243.9033920969824
 20
166.7590713371394
 30
0.0
  0
VERTEX
  5
25D
  8
0
 62
     0
 10
294.4730579955462
 20
159.6896929464579
 30
0.0
  0
VERTEX
  5
25E
  8
0
 62
     0
 10
301.2693383678356
 20
166.6877862389089
 30
0.0
  0
VERTEX
  5
25F
  8
0
 62
     0
 10
318.9950890147861
 20
159.0023579471665
 30
0.0
  0
VERTEX
  5
260
  8
0
 62
     0
 10
326.6840543533873
 20
179.5745105083197
 30
0.0
  0
VERTEX
  5
261
  8
0
 62
     0
 10
349.0203545660116
 20
181.955252221907
 30
0.0
  0
VERTEX
  5
262
  8
0
 62
     0
 10
334.3760125777922
 20
202.5551569968751
 30
0.0
  0
VERTEX
  5
263
  8
0
 62
     0
 10
335.9353544232981
 20
224.0107437864017
 30
0.0
  0
VERTEX
  5
264
  8
0
 62
     0
 10
377.323372867016
 20
228.5573544280902
 30
0.0
  0
VERTEX
  5
265
  8
0
 62
     0
 10
384.9696215627845
 20
214.7537300254115
 30
0.0
  0
VERTEX
  5
266
  8
0
 62
     0
 10
444.106245417771
 20
230.0070478209745
 30
0.0
  0
VERTEX
  5
267
  8
0
 62
     0
 10
476.9436307367219
 20
225.3682018804307
 30
0.0
  0
VERTEX
  5
268
  8
0
 62
     0
 10
502.4043283314376
 20
275.2581510344756
 30
0.0
  0
VERTEX
  5
269
  8
0
 62
     0
 10
533.0682264675147
 20
283.5403115098198
 30
0.0
  0
VERTEX
  5
26A
  8
0
 62
     0
 10
520.7774181401228
 20
259.9085167321434
 30
0.0
  0
VERTEX
  5
26B
  8
0
 62
     0
 10
550.5293135924287
 20
239.0708844073708
 30
0.0
  0
VERTEX
  5
26C
  8
0
 62
     0
 10
507.5754233705425
 20
207.8137911345509
 30
0.0
  0
VERTEX
  5
26D
  8
0
 62
     0
 10
531.4090310683807
 20
181.7286091424187
 30
0.0
  0
VERTEX
  5
26E
  8
0
 62
     0
 10
558.1012843041631
 20
165.4928198064368
 30
0.0
  0
VERTEX
  5
26F
  8
0
 62
     0
 10
588.1132179095364
 20
177.7169684045674
 30
0.0
  0
VERTEX
  5
270
  8
0
 62
     0
 10
600.3452568429673
 20
154.0547006078
 30
0.0
  0
VERTEX
  5
271
  8
0
 62
     0
 10
623.9960972575755
 20
157.0906718184224
 30
0.0
  0
VERTEX
  5
272
  8
0
 62
     0
 10
637.1036800840798
 20
133.2083617061444
 30
0.0
  0
VERTEX
  5
273
  8
0
 62
     0
 10
690.775976922527
 20
156.1318712839044
 30
0.0
  0
VERTEX
  5
274
  8
0
 62
     0
 10
653.9451802610738
 20
118.7364479411061
 30
0.0
  0
VERTEX
  5
275
  8
0
 62
     0
 10
706.0295667986177
 20
97.21420142231807
 30
0.0
  0
VERTEX
  5
276
  8
0
 62
     0
 10
705.1251823696193
 20
74.22512043740716
 30
0.0
  0
VERTEX
  5
277
  8
0
 62
     0
 10
724.3855155340643
 20
68.07046553577294
 30
0.0
  0
VERTEX
  5
278
  8
0
 62
     0
 10
727.4642033875193
 20
78.79540208499657
 30
0.0
  0
VERTEX
  5
279
  8
0
 62
     0
 10
749.594609472068
 20
91.68620756232127
 30
0.0
  0
VERTEX
  5
27A
  8
0
 62
     0
 10
765.7849613599412
 20
81.81314390026995
 30
0.0
  0
VERTEX
  5
27B
  8
0
 62
     0
 10
781.9959913679118
 20
88.58058373663403
 30
0.0
  0
VERTEX
  5
27C
  8
0
 62
     0
 10
771.8898255250251
 20
61.00489627247794
 30
0.0
  0
VERTEX
  5
27D
  8
0
 62
     0
 10
765.0793969653007
 20
42.62119532321634
 30
0.0
  0
VERTEX
  5
27E
  8
0
 62
     0
 10
793.3416031871654
 20
56.38019851936912
 30
0.0
  0
VERTEX
  5
27F
  8
0
 62
     0
 10
808.0068953760101
 20
52.63975123621668
 30
0.0
  0
VERTEX
  5
280
  8
0
 62
     0
 10
802.5044770856073
 20
29.65638394238533
 30
0.0
  0
VERTEX
  5
281
  8
0
 62
     0
 10
821.8113360202715
 20
60.94286191218583
 30
0.0
  0
VERTEX
  5
282
  8
0
 62
     0
 10
841.7391423054935
 20
63.32659651157667
 30
0.0
  0
VERTEX
  5
283
  8
0
 62
     0
 10
843.9515370038137
 20
81.71601115191777
 30
0.0
  0
VERTEX
  5
284
  8
0
 62
     0
 10
827.0948003172739
 20
83.92650128654475
 30
0.0
  0
VERTEX
  5
285
  8
0
 62
     0
 10
850.1089127107239
 20
103.1658842503649
 30
0.0
  0
VERTEX
  5
286
  8
0
 62
     0
 10
847.9430437826229
 20
122.2176024814585
 30
0.0
  0
VERTEX
  5
287
  8
0
 62
     0
 10
880.1235671213733
 20
117.5795727824975
 30
0.0
  0
VERTEX
  5
288
  8
0
 62
     0
 10
877.0802497365055
 20
135.3186553753003
 30
0.0
  0
VERTEX
  5
289
  8
0
 62
     0
 10
867.8926165100527
 20
142.1176565528657
 30
0.0
  0
VERTEX
  5
28A
  8
0
 62
     0
 10
881.7019546038109
 20
154.3619391100385
 30
0.0
  0
VERTEX
  5
28B
  8
0
 62
     0
 10
850.2392392834429
 20
208.0448470890622
 30
0.0
  0
VERTEX
  5
28C
  8
0
 62
     0
 10
837.9797202167247
 20
209.5927615524091
 30
0.0
  0
VERTEX
  5
28D
  8
0
 62
     0
 10
828.8084118219274
 20
229.5290023339866
 30
0.0
  0
VERTEX
  5
28E
  8
0
 62
     0
 10
883.988627286165
 20
232.5257939486349
 30
0.0
  0
VERTEX
  5
28F
  8
0
 62
     0
 10
887.0779262801964
 20
251.7899362404663
 30
0.0
  0
VERTEX
  5
290
  8
0
 62
     0
 10
876.357615099942
 20
258.590841981725
 30
0.0
  0
VERTEX
  5
291
  8
0
 62
     0
 10
886.4618763791352
 20
284.6338514920797
 30
0.0
  0
VERTEX
  5
292
  8
0
 62
     0
 10
899.385875680827
 20
289.2158326023556
 30
0.0
  0
VERTEX
  5
293
  8
0
 62
     0
 10
892.647820541443
 20
329.073893897548
 30
0.0
  0
VERTEX
  5
294
  8
0
 62
     0
 10
901.859124773797
 20
341.3238901458003
 30
0.0
  0
VERTEX
  5
295
  8
0
 62
     0
 10
883.492020736719
 20
361.4905123029372
 30
0.0
  0
VERTEX
  5
296
  8
0
 62
     0
 10
831.397023058599
 20
374.4735530791172
 30
0.0
  0
VERTEX
  5
297
  8
0
 62
     0
 10
882.6436848964056
 20
383.605953958468
 30
0.0
  0
VERTEX
  5
298
  8
0
 62
     0
 10
897.9525071195985
 20
369.1359447571228
 30
0.0
  0
VERTEX
  5
299
  8
0
 62
     0
 10
898.8634214812591
 20
397.3799215836386
 30
0.0
  0
VERTEX
  5
29A
  8
0
 62
     0
 10
913.338328132101
 20
416.6299156880351
 30
0.0
  0
VERTEX
  5
29B
  8
0
 62
     0
 10
887.2999439907155
 20
430.4563948550319
 30
0.0
  0
VERTEX
  5
29C
  8
0
 62
     0
 10
865.2008271668406
 20
442.7452986187307
 30
0.0
  0
VERTEX
  5
29D
  8
0
 62
     0
 10
861.2757080367651
 20
455.6684816788394
 30
0.0
  0
VERTEX
  5
29E
  8
0
 62
     0
 10
872.8889762638589
 20
462.6605891996832
 30
0.0
  0
VERTEX
  5
29F
  8
0
 62
     0
 10
869.8788527033582
 20
507.1120589873107
 30
0.0
  0
VERTEX
  5
2A0
  8
0
 62
     0
 10
888.2614653305093
 20
499.4258144539854
 30
0.0
  0
VERTEX
  5
2A1
  8
0
 62
     0
 10
900.5552665437049
 20
525.4661031590641
 30
0.0
  0
VERTEX
  5
2A2
  8
0
 62
     0
 10
862.255458771908
 20
539.3078188356064
 30
0.0
  0
VERTEX
  5
2A3
  8
0
 62
     0
 10
859.8820632325655
 20
567.5558768700363
 30
0.0
  0
VERTEX
  5
2A4
  8
0
 62
     0
 10
823.0855487175897
 20
557.7486566956634
 30
0.0
  0
VERTEX
  5
2A5
  8
0
 62
     0
 10
816.9823170356715
 20
579.8706282838566
 30
0.0
  0
VERTEX
  5
2A6
  8
0
 62
     0
 10
779.5488024190095
 20
586.0478658692813
 30
0.0
  0
VERTEX
  5
2A7
  8
0
 62
     0
 10
721.053804034678
 20
558.5323082017243
 30
0.0
  0
VERTEX
  5
2A8
  8
0
 62
     0
 10
734.2397460531301
 20
597.7087481887047
 30
0.0
  0
VERTEX
  5
2A9
  8
0
 62
     0
 10
791.8398828269289
 20
609.898614640358
 30
0.0
  0
VERTEX
  5
2AA
  8
0
 62
     0
 10
790.9926353087258
 20
632.8898722694897
 30
0.0
  0
VERTEX
  5
2AB
  8
0
 62
     0
 10
816.3749737114936
 20
619.7210713242763
 30
0.0
  0
VERTEX
  5
2AC
  8
0
 62
     0
 10
831.6922304310417
 20
612.0386359183374
 30
0.0
  0
VERTEX
  5
2AD
  8
0
 62
     0
 10
833.9152362699383
 20
638.9672563012864
 30
0.0
  0
VERTEX
  5
2AE
  8
0
 62
     0
 10
821.020621665227
 20
658.0323064782323
 30
0.0
  0
VERTEX
  5
2AF
  8
0
 62
     0
 10
849.2972481550546
 20
683.3958713245959
 30
0.0
  0
VERTEX
  5
2B0
  8
0
 62
     0
 10
847.7912340929577
 20
704.8552672415088
 30
0.0
  0
VERTEX
  5
2B1
  8
0
 62
     0
 10
832.4671753602195
 20
707.0638528124427
 30
0.0
  0
VERTEX
  5
2B2
  8
0
 62
     0
 10
823.2482528730927
 20
688.6831447489848
 30
0.0
  0
VERTEX
  5
2B3
  8
0
 62
     0
 10
809.4666669931496
 20
698.7721695186326
 30
0.0
  0
VERTEX
  5
2B4
  8
0
 62
     0
 10
815.6202335726734
 20
717.156686709477
 30
0.0
  0
VERTEX
  5
2B5
  8
0
 62
     0
 10
786.5164935236851
 20
730.9869750038603
 30
0.0
  0
VERTEX
  5
2B6
  8
0
 62
     0
 10
774.2741155302053
 20
746.3289910514197
 30
0.0
  0
VERTEX
  5
2B7
  8
0
 62
     0
 10
741.1892077624566
 20
727.97793976547
 30
0.0
  0
VERTEX
  5
2B8
  8
0
 62
     0
 10
687.496776964967
 20
688.8518346760949
 30
0.0
  0
VERTEX
  5
2B9
  8
0
 62
     0
 10
679.1955708526912
 20
704.1889532741578
 30
0.0
  0
VERTEX
  5
2BA
  8
0
 62
     0
 10
722.1429311419149
 20
730.1911507053728
 30
0.0
  0
VERTEX
  5
2BB
  8
0
 62
     0
 10
729.8416913795097
 20
758.6456470289334
 30
0.0
  0
VERTEX
  5
2BC
  8
0
 62
     0
 10
752.8299561228378
 20
757.0844006197342
 30
0.0
  0
VERTEX
  5
2BD
  8
0
 62
     0
 10
767.5189193175831
 20
772.3929507623994
 30
0.0
  0
VERTEX
  5
2BE
  8
0
 62
     0
 10
744.3364599088661
 20
793.8792826515445
 30
0.0
  0
VERTEX
  5
2BF
  8
0
 62
     0
 10
685.4702132669956
 20
820.0079975280925
 30
0.0
  0
VERTEX
  5
2C0
  8
0
 62
     0
 10
691.6275889739059
 20
841.4578706265396
 30
0.0
  0
VERTEX
  5
2C1
  8
0
 62
     0
 10
703.0436696498073
 20
865.9665696999272
 30
0.0
  0
VERTEX
  5
2C2
  8
0
 62
     0
 10
662.5733675809402
 20
895.1377857197596
 30
0.0
  0
VERTEX
  5
2C3
  8
0
 62
     0
 10
655.5192256998041
 20
856.8295434516073
 30
0.0
  0
VERTEX
  5
2C4
  8
0
 62
     0
 10
642.589512707033
 20
847.6495284799267
 30
0.0
  0
VERTEX
  5
2C5
  8
0
 62
     0
 10
634.022826831138
 20
825.5457862870827
 30
0.0
  0
VERTEX
  5
2C6
  8
0
 62
     0
 10
533.7370004043482
 20
821.7292272875185
 30
0.0
  0
VERTEX
  5
2C7
  8
0
 62
     0
 10
522.1335270762479
 20
822.6194635290818
 30
0.0
  0
VERTEX
  5
2C8
  8
0
 62
     0
 10
528.3031464068999
 20
853.9222663305383
 30
0.0
  0
VERTEX
  5
2C9
  8
0
 62
     0
 10
498.5120713586201
 20
843.2305236056815
 30
0.0
  0
VERTEX
  5
2CA
  8
0
 62
     0
 10
519.1375517031822
 20
878.4565409735202
 30
0.0
  0
VERTEX
  5
2CB
  8
0
 62
     0
 10
503.8260086747135
 20
890.7370102408632
 30
0.0
  0
VERTEX
  5
2CC
  8
0
 62
     0
 10
486.3050638337281
 20
887.0365587952675
 30
0.0
  0
VERTEX
  5
2CD
  8
0
 62
     0
 10
496.1827528647486
 20
906.9491285709443
 30
0.0
  0
VERTEX
  5
2CE
  8
0
 62
     0
 10
457.1898964025807
 20
891.6707793668423
 30
0.0
  0
VERTEX
  5
2CF
  8
0
 62
     0
 10
450.1643229768424
 20
876.352706405711
 30
0.0
  0
VERTEX
  5
2D0
  8
0
 62
     0
 10
412.7308083601803
 20
882.5299439911358
 30
0.0
  0
VERTEX
  5
2D1
  8
0
 62
     0
 10
384.255361835995
 20
873.3692467369148
 30
0.0
  0
VERTEX
  5
2D2
  8
0
 62
     0
 10
362.8405871256078
 20
907.7716875924513
 30
0.0
  0
VERTEX
  5
2D3
  8
0
 62
     0
 10
329.9947673103014
 20
905.622959737589
 30
0.0
  0
VERTEX
  5
2D4
  8
0
 62
     0
 10
345.9335155414627
 20
869.475688948041
 30
0.0
  0
VERTEX
  5
2D5
  8
0
 62
     0
 10
332.1309794608944
 20
862.7052562258733
 30
0.0
  0
VERTEX
  5
2D6
  8
0
 62
     0
 10
337.5610243309563
 20
827.4468612752506
 30
0.0
  0
VERTEX
  5
2D7
  8
0
 62
     0
 10
317.6579773737456
 20
844.9879400752781
 30
0.0
  0
VERTEX
  5
2D8
  8
0
 62
     0
 10
296.8497297459537
 20
838.8830759101944
 30
0.0
  0
VERTEX
  5
2D9
  8
0
 62
     0
 10
313.6912299229479
 20
824.4111621451558
 30
0.0
  0
VERTEX
  5
2DA
  8
0
 62
     0
 10
318.2577024431508
 20
799.0067852196527
 30
0.0
  0
VERTEX
  5
2DB
  8
0
 62
     0
 10
291.3445906502749
 20
813.7101686823609
 30
0.0
  0
VERTEX
  5
2DC
  8
0
 62
     0
 10
280.5965272562056
 20
798.1777670967987
 30
0.0
  0
VERTEX
  5
2DD
  8
0
 62
     0
 10
275.3723765142191
 20
822.9260982836839
 30
0.0
  0
VERTEX
  5
2DE
  8
0
 62
     0
 10
252.3754051940079
 20
817.4808169040765
 30
0.0
  0
VERTEX
  5
2DF
  8
0
 62
     0
 10
230.0725708862781
 20
842.0314163787142
 30
0.0
  0
VERTEX
  5
2E0
  8
0
 62
     0
 10
214.7191274565594
 20
820.592970662426
 30
0.0
  0
VERTEX
  5
2E1
  8
0
 62
     0
 10
203.3011422169648
 20
794.5515936352368
 30
0.0
  0
VERTEX
  5
2E2
  8
0
 62
     0
 10
173.2995476716403
 20
790.6476967863142
 30
0.0
  0
VERTEX
  5
2E3
  8
0
 62
     0
 10
183.9882975106934
 20
758.4481278106322
 30
0.0
  0
VERTEX
  5
2E4
  8
0
 62
     0
 10
164.9327701522134
 20
753.2169029749281
 30
0.0
  0
VERTEX
  5
2E5
  8
0
 62
     0
 10
181.7644754302142
 20
730.8626454474824
 30
0.0
  0
VERTEX
  5
2E6
  8
0
 62
     0
 10
166.4178340136854
 20
714.8980495661993
 30
0.0
  0
VERTEX
  5
2E7
  8
0
 62
     0
 10
151.1253366221484
 20
742.5052983715567
 30
0.0
  0
VERTEX
  5
2E8
  8
0
 62
     0
 10
133.4004022167807
 20
750.8475886434999
 30
0.0
  0
VERTEX
  5
2E9
  8
0
 62
     0
 10
114.988404892649
 20
734.8868018896032
 30
0.0
  0
VERTEX
  5
2EA
  8
0
 62
     0
 10
123.5047558709388
 20
716.4840553034098
 30
0.0
  0
VERTEX
  5
2EB
  8
0
 62
     0
 10
82.75537001207252
 20
697.2667108623251
 30
0.0
  0
VERTEX
  5
2EC
  8
0
 62
     0
 10
83.67607927272685
 20
733.3930314512481
 30
0.0
  0
VERTEX
  5
2ED
  8
0
 62
     0
 10
52.1399022099077
 20
727.958361212217
 30
0.0
  0
VERTEX
  5
2EE
  8
0
 62
     0
 10
40.68681858225308
 20
673.6719190364017
 30
0.0
  0
VERTEX
  5
2EF
  8
0
 62
     0
 10
119.4767903014317
 20
646.6426288582419
 30
0.0
  0
VERTEX
  5
2F0
  8
0
 62
     0
 10
115.7461379172728
 20
639.8596804318047
 30
0.0
  0
VERTEX
  5
2F1
  8
0
 62
     0
 10
54.44745426157142
 20
646.7234367749381
 30
0.0
  0
VERTEX
  5
2F2
  8
0
 62
     0
 10
37.60241703771845
 20
658.3489486257738
 30
0.0
  0
VERTEX
  5
2F3
  8
0
 62
     0
 10
16.10384152483141
 20
625.3135595140477
 30
0.0
  0
VERTEX
  5
2F4
  8
0
 62
     0
 10
40.62587254407134
 20
624.6262245147562
 30
0.0
  0
VERTEX
  5
2F5
  8
0
 62
     0
 10
35.96770888606814
 20
576.2431056643909
 30
0.0
  0
VERTEX
  5
2F6
  8
0
 62
     0
 10
-15.47886130820683
 20
582.437756403582
 30
0.0
  0
VERTEX
  5
2F7
  8
0
 62
     0
 10
16.65404793821398
 20
539.4827778595854
 30
0.0
  0
VERTEX
  5
2F8
  8
0
 62
     0
 10
12.9070707223992
 20
519.5625898291361
 30
0.0
  0
VERTEX
  5
2F9
  8
0
 62
     0
 10
35.89261466045134
 20
515.811803485935
 30
0.0
  0
VERTEX
  5
2FA
  8
0
 62
     0
 10
95.6442000943886
 20
497.345390056284
 30
0.0
  0
VERTEX
  5
2FB
  8
0
 62
     0
 10
79.39589505413728
 20
460.5812531240921
 30
0.0
  0
VERTEX
  5
2FC
  8
0
 62
     0
 10
65.60750716100404
 20
465.1964280587349
 30
0.0
  0
VERTEX
  5
2FD
  8
0
 62
     0
 10
53.3156105115018
 20
440.6888173074577
 30
0.0
  0
VERTEX
  5
2FE
  8
0
 62
     0
 10
32.77393096943949
 20
472.9006299068816
 30
0.0
  0
VERTEX
  5
2FF
  8
0
 62
     0
 10
8.243465453844053
 20
466.8003911107668
 30
0.0
  0
VERTEX
  5
300
  8
0
 62
     0
 10
-18.69658231126401
 20
459.8273292268547
 30
0.0
  0
VERTEX
  5
301
  8
0
 62
     0
 10
-2.525276060322653
 20
434.6274860267891
 30
0.0
  0
VERTEX
  5
302
  8
0
 62
     0
 10
-27.08621459500897
 20
404.0043999698516
 30
0.0
  0
VERTEX
  5
303
  8
0
 62
     0
 10
-4.999613475403379
 20
381.6436125097437
 30
0.0
  0
VERTEX
  5
304
  8
0
 62
     0
 10
26.54690264746445
 20
395.3985344979824
 30
0.0
  0
VERTEX
  5
305
  8
0
 62
     0
 10
25.63979741318998
 20
370.2199135790696
 30
0.0
  0
VERTEX
  5
306
  8
0
 62
     0
 10
-8.095442402097085
 20
357.1245743763074
 30
0.0
  0
VERTEX
  5
307
  8
0
 62
     0
 10
-8.097346965790265
 20
355.5918964225059
 30
0.0
  0
VERTEX
  5
308
  8
0
 62
     0
 10
-33.32766318494665
 20
314.8977429107418
 30
0.0
  0
VERTEX
  5
309
  8
0
 62
     0
 10
-16.48534676636964
 20
301.082691125904
 30
0.0
  0
VERTEX
  5
30A
  8
0
 62
     0
 10
-28.78105254325823
 20
273.5097244670239
 30
0.0
  0
VERTEX
  5
30B
  8
0
 62
     0
 10
-42.61025251553103
 20
245.2818003916364
 30
0.0
  0
VERTEX
  5
30C
  8
0
 62
     0
 10
-6.745602562840887
 20
209.9855862476778
 30
0.0
  0
VERTEX
  5
30D
  8
0
 62
     0
 10
33.08878772645062
 20
197.6746439612438
 30
0.0
  0
VERTEX
  5
30E
  8
0
 62
     0
 10
-19.72592253374498
 20
160.0801285035597
 30
0.0
  0
VERTEX
  5
30F
  8
0
 62
     0
 10
-33.55131337863142
 20
134.917560335775
 30
0.0
  0
VERTEX
  5
310
  8
0
 62
     0
 10
37.62206642228676
 20
145.5578798409159
 30
0.0
  0
VERTEX
  5
311
  8
0
 62
     0
 10
60.61414029300126
 20
147.0619893393196
 30
0.0
  0
VERTEX
  5
312
  8
0
 62
     0
 10
111.1982264595277
 20
151.597172598849
 30
0.0
  0
VERTEX
  5
313
  8
0
 62
     0
 10
119.6963480424684
 20
118.524508454842
 30
0.0
  0
VERTEX
  5
314
  8
0
 62
     0
 10
135.6533256689787
 20
97.04715522310761
 30
0.0
  0
VERTEX
  5
315
  8
0
 62
     0
 10
82.00959728592902
 20
97.11381495236884
 30
0.0
  0
VERTEX
  5
316
  8
0
 62
     0
 10
56.78608307996257
 20
61.89351127560985
 30
0.0
  0
VERTEX
  5
317
  8
0
 62
     0
 10
75.12026537320143
 20
15.2334559170485
 30
0.0
  0
VERTEX
  5
318
  8
0
 62
     0
 10
124.8209173113543
 20
13.63901568348257
 30
0.0
  0
VERTEX
  5
319
  8
0
 62
     0
 10
157.9286798434213
 20
50.38220241504951
 30
0.0
  0
VERTEX
  5
31A
  8
0
 62
     0
 10
187.7091437511248
 20
52.53473939729832
 30
0.0
  0
VERTEX
  5
31B
  8
0
 62
     0
 10
180.9493221695334
 20
74.87648122047449
 30
0.0
  0
VERTEX
  5
31C
  8
0
 62
     0
 10
199.9972312732407
 20
73.97699424097277
 30
0.0
  0
SEQEND
  5
320
  8
0
 62
     0
  0
ENDSEC
  0
EOF
