  0
SECTION
  2
HEADER
  9
$ACADVER
  1
AC1009
  9
$DWGCODEPAGE
  3
ansi_1252
  9
$INSBASE
 10
211.9995634100642
 20
-310.7406807532569
 30
0.0
  9
$EXTMIN
 10
-187.9613511554732
 20
-312.3838234012626
 30
0.0
  9
$EXTMAX
 10
765.6651863412171
 20
1121.707696459271
 30
0.0
  9
$LIMMIN
 10
0.0
 20
0.0
  9
$LIMMAX
 10
8400.0
 20
5940.0
  9
$ORTHOMODE
 70
     0
  9
$REGENMODE
 70
     0
  9
$FILLMODE
 70
     1
  9
$QTEXTMODE
 70
     0
  9
$MIRRTEXT
 70
     1
  9
$DRAGMODE
 70
     2
  9
$LTSCALE
 40
1.0
  9
$OSMODE
 70
    37
  9
$ATTMODE
 70
     1
  9
$TEXTSIZE
 40
0.2
  9
$TRACEWID
 40
0.05
  9
$TEXTSTYLE
  7
STANDARD
  9
$CLAYER
  8
0
  9
$CELTYPE
  6
BYLAYER
  9
$CECOLOR
 62
   256
  9
$DIMSCALE
 40
1.0
  9
$DIMASZ
 40
0.18
  9
$DIMEXO
 40
0.0625
  9
$DIMDLI
 40
0.3799999999999999
  9
$DIMRND
 40
0.0
  9
$DIMDLE
 40
0.0
  9
$DIMEXE
 40
0.18
  9
$DIMTP
 40
0.0
  9
$DIMTM
 40
0.0
  9
$DIMTXT
 40
0.18
  9
$DIMCEN
 40
0.09
  9
$DIMTSZ
 40
0.0
  9
$DIMTOL
 70
     0
  9
$DIMLIM
 70
     0
  9
$DIMTIH
 70
     1
  9
$DIMTOH
 70
     1
  9
$DIMSE1
 70
     0
  9
$DIMSE2
 70
     0
  9
$DIMTAD
 70
     0
  9
$DIMZIN
 70
     0
  9
$DIMBLK
  1

  9
$DIMASO
 70
     0
  9
$DIMSHO
 70
     1
  9
$DIMPOST
  1

  9
$DIMAPOST
  1

  9
$DIMALT
 70
     0
  9
$DIMALTD
 70
     2
  9
$DIMALTF
 40
25.4
  9
$DIMLFAC
 40
1.0
  9
$DIMTOFL
 70
     0
  9
$DIMTVP
 40
0.0
  9
$DIMTIX
 70
     0
  9
$DIMSOXD
 70
     0
  9
$DIMSAH
 70
     0
  9
$DIMBLK1
  1

  9
$DIMBLK2
  1

  9
$DIMSTYLE
  2
STANDARD
  9
$DIMCLRD
 70
     0
  9
$DIMCLRE
 70
     0
  9
$DIMCLRT
 70
     0
  9
$DIMTFAC
 40
1.0
  9
$DIMGAP
 40
0.09
  9
$LUNITS
 70
     2
  9
$LUPREC
 70
     2
  9
$SKETCHINC
 40
0.1
  9
$FILLETRAD
 40
0.0
  9
$AUNITS
 70
     0
  9
$AUPREC
 70
     0
  9
$MENU
  1
acad
  9
$ELEVATION
 40
0.0
  9
$PELEVATION
 40
0.0
  9
$THICKNESS
 40
0.0
  9
$LIMCHECK
 70
     0
  9
$CHAMFERA
 40
0.0
  9
$CHAMFERB
 40
0.0
  9
$SKPOLY
 70
     0
  9
$TDCREATE
 40
2451583.844610995
  9
$TDUPDATE
 40
2457464.593252315
  9
$TDINDWG
 40
0.0003392477
  9
$TDUSRTIMER
 40
0.0003392477
  9
$USRTIMER
 70
     1
  9
$ANGBASE
 50
0.0
  9
$ANGDIR
 70
     0
  9
$PDMODE
 70
     0
  9
$PDSIZE
 40
0.0
  9
$PLINEWID
 40
0.0
  9
$COORDS
 70
     1
  9
$SPLFRAME
 70
     0
  9
$SPLINETYPE
 70
     6
  9
$SPLINESEGS
 70
     8
  9
$ATTDIA
 70
     0
  9
$ATTREQ
 70
     1
  9
$HANDLING
 70
     1
  9
$HANDSEED
  5
214
  9
$SURFTAB1
 70
     6
  9
$SURFTAB2
 70
     6
  9
$SURFTYPE
 70
     6
  9
$SURFU
 70
     6
  9
$SURFV
 70
     6
  9
$UCSNAME
  2

  9
$UCSORG
 10
0.0
 20
0.0
 30
0.0
  9
$UCSXDIR
 10
1.0
 20
0.0
 30
0.0
  9
$UCSYDIR
 10
0.0
 20
1.0
 30
0.0
  9
$PUCSNAME
  2

  9
$PUCSORG
 10
0.0
 20
0.0
 30
0.0
  9
$PUCSXDIR
 10
1.0
 20
0.0
 30
0.0
  9
$PUCSYDIR
 10
0.0
 20
1.0
 30
0.0
  9
$USERI1
 70
     0
  9
$USERI2
 70
     0
  9
$USERI3
 70
     0
  9
$USERI4
 70
     0
  9
$USERI5
 70
     0
  9
$USERR1
 40
0.0
  9
$USERR2
 40
0.0
  9
$USERR3
 40
0.0
  9
$USERR4
 40
0.0
  9
$USERR5
 40
0.0
  9
$WORLDVIEW
 70
     1
  9
$SHADEDGE
 70
     3
  9
$SHADEDIF
 70
    70
  9
$TILEMODE
 70
     1
  9
$MAXACTVP
 70
    48
  9
$PLIMCHECK
 70
     0
  9
$PEXTMIN
 10
1.000000000000000E+20
 20
1.000000000000000E+20
 30
1.000000000000000E+20
  9
$PEXTMAX
 10
-1.000000000000000E+20
 20
-1.000000000000000E+20
 30
-1.000000000000000E+20
  9
$PLIMMIN
 10
0.0
 20
0.0
  9
$PLIMMAX
 10
12.0
 20
9.0
  9
$UNITMODE
 70
     0
  9
$VISRETAIN
 70
     0
  9
$PLINEGEN
 70
     1
  9
$PSLTSCALE
 70
     0
  0
ENDSEC
  0
SECTION
  2
TABLES
  0
TABLE
  2
VPORT
 70
     1
  0
VPORT
  2
*ACTIVE
 70
     0
 10
0.0
 20
0.0
 11
1.0
 21
1.0
 12
288.7562869910982
 22
746.8608241649545
 13
0.0
 23
0.0
 14
100.0
 24
100.0
 15
0.0
 25
0.0
 16
0.0
 26
0.0
 36
1.0
 17
0.0
 27
0.0
 37
0.0
 40
2644.361519418777
 41
1.503537735849057
 42
50.0
 43
0.0
 44
0.0
 50
0.0
 51
0.0
 71
     0
 72
   100
 73
     1
 74
     1
 75
     0
 76
     0
 77
     0
 78
     0
  0
ENDTAB
  0
TABLE
  2
LTYPE
 70
     1
  0
LTYPE
  2
CONTINUOUS
 70
     0
  3
Solid line
 72
    65
 73
     0
 40
0.0
  0
ENDTAB
  0
TABLE
  2
LAYER
 70
     1
  0
LAYER
  2
0
 70
     0
 62
     7
  6
CONTINUOUS
  0
ENDTAB
  0
TABLE
  2
STYLE
 70
     1
  0
STYLE
  2
STANDARD
 70
     0
 40
0.0
 41
1.0
 50
0.0
 71
     0
 42
0.2
  3
TXT
  4

  0
ENDTAB
  0
TABLE
  2
VIEW
 70
     0
  0
ENDTAB
  0
TABLE
  2
UCS
 70
     0
  0
ENDTAB
  0
TABLE
  2
APPID
 70
     1
  0
APPID
  2
ACAD
 70
     0
  0
ENDTAB
  0
TABLE
  2
DIMSTYLE
 70
     1
  0
DIMSTYLE
  2
STANDARD
 70
     0
  3

  4

  5

  6

  7

 40
1.0
 41
0.18
 42
0.0625
 43
0.38
 44
0.18
 45
0.0
 46
0.0
 47
0.0
 48
0.0
140
0.18
141
0.09
142
0.0
143
25.4
144
1.0
145
0.0
146
1.0
147
0.09
 71
     0
 72
     0
 73
     1
 74
     1
 75
     0
 76
     0
 77
     0
 78
     0
170
     0
171
     2
172
     0
173
     0
174
     0
175
     0
176
     0
177
     0
178
     0
  0
ENDTAB
  0
ENDSEC
  0
SECTION
  2
BLOCKS
  0
BLOCK
  8
0
  2
$MODEL_SPACE
 70
     0
 10
0.0
 20
0.0
 30
0.0
  3
$MODEL_SPACE
  1

  0
ENDBLK
  5
1F
  8
0
  0
BLOCK
 67
     1
  8
0
  2
$PAPER_SPACE
 70
     0
 10
0.0
 20
0.0
 30
0.0
  3
$PAPER_SPACE
  1

  0
ENDBLK
  5
1D
 67
     1
  8
0
  0
ENDSEC
  0
SECTION
  2
ENTITIES
  0
POLYLINE
  5
23
  8
0
 62
     0
 66
     1
 10
0.0
 20
0.0
 30
0.0
  0
VERTEX
  5
196
  8
0
 62
     0
 10
605.1927885481779
 20
354.8297988647064
 30
0.0
  0
VERTEX
  5
197
  8
0
 62
     0
 10
435.9405354082384
 20
354.3832551323384
 30
0.0
  0
VERTEX
  5
198
  8
0
 62
     0
 10
313.0453107504324
 20
304.6143818130741
 30
0.0
  0
VERTEX
  5
199
  8
0
 62
     0
 10
540.7528385176744
 20
300.6092001765697
 30
0.0
  0
VERTEX
  5
19A
  8
0
 62
     0
 10
760.8595550372563
 20
346.9729598405779
 30
0.0
  0
SEQEND
  5
1FE
  8
0
 62
     0
  0
POLYLINE
  5
2A
  8
0
 62
     0
 66
     1
 10
0.0
 20
0.0
 30
0.0
  0
VERTEX
  5
19B
  8
0
 62
     0
 10
757.7694398016421
 20
327.0519555685457
 30
0.0
  0
VERTEX
  5
19C
  8
0
 62
     0
 10
535.4816178444136
 20
287.4784905052198
 30
0.0
  0
VERTEX
  5
19D
  8
0
 62
     0
 10
291.5527210091525
 20
276.3959805561524
 30
0.0
  0
VERTEX
  5
19E
  8
0
 62
     0
 10
231.7173347727154
 20
227.4245640185409
 30
0.0
  0
VERTEX
  5
19F
  8
0
 62
     0
 10
249.6093862086091
 20
-175.0357306153502
 30
0.0
  0
VERTEX
  5
1A0
  8
0
 62
     0
 10
300.8929801668534
 20
-312.3838234012626
 30
0.0
  0
SEQEND
  5
1FF
  8
0
 62
     0
  0
POLYLINE
  5
32
  8
0
 62
     0
 66
     1
 10
0.0
 20
0.0
 30
0.0
  0
VERTEX
  5
1A1
  8
0
 62
     0
 10
704.1580890013765
 20
353.1741405124312
 30
0.0
  0
VERTEX
  5
1A2
  8
0
 62
     0
 10
651.2531188373342
 20
419.1451360135707
 30
0.0
  0
VERTEX
  5
1A3
  8
0
 62
     0
 10
609.8642841520334
 20
413.9416633916817
 30
0.0
  0
VERTEX
  5
1A4
  8
0
 62
     0
 10
488.7225960051223
 20
365.703291381998
 30
0.0
  0
VERTEX
  5
1A5
  8
0
 62
     0
 10
611.3406414366223
 20
368.6162821941465
 30
0.0
  0
SEQEND
  5
200
  8
0
 62
     0
  0
POLYLINE
  5
39
  8
0
 62
     0
 66
     1
 10
0.0
 20
0.0
 30
0.0
  0
VERTEX
  5
1A6
  8
0
 62
     0
 10
765.6651863412171
 20
514.0291431138531
 30
0.0
  0
VERTEX
  5
1A7
  8
0
 62
     0
 10
654.3405132676722
 20
436.8766003516008
 30
0.0
  0
VERTEX
  5
1A8
  8
0
 62
     0
 10
719.4867731030839
 20
354.6877728293008
 30
0.0
  0
SEQEND
  5
201
  8
0
 62
     0
  0
POLYLINE
  5
3E
  8
0
 62
     0
 66
     1
 10
0.0
 20
0.0
 30
0.0
  0
VERTEX
  5
1A9
  8
0
 62
     0
 10
597.3078656431255
 20
705.1665273650798
 30
0.0
  0
VERTEX
  5
1AA
  8
0
 62
     0
 10
632.8887356055319
 20
441.5012981047096
 30
0.0
  0
VERTEX
  5
1AB
  8
0
 62
     0
 10
763.279547178133
 20
532.4242714452738
 30
0.0
  0
SEQEND
  5
202
  8
0
 62
     0
  0
POLYLINE
  5
43
  8
0
 62
     0
 66
     1
 10
0.0
 20
0.0
 30
0.0
  0
VERTEX
  5
1AC
  8
0
 62
     0
 10
747.5560146443011
 20
741.7641510143823
 30
0.0
  0
VERTEX
  5
1AD
  8
0
 62
     0
 10
590.3462311413726
 20
741.3026428529963
 30
0.0
  0
VERTEX
  5
1AE
  8
0
 62
     0
 10
420.0693339792365
 20
621.0893530528277
 30
0.0
  0
VERTEX
  5
1AF
  8
0
 62
     0
 10
323.1678014249748
 20
345.3273088812423
 30
0.0
  0
VERTEX
  5
1B0
  8
0
 62
     0
 10
606.1706347196276
 20
436.9364580676722
 30
0.0
  0
VERTEX
  5
1B1
  8
0
 62
     0
 10
571.237103918956
 20
692.9374813174525
 30
0.0
  0
SEQEND
  5
203
  8
0
 62
     0
  0
POLYLINE
  5
4B
  8
0
 62
     0
 66
     1
 10
0.0
 20
0.0
 30
0.0
  0
VERTEX
  5
1B2
  8
0
 62
     0
 10
697.2804677960697
 20
985.522796270683
 30
0.0
  0
VERTEX
  5
1B3
  8
0
 62
     0
 10
609.6370373249085
 20
759.6708352121849
 30
0.0
  0
VERTEX
  5
1B4
  8
0
 62
     0
 10
753.7076766601317
 20
758.6159902514252
 30
0.0
  0
SEQEND
  5
204
  8
0
 62
     0
  0
POLYLINE
  5
50
  8
0
 62
     0
 66
     1
 10
0.0
 20
0.0
 30
0.0
  0
VERTEX
  5
1B5
  8
0
 62
     0
 10
453.5142042849962
 20
929.116537607246
 30
0.0
  0
VERTEX
  5
1B6
  8
0
 62
     0
 10
499.3269412940392
 20
794.1837407619256
 30
0.0
  0
VERTEX
  5
1B7
  8
0
 62
     0
 10
285.2576129686969
 20
672.7111431068752
 30
0.0
  0
VERTEX
  5
1B8
  8
0
 62
     0
 10
228.702313762718
 20
267.9348619249648
 30
0.0
  0
VERTEX
  5
1B9
  8
0
 62
     0
 10
305.4676263476184
 20
373.5944125526039
 30
0.0
  0
VERTEX
  5
1BA
  8
0
 62
     0
 10
396.4394437652533
 20
634.912839334021
 30
0.0
  0
VERTEX
  5
1BB
  8
0
 62
     0
 10
593.4371626185696
 20
761.8805091052291
 30
0.0
  0
VERTEX
  5
1BC
  8
0
 62
     0
 10
693.3422888006696
 20
987.9361876475821
 30
0.0
  0
SEQEND
  5
205
  8
0
 62
     0
  0
POLYLINE
  5
5A
  8
0
 62
     0
 66
     1
 10
0.0
 20
0.0
 30
0.0
  0
VERTEX
  5
1BD
  8
0
 62
     0
 10
606.9077008688881
 20
1030.082826188822
 30
0.0
  0
VERTEX
  5
1BE
  8
0
 62
     0
 10
326.8749952971791
 20
861.8359701849346
 30
0.0
  0
VERTEX
  5
1BF
  8
0
 62
     0
 10
292.9514757567948
 20
697.2244675492319
 30
0.0
  0
VERTEX
  5
1C0
  8
0
 62
     0
 10
477.0137679262605
 20
810.4140884873556
 30
0.0
  0
VERTEX
  5
1C1
  8
0
 62
     0
 10
441.2356395813463
 20
915.3376725325788
 30
0.0
  0
SEQEND
  5
206
  8
0
 62
     0
  0
POLYLINE
  5
61
  8
0
 62
     0
 66
     1
 10
0.0
 20
0.0
 30
0.0
  0
VERTEX
  5
1C2
  8
0
 62
     0
 10
360.256198759481
 20
1118.627920283705
 30
0.0
  0
VERTEX
  5
1C3
  8
0
 62
     0
 10
327.5481821090355
 20
874.972393547364
 30
0.0
  0
VERTEX
  5
1C4
  8
0
 62
     0
 10
491.897812859293
 20
982.7126518979662
 30
0.0
  0
SEQEND
  5
207
  8
0
 62
     0
  0
POLYLINE
  5
66
  8
0
 62
     0
 66
     1
 10
0.0
 20
0.0
 30
0.0
  0
VERTEX
  5
1C5
  8
0
 62
     0
 10
228.2108879880305
 20
1105.873699231235
 30
0.0
  0
VERTEX
  5
1C6
  8
0
 62
     0
 10
310.8429942763674
 20
999.1402580059038
 30
0.0
  0
VERTEX
  5
1C7
  8
0
 62
     0
 10
191.0835235514965
 20
829.8184230822148
 30
0.0
  0
VERTEX
  5
1C8
  8
0
 62
     0
 10
182.982900374641
 20
477.9688785065547
 30
0.0
  0
VERTEX
  5
1C9
  8
0
 62
     0
 10
219.6387492568493
 20
374.5768840930227
 30
0.0
  0
VERTEX
  5
1CA
  8
0
 62
     0
 10
256.073881244595
 20
622.1689573415988
 30
0.0
  0
VERTEX
  5
1CB
  8
0
 62
     0
 10
304.4655054226312
 20
800.5566042466927
 30
0.0
  0
VERTEX
  5
1CC
  8
0
 62
     0
 10
348.6554462366567
 20
1121.707696459271
 30
0.0
  0
SEQEND
  5
208
  8
0
 62
     0
  0
POLYLINE
  5
70
  8
0
 62
     0
 66
     1
 10
0.0
 20
0.0
 30
0.0
  0
VERTEX
  5
1CD
  8
0
 62
     0
 10
115.6141192748068
 20
1062.222749942379
 30
0.0
  0
VERTEX
  5
1CE
  8
0
 62
     0
 10
184.9851893190749
 20
855.8815665516117
 30
0.0
  0
VERTEX
  5
1CF
  8
0
 62
     0
 10
286.3201470155447
 20
999.1707310249947
 30
0.0
  0
VERTEX
  5
1D0
  8
0
 62
     0
 10
216.8214712038336
 20
1102.822491511067
 30
0.0
  0
SEQEND
  5
209
  8
0
 62
     0
  0
POLYLINE
  5
76
  8
0
 62
     0
 66
     1
 10
0.0
 20
0.0
 30
0.0
  0
VERTEX
  5
1D1
  8
0
 62
     0
 10
98.7870393657752
 20
1088.299225357628
 30
0.0
  0
VERTEX
  5
1D2
  8
0
 62
     0
 10
37.74825220051042
 20
775.7082890882826
 30
0.0
  0
VERTEX
  5
1D3
  8
0
 62
     0
 10
158.5190945883068
 20
525.5123680934896
 30
0.0
  0
VERTEX
  5
1D4
  8
0
 62
     0
 10
166.5987675645374
 20
860.5024551773341
 30
0.0
  0
VERTEX
  5
1D5
  8
0
 62
     0
 10
106.4017267203424
 20
1049.096937720526
 30
0.0
  0
SEQEND
  5
20A
  8
0
 62
     0
  0
POLYLINE
  5
7D
  8
0
 62
     0
 66
     1
 10
0.0
 20
0.0
 30
0.0
  0
VERTEX
  5
1D6
  8
0
 62
     0
 10
-54.60455265442348
 20
988.8656147298535
 30
0.0
  0
VERTEX
  5
1D7
  8
0
 62
     0
 10
20.37940037445179
 20
894.4031199534003
 30
0.0
  0
VERTEX
  5
1D8
  8
0
 62
     0
 10
25.49635138856496
 20
783.3869153668351
 30
0.0
  0
VERTEX
  5
1D9
  8
0
 62
     0
 10
88.71814855516945
 20
1090.7202349893
 30
0.0
  0
SEQEND
  5
20B
  8
0
 62
     0
  0
POLYLINE
  5
83
  8
0
 62
     0
 66
     1
 10
0.0
 20
0.0
 30
0.0
  0
VERTEX
  5
1DA
  8
0
 62
     0
 10
-147.6276930980411
 20
838.7785374010155
 30
0.0
  0
VERTEX
  5
1DB
  8
0
 62
     0
 10
2.515704900009549
 20
791.0788735912398
 30
0.0
  0
VERTEX
  5
1DC
  8
0
 62
     0
 10
-0.4231335622606652
 20
892.8962896497206
 30
0.0
  0
VERTEX
  5
1DD
  8
0
 62
     0
 10
-68.40246336602262
 20
985.8173998954893
 30
0.0
  0
SEQEND
  5
20C
  8
0
 62
     0
  0
POLYLINE
  5
89
  8
0
 62
     0
 66
     1
 10
0.0
 20
0.0
 30
0.0
  0
VERTEX
  5
1DE
  8
0
 62
     0
 10
-173.9555709207899
 20
619.6379675901965
 30
0.0
  0
VERTEX
  5
1DF
  8
0
 62
     0
 10
-13.12179060052048
 20
541.05245876514
 30
0.0
  0
VERTEX
  5
1E0
  8
0
 62
     0
 10
135.5174978991264
 20
516.3448688260788
 30
0.0
  0
VERTEX
  5
1E1
  8
0
 62
     0
 10
81.37906753032394
 20
646.9089248634439
 30
0.0
  0
VERTEX
  5
1E2
  8
0
 62
     0
 10
4.018726076302891
 20
767.2109837469246
 30
0.0
  0
VERTEX
  5
1E3
  8
0
 62
     0
 10
-158.3784772973864
 20
821.0565958814514
 30
0.0
  0
SEQEND
  5
20D
  8
0
 62
     0
  0
POLYLINE
  5
91
  8
0
 62
     0
 66
     1
 10
0.0
 20
0.0
 30
0.0
  0
VERTEX
  5
1E4
  8
0
 62
     0
 10
-173.3713544414577
 20
561.1764351107595
 30
0.0
  0
VERTEX
  5
1E5
  8
0
 62
     0
 10
-44.43302789833228
 20
540.4345043003858
 30
0.0
  0
VERTEX
  5
1E6
  8
0
 62
     0
 10
-178.5737387412363
 20
603.441085769661
 30
0.0
  0
SEQEND
  5
20E
  8
0
 62
     0
  0
POLYLINE
  5
96
  8
0
 62
     0
 66
     1
 10
0.0
 20
0.0
 30
0.0
  0
VERTEX
  5
1E7
  8
0
 62
     0
 10
-49.94687357089413
 20
508.2550692837458
 30
0.0
  0
VERTEX
  5
1E8
  8
0
 62
     0
 10
154.5226195286855
 20
304.8113681150543
 30
0.0
  0
VERTEX
  5
1E9
  8
0
 62
     0
 10
186.6604262246031
 20
265.7975614522614
 30
0.0
  0
VERTEX
  5
1EA
  8
0
 62
     0
 10
191.3860658534504
 20
368.481270665877
 30
0.0
  0
VERTEX
  5
1EB
  8
0
 62
     0
 10
139.4224830701597
 20
487.2190902543551
 30
0.0
  0
VERTEX
  5
1EC
  8
0
 62
     0
 10
-163.3128026909006
 20
550.43517372988
 30
0.0
  0
SEQEND
  5
20F
  8
0
 62
     0
  0
POLYLINE
  5
9E
  8
0
 62
     0
 66
     1
 10
0.0
 20
0.0
 30
0.0
  0
VERTEX
  5
1ED
  8
0
 62
     0
 10
-177.2200897745937
 20
459.3674535486343
 30
0.0
  0
VERTEX
  5
1EE
  8
0
 62
     0
 10
64.15094092361433
 20
350.2472140067939
 30
0.0
  0
VERTEX
  5
1EF
  8
0
 62
     0
 10
-59.8047007234
 20
504.3261410262841
 30
0.0
  0
SEQEND
  5
210
  8
0
 62
     0
  0
POLYLINE
  5
A3
  8
0
 62
     0
 66
     1
 10
0.0
 20
0.0
 30
0.0
  0
VERTEX
  5
1F0
  8
0
 62
     0
 10
-178.917648528119
 20
326.6832381118045
 30
0.0
  0
VERTEX
  5
1F1
  8
0
 62
     0
 10
-65.5612422265784
 20
276.8397438966632
 30
0.0
  0
VERTEX
  5
1F2
  8
0
 62
     0
 10
142.2516730798083
 20
297.1632148555927
 30
0.0
  0
VERTEX
  5
1F3
  8
0
 62
     0
 10
-187.9613511554732
 20
449.3089017980772
 30
0.0
  0
SEQEND
  5
211
  8
0
 62
     0
  0
POLYLINE
  5
A9
  8
0
 62
     0
 66
     1
 10
0.0
 20
0.0
 30
0.0
  0
VERTEX
  5
1F4
  8
0
 62
     0
 10
-170.7383344922065
 20
213.2547304704507
 30
0.0
  0
VERTEX
  5
1F5
  8
0
 62
     0
 10
-96.21969875210355
 20
272.9366632893231
 30
0.0
  0
VERTEX
  5
1F6
  8
0
 62
     0
 10
-181.9963363815741
 20
315.9583015625809
 30
0.0
  0
SEQEND
  5
212
  8
0
 62
     0
  0
POLYLINE
  5
AE
  8
0
 62
     0
 66
     1
 10
0.0
 20
0.0
 30
0.0
  0
VERTEX
  5
1F7
  8
0
 62
     0
 10
146.7635170005456
 20
-300.8066710530238
 30
0.0
  0
VERTEX
  5
1F8
  8
0
 62
     0
 10
171.3636351312059
 20
-238.6542099464571
 30
0.0
  0
VERTEX
  5
1F9
  8
0
 62
     0
 10
176.456039311254
 20
159.1794823706321
 30
0.0
  0
VERTEX
  5
1FA
  8
0
 62
     0
 10
162.1269678232041
 20
257.2888287287444
 30
0.0
  0
VERTEX
  5
1FB
  8
0
 62
     0
 10
138.29063932009
 20
281.1844707868746
 30
0.0
  0
VERTEX
  5
1FC
  8
0
 62
     0
 10
-71.71208800082627
 20
260.6447666398209
 30
0.0
  0
VERTEX
  5
1FD
  8
0
 62
     0
 10
-172.2938672103261
 20
194.8644995885268
 30
0.0
  0
SEQEND
  5
213
  8
0
 62
     0
  0
ENDSEC
  0
EOF
