  0
SECTION
  2
HEADER
  9
$ACADVER
  1
AC1009
  9
$DWGCODEPAGE
  3
ansi_1252
  9
$INSBASE
 10
1079.326042175498
 20
736.7458057505528
 30
0.0
  9
$EXTMIN
 10
389.9777861383009
 20
79.03337079557605
 30
-0.0015258207003583
  9
$EXTMAX
 10
1704.378769492017
 20
1408.422393967048
 30
0.0000000349246037
  9
$LIMMIN
 10
0.0
 20
0.0
  9
$LIMMAX
 10
8400.0
 20
5940.0
  9
$ORTHOMODE
 70
     0
  9
$REGENMODE
 70
     0
  9
$FILLMODE
 70
     1
  9
$QTEXTMODE
 70
     0
  9
$MIRRTEXT
 70
     0
  9
$DRAGMODE
 70
     2
  9
$LTSCALE
 40
1.0
  9
$OSMODE
 70
    37
  9
$ATTMODE
 70
     1
  9
$TEXTSIZE
 40
0.2
  9
$TRACEWID
 40
0.05
  9
$TEXTSTYLE
  7
STANDARD
  9
$CLAYER
  8
0
  9
$CELTYPE
  6
BYLAYER
  9
$CECOLOR
 62
   256
  9
$DIMSCALE
 40
1.0
  9
$DIMASZ
 40
0.18
  9
$DIMEXO
 40
0.0625
  9
$DIMDLI
 40
0.3799999999999999
  9
$DIMRND
 40
0.0
  9
$DIMDLE
 40
0.0
  9
$DIMEXE
 40
0.18
  9
$DIMTP
 40
0.0
  9
$DIMTM
 40
0.0
  9
$DIMTXT
 40
0.18
  9
$DIMCEN
 40
0.09
  9
$DIMTSZ
 40
0.0
  9
$DIMTOL
 70
     0
  9
$DIMLIM
 70
     0
  9
$DIMTIH
 70
     1
  9
$DIMTOH
 70
     1
  9
$DIMSE1
 70
     0
  9
$DIMSE2
 70
     0
  9
$DIMTAD
 70
     0
  9
$DIMZIN
 70
     0
  9
$DIMBLK
  1

  9
$DIMASO
 70
     0
  9
$DIMSHO
 70
     1
  9
$DIMPOST
  1

  9
$DIMAPOST
  1

  9
$DIMALT
 70
     0
  9
$DIMALTD
 70
     2
  9
$DIMALTF
 40
25.4
  9
$DIMLFAC
 40
1.0
  9
$DIMTOFL
 70
     0
  9
$DIMTVP
 40
0.0
  9
$DIMTIX
 70
     0
  9
$DIMSOXD
 70
     0
  9
$DIMSAH
 70
     0
  9
$DIMBLK1
  1

  9
$DIMBLK2
  1

  9
$DIMSTYLE
  2
STANDARD
  9
$DIMCLRD
 70
     0
  9
$DIMCLRE
 70
     0
  9
$DIMCLRT
 70
     0
  9
$DIMTFAC
 40
1.0
  9
$DIMGAP
 40
0.09
  9
$LUNITS
 70
     2
  9
$LUPREC
 70
     2
  9
$SKETCHINC
 40
0.1
  9
$FILLETRAD
 40
0.0
  9
$AUNITS
 70
     0
  9
$AUPREC
 70
     1
  9
$MENU
  1
acad
  9
$ELEVATION
 40
0.0
  9
$PELEVATION
 40
0.0
  9
$THICKNESS
 40
0.0
  9
$LIMCHECK
 70
     0
  9
$CHAMFERA
 40
0.0
  9
$CHAMFERB
 40
0.0
  9
$SKPOLY
 70
     0
  9
$TDCREATE
 40
2453749.344783981
  9
$TDUPDATE
 40
2457464.593252315
  9
$TDINDWG
 40
0.0057853588
  9
$TDUSRTIMER
 40
0.0057853588
  9
$USRTIMER
 70
     1
  9
$ANGBASE
 50
0.0
  9
$ANGDIR
 70
     0
  9
$PDMODE
 70
     0
  9
$PDSIZE
 40
0.0
  9
$PLINEWID
 40
0.0
  9
$COORDS
 70
     1
  9
$SPLFRAME
 70
     0
  9
$SPLINETYPE
 70
     6
  9
$SPLINESEGS
 70
     8
  9
$ATTDIA
 70
     0
  9
$ATTREQ
 70
     1
  9
$HANDLING
 70
     1
  9
$HANDSEED
  5
158
  9
$SURFTAB1
 70
     6
  9
$SURFTAB2
 70
     6
  9
$SURFTYPE
 70
     6
  9
$SURFU
 70
     6
  9
$SURFV
 70
     6
  9
$UCSNAME
  2

  9
$UCSORG
 10
0.0
 20
0.0
 30
0.0
  9
$UCSXDIR
 10
1.0
 20
0.0
 30
0.0
  9
$UCSYDIR
 10
0.0
 20
1.0
 30
0.0
  9
$PUCSNAME
  2

  9
$PUCSORG
 10
0.0
 20
0.0
 30
0.0
  9
$PUCSXDIR
 10
1.0
 20
0.0
 30
0.0
  9
$PUCSYDIR
 10
0.0
 20
1.0
 30
0.0
  9
$USERI1
 70
     0
  9
$USERI2
 70
     0
  9
$USERI3
 70
     0
  9
$USERI4
 70
     0
  9
$USERI5
 70
     0
  9
$USERR1
 40
0.0
  9
$USERR2
 40
0.0
  9
$USERR3
 40
0.0
  9
$USERR4
 40
0.0
  9
$USERR5
 40
0.0
  9
$WORLDVIEW
 70
     1
  9
$SHADEDGE
 70
     3
  9
$SHADEDIF
 70
    70
  9
$TILEMODE
 70
     1
  9
$MAXACTVP
 70
    64
  9
$PLIMCHECK
 70
     0
  9
$PEXTMIN
 10
1.000000000000000E+20
 20
1.000000000000000E+20
 30
1.000000000000000E+20
  9
$PEXTMAX
 10
-1.000000000000000E+20
 20
-1.000000000000000E+20
 30
-1.000000000000000E+20
  9
$PLIMMIN
 10
0.0
 20
0.0
  9
$PLIMMAX
 10
12.0
 20
9.0
  9
$UNITMODE
 70
     0
  9
$VISRETAIN
 70
     1
  9
$PLINEGEN
 70
     1
  9
$PSLTSCALE
 70
     0
  0
ENDSEC
  0
SECTION
  2
TABLES
  0
TABLE
  2
VPORT
 70
     1
  0
VPORT
  2
*ACTIVE
 70
     0
 10
0.0
 20
0.0
 11
1.0
 21
1.0
 12
1047.178277815159
 22
743.7278823813123
 13
0.0
 23
0.0
 14
100.0
 24
100.0
 15
0.0
 25
0.0
 16
0.0
 26
0.0
 36
1.0
 17
0.0
 27
0.0
 37
0.0
 40
1343.236825496175
 41
1.424347826086956
 42
50.0
 43
0.0
 44
0.0
 50
0.0
 51
0.0
 71
     0
 72
   100
 73
     1
 74
     3
 75
     0
 76
     0
 77
     0
 78
     0
  0
ENDTAB
  0
TABLE
  2
LTYPE
 70
     1
  0
LTYPE
  2
CONTINUOUS
 70
     0
  3
Solid line
 72
    65
 73
     0
 40
0.0
  0
ENDTAB
  0
TABLE
  2
LAYER
 70
     1
  0
LAYER
  2
0
 70
     0
 62
     7
  6
CONTINUOUS
  0
ENDTAB
  0
TABLE
  2
STYLE
 70
     1
  0
STYLE
  2
STANDARD
 70
     0
 40
0.0
 41
1.0
 50
0.0
 71
     0
 42
0.2
  3
TXT
  4

  0
ENDTAB
  0
TABLE
  2
VIEW
 70
     0
  0
ENDTAB
  0
TABLE
  2
UCS
 70
     0
  0
ENDTAB
  0
TABLE
  2
APPID
 70
     1
  0
APPID
  2
ACAD
 70
     0
  0
ENDTAB
  0
TABLE
  2
DIMSTYLE
 70
     1
  0
DIMSTYLE
  2
STANDARD
 70
     0
  3

  4

  5

  6

  7

 40
1.0
 41
0.18
 42
0.0625
 43
0.38
 44
0.18
 45
0.0
 46
0.0
 47
0.0
 48
0.0
140
0.18
141
0.09
142
0.0
143
25.4
144
1.0
145
0.0
146
1.0
147
0.09
 71
     0
 72
     0
 73
     1
 74
     1
 75
     0
 76
     0
 77
     0
 78
     0
170
     0
171
     2
172
     0
173
     0
174
     0
175
     0
176
     0
177
     0
178
     0
  0
ENDTAB
  0
ENDSEC
  0
SECTION
  2
BLOCKS
  0
BLOCK
  8
0
  2
$MODEL_SPACE
 70
     0
 10
0.0
 20
0.0
 30
0.0
  3
$MODEL_SPACE
  1

  0
ENDBLK
  5
29
  8
0
  0
BLOCK
 67
     1
  8
0
  2
$PAPER_SPACE
 70
     0
 10
0.0
 20
0.0
 30
0.0
  3
$PAPER_SPACE
  1

  0
ENDBLK
  5
27
 67
     1
  8
0
  0
ENDSEC
  0
SECTION
  2
ENTITIES
  0
POINT
  5
2B
  8
0
 62
     0
 10
510.7864805130342
 20
759.0948015635794
 30
0.0
  0
POINT
  5
2C
  8
0
 62
     0
 10
484.1915990849703
 20
727.284970029349
 30
0.0
  0
POINT
  5
2D
  8
0
 62
     0
 10
537.239310674376
 20
694.4020012267416
 30
0.0
  0
POINT
  5
2E
  8
0
 62
     0
 10
487.3114505986814
 20
700.3847186630339
 30
0.0
  0
POINT
  5
2F
  8
0
 62
     0
 10
478.8164759162274
 20
765.4297223979232
 30
0.0
  0
POINT
  5
30
  8
0
 62
     0
 10
462.580912416176
 20
724.88357096625
 30
0.0
  0
POINT
  5
31
  8
0
 62
     0
 10
515.6095716773352
 20
729.6595184932864
 30
0.0
  0
POINT
  5
32
  8
0
 62
     0
 10
416.8900829851926
 20
678.589489752215
 30
0.0
  0
POINT
  5
33
  8
0
 62
     0
 10
390.0912968093933
 20
744.4000895749812
 30
0.0
  0
POINT
  5
34
  8
0
 62
     0
 10
475.1839377644243
 20
777.1666170001715
 30
0.0
  0
POINT
  5
35
  8
0
 62
     0
 10
431.1694973848694
 20
718.5302181585877
 30
0.0
  0
POINT
  5
36
  8
0
 62
     0
 10
438.5294813179331
 20
767.9656846342936
 30
0.0
  0
POINT
  5
37
  8
0
 62
     0
 10
509.2509020184712
 20
816.4947444652572
 30
0.0
  0
POINT
  5
38
  8
0
 62
     0
 10
467.1276554836363
 20
823.9743153846907
 30
0.0
  0
POINT
  5
39
  8
0
 62
     0
 10
507.2488499906885
 20
843.7409518460296
 30
0.0
  0
POINT
  5
3A
  8
0
 62
     0
 10
475.6260421181957
 20
900.4030797913844
 30
0.0
  0
POINT
  5
3B
  8
0
 62
     0
 10
507.8820541475428
 20
890.1758436169301
 30
0.0
  0
POINT
  5
3C
  8
0
 62
     0
 10
457.3010070543548
 20
848.7988306642612
 30
0.0
  0
POINT
  5
3D
  8
0
 62
     0
 10
524.9494097009822
 20
934.9602664031713
 30
0.0
  0
POINT
  5
3E
  8
0
 62
     0
 10
537.6654644745422
 20
983.9098968399466
 30
0.0
  0
POINT
  5
3F
  8
0
 62
     0
 10
487.4375513117981
 20
963.1587833560942
 30
0.0
  0
POINT
  5
40
  8
0
 62
     0
 10
543.6278888727313
 20
1020.051666648346
 30
0.0
  0
POINT
  5
41
  8
0
 62
     0
 10
517.525090867192
 20
976.7578499616519
 30
0.0
  0
POINT
  5
42
  8
0
 62
     0
 10
470.9693714000651
 20
933.2582674624379
 30
0.0
  0
POINT
  5
43
  8
0
 62
     0
 10
436.0172240717714
 20
882.9385484448776
 30
0.0
  0
POINT
  5
44
  8
0
 62
     0
 10
424.8601426055188
 20
918.9875818660684
 30
0.0
  0
POINT
  5
45
  8
0
 62
     0
 10
564.5410364839447
 20
1067.251223974731
 30
0.0
  0
POINT
  5
46
  8
0
 62
     0
 10
577.6096048330203
 20
1111.104250581853
 30
0.0
  0
POINT
  5
47
  8
0
 62
     0
 10
525.5748594212333
 20
659.8638669432014
 30
0.0
  0
POINT
  5
48
  8
0
 62
     0
 10
533.604601280324
 20
616.110134284346
 30
0.0
  0
POINT
  5
49
  8
0
 62
     0
 10
464.2360778971089
 20
660.1714081237014
 30
0.0
  0
POINT
  5
4A
  8
0
 62
     0
 10
473.0376632276706
 20
617.881430965232
 30
0.0
  0
POINT
  5
4B
  8
0
 62
     0
 10
546.438071798005
 20
567.7187832356068
 30
0.0
  0
POINT
  5
4C
  8
0
 62
     0
 10
494.3426697807496
 20
636.1115583996153
 30
0.0
  0
POINT
  5
4D
  8
0
 62
     0
 10
500.1162094524162
 20
565.0185717953149
 30
0.0
  0
POINT
  5
4E
  8
0
 62
     0
 10
589.5310416772932
 20
1041.914022057068
 30
0.0
  0
POINT
  5
4F
  8
0
 62
     0
 10
610.4904023933789
 20
1074.123200626615
 30
0.0
  0
POINT
  5
50
  8
0
 62
     0
 10
615.5879367554243
 20
1113.059469149835
 30
0.0
  0
POINT
  5
51
  8
0
 62
     0
 10
557.7864755761815
 20
1015.85960839865
 30
0.0
  0
POINT
  5
52
  8
0
 62
     0
 10
659.1624440234567
 20
1138.48816674485
 30
0.0
  0
POINT
  5
53
  8
0
 62
     0
 10
666.0834253773904
 20
1193.299686921691
 30
0.0
  0
POINT
  5
54
  8
0
 62
     0
 10
707.4882194616131
 20
1191.109680699778
 30
0.0
  0
POINT
  5
55
  8
0
 62
     0
 10
682.4704331367108
 20
1168.055841746165
 30
0.0
  0
POINT
  5
56
  8
0
 62
     0
 10
697.5432247558181
 20
1274.691422517158
 30
0.0
  0
POINT
  5
57
  8
0
 62
     0
 10
921.049973368401
 20
1276.932814374104
 30
0.0
  0
POINT
  5
58
  8
0
 62
     0
 10
882.5787554808616
 20
1292.39627112408
 30
0.0
  0
POINT
  5
59
  8
0
 62
     0
 10
867.6978381198388
 20
1231.783503156922
 30
0.0
  0
POINT
  5
5A
  8
0
 62
     0
 10
857.9591832666132
 20
1281.116481186942
 30
0.0
  0
POINT
  5
5B
  8
0
 62
     0
 10
917.1955663774592
 20
1309.295693767715
 30
0.0
  0
POINT
  5
5C
  8
0
 62
     0
 10
873.6168198129068
 20
1312.207182381276
 30
0.0
  0
POINT
  5
5D
  8
0
 62
     0
 10
894.5457727305951
 20
1263.249779390652
 30
0.0
  0
POINT
  5
5E
  8
0
 62
     0
 10
815.4692894271408
 20
1341.356085612432
 30
0.0
  0
POINT
  5
5F
  8
0
 62
     0
 10
869.7776088729328
 20
1387.17983958897
 30
0.0
  0
POINT
  5
60
  8
0
 62
     0
 10
927.2355004483742
 20
1316.377342740961
 30
0.0
  0
POINT
  5
61
  8
0
 62
     0
 10
857.867761162819
 20
1340.117919344024
 30
0.0
  0
POINT
  5
62
  8
0
 62
     0
 10
907.1580438042729
 20
1348.394557930502
 30
0.0
  0
POINT
  5
63
  8
0
 62
     0
 10
975.1660432489947
 20
1296.130794140411
 30
0.0
  0
POINT
  5
64
  8
0
 62
     0
 10
969.2627388735041
 20
1338.50369676961
 30
0.0
  0
POINT
  5
65
  8
0
 62
     0
 10
1000.4600582226
 20
1306.454399880318
 30
0.0
  0
POINT
  5
66
  8
0
 62
     0
 10
1044.576959189725
 20
1354.039037843564
 30
0.0
  0
POINT
  5
67
  8
0
 62
     0
 10
1044.817935470152
 20
1320.201357629966
 30
0.0
  0
POINT
  5
68
  8
0
 62
     0
 10
989.8356545316124
 20
1355.520591890128
 30
0.0
  0
POINT
  5
69
  8
0
 62
     0
 10
1092.684555504576
 20
1317.808485639163
 30
0.0
  0
POINT
  5
6A
  8
0
 62
     0
 10
1143.167897528143
 20
1320.841066558539
 30
0.0
  0
POINT
  5
6B
  8
0
 62
     0
 10
1107.911137069668
 20
1362.198203953161
 30
0.0
  0
POINT
  5
6C
  8
0
 62
     0
 10
1179.383253681577
 20
1326.338885059307
 30
0.0
  0
POINT
  5
6D
  8
0
 62
     0
 10
1130.142179021961
 20
1337.785596088469
 30
0.0
  0
POINT
  5
6E
  8
0
 62
     0
 10
1074.38510912927
 20
1368.620606218017
 30
0.0
  0
POINT
  5
6F
  8
0
 62
     0
 10
1015.727404945138
 20
1386.312425364501
 30
0.0
  0
POINT
  5
70
  8
0
 62
     0
 10
1046.564345305806
 20
1408.063204353755
 30
0.0
  0
POINT
  5
71
  8
0
 62
     0
 10
1230.735218260819
 20
1321.034765088247
 30
0.0
  0
POINT
  5
72
  8
0
 62
     0
 10
1276.480334686802
 20
1322.157148477588
 30
0.0
  0
POINT
  5
73
  8
0
 62
     0
 10
831.2456067815216
 20
1232.204185082613
 30
0.0
  0
POINT
  5
74
  8
0
 62
     0
 10
792.1146609189841
 20
1211.046799804432
 30
0.0
  0
POINT
  5
75
  8
0
 62
     0
 10
812.5833699200589
 20
1290.635868403981
 30
0.0
  0
POINT
  5
76
  8
0
 62
     0
 10
775.083051014108
 20
1269.196741687927
 30
0.0
  0
POINT
  5
77
  8
0
 62
     0
 10
750.0575116585276
 20
1183.887694187086
 30
0.0
  0
POINT
  5
78
  8
0
 62
     0
 10
799.0045415936404
 20
1254.567895562756
 30
0.0
  0
POINT
  5
79
  8
0
 62
     0
 10
733.1752152969793
 20
1227.107991994329
 30
0.0
  0
POINT
  5
7A
  8
0
 62
     0
 10
1214.360443566603
 20
1289.438231824397
 30
0.0
  0
POINT
  5
7B
  8
0
 62
     0
 10
1251.46999138219
 20
1279.45787879083
 30
0.0
  0
POINT
  5
7C
  8
0
 62
     0
 10
1290.075808028698
 20
1286.641804189989
 30
0.0
  0
POINT
  5
7D
  8
0
 62
     0
 10
1179.771613274213
 20
1311.577851672895
 30
0.0
  0
POINT
  5
7E
  8
0
 62
     0
 10
1327.725199844672
 20
1253.057884810057
 30
0.0
  0
POINT
  5
7F
  8
0
 62
     0
 10
1381.992754133018
 20
1263.413331616411
 30
0.0
  0
POINT
  5
80
  8
0
 62
     0
 10
1392.704719465561
 20
1223.358283256394
 30
0.0
  0
POINT
  5
81
  8
0
 62
     0
 10
1363.048294567073
 20
1240.027583941722
 30
0.0
  0
POINT
  5
82
  8
0
 62
     0
 10
1469.12250729122
 20
1258.644713916891
 30
0.0
  0
POINT
  5
83
  8
0
 62
     0
 10
1540.321581301116
 20
1046.769792387801
 30
0.0
  0
POINT
  5
84
  8
0
 62
     0
 10
1543.139942486078
 20
1088.13656577708
 30
0.0
  0
POINT
  5
85
  8
0
 62
     0
 10
1480.895318183782
 20
1083.558783823774
 30
0.0
  0
POINT
  5
86
  8
0
 62
     0
 10
1524.804358555479
 20
1108.065523576285
 30
0.0
  0
POINT
  5
87
  8
0
 62
     0
 10
1569.909431371046
 20
1060.436230992522
 30
0.0
  0
POINT
  5
88
  8
0
 62
     0
 10
1559.211848307086
 20
1102.781781345234
 30
0.0
  0
POINT
  5
89
  8
0
 62
     0
 10
1519.117993298005
 20
1067.748494769067
 30
0.0
  0
POINT
  5
8A
  8
0
 62
     0
 10
1568.965527597799
 20
1167.090875490906
 30
0.0
  0
POINT
  5
8B
  8
0
 62
     0
 10
1629.328701062985
 20
1129.600913117753
 30
0.0
  0
POINT
  5
8C
  8
0
 62
     0
 10
1579.746990023483
 20
1053.076036152135
 30
0.0
  0
POINT
  5
8D
  8
0
 62
     0
 10
1580.889809801823
 20
1126.384918246933
 30
0.0
  0
POINT
  5
8E
  8
0
 62
     0
 10
1603.992895856267
 20
1082.064695730269
 30
0.0
  0
POINT
  5
8F
  8
0
 62
     0
 10
1575.302730319451
 20
1001.234853497033
 30
0.0
  0
POINT
  5
90
  8
0
 62
     0
 10
1613.777534104297
 20
1019.943176604435
 30
0.0
  0
POINT
  5
91
  8
0
 62
     0
 10
1592.93734331287
 20
980.3689853499774
 30
0.0
  0
POINT
  5
92
  8
0
 62
     0
 10
1651.82589546136
 20
953.1157810082674
 30
0.0
  0
POINT
  5
93
  8
0
 62
     0
 10
1619.718814963799
 20
942.4301807102681
 30
0.0
  0
POINT
  5
94
  8
0
 62
     0
 10
1636.318943657974
 20
1005.635680892337
 30
0.0
  0
POINT
  5
95
  8
0
 62
     0
 10
1632.23465751821
 20
896.1668817029827
 30
0.0
  0
POINT
  5
96
  8
0
 62
     0
 10
1650.719023980901
 20
849.0914893480165
 30
0.0
  0
POINT
  5
97
  8
0
 62
     0
 10
1679.157060847094
 20
895.4027194191441
 30
0.0
  0
POINT
  5
98
  8
0
 62
     0
 10
1667.138920600216
 20
816.3475582370697
 30
0.0
  0
POINT
  5
99
  8
0
 62
     0
 10
1662.809060823542
 20
866.7158313991841
 30
0.0
  0
POINT
  5
9A
  8
0
 62
     0
 10
1674.905015983882
 20
929.2724982019062
 30
0.0
  0
POINT
  5
9B
  8
0
 62
     0
 10
1673.604708424346
 20
990.5263627748095
 30
0.0
  0
POINT
  5
9C
  8
0
 62
     0
 10
1703.820067142544
 20
967.9200500507645
 30
0.0
  0
POINT
  5
9D
  8
0
 62
     0
 10
1677.963032488055
 20
765.869874488163
 30
0.0
  0
POINT
  5
9E
  8
0
 62
     0
 10
1693.166500909558
 20
722.7105189640616
 30
0.0
  0
POINT
  5
9F
  8
0
 62
     0
 10
1470.031051504071
 20
1118.356913835843
 30
0.0
  0
POINT
  5
A0
  8
0
 62
     0
 10
1437.817055089999
 20
1149.034663279707
 30
0.0
  0
POINT
  5
A1
  8
0
 62
     0
 10
1519.83593634171
 20
1154.162138967819
 30
0.0
  0
POINT
  5
A2
  8
0
 62
     0
 10
1487.85787933831
 20
1183.202007126651
 30
0.0
  0
POINT
  5
A3
  8
0
 62
     0
 10
1398.990836859429
 20
1180.640763952877
 30
0.0
  0
POINT
  5
A4
  8
0
 62
     0
 10
1481.337167024943
 20
1155.93075557072
 30
0.0
  0
POINT
  5
A5
  8
0
 62
     0
 10
1434.878866245432
 20
1210.052588441938
 30
0.0
  0
POINT
  5
A6
  8
0
 62
     0
 10
1642.852859975559
 20
771.6793449220988
 30
0.0
  0
POINT
  5
A7
  8
0
 62
     0
 10
1644.828461116646
 20
733.3019689580849
 30
0.0
  0
POINT
  5
A8
  8
0
 62
     0
 10
1663.590633605589
 20
698.805610504189
 30
0.0
  0
POINT
  5
A9
  8
0
 62
     0
 10
1653.220353324872
 20
811.4167961448909
 30
0.0
  0
POINT
  5
AA
  8
0
 62
     0
 10
1643.284730135591
 20
652.6209092569403
 30
0.0
  0
POINT
  5
AB
  8
0
 62
     0
 10
1669.902941818185
 20
604.2094071751171
 30
0.0
  0
POINT
  5
AC
  8
0
 62
     0
 10
1635.118506395784
 20
581.6440320895189
 30
0.0
  0
POINT
  5
AD
  8
0
 62
     0
 10
1641.807614148612
 20
615.0000654353565
 30
0.0
  0
POINT
  5
AE
  8
0
 62
     0
 10
1692.292291322915
 20
519.8705037619918
 30
0.0
  0
POINT
  5
AF
  8
0
 62
     0
 10
1512.788990415967
 20
386.6832090363521
 30
0.0
  0
POINT
  5
B0
  8
0
 62
     0
 10
1553.002051308386
 20
396.7858242458656
 30
0.0
  0
POINT
  5
B1
  8
0
 62
     0
 10
1529.413675233622
 20
454.5693673727935
 30
0.0
  0
POINT
  5
B2
  8
0
 62
     0
 10
1566.289609449948
 20
420.3823874632742
 30
0.0
  0
POINT
  5
B3
  8
0
 62
     0
 10
1534.929694404161
 20
362.7666532056224
 30
0.0
  0
POINT
  5
B4
  8
0
 62
     0
 10
1571.896971037711
 20
386.026153982358
 30
0.0
  0
POINT
  5
B5
  8
0
 62
     0
 10
1526.1886529844
 20
413.3317951312945
 30
0.0
  0
POINT
  5
B6
  8
0
 62
     0
 10
1636.072606740504
 20
396.6224567189435
 30
0.0
  0
POINT
  5
B7
  8
0
 62
     0
 10
1619.070780165002
 20
327.6286317588424
 30
0.0
  0
POINT
  5
B8
  8
0
 62
     0
 10
1530.969705946773
 20
351.1361536571963
 30
0.0
  0
POINT
  5
B9
  8
0
 62
     0
 10
1601.043746698358
 20
372.7029578659764
 30
0.0
  0
POINT
  5
BA
  8
0
 62
     0
 10
1566.031956483564
 20
337.0349153752417
 30
0.0
  0
POINT
  5
BB
  8
0
 62
     0
 10
1480.292459594229
 20
339.3430893599015
 30
0.0
  0
POINT
  5
BC
  8
0
 62
     0
 10
1509.974500419237
 20
308.5325662835912
 30
0.0
  0
POINT
  5
BD
  8
0
 62
     0
 10
1465.897234829008
 20
316.1236679003396
 30
0.0
  0
POINT
  5
BE
  8
0
 62
     0
 10
1458.17546063792
 20
251.6956233515704
 30
0.0
  0
POINT
  5
BF
  8
0
 62
     0
 10
1438.091217330471
 20
278.9292393908088
 30
0.0
  0
POINT
  5
C0
  8
0
 62
     0
 10
1503.332942019633
 20
282.6731525191034
 30
0.0
  0
POINT
  5
C1
  8
0
 62
     0
 10
1397.959813392515
 20
252.7298201634108
 30
0.0
  0
POINT
  5
C2
  8
0
 62
     0
 10
1358.9004381034
 20
220.6030467349283
 30
0.0
  0
POINT
  5
C3
  8
0
 62
     0
 10
1411.732871918505
 20
207.86782358508
 30
0.0
  0
POINT
  5
C4
  8
0
 62
     0
 10
1332.833136152462
 20
194.8683658823104
 30
0.0
  0
POINT
  5
C5
  8
0
 62
     0
 10
1379.398210303573
 20
214.5509596219741
 30
0.0
  0
POINT
  5
C6
  8
0
 62
     0
 10
1442.630991611749
 20
222.3780957994105
 30
0.0
  0
POINT
  5
C7
  8
0
 62
     0
 10
1500.485061528258
 20
242.5432469012642
 30
0.0
  0
POINT
  5
C8
  8
0
 62
     0
 10
1488.322239837708
 20
206.8209982882414
 30
0.0
  0
POINT
  5
C9
  8
0
 62
     0
 10
1288.170840617937
 20
168.9755616231772
 30
0.0
  0
POINT
  5
CA
  8
0
 62
     0
 10
1251.821984423328
 20
141.1792295874015
 30
0.0
  0
POINT
  5
CB
  8
0
 62
     0
 10
1559.151420501035
 20
475.6551125394998
 30
0.0
  0
POINT
  5
CC
  8
0
 62
     0
 10
1578.373021666209
 20
515.7723896723409
 30
0.0
  0
POINT
  5
CD
  8
0
 62
     0
 10
1608.594768997933
 20
439.3522753245347
 30
0.0
  0
POINT
  5
CE
  8
0
 62
     0
 10
1626.331561781601
 20
478.7390275915628
 30
0.0
  0
POINT
  5
CF
  8
0
 62
     0
 10
1596.434248405552
 20
562.4651397575581
 30
0.0
  0
POINT
  5
D0
  8
0
 62
     0
 10
1598.380049361548
 20
476.51331333942
 30
0.0
  0
POINT
  5
D1
  8
0
 62
     0
 10
1635.496566716905
 20
537.4223491557008
 30
0.0
  0
POINT
  5
D2
  8
0
 62
     0
 10
1282.846335348558
 20
204.1625450718381
 30
0.0
  0
POINT
  5
D3
  8
0
 62
     0
 10
1246.957776186376
 20
190.424375360611
 30
0.0
  0
POINT
  5
D4
  8
0
 62
     0
 10
1219.947619840822
 20
161.9205279488439
 30
0.0
  0
POINT
  5
D5
  8
0
 62
     0
 10
1323.842628908962
 20
206.5820207053162
 30
0.0
  0
POINT
  5
D6
  8
0
 62
     0
 10
1169.748489508115
 20
166.9607321977165
 30
0.0
  0
POINT
  5
D7
  8
0
 62
     0
 10
1131.931894759352
 20
126.6853316583602
 30
0.0
  0
POINT
  5
D8
  8
0
 62
     0
 10
1099.72196605629
 20
152.7942112465873
 30
0.0
  0
POINT
  5
D9
  8
0
 62
     0
 10
1133.512486900436
 20
156.7400728988613
 30
0.0
  0
POINT
  5
DA
  8
0
 62
     0
 10
1058.639520581073
 20
79.32964047467418
 30
0.0
  0
POINT
  5
DB
  8
0
 62
     0
 10
443.8507871653759
 20
545.8346236847898
 30
0.0
  0
POINT
  5
DC
  8
0
 62
     0
 10
540.6095023635709
 20
498.5473403333996
 30
0.0
  0
POINT
  5
DD
  8
0
 62
     0
 10
526.4149197371544
 20
529.4646970632272
 30
0.0
  0
POINT
  5
DE
  8
0
 62
     0
 10
511.5373150284571
 20
490.7631469839261
 30
0.0
  0
POINT
  5
DF
  8
0
 62
     0
 10
561.5274676045674
 20
467.2432113459411
 30
0.0
  0
POINT
  5
E0
  8
0
 62
     0
 10
646.8272600321743
 20
332.9346274337527
 30
0.0
  0
POINT
  5
E1
  8
0
 62
     0
 10
572.2463328858681
 20
417.9434925626474
 30
0.0
  0
POINT
  5
E2
  8
0
 62
     0
 10
607.7017000378123
 20
401.0634806193643
 30
0.0
  0
POINT
  5
E3
  8
0
 62
     0
 10
631.8576505483886
 20
371.1767604801031
 30
0.0
  0
POINT
  5
E4
  8
0
 62
     0
 10
1057.781473404669
 20
138.7694029682218
 30
0.0
  0
POINT
  5
E5
  8
0
 62
     0
 10
988.383903355522
 20
155.247381482994
 30
0.0
  0
POINT
  5
E6
  8
0
 62
     0
 10
1069.527662394888
 20
183.658523222377
 30
0.0
  0
POINT
  5
E7
  8
0
 62
     0
 10
999.1381757547123
 20
129.3516969841318
 30
0.0
  0
POINT
  5
E8
  8
0
 62
     0
 10
956.1981779595919
 20
134.0492135354688
 30
0.0
  0
POINT
  5
E9
  8
0
 62
     0
 10
1019.538992160885
 20
186.4069173146791
 30
0.0
  0
POINT
  5
EA
  8
0
 62
     0
 10
975.4453929085421
 20
192.2908259543474
 30
0.0
  0
POINT
  5
EB
  8
0
 62
     0
 10
562.3699062636936
 20
381.2197567446009
 30
0.0
  0
POINT
  5
EC
  8
0
 62
     0
 10
600.0382032656469
 20
355.2394791811865
 30
0.0
  0
POINT
  5
ED
  8
0
 62
     0
 10
697.8815362248256
 20
176.579069796676
 30
0.0
  0
POINT
  5
EE
  8
0
 62
     0
 10
735.6139321468887
 20
176.050320870053
 30
0.0
  0
POINT
  5
EF
  8
0
 62
     0
 10
698.5578429914365
 20
224.8414366737333
 30
0.0
  0
POINT
  5
F0
  8
0
 62
     0
 10
671.5737901001352
 20
282.5606672842258
 30
0.0
  0
POINT
  5
F1
  8
0
 62
     0
 10
638.4651318094152
 20
320.764428528472
 30
0.0
  0
POINT
  5
F2
  8
0
 62
     0
 10
675.2097099693374
 20
249.743374042026
 30
0.0
  0
POINT
  5
F3
  8
0
 62
     0
 10
670.9955070294164
 20
303.9254048740743
 30
0.0
  0
POINT
  5
F4
  8
0
 62
     0
 10
713.6198950001184
 20
276.7054504467774
 30
0.0
  0
POINT
  5
F5
  8
0
 62
     0
 10
774.659783852828
 20
185.7426483896758
 30
0.0
  0
POINT
  5
F6
  8
0
 62
     0
 10
750.9383092044378
 20
246.6342830075313
 30
0.0
  0
POINT
  5
F7
  8
0
 62
     0
 10
731.2439737092027
 20
219.1173823607185
 30
0.0
  0
POINT
  5
F8
  8
0
 62
     0
 10
794.9048447612362
 20
231.6828993788402
 30
0.0
  0
POINT
  5
F9
  8
0
 62
     0
 10
801.305902235728
 20
187.4171493131778
 30
0.0
  0
POINT
  5
FA
  8
0
 62
     0
 10
821.4361959352566
 20
225.1674228929021
 30
0.0
  0
POINT
  5
FB
  8
0
 62
     0
 10
845.7359536543654
 20
142.911050685198
 30
0.0
  0
POINT
  5
FC
  8
0
 62
     0
 10
890.4775160685329
 20
120.634890739984
 30
0.0
  0
POINT
  5
FD
  8
0
 62
     0
 10
848.3121969333483
 20
180.6147548050411
 30
0.0
  0
POINT
  5
FE
  8
0
 62
     0
 10
853.1799442060893
 20
89.56143031495846
 30
0.0
  0
POINT
  5
FF
  8
0
 62
     0
 10
924.0508243657662
 20
94.71199678100926
 30
0.0
  0
POINT
  5
100
  8
0
 62
     0
 10
905.9863404260668
 20
204.3813165712053
 30
0.0
  0
POINT
  5
101
  8
0
 62
     0
 10
894.1417795425219
 20
152.4722156803872
 30
0.0
  0
POINT
  5
102
  8
0
 62
     0
 10
860.5971630475085
 20
180.442603991722
 30
0.0
  0
POINT
  5
103
  8
0
 62
     0
 10
925.0837292456808
 20
168.4217934659695
 30
0.0
  0
POINT
  5
104
  8
0
 62
     0
 10
946.2021889047834
 20
214.0572487752739
 30
0.0
  0
POINT
  5
105
  8
0
 62
     0
 10
898.5359827561061
 20
173.7672731791304
 30
0.0
  0
POINT
  5
106
  8
0
 62
     0
 10
876.5013055178837
 20
208.8902869936689
 30
0.0
  0
ENDSEC
  0
EOF
