  0
SECTION
  2
HEADER
  9
$ACADVER
  1
AC1009
  9
$DWGCODEPAGE
  3
ansi_1252
  9
$INSBASE
 10
491.6296864462437
 20
480.7480443690195
 30
0.0
  9
$EXTMIN
 10
23.45583013195574
 20
12.50794841501374
 30
-0.0000000349181948
  9
$EXTMAX
 10
959.7656358962013
 20
949.2434772584147
 30
0.0000000814935746
  9
$LIMMIN
 10
0.0
 20
0.0
  9
$LIMMAX
 10
8400.0
 20
5940.0
  9
$ORTHOMODE
 70
     0
  9
$REGENMODE
 70
     0
  9
$FILLMODE
 70
     1
  9
$QTEXTMODE
 70
     0
  9
$MIRRTEXT
 70
     1
  9
$DRAGMODE
 70
     2
  9
$LTSCALE
 40
1.0
  9
$OSMODE
 70
    37
  9
$ATTMODE
 70
     1
  9
$TEXTSIZE
 40
0.2
  9
$TRACEWID
 40
0.05
  9
$TEXTSTYLE
  7
STANDARD
  9
$CLAYER
  8
0
  9
$CELTYPE
  6
BYLAYER
  9
$CECOLOR
 62
   256
  9
$DIMSCALE
 40
1.0
  9
$DIMASZ
 40
0.18
  9
$DIMEXO
 40
0.0625
  9
$DIMDLI
 40
0.3799999999999999
  9
$DIMRND
 40
0.0
  9
$DIMDLE
 40
0.0
  9
$DIMEXE
 40
0.18
  9
$DIMTP
 40
0.0
  9
$DIMTM
 40
0.0
  9
$DIMTXT
 40
0.18
  9
$DIMCEN
 40
0.09
  9
$DIMTSZ
 40
0.0
  9
$DIMTOL
 70
     0
  9
$DIMLIM
 70
     0
  9
$DIMTIH
 70
     1
  9
$DIMTOH
 70
     1
  9
$DIMSE1
 70
     0
  9
$DIMSE2
 70
     0
  9
$DIMTAD
 70
     0
  9
$DIMZIN
 70
     0
  9
$DIMBLK
  1

  9
$DIMASO
 70
     0
  9
$DIMSHO
 70
     1
  9
$DIMPOST
  1

  9
$DIMAPOST
  1

  9
$DIMALT
 70
     0
  9
$DIMALTD
 70
     2
  9
$DIMALTF
 40
25.4
  9
$DIMLFAC
 40
1.0
  9
$DIMTOFL
 70
     0
  9
$DIMTVP
 40
0.0
  9
$DIMTIX
 70
     0
  9
$DIMSOXD
 70
     0
  9
$DIMSAH
 70
     0
  9
$DIMBLK1
  1

  9
$DIMBLK2
  1

  9
$DIMSTYLE
  2
STANDARD
  9
$DIMCLRD
 70
     0
  9
$DIMCLRE
 70
     0
  9
$DIMCLRT
 70
     0
  9
$DIMTFAC
 40
1.0
  9
$DIMGAP
 40
0.09
  9
$LUNITS
 70
     2
  9
$LUPREC
 70
     2
  9
$SKETCHINC
 40
0.1
  9
$FILLETRAD
 40
0.0
  9
$AUNITS
 70
     0
  9
$AUPREC
 70
     1
  9
$MENU
  1
acad
  9
$ELEVATION
 40
0.0
  9
$PELEVATION
 40
0.0
  9
$THICKNESS
 40
0.0
  9
$LIMCHECK
 70
     0
  9
$CHAMFERA
 40
0.0
  9
$CHAMFERB
 40
0.0
  9
$SKPOLY
 70
     0
  9
$TDCREATE
 40
2452051.407317361
  9
$TDUPDATE
 40
2457464.593252315
  9
$TDINDWG
 40
0.0063706134
  9
$TDUSRTIMER
 40
0.0063706134
  9
$USRTIMER
 70
     1
  9
$ANGBASE
 50
0.0
  9
$ANGDIR
 70
     0
  9
$PDMODE
 70
     0
  9
$PDSIZE
 40
0.0
  9
$PLINEWID
 40
0.0
  9
$COORDS
 70
     1
  9
$SPLFRAME
 70
     0
  9
$SPLINETYPE
 70
     6
  9
$SPLINESEGS
 70
     8
  9
$ATTDIA
 70
     0
  9
$ATTREQ
 70
     1
  9
$HANDLING
 70
     1
  9
$HANDSEED
  5
147
  9
$SURFTAB1
 70
     6
  9
$SURFTAB2
 70
     6
  9
$SURFTYPE
 70
     6
  9
$SURFU
 70
     6
  9
$SURFV
 70
     6
  9
$UCSNAME
  2

  9
$UCSORG
 10
0.0
 20
0.0
 30
0.0
  9
$UCSXDIR
 10
1.0
 20
0.0
 30
0.0
  9
$UCSYDIR
 10
0.0
 20
1.0
 30
0.0
  9
$PUCSNAME
  2

  9
$PUCSORG
 10
0.0
 20
0.0
 30
0.0
  9
$PUCSXDIR
 10
1.0
 20
0.0
 30
0.0
  9
$PUCSYDIR
 10
0.0
 20
1.0
 30
0.0
  9
$USERI1
 70
     0
  9
$USERI2
 70
     0
  9
$USERI3
 70
     0
  9
$USERI4
 70
     0
  9
$USERI5
 70
     0
  9
$USERR1
 40
0.0
  9
$USERR2
 40
0.0
  9
$USERR3
 40
0.0
  9
$USERR4
 40
0.0
  9
$USERR5
 40
0.0
  9
$WORLDVIEW
 70
     1
  9
$SHADEDGE
 70
     3
  9
$SHADEDIF
 70
    70
  9
$TILEMODE
 70
     1
  9
$MAXACTVP
 70
    48
  9
$PLIMCHECK
 70
     0
  9
$PEXTMIN
 10
1.000000000000000E+20
 20
1.000000000000000E+20
 30
1.000000000000000E+20
  9
$PEXTMAX
 10
-1.000000000000000E+20
 20
-1.000000000000000E+20
 30
-1.000000000000000E+20
  9
$PLIMMIN
 10
0.0
 20
0.0
  9
$PLIMMAX
 10
12.0
 20
9.0
  9
$UNITMODE
 70
     0
  9
$VISRETAIN
 70
     1
  9
$PLINEGEN
 70
     1
  9
$PSLTSCALE
 70
     0
  0
ENDSEC
  0
SECTION
  2
TABLES
  0
TABLE
  2
VPORT
 70
     1
  0
VPORT
  2
*ACTIVE
 70
     0
 10
0.0
 20
0.0
 11
1.0
 21
1.0
 12
491.6107330140785
 22
480.8757128367142
 13
0.0
 23
0.0
 14
100.0
 24
100.0
 15
0.0
 25
0.0
 16
0.0
 26
0.0
 36
1.0
 17
0.0
 27
0.0
 37
0.0
 40
946.4931906021864
 41
1.424347826086956
 42
50.0
 43
0.0
 44
0.0
 50
0.0
 51
0.0
 71
     0
 72
   100
 73
     1
 74
     3
 75
     0
 76
     0
 77
     0
 78
     0
  0
ENDTAB
  0
TABLE
  2
LTYPE
 70
     1
  0
LTYPE
  2
CONTINUOUS
 70
     0
  3
Solid line
 72
    65
 73
     0
 40
0.0
  0
ENDTAB
  0
TABLE
  2
LAYER
 70
     1
  0
LAYER
  2
0
 70
     0
 62
     7
  6
CONTINUOUS
  0
ENDTAB
  0
TABLE
  2
STYLE
 70
     1
  0
STYLE
  2
STANDARD
 70
     0
 40
0.0
 41
1.0
 50
0.0
 71
     0
 42
0.2
  3
TXT
  4

  0
ENDTAB
  0
TABLE
  2
VIEW
 70
     0
  0
ENDTAB
  0
TABLE
  2
UCS
 70
     0
  0
ENDTAB
  0
TABLE
  2
APPID
 70
     1
  0
APPID
  2
ACAD
 70
     0
  0
ENDTAB
  0
TABLE
  2
DIMSTYLE
 70
     1
  0
DIMSTYLE
  2
STANDARD
 70
     0
  3

  4

  5

  6

  7

 40
1.0
 41
0.18
 42
0.0625
 43
0.38
 44
0.18
 45
0.0
 46
0.0
 47
0.0
 48
0.0
140
0.18
141
0.09
142
0.0
143
25.4
144
1.0
145
0.0
146
1.0
147
0.09
 71
     0
 72
     0
 73
     1
 74
     1
 75
     0
 76
     0
 77
     0
 78
     0
170
     0
171
     2
172
     0
173
     0
174
     0
175
     0
176
     0
177
     0
178
     0
  0
ENDTAB
  0
ENDSEC
  0
SECTION
  2
BLOCKS
  0
BLOCK
  8
0
  2
$MODEL_SPACE
 70
     0
 10
0.0
 20
0.0
 30
0.0
  3
$MODEL_SPACE
  1

  0
ENDBLK
  5
25
  8
0
  0
BLOCK
 67
     1
  8
0
  2
$PAPER_SPACE
 70
     0
 10
0.0
 20
0.0
 30
0.0
  3
$PAPER_SPACE
  1

  0
ENDBLK
  5
23
 67
     1
  8
0
  0
ENDSEC
  0
SECTION
  2
ENTITIES
  0
POLYLINE
  5
27
  8
0
 62
     0
 66
     1
 10
0.0
 20
0.0
 30
0.0
 70
     2
  0
VERTEX
  5
28
  8
0
 62
     0
 10
585.6799275613581
 20
241.5372674835675
 30
0.0
  0
VERTEX
  5
29
  8
0
 62
     0
 10
640.9978444088534
 20
334.8284123995962
 30
0.0
  0
VERTEX
  5
2A
  8
0
 62
     0
 10
691.2323668093428
 20
436.5984937423223
 30
0.0
  0
VERTEX
  5
2B
  8
0
 62
     0
 10
678.2006413986509
 20
324.1161628448713
 30
0.0
  0
VERTEX
  5
2C
  8
0
 62
     0
 10
696.436990510923
 20
454.7677169786186
 30
0.0
  0
VERTEX
  5
2D
  8
0
 62
     0
 10
730.8126923738423
 20
504.9306479093833
 30
0.0
  0
VERTEX
  5
2E
  8
0
 62
     0
 10
781.9069577280442
 20
474.5960244496679
 30
0.0
  0
VERTEX
  5
2F
  8
0
 62
     0
 10
813.7997894666142
 20
363.7383694836914
 30
0.0
  0
VERTEX
  5
30
  8
0
 62
     0
 10
787.9886705047196
 20
474.5022469809425
 30
0.0
  0
VERTEX
  5
31
  8
0
 62
     0
 10
766.0329077089029
 20
497.1457112140791
 30
0.0
  0
VERTEX
  5
32
  8
0
 62
     0
 10
843.5877777886479
 20
454.5264329464383
 30
0.0
  0
VERTEX
  5
33
  8
0
 62
     0
 10
766.1445475526236
 20
504.3858454720261
 30
0.0
  0
VERTEX
  5
34
  8
0
 62
     0
 10
796.1513499683497
 20
609.364572080349
 30
0.0
  0
VERTEX
  5
35
  8
0
 62
     0
 10
790.3082883304304
 20
681.2938781691553
 30
0.0
  0
VERTEX
  5
36
  8
0
 62
     0
 10
785.9972996322286
 20
608.3624463802867
 30
0.0
  0
VERTEX
  5
37
  8
0
 62
     0
 10
749.5401148287424
 20
535.9266954975382
 30
0.0
  0
VERTEX
  5
38
  8
0
 62
     0
 10
727.6647327204045
 20
563.7830563963965
 30
0.0
  0
VERTEX
  5
39
  8
0
 62
     0
 10
698.0063885868302
 20
612.9056459534273
 30
0.0
  0
VERTEX
  5
3A
  8
0
 62
     0
 10
644.8408879262709
 20
659.2042895306168
 30
0.0
  0
VERTEX
  5
3B
  8
0
 62
     0
 10
598.645094975048
 20
744.2118096679279
 30
0.0
  0
VERTEX
  5
3C
  8
0
 62
     0
 10
639.8416815371369
 20
654.356913328943
 30
0.0
  0
VERTEX
  5
3D
  8
0
 62
     0
 10
557.3552471978464
 20
715.3017106140892
 30
0.0
  0
VERTEX
  5
3E
  8
0
 62
     0
 10
664.5684614111653
 20
623.5598427894174
 30
0.0
  0
VERTEX
  5
3F
  8
0
 62
     0
 10
699.470961366703
 20
576.3841101371328
 30
0.0
  0
VERTEX
  5
40
  8
0
 62
     0
 10
692.0566689525517
 20
565.2011405384562
 30
0.0
  0
VERTEX
  5
41
  8
0
 62
     0
 10
591.5897407913843
 20
549.6595191267963
 30
0.0
  0
VERTEX
  5
42
  8
0
 62
     0
 10
410.601097570668
 20
590.9769606595905
 30
0.0
  0
VERTEX
  5
43
  8
0
 62
     0
 10
571.205725025412
 20
542.7319764312674
 30
0.0
  0
VERTEX
  5
44
  8
0
 62
     0
 10
396.1226617550986
 20
516.1745870597058
 30
0.0
  0
VERTEX
  5
45
  8
0
 62
     0
 10
487.4555276552027
 20
521.7184539164535
 30
0.0
  0
VERTEX
  5
46
  8
0
 62
     0
 10
673.5480605913442
 20
548.3957560958776
 30
0.0
  0
VERTEX
  5
47
  8
0
 62
     0
 10
705.065924424756
 20
544.7233473037585
 30
0.0
  0
VERTEX
  5
48
  8
0
 62
     0
 10
716.8542401032054
 20
520.2089412596057
 30
0.0
  0
VERTEX
  5
49
  8
0
 62
     0
 10
681.4712887231187
 20
461.0816406302332
 30
0.0
  0
VERTEX
  5
4A
  8
0
 62
     0
 10
629.9845673726322
 20
353.247708885827
 30
0.0
  0
VERTEX
  5
4B
  8
0
 62
     0
 10
575.173237288823
 20
349.1684148089518
 30
0.0
  0
VERTEX
  5
4C
  8
0
 62
     0
 10
541.967520988097
 20
374.8820909014716
 30
0.0
  0
VERTEX
  5
4D
  8
0
 62
     0
 10
570.1070469934565
 20
339.9769580525098
 30
0.0
  0
VERTEX
  5
4E
  8
0
 62
     0
 10
619.6920836302975
 20
343.2678167059102
 30
0.0
  0
VERTEX
  5
4F
  8
0
 62
     0
 10
618.5106759569258
 20
323.008837564905
 30
0.0
  0
VERTEX
  5
50
  8
0
 62
     0
 10
585.6799275613581
 20
241.5372674835675
 30
0.0
  0
SEQEND
  5
51
  8
0
 62
     0
  0
CIRCLE
  5
52
  8
0
 62
     0
 10
491.6296864462437
 20
480.7480443690195
 30
0.0
 40
468.0524973062403
  0
ENDSEC
  0
EOF
