  0
SECTION
  2
HEADER
  9
$ACADVER
  1
AC1009
  9
$DWGCODEPAGE
  3
ansi_1252
  9
$INSBASE
 10
2461.303578767006
 20
4649.682194839291
 30
0.0
  9
$EXTMIN
 10
2458.535474357565
 20
4646.898083794282
 30
0.0
  9
$EXTMAX
 10
2463.532577829299
 20
4651.895188361246
 30
0.0
  9
$LIMMIN
 10
0.0
 20
0.0
  9
$LIMMAX
 10
42050.0
 20
29700.0
  9
$ORTHOMODE
 70
     0
  9
$REGENMODE
 70
     1
  9
$FILLMODE
 70
     1
  9
$QTEXTMODE
 70
     0
  9
$MIRRTEXT
 70
     0
  9
$DRAGMODE
 70
     2
  9
$LTSCALE
 40
500.0
  9
$OSMODE
 70
    37
  9
$ATTMODE
 70
     1
  9
$TEXTSIZE
 40
1.5
  9
$TRACEWID
 40
0.05
  9
$TEXTSTYLE
  7
COTA
  9
$CLAYER
  8
ARVORE
  9
$CELTYPE
  6
BYLAYER
  9
$CECOLOR
 62
   256
  9
$DIMSCALE
 40
50.0
  9
$DIMASZ
 40
1.0
  9
$DIMEXO
 40
2.5
  9
$DIMDLI
 40
0.0
  9
$DIMRND
 40
0.0
  9
$DIMDLE
 40
0.0
  9
$DIMEXE
 40
2.0
  9
$DIMTP
 40
0.0
  9
$DIMTM
 40
0.0
  9
$DIMTXT
 40
2.5
  9
$DIMCEN
 40
0.09
  9
$DIMTSZ
 40
0.0
  9
$DIMTOL
 70
     0
  9
$DIMLIM
 70
     0
  9
$DIMTIH
 70
     0
  9
$DIMTOH
 70
     0
  9
$DIMSE1
 70
     0
  9
$DIMSE2
 70
     0
  9
$DIMTAD
 70
     1
  9
$DIMZIN
 70
    10
  9
$DIMBLK
  1
DOT
  9
$DIMASO
 70
     1
  9
$DIMSHO
 70
     1
  9
$DIMPOST
  1

  9
$DIMAPOST
  1

  9
$DIMALT
 70
     0
  9
$DIMALTD
 70
     2
  9
$DIMALTF
 40
25.4
  9
$DIMLFAC
 40
1.0
  9
$DIMTOFL
 70
     1
  9
$DIMTVP
 40
1.2
  9
$DIMTIX
 70
     1
  9
$DIMSOXD
 70
     0
  9
$DIMSAH
 70
     0
  9
$DIMBLK1
  1

  9
$DIMBLK2
  1

  9
$DIMSTYLE
  2
DG100-1
  9
$DIMCLRD
 70
     1
  9
$DIMCLRE
 70
     1
  9
$DIMCLRT
 70
     2
  9
$DIMTFAC
 40
1.0
  9
$DIMGAP
 40
0.9
  9
$LUNITS
 70
     2
  9
$LUPREC
 70
     4
  9
$SKETCHINC
 40
0.1
  9
$FILLETRAD
 40
150.0
  9
$AUNITS
 70
     0
  9
$AUPREC
 70
     0
  9
$MENU
  1
C:\DGRAPH2\SUPORTE\DGRAPH2W
  9
$ELEVATION
 40
0.0
  9
$PELEVATION
 40
0.0
  9
$THICKNESS
 40
0.0
  9
$LIMCHECK
 70
     0
  9
$CHAMFERA
 40
0.0
  9
$CHAMFERB
 40
0.0
  9
$SKPOLY
 70
     0
  9
$TDCREATE
 40
2452185.719209606
  9
$TDUPDATE
 40
2457464.593553241
  9
$TDINDWG
 40
2.2587571296
  9
$TDUSRTIMER
 40
2.2587571296
  9
$USRTIMER
 70
     1
  9
$ANGBASE
 50
0.0
  9
$ANGDIR
 70
     0
  9
$PDMODE
 70
     0
  9
$PDSIZE
 40
0.0
  9
$PLINEWID
 40
0.0
  9
$COORDS
 70
     1
  9
$SPLFRAME
 70
     0
  9
$SPLINETYPE
 70
     6
  9
$SPLINESEGS
 70
     8
  9
$ATTDIA
 70
     0
  9
$ATTREQ
 70
     1
  9
$HANDLING
 70
     1
  9
$HANDSEED
  5
FC
  9
$SURFTAB1
 70
     6
  9
$SURFTAB2
 70
     6
  9
$SURFTYPE
 70
     6
  9
$SURFU
 70
     6
  9
$SURFV
 70
     6
  9
$UCSNAME
  2

  9
$UCSORG
 10
0.0
 20
0.0
 30
0.0
  9
$UCSXDIR
 10
1.0
 20
0.0
 30
0.0
  9
$UCSYDIR
 10
0.0
 20
1.0
 30
0.0
  9
$PUCSNAME
  2

  9
$PUCSORG
 10
0.0
 20
0.0
 30
0.0
  9
$PUCSXDIR
 10
1.0
 20
0.0
 30
0.0
  9
$PUCSYDIR
 10
0.0
 20
1.0
 30
0.0
  9
$USERI1
 70
    10
  9
$USERI2
 70
     0
  9
$USERI3
 70
     0
  9
$USERI4
 70
     0
  9
$USERI5
 70
     0
  9
$USERR1
 40
500.0
  9
$USERR2
 40
0.0
  9
$USERR3
 40
0.0
  9
$USERR4
 40
0.0
  9
$USERR5
 40
0.0
  9
$WORLDVIEW
 70
     1
  9
$SHADEDGE
 70
     3
  9
$SHADEDIF
 70
    70
  9
$TILEMODE
 70
     1
  9
$MAXACTVP
 70
    16
  9
$PLIMCHECK
 70
     0
  9
$PEXTMIN
 10
1.000000000000000E+20
 20
1.000000000000000E+20
 30
1.000000000000000E+20
  9
$PEXTMAX
 10
-1.000000000000000E+20
 20
-1.000000000000000E+20
 30
-1.000000000000000E+20
  9
$PLIMMIN
 10
0.0
 20
0.0
  9
$PLIMMAX
 10
12.0
 20
9.0
  9
$UNITMODE
 70
     0
  9
$VISRETAIN
 70
     0
  9
$PLINEGEN
 70
     0
  9
$PSLTSCALE
 70
     1
  0
ENDSEC
  0
SECTION
  2
TABLES
  0
TABLE
  2
VPORT
 70
     1
  0
VPORT
  2
*ACTIVE
 70
     0
 10
0.0
 20
0.0
 11
1.0
 21
1.0
 12
2462.072970471243
 22
4650.832623216485
 13
0.0
 23
0.0
 14
1.0
 24
1.0
 15
0.0
 25
0.0
 16
0.0
 26
0.0
 36
1.0
 17
0.0
 27
0.0
 37
0.0
 40
15.35025902406306
 41
1.376889848812095
 42
50.0
 43
0.0
 44
0.0
 50
0.0
 51
0.0
 71
     0
 72
   100
 73
     1
 74
     0
 75
     0
 76
     0
 77
     0
 78
     0
  0
ENDTAB
  0
TABLE
  2
LTYPE
 70
     1
  0
LTYPE
  2
CONTINUOUS
 70
     0
  3
Solid line
 72
    65
 73
     0
 40
0.0
  0
ENDTAB
  0
TABLE
  2
LAYER
 70
     2
  0
LAYER
  2
0
 70
     0
 62
     7
  6
CONTINUOUS
  0
LAYER
  2
ARVORE
 70
     0
 62
     1
  6
CONTINUOUS
  0
ENDTAB
  0
TABLE
  2
STYLE
 70
     2
  0
STYLE
  2
STANDARD
 70
     0
 40
0.0
 41
1.0
 50
0.0
 71
     0
 42
0.2
  3
simplex.shx
  4

  0
STYLE
  2
COTA
 70
     0
 40
0.0
 41
1.0
 50
0.0
 71
     0
 42
1.5
  3
simplex.shx
  4

  0
ENDTAB
  0
TABLE
  2
VIEW
 70
     0
  0
ENDTAB
  0
TABLE
  2
UCS
 70
     0
  0
ENDTAB
  0
TABLE
  2
APPID
 70
     1
  0
APPID
  2
ACAD
 70
     0
  0
ENDTAB
  0
TABLE
  2
DIMSTYLE
 70
     1
  0
DIMSTYLE
  2
DG100-1
 70
     0
  3

  4

  5
DOT
  6

  7

 40
50.0
 41
1.0
 42
2.5
 43
0.0
 44
2.0
 45
0.0
 46
0.0
 47
0.0
 48
0.0
140
2.5
141
0.09
142
0.0
143
25.4
144
1.0
145
1.2
146
1.0
147
0.9
 71
     0
 72
     0
 73
     0
 74
     0
 75
     0
 76
     0
 77
     1
 78
    10
170
     0
171
     2
172
     1
173
     0
174
     1
175
     0
176
     1
177
     1
178
     2
  0
ENDTAB
  0
ENDSEC
  0
SECTION
  2
BLOCKS
  0
BLOCK
  8
0
  2
$MODEL_SPACE
 70
     0
 10
0.0
 20
0.0
 30
0.0
  3
$MODEL_SPACE
  1

  0
ENDBLK
  5
B
  8
0
  0
BLOCK
 67
     1
  8
0
  2
$PAPER_SPACE
 70
     0
 10
0.0
 20
0.0
 30
0.0
  3
$PAPER_SPACE
  1

  0
ENDBLK
  5
11
 67
     1
  8
0
  0
BLOCK
  8
0
  2
DOT
 70
     0
 10
0.0
 20
0.0
 30
0.0
  3
DOT
  1

  0
POLYLINE
  5
28
  8
0
  6
BYBLOCK
 62
     0
 66
     1
 10
0.0
 20
0.0
 30
0.0
 70
     1
 40
0.5
 41
0.5
  0
VERTEX
  5
F6
  8
0
  6
BYBLOCK
 62
     0
 10
-0.25
 20
0.0
 30
0.0
 42
1.0
  0
VERTEX
  5
F7
  8
0
  6
BYBLOCK
 62
     0
 10
0.25
 20
0.0
 30
0.0
 42
1.0
  0
SEQEND
  5
FB
  8
0
  6
BYBLOCK
 62
     0
  0
LINE
  5
29
  8
0
  6
BYBLOCK
 62
     0
 10
-0.5
 20
0.0
 30
0.0
 11
-1.0
 21
0.0
 31
0.0
  0
ENDBLK
  5
2B
  8
0
  0
ENDSEC
  0
SECTION
  2
ENTITIES
  0
LINE
  5
2E
  8
0
 62
     0
 10
2461.215787844367
 20
4648.161132840734
 30
0.0
 11
2460.395089611801
 21
4646.979662672726
 31
0.0
  0
LINE
  5
2F
  8
0
 62
     0
 10
2460.07843832958
 20
4648.461357517081
 30
0.0
 11
2459.665155301542
 21
4647.323314886256
 31
0.0
  0
LINE
  5
30
  8
0
 62
     0
 10
2460.446996553838
 20
4648.747832699833
 30
0.0
 11
2460.280163506927
 21
4647.024322523133
 31
0.0
  0
LINE
  5
31
  8
0
 62
     0
 10
2460.174493936261
 20
4648.58835968022
 30
0.0
 11
2459.027527054822
 21
4647.905339775822
 31
0.0
  0
LINE
  5
32
  8
0
 62
     0
 10
2458.579183647862
 20
4648.923611025392
 30
0.0
 11
2459.557729995975
 21
4648.779288929984
 31
0.0
  0
LINE
  5
33
  8
0
 62
     0
 10
2459.227820450319
 20
4649.005984390828
 30
0.0
 11
2458.668787007138
 21
4648.63655133548
 31
0.0
  0
LINE
  5
34
  8
0
 62
     0
 10
2459.944279585842
 20
4648.811951269968
 30
0.0
 11
2458.902030916944
 21
4648.121031586094
 31
0.0
  0
LINE
  5
35
  8
0
 62
     0
 10
2461.22568937125
 20
4646.919758144419
 30
0.0
 11
2461.215787844367
 21
4648.161132840734
 31
0.0
  0
LINE
  5
36
  8
0
 62
     0
 10
2461.626856426553
 20
4647.719820080722
 30
0.0
 11
2461.507049209864
 21
4646.941794473119
 31
0.0
  0
LINE
  5
37
  8
0
 62
     0
 10
2459.768422707525
 20
4648.34654394476
 30
0.0
 11
2459.409679366792
 21
4647.496241690945
 31
0.0
  0
LINE
  5
38
  8
0
 62
     0
 10
2458.745990038736
 20
4648.389217393533
 30
0.0
 11
2459.768422707525
 21
4648.34654394476
 31
0.0
  0
LINE
  5
39
  8
0
 62
     0
 10
2460.875833905675
 20
4647.671738066978
 30
0.0
 11
2460.948936206004
 21
4646.898083794282
 31
0.0
  0
LINE
  5
3A
  8
0
 62
     0
 10
2459.95672519724
 20
4648.12619869779
 30
0.0
 11
2460.127899667521
 21
4647.083492716929
 31
0.0
  0
LINE
  5
3B
  8
0
 62
     0
 10
2460.36109746132
 20
4647.86043124428
 30
0.0
 11
2459.873281496029
 21
4647.182438220829
 31
0.0
  0
LINE
  5
3C
  8
0
 62
     0
 10
2461.076056067192
 20
4650.239903861031
 30
0.0
 11
2463.194066728416
 21
4650.624038782662
 31
0.0
  0
LINE
  5
3D
  8
0
 62
     0
 10
2460.559796165603
 20
4649.89499680789
 30
0.0
 11
2462.65837225953
 21
4651.297029075915
 31
0.0
  0
LINE
  5
3E
  8
0
 62
     0
 10
2461.038281256707
 20
4650.719697461671
 30
0.0
 11
2462.39937983569
 21
4651.472337332782
 31
0.0
  0
POLYLINE
  5
3F
  8
0
 62
     0
 66
     1
 10
0.0
 20
0.0
 30
0.0
  0
VERTEX
  5
CB
  8
0
 62
     0
 10
2461.215789293943
 20
4648.16113161368
 30
0.0
  0
VERTEX
  5
CC
  8
0
 62
     0
 10
2461.20341417596
 20
4648.283140051249
 30
0.0
  0
VERTEX
  5
CD
  8
0
 62
     0
 10
2461.166819433568
 20
4648.400187166606
 30
0.0
  0
VERTEX
  5
CE
  8
0
 62
     0
 10
2461.107492305662
 20
4648.507516073615
 30
0.0
  0
VERTEX
  5
CF
  8
0
 62
     0
 10
2461.027843893034
 20
4648.600764841712
 30
0.0
  0
VERTEX
  5
D0
  8
0
 62
     0
 10
2460.931111169346
 20
4648.676143768169
 30
0.0
  0
VERTEX
  5
D1
  8
0
 62
     0
 10
2460.821225428003
 20
4648.730589394572
 30
0.0
  0
VERTEX
  5
D2
  8
0
 62
     0
 10
2460.70265251131
 20
4648.761889008165
 30
0.0
  0
VERTEX
  5
D3
  8
0
 62
     0
 10
2460.580211315163
 20
4648.768770568216
 30
0.0
  0
VERTEX
  5
D4
  8
0
 62
     0
 10
2460.458877945351
 20
4648.750954402754
 30
0.0
  0
VERTEX
  5
D5
  8
0
 62
     0
 10
2460.343583484741
 20
4648.709164574651
 30
0.0
  0
VERTEX
  5
D6
  8
0
 62
     0
 10
2460.239013590211
 20
4648.645099455143
 30
0.0
  0
VERTEX
  5
D7
  8
0
 62
     0
 10
2460.149418063906
 20
4648.561362700697
 30
0.0
  0
VERTEX
  5
D8
  8
0
 62
     0
 10
2460.078438137954
 20
4648.46135743838
 30
0.0
  0
SEQEND
  5
F8
  8
0
 62
     0
  0
POLYLINE
  5
40
  8
0
 62
     0
 66
     1
 10
0.0
 20
0.0
 30
0.0
  0
VERTEX
  5
D9
  8
0
 62
     0
 10
2460.559796470825
 20
4649.894997761696
 30
0.0
  0
VERTEX
  5
DA
  8
0
 62
     0
 10
2460.532793749962
 20
4649.748434142953
 30
0.0
  0
VERTEX
  5
DB
  8
0
 62
     0
 10
2460.534394617204
 20
4649.599412404608
 30
0.0
  0
VERTEX
  5
DC
  8
0
 62
     0
 10
2460.564539664874
 20
4649.453462696223
 30
0.0
  0
VERTEX
  5
DD
  8
0
 62
     0
 10
2460.622110219791
 20
4649.316001165295
 30
0.0
  0
VERTEX
  5
DE
  8
0
 62
     0
 10
2460.704969856879
 20
4649.192128965746
 30
0.0
  0
VERTEX
  5
DF
  8
0
 62
     0
 10
2460.810043681219
 20
4649.086442955706
 30
0.0
  0
VERTEX
  5
E0
  8
0
 62
     0
 10
2460.933432436439
 20
4649.002865109569
 30
0.0
  0
VERTEX
  5
E1
  8
0
 62
     0
 10
2461.070557204871
 20
4648.944496974762
 30
0.0
  0
VERTEX
  5
E2
  8
0
 62
     0
 10
2461.216329329745
 20
4648.913504574298
 30
0.0
  0
VERTEX
  5
E3
  8
0
 62
     0
 10
2461.36533925363
 20
4648.911038026354
 30
0.0
  0
VERTEX
  5
E4
  8
0
 62
     0
 10
2461.512057265398
 20
4648.937188863742
 30
0.0
  0
VERTEX
  5
E5
  8
0
 62
     0
 10
2461.651038706053
 20
4648.990986637162
 30
0.0
  0
SEQEND
  5
F9
  8
0
 62
     0
  0
LINE
  5
41
  8
0
 62
     0
 10
2461.579536311597
 20
4650.856893467426
 30
0.0
 11
2461.954090688128
 21
4651.704361902797
 31
0.0
  0
LINE
  5
42
  8
0
 62
     0
 10
2462.194769302168
 20
4651.610833106574
 30
0.0
 11
2461.076056067192
 21
4650.239903861031
 31
0.0
  0
LINE
  5
43
  8
0
 62
     0
 10
2461.672961746938
 20
4651.813609482802
 30
0.0
 11
2460.559796165603
 21
4649.89499680789
 31
0.0
  0
LINE
  5
44
  8
0
 62
     0
 10
2460.850156086212
 20
4650.933356048273
 30
0.0
 11
2460.815898356755
 21
4651.871440642259
 31
0.0
  0
LINE
  5
45
  8
0
 62
     0
 10
2461.186162429845
 20
4650.974579454153
 30
0.0
 11
2461.393994367577
 21
4651.854699957267
 31
0.0
  0
LINE
  5
46
  8
0
 62
     0
 10
2460.559796165603
 20
4649.89499680789
 30
0.0
 11
2461.119115152735
 21
4651.895188361246
 31
0.0
  0
LINE
  5
47
  8
0
 62
     0
 10
2459.998262853205
 20
4649.989455051124
 30
0.0
 11
2459.314730798309
 21
4651.190151800746
 31
0.0
  0
LINE
  5
48
  8
0
 62
     0
 10
2459.133631986359
 20
4651.020982524408
 30
0.0
 11
2459.528299227088
 21
4650.212696043685
 31
0.0
  0
LINE
  5
49
  8
0
 62
     0
 10
2460.026607688879
 20
4651.68467185221
 30
0.0
 11
2460.221025012779
 21
4649.799257270392
 31
0.0
  0
LINE
  5
4A
  8
0
 62
     0
 10
2460.312497325475
 20
4649.625667525773
 30
0.0
 11
2460.561002148875
 21
4651.851477682409
 31
0.0
  0
LINE
  5
4B
  8
0
 62
     0
 10
2459.907769897612
 20
4650.028077389109
 30
0.0
 11
2458.819827955775
 21
4650.557379567156
 31
0.0
  0
LINE
  5
4C
  8
0
 62
     0
 10
2459.557729995975
 20
4648.779288929984
 30
0.0
 11
2458.535474357565
 21
4649.481724296797
 31
0.0
  0
LINE
  5
4D
  8
0
 62
     0
 10
2460.221025012779
 20
4649.799257270392
 30
0.0
 11
2458.617051847226
 21
4650.035570623349
 31
0.0
  0
LINE
  5
4E
  8
0
 62
     0
 10
2459.48697300429
 20
4649.907405541756
 30
0.0
 11
2458.574178713438
 21
4649.744493072533
 31
0.0
  0
LINE
  5
4F
  8
0
 62
     0
 10
2459.528299227088
 20
4650.212696043685
 30
0.0
 11
2458.710415696178
 21
4650.275827151559
 31
0.0
  0
POLYLINE
  5
50
  8
0
 62
     0
 66
     1
 10
0.0
 20
0.0
 30
0.0
  0
VERTEX
  5
E6
  8
0
 62
     0
 10
2459.557729296339
 20
4648.779287829856
 30
0.0
  0
VERTEX
  5
E7
  8
0
 62
     0
 10
2459.687908797272
 20
4648.763867313705
 30
0.0
  0
VERTEX
  5
E8
  8
0
 62
     0
 10
2459.81853297482
 20
4648.774904479094
 30
0.0
  0
VERTEX
  5
E9
  8
0
 62
     0
 10
2459.944279361323
 20
4648.811949601041
 30
0.0
  0
VERTEX
  5
EA
  8
0
 62
     0
 10
2460.060024241644
 20
4648.873493223431
 30
0.0
  0
VERTEX
  5
EB
  8
0
 62
     0
 10
2460.161051426224
 20
4648.95702766395
 30
0.0
  0
VERTEX
  5
EC
  8
0
 62
     0
 10
2460.243244418923
 20
4649.05914919316
 30
0.0
  0
VERTEX
  5
ED
  8
0
 62
     0
 10
2460.303254149499
 20
4649.175696724295
 30
0.0
  0
VERTEX
  5
EE
  8
0
 62
     0
 10
2460.338635436241
 20
4649.301921362648
 30
0.0
  0
VERTEX
  5
EF
  8
0
 62
     0
 10
2460.34794661836
 20
4649.43267990603
 30
0.0
  0
VERTEX
  5
F0
  8
0
 62
     0
 10
2460.330808298517
 20
4649.562644411856
 30
0.0
  0
VERTEX
  5
F1
  8
0
 62
     0
 10
2460.287918801897
 20
4649.686519291726
 30
0.0
  0
VERTEX
  5
F2
  8
0
 62
     0
 10
2460.221025721964
 20
4649.799257087699
 30
0.0
  0
VERTEX
  5
F3
  8
0
 62
     0
 10
2460.132854712276
 20
4649.896264138139
 30
0.0
  0
VERTEX
  5
F4
  8
0
 62
     0
 10
2460.026998425869
 20
4649.973587752981
 30
0.0
  0
VERTEX
  5
F5
  8
0
 62
     0
 10
2459.907770127497
 20
4650.028077271704
 30
0.0
  0
SEQEND
  5
FA
  8
0
 62
     0
  0
LINE
  5
51
  8
0
 62
     0
 10
2460.559796165603
 20
4649.89499680789
 30
0.0
 11
2460.559796165603
 21
4649.89499680789
 31
0.0
  0
LINE
  5
52
  8
0
 62
     0
 10
2460.15607435068
 20
4650.429132226703
 30
0.0
 11
2459.542729243061
 21
4651.403135396798
 31
0.0
  0
LINE
  5
53
  8
0
 62
     0
 10
2460.702974256826
 20
4650.407017650573
 30
0.0
 11
2460.278170072597
 21
4651.763194464449
 31
0.0
  0
LINE
  5
54
  8
0
 62
     0
 10
2459.708792984871
 20
4650.497938477077
 30
0.0
 11
2459.767883280964
 21
4651.53413676096
 31
0.0
  0
LINE
  5
55
  8
0
 62
     0
 10
2462.65837225953
 20
4651.297029075915
 30
0.0
 11
2461.594887785172
 21
4650.586528512918
 31
0.0
  0
LINE
  5
56
  8
0
 62
     0
 10
2461.594887785172
 20
4650.586528512918
 30
0.0
 11
2462.859257426846
 21
4651.081978767316
 31
0.0
  0
LINE
  5
57
  8
0
 62
     0
 10
2462.001661751923
 20
4649.158620680186
 30
0.0
 11
2463.040524303917
 21
4650.887932379706
 31
0.0
  0
LINE
  5
58
  8
0
 62
     0
 10
2463.322062148129
 20
4650.404054201454
 30
0.0
 11
2462.001661751923
 21
4649.158620680186
 31
0.0
  0
LINE
  5
59
  8
0
 62
     0
 10
2462.380332429329
 20
4649.788963415217
 30
0.0
 11
2463.412660668589
 21
4650.113803171976
 31
0.0
  0
LINE
  5
5A
  8
0
 62
     0
 10
2462.819423081357
 20
4648.539631290289
 30
0.0
 11
2463.075849853778
 21
4647.981234013699
 31
0.0
  0
LINE
  5
5B
  8
0
 62
     0
 10
2462.819423081357
 20
4648.539631290289
 30
0.0
 11
2463.450998950971
 21
4648.757700704054
 31
0.0
  0
LINE
  5
5C
  8
0
 62
     0
 10
2463.248223402964
 20
4648.235892588372
 30
0.0
 11
2462.819423081357
 21
4648.539631290289
 31
0.0
  0
LINE
  5
5D
  8
0
 62
     0
 10
2461.651038745487
 20
4648.990986820584
 30
0.0
 11
2463.495046738337
 21
4649.056745109579
 31
0.0
  0
LINE
  5
5E
  8
0
 62
     0
 10
2462.156767457226
 20
4649.009020988538
 30
0.0
 11
2463.248223402964
 21
4648.235892588372
 31
0.0
  0
LINE
  5
5F
  8
0
 62
     0
 10
2462.453705467793
 20
4649.374745225577
 30
0.0
 11
2463.532577829299
 21
4649.311547298189
 31
0.0
  0
LINE
  5
60
  8
0
 62
     0
 10
2461.938240728788
 20
4647.813224820416
 30
0.0
 11
2462.525321555135
 21
4647.390135930606
 31
0.0
  0
LINE
  5
61
  8
0
 62
     0
 10
2461.169203989486
 20
4648.394527653678
 30
0.0
 11
2462.041444497986
 21
4647.108599742776
 31
0.0
  0
LINE
  5
62
  8
0
 62
     0
 10
2461.668179160649
 20
4648.293882544586
 30
0.0
 11
2462.262028684077
 21
4647.236944017664
 31
0.0
  0
LINE
  5
63
  8
0
 62
     0
 10
2461.089371037225
 20
4648.532307184759
 30
0.0
 11
2462.93441937238
 21
4647.77228963112
 31
0.0
  0
LINE
  5
64
  8
0
 62
     0
 10
2461.21632934758
 20
4648.91350473592
 30
0.0
 11
2462.764326322779
 21
4647.613399957062
 31
0.0
  0
LINE
  5
65
  8
0
 62
     0
 10
2463.488867150334
 20
4649.869660302011
 30
0.0
 11
2461.651038745487
 21
4648.990986820584
 31
0.0
  0
LINE
  5
66
  8
0
 62
     0
 10
2463.322062148129
 20
4650.404054201454
 30
0.0
 11
2463.322062148129
 21
4650.404054201454
 31
0.0
  0
ENDSEC
  0
EOF
