  0
SECTION
  2
HEADER
  9
$ACADVER
  1
AC1009
  9
$DWGCODEPAGE
  3
ansi_1252
  9
$INSBASE
 10
5.450904621622652
 20
10.62651520853202
 30
0.0
  9
$EXTMIN
 10
3.817404545882311
 20
9.268550692124105
 30
0.0
  9
$EXTMAX
 10
6.853404545882311
 20
12.08755069212411
 30
0.0
  9
$LIMMIN
 10
574.0
 20
0.0
  9
$LIMMAX
 10
12281.0
 20
14941.0
  9
$ORTHOMODE
 70
     0
  9
$REGENMODE
 70
     1
  9
$FILLMODE
 70
     1
  9
$QTEXTMODE
 70
     0
  9
$MIRRTEXT
 70
     1
  9
$DRAGMODE
 70
     2
  9
$LTSCALE
 40
1.0
  9
$OSMODE
 70
    37
  9
$ATTMODE
 70
     1
  9
$TEXTSIZE
 40
0.2
  9
$TRACEWID
 40
0.05
  9
$TEXTSTYLE
  7
STANDARD
  9
$CLAYER
  8
0
  9
$CELTYPE
  6
CONTINUOUS
  9
$CECOLOR
 62
     7
  9
$DIMSCALE
 40
1.0
  9
$DIMASZ
 40
0.18
  9
$DIMEXO
 40
0.0625
  9
$DIMDLI
 40
0.38
  9
$DIMRND
 40
0.0
  9
$DIMDLE
 40
0.0
  9
$DIMEXE
 40
0.18
  9
$DIMTP
 40
0.0
  9
$DIMTM
 40
0.0
  9
$DIMTXT
 40
0.18
  9
$DIMCEN
 40
0.09
  9
$DIMTSZ
 40
0.0
  9
$DIMTOL
 70
     0
  9
$DIMLIM
 70
     0
  9
$DIMTIH
 70
     1
  9
$DIMTOH
 70
     1
  9
$DIMSE1
 70
     0
  9
$DIMSE2
 70
     0
  9
$DIMTAD
 70
     0
  9
$DIMZIN
 70
     0
  9
$DIMBLK
  1

  9
$DIMASO
 70
     1
  9
$DIMSHO
 70
     1
  9
$DIMPOST
  1

  9
$DIMAPOST
  1

  9
$DIMALT
 70
     0
  9
$DIMALTD
 70
     2
  9
$DIMALTF
 40
25.4
  9
$DIMLFAC
 40
1.0
  9
$DIMTOFL
 70
     0
  9
$DIMTVP
 40
0.0
  9
$DIMTIX
 70
     0
  9
$DIMSOXD
 70
     0
  9
$DIMSAH
 70
     0
  9
$DIMBLK1
  1

  9
$DIMBLK2
  1

  9
$DIMSTYLE
  2
STANDARD
  9
$DIMCLRD
 70
     0
  9
$DIMCLRE
 70
     0
  9
$DIMCLRT
 70
     0
  9
$DIMTFAC
 40
1.0
  9
$DIMGAP
 40
0.09
  9
$LUNITS
 70
     2
  9
$LUPREC
 70
     4
  9
$SKETCHINC
 40
0.1
  9
$FILLETRAD
 40
0.0
  9
$AUNITS
 70
     0
  9
$AUPREC
 70
     0
  9
$MENU
  1
icad
  9
$ELEVATION
 40
0.0
  9
$PELEVATION
 40
0.0
  9
$THICKNESS
 40
0.0
  9
$LIMCHECK
 70
     0
  9
$CHAMFERA
 40
0.5
  9
$CHAMFERB
 40
0.5
  9
$SKPOLY
 70
     0
  9
$TDCREATE
 40
2444971.875
  9
$TDUPDATE
 40
2457464.593530092
  9
$TDINDWG
 40
0.0003204514
  9
$TDUSRTIMER
 40
0.0108644213
  9
$USRTIMER
 70
     1
  9
$ANGBASE
 50
0.0
  9
$ANGDIR
 70
     0
  9
$PDMODE
 70
     0
  9
$PDSIZE
 40
0.0
  9
$PLINEWID
 40
0.0
  9
$COORDS
 70
     1
  9
$SPLFRAME
 70
     0
  9
$SPLINETYPE
 70
     6
  9
$SPLINESEGS
 70
     8
  9
$ATTDIA
 70
     0
  9
$ATTREQ
 70
     1
  9
$HANDLING
 70
     1
  9
$HANDSEED
  5
53F
  9
$SURFTAB1
 70
     6
  9
$SURFTAB2
 70
     6
  9
$SURFTYPE
 70
     6
  9
$SURFU
 70
     6
  9
$SURFV
 70
     6
  9
$UCSNAME
  2

  9
$UCSORG
 10
0.0
 20
0.0
 30
0.0
  9
$UCSXDIR
 10
1.0
 20
0.0
 30
0.0
  9
$UCSYDIR
 10
0.0
 20
1.0
 30
0.0
  9
$PUCSNAME
  2

  9
$PUCSORG
 10
0.0
 20
0.0
 30
0.0
  9
$PUCSXDIR
 10
1.0
 20
0.0
 30
0.0
  9
$PUCSYDIR
 10
0.0
 20
1.0
 30
0.0
  9
$USERI1
 70
     0
  9
$USERI2
 70
     0
  9
$USERI3
 70
     0
  9
$USERI4
 70
     0
  9
$USERI5
 70
     0
  9
$USERR1
 40
0.0
  9
$USERR2
 40
0.0
  9
$USERR3
 40
0.0
  9
$USERR4
 40
0.0
  9
$USERR5
 40
0.0
  9
$WORLDVIEW
 70
     1
  9
$SHADEDGE
 70
     3
  9
$SHADEDIF
 70
    70
  9
$TILEMODE
 70
     1
  9
$MAXACTVP
 70
    16
  9
$PLIMCHECK
 70
     0
  9
$PEXTMIN
 10
1.000000000000000E+20
 20
1.000000000000000E+20
 30
1.000000000000000E+20
  9
$PEXTMAX
 10
-1.000000000000000E+20
 20
-1.000000000000000E+20
 30
-1.000000000000000E+20
  9
$PLIMMIN
 10
0.0
 20
0.0
  9
$PLIMMAX
 10
12.0
 20
9.0
  9
$UNITMODE
 70
     0
  9
$VISRETAIN
 70
     0
  9
$PLINEGEN
 70
     1
  9
$PSLTSCALE
 70
     0
  0
ENDSEC
  0
SECTION
  2
TABLES
  0
TABLE
  2
VPORT
 70
     1
  0
VPORT
  2
*ACTIVE
 70
     0
 10
0.0
 20
0.0
 11
1.0
 21
1.0
 12
5.5801936076569
 22
10.67805145093422
 13
0.0
 23
0.0
 14
0.5
 24
0.5
 15
0.5
 25
0.5
 16
0.0
 26
0.0
 36
1.0
 17
0.0
 27
0.0
 37
0.0
 40
2.877702656253828
 41
1.503537735849057
 42
50.0
 43
0.0
 44
0.0
 50
0.0
 51
0.0
 71
     0
 72
   100
 73
     1
 74
     1
 75
     0
 76
     0
 77
     0
 78
     0
  0
ENDTAB
  0
TABLE
  2
LTYPE
 70
     1
  0
LTYPE
  2
CONTINUOUS
 70
     0
  3
CONTINUOUS
 72
    65
 73
     0
 40
0.0
  0
ENDTAB
  0
TABLE
  2
LAYER
 70
     1
  0
LAYER
  2
0
 70
     0
 62
     7
  6
CONTINUOUS
  0
ENDTAB
  0
TABLE
  2
STYLE
 70
     1
  0
STYLE
  2
STANDARD
 70
     0
 40
0.0
 41
1.0
 50
0.0
 71
     0
 42
0.2
  3
txt
  4

  0
ENDTAB
  0
TABLE
  2
VIEW
 70
     0
  0
ENDTAB
  0
TABLE
  2
UCS
 70
     0
  0
ENDTAB
  0
TABLE
  2
APPID
 70
     2
  0
APPID
  2
ACAD
 70
     0
  0
APPID
  2
DCO15
 70
     0
  0
ENDTAB
  0
TABLE
  2
DIMSTYLE
 70
     1
  0
DIMSTYLE
  2
STANDARD
 70
     0
  3

  4

  5

  6

  7

 40
1.0
 41
0.18
 42
0.0625
 43
0.38
 44
0.18
 45
0.0
 46
0.0
 47
0.0
 48
0.0
140
0.18
141
0.09
142
0.0
143
25.4
144
1.0
145
0.0
146
1.0
147
0.09
 71
     0
 72
     0
 73
     1
 74
     1
 75
     0
 76
     0
 77
     0
 78
     0
170
     0
171
     2
172
     0
173
     0
174
     0
175
     0
176
     0
177
     0
178
     0
  0
ENDTAB
  0
ENDSEC
  0
SECTION
  2
BLOCKS
  0
BLOCK
  8
0
  2
$MODEL_SPACE
 70
     0
 10
0.0
 20
0.0
 30
0.0
  3
$MODEL_SPACE
  1

  0
ENDBLK
  5
1B
  8
0
  0
BLOCK
 67
     1
  8
0
  2
$PAPER_SPACE
 70
     0
 10
0.0
 20
0.0
 30
0.0
  3
$PAPER_SPACE
  1

  0
ENDBLK
  5
18
 67
     1
  8
0
  0
ENDSEC
  0
SECTION
  2
ENTITIES
  0
LINE
  5
6E
  8
0
 10
6.654404545882311
 20
10.67555069212411
 30
0.0
 11
6.590404545882311
 21
10.66155069212411
 31
0.0
  0
LINE
  5
6F
  8
0
 10
6.590404545882311
 20
10.66155069212411
 30
0.0
 11
6.557404545882311
 21
10.6475506921241
 31
0.0
  0
LINE
  5
70
  8
0
 10
6.557404545882311
 20
10.6475506921241
 30
0.0
 11
6.556404545882311
 21
10.63555069212411
 31
0.0
  0
LINE
  5
71
  8
0
 10
6.556404545882311
 20
10.63555069212411
 30
0.0
 11
6.585404545882311
 21
10.62255069212411
 31
0.0
  0
LINE
  5
72
  8
0
 10
6.585404545882311
 20
10.62255069212411
 30
0.0
 11
6.629404545882311
 21
10.6255506921241
 31
0.0
  0
LINE
  5
73
  8
0
 10
6.629404545882311
 20
10.6255506921241
 30
0.0
 11
6.661404545882311
 21
10.62655069212411
 31
0.0
  0
LINE
  5
74
  8
0
 10
6.661404545882311
 20
10.62655069212411
 30
0.0
 11
6.681404545882311
 21
10.62655069212411
 31
0.0
  0
LINE
  5
75
  8
0
 10
6.681404545882311
 20
10.62655069212411
 30
0.0
 11
6.688404545882311
 21
10.6245506921241
 31
0.0
  0
LINE
  5
76
  8
0
 10
6.688404545882311
 20
10.6245506921241
 30
0.0
 11
6.684404545882312
 21
10.62255069212411
 31
0.0
  0
LINE
  5
77
  8
0
 10
6.684404545882312
 20
10.62255069212411
 30
0.0
 11
6.668404545882312
 21
10.6185506921241
 31
0.0
  0
LINE
  5
78
  8
0
 10
6.668404545882312
 20
10.6185506921241
 30
0.0
 11
6.640404545882311
 21
10.61355069212411
 31
0.0
  0
LINE
  5
79
  8
0
 10
6.640404545882311
 20
10.61355069212411
 30
0.0
 11
6.598404545882311
 21
10.6055506921241
 31
0.0
  0
LINE
  5
7A
  8
0
 10
6.598404545882311
 20
10.6055506921241
 30
0.0
 11
6.564404545882311
 21
10.59855069212411
 31
0.0
  0
LINE
  5
7B
  8
0
 10
6.564404545882311
 20
10.59855069212411
 30
0.0
 11
6.553404545882311
 21
10.58855069212411
 31
0.0
  0
LINE
  5
7C
  8
0
 10
6.553404545882311
 20
10.58855069212411
 30
0.0
 11
6.565404545882311
 21
10.5775506921241
 31
0.0
  0
LINE
  5
7D
  8
0
 10
6.565404545882311
 20
10.5775506921241
 30
0.0
 11
6.600404545882311
 21
10.5635506921241
 31
0.0
  0
LINE
  5
7E
  8
0
 10
6.600404545882311
 20
10.5635506921241
 30
0.0
 11
6.571404545882311
 21
10.56855069212411
 31
0.0
  0
LINE
  5
7F
  8
0
 10
6.571404545882311
 20
10.56855069212411
 30
0.0
 11
6.540404545882311
 21
10.5675506921241
 31
0.0
  0
LINE
  5
80
  8
0
 10
6.540404545882311
 20
10.5675506921241
 30
0.0
 11
6.526404545882311
 21
10.54955069212411
 31
0.0
  0
LINE
  5
81
  8
0
 10
6.526404545882311
 20
10.54955069212411
 30
0.0
 11
6.555404545882311
 21
10.5355506921241
 31
0.0
  0
LINE
  5
82
  8
0
 10
6.555404545882311
 20
10.5355506921241
 30
0.0
 11
6.592404545882311
 21
10.52755069212411
 31
0.0
  0
LINE
  5
83
  8
0
 10
6.592404545882311
 20
10.52755069212411
 30
0.0
 11
6.638404545882311
 21
10.5285506921241
 31
0.0
  0
LINE
  5
84
  8
0
 10
6.638404545882311
 20
10.5285506921241
 30
0.0
 11
6.691404545882311
 21
10.53655069212411
 31
0.0
  0
LINE
  5
85
  8
0
 10
6.691404545882311
 20
10.53655069212411
 30
0.0
 11
6.728404545882311
 21
10.54255069212411
 31
0.0
  0
LINE
  5
86
  8
0
 10
6.728404545882311
 20
10.54255069212411
 30
0.0
 11
6.745404545882312
 21
10.5345506921241
 31
0.0
  0
LINE
  5
87
  8
0
 10
6.745404545882312
 20
10.5345506921241
 30
0.0
 11
6.746404545882311
 21
10.5155506921241
 31
0.0
  0
LINE
  5
88
  8
0
 10
6.746404545882311
 20
10.5155506921241
 30
0.0
 11
6.727404545882311
 21
10.4835506921241
 31
0.0
  0
LINE
  5
89
  8
0
 10
6.727404545882311
 20
10.4835506921241
 30
0.0
 11
6.688404545882311
 21
10.46055069212411
 31
0.0
  0
LINE
  5
8A
  8
0
 10
6.688404545882311
 20
10.46055069212411
 30
0.0
 11
6.636404545882312
 21
10.43455069212411
 31
0.0
  0
LINE
  5
8B
  8
0
 10
6.636404545882312
 20
10.43455069212411
 30
0.0
 11
6.593404545882311
 21
10.4065506921241
 31
0.0
  0
LINE
  5
8C
  8
0
 10
6.593404545882311
 20
10.4065506921241
 30
0.0
 11
6.562404545882312
 21
10.3785506921241
 31
0.0
  0
LINE
  5
8D
  8
0
 10
6.562404545882312
 20
10.3785506921241
 30
0.0
 11
6.540404545882311
 21
10.3495506921241
 31
0.0
  0
LINE
  5
8E
  8
0
 10
6.540404545882311
 20
10.3495506921241
 30
0.0
 11
6.541404545882311
 21
10.33455069212411
 31
0.0
  0
LINE
  5
8F
  8
0
 10
6.541404545882311
 20
10.33455069212411
 30
0.0
 11
6.563404545882311
 21
10.32155069212411
 31
0.0
  0
LINE
  5
90
  8
0
 10
6.563404545882311
 20
10.32155069212411
 30
0.0
 11
6.572404545882311
 21
10.32455069212411
 31
0.0
  0
LINE
  5
91
  8
0
 10
6.572404545882311
 20
10.32455069212411
 30
0.0
 11
6.588404545882312
 21
10.3335506921241
 31
0.0
  0
LINE
  5
92
  8
0
 10
6.588404545882312
 20
10.3335506921241
 30
0.0
 11
6.620404545882312
 21
10.35155069212411
 31
0.0
  0
LINE
  5
93
  8
0
 10
6.620404545882312
 20
10.35155069212411
 30
0.0
 11
6.645404545882311
 21
10.3585506921241
 31
0.0
  0
LINE
  5
94
  8
0
 10
6.645404545882311
 20
10.3585506921241
 30
0.0
 11
6.663404545882312
 21
10.35655069212411
 31
0.0
  0
LINE
  5
95
  8
0
 10
6.663404545882312
 20
10.35655069212411
 30
0.0
 11
6.673404545882311
 21
10.3435506921241
 31
0.0
  0
LINE
  5
96
  8
0
 10
6.673404545882311
 20
10.3435506921241
 30
0.0
 11
6.643404545882311
 21
10.31555069212411
 31
0.0
  0
LINE
  5
97
  8
0
 10
6.643404545882311
 20
10.31555069212411
 30
0.0
 11
6.636404545882312
 21
10.29055069212411
 31
0.0
  0
LINE
  5
98
  8
0
 10
6.636404545882312
 20
10.29055069212411
 30
0.0
 11
6.654404545882311
 21
10.2695506921241
 31
0.0
  0
LINE
  5
99
  8
0
 10
6.654404545882311
 20
10.2695506921241
 30
0.0
 11
6.696404545882311
 21
10.25155069212411
 31
0.0
  0
LINE
  5
9A
  8
0
 10
6.696404545882311
 20
10.25155069212411
 30
0.0
 11
6.748404545882312
 21
10.2495506921241
 31
0.0
  0
LINE
  5
9B
  8
0
 10
6.748404545882312
 20
10.2495506921241
 30
0.0
 11
6.795404545882311
 21
10.2695506921241
 31
0.0
  0
LINE
  5
9C
  8
0
 10
6.795404545882311
 20
10.2695506921241
 30
0.0
 11
6.815404545882311
 21
10.2785506921241
 31
0.0
  0
LINE
  5
9D
  8
0
 10
6.815404545882311
 20
10.2785506921241
 30
0.0
 11
6.831404545882311
 21
10.27055069212411
 31
0.0
  0
LINE
  5
9E
  8
0
 10
6.831404545882311
 20
10.27055069212411
 30
0.0
 11
6.843404545882311
 21
10.24855069212411
 31
0.0
  0
LINE
  5
9F
  8
0
 10
6.843404545882311
 20
10.24855069212411
 30
0.0
 11
6.850404545882311
 21
10.21055069212411
 31
0.0
  0
LINE
  5
A0
  8
0
 10
6.850404545882311
 20
10.21055069212411
 30
0.0
 11
6.853404545882311
 21
10.15855069212411
 31
0.0
  0
LINE
  5
A1
  8
0
 10
6.853404545882311
 20
10.15855069212411
 30
0.0
 11
6.849404545882312
 21
10.1285506921241
 31
0.0
  0
LINE
  5
A2
  8
0
 10
6.849404545882312
 20
10.1285506921241
 30
0.0
 11
6.838404545882312
 21
10.1215506921241
 31
0.0
  0
LINE
  5
A3
  8
0
 10
6.838404545882312
 20
10.1215506921241
 30
0.0
 11
6.821404545882311
 21
10.13655069212411
 31
0.0
  0
LINE
  5
A4
  8
0
 10
6.821404545882311
 20
10.13655069212411
 30
0.0
 11
6.821404545882311
 21
10.13855069212411
 31
0.0
  0
LINE
  5
A5
  8
0
 10
6.821404545882311
 20
10.13855069212411
 30
0.0
 11
6.822404545882311
 21
10.1955506921241
 31
0.0
  0
LINE
  5
A6
  8
0
 10
6.822404545882311
 20
10.1955506921241
 30
0.0
 11
6.812404545882312
 21
10.22355069212411
 31
0.0
  0
LINE
  5
A7
  8
0
 10
6.812404545882312
 20
10.22355069212411
 30
0.0
 11
6.793404545882312
 21
10.22355069212411
 31
0.0
  0
LINE
  5
A8
  8
0
 10
6.793404545882312
 20
10.22355069212411
 30
0.0
 11
6.762404545882311
 21
10.1955506921241
 31
0.0
  0
LINE
  5
A9
  8
0
 10
6.762404545882311
 20
10.1955506921241
 30
0.0
 11
6.730404545882311
 21
10.1735506921241
 31
0.0
  0
LINE
  5
AA
  8
0
 10
6.730404545882311
 20
10.1735506921241
 30
0.0
 11
6.710404545882311
 21
10.14555069212411
 31
0.0
  0
LINE
  5
AB
  8
0
 10
6.710404545882311
 20
10.14555069212411
 30
0.0
 11
6.704404545882311
 21
10.11455069212411
 31
0.0
  0
LINE
  5
AC
  8
0
 10
6.704404545882311
 20
10.11455069212411
 30
0.0
 11
6.711404545882312
 21
10.07855069212411
 31
0.0
  0
LINE
  5
AD
  8
0
 10
6.711404545882312
 20
10.07855069212411
 30
0.0
 11
6.673404545882311
 21
10.0635506921241
 31
0.0
  0
LINE
  5
AE
  8
0
 10
6.673404545882311
 20
10.0635506921241
 30
0.0
 11
6.678404545882311
 21
10.08155069212411
 31
0.0
  0
LINE
  5
AF
  8
0
 10
6.678404545882311
 20
10.08155069212411
 30
0.0
 11
6.673404545882311
 21
10.0955506921241
 31
0.0
  0
LINE
  5
B0
  8
0
 10
6.673404545882311
 20
10.0955506921241
 30
0.0
 11
6.644404545882312
 21
10.0925506921241
 31
0.0
  0
LINE
  5
B1
  8
0
 10
6.644404545882312
 20
10.0925506921241
 30
0.0
 11
6.555404545882311
 21
10.00455069212411
 31
0.0
  0
LINE
  5
B2
  8
0
 10
6.555404545882311
 20
10.00455069212411
 30
0.0
 11
6.543404545882312
 21
9.968550692124104
 31
0.0
  0
LINE
  5
B3
  8
0
 10
6.543404545882312
 20
9.968550692124104
 30
0.0
 11
6.512404545882311
 21
9.931550692124105
 31
0.0
  0
LINE
  5
B4
  8
0
 10
6.512404545882311
 20
9.931550692124105
 30
0.0
 11
6.504404545882311
 21
9.931550692124105
 31
0.0
  0
LINE
  5
B5
  8
0
 10
6.504404545882311
 20
9.931550692124105
 30
0.0
 11
6.510404545882311
 21
9.884550692124105
 31
0.0
  0
LINE
  5
B6
  8
0
 10
6.510404545882311
 20
9.884550692124105
 30
0.0
 11
6.503404545882312
 21
9.860550692124106
 31
0.0
  0
LINE
  5
B7
  8
0
 10
6.503404545882312
 20
9.860550692124106
 30
0.0
 11
6.485404545882311
 21
9.862550692124104
 31
0.0
  0
LINE
  5
B8
  8
0
 10
6.485404545882311
 20
9.862550692124104
 30
0.0
 11
6.453404545882312
 21
9.886550692124105
 31
0.0
  0
LINE
  5
B9
  8
0
 10
6.453404545882312
 20
9.886550692124105
 30
0.0
 11
6.473404545882311
 21
9.839550692124105
 31
0.0
  0
LINE
  5
BA
  8
0
 10
6.473404545882311
 20
9.839550692124105
 30
0.0
 11
6.501404545882311
 21
9.810550692124105
 31
0.0
  0
LINE
  5
BB
  8
0
 10
6.501404545882311
 20
9.810550692124105
 30
0.0
 11
6.539404545882311
 21
9.801550692124104
 31
0.0
  0
LINE
  5
BC
  8
0
 10
6.539404545882311
 20
9.801550692124104
 30
0.0
 11
6.585404545882311
 21
9.811550692124104
 31
0.0
  0
LINE
  5
BD
  8
0
 10
6.585404545882311
 20
9.811550692124104
 30
0.0
 11
6.600404545882311
 21
9.813550692124105
 31
0.0
  0
LINE
  5
BE
  8
0
 10
6.600404545882311
 20
9.813550692124105
 30
0.0
 11
6.596404545882312
 21
9.802550692124106
 31
0.0
  0
LINE
  5
BF
  8
0
 10
6.596404545882312
 20
9.802550692124106
 30
0.0
 11
6.570404545882312
 21
9.783550692124106
 31
0.0
  0
LINE
  5
C0
  8
0
 10
6.570404545882312
 20
9.783550692124106
 30
0.0
 11
6.703404545882312
 21
9.569550692124105
 31
0.0
  0
LINE
  5
C1
  8
0
 10
6.703404545882312
 20
9.569550692124105
 30
0.0
 11
6.691404545882311
 21
9.573550692124105
 31
0.0
  0
LINE
  5
C2
  8
0
 10
6.691404545882311
 20
9.573550692124105
 30
0.0
 11
6.664404545882311
 21
9.575550692124105
 31
0.0
  0
LINE
  5
C3
  8
0
 10
6.664404545882311
 20
9.575550692124105
 30
0.0
 11
6.629404545882311
 21
9.563550692124105
 31
0.0
  0
LINE
  5
C4
  8
0
 10
6.629404545882311
 20
9.563550692124105
 30
0.0
 11
6.631404545882312
 21
9.576550692124105
 31
0.0
  0
LINE
  5
C5
  8
0
 10
6.631404545882312
 20
9.576550692124105
 30
0.0
 11
6.638404545882311
 21
9.605550692124105
 31
0.0
  0
LINE
  5
C6
  8
0
 10
6.638404545882311
 20
9.605550692124105
 30
0.0
 11
6.632404545882311
 21
9.629550692124106
 31
0.0
  0
LINE
  5
C7
  8
0
 10
6.632404545882311
 20
9.629550692124106
 30
0.0
 11
6.615404545882312
 21
9.649550692124105
 31
0.0
  0
LINE
  5
C8
  8
0
 10
6.615404545882312
 20
9.649550692124105
 30
0.0
 11
6.585404545882311
 21
9.665550692124105
 31
0.0
  0
LINE
  5
C9
  8
0
 10
6.585404545882311
 20
9.665550692124105
 30
0.0
 11
6.585404545882311
 21
9.651550692124106
 31
0.0
  0
LINE
  5
CA
  8
0
 10
6.585404545882311
 20
9.651550692124106
 30
0.0
 11
6.571404545882311
 21
9.653550692124105
 31
0.0
  0
LINE
  5
CB
  8
0
 10
6.571404545882311
 20
9.653550692124105
 30
0.0
 11
6.526404545882311
 21
9.665550692124105
 31
0.0
  0
LINE
  5
CC
  8
0
 10
6.526404545882311
 20
9.665550692124105
 30
0.0
 11
6.526404545882311
 21
9.651550692124106
 31
0.0
  0
LINE
  5
CD
  8
0
 10
6.526404545882311
 20
9.651550692124106
 30
0.0
 11
6.526404545882311
 21
9.636550692124105
 31
0.0
  0
LINE
  5
CE
  8
0
 10
6.526404545882311
 20
9.636550692124105
 30
0.0
 11
6.503404545882312
 21
9.668550692124105
 31
0.0
  0
LINE
  5
CF
  8
0
 10
6.503404545882312
 20
9.668550692124105
 30
0.0
 11
6.496404545882311
 21
9.680550692124106
 31
0.0
  0
LINE
  5
D0
  8
0
 10
6.496404545882311
 20
9.680550692124106
 30
0.0
 11
6.487404545882312
 21
9.655550692124105
 31
0.0
  0
LINE
  5
D1
  8
0
 10
6.487404545882312
 20
9.655550692124105
 30
0.0
 11
6.477404545882311
 21
9.647550692124105
 31
0.0
  0
LINE
  5
D2
  8
0
 10
6.477404545882311
 20
9.647550692124105
 30
0.0
 11
6.467404545882311
 21
9.656550692124105
 31
0.0
  0
LINE
  5
D3
  8
0
 10
6.467404545882311
 20
9.656550692124105
 30
0.0
 11
6.456404545882311
 21
9.682550692124105
 31
0.0
  0
LINE
  5
D4
  8
0
 10
6.456404545882311
 20
9.682550692124105
 30
0.0
 11
6.453404545882312
 21
9.695550692124105
 31
0.0
  0
LINE
  5
D5
  8
0
 10
6.453404545882312
 20
9.695550692124105
 30
0.0
 11
6.442404545882312
 21
9.663550692124105
 31
0.0
  0
LINE
  5
D6
  8
0
 10
6.442404545882312
 20
9.663550692124105
 30
0.0
 11
6.433404545882311
 21
9.649550692124105
 31
0.0
  0
LINE
  5
D7
  8
0
 10
6.433404545882311
 20
9.649550692124105
 30
0.0
 11
6.427404545882311
 21
9.655550692124105
 31
0.0
  0
LINE
  5
D8
  8
0
 10
6.427404545882311
 20
9.655550692124105
 30
0.0
 11
6.423404545882311
 21
9.680550692124106
 31
0.0
  0
LINE
  5
D9
  8
0
 10
6.423404545882311
 20
9.680550692124106
 30
0.0
 11
6.414404545882311
 21
9.685550692124105
 31
0.0
  0
LINE
  5
DA
  8
0
 10
6.414404545882311
 20
9.685550692124105
 30
0.0
 11
6.408404545882311
 21
9.677550692124106
 31
0.0
  0
LINE
  5
DB
  8
0
 10
6.408404545882311
 20
9.677550692124106
 30
0.0
 11
6.406404545882311
 21
9.656550692124105
 31
0.0
  0
LINE
  5
DC
  8
0
 10
6.406404545882311
 20
9.656550692124105
 30
0.0
 11
6.407404545882311
 21
9.621550692124105
 31
0.0
  0
LINE
  5
DD
  8
0
 10
6.407404545882311
 20
9.621550692124105
 30
0.0
 11
6.408404545882311
 21
9.599550692124105
 31
0.0
  0
LINE
  5
DE
  8
0
 10
6.408404545882311
 20
9.599550692124105
 30
0.0
 11
6.402404545882312
 21
9.639550692124105
 31
0.0
  0
LINE
  5
DF
  8
0
 10
6.402404545882312
 20
9.639550692124105
 30
0.0
 11
6.392404545882311
 21
9.670550692124104
 31
0.0
  0
LINE
  5
E0
  8
0
 10
6.392404545882311
 20
9.670550692124104
 30
0.0
 11
6.379404545882311
 21
9.693550692124106
 31
0.0
  0
LINE
  5
E1
  8
0
 10
6.379404545882311
 20
9.693550692124106
 30
0.0
 11
6.361404545882311
 21
9.707550692124105
 31
0.0
  0
LINE
  5
E2
  8
0
 10
6.361404545882311
 20
9.707550692124105
 30
0.0
 11
6.318404545882311
 21
9.711550692124105
 31
0.0
  0
LINE
  5
E3
  8
0
 10
6.318404545882311
 20
9.711550692124105
 30
0.0
 11
6.292404545882311
 21
9.700550692124105
 31
0.0
  0
LINE
  5
E4
  8
0
 10
6.292404545882311
 20
9.700550692124105
 30
0.0
 11
6.261404545882312
 21
9.680550692124106
 31
0.0
  0
LINE
  5
E5
  8
0
 10
6.261404545882312
 20
9.680550692124106
 30
0.0
 11
6.245404545882312
 21
9.674550692124106
 31
0.0
  0
LINE
  5
E6
  8
0
 10
6.245404545882312
 20
9.674550692124106
 30
0.0
 11
6.229404545882312
 21
9.697550692124105
 31
0.0
  0
LINE
  5
E7
  8
0
 10
6.229404545882312
 20
9.697550692124105
 30
0.0
 11
6.205404545882311
 21
9.702550692124104
 31
0.0
  0
LINE
  5
E8
  8
0
 10
6.205404545882311
 20
9.702550692124104
 30
0.0
 11
6.173404545882311
 21
9.703550692124105
 31
0.0
  0
LINE
  5
E9
  8
0
 10
6.173404545882311
 20
9.703550692124105
 30
0.0
 11
6.161404545882311
 21
9.710550692124105
 31
0.0
  0
LINE
  5
EA
  8
0
 10
6.161404545882311
 20
9.710550692124105
 30
0.0
 11
6.157404545882311
 21
9.732550692124105
 31
0.0
  0
LINE
  5
EB
  8
0
 10
6.157404545882311
 20
9.732550692124105
 30
0.0
 11
6.153404545882311
 21
9.736550692124105
 31
0.0
  0
LINE
  5
EC
  8
0
 10
6.153404545882311
 20
9.736550692124105
 30
0.0
 11
6.114404545882311
 21
9.716550692124105
 31
0.0
  0
LINE
  5
ED
  8
0
 10
6.114404545882311
 20
9.716550692124105
 30
0.0
 11
6.083404545882312
 21
9.703550692124105
 31
0.0
  0
LINE
  5
EE
  8
0
 10
6.083404545882312
 20
9.703550692124105
 30
0.0
 11
6.064404545882311
 21
9.699550692124106
 31
0.0
  0
LINE
  5
EF
  8
0
 10
6.064404545882311
 20
9.699550692124106
 30
0.0
 11
6.053404545882311
 21
9.702550692124104
 31
0.0
  0
LINE
  5
F0
  8
0
 10
6.053404545882311
 20
9.702550692124104
 30
0.0
 11
6.041404545882311
 21
9.724550692124105
 31
0.0
  0
LINE
  5
F1
  8
0
 10
6.041404545882311
 20
9.724550692124105
 30
0.0
 11
6.020404545882311
 21
9.726550692124105
 31
0.0
  0
LINE
  5
F2
  8
0
 10
6.020404545882311
 20
9.726550692124105
 30
0.0
 11
6.005404545882311
 21
9.736550692124105
 31
0.0
  0
LINE
  5
F3
  8
0
 10
6.005404545882311
 20
9.736550692124105
 30
0.0
 11
5.998404545882312
 21
9.755550692124105
 31
0.0
  0
LINE
  5
F4
  8
0
 10
5.998404545882312
 20
9.755550692124105
 30
0.0
 11
5.996404545882311
 21
9.783550692124106
 31
0.0
  0
LINE
  5
F5
  8
0
 10
5.996404545882311
 20
9.783550692124106
 30
0.0
 11
6.028404545882311
 21
9.792550692124106
 31
0.0
  0
LINE
  5
F6
  8
0
 10
6.028404545882311
 20
9.792550692124106
 30
0.0
 11
6.033404545882311
 21
9.832550692124105
 31
0.0
  0
LINE
  5
F7
  8
0
 10
6.033404545882311
 20
9.832550692124105
 30
0.0
 11
6.024404545882311
 21
9.861550692124105
 31
0.0
  0
LINE
  5
F8
  8
0
 10
6.024404545882311
 20
9.861550692124105
 30
0.0
 11
6.003404545882312
 21
9.879550692124106
 31
0.0
  0
LINE
  5
F9
  8
0
 10
6.003404545882312
 20
9.879550692124106
 30
0.0
 11
5.967404545882311
 21
9.886550692124105
 31
0.0
  0
LINE
  5
FA
  8
0
 10
5.967404545882311
 20
9.886550692124105
 30
0.0
 11
5.967404545882311
 21
9.872550692124106
 31
0.0
  0
LINE
  5
FB
  8
0
 10
5.967404545882311
 20
9.872550692124106
 30
0.0
 11
5.967404545882311
 21
9.857550692124105
 31
0.0
  0
LINE
  5
FC
  8
0
 10
5.967404545882311
 20
9.857550692124105
 30
0.0
 11
5.921404545882312
 21
9.858550692124105
 31
0.0
  0
LINE
  5
FD
  8
0
 10
5.921404545882312
 20
9.858550692124105
 30
0.0
 11
5.894404545882312
 21
9.849550692124105
 31
0.0
  0
LINE
  5
FE
  8
0
 10
5.894404545882312
 20
9.849550692124105
 30
0.0
 11
5.886404545882312
 21
9.830550692124104
 31
0.0
  0
LINE
  5
FF
  8
0
 10
5.886404545882312
 20
9.830550692124104
 30
0.0
 11
5.897404545882312
 21
9.800550692124105
 31
0.0
  0
LINE
  5
100
  8
0
 10
5.897404545882312
 20
9.800550692124105
 30
0.0
 11
5.911404545882311
 21
9.783550692124106
 31
0.0
  0
LINE
  5
101
  8
0
 10
5.911404545882311
 20
9.783550692124106
 30
0.0
 11
5.952404545882311
 21
9.776550692124106
 31
0.0
  0
LINE
  5
102
  8
0
 10
5.952404545882311
 20
9.776550692124106
 30
0.0
 11
5.958404545882312
 21
9.768550692124105
 31
0.0
  0
LINE
  5
103
  8
0
 10
5.958404545882312
 20
9.768550692124105
 30
0.0
 11
5.937404545882312
 21
9.749550692124105
 31
0.0
  0
LINE
  5
104
  8
0
 10
5.937404545882312
 20
9.749550692124105
 30
0.0
 11
5.919404545882311
 21
9.718550692124104
 31
0.0
  0
LINE
  5
105
  8
0
 10
5.919404545882311
 20
9.718550692124104
 30
0.0
 11
5.905404545882312
 21
9.677550692124106
 31
0.0
  0
LINE
  5
106
  8
0
 10
5.905404545882312
 20
9.677550692124106
 30
0.0
 11
5.893404545882311
 21
9.624550692124105
 31
0.0
  0
LINE
  5
107
  8
0
 10
5.893404545882311
 20
9.624550692124105
 30
0.0
 11
5.887404545882311
 21
9.681550692124105
 31
0.0
  0
LINE
  5
108
  8
0
 10
5.887404545882311
 20
9.681550692124105
 30
0.0
 11
5.868404545882311
 21
9.712550692124106
 31
0.0
  0
LINE
  5
109
  8
0
 10
5.868404545882311
 20
9.712550692124106
 30
0.0
 11
5.836404545882311
 21
9.717550692124105
 31
0.0
  0
LINE
  5
10A
  8
0
 10
5.836404545882311
 20
9.717550692124105
 30
0.0
 11
5.790404545882311
 21
9.695550692124105
 31
0.0
  0
LINE
  5
10B
  8
0
 10
5.790404545882311
 20
9.695550692124105
 30
0.0
 11
5.790404545882311
 21
9.680550692124106
 31
0.0
  0
LINE
  5
10C
  8
0
 10
5.790404545882311
 20
9.680550692124106
 30
0.0
 11
5.780404545882312
 21
9.676550692124104
 31
0.0
  0
LINE
  5
10D
  8
0
 10
5.780404545882312
 20
9.676550692124104
 30
0.0
 11
5.766404545882311
 21
9.673550692124104
 31
0.0
  0
LINE
  5
10E
  8
0
 10
5.766404545882311
 20
9.673550692124104
 30
0.0
 11
5.746404545882311
 21
9.695550692124105
 31
0.0
  0
LINE
  5
10F
  8
0
 10
5.746404545882311
 20
9.695550692124105
 30
0.0
 11
5.746404545882311
 21
9.651550692124106
 31
0.0
  0
LINE
  5
110
  8
0
 10
5.746404545882311
 20
9.651550692124106
 30
0.0
 11
5.746404545882311
 21
9.636550692124105
 31
0.0
  0
LINE
  5
111
  8
0
 10
5.746404545882311
 20
9.636550692124105
 30
0.0
 11
5.739404545882311
 21
9.636550692124105
 31
0.0
  0
LINE
  5
112
  8
0
 10
5.739404545882311
 20
9.636550692124105
 30
0.0
 11
5.736404545882311
 21
9.655550692124105
 31
0.0
  0
LINE
  5
113
  8
0
 10
5.736404545882311
 20
9.655550692124105
 30
0.0
 11
5.726404545882311
 21
9.665550692124105
 31
0.0
  0
LINE
  5
114
  8
0
 10
5.726404545882311
 20
9.665550692124105
 30
0.0
 11
5.710404545882311
 21
9.669550692124105
 31
0.0
  0
LINE
  5
115
  8
0
 10
5.710404545882311
 20
9.669550692124105
 30
0.0
 11
5.687404545882312
 21
9.665550692124105
 31
0.0
  0
LINE
  5
116
  8
0
 10
5.687404545882312
 20
9.665550692124105
 30
0.0
 11
5.713404545882312
 21
9.628550692124104
 31
0.0
  0
LINE
  5
117
  8
0
 10
5.713404545882312
 20
9.628550692124104
 30
0.0
 11
5.726404545882311
 21
9.597550692124106
 31
0.0
  0
LINE
  5
118
  8
0
 10
5.726404545882311
 20
9.597550692124106
 30
0.0
 11
5.726404545882311
 21
9.572550692124105
 31
0.0
  0
LINE
  5
119
  8
0
 10
5.726404545882311
 20
9.572550692124105
 30
0.0
 11
5.714404545882311
 21
9.551550692124104
 31
0.0
  0
LINE
  5
11A
  8
0
 10
5.714404545882311
 20
9.551550692124104
 30
0.0
 11
5.702404545882311
 21
9.547550692124105
 31
0.0
  0
LINE
  5
11B
  8
0
 10
5.702404545882311
 20
9.547550692124105
 30
0.0
 11
5.694404545882311
 21
9.547550692124105
 31
0.0
  0
LINE
  5
11C
  8
0
 10
5.694404545882311
 20
9.547550692124105
 30
0.0
 11
5.690404545882311
 21
9.571550692124106
 31
0.0
  0
LINE
  5
11D
  8
0
 10
5.690404545882311
 20
9.571550692124106
 30
0.0
 11
5.672404545882311
 21
9.577550692124104
 31
0.0
  0
LINE
  5
11E
  8
0
 10
5.672404545882311
 20
9.577550692124104
 30
0.0
 11
5.662404545882311
 21
9.581550692124106
 31
0.0
  0
LINE
  5
11F
  8
0
 10
5.662404545882311
 20
9.581550692124106
 30
0.0
 11
5.631404545882312
 21
9.602550692124105
 31
0.0
  0
LINE
  5
120
  8
0
 10
5.631404545882312
 20
9.602550692124105
 30
0.0
 11
5.599404545882312
 21
9.592550692124105
 31
0.0
  0
LINE
  5
121
  8
0
 10
5.599404545882312
 20
9.592550692124105
 30
0.0
 11
5.620404545882312
 21
9.550550692124105
 31
0.0
  0
LINE
  5
122
  8
0
 10
5.620404545882312
 20
9.550550692124105
 30
0.0
 11
5.628404545882312
 21
9.547550692124105
 31
0.0
  0
LINE
  5
123
  8
0
 10
5.628404545882312
 20
9.547550692124105
 30
0.0
 11
5.623404545882312
 21
9.509550692124105
 31
0.0
  0
LINE
  5
124
  8
0
 10
5.623404545882312
 20
9.509550692124105
 30
0.0
 11
5.601404545882311
 21
9.485550692124106
 31
0.0
  0
LINE
  5
125
  8
0
 10
5.601404545882311
 20
9.485550692124106
 30
0.0
 11
5.542404545882311
 21
9.442550692124104
 31
0.0
  0
LINE
  5
126
  8
0
 10
5.542404545882311
 20
9.442550692124104
 30
0.0
 11
5.499404545882311
 21
9.400550692124105
 31
0.0
  0
LINE
  5
127
  8
0
 10
5.499404545882311
 20
9.400550692124105
 30
0.0
 11
5.480404545882311
 21
9.385550692124106
 31
0.0
  0
LINE
  5
128
  8
0
 10
5.480404545882311
 20
9.385550692124106
 30
0.0
 11
5.404404545882311
 21
9.323550692124105
 31
0.0
  0
LINE
  5
129
  8
0
 10
5.404404545882311
 20
9.323550692124105
 30
0.0
 11
5.319404545882311
 21
9.268550692124105
 31
0.0
  0
LINE
  5
12A
  8
0
 10
5.319404545882311
 20
9.268550692124105
 30
0.0
 11
5.304404545882312
 21
9.268550692124105
 31
0.0
  0
LINE
  5
12B
  8
0
 10
5.304404545882312
 20
9.268550692124105
 30
0.0
 11
5.172404545882311
 21
9.273550692124106
 31
0.0
  0
LINE
  5
12C
  8
0
 10
5.172404545882311
 20
9.273550692124106
 30
0.0
 11
5.039404545882311
 21
9.297550692124105
 31
0.0
  0
LINE
  5
12D
  8
0
 10
5.039404545882311
 20
9.297550692124105
 30
0.0
 11
5.023404545882311
 21
9.308550692124106
 31
0.0
  0
LINE
  5
12E
  8
0
 10
5.023404545882311
 20
9.308550692124106
 30
0.0
 11
5.018404545882311
 21
9.316550692124105
 31
0.0
  0
LINE
  5
12F
  8
0
 10
5.018404545882311
 20
9.316550692124105
 30
0.0
 11
5.018404545882311
 21
9.332550692124105
 31
0.0
  0
LINE
  5
130
  8
0
 10
5.018404545882311
 20
9.332550692124105
 30
0.0
 11
5.025404545882311
 21
9.358550692124105
 31
0.0
  0
LINE
  5
131
  8
0
 10
5.025404545882311
 20
9.358550692124105
 30
0.0
 11
5.037404545882311
 21
9.392550692124106
 31
0.0
  0
LINE
  5
132
  8
0
 10
5.037404545882311
 20
9.392550692124106
 30
0.0
 11
5.048404545882311
 21
9.405550692124105
 31
0.0
  0
LINE
  5
133
  8
0
 10
5.048404545882311
 20
9.405550692124105
 30
0.0
 11
5.061404545882311
 21
9.398550692124106
 31
0.0
  0
LINE
  5
134
  8
0
 10
5.061404545882311
 20
9.398550692124106
 30
0.0
 11
5.078404545882311
 21
9.373550692124105
 31
0.0
  0
LINE
  5
135
  8
0
 10
5.078404545882311
 20
9.373550692124105
 30
0.0
 11
5.098404545882311
 21
9.327550692124104
 31
0.0
  0
LINE
  5
136
  8
0
 10
5.098404545882311
 20
9.327550692124104
 30
0.0
 11
5.107404545882312
 21
9.345550692124105
 31
0.0
  0
LINE
  5
137
  8
0
 10
5.107404545882312
 20
9.345550692124105
 30
0.0
 11
5.125404545882311
 21
9.346550692124104
 31
0.0
  0
LINE
  5
138
  8
0
 10
5.125404545882311
 20
9.346550692124104
 30
0.0
 11
5.142404545882311
 21
9.342550692124105
 31
0.0
  0
LINE
  5
139
  8
0
 10
5.142404545882311
 20
9.342550692124105
 30
0.0
 11
5.188404545882311
 21
9.413550692124105
 31
0.0
  0
LINE
  5
13A
  8
0
 10
5.188404545882311
 20
9.413550692124105
 30
0.0
 11
5.210404545882311
 21
9.485550692124106
 31
0.0
  0
LINE
  5
13B
  8
0
 10
5.210404545882311
 20
9.485550692124106
 30
0.0
 11
5.210404545882311
 21
9.560550692124105
 31
0.0
  0
LINE
  5
13C
  8
0
 10
5.210404545882311
 20
9.560550692124105
 30
0.0
 11
5.186404545882311
 21
9.636550692124105
 31
0.0
  0
LINE
  5
13D
  8
0
 10
5.186404545882311
 20
9.636550692124105
 30
0.0
 11
5.167404545882311
 21
9.602550692124105
 31
0.0
  0
LINE
  5
13E
  8
0
 10
5.167404545882311
 20
9.602550692124105
 30
0.0
 11
5.159404545882311
 21
9.577550692124104
 31
0.0
  0
LINE
  5
13F
  8
0
 10
5.159404545882311
 20
9.577550692124104
 30
0.0
 11
5.157404545882311
 21
9.554550692124105
 31
0.0
  0
LINE
  5
140
  8
0
 10
5.157404545882311
 20
9.554550692124105
 30
0.0
 11
5.150404545882311
 21
9.587550692124106
 31
0.0
  0
LINE
  5
141
  8
0
 10
5.150404545882311
 20
9.587550692124106
 30
0.0
 11
5.140404545882311
 21
9.604550692124105
 31
0.0
  0
LINE
  5
142
  8
0
 10
5.140404545882311
 20
9.604550692124105
 30
0.0
 11
5.127404545882311
 21
9.606550692124106
 31
0.0
  0
LINE
  5
143
  8
0
 10
5.127404545882311
 20
9.606550692124106
 30
0.0
 11
5.112404545882312
 21
9.593550692124104
 31
0.0
  0
LINE
  5
144
  8
0
 10
5.112404545882312
 20
9.593550692124104
 30
0.0
 11
5.099404545882312
 21
9.576550692124105
 31
0.0
  0
LINE
  5
145
  8
0
 10
5.099404545882312
 20
9.576550692124105
 30
0.0
 11
5.072404545882311
 21
9.573550692124105
 31
0.0
  0
LINE
  5
146
  8
0
 10
5.072404545882311
 20
9.573550692124105
 30
0.0
 11
5.039404545882311
 21
9.533550692124106
 31
0.0
  0
LINE
  5
147
  8
0
 10
5.039404545882311
 20
9.533550692124106
 30
0.0
 11
5.026404545882311
 21
9.520550692124106
 31
0.0
  0
LINE
  5
148
  8
0
 10
5.026404545882311
 20
9.520550692124106
 30
0.0
 11
5.021404545882311
 21
9.489550692124105
 31
0.0
  0
LINE
  5
149
  8
0
 10
5.021404545882311
 20
9.489550692124105
 30
0.0
 11
5.021404545882311
 21
9.431550692124105
 31
0.0
  0
LINE
  5
14A
  8
0
 10
5.021404545882311
 20
9.431550692124105
 30
0.0
 11
5.019404545882312
 21
9.396550692124105
 31
0.0
  0
LINE
  5
14B
  8
0
 10
5.019404545882312
 20
9.396550692124105
 30
0.0
 11
5.017404545882311
 21
9.387550692124105
 31
0.0
  0
LINE
  5
14C
  8
0
 10
5.017404545882311
 20
9.387550692124105
 30
0.0
 11
5.013404545882311
 21
9.401550692124106
 31
0.0
  0
LINE
  5
14D
  8
0
 10
5.013404545882311
 20
9.401550692124106
 30
0.0
 11
5.010404545882311
 21
9.422550692124105
 31
0.0
  0
LINE
  5
14E
  8
0
 10
5.010404545882311
 20
9.422550692124105
 30
0.0
 11
4.996404545882311
 21
9.388550692124106
 31
0.0
  0
LINE
  5
14F
  8
0
 10
4.996404545882311
 20
9.388550692124106
 30
0.0
 11
4.981404545882311
 21
9.367550692124105
 31
0.0
  0
LINE
  5
150
  8
0
 10
4.981404545882311
 20
9.367550692124105
 30
0.0
 11
4.967404545882311
 21
9.362550692124104
 31
0.0
  0
LINE
  5
151
  8
0
 10
4.967404545882311
 20
9.362550692124104
 30
0.0
 11
4.951404545882311
 21
9.371550692124105
 31
0.0
  0
LINE
  5
152
  8
0
 10
4.951404545882311
 20
9.371550692124105
 30
0.0
 11
4.975404545882311
 21
9.472550692124106
 31
0.0
  0
LINE
  5
153
  8
0
 10
4.975404545882311
 20
9.472550692124106
 30
0.0
 11
5.013404545882311
 21
9.555550692124106
 31
0.0
  0
LINE
  5
154
  8
0
 10
5.013404545882311
 20
9.555550692124106
 30
0.0
 11
5.033404545882311
 21
9.590550692124106
 31
0.0
  0
LINE
  5
155
  8
0
 10
5.033404545882311
 20
9.590550692124106
 30
0.0
 11
5.033404545882311
 21
9.599550692124105
 31
0.0
  0
LINE
  5
156
  8
0
 10
5.033404545882311
 20
9.599550692124105
 30
0.0
 11
4.999404545882311
 21
9.590550692124106
 31
0.0
  0
LINE
  5
157
  8
0
 10
4.999404545882311
 20
9.590550692124106
 30
0.0
 11
4.980404545882311
 21
9.592550692124105
 31
0.0
  0
LINE
  5
158
  8
0
 10
4.980404545882311
 20
9.592550692124105
 30
0.0
 11
4.959404545882311
 21
9.617550692124105
 31
0.0
  0
LINE
  5
159
  8
0
 10
4.959404545882311
 20
9.617550692124105
 30
0.0
 11
4.951404545882311
 21
9.636550692124105
 31
0.0
  0
LINE
  5
15A
  8
0
 10
4.951404545882311
 20
9.636550692124105
 30
0.0
 11
4.902404545882312
 21
9.641550692124104
 31
0.0
  0
LINE
  5
15B
  8
0
 10
4.902404545882312
 20
9.641550692124104
 30
0.0
 11
4.860404545882311
 21
9.618550692124105
 31
0.0
  0
LINE
  5
15C
  8
0
 10
4.860404545882311
 20
9.618550692124105
 30
0.0
 11
4.827404545882311
 21
9.569550692124105
 31
0.0
  0
LINE
  5
15D
  8
0
 10
4.827404545882311
 20
9.569550692124105
 30
0.0
 11
4.802404545882311
 21
9.492550692124105
 31
0.0
  0
LINE
  5
15E
  8
0
 10
4.802404545882311
 20
9.492550692124105
 30
0.0
 11
4.792404545882311
 21
9.450550692124105
 31
0.0
  0
LINE
  5
15F
  8
0
 10
4.792404545882311
 20
9.450550692124105
 30
0.0
 11
4.781404545882311
 21
9.417550692124106
 31
0.0
  0
LINE
  5
160
  8
0
 10
4.781404545882311
 20
9.417550692124106
 30
0.0
 11
4.769404545882312
 21
9.394550692124104
 31
0.0
  0
LINE
  5
161
  8
0
 10
4.769404545882312
 20
9.394550692124104
 30
0.0
 11
4.756404545882312
 21
9.381550692124105
 31
0.0
  0
LINE
  5
162
  8
0
 10
4.756404545882312
 20
9.381550692124105
 30
0.0
 11
4.730404545882311
 21
9.386550692124105
 31
0.0
  0
LINE
  5
163
  8
0
 10
4.730404545882311
 20
9.386550692124105
 30
0.0
 11
4.716404545882312
 21
9.403550692124105
 31
0.0
  0
LINE
  5
164
  8
0
 10
4.716404545882312
 20
9.403550692124105
 30
0.0
 11
4.701404545882311
 21
9.430550692124106
 31
0.0
  0
LINE
  5
165
  8
0
 10
4.701404545882311
 20
9.430550692124106
 30
0.0
 11
4.723404545882311
 21
9.442550692124104
 31
0.0
  0
LINE
  5
166
  8
0
 10
4.723404545882311
 20
9.442550692124104
 30
0.0
 11
4.735404545882311
 21
9.460550692124105
 31
0.0
  0
LINE
  5
167
  8
0
 10
4.735404545882311
 20
9.460550692124105
 30
0.0
 11
4.741404545882311
 21
9.486550692124105
 31
0.0
  0
LINE
  5
168
  8
0
 10
4.741404545882311
 20
9.486550692124105
 30
0.0
 11
4.737404545882312
 21
9.517550692124106
 31
0.0
  0
LINE
  5
169
  8
0
 10
4.737404545882312
 20
9.517550692124106
 30
0.0
 11
4.730404545882311
 21
9.518550692124105
 31
0.0
  0
LINE
  5
16A
  8
0
 10
4.730404545882311
 20
9.518550692124105
 30
0.0
 11
4.792404545882311
 21
9.649550692124105
 31
0.0
  0
LINE
  5
16B
  8
0
 10
4.792404545882311
 20
9.649550692124105
 30
0.0
 11
4.800404545882311
 21
9.669550692124105
 31
0.0
  0
LINE
  5
16C
  8
0
 10
4.800404545882311
 20
9.669550692124105
 30
0.0
 11
4.798404545882311
 21
9.680550692124106
 31
0.0
  0
LINE
  5
16D
  8
0
 10
4.798404545882311
 20
9.680550692124106
 30
0.0
 11
4.766404545882311
 21
9.720550692124105
 31
0.0
  0
LINE
  5
16E
  8
0
 10
4.766404545882311
 20
9.720550692124105
 30
0.0
 11
4.736404545882311
 21
9.743550692124105
 31
0.0
  0
LINE
  5
16F
  8
0
 10
4.736404545882311
 20
9.743550692124105
 30
0.0
 11
4.710404545882311
 21
9.750550692124104
 31
0.0
  0
LINE
  5
170
  8
0
 10
4.710404545882311
 20
9.750550692124104
 30
0.0
 11
4.686404545882311
 21
9.739550692124105
 31
0.0
  0
LINE
  5
171
  8
0
 10
4.686404545882311
 20
9.739550692124105
 30
0.0
 11
4.666404545882311
 21
9.701550692124105
 31
0.0
  0
LINE
  5
172
  8
0
 10
4.666404545882311
 20
9.701550692124105
 30
0.0
 11
4.648404545882311
 21
9.673550692124104
 31
0.0
  0
LINE
  5
173
  8
0
 10
4.648404545882311
 20
9.673550692124104
 30
0.0
 11
4.634404545882311
 21
9.656550692124105
 31
0.0
  0
LINE
  5
174
  8
0
 10
4.634404545882311
 20
9.656550692124105
 30
0.0
 11
4.624404545882311
 21
9.650550692124105
 31
0.0
  0
LINE
  5
175
  8
0
 10
4.624404545882311
 20
9.650550692124105
 30
0.0
 11
4.618404545882311
 21
9.656550692124105
 31
0.0
  0
LINE
  5
176
  8
0
 10
4.618404545882311
 20
9.656550692124105
 30
0.0
 11
4.616404545882311
 21
9.672550692124105
 31
0.0
  0
LINE
  5
177
  8
0
 10
4.616404545882311
 20
9.672550692124105
 30
0.0
 11
4.618404545882311
 21
9.699550692124106
 31
0.0
  0
LINE
  5
178
  8
0
 10
4.618404545882311
 20
9.699550692124106
 30
0.0
 11
4.623404545882312
 21
9.737550692124104
 31
0.0
  0
LINE
  5
179
  8
0
 10
4.623404545882312
 20
9.737550692124104
 30
0.0
 11
4.624404545882311
 21
9.751550692124106
 31
0.0
  0
LINE
  5
17A
  8
0
 10
4.624404545882311
 20
9.751550692124106
 30
0.0
 11
4.617404545882311
 21
9.757550692124106
 31
0.0
  0
LINE
  5
17B
  8
0
 10
4.617404545882311
 20
9.757550692124106
 30
0.0
 11
4.600404545882311
 21
9.776550692124106
 31
0.0
  0
LINE
  5
17C
  8
0
 10
4.600404545882311
 20
9.776550692124106
 30
0.0
 11
4.597404545882311
 21
9.813550692124105
 31
0.0
  0
LINE
  5
17D
  8
0
 10
4.597404545882311
 20
9.813550692124105
 30
0.0
 11
4.556404545882311
 21
9.826550692124105
 31
0.0
  0
LINE
  5
17E
  8
0
 10
4.556404545882311
 20
9.826550692124105
 30
0.0
 11
4.533404545882311
 21
9.833550692124104
 31
0.0
  0
LINE
  5
17F
  8
0
 10
4.533404545882311
 20
9.833550692124104
 30
0.0
 11
4.526404545882311
 21
9.831550692124106
 31
0.0
  0
LINE
  5
180
  8
0
 10
4.526404545882311
 20
9.831550692124106
 30
0.0
 11
4.515404545882311
 21
9.816550692124105
 31
0.0
  0
LINE
  5
181
  8
0
 10
4.515404545882311
 20
9.816550692124105
 30
0.0
 11
4.489404545882311
 21
9.771550692124105
 31
0.0
  0
LINE
  5
182
  8
0
 10
4.489404545882311
 20
9.771550692124105
 30
0.0
 11
4.467404545882311
 21
9.736550692124105
 31
0.0
  0
LINE
  5
183
  8
0
 10
4.467404545882311
 20
9.736550692124105
 30
0.0
 11
4.448404545882311
 21
9.713550692124105
 31
0.0
  0
LINE
  5
184
  8
0
 10
4.448404545882311
 20
9.713550692124105
 30
0.0
 11
4.432404545882311
 21
9.701550692124105
 31
0.0
  0
LINE
  5
185
  8
0
 10
4.432404545882311
 20
9.701550692124105
 30
0.0
 11
4.421404545882311
 21
9.701550692124105
 31
0.0
  0
LINE
  5
186
  8
0
 10
4.421404545882311
 20
9.701550692124105
 30
0.0
 11
4.413404545882311
 21
9.712550692124106
 31
0.0
  0
LINE
  5
187
  8
0
 10
4.413404545882311
 20
9.712550692124106
 30
0.0
 11
4.408404545882311
 21
9.735550692124106
 31
0.0
  0
LINE
  5
188
  8
0
 10
4.408404545882311
 20
9.735550692124106
 30
0.0
 11
4.406404545882311
 21
9.768550692124105
 31
0.0
  0
LINE
  5
189
  8
0
 10
4.406404545882311
 20
9.768550692124105
 30
0.0
 11
4.442404545882312
 21
9.810550692124105
 31
0.0
  0
LINE
  5
18A
  8
0
 10
4.442404545882312
 20
9.810550692124105
 30
0.0
 11
4.446404545882311
 21
9.847550692124106
 31
0.0
  0
LINE
  5
18B
  8
0
 10
4.446404545882311
 20
9.847550692124106
 30
0.0
 11
4.419404545882311
 21
9.880550692124105
 31
0.0
  0
LINE
  5
18C
  8
0
 10
4.419404545882311
 20
9.880550692124105
 30
0.0
 11
4.359404545882311
 21
9.908550692124106
 31
0.0
  0
LINE
  5
18D
  8
0
 10
4.359404545882311
 20
9.908550692124106
 30
0.0
 11
4.298404545882311
 21
9.931550692124105
 31
0.0
  0
LINE
  5
18E
  8
0
 10
4.298404545882311
 20
9.931550692124105
 30
0.0
 11
4.245404545882312
 21
9.952550692124104
 31
0.0
  0
LINE
  5
18F
  8
0
 10
4.245404545882312
 20
9.952550692124104
 30
0.0
 11
4.170404545882311
 21
9.988550692124106
 31
0.0
  0
LINE
  5
190
  8
0
 10
4.170404545882311
 20
9.988550692124106
 30
0.0
 11
4.158404545882311
 21
9.989550692124105
 31
0.0
  0
LINE
  5
191
  8
0
 10
4.158404545882311
 20
9.989550692124105
 30
0.0
 11
4.136404545882312
 21
9.979550692124105
 31
0.0
  0
LINE
  5
192
  8
0
 10
4.136404545882312
 20
9.979550692124105
 30
0.0
 11
4.106404545882311
 21
9.960550692124105
 31
0.0
  0
LINE
  5
193
  8
0
 10
4.106404545882311
 20
9.960550692124105
 30
0.0
 11
4.067404545882311
 21
9.931550692124105
 31
0.0
  0
LINE
  5
194
  8
0
 10
4.067404545882311
 20
9.931550692124105
 30
0.0
 11
4.065404545882311
 21
9.944550692124105
 31
0.0
  0
LINE
  5
195
  8
0
 10
4.065404545882311
 20
9.944550692124105
 30
0.0
 11
4.05040454588231
 21
9.977550692124105
 31
0.0
  0
LINE
  5
196
  8
0
 10
4.05040454588231
 20
9.977550692124105
 30
0.0
 11
4.027404545882311
 21
9.993550692124105
 31
0.0
  0
LINE
  5
197
  8
0
 10
4.027404545882311
 20
9.993550692124105
 30
0.0
 11
4.000404545882311
 21
9.992550692124105
 31
0.0
  0
LINE
  5
198
  8
0
 10
4.000404545882311
 20
9.992550692124105
 30
0.0
 11
3.965404545882311
 21
9.974550692124105
 31
0.0
  0
LINE
  5
199
  8
0
 10
3.965404545882311
 20
9.974550692124105
 30
0.0
 11
3.965404545882311
 21
9.960550692124105
 31
0.0
  0
LINE
  5
19A
  8
0
 10
3.965404545882311
 20
9.960550692124105
 30
0.0
 11
3.965404545882311
 21
9.945550692124105
 31
0.0
  0
LINE
  5
19B
  8
0
 10
3.965404545882311
 20
9.945550692124105
 30
0.0
 11
3.953404545882311
 21
9.949550692124106
 31
0.0
  0
LINE
  5
19C
  8
0
 10
3.953404545882311
 20
9.949550692124106
 30
0.0
 11
3.929404545882311
 21
9.988550692124106
 31
0.0
  0
LINE
  5
19D
  8
0
 10
3.929404545882311
 20
9.988550692124106
 30
0.0
 11
3.933404545882311
 21
10.0225506921241
 31
0.0
  0
LINE
  5
19E
  8
0
 10
3.933404545882311
 20
10.0225506921241
 30
0.0
 11
3.965404545882311
 21
10.05255069212411
 31
0.0
  0
LINE
  5
19F
  8
0
 10
3.965404545882311
 20
10.05255069212411
 30
0.0
 11
4.023404545882311
 21
10.07855069212411
 31
0.0
  0
LINE
  5
1A0
  8
0
 10
4.023404545882311
 20
10.07855069212411
 30
0.0
 11
4.055404545882311
 21
10.0955506921241
 31
0.0
  0
LINE
  5
1A1
  8
0
 10
4.055404545882311
 20
10.0955506921241
 30
0.0
 11
4.070404545882311
 21
10.11955069212411
 31
0.0
  0
LINE
  5
1A2
  8
0
 10
4.070404545882311
 20
10.11955069212411
 30
0.0
 11
4.06940454588231
 21
10.15155069212411
 31
0.0
  0
LINE
  5
1A3
  8
0
 10
4.06940454588231
 20
10.15155069212411
 30
0.0
 11
4.051404545882311
 21
10.1895506921241
 31
0.0
  0
LINE
  5
1A4
  8
0
 10
4.051404545882311
 20
10.1895506921241
 30
0.0
 11
4.019404545882311
 21
10.2345506921241
 31
0.0
  0
LINE
  5
1A5
  8
0
 10
4.019404545882311
 20
10.2345506921241
 30
0.0
 11
3.989404545882311
 21
10.26055069212411
 31
0.0
  0
LINE
  5
1A6
  8
0
 10
3.989404545882311
 20
10.26055069212411
 30
0.0
 11
3.938404545882311
 21
10.28655069212411
 31
0.0
  0
LINE
  5
1A7
  8
0
 10
3.938404545882311
 20
10.28655069212411
 30
0.0
 11
3.896404545882311
 21
10.29355069212411
 31
0.0
  0
LINE
  5
1A8
  8
0
 10
3.896404545882311
 20
10.29355069212411
 30
0.0
 11
3.864404545882311
 21
10.2825506921241
 31
0.0
  0
LINE
  5
1A9
  8
0
 10
3.864404545882311
 20
10.2825506921241
 30
0.0
 11
3.840404545882311
 21
10.25155069212411
 31
0.0
  0
LINE
  5
1AA
  8
0
 10
3.840404545882311
 20
10.25155069212411
 30
0.0
 11
3.829404545882311
 21
10.2375506921241
 31
0.0
  0
LINE
  5
1AB
  8
0
 10
3.829404545882311
 20
10.2375506921241
 30
0.0
 11
3.821404545882311
 21
10.2495506921241
 31
0.0
  0
LINE
  5
1AC
  8
0
 10
3.821404545882311
 20
10.2495506921241
 30
0.0
 11
3.817404545882311
 21
10.28955069212411
 31
0.0
  0
LINE
  5
1AD
  8
0
 10
3.817404545882311
 20
10.28955069212411
 30
0.0
 11
3.817404545882311
 21
10.35755069212411
 31
0.0
  0
LINE
  5
1AE
  8
0
 10
3.817404545882311
 20
10.35755069212411
 30
0.0
 11
3.883404545882311
 21
10.33555069212411
 31
0.0
  0
LINE
  5
1AF
  8
0
 10
3.883404545882311
 20
10.33555069212411
 30
0.0
 11
3.938404545882311
 21
10.3275506921241
 31
0.0
  0
LINE
  5
1B0
  8
0
 10
3.938404545882311
 20
10.3275506921241
 30
0.0
 11
3.983404545882311
 21
10.33555069212411
 31
0.0
  0
LINE
  5
1B1
  8
0
 10
3.983404545882311
 20
10.33555069212411
 30
0.0
 11
4.016404545882311
 21
10.35755069212411
 31
0.0
  0
LINE
  5
1B2
  8
0
 10
4.016404545882311
 20
10.35755069212411
 30
0.0
 11
3.995404545882311
 21
10.36355069212411
 31
0.0
  0
LINE
  5
1B3
  8
0
 10
3.995404545882311
 20
10.36355069212411
 30
0.0
 11
3.953404545882311
 21
10.3815506921241
 31
0.0
  0
LINE
  5
1B4
  8
0
 10
3.953404545882311
 20
10.3815506921241
 30
0.0
 11
3.917404545882311
 21
10.40455069212411
 31
0.0
  0
LINE
  5
1B5
  8
0
 10
3.917404545882311
 20
10.40455069212411
 30
0.0
 11
3.868404545882311
 21
10.46955069212411
 31
0.0
  0
LINE
  5
1B6
  8
0
 10
3.868404545882311
 20
10.46955069212411
 30
0.0
 11
3.872404545882311
 21
10.4845506921241
 31
0.0
  0
LINE
  5
1B7
  8
0
 10
3.872404545882311
 20
10.4845506921241
 30
0.0
 11
3.902404545882311
 21
10.47955069212411
 31
0.0
  0
LINE
  5
1B8
  8
0
 10
3.902404545882311
 20
10.47955069212411
 30
0.0
 11
4.008404545882311
 21
10.44655069212411
 31
0.0
  0
LINE
  5
1B9
  8
0
 10
4.008404545882311
 20
10.44655069212411
 30
0.0
 11
4.032404545882311
 21
10.4545506921241
 31
0.0
  0
LINE
  5
1BA
  8
0
 10
4.032404545882311
 20
10.4545506921241
 30
0.0
 11
4.044404545882311
 21
10.46255069212411
 31
0.0
  0
LINE
  5
1BB
  8
0
 10
4.044404545882311
 20
10.46255069212411
 30
0.0
 11
4.04540454588231
 21
10.4715506921241
 31
0.0
  0
LINE
  5
1BC
  8
0
 10
4.04540454588231
 20
10.4715506921241
 30
0.0
 11
4.03440454588231
 21
10.47955069212411
 31
0.0
  0
LINE
  5
1BD
  8
0
 10
4.03440454588231
 20
10.47955069212411
 30
0.0
 11
4.012404545882311
 21
10.4965506921241
 31
0.0
  0
LINE
  5
1BE
  8
0
 10
4.012404545882311
 20
10.4965506921241
 30
0.0
 11
4.004404545882311
 21
10.51155069212411
 31
0.0
  0
LINE
  5
1BF
  8
0
 10
4.004404545882311
 20
10.51155069212411
 30
0.0
 11
4.014404545882311
 21
10.52455069212411
 31
0.0
  0
LINE
  5
1C0
  8
0
 10
4.014404545882311
 20
10.52455069212411
 30
0.0
 11
4.038404545882311
 21
10.5345506921241
 31
0.0
  0
LINE
  5
1C1
  8
0
 10
4.038404545882311
 20
10.5345506921241
 30
0.0
 11
4.085404545882311
 21
10.5125506921241
 31
0.0
  0
LINE
  5
1C2
  8
0
 10
4.085404545882311
 20
10.5125506921241
 30
0.0
 11
4.122404545882311
 21
10.5025506921241
 31
0.0
  0
LINE
  5
1C3
  8
0
 10
4.122404545882311
 20
10.5025506921241
 30
0.0
 11
4.150404545882311
 21
10.5065506921241
 31
0.0
  0
LINE
  5
1C4
  8
0
 10
4.150404545882311
 20
10.5065506921241
 30
0.0
 11
4.168404545882312
 21
10.5225506921241
 31
0.0
  0
LINE
  5
1C5
  8
0
 10
4.168404545882312
 20
10.5225506921241
 30
0.0
 11
4.171404545882311
 21
10.5345506921241
 31
0.0
  0
LINE
  5
1C6
  8
0
 10
4.171404545882311
 20
10.5345506921241
 30
0.0
 11
4.185404545882311
 21
10.5325506921241
 31
0.0
  0
LINE
  5
1C7
  8
0
 10
4.185404545882311
 20
10.5325506921241
 30
0.0
 11
4.218404545882311
 21
10.5285506921241
 31
0.0
  0
LINE
  5
1C8
  8
0
 10
4.218404545882311
 20
10.5285506921241
 30
0.0
 11
4.224404545882312
 21
10.5345506921241
 31
0.0
  0
LINE
  5
1C9
  8
0
 10
4.224404545882312
 20
10.5345506921241
 30
0.0
 11
4.203404545882311
 21
10.5515506921241
 31
0.0
  0
LINE
  5
1CA
  8
0
 10
4.203404545882311
 20
10.5515506921241
 30
0.0
 11
4.156404545882311
 21
10.57855069212411
 31
0.0
  0
LINE
  5
1CB
  8
0
 10
4.156404545882311
 20
10.57855069212411
 30
0.0
 11
4.208404545882312
 21
10.5735506921241
 31
0.0
  0
LINE
  5
1CC
  8
0
 10
4.208404545882312
 20
10.5735506921241
 30
0.0
 11
4.248404545882312
 21
10.55555069212411
 31
0.0
  0
LINE
  5
1CD
  8
0
 10
4.248404545882312
 20
10.55555069212411
 30
0.0
 11
4.259404545882311
 21
10.54955069212411
 31
0.0
  0
LINE
  5
1CE
  8
0
 10
4.259404545882311
 20
10.54955069212411
 30
0.0
 11
4.199404545882311
 21
10.6025506921241
 31
0.0
  0
LINE
  5
1CF
  8
0
 10
4.199404545882311
 20
10.6025506921241
 30
0.0
 11
4.112404545882312
 21
10.6375506921241
 31
0.0
  0
LINE
  5
1D0
  8
0
 10
4.112404545882312
 20
10.6375506921241
 30
0.0
 11
4.112404545882312
 21
10.65255069212411
 31
0.0
  0
LINE
  5
1D1
  8
0
 10
4.112404545882312
 20
10.65255069212411
 30
0.0
 11
4.112404545882312
 21
10.68155069212411
 31
0.0
  0
LINE
  5
1D2
  8
0
 10
4.112404545882312
 20
10.68155069212411
 30
0.0
 11
4.122404545882311
 21
10.6855506921241
 31
0.0
  0
LINE
  5
1D3
  8
0
 10
4.122404545882311
 20
10.6855506921241
 30
0.0
 11
4.136404545882312
 21
10.7115506921241
 31
0.0
  0
LINE
  5
1D4
  8
0
 10
4.136404545882312
 20
10.7115506921241
 30
0.0
 11
4.134404545882311
 21
10.73555069212411
 31
0.0
  0
LINE
  5
1D5
  8
0
 10
4.134404545882311
 20
10.73555069212411
 30
0.0
 11
4.116404545882311
 21
10.76055069212411
 31
0.0
  0
LINE
  5
1D6
  8
0
 10
4.116404545882311
 20
10.76055069212411
 30
0.0
 11
4.08240454588231
 21
10.7845506921241
 31
0.0
  0
LINE
  5
1D7
  8
0
 10
4.08240454588231
 20
10.7845506921241
 30
0.0
 11
4.124404545882311
 21
10.78055069212411
 31
0.0
  0
LINE
  5
1D8
  8
0
 10
4.124404545882311
 20
10.78055069212411
 30
0.0
 11
4.145404545882311
 21
10.7855506921241
 31
0.0
  0
LINE
  5
1D9
  8
0
 10
4.145404545882311
 20
10.7855506921241
 30
0.0
 11
4.148404545882311
 21
10.80255069212411
 31
0.0
  0
LINE
  5
1DA
  8
0
 10
4.148404545882311
 20
10.80255069212411
 30
0.0
 11
4.131404545882312
 21
10.8295506921241
 31
0.0
  0
LINE
  5
1DB
  8
0
 10
4.131404545882312
 20
10.8295506921241
 30
0.0
 11
4.124404545882311
 21
10.8395506921241
 31
0.0
  0
LINE
  5
1DC
  8
0
 10
4.124404545882311
 20
10.8395506921241
 30
0.0
 11
4.125404545882311
 21
10.83855069212411
 31
0.0
  0
LINE
  5
1DD
  8
0
 10
4.125404545882311
 20
10.83855069212411
 30
0.0
 11
4.148404545882311
 21
10.8235506921241
 31
0.0
  0
LINE
  5
1DE
  8
0
 10
4.148404545882311
 20
10.8235506921241
 30
0.0
 11
4.165404545882311
 21
10.81955069212411
 31
0.0
  0
LINE
  5
1DF
  8
0
 10
4.165404545882311
 20
10.81955069212411
 30
0.0
 11
4.178404545882311
 21
10.8275506921241
 31
0.0
  0
LINE
  5
1E0
  8
0
 10
4.178404545882311
 20
10.8275506921241
 30
0.0
 11
4.184404545882312
 21
10.8455506921241
 31
0.0
  0
LINE
  5
1E1
  8
0
 10
4.184404545882312
 20
10.8455506921241
 30
0.0
 11
4.194404545882311
 21
10.85755069212411
 31
0.0
  0
LINE
  5
1E2
  8
0
 10
4.194404545882311
 20
10.85755069212411
 30
0.0
 11
4.217404545882311
 21
10.8625506921241
 31
0.0
  0
LINE
  5
1E3
  8
0
 10
4.217404545882311
 20
10.8625506921241
 30
0.0
 11
4.254404545882311
 21
10.8615506921241
 31
0.0
  0
LINE
  5
1E4
  8
0
 10
4.254404545882311
 20
10.8615506921241
 30
0.0
 11
4.305404545882311
 21
10.8525506921241
 31
0.0
  0
LINE
  5
1E5
  8
0
 10
4.305404545882311
 20
10.8525506921241
 30
0.0
 11
4.279404545882311
 21
10.8615506921241
 31
0.0
  0
LINE
  5
1E6
  8
0
 10
4.279404545882311
 20
10.8615506921241
 30
0.0
 11
4.200404545882312
 21
10.90255069212411
 31
0.0
  0
LINE
  5
1E7
  8
0
 10
4.200404545882312
 20
10.90255069212411
 30
0.0
 11
4.198404545882311
 21
10.9355506921241
 31
0.0
  0
LINE
  5
1E8
  8
0
 10
4.198404545882311
 20
10.9355506921241
 30
0.0
 11
4.207404545882311
 21
10.95655069212411
 31
0.0
  0
LINE
  5
1E9
  8
0
 10
4.207404545882311
 20
10.95655069212411
 30
0.0
 11
4.228404545882311
 21
10.9675506921241
 31
0.0
  0
LINE
  5
1EA
  8
0
 10
4.228404545882311
 20
10.9675506921241
 30
0.0
 11
4.260404545882311
 21
10.96555069212411
 31
0.0
  0
LINE
  5
1EB
  8
0
 10
4.260404545882311
 20
10.96555069212411
 30
0.0
 11
4.277404545882312
 21
10.96555069212411
 31
0.0
  0
LINE
  5
1EC
  8
0
 10
4.277404545882312
 20
10.96555069212411
 30
0.0
 11
4.285404545882312
 21
10.9715506921241
 31
0.0
  0
LINE
  5
1ED
  8
0
 10
4.285404545882312
 20
10.9715506921241
 30
0.0
 11
4.284404545882311
 21
10.98555069212411
 31
0.0
  0
LINE
  5
1EE
  8
0
 10
4.284404545882311
 20
10.98555069212411
 30
0.0
 11
4.274404545882311
 21
11.00555069212411
 31
0.0
  0
LINE
  5
1EF
  8
0
 10
4.274404545882311
 20
11.00555069212411
 30
0.0
 11
4.239404545882311
 21
11.0795506921241
 31
0.0
  0
LINE
  5
1F0
  8
0
 10
4.239404545882311
 20
11.0795506921241
 30
0.0
 11
4.215404545882311
 21
11.13855069212411
 31
0.0
  0
LINE
  5
1F1
  8
0
 10
4.215404545882311
 20
11.13855069212411
 30
0.0
 11
4.197404545882311
 21
11.19655069212411
 31
0.0
  0
LINE
  5
1F2
  8
0
 10
4.197404545882311
 20
11.19655069212411
 30
0.0
 11
4.191404545882311
 21
11.2275506921241
 31
0.0
  0
LINE
  5
1F3
  8
0
 10
4.191404545882311
 20
11.2275506921241
 30
0.0
 11
4.197404545882311
 21
11.23255069212411
 31
0.0
  0
LINE
  5
1F4
  8
0
 10
4.197404545882311
 20
11.23255069212411
 30
0.0
 11
4.215404545882311
 21
11.2115506921241
 31
0.0
  0
LINE
  5
1F5
  8
0
 10
4.215404545882311
 20
11.2115506921241
 30
0.0
 11
4.309404545882312
 21
11.2465506921241
 31
0.0
  0
LINE
  5
1F6
  8
0
 10
4.309404545882312
 20
11.2465506921241
 30
0.0
 11
4.404404545882311
 21
11.31655069212411
 31
0.0
  0
LINE
  5
1F7
  8
0
 10
4.404404545882311
 20
11.31655069212411
 30
0.0
 11
4.451404545882311
 21
11.35055069212411
 31
0.0
  0
LINE
  5
1F8
  8
0
 10
4.451404545882311
 20
11.35055069212411
 30
0.0
 11
4.501404545882311
 21
11.3685506921241
 31
0.0
  0
LINE
  5
1F9
  8
0
 10
4.501404545882311
 20
11.3685506921241
 30
0.0
 11
4.555404545882311
 21
11.3715506921241
 31
0.0
  0
LINE
  5
1FA
  8
0
 10
4.555404545882311
 20
11.3715506921241
 30
0.0
 11
4.612404545882312
 21
11.3585506921241
 31
0.0
  0
LINE
  5
1FB
  8
0
 10
4.612404545882312
 20
11.3585506921241
 30
0.0
 11
4.718404545882311
 21
11.5155506921241
 31
0.0
  0
LINE
  5
1FC
  8
0
 10
4.718404545882311
 20
11.5155506921241
 30
0.0
 11
4.837404545882311
 21
11.6565506921241
 31
0.0
  0
LINE
  5
1FD
  8
0
 10
4.837404545882311
 20
11.6565506921241
 30
0.0
 11
4.970404545882311
 21
11.78355069212411
 31
0.0
  0
LINE
  5
1FE
  8
0
 10
4.970404545882311
 20
11.78355069212411
 30
0.0
 11
5.117404545882311
 21
11.8945506921241
 31
0.0
  0
LINE
  5
1FF
  8
0
 10
5.117404545882311
 20
11.8945506921241
 30
0.0
 11
5.076404545882311
 21
11.83755069212411
 31
0.0
  0
LINE
  5
200
  8
0
 10
5.076404545882311
 20
11.83755069212411
 30
0.0
 11
5.088404545882312
 21
11.7945506921241
 31
0.0
  0
LINE
  5
201
  8
0
 10
5.088404545882312
 20
11.7945506921241
 30
0.0
 11
5.078404545882311
 21
11.7695506921241
 31
0.0
  0
LINE
  5
202
  8
0
 10
5.078404545882311
 20
11.7695506921241
 30
0.0
 11
5.047404545882311
 21
11.7625506921241
 31
0.0
  0
LINE
  5
203
  8
0
 10
5.047404545882311
 20
11.7625506921241
 30
0.0
 11
4.995404545882312
 21
11.77155069212411
 31
0.0
  0
LINE
  5
204
  8
0
 10
4.995404545882312
 20
11.77155069212411
 30
0.0
 11
5.109404545882311
 21
11.6635506921241
 31
0.0
  0
LINE
  5
205
  8
0
 10
5.109404545882311
 20
11.6635506921241
 30
0.0
 11
5.113404545882311
 21
11.6535506921241
 31
0.0
  0
LINE
  5
206
  8
0
 10
5.113404545882311
 20
11.6535506921241
 30
0.0
 11
5.098404545882311
 21
11.6535506921241
 31
0.0
  0
LINE
  5
207
  8
0
 10
5.098404545882311
 20
11.6535506921241
 30
0.0
 11
5.120404545882312
 21
11.5965506921241
 31
0.0
  0
LINE
  5
208
  8
0
 10
5.120404545882312
 20
11.5965506921241
 30
0.0
 11
5.142404545882311
 21
11.55955069212411
 31
0.0
  0
LINE
  5
209
  8
0
 10
5.142404545882311
 20
11.55955069212411
 30
0.0
 11
5.164404545882311
 21
11.54555069212411
 31
0.0
  0
LINE
  5
20A
  8
0
 10
5.164404545882311
 20
11.54555069212411
 30
0.0
 11
5.186404545882311
 21
11.55255069212411
 31
0.0
  0
LINE
  5
20B
  8
0
 10
5.186404545882311
 20
11.55255069212411
 30
0.0
 11
5.193404545882311
 21
11.56555069212411
 31
0.0
  0
LINE
  5
20C
  8
0
 10
5.193404545882311
 20
11.56555069212411
 30
0.0
 11
5.186404545882311
 21
11.5795506921241
 31
0.0
  0
LINE
  5
20D
  8
0
 10
5.186404545882311
 20
11.5795506921241
 30
0.0
 11
5.237404545882312
 21
11.6215506921241
 31
0.0
  0
LINE
  5
20E
  8
0
 10
5.237404545882312
 20
11.6215506921241
 30
0.0
 11
5.263404545882311
 21
11.6795506921241
 31
0.0
  0
LINE
  5
20F
  8
0
 10
5.263404545882311
 20
11.6795506921241
 30
0.0
 11
5.265404545882311
 21
11.75455069212411
 31
0.0
  0
LINE
  5
210
  8
0
 10
5.265404545882311
 20
11.75455069212411
 30
0.0
 11
5.243404545882311
 21
11.84455069212411
 31
0.0
  0
LINE
  5
211
  8
0
 10
5.243404545882311
 20
11.84455069212411
 30
0.0
 11
5.228404545882311
 21
11.8845506921241
 31
0.0
  0
LINE
  5
212
  8
0
 10
5.228404545882311
 20
11.8845506921241
 30
0.0
 11
5.209404545882311
 21
11.9105506921241
 31
0.0
  0
LINE
  5
213
  8
0
 10
5.209404545882311
 20
11.9105506921241
 30
0.0
 11
5.190404545882311
 21
11.92455069212411
 31
0.0
  0
LINE
  5
214
  8
0
 10
5.190404545882311
 20
11.92455069212411
 30
0.0
 11
5.168404545882312
 21
11.9265506921241
 31
0.0
  0
LINE
  5
215
  8
0
 10
5.168404545882312
 20
11.9265506921241
 30
0.0
 11
5.288404545882312
 21
11.9965506921241
 31
0.0
  0
LINE
  5
216
  8
0
 10
5.288404545882312
 20
11.9965506921241
 30
0.0
 11
5.412404545882311
 21
12.04955069212411
 31
0.0
  0
LINE
  5
217
  8
0
 10
5.412404545882311
 20
12.04955069212411
 30
0.0
 11
5.543404545882312
 21
12.07855069212411
 31
0.0
  0
LINE
  5
218
  8
0
 10
5.543404545882312
 20
12.07855069212411
 30
0.0
 11
5.683404545882311
 21
12.08755069212411
 31
0.0
  0
LINE
  5
219
  8
0
 10
5.683404545882311
 20
12.08755069212411
 30
0.0
 11
5.831404545882311
 21
12.0735506921241
 31
0.0
  0
LINE
  5
21A
  8
0
 10
5.831404545882311
 20
12.0735506921241
 30
0.0
 11
5.954404545882311
 21
12.05055069212411
 31
0.0
  0
LINE
  5
21B
  8
0
 10
5.954404545882311
 20
12.05055069212411
 30
0.0
 11
6.068404545882311
 21
12.0165506921241
 31
0.0
  0
LINE
  5
21C
  8
0
 10
6.068404545882311
 20
12.0165506921241
 30
0.0
 11
6.173404545882311
 21
11.97355069212411
 31
0.0
  0
LINE
  5
21D
  8
0
 10
6.173404545882311
 20
11.97355069212411
 30
0.0
 11
6.268404545882311
 21
11.91855069212411
 31
0.0
  0
LINE
  5
21E
  8
0
 10
6.268404545882311
 20
11.91855069212411
 30
0.0
 11
6.355404545882311
 21
11.8555506921241
 31
0.0
  0
LINE
  5
21F
  8
0
 10
6.355404545882311
 20
11.8555506921241
 30
0.0
 11
6.433404545882311
 21
11.7825506921241
 31
0.0
  0
LINE
  5
220
  8
0
 10
6.433404545882311
 20
11.7825506921241
 30
0.0
 11
6.502404545882311
 21
11.69955069212411
 31
0.0
  0
LINE
  5
221
  8
0
 10
6.502404545882311
 20
11.69955069212411
 30
0.0
 11
6.561404545882311
 21
11.60655069212411
 31
0.0
  0
LINE
  5
222
  8
0
 10
6.561404545882311
 20
11.60655069212411
 30
0.0
 11
6.609404545882311
 21
11.50755069212411
 31
0.0
  0
LINE
  5
223
  8
0
 10
6.609404545882311
 20
11.50755069212411
 30
0.0
 11
6.643404545882311
 21
11.3935506921241
 31
0.0
  0
LINE
  5
224
  8
0
 10
6.643404545882311
 20
11.3935506921241
 30
0.0
 11
6.665404545882311
 21
11.2665506921241
 31
0.0
  0
LINE
  5
225
  8
0
 10
6.665404545882311
 20
11.2665506921241
 30
0.0
 11
6.673404545882311
 21
11.12355069212411
 31
0.0
  0
LINE
  5
226
  8
0
 10
6.673404545882311
 20
11.12355069212411
 30
0.0
 11
6.667404545882311
 21
10.9865506921241
 31
0.0
  0
LINE
  5
227
  8
0
 10
6.667404545882311
 20
10.9865506921241
 30
0.0
 11
6.646404545882311
 21
10.8685506921241
 31
0.0
  0
LINE
  5
228
  8
0
 10
6.646404545882311
 20
10.8685506921241
 30
0.0
 11
6.632404545882311
 21
10.81255069212411
 31
0.0
  0
LINE
  5
229
  8
0
 10
6.632404545882311
 20
10.81255069212411
 30
0.0
 11
6.626404545882311
 21
10.7815506921241
 31
0.0
  0
LINE
  5
22A
  8
0
 10
6.626404545882311
 20
10.7815506921241
 30
0.0
 11
6.631404545882312
 21
10.7625506921241
 31
0.0
  0
LINE
  5
22B
  8
0
 10
6.631404545882312
 20
10.7625506921241
 30
0.0
 11
6.653404545882311
 21
10.76755069212411
 31
0.0
  0
LINE
  5
22C
  8
0
 10
6.653404545882311
 20
10.76755069212411
 30
0.0
 11
6.670404545882311
 21
10.76755069212411
 31
0.0
  0
LINE
  5
22D
  8
0
 10
6.670404545882311
 20
10.76755069212411
 30
0.0
 11
6.673404545882311
 21
10.7405506921241
 31
0.0
  0
LINE
  5
22E
  8
0
 10
6.673404545882311
 20
10.7405506921241
 30
0.0
 11
6.618404545882311
 21
10.7465506921241
 31
0.0
  0
LINE
  5
22F
  8
0
 10
6.618404545882311
 20
10.7465506921241
 30
0.0
 11
6.597404545882311
 21
10.7435506921241
 31
0.0
  0
LINE
  5
230
  8
0
 10
6.597404545882311
 20
10.7435506921241
 30
0.0
 11
6.609404545882311
 21
10.7335506921241
 31
0.0
  0
LINE
  5
231
  8
0
 10
6.609404545882311
 20
10.7335506921241
 30
0.0
 11
6.654404545882311
 21
10.71355069212411
 31
0.0
  0
LINE
  5
232
  8
0
 10
6.654404545882311
 20
10.71355069212411
 30
0.0
 11
6.681404545882311
 21
10.7025506921241
 31
0.0
  0
LINE
  5
233
  8
0
 10
6.681404545882311
 20
10.7025506921241
 30
0.0
 11
6.690404545882311
 21
10.6925506921241
 31
0.0
  0
LINE
  5
234
  8
0
 10
6.690404545882311
 20
10.6925506921241
 30
0.0
 11
6.681404545882311
 21
10.68355069212411
 31
0.0
  0
LINE
  5
235
  8
0
 10
6.681404545882311
 20
10.68355069212411
 30
0.0
 11
6.654404545882311
 21
10.67555069212411
 31
0.0
  0
LINE
  5
236
  8
0
 10
6.690404545882311
 20
10.49855069212411
 30
0.0
 11
6.579404545882311
 21
10.4705506921241
 31
0.0
  0
LINE
  5
237
  8
0
 10
6.579404545882311
 20
10.4705506921241
 30
0.0
 11
6.482404545882312
 21
10.46055069212411
 31
0.0
  0
LINE
  5
238
  8
0
 10
6.482404545882312
 20
10.46055069212411
 30
0.0
 11
6.546404545882312
 21
10.49755069212411
 31
0.0
  0
LINE
  5
239
  8
0
 10
6.546404545882312
 20
10.49755069212411
 30
0.0
 11
6.605404545882311
 21
10.51755069212411
 31
0.0
  0
LINE
  5
23A
  8
0
 10
6.605404545882311
 20
10.51755069212411
 30
0.0
 11
6.660404545882312
 21
10.52055069212411
 31
0.0
  0
LINE
  5
23B
  8
0
 10
6.660404545882312
 20
10.52055069212411
 30
0.0
 11
6.710404545882311
 21
10.50555069212411
 31
0.0
  0
LINE
  5
23C
  8
0
 10
6.710404545882311
 20
10.50555069212411
 30
0.0
 11
6.690404545882311
 21
10.49855069212411
 31
0.0
  0
LINE
  5
23D
  8
0
 10
4.896404545882311
 20
11.57555069212411
 30
0.0
 11
4.892404545882311
 21
11.60355069212411
 31
0.0
  0
LINE
  5
23E
  8
0
 10
4.892404545882311
 20
11.60355069212411
 30
0.0
 11
4.892404545882311
 21
11.63855069212411
 31
0.0
  0
LINE
  5
23F
  8
0
 10
4.892404545882311
 20
11.63855069212411
 30
0.0
 11
4.939404545882311
 21
11.60455069212411
 31
0.0
  0
LINE
  5
240
  8
0
 10
4.939404545882311
 20
11.60455069212411
 30
0.0
 11
4.963404545882312
 21
11.5765506921241
 31
0.0
  0
LINE
  5
241
  8
0
 10
4.963404545882312
 20
11.5765506921241
 30
0.0
 11
4.965404545882311
 21
11.55655069212411
 31
0.0
  0
LINE
  5
242
  8
0
 10
4.965404545882311
 20
11.55655069212411
 30
0.0
 11
4.944404545882311
 21
11.54255069212411
 31
0.0
  0
LINE
  5
243
  8
0
 10
4.944404545882311
 20
11.54255069212411
 30
0.0
 11
4.915404545882311
 21
11.54655069212411
 31
0.0
  0
LINE
  5
244
  8
0
 10
4.915404545882311
 20
11.54655069212411
 30
0.0
 11
4.896404545882311
 21
11.57555069212411
 31
0.0
  0
LINE
  5
245
  8
0
 10
5.481404545882311
 20
12.03655069212411
 30
0.0
 11
5.455404545882311
 21
12.03955069212411
 31
0.0
  0
LINE
  5
246
  8
0
 10
5.455404545882311
 20
12.03955069212411
 30
0.0
 11
5.449404545882311
 21
12.04555069212411
 31
0.0
  0
LINE
  5
247
  8
0
 10
5.449404545882311
 20
12.04555069212411
 30
0.0
 11
5.463404545882312
 21
12.0545506921241
 31
0.0
  0
LINE
  5
248
  8
0
 10
5.463404545882312
 20
12.0545506921241
 30
0.0
 11
5.496404545882311
 21
12.06555069212411
 31
0.0
  0
LINE
  5
249
  8
0
 10
5.496404545882311
 20
12.06555069212411
 30
0.0
 11
5.591404545882312
 21
12.07455069212411
 31
0.0
  0
LINE
  5
24A
  8
0
 10
5.591404545882312
 20
12.07455069212411
 30
0.0
 11
5.679404545882312
 21
12.0705506921241
 31
0.0
  0
LINE
  5
24B
  8
0
 10
5.679404545882312
 20
12.0705506921241
 30
0.0
 11
5.762404545882311
 21
12.0545506921241
 31
0.0
  0
LINE
  5
24C
  8
0
 10
5.762404545882311
 20
12.0545506921241
 30
0.0
 11
5.838404545882312
 21
12.02655069212411
 31
0.0
  0
LINE
  5
24D
  8
0
 10
5.838404545882312
 20
12.02655069212411
 30
0.0
 11
5.847404545882311
 21
12.0165506921241
 31
0.0
  0
LINE
  5
24E
  8
0
 10
5.847404545882311
 20
12.0165506921241
 30
0.0
 11
5.849404545882312
 21
11.99255069212411
 31
0.0
  0
LINE
  5
24F
  8
0
 10
5.849404545882312
 20
11.99255069212411
 30
0.0
 11
5.849404545882312
 21
11.94755069212411
 31
0.0
  0
LINE
  5
250
  8
0
 10
5.849404545882312
 20
11.94755069212411
 30
0.0
 11
5.859404545882311
 21
11.98955069212411
 31
0.0
  0
LINE
  5
251
  8
0
 10
5.859404545882311
 20
11.98955069212411
 30
0.0
 11
5.878404545882312
 21
12.01355069212411
 31
0.0
  0
LINE
  5
252
  8
0
 10
5.878404545882312
 20
12.01355069212411
 30
0.0
 11
5.907404545882311
 21
12.02355069212411
 31
0.0
  0
LINE
  5
253
  8
0
 10
5.907404545882311
 20
12.02355069212411
 30
0.0
 11
5.945404545882311
 21
12.0165506921241
 31
0.0
  0
LINE
  5
254
  8
0
 10
5.945404545882311
 20
12.0165506921241
 30
0.0
 11
5.951404545882311
 21
12.0095506921241
 31
0.0
  0
LINE
  5
255
  8
0
 10
5.951404545882311
 20
12.0095506921241
 30
0.0
 11
5.951404545882311
 21
11.99255069212411
 31
0.0
  0
LINE
  5
256
  8
0
 10
5.951404545882311
 20
11.99255069212411
 30
0.0
 11
5.954404545882311
 21
11.97555069212411
 31
0.0
  0
LINE
  5
257
  8
0
 10
5.954404545882311
 20
11.97555069212411
 30
0.0
 11
5.963404545882312
 21
11.97555069212411
 31
0.0
  0
LINE
  5
258
  8
0
 10
5.963404545882312
 20
11.97555069212411
 30
0.0
 11
5.980404545882311
 21
11.9935506921241
 31
0.0
  0
LINE
  5
259
  8
0
 10
5.980404545882311
 20
11.9935506921241
 30
0.0
 11
6.003404545882312
 21
12.0285506921241
 31
0.0
  0
LINE
  5
25A
  8
0
 10
6.003404545882312
 20
12.0285506921241
 30
0.0
 11
6.011404545882312
 21
12.02155069212411
 31
0.0
  0
LINE
  5
25B
  8
0
 10
6.011404545882312
 20
12.02155069212411
 30
0.0
 11
6.081404545882311
 21
11.9935506921241
 31
0.0
  0
LINE
  5
25C
  8
0
 10
6.081404545882311
 20
11.9935506921241
 30
0.0
 11
6.134404545882311
 21
11.96055069212411
 31
0.0
  0
LINE
  5
25D
  8
0
 10
6.134404545882311
 20
11.96055069212411
 30
0.0
 11
6.172404545882311
 21
11.9225506921241
 31
0.0
  0
LINE
  5
25E
  8
0
 10
6.172404545882311
 20
11.9225506921241
 30
0.0
 11
6.194404545882311
 21
11.88055069212411
 31
0.0
  0
LINE
  5
25F
  8
0
 10
6.194404545882311
 20
11.88055069212411
 30
0.0
 11
6.193404545882311
 21
11.85355069212411
 31
0.0
  0
LINE
  5
260
  8
0
 10
6.193404545882311
 20
11.85355069212411
 30
0.0
 11
6.165404545882311
 21
11.8305506921241
 31
0.0
  0
LINE
  5
261
  8
0
 10
6.165404545882311
 20
11.8305506921241
 30
0.0
 11
6.145404545882311
 21
11.8205506921241
 31
0.0
  0
LINE
  5
262
  8
0
 10
6.145404545882311
 20
11.8205506921241
 30
0.0
 11
6.137404545882311
 21
11.81155069212411
 31
0.0
  0
LINE
  5
263
  8
0
 10
6.137404545882311
 20
11.81155069212411
 30
0.0
 11
6.142404545882311
 21
11.80555069212411
 31
0.0
  0
LINE
  5
264
  8
0
 10
6.142404545882311
 20
11.80555069212411
 30
0.0
 11
6.158404545882311
 21
11.80055069212411
 31
0.0
  0
LINE
  5
265
  8
0
 10
6.158404545882311
 20
11.80055069212411
 30
0.0
 11
6.194404545882311
 21
11.8295506921241
 31
0.0
  0
LINE
  5
266
  8
0
 10
6.194404545882311
 20
11.8295506921241
 30
0.0
 11
6.228404545882311
 21
11.84755069212411
 31
0.0
  0
LINE
  5
267
  8
0
 10
6.228404545882311
 20
11.84755069212411
 30
0.0
 11
6.261404545882312
 21
11.8555506921241
 31
0.0
  0
LINE
  5
268
  8
0
 10
6.261404545882312
 20
11.8555506921241
 30
0.0
 11
6.292404545882311
 21
11.8525506921241
 31
0.0
  0
LINE
  5
269
  8
0
 10
6.292404545882311
 20
11.8525506921241
 30
0.0
 11
6.323404545882311
 21
11.84055069212411
 31
0.0
  0
LINE
  5
26A
  8
0
 10
6.323404545882311
 20
11.84055069212411
 30
0.0
 11
6.351404545882311
 21
11.8175506921241
 31
0.0
  0
LINE
  5
26B
  8
0
 10
6.351404545882311
 20
11.8175506921241
 30
0.0
 11
6.379404545882311
 21
11.7845506921241
 31
0.0
  0
LINE
  5
26C
  8
0
 10
6.379404545882311
 20
11.7845506921241
 30
0.0
 11
6.405404545882312
 21
11.7405506921241
 31
0.0
  0
LINE
  5
26D
  8
0
 10
6.405404545882312
 20
11.7405506921241
 30
0.0
 11
6.408404545882311
 21
11.72655069212411
 31
0.0
  0
LINE
  5
26E
  8
0
 10
6.408404545882311
 20
11.72655069212411
 30
0.0
 11
6.442404545882312
 21
11.71355069212411
 31
0.0
  0
LINE
  5
26F
  8
0
 10
6.442404545882312
 20
11.71355069212411
 30
0.0
 11
6.463404545882312
 21
11.69655069212411
 31
0.0
  0
LINE
  5
270
  8
0
 10
6.463404545882312
 20
11.69655069212411
 30
0.0
 11
6.473404545882311
 21
11.6765506921241
 31
0.0
  0
LINE
  5
271
  8
0
 10
6.473404545882311
 20
11.6765506921241
 30
0.0
 11
6.469404545882311
 21
11.65255069212411
 31
0.0
  0
LINE
  5
272
  8
0
 10
6.469404545882311
 20
11.65255069212411
 30
0.0
 11
6.467404545882311
 21
11.63855069212411
 31
0.0
  0
LINE
  5
273
  8
0
 10
6.467404545882311
 20
11.63855069212411
 30
0.0
 11
6.536404545882311
 21
11.57555069212411
 31
0.0
  0
LINE
  5
274
  8
0
 10
6.536404545882311
 20
11.57555069212411
 30
0.0
 11
6.583404545882312
 21
11.4965506921241
 31
0.0
  0
LINE
  5
275
  8
0
 10
6.583404545882312
 20
11.4965506921241
 30
0.0
 11
6.590404545882311
 21
11.4775506921241
 31
0.0
  0
LINE
  5
276
  8
0
 10
6.590404545882311
 20
11.4775506921241
 30
0.0
 11
6.588404545882312
 21
11.4645506921241
 31
0.0
  0
LINE
  5
277
  8
0
 10
6.588404545882312
 20
11.4645506921241
 30
0.0
 11
6.578404545882312
 21
11.4585506921241
 31
0.0
  0
LINE
  5
278
  8
0
 10
6.578404545882312
 20
11.4585506921241
 30
0.0
 11
6.560404545882311
 21
11.4585506921241
 31
0.0
  0
LINE
  5
279
  8
0
 10
6.560404545882311
 20
11.4585506921241
 30
0.0
 11
6.496404545882311
 21
11.46255069212411
 31
0.0
  0
LINE
  5
27A
  8
0
 10
6.496404545882311
 20
11.46255069212411
 30
0.0
 11
6.476404545882311
 21
11.46555069212411
 31
0.0
  0
LINE
  5
27B
  8
0
 10
6.476404545882311
 20
11.46555069212411
 30
0.0
 11
6.465404545882311
 21
11.4715506921241
 31
0.0
  0
LINE
  5
27C
  8
0
 10
6.465404545882311
 20
11.4715506921241
 30
0.0
 11
6.463404545882312
 21
11.4805506921241
 31
0.0
  0
LINE
  5
27D
  8
0
 10
6.463404545882312
 20
11.4805506921241
 30
0.0
 11
6.470404545882311
 21
11.49255069212411
 31
0.0
  0
LINE
  5
27E
  8
0
 10
6.470404545882311
 20
11.49255069212411
 30
0.0
 11
6.478404545882311
 21
11.50455069212411
 31
0.0
  0
LINE
  5
27F
  8
0
 10
6.478404545882311
 20
11.50455069212411
 30
0.0
 11
6.479404545882312
 21
11.5095506921241
 31
0.0
  0
LINE
  5
280
  8
0
 10
6.479404545882312
 20
11.5095506921241
 30
0.0
 11
6.446404545882311
 21
11.54255069212411
 31
0.0
  0
LINE
  5
281
  8
0
 10
6.446404545882311
 20
11.54255069212411
 30
0.0
 11
6.379404545882311
 21
11.5795506921241
 31
0.0
  0
LINE
  5
282
  8
0
 10
6.379404545882311
 20
11.5795506921241
 30
0.0
 11
6.396404545882311
 21
11.60155069212411
 31
0.0
  0
LINE
  5
283
  8
0
 10
6.396404545882311
 20
11.60155069212411
 30
0.0
 11
6.421404545882312
 21
11.6155506921241
 31
0.0
  0
LINE
  5
284
  8
0
 10
6.421404545882312
 20
11.6155506921241
 30
0.0
 11
6.423404545882311
 21
11.6245506921241
 31
0.0
  0
LINE
  5
285
  8
0
 10
6.423404545882311
 20
11.6245506921241
 30
0.0
 11
6.410404545882312
 21
11.6215506921241
 31
0.0
  0
LINE
  5
286
  8
0
 10
6.410404545882312
 20
11.6215506921241
 30
0.0
 11
6.359404545882311
 21
11.60455069212411
 31
0.0
  0
LINE
  5
287
  8
0
 10
6.359404545882311
 20
11.60455069212411
 30
0.0
 11
6.320404545882312
 21
11.6095506921241
 31
0.0
  0
LINE
  5
288
  8
0
 10
6.320404545882312
 20
11.6095506921241
 30
0.0
 11
6.246404545882311
 21
11.5835506921241
 31
0.0
  0
LINE
  5
289
  8
0
 10
6.246404545882311
 20
11.5835506921241
 30
0.0
 11
6.175404545882311
 21
11.54355069212411
 31
0.0
  0
LINE
  5
28A
  8
0
 10
6.175404545882311
 20
11.54355069212411
 30
0.0
 11
6.109404545882311
 21
11.49155069212411
 31
0.0
  0
LINE
  5
28B
  8
0
 10
6.109404545882311
 20
11.49155069212411
 30
0.0
 11
6.046404545882312
 21
11.42555069212411
 31
0.0
  0
LINE
  5
28C
  8
0
 10
6.046404545882312
 20
11.42555069212411
 30
0.0
 11
6.036404545882311
 21
11.41155069212411
 31
0.0
  0
LINE
  5
28D
  8
0
 10
6.036404545882311
 20
11.41155069212411
 30
0.0
 11
5.975404545882311
 21
11.32855069212411
 31
0.0
  0
LINE
  5
28E
  8
0
 10
5.975404545882311
 20
11.32855069212411
 30
0.0
 11
6.075404545882312
 21
11.3905506921241
 31
0.0
  0
LINE
  5
28F
  8
0
 10
6.075404545882312
 20
11.3905506921241
 30
0.0
 11
6.187404545882312
 21
11.43355069212411
 31
0.0
  0
LINE
  5
290
  8
0
 10
6.187404545882312
 20
11.43355069212411
 30
0.0
 11
6.311404545882311
 21
11.45755069212411
 31
0.0
  0
LINE
  5
291
  8
0
 10
6.311404545882311
 20
11.45755069212411
 30
0.0
 11
6.445404545882312
 21
11.46255069212411
 31
0.0
  0
LINE
  5
292
  8
0
 10
6.445404545882312
 20
11.46255069212411
 30
0.0
 11
6.438404545882311
 21
11.44755069212411
 31
0.0
  0
LINE
  5
293
  8
0
 10
6.438404545882311
 20
11.44755069212411
 30
0.0
 11
6.444404545882311
 21
11.41455069212411
 31
0.0
  0
LINE
  5
294
  8
0
 10
6.444404545882311
 20
11.41455069212411
 30
0.0
 11
6.439404545882311
 21
11.3945506921241
 31
0.0
  0
LINE
  5
295
  8
0
 10
6.439404545882311
 20
11.3945506921241
 30
0.0
 11
6.423404545882311
 21
11.38855069212411
 31
0.0
  0
LINE
  5
296
  8
0
 10
6.423404545882311
 20
11.38855069212411
 30
0.0
 11
6.396404545882311
 21
11.3945506921241
 31
0.0
  0
LINE
  5
297
  8
0
 10
6.396404545882311
 20
11.3945506921241
 30
0.0
 11
6.369404545882311
 21
11.40455069212411
 31
0.0
  0
LINE
  5
298
  8
0
 10
6.369404545882311
 20
11.40455069212411
 30
0.0
 11
6.321404545882311
 21
11.41155069212411
 31
0.0
  0
LINE
  5
299
  8
0
 10
6.321404545882311
 20
11.41155069212411
 30
0.0
 11
6.261404545882312
 21
11.4035506921241
 31
0.0
  0
LINE
  5
29A
  8
0
 10
6.261404545882312
 20
11.4035506921241
 30
0.0
 11
6.276404545882311
 21
11.3875506921241
 31
0.0
  0
LINE
  5
29B
  8
0
 10
6.276404545882311
 20
11.3875506921241
 30
0.0
 11
6.275404545882311
 21
11.37055069212411
 31
0.0
  0
LINE
  5
29C
  8
0
 10
6.275404545882311
 20
11.37055069212411
 30
0.0
 11
6.260404545882311
 21
11.35455069212411
 31
0.0
  0
LINE
  5
29D
  8
0
 10
6.260404545882311
 20
11.35455069212411
 30
0.0
 11
6.229404545882312
 21
11.33755069212411
 31
0.0
  0
LINE
  5
29E
  8
0
 10
6.229404545882312
 20
11.33755069212411
 30
0.0
 11
6.048404545882311
 21
11.27655069212411
 31
0.0
  0
LINE
  5
29F
  8
0
 10
6.048404545882311
 20
11.27655069212411
 30
0.0
 11
5.878404545882312
 21
11.24155069212411
 31
0.0
  0
LINE
  5
2A0
  8
0
 10
5.878404545882312
 20
11.24155069212411
 30
0.0
 11
5.910404545882312
 21
11.27455069212411
 31
0.0
  0
LINE
  5
2A1
  8
0
 10
5.910404545882312
 20
11.27455069212411
 30
0.0
 11
5.828404545882311
 21
11.22955069212411
 31
0.0
  0
LINE
  5
2A2
  8
0
 10
5.828404545882311
 20
11.22955069212411
 30
0.0
 11
5.731404545882311
 21
11.19755069212411
 31
0.0
  0
LINE
  5
2A3
  8
0
 10
5.731404545882311
 20
11.19755069212411
 30
0.0
 11
5.784404545882311
 21
11.2525506921241
 31
0.0
  0
LINE
  5
2A4
  8
0
 10
5.784404545882311
 20
11.2525506921241
 30
0.0
 11
5.819404545882311
 21
11.3175506921241
 31
0.0
  0
LINE
  5
2A5
  8
0
 10
5.819404545882311
 20
11.3175506921241
 30
0.0
 11
5.837404545882311
 21
11.39255069212411
 31
0.0
  0
LINE
  5
2A6
  8
0
 10
5.837404545882311
 20
11.39255069212411
 30
0.0
 11
5.837404545882311
 21
11.47655069212411
 31
0.0
  0
LINE
  5
2A7
  8
0
 10
5.837404545882311
 20
11.47655069212411
 30
0.0
 11
5.834404545882311
 21
11.4995506921241
 31
0.0
  0
LINE
  5
2A8
  8
0
 10
5.834404545882311
 20
11.4995506921241
 30
0.0
 11
5.821404545882311
 21
11.48155069212411
 31
0.0
  0
LINE
  5
2A9
  8
0
 10
5.821404545882311
 20
11.48155069212411
 30
0.0
 11
5.811404545882311
 21
11.4805506921241
 31
0.0
  0
LINE
  5
2AA
  8
0
 10
5.811404545882311
 20
11.4805506921241
 30
0.0
 11
5.806404545882311
 21
11.4995506921241
 31
0.0
  0
LINE
  5
2AB
  8
0
 10
5.806404545882311
 20
11.4995506921241
 30
0.0
 11
5.805404545882311
 21
11.5355506921241
 31
0.0
  0
LINE
  5
2AC
  8
0
 10
5.805404545882311
 20
11.5355506921241
 30
0.0
 11
5.763404545882311
 21
11.51355069212411
 31
0.0
  0
LINE
  5
2AD
  8
0
 10
5.763404545882311
 20
11.51355069212411
 30
0.0
 11
5.741404545882311
 21
11.48155069212411
 31
0.0
  0
LINE
  5
2AE
  8
0
 10
5.741404545882311
 20
11.48155069212411
 30
0.0
 11
5.739404545882311
 21
11.4425506921241
 31
0.0
  0
LINE
  5
2AF
  8
0
 10
5.739404545882311
 20
11.4425506921241
 30
0.0
 11
5.757404545882311
 21
11.3945506921241
 31
0.0
  0
LINE
  5
2B0
  8
0
 10
5.757404545882311
 20
11.3945506921241
 30
0.0
 11
5.760404545882311
 21
11.38855069212411
 31
0.0
  0
LINE
  5
2B1
  8
0
 10
5.760404545882311
 20
11.38855069212411
 30
0.0
 11
5.725404545882311
 21
11.30355069212411
 31
0.0
  0
LINE
  5
2B2
  8
0
 10
5.725404545882311
 20
11.30355069212411
 30
0.0
 11
5.702404545882311
 21
11.19755069212411
 31
0.0
  0
LINE
  5
2B3
  8
0
 10
5.702404545882311
 20
11.19755069212411
 30
0.0
 11
5.637404545882311
 21
11.2115506921241
 31
0.0
  0
LINE
  5
2B4
  8
0
 10
5.637404545882311
 20
11.2115506921241
 30
0.0
 11
5.580404545882311
 21
11.2335506921241
 31
0.0
  0
LINE
  5
2B5
  8
0
 10
5.580404545882311
 20
11.2335506921241
 30
0.0
 11
5.567404545882312
 21
11.24455069212411
 31
0.0
  0
LINE
  5
2B6
  8
0
 10
5.567404545882312
 20
11.24455069212411
 30
0.0
 11
5.568404545882311
 21
11.2535506921241
 31
0.0
  0
LINE
  5
2B7
  8
0
 10
5.568404545882311
 20
11.2535506921241
 30
0.0
 11
5.616404545882311
 21
11.3015506921241
 31
0.0
  0
LINE
  5
2B8
  8
0
 10
5.616404545882311
 20
11.3015506921241
 30
0.0
 11
5.626404545882311
 21
11.3395506921241
 31
0.0
  0
LINE
  5
2B9
  8
0
 10
5.626404545882311
 20
11.3395506921241
 30
0.0
 11
5.602404545882311
 21
11.36955069212411
 31
0.0
  0
LINE
  5
2BA
  8
0
 10
5.602404545882311
 20
11.36955069212411
 30
0.0
 11
5.576404545882311
 21
11.38055069212411
 31
0.0
  0
LINE
  5
2BB
  8
0
 10
5.576404545882311
 20
11.38055069212411
 30
0.0
 11
5.540404545882311
 21
11.38855069212411
 31
0.0
  0
LINE
  5
2BC
  8
0
 10
5.540404545882311
 20
11.38855069212411
 30
0.0
 11
5.490404545882312
 21
11.3555506921241
 31
0.0
  0
LINE
  5
2BD
  8
0
 10
5.490404545882312
 20
11.3555506921241
 30
0.0
 11
5.458404545882312
 21
11.33855069212411
 31
0.0
  0
LINE
  5
2BE
  8
0
 10
5.458404545882312
 20
11.33855069212411
 30
0.0
 11
5.446404545882311
 21
11.3395506921241
 31
0.0
  0
LINE
  5
2BF
  8
0
 10
5.446404545882311
 20
11.3395506921241
 30
0.0
 11
5.453404545882311
 21
11.3585506921241
 31
0.0
  0
LINE
  5
2C0
  8
0
 10
5.453404545882311
 20
11.3585506921241
 30
0.0
 11
5.480404545882311
 21
11.41455069212411
 31
0.0
  0
LINE
  5
2C1
  8
0
 10
5.480404545882311
 20
11.41455069212411
 30
0.0
 11
5.478404545882311
 21
11.45055069212411
 31
0.0
  0
LINE
  5
2C2
  8
0
 10
5.478404545882311
 20
11.45055069212411
 30
0.0
 11
5.449404545882311
 21
11.46655069212411
 31
0.0
  0
LINE
  5
2C3
  8
0
 10
5.449404545882311
 20
11.46655069212411
 30
0.0
 11
5.392404545882311
 21
11.46255069212411
 31
0.0
  0
LINE
  5
2C4
  8
0
 10
5.392404545882311
 20
11.46255069212411
 30
0.0
 11
5.390404545882311
 21
11.5325506921241
 31
0.0
  0
LINE
  5
2C5
  8
0
 10
5.390404545882311
 20
11.5325506921241
 30
0.0
 11
5.403404545882311
 21
11.6245506921241
 31
0.0
  0
LINE
  5
2C6
  8
0
 10
5.403404545882311
 20
11.6245506921241
 30
0.0
 11
5.419404545882311
 21
11.67855069212411
 31
0.0
  0
LINE
  5
2C7
  8
0
 10
5.419404545882311
 20
11.67855069212411
 30
0.0
 11
5.441404545882311
 21
11.71955069212411
 31
0.0
  0
LINE
  5
2C8
  8
0
 10
5.441404545882311
 20
11.71955069212411
 30
0.0
 11
5.471404545882312
 21
11.7495506921241
 31
0.0
  0
LINE
  5
2C9
  8
0
 10
5.471404545882312
 20
11.7495506921241
 30
0.0
 11
5.506404545882312
 21
11.76755069212411
 31
0.0
  0
LINE
  5
2CA
  8
0
 10
5.506404545882312
 20
11.76755069212411
 30
0.0
 11
5.518404545882311
 21
11.77155069212411
 31
0.0
  0
LINE
  5
2CB
  8
0
 10
5.518404545882311
 20
11.77155069212411
 30
0.0
 11
5.435404545882311
 21
11.81155069212411
 31
0.0
  0
LINE
  5
2CC
  8
0
 10
5.435404545882311
 20
11.81155069212411
 30
0.0
 11
5.378404545882312
 21
11.8745506921241
 31
0.0
  0
LINE
  5
2CD
  8
0
 10
5.378404545882312
 20
11.8745506921241
 30
0.0
 11
5.424404545882311
 21
11.8715506921241
 31
0.0
  0
LINE
  5
2CE
  8
0
 10
5.424404545882311
 20
11.8715506921241
 30
0.0
 11
5.461404545882311
 21
11.87355069212411
 31
0.0
  0
LINE
  5
2CF
  8
0
 10
5.461404545882311
 20
11.87355069212411
 30
0.0
 11
5.491404545882311
 21
11.88355069212411
 31
0.0
  0
LINE
  5
2D0
  8
0
 10
5.491404545882311
 20
11.88355069212411
 30
0.0
 11
5.511404545882312
 21
11.89855069212411
 31
0.0
  0
LINE
  5
2D1
  8
0
 10
5.511404545882312
 20
11.89855069212411
 30
0.0
 11
5.525404545882311
 21
11.92155069212411
 31
0.0
  0
LINE
  5
2D2
  8
0
 10
5.525404545882311
 20
11.92155069212411
 30
0.0
 11
5.529404545882311
 21
11.95055069212411
 31
0.0
  0
LINE
  5
2D3
  8
0
 10
5.529404545882311
 20
11.95055069212411
 30
0.0
 11
5.525404545882311
 21
11.9865506921241
 31
0.0
  0
LINE
  5
2D4
  8
0
 10
5.525404545882311
 20
11.9865506921241
 30
0.0
 11
5.513404545882311
 21
12.02755069212411
 31
0.0
  0
LINE
  5
2D5
  8
0
 10
5.513404545882311
 20
12.02755069212411
 30
0.0
 11
5.504404545882311
 21
12.0345506921241
 31
0.0
  0
LINE
  5
2D6
  8
0
 10
5.504404545882311
 20
12.0345506921241
 30
0.0
 11
5.481404545882311
 21
12.03655069212411
 31
0.0
  0
LINE
  5
2D7
  8
0
 10
6.245404545882312
 20
11.49755069212411
 30
0.0
 11
6.232404545882312
 21
11.4905506921241
 31
0.0
  0
LINE
  5
2D8
  8
0
 10
6.232404545882312
 20
11.4905506921241
 30
0.0
 11
6.222404545882311
 21
11.49155069212411
 31
0.0
  0
LINE
  5
2D9
  8
0
 10
6.222404545882311
 20
11.49155069212411
 30
0.0
 11
6.217404545882311
 21
11.52055069212411
 31
0.0
  0
LINE
  5
2DA
  8
0
 10
6.217404545882311
 20
11.52055069212411
 30
0.0
 11
6.264404545882312
 21
11.53655069212411
 31
0.0
  0
LINE
  5
2DB
  8
0
 10
6.264404545882312
 20
11.53655069212411
 30
0.0
 11
6.284404545882311
 21
11.53755069212411
 31
0.0
  0
LINE
  5
2DC
  8
0
 10
6.284404545882311
 20
11.53755069212411
 30
0.0
 11
6.278404545882311
 21
11.52455069212411
 31
0.0
  0
LINE
  5
2DD
  8
0
 10
6.278404545882311
 20
11.52455069212411
 30
0.0
 11
6.245404545882312
 21
11.49755069212411
 31
0.0
  0
LINE
  5
2DE
  8
0
 10
6.616404545882311
 20
11.2945506921241
 30
0.0
 11
6.628404545882312
 21
11.2815506921241
 31
0.0
  0
LINE
  5
2DF
  8
0
 10
6.628404545882312
 20
11.2815506921241
 30
0.0
 11
6.637404545882311
 21
11.25755069212411
 31
0.0
  0
LINE
  5
2E0
  8
0
 10
6.637404545882311
 20
11.25755069212411
 30
0.0
 11
6.639404545882312
 21
11.22955069212411
 31
0.0
  0
LINE
  5
2E1
  8
0
 10
6.639404545882312
 20
11.22955069212411
 30
0.0
 11
6.626404545882311
 21
11.2145506921241
 31
0.0
  0
LINE
  5
2E2
  8
0
 10
6.626404545882311
 20
11.2145506921241
 30
0.0
 11
6.598404545882311
 21
11.21355069212411
 31
0.0
  0
LINE
  5
2E3
  8
0
 10
6.598404545882311
 20
11.21355069212411
 30
0.0
 11
6.555404545882311
 21
11.22655069212411
 31
0.0
  0
LINE
  5
2E4
  8
0
 10
6.555404545882311
 20
11.22655069212411
 30
0.0
 11
6.468404545882311
 21
11.2695506921241
 31
0.0
  0
LINE
  5
2E5
  8
0
 10
6.468404545882311
 20
11.2695506921241
 30
0.0
 11
6.380404545882311
 21
11.29255069212411
 31
0.0
  0
LINE
  5
2E6
  8
0
 10
6.380404545882311
 20
11.29255069212411
 30
0.0
 11
6.379404545882311
 21
11.29955069212411
 31
0.0
  0
LINE
  5
2E7
  8
0
 10
6.379404545882311
 20
11.29955069212411
 30
0.0
 11
6.390404545882311
 21
11.30355069212411
 31
0.0
  0
LINE
  5
2E8
  8
0
 10
6.390404545882311
 20
11.30355069212411
 30
0.0
 11
6.336404545882311
 21
11.31155069212411
 31
0.0
  0
LINE
  5
2E9
  8
0
 10
6.336404545882311
 20
11.31155069212411
 30
0.0
 11
6.291404545882311
 21
11.3295506921241
 31
0.0
  0
LINE
  5
2EA
  8
0
 10
6.291404545882311
 20
11.3295506921241
 30
0.0
 11
6.382404545882311
 21
11.3585506921241
 31
0.0
  0
LINE
  5
2EB
  8
0
 10
6.382404545882311
 20
11.3585506921241
 30
0.0
 11
6.463404545882312
 21
11.3785506921241
 31
0.0
  0
LINE
  5
2EC
  8
0
 10
6.463404545882312
 20
11.3785506921241
 30
0.0
 11
6.536404545882311
 21
11.3915506921241
 31
0.0
  0
LINE
  5
2ED
  8
0
 10
6.536404545882311
 20
11.3915506921241
 30
0.0
 11
6.600404545882311
 21
11.39555069212411
 31
0.0
  0
LINE
  5
2EE
  8
0
 10
6.600404545882311
 20
11.39555069212411
 30
0.0
 11
6.600404545882311
 21
11.38855069212411
 31
0.0
  0
LINE
  5
2EF
  8
0
 10
6.600404545882311
 20
11.38855069212411
 30
0.0
 11
6.592404545882311
 21
11.36955069212411
 31
0.0
  0
LINE
  5
2F0
  8
0
 10
6.592404545882311
 20
11.36955069212411
 30
0.0
 11
6.573404545882311
 21
11.35155069212411
 31
0.0
  0
LINE
  5
2F1
  8
0
 10
6.573404545882311
 20
11.35155069212411
 30
0.0
 11
6.509404545882311
 21
11.32155069212411
 31
0.0
  0
LINE
  5
2F2
  8
0
 10
6.509404545882311
 20
11.32155069212411
 30
0.0
 11
6.568404545882311
 21
11.31555069212411
 31
0.0
  0
LINE
  5
2F3
  8
0
 10
6.568404545882311
 20
11.31555069212411
 30
0.0
 11
6.616404545882311
 21
11.2945506921241
 31
0.0
  0
LINE
  5
2F4
  8
0
 10
6.445404545882312
 20
11.1275506921241
 30
0.0
 11
6.458404545882312
 21
11.1155506921241
 31
0.0
  0
LINE
  5
2F5
  8
0
 10
6.458404545882312
 20
11.1155506921241
 30
0.0
 11
6.458404545882312
 21
11.10355069212411
 31
0.0
  0
LINE
  5
2F6
  8
0
 10
6.458404545882312
 20
11.10355069212411
 30
0.0
 11
6.447404545882311
 21
11.09155069212411
 31
0.0
  0
LINE
  5
2F7
  8
0
 10
6.447404545882311
 20
11.09155069212411
 30
0.0
 11
6.423404545882311
 21
11.0795506921241
 31
0.0
  0
LINE
  5
2F8
  8
0
 10
6.423404545882311
 20
11.0795506921241
 30
0.0
 11
6.380404545882311
 21
11.02655069212411
 31
0.0
  0
LINE
  5
2F9
  8
0
 10
6.380404545882311
 20
11.02655069212411
 30
0.0
 11
6.358404545882311
 21
10.99255069212411
 31
0.0
  0
LINE
  5
2FA
  8
0
 10
6.358404545882311
 20
10.99255069212411
 30
0.0
 11
6.360404545882311
 21
10.9865506921241
 31
0.0
  0
LINE
  5
2FB
  8
0
 10
6.360404545882311
 20
10.9865506921241
 30
0.0
 11
6.368404545882311
 21
10.9705506921241
 31
0.0
  0
LINE
  5
2FC
  8
0
 10
6.368404545882311
 20
10.9705506921241
 30
0.0
 11
6.388404545882311
 21
10.91255069212411
 31
0.0
  0
LINE
  5
2FD
  8
0
 10
6.388404545882311
 20
10.91255069212411
 30
0.0
 11
6.382404545882311
 21
10.85355069212411
 31
0.0
  0
LINE
  5
2FE
  8
0
 10
6.382404545882311
 20
10.85355069212411
 30
0.0
 11
6.387404545882311
 21
10.8495506921241
 31
0.0
  0
LINE
  5
2FF
  8
0
 10
6.387404545882311
 20
10.8495506921241
 30
0.0
 11
6.404404545882311
 21
10.85455069212411
 31
0.0
  0
LINE
  5
300
  8
0
 10
6.404404545882311
 20
10.85455069212411
 30
0.0
 11
6.426404545882312
 21
10.86955069212411
 31
0.0
  0
LINE
  5
301
  8
0
 10
6.426404545882312
 20
10.86955069212411
 30
0.0
 11
6.467404545882311
 21
10.90255069212411
 31
0.0
  0
LINE
  5
302
  8
0
 10
6.467404545882311
 20
10.90255069212411
 30
0.0
 11
6.469404545882311
 21
10.88855069212411
 31
0.0
  0
LINE
  5
303
  8
0
 10
6.469404545882311
 20
10.88855069212411
 30
0.0
 11
6.469404545882311
 21
10.85755069212411
 31
0.0
  0
LINE
  5
304
  8
0
 10
6.469404545882311
 20
10.85755069212411
 30
0.0
 11
6.453404545882312
 21
10.8435506921241
 31
0.0
  0
LINE
  5
305
  8
0
 10
6.453404545882312
 20
10.8435506921241
 30
0.0
 11
6.452404545882311
 21
10.78355069212411
 31
0.0
  0
LINE
  5
306
  8
0
 10
6.452404545882311
 20
10.78355069212411
 30
0.0
 11
6.463404545882312
 21
10.74755069212411
 31
0.0
  0
LINE
  5
307
  8
0
 10
6.463404545882312
 20
10.74755069212411
 30
0.0
 11
6.488404545882311
 21
10.7365506921241
 31
0.0
  0
LINE
  5
308
  8
0
 10
6.488404545882311
 20
10.7365506921241
 30
0.0
 11
6.527404545882312
 21
10.7495506921241
 31
0.0
  0
LINE
  5
309
  8
0
 10
6.527404545882312
 20
10.7495506921241
 30
0.0
 11
6.557404545882311
 21
10.77755069212411
 31
0.0
  0
LINE
  5
30A
  8
0
 10
6.557404545882311
 20
10.77755069212411
 30
0.0
 11
6.573404545882311
 21
10.81655069212411
 31
0.0
  0
LINE
  5
30B
  8
0
 10
6.573404545882311
 20
10.81655069212411
 30
0.0
 11
6.592404545882311
 21
10.9075506921241
 31
0.0
  0
LINE
  5
30C
  8
0
 10
6.592404545882311
 20
10.9075506921241
 30
0.0
 11
6.617404545882311
 21
10.94655069212411
 31
0.0
  0
LINE
  5
30D
  8
0
 10
6.617404545882311
 20
10.94655069212411
 30
0.0
 11
6.627404545882311
 21
10.9875506921241
 31
0.0
  0
LINE
  5
30E
  8
0
 10
6.627404545882311
 20
10.9875506921241
 30
0.0
 11
6.624404545882311
 21
11.0325506921241
 31
0.0
  0
LINE
  5
30F
  8
0
 10
6.624404545882311
 20
11.0325506921241
 30
0.0
 11
6.607404545882312
 21
11.0795506921241
 31
0.0
  0
LINE
  5
310
  8
0
 10
6.607404545882312
 20
11.0795506921241
 30
0.0
 11
6.595404545882311
 21
11.07155069212411
 31
0.0
  0
LINE
  5
311
  8
0
 10
6.595404545882311
 20
11.07155069212411
 30
0.0
 11
6.526404545882311
 21
11.0355506921241
 31
0.0
  0
LINE
  5
312
  8
0
 10
6.526404545882311
 20
11.0355506921241
 30
0.0
 11
6.620404545882312
 21
11.11455069212411
 31
0.0
  0
LINE
  5
313
  8
0
 10
6.620404545882312
 20
11.11455069212411
 30
0.0
 11
6.629404545882311
 21
11.12955069212411
 31
0.0
  0
LINE
  5
314
  8
0
 10
6.629404545882311
 20
11.12955069212411
 30
0.0
 11
6.614404545882311
 21
11.1435506921241
 31
0.0
  0
LINE
  5
315
  8
0
 10
6.614404545882311
 20
11.1435506921241
 30
0.0
 11
6.483404545882311
 21
11.20755069212411
 31
0.0
  0
LINE
  5
316
  8
0
 10
6.483404545882311
 20
11.20755069212411
 30
0.0
 11
6.335404545882311
 21
11.24155069212411
 31
0.0
  0
LINE
  5
317
  8
0
 10
6.335404545882311
 20
11.24155069212411
 30
0.0
 11
6.313404545882311
 21
11.2665506921241
 31
0.0
  0
LINE
  5
318
  8
0
 10
6.313404545882311
 20
11.2665506921241
 30
0.0
 11
6.261404545882312
 21
11.2685506921241
 31
0.0
  0
LINE
  5
319
  8
0
 10
6.261404545882312
 20
11.2685506921241
 30
0.0
 11
6.039404545882311
 21
11.22855069212411
 31
0.0
  0
LINE
  5
31A
  8
0
 10
6.039404545882311
 20
11.22855069212411
 30
0.0
 11
5.805404545882311
 21
11.16755069212411
 31
0.0
  0
LINE
  5
31B
  8
0
 10
5.805404545882311
 20
11.16755069212411
 30
0.0
 11
5.919404545882311
 21
10.98855069212411
 31
0.0
  0
LINE
  5
31C
  8
0
 10
5.919404545882311
 20
10.98855069212411
 30
0.0
 11
5.923404545882311
 21
10.97655069212411
 31
0.0
  0
LINE
  5
31D
  8
0
 10
5.923404545882311
 20
10.97655069212411
 30
0.0
 11
5.908404545882311
 21
10.9745506921241
 31
0.0
  0
LINE
  5
31E
  8
0
 10
5.908404545882311
 20
10.9745506921241
 30
0.0
 11
5.878404545882312
 21
10.9615506921241
 31
0.0
  0
LINE
  5
31F
  8
0
 10
5.878404545882312
 20
10.9615506921241
 30
0.0
 11
5.889404545882312
 21
10.9355506921241
 31
0.0
  0
LINE
  5
320
  8
0
 10
5.889404545882312
 20
10.9355506921241
 30
0.0
 11
5.908404545882311
 21
10.92055069212411
 31
0.0
  0
LINE
  5
321
  8
0
 10
5.908404545882311
 20
10.92055069212411
 30
0.0
 11
5.939404545882311
 21
10.9165506921241
 31
0.0
  0
LINE
  5
322
  8
0
 10
5.939404545882311
 20
10.9165506921241
 30
0.0
 11
5.979404545882312
 21
10.9235506921241
 31
0.0
  0
LINE
  5
323
  8
0
 10
5.979404545882312
 20
10.9235506921241
 30
0.0
 11
5.981404545882311
 21
10.93155069212411
 31
0.0
  0
LINE
  5
324
  8
0
 10
5.981404545882311
 20
10.93155069212411
 30
0.0
 11
6.050404545882311
 21
10.91255069212411
 31
0.0
  0
LINE
  5
325
  8
0
 10
6.050404545882311
 20
10.91255069212411
 30
0.0
 11
6.106404545882311
 21
10.9005506921241
 31
0.0
  0
LINE
  5
326
  8
0
 10
6.106404545882311
 20
10.9005506921241
 30
0.0
 11
6.149404545882311
 21
10.89655069212411
 31
0.0
  0
LINE
  5
327
  8
0
 10
6.149404545882311
 20
10.89655069212411
 30
0.0
 11
6.179404545882312
 21
10.9005506921241
 31
0.0
  0
LINE
  5
328
  8
0
 10
6.179404545882312
 20
10.9005506921241
 30
0.0
 11
6.199404545882311
 21
10.91455069212411
 31
0.0
  0
LINE
  5
329
  8
0
 10
6.199404545882311
 20
10.91455069212411
 30
0.0
 11
6.235404545882311
 21
10.95355069212411
 31
0.0
  0
LINE
  5
32A
  8
0
 10
6.235404545882311
 20
10.95355069212411
 30
0.0
 11
6.245404545882312
 21
11.0065506921241
 31
0.0
  0
LINE
  5
32B
  8
0
 10
6.245404545882312
 20
11.0065506921241
 30
0.0
 11
6.249404545882311
 21
11.0355506921241
 31
0.0
  0
LINE
  5
32C
  8
0
 10
6.249404545882311
 20
11.0355506921241
 30
0.0
 11
6.260404545882311
 21
11.0575506921241
 31
0.0
  0
LINE
  5
32D
  8
0
 10
6.260404545882311
 20
11.0575506921241
 30
0.0
 11
6.280404545882312
 21
11.07455069212411
 31
0.0
  0
LINE
  5
32E
  8
0
 10
6.280404545882312
 20
11.07455069212411
 30
0.0
 11
6.307404545882311
 21
11.08455069212411
 31
0.0
  0
LINE
  5
32F
  8
0
 10
6.307404545882311
 20
11.08455069212411
 30
0.0
 11
6.340404545882311
 21
11.09855069212411
 31
0.0
  0
LINE
  5
330
  8
0
 10
6.340404545882311
 20
11.09855069212411
 30
0.0
 11
6.351404545882311
 21
11.11355069212411
 31
0.0
  0
LINE
  5
331
  8
0
 10
6.351404545882311
 20
11.11355069212411
 30
0.0
 11
6.340404545882311
 21
11.13255069212411
 31
0.0
  0
LINE
  5
332
  8
0
 10
6.340404545882311
 20
11.13255069212411
 30
0.0
 11
6.305404545882311
 21
11.15255069212411
 31
0.0
  0
LINE
  5
333
  8
0
 10
6.305404545882311
 20
11.15255069212411
 30
0.0
 11
6.321404545882311
 21
11.1795506921241
 31
0.0
  0
LINE
  5
334
  8
0
 10
6.321404545882311
 20
11.1795506921241
 30
0.0
 11
6.340404545882311
 21
11.19055069212411
 31
0.0
  0
LINE
  5
335
  8
0
 10
6.340404545882311
 20
11.19055069212411
 30
0.0
 11
6.364404545882311
 21
11.18755069212411
 31
0.0
  0
LINE
  5
336
  8
0
 10
6.364404545882311
 20
11.18755069212411
 30
0.0
 11
6.392404545882311
 21
11.1695506921241
 31
0.0
  0
LINE
  5
337
  8
0
 10
6.392404545882311
 20
11.1695506921241
 30
0.0
 11
6.424404545882311
 21
11.1445506921241
 31
0.0
  0
LINE
  5
338
  8
0
 10
6.424404545882311
 20
11.1445506921241
 30
0.0
 11
6.445404545882312
 21
11.1275506921241
 31
0.0
  0
LINE
  5
339
  8
0
 10
6.031404545882311
 20
10.65555069212411
 30
0.0
 11
6.040404545882311
 21
10.65255069212411
 31
0.0
  0
LINE
  5
33A
  8
0
 10
6.040404545882311
 20
10.65255069212411
 30
0.0
 11
6.040404545882311
 21
10.66755069212411
 31
0.0
  0
LINE
  5
33B
  8
0
 10
6.040404545882311
 20
10.66755069212411
 30
0.0
 11
6.040404545882311
 21
10.69655069212411
 31
0.0
  0
LINE
  5
33C
  8
0
 10
6.040404545882311
 20
10.69655069212411
 30
0.0
 11
6.088404545882312
 21
10.69455069212411
 31
0.0
  0
LINE
  5
33D
  8
0
 10
6.088404545882312
 20
10.69455069212411
 30
0.0
 11
6.113404545882311
 21
10.6855506921241
 31
0.0
  0
LINE
  5
33E
  8
0
 10
6.113404545882311
 20
10.6855506921241
 30
0.0
 11
6.116404545882311
 21
10.67155069212411
 31
0.0
  0
LINE
  5
33F
  8
0
 10
6.116404545882311
 20
10.67155069212411
 30
0.0
 11
6.095404545882311
 21
10.65155069212411
 31
0.0
  0
LINE
  5
340
  8
0
 10
6.095404545882311
 20
10.65155069212411
 30
0.0
 11
6.079404545882311
 21
10.6245506921241
 31
0.0
  0
LINE
  5
341
  8
0
 10
6.079404545882311
 20
10.6245506921241
 30
0.0
 11
6.070404545882312
 21
10.6085506921241
 31
0.0
  0
LINE
  5
342
  8
0
 10
6.070404545882312
 20
10.6085506921241
 30
0.0
 11
6.068404545882311
 21
10.5935506921241
 31
0.0
  0
LINE
  5
343
  8
0
 10
6.068404545882311
 20
10.5935506921241
 30
0.0
 11
6.055404545882311
 21
10.54955069212411
 31
0.0
  0
LINE
  5
344
  8
0
 10
6.055404545882311
 20
10.54955069212411
 30
0.0
 11
6.038404545882312
 21
10.5415506921241
 31
0.0
  0
LINE
  5
345
  8
0
 10
6.038404545882312
 20
10.5415506921241
 30
0.0
 11
6.019404545882312
 21
10.57155069212411
 31
0.0
  0
LINE
  5
346
  8
0
 10
6.019404545882312
 20
10.57155069212411
 30
0.0
 11
5.996404545882311
 21
10.6375506921241
 31
0.0
  0
LINE
  5
347
  8
0
 10
5.996404545882311
 20
10.6375506921241
 30
0.0
 11
6.016404545882311
 21
10.6605506921241
 31
0.0
  0
LINE
  5
348
  8
0
 10
6.016404545882311
 20
10.6605506921241
 30
0.0
 11
6.031404545882311
 21
10.65555069212411
 31
0.0
  0
LINE
  5
349
  8
0
 10
6.379404545882311
 20
10.7845506921241
 30
0.0
 11
6.421404545882312
 21
10.8045506921241
 31
0.0
  0
LINE
  5
34A
  8
0
 10
6.421404545882312
 20
10.8045506921241
 30
0.0
 11
6.435404545882311
 21
10.80555069212411
 31
0.0
  0
LINE
  5
34B
  8
0
 10
6.435404545882311
 20
10.80555069212411
 30
0.0
 11
6.423404545882311
 21
10.79055069212411
 31
0.0
  0
LINE
  5
34C
  8
0
 10
6.423404545882311
 20
10.79055069212411
 30
0.0
 11
6.382404545882311
 21
10.75555069212411
 31
0.0
  0
LINE
  5
34D
  8
0
 10
6.382404545882311
 20
10.75555069212411
 30
0.0
 11
6.375404545882311
 21
10.75855069212411
 31
0.0
  0
LINE
  5
34E
  8
0
 10
6.375404545882311
 20
10.75855069212411
 30
0.0
 11
6.379404545882311
 21
10.7845506921241
 31
0.0
  0
LINE
  5
34F
  8
0
 10
6.294404545882311
 20
10.6855506921241
 30
0.0
 11
6.291404545882311
 21
10.7115506921241
 31
0.0
  0
LINE
  5
350
  8
0
 10
6.291404545882311
 20
10.7115506921241
 30
0.0
 11
6.333404545882312
 21
10.71655069212411
 31
0.0
  0
LINE
  5
351
  8
0
 10
6.333404545882312
 20
10.71655069212411
 30
0.0
 11
6.365404545882312
 21
10.71255069212411
 31
0.0
  0
LINE
  5
352
  8
0
 10
6.365404545882312
 20
10.71255069212411
 30
0.0
 11
6.389404545882312
 21
10.7015506921241
 31
0.0
  0
LINE
  5
353
  8
0
 10
6.389404545882312
 20
10.7015506921241
 30
0.0
 11
6.404404545882311
 21
10.68155069212411
 31
0.0
  0
LINE
  5
354
  8
0
 10
6.404404545882311
 20
10.68155069212411
 30
0.0
 11
6.412404545882311
 21
10.65555069212411
 31
0.0
  0
LINE
  5
355
  8
0
 10
6.412404545882311
 20
10.65555069212411
 30
0.0
 11
6.411404545882311
 21
10.62055069212411
 31
0.0
  0
LINE
  5
356
  8
0
 10
6.411404545882311
 20
10.62055069212411
 30
0.0
 11
6.401404545882311
 21
10.5795506921241
 31
0.0
  0
LINE
  5
357
  8
0
 10
6.401404545882311
 20
10.5795506921241
 30
0.0
 11
6.383404545882311
 21
10.52955069212411
 31
0.0
  0
LINE
  5
358
  8
0
 10
6.383404545882311
 20
10.52955069212411
 30
0.0
 11
6.373404545882312
 21
10.52355069212411
 31
0.0
  0
LINE
  5
359
  8
0
 10
6.373404545882312
 20
10.52355069212411
 30
0.0
 11
6.350404545882311
 21
10.52355069212411
 31
0.0
  0
LINE
  5
35A
  8
0
 10
6.350404545882311
 20
10.52355069212411
 30
0.0
 11
6.309404545882312
 21
10.53955069212411
 31
0.0
  0
LINE
  5
35B
  8
0
 10
6.309404545882312
 20
10.53955069212411
 30
0.0
 11
6.285404545882312
 21
10.57155069212411
 31
0.0
  0
LINE
  5
35C
  8
0
 10
6.285404545882312
 20
10.57155069212411
 30
0.0
 11
6.281404545882311
 21
10.62055069212411
 31
0.0
  0
LINE
  5
35D
  8
0
 10
6.281404545882311
 20
10.62055069212411
 30
0.0
 11
6.294404545882311
 21
10.6855506921241
 31
0.0
  0
LINE
  5
35E
  8
0
 10
6.457404545882311
 20
10.60055069212411
 30
0.0
 11
6.438404545882311
 21
10.58555069212411
 31
0.0
  0
LINE
  5
35F
  8
0
 10
6.438404545882311
 20
10.58555069212411
 30
0.0
 11
6.423404545882311
 21
10.6085506921241
 31
0.0
  0
LINE
  5
360
  8
0
 10
6.423404545882311
 20
10.6085506921241
 30
0.0
 11
6.438404545882311
 21
10.65855069212411
 31
0.0
  0
LINE
  5
361
  8
0
 10
6.438404545882311
 20
10.65855069212411
 30
0.0
 11
6.450404545882312
 21
10.6825506921241
 31
0.0
  0
LINE
  5
362
  8
0
 10
6.450404545882312
 20
10.6825506921241
 30
0.0
 11
6.462404545882311
 21
10.68455069212411
 31
0.0
  0
LINE
  5
363
  8
0
 10
6.462404545882311
 20
10.68455069212411
 30
0.0
 11
6.471404545882312
 21
10.6605506921241
 31
0.0
  0
LINE
  5
364
  8
0
 10
6.471404545882312
 20
10.6605506921241
 30
0.0
 11
6.472404545882311
 21
10.63255069212411
 31
0.0
  0
LINE
  5
365
  8
0
 10
6.472404545882311
 20
10.63255069212411
 30
0.0
 11
6.457404545882311
 21
10.60055069212411
 31
0.0
  0
LINE
  5
366
  8
0
 10
6.600404545882311
 20
10.7115506921241
 30
0.0
 11
6.650404545882311
 21
10.70055069212411
 31
0.0
  0
LINE
  5
367
  8
0
 10
6.650404545882311
 20
10.70055069212411
 30
0.0
 11
6.673404545882311
 21
10.69155069212411
 31
0.0
  0
LINE
  5
368
  8
0
 10
6.673404545882311
 20
10.69155069212411
 30
0.0
 11
6.672404545882311
 21
10.6855506921241
 31
0.0
  0
LINE
  5
369
  8
0
 10
6.672404545882311
 20
10.6855506921241
 30
0.0
 11
6.644404545882312
 21
10.68155069212411
 31
0.0
  0
LINE
  5
36A
  8
0
 10
6.644404545882312
 20
10.68155069212411
 30
0.0
 11
6.600404545882311
 21
10.7115506921241
 31
0.0
  0
LINE
  5
36B
  8
0
 10
5.186404545882311
 20
11.16755069212411
 30
0.0
 11
5.210404545882311
 21
11.19955069212411
 31
0.0
  0
LINE
  5
36C
  8
0
 10
5.210404545882311
 20
11.19955069212411
 30
0.0
 11
5.241404545882311
 21
11.22555069212411
 31
0.0
  0
LINE
  5
36D
  8
0
 10
5.241404545882311
 20
11.22555069212411
 30
0.0
 11
5.281404545882311
 21
11.24755069212411
 31
0.0
  0
LINE
  5
36E
  8
0
 10
5.281404545882311
 20
11.24755069212411
 30
0.0
 11
5.328404545882311
 21
11.2625506921241
 31
0.0
  0
LINE
  5
36F
  8
0
 10
5.328404545882311
 20
11.2625506921241
 30
0.0
 11
5.383404545882311
 21
11.2885506921241
 31
0.0
  0
LINE
  5
370
  8
0
 10
5.383404545882311
 20
11.2885506921241
 30
0.0
 11
5.414404545882311
 21
11.3295506921241
 31
0.0
  0
LINE
  5
371
  8
0
 10
5.414404545882311
 20
11.3295506921241
 30
0.0
 11
5.437404545882311
 21
11.31555069212411
 31
0.0
  0
LINE
  5
372
  8
0
 10
5.437404545882311
 20
11.31555069212411
 30
0.0
 11
5.449404545882311
 21
11.3045506921241
 31
0.0
  0
LINE
  5
373
  8
0
 10
5.449404545882311
 20
11.3045506921241
 30
0.0
 11
5.447404545882311
 21
11.2915506921241
 31
0.0
  0
LINE
  5
374
  8
0
 10
5.447404545882311
 20
11.2915506921241
 30
0.0
 11
5.432404545882311
 21
11.27755069212411
 31
0.0
  0
LINE
  5
375
  8
0
 10
5.432404545882311
 20
11.27755069212411
 30
0.0
 11
5.404404545882311
 21
11.26155069212411
 31
0.0
  0
LINE
  5
376
  8
0
 10
5.404404545882311
 20
11.26155069212411
 30
0.0
 11
5.390404545882311
 21
11.24455069212411
 31
0.0
  0
LINE
  5
377
  8
0
 10
5.390404545882311
 20
11.24455069212411
 30
0.0
 11
5.392404545882311
 21
11.2115506921241
 31
0.0
  0
LINE
  5
378
  8
0
 10
5.392404545882311
 20
11.2115506921241
 30
0.0
 11
5.424404545882311
 21
11.17055069212411
 31
0.0
  0
LINE
  5
379
  8
0
 10
5.424404545882311
 20
11.17055069212411
 30
0.0
 11
5.440404545882311
 21
11.13655069212411
 31
0.0
  0
LINE
  5
37A
  8
0
 10
5.440404545882311
 20
11.13655069212411
 30
0.0
 11
5.442404545882312
 21
11.1115506921241
 31
0.0
  0
LINE
  5
37B
  8
0
 10
5.442404545882312
 20
11.1115506921241
 30
0.0
 11
5.429404545882312
 21
11.09455069212411
 31
0.0
  0
LINE
  5
37C
  8
0
 10
5.429404545882312
 20
11.09455069212411
 30
0.0
 11
5.450404545882312
 21
11.08855069212411
 31
0.0
  0
LINE
  5
37D
  8
0
 10
5.450404545882312
 20
11.08855069212411
 30
0.0
 11
5.493404545882311
 21
11.07155069212411
 31
0.0
  0
LINE
  5
37E
  8
0
 10
5.493404545882311
 20
11.07155069212411
 30
0.0
 11
5.512404545882311
 21
11.04955069212411
 31
0.0
  0
LINE
  5
37F
  8
0
 10
5.512404545882311
 20
11.04955069212411
 30
0.0
 11
5.508404545882311
 21
11.0225506921241
 31
0.0
  0
LINE
  5
380
  8
0
 10
5.508404545882311
 20
11.0225506921241
 30
0.0
 11
5.481404545882311
 21
10.9905506921241
 31
0.0
  0
LINE
  5
381
  8
0
 10
5.481404545882311
 20
10.9905506921241
 30
0.0
 11
5.453404545882311
 21
11.0165506921241
 31
0.0
  0
LINE
  5
382
  8
0
 10
5.453404545882311
 20
11.0165506921241
 30
0.0
 11
5.434404545882312
 21
11.03755069212411
 31
0.0
  0
LINE
  5
383
  8
0
 10
5.434404545882312
 20
11.03755069212411
 30
0.0
 11
5.424404545882311
 21
11.05355069212411
 31
0.0
  0
LINE
  5
384
  8
0
 10
5.424404545882311
 20
11.05355069212411
 30
0.0
 11
5.422404545882311
 21
11.0645506921241
 31
0.0
  0
LINE
  5
385
  8
0
 10
5.422404545882311
 20
11.0645506921241
 30
0.0
 11
5.392404545882311
 21
11.0615506921241
 31
0.0
  0
LINE
  5
386
  8
0
 10
5.392404545882311
 20
11.0615506921241
 30
0.0
 11
5.348404545882311
 21
11.0765506921241
 31
0.0
  0
LINE
  5
387
  8
0
 10
5.348404545882311
 20
11.0765506921241
 30
0.0
 11
5.300404545882311
 21
11.1245506921241
 31
0.0
  0
LINE
  5
388
  8
0
 10
5.300404545882311
 20
11.1245506921241
 30
0.0
 11
5.285404545882312
 21
11.13655069212411
 31
0.0
  0
LINE
  5
389
  8
0
 10
5.285404545882312
 20
11.13655069212411
 30
0.0
 11
5.261404545882312
 21
11.14255069212411
 31
0.0
  0
LINE
  5
38A
  8
0
 10
5.261404545882312
 20
11.14255069212411
 30
0.0
 11
5.186404545882311
 21
11.16755069212411
 31
0.0
  0
LINE
  5
38B
  8
0
 10
5.503404545882312
 20
10.8525506921241
 30
0.0
 11
5.466404545882312
 21
10.90255069212411
 31
0.0
  0
LINE
  5
38C
  8
0
 10
5.466404545882312
 20
10.90255069212411
 30
0.0
 11
5.525404545882311
 21
10.89255069212411
 31
0.0
  0
LINE
  5
38D
  8
0
 10
5.525404545882311
 20
10.89255069212411
 30
0.0
 11
5.551404545882312
 21
10.87955069212411
 31
0.0
  0
LINE
  5
38E
  8
0
 10
5.551404545882312
 20
10.87955069212411
 30
0.0
 11
5.547404545882311
 21
10.86355069212411
 31
0.0
  0
LINE
  5
38F
  8
0
 10
5.547404545882311
 20
10.86355069212411
 30
0.0
 11
5.510404545882311
 21
10.8435506921241
 31
0.0
  0
LINE
  5
390
  8
0
 10
5.510404545882311
 20
10.8435506921241
 30
0.0
 11
5.503404545882312
 21
10.8525506921241
 31
0.0
  0
LINE
  5
391
  8
0
 10
5.790404545882311
 20
11.00555069212411
 30
0.0
 11
5.835404545882311
 21
10.96555069212411
 31
0.0
  0
LINE
  5
392
  8
0
 10
5.835404545882311
 20
10.96555069212411
 30
0.0
 11
5.852404545882311
 21
10.9455506921241
 31
0.0
  0
LINE
  5
393
  8
0
 10
5.852404545882311
 20
10.9455506921241
 30
0.0
 11
5.842404545882311
 21
10.94755069212411
 31
0.0
  0
LINE
  5
394
  8
0
 10
5.842404545882311
 20
10.94755069212411
 30
0.0
 11
5.803404545882311
 21
10.9685506921241
 31
0.0
  0
LINE
  5
395
  8
0
 10
5.803404545882311
 20
10.9685506921241
 30
0.0
 11
5.794404545882311
 21
10.98255069212411
 31
0.0
  0
LINE
  5
396
  8
0
 10
5.794404545882311
 20
10.98255069212411
 30
0.0
 11
5.790404545882311
 21
11.00555069212411
 31
0.0
  0
LINE
  5
397
  8
0
 10
5.407404545882311
 20
9.901550692124106
 30
0.0
 11
5.437404545882311
 21
9.887550692124105
 31
0.0
  0
LINE
  5
398
  8
0
 10
5.437404545882311
 20
9.887550692124105
 30
0.0
 11
5.458404545882312
 21
9.875550692124104
 31
0.0
  0
LINE
  5
399
  8
0
 10
5.458404545882312
 20
9.875550692124104
 30
0.0
 11
5.471404545882312
 21
9.869550692124106
 31
0.0
  0
LINE
  5
39A
  8
0
 10
5.471404545882312
 20
9.869550692124106
 30
0.0
 11
5.475404545882311
 21
9.865550692124105
 31
0.0
  0
LINE
  5
39B
  8
0
 10
5.475404545882311
 20
9.865550692124105
 30
0.0
 11
5.472404545882311
 21
9.867550692124105
 31
0.0
  0
LINE
  5
39C
  8
0
 10
5.472404545882311
 20
9.867550692124105
 30
0.0
 11
5.460404545882311
 21
9.871550692124105
 31
0.0
  0
LINE
  5
39D
  8
0
 10
5.460404545882311
 20
9.871550692124105
 30
0.0
 11
5.410404545882312
 21
9.892550692124106
 31
0.0
  0
LINE
  5
39E
  8
0
 10
5.410404545882312
 20
9.892550692124106
 30
0.0
 11
5.407404545882311
 21
9.901550692124106
 31
0.0
  0
LINE
  5
39F
  8
0
 10
5.043404545882312
 20
9.995550692124105
 30
0.0
 11
5.039404545882311
 21
10.00455069212411
 31
0.0
  0
LINE
  5
3A0
  8
0
 10
5.039404545882311
 20
10.00455069212411
 30
0.0
 11
5.081404545882311
 21
9.972550692124106
 31
0.0
  0
LINE
  5
3A1
  8
0
 10
5.081404545882311
 20
9.972550692124106
 30
0.0
 11
5.095404545882311
 21
9.959550692124106
 31
0.0
  0
LINE
  5
3A2
  8
0
 10
5.095404545882311
 20
9.959550692124106
 30
0.0
 11
5.083404545882312
 21
9.967550692124105
 31
0.0
  0
LINE
  5
3A3
  8
0
 10
5.083404545882312
 20
9.967550692124105
 30
0.0
 11
5.043404545882312
 21
9.995550692124105
 31
0.0
  0
LINE
  5
3A4
  8
0
 10
5.064404545882311
 20
9.641550692124104
 30
0.0
 11
5.046404545882312
 21
9.630550692124105
 31
0.0
  0
LINE
  5
3A5
  8
0
 10
5.046404545882312
 20
9.630550692124105
 30
0.0
 11
5.033404545882311
 21
9.633550692124105
 31
0.0
  0
LINE
  5
3A6
  8
0
 10
5.033404545882311
 20
9.633550692124105
 30
0.0
 11
5.026404545882311
 21
9.650550692124105
 31
0.0
  0
LINE
  5
3A7
  8
0
 10
5.026404545882311
 20
9.650550692124105
 30
0.0
 11
5.024404545882311
 21
9.680550692124106
 31
0.0
  0
LINE
  5
3A8
  8
0
 10
5.024404545882311
 20
9.680550692124106
 30
0.0
 11
5.051404545882312
 21
9.727550692124105
 31
0.0
  0
LINE
  5
3A9
  8
0
 10
5.051404545882312
 20
9.727550692124105
 30
0.0
 11
5.071404545882311
 21
9.747550692124106
 31
0.0
  0
LINE
  5
3AA
  8
0
 10
5.071404545882311
 20
9.747550692124106
 30
0.0
 11
5.085404545882311
 21
9.741550692124106
 31
0.0
  0
LINE
  5
3AB
  8
0
 10
5.085404545882311
 20
9.741550692124106
 30
0.0
 11
5.091404545882312
 21
9.708550692124104
 31
0.0
  0
LINE
  5
3AC
  8
0
 10
5.091404545882312
 20
9.708550692124104
 30
0.0
 11
5.086404545882311
 21
9.672550692124105
 31
0.0
  0
LINE
  5
3AD
  8
0
 10
5.086404545882311
 20
9.672550692124105
 30
0.0
 11
5.064404545882311
 21
9.641550692124104
 31
0.0
  0
LINE
  5
3AE
  8
0
 10
5.260404545882311
 20
9.592550692124105
 30
0.0
 11
5.297404545882311
 21
9.596550692124104
 31
0.0
  0
LINE
  5
3AF
  8
0
 10
5.297404545882311
 20
9.596550692124104
 30
0.0
 11
5.322404545882311
 21
9.598550692124105
 31
0.0
  0
LINE
  5
3B0
  8
0
 10
5.322404545882311
 20
9.598550692124105
 30
0.0
 11
5.337404545882311
 21
9.599550692124105
 31
0.0
  0
LINE
  5
3B1
  8
0
 10
5.337404545882311
 20
9.599550692124105
 30
0.0
 11
5.342404545882311
 21
9.598550692124105
 31
0.0
  0
LINE
  5
3B2
  8
0
 10
5.342404545882311
 20
9.598550692124105
 30
0.0
 11
5.337404545882311
 21
9.597550692124106
 31
0.0
  0
LINE
  5
3B3
  8
0
 10
5.337404545882311
 20
9.597550692124106
 30
0.0
 11
5.322404545882311
 21
9.594550692124105
 31
0.0
  0
LINE
  5
3B4
  8
0
 10
5.322404545882311
 20
9.594550692124105
 30
0.0
 11
5.297404545882311
 21
9.590550692124106
 31
0.0
  0
LINE
  5
3B5
  8
0
 10
5.297404545882311
 20
9.590550692124106
 30
0.0
 11
5.260404545882311
 21
9.584550692124106
 31
0.0
  0
LINE
  5
3B6
  8
0
 10
5.260404545882311
 20
9.584550692124106
 30
0.0
 11
5.260404545882311
 21
9.592550692124105
 31
0.0
  0
LINE
  5
3B7
  8
0
 10
5.392404545882311
 20
9.621550692124105
 30
0.0
 11
5.436404545882311
 21
9.619550692124106
 31
0.0
  0
LINE
  5
3B8
  8
0
 10
5.436404545882311
 20
9.619550692124106
 30
0.0
 11
5.467404545882311
 21
9.617550692124105
 31
0.0
  0
LINE
  5
3B9
  8
0
 10
5.467404545882311
 20
9.617550692124105
 30
0.0
 11
5.486404545882311
 21
9.615550692124105
 31
0.0
  0
LINE
  5
3BA
  8
0
 10
5.486404545882311
 20
9.615550692124105
 30
0.0
 11
5.492404545882311
 21
9.611550692124105
 31
0.0
  0
LINE
  5
3BB
  8
0
 10
5.492404545882311
 20
9.611550692124105
 30
0.0
 11
5.486404545882311
 21
9.609550692124104
 31
0.0
  0
LINE
  5
3BC
  8
0
 10
5.486404545882311
 20
9.609550692124104
 30
0.0
 11
5.467404545882311
 21
9.605550692124105
 31
0.0
  0
LINE
  5
3BD
  8
0
 10
5.467404545882311
 20
9.605550692124105
 30
0.0
 11
5.436404545882311
 21
9.603550692124106
 31
0.0
  0
LINE
  5
3BE
  8
0
 10
5.436404545882311
 20
9.603550692124106
 30
0.0
 11
5.392404545882311
 21
9.599550692124105
 31
0.0
  0
LINE
  5
3BF
  8
0
 10
5.392404545882311
 20
9.599550692124105
 30
0.0
 11
5.392404545882311
 21
9.621550692124105
 31
0.0
  0
LINE
  5
3C0
  8
0
 10
5.392404545882311
 20
9.563550692124105
 30
0.0
 11
5.425404545882311
 21
9.538550692124105
 31
0.0
  0
LINE
  5
3C1
  8
0
 10
5.425404545882311
 20
9.538550692124105
 30
0.0
 11
5.442404545882312
 21
9.511550692124105
 31
0.0
  0
LINE
  5
3C2
  8
0
 10
5.442404545882312
 20
9.511550692124105
 30
0.0
 11
5.444404545882311
 21
9.482550692124105
 31
0.0
  0
LINE
  5
3C3
  8
0
 10
5.444404545882311
 20
9.482550692124105
 30
0.0
 11
5.429404545882312
 21
9.450550692124105
 31
0.0
  0
LINE
  5
3C4
  8
0
 10
5.429404545882312
 20
9.450550692124105
 30
0.0
 11
5.411404545882311
 21
9.433550692124106
 31
0.0
  0
LINE
  5
3C5
  8
0
 10
5.411404545882311
 20
9.433550692124106
 30
0.0
 11
5.398404545882311
 21
9.440550692124106
 31
0.0
  0
LINE
  5
3C6
  8
0
 10
5.398404545882311
 20
9.440550692124106
 30
0.0
 11
5.392404545882311
 21
9.474550692124105
 31
0.0
  0
LINE
  5
3C7
  8
0
 10
5.392404545882311
 20
9.474550692124105
 30
0.0
 11
5.392404545882311
 21
9.533550692124106
 31
0.0
  0
LINE
  5
3C8
  8
0
 10
5.392404545882311
 20
9.533550692124106
 30
0.0
 11
5.392404545882311
 21
9.563550692124105
 31
0.0
  0
LINE
  5
3C9
  8
0
 10
5.254404545882311
 20
9.759550692124105
 30
0.0
 11
5.235404545882311
 21
9.754550692124106
 31
0.0
  0
LINE
  5
3CA
  8
0
 10
5.235404545882311
 20
9.754550692124106
 30
0.0
 11
5.216404545882312
 21
9.773550692124106
 31
0.0
  0
LINE
  5
3CB
  8
0
 10
5.216404545882312
 20
9.773550692124106
 30
0.0
 11
5.201404545882311
 21
9.817550692124104
 31
0.0
  0
LINE
  5
3CC
  8
0
 10
5.201404545882311
 20
9.817550692124104
 30
0.0
 11
5.186404545882311
 21
9.886550692124105
 31
0.0
  0
LINE
  5
3CD
  8
0
 10
5.186404545882311
 20
9.886550692124105
 30
0.0
 11
5.231404545882311
 21
9.883550692124105
 31
0.0
  0
LINE
  5
3CE
  8
0
 10
5.231404545882311
 20
9.883550692124105
 30
0.0
 11
5.266404545882311
 21
9.875550692124104
 31
0.0
  0
LINE
  5
3CF
  8
0
 10
5.266404545882311
 20
9.875550692124104
 30
0.0
 11
5.290404545882311
 21
9.864550692124105
 31
0.0
  0
LINE
  5
3D0
  8
0
 10
5.290404545882311
 20
9.864550692124105
 30
0.0
 11
5.303404545882311
 21
9.849550692124105
 31
0.0
  0
LINE
  5
3D1
  8
0
 10
5.303404545882311
 20
9.849550692124105
 30
0.0
 11
5.307404545882311
 21
9.832550692124105
 31
0.0
  0
LINE
  5
3D2
  8
0
 10
5.307404545882311
 20
9.832550692124105
 30
0.0
 11
5.300404545882311
 21
9.811550692124104
 31
0.0
  0
LINE
  5
3D3
  8
0
 10
5.300404545882311
 20
9.811550692124104
 30
0.0
 11
5.283404545882311
 21
9.787550692124105
 31
0.0
  0
LINE
  5
3D4
  8
0
 10
5.283404545882311
 20
9.787550692124105
 30
0.0
 11
5.254404545882311
 21
9.759550692124105
 31
0.0
  0
LINE
  5
3D5
  8
0
 10
5.380404545882311
 20
9.755550692124105
 30
0.0
 11
5.378404545882312
 21
9.768550692124105
 31
0.0
  0
LINE
  5
3D6
  8
0
 10
5.378404545882312
 20
9.768550692124105
 30
0.0
 11
5.400404545882311
 21
9.713550692124105
 31
0.0
  0
LINE
  5
3D7
  8
0
 10
5.400404545882311
 20
9.713550692124105
 30
0.0
 11
5.407404545882311
 21
9.692550692124104
 31
0.0
  0
LINE
  5
3D8
  8
0
 10
5.407404545882311
 20
9.692550692124104
 30
0.0
 11
5.401404545882311
 21
9.707550692124105
 31
0.0
  0
LINE
  5
3D9
  8
0
 10
5.401404545882311
 20
9.707550692124105
 30
0.0
 11
5.393404545882311
 21
9.727550692124105
 31
0.0
  0
LINE
  5
3DA
  8
0
 10
5.393404545882311
 20
9.727550692124105
 30
0.0
 11
5.380404545882311
 21
9.755550692124105
 31
0.0
  0
LINE
  5
3DB
  8
0
 10
5.834404545882311
 20
9.960550692124105
 30
0.0
 11
5.858404545882311
 21
9.935550692124105
 31
0.0
  0
LINE
  5
3DC
  8
0
 10
5.858404545882311
 20
9.935550692124105
 30
0.0
 11
5.875404545882311
 21
9.916550692124105
 31
0.0
  0
LINE
  5
3DD
  8
0
 10
5.875404545882311
 20
9.916550692124105
 30
0.0
 11
5.886404545882312
 21
9.904550692124104
 31
0.0
  0
LINE
  5
3DE
  8
0
 10
5.886404545882312
 20
9.904550692124104
 30
0.0
 11
5.889404545882312
 21
9.899550692124105
 31
0.0
  0
LINE
  5
3DF
  8
0
 10
5.889404545882312
 20
9.899550692124105
 30
0.0
 11
5.887404545882311
 21
9.902550692124105
 31
0.0
  0
LINE
  5
3E0
  8
0
 10
5.887404545882311
 20
9.902550692124105
 30
0.0
 11
5.877404545882311
 21
9.911550692124106
 31
0.0
  0
LINE
  5
3E1
  8
0
 10
5.877404545882311
 20
9.911550692124106
 30
0.0
 11
5.861404545882311
 21
9.927550692124106
 31
0.0
  0
LINE
  5
3E2
  8
0
 10
5.861404545882311
 20
9.927550692124106
 30
0.0
 11
5.838404545882312
 21
9.949550692124106
 31
0.0
  0
LINE
  5
3E3
  8
0
 10
5.838404545882312
 20
9.949550692124106
 30
0.0
 11
5.834404545882311
 21
9.960550692124105
 31
0.0
  0
LINE
  5
3E4
  8
0
 10
5.451404545882311
 20
9.783550692124106
 30
0.0
 11
5.485404545882311
 21
9.762550692124105
 31
0.0
  0
LINE
  5
3E5
  8
0
 10
5.485404545882311
 20
9.762550692124105
 30
0.0
 11
5.508404545882311
 21
9.745550692124105
 31
0.0
  0
LINE
  5
3E6
  8
0
 10
5.508404545882311
 20
9.745550692124105
 30
0.0
 11
5.523404545882311
 21
9.736550692124105
 31
0.0
  0
LINE
  5
3E7
  8
0
 10
5.523404545882311
 20
9.736550692124105
 30
0.0
 11
5.527404545882312
 21
9.731550692124106
 31
0.0
  0
LINE
  5
3E8
  8
0
 10
5.527404545882312
 20
9.731550692124106
 30
0.0
 11
5.524404545882311
 21
9.734550692124104
 31
0.0
  0
LINE
  5
3E9
  8
0
 10
5.524404545882311
 20
9.734550692124104
 30
0.0
 11
5.510404545882311
 21
9.741550692124106
 31
0.0
  0
LINE
  5
3EA
  8
0
 10
5.510404545882311
 20
9.741550692124106
 30
0.0
 11
5.488404545882311
 21
9.755550692124105
 31
0.0
  0
LINE
  5
3EB
  8
0
 10
5.488404545882311
 20
9.755550692124105
 30
0.0
 11
5.455404545882311
 21
9.774550692124105
 31
0.0
  0
LINE
  5
3EC
  8
0
 10
5.455404545882311
 20
9.774550692124105
 30
0.0
 11
5.451404545882311
 21
9.783550692124106
 31
0.0
  0
LINE
  5
3ED
  8
0
 10
5.496404545882311
 20
9.563550692124105
 30
0.0
 11
5.496404545882311
 21
9.577550692124104
 31
0.0
  0
LINE
  5
3EE
  8
0
 10
5.496404545882311
 20
9.577550692124104
 30
0.0
 11
5.530404545882312
 21
9.564550692124104
 31
0.0
  0
LINE
  5
3EF
  8
0
 10
5.530404545882312
 20
9.564550692124104
 30
0.0
 11
5.548404545882311
 21
9.552550692124106
 31
0.0
  0
LINE
  5
3F0
  8
0
 10
5.548404545882311
 20
9.552550692124106
 30
0.0
 11
5.552404545882311
 21
9.543550692124105
 31
0.0
  0
LINE
  5
3F1
  8
0
 10
5.552404545882311
 20
9.543550692124105
 30
0.0
 11
5.539404545882311
 21
9.535550692124104
 31
0.0
  0
LINE
  5
3F2
  8
0
 10
5.539404545882311
 20
9.535550692124104
 30
0.0
 11
5.525404545882311
 21
9.533550692124106
 31
0.0
  0
LINE
  5
3F3
  8
0
 10
5.525404545882311
 20
9.533550692124106
 30
0.0
 11
5.524404545882311
 21
9.518550692124105
 31
0.0
  0
LINE
  5
3F4
  8
0
 10
5.524404545882311
 20
9.518550692124105
 30
0.0
 11
5.512404545882311
 21
9.480550692124105
 31
0.0
  0
LINE
  5
3F5
  8
0
 10
5.512404545882311
 20
9.480550692124105
 30
0.0
 11
5.496404545882311
 21
9.474550692124105
 31
0.0
  0
LINE
  5
3F6
  8
0
 10
5.496404545882311
 20
9.474550692124105
 30
0.0
 11
5.476404545882311
 21
9.502550692124105
 31
0.0
  0
LINE
  5
3F7
  8
0
 10
5.476404545882311
 20
9.502550692124105
 30
0.0
 11
5.451404545882311
 21
9.563550692124105
 31
0.0
  0
LINE
  5
3F8
  8
0
 10
5.451404545882311
 20
9.563550692124105
 30
0.0
 11
5.481404545882311
 21
9.563550692124105
 31
0.0
  0
LINE
  5
3F9
  8
0
 10
5.481404545882311
 20
9.563550692124105
 30
0.0
 11
5.496404545882311
 21
9.563550692124105
 31
0.0
  0
LINE
  5
3FA
  8
0
 10
5.586404545882311
 20
9.637550692124105
 30
0.0
 11
5.569404545882311
 21
9.624550692124105
 31
0.0
  0
LINE
  5
3FB
  8
0
 10
5.569404545882311
 20
9.624550692124105
 30
0.0
 11
5.553404545882311
 21
9.623550692124105
 31
0.0
  0
LINE
  5
3FC
  8
0
 10
5.553404545882311
 20
9.623550692124105
 30
0.0
 11
5.539404545882311
 21
9.638550692124106
 31
0.0
  0
LINE
  5
3FD
  8
0
 10
5.539404545882311
 20
9.638550692124106
 30
0.0
 11
5.525404545882311
 21
9.665550692124105
 31
0.0
  0
LINE
  5
3FE
  8
0
 10
5.525404545882311
 20
9.665550692124105
 30
0.0
 11
5.562404545882311
 21
9.684550692124105
 31
0.0
  0
LINE
  5
3FF
  8
0
 10
5.562404545882311
 20
9.684550692124105
 30
0.0
 11
5.585404545882311
 21
9.686550692124104
 31
0.0
  0
LINE
  5
400
  8
0
 10
5.585404545882311
 20
9.686550692124104
 30
0.0
 11
5.596404545882312
 21
9.674550692124106
 31
0.0
  0
LINE
  5
401
  8
0
 10
5.596404545882312
 20
9.674550692124106
 30
0.0
 11
5.594404545882311
 21
9.646550692124105
 31
0.0
  0
LINE
  5
402
  8
0
 10
5.594404545882311
 20
9.646550692124105
 30
0.0
 11
5.586404545882311
 21
9.637550692124105
 31
0.0
  0
LINE
  5
403
  8
0
 10
5.634404545882311
 20
9.719550692124105
 30
0.0
 11
5.613404545882311
 21
9.768550692124105
 31
0.0
  0
LINE
  5
404
  8
0
 10
5.613404545882311
 20
9.768550692124105
 30
0.0
 11
5.674404545882311
 21
9.755550692124105
 31
0.0
  0
LINE
  5
405
  8
0
 10
5.674404545882311
 20
9.755550692124105
 30
0.0
 11
5.702404545882311
 21
9.740550692124105
 31
0.0
  0
LINE
  5
406
  8
0
 10
5.702404545882311
 20
9.740550692124105
 30
0.0
 11
5.699404545882311
 21
9.722550692124106
 31
0.0
  0
LINE
  5
407
  8
0
 10
5.699404545882311
 20
9.722550692124106
 30
0.0
 11
5.663404545882312
 21
9.701550692124105
 31
0.0
  0
LINE
  5
408
  8
0
 10
5.663404545882312
 20
9.701550692124105
 30
0.0
 11
5.650404545882311
 21
9.703550692124105
 31
0.0
  0
LINE
  5
409
  8
0
 10
5.650404545882311
 20
9.703550692124105
 30
0.0
 11
5.634404545882311
 21
9.719550692124105
 31
0.0
  0
LINE
  5
40A
  8
0
 10
6.423404545882311
 20
10.1955506921241
 30
0.0
 11
6.462404545882311
 21
10.2055506921241
 31
0.0
  0
LINE
  5
40B
  8
0
 10
6.462404545882311
 20
10.2055506921241
 30
0.0
 11
6.484404545882311
 21
10.1895506921241
 31
0.0
  0
LINE
  5
40C
  8
0
 10
6.484404545882311
 20
10.1895506921241
 30
0.0
 11
6.490404545882312
 21
10.14855069212411
 31
0.0
  0
LINE
  5
40D
  8
0
 10
6.490404545882312
 20
10.14855069212411
 30
0.0
 11
6.479404545882312
 21
10.08255069212411
 31
0.0
  0
LINE
  5
40E
  8
0
 10
6.479404545882312
 20
10.08255069212411
 30
0.0
 11
6.467404545882311
 21
10.04655069212411
 31
0.0
  0
LINE
  5
40F
  8
0
 10
6.467404545882311
 20
10.04655069212411
 30
0.0
 11
6.454404545882311
 21
10.0385506921241
 31
0.0
  0
LINE
  5
410
  8
0
 10
6.454404545882311
 20
10.0385506921241
 30
0.0
 11
6.442404545882312
 21
10.05855069212411
 31
0.0
  0
LINE
  5
411
  8
0
 10
6.442404545882312
 20
10.05855069212411
 30
0.0
 11
6.429404545882312
 21
10.10655069212411
 31
0.0
  0
LINE
  5
412
  8
0
 10
6.429404545882312
 20
10.10655069212411
 30
0.0
 11
6.423404545882311
 21
10.1955506921241
 31
0.0
  0
LINE
  5
413
  8
0
 10
6.555404545882311
 20
10.2405506921241
 30
0.0
 11
6.603404545882311
 21
10.25555069212411
 31
0.0
  0
LINE
  5
414
  8
0
 10
6.603404545882311
 20
10.25555069212411
 30
0.0
 11
6.618404545882311
 21
10.25855069212411
 31
0.0
  0
LINE
  5
415
  8
0
 10
6.618404545882311
 20
10.25855069212411
 30
0.0
 11
6.603404545882311
 21
10.25155069212411
 31
0.0
  0
LINE
  5
416
  8
0
 10
6.603404545882311
 20
10.25155069212411
 30
0.0
 11
6.555404545882311
 21
10.23255069212411
 31
0.0
  0
LINE
  5
417
  8
0
 10
6.555404545882311
 20
10.23255069212411
 30
0.0
 11
6.555404545882311
 21
10.2405506921241
 31
0.0
  0
LINE
  5
418
  8
0
 10
6.541404545882311
 20
10.13655069212411
 30
0.0
 11
6.585404545882311
 21
10.1315506921241
 31
0.0
  0
LINE
  5
419
  8
0
 10
6.585404545882311
 20
10.1315506921241
 30
0.0
 11
6.616404545882311
 21
10.12655069212411
 31
0.0
  0
LINE
  5
41A
  8
0
 10
6.616404545882311
 20
10.12655069212411
 30
0.0
 11
6.634404545882311
 21
10.12355069212411
 31
0.0
  0
LINE
  5
41B
  8
0
 10
6.634404545882311
 20
10.12355069212411
 30
0.0
 11
6.640404545882311
 21
10.1215506921241
 31
0.0
  0
LINE
  5
41C
  8
0
 10
6.640404545882311
 20
10.1215506921241
 30
0.0
 11
6.634404545882311
 21
10.1215506921241
 31
0.0
  0
LINE
  5
41D
  8
0
 10
6.634404545882311
 20
10.1215506921241
 30
0.0
 11
6.616404545882311
 21
10.12255069212411
 31
0.0
  0
LINE
  5
41E
  8
0
 10
6.616404545882311
 20
10.12255069212411
 30
0.0
 11
6.586404545882311
 21
10.1255506921241
 31
0.0
  0
LINE
  5
41F
  8
0
 10
6.586404545882311
 20
10.1255506921241
 30
0.0
 11
6.542404545882311
 21
10.12955069212411
 31
0.0
  0
LINE
  5
420
  8
0
 10
6.542404545882311
 20
10.12955069212411
 30
0.0
 11
6.541404545882311
 21
10.13655069212411
 31
0.0
  0
LINE
  5
421
  8
0
 10
6.202404545882311
 20
9.974550692124105
 30
0.0
 11
6.249404545882311
 21
9.986550692124105
 31
0.0
  0
LINE
  5
422
  8
0
 10
6.249404545882311
 20
9.986550692124105
 30
0.0
 11
6.268404545882311
 21
9.978550692124106
 31
0.0
  0
LINE
  5
423
  8
0
 10
6.268404545882311
 20
9.978550692124106
 30
0.0
 11
6.261404545882312
 21
9.951550692124105
 31
0.0
  0
LINE
  5
424
  8
0
 10
6.261404545882312
 20
9.951550692124105
 30
0.0
 11
6.225404545882311
 21
9.905550692124105
 31
0.0
  0
LINE
  5
425
  8
0
 10
6.225404545882311
 20
9.905550692124105
 30
0.0
 11
6.207404545882311
 21
9.898550692124106
 31
0.0
  0
LINE
  5
426
  8
0
 10
6.207404545882311
 20
9.898550692124106
 30
0.0
 11
6.194404545882311
 21
9.926550692124104
 31
0.0
  0
LINE
  5
427
  8
0
 10
6.194404545882311
 20
9.926550692124104
 30
0.0
 11
6.195404545882312
 21
9.943550692124106
 31
0.0
  0
LINE
  5
428
  8
0
 10
6.195404545882312
 20
9.943550692124106
 30
0.0
 11
6.202404545882311
 21
9.974550692124105
 31
0.0
  0
LINE
  5
429
  8
0
 10
5.878404545882312
 20
9.974550692124105
 30
0.0
 11
5.929404545882312
 21
10.0035506921241
 31
0.0
  0
LINE
  5
42A
  8
0
 10
5.929404545882312
 20
10.0035506921241
 30
0.0
 11
5.960404545882311
 21
10.01455069212411
 31
0.0
  0
LINE
  5
42B
  8
0
 10
5.960404545882311
 20
10.01455069212411
 30
0.0
 11
5.975404545882311
 21
10.0095506921241
 31
0.0
  0
LINE
  5
42C
  8
0
 10
5.975404545882311
 20
10.0095506921241
 30
0.0
 11
5.970404545882311
 21
9.986550692124105
 31
0.0
  0
LINE
  5
42D
  8
0
 10
5.970404545882311
 20
9.986550692124105
 30
0.0
 11
5.948404545882311
 21
9.948550692124105
 31
0.0
  0
LINE
  5
42E
  8
0
 10
5.948404545882311
 20
9.948550692124105
 30
0.0
 11
5.925404545882311
 21
9.932550692124105
 31
0.0
  0
LINE
  5
42F
  8
0
 10
5.925404545882311
 20
9.932550692124105
 30
0.0
 11
5.902404545882312
 21
9.942550692124104
 31
0.0
  0
LINE
  5
430
  8
0
 10
5.902404545882312
 20
9.942550692124104
 30
0.0
 11
5.878404545882312
 21
9.974550692124105
 31
0.0
  0
LINE
  5
431
  8
0
 10
6.305404545882311
 20
9.974550692124105
 30
0.0
 11
6.349404545882312
 21
9.962550692124106
 31
0.0
  0
LINE
  5
432
  8
0
 10
6.349404545882312
 20
9.962550692124106
 30
0.0
 11
6.367404545882311
 21
9.952550692124104
 31
0.0
  0
LINE
  5
433
  8
0
 10
6.367404545882311
 20
9.952550692124104
 30
0.0
 11
6.362404545882312
 21
9.945550692124105
 31
0.0
  0
LINE
  5
434
  8
0
 10
6.362404545882312
 20
9.945550692124105
 30
0.0
 11
6.332404545882311
 21
9.939550692124104
 31
0.0
  0
LINE
  5
435
  8
0
 10
6.332404545882311
 20
9.939550692124104
 30
0.0
 11
6.316404545882311
 21
9.947550692124105
 31
0.0
  0
LINE
  5
436
  8
0
 10
6.316404545882311
 20
9.947550692124105
 30
0.0
 11
6.305404545882311
 21
9.974550692124105
 31
0.0
  0
LINE
  5
437
  8
0
 10
6.250404545882311
 20
9.774550692124105
 30
0.0
 11
6.235404545882311
 21
9.751550692124106
 31
0.0
  0
LINE
  5
438
  8
0
 10
6.235404545882311
 20
9.751550692124106
 30
0.0
 11
6.222404545882311
 21
9.747550692124106
 31
0.0
  0
LINE
  5
439
  8
0
 10
6.222404545882311
 20
9.747550692124106
 30
0.0
 11
6.211404545882311
 21
9.763550692124106
 31
0.0
  0
LINE
  5
43A
  8
0
 10
6.211404545882311
 20
9.763550692124106
 30
0.0
 11
6.202404545882311
 21
9.798550692124104
 31
0.0
  0
LINE
  5
43B
  8
0
 10
6.202404545882311
 20
9.798550692124104
 30
0.0
 11
6.241404545882311
 21
9.787550692124105
 31
0.0
  0
LINE
  5
43C
  8
0
 10
6.241404545882311
 20
9.787550692124105
 30
0.0
 11
6.250404545882311
 21
9.774550692124105
 31
0.0
  0
LINE
  5
43D
  8
0
 10
4.909404545882311
 20
11.0385506921241
 30
0.0
 11
4.921404545882311
 21
11.0355506921241
 31
0.0
  0
LINE
  5
43E
  8
0
 10
4.921404545882311
 20
11.0355506921241
 30
0.0
 11
4.918404545882312
 21
11.02355069212411
 31
0.0
  0
LINE
  5
43F
  8
0
 10
4.918404545882312
 20
11.02355069212411
 30
0.0
 11
4.907404545882311
 21
11.02055069212411
 31
0.0
  0
LINE
  5
440
  8
0
 10
4.907404545882311
 20
11.02055069212411
 30
0.0
 11
4.963404545882312
 21
11.01055069212411
 31
0.0
  0
LINE
  5
441
  8
0
 10
4.963404545882312
 20
11.01055069212411
 30
0.0
 11
4.997404545882311
 21
11.01055069212411
 31
0.0
  0
LINE
  5
442
  8
0
 10
4.997404545882311
 20
11.01055069212411
 30
0.0
 11
5.011404545882312
 21
11.0225506921241
 31
0.0
  0
LINE
  5
443
  8
0
 10
5.011404545882312
 20
11.0225506921241
 30
0.0
 11
5.004404545882311
 21
11.04655069212411
 31
0.0
  0
LINE
  5
444
  8
0
 10
5.004404545882311
 20
11.04655069212411
 30
0.0
 11
4.995404545882312
 21
11.04955069212411
 31
0.0
  0
LINE
  5
445
  8
0
 10
4.995404545882312
 20
11.04955069212411
 30
0.0
 11
4.998404545882312
 21
11.05855069212411
 31
0.0
  0
LINE
  5
446
  8
0
 10
4.998404545882312
 20
11.05855069212411
 30
0.0
 11
5.010404545882311
 21
11.0645506921241
 31
0.0
  0
LINE
  5
447
  8
0
 10
5.010404545882311
 20
11.0645506921241
 30
0.0
 11
5.003404545882312
 21
11.0835506921241
 31
0.0
  0
LINE
  5
448
  8
0
 10
5.003404545882312
 20
11.0835506921241
 30
0.0
 11
4.981404545882311
 21
11.0925506921241
 31
0.0
  0
LINE
  5
449
  8
0
 10
4.981404545882311
 20
11.0925506921241
 30
0.0
 11
4.944404545882311
 21
11.09155069212411
 31
0.0
  0
LINE
  5
44A
  8
0
 10
4.944404545882311
 20
11.09155069212411
 30
0.0
 11
4.892404545882311
 21
11.0795506921241
 31
0.0
  0
LINE
  5
44B
  8
0
 10
4.892404545882311
 20
11.0795506921241
 30
0.0
 11
4.897404545882312
 21
11.05555069212411
 31
0.0
  0
LINE
  5
44C
  8
0
 10
4.897404545882312
 20
11.05555069212411
 30
0.0
 11
4.909404545882311
 21
11.0385506921241
 31
0.0
  0
LINE
  5
44D
  8
0
 10
4.435404545882311
 20
11.31555069212411
 30
0.0
 11
4.482404545882312
 21
11.3015506921241
 31
0.0
  0
LINE
  5
44E
  8
0
 10
4.482404545882312
 20
11.3015506921241
 30
0.0
 11
4.498404545882312
 21
11.2945506921241
 31
0.0
  0
LINE
  5
44F
  8
0
 10
4.498404545882312
 20
11.2945506921241
 30
0.0
 11
4.483404545882311
 21
11.29655069212411
 31
0.0
  0
LINE
  5
450
  8
0
 10
4.483404545882311
 20
11.29655069212411
 30
0.0
 11
4.437404545882311
 21
11.30655069212411
 31
0.0
  0
LINE
  5
451
  8
0
 10
4.437404545882311
 20
11.30655069212411
 30
0.0
 11
4.435404545882311
 21
11.31555069212411
 31
0.0
  0
LINE
  5
452
  8
0
 10
4.524404545882311
 20
11.3295506921241
 30
0.0
 11
4.576404545882311
 21
11.3135506921241
 31
0.0
  0
LINE
  5
453
  8
0
 10
4.576404545882311
 20
11.3135506921241
 30
0.0
 11
4.598404545882311
 21
11.30055069212411
 31
0.0
  0
LINE
  5
454
  8
0
 10
4.598404545882311
 20
11.30055069212411
 30
0.0
 11
4.591404545882312
 21
11.2915506921241
 31
0.0
  0
LINE
  5
455
  8
0
 10
4.591404545882312
 20
11.2915506921241
 30
0.0
 11
4.553404545882311
 21
11.2845506921241
 31
0.0
  0
LINE
  5
456
  8
0
 10
4.553404545882311
 20
11.2845506921241
 30
0.0
 11
4.536404545882311
 21
11.29055069212411
 31
0.0
  0
LINE
  5
457
  8
0
 10
4.536404545882311
 20
11.29055069212411
 30
0.0
 11
4.523404545882311
 21
11.3045506921241
 31
0.0
  0
LINE
  5
458
  8
0
 10
4.523404545882311
 20
11.3045506921241
 30
0.0
 11
4.524404545882311
 21
11.3295506921241
 31
0.0
  0
LINE
  5
459
  8
0
 10
4.498404545882312
 20
11.1445506921241
 30
0.0
 11
4.438404545882311
 21
11.1285506921241
 31
0.0
  0
LINE
  5
45A
  8
0
 10
4.438404545882311
 20
11.1285506921241
 30
0.0
 11
4.395404545882311
 21
11.13955069212411
 31
0.0
  0
LINE
  5
45B
  8
0
 10
4.395404545882311
 20
11.13955069212411
 30
0.0
 11
4.370404545882312
 21
11.17755069212411
 31
0.0
  0
LINE
  5
45C
  8
0
 10
4.370404545882312
 20
11.17755069212411
 30
0.0
 11
4.362404545882312
 21
11.24155069212411
 31
0.0
  0
LINE
  5
45D
  8
0
 10
4.362404545882312
 20
11.24155069212411
 30
0.0
 11
4.416404545882311
 21
11.2435506921241
 31
0.0
  0
LINE
  5
45E
  8
0
 10
4.416404545882311
 20
11.2435506921241
 30
0.0
 11
4.459404545882311
 21
11.22955069212411
 31
0.0
  0
LINE
  5
45F
  8
0
 10
4.459404545882311
 20
11.22955069212411
 30
0.0
 11
4.494404545882311
 21
11.19955069212411
 31
0.0
  0
LINE
  5
460
  8
0
 10
4.494404545882311
 20
11.19955069212411
 30
0.0
 11
4.517404545882311
 21
11.15255069212411
 31
0.0
  0
LINE
  5
461
  8
0
 10
4.517404545882311
 20
11.15255069212411
 30
0.0
 11
4.498404545882312
 21
11.1445506921241
 31
0.0
  0
LINE
  5
462
  8
0
 10
4.244404545882311
 20
10.68155069212411
 30
0.0
 11
4.257404545882311
 21
10.68455069212411
 31
0.0
  0
LINE
  5
463
  8
0
 10
4.257404545882311
 20
10.68455069212411
 30
0.0
 11
4.269404545882312
 21
10.7045506921241
 31
0.0
  0
LINE
  5
464
  8
0
 10
4.269404545882312
 20
10.7045506921241
 30
0.0
 11
4.244404545882311
 21
10.72555069212411
 31
0.0
  0
LINE
  5
465
  8
0
 10
4.244404545882311
 20
10.72555069212411
 30
0.0
 11
4.256404545882312
 21
10.72955069212411
 31
0.0
  0
LINE
  5
466
  8
0
 10
4.256404545882312
 20
10.72955069212411
 30
0.0
 11
4.269404545882312
 21
10.74455069212411
 31
0.0
  0
LINE
  5
467
  8
0
 10
4.269404545882312
 20
10.74455069212411
 30
0.0
 11
4.266404545882311
 21
10.7535506921241
 31
0.0
  0
LINE
  5
468
  8
0
 10
4.266404545882311
 20
10.7535506921241
 30
0.0
 11
4.248404545882312
 21
10.75755069212411
 31
0.0
  0
LINE
  5
469
  8
0
 10
4.248404545882312
 20
10.75755069212411
 30
0.0
 11
4.215404545882311
 21
10.75555069212411
 31
0.0
  0
LINE
  5
46A
  8
0
 10
4.215404545882311
 20
10.75555069212411
 30
0.0
 11
4.215404545882311
 21
10.7405506921241
 31
0.0
  0
LINE
  5
46B
  8
0
 10
4.215404545882311
 20
10.7405506921241
 30
0.0
 11
4.200404545882312
 21
10.7405506921241
 31
0.0
  0
LINE
  5
46C
  8
0
 10
4.200404545882312
 20
10.7405506921241
 30
0.0
 11
4.171404545882311
 21
10.7405506921241
 31
0.0
  0
LINE
  5
46D
  8
0
 10
4.171404545882311
 20
10.7405506921241
 30
0.0
 11
4.174404545882311
 21
10.71255069212411
 31
0.0
  0
LINE
  5
46E
  8
0
 10
4.174404545882311
 20
10.71255069212411
 30
0.0
 11
4.200404545882312
 21
10.70355069212411
 31
0.0
  0
LINE
  5
46F
  8
0
 10
4.200404545882312
 20
10.70355069212411
 30
0.0
 11
4.200404545882312
 21
10.69655069212411
 31
0.0
  0
LINE
  5
470
  8
0
 10
4.200404545882312
 20
10.69655069212411
 30
0.0
 11
4.185404545882311
 21
10.69655069212411
 31
0.0
  0
LINE
  5
471
  8
0
 10
4.185404545882311
 20
10.69655069212411
 30
0.0
 11
4.156404545882311
 21
10.69655069212411
 31
0.0
  0
LINE
  5
472
  8
0
 10
4.156404545882311
 20
10.69655069212411
 30
0.0
 11
4.190404545882311
 21
10.67555069212411
 31
0.0
  0
LINE
  5
473
  8
0
 10
4.190404545882311
 20
10.67555069212411
 30
0.0
 11
4.215404545882311
 21
10.66255069212411
 31
0.0
  0
LINE
  5
474
  8
0
 10
4.215404545882311
 20
10.66255069212411
 30
0.0
 11
4.233404545882311
 21
10.6605506921241
 31
0.0
  0
LINE
  5
475
  8
0
 10
4.233404545882311
 20
10.6605506921241
 30
0.0
 11
4.241404545882311
 21
10.66755069212411
 31
0.0
  0
LINE
  5
476
  8
0
 10
4.241404545882311
 20
10.66755069212411
 30
0.0
 11
4.244404545882311
 21
10.68155069212411
 31
0.0
  0
LINE
  5
477
  8
0
 10
4.477404545882311
 20
10.95355069212411
 30
0.0
 11
4.464404545882311
 21
10.9555506921241
 31
0.0
  0
LINE
  5
478
  8
0
 10
4.464404545882311
 20
10.9555506921241
 30
0.0
 11
4.465404545882311
 21
10.97655069212411
 31
0.0
  0
LINE
  5
479
  8
0
 10
4.465404545882311
 20
10.97655069212411
 30
0.0
 11
4.504404545882311
 21
10.98155069212411
 31
0.0
  0
LINE
  5
47A
  8
0
 10
4.504404545882311
 20
10.98155069212411
 30
0.0
 11
4.518404545882311
 21
10.97855069212411
 31
0.0
  0
LINE
  5
47B
  8
0
 10
4.518404545882311
 20
10.97855069212411
 30
0.0
 11
4.510404545882311
 21
10.96955069212411
 31
0.0
  0
LINE
  5
47C
  8
0
 10
4.510404545882311
 20
10.96955069212411
 30
0.0
 11
4.477404545882311
 21
10.95355069212411
 31
0.0
  0
LINE
  5
47D
  8
0
 10
4.141404545882311
 20
10.66755069212411
 30
0.0
 11
4.189404545882311
 21
10.64655069212411
 31
0.0
  0
LINE
  5
47E
  8
0
 10
4.189404545882311
 20
10.64655069212411
 30
0.0
 11
4.223404545882311
 21
10.62955069212411
 31
0.0
  0
LINE
  5
47F
  8
0
 10
4.223404545882311
 20
10.62955069212411
 30
0.0
 11
4.244404545882311
 21
10.61955069212411
 31
0.0
  0
LINE
  5
480
  8
0
 10
4.244404545882311
 20
10.61955069212411
 30
0.0
 11
4.250404545882311
 21
10.61455069212411
 31
0.0
  0
LINE
  5
481
  8
0
 10
4.250404545882311
 20
10.61455069212411
 30
0.0
 11
4.244404545882311
 21
10.61755069212411
 31
0.0
  0
LINE
  5
482
  8
0
 10
4.244404545882311
 20
10.61755069212411
 30
0.0
 11
4.224404545882312
 21
10.6245506921241
 31
0.0
  0
LINE
  5
483
  8
0
 10
4.224404545882312
 20
10.6245506921241
 30
0.0
 11
4.191404545882311
 21
10.63955069212411
 31
0.0
  0
LINE
  5
484
  8
0
 10
4.191404545882311
 20
10.63955069212411
 30
0.0
 11
4.144404545882312
 21
10.65855069212411
 31
0.0
  0
LINE
  5
485
  8
0
 10
4.144404545882312
 20
10.65855069212411
 30
0.0
 11
4.141404545882311
 21
10.66755069212411
 31
0.0
  0
LINE
  5
486
  8
0
 10
4.781404545882311
 20
10.15155069212411
 30
0.0
 11
4.775404545882311
 21
10.09455069212411
 31
0.0
  0
LINE
  5
487
  8
0
 10
4.775404545882311
 20
10.09455069212411
 30
0.0
 11
4.747404545882311
 21
10.0675506921241
 31
0.0
  0
LINE
  5
488
  8
0
 10
4.747404545882311
 20
10.0675506921241
 30
0.0
 11
4.698404545882311
 21
10.0705506921241
 31
0.0
  0
LINE
  5
489
  8
0
 10
4.698404545882311
 20
10.0705506921241
 30
0.0
 11
4.627404545882311
 21
10.10355069212411
 31
0.0
  0
LINE
  5
48A
  8
0
 10
4.627404545882311
 20
10.10355069212411
 30
0.0
 11
4.606404545882311
 21
10.12355069212411
 31
0.0
  0
LINE
  5
48B
  8
0
 10
4.606404545882311
 20
10.12355069212411
 30
0.0
 11
4.593404545882311
 21
10.1505506921241
 31
0.0
  0
LINE
  5
48C
  8
0
 10
4.593404545882311
 20
10.1505506921241
 30
0.0
 11
4.583404545882312
 21
10.21055069212411
 31
0.0
  0
LINE
  5
48D
  8
0
 10
4.583404545882312
 20
10.21055069212411
 30
0.0
 11
4.600404545882311
 21
10.2495506921241
 31
0.0
  0
LINE
  5
48E
  8
0
 10
4.600404545882311
 20
10.2495506921241
 30
0.0
 11
4.628404545882312
 21
10.27055069212411
 31
0.0
  0
LINE
  5
48F
  8
0
 10
4.628404545882312
 20
10.27055069212411
 30
0.0
 11
4.668404545882312
 21
10.27455069212411
 31
0.0
  0
LINE
  5
490
  8
0
 10
4.668404545882312
 20
10.27455069212411
 30
0.0
 11
4.720404545882311
 21
10.2595506921241
 31
0.0
  0
LINE
  5
491
  8
0
 10
4.720404545882311
 20
10.2595506921241
 30
0.0
 11
4.746404545882311
 21
10.24555069212411
 31
0.0
  0
LINE
  5
492
  8
0
 10
4.746404545882311
 20
10.24555069212411
 30
0.0
 11
4.764404545882312
 21
10.2215506921241
 31
0.0
  0
LINE
  5
493
  8
0
 10
4.764404545882312
 20
10.2215506921241
 30
0.0
 11
4.776404545882311
 21
10.19155069212411
 31
0.0
  0
LINE
  5
494
  8
0
 10
4.776404545882311
 20
10.19155069212411
 30
0.0
 11
4.781404545882311
 21
10.15155069212411
 31
0.0
  0
LINE
  5
495
  8
0
 10
4.454404545882311
 20
10.4365506921241
 30
0.0
 11
4.450404545882312
 21
10.44655069212411
 31
0.0
  0
LINE
  5
496
  8
0
 10
4.450404545882312
 20
10.44655069212411
 30
0.0
 11
4.490404545882312
 21
10.41855069212411
 31
0.0
  0
LINE
  5
497
  8
0
 10
4.490404545882312
 20
10.41855069212411
 30
0.0
 11
4.503404545882312
 21
10.4075506921241
 31
0.0
  0
LINE
  5
498
  8
0
 10
4.503404545882312
 20
10.4075506921241
 30
0.0
 11
4.492404545882311
 21
10.4135506921241
 31
0.0
  0
LINE
  5
499
  8
0
 10
4.492404545882311
 20
10.4135506921241
 30
0.0
 11
4.454404545882311
 21
10.4365506921241
 31
0.0
  0
LINE
  5
49A
  8
0
 10
4.530404545882312
 20
10.4265506921241
 30
0.0
 11
4.502404545882311
 21
10.4615506921241
 31
0.0
  0
LINE
  5
49B
  8
0
 10
4.502404545882311
 20
10.4615506921241
 30
0.0
 11
4.465404545882311
 21
10.4905506921241
 31
0.0
  0
LINE
  5
49C
  8
0
 10
4.465404545882311
 20
10.4905506921241
 30
0.0
 11
4.516404545882311
 21
10.53655069212411
 31
0.0
  0
LINE
  5
49D
  8
0
 10
4.516404545882311
 20
10.53655069212411
 30
0.0
 11
4.551404545882312
 21
10.5485506921241
 31
0.0
  0
LINE
  5
49E
  8
0
 10
4.551404545882312
 20
10.5485506921241
 30
0.0
 11
4.572404545882311
 21
10.5285506921241
 31
0.0
  0
LINE
  5
49F
  8
0
 10
4.572404545882311
 20
10.5285506921241
 30
0.0
 11
4.577404545882311
 21
10.5065506921241
 31
0.0
  0
LINE
  5
4A0
  8
0
 10
4.577404545882311
 20
10.5065506921241
 30
0.0
 11
4.577404545882311
 21
10.47555069212411
 31
0.0
  0
LINE
  5
4A1
  8
0
 10
4.577404545882311
 20
10.47555069212411
 30
0.0
 11
4.560404545882311
 21
10.4325506921241
 31
0.0
  0
LINE
  5
4A2
  8
0
 10
4.560404545882311
 20
10.4325506921241
 30
0.0
 11
4.544404545882311
 21
10.41855069212411
 31
0.0
  0
LINE
  5
4A3
  8
0
 10
4.544404545882311
 20
10.41855069212411
 30
0.0
 11
4.530404545882312
 21
10.4265506921241
 31
0.0
  0
LINE
  5
4A4
  8
0
 10
4.392404545882311
 20
10.43155069212411
 30
0.0
 11
4.454404545882311
 21
10.4065506921241
 31
0.0
  0
LINE
  5
4A5
  8
0
 10
4.454404545882311
 20
10.4065506921241
 30
0.0
 11
4.486404545882311
 21
10.3815506921241
 31
0.0
  0
LINE
  5
4A6
  8
0
 10
4.486404545882311
 20
10.3815506921241
 30
0.0
 11
4.490404545882312
 21
10.36055069212411
 31
0.0
  0
LINE
  5
4A7
  8
0
 10
4.490404545882312
 20
10.36055069212411
 30
0.0
 11
4.466404545882312
 21
10.3395506921241
 31
0.0
  0
LINE
  5
4A8
  8
0
 10
4.466404545882312
 20
10.3395506921241
 30
0.0
 11
4.423404545882311
 21
10.32455069212411
 31
0.0
  0
LINE
  5
4A9
  8
0
 10
4.423404545882311
 20
10.32455069212411
 30
0.0
 11
4.398404545882311
 21
10.32555069212411
 31
0.0
  0
LINE
  5
4AA
  8
0
 10
4.398404545882311
 20
10.32555069212411
 30
0.0
 11
4.391404545882311
 21
10.3455506921241
 31
0.0
  0
LINE
  5
4AB
  8
0
 10
4.391404545882311
 20
10.3455506921241
 30
0.0
 11
4.402404545882312
 21
10.38255069212411
 31
0.0
  0
LINE
  5
4AC
  8
0
 10
4.402404545882312
 20
10.38255069212411
 30
0.0
 11
4.406404545882311
 21
10.40855069212411
 31
0.0
  0
LINE
  5
4AD
  8
0
 10
4.406404545882311
 20
10.40855069212411
 30
0.0
 11
4.392404545882311
 21
10.43155069212411
 31
0.0
  0
LINE
  5
4AE
  8
0
 10
4.246404545882311
 20
10.08455069212411
 30
0.0
 11
4.200404545882312
 21
10.12255069212411
 31
0.0
  0
LINE
  5
4AF
  8
0
 10
4.200404545882312
 20
10.12255069212411
 30
0.0
 11
4.232404545882312
 21
10.1535506921241
 31
0.0
  0
LINE
  5
4B0
  8
0
 10
4.232404545882312
 20
10.1535506921241
 30
0.0
 11
4.257404545882311
 21
10.1725506921241
 31
0.0
  0
LINE
  5
4B1
  8
0
 10
4.257404545882311
 20
10.1725506921241
 30
0.0
 11
4.276404545882311
 21
10.18355069212411
 31
0.0
  0
LINE
  5
4B2
  8
0
 10
4.276404545882311
 20
10.18355069212411
 30
0.0
 11
4.287404545882311
 21
10.1825506921241
 31
0.0
  0
LINE
  5
4B3
  8
0
 10
4.287404545882311
 20
10.1825506921241
 30
0.0
 11
4.293404545882312
 21
10.1735506921241
 31
0.0
  0
LINE
  5
4B4
  8
0
 10
4.293404545882312
 20
10.1735506921241
 30
0.0
 11
4.292404545882311
 21
10.1535506921241
 31
0.0
  0
LINE
  5
4B5
  8
0
 10
4.292404545882311
 20
10.1535506921241
 30
0.0
 11
4.284404545882311
 21
10.1245506921241
 31
0.0
  0
LINE
  5
4B6
  8
0
 10
4.284404545882311
 20
10.1245506921241
 30
0.0
 11
4.269404545882312
 21
10.08555069212411
 31
0.0
  0
LINE
  5
4B7
  8
0
 10
4.269404545882312
 20
10.08555069212411
 30
0.0
 11
4.262404545882311
 21
10.08255069212411
 31
0.0
  0
LINE
  5
4B8
  8
0
 10
4.262404545882311
 20
10.08255069212411
 30
0.0
 11
4.246404545882311
 21
10.08455069212411
 31
0.0
  0
LINE
  5
4B9
  8
0
 10
4.480404545882311
 20
10.1955506921241
 30
0.0
 11
4.523404545882311
 21
10.17855069212411
 31
0.0
  0
LINE
  5
4BA
  8
0
 10
4.523404545882311
 20
10.17855069212411
 30
0.0
 11
4.537404545882311
 21
10.17155069212411
 31
0.0
  0
LINE
  5
4BB
  8
0
 10
4.537404545882311
 20
10.17155069212411
 30
0.0
 11
4.524404545882311
 21
10.17455069212411
 31
0.0
  0
LINE
  5
4BC
  8
0
 10
4.524404545882311
 20
10.17455069212411
 30
0.0
 11
4.482404545882312
 21
10.18755069212411
 31
0.0
  0
LINE
  5
4BD
  8
0
 10
4.482404545882312
 20
10.18755069212411
 30
0.0
 11
4.480404545882311
 21
10.1955506921241
 31
0.0
  0
LINE
  5
4BE
  8
0
 10
4.730404545882311
 20
9.974550692124105
 30
0.0
 11
4.779404545882311
 21
9.958550692124104
 31
0.0
  0
LINE
  5
4BF
  8
0
 10
4.779404545882311
 20
9.958550692124104
 30
0.0
 11
4.798404545882311
 21
9.947550692124105
 31
0.0
  0
LINE
  5
4C0
  8
0
 10
4.798404545882311
 20
9.947550692124105
 30
0.0
 11
4.787404545882311
 21
9.943550692124106
 31
0.0
  0
LINE
  5
4C1
  8
0
 10
4.787404545882311
 20
9.943550692124106
 30
0.0
 11
4.746404545882311
 21
9.944550692124105
 31
0.0
  0
LINE
  5
4C2
  8
0
 10
4.746404545882311
 20
9.944550692124105
 30
0.0
 11
4.734404545882311
 21
9.953550692124105
 31
0.0
  0
LINE
  5
4C3
  8
0
 10
4.734404545882311
 20
9.953550692124105
 30
0.0
 11
4.730404545882311
 21
9.974550692124105
 31
0.0
  0
LINE
  5
4C4
  8
0
 10
4.760404545882311
 20
9.886550692124105
 30
0.0
 11
4.828404545882311
 21
9.902550692124105
 31
0.0
  0
LINE
  5
4C5
  8
0
 10
4.828404545882311
 20
9.902550692124105
 30
0.0
 11
4.862404545882312
 21
9.900550692124105
 31
0.0
  0
LINE
  5
4C6
  8
0
 10
4.862404545882312
 20
9.900550692124105
 30
0.0
 11
4.864404545882311
 21
9.882550692124106
 31
0.0
  0
LINE
  5
4C7
  8
0
 10
4.864404545882311
 20
9.882550692124106
 30
0.0
 11
4.852404545882311
 21
9.866550692124106
 31
0.0
  0
LINE
  5
4C8
  8
0
 10
4.852404545882311
 20
9.866550692124106
 30
0.0
 11
4.831404545882311
 21
9.846550692124104
 31
0.0
  0
LINE
  5
4C9
  8
0
 10
4.831404545882311
 20
9.846550692124104
 30
0.0
 11
4.809404545882312
 21
9.835550692124105
 31
0.0
  0
LINE
  5
4CA
  8
0
 10
4.809404545882312
 20
9.835550692124105
 30
0.0
 11
4.791404545882311
 21
9.844550692124105
 31
0.0
  0
LINE
  5
4CB
  8
0
 10
4.791404545882311
 20
9.844550692124105
 30
0.0
 11
4.760404545882311
 21
9.886550692124105
 31
0.0
  0
LINE
  5
4CC
  8
0
 10
4.986404545882311
 20
9.704550692124105
 30
0.0
 11
4.972404545882311
 21
9.710550692124105
 31
0.0
  0
LINE
  5
4CD
  8
0
 10
4.972404545882311
 20
9.710550692124105
 30
0.0
 11
4.965404545882311
 21
9.739550692124105
 31
0.0
  0
LINE
  5
4CE
  8
0
 10
4.965404545882311
 20
9.739550692124105
 30
0.0
 11
4.984404545882311
 21
9.756550692124105
 31
0.0
  0
LINE
  5
4CF
  8
0
 10
4.984404545882311
 20
9.756550692124105
 30
0.0
 11
4.998404545882312
 21
9.760550692124106
 31
0.0
  0
LINE
  5
4D0
  8
0
 10
4.998404545882312
 20
9.760550692124106
 30
0.0
 11
5.007404545882311
 21
9.754550692124106
 31
0.0
  0
LINE
  5
4D1
  8
0
 10
5.007404545882311
 20
9.754550692124106
 30
0.0
 11
5.011404545882312
 21
9.736550692124105
 31
0.0
  0
LINE
  5
4D2
  8
0
 10
5.011404545882312
 20
9.736550692124105
 30
0.0
 11
5.006404545882312
 21
9.717550692124105
 31
0.0
  0
LINE
  5
4D3
  8
0
 10
5.006404545882312
 20
9.717550692124105
 30
0.0
 11
4.986404545882311
 21
9.704550692124105
 31
0.0
  0
LINE
  5
4D4
  8
0
 10
5.216404545882312
 20
9.386550692124105
 30
0.0
 11
5.222404545882311
 21
9.439550692124104
 31
0.0
  0
LINE
  5
4D5
  8
0
 10
5.222404545882311
 20
9.439550692124104
 30
0.0
 11
5.235404545882311
 21
9.479550692124105
 31
0.0
  0
LINE
  5
4D6
  8
0
 10
5.235404545882311
 20
9.479550692124105
 30
0.0
 11
5.258404545882311
 21
9.509550692124105
 31
0.0
  0
LINE
  5
4D7
  8
0
 10
5.258404545882311
 20
9.509550692124105
 30
0.0
 11
5.289404545882311
 21
9.525550692124105
 31
0.0
  0
LINE
  5
4D8
  8
0
 10
5.289404545882311
 20
9.525550692124105
 30
0.0
 11
5.291404545882311
 21
9.504550692124106
 31
0.0
  0
LINE
  5
4D9
  8
0
 10
5.291404545882311
 20
9.504550692124106
 30
0.0
 11
5.294404545882311
 21
9.457550692124105
 31
0.0
  0
LINE
  5
4DA
  8
0
 10
5.294404545882311
 20
9.457550692124105
 30
0.0
 11
5.292404545882311
 21
9.419550692124105
 31
0.0
  0
LINE
  5
4DB
  8
0
 10
5.292404545882311
 20
9.419550692124105
 30
0.0
 11
5.288404545882312
 21
9.391550692124104
 31
0.0
  0
LINE
  5
4DC
  8
0
 10
5.288404545882312
 20
9.391550692124104
 30
0.0
 11
5.279404545882311
 21
9.371550692124105
 31
0.0
  0
LINE
  5
4DD
  8
0
 10
5.279404545882311
 20
9.371550692124105
 30
0.0
 11
5.269404545882312
 21
9.361550692124105
 31
0.0
  0
LINE
  5
4DE
  8
0
 10
5.269404545882312
 20
9.361550692124105
 30
0.0
 11
5.254404545882311
 21
9.360550692124106
 31
0.0
  0
LINE
  5
4DF
  8
0
 10
5.254404545882311
 20
9.360550692124106
 30
0.0
 11
5.237404545882312
 21
9.369550692124106
 31
0.0
  0
LINE
  5
4E0
  8
0
 10
5.237404545882312
 20
9.369550692124106
 30
0.0
 11
5.216404545882312
 21
9.386550692124105
 31
0.0
  0
ENDSEC
  0
EOF
