  0
SECTION
  2
HEADER
  9
$ACADVER
  1
AC1009
  9
$DWGCODEPAGE
  3
ansi_1252
  9
$INSBASE
 10
305.6413031181473
 20
829.0090174065185
 30
0.0
  9
$EXTMIN
 10
210.1889182110883
 20
706.79580891439
 30
0.0
  9
$EXTMAX
 10
415.6298164449823
 20
933.6639307333859
 30
361.325464383244
  9
$LIMMIN
 10
0.0
 20
0.0
  9
$LIMMAX
 10
1728.048
 20
0.0
  9
$ORTHOMODE
 70
     0
  9
$REGENMODE
 70
     0
  9
$FILLMODE
 70
     1
  9
$QTEXTMODE
 70
     0
  9
$MIRRTEXT
 70
     1
  9
$DRAGMODE
 70
     2
  9
$LTSCALE
 40
48.0
  9
$OSMODE
 70
    37
  9
$ATTMODE
 70
     1
  9
$TEXTSIZE
 40
6.0
  9
$TRACEWID
 40
0.05
  9
$TEXTSTYLE
  7
STANDARD
  9
$CLAYER
  8
0
  9
$CELTYPE
  6
BYLAYER
  9
$CECOLOR
 62
   256
  9
$DIMSCALE
 40
48.0
  9
$DIMASZ
 40
0.125
  9
$DIMEXO
 40
0.0625
  9
$DIMDLI
 40
0.0
  9
$DIMRND
 40
0.0
  9
$DIMDLE
 40
0.0
  9
$DIMEXE
 40
0.0625
  9
$DIMTP
 40
0.0
  9
$DIMTM
 40
0.0
  9
$DIMTXT
 40
0.125
  9
$DIMCEN
 40
-0.1
  9
$DIMTSZ
 40
0.0
  9
$DIMTOL
 70
     0
  9
$DIMLIM
 70
     0
  9
$DIMTIH
 70
     0
  9
$DIMTOH
 70
     0
  9
$DIMSE1
 70
     0
  9
$DIMSE2
 70
     0
  9
$DIMTAD
 70
     1
  9
$DIMZIN
 70
     3
  9
$DIMBLK
  1

  9
$DIMASO
 70
     1
  9
$DIMSHO
 70
     1
  9
$DIMPOST
  1

  9
$DIMAPOST
  1

  9
$DIMALT
 70
     0
  9
$DIMALTD
 70
     2
  9
$DIMALTF
 40
25.4
  9
$DIMLFAC
 40
1.0
  9
$DIMTOFL
 70
     0
  9
$DIMTVP
 40
0.0
  9
$DIMTIX
 70
     0
  9
$DIMSOXD
 70
     0
  9
$DIMSAH
 70
     0
  9
$DIMBLK1
  1

  9
$DIMBLK2
  1

  9
$DIMSTYLE
  2
STANDARD
  9
$DIMCLRD
 70
     0
  9
$DIMCLRE
 70
     0
  9
$DIMCLRT
 70
     0
  9
$DIMTFAC
 40
1.0
  9
$DIMGAP
 40
0.03125
  9
$LUNITS
 70
     4
  9
$LUPREC
 70
     4
  9
$SKETCHINC
 40
0.1
  9
$FILLETRAD
 40
0.0
  9
$AUNITS
 70
     0
  9
$AUPREC
 70
     2
  9
$MENU
  1
ACAD
  9
$ELEVATION
 40
0.0
  9
$PELEVATION
 40
0.0
  9
$THICKNESS
 40
0.0
  9
$LIMCHECK
 70
     0
  9
$CHAMFERA
 40
0.0
  9
$CHAMFERB
 40
0.0
  9
$SKPOLY
 70
     0
  9
$TDCREATE
 40
2450481.682894213
  9
$TDUPDATE
 40
2457464.593761574
  9
$TDINDWG
 40
0.000242419
  9
$TDUSRTIMER
 40
0.000242419
  9
$USRTIMER
 70
     1
  9
$ANGBASE
 50
0.0
  9
$ANGDIR
 70
     0
  9
$PDMODE
 70
     0
  9
$PDSIZE
 40
0.0
  9
$PLINEWID
 40
0.0
  9
$COORDS
 70
     1
  9
$SPLFRAME
 70
     0
  9
$SPLINETYPE
 70
     6
  9
$SPLINESEGS
 70
     8
  9
$ATTDIA
 70
     0
  9
$ATTREQ
 70
     1
  9
$HANDLING
 70
     1
  9
$HANDSEED
  5
75D3
  9
$SURFTAB1
 70
    10
  9
$SURFTAB2
 70
     6
  9
$SURFTYPE
 70
     6
  9
$SURFU
 70
     6
  9
$SURFV
 70
     6
  9
$UCSNAME
  2

  9
$UCSORG
 10
0.0
 20
0.0
 30
0.0
  9
$UCSXDIR
 10
1.0
 20
0.0
 30
0.0
  9
$UCSYDIR
 10
0.0
 20
1.0
 30
0.0
  9
$PUCSNAME
  2

  9
$PUCSORG
 10
0.0
 20
0.0
 30
0.0
  9
$PUCSXDIR
 10
1.0
 20
0.0
 30
0.0
  9
$PUCSYDIR
 10
0.0
 20
1.0
 30
0.0
  9
$USERI1
 70
     1
  9
$USERI2
 70
    67
  9
$USERI3
 70
     0
  9
$USERI4
 70
     0
  9
$USERI5
 70
     0
  9
$USERR1
 40
48.0
  9
$USERR2
 40
758075866719.0
  9
$USERR3
 40
0.0
  9
$USERR4
 40
0.0
  9
$USERR5
 40
0.0
  9
$WORLDVIEW
 70
     1
  9
$SHADEDGE
 70
     3
  9
$SHADEDIF
 70
    70
  9
$TILEMODE
 70
     1
  9
$MAXACTVP
 70
    16
  9
$PLIMCHECK
 70
     0
  9
$PEXTMIN
 10
1.000000000000000E+20
 20
1.000000000000000E+20
 30
1.000000000000000E+20
  9
$PEXTMAX
 10
-1.000000000000000E+20
 20
-1.000000000000000E+20
 30
-1.000000000000000E+20
  9
$PLIMMIN
 10
0.0
 20
0.0
  9
$PLIMMAX
 10
12.0
 20
0.0
  9
$UNITMODE
 70
     0
  9
$VISRETAIN
 70
     1
  9
$PLINEGEN
 70
     0
  9
$PSLTSCALE
 70
     0
  0
ENDSEC
  0
SECTION
  2
TABLES
  0
TABLE
  2
VPORT
 70
     1
  0
VPORT
  2
*ACTIVE
 70
     0
 10
0.0
 20
0.0
 11
1.0
 21
1.0
 12
-320.1794562167363
 22
176.9224769503901
 13
0.0
 23
0.0
 14
6.0
 24
6.0
 15
48.0
 25
48.0
 16
0.0
 26
0.0
 36
1.0
 17
633.0480134315394
 27
663.4603974587608
 37
85.08981484199819
 40
269.7740168655159
 41
1.503537735849057
 42
50.0
 43
0.0
 44
0.0
 50
0.0
 51
0.0
 71
     0
 72
   100
 73
     1
 74
     1
 75
     0
 76
     0
 77
     0
 78
     0
  0
ENDTAB
  0
TABLE
  2
LTYPE
 70
     1
  0
LTYPE
  2
CONTINUOUS
 70
     0
  3
Solid line
 72
    65
 73
     0
 40
0.0
  0
ENDTAB
  0
TABLE
  2
LAYER
 70
     1
  0
LAYER
  2
0
 70
     0
 62
     7
  6
CONTINUOUS
  0
ENDTAB
  0
TABLE
  2
STYLE
 70
     1
  0
STYLE
  2
STANDARD
 70
     0
 40
0.0
 41
1.0
 50
0.0
 71
     0
 42
6.0
  3
SIMPLEX.SHX
  4

  0
ENDTAB
  0
TABLE
  2
VIEW
 70
     0
  0
ENDTAB
  0
TABLE
  2
UCS
 70
     0
  0
ENDTAB
  0
TABLE
  2
APPID
 70
     3
  0
APPID
  2
ACAD
 70
     0
  0
APPID
  2
RT_RJH
 70
     0
  0
APPID
  2
DCO15
 70
     0
  0
ENDTAB
  0
TABLE
  2
DIMSTYLE
 70
     1
  0
DIMSTYLE
  2
STANDARD
 70
     0
  3

  4

  5

  6

  7

 40
1.0
 41
0.18
 42
0.0625
 43
0.38
 44
0.18
 45
0.0
 46
0.0
 47
0.0
 48
0.0
140
0.18
141
0.09
142
0.0
143
25.4
144
1.0
145
0.0
146
1.0
147
0.09
 71
     0
 72
     0
 73
     1
 74
     1
 75
     0
 76
     0
 77
     0
 78
     0
170
     0
171
     2
172
     0
173
     0
174
     0
175
     0
176
     0
177
     0
178
     0
  0
ENDTAB
  0
ENDSEC
  0
SECTION
  2
BLOCKS
  0
BLOCK
  8
0
  2
$MODEL_SPACE
 70
     0
 10
0.0
 20
0.0
 30
0.0
  3
$MODEL_SPACE
  1

  0
ENDBLK
  5
756E
  8
0
  0
BLOCK
 67
     1
  8
0
  2
$PAPER_SPACE
 70
     0
 10
0.0
 20
0.0
 30
0.0
  3
$PAPER_SPACE
  1

  0
ENDBLK
  5
756C
 67
     1
  8
0
  0
BLOCK
  8
0
  2
*U0
 70
     1
 10
0.0
 20
0.0
 30
0.0
  3
*U0
  1
*U
  0
LINE
  5
5A77
  8
0
 10
0.0
 20
0.0
 30
0.0
 11
0.0
 21
0.0
 31
79.2075258644368
  0
LINE
  5
5A78
  8
0
 10
0.0
 20
0.0
 30
79.2075258644368
 11
-4.482487628835145
 21
-10.16938836631402
 31
90.76926288255704
  0
LINE
  5
5A79
  8
0
 10
-4.482487628835145
 20
-10.16938836631402
 30
90.76926288255704
 11
-8.622030357206256
 21
-19.56074003295464
 31
103.0919905772369
  0
LINE
  5
5A7A
  8
0
 10
-8.622030357206256
 20
-19.56074003295464
 30
103.0919905772369
 11
-12.42779151086756
 21
-28.19484377304036
 31
116.0593092133496
  0
LINE
  5
5A7B
  8
0
 10
-12.42779151086756
 20
-28.19484377304036
 30
116.0593092133496
 11
-15.91355126854637
 21
-36.10296258177345
 31
129.5683452182784
  0
LINE
  5
5A7C
  8
0
 10
-15.91355126854637
 20
-36.10296258177345
 30
129.5683452182784
 11
-19.09621116250543
 21
-43.32344084731471
 31
143.5296591815122
  0
LINE
  5
5A7D
  8
0
 10
-19.09621116250543
 20
-43.32344084731471
 30
143.5296591815122
 11
-21.99456527816204
 21
-49.89891657994406
 31
157.8665200748045
  0
LINE
  5
5A7E
  8
0
 10
-21.99456527816204
 20
-49.89891657994406
 30
157.8665200748045
 11
-24.62833335918248
 21
-55.87412782434376
 31
172.5138076818651
  0
LINE
  5
5A7F
  8
0
 10
-24.62833335918248
 20
-55.87412782434376
 30
172.5138076818651
 11
-27.01742971438898
 21
-61.29425403380617
 31
187.4167392204179
  0
LINE
  5
5A80
  8
0
 10
-6.966210684600412
 20
-15.80419351021783
 30
98.16289181539264
 11
-24.90739534527074
 21
-56.19103416058579
 31
102.4446553881504
  0
LINE
  5
5A81
  8
0
 10
-9.472847728319607
 20
-21.49098345850234
 30
105.9909691276255
 11
-2.765854553195481
 21
-55.22606241251822
 31
125.863333334697
  0
LINE
  5
5A82
  8
0
 10
-11.84597193402163
 20
-26.87487376397462
 30
114.0768832183732
 11
12.86914674524206
 21
-41.56878066299771
 31
144.0010918503433
  0
LINE
  5
5A83
  8
0
 10
-14.06847712851425
 20
-31.91705577102653
 30
122.4177741169426
 11
-10.27474474916693
 21
-20.80502713945998
 31
156.0372529269281
  0
LINE
  5
5A84
  8
0
 10
-16.21349579926175
 20
-36.78344464302324
 30
130.8841062183214
 11
-35.70922951898126
 21
-24.44639085315293
 31
158.4312914399887
  0
LINE
  5
5A85
  8
0
 10
-18.19807836446165
 20
-41.28585324326264
 30
139.5898370227051
 11
-49.4694470334598
 21
-54.22878956519696
 31
153.9083174546965
  0
LINE
  5
5A86
  8
0
 10
-20.08560879184938
 20
-45.56808033650918
 30
148.4237665314156
 11
-34.94083993948539
 21
-75.14726350671049
 31
153.7597544002108
  0
LINE
  5
5A87
  8
0
 10
-21.89290936349556
 20
-49.66829051656669
 30
157.363673752583
 11
-12.46745578705003
 21
-75.49052854580998
 31
168.4272029667136
  0
LINE
  5
5A88
  8
0
 10
-23.54450440770091
 20
-53.41525265436701
 30
166.4862631597754
 11
-5.993850952832304
 21
-60.83718143809574
 31
186.6827902012037
  0
LINE
  5
5A89
  8
0
 10
-25.13493722101066
 20
-57.02345646624872
 30
175.6739492364484
 11
-22.98912072042884
 21
-47.25625773739478
 31
197.1586208448888
  0
LINE
  5
5A8A
  8
0
 10
-26.62468451764289
 20
-60.40323574989111
 30
184.9668360315212
 11
-38.43909768259095
 21
-46.30538746190348
 31
201.8055418062697
  0
LINE
  5
5A8B
  8
0
 10
-27.01742822464166
 20
-61.29425065402688
 30
187.4167299275312
 11
-43.94922924790387
 21
-66.0181742529287
 31
199.697516528437
  0
LINE
  5
5A8C
  8
0
 10
0.0
 20
0.0
 30
79.2075258644368
 11
0.656468226435095
 21
1.489324878850539
 31
84.13016447438972
  0
LINE
  5
5A8D
  8
0
 10
0.656468226435095
 20
1.489324878850539
 30
84.13016447438972
 11
13.18542427328146
 21
0.9397431444757558
 31
94.36949579942728
  0
LINE
  5
5A8E
  8
0
 10
13.18542427328146
 20
0.9397431444757558
 30
94.36949579942728
 11
24.85409127593277
 21
0.427897925673733
 31
105.5811375411031
  0
LINE
  5
5A8F
  8
0
 10
24.85409127593277
 20
0.427897925673733
 30
105.5811375411031
 11
35.65918084411533
 21
-0.0460665325583705
 31
117.6287963512764
  0
LINE
  5
5A90
  8
0
 10
35.65918084411533
 20
-0.0460665325583705
 30
117.6287963512764
 11
45.61574169587976
 21
-0.482810341129607
 31
130.3879827101807
  0
LINE
  5
5A91
  8
0
 10
45.61574169587976
 20
-0.482810341129607
 30
130.3879827101807
 11
54.75260325018758
 21
-0.8835981003797997
 31
143.7475416774486
  0
LINE
  5
5A92
  8
0
 10
54.75260325018758
 20
-0.8835981003797997
 30
143.7475416774486
 11
63.10830693933377
 21
-1.250120427398315
 31
157.6100292945196
  0
LINE
  5
5A93
  8
0
 10
63.10830693933377
 20
-1.250120427398315
 30
157.6100292945196
 11
70.72767567073629
 21
-1.584343475718356
 31
171.8912827681948
  0
LINE
  5
5A94
  8
0
 10
70.72767567073629
 20
-1.584343475718356
 30
171.8912827681948
 11
77.65905353300104
 21
-1.888387855226711
 31
186.5194830551835
  0
LINE
  5
5A95
  8
0
 10
20.18661726760547
 20
0.6326363293406985
 30
101.0964739194521
 11
66.69106583394802
 21
1.970342108580894
 31
103.7482818403655
  0
LINE
  5
5A96
  8
0
 10
27.20591847987629
 20
0.324735198558983
 30
108.2034213782524
 11
58.06217126349543
 21
25.24157529278125
 31
125.4348858481608
  0
LINE
  5
5A97
  8
0
 10
33.87978818496254
 20
0.0319863954026687
 30
115.6447761808258
 11
41.90300239673132
 21
22.33865366337091
 31
148.6888664922214
  0
LINE
  5
5A98
  8
0
 10
40.16929232795724
 20
-0.2439022406769027
 30
123.4084379141134
 11
38.10606865793318
 21
0.9752203523595426
 31
160.5438034144348
  0
LINE
  5
5A99
  8
0
 10
46.26115746646713
 20
-0.5111214563786461
 30
131.3316842201922
 11
48.69185709499067
 21
-24.33782976608529
 31
161.4029912766886
  0
LINE
  5
5A9A
  8
0
 10
51.90462975256673
 20
-0.7586719526285606
 30
139.5833470409715
 11
74.9776737837023
 21
-24.65209186801087
 31
151.9209831016535
  0
LINE
  5
5A9B
  8
0
 10
57.3091002925317
 20
-0.9957386548842351
 30
147.9888850652723
 11
88.86319733237644
 21
0.4835916198104542
 31
161.1166329022001
  0
LINE
  5
5A9C
  8
0
 10
62.470082750269
 20
-1.222124770343271
 30
156.5511867066334
 11
81.55219667189795
 21
17.4422307202617
 31
170.2328342963157
  0
LINE
  5
5A9D
  8
0
 10
67.23250332231208
 20
-1.431027998035916
 30
165.3401570776497
 11
63.32538333691048
 21
17.1924605165193
 31
185.9510583967043
  0
LINE
  5
5A9E
  8
0
 10
71.82933351582165
 20
-1.632667615967989
 30
174.2162565217358
 11
64.61569543111239
 21
-0.1124349748246232
 31
199.0880989181011
  0
LINE
  5
5A9F
  8
0
 10
76.1105671361048
 20
-1.8204636134559
 30
183.251508114906
 11
71.93906860146546
 21
-19.16165843031331
 31
199.3229877551074
  0
LINE
  5
5AA0
  8
0
 10
77.65904925176739
 20
-1.88838766743072
 30
186.5194740199319
 11
90.17965553667864
 21
-17.2008313437766
 31
197.1018846935992
  0
LINE
  5
5AA1
  8
0
 10
0.656468226435095
 20
1.489324878850539
 30
84.13016447438972
 11
-0.3055249356899026
 21
3.433390967667265
 31
88.83882915581135
  0
LINE
  5
5AA2
  8
0
 10
-0.3055249356899026
 20
3.433390967667265
 30
88.83882915581135
 11
4.079796647905823
 21
14.87860591724132
 31
93.16896227803322
  0
LINE
  5
5AA3
  8
0
 10
4.079796647905823
 20
14.87860591724132
 30
93.16896227803322
 11
8.28718323197694
 21
25.85942976623346
 31
98.7091291725636
  0
LINE
  5
5AA4
  8
0
 10
8.28718323197694
 20
25.85942976623346
 30
98.7091291725636
 11
12.28596306599678
 21
36.2958125636959
 31
105.3473305429299
  0
LINE
  5
5AA5
  8
0
 10
12.28596306599678
 20
36.2958125636959
 30
105.3473305429299
 11
16.05466235341697
 21
46.1317100235724
 31
112.9648150574833
  0
LINE
  5
5AA6
  8
0
 10
16.05466235341697
 20
46.1317100235724
 30
112.9648150574833
 11
19.58040208747229
 21
55.3335093313965
 31
121.4424380920312
  0
LINE
  5
5AA7
  8
0
 10
19.58040208747229
 20
55.3335093313965
 30
121.4424380920312
 11
22.85782327266122
 21
63.88722408862031
 31
130.6655892735197
  0
LINE
  5
5AA8
  8
0
 10
22.85782327266122
 20
63.88722408862031
 30
130.6655892735197
 11
25.88777628614633
 21
71.79507368764848
 31
140.5276044299109
  0
LINE
  5
5AA9
  8
0
 10
25.88777628614633
 20
71.79507368764848
 30
140.5276044299109
 11
28.6759636984703
 21
79.07194122071974
 31
150.9317984568194
  0
LINE
  5
5AAA
  8
0
 10
6.604225361648673
 20
21.46709177920025
 30
96.4930581527573
 11
20.59852532848049
 21
59.36661771605441
 31
79.43958345201959
  0
LINE
  5
5AAB
  8
0
 10
9.763888955481377
 20
29.71347196145064
 30
101.1605444452921
 11
1.365298535542593
 21
68.29301758906513
 31
111.2817145721598
  0
LINE
  5
5AAC
  8
0
 10
12.80822537330664
 20
37.65886068987697
 30
106.4029533812251
 11
1.309459139305659
 21
59.5373588356822
 31
134.8907876883243
  0
LINE
  5
5AAD
  8
0
 10
15.70744747776672
 20
45.2255167582091
 30
112.2630068905868
 11
17.00039883963137
 21
51.43442605225846
 31
145.1191317895855
  0
LINE
  5
5AAE
  8
0
 10
18.44214742505574
 20
52.36278779356337
 30
118.7055106177547
 11
39.92013350834071
 21
52.79974841831836
 31
141.1228098963697
  0
LINE
  5
5AAF
  8
0
 10
21.04360177426918
 20
59.15230223182698
 30
125.5600998625175
 11
48.84751428552187
 21
74.00768594267072
 31
132.3003676174598
  0
LINE
  5
5AB0
  8
0
 10
23.51150025353854
 20
65.59325029698675
 30
132.7932038814377
 11
32.95681652399082
 21
93.06032303939776
 31
138.6803087634848
  0
LINE
  5
5AB1
  8
0
 10
25.84241234872582
 20
71.67667871823983
 30
140.3799520285689
 11
16.63206656854936
 21
94.93161647082366
 31
142.7555212126622
  0
LINE
  5
5AB2
  8
0
 10
27.99095629434584
 20
77.28414599685709
 30
148.3756754677841
 11
12.79046564002726
 21
83.61324476271898
 31
166.1151620143931
  0
LINE
  5
5AB3
  8
0
 10
28.67596155354602
 20
79.07193562269947
 30
150.9317904529786
 11
30.08308421050361
 21
75.44976098382097
 31
173.4421128506232
  0
LINE
  5
5AB4
  8
0
 10
-0.3055249356899026
 20
3.433390967667265
 30
88.83882915581135
 11
-2.463141039998163
 21
3.874555247576041
 31
94.42156280632628
  0
LINE
  5
5AB5
  8
0
 10
-2.463141039998163
 20
3.874555247576041
 30
94.42156280632628
 11
-9.387255680490284
 21
11.47698068540433
 31
102.7525152720133
  0
LINE
  5
5AB6
  8
0
 10
-9.387255680490284
 20
11.47698068540433
 30
102.7525152720133
 11
-15.83776187988661
 21
18.55940132159333
 31
111.8835224881745
  0
LINE
  5
5AB7
  8
0
 10
-15.83776187988661
 20
18.55940132159333
 30
111.8835224881745
 11
-21.81232610742666
 21
25.11925502444319
 31
121.7027845157486
  0
LINE
  5
5AB8
  8
0
 10
-21.81232610742666
 20
25.11925502444319
 30
121.7027845157486
 11
-27.31883579106471
 21
31.16520190229016
 31
132.1080659887414
  0
LINE
  5
5AB9
  8
0
 10
-27.31883579106471
 20
31.16520190229016
 30
132.1080659887414
 11
-32.37288011355912
 21
36.71435830945677
 31
143.0079973753611
  0
LINE
  5
5ABA
  8
0
 10
-32.37288011355912
 20
36.71435830945677
 30
143.0079973753611
 11
-36.99549375935851
 21
41.78981956259099
 31
154.3224192000747
  0
LINE
  5
5ABB
  8
0
 10
-36.99549375935851
 20
41.78981956259099
 30
154.3224192000747
 11
-41.21125009475696
 21
46.41856632199483
 31
165.9820550020974
  0
LINE
  5
5ABC
  8
0
 10
-41.21125009475696
 20
46.41856632199483
 30
165.9820550020974
 11
-45.04672386151503
 21
50.62977668526696
 31
177.9277593906521
  0
LINE
  5
5ABD
  8
0
 10
-13.25755452602266
 20
15.72642771552762
 30
108.2311127021753
 11
-36.95526395223089
 21
48.82569156649049
 31
109.1822054706933
  0
LINE
  5
5ABE
  8
0
 10
-17.96240775267614
 20
20.89218503017219
 30
115.3754013509974
 11
-53.43787327335855
 21
29.21030711898356
 31
134.158493480037
  0
LINE
  5
5ABF
  8
0
 10
-22.42482157999899
 20
25.79175272313921
 30
122.8601760685113
 11
-44.63512261239907
 21
22.15418989020873
 31
155.0337651785258
  0
LINE
  5
5AC0
  8
0
 10
-26.58562817523506
 20
30.36016667118702
 30
130.7225728071859
 11
-25.6517487010268
 21
29.21581907866118
 31
166.5849024208756
  0
LINE
  5
5AC1
  8
0
 10
-30.46479178804236
 20
34.61934689258908
 30
138.8928708547694
 11
-15.22634791251238
 21
52.07063065288946
 31
162.5213276970278
  0
LINE
  5
5AC2
  8
0
 10
-34.12059343974954
 20
38.63328382397094
 30
147.2857431089162
 11
-37.16140127108207
 21
66.95376057485964
 31
160.2580527580955
  0
LINE
  5
5AC3
  8
0
 10
-37.55911929530703
 20
42.40865985256062
 30
155.8812541884016
 11
-57.8322325408694
 21
59.94538174540605
 31
159.1674825317271
  0
LINE
  5
5AC4
  8
0
 10
-40.74461206150607
 20
45.90621477404409
 30
164.6914610763072
 11
-61.63921991978214
 21
47.88128520934606
 31
178.2347070118987
  0
LINE
  5
5AC5
  8
0
 10
-43.68485036341752
 20
49.13448923515841
 30
173.6861612955539
 11
-54.57073394575195
 21
36.63694690917055
 31
189.9447376926334
  0
LINE
  5
5AC6
  8
0
 10
-45.04672096336986
 20
50.62977350320921
 30
177.9277503642872
 11
-36.341981815221
 21
44.69835482445103
 31
199.3031754424386
  0
LINE
  5
5AC7
  8
0
 10
-2.463141039998163
 20
3.874555247576041
 30
94.42156280632628
 11
-3.664148774896944
 21
2.973230097190935
 31
99.30597575885614
  0
LINE
  5
5AC8
  8
0
 10
-3.664148774896944
 20
2.973230097190935
 30
99.30597575885614
 11
-14.39450859753697
 21
5.279554456394521
 31
107.033833243658
  0
LINE
  5
5AC9
  8
0
 10
-14.39450859753697
 20
5.279554456394521
 30
107.033833243658
 11
-24.44316857478509
 21
7.439358010603769
 31
115.6674429491908
  0
LINE
  5
5ACA
  8
0
 10
-24.44316857478509
 20
7.439358010603769
 30
115.6674429491908
 11
-33.79216733657995
 21
9.448780241999884
 31
125.0875267984207
  0
LINE
  5
5ACB
  8
0
 10
-33.79216733657995
 20
9.448780241999884
 30
125.0875267984207
 11
-42.44161629982517
 21
11.30784509791761
 31
135.1825971682744
  0
LINE
  5
5ACC
  8
0
 10
-42.44161629982517
 20
11.30784509791761
 30
135.1825971682744
 11
-50.40586247569951
 21
13.01963624581163
 31
145.8512469982508
  0
LINE
  5
5ACD
  8
0
 10
-50.40586247569951
 20
13.01963624581163
 30
145.8512469982508
 11
-57.70984447958733
 21
14.589513854129
 31
157.0032363481551
  0
LINE
  5
5ACE
  8
0
 10
-57.70984447958733
 20
14.589513854129
 30
157.0032363481551
 11
-64.38587327487699
 21
16.02442266313608
 31
168.5596722828579
  0
LINE
  5
5ACF
  8
0
 10
-64.38587327487699
 20
16.02442266313608
 30
168.5596722828579
 11
-70.47094074186234
 21
17.33231350356209
 31
180.4525655704628
  0
LINE
  5
5AD0
  8
0
 10
-20.42369709778933
 20
6.575434979899796
 30
112.2139926350718
 11
-62.88081672523353
 21
20.08113391281063
 31
106.7942381522909
  0
LINE
  5
5AD1
  8
0
 10
-27.66842178292018
 20
8.132576146944984
 30
118.91721936159
 11
-62.96463563763334
 21
-9.900814874915113
 31
126.453415299591
  0
LINE
  5
5AD2
  8
0
 10
-34.57034410968976
 20
9.616037265739465
 30
125.9957637645108
 11
-50.29870275389555
 21
-9.998798115539216
 31
151.4836458735942
  0
LINE
  5
5AD3
  8
0
 10
-41.01404999236922
 20
11.00101186923894
 30
133.5164352667892
 11
-42.73083581416523
 21
10.5424494854467
 31
170.9119984952227
  0
LINE
  5
5AD4
  8
0
 10
-47.06038110199785
 20
12.30057693065703
 30
141.3697469917781
 11
-48.32516078199143
 21
33.84764431418887
 31
165.6217142550744
  0
LINE
  5
5AD5
  8
0
 10
-52.77908711787006
 20
13.52972406137133
 30
149.4747739894631
 11
-70.87601337476937
 21
35.63031930241391
 31
165.8813278405196
  0
LINE
  5
5AD6
  8
0
 10
-58.17654283468514
 20
14.68982342459572
 30
157.8111072856388
 11
-85.06188817778374
 21
21.73818353716206
 31
163.4897988953905
  0
LINE
  5
5AD7
  8
0
 10
-63.15008117267024
 20
15.75880832444284
 30
166.4204735622291
 11
-81.53825032638971
 21
-1.131216014639676
 31
175.5594205802699
  0
LINE
  5
5AD8
  8
0
 10
-67.7927546285388
 20
16.7566789513445
 30
175.218214131812
 11
-70.56030203407232
 21
0.4724022653952034
 31
191.3617089196895
  0
LINE
  5
5AD9
  8
0
 10
-70.47093620858104
 20
17.33231252920359
 30
180.452556710441
 11
-61.3233066883555
 21
13.63153043611908
 31
200.541626060017
  0
LINE
  5
5ADA
  8
0
 10
-3.664148774896944
 20
2.973230097190935
 30
99.30597575885614
 11
-3.380709283551425
 21
1.593224365231777
 31
103.6746642440948
  0
LINE
  5
5ADB
  8
0
 10
-3.380709283551425
 20
1.593224365231777
 30
103.6746642440948
 11
-13.12748531017871
 21
-2.904535860882334
 31
114.7778798031954
  0
LINE
  5
5ADC
  8
0
 10
-13.12748531017871
 20
-2.904535860882334
 30
114.7778798031954
 11
-22.13026536671828
 21
-7.058970717304192
 31
126.6185515744264
  0
LINE
  5
5ADD
  8
0
 10
-22.13026536671828
 20
-7.058970717304192
 30
126.6185515744264
 11
-30.40845302626491
 21
-10.87903420267617
 31
139.0840884564769
  0
LINE
  5
5ADE
  8
0
 10
-30.40845302626491
 20
-10.87903420267617
 30
139.0840884564769
 11
-37.99159784132701
 21
-14.37836229279253
 31
152.0749122697778
  0
LINE
  5
5ADF
  8
0
 10
-37.99159784132701
 20
-14.37836229279253
 30
152.0749122697778
 11
-44.91613152988003
 21
-17.57376681667574
 31
165.5043988140037
  0
LINE
  5
5AE0
  8
0
 10
-44.91613152988003
 20
-17.57376681667574
 30
165.5043988140037
 11
-51.22268136365892
 21
-20.483995689165
 31
179.2981975228619
  0
LINE
  5
5AE1
  8
0
 10
-51.22268136365892
 20
-20.483995689165
 30
179.2981975228619
 11
-56.9539528093029
 21
-23.12875583168375
 31
193.3931844728947
  0
LINE
  5
5AE2
  8
0
 10
-56.9539528093029
 20
-23.12875583168375
 30
193.3931844728947
 11
-62.15312608793511
 21
-25.52797324649066
 31
207.7362398911781
  0
LINE
  5
5AE3
  8
0
 10
-18.52914751472014
 20
-5.397194084700914
 30
121.8822751989909
 11
-59.6209546219149
 21
-23.83229365758007
 31
135.2241246600262
  0
LINE
  5
5AE4
  8
0
 10
-24.17918704423943
 20
-8.004468839185847
 30
129.7038777098056
 11
-38.87678575142331
 21
-45.72089967583474
 31
142.8354465706382
  0
LINE
  5
5AE5
  8
0
 10
-29.53938914578129
 20
-10.47799482874234
 30
137.7754266695539
 11
-18.33835626113313
 21
-31.41186296992282
 31
168.8260402414527
  0
LINE
  5
5AE6
  8
0
 10
-34.52251191395754
 20
-12.77751328769909
 30
146.131957839296
 11
-23.61253327418439
 21
-8.06459848148154
 31
183.4464347838684
  0
LINE
  5
5AE7
  8
0
 10
-39.30750768301664
 20
-14.98560379818207
 30
154.6269965410406
 11
-53.84270108793368
 21
-1.102968557020517
 31
182.1138776136912
  0
LINE
  5
5AE8
  8
0
 10
-43.79120647749556
 20
-17.05465740612271
 30
163.3227117093206
 11
-71.91774283065979
 21
-2.497745358672432
 31
176.604312013629
  0
LINE
  5
5AE9
  8
0
 10
-47.97514964396953
 20
-18.9853853833614
 30
172.1951380017758
 11
-73.61971744107134
 21
-28.08893703760293
 31
180.7509277356914
  0
LINE
  5
5AEA
  8
0
 10
-51.98243746351056
 20
-20.83459374929532
 30
181.166675122323
 11
-63.23992523089069
 21
-41.88662695649452
 31
197.1033090963694
  0
LINE
  5
5AEB
  8
0
 10
-55.69348805947283
 20
-22.54710009211237
 30
190.293307880357
 11
-48.91412056668474
 21
-38.18630864161253
 31
212.4986363818923
  0
LINE
  5
5AEC
  8
0
 10
-59.17702330405123
 20
-24.1546168983391
 30
199.5260101349997
 11
-53.33142084731492
 21
-20.2768740229651
 31
220.7734221585184
  0
LINE
  5
5AED
  8
0
 10
-62.15312272142293
 20
-25.52797169297548
 30
207.7362306039187
 11
-64.28469254066118
 21
-14.60798357649298
 31
224.4374820396348
  0
LINE
  5
5AEE
  8
0
 10
-3.380709283551425
 20
1.593224365231777
 30
103.6746642440948
 11
-0.544538235377388
 21
-0.3642728662887293
 31
110.5867425289713
  0
LINE
  5
5AEF
  8
0
 10
-0.544538235377388
 20
-0.3642728662887293
 30
110.5867425289713
 11
-1.656196094553934
 21
-12.50719240097294
 31
116.3373015816505
  0
LINE
  5
5AF0
  8
0
 10
-1.656196094553934
 20
-12.50719240097294
 30
116.3373015816505
 11
-2.712699932261785
 21
-24.0476506305173
 31
123.2261934325279
  0
LINE
  5
5AF1
  8
0
 10
-2.712699932261785
 20
-24.0476506305173
 30
123.2261934325279
 11
-3.708384293494703
 21
-34.92376235913036
 31
131.1302438979258
  0
LINE
  5
5AF2
  8
0
 10
-3.708384293494703
 20
-34.92376235913036
 30
131.1302438979258
 11
-4.639854102887512
 21
-45.09844232120315
 31
139.9258939082217
  0
LINE
  5
5AF3
  8
0
 10
-4.639854102887512
 20
-45.09844232120315
 30
139.9258939082217
 11
-5.505700280865824
 21
-54.55629878469517
 31
149.4943038572204
  0
LINE
  5
5AF4
  8
0
 10
-5.505700280865824
 20
-54.55629878469517
 30
149.4943038572204
 11
-6.306153253975367
 21
-63.29984875695698
 31
159.7248862629505
  0
LINE
  5
5AF5
  8
0
 10
-6.306153253975367
 20
-63.29984875695698
 30
159.7248862629505
 11
-7.042724331485033
 21
-71.34560065080018
 31
170.5174089963308
  0
LINE
  5
5AF6
  8
0
 10
-7.042724331485033
 20
-71.34560065080018
 30
170.5174089963308
 11
-7.717869278476826
 21
-78.72037940839652
 31
181.7829327310309
  0
LINE
  5
5AF7
  8
0
 10
-2.290097613518697
 20
-19.4314587785841
 30
120.470631582353
 11
-0.842799654454609
 21
-61.45668169012424
 31
110.0713494699213
  0
LINE
  5
5AF8
  8
0
 10
-3.052972646902219
 20
-27.76453542525803
 30
125.9273835016232
 11
20.37148975597432
 21
-56.39628289739596
 31
133.3046683807183
  0
LINE
  5
5AF9
  8
0
 10
-3.786158193478514
 20
-35.77330630973188
 30
131.8646445164916
 11
17.89726735667165
 21
-52.00354702456809
 31
162.4218967365397
  0
LINE
  5
5AFA
  8
0
 10
-4.477074355503476
 20
-43.32035803200949
 30
138.3888030950609
 11
-5.941276917326832
 21
-47.15513051756284
 31
171.9205541038303
  0
LINE
  5
5AFB
  8
0
 10
-5.130782409373467
 20
-50.46097619234729
 30
145.3511107787211
 11
-27.50939856889113
 21
-52.76678771854677
 31
171.9999997393332
  0
LINE
  5
5AFC
  8
0
 10
-5.752832800629221
 20
-57.25578970910044
 30
152.652902417675
 11
-25.62644352405505
 21
-79.48250796531818
 31
166.7585299757233
  0
LINE
  5
5AFD
  8
0
 10
-6.343342102367046
 20
-63.70607193963838
 30
160.2697915734499
 11
-8.605139512565131
 21
-91.6042181599995
 31
167.9935571452039
  0
LINE
  5
5AFE
  8
0
 10
-6.889692458331126
 20
-69.67399485355736
 30
168.2751271305679
 11
9.06500509255477
 21
-90.53532529724328
 31
176.4869942019015
  0
LINE
  5
5AFF
  8
0
 10
-7.403242133956439
 20
-75.28362765262807
 30
176.5330384972545
 11
7.891985922240565
 21
-78.4652721846885
 31
193.2344975895042
  0
LINE
  5
5B00
  8
0
 10
-7.717868777689205
 20
-78.72037393816674
 30
181.7829243748477
 11
-6.45644873046632
 21
-72.7536540811493
 31
202.2892397977166
  0
LINE
  5
5B01
  8
0
 10
-0.544538235377388
 20
-0.3642728662887293
 30
110.5867425289713
 11
2.135722556166456
 21
0.0839273445329809
 31
115.6129537855549
  0
LINE
  5
5B02
  8
0
 10
2.135722556166456
 20
0.0839273445329809
 30
115.6129537855549
 11
15.66933547975788
 21
-6.000568524578171
 31
120.4409204683859
  0
LINE
  5
5B03
  8
0
 10
15.66933547975788
 20
-6.000568524578171
 30
120.4409204683859
 11
28.68542221930869
 21
-11.85239290036895
 31
126.751757853452
  0
LINE
  5
5B04
  8
0
 10
28.68542221930869
 20
-11.85239290036895
 30
126.751757853452
 11
41.08327072034223
 21
-17.42626725426817
 31
134.4142840863418
  0
LINE
  5
5B05
  8
0
 10
41.08327072034223
 20
-17.42626725426817
 30
134.4142840863418
 11
52.79045844059715
 21
-22.68963156984057
 31
143.287151875373
  0
LINE
  5
5B06
  8
0
 10
52.79045844059715
 20
-22.68963156984057
 30
143.287151875373
 11
63.76147114529056
 21
-27.62202337523286
 31
153.226841123479
  0
LINE
  5
5B07
  8
0
 10
63.76147114529056
 20
-27.62202337523286
 30
153.226841123479
 11
73.97469349662305
 21
-32.21372476035754
 31
164.0940118053742
  0
LINE
  5
5B08
  8
0
 10
73.97469349662305
 20
-32.21372476035754
 30
164.0940118053742
 11
83.42851346602856
 21
-36.46401098295951
 31
175.7580328122735
  0
LINE
  5
5B09
  8
0
 10
83.42851346602856
 20
-36.46401098295951
 30
175.7580328122735
 11
92.13716031948638
 21
-40.3792792933931
 31
188.0997982887533
  0
LINE
  5
5B0A
  8
0
 10
23.47897918205405
 20
-9.511659399877203
 30
124.227418855089
 11
62.74080357423117
 21
-24.17768985758516
 31
108.1346907104242
  0
LINE
  5
5B0B
  8
0
 10
31.67150762874036
 20
-13.19488913113003
 30
128.5973166035458
 11
70.44992487268883
 21
-2.445350393547642
 31
134.9376997147994
  0
LINE
  5
5B0C
  8
0
 10
39.61674038381818
 20
-16.76693867550023
 30
133.5078907573696
 11
66.97800117282043
 21
0.3700723121348801
 31
159.7776257864028
  0
LINE
  5
5B0D
  8
0
 10
47.20105683390511
 20
-20.17672602283483
 30
139.0509490689404
 11
48.69798184665177
 21
-25.90478140986681
 31
176.3275015305659
  0
LINE
  5
5B0E
  8
0
 10
54.58336812359829
 20
-23.49569508159459
 30
144.9115201610216
 11
55.71356295136229
 21
-45.32231784205976
 31
171.8906216665521
  0
LINE
  5
5B0F
  8
0
 10
61.61420492487383
 20
-26.65664683300645
 30
151.2814273737741
 11
80.10188469789642
 21
-53.47705522998365
 31
159.9281757783763
  0
LINE
  5
5B10
  8
0
 10
68.30772348801179
 20
-29.66594570073437
 30
158.0641880911451
 11
94.93421792322977
 21
-42.57241028748592
 31
161.72249796152
  0
LINE
  5
5B11
  8
0
 10
74.78762514483873
 20
-32.57920582467966
 30
165.0969980958523
 11
102.3706775138709
 21
-25.039648037078
 31
171.3023564088811
  0
LINE
  5
5B12
  8
0
 10
80.84616022657235
 20
-35.30302627719277
 30
172.5719532666794
 11
93.8818208611666
 21
-21.62481749420851
 31
190.4460576399861
  0
LINE
  5
5B13
  8
0
 10
86.63069418882264
 20
-37.90366020966553
 30
180.2961159564231
 11
80.64080612299222
 21
-38.15178855571799
 31
202.0226218033001
  0
LINE
  5
5B14
  8
0
 10
92.13715473849982
 20
-40.37927678427081
 30
188.0997903794617
 11
89.4952408245644
 21
-55.10888329430827
 31
205.3433373845593
  0
LINE
  5
5B15
  8
0
 10
2.135722556166456
 20
0.0839273445329809
 30
115.6129537855549
 11
2.991674227595297
 21
1.235525315647919
 31
119.700853552771
  0
LINE
  5
5B16
  8
0
 10
2.991674227595297
 20
1.235525315647919
 30
119.700853552771
 11
15.32874383578985
 21
6.273051542331473
 31
124.0057688475568
  0
LINE
  5
5B17
  8
0
 10
15.32874383578985
 20
6.273051542331473
 30
124.0057688475568
 11
27.19647929063092
 21
11.11893719457703
 31
129.6437206136249
  0
LINE
  5
5B18
  8
0
 10
27.19647929063092
 20
11.11893719457703
 30
129.6437206136249
 11
38.50261603218507
 21
15.73550840369296
 31
136.4972448858285
  0
LINE
  5
5B19
  8
0
 10
38.50261603218507
 20
15.73550840369296
 30
136.4972448858285
 11
49.1806656224943
 21
20.09561631986151
 31
144.4395977238422
  0
LINE
  5
5B1A
  8
0
 10
49.1806656224943
 20
20.09561631986151
 30
144.4395977238422
 11
59.18869463133126
 21
24.18213850142877
 31
153.3419538454022
  0
LINE
  5
5B1B
  8
0
 10
59.18869463133126
 20
24.18213850142877
 30
153.3419538454022
 11
68.50660619439498
 21
27.98686890885665
 31
163.079140468188
  0
LINE
  5
5B1C
  8
0
 10
68.50660619439498
 20
27.98686890885665
 30
163.079140468188
 11
77.1326014720018
 21
31.50907303205702
 31
173.5337344958132
  0
LINE
  5
5B1D
  8
0
 10
77.1326014720018
 20
31.50907303205702
 30
173.5337344958132
 11
85.07938853669839
 21
34.75393988679934
 31
184.598618911866
  0
LINE
  5
5B1E
  8
0
 10
22.44937663416698
 20
9.180579473322723
 30
127.3885358812419
 11
64.50361110976525
 21
26.142230090147
 31
121.6425653688555
  0
LINE
  5
5B1F
  8
0
 10
30.74751689082734
 20
12.56891240028119
 30
131.7962792586133
 11
52.80014459979725
 21
48.29998320010793
 31
139.4135677847763
  0
LINE
  5
5B20
  8
0
 10
38.80332919267266
 20
15.85829691674951
 30
136.7209158852397
 11
47.60969481501678
 21
38.34123156003579
 31
162.8230844131873
  0
LINE
  5
5B21
  8
0
 10
46.42832429863046
 20
18.97176827133137
 30
142.3924012072975
 11
49.3216657690881
 21
20.80405217786426
 31
175.4978838910001
  0
LINE
  5
5B22
  8
0
 10
53.74757271435431
 20
21.9603957999733
 30
148.5019593806596
 11
76.34446280388693
 21
10.97964389264575
 31
171.1374724048145
  0
LINE
  5
5B23
  8
0
 10
60.77651881150416
 20
24.83048581606749
 30
155.001224837821
 11
90.83179527809432
 21
17.83969887737544
 31
164.2511087531996
  0
LINE
  5
5B24
  8
0
 10
67.43026484117127
 20
27.54737249942343
 30
161.9543673304276
 11
96.89897333319368
 21
36.61019146685089
 31
160.4855871217017
  0
LINE
  5
5B25
  8
0
 10
73.66985185032223
 20
30.09514795992618
 30
169.3369270145997
 11
83.70933886184594
 21
53.39538158279254
 31
175.2771891623545
  0
LINE
  5
5B26
  8
0
 10
79.61715940986659
 20
32.52357859708968
 30
176.9931635938433
 11
77.8593680213126
 21
47.88729525273038
 31
195.157287685072
  0
LINE
  5
5B27
  8
0
 10
85.07938286204666
 20
34.75393756970072
 30
184.5986110106394
 11
83.71301964627128
 21
33.00823283766272
 31
206.0637897436315
  0
LINE
  5
5B28
  8
0
 10
2.991674227595297
 20
1.235525315647919
 30
119.700853552771
 11
2.358272245733758
 21
1.995062807232443
 31
124.2898505640667
  0
LINE
  5
5B29
  8
0
 10
2.358272245733758
 20
1.995062807232443
 30
124.2898505640667
 11
4.850143409449345
 21
13.89402452845059
 31
132.847767974938
  0
LINE
  5
5B2A
  8
0
 10
4.850143409449345
 20
13.89402452845059
 30
132.847767974938
 11
7.183726024906377
 21
25.03714084158287
 31
142.4090447390373
  0
LINE
  5
5B2B
  8
0
 10
7.183726024906377
 20
25.03714084158287
 30
142.4090447390373
 11
9.354843633893609
 21
35.40446869455309
 31
152.841562357898
  0
LINE
  5
5B2C
  8
0
 10
9.354843633893609
 20
35.40446869455309
 30
152.841562357898
 11
11.36351751965032
 21
44.99610971719358
 31
164.0218268478081
  0
LINE
  5
5B2D
  8
0
 10
11.36351751965032
 20
44.99610971719358
 30
164.0218268478081
 11
13.21307567038701
 21
53.8279554230395
 31
175.837507040926
  0
LINE
  5
5B2E
  8
0
 10
13.21307567038701
 20
53.8279554230395
 30
175.837507040926
 11
14.90930651867598
 21
61.92764622087554
 31
188.1886394683445
  0
LINE
  5
5B2F
  8
0
 10
14.90930651867598
 20
61.92764622087554
 30
188.1886394683445
 11
16.45971126195809
 21
69.3310011620681
 31
200.987828626162
  0
LINE
  5
5B30
  8
0
 10
16.45971126195809
 20
69.3310011620681
 30
200.987828626162
 11
17.87287873382303
 21
76.0790328814602
 31
214.1597566536532
  0
LINE
  5
5B31
  8
0
 10
6.250291409101976
 20
20.57988682121265
 30
138.5845276022621
 11
14.64500524321943
 21
61.98477262536039
 31
139.7346296380567
  0
LINE
  5
5B32
  8
0
 10
7.775621358464946
 20
27.86350683495118
 30
145.2531829240486
 11
-3.297777561293685
 21
62.32047882716529
 31
159.9878174002695
  0
LINE
  5
5B33
  8
0
 10
9.235965195962194
 20
34.83681094281167
 30
152.2703351737564
 11
-7.235112054227955
 21
49.91719459810292
 31
182.1799588956821
  0
LINE
  5
5B34
  8
0
 10
10.5959401574537
 20
41.33084251404
 30
159.7494967365453
 11
6.393669823086384
 21
35.76082202291479
 31
195.8918654934915
  0
LINE
  5
5B35
  8
0
 10
11.90079879657446
 20
47.56168752102963
 30
167.4541837809261
 11
34.02361749929935
 21
50.19799174030913
 31
191.5241395626256
  0
LINE
  5
5B36
  8
0
 10
13.14485431726143
 20
53.50219088062204
 30
175.4016831169512
 11
33.97443336945213
 21
68.34966791395084
 31
189.4070095704377
  0
LINE
  5
5B37
  8
0
 10
14.2914338645835
 20
58.97723563517252
 30
183.6895897183207
 11
21.0550445178643
 21
83.49565788238567
 31
192.9303195626717
  0
LINE
  5
5B38
  8
0
 10
15.38739082256723
 20
64.2105519000902
 30
192.1354097974484
 11
4.993860438439924
 21
86.61883381678047
 31
202.5656229165804
  0
LINE
  5
5B39
  8
0
 10
16.43022885359164
 20
69.19021938582296
 30
200.7444399735243
 11
-1.391137296625857
 21
69.78443017812049
 31
218.9929599024987
  0
LINE
  5
5B3A
  8
0
 10
17.38336762303192
 20
73.74156292947077
 30
209.5970949391937
 11
15.3867951736662
 21
62.63980857933393
 31
228.0477648537935
  0
LINE
  5
5B3B
  8
0
 10
17.87287778329392
 20
76.07902834257823
 30
214.1597477939102
 11
30.36312039428987
 21
70.62725043976275
 31
232.5500169666684
  0
LINE
  5
5B3C
  8
0
 10
2.358272245733758
 20
1.995062807232443
 30
124.2898505640667
 11
1.341860281813183
 21
1.355579439293706
 31
128.3319255159398
  0
LINE
  5
5B3D
  8
0
 10
1.341860281813183
 20
1.355579439293706
 30
128.3319255159398
 11
-6.228970987061189
 21
6.295752515329127
 31
137.8977082101621
  0
LINE
  5
5B3E
  8
0
 10
-6.228970987061189
 20
6.295752515329127
 30
137.8977082101621
 11
-13.21670169446315
 21
10.85543663419412
 31
148.0765045522172
  0
LINE
  5
5B3F
  8
0
 10
-13.21670169446315
 20
10.85543663419412
 30
148.0765045522172
 11
-19.63799480453002
 21
15.04550483266291
 31
158.77404249152
  0
LINE
  5
5B40
  8
0
 10
-19.63799480453002
 20
15.04550483266291
 30
158.77404249152
 11
-25.51706565395472
 21
18.88175827577402
 31
169.9071768275323
  0
LINE
  5
5B41
  8
0
 10
-25.51706565395472
 20
18.88175827577402
 30
169.9071768275323
 11
-30.88318441811987
 21
22.38329654813322
 31
181.4037412627065
  0
LINE
  5
5B42
  8
0
 10
-30.88318441811987
 20
22.38329654813322
 30
181.4037412627065
 11
-35.76863477792182
 21
25.57118562856033
 31
193.2019077587702
  0
LINE
  5
5B43
  8
0
 10
-35.76863477792182
 20
25.57118562856033
 30
193.2019077587702
 11
-40.20711517940742
 21
28.46741466857043
 31
205.2492619807338
  0
LINE
  5
5B44
  8
0
 10
-40.20711517940742
 20
28.46741466857043
 30
205.2492619807338
 11
-44.2325354571484
 21
31.09411075643334
 31
217.5017496434736
  0
LINE
  5
5B45
  8
0
 10
-10.42160410231105
 20
9.031559522256543
 30
144.0049782816717
 11
-42.6228534900709
 21
31.13504835903836
 31
150.9496627001607
  0
LINE
  5
5B46
  8
0
 10
-15.526998600171
 20
12.36296812788203
 30
151.9253381712772
 11
-52.07237992467731
 21
8.66152680957407
 31
165.2260447774866
  0
LINE
  5
5B47
  8
0
 10
-20.34098168051742
 20
15.50422286694766
 30
160.10528130923
 11
-34.19422736698988
 21
3.093015259942945
 31
193.2732574744658
  0
LINE
  5
5B48
  8
0
 10
-24.80782694653101
 20
18.41896075163663
 30
168.5640989827025
 11
-23.41125132897747
 21
15.85966686834706
 31
201.1026922411095
  0
LINE
  5
5B49
  8
0
 10
-28.94681902465487
 20
21.11976552459942
 30
177.2552029067026
 11
-24.84565012428396
 21
37.59131217689753
 31
203.193006117687
  0
LINE
  5
5B4A
  8
0
 10
-32.83217306318465
 20
23.65506458626567
 30
186.1104705998038
 11
-40.74778686576315
 21
50.44755465845094
 31
201.3352372671812
  0
LINE
  5
5B4B
  8
0
 10
-36.473132482403
 20
26.03088951948121
 30
195.1141237937006
 11
-58.00200301466782
 21
41.23485978471922
 31
202.6621945307721
  0
LINE
  5
5B4C
  8
0
 10
-39.84543495628975
 20
28.23140849739514
 30
204.2675544212007
 11
-64.05572814662739
 21
20.56924543462571
 31
212.6117477167855
  0
LINE
  5
5B4D
  8
0
 10
-42.93755865569437
 20
30.24910321347897
 30
213.5601271075395
 11
-51.19629244682335
 21
14.15723745672994
 31
227.9024280666431
  0
LINE
  5
5B4E
  8
0
 10
-44.23253239868387
 20
31.09410876070217
 30
217.5017403341851
 11
-36.97585958502845
 21
27.69336463705599
 31
235.3720440541738
  0
LINE
  5
5B4F
  8
0
 10
1.341860281813183
 20
1.355579439293706
 30
128.3319255159398
 11
0.9551582909338094
 21
-1.634878605167273
 31
135.6854545370239
  0
LINE
  5
5B50
  8
0
 10
0.9551582909338094
 20
-1.634878605167273
 30
135.6854545370239
 11
-7.694360628266452
 21
-10.411014366166
 31
138.8294294340291
  0
LINE
  5
5B51
  8
0
 10
-7.694360628266452
 20
-10.411014366166
 30
138.8294294340291
 11
-16.06679381140879
 21
-18.90600824403839
 31
143.2404107523765
  0
LINE
  5
5B52
  8
0
 10
-16.06679381140879
 20
-18.90600824403839
 30
143.2404107523765
 11
-24.0882438804847
 21
-27.0448811066683
 31
148.820231708048
  0
LINE
  5
5B53
  8
0
 10
-24.0882438804847
 20
-27.0448811066683
 30
148.820231708048
 11
-31.70237957183332
 21
-34.77047707959662
 31
155.4579586622762
  0
LINE
  5
5B54
  8
0
 10
-31.70237957183332
 20
-34.77047707959662
 30
155.4579586622762
 11
-38.87043203432069
 21
-42.04345979001153
 31
163.0370127570242
  0
LINE
  5
5B55
  8
0
 10
-38.87043203432069
 20
-42.04345979001153
 30
163.0370127570242
 11
-45.56987885232115
 21
-48.84097712566927
 31
171.4412072446774
  0
LINE
  5
5B56
  8
0
 10
-45.56987885232115
 20
-48.84097712566927
 30
171.4412072446774
 11
-51.79229066419197
 21
-55.15447633087933
 31
180.5593558293071
  0
LINE
  5
5B57
  8
0
 10
-51.79229066419197
 20
-55.15447633087933
 30
180.5593558293071
 11
-57.54078329018429
 21
-60.98711883713713
 31
190.2884065797755
  0
LINE
  5
5B58
  8
0
 10
-12.71781395444111
 20
-15.50800401280242
 30
141.4760147564371
 11
-37.23278886328251
 21
-45.49871018642671
 31
127.9205707865578
  0
LINE
  5
5B59
  8
0
 10
-19.16592067557855
 20
-22.05050198462516
 30
145.3962021457113
 11
-31.61456271642362
 21
-60.57485507437184
 31
150.5203846103269
  0
LINE
  5
5B5A
  8
0
 10
-25.40328633709021
 20
-28.37917394288934
 30
149.9666379600515
 11
-25.27575864629409
 21
-57.24692105956785
 31
173.2256129962918
  0
LINE
  5
5B5B
  8
0
 10
-31.39070554304658
 20
-34.45424057958303
 30
155.1862525638202
 11
-41.17056559996723
 21
-39.94723481987864
 31
184.6504002807899
  0
LINE
  5
5B5C
  8
0
 10
-37.04560444237092
 20
-40.19191927810891
 30
161.1075532412973
 11
-56.65781672834311
 21
-32.54873240803909
 31
185.8412009956206
  0
LINE
  5
5B5D
  8
0
 10
-42.43304944550533
 20
-45.6582289300211
 30
167.5061772152371
 11
-71.20740669281369
 21
-51.19517933177735
 31
174.3634786266865
  0
LINE
  5
5B5E
  8
0
 10
-47.54943696581472
 20
-50.8495131972237
 30
174.3419964493245
 11
-68.87706928427704
 21
-68.54500772970005
 31
177.9603955111804
  0
LINE
  5
5B5F
  8
0
 10
-52.39294664417343
 20
-55.76392507308299
 30
181.5759375478586
 11
-53.08119204855518
 21
-81.14773388682443
 31
186.3651872579148
  0
LINE
  5
5B60
  8
0
 10
-56.91330674141636
 20
-60.3504569105869
 30
189.2264323223694
 11
-49.72993979776282
 21
-71.1733670916982
 31
205.5210164642832
  0
LINE
  5
5B61
  8
0
 10
-57.54077876982419
 20
-60.98711425060526
 30
190.2883989292807
 11
-56.75856974869379
 21
-58.14778043518356
 31
211.3594437733433
  0
LINE
  5
5B62
  8
0
 10
0.9551582909338094
 20
-1.634878605167273
 30
135.6854545370239
 11
2.453478613568052
 21
-2.6550454164543
 31
142.1936853403304
  0
LINE
  5
5B63
  8
0
 10
2.453478613568052
 20
-2.6550454164543
 30
142.1936853403304
 11
9.264699257966242
 21
-15.58907948631906
 31
147.4957456949449
  0
LINE
  5
5B64
  8
0
 10
9.264699257966242
 20
-15.58907948631906
 30
147.4957456949449
 11
15.79430542378145
 21
-27.98834725646702
 31
154.2349006920192
  0
LINE
  5
5B65
  8
0
 10
15.79430542378145
 20
-27.98834725646702
 30
154.2349006920192
 11
21.99569035555356
 21
-39.76434574123982
 31
162.2761998784498
  0
LINE
  5
5B66
  8
0
 10
21.99569035555356
 20
-39.76434574123982
 30
162.2761998784498
 11
27.8365366363542
 21
-50.85570641457957
 31
171.4772890057772
  0
LINE
  5
5B67
  8
0
 10
27.8365366363542
 20
-50.85570641457957
 30
171.4772890057772
 11
33.29780227316786
 21
-61.22626985671729
 31
181.6958896696561
  0
LINE
  5
5B68
  8
0
 10
33.29780227316786
 20
-61.22626985671729
 30
181.6958896696561
 11
38.37200352643362
 21
-70.8618249669554
 31
192.7955458512679
  0
LINE
  5
5B69
  8
0
 10
38.37200352643362
 20
-70.8618249669554
 30
192.7955458512679
 11
43.06115745127534
 21
-79.76620199262459
 31
204.6495626069903
  0
LINE
  5
5B6A
  8
0
 10
43.06115745127534
 20
-79.76620199262459
 30
204.6495626069903
 11
47.37467189805034
 21
-87.95726578694268
 31
217.1433160472479
  0
LINE
  5
5B6B
  8
0
 10
13.18245875827625
 20
-23.02863217445883
 30
151.5392343592498
 11
36.23166053181035
 21
-56.91546334416114
 31
141.3690261947372
  0
LINE
  5
5B6C
  8
0
 10
17.3018480382317
 20
-30.85106578447551
 30
156.1897222895271
 11
49.5177112097814
 21
-53.79187672867045
 31
161.8775305651056
  0
LINE
  5
5B6D
  8
0
 10
21.28994861349139
 20
-38.4241912795186
 30
161.3610687329538
 11
47.37374633062154
 21
-49.38265438544113
 31
184.7882579508203
  0
LINE
  5
5B6E
  8
0
 10
25.08721806977599
 20
-45.63494175791266
 30
167.1462855938821
 11
28.99272450062375
 21
-55.89035302180207
 31
198.4103628147929
  0
LINE
  5
5B6F
  8
0
 10
28.77801983195491
 20
-52.64351749336458
 30
173.2389027867924
 11
15.66176073829604
 21
-69.51752867850905
 31
200.323861858513
  0
LINE
  5
5B70
  8
0
 10
32.29015089097601
 20
-59.31280999566661
 30
179.810468273265
 11
22.78099135668231
 21
-85.96116644305653
 31
184.2028135651986
  0
LINE
  5
5B71
  8
0
 10
35.62477824541895
 20
-65.64503531391995
 30
186.7860766657346
 11
45.77035703583226
 21
-91.86133611313699
 31
182.3678190767467
  0
LINE
  5
5B72
  8
0
 10
38.84883414116069
 20
-71.76729312580983
 30
194.0009569312224
 11
63.3513555236101
 21
-79.01669050961857
 31
200.2965115659674
  0
LINE
  5
5B73
  8
0
 10
41.86442141253474
 20
-77.4936835255512
 30
201.6242558495699
 11
56.5426732360956
 21
-70.52310087671208
 31
222.2438422624774
  0
LINE
  5
5B74
  8
0
 10
44.73430386409296
 20
-82.94339061079882
 30
209.4956988629667
 11
41.33572766461407
 21
-78.27098562750871
 31
231.7417582853228
  0
LINE
  5
5B75
  8
0
 10
47.37466912403619
 20
-87.95726051928284
 30
217.1433080125353
 11
32.96675427166701
 21
-93.1110775399577
 31
232.1573737274339
  0
LINE
  5
5B76
  8
0
 10
2.453478613568052
 20
-2.6550454164543
 30
142.1936853403304
 11
3.055483711864156
 21
-1.344536111346656
 31
149.8442154993448
  0
LINE
  5
5B77
  8
0
 10
3.055483711864156
 20
-1.344536111346656
 30
149.8442154993448
 11
15.69814813386313
 21
-0.8463097254202694
 31
157.53706726016
  0
LINE
  5
5B78
  8
0
 10
15.69814813386313
 20
-0.8463097254202694
 30
157.53706726016
 11
27.60298907226337
 21
-0.3771597363208912
 31
166.3302363107303
  0
LINE
  5
5B79
  8
0
 10
27.60298907226337
 20
-0.3771597363208912
 30
166.3302363107303
 11
38.73188899222862
 21
0.0614117072755107
 31
176.0883305454181
  0
LINE
  5
5B7A
  8
0
 10
38.73188899222862
 20
0.0614117072755107
 30
176.0883305454181
 11
49.07021384338401
 21
0.4688279017733521
 31
186.6816403562956
  0
LINE
  5
5B7B
  8
0
 10
49.07021384338401
 20
0.4688279017733521
 30
186.6816403562956
 11
58.62260054336298
 21
0.845271580387589
 31
197.9898391484855
  0
LINE
  5
5B7C
  8
0
 10
58.62260054336298
 20
0.845271580387589
 30
197.9898391484855
 11
67.40865198330425
 21
1.191515260467327
 31
209.9041405061606
  0
LINE
  5
5B7D
  8
0
 10
67.40865198330425
 20
1.191515260467327
 30
209.9041405061606
 11
75.45893263921977
 21
1.508763437197445
 31
222.3282097424512
  0
LINE
  5
5B7E
  8
0
 10
75.45893263921977
 20
1.508763437197445
 30
222.3282097424512
 11
82.81148480721407
 21
1.798515294220692
 31
235.1781584548416
  0
LINE
  5
5B7F
  8
0
 10
22.84104465722294
 20
-0.5648200487910344
 30
162.8129627522231
 11
63.23080808445241
 21
0.781402199468971
 31
156.2547550207104
  0
LINE
  5
5B80
  8
0
 10
30.66708670238938
 20
-0.2564087429047959
 30
169.0169127687882
 11
57.52085637602892
 21
25.11397961195985
 31
181.5501261352155
  0
LINE
  5
5B81
  8
0
 10
38.18275181616667
 20
0.0397711241298566
 30
175.606833510642
 11
53.954380378515
 21
19.46958794245791
 31
201.2291043136862
  0
LINE
  5
5B82
  8
0
 10
45.20352854534758
 20
0.3164482626996232
 30
182.719586939229
 11
40.43642970776642
 21
0.9097759036865227
 31
217.6016443590735
  0
LINE
  5
5B83
  8
0
 10
51.94848150156162
 20
0.5822556449448939
 30
190.0889587446807
 11
57.20125654691481
 21
-20.21410911615283
 31
217.0728388700483
  0
LINE
  5
5B84
  8
0
 10
58.39948204884354
 20
0.836478851462175
 30
197.7257095262786
 11
83.48954905024641
 21
-15.44879550544306
 31
210.8757700738437
  0
LINE
  5
5B85
  8
0
 10
64.35085399415544
 20
1.071012525428614
 30
205.7576217903704
 11
93.99304445887793
 21
4.591912380810527
 31
211.5249173956701
  0
LINE
  5
5B86
  8
0
 10
70.04350861710776
 20
1.295350579849014
 30
213.9705380201429
 11
89.12952002414698
 21
16.62591420028525
 31
227.6138695720949
  0
LINE
  5
5B87
  8
0
 10
75.47825982238874
 20
1.509525089353929
 30
222.3619875799697
 11
74.81163215928223
 21
17.17244762229438
 31
239.7253978611703
  0
LINE
  5
5B88
  8
0
 10
80.4436490543547
 20
1.705202823823811
 30
231.0399262752653
 11
72.39669139828561
 21
3.893327712601717
 31
249.9203124350611
  0
LINE
  5
5B89
  8
0
 10
82.81147984182485
 20
1.798515098542907
 30
235.1781497769029
 11
82.0399000013058
 21
-13.27144592252012
 31
248.081887231464
  0
LINE
  5
5B8A
  8
0
 10
3.055483711864156
 20
-1.344536111346656
 30
149.8442154993448
 11
1.193715724599599
 21
-0.0549258150100513
 31
156.4268998195134
  0
LINE
  5
5B8B
  8
0
 10
1.193715724599599
 20
-0.0549258150100513
 30
156.4268998195134
 11
7.789990901644956
 21
8.663321747474129
 31
165.318906375181
  0
LINE
  5
5B8C
  8
0
 10
7.789990901644956
 20
8.663321747474129
 30
165.318906375181
 11
13.93419696969454
 21
16.78407294999852
 31
175.059984295932
  0
LINE
  5
5B8D
  8
0
 10
13.93419696969454
 20
16.78407294999852
 30
175.059984295932
 11
19.62436038951324
 21
24.30471938051801
 31
185.5312967676794
  0
LINE
  5
5B8E
  8
0
 10
19.62436038951324
 20
24.30471938051801
 30
185.5312967676794
 11
24.86820268493142
 21
31.2354665193235
 31
196.6242372902291
  0
LINE
  5
5B8F
  8
0
 10
24.86820268493142
 20
31.2354665193235
 30
196.6242372902291
 11
29.68074101019499
 21
37.59616242685593
 31
208.2417882282656
  0
LINE
  5
5B90
  8
0
 10
29.68074101019499
 20
37.59616242685593
 30
208.2417882282656
 11
34.08214241628508
 21
43.41346174355112
 31
220.2988675462658
  0
LINE
  5
5B91
  8
0
 10
34.08214241628508
 20
43.41346174355112
 30
220.2988675462658
 11
38.09591258336201
 21
48.71843175105835
 31
232.721967385816
  0
LINE
  5
5B92
  8
0
 10
38.09591258336201
 20
48.71843175105835
 30
232.721967385816
 11
41.74743701305437
 21
53.54462427700093
 31
245.4483455980176
  0
LINE
  5
5B93
  8
0
 10
11.47651018242993
 20
13.53576670635027
 30
171.1635462151786
 11
33.71999561977549
 21
43.52418899343922
 31
177.7452757832927
  0
LINE
  5
5B94
  8
0
 10
15.69597507903927
 20
19.11260189931875
 30
178.3020931296746
 11
12.98282200073828
 21
52.99692887828257
 31
190.9126239432884
  0
LINE
  5
5B95
  8
0
 10
19.72523667304353
 20
24.43804680992253
 30
185.7446926995737
 11
7.531953827475434
 21
41.45743414073183
 31
219.0470393481393
  0
LINE
  5
5B96
  8
0
 10
23.4463662821662
 20
29.35623598088318
 30
193.6164529671857
 11
22.12538458244308
 21
28.25347276469813
 31
226.3718369727
  0
LINE
  5
5B97
  8
0
 10
26.97837992772946
 20
34.02447199736264
 30
201.7182417322923
 11
44.09365790789445
 21
21.27955907655473
 31
224.8186876112866
  0
LINE
  5
5B98
  8
0
 10
30.33256125961958
 20
38.45766837501583
 30
210.0273668936235
 11
55.89345282167244
 21
45.60480159350868
 31
220.9053444954009
  0
LINE
  5
5B99
  8
0
 10
33.45587889030929
 20
42.58573392561357
 30
218.5832982741215
 11
50.93730515996543
 21
62.32782080852166
 31
229.3692701751607
  0
LINE
  5
5B9A
  8
0
 10
36.3592810697171
 20
46.42313886918225
 30
227.3468846629725
 11
31.58143097638265
 21
69.17058375845124
 31
241.1650798917715
  0
LINE
  5
5B9B
  8
0
 10
39.10720410755692
 20
50.05504819429814
 30
236.2465442214646
 11
28.41791837920658
 21
60.04792380408276
 31
255.4597630537905
  0
LINE
  5
5B9C
  8
0
 10
41.6983948620225
 20
53.47980563280896
 30
245.2774227480165
 11
34.88292117071353
 21
47.87993969886054
 31
263.8690124970386
  0
LINE
  5
5B9D
  8
0
 10
41.7474344218636
 20
53.5446208522435
 30
245.4483365671391
 11
51.4047905659354
 21
42.80367298491808
 31
262.2745952374045
  0
LINE
  5
5B9E
  8
0
 10
1.193715724599599
 20
-0.0549258150100513
 30
156.4268998195134
 11
-2.773366373911927
 21
-0.3694087716429522
 31
163.0287279729457
  0
LINE
  5
5B9F
  8
0
 10
-2.773366373911927
 20
-0.3694087716429522
 30
163.0287279729457
 11
-9.131428349870077
 21
9.09477024582543
 31
172.9017657902092
  0
LINE
  5
5BA0
  8
0
 10
-9.131428349870077
 20
9.09477024582543
 30
172.9017657902092
 11
-15.04030629872187
 21
17.89032444327825
 31
183.6347010854195
  0
LINE
  5
5BA1
  8
0
 10
-15.04030629872187
 20
17.89032444327825
 30
183.6347010854195
 11
-20.5019325931537
 21
26.02013021938899
 31
195.1042001402438
  0
LINE
  5
5BA2
  8
0
 10
-20.5019325931537
 20
26.02013021938899
 30
195.1042001402438
 11
-25.52691861101488
 21
33.49998295016496
 31
207.1985720111651
  0
LINE
  5
5BA3
  8
0
 10
-25.52691861101488
 20
33.49998295016496
 30
207.1985720111651
 11
-30.13226104127227
 21
40.35518275185143
 31
219.8187768068472
  0
LINE
  5
5BA4
  8
0
 10
-30.13226104127227
 20
40.35518275185143
 30
219.8187768068472
 11
-34.33933798793413
 21
46.61755161740052
 31
232.8784763463694
  0
LINE
  5
5BA5
  8
0
 10
-34.33933798793413
 20
46.61755161740052
 30
232.8784763463694
 11
-38.1722485254777
 21
52.32296179151035
 31
246.3034383151156
  0
LINE
  5
5BA6
  8
0
 10
-38.1722485254777
 20
52.32296179151035
 30
246.3034383151156
 11
-41.6564964856737
 21
57.50937654513098
 31
260.0305512840259
  0
LINE
  5
5BA7
  8
0
 10
-12.67675120139654
 20
14.3720969325492
 30
179.3415198510387
 11
-38.64702545758297
 21
48.27406770844402
 31
177.7146876696725
  0
LINE
  5
5BA8
  8
0
 10
-16.47689390830413
 20
20.0287311405981
 30
186.6515571173078
 11
-51.34196747506803
 21
27.07333893557075
 31
200.9705264670449
  0
LINE
  5
5BA9
  8
0
 10
-20.09813565690092
 20
25.41906553869671
 30
194.2562203757891
 11
-44.80599128334501
 21
18.54093310551991
 31
221.6318534032933
  0
LINE
  5
5BAA
  8
0
 10
-23.46215255762684
 20
30.42651250707274
 30
202.2289962974483
 11
-24.71581865093538
 21
30.98495864394874
 31
235.8626105974764
  0
LINE
  5
5BAB
  8
0
 10
-26.68808082396981
 20
35.22841011763819
 30
210.3805514514387
 11
-14.8500795445778
 21
49.65987470393486
 31
237.1712331138179
  0
LINE
  5
5BAC
  8
0
 10
-29.74157759873714
 20
39.77363792682536
 30
218.7481712808213
 11
-24.36765536111437
 21
67.33562032739667
 31
227.2228975341768
  0
LINE
  5
5BAD
  8
0
 10
-32.56479689565214
 20
43.976090330185
 30
227.369907385175
 11
-45.94520968526933
 21
69.19370830953312
 31
232.7200830714688
  0
LINE
  5
5BAE
  8
0
 10
-35.26396841000189
 20
47.99389363365265
 30
236.1170409123352
 11
-56.96053988462148
 21
55.15951615289111
 31
248.6017903911591
  0
LINE
  5
5BAF
  8
0
 10
-37.8053168855173
 20
51.77677228582615
 30
245.0182417879994
 11
-47.51716212276494
 21
40.23802956896475
 31
262.2245580720019
  0
LINE
  5
5BB0
  8
0
 10
-40.14886847256207
 20
55.26522393042035
 30
254.0908534532455
 11
-35.54462445264147
 21
44.16436026221754
 31
271.8196339210299
  0
LINE
  5
5BB1
  8
0
 10
-41.6564941755002
 20
57.50937310636368
 30
260.0305421824888
 11
-30.48406917052233
 21
66.20364586282824
 31
275.9502843670032
  0
LINE
  5
5BB2
  8
0
 10
-2.773366373911927
 20
-0.3694087716429522
 30
163.0287279729457
 11
-5.337157486063177
 21
-2.220770733366635
 31
167.4122834822955
  0
LINE
  5
5BB3
  8
0
 10
-5.337157486063177
 20
-2.220770733366635
 30
167.4122834822955
 11
-18.83212907016735
 21
0.7217709649797825
 31
172.5418610534956
  0
LINE
  5
5BB4
  8
0
 10
-18.83212907016735
 20
0.7217709649797825
 30
172.5418610534956
 11
-31.75967357967193
 21
3.54058673938664
 31
179.0240093351982
  0
LINE
  5
5BB5
  8
0
 10
-31.75967357967193
 20
3.54058673938664
 30
179.0240093351982
 11
-44.02933446914835
 21
6.21595278716552
 31
186.7300598105643
  0
LINE
  5
5BB6
  8
0
 10
-44.02933446914835
 20
6.21595278716552
 30
186.7300598105643
 11
-55.57896115260661
 21
8.734317342778354
 31
195.5249071201558
  0
LINE
  5
5BB7
  8
0
 10
-55.57896115260661
 20
8.734317342778354
 30
195.5249071201558
 11
-66.37256349711967
 21
11.08783285603147
 31
205.2739834312042
  0
LINE
  5
5BB8
  8
0
 10
-66.37256349711967
 20
11.08783285603147
 30
205.2739834312042
 11
-76.39682613530027
 21
13.27359594743109
 31
215.8485743939931
  0
LINE
  5
5BB9
  8
0
 10
-76.39682613530027
 20
13.27359594743109
 30
215.8485743939931
 11
-85.6569952973552
 21
15.2927505431461
 31
227.1294279773872
  0
LINE
  5
5BBA
  8
0
 10
-85.6569952973552
 20
15.2927505431461
 30
227.1294279773872
 11
-94.17269658406946
 21
17.14957595182898
 31
239.0088390216422
  0
LINE
  5
5BBB
  8
0
 10
-26.58864700180686
 20
2.413058516463366
 30
176.4311456230136
 11
-68.36175385725826
 21
11.24127059300292
 31
169.7031735372646
  0
LINE
  5
5BBC
  8
0
 10
-35.17935141487652
 20
4.286238152010014
 30
181.1717630706074
 11
-67.95146119315174
 21
-13.33075672610664
 31
183.8793065485027
  0
LINE
  5
5BBD
  8
0
 10
-43.50690193342217
 20
6.102037799544746
 30
186.4019422263422
 11
-62.60088715617294
 21
-7.906683057485338
 31
210.3722655386912
  0
LINE
  5
5BBE
  8
0
 10
-51.3764160008987
 20
7.817963849848411
 30
192.3247393628835
 11
-55.29082144585226
 21
5.412223786753202
 31
227.7531656646123
  0
LINE
  5
5BBF
  8
0
 10
-58.97724317459111
 20
9.47530345676239
 30
198.5943282180743
 11
-58.98265528649941
 21
31.28972478777212
 31
222.7313560068783
  0
LINE
  5
5BC0
  8
0
 10
-66.3029769182285
 20
11.07265969254934
 30
205.2111309333836
 11
-83.5947992522961
 21
34.36291979029693
 31
210.2586704996359
  0
LINE
  5
5BC1
  8
0
 10
-73.11151149604072
 20
12.55724206272964
 30
212.3828971917707
 11
-99.51692475736806
 21
18.2390799450219
 31
210.4677338035213
  0
LINE
  5
5BC2
  8
0
 10
-79.64690884306845
 20
13.98226760569139
 30
219.8078656897169
 11
-101.7148195536036
 21
3.176862148871123
 31
228.6606056997272
  0
LINE
  5
5BC3
  8
0
 10
-85.9097853712399
 20
15.34787072837196
 30
227.4820703604954
 11
-90.6885169430096
 21
-0.4896991473395929
 31
243.9105095103098
  0
LINE
  5
5BC4
  8
0
 10
-91.68948322146986
 20
16.60811805991705
 30
235.5447541210915
 11
-88.87598625964213
 21
18.61895688247478
 31
257.5388141384232
  0
LINE
  5
5BC5
  8
0
 10
-94.1726908043716
 20
17.14957469158162
 30
239.0088309589585
 11
-92.11045720431727
 21
28.55539319153775
 31
255.5670970962127
  0
LINE
  5
5BC6
  8
0
 10
-5.337157486063177
 20
-2.220770733366635
 30
167.4122834822955
 11
-6.513245164888758
 21
-5.480234301963492
 31
172.831899152822
  0
LINE
  5
5BC7
  8
0
 10
-6.513245164888758
 20
-5.480234301963492
 30
172.831899152822
 11
-17.67385320622628
 21
-9.577891255931604
 31
178.0112919482896
  0
LINE
  5
5BC8
  8
0
 10
-17.67385320622628
 20
-9.577891255931604
 30
178.0112919482896
 11
-28.30976403059731
 21
-13.48290375971681
 31
184.3203610060683
  0
LINE
  5
5BC9
  8
0
 10
-28.30976403059731
 20
-13.48290375971681
 30
184.3203610060683
 11
-38.35770592553484
 21
-17.17204137895385
 31
191.6419183128714
  0
LINE
  5
5BCA
  8
0
 10
-38.35770592553484
 20
-17.17204137895385
 30
191.6419183128714
 11
-47.77753169162509
 21
-20.63056392652663
 31
199.8566354972269
  0
LINE
  5
5BCB
  8
0
 10
-47.77753169162509
 20
-20.63056392652663
 30
199.8566354972269
 11
-56.54970434095702
 21
-23.85129832780717
 31
208.8484056800793
  0
LINE
  5
5BCC
  8
0
 10
-56.54970434095702
 20
-23.85129832780717
 30
208.8484056800793
 11
-64.67199169184053
 21
-26.83342502934545
 31
218.5081904923908
  0
LINE
  5
5BCD
  8
0
 10
-64.67199169184053
 20
-26.83342502934545
 30
218.5081904923908
 11
-72.15590753939074
 21
-29.58117136198621
 31
228.7364341232767
  0
LINE
  5
5BCE
  8
0
 10
-72.15590753939074
 20
-29.58117136198621
 30
228.7364341232767
 11
-79.02328657583092
 21
-32.10255401067138
 31
239.4442727848967
  0
LINE
  5
5BCF
  8
0
 10
-24.05539149936226
 20
-11.92089574699776
 30
181.7967285179531
 11
-64.67654685729588
 21
-23.40915719578618
 31
173.1950418970964
  0
LINE
  5
5BD0
  8
0
 10
-32.03867582563873
 20
-14.85198699345199
 30
187.037478768579
 11
-52.44084159083633
 21
-46.50528422110983
 31
188.9206404979093
  0
LINE
  5
5BD1
  8
0
 10
-39.69743845627841
 20
-17.66392894464252
 30
192.8102545556029
 11
-40.67002685812702
 21
-43.21120830227267
 31
218.2563912599722
  0
LINE
  5
5BD2
  8
0
 10
-46.96118638978731
 20
-20.3308398442432
 30
199.1447278732542
 11
-50.7792747872976
 21
-19.08562073459291
 31
232.1146454283877
  0
LINE
  5
5BD3
  8
0
 10
-53.7816479491014
 20
-22.83499657426012
 30
206.0110553538021
 11
-62.29072745360088
 21
-6.66663362989857
 31
227.4049333973136
  0
LINE
  5
5BD4
  8
0
 10
-60.24991854870314
 20
-25.20984514025531
 30
213.2490469603212
 11
-82.36554571606177
 21
-16.03989247347465
 31
223.383615393607
  0
LINE
  5
5BD5
  8
0
 10
-66.36841464146787
 20
-27.45627275150048
 30
220.8266862616202
 11
-90.68856852375896
 21
-37.15415344339988
 31
225.3923398394038
  0
LINE
  5
5BD6
  8
0
 10
-72.1393577164331
 20
-29.57509503559993
 30
228.7138155336631
 11
-83.73494202351932
 21
-50.81064417332709
 31
232.3659297856982
  0
LINE
  5
5BD7
  8
0
 10
-77.43624478412414
 20
-31.51986596984614
 30
236.9697060885383
 11
-73.90334150959319
 21
-44.66398603773121
 31
251.5706655183158
  0
LINE
  5
5BD8
  8
0
 10
-79.02328128030726
 20
-32.10255206640102
 30
239.4442645279456
 11
-72.8688277899328
 21
-29.52457041239006
 31
257.6766845323631
  0
LINE
  5
5BD9
  8
0
 10
-6.513245164888758
 20
-5.480234301963492
 30
172.831899152822
 11
-5.397752803951846
 21
-9.06740725690372
 31
179.2030814626421
  0
LINE
  5
5BDA
  8
0
 10
-5.397752803951846
 20
-9.06740725690372
 30
179.2030814626421
 11
0.3291349268214958
 21
-19.6586577337207
 31
181.8244314954615
  0
LINE
  5
5BDB
  8
0
 10
0.3291349268214958
 20
-19.6586577337207
 30
181.8244314954615
 11
5.892580360466752
 21
-29.94763961566218
 31
185.7010579254973
  0
LINE
  5
5BDC
  8
0
 10
5.892580360466752
 20
-29.94763961566218
 30
185.7010579254973
 11
11.24042468994207
 21
-39.8378909122157
 31
190.7435569147722
  0
LINE
  5
5BDD
  8
0
 10
11.24042468994207
 20
-39.8378909122157
 30
190.7435569147722
 11
16.33180535283788
 21
-49.25384079783885
 31
196.847738795667
  0
LINE
  5
5BDE
  8
0
 10
16.33180535283788
 20
-49.25384079783885
 30
196.847738795667
 11
21.13750190898054
 21
-58.14144927463542
 31
203.9017448852285
  0
LINE
  5
5BDF
  8
0
 10
21.13750190898054
 20
-58.14144927463542
 30
203.9017448852285
 11
25.6393240561415
 21
-66.46707537455984
 31
211.7922995639383
  0
LINE
  5
5BE0
  8
0
 10
25.6393240561415
 20
-66.46707537455984
 30
211.7922995639383
 11
29.82884572367237
 21
-74.21513600449634
 31
220.4096524295367
  0
LINE
  5
5BE1
  8
0
 10
29.82884572367237
 20
-74.21513600449634
 30
220.4096524295367
 11
33.70578923385631
 21
-81.38511762997564
 31
229.6510797136336
  0
LINE
  5
5BE2
  8
0
 10
3.667197672130783
 20
-25.8320385131143
 30
184.1504042075017
 11
16.14621143147116
 21
-55.95528275367451
 31
167.3522649295653
  0
LINE
  5
5BE3
  8
0
 10
8.09335037259325
 20
-34.01772227417996
 30
187.7761707893123
 11
42.90068861193402
 21
-48.08798517891614
 31
182.4425512369606
  0
LINE
  5
5BE4
  8
0
 10
12.37605818337687
 20
-41.9381204512373
 30
192.1050959260822
 11
38.48163050549607
 21
-44.41817211801947
 31
212.5112534186757
  0
LINE
  5
5BE5
  8
0
 10
16.49796572885754
 20
-49.56113618138374
 30
197.0916360726993
 11
16.55553329688439
 21
-56.34738448396342
 31
226.4272482548109
  0
LINE
  5
5BE6
  8
0
 10
20.39791106576001
 20
-56.77365716150962
 30
202.8161419448612
 11
9.064104136727678
 21
-76.09195732509727
 31
219.7052038621865
  0
LINE
  5
5BE7
  8
0
 10
24.0980204698854
 20
-63.61660351090939
 30
209.0907845270737
 11
18.22154221815305
 21
-88.96994301242103
 31
213.6624162317968
  0
LINE
  5
5BE8
  8
0
 10
27.60484750515872
 20
-70.10209532697422
 30
215.8351499105679
 11
40.02170402453203
 21
-90.42832379959736
 31
216.442515606262
  0
LINE
  5
5BE9
  8
0
 10
30.9170174716217
 20
-76.22759025297012
 30
223.003515366891
 11
50.78310012017704
 21
-82.01593567749751
 31
231.2834720804663
  0
LINE
  5
5BEA
  8
0
 10
33.70578608761775
 20
-81.38511181135266
 30
229.6510722139797
 11
47.10792387277564
 21
-75.78906892442774
 31
244.4705585155586
  0
LINE
  5
5BEB
  8
0
 10
-5.397752803951846
 20
-9.06740725690372
 30
179.2030814626421
 11
-5.473544082504191
 21
-10.02967517960212
 31
183.4073069393819
  0
LINE
  5
5BEC
  8
0
 10
-5.473544082504191
 20
-10.02967517960212
 30
183.4073069393819
 11
1.74089206085921
 21
-18.19769401399992
 31
189.8996300705998
  0
LINE
  5
5BED
  8
0
 10
1.74089206085921
 20
-18.19769401399992
 30
189.8996300705998
 11
8.53946675844162
 21
-25.89488407479166
 31
197.3459397227251
  0
LINE
  5
5BEE
  8
0
 10
8.53946675844162
 20
-25.89488407479166
 30
197.3459397227251
 11
14.89913345709181
 21
-33.09515258404338
 31
205.6299999025312
  0
LINE
  5
5BEF
  8
0
 10
14.89913345709181
 20
-33.09515258404338
 30
205.6299999025312
 11
20.81039205115354
 21
-39.78774374041643
 31
214.6400568187588
  0
LINE
  5
5BF0
  8
0
 10
20.81039205115354
 20
-39.78774374041643
 30
214.6400568187588
 11
26.27491909284589
 21
-45.97455569781084
 31
224.2721480870321
  0
LINE
  5
5BF1
  8
0
 10
26.27491909284589
 20
-45.97455569781084
 30
224.2721480870321
 11
31.30311805769026
 21
-51.66736703216986
 31
234.432069074285
  0
LINE
  5
5BF2
  8
0
 10
31.30311805769026
 20
-51.66736703216986
 30
234.432069074285
 11
35.91182312641797
 21
-56.88523701611598
 31
245.0362451670331
  0
LINE
  5
5BF3
  8
0
 10
35.91182312641797
 20
-56.88523701611598
 30
245.0362451670331
 11
40.1222900428325
 21
-61.65223091438747
 31
256.0117915181498
  0
LINE
  5
5BF4
  8
0
 10
5.820031519964232
 20
-22.81600198263516
 30
194.3674099918089
 11
33.43442817222666
 21
-49.90580312554516
 31
194.5623655525413
  0
LINE
  5
5BF5
  8
0
 10
11.00904003655484
 20
-28.69087819653737
 30
200.5627896967454
 11
46.16202516438375
 21
-35.29919553672403
 31
213.2964698629201
  0
LINE
  5
5BF6
  8
0
 10
15.94327960839001
 20
-34.27731086504957
 30
207.2215080563967
 11
32.57441832706206
 21
-22.92516882689108
 31
232.7002339963603
  0
LINE
  5
5BF7
  8
0
 10
20.60323602986057
 20
-39.5532064529616
 30
214.3243055260875
 11
20.54693811193863
 21
-42.68963485357995
 31
243.8029251899476
  0
LINE
  5
5BF8
  8
0
 10
24.92668096168643
 20
-44.44811146437007
 30
221.8956656153354
 11
11.46911649830315
 21
-61.48803887614974
 31
242.5088408209334
  0
LINE
  5
5BF9
  8
0
 10
28.99815811508591
 20
-49.05774434654336
 30
229.77469352901
 11
31.1363731137543
 21
-73.9654663556305
 31
238.8395726284668
  0
LINE
  5
5BFA
  8
0
 10
32.82358587357936
 20
-53.38880575731571
 30
237.9305156493216
 11
46.99059786820584
 21
-71.47997407450487
 31
242.6909917575846
  0
LINE
  5
5BFB
  8
0
 10
36.40963074608499
 20
-57.44884336490702
 30
246.3338947417855
 11
57.50497913320589
 21
-56.72875257930207
 31
254.8667910846771
  0
LINE
  5
5BFC
  8
0
 10
39.72882107287012
 20
-61.20675438738817
 30
254.9861245307874
 11
49.92633989834684
 21
-54.18684036056607
 31
268.7311053086631
  0
LINE
  5
5BFD
  8
0
 10
40.12228672364222
 20
-61.65222715647644
 30
256.0117828659201
 11
35.69881579161967
 21
-53.62500387351088
 31
274.4419458486101
  0
LINE
  5
5BFE
  8
0
 10
-5.473544082504191
 20
-10.02967517960212
 30
183.4073069393819
 11
-6.680030244057036
 21
-9.999399633778125
 31
187.766411529352
  0
LINE
  5
5BFF
  8
0
 10
-6.680030244057036
 20
-9.999399633778125
 30
187.766411529352
 11
-0.1022042450072718
 21
-9.532715323761977
 31
199.5507740212781
  0
LINE
  5
5C00
  8
0
 10
-0.1022042450072718
 20
-9.532715323761977
 30
199.5507740212781
 11
5.886875431684075
 21
-9.107801451465548
 31
211.6465237412202
  0
LINE
  5
5C01
  8
0
 10
5.886875431684075
 20
-9.107801451465548
 30
211.6465237412202
 11
11.32835893161183
 21
-8.721738491910969
 31
223.9995800906173
  0
LINE
  5
5C02
  8
0
 10
11.32835893161183
 20
-8.721738491910969
 30
223.9995800906173
 11
16.2636964428649
 21
-8.371585632673145
 31
236.5644766315877
  0
LINE
  5
5C03
  8
0
 10
16.2636964428649
 20
-8.371585632673145
 30
236.5644766315877
 11
20.73356319618739
 21
-8.05445704308454
 31
249.303256366135
  0
LINE
  5
5C04
  8
0
 10
20.73356319618739
 20
-8.05445704308454
 30
249.303256366135
 11
24.77711691970751
 21
-7.767574556417003
 31
262.1844116009715
  0
LINE
  5
5C05
  8
0
 10
24.77711691970751
 20
-7.767574556417003
 30
262.1844116009715
 11
28.43151548579471
 21
-7.508301891925043
 31
275.1819089472198
  0
LINE
  5
5C06
  8
0
 10
28.43151548579471
 20
-7.508301891925043
 30
275.1819089472198
 11
31.73163224826357
 21
-7.274164851132582
 31
288.2743188728335
  0
LINE
  5
5C07
  8
0
 10
3.491239125951381
 20
-9.27776731504298
 30
206.8082148960526
 11
38.91158663389803
 21
-5.310537242492842
 31
229.1679361654816
  0
LINE
  5
5C08
  8
0
 10
7.739826146897656
 20
-8.976338103826379
 30
215.8530245232207
 11
28.97129121966645
 21
16.10145566873234
 31
237.4103727462343
  0
LINE
  5
5C09
  8
0
 10
11.7283527291429
 20
-8.693359688726105
 30
225.0179259831825
 11
11.32246979297264
 21
11.66135571851271
 31
251.0418476769653
  0
LINE
  5
5C0A
  8
0
 10
15.38308771315309
 20
-8.434063156018965
 30
234.3225311604471
 11
1.347649281282372
 21
-13.41773583694908
 31
265.2251563582884
  0
LINE
  5
5C0B
  8
0
 10
18.7761841269056
 20
-8.193329384876392
 30
243.7248751309315
 11
18.20403540171793
 21
-27.87633786721506
 31
268.6082584963248
  0
LINE
  5
5C0C
  8
0
 10
21.95721677893243
 20
-7.967641136424049
 30
253.2013303947598
 11
36.19091664182992
 21
-23.35035119961901
 31
272.9377254338693
  0
LINE
  5
5C0D
  8
0
 10
24.93477562602914
 20
-7.756388969478621
 30
262.7451519197874
 11
47.76281794581814
 21
-8.896684299096364
 31
276.7588037514176
  0
LINE
  5
5C0E
  8
0
 10
27.64094480990821
 20
-7.564391385695217
 30
272.3701082976648
 11
37.92457752521142
 21
7.982432250236002
 31
283.8925866591332
  0
LINE
  5
5C0F
  8
0
 10
30.16140308071988
 20
-7.385569639846608
 30
282.0448168829532
 11
24.5431500214944
 21
7.077621023383244
 31
295.7911466193875
  0
LINE
  5
5C10
  8
0
 10
31.73162980444852
 20
-7.274165024516606
 30
288.274309177592
 11
19.9627932840213
 21
-9.750432219612776
 31
303.4744605529611
  0
LINE
  5
5C11
  8
0
 10
-6.680030244057036
 20
-9.999399633778125
 30
187.766411529352
 11
-9.940109104918065
 21
-10.04073751960971
 31
192.6154439386287
  0
LINE
  5
5C12
  8
0
 10
-9.940109104918065
 20
-10.04073751960971
 30
192.6154439386287
 11
-15.03772032143621
 21
-0.6695500342309515
 31
198.3490391269936
  0
LINE
  5
5C13
  8
0
 10
-15.03772032143621
 20
-0.6695500342309515
 30
198.3490391269936
 11
-19.85978870256719
 21
8.19509360914219
 31
205.045654569785
  0
LINE
  5
5C14
  8
0
 10
-19.85978870256719
 20
8.19509360914219
 30
205.045654569785
 11
-24.38556894935624
 21
16.51505631497855
 31
212.593796229571
  0
LINE
  5
5C15
  8
0
 10
-24.38556894935624
 20
16.51505631497855
 30
212.593796229571
 11
-28.60433344802772
 21
24.27061698731916
 31
220.884285572627
  0
LINE
  5
5C16
  8
0
 10
-28.60433344802772
 20
24.27061698731916
 30
220.884285572627
 11
-32.51384138911578
 21
31.45765623676152
 31
229.814074107104
  0
LINE
  5
5C17
  8
0
 10
-32.51384138911578
 20
31.45765623676152
 30
229.814074107104
 11
-36.11865175033165
 21
38.08455505453037
 31
239.2886961630836
  0
LINE
  5
5C18
  8
0
 10
-36.11865175033165
 20
38.08455505453037
 30
239.2886961630836
 11
-39.42847592940575
 21
44.16916637703298
 31
249.2235579005523
  0
LINE
  5
5C19
  8
0
 10
-39.42847592940575
 20
44.16916637703298
 30
249.2235579005523
 11
-42.45669285629384
 21
49.73608534415837
 31
259.5443245504723
  0
LINE
  5
5C1A
  8
0
 10
-17.93095736858902
 20
4.649228832359768
 30
202.367002863351
 11
-38.77015458028484
 21
40.02696900550882
 31
201.6388397036605
  0
LINE
  5
5C1B
  8
0
 10
-21.78635695873425
 20
11.73679805953623
 30
208.2588044183914
 11
-54.36809940193405
 21
31.08928803146671
 31
215.6394363282971
  0
LINE
  5
5C1C
  8
0
 10
-25.44606468925519
 20
18.46461739053393
 30
214.6778254833389
 11
-50.9911516238684
 21
13.34879811295559
 31
237.1402225220962
  0
LINE
  5
5C1D
  8
0
 10
-28.90561681944058
 20
24.82448091295328
 30
221.572453197866
 11
-28.42673905632944
 21
27.40031842228007
 31
251.9891742361427
  0
LINE
  5
5C1E
  8
0
 10
-32.13365203879374
 20
30.75873559913668
 30
228.9456756916013
 11
-17.779989099452
 21
45.44851777245003
 31
249.3045012302884
  0
LINE
  5
5C1F
  8
0
 10
-35.13973304876339
 20
36.2849610298598
 30
236.7157772598653
 11
-32.76664343521423
 21
61.73997318270267
 31
246.0218204334784
  0
LINE
  5
5C20
  8
0
 10
-37.95272251623533
 20
41.45621685428512
 30
244.7938947748974
 11
-48.66452672141111
 21
60.95453485121072
 31
249.4998000078722
  0
LINE
  5
5C21
  8
0
 10
-40.57864640384571
 20
46.28358089362018
 30
253.1435680454402
 11
-56.84426777533832
 21
51.81659316774892
 31
263.07773058383
  0
LINE
  5
5C22
  8
0
 10
-42.45669035593033
 20
49.73608074761808
 30
259.5443160287353
 11
-55.74989455905239
 21
46.54366347163455
 31
274.6109157358251
  0
LINE
  5
5C23
  8
0
 10
-9.940109104918065
 20
-10.04073751960971
 30
192.6154439386287
 11
-12.69771619954446
 21
-11.94276212065017
 31
197.0828776073426
  0
LINE
  5
5C24
  8
0
 10
-12.69771619954446
 20
-11.94276212065017
 30
197.0828776073426
 11
-21.23990054501547
 21
-6.647459928604803
 31
203.0555276941177
  0
LINE
  5
5C25
  8
0
 10
-21.23990054501547
 20
-6.647459928604803
 30
203.0555276941177
 11
-29.29042711508941
 21
-1.656936513334017
 31
209.9086573253383
  0
LINE
  5
5C26
  8
0
 10
-29.29042711508941
 20
-1.656936513334017
 30
209.9086573253383
 11
-36.82182370803736
 21
3.011778100504216
 31
217.5351150201276
  0
LINE
  5
5C27
  8
0
 10
-36.82182370803736
 20
3.011778100504216
 30
217.5351150201276
 11
-43.82267796601951
 21
7.351609389457622
 31
225.831836770196
  0
LINE
  5
5C28
  8
0
 10
-43.82267796601951
 20
7.351609389457622
 30
225.831836770196
 11
-50.29483649300431
 21
11.36370206378376
 31
234.7029113460488
  0
LINE
  5
5C29
  8
0
 10
-50.29483649300431
 20
11.36370206378376
 30
234.7029113460488
 11
-56.25050540181837
 21
15.05562269584789
 31
244.0614057576125
  0
LINE
  5
5C2A
  8
0
 10
-56.25050540181837
 20
15.05562269584789
 30
244.0614057576125
 11
-61.70953001569592
 21
18.43967340643951
 31
253.8301794170525
  0
LINE
  5
5C2B
  8
0
 10
-61.70953001569592
 20
18.43967340643951
 30
253.8301794170525
 11
-66.69701301054997
 21
21.53141535057614
 31
263.9419464675266
  0
LINE
  5
5C2C
  8
0
 10
-26.07020960102648
 20
-3.653150148096074
 30
207.1673996110125
 11
-60.01434200404412
 21
20.61643905474955
 31
203.8702050302367
  0
LINE
  5
5C2D
  8
0
 10
-32.71985655705919
 20
0.4689676473687996
 30
213.3813729410499
 11
-70.08648113488655
 21
-4.048021817892163
 31
217.9554790580364
  0
LINE
  5
5C2E
  8
0
 10
-38.99700999334817
 20
4.360176617661068
 30
220.112931197805
 11
-60.74526866443142
 21
-3.394239318052882
 31
247.5737746209161
  0
LINE
  5
5C2F
  8
0
 10
-44.89741159463074
 20
8.017837032094121
 30
227.3049221603076
 11
-41.44066688286944
 21
7.634507266530136
 31
259.4146959798137
  0
LINE
  5
5C30
  8
0
 10
-50.4223284058163
 20
11.44273433212152
 30
234.9032469207489
 11
-47.56176145987007
 21
29.01344492717681
 31
258.372729893249
  0
LINE
  5
5C31
  8
0
 10
-55.51652123005948
 20
14.60062572593324
 30
242.9080530654546
 11
-60.61762123358523
 21
39.9370052105387
 31
249.9422898391068
  0
LINE
  5
5C32
  8
0
 10
-60.24711547534463
 20
17.53312227056904
 30
251.213229018139
 11
-79.92698023302245
 21
30.13478886518476
 31
252.7344795758566
  0
LINE
  5
5C33
  8
0
 10
-64.63948959759696
 20
20.25595607714433
 30
259.7704640836982
 11
-84.0752127329753
 21
15.88728290220615
 31
267.7765359237034
  0
LINE
  5
5C34
  8
0
 10
-66.69700874449683
 20
21.53141270604874
 30
263.9419378184073
 11
-70.9807425181445
 21
9.115064431051223
 31
277.710069458077
  0
LINE
  5
5C35
  8
0
 10
-12.69771619954446
 20
-11.94276212065017
 30
197.0828776073426
 11
-14.23365675402346
 21
-15.22745991585441
 31
201.1358390284593
  0
LINE
  5
5C36
  8
0
 10
-14.23365675402346
 20
-15.22745991585441
 30
201.1358390284593
 11
-26.85711149970945
 21
-19.32108683165097
 31
204.7372188017972
  0
LINE
  5
5C37
  8
0
 10
-26.85711149970945
 20
-19.32108683165097
 30
204.7372188017972
 11
-39.05754651904363
 21
-23.27753379373485
 31
209.6945608405458
  0
LINE
  5
5C38
  8
0
 10
-39.05754651904363
 20
-23.27753379373485
 30
209.6945608405458
 11
-50.73027518254071
 21
-27.06285225055512
 31
215.8992443169813
  0
LINE
  5
5C39
  8
0
 10
-50.73027518254071
 20
-27.06285225055512
 30
215.8992443169813
 11
-61.79649182367828
 21
-30.65148651992399
 31
223.2299932995918
  0
LINE
  5
5C3A
  8
0
 10
-61.79649182367828
 20
-30.65148651992399
 30
223.2299932995918
 11
-72.20295072290529
 21
-34.02616968758571
 31
231.5604467092522
  0
LINE
  5
5C3B
  8
0
 10
-72.20295072290529
 20
-34.02616968758571
 30
231.5604467092522
 11
-81.91981917557936
 21
-37.17722738426846
 31
240.7654795815197
  0
LINE
  5
5C3C
  8
0
 10
-81.91981917557936
 20
-37.17722738426846
 30
240.7654795815197
 11
-90.93740224459697
 21
-40.10151566433512
 31
250.7259545181056
  0
LINE
  5
5C3D
  8
0
 10
-90.93740224459697
 20
-40.10151566433512
 30
250.7259545181056
 11
-99.26237221949219
 21
-42.80119826699786
 31
261.331892292574
  0
LINE
  5
5C3E
  8
0
 10
-34.17736363866112
 20
-21.69495213161338
 30
207.7116204198671
 11
-68.76489208083834
 21
-37.4524807473299
 31
195.7575880768366
  0
LINE
  5
5C3F
  8
0
 10
-42.87732601098207
 20
-24.51624003189443
 30
211.7249792097634
 11
-69.72403160344828
 21
-49.48705226246
 31
215.7324741082696
  0
LINE
  5
5C40
  8
0
 10
-51.3331626813337
 20
-27.2583610507985
 30
216.2986235322748
 11
-57.24466800659053
 21
-54.09809126869902
 31
236.9229387592535
  0
LINE
  5
5C41
  8
0
 10
-59.38096210342619
 20
-29.86816074437832
 30
221.6298400933571
 11
-69.85378240465619
 21
-34.08652729418418
 31
252.8963596425331
  0
LINE
  5
5C42
  8
0
 10
-67.0929707434637
 20
-32.36906772901352
 30
227.4698669495803
 11
-81.73653789899973
 21
-16.59170216009409
 31
246.9961444035186
  0
LINE
  5
5C43
  8
0
 10
-74.49808568670144
 20
-34.77045296442736
 30
233.7346855487437
 11
-100.6857158736011
 21
-23.51375583896629
 31
237.1524798203098
  0
LINE
  5
5C44
  8
0
 10
-81.56458464057883
 20
-37.06202931185521
 30
240.4289570086383
 11
-103.0702207200231
 21
-46.2005448112958
 31
242.1190659705138
  0
LINE
  5
5C45
  8
0
 10
-88.14809989072165
 20
-39.19698014516428
 30
247.6449985708529
 11
-99.71473530785912
 21
-57.9452165977475
 31
249.1004056277016
  0
LINE
  5
5C46
  8
0
 10
-94.41659190796722
 20
-41.22977292338703
 30
255.1584112340522
 11
-94.97607581836851
 21
-53.28025551035205
 31
272.8809118964893
  0
LINE
  5
5C47
  8
0
 10
-99.262366165238
 20
-42.80119630367972
 30
261.3318845795079
 11
-96.99973500382077
 21
-39.97518382578937
 31
280.5033620187007
  0
LINE
  5
5C48
  8
0
 10
-14.23365675402346
 20
-15.22745991585441
 30
201.1358390284593
 11
-13.83346951146814
 21
-19.81508022830053
 31
207.1410341148928
  0
LINE
  5
5C49
  8
0
 10
-13.83346951146814
 20
-19.81508022830053
 30
207.1410341148928
 11
-19.28513484955027
 21
-32.51424735313481
 31
204.8429060782572
  0
LINE
  5
5C4A
  8
0
 10
-19.28513484955027
 20
-32.51424735313481
 30
204.8429060782572
 11
-24.80372532309383
 21
-45.36931059913036
 31
204.0923055037456
  0
LINE
  5
5C4B
  8
0
 10
-24.80372532309383
 20
-45.36931059913036
 30
204.0923055037456
 11
-30.32110318520796
 21
-58.22154917518651
 31
204.8981579756497
  0
LINE
  5
5C4C
  8
0
 10
-30.32110318520796
 20
-58.22154917518651
 30
204.8981579756497
 11
-35.77043993553656
 21
-70.91529206298253
 31
207.2315061227836
  0
LINE
  5
5C4D
  8
0
 10
-35.77043993553656
 20
-70.91529206298253
 30
207.2315061227836
 11
-41.09007616874732
 21
-83.30690918903167
 31
211.028898444286
  0
LINE
  5
5C4E
  8
0
 10
-41.09007616874732
 20
-83.30690918903167
 30
211.028898444286
 11
-46.22657342498894
 21
-95.27192043754178
 31
216.1985981314379
  0
LINE
  5
5C4F
  8
0
 10
-46.22657342498894
 20
-95.27192043754178
 30
216.1985981314379
 11
-51.13666265595032
 21
-106.7095344279418
 31
222.6284428454485
  0
LINE
  5
5C50
  8
0
 10
-51.13666265595032
 20
-106.7095344279418
 30
222.6284428454485
 11
-55.78803659654864
 21
-117.5444942739064
 31
230.1941059820643
  0
LINE
  5
5C51
  8
0
 10
-22.59628519454725
 20
-40.22727612488291
 30
204.3925462693234
 11
-29.00113665744539
 21
-63.88005878806803
 31
175.6123191012606
  0
LINE
  5
5C52
  8
0
 10
-26.53503381485916
 20
-49.40223898304828
 30
204.3451754833962
 11
-21.1150147046032
 21
-86.8414212607745
 31
196.0500378733259
  0
LINE
  5
5C53
  8
0
 10
-30.47142050851556
 20
-58.57169994418291
 30
204.9625222577434
 11
-17.89377291758137
 21
-88.76574478991813
 31
220.6532852423379
  0
LINE
  5
5C54
  8
0
 10
-34.36111684024752
 20
-67.63239988048838
 30
206.6280489345474
 11
-43.50889009714246
 21
-86.38831785110392
 31
231.6998066905047
  0
LINE
  5
5C55
  8
0
 10
-38.19177742026301
 20
-76.55558130989812
 30
208.9599642295359
 11
-63.58372334234215
 21
-86.00354123106479
 31
224.3437185587349
  0
LINE
  5
5C56
  8
0
 10
-41.95795088621895
 20
-85.32854577108719
 30
211.9023831229643
 11
-66.56822036372637
 21
-101.9285409139076
 31
212.4343826460718
  0
LINE
  5
5C57
  8
0
 10
-45.62434469723638
 20
-93.86908244459244
 30
215.5924765839819
 11
-55.01295113649832
 21
-114.9286186957872
 31
202.4270137940904
  0
LINE
  5
5C58
  8
0
 10
-49.15567534535774
 20
-102.0950015523341
 30
220.0343065297136
 11
-42.81046818482633
 21
-122.9830060462083
 31
215.8684081488838
  0
LINE
  5
5C59
  8
0
 10
-52.58017102225568
 20
-110.0720581437239
 30
224.9763723333426
 11
-43.81920597170671
 21
-125.53649282807
 31
238.4946480764872
  0
LINE
  5
5C5A
  8
0
 10
-55.78803327643226
 20
-117.544486539992
 30
230.1941005817498
 11
-54.88212694484702
 21
-120.4067239535758
 31
248.4658195523195
  0
LINE
  5
5C5B
  8
0
 10
-13.83346951146814
 20
-19.81508022830053
 30
207.1410341148928
 11
-12.59252999952298
 21
-21.66276997575096
 31
212.6743378894261
  0
LINE
  5
5C5C
  8
0
 10
-12.59252999952298
 20
-21.66276997575096
 30
212.6743378894261
 11
-2.591849099171043
 21
-26.02492479430089
 31
215.5107169483046
  0
LINE
  5
5C5D
  8
0
 10
-2.591849099171043
 20
-26.02492479430089
 30
215.5107169483046
 11
7.084057365239516
 21
-30.24541762155241
 31
219.466893598102
  0
LINE
  5
5C5E
  8
0
 10
7.084057365239516
 20
-30.24541762155241
 30
219.466893598102
 11
16.35048833039741
 21
-34.28730305797319
 31
224.4552278475404
  0
LINE
  5
5C5F
  8
0
 10
16.35048833039741
 20
-34.28730305797319
 30
224.4552278475404
 11
25.14311398449911
 21
-38.12252135429901
 31
230.3770429429032
  0
LINE
  5
5C60
  8
0
 10
25.14311398449911
 20
-38.12252135429901
 30
230.3770429429032
 11
33.41789639781257
 21
-41.7318637917142
 31
237.1289080540484
  0
LINE
  5
5C61
  8
0
 10
33.41789639781257
 20
-41.7318637917142
 30
237.1289080540484
 11
41.14951369538636
 21
-45.10428532839262
 31
244.6079404941514
  0
LINE
  5
5C62
  8
0
 10
41.14951369538636
 20
-45.10428532839262
 30
244.6079404941514
 11
48.32883815323339
 21
-48.23580458090953
 31
252.7158345978865
  0
LINE
  5
5C63
  8
0
 10
48.32883815323339
 20
-48.23580458090953
 30
252.7158345978865
 11
54.95997731598919
 21
-51.12821320183377
 31
261.3615864490025
  0
LINE
  5
5C64
  8
0
 10
3.213686196438061
 20
-28.55721674685299
 30
217.8844194288466
 11
36.50669806213364
 21
-45.68538910694042
 31
209.6966515860155
  0
LINE
  5
5C65
  8
0
 10
11.59728771201236
 20
-32.21402452947882
 30
221.8964699472988
 11
48.6595859229617
 21
-26.27582247530904
 31
224.0571067304044
  0
LINE
  5
5C66
  8
0
 10
19.63984612871411
 20
-35.72207416134449
 30
226.6706034850822
 11
39.25950190067687
 21
-24.60640116895274
 31
248.7507390135897
  0
LINE
  5
5C67
  8
0
 10
27.30412866535175
 20
-39.06512523267168
 30
232.1403376012433
 11
28.33945618963116
 21
-35.97663684310362
 31
263.060860146929
  0
LINE
  5
5C68
  8
0
 10
34.56379320304649
 20
-42.23168768573885
 30
238.2373694599232
 11
35.86491465084185
 21
-60.14559683434175
 31
261.4919302539406
  0
LINE
  5
5C69
  8
0
 10
41.40266902625075
 20
-45.21470808434049
 30
244.8938387881337
 11
50.36151154733847
 21
-67.46267951693676
 31
248.9253816455044
  0
LINE
  5
5C6A
  8
0
 10
47.77110688901655
 20
-47.99253013330929
 30
252.0859666966427
 11
66.06120769942123
 21
-56.10530377925375
 31
248.5705886575804
  0
LINE
  5
5C6B
  8
0
 10
53.69586179384999
 20
-50.57682398433462
 30
259.7134187892217
 11
71.04689086839107
 21
-44.84540876774429
 31
265.5253611004588
  0
LINE
  5
5C6C
  8
0
 10
54.9599714338205
 20
-51.12821063611545
 30
261.3615787797665
 11
64.39235642626863
 21
-43.25231721585737
 31
274.7790155400531
  0
LINE
  5
5C6D
  8
0
 10
-12.59252999952298
 20
-21.66276997575096
 30
212.6743378894261
 11
-13.37955795821227
 21
-22.93274846278484
 31
218.8495069362492
  0
LINE
  5
5C6E
  8
0
 10
-13.37955795821227
 20
-22.93274846278484
 30
218.8495069362492
 11
-2.890566693196149
 21
-19.69026379391971
 31
227.1302131067817
  0
LINE
  5
5C6F
  8
0
 10
-2.890566693196149
 20
-19.69026379391971
 30
227.1302131067817
 11
6.906834761076937
 21
-16.66157178650496
 31
236.2921282306046
  0
LINE
  5
5C70
  8
0
 10
6.906834761076937
 20
-16.66157178650496
 30
236.2921282306046
 11
16.00192064389125
 21
-13.84998811826438
 31
246.2156935842876
  0
LINE
  5
5C71
  8
0
 10
16.00192064389125
 20
-13.84998811826438
 30
246.2156935842876
 11
24.4006113593195
 21
-11.25368260181824
 31
256.7903770878236
  0
LINE
  5
5C72
  8
0
 10
24.4006113593195
 20
-11.25368260181824
 30
256.7903770878236
 11
32.12166789458104
 21
-8.866855612408244
 31
267.9165211714683
  0
LINE
  5
5C73
  8
0
 10
32.12166789458104
 20
-8.866855612408244
 30
267.9165211714683
 11
39.19318429527357
 21
-6.680822376652714
 31
279.506070505028
  0
LINE
  5
5C74
  8
0
 10
39.19318429527357
 20
-6.680822376652714
 30
279.506070505028
 11
45.6495571791919
 21
-4.684949793327633
 31
291.4824840367594
  0
LINE
  5
5C75
  8
0
 10
45.6495571791919
 20
-4.684949793327633
 30
291.4824840367594
 11
51.52899724494483
 21
-2.867425706116364
 31
303.7801069767316
  0
LINE
  5
5C76
  8
0
 10
2.987867054742935
 20
-17.87305079192163
 30
232.6273555185734
 11
40.14159580633179
 21
-6.032447094897748
 31
240.7281427278785
  0
LINE
  5
5C77
  8
0
 10
9.882697908486819
 20
-15.74163674334216
 30
239.5390654016696
 11
32.42094187871965
 21
7.004010837329474
 31
253.6351190105495
  0
LINE
  5
5C78
  8
0
 10
16.45872511596878
 20
-13.70877515889049
 30
246.7908502222557
 11
13.64947322825634
 21
6.917493962529193
 31
275.9953789496059
  0
LINE
  5
5C79
  8
0
 10
22.56621390655164
 20
-11.82075387368059
 30
254.4807108386452
 11
20.89586636830137
 21
-13.07522208467435
 31
283.1937770207799
  0
LINE
  5
5C7A
  8
0
 10
28.32893553715826
 20
-10.0393112100279
 30
262.4511439285133
 11
38.3626449162208
 21
-25.28364563096818
 31
286.9548127550826
  0
LINE
  5
5C7B
  8
0
 10
33.79037602576977
 20
-8.351004240671841
 30
270.6513766273406
 11
55.95651345948914
 21
-18.64888352267599
 31
285.9904459299401
  0
LINE
  5
5C7C
  8
0
 10
38.93274983295322
 20
-6.761331048076158
 30
279.0792429509089
 11
59.38746892752653
 21
2.682344528629756
 31
282.3888880858962
  0
LINE
  5
5C7D
  8
0
 10
43.65044904884485
 20
-5.302938434968837
 30
287.7741874290281
 11
56.12289000367497
 21
11.99960201055478
 31
298.7789498969732
  0
LINE
  5
5C7E
  8
0
 10
48.10458811488138
 20
-3.926020743866729
 30
296.6175044494916
 11
44.29617613300638
 21
9.92306964821853
 31
312.7832555643096
  0
LINE
  5
5C7F
  8
0
 10
51.52899296944338
 20
-2.867427027811459
 30
303.7800980339575
 11
46.89549166700812
 21
-5.98061395111074
 31
322.523463496097
  0
LINE
  5
5C80
  8
0
 10
-13.37955795821227
 20
-22.93274846278484
 30
218.8495069362492
 11
-15.55310759846327
 21
-24.49465634943169
 31
223.0252006366976
  0
LINE
  5
5C81
  8
0
 10
-15.55310759846327
 20
-24.49465634943169
 30
223.0252006366976
 11
-18.53590912453404
 21
-17.06738963836563
 31
231.2689169440786
  0
LINE
  5
5C82
  8
0
 10
-18.53590912453404
 20
-17.06738963836563
 30
231.2689169440786
 11
-21.29141120238745
 21
-10.20610548109426
 31
240.0638155967035
  0
LINE
  5
5C83
  8
0
 10
-21.29141120238745
 20
-10.20610548109426
 30
240.0638155967035
 11
-23.82543444834363
 21
-3.896310365577278
 31
249.3258599761573
  0
LINE
  5
5C84
  8
0
 10
-23.82543444834363
 20
-3.896310365577278
 30
249.3258599761573
 11
-26.14692848584951
 21
1.884280543338832
 31
258.9806871872161
  0
LINE
  5
5C85
  8
0
 10
-26.14692848584951
 20
1.884280543338832
 30
258.9806871872161
 11
-28.26697046914984
 21
7.16324969733796
 31
268.963580603355
  0
LINE
  5
5C86
  8
0
 10
-28.26697046914984
 20
7.16324969733796
 30
268.963580603355
 11
-30.19793961866532
 21
11.97142173256702
 31
279.218974019557
  0
LINE
  5
5C87
  8
0
 10
-30.19793961866532
 20
11.97142173256702
 30
279.218974019557
 11
-31.95286589782512
 21
16.34124165509763
 31
289.6996782848814
  0
LINE
  5
5C88
  8
0
 10
-31.95286589782512
 20
16.34124165509763
 30
289.6996782848814
 11
-33.54493622315289
 21
20.30554528899029
 31
300.365973943419
  0
LINE
  5
5C89
  8
0
 10
-20.18920797307334
 20
-12.95062511552601
 30
236.545848481264
 11
-31.63473841265329
 21
20.62751914999126
 31
246.4425710961206
  0
LINE
  5
5C8A
  8
0
 10
-22.48321463779291
 20
-7.238478602620148
 30
244.4199462391221
 11
-50.33973538522014
 21
8.547062075736108
 31
257.3698025389987
  0
LINE
  5
5C8B
  8
0
 10
-24.61623317032371
 20
-1.927197445532101
 30
252.6147010828296
 11
-41.69486312898209
 21
-6.997796446547227
 31
281.9307783314621
  0
LINE
  5
5C8C
  8
0
 10
-26.59418030485045
 20
2.997951204190827
 30
261.0867149330959
 11
-26.81941438403766
 21
-0.2562819856045735
 31
292.7082969551576
  0
LINE
  5
5C8D
  8
0
 10
-28.42392962840131
 20
7.554082787745074
 30
269.7971920200904
 11
-10.0562021012509
 21
16.441583448389
 31
290.5029678843969
  0
LINE
  5
5C8E
  8
0
 10
-30.10449361544335
 20
11.73873833645541
 30
278.7226815094185
 11
-22.30237645922762
 21
31.8997788003519
 31
292.6956046316009
  0
LINE
  5
5C8F
  8
0
 10
-31.64036300416154
 20
15.56309992527338
 30
287.8333603378312
 11
-37.39030298516695
 21
36.56331245362344
 31
295.5668634957663
  0
LINE
  5
5C90
  8
0
 10
-33.05497610858896
 20
19.08552967050423
 30
297.083418292648
 11
-48.93821252858129
 21
27.87993024826278
 31
306.534215018634
  0
LINE
  5
5C91
  8
0
 10
-33.54493483753981
 20
20.30554183877155
 30
300.3659646603124
 11
-44.31565869072926
 21
15.47808781459071
 31
315.4356279170013
  0
LINE
  5
5C92
  8
0
 10
-15.55310759846327
 20
-24.49465634943169
 30
223.0252006366976
 11
-17.66680335676335
 21
-27.8196087516252
 31
226.6116232630942
  0
LINE
  5
5C93
  8
0
 10
-17.66680335676335
 20
-27.8196087516252
 30
226.6116232630942
 11
-27.48348930408878
 21
-25.73221437855545
 31
232.2190183186469
  0
LINE
  5
5C94
  8
0
 10
-27.48348930408878
 20
-25.73221437855545
 30
232.2190183186469
 11
-36.75634353386914
 21
-23.7604589566746
 31
238.7223845666531
  0
LINE
  5
5C95
  8
0
 10
-36.75634353386914
 20
-23.7604589566746
 30
238.7223845666531
 11
-45.44858989992861
 21
-21.91216246932572
 31
246.0159482205027
  0
LINE
  5
5C96
  8
0
 10
-45.44858989992861
 20
-21.91216246932572
 30
246.0159482205027
 11
-53.54244796809945
 21
-20.19110570143266
 31
253.9968531027935
  0
LINE
  5
5C97
  8
0
 10
-53.54244796809945
 20
-20.19110570143266
 30
253.9968531027935
 11
-61.03607283616211
 21
-18.59768094816843
 31
262.5685508027018
  0
LINE
  5
5C98
  8
0
 10
-61.03607283616211
 20
-18.59768094816843
 30
262.5685508027018
 11
-67.94026736790866
 21
-17.12959111688747
 31
271.6429228295293
  0
LINE
  5
5C99
  8
0
 10
-67.94026736790866
 20
-17.12959111688747
 30
271.6429228295293
 11
-74.27532227796326
 21
-15.78252164320838
 31
281.1413385229937
  0
LINE
  5
5C9A
  8
0
 10
-74.27532227796326
 20
-15.78252164320838
 30
281.1413385229937
 11
-80.06820006739252
 21
-14.55073929156549
 31
290.9949011640437
  0
LINE
  5
5C9B
  8
0
 10
-33.04719377608677
 20
-24.54916284053252
 30
236.1210324105831
 11
-68.58766325564994
 21
-14.00242754626242
 31
234.8776889057796
  0
LINE
  5
5C9C
  8
0
 10
-40.84027354739135
 20
-22.89206278142979
 30
242.1491631296489
 11
-72.215160428319
 21
-37.7456734375761
 31
248.793848336012
  0
LINE
  5
5C9D
  8
0
 10
-48.19785343219047
 20
-21.32756627687104
 30
248.72684462646
 11
-66.67675839294574
 21
-35.15864783477286
 31
273.4535270514973
  0
LINE
  5
5C9E
  8
0
 10
-55.11243471652637
 20
-19.85726783374037
 30
255.7927065165042
 11
-53.86247995372969
 21
-17.59099166327053
 31
282.8198558119751
  0
LINE
  5
5C9F
  8
0
 10
-61.5838964689772
 20
-18.48119316657812
 30
263.2885704119979
 11
-58.49044735455118
 21
-0.7841542181330396
 31
284.7868861837687
  0
LINE
  5
5CA0
  8
0
 10
-67.58941923054621
 20
-17.20419454534203
 30
271.181793510431
 11
-83.81528906983405
 21
1.734761758624472
 31
279.7327914913413
  0
LINE
  5
5CA1
  8
0
 10
-73.1288051586854
 20
-16.02631403875318
 30
279.4223169275707
 11
-93.49417443446063
 21
-10.87946393197797
 31
280.2702093564685
  0
LINE
  5
5CA2
  8
0
 10
-78.26578679527717
 20
-14.93399972613054
 30
287.929034296585
 11
-94.1729123125387
 21
-25.55249275950598
 31
292.0697585408619
  0
LINE
  5
5CA3
  8
0
 10
-80.068195028534
 20
-14.55074036301517
 30
290.9948925930519
 11
-82.8852672361595
 21
-26.83514224678981
 31
304.4510967474565
  0
LINE
  5
5CA4
  8
0
 10
-17.66680335676335
 20
-27.8196087516252
 30
226.6116232630942
 11
-18.53996892111655
 21
-34.24285156614656
 31
231.2760700968678
  0
LINE
  5
5CA5
  8
0
 10
-18.53996892111655
 20
-34.24285156614656
 30
231.2760700968678
 11
-25.46680288693238
 21
-43.34593606649116
 31
226.6142007256779
  0
LINE
  5
5CA6
  8
0
 10
-25.46680288693238
 20
-43.34593606649116
 30
226.6142007256779
 11
-32.65548275540237
 21
-52.79313237746862
 31
223.2004687715051
  0
LINE
  5
5CA7
  8
0
 10
-32.65548275540237
 20
-52.79313237746862
 30
223.2004687715051
 11
-40.0272989754381
 21
-62.48100223304311
 31
221.1072163920958
  0
LINE
  5
5CA8
  8
0
 10
-40.0272989754381
 20
-62.48100223304311
 30
221.1072163920958
 11
-47.49422440979828
 21
-72.29386241161785
 31
220.3771465886664
  0
LINE
  5
5CA9
  8
0
 10
-47.49422440979828
 20
-72.29386241161785
 30
220.3771465886664
 11
-54.96409540435815
 21
-82.11059357707222
 31
221.0198119714773
  0
LINE
  5
5CAA
  8
0
 10
-54.96409540435815
 20
-82.11059357707222
 30
221.0198119714773
 11
-62.346243544554
 21
-91.81204140242812
 31
223.0112941261887
  0
LINE
  5
5CAB
  8
0
 10
-62.346243544554
 20
-91.81204140242812
 30
223.0112941261887
 11
-69.55675819664904
 21
-101.2879324794945
 31
226.2970465502051
  0
LINE
  5
5CAC
  8
0
 10
-69.55675819664904
 20
-101.2879324794945
 30
226.2970465502051
 11
-76.52268360481139
 21
-110.4423900464778
 31
230.7972678899453
  0
LINE
  5
5CAD
  8
0
 10
-29.78000498832171
 20
-49.01424620497255
 30
224.5659643168069
 11
-39.46597108226916
 21
-62.37269623171733
 31
192.1571760782082
  0
LINE
  5
5CAE
  8
0
 10
-35.67470346903298
 20
-56.76092219558836
 30
222.3431507437452
 11
-38.99800502211059
 21
-86.45479449714799
 31
205.473243575653
  0
LINE
  5
5CAF
  8
0
 10
-41.66349755403286
 20
-64.63125644641048
 30
220.9472390111581
 11
-41.67291625894313
 21
-94.01639193708024
 31
231.6618106613766
  0
LINE
  5
5CB0
  8
0
 10
-47.70853217686289
 20
-72.57550070730917
 30
220.3955844148699
 11
-62.40905609023039
 21
-87.6306346089716
 31
238.4020944629528
  0
LINE
  5
5CB1
  8
0
 10
-53.75586691064387
 20
-80.52276772065886
 30
220.9158628366125
 11
-76.359531579469
 21
-83.68352454127364
 31
231.7970674623706
  0
LINE
  5
5CB2
  8
0
 10
-59.74637332540058
 20
-88.39535227552255
 30
222.3099271192307
 11
-81.46554672987338
 21
-96.7603918459813
 31
217.4841523372797
  0
LINE
  5
5CB3
  8
0
 10
-65.64418910659981
 20
-96.14612495012057
 30
224.5141317387047
 11
-76.78077778402402
 21
-112.8475148973133
 31
216.0125858907813
  0
LINE
  5
5CB4
  8
0
 10
-71.4162669023028
 20
-103.7316556812096
 30
227.4983515123298
 11
-71.05583667184678
 21
-123.6167451224696
 31
223.8582627472237
  0
LINE
  5
5CB5
  8
0
 10
-76.5226779654526
 20
-110.4423826353634
 30
230.7972642467305
 11
-70.61168632229956
 21
-121.7396956231707
 31
241.8429731133605
  0
LINE
  5
5CB6
  8
0
 10
-18.53996892111655
 20
-34.24285156614656
 30
231.2760700968678
 11
-18.01002779258079
 21
-37.4476501284762
 31
235.5164771033583
  0
LINE
  5
5CB7
  8
0
 10
-18.01002779258079
 20
-37.4476501284762
 30
235.5164771033583
 11
-17.42444003748909
 21
-48.45763931748888
 31
234.7387046175094
  0
LINE
  5
5CB8
  8
0
 10
-17.42444003748909
 20
-48.45763931748888
 30
234.7387046175094
 11
-16.83788612920296
 21
-59.48579373644952
 31
235.1897806920993
  0
LINE
  5
5CB9
  8
0
 10
-16.83788612920296
 20
-59.48579373644952
 30
235.1897806920993
 11
-16.2575135477054
 21
-70.39772929576941
 31
236.8512664779936
  0
LINE
  5
5CBA
  8
0
 10
-16.2575135477054
 20
-70.39772929576941
 30
236.8512664779936
 11
-15.68997822298752
 21
-81.06830383424824
 31
239.6769429766037
  0
LINE
  5
5CBB
  8
0
 10
-15.68997822298752
 20
-81.06830383424824
 30
239.6769429766037
 11
-15.14110475166035
 21
-91.38800559184688
 31
243.5974274552777
  0
LINE
  5
5CBC
  8
0
 10
-15.14110475166035
 20
-91.38800559184688
 30
243.5974274552777
 11
-14.61566075166303
 21
-101.2671957031499
 31
248.526242358318
  0
LINE
  5
5CBD
  8
0
 10
-14.61566075166303
 20
-101.2671957031499
 30
248.526242358318
 11
-14.11725471803334
 21
-110.6380286727403
 31
254.3663438884725
  0
LINE
  5
5CBE
  8
0
 10
-14.11725471803334
 20
-110.6380286727403
 30
254.3663438884725
 11
-13.64834444558966
 21
-119.4542940152651
 31
261.0162531786378
  0
LINE
  5
5CBF
  8
0
 10
-17.07250822319372
 20
-55.07452199129875
 30
235.0093498541587
 11
-17.10321603492383
 21
-86.1381233807831
 31
216.836685235156
  0
LINE
  5
5CC0
  8
0
 10
-16.54495181478507
 20
-64.99342876943695
 30
236.0283906042873
 11
0.8494877283509936
 21
-91.28748133809745
 31
228.9459924386297
  0
LINE
  5
5CC1
  8
0
 10
-16.02512442404043
 20
-74.76701761668903
 30
238.0082983959614
 11
2.744886342127415
 21
-92.6271783705223
 31
254.2709306425233
  0
LINE
  5
5CC2
  8
0
 10
-15.51751855567608
 20
-84.31082223756118
 30
240.9087850753972
 11
-13.14411427229379
 21
-95.55548530870124
 31
266.5083096402179
  0
LINE
  5
5CC3
  8
0
 10
-15.02606276282017
 20
-93.55097953110601
 30
244.6765541920443
 11
-33.56554927372974
 21
-104.3150182188224
 31
259.7641442990998
  0
LINE
  5
5CC4
  8
0
 10
-14.55401875566992
 20
-102.4261641132174
 30
249.2485360121479
 11
-26.98731858816677
 21
-120.7013572975848
 31
250.9166403029657
  0
LINE
  5
5CC5
  8
0
 10
-14.10393105234556
 20
-110.8885349613454
 30
254.5552951088723
 11
-14.67601824112194
 21
-131.322516926941
 31
253.983696328565
  0
LINE
  5
5CC6
  8
0
 10
-13.67969112549162
 20
-118.864926147117
 30
260.571706342823
 11
-2.308288177629038
 21
-131.9365053481722
 31
264.3917399844056
  0
LINE
  5
5CC7
  8
0
 10
-13.6483448698296
 20
-119.4542860388739
 30
261.0162471622266
 11
-2.688673240122057
 21
-125.2755041235271
 31
274.0640972364099
  0
LINE
  5
5CC8
  8
0
 10
-18.01002779258079
 20
-37.4476501284762
 30
235.5164771033583
 11
-17.61665135140549
 21
-38.65294374619293
 31
239.5226722654479
  0
LINE
  5
5CC9
  8
0
 10
-17.61665135140549
 20
-38.65294374619293
 30
239.5226722654479
 11
-6.822004104888663
 21
-42.72809985988749
 31
245.3028218833647
  0
LINE
  5
5CCA
  8
0
 10
-6.822004104888663
 20
-42.72809985988749
 30
245.3028218833647
 11
3.415163855646711
 21
-46.59279841358557
 31
252.1443080793643
  0
LINE
  5
5CCB
  8
0
 10
3.415163855646711
 20
-46.59279841358557
 30
252.1443080793643
 11
13.04482428105621
 21
-50.22815292394932
 31
259.9286046955333
  0
LINE
  5
5CCC
  8
0
 10
13.04482428105621
 20
-50.22815292394932
 30
259.9286046955333
 11
22.03865971170706
 21
-53.62347308622759
 31
268.5381436712983
  0
LINE
  5
5CCD
  8
0
 10
22.03865971170706
 20
-53.62347308622759
 30
268.5381436712983
 11
30.38706886635356
 21
-56.77513425951508
 31
277.8608327988316
  0
LINE
  5
5CCE
  8
0
 10
30.38706886635356
 20
-56.77513425951508
 30
277.8608327988316
 11
38.09569458910386
 21
-59.68526670987239
 31
287.7930860538161
  0
LINE
  5
5CCF
  8
0
 10
38.09569458910386
 20
-59.68526670987239
 30
287.7930860538161
 11
45.18192890058566
 21
-62.36043620990642
 31
298.2415398897712
  0
LINE
  5
5CD0
  8
0
 10
45.18192890058566
 20
-62.36043620990642
 30
298.2415398897712
 11
51.67169536413991
 21
-64.8104293293145
 31
309.1237226256289
  0
LINE
  5
5CD1
  8
0
 10
-0.6797112612244405
 20
-45.0469159973984
 30
249.40770829958
 11
34.23539504888021
 21
-55.62020018936721
 31
247.9871641661518
  0
LINE
  5
5CD2
  8
0
 10
7.025199017530099
 20
-47.95564580680161
 30
255.062540213568
 11
35.99067012661538
 21
-39.46794340444148
 31
262.6870795824401
  0
LINE
  5
5CD3
  8
0
 10
14.39187517966405
 20
-50.73668669810218
 30
261.2180976269227
 11
27.04043687020743
 21
-32.93520784900056
 31
284.7788783799219
  0
LINE
  5
5CD4
  8
0
 10
21.36108891503039
 20
-53.36767901426947
 30
267.8895247113663
 11
18.70315622141976
 21
-55.91523708158923
 31
296.104350775074
  0
LINE
  5
5CD5
  8
0
 10
27.87879431413921
 20
-55.82821953939026
 30
275.0598364097431
 11
28.30620386358379
 21
-72.51948313801313
 31
299.0429340467563
  0
LINE
  5
5CD6
  8
0
 10
34.0443372220027
 20
-58.15581295689026
 30
282.5730755300545
 11
43.41902328610786
 21
-78.90586256415997
 31
291.7892317606614
  0
LINE
  5
5CD7
  8
0
 10
39.86247904279656
 20
-60.35225677482049
 30
290.3981602005431
 11
58.94337985723024
 21
-70.51986130168302
 31
292.2856562608526
  0
LINE
  5
5CD8
  8
0
 10
45.33907291514316
 20
-62.41976064886489
 30
298.505042419772
 11
62.15128543621927
 21
-50.85096614028657
 31
304.9721954542843
  0
LINE
  5
5CD9
  8
0
 10
50.36791405037053
 20
-64.31823053204084
 30
306.9375135249297
 11
54.89306302234883
 21
-50.45594580113482
 31
319.0195927616966
  0
LINE
  5
5CDA
  8
0
 10
51.67169033529876
 20
-64.81042743084458
 30
309.1237141931578
 11
47.17289301869005
 21
-61.04619536451548
 31
324.8380177995397
  0
LINE
  5
5CDB
  8
0
 10
-17.61665135140549
 20
-38.65294374619293
 30
239.5226722654479
 11
-18.16683913069051
 21
-39.12575729617583
 31
241.6722149418553
  0
LINE
  5
5CDC
  8
0
 10
-18.16683913069051
 20
-39.12575729617583
 30
241.6722149418553
 11
-8.777302882501544
 21
-40.28168665226178
 31
250.0917809072461
  0
LINE
  5
5CDD
  8
0
 10
-8.777302882501544
 20
-40.28168665226178
 30
250.0917809072461
 11
-0.0596494035012256
 21
-41.35490169784021
 31
259.2153428193448
  0
LINE
  5
5CDE
  8
0
 10
-0.0596494035012256
 20
-41.35490169784021
 30
259.2153428193448
 11
7.9914470338922
 21
-42.34605807390267
 31
268.9408818723672
  0
LINE
  5
5CDF
  8
0
 10
7.9914470338922
 20
-42.34605807390267
 30
268.9408818723672
 11
15.39368203548128
 21
-43.25733425547492
 31
279.1763665887854
  0
LINE
  5
5CE0
  8
0
 10
15.39368203548128
 20
-43.25733425547492
 30
279.1763665887854
 11
22.17375597469152
 21
-44.09201727874756
 31
289.8404444348715
  0
LINE
  5
5CE1
  8
0
 10
22.17375597469152
 20
-44.09201727874756
 30
289.8404444348715
 11
28.36446260332383
 21
-44.85414432504672
 31
300.8623756849469
  0
LINE
  5
5CE2
  8
0
 10
28.36446260332383
 20
-44.85414432504672
 30
300.8623756849469
 11
34.00229570092353
 21
-45.54820807963154
 31
312.1814643472934
  0
LINE
  5
5CE3
  8
0
 10
34.00229570092353
 20
-45.54820807963154
 30
312.1814643472934
 11
39.12556503317717
 21
-46.178924790633
 31
323.7461935900182
  0
LINE
  5
5CE4
  8
0
 10
-3.54671767865625
 20
-40.92561483218651
 30
255.5659108504407
 11
31.47897511853722
 21
-46.35864606192627
 31
256.4762962242773
  0
LINE
  5
5CE5
  8
0
 10
3.077139795976677
 20
-41.74106632021221
 30
263.004511921696
 11
28.7728577797335
 21
-24.46672767040116
 31
271.4618539932874
  0
LINE
  5
5CE6
  8
0
 10
9.318084224333916
 20
-42.50937805401384
 30
270.7752973812078
 11
18.44707787777855
 21
-29.21408165580385
 31
296.5923587169018
  0
LINE
  5
5CE7
  8
0
 10
15.16297024311018
 20
-43.22893173094678
 30
278.8573484781464
 11
15.83375665382357
 21
-45.81081794970623
 31
308.1189524662697
  0
LINE
  5
5CE8
  8
0
 10
20.53598248317894
 20
-43.89039385375418
 30
287.2644630865352
 11
20.24117253916404
 21
-58.25296744190496
 31
309.1881481430467
  0
LINE
  5
5CE9
  8
0
 10
25.56659812592255
 20
-44.50970413137884
 30
295.8810590490853
 11
39.77927649793583
 21
-59.97474779851802
 31
308.5668442529995
  0
LINE
  5
5CEA
  8
0
 10
30.26816195718948
 20
-45.08850541702498
 30
304.6844366434437
 11
52.63104702196483
 21
-48.97688964467886
 31
309.896755914095
  0
LINE
  5
5CEB
  8
0
 10
34.65436521631307
 20
-45.62848321517856
 30
313.6533774761699
 11
49.93124585906702
 21
-36.1097558668564
 31
324.5307296587553
  0
LINE
  5
5CEC
  8
0
 10
38.6997549241629
 20
-46.12650405417514
 30
322.7850146434882
 11
37.52402657973136
 21
-32.77390904045501
 31
336.3379652809272
  0
LINE
  5
5CED
  8
0
 10
39.12556098778742
 20
-46.17892429261212
 30
323.746184458381
 11
33.69227159285066
 21
-43.75381144270523
 31
341.1138426718261
  0
LINE
  5
5CEE
  8
0
 10
-18.16683913069051
 20
-39.12575729617583
 30
241.6722149418553
 11
-26.59987424046579
 21
-42.06078402439039
 31
253.5365336660693
  0
LINE
  5
5CEF
  8
0
 10
-26.59987424046579
 20
-42.06078402439039
 30
253.5365336660693
 11
-34.3307468779596
 21
-44.75143069289118
 31
265.9255025745744
  0
LINE
  5
5CF0
  8
0
 10
-34.3307468779596
 20
-44.75143069289118
 30
265.9255025745744
 11
-41.39465390888779
 21
-47.20994719039334
 31
278.7531849816846
  0
LINE
  5
5CF1
  8
0
 10
-41.39465390888779
 20
-47.20994719039334
 30
278.7531849816846
 11
-47.83151852854763
 21
-49.450228353542
 31
291.9456235745295
  0
LINE
  5
5CF2
  8
0
 10
-47.83151852854763
 20
-49.450228353542
 30
291.9456235745295
 11
-53.68375339586396
 21
-51.48703544989246
 31
305.4398922007942
  0
LINE
  5
5CF3
  8
0
 10
-53.68375339586396
 20
-51.48703544989246
 30
305.4398922007942
 11
-58.9945522289963
 21
-53.33540158622532
 31
319.1829442718529
  0
LINE
  5
5CF4
  8
0
 10
-58.9945522289963
 20
-53.33540158622532
 30
319.1829442718529
 11
-63.80663596008637
 21
-55.01019532125724
 31
333.1303970126886
  0
LINE
  5
5CF5
  8
0
 10
-63.80663596008637
 20
-55.01019532125724
 30
333.1303970126886
 11
-68.16137199817433
 21
-56.52581413461803
 31
347.2453428325965
  0
LINE
  5
5CF6
  8
0
 10
-31.23839261663335
 20
-43.67517021348442
 30
260.9699066678652
 11
-71.41877016143604
 21
-60.21169200440249
 31
278.4718033934932
  0
LINE
  5
5CF7
  8
0
 10
-36.26234241874863
 20
-45.42370164475096
 30
269.4331781467112
 11
-59.44392005184173
 21
-76.26123951377178
 31
293.3094657454214
  0
LINE
  5
5CF8
  8
0
 10
-41.01950552907203
 20
-47.07938085129092
 30
278.0719353204491
 11
-37.28565532978223
 21
-69.19399894357093
 31
314.8645536570106
  0
LINE
  5
5CF9
  8
0
 10
-45.38768998058799
 20
-48.59968023959891
 30
286.9369648632791
 11
-30.17294116072088
 21
-40.88454853586018
 31
324.258963080622
  0
LINE
  5
5CFA
  8
0
 10
-49.55081808043337
 20
-50.04861198089611
 30
295.9100389693617
 11
-52.71947578678737
 21
-27.93374993171756
 31
323.2896241889814
  0
LINE
  5
5CFB
  8
0
 10
-53.49198487408631
 20
-51.42029248846507
 30
304.9977062657455
 11
-81.33368855785648
 21
-40.73885370747792
 31
317.399327693926
  0
LINE
  5
5CFC
  8
0
 10
-57.08626549913419
 20
-52.67124301409387
 30
314.2447636479904
 11
-86.27149958191222
 21
-59.20327421898651
 31
323.1395766774937
  0
LINE
  5
5CFD
  8
0
 10
-60.50614549887538
 20
-53.86149528695489
 30
323.564180524828
 11
-70.71285458410017
 21
-73.02829275145484
 31
340.017760169664
  0
LINE
  5
5CFE
  8
0
 10
-63.74682620278338
 20
-54.98937918163404
 30
332.9570430541874
 11
-57.74891666280806
 21
-68.90378698156076
 31
353.8332093528215
  0
LINE
  5
5CFF
  8
0
 10
-66.68519213611327
 20
-56.01204568774187
 30
342.4606214186713
 11
-55.83509778707793
 21
-49.06434473180741
 31
361.325464383244
  0
LINE
  5
5D00
  8
0
 10
-68.1613690654928
 20
-56.52581311392998
 30
347.2453333269364
 11
-68.93095524569901
 21
-40.02307900083269
 31
360.1589888832877
  0
ENDBLK
  5
5D01
  8
0
  0
ENDSEC
  0
SECTION
  2
ENTITIES
  0
INSERT
  5
5D02
  8
0
  2
*U0
 10
313.2591389311115
 20
838.7323142625622
 30
0.0
1001
RT_RJH
1070
   900
1000
Cherry                         ^C
1070
   901
1070
     1
1070
   903
1000
PLANTS.PLA
1070
   910
1042
12.0
1070
   920
1070
  6931
1070
   930
1070
     3
1070
   950
1040
1.0
1070
   951
1040
1.0
1070
   952
1040
1.0
1070
   953
1040
1.0
1070
   960
1040
0.0
  0
ENDSEC
  0
EOF
