  0
SECTION
  2
HEADER
  9
$ACADVER
  1
AC1009
  9
$DWGCODEPAGE
  3
ansi_1252
  9
$INSBASE
 10
22432.77263386147
 20
-15521.47747588329
 30
0.0
  9
$EXTMIN
 10
20050.14298404844
 20
-15521.47747588329
 30
0.0
  9
$EXTMAX
 10
24963.54505982869
 20
-7435.350944134389
 30
0.0
  9
$LIMMIN
 10
0.0
 20
0.0
  9
$LIMMAX
 10
12.0
 20
9.0
  9
$ORTHOMODE
 70
     0
  9
$REGENMODE
 70
     1
  9
$FILLMODE
 70
     1
  9
$QTEXTMODE
 70
     0
  9
$MIRRTEXT
 70
     1
  9
$DRAGMODE
 70
     2
  9
$LTSCALE
 40
1.0
  9
$OSMODE
 70
    37
  9
$ATTMODE
 70
     1
  9
$TEXTSIZE
 40
0.2
  9
$TRACEWID
 40
0.05
  9
$TEXTSTYLE
  7
STANDARD
  9
$CLAYER
  8
0
  9
$CELTYPE
  6
BYLAYER
  9
$CECOLOR
 62
   256
  9
$DIMSCALE
 40
1.0
  9
$DIMASZ
 40
0.18
  9
$DIMEXO
 40
0.0625
  9
$DIMDLI
 40
0.38
  9
$DIMRND
 40
0.0
  9
$DIMDLE
 40
0.0
  9
$DIMEXE
 40
0.18
  9
$DIMTP
 40
0.0
  9
$DIMTM
 40
0.0
  9
$DIMTXT
 40
0.18
  9
$DIMCEN
 40
0.09
  9
$DIMTSZ
 40
0.0
  9
$DIMTOL
 70
     0
  9
$DIMLIM
 70
     0
  9
$DIMTIH
 70
     1
  9
$DIMTOH
 70
     1
  9
$DIMSE1
 70
     0
  9
$DIMSE2
 70
     0
  9
$DIMTAD
 70
     0
  9
$DIMZIN
 70
     0
  9
$DIMBLK
  1

  9
$DIMASO
 70
     1
  9
$DIMSHO
 70
     1
  9
$DIMPOST
  1

  9
$DIMAPOST
  1

  9
$DIMALT
 70
     0
  9
$DIMALTD
 70
     2
  9
$DIMALTF
 40
25.4
  9
$DIMLFAC
 40
1.0
  9
$DIMTOFL
 70
     0
  9
$DIMTVP
 40
0.0
  9
$DIMTIX
 70
     0
  9
$DIMSOXD
 70
     0
  9
$DIMSAH
 70
     0
  9
$DIMBLK1
  1

  9
$DIMBLK2
  1

  9
$DIMSTYLE
  2
STANDARD
  9
$DIMCLRD
 70
     0
  9
$DIMCLRE
 70
     0
  9
$DIMCLRT
 70
     0
  9
$DIMTFAC
 40
1.0
  9
$DIMGAP
 40
0.09
  9
$LUNITS
 70
     2
  9
$LUPREC
 70
     2
  9
$SKETCHINC
 40
0.1
  9
$FILLETRAD
 40
0.5
  9
$AUNITS
 70
     0
  9
$AUPREC
 70
     0
  9
$MENU
  1
.
  9
$ELEVATION
 40
0.0
  9
$PELEVATION
 40
0.0
  9
$THICKNESS
 40
0.0
  9
$LIMCHECK
 70
     0
  9
$CHAMFERA
 40
0.5
  9
$CHAMFERB
 40
0.5
  9
$SKPOLY
 70
     0
  9
$TDCREATE
 40
2451107.386615625
  9
$TDUPDATE
 40
2457464.593773148
  9
$TDINDWG
 40
0.1953666782
  9
$TDUSRTIMER
 40
0.1953285995
  9
$USRTIMER
 70
     1
  9
$ANGBASE
 50
0.0
  9
$ANGDIR
 70
     0
  9
$PDMODE
 70
     0
  9
$PDSIZE
 40
0.0
  9
$PLINEWID
 40
0.0
  9
$COORDS
 70
     1
  9
$SPLFRAME
 70
     0
  9
$SPLINETYPE
 70
     6
  9
$SPLINESEGS
 70
     8
  9
$ATTDIA
 70
     0
  9
$ATTREQ
 70
     1
  9
$HANDLING
 70
     1
  9
$HANDSEED
  5
70F
  9
$SURFTAB1
 70
     6
  9
$SURFTAB2
 70
     6
  9
$SURFTYPE
 70
     6
  9
$SURFU
 70
     6
  9
$SURFV
 70
     6
  9
$UCSNAME
  2

  9
$UCSORG
 10
0.0
 20
0.0
 30
0.0
  9
$UCSXDIR
 10
1.0
 20
0.0
 30
0.0
  9
$UCSYDIR
 10
0.0
 20
1.0
 30
0.0
  9
$PUCSNAME
  2

  9
$PUCSORG
 10
0.0
 20
0.0
 30
0.0
  9
$PUCSXDIR
 10
1.0
 20
0.0
 30
0.0
  9
$PUCSYDIR
 10
0.0
 20
1.0
 30
0.0
  9
$USERI1
 70
     0
  9
$USERI2
 70
     0
  9
$USERI3
 70
     0
  9
$USERI4
 70
     0
  9
$USERI5
 70
     0
  9
$USERR1
 40
0.0
  9
$USERR2
 40
0.0
  9
$USERR3
 40
0.0
  9
$USERR4
 40
0.0
  9
$USERR5
 40
0.0
  9
$WORLDVIEW
 70
     1
  9
$SHADEDGE
 70
     3
  9
$SHADEDIF
 70
    70
  9
$TILEMODE
 70
     1
  9
$MAXACTVP
 70
    48
  9
$PLIMCHECK
 70
     0
  9
$PEXTMIN
 10
1.000000000000000E+20
 20
1.000000000000000E+20
 30
1.000000000000000E+20
  9
$PEXTMAX
 10
-1.000000000000000E+20
 20
-1.000000000000000E+20
 30
-1.000000000000000E+20
  9
$PLIMMIN
 10
0.0
 20
0.0
  9
$PLIMMAX
 10
12.0
 20
9.0
  9
$UNITMODE
 70
     0
  9
$VISRETAIN
 70
     1
  9
$PLINEGEN
 70
     0
  9
$PSLTSCALE
 70
     1
  0
ENDSEC
  0
SECTION
  2
TABLES
  0
TABLE
  2
VPORT
 70
     1
  0
VPORT
  2
*ACTIVE
 70
     0
 10
0.0
 20
0.0
 11
1.0
 21
1.0
 12
22506.46280222268
 22
-10467.56207188261
 13
0.0
 23
0.0
 14
0.5
 24
0.5
 15
0.5
 25
0.5
 16
0.0
 26
0.0
 36
1.0
 17
0.0
 27
0.0
 37
0.0
 40
10246.58976085849
 41
1.503537735849057
 42
50.0
 43
0.0
 44
0.0
 50
0.0
 51
0.0
 71
     0
 72
   100
 73
     1
 74
     3
 75
     0
 76
     0
 77
     0
 78
     0
  0
ENDTAB
  0
TABLE
  2
LTYPE
 70
     1
  0
LTYPE
  2
CONTINUOUS
 70
     0
  3
Solid line
 72
    65
 73
     0
 40
0.0
  0
ENDTAB
  0
TABLE
  2
LAYER
 70
     1
  0
LAYER
  2
0
 70
     0
 62
     7
  6
CONTINUOUS
  0
ENDTAB
  0
TABLE
  2
STYLE
 70
     1
  0
STYLE
  2
STANDARD
 70
     0
 40
0.0
 41
1.0
 50
0.0
 71
     0
 42
0.2
  3
txt
  4

  0
ENDTAB
  0
TABLE
  2
VIEW
 70
     0
  0
ENDTAB
  0
TABLE
  2
UCS
 70
     0
  0
ENDTAB
  0
TABLE
  2
APPID
 70
     1
  0
APPID
  2
ACAD
 70
     0
  0
ENDTAB
  0
TABLE
  2
DIMSTYLE
 70
     1
  0
DIMSTYLE
  2
STANDARD
 70
     0
  3

  4

  5

  6

  7

 40
1.0
 41
0.18
 42
0.0625
 43
0.38
 44
0.18
 45
0.0
 46
0.0
 47
0.0
 48
0.0
140
0.18
141
0.09
142
0.0
143
25.4
144
1.0
145
0.0
146
1.0
147
0.09
 71
     0
 72
     0
 73
     1
 74
     1
 75
     0
 76
     0
 77
     0
 78
     0
170
     0
171
     2
172
     0
173
     0
174
     0
175
     0
176
     0
177
     0
178
     0
  0
ENDTAB
  0
ENDSEC
  0
SECTION
  2
BLOCKS
  0
BLOCK
  8
0
  2
$MODEL_SPACE
 70
     0
 10
0.0
 20
0.0
 30
0.0
  3
$MODEL_SPACE
  1

  0
ENDBLK
  5
9
  8
0
  0
BLOCK
 67
     1
  8
0
  2
$PAPER_SPACE
 70
     0
 10
0.0
 20
0.0
 30
0.0
  3
$PAPER_SPACE
  1

  0
ENDBLK
  5
E
 67
     1
  8
0
  0
ENDSEC
  0
SECTION
  2
ENTITIES
  0
POLYLINE
  5
25
  8
0
 62
     0
 66
     1
 10
0.0
 20
0.0
 30
0.0
  0
VERTEX
  5
3F3
  8
0
 62
     0
 10
21874.15091544676
 20
-11354.96189654702
 30
0.0
  0
VERTEX
  5
3F4
  8
0
 62
     0
 10
21871.06460761022
 20
-11339.5303573643
 30
0.0
  0
VERTEX
  5
3F5
  8
0
 62
     0
 10
21864.89199193713
 20
-11324.09881818157
 30
0.0
  0
VERTEX
  5
3F6
  8
0
 62
     0
 10
21861.80568410058
 20
-11308.66727899884
 30
0.0
  0
VERTEX
  5
3F7
  8
0
 62
     0
 10
21827.85629789858
 20
-11339.5303573643
 30
0.0
  0
VERTEX
  5
3F8
  8
0
 62
     0
 10
21744.52598631186
 20
-11175.95604202739
 30
0.0
  0
VERTEX
  5
3F9
  8
0
 62
     0
 10
21655.02305905204
 20
-10935.22403077685
 30
0.0
  0
VERTEX
  5
3FA
  8
0
 62
     0
 10
21528.48443775368
 20
-10617.33432361268
 30
0.0
  0
VERTEX
  5
3FB
  8
0
 62
     0
 10
21590.21059448459
 20
-10493.88201015086
 30
0.0
  0
VERTEX
  5
3FC
  8
0
 62
     0
 10
21719.83552361949
 20
-10487.70939447777
 30
0.0
  0
VERTEX
  5
3FD
  8
0
 62
     0
 10
21763.04383333113
 20
-10484.62308664123
 30
0.0
  0
VERTEX
  5
3FE
  8
0
 62
     0
 10
21790.82060386004
 20
-10626.59324712231
 30
0.0
  0
VERTEX
  5
3FF
  8
0
 62
     0
 10
21809.33845087931
 20
-10780.90863894958
 30
0.0
  0
VERTEX
  5
400
  8
0
 62
     0
 10
21834.02891357167
 20
-10916.70618375758
 30
0.0
  0
VERTEX
  5
401
  8
0
 62
     0
 10
21861.80568410058
 20
-11067.9352677483
 30
0.0
  0
VERTEX
  5
402
  8
0
 62
     0
 10
21880.32353111985
 20
-11219.16435173903
 30
0.0
  0
VERTEX
  5
403
  8
0
 62
     0
 10
21874.15091544676
 20
-11354.96189654702
 30
0.0
  0
SEQEND
  5
6F9
  8
0
 62
     0
  0
POLYLINE
  5
38
  8
0
 62
     0
 66
     1
 10
0.0
 20
0.0
 30
0.0
  0
VERTEX
  5
404
  8
0
 62
     0
 10
21979.0853818893
 20
-11203.7328125563
 30
0.0
  0
VERTEX
  5
405
  8
0
 62
     0
 10
21945.13599568731
 20
-11018.55434236358
 30
0.0
  0
VERTEX
  5
406
  8
0
 62
     0
 10
21911.18660948531
 20
-10821.03064082467
 30
0.0
  0
VERTEX
  5
407
  8
0
 62
     0
 10
21880.32353111985
 20
-10623.50693928577
 30
0.0
  0
VERTEX
  5
408
  8
0
 62
     0
 10
21852.54676059094
 20
-10422.89692991032
 30
0.0
  0
VERTEX
  5
409
  8
0
 62
     0
 10
21905.01399381222
 20
-10395.12015938141
 30
0.0
  0
VERTEX
  5
40A
  8
0
 62
     0
 10
21954.39491919694
 20
-10370.42969668905
 30
0.0
  0
VERTEX
  5
40B
  8
0
 62
     0
 10
22006.86215241822
 20
-10345.73923399668
 30
0.0
  0
VERTEX
  5
40C
  8
0
 62
     0
 10
22059.32938563948
 20
-10321.04877130432
 30
0.0
  0
VERTEX
  5
40D
  8
0
 62
     0
 10
22117.96923453385
 20
-10432.15585341996
 30
0.0
  0
VERTEX
  5
40E
  8
0
 62
     0
 10
22145.74600506276
 20
-10564.86709039141
 30
0.0
  0
VERTEX
  5
40F
  8
0
 62
     0
 10
22170.43646775512
 20
-10728.44140572831
 30
0.0
  0
VERTEX
  5
410
  8
0
 62
     0
 10
22204.38585395712
 20
-10845.72110351704
 30
0.0
  0
VERTEX
  5
411
  8
0
 62
     0
 10
22210.55846963021
 20
-11009.29541885394
 30
0.0
  0
VERTEX
  5
412
  8
0
 62
     0
 10
22182.7816991013
 20
-11006.20911101739
 30
0.0
  0
VERTEX
  5
413
  8
0
 62
     0
 10
22151.91862073585
 20
-11003.12280318085
 30
0.0
  0
VERTEX
  5
414
  8
0
 62
     0
 10
22074.76092482221
 20
-11003.12280318085
 30
0.0
  0
VERTEX
  5
415
  8
0
 62
     0
 10
22028.46630727403
 20
-11067.9352677483
 30
0.0
  0
VERTEX
  5
416
  8
0
 62
     0
 10
22003.77584458167
 20
-11117.31619313303
 30
0.0
  0
VERTEX
  5
417
  8
0
 62
     0
 10
21979.0853818893
 20
-11203.7328125563
 30
0.0
  0
SEQEND
  5
6FA
  8
0
 62
     0
  0
POLYLINE
  5
4E
  8
0
 62
     0
 66
     1
 10
0.0
 20
0.0
 30
0.0
  0
VERTEX
  5
418
  8
0
 62
     0
 10
20630.36885731898
 20
-10882.75679755558
 30
0.0
  0
VERTEX
  5
419
  8
0
 62
     0
 10
20584.07423977079
 20
-10753.13186842067
 30
0.0
  0
VERTEX
  5
41A
  8
0
 62
     0
 10
20457.53561847243
 20
-10725.35509789177
 30
0.0
  0
VERTEX
  5
41B
  8
0
 62
     0
 10
20334.08330501062
 20
-10728.44140572831
 30
0.0
  0
VERTEX
  5
41C
  8
0
 62
     0
 10
20269.27084044317
 20
-10743.87294491104
 30
0.0
  0
VERTEX
  5
41D
  8
0
 62
     0
 10
20312.4791501548
 20
-10608.07540010304
 30
0.0
  0
VERTEX
  5
41E
  8
0
 62
     0
 10
20210.6309915488
 20
-10620.42063144922
 30
0.0
  0
VERTEX
  5
41F
  8
0
 62
     0
 10
20195.19945236608
 20
-10592.64386092031
 30
0.0
  0
VERTEX
  5
420
  8
0
 62
     0
 10
20275.44345611626
 20
-10506.22724149704
 30
0.0
  0
VERTEX
  5
421
  8
0
 62
     0
 10
20417.41361659734
 20
-10432.15585341996
 30
0.0
  0
VERTEX
  5
422
  8
0
 62
     0
 10
20497.65762034752
 20
-10308.70353995814
 30
0.0
  0
VERTEX
  5
423
  8
0
 62
     0
 10
20642.71408866515
 20
-10049.45368168833
 30
0.0
  0
VERTEX
  5
424
  8
0
 62
     0
 10
20837.15148236752
 20
-9821.06690178397
 30
0.0
  0
VERTEX
  5
425
  8
0
 62
     0
 10
20905.05025477151
 20
-9737.736590197244
 30
0.0
  0
VERTEX
  5
426
  8
0
 62
     0
 10
20914.30917828115
 20
-9666.7515099567
 30
0.0
  0
VERTEX
  5
427
  8
0
 62
     0
 10
21037.76149174296
 20
-9583.421198369973
 30
0.0
  0
VERTEX
  5
428
  8
0
 62
     0
 10
21105.66026414696
 20
-9577.248582696884
 30
0.0
  0
VERTEX
  5
429
  8
0
 62
     0
 10
21284.6661186666
 20
-9700.7008961587
 30
0.0
  0
VERTEX
  5
42A
  8
0
 62
     0
 10
21361.82381458023
 20
-9648.233662937428
 30
0.0
  0
VERTEX
  5
42B
  8
0
 62
     0
 10
21392.68689294568
 20
-9558.730735677613
 30
0.0
  0
VERTEX
  5
42C
  8
0
 62
     0
 10
21642.67782770586
 20
-9530.953965148703
 30
0.0
  0
VERTEX
  5
42D
  8
0
 62
     0
 10
21617.98736501349
 20
-9432.19211437925
 30
0.0
  0
VERTEX
  5
42E
  8
0
 62
     0
 10
21790.82060386004
 20
-9401.329036013796
 30
0.0
  0
VERTEX
  5
42F
  8
0
 62
     0
 10
21972.91276621621
 20
-9469.227808417796
 30
0.0
  0
VERTEX
  5
430
  8
0
 62
     0
 10
22022.29369160094
 20
-9638.974739427791
 30
0.0
  0
VERTEX
  5
431
  8
0
 62
     0
 10
22127.22815804348
 20
-9706.87351183179
 30
0.0
  0
VERTEX
  5
432
  8
0
 62
     0
 10
22198.21323828403
 20
-9564.903351350702
 30
0.0
  0
VERTEX
  5
433
  8
0
 62
     0
 10
22296.97508905348
 20
-9620.456892408518
 30
0.0
  0
VERTEX
  5
434
  8
0
 62
     0
 10
22346.35601443821
 20
-9805.63536260124
 30
0.0
  0
VERTEX
  5
435
  8
0
 62
     0
 10
22213.64477746675
 20
-9941.432907409238
 30
0.0
  0
VERTEX
  5
436
  8
0
 62
     0
 10
22272.28462636112
 20
-10021.67691115942
 30
0.0
  0
VERTEX
  5
437
  8
0
 62
     0
 10
22256.85308717839
 20
-10117.35245409233
 30
0.0
  0
VERTEX
  5
438
  8
0
 62
     0
 10
22090.19246400494
 20
-10175.99230298669
 30
0.0
  0
VERTEX
  5
439
  8
0
 62
     0
 10
22080.93354049531
 20
-10182.16491865978
 30
0.0
  0
VERTEX
  5
43A
  8
0
 62
     0
 10
22080.93354049531
 20
-10191.42384216941
 30
0.0
  0
VERTEX
  5
43B
  8
0
 62
     0
 10
21932.79076434113
 20
-10299.4446164485
 30
0.0
  0
VERTEX
  5
43C
  8
0
 62
     0
 10
21763.04383333113
 20
-10345.73923399668
 30
0.0
  0
VERTEX
  5
43D
  8
0
 62
     0
 10
21741.43967847531
 20
-10358.08446534287
 30
0.0
  0
VERTEX
  5
43E
  8
0
 62
     0
 10
21688.97244525404
 20
-10388.94754370832
 30
0.0
  0
VERTEX
  5
43F
  8
0
 62
     0
 10
21516.1392064075
 20
-10410.55169856414
 30
0.0
  0
VERTEX
  5
440
  8
0
 62
     0
 10
21466.75828102277
 20
-10540.17662769904
 30
0.0
  0
VERTEX
  5
441
  8
0
 62
     0
 10
21423.54997131114
 20
-10635.85217063195
 30
0.0
  0
VERTEX
  5
442
  8
0
 62
     0
 10
21482.1898202055
 20
-10709.92355870904
 30
0.0
  0
VERTEX
  5
443
  8
0
 62
     0
 10
21429.72258698423
 20
-10722.26879005522
 30
0.0
  0
VERTEX
  5
444
  8
0
 62
     0
 10
21383.42796943605
 20
-10700.6646351994
 30
0.0
  0
VERTEX
  5
445
  8
0
 62
     0
 10
21371.08273808987
 20
-10706.83725087249
 30
0.0
  0
VERTEX
  5
446
  8
0
 62
     0
 10
21358.73750674368
 20
-10709.92355870904
 30
0.0
  0
VERTEX
  5
447
  8
0
 62
     0
 10
21247.63042462805
 20
-10574.12601390104
 30
0.0
  0
VERTEX
  5
448
  8
0
 62
     0
 10
21071.71087794496
 20
-10543.26293553559
 30
0.0
  0
VERTEX
  5
449
  8
0
 62
     0
 10
21080.9698014546
 20
-10620.42063144922
 30
0.0
  0
VERTEX
  5
44A
  8
0
 62
     0
 10
20942.08594881006
 20
-10682.14678818013
 30
0.0
  0
VERTEX
  5
44B
  8
0
 62
     0
 10
20824.80625102133
 20
-10611.16170793959
 30
0.0
  0
VERTEX
  5
44C
  8
0
 62
     0
 10
20698.26762972297
 20
-10635.85217063195
 30
0.0
  0
VERTEX
  5
44D
  8
0
 62
     0
 10
20738.38963159806
 20
-10790.16756245922
 30
0.0
  0
VERTEX
  5
44E
  8
0
 62
     0
 10
20630.36885731898
 20
-10882.75679755558
 30
0.0
  0
SEQEND
  5
6FB
  8
0
 62
     0
  0
POLYLINE
  5
87
  8
0
 62
     0
 66
     1
 10
0.0
 20
0.0
 30
0.0
  0
VERTEX
  5
44F
  8
0
 62
     0
 10
23445.08160424836
 20
-12246.90486130864
 30
0.0
  0
VERTEX
  5
450
  8
0
 62
     0
 10
23377.18283184436
 20
-12212.95547510664
 30
0.0
  0
VERTEX
  5
451
  8
0
 62
     0
 10
23441.99529641182
 20
-12123.45254784682
 30
0.0
  0
VERTEX
  5
452
  8
0
 62
     0
 10
23300.02513593073
 20
-12021.60438924083
 30
0.0
  0
VERTEX
  5
453
  8
0
 62
     0
 10
23136.45082059383
 20
-11969.13715601955
 30
0.0
  0
VERTEX
  5
454
  8
0
 62
     0
 10
23025.34373847819
 20
-11898.15207577901
 30
0.0
  0
VERTEX
  5
455
  8
0
 62
     0
 10
23012.99850713201
 20
-11833.33961121156
 30
0.0
  0
VERTEX
  5
456
  8
0
 62
     0
 10
23034.60266198783
 20
-11787.04499366338
 30
0.0
  0
VERTEX
  5
457
  8
0
 62
     0
 10
23068.55204818982
 20
-11654.33375669193
 30
0.0
  0
VERTEX
  5
458
  8
0
 62
     0
 10
23040.77527766092
 20
-11549.39929024938
 30
0.0
  0
VERTEX
  5
459
  8
0
 62
     0
 10
22926.58188770874
 20
-11500.01836486466
 30
0.0
  0
VERTEX
  5
45A
  8
0
 62
     0
 10
22830.90634477583
 20
-11611.12544698029
 30
0.0
  0
VERTEX
  5
45B
  8
0
 62
     0
 10
22803.12957424692
 20
-11546.31298241284
 30
0.0
  0
VERTEX
  5
45C
  8
0
 62
     0
 10
22759.92126453529
 20
-11410.51543760484
 30
0.0
  0
VERTEX
  5
45D
  8
0
 62
     0
 10
22642.64156674656
 20
-11321.01251034502
 30
0.0
  0
VERTEX
  5
45E
  8
0
 62
     0
 10
22562.39756299638
 20
-11373.4797435663
 30
0.0
  0
VERTEX
  5
45F
  8
0
 62
     0
 10
22624.12371972729
 20
-11493.84574919157
 30
0.0
  0
VERTEX
  5
460
  8
0
 62
     0
 10
22451.29048088075
 20
-11543.22667457629
 30
0.0
  0
VERTEX
  5
461
  8
0
 62
     0
 10
22266.11201068803
 20
-11571.0034451052
 30
0.0
  0
VERTEX
  5
462
  8
0
 62
     0
 10
22321.66555174584
 20
-11682.11052722083
 30
0.0
  0
VERTEX
  5
463
  8
0
 62
     0
 10
22225.99000881294
 20
-11706.8009899132
 30
0.0
  0
VERTEX
  5
464
  8
0
 62
     0
 10
22139.57338938966
 20
-11691.36945073047
 30
0.0
  0
VERTEX
  5
465
  8
0
 62
     0
 10
22071.67461698567
 20
-11626.55698616302
 30
0.0
  0
VERTEX
  5
466
  8
0
 62
     0
 10
21935.87707217767
 20
-11654.33375669193
 30
0.0
  0
VERTEX
  5
467
  8
0
 62
     0
 10
21926.61814866804
 20
-11793.21760933647
 30
0.0
  0
VERTEX
  5
468
  8
0
 62
     0
 10
21864.89199193713
 20
-11858.03007390392
 30
0.0
  0
VERTEX
  5
469
  8
0
 62
     0
 10
21753.78490982149
 20
-11820.99437986538
 30
0.0
  0
VERTEX
  5
46A
  8
0
 62
     0
 10
21701.31767660022
 20
-11811.73545635574
 30
0.0
  0
VERTEX
  5
46B
  8
0
 62
     0
 10
21593.29690232113
 20
-11753.09560746138
 30
0.0
  0
VERTEX
  5
46C
  8
0
 62
     0
 10
21624.15998068659
 20
-11614.21175481684
 30
0.0
  0
VERTEX
  5
46D
  8
0
 62
     0
 10
21772.30275684076
 20
-11475.32790217229
 30
0.0
  0
VERTEX
  5
46E
  8
0
 62
     0
 10
22019.20738376439
 20
-11416.68805327793
 30
0.0
  0
VERTEX
  5
46F
  8
0
 62
     0
 10
22059.32938563948
 20
-11188.30127337357
 30
0.0
  0
VERTEX
  5
470
  8
0
 62
     0
 10
22158.09123640894
 20
-11061.76265207521
 30
0.0
  0
VERTEX
  5
471
  8
0
 62
     0
 10
22318.5792439093
 20
-11101.8846539503
 30
0.0
  0
VERTEX
  5
472
  8
0
 62
     0
 10
22324.75185958239
 20
-11018.55434236358
 30
0.0
  0
VERTEX
  5
473
  8
0
 62
     0
 10
22275.37093419766
 20
-10984.60495616158
 30
0.0
  0
VERTEX
  5
474
  8
0
 62
     0
 10
22309.32032039966
 20
-10836.4621800074
 30
0.0
  0
VERTEX
  5
475
  8
0
 62
     0
 10
22303.14770472657
 20
-10771.64971543995
 30
0.0
  0
VERTEX
  5
476
  8
0
 62
     0
 10
22253.76677934184
 20
-10694.49201952631
 30
0.0
  0
VERTEX
  5
477
  8
0
 62
     0
 10
22238.33524015912
 20
-10657.45632548777
 30
0.0
  0
VERTEX
  5
478
  8
0
 62
     0
 10
22337.09709092857
 20
-10635.85217063195
 30
0.0
  0
VERTEX
  5
479
  8
0
 62
     0
 10
22417.34109467875
 20
-10713.00986654558
 30
0.0
  0
VERTEX
  5
47A
  8
0
 62
     0
 10
22509.93032977511
 20
-10679.06048034359
 30
0.0
  0
VERTEX
  5
47B
  8
0
 62
     0
 10
22519.18925328475
 20
-10552.52185904522
 30
0.0
  0
VERTEX
  5
47C
  8
0
 62
     0
 10
22479.06725140966
 20
-10348.82554183323
 30
0.0
  0
VERTEX
  5
47D
  8
0
 62
     0
 10
22599.43325703493
 20
-10237.71845971759
 30
0.0
  0
VERTEX
  5
47E
  8
0
 62
     0
 10
22596.34694919838
 20
-10351.91184966977
 30
0.0
  0
VERTEX
  5
47F
  8
0
 62
     0
 10
22790.78434290074
 20
-10422.89692991032
 30
0.0
  0
VERTEX
  5
480
  8
0
 62
     0
 10
22833.99265261238
 20
-10342.65292616014
 30
0.0
  0
VERTEX
  5
481
  8
0
 62
     0
 10
22772.26649588147
 20
-10243.89107539069
 30
0.0
  0
VERTEX
  5
482
  8
0
 62
     0
 10
22926.58188770874
 20
-10030.93583466906
 30
0.0
  0
VERTEX
  5
483
  8
0
 62
     0
 10
23173.48651463236
 20
-9904.397213370694
 30
0.0
  0
VERTEX
  5
484
  8
0
 62
     0
 10
23173.48651463236
 20
-9790.203823418515
 30
0.0
  0
VERTEX
  5
485
  8
0
 62
     0
 10
23182.74543814201
 20
-9709.959819668336
 30
0.0
  0
VERTEX
  5
486
  8
0
 62
     0
 10
23340.14713780582
 20
-9660.578894283608
 30
0.0
  0
VERTEX
  5
487
  8
0
 62
     0
 10
23244.47159487291
 20
-9614.284276735429
 30
0.0
  0
VERTEX
  5
488
  8
0
 62
     0
 10
23167.31389895928
 20
-9611.197968898883
 30
0.0
  0
VERTEX
  5
489
  8
0
 62
     0
 10
23176.57282246891
 20
-9503.177194619795
 30
0.0
  0
VERTEX
  5
48A
  8
0
 62
     0
 10
23164.22759112273
 20
-9330.343955773253
 30
0.0
  0
VERTEX
  5
48B
  8
0
 62
     0
 10
23232.12636352673
 20
-9243.927336349983
 30
0.0
  0
VERTEX
  5
48C
  8
0
 62
     0
 10
23303.11144376727
 20
-9287.135646061619
 30
0.0
  0
VERTEX
  5
48D
  8
0
 62
     0
 10
23395.70067886363
 20
-9308.739800917436
 30
0.0
  0
VERTEX
  5
48E
  8
0
 62
     0
 10
23454.340527758
 20
-9231.582105003803
 30
0.0
  0
VERTEX
  5
48F
  8
0
 62
     0
 10
23580.87914905636
 20
-9117.38871505162
 30
0.0
  0
VERTEX
  5
490
  8
0
 62
     0
 10
23661.12315280654
 20
-9080.353021013078
 30
0.0
  0
VERTEX
  5
491
  8
0
 62
     0
 10
23793.83438977799
 20
-9163.683332599803
 30
0.0
  0
VERTEX
  5
492
  8
0
 62
     0
 10
23948.14978160526
 20
-9123.561330724715
 30
0.0
  0
VERTEX
  5
493
  8
0
 62
     0
 10
24049.99794021125
 20
-9206.891642311439
 30
0.0
  0
VERTEX
  5
494
  8
0
 62
     0
 10
24016.04855400926
 20
-9317.998724427072
 30
0.0
  0
VERTEX
  5
495
  8
0
 62
     0
 10
24090.11994208634
 20
-9404.415343850342
 30
0.0
  0
VERTEX
  5
496
  8
0
 62
     0
 10
24068.51578723053
 20
-9549.471812167974
 30
0.0
  0
VERTEX
  5
497
  8
0
 62
     0
 10
24040.73901670162
 20
-9663.665202120155
 30
0.0
  0
VERTEX
  5
498
  8
0
 62
     0
 10
24176.53656150962
 20
-9709.959819668336
 30
0.0
  0
VERTEX
  5
499
  8
0
 62
     0
 10
24306.16149064452
 20
-9885.879366351423
 30
0.0
  0
VERTEX
  5
49A
  8
0
 62
     0
 10
24259.86687309634
 20
-9907.48352120724
 30
0.0
  0
VERTEX
  5
49B
  8
0
 62
     0
 10
24213.57225554816
 20
-9932.173983899604
 30
0.0
  0
VERTEX
  5
49C
  8
0
 62
     0
 10
24195.05440852889
 20
-10040.19475817869
 30
0.0
  0
VERTEX
  5
49D
  8
0
 62
     0
 10
24327.76564550034
 20
-10027.84952683251
 30
0.0
  0
VERTEX
  5
49E
  8
0
 62
     0
 10
24380.23287872161
 20
-10092.66199139996
 30
0.0
  0
VERTEX
  5
49F
  8
0
 62
     0
 10
24460.47688247179
 20
-10024.76321899596
 30
0.0
  0
VERTEX
  5
4A0
  8
0
 62
     0
 10
24534.54827054888
 20
-10105.00722274615
 30
0.0
  0
VERTEX
  5
4A1
  8
0
 62
     0
 10
24617.87858213561
 20
-10209.94168918869
 30
0.0
  0
VERTEX
  5
4A2
  8
0
 62
     0
 10
24664.17319968379
 20
-10259.32261457341
 30
0.0
  0
VERTEX
  5
4A3
  8
0
 62
     0
 10
24611.70596646252
 20
-10339.56661832359
 30
0.0
  0
VERTEX
  5
4A4
  8
0
 62
     0
 10
24580.84288809706
 20
-10447.58739260268
 30
0.0
  0
VERTEX
  5
4A5
  8
0
 62
     0
 10
24830.83382285724
 20
-10558.69447471832
 30
0.0
  0
VERTEX
  5
4A6
  8
0
 62
     0
 10
24815.40228367451
 20
-10682.14678818013
 30
0.0
  0
VERTEX
  5
4A7
  8
0
 62
     0
 10
24673.43212319342
 20
-10675.97417250704
 30
0.0
  0
VERTEX
  5
4A8
  8
0
 62
     0
 10
24728.98566425124
 20
-10716.09617438213
 30
0.0
  0
VERTEX
  5
4A9
  8
0
 62
     0
 10
24695.03627804924
 20
-10793.25387029576
 30
0.0
  0
VERTEX
  5
4AA
  8
0
 62
     0
 10
24744.41720343397
 20
-10873.49787404594
 30
0.0
  0
VERTEX
  5
4AB
  8
0
 62
     0
 10
24732.07197208779
 20
-10975.34603265194
 30
0.0
  0
VERTEX
  5
4AC
  8
0
 62
     0
 10
24750.58981910706
 20
-11083.36680693103
 30
0.0
  0
VERTEX
  5
4AD
  8
0
 62
     0
 10
24713.55412506852
 20
-11129.66142447921
 30
0.0
  0
VERTEX
  5
4AE
  8
0
 62
     0
 10
24670.34581535688
 20
-11250.02743010448
 30
0.0
  0
VERTEX
  5
4AF
  8
0
 62
     0
 10
24627.13750564524
 20
-11361.13451222011
 30
0.0
  0
VERTEX
  5
4B0
  8
0
 62
     0
 10
24670.34581535688
 20
-11509.27728837429
 30
0.0
  0
VERTEX
  5
4B1
  8
0
 62
     0
 10
24454.3042667987
 20
-11617.29806265338
 30
0.0
  0
VERTEX
  5
4B2
  8
0
 62
     0
 10
24377.14657088507
 20
-11830.25330337501
 30
0.0
  0
VERTEX
  5
4B3
  8
0
 62
     0
 10
24201.22702420198
 20
-11956.79192467337
 30
0.0
  0
VERTEX
  5
4B4
  8
0
 62
     0
 10
24120.9830204518
 20
-11975.30977169265
 30
0.0
  0
VERTEX
  5
4B5
  8
0
 62
     0
 10
24124.06932828835
 20
-12080.24423813519
 30
0.0
  0
VERTEX
  5
4B6
  8
0
 62
     0
 10
24074.68840290362
 20
-12098.76208515446
 30
0.0
  0
VERTEX
  5
4B7
  8
0
 62
     0
 10
24028.39378535544
 20
-12120.36624001028
 30
0.0
  0
VERTEX
  5
4B8
  8
0
 62
     0
 10
23979.01285997072
 20
-12157.40193404882
 30
0.0
  0
VERTEX
  5
4B9
  8
0
 62
     0
 10
23914.20039540326
 20
-12163.57454972191
 30
0.0
  0
VERTEX
  5
4BA
  8
0
 62
     0
 10
23870.99208569163
 20
-12182.09239674119
 30
0.0
  0
VERTEX
  5
4BB
  8
0
 62
     0
 10
23855.5605465089
 20
-12148.14301053919
 30
0.0
  0
VERTEX
  5
4BC
  8
0
 62
     0
 10
23821.6111603069
 20
-12083.33054597173
 30
0.0
  0
VERTEX
  5
4BD
  8
0
 62
     0
 10
23843.21531516272
 20
-12000.00023438501
 30
0.0
  0
VERTEX
  5
4BE
  8
0
 62
     0
 10
23747.53977222981
 20
-11959.87823250992
 30
0.0
  0
VERTEX
  5
4BF
  8
0
 62
     0
 10
23624.087458768
 20
-11941.36038549065
 30
0.0
  0
VERTEX
  5
4C0
  8
0
 62
     0
 10
23605.56961174872
 20
-12058.64008327937
 30
0.0
  0
VERTEX
  5
4C1
  8
0
 62
     0
 10
23553.10237852745
 20
-12231.47332212591
 30
0.0
  0
VERTEX
  5
4C2
  8
0
 62
     0
 10
23491.37622179654
 20
-12265.42270832791
 30
0.0
  0
VERTEX
  5
4C3
  8
0
 62
     0
 10
23445.08160424836
 20
-12246.90486130864
 30
0.0
  0
SEQEND
  5
6FC
  8
0
 62
     0
  0
POLYLINE
  5
FE
  8
0
 62
     0
 66
     1
 10
0.0
 20
0.0
 30
0.0
  0
VERTEX
  5
4C4
  8
0
 62
     0
 10
22713.6266469871
 20
-15521.47747588329
 30
0.0
  0
VERTEX
  5
4C5
  8
0
 62
     0
 10
22574.74279434256
 20
-15518.39116804674
 30
0.0
  0
VERTEX
  5
4C6
  8
0
 62
     0
 10
22432.77263386147
 20
-15521.47747588329
 30
0.0
  0
VERTEX
  5
4C7
  8
0
 62
     0
 10
22429.68632602493
 20
-15012.2366828533
 30
0.0
  0
VERTEX
  5
4C8
  8
0
 62
     0
 10
22466.72202006348
 20
-14478.30542713095
 30
0.0
  0
VERTEX
  5
4C9
  8
0
 62
     0
 10
22401.90955549602
 20
-13777.71354823515
 30
0.0
  0
VERTEX
  5
4CA
  8
0
 62
     0
 10
22284.6298577073
 20
-13083.29428501244
 30
0.0
  0
VERTEX
  5
4CB
  8
0
 62
     0
 10
22151.91862073585
 20
-12635.77964871336
 30
0.0
  0
VERTEX
  5
4CC
  8
0
 62
     0
 10
22121.05554237039
 20
-12524.67256659772
 30
0.0
  0
VERTEX
  5
4CD
  8
0
 62
     0
 10
22071.67461698567
 20
-12358.01194342427
 30
0.0
  0
VERTEX
  5
4CE
  8
0
 62
     0
 10
22028.46630727403
 20
-12219.12809077973
 30
0.0
  0
VERTEX
  5
4CF
  8
0
 62
     0
 10
21979.0853818893
 20
-12067.89900678901
 30
0.0
  0
VERTEX
  5
4D0
  8
0
 62
     0
 10
21938.96338001421
 20
-11959.87823250992
 30
0.0
  0
VERTEX
  5
4D1
  8
0
 62
     0
 10
21911.18660948531
 20
-11898.15207577901
 30
0.0
  0
VERTEX
  5
4D2
  8
0
 62
     0
 10
21753.78490982149
 20
-11944.44669332719
 30
0.0
  0
VERTEX
  5
4D3
  8
0
 62
     0
 10
21670.45459823477
 20
-11898.15207577901
 30
0.0
  0
VERTEX
  5
4D4
  8
0
 62
     0
 10
21584.0379788115
 20
-11839.51222688465
 30
0.0
  0
VERTEX
  5
4D5
  8
0
 62
     0
 10
21414.2910478015
 20
-11879.63422875974
 30
0.0
  0
VERTEX
  5
4D6
  8
0
 62
     0
 10
21383.42796943605
 20
-11746.92299178829
 30
0.0
  0
VERTEX
  5
4D7
  8
0
 62
     0
 10
21139.60965034896
 20
-11700.62837424011
 30
0.0
  0
VERTEX
  5
4D8
  8
0
 62
     0
 10
20991.46687419478
 20
-11950.61930900029
 30
0.0
  0
VERTEX
  5
4D9
  8
0
 62
     0
 10
20929.74071746388
 20
-11947.53300116374
 30
0.0
  0
VERTEX
  5
4DA
  8
0
 62
     0
 10
20868.01456073297
 20
-11941.36038549065
 30
0.0
  0
VERTEX
  5
4DB
  8
0
 62
     0
 10
20818.63363534824
 20
-11919.75623063483
 30
0.0
  0
VERTEX
  5
4DC
  8
0
 62
     0
 10
20766.16640212697
 20
-11898.15207577901
 30
0.0
  0
VERTEX
  5
4DD
  8
0
 62
     0
 10
20735.30332376152
 20
-11848.77115039428
 30
0.0
  0
VERTEX
  5
4DE
  8
0
 62
     0
 10
20704.44024539606
 20
-11802.4765328461
 30
0.0
  0
VERTEX
  5
4DF
  8
0
 62
     0
 10
20500.74392818407
 20
-11867.28899741356
 30
0.0
  0
VERTEX
  5
4E0
  8
0
 62
     0
 10
20315.56545799134
 20
-11830.25330337501
 30
0.0
  0
VERTEX
  5
4E1
  8
0
 62
     0
 10
20417.41361659734
 20
-11685.19683505738
 30
0.0
  0
VERTEX
  5
4E2
  8
0
 62
     0
 10
20562.47008491497
 20
-11567.91713726865
 30
0.0
  0
VERTEX
  5
4E3
  8
0
 62
     0
 10
20574.81531626116
 20
-11311.75358683539
 30
0.0
  0
VERTEX
  5
4E4
  8
0
 62
     0
 10
20692.09501404988
 20
-11101.8846539503
 30
0.0
  0
VERTEX
  5
4E5
  8
0
 62
     0
 10
20809.37471183861
 20
-11027.81326587321
 30
0.0
  0
VERTEX
  5
4E6
  8
0
 62
     0
 10
20898.87763909842
 20
-10938.3103386134
 30
0.0
  0
VERTEX
  5
4E7
  8
0
 62
     0
 10
20883.44609991569
 20
-10830.28956433431
 30
0.0
  0
VERTEX
  5
4E8
  8
0
 62
     0
 10
20985.2942585217
 20
-10793.25387029576
 30
0.0
  0
VERTEX
  5
4E9
  8
0
 62
     0
 10
21204.42211491642
 20
-10892.01572106522
 30
0.0
  0
VERTEX
  5
4EA
  8
0
 62
     0
 10
21352.56489107059
 20
-11037.07218938285
 30
0.0
  0
VERTEX
  5
4EB
  8
0
 62
     0
 10
21337.13335188786
 20
-11114.22988529648
 30
0.0
  0
VERTEX
  5
4EC
  8
0
 62
     0
 10
21442.06781833041
 20
-11117.31619313303
 30
0.0
  0
VERTEX
  5
4ED
  8
0
 62
     0
 10
21525.39812991713
 20
-11145.09296366194
 30
0.0
  0
VERTEX
  5
4EE
  8
0
 62
     0
 10
21513.05289857095
 20
-11209.90542822939
 30
0.0
  0
VERTEX
  5
4EF
  8
0
 62
     0
 10
21608.72844150386
 20
-11342.61666520084
 30
0.0
  0
VERTEX
  5
4F0
  8
0
 62
     0
 10
21488.36243587859
 20
-11466.06897866266
 30
0.0
  0
VERTEX
  5
4F1
  8
0
 62
     0
 10
21562.43382395568
 20
-11638.9022175092
 30
0.0
  0
VERTEX
  5
4F2
  8
0
 62
     0
 10
21685.8861374175
 20
-11481.50051784539
 30
0.0
  0
VERTEX
  5
4F3
  8
0
 62
     0
 10
21735.26706280222
 20
-11358.04820438357
 30
0.0
  0
VERTEX
  5
4F4
  8
0
 62
     0
 10
21667.36829039822
 20
-11222.25065957557
 30
0.0
  0
VERTEX
  5
4F5
  8
0
 62
     0
 10
21547.00228477295
 20
-11006.20911101739
 30
0.0
  0
VERTEX
  5
4F6
  8
0
 62
     0
 10
21411.20473996495
 20
-10796.34017813231
 30
0.0
  0
VERTEX
  5
4F7
  8
0
 62
     0
 10
21266.14827164732
 20
-10703.75094303595
 30
0.0
  0
VERTEX
  5
4F8
  8
0
 62
     0
 10
21121.09180332969
 20
-10592.64386092031
 30
0.0
  0
VERTEX
  5
4F9
  8
0
 62
     0
 10
21034.67518390642
 20
-10700.6646351994
 30
0.0
  0
VERTEX
  5
4FA
  8
0
 62
     0
 10
20917.39548611769
 20
-10716.09617438213
 30
0.0
  0
VERTEX
  5
4FB
  8
0
 62
     0
 10
20759.99378645388
 20
-10654.37001765122
 30
0.0
  0
VERTEX
  5
4FC
  8
0
 62
     0
 10
20775.42532563661
 20
-10851.89371919013
 30
0.0
  0
VERTEX
  5
4FD
  8
0
 62
     0
 10
20593.33316328043
 20
-10941.39664644994
 30
0.0
  0
VERTEX
  5
4FE
  8
0
 62
     0
 10
20547.03854573225
 20
-10793.25387029576
 30
0.0
  0
VERTEX
  5
4FF
  8
0
 62
     0
 10
20408.15469308771
 20
-10768.5634076034
 30
0.0
  0
VERTEX
  5
500
  8
0
 62
     0
 10
20287.78868746243
 20
-10799.42648596886
 30
0.0
  0
VERTEX
  5
501
  8
0
 62
     0
 10
20213.71729938535
 20
-10756.21817625722
 30
0.0
  0
VERTEX
  5
502
  8
0
 62
     0
 10
20247.66668558734
 20
-10648.19740197813
 30
0.0
  0
VERTEX
  5
503
  8
0
 62
     0
 10
20142.7322191448
 20
-10694.49201952631
 30
0.0
  0
VERTEX
  5
504
  8
0
 62
     0
 10
20050.14298404844
 20
-10691.40571168977
 30
0.0
  0
VERTEX
  5
505
  8
0
 62
     0
 10
20179.76791318335
 20
-10524.74508851632
 30
0.0
  0
VERTEX
  5
506
  8
0
 62
     0
 10
20371.11899904916
 20
-10419.81062207377
 30
0.0
  0
VERTEX
  5
507
  8
0
 62
     0
 10
20574.81531626116
 20
-10043.28106601524
 30
0.0
  0
VERTEX
  5
508
  8
0
 62
     0
 10
20864.92825289642
 20
-9753.16812937997
 30
0.0
  0
VERTEX
  5
509
  8
0
 62
     0
 10
20880.35979207915
 20
-9654.406278610517
 30
0.0
  0
VERTEX
  5
50A
  8
0
 62
     0
 10
20945.1722566466
 20
-9583.421198369973
 30
0.0
  0
VERTEX
  5
50B
  8
0
 62
     0
 10
21124.17811116623
 20
-9524.781349475614
 30
0.0
  0
VERTEX
  5
50C
  8
0
 62
     0
 10
21241.45780895496
 20
-9623.543200245063
 30
0.0
  0
VERTEX
  5
50D
  8
0
 62
     0
 10
21259.97565597423
 20
-9635.888431591247
 30
0.0
  0
VERTEX
  5
50E
  8
0
 62
     0
 10
21275.40719515696
 20
-9648.233662937428
 30
0.0
  0
VERTEX
  5
50F
  8
0
 62
     0
 10
21371.08273808987
 20
-9515.522425965975
 30
0.0
  0
VERTEX
  5
510
  8
0
 62
     0
 10
21534.65705342677
 20
-9506.263502456339
 30
0.0
  0
VERTEX
  5
511
  8
0
 62
     0
 10
21584.0379788115
 20
-9481.573039763978
 30
0.0
  0
VERTEX
  5
512
  8
0
 62
     0
 10
21540.82966909986
 20
-9413.67426735998
 30
0.0
  0
VERTEX
  5
513
  8
0
 62
     0
 10
21781.5616803504
 20
-9348.861802792526
 30
0.0
  0
VERTEX
  5
514
  8
0
 62
     0
 10
21759.95752549458
 20
-9108.129791541985
 30
0.0
  0
VERTEX
  5
515
  8
0
 62
     0
 10
21679.7135217444
 20
-8953.814399714716
 30
0.0
  0
VERTEX
  5
516
  8
0
 62
     0
 10
21611.81474934041
 20
-8851.96624110872
 30
0.0
  0
VERTEX
  5
517
  8
0
 62
     0
 10
21463.67197318623
 20
-8904.433474329991
 30
0.0
  0
VERTEX
  5
518
  8
0
 62
     0
 10
21411.20473996495
 20
-8864.311472454901
 30
0.0
  0
VERTEX
  5
519
  8
0
 62
     0
 10
21297.01135001278
 20
-8950.728091878173
 30
0.0
  0
VERTEX
  5
51A
  8
0
 62
     0
 10
21226.02626977223
 20
-8827.275778416355
 30
0.0
  0
VERTEX
  5
51B
  8
0
 62
     0
 10
21287.75242650314
 20
-8549.508073127272
 30
0.0
  0
VERTEX
  5
51C
  8
0
 62
     0
 10
21482.1898202055
 20
-8472.350377213637
 30
0.0
  0
VERTEX
  5
51D
  8
0
 62
     0
 10
21364.91012241678
 20
-8456.918838030912
 30
0.0
  0
VERTEX
  5
51E
  8
0
 62
     0
 10
21423.54997131114
 20
-8219.273134616917
 30
0.0
  0
VERTEX
  5
51F
  8
0
 62
     0
 10
21531.57074559023
 20
-8139.029130866737
 30
0.0
  0
VERTEX
  5
520
  8
0
 62
     0
 10
21655.02305905204
 20
-8120.511283847463
 30
0.0
  0
VERTEX
  5
521
  8
0
 62
     0
 10
21667.36829039822
 20
-8074.216666299284
 30
0.0
  0
VERTEX
  5
522
  8
0
 62
     0
 10
21670.45459823477
 20
-8006.317893895285
 30
0.0
  0
VERTEX
  5
523
  8
0
 62
     0
 10
21519.22551424404
 20
-7981.627431202922
 30
0.0
  0
VERTEX
  5
524
  8
0
 62
     0
 10
21917.3592251584
 20
-7706.946033750382
 30
0.0
  0
VERTEX
  5
525
  8
0
 62
     0
 10
22003.77584458167
 20
-7688.42818673111
 30
0.0
  0
VERTEX
  5
526
  8
0
 62
     0
 10
22022.29369160094
 20
-7747.068035625472
 30
0.0
  0
VERTEX
  5
527
  8
0
 62
     0
 10
22059.32938563948
 20
-7651.392492692566
 30
0.0
  0
VERTEX
  5
528
  8
0
 62
     0
 10
22080.93354049531
 20
-7561.88956543275
 30
0.0
  0
VERTEX
  5
529
  8
0
 62
     0
 10
22170.43646775512
 20
-7475.47294600948
 30
0.0
  0
VERTEX
  5
52A
  8
0
 62
     0
 10
22293.88878121693
 20
-7435.350944134389
 30
0.0
  0
VERTEX
  5
52B
  8
0
 62
     0
 10
22602.51956487147
 20
-7444.609867644025
 30
0.0
  0
VERTEX
  5
52C
  8
0
 62
     0
 10
22911.15034852601
 20
-7552.630641923114
 30
0.0
  0
VERTEX
  5
52D
  8
0
 62
     0
 10
22969.79019742037
 20
-7614.356798654021
 30
0.0
  0
VERTEX
  5
52E
  8
0
 62
     0
 10
23065.46574035328
 20
-7639.047261346384
 30
0.0
  0
VERTEX
  5
52F
  8
0
 62
     0
 10
23161.14128328619
 20
-7703.859725913837
 30
0.0
  0
VERTEX
  5
530
  8
0
 62
     0
 10
22904.97773285292
 20
-7827.312039375653
 30
0.0
  0
VERTEX
  5
531
  8
0
 62
     0
 10
22855.5968074682
 20
-7793.362653173654
 30
0.0
  0
VERTEX
  5
532
  8
0
 62
     0
 10
22778.43911155456
 20
-7842.74357855838
 30
0.0
  0
VERTEX
  5
533
  8
0
 62
     0
 10
22877.20096232401
 20
-7966.195892020196
 30
0.0
  0
VERTEX
  5
534
  8
0
 62
     0
 10
22713.6266469871
 20
-8089.64820548201
 30
0.0
  0
VERTEX
  5
535
  8
0
 62
     0
 10
22673.50464511202
 20
-8222.359442453462
 30
0.0
  0
VERTEX
  5
536
  8
0
 62
     0
 10
22654.98679809274
 20
-8348.898063751822
 30
0.0
  0
VERTEX
  5
537
  8
0
 62
     0
 10
22800.04326641038
 20
-8290.258214857458
 30
0.0
  0
VERTEX
  5
538
  8
0
 62
     0
 10
22963.61758174728
 20
-8216.18682678037
 30
0.0
  0
VERTEX
  5
539
  8
0
 62
     0
 10
23083.98358737255
 20
-8253.222520818916
 30
0.0
  0
VERTEX
  5
53A
  8
0
 62
     0
 10
23151.88235977655
 20
-8194.582671924552
 30
0.0
  0
VERTEX
  5
53B
  8
0
 62
     0
 10
23182.74543814201
 20
-8027.922048751103
 30
0.0
  0
VERTEX
  5
53C
  8
0
 62
     0
 10
23364.83760049818
 20
-7978.541123366376
 30
0.0
  0
VERTEX
  5
53D
  8
0
 62
     0
 10
23417.30483371946
 20
-8000.145278222193
 30
0.0
  0
VERTEX
  5
53E
  8
0
 62
     0
 10
23472.85837477727
 20
-8024.835740914557
 30
0.0
  0
VERTEX
  5
53F
  8
0
 62
     0
 10
23528.41191583508
 20
-8021.749433078012
 30
0.0
  0
VERTEX
  5
540
  8
0
 62
     0
 10
23583.9654568929
 20
-8018.663125241466
 30
0.0
  0
VERTEX
  5
541
  8
0
 62
     0
 10
23648.77792146036
 20
-8108.166052501281
 30
0.0
  0
VERTEX
  5
542
  8
0
 62
     0
 10
23679.64099982581
 20
-8157.546977886008
 30
0.0
  0
VERTEX
  5
543
  8
0
 62
     0
 10
23729.02192521054
 20
-8250.13621298237
 30
0.0
  0
VERTEX
  5
544
  8
0
 62
     0
 10
23747.53977222981
 20
-8216.18682678037
 30
0.0
  0
VERTEX
  5
545
  8
0
 62
     0
 10
23901.85516405708
 20
-8268.654060001641
 30
0.0
  0
VERTEX
  5
546
  8
0
 62
     0
 10
23911.11408756672
 20
-8481.609300723274
 30
0.0
  0
VERTEX
  5
547
  8
0
 62
     0
 10
23904.94147189362
 20
-8580.371151492725
 30
0.0
  0
VERTEX
  5
548
  8
0
 62
     0
 10
23945.06347376871
 20
-8629.752076877452
 30
0.0
  0
VERTEX
  5
549
  8
0
 62
     0
 10
24012.96224617271
 20
-8592.716382838908
 30
0.0
  0
VERTEX
  5
54A
  8
0
 62
     0
 10
24093.20624992289
 20
-8654.442539569814
 30
0.0
  0
VERTEX
  5
54B
  8
0
 62
     0
 10
24127.15563612489
 20
-8848.879933272174
 30
0.0
  0
VERTEX
  5
54C
  8
0
 62
     0
 10
24102.46517343253
 20
-9027.885787791805
 30
0.0
  0
VERTEX
  5
54D
  8
0
 62
     0
 10
23935.80455025908
 20
-8972.332246733988
 30
0.0
  0
VERTEX
  5
54E
  8
0
 62
     0
 10
23753.7123879029
 20
-8929.123937022352
 30
0.0
  0
VERTEX
  5
54F
  8
0
 62
     0
 10
23707.41777035472
 20
-8947.641784041627
 30
0.0
  0
VERTEX
  5
550
  8
0
 62
     0
 10
23679.64099982581
 20
-9043.317326974531
 30
0.0
  0
VERTEX
  5
551
  8
0
 62
     0
 10
23778.40285059526
 20
-9092.69825235926
 30
0.0
  0
VERTEX
  5
552
  8
0
 62
     0
 10
23889.50993271089
 20
-9058.74886615726
 30
0.0
  0
VERTEX
  5
553
  8
0
 62
     0
 10
24022.22116968235
 20
-9077.26671317653
 30
0.0
  0
VERTEX
  5
554
  8
0
 62
     0
 10
24127.15563612489
 20
-9172.94225610944
 30
0.0
  0
VERTEX
  5
555
  8
0
 62
     0
 10
24053.08424804781
 20
-9327.257647936707
 30
0.0
  0
VERTEX
  5
556
  8
0
 62
     0
 10
24136.41455963453
 20
-9385.89749683107
 30
0.0
  0
VERTEX
  5
557
  8
0
 62
     0
 10
24120.9830204518
 20
-9512.43611812943
 30
0.0
  0
VERTEX
  5
558
  8
0
 62
     0
 10
24142.58717530762
 20
-9617.370584571974
 30
0.0
  0
VERTEX
  5
559
  8
0
 62
     0
 10
24244.43533391361
 20
-9669.837817793246
 30
0.0
  0
VERTEX
  5
55A
  8
0
 62
     0
 10
24284.55733578871
 20
-9765.513360726152
 30
0.0
  0
VERTEX
  5
55B
  8
0
 62
     0
 10
24370.97395521198
 20
-9938.346599572693
 30
0.0
  0
VERTEX
  5
55C
  8
0
 62
     0
 10
24293.81625929834
 20
-9975.382293611237
 30
0.0
  0
VERTEX
  5
55D
  8
0
 62
     0
 10
24389.49180223125
 20
-10003.15906414015
 30
0.0
  0
VERTEX
  5
55E
  8
0
 62
     0
 10
24500.59888434688
 20
-9966.123370101603
 30
0.0
  0
VERTEX
  5
55F
  8
0
 62
     0
 10
24695.03627804924
 20
-10148.21553245778
 30
0.0
  0
VERTEX
  5
560
  8
0
 62
     0
 10
24707.38150939543
 20
-10404.37908289105
 30
0.0
  0
VERTEX
  5
561
  8
0
 62
     0
 10
24766.02135828978
 20
-10441.41477692959
 30
0.0
  0
VERTEX
  5
562
  8
0
 62
     0
 10
24870.95582473233
 20
-10463.01893178541
 30
0.0
  0
VERTEX
  5
563
  8
0
 62
     0
 10
24963.54505982869
 20
-10663.62894116086
 30
0.0
  0
VERTEX
  5
564
  8
0
 62
     0
 10
24855.5242855496
 20
-10722.26879005522
 30
0.0
  0
VERTEX
  5
565
  8
0
 62
     0
 10
24778.36658963597
 20
-10734.6140214014
 30
0.0
  0
VERTEX
  5
566
  8
0
 62
     0
 10
24756.76243478015
 20
-10830.28956433431
 30
0.0
  0
VERTEX
  5
567
  8
0
 62
     0
 10
24840.09274636687
 20
-10901.27464457485
 30
0.0
  0
VERTEX
  5
568
  8
0
 62
     0
 10
24812.31597583797
 20
-11003.12280318085
 30
0.0
  0
VERTEX
  5
569
  8
0
 62
     0
 10
24849.35166987651
 20
-11123.48880880612
 30
0.0
  0
VERTEX
  5
56A
  8
0
 62
     0
 10
24769.10766612633
 20
-11191.38758121012
 30
0.0
  0
VERTEX
  5
56B
  8
0
 62
     0
 10
24722.81304857815
 20
-11342.61666520084
 30
0.0
  0
VERTEX
  5
56C
  8
0
 62
     0
 10
24735.15827992433
 20
-11527.79513539357
 30
0.0
  0
VERTEX
  5
56D
  8
0
 62
     0
 10
24617.87858213561
 20
-11592.60759996102
 30
0.0
  0
VERTEX
  5
56E
  8
0
 62
     0
 10
24506.77150001998
 20
-11666.67898803811
 30
0.0
  0
VERTEX
  5
56F
  8
0
 62
     0
 10
24392.57811006779
 20
-11919.75623063483
 30
0.0
  0
VERTEX
  5
570
  8
0
 62
     0
 10
24185.79548501925
 20
-12052.46746760628
 30
0.0
  0
VERTEX
  5
571
  8
0
 62
     0
 10
24148.75979098071
 20
-12058.64008327937
 30
0.0
  0
VERTEX
  5
572
  8
0
 62
     0
 10
24154.9324066538
 20
-12141.9703948661
 30
0.0
  0
VERTEX
  5
573
  8
0
 62
     0
 10
23858.64685434544
 20
-12253.07747698173
 30
0.0
  0
VERTEX
  5
574
  8
0
 62
     0
 10
23790.74808194144
 20
-12151.22931837573
 30
0.0
  0
VERTEX
  5
575
  8
0
 62
     0
 10
23787.6617741049
 20
-12018.51808140428
 30
0.0
  0
VERTEX
  5
576
  8
0
 62
     0
 10
23667.29576847963
 20
-11993.82761871192
 30
0.0
  0
VERTEX
  5
577
  8
0
 62
     0
 10
23667.29576847963
 20
-12006.1728500581
 30
0.0
  0
VERTEX
  5
578
  8
0
 62
     0
 10
23688.89992333545
 20
-12021.60438924083
 30
0.0
  0
VERTEX
  5
579
  8
0
 62
     0
 10
23676.55469198926
 20
-12148.14301053919
 30
0.0
  0
VERTEX
  5
57A
  8
0
 62
     0
 10
23627.17376660454
 20
-12317.88994154918
 30
0.0
  0
VERTEX
  5
57B
  8
0
 62
     0
 10
23408.04591020982
 20
-12296.28578669337
 30
0.0
  0
VERTEX
  5
57C
  8
0
 62
     0
 10
23327.80190645964
 20
-12188.26501241428
 30
0.0
  0
VERTEX
  5
57D
  8
0
 62
     0
 10
23318.54298295
 20
-12160.48824188537
 30
0.0
  0
VERTEX
  5
57E
  8
0
 62
     0
 10
23290.76621242109
 20
-12120.36624001028
 30
0.0
  0
VERTEX
  5
57F
  8
0
 62
     0
 10
23192.00436165164
 20
-12222.21439861628
 30
0.0
  0
VERTEX
  5
580
  8
0
 62
     0
 10
23108.67405006492
 20
-12428.99702366482
 30
0.0
  0
VERTEX
  5
581
  8
0
 62
     0
 10
22778.43911155456
 20
-13802.40401092751
 30
0.0
  0
VERTEX
  5
582
  8
0
 62
     0
 10
22744.48972535256
 20
-15222.10561573839
 30
0.0
  0
VERTEX
  5
583
  8
0
 62
     0
 10
22753.74864886219
 20
-15357.90316054638
 30
0.0
  0
VERTEX
  5
584
  8
0
 62
     0
 10
22763.00757237183
 20
-15450.49239564275
 30
0.0
  0
VERTEX
  5
585
  8
0
 62
     0
 10
22778.43911155456
 20
-15521.47747588329
 30
0.0
  0
VERTEX
  5
586
  8
0
 62
     0
 10
22713.6266469871
 20
-15521.47747588329
 30
0.0
  0
SEQEND
  5
6FD
  8
0
 62
     0
  0
POLYLINE
  5
1C3
  8
0
 62
     0
 66
     1
 10
0.0
 20
0.0
 30
0.0
  0
VERTEX
  5
587
  8
0
 62
     0
 10
22605.60587270802
 20
-13558.58569184043
 30
0.0
  0
VERTEX
  5
588
  8
0
 62
     0
 10
22525.36186895784
 20
-13351.80306679189
 30
0.0
  0
VERTEX
  5
589
  8
0
 62
     0
 10
22488.32617491929
 20
-13098.72582419516
 30
0.0
  0
VERTEX
  5
58A
  8
0
 62
     0
 10
22475.98094357311
 20
-12836.38965808881
 30
0.0
  0
VERTEX
  5
58B
  8
0
 62
     0
 10
22482.1535592462
 20
-12604.9165703479
 30
0.0
  0
VERTEX
  5
58C
  8
0
 62
     0
 10
22509.93032977511
 20
-12382.70240611663
 30
0.0
  0
VERTEX
  5
58D
  8
0
 62
     0
 10
22568.57017866947
 20
-12015.43177356774
 30
0.0
  0
VERTEX
  5
58E
  8
0
 62
     0
 10
22639.55525891002
 20
-11669.76529587465
 30
0.0
  0
VERTEX
  5
58F
  8
0
 62
     0
 10
22713.6266469871
 20
-11509.27728837429
 30
0.0
  0
VERTEX
  5
590
  8
0
 62
     0
 10
22763.00757237183
 20
-11540.14036673975
 30
0.0
  0
VERTEX
  5
591
  8
0
 62
     0
 10
22759.92126453529
 20
-11626.55698616302
 30
0.0
  0
VERTEX
  5
592
  8
0
 62
     0
 10
22793.87065073728
 20
-11697.54206640356
 30
0.0
  0
VERTEX
  5
593
  8
0
 62
     0
 10
22911.15034852601
 20
-11638.9022175092
 30
0.0
  0
VERTEX
  5
594
  8
0
 62
     0
 10
22972.87650525692
 20
-11574.08975294175
 30
0.0
  0
VERTEX
  5
595
  8
0
 62
     0
 10
22979.04912093001
 20
-11577.17606077829
 30
0.0
  0
VERTEX
  5
596
  8
0
 62
     0
 10
22991.39435227619
 20
-11611.12544698029
 30
0.0
  0
VERTEX
  5
597
  8
0
 62
     0
 10
23034.60266198783
 20
-11675.93791154774
 30
0.0
  0
VERTEX
  5
598
  8
0
 62
     0
 10
23034.60266198783
 20
-11725.31883693247
 30
0.0
  0
VERTEX
  5
599
  8
0
 62
     0
 10
22991.39435227619
 20
-11756.18191529792
 30
0.0
  0
VERTEX
  5
59A
  8
0
 62
     0
 10
22966.70388958383
 20
-11799.39022500956
 30
0.0
  0
VERTEX
  5
59B
  8
0
 62
     0
 10
22966.70388958383
 20
-11891.97946010592
 30
0.0
  0
VERTEX
  5
59C
  8
0
 62
     0
 10
22960.53127391074
 20
-12246.90486130864
 30
0.0
  0
VERTEX
  5
59D
  8
0
 62
     0
 10
22898.80511717983
 20
-12595.65764683827
 30
0.0
  0
VERTEX
  5
59E
  8
0
 62
     0
 10
22803.12957424692
 20
-12938.23781669481
 30
0.0
  0
VERTEX
  5
59F
  8
0
 62
     0
 10
22692.02249213129
 20
-13280.81798655134
 30
0.0
  0
VERTEX
  5
5A0
  8
0
 62
     0
 10
22673.50464511202
 20
-13351.80306679189
 30
0.0
  0
VERTEX
  5
5A1
  8
0
 62
     0
 10
22654.98679809274
 20
-13422.78814703243
 30
0.0
  0
VERTEX
  5
5A2
  8
0
 62
     0
 10
22633.38264323693
 20
-13490.68691943643
 30
0.0
  0
VERTEX
  5
5A3
  8
0
 62
     0
 10
22605.60587270802
 20
-13558.58569184043
 30
0.0
  0
SEQEND
  5
6FE
  8
0
 62
     0
  0
POLYLINE
  5
1E2
  8
0
 62
     0
 66
     1
 10
0.0
 20
0.0
 30
0.0
  0
VERTEX
  5
5A4
  8
0
 62
     0
 10
20877.2734842426
 20
-11895.06576794247
 30
0.0
  0
VERTEX
  5
5A5
  8
0
 62
     0
 10
20726.04440025188
 20
-11740.7503761152
 30
0.0
  0
VERTEX
  5
5A6
  8
0
 62
     0
 10
20497.65762034752
 20
-11799.39022500956
 30
0.0
  0
VERTEX
  5
5A7
  8
0
 62
     0
 10
20408.15469308771
 20
-11787.04499366338
 30
0.0
  0
VERTEX
  5
5A8
  8
0
 62
     0
 10
20516.1754673668
 20
-11660.50637236502
 30
0.0
  0
VERTEX
  5
5A9
  8
0
 62
     0
 10
20624.19624164588
 20
-11574.08975294175
 30
0.0
  0
VERTEX
  5
5AA
  8
0
 62
     0
 10
20633.45516515552
 20
-11271.6315849603
 30
0.0
  0
VERTEX
  5
5AB
  8
0
 62
     0
 10
20661.23193568443
 20
-11225.33696741212
 30
0.0
  0
VERTEX
  5
5AC
  8
0
 62
     0
 10
20689.00870621334
 20
-11175.95604202739
 30
0.0
  0
VERTEX
  5
5AD
  8
0
 62
     0
 10
20827.89255885788
 20
-11114.22988529648
 30
0.0
  0
VERTEX
  5
5AE
  8
0
 62
     0
 10
20908.13656260806
 20
-11037.07218938285
 30
0.0
  0
VERTEX
  5
5AF
  8
0
 62
     0
 10
20926.65440962733
 20
-10993.86387967121
 30
0.0
  0
VERTEX
  5
5B0
  8
0
 62
     0
 10
20966.77641150242
 20
-10938.3103386134
 30
0.0
  0
VERTEX
  5
5B1
  8
0
 62
     0
 10
20976.03533501206
 20
-10854.98002702667
 30
0.0
  0
VERTEX
  5
5B2
  8
0
 62
     0
 10
21118.00549549314
 20
-10953.74187779612
 30
0.0
  0
VERTEX
  5
5B3
  8
0
 62
     0
 10
21195.16319140678
 20
-10990.77757183467
 30
0.0
  0
VERTEX
  5
5B4
  8
0
 62
     0
 10
21281.57981083005
 20
-11018.55434236358
 30
0.0
  0
VERTEX
  5
5B5
  8
0
 62
     0
 10
21309.35658135896
 20
-11160.52450284467
 30
0.0
  0
VERTEX
  5
5B6
  8
0
 62
     0
 10
21435.89520265732
 20
-11154.35188717158
 30
0.0
  0
VERTEX
  5
5B7
  8
0
 62
     0
 10
21509.96659073441
 20
-11243.85481443139
 30
0.0
  0
VERTEX
  5
5B8
  8
0
 62
     0
 10
21565.52013179223
 20
-11324.09881818157
 30
0.0
  0
VERTEX
  5
5B9
  8
0
 62
     0
 10
21460.58566534968
 20
-11398.17020625866
 30
0.0
  0
VERTEX
  5
5BA
  8
0
 62
     0
 10
21380.3416615995
 20
-11503.1046727012
 30
0.0
  0
VERTEX
  5
5BB
  8
0
 62
     0
 10
21222.93996193569
 20
-11509.27728837429
 30
0.0
  0
VERTEX
  5
5BC
  8
0
 62
     0
 10
21090.22872496424
 20
-11580.26236861484
 30
0.0
  0
VERTEX
  5
5BD
  8
0
 62
     0
 10
21019.24364472369
 20
-11768.5271466441
 30
0.0
  0
VERTEX
  5
5BE
  8
0
 62
     0
 10
20901.96394693497
 20
-11895.06576794247
 30
0.0
  0
VERTEX
  5
5BF
  8
0
 62
     0
 10
20889.61871558879
 20
-11895.06576794247
 30
0.0
  0
VERTEX
  5
5C0
  8
0
 62
     0
 10
20877.2734842426
 20
-11895.06576794247
 30
0.0
  0
SEQEND
  5
6FF
  8
0
 62
     0
  0
POLYLINE
  5
201
  8
0
 62
     0
 66
     1
 10
0.0
 20
0.0
 30
0.0
  0
VERTEX
  5
5C1
  8
0
 62
     0
 10
22337.09709092857
 20
-12675.90165058845
 30
0.0
  0
VERTEX
  5
5C2
  8
0
 62
     0
 10
22315.49293607275
 20
-12629.60703304027
 30
0.0
  0
VERTEX
  5
5C3
  8
0
 62
     0
 10
22284.6298577073
 20
-12518.49995092463
 30
0.0
  0
VERTEX
  5
5C4
  8
0
 62
     0
 10
22244.50785583221
 20
-12364.18455909736
 30
0.0
  0
VERTEX
  5
5C5
  8
0
 62
     0
 10
22207.47216179366
 20
-12197.52393592391
 30
0.0
  0
VERTEX
  5
5C6
  8
0
 62
     0
 10
22170.43646775512
 20
-12037.03592842355
 30
0.0
  0
VERTEX
  5
5C7
  8
0
 62
     0
 10
22142.65969722621
 20
-11910.49730712519
 30
0.0
  0
VERTEX
  5
5C8
  8
0
 62
     0
 10
22130.31446588003
 20
-11842.5985347212
 30
0.0
  0
VERTEX
  5
5C9
  8
0
 62
     0
 10
22114.8829266973
 20
-11808.6491485192
 30
0.0
  0
VERTEX
  5
5CA
  8
0
 62
     0
 10
22114.8829266973
 20
-11777.78607015374
 30
0.0
  0
VERTEX
  5
5CB
  8
0
 62
     0
 10
22117.96923453385
 20
-11746.92299178829
 30
0.0
  0
VERTEX
  5
5CC
  8
0
 62
     0
 10
22195.12693044748
 20
-11737.66406827865
 30
0.0
  0
VERTEX
  5
5CD
  8
0
 62
     0
 10
22272.28462636112
 20
-11750.00929962483
 30
0.0
  0
VERTEX
  5
5CE
  8
0
 62
     0
 10
22367.96016929402
 20
-11746.92299178829
 30
0.0
  0
VERTEX
  5
5CF
  8
0
 62
     0
 10
22374.13278496711
 20
-11879.63422875974
 30
0.0
  0
VERTEX
  5
5D0
  8
0
 62
     0
 10
22383.39170847675
 20
-12006.1728500581
 30
0.0
  0
VERTEX
  5
5D1
  8
0
 62
     0
 10
22392.65063198639
 20
-12129.62516351992
 30
0.0
  0
VERTEX
  5
5D2
  8
0
 62
     0
 10
22395.73693982293
 20
-12249.99116914519
 30
0.0
  0
VERTEX
  5
5D3
  8
0
 62
     0
 10
22392.65063198639
 20
-12373.443482607
 30
0.0
  0
VERTEX
  5
5D4
  8
0
 62
     0
 10
22377.21909280366
 20
-12506.15471957845
 30
0.0
  0
VERTEX
  5
5D5
  8
0
 62
     0
 10
22346.35601443821
 20
-12651.21118789609
 30
0.0
  0
VERTEX
  5
5D6
  8
0
 62
     0
 10
22343.26970660166
 20
-12669.72903491536
 30
0.0
  0
VERTEX
  5
5D7
  8
0
 62
     0
 10
22340.18339876512
 20
-12675.90165058845
 30
0.0
  0
VERTEX
  5
5D8
  8
0
 62
     0
 10
22337.09709092857
 20
-12675.90165058845
 30
0.0
  0
SEQEND
  5
700
  8
0
 62
     0
  0
POLYLINE
  5
21B
  8
0
 62
     0
 66
     1
 10
0.0
 20
0.0
 30
0.0
  0
VERTEX
  5
5D9
  8
0
 62
     0
 10
21503.79397506132
 20
-11734.57776044211
 30
0.0
  0
VERTEX
  5
5DA
  8
0
 62
     0
 10
21435.89520265732
 20
-11675.93791154774
 30
0.0
  0
VERTEX
  5
5DB
  8
0
 62
     0
 10
21334.04704405132
 20
-11632.72960183611
 30
0.0
  0
VERTEX
  5
5DC
  8
0
 62
     0
 10
21133.43703467587
 20
-11651.24744885538
 30
0.0
  0
VERTEX
  5
5DD
  8
0
 62
     0
 10
21226.02626977223
 20
-11571.0034451052
 30
0.0
  0
VERTEX
  5
5DE
  8
0
 62
     0
 10
21222.93996193569
 20
-11537.0540589032
 30
0.0
  0
VERTEX
  5
5DF
  8
0
 62
     0
 10
21216.7673462626
 20
-11527.79513539357
 30
0.0
  0
VERTEX
  5
5E0
  8
0
 62
     0
 10
21290.83873433969
 20
-11549.39929024938
 30
0.0
  0
VERTEX
  5
5E1
  8
0
 62
     0
 10
21367.99643025332
 20
-11567.91713726865
 30
0.0
  0
VERTEX
  5
5E2
  8
0
 62
     0
 10
21438.98151049386
 20
-11503.1046727012
 30
0.0
  0
VERTEX
  5
5E3
  8
0
 62
     0
 10
21445.15412616696
 20
-11503.1046727012
 30
0.0
  0
VERTEX
  5
5E4
  8
0
 62
     0
 10
21451.32674184004
 20
-11503.1046727012
 30
0.0
  0
VERTEX
  5
5E5
  8
0
 62
     0
 10
21457.49935751314
 20
-11503.1046727012
 30
0.0
  0
VERTEX
  5
5E6
  8
0
 62
     0
 10
21494.53505155168
 20
-11601.86652347066
 30
0.0
  0
VERTEX
  5
5E7
  8
0
 62
     0
 10
21553.17490044604
 20
-11688.28314289392
 30
0.0
  0
VERTEX
  5
5E8
  8
0
 62
     0
 10
21503.79397506132
 20
-11734.57776044211
 30
0.0
  0
SEQEND
  5
701
  8
0
 62
     0
  0
POLYLINE
  5
22D
  8
0
 62
     0
 66
     1
 10
0.0
 20
0.0
 30
0.0
  0
VERTEX
  5
5E9
  8
0
 62
     0
 10
22475.98094357311
 20
-11870.3753052501
 30
0.0
  0
VERTEX
  5
5EA
  8
0
 62
     0
 10
22454.37678871729
 20
-11759.26822313447
 30
0.0
  0
VERTEX
  5
5EB
  8
0
 62
     0
 10
22448.2041730442
 20
-11635.81590967265
 30
0.0
  0
VERTEX
  5
5EC
  8
0
 62
     0
 10
22522.27556112129
 20
-11626.55698616302
 30
0.0
  0
VERTEX
  5
5ED
  8
0
 62
     0
 10
22516.1029454482
 20
-11700.62837424011
 30
0.0
  0
VERTEX
  5
5EE
  8
0
 62
     0
 10
22497.58509842893
 20
-11808.6491485192
 30
0.0
  0
VERTEX
  5
5EF
  8
0
 62
     0
 10
22475.98094357311
 20
-11870.3753052501
 30
0.0
  0
SEQEND
  5
702
  8
0
 62
     0
  0
POLYLINE
  5
236
  8
0
 62
     0
 66
     1
 10
0.0
 20
0.0
 30
0.0
  0
VERTEX
  5
5F0
  8
0
 62
     0
 10
23806.17962112417
 20
-14274.60910991895
 30
0.0
  0
VERTEX
  5
5F1
  8
0
 62
     0
 10
23806.17962112417
 20
-14265.35018640932
 30
0.0
  0
VERTEX
  5
5F2
  8
0
 62
     0
 10
23806.17962112417
 20
-14259.17757073623
 30
0.0
  0
VERTEX
  5
5F3
  8
0
 62
     0
 10
23806.17962112417
 20
-14253.00495506314
 30
0.0
  0
VERTEX
  5
5F4
  8
0
 62
     0
 10
23809.26592896071
 20
-14265.35018640932
 30
0.0
  0
VERTEX
  5
5F5
  8
0
 62
     0
 10
23809.26592896071
 20
-14271.52280208241
 30
0.0
  0
VERTEX
  5
5F6
  8
0
 62
     0
 10
23809.26592896071
 20
-14274.60910991895
 30
0.0
  0
VERTEX
  5
5F7
  8
0
 62
     0
 10
23806.17962112417
 20
-14274.60910991895
 30
0.0
  0
VERTEX
  5
5F8
  8
0
 62
     0
 10
23806.17962112417
 20
-14274.60910991895
 30
0.0
  0
VERTEX
  5
5F9
  8
0
 62
     0
 10
23806.17962112417
 20
-14274.60910991895
 30
0.0
  0
SEQEND
  5
703
  8
0
 62
     0
  0
POLYLINE
  5
242
  8
0
 62
     0
 66
     1
 10
0.0
 20
0.0
 30
0.0
  0
VERTEX
  5
5FA
  8
0
 62
     0
 10
23025.34373847819
 20
-12388.87502178973
 30
0.0
  0
VERTEX
  5
5FB
  8
0
 62
     0
 10
23037.68896982437
 20
-12191.35132025082
 30
0.0
  0
VERTEX
  5
5FC
  8
0
 62
     0
 10
23068.55204818982
 20
-12000.00023438501
 30
0.0
  0
VERTEX
  5
5FD
  8
0
 62
     0
 10
23161.14128328619
 20
-12012.34546573119
 30
0.0
  0
VERTEX
  5
5FE
  8
0
 62
     0
 10
23148.79605194
 20
-12135.79777919301
 30
0.0
  0
VERTEX
  5
5FF
  8
0
 62
     0
 10
23087.0698952091
 20
-12271.595324001
 30
0.0
  0
VERTEX
  5
600
  8
0
 62
     0
 10
23025.34373847819
 20
-12388.87502178973
 30
0.0
  0
SEQEND
  5
704
  8
0
 62
     0
  0
POLYLINE
  5
24B
  8
0
 62
     0
 66
     1
 10
0.0
 20
0.0
 30
0.0
  0
VERTEX
  5
601
  8
0
 62
     0
 10
22451.29048088075
 20
-10669.80155683395
 30
0.0
  0
VERTEX
  5
602
  8
0
 62
     0
 10
22398.82324765948
 20
-10632.7658627954
 30
0.0
  0
VERTEX
  5
603
  8
0
 62
     0
 10
22346.35601443821
 20
-10595.73016875686
 30
0.0
  0
VERTEX
  5
604
  8
0
 62
     0
 10
22281.54354987075
 20
-10598.81647659341
 30
0.0
  0
VERTEX
  5
605
  8
0
 62
     0
 10
22216.7310853033
 20
-10598.81647659341
 30
0.0
  0
VERTEX
  5
606
  8
0
 62
     0
 10
22173.52277559166
 20
-10311.78984779468
 30
0.0
  0
VERTEX
  5
607
  8
0
 62
     0
 10
22355.61493794784
 20
-10077.23045221724
 30
0.0
  0
VERTEX
  5
608
  8
0
 62
     0
 10
22352.5286301113
 20
-10058.71260519796
 30
0.0
  0
VERTEX
  5
609
  8
0
 62
     0
 10
22352.5286301113
 20
-10040.19475817869
 30
0.0
  0
VERTEX
  5
60A
  8
0
 62
     0
 10
22281.54354987075
 20
-10006.24537197669
 30
0.0
  0
VERTEX
  5
60B
  8
0
 62
     0
 10
22210.55846963021
 20
-9969.209677938148
 30
0.0
  0
VERTEX
  5
60C
  8
0
 62
     0
 10
22293.88878121693
 20
-9898.224597697605
 30
0.0
  0
VERTEX
  5
60D
  8
0
 62
     0
 10
22386.4780163133
 20
-9827.23951745706
 30
0.0
  0
VERTEX
  5
60E
  8
0
 62
     0
 10
22352.5286301113
 20
-9759.340745053061
 30
0.0
  0
VERTEX
  5
60F
  8
0
 62
     0
 10
22361.78755362094
 20
-9691.441972649063
 30
0.0
  0
VERTEX
  5
610
  8
0
 62
     0
 10
22364.87386145748
 20
-9660.578894283608
 30
0.0
  0
VERTEX
  5
611
  8
0
 62
     0
 10
22404.99586333257
 20
-9632.802123754702
 30
0.0
  0
VERTEX
  5
612
  8
0
 62
     0
 10
22392.65063198639
 20
-9608.111661062338
 30
0.0
  0
VERTEX
  5
613
  8
0
 62
     0
 10
22380.30540064021
 20
-9583.421198369973
 30
0.0
  0
VERTEX
  5
614
  8
0
 62
     0
 10
22238.33524015912
 20
-9524.781349475614
 30
0.0
  0
VERTEX
  5
615
  8
0
 62
     0
 10
22158.09123640894
 20
-9512.43611812943
 30
0.0
  0
VERTEX
  5
616
  8
0
 62
     0
 10
22142.65969722621
 20
-9580.334890533428
 30
0.0
  0
VERTEX
  5
617
  8
0
 62
     0
 10
22127.22815804348
 20
-9651.319970773973
 30
0.0
  0
VERTEX
  5
618
  8
0
 62
     0
 10
22093.27877184148
 20
-9642.061047264337
 30
0.0
  0
VERTEX
  5
619
  8
0
 62
     0
 10
22059.32938563948
 20
-9632.802123754702
 30
0.0
  0
VERTEX
  5
61A
  8
0
 62
     0
 10
22050.07046212985
 20
-9527.86765731216
 30
0.0
  0
VERTEX
  5
61B
  8
0
 62
     0
 10
21997.60322890858
 20
-9392.070112504161
 30
0.0
  0
VERTEX
  5
61C
  8
0
 62
     0
 10
22009.94846025476
 20
-9240.841028513438
 30
0.0
  0
VERTEX
  5
61D
  8
0
 62
     0
 10
22053.15676996639
 20
-8694.564541444906
 30
0.0
  0
VERTEX
  5
61E
  8
0
 62
     0
 10
22071.67461698567
 20
-8669.874078752542
 30
0.0
  0
VERTEX
  5
61F
  8
0
 62
     0
 10
22087.10615616839
 20
-8645.183616060178
 30
0.0
  0
VERTEX
  5
620
  8
0
 62
     0
 10
22068.58830914912
 20
-8614.320537694724
 30
0.0
  0
VERTEX
  5
621
  8
0
 62
     0
 10
22050.07046212985
 20
-8580.371151492725
 30
0.0
  0
VERTEX
  5
622
  8
0
 62
     0
 10
22155.00492857239
 20
-8512.472379088727
 30
0.0
  0
VERTEX
  5
623
  8
0
 62
     0
 10
22210.55846963021
 20
-8401.365296973094
 30
0.0
  0
VERTEX
  5
624
  8
0
 62
     0
 10
22253.76677934184
 20
-8385.933757790368
 30
0.0
  0
VERTEX
  5
625
  8
0
 62
     0
 10
22293.88878121693
 20
-8370.50221860764
 30
0.0
  0
VERTEX
  5
626
  8
0
 62
     0
 10
22296.97508905348
 20
-8355.070679424913
 30
0.0
  0
VERTEX
  5
627
  8
0
 62
     0
 10
22296.97508905348
 20
-8339.639140242187
 30
0.0
  0
VERTEX
  5
628
  8
0
 62
     0
 10
22318.5792439093
 20
-8367.415910771095
 30
0.0
  0
VERTEX
  5
629
  8
0
 62
     0
 10
22346.35601443821
 20
-8392.106373463457
 30
0.0
  0
VERTEX
  5
62A
  8
0
 62
     0
 10
22374.13278496711
 20
-8490.868224232909
 30
0.0
  0
VERTEX
  5
62B
  8
0
 62
     0
 10
22398.82324765948
 20
-8586.543767165816
 30
0.0
  0
VERTEX
  5
62C
  8
0
 62
     0
 10
22346.35601443821
 20
-8654.442539569814
 30
0.0
  0
VERTEX
  5
62D
  8
0
 62
     0
 10
22293.88878121693
 20
-8722.341311973814
 30
0.0
  0
VERTEX
  5
62E
  8
0
 62
     0
 10
22306.23401256312
 20
-8762.463313848904
 30
0.0
  0
VERTEX
  5
62F
  8
0
 62
     0
 10
22318.5792439093
 20
-8802.585315723994
 30
0.0
  0
VERTEX
  5
630
  8
0
 62
     0
 10
22371.04647713057
 20
-8818.01685490672
 30
0.0
  0
VERTEX
  5
631
  8
0
 62
     0
 10
22423.51371035184
 20
-8830.362086252902
 30
0.0
  0
VERTEX
  5
632
  8
0
 62
     0
 10
22516.1029454482
 20
-9481.573039763978
 30
0.0
  0
VERTEX
  5
633
  8
0
 62
     0
 10
22556.22494732329
 20
-10135.8703011116
 30
0.0
  0
VERTEX
  5
634
  8
0
 62
     0
 10
22500.67140626548
 20
-10216.11430486178
 30
0.0
  0
VERTEX
  5
635
  8
0
 62
     0
 10
22408.08217116911
 20
-10274.75415375614
 30
0.0
  0
VERTEX
  5
636
  8
0
 62
     0
 10
22466.72202006348
 20
-10469.1915474585
 30
0.0
  0
VERTEX
  5
637
  8
0
 62
     0
 10
22451.29048088075
 20
-10669.80155683395
 30
0.0
  0
SEQEND
  5
705
  8
0
 62
     0
  0
POLYLINE
  5
284
  8
0
 62
     0
 66
     1
 10
0.0
 20
0.0
 30
0.0
  0
VERTEX
  5
638
  8
0
 62
     0
 10
21340.21965972441
 20
-8855.052548945263
 30
0.0
  0
VERTEX
  5
639
  8
0
 62
     0
 10
21297.01135001278
 20
-8808.757931397084
 30
0.0
  0
VERTEX
  5
63A
  8
0
 62
     0
 10
21327.87442837823
 20
-8642.097308223634
 30
0.0
  0
VERTEX
  5
63B
  8
0
 62
     0
 10
21398.85950861877
 20
-8543.33545745418
 30
0.0
  0
VERTEX
  5
63C
  8
0
 62
     0
 10
21602.55582583077
 20
-8469.264069377092
 30
0.0
  0
VERTEX
  5
63D
  8
0
 62
     0
 10
21429.72258698423
 20
-8426.055759665456
 30
0.0
  0
VERTEX
  5
63E
  8
0
 62
     0
 10
21488.36243587859
 20
-8222.359442453462
 30
0.0
  0
VERTEX
  5
63F
  8
0
 62
     0
 10
21580.95167097495
 20
-8157.546977886008
 30
0.0
  0
VERTEX
  5
640
  8
0
 62
     0
 10
21673.54090607131
 20
-8151.374362212918
 30
0.0
  0
VERTEX
  5
641
  8
0
 62
     0
 10
21726.00813929259
 20
-7984.713739039467
 30
0.0
  0
VERTEX
  5
642
  8
0
 62
     0
 10
21596.38321015768
 20
-7981.627431202922
 30
0.0
  0
VERTEX
  5
643
  8
0
 62
     0
 10
21759.95752549458
 20
-7842.74357855838
 30
0.0
  0
VERTEX
  5
644
  8
0
 62
     0
 10
21966.74015054313
 20
-7728.550188606199
 30
0.0
  0
VERTEX
  5
645
  8
0
 62
     0
 10
22056.24307780294
 20
-7771.758498317836
 30
0.0
  0
VERTEX
  5
646
  8
0
 62
     0
 10
22105.62400318767
 20
-7700.773418077292
 30
0.0
  0
VERTEX
  5
647
  8
0
 62
     0
 10
22145.74600506276
 20
-7558.803257596204
 30
0.0
  0
VERTEX
  5
648
  8
0
 62
     0
 10
22210.55846963021
 20
-7512.508640048024
 30
0.0
  0
VERTEX
  5
649
  8
0
 62
     0
 10
22296.97508905348
 20
-7469.300330336388
 30
0.0
  0
VERTEX
  5
64A
  8
0
 62
     0
 10
22303.14770472657
 20
-7537.199102740386
 30
0.0
  0
VERTEX
  5
64B
  8
0
 62
     0
 10
22386.4780163133
 20
-7605.097875144385
 30
0.0
  0
VERTEX
  5
64C
  8
0
 62
     0
 10
22451.29048088075
 20
-7487.818177355661
 30
0.0
  0
VERTEX
  5
64D
  8
0
 62
     0
 10
22608.69218054456
 20
-7506.336024374932
 30
0.0
  0
VERTEX
  5
64E
  8
0
 62
     0
 10
22874.11465448746
 20
-7592.752643798203
 30
0.0
  0
VERTEX
  5
64F
  8
0
 62
     0
 10
23068.55204818982
 20
-7710.032341586928
 30
0.0
  0
VERTEX
  5
650
  8
0
 62
     0
 10
22972.87650525692
 20
-7725.463880769655
 30
0.0
  0
VERTEX
  5
651
  8
0
 62
     0
 10
22901.89142501638
 20
-7765.585882644746
 30
0.0
  0
VERTEX
  5
652
  8
0
 62
     0
 10
22833.99265261238
 20
-7759.413266971654
 30
0.0
  0
VERTEX
  5
653
  8
0
 62
     0
 10
22719.7992626602
 20
-7833.484655048743
 30
0.0
  0
VERTEX
  5
654
  8
0
 62
     0
 10
22796.95695857383
 20
-7935.332813654741
 30
0.0
  0
VERTEX
  5
655
  8
0
 62
     0
 10
22775.35280371801
 20
-8009.40420173183
 30
0.0
  0
VERTEX
  5
656
  8
0
 62
     0
 10
22682.76356862165
 20
-8031.008356587648
 30
0.0
  0
VERTEX
  5
657
  8
0
 62
     0
 10
22664.24572160238
 20
-8000.145278222193
 30
0.0
  0
VERTEX
  5
658
  8
0
 62
     0
 10
22571.65648650602
 20
-7950.764352837468
 30
0.0
  0
VERTEX
  5
659
  8
0
 62
     0
 10
22408.08217116911
 20
-7858.175117741107
 30
0.0
  0
VERTEX
  5
65A
  8
0
 62
     0
 10
22247.59416366875
 20
-7882.865580433469
 30
0.0
  0
VERTEX
  5
65B
  8
0
 62
     0
 10
22303.14770472657
 20
-7947.678045000923
 30
0.0
  0
VERTEX
  5
65C
  8
0
 62
     0
 10
22420.4274025153
 20
-7960.023276347103
 30
0.0
  0
VERTEX
  5
65D
  8
0
 62
     0
 10
22432.77263386147
 20
-8040.267280097284
 30
0.0
  0
VERTEX
  5
65E
  8
0
 62
     0
 10
22627.21002756384
 20
-8098.907128991646
 30
0.0
  0
VERTEX
  5
65F
  8
0
 62
     0
 10
22546.96602381366
 20
-8256.308828655461
 30
0.0
  0
VERTEX
  5
660
  8
0
 62
     0
 10
22438.94524953457
 20
-8321.121293222914
 30
0.0
  0
VERTEX
  5
661
  8
0
 62
     0
 10
22296.97508905348
 20
-8296.430830530551
 30
0.0
  0
VERTEX
  5
662
  8
0
 62
     0
 10
22164.26385208203
 20
-8367.415910771095
 30
0.0
  0
VERTEX
  5
663
  8
0
 62
     0
 10
22084.01984833185
 20
-8493.954532069456
 30
0.0
  0
VERTEX
  5
664
  8
0
 62
     0
 10
21997.60322890858
 20
-8574.198535819634
 30
0.0
  0
VERTEX
  5
665
  8
0
 62
     0
 10
21945.13599568731
 20
-8688.391925771815
 30
0.0
  0
VERTEX
  5
666
  8
0
 62
     0
 10
21830.94260573513
 20
-8706.909772791085
 30
0.0
  0
VERTEX
  5
667
  8
0
 62
     0
 10
21781.5616803504
 20
-8685.30561793527
 30
0.0
  0
VERTEX
  5
668
  8
0
 62
     0
 10
21735.26706280222
 20
-8685.30561793527
 30
0.0
  0
VERTEX
  5
669
  8
0
 62
     0
 10
21621.07367285004
 20
-8731.600235483449
 30
0.0
  0
VERTEX
  5
66A
  8
0
 62
     0
 10
21587.12428664804
 20
-8811.84423923363
 30
0.0
  0
VERTEX
  5
66B
  8
0
 62
     0
 10
21531.57074559023
 20
-8861.225164618354
 30
0.0
  0
VERTEX
  5
66C
  8
0
 62
     0
 10
21457.49935751314
 20
-8879.743011637627
 30
0.0
  0
VERTEX
  5
66D
  8
0
 62
     0
 10
21414.2910478015
 20
-8765.549621685448
 30
0.0
  0
VERTEX
  5
66E
  8
0
 62
     0
 10
21340.21965972441
 20
-8855.052548945263
 30
0.0
  0
SEQEND
  5
706
  8
0
 62
     0
  0
POLYLINE
  5
2BD
  8
0
 62
     0
 66
     1
 10
0.0
 20
0.0
 30
0.0
  0
VERTEX
  5
66F
  8
0
 62
     0
 10
23923.4593189129
 20
-8919.865013512717
 30
0.0
  0
VERTEX
  5
670
  8
0
 62
     0
 10
23744.45346439326
 20
-8861.225164618354
 30
0.0
  0
VERTEX
  5
671
  8
0
 62
     0
 10
23550.01607069091
 20
-8839.621009762537
 30
0.0
  0
VERTEX
  5
672
  8
0
 62
     0
 10
23475.94468261382
 20
-8784.067468704721
 30
0.0
  0
VERTEX
  5
673
  8
0
 62
     0
 10
23401.87329453673
 20
-8725.42761981036
 30
0.0
  0
VERTEX
  5
674
  8
0
 62
     0
 10
23358.66498482509
 20
-8796.412700050903
 30
0.0
  0
VERTEX
  5
675
  8
0
 62
     0
 10
23318.54298295
 20
-8870.484088127992
 30
0.0
  0
VERTEX
  5
676
  8
0
 62
     0
 10
23269.16205756528
 20
-8882.829319474173
 30
0.0
  0
VERTEX
  5
677
  8
0
 62
     0
 10
23225.95374785364
 20
-8805.671623560538
 30
0.0
  0
VERTEX
  5
678
  8
0
 62
     0
 10
23077.81097169946
 20
-8848.879933272174
 30
0.0
  0
VERTEX
  5
679
  8
0
 62
     0
 10
22969.79019742037
 20
-8861.225164618354
 30
0.0
  0
VERTEX
  5
67A
  8
0
 62
     0
 10
22911.15034852601
 20
-8743.945466829631
 30
0.0
  0
VERTEX
  5
67B
  8
0
 62
     0
 10
22821.6474212662
 20
-8753.204390339266
 30
0.0
  0
VERTEX
  5
67C
  8
0
 62
     0
 10
22861.76942314128
 20
-8833.448394089448
 30
0.0
  0
VERTEX
  5
67D
  8
0
 62
     0
 10
22772.26649588147
 20
-8870.484088127992
 30
0.0
  0
VERTEX
  5
67E
  8
0
 62
     0
 10
22670.41833727547
 20
-8833.448394089448
 30
0.0
  0
VERTEX
  5
67F
  8
0
 62
     0
 10
22506.84402193856
 20
-8793.326392214358
 30
0.0
  0
VERTEX
  5
680
  8
0
 62
     0
 10
22371.04647713057
 20
-8774.808545195085
 30
0.0
  0
VERTEX
  5
681
  8
0
 62
     0
 10
22337.09709092857
 20
-8722.341311973814
 30
0.0
  0
VERTEX
  5
682
  8
0
 62
     0
 10
22448.2041730442
 20
-8561.853304473454
 30
0.0
  0
VERTEX
  5
683
  8
0
 62
     0
 10
22448.2041730442
 20
-8389.020065626912
 30
0.0
  0
VERTEX
  5
684
  8
0
 62
     0
 10
22559.31125515984
 20
-8314.948677549823
 30
0.0
  0
VERTEX
  5
685
  8
0
 62
     0
 10
22642.64156674656
 20
-8407.537912646185
 30
0.0
  0
VERTEX
  5
686
  8
0
 62
     0
 10
22766.09388020838
 20
-8355.070679424913
 30
0.0
  0
VERTEX
  5
687
  8
0
 62
     0
 10
23074.72466386291
 20
-8305.689754040186
 30
0.0
  0
VERTEX
  5
688
  8
0
 62
     0
 10
23145.70974410346
 20
-8250.13621298237
 30
0.0
  0
VERTEX
  5
689
  8
0
 62
     0
 10
23216.694824344
 20
-8197.668979761098
 30
0.0
  0
VERTEX
  5
68A
  8
0
 62
     0
 10
23247.55790270945
 20
-8114.338668174373
 30
0.0
  0
VERTEX
  5
68B
  8
0
 62
     0
 10
23275.33467323837
 20
-8031.008356587648
 30
0.0
  0
VERTEX
  5
68C
  8
0
 62
     0
 10
23426.56375722909
 20
-8055.69881928001
 30
0.0
  0
VERTEX
  5
68D
  8
0
 62
     0
 10
23580.87914905636
 20
-8080.389281972374
 30
0.0
  0
VERTEX
  5
68E
  8
0
 62
     0
 10
23624.087458768
 20
-8203.841595434189
 30
0.0
  0
VERTEX
  5
68F
  8
0
 62
     0
 10
23691.986231172
 20
-8314.948677549823
 30
0.0
  0
VERTEX
  5
690
  8
0
 62
     0
 10
23766.05761924908
 20
-8302.60344620364
 30
0.0
  0
VERTEX
  5
691
  8
0
 62
     0
 10
23840.12900732617
 20
-8290.258214857458
 30
0.0
  0
VERTEX
  5
692
  8
0
 62
     0
 10
23843.21531516272
 20
-8441.487298848184
 30
0.0
  0
VERTEX
  5
693
  8
0
 62
     0
 10
23846.30162299926
 20
-8595.802690675453
 30
0.0
  0
VERTEX
  5
694
  8
0
 62
     0
 10
24016.04855400926
 20
-8703.823464954541
 30
0.0
  0
VERTEX
  5
695
  8
0
 62
     0
 10
24080.86101857671
 20
-8774.808545195085
 30
0.0
  0
VERTEX
  5
696
  8
0
 62
     0
 10
24065.42947939398
 20
-8842.707317599084
 30
0.0
  0
VERTEX
  5
697
  8
0
 62
     0
 10
24049.99794021125
 20
-8907.519782166537
 30
0.0
  0
VERTEX
  5
698
  8
0
 62
     0
 10
24071.60209506708
 20
-8978.50486240708
 30
0.0
  0
VERTEX
  5
699
  8
0
 62
     0
 10
23923.4593189129
 20
-8919.865013512717
 30
0.0
  0
SEQEND
  5
707
  8
0
 62
     0
  0
POLYLINE
  5
2EA
  8
0
 62
     0
 66
     1
 10
0.0
 20
0.0
 30
0.0
  0
VERTEX
  5
69A
  8
0
 62
     0
 10
21945.13599568731
 20
-9317.998724427072
 30
0.0
  0
VERTEX
  5
69B
  8
0
 62
     0
 10
21911.18660948531
 20
-9129.733946397804
 30
0.0
  0
VERTEX
  5
69C
  8
0
 62
     0
 10
21901.92768597567
 20
-9000.109017262897
 30
0.0
  0
VERTEX
  5
69D
  8
0
 62
     0
 10
21867.97829977367
 20
-8870.484088127992
 30
0.0
  0
VERTEX
  5
69E
  8
0
 62
     0
 10
21867.97829977367
 20
-8737.77285115654
 30
0.0
  0
VERTEX
  5
69F
  8
0
 62
     0
 10
21889.58245462949
 20
-8743.945466829631
 30
0.0
  0
VERTEX
  5
6A0
  8
0
 62
     0
 10
21926.61814866804
 20
-8737.77285115654
 30
0.0
  0
VERTEX
  5
6A1
  8
0
 62
     0
 10
21945.13599568731
 20
-8728.513927646905
 30
0.0
  0
VERTEX
  5
6A2
  8
0
 62
     0
 10
21985.2579975624
 20
-8722.341311973814
 30
0.0
  0
VERTEX
  5
6A3
  8
0
 62
     0
 10
21979.0853818893
 20
-8827.275778416355
 30
0.0
  0
VERTEX
  5
6A4
  8
0
 62
     0
 10
21969.82645837967
 20
-8938.38286053199
 30
0.0
  0
VERTEX
  5
6A5
  8
0
 62
     0
 10
21951.3086113604
 20
-9182.201179619075
 30
0.0
  0
VERTEX
  5
6A6
  8
0
 62
     0
 10
21945.13599568731
 20
-9317.998724427072
 30
0.0
  0
SEQEND
  5
708
  8
0
 62
     0
  0
POLYLINE
  5
2F9
  8
0
 62
     0
 66
     1
 10
0.0
 20
0.0
 30
0.0
  0
VERTEX
  5
6A7
  8
0
 62
     0
 10
21898.84137813912
 20
-9333.430263609798
 30
0.0
  0
VERTEX
  5
6A8
  8
0
 62
     0
 10
21852.54676059094
 20
-9333.430263609798
 30
0.0
  0
VERTEX
  5
6A9
  8
0
 62
     0
 10
21812.42475871585
 20
-9108.129791541985
 30
0.0
  0
VERTEX
  5
6AA
  8
0
 62
     0
 10
21738.35337063876
 20
-8947.641784041627
 30
0.0
  0
VERTEX
  5
6AB
  8
0
 62
     0
 10
21673.54090607131
 20
-8848.879933272174
 30
0.0
  0
VERTEX
  5
6AC
  8
0
 62
     0
 10
21661.19567472513
 20
-8762.463313848904
 30
0.0
  0
VERTEX
  5
6AD
  8
0
 62
     0
 10
21753.78490982149
 20
-8713.082388464176
 30
0.0
  0
VERTEX
  5
6AE
  8
0
 62
     0
 10
21775.38906467731
 20
-8774.808545195085
 30
0.0
  0
VERTEX
  5
6AF
  8
0
 62
     0
 10
21790.82060386004
 20
-8885.915627310718
 30
0.0
  0
VERTEX
  5
6B0
  8
0
 62
     0
 10
21824.76999006204
 20
-8987.763785916715
 30
0.0
  0
VERTEX
  5
6B1
  8
0
 62
     0
 10
21898.84137813912
 20
-9333.430263609798
 30
0.0
  0
SEQEND
  5
709
  8
0
 62
     0
  0
POLYLINE
  5
306
  8
0
 62
     0
 66
     1
 10
0.0
 20
0.0
 30
0.0
  0
VERTEX
  5
6B2
  8
0
 62
     0
 10
22707.45403131402
 20
-10197.5964578425
 30
0.0
  0
VERTEX
  5
6B3
  8
0
 62
     0
 10
22673.50464511202
 20
-9969.209677938148
 30
0.0
  0
VERTEX
  5
6B4
  8
0
 62
     0
 10
22775.35280371801
 20
-9620.456892408518
 30
0.0
  0
VERTEX
  5
6B5
  8
0
 62
     0
 10
22935.84081121837
 20
-9274.790414715437
 30
0.0
  0
VERTEX
  5
6B6
  8
0
 62
     0
 10
23065.46574035328
 20
-9046.403634811079
 30
0.0
  0
VERTEX
  5
6B7
  8
0
 62
     0
 10
23145.70974410346
 20
-8953.814399714716
 30
0.0
  0
VERTEX
  5
6B8
  8
0
 62
     0
 10
23210.52220867091
 20
-8929.123937022352
 30
0.0
  0
VERTEX
  5
6B9
  8
0
 62
     0
 10
23287.67990458455
 20
-8892.08824298381
 30
0.0
  0
VERTEX
  5
6BA
  8
0
 62
     0
 10
23367.92390833473
 20
-8901.347166493448
 30
0.0
  0
VERTEX
  5
6BB
  8
0
 62
     0
 10
23392.61437102709
 20
-8978.50486240708
 30
0.0
  0
VERTEX
  5
6BC
  8
0
 62
     0
 10
23380.26913968091
 20
-9064.921481830352
 30
0.0
  0
VERTEX
  5
6BD
  8
0
 62
     0
 10
23358.66498482509
 20
-9194.546410965257
 30
0.0
  0
VERTEX
  5
6BE
  8
0
 62
     0
 10
23321.62929078654
 20
-9243.927336349983
 30
0.0
  0
VERTEX
  5
6BF
  8
0
 62
     0
 10
23232.12636352673
 20
-9176.028563945983
 30
0.0
  0
VERTEX
  5
6C0
  8
0
 62
     0
 10
23170.40020679582
 20
-9209.977950147982
 30
0.0
  0
VERTEX
  5
6C1
  8
0
 62
     0
 10
23117.93297357455
 20
-9299.480877407797
 30
0.0
  0
VERTEX
  5
6C2
  8
0
 62
     0
 10
23099.41512655528
 20
-9401.329036013796
 30
0.0
  0
VERTEX
  5
6C3
  8
0
 62
     0
 10
23108.67405006492
 20
-9509.349810292884
 30
0.0
  0
VERTEX
  5
6C4
  8
0
 62
     0
 10
23108.67405006492
 20
-9601.939045389248
 30
0.0
  0
VERTEX
  5
6C5
  8
0
 62
     0
 10
23087.0698952091
 20
-9694.528280485607
 30
0.0
  0
VERTEX
  5
6C6
  8
0
 62
     0
 10
23093.24251088219
 20
-9790.203823418515
 30
0.0
  0
VERTEX
  5
6C7
  8
0
 62
     0
 10
23108.67405006492
 20
-9864.275211495604
 30
0.0
  0
VERTEX
  5
6C8
  8
0
 62
     0
 10
23074.72466386291
 20
-9907.48352120724
 30
0.0
  0
VERTEX
  5
6C9
  8
0
 62
     0
 10
23006.82589145892
 20
-9941.432907409238
 30
0.0
  0
VERTEX
  5
6CA
  8
0
 62
     0
 10
22932.75450338183
 20
-9978.468601447783
 30
0.0
  0
VERTEX
  5
6CB
  8
0
 62
     0
 10
22886.45988583365
 20
-10021.67691115942
 30
0.0
  0
VERTEX
  5
6CC
  8
0
 62
     0
 10
22812.38849775656
 20
-10098.83460707305
 30
0.0
  0
VERTEX
  5
6CD
  8
0
 62
     0
 10
22741.40341751602
 20
-10166.73337947705
 30
0.0
  0
VERTEX
  5
6CE
  8
0
 62
     0
 10
22707.45403131402
 20
-10197.5964578425
 30
0.0
  0
SEQEND
  5
70A
  8
0
 62
     0
  0
POLYLINE
  5
325
  8
0
 62
     0
 66
     1
 10
0.0
 20
0.0
 30
0.0
  0
VERTEX
  5
6CF
  8
0
 62
     0
 10
22624.12371972729
 20
-9805.63536260124
 30
0.0
  0
VERTEX
  5
6D0
  8
0
 62
     0
 10
22651.9004902562
 20
-9608.111661062338
 30
0.0
  0
VERTEX
  5
6D1
  8
0
 62
     0
 10
22707.45403131402
 20
-9290.221953898163
 30
0.0
  0
VERTEX
  5
6D2
  8
0
 62
     0
 10
22778.43911155456
 20
-9030.97209562835
 30
0.0
  0
VERTEX
  5
6D3
  8
0
 62
     0
 10
22800.04326641038
 20
-8922.951321349263
 30
0.0
  0
VERTEX
  5
6D4
  8
0
 62
     0
 10
22833.99265261238
 20
-8932.2102448589
 30
0.0
  0
VERTEX
  5
6D5
  8
0
 62
     0
 10
22858.68311530474
 20
-8935.296552695443
 30
0.0
  0
VERTEX
  5
6D6
  8
0
 62
     0
 10
22886.45988583365
 20
-8935.296552695443
 30
0.0
  0
VERTEX
  5
6D7
  8
0
 62
     0
 10
23062.37943251674
 20
-8889.001935147264
 30
0.0
  0
VERTEX
  5
6D8
  8
0
 62
     0
 10
22904.97773285292
 20
-9138.99286990744
 30
0.0
  0
VERTEX
  5
6D9
  8
0
 62
     0
 10
22809.30218992001
 20
-9330.343955773253
 30
0.0
  0
VERTEX
  5
6DA
  8
0
 62
     0
 10
22722.88557049674
 20
-9524.781349475614
 30
0.0
  0
VERTEX
  5
6DB
  8
0
 62
     0
 10
22624.12371972729
 20
-9805.63536260124
 30
0.0
  0
SEQEND
  5
70B
  8
0
 62
     0
  0
POLYLINE
  5
334
  8
0
 62
     0
 66
     1
 10
0.0
 20
0.0
 30
0.0
  0
VERTEX
  5
6DC
  8
0
 62
     0
 10
22596.34694919838
 20
-9503.177194619795
 30
0.0
  0
VERTEX
  5
6DD
  8
0
 62
     0
 10
22580.91541001566
 20
-9317.998724427072
 30
0.0
  0
VERTEX
  5
6DE
  8
0
 62
     0
 10
22577.82910217911
 20
-9237.754720676892
 30
0.0
  0
VERTEX
  5
6DF
  8
0
 62
     0
 10
22571.65648650602
 20
-9160.597024763258
 30
0.0
  0
VERTEX
  5
6E0
  8
0
 62
     0
 10
22562.39756299638
 20
-9086.525636686169
 30
0.0
  0
VERTEX
  5
6E1
  8
0
 62
     0
 10
22559.31125515984
 20
-9034.058403464896
 30
0.0
  0
VERTEX
  5
6E2
  8
0
 62
     0
 10
22559.31125515984
 20
-8984.677478080172
 30
0.0
  0
VERTEX
  5
6E3
  8
0
 62
     0
 10
22537.70710030402
 20
-8864.311472454901
 30
0.0
  0
VERTEX
  5
6E4
  8
0
 62
     0
 10
22747.57603318911
 20
-8904.433474329991
 30
0.0
  0
VERTEX
  5
6E5
  8
0
 62
     0
 10
22667.33202943893
 20
-9216.150565821074
 30
0.0
  0
VERTEX
  5
6E6
  8
0
 62
     0
 10
22596.34694919838
 20
-9503.177194619795
 30
0.0
  0
SEQEND
  5
70C
  8
0
 62
     0
  0
POLYLINE
  5
341
  8
0
 62
     0
 66
     1
 10
0.0
 20
0.0
 30
0.0
  0
VERTEX
  5
6E7
  8
0
 62
     0
 10
23420.391141556
 20
-9179.114871782529
 30
0.0
  0
VERTEX
  5
6E8
  8
0
 62
     0
 10
23417.30483371946
 20
-9117.38871505162
 30
0.0
  0
VERTEX
  5
6E9
  8
0
 62
     0
 10
23426.56375722909
 20
-9009.367940772536
 30
0.0
  0
VERTEX
  5
6EA
  8
0
 62
     0
 10
23441.99529641182
 20
-8913.692397839626
 30
0.0
  0
VERTEX
  5
6EB
  8
0
 62
     0
 10
23460.51314343109
 20
-8870.484088127992
 30
0.0
  0
VERTEX
  5
6EC
  8
0
 62
     0
 10
23571.62022554672
 20
-8889.001935147264
 30
0.0
  0
VERTEX
  5
6ED
  8
0
 62
     0
 10
23509.89406881581
 20
-9034.058403464896
 30
0.0
  0
VERTEX
  5
6EE
  8
0
 62
     0
 10
23479.03099045036
 20
-9120.475022888168
 30
0.0
  0
VERTEX
  5
6EF
  8
0
 62
     0
 10
23420.391141556
 20
-9179.114871782529
 30
0.0
  0
SEQEND
  5
70D
  8
0
 62
     0
  0
POLYLINE
  5
34C
  8
0
 62
     0
 66
     1
 10
0.0
 20
0.0
 30
0.0
  0
VERTEX
  5
6F0
  8
0
 62
     0
 10
23553.10237852745
 20
-9074.180405339986
 30
0.0
  0
VERTEX
  5
6F1
  8
0
 62
     0
 10
23621.00115093145
 20
-8898.260858656899
 30
0.0
  0
VERTEX
  5
6F2
  8
0
 62
     0
 10
23664.20946064308
 20
-8895.174550820353
 30
0.0
  0
VERTEX
  5
6F3
  8
0
 62
     0
 10
23688.89992333545
 20
-8904.433474329991
 30
0.0
  0
VERTEX
  5
6F4
  8
0
 62
     0
 10
23624.087458768
 20
-9030.97209562835
 30
0.0
  0
VERTEX
  5
6F5
  8
0
 62
     0
 10
23605.56961174872
 20
-9043.317326974531
 30
0.0
  0
VERTEX
  5
6F6
  8
0
 62
     0
 10
23590.13807256599
 20
-9052.57625048417
 30
0.0
  0
VERTEX
  5
6F7
  8
0
 62
     0
 10
23571.62022554672
 20
-9064.921481830352
 30
0.0
  0
VERTEX
  5
6F8
  8
0
 62
     0
 10
23553.10237852745
 20
-9074.180405339986
 30
0.0
  0
SEQEND
  5
70E
  8
0
 62
     0
  0
ENDSEC
  0
EOF
