  0
SECTION
  2
HEADER
  9
$ACADVER
  1
AC1009
  9
$DWGCODEPAGE
  3
ansi_1252
  9
$INSBASE
 10
-9.583536725091086
 20
28.66205874589525
 30
0.0
  9
$EXTMIN
 10
-11.85280244116235
 20
26.55176290929108
 30
0.0
  9
$EXTMAX
 10
-7.314271009019656
 20
30.77234461911942
 30
0.0
  9
$LIMMIN
 10
0.0
 20
0.0
  9
$LIMMAX
 10
12.0
 20
9.0
  9
$ORTHOMODE
 70
     0
  9
$REGENMODE
 70
     1
  9
$FILLMODE
 70
     1
  9
$QTEXTMODE
 70
     0
  9
$MIRRTEXT
 70
     1
  9
$DRAGMODE
 70
     2
  9
$LTSCALE
 40
1.0
  9
$OSMODE
 70
    37
  9
$ATTMODE
 70
     1
  9
$TEXTSIZE
 40
0.2
  9
$TRACEWID
 40
0.05
  9
$TEXTSTYLE
  7
STANDARD
  9
$CLAYER
  8
0
  9
$CELTYPE
  6
BYLAYER
  9
$CECOLOR
 62
   256
  9
$DIMSCALE
 40
1.0
  9
$DIMASZ
 40
0.18
  9
$DIMEXO
 40
0.0625
  9
$DIMDLI
 40
0.0
  9
$DIMRND
 40
0.0
  9
$DIMDLE
 40
0.0
  9
$DIMEXE
 40
0.18
  9
$DIMTP
 40
0.0
  9
$DIMTM
 40
0.0
  9
$DIMTXT
 40
0.18
  9
$DIMCEN
 40
0.09
  9
$DIMTSZ
 40
0.0
  9
$DIMTOL
 70
     0
  9
$DIMLIM
 70
     0
  9
$DIMTIH
 70
     0
  9
$DIMTOH
 70
     0
  9
$DIMSE1
 70
     1
  9
$DIMSE2
 70
     1
  9
$DIMTAD
 70
     1
  9
$DIMZIN
 70
     0
  9
$DIMBLK
  1

  9
$DIMASO
 70
     1
  9
$DIMSHO
 70
     1
  9
$DIMPOST
  1

  9
$DIMAPOST
  1

  9
$DIMALT
 70
     0
  9
$DIMALTD
 70
     2
  9
$DIMALTF
 40
25.4
  9
$DIMLFAC
 40
1.0
  9
$DIMTOFL
 70
     0
  9
$DIMTVP
 40
0.0
  9
$DIMTIX
 70
     1
  9
$DIMSOXD
 70
     0
  9
$DIMSAH
 70
     0
  9
$DIMBLK1
  1

  9
$DIMBLK2
  1

  9
$DIMSTYLE
  2
STANDARD
  9
$DIMCLRD
 70
     7
  9
$DIMCLRE
 70
     7
  9
$DIMCLRT
 70
     1
  9
$DIMTFAC
 40
1.0
  9
$DIMGAP
 40
0.09
  9
$LUNITS
 70
     2
  9
$LUPREC
 70
     2
  9
$SKETCHINC
 40
0.001
  9
$FILLETRAD
 40
0.0
  9
$AUNITS
 70
     0
  9
$AUPREC
 70
     0
  9
$MENU
  1
acad
  9
$ELEVATION
 40
0.0
  9
$PELEVATION
 40
0.0
  9
$THICKNESS
 40
0.0
  9
$LIMCHECK
 70
     0
  9
$CHAMFERA
 40
0.0
  9
$CHAMFERB
 40
0.0
  9
$SKPOLY
 70
     0
  9
$TDCREATE
 40
2450481.685316204
  9
$TDUPDATE
 40
2457464.593784722
  9
$TDINDWG
 40
0.0005408333
  9
$TDUSRTIMER
 40
0.0005408333
  9
$USRTIMER
 70
     1
  9
$ANGBASE
 50
0.0
  9
$ANGDIR
 70
     0
  9
$PDMODE
 70
     0
  9
$PDSIZE
 40
0.0
  9
$PLINEWID
 40
0.0
  9
$COORDS
 70
     1
  9
$SPLFRAME
 70
     0
  9
$SPLINETYPE
 70
     6
  9
$SPLINESEGS
 70
     8
  9
$ATTDIA
 70
     0
  9
$ATTREQ
 70
     1
  9
$HANDLING
 70
     1
  9
$HANDSEED
  5
1C0414A5
  9
$SURFTAB1
 70
     6
  9
$SURFTAB2
 70
     6
  9
$SURFTYPE
 70
     6
  9
$SURFU
 70
     6
  9
$SURFV
 70
     6
  9
$UCSNAME
  2

  9
$UCSORG
 10
0.0
 20
0.0
 30
0.0
  9
$UCSXDIR
 10
1.0
 20
0.0
 30
0.0
  9
$UCSYDIR
 10
0.0
 20
1.0
 30
0.0
  9
$PUCSNAME
  2

  9
$PUCSORG
 10
0.0
 20
0.0
 30
0.0
  9
$PUCSXDIR
 10
1.0
 20
0.0
 30
0.0
  9
$PUCSYDIR
 10
0.0
 20
1.0
 30
0.0
  9
$USERI1
 70
     0
  9
$USERI2
 70
     0
  9
$USERI3
 70
     0
  9
$USERI4
 70
     0
  9
$USERI5
 70
     0
  9
$USERR1
 40
0.0
  9
$USERR2
 40
0.0
  9
$USERR3
 40
0.0
  9
$USERR4
 40
0.0
  9
$USERR5
 40
0.0
  9
$WORLDVIEW
 70
     1
  9
$SHADEDGE
 70
     3
  9
$SHADEDIF
 70
    70
  9
$TILEMODE
 70
     1
  9
$MAXACTVP
 70
    16
  9
$PLIMCHECK
 70
     0
  9
$PEXTMIN
 10
1.000000000000000E+20
 20
1.000000000000000E+20
 30
1.000000000000000E+20
  9
$PEXTMAX
 10
-1.000000000000000E+20
 20
-1.000000000000000E+20
 30
-1.000000000000000E+20
  9
$PLIMMIN
 10
0.0
 20
0.0
  9
$PLIMMAX
 10
12.0
 20
9.0
  9
$UNITMODE
 70
     0
  9
$VISRETAIN
 70
     0
  9
$PLINEGEN
 70
     0
  9
$PSLTSCALE
 70
     1
  0
ENDSEC
  0
SECTION
  2
TABLES
  0
TABLE
  2
VPORT
 70
     1
  0
VPORT
  2
*ACTIVE
 70
     0
 10
0.0
 20
0.0
 11
1.0
 21
1.0
 12
-9.583299381397431
 22
29.0367569532538
 13
0.0
 23
0.0
 14
1.0
 24
1.0
 15
0.0
 25
0.0
 16
0.0
 26
0.0
 36
1.0
 17
0.0
 27
0.0
 37
0.0
 40
5.021451878215405
 41
1.503537735849057
 42
50.0
 43
0.0
 44
0.0
 50
0.0
 51
0.0
 71
     0
 72
   100
 73
     1
 74
     0
 75
     0
 76
     0
 77
     0
 78
     0
  0
ENDTAB
  0
TABLE
  2
LTYPE
 70
     1
  0
LTYPE
  2
CONTINUOUS
 70
     0
  3
Solid line
 72
    65
 73
     0
 40
0.0
  0
ENDTAB
  0
TABLE
  2
LAYER
 70
     1
  0
LAYER
  2
0
 70
     0
 62
     7
  6
CONTINUOUS
  0
ENDTAB
  0
TABLE
  2
STYLE
 70
     1
  0
STYLE
  2
STANDARD
 70
     0
 40
0.0
 41
1.0
 50
0.0
 71
     0
 42
0.2
  3
txt
  4

  0
ENDTAB
  0
TABLE
  2
VIEW
 70
     0
  0
ENDTAB
  0
TABLE
  2
UCS
 70
     0
  0
ENDTAB
  0
TABLE
  2
APPID
 70
     2
  0
APPID
  2
ACAD
 70
     0
  0
APPID
  2
DCO15
 70
     0
  0
ENDTAB
  0
TABLE
  2
DIMSTYLE
 70
     1
  0
DIMSTYLE
  2
STANDARD
 70
     0
  3

  4

  5

  6

  7

 40
1.0
 41
0.18
 42
0.0625
 43
0.38
 44
0.18
 45
0.0
 46
0.0
 47
0.0
 48
0.0
140
0.18
141
0.09
142
0.0
143
25.4
144
1.0
145
0.0
146
1.0
147
0.09
 71
     0
 72
     0
 73
     1
 74
     1
 75
     0
 76
     0
 77
     0
 78
     0
170
     0
171
     2
172
     0
173
     0
174
     0
175
     0
176
     0
177
     0
178
     0
  0
ENDTAB
  0
ENDSEC
  0
SECTION
  2
BLOCKS
  0
BLOCK
  8
0
  2
$MODEL_SPACE
 70
     0
 10
0.0
 20
0.0
 30
0.0
  3
$MODEL_SPACE
  1

  0
ENDBLK
  5
1C04143E
  8
0
  0
BLOCK
 67
     1
  8
0
  2
$PAPER_SPACE
 70
     0
 10
0.0
 20
0.0
 30
0.0
  3
$PAPER_SPACE
  1

  0
ENDBLK
  5
1C04143C
 67
     1
  8
0
  0
ENDSEC
  0
SECTION
  2
ENTITIES
  0
LINE
  5
1C0413E1
  8
0
 10
-10.35084628880492
 20
28.21401825054721
 30
0.0
 11
-11.09886238704565
 21
27.94107085628197
 31
0.0
  0
LINE
  5
1C0413EB
  8
0
 10
-10.35084628880492
 20
28.21401825054721
 30
0.0
 11
-11.04010152411724
 21
27.81532590818534
 31
0.0
  0
LINE
  5
1C0413EC
  8
0
 10
-10.35084628880492
 20
28.21401825054721
 30
0.0
 11
-10.96039798964382
 21
27.7016950251633
 31
0.0
  0
LINE
  5
1C0413D2
  8
0
 10
-10.77011385990551
 20
28.6620587458953
 30
0.0
 11
-11.31292967026543
 21
27.72527251245261
 31
0.0
  0
LINE
  5
1C0413D3
  8
0
 10
-10.77011385990551
 20
28.6620587458953
 30
0.0
 11
-11.46735430070635
 21
27.83376337656363
 31
0.0
  0
LINE
  5
1C0413E5
  8
0
 10
-10.17682529249829
 20
27.63445280359621
 30
0.0
 11
-11.11435746706594
 21
27.09292637506771
 31
0.0
  0
LINE
  5
1C0413E6
  8
0
 10
-10.17682529249829
 20
27.63445280359621
 30
0.0
 11
-11.24303030538881
 21
27.44623930346551
 31
0.0
  0
LINE
  5
1C0413E7
  8
0
 10
-10.17682529249829
 20
27.63445280359621
 30
0.0
 11
-11.19414932418341
 21
27.26395413193816
 31
0.0
  0
LINE
  5
1C0413E8
  8
0
 10
-10.17682529249829
 20
27.63445280359621
 30
0.0
 11
-11.25951518680342
 21
27.63424324695372
 31
0.0
  0
LINE
  5
1C0413F5
  8
0
 10
-10.17682529249829
 20
27.63445280359621
 30
0.0
 11
-11.0060791692385
 21
26.93835262470255
 31
0.0
  0
LINE
  5
1C0413F6
  8
0
 10
-10.77011385990551
 20
28.6620587458953
 30
0.0
 11
-11.46475102946665
 21
29.49253851916401
 31
0.0
  0
LINE
  5
1C0413F7
  8
0
 10
-10.77011385990551
 20
28.6620587458953
 30
0.0
 11
-11.30998663080243
 21
29.60054414396418
 31
0.0
  0
LINE
  5
1C0413FA
  8
0
 10
-10.35520595784357
 20
29.1025480729643
 30
0.0
 11
-11.04511127227943
 21
29.5001144452552
 31
0.0
  0
LINE
  5
1C0413FC
  8
0
 10
-10.35520595784357
 20
29.1025480729643
 30
0.0
 11
-10.96559338429439
 21
29.61387531934783
 31
0.0
  0
LINE
  5
1C0413D0
  8
0
 10
-10.77011385990551
 20
28.6620587458953
 30
0.0
 11
-11.59840922923718
 21
29.35929918669617
 31
0.0
  0
LINE
  5
1C0413D4
  8
0
 10
-10.77011385990551
 20
28.6620587458953
 30
0.0
 11
-11.70690009334817
 21
29.20487455625524
 31
0.0
  0
LINE
  5
1C0413D6
  8
0
 10
-10.77011385990551
 20
28.6620587458953
 30
0.0
 11
-11.83605891198415
 21
28.85173899550886
 31
0.0
  0
LINE
  5
1C0413D7
  8
0
 10
-10.77011385990551
 20
28.6620587458953
 30
0.0
 11
-11.78692718179276
 21
29.0339567420946
 31
0.0
  0
LINE
  5
1C0413D8
  8
0
 10
-10.77011385990551
 20
28.6620587458953
 30
0.0
 11
-11.78808947885074
 21
28.29335413461748
 31
0.0
  0
LINE
  5
1C0413D9
  8
0
 10
-10.77011385990551
 20
28.6620587458953
 30
0.0
 11
-11.83664902566591
 21
28.47572519727677
 31
0.0
  0
LINE
  5
1C0413DA
  8
0
 10
-10.77011385990551
 20
28.6620587458953
 30
0.0
 11
-11.85280244116235
 21
28.66375791052149
 31
0.0
  0
LINE
  5
1C0413D1
  8
0
 10
-10.77011385990551
 20
28.6620587458953
 30
0.0
 11
-11.60059363317425
 21
27.96742157633414
 31
0.0
  0
LINE
  5
1C0413D5
  8
0
 10
-10.77011385990551
 20
28.6620587458953
 30
0.0
 11
-11.70859925797436
 21
28.12218597499835
 31
0.0
  0
LINE
  5
1C0413DB
  8
0
 10
-10.35520595784357
 20
29.1025480729643
 30
0.0
 11
-11.10366673639425
 21
29.37427371811881
 31
0.0
  0
LINE
  5
1C0413DC
  8
0
 10
-10.35520595784357
 20
29.1025480729643
 30
0.0
 11
-11.13948059849236
 21
29.24017674475419
 31
0.0
  0
LINE
  5
1C0413DD
  8
0
 10
-10.35520595784357
 20
29.1025480729643
 30
0.0
 11
-11.1514646724964
 21
29.1018979938407
 31
0.0
  0
LINE
  5
1C0413DE
  8
0
 10
-10.35520595784357
 20
29.1025480729643
 30
0.0
 11
-11.13925482838204
 21
28.96363899525246
 31
0.0
  0
LINE
  5
1C0413DF
  8
0
 10
-10.35520595784357
 20
29.1025480729643
 30
0.0
 11
-11.1032220560843
 21
28.8296006786991
 31
0.0
  0
LINE
  5
1C0413EA
  8
0
 10
-10.35520595784357
 20
29.1025480729643
 30
0.0
 11
-11.04446119315589
 21
28.70385573060243
 31
0.0
  0
LINE
  5
1C0413E0
  8
0
 10
-10.35084628880492
 20
28.21401825054721
 30
0.0
 11
-11.13489515934339
 21
28.07510917283539
 31
0.0
  0
LINE
  5
1C0413E4
  8
0
 10
-10.35084628880492
 20
28.21401825054721
 30
0.0
 11
-11.14710500345775
 21
28.21336817142363
 31
0.0
  0
LINE
  5
1C0413E2
  8
0
 10
-10.35084628880492
 20
28.21401825054721
 30
0.0
 11
-11.09930706735566
 21
28.48574389570168
 31
0.0
  0
LINE
  5
1C0413E3
  8
0
 10
-10.35084628880492
 20
28.21401825054721
 30
0.0
 11
-11.13512092945366
 21
28.35164692233712
 31
0.0
  0
LINE
  5
1C0413F0
  8
0
 10
-10.35084628880492
 20
28.21401825054721
 30
0.0
 11
-11.04075160324079
 21
28.61158462283813
 31
0.0
  0
LINE
  5
1C0413BF
  8
0
 10
-10.17682529249829
 20
29.68966468819439
 30
0.0
 11
-11.25950522342328
 21
29.69431423834879
 31
0.0
  0
LINE
  5
1C0413C0
  8
0
 10
-10.17682529249829
 20
29.68966468819439
 30
0.0
 11
-11.24224949659266
 21
29.88224899823611
 31
0.0
  0
LINE
  5
1C0413C1
  8
0
 10
-10.17682529249829
 20
29.68966468819439
 30
0.0
 11
-11.1926213944513
 21
30.06433218131524
 31
0.0
  0
LINE
  5
1C0413C2
  8
0
 10
-10.17682529249829
 20
29.68966468819439
 30
0.0
 11
-11.11212884176974
 21
30.23503128220678
 31
0.0
  0
LINE
  5
1C0413C4
  8
0
 10
-10.17682529249829
 20
29.68966468819439
 30
0.0
 11
-11.00321756402997
 21
30.38915969510804
 31
0.0
  0
LINE
  5
1C0413F8
  8
0
 10
-9.583536725091001
 20
28.6620587458953
 30
0.0
 11
-10.17682529249823
 21
29.68966468819442
 31
0.0
  0
LINE
  5
1C0413C9
  8
0
 10
-10.35520595814723
 20
29.10254807301757
 30
0.0
 11
-9.583536725091001
 21
28.6620587458953
 31
0.0
  0
LINE
  5
1C0413A7
  8
0
 10
-8.396959590276545
 20
28.6620587458953
 30
0.0
 11
-7.857086819379624
 21
29.60054414396418
 31
0.0
  0
LINE
  5
1C0413A8
  8
0
 10
-8.396959590276545
 20
28.6620587458953
 30
0.0
 11
-7.702322420715355
 21
29.49253851916401
 31
0.0
  0
LINE
  5
1C0413F9
  8
0
 10
-9.579177055946737
 20
29.55058856860196
 30
0.0
 11
-9.583536725091058
 21
28.6620587458953
 31
0.0
  0
LINE
  5
1C041401
  8
0
 10
-9.583536725091058
 20
28.6620587458953
 30
0.0
 11
-8.990248157683773
 21
29.68966468819442
 31
0.0
  0
LINE
  5
1C041385
  8
0
 10
-8.811867492338429
 20
29.1025480729643
 30
0.0
 11
-8.12261225702617
 21
28.70385573060243
 31
0.0
  0
LINE
  5
1C041386
  8
0
 10
-8.811867492338429
 20
29.1025480729643
 30
0.0
 11
-8.06385139409776
 21
28.8296006786991
 31
0.0
  0
LINE
  5
1C041387
  8
0
 10
-8.811867492338429
 20
29.1025480729643
 30
0.0
 11
-8.027818621800016
 21
28.96363899525246
 31
0.0
  0
LINE
  5
1C041407
  8
0
 10
-8.811867492034828
 20
29.10254807301757
 30
0.0
 11
-9.583536725091001
 21
28.6620587458953
 31
0.0
  0
LINE
  5
1C04139E
  8
0
 10
-8.396959590276545
 20
28.6620587458953
 30
0.0
 11
-7.568664220944875
 21
29.35929918669617
 31
0.0
  0
LINE
  5
1C0413A5
  8
0
 10
-8.396959590276545
 20
28.6620587458953
 30
0.0
 11
-7.460173356833828
 21
29.20487455625524
 31
0.0
  0
LINE
  5
1C041402
  8
0
 10
-9.583536725091001
 20
28.6620587458953
 30
0.0
 11
-8.990248157683773
 21
27.63445280359618
 31
0.0
  0
LINE
  5
1C041403
  8
0
 10
-8.990248157683773
 20
27.63445280359621
 30
0.0
 11
-9.531774586212244
 21
26.69692062902848
 31
0.0
  0
LINE
  5
1C041404
  8
0
 10
-8.990248157683773
 20
27.63445280359621
 30
0.0
 11
-9.360746829341856
 21
26.61712877191109
 31
0.0
  0
LINE
  5
1C041405
  8
0
 10
-8.990248157683773
 20
27.63445280359621
 30
0.0
 11
-9.178461657814474
 21
26.56824779070563
 31
0.0
  0
LINE
  5
1C041406
  8
0
 10
-8.81622716117915
 20
28.21401825031088
 30
0.0
 11
-9.583536725091001
 21
28.6620587458953
 31
0.0
  0
LINE
  5
1C04141A
  8
0
 10
-9.5802406995514
 20
27.88430134518124
 30
0.0
 11
-9.071745209566554
 21
27.27155286502934
 31
0.0
  0
LINE
  5
1C04141B
  8
0
 10
-9.5802406995514
 20
27.88430134518124
 30
0.0
 11
-8.973067741695996
 21
27.36916120646895
 31
0.0
  0
LINE
  5
1C04141C
  8
0
 10
-9.5802406995514
 20
27.88430134518124
 30
0.0
 11
-8.892838916905578
 21
27.48242182034981
 31
0.0
  0
LINE
  5
1C041408
  8
0
 10
-8.396959590276545
 20
28.6620587458953
 30
0.0
 11
-9.583536725091001
 21
28.6620587458953
 31
0.0
  0
LINE
  5
1C0413C8
  8
0
 10
-9.583536725091001
 20
28.6620587458953
 30
0.0
 11
-10.17682529249823
 21
27.63445280359618
 31
0.0
  0
LINE
  5
1C0413CE
  8
0
 10
-10.35084628880492
 20
28.21401825054721
 30
0.0
 11
-10.35019620968138
 21
27.41775953589441
 31
0.0
  0
LINE
  5
1C0413ED
  8
0
 10
-10.35084628880492
 20
28.21401825054721
 30
0.0
 11
-10.86217353518851
 21
27.60363082409642
 31
0.0
  0
LINE
  5
1C0413EE
  8
0
 10
-10.35084628880492
 20
28.21401825054721
 30
0.0
 11
-10.74841266109588
 21
27.52411293611137
 31
0.0
  0
LINE
  5
1C0413EF
  8
0
 10
-10.35084628880492
 20
28.21401825054721
 30
0.0
 11
-10.62257193395948
 21
27.4655574719965
 31
0.0
  0
LINE
  5
1C0413F1
  8
0
 10
-10.35084628880492
 20
28.21401825054721
 30
0.0
 11
-10.48847496059484
 21
27.42974360989844
 31
0.0
  0
LINE
  5
1C0413C7
  8
0
 10
-10.17682529249829
 20
27.63445280359621
 30
0.0
 11
-9.635298863969759
 21
26.69692062902848
 31
0.0
  0
LINE
  5
1C0413CC
  8
0
 10
-10.17682529249829
 20
27.63445280359621
 30
0.0
 11
-9.806326620840203
 21
26.61712877191109
 31
0.0
  0
LINE
  5
1C0413CB
  8
0
 10
-10.17682529249829
 20
27.63445280359621
 30
0.0
 11
-9.988611792367585
 21
26.56824779070563
 31
0.0
  0
LINE
  5
1C0413CD
  8
0
 10
-10.17682529249829
 20
27.63445280359621
 30
0.0
 11
-10.17661573585577
 21
26.55176290929108
 31
0.0
  0
LINE
  5
1C0413CF
  8
0
 10
-10.17682529249829
 20
27.63445280359621
 30
0.0
 11
-10.36462604661654
 21
26.56817501244745
 31
0.0
  0
LINE
  5
1C0413F2
  8
0
 10
-10.17682529249829
 20
27.63445280359621
 30
0.0
 11
-10.71798875827495
 21
26.69671107238604
 31
0.0
  0
LINE
  5
1C0413F3
  8
0
 10
-10.17682529249829
 20
27.63445280359621
 30
0.0
 11
-10.54693012649518
 21
26.6169854267253
 31
0.0
  0
LINE
  5
1C0413F4
  8
0
 10
-10.17682529249829
 20
27.63445280359621
 30
0.0
 11
-10.87260441198897
 21
26.80492952602935
 31
0.0
  0
LINE
  5
1C0413CA
  8
0
 10
-10.35084628900291
 20
28.21401825031088
 30
0.0
 11
-9.583536725091001
 21
28.6620587458953
 31
0.0
  0
LINE
  5
1C0413E9
  8
0
 10
-10.77011385990551
 20
28.6620587458953
 30
0.0
 11
-9.583536725091001
 21
28.6620587458953
 31
0.0
  0
LINE
  5
1C04140F
  8
0
 10
-9.580240699447547
 20
27.88430134489096
 30
0.0
 11
-9.5790353265286
 21
28.77284104554048
 31
0.0
  0
LINE
  5
1C041410
  8
0
 10
-9.5802406995514
 20
27.88430134518124
 30
0.0
 11
-10.27197946863915
 21
27.48993370121893
 31
0.0
  0
LINE
  5
1C041411
  8
0
 10
-9.5802406995514
 20
27.88430134518124
 30
0.0
 11
-10.19298917970324
 21
27.37580585519633
 31
0.0
  0
LINE
  5
1C041412
  8
0
 10
-9.5802406995514
 20
27.88430134518124
 30
0.0
 11
-10.09538083826368
 21
27.27712838732586
 31
0.0
  0
LINE
  5
1C041413
  8
0
 10
-9.5802406995514
 20
27.88430134518124
 30
0.0
 11
-9.982120224382822
 21
27.19689956253538
 31
0.0
  0
LINE
  5
1C041414
  8
0
 10
-9.5802406995514
 20
27.88430134518124
 30
0.0
 11
-9.856648704500802
 21
27.13755709306858
 31
0.0
  0
LINE
  5
1C041415
  8
0
 10
-9.5802406995514
 20
27.88430134518124
 30
0.0
 11
-9.722778667257575
 21
27.10090406983134
 31
0.0
  0
LINE
  5
1C041416
  8
0
 10
-9.5802406995514
 20
27.88430134518124
 30
0.0
 11
-9.584577685993327
 21
27.08805417638751
 31
0.0
  0
LINE
  5
1C041417
  8
0
 10
-9.5802406995514
 20
27.88430134518124
 30
0.0
 11
-9.446244927590644
 21
27.09939785024699
 31
0.0
  0
LINE
  5
1C041418
  8
0
 10
-9.5802406995514
 20
27.88430134518124
 30
0.0
 11
-9.311983562913841
 21
27.13459041961963
 31
0.0
  0
LINE
  5
1C041419
  8
0
 10
-9.5802406995514
 20
27.88430134518124
 30
0.0
 11
-9.185873055589138
 21
27.19256257609348
 31
0.0
  0
LINE
  5
1C041382
  8
0
 10
-8.816227161377078
 20
28.21401825054721
 30
0.0
 11
-8.06821106313641
 21
27.94107085628197
 31
0.0
  0
LINE
  5
1C041384
  8
0
 10
-8.816227161377078
 20
28.21401825054721
 30
0.0
 11
-8.126971926064819
 21
27.81532590818534
 31
0.0
  0
LINE
  5
1C041392
  8
0
 10
-8.816227161377078
 20
28.21401825054721
 30
0.0
 11
-8.81687724050068
 21
27.41775953589441
 31
0.0
  0
LINE
  5
1C041393
  8
0
 10
-8.816227161377078
 20
28.21401825054721
 30
0.0
 11
-8.678598489587166
 21
27.42974360989844
 31
0.0
  0
LINE
  5
1C041394
  8
0
 10
-8.816227161377078
 20
28.21401825054721
 30
0.0
 11
-8.544501516222574
 21
27.4655574719965
 31
0.0
  0
LINE
  5
1C041395
  8
0
 10
-8.816227161377078
 20
28.21401825054721
 30
0.0
 11
-8.418660789086182
 21
27.52411293611137
 31
0.0
  0
LINE
  5
1C041396
  8
0
 10
-8.816227161377078
 20
28.21401825054721
 30
0.0
 11
-8.304899914993548
 21
27.60363082409642
 31
0.0
  0
LINE
  5
1C041397
  8
0
 10
-8.816227161377078
 20
28.21401825054721
 30
0.0
 11
-8.206675460538186
 21
27.7016950251633
 31
0.0
  0
LINE
  5
1C04138B
  8
0
 10
-8.396959590276545
 20
28.6620587458953
 30
0.0
 11
-7.699719149475705
 21
27.83376337656363
 31
0.0
  0
LINE
  5
1C04138C
  8
0
 10
-8.396959590276545
 20
28.6620587458953
 30
0.0
 11
-7.854143779916576
 21
27.72527251245261
 31
0.0
  0
LINE
  5
1C04138D
  8
0
 10
-8.990248157683773
 20
27.63445280359621
 30
0.0
 11
-7.90755826337864
 21
27.63424324695372
 31
0.0
  0
LINE
  5
1C04138E
  8
0
 10
-8.990248157683773
 20
27.63445280359621
 30
0.0
 11
-7.972924125998652
 21
27.26395413193816
 31
0.0
  0
LINE
  5
1C04138F
  8
0
 10
-8.990248157683773
 20
27.63445280359621
 30
0.0
 11
-7.924043144793195
 21
27.44623930346551
 31
0.0
  0
LINE
  5
1C041390
  8
0
 10
-8.990248157683773
 20
27.63445280359621
 30
0.0
 11
-8.160994280943562
 21
26.93835262470255
 31
0.0
  0
LINE
  5
1C041391
  8
0
 10
-8.990248157683773
 20
27.63445280359621
 30
0.0
 11
-8.052715983116066
 21
27.09292637506771
 31
0.0
  0
LINE
  5
1C041399
  8
0
 10
-8.990248157683773
 20
27.63445280359621
 30
0.0
 11
-8.294469038193093
 21
26.80492952602935
 31
0.0
  0
LINE
  5
1C04139B
  8
0
 10
-8.990248157683773
 20
27.63445280359621
 30
0.0
 11
-8.44908469190711
 21
26.69671107238604
 31
0.0
  0
LINE
  5
1C041398
  8
0
 10
-8.990248157683773
 20
27.63445280359621
 30
0.0
 11
-8.990457714326233
 21
26.55176290929108
 31
0.0
  0
LINE
  5
1C04139A
  8
0
 10
-8.990248157683773
 20
27.63445280359621
 30
0.0
 11
-8.620143323686825
 21
26.6169854267253
 31
0.0
  0
LINE
  5
1C04139C
  8
0
 10
-8.990248157683773
 20
27.63445280359621
 30
0.0
 11
-8.802447403565516
 21
26.56817501244745
 31
0.0
  0
LINE
  5
1C04137E
  8
0
 10
-8.816227161377078
 20
28.21401825054721
 30
0.0
 11
-8.019968446724313
 21
28.21336817142363
 31
0.0
  0
LINE
  5
1C041383
  8
0
 10
-8.816227161377078
 20
28.21401825054721
 30
0.0
 11
-8.032178290838608
 21
28.07510917283539
 31
0.0
  0
LINE
  5
1C04137F
  8
0
 10
-8.816227161377078
 20
28.21401825054721
 30
0.0
 11
-8.031952520728346
 21
28.35164692233712
 31
0.0
  0
LINE
  5
1C041380
  8
0
 10
-8.816227161377078
 20
28.21401825054721
 30
0.0
 11
-8.067766382826399
 21
28.48574389570168
 31
0.0
  0
LINE
  5
1C041381
  8
0
 10
-8.816227161377078
 20
28.21401825054721
 30
0.0
 11
-8.126321846941273
 21
28.61158462283813
 31
0.0
  0
LINE
  5
1C04139D
  8
0
 10
-8.396959590276545
 20
28.6620587458953
 30
0.0
 11
-7.56647981700781
 21
27.96742157633414
 31
0.0
  0
LINE
  5
1C04139F
  8
0
 10
-8.396959590276545
 20
28.6620587458953
 30
0.0
 11
-7.314271009019656
 21
28.66375791052149
 31
0.0
  0
LINE
  5
1C0413A0
  8
0
 10
-8.396959590276545
 20
28.6620587458953
 30
0.0
 11
-7.330424424516089
 21
28.47572519727677
 31
0.0
  0
LINE
  5
1C0413A1
  8
0
 10
-8.396959590276545
 20
28.6620587458953
 30
0.0
 11
-7.378983971331316
 21
28.29335413461748
 31
0.0
  0
LINE
  5
1C0413A2
  8
0
 10
-8.396959590276545
 20
28.6620587458953
 30
0.0
 11
-7.458474192207639
 21
28.12218597499835
 31
0.0
  0
LINE
  5
1C0413A3
  8
0
 10
-8.396959590276545
 20
28.6620587458953
 30
0.0
 11
-7.380146268389247
 21
29.0339567420946
 31
0.0
  0
LINE
  5
1C0413A4
  8
0
 10
-8.396959590276545
 20
28.6620587458953
 30
0.0
 11
-7.331014538197856
 21
28.85173899550886
 31
0.0
  0
LINE
  5
1C0413BA
  8
0
 10
-9.579177056052409
 20
29.55058856831237
 30
0.0
 11
-9.0668538306685
 21
30.16014026915126
 31
0.0
  0
LINE
  5
1C041409
  8
0
 10
-9.579177056052409
 20
29.55058856831237
 30
0.0
 11
-8.968789629601652
 21
30.06191581469593
 31
0.0
  0
LINE
  5
1C04140A
  8
0
 10
-8.990248157683773
 20
29.68966468819439
 30
0.0
 11
-9.535614751696137
 21
30.62496823746581
 31
0.0
  0
LINE
  5
1C04140B
  8
0
 10
-8.990248157683773
 20
29.68966468819439
 30
0.0
 11
-9.364915650804626
 21
30.70546079014743
 31
0.0
  0
LINE
  5
1C04140C
  8
0
 10
-8.990248157683773
 20
29.68966468819439
 30
0.0
 11
-9.182832467725525
 21
30.75508889228879
 31
0.0
  0
LINE
  5
1C04140D
  8
0
 10
-9.579177056052409
 20
29.55058856831237
 30
0.0
 11
-8.889271741616604
 21
29.9481549406033
 31
0.0
  0
LINE
  5
1C0413AF
  8
0
 10
-10.17682529249829
 20
29.68966468819439
 30
0.0
 11
-9.631458698485922
 21
30.62496823746581
 31
0.0
  0
LINE
  5
1C0413B2
  8
0
 10
-9.587896394129594
 20
29.55058856831237
 30
0.0
 11
-9.986588736491463
 21
30.23984380362466
 31
0.0
  0
LINE
  5
1C0413B3
  8
0
 10
-9.587896394129594
 20
29.55058856831237
 30
0.0
 11
-10.1002196195135
 21
30.16014026915126
 31
0.0
  0
LINE
  5
1C0413B4
  8
0
 10
-9.587896394129594
 20
29.55058856831237
 30
0.0
 11
-10.19828382058035
 21
30.06191581469593
 31
0.0
  0
LINE
  5
1C0413B5
  8
0
 10
-9.587896394129594
 20
29.55058856831237
 30
0.0
 11
-10.27780170856546
 21
29.9481549406033
 31
0.0
  0
LINE
  5
1C0413B7
  8
0
 10
-10.17682529249829
 20
29.68966468819439
 30
0.0
 11
-9.802157799377433
 21
30.70546079014743
 31
0.0
  0
LINE
  5
1C0413FB
  8
0
 10
-10.35520595784357
 20
29.1025480729643
 30
0.0
 11
-10.86752918322754
 21
29.7120997738032
 31
0.0
  0
LINE
  5
1C0413FD
  8
0
 10
-10.35520595784357
 20
29.1025480729643
 30
0.0
 11
-10.35585603696718
 21
29.89880678761704
 31
0.0
  0
LINE
  5
1C0413FE
  8
0
 10
-10.35520595784357
 20
29.1025480729643
 30
0.0
 11
-10.49411503555542
 21
29.88659694350272
 31
0.0
  0
LINE
  5
1C0413FF
  8
0
 10
-10.35520595784357
 20
29.1025480729643
 30
0.0
 11
-10.62815335210878
 21
29.85056417120497
 31
0.0
  0
LINE
  5
1C041400
  8
0
 10
-10.35520595784357
 20
29.1025480729643
 30
0.0
 11
-10.75389830020544
 21
29.79180330827656
 31
0.0
  0
LINE
  5
1C0413B6
  8
0
 10
-10.17682529249829
 20
29.68966468819439
 30
0.0
 11
-9.984240982456477
 21
30.75508889228879
 31
0.0
  0
LINE
  5
1C0413B8
  8
0
 10
-10.17682529249829
 20
29.68966468819439
 30
0.0
 11
-10.17217574234389
 21
30.77234461911942
 31
0.0
  0
LINE
  5
1C0413B9
  8
0
 10
-10.17682529249829
 20
29.68966468819439
 30
0.0
 11
-10.36025177645991
 21
30.75670366411136
 31
0.0
  0
LINE
  5
1C0413C3
  8
0
 10
-10.17682529249829
 20
29.68966468819439
 30
0.0
 11
-10.54275448967901
 21
30.70864126976783
 31
0.0
  0
LINE
  5
1C0413C5
  8
0
 10
-10.17682529249829
 20
29.68966468819439
 30
0.0
 11
-10.86919677529438
 21
30.52203430618581
 31
0.0
  0
LINE
  5
1C0413C6
  8
0
 10
-10.17682529249829
 20
29.68966468819439
 30
0.0
 11
-10.71413862941092
 21
30.62961778762024
 31
0.0
  0
LINE
  5
1C0413B0
  8
0
 10
-9.587896394129594
 20
29.55058856831237
 30
0.0
 11
-9.72680547184138
 21
30.33463743885081
 31
0.0
  0
LINE
  5
1C0413B1
  8
0
 10
-9.587896394129594
 20
29.55058856831237
 30
0.0
 11
-9.860843788394796
 21
30.29860466655307
 31
0.0
  0
LINE
  5
1C0413BB
  8
0
 10
-9.579177056052409
 20
29.55058856831237
 30
0.0
 11
-9.18048471369054
 21
30.23984380362466
 31
0.0
  0
LINE
  5
1C0413BC
  8
0
 10
-9.579177056052409
 20
29.55058856831237
 30
0.0
 11
-9.306229661787206
 21
30.29860466655307
 31
0.0
  0
LINE
  5
1C0413BD
  8
0
 10
-9.579177056052409
 20
29.55058856831237
 30
0.0
 11
-9.440267978340621
 21
30.33463743885081
 31
0.0
  0
LINE
  5
1C0413BE
  8
0
 10
-9.579177056052409
 20
29.55058856831237
 30
0.0
 11
-9.578526976928863
 21
30.34684728296516
 31
0.0
  0
LINE
  5
1C0413A6
  8
0
 10
-8.811867492338429
 20
29.1025480729643
 30
0.0
 11
-8.121962177902624
 21
29.5001144452552
 31
0.0
  0
LINE
  5
1C0413AD
  8
0
 10
-8.811867492338429
 20
29.1025480729643
 30
0.0
 11
-8.201480065887672
 21
29.61387531934783
 31
0.0
  0
LINE
  5
1C0413AE
  8
0
 10
-8.811867492338429
 20
29.1025480729643
 30
0.0
 11
-8.29954426695452
 21
29.7120997738032
 31
0.0
  0
LINE
  5
1C0413A9
  8
0
 10
-8.811867492338429
 20
29.1025480729643
 30
0.0
 11
-8.41317514997656
 21
29.79180330827656
 31
0.0
  0
LINE
  5
1C0413AA
  8
0
 10
-8.811867492338429
 20
29.1025480729643
 30
0.0
 11
-8.538920098073284
 21
29.85056417120497
 31
0.0
  0
LINE
  5
1C0413AB
  8
0
 10
-8.811867492338429
 20
29.1025480729643
 30
0.0
 11
-8.672958414626585
 21
29.88659694350272
 31
0.0
  0
LINE
  5
1C0413AC
  8
0
 10
-8.811867492338429
 20
29.1025480729643
 30
0.0
 11
-8.811217413214884
 21
29.89880678761704
 31
0.0
  0
LINE
  5
1C041388
  8
0
 10
-8.811867492338429
 20
29.1025480729643
 30
0.0
 11
-8.015608777685664
 21
29.1018979938407
 31
0.0
  0
LINE
  5
1C041389
  8
0
 10
-8.811867492338429
 20
29.1025480729643
 30
0.0
 11
-8.027592851689697
 21
29.24017674475419
 31
0.0
  0
LINE
  5
1C04138A
  8
0
 10
-8.811867492338429
 20
29.1025480729643
 30
0.0
 11
-8.06340671378775
 21
29.37427371811881
 31
0.0
  0
LINE
  5
1C041378
  8
0
 10
-8.990248157683773
 20
29.68966468819439
 30
0.0
 11
-7.90756822675872
 21
29.69431423834879
 31
0.0
  0
LINE
  5
1C041374
  8
0
 10
-8.990248157683773
 20
29.68966468819439
 30
0.0
 11
-8.163855886152085
 21
30.38915969510804
 31
0.0
  0
LINE
  5
1C041375
  8
0
 10
-8.990248157683773
 20
29.68966468819439
 30
0.0
 11
-8.05494460841232
 21
30.23503128220678
 31
0.0
  0
LINE
  5
1C041376
  8
0
 10
-8.990248157683773
 20
29.68966468819439
 30
0.0
 11
-7.974452055730758
 21
30.06433218131524
 31
0.0
  0
LINE
  5
1C041377
  8
0
 10
-8.990248157683773
 20
29.68966468819439
 30
0.0
 11
-7.924823953589346
 21
29.88224899823611
 31
0.0
  0
LINE
  5
1C04137A
  8
0
 10
-8.990248157683773
 20
29.68966468819439
 30
0.0
 11
-8.45293482077114
 21
30.62961778762024
 31
0.0
  0
LINE
  5
1C04137B
  8
0
 10
-8.990248157683773
 20
29.68966468819439
 30
0.0
 11
-8.297876674887682
 21
30.52203430618581
 31
0.0
  0
LINE
  5
1C041379
  8
0
 10
-8.990248157683773
 20
29.68966468819439
 30
0.0
 11
-8.99489770783817
 21
30.77234461911942
 31
0.0
  0
LINE
  5
1C04137C
  8
0
 10
-8.990248157683773
 20
29.68966468819439
 30
0.0
 11
-8.806821673722148
 21
30.75670366411136
 31
0.0
  0
LINE
  5
1C04137D
  8
0
 10
-8.990248157683773
 20
29.68966468819439
 30
0.0
 11
-8.624318960502997
 21
30.70864126976783
 31
0.0
  0
ENDSEC
  0
EOF
