  0
SECTION
  2
HEADER
  9
$ACADVER
  1
AC1009
  9
$DWGCODEPAGE
  3
ansi_1252
  9
$INSBASE
 10
0.0
 20
0.0
 30
0.0
  9
$EXTMIN
 10
-2.369383449673066
 20
-0.0015257857722233
 30
-0.0000000558760862
  9
$EXTMAX
 10
2.219558179352774
 20
9.146397381384944
 30
0.0000000023297985
  9
$LIMMIN
 10
0.0
 20
0.0
  9
$LIMMAX
 10
30.0
 20
25.0
  9
$ORTHOMODE
 70
     0
  9
$REGENMODE
 70
     1
  9
$FILLMODE
 70
     1
  9
$QTEXTMODE
 70
     0
  9
$MIRRTEXT
 70
     0
  9
$DRAGMODE
 70
     2
  9
$LTSCALE
 40
0.4
  9
$OSMODE
 70
    37
  9
$ATTMODE
 70
     1
  9
$TEXTSIZE
 40
0.2
  9
$TRACEWID
 40
0.05
  9
$TEXTSTYLE
  7
STANDARD
  9
$CLAYER
  8
ARBOLES
  9
$CELTYPE
  6
BYLAYER
  9
$CECOLOR
 62
   256
  9
$DIMSCALE
 40
1.0
  9
$DIMASZ
 40
0.15
  9
$DIMEXO
 40
0.1
  9
$DIMDLI
 40
0.4
  9
$DIMRND
 40
0.0
  9
$DIMDLE
 40
0.0
  9
$DIMEXE
 40
0.0
  9
$DIMTP
 40
0.0
  9
$DIMTM
 40
0.0
  9
$DIMTXT
 40
0.1
  9
$DIMCEN
 40
0.2
  9
$DIMTSZ
 40
0.0
  9
$DIMTOL
 70
     0
  9
$DIMLIM
 70
     0
  9
$DIMTIH
 70
     1
  9
$DIMTOH
 70
     1
  9
$DIMSE1
 70
     0
  9
$DIMSE2
 70
     0
  9
$DIMTAD
 70
     1
  9
$DIMZIN
 70
     0
  9
$DIMBLK
  1

  9
$DIMASO
 70
     1
  9
$DIMSHO
 70
     0
  9
$DIMPOST
  1

  9
$DIMAPOST
  1

  9
$DIMALT
 70
     0
  9
$DIMALTD
 70
     2
  9
$DIMALTF
 40
25.4
  9
$DIMLFAC
 40
1.0
  9
$DIMTOFL
 70
     0
  9
$DIMTVP
 40
0.0
  9
$DIMTIX
 70
     1
  9
$DIMSOXD
 70
     0
  9
$DIMSAH
 70
     0
  9
$DIMBLK1
  1

  9
$DIMBLK2
  1

  9
$DIMSTYLE
  2
STANDARD
  9
$DIMCLRD
 70
     0
  9
$DIMCLRE
 70
     0
  9
$DIMCLRT
 70
     0
  9
$DIMTFAC
 40
1.0
  9
$DIMGAP
 40
0.09
  9
$LUNITS
 70
     2
  9
$LUPREC
 70
     3
  9
$SKETCHINC
 40
0.1
  9
$FILLETRAD
 40
0.0
  9
$AUNITS
 70
     0
  9
$AUPREC
 70
     2
  9
$MENU
  1
a3arq10
  9
$ELEVATION
 40
0.0
  9
$PELEVATION
 40
0.0
  9
$THICKNESS
 40
0.0
  9
$LIMCHECK
 70
     1
  9
$CHAMFERA
 40
0.0
  9
$CHAMFERB
 40
0.0
  9
$SKPOLY
 70
     1
  9
$TDCREATE
 40
2447898.998056944
  9
$TDUPDATE
 40
2457464.593854167
  9
$TDINDWG
 40
0.0037258796
  9
$TDUSRTIMER
 40
0.0037258796
  9
$USRTIMER
 70
     1
  9
$ANGBASE
 50
0.0
  9
$ANGDIR
 70
     0
  9
$PDMODE
 70
     0
  9
$PDSIZE
 40
0.0
  9
$PLINEWID
 40
0.0
  9
$COORDS
 70
     1
  9
$SPLFRAME
 70
     0
  9
$SPLINETYPE
 70
     6
  9
$SPLINESEGS
 70
     8
  9
$ATTDIA
 70
     0
  9
$ATTREQ
 70
     1
  9
$HANDLING
 70
     1
  9
$HANDSEED
  5
432
  9
$SURFTAB1
 70
     6
  9
$SURFTAB2
 70
     6
  9
$SURFTYPE
 70
     6
  9
$SURFU
 70
     6
  9
$SURFV
 70
     6
  9
$UCSNAME
  2

  9
$UCSORG
 10
0.0
 20
0.0
 30
0.0
  9
$UCSXDIR
 10
1.0
 20
0.0
 30
0.0
  9
$UCSYDIR
 10
0.0
 20
1.0
 30
0.0
  9
$PUCSNAME
  2

  9
$PUCSORG
 10
0.0
 20
0.0
 30
0.0
  9
$PUCSXDIR
 10
1.0
 20
0.0
 30
0.0
  9
$PUCSYDIR
 10
0.0
 20
1.0
 30
0.0
  9
$USERI1
 70
     0
  9
$USERI2
 70
     0
  9
$USERI3
 70
     0
  9
$USERI4
 70
     0
  9
$USERI5
 70
     0
  9
$USERR1
 40
0.0
  9
$USERR2
 40
0.0
  9
$USERR3
 40
0.0
  9
$USERR4
 40
0.0
  9
$USERR5
 40
0.0
  9
$WORLDVIEW
 70
     1
  9
$SHADEDGE
 70
     3
  9
$SHADEDIF
 70
    70
  9
$TILEMODE
 70
     1
  9
$MAXACTVP
 70
    48
  9
$PLIMCHECK
 70
     0
  9
$PEXTMIN
 10
1.000000000000000E+20
 20
1.000000000000000E+20
 30
1.000000000000000E+20
  9
$PEXTMAX
 10
-1.000000000000000E+20
 20
-1.000000000000000E+20
 30
-1.000000000000000E+20
  9
$PLIMMIN
 10
0.0
 20
0.0
  9
$PLIMMAX
 10
12.0
 20
9.0
  9
$UNITMODE
 70
     0
  9
$VISRETAIN
 70
     0
  9
$PLINEGEN
 70
     0
  9
$PSLTSCALE
 70
     0
  0
ENDSEC
  0
SECTION
  2
TABLES
  0
TABLE
  2
VPORT
 70
     1
  0
VPORT
  2
*ACTIVE
 70
     0
 10
0.0
 20
0.0
 11
1.0
 21
1.0
 12
-0.0749126351601461
 22
4.57243579780636
 13
0.0
 23
0.0
 14
0.05
 24
0.05
 15
0.0
 25
0.0
 16
0.0
 26
0.0
 36
1.0
 17
0.0
 27
0.0
 37
0.0
 40
9.24321403348172
 41
1.424347826086956
 42
50.0
 43
0.0
 44
0.0
 50
0.0
 51
0.0
 71
     0
 72
   100
 73
     1
 74
     1
 75
     0
 76
     0
 77
     0
 78
     0
  0
ENDTAB
  0
TABLE
  2
LTYPE
 70
     1
  0
LTYPE
  2
CONTINUOUS
 70
     0
  3
Solid line
 72
    65
 73
     0
 40
0.0
  0
ENDTAB
  0
TABLE
  2
LAYER
 70
     2
  0
LAYER
  2
0
 70
     0
 62
     7
  6
CONTINUOUS
  0
LAYER
  2
ARBOLES
 70
     0
 62
     3
  6
CONTINUOUS
  0
ENDTAB
  0
TABLE
  2
STYLE
 70
     1
  0
STYLE
  2
STANDARD
 70
     0
 40
0.0
 41
1.0
 50
0.0
 71
     0
 42
0.2
  3
txt
  4

  0
ENDTAB
  0
TABLE
  2
VIEW
 70
     0
  0
ENDTAB
  0
TABLE
  2
UCS
 70
     0
  0
ENDTAB
  0
TABLE
  2
APPID
 70
     1
  0
APPID
  2
ACAD
 70
     0
  0
ENDTAB
  0
TABLE
  2
DIMSTYLE
 70
     1
  0
DIMSTYLE
  2
STANDARD
 70
     0
  3

  4

  5

  6

  7

 40
1.0
 41
0.18
 42
0.0625
 43
0.38
 44
0.18
 45
0.0
 46
0.0
 47
0.0
 48
0.0
140
0.18
141
0.09
142
0.0
143
25.4
144
1.0
145
0.0
146
1.0
147
0.09
 71
     0
 72
     0
 73
     1
 74
     1
 75
     0
 76
     0
 77
     0
 78
     0
170
     0
171
     2
172
     0
173
     0
174
     0
175
     0
176
     0
177
     0
178
     0
  0
ENDTAB
  0
ENDSEC
  0
SECTION
  2
BLOCKS
  0
BLOCK
  8
0
  2
$MODEL_SPACE
 70
     0
 10
0.0
 20
0.0
 30
0.0
  3
$MODEL_SPACE
  1

  0
ENDBLK
  5
89
  8
0
  0
BLOCK
 67
     1
  8
0
  2
$PAPER_SPACE
 70
     0
 10
0.0
 20
0.0
 30
0.0
  3
$PAPER_SPACE
  1

  0
ENDBLK
  5
87
 67
     1
  8
0
  0
BLOCK
  8
ARBOLES
  2
*X0
 70
     1
 10
0.0
 20
0.0
 30
0.0
  3
*X0
  1

  0
LINE
  5
8E
  8
0
 62
     0
 10
18.02
 20
8.838140013369165
 30
0.0
 11
18.02
 21
8.968474837329067
 31
0.0
  0
LINE
  5
8F
  8
0
 62
     0
 10
18.0
 20
8.826344792491536
 30
0.0
 11
18.0
 21
8.951250423958587
 31
0.0
  0
LINE
  5
90
  8
0
 62
     0
 10
17.98
 20
8.814549571613906
 30
0.0
 11
17.98
 21
8.93347873332476
 31
0.0
  0
LINE
  5
91
  8
0
 62
     0
 10
17.96
 20
8.802754350736278
 30
0.0
 11
17.96
 21
8.915136504605137
 31
0.0
  0
LINE
  5
92
  8
0
 62
     0
 10
17.94
 20
8.78600773976534
 30
0.0
 11
17.94
 21
8.896198326197062
 31
0.0
  0
LINE
  5
93
  8
0
 62
     0
 10
17.92
 20
8.76831659343462
 30
0.0
 11
17.92
 21
8.876636351367164
 31
0.0
  0
LINE
  5
94
  8
0
 62
     0
 10
17.9
 20
8.750625447103896
 30
0.0
 11
17.9
 21
8.856419963078283
 31
0.0
  0
LINE
  5
95
  8
0
 62
     0
 10
17.88
 20
8.732934300773172
 30
0.0
 11
17.88
 21
8.835515376407454
 31
0.0
  0
LINE
  5
96
  8
0
 62
     0
 10
17.86
 20
8.715243154442451
 30
0.0
 11
17.86
 21
8.81388516370526
 31
0.0
  0
LINE
  5
97
  8
0
 62
     0
 10
17.84
 20
8.697644552969887
 30
0.0
 11
17.84
 21
8.79148768327351
 31
0.0
  0
LINE
  5
98
  8
0
 62
     0
 10
17.82
 20
8.680750673087273
 30
0.0
 11
17.82
 21
8.768276386406326
 31
0.0
  0
LINE
  5
99
  8
0
 62
     0
 10
17.8
 20
8.66385679320466
 30
0.0
 11
17.8
 21
8.74419896948738
 31
0.0
  0
LINE
  5
9A
  8
0
 62
     0
 10
17.78
 20
8.646962913322046
 30
0.0
 11
17.78
 21
8.719196326471343
 31
0.0
  0
LINE
  5
9B
  8
0
 62
     0
 10
17.76
 20
8.630422110044687
 30
0.0
 11
17.76
 21
8.693201240984283
 31
0.0
  0
LINE
  5
9C
  8
0
 62
     0
 10
17.74
 20
8.61454080125757
 30
0.0
 11
17.74
 21
8.666136734092948
 31
0.0
  0
LINE
  5
9D
  8
0
 62
     0
 10
17.72
 20
8.59865949247045
 30
0.0
 11
17.72
 21
8.637913949749384
 31
0.0
  0
LINE
  5
9E
  8
0
 62
     0
 10
17.7
 20
8.581535846209098
 30
0.0
 11
17.7
 21
8.608429408861207
 31
0.0
  0
LINE
  5
9F
  8
0
 62
     0
 10
17.68
 20
8.557940250268473
 30
0.0
 11
17.68
 21
8.577561384531661
 31
0.0
  0
LINE
  5
A0
  8
0
 62
     0
 10
17.66
 20
8.534344654327848
 30
0.0
 11
17.66
 21
8.54516502735459
 31
0.0
  0
LINE
  5
A1
  8
0
 62
     0
 10
17.64
 20
8.510749058387223
 30
0.0
 11
17.64
 21
8.511065668620997
 31
0.0
  0
LINE
  5
A2
  8
0
 62
     0
 10
18.04
 20
8.850654545970881
 30
0.0
 11
18.04
 21
8.985173326130328
 31
0.0
  0
LINE
  5
A3
  8
0
 62
     0
 10
18.06
 20
8.863188957885466
 30
0.0
 11
18.06
 21
9.001365543128285
 31
0.0
  0
LINE
  5
A4
  8
0
 62
     0
 10
18.08
 20
8.875723369800053
 30
0.0
 11
18.08
 21
9.017069620710778
 31
0.0
  0
LINE
  5
A5
  8
0
 62
     0
 10
18.1
 20
8.891402586033815
 30
0.0
 11
18.1
 21
9.032302326467436
 31
0.0
  0
LINE
  5
A6
  8
0
 62
     0
 10
18.12
 20
8.907600785601986
 30
0.0
 11
18.12
 21
9.047079198600217
 31
0.0
  0
LINE
  5
A7
  8
0
 62
     0
 10
18.14
 20
8.923798985170157
 30
0.0
 11
18.14
 21
9.061414664271922
 31
0.0
  0
LINE
  5
A8
  8
0
 62
     0
 10
18.16
 20
8.939982342979299
 30
0.0
 11
18.16
 21
9.075322143448641
 31
0.0
  0
LINE
  5
A9
  8
0
 62
     0
 10
18.18
 20
8.955383772297077
 30
0.0
 11
18.18
 21
9.088814140350618
 31
0.0
  0
LINE
  5
AA
  8
0
 62
     0
 10
18.2
 20
8.970785201614856
 30
0.0
 11
18.2
 21
9.101902324270306
 31
0.0
  0
LINE
  5
AB
  8
0
 62
     0
 10
18.22
 20
8.98247018766896
 30
0.0
 11
18.22
 21
9.11459760122813
 31
0.0
  0
LINE
  5
AC
  8
0
 62
     0
 10
18.24
 20
8.990177897997185
 30
0.0
 11
18.24
 21
9.126910177701287
 31
0.0
  0
LINE
  5
AD
  8
0
 62
     0
 10
18.26
 20
8.997885608325408
 30
0.0
 11
18.26
 21
9.1388496174682
 31
0.0
  0
LINE
  5
AE
  8
0
 62
     0
 10
18.28
 20
9.009989077045852
 30
0.0
 11
18.28
 21
9.150424892452428
 31
0.0
  0
LINE
  5
AF
  8
0
 62
     0
 10
18.3
 20
9.03252182874915
 30
0.0
 11
18.3
 21
9.161644428318189
 31
0.0
  0
LINE
  5
B0
  8
0
 62
     0
 10
18.32
 20
9.05505458045245
 30
0.0
 11
18.32
 21
9.172516145460326
 31
0.0
  0
LINE
  5
B1
  8
0
 62
     0
 10
18.34
 20
9.07758733215575
 30
0.0
 11
18.34
 21
9.183047495939967
 31
0.0
  0
LINE
  5
B2
  8
0
 62
     0
 10
18.36
 20
9.10012008385905
 30
0.0
 11
18.36
 21
9.19324549684037
 31
0.0
  0
LINE
  5
B3
  8
0
 62
     0
 10
18.38
 20
9.13111455736084
 30
0.0
 11
18.38
 21
9.203116760452797
 31
0.0
  0
LINE
  5
B4
  8
0
 62
     0
 10
18.4
 20
9.191454700104488
 30
0.0
 11
18.4
 21
9.212667521647418
 31
0.0
  0
ENDBLK
  5
B5
  8
ARBOLES
  0
BLOCK
  8
ARBOLES
  2
*X1
 70
     1
 10
0.0
 20
0.0
 30
0.0
  3
*X1
  1

  0
LINE
  5
B7
  8
0
 62
     0
 10
18.86
 20
9.035941383565632
 30
0.0
 11
18.86
 21
9.489857345698478
 31
0.0
  0
LINE
  5
B8
  8
0
 62
     0
 10
18.84
 20
9.032028664999366
 30
0.0
 11
18.84
 21
9.476605261864687
 31
0.0
  0
LINE
  5
B9
  8
0
 62
     0
 10
18.82
 20
9.052062748184452
 30
0.0
 11
18.82
 21
9.064782720508463
 31
0.0
  0
LINE
  5
BA
  8
0
 62
     0
 10
18.82
 20
9.2649663706656
 30
0.0
 11
18.82
 21
9.42902657324236
 31
0.0
  0
LINE
  5
BB
  8
0
 62
     0
 10
18.82
 20
9.212122731789874
 30
0.0
 11
18.82
 21
9.222383129654887
 31
0.0
  0
LINE
  5
BC
  8
0
 62
     0
 10
18.8
 20
9.279849953498907
 30
0.0
 11
18.8
 21
9.319311126341045
 31
0.0
  0
LINE
  5
BD
  8
0
 62
     0
 10
18.88
 20
9.044308466044065
 30
0.0
 11
18.88
 21
9.495764754378152
 31
0.0
  0
LINE
  5
BE
  8
0
 62
     0
 10
18.9
 20
9.052675548522497
 30
0.0
 11
18.9
 21
9.47914144847032
 31
0.0
  0
LINE
  5
BF
  8
0
 62
     0
 10
18.92
 20
9.061042631000928
 30
0.0
 11
18.92
 21
9.459107365285236
 31
0.0
  0
LINE
  5
C0
  8
0
 62
     0
 10
18.94
 20
9.244028560459244
 30
0.0
 11
18.94
 21
9.271407124947252
 31
0.0
  0
LINE
  5
C1
  8
0
 62
     0
 10
18.94
 20
9.339002954949544
 30
0.0
 11
18.94
 21
9.40179140444776
 31
0.0
  0
ENDBLK
  5
C2
  8
ARBOLES
  0
BLOCK
  8
ARBOLES
  2
*X2
 70
     1
 10
0.0
 20
0.0
 30
0.0
  3
*X2
  1

  0
LINE
  5
C4
  8
0
 62
     0
 10
18.26
 20
9.187204975160983
 30
0.0
 11
18.26
 21
9.306157997435927
 31
0.0
  0
LINE
  5
C5
  8
0
 62
     0
 10
18.24
 20
9.183358792312426
 30
0.0
 11
18.24
 21
9.300003009444985
 31
0.0
  0
LINE
  5
C6
  8
0
 62
     0
 10
18.22
 20
9.179512609463867
 30
0.0
 11
18.22
 21
9.293561504771464
 31
0.0
  0
LINE
  5
C7
  8
0
 62
     0
 10
18.2
 20
9.17566642661531
 30
0.0
 11
18.2
 21
9.286829844206562
 31
0.0
  0
LINE
  5
C8
  8
0
 62
     0
 10
18.18
 20
9.171846606439294
 30
0.0
 11
18.18
 21
9.279804158441019
 31
0.0
  0
LINE
  5
C9
  8
0
 62
     0
 10
18.16
 20
9.172798994573222
 30
0.0
 11
18.16
 21
9.272480335424001
 31
0.0
  0
LINE
  5
CA
  8
0
 62
     0
 10
18.14
 20
9.17375138270715
 30
0.0
 11
18.14
 21
9.264854006553302
 31
0.0
  0
LINE
  5
CB
  8
0
 62
     0
 10
18.12
 20
9.174703770841079
 30
0.0
 11
18.12
 21
9.256920531576519
 31
0.0
  0
LINE
  5
CC
  8
0
 62
     0
 10
18.1
 20
9.175656158975007
 30
0.0
 11
18.1
 21
9.248674982067133
 31
0.0
  0
LINE
  5
CD
  8
0
 62
     0
 10
18.08
 20
9.1790522616301
 30
0.0
 11
18.08
 21
9.240112123321193
 31
0.0
  0
LINE
  5
CE
  8
0
 62
     0
 10
18.06
 20
9.182861814165815
 30
0.0
 11
18.06
 21
9.231226394499297
 31
0.0
  0
LINE
  5
CF
  8
0
 62
     0
 10
18.04
 20
9.186671366701528
 30
0.0
 11
18.04
 21
9.222011886814284
 31
0.0
  0
LINE
  5
D0
  8
0
 62
     0
 10
18.02
 20
9.190480919237244
 30
0.0
 11
18.02
 21
9.21246231953678
 31
0.0
  0
LINE
  5
D1
  8
0
 62
     0
 10
18.0
 20
9.1923165732601
 30
0.0
 11
18.0
 21
9.202571013557801
 31
0.0
  0
LINE
  5
D2
  8
0
 62
     0
 10
18.28
 20
9.191051158009541
 30
0.0
 11
18.28
 21
9.312029889431592
 31
0.0
  0
LINE
  5
D3
  8
0
 62
     0
 10
18.3
 20
9.194172889776626
 30
0.0
 11
18.3
 21
9.317621898209067
 31
0.0
  0
LINE
  5
D4
  8
0
 62
     0
 10
18.32
 20
9.1971729123985
 30
0.0
 11
18.32
 21
9.322937038362864
 31
0.0
  0
LINE
  5
D5
  8
0
 62
     0
 10
18.34
 20
9.200172935020376
 30
0.0
 11
18.34
 21
9.327978135223578
 31
0.0
  0
LINE
  5
D6
  8
0
 62
     0
 10
18.36
 20
9.203172957642252
 30
0.0
 11
18.36
 21
9.332747833034167
 31
0.0
  0
LINE
  5
D7
  8
0
 62
     0
 10
18.38
 20
9.213924901438341
 30
0.0
 11
18.38
 21
9.337248602443173
 31
0.0
  0
LINE
  5
D8
  8
0
 62
     0
 10
18.4
 20
9.225503936119265
 30
0.0
 11
18.4
 21
9.341482747367916
 31
0.0
  0
LINE
  5
D9
  8
0
 62
     0
 10
18.42
 20
9.237082970800188
 30
0.0
 11
18.42
 21
9.345452411274886
 31
0.0
  0
LINE
  5
DA
  8
0
 62
     0
 10
18.44
 20
9.248427295871766
 30
0.0
 11
18.44
 21
9.349159582919661
 31
0.0
  0
LINE
  5
DB
  8
0
 62
     0
 10
18.46
 20
9.258427371278016
 30
0.0
 11
18.46
 21
9.352606101584048
 31
0.0
  0
LINE
  5
DC
  8
0
 62
     0
 10
18.48
 20
9.268427446684267
 30
0.0
 11
18.48
 21
9.355793661844114
 31
0.0
  0
LINE
  5
DD
  8
0
 62
     0
 10
18.5
 20
9.282246032360582
 30
0.0
 11
18.5
 21
9.358723817899204
 31
0.0
  0
LINE
  5
DE
  8
0
 62
     0
 10
18.52
 20
9.302246183173086
 30
0.0
 11
18.52
 21
9.361397987488626
 31
0.0
  0
LINE
  5
DF
  8
0
 62
     0
 10
18.54
 20
9.344744562349469
 30
0.0
 11
18.54
 21
9.36381745541985
 31
0.0
  0
ENDBLK
  5
E0
  8
ARBOLES
  0
BLOCK
  8
ARBOLES
  2
*X3
 70
     1
 10
0.0
 20
0.0
 30
0.0
  3
*X3
  1

  0
LINE
  5
E2
  8
0
 62
     0
 10
19.46097771547103
 20
8.933830997452215
 30
0.0
 11
19.60988977736342
 21
9.093519633170873
 31
0.0
  0
LINE
  5
E3
  8
0
 62
     0
 10
19.47737401289675
 20
8.922088290059019
 30
0.0
 11
19.62672278724762
 21
9.08224524255343
 31
0.0
  0
LINE
  5
E4
  8
0
 62
     0
 10
19.49409144357602
 20
8.910689955918686
 30
0.0
 11
19.64338787405442
 21
9.070790776482088
 31
0.0
  0
LINE
  5
E5
  8
0
 62
     0
 10
19.5108088742553
 20
8.899291621778355
 30
0.0
 11
19.65988593941155
 21
9.05915720183423
 31
0.0
  0
LINE
  5
E6
  8
0
 62
     0
 10
19.52752630493457
 20
8.887893287638024
 30
0.0
 11
19.67621780538047
 21
9.047345400162829
 31
0.0
  0
LINE
  5
E7
  8
0
 62
     0
 10
19.54424373561385
 20
8.876494953497692
 30
0.0
 11
19.69238421630783
 21
9.035356169681938
 31
0.0
  0
LINE
  5
E8
  8
0
 62
     0
 10
19.56227896738821
 20
8.866509788017773
 30
0.0
 11
19.70838584048469
 21
9.023190227045978
 31
0.0
  0
LINE
  5
E9
  8
0
 62
     0
 10
19.58136296990412
 20
8.857649291465068
 30
0.0
 11
19.72422327162235
 21
9.01084820893238
 31
0.0
  0
LINE
  5
EA
  8
0
 62
     0
 10
19.60044697242002
 20
8.84878879491236
 30
0.0
 11
19.73989703015246
 21
8.998330673435763
 31
0.0
  0
LINE
  5
EB
  8
0
 62
     0
 10
19.61953097493592
 20
8.839928298359656
 30
0.0
 11
19.75540756435821
 21
8.985638101280985
 31
0.0
  0
LINE
  5
EC
  8
0
 62
     0
 10
19.63861497745183
 20
8.83106780180695
 30
0.0
 11
19.77075525134225
 21
8.972770896861126
 31
0.0
  0
LINE
  5
ED
  8
0
 62
     0
 10
19.65769897996773
 20
8.822207305254244
 30
0.0
 11
19.78594039783644
 21
8.959729389105847
 31
0.0
  0
LINE
  5
EE
  8
0
 62
     0
 10
19.68038388297138
 20
8.817208301712506
 30
0.0
 11
19.80096324085749
 21
8.94651383218444
 31
0.0
  0
LINE
  5
EF
  8
0
 62
     0
 10
19.70422069240173
 20
8.813444566579644
 30
0.0
 11
19.81582394821156
 21
8.93312440604699
 31
0.0
  0
LINE
  5
F0
  8
0
 62
     0
 10
19.72805750183208
 20
8.809680831446782
 30
0.0
 11
19.83052261885067
 21
8.919561216806535
 31
0.0
  0
LINE
  5
F1
  8
0
 62
     0
 10
19.75047510123666
 20
8.80439517988933
 30
0.0
 11
19.84505928308241
 21
8.905824296963996
 31
0.0
  0
LINE
  5
F2
  8
0
 62
     0
 10
19.77197420377453
 20
8.798124561031756
 30
0.0
 11
19.85943390263411
 21
8.891913605476962
 31
0.0
  0
LINE
  5
F3
  8
0
 62
     0
 10
19.79347330631239
 20
8.791853942174182
 30
0.0
 11
19.87364637057183
 21
8.877829027672801
 31
0.0
  0
LINE
  5
F4
  8
0
 62
     0
 10
19.81497240885026
 20
8.78558332331661
 30
0.0
 11
19.88769651107359
 21
8.863570375005548
 31
0.0
  0
LINE
  5
F5
  8
0
 62
     0
 10
19.83577793886155
 20
8.778568938983412
 30
0.0
 11
19.90158407905599
 21
8.849137384655421
 31
0.0
  0
LINE
  5
F6
  8
0
 62
     0
 10
19.85371546953244
 20
8.768479001897182
 30
0.0
 11
19.9153087596521
 21
8.834529718968986
 31
0.0
  0
LINE
  5
F7
  8
0
 62
     0
 10
19.87165300020332
 20
8.758389064810952
 30
0.0
 11
19.92887016753817
 21
8.819746964737096
 31
0.0
  0
LINE
  5
F8
  8
0
 62
     0
 10
19.8895905308742
 20
8.748299127724723
 30
0.0
 11
19.94226784610573
 21
8.804788632307122
 31
0.0
  0
LINE
  5
F9
  8
0
 62
     0
 10
19.90919016770911
 20
8.73999158128153
 30
0.0
 11
19.95550126647494
 21
8.78965415452487
 31
0.0
  0
LINE
  5
FA
  8
0
 62
     0
 10
19.92961177223802
 20
8.732565487274044
 30
0.0
 11
19.96856982634414
 21
8.7743428855009
 31
0.0
  0
LINE
  5
FB
  8
0
 62
     0
 10
19.95003337676694
 20
8.725139393266561
 30
0.0
 11
19.9814728486697
 21
8.758854099194787
 31
0.0
  0
LINE
  5
FC
  8
0
 62
     0
 10
19.97045498129585
 20
8.717713299259078
 30
0.0
 11
19.99420958016929
 21
8.743186987810143
 31
0.0
  0
LINE
  5
FD
  8
0
 62
     0
 10
19.98961170620629
 20
8.70893078792679
 30
0.0
 11
20.00677918964086
 21
8.727340659991878
 31
0.0
  0
LINE
  5
FE
  8
0
 62
     0
 10
20.006956023241
 20
8.698204707098766
 30
0.0
 11
20.01918076608809
 21
8.711314138816078
 31
0.0
  0
LINE
  5
FF
  8
0
 62
     0
 10
20.02430034027571
 20
8.687478626270744
 30
0.0
 11
20.03141331664261
 21
8.695106359561754
 31
0.0
  0
LINE
  5
100
  8
0
 62
     0
 10
20.04164465731042
 20
8.67675254544272
 30
0.0
 11
20.04347576427129
 21
8.678716167252267
 31
0.0
  0
LINE
  5
101
  8
0
 62
     0
 10
19.4455894300267
 20
8.946654665353572
 30
0.0
 11
19.59288786115405
 21
9.104612893930272
 31
0.0
  0
LINE
  5
102
  8
0
 62
     0
 10
19.43020114458236
 20
8.959478333254928
 30
0.0
 11
19.57571597148462
 21
9.11552388046957
 31
0.0
  0
LINE
  5
103
  8
0
 62
     0
 10
19.41481285913802
 20
8.972302001156287
 30
0.0
 11
19.55837295483995
 21
9.126251355795182
 31
0.0
  0
LINE
  5
104
  8
0
 62
     0
 10
19.39942457369369
 20
8.985125669057643
 30
0.0
 11
19.54085756859129
 21
9.136793987350918
 31
0.0
  0
LINE
  5
105
  8
0
 62
     0
 10
19.38403628824935
 20
8.997949336959001
 30
0.0
 11
19.52316847800713
 21
9.147150343812461
 31
0.0
  0
LINE
  5
106
  8
0
 62
     0
 10
19.36864800280501
 20
9.010773004860358
 30
0.0
 11
19.50530425299063
 21
9.157318891588725
 31
0.0
  0
LINE
  5
107
  8
0
 62
     0
 10
19.35325971736068
 20
9.023596672761716
 30
0.0
 11
19.48726336452402
 21
9.167297991008878
 31
0.0
  0
LINE
  5
108
  8
0
 62
     0
 10
19.33780533672694
 20
9.036349462250087
 30
0.0
 11
19.4690441807981
 21
9.177085892171807
 31
0.0
  0
LINE
  5
109
  8
0
 62
     0
 10
19.32229372380003
 20
9.049040877618044
 30
0.0
 11
19.45064496300277
 21
9.186680730431954
 31
0.0
  0
LINE
  5
10A
  8
0
 62
     0
 10
19.30678211087312
 20
9.061732292986001
 30
0.0
 11
19.43206386075121
 21
9.196080521492407
 31
0.0
  0
LINE
  5
10B
  8
0
 62
     0
 10
19.29127049794621
 20
9.074423708353958
 30
0.0
 11
19.41329890710781
 21
9.205283156072943
 31
0.0
  0
LINE
  5
10C
  8
0
 62
     0
 10
19.27575888501929
 20
9.087115123721915
 30
0.0
 11
19.394348013186
 21
9.214286394117
 31
0.0
  0
LINE
  5
10D
  8
0
 62
     0
 10
19.26024727209238
 20
9.099806539089872
 30
0.0
 11
19.3752089622786
 21
9.223087858497118
 31
0.0
  0
LINE
  5
10E
  8
0
 62
     0
 10
19.24727590246732
 20
9.115222031890577
 30
0.0
 11
19.35587940347838
 21
9.231685028173976
 31
0.0
  0
LINE
  5
10F
  8
0
 62
     0
 10
19.23449564367969
 20
9.130842465973508
 30
0.0
 11
19.33635684474223
 21
9.240075230758505
 31
0.0
  0
LINE
  5
110
  8
0
 62
     0
 10
19.22171538489208
 20
9.146462900056438
 30
0.0
 11
19.31663864534593
 21
9.248255634420675
 31
0.0
  0
LINE
  5
111
  8
0
 62
     0
 10
19.20893512610445
 20
9.162083334139368
 30
0.0
 11
19.2967220076706
 21
9.25622323908154
 31
0.0
  0
LINE
  5
112
  8
0
 62
     0
 10
19.19615486731683
 20
9.1777037682223
 30
0.0
 11
19.27660396825433
 21
9.26397486681729
 31
0.0
  0
LINE
  5
113
  8
0
 62
     0
 10
19.18254709283796
 20
9.192436800370878
 30
0.0
 11
19.25628138803421
 21
9.271507151395062
 31
0.0
  0
LINE
  5
114
  8
0
 62
     0
 10
19.1674880625672
 20
9.205613551217986
 30
0.0
 11
19.23575094169426
 21
9.27881652685005
 31
0.0
  0
LINE
  5
115
  8
0
 62
     0
 10
19.15242903229643
 20
9.218790302065097
 30
0.0
 11
19.2150091060238
 21
9.285899215001365
 31
0.0
  0
LINE
  5
116
  8
0
 62
     0
 10
19.13737000202567
 20
9.231967052912205
 30
0.0
 11
19.19405214717826
 21
9.292751211790922
 31
0.0
  0
LINE
  5
117
  8
0
 62
     0
 10
19.12260885382562
 20
9.245463243171232
 30
0.0
 11
19.17287610671934
 21
9.299368272313352
 31
0.0
  0
LINE
  5
118
  8
0
 62
     0
 10
19.10937071398076
 20
9.260592659935467
 30
0.0
 11
19.15147678629501
 21
9.305745894387302
 31
0.0
  0
LINE
  5
119
  8
0
 62
     0
 10
19.09617177468023
 20
9.275764114136848
 30
0.0
 11
19.12984973079946
 21
9.311879300496702
 31
0.0
  0
LINE
  5
11A
  8
0
 62
     0
 10
19.08346647113579
 20
9.291464927877218
 30
0.0
 11
19.10799020983071
 21
9.317763417906479
 31
0.0
  0
LINE
  5
11B
  8
0
 62
     0
 10
19.07076116759135
 20
9.307165741617588
 30
0.0
 11
19.08589319723618
 21
9.323392856727873
 31
0.0
  0
LINE
  5
11C
  8
0
 62
     0
 10
19.05805586404691
 20
9.32286655535796
 30
0.0
 11
19.06355334850517
 21
9.328761885674849
 31
0.0
  0
ENDBLK
  5
11D
  8
ARBOLES
  0
BLOCK
  8
ARBOLES
  2
*X4
 70
     1
 10
0.0
 20
0.0
 30
0.0
  3
*X4
  1

  0
LINE
  5
11F
  8
0
 62
     0
 10
19.42914350333288
 20
8.603436998541584
 30
0.0
 11
19.4830567972812
 21
8.909194482346415
 31
0.0
  0
LINE
  5
120
  8
0
 62
     0
 10
19.44649453933812
 20
8.586664203926777
 30
0.0
 11
19.50007110069684
 21
8.890511982318095
 31
0.0
  0
LINE
  5
121
  8
0
 62
     0
 10
19.46384557534337
 20
8.569891409311971
 30
0.0
 11
19.51703181337655
 21
8.871525554123421
 31
0.0
  0
LINE
  5
122
  8
0
 62
     0
 10
19.48119661134861
 20
8.553118614697167
 30
0.0
 11
19.53393770156319
 21
8.85222820077797
 31
0.0
  0
LINE
  5
123
  8
0
 62
     0
 10
19.49854764735385
 20
8.536345820082364
 30
0.0
 11
19.55078746743649
 21
8.832612561977152
 31
0.0
  0
LINE
  5
124
  8
0
 62
     0
 10
19.51589868335909
 20
8.519573025467558
 30
0.0
 11
19.56757974451051
 21
8.812670887994155
 31
0.0
  0
LINE
  5
125
  8
0
 62
     0
 10
19.53330693828376
 20
8.503124735470239
 30
0.0
 11
19.58431309258989
 21
8.792395011075179
 31
0.0
  0
LINE
  5
126
  8
0
 62
     0
 10
19.55076512547615
 20
8.486959625435027
 30
0.0
 11
19.6009859922318
 21
8.771776314031802
 31
0.0
  0
LINE
  5
127
  8
0
 62
     0
 10
19.56822331266853
 20
8.470794515399815
 30
0.0
 11
19.61759683865322
 21
8.7508056956872
 31
0.0
  0
LINE
  5
128
  8
0
 62
     0
 10
19.58568149986092
 20
8.454629405364601
 30
0.0
 11
19.63414393501379
 21
8.729473532781475
 31
0.0
  0
LINE
  5
129
  8
0
 62
     0
 10
19.60313968705331
 20
8.438464295329386
 30
0.0
 11
19.65062548499425
 21
8.707769637881894
 31
0.0
  0
LINE
  5
12A
  8
0
 62
     0
 10
19.62059787424569
 20
8.422299185294174
 30
0.0
 11
19.66703958457782
 21
8.68568321277272
 31
0.0
  0
LINE
  5
12B
  8
0
 62
     0
 10
19.63841475562867
 20
8.408168331100855
 30
0.0
 11
19.68338421292714
 21
8.663202796715781
 31
0.0
  0
LINE
  5
12C
  8
0
 62
     0
 10
19.65672465899941
 20
8.396833543543462
 30
0.0
 11
19.69965722223188
 21
8.640316208873362
 31
0.0
  0
LINE
  5
12D
  8
0
 62
     0
 10
19.67503456237016
 20
8.385498755986069
 30
0.0
 11
19.71585632638111
 21
8.617010484066117
 31
0.0
  0
LINE
  5
12E
  8
0
 62
     0
 10
19.69334446574091
 20
8.374163968428677
 30
0.0
 11
19.73197908828948
 21
8.59327180089621
 31
0.0
  0
LINE
  5
12F
  8
0
 62
     0
 10
19.71165436911166
 20
8.362829180871284
 30
0.0
 11
19.74802290567594
 21
8.569085401094418
 31
0.0
  0
LINE
  5
130
  8
0
 62
     0
 10
19.72979759235376
 20
8.350549103330616
 30
0.0
 11
19.76398499505713
 21
8.544435498742162
 31
0.0
  0
LINE
  5
131
  8
0
 62
     0
 10
19.74791976289457
 20
8.338149629987829
 30
0.0
 11
19.77986237367307
 21
8.519305177767073
 31
0.0
  0
LINE
  5
132
  8
0
 62
     0
 10
19.76604193343537
 20
8.325750156645045
 30
0.0
 11
19.79565183900839
 21
8.493676275801867
 31
0.0
  0
LINE
  5
133
  8
0
 62
     0
 10
19.78416410397618
 20
8.313350683302259
 30
0.0
 11
19.8113499455052
 21
8.467529252116769
 31
0.0
  0
LINE
  5
134
  8
0
 62
     0
 10
19.80195950233608
 20
8.299097992830708
 30
0.0
 11
19.82695297798129
 21
8.440843036866475
 31
0.0
  0
LINE
  5
135
  8
0
 62
     0
 10
19.8196423601047
 20
8.284207052949927
 30
0.0
 11
19.84245692116403
 21
8.413594858308244
 31
0.0
  0
LINE
  5
136
  8
0
 62
     0
 10
19.83732521787332
 20
8.269316113069147
 30
0.0
 11
19.85785742462138
 21
8.385760043916042
 31
0.0
  0
LINE
  5
137
  8
0
 62
     0
 10
19.85500807564195
 20
8.254425173188366
 30
0.0
 11
19.87314976220886
 21
8.357311790392464
 31
0.0
  0
LINE
  5
138
  8
0
 62
     0
 10
19.87232523381457
 20
8.23746024783735
 30
0.0
 11
19.88832878494389
 21
8.328220896406377
 31
0.0
  0
LINE
  5
139
  8
0
 62
     0
 10
19.88927203928212
 20
8.218394947923162
 30
0.0
 11
19.90338886595447
 21
8.298455450380722
 31
0.0
  0
LINE
  5
13A
  8
0
 62
     0
 10
19.90621884474967
 20
8.199329648008979
 30
0.0
 11
19.91832383580564
 21
8.267980463711364
 31
0.0
  0
LINE
  5
13B
  8
0
 62
     0
 10
19.92316565021721
 20
8.180264348094795
 30
0.0
 11
19.9331269060612
 21
8.236757437263337
 31
0.0
  0
LINE
  5
13C
  8
0
 62
     0
 10
19.93988778588444
 20
8.15992488242665
 30
0.0
 11
19.9477905783485
 21
8.204743845652304
 31
0.0
  0
LINE
  5
13D
  8
0
 62
     0
 10
19.95654094170919
 20
8.139194212631931
 30
0.0
 11
19.96230653541134
 21
8.171892519374266
 31
0.0
  0
LINE
  5
13E
  8
0
 62
     0
 10
19.97319409753393
 20
8.118463542837214
 30
0.0
 11
19.97666550957987
 21
8.138150898861698
 31
0.0
  0
LINE
  5
13F
  8
0
 62
     0
 10
19.98984725335868
 20
8.097732873042496
 30
0.0
 11
19.99085712264798
 21
8.103460126383085
 31
0.0
  0
LINE
  5
140
  8
0
 62
     0
 10
19.41179246732763
 20
8.620209793156388
 30
0.0
 11
19.46599007703111
 21
8.92757971173446
 31
0.0
  0
LINE
  5
141
  8
0
 62
     0
 10
19.39479449654741
 20
8.63898492016298
 30
0.0
 11
19.44887205784556
 21
8.945674010402453
 31
0.0
  0
LINE
  5
142
  8
0
 62
     0
 10
19.37800211820316
 20
8.658926019813991
 30
0.0
 11
19.4317038051557
 21
8.963483420710695
 31
0.0
  0
LINE
  5
143
  8
0
 62
     0
 10
19.36120973985892
 20
8.678867119465004
 30
0.0
 11
19.41448633517255
 21
8.981013705878357
 31
0.0
  0
LINE
  5
144
  8
0
 62
     0
 10
19.34441736151467
 20
8.698808219116016
 30
0.0
 11
19.3972206178758
 21
8.998270366933465
 31
0.0
  0
LINE
  5
145
  8
0
 62
     0
 10
19.32792772203257
 20
8.720466236171973
 30
0.0
 11
19.37990757976826
 21
9.015258658334734
 31
0.0
  0
LINE
  5
146
  8
0
 62
     0
 10
19.3114849565373
 20
8.742390088817302
 30
0.0
 11
19.36254810641834
 21
9.031983602390055
 31
0.0
  0
LINE
  5
147
  8
0
 62
     0
 10
19.29504219104203
 20
8.764313941462635
 30
0.0
 11
19.34514304480976
 21
9.048450002582864
 31
0.0
  0
LINE
  5
148
  8
0
 62
     0
 10
19.27888444780091
 20
8.787854235636056
 30
0.0
 11
19.32769320551632
 21
9.064662455905589
 31
0.0
  0
LINE
  5
149
  8
0
 62
     0
 10
19.26353719878843
 20
8.815991070993324
 30
0.0
 11
19.31019936471716
 21
9.080625364288911
 31
0.0
  0
LINE
  5
14A
  8
0
 62
     0
 10
19.24818994977596
 20
8.844127906350593
 30
0.0
 11
19.29266226606665
 21
9.096342945206285
 31
0.0
  0
LINE
  5
14B
  8
0
 62
     0
 10
19.23256294685113
 20
8.8706781784308
 30
0.0
 11
19.27508262243136
 21
9.111819241525007
 31
0.0
  0
LINE
  5
14C
  8
0
 62
     0
 10
19.21556678311391
 20
8.889463553687506
 30
0.0
 11
19.25746111750558
 21
9.127058130668003
 31
0.0
  0
LINE
  5
14D
  8
0
 62
     0
 10
19.19857061937668
 20
8.908248928944209
 30
0.0
 11
19.23979840731537
 21
9.142063333143966
 31
0.0
  0
LINE
  5
14E
  8
0
 62
     0
 10
19.18157445563946
 20
8.927034304200914
 30
0.0
 11
19.22209512162051
 21
9.156838420498051
 31
0.0
  0
LINE
  5
14F
  8
0
 62
     0
 10
19.16457829190223
 20
8.945819679457621
 30
0.0
 11
19.20435186522249
 21
9.171386822730057
 31
0.0
  0
LINE
  5
150
  8
0
 62
     0
 10
19.14970183558139
 20
8.976626512847782
 30
0.0
 11
19.18656921918623
 21
9.185711835222754
 31
0.0
  0
LINE
  5
151
  8
0
 62
     0
 10
19.13552787600364
 20
9.011417403245348
 30
0.0
 11
19.16874774198207
 21
9.19981662521894
 31
0.0
  0
LINE
  5
152
  8
0
 62
     0
 10
19.12135391642589
 20
9.046208293642916
 30
0.0
 11
19.15088797055452
 21
9.213704237882231
 31
0.0
  0
LINE
  5
153
  8
0
 62
     0
 10
19.10737903527998
 20
9.082128213931655
 30
0.0
 11
19.13299042132313
 21
9.2273776019734
 31
0.0
  0
LINE
  5
154
  8
0
 62
     0
 10
19.09349629390617
 20
9.118570684834827
 30
0.0
 11
19.1150555911207
 21
9.240839535171334
 31
0.0
  0
LINE
  5
155
  8
0
 62
     0
 10
19.08041473661175
 20
9.159556896441558
 30
0.0
 11
19.09708395807352
 21
9.254092749064885
 31
0.0
  0
LINE
  5
156
  8
0
 62
     0
 10
19.06888632534119
 20
9.209351436856617
 30
0.0
 11
19.07907598242777
 21
9.26713985383985
 31
0.0
  0
ENDBLK
  5
157
  8
ARBOLES
  0
BLOCK
  8
ARBOLES
  2
*X5
 70
     1
 10
0.0
 20
0.0
 30
0.0
  3
*X5
  1

  0
LINE
  5
159
  8
0
 62
     0
 10
19.02500972506659
 20
8.269462413435411
 30
0.0
 11
19.09410745068409
 21
8.661335088506867
 31
0.0
  0
LINE
  5
15A
  8
0
 62
     0
 10
19.03794776527937
 20
8.227662276012735
 30
0.0
 11
19.10671395799555
 21
8.617654734568339
 31
0.0
  0
LINE
  5
15B
  8
0
 62
     0
 10
19.05139259691522
 20
8.18873629557412
 30
0.0
 11
19.1190485479861
 21
8.572432260871306
 31
0.0
  0
LINE
  5
15C
  8
0
 62
     0
 10
19.0650499640462
 20
8.151015663824998
 30
0.0
 11
19.13108409943929
 21
8.525513855354003
 31
0.0
  0
LINE
  5
15D
  8
0
 62
     0
 10
19.07870733117717
 20
8.113295032075875
 30
0.0
 11
19.14278841262992
 21
8.476716904300277
 31
0.0
  0
LINE
  5
15E
  8
0
 62
     0
 10
19.09236469830815
 20
8.075574400326754
 30
0.0
 11
19.15412276183914
 21
8.425821783244862
 31
0.0
  0
LINE
  5
15F
  8
0
 62
     0
 10
19.10602206543913
 20
8.037853768577632
 30
0.0
 11
19.16503986856491
 21
8.372560362478662
 31
0.0
  0
LINE
  5
160
  8
0
 62
     0
 10
19.1196794325701
 20
8.00013313682851
 30
0.0
 11
19.17548098369911
 21
8.316599459252938
 31
0.0
  0
LINE
  5
161
  8
0
 62
     0
 10
19.13481605580694
 20
7.970801783339136
 30
0.0
 11
19.18537154674523
 21
8.257516219979289
 31
0.0
  0
LINE
  5
162
  8
0
 62
     0
 10
19.15083292267342
 20
7.94646253954335
 30
0.0
 11
19.19461446815108
 21
8.194760022445596
 31
0.0
  0
LINE
  5
163
  8
0
 62
     0
 10
19.1668497895399
 20
7.92212329574756
 30
0.0
 11
19.20307921761794
 21
8.127590592541699
 31
0.0
  0
LINE
  5
164
  8
0
 62
     0
 10
19.18286665640638
 20
7.897784051951774
 30
0.0
 11
19.21058298721833
 21
8.054971174992138
 31
0.0
  0
LINE
  5
165
  8
0
 62
     0
 10
19.19888352327285
 20
7.873444808155988
 30
0.0
 11
19.21685549435386
 21
7.975368921010407
 31
0.0
  0
LINE
  5
166
  8
0
 62
     0
 10
19.21490039013933
 20
7.849105564360203
 30
0.0
 11
19.22146573477336
 21
7.886339484022705
 31
0.0
  0
LINE
  5
167
  8
0
 62
     0
 10
19.01207168485382
 20
8.311262550858087
 30
0.0
 11
19.08125212740669
 21
8.703604336981304
 31
0.0
  0
LINE
  5
168
  8
0
 62
     0
 10
18.99913364464104
 20
8.353062688280765
 30
0.0
 11
19.06816786005327
 21
8.744575179079739
 31
0.0
  0
LINE
  5
169
  8
0
 62
     0
 10
18.9877306656016
 20
8.403568590227765
 30
0.0
 11
19.05487189191739
 21
8.784345406379394
 31
0.0
  0
LINE
  5
16A
  8
0
 62
     0
 10
18.97953099444945
 20
8.472241353958637
 30
0.0
 11
19.04137930182341
 21
8.823000535142706
 31
0.0
  0
LINE
  5
16B
  8
0
 62
     0
 10
18.97133132329731
 20
8.54091411768951
 30
0.0
 11
19.02770336775074
 21
8.860615868532937
 31
0.0
  0
LINE
  5
16C
  8
0
 62
     0
 10
18.96313165214517
 20
8.609586881420382
 30
0.0
 11
19.01385585535865
 21
8.897258132919635
 31
0.0
  0
LINE
  5
16D
  8
0
 62
     0
 10
18.95515684142626
 20
8.679534892038221
 30
0.0
 11
18.99984724955542
 21
8.932986791172436
 31
0.0
  0
LINE
  5
16E
  8
0
 62
     0
 10
18.94743800917976
 20
8.750934628712882
 30
0.0
 11
18.98568694228982
 21
8.967855107679718
 31
0.0
  0
LINE
  5
16F
  8
0
 62
     0
 10
18.94295620444986
 20
8.840692460691994
 30
0.0
 11
18.97138338628293
 21
9.001911020204854
 31
0.0
  0
LINE
  5
170
  8
0
 62
     0
 10
18.9431790940524
 20
8.95713194010551
 30
0.0
 11
18.95694422196588
 21
9.035197859785965
 31
0.0
  0
ENDBLK
  5
171
  8
ARBOLES
  0
BLOCK
  8
ARBOLES
  2
*X6
 70
     1
 10
0.0
 20
0.0
 30
0.0
  3
*X6
  1

  0
LINE
  5
173
  8
0
 62
     0
 10
19.23204056870347
 20
8.477431603869872
 30
0.0
 11
19.2691921609134
 21
8.902076245960247
 31
0.0
  0
LINE
  5
174
  8
0
 62
     0
 10
19.24962650513719
 20
8.448965512186964
 30
0.0
 11
19.2871899735821
 21
8.878317921185403
 31
0.0
  0
LINE
  5
175
  8
0
 62
     0
 10
19.26791794548852
 20
8.4285633671821
 30
0.0
 11
19.30510327507274
 21
8.853593629225202
 31
0.0
  0
LINE
  5
176
  8
0
 62
     0
 10
19.28620938583985
 20
8.408161222177236
 30
0.0
 11
19.32292550567385
 21
8.827828392234363
 31
0.0
  0
LINE
  5
177
  8
0
 62
     0
 10
19.30450082619117
 20
8.38775907717237
 30
0.0
 11
19.34064906105977
 21
8.800935292372902
 31
0.0
  0
LINE
  5
178
  8
0
 62
     0
 10
19.32279226654251
 20
8.367356932167503
 30
0.0
 11
19.35826504322293
 21
8.772812624948875
 31
0.0
  0
LINE
  5
179
  8
0
 62
     0
 10
19.34108370689384
 20
8.346954787162638
 30
0.0
 11
19.37576292889964
 21
8.743340108508002
 31
0.0
  0
LINE
  5
17A
  8
0
 62
     0
 10
19.35966689317474
 20
8.329887313391922
 30
0.0
 11
19.39313011931874
 21
8.712373738436979
 31
0.0
  0
LINE
  5
17B
  8
0
 62
     0
 10
19.37826842645144
 20
8.313029546742772
 30
0.0
 11
19.41035131469066
 21
8.679738637340666
 31
0.0
  0
LINE
  5
17C
  8
0
 62
     0
 10
19.39686995972814
 20
8.296171780093623
 30
0.0
 11
19.42740762185862
 21
8.645218855449109
 31
0.0
  0
LINE
  5
17D
  8
0
 62
     0
 10
19.41547149300484
 20
8.279314013444473
 30
0.0
 11
19.44427524087484
 21
8.608542358114187
 31
0.0
  0
LINE
  5
17E
  8
0
 62
     0
 10
19.43407302628154
 20
8.262456246795324
 30
0.0
 11
19.46092345817486
 21
8.56935808768775
 31
0.0
  0
LINE
  5
17F
  8
0
 62
     0
 10
19.45267455955824
 20
8.245598480146175
 30
0.0
 11
19.47731143732148
 21
8.527199281556731
 31
0.0
  0
LINE
  5
180
  8
0
 62
     0
 10
19.47113573497587
 20
8.227136415826699
 30
0.0
 11
19.49338278652338
 21
8.48142137859693
 31
0.0
  0
LINE
  5
181
  8
0
 62
     0
 10
19.48874373296691
 20
8.198922488897773
 30
0.0
 11
19.50905566461164
 21
8.431088929967162
 31
0.0
  0
LINE
  5
182
  8
0
 62
     0
 10
19.50635173095795
 20
8.170708561968846
 30
0.0
 11
19.52420290324572
 21
8.374748394883675
 31
0.0
  0
LINE
  5
183
  8
0
 62
     0
 10
19.52395972894898
 20
8.14249463503992
 30
0.0
 11
19.53860608027923
 21
8.30990319678922
 31
0.0
  0
LINE
  5
184
  8
0
 62
     0
 10
19.54156772694002
 20
8.114280708110995
 30
0.0
 11
19.55182335264542
 21
8.231503046321327
 31
0.0
  0
LINE
  5
185
  8
0
 62
     0
 10
19.55917572493106
 20
8.086066781182069
 30
0.0
 11
19.56260903387078
 21
8.125309681934668
 31
0.0
  0
LINE
  5
186
  8
0
 62
     0
 10
19.21534940886983
 20
8.516125038891062
 30
0.0
 11
19.25111554253917
 21
8.92493381739916
 31
0.0
  0
LINE
  5
187
  8
0
 62
     0
 10
19.1986582490362
 20
8.554818473912253
 30
0.0
 11
19.2329651174637
 21
8.946947774382524
 31
0.0
  0
LINE
  5
188
  8
0
 62
     0
 10
19.18196708920256
 20
8.593511908933442
 30
0.0
 11
19.21474529450776
 21
8.968168509962588
 31
0.0
  0
LINE
  5
189
  8
0
 62
     0
 10
19.16527592936892
 20
8.632205343954638
 30
0.0
 11
19.19645998494864
 21
8.988640730242984
 31
0.0
  0
LINE
  5
18A
  8
0
 62
     0
 10
19.14866225931828
 20
8.671784491248358
 30
0.0
 11
19.17811267714603
 21
9.008404307357758
 31
0.0
  0
LINE
  5
18B
  8
0
 62
     0
 10
19.13230637273325
 20
8.714310117036822
 30
0.0
 11
19.15970649726419
 21
9.027494973527705
 31
0.0
  0
LINE
  5
18C
  8
0
 62
     0
 10
19.11595048614822
 20
8.756835742825285
 30
0.0
 11
19.14124425913465
 21
9.04594489099434
 31
0.0
  0
LINE
  5
18D
  8
0
 62
     0
 10
19.09959459956319
 20
8.799361368613749
 30
0.0
 11
19.12272850554551
 21
9.06378312395891
 31
0.0
  0
LINE
  5
18E
  8
0
 62
     0
 10
19.08310743274194
 20
8.840386454435953
 30
0.0
 11
19.10416154269476
 21
9.081036032384784
 31
0.0
  0
LINE
  5
18F
  8
0
 62
     0
 10
19.06653498959368
 20
8.880436827380157
 30
0.0
 11
19.08554546914288
 21
9.09772760292805
 31
0.0
  0
LINE
  5
190
  8
0
 62
     0
 10
19.04996254644542
 20
8.92048720032436
 30
0.0
 11
19.06688220030217
 21
9.11387972885169
 31
0.0
  0
LINE
  5
191
  8
0
 62
     0
 10
19.03856200509348
 20
9.019652681305338
 30
0.0
 11
19.04817348927612
 21
9.129512448220085
 31
0.0
  0
LINE
  5
192
  8
0
 62
     0
 10
19.02893931459407
 20
9.13913909051728
 30
0.0
 11
19.02942094469211
 21
9.144644147728423
 31
0.0
  0
ENDBLK
  5
193
  8
ARBOLES
  0
BLOCK
  8
ARBOLES
  2
*X7
 70
     1
 10
0.0
 20
0.0
 30
0.0
  3
*X7
  1

  0
LINE
  5
195
  8
0
 62
     0
 10
18.14
 20
8.48785812239723
 30
0.0
 11
18.14
 21
8.828112362483033
 31
0.0
  0
LINE
  5
196
  8
0
 62
     0
 10
18.16
 20
8.504154541577785
 30
0.0
 11
18.16
 21
8.84583852526651
 31
0.0
  0
LINE
  5
197
  8
0
 62
     0
 10
18.18
 20
8.520450960758343
 30
0.0
 11
18.18
 21
8.863348748098293
 31
0.0
  0
LINE
  5
198
  8
0
 62
     0
 10
18.2
 20
8.5367473799389
 30
0.0
 11
18.2
 21
8.880646442890036
 31
0.0
  0
LINE
  5
199
  8
0
 62
     0
 10
18.22
 20
8.553043799119456
 30
0.0
 11
18.22
 21
8.897734909923736
 31
0.0
  0
LINE
  5
19A
  8
0
 62
     0
 10
18.24
 20
8.575084570653347
 30
0.0
 11
18.24
 21
8.914617342798993
 31
0.0
  0
LINE
  5
19B
  8
0
 62
     0
 10
18.26
 20
8.600602004448607
 30
0.0
 11
18.26
 21
8.931296833098582
 31
0.0
  0
LINE
  5
19C
  8
0
 62
     0
 10
18.28
 20
8.626119438243869
 30
0.0
 11
18.28
 21
8.94777637479172
 31
0.0
  0
LINE
  5
19D
  8
0
 62
     0
 10
18.3
 20
8.651636872039129
 30
0.0
 11
18.3
 21
8.964058868392828
 31
0.0
  0
LINE
  5
19E
  8
0
 62
     0
 10
18.32
 20
8.67715430583439
 30
0.0
 11
18.32
 21
8.980147124892191
 31
0.0
  0
LINE
  5
19F
  8
0
 62
     0
 10
18.34
 20
8.70267173962965
 30
0.0
 11
18.34
 21
8.996043869473677
 31
0.0
  0
LINE
  5
1A0
  8
0
 62
     0
 10
18.36
 20
8.73274397118078
 30
0.0
 11
18.36
 21
9.01175174503339
 31
0.0
  0
LINE
  5
1A1
  8
0
 62
     0
 10
18.38
 20
8.763369202112424
 30
0.0
 11
18.38
 21
9.0272733155122
 31
0.0
  0
LINE
  5
1A2
  8
0
 62
     0
 10
18.4
 20
8.793994433044073
 30
0.0
 11
18.4
 21
9.042611069054022
 31
0.0
  0
LINE
  5
1A3
  8
0
 62
     0
 10
18.42
 20
8.824619663975717
 30
0.0
 11
18.42
 21
9.057767421000815
 31
0.0
  0
LINE
  5
1A4
  8
0
 62
     0
 10
18.44
 20
8.85524489490736
 30
0.0
 11
18.44
 21
9.072744716734608
 31
0.0
  0
LINE
  5
1A5
  8
0
 62
     0
 10
18.46
 20
8.885870125839004
 30
0.0
 11
18.46
 21
9.08754523437587
 31
0.0
  0
LINE
  5
1A6
  8
0
 62
     0
 10
18.48
 20
8.921816831030066
 30
0.0
 11
18.48
 21
9.102171187347086
 31
0.0
  0
LINE
  5
1A7
  8
0
 62
     0
 10
18.5
 20
8.96181713265507
 30
0.0
 11
18.5
 21
9.116624726809645
 31
0.0
  0
LINE
  5
1A8
  8
0
 62
     0
 10
18.52
 20
9.001817434280076
 30
0.0
 11
18.52
 21
9.130907943981601
 31
0.0
  0
LINE
  5
1A9
  8
0
 62
     0
 10
18.54
 20
9.058848533324731
 30
0.0
 11
18.54
 21
9.14502287234334
 31
0.0
  0
LINE
  5
1AA
  8
0
 62
     0
 10
18.56
 20
9.127083341135078
 30
0.0
 11
18.56
 21
9.158971489737736
 31
0.0
  0
LINE
  5
1AB
  8
0
 62
     0
 10
18.12
 20
8.471489090498686
 30
0.0
 11
18.12
 21
8.810166730956489
 31
0.0
  0
LINE
  5
1AC
  8
0
 62
     0
 10
18.1
 20
8.45342443815191
 30
0.0
 11
18.1
 21
8.791997979439941
 31
0.0
  0
LINE
  5
1AD
  8
0
 62
     0
 10
18.08
 20
8.435359785805135
 30
0.0
 11
18.08
 21
8.773602328304175
 31
0.0
  0
LINE
  5
1AE
  8
0
 62
     0
 10
18.06
 20
8.417295133458355
 30
0.0
 11
18.06
 21
8.754975863232698
 31
0.0
  0
LINE
  5
1AF
  8
0
 62
     0
 10
18.04
 20
8.399230481111578
 30
0.0
 11
18.04
 21
8.736114528508464
 31
0.0
  0
LINE
  5
1B0
  8
0
 62
     0
 10
18.02
 20
8.381165828764802
 30
0.0
 11
18.02
 21
8.717014119859504
 31
0.0
  0
LINE
  5
1B1
  8
0
 62
     0
 10
18.0
 20
8.363101176418027
 30
0.0
 11
18.0
 21
8.69767027682744
 31
0.0
  0
LINE
  5
1B2
  8
0
 62
     0
 10
17.98
 20
8.351515564498554
 30
0.0
 11
17.98
 21
8.67807847461934
 31
0.0
  0
LINE
  5
1B3
  8
0
 62
     0
 10
17.96
 20
8.340535089542671
 30
0.0
 11
17.96
 21
8.658234015399453
 31
0.0
  0
LINE
  5
1B4
  8
0
 62
     0
 10
17.94
 20
8.329554614586787
 30
0.0
 11
17.94
 21
8.638132018972916
 31
0.0
  0
LINE
  5
1B5
  8
0
 62
     0
 10
17.92000000000001
 20
8.318574139630904
 30
0.0
 11
17.92
 21
8.617767412808659
 31
0.0
  0
LINE
  5
1B6
  8
0
 62
     0
 10
17.90000000000001
 20
8.30759366467502
 30
0.0
 11
17.9
 21
8.597134921343184
 31
0.0
  0
LINE
  5
1B7
  8
0
 62
     0
 10
17.88
 20
8.296613189719135
 30
0.0
 11
17.88
 21
8.5762290545007
 31
0.0
  0
LINE
  5
1B8
  8
0
 62
     0
 10
17.86
 20
8.285632714763251
 30
0.0
 11
17.86
 21
8.555044095358213
 31
0.0
  0
LINE
  5
1B9
  8
0
 62
     0
 10
17.84
 20
8.274652239807368
 30
0.0
 11
17.84
 21
8.533574086876138
 31
0.0
  0
LINE
  5
1BA
  8
0
 62
     0
 10
17.82
 20
8.263671764851484
 30
0.0
 11
17.82
 21
8.51181281760643
 31
0.0
  0
LINE
  5
1BB
  8
0
 62
     0
 10
17.8
 20
8.252691289895601
 30
0.0
 11
17.8
 21
8.489753806279907
 31
0.0
  0
LINE
  5
1BC
  8
0
 62
     0
 10
17.78
 20
8.243512933479359
 30
0.0
 11
17.78
 21
8.467390285163342
 31
0.0
  0
LINE
  5
1BD
  8
0
 62
     0
 10
17.76
 20
8.234689337532666
 30
0.0
 11
17.76
 21
8.44471518206382
 31
0.0
  0
LINE
  5
1BE
  8
0
 62
     0
 10
17.74
 20
8.225865741585975
 30
0.0
 11
17.74
 21
8.421721100843278
 31
0.0
  0
LINE
  5
1BF
  8
0
 62
     0
 10
17.72
 20
8.217042145639281
 30
0.0
 11
17.72
 21
8.398400300289364
 31
0.0
  0
LINE
  5
1C0
  8
0
 62
     0
 10
17.7
 20
8.208218549692589
 30
0.0
 11
17.7
 21
8.374744671169552
 31
0.0
  0
LINE
  5
1C1
  8
0
 62
     0
 10
17.68
 20
8.199394953745898
 30
0.0
 11
17.68
 21
8.350745711273508
 31
0.0
  0
LINE
  5
1C2
  8
0
 62
     0
 10
17.66
 20
8.190539698567102
 30
0.0
 11
17.66
 21
8.326394498223442
 31
0.0
  0
LINE
  5
1C3
  8
0
 62
     0
 10
17.64
 20
8.181443529711064
 30
0.0
 11
17.64
 21
8.301681659803053
 31
0.0
  0
LINE
  5
1C4
  8
0
 62
     0
 10
17.62
 20
8.172347360855026
 30
0.0
 11
17.62
 21
8.276597341521976
 31
0.0
  0
LINE
  5
1C5
  8
0
 62
     0
 10
17.6
 20
8.163251191998988
 30
0.0
 11
17.6
 21
8.251131171093702
 31
0.0
  0
LINE
  5
1C6
  8
0
 62
     0
 10
17.58
 20
8.15415502314295
 30
0.0
 11
17.58
 21
8.225272219459534
 31
0.0
  0
LINE
  5
1C7
  8
0
 62
     0
 10
17.56
 20
8.145058854286912
 30
0.0
 11
17.56
 21
8.199008957938252
 31
0.0
  0
LINE
  5
1C8
  8
0
 62
     0
 10
17.54
 20
8.135962685430874
 30
0.0
 11
17.54
 21
8.172329211019292
 31
0.0
  0
LINE
  5
1C9
  8
0
 62
     0
 10
17.52
 20
8.126866516574836
 30
0.0
 11
17.52
 21
8.145220104244538
 31
0.0
  0
ENDBLK
  5
1CA
  8
ARBOLES
  0
BLOCK
  8
ARBOLES
  2
*X8
 70
     1
 10
0.0
 20
0.0
 30
0.0
  3
*X8
  1

  0
LINE
  5
1CC
  8
0
 62
     0
 10
18.3684477779503
 20
8.507181375041721
 30
0.0
 11
18.34352583348742
 21
8.792040503738942
 31
0.0
  0
LINE
  5
1CD
  8
0
 62
     0
 10
18.38712365484633
 20
8.523189390233563
 30
0.0
 11
18.36169331201068
 21
8.813859538922223
 31
0.0
  0
LINE
  5
1CE
  8
0
 62
     0
 10
18.40579953174237
 20
8.539197405425409
 30
0.0
 11
18.37987952963684
 21
8.835464385179218
 31
0.0
  0
LINE
  5
1CF
  8
0
 62
     0
 10
18.4244754086384
 20
8.55520542061725
 30
0.0
 11
18.39808418897643
 21
8.856858441687118
 31
0.0
  0
LINE
  5
1D0
  8
0
 62
     0
 10
18.44233213836243
 20
8.580576330828695
 30
0.0
 11
18.41630700195743
 21
8.878045001124246
 31
0.0
  0
LINE
  5
1D1
  8
0
 62
     0
 10
18.45991756966377
 20
8.609048196201105
 30
0.0
 11
18.43454768942505
 21
8.899027254244507
 31
0.0
  0
LINE
  5
1D2
  8
0
 62
     0
 10
18.47750300096511
 20
8.637520061573516
 30
0.0
 11
18.4528059807635
 21
8.919808294200296
 31
0.0
  0
LINE
  5
1D3
  8
0
 62
     0
 10
18.49508843226646
 20
8.665991926945928
 30
0.0
 11
18.4710816135384
 21
8.940391120630595
 31
0.0
  0
LINE
  5
1D4
  8
0
 62
     0
 10
18.51265831998212
 20
8.694641456315635
 30
0.0
 11
18.48937433315822
 21
8.96077864352964
 31
0.0
  0
LINE
  5
1D5
  8
0
 62
     0
 10
18.52974492560754
 20
8.728814925253847
 30
0.0
 11
18.50768389255385
 21
8.980973686910438
 31
0.0
  0
LINE
  5
1D6
  8
0
 62
     0
 10
18.54683153123296
 20
8.762988394192064
 30
0.0
 11
18.52601005187483
 21
9.000978992276304
 31
0.0
  0
LINE
  5
1D7
  8
0
 62
     0
 10
18.56391813685838
 20
8.797161863130274
 30
0.0
 11
18.54435257820138
 21
9.020797221912538
 31
0.0
  0
LINE
  5
1D8
  8
0
 62
     0
 10
18.58047617120792
 20
8.837376929397527
 30
0.0
 11
18.56271124527114
 21
9.040430962009593
 31
0.0
  0
LINE
  5
1D9
  8
0
 62
     0
 10
18.59689589410171
 20
8.879172902838025
 30
0.0
 11
18.5810858332198
 21
9.059882725628116
 31
0.0
  0
LINE
  5
1DA
  8
0
 62
     0
 10
18.61301485816447
 20
8.924406565447715
 30
0.0
 11
18.59947612833465
 21
9.079154955515572
 31
0.0
  0
LINE
  5
1DB
  8
0
 62
     0
 10
18.62735564151886
 20
8.989964926557914
 30
0.0
 11
18.61788192282036
 21
9.098250026783422
 31
0.0
  0
LINE
  5
1DC
  8
0
 62
     0
 10
18.64198820854524
 20
9.05218818503611
 30
0.0
 11
18.63630301457622
 21
9.117170249453277
 31
0.0
  0
LINE
  5
1DD
  8
0
 62
     0
 10
18.65768394180255
 20
9.102259397888268
 30
0.0
 11
18.65473920698421
 21
9.13591787087968
 31
0.0
  0
LINE
  5
1DE
  8
0
 62
     0
 10
18.67337967505986
 20
9.152330610740433
 30
0.0
 11
18.6731903087071
 21
9.154495078056884
 31
0.0
  0
LINE
  5
1DF
  8
0
 62
     0
 10
18.34977190105428
 20
8.49117335984988
 30
0.0
 11
18.3253774011978
 21
8.770003769109097
 31
0.0
  0
LINE
  5
1E0
  8
0
 62
     0
 10
18.33070783038546
 20
8.479602419784607
 30
0.0
 11
18.30724833246292
 21
8.747745708035685
 31
0.0
  0
LINE
  5
1E1
  8
0
 62
     0
 10
18.31154933295405
 20
8.469110782554502
 30
0.0
 11
18.28913895527065
 21
8.725262571600426
 31
0.0
  0
LINE
  5
1E2
  8
0
 62
     0
 10
18.29239083552265
 20
8.458619145324397
 30
0.0
 11
18.27104960878114
 21
8.702550483184917
 31
0.0
  0
LINE
  5
1E3
  8
0
 62
     0
 10
18.27323233809124
 20
8.448127508094291
 30
0.0
 11
18.25298064386392
 21
8.679605432332012
 31
0.0
  0
LINE
  5
1E4
  8
0
 62
     0
 10
18.25407384065984
 20
8.437635870864186
 30
0.0
 11
18.23493242366889
 21
8.656423268219642
 31
0.0
  0
LINE
  5
1E5
  8
0
 62
     0
 10
18.23491534322843
 20
8.427144233634081
 30
0.0
 11
18.21690532423378
 21
8.632999692716655
 31
0.0
  0
LINE
  5
1E6
  8
0
 62
     0
 10
18.21575684579702
 20
8.416652596403974
 30
0.0
 11
18.19889973513122
 21
8.609330252987423
 31
0.0
  0
LINE
  5
1E7
  8
0
 62
     0
 10
18.19659834836561
 20
8.406160959173869
 30
0.0
 11
18.18091606015844
 21
8.585410333608836
 31
0.0
  0
LINE
  5
1E8
  8
0
 62
     0
 10
18.1774530542818
 20
8.39551840699024
 30
0.0
 11
18.16295471807301
 21
8.561235148159634
 31
0.0
  0
LINE
  5
1E9
  8
0
 62
     0
 10
18.15838929610669
 20
8.383943895105528
 30
0.0
 11
18.14501614337879
 21
8.53679973023827
 31
0.0
  0
LINE
  5
1EA
  8
0
 62
     0
 10
18.13932553793158
 20
8.372369383220816
 30
0.0
 11
18.12710078716588
 21
8.512098923860966
 31
0.0
  0
LINE
  5
1EB
  8
0
 62
     0
 10
18.12026177975647
 20
8.360794871336102
 30
0.0
 11
18.10920911800967
 21
8.487127373186805
 31
0.0
  0
LINE
  5
1EC
  8
0
 62
     0
 10
18.10119802158136
 20
8.34922035945139
 30
0.0
 11
18.09134162293369
 21
8.46187951151115
 31
0.0
  0
LINE
  5
1ED
  8
0
 62
     0
 10
18.08213426340626
 20
8.337645847566677
 30
0.0
 11
18.07349880844232
 21
8.43634954946263
 31
0.0
  0
LINE
  5
1EE
  8
0
 62
     0
 10
18.06317004973564
 20
8.324933536789208
 30
0.0
 11
18.05568120162931
 21
8.41053146233191
 31
0.0
  0
LINE
  5
1EF
  8
0
 62
     0
 10
18.04440432569031
 20
8.309952479213077
 30
0.0
 11
18.03788935136935
 21
8.384418976452782
 31
0.0
  0
LINE
  5
1F0
  8
0
 62
     0
 10
18.02563860164498
 20
8.294971421636946
 30
0.0
 11
18.02012382960014
 21
8.358005554547264
 31
0.0
  0
LINE
  5
1F1
  8
0
 62
     0
 10
18.00687287759966
 20
8.279990364060815
 30
0.0
 11
18.0023852327038
 21
8.331284379936651
 31
0.0
  0
LINE
  5
1F2
  8
0
 62
     0
 10
17.98810715355433
 20
8.265009306484682
 30
0.0
 11
17.98467418299697
 21
8.304248339509098
 31
0.0
  0
LINE
  5
1F3
  8
0
 62
     0
 10
17.969341429509
 20
8.250028248908551
 30
0.0
 11
17.96699133034046
 21
8.276890005321697
 31
0.0
  0
LINE
  5
1F4
  8
0
 62
     0
 10
17.95057570546368
 20
8.23504719133242
 30
0.0
 11
17.94933735388021
 21
8.249201614700633
 31
0.0
  0
LINE
  5
1F5
  8
0
 62
     0
 10
17.93180998141835
 20
8.220066133756287
 30
0.0
 11
17.93171296393315
 21
8.221175048686431
 31
0.0
  0
ENDBLK
  5
1F6
  8
ARBOLES
  0
BLOCK
  8
ARBOLES
  2
*X9
 70
     1
 10
0.0
 20
0.0
 30
0.0
  3
*X9
  1

  0
LINE
  5
1F8
  8
0
 62
     0
 10
18.58953856179026
 20
8.48196807601765
 30
0.0
 11
18.52842062897637
 21
8.828585097237665
 31
0.0
  0
LINE
  5
1F9
  8
0
 62
     0
 10
18.60363367519969
 20
8.517206125256148
 30
0.0
 11
18.54366576518783
 21
8.857301043066903
 31
0.0
  0
LINE
  5
1FA
  8
0
 62
     0
 10
18.61569300579748
 20
8.563989672543034
 30
0.0
 11
18.55907926397229
 21
8.885062157296751
 31
0.0
  0
LINE
  5
1FB
  8
0
 62
     0
 10
18.62556124177763
 20
8.623199534899964
 30
0.0
 11
18.5746499376211
 21
8.911931888575907
 31
0.0
  0
LINE
  5
1FC
  8
0
 62
     0
 10
18.63542947775779
 20
8.682409397256903
 30
0.0
 11
18.59036792802489
 21
8.937966145020914
 31
0.0
  0
LINE
  5
1FD
  8
0
 62
     0
 10
18.64529771373794
 20
8.741619259613833
 30
0.0
 11
18.60622449540892
 21
8.963214492357174
 31
0.0
  0
LINE
  5
1FE
  8
0
 62
     0
 10
18.65507800317798
 20
8.80132789158483
 30
0.0
 11
18.62221184854233
 21
8.987721116850725
 31
0.0
  0
LINE
  5
1FF
  8
0
 62
     0
 10
18.66378516100011
 20
8.867122555390495
 30
0.0
 11
18.63832300687122
 21
9.011525607189958
 31
0.0
  0
LINE
  5
200
  8
0
 62
     0
 10
18.67249231882224
 20
8.932917219196158
 30
0.0
 11
18.65455168752299
 21
9.034663595316086
 31
0.0
  0
LINE
  5
201
  8
0
 62
     0
 10
18.68119947664437
 20
8.998711883001823
 30
0.0
 11
18.67089221190115
 21
9.057167286150042
 31
0.0
  0
LINE
  5
202
  8
0
 62
     0
 10
18.68990663446651
 20
9.064506546807488
 30
0.0
 11
18.68733942786736
 21
9.079065898920433
 31
0.0
  0
LINE
  5
203
  8
0
 62
     0
 10
18.57544344838082
 20
8.44673002677915
 30
0.0
 11
18.51335663851075
 21
8.798841822833362
 31
0.0
  0
LINE
  5
204
  8
0
 62
     0
 10
18.56134833497139
 20
8.411491977540651
 30
0.0
 11
18.49848851123949
 21
8.76798775305576
 31
0.0
  0
LINE
  5
205
  8
0
 62
     0
 10
18.54725322156196
 20
8.376253928302152
 30
0.0
 11
18.48383333676519
 21
8.735925967952321
 31
0.0
  0
LINE
  5
206
  8
0
 62
     0
 10
18.53315810815252
 20
8.341015879063653
 30
0.0
 11
18.46941115175609
 21
8.702542833930691
 31
0.0
  0
LINE
  5
207
  8
0
 62
     0
 10
18.51906299474309
 20
8.305777829825146
 30
0.0
 11
18.45524570837708
 21
8.667703645770018
 31
0.0
  0
LINE
  5
208
  8
0
 62
     0
 10
18.50395640135605
 20
8.27627616859456
 30
0.0
 11
18.44136552253428
 21
8.631246681730337
 31
0.0
  0
LINE
  5
209
  8
0
 62
     0
 10
18.48857810400487
 20
8.248315417116098
 30
0.0
 11
18.42780533782343
 21
8.592974901088764
 31
0.0
  0
LINE
  5
20A
  8
0
 62
     0
 10
18.47319980665369
 20
8.220354665637638
 30
0.0
 11
18.41460822681714
 21
8.552644027147368
 31
0.0
  0
LINE
  5
20B
  8
0
 62
     0
 10
18.45782150930252
 20
8.192393914159176
 30
0.0
 11
18.40182870636094
 21
8.509944879511167
 31
0.0
  0
LINE
  5
20C
  8
0
 62
     0
 10
18.44244321195134
 20
8.164433162680716
 30
0.0
 11
18.38953753915781
 21
8.464476142949302
 31
0.0
  0
LINE
  5
20D
  8
0
 62
     0
 10
18.42742671910191
 20
8.134420515909191
 30
0.0
 11
18.37782949489446
 21
8.415700351860439
 31
0.0
  0
LINE
  5
20E
  8
0
 62
     0
 10
18.41475333265809
 20
8.09111945237817
 30
0.0
 11
18.3668366666031
 21
8.36286836943251
 31
0.0
  0
LINE
  5
20F
  8
0
 62
     0
 10
18.40207994621426
 20
8.047818388847139
 30
0.0
 11
18.35675315623904
 21
8.304879388775234
 31
0.0
  0
LINE
  5
210
  8
0
 62
     0
 10
18.38940655977044
 20
8.004517325316117
 30
0.0
 11
18.34788589316397
 21
8.23999272697982
 31
0.0
  0
LINE
  5
211
  8
0
 62
     0
 10
18.37713445960295
 20
7.958940454221639
 30
0.0
 11
18.34077638196692
 21
8.165137358915109
 31
0.0
  0
LINE
  5
212
  8
0
 62
     0
 10
18.36548685009153
 20
7.9098219206229
 30
0.0
 11
18.33657339009162
 21
8.073798300662652
 31
0.0
  0
LINE
  5
213
  8
0
 62
     0
 10
18.35383924058011
 20
7.860703387024161
 30
0.0
 11
18.3389304243377
 21
7.945255485531776
 31
0.0
  0
ENDBLK
  5
214
  8
ARBOLES
  0
BLOCK
  8
ARBOLES
  2
*X10
 70
     1
 10
0.0
 20
0.0
 30
0.0
  3
*X10
  1

  0
LINE
  5
216
  8
0
 62
     0
 10
18.76517756455176
 20
8.264136396674319
 30
0.0
 11
18.70347309058086
 21
8.433668045588695
 31
0.0
  0
LINE
  5
217
  8
0
 62
     0
 10
18.76829668881433
 20
8.31404276119771
 30
0.0
 11
18.70739523106814
 21
8.48136814116724
 31
0.0
  0
LINE
  5
218
  8
0
 62
     0
 10
18.77141581307689
 20
8.363949125721101
 30
0.0
 11
18.71131737155541
 21
8.529068236745786
 31
0.0
  0
LINE
  5
219
  8
0
 62
     0
 10
18.77299562376295
 20
8.418084719537426
 30
0.0
 11
18.71523951204269
 21
8.576768332324331
 31
0.0
  0
LINE
  5
21A
  8
0
 62
     0
 10
18.77299562376295
 20
8.476560807540686
 30
0.0
 11
18.71916165252996
 21
8.624468427902876
 31
0.0
  0
LINE
  5
21B
  8
0
 62
     0
 10
18.77299562376295
 20
8.535036895543946
 30
0.0
 11
18.72308379301723
 21
8.672168523481423
 31
0.0
  0
LINE
  5
21C
  8
0
 62
     0
 10
18.77299562376295
 20
8.593512983547207
 30
0.0
 11
18.72700593350451
 21
8.719868619059968
 31
0.0
  0
LINE
  5
21D
  8
0
 62
     0
 10
18.77299562376295
 20
8.651989071550464
 30
0.0
 11
18.73092807399178
 21
8.767568714638514
 31
0.0
  0
LINE
  5
21E
  8
0
 62
     0
 10
18.77299562376295
 20
8.710465159553724
 30
0.0
 11
18.73485021447906
 21
8.81526881021706
 31
0.0
  0
LINE
  5
21F
  8
0
 62
     0
 10
18.77299562376295
 20
8.768941247556995
 30
0.0
 11
18.73877235496633
 21
8.862968905795613
 31
0.0
  0
LINE
  5
220
  8
0
 62
     0
 10
18.76747464645123
 20
8.842586096057522
 30
0.0
 11
18.74269449545361
 21
8.91066900137416
 31
0.0
  0
LINE
  5
221
  8
0
 62
     0
 10
18.75919195738794
 20
8.923818685234542
 30
0.0
 11
18.74661663594088
 21
8.958369096952705
 31
0.0
  0
LINE
  5
222
  8
0
 62
     0
 10
18.75090926832464
 20
9.00505127441156
 30
0.0
 11
18.75053877642815
 21
9.00606919253125
 31
0.0
  0
LINE
  5
223
  8
0
 62
     0
 10
18.7620584402892
 20
8.21423003215092
 30
0.0
 11
18.69955095009359
 21
8.38596795001014
 31
0.0
  0
LINE
  5
224
  8
0
 62
     0
 10
18.75589292979806
 20
8.172693545001477
 30
0.0
 11
18.69562880960632
 21
8.338267854431594
 31
0.0
  0
LINE
  5
225
  8
0
 62
     0
 10
18.7484519242037
 20
8.134661451846739
 30
0.0
 11
18.69170666911904
 21
8.290567758853049
 31
0.0
  0
LINE
  5
226
  8
0
 62
     0
 10
18.74101091860935
 20
8.096629358692002
 30
0.0
 11
18.68778452863177
 21
8.242867663274502
 31
0.0
  0
LINE
  5
227
  8
0
 62
     0
 10
18.733569913015
 20
8.058597265537264
 30
0.0
 11
18.68386238814449
 21
8.195167567695957
 31
0.0
  0
LINE
  5
228
  8
0
 62
     0
 10
18.72612890742064
 20
8.020565172382527
 30
0.0
 11
18.67994024765722
 21
8.14746747211741
 31
0.0
  0
LINE
  5
229
  8
0
 62
     0
 10
18.71545859749193
 20
7.991405519966996
 30
0.0
 11
18.67601810716994
 21
8.099767376538866
 31
0.0
  0
LINE
  5
22A
  8
0
 62
     0
 10
18.70452337158549
 20
7.962973718218312
 30
0.0
 11
18.67209596668267
 21
8.05206728096032
 31
0.0
  0
LINE
  5
22B
  8
0
 62
     0
 10
18.69358814567905
 20
7.934541916469623
 30
0.0
 11
18.66817382619539
 21
8.004367185381765
 31
0.0
  0
LINE
  5
22C
  8
0
 62
     0
 10
18.68290941017162
 20
7.905405413141341
 30
0.0
 11
18.66425168570812
 21
7.95666708980322
 31
0.0
  0
LINE
  5
22D
  8
0
 62
     0
 10
18.67280249926127
 20
7.874697834644721
 30
0.0
 11
18.66032954522084
 21
7.908966994224675
 31
0.0
  0
LINE
  5
22E
  8
0
 62
     0
 10
18.66269558835091
 20
7.843990256148101
 30
0.0
 11
18.65640740473357
 21
7.861266898646129
 31
0.0
  0
LINE
  5
22F
  8
0
 62
     0
 10
18.65258867744056
 20
7.81328267765148
 30
0.0
 11
18.6524852642463
 21
7.813566803067584
 31
0.0
  0
ENDBLK
  5
230
  8
ARBOLES
  0
BLOCK
  8
ARBOLES
  2
*X11
 70
     1
 10
0.0
 20
0.0
 30
0.0
  3
*X11
  1

  0
LINE
  5
232
  8
0
 62
     0
 10
19.2
 20
9.377599942143418
 30
0.0
 11
19.2
 21
9.509702725060828
 31
0.0
  0
LINE
  5
233
  8
0
 62
     0
 10
19.18
 20
9.381349970420763
 30
0.0
 11
19.18
 21
9.509569016391495
 31
0.0
  0
LINE
  5
234
  8
0
 62
     0
 10
19.16
 20
9.385099998698106
 30
0.0
 11
19.16
 21
9.508465248246571
 31
0.0
  0
LINE
  5
235
  8
0
 62
     0
 10
19.14
 20
9.388850026975451
 30
0.0
 11
19.14
 21
9.506383582289162
 31
0.0
  0
LINE
  5
236
  8
0
 62
     0
 10
19.12
 20
9.392600055252796
 30
0.0
 11
19.12
 21
9.503309003737899
 31
0.0
  0
LINE
  5
237
  8
0
 62
     0
 10
19.1
 20
9.400316723594088
 30
0.0
 11
19.1
 21
9.499218767040722
 31
0.0
  0
LINE
  5
238
  8
0
 62
     0
 10
19.08
 20
9.408769527579508
 30
0.0
 11
19.08
 21
9.494081520007606
 31
0.0
  0
LINE
  5
239
  8
0
 62
     0
 10
19.06
 20
9.417222331564933
 30
0.0
 11
19.06
 21
9.487856024105518
 31
0.0
  0
LINE
  5
23A
  8
0
 62
     0
 10
19.04
 20
9.425675135550353
 30
0.0
 11
19.04
 21
9.480489340839108
 31
0.0
  0
LINE
  5
23B
  8
0
 62
     0
 10
19.02
 20
9.434127939535776
 30
0.0
 11
19.02
 21
9.471914280919766
 31
0.0
  0
LINE
  5
23C
  8
0
 62
     0
 10
19.0
 20
9.442580743521196
 30
0.0
 11
19.0
 21
9.46204579507502
 31
0.0
  0
LINE
  5
23D
  8
0
 62
     0
 10
19.22
 20
9.373849913866074
 30
0.0
 11
19.22
 21
9.508867318067717
 31
0.0
  0
LINE
  5
23E
  8
0
 62
     0
 10
19.24
 20
9.37009988558873
 30
0.0
 11
19.24
 21
9.507056878304248
 31
0.0
  0
LINE
  5
23F
  8
0
 62
     0
 10
19.26
 20
9.371552506109541
 30
0.0
 11
19.26
 21
9.504258415855752
 31
0.0
  0
LINE
  5
240
  8
0
 62
     0
 10
19.28
 20
9.374052524961103
 30
0.0
 11
19.28
 21
9.500451392636222
 31
0.0
  0
LINE
  5
241
  8
0
 62
     0
 10
19.3
 20
9.376552543812666
 30
0.0
 11
19.3
 21
9.4956069419249
 31
0.0
  0
LINE
  5
242
  8
0
 62
     0
 10
19.32
 20
9.37905256266423
 30
0.0
 11
19.32
 21
9.489686710793277
 31
0.0
  0
LINE
  5
243
  8
0
 62
     0
 10
19.34
 20
9.381552581515791
 30
0.0
 11
19.34
 21
9.482641210512826
 31
0.0
  0
LINE
  5
244
  8
0
 62
     0
 10
19.36
 20
9.384052600367355
 30
0.0
 11
19.36
 21
9.474407495297413
 31
0.0
  0
LINE
  5
245
  8
0
 62
     0
 10
19.38
 20
9.386552619218918
 30
0.0
 11
19.38
 21
9.46490588686554
 31
0.0
  0
LINE
  5
246
  8
0
 62
     0
 10
19.4
 20
9.389052638070481
 30
0.0
 11
19.4
 21
9.454035291257199
 31
0.0
  0
LINE
  5
247
  8
0
 62
     0
 10
19.42
 20
9.394661182981014
 30
0.0
 11
19.42
 21
9.44166635671192
 31
0.0
  0
LINE
  5
248
  8
0
 62
     0
 10
19.44
 20
9.400513528377244
 30
0.0
 11
19.44
 21
9.427631177228184
 31
0.0
  0
LINE
  5
249
  8
0
 62
     0
 10
19.46
 20
9.406365873773474
 30
0.0
 11
19.46
 21
9.411707192804236
 31
0.0
  0
ENDBLK
  5
24A
  8
ARBOLES
  0
BLOCK
  8
ARBOLES
  2
*X12
 70
     1
 10
0.0
 20
0.0
 30
0.0
  3
*X12
  1

  0
LINE
  5
24C
  8
0
 62
     0
 10
18.5
 20
9.419128351708643
 30
0.0
 11
18.5
 21
9.499672569358324
 31
0.0
  0
LINE
  5
24D
  8
0
 62
     0
 10
18.48
 20
9.42135059068781
 30
0.0
 11
18.48
 21
9.502916672569995
 31
0.0
  0
LINE
  5
24E
  8
0
 62
     0
 10
18.46
 20
9.423572829666977
 30
0.0
 11
18.46
 21
9.506173229314115
 31
0.0
  0
LINE
  5
24F
  8
0
 62
     0
 10
18.44
 20
9.428139672858128
 30
0.0
 11
18.44
 21
9.50944224328191
 31
0.0
  0
LINE
  5
250
  8
0
 62
     0
 10
18.42
 20
9.435639729412816
 30
0.0
 11
18.42
 21
9.512723718180197
 31
0.0
  0
LINE
  5
251
  8
0
 62
     0
 10
18.4
 20
9.443139785967505
 30
0.0
 11
18.4
 21
9.516017657731368
 31
0.0
  0
LINE
  5
252
  8
0
 62
     0
 10
18.38
 20
9.450639842522193
 30
0.0
 11
18.38
 21
9.519324065673459
 31
0.0
  0
LINE
  5
253
  8
0
 62
     0
 10
18.36
 20
9.458139899076881
 30
0.0
 11
18.36
 21
9.522642945760197
 31
0.0
  0
LINE
  5
254
  8
0
 62
     0
 10
18.34
 20
9.46563995563157
 30
0.0
 11
18.34
 21
9.525974301760925
 31
0.0
  0
LINE
  5
255
  8
0
 62
     0
 10
18.32
 20
9.473865841597853
 30
0.0
 11
18.32
 21
9.52931813746072
 31
0.0
  0
LINE
  5
256
  8
0
 62
     0
 10
18.3
 20
9.487408292291727
 30
0.0
 11
18.3
 21
9.53267445666036
 31
0.0
  0
LINE
  5
257
  8
0
 62
     0
 10
18.28
 20
9.500950742985601
 30
0.0
 11
18.28
 21
9.536043263176381
 31
0.0
  0
LINE
  5
258
  8
0
 62
     0
 10
18.26
 20
9.514493193679476
 30
0.0
 11
18.26
 21
9.53942456084107
 31
0.0
  0
LINE
  5
259
  8
0
 62
     0
 10
18.24
 20
9.52803564437335
 30
0.0
 11
18.24
 21
9.542818353502525
 31
0.0
  0
LINE
  5
25A
  8
0
 62
     0
 10
18.22
 20
9.541578095067228
 30
0.0
 11
18.22
 21
9.546224645024608
 31
0.0
  0
LINE
  5
25B
  8
0
 62
     0
 10
18.52
 20
9.416906112729476
 30
0.0
 11
18.52
 21
9.496440916003479
 31
0.0
  0
LINE
  5
25C
  8
0
 62
     0
 10
18.54
 20
9.41468387375031
 30
0.0
 11
18.54
 21
9.493221708845311
 31
0.0
  0
LINE
  5
25D
  8
0
 62
     0
 10
18.56
 20
9.412461634771141
 30
0.0
 11
18.56
 21
9.490014944239292
 31
0.0
  0
LINE
  5
25E
  8
0
 62
     0
 10
18.58
 20
9.410239395791974
 30
0.0
 11
18.58
 21
9.486820618556294
 31
0.0
  0
LINE
  5
25F
  8
0
 62
     0
 10
18.6
 20
9.410601595329355
 30
0.0
 11
18.6
 21
9.48363872818274
 31
0.0
  0
LINE
  5
260
  8
0
 62
     0
 10
18.62
 20
9.414237986386174
 30
0.0
 11
18.62
 21
9.480469269520484
 31
0.0
  0
LINE
  5
261
  8
0
 62
     0
 10
18.64
 20
9.417874377442992
 30
0.0
 11
18.64
 21
9.477312238986826
 31
0.0
  0
LINE
  5
262
  8
0
 62
     0
 10
18.66
 20
9.421510768499811
 30
0.0
 11
18.66
 21
9.474167633014446
 31
0.0
  0
LINE
  5
263
  8
0
 62
     0
 10
18.68
 20
9.42514715955663
 30
0.0
 11
18.68
 21
9.471035448051481
 31
0.0
  0
LINE
  5
264
  8
0
 62
     0
 10
18.7
 20
9.42878355061345
 30
0.0
 11
18.7
 21
9.467915680561418
 31
0.0
  0
LINE
  5
265
  8
0
 62
     0
 10
18.72
 20
9.432419941670267
 30
0.0
 11
18.72
 21
9.464808327023093
 31
0.0
  0
LINE
  5
266
  8
0
 62
     0
 10
18.74
 20
9.448810255012011
 30
0.0
 11
18.74
 21
9.461713383930658
 31
0.0
  0
ENDBLK
  5
267
  8
ARBOLES
  0
BLOCK
  8
ARBOLES
  2
*X13
 70
     1
 10
0.0
 20
0.0
 30
0.0
  3
*X13
  1

  0
LINE
  5
269
  8
0
 62
     0
 10
18.48
 20
9.614500788722655
 30
0.0
 11
18.48
 21
9.772507018162354
 31
0.0
  0
LINE
  5
26A
  8
0
 62
     0
 10
18.46
 20
9.625270100698618
 30
0.0
 11
18.46
 21
9.783889628894517
 31
0.0
  0
LINE
  5
26B
  8
0
 62
     0
 10
18.44
 20
9.636039412674581
 30
0.0
 11
18.44
 21
9.79466500046107
 31
0.0
  0
LINE
  5
26C
  8
0
 62
     0
 10
18.42
 20
9.646808724650542
 30
0.0
 11
18.42
 21
9.80485538974569
 31
0.0
  0
LINE
  5
26D
  8
0
 62
     0
 10
18.4
 20
9.657578036626505
 30
0.0
 11
18.4
 21
9.814480854912812
 31
0.0
  0
LINE
  5
26E
  8
0
 62
     0
 10
18.38
 20
9.66834734860247
 30
0.0
 11
18.38
 21
9.823559508078745
 31
0.0
  0
LINE
  5
26F
  8
0
 62
     0
 10
18.36
 20
9.681032910983468
 30
0.0
 11
18.36
 21
9.832107729245621
 31
0.0
  0
LINE
  5
270
  8
0
 62
     0
 10
18.34
 20
9.695699688245968
 30
0.0
 11
18.34
 21
9.840140348360167
 31
0.0
  0
LINE
  5
271
  8
0
 62
     0
 10
18.32
 20
9.71036646550847
 30
0.0
 11
18.32
 21
9.847670800948688
 31
0.0
  0
LINE
  5
272
  8
0
 62
     0
 10
18.3
 20
9.725033242770971
 30
0.0
 11
18.3
 21
9.854711261692515
 31
0.0
  0
LINE
  5
273
  8
0
 62
     0
 10
18.28
 20
9.739700020033473
 30
0.0
 11
18.28
 21
9.861272759461876
 31
0.0
  0
LINE
  5
274
  8
0
 62
     0
 10
18.26
 20
9.754366797295974
 30
0.0
 11
18.26
 21
9.867365276662282
 31
0.0
  0
LINE
  5
275
  8
0
 62
     0
 10
18.24
 20
9.776918607723305
 30
0.0
 11
18.24
 21
9.872997835222005
 31
0.0
  0
LINE
  5
276
  8
0
 62
     0
 10
18.22
 20
9.805595541952314
 30
0.0
 11
18.22
 21
9.878178571130464
 31
0.0
  0
LINE
  5
277
  8
0
 62
     0
 10
18.2
 20
9.83427247618132
 30
0.0
 11
18.2
 21
9.882914799100442
 31
0.0
  0
LINE
  5
278
  8
0
 62
     0
 10
18.18
 20
9.862949410410327
 30
0.0
 11
18.18
 21
9.887213068654965
 31
0.0
  0
LINE
  5
279
  8
0
 62
     0
 10
18.5
 20
9.603731476746692
 30
0.0
 11
18.5
 21
9.760492412544746
 31
0.0
  0
LINE
  5
27A
  8
0
 62
     0
 10
18.52
 20
9.59296216477073
 30
0.0
 11
18.52
 21
9.747818198770611
 31
0.0
  0
LINE
  5
27B
  8
0
 62
     0
 10
18.54
 20
9.5846569313448
 30
0.0
 11
18.54
 21
9.734453474282299
 31
0.0
  0
LINE
  5
27C
  8
0
 62
     0
 10
18.56
 20
9.576964565647684
 30
0.0
 11
18.56
 21
9.72036352363042
 31
0.0
  0
LINE
  5
27D
  8
0
 62
     0
 10
18.58
 20
9.569272199950566
 30
0.0
 11
18.58
 21
9.70550917807438
 31
0.0
  0
LINE
  5
27E
  8
0
 62
     0
 10
18.6
 20
9.56157983425345
 30
0.0
 11
18.6
 21
9.689846025011176
 31
0.0
  0
LINE
  5
27F
  8
0
 62
     0
 10
18.62
 20
9.553887468556335
 30
0.0
 11
18.62
 21
9.67332342190648
 31
0.0
  0
LINE
  5
280
  8
0
 62
     0
 10
18.64
 20
9.546195102859217
 30
0.0
 11
18.64
 21
9.655883252224157
 31
0.0
  0
LINE
  5
281
  8
0
 62
     0
 10
18.66
 20
9.538502737162101
 30
0.0
 11
18.66
 21
9.63745833568135
 31
0.0
  0
LINE
  5
282
  8
0
 62
     0
 10
18.68
 20
9.53126207575379
 30
0.0
 11
18.68
 21
9.617970367498879
 31
0.0
  0
LINE
  5
283
  8
0
 62
     0
 10
18.7
 20
9.528410879683454
 30
0.0
 11
18.7
 21
9.59732720363752
 31
0.0
  0
LINE
  5
284
  8
0
 62
     0
 10
18.72
 20
9.525559683613116
 30
0.0
 11
18.72
 21
9.575419218302349
 31
0.0
  0
LINE
  5
285
  8
0
 62
     0
 10
18.74
 20
9.522708487542777
 30
0.0
 11
18.74
 21
9.552114313010371
 31
0.0
  0
LINE
  5
286
  8
0
 62
     0
 10
18.76
 20
9.51985729147244
 30
0.0
 11
18.76
 21
9.527250910024895
 31
0.0
  0
ENDBLK
  5
287
  8
ARBOLES
  0
BLOCK
  8
ARBOLES
  2
*X14
 70
     1
 10
0.0
 20
0.0
 30
0.0
  3
*X14
  1

  0
LINE
  5
289
  8
0
 62
     0
 10
18.53863343186788
 20
9.709921332406783
 30
0.0
 11
18.61815395861025
 21
9.804690205836994
 31
0.0
  0
LINE
  5
28A
  8
0
 62
     0
 10
18.55316070319421
 20
9.69611978366332
 30
0.0
 11
18.62958210543899
 21
9.787195264339628
 31
0.0
  0
LINE
  5
28B
  8
0
 62
     0
 10
18.56768797452054
 20
9.682318234919858
 30
0.0
 11
18.64099842888771
 21
9.769686232286647
 31
0.0
  0
LINE
  5
28C
  8
0
 62
     0
 10
18.58221524584687
 20
9.668516686176398
 30
0.0
 11
18.65240291987831
 21
9.75216309885919
 31
0.0
  0
LINE
  5
28D
  8
0
 62
     0
 10
18.59777754537793
 20
9.655948636014353
 30
0.0
 11
18.66379556929583
 21
9.734625853194483
 31
0.0
  0
LINE
  5
28E
  8
0
 62
     0
 10
18.61410141387336
 20
9.644288188401609
 30
0.0
 11
18.67517636798837
 21
9.717074484385694
 31
0.0
  0
LINE
  5
28F
  8
0
 62
     0
 10
18.63042528236879
 20
9.632627740788864
 30
0.0
 11
18.68654530676691
 21
9.699508981481795
 31
0.0
  0
LINE
  5
290
  8
0
 62
     0
 10
18.64674915086422
 20
9.620967293176122
 30
0.0
 11
18.69790237640525
 21
9.681929333487421
 31
0.0
  0
LINE
  5
291
  8
0
 62
     0
 10
18.66307301935965
 20
9.609306845563378
 30
0.0
 11
18.70924756763985
 21
9.664335529362726
 31
0.0
  0
LINE
  5
292
  8
0
 62
     0
 10
18.6808114342904
 20
9.59933218874682
 30
0.0
 11
18.72058087116974
 21
9.64672755802322
 31
0.0
  0
LINE
  5
293
  8
0
 62
     0
 10
18.69940658639229
 20
9.590378551531876
 30
0.0
 11
18.73190227765637
 21
9.629105408339676
 31
0.0
  0
LINE
  5
294
  8
0
 62
     0
 10
18.71800173849418
 20
9.581424914316932
 30
0.0
 11
18.74321177772351
 21
9.611469069137918
 31
0.0
  0
LINE
  5
295
  8
0
 62
     0
 10
18.73659689059607
 20
9.572471277101988
 30
0.0
 11
18.75450936195709
 21
9.59381852919872
 31
0.0
  0
LINE
  5
296
  8
0
 62
     0
 10
18.75519204269796
 20
9.563517639887042
 30
0.0
 11
18.76579502090514
 21
9.576153777257646
 31
0.0
  0
LINE
  5
297
  8
0
 62
     0
 10
18.77374465800765
 20
9.554513309297171
 30
0.0
 11
18.77706874507762
 21
9.558474802004906
 31
0.0
  0
LINE
  5
298
  8
0
 62
     0
 10
18.52410616054155
 20
9.723722881150243
 30
0.0
 11
18.60671399744287
 21
9.822171067553832
 31
0.0
  0
LINE
  5
299
  8
0
 62
     0
 10
18.51036805880769
 20
9.738464925590709
 30
0.0
 11
18.59526223094159
 21
9.83963786022159
 31
0.0
  0
LINE
  5
29A
  8
0
 62
     0
 10
18.50225420247971
 20
9.759909684699252
 30
0.0
 11
18.58379866807468
 21
9.857090594528227
 31
0.0
  0
LINE
  5
29B
  8
0
 62
     0
 10
18.49414034615173
 20
9.781354443807796
 30
0.0
 11
18.572323317774
 21
9.87452928111833
 31
0.0
  0
LINE
  5
29C
  8
0
 62
     0
 10
18.48602648982375
 20
9.80279920291634
 30
0.0
 11
18.56083618893517
 21
9.891953930593269
 31
0.0
  0
LINE
  5
29D
  8
0
 62
     0
 10
18.47791263349577
 20
9.824243962024884
 30
0.0
 11
18.54933729041764
 21
9.909364553511335
 31
0.0
  0
LINE
  5
29E
  8
0
 62
     0
 10
18.46979877716779
 20
9.845688721133428
 30
0.0
 11
18.53782663104482
 21
9.926761160387853
 31
0.0
  0
LINE
  5
29F
  8
0
 62
     0
 10
18.46168492083981
 20
9.867133480241973
 30
0.0
 11
18.52630421960419
 21
9.944143761695344
 31
0.0
  0
LINE
  5
2A0
  8
0
 62
     0
 10
18.45436437843578
 20
9.889523674069446
 30
0.0
 11
18.51477006484743
 21
9.961512367863637
 31
0.0
  0
LINE
  5
2A1
  8
0
 62
     0
 10
18.44790496787802
 20
9.912940124868392
 30
0.0
 11
18.50322417549048
 21
9.978866989280016
 31
0.0
  0
LINE
  5
2A2
  8
0
 62
     0
 10
18.44144555732025
 20
9.936356575667338
 30
0.0
 11
18.49166656021374
 21
9.996207636289341
 31
0.0
  0
LINE
  5
2A3
  8
0
 62
     0
 10
18.43498614676248
 20
9.959773026466285
 30
0.0
 11
18.48009722766207
 21
10.01353431919419
 31
0.0
  0
LINE
  5
2A4
  8
0
 62
     0
 10
18.42852673620471
 20
9.98318947726523
 30
0.0
 11
18.46851618644502
 21
10.03084704825499
 31
0.0
  0
LINE
  5
2A5
  8
0
 62
     0
 10
18.4233553042165
 20
10.00814088115163
 30
0.0
 11
18.45692344513682
 21
10.04814583369013
 31
0.0
  0
LINE
  5
2A6
  8
0
 62
     0
 10
18.41870779128811
 20
10.0337166674598
 30
0.0
 11
18.44531901227657
 21
10.06543068567612
 31
0.0
  0
LINE
  5
2A7
  8
0
 62
     0
 10
18.41406027835972
 20
10.05929245376798
 30
0.0
 11
18.43370289636832
 21
10.08270161434769
 31
0.0
  0
LINE
  5
2A8
  8
0
 62
     0
 10
18.40941276543133
 20
10.08486824007615
 30
0.0
 11
18.42207510588118
 21
10.09995862979791
 31
0.0
  0
LINE
  5
2A9
  8
0
 62
     0
 10
18.40476525250294
 20
10.11044402638432
 30
0.0
 11
18.41043564924944
 21
10.11720174207839
 31
0.0
  0
ENDBLK
  5
2AA
  8
ARBOLES
  0
BLOCK
  8
ARBOLES
  2
*X15
 70
     1
 10
0.0
 20
0.0
 30
0.0
  3
*X15
  1

  0
LINE
  5
2AC
  8
0
 62
     0
 10
19.21514439556167
 20
9.549959463107086
 30
0.0
 11
19.12152376715234
 21
9.643580091516414
 31
0.0
  0
LINE
  5
2AD
  8
0
 62
     0
 10
19.23352887301891
 20
9.5598592568973
 30
0.0
 11
19.13971284012554
 21
9.653675289790673
 31
0.0
  0
LINE
  5
2AE
  8
0
 62
     0
 10
19.25191335047616
 20
9.569759050687514
 30
0.0
 11
19.15843531901652
 21
9.663237082147157
 31
0.0
  0
LINE
  5
2AF
  8
0
 62
     0
 10
19.27029782793341
 20
9.579658844477727
 30
0.0
 11
19.17770951563456
 21
9.67224715677657
 31
0.0
  0
LINE
  5
2B0
  8
0
 62
     0
 10
19.28786745969129
 20
9.590373483967314
 30
0.0
 11
19.19755695865479
 21
9.68068398500381
 31
0.0
  0
LINE
  5
2B1
  8
0
 62
     0
 10
19.30418498785147
 20
9.602340227054595
 30
0.0
 11
19.21800291902547
 21
9.68852229588059
 31
0.0
  0
LINE
  5
2B2
  8
0
 62
     0
 10
19.32050251601165
 20
9.614306970141879
 30
0.0
 11
19.23907707945622
 21
9.695732406697301
 31
0.0
  0
LINE
  5
2B3
  8
0
 62
     0
 10
19.33682004417183
 20
9.62627371322916
 30
0.0
 11
19.26081439541719
 21
9.702279361983802
 31
0.0
  0
LINE
  5
2B4
  8
0
 62
     0
 10
19.35070420981186
 20
9.640673818836582
 30
0.0
 11
19.28325621543115
 21
9.7081218132173
 31
0.0
  0
LINE
  5
2B5
  8
0
 62
     0
 10
19.36417494692756
 20
9.655487352968347
 30
0.0
 11
19.30645175949145
 21
9.713210540404457
 31
0.0
  0
LINE
  5
2B6
  8
0
 62
     0
 10
19.37764568404326
 20
9.670300887100113
 30
0.0
 11
19.33046010307797
 21
9.717486468065399
 31
0.0
  0
LINE
  5
2B7
  8
0
 62
     0
 10
19.39111642115895
 20
9.685114421231878
 30
0.0
 11
19.3553528927413
 21
9.720877949649527
 31
0.0
  0
LINE
  5
2B8
  8
0
 62
     0
 10
19.40458715827465
 20
9.699927955363647
 30
0.0
 11
19.38121815028395
 21
9.723296963354345
 31
0.0
  0
LINE
  5
2B9
  8
0
 62
     0
 10
19.41805789539034
 20
9.714741489495411
 30
0.0
 11
19.40816575011868
 21
9.72463363476708
 31
0.0
  0
LINE
  5
2BA
  8
0
 62
     0
 10
19.19675991810442
 20
9.540059669316872
 30
0.0
 11
19.10385259005975
 21
9.632966997361539
 31
0.0
  0
LINE
  5
2BB
  8
0
 62
     0
 10
19.17760377978388
 20
9.530931536389952
 30
0.0
 11
19.08668627141046
 21
9.621849044763367
 31
0.0
  0
LINE
  5
2BC
  8
0
 62
     0
 10
19.15441087125608
 20
9.525840173670288
 30
0.0
 11
19.07001398528914
 21
9.610237059637225
 31
0.0
  0
LINE
  5
2BD
  8
0
 62
     0
 10
19.13121796272829
 20
9.520748810950623
 30
0.0
 11
19.05382691118421
 21
9.598139862494701
 31
0.0
  0
LINE
  5
2BE
  8
0
 62
     0
 10
19.10802505420048
 20
9.515657448230959
 30
0.0
 11
19.03811807311559
 21
9.585564429315854
 31
0.0
  0
LINE
  5
2BF
  8
0
 62
     0
 10
19.08483214567269
 20
9.510566085511295
 30
0.0
 11
19.0228822168467
 21
9.57251601433728
 31
0.0
  0
LINE
  5
2C0
  8
0
 62
     0
 10
19.06163923714489
 20
9.50547472279163
 30
0.0
 11
19.00811571996888
 21
9.558998239967632
 31
0.0
  0
LINE
  5
2C1
  8
0
 62
     0
 10
19.03844632861709
 20
9.500383360071966
 30
0.0
 11
18.99381653118729
 21
9.54501315750177
 31
0.0
  0
LINE
  5
2C2
  8
0
 62
     0
 10
19.01472935755247
 20
9.495816059889119
 30
0.0
 11
18.97998413639928
 21
9.53056128104231
 31
0.0
  0
LINE
  5
2C3
  8
0
 62
     0
 10
18.99005570493335
 20
9.492205441260776
 30
0.0
 11
18.96661955024492
 21
9.515641595949207
 31
0.0
  0
LINE
  5
2C4
  8
0
 62
     0
 10
18.96538205231424
 20
9.488594822632432
 30
0.0
 11
18.953725332803
 21
9.50025154214367
 31
0.0
  0
ENDBLK
  5
2C5
  8
ARBOLES
  0
BLOCK
  8
ARBOLES
  2
*X16
 70
     1
 10
0.0
 20
0.0
 30
0.0
  3
*X16
  1

  0
LINE
  5
2C7
  8
0
 62
     0
 10
19.17842178193938
 20
9.728103432966687
 30
0.0
 11
19.09009014497119
 21
9.816435069934869
 31
0.0
  0
LINE
  5
2C8
  8
0
 62
     0
 10
19.19054329076901
 20
9.74426619538451
 30
0.0
 11
19.10119102405351
 21
9.833618462100011
 31
0.0
  0
LINE
  5
2C9
  8
0
 62
     0
 10
19.20266479959865
 20
9.760428957802333
 30
0.0
 11
19.11237386564913
 21
9.850719891751854
 31
0.0
  0
LINE
  5
2CA
  8
0
 62
     0
 10
19.21478630842829
 20
9.776591720220155
 30
0.0
 11
19.12363838505392
 21
9.86773964359453
 31
0.0
  0
LINE
  5
2CB
  8
0
 62
     0
 10
19.22690781725793
 20
9.792754482637978
 30
0.0
 11
19.13498430668486
 21
9.88467799321105
 31
0.0
  0
LINE
  5
2CC
  8
0
 62
     0
 10
19.23902932608757
 20
9.8089172450558
 30
0.0
 11
19.14641136394108
 21
9.901535207202286
 31
0.0
  0
LINE
  5
2CD
  8
0
 62
     0
 10
19.24793214151808
 20
9.82829870087275
 30
0.0
 11
19.15791929907036
 21
9.918311543320465
 31
0.0
  0
LINE
  5
2CE
  8
0
 62
     0
 10
19.25682120081125
 20
9.847693912827044
 30
0.0
 11
19.16950786304097
 21
9.935007250597325
 31
0.0
  0
LINE
  5
2CF
  8
0
 62
     0
 10
19.26571026010443
 20
9.867089124781332
 30
0.0
 11
19.18117681541866
 21
9.951622569467094
 31
0.0
  0
LINE
  5
2D0
  8
0
 62
     0
 10
19.2745993193976
 20
9.88648433673562
 30
0.0
 11
19.19292592424873
 21
9.968157731884494
 31
0.0
  0
LINE
  5
2D1
  8
0
 62
     0
 10
19.28278000423233
 20
9.906587923148354
 30
0.0
 11
19.20475496594288
 21
9.984612961437806
 31
0.0
  0
LINE
  5
2D2
  8
0
 62
     0
 10
19.28860302177873
 20
9.929049176849414
 30
0.0
 11
19.21666372517092
 21
10.00098847345722
 31
0.0
  0
LINE
  5
2D3
  8
0
 62
     0
 10
19.29442603932513
 20
9.951510430550474
 30
0.0
 11
19.22865199475703
 21
10.01728447511857
 31
0.0
  0
LINE
  5
2D4
  8
0
 62
     0
 10
19.30024905687153
 20
9.973971684251536
 30
0.0
 11
19.24071957558052
 21
10.03350116554254
 31
0.0
  0
LINE
  5
2D5
  8
0
 62
     0
 10
19.30607207441793
 20
9.996432937952596
 30
0.0
 11
19.25286627648103
 21
10.04963873588949
 31
0.0
  0
LINE
  5
2D6
  8
0
 62
     0
 10
19.31033981515757
 20
10.02044946846042
 30
0.0
 11
19.26509191416794
 21
10.06569736945005
 31
0.0
  0
LINE
  5
2D7
  8
0
 62
     0
 10
19.31358122168252
 20
10.04549233318293
 30
0.0
 11
19.27739631313399
 21
10.08167724173146
 31
0.0
  0
LINE
  5
2D8
  8
0
 62
     0
 10
19.31682262820747
 20
10.07053519790544
 30
0.0
 11
19.28977930557301
 21
10.0975785205399
 31
0.0
  0
LINE
  5
2D9
  8
0
 62
     0
 10
19.32006403473243
 20
10.09557806262795
 30
0.0
 11
19.30224073130156
 21
10.11340136605882
 31
0.0
  0
LINE
  5
2DA
  8
0
 62
     0
 10
19.32330544125738
 20
10.12062092735047
 30
0.0
 11
19.31478043768453
 21
10.12914593092331
 31
0.0
  0
LINE
  5
2DB
  8
0
 62
     0
 10
19.16630027310974
 20
9.711940670548865
 30
0.0
 11
19.07907152237204
 21
9.799169421286559
 31
0.0
  0
LINE
  5
2DC
  8
0
 62
     0
 10
19.15309421162318
 20
9.696862460787948
 30
0.0
 11
19.06813545964213
 21
9.781821212769001
 31
0.0
  0
LINE
  5
2DD
  8
0
 62
     0
 10
19.13772265100134
 20
9.683949750162336
 30
0.0
 11
19.05728226974028
 21
9.764390131423397
 31
0.0
  0
LINE
  5
2DE
  8
0
 62
     0
 10
19.12235109037949
 20
9.671037039536722
 30
0.0
 11
19.04651227536071
 21
9.746875854555505
 31
0.0
  0
LINE
  5
2DF
  8
0
 62
     0
 10
19.10697952975764
 20
9.65812432891111
 30
0.0
 11
19.03582580910225
 21
9.7292780495665
 31
0.0
  0
LINE
  5
2E0
  8
0
 62
     0
 10
19.09160796913579
 20
9.645211618285497
 30
0.0
 11
19.02522321364416
 21
9.711596373777128
 31
0.0
  0
LINE
  5
2E1
  8
0
 62
     0
 10
19.07623640851394
 20
9.632298907659886
 30
0.0
 11
19.01470484192879
 21
9.693830474245038
 31
0.0
  0
LINE
  5
2E2
  8
0
 62
     0
 10
19.06061679058061
 20
9.619634254345762
 30
0.0
 11
19.00427105735143
 21
9.675979987574934
 31
0.0
  0
LINE
  5
2E3
  8
0
 62
     0
 10
19.04178003261227
 20
9.610186741066634
 30
0.0
 11
18.99392223395753
 21
9.658044539721375
 31
0.0
  0
LINE
  5
2E4
  8
0
 62
     0
 10
19.02294327464394
 20
9.600739227787505
 30
0.0
 11
18.98365875664751
 21
9.640023745783926
 31
0.0
  0
LINE
  5
2E5
  8
0
 62
     0
 10
19.0041065166756
 20
9.591291714508378
 30
0.0
 11
18.9734810213896
 21
9.621917209794377
 31
0.0
  0
LINE
  5
2E6
  8
0
 62
     0
 10
18.98526975870727
 20
9.58184420122925
 30
0.0
 11
18.9633894354408
 21
9.603724524495718
 31
0.0
  0
LINE
  5
2E7
  8
0
 62
     0
 10
18.96643300073893
 20
9.572396687950121
 30
0.0
 11
18.95338441757645
 21
9.585445271112608
 31
0.0
  0
LINE
  5
2E8
  8
0
 62
     0
 10
18.9475962427706
 20
9.562949174670994
 30
0.0
 11
18.94346639832861
 21
9.56707901911298
 31
0.0
  0
ENDBLK
  5
2E9
  8
ARBOLES
  0
BLOCK
  8
ARBOLES
  2
*X17
 70
     1
 10
0.0
 20
0.0
 30
0.0
  3
*X17
  1

  0
LINE
  5
2EB
  8
0
 62
     0
 10
19.03951935729168
 20
9.960268286856408
 30
0.0
 11
19.11378133074755
 21
10.03453026031227
 31
0.0
  0
LINE
  5
2EC
  8
0
 62
     0
 10
19.0539901932857
 20
10.00302339409789
 30
0.0
 11
19.12334298527865
 21
10.07237618609084
 31
0.0
  0
LINE
  5
2ED
  8
0
 62
     0
 10
19.06846102927971
 20
10.04577850133937
 30
0.0
 11
19.13160442527778
 21
10.10892189733743
 31
0.0
  0
LINE
  5
2EE
  8
0
 62
     0
 10
19.08293186527373
 20
10.08853360858084
 30
0.0
 11
19.13870974131325
 21
10.14431148462037
 31
0.0
  0
LINE
  5
2EF
  8
0
 62
     0
 10
19.09740270126775
 20
10.13128871582232
 30
0.0
 11
19.14477652322313
 21
10.1786625377777
 31
0.0
  0
LINE
  5
2F0
  8
0
 62
     0
 10
19.11187353726176
 20
10.1740438230638
 30
0.0
 11
19.14990223955093
 21
10.21207252535296
 31
0.0
  0
LINE
  5
2F1
  8
0
 62
     0
 10
19.12634437325578
 20
10.21679893030528
 30
0.0
 11
19.15416876422967
 21
10.24462332127917
 31
0.0
  0
LINE
  5
2F2
  8
0
 62
     0
 10
19.14081520924979
 20
10.25955403754675
 30
0.0
 11
19.15764566916125
 21
10.27638449745821
 31
0.0
  0
LINE
  5
2F3
  8
0
 62
     0
 10
19.15528604524381
 20
10.30230914478823
 30
0.0
 11
19.16039267097613
 21
10.30741577052056
 31
0.0
  0
LINE
  5
2F4
  8
0
 62
     0
 10
19.02504852129766
 20
9.917513179614929
 30
0.0
 11
19.10273961525492
 21
9.99520427357218
 31
0.0
  0
LINE
  5
2F5
  8
0
 62
     0
 10
19.01057768530365
 20
9.874758072373453
 30
0.0
 11
19.0899883387297
 21
9.954168725799503
 31
0.0
  0
LINE
  5
2F6
  8
0
 62
     0
 10
18.99610684930963
 20
9.832002965131974
 30
0.0
 11
19.07522659105402
 21
9.911122706876357
 31
0.0
  0
LINE
  5
2F7
  8
0
 62
     0
 10
18.98163601331562
 20
9.789247857890496
 30
0.0
 11
19.05804619770381
 21
9.865658042278689
 31
0.0
  0
LINE
  5
2F8
  8
0
 62
     0
 10
18.9671651773216
 20
9.746492750649017
 30
0.0
 11
19.03786865432303
 21
9.817196227650452
 31
0.0
  0
LINE
  5
2F9
  8
0
 62
     0
 10
18.95269434132759
 20
9.70373764340754
 30
0.0
 11
19.01382428091319
 21
9.764867582993151
 31
0.0
  0
LINE
  5
2FA
  8
0
 62
     0
 10
18.93822350533357
 20
9.660982536166063
 30
0.0
 11
18.98449155619012
 21
9.707250587022616
 31
0.0
  0
LINE
  5
2FB
  8
0
 62
     0
 10
18.92375266933955
 20
9.618227428924584
 30
0.0
 11
18.94722610310528
 21
9.641700862690316
 31
0.0
  0
ENDBLK
  5
2FC
  8
ARBOLES
  0
BLOCK
  8
ARBOLES
  2
*X18
 70
     1
 10
0.0
 20
0.0
 30
0.0
  3
*X18
  1

  0
LINE
  5
2FE
  8
0
 62
     0
 10
18.89623758848763
 20
9.89993289566325
 30
0.0
 11
18.99433829741996
 21
9.935638633675032
 31
0.0
  0
LINE
  5
2FF
  8
0
 62
     0
 10
18.89980522078821
 20
9.922514963076988
 30
0.0
 11
19.00000823653165
 21
9.958985878191307
 31
0.0
  0
LINE
  5
300
  8
0
 62
     0
 10
18.90376608597758
 20
9.945240155557377
 30
0.0
 11
19.00567817564333
 21
9.98233312270758
 31
0.0
  0
LINE
  5
301
  8
0
 62
     0
 10
18.90813114701013
 20
9.968112463293501
 30
0.0
 11
19.01134811475502
 21
10.00568036722385
 31
0.0
  0
LINE
  5
302
  8
0
 62
     0
 10
18.91291221222424
 20
9.991136184169038
 30
0.0
 11
19.0170180538667
 21
10.02902761174013
 31
0.0
  0
LINE
  5
303
  8
0
 62
     0
 10
18.91812201951424
 20
10.01431595439838
 30
0.0
 11
19.02268799297839
 21
10.0523748562564
 31
0.0
  0
LINE
  5
304
  8
0
 62
     0
 10
18.92377433212296
 20
10.03765678339224
 30
0.0
 11
19.02617655203217
 21
10.07492814336197
 31
0.0
  0
LINE
  5
305
  8
0
 62
     0
 10
18.92988404806223
 20
10.06116409358347
 30
0.0
 11
19.0283852565615
 21
10.09701560151646
 31
0.0
  0
LINE
  5
306
  8
0
 62
     0
 10
18.93646732559562
 20
10.08484376609906
 30
0.0
 11
19.03059396109082
 21
10.11910305967094
 31
0.0
  0
LINE
  5
307
  8
0
 62
     0
 10
18.94354172775125
 20
10.10870219335846
 30
0.0
 11
19.03280266562014
 21
10.14119051782542
 31
0.0
  0
LINE
  5
308
  8
0
 62
     0
 10
18.95112638950492
 20
10.13274633992329
 30
0.0
 11
19.03501137014946
 21
10.1632779759799
 31
0.0
  0
LINE
  5
309
  8
0
 62
     0
 10
18.95924221213146
 20
10.15698381323545
 30
0.0
 11
19.03722007467879
 21
10.18536543413438
 31
0.0
  0
LINE
  5
30A
  8
0
 62
     0
 10
18.96791209031894
 20
10.18142294627993
 30
0.0
 11
19.0397266781638
 21
10.20756131864155
 31
0.0
  0
LINE
  5
30B
  8
0
 62
     0
 10
18.97716117906006
 20
10.2060728947253
 30
0.0
 11
19.04228382167871
 21
10.22977559821524
 31
0.0
  0
LINE
  5
30C
  8
0
 62
     0
 10
18.98701720918641
 20
10.23094375176884
 30
0.0
 11
19.04484096519363
 21
10.25198987778894
 31
0.0
  0
LINE
  5
30D
  8
0
 62
     0
 10
18.9975108628537
 20
10.25604668480195
 30
0.0
 11
19.04739810870855
 21
10.27420415736263
 31
0.0
  0
LINE
  5
30E
  8
0
 62
     0
 10
19.00867622353578
 20
10.28139409919459
 30
0.0
 11
19.04995525222347
 21
10.29641843693633
 31
0.0
  0
LINE
  5
30F
  8
0
 62
     0
 10
19.02055131946953
 20
10.30699983609305
 30
0.0
 11
19.05251239573839
 21
10.31863271651003
 31
0.0
  0
LINE
  5
310
  8
0
 62
     0
 10
19.0331787854719
 20
10.33287941330164
 30
0.0
 11
19.05506953925331
 21
10.34084699608372
 31
0.0
  0
LINE
  5
311
  8
0
 62
     0
 10
19.04660667632482
 20
10.3590503213306
 30
0.0
 11
19.05762668276822
 21
10.36306127565742
 31
0.0
  0
LINE
  5
312
  8
0
 62
     0
 10
18.89305299728669
 20
9.877490243808287
 30
0.0
 11
18.98866835830827
 21
9.912291389158758
 31
0.0
  0
LINE
  5
313
  8
0
 62
     0
 10
18.89024196090809
 20
9.855183554789516
 30
0.0
 11
18.9824364729684
 21
9.888739612942167
 31
0.0
  0
LINE
  5
314
  8
0
 62
     0
 10
18.88779564033236
 20
9.83300961146696
 30
0.0
 11
18.97620205145268
 21
9.865186913633057
 31
0.0
  0
LINE
  5
315
  8
0
 62
     0
 10
18.88570579196336
 20
9.810965413416994
 30
0.0
 11
18.96996762993696
 21
9.841634214323946
 31
0.0
  0
LINE
  5
316
  8
0
 62
     0
 10
18.88396472138375
 20
9.789048160100743
 30
0.0
 11
18.96373320842123
 21
9.818081515014836
 31
0.0
  0
LINE
  5
317
  8
0
 62
     0
 10
18.88256524199564
 20
9.767255235810483
 30
0.0
 11
18.95749878690551
 21
9.794528815705727
 31
0.0
  0
LINE
  5
318
  8
0
 62
     0
 10
18.88150063794654
 20
9.745584196175813
 30
0.0
 11
18.95126436538979
 21
9.770976116396616
 31
0.0
  0
LINE
  5
319
  8
0
 62
     0
 10
18.88076463082604
 20
9.724032756042227
 30
0.0
 11
18.94394096362761
 21
9.74702706069209
 31
0.0
  0
LINE
  5
31A
  8
0
 62
     0
 10
18.88035134969203
 20
9.702598778561544
 30
0.0
 11
18.93643642089824
 21
9.723012075067306
 31
0.0
  0
LINE
  5
31B
  8
0
 62
     0
 10
18.88025530404621
 20
9.681280265355815
 30
0.0
 11
18.92893187816888
 21
9.698997089442521
 31
0.0
  0
LINE
  5
31C
  8
0
 62
     0
 10
18.88047135942955
 20
9.660075347634788
 30
0.0
 11
18.92142733543952
 21
9.674982103817735
 31
0.0
  0
LINE
  5
31D
  8
0
 62
     0
 10
18.88099471535355
 20
9.638982278163532
 30
0.0
 11
18.91392279271015
 21
9.65096711819295
 31
0.0
  0
LINE
  5
31E
  8
0
 62
     0
 10
18.88182088531875
 20
9.617999423989788
 30
0.0
 11
18.90641824998079
 21
9.626952132568164
 31
0.0
  0
LINE
  5
31F
  8
0
 62
     0
 10
18.88294567870502
 20
9.597125259852573
 30
0.0
 11
18.89891370725143
 21
9.602937146943379
 31
0.0
  0
LINE
  5
320
  8
0
 62
     0
 10
18.88436518434499
 20
9.576358362203376
 30
0.0
 11
18.88824117341548
 21
9.577769106853378
 31
0.0
  0
ENDBLK
  5
321
  8
ARBOLES
  0
BLOCK
  8
ARBOLES
  2
*X19
 70
     1
 10
0.0
 20
0.0
 30
0.0
  3
*X19
  1

  0
LINE
  5
323
  8
0
 62
     0
 10
18.81435966960742
 20
9.922459917813866
 30
0.0
 11
18.75532603488195
 21
9.981493552539341
 31
0.0
  0
LINE
  5
324
  8
0
 62
     0
 10
18.8186741265087
 20
9.88986118966513
 30
0.0
 11
18.75854424075437
 21
9.949991075419458
 31
0.0
  0
LINE
  5
325
  8
0
 62
     0
 10
18.82298858340997
 20
9.857262461516394
 30
0.0
 11
18.76236550508877
 21
9.917885539837599
 31
0.0
  0
LINE
  5
326
  8
0
 62
     0
 10
18.82730304031125
 20
9.824663733367657
 30
0.0
 11
18.7668298261005
 21
9.885136947578406
 31
0.0
  0
LINE
  5
327
  8
0
 62
     0
 10
18.83161749721252
 20
9.792065005218916
 30
0.0
 11
18.77198245621058
 21
9.851700046220865
 31
0.0
  0
LINE
  5
328
  8
0
 62
     0
 10
18.8359319541138
 20
9.75946627707018
 30
0.0
 11
18.77787492542542
 21
9.817523305758565
 31
0.0
  0
LINE
  5
329
  8
0
 62
     0
 10
18.84024641101507
 20
9.726867548921444
 30
0.0
 11
18.78456633758414
 21
9.78254762235238
 31
0.0
  0
LINE
  5
32A
  8
0
 62
     0
 10
18.84456086791635
 20
9.694268820772708
 30
0.0
 11
18.79212503423332
 21
9.74670465445574
 31
0.0
  0
LINE
  5
32B
  8
0
 62
     0
 10
18.84887532481762
 20
9.661670092623972
 30
0.0
 11
18.80063076247376
 21
9.709914654967834
 31
0.0
  0
LINE
  5
32C
  8
0
 62
     0
 10
18.8531897817189
 20
9.629071364475237
 30
0.0
 11
18.81017754732187
 21
9.672083598872263
 31
0.0
  0
LINE
  5
32D
  8
0
 62
     0
 10
18.85750423862017
 20
9.596472636326501
 30
0.0
 11
18.82087757098443
 21
9.63309930396224
 31
0.0
  0
LINE
  5
32E
  8
0
 62
     0
 10
18.86181869552145
 20
9.563873908177765
 30
0.0
 11
18.83286652815675
 21
9.592826075542458
 31
0.0
  0
LINE
  5
32F
  8
0
 62
     0
 10
18.86613315242272
 20
9.531275180029029
 30
0.0
 11
18.8463112092432
 21
9.551097123208553
 31
0.0
  0
LINE
  5
330
  8
0
 62
     0
 10
18.870447609324
 20
9.498676451880288
 30
0.0
 11
18.86142056341862
 21
9.507703497785663
 31
0.0
  0
LINE
  5
331
  8
0
 62
     0
 10
18.81004521270615
 20
9.955058645962602
 30
0.0
 11
18.75267532578796
 21
10.0124285328808
 31
0.0
  0
LINE
  5
332
  8
0
 62
     0
 10
18.80573075580487
 20
9.987657374111338
 30
0.0
 11
18.75056032790708
 21
10.04282780200913
 31
0.0
  0
LINE
  5
333
  8
0
 62
     0
 10
18.8014162989036
 20
10.02025610226007
 30
0.0
 11
18.74895249313526
 21
10.07271990802841
 31
0.0
  0
LINE
  5
334
  8
0
 62
     0
 10
18.79710184200232
 20
10.05285483040881
 30
0.0
 11
18.74782606753376
 21
10.10213060487738
 31
0.0
  0
LINE
  5
335
  8
0
 62
     0
 10
18.79278738510105
 20
10.08545355855755
 30
0.0
 11
18.74715772351088
 21
10.13108322014772
 31
0.0
  0
LINE
  5
336
  8
0
 62
     0
 10
18.78847292819977
 20
10.11805228670629
 30
0.0
 11
18.74692625232405
 21
10.15959896258201
 31
0.0
  0
LINE
  5
337
  8
0
 62
     0
 10
18.7841584712985
 20
10.15065101485502
 30
0.0
 11
18.74711230521826
 21
10.18769718093527
 31
0.0
  0
LINE
  5
338
  8
0
 62
     0
 10
18.77984401439722
 20
10.18324974300376
 30
0.0
 11
18.74769817410432
 21
10.21539558329667
 31
0.0
  0
LINE
  5
339
  8
0
 62
     0
 10
18.77552955749595
 20
10.2158484711525
 30
0.0
 11
18.74866760462644
 21
10.24271042402201
 31
0.0
  0
LINE
  5
33A
  8
0
 62
     0
 10
18.77121510059468
 20
10.24844719930123
 30
0.0
 11
18.75000563595022
 21
10.26965666394569
 31
0.0
  0
LINE
  5
33B
  8
0
 62
     0
 10
18.7669006436934
 20
10.28104592744997
 30
0.0
 11
18.75169846274007
 21
10.29624810840331
 31
0.0
  0
LINE
  5
33C
  8
0
 62
     0
 10
18.76258618679213
 20
10.3136446555987
 30
0.0
 11
18.75373331567674
 21
10.3224975267141
 31
0.0
  0
LINE
  5
33D
  8
0
 62
     0
 10
18.75827172989085
 20
10.34624338374745
 30
0.0
 11
18.75609835755581
 21
10.34841675608249
 31
0.0
  0
ENDBLK
  5
33E
  8
ARBOLES
  0
BLOCK
  8
ARBOLES
  2
*X20
 70
     1
 10
0.0
 20
0.0
 30
0.0
  3
*X20
  1

  0
LINE
  5
340
  8
0
 62
     0
 10
18.63750337142862
 20
9.812810742220503
 30
0.0
 11
18.72807958236542
 21
9.903386953157298
 31
0.0
  0
LINE
  5
341
  8
0
 62
     0
 10
18.64162809512823
 20
9.788651194672653
 30
0.0
 11
18.73562013315177
 21
9.882643232696186
 31
0.0
  0
LINE
  5
342
  8
0
 62
     0
 10
18.64575281882784
 20
9.7644916471248
 30
0.0
 11
18.74309607468176
 21
9.861834902978712
 31
0.0
  0
LINE
  5
343
  8
0
 62
     0
 10
18.65101758618829
 20
9.741472143237788
 30
0.0
 11
18.75050706361472
 21
9.840961620664219
 31
0.0
  0
LINE
  5
344
  8
0
 62
     0
 10
18.65852147346659
 20
9.720691759268618
 30
0.0
 11
18.75785275079176
 21
9.820023036593794
 31
0.0
  0
LINE
  5
345
  8
0
 62
     0
 10
18.66602536074488
 20
9.699911375299449
 30
0.0
 11
18.76513278112281
 21
9.799018795677377
 31
0.0
  0
LINE
  5
346
  8
0
 62
     0
 10
18.67352924802317
 20
9.679130991330279
 30
0.0
 11
18.77234679347069
 21
9.777948536777803
 31
0.0
  0
LINE
  5
347
  8
0
 62
     0
 10
18.68485239834594
 20
9.662169870405585
 30
0.0
 11
18.77949442053193
 21
9.756811892591575
 31
0.0
  0
LINE
  5
348
  8
0
 62
     0
 10
18.69819390397594
 20
9.647227104788124
 30
0.0
 11
18.78657528871421
 21
9.7356084895264
 31
0.0
  0
LINE
  5
349
  8
0
 62
     0
 10
18.71153540960594
 20
9.632284339170663
 30
0.0
 11
18.79358901801053
 21
9.714337947575258
 31
0.0
  0
LINE
  5
34A
  8
0
 62
     0
 10
18.72487691523594
 20
9.617341573553201
 30
0.0
 11
18.80053522186962
 21
9.692999880186882
 31
0.0
  0
LINE
  5
34B
  8
0
 62
     0
 10
18.74231089650896
 20
9.606491283578762
 30
0.0
 11
18.80741350706289
 21
9.671593894132688
 31
0.0
  0
LINE
  5
34C
  8
0
 62
     0
 10
18.76175621940379
 20
9.597652335226128
 30
0.0
 11
18.81422347354747
 21
9.65011958936981
 31
0.0
  0
LINE
  5
34D
  8
0
 62
     0
 10
18.78117686862311
 20
9.588788713197985
 30
0.0
 11
18.82096471432539
 21
9.628576558900269
 31
0.0
  0
LINE
  5
34E
  8
0
 62
     0
 10
18.80052915050554
 20
9.579856723832956
 30
0.0
 11
18.8276368152987
 21
9.606964388626118
 31
0.0
  0
LINE
  5
34F
  8
0
 62
     0
 10
18.81988143238797
 20
9.570924734467926
 30
0.0
 11
18.8342393551204
 21
9.585282657200349
 31
0.0
  0
LINE
  5
350
  8
0
 62
     0
 10
18.83938437610099
 20
9.562143406933478
 30
0.0
 11
18.840771905041
 21
9.563530935873485
 31
0.0
  0
LINE
  5
351
  8
0
 62
     0
 10
18.63350896466871
 20
9.837100606708056
 30
0.0
 11
18.72047475995494
 21
9.924066401994287
 31
0.0
  0
LINE
  5
352
  8
0
 62
     0
 10
18.63176842466323
 20
9.863644337950038
 30
0.0
 11
18.71280599795112
 21
9.944681911237927
 31
0.0
  0
LINE
  5
353
  8
0
 62
     0
 10
18.63002788465775
 20
9.890188069192021
 30
0.0
 11
18.70507362288739
 21
9.965233807421662
 31
0.0
  0
LINE
  5
354
  8
0
 62
     0
 10
18.62828734465227
 20
9.916731800434002
 30
0.0
 11
18.69727795590127
 21
9.985722411682996
 31
0.0
  0
LINE
  5
355
  8
0
 62
     0
 10
18.62654680464679
 20
9.943275531675985
 30
0.0
 11
18.68941931283302
 21
10.00614803986222
 31
0.0
  0
LINE
  5
356
  8
0
 62
     0
 10
18.62457875838677
 20
9.969591756663425
 30
0.0
 11
18.68149800432189
 21
10.02651100259854
 31
0.0
  0
LINE
  5
357
  8
0
 62
     0
 10
18.62149093689234
 20
9.994788206416457
 30
0.0
 11
18.67351433589974
 21
10.04681160542385
 31
0.0
  0
LINE
  5
358
  8
0
 62
     0
 10
18.61840311539791
 20
10.01998465616949
 30
0.0
 11
18.66546860808229
 21
10.06705014885387
 31
0.0
  0
LINE
  5
359
  8
0
 62
     0
 10
18.61531529390348
 20
10.04518110592252
 30
0.0
 11
18.65736111645812
 21
10.08722692847716
 31
0.0
  0
LINE
  5
35A
  8
0
 62
     0
 10
18.61222747240905
 20
10.07037755567555
 30
0.0
 11
18.64919215177519
 21
10.10734223504169
 31
0.0
  0
LINE
  5
35B
  8
0
 62
     0
 10
18.60913965091462
 20
10.09557400542859
 30
0.0
 11
18.64096200002535
 21
10.12739635453931
 31
0.0
  0
LINE
  5
35C
  8
0
 62
     0
 10
18.60605182942019
 20
10.12077045518162
 30
0.0
 11
18.63267094252662
 21
10.14738956828804
 31
0.0
  0
LINE
  5
35D
  8
0
 62
     0
 10
18.60296400792576
 20
10.14596690493465
 30
0.0
 11
18.62431925600337
 21
10.16732215301226
 31
0.0
  0
LINE
  5
35E
  8
0
 62
     0
 10
18.59987618643133
 20
10.17116335468768
 30
0.0
 11
18.6159072126646
 21
10.18719438092095
 31
0.0
  0
LINE
  5
35F
  8
0
 62
     0
 10
18.59678836493691
 20
10.19635980444071
 30
0.0
 11
18.60743508028007
 21
10.20700651978388
 31
0.0
  0
LINE
  5
360
  8
0
 62
     0
 10
18.59370054344247
 20
10.22155625419375
 30
0.0
 11
18.59890312225471
 21
10.22675883300598
 31
0.0
  0
ENDBLK
  5
361
  8
ARBOLES
  0
ENDSEC
  0
SECTION
  2
ENTITIES
  0
INSERT
  5
362
  8
0
 62
     0
  2
*X20
 10
-33.86762962925672
 20
-9.545993342010867
 30
0.0
 41
1.8
 42
1.8
 43
1.8
  0
INSERT
  5
363
  8
0
 62
     0
  2
*X19
 10
37.34434220927358
 20
-0.121055597498434
 30
0.0
 41
-1.8
 42
1.8
 43
1.8
 50
15.07861166500502
  0
INSERT
  5
364
  8
0
 62
     0
  2
*X19
 10
-33.86762962925672
 20
-9.545993342010867
 30
0.0
 41
1.8
 42
1.8
 43
1.8
  0
LINE
  5
365
  8
0
 62
     0
 10
-0.1051898590615679
 20
9.095751246367888
 30
0.0
 11
0.1014554685168072
 21
7.534401808633609
 31
0.0
  0
INSERT
  5
366
  8
0
 62
     0
  2
*X18
 10
-33.86762962925672
 20
-9.545993342010867
 30
0.0
 41
1.8
 42
1.8
 43
1.8
  0
ARC
  5
367
  8
0
 62
     0
 10
1.005591720810763
 20
7.403366154230683
 30
0.0
 40
0.8876536346646792
 50
159.4976479076334
 51
171.2611272843157
  0
INSERT
  5
368
  8
0
 62
     0
  2
*X17
 10
16.74109475874333
 20
-26.67495401444801
 30
0.0
 41
-1.8
 42
1.8
 43
1.8
 50
322.602331085032
  0
INSERT
  5
369
  8
0
 62
     0
  2
*X17
 10
-33.86762962925672
 20
-9.545993342010867
 30
0.0
 41
1.8
 42
1.8
 43
1.8
  0
LINE
  5
36A
  8
0
 62
     0
 10
0.1770097031750808
 20
7.713292587134719
 30
0.0
 11
0.6227780494380042
 21
9.03034665762579
 31
0.0
  0
INSERT
  5
36B
  8
0
 62
     0
  2
*X16
 10
-33.86762962925672
 20
-9.545993342010867
 30
0.0
 41
1.8
 42
1.8
 43
1.8
  0
INSERT
  5
36C
  8
0
 62
     0
  2
*X15
 10
-33.86762962925672
 20
-9.545993342010867
 30
0.0
 41
1.8
 42
1.8
 43
1.8
  0
INSERT
  5
36D
  8
0
 62
     0
  2
*X14
 10
-33.86762962925672
 20
-9.545993342010867
 30
0.0
 41
1.8
 42
1.8
 43
1.8
  0
ARC
  5
36E
  8
0
 62
     0
 10
-1.524753966144996
 20
6.447526336433109
 30
0.0
 40
1.851019270079883
 50
33.36766375245132
 51
79.8528636358247
  0
INSERT
  5
36F
  8
0
 62
     0
  2
*X13
 10
-33.86762962925672
 20
-9.545993342010867
 30
0.0
 41
1.8
 42
1.8
 43
1.8
  0
INSERT
  5
370
  8
0
 62
     0
  2
*X12
 10
-33.86762962925672
 20
-9.545993342010867
 30
0.0
 41
1.8
 42
1.8
 43
1.8
  0
INSERT
  5
371
  8
0
 62
     0
  2
*X11
 10
-33.86762962925672
 20
-9.545993342010867
 30
0.0
 41
1.8
 42
1.8
 43
1.8
  0
ARC
  5
372
  8
0
 62
     0
 10
2.142209130335065
 20
6.277443448736424
 30
0.0
 40
2.285916138766996
 50
160.4711553000962
 51
172.417686077677
  0
INSERT
  5
373
  8
0
 62
     0
  2
*X10
 10
30.53301373845882
 20
-14.84133641617934
 30
0.0
 41
-1.8
 42
1.8
 43
1.8
 50
350.5988575751738
  0
INSERT
  5
374
  8
0
 62
     0
  2
*X10
 10
-33.86762962925672
 20
-9.545993342010867
 30
0.0
 41
1.8
 42
1.8
 43
1.8
  0
LINE
  5
375
  8
0
 62
     0
 10
-0.1164455215827687
 20
6.667537590635449
 30
0.0
 11
-0.2932741987285716
 21
4.516991268225544
 31
0.0
  0
INSERT
  5
376
  8
0
 62
     0
  2
*X9
 10
-33.86762962925672
 20
-9.545993342010867
 30
0.0
 41
1.8
 42
1.8
 43
1.8
  0
INSERT
  5
377
  8
0
 62
     0
  2
*X8
 10
-33.86762962925672
 20
-9.545993342010867
 30
0.0
 41
1.8
 42
1.8
 43
1.8
  0
INSERT
  5
378
  8
0
 62
     0
  2
*X7
 10
-33.86762962925672
 20
-9.545993342010867
 30
0.0
 41
1.8
 42
1.8
 43
1.8
  0
INSERT
  5
379
  8
0
 62
     0
  2
*X6
 10
-33.86762962925672
 20
-9.545993342010867
 30
0.0
 41
1.8
 42
1.8
 43
1.8
  0
INSERT
  5
37A
  8
0
 62
     0
  2
*X5
 10
-33.86762962925672
 20
-9.545993342010867
 30
0.0
 41
1.8
 42
1.8
 43
1.8
  0
INSERT
  5
37B
  8
0
 62
     0
  2
*X4
 10
-33.86762962925672
 20
-9.545993342010867
 30
0.0
 41
1.8
 42
1.8
 43
1.8
  0
INSERT
  5
37C
  8
0
 62
     0
  2
*X3
 10
-33.86762962925672
 20
-9.545993342010867
 30
0.0
 41
1.8
 42
1.8
 43
1.8
  0
ARC
  5
37D
  8
0
 62
     0
 10
-0.2414175542428794
 20
4.293841802326401
 30
0.0
 40
3.031093000146592
 50
77.31702786896037
 51
81.09019735821272
  0
INSERT
  5
37E
  8
0
 62
     0
  2
*X2
 10
-33.86762962925672
 20
-9.545993342010867
 30
0.0
 41
1.8
 42
1.8
 43
1.8
  0
ARC
  5
37F
  8
0
 62
     0
 10
-0.1658349811930684
 20
4.431732522724646
 30
0.0
 40
2.895985333986347
 50
96.29070468833619
 51
117.4428269109114
  0
INSERT
  5
380
  8
0
 62
     0
  2
*X1
 10
-33.86762962925672
 20
-9.545993342010867
 30
0.0
 41
1.8
 42
1.8
 43
1.8
  0
POLYLINE
  5
381
  8
0
 62
     0
 66
     1
 10
0.0
 20
0.0
 30
0.0
  0
VERTEX
  5
413
  8
0
 62
     0
 10
0.0651227795210083
 20
6.712322255739561
 30
0.0
  0
VERTEX
  5
414
  8
0
 62
     0
 10
0.004932602461821
 20
5.793831086315471
 30
0.0
  0
VERTEX
  5
415
  8
0
 62
     0
 10
0.0033017150081847
 20
3.878191928221964
 30
0.0
  0
VERTEX
  5
416
  8
0
 62
     0
 10
0.0019038114764918
 20
2.236215506998954
 30
0.0
  0
VERTEX
  5
417
  8
0
 62
     0
 10
0.0005059079448024
 20
0.5942390857759463
 30
0.0
  0
VERTEX
  5
418
  8
0
 62
     0
 10
0.0
 20
0.0
 30
0.0
  0
SEQEND
  5
42F
  8
0
 62
     0
  0
INSERT
  5
389
  8
0
 62
     0
  2
*X0
 10
-33.86762962925672
 20
-9.545993342010867
 30
0.0
 41
1.8
 42
1.8
 43
1.8
  0
ARC
  5
38A
  8
0
 62
     0
 10
0.5642374325120088
 20
4.243372571544976
 30
0.0
 40
3.086142864654974
 50
114.8492579973627
 51
150.305307814602
  0
ARC
  5
38B
  8
0
 62
     0
 10
0.5642374325120088
 20
4.243372571544976
 30
0.0
 40
3.086142864654974
 50
100.8607856067534
 51
114.8492579973627
  0
POLYLINE
  5
38C
  8
0
 62
     0
 66
     1
 10
0.0
 20
0.0
 30
0.0
  0
VERTEX
  5
419
  8
0
 62
     0
 10
0.1211036367644276
 20
7.547781282708632
 30
0.0
  0
VERTEX
  5
41A
  8
0
 62
     0
 10
0.0507154675560564
 20
7.526990698622237
 30
0.0
  0
VERTEX
  5
41B
  8
0
 62
     0
 10
-0.0171862101753106
 20
7.365457059536521
 30
0.0
  0
VERTEX
  5
41C
  8
0
 62
     0
 10
0.0061929345348446
 20
7.274216177195902
 30
0.0
  0
VERTEX
  5
41D
  8
0
 62
     0
 10
-0.0616488330451688
 20
7.183052956162596
 30
0.0
  0
VERTEX
  5
41E
  8
0
 62
     0
 10
0.029514387988133
 20
7.115211188582585
 30
0.0
  0
VERTEX
  5
41F
  8
0
 62
     0
 10
0.0059998907137988
 20
7.047467052360341
 30
0.0
  0
VERTEX
  5
420
  8
0
 62
     0
 10
0.0293590653734981
 20
6.932769364002249
 30
0.0
  0
VERTEX
  5
421
  8
0
 62
     0
 10
0.0057469367413958
 20
6.750347509472368
 30
0.0
  0
VERTEX
  5
422
  8
0
 62
     0
 10
0.0500165157902082
 20
6.706002488010732
 30
0.0
  0
VERTEX
  5
423
  8
0
 62
     0
 10
0.2116655373896563
 20
6.773629022824753
 30
0.0
  0
VERTEX
  5
424
  8
0
 62
     0
 10
0.211723228646516
 20
6.841393129097451
 30
0.0
  0
VERTEX
  5
425
  8
0
 62
     0
 10
0.1884017751932276
 20
7.000398117710764
 30
0.0
  0
VERTEX
  5
426
  8
0
 62
     0
 10
0.2328067068062225
 20
7.115038114811993
 30
0.0
  0
VERTEX
  5
427
  8
0
 62
     0
 10
0.2120139038253299
 20
7.182819972240646
 30
0.0
  0
VERTEX
  5
428
  8
0
 62
     0
 10
0.2329819994713027
 20
7.320936745409799
 30
0.0
  0
VERTEX
  5
429
  8
0
 62
     0
 10
0.2122468877472841
 20
7.45648270911115
 30
0.0
  0
VERTEX
  5
42A
  8
0
 62
     0
 10
0.1419363798462214
 20
7.526913037314923
 30
0.0
  0
SEQEND
  5
430
  8
0
 62
     0
  0
POLYLINE
  5
3A0
  8
0
 62
     0
 66
     1
 10
0.0
 20
0.0
 30
0.0
  0
VERTEX
  5
42B
  8
0
 62
     0
 10
0.1646942340978477
 20
6.705904856652964
 30
0.0
  0
VERTEX
  5
42C
  8
0
 62
     0
 10
0.1181924471873153
 20
4.128300227717224
 30
0.0
  0
VERTEX
  5
42D
  8
0
 62
     0
 10
0.1367907635129058
 20
1.48287602014642
 30
0.0
  0
VERTEX
  5
42E
  8
0
 62
     0
 10
0.205898630597801
 20
-0.0001752926650846
 30
0.0
  0
SEQEND
  5
431
  8
0
 62
     0
  0
ARC
  5
3A6
  8
0
 62
     0
 10
6.078245261476731
 20
4.538298270580794
 30
0.0
 40
6.635673437361209
 50
141.0237637424094
 51
153.4581675711958
  0
ARC
  5
3A7
  8
0
 62
     0
 10
1.096853081861973
 20
6.867741933098543
 30
0.0
 40
1.091011896172872
 50
89.75977087895882
 51
146.0539805896959
  0
ARC
  5
3A8
  8
0
 62
     0
 10
0.6793409221499545
 20
6.827861452879636
 30
0.0
 40
0.74372425168917
 50
48.85308031784384
 51
128.2361681935818
  0
ARC
  5
3A9
  8
0
 62
     0
 10
6.470481069555341
 20
0.2181767097015506
 30
0.0
 40
9.50372373249232
 50
133.1148613529129
 51
148.0463190811469
  0
ARC
  5
3AA
  8
0
 62
     0
 10
2.216694594708635
 20
4.927565151966864
 30
0.0
 40
3.079062792196946
 50
135.5525007115182
 51
186.8230013400348
  0
ARC
  5
3AB
  8
0
 62
     0
 10
-4.91968997421645
 20
4.437147107684892
 30
0.0
 40
5.654684274850593
 50
1.249198626852666
 51
24.84359223305814
  0
ARC
  5
3AC
  8
0
 62
     0
 10
-1.197821845277119
 20
4.917851918235153
 30
0.0
 40
2.548025241521281
 50
1.679892134060038
 51
56.58098354335671
  0
ARC
  5
3AD
  8
0
 62
     0
 10
-2.300863438700503
 20
3.269826960341097
 30
0.0
 40
4.758388385006068
 50
21.52021416419764
 51
57.82570664998352
  0
ARC
  5
3AE
  8
0
 62
     0
 10
-0.2414175542428794
 20
4.293841802326401
 30
0.0
 40
3.031093000146592
 50
35.76987253581854
 51
77.31702786896037
  0
ARC
  5
3AF
  8
0
 62
     0
 10
2.721494668960212
 20
7.887763470478962
 30
0.0
 40
2.604675412033401
 50
151.1346061829661
 51
187.963342304693
  0
ARC
  5
3B0
  8
0
 62
     0
 10
-10.13041643114097
 20
4.633561197067246
 30
0.0
 40
10.61906684583009
 50
16.06009798325042
 51
23.66359629676009
  0
ARC
  5
3B1
  8
0
 62
     0
 10
-37.7390192437058
 20
-16.34025126804124
 30
0.0
 40
44.66558007910768
 50
32.26456368353131
 51
34.08306985703882
  0
ARC
  5
3B2
  8
0
 62
     0
 10
9.040408369348008
 20
66.90116894033164
 30
0.0
 40
60.12046258124295
 50
260.3010671005235
 51
261.3736160601431
  0
ARC
  5
3B3
  8
0
 62
     0
 10
-0.1658349811930684
 20
4.431732522724646
 30
0.0
 40
2.895985333986347
 50
86.84386707808594
 51
96.29070468833619
  0
ARC
  5
3B4
  8
0
 62
     0
 10
4.036725288399889
 20
0.4547666210644303
 30
0.0
 40
7.891607844727676
 50
121.10748497266
 51
144.2442106853539
  0
ENDSEC
  0
EOF
