  0
SECTION
  2
HEADER
  9
$ACADVER
  1
AC1009
  9
$DWGCODEPAGE
  3
ansi_1252
  9
$INSBASE
 10
443458.9155448623
 20
4485389.05160705
 30
0.0
  9
$EXTMIN
 10
443452.9157398312
 20
4485386.049773481
 30
0.0
  9
$EXTMAX
 10
443461.2279389362
 20
4485390.565995347
 30
0.0
  9
$LIMMIN
 10
441000.0
 20
4466000.0
  9
$LIMMAX
 10
442000.0
 20
4466500.0
  9
$ORTHOMODE
 70
     0
  9
$REGENMODE
 70
     1
  9
$FILLMODE
 70
     1
  9
$QTEXTMODE
 70
     0
  9
$MIRRTEXT
 70
     1
  9
$DRAGMODE
 70
     2
  9
$LTSCALE
 40
1.0
  9
$OSMODE
 70
    37
  9
$ATTMODE
 70
     1
  9
$TEXTSIZE
 40
0.2
  9
$TRACEWID
 40
0.05
  9
$TEXTSTYLE
  7
STANDARD
  9
$CLAYER
  8
0
  9
$CELTYPE
  6
BYLAYER
  9
$CECOLOR
 62
   256
  9
$DIMSCALE
 40
1.0
  9
$DIMASZ
 40
0.18
  9
$DIMEXO
 40
0.0625
  9
$DIMDLI
 40
0.38
  9
$DIMRND
 40
0.0
  9
$DIMDLE
 40
0.0
  9
$DIMEXE
 40
0.18
  9
$DIMTP
 40
0.0
  9
$DIMTM
 40
0.0
  9
$DIMTXT
 40
0.18
  9
$DIMCEN
 40
0.09
  9
$DIMTSZ
 40
0.0
  9
$DIMTOL
 70
     0
  9
$DIMLIM
 70
     0
  9
$DIMTIH
 70
     1
  9
$DIMTOH
 70
     1
  9
$DIMSE1
 70
     0
  9
$DIMSE2
 70
     0
  9
$DIMTAD
 70
     0
  9
$DIMZIN
 70
     0
  9
$DIMBLK
  1

  9
$DIMASO
 70
     1
  9
$DIMSHO
 70
     1
  9
$DIMPOST
  1

  9
$DIMAPOST
  1

  9
$DIMALT
 70
     0
  9
$DIMALTD
 70
     2
  9
$DIMALTF
 40
25.4
  9
$DIMLFAC
 40
1.0
  9
$DIMTOFL
 70
     0
  9
$DIMTVP
 40
0.0
  9
$DIMTIX
 70
     0
  9
$DIMSOXD
 70
     0
  9
$DIMSAH
 70
     0
  9
$DIMBLK1
  1

  9
$DIMBLK2
  1

  9
$DIMSTYLE
  2
STANDARD
  9
$DIMCLRD
 70
     0
  9
$DIMCLRE
 70
     0
  9
$DIMCLRT
 70
     0
  9
$DIMTFAC
 40
1.0
  9
$DIMGAP
 40
0.09
  9
$LUNITS
 70
     2
  9
$LUPREC
 70
     4
  9
$SKETCHINC
 40
0.1
  9
$FILLETRAD
 40
0.0
  9
$AUNITS
 70
     0
  9
$AUPREC
 70
     0
  9
$MENU
  1
acad
  9
$ELEVATION
 40
0.0
  9
$PELEVATION
 40
0.0
  9
$THICKNESS
 40
0.0
  9
$LIMCHECK
 70
     0
  9
$CHAMFERA
 40
0.0
  9
$CHAMFERB
 40
0.0
  9
$SKPOLY
 70
     0
  9
$TDCREATE
 40
2451864.392093982
  9
$TDUPDATE
 40
2457464.593854167
  9
$TDINDWG
 40
4.2781930556
  9
$TDUSRTIMER
 40
4.2781930556
  9
$USRTIMER
 70
     1
  9
$ANGBASE
 50
90.0
  9
$ANGDIR
 70
     0
  9
$PDMODE
 70
    34
  9
$PDSIZE
 40
0.0
  9
$PLINEWID
 40
0.0
  9
$COORDS
 70
     1
  9
$SPLFRAME
 70
     0
  9
$SPLINETYPE
 70
     6
  9
$SPLINESEGS
 70
    10
  9
$ATTDIA
 70
     0
  9
$ATTREQ
 70
     1
  9
$HANDLING
 70
     1
  9
$HANDSEED
  5
119
  9
$SURFTAB1
 70
     6
  9
$SURFTAB2
 70
     6
  9
$SURFTYPE
 70
     6
  9
$SURFU
 70
    10
  9
$SURFV
 70
    10
  9
$UCSNAME
  2

  9
$UCSORG
 10
0.0
 20
0.0
 30
0.0
  9
$UCSXDIR
 10
1.0
 20
0.0
 30
0.0
  9
$UCSYDIR
 10
0.0
 20
1.0
 30
0.0
  9
$PUCSNAME
  2

  9
$PUCSORG
 10
0.0
 20
0.0
 30
0.0
  9
$PUCSXDIR
 10
1.0
 20
0.0
 30
0.0
  9
$PUCSYDIR
 10
0.0
 20
1.0
 30
0.0
  9
$USERI1
 70
     0
  9
$USERI2
 70
     0
  9
$USERI3
 70
     0
  9
$USERI4
 70
     0
  9
$USERI5
 70
     0
  9
$USERR1
 40
0.0
  9
$USERR2
 40
0.0
  9
$USERR3
 40
0.0
  9
$USERR4
 40
0.0
  9
$USERR5
 40
0.0
  9
$WORLDVIEW
 70
     1
  9
$SHADEDGE
 70
     3
  9
$SHADEDIF
 70
    70
  9
$TILEMODE
 70
     1
  9
$MAXACTVP
 70
    16
  9
$PLIMCHECK
 70
     0
  9
$PEXTMIN
 10
0.0
 20
0.0
 30
0.0
  9
$PEXTMAX
 10
0.0
 20
0.0
 30
0.0
  9
$PLIMMIN
 10
0.0
 20
0.0
  9
$PLIMMAX
 10
0.0
 20
0.0
  9
$UNITMODE
 70
     0
  9
$VISRETAIN
 70
     0
  9
$PLINEGEN
 70
     0
  9
$PSLTSCALE
 70
     1
  0
ENDSEC
  0
SECTION
  2
TABLES
  0
TABLE
  2
VPORT
 70
     1
  0
VPORT
  2
*ACTIVE
 70
     0
 10
0.0
 20
0.0
 11
1.0
 21
1.0
 12
19138.38781504985
 22
-1991.827309150199
 13
0.0
 23
0.0
 14
800.0
 24
800.0
 15
0.0
 25
0.0
 16
0.0
 26
0.0
 36
1.0
 17
441464.97772
 27
4466249.97
 37
0.0
 40
9.062232455355245
 41
1.503537735849057
 42
50.0
 43
0.0
 44
0.0
 50
0.0
 51
-90.0
 71
     0
 72
     0
 73
     1
 74
     0
 75
     0
 76
     1
 77
     0
 78
     0
  0
ENDTAB
  0
TABLE
  2
LTYPE
 70
     1
  0
LTYPE
  2
CONTINUOUS
 70
     0
  3
Solid line
 72
    65
 73
     0
 40
0.0
  0
ENDTAB
  0
TABLE
  2
LAYER
 70
     3
  0
LAYER
  2
0
 70
     0
 62
     7
  6
CONTINUOUS
  0
LAYER
  2
DEFPOINTS
 70
     0
 62
     7
  6
CONTINUOUS
  0
LAYER
  2
ARQ-VEG
 70
     0
 62
     2
  6
CONTINUOUS
  0
ENDTAB
  0
TABLE
  2
STYLE
 70
     1
  0
STYLE
  2
STANDARD
 70
     0
 40
0.2
 41
1.0
 50
0.0
 71
     0
 42
0.2
  3
txt
  4

  0
ENDTAB
  0
TABLE
  2
VIEW
 70
     0
  0
ENDTAB
  0
TABLE
  2
UCS
 70
     0
  0
ENDTAB
  0
TABLE
  2
APPID
 70
     6
  0
APPID
  2
ACAD
 70
     0
  0
APPID
  2
ACAUTHENVIRON
 70
     0
  0
APPID
  2
ACDBDYNAMICBLOCKTRUENAME
 70
     0
  0
APPID
  2
ACDBDYNAMICBLOCKGUID
 70
     0
  0
APPID
  2
ACDBBLOCKREPETAG
 70
     0
  0
APPID
  2
DCO15
 70
     0
  0
ENDTAB
  0
TABLE
  2
DIMSTYLE
 70
     1
  0
DIMSTYLE
  2
STANDARD
 70
     0
  3

  4

  5

  6

  7

 40
1.0
 41
0.18
 42
0.0625
 43
0.38
 44
0.18
 45
0.0
 46
0.0
 47
0.0
 48
0.0
140
0.18
141
0.09
142
0.0
143
25.4
144
1.0
145
0.0
146
1.0
147
0.09
 71
     0
 72
     0
 73
     1
 74
     1
 75
     0
 76
     0
 77
     0
 78
     0
170
     0
171
     2
172
     0
173
     0
174
     0
175
     0
176
     0
177
     0
178
     0
  0
ENDTAB
  0
ENDSEC
  0
SECTION
  2
BLOCKS
  0
BLOCK
  8
0
  2
$MODEL_SPACE
 70
     0
 10
0.0
 20
0.0
 30
0.0
  3
$MODEL_SPACE
  1

  0
ENDBLK
  5
9
  8
0
  0
BLOCK
 67
     1
  8
0
  2
$PAPER_SPACE
 70
     0
 10
0.0
 20
0.0
 30
0.0
  3
$PAPER_SPACE
  1

  0
ENDBLK
  5
E
 67
     1
  8
0
  0
BLOCK
  8
ARQ-VEG
  2
ARB8
 70
     0
 10
0.0
 20
0.0
 30
0.0
  3
ARB8
  1

  0
POLYLINE
  5
86
  8
0
 62
     0
 66
     1
 10
0.0
 20
0.0
 30
0.0
1001
ACDBBLOCKREPETAG
1070
     1
1071
        0
1005
86
  0
VERTEX
  5
105
  8
0
 62
     0
 10
-0.424836567839634
 20
19.32937438227145
 30
0.0
 42
1.010674351194169
  0
VERTEX
  5
106
  8
0
 62
     0
 10
-4.246434621424328
 20
18.14905428652696
 30
0.0
 42
-0.4166959553841273
  0
VERTEX
  5
107
  8
0
 62
     0
 10
-0.424836567839634
 20
19.32937438227145
 30
0.0
 42
0.1088517591830532
  0
SEQEND
  5
114
  8
0
 62
     0
  0
POLYLINE
  5
87
  8
0
 62
     0
 66
     1
 10
0.0
 20
0.0
 30
0.0
1001
ACDBBLOCKREPETAG
1070
     1
1071
        1
1005
87
  0
VERTEX
  5
108
  8
0
 62
     0
 10
-0.1469010795018448
 20
19.05165245392664
 30
0.0
 42
-0.4831868580996624
  0
VERTEX
  5
109
  8
0
 62
     0
 10
1.173290833317765
 20
16.62157797979398
 30
0.0
 42
-0.2350391823942791
  0
VERTEX
  5
10A
  8
0
 62
     0
 10
-0.1469010795018448
 20
19.05165245392664
 30
0.0
 42
-1.888681741128736
  0
SEQEND
  5
115
  8
0
 62
     0
  0
POLYLINE
  5
88
  8
0
 62
     0
 66
     1
 10
0.0
 20
0.0
 30
0.0
1001
ACDBBLOCKREPETAG
1070
     1
1071
        2
1005
88
  0
VERTEX
  5
10B
  8
0
 62
     0
 10
-0.2163866083702715
 20
19.67652869298126
 30
0.0
 42
-0.9637718820146601
  0
VERTEX
  5
10C
  8
0
 62
     0
 10
1.798644025293356
 20
21.06514213526316
 30
0.0
 42
0.1886338395923688
  0
VERTEX
  5
10D
  8
0
 62
     0
 10
-0.2163866083702715
 20
19.67652869298126
 30
0.0
 42
0.9250953186419361
  0
SEQEND
  5
116
  8
0
 62
     0
  0
POLYLINE
  5
89
  8
0
 62
     0
 66
     1
 10
0.0
 20
0.0
 30
0.0
1001
ACDBBLOCKREPETAG
1070
     1
1071
        3
1005
89
  0
VERTEX
  5
10E
  8
0
 62
     0
 10
-0.424836567839634
 20
19.60709821089517
 30
0.0
 42
0.8583205243204529
  0
VERTEX
  5
10F
  8
0
 62
     0
 10
-3.621088056585563
 20
21.20400309943579
 30
0.0
 42
-0.3165685301110233
  0
VERTEX
  5
110
  8
0
 62
     0
 10
-0.424836567839634
 20
19.60709821089517
 30
0.0
 42
0.5970643247286546
  0
SEQEND
  5
117
  8
0
 62
     0
  0
POLYLINE
  5
8A
  8
0
 62
     0
 66
     1
 10
0.0
 20
0.0
 30
0.0
1001
ACDBBLOCKREPETAG
1070
     1
1071
        4
1005
8A
  0
VERTEX
  5
111
  8
0
 62
     0
 10
-0.4943187831396472
 20
19.19051341809904
 30
0.0
 42
0.7042962760451036
  0
VERTEX
  5
112
  8
0
 62
     0
 10
-2.578831632103743
 20
17.73246949373106
 30
0.0
 42
0.3269698666255878
  0
VERTEX
  5
113
  8
0
 62
     0
 10
-0.4943187831396472
 20
19.19051341809904
 30
0.0
 42
-6.035220051606315
  0
SEQEND
  5
118
  8
0
 62
     0
  0
ARC
  5
8B
  8
0
 62
     0
 10
1.016250878318147
 20
18.42037100837936
 30
0.0
 40
1.628756743296065
 50
352.8798110607956
 51
143.0782060907961
1001
ACDBBLOCKREPETAG
1070
     1
1071
        5
1005
8B
  0
ARC
  5
8C
  8
0
 62
     0
 10
-0.4481461005440224
 20
14.79968103642062
 30
0.0
 40
4.601985864742388
 50
47.97882540803931
 51
87.97919174355228
1001
ACDBBLOCKREPETAG
1070
     1
1071
        6
1005
8C
  0
LINE
  5
8D
  8
0
 62
     0
 10
-0.4248365678391792
 20
20.2319744499498
 30
0.0
 11
-0.4248365678391792
 21
0.0
 31
0.0
1001
ACDBBLOCKREPETAG
1070
     1
1071
        7
1005
8D
  0
LINE
  5
8E
  8
0
 62
     0
 10
-0.216383294801858
 20
19.12108293601273
 30
0.0
 11
0.0
 21
0.0
 31
0.0
1001
ACDBBLOCKREPETAG
1070
     1
1071
        8
1005
8E
  0
ARC
  5
8F
  8
0
 62
     0
 10
-0.0735452344825944
 20
1.51643614679756
 30
0.0
 40
0.9575456768182506
 50
248.4775107535922
 51
274.0435879351052
1001
ACDBBLOCKREPETAG
1070
     1
1071
        9
1005
8F
  0
ARC
  5
90
  8
0
 62
     0
 10
-0.0735452344825944
 20
1.681380336114671
 30
0.0
 40
0.9575456768182506
 50
248.4775107535922
 51
273.9374897785821
1001
ACDBBLOCKREPETAG
1070
     1
1071
       10
1005
90
  0
ARC
  5
91
  8
0
 62
     0
 10
-0.0735452344825944
 20
1.784470454437951
 30
0.0
 40
0.9575456768182506
 50
248.4775107535922
 51
273.8711842456325
1001
ACDBBLOCKREPETAG
1070
     1
1071
       11
1005
91
  0
LINE
  5
92
  8
0
 62
     0
 10
-0.8897750393618367
 20
22.22734174155748
 30
0.0
 11
-0.3607564518445656
 21
20.84096999003755
 31
0.0
1001
ACDBBLOCKREPETAG
1070
     1
1071
       12
1005
92
  0
LINE
  5
93
  8
0
 62
     0
 10
-0.2791555341387948
 20
20.55552919974798
 30
0.0
 11
-0.0270758198477097
 21
21.39515593229066
 31
0.0
1001
ACDBBLOCKREPETAG
1070
     1
1071
       13
1005
93
  0
LINE
  5
94
  8
0
 62
     0
 10
0.3966599906528927
 20
21.7359766141642
 30
0.0
 11
-0.2335409518583447
 21
20.39257270192888
 31
0.0
1001
ACDBBLOCKREPETAG
1070
     1
1071
       14
1005
94
  0
ARC
  5
95
  8
0
 62
     0
 10
-2.744181484923786
 20
17.35754516053521
 30
0.0
 40
2.20567216284728
 50
357.8597634263113
 51
2.383341441394877
1001
ACDBBLOCKREPETAG
1070
     1
1071
       15
1005
95
  0
ARC
  5
96
  8
0
 62
     0
 10
-0.0735452344825944
 20
18.80505374897052
 30
0.0
 40
0.9575456768182506
 50
248.4775107535918
 51
262.241650321479
1001
ACDBBLOCKREPETAG
1070
     1
1071
       16
1005
96
  0
ARC
  5
97
  8
0
 62
     0
 10
-0.0735452344825944
 20
17.55530127086126
 30
0.0
 40
0.9575456768182506
 50
248.4775107535918
 51
263.051972007535
1001
ACDBBLOCKREPETAG
1070
     1
1071
       17
1005
97
  0
ARC
  5
98
  8
0
 62
     0
 10
-0.0735452344825944
 20
17.13871837834381
 30
0.0
 40
0.9575456768182506
 50
248.4775107535918
 51
263.3217325035973
1001
ACDBBLOCKREPETAG
1070
     1
1071
       18
1005
98
  0
ARC
  5
99
  8
0
 62
     0
 10
-0.0735452344825944
 20
15.95839638232064
 30
0.0
 40
0.9575456768182506
 50
248.4775107535918
 51
264.0851948903813
1001
ACDBBLOCKREPETAG
1070
     1
1071
       19
1005
99
  0
ARC
  5
9A
  8
0
 62
     0
 10
-0.0735452344825944
 20
15.61124207161083
 30
0.0
 40
0.9575456768182506
 50
248.4775107535918
 51
264.309515588192
1001
ACDBBLOCKREPETAG
1070
     1
1071
       20
1005
9A
  0
ARC
  5
9B
  8
0
 62
     0
 10
-0.0735452344825944
 20
15.4029506253521
 30
0.0
 40
0.9575456768182506
 50
248.4775107535918
 51
264.4440604821651
1001
ACDBBLOCKREPETAG
1070
     1
1071
       21
1005
9B
  0
ARC
  5
9C
  8
0
 62
     0
 10
-0.0735452344825944
 20
12.83401518704704
 30
0.0
 40
0.9575456768182506
 50
248.4775107535918
 51
266.1008813018647
1001
ACDBBLOCKREPETAG
1070
     1
1071
       22
1005
9C
  0
ARC
  5
9D
  8
0
 62
     0
 10
-0.0735452344825944
 20
11.72312367310997
 30
0.0
 40
0.9575456768182506
 50
248.4775107535918
 51
266.8160932501748
1001
ACDBBLOCKREPETAG
1070
     1
1071
       23
1005
9D
  0
ARC
  5
9E
  8
0
 62
     0
 10
-0.0735452344825944
 20
11.51483032657256
 30
0.0
 40
0.9575456768182506
 50
248.4775107535918
 51
266.9501269109446
1001
ACDBBLOCKREPETAG
1070
     1
1071
       24
1005
9E
  0
ARC
  5
9F
  8
0
 62
     0
 10
-0.0735452344825944
 20
11.23710839822775
 30
0.0
 40
0.9575456768182506
 50
248.4775107535918
 51
267.1288057220035
1001
ACDBBLOCKREPETAG
1070
     1
1071
       25
1005
9F
  0
ARC
  5
A0
  8
0
 62
     0
 10
-0.0735452344825944
 20
10.88995408751794
 30
0.0
 40
0.9575456768182506
 50
248.4775107535918
 51
267.3521079378003
1001
ACDBBLOCKREPETAG
1070
     1
1071
       26
1005
A0
  0
ARC
  5
A1
  8
0
 62
     0
 10
-0.0735452344825944
 20
8.668172959922686
 30
0.0
 40
0.9575456768182506
 50
248.4775107535918
 51
268.7802088945418
1001
ACDBBLOCKREPETAG
1070
     1
1071
       27
1005
A1
  0
ARC
  5
A2
  8
0
 62
     0
 10
-0.0735452344825944
 20
8.459879613385283
 30
0.0
 40
0.9575456768182506
 50
248.4775107535918
 51
268.914022047067
1001
ACDBBLOCKREPETAG
1070
     1
1071
       28
1005
A2
  0
ARC
  5
A3
  8
0
 62
     0
 10
-0.1973500897576059
 20
6.887195676884403
 30
0.0
 40
0.9575456768182506
 50
256.2566910881474
 51
277.347175992528
1001
ACDBBLOCKREPETAG
1070
     1
1071
       29
1005
A3
  0
ARC
  5
A4
  8
0
 62
     0
 10
-0.1973500897576059
 20
6.784105558561123
 30
0.0
 40
0.9575456768182506
 50
256.2566910881474
 51
277.413836479953
1001
ACDBBLOCKREPETAG
1070
     1
1071
       30
1005
A4
  0
ARC
  5
A5
  8
0
 62
     0
 10
-0.1973500897576059
 20
6.04185480635465
 30
0.0
 40
0.9575456768182506
 50
256.2566910881474
 51
277.8940719693693
1001
ACDBBLOCKREPETAG
1070
     1
1071
       31
1005
A5
  0
ARC
  5
A6
  8
0
 62
     0
 10
-0.1973500897576059
 20
5.918146664366759
 30
0.0
 40
0.9575456768182506
 50
256.2566910881474
 51
277.9741600970743
1001
ACDBBLOCKREPETAG
1070
     1
1071
       32
1005
A6
  0
ARC
  5
A7
  8
0
 62
     0
 10
-0.1973500897576059
 20
5.691348404055589
 30
0.0
 40
0.9575456768182506
 50
256.2566910881474
 51
278.1210260087082
1001
ACDBBLOCKREPETAG
1070
     1
1071
       33
1005
A7
  0
ARC
  5
A8
  8
0
 62
     0
 10
-0.1767164994731729
 20
3.918194568337867
 30
0.0
 40
0.9575456768182506
 50
254.9820959455431
 51
278.024223579147
1001
ACDBBLOCKREPETAG
1070
     1
1071
       34
1005
A8
  0
ARC
  5
A9
  8
0
 62
     0
 10
-0.1767164994731729
 20
3.794486426349749
 30
0.0
 40
0.9575456768182506
 50
254.9820959455431
 51
278.1043352899448
1001
ACDBBLOCKREPETAG
1070
     1
1071
       35
1005
A9
  0
ARC
  5
AA
  8
0
 62
     0
 10
-0.1767164994731729
 20
2.928527532155613
 30
0.0
 40
0.9575456768182506
 50
254.9820959455431
 51
278.6655401528615
1001
ACDBBLOCKREPETAG
1070
     1
1071
       36
1005
AA
  0
ARC
  5
AB
  8
0
 62
     0
 10
-0.1767164994731729
 20
2.763583342838274
 30
0.0
 40
0.9575456768182506
 50
254.9820959455431
 51
278.7725226096185
1001
ACDBBLOCKREPETAG
1070
     1
1071
       37
1005
AB
  0
ARC
  5
AC
  8
0
 62
     0
 10
-0.1354493189043069
 20
2.639873300571708
 30
0.0
 40
0.9575456768182506
 50
252.4091480709575
 51
276.364949224919
1001
ACDBBLOCKREPETAG
1070
     1
1071
       38
1005
AC
  0
ARC
  5
AD
  8
0
 62
     0
 10
-0.1148157286198739
 20
2.433693063925148
 30
0.0
 40
0.9575456768182506
 50
251.1091630913806
 51
275.258213469941
1001
ACDBBLOCKREPETAG
1070
     1
1071
       39
1005
AD
  0
ENDBLK
  5
57
  8
ARQ-VEG
  0
ENDSEC
  0
SECTION
  2
ENTITIES
  0
INSERT
  5
79
  8
0
 62
     0
  2
ARB8
 10
443460.9175828574
 20
4485389.613792605
 30
0.0
 41
0.3599999994039536
 42
0.3599999999627471
 43
0.36
 50
90.0
  0
INSERT
  5
7A
  8
0
 62
     0
  2
ARB8
 10
443461.0372232721
 20
4485388.704587504
 30
0.0
 41
0.2474999994039536
 42
0.2474999999627471
 43
0.2475
 50
90.0
  0
INSERT
  5
7B
  8
0
 62
     0
  2
ARB8
 10
443461.2279389362
 20
4485387.417464133
 30
0.0
 41
0.3150000005960465
 42
0.3150000000372529
 43
0.315
 50
90.0
  0
ENDSEC
  0
EOF
