  0
SECTION
  2
HEADER
  9
$ACADVER
  1
AC1009
  9
$DWGCODEPAGE
  3
ansi_1252
  9
$INSBASE
 10
-0.2105051153699722
 20
-0.0051824115615408
 30
10.79015296886647
  9
$EXTMIN
 10
-0.9365594174439142
 20
-0.4716065042084903
 30
10.79015296886647
  9
$EXTMAX
 10
0.4475235524111016
 20
0.6088586713923306
 30
12.84596619647056
  9
$LIMMIN
 10
0.0
 20
0.0
  9
$LIMMAX
 10
60.0
 20
50.0
  9
$ORTHOMODE
 70
     0
  9
$REGENMODE
 70
     1
  9
$FILLMODE
 70
     1
  9
$QTEXTMODE
 70
     0
  9
$MIRRTEXT
 70
     1
  9
$DRAGMODE
 70
     2
  9
$LTSCALE
 40
0.8
  9
$OSMODE
 70
    37
  9
$ATTMODE
 70
     1
  9
$TEXTSIZE
 40
0.2
  9
$TRACEWID
 40
0.05
  9
$TEXTSTYLE
  7
STANDARD
  9
$CLAYER
  8
0
  9
$CELTYPE
  6
BYLAYER
  9
$CECOLOR
 62
   256
  9
$DIMSCALE
 40
1.0
  9
$DIMASZ
 40
0.07
  9
$DIMEXO
 40
0.063
  9
$DIMDLI
 40
0.0
  9
$DIMRND
 40
0.0
  9
$DIMDLE
 40
0.0
  9
$DIMEXE
 40
0.1
  9
$DIMTP
 40
0.0
  9
$DIMTM
 40
0.0
  9
$DIMTXT
 40
0.08
  9
$DIMCEN
 40
0.09
  9
$DIMTSZ
 40
0.0
  9
$DIMTOL
 70
     0
  9
$DIMLIM
 70
     0
  9
$DIMTIH
 70
     0
  9
$DIMTOH
 70
     0
  9
$DIMSE1
 70
     0
  9
$DIMSE2
 70
     0
  9
$DIMTAD
 70
     1
  9
$DIMZIN
 70
     4
  9
$DIMBLK
  1

  9
$DIMASO
 70
     1
  9
$DIMSHO
 70
     1
  9
$DIMPOST
  1

  9
$DIMAPOST
  1

  9
$DIMALT
 70
     0
  9
$DIMALTD
 70
     2
  9
$DIMALTF
 40
25.4
  9
$DIMLFAC
 40
1.0
  9
$DIMTOFL
 70
     1
  9
$DIMTVP
 40
0.0
  9
$DIMTIX
 70
     1
  9
$DIMSOXD
 70
     0
  9
$DIMSAH
 70
     0
  9
$DIMBLK1
  1

  9
$DIMBLK2
  1

  9
$DIMSTYLE
  2
STANDARD
  9
$DIMCLRD
 70
   252
  9
$DIMCLRE
 70
   252
  9
$DIMCLRT
 70
   256
  9
$DIMTFAC
 40
2.25
  9
$DIMGAP
 40
0.09
  9
$LUNITS
 70
     2
  9
$LUPREC
 70
     2
  9
$SKETCHINC
 40
0.01
  9
$FILLETRAD
 40
0.0
  9
$AUNITS
 70
     0
  9
$AUPREC
 70
     0
  9
$MENU
  1
acad
  9
$ELEVATION
 40
0.0
  9
$PELEVATION
 40
0.0
  9
$THICKNESS
 40
0.0
  9
$LIMCHECK
 70
     0
  9
$CHAMFERA
 40
0.6
  9
$CHAMFERB
 40
0.6
  9
$SKPOLY
 70
     0
  9
$TDCREATE
 40
2449958.804432754
  9
$TDUPDATE
 40
2457464.593912037
  9
$TDINDWG
 40
0.0179390972
  9
$TDUSRTIMER
 40
0.0179390972
  9
$USRTIMER
 70
     1
  9
$ANGBASE
 50
0.0
  9
$ANGDIR
 70
     0
  9
$PDMODE
 70
     0
  9
$PDSIZE
 40
0.0
  9
$PLINEWID
 40
0.0
  9
$COORDS
 70
     1
  9
$SPLFRAME
 70
     0
  9
$SPLINETYPE
 70
     6
  9
$SPLINESEGS
 70
     8
  9
$ATTDIA
 70
     0
  9
$ATTREQ
 70
     1
  9
$HANDLING
 70
     1
  9
$HANDSEED
  5
23D40CC0
  9
$SURFTAB1
 70
     6
  9
$SURFTAB2
 70
     6
  9
$SURFTYPE
 70
     6
  9
$SURFU
 70
     6
  9
$SURFV
 70
     6
  9
$UCSNAME
  2

  9
$UCSORG
 10
0.0
 20
0.0
 30
0.0
  9
$UCSXDIR
 10
1.0
 20
0.0
 30
0.0
  9
$UCSYDIR
 10
0.0
 20
1.0
 30
0.0
  9
$PUCSNAME
  2

  9
$PUCSORG
 10
0.0
 20
0.0
 30
0.0
  9
$PUCSXDIR
 10
1.0
 20
0.0
 30
0.0
  9
$PUCSYDIR
 10
0.0
 20
1.0
 30
0.0
  9
$USERI1
 70
     0
  9
$USERI2
 70
     0
  9
$USERI3
 70
     0
  9
$USERI4
 70
     0
  9
$USERI5
 70
     0
  9
$USERR1
 40
0.0
  9
$USERR2
 40
0.0
  9
$USERR3
 40
0.0
  9
$USERR4
 40
0.0
  9
$USERR5
 40
0.0
  9
$WORLDVIEW
 70
     1
  9
$SHADEDGE
 70
     3
  9
$SHADEDIF
 70
    70
  9
$TILEMODE
 70
     1
  9
$MAXACTVP
 70
    16
  9
$PLIMCHECK
 70
     0
  9
$PEXTMIN
 10
1.436836790409869
 20
0.9639364256827181
 30
0.0
  9
$PEXTMAX
 10
8.097324837909868
 20
5.792790260120217
 30
0.9843475938729231
  9
$PLIMMIN
 10
1.436836790409869
 20
0.9639364256827181
  9
$PLIMMAX
 10
8.097324837909868
 20
5.792790260120217
  9
$UNITMODE
 70
     0
  9
$VISRETAIN
 70
     0
  9
$PLINEGEN
 70
     0
  9
$PSLTSCALE
 70
     0
  0
ENDSEC
  0
SECTION
  2
TABLES
  0
TABLE
  2
VPORT
 70
     1
  0
VPORT
  2
*ACTIVE
 70
     0
 10
0.0
 20
0.0
 11
1.0
 21
1.0
 12
-0.2546280923820783
 22
11.73441677504382
 13
0.0
 23
0.0
 14
0.3
 24
0.3
 15
0.0
 25
0.0
 16
-0.9224301871684621
 26
-4.349794238683205
 36
1.153474685883229
 17
0.0
 27
0.0
 37
0.0
 40
2.952289624495088
 41
1.503537735849057
 42
50.0
 43
0.0
 44
0.0
 50
0.0
 51
0.0
 71
     0
 72
   100
 73
     1
 74
     1
 75
     0
 76
     0
 77
     0
 78
     1
  0
ENDTAB
  0
TABLE
  2
LTYPE
 70
     1
  0
LTYPE
  2
CONTINUOUS
 70
     0
  3
Solid line
 72
    65
 73
     0
 40
0.0
  0
ENDTAB
  0
TABLE
  2
LAYER
 70
     1
  0
LAYER
  2
0
 70
     0
 62
     7
  6
CONTINUOUS
  0
ENDTAB
  0
TABLE
  2
STYLE
 70
     1
  0
STYLE
  2
STANDARD
 70
     0
 40
0.0
 41
1.0
 50
0.0
 71
     0
 42
0.2
  3
txt
  4

  0
ENDTAB
  0
TABLE
  2
VIEW
 70
     1
  0
VIEW
  2
1
 70
     0
 40
2.892453117867706
 10
-0.0436219344998219
 20
11.2738430224469
 41
4.293951020339688
 11
-0.9224301871684621
 21
-4.349794238683205
 31
1.153474685883229
 12
0.0
 22
0.0
 32
0.0
 42
50.0
 43
0.0
 44
0.0
 50
0.0
 71
     0
  0
ENDTAB
  0
TABLE
  2
UCS
 70
     1
  0
UCS
  2
1
 70
     0
 10
0.0
 20
0.0
 30
0.0
 11
1.0
 21
0.0
 31
0.0
 12
0.0
 22
0.0
 32
1.0
  0
ENDTAB
  0
TABLE
  2
APPID
 70
     5
  0
APPID
  2
ACAD
 70
     0
  0
APPID
  2
ACAUTHENVIRON
 70
     0
  0
APPID
  2
ACDBDYNAMICBLOCKTRUENAME
 70
     0
  0
APPID
  2
ACDBDYNAMICBLOCKGUID
 70
     0
  0
APPID
  2
ACDBBLOCKREPETAG
 70
     0
  0
ENDTAB
  0
TABLE
  2
DIMSTYLE
 70
     1
  0
DIMSTYLE
  2
STANDARD
 70
     0
  3

  4

  5

  6

  7

 40
1.0
 41
0.18
 42
0.0625
 43
0.38
 44
0.18
 45
0.0
 46
0.0
 47
0.0
 48
0.0
140
0.18
141
0.09
142
0.0
143
25.4
144
1.0
145
0.0
146
1.0
147
0.09
 71
     0
 72
     0
 73
     1
 74
     1
 75
     0
 76
     0
 77
     0
 78
     0
170
     0
171
     2
172
     0
173
     0
174
     0
175
     0
176
     0
177
     0
178
     0
  0
ENDTAB
  0
ENDSEC
  0
SECTION
  2
BLOCKS
  0
BLOCK
  8
0
  2
$MODEL_SPACE
 70
     0
 10
0.0
 20
0.0
 30
0.0
  3
$MODEL_SPACE
  1

  0
ENDBLK
  5
23D40C3F
  8
0
  0
BLOCK
 67
     1
  8
0
  2
$PAPER_SPACE
 70
     0
 10
0.0
 20
0.0
 30
0.0
  3
$PAPER_SPACE
  1

  0
ENDBLK
  5
23D40C3D
 67
     1
  8
0
  0
BLOCK
  8
0
  2
3DLF-P1
 70
     0
 10
0.0
 20
0.0
 30
0.0
  3
3DLF-P1
  1

  0
3DFACE
  5
23D40C5D
  8
0
 62
     0
 10
-19.36144805530512
 20
0.0
 30
-5.260567001698631
 11
-17.06068058894425
 21
1.969615506024411
 31
-1.970113564227805
 12
-17.11144805530512
 22
0.0
 32
-1.363452684668657
 13
-19.36144805530512
 23
0.0
 33
-5.260567001698631
1001
ACDBBLOCKREPETAG
1070
     1
1071
        0
1005
23D40C5D
  0
3DFACE
  5
23D40C5E
  8
0
 62
     0
 10
-19.36144805530512
 20
0.0
 30
-5.260567001698631
 11
-17.06068058894425
 21
-1.969615506024411
 31
-1.970113564227807
 12
-17.11144805530512
 22
0.0
 32
-1.363452684668657
 13
-19.36144805530512
 23
0.0
 33
-5.260567001698631
1001
ACDBBLOCKREPETAG
1070
     1
1071
        1
1005
23D40C5E
  0
3DFACE
  5
23D40C5F
  8
0
 62
     0
 10
-17.11144805530512
 20
0.0
 30
-1.36345268466865
 11
-17.01339784471384
 21
2.241438070706408
 31
-1.533280631105291
 12
-13.9387310600946
 22
3.237632768798221
 32
0.1412402815895373
 13
-13.64734644016721
 23
0.0
 33
0.6365473153313506
1001
ACDBBLOCKREPETAG
1070
     1
1071
        2
1005
23D40C5F
  0
3DFACE
  5
23D40C60
  8
0
 62
     0
 10
-17.11144805530512
 20
0.0
 30
-1.36345268466865
 11
-16.79689149376782
 21
-2.241438070706408
 31
-1.408280631105291
 12
-12.43408107131518
 22
-2.988584094275211
 32
1.03511005341583
 13
-12.34830833449064
 23
0.0
 33
1.386547315331349
1001
ACDBBLOCKREPETAG
1070
     1
1071
        3
1005
23D40C60
  0
3DFACE
  5
23D40C61
  8
0
 62
     0
 10
-13.64734644016721
 20
0.0
 30
0.6365473153313506
 11
-13.50571835820233
 21
3.237632768798221
 31
0.3912402815895355
 12
-12.42318660347178
 22
3.237632768798221
 32
1.016240281589535
 13
-12.34830833449064
 23
0.0
 33
1.386547315331349
1001
ACDBBLOCKREPETAG
1070
     1
1071
        4
1005
23D40C61
  0
3DFACE
  5
23D40C62
  8
0
 62
     0
 10
-12.34830833449064
 20
0.0
 30
1.386547315331347
 11
-12.09830833449064
 21
-1.207407282861368
 31
1.710071121709499
 12
-11.84830833449064
 22
-1.207407282861368
 32
1.710071121709499
 13
-11.84830833449064
 23
0.0
 33
1.386547315331349
 70
     4
1001
ACDBBLOCKREPETAG
1070
     1
1071
        5
1005
23D40C62
  0
3DFACE
  5
23D40C63
  8
0
 62
     0
 10
-11.84830833449064
 20
0.0
 30
1.386547315331349
 11
-11.84830833449064
 21
-1.207407282861368
 31
1.710071121709499
 12
-11.34830833449064
 22
-2.89777747886717
 32
2.16300445063891
 13
-11.34830833449064
 23
0.0
 33
1.386547315331349
 70
     5
1001
ACDBBLOCKREPETAG
1070
     1
1071
        6
1005
23D40C63
  0
3DFACE
  5
23D40C64
  8
0
 62
     0
 10
-11.34830833449064
 20
0.0
 30
1.386547315331349
 11
-11.34830833449064
 21
-2.89777747886717
 31
2.16300445063891
 12
-8.098308334490639
 22
-2.89777747886717
 32
2.16300445063891
 13
-7.848308334490639
 23
-1.931851652578189
 33
1.90418540553639
 70
     9
1001
ACDBBLOCKREPETAG
1070
     1
1071
        7
1005
23D40C64
  0
3DFACE
  5
23D40C65
  8
0
 62
     0
 10
-11.34830833449064
 20
0.0
 30
1.386547315331349
 11
-7.848308334490639
 21
0.0
 31
1.386547315331349
 12
-7.848308334490639
 22
-1.931851652578189
 32
1.90418540553639
 13
-7.848308334490639
 23
-1.931851652578189
 33
1.90418540553639
 70
    10
1001
ACDBBLOCKREPETAG
1070
     1
1071
        8
1005
23D40C65
  0
3DFACE
  5
23D40C66
  8
0
 62
     0
 10
-7.878462024097644
 20
0.0
 30
1.389185421335444
 11
-7.818154644883634
 21
-1.969615506024411
 31
1.731205564661114
 12
-7.54179901702355
 22
-2.954423259036616
 32
1.858803591907215
 13
-3.878923632834812
 23
-1.969615506024411
 33
1.036612853993391
 70
     9
1001
ACDBBLOCKREPETAG
1070
     1
1071
        9
1005
23D40C66
  0
3DFACE
  5
23D40C67
  8
0
 62
     0
 10
-7.878462024097644
 20
0.0
 30
1.389185421335444
 11
-3.878923632834812
 21
-1.969615506024411
 31
1.036612853993391
 12
-1.215932846461783
 22
-0.4924038765061596
 32
0.3025652579150808
 13
-0.9848077530123192
 23
0.0
 33
0.1736481776669301
 70
     1
1001
ACDBBLOCKREPETAG
1070
     1
1071
       10
1005
23D40C67
  0
3DFACE
  5
23D40C68
  8
0
 62
     0
 10
-12.34830833449064
 20
0.0
 30
1.386547315331347
 11
-12.09830833449064
 21
3.139258935439443
 31
2.22770921191454
 12
-7.848308334490639
 22
3.139258935439443
 32
2.227709211914538
 13
-7.848308334490639
 23
0.0
 33
1.386547315331349
1001
ACDBBLOCKREPETAG
1070
     1
1071
       11
1005
23D40C68
  0
3DFACE
  5
23D40C69
  8
0
 62
     0
 10
-7.878462024097644
 20
0.0
 30
1.389185421335444
 11
-7.288058656368548
 21
3.200625197289696
 31
1.85814406540619
 12
-3.871385210432891
 22
2.215817444277491
 32
1.0793653719091
 13
-3.939231012048822
 23
0.0
 33
0.6945927106677221
 70
     4
1001
ACDBBLOCKREPETAG
1070
     1
1071
       12
1005
23D40C69
  0
3DFACE
  5
23D40C6A
  8
0
 62
     0
 10
-3.939231012048822
 20
0.0
 30
0.6945927106677221
 11
-3.871385210432891
 21
2.215817444277491
 31
1.0793653719091
 12
-1.208394424060089
 22
0.7386058147591257
 32
0.3453177758307895
 13
-1.208394424060089
 23
0.7386058147591257
 33
0.3453177758307895
 70
     9
1001
ACDBBLOCKREPETAG
1070
     1
1071
       13
1005
23D40C6A
  0
3DFACE
  5
23D40C6B
  8
0
 62
     0
 10
-3.939231012048822
 20
0.0
 30
0.6945927106677221
 11
-1.208394424060089
 21
0.7386058147591257
 31
0.3453177758307895
 12
-0.9848077530123192
 22
0.0
 32
0.1736481776669301
 13
-0.9848077530123192
 23
0.0
 33
0.1736481776669301
 70
     1
1001
ACDBBLOCKREPETAG
1070
     1
1071
       14
1005
23D40C6B
  0
LINE
  5
23D40C6C
  8
0
 62
     0
 10
-0.9848077530123192
 20
0.0
 30
0.1736481776669301
 11
0.0
 21
0.0
 31
0.1736481776669301
1001
ACDBBLOCKREPETAG
1070
     1
1071
       15
1005
23D40C6C
  0
ENDBLK
  5
13EAAB3
  8
0
  0
ENDSEC
  0
SECTION
  2
ENTITIES
  0
INSERT
  5
13EAAB6
  8
0
 62
     0
  2
3DLF-P1
 10
-0.2105051153699721
 20
-0.0051824115615408
 30
12.47995938859531
 41
0.028125
 42
0.028125
 43
0.028125
 50
330.0
  0
INSERT
  5
13EAAB7
  8
0
 62
     0
  2
3DLF-P1
 10
-0.2105051153699721
 20
-0.0051824115615408
 30
12.73648457994887
 41
0.01125
 42
0.01125
 43
0.01125
 50
230.1944289077348
  0
INSERT
  5
13EAAB8
  8
0
 62
     0
  2
3DLF-P1
 10
-0.2105051153699721
 20
-0.0051824115615408
 30
12.48578463626004
 41
0.0225
 42
0.0225
 43
0.0225
 50
130.2363583092738
  0
INSERT
  5
13EAAB9
  8
0
 62
     0
  2
3DLF-P1
 10
-0.2105051153699721
 20
-0.0051824115615408
 30
12.62462741947066
 41
0.015
 42
0.015
 43
0.015
 50
113.1985905136482
  0
INSERT
  5
13EAAC0
  8
0
 62
     0
  2
3DLF-P1
 10
0.0643414152146822
 20
8.519005404160545
 30
9.470223284558136
 41
0.009375
 42
0.009375
 43
0.009375
 50
254.1723377001319
210
-0.6572652904056426
220
0.1761137037771993
230
0.7327934916262993
  0
INSERT
  5
13EAAC1
  8
0
 62
     0
  2
3DLF-P1
 10
-0.0594885581189953
 20
9.653562792239393
 30
8.310689817578677
 41
0.009375
 42
0.009375
 43
0.009375
 50
257.2160735877907
210
0.7219419637256638
220
-0.1934437661624303
230
0.6643638388299195
  0
INSERT
  5
13EAAC2
  8
0
 62
     0
  2
3DLF-P1
 10
-0.2105051153699721
 20
-0.0051824115615408
 30
12.729564002493
 41
0.01875
 42
0.01875
 43
0.01875
 50
15.0
  0
INSERT
  5
13EAAC3
  8
0
 62
     0
  2
3DLF-P1
 10
-0.2105051153699721
 20
-0.0051824115615408
 30
12.663939002493
 41
0.020625
 42
0.020625
 43
0.020625
 50
210.0
  0
INSERT
  5
13EAAC4
  8
0
 62
     0
  2
3DLF-P1
 10
-0.2105051153699721
 20
-0.0051824115615408
 30
12.70143900249299
 41
0.0225
 42
0.0225
 43
0.0225
 50
295.1447856306789
  0
INSERT
  5
13EAAC5
  8
0
 62
     0
  2
3DLF-P1
 10
-0.2105051153699721
 20
-0.0051824115615408
 30
12.70187354482123
 41
0.0225
 42
0.0225
 43
0.0225
 50
95.0
  0
INSERT
  5
13EAAC6
  8
0
 62
     0
  2
3DLF-P1
 10
-0.2105051153699721
 20
-0.0051824115615408
 30
12.617064002493
 41
0.028125
 42
0.028125
 43
0.028125
 50
330.0
  0
INSERT
  5
13EAAC7
  8
0
 62
     0
  2
3DLF-P1
 10
-0.2105051153699721
 20
-0.0051824115615408
 30
12.59473488392478
 41
0.03
 42
0.03
 43
0.03
 50
190.0
  0
INSERT
  5
13EAAC8
  8
0
 62
     0
  2
3DLF-P1
 10
-0.2105051153699721
 20
0.0041925884384592
 30
12.54514576886938
 41
0.03
 42
0.03
 43
0.03
 50
55.0
  0
INSERT
  5
13EAAC9
  8
0
 62
     0
  2
3DLF-P1
 10
-0.2105051153699721
 20
-0.0051824115615408
 30
12.49917330090244
 41
0.03375
 42
0.03375
 43
0.03375
 50
250.0
  0
INSERT
  5
13EAACA
  8
0
 62
     0
  2
3DLF-P1
 10
-0.2105051153699721
 20
-0.0051824115615408
 30
12.44871917858828
 41
0.0375
 42
0.0375
 43
0.0375
 50
155.0
  0
INSERT
  5
13EAACB
  8
0
 62
     0
  2
3DLF-P1
 10
-0.2105051153699721
 20
-0.0051824115615408
 30
12.42504238181296
 41
0.0375
 42
0.0375
 43
0.0375
  0
CIRCLE
  5
23D40C19
  8
0
 62
     0
 39
1.95
 10
-0.2105051153699722
 20
-0.0051824115615408
 30
10.79015296886647
 40
0.0227466201088137
  0
ENDSEC
  0
EOF
