  0
SECTION
  2
HEADER
  9
$ACADVER
  1
AC1009
  9
$DWGCODEPAGE
  3
ansi_1252
  9
$INSBASE
 10
0.0
 20
0.0
 30
0.0
  9
$EXTMIN
 10
-0.4596744429115441
 20
0.0166454112367564
 30
0.0
  9
$EXTMAX
 10
0.5403255570884558
 20
1.355359458936801
 30
0.0
  9
$LIMMIN
 10
0.0
 20
0.0
  9
$LIMMAX
 10
12.0
 20
9.0
  9
$ORTHOMODE
 70
     0
  9
$REGENMODE
 70
     0
  9
$FILLMODE
 70
     1
  9
$QTEXTMODE
 70
     0
  9
$MIRRTEXT
 70
     1
  9
$DRAGMODE
 70
     2
  9
$LTSCALE
 40
1.0
  9
$OSMODE
 70
    37
  9
$ATTMODE
 70
     1
  9
$TEXTSIZE
 40
0.2
  9
$TRACEWID
 40
0.05
  9
$TEXTSTYLE
  7
STANDARD
  9
$CLAYER
  8
0
  9
$CELTYPE
  6
BYLAYER
  9
$CECOLOR
 62
   256
  9
$DIMSCALE
 40
1.0
  9
$DIMASZ
 40
0.18
  9
$DIMEXO
 40
0.0625
  9
$DIMDLI
 40
0.38
  9
$DIMRND
 40
0.0
  9
$DIMDLE
 40
0.0
  9
$DIMEXE
 40
0.18
  9
$DIMTP
 40
0.0
  9
$DIMTM
 40
0.0
  9
$DIMTXT
 40
0.18
  9
$DIMCEN
 40
0.09
  9
$DIMTSZ
 40
0.0
  9
$DIMTOL
 70
     0
  9
$DIMLIM
 70
     0
  9
$DIMTIH
 70
     1
  9
$DIMTOH
 70
     1
  9
$DIMSE1
 70
     0
  9
$DIMSE2
 70
     0
  9
$DIMTAD
 70
     0
  9
$DIMZIN
 70
     0
  9
$DIMBLK
  1

  9
$DIMASO
 70
     1
  9
$DIMSHO
 70
     0
  9
$DIMPOST
  1

  9
$DIMAPOST
  1

  9
$DIMALT
 70
     0
  9
$DIMALTD
 70
     2
  9
$DIMALTF
 40
25.4
  9
$DIMLFAC
 40
1.0
  9
$DIMTOFL
 70
     0
  9
$DIMTVP
 40
0.0
  9
$DIMTIX
 70
     0
  9
$DIMSOXD
 70
     0
  9
$DIMSAH
 70
     0
  9
$DIMBLK1
  1

  9
$DIMBLK2
  1

  9
$DIMSTYLE
  2
STANDARD
  9
$DIMCLRD
 70
     0
  9
$DIMCLRE
 70
     0
  9
$DIMCLRT
 70
     0
  9
$DIMTFAC
 40
1.0
  9
$DIMGAP
 40
0.09
  9
$LUNITS
 70
     2
  9
$LUPREC
 70
     2
  9
$SKETCHINC
 40
0.1
  9
$FILLETRAD
 40
0.0
  9
$AUNITS
 70
     0
  9
$AUPREC
 70
     0
  9
$MENU
  1
acad
  9
$ELEVATION
 40
0.0
  9
$PELEVATION
 40
0.0
  9
$THICKNESS
 40
0.0
  9
$LIMCHECK
 70
     0
  9
$CHAMFERA
 40
0.0
  9
$CHAMFERB
 40
0.0
  9
$SKPOLY
 70
     0
  9
$TDCREATE
 40
2448331.554479167
  9
$TDUPDATE
 40
2457464.594039352
  9
$TDINDWG
 40
0.0005107755
  9
$TDUSRTIMER
 40
0.0005107755
  9
$USRTIMER
 70
     1
  9
$ANGBASE
 50
0.0
  9
$ANGDIR
 70
     0
  9
$PDMODE
 70
     0
  9
$PDSIZE
 40
0.0
  9
$PLINEWID
 40
0.0
  9
$COORDS
 70
     1
  9
$SPLFRAME
 70
     0
  9
$SPLINETYPE
 70
     6
  9
$SPLINESEGS
 70
     8
  9
$ATTDIA
 70
     0
  9
$ATTREQ
 70
     1
  9
$HANDLING
 70
     1
  9
$HANDSEED
  5
DC
  9
$SURFTAB1
 70
     6
  9
$SURFTAB2
 70
     6
  9
$SURFTYPE
 70
     6
  9
$SURFU
 70
     6
  9
$SURFV
 70
     6
  9
$UCSNAME
  2

  9
$UCSORG
 10
0.0
 20
0.0
 30
0.0
  9
$UCSXDIR
 10
1.0
 20
0.0
 30
0.0
  9
$UCSYDIR
 10
0.0
 20
1.0
 30
0.0
  9
$PUCSNAME
  2

  9
$PUCSORG
 10
0.0
 20
0.0
 30
0.0
  9
$PUCSXDIR
 10
1.0
 20
0.0
 30
0.0
  9
$PUCSYDIR
 10
0.0
 20
1.0
 30
0.0
  9
$USERI1
 70
     0
  9
$USERI2
 70
     0
  9
$USERI3
 70
     0
  9
$USERI4
 70
     0
  9
$USERI5
 70
     0
  9
$USERR1
 40
0.0
  9
$USERR2
 40
0.0
  9
$USERR3
 40
0.0
  9
$USERR4
 40
0.0
  9
$USERR5
 40
0.0
  9
$WORLDVIEW
 70
     1
  9
$SHADEDGE
 70
     3
  9
$SHADEDIF
 70
    70
  9
$TILEMODE
 70
     1
  9
$MAXACTVP
 70
    16
  9
$PLIMCHECK
 70
     0
  9
$PEXTMIN
 10
1.000000000000000E+20
 20
1.000000000000000E+20
 30
1.000000000000000E+20
  9
$PEXTMAX
 10
-1.000000000000000E+20
 20
-1.000000000000000E+20
 30
-1.000000000000000E+20
  9
$PLIMMIN
 10
0.0
 20
0.0
  9
$PLIMMAX
 10
12.0
 20
9.0
  9
$UNITMODE
 70
     0
  9
$VISRETAIN
 70
     0
  9
$PLINEGEN
 70
     0
  9
$PSLTSCALE
 70
     0
  0
ENDSEC
  0
SECTION
  2
TABLES
  0
TABLE
  2
VPORT
 70
     1
  0
VPORT
  2
*ACTIVE
 70
     0
 10
0.0
 20
0.0
 11
1.0
 21
1.0
 12
0.0400700911013341
 22
0.8535046859477997
 13
0.0
 23
0.0
 14
1.0
 24
1.0
 15
0.0
 25
0.0
 16
0.0
 26
0.0
 36
1.0
 17
0.0
 27
0.0
 37
0.0
 40
1.69760857831954
 41
1.503537735849057
 42
50.0
 43
0.0
 44
0.0
 50
0.0
 51
0.0
 71
     0
 72
   100
 73
     1
 74
     1
 75
     0
 76
     0
 77
     0
 78
     0
  0
ENDTAB
  0
TABLE
  2
LTYPE
 70
     1
  0
LTYPE
  2
CONTINUOUS
 70
     0
  3
Solid line
 72
    65
 73
     0
 40
0.0
  0
ENDTAB
  0
TABLE
  2
LAYER
 70
     1
  0
LAYER
  2
0
 70
     0
 62
     7
  6
CONTINUOUS
  0
ENDTAB
  0
TABLE
  2
STYLE
 70
     1
  0
STYLE
  2
STANDARD
 70
     0
 40
0.0
 41
1.0
 50
0.0
 71
     0
 42
0.2
  3
txt
  4

  0
ENDTAB
  0
TABLE
  2
VIEW
 70
     0
  0
ENDTAB
  0
TABLE
  2
UCS
 70
     0
  0
ENDTAB
  0
TABLE
  2
APPID
 70
     1
  0
APPID
  2
ACAD
 70
     0
  0
ENDTAB
  0
TABLE
  2
DIMSTYLE
 70
     1
  0
DIMSTYLE
  2
STANDARD
 70
     0
  3

  4

  5

  6

  7

 40
1.0
 41
0.18
 42
0.0625
 43
0.38
 44
0.18
 45
0.0
 46
0.0
 47
0.0
 48
0.0
140
0.18
141
0.09
142
0.0
143
25.4
144
1.0
145
0.0
146
1.0
147
0.09
 71
     0
 72
     0
 73
     1
 74
     1
 75
     0
 76
     0
 77
     0
 78
     0
170
     0
171
     2
172
     0
173
     0
174
     0
175
     0
176
     0
177
     0
178
     0
  0
ENDTAB
  0
ENDSEC
  0
SECTION
  2
BLOCKS
  0
BLOCK
  8
0
  2
$MODEL_SPACE
 70
     0
 10
0.0
 20
0.0
 30
0.0
  3
$MODEL_SPACE
  1

  0
ENDBLK
  5
20
  8
0
  0
BLOCK
 67
     1
  8
0
  2
$PAPER_SPACE
 70
     0
 10
0.0
 20
0.0
 30
0.0
  3
$PAPER_SPACE
  1

  0
ENDBLK
  5
1E
 67
     1
  8
0
  0
ENDSEC
  0
SECTION
  2
ENTITIES
  0
LINE
  5
23
  8
0
 62
     0
 10
-0.0506086529718903
 20
0.2162561879291474
 30
0.0
 11
-0.0742684227157457
 21
0.040837212839931
 31
0.0
  0
LINE
  5
24
  8
0
 62
     0
 10
-0.044240742234645
 20
0.3164395989122304
 30
0.0
 11
-0.0506086529718903
 21
0.2162561879291474
 31
0.0
  0
LINE
  5
25
  8
0
 62
     0
 10
-0.0322708489786869
 20
0.3862691922372907
 30
0.0
 11
-0.044240742234645
 21
0.3164395989122304
 31
0.0
  0
LINE
  5
26
  8
0
 62
     0
 10
-0.1017504213436644
 20
0.3535393499443837
 30
0.0
 11
-0.0322708489786869
 21
0.3862691922372907
 31
0.0
  0
LINE
  5
27
  8
0
 62
     0
 10
-0.1322022448705116
 20
0.3604532933793471
 30
0.0
 11
-0.1017504213436644
 21
0.3535393499443837
 31
0.0
  0
LINE
  5
28
  8
0
 62
     0
 10
-0.1768039745505569
 20
0.3475873464655835
 30
0.0
 11
-0.1322022448705116
 21
0.3604532933793471
 31
0.0
  0
LINE
  5
29
  8
0
 62
     0
 10
-0.2145477641492527
 20
0.3723251807664852
 30
0.0
 11
-0.1768039745505569
 21
0.3475873464655835
 31
0.0
  0
LINE
  5
2A
  8
0
 62
     0
 10
-0.2326236701064404
 20
0.397217024289821
 30
0.0
 11
-0.2145477641492527
 21
0.3723251807664852
 31
0.0
  0
LINE
  5
2B
  8
0
 62
     0
 10
-0.2770293880488458
 20
0.3593192254686912
 30
0.0
 11
-0.2326236701064404
 21
0.397217024289821
 31
0.0
  0
LINE
  5
2C
  8
0
 62
     0
 10
-0.3194511048316511
 20
0.2964035755785989
 30
0.0
 11
-0.2770293880488458
 21
0.3593192254686912
 31
0.0
  0
LINE
  5
2D
  8
0
 62
     0
 10
-0.3514389026891957
 20
0.2711197085799744
 30
0.0
 11
-0.3194511048316511
 21
0.2964035755785989
 31
0.0
  0
LINE
  5
2E
  8
0
 62
     0
 10
-0.3570968885615225
 20
0.3086254839258153
 30
0.0
 11
-0.3514389026891957
 21
0.2711197085799744
 31
0.0
  0
LINE
  5
2F
  8
0
 62
     0
 10
-0.3522649521549837
 20
0.3766110844753106
 30
0.0
 11
-0.3570968885615225
 21
0.3086254839258153
 31
0.0
  0
LINE
  5
30
  8
0
 62
     0
 10
-0.3333811154640531
 20
0.4768925013272136
 30
0.0
 11
-0.3522649521549837
 21
0.3766110844753106
 31
0.0
  0
LINE
  5
31
  8
0
 62
     0
 10
-0.321355218854481
 20
0.539570136964451
 30
0.0
 11
-0.3333811154640531
 21
0.4768925013272136
 31
0.0
  0
LINE
  5
32
  8
0
 62
     0
 10
-0.2715435301310026
 20
0.5721459700349287
 30
0.0
 11
-0.321355218854481
 21
0.539570136964451
 31
0.0
  0
LINE
  5
33
  8
0
 62
     0
 10
-0.1917140438711762
 20
0.6532355317510373
 30
0.0
 11
-0.2715435301310026
 21
0.5721459700349287
 31
0.0
  0
LINE
  5
34
  8
0
 62
     0
 10
-0.2219698556603744
 20
0.6351176232786345
 30
0.0
 11
-0.1917140438711762
 21
0.6532355317510373
 31
0.0
  0
LINE
  5
35
  8
0
 62
     0
 10
-0.3167332950239856
 20
0.6343755788432675
 30
0.0
 11
-0.2219698556603744
 21
0.6351176232786345
 31
0.0
  0
LINE
  5
36
  8
0
 62
     0
 10
-0.3595890377972902
 20
0.6268876010337744
 30
0.0
 11
-0.3167332950239856
 21
0.6343755788432675
 31
0.0
  0
LINE
  5
37
  8
0
 62
     0
 10
-0.4219726558280588
 20
0.6013657197822957
 30
0.0
 11
-0.3595890377972902
 21
0.6268876010337744
 31
0.0
  0
LINE
  5
38
  8
0
 62
     0
 10
-0.4594784311739043
 20
0.5957077339099642
 30
0.0
 11
-0.4219726558280588
 21
0.6013657197822957
 31
0.0
  0
LINE
  5
39
  8
0
 62
     0
 10
-0.4596744429115441
 20
0.6207395858173298
 30
0.0
 11
-0.4594784311739043
 21
0.5957077339099642
 31
0.0
  0
LINE
  5
3A
  8
0
 62
     0
 10
-0.442382583904934
 20
0.6959751499234678
 30
0.0
 11
-0.4596744429115441
 21
0.6207395858173298
 31
0.0
  0
LINE
  5
3B
  8
0
 62
     0
 10
-0.3981168743465636
 20
0.7517528429641454
 30
0.0
 11
-0.442382583904934
 21
0.6959751499234678
 31
0.0
  0
LINE
  5
3C
  8
0
 62
     0
 10
-0.3608211115767613
 20
0.7842306701657986
 30
0.0
 11
-0.3981168743465636
 21
0.7517528429641454
 31
0.0
  0
LINE
  5
3D
  8
0
 62
     0
 10
-0.305435442011377
 20
0.7900286644221605
 30
0.0
 11
-0.3608211115767613
 21
0.7842306701657986
 31
0.0
  0
LINE
  5
3E
  8
0
 62
     0
 10
-0.2481777779936115
 20
0.7851127229851961
 30
0.0
 11
-0.305435442011377
 21
0.7900286644221605
 31
0.0
  0
LINE
  5
3F
  8
0
 62
     0
 10
-0.173124224786719
 20
0.7910647264639917
 30
0.0
 11
-0.2481777779936115
 21
0.7851127229851961
 31
0.0
  0
LINE
  5
40
  8
0
 62
     0
 10
-0.143078425573564
 20
0.8360024762657163
 30
0.0
 11
-0.173124224786719
 21
0.7910647264639917
 31
0.0
  0
LINE
  5
41
  8
0
 62
     0
 10
-0.1489744256987504
 20
0.9039040717847906
 30
0.0
 11
-0.143078425573564
 21
0.8360024762657163
 31
0.0
  0
LINE
  5
42
  8
0
 62
     0
 10
-0.1613503432684007
 20
0.8859261716964181
 30
0.0
 11
-0.1489744256987504
 21
0.9039040717847906
 31
0.0
  0
LINE
  5
43
  8
0
 62
     0
 10
-0.2363478931216791
 20
0.8728222105298042
 30
0.0
 11
-0.1613503432684007
 21
0.8859261716964181
 31
0.0
  0
LINE
  5
44
  8
0
 62
     0
 10
-0.293465548755419
 20
0.8598582577472161
 30
0.0
 11
-0.2363478931216791
 21
0.8728222105298042
 31
0.0
  0
LINE
  5
45
  8
0
 62
     0
 10
-0.3489352233512242
 20
0.8647882000225839
 30
0.0
 11
-0.293465548755419
 21
0.8598582577472161
 31
0.0
  0
LINE
  5
46
  8
0
 62
     0
 10
-0.3687571162151617
 20
0.8843020744416537
 30
0.0
 11
-0.3489352233512242
 21
0.8647882000225839
 31
0.0
  0
LINE
  5
47
  8
0
 62
     0
 10
-0.3370073326104766
 20
0.9399817616135114
 30
0.0
 11
-0.3687571162151617
 21
0.8843020744416537
 31
0.0
  0
LINE
  5
48
  8
0
 62
     0
 10
-0.374653116340348
 20
0.9522036699607279
 30
0.0
 11
-0.3370073326104766
 21
0.9399817616135114
 31
0.0
  0
LINE
  5
49
  8
0
 62
     0
 10
-0.3129555393913233
 20
1.065337032887991
 30
0.0
 11
-0.374653116340348
 21
0.9522036699607279
 31
0.0
  0
LINE
  5
4A
  8
0
 62
     0
 10
-0.3506573264748086
 20
1.084710898923026
 30
0.0
 11
-0.3129555393913233
 21
1.065337032887991
 31
0.0
  0
LINE
  5
4B
  8
0
 62
     0
 10
-0.2708838435685962
 20
1.172952418326953
 30
0.0
 11
-0.3506573264748086
 21
1.084710898923026
 31
0.0
  0
LINE
  5
4C
  8
0
 62
     0
 10
-0.1640385042418082
 20
1.229220140711744
 30
0.0
 11
-0.2708838435685962
 21
1.172952418326953
 31
0.0
  0
LINE
  5
4D
  8
0
 62
     0
 10
-0.0767210401724841
 20
1.267453959654548
 30
0.0
 11
-0.1640385042418082
 21
1.229220140711744
 31
0.0
  0
LINE
  5
4E
  8
0
 62
     0
 10
-0.0398593033931903
 20
1.355359458936801
 30
0.0
 11
-0.0767210401724841
 21
1.267453959654548
 31
0.0
  0
LINE
  5
4F
  8
0
 62
     0
 10
-0.0019755054104595
 20
1.312741730416351
 30
0.0
 11
-0.0398593033931903
 21
1.355359458936801
 31
0.0
  0
LINE
  5
50
  8
0
 62
     0
 10
0.0613461687933252
 20
1.218468320396854
 30
0.0
 11
-0.0019755054104595
 21
1.312741730416351
 31
0.0
  0
LINE
  5
51
  8
0
 62
     0
 10
0.1495876881972525
 20
1.138694837490641
 30
0.0
 11
0.0613461687933252
 21
1.218468320396854
 31
0.0
  0
LINE
  5
52
  8
0
 62
     0
 10
0.275040965340552
 20
1.102127118317811
 30
0.0
 11
0.1495876881972525
 21
1.138694837490641
 31
0.0
  0
LINE
  5
53
  8
0
 62
     0
 10
0.3252026750241088
 20
1.090003215839415
 30
0.0
 11
0.275040965340552
 21
1.102127118317811
 31
0.0
  0
LINE
  5
54
  8
0
 62
     0
 10
0.2431511733518319
 20
1.064327325365506
 30
0.0
 11
0.3252026750241088
 21
1.090003215839415
 31
0.0
  0
LINE
  5
55
  8
0
 62
     0
 10
0.3130367700305108
 20
1.045205474421725
 30
0.0
 11
0.2431511733518319
 21
1.064327325365506
 31
0.0
  0
LINE
  5
56
  8
0
 62
     0
 10
0.2380392201772232
 20
1.032101513255107
 30
0.0
 11
0.3130367700305108
 21
1.045205474421725
 31
0.0
  0
LINE
  5
57
  8
0
 62
     0
 10
0.3007588583296757
 20
1.014711648379672
 30
0.0
 11
0.2380392201772232
 21
1.032101513255107
 31
0.0
  0
LINE
  5
58
  8
0
 62
     0
 10
0.2759790215135681
 20
0.9823318270468389
 30
0.0
 11
0.3007588583296757
 21
1.014711648379672
 31
0.0
  0
LINE
  5
59
  8
0
 62
     0
 10
0.2312792859646984
 20
0.9819818060867607
 30
0.0
 11
0.2759790215135681
 21
0.9823318270468389
 31
0.0
  0
LINE
  5
5A
  8
0
 62
     0
 10
0.1562817361114107
 20
0.9688778449201466
 30
0.0
 11
0.2312792859646984
 21
0.9819818060867607
 31
0.0
  0
LINE
  5
5B
  8
0
 62
     0
 10
0.1439618218953743
 20
0.9437479871439561
 30
0.0
 11
0.1562817361114107
 21
0.9688778449201466
 31
0.0
  0
LINE
  5
5C
  8
0
 62
     0
 10
0.1692316880555953
 20
0.9135481787083672
 30
0.0
 11
0.1439618218953743
 21
0.9437479871439561
 31
0.0
  0
LINE
  5
5D
  8
0
 62
     0
 10
0.2768050709793561
 20
0.8768404511515073
 30
0.0
 11
0.1692316880555953
 21
0.9135481787083672
 31
0.0
  0
LINE
  5
5E
  8
0
 62
     0
 10
0.3769324786088206
 20
0.8776244981020803
 30
0.0
 11
0.2768050709793561
 21
0.8768404511515073
 31
0.0
  0
LINE
  5
5F
  8
0
 62
     0
 10
0.4649359837598884
 20
0.828246835369101
 30
0.0
 11
0.3769324786088206
 21
0.8776244981020803
 31
0.0
  0
LINE
  5
60
  8
0
 62
     0
 10
0.5403255570884558
 20
0.7912870927209829
 30
0.0
 11
0.4649359837598884
 21
0.828246835369101
 31
0.0
  0
LINE
  5
61
  8
0
 62
     0
 10
0.5029317884498473
 20
0.7713251914730149
 30
0.0
 11
0.5403255570884558
 21
0.7912870927209829
 31
0.0
  0
LINE
  5
62
  8
0
 62
     0
 10
0.415460315158094
 20
0.7527592561717094
 30
0.0
 11
0.5029317884498473
 21
0.7713251914730149
 31
0.0
  0
LINE
  5
63
  8
0
 62
     0
 10
0.4406881788031045
 20
0.7279234160019877
 30
0.0
 11
0.415460315158094
 21
0.7527592561717094
 31
0.0
  0
LINE
  5
64
  8
0
 62
     0
 10
0.4211743043840348
 20
0.7081015231380502
 30
0.0
 11
0.4406881788031045
 21
0.7279234160019877
 31
0.0
  0
LINE
  5
65
  8
0
 62
     0
 10
0.4338862420753599
 20
0.683167677099504
 30
0.0
 11
0.4211743043840348
 21
0.7081015231380502
 31
0.0
  0
LINE
  5
66
  8
0
 62
     0
 10
0.3965344759519529
 20
0.657841807585669
 30
0.0
 11
0.4338862420753599
 21
0.683167677099504
 31
0.0
  0
LINE
  5
67
  8
0
 62
     0
 10
0.3411488063865594
 20
0.6520438133293072
 30
0.0
 11
0.3965344759519529
 21
0.657841807585669
 31
0.0
  0
LINE
  5
68
  8
0
 62
     0
 10
0.2838351390151891
 20
0.6641117124540943
 30
0.0
 11
0.3411488063865594
 21
0.6520438133293072
 31
0.0
  0
LINE
  5
69
  8
0
 62
     0
 10
0.2158495384656984
 20
0.6689436488606376
 30
0.0
 11
0.2838351390151891
 21
0.6641117124540943
 31
0.0
  0
LINE
  5
6A
  8
0
 62
     0
 10
0.2159895468497242
 20
0.6510637546410898
 30
0.0
 11
0.2158495384656984
 21
0.6689436488606376
 31
0.0
  0
LINE
  5
6B
  8
0
 62
     0
 10
0.2343594704133854
 20
0.5886241332567032
 30
0.0
 11
0.2159895468497242
 21
0.6510637546410898
 31
0.0
  0
LINE
  5
6C
  8
0
 62
     0
 10
0.2667952950998327
 20
0.5566923387527726
 30
0.0
 11
0.2343594704133854
 21
0.5886241332567032
 31
0.0
  0
LINE
  5
6D
  8
0
 62
     0
 10
0.322124961311603
 20
0.5696422906969527
 30
0.0
 11
0.2667952950998327
 21
0.5566923387527726
 31
0.0
  0
LINE
  5
6E
  8
0
 62
     0
 10
0.3720346559039059
 20
0.589702197813745
 30
0.0
 11
0.322124961311603
 21
0.5696422906969527
 31
0.0
  0
LINE
  5
6F
  8
0
 62
     0
 10
0.4169864065440386
 20
0.5578684091786389
 30
0.0
 11
0.3720346559039059
 21
0.589702197813745
 31
0.0
  0
LINE
  5
70
  8
0
 62
     0
 10
0.4731001197063865
 20
0.4706909534933499
 30
0.0
 11
0.4169864065440386
 21
0.5578684091786389
 31
0.0
  0
LINE
  5
71
  8
0
 62
     0
 10
0.4806441008694888
 20
0.420683253032227
 30
0.0
 11
0.4731001197063865
 21
0.4706909534933499
 31
0.0
  0
LINE
  5
72
  8
0
 62
     0
 10
0.3987326075812471
 20
0.3771274683387659
 30
0.0
 11
0.4806441008694888
 21
0.420683253032227
 31
0.0
  0
LINE
  5
73
  8
0
 62
     0
 10
0.3310410246382207
 20
0.3444116268842578
 30
0.0
 11
0.3987326075812471
 21
0.3771274683387659
 31
0.0
  0
LINE
  5
74
  8
0
 62
     0
 10
0.2866773092110258
 20
0.3011498597972655
 30
0.0
 11
0.3310410246382207
 21
0.3444116268842578
 31
0.0
  0
LINE
  5
75
  8
0
 62
     0
 10
0.2490875288347684
 20
0.3062198104566637
 30
0.0
 11
0.2866773092110258
 21
0.3011498597972655
 31
0.0
  0
LINE
  5
76
  8
0
 62
     0
 10
0.1934078416629107
 20
0.3379695940613534
 30
0.0
 11
0.2490875288347684
 21
0.3062198104566637
 31
0.0
  0
LINE
  5
77
  8
0
 62
     0
 10
0.1109643165153451
 20
0.362357407402177
 30
0.0
 11
0.1934078416629107
 21
0.3379695940613534
 31
0.0
  0
LINE
  5
78
  8
0
 62
     0
 10
0.0359667666620667
 20
0.3492534462355585
 30
0.0
 11
0.1109643165153451
 21
0.362357407402177
 31
0.0
  0
LINE
  5
79
  8
0
 62
     0
 10
0.0332069543391814
 20
0.0166454112367564
 30
0.0
 11
0.0359667666620667
 21
0.3492534462355585
 31
0.0
  0
ENDSEC
  0
EOF
