  0
SECTION
  2
HEADER
  9
$ACADVER
  1
AC1009
  9
$DWGCODEPAGE
  3
ansi_1252
  9
$INSBASE
 10
6.043679656521952
 20
6.971350691626143
 30
0.0
  9
$EXTMIN
 10
5.720945427692264
 20
6.648616462796454
 30
0.0
  9
$EXTMAX
 10
6.366413885351641
 20
7.294084920455832
 30
0.0
  9
$LIMMIN
 10
0.0
 20
0.0
  9
$LIMMAX
 10
124.75
 20
89.9
  9
$ORTHOMODE
 70
     0
  9
$REGENMODE
 70
     1
  9
$FILLMODE
 70
     1
  9
$QTEXTMODE
 70
     0
  9
$MIRRTEXT
 70
     0
  9
$DRAGMODE
 70
     2
  9
$LTSCALE
 40
1.0
  9
$OSMODE
 70
    37
  9
$ATTMODE
 70
     1
  9
$TEXTSIZE
 40
0.2
  9
$TRACEWID
 40
0.05
  9
$TEXTSTYLE
  7
STANDARD
  9
$CLAYER
  8
0
  9
$CELTYPE
  6
BYLAYER
  9
$CECOLOR
 62
   256
  9
$DIMSCALE
 40
1.0
  9
$DIMASZ
 40
0.002
  9
$DIMEXO
 40
0.063
  9
$DIMDLI
 40
0.0
  9
$DIMRND
 40
0.05
  9
$DIMDLE
 40
0.0
  9
$DIMEXE
 40
0.18
  9
$DIMTP
 40
0.0
  9
$DIMTM
 40
0.0
  9
$DIMTXT
 40
0.18
  9
$DIMCEN
 40
-0.09
  9
$DIMTSZ
 40
0.0
  9
$DIMTOL
 70
     0
  9
$DIMLIM
 70
     0
  9
$DIMTIH
 70
     0
  9
$DIMTOH
 70
     0
  9
$DIMSE1
 70
     1
  9
$DIMSE2
 70
     1
  9
$DIMTAD
 70
     1
  9
$DIMZIN
 70
    12
  9
$DIMBLK
  1

  9
$DIMASO
 70
     1
  9
$DIMSHO
 70
     1
  9
$DIMPOST
  1

  9
$DIMAPOST
  1

  9
$DIMALT
 70
     0
  9
$DIMALTD
 70
     2
  9
$DIMALTF
 40
25.4
  9
$DIMLFAC
 40
100.0
  9
$DIMTOFL
 70
     1
  9
$DIMTVP
 40
0.0
  9
$DIMTIX
 70
     1
  9
$DIMSOXD
 70
     0
  9
$DIMSAH
 70
     0
  9
$DIMBLK1
  1

  9
$DIMBLK2
  1

  9
$DIMSTYLE
  2
STANDARD
  9
$DIMCLRD
 70
     0
  9
$DIMCLRE
 70
     0
  9
$DIMCLRT
 70
    10
  9
$DIMTFAC
 40
1.0
  9
$DIMGAP
 40
0.2
  9
$LUNITS
 70
     2
  9
$LUPREC
 70
     3
  9
$SKETCHINC
 40
27.20556009348089
  9
$FILLETRAD
 40
0.0
  9
$AUNITS
 70
     0
  9
$AUPREC
 70
     2
  9
$MENU
  1
acad
  9
$ELEVATION
 40
0.0
  9
$PELEVATION
 40
0.0
  9
$THICKNESS
 40
0.0
  9
$LIMCHECK
 70
     0
  9
$CHAMFERA
 40
0.0
  9
$CHAMFERB
 40
0.0
  9
$SKPOLY
 70
     0
  9
$TDCREATE
 40
2449436.452600579
  9
$TDUPDATE
 40
2457464.594085648
  9
$TDINDWG
 40
0.0155838773
  9
$TDUSRTIMER
 40
0.0155838773
  9
$USRTIMER
 70
     1
  9
$ANGBASE
 50
0.0
  9
$ANGDIR
 70
     0
  9
$PDMODE
 70
    35
  9
$PDSIZE
 40
-5.0
  9
$PLINEWID
 40
0.0
  9
$COORDS
 70
     1
  9
$SPLFRAME
 70
     0
  9
$SPLINETYPE
 70
     6
  9
$SPLINESEGS
 70
     8
  9
$ATTDIA
 70
     0
  9
$ATTREQ
 70
     1
  9
$HANDLING
 70
     1
  9
$HANDSEED
  5
14B
  9
$SURFTAB1
 70
     6
  9
$SURFTAB2
 70
     6
  9
$SURFTYPE
 70
     6
  9
$SURFU
 70
     6
  9
$SURFV
 70
     6
  9
$UCSNAME
  2

  9
$UCSORG
 10
0.0
 20
0.0
 30
0.0
  9
$UCSXDIR
 10
1.0
 20
0.0
 30
0.0
  9
$UCSYDIR
 10
0.0
 20
1.0
 30
0.0
  9
$PUCSNAME
  2

  9
$PUCSORG
 10
0.0
 20
0.0
 30
0.0
  9
$PUCSXDIR
 10
1.0
 20
0.0
 30
0.0
  9
$PUCSYDIR
 10
0.0
 20
1.0
 30
0.0
  9
$USERI1
 70
     0
  9
$USERI2
 70
     0
  9
$USERI3
 70
     0
  9
$USERI4
 70
     0
  9
$USERI5
 70
     0
  9
$USERR1
 40
0.0
  9
$USERR2
 40
0.0
  9
$USERR3
 40
0.0
  9
$USERR4
 40
0.0
  9
$USERR5
 40
0.0
  9
$WORLDVIEW
 70
     1
  9
$SHADEDGE
 70
     3
  9
$SHADEDIF
 70
    70
  9
$TILEMODE
 70
     1
  9
$MAXACTVP
 70
    16
  9
$PLIMCHECK
 70
     0
  9
$PEXTMIN
 10
1.000000000000000E+20
 20
1.000000000000000E+20
 30
1.000000000000000E+20
  9
$PEXTMAX
 10
-1.000000000000000E+20
 20
-1.000000000000000E+20
 30
-1.000000000000000E+20
  9
$PLIMMIN
 10
0.0
 20
0.0
  9
$PLIMMAX
 10
12.0
 20
9.0
  9
$UNITMODE
 70
     0
  9
$VISRETAIN
 70
     0
  9
$PLINEGEN
 70
     0
  9
$PSLTSCALE
 70
     1
  0
ENDSEC
  0
SECTION
  2
TABLES
  0
TABLE
  2
VPORT
 70
     1
  0
VPORT
  2
*ACTIVE
 70
     0
 10
0.0
 20
0.0
 11
1.0
 21
1.0
 12
6.044672237208204
 22
7.041571747818105
 13
0.0
 23
0.0
 14
0.05
 24
0.05
 15
1.25
 25
1.25
 16
0.0
 26
0.0
 36
1.0
 17
0.0
 27
0.0
 37
0.0
 40
0.8034680537664872
 41
1.503537735849057
 42
50.0
 43
0.0
 44
0.0
 50
0.0
 51
0.0
 71
     0
 72
   100
 73
     1
 74
     1
 75
     0
 76
     0
 77
     0
 78
     0
  0
ENDTAB
  0
TABLE
  2
LTYPE
 70
     1
  0
LTYPE
  2
CONTINUOUS
 70
     0
  3
Solid line
 72
    65
 73
     0
 40
0.0
  0
ENDTAB
  0
TABLE
  2
LAYER
 70
     1
  0
LAYER
  2
0
 70
     0
 62
     7
  6
CONTINUOUS
  0
ENDTAB
  0
TABLE
  2
STYLE
 70
     1
  0
STYLE
  2
STANDARD
 70
     0
 40
0.0
 41
1.0
 50
0.0
 71
     0
 42
0.2
  3
txt
  4

  0
ENDTAB
  0
TABLE
  2
VIEW
 70
     0
  0
ENDTAB
  0
TABLE
  2
UCS
 70
     0
  0
ENDTAB
  0
TABLE
  2
APPID
 70
     2
  0
APPID
  2
ACAD
 70
     0
  0
APPID
  2
DCO15
 70
     0
  0
ENDTAB
  0
TABLE
  2
DIMSTYLE
 70
     1
  0
DIMSTYLE
  2
STANDARD
 70
     0
  3

  4

  5

  6

  7

 40
1.0
 41
0.18
 42
0.0625
 43
0.38
 44
0.18
 45
0.0
 46
0.0
 47
0.0
 48
0.0
140
0.18
141
0.09
142
0.0
143
25.4
144
1.0
145
0.0
146
1.0
147
0.09
 71
     0
 72
     0
 73
     1
 74
     1
 75
     0
 76
     0
 77
     0
 78
     0
170
     0
171
     2
172
     0
173
     0
174
     0
175
     0
176
     0
177
     0
178
     0
  0
ENDTAB
  0
ENDSEC
  0
SECTION
  2
BLOCKS
  0
BLOCK
  8
0
  2
$MODEL_SPACE
 70
     0
 10
0.0
 20
0.0
 30
0.0
  3
$MODEL_SPACE
  1

  0
ENDBLK
  5
6
  8
0
  0
BLOCK
 67
     1
  8
0
  2
$PAPER_SPACE
 70
     0
 10
0.0
 20
0.0
 30
0.0
  3
$PAPER_SPACE
  1

  0
ENDBLK
  5
9
 67
     1
  8
0
  0
ENDSEC
  0
SECTION
  2
ENTITIES
  0
CIRCLE
  5
45
  8
0
 10
6.043679656521952
 20
6.971350691626143
 30
0.0
 40
0.3227342288296886
  0
CIRCLE
  5
5D
  8
0
 10
6.032722618794587
 20
6.955851800735958
 30
0.0
 40
0.0432755496718523
  0
POLYLINE
  5
68
  8
0
 66
     1
 10
0.0
 20
0.0
 30
0.0
  0
VERTEX
  5
128
  8
0
 10
5.902117248235378
 20
6.685868122810107
 30
0.0
  0
VERTEX
  5
129
  8
0
 10
5.902117248235378
 20
6.685868122810107
 30
0.0
  0
SEQEND
  5
149
  8
0
  0
POLYLINE
  5
69
  8
0
 66
     1
 10
0.0
 20
0.0
 30
0.0
  0
VERTEX
  5
12A
  8
0
 10
6.353642025882181
 20
6.926881120930378
 30
0.0
 42
-0.0817132738817841
  0
VERTEX
  5
12B
  8
0
 10
6.323056766425755
 20
6.829919989163516
 30
0.0
 42
0.034821821181191
  0
VERTEX
  5
12C
  8
0
 10
6.231261430314507
 20
6.818754407390146
 30
0.0
 42
0.4317680259081217
  0
VERTEX
  5
12D
  8
0
 10
6.289639031513905
 20
6.775279006044671
 30
0.0
 42
-0.1344450180774177
  0
VERTEX
  5
12E
  8
0
 10
6.155430500483479
 20
6.677323704927515
 30
0.0
 42
-0.0548289181569293
  0
VERTEX
  5
12F
  8
0
 10
6.095563976932654
 20
6.725707892612093
 30
0.0
 42
0.0353230010888018
  0
VERTEX
  5
130
  8
0
 10
6.084444937776937
 20
6.652022655128714
 30
0.0
 42
-0.1158471980241854
  0
VERTEX
  5
131
  8
0
 10
5.938037162365866
 20
6.667258819854497
 30
0.0
  0
VERTEX
  5
132
  8
0
 10
5.930054959225764
 20
6.737974171085825
 30
0.0
  0
VERTEX
  5
133
  8
0
 10
5.903357395997574
 20
6.68818109681103
 30
0.0
 42
-0.1208565605233297
  0
VERTEX
  5
134
  8
0
 10
5.788249156038479
 20
6.785257662070039
 30
0.0
 42
-0.1526565870072381
  0
VERTEX
  5
135
  8
0
 10
5.824529380449322
 20
6.856943443089214
 30
0.0
 42
0.2505384483590186
  0
VERTEX
  5
136
  8
0
 10
5.753333079682172
 20
6.838468696172976
 30
0.0
 42
-0.1106653642568759
  0
VERTEX
  5
137
  8
0
 10
5.724391530917613
 20
6.975072552217267
 30
0.0
 42
-0.1633801172919559
  0
VERTEX
  5
138
  8
0
 10
5.797389386402678
 20
6.985402971789741
 30
0.0
 42
0.1799646221713954
  0
VERTEX
  5
139
  8
0
 10
5.732723059319865
 20
7.039708606248111
 30
0.0
 42
-0.0643391908354671
  0
VERTEX
  5
13A
  8
0
 10
5.760311445048099
 20
7.116503254679897
 30
0.0
 42
-0.2455925000420526
  0
VERTEX
  5
13B
  8
0
 10
5.83586353440414
 20
7.076615903274438
 30
0.0
 42
0.0214918059769042
  0
VERTEX
  5
13C
  8
0
 10
5.80501178177253
 20
7.17537068376478
 30
0.0
 42
-0.078988896064342
  0
VERTEX
  5
13D
  8
0
 10
5.880044492149722
 20
7.239324654186936
 30
0.0
 42
0.1678905001532097
  0
VERTEX
  5
13E
  8
0
 10
5.899999999999994
 20
7.150000000000009
 30
0.0
 42
0.0273151590232284
  0
VERTEX
  5
13F
  8
0
 10
5.937179974225159
 20
7.273268838581835
 30
0.0
 42
-0.1722772323805688
  0
VERTEX
  5
140
  8
0
 10
6.151439398913412
 20
7.272821399507028
 30
0.0
 42
-0.0667229015192035
  0
VERTEX
  5
141
  8
0
 10
6.159421602053524
 20
7.168609302955608
 30
0.0
 42
-0.0638504223211351
  0
VERTEX
  5
142
  8
0
 10
6.215057861289186
 20
7.227801189069917
 30
0.0
 42
-0.0912373928240927
  0
VERTEX
  5
143
  8
0
 10
6.295119055435376
 20
7.150000000000001
 30
0.0
 42
-0.1434388385025988
  0
VERTEX
  5
144
  8
0
 10
6.255208039734829
 20
7.056953485221952
 30
0.0
 42
0.2380830569615152
  0
VERTEX
  5
145
  8
0
 10
6.33954192198795
 20
7.083406451428709
 30
0.0
 42
-0.0700154101927227
  0
VERTEX
  5
146
  8
0
 10
6.358976680556238
 20
6.997403715763997
 30
0.0
 42
-0.3092483489731922
  0
VERTEX
  5
147
  8
0
 10
6.259210449636835
 20
6.929788580780129
 30
0.0
 42
0.1876250363723936
  0
VERTEX
  5
148
  8
0
 10
6.35498557898618
 20
6.926688364532684
 30
0.0
  0
SEQEND
  5
14A
  8
0
  0
ENDSEC
  0
EOF
