  0
SECTION
  2
HEADER
  9
$ACADVER
  1
AC1009
  9
$DWGCODEPAGE
  3
ansi_1252
  9
$INSBASE
 10
0.0563921050021587
 20
0.0202965732253846
 30
0.0
  9
$EXTMIN
 10
-1.51709692653073
 20
-1.540750620279727
 30
0.0
  9
$EXTMAX
 10
1.603108971927074
 20
1.579455278178077
 30
0.0
  9
$LIMMIN
 10
0.0
 20
0.0
  9
$LIMMAX
 10
112.6681165114288
 20
85.81588118979204
  9
$ORTHOMODE
 70
     0
  9
$REGENMODE
 70
     0
  9
$FILLMODE
 70
     1
  9
$QTEXTMODE
 70
     0
  9
$MIRRTEXT
 70
     1
  9
$DRAGMODE
 70
     2
  9
$LTSCALE
 40
1.25
  9
$OSMODE
 70
    37
  9
$ATTMODE
 70
     1
  9
$TEXTSIZE
 40
0.25
  9
$TRACEWID
 40
0.05
  9
$TEXTSTYLE
  7
STANDARD
  9
$CLAYER
  8
0
  9
$CELTYPE
  6
BYLAYER
  9
$CECOLOR
 62
   256
  9
$DIMSCALE
 40
50.0
  9
$DIMASZ
 40
0.0
  9
$DIMEXO
 40
0.003
  9
$DIMDLI
 40
0.02
  9
$DIMRND
 40
0.0
  9
$DIMDLE
 40
0.005
  9
$DIMEXE
 40
0.005
  9
$DIMTP
 40
0.0
  9
$DIMTM
 40
0.0
  9
$DIMTXT
 40
0.0025
  9
$DIMCEN
 40
0.005
  9
$DIMTSZ
 40
0.0015
  9
$DIMTOL
 70
     0
  9
$DIMLIM
 70
     0
  9
$DIMTIH
 70
     0
  9
$DIMTOH
 70
     0
  9
$DIMSE1
 70
     0
  9
$DIMSE2
 70
     0
  9
$DIMTAD
 70
     1
  9
$DIMZIN
 70
     0
  9
$DIMBLK
  1

  9
$DIMASO
 70
     1
  9
$DIMSHO
 70
     0
  9
$DIMPOST
  1

  9
$DIMAPOST
  1
mm
  9
$DIMALT
 70
     0
  9
$DIMALTD
 70
     0
  9
$DIMALTF
 40
1000.0
  9
$DIMLFAC
 40
1.0
  9
$DIMTOFL
 70
     0
  9
$DIMTVP
 40
0.0
  9
$DIMTIX
 70
     0
  9
$DIMSOXD
 70
     0
  9
$DIMSAH
 70
     0
  9
$DIMBLK1
  1

  9
$DIMBLK2
  1

  9
$DIMSTYLE
  2
STANDARD
  9
$DIMCLRD
 70
     0
  9
$DIMCLRE
 70
     0
  9
$DIMCLRT
 70
     0
  9
$DIMTFAC
 40
1.0
  9
$DIMGAP
 40
0.09
  9
$LUNITS
 70
     2
  9
$LUPREC
 70
     3
  9
$SKETCHINC
 40
0.1
  9
$FILLETRAD
 40
0.0
  9
$AUNITS
 70
     0
  9
$AUPREC
 70
     1
  9
$MENU
  1
ACAD
  9
$ELEVATION
 40
0.0
  9
$PELEVATION
 40
0.0
  9
$THICKNESS
 40
0.0
  9
$LIMCHECK
 70
     0
  9
$CHAMFERA
 40
0.0
  9
$CHAMFERB
 40
0.0
  9
$SKPOLY
 70
     0
  9
$TDCREATE
 40
2449028.724222454
  9
$TDUPDATE
 40
2457464.594085648
  9
$TDINDWG
 40
0.0004348032
  9
$TDUSRTIMER
 40
0.0004348032
  9
$USRTIMER
 70
     1
  9
$ANGBASE
 50
0.0
  9
$ANGDIR
 70
     0
  9
$PDMODE
 70
     0
  9
$PDSIZE
 40
0.0
  9
$PLINEWID
 40
0.0
  9
$COORDS
 70
     1
  9
$SPLFRAME
 70
     0
  9
$SPLINETYPE
 70
     6
  9
$SPLINESEGS
 70
     8
  9
$ATTDIA
 70
     0
  9
$ATTREQ
 70
     1
  9
$HANDLING
 70
     1
  9
$HANDSEED
  5
B4
  9
$SURFTAB1
 70
     6
  9
$SURFTAB2
 70
     6
  9
$SURFTYPE
 70
     6
  9
$SURFU
 70
     6
  9
$SURFV
 70
     6
  9
$UCSNAME
  2

  9
$UCSORG
 10
0.0
 20
0.0
 30
0.0
  9
$UCSXDIR
 10
1.0
 20
0.0
 30
0.0
  9
$UCSYDIR
 10
0.0
 20
1.0
 30
0.0
  9
$PUCSNAME
  2

  9
$PUCSORG
 10
0.0
 20
0.0
 30
0.0
  9
$PUCSXDIR
 10
1.0
 20
0.0
 30
0.0
  9
$PUCSYDIR
 10
0.0
 20
1.0
 30
0.0
  9
$USERI1
 70
     0
  9
$USERI2
 70
     0
  9
$USERI3
 70
     0
  9
$USERI4
 70
     0
  9
$USERI5
 70
     0
  9
$USERR1
 40
0.0
  9
$USERR2
 40
0.0
  9
$USERR3
 40
0.0
  9
$USERR4
 40
1.0
  9
$USERR5
 40
50.0
  9
$WORLDVIEW
 70
     1
  9
$SHADEDGE
 70
     3
  9
$SHADEDIF
 70
    70
  9
$TILEMODE
 70
     1
  9
$MAXACTVP
 70
     4
  9
$PLIMCHECK
 70
     0
  9
$PEXTMIN
 10
1.000000000000000E+20
 20
1.000000000000000E+20
 30
1.000000000000000E+20
  9
$PEXTMAX
 10
-1.000000000000000E+20
 20
-1.000000000000000E+20
 30
-1.000000000000000E+20
  9
$PLIMMIN
 10
0.0
 20
0.0
  9
$PLIMMAX
 10
12.0
 20
9.0
  9
$UNITMODE
 70
     0
  9
$VISRETAIN
 70
     0
  9
$PLINEGEN
 70
     0
  9
$PSLTSCALE
 70
     0
  0
ENDSEC
  0
SECTION
  2
TABLES
  0
TABLE
  2
VPORT
 70
     1
  0
VPORT
  2
*ACTIVE
 70
     0
 10
0.0
 20
0.0
 11
1.0
 21
1.0
 12
0.0395413143405396
 22
0.2915606106506752
 13
0.0
 23
0.0
 14
0.05
 24
0.05
 15
1.0
 25
1.0
 16
0.0
 26
0.0
 36
1.0
 17
0.0
 27
0.0
 37
0.0
 40
3.71581104235847
 41
1.503537735849056
 42
50.0
 43
0.0
 44
0.0
 50
0.0
 51
0.0
 71
     0
 72
  2000
 73
     1
 74
     0
 75
     0
 76
     0
 77
     0
 78
     0
  0
ENDTAB
  0
TABLE
  2
LTYPE
 70
     1
  0
LTYPE
  2
CONTINUOUS
 70
     0
  3
Solid line
 72
    65
 73
     0
 40
0.0
  0
ENDTAB
  0
TABLE
  2
LAYER
 70
     1
  0
LAYER
  2
0
 70
     0
 62
     7
  6
CONTINUOUS
  0
ENDTAB
  0
TABLE
  2
STYLE
 70
     1
  0
STYLE
  2
STANDARD
 70
     0
 40
0.0
 41
1.0
 50
0.0
 71
     0
 42
0.25
  3
SIMPLEX
  4

  0
ENDTAB
  0
TABLE
  2
VIEW
 70
     0
  0
ENDTAB
  0
TABLE
  2
UCS
 70
     0
  0
ENDTAB
  0
TABLE
  2
APPID
 70
     1
  0
APPID
  2
ACAD
 70
     0
  0
ENDTAB
  0
TABLE
  2
DIMSTYLE
 70
     1
  0
DIMSTYLE
  2
STANDARD
 70
     0
  3

  4

  5

  6

  7

 40
1.0
 41
0.18
 42
0.0625
 43
0.38
 44
0.18
 45
0.0
 46
0.0
 47
0.0
 48
0.0
140
0.18
141
0.09
142
0.0
143
25.4
144
1.0
145
0.0
146
1.0
147
0.09
 71
     0
 72
     0
 73
     1
 74
     1
 75
     0
 76
     0
 77
     0
 78
     0
170
     0
171
     2
172
     0
173
     0
174
     0
175
     0
176
     0
177
     0
178
     0
  0
ENDTAB
  0
ENDSEC
  0
SECTION
  2
BLOCKS
  0
BLOCK
  8
0
  2
$MODEL_SPACE
 70
     0
 10
0.0
 20
0.0
 30
0.0
  3
$MODEL_SPACE
  1

  0
ENDBLK
  5
24
  8
0
  0
BLOCK
 67
     1
  8
0
  2
$PAPER_SPACE
 70
     0
 10
0.0
 20
0.0
 30
0.0
  3
$PAPER_SPACE
  1

  0
ENDBLK
  5
22
 67
     1
  8
0
  0
BLOCK
  8
0
  2
BRANCHP
 70
     0
 10
0.5
 20
0.5
 30
0.0
  3
BRANCHP
  1

  0
LINE
  5
29
  8
0
 10
0.9984505427080577
 20
0.5038736432298557
 30
0.0
 11
1.008135802567131
 21
0.5200449615237905
 31
0.0
  0
LINE
  5
2A
  8
0
 10
1.008135802567131
 20
0.5200449615237905
 30
0.0
 11
1.008048233500921
 21
0.5502635966295678
 31
0.0
  0
LINE
  5
2B
  8
0
 10
1.008048233500921
 20
0.5502635966295678
 30
0.0
 11
0.9697365129869726
 21
0.5708106159599874
 31
0.0
  0
LINE
  5
2C
  8
0
 10
0.9697365129869726
 20
0.5708106159599874
 30
0.0
 11
0.9697365129869726
 21
0.5872572432749065
 31
0.0
  0
LINE
  5
2D
  8
0
 10
0.9697365129869726
 20
0.5872572432749065
 30
0.0
 11
0.9936420849502089
 21
0.5940171824764761
 31
0.0
  0
LINE
  5
2E
  8
0
 10
0.9936420849502089
 20
0.5940171824764761
 30
0.0
 11
0.9972671223133035
 21
0.6196268809602271
 31
0.0
  0
LINE
  5
2F
  8
0
 10
0.9972671223133035
 20
0.6196268809602271
 30
0.0
 11
0.9820690817241038
 21
0.647302361335638
 31
0.0
  0
LINE
  5
30
  8
0
 10
0.9820690817241038
 20
0.647302361335638
 30
0.0
 11
0.9865236434099081
 21
0.6682046705638996
 31
0.0
  0
LINE
  5
31
  8
0
 10
0.9865236434099081
 20
0.6682046705638996
 30
0.0
 11
0.9742183128197739
 21
0.6874965599933831
 31
0.0
  0
LINE
  5
32
  8
0
 10
0.9742183128197739
 20
0.6874965599933831
 30
0.0
 11
0.9620405252218217
 21
0.6940026134366691
 31
0.0
  0
LINE
  5
33
  8
0
 10
0.9620405252218217
 20
0.6940026134366691
 30
0.0
 11
0.9505596254410227
 21
0.743297436128509
 31
0.0
  0
LINE
  5
34
  8
0
 10
0.9505596254410227
 20
0.743297436128509
 30
0.0
 11
0.9314632446002771
 21
0.7538736432298557
 31
0.0
  0
LINE
  5
35
  8
0
 10
0.90625
 20
0.6875
 30
0.0
 11
0.9699628077419602
 21
0.6897700881890209
 31
0.0
  0
LINE
  5
36
  8
0
 10
0.71875
 20
0.625
 30
0.0
 11
0.90625
 21
0.6875
 31
0.0
  0
LINE
  5
37
  8
0
 10
0.65625
 20
0.59375
 30
0.0
 11
0.71875
 21
0.625
 31
0.0
  0
LINE
  5
38
  8
0
 10
0.53125
 20
0.5625
 30
0.0
 11
0.65625
 21
0.59375
 31
0.0
  0
LINE
  5
39
  8
0
 10
0.5
 20
0.5
 30
0.0
 11
0.53125
 21
0.5625
 31
0.0
  0
LINE
  5
3A
  8
0
 10
0.90625
 20
0.59375
 30
0.0
 11
0.9956333153499761
 21
0.6226020271499872
 31
0.0
  0
LINE
  5
3B
  8
0
 10
0.8125
 20
0.5625
 30
0.0
 11
0.90625
 21
0.59375
 31
0.0
  0
LINE
  5
3C
  8
0
 10
0.71875
 20
0.5625
 30
0.0
 11
0.8125
 21
0.5625
 31
0.0
  0
LINE
  5
3D
  8
0
 10
0.5625
 20
0.53125
 30
0.0
 11
0.71875
 21
0.5625
 31
0.0
  0
LINE
  5
3E
  8
0
 10
0.5
 20
0.5
 30
0.0
 11
0.5625
 21
0.53125
 31
0.0
  0
LINE
  5
3F
  8
0
 10
0.9612332023976436
 20
0.52626914913542
 30
0.0
 11
0.9993610688277469
 21
0.5053939336413352
 31
0.0
  0
LINE
  5
40
  8
0
 10
0.9200335542125865
 20
0.5388617351125397
 30
0.0
 11
0.9612332023976436
 21
0.52626914913542
 31
0.0
  0
LINE
  5
41
  8
0
 10
0.8690183158643182
 20
0.52626914913542
 30
0.0
 11
0.9200335542125865
 21
0.5388617351125397
 31
0.0
  0
LINE
  5
42
  8
0
 10
0.8239010417807864
 20
0.4968403218335798
 30
0.0
 11
0.8690183158643182
 21
0.52626914913542
 31
0.0
  0
LINE
  5
43
  8
0
 10
0.7669878391677816
 20
0.5010378504926197
 30
0.0
 11
0.8239010417807864
 21
0.4968403218335798
 31
0.0
  0
LINE
  5
44
  8
0
 10
0.7277685293489862
 20
0.5304666777944599
 30
0.0
 11
0.7669878391677816
 21
0.5010378504926197
 31
0.0
  0
LINE
  5
45
  8
0
 10
0.6728356651022432
 20
0.5325423787796993
 30
0.0
 11
0.7277685293489862
 21
0.5304666777944599
 31
0.0
  0
LINE
  5
46
  8
0
 10
0.6120048365907639
 20
0.5115547354844999
 30
0.0
 11
0.6728356651022432
 21
0.5325423787796993
 31
0.0
  0
LINE
  5
47
  8
0
 10
0.5649502749750193
 20
0.5136304364697395
 30
0.0
 11
0.6120048365907639
 21
0.5115547354844999
 31
0.0
  0
LINE
  5
48
  8
0
 10
0.5
 20
0.5
 30
0.0
 11
0.5649502749750193
 21
0.5136304364697395
 31
0.0
  0
ENDBLK
  5
49
  8
0
  0
ENDSEC
  0
SECTION
  2
ENTITIES
  0
INSERT
  5
4A
  8
0
  2
BRANCHP
 10
0.0430060226981723
 20
0.019352328949175
 30
0.0
 41
3.048
 42
3.048
 43
3.048
 50
300.0
  0
INSERT
  5
4B
  8
0
  2
BRANCHP
 10
0.0430060226981723
 20
0.019352328949175
 30
0.0
 41
3.048
 42
3.048
 43
3.048
 50
270.0
  0
INSERT
  5
4C
  8
0
  2
BRANCHP
 10
0.0430060226981723
 20
0.019352328949175
 30
0.0
 41
3.048
 42
3.048
 43
3.048
 50
240.0
  0
INSERT
  5
4D
  8
0
  2
BRANCHP
 10
0.0430060226981723
 20
0.019352328949175
 30
0.0
 41
3.048
 42
3.048
 43
3.048
 50
210.0
  0
INSERT
  5
4E
  8
0
  2
BRANCHP
 10
0.0430060226981723
 20
0.019352328949175
 30
0.0
 41
3.048
 42
3.048
 43
3.048
 50
180.0
  0
INSERT
  5
4F
  8
0
  2
BRANCHP
 10
0.0430060226981723
 20
0.019352328949175
 30
0.0
 41
3.048
 42
3.048
 43
3.048
 50
150.0
  0
INSERT
  5
50
  8
0
  2
BRANCHP
 10
0.0430060226981723
 20
0.019352328949175
 30
0.0
 41
3.048
 42
3.048
 43
3.048
 50
120.0
  0
INSERT
  5
51
  8
0
  2
BRANCHP
 10
0.0430060226981723
 20
0.019352328949175
 30
0.0
 41
3.048
 42
3.048
 43
3.048
 50
90.0
  0
INSERT
  5
52
  8
0
  2
BRANCHP
 10
0.0430060226981723
 20
0.019352328949175
 30
0.0
 41
3.048
 42
3.048
 43
3.048
 50
59.99999999999999
  0
INSERT
  5
53
  8
0
  2
BRANCHP
 10
0.0430060226981723
 20
0.019352328949175
 30
0.0
 41
3.048
 42
3.048
 43
3.048
 50
30.0
  0
INSERT
  5
54
  8
0
  2
BRANCHP
 10
0.0430060226981723
 20
0.019352328949175
 30
0.0
 41
3.048
 42
3.048
 43
3.048
 50
330.0000000000001
  0
INSERT
  5
55
  8
0
  2
BRANCHP
 10
0.0430060226981723
 20
0.019352328949175
 30
0.0
 41
3.048
 42
3.048
 43
3.048
  0
ENDSEC
  0
EOF
