  0
SECTION
  2
HEADER
  9
$ACADVER
  1
AC1009
  9
$DWGCODEPAGE
  3
ansi_1252
  9
$INSBASE
 10
-0.168171409281598
 20
0.0170947308235796
 30
0.0
  9
$EXTMIN
 10
-1.894702579673698
 20
-1.504647671050826
 30
0.0
  9
$EXTMAX
 10
1.439047420326268
 20
1.829102328949141
 30
0.0
  9
$LIMMIN
 10
0.0
 20
0.0
  9
$LIMMAX
 10
112.6681165114288
 20
85.81588118979204
  9
$ORTHOMODE
 70
     0
  9
$REGENMODE
 70
     0
  9
$FILLMODE
 70
     1
  9
$QTEXTMODE
 70
     0
  9
$MIRRTEXT
 70
     1
  9
$DRAGMODE
 70
     2
  9
$LTSCALE
 40
1.25
  9
$OSMODE
 70
    37
  9
$ATTMODE
 70
     1
  9
$TEXTSIZE
 40
0.25
  9
$TRACEWID
 40
0.05
  9
$TEXTSTYLE
  7
STANDARD
  9
$CLAYER
  8
0
  9
$CELTYPE
  6
BYLAYER
  9
$CECOLOR
 62
   256
  9
$DIMSCALE
 40
50.0
  9
$DIMASZ
 40
0.0
  9
$DIMEXO
 40
0.003
  9
$DIMDLI
 40
0.02
  9
$DIMRND
 40
0.0
  9
$DIMDLE
 40
0.005
  9
$DIMEXE
 40
0.005
  9
$DIMTP
 40
0.0
  9
$DIMTM
 40
0.0
  9
$DIMTXT
 40
0.0025
  9
$DIMCEN
 40
0.005
  9
$DIMTSZ
 40
0.0015
  9
$DIMTOL
 70
     0
  9
$DIMLIM
 70
     0
  9
$DIMTIH
 70
     0
  9
$DIMTOH
 70
     0
  9
$DIMSE1
 70
     0
  9
$DIMSE2
 70
     0
  9
$DIMTAD
 70
     1
  9
$DIMZIN
 70
     0
  9
$DIMBLK
  1

  9
$DIMASO
 70
     1
  9
$DIMSHO
 70
     0
  9
$DIMPOST
  1

  9
$DIMAPOST
  1
mm
  9
$DIMALT
 70
     0
  9
$DIMALTD
 70
     0
  9
$DIMALTF
 40
1000.0
  9
$DIMLFAC
 40
1.0
  9
$DIMTOFL
 70
     0
  9
$DIMTVP
 40
0.0
  9
$DIMTIX
 70
     0
  9
$DIMSOXD
 70
     0
  9
$DIMSAH
 70
     0
  9
$DIMBLK1
  1

  9
$DIMBLK2
  1

  9
$DIMSTYLE
  2
STANDARD
  9
$DIMCLRD
 70
     0
  9
$DIMCLRE
 70
     0
  9
$DIMCLRT
 70
     0
  9
$DIMTFAC
 40
1.0
  9
$DIMGAP
 40
0.09
  9
$LUNITS
 70
     2
  9
$LUPREC
 70
     2
  9
$SKETCHINC
 40
0.1
  9
$FILLETRAD
 40
0.0
  9
$AUNITS
 70
     0
  9
$AUPREC
 70
     0
  9
$MENU
  1
ACAD
  9
$ELEVATION
 40
0.0
  9
$PELEVATION
 40
0.0
  9
$THICKNESS
 40
0.0
  9
$LIMCHECK
 70
     0
  9
$CHAMFERA
 40
0.0
  9
$CHAMFERB
 40
0.0
  9
$SKPOLY
 70
     0
  9
$TDCREATE
 40
2449028.724217361
  9
$TDUPDATE
 40
2457464.594108796
  9
$TDINDWG
 40
0.000311713
  9
$TDUSRTIMER
 40
0.000311713
  9
$USRTIMER
 70
     1
  9
$ANGBASE
 50
0.0
  9
$ANGDIR
 70
     0
  9
$PDMODE
 70
     0
  9
$PDSIZE
 40
0.0
  9
$PLINEWID
 40
0.0
  9
$COORDS
 70
     1
  9
$SPLFRAME
 70
     0
  9
$SPLINETYPE
 70
     6
  9
$SPLINESEGS
 70
     8
  9
$ATTDIA
 70
     0
  9
$ATTREQ
 70
     1
  9
$HANDLING
 70
     1
  9
$HANDSEED
  5
BA
  9
$SURFTAB1
 70
     6
  9
$SURFTAB2
 70
     6
  9
$SURFTYPE
 70
     6
  9
$SURFU
 70
     6
  9
$SURFV
 70
     6
  9
$UCSNAME
  2

  9
$UCSORG
 10
0.0
 20
0.0
 30
0.0
  9
$UCSXDIR
 10
1.0
 20
0.0
 30
0.0
  9
$UCSYDIR
 10
0.0
 20
1.0
 30
0.0
  9
$PUCSNAME
  2

  9
$PUCSORG
 10
0.0
 20
0.0
 30
0.0
  9
$PUCSXDIR
 10
1.0
 20
0.0
 30
0.0
  9
$PUCSYDIR
 10
0.0
 20
1.0
 30
0.0
  9
$USERI1
 70
     0
  9
$USERI2
 70
     0
  9
$USERI3
 70
     0
  9
$USERI4
 70
     0
  9
$USERI5
 70
     0
  9
$USERR1
 40
0.0
  9
$USERR2
 40
0.0
  9
$USERR3
 40
0.0
  9
$USERR4
 40
1.0
  9
$USERR5
 40
50.0
  9
$WORLDVIEW
 70
     1
  9
$SHADEDGE
 70
     3
  9
$SHADEDIF
 70
    70
  9
$TILEMODE
 70
     1
  9
$MAXACTVP
 70
     4
  9
$PLIMCHECK
 70
     0
  9
$PEXTMIN
 10
1.000000000000000E+20
 20
1.000000000000000E+20
 30
1.000000000000000E+20
  9
$PEXTMAX
 10
-1.000000000000000E+20
 20
-1.000000000000000E+20
 30
-1.000000000000000E+20
  9
$PLIMMIN
 10
0.0
 20
0.0
  9
$PLIMMAX
 10
12.0
 20
9.0
  9
$UNITMODE
 70
     0
  9
$VISRETAIN
 70
     0
  9
$PLINEGEN
 70
     0
  9
$PSLTSCALE
 70
     0
  0
ENDSEC
  0
SECTION
  2
TABLES
  0
TABLE
  2
VPORT
 70
     1
  0
VPORT
  2
*ACTIVE
 70
     0
 10
0.0
 20
0.0
 11
1.0
 21
1.0
 12
-0.2278474303294047
 22
0.5803515319300423
 13
0.0
 23
0.0
 14
0.05
 24
0.05
 15
1.0
 25
1.0
 16
0.0
 26
0.0
 36
1.0
 17
0.0
 27
0.0
 37
0.0
 40
4.238696236347022
 41
1.503537735849057
 42
50.0
 43
0.0
 44
0.0
 50
0.0
 51
0.0
 71
     0
 72
  2000
 73
     1
 74
     0
 75
     0
 76
     0
 77
     0
 78
     0
  0
ENDTAB
  0
TABLE
  2
LTYPE
 70
     1
  0
LTYPE
  2
CONTINUOUS
 70
     0
  3
Solid line
 72
    65
 73
     0
 40
0.0
  0
ENDTAB
  0
TABLE
  2
LAYER
 70
     1
  0
LAYER
  2
0
 70
     0
 62
     7
  6
CONTINUOUS
  0
ENDTAB
  0
TABLE
  2
STYLE
 70
     1
  0
STYLE
  2
STANDARD
 70
     0
 40
0.0
 41
1.0
 50
0.0
 71
     0
 42
0.25
  3
SIMPLEX
  4

  0
ENDTAB
  0
TABLE
  2
VIEW
 70
     0
  0
ENDTAB
  0
TABLE
  2
UCS
 70
     0
  0
ENDTAB
  0
TABLE
  2
APPID
 70
     1
  0
APPID
  2
ACAD
 70
     0
  0
ENDTAB
  0
TABLE
  2
DIMSTYLE
 70
     1
  0
DIMSTYLE
  2
STANDARD
 70
     0
  3

  4

  5

  6

  7

 40
1.0
 41
0.18
 42
0.0625
 43
0.38
 44
0.18
 45
0.0
 46
0.0
 47
0.0
 48
0.0
140
0.18
141
0.09
142
0.0
143
25.4
144
1.0
145
0.0
146
1.0
147
0.09
 71
     0
 72
     0
 73
     1
 74
     1
 75
     0
 76
     0
 77
     0
 78
     0
170
     0
171
     2
172
     0
173
     0
174
     0
175
     0
176
     0
177
     0
178
     0
  0
ENDTAB
  0
ENDSEC
  0
SECTION
  2
BLOCKS
  0
BLOCK
  8
0
  2
$MODEL_SPACE
 70
     0
 10
0.0
 20
0.0
 30
0.0
  3
$MODEL_SPACE
  1

  0
ENDBLK
  5
1F
  8
0
  0
BLOCK
 67
     1
  8
0
  2
$PAPER_SPACE
 70
     0
 10
0.0
 20
0.0
 30
0.0
  3
$PAPER_SPACE
  1

  0
ENDBLK
  5
1D
 67
     1
  8
0
  0
ENDSEC
  0
SECTION
  2
ENTITIES
  0
LINE
  5
23
  8
0
 62
     0
 10
-0.2754525796736615
 20
-0.2663976710507896
 30
0.0
 11
-0.8469525796736619
 21
-1.40939767105079
 31
0.0
  0
LINE
  5
24
  8
0
 62
     0
 10
-0.8469525796736619
 20
1.352852328949176
 30
0.0
 11
-0.4790905107081542
 21
0.4331971565354067
 31
0.0
  0
LINE
  5
25
  8
0
 62
     0
 10
-1.418452579673662
 20
1.733852328949176
 30
0.0
 11
-0.4659525796736617
 21
0.3051023289491397
 31
0.0
  0
LINE
  5
26
  8
0
 62
     0
 10
-1.418452579673662
 20
0.9718523289491756
 30
0.0
 11
-0.2754525796736615
 21
0.1146023289491396
 31
0.0
  0
LINE
  5
27
  8
0
 62
     0
 10
-1.323202579673698
 20
0.1146023289491396
 30
0.0
 11
-0.4659525796736617
 21
0.1146023289491396
 31
0.0
  0
LINE
  5
28
  8
0
 62
     0
 10
-1.608952579673662
 20
-0.2663976710507896
 30
0.0
 11
-0.3873159517666878
 21
-0.1024790663996598
 31
0.0
  0
LINE
  5
29
  8
0
 62
     0
 10
-1.799452579673662
 20
-0.9331476710508255
 30
0.0
 11
-0.5005889433100705
 21
-0.2837158528690296
 31
0.0
  0
LINE
  5
2A
  8
0
 62
     0
 10
-0.8469525796736619
 20
-0.8378976710507899
 30
0.0
 11
-0.3873159517666878
 21
-0.1024790663996598
 31
0.0
  0
LINE
  5
2B
  8
0
 62
     0
 10
-0.180202579673697
 20
0.019352328949175
 30
0.0
 11
-0.8469525796736619
 21
1.352852328949176
 31
0.0
  0
LINE
  5
2C
  8
0
 62
     0
 10
-0.180202579673697
 20
0.019352328949175
 30
0.0
 11
-1.418452579673662
 21
0.9718523289491756
 31
0.0
  0
LINE
  5
2D
  8
0
 62
     0
 10
-0.180202579673697
 20
0.019352328949175
 30
0.0
 11
-1.323202579673698
 21
0.1146023289491396
 31
0.0
  0
LINE
  5
2E
  8
0
 62
     0
 10
-0.180202579673697
 20
0.019352328949175
 30
0.0
 11
-0.8469525796736619
 21
-0.8378976710507899
 31
0.0
  0
LINE
  5
2F
  8
0
 62
     0
 10
-0.180202579673697
 20
0.019352328949175
 30
0.0
 11
-0.8469525796736619
 21
-1.40939767105079
 31
0.0
  0
LINE
  5
30
  8
0
 62
     0
 10
-0.180202579673697
 20
0.019352328949175
 30
0.0
 11
-1.894702579673698
 21
0.5908523289491754
 31
0.0
  0
LINE
  5
31
  8
0
 62
     0
 10
-0.180202579673697
 20
0.019352328949175
 30
0.0
 11
-1.608952579673662
 21
-0.2663976710507896
 31
0.0
  0
LINE
  5
32
  8
0
 62
     0
 10
-0.180202579673697
 20
0.019352328949175
 30
0.0
 11
-1.799452579673662
 21
-0.9331476710508255
 31
0.0
  0
LINE
  5
33
  8
0
 62
     0
 10
-0.180202579673697
 20
0.019352328949175
 30
0.0
 11
-1.037452579673662
 21
0.4956023289491398
 31
0.0
  0
LINE
  5
34
  8
0
 62
     0
 10
-0.180202579673697
 20
0.019352328949175
 30
0.0
 11
-1.418452579673662
 21
1.733852328949176
 31
0.0
  0
LINE
  5
35
  8
0
 62
     0
 10
-0.8469525796736619
 20
-1.40939767105079
 30
0.0
 11
-0.8469525796736619
 21
-1.40939767105079
 31
0.0
  0
LINE
  5
36
  8
0
 62
     0
 10
-1.894702579673698
 20
0.5908523289491754
 30
0.0
 11
-0.6564525796736618
 21
0.2098523289491752
 31
0.0
  0
LINE
  5
37
  8
0
 62
     0
 10
-1.037452579673662
 20
0.4956023289491398
 30
0.0
 11
-0.6564525796736618
 21
0.2098523289491752
 31
0.0
  0
LINE
  5
38
  8
0
 62
     0
 10
-0.3707025796736971
 20
-1.314147671050826
 30
0.0
 11
-0.2754525796736615
 21
-0.2663976710507896
 31
0.0
  0
LINE
  5
39
  8
0
 62
     0
 10
-0.0849525796737325
 20
-1.02839767105079
 30
0.0
 11
-0.0849525796737325
 21
-0.2663976710507896
 31
0.0
  0
LINE
  5
3A
  8
0
 62
     0
 10
0.4865474203262679
 20
-1.504647671050826
 30
0.0
 11
0.0102974203263031
 21
-0.2663976710507896
 31
0.0
  0
LINE
  5
3B
  8
0
 62
     0
 10
0.5817974203263034
 20
-1.02839767105079
 30
0.0
 11
0.0102974203263031
 21
-0.1711476710508251
 31
0.0
  0
LINE
  5
3C
  8
0
 62
     0
 10
-0.180202579673697
 20
0.019352328949175
 30
0.0
 11
0.5817974203263034
 21
-1.02839767105079
 31
0.0
  0
LINE
  5
3D
  8
0
 62
     0
 10
-0.180202579673697
 20
0.019352328949175
 30
0.0
 11
-0.0849525796737325
 21
-1.02839767105079
 31
0.0
  0
LINE
  5
3E
  8
0
 62
     0
 10
-0.180202579673697
 20
0.019352328949175
 30
0.0
 11
-0.3707025796736971
 21
-1.314147671050826
 31
0.0
  0
LINE
  5
3F
  8
0
 62
     0
 10
-0.180202579673697
 20
0.019352328949175
 30
0.0
 11
0.4865474203262679
 21
-1.504647671050826
 31
0.0
  0
LINE
  5
40
  8
0
 62
     0
 10
1.248547420326268
 20
0.9718523289491756
 30
0.0
 11
0.0102974203263031
 21
0.2098523289491752
 31
0.0
  0
LINE
  5
41
  8
0
 62
     0
 10
1.058047420326268
 20
1.543352328949176
 30
0.0
 11
0.0304892115492308
 21
0.3568067740444505
 31
0.0
  0
LINE
  5
42
  8
0
 62
     0
 10
0.2960474203262677
 20
1.352852328949176
 30
0.0
 11
0.0304892115492308
 21
0.3568067740444505
 31
0.0
  0
LINE
  5
43
  8
0
 62
     0
 10
-0.180202579673697
 20
0.4003523289491753
 30
0.0
 11
0.2007974203263032
 21
1.829102328949141
 31
0.0
  0
LINE
  5
44
  8
0
 62
     0
 10
-0.3707025796736971
 20
1.829102328949141
 30
0.0
 11
-0.180202579673697
 21
0.4003523289491753
 31
0.0
  0
LINE
  5
45
  8
0
 62
     0
 10
-0.5612025796736972
 20
1.162352328949176
 30
0.0
 11
-0.2074168653879624
 21
0.2778880432348743
 31
0.0
  0
LINE
  5
46
  8
0
 62
     0
 10
-0.180202579673697
 20
0.019352328949175
 30
0.0
 11
1.248547420326268
 21
0.9718523289491756
 31
0.0
  0
LINE
  5
47
  8
0
 62
     0
 10
-0.180202579673697
 20
0.019352328949175
 30
0.0
 11
0.2007974203263032
 21
1.829102328949141
 31
0.0
  0
LINE
  5
48
  8
0
 62
     0
 10
-0.180202579673697
 20
0.019352328949175
 30
0.0
 11
-0.5612025796736972
 21
1.162352328949176
 31
0.0
  0
LINE
  5
49
  8
0
 62
     0
 10
-0.180202579673697
 20
0.019352328949175
 30
0.0
 11
-0.3707025796736971
 21
1.829102328949141
 31
0.0
  0
LINE
  5
4A
  8
0
 62
     0
 10
-0.180202579673697
 20
0.019352328949175
 30
0.0
 11
0.2960474203262677
 21
1.352852328949176
 31
0.0
  0
LINE
  5
4B
  8
0
 62
     0
 10
-0.180202579673697
 20
0.019352328949175
 30
0.0
 11
1.058047420326268
 21
1.543352328949176
 31
0.0
  0
LINE
  5
4C
  8
0
 62
     0
 10
0.2007974203263032
 20
-0.1711476710508251
 30
0.0
 11
1.058047420326268
 21
-0.8378976710507899
 31
0.0
  0
LINE
  5
4D
  8
0
 62
     0
 10
1.439047420326268
 20
-0.6473976710507898
 30
0.0
 11
0.2007974203263032
 21
-0.1711476710508251
 31
0.0
  0
LINE
  5
4E
  8
0
 62
     0
 10
1.153297420326304
 20
-0.1711476710508251
 30
0.0
 11
0.1055474203262676
 21
-0.0758976710507895
 31
0.0
  0
LINE
  5
4F
  8
0
 62
     0
 10
1.439047420326268
 20
0.2098523289491752
 30
0.0
 11
0.0102974203263031
 21
0.019352328949175
 31
0.0
  0
LINE
  5
50
  8
0
 62
     0
 10
1.343797420326304
 20
0.4956023289491398
 30
0.0
 11
0.0102974203263031
 21
0.1146023289491396
 31
0.0
  0
LINE
  5
51
  8
0
 62
     0
 10
-0.180202579673697
 20
0.019352328949175
 30
0.0
 11
1.058047420326268
 21
-0.8378976710507899
 31
0.0
  0
LINE
  5
52
  8
0
 62
     0
 10
-0.180202579673697
 20
0.019352328949175
 30
0.0
 11
1.153297420326304
 21
-0.1711476710508251
 31
0.0
  0
LINE
  5
53
  8
0
 62
     0
 10
-0.180202579673697
 20
0.019352328949175
 30
0.0
 11
1.439047420326268
 21
0.2098523289491752
 31
0.0
  0
LINE
  5
54
  8
0
 62
     0
 10
-0.180202579673697
 20
0.019352328949175
 30
0.0
 11
1.439047420326268
 21
-0.6473976710507898
 31
0.0
  0
LINE
  5
55
  8
0
 62
     0
 10
-0.180202579673697
 20
0.019352328949175
 30
0.0
 11
1.343797420326304
 21
0.4956023289491398
 31
0.0
  0
ENDSEC
  0
EOF
