  0
SECTION
  2
HEADER
  9
$ACADVER
  1
AC1009
  9
$DWGCODEPAGE
  3
ansi_1252
  9
$INSBASE
 10
-265.4167597455389
 20
101.3134732609979
 30
0.0
  9
$EXTMIN
 10
-270.1580475142048
 20
96.59195526629921
 30
0.0
  9
$EXTMAX
 10
-260.5569865659955
 20
106.1930162145084
 30
0.0
  9
$LIMMIN
 10
0.0
 20
0.0
  9
$LIMMAX
 10
420.0
 20
297.0
  9
$ORTHOMODE
 70
     0
  9
$REGENMODE
 70
     1
  9
$FILLMODE
 70
     1
  9
$QTEXTMODE
 70
     0
  9
$MIRRTEXT
 70
     1
  9
$DRAGMODE
 70
     2
  9
$LTSCALE
 40
1.0
  9
$OSMODE
 70
    37
  9
$ATTMODE
 70
     1
  9
$TEXTSIZE
 40
2.5
  9
$TRACEWID
 40
1.0
  9
$TEXTSTYLE
  7
STANDARD
  9
$CLAYER
  8
0
  9
$CELTYPE
  6
BYLAYER
  9
$CECOLOR
 62
   256
  9
$DIMSCALE
 40
1.0
  9
$DIMASZ
 40
2.5
  9
$DIMEXO
 40
0.625
  9
$DIMDLI
 40
3.75
  9
$DIMRND
 40
0.0
  9
$DIMDLE
 40
0.0
  9
$DIMEXE
 40
1.25
  9
$DIMTP
 40
0.0
  9
$DIMTM
 40
0.0
  9
$DIMTXT
 40
2.5
  9
$DIMCEN
 40
2.5
  9
$DIMTSZ
 40
0.0
  9
$DIMTOL
 70
     0
  9
$DIMLIM
 70
     0
  9
$DIMTIH
 70
     0
  9
$DIMTOH
 70
     0
  9
$DIMSE1
 70
     0
  9
$DIMSE2
 70
     0
  9
$DIMTAD
 70
     1
  9
$DIMZIN
 70
     8
  9
$DIMBLK
  1

  9
$DIMASO
 70
     1
  9
$DIMSHO
 70
     1
  9
$DIMPOST
  1

  9
$DIMAPOST
  1

  9
$DIMALT
 70
     0
  9
$DIMALTD
 70
     4
  9
$DIMALTF
 40
0.0394
  9
$DIMLFAC
 40
1.0
  9
$DIMTOFL
 70
     1
  9
$DIMTVP
 40
0.0
  9
$DIMTIX
 70
     0
  9
$DIMSOXD
 70
     0
  9
$DIMSAH
 70
     0
  9
$DIMBLK1
  1

  9
$DIMBLK2
  1

  9
$DIMSTYLE
  2
STANDARD
  9
$DIMCLRD
 70
     0
  9
$DIMCLRE
 70
     0
  9
$DIMCLRT
 70
     0
  9
$DIMTFAC
 40
1.0
  9
$DIMGAP
 40
0.625
  9
$LUNITS
 70
     2
  9
$LUPREC
 70
     4
  9
$SKETCHINC
 40
1.0
  9
$FILLETRAD
 40
10.0
  9
$AUNITS
 70
     0
  9
$AUPREC
 70
     0
  9
$MENU
  1
.
  9
$ELEVATION
 40
0.0
  9
$PELEVATION
 40
0.0
  9
$THICKNESS
 40
0.0
  9
$LIMCHECK
 70
     0
  9
$CHAMFERA
 40
10.0
  9
$CHAMFERB
 40
10.0
  9
$SKPOLY
 70
     0
  9
$TDCREATE
 40
2451425.567563426
  9
$TDUPDATE
 40
2457464.594108796
  9
$TDINDWG
 40
0.0036215509
  9
$TDUSRTIMER
 40
0.0036215509
  9
$USRTIMER
 70
     1
  9
$ANGBASE
 50
0.0
  9
$ANGDIR
 70
     0
  9
$PDMODE
 70
     0
  9
$PDSIZE
 40
0.0
  9
$PLINEWID
 40
0.0
  9
$COORDS
 70
     1
  9
$SPLFRAME
 70
     0
  9
$SPLINETYPE
 70
     6
  9
$SPLINESEGS
 70
     8
  9
$ATTDIA
 70
     0
  9
$ATTREQ
 70
     1
  9
$HANDLING
 70
     1
  9
$HANDSEED
  5
115
  9
$SURFTAB1
 70
     6
  9
$SURFTAB2
 70
     6
  9
$SURFTYPE
 70
     6
  9
$SURFU
 70
     6
  9
$SURFV
 70
     6
  9
$UCSNAME
  2

  9
$UCSORG
 10
0.0
 20
0.0
 30
0.0
  9
$UCSXDIR
 10
1.0
 20
0.0
 30
0.0
  9
$UCSYDIR
 10
0.0
 20
1.0
 30
0.0
  9
$PUCSNAME
  2

  9
$PUCSORG
 10
0.0
 20
0.0
 30
0.0
  9
$PUCSXDIR
 10
1.0
 20
0.0
 30
0.0
  9
$PUCSYDIR
 10
0.0
 20
1.0
 30
0.0
  9
$USERI1
 70
     0
  9
$USERI2
 70
     0
  9
$USERI3
 70
     0
  9
$USERI4
 70
     0
  9
$USERI5
 70
     0
  9
$USERR1
 40
0.0
  9
$USERR2
 40
0.0
  9
$USERR3
 40
0.0
  9
$USERR4
 40
0.0
  9
$USERR5
 40
0.0
  9
$WORLDVIEW
 70
     1
  9
$SHADEDGE
 70
     3
  9
$SHADEDIF
 70
    70
  9
$TILEMODE
 70
     1
  9
$MAXACTVP
 70
    48
  9
$PLIMCHECK
 70
     0
  9
$PEXTMIN
 10
1.000000000000000E+20
 20
1.000000000000000E+20
 30
1.000000000000000E+20
  9
$PEXTMAX
 10
-1.000000000000000E+20
 20
-1.000000000000000E+20
 30
-1.000000000000000E+20
  9
$PLIMMIN
 10
0.0
 20
0.0
  9
$PLIMMAX
 10
420.0
 20
297.0
  9
$UNITMODE
 70
     0
  9
$VISRETAIN
 70
     1
  9
$PLINEGEN
 70
     0
  9
$PSLTSCALE
 70
     1
  0
ENDSEC
  0
SECTION
  2
TABLES
  0
TABLE
  2
VPORT
 70
     1
  0
VPORT
  2
*ACTIVE
 70
     0
 10
0.0
 20
0.0
 11
1.0
 21
1.0
 12
-263.9427755110878
 22
105.2848026406816
 13
0.0
 23
0.0
 14
10.0
 24
10.0
 15
10.0
 25
10.0
 16
0.0
 26
0.0
 36
1.0
 17
0.0
 27
0.0
 37
0.0
 40
25.07650813206434
 41
1.503537735849056
 42
50.0
 43
0.0
 44
0.0
 50
0.0
 51
0.0
 71
     0
 72
   100
 73
     1
 74
     1
 75
     0
 76
     0
 77
     0
 78
     0
  0
ENDTAB
  0
TABLE
  2
LTYPE
 70
     1
  0
LTYPE
  2
CONTINUOUS
 70
     0
  3
Solid line
 72
    65
 73
     0
 40
0.0
  0
ENDTAB
  0
TABLE
  2
LAYER
 70
     2
  0
LAYER
  2
0
 70
     0
 62
     7
  6
CONTINUOUS
  0
LAYER
  2
L01
 70
     0
 62
     1
  6
CONTINUOUS
  0
ENDTAB
  0
TABLE
  2
STYLE
 70
     1
  0
STYLE
  2
STANDARD
 70
     0
 40
0.0
 41
1.0
 50
0.0
 71
     0
 42
2.5
  3
txt
  4

  0
ENDTAB
  0
TABLE
  2
VIEW
 70
     0
  0
ENDTAB
  0
TABLE
  2
UCS
 70
     0
  0
ENDTAB
  0
TABLE
  2
APPID
 70
     1
  0
APPID
  2
ACAD
 70
     0
  0
ENDTAB
  0
TABLE
  2
DIMSTYLE
 70
     1
  0
DIMSTYLE
  2
STANDARD
 70
     0
  3

  4

  5

  6

  7

 40
1.0
 41
0.18
 42
0.0625
 43
0.38
 44
0.18
 45
0.0
 46
0.0
 47
0.0
 48
0.0
140
0.18
141
0.09
142
0.0
143
25.4
144
1.0
145
0.0
146
1.0
147
0.09
 71
     0
 72
     0
 73
     1
 74
     1
 75
     0
 76
     0
 77
     0
 78
     0
170
     0
171
     2
172
     0
173
     0
174
     0
175
     0
176
     0
177
     0
178
     0
  0
ENDTAB
  0
ENDSEC
  0
SECTION
  2
BLOCKS
  0
BLOCK
  8
0
  2
$MODEL_SPACE
 70
     0
 10
0.0
 20
0.0
 30
0.0
  3
$MODEL_SPACE
  1

  0
ENDBLK
  5
6
  8
0
  0
BLOCK
 67
     1
  8
0
  2
$PAPER_SPACE
 70
     0
 10
0.0
 20
0.0
 30
0.0
  3
$PAPER_SPACE
  1

  0
ENDBLK
  5
9
 67
     1
  8
0
  0
ENDSEC
  0
SECTION
  2
ENTITIES
  0
LINE
  5
1D
  8
0
 62
     0
 10
-266.8940488071344
 20
96.84189103243578
 30
0.0
 11
-266.6893586467266
 21
97.39423516971944
 31
0.0
  0
LINE
  5
1F
  8
0
 62
     0
 10
-269.7131667584387
 20
103.3237771025101
 30
0.0
 11
-269.2420497001673
 21
103.0606040391287
 31
0.0
  0
LINE
  5
20
  8
0
 62
     0
 10
-269.583203432019
 20
103.4846050856876
 30
0.0
 11
-269.1283317895501
 21
103.2068112965628
 31
0.0
  0
LINE
  5
21
  8
0
 62
     0
 10
-270.1517929851051
 20
101.5400485618141
 30
0.0
 11
-269.5669580162165
 21
101.5254278360707
 31
0.0
  0
LINE
  5
22
  8
0
 62
     0
 10
-270.1193021535002
 20
101.7008765449916
 30
0.0
 11
-269.5994488478215
 21
101.6716350935048
 31
0.0
  0
LINE
  5
23
  8
0
 62
     0
 10
-270.1355475693027
 20
101.9055667053994
 30
0.0
 11
-269.5507126004141
 21
101.8470838024257
 31
0.0
  0
LINE
  5
24
  8
0
 62
     0
 10
-270.0055842428829
 20
102.1541190430373
 30
0.0
 11
-269.5182217688092
 21
102.0810154143203
 31
0.0
  0
LINE
  5
25
  8
0
 62
     0
 10
-270.0868113218953
 20
102.285705574728
 30
0.0
 11
-269.6156942636239
 21
102.1979812202676
 31
0.0
  0
LINE
  5
26
  8
0
 62
     0
 10
-269.9893388270805
 20
102.4903957351357
 30
0.0
 11
-269.4532401055993
 21
102.358809203445
 31
0.0
  0
LINE
  5
27
  8
0
 62
     0
 10
-269.9730934112781
 20
102.7243273470303
 30
0.0
 11
-269.4207492739944
 21
102.5634993638528
 31
0.0
  0
LINE
  5
28
  8
0
 62
     0
 10
-269.9081117480682
 20
102.929017507438
 30
0.0
 11
-269.3557676107845
 21
102.7243273470303
 31
0.0
  0
LINE
  5
29
  8
0
 62
     0
 10
-269.794393837451
 20
103.0898454906155
 30
0.0
 11
-269.3070313633772
 21
102.8705346044644
 31
0.0
  0
LINE
  5
2A
  8
0
 62
     0
 10
-270.0484632667162
 20
100.6015599795246
 30
0.0
 11
-269.5258307017706
 21
100.6764930749893
 31
0.0
  0
LINE
  5
2B
  8
0
 62
     0
 10
-270.0990406117109
 20
101.201024743242
 30
0.0
 11
-269.5595489317672
 21
101.2291246540413
 31
0.0
  0
LINE
  5
2C
  8
0
 62
     0
 10
-270.1243292842083
 20
100.976225456848
 30
0.0
 11
-269.5595489317672
 21
101.0230586415134
 31
0.0
  0
LINE
  5
2D
  8
0
 62
     0
 10
-270.0400337092171
 20
100.7701594443201
 30
0.0
 11
-269.5426898167689
 21
100.8450925397848
 31
0.0
  0
LINE
  5
2E
  8
0
 62
     0
 10
-270.0147450367197
 20
100.1800613175358
 30
0.0
 11
-269.4246760117812
 21
100.3392941453983
 31
0.0
  0
LINE
  5
2F
  8
0
 62
     0
 10
-269.896731231732
 20
100.0582950374057
 30
0.0
 11
-269.3993873392838
 21
100.2081612283351
 31
0.0
  0
LINE
  5
30
  8
0
 62
     0
 10
-270.0400337092171
 20
100.3767606931306
 30
0.0
 11
-269.5005420292733
 21
100.4797936993945
 31
0.0
  0
LINE
  5
31
  8
0
 62
     0
 10
-269.8714425592347
 20
99.81476247714555
 30
0.0
 11
-269.3656691092874
 21
100.0114618527403
 31
0.0
  0
LINE
  5
32
  8
0
 62
     0
 10
-269.5258307017706
 20
99.11226470716424
 30
0.0
 11
-269.0537754818198
 21
99.3745305412906
 31
0.0
  0
LINE
  5
33
  8
0
 62
     0
 10
-269.6944218517531
 20
99.39326381515677
 30
0.0
 11
-269.1970779593049
 21
99.60869646461771
 31
0.0
  0
LINE
  5
34
  8
0
 62
     0
 10
-270.0737519392135
 20
100.4704270624614
 30
0.0
 11
-269.5005420292733
 21
100.5828267056584
 31
0.0
  0
LINE
  5
35
  8
0
 62
     0
 10
-269.6016967192627
 20
99.23403098729433
 30
0.0
 11
-269.0790641543172
 21
99.4962968214207
 31
0.0
  0
LINE
  5
36
  8
0
 62
     0
 10
-269.4583942417777
 20
98.99986506396723
 30
0.0
 11
-268.9779094643277
 21
99.21529771342817
 31
0.0
  0
LINE
  5
37
  8
0
 62
     0
 10
-269.0622050393189
 20
98.34420047865133
 30
0.0
 11
-268.649156721862
 21
98.70013268210853
 31
0.0
  0
LINE
  5
38
  8
0
 62
     0
 10
-269.138071056811
 20
98.55026649117919
 30
0.0
 11
-268.7165931818549
 21
98.86873214690405
 31
0.0
  0
LINE
  5
39
  8
0
 62
     0
 10
-269.3235213217917
 20
98.61583294971078
 30
0.0
 11
-268.9189025618339
 21
98.88746542077023
 31
0.0
  0
LINE
  5
3A
  8
0
 62
     0
 10
-269.3572395517882
 20
98.8406322361048
 30
0.0
 11
-268.9020434468356
 21
99.1403646179635
 31
0.0
  0
LINE
  5
3B
  8
0
 62
     0
 10
-270.1580475142048
 20
101.3924857404038
 30
0.0
 11
-269.5679784892662
 21
101.4070907557699
 31
0.0
  0
LINE
  5
3C
  8
0
 62
     0
 10
-269.8124356567408
 20
99.56186327995228
 30
0.0
 11
-269.2560848617987
 21
99.7866625663463
 31
0.0
  0
LINE
  5
3D
  8
0
 62
     0
 10
-268.8936138893365
 20
98.17560101385583
 30
0.0
 11
-268.4889951293787
 21
98.55026649117919
 31
0.0
  0
LINE
  5
3E
  8
0
 62
     0
 10
-268.7840296418479
 20
98.06320137065882
 30
0.0
 11
-268.3962699968883
 21
98.4285002110491
 31
0.0
  0
LINE
  5
3F
  8
0
 62
     0
 10
-268.6407271643628
 20
97.93206845359563
 30
0.0
 11
-268.2866857493997
 21
98.31610056785209
 31
0.0
  0
LINE
  5
40
  8
0
 62
     0
 10
-268.5058542443769
 20
97.75410235186703
 30
0.0
 11
-268.1433832719147
 21
98.15686773998966
 31
0.0
  0
LINE
  5
41
  8
0
 62
     0
 10
-268.3119744218971
 20
97.6604359825362
 30
0.0
 11
-267.9832216794313
 21
98.09130128145807
 31
0.0
  0
LINE
  5
42
  8
0
 62
     0
 10
-268.1349537144155
 20
97.4824698808076
 30
0.0
 11
-267.7977714144507
 21
97.95080172746181
 31
0.0
  0
LINE
  5
43
  8
0
 62
     0
 10
-267.6544689369656
 20
97.23893732054741
 30
0.0
 11
-267.4015822119919
 21
97.68853589333544
 31
0.0
  0
LINE
  5
44
  8
0
 62
     0
 10
-267.7566716259955
 20
97.23178101169484
 30
0.0
 11
-267.4788778368707
 21
97.68665265416372
 31
0.0
  0
LINE
  5
45
  8
0
 62
     0
 10
-267.917499609173
 20
97.34549892231205
 30
0.0
 11
-267.6250850943048
 21
97.81661598058339
 31
0.0
  0
LINE
  5
46
  8
0
 62
     0
 10
-267.4496363853839
 20
97.16679934848499
 30
0.0
 11
-267.1718425962591
 21
97.62167099095387
 31
0.0
  0
LINE
  5
47
  8
0
 62
     0
 10
-267.2888084022064
 20
97.0368360220653
 30
0.0
 11
-267.0256353388251
 21
97.50795308033665
 31
0.0
  0
LINE
  5
48
  8
0
 62
     0
 10
-267.0548767903118
 20
96.95560894305301
 30
0.0
 11
-266.8355659041607
 21
97.44297141712681
 31
0.0
  0
LINE
  5
49
  8
0
 62
     0
 10
-269.404503858192
 20
103.9524683094767
 30
0.0
 11
-268.9333867999206
 21
103.6600537946085
 31
0.0
  0
LINE
  5
4A
  8
0
 62
     0
 10
-269.5182217688092
 20
103.7916403262992
 30
0.0
 11
-269.0633501263403
 21
103.5138465371744
 31
0.0
  0
LINE
  5
4B
  8
0
 62
     0
 10
-269.5110654599566
 20
103.6894376372693
 30
0.0
 11
-269.0614668871685
 21
103.4365509122956
 31
0.0
  0
LINE
  5
4C
  8
0
 62
     0
 10
-269.2675328996964
 20
104.1699224147192
 30
0.0
 11
-268.7992010530422
 21
103.8327401147543
 31
0.0
  0
LINE
  5
4D
  8
0
 62
     0
 10
-269.0895667979678
 20
104.3469431222008
 30
0.0
 11
-268.6587014990459
 21
104.018190379735
 31
0.0
  0
LINE
  5
4E
  8
0
 62
     0
 10
-268.995900428637
 20
104.5408229446806
 30
0.0
 11
-268.5931350405143
 21
104.1783519722183
 31
0.0
  0
LINE
  5
4F
  8
0
 62
     0
 10
-268.8179343269084
 20
104.6756958646665
 30
0.0
 11
-268.4339022126519
 21
104.3216544497034
 31
0.0
  0
LINE
  5
50
  8
0
 62
     0
 10
-268.6868014098452
 20
104.8189983421516
 30
0.0
 11
-268.3215025694549
 21
104.431238697192
 31
0.0
  0
LINE
  5
51
  8
0
 62
     0
 10
-268.5744017666482
 20
104.9285825896402
 30
0.0
 11
-268.1997362893248
 21
104.5239638296823
 31
0.0
  0
LINE
  5
52
  8
0
 62
     0
 10
-267.1881395005517
 20
105.8474043570445
 30
0.0
 11
-266.9633402141577
 21
105.2910535621024
 31
0.0
  0
LINE
  5
53
  8
0
 62
     0
 10
-267.9093705443992
 20
105.3922082520919
 30
0.0
 11
-267.6096381625405
 21
104.9370121471393
 31
0.0
  0
LINE
  5
54
  8
0
 62
     0
 10
-268.1341698307932
 20
105.3584900220954
 30
0.0
 11
-267.8625373597338
 21
104.9538712621375
 31
0.0
  0
LINE
  5
55
  8
0
 62
     0
 10
-268.1997362893248
 20
105.1730397571147
 30
0.0
 11
-267.8812706335999
 21
104.7515618821586
 31
0.0
  0
LINE
  5
56
  8
0
 62
     0
 10
-268.4058023018526
 20
105.0971737396226
 30
0.0
 11
-268.0498700983954
 21
104.6841254221656
 31
0.0
  0
LINE
  5
57
  8
0
 62
     0
 10
-267.7501377165368
 20
105.4933629420813
 30
0.0
 11
-267.5347050670758
 21
105.0128781646314
 31
0.0
  0
LINE
  5
58
  8
0
 62
     0
 10
-267.5159717932096
 20
105.6366654195664
 30
0.0
 11
-267.2537059590833
 21
105.1140328546208
 31
0.0
  0
LINE
  5
59
  8
0
 62
     0
 10
-267.3567389653472
 20
105.7293905520567
 30
0.0
 11
-267.1413063158863
 21
105.2320466596086
 31
0.0
  0
LINE
  5
5A
  8
0
 62
     0
 10
-267.6377380733397
 20
105.5607994020743
 30
0.0
 11
-267.3754722392134
 21
105.0887441821235
 31
0.0
  0
LINE
  5
5B
  8
0
 62
     0
 10
-266.9352403033585
 20
105.9064112595383
 30
0.0
 11
-266.7385409277637
 21
105.400637809591
 31
0.0
  0
LINE
  5
5C
  8
0
 62
     0
 10
-261.0206122284472
 20
103.3917076656509
 30
0.0
 11
-261.5179561208955
 21
103.17627501619
 31
0.0
  0
CIRCLE
  5
5D
  8
0
 62
     0
 10
-265.3575170401002
 20
101.3924857404038
 30
0.0
 40
0.2858751181864655
  0
LINE
  5
5E
  8
0
 62
     0
 10
-266.6893586467266
 20
96.77690936922595
 30
0.0
 11
-266.5285306635491
 21
97.32925350650959
 31
0.0
  0
LINE
  5
5F
  8
0
 62
     0
 10
-266.4554270348321
 20
96.76066395342349
 30
0.0
 11
-266.3238405031414
 21
97.29676267490467
 31
0.0
  0
LINE
  5
60
  8
0
 62
     0
 10
-266.2507368744243
 20
96.66319145860872
 30
0.0
 11
-266.1630125199639
 21
97.13430851688007
 31
0.0
  0
LINE
  5
61
  8
0
 62
     0
 10
-266.1191503427336
 20
96.74441853762102
 30
0.0
 11
-266.0460467140166
 21
97.23178101169484
 31
0.0
  0
LINE
  5
62
  8
0
 62
     0
 10
-265.8705980050957
 20
96.61445521120135
 30
0.0
 11
-265.812115102122
 21
97.1992901800899
 31
0.0
  0
LINE
  5
63
  8
0
 62
     0
 10
-265.665907844688
 20
96.6307006270038
 30
0.0
 11
-265.6366663932012
 21
97.15055393268253
 31
0.0
  0
LINE
  5
64
  8
0
 62
     0
 10
-265.5050798615105
 20
96.59820979539887
 30
0.0
 11
-265.4904591357671
 21
97.18304476428744
 31
0.0
  0
LINE
  5
65
  8
0
 62
     0
 10
-264.566591279221
 20
96.7015395137878
 30
0.0
 11
-264.6415243746856
 21
97.22417207873335
 31
0.0
  0
LINE
  5
66
  8
0
 62
     0
 10
-265.1660560429384
 20
96.65096216879306
 30
0.0
 11
-265.1941559537376
 21
97.19045384873687
 31
0.0
  0
LINE
  5
67
  8
0
 62
     0
 10
-264.9412567565443
 20
96.6256734962957
 30
0.0
 11
-264.9880899412098
 21
97.19045384873687
 31
0.0
  0
LINE
  5
68
  8
0
 62
     0
 10
-264.7351907440164
 20
96.70996907128692
 30
0.0
 11
-264.8101238394812
 21
97.2073129637351
 31
0.0
  0
LINE
  5
69
  8
0
 62
     0
 10
-264.1450926172322
 20
96.73525774378429
 30
0.0
 11
-264.3043254450946
 21
97.32532676872282
 31
0.0
  0
LINE
  5
6A
  8
0
 62
     0
 10
-264.023326337102
 20
96.85327154877199
 30
0.0
 11
-264.1731925280314
 21
97.35061544122017
 31
0.0
  0
LINE
  5
6B
  8
0
 62
     0
 10
-264.3417919928269
 20
96.70996907128692
 30
0.0
 11
-264.4448249990909
 21
97.24946075123071
 31
0.0
  0
LINE
  5
6C
  8
0
 62
     0
 10
-263.7797937768419
 20
96.87856022126935
 30
0.0
 11
-263.9764931524367
 21
97.38433367121667
 31
0.0
  0
LINE
  5
6D
  8
0
 62
     0
 10
-263.0772960068606
 20
97.22417207873335
 30
0.0
 11
-263.3395618409869
 21
97.69622729868416
 31
0.0
  0
LINE
  5
6E
  8
0
 62
     0
 10
-263.3582951148531
 20
97.05558092875091
 30
0.0
 11
-263.573727764314
 21
97.5529248211991
 31
0.0
  0
LINE
  5
6F
  8
0
 62
     0
 10
-264.4354583621578
 20
96.67625084129044
 30
0.0
 11
-264.5478580053548
 21
97.24946075123071
 31
0.0
  0
LINE
  5
70
  8
0
 62
     0
 10
-263.1990622869907
 20
97.14830606124126
 30
0.0
 11
-263.461328121117
 21
97.67093862618681
 31
0.0
  0
LINE
  5
71
  8
0
 62
     0
 10
-262.9648963636636
 20
97.29160853872632
 30
0.0
 11
-263.1803290131245
 21
97.77209331617627
 31
0.0
  0
LINE
  5
72
  8
0
 62
     0
 10
-262.3092317783477
 20
97.68779774118505
 30
0.0
 11
-262.6651639818049
 21
98.10084605864202
 31
0.0
  0
LINE
  5
73
  8
0
 62
     0
 10
-262.5152977908755
 20
97.61193172369296
 30
0.0
 11
-262.8337634466004
 21
98.03340959864904
 31
0.0
  0
LINE
  5
74
  8
0
 62
     0
 10
-262.5808642494071
 20
97.42648145871227
 30
0.0
 11
-262.8524967204665
 21
97.83110021867012
 31
0.0
  0
LINE
  5
75
  8
0
 62
     0
 10
-262.8056635358012
 20
97.39276322871578
 30
0.0
 11
-263.1053959176598
 21
97.84795933366837
 31
0.0
  0
LINE
  5
76
  8
0
 62
     0
 10
-265.3575170401002
 20
96.59195526629921
 30
0.0
 11
-265.3721220554662
 21
97.18202429123774
 31
0.0
  0
LINE
  5
77
  8
0
 62
     0
 10
-263.5268945796486
 20
96.9375671237632
 30
0.0
 11
-263.7516938660426
 21
97.49391791870525
 31
0.0
  0
LINE
  5
78
  8
0
 62
     0
 10
-262.1406323135521
 20
97.85638889116748
 30
0.0
 11
-262.5152977908755
 21
98.26100765112534
 31
0.0
  0
LINE
  5
79
  8
0
 62
     0
 10
-262.0282326703551
 20
97.96597313865607
 30
0.0
 11
-262.3935315107454
 21
98.35373278361567
 31
0.0
  0
LINE
  5
7A
  8
0
 62
     0
 10
-261.897099753292
 20
98.10927561614113
 30
0.0
 11
-262.2811318675484
 21
98.46331703110425
 31
0.0
  0
LINE
  5
7B
  8
0
 62
     0
 10
-261.7191336515634
 20
98.24414853612708
 30
0.0
 11
-262.121899039686
 21
98.60661950858933
 31
0.0
  0
LINE
  5
7C
  8
0
 62
     0
 10
-261.6254672822325
 20
98.43802835860689
 30
0.0
 11
-262.0563325811544
 21
98.76678110107264
 31
0.0
  0
LINE
  5
7D
  8
0
 62
     0
 10
-261.4475011805039
 20
98.61504906608845
 30
0.0
 11
-261.9158330271582
 21
98.95223136605331
 31
0.0
  0
LINE
  5
7E
  8
0
 62
     0
 10
-261.2039686202438
 20
99.09553384353839
 30
0.0
 11
-261.6535671930318
 21
99.34842056851205
 31
0.0
  0
LINE
  5
7F
  8
0
 62
     0
 10
-261.1968123113912
 20
98.9933311545085
 30
0.0
 11
-261.6516839538601
 21
99.27112494363328
 31
0.0
  0
LINE
  5
80
  8
0
 62
     0
 10
-261.3105302220084
 20
98.832503171331
 30
0.0
 11
-261.7816472802797
 21
99.12491768619918
 31
0.0
  0
LINE
  5
81
  8
0
 62
     0
 10
-261.1318306481813
 20
99.3003663951201
 30
0.0
 11
-261.5867022906502
 21
99.57816018424487
 31
0.0
  0
LINE
  5
82
  8
0
 62
     0
 10
-261.0018673217617
 20
99.46119437829759
 30
0.0
 11
-261.472984380033
 21
99.72436744167896
 31
0.0
  0
LINE
  5
83
  8
0
 62
     0
 10
-260.9206402427494
 20
99.69512599019214
 30
0.0
 11
-261.4080027168231
 21
99.91443687634329
 31
0.0
  0
LINE
  5
84
  8
0
 62
     0
 10
-260.8069223321321
 20
99.85595397336964
 30
0.0
 11
-261.3592664694158
 21
100.0606441337774
 31
0.0
  0
LINE
  5
85
  8
0
 62
     0
 10
-260.7419406689223
 20
100.0606441337774
 30
0.0
 11
-261.294284806206
 21
100.2214721169549
 31
0.0
  0
LINE
  5
86
  8
0
 62
     0
 10
-260.7256952531198
 20
100.2945757456719
 30
0.0
 11
-261.261793974601
 21
100.4261622773626
 31
0.0
  0
LINE
  5
87
  8
0
 62
     0
 10
-260.6282227583051
 20
100.4992659060797
 30
0.0
 11
-261.0993398165764
 21
100.5869902605401
 31
0.0
  0
LINE
  5
88
  8
0
 62
     0
 10
-260.7094498373174
 20
100.6308524377703
 30
0.0
 11
-261.1968123113912
 21
100.7039560664874
 31
0.0
  0
LINE
  5
89
  8
0
 62
     0
 10
-260.5794865108977
 20
100.8794047754083
 30
0.0
 11
-261.1643214797862
 21
100.9378876783819
 31
0.0
  0
LINE
  5
8A
  8
0
 62
     0
 10
-260.5957319267001
 20
101.084094935816
 30
0.0
 11
-261.1155852323789
 21
101.1133363873028
 31
0.0
  0
LINE
  5
8B
  8
0
 62
     0
 10
-260.5632410950952
 20
101.2449229189935
 30
0.0
 11
-261.1480760639838
 21
101.2595436447369
 31
0.0
  0
LINE
  5
8C
  8
0
 62
     0
 10
-260.6665708134842
 20
102.183411501283
 30
0.0
 11
-261.1892033784297
 21
102.1084784058184
 31
0.0
  0
LINE
  5
8D
  8
0
 62
     0
 10
-260.6159934684894
 20
101.5839467375657
 30
0.0
 11
-261.1554851484332
 21
101.5558468267664
 31
0.0
  0
LINE
  5
8E
  8
0
 62
     0
 10
-260.5907047959921
 20
101.8087460239597
 30
0.0
 11
-261.1554851484332
 21
101.7619128392943
 31
0.0
  0
LINE
  5
8F
  8
0
 62
     0
 10
-260.6750003709832
 20
102.0148120364875
 30
0.0
 11
-261.1723442634315
 21
101.9398789410229
 31
0.0
  0
LINE
  5
90
  8
0
 62
     0
 10
-260.7002890434806
 20
102.6049101632718
 30
0.0
 11
-261.2903580684192
 21
102.4456773354094
 31
0.0
  0
LINE
  5
91
  8
0
 62
     0
 10
-260.8183028484683
 20
102.7266764434019
 30
0.0
 11
-261.3156467409165
 21
102.5768102524726
 31
0.0
  0
LINE
  5
92
  8
0
 62
     0
 10
-260.6750003709832
 20
102.4082107876771
 30
0.0
 11
-261.214492050927
 21
102.3051777814131
 31
0.0
  0
LINE
  5
93
  8
0
 62
     0
 10
-260.8435915209657
 20
102.9702090036621
 30
0.0
 11
-261.349364970913
 21
102.7735096280673
 31
0.0
  0
LINE
  5
94
  8
0
 62
     0
 10
-260.6412821409868
 20
102.3145444183462
 30
0.0
 11
-261.214492050927
 21
102.2021447751492
 31
0.0
  0
LINE
  5
95
  8
0
 62
     0
 10
-260.5569865659955
 20
101.3924857404038
 30
0.0
 11
-261.1470555909341
 21
101.3778807250378
 31
0.0
  0
LINE
  5
96
  8
0
 62
     0
 10
-260.9025984234596
 20
103.2231082008554
 30
0.0
 11
-261.4589492184016
 21
102.9983089144614
 31
0.0
  0
LINE
  5
97
  8
0
 62
     0
 10
-265.3575170401002
 20
106.1930162145084
 30
0.0
 11
-265.3429120247341
 21
105.6029471895699
 31
0.0
  0
LINE
  5
98
  8
0
 62
     0
 10
-266.2795757180426
 20
106.1087206395172
 30
0.0
 11
-266.1671760748455
 21
105.5355107295769
 31
0.0
  0
LINE
  5
99
  8
0
 62
     0
 10
-266.3732420873734
 20
106.0750024095207
 30
0.0
 11
-266.2702090811094
 21
105.5355107295769
 31
0.0
  0
LINE
  5
9A
  8
0
 62
     0
 10
-266.6917077430983
 20
105.9316999320357
 30
0.0
 11
-266.5418415521689
 21
105.4343560395875
 31
0.0
  0
LINE
  5
9B
  8
0
 62
     0
 10
-266.5699414629681
 20
106.0497137370234
 30
0.0
 11
-266.4107086351057
 21
105.4596447120848
 31
0.0
  0
LINE
  5
9C
  8
0
 62
     0
 10
-265.9798433361839
 20
106.0750024095207
 30
0.0
 11
-265.9049102407192
 21
105.5776585170725
 31
0.0
  0
LINE
  5
9D
  8
0
 62
     0
 10
-265.773777323656
 20
106.159297984512
 30
0.0
 11
-265.7269441389906
 21
105.5945176320708
 31
0.0
  0
LINE
  5
9E
  8
0
 62
     0
 10
-265.548978037262
 20
106.1340093120146
 30
0.0
 11
-265.5208781264627
 21
105.5945176320708
 31
0.0
  0
LINE
  5
9F
  8
0
 62
     0
 10
-266.1484428009794
 20
106.0834319670199
 30
0.0
 11
-266.0735097055147
 21
105.5607994020743
 31
0.0
  0
LINE
  5
A0
  8
0
 62
     0
 10
-261.1892033784297
 20
103.6727067736434
 30
0.0
 11
-261.6612585983805
 21
103.4104409395171
 31
0.0
  0
LINE
  5
A1
  8
0
 62
     0
 10
-261.1133373609376
 20
103.5509404935133
 30
0.0
 11
-261.6359699258832
 21
103.288674659387
 31
0.0
  0
LINE
  5
A2
  8
0
 62
     0
 10
-261.2566398384226
 20
103.7851064168404
 30
0.0
 11
-261.7371246158726
 21
103.5696737673795
 31
0.0
  0
LINE
  5
A3
  8
0
 62
     0
 10
-261.6528290408814
 20
104.4407710021563
 30
0.0
 11
-262.0658773583384
 21
104.0848387986991
 31
0.0
  0
LINE
  5
A4
  8
0
 62
     0
 10
-261.5769630233893
 20
104.2347049896285
 30
0.0
 11
-261.9984408983454
 21
103.9162393339036
 31
0.0
  0
LINE
  5
A5
  8
0
 62
     0
 10
-261.3915127584086
 20
104.1691385310969
 30
0.0
 11
-261.7961315183665
 21
103.8975060600374
 31
0.0
  0
LINE
  5
A6
  8
0
 62
     0
 10
-261.3577945284121
 20
103.9443392447029
 30
0.0
 11
-261.8129906333647
 21
103.6446068628442
 31
0.0
  0
LINE
  5
A7
  8
0
 62
     0
 10
-261.8214201908638
 20
104.6093704669518
 30
0.0
 11
-262.2260389508216
 21
104.2347049896285
 31
0.0
  0
LINE
  5
A8
  8
0
 62
     0
 10
-261.9310044383524
 20
104.7217701101489
 30
0.0
 11
-262.318764083312
 21
104.3564712697586
 31
0.0
  0
LINE
  5
A9
  8
0
 62
     0
 10
-262.0743069158375
 20
104.852903027212
 30
0.0
 11
-262.4283483308006
 21
104.4688709129556
 31
0.0
  0
LINE
  5
AA
  8
0
 62
     0
 10
-262.2091798358234
 20
105.0308691289406
 30
0.0
 11
-262.5716508082857
 21
104.628103740818
 31
0.0
  0
LINE
  5
AB
  8
0
 62
     0
 10
-262.4030596583032
 20
105.1245354982715
 30
0.0
 11
-262.731812400769
 21
104.6936701993496
 31
0.0
  0
LINE
  5
AC
  8
0
 62
     0
 10
-262.5800803657848
 20
105.3025016000001
 30
0.0
 11
-262.9172626657497
 21
104.8341697533459
 31
0.0
  0
LINE
  5
AD
  8
0
 62
     0
 10
-263.0605651432347
 20
105.5460341602602
 30
0.0
 11
-263.3134518682084
 21
105.0964355874722
 31
0.0
  0
LINE
  5
AE
  8
0
 62
     0
 10
-262.9583624542049
 20
105.5531904691128
 30
0.0
 11
-263.2361562433296
 21
105.0983188266439
 31
0.0
  0
LINE
  5
AF
  8
0
 62
     0
 10
-262.7975344710273
 20
105.4394725584956
 30
0.0
 11
-263.0899489858955
 21
104.9683555002243
 31
0.0
  0
LINE
  5
B0
  8
0
 62
     0
 10
-263.2653976948164
 20
105.6181721323227
 30
0.0
 11
-263.5431914839412
 21
105.1633004898538
 31
0.0
  0
LINE
  5
B1
  8
0
 62
     0
 10
-263.426225677994
 20
105.7481354587424
 30
0.0
 11
-263.6893987413753
 21
105.277018400471
 31
0.0
  0
LINE
  5
B2
  8
0
 62
     0
 10
-263.6601572898885
 20
105.8293625377547
 30
0.0
 11
-263.8794681760396
 21
105.3420000636808
 31
0.0
  0
LINE
  5
B3
  8
0
 62
     0
 10
-263.820985273066
 20
105.9430804483719
 30
0.0
 11
-264.0256754334737
 21
105.3907363110882
 31
0.0
  0
LINE
  5
B4
  8
0
 62
     0
 10
-264.0256754334737
 20
106.0080621115817
 30
0.0
 11
-264.1865034166512
 21
105.4557179742981
 31
0.0
  0
LINE
  5
B5
  8
0
 62
     0
 10
-264.2596070453682
 20
106.0243075273842
 30
0.0
 11
-264.391193577059
 21
105.488208805903
 31
0.0
  0
LINE
  5
B6
  8
0
 62
     0
 10
-264.464297205776
 20
106.1217800221989
 30
0.0
 11
-264.5520215602364
 21
105.6506629639276
 31
0.0
  0
LINE
  5
B7
  8
0
 62
     0
 10
-264.5958837374667
 20
106.0405529431866
 30
0.0
 11
-264.6689873661837
 21
105.5531904691128
 31
0.0
  0
LINE
  5
B8
  8
0
 62
     0
 10
-264.8444360751046
 20
106.1705162696063
 30
0.0
 11
-264.9029189780783
 21
105.5856813007178
 31
0.0
  0
LINE
  5
B9
  8
0
 62
     0
 10
-265.0491262355123
 20
106.1542708538039
 30
0.0
 11
-265.0783676869992
 21
105.6344175481251
 31
0.0
  0
LINE
  5
BA
  8
0
 62
     0
 10
-265.2099542186899
 20
106.1867616854088
 30
0.0
 11
-265.2245749444332
 21
105.6019267165202
 31
0.0
  0
ENDSEC
  0
EOF
