  0
SECTION
  2
HEADER
  9
$ACADVER
  1
AC1009
  9
$DWGCODEPAGE
  3
ansi_1252
  9
$INSBASE
 10
8.232470937996528
 20
4.052544988057131
 30
0.0
  9
$EXTMIN
 10
8.244373266581338
 20
4.049512063865008
 30
0.0
  9
$EXTMAX
 10
8.99460626387065
 20
5.34771052273261
 30
0.0
  9
$LIMMIN
 10
0.0
 20
0.0
  9
$LIMMAX
 10
410.0
 20
287.0
  9
$ORTHOMODE
 70
     0
  9
$REGENMODE
 70
     1
  9
$FILLMODE
 70
     1
  9
$QTEXTMODE
 70
     0
  9
$MIRRTEXT
 70
     1
  9
$DRAGMODE
 70
     2
  9
$LTSCALE
 40
25.0
  9
$OSMODE
 70
    37
  9
$ATTMODE
 70
     1
  9
$TEXTSIZE
 40
3.5
  9
$TRACEWID
 40
1.0
  9
$TEXTSTYLE
  7
STANDARD
  9
$CLAYER
  8
0
  9
$CELTYPE
  6
BYLAYER
  9
$CECOLOR
 62
   256
  9
$DIMSCALE
 40
1.0
  9
$DIMASZ
 40
3.5
  9
$DIMEXO
 40
0.1
  9
$DIMDLI
 40
7.0
  9
$DIMRND
 40
0.0
  9
$DIMDLE
 40
0.0
  9
$DIMEXE
 40
1.8
  9
$DIMTP
 40
0.0
  9
$DIMTM
 40
0.0
  9
$DIMTXT
 40
3.5
  9
$DIMCEN
 40
1.5
  9
$DIMTSZ
 40
0.0
  9
$DIMTOL
 70
     0
  9
$DIMLIM
 70
     0
  9
$DIMTIH
 70
     0
  9
$DIMTOH
 70
     0
  9
$DIMSE1
 70
     0
  9
$DIMSE2
 70
     0
  9
$DIMTAD
 70
     0
  9
$DIMZIN
 70
     0
  9
$DIMBLK
  1

  9
$DIMASO
 70
     1
  9
$DIMSHO
 70
     0
  9
$DIMPOST
  1

  9
$DIMAPOST
  1

  9
$DIMALT
 70
     0
  9
$DIMALTD
 70
     2
  9
$DIMALTF
 40
25.4
  9
$DIMLFAC
 40
1.0
  9
$DIMTOFL
 70
     0
  9
$DIMTVP
 40
0.0
  9
$DIMTIX
 70
     0
  9
$DIMSOXD
 70
     0
  9
$DIMSAH
 70
     0
  9
$DIMBLK1
  1

  9
$DIMBLK2
  1

  9
$DIMSTYLE
  2
STANDARD
  9
$DIMCLRD
 70
     0
  9
$DIMCLRE
 70
     0
  9
$DIMCLRT
 70
     0
  9
$DIMTFAC
 40
1.0
  9
$DIMGAP
 40
0.09
  9
$LUNITS
 70
     2
  9
$LUPREC
 70
     3
  9
$SKETCHINC
 40
1.0
  9
$FILLETRAD
 40
0.0
  9
$AUNITS
 70
     0
  9
$AUPREC
 70
     0
  9
$MENU
  1
EICAD12
  9
$ELEVATION
 40
0.0
  9
$PELEVATION
 40
0.0
  9
$THICKNESS
 40
0.0
  9
$LIMCHECK
 70
     0
  9
$CHAMFERA
 40
0.0
  9
$CHAMFERB
 40
0.0
  9
$SKPOLY
 70
     0
  9
$TDCREATE
 40
2449027.427801505
  9
$TDUPDATE
 40
2457483.532372685
  9
$TDINDWG
 40
0.0001429977
  9
$TDUSRTIMER
 40
0.0001429977
  9
$USRTIMER
 70
     1
  9
$ANGBASE
 50
0.0
  9
$ANGDIR
 70
     0
  9
$PDMODE
 70
     0
  9
$PDSIZE
 40
0.0
  9
$PLINEWID
 40
0.0
  9
$COORDS
 70
     1
  9
$SPLFRAME
 70
     0
  9
$SPLINETYPE
 70
     6
  9
$SPLINESEGS
 70
     8
  9
$ATTDIA
 70
     0
  9
$ATTREQ
 70
     1
  9
$HANDLING
 70
     1
  9
$HANDSEED
  5
175
  9
$SURFTAB1
 70
     6
  9
$SURFTAB2
 70
     6
  9
$SURFTYPE
 70
     6
  9
$SURFU
 70
     6
  9
$SURFV
 70
     6
  9
$UCSNAME
  2

  9
$UCSORG
 10
0.0
 20
0.0
 30
0.0
  9
$UCSXDIR
 10
1.0
 20
0.0
 30
0.0
  9
$UCSYDIR
 10
0.0
 20
1.0
 30
0.0
  9
$PUCSNAME
  2

  9
$PUCSORG
 10
0.0
 20
0.0
 30
0.0
  9
$PUCSXDIR
 10
1.0
 20
0.0
 30
0.0
  9
$PUCSYDIR
 10
0.0
 20
1.0
 30
0.0
  9
$USERI1
 70
     0
  9
$USERI2
 70
     0
  9
$USERI3
 70
     0
  9
$USERI4
 70
     0
  9
$USERI5
 70
     0
  9
$USERR1
 40
0.0
  9
$USERR2
 40
0.0
  9
$USERR3
 40
0.0
  9
$USERR4
 40
0.0
  9
$USERR5
 40
0.0
  9
$WORLDVIEW
 70
     1
  9
$SHADEDGE
 70
     3
  9
$SHADEDIF
 70
    70
  9
$TILEMODE
 70
     1
  9
$MAXACTVP
 70
    16
  9
$PLIMCHECK
 70
     0
  9
$PEXTMIN
 10
1.000000000000000E+20
 20
1.000000000000000E+20
 30
1.000000000000000E+20
  9
$PEXTMAX
 10
-1.000000000000000E+20
 20
-1.000000000000000E+20
 30
-1.000000000000000E+20
  9
$PLIMMIN
 10
0.0
 20
0.0
  9
$PLIMMAX
 10
12.0
 20
9.0
  9
$UNITMODE
 70
     0
  9
$VISRETAIN
 70
     0
  9
$PLINEGEN
 70
     0
  9
$PSLTSCALE
 70
     0
  0
ENDSEC
  0
SECTION
  2
TABLES
  0
TABLE
  2
VPORT
 70
     1
  0
VPORT
  2
*ACTIVE
 70
     0
 10
0.0
 20
0.0
 11
1.0
 21
1.0
 12
8.605271111714274
 22
4.844758638746598
 13
0.0
 23
0.0
 14
1.0
 24
1.0
 15
10.0
 25
10.0
 16
0.0
 26
0.0
 36
1.0
 17
0.0
 27
0.0
 37
0.0
 40
1.619871256361898
 41
1.503537735849056
 42
50.0
 43
0.0
 44
0.0
 50
0.0
 51
0.0
 71
     0
 72
   100
 73
     1
 74
     0
 75
     0
 76
     0
 77
     0
 78
     0
  0
ENDTAB
  0
TABLE
  2
LTYPE
 70
     1
  0
LTYPE
  2
CONTINUOUS
 70
     0
  3
Ausgezogene Linie
 72
    65
 73
     0
 40
0.0
  0
ENDTAB
  0
TABLE
  2
LAYER
 70
     1
  0
LAYER
  2
0
 70
     0
 62
     7
  6
CONTINUOUS
  0
ENDTAB
  0
TABLE
  2
STYLE
 70
     1
  0
STYLE
  2
STANDARD
 70
     0
 40
0.0
 41
1.0
 50
0.0
 71
     0
 42
3.5
  3
txt.shx
  4

  0
ENDTAB
  0
TABLE
  2
VIEW
 70
     0
  0
ENDTAB
  0
TABLE
  2
UCS
 70
     0
  0
ENDTAB
  0
TABLE
  2
APPID
 70
     2
  0
APPID
  2
ACAD
 70
     0
  0
APPID
  2
DCO15
 70
     0
  0
ENDTAB
  0
TABLE
  2
DIMSTYLE
 70
     1
  0
DIMSTYLE
  2
STANDARD
 70
     0
  3

  4

  5

  6

  7

 40
1.0
 41
0.18
 42
0.0625
 43
0.38
 44
0.18
 45
0.0
 46
0.0
 47
0.0
 48
0.0
140
0.18
141
0.09
142
0.0
143
25.4
144
1.0
145
0.0
146
1.0
147
0.09
 71
     0
 72
     0
 73
     1
 74
     1
 75
     0
 76
     0
 77
     0
 78
     0
170
     0
171
     2
172
     0
173
     0
174
     0
175
     0
176
     0
177
     0
178
     0
  0
ENDTAB
  0
ENDSEC
  0
SECTION
  2
BLOCKS
  0
BLOCK
  8
0
  2
$MODEL_SPACE
 70
     0
 10
0.0
 20
0.0
 30
0.0
  3
$MODEL_SPACE
  1

  0
ENDBLK
  5
E6
  8
0
  0
BLOCK
 67
     1
  8
0
  2
$PAPER_SPACE
 70
     0
 10
0.0
 20
0.0
 30
0.0
  3
$PAPER_SPACE
  1

  0
ENDBLK
  5
E4
 67
     1
  8
0
  0
ENDSEC
  0
SECTION
  2
ENTITIES
  0
LINE
  5
21
  8
0
 10
8.758686890691123
 20
4.827603606404816
 30
0.0
 11
8.818296531007215
 21
4.693700105724367
 31
0.0
  0
ARC
  5
22
  8
0
 10
8.774834219372307
 20
4.868646606981766
 30
0.0
 40
0.0441051484511467
 50
248.524100104063
 51
353.642666333461
  0
LINE
  5
23
  8
0
 10
8.900585613914814
 20
4.782390874817403
 30
0.0
 11
8.805670132539369
 21
4.995820046687168
 31
0.0
  0
LINE
  5
24
  8
0
 10
8.817338351378131
 20
4.856871086512212
 30
0.0
 11
8.800934652991353
 21
4.882390265674163
 31
0.0
  0
ARC
  5
25
  8
0
 10
8.769531588719909
 20
4.8815818506741
 30
0.0
 40
0.0440256705841712
 50
261.0944234678965
 51
338.1953540602142
  0
LINE
  5
26
  8
0
 10
8.748984790025853
 20
4.471835204352986
 30
0.0
 11
8.834249305931992
 21
4.471686400660305
 31
0.0
  0
ARC
  5
27
  8
0
 10
8.627559983713459
 20
5.121186771288657
 30
0.0
 40
0.633034660603117
 50
266.2465911968202
 51
289.8516956671706
  0
ARC
  5
28
  8
0
 10
8.790208735764136
 20
4.0205436129467
 30
0.0
 40
0.6735817642641205
 50
82.88750881020589
 51
95.0292164082015
  0
LINE
  5
29
  8
0
 10
8.693600843495647
 20
4.913535088790513
 30
0.0
 11
8.678711878450931
 21
4.89694435704278
 31
0.0
  0
LINE
  5
2A
  8
0
 10
8.696153237503314
 20
4.900772987446103
 30
0.0
 11
8.688921454481594
 21
4.894391936773898
 31
0.0
  0
LINE
  5
2B
  8
0
 10
8.709059412913616
 20
4.899948192327739
 30
0.0
 11
8.696153237503314
 21
4.900772987446103
 31
0.0
  0
LINE
  5
2C
  8
0
 10
8.68594366147265
 20
4.831432236808139
 30
0.0
 11
8.724229571587637
 21
4.896093550286485
 31
0.0
  0
LINE
  5
2D
  8
0
 10
8.693600843495648
 20
4.824625782757787
 30
0.0
 11
8.729759758604246
 21
4.876099591513576
 31
0.0
  0
LINE
  5
2E
  8
0
 10
8.705937414532698
 20
4.815266908438552
 30
0.0
 11
8.735289945620856
 21
4.857807246253254
 31
0.0
  0
LINE
  5
2F
  8
0
 10
8.67951330950901
 20
4.836003681297172
 30
0.0
 11
8.704515603959601
 21
4.813340055786331
 31
0.0
  0
LINE
  5
30
  8
0
 10
8.668927701421545
 20
4.723379778758797
 30
0.0
 11
8.68041347445604
 21
4.814416101682259
 31
0.0
  0
LINE
  5
31
  8
0
 10
8.643403761344887
 20
4.817393925329288
 30
0.0
 11
8.668927701421545
 21
4.723379778758797
 31
0.0
  0
LINE
  5
32
  8
0
 10
8.785912426772892
 20
4.748903981447618
 30
0.0
 11
8.791442613789501
 21
4.694877752422947
 31
0.0
  0
LINE
  5
33
  8
0
 10
8.731035955608078
 20
4.922468559731601
 30
0.0
 11
8.693600843495647
 21
4.913535088790513
 31
0.0
  0
LINE
  5
34
  8
0
 10
8.67951330950901
 20
4.836003681297172
 30
0.0
 11
8.709059412913616
 21
4.899948192327739
 31
0.0
  0
LINE
  5
35
  8
0
 10
8.534259052223833
 20
4.177271025884926
 30
0.0
 11
8.574922409212228
 21
4.077374580235732
 31
0.0
  0
LINE
  5
36
  8
0
 10
8.574922409212228
 20
4.077374580235732
 30
0.0
 11
8.561278209778731
 21
4.059248304842074
 31
0.0
  0
LINE
  5
37
  8
0
 10
8.561278209778731
 20
4.059248304842074
 30
0.0
 11
8.502278727550486
 21
4.052544988057131
 31
0.0
  0
LINE
  5
38
  8
0
 10
8.502278727550486
 20
4.052544988057131
 30
0.0
 11
8.466022217332108
 21
4.077564632926623
 31
0.0
  0
LINE
  5
39
  8
0
 10
8.466022217332108
 20
4.077564632926623
 30
0.0
 11
8.461658924303752
 21
4.177397727678853
 31
0.0
  0
LINE
  5
3A
  8
0
 10
8.461658924303752
 20
4.177397727678853
 30
0.0
 11
8.470761656311183
 21
4.19326316793713
 31
0.0
  0
LINE
  5
3B
  8
0
 10
8.470761656311183
 20
4.19326316793713
 30
0.0
 11
8.534263011654893
 21
4.179539779882429
 31
0.0
  0
LINE
  5
3C
  8
0
 10
8.534263011654893
 20
4.179539779882429
 30
0.0
 11
8.559484587508454
 21
4.331502743973435
 31
0.0
  0
ARC
  5
3D
  8
0
 10
8.53205661869659
 20
4.215276614774151
 30
0.0
 40
0.1216287302858381
 50
76.96547011439363
 51
127.8921602381358
  0
LINE
  5
3E
  8
0
 10
8.468710671021993
 20
4.318048597230828
 30
0.0
 11
8.470761656311183
 21
4.19326316793713
 31
0.0
  0
LINE
  5
3F
  8
0
 10
8.459627736169862
 20
4.313526926960065
 30
0.0
 11
8.425980491020166
 21
4.533655456183712
 31
0.0
  0
LINE
  5
40
  8
0
 10
8.548754529335275
 20
4.683179410741626
 30
0.0
 11
8.584987282967292
 21
4.644547241887119
 31
0.0
  0
LINE
  5
41
  8
0
 10
8.584987282967292
 20
4.644547241887119
 30
0.0
 11
8.587018471101182
 21
4.508418042605909
 31
0.0
  0
LINE
  5
42
  8
0
 10
8.587018471101182
 20
4.508418042605909
 30
0.0
 11
8.559484587508454
 21
4.331502743973435
 31
0.0
  0
LINE
  5
43
  8
0
 10
8.805670132539369
 20
4.995820046687168
 30
0.0
 11
8.703706863876743
 21
5.070867103002461
 31
0.0
  0
LINE
  5
44
  8
0
 10
8.703706863876743
 20
5.070867103002461
 30
0.0
 11
8.69461205073143
 21
5.059539170739189
 31
0.0
  0
LINE
  5
45
  8
0
 10
8.69461205073143
 20
5.059539170739189
 30
0.0
 11
8.703599959238117
 21
5.009610745069893
 31
0.0
  0
LINE
  5
46
  8
0
 10
8.703599959238117
 20
5.009610745069893
 30
0.0
 11
8.685430130102796
 21
4.998298650530862
 31
0.0
  0
LINE
  5
47
  8
0
 10
8.685430130102796
 20
4.998298650530862
 30
0.0
 11
8.703556405496455
 21
4.984654451097366
 31
0.0
  0
LINE
  5
48
  8
0
 10
8.703556405496455
 20
4.984654451097366
 30
0.0
 11
8.692113649732436
 21
4.927955398315103
 31
0.0
  0
LINE
  5
49
  8
0
 10
8.731454163764315
 20
4.923065542176762
 30
0.0
 11
8.755615005076146
 21
4.914232010260402
 31
0.0
  0
LINE
  5
4A
  8
0
 10
8.755615005076146
 20
4.914232010260402
 30
0.0
 11
8.796381307272107
 21
4.873323168546274
 31
0.0
  0
LINE
  5
4B
  8
0
 10
8.531380545843056
 20
5.1278868697006
 30
0.0
 11
8.47460230443959
 21
5.093954545514568
 31
0.0
  0
LINE
  5
4C
  8
0
 10
8.47460230443959
 20
5.093954545514568
 30
0.0
 11
8.41073801623281
 21
5.086949751403106
 31
0.0
  0
LINE
  5
4D
  8
0
 10
8.41073801623281
 20
5.086949751403106
 30
0.0
 11
8.349458123720433
 21
5.036168401827478
 31
0.0
  0
LINE
  5
4E
  8
0
 10
8.349458123720433
 20
5.036168401827478
 30
0.0
 11
8.331480749906042
 21
4.98530379779124
 31
0.0
  0
LINE
  5
4F
  8
0
 10
8.331480749906042
 20
4.98530379779124
 30
0.0
 11
8.27885595168474
 21
4.731294416985344
 31
0.0
  0
LINE
  5
50
  8
0
 10
8.27885595168474
 20
4.731294416985344
 30
0.0
 11
8.351325418379835
 21
4.656298833273834
 31
0.0
  0
LINE
  5
51
  8
0
 10
8.351325418379835
 20
4.656298833273834
 30
0.0
 11
8.480664193392778
 21
4.667416915690914
 31
0.0
  0
LINE
  5
52
  8
0
 10
8.504123822424544
 20
5.109784350893302
 30
0.0
 11
8.481337296673015
 21
5.053105095266342
 31
0.0
  0
LINE
  5
53
  8
0
 10
8.481337296673015
 20
5.053105095266342
 30
0.0
 11
8.503989201768498
 21
5.032646714978217
 31
0.0
  0
LINE
  5
54
  8
0
 10
8.503989201768498
 20
5.032646714978217
 30
0.0
 11
8.485827291495298
 21
5.025872128434191
 31
0.0
  0
LINE
  5
55
  8
0
 10
8.485827291495298
 20
5.025872128434191
 30
0.0
 11
8.517122634595227
 21
4.758103724694052
 31
0.0
  0
LINE
  5
56
  8
0
 10
8.517122634595227
 20
4.758103724694052
 30
0.0
 11
8.542276900120765
 21
4.871497870827515
 31
0.0
  0
ARC
  5
57
  8
0
 10
7.89255853847503
 20
4.970309802901203
 30
0.0
 40
0.6596299946109928
 50
341.233949918824
 51
13.61765607906179
  0
LINE
  5
58
  8
0
 10
8.531380545843056
 20
5.1278868697006
 30
0.0
 11
8.623944125168736
 21
4.866817823314342
 31
0.0
  0
LINE
  5
59
  8
0
 10
8.567482638250086
 20
5.014385818928511
 30
0.0
 11
8.61293294739028
 21
5.057412956259855
 31
0.0
  0
LINE
  5
5A
  8
0
 10
8.61293294739028
 20
5.057412956259855
 30
0.0
 11
8.531380545843056
 21
5.1278868697006
 31
0.0
  0
LINE
  5
5B
  8
0
 10
8.597019993959282
 20
5.039290640297256
 30
0.0
 11
8.612830002182715
 21
4.998425352324789
 31
0.0
  0
LINE
  5
5C
  8
0
 10
8.612830002182715
 20
4.998425352324789
 30
0.0
 11
8.60588911953416
 21
4.921299594702885
 31
0.0
  0
ARC
  5
5D
  8
0
 10
8.537321655082396
 20
4.693780394875545
 30
0.0
 40
0.0594848505398237
 50
117.0211063946552
 51
203.8988388832194
  0
ARC
  5
5E
  8
0
 10
8.628300198058103
 20
4.686377000684312
 30
0.0
 40
0.0902213094919659
 50
143.623388108797
 51
190.7279154545849
  0
LINE
  5
5F
  8
0
 10
8.53738304333034
 20
4.667317929914409
 30
0.0
 11
8.4829408662524
 21
4.671950464254859
 31
0.0
  0
LINE
  5
60
  8
0
 10
8.551126228540344
 20
4.742163055245631
 30
0.0
 11
8.512565329444922
 21
4.746767873568659
 31
0.0
  0
LINE
  5
61
  8
0
 10
8.512565329444922
 20
4.746767873568659
 30
0.0
 11
8.40826599645677
 21
4.78325007135747
 31
0.0
  0
LINE
  5
62
  8
0
 10
8.40826599645677
 20
4.78325007135747
 30
0.0
 11
8.378791991644537
 21
4.794645313948765
 31
0.0
  0
LINE
  5
63
  8
0
 10
8.378791991644537
 20
4.794645313948765
 30
0.0
 11
8.351559024812387
 21
4.790155319126482
 31
0.0
  0
LINE
  5
64
  8
0
 10
8.405997242459266
 20
4.783254030788529
 30
0.0
 11
8.424238341353671
 21
4.835403697282606
 31
0.0
  0
LINE
  5
65
  8
0
 10
8.424238341353671
 20
4.835403697282606
 30
0.0
 11
8.422032938253132
 21
4.871707720673706
 31
0.0
  0
ARC
  5
66
  8
0
 10
8.28375888102245
 20
4.963168556280499
 30
0.0
 40
0.1638957067996978
 50
326.0811089888939
 51
22.42386771753246
  0
ARC
  5
67
  8
0
 10
8.661925008016194
 20
5.126802470418395
 30
0.0
 40
0.067662831155892
 50
226.3695188091984
 51
318.7564976571625
  0
LINE
  5
68
  8
0
 10
8.610664193392779
 20
5.057416915690915
 30
0.0
 11
8.64014611706713
 21
5.050559181094624
 31
0.0
  0
LINE
  5
69
  8
0
 10
8.64014611706713
 20
5.050559181094624
 30
0.0
 11
8.653770519345326
 21
5.057341686500771
 31
0.0
  0
LINE
  5
6A
  8
0
 10
8.637881322500688
 20
5.052831894523187
 30
0.0
 11
8.655940287566324
 21
5.000618877132148
 31
0.0
  0
LINE
  5
6B
  8
0
 10
8.662853454197457
 20
5.061863356771535
 30
0.0
 11
8.65348148087793
 21
4.891722644683087
 31
0.0
  0
LINE
  5
6C
  8
0
 10
8.642379236185091
 20
5.030136435686042
 30
0.0
 11
8.628703361303112
 21
4.993860128312362
 31
0.0
  0
LINE
  5
6D
  8
0
 10
8.628703361303112
 20
4.993860128312362
 30
0.0
 11
8.648955851176106
 21
4.898536825537715
 31
0.0
  0
LINE
  5
6E
  8
0
 10
8.704515603959601
 20
4.813340055786331
 30
0.0
 11
8.720396881942118
 21
4.81331233976891
 31
0.0
  0
LINE
  5
6F
  8
0
 10
8.720396881942118
 20
4.81331233976891
 30
0.0
 11
8.753239346440017
 21
4.852979611758895
 31
0.0
  0
LINE
  5
70
  8
0
 10
8.753239346440017
 20
4.852979611758895
 30
0.0
 11
8.766477552721735
 21
4.825340369066324
 31
0.0
  0
ARC
  5
71
  8
0
 10
8.760232668167653
 20
4.893617528623314
 30
0.0
 40
0.0394664611029328
 50
256.433023199586
 51
346.8859519042665
  0
ARC
  5
72
  8
0
 10
8.67105091129583
 20
4.843461719683999
 30
0.0
 40
0.0527974597409065
 50
53.38547328521196
 51
216.091727317145
  0
LINE
  5
73
  8
0
 10
8.553391023106785
 20
4.739890341817068
 30
0.0
 11
8.687207914648832
 21
4.71696919540949
 31
0.0
  0
LINE
  5
74
  8
0
 10
8.687207914648832
 20
4.71696919540949
 30
0.0
 11
8.752922591955201
 21
4.671479291958694
 31
0.0
  0
LINE
  5
75
  8
0
 10
8.752922591955201
 20
4.671479291958694
 30
0.0
 11
8.737017557386322
 21
4.6578944839911
 31
0.0
  0
LINE
  5
76
  8
0
 10
8.737017557386322
 20
4.6578944839911
 30
0.0
 11
8.700804600909606
 21
4.707870422833119
 31
0.0
  0
LINE
  5
77
  8
0
 10
8.737021516817382
 20
4.660163237988603
 30
0.0
 11
8.746049019634668
 21
4.632922352294332
 31
0.0
  0
LINE
  5
78
  8
0
 10
8.746049019634668
 20
4.632922352294332
 30
0.0
 11
8.73921504162474
 21
4.617052952604995
 31
0.0
  0
LINE
  5
79
  8
0
 10
8.739219001055801
 20
4.619321706602498
 30
0.0
 11
8.730108350186248
 21
4.598918758349216
 31
0.0
  0
LINE
  5
7A
  8
0
 10
8.730108350186248
 20
4.598918758349216
 30
0.0
 11
8.673500364318372
 21
4.662542856055792
 31
0.0
  0
LINE
  5
7B
  8
0
 10
8.723306047624801
 20
4.601199390639898
 30
0.0
 11
8.707412891349103
 21
4.594420844664812
 31
0.0
  0
LINE
  5
7C
  8
0
 10
8.707412891349103
 20
4.594420844664812
 30
0.0
 11
8.659856164884875
 21
4.644416580662132
 31
0.0
  0
LINE
  5
7D
  8
0
 10
8.689290575386504
 20
4.610333798095812
 30
0.0
 11
8.662065527416473
 21
4.610381311268535
 31
0.0
  0
LINE
  5
7E
  8
0
 10
8.662065527416473
 20
4.610381311268535
 30
0.0
 11
8.634911749205529
 21
4.651266396396302
 31
0.0
  0
LINE
  5
7F
  8
0
 10
8.634911749205529
 20
4.651266396396302
 30
0.0
 11
8.578228534147506
 21
4.671784168150331
 31
0.0
  0
LINE
  5
80
  8
0
 10
8.578228534147506
 20
4.671784168150331
 30
0.0
 11
8.539667635052083
 21
4.676388986473359
 31
0.0
  0
LINE
  5
81
  8
0
 10
8.694265882855497
 20
4.822631036706224
 30
0.0
 11
8.709562423188244
 21
4.701494654913659
 31
0.0
  0
LINE
  5
82
  8
0
 10
8.790426322957545
 20
4.061117156302494
 30
0.0
 11
8.80403092808044
 21
4.056555891721128
 31
0.0
  0
LINE
  5
83
  8
0
 10
8.80403092808044
 20
4.056555891721128
 30
0.0
 11
8.731674651195341
 21
4.602426428536027
 31
0.0
  0
ARC
  5
84
  8
0
 10
8.667374549501334
 20
4.840074728269602
 30
0.0
 40
0.0428307142314504
 50
47.91412861194676
 51
216.4623993801666
  0
LINE
  5
85
  8
0
 10
8.392170909197
 20
4.660765071509755
 30
0.0
 11
8.35125018918969
 21
4.613192507321287
 31
0.0
  0
LINE
  5
86
  8
0
 10
8.35125018918969
 20
4.613192507321287
 30
0.0
 11
8.332898226225598
 21
4.49751772889714
 31
0.0
  0
LINE
  5
87
  8
0
 10
8.332898226225598
 20
4.49751772889714
 30
0.0
 11
8.301103994812081
 21
4.479423128951963
 31
0.0
  0
LINE
  5
88
  8
0
 10
8.301103994812081
 20
4.479423128951963
 30
0.0
 11
8.260262463425976
 21
4.477225644713545
 31
0.0
  0
LINE
  5
89
  8
0
 10
8.260262463425976
 20
4.477225644713545
 30
0.0
 11
8.255879373242319
 21
4.565714969478263
 31
0.0
  0
LINE
  5
8A
  8
0
 10
8.255879373242319
 20
4.565714969478263
 30
0.0
 11
8.312792235301833
 21
4.67678492957938
 31
0.0
  0
LINE
  5
8B
  8
0
 10
8.244373266581338
 20
4.472715852735961
 30
0.0
 11
8.435346219051524
 21
4.472382566605996
 31
0.0
  0
LINE
  5
8C
  8
0
 10
8.581370494979597
 20
4.472127724937709
 30
0.0
 11
8.738560455927573
 21
4.471853396908132
 31
0.0
  0
LINE
  5
8D
  8
0
 10
8.73921504162474
 20
4.617052952604995
 30
0.0
 11
8.703006044579086
 21
4.669297645444516
 31
0.0
  0
LINE
  5
8E
  8
0
 10
8.721259322782641
 20
4.608864552666104
 30
0.0
 11
8.790426322957545
 21
4.061117156302494
 31
0.0
  0
LINE
  5
8F
  8
0
 10
8.719450226543335
 20
4.6946499858321
 30
0.0
 11
8.703263407598
 21
4.81676665528218
 31
0.0
  0
ARC
  5
90
  8
0
 10
8.608612158615836
 20
5.518347976455154
 30
0.0
 40
0.1846850979238983
 50
253.6779631924113
 51
292.481711981544
  0
ARC
  5
91
  8
0
 10
8.59344158199571
 20
5.238860585169794
 30
0.0
 40
0.1344881474241545
 50
7.693636364226579
 51
54.0338916341467
  0
ARC
  5
92
  8
0
 10
8.615104299383702
 20
5.261597648490232
 30
0.0
 40
0.1000118105899744
 50
127.341804063619
 51
204.3501426669918
  0
LINE
  5
93
  8
0
 10
8.785635411374686
 20
5.215924819324454
 30
0.0
 11
8.726719077198705
 21
5.256865336487065
 31
0.0
  0
LINE
  5
94
  8
0
 10
8.785635411374686
 20
5.215924819324454
 30
0.0
 11
8.654051638950602
 21
5.218423220323449
 31
0.0
  0
LINE
  5
95
  8
0
 10
8.654051638950602
 20
5.218423220323449
 30
0.0
 11
8.48163029457147
 21
5.220992891081528
 31
0.0
  0
ARC
  5
96
  8
0
 10
8.657322158444487
 20
4.937040555747489
 30
0.0
 40
0.3605007585206309
 50
81.08800945256858
 51
113.1241194844242
  0
ARC
  5
97
  8
0
 10
8.693338977782796
 20
4.97908430636561
 30
0.0
 40
0.2797794340768331
 50
83.1477969790501
 51
120.5772255779253
  0
ARC
  5
98
  8
0
 10
8.12841852129774
 20
5.243937944433596
 30
0.0
 40
0.6079460320195723
 50
344.7920654680783
 51
352.8106711080871
  0
LINE
  5
99
  8
0
 10
8.52698161793516
 20
5.207301178475308
 30
0.0
 11
8.526961820779858
 21
5.195957408487796
 31
0.0
  0
LINE
  5
9A
  8
0
 10
8.526961820779858
 20
5.195957408487796
 30
0.0
 11
8.549657279617003
 21
5.200455322172199
 31
0.0
  0
LINE
  5
9B
  8
0
 10
8.524685147920236
 20
5.191423859923852
 30
0.0
 11
8.526910348176076
 21
5.166463606520264
 31
0.0
  0
LINE
  5
9C
  8
0
 10
8.526910348176076
 20
5.166463606520264
 30
0.0
 11
8.560894144965891
 21
5.13917916708433
 31
0.0
  0
LINE
  5
9D
  8
0
 10
8.545016826414434
 20
5.141475637099254
 30
0.0
 11
8.540455561833067
 21
5.127871031976359
 31
0.0
  0
ARC
  5
9E
  8
0
 10
8.673467596613046
 20
5.204111788490253
 30
0.0
 40
0.0357827328555873
 50
227.8243397063359
 51
321.915156684112
  0
ARC
  5
9F
  8
0
 10
8.673145995238482
 20
5.109489373279314
 30
0.0
 40
0.0771460939541614
 50
70.13283879032234
 51
109.6671761439041
  0
ARC
  5
A0
  8
0
 10
8.731135822546374
 20
5.187660420701118
 30
0.0
 40
0.0198110727585282
 50
203.5293851977708
 51
336.2706297364552
  0
LINE
  5
A1
  8
0
 10
8.64717806663007
 20
5.179866280659088
 30
0.0
 11
8.547392485050562
 21
5.202728035600762
 31
0.0
  0
LINE
  5
A2
  8
0
 10
8.717394617051902
 20
5.113949672368648
 30
0.0
 11
8.703805849653248
 21
5.127585952940024
 31
0.0
  0
LINE
  5
A3
  8
0
 10
8.703805849653248
 20
5.127585952940024
 30
0.0
 11
8.662944521111841
 21
5.114044698714093
 31
0.0
  0
ARC
  5
A4
  8
0
 10
8.731779746541187
 20
5.132715826251471
 30
0.0
 40
0.0515455602066758
 50
72.81743177880348
 51
114.1352519054171
  0
LINE
  5
A5
  8
0
 10
8.71069130026696
 20
5.172949154596894
 30
0.0
 11
8.724240473355012
 21
5.136625334050493
 31
0.0
  0
ARC
  5
A6
  8
0
 10
8.311914632990245
 20
4.866775894096345
 30
0.0
 40
0.3815661687378153
 50
272.6730786818871
 51
287.9368217624167
  0
ARC
  5
A7
  8
0
 10
8.12841852129774
 20
5.243937944433596
 30
0.0
 40
0.6079460320195723
 50
354.364230581136
 51
357.3671903621063
  0
LINE
  5
A8
  8
0
 10
8.81866814987127
 20
4.863762893547312
 30
0.0
 11
8.862058848001586
 21
4.814841505060405
 31
0.0
  0
ARC
  5
A9
  8
0
 10
9.522973637484391
 20
4.376042033319059
 30
0.0
 40
0.6934765472696596
 50
165.1878483332588
 51
191.2916018630021
  0
LINE
  5
AA
  8
0
 10
8.840655665387418
 20
4.24253036861937
 30
0.0
 11
8.949635045888742
 21
4.28771539587853
 31
0.0
  0
LINE
  5
AB
  8
0
 10
8.949635045888742
 20
4.28771539587853
 30
0.0
 11
8.965809321769717
 21
4.455575475676295
 31
0.0
  0
LINE
  5
AC
  8
0
 10
8.965809321769717
 20
4.455575475676295
 30
0.0
 11
8.975197132813483
 21
4.634791203754753
 31
0.0
  0
LINE
  5
AD
  8
0
 10
8.97292837881598
 20
4.634795163185813
 30
0.0
 11
8.96162420313907
 21
4.657502500316139
 31
0.0
  0
LINE
  5
AE
  8
0
 10
8.96162420313907
 20
4.657502500316139
 30
0.0
 11
8.873194269840255
 21
4.687150720095021
 31
0.0
  0
LINE
  5
AF
  8
0
 10
8.873194269840255
 20
4.687150720095021
 30
0.0
 11
8.889138898719736
 21
4.723423068037639
 31
0.0
  0
LINE
  5
B0
  8
0
 10
8.889138898719736
 20
4.723423068037639
 30
0.0
 11
8.900585613914814
 21
4.782390874817403
 31
0.0
  0
LINE
  5
B1
  8
0
 10
8.926915830465235
 20
4.269604958209113
 30
0.0
 11
8.899524486390677
 21
4.174364803486729
 31
0.0
  0
ARC
  5
B2
  8
0
 10
9.096240339458431
 20
4.295378799989328
 30
0.0
 40
0.2360110022175322
 50
211.4884470902501
 51
242.6610560731966
  0
LINE
  5
B3
  8
0
 10
8.985578761053365
 20
4.083464185206341
 30
0.0
 11
8.99460626387065
 21
4.05622329951207
 31
0.0
  0
LINE
  5
B4
  8
0
 10
8.99460626387065
 20
4.05622329951207
 30
0.0
 11
8.940144289637411
 21
4.049512063865008
 31
0.0
  0
LINE
  5
B5
  8
0
 10
8.940144289637411
 20
4.049512063865008
 30
0.0
 11
8.881184401719766
 21
4.065496287055091
 31
0.0
  0
LINE
  5
B6
  8
0
 10
8.881184401719766
 20
4.065496287055091
 30
0.0
 11
8.853994988629278
 21
4.085962586205336
 31
0.0
  0
LINE
  5
B7
  8
0
 10
8.853994988629278
 20
4.085962586205336
 30
0.0
 11
8.817702843531357
 21
4.090563445097304
 31
0.0
  0
LINE
  5
B8
  8
0
 10
8.817702843531357
 20
4.090563445097304
 30
0.0
 11
8.811007445608537
 21
4.154100435320555
 31
0.0
  0
LINE
  5
B9
  8
0
 10
8.811007445608537
 20
4.154100435320555
 30
0.0
 11
8.826928317901656
 21
4.176760259278159
 31
0.0
  0
LINE
  5
BA
  8
0
 10
8.826928317901656
 20
4.176760259278159
 30
0.0
 11
8.84292837881598
 21
4.244795163185813
 31
0.0
  0
ARC
  5
BB
  8
0
 10
8.86171843834116
 20
4.246865124772649
 30
0.0
 40
0.0792937400142762
 50
242.1368112464465
 51
289.4919701278305
  0
ARC
  5
BC
  8
0
 10
8.967262267531764
 20
4.186816555258887
 30
0.0
 40
0.1035761219329396
 50
202.2056071961159
 51
253.0107705628856
  0
ENDSEC
  0
EOF
