  0
SECTION
  2
HEADER
  9
$ACADVER
  1
AC1009
  9
$DWGCODEPAGE
  3
ansi_1252
  9
$INSBASE
 10
11.37682183704049
 20
3.996554616635381
 30
0.0
  9
$EXTMIN
 10
11.55503748828273
 20
3.995773000092907
 30
0.0
  9
$EXTMAX
 10
12.83632684828273
 20
5.805695218092907
 30
0.0
  9
$LIMMIN
 10
0.0
 20
0.0
  9
$LIMMAX
 10
410.0
 20
287.0
  9
$ORTHOMODE
 70
     0
  9
$REGENMODE
 70
     1
  9
$FILLMODE
 70
     1
  9
$QTEXTMODE
 70
     0
  9
$MIRRTEXT
 70
     1
  9
$DRAGMODE
 70
     2
  9
$LTSCALE
 40
25.0
  9
$OSMODE
 70
    37
  9
$ATTMODE
 70
     1
  9
$TEXTSIZE
 40
3.5
  9
$TRACEWID
 40
1.0
  9
$TEXTSTYLE
  7
STANDARD
  9
$CLAYER
  8
0
  9
$CELTYPE
  6
BYLAYER
  9
$CECOLOR
 62
   256
  9
$DIMSCALE
 40
1.0
  9
$DIMASZ
 40
3.5
  9
$DIMEXO
 40
0.1
  9
$DIMDLI
 40
7.0
  9
$DIMRND
 40
0.0
  9
$DIMDLE
 40
0.0
  9
$DIMEXE
 40
1.8
  9
$DIMTP
 40
0.0
  9
$DIMTM
 40
0.0
  9
$DIMTXT
 40
3.5
  9
$DIMCEN
 40
1.5
  9
$DIMTSZ
 40
0.0
  9
$DIMTOL
 70
     0
  9
$DIMLIM
 70
     0
  9
$DIMTIH
 70
     0
  9
$DIMTOH
 70
     0
  9
$DIMSE1
 70
     0
  9
$DIMSE2
 70
     0
  9
$DIMTAD
 70
     0
  9
$DIMZIN
 70
     0
  9
$DIMBLK
  1

  9
$DIMASO
 70
     1
  9
$DIMSHO
 70
     0
  9
$DIMPOST
  1

  9
$DIMAPOST
  1

  9
$DIMALT
 70
     0
  9
$DIMALTD
 70
     2
  9
$DIMALTF
 40
25.4
  9
$DIMLFAC
 40
1.0
  9
$DIMTOFL
 70
     0
  9
$DIMTVP
 40
0.0
  9
$DIMTIX
 70
     0
  9
$DIMSOXD
 70
     0
  9
$DIMSAH
 70
     0
  9
$DIMBLK1
  1

  9
$DIMBLK2
  1

  9
$DIMSTYLE
  2
STANDARD
  9
$DIMCLRD
 70
     0
  9
$DIMCLRE
 70
     0
  9
$DIMCLRT
 70
     0
  9
$DIMTFAC
 40
1.0
  9
$DIMGAP
 40
0.09
  9
$LUNITS
 70
     2
  9
$LUPREC
 70
     3
  9
$SKETCHINC
 40
1.0
  9
$FILLETRAD
 40
0.0
  9
$AUNITS
 70
     0
  9
$AUPREC
 70
     0
  9
$MENU
  1
EICAD12
  9
$ELEVATION
 40
0.0
  9
$PELEVATION
 40
0.0
  9
$THICKNESS
 40
0.0
  9
$LIMCHECK
 70
     0
  9
$CHAMFERA
 40
0.0
  9
$CHAMFERB
 40
0.0
  9
$SKPOLY
 70
     0
  9
$TDCREATE
 40
2449027.429314468
  9
$TDUPDATE
 40
2457483.532361111
  9
$TDINDWG
 40
0.0001461806
  9
$TDUSRTIMER
 40
0.0001461806
  9
$USRTIMER
 70
     1
  9
$ANGBASE
 50
0.0
  9
$ANGDIR
 70
     0
  9
$PDMODE
 70
     0
  9
$PDSIZE
 40
0.0
  9
$PLINEWID
 40
0.0
  9
$COORDS
 70
     1
  9
$SPLFRAME
 70
     0
  9
$SPLINETYPE
 70
     6
  9
$SPLINESEGS
 70
     8
  9
$ATTDIA
 70
     0
  9
$ATTREQ
 70
     1
  9
$HANDLING
 70
     1
  9
$HANDSEED
  5
26D
  9
$SURFTAB1
 70
     6
  9
$SURFTAB2
 70
     6
  9
$SURFTYPE
 70
     6
  9
$SURFU
 70
     6
  9
$SURFV
 70
     6
  9
$UCSNAME
  2

  9
$UCSORG
 10
0.0
 20
0.0
 30
0.0
  9
$UCSXDIR
 10
1.0
 20
0.0
 30
0.0
  9
$UCSYDIR
 10
0.0
 20
1.0
 30
0.0
  9
$PUCSNAME
  2

  9
$PUCSORG
 10
0.0
 20
0.0
 30
0.0
  9
$PUCSXDIR
 10
1.0
 20
0.0
 30
0.0
  9
$PUCSYDIR
 10
0.0
 20
1.0
 30
0.0
  9
$USERI1
 70
     0
  9
$USERI2
 70
     0
  9
$USERI3
 70
     0
  9
$USERI4
 70
     0
  9
$USERI5
 70
     0
  9
$USERR1
 40
0.0
  9
$USERR2
 40
0.0
  9
$USERR3
 40
0.0
  9
$USERR4
 40
0.0
  9
$USERR5
 40
0.0
  9
$WORLDVIEW
 70
     1
  9
$SHADEDGE
 70
     3
  9
$SHADEDIF
 70
    70
  9
$TILEMODE
 70
     1
  9
$MAXACTVP
 70
    16
  9
$PLIMCHECK
 70
     0
  9
$PEXTMIN
 10
1.000000000000000E+20
 20
1.000000000000000E+20
 30
1.000000000000000E+20
  9
$PEXTMAX
 10
-1.000000000000000E+20
 20
-1.000000000000000E+20
 30
-1.000000000000000E+20
  9
$PLIMMIN
 10
0.0
 20
0.0
  9
$PLIMMAX
 10
12.0
 20
9.0
  9
$UNITMODE
 70
     0
  9
$VISRETAIN
 70
     0
  9
$PLINEGEN
 70
     0
  9
$PSLTSCALE
 70
     0
  0
ENDSEC
  0
SECTION
  2
TABLES
  0
TABLE
  2
VPORT
 70
     1
  0
VPORT
  2
*ACTIVE
 70
     0
 10
0.0
 20
0.0
 11
1.0
 21
1.0
 12
12.18689037857911
 22
5.100145427158579
 13
0.0
 23
0.0
 14
1.0
 24
1.0
 15
10.0
 25
10.0
 16
0.0
 26
0.0
 36
1.0
 17
0.0
 27
0.0
 37
0.0
 40
2.267937876735528
 41
1.503537735849057
 42
50.0
 43
0.0
 44
0.0
 50
0.0
 51
0.0
 71
     0
 72
   100
 73
     1
 74
     0
 75
     0
 76
     0
 77
     0
 78
     0
  0
ENDTAB
  0
TABLE
  2
LTYPE
 70
     1
  0
LTYPE
  2
CONTINUOUS
 70
     0
  3
Ausgezogene Linie
 72
    65
 73
     0
 40
0.0
  0
ENDTAB
  0
TABLE
  2
LAYER
 70
     1
  0
LAYER
  2
0
 70
     0
 62
     7
  6
CONTINUOUS
  0
ENDTAB
  0
TABLE
  2
STYLE
 70
     1
  0
STYLE
  2
STANDARD
 70
     0
 40
0.0
 41
1.0
 50
0.0
 71
     0
 42
3.5
  3
txt.shx
  4

  0
ENDTAB
  0
TABLE
  2
VIEW
 70
     0
  0
ENDTAB
  0
TABLE
  2
UCS
 70
     0
  0
ENDTAB
  0
TABLE
  2
APPID
 70
     2
  0
APPID
  2
ACAD
 70
     0
  0
APPID
  2
DCO15
 70
     0
  0
ENDTAB
  0
TABLE
  2
DIMSTYLE
 70
     1
  0
DIMSTYLE
  2
STANDARD
 70
     0
  3

  4

  5

  6

  7

 40
1.0
 41
0.18
 42
0.0625
 43
0.38
 44
0.18
 45
0.0
 46
0.0
 47
0.0
 48
0.0
140
0.18
141
0.09
142
0.0
143
25.4
144
1.0
145
0.0
146
1.0
147
0.09
 71
     0
 72
     0
 73
     1
 74
     1
 75
     0
 76
     0
 77
     0
 78
     0
170
     0
171
     2
172
     0
173
     0
174
     0
175
     0
176
     0
177
     0
178
     0
  0
ENDTAB
  0
ENDSEC
  0
SECTION
  2
BLOCKS
  0
BLOCK
  8
0
  2
$MODEL_SPACE
 70
     0
 10
0.0
 20
0.0
 30
0.0
  3
$MODEL_SPACE
  1

  0
ENDBLK
  5
1AF
  8
0
  0
BLOCK
 67
     1
  8
0
  2
$PAPER_SPACE
 70
     0
 10
0.0
 20
0.0
 30
0.0
  3
$PAPER_SPACE
  1

  0
ENDBLK
  5
1AD
 67
     1
  8
0
  0
BLOCK
  8
0
  2
HUM6
 70
     0
 10
0.0
 20
0.0
 30
0.0
  3
HUM6
  1

  0
LINE
  5
24
  8
0
 10
2.799102
 20
63.70296
 30
0.0
 11
2.657353
 21
64.19909
 31
0.0
  0
SOLID
  5
25
  8
0
 10
1.204428
 20
64.26996
 30
0.0
 11
3.259786
 21
64.19909
 31
0.0
 12
3.507846
 22
64.5889
 32
0.0
 13
3.507846
 23
64.5889
 33
0.0
  0
LINE
  5
26
  8
0
 10
-3.402409
 20
63.02966
 30
0.0
 11
-3.048037
 21
62.4981
 31
0.0
  0
LINE
  5
27
  8
0
 10
-3.756781
 20
64.51801999999999
 30
0.0
 11
-3.402409
 21
63.02966
 31
0.0
  0
ARC
  5
28
  8
0
 10
-3.471987
 20
64.58241
 30
0.0
 40
0.291983
 50
83.28520999999999
 51
192.7404
  0
SOLID
  5
29
  8
0
 10
1.735986
 20
63.98646
 30
0.0
 11
2.090358
 21
63.95103
 31
0.0
 12
1.771423
 22
63.7384
 32
0.0
 13
2.090358
 23
63.80928
 33
0.0
  0
SOLID
  5
2A
  8
0
 10
-0.390246
 20
63.95103
 30
0.0
 11
-0.142186
 21
63.95103
 31
0.0
 12
-0.390246
 22
63.63209000000001
 32
0.0
 13
-0.071311
 23
63.7384
 33
0.0
  0
ARC
  5
2B
  8
0
 10
0.5074960000000001
 20
61.86023
 30
0.0
 40
0.248342
 50
92.72631
 51
205.3462
  0
ARC
  5
2C
  8
0
 10
-6.745201
 20
41.09455
 30
0.0
 40
1.310648
 50
74.70734
 51
202.4453
  0
ARC
  5
2D
  8
0
 10
10.27357
 20
7.953937
 30
0.0
 40
1.5
 50
300.3094
 51
353.749
  0
ARC
  5
2E
  8
0
 10
13.25065
 20
7.580922
 30
0.0
 40
1.5
 50
173.7489
 51
188.9671
  0
ARC
  5
2F
  8
0
 10
8.142241
 20
6.708025999999999
 30
0.0
 40
1.5
 50
245.0787
 51
300.3094
  0
ARC
  5
30
  8
0
 10
8.235163
 20
5.524018
 30
0.0
 40
1.5
 50
242.9656
 51
298.2739
  0
LINE
  5
31
  8
0
 10
1.508546
 20
5.750066
 30
0.0
 11
1.407013
 21
4.430142
 31
0.0
  0
SOLID
  5
32
  8
0
 10
10.18429
 20
1.743202
 30
0.0
 11
9.722054
 21
1.897281
 31
0.0
 12
9.927491999999999
 22
2.770393
 32
0.0
 13
9.927491999999999
 23
2.770393
 33
0.0
  0
SOLID
  5
33
  8
0
 10
10.90332
 20
1.589124
 30
0.0
 11
10.18429
 21
0.407855
 31
0.0
 12
10.18429
 22
1.743202
 32
0.0
 13
9.722054
 23
1.897281
 33
0.0
  0
SOLID
  5
34
  8
0
 10
11.36556
 20
1.743202
 30
0.0
 11
11.67372
 21
0.561934
 31
0.0
 12
10.90332
 22
1.589124
 32
0.0
 13
10.18429
 23
0.407855
 33
0.0
  0
SOLID
  5
35
  8
0
 10
12.75227
 20
2.410876
 30
0.0
 11
13.00906
 21
1.178248
 31
0.0
 12
11.36556
 22
1.743202
 32
0.0
 13
11.67372
 23
0.561934
 33
0.0
  0
SOLID
  5
36
  8
0
 10
12.13595
 20
5.132931
 30
0.0
 11
12.85499
 21
4.208459
 31
0.0
 12
13.00906
 22
1.280967
 32
0.0
 13
13.2145
 23
1.383686
 33
0.0
  0
LINE
  5
37
  8
0
 10
0.734139
 20
4.413897
 30
0.0
 11
0.734139
 21
3.438066000000001
 31
0.0
  0
ARC
  5
38
  8
0
 10
-5.126933
 20
4.551519
 30
0.0
 40
3.449921
 50
276.9418
 51
357.7138
  0
SOLID
  5
39
  8
0
 10
-6.096677
 20
0.459215
 30
0.0
 11
-6.148036
 21
0.048338
 31
0.0
 12
-5.120846
 22
-0.1571
 32
0.0
 13
-5.120846
 23
-0.1571
 33
0.0
  0
SOLID
  5
3A
  8
0
 10
-3.374622
 20
1.024169
 30
0.0
 11
-4.864048
 21
-0.10574
 31
0.0
 12
-4.812689
 22
1.075529
 32
0.0
 13
-6.096677
 23
0.407855
 33
0.0
  0
SOLID
  5
3B
  8
0
 10
-0.7039270000000001
 20
1.845921
 30
0.0
 11
0.58006
 21
0.510574
 31
0.0
 12
-3.374622
 22
1.024169
 32
0.0
 13
-4.864048
 23
-0.10574
 33
0.0
  0
SOLID
  5
3C
  8
0
 10
0.7854979999999999
 20
3.386707
 30
0.0
 11
1.247734
 21
1.897281
 31
0.0
 12
-0.7039270000000001
 22
1.845921
 32
0.0
 13
0.58006
 23
0.510574
 33
0.0
  0
ARC
  5
3D
  8
0
 10
5.742459999999999
 20
40.40737
 30
0.0
 40
1.192802
 50
345.5024
 51
114.1856
  0
LINE
  5
3E
  8
0
 10
-8.356494999999999
 20
46.7855
 30
0.0
 11
-6.148036
 21
46.32326
 31
0.0
  0
SOLID
  5
3F
  8
0
 10
-3.528701
 20
43.13897
 30
0.0
 11
-3.425982
 21
43.70393
 31
0.0
 12
-5.377644
 22
43.39577
 32
0.0
 13
-5.429003
 23
44.21752
 33
0.0
  0
SOLID
  5
40
  8
0
 10
0.477341
 20
42.83081
 30
0.0
 11
0.374622
 21
43.60120999999999
 31
0.0
 12
-3.528701
 22
43.13897
 32
0.0
 13
-3.425982
 23
43.70393
 33
0.0
  0
SOLID
  5
41
  8
0
 10
3.712991
 20
43.24169000000001
 30
0.0
 11
3.81571
 21
44.26888
 31
0.0
 12
0.477341
 22
42.83081
 32
0.0
 13
0.374622
 23
43.60120999999999
 33
0.0
  0
ARC
  5
42
  8
0
 10
0.823419
 20
61.31522
 30
0.0
 40
0.557446
 50
303.3035
 51
355.0891
  0
ARC
  5
43
  8
0
 10
0.521604
 20
62.12559
 30
0.0
 40
1.413652
 50
225.4901
 51
295.4686
  0
ARC
  5
44
  8
0
 10
0.909409
 20
60.16653
 30
0.0
 40
0.5
 50
278.6743
 51
328.627
  0
LINE
  5
45
  8
0
 10
2.531722
 20
62.24471
 30
0.0
 11
2.73716
 21
62.55287
 31
0.0
  0
LINE
  5
46
  8
0
 10
2.480363
 20
61.78248000000001
 30
0.0
 11
2.531722
 21
62.24471
 31
0.0
  0
LINE
  5
47
  8
0
 10
1.336307
 20
59.90623000000001
 30
0.0
 11
2.480363
 21
61.78248000000001
 31
0.0
  0
SOLID
  5
48
  8
0
 10
-3.117825
 20
64.55589
 30
0.0
 11
-3.374622
 21
65.429
 31
0.0
 12
-3.425982
 22
64.86404
 32
0.0
 13
-3.425982
 23
64.86404
 33
0.0
  0
SOLID
  5
49
  8
0
 10
-2.141994
 20
63.83685999999999
 30
0.0
 11
-3.066465
 21
67.48338000000001
 31
0.0
 12
-3.117825
 22
64.55589
 32
0.0
 13
-3.374622
 23
65.429
 33
0.0
  0
SOLID
  5
4A
  8
0
 10
-1.063444
 20
64.2991
 30
0.0
 11
-2.193353
 21
68.56194
 31
0.0
 12
-2.141994
 22
63.83685999999999
 32
0.0
 13
-3.066465
 23
67.48338000000001
 33
0.0
  0
SOLID
  5
4B
  8
0
 10
-0.39577
 20
66.50755
 30
0.0
 11
-1.371601
 21
69.22961
 31
0.0
 12
-1.063444
 22
64.2991
 32
0.0
 13
-2.193353
 23
68.56194
 33
0.0
  0
SOLID
  5
4C
  8
0
 10
-0.344411
 20
66.55891
 30
0.0
 11
-0.293051
 21
69.33233
 31
0.0
 12
-0.39577
 22
66.50755
 32
0.0
 13
-1.371601
 23
69.22961
 33
0.0
  0
SOLID
  5
4D
  8
0
 10
-0.344411
 20
66.55891
 30
0.0
 11
0.9909370000000001
 21
69.07553
 31
0.0
 12
-0.344411
 22
66.55891
 32
0.0
 13
-0.293051
 23
69.33233
 33
0.0
  0
SOLID
  5
4E
  8
0
 10
-0.293051
 20
66.55891
 30
0.0
 11
1.915408
 21
68.15105
 31
0.0
 12
-0.344411
 22
66.55891
 32
0.0
 13
0.9909370000000001
 23
69.07553
 33
0.0
  0
SOLID
  5
4F
  8
0
 10
-0.293051
 20
66.45619
 30
0.0
 11
2.891239
 21
66.76435
 31
0.0
 12
-0.293051
 22
66.55891
 32
0.0
 13
1.915408
 23
68.15105
 33
0.0
  0
SOLID
  5
50
  8
0
 10
0.7854979999999999
 20
64.24773
 30
0.0
 11
3.507553
 21
64.60725
 31
0.0
 12
-0.293051
 22
66.45619
 32
0.0
 13
2.891239
 23
66.76435
 33
0.0
  0
LINE
  5
51
  8
0
 10
-1.987915
 20
60.90937
 30
0.0
 11
-2.193353
 21
60.13896999999999
 31
0.0
  0
LINE
  5
52
  8
0
 10
-5.302266
 20
4.430142
 30
0.0
 11
1.407013
 21
4.430142
 31
0.0
  0
LINE
  5
53
  8
0
 10
1.508546
 20
5.750066
 30
0.0
 11
-4.375619
 21
5.682903
 31
0.0
  0
LINE
  5
54
  8
0
 10
-4.375619
 20
5.682903
 30
0.0
 11
-5.247871
 21
5.855881
 31
0.0
  0
LINE
  5
55
  8
0
 10
-5.247871
 20
5.855881
 30
0.0
 11
-6.339948000000001
 21
17.85823
 31
0.0
  0
LINE
  5
56
  8
0
 10
-6.339948000000001
 20
17.85823
 30
0.0
 11
-7.021147999999999
 21
29.5287
 31
0.0
  0
LINE
  5
57
  8
0
 10
-2.176836
 20
17.67818
 30
0.0
 11
-5.011541999999999
 21
22.93712
 31
0.0
  0
LINE
  5
58
  8
0
 10
-5.011541999999999
 20
22.93712
 30
0.0
 11
-7.718019
 21
32.13115
 31
0.0
  0
LINE
  5
59
  8
0
 10
-7.718019
 20
32.13115
 30
0.0
 11
-7.740181
 21
37.12991
 31
0.0
  0
LINE
  5
5A
  8
0
 10
-6.263285
 20
32.29913
 30
0.0
 11
-8.539833999999999
 21
39.84965
 31
0.0
  0
LINE
  5
5B
  8
0
 10
-8.539833999999999
 20
39.84965
 30
0.0
 11
-5.446599
 21
43.42475
 31
0.0
  0
LINE
  5
5C
  8
0
 10
3.741253
 20
43.25671
 30
0.0
 11
5.854544000000001
 21
39.35674
 31
0.0
  0
LINE
  5
5D
  8
0
 10
5.854544000000001
 20
39.35674
 30
0.0
 11
5.638652
 21
37.09294000000001
 31
0.0
  0
LINE
  5
5E
  8
0
 10
5.638652
 20
37.09294000000001
 30
0.0
 11
7.194984
 21
26.15043
 31
0.0
  0
LINE
  5
5F
  8
0
 10
7.194984
 20
26.15043
 30
0.0
 11
7.090472
 21
25.28944
 31
0.0
  0
LINE
  5
60
  8
0
 10
7.090472
 20
25.28944
 30
0.0
 11
7.723147999999999
 21
22.44778
 31
0.0
  0
LINE
  5
61
  8
0
 10
7.723147999999999
 20
22.44778
 30
0.0
 11
7.685973
 21
21.07333
 31
0.0
  0
LINE
  5
62
  8
0
 10
7.685973
 20
21.07333
 30
0.0
 11
8.188084
 21
18.51712
 31
0.0
  0
LINE
  5
63
  8
0
 10
8.188084
 20
18.51712
 30
0.0
 11
8.762681
 21
17.84288
 31
0.0
  0
LINE
  5
64
  8
0
 10
8.762681
 20
17.84288
 30
0.0
 11
11.88605
 21
8.898906
 31
0.0
  0
LINE
  5
65
  8
0
 10
11.88605
 20
8.898906
 30
0.0
 11
11.76465
 21
7.790610000000001
 31
0.0
  0
LINE
  5
66
  8
0
 10
11.03057
 20
6.658967
 30
0.0
 11
8.899242999999998
 21
5.413056
 31
0.0
  0
LINE
  5
67
  8
0
 10
7.510182
 20
5.347694000000001
 30
0.0
 11
7.321567
 21
5.435331
 31
0.0
  0
LINE
  5
68
  8
0
 10
7.321567
 20
5.435331
 30
0.0
 11
7.501453
 21
4.214412
 31
0.0
  0
LINE
  5
69
  8
0
 10
7.501453
 20
4.214412
 30
0.0
 11
7.553375
 21
4.187917
 31
0.0
  0
LINE
  5
6A
  8
0
 10
8.945692999999999
 20
4.202978
 30
0.0
 11
11.69662
 21
5.682583
 31
0.0
  0
LINE
  5
6B
  8
0
 10
11.69662
 20
5.682583
 30
0.0
 11
11.97684
 21
6.029889
 31
0.0
  0
LINE
  5
6C
  8
0
 10
11.97684
 20
6.029889
 30
0.0
 11
11.76898
 21
7.347119999999999
 31
0.0
  0
LINE
  5
6D
  8
0
 10
7.417911999999999
 20
5.149953
 30
0.0
 11
6.656867999999999
 21
6.645885000000001
 31
0.0
  0
LINE
  5
6E
  8
0
 10
6.656867999999999
 20
6.645885000000001
 30
0.0
 11
3.46948
 21
14.99114
 31
0.0
  0
LINE
  5
6F
  8
0
 10
3.46948
 20
14.99114
 30
0.0
 11
2.655423
 21
18.35791
 31
0.0
  0
LINE
  5
70
  8
0
 10
2.655423
 20
18.35791
 30
0.0
 11
1.526306
 21
21.08657
 31
0.0
  0
LINE
  5
71
  8
0
 10
1.526306
 20
21.08657
 30
0.0
 11
1.349142
 21
23.57364
 31
0.0
  0
LINE
  5
72
  8
0
 10
1.349142
 20
23.57364
 30
0.0
 11
-1.025386
 21
33.30308
 31
0.0
  0
LINE
  5
73
  8
0
 10
1.395105
 20
5.748771
 30
0.0
 11
0.700437
 21
16.30317
 31
0.0
  0
LINE
  5
74
  8
0
 10
0.700437
 20
16.30317
 30
0.0
 11
0.801227
 21
20.74022
 31
0.0
  0
LINE
  5
75
  8
0
 10
0.801227
 20
20.74022
 30
0.0
 11
0.359279
 21
22.09858
 31
0.0
  0
LINE
  5
76
  8
0
 10
0.359279
 20
22.09858
 30
0.0
 11
0.236065
 21
28.45816
 31
0.0
  0
LINE
  5
77
  8
0
 10
-8.115275
 20
40.61359
 30
0.0
 11
-8.952755
 21
41.04315
 31
0.0
  0
LINE
  5
78
  8
0
 10
-8.952755
 20
41.04315
 30
0.0
 11
-9.3785
 21
41.97943
 31
0.0
  0
LINE
  5
79
  8
0
 10
-9.3785
 20
41.97943
 30
0.0
 11
-9.097281
 21
42.79441
 31
0.0
  0
LINE
  5
7A
  8
0
 10
-9.097281
 20
42.79441
 30
0.0
 11
-8.257742
 21
43.32302
 31
0.0
  0
LINE
  5
7B
  8
0
 10
-8.257742
 20
43.32302
 30
0.0
 11
-7.145187
 21
43.50314
 31
0.0
  0
LINE
  5
7C
  8
0
 10
-7.145187
 20
43.50314
 30
0.0
 11
-5.807989
 21
42.98592
 31
0.0
  0
LINE
  5
7D
  8
0
 10
-8.332811999999999
 20
43.29407
 30
0.0
 11
-8.90188
 21
46.54054
 31
0.0
  0
LINE
  5
7E
  8
0
 10
-8.90188
 20
46.54054
 30
0.0
 11
-8.365160000000001
 21
46.81886
 31
0.0
  0
LINE
  5
7F
  8
0
 10
-8.365160000000001
 20
46.81886
 30
0.0
 11
-7.157355
 21
56.82006
 31
0.0
  0
LINE
  5
80
  8
0
 10
-7.157355
 20
56.82006
 30
0.0
 11
-2.60423
 21
59.62538000000001
 31
0.0
  0
LINE
  5
81
  8
0
 10
-1.909856
 20
43.71373
 30
0.0
 11
-2.352209
 21
44.88388
 31
0.0
  0
LINE
  5
82
  8
0
 10
-2.352209
 20
44.88388
 30
0.0
 11
-1.573711
 21
51.50958
 31
0.0
  0
LINE
  5
83
  8
0
 10
-1.573711
 20
51.50958
 30
0.0
 11
-2.207273
 21
56.59269
 31
0.0
  0
LINE
  5
84
  8
0
 10
-2.207273
 20
56.59269
 30
0.0
 11
-2.17047
 21
60.44813000000001
 31
0.0
  0
LINE
  5
85
  8
0
 10
-2.17047
 20
60.44813000000001
 30
0.0
 11
-4.501705
 21
55.82196
 31
0.0
  0
LINE
  5
86
  8
0
 10
-4.501705
 20
55.82196
 30
0.0
 11
-3.046015
 21
56.4348
 31
0.0
  0
LINE
  5
87
  8
0
 10
-3.046015
 20
56.4348
 30
0.0
 11
-2.134379
 21
56.01078
 31
0.0
  0
LINE
  5
88
  8
0
 10
-3.056215
 20
64.4774
 30
0.0
 11
-2.106385
 21
61.07536
 31
0.0
  0
LINE
  5
89
  8
0
 10
-2.106385
 20
61.07536
 30
0.0
 11
-1.287106
 21
60.13824
 31
0.0
  0
LINE
  5
8A
  8
0
 10
-1.287106
 20
60.13824
 30
0.0
 11
-0.324347
 21
59.61716
 31
0.0
  0
LINE
  5
8B
  8
0
 10
-0.324347
 20
59.61716
 30
0.0
 11
0.057596
 21
59.53079
 31
0.0
  0
LINE
  5
8C
  8
0
 10
0.057596
 20
59.53079
 30
0.0
 11
0.984817
 21
59.67225
 31
0.0
  0
LINE
  5
8D
  8
0
 10
2.762032
 20
62.65616
 30
0.0
 11
2.809927
 21
63.71119
 31
0.0
  0
CIRCLE
  5
8E
  8
0
 10
-2.74248
 20
62.25566999999999
 30
0.0
 40
0.370722
  0
LINE
  5
8F
  8
0
 10
-3.425393
 20
63.02307
 30
0.0
 11
-3.756447
 21
62.90401
 31
0.0
  0
LINE
  5
90
  8
0
 10
-3.756447
 20
62.90401
 30
0.0
 11
-3.257809
 21
61.38582
 31
0.0
  0
LINE
  5
91
  8
0
 10
-3.257809
 20
61.38582
 30
0.0
 11
-3.720029
 21
61.27275
 31
0.0
  0
LINE
  5
92
  8
0
 10
-3.720029
 20
61.27275
 30
0.0
 11
-3.443945
 21
59.69801
 31
0.0
  0
LINE
  5
93
  8
0
 10
-3.443945
 20
59.69801
 30
0.0
 11
-2.316699
 21
61.40662
 31
0.0
  0
LINE
  5
94
  8
0
 10
-3.189163
 20
64.64832
 30
0.0
 11
-2.130133
 21
63.80764
 31
0.0
  0
LINE
  5
95
  8
0
 10
-2.130133
 20
63.80764
 30
0.0
 11
-1.068186
 21
64.32437
 31
0.0
  0
LINE
  5
96
  8
0
 10
1.86813
 20
60.7403
 30
0.0
 11
-1.889438
 21
54.04268
 31
0.0
  0
LINE
  5
97
  8
0
 10
-0.182151
 20
56.78226
 30
0.0
 11
1.783241
 21
55.7172
 31
0.0
  0
LINE
  5
98
  8
0
 10
1.783241
 20
55.7172
 30
0.0
 11
2.714558
 21
59.14295
 31
0.0
  0
LINE
  5
99
  8
0
 10
2.714558
 20
59.14295
 30
0.0
 11
2.397288
 21
60.13033000000001
 31
0.0
  0
LINE
  5
9A
  8
0
 10
2.397288
 20
60.13033000000001
 30
0.0
 11
1.86813
 21
60.7403
 31
0.0
  0
LINE
  5
9B
  8
0
 10
2.685801
 20
59.36858
 30
0.0
 11
6.030833
 21
57.69286
 31
0.0
  0
LINE
  5
9C
  8
0
 10
6.030833
 20
57.69286
 30
0.0
 11
6.913057000000001
 21
56.85256
 31
0.0
  0
LINE
  5
9D
  8
0
 10
6.913057000000001
 20
56.85256
 30
0.0
 11
7.354992999999999
 21
55.48849000000001
 31
0.0
  0
LINE
  5
9E
  8
0
 10
7.354992999999999
 20
55.48849000000001
 30
0.0
 11
9.389228999999998
 21
46.64952
 31
0.0
  0
LINE
  5
9F
  8
0
 10
9.389228999999998
 20
46.64952
 30
0.0
 11
9.923387
 21
45.73582
 31
0.0
  0
LINE
  5
A0
  8
0
 10
9.923387
 20
45.73582
 30
0.0
 11
9.029845
 21
43.96398
 31
0.0
  0
LINE
  5
A1
  8
0
 10
9.029845
 20
43.96398
 30
0.0
 11
8.742101
 21
42.76688
 31
0.0
  0
LINE
  5
A2
  8
0
 10
8.742101
 20
42.76688
 30
0.0
 11
7.610892
 21
41.86817
 31
0.0
  0
LINE
  5
A3
  8
0
 10
7.610892
 20
41.86817
 30
0.0
 11
8.458394
 21
40.79411
 31
0.0
  0
LINE
  5
A4
  8
0
 10
8.458394
 20
40.79411
 30
0.0
 11
6.534425
 21
39.9028
 31
0.0
  0
LINE
  5
A5
  8
0
 10
6.534425
 20
39.9028
 30
0.0
 11
6.332715
 21
39.8942
 31
0.0
  0
LINE
  5
A6
  8
0
 10
5.950080000000001
 20
38.69493
 30
0.0
 11
6.49368
 21
39.52076
 31
0.0
  0
LINE
  5
A7
  8
0
 10
6.49368
 20
39.52076
 30
0.0
 11
6.22113
 21
40.08598
 31
0.0
  0
LINE
  5
A8
  8
0
 10
6.22113
 20
40.08598
 30
0.0
 11
5.537115
 21
40.26997
 31
0.0
  0
LINE
  5
A9
  8
0
 10
5.72307
 20
57.79618000000001
 30
0.0
 11
5.206957
 21
48.52923
 31
0.0
  0
LINE
  5
AA
  8
0
 10
5.206957
 20
48.52923
 30
0.0
 11
4.214594
 21
45.89068
 31
0.0
  0
LINE
  5
AB
  8
0
 10
4.214594
 20
45.89068
 30
0.0
 11
4.199878
 21
44.35078
 31
0.0
  0
LINE
  5
AC
  8
0
 10
4.199878
 20
44.35078
 30
0.0
 11
3.412392
 21
44.15855999999999
 31
0.0
  0
LINE
  5
AD
  8
0
 10
-5.547483000000001
 20
44.25196
 30
0.0
 11
-6.332885
 21
45.02932
 31
0.0
  0
LINE
  5
AE
  8
0
 10
-6.332885
 20
45.02932
 30
0.0
 11
-6.012722
 21
45.38794
 31
0.0
  0
LINE
  5
AF
  8
0
 10
-6.012722
 20
45.38794
 30
0.0
 11
-6.057344000000001
 21
45.85572
 31
0.0
  0
LINE
  5
B0
  8
0
 10
-6.057344000000001
 20
45.85572
 30
0.0
 11
-6.872974
 21
51.14454
 31
0.0
  0
LINE
  5
B1
  8
0
 10
-6.872974
 20
51.14454
 30
0.0
 11
-6.785228999999999
 21
52.16527
 31
0.0
  0
LINE
  5
B2
  8
0
 10
-6.785228999999999
 20
52.16527
 30
0.0
 11
-5.682688
 21
55.64769
 31
0.0
  0
LINE
  5
B3
  8
0
 10
5.150878
 20
41.01224000000001
 30
0.0
 11
5.266036
 21
41.5196
 31
0.0
  0
LINE
  5
B4
  8
0
 10
5.266036
 20
41.5196
 30
0.0
 11
5.662427
 21
42.84764000000001
 31
0.0
  0
LINE
  5
B5
  8
0
 10
5.662427
 20
42.84764000000001
 30
0.0
 11
5.441661
 21
43.62378
 31
0.0
  0
LINE
  5
B6
  8
0
 10
5.441661
 20
43.62378
 30
0.0
 11
5.824953
 21
44.16478
 31
0.0
  0
LINE
  5
B7
  8
0
 10
5.824953
 20
44.16478
 30
0.0
 11
6.168685
 21
47.52906
 31
0.0
  0
LINE
  5
B8
  8
0
 10
6.168685
 20
47.52906
 30
0.0
 11
6.373743
 21
52.71304
 31
0.0
  0
LINE
  5
B9
  8
0
 10
5.264923
 20
48.5121
 30
0.0
 11
6.100699
 21
47.28977
 31
0.0
  0
LINE
  5
BA
  8
0
 10
0.847302
 20
42.17928
 30
0.0
 11
2.374627
 21
38.97068
 31
0.0
  0
LINE
  5
BB
  8
0
 10
0.807403
 20
42.19078
 30
0.0
 11
0.9234030000000001
 21
37.78178
 31
0.0
  0
LINE
  5
BC
  8
0
 10
-2.16425
 20
42.11161
 30
0.0
 11
-1.584886
 21
35.69402
 31
0.0
  0
LINE
  5
BD
  8
0
 10
-4.393211
 20
42.6126
 30
0.0
 11
-5.060505
 21
39.96194000000001
 31
0.0
  0
LINE
  5
BE
  8
0
 10
-5.060505
 20
39.96194000000001
 30
0.0
 11
-4.797213
 21
37.74274
 31
0.0
  0
LINE
  5
BF
  8
0
 10
-4.353472
 20
42.52696
 30
0.0
 11
-5.530602
 21
41.49147
 31
0.0
  0
LINE
  5
C0
  8
0
 10
-5.530602
 20
41.49147
 30
0.0
 11
-6.694114999999999
 21
38.83047
 31
0.0
  0
LINE
  5
C1
  8
0
 10
-6.694114999999999
 20
38.83047
 30
0.0
 11
-7.126761
 21
36.55574
 31
0.0
  0
LINE
  5
C2
  8
0
 10
9.663703
 20
4.589164
 30
0.0
 11
10.1483
 21
1.773363
 31
0.0
  0
LINE
  5
C3
  8
0
 10
11.90208
 20
5.744879
 30
0.0
 11
12.79785
 21
3.244855
 31
0.0
  0
LINE
  5
C4
  8
0
 10
10.96913
 20
1.560572
 30
0.0
 11
10.11978
 21
1.773424
 31
0.0
  0
LINE
  5
C5
  8
0
 10
9.939785
 20
2.943013
 30
0.0
 11
9.737972000000001
 21
1.922534
 31
0.0
  0
LINE
  5
C6
  8
0
 10
12.87403
 20
4.191459
 30
0.0
 11
12.23732
 21
5.156706
 31
0.0
  0
LINE
  5
C7
  8
0
 10
-5.219452
 20
5.810192
 30
0.0
 11
-5.262453
 21
4.378726
 31
0.0
  0
LINE
  5
C8
  8
0
 10
0.632374
 20
0.556171
 30
0.0
 11
-1.906262
 21
0.270752
 31
0.0
  0
LINE
  5
C9
  8
0
 10
-0.469412
 20
61.11747
 30
0.0
 11
-0.030508
 21
60.99675999999999
 31
0.0
  0
LINE
  5
CA
  8
0
 10
-0.030508
 20
60.99675999999999
 30
0.0
 11
0.505562
 21
60.97279
 31
0.0
  0
LINE
  5
CB
  8
0
 10
0.505562
 20
60.97279
 30
0.0
 11
1.167316
 21
61.04552
 31
0.0
  0
LINE
  5
CC
  8
0
 10
1.167316
 20
61.04552
 30
0.0
 11
1.378819
 21
61.26749
 31
0.0
  0
POINT
  5
CD
  8
0
 10
0.518452
 20
61.66288
 30
0.0
  0
LINE
  5
CE
  8
0
 10
-1.251811
 20
63.80576
 30
0.0
 11
-0.589849
 21
63.97543
 31
0.0
  0
LINE
  5
CF
  8
0
 10
-0.589849
 20
63.97543
 30
0.0
 11
-0.110813
 21
63.95159
 31
0.0
  0
LINE
  5
D0
  8
0
 10
-0.110813
 20
63.95159
 30
0.0
 11
-0.082725
 21
63.75191
 31
0.0
  0
LINE
  5
D1
  8
0
 10
1.086557
 20
63.78932
 30
0.0
 11
1.435065
 21
64.06804
 31
0.0
  0
LINE
  5
D2
  8
0
 10
1.435065
 20
64.06804
 30
0.0
 11
2.136288
 21
63.92965
 31
0.0
  0
LINE
  5
D3
  8
0
 10
2.136288
 20
63.92965
 30
0.0
 11
1.691007
 21
63.73669
 31
0.0
  0
LINE
  5
D4
  8
0
 10
1.691007
 20
63.73669
 30
0.0
 11
1.086704
 21
63.85776
 31
0.0
  0
LINE
  5
D5
  8
0
 10
-1.376685
 20
64.08549000000001
 30
0.0
 11
-0.50371
 21
64.24902
 31
0.0
  0
LINE
  5
D6
  8
0
 10
-0.50371
 20
64.24902
 30
0.0
 11
0.16311
 21
64.02515
 31
0.0
  0
LINE
  5
D7
  8
0
 10
1.035251
 20
63.28724
 30
0.0
 11
1.10741
 21
62.36314
 31
0.0
  0
LINE
  5
D8
  8
0
 10
1.10741
 20
62.36314
 30
0.0
 11
1.266124
 21
61.90651999999999
 31
0.0
  0
LINE
  5
D9
  8
0
 10
1.266124
 20
61.90651999999999
 30
0.0
 11
1.145789
 21
61.64442
 31
0.0
  0
LINE
  5
DA
  8
0
 10
2.66467
 20
62.46815
 30
0.0
 11
2.779281
 21
60.06676
 31
0.0
  0
LINE
  5
DB
  8
0
 10
2.779281
 20
60.06676
 30
0.0
 11
2.131104
 21
61.00351999999999
 31
0.0
  0
ENDBLK
  5
DC
  8
0
  0
BLOCK
  8
0
  2
HUM5
 70
     0
 10
0.0
 20
0.0
 30
0.0
  3
HUM5
  1

  0
LINE
  5
DE
  8
0
 10
-2.50319
 20
1.239201
 30
0.0
 11
-2.668931
 21
0.189539
 31
0.0
  0
ARC
  5
DF
  8
0
 10
1.786141
 20
3.899906
 30
0.0
 40
2.120983
 50
220.9268
 51
303.2704
  0
LINE
  5
E0
  8
0
 10
1.253485
 20
53.62828
 30
0.0
 11
2.779175
 21
55.3887
 31
0.0
  0
LINE
  5
E1
  8
0
 10
-1.034961
 20
56.08999
 30
0.0
 11
1.253485
 21
53.62828
 31
0.0
  0
LINE
  5
E2
  8
0
 10
4.656947
 20
62.66506
 30
0.0
 11
4.891669
 21
61.43277
 31
0.0
  0
LINE
  5
E3
  8
0
 10
2.720495
 20
56.03418000000001
 30
0.0
 11
3.390352
 21
55.60886
 31
0.0
  0
LINE
  5
E4
  8
0
 10
2.720495
 20
56.62098
 30
0.0
 11
2.720495
 21
55.33002
 31
0.0
  0
LINE
  5
E5
  8
0
 10
-2.266332
 20
56.39136
 30
0.0
 11
-1.03505
 21
56.50362
 31
0.0
  0
LINE
  5
E6
  8
0
 10
2.830474
 20
56.59035
 30
0.0
 11
3.563425
 21
56.59035
 31
0.0
  0
LINE
  5
E7
  8
0
 10
2.379486
 20
56.74419
 30
0.0
 11
2.830474
 21
56.59035
 31
0.0
  0
LINE
  5
E8
  8
0
 10
3.685584
 20
58.78921
 30
0.0
 11
4.418534999999999
 21
58.78921
 31
0.0
  0
LINE
  5
E9
  8
0
 10
4.052059
 20
60.49941999999999
 30
0.0
 11
4.540694
 21
59.03352
 31
0.0
  0
SOLID
  5
EA
  8
0
 10
0.108097
 20
58.96762
 30
0.0
 11
-2.455287
 21
59.39697
 31
0.0
 12
-1.243052
 22
58.08054
 32
0.0
 13
-1.243052
 23
58.08054
 33
0.0
  0
SOLID
  5
EB
  8
0
 10
0.254589
 20
61.42936
 30
0.0
 11
-3.749587
 21
63.65876
 31
0.0
 12
0.108097
 22
58.96762
 32
0.0
 13
-2.455287
 23
59.39697
 33
0.0
  0
SOLID
  5
EC
  8
0
 10
1.193135
 20
62.53773
 30
0.0
 11
-2.747268
 21
65.52920999999999
 31
0.0
 12
0.254589
 22
61.42936
 32
0.0
 13
-3.749587
 23
63.65876
 33
0.0
  0
SOLID
  5
ED
  8
0
 10
-2.747268
 20
65.52920999999999
 30
0.0
 11
5.374114
 21
63.80299
 31
0.0
 12
1.193135
 22
62.53773
 32
0.0
 13
4.692917
 23
62.67458000000001
 33
0.0
  0
SOLID
  5
EE
  8
0
 10
0.173803
 20
67.24054
 30
0.0
 11
3.813995
 21
66.06206
 31
0.0
 12
-2.747268
 22
65.52920999999999
 32
0.0
 13
5.374114
 23
63.80299
 33
0.0
  0
LINE
  5
EF
  8
0
 10
3.485044
 20
52.70453000000001
 30
0.0
 11
4.896813
 21
55.07344000000001
 31
0.0
  0
LINE
  5
F0
  8
0
 10
1.550184
 20
51.21986
 30
0.0
 11
3.485044
 21
52.70453000000001
 31
0.0
  0
LINE
  5
F1
  8
0
 10
3.390352
 20
55.60886
 30
0.0
 11
5.979616
 21
54.7298
 31
0.0
  0
LINE
  5
F2
  8
0
 10
2.671837
 20
53.79934
 30
0.0
 11
3.390352
 21
55.60886
 31
0.0
  0
LINE
  5
F3
  8
0
 10
1.320679
 20
51.16019
 30
0.0
 11
2.671837
 21
53.79934
 31
0.0
  0
LINE
  5
F4
  8
0
 10
0.747714
 20
53.02118000000001
 30
0.0
 11
1.320679
 21
51.16019
 31
0.0
  0
LINE
  5
F5
  8
0
 10
-2.266332
 20
56.39136
 30
0.0
 11
0.747714
 21
53.02118000000001
 31
0.0
  0
LINE
  5
F6
  8
0
 10
-1.034961
 20
56.08999
 30
0.0
 11
-1.586153
 21
55.84628000000001
 31
0.0
  0
LINE
  5
F7
  8
0
 10
-1.104403
 20
57.90835999999999
 30
0.0
 11
-1.034961
 21
56.08999
 31
0.0
  0
LINE
  5
F8
  8
0
 10
0.254589
 20
61.42936
 30
0.0
 11
0.078423
 21
59.07558
 31
0.0
  0
LINE
  5
F9
  8
0
 10
1.193135
 20
62.53773
 30
0.0
 11
0.254589
 21
61.42936
 31
0.0
  0
LINE
  5
FA
  8
0
 10
0.108097
 20
58.96762
 30
0.0
 11
-1.243052
 21
58.08054
 31
0.0
  0
LINE
  5
FB
  8
0
 10
0.332254
 20
57.75598000000001
 30
0.0
 11
2.379486
 21
56.74419
 31
0.0
  0
POLYLINE
  5
FC
  8
0
 66
     1
 10
0.0
 20
0.0
 30
0.0
 40
0.258
 41
0.258
  0
VERTEX
  5
23E
  8
0
 10
-5.325891
 20
36.7718
 30
0.0
  0
VERTEX
  5
23F
  8
0
 10
-5.546851
 20
41.0178
 30
0.0
  0
SEQEND
  5
268
  8
0
  0
POLYLINE
  5
100
  8
0
 66
     1
 10
0.0
 20
0.0
 30
0.0
 40
0.258
 41
0.258
  0
VERTEX
  5
240
  8
0
 10
-9.388164
 20
36.82675
 30
0.0
  0
VERTEX
  5
241
  8
0
 10
-7.530316
 20
41.62362
 30
0.0
  0
SEQEND
  5
269
  8
0
  0
LINE
  5
104
  8
0
 10
-2.613135
 20
46.27431
 30
0.0
 11
-4.840311
 21
46.8473
 31
0.0
  0
LINE
  5
105
  8
0
 10
-3.012807
 20
44.18699
 30
0.0
 11
-2.613135
 21
46.27431
 31
0.0
  0
LINE
  5
106
  8
0
 10
-5.82969
 20
44.42029
 30
0.0
 11
-3.012807
 21
44.18699
 31
0.0
  0
LINE
  5
107
  8
0
 10
-4.478231
 20
44.12575
 30
0.0
 11
-5.82969
 21
44.42029
 31
0.0
  0
LINE
  5
108
  8
0
 10
-5.741632
 20
40.63298
 30
0.0
 11
-4.478231
 21
44.12575
 31
0.0
  0
LINE
  5
109
  8
0
 10
-5.161087
 20
39.61425
 30
0.0
 11
-5.741632
 21
40.63298
 31
0.0
  0
LINE
  5
10A
  8
0
 10
-6.568110000000001
 20
39.37781
 30
0.0
 11
-5.161087
 21
39.61425
 31
0.0
  0
LINE
  5
10B
  8
0
 10
-7.58178
 20
40.33214
 30
0.0
 11
-6.568110000000001
 21
39.37781
 31
0.0
  0
LINE
  5
10C
  8
0
 10
-6.604695
 20
46.20867
 30
0.0
 11
-7.58178
 21
40.33214
 31
0.0
  0
LINE
  5
10D
  8
0
 10
-5.303741
 20
46.91801
 30
0.0
 11
-6.604695
 21
46.20867
 31
0.0
  0
LINE
  5
10E
  8
0
 10
-4.829571
 20
48.13783
 30
0.0
 11
-5.303741
 21
46.91801
 31
0.0
  0
LINE
  5
10F
  8
0
 10
2.501587
 20
35.41904
 30
0.0
 11
-3.810277
 21
35.84272
 31
0.0
  0
LINE
  5
110
  8
0
 10
8.138203
 20
36.58232
 30
0.0
 11
2.501587
 21
35.41904
 31
0.0
  0
LINE
  5
111
  8
0
 10
10.67852
 20
31.88771
 30
0.0
 11
9.814184
 21
35.1816
 31
0.0
  0
LINE
  5
112
  8
0
 10
10.28012
 20
30.3301
 30
0.0
 11
10.67852
 21
31.88771
 31
0.0
  0
LINE
  5
113
  8
0
 10
11.13752
 20
29.08692
 30
0.0
 11
10.28012
 21
30.3301
 31
0.0
  0
LINE
  5
114
  8
0
 10
11.16498
 20
27.90593
 30
0.0
 11
11.13752
 21
29.08692
 31
0.0
  0
LINE
  5
115
  8
0
 10
13.26556
 20
28.10417
 30
0.0
 11
11.16498
 21
27.90593
 31
0.0
  0
LINE
  5
116
  8
0
 10
13.59579
 20
30.2578
 30
0.0
 11
13.26556
 21
28.10417
 31
0.0
  0
LINE
  5
117
  8
0
 10
12.30527
 20
32.60463
 30
0.0
 11
13.59579
 21
30.2578
 31
0.0
  0
LINE
  5
118
  8
0
 10
11.78092
 20
35.29524
 30
0.0
 11
12.30527
 21
32.60463
 31
0.0
  0
LINE
  5
119
  8
0
 10
7.239180999999999
 20
47.79367
 30
0.0
 11
6.756192
 21
50.45808
 31
0.0
  0
LINE
  5
11A
  8
0
 10
6.272844999999999
 20
44.95974
 30
0.0
 11
7.239180999999999
 21
47.79367
 31
0.0
  0
LINE
  5
11B
  8
0
 10
7.866417
 20
40.67774
 30
0.0
 11
6.272844999999999
 21
44.95974
 31
0.0
  0
LINE
  5
11C
  8
0
 10
7.972471000000001
 20
37.28473
 30
0.0
 11
7.866417
 21
40.67774
 31
0.0
  0
LINE
  5
11D
  8
0
 10
9.11368
 20
36.68649
 30
0.0
 11
7.972471000000001
 21
37.28473
 31
0.0
  0
LINE
  5
11E
  8
0
 10
9.526908
 20
35.27
 30
0.0
 11
9.11368
 21
36.68649
 31
0.0
  0
LINE
  5
11F
  8
0
 10
11.97633
 20
35.65291
 30
0.0
 11
9.526908
 21
35.27
 31
0.0
  0
LINE
  5
120
  8
0
 10
11.93025
 20
37.6348
 30
0.0
 11
11.97633
 21
35.65291
 31
0.0
  0
LINE
  5
121
  8
0
 10
11.41318
 20
42.34929
 30
0.0
 11
11.93025
 21
37.6348
 31
0.0
  0
LINE
  5
122
  8
0
 10
10.17192
 20
46.66665
 30
0.0
 11
11.41318
 21
42.34929
 31
0.0
  0
LINE
  5
123
  8
0
 10
9.040519
 20
52.10027
 30
0.0
 11
10.17192
 21
46.66665
 31
0.0
  0
LINE
  5
124
  8
0
 10
5.979616
 20
54.7298
 30
0.0
 11
9.040519
 21
52.10027
 31
0.0
  0
LINE
  5
125
  8
0
 10
-8.249456
 20
41.00929
 30
0.0
 11
-7.298607000000001
 21
40.42022
 31
0.0
  0
LINE
  5
126
  8
0
 10
-8.469797
 20
42.89206
 30
0.0
 11
-8.249456
 21
41.00929
 31
0.0
  0
LINE
  5
127
  8
0
 10
-7.664126
 20
49.71534
 30
0.0
 11
-8.469797
 21
42.89206
 31
0.0
  0
LINE
  5
128
  8
0
 10
-7.863633
 20
51.2862
 30
0.0
 11
-7.664126
 21
49.71534
 31
0.0
  0
LINE
  5
129
  8
0
 10
-7.361683
 20
52.4795
 30
0.0
 11
-7.863633
 21
51.2862
 31
0.0
  0
LINE
  5
12A
  8
0
 10
-5.45366
 20
53.36594
 30
0.0
 11
-7.361683
 21
52.4795
 31
0.0
  0
LINE
  5
12B
  8
0
 10
-3.320863
 20
55.09969
 30
0.0
 11
-5.45366
 21
53.36594
 31
0.0
  0
LINE
  5
12C
  8
0
 10
1.380658
 20
50.91711
 30
0.0
 11
2.66732
 21
34.71663
 31
0.0
  0
LINE
  5
12D
  8
0
 10
-3.550684
 20
55.0536
 30
0.0
 11
1.380658
 21
50.91711
 31
0.0
  0
LINE
  5
12E
  8
0
 10
-2.266332
 20
56.39136
 30
0.0
 11
-3.550684
 21
55.0536
 31
0.0
  0
LINE
  5
12F
  8
0
 10
-3.936552
 20
36.01635
 30
0.0
 11
-3.364868
 21
30.70553
 31
0.0
  0
LINE
  5
130
  8
0
 10
-4.942956
 20
37.82651
 30
0.0
 11
-3.936552
 21
36.01635
 31
0.0
  0
LINE
  5
131
  8
0
 10
-4.934434
 20
37.46
 30
0.0
 11
-5.213846
 21
31.95282
 31
0.0
  0
LINE
  5
132
  8
0
 10
-9.381849
 20
37.13928
 30
0.0
 11
-4.934434
 21
37.46
 31
0.0
  0
LINE
  5
133
  8
0
 10
-11.83162
 20
30.92971
 30
0.0
 11
-9.381849
 21
37.13928
 31
0.0
  0
LINE
  5
134
  8
0
 10
-10.50984
 20
29.57508
 30
0.0
 11
-12.06586
 21
31.07366
 31
0.0
  0
LINE
  5
135
  8
0
 10
-3.250905
 20
30.47728
 30
0.0
 11
-10.50984
 21
29.57508
 31
0.0
  0
LINE
  5
136
  8
0
 10
-5.388422
 20
31.86727
 30
0.0
 11
-3.250905
 21
30.47728
 31
0.0
  0
LINE
  5
137
  8
0
 10
-12.06586
 20
31.07366
 30
0.0
 11
-5.388422
 21
31.86727
 31
0.0
  0
LINE
  5
138
  8
0
 10
-6.412888
 20
20.43463
 30
0.0
 11
-6.38127
 21
30.17361
 31
0.0
  0
LINE
  5
139
  8
0
 10
-4.193921
 20
19.63056
 30
0.0
 11
-6.412888
 21
20.43463
 31
0.0
  0
LINE
  5
13A
  8
0
 10
-0.155638
 20
20.02326
 30
0.0
 11
-4.193921
 21
19.63056
 31
0.0
  0
LINE
  5
13B
  8
0
 10
6.373111
 20
20.78624
 30
0.0
 11
-0.155638
 21
20.02326
 31
0.0
  0
LINE
  5
13C
  8
0
 10
11.00458
 20
21.95332
 30
0.0
 11
6.373111
 21
20.78624
 31
0.0
  0
LINE
  5
13D
  8
0
 10
10.79119
 20
24.70549
 30
0.0
 11
11.00458
 21
21.95332
 31
0.0
  0
LINE
  5
13E
  8
0
 10
9.649683999999999
 20
29.98948
 30
0.0
 11
10.79119
 21
24.70549
 31
0.0
  0
LINE
  5
13F
  8
0
 10
8.090843
 20
35.11437
 30
0.0
 11
9.649683999999999
 21
29.98948
 31
0.0
  0
LINE
  5
140
  8
0
 10
7.905226
 20
36.67197
 30
0.0
 11
8.090843
 21
35.11437
 31
0.0
  0
POLYLINE
  5
141
  8
0
 66
     1
 10
0.0
 20
0.0
 30
0.0
  0
VERTEX
  5
242
  8
0
 10
6.13224
 20
20.63124
 30
0.0
  0
VERTEX
  5
243
  8
0
 10
5.473389
 20
18.59222
 30
0.0
  0
VERTEX
  5
244
  8
0
 10
5.258705
 20
15.55846
 30
0.0
  0
VERTEX
  5
245
  8
0
 10
4.936375
 20
13.06547
 30
0.0
  0
VERTEX
  5
246
  8
0
 10
4.227329
 20
10.84871
 30
0.0
  0
VERTEX
  5
247
  8
0
 10
3.093676
 20
7.617017999999999
 30
0.0
  0
VERTEX
  5
248
  8
0
 10
2.676324
 20
5.121822
 30
0.0
  0
VERTEX
  5
249
  8
0
 10
2.581609
 20
3.353969
 30
0.0
  0
VERTEX
  5
24A
  8
0
 10
2.943382
 20
2.398064
 30
0.0
  0
SEQEND
  5
26A
  8
0
  0
POLYLINE
  5
14C
  8
0
 66
     1
 10
0.0
 20
0.0
 30
0.0
  0
VERTEX
  5
24B
  8
0
 10
1.897597
 20
19.9216
 30
0.0
  0
VERTEX
  5
24C
  8
0
 10
2.171926
 20
19.22172
 30
0.0
  0
VERTEX
  5
24D
  8
0
 10
1.376698
 20
17.20668
 30
0.0
  0
VERTEX
  5
24E
  8
0
 10
0.589679
 20
15.42273
 30
0.0
  0
VERTEX
  5
24F
  8
0
 10
0.499694
 20
12.86724
 30
0.0
  0
VERTEX
  5
250
  8
0
 10
0.643
 20
9.624491
 30
0.0
  0
VERTEX
  5
251
  8
0
 10
0.465569
 20
6.740997
 30
0.0
  0
VERTEX
  5
252
  8
0
 10
0.581731
 20
4.665662999999999
 30
0.0
  0
VERTEX
  5
253
  8
0
 10
0.099665
 20
2.617166
 30
0.0
  0
VERTEX
  5
254
  8
0
 10
-0.18351
 20
1.945068
 30
0.0
  0
SEQEND
  5
26B
  8
0
  0
POLYLINE
  5
158
  8
0
 66
     1
 10
0.0
 20
0.0
 30
0.0
  0
VERTEX
  5
255
  8
0
 10
-3.958419
 20
19.43231
 30
0.0
  0
VERTEX
  5
256
  8
0
 10
-3.966952
 20
17.46273
 30
0.0
  0
VERTEX
  5
257
  8
0
 10
-4.483114
 20
15.12822
 30
0.0
  0
VERTEX
  5
258
  8
0
 10
-4.519744
 20
13.19874
 30
0.0
  0
VERTEX
  5
259
  8
0
 10
-3.780737
 20
9.453726
 30
0.0
  0
VERTEX
  5
25A
  8
0
 10
-3.546508999999999
 20
6.97368
 30
0.0
  0
VERTEX
  5
25B
  8
0
 10
-3.789917
 20
4.591183
 30
0.0
  0
VERTEX
  5
25C
  8
0
 10
-4.456658999999999
 20
2.891522
 30
0.0
  0
VERTEX
  5
25D
  8
0
 10
-5.047947
 20
2.035695
 30
0.0
  0
VERTEX
  5
25E
  8
0
 10
-4.600619999999999
 20
1.489237
 30
0.0
  0
VERTEX
  5
25F
  8
0
 10
-3.544642
 20
1.636026
 30
0.0
  0
VERTEX
  5
260
  8
0
 10
-1.999974
 20
2.962224
 30
0.0
  0
VERTEX
  5
261
  8
0
 10
-1.919149
 20
4.743335
 30
0.0
  0
VERTEX
  5
262
  8
0
 10
-1.746452
 20
7.830448
 30
0.0
  0
VERTEX
  5
263
  8
0
 10
-1.363505
 20
11.22125
 30
0.0
  0
VERTEX
  5
264
  8
0
 10
-0.529446
 20
13.31868
 30
0.0
  0
VERTEX
  5
265
  8
0
 10
-0.188173
 20
16.16524
 30
0.0
  0
VERTEX
  5
266
  8
0
 10
-0.6594869999999999
 20
17.74336
 30
0.0
  0
VERTEX
  5
267
  8
0
 10
-0.018314
 20
19.95854
 30
0.0
  0
SEQEND
  5
26C
  8
0
  0
ARC
  5
16D
  8
0
 10
-4.638148999999999
 20
1.838657
 30
0.0
 40
2.867467
 50
329.3696
 51
23.06858
  0
LINE
  5
16E
  8
0
 10
-5.047947
 20
2.035695
 30
0.0
 11
-6.830645
 21
0.432325
 31
0.0
  0
ARC
  5
16F
  8
0
 10
-5.81015
 20
4.912574
 30
0.0
 40
4.942637
 50
263.6775
 51
311.9952
  0
LINE
  5
170
  8
0
 10
-2.668931
 20
0.189539
 30
0.0
 11
-2.170774
 21
0.377687
 31
0.0
  0
LINE
  5
171
  8
0
 10
-0.18351
 20
1.945068
 30
0.0
 11
0.045132
 21
0.050007
 31
0.0
  0
LINE
  5
172
  8
0
 10
0.045132
 20
0.050007
 30
0.0
 11
0.72511
 21
0.098577
 31
0.0
  0
LINE
  5
173
  8
0
 10
0.72511
 20
0.098577
 30
0.0
 11
0.7979649999999999
 21
0.827125
 31
0.0
  0
LINE
  5
174
  8
0
 10
0.7979649999999999
 20
0.827125
 30
0.0
 11
1.866502
 21
0.171432
 31
0.0
  0
LINE
  5
175
  8
0
 10
1.866502
 20
0.171432
 30
0.0
 11
5.193537999999999
 21
0.292856
 31
0.0
  0
ARC
  5
176
  8
0
 10
6.491004
 20
4.870269
 30
0.0
 40
4.324051
 50
214.8712
 51
250.1614
  0
LINE
  5
177
  8
0
 10
5.193537999999999
 20
0.292856
 30
0.0
 11
5.023543
 21
0.80284
 31
0.0
  0
LINE
  5
178
  8
0
 10
-6.354458999999999
 20
0.0
 30
0.0
 11
-6.830645
 21
0.432325
 31
0.0
  0
LINE
  5
179
  8
0
 10
3.444633
 20
59.40041
 30
0.0
 11
3.381426
 21
59.14758
 31
0.0
  0
SOLID
  5
17A
  8
0
 10
2.797608
 20
60.72776999999999
 30
0.0
 11
3.366474
 21
60.66455999999999
 31
0.0
 12
2.98723
 22
60.47494
 32
0.0
 13
2.98723
 23
60.47494
 33
0.0
  0
ARC
  5
17B
  8
0
 10
3.042685
 20
60.43379
 30
0.0
 40
0.9287620000000001
 50
46.4568
 51
143.9321
  0
ARC
  5
17C
  8
0
 10
4.820243
 20
60.53815
 30
0.0
 40
0.8241229999999999
 50
85.6013
 51
122.4712
  0
SOLID
  5
17D
  8
0
 10
4.228462
 20
60.75068
 30
0.0
 11
4.354877
 21
60.43465
 31
0.0
 12
4.354877
 22
60.81389
 32
0.0
 13
4.354877
 23
60.81389
 33
0.0
  0
ARC
  5
17E
  8
0
 10
3.716329
 20
59.80973
 30
0.0
 40
1.842244
 50
256.7236
 51
275.6483
  0
LINE
  5
17F
  8
0
 10
4.883451
 20
61.35984000000001
 30
0.0
 11
4.402617
 21
60.47456
 31
0.0
  0
LINE
  5
180
  8
0
 10
4.098256
 20
58.78921
 30
0.0
 11
3.986793
 21
57.96349
 31
0.0
  0
ENDBLK
  5
181
  8
0
  0
ENDSEC
  0
SECTION
  2
ENTITIES
  0
INSERT
  5
182
  8
0
  2
HUM6
 10
12.49274984828273
 20
4.003054638092907
 30
0.0
 41
0.026
 42
0.026
 43
0.026
  0
INSERT
  5
183
  8
0
  2
HUM5
 10
11.86874984828273
 20
3.996554638092907
 30
0.0
 41
0.026
 42
0.026
 43
0.026
  0
ENDSEC
  0
EOF
