  0
SECTION
  2
HEADER
  9
$ACADVER
  1
AC1009
  9
$DWGCODEPAGE
  3
ansi_1252
  9
$INSBASE
 10
3.650023156449618
 20
6.401667021443544
 30
0.0
  9
$EXTMIN
 10
3.752840484745088
 20
6.399758191777583
 30
0.0
  9
$EXTMAX
 10
5.607139459342091
 20
7.951381083955903
 30
0.0
  9
$LIMMIN
 10
0.0
 20
0.0
  9
$LIMMAX
 10
410.0
 20
287.0
  9
$ORTHOMODE
 70
     0
  9
$REGENMODE
 70
     1
  9
$FILLMODE
 70
     1
  9
$QTEXTMODE
 70
     0
  9
$MIRRTEXT
 70
     1
  9
$DRAGMODE
 70
     2
  9
$LTSCALE
 40
25.0
  9
$OSMODE
 70
    37
  9
$ATTMODE
 70
     1
  9
$TEXTSIZE
 40
3.5
  9
$TRACEWID
 40
1.0
  9
$TEXTSTYLE
  7
STANDARD
  9
$CLAYER
  8
0
  9
$CELTYPE
  6
BYLAYER
  9
$CECOLOR
 62
   256
  9
$DIMSCALE
 40
1.0
  9
$DIMASZ
 40
3.5
  9
$DIMEXO
 40
0.1
  9
$DIMDLI
 40
7.0
  9
$DIMRND
 40
0.0
  9
$DIMDLE
 40
0.0
  9
$DIMEXE
 40
1.8
  9
$DIMTP
 40
0.0
  9
$DIMTM
 40
0.0
  9
$DIMTXT
 40
3.5
  9
$DIMCEN
 40
1.5
  9
$DIMTSZ
 40
0.0
  9
$DIMTOL
 70
     0
  9
$DIMLIM
 70
     0
  9
$DIMTIH
 70
     0
  9
$DIMTOH
 70
     0
  9
$DIMSE1
 70
     0
  9
$DIMSE2
 70
     0
  9
$DIMTAD
 70
     0
  9
$DIMZIN
 70
     0
  9
$DIMBLK
  1

  9
$DIMASO
 70
     1
  9
$DIMSHO
 70
     0
  9
$DIMPOST
  1

  9
$DIMAPOST
  1

  9
$DIMALT
 70
     0
  9
$DIMALTD
 70
     2
  9
$DIMALTF
 40
25.4
  9
$DIMLFAC
 40
1.0
  9
$DIMTOFL
 70
     0
  9
$DIMTVP
 40
0.0
  9
$DIMTIX
 70
     0
  9
$DIMSOXD
 70
     0
  9
$DIMSAH
 70
     0
  9
$DIMBLK1
  1

  9
$DIMBLK2
  1

  9
$DIMSTYLE
  2
STANDARD
  9
$DIMCLRD
 70
     0
  9
$DIMCLRE
 70
     0
  9
$DIMCLRT
 70
     0
  9
$DIMTFAC
 40
1.0
  9
$DIMGAP
 40
0.09
  9
$LUNITS
 70
     2
  9
$LUPREC
 70
     3
  9
$SKETCHINC
 40
1.0
  9
$FILLETRAD
 40
0.0
  9
$AUNITS
 70
     0
  9
$AUPREC
 70
     0
  9
$MENU
  1
EICAD12
  9
$ELEVATION
 40
0.0
  9
$PELEVATION
 40
0.0
  9
$THICKNESS
 40
0.0
  9
$LIMCHECK
 70
     0
  9
$CHAMFERA
 40
0.0
  9
$CHAMFERB
 40
0.0
  9
$SKPOLY
 70
     0
  9
$TDCREATE
 40
2449027.43035706
  9
$TDUPDATE
 40
2457483.532361111
  9
$TDINDWG
 40
0.0008911458
  9
$TDUSRTIMER
 40
0.0008911458
  9
$USRTIMER
 70
     1
  9
$ANGBASE
 50
0.0
  9
$ANGDIR
 70
     0
  9
$PDMODE
 70
     0
  9
$PDSIZE
 40
0.0
  9
$PLINEWID
 40
0.0
  9
$COORDS
 70
     1
  9
$SPLFRAME
 70
     0
  9
$SPLINETYPE
 70
     6
  9
$SPLINESEGS
 70
     8
  9
$ATTDIA
 70
     0
  9
$ATTREQ
 70
     1
  9
$HANDLING
 70
     1
  9
$HANDSEED
  5
193
  9
$SURFTAB1
 70
     6
  9
$SURFTAB2
 70
     6
  9
$SURFTYPE
 70
     6
  9
$SURFU
 70
     6
  9
$SURFV
 70
     6
  9
$UCSNAME
  2

  9
$UCSORG
 10
0.0
 20
0.0
 30
0.0
  9
$UCSXDIR
 10
1.0
 20
0.0
 30
0.0
  9
$UCSYDIR
 10
0.0
 20
1.0
 30
0.0
  9
$PUCSNAME
  2

  9
$PUCSORG
 10
0.0
 20
0.0
 30
0.0
  9
$PUCSXDIR
 10
1.0
 20
0.0
 30
0.0
  9
$PUCSYDIR
 10
0.0
 20
1.0
 30
0.0
  9
$USERI1
 70
     0
  9
$USERI2
 70
     0
  9
$USERI3
 70
     0
  9
$USERI4
 70
     0
  9
$USERI5
 70
     0
  9
$USERR1
 40
0.0
  9
$USERR2
 40
0.0
  9
$USERR3
 40
0.0
  9
$USERR4
 40
0.0
  9
$USERR5
 40
0.0
  9
$WORLDVIEW
 70
     1
  9
$SHADEDGE
 70
     3
  9
$SHADEDIF
 70
    70
  9
$TILEMODE
 70
     1
  9
$MAXACTVP
 70
    16
  9
$PLIMCHECK
 70
     0
  9
$PEXTMIN
 10
1.000000000000000E+20
 20
1.000000000000000E+20
 30
1.000000000000000E+20
  9
$PEXTMAX
 10
-1.000000000000000E+20
 20
-1.000000000000000E+20
 30
-1.000000000000000E+20
  9
$PLIMMIN
 10
0.0
 20
0.0
  9
$PLIMMAX
 10
12.0
 20
9.0
  9
$UNITMODE
 70
     0
  9
$VISRETAIN
 70
     0
  9
$PLINEGEN
 70
     0
  9
$PSLTSCALE
 70
     0
  0
ENDSEC
  0
SECTION
  2
TABLES
  0
TABLE
  2
VPORT
 70
     1
  0
VPORT
  2
*ACTIVE
 70
     0
 10
0.0
 20
0.0
 11
1.0
 21
1.0
 12
4.66392589228218
 22
7.348207345776955
 13
0.0
 23
0.0
 14
1.0
 24
1.0
 15
10.0
 25
10.0
 16
0.0
 26
0.0
 36
1.0
 17
0.0
 27
0.0
 37
0.0
 40
1.943716206412481
 41
1.503537735849057
 42
50.0
 43
0.0
 44
0.0
 50
0.0
 51
0.0
 71
     0
 72
   100
 73
     1
 74
     0
 75
     0
 76
     0
 77
     0
 78
     0
  0
ENDTAB
  0
TABLE
  2
LTYPE
 70
     1
  0
LTYPE
  2
CONTINUOUS
 70
     0
  3
Ausgezogene Linie
 72
    65
 73
     0
 40
0.0
  0
ENDTAB
  0
TABLE
  2
LAYER
 70
     1
  0
LAYER
  2
0
 70
     0
 62
     7
  6
CONTINUOUS
  0
ENDTAB
  0
TABLE
  2
STYLE
 70
     1
  0
STYLE
  2
STANDARD
 70
     0
 40
0.0
 41
1.0
 50
0.0
 71
     0
 42
3.5
  3
txt.shx
  4

  0
ENDTAB
  0
TABLE
  2
VIEW
 70
     0
  0
ENDTAB
  0
TABLE
  2
UCS
 70
     0
  0
ENDTAB
  0
TABLE
  2
APPID
 70
     2
  0
APPID
  2
ACAD
 70
     0
  0
APPID
  2
DCO15
 70
     0
  0
ENDTAB
  0
TABLE
  2
DIMSTYLE
 70
     1
  0
DIMSTYLE
  2
STANDARD
 70
     0
  3

  4

  5

  6

  7

 40
1.0
 41
0.18
 42
0.0625
 43
0.38
 44
0.18
 45
0.0
 46
0.0
 47
0.0
 48
0.0
140
0.18
141
0.09
142
0.0
143
25.4
144
1.0
145
0.0
146
1.0
147
0.09
 71
     0
 72
     0
 73
     1
 74
     1
 75
     0
 76
     0
 77
     0
 78
     0
170
     0
171
     2
172
     0
173
     0
174
     0
175
     0
176
     0
177
     0
178
     0
  0
ENDTAB
  0
ENDSEC
  0
SECTION
  2
BLOCKS
  0
BLOCK
  8
0
  2
$MODEL_SPACE
 70
     0
 10
0.0
 20
0.0
 30
0.0
  3
$MODEL_SPACE
  1

  0
ENDBLK
  5
104
  8
0
  0
BLOCK
 67
     1
  8
0
  2
$PAPER_SPACE
 70
     0
 10
0.0
 20
0.0
 30
0.0
  3
$PAPER_SPACE
  1

  0
ENDBLK
  5
102
 67
     1
  8
0
  0
ENDSEC
  0
SECTION
  2
ENTITIES
  0
ARC
  5
21
  8
0
 10
4.736700341132639
 20
6.791475019045079
 30
0.0
 40
0.2380978746766871
 50
278.4552980550156
 51
16.6935380619198
  0
LINE
  5
22
  8
0
 10
4.772505737367531
 20
6.59669051320183
 30
0.0
 11
4.896219829456657
 21
6.677690075549537
 31
0.0
  0
LINE
  5
23
  8
0
 10
4.812213963657865
 20
6.977700076569455
 30
0.0
 11
4.785806019208362
 21
6.951762241307203
 31
0.0
  0
LINE
  5
24
  8
0
 10
4.733443013461786
 20
7.006417398647812
 30
0.0
 11
4.964508758095453
 21
7.007168643417517
 31
0.0
  0
LINE
  5
25
  8
0
 10
4.848792417407298
 20
7.193871098778152
 30
0.0
 11
4.692678500379089
 21
7.162357173266095
 31
0.0
  0
LINE
  5
26
  8
0
 10
4.850294586596553
 20
7.209419183878005
 30
0.0
 11
4.784554718343887
 21
7.203698898125794
 31
0.0
  0
LINE
  5
27
  8
0
 10
4.79041723452593
 20
7.409317213329669
 30
0.0
 11
4.887035997188407
 21
7.419780043779558
 31
0.0
  0
LINE
  5
28
  8
0
 10
4.83324236723487
 20
7.402765347097906
 30
0.0
 11
4.769330581856305
 21
7.400972821831266
 31
0.0
  0
LINE
  5
29
  8
0
 10
4.769023429511476
 20
7.342816879812369
 30
0.0
 11
4.831541683595734
 21
7.325187878441061
 31
0.0
  0
ARC
  5
2A
  8
0
 10
4.085644329034364
 20
6.682467021443544
 30
0.0
 40
0.1053
 50
73.11881789126548
 51
119.258359800411
  0
ARC
  5
2B
  8
0
 10
4.085644329034364
 20
6.682467021443544
 30
0.0
 40
0.1872
 50
72.44355907513525
 51
323.6467557986522
  0
ARC
  5
2C
  8
0
 10
4.085644329034364
 20
6.682467021443544
 30
0.0
 40
0.2808
 50
351.7377881169231
 51
334.2247473486947
  0
LINE
  5
2D
  8
0
 10
3.752840484745088
 20
6.872531671566284
 30
0.0
 11
3.83471117146019
 21
6.874722711684054
 31
0.0
  0
ARC
  5
2E
  8
0
 10
4.047449832444666
 20
6.7562567639711
 30
0.0
 40
0.2434993195986313
 50
60.05444143245078
 51
150.8882544813652
  0
ARC
  5
2F
  8
0
 10
4.182708021635551
 20
6.565048753521652
 30
0.0
 40
0.5285185371976235
 50
106.951480425876
 51
144.4239769477528
  0
LINE
  5
30
  8
0
 10
3.962701657435765
 20
6.721284609500262
 30
0.0
 11
3.965488720024381
 21
6.760127662776159
 31
0.0
  0
LINE
  5
31
  8
0
 10
3.965488720024381
 20
6.760127662776159
 30
0.0
 11
3.999589228602599
 21
6.788219494597355
 31
0.0
  0
LINE
  5
32
  8
0
 10
3.999589228602599
 20
6.788219494597355
 30
0.0
 11
4.43281913751959
 21
6.614298788160548
 31
0.0
  0
LINE
  5
33
  8
0
 10
4.43281913751959
 20
6.614298788160548
 30
0.0
 11
4.443841953711661
 21
6.635928630304914
 31
0.0
  0
LINE
  5
34
  8
0
 10
4.437977472457044
 20
6.637702394231539
 30
0.0
 11
4.502486766257825
 21
6.618190991038659
 31
0.0
  0
LINE
  5
35
  8
0
 10
4.502486766257825
 20
6.618190991038659
 30
0.0
 11
4.526795033095858
 21
6.64988466966058
 31
0.0
  0
LINE
  5
36
  8
0
 10
4.526795033095858
 20
6.64988466966058
 30
0.0
 11
4.552135359935897
 21
6.644780653670599
 31
0.0
  0
LINE
  5
37
  8
0
 10
4.552135359935897
 20
6.644780653670599
 30
0.0
 11
4.553167419937902
 21
6.607982959058697
 31
0.0
  0
LINE
  5
38
  8
0
 10
4.553167419937902
 20
6.607982959058697
 30
0.0
 11
4.667868496891495
 21
6.595694010807283
 31
0.0
  0
LINE
  5
39
  8
0
 10
3.962701657435765
 20
6.721284609500262
 30
0.0
 11
4.404963342828306
 21
6.570876147029394
 31
0.0
  0
LINE
  5
3A
  8
0
 10
3.982231821968662
 20
6.716017636667859
 30
0.0
 11
3.960294827479468
 21
6.668884510841032
 31
0.0
  0
LINE
  5
3B
  8
0
 10
3.960294827479468
 20
6.668884510841032
 30
0.0
 11
3.96154416327137
 21
6.624339933152941
 31
0.0
  0
LINE
  5
3C
  8
0
 10
3.96154416327137
 20
6.624339933152941
 30
0.0
 11
4.078344917836431
 21
6.606295141541858
 31
0.0
  0
LINE
  5
3D
  8
0
 10
4.078344917836431
 20
6.606295141541858
 30
0.0
 11
4.160501974348533
 21
6.579525725800052
 31
0.0
  0
LINE
  5
3E
  8
0
 10
4.160501974348533
 20
6.579525725800052
 30
0.0
 11
4.319910585832639
 21
6.562675951033397
 31
0.0
  0
LINE
  5
3F
  8
0
 10
4.319910585832639
 20
6.562675951033397
 30
0.0
 11
4.485237997518835
 21
6.542115691571068
 31
0.0
  0
LINE
  5
40
  8
0
 10
4.485237997518835
 20
6.542115691571068
 30
0.0
 11
4.544896108726989
 21
6.557356624326093
 31
0.0
  0
LINE
  5
41
  8
0
 10
4.544896108726989
 20
6.557356624326093
 30
0.0
 11
4.771709714495437
 21
6.555965058104359
 31
0.0
  0
ARC
  5
42
  8
0
 10
4.668548558341791
 20
6.729284434734512
 30
0.0
 40
0.1047858520769187
 50
139.752518096812
 51
271.5376585994305
  0
LINE
  5
43
  8
0
 10
4.671360380212438
 20
6.624536315642798
 30
0.0
 11
4.680990990695035
 21
6.611568009591981
 31
0.0
  0
LINE
  5
44
  8
0
 10
4.680990990695035
 20
6.611568009591981
 30
0.0
 11
4.669805217660542
 21
6.595748329754756
 31
0.0
  0
ARC
  5
45
  8
0
 10
4.606888065900196
 20
6.705094022651841
 30
0.0
 40
0.070570731298045
 50
281.4875791420166
 51
121.354187190032
  0
LINE
  5
46
  8
0
 10
4.669750898713068
 20
6.597685050523804
 30
0.0
 11
4.772505737367531
 21
6.59669051320183
 31
0.0
  0
LINE
  5
47
  8
0
 10
4.787688421029936
 20
6.953753281023724
 30
0.0
 11
4.759253879256454
 21
6.86185830171891
 31
0.0
  0
LINE
  5
48
  8
0
 10
4.759253879256454
 20
6.86185830171891
 30
0.0
 11
4.753842710921645
 21
6.778362032859974
 31
0.0
  0
LINE
  5
49
  8
0
 10
4.753842710921645
 20
6.778362032859974
 30
0.0
 11
4.716466269227546
 21
6.728857634684307
 31
0.0
  0
LINE
  5
4A
  8
0
 10
4.716466269227546
 20
6.728857634684307
 30
0.0
 11
4.673532498623658
 21
6.739282942454165
 31
0.0
  0
CIRCLE
  5
4B
  8
0
 10
4.767690112382363
 20
6.699282395013872
 30
0.0
 40
0.0329941356416742
  0
LINE
  5
4C
  8
0
 10
4.58668721636135
 20
6.794994531836734
 30
0.0
 11
4.656064489022198
 21
6.878346605193263
 31
0.0
  0
LINE
  5
4D
  8
0
 10
4.656064489022198
 20
6.878346605193263
 30
0.0
 11
4.528602389557368
 21
6.930980775909831
 31
0.0
  0
LINE
  5
4E
  8
0
 10
4.528602389557368
 20
6.930980775909831
 30
0.0
 11
4.503063548267449
 21
6.874055408342819
 31
0.0
  0
LINE
  5
4F
  8
0
 10
4.503063548267449
 20
6.874055408342819
 30
0.0
 11
4.480529045356041
 21
6.848226210975515
 31
0.0
  0
LINE
  5
50
  8
0
 10
4.480529045356041
 20
6.848226210975515
 30
0.0
 11
4.48344350717962
 21
6.813419556080134
 31
0.0
  0
LINE
  5
51
  8
0
 10
4.48344350717962
 20
6.813419556080134
 30
0.0
 11
4.451225400422976
 21
6.78731876397546
 31
0.0
  0
LINE
  5
52
  8
0
 10
4.451225400422976
 20
6.78731876397546
 30
0.0
 11
4.448601294676782
 21
6.742665548392421
 31
0.0
  0
LINE
  5
53
  8
0
 10
4.448601294676782
 20
6.742665548392421
 30
0.0
 11
4.426990213872432
 21
6.683912097951309
 31
0.0
  0
LINE
  5
54
  8
0
 10
4.426990213872432
 20
6.683912097951309
 30
0.0
 11
4.437977472457044
 21
6.637702394231539
 31
0.0
  0
LINE
  5
55
  8
0
 10
4.44945163649635
 20
6.781454282720843
 30
0.0
 11
4.388707146338716
 21
6.804947765346767
 31
0.0
  0
LINE
  5
56
  8
0
 10
4.388707146338716
 20
6.804947765346767
 30
0.0
 11
4.307273032411218
 21
6.944155623588272
 31
0.0
  0
LINE
  5
57
  8
0
 10
4.307273032411218
 20
6.944155623588272
 30
0.0
 11
4.337391461556393
 21
6.976012259052615
 31
0.0
  0
LINE
  5
58
  8
0
 10
4.337391461556393
 20
6.976012259052615
 30
0.0
 11
4.536809770410914
 21
6.963508262057283
 31
0.0
  0
ARC
  5
59
  8
0
 10
4.71356818394304
 20
6.890605802752713
 30
0.0
 40
0.1912022628711642
 50
106.1883215184008
 51
167.8260967447953
  0
LINE
  5
5A
  8
0
 10
4.566883492018509
 20
7.017337187644873
 30
0.0
 11
4.517813645422636
 21
7.039219863186593
 31
0.0
  0
LINE
  5
5B
  8
0
 10
4.517813645422636
 20
7.039219863186593
 30
0.0
 11
4.471603941702866
 21
7.02823260460198
 31
0.0
  0
LINE
  5
5C
  8
0
 10
4.471603941702866
 20
7.02823260460198
 30
0.0
 11
4.407203285797034
 21
7.043870566256766
 31
0.0
  0
LINE
  5
5D
  8
0
 10
4.407203285797034
 20
7.043870566256766
 30
0.0
 11
4.321607339326627
 21
7.055037577951244
 31
0.0
  0
LINE
  5
5E
  8
0
 10
4.321607339326627
 20
7.055037577951244
 30
0.0
 11
4.239124369129681
 21
7.093427318307333
 31
0.0
  0
LINE
  5
5F
  8
0
 10
4.239124369129681
 20
7.093427318307333
 30
0.0
 11
4.19988232188145
 21
7.179547692912463
 31
0.0
  0
LINE
  5
60
  8
0
 10
4.19988232188145
 20
7.179547692912463
 30
0.0
 11
4.190451551433568
 21
7.239368760963038
 31
0.0
  0
LINE
  5
61
  8
0
 10
4.190451551433568
 20
7.239368760963038
 30
0.0
 11
4.205907794905915
 21
7.379355845809195
 31
0.0
  0
LINE
  5
62
  8
0
 10
4.205907794905915
 20
7.379355845809195
 30
0.0
 11
4.261546304000994
 21
7.537914115473733
 31
0.0
  0
LINE
  5
63
  8
0
 10
4.261546304000994
 20
7.537914115473733
 30
0.0
 11
4.26998057205433
 21
7.582730287899194
 31
0.0
  0
LINE
  5
64
  8
0
 10
4.26998057205433
 20
7.582730287899194
 30
0.0
 11
4.368300018355942
 21
7.670770587005929
 31
0.0
  0
LINE
  5
65
  8
0
 10
4.031659209711691
 20
7.16513834063699
 30
0.0
 11
4.020111965384896
 21
7.093099439549915
 31
0.0
  0
LINE
  5
66
  8
0
 10
4.020111965384896
 20
7.093099439549915
 30
0.0
 11
4.038954744940647
 21
7.043233570081947
 31
0.0
  0
LINE
  5
67
  8
0
 10
4.038954744940647
 20
7.043233570081947
 30
0.0
 11
4.134831803678503
 21
7.011034224665319
 31
0.0
  0
LINE
  5
68
  8
0
 10
4.134831803678503
 20
7.011034224665319
 30
0.0
 11
4.552150191130766
 21
6.989788545298417
 31
0.0
  0
LINE
  5
69
  8
0
 10
4.029722488942644
 20
7.165084021689515
 30
0.0
 11
4.070991133514855
 21
7.144920791126947
 31
0.0
  0
LINE
  5
6A
  8
0
 10
4.070991133514855
 20
7.144920791126947
 30
0.0
 11
4.235250927591586
 21
7.093318680412385
 31
0.0
  0
LINE
  5
6B
  8
0
 10
4.029722488942644
 20
7.165084021689515
 30
0.0
 11
4.095299400352888
 21
7.176614469748868
 31
0.0
  0
LINE
  5
6C
  8
0
 10
4.095299400352888
 20
7.176614469748868
 30
0.0
 11
4.214525746214263
 21
7.141193510163832
 31
0.0
  0
LINE
  5
6D
  8
0
 10
4.654182087200625
 20
6.876355565476742
 30
0.0
 11
4.654127768253151
 21
6.87829228624579
 31
0.0
  0
LINE
  5
6E
  8
0
 10
4.654127768253151
 20
6.87829228624579
 30
0.0
 11
4.689947721810521
 21
6.91418532009065
 31
0.0
  0
LINE
  5
6F
  8
0
 10
4.689947721810521
 20
6.91418532009065
 30
0.0
 11
4.763125355721975
 21
7.069359018744358
 31
0.0
  0
LINE
  5
70
  8
0
 10
4.763125355721975
 20
7.069359018744358
 30
0.0
 11
4.756174495517879
 21
7.109867198051933
 31
0.0
  0
LINE
  5
71
  8
0
 10
4.756174495517879
 20
7.109867198051933
 30
0.0
 11
4.686814019124473
 21
7.16413093719272
 31
0.0
  0
LINE
  5
72
  8
0
 10
4.686814019124473
 20
7.16413093719272
 30
0.0
 11
4.604494005769947
 21
7.196710515241667
 31
0.0
  0
LINE
  5
73
  8
0
 10
4.604494005769947
 20
7.196710515241667
 30
0.0
 11
4.487964845942256
 21
7.205071703007513
 31
0.0
  0
LINE
  5
74
  8
0
 10
4.487964845942256
 20
7.205071703007513
 30
0.0
 11
4.468054448777042
 21
7.223895721223248
 31
0.0
  0
LINE
  5
75
  8
0
 10
4.468054448777042
 20
7.223895721223248
 30
0.0
 11
4.472180723712491
 21
7.284097021906141
 31
0.0
  0
LINE
  5
76
  8
0
 10
4.472180723712491
 20
7.284097021906141
 30
0.0
 11
4.513376287997211
 21
7.335646778745803
 31
0.0
  0
LINE
  5
77
  8
0
 10
4.513376287997211
 20
7.335646778745803
 30
0.0
 11
4.516054712690879
 21
7.378363273559795
 31
0.0
  0
LINE
  5
78
  8
0
 10
4.516054712690879
 20
7.378363273559795
 30
0.0
 11
4.646901383166538
 21
7.343268227659602
 31
0.0
  0
LINE
  5
79
  8
0
 10
4.646901383166538
 20
7.343268227659602
 30
0.0
 11
4.748099733684272
 21
7.328662326006822
 31
0.0
  0
LINE
  5
7A
  8
0
 10
4.748099733684272
 20
7.328662326006822
 30
0.0
 11
4.769023429511476
 21
7.342816879812369
 31
0.0
  0
LINE
  5
7B
  8
0
 10
4.769023429511476
 20
7.342816879812369
 30
0.0
 11
4.771267302625351
 21
7.40102714077874
 31
0.0
  0
LINE
  5
7C
  8
0
 10
4.771267302625351
 20
7.40102714077874
 30
0.0
 11
4.663606962430788
 21
7.438710734817668
 31
0.0
  0
LINE
  5
7D
  8
0
 10
4.663606962430788
 20
7.438710734817668
 30
0.0
 11
4.610989587981662
 21
7.448864447850155
 31
0.0
  0
LINE
  5
7E
  8
0
 10
4.610989587981662
 20
7.448864447850155
 30
0.0
 11
4.5630959968902
 21
7.497915533106013
 31
0.0
  0
LINE
  5
7F
  8
0
 10
4.5630959968902
 20
7.497915533106013
 30
0.0
 11
4.505844715638344
 21
7.535074699010217
 31
0.0
  0
LINE
  5
80
  8
0
 10
4.505844715638344
 20
7.535074699010217
 30
0.0
 11
4.502712978024869
 21
7.577628236981788
 31
0.0
  0
LINE
  5
81
  8
0
 10
4.502712978024869
 20
7.577628236981788
 30
0.0
 11
4.372173459894038
 21
7.670879224900878
 31
0.0
  0
LINE
  5
82
  8
0
 10
4.372173459894038
 20
7.670879224900878
 30
0.0
 11
4.408536602926148
 21
7.687405051055263
 31
0.0
  0
LINE
  5
83
  8
0
 10
4.408536602926148
 20
7.687405051055263
 30
0.0
 11
4.473263172516823
 21
7.660146764786193
 31
0.0
  0
LINE
  5
84
  8
0
 10
4.473263172516823
 20
7.660146764786193
 30
0.0
 11
4.538587250529713
 21
7.6115845500576
 31
0.0
  0
LINE
  5
85
  8
0
 10
4.538587250529713
 20
7.6115845500576
 30
0.0
 11
4.537736908710145
 21
7.572795815729176
 31
0.0
  0
LINE
  5
86
  8
0
 10
4.537736908710145
 20
7.572795815729176
 30
0.0
 11
4.510894412680851
 21
7.562351746619304
 31
0.0
  0
LINE
  5
87
  8
0
 10
4.784554718343887
 20
7.203698898125794
 30
0.0
 11
4.767830377739622
 21
7.178032657600912
 31
0.0
  0
LINE
  5
88
  8
0
 10
4.539673629479193
 20
7.572850134676651
 30
0.0
 11
4.609631614294813
 21
7.497282467076341
 31
0.0
  0
LINE
  5
89
  8
0
 10
4.609631614294813
 20
7.497282467076341
 30
0.0
 11
4.688458418743561
 21
7.451037205749114
 31
0.0
  0
LINE
  5
8A
  8
0
 10
4.688458418743561
 20
7.451037205749114
 30
0.0
 11
4.79041723452593
 21
7.409317213329669
 31
0.0
  0
LINE
  5
8B
  8
0
 10
4.538424293687291
 20
7.617394712364741
 30
0.0
 11
4.575004712509297
 21
7.626173655442937
 31
0.0
  0
LINE
  5
8C
  8
0
 10
4.575004712509297
 20
7.626173655442937
 30
0.0
 11
4.592913118113125
 21
7.670619702999574
 31
0.0
  0
LINE
  5
8D
  8
0
 10
4.429915576745733
 20
7.408897492944747
 30
0.0
 11
4.516054712690879
 21
7.378363273559795
 31
0.0
  0
LINE
  5
8E
  8
0
 10
4.169005392544213
 20
6.967413069084285
 30
0.0
 11
4.167883455987274
 21
6.938307938601098
 31
0.0
  0
LINE
  5
8F
  8
0
 10
4.167883455987274
 20
6.938307938601098
 30
0.0
 11
4.105312848028116
 21
6.750481581610953
 31
0.0
  0
LINE
  5
90
  8
0
 10
4.208921737611703
 20
6.934759154762155
 30
0.0
 11
4.130924769605524
 21
6.735693961775735
 31
0.0
  0
ARC
  5
91
  8
0
 10
4.085644329034364
 20
6.682467021443544
 30
0.0
 40
0.1053
 50
217.7266730714853
 51
296.7775146595184
  0
ARC
  5
92
  8
0
 10
4.085644329034364
 20
6.682467021443544
 30
0.0
 40
0.1053
 50
16.99552598564214
 51
56.13136514046605
  0
ARC
  5
93
  8
0
 10
4.085644329034364
 20
6.682467021443544
 30
0.0
 40
0.1872
 50
358.7971959026708
 51
61.62616457164475
  0
ARC
  5
94
  8
0
 10
4.494454681491661
 20
7.798919685609366
 30
0.0
 40
0.1524613983465368
 50
0.1457834447957065
 51
217.1694128057705
  0
LINE
  5
95
  8
0
 10
4.646915586322672
 20
7.799307608141463
 30
0.0
 11
4.533495093533157
 21
7.829934301247675
 31
0.0
  0
LINE
  5
96
  8
0
 10
4.533495093533157
 20
7.829934301247675
 30
0.0
 11
4.494592192033429
 21
7.698037781309813
 31
0.0
  0
LINE
  5
97
  8
0
 10
4.494592192033429
 20
7.698037781309813
 30
0.0
 11
4.372965424686159
 21
7.706806502694923
 31
0.0
  0
LINE
  5
98
  8
0
 10
4.639771005451638
 20
7.800538744625002
 30
0.0
 11
4.636857272518192
 21
7.652537279526733
 31
0.0
  0
LINE
  5
99
  8
0
 10
4.636857272518192
 20
7.652537279526733
 30
0.0
 11
4.498021973152721
 21
7.709666122033613
 31
0.0
  0
LINE
  5
9A
  8
0
 10
4.407608785069496
 20
7.688598207409207
 30
0.0
 11
4.402884290830943
 21
7.704649492300715
 31
0.0
  0
ARC
  5
9B
  8
0
 10
5.326339459342091
 20
6.680558191777584
 30
0.0
 40
0.117
 50
125.8267041445583
 51
112.5097701151431
  0
ARC
  5
9C
  8
0
 10
5.326339459342091
 20
6.680558191777584
 30
0.0
 40
0.1872
 50
122.9192582701941
 51
114.0994998852568
  0
ARC
  5
9D
  8
0
 10
5.326339459342091
 20
6.680558191777584
 30
0.0
 40
0.2808
 50
121.3098551074279
 51
114.9817246739708
  0
ARC
  5
9E
  8
0
 10
5.337529473011499
 20
6.669823867091683
 30
0.0
 40
0.340124009932236
 50
50.54198224028211
 51
116.1591141927149
  0
CIRCLE
  5
9F
  8
0
 10
5.326339459342091
 20
6.680558191777584
 30
0.0
 40
0.0117
  0
LINE
  5
A0
  8
0
 10
5.336127038767801
 20
6.680336872780893
 30
0.0
 11
5.038517972486459
 21
7.270907343032831
 31
0.0
  0
LINE
  5
A1
  8
0
 10
5.313103665329127
 20
6.671938162335016
 30
0.0
 11
4.998064112126358
 21
7.262019762059688
 31
0.0
  0
LINE
  5
A2
  8
0
 10
4.896219829456657
 20
6.677690075549537
 30
0.0
 11
4.9078757116784
 21
6.745855535098516
 31
0.0
  0
LINE
  5
A3
  8
0
 10
4.9078757116784
 20
6.745855535098516
 30
0.0
 11
4.942193496046515
 21
6.766200483843523
 31
0.0
  0
LINE
  5
A4
  8
0
 10
4.942193496046515
 20
6.766200483843523
 30
0.0
 11
4.946537046771859
 21
6.818654901450226
 31
0.0
  0
LINE
  5
A5
  8
0
 10
4.946537046771859
 20
6.818654901450226
 30
0.0
 11
4.919947384139919
 21
6.868303495128298
 31
0.0
  0
LINE
  5
A6
  8
0
 10
4.919947384139919
 20
6.868303495128298
 30
0.0
 11
4.865610564711642
 21
6.870656006137121
 31
0.0
  0
LINE
  5
A7
  8
0
 10
4.865610564711642
 20
6.870656006137121
 30
0.0
 11
4.897502757783443
 21
6.908377122856081
 31
0.0
  0
LINE
  5
A8
  8
0
 10
4.897502757783443
 20
6.908377122856081
 30
0.0
 11
4.888506538915352
 21
6.952704424754276
 31
0.0
  0
LINE
  5
A9
  8
0
 10
4.888506538915352
 20
6.952704424754276
 30
0.0
 11
4.812213963657865
 21
6.977700076569455
 31
0.0
  0
LINE
  5
AA
  8
0
 10
5.178070505752824
 20
7.270944865712862
 30
0.0
 11
5.176877453980969
 21
7.106160643501407
 31
0.0
  0
LINE
  5
AB
  8
0
 10
5.176877453980969
 20
7.106160643501407
 30
0.0
 11
5.217548590130966
 21
7.107301341398361
 31
0.0
  0
LINE
  5
AC
  8
0
 10
5.217548590130966
 20
7.107301341398361
 30
0.0
 11
5.220732681619342
 21
7.270203161788243
 31
0.0
  0
LINE
  5
AD
  8
0
 10
5.220732681619342
 20
7.270203161788243
 30
0.0
 11
5.177961867857875
 21
7.274818307250958
 31
0.0
  0
ARC
  5
AE
  8
0
 10
5.161822439983222
 20
7.187486802691883
 30
0.0
 40
0.0846226867997211
 50
80.2633721338372
 51
175.7926039115902
  0
LINE
  5
AF
  8
0
 10
4.960998752922233
 20
6.855887147641919
 30
0.0
 11
4.989270337853293
 21
6.953592289253876
 31
0.0
  0
LINE
  5
B0
  8
0
 10
4.989270337853293
 20
6.953592289253876
 30
0.0
 11
5.049091405903869
 21
6.963023059701759
 31
0.0
  0
LINE
  5
B1
  8
0
 10
5.049091405903869
 20
6.963023059701759
 30
0.0
 11
5.085636267118416
 21
6.90396245691582
 31
0.0
  0
LINE
  5
B2
  8
0
 10
5.108622117877059
 20
7.051913700628062
 30
0.0
 11
5.078666645574304
 21
7.014246902856577
 31
0.0
  0
LINE
  5
B3
  8
0
 10
5.078666645574304
 20
7.014246902856577
 30
0.0
 11
5.052856209547016
 21
6.967005139134802
 31
0.0
  0
LINE
  5
B4
  8
0
 10
4.964508758095453
 20
7.007168643417517
 30
0.0
 11
4.992907742261477
 21
7.031224076858196
 31
0.0
  0
LINE
  5
B5
  8
0
 10
4.992907742261477
 20
7.031224076858196
 30
0.0
 11
5.011441404399826
 21
7.130594344501831
 31
0.0
  0
LINE
  5
B6
  8
0
 10
5.011441404399826
 20
7.130594344501831
 30
0.0
 11
4.979204536303165
 21
7.174269819030338
 31
0.0
  0
LINE
  5
B7
  8
0
 10
4.979204536303165
 20
7.174269819030338
 30
0.0
 11
4.848792417407298
 21
7.193871098778152
 31
0.0
  0
LINE
  5
B8
  8
0
 10
4.866331542223673
 20
7.190486527767322
 30
0.0
 11
4.850294586596553
 21
7.209419183878005
 31
0.0
  0
LINE
  5
B9
  8
0
 10
4.887035997188407
 20
7.419780043779558
 30
0.0
 11
4.942187600828793
 21
7.388376721235023
 31
0.0
  0
LINE
  5
BA
  8
0
 10
4.942187600828793
 20
7.388376721235023
 30
0.0
 11
4.930097167027259
 21
7.335705027838424
 31
0.0
  0
LINE
  5
BB
  8
0
 10
4.930097167027259
 20
7.335705027838424
 30
0.0
 11
4.850528658653891
 21
7.339288113299133
 31
0.0
  0
LINE
  5
BC
  8
0
 10
4.850528658653891
 20
7.339288113299133
 30
0.0
 11
4.83324236723487
 21
7.402765347097906
 31
0.0
  0
LINE
  5
BD
  8
0
 10
4.831541683595734
 20
7.325187878441061
 30
0.0
 11
4.850582977601365
 21
7.337351392530085
 31
0.0
  0
LINE
  5
BE
  8
0
 10
4.9576270480337
 20
7.390747993583862
 30
0.0
 11
4.914565878194848
 21
7.474823009524997
 31
0.0
  0
LINE
  5
BF
  8
0
 10
4.914565878194848
 20
7.474823009524997
 30
0.0
 11
4.883904259574932
 21
7.462333581751128
 31
0.0
  0
LINE
  5
C0
  8
0
 10
4.883904259574932
 20
7.462333581751128
 30
0.0
 11
4.868826283662329
 21
7.51618153065214
 31
0.0
  0
LINE
  5
C1
  8
0
 10
4.868826283662329
 20
7.51618153065214
 30
0.0
 11
4.881894458518396
 21
7.533992250205884
 31
0.0
  0
LINE
  5
C2
  8
0
 10
4.881894458518396
 20
7.533992250205884
 30
0.0
 11
4.896989230698441
 21
7.617760113802191
 31
0.0
  0
LINE
  5
C3
  8
0
 10
4.896989230698441
 20
7.617760113802191
 30
0.0
 11
4.928031081950675
 21
7.616692496192727
 31
0.0
  0
LINE
  5
C4
  8
0
 10
4.928031081950675
 20
7.616692496192727
 30
0.0
 11
4.926004484626695
 21
7.550735352150165
 31
0.0
  0
LINE
  5
C5
  8
0
 10
4.926004484626695
 20
7.550735352150165
 30
0.0
 11
4.955218253004829
 21
7.545739974055133
 31
0.0
  0
LINE
  5
C6
  8
0
 10
4.955218253004829
 20
7.545739974055133
 30
0.0
 11
4.977844597543742
 21
7.430079917387025
 31
0.0
  0
LINE
  5
C7
  8
0
 10
4.977844597543742
 20
7.430079917387025
 30
0.0
 11
5.007058365921876
 21
7.425084539291992
 31
0.0
  0
LINE
  5
C8
  8
0
 10
5.007058365921876
 20
7.425084539291992
 30
0.0
 11
5.002823453091479
 21
7.368756680147194
 31
0.0
  0
LINE
  5
C9
  8
0
 10
5.002823453091479
 20
7.368756680147194
 30
0.0
 11
5.033395195156462
 21
7.315343282825975
 31
0.0
  0
LINE
  5
CA
  8
0
 10
5.033395195156462
 20
7.315343282825975
 30
0.0
 11
5.060943837502919
 21
7.300609981938231
 31
0.0
  0
LINE
  5
CB
  8
0
 10
5.060943837502919
 20
7.300609981938231
 30
0.0
 11
5.096492196322918
 21
7.346186619628329
 31
0.0
  0
LINE
  5
CC
  8
0
 10
5.096492196322918
 20
7.346186619628329
 30
0.0
 11
5.122701626322541
 21
7.310095071333587
 31
0.0
  0
LINE
  5
CD
  8
0
 10
5.052591617691773
 20
7.242979836082475
 30
0.0
 11
5.110502554626058
 21
7.261296819475084
 31
0.0
  0
LINE
  5
CE
  8
0
 10
5.110502554626058
 20
7.261296819475084
 30
0.0
 11
5.152132670490571
 21
7.297352810162366
 31
0.0
  0
LINE
  5
CF
  8
0
 10
5.152132670490571
 20
7.297352810162366
 30
0.0
 11
5.12071058660602
 21
7.311977473155161
 31
0.0
  0
CIRCLE
  5
D0
  8
0
 10
5.019150764795984
 20
7.270364153558091
 30
0.0
 40
0.020957075954956
  0
LINE
  5
D1
  8
0
 10
4.995801477672467
 20
7.273585767726499
 30
0.0
 11
4.929681376787483
 21
7.281422527357621
 31
0.0
  0
LINE
  5
D2
  8
0
 10
4.929681376787483
 20
7.281422527357621
 30
0.0
 11
4.897118595005978
 21
7.336718326500414
 31
0.0
  0
LINE
  5
D3
  8
0
 10
4.931979568848833
 20
7.337696067554945
 30
0.0
 11
5.014571176940728
 21
7.295432885660761
 31
0.0
  0
LINE
  5
D4
  8
0
 10
4.918311920497978
 20
7.548581355591223
 30
0.0
 11
4.901967812526031
 21
7.509358069683007
 31
0.0
  0
LINE
  5
D5
  8
0
 10
4.901967812526031
 20
7.509358069683007
 30
0.0
 11
4.916502598963895
 21
7.474877328472471
 31
0.0
  0
LINE
  5
D6
  8
0
 10
4.979150217355691
 20
7.176206539799386
 30
0.0
 11
4.999747999498051
 21
7.201981418219217
 31
0.0
  0
LINE
  5
D7
  8
0
 10
4.999747999498051
 20
7.201981418219217
 30
0.0
 11
4.977737924721367
 21
7.22656127979462
 31
0.0
  0
LINE
  5
D8
  8
0
 10
4.977737924721367
 20
7.22656127979462
 30
0.0
 11
4.993864756903419
 21
7.273531448779025
 31
0.0
  0
ARC
  5
D9
  8
0
 10
5.337529473011499
 20
6.669823867091683
 30
0.0
 40
0.340124009932236
 50
121.5614898042089
 51
197.6240157305281
  0
ARC
  5
DA
  8
0
 10
5.161822439983222
 20
7.187486802691883
 30
0.0
 40
0.0846226867997211
 50
237.6976547326231
 51
280.2852799100356
  0
ENDSEC
  0
EOF
