  0
SECTION
  2
HEADER
  9
$ACADVER
  1
AC1009
  9
$DWGCODEPAGE
  3
ansi_1252
  9
$INSBASE
 10
9.020282837789331
 20
6.663204075843177
 30
0.0
  9
$EXTMIN
 10
9.183805180460723
 20
6.660832147843177
 30
0.0
  9
$EXTMAX
 10
9.636819352460725
 20
8.575661479843177
 30
0.0
  9
$LIMMIN
 10
0.0
 20
0.0
  9
$LIMMAX
 10
410.0
 20
287.0
  9
$ORTHOMODE
 70
     0
  9
$REGENMODE
 70
     1
  9
$FILLMODE
 70
     1
  9
$QTEXTMODE
 70
     0
  9
$MIRRTEXT
 70
     1
  9
$DRAGMODE
 70
     2
  9
$LTSCALE
 40
25.0
  9
$OSMODE
 70
    37
  9
$ATTMODE
 70
     1
  9
$TEXTSIZE
 40
3.5
  9
$TRACEWID
 40
1.0
  9
$TEXTSTYLE
  7
STANDARD
  9
$CLAYER
  8
0
  9
$CELTYPE
  6
BYLAYER
  9
$CECOLOR
 62
   256
  9
$DIMSCALE
 40
1.0
  9
$DIMASZ
 40
3.5
  9
$DIMEXO
 40
0.1
  9
$DIMDLI
 40
7.0
  9
$DIMRND
 40
0.0
  9
$DIMDLE
 40
0.0
  9
$DIMEXE
 40
1.8
  9
$DIMTP
 40
0.0
  9
$DIMTM
 40
0.0
  9
$DIMTXT
 40
3.5
  9
$DIMCEN
 40
1.5
  9
$DIMTSZ
 40
0.0
  9
$DIMTOL
 70
     0
  9
$DIMLIM
 70
     0
  9
$DIMTIH
 70
     0
  9
$DIMTOH
 70
     0
  9
$DIMSE1
 70
     0
  9
$DIMSE2
 70
     0
  9
$DIMTAD
 70
     0
  9
$DIMZIN
 70
     0
  9
$DIMBLK
  1

  9
$DIMASO
 70
     1
  9
$DIMSHO
 70
     0
  9
$DIMPOST
  1

  9
$DIMAPOST
  1

  9
$DIMALT
 70
     0
  9
$DIMALTD
 70
     2
  9
$DIMALTF
 40
25.4
  9
$DIMLFAC
 40
1.0
  9
$DIMTOFL
 70
     0
  9
$DIMTVP
 40
0.0
  9
$DIMTIX
 70
     0
  9
$DIMSOXD
 70
     0
  9
$DIMSAH
 70
     0
  9
$DIMBLK1
  1

  9
$DIMBLK2
  1

  9
$DIMSTYLE
  2
STANDARD
  9
$DIMCLRD
 70
     0
  9
$DIMCLRE
 70
     0
  9
$DIMCLRT
 70
     0
  9
$DIMTFAC
 40
1.0
  9
$DIMGAP
 40
0.09
  9
$LUNITS
 70
     2
  9
$LUPREC
 70
     3
  9
$SKETCHINC
 40
1.0
  9
$FILLETRAD
 40
0.0
  9
$AUNITS
 70
     0
  9
$AUPREC
 70
     0
  9
$MENU
  1
EICAD12
  9
$ELEVATION
 40
0.0
  9
$PELEVATION
 40
0.0
  9
$THICKNESS
 40
0.0
  9
$LIMCHECK
 70
     0
  9
$CHAMFERA
 40
0.0
  9
$CHAMFERB
 40
0.0
  9
$SKPOLY
 70
     0
  9
$TDCREATE
 40
2449027.432245139
  9
$TDUPDATE
 40
2457483.532372685
  9
$TDINDWG
 40
0.0000829398
  9
$TDUSRTIMER
 40
0.0000829398
  9
$USRTIMER
 70
     1
  9
$ANGBASE
 50
0.0
  9
$ANGDIR
 70
     0
  9
$PDMODE
 70
     0
  9
$PDSIZE
 40
0.0
  9
$PLINEWID
 40
0.0
  9
$COORDS
 70
     1
  9
$SPLFRAME
 70
     0
  9
$SPLINETYPE
 70
     6
  9
$SPLINESEGS
 70
     8
  9
$ATTDIA
 70
     0
  9
$ATTREQ
 70
     1
  9
$HANDLING
 70
     1
  9
$HANDSEED
  5
144
  9
$SURFTAB1
 70
     6
  9
$SURFTAB2
 70
     6
  9
$SURFTYPE
 70
     6
  9
$SURFU
 70
     6
  9
$SURFV
 70
     6
  9
$UCSNAME
  2

  9
$UCSORG
 10
0.0
 20
0.0
 30
0.0
  9
$UCSXDIR
 10
1.0
 20
0.0
 30
0.0
  9
$UCSYDIR
 10
0.0
 20
1.0
 30
0.0
  9
$PUCSNAME
  2

  9
$PUCSORG
 10
0.0
 20
0.0
 30
0.0
  9
$PUCSXDIR
 10
1.0
 20
0.0
 30
0.0
  9
$PUCSYDIR
 10
0.0
 20
1.0
 30
0.0
  9
$USERI1
 70
     0
  9
$USERI2
 70
     0
  9
$USERI3
 70
     0
  9
$USERI4
 70
     0
  9
$USERI5
 70
     0
  9
$USERR1
 40
0.0
  9
$USERR2
 40
0.0
  9
$USERR3
 40
0.0
  9
$USERR4
 40
0.0
  9
$USERR5
 40
0.0
  9
$WORLDVIEW
 70
     1
  9
$SHADEDGE
 70
     3
  9
$SHADEDIF
 70
    70
  9
$TILEMODE
 70
     1
  9
$MAXACTVP
 70
    16
  9
$PLIMCHECK
 70
     0
  9
$PEXTMIN
 10
1.000000000000000E+20
 20
1.000000000000000E+20
 30
1.000000000000000E+20
  9
$PEXTMAX
 10
-1.000000000000000E+20
 20
-1.000000000000000E+20
 30
-1.000000000000000E+20
  9
$PLIMMIN
 10
0.0
 20
0.0
  9
$PLIMMAX
 10
12.0
 20
9.0
  9
$UNITMODE
 70
     0
  9
$VISRETAIN
 70
     0
  9
$PLINEGEN
 70
     0
  9
$PSLTSCALE
 70
     0
  0
ENDSEC
  0
SECTION
  2
TABLES
  0
TABLE
  2
VPORT
 70
     1
  0
VPORT
  2
*ACTIVE
 70
     0
 10
0.0
 20
0.0
 11
1.0
 21
1.0
 12
9.410312266460723
 22
7.830747753663153
 13
0.0
 23
0.0
 14
1.0
 24
1.0
 15
10.0
 25
10.0
 16
0.0
 26
0.0
 36
1.0
 17
0.0
 27
0.0
 37
0.0
 40
2.361605912409497
 41
1.503537735849057
 42
50.0
 43
0.0
 44
0.0
 50
0.0
 51
0.0
 71
     0
 72
   100
 73
     1
 74
     0
 75
     0
 76
     0
 77
     0
 78
     0
  0
ENDTAB
  0
TABLE
  2
LTYPE
 70
     1
  0
LTYPE
  2
CONTINUOUS
 70
     0
  3
Ausgezogene Linie
 72
    65
 73
     0
 40
0.0
  0
ENDTAB
  0
TABLE
  2
LAYER
 70
     1
  0
LAYER
  2
0
 70
     0
 62
     7
  6
CONTINUOUS
  0
ENDTAB
  0
TABLE
  2
STYLE
 70
     1
  0
STYLE
  2
STANDARD
 70
     0
 40
0.0
 41
1.0
 50
0.0
 71
     0
 42
3.5
  3
txt.shx
  4

  0
ENDTAB
  0
TABLE
  2
VIEW
 70
     0
  0
ENDTAB
  0
TABLE
  2
UCS
 70
     0
  0
ENDTAB
  0
TABLE
  2
APPID
 70
     2
  0
APPID
  2
ACAD
 70
     0
  0
APPID
  2
DCO15
 70
     0
  0
ENDTAB
  0
TABLE
  2
DIMSTYLE
 70
     1
  0
DIMSTYLE
  2
STANDARD
 70
     0
  3

  4

  5

  6

  7

 40
1.0
 41
0.18
 42
0.0625
 43
0.38
 44
0.18
 45
0.0
 46
0.0
 47
0.0
 48
0.0
140
0.18
141
0.09
142
0.0
143
25.4
144
1.0
145
0.0
146
1.0
147
0.09
 71
     0
 72
     0
 73
     1
 74
     1
 75
     0
 76
     0
 77
     0
 78
     0
170
     0
171
     2
172
     0
173
     0
174
     0
175
     0
176
     0
177
     0
178
     0
  0
ENDTAB
  0
ENDSEC
  0
SECTION
  2
BLOCKS
  0
BLOCK
  8
0
  2
$MODEL_SPACE
 70
     0
 10
0.0
 20
0.0
 30
0.0
  3
$MODEL_SPACE
  1

  0
ENDBLK
  5
B5
  8
0
  0
BLOCK
 67
     1
  8
0
  2
$PAPER_SPACE
 70
     0
 10
0.0
 20
0.0
 30
0.0
  3
$PAPER_SPACE
  1

  0
ENDBLK
  5
B3
 67
     1
  8
0
  0
ENDSEC
  0
SECTION
  2
ENTITIES
  0
ARC
  5
21
  8
0
 10
9.353022436460725
 20
6.766782277843177
 30
0.0
 40
0.055466216
 50
273.2902
 51
316.2578
  0
ARC
  5
22
  8
0
 10
9.322356008460725
 20
6.596833433843177
 30
0.0
 40
0.109413512
 50
94.57181
 51
124.5744
  0
LINE
  5
23
  8
0
 10
9.190294494460725
 20
6.666761967843176
 30
0.0
 11
9.255522540460724
 21
6.666761967843176
 31
0.0
  0
LINE
  5
24
  8
0
 10
9.204526062460724
 20
6.702340913843177
 30
0.0
 11
9.190294494460725
 21
6.666761967843176
 31
0.0
  0
LINE
  5
25
  8
0
 10
9.295845368460725
 20
6.727246183843177
 30
0.0
 11
9.204526062460724
 21
6.702340913843177
 31
0.0
  0
LINE
  5
26
  8
0
 10
9.320877622460724
 20
6.740926733843176
 30
0.0
 11
9.295845368460725
 21
6.727246183843177
 31
0.0
  0
LINE
  5
27
  8
0
 10
9.314820792460724
 20
6.704712841843177
 30
0.0
 11
9.356205850460723
 21
6.711407503843176
 31
0.0
  0
LINE
  5
28
  8
0
 10
9.255522540460724
 20
6.663204075843177
 30
0.0
 11
9.260266422460724
 21
6.686923381843177
 31
0.0
  0
LINE
  5
29
  8
0
 10
9.383606756460724
 20
6.662018111843177
 30
0.0
 11
9.255522540460724
 21
6.663204075843177
 31
0.0
  0
LINE
  5
2A
  8
0
 10
9.433417296460725
 20
6.675063741843177
 30
0.0
 11
9.383606756460724
 21
6.662018111843177
 31
0.0
  0
LINE
  5
2B
  8
0
 10
9.433417296460725
 20
6.660832147843177
 30
0.0
 11
9.433417296460725
 21
6.675063741843177
 31
0.0
  0
LINE
  5
2C
  8
0
 10
9.513490640460724
 20
6.662027263843177
 30
0.0
 11
9.433417296460725
 21
6.660832147843177
 31
0.0
  0
LINE
  5
2D
  8
0
 10
9.522364648460725
 20
6.728432147843177
 30
0.0
 11
9.387190882460724
 21
6.727664107843177
 31
0.0
  0
LINE
  5
2E
  8
0
 10
9.518446188460723
 20
6.829184643843177
 30
0.0
 11
9.522364648460725
 21
6.728432147843177
 31
0.0
  0
LINE
  5
2F
  8
0
 10
9.387190882460724
 20
6.727664107843177
 30
0.0
 11
9.387190882460724
 21
6.940095599843177
 31
0.0
  0
LINE
  5
30
  8
0
 10
9.310647376460723
 20
6.742972803843177
 30
0.0
 11
9.387190882460724
 21
6.727664107843177
 31
0.0
  0
LINE
  5
31
  8
0
 10
9.346219198460725
 20
7.108747459843177
 30
0.0
 11
9.310647376460723
 21
6.742972803843177
 31
0.0
  0
LINE
  5
32
  8
0
 10
9.597685478460724
 20
7.561988039843177
 30
0.0
 11
9.624475696460724
 21
7.581124039843177
 31
0.0
  0
LINE
  5
33
  8
0
 10
9.582376782460724
 20
7.584951239843177
 30
0.0
 11
9.597685478460724
 21
7.561988039843177
 31
0.0
  0
LINE
  5
34
  8
0
 10
9.588707834460724
 20
7.619207799843177
 30
0.0
 11
9.582376782460724
 21
7.584951239843177
 31
0.0
  0
LINE
  5
35
  8
0
 10
9.611560430460724
 20
7.525971019843177
 30
0.0
 11
9.577150548460724
 21
7.511633579843177
 31
0.0
  0
LINE
  5
36
  8
0
 10
9.624464126460724
 20
7.550344719843177
 30
0.0
 11
9.611560430460724
 21
7.525971019843177
 31
0.0
  0
LINE
  5
37
  8
0
 10
9.627331614460724
 20
7.581887139843177
 30
0.0
 11
9.624464126460724
 21
7.550344719843177
 31
0.0
  0
LINE
  5
38
  8
0
 10
9.467561536460725
 20
8.270015359843176
 30
0.0
 11
9.471388710460724
 21
8.235570819843177
 31
0.0
  0
LINE
  5
39
  8
0
 10
9.389603318460724
 20
8.323712899843176
 30
0.0
 11
9.467561536460725
 21
8.270015359843176
 31
0.0
  0
LINE
  5
3A
  8
0
 10
9.434007626460724
 20
7.935493379843177
 30
0.0
 11
9.409529276460724
 21
7.925878319843177
 31
0.0
  0
LINE
  5
3B
  8
0
 10
9.423903038460724
 20
7.971205679843177
 30
0.0
 11
9.389162228460725
 21
7.918834919843177
 31
0.0
  0
LINE
  5
3C
  8
0
 10
9.227266052460724
 20
7.853067659843177
 30
0.0
 11
9.249980796460724
 21
7.829779979843177
 31
0.0
  0
LINE
  5
3D
  8
0
 10
9.390716742460723
 20
7.693031939843177
 30
0.0
 11
9.336563864460723
 21
7.708608279843177
 31
0.0
  0
LINE
  5
3E
  8
0
 10
9.471240042460725
 20
7.708865159843176
 30
0.0
 11
9.390716742460723
 21
7.693031939843177
 31
0.0
  0
LINE
  5
3F
  8
0
 10
9.464559498460725
 20
7.766606739843176
 30
0.0
 11
9.471240042460725
 21
7.708865159843176
 31
0.0
  0
LINE
  5
40
  8
0
 10
9.296745800460725
 20
8.270420699843177
 30
0.0
 11
9.253390592460724
 21
8.173016379843176
 31
0.0
  0
LINE
  5
41
  8
0
 10
9.194091612460724
 20
7.990673959843177
 30
0.0
 11
9.208652236460724
 21
8.102713159843177
 31
0.0
  0
LINE
  5
42
  8
0
 10
9.517559900460725
 20
8.138929859843177
 30
0.0
 11
9.532472668460723
 21
8.109104479843177
 31
0.0
  0
LINE
  5
43
  8
0
 10
9.501478094460724
 20
8.192042399843176
 30
0.0
 11
9.517559900460725
 21
8.138929859843177
 31
0.0
  0
LINE
  5
44
  8
0
 10
9.468560742460724
 20
8.236928279843177
 30
0.0
 11
9.481343122460725
 21
8.234797839843177
 31
0.0
  0
LINE
  5
45
  8
0
 10
9.217173814460724
 20
8.070757339843176
 30
0.0
 11
9.193739442460725
 21
7.994063059843176
 31
0.0
  0
LINE
  5
46
  8
0
 10
9.338606502460724
 20
8.217754579843177
 30
0.0
 11
9.217173814460724
 21
8.070757339843176
 31
0.0
  0
LINE
  5
47
  8
0
 10
9.322222004460723
 20
8.272461699843177
 30
0.0
 11
9.338606502460724
 21
8.217754579843177
 31
0.0
  0
LINE
  5
48
  8
0
 10
9.281085766460723
 20
8.279536299843176
 30
0.0
 11
9.332425132460724
 21
8.315318279843178
 31
0.0
  0
LINE
  5
49
  8
0
 10
9.274694576460725
 20
8.290188239843177
 30
0.0
 11
9.281085766460723
 21
8.279536299843176
 31
0.0
  0
SOLID
  5
4A
  8
0
 10
9.253390592460724
 20
8.277405859843178
 30
0.0
 11
9.206521848460724
 21
8.098452539843176
 31
0.0
 12
9.257651394460725
 22
8.277405859843178
 32
0.0
 13
9.251260178460724
 23
8.177277259843176
 33
0.0
  0
SOLID
  5
4B
  8
0
 10
9.263516786460723
 20
8.324887319843178
 30
0.0
 11
9.244868988460723
 21
8.302970619843178
 31
0.0
 12
9.274694576460725
 22
8.290188239843177
 32
0.0
 13
9.251260178460724
 23
8.277405859843178
 33
0.0
  0
ARC
  5
4C
  8
0
 10
9.206550526460724
 20
8.477817239843176
 30
0.0
 40
0.0078
 50
112.7948
 51
232.125
  0
LINE
  5
4D
  8
0
 10
9.201761794460724
 20
8.471660179843177
 30
0.0
 11
9.221434616460725
 21
8.456359179843178
 31
0.0
  0
SOLID
  5
4E
  8
0
 10
9.257651394460725
 20
8.498967199843177
 30
0.0
 11
9.253390592460724
 21
8.488315259843176
 31
0.0
 12
9.261912170460723
 22
8.492575879843177
 32
0.0
 13
9.261912170460723
 23
8.492575879843177
 33
0.0
  0
LINE
  5
4F
  8
0
 10
9.257651394460725
 20
8.501097379843177
 30
0.0
 11
9.268303360460724
 21
8.484054379843176
 31
0.0
  0
LINE
  5
50
  8
0
 10
9.201608576460725
 20
8.435286699843177
 30
0.0
 11
9.212913038460725
 21
8.426533799843178
 31
0.0
  0
ARC
  5
51
  8
0
 10
9.268500466460724
 20
8.502246579843177
 30
0.0
 40
0.134496882
 50
230.9706
 51
286.4782
  0
ARC
  5
52
  8
0
 10
9.295142198460724
 20
8.462249219843176
 30
0.0
 40
0.049477246
 50
258.581
 51
326.6588
  0
SOLID
  5
53
  8
0
 10
9.448462196460724
 20
8.458942279843177
 30
0.0
 11
9.340967380460723
 21
8.437554679843178
 31
0.0
 12
9.383428500460724
 22
8.359703659843177
 32
0.0
 13
9.355788940460725
 23
8.365220079843176
 33
0.0
  0
SOLID
  5
54
  8
0
 10
9.308317308460724
 20
8.464306859843177
 30
0.0
 11
9.448462196460724
 21
8.458942279843177
 31
0.0
 12
9.288312830460724
 22
8.441668399843177
 32
0.0
 13
9.340967380460723
 23
8.437554679843178
 33
0.0
  0
SOLID
  5
55
  8
0
 10
9.291548556460723
 20
8.496766299843177
 30
0.0
 11
9.447412602460725
 21
8.504085559843176
 31
0.0
 12
9.308317308460724
 22
8.464306859843177
 32
0.0
 13
9.448462196460724
 23
8.458942279843177
 33
0.0
  0
SOLID
  5
56
  8
0
 10
9.318730282460724
 20
8.546261719843177
 30
0.0
 11
9.427360700460724
 21
8.536468819843178
 31
0.0
 12
9.291548556460723
 22
8.496766299843177
 32
0.0
 13
9.447412602460725
 23
8.504085559843176
 33
0.0
  0
SOLID
  5
57
  8
0
 10
9.260883818460725
 20
8.561751999843176
 30
0.0
 11
9.336476088460724
 21
8.575661479843177
 31
0.0
 12
9.266172972460724
 22
8.537314339843178
 32
0.0
 13
9.427360700460724
 23
8.536468819843178
 33
0.0
  0
LINE
  5
58
  8
0
 10
9.636819352460725
 20
7.598563799843177
 30
0.0
 11
9.627862742460724
 21
7.583825439843177
 31
0.0
  0
LINE
  5
59
  8
0
 10
9.593651760460723
 20
7.636157979843177
 30
0.0
 11
9.636819352460725
 21
7.598563799843177
 31
0.0
  0
LINE
  5
5A
  8
0
 10
9.586503190460725
 20
7.625726519843177
 30
0.0
 11
9.593651760460723
 21
7.636157979843177
 31
0.0
  0
LINE
  5
5B
  8
0
 10
9.530994542460725
 20
7.540670119843177
 30
0.0
 11
9.575211988460724
 21
7.510901939843177
 31
0.0
  0
LINE
  5
5C
  8
0
 10
9.248676688460725
 20
8.503981819843176
 30
0.0
 11
9.264758598460723
 21
8.536383799843177
 31
0.0
  0
LINE
  5
5D
  8
0
 10
9.203528572460725
 20
8.485008059843176
 30
0.0
 11
9.248676688460725
 21
8.503981819843176
 31
0.0
  0
LINE
  5
5E
  8
0
 10
9.204406878460723
 20
8.443178999843177
 30
0.0
 11
9.217195992460724
 21
8.458258479843177
 31
0.0
  0
LINE
  5
5F
  8
0
 10
9.195725140460723
 20
8.418692979843177
 30
0.0
 11
9.204406878460723
 21
8.443178999843177
 31
0.0
  0
LINE
  5
60
  8
0
 10
9.185141424460724
 20
8.410937179843177
 30
0.0
 11
9.195725140460723
 21
8.418692979843177
 31
0.0
  0
LINE
  5
61
  8
0
 10
9.183805180460723
 20
8.397766359843176
 30
0.0
 11
9.185141424460724
 21
8.410937179843177
 31
0.0
  0
LINE
  5
62
  8
0
 10
9.257561434460724
 20
8.351439039843177
 30
0.0
 11
9.242004698460724
 21
8.367091299843176
 31
0.0
  0
LINE
  5
63
  8
0
 10
9.263516786460723
 20
8.324887319843178
 30
0.0
 11
9.257561434460724
 21
8.351439039843177
 31
0.0
  0
LINE
  5
64
  8
0
 10
9.355788940460725
 20
8.365220079843176
 30
0.0
 11
9.263516786460723
 21
8.324887319843178
 31
0.0
  0
LINE
  5
65
  8
0
 10
9.501478094460724
 20
8.192042399843176
 30
0.0
 11
9.481197184460724
 21
8.234274979843176
 31
0.0
  0
LINE
  5
66
  8
0
 10
9.562435302460724
 20
8.060419999843177
 30
0.0
 11
9.532161812460725
 21
8.108579539843177
 31
0.0
  0
LINE
  5
67
  8
0
 10
9.560526278460724
 20
8.018903459843177
 30
0.0
 11
9.562435302460724
 21
8.060419999843177
 31
0.0
  0
LINE
  5
68
  8
0
 10
9.597986324460724
 20
7.944221059843176
 30
0.0
 11
9.560526278460724
 21
8.018903459843177
 31
0.0
  0
LINE
  5
69
  8
0
 10
9.599770860460724
 20
7.902790319843177
 30
0.0
 11
9.597986324460724
 21
7.944221059843176
 31
0.0
  0
LINE
  5
6A
  8
0
 10
9.596162450460724
 20
7.757758679843177
 30
0.0
 11
9.599770860460724
 21
7.902790319843177
 31
0.0
  0
LINE
  5
6B
  8
0
 10
9.586646320460725
 20
7.619570499843177
 30
0.0
 11
9.596162450460724
 21
7.757758679843177
 31
0.0
  0
LINE
  5
6C
  8
0
 10
9.384686874460725
 20
8.075996859843176
 30
0.0
 11
9.387970284460724
 21
8.129042839843176
 31
0.0
  0
LINE
  5
6D
  8
0
 10
9.420963244460724
 20
7.963920999843177
 30
0.0
 11
9.384686874460725
 21
8.075996859843176
 31
0.0
  0
LINE
  5
6E
  8
0
 10
9.468740220460724
 20
7.851701619843177
 30
0.0
 11
9.420963244460724
 21
7.963920999843177
 31
0.0
  0
LINE
  5
6F
  8
0
 10
9.493296570460725
 20
7.749207799843177
 30
0.0
 11
9.468740220460724
 21
7.851701619843177
 31
0.0
  0
LINE
  5
70
  8
0
 10
9.527015164460725
 20
7.641178579843177
 30
0.0
 11
9.493296570460725
 21
7.749207799843177
 31
0.0
  0
LINE
  5
71
  8
0
 10
9.591943378460725
 20
7.638992499843177
 30
0.0
 11
9.527015164460725
 21
7.641178579843177
 31
0.0
  0
LINE
  5
72
  8
0
 10
9.588707834460724
 20
7.619207799843177
 30
0.0
 11
9.591943378460725
 21
7.638992499843177
 31
0.0
  0
LINE
  5
73
  8
0
 10
9.535719340460725
 20
7.637685219843177
 30
0.0
 11
9.588707834460724
 21
7.619207799843177
 31
0.0
  0
LINE
  5
74
  8
0
 10
9.514998874460725
 20
7.575200459843177
 30
0.0
 11
9.535719340460725
 21
7.637685219843177
 31
0.0
  0
LINE
  5
75
  8
0
 10
9.530211916460724
 20
7.539009239843177
 30
0.0
 11
9.514998874460725
 21
7.575200459843177
 31
0.0
  0
LINE
  5
76
  8
0
 10
9.428930242460725
 20
7.515302439843177
 30
0.0
 11
9.530211916460724
 21
7.539009239843177
 31
0.0
  0
LINE
  5
77
  8
0
 10
9.270250708460724
 20
7.505453639843177
 30
0.0
 11
9.428930242460725
 21
7.515302439843177
 31
0.0
  0
LINE
  5
78
  8
0
 10
9.372776508460724
 20
8.366094719843177
 30
0.0
 11
9.296745800460725
 21
8.270420699843177
 31
0.0
  0
LINE
  5
79
  8
0
 10
9.389603318460724
 20
8.323712899843176
 30
0.0
 11
9.383428500460724
 21
8.359703659843177
 31
0.0
  0
LINE
  5
7A
  8
0
 10
9.351102310460725
 20
8.266563339843177
 30
0.0
 11
9.389603318460724
 21
8.323712899843176
 31
0.0
  0
LINE
  5
7B
  8
0
 10
9.322222004460723
 20
8.272461699843177
 30
0.0
 11
9.351102310460725
 21
8.266563339843177
 31
0.0
  0
LINE
  5
7C
  8
0
 10
9.204055124460725
 20
7.897695619843176
 30
0.0
 11
9.194091612460724
 21
7.990673959843177
 31
0.0
  0
LINE
  5
7D
  8
0
 10
9.230386910460725
 20
7.842464079843177
 30
0.0
 11
9.204055124460725
 21
7.897695619843176
 31
0.0
  0
LINE
  5
7E
  8
0
 10
9.211622710460723
 20
7.731161459843177
 30
0.0
 11
9.230386910460725
 21
7.842464079843177
 31
0.0
  0
LINE
  5
7F
  8
0
 10
9.213750030460725
 20
7.533704459843177
 30
0.0
 11
9.211622710460723
 21
7.731161459843177
 31
0.0
  0
LINE
  5
80
  8
0
 10
9.269200906460725
 20
7.515284239843177
 30
0.0
 11
9.213750030460725
 21
7.533704459843177
 31
0.0
  0
LINE
  5
81
  8
0
 10
9.333296990460724
 20
7.160359539843177
 30
0.0
 11
9.269200906460725
 21
7.515284239843177
 31
0.0
  0
LINE
  5
82
  8
0
 10
9.371319728460724
 20
7.008494319843177
 30
0.0
 11
9.333296990460724
 21
7.160359539843177
 31
0.0
  0
LINE
  5
83
  8
0
 10
9.387190882460724
 20
6.940095599843177
 30
0.0
 11
9.371319728460724
 21
7.008494319843177
 31
0.0
  0
LINE
  5
84
  8
0
 10
9.509872766460724
 20
6.728361167843177
 30
0.0
 11
9.513490640460724
 21
6.662027263843177
 31
0.0
  0
LINE
  5
85
  8
0
 10
9.522955160460723
 20
6.897457887843177
 30
0.0
 11
9.518446188460723
 21
6.829184643843177
 31
0.0
  0
LINE
  5
86
  8
0
 10
9.512390398460724
 20
6.998634339843177
 30
0.0
 11
9.522955160460723
 21
6.897457887843177
 31
0.0
  0
LINE
  5
87
  8
0
 10
9.497445156460724
 20
7.146930019843177
 30
0.0
 11
9.512390398460724
 21
6.998634339843177
 31
0.0
  0
LINE
  5
88
  8
0
 10
9.473852756460724
 20
7.243287059843177
 30
0.0
 11
9.497445156460724
 21
7.146930019843177
 31
0.0
  0
LINE
  5
89
  8
0
 10
9.466762166460724
 20
7.371645159843177
 30
0.0
 11
9.473852756460724
 21
7.243287059843177
 31
0.0
  0
LINE
  5
8A
  8
0
 10
9.487234540460724
 20
7.444800059843176
 30
0.0
 11
9.466762166460724
 21
7.371645159843177
 31
0.0
  0
LINE
  5
8B
  8
0
 10
9.496988960460724
 20
7.519759099843177
 30
0.0
 11
9.487234540460724
 21
7.444800059843176
 31
0.0
  0
ENDSEC
  0
EOF
