  0
SECTION
  2
HEADER
  9
$ACADVER
  1
AC1009
  9
$DWGCODEPAGE
  3
ansi_1252
  9
$INSBASE
 10
114.8720285077019
 20
208.3322018502117
 30
0.0
  9
$EXTMIN
 10
114.5618705077019
 20
208.3322018502117
 30
0.0
  9
$EXTMAX
 10
115.0335565077017
 20
210.0219720254724
 30
0.0
  9
$LIMMIN
 10
0.0
 20
0.0
  9
$LIMMAX
 10
410.0
 20
287.0
  9
$ORTHOMODE
 70
     0
  9
$REGENMODE
 70
     1
  9
$FILLMODE
 70
     1
  9
$QTEXTMODE
 70
     0
  9
$MIRRTEXT
 70
     1
  9
$DRAGMODE
 70
     2
  9
$LTSCALE
 40
25.0
  9
$OSMODE
 70
    37
  9
$ATTMODE
 70
     1
  9
$TEXTSIZE
 40
3.5
  9
$TRACEWID
 40
1.0
  9
$TEXTSTYLE
  7
STANDARD
  9
$CLAYER
  8
0
  9
$CELTYPE
  6
BYLAYER
  9
$CECOLOR
 62
   256
  9
$DIMSCALE
 40
1.0
  9
$DIMASZ
 40
3.5
  9
$DIMEXO
 40
0.1
  9
$DIMDLI
 40
7.0
  9
$DIMRND
 40
0.0
  9
$DIMDLE
 40
0.0
  9
$DIMEXE
 40
1.8
  9
$DIMTP
 40
0.0
  9
$DIMTM
 40
0.0
  9
$DIMTXT
 40
3.5
  9
$DIMCEN
 40
1.5
  9
$DIMTSZ
 40
0.0
  9
$DIMTOL
 70
     0
  9
$DIMLIM
 70
     0
  9
$DIMTIH
 70
     0
  9
$DIMTOH
 70
     0
  9
$DIMSE1
 70
     0
  9
$DIMSE2
 70
     0
  9
$DIMTAD
 70
     0
  9
$DIMZIN
 70
     0
  9
$DIMBLK
  1

  9
$DIMASO
 70
     1
  9
$DIMSHO
 70
     0
  9
$DIMPOST
  1

  9
$DIMAPOST
  1

  9
$DIMALT
 70
     0
  9
$DIMALTD
 70
     2
  9
$DIMALTF
 40
25.4
  9
$DIMLFAC
 40
1.0
  9
$DIMTOFL
 70
     0
  9
$DIMTVP
 40
0.0
  9
$DIMTIX
 70
     0
  9
$DIMSOXD
 70
     0
  9
$DIMSAH
 70
     0
  9
$DIMBLK1
  1

  9
$DIMBLK2
  1

  9
$DIMSTYLE
  2
STANDARD
  9
$DIMCLRD
 70
     0
  9
$DIMCLRE
 70
     0
  9
$DIMCLRT
 70
     0
  9
$DIMTFAC
 40
1.0
  9
$DIMGAP
 40
0.09
  9
$LUNITS
 70
     2
  9
$LUPREC
 70
     2
  9
$SKETCHINC
 40
1.0
  9
$FILLETRAD
 40
0.0
  9
$AUNITS
 70
     0
  9
$AUPREC
 70
     0
  9
$MENU
  1
ARQ
  9
$ELEVATION
 40
0.0
  9
$PELEVATION
 40
0.0
  9
$THICKNESS
 40
0.0
  9
$LIMCHECK
 70
     0
  9
$CHAMFERA
 40
0.0
  9
$CHAMFERB
 40
0.0
  9
$SKPOLY
 70
     0
  9
$TDCREATE
 40
2450392.493406134
  9
$TDUPDATE
 40
2457483.532395833
  9
$TDINDWG
 40
0.0029092361
  9
$TDUSRTIMER
 40
0.0029092361
  9
$USRTIMER
 70
     1
  9
$ANGBASE
 50
0.0
  9
$ANGDIR
 70
     0
  9
$PDMODE
 70
     0
  9
$PDSIZE
 40
0.0
  9
$PLINEWID
 40
0.0
  9
$COORDS
 70
     1
  9
$SPLFRAME
 70
     0
  9
$SPLINETYPE
 70
     6
  9
$SPLINESEGS
 70
     8
  9
$ATTDIA
 70
     0
  9
$ATTREQ
 70
     1
  9
$HANDLING
 70
     1
  9
$HANDSEED
  5
16F
  9
$SURFTAB1
 70
     6
  9
$SURFTAB2
 70
     6
  9
$SURFTYPE
 70
     6
  9
$SURFU
 70
     6
  9
$SURFV
 70
     6
  9
$UCSNAME
  2

  9
$UCSORG
 10
0.0
 20
0.0
 30
0.0
  9
$UCSXDIR
 10
1.0
 20
0.0
 30
0.0
  9
$UCSYDIR
 10
0.0
 20
1.0
 30
0.0
  9
$PUCSNAME
  2

  9
$PUCSORG
 10
0.0
 20
0.0
 30
0.0
  9
$PUCSXDIR
 10
1.0
 20
0.0
 30
0.0
  9
$PUCSYDIR
 10
0.0
 20
1.0
 30
0.0
  9
$USERI1
 70
     0
  9
$USERI2
 70
     0
  9
$USERI3
 70
     0
  9
$USERI4
 70
     0
  9
$USERI5
 70
     0
  9
$USERR1
 40
0.0
  9
$USERR2
 40
0.0
  9
$USERR3
 40
0.0
  9
$USERR4
 40
0.0
  9
$USERR5
 40
0.0
  9
$WORLDVIEW
 70
     1
  9
$SHADEDGE
 70
     3
  9
$SHADEDIF
 70
    70
  9
$TILEMODE
 70
     1
  9
$MAXACTVP
 70
    16
  9
$PLIMCHECK
 70
     0
  9
$PEXTMIN
 10
1.000000000000000E+20
 20
1.000000000000000E+20
 30
1.000000000000000E+20
  9
$PEXTMAX
 10
-1.000000000000000E+20
 20
-1.000000000000000E+20
 30
-1.000000000000000E+20
  9
$PLIMMIN
 10
0.0
 20
0.0
  9
$PLIMMAX
 10
12.0
 20
9.0
  9
$UNITMODE
 70
     0
  9
$VISRETAIN
 70
     0
  9
$PLINEGEN
 70
     0
  9
$PSLTSCALE
 70
     0
  0
ENDSEC
  0
SECTION
  2
TABLES
  0
TABLE
  2
VPORT
 70
     1
  0
VPORT
  2
*ACTIVE
 70
     0
 10
0.0
 20
0.0
 11
1.0
 21
1.0
 12
114.7977135077018
 22
209.177086937842
 13
0.0
 23
0.0
 14
1.0
 24
1.0
 15
10.0
 25
10.0
 16
0.0
 26
0.0
 36
1.0
 17
0.0
 27
0.0
 37
0.0
 40
1.707371947919597
 41
1.365217391304348
 42
50.0
 43
0.0
 44
0.0
 50
0.0
 51
0.0
 71
     0
 72
   100
 73
     1
 74
     0
 75
     0
 76
     0
 77
     0
 78
     0
  0
ENDTAB
  0
TABLE
  2
LTYPE
 70
     1
  0
LTYPE
  2
CONTINUOUS
 70
     0
  3
Solid Line
 72
    65
 73
     0
 40
0.0
  0
ENDTAB
  0
TABLE
  2
LAYER
 70
     1
  0
LAYER
  2
0
 70
     0
 62
     7
  6
CONTINUOUS
  0
ENDTAB
  0
TABLE
  2
STYLE
 70
     1
  0
STYLE
  2
STANDARD
 70
     0
 40
0.0
 41
1.0
 50
0.0
 71
     0
 42
3.5
  3
txt
  4

  0
ENDTAB
  0
TABLE
  2
VIEW
 70
     0
  0
ENDTAB
  0
TABLE
  2
UCS
 70
     0
  0
ENDTAB
  0
TABLE
  2
APPID
 70
     1
  0
APPID
  2
ACAD
 70
     0
  0
ENDTAB
  0
TABLE
  2
DIMSTYLE
 70
     1
  0
DIMSTYLE
  2
STANDARD
 70
     0
  3

  4

  5

  6

  7

 40
1.0
 41
0.18
 42
0.0625
 43
0.38
 44
0.18
 45
0.0
 46
0.0
 47
0.0
 48
0.0
140
0.18
141
0.09
142
0.0
143
25.4
144
1.0
145
0.0
146
1.0
147
0.09
 71
     0
 72
     0
 73
     1
 74
     1
 75
     0
 76
     0
 77
     0
 78
     0
170
     0
171
     2
172
     0
173
     0
174
     0
175
     0
176
     0
177
     0
178
     0
  0
ENDTAB
  0
ENDSEC
  0
SECTION
  2
BLOCKS
  0
BLOCK
  8
0
  2
$MODEL_SPACE
 70
     0
 10
0.0
 20
0.0
 30
0.0
  3
$MODEL_SPACE
  1

  0
ENDBLK
  5
1F
  8
0
  0
BLOCK
 67
     1
  8
0
  2
$PAPER_SPACE
 70
     0
 10
0.0
 20
0.0
 30
0.0
  3
$PAPER_SPACE
  1

  0
ENDBLK
  5
1D
 67
     1
  8
0
  0
ENDSEC
  0
SECTION
  2
ENTITIES
  0
LINE
  5
23
  8
0
  6
BYBLOCK
 62
     0
 10
114.5618705077019
 20
208.3762548502118
 30
0.0
 11
114.5797305077018
 21
208.3663328502118
 31
0.0
  0
LINE
  5
24
  8
0
  6
BYBLOCK
 62
     0
 10
114.5797305077018
 20
208.3663328502118
 30
0.0
 11
114.6110835077019
 21
208.3595858502117
 31
0.0
  0
LINE
  5
25
  8
0
  6
BYBLOCK
 62
     0
 10
114.6110835077019
 20
208.3595858502117
 30
0.0
 11
114.7031585077019
 21
208.3865738502118
 31
0.0
  0
LINE
  5
26
  8
0
  6
BYBLOCK
 62
     0
 10
114.7031585077019
 20
208.3865738502118
 30
0.0
 11
114.7313365077019
 21
208.3921298502119
 31
0.0
  0
LINE
  5
27
  8
0
  6
BYBLOCK
 62
     0
 10
114.8373015077019
 20
208.7905928502119
 30
0.0
 11
114.6642645077019
 21
208.8413928502118
 31
0.0
  0
LINE
  5
28
  8
0
  6
BYBLOCK
 62
     0
 10
114.6642645077019
 20
208.8413928502118
 30
0.0
 11
114.6555335077018
 21
208.7862268502117
 31
0.0
  0
LINE
  5
29
  8
0
  6
BYBLOCK
 62
     0
 10
114.6555335077018
 20
208.7862268502117
 30
0.0
 11
114.8011865077018
 21
208.7834488502117
 31
0.0
  0
LINE
  5
2A
  8
0
  6
BYBLOCK
 62
     0
 10
114.7245895077018
 20
208.7850358502119
 30
0.0
 11
114.6972055077018
 21
208.5635798502117
 31
0.0
  0
LINE
  5
2B
  8
0
  6
BYBLOCK
 62
     0
 10
114.6972055077018
 20
208.5635798502117
 30
0.0
 11
114.6904585077019
 21
208.4953178502119
 31
0.0
  0
LINE
  5
2C
  8
0
  6
BYBLOCK
 62
     0
 10
114.6904585077019
 20
208.4953178502119
 30
0.0
 11
114.6837115077018
 21
208.4552328502118
 31
0.0
  0
LINE
  5
2D
  8
0
  6
BYBLOCK
 62
     0
 10
114.6837115077018
 20
208.4552328502118
 30
0.0
 11
114.6654555077019
 21
208.4322138502118
 31
0.0
  0
LINE
  5
2E
  8
0
  6
BYBLOCK
 62
     0
 10
114.6654555077019
 20
208.4322138502118
 30
0.0
 11
114.6202115077018
 21
208.4052268502119
 31
0.0
  0
LINE
  5
2F
  8
0
  6
BYBLOCK
 62
     0
 10
114.6202115077018
 20
208.4052268502119
 30
0.0
 11
114.5880645077019
 21
208.3929238502119
 31
0.0
  0
LINE
  5
30
  8
0
  6
BYBLOCK
 62
     0
 10
114.5880645077019
 20
208.3929238502119
 30
0.0
 11
114.5618705077019
 21
208.3762548502118
 31
0.0
  0
LINE
  5
31
  8
0
  6
BYBLOCK
 62
     0
 10
114.5880645077019
 20
208.3929238502119
 30
0.0
 11
114.6079085077018
 21
208.3826048502117
 31
0.0
  0
LINE
  5
32
  8
0
  6
BYBLOCK
 62
     0
 10
114.6079085077018
 20
208.3826048502117
 30
0.0
 11
114.7293515077018
 21
208.4179268502119
 31
0.0
  0
LINE
  5
33
  8
0
  6
BYBLOCK
 62
     0
 10
114.7325265077019
 20
209.0914238502119
 30
0.0
 11
114.6948235077019
 21
209.0989638502117
 31
0.0
  0
LINE
  5
34
  8
0
  6
BYBLOCK
 62
     0
 10
114.6948235077019
 20
209.0989638502117
 30
0.0
 11
114.6753765077018
 21
209.0918208502119
 31
0.0
  0
LINE
  5
35
  8
0
  6
BYBLOCK
 62
     0
 10
114.6753765077018
 20
209.0918208502119
 30
0.0
 11
114.6614865077019
 21
209.0751518502118
 31
0.0
  0
LINE
  5
36
  8
0
  6
BYBLOCK
 62
     0
 10
114.6614865077019
 20
209.0751518502118
 30
0.0
 11
114.6495805077019
 21
209.0489578502118
 31
0.0
  0
LINE
  5
37
  8
0
  6
BYBLOCK
 62
     0
 10
114.6495805077019
 20
209.0489578502118
 30
0.0
 11
114.6027485077019
 21
208.8830638502118
 31
0.0
  0
LINE
  5
38
  8
0
  6
BYBLOCK
 62
     0
 10
114.6027485077019
 20
208.8830638502118
 30
0.0
 11
114.6110835077019
 21
208.8663958502118
 31
0.0
  0
LINE
  5
39
  8
0
  6
BYBLOCK
 62
     0
 10
114.6110835077019
 20
208.8663958502118
 30
0.0
 11
114.6166395077017
 21
208.8552828502118
 31
0.0
  0
LINE
  5
3A
  8
0
  6
BYBLOCK
 62
     0
 10
114.6166395077017
 20
208.8552828502118
 30
0.0
 11
114.6642645077019
 21
208.8413928502118
 31
0.0
  0
LINE
  5
3B
  8
0
  6
BYBLOCK
 62
     0
 10
114.7313365077019
 20
208.3921298502119
 30
0.0
 11
114.7293515077018
 21
208.3615708502118
 31
0.0
  0
LINE
  5
3C
  8
0
  6
BYBLOCK
 62
     0
 10
114.7293515077018
 20
208.3615708502118
 30
0.0
 11
114.7392735077018
 21
208.3651428502119
 31
0.0
  0
LINE
  5
3D
  8
0
  6
BYBLOCK
 62
     0
 10
114.7392735077018
 20
208.3651428502119
 30
0.0
 11
114.7503865077018
 21
208.4218958502117
 31
0.0
  0
LINE
  5
3E
  8
0
  6
BYBLOCK
 62
     0
 10
114.7503865077018
 20
208.4218958502117
 30
0.0
 11
114.7420515077018
 21
208.4385638502117
 31
0.0
  0
LINE
  5
3F
  8
0
  6
BYBLOCK
 62
     0
 10
114.7420515077018
 20
208.4385638502117
 30
0.0
 11
114.7849145077017
 21
208.6318428502118
 31
0.0
  0
LINE
  5
40
  8
0
  6
BYBLOCK
 62
     0
 10
114.7849145077017
 20
208.6318428502118
 30
0.0
 11
114.8079335077019
 21
208.7604298502117
 31
0.0
  0
LINE
  5
41
  8
0
  6
BYBLOCK
 62
     0
 10
114.8079335077019
 20
208.7604298502117
 30
0.0
 11
114.9021905077019
 21
208.5469108502118
 31
0.0
  0
LINE
  5
42
  8
0
  6
BYBLOCK
 62
     0
 10
114.9021905077019
 20
208.5469108502118
 30
0.0
 11
114.9315595077018
 21
208.4830138502118
 31
0.0
  0
LINE
  5
43
  8
0
  6
BYBLOCK
 62
     0
 10
114.9315595077018
 20
208.4830138502118
 30
0.0
 11
114.9446565077018
 21
208.4302298502118
 31
0.0
  0
LINE
  5
44
  8
0
  6
BYBLOCK
 62
     0
 10
114.9446565077018
 20
208.4302298502118
 30
0.0
 11
114.9406875077019
 21
208.4068138502118
 31
0.0
  0
LINE
  5
45
  8
0
  6
BYBLOCK
 62
     0
 10
114.9406875077019
 20
208.4068138502118
 30
0.0
 11
114.9168755077018
 21
208.3659358502118
 31
0.0
  0
LINE
  5
46
  8
0
  6
BYBLOCK
 62
     0
 10
114.9168755077018
 20
208.3659358502118
 30
0.0
 11
114.8720285077019
 21
208.3409328502119
 31
0.0
  0
LINE
  5
47
  8
0
  6
BYBLOCK
 62
     0
 10
114.8720285077019
 20
208.3409328502119
 30
0.0
 11
114.8720285077019
 21
208.3322018502117
 31
0.0
  0
LINE
  5
48
  8
0
  6
BYBLOCK
 62
     0
 10
114.8720285077019
 20
208.3322018502117
 30
0.0
 11
114.9474345077018
 21
208.3381548502118
 31
0.0
  0
LINE
  5
49
  8
0
  6
BYBLOCK
 62
     0
 10
114.9474345077018
 20
208.3381548502118
 30
0.0
 11
114.9565625077017
 21
208.3464888502117
 31
0.0
  0
LINE
  5
4A
  8
0
  6
BYBLOCK
 62
     0
 10
114.9565625077017
 20
208.3464888502117
 30
0.0
 11
115.0010125077018
 21
208.4107828502117
 31
0.0
  0
LINE
  5
4B
  8
0
  6
BYBLOCK
 62
     0
 10
115.0010125077018
 20
208.4107828502117
 30
0.0
 11
115.0287945077019
 21
208.3845888502119
 31
0.0
  0
LINE
  5
4C
  8
0
  6
BYBLOCK
 62
     0
 10
115.0287945077019
 20
208.3845888502119
 30
0.0
 11
115.0335565077017
 21
208.3941138502119
 31
0.0
  0
LINE
  5
4D
  8
0
  6
BYBLOCK
 62
     0
 10
115.0335565077017
 20
208.3941138502119
 30
0.0
 11
115.0196655077019
 21
208.4330078502119
 31
0.0
  0
LINE
  5
4E
  8
0
  6
BYBLOCK
 62
     0
 10
115.0196655077019
 20
208.4330078502119
 30
0.0
 11
115.0022035077019
 21
208.4496768502117
 31
0.0
  0
LINE
  5
4F
  8
0
  6
BYBLOCK
 62
     0
 10
115.0022035077019
 20
208.4496768502117
 30
0.0
 11
114.8986195077019
 21
208.7747178502118
 31
0.0
  0
LINE
  5
50
  8
0
  6
BYBLOCK
 62
     0
 10
114.8986195077019
 20
208.7747178502118
 30
0.0
 11
114.8373015077019
 21
208.7905928502119
 31
0.0
  0
LINE
  5
51
  8
0
  6
BYBLOCK
 62
     0
 10
114.8011865077018
 20
208.7834488502117
 30
0.0
 11
114.8079335077019
 21
208.7604298502117
 31
0.0
  0
LINE
  5
52
  8
0
  6
BYBLOCK
 62
     0
 10
114.7293515077018
 20
208.4179268502119
 30
0.0
 11
114.7392735077018
 21
208.4274518502118
 31
0.0
  0
LINE
  5
53
  8
0
  6
BYBLOCK
 62
     0
 10
114.7392735077018
 20
208.4274518502118
 30
0.0
 11
114.7420515077018
 21
208.4385638502117
 31
0.0
  0
LINE
  5
54
  8
0
  6
BYBLOCK
 62
     0
 10
114.8011865077018
 20
208.7834488502117
 30
0.0
 11
114.8373015077019
 21
208.7905928502119
 31
0.0
  0
LINE
  5
55
  8
0
  6
BYBLOCK
 62
     0
 10
114.8986195077019
 20
208.7747178502118
 30
0.0
 11
114.9176695077018
 21
208.7715428502117
 31
0.0
  0
LINE
  5
56
  8
0
  6
BYBLOCK
 62
     0
 10
114.9176695077018
 20
208.7715428502117
 30
0.0
 11
114.9327505077018
 21
208.7774958502118
 31
0.0
  0
LINE
  5
57
  8
0
  6
BYBLOCK
 62
     0
 10
114.9327505077018
 20
208.7774958502118
 30
0.0
 11
114.9398945077018
 21
208.7937678502117
 31
0.0
  0
LINE
  5
58
  8
0
  6
BYBLOCK
 62
     0
 10
114.9398945077018
 20
208.7937678502117
 30
0.0
 11
114.9760095077019
 21
208.7965458502117
 31
0.0
  0
LINE
  5
59
  8
0
  6
BYBLOCK
 62
     0
 10
114.9760095077019
 20
208.7965458502117
 30
0.0
 11
114.9502125077018
 21
208.8445678502119
 31
0.0
  0
LINE
  5
5A
  8
0
  6
BYBLOCK
 62
     0
 10
114.9502125077018
 20
208.8445678502119
 30
0.0
 11
114.9398945077018
 21
208.7937678502117
 31
0.0
  0
LINE
  5
5B
  8
0
  6
BYBLOCK
 62
     0
 10
114.9502125077018
 20
208.8445678502119
 30
0.0
 11
114.9478315077018
 21
208.8326608502118
 31
0.0
  0
LINE
  5
5C
  8
0
  6
BYBLOCK
 62
     0
 10
114.9502125077018
 20
208.8445678502119
 30
0.0
 11
114.9748195077019
 21
208.9715678502118
 31
0.0
  0
LINE
  5
5D
  8
0
  6
BYBLOCK
 62
     0
 10
114.9748195077019
 20
208.9715678502118
 30
0.0
 11
114.9787875077019
 21
209.0041108502119
 31
0.0
  0
LINE
  5
5E
  8
0
  6
BYBLOCK
 62
     0
 10
114.9787875077019
 20
209.0041108502119
 30
0.0
 11
114.9720405077018
 21
209.0251458502119
 31
0.0
  0
LINE
  5
5F
  8
0
  6
BYBLOCK
 62
     0
 10
114.9720405077018
 20
209.0251458502119
 30
0.0
 11
114.9426725077018
 21
209.0334798502117
 31
0.0
  0
LINE
  5
60
  8
0
  6
BYBLOCK
 62
     0
 10
114.9426725077018
 20
209.0334798502117
 30
0.0
 11
114.8736155077019
 21
209.0525298502118
 31
0.0
  0
LINE
  5
61
  8
0
  6
BYBLOCK
 62
     0
 10
114.8736155077019
 20
209.0525298502118
 30
0.0
 11
114.8603205077019
 21
209.0564988502117
 31
0.0
  0
LINE
  5
62
  8
0
  6
BYBLOCK
 62
     0
 10
114.8603205077019
 20
209.0564988502117
 30
0.0
 11
114.7674515077018
 21
209.0834858502119
 31
0.0
  0
LINE
  5
63
  8
0
  6
BYBLOCK
 62
     0
 10
114.7674515077018
 20
209.0834858502119
 30
0.0
 11
114.7325265077019
 21
209.0914238502119
 31
0.0
  0
LINE
  5
64
  8
0
  6
BYBLOCK
 62
     0
 10
114.9426725077018
 20
209.0334798502117
 30
0.0
 11
114.9426725077018
 21
209.0580858502117
 31
0.0
  0
LINE
  5
65
  8
0
  6
BYBLOCK
 62
     0
 10
114.9426725077018
 20
209.0580858502117
 30
0.0
 11
114.9518005077019
 21
209.0842798502117
 31
0.0
  0
LINE
  5
66
  8
0
  6
BYBLOCK
 62
     0
 10
114.9518005077019
 20
209.0842798502117
 30
0.0
 11
114.9787875077019
 21
209.1612738502117
 31
0.0
  0
LINE
  5
67
  8
0
  6
BYBLOCK
 62
     0
 10
114.9787875077019
 20
209.1612738502117
 30
0.0
 11
114.9823595077017
 21
209.2243768502117
 31
0.0
  0
LINE
  5
68
  8
0
  6
BYBLOCK
 62
     0
 10
114.9823595077017
 20
209.2243768502117
 30
0.0
 11
114.9728345077018
 21
209.2684298502118
 31
0.0
  0
LINE
  5
69
  8
0
  6
BYBLOCK
 62
     0
 10
114.9728345077018
 20
209.2684298502118
 30
0.0
 11
114.9704535077018
 21
209.2815268502118
 31
0.0
  0
LINE
  5
6A
  8
0
  6
BYBLOCK
 62
     0
 10
114.9704535077018
 20
209.2815268502118
 30
0.0
 11
114.9387035077019
 21
209.2767638502119
 31
0.0
  0
LINE
  5
6B
  8
0
  6
BYBLOCK
 62
     0
 10
114.9387035077019
 20
209.2767638502119
 30
0.0
 11
114.9109225077019
 21
209.2795428502118
 31
0.0
  0
LINE
  5
6C
  8
0
  6
BYBLOCK
 62
     0
 10
114.9109225077019
 20
209.2795428502118
 30
0.0
 11
114.8775845077017
 21
209.1823078502118
 31
0.0
  0
LINE
  5
6D
  8
0
  6
BYBLOCK
 62
     0
 10
114.8775845077017
 20
209.1823078502118
 30
0.0
 11
114.8682585077019
 21
209.1866738502117
 31
0.0
  0
LINE
  5
6E
  8
0
  6
BYBLOCK
 62
     0
 10
114.8682585077019
 20
209.1866738502117
 30
0.0
 11
114.8619085077017
 21
209.1688138502118
 31
0.0
  0
LINE
  5
6F
  8
0
  6
BYBLOCK
 62
     0
 10
114.8619085077017
 20
209.1688138502118
 30
0.0
 11
114.8619085077017
 21
209.1501608502117
 31
0.0
  0
LINE
  5
70
  8
0
  6
BYBLOCK
 62
     0
 10
114.8619085077017
 20
209.1501608502117
 30
0.0
 11
114.8555585077019
 21
209.1223798502117
 31
0.0
  0
LINE
  5
71
  8
0
  6
BYBLOCK
 62
     0
 10
114.8555585077019
 20
209.1223798502117
 30
0.0
 11
114.8787755077018
 21
209.1112678502118
 31
0.0
  0
LINE
  5
72
  8
0
  6
BYBLOCK
 62
     0
 10
114.8787755077018
 20
209.1112678502118
 30
0.0
 11
114.8859195077019
 21
209.0993608502117
 31
0.0
  0
LINE
  5
73
  8
0
  6
BYBLOCK
 62
     0
 10
114.8859195077019
 20
209.0993608502117
 30
0.0
 11
114.8736155077019
 21
209.0525298502118
 31
0.0
  0
LINE
  5
74
  8
0
  6
BYBLOCK
 62
     0
 10
114.8603205077019
 20
209.0564988502117
 30
0.0
 11
114.8662735077017
 21
209.0945988502117
 31
0.0
  0
LINE
  5
75
  8
0
  6
BYBLOCK
 62
     0
 10
114.8662735077017
 20
209.0945988502117
 30
0.0
 11
114.8500015077019
 21
209.1001548502118
 31
0.0
  0
LINE
  5
76
  8
0
  6
BYBLOCK
 62
     0
 10
114.8500015077019
 20
209.1001548502118
 30
0.0
 11
114.8555585077019
 21
209.1223798502117
 31
0.0
  0
LINE
  5
77
  8
0
  6
BYBLOCK
 62
     0
 10
114.8500015077019
 20
209.1001548502118
 30
0.0
 11
114.8376985077019
 21
209.0942018502119
 31
0.0
  0
LINE
  5
78
  8
0
  6
BYBLOCK
 62
     0
 10
114.8376985077019
 20
209.0942018502119
 30
0.0
 11
114.8357145077019
 21
209.1037268502118
 31
0.0
  0
LINE
  5
79
  8
0
  6
BYBLOCK
 62
     0
 10
114.8376985077019
 20
209.0942018502119
 30
0.0
 11
114.8202365077019
 21
209.0918208502119
 31
0.0
  0
LINE
  5
7A
  8
0
  6
BYBLOCK
 62
     0
 10
114.8202365077019
 20
209.0918208502119
 30
0.0
 11
114.8230145077019
 21
209.1041238502119
 31
0.0
  0
LINE
  5
7B
  8
0
  6
BYBLOCK
 62
     0
 10
114.8202365077019
 20
209.0918208502119
 30
0.0
 11
114.7980115077017
 21
209.0973768502117
 31
0.0
  0
LINE
  5
7C
  8
0
  6
BYBLOCK
 62
     0
 10
114.7980115077017
 20
209.0973768502117
 30
0.0
 11
114.7988055077018
 21
209.1096798502117
 31
0.0
  0
LINE
  5
7D
  8
0
  6
BYBLOCK
 62
     0
 10
114.7980115077017
 20
209.0973768502117
 30
0.0
 11
114.7849145077017
 21
209.1037268502118
 31
0.0
  0
LINE
  5
7E
  8
0
  6
BYBLOCK
 62
     0
 10
114.7849145077017
 20
209.1037268502118
 30
0.0
 11
114.7825335077019
 21
209.1243638502117
 31
0.0
  0
LINE
  5
7F
  8
0
  6
BYBLOCK
 62
     0
 10
114.7825335077019
 20
209.1243638502117
 30
0.0
 11
114.7785645077018
 21
209.1334928502117
 31
0.0
  0
LINE
  5
80
  8
0
  6
BYBLOCK
 62
     0
 10
114.7785645077018
 20
209.1334928502117
 30
0.0
 11
114.7591175077019
 21
209.1168238502119
 31
0.0
  0
LINE
  5
81
  8
0
  6
BYBLOCK
 62
     0
 10
114.7591175077019
 20
209.1168238502119
 30
0.0
 11
114.7448305077017
 21
209.0886458502118
 31
0.0
  0
LINE
  5
82
  8
0
  6
BYBLOCK
 62
     0
 10
114.7567365077019
 20
209.0854708502118
 30
0.0
 11
114.7702305077017
 21
209.1057108502118
 31
0.0
  0
LINE
  5
83
  8
0
  6
BYBLOCK
 62
     0
 10
114.7702305077017
 20
209.1057108502118
 30
0.0
 11
114.7849145077017
 21
209.1132518502118
 31
0.0
  0
LINE
  5
84
  8
0
  6
BYBLOCK
 62
     0
 10
114.7325265077019
 20
209.0914238502119
 30
0.0
 11
114.7420515077018
 21
209.1196018502119
 31
0.0
  0
LINE
  5
85
  8
0
  6
BYBLOCK
 62
     0
 10
114.7420515077018
 20
209.1196018502119
 30
0.0
 11
114.7476085077018
 21
209.1418268502118
 31
0.0
  0
LINE
  5
86
  8
0
  6
BYBLOCK
 62
     0
 10
114.7476085077018
 20
209.1418268502118
 30
0.0
 11
114.7591175077019
 21
209.1811178502119
 31
0.0
  0
LINE
  5
87
  8
0
  6
BYBLOCK
 62
     0
 10
114.7591175077019
 20
209.1811178502119
 30
0.0
 11
114.7674515077018
 21
209.2255678502117
 31
0.0
  0
LINE
  5
88
  8
0
  6
BYBLOCK
 62
     0
 10
114.7674515077018
 20
209.2255678502117
 30
0.0
 11
114.7817395077019
 21
209.2799388502117
 31
0.0
  0
LINE
  5
89
  8
0
  6
BYBLOCK
 62
     0
 10
114.7817395077019
 20
209.2799388502117
 30
0.0
 11
114.7861055077018
 21
209.2974018502118
 31
0.0
  0
LINE
  5
8A
  8
0
  6
BYBLOCK
 62
     0
 10
114.7861055077018
 20
209.2974018502118
 30
0.0
 11
114.8293645077018
 21
209.2835108502118
 31
0.0
  0
LINE
  5
8B
  8
0
  6
BYBLOCK
 62
     0
 10
114.8293645077018
 20
209.2835108502118
 30
0.0
 11
114.8091235077019
 21
209.2160428502118
 31
0.0
  0
LINE
  5
8C
  8
0
  6
BYBLOCK
 62
     0
 10
114.8091235077019
 20
209.2160428502118
 30
0.0
 11
114.8682585077019
 21
209.1866738502117
 31
0.0
  0
LINE
  5
8D
  8
0
  6
BYBLOCK
 62
     0
 10
114.8178555077019
 20
209.2100888502118
 30
0.0
 11
114.8035675077018
 21
209.1751638502119
 31
0.0
  0
LINE
  5
8E
  8
0
  6
BYBLOCK
 62
     0
 10
114.8035675077018
 20
209.1751638502119
 30
0.0
 11
114.7896765077018
 21
209.1529388502117
 31
0.0
  0
LINE
  5
8F
  8
0
  6
BYBLOCK
 62
     0
 10
114.7896765077018
 20
209.1529388502117
 30
0.0
 11
114.7813425077019
 21
209.1334928502117
 31
0.0
  0
LINE
  5
90
  8
0
  6
BYBLOCK
 62
     0
 10
114.8293645077018
 20
209.2835108502118
 30
0.0
 11
114.8369055077018
 21
209.3148638502119
 31
0.0
  0
LINE
  5
91
  8
0
  6
BYBLOCK
 62
     0
 10
114.8369055077018
 20
209.3148638502119
 30
0.0
 11
114.8619085077017
 21
209.3732048502118
 31
0.0
  0
LINE
  5
92
  8
0
  6
BYBLOCK
 62
     0
 10
114.8619085077017
 20
209.3732048502118
 30
0.0
 11
114.8744095077019
 21
209.5077458502119
 31
0.0
  0
LINE
  5
93
  8
0
  6
BYBLOCK
 62
     0
 10
114.8744095077019
 20
209.5077458502119
 30
0.0
 11
114.8759975077018
 21
209.5545768502118
 31
0.0
  0
LINE
  5
94
  8
0
  6
BYBLOCK
 62
     0
 10
114.8759975077018
 20
209.5545768502118
 30
0.0
 11
114.8787755077018
 21
209.6073608502118
 31
0.0
  0
LINE
  5
95
  8
0
  6
BYBLOCK
 62
     0
 10
114.9676755077018
 20
209.6212518502118
 30
0.0
 11
114.9787875077019
 21
209.5041738502118
 31
0.0
  0
LINE
  5
96
  8
0
  6
BYBLOCK
 62
     0
 10
114.9787875077019
 20
209.5041738502118
 30
0.0
 11
114.9787875077019
 21
209.4458328502119
 31
0.0
  0
LINE
  5
97
  8
0
  6
BYBLOCK
 62
     0
 10
114.9787875077019
 20
209.4458328502119
 30
0.0
 11
114.9565625077017
 21
209.3843178502118
 31
0.0
  0
LINE
  5
98
  8
0
  6
BYBLOCK
 62
     0
 10
114.9565625077017
 20
209.3843178502118
 30
0.0
 11
114.9267975077017
 21
209.3259768502119
 31
0.0
  0
LINE
  5
99
  8
0
  6
BYBLOCK
 62
     0
 10
114.9787875077019
 20
209.2835108502118
 30
0.0
 11
114.9660875077019
 21
209.3255798502119
 31
0.0
  0
LINE
  5
9A
  8
0
  6
BYBLOCK
 62
     0
 10
114.9660875077019
 20
209.3255798502119
 30
0.0
 11
114.9565625077017
 21
209.3843178502118
 31
0.0
  0
LINE
  5
9B
  8
0
  6
BYBLOCK
 62
     0
 10
114.9787875077019
 20
209.4458328502119
 30
0.0
 11
114.9899005077019
 21
209.4716298502117
 31
0.0
  0
LINE
  5
9C
  8
0
  6
BYBLOCK
 62
     0
 10
114.9899005077019
 20
209.4716298502117
 30
0.0
 11
114.9962505077018
 21
209.5133018502117
 31
0.0
  0
LINE
  5
9D
  8
0
  6
BYBLOCK
 62
     0
 10
114.9962505077018
 20
209.5133018502117
 30
0.0
 11
115.0002195077019
 21
209.5454488502119
 31
0.0
  0
LINE
  5
9E
  8
0
  6
BYBLOCK
 62
     0
 10
115.0002195077019
 20
209.5454488502119
 30
0.0
 11
114.9930755077017
 21
209.6137108502119
 31
0.0
  0
LINE
  5
9F
  8
0
  6
BYBLOCK
 62
     0
 10
114.9930755077017
 20
209.6137108502119
 30
0.0
 11
114.9839475077018
 21
209.6442708502118
 31
0.0
  0
LINE
  5
A0
  8
0
  6
BYBLOCK
 62
     0
 10
114.8535735077018
 20
209.6498268502119
 30
0.0
 11
114.8119015077019
 21
209.6176798502117
 31
0.0
  0
LINE
  5
A1
  8
0
  6
BYBLOCK
 62
     0
 10
114.8119015077019
 20
209.6176798502117
 30
0.0
 11
114.7825335077019
 21
209.5910888502117
 31
0.0
  0
LINE
  5
A2
  8
0
  6
BYBLOCK
 62
     0
 10
114.7825335077019
 20
209.5910888502117
 30
0.0
 11
114.7579265077019
 21
209.5644988502117
 31
0.0
  0
LINE
  5
A3
  8
0
  6
BYBLOCK
 62
     0
 10
114.7579265077019
 20
209.5644988502117
 30
0.0
 11
114.7531645077019
 21
209.5490208502117
 31
0.0
  0
LINE
  5
A4
  8
0
  6
BYBLOCK
 62
     0
 10
114.7531645077019
 20
209.5490208502117
 30
0.0
 11
114.7531645077019
 21
209.5240178502117
 31
0.0
  0
LINE
  5
A5
  8
0
  6
BYBLOCK
 62
     0
 10
114.7531645077019
 20
209.5240178502117
 30
0.0
 11
114.7607055077018
 21
209.4994108502117
 31
0.0
  0
LINE
  5
A6
  8
0
  6
BYBLOCK
 62
     0
 10
114.7607055077018
 20
209.4994108502117
 30
0.0
 11
114.7726115077018
 21
209.4803608502118
 31
0.0
  0
LINE
  5
A7
  8
0
  6
BYBLOCK
 62
     0
 10
114.7726115077018
 20
209.4803608502118
 30
0.0
 11
114.7837235077019
 21
209.4581358502119
 31
0.0
  0
LINE
  5
A8
  8
0
  6
BYBLOCK
 62
     0
 10
114.7837235077019
 20
209.4581358502119
 30
0.0
 11
114.7912645077018
 21
209.4355138502117
 31
0.0
  0
LINE
  5
A9
  8
0
  6
BYBLOCK
 62
     0
 10
114.7912645077018
 20
209.4355138502117
 30
0.0
 11
114.7892805077018
 21
209.4105108502117
 31
0.0
  0
LINE
  5
AA
  8
0
  6
BYBLOCK
 62
     0
 10
114.7892805077018
 20
209.4105108502117
 30
0.0
 11
114.7817395077019
 21
209.3930488502117
 31
0.0
  0
LINE
  5
AB
  8
0
  6
BYBLOCK
 62
     0
 10
114.7817395077019
 20
209.3930488502117
 30
0.0
 11
114.7789615077019
 21
209.3684428502117
 31
0.0
  0
LINE
  5
AC
  8
0
  6
BYBLOCK
 62
     0
 10
114.7789615077019
 20
209.3684428502117
 30
0.0
 11
114.7773735077018
 21
209.3545518502117
 31
0.0
  0
LINE
  5
AD
  8
0
  6
BYBLOCK
 62
     0
 10
114.7773735077018
 20
209.3545518502117
 30
0.0
 11
114.7769765077018
 21
209.3275638502118
 31
0.0
  0
LINE
  5
AE
  8
0
  6
BYBLOCK
 62
     0
 10
114.7769765077018
 20
209.3275638502118
 30
0.0
 11
114.7829305077017
 21
209.3069268502118
 31
0.0
  0
LINE
  5
AF
  8
0
  6
BYBLOCK
 62
     0
 10
114.7829305077017
 20
209.3069268502118
 30
0.0
 11
114.7861055077018
 21
209.2974018502118
 31
0.0
  0
LINE
  5
B0
  8
0
  6
BYBLOCK
 62
     0
 10
114.9109225077019
 20
209.2795428502118
 30
0.0
 11
114.9267975077017
 21
209.3259768502119
 31
0.0
  0
LINE
  5
B1
  8
0
  6
BYBLOCK
 62
     0
 10
114.8974285077019
 20
209.7811928502117
 30
0.0
 11
114.9035359324809
 21
209.8358517355265
 31
0.0
  0
POLYLINE
  5
B2
  8
0
  6
BYBLOCK
 62
     0
 66
     1
 10
0.0
 20
0.0
 30
0.0
  0
VERTEX
  5
156
  8
0
  6
BYBLOCK
 62
     0
 10
114.8079335077019
 20
209.9538328502117
 30
0.0
  0
VERTEX
  5
157
  8
0
  6
BYBLOCK
 62
     0
 10
114.8025275626833
 20
209.9388276858179
 30
0.0
  0
VERTEX
  5
158
  8
0
  6
BYBLOCK
 62
     0
 10
114.8020297214815
 20
209.9268837008417
 30
0.0
  0
VERTEX
  5
159
  8
0
  6
BYBLOCK
 62
     0
 10
114.8089996604349
 20
209.9179257154188
 30
0.0
  0
VERTEX
  5
15A
  8
0
  6
BYBLOCK
 62
     0
 10
114.8234374335865
 20
209.913944395918
 30
0.0
  0
VERTEX
  5
15B
  8
0
  6
BYBLOCK
 62
     0
 10
114.8617721788948
 20
209.9119537295491
 30
0.0
  0
VERTEX
  5
15C
  8
0
  6
BYBLOCK
 62
     0
 10
114.8831798909998
 20
209.9034934107184
 30
0.0
  0
SEQEND
  5
16B
  8
0
  6
BYBLOCK
 62
     0
  0
LINE
  5
BB
  8
0
  6
BYBLOCK
 62
     0
 10
114.8338949231575
 20
209.9974166378325
 30
0.0
 11
114.9825590348919
 21
209.9152652183447
 31
0.0
  0
POLYLINE
  5
BC
  8
0
  6
BYBLOCK
 62
     0
 66
     1
 10
0.0
 20
0.0
 30
0.0
  0
VERTEX
  5
15D
  8
0
  6
BYBLOCK
 62
     0
 10
114.8559184195152
 20
210.0219720254724
 30
0.0
  0
VERTEX
  5
15E
  8
0
  6
BYBLOCK
 62
     0
 10
114.948126586792
 20
209.996048277899
 30
0.0
  0
VERTEX
  5
15F
  8
0
  6
BYBLOCK
 62
     0
 10
114.9884676667309
 20
209.9456409938924
 30
0.0
  0
SEQEND
  5
16C
  8
0
  6
BYBLOCK
 62
     0
  0
POLYLINE
  5
C1
  8
0
  6
BYBLOCK
 62
     0
 66
     1
 10
0.0
 20
0.0
 30
0.0
  0
VERTEX
  5
160
  8
0
  6
BYBLOCK
 62
     0
 10
114.8184588594402
 20
209.9802059950691
 30
0.0
  0
VERTEX
  5
161
  8
0
  6
BYBLOCK
 62
     0
 10
114.8559184195152
 20
210.0219720254724
 30
0.0
  0
VERTEX
  5
162
  8
0
  6
BYBLOCK
 62
     0
 10
114.9884676667309
 20
209.9456409938924
 30
0.0
  0
VERTEX
  5
163
  8
0
  6
BYBLOCK
 62
     0
 10
114.9783824012498
 20
209.8937934987457
 30
0.0
  0
SEQEND
  5
16D
  8
0
  6
BYBLOCK
 62
     0
  0
LINE
  5
C7
  8
0
  6
BYBLOCK
 62
     0
 10
114.7593880084709
 20
210.0104503628257
 30
0.0
 11
115.0273679867379
 21
209.8649893288922
 31
0.0
  0
POLYLINE
  5
C8
  8
0
  6
BYBLOCK
 62
     0
 66
     1
 10
0.0
 20
0.0
 30
0.0
  0
VERTEX
  5
164
  8
0
  6
BYBLOCK
 62
     0
 10
114.880651341917
 20
209.8950470038378
 30
0.0
  0
VERTEX
  5
165
  8
0
  6
BYBLOCK
 62
     0
 10
114.8973000372852
 20
209.8714702591672
 30
0.0
  0
VERTEX
  5
166
  8
0
  6
BYBLOCK
 62
     0
 10
114.9090928714276
 20
209.8340248489472
 30
0.0
  0
VERTEX
  5
167
  8
0
  6
BYBLOCK
 62
     0
 10
114.9090928714276
 20
209.8104481042765
 30
0.0
  0
VERTEX
  5
168
  8
0
  6
BYBLOCK
 62
     0
 10
114.9160298263298
 20
209.7570537088195
 30
0.0
  0
VERTEX
  5
169
  8
0
  6
BYBLOCK
 62
     0
 10
114.9458587396151
 20
209.7383310037095
 30
0.0
  0
VERTEX
  5
16A
  8
0
  6
BYBLOCK
 62
     0
 10
114.9625074529976
 20
209.7119805126921
 30
0.0
  0
SEQEND
  5
16E
  8
0
  6
BYBLOCK
 62
     0
  0
LINE
  5
D1
  8
0
  6
BYBLOCK
 62
     0
 10
114.8464305077019
 20
209.8823958502119
 30
0.0
 11
114.8384925077017
 21
209.8792208502118
 31
0.0
  0
LINE
  5
D2
  8
0
  6
BYBLOCK
 62
     0
 10
114.8365085077018
 20
209.8974768502119
 30
0.0
 11
114.8464305077019
 21
209.8823958502119
 31
0.0
  0
LINE
  5
D3
  8
0
  6
BYBLOCK
 62
     0
 10
114.8515895077018
 20
209.8927138502117
 30
0.0
 11
114.8365085077018
 21
209.8974768502119
 31
0.0
  0
LINE
  5
D4
  8
0
  6
BYBLOCK
 62
     0
 10
114.8523835077018
 20
209.7669048502119
 30
0.0
 11
114.8674645077018
 21
209.7680958502117
 31
0.0
  0
LINE
  5
D5
  8
0
  6
BYBLOCK
 62
     0
 10
114.8325395077019
 20
209.7736518502118
 30
0.0
 11
114.8523835077018
 21
209.7669048502119
 31
0.0
  0
LINE
  5
D6
  8
0
  6
BYBLOCK
 62
     0
 10
114.8234115077017
 20
209.7835738502117
 30
0.0
 11
114.8325395077019
 21
209.7736518502118
 31
0.0
  0
LINE
  5
D7
  8
0
  6
BYBLOCK
 62
     0
 10
114.8222205077019
 20
209.8093708502117
 30
0.0
 11
114.8234115077017
 21
209.7835738502117
 31
0.0
  0
LINE
  5
D8
  8
0
  6
BYBLOCK
 62
     0
 10
114.8222205077019
 20
209.8093708502117
 30
0.0
 11
114.8404765077017
 21
209.8113548502117
 31
0.0
  0
LINE
  5
D9
  8
0
  6
BYBLOCK
 62
     0
 10
114.8242055077018
 20
209.8399298502118
 30
0.0
 11
114.8222205077019
 21
209.8093708502117
 31
0.0
  0
LINE
  5
DA
  8
0
  6
BYBLOCK
 62
     0
 10
114.8091235077019
 20
209.8506458502118
 30
0.0
 11
114.8242055077018
 21
209.8399298502118
 31
0.0
  0
LINE
  5
DB
  8
0
  6
BYBLOCK
 62
     0
 10
114.8198395077019
 20
209.8696958502119
 30
0.0
 11
114.8091235077019
 21
209.8506458502118
 31
0.0
  0
LINE
  5
DC
  8
0
  6
BYBLOCK
 62
     0
 10
114.8222205077019
 20
209.8887458502118
 30
0.0
 11
114.8198395077019
 21
209.8696958502119
 31
0.0
  0
LINE
  5
DD
  8
0
  6
BYBLOCK
 62
     0
 10
114.8249985077019
 20
209.9117638502119
 30
0.0
 11
114.8222205077019
 21
209.8887458502118
 31
0.0
  0
LINE
  5
DE
  8
0
  6
BYBLOCK
 62
     0
 10
114.8204503143186
 20
209.975654960694
 30
0.0
 11
114.8079335077019
 21
209.9538328502117
 31
0.0
  0
LINE
  5
DF
  8
0
  6
BYBLOCK
 62
     0
 10
114.9698064758661
 20
209.8457641786801
 30
0.0
 11
114.9742871547678
 21
209.8915494257422
 31
0.0
  0
LINE
  5
E0
  8
0
  6
BYBLOCK
 62
     0
 10
114.9708551020855
 20
209.8112822123873
 30
0.0
 11
114.9698064758661
 21
209.8457641786801
 31
0.0
  0
LINE
  5
E1
  8
0
  6
BYBLOCK
 62
     0
 10
114.9902975077019
 20
209.7684928502117
 30
0.0
 11
114.9708551020855
 21
209.8112822123873
 31
0.0
  0
LINE
  5
E2
  8
0
  6
BYBLOCK
 62
     0
 10
114.9894485054108
 20
209.6276949563116
 30
0.0
 11
114.9902975077019
 21
209.7684928502117
 31
0.0
  0
LINE
  5
E3
  8
0
  6
BYBLOCK
 62
     0
 10
114.8710365077019
 20
209.7248358502118
 30
0.0
 11
114.9006035077019
 21
209.7391238502119
 31
0.0
  0
LINE
  5
E4
  8
0
  6
BYBLOCK
 62
     0
 10
114.8654805077018
 20
209.7220578502117
 30
0.0
 11
114.8539705077018
 21
209.6756238502119
 31
0.0
  0
LINE
  5
E5
  8
0
  6
BYBLOCK
 62
     0
 10
114.8710365077019
 20
209.7248358502118
 30
0.0
 11
114.8654805077018
 21
209.7220578502117
 31
0.0
  0
LINE
  5
E6
  8
0
  6
BYBLOCK
 62
     0
 10
114.8674645077018
 20
209.7680958502117
 30
0.0
 11
114.8710365077019
 21
209.7248358502118
 31
0.0
  0
LINE
  5
E7
  8
0
  6
BYBLOCK
 62
     0
 10
114.8756005077017
 20
209.7692858502119
 30
0.0
 11
114.8674645077018
 21
209.7680958502117
 31
0.0
  0
LINE
  5
E8
  8
0
  6
BYBLOCK
 62
     0
 10
114.8890945077018
 20
209.7752388502117
 30
0.0
 11
114.8756005077017
 21
209.7692858502119
 31
0.0
  0
LINE
  5
E9
  8
0
  6
BYBLOCK
 62
     0
 10
114.8974285077019
 20
209.7811928502117
 30
0.0
 11
114.8890945077018
 21
209.7752388502117
 31
0.0
  0
LINE
  5
EA
  8
0
  6
BYBLOCK
 62
     0
 10
114.8978255077019
 20
209.7557928502117
 30
0.0
 11
114.8974285077019
 21
209.7811928502117
 31
0.0
  0
LINE
  5
EB
  8
0
  6
BYBLOCK
 62
     0
 10
114.9021905077019
 20
209.7403138502118
 30
0.0
 11
114.8978255077019
 21
209.7557928502117
 31
0.0
  0
LINE
  5
EC
  8
0
  6
BYBLOCK
 62
     0
 10
114.9387035077019
 20
209.7319798502117
 30
0.0
 11
114.9021905077019
 21
209.7403138502118
 31
0.0
  0
LINE
  5
ED
  8
0
  6
BYBLOCK
 62
     0
 10
114.9371155077018
 20
209.7244388502118
 30
0.0
 11
114.9387035077019
 21
209.7319798502117
 31
0.0
  0
LINE
  5
EE
  8
0
  6
BYBLOCK
 62
     0
 10
114.9371155077018
 20
209.7244388502118
 30
0.0
 11
114.9510065077019
 21
209.7089608502117
 31
0.0
  0
LINE
  5
EF
  8
0
  6
BYBLOCK
 62
     0
 10
114.8879035077019
 20
209.6978488502118
 30
0.0
 11
114.9371155077018
 21
209.7244388502118
 31
0.0
  0
LINE
  5
F0
  8
0
  6
BYBLOCK
 62
     0
 10
114.8480175077019
 20
209.6716548502118
 30
0.0
 11
114.8879035077019
 21
209.6978488502118
 31
0.0
  0
LINE
  5
F1
  8
0
  6
BYBLOCK
 62
     0
 10
114.8035675077018
 20
209.6085518502118
 30
0.0
 11
114.8480175077019
 21
209.6716548502118
 31
0.0
  0
LINE
  5
F2
  8
0
  6
BYBLOCK
 62
     0
 10
114.8119015077019
 20
209.6176798502117
 30
0.0
 11
114.7825335077019
 21
209.5910888502117
 31
0.0
  0
LINE
  5
F3
  8
0
  6
BYBLOCK
 62
     0
 10
114.8535735077018
 20
209.6498268502119
 30
0.0
 11
114.8119015077019
 21
209.6176798502117
 31
0.0
  0
LINE
  5
F4
  8
0
  6
BYBLOCK
 62
     0
 10
114.8994125077019
 20
209.6847518502118
 30
0.0
 11
114.8535735077018
 21
209.6498268502119
 31
0.0
  0
LINE
  5
F5
  8
0
  6
BYBLOCK
 62
     0
 10
114.9510065077019
 20
209.7089608502117
 30
0.0
 11
114.8994125077019
 21
209.6847518502118
 31
0.0
  0
LINE
  5
F6
  8
0
  6
BYBLOCK
 62
     0
 10
114.9839475077018
 20
209.6442708502118
 30
0.0
 11
114.9510065077019
 21
209.7089608502117
 31
0.0
  0
LINE
  5
F7
  8
0
  6
BYBLOCK
 62
     0
 10
114.9930755077017
 20
209.6137108502119
 30
0.0
 11
114.9839475077018
 21
209.6442708502118
 31
0.0
  0
ENDSEC
  0
EOF
