  0
SECTION
  2
HEADER
  9
$ACADVER
  1
AC1009
  9
$DWGCODEPAGE
  3
ansi_1252
  9
$INSBASE
 10
267.5795370800725
 20
17.66733411164778
 30
0.0
  9
$EXTMIN
 10
266.9667065876615
 20
17.63971016141545
 30
-0.0000000349181948
  9
$EXTMAX
 10
268.1866462973258
 20
19.17245519041603
 30
0.0000000814935746
  9
$LIMMIN
 10
0.0
 20
0.0
  9
$LIMMAX
 10
410.0
 20
287.0
  9
$ORTHOMODE
 70
     0
  9
$REGENMODE
 70
     1
  9
$FILLMODE
 70
     1
  9
$QTEXTMODE
 70
     0
  9
$MIRRTEXT
 70
     1
  9
$DRAGMODE
 70
     2
  9
$LTSCALE
 40
25.0
  9
$OSMODE
 70
    37
  9
$ATTMODE
 70
     1
  9
$TEXTSIZE
 40
3.5
  9
$TRACEWID
 40
1.0
  9
$TEXTSTYLE
  7
STANDARD
  9
$CLAYER
  8
0
  9
$CELTYPE
  6
BYLAYER
  9
$CECOLOR
 62
   256
  9
$DIMSCALE
 40
1.0
  9
$DIMASZ
 40
3.5
  9
$DIMEXO
 40
0.1
  9
$DIMDLI
 40
7.0
  9
$DIMRND
 40
0.0
  9
$DIMDLE
 40
0.0
  9
$DIMEXE
 40
1.8
  9
$DIMTP
 40
0.0
  9
$DIMTM
 40
0.0
  9
$DIMTXT
 40
3.5
  9
$DIMCEN
 40
1.5
  9
$DIMTSZ
 40
0.0
  9
$DIMTOL
 70
     0
  9
$DIMLIM
 70
     0
  9
$DIMTIH
 70
     0
  9
$DIMTOH
 70
     0
  9
$DIMSE1
 70
     0
  9
$DIMSE2
 70
     0
  9
$DIMTAD
 70
     0
  9
$DIMZIN
 70
     0
  9
$DIMBLK
  1

  9
$DIMASO
 70
     1
  9
$DIMSHO
 70
     0
  9
$DIMPOST
  1

  9
$DIMAPOST
  1

  9
$DIMALT
 70
     0
  9
$DIMALTD
 70
     2
  9
$DIMALTF
 40
25.4
  9
$DIMLFAC
 40
1.0
  9
$DIMTOFL
 70
     0
  9
$DIMTVP
 40
0.0
  9
$DIMTIX
 70
     0
  9
$DIMSOXD
 70
     0
  9
$DIMSAH
 70
     0
  9
$DIMBLK1
  1

  9
$DIMBLK2
  1

  9
$DIMSTYLE
  2
STANDARD
  9
$DIMCLRD
 70
     0
  9
$DIMCLRE
 70
     0
  9
$DIMCLRT
 70
     0
  9
$DIMTFAC
 40
1.0
  9
$DIMGAP
 40
0.09
  9
$LUNITS
 70
     2
  9
$LUPREC
 70
     2
  9
$SKETCHINC
 40
1.0
  9
$FILLETRAD
 40
0.0
  9
$AUNITS
 70
     0
  9
$AUPREC
 70
     0
  9
$MENU
  1
ARQ
  9
$ELEVATION
 40
0.0
  9
$PELEVATION
 40
0.0
  9
$THICKNESS
 40
0.0
  9
$LIMCHECK
 70
     0
  9
$CHAMFERA
 40
0.0
  9
$CHAMFERB
 40
0.0
  9
$SKPOLY
 70
     0
  9
$TDCREATE
 40
2450533.456342245
  9
$TDUPDATE
 40
2457483.532407407
  9
$TDINDWG
 40
0.0024043403
  9
$TDUSRTIMER
 40
0.0024043403
  9
$USRTIMER
 70
     1
  9
$ANGBASE
 50
0.0
  9
$ANGDIR
 70
     0
  9
$PDMODE
 70
     0
  9
$PDSIZE
 40
0.0
  9
$PLINEWID
 40
0.0
  9
$COORDS
 70
     1
  9
$SPLFRAME
 70
     0
  9
$SPLINETYPE
 70
     6
  9
$SPLINESEGS
 70
     8
  9
$ATTDIA
 70
     0
  9
$ATTREQ
 70
     1
  9
$HANDLING
 70
     1
  9
$HANDSEED
  5
5DF
  9
$SURFTAB1
 70
     6
  9
$SURFTAB2
 70
     6
  9
$SURFTYPE
 70
     6
  9
$SURFU
 70
     6
  9
$SURFV
 70
     6
  9
$UCSNAME
  2

  9
$UCSORG
 10
0.0
 20
0.0
 30
0.0
  9
$UCSXDIR
 10
1.0
 20
0.0
 30
0.0
  9
$UCSYDIR
 10
0.0
 20
1.0
 30
0.0
  9
$PUCSNAME
  2

  9
$PUCSORG
 10
0.0
 20
0.0
 30
0.0
  9
$PUCSXDIR
 10
1.0
 20
0.0
 30
0.0
  9
$PUCSYDIR
 10
0.0
 20
1.0
 30
0.0
  9
$USERI1
 70
     0
  9
$USERI2
 70
     0
  9
$USERI3
 70
     0
  9
$USERI4
 70
     0
  9
$USERI5
 70
     0
  9
$USERR1
 40
0.0
  9
$USERR2
 40
0.0
  9
$USERR3
 40
0.0
  9
$USERR4
 40
0.0
  9
$USERR5
 40
0.0
  9
$WORLDVIEW
 70
     1
  9
$SHADEDGE
 70
     3
  9
$SHADEDIF
 70
    70
  9
$TILEMODE
 70
     1
  9
$MAXACTVP
 70
    16
  9
$PLIMCHECK
 70
     0
  9
$PEXTMIN
 10
1.000000000000000E+20
 20
1.000000000000000E+20
 30
1.000000000000000E+20
  9
$PEXTMAX
 10
-1.000000000000000E+20
 20
-1.000000000000000E+20
 30
-1.000000000000000E+20
  9
$PLIMMIN
 10
0.0
 20
0.0
  9
$PLIMMAX
 10
12.0
 20
9.0
  9
$UNITMODE
 70
     0
  9
$VISRETAIN
 70
     0
  9
$PLINEGEN
 70
     0
  9
$PSLTSCALE
 70
     0
  0
ENDSEC
  0
SECTION
  2
TABLES
  0
TABLE
  2
VPORT
 70
     1
  0
VPORT
  2
*ACTIVE
 70
     0
 10
0.0
 20
0.0
 11
1.0
 21
1.0
 12
267.5766764424936
 22
18.40608267591574
 13
0.0
 23
0.0
 14
1.0
 24
1.0
 15
10.0
 25
10.0
 16
0.0
 26
0.0
 36
1.0
 17
0.0
 27
0.0
 37
0.0
 40
1.548711123052669
 41
1.365217391304348
 42
50.0
 43
0.0
 44
0.0
 50
0.0
 51
0.0
 71
     0
 72
   100
 73
     1
 74
     0
 75
     0
 76
     0
 77
     0
 78
     0
  0
ENDTAB
  0
TABLE
  2
LTYPE
 70
     1
  0
LTYPE
  2
CONTINUOUS
 70
     0
  3
Solid Line
 72
    65
 73
     0
 40
0.0
  0
ENDTAB
  0
TABLE
  2
LAYER
 70
     1
  0
LAYER
  2
0
 70
     0
 62
     7
  6
CONTINUOUS
  0
ENDTAB
  0
TABLE
  2
STYLE
 70
     1
  0
STYLE
  2
STANDARD
 70
     0
 40
0.0
 41
1.0
 50
0.0
 71
     0
 42
3.5
  3
txt
  4

  0
ENDTAB
  0
TABLE
  2
VIEW
 70
     0
  0
ENDTAB
  0
TABLE
  2
UCS
 70
     0
  0
ENDTAB
  0
TABLE
  2
APPID
 70
     1
  0
APPID
  2
ACAD
 70
     0
  0
ENDTAB
  0
TABLE
  2
DIMSTYLE
 70
     1
  0
DIMSTYLE
  2
STANDARD
 70
     0
  3

  4

  5

  6

  7

 40
1.0
 41
0.18
 42
0.0625
 43
0.38
 44
0.18
 45
0.0
 46
0.0
 47
0.0
 48
0.0
140
0.18
141
0.09
142
0.0
143
25.4
144
1.0
145
0.0
146
1.0
147
0.09
 71
     0
 72
     0
 73
     1
 74
     1
 75
     0
 76
     0
 77
     0
 78
     0
170
     0
171
     2
172
     0
173
     0
174
     0
175
     0
176
     0
177
     0
178
     0
  0
ENDTAB
  0
ENDSEC
  0
SECTION
  2
BLOCKS
  0
BLOCK
  8
0
  2
$MODEL_SPACE
 70
     0
 10
0.0
 20
0.0
 30
0.0
  3
$MODEL_SPACE
  1

  0
ENDBLK
  5
1F
  8
0
  0
BLOCK
 67
     1
  8
0
  2
$PAPER_SPACE
 70
     0
 10
0.0
 20
0.0
 30
0.0
  3
$PAPER_SPACE
  1

  0
ENDBLK
  5
1D
 67
     1
  8
0
  0
ENDSEC
  0
SECTION
  2
ENTITIES
  0
POLYLINE
  5
23
  8
0
  6
BYBLOCK
 62
     0
 66
     1
 10
0.0
 20
0.0
 30
0.0
  0
VERTEX
  5
341
  8
0
  6
BYBLOCK
 62
     0
 10
267.7445777300474
 20
18.95630424899246
 30
0.0
  0
VERTEX
  5
342
  8
0
  6
BYBLOCK
 62
     0
 10
267.7000138868109
 20
18.95995469147034
 30
0.0
  0
VERTEX
  5
343
  8
0
  6
BYBLOCK
 62
     0
 10
267.6445935328286
 20
18.99968288363216
 30
0.0
  0
VERTEX
  5
344
  8
0
  6
BYBLOCK
 62
     0
 10
267.6048653406668
 20
19.00812156884075
 30
0.0
  0
VERTEX
  5
345
  8
0
  6
BYBLOCK
 62
     0
 10
267.6482439753065
 20
19.02499893925795
 30
0.0
  0
VERTEX
  5
346
  8
0
  6
BYBLOCK
 62
     0
 10
267.6445935328286
 20
19.03343762446654
 30
0.0
  0
VERTEX
  5
347
  8
0
  6
BYBLOCK
 62
     0
 10
267.5506301952812
 20
19.02499893925795
 30
0.0
  0
VERTEX
  5
348
  8
0
  6
BYBLOCK
 62
     0
 10
267.5458893608944
 20
19.04064369273456
 30
0.0
  0
VERTEX
  5
349
  8
0
  6
BYBLOCK
 62
     0
 10
267.575946250907
 20
19.07676885076237
 30
0.0
  0
VERTEX
  5
34A
  8
0
  6
BYBLOCK
 62
     0
 10
267.5639045315644
 20
19.08041929324025
 30
0.0
  0
VERTEX
  5
34B
  8
0
  6
BYBLOCK
 62
     0
 10
267.5506301952812
 20
19.06472713141977
 30
0.0
  0
VERTEX
  5
34C
  8
0
  6
BYBLOCK
 62
     0
 10
267.51213462006
 20
19.03704065860055
 30
0.0
  0
VERTEX
  5
34D
  8
0
  6
BYBLOCK
 62
     0
 10
267.4808451131067
 20
19.03343762446654
 30
0.0
  0
VERTEX
  5
34E
  8
0
  6
BYBLOCK
 62
     0
 10
267.504928551792
 20
19.06472713141977
 30
0.0
  0
VERTEX
  5
34F
  8
0
  6
BYBLOCK
 62
     0
 10
267.4808451131067
 20
19.05993888868905
 30
0.0
  0
VERTEX
  5
350
  8
0
  6
BYBLOCK
 62
     0
 10
267.4603647085556
 20
19.04547934380915
 30
0.0
  0
VERTEX
  5
351
  8
0
  6
BYBLOCK
 62
     0
 10
267.451926023347
 20
19.04064369273456
 30
0.0
  0
VERTEX
  5
352
  8
0
  6
BYBLOCK
 62
     0
 10
267.3965056693647
 20
19.03343762446654
 30
0.0
  0
VERTEX
  5
353
  8
0
  6
BYBLOCK
 62
     0
 10
267.3844639500221
 20
19.05628844621117
 30
0.0
  0
VERTEX
  5
354
  8
0
  6
BYBLOCK
 62
     0
 10
267.3856491586188
 20
19.07558364216566
 30
0.0
  0
VERTEX
  5
355
  8
0
  6
BYBLOCK
 62
     0
 10
267.3929026352307
 20
19.09246101258285
 30
0.0
  0
VERTEX
  5
356
  8
0
  6
BYBLOCK
 62
     0
 10
267.4049443545732
 20
19.10810576605947
 30
0.0
  0
VERTEX
  5
357
  8
0
  6
BYBLOCK
 62
     0
 10
267.4194038994531
 20
19.12138010234265
 30
0.0
  0
VERTEX
  5
358
  8
0
  6
BYBLOCK
 62
     0
 10
267.4362338615265
 20
19.13342182168525
 30
0.0
  0
VERTEX
  5
359
  8
0
  6
BYBLOCK
 62
     0
 10
267.4555290574809
 20
19.14186050689385
 30
0.0
  0
VERTEX
  5
35A
  8
0
  6
BYBLOCK
 62
     0
 10
267.4724064278981
 20
19.14906657516187
 30
0.0
  0
VERTEX
  5
35B
  8
0
  6
BYBLOCK
 62
     0
 10
267.4892363899715
 20
19.15390222623646
 30
0.0
  0
VERTEX
  5
35C
  8
0
  6
BYBLOCK
 62
     0
 10
267.5410537098198
 20
19.14546354102786
 30
0.0
  0
VERTEX
  5
35D
  8
0
  6
BYBLOCK
 62
     0
 10
267.5639045315644
 20
19.14906657516187
 30
0.0
  0
VERTEX
  5
35E
  8
0
  6
BYBLOCK
 62
     0
 10
267.5879879702496
 20
19.14062788995327
 30
0.0
  0
VERTEX
  5
35F
  8
0
  6
BYBLOCK
 62
     0
 10
267.575946250907
 20
19.14062788995327
 30
0.0
  0
VERTEX
  5
360
  8
0
  6
BYBLOCK
 62
     0
 10
267.5964266554582
 20
19.12014748540207
 30
0.0
  0
VERTEX
  5
361
  8
0
  6
BYBLOCK
 62
     0
 10
267.6241131282774
 20
19.12014748540207
 30
0.0
  0
VERTEX
  5
362
  8
0
  6
BYBLOCK
 62
     0
 10
267.6445935328286
 20
19.12014748540207
 30
0.0
  0
VERTEX
  5
363
  8
0
  6
BYBLOCK
 62
     0
 10
267.6879721674683
 20
19.08520753597097
 30
0.0
  0
VERTEX
  5
364
  8
0
  6
BYBLOCK
 62
     0
 10
267.7000138868109
 20
19.04547934380915
 30
0.0
  0
VERTEX
  5
365
  8
0
  6
BYBLOCK
 62
     0
 10
267.6879721674683
 20
19.04547934380915
 30
0.0
  0
VERTEX
  5
366
  8
0
  6
BYBLOCK
 62
     0
 10
267.6964108526769
 20
19.02016328818336
 30
0.0
  0
VERTEX
  5
367
  8
0
  6
BYBLOCK
 62
     0
 10
267.7566194493899
 20
18.96474293420106
 30
0.0
  0
VERTEX
  5
368
  8
0
  6
BYBLOCK
 62
     0
 10
267.7445777300474
 20
18.95630424899246
 30
0.0
  0
SEQEND
  5
5BD
  8
0
  6
BYBLOCK
 62
     0
  0
POLYLINE
  5
4D
  8
0
  6
BYBLOCK
 62
     0
 66
     1
 10
0.0
 20
0.0
 30
0.0
  0
VERTEX
  5
369
  8
0
  6
BYBLOCK
 62
     0
 10
267.6277635707553
 20
18.94426252964986
 30
0.0
  0
VERTEX
  5
36A
  8
0
  6
BYBLOCK
 62
     0
 10
267.6241131282774
 20
18.94426252964986
 30
0.0
  0
VERTEX
  5
36B
  8
0
  6
BYBLOCK
 62
     0
 10
267.6313666048893
 20
18.98043509602154
 30
0.0
  0
VERTEX
  5
36C
  8
0
  6
BYBLOCK
 62
     0
 10
267.6710947970511
 20
18.95630424899246
 30
0.0
  0
VERTEX
  5
36D
  8
0
  6
BYBLOCK
 62
     0
 10
267.6795334822597
 20
18.94426252964986
 30
0.0
  0
VERTEX
  5
36E
  8
0
  6
BYBLOCK
 62
     0
 10
267.6277635707553
 20
18.94426252964986
 30
0.0
  0
SEQEND
  5
5BE
  8
0
  6
BYBLOCK
 62
     0
  0
POLYLINE
  5
55
  8
0
  6
BYBLOCK
 62
     0
 66
     1
 10
0.0
 20
0.0
 30
0.0
  0
VERTEX
  5
36F
  8
0
  6
BYBLOCK
 62
     0
 10
267.4916542155088
 20
18.92861777617324
 30
0.0
  0
VERTEX
  5
370
  8
0
  6
BYBLOCK
 62
     0
 10
267.4808451131067
 20
18.94791297212773
 30
0.0
  0
VERTEX
  5
371
  8
0
  6
BYBLOCK
 62
     0
 10
267.4362338615265
 20
18.96839337667893
 30
0.0
  0
VERTEX
  5
372
  8
0
  6
BYBLOCK
 62
     0
 10
267.451926023347
 20
18.99607984949815
 30
0.0
  0
VERTEX
  5
373
  8
0
  6
BYBLOCK
 62
     0
 10
267.4314456187957
 20
19.01295721991534
 30
0.0
  0
VERTEX
  5
374
  8
0
  6
BYBLOCK
 62
     0
 10
267.4121504228413
 20
19.01295721991534
 30
0.0
  0
VERTEX
  5
375
  8
0
  6
BYBLOCK
 62
     0
 10
267.4085473887072
 20
19.02860197339195
 30
0.0
  0
VERTEX
  5
376
  8
0
  6
BYBLOCK
 62
     0
 10
267.4446725467351
 20
19.02860197339195
 30
0.0
  0
VERTEX
  5
377
  8
0
  6
BYBLOCK
 62
     0
 10
267.4964898665834
 20
19.02499893925795
 30
0.0
  0
VERTEX
  5
378
  8
0
  6
BYBLOCK
 62
     0
 10
267.5290119904772
 20
19.00812156884075
 30
0.0
  0
VERTEX
  5
379
  8
0
  6
BYBLOCK
 62
     0
 10
267.5410537098198
 20
19.00812156884075
 30
0.0
  0
VERTEX
  5
37A
  8
0
  6
BYBLOCK
 62
     0
 10
267.5482597780878
 20
19.01656025404935
 30
0.0
  0
VERTEX
  5
37B
  8
0
  6
BYBLOCK
 62
     0
 10
267.579549285041
 20
19.01295721991534
 30
0.0
  0
VERTEX
  5
37C
  8
0
  6
BYBLOCK
 62
     0
 10
267.5711105998324
 20
18.99366202396086
 30
0.0
  0
VERTEX
  5
37D
  8
0
  6
BYBLOCK
 62
     0
 10
267.5506301952812
 20
18.99366202396086
 30
0.0
  0
VERTEX
  5
37E
  8
0
  6
BYBLOCK
 62
     0
 10
267.5374506756858
 20
18.96474293420106
 30
0.0
  0
VERTEX
  5
37F
  8
0
  6
BYBLOCK
 62
     0
 10
267.5085315859259
 20
18.92861777617324
 30
0.0
  0
VERTEX
  5
380
  8
0
  6
BYBLOCK
 62
     0
 10
267.4916542155088
 20
18.92861777617324
 30
0.0
  0
SEQEND
  5
5BF
  8
0
  6
BYBLOCK
 62
     0
  0
POLYLINE
  5
69
  8
0
  6
BYBLOCK
 62
     0
 66
     1
 10
0.0
 20
0.0
 30
0.0
  0
VERTEX
  5
381
  8
0
  6
BYBLOCK
 62
     0
 10
267.5506301952812
 20
18.88405393293684
 30
0.0
  0
VERTEX
  5
382
  8
0
  6
BYBLOCK
 62
     0
 10
267.5590688804898
 20
18.96474293420106
 30
0.0
  0
VERTEX
  5
383
  8
0
  6
BYBLOCK
 62
     0
 10
267.5675075656984
 20
18.95270121485845
 30
0.0
  0
VERTEX
  5
384
  8
0
  6
BYBLOCK
 62
     0
 10
267.5964266554582
 20
18.99366202396086
 30
0.0
  0
VERTEX
  5
385
  8
0
  6
BYBLOCK
 62
     0
 10
267.6241131282774
 20
18.98887378123013
 30
0.0
  0
VERTEX
  5
386
  8
0
  6
BYBLOCK
 62
     0
 10
267.6000296895922
 20
18.94426252964986
 30
0.0
  0
VERTEX
  5
387
  8
0
  6
BYBLOCK
 62
     0
 10
267.5964266554582
 20
18.91657605683064
 30
0.0
  0
VERTEX
  5
388
  8
0
  6
BYBLOCK
 62
     0
 10
267.579549285041
 20
18.89249261814543
 30
0.0
  0
VERTEX
  5
389
  8
0
  6
BYBLOCK
 62
     0
 10
267.5506301952812
 20
18.88405393293684
 30
0.0
  0
SEQEND
  5
5C0
  8
0
  6
BYBLOCK
 62
     0
  0
POLYLINE
  5
74
  8
0
  6
BYBLOCK
 62
     0
 66
     1
 10
0.0
 20
0.0
 30
0.0
  0
VERTEX
  5
38A
  8
0
  6
BYBLOCK
 62
     0
 10
267.5711105998324
 20
18.82744837035782
 30
0.0
  0
VERTEX
  5
38B
  8
0
  6
BYBLOCK
 62
     0
 10
267.5639045315644
 20
18.85153180904303
 30
0.0
  0
VERTEX
  5
38C
  8
0
  6
BYBLOCK
 62
     0
 10
267.5675075656984
 20
18.87319742219094
 30
0.0
  0
VERTEX
  5
38D
  8
0
  6
BYBLOCK
 62
     0
 10
267.6072831662041
 20
18.90813737162204
 30
0.0
  0
VERTEX
  5
38E
  8
0
  6
BYBLOCK
 62
     0
 10
267.6108862003381
 20
18.92017909096465
 30
0.0
  0
VERTEX
  5
38F
  8
0
  6
BYBLOCK
 62
     0
 10
267.6398052900979
 20
18.92501474203924
 30
0.0
  0
VERTEX
  5
390
  8
0
  6
BYBLOCK
 62
     0
 10
267.6241131282774
 20
18.85153180904303
 30
0.0
  0
VERTEX
  5
391
  8
0
  6
BYBLOCK
 62
     0
 10
267.5711105998324
 20
18.82744837035782
 30
0.0
  0
SEQEND
  5
5C1
  8
0
  6
BYBLOCK
 62
     0
  0
POLYLINE
  5
7E
  8
0
  6
BYBLOCK
 62
     0
 66
     1
 10
0.0
 20
0.0
 30
0.0
  0
VERTEX
  5
392
  8
0
  6
BYBLOCK
 62
     0
 10
267.5205733052686
 20
18.72381373066123
 30
0.0
  0
VERTEX
  5
393
  8
0
  6
BYBLOCK
 62
     0
 10
267.5085315859259
 20
18.75396543736161
 30
0.0
  0
VERTEX
  5
394
  8
0
  6
BYBLOCK
 62
     0
 10
267.5025107262547
 20
18.78406973571812
 30
0.0
  0
VERTEX
  5
395
  8
0
  6
BYBLOCK
 62
     0
 10
267.5000929007174
 20
18.81535924267135
 30
0.0
  0
VERTEX
  5
396
  8
0
  6
BYBLOCK
 62
     0
 10
267.5000929007174
 20
18.84792877490902
 30
0.0
  0
VERTEX
  5
397
  8
0
  6
BYBLOCK
 62
     0
 10
267.5169702711345
 20
18.83949008970043
 30
0.0
  0
VERTEX
  5
398
  8
0
  6
BYBLOCK
 62
     0
 10
267.5205733052686
 20
18.87319742219094
 30
0.0
  0
VERTEX
  5
399
  8
0
  6
BYBLOCK
 62
     0
 10
267.5254089563431
 20
18.91297302269663
 30
0.0
  0
VERTEX
  5
39A
  8
0
  6
BYBLOCK
 62
     0
 10
267.5458893608944
 20
18.84792877490902
 30
0.0
  0
VERTEX
  5
39B
  8
0
  6
BYBLOCK
 62
     0
 10
267.5590688804898
 20
18.81900968514923
 30
0.0
  0
VERTEX
  5
39C
  8
0
  6
BYBLOCK
 62
     0
 10
267.5554658463558
 20
18.75875368009233
 30
0.0
  0
VERTEX
  5
39D
  8
0
  6
BYBLOCK
 62
     0
 10
267.5410537098198
 20
18.72381373066123
 30
0.0
  0
VERTEX
  5
39E
  8
0
  6
BYBLOCK
 62
     0
 10
267.5205733052686
 20
18.72381373066123
 30
0.0
  0
SEQEND
  5
5C2
  8
0
  6
BYBLOCK
 62
     0
  0
POLYLINE
  5
8D
  8
0
  6
BYBLOCK
 62
     0
 66
     1
 10
0.0
 20
0.0
 30
0.0
  0
VERTEX
  5
39F
  8
0
  6
BYBLOCK
 62
     0
 10
267.8602540890865
 20
18.70698376858791
 30
0.0
  0
VERTEX
  5
3A0
  8
0
  6
BYBLOCK
 62
     0
 10
267.8120398033722
 20
18.77079539943494
 30
0.0
  0
VERTEX
  5
3A1
  8
0
  6
BYBLOCK
 62
     0
 10
267.7963950498956
 20
18.78767276985213
 30
0.0
  0
VERTEX
  5
3A2
  8
0
  6
BYBLOCK
 62
     0
 10
267.7855385391497
 20
18.84792877490902
 30
0.0
  0
VERTEX
  5
3A3
  8
0
  6
BYBLOCK
 62
     0
 10
267.8048337351042
 20
18.83707226416313
 30
0.0
  0
VERTEX
  5
3A4
  8
0
  6
BYBLOCK
 62
     0
 10
267.8228963141181
 20
18.82981878755125
 30
0.0
  0
VERTEX
  5
3A5
  8
0
  6
BYBLOCK
 62
     0
 10
267.8397736845353
 20
18.82503054482053
 30
0.0
  0
VERTEX
  5
3A6
  8
0
  6
BYBLOCK
 62
     0
 10
267.8566036466086
 20
18.82019489374594
 30
0.0
  0
VERTEX
  5
3A7
  8
0
  6
BYBLOCK
 62
     0
 10
267.8734810170258
 20
18.81659185961193
 30
0.0
  0
VERTEX
  5
3A8
  8
0
  6
BYBLOCK
 62
     0
 10
267.890358387443
 20
18.81298882547792
 30
0.0
  0
VERTEX
  5
3A9
  8
0
  6
BYBLOCK
 62
     0
 10
267.9072357578602
 20
18.80696796580662
 30
0.0
  0
VERTEX
  5
3AA
  8
0
  6
BYBLOCK
 62
     0
 10
267.9252983368741
 20
18.79971448919474
 30
0.0
  0
VERTEX
  5
3AB
  8
0
  6
BYBLOCK
 62
     0
 10
267.8602540890865
 20
18.70698376858791
 30
0.0
  0
SEQEND
  5
5C3
  8
0
  6
BYBLOCK
 62
     0
  0
POLYLINE
  5
9C
  8
0
  6
BYBLOCK
 62
     0
 66
     1
 10
0.0
 20
0.0
 30
0.0
  0
VERTEX
  5
3AC
  8
0
  6
BYBLOCK
 62
     0
 10
267.3109810170258
 20
18.61060260550321
 30
0.0
  0
VERTEX
  5
3AD
  8
0
  6
BYBLOCK
 62
     0
 10
267.3109810170258
 20
18.6274799759204
 30
0.0
  0
VERTEX
  5
3AE
  8
0
  6
BYBLOCK
 62
     0
 10
267.331461421577
 20
18.67564685329082
 30
0.0
  0
VERTEX
  5
3AF
  8
0
  6
BYBLOCK
 62
     0
 10
267.3446883495163
 20
18.64672776353102
 30
0.0
  0
VERTEX
  5
3B0
  8
0
  6
BYBLOCK
 62
     0
 10
267.3446883495163
 20
18.62985039311383
 30
0.0
  0
VERTEX
  5
3B1
  8
0
  6
BYBLOCK
 62
     0
 10
267.3242079449652
 20
18.6069995713692
 30
0.0
  0
VERTEX
  5
3B2
  8
0
  6
BYBLOCK
 62
     0
 10
267.3109810170258
 20
18.61060260550321
 30
0.0
  0
SEQEND
  5
5C4
  8
0
  6
BYBLOCK
 62
     0
  0
POLYLINE
  5
A5
  8
0
  6
BYBLOCK
 62
     0
 66
     1
 10
0.0
 20
0.0
 30
0.0
  0
VERTEX
  5
3B3
  8
0
  6
BYBLOCK
 62
     0
 10
267.5374506756858
 20
18.60334912889132
 30
0.0
  0
VERTEX
  5
3B4
  8
0
  6
BYBLOCK
 62
     0
 10
267.5181554797313
 20
18.60818477996591
 30
0.0
  0
VERTEX
  5
3B5
  8
0
  6
BYBLOCK
 62
     0
 10
267.4989076921207
 20
18.60936998856263
 30
0.0
  0
VERTEX
  5
3B6
  8
0
  6
BYBLOCK
 62
     0
 10
267.4796124961662
 20
18.61060260550321
 30
0.0
  0
VERTEX
  5
3B7
  8
0
  6
BYBLOCK
 62
     0
 10
267.4603647085556
 20
18.61060260550321
 30
0.0
  0
VERTEX
  5
3B8
  8
0
  6
BYBLOCK
 62
     0
 10
267.4410695126011
 20
18.6130204310405
 30
0.0
  0
VERTEX
  5
3B9
  8
0
  6
BYBLOCK
 62
     0
 10
267.4205891080499
 20
18.6190412907118
 30
0.0
  0
VERTEX
  5
3BA
  8
0
  6
BYBLOCK
 62
     0
 10
267.4001087034986
 20
18.62866518451711
 30
0.0
  0
VERTEX
  5
3BB
  8
0
  6
BYBLOCK
 62
     0
 10
267.3796282989475
 20
18.64312472939701
 30
0.0
  0
VERTEX
  5
3BC
  8
0
  6
BYBLOCK
 62
     0
 10
267.356730068859
 20
18.63828907832242
 30
0.0
  0
VERTEX
  5
3BD
  8
0
  6
BYBLOCK
 62
     0
 10
267.356730068859
 20
18.68408553849941
 30
0.0
  0
VERTEX
  5
3BE
  8
0
  6
BYBLOCK
 62
     0
 10
267.3651687540676
 20
18.67081120221623
 30
0.0
  0
VERTEX
  5
3BF
  8
0
  6
BYBLOCK
 62
     0
 10
267.3880669841561
 20
18.70333332611003
 30
0.0
  0
VERTEX
  5
3C0
  8
0
  6
BYBLOCK
 62
     0
 10
267.4049443545732
 20
18.70698376858791
 30
0.0
  0
VERTEX
  5
3C1
  8
0
  6
BYBLOCK
 62
     0
 10
267.4651529512863
 20
18.70333332611003
 30
0.0
  0
VERTEX
  5
3C2
  8
0
  6
BYBLOCK
 62
     0
 10
267.504928551792
 20
18.69854508337931
 30
0.0
  0
VERTEX
  5
3C3
  8
0
  6
BYBLOCK
 62
     0
 10
267.5000929007174
 20
18.67564685329082
 30
0.0
  0
VERTEX
  5
3C4
  8
0
  6
BYBLOCK
 62
     0
 10
267.5290119904772
 20
18.69854508337931
 30
0.0
  0
VERTEX
  5
3C5
  8
0
  6
BYBLOCK
 62
     0
 10
267.5290119904772
 20
18.68408553849941
 30
0.0
  0
VERTEX
  5
3C6
  8
0
  6
BYBLOCK
 62
     0
 10
267.5458893608944
 20
18.66720816808222
 30
0.0
  0
VERTEX
  5
3C7
  8
0
  6
BYBLOCK
 62
     0
 10
267.5458893608944
 20
18.68408553849941
 30
0.0
  0
VERTEX
  5
3C8
  8
0
  6
BYBLOCK
 62
     0
 10
267.5410537098198
 20
18.69854508337931
 30
0.0
  0
VERTEX
  5
3C9
  8
0
  6
BYBLOCK
 62
     0
 10
267.5711105998324
 20
18.75515064595833
 30
0.0
  0
VERTEX
  5
3CA
  8
0
  6
BYBLOCK
 62
     0
 10
267.5879879702496
 20
18.81057099994063
 30
0.0
  0
VERTEX
  5
3CB
  8
0
  6
BYBLOCK
 62
     0
 10
267.6072831662041
 20
18.83949008970043
 30
0.0
  0
VERTEX
  5
3CC
  8
0
  6
BYBLOCK
 62
     0
 10
267.6156744430688
 20
18.83949008970043
 30
0.0
  0
VERTEX
  5
3CD
  8
0
  6
BYBLOCK
 62
     0
 10
267.6602856946491
 20
18.83105140449183
 30
0.0
  0
VERTEX
  5
3CE
  8
0
  6
BYBLOCK
 62
     0
 10
267.6710947970511
 20
18.81900968514923
 30
0.0
  0
VERTEX
  5
3CF
  8
0
  6
BYBLOCK
 62
     0
 10
267.6843691333343
 20
18.79127580398614
 30
0.0
  0
VERTEX
  5
3D0
  8
0
  6
BYBLOCK
 62
     0
 10
267.6879721674683
 20
18.78406973571812
 30
0.0
  0
VERTEX
  5
3D1
  8
0
  6
BYBLOCK
 62
     0
 10
267.681951307797
 20
18.76235671422634
 30
0.0
  0
VERTEX
  5
3D2
  8
0
  6
BYBLOCK
 62
     0
 10
267.6759304481257
 20
18.73950589248172
 30
0.0
  0
VERTEX
  5
3D3
  8
0
  6
BYBLOCK
 62
     0
 10
267.6699095884544
 20
18.71902548793052
 30
0.0
  0
VERTEX
  5
3D4
  8
0
  6
BYBLOCK
 62
     0
 10
267.6626561118425
 20
18.69731246643873
 30
0.0
  0
VERTEX
  5
3D5
  8
0
  6
BYBLOCK
 62
     0
 10
267.6542648349778
 20
18.67564685329082
 30
0.0
  0
VERTEX
  5
3D6
  8
0
  6
BYBLOCK
 62
     0
 10
267.6421757072913
 20
18.65516644873962
 30
0.0
  0
VERTEX
  5
3D7
  8
0
  6
BYBLOCK
 62
     0
 10
267.6265309538147
 20
18.63226821865112
 30
0.0
  0
VERTEX
  5
3D8
  8
0
  6
BYBLOCK
 62
     0
 10
267.6072831662041
 20
18.61060260550321
 30
0.0
  0
VERTEX
  5
3D9
  8
0
  6
BYBLOCK
 62
     0
 10
267.5964266554582
 20
18.60334912889132
 30
0.0
  0
VERTEX
  5
3DA
  8
0
  6
BYBLOCK
 62
     0
 10
267.5374506756858
 20
18.60334912889132
 30
0.0
  0
SEQEND
  5
5C5
  8
0
  6
BYBLOCK
 62
     0
  0
POLYLINE
  5
CF
  8
0
  6
BYBLOCK
 62
     0
 66
     1
 10
0.0
 20
0.0
 30
0.0
  0
VERTEX
  5
3DB
  8
0
  6
BYBLOCK
 62
     0
 10
267.7397894873166
 20
18.56722397086351
 30
0.0
  0
VERTEX
  5
3DC
  8
0
  6
BYBLOCK
 62
     0
 10
267.7168912572281
 20
18.5780804816094
 30
0.0
  0
VERTEX
  5
3DD
  8
0
  6
BYBLOCK
 62
     0
 10
267.7072673634228
 20
18.586519166818
 30
0.0
  0
VERTEX
  5
3DE
  8
0
  6
BYBLOCK
 62
     0
 10
267.7000138868109
 20
18.59491044368273
 30
0.0
  0
VERTEX
  5
3DF
  8
0
  6
BYBLOCK
 62
     0
 10
267.6939930271396
 20
18.6045817458319
 30
0.0
  0
VERTEX
  5
3E0
  8
0
  6
BYBLOCK
 62
     0
 10
267.6891573760651
 20
18.61539084823393
 30
0.0
  0
VERTEX
  5
3E1
  8
0
  6
BYBLOCK
 62
     0
 10
267.6843691333343
 20
18.6250621503831
 30
0.0
  0
VERTEX
  5
3E2
  8
0
  6
BYBLOCK
 62
     0
 10
267.678348273663
 20
18.63587125278513
 30
0.0
  0
VERTEX
  5
3E3
  8
0
  6
BYBLOCK
 62
     0
 10
267.6723274139917
 20
18.64554255493431
 30
0.0
  0
VERTEX
  5
3E4
  8
0
  6
BYBLOCK
 62
     0
 10
267.6650739373798
 20
18.65516644873962
 30
0.0
  0
VERTEX
  5
3E5
  8
0
  6
BYBLOCK
 62
     0
 10
267.7168912572281
 20
18.78406973571812
 30
0.0
  0
VERTEX
  5
3E6
  8
0
  6
BYBLOCK
 62
     0
 10
267.7000138868109
 20
18.78406973571812
 30
0.0
  0
VERTEX
  5
3E7
  8
0
  6
BYBLOCK
 62
     0
 10
267.6518470094405
 20
18.84792877490902
 30
0.0
  0
VERTEX
  5
3E8
  8
0
  6
BYBLOCK
 62
     0
 10
267.63615484762
 20
18.85632005177375
 30
0.0
  0
VERTEX
  5
3E9
  8
0
  6
BYBLOCK
 62
     0
 10
267.6518470094405
 20
18.92501474203924
 30
0.0
  0
VERTEX
  5
3EA
  8
0
  6
BYBLOCK
 62
     0
 10
267.7000138868109
 20
18.94791297212773
 30
0.0
  0
VERTEX
  5
3EB
  8
0
  6
BYBLOCK
 62
     0
 10
267.7253299424367
 20
18.94426252964986
 30
0.0
  0
VERTEX
  5
3EC
  8
0
  6
BYBLOCK
 62
     0
 10
267.7445777300474
 20
18.92861777617324
 30
0.0
  0
VERTEX
  5
3ED
  8
0
  6
BYBLOCK
 62
     0
 10
267.7650581345985
 20
18.87921828186225
 30
0.0
  0
VERTEX
  5
3EE
  8
0
  6
BYBLOCK
 62
     0
 10
267.8120398033722
 20
18.65516644873962
 30
0.0
  0
VERTEX
  5
3EF
  8
0
  6
BYBLOCK
 62
     0
 10
267.8168754544468
 20
18.64672776353102
 30
0.0
  0
VERTEX
  5
3F0
  8
0
  6
BYBLOCK
 62
     0
 10
267.8048337351042
 20
18.62382953344252
 30
0.0
  0
VERTEX
  5
3F1
  8
0
  6
BYBLOCK
 62
     0
 10
267.7770998539411
 20
18.61060260550321
 30
0.0
  0
VERTEX
  5
3F2
  8
0
  6
BYBLOCK
 62
     0
 10
267.7999980840297
 20
18.60334912889132
 30
0.0
  0
VERTEX
  5
3F3
  8
0
  6
BYBLOCK
 62
     0
 10
267.8048337351042
 20
18.58286872434012
 30
0.0
  0
VERTEX
  5
3F4
  8
0
  6
BYBLOCK
 62
     0
 10
267.7397894873166
 20
18.56722397086351
 30
0.0
  0
SEQEND
  5
5C6
  8
0
  6
BYBLOCK
 62
     0
  0
POLYLINE
  5
EB
  8
0
  6
BYBLOCK
 62
     0
 66
     1
 10
0.0
 20
0.0
 30
0.0
  0
VERTEX
  5
3F5
  8
0
  6
BYBLOCK
 62
     0
 10
267.1905164152559
 20
18.55034660044632
 30
0.0
  0
VERTEX
  5
3F6
  8
0
  6
BYBLOCK
 62
     0
 10
267.1507408147502
 20
18.56964179640081
 30
0.0
  0
VERTEX
  5
3F7
  8
0
  6
BYBLOCK
 62
     0
 10
267.119451307797
 20
18.63468604418842
 30
0.0
  0
VERTEX
  5
3F8
  8
0
  6
BYBLOCK
 62
     0
 10
267.119451307797
 20
18.61060260550321
 30
0.0
  0
VERTEX
  5
3F9
  8
0
  6
BYBLOCK
 62
     0
 10
267.0748400562167
 20
18.64312472939701
 30
0.0
  0
VERTEX
  5
3FA
  8
0
  6
BYBLOCK
 62
     0
 10
267.0784904986946
 20
18.67081120221623
 30
0.0
  0
VERTEX
  5
3FB
  8
0
  6
BYBLOCK
 62
     0
 10
267.0989709032458
 20
18.69854508337931
 30
0.0
  0
VERTEX
  5
3FC
  8
0
  6
BYBLOCK
 62
     0
 10
267.1242395505278
 20
18.70333332611003
 30
0.0
  0
VERTEX
  5
3FD
  8
0
  6
BYBLOCK
 62
     0
 10
267.1435347464822
 20
18.71537504545264
 30
0.0
  0
VERTEX
  5
3FE
  8
0
  6
BYBLOCK
 62
     0
 10
267.1507408147502
 20
18.71902548793052
 30
0.0
  0
VERTEX
  5
3FF
  8
0
  6
BYBLOCK
 62
     0
 10
267.1989551004645
 20
18.71902548793052
 30
0.0
  0
VERTEX
  5
400
  8
0
  6
BYBLOCK
 62
     0
 10
267.2507250119689
 20
18.67081120221623
 30
0.0
  0
VERTEX
  5
401
  8
0
  6
BYBLOCK
 62
     0
 10
267.2555606630435
 20
18.59491044368273
 30
0.0
  0
VERTEX
  5
402
  8
0
  6
BYBLOCK
 62
     0
 10
267.2447041522976
 20
18.61060260550321
 30
0.0
  0
VERTEX
  5
403
  8
0
  6
BYBLOCK
 62
     0
 10
267.2399159095669
 20
18.586519166818
 30
0.0
  0
VERTEX
  5
404
  8
0
  6
BYBLOCK
 62
     0
 10
267.2555606630435
 20
18.56722397086351
 30
0.0
  0
VERTEX
  5
405
  8
0
  6
BYBLOCK
 62
     0
 10
267.2591636971775
 20
18.55034660044632
 30
0.0
  0
VERTEX
  5
406
  8
0
  6
BYBLOCK
 62
     0
 10
267.2399159095669
 20
18.55034660044632
 30
0.0
  0
VERTEX
  5
407
  8
0
  6
BYBLOCK
 62
     0
 10
267.2037433431952
 20
18.56964179640081
 30
0.0
  0
VERTEX
  5
408
  8
0
  6
BYBLOCK
 62
     0
 10
267.2073463773293
 20
18.54674356631231
 30
0.0
  0
VERTEX
  5
409
  8
0
  6
BYBLOCK
 62
     0
 10
267.1905164152559
 20
18.55034660044632
 30
0.0
  0
SEQEND
  5
5C7
  8
0
  6
BYBLOCK
 62
     0
  0
POLYLINE
  5
102
  8
0
  6
BYBLOCK
 62
     0
 66
     1
 10
0.0
 20
0.0
 30
0.0
  0
VERTEX
  5
40A
  8
0
  6
BYBLOCK
 62
     0
 10
267.1110126225884
 20
18.5347018469697
 30
0.0
  0
VERTEX
  5
40B
  8
0
  6
BYBLOCK
 62
     0
 10
267.0953204607679
 20
18.54674356631231
 30
0.0
  0
VERTEX
  5
40C
  8
0
  6
BYBLOCK
 62
     0
 10
267.0905322180372
 20
18.5985608861606
 30
0.0
  0
VERTEX
  5
40D
  8
0
  6
BYBLOCK
 62
     0
 10
267.1435347464822
 20
18.56964179640081
 30
0.0
  0
VERTEX
  5
40E
  8
0
  6
BYBLOCK
 62
     0
 10
267.1507408147502
 20
18.55518225152091
 30
0.0
  0
VERTEX
  5
40F
  8
0
  6
BYBLOCK
 62
     0
 10
267.1350960612736
 20
18.53830488110371
 30
0.0
  0
VERTEX
  5
410
  8
0
  6
BYBLOCK
 62
     0
 10
267.1110126225884
 20
18.5347018469697
 30
0.0
  0
SEQEND
  5
5C8
  8
0
  6
BYBLOCK
 62
     0
  0
POLYLINE
  5
10B
  8
0
  6
BYBLOCK
 62
     0
 66
     1
 10
0.0
 20
0.0
 30
0.0
  0
VERTEX
  5
411
  8
0
  6
BYBLOCK
 62
     0
 10
267.5964266554582
 20
18.52626316176111
 30
0.0
  0
VERTEX
  5
412
  8
0
  6
BYBLOCK
 62
     0
 10
267.5506301952812
 20
18.55034660044632
 30
0.0
  0
VERTEX
  5
413
  8
0
  6
BYBLOCK
 62
     0
 10
267.5506301952812
 20
18.56964179640081
 30
0.0
  0
VERTEX
  5
414
  8
0
  6
BYBLOCK
 62
     0
 10
267.579549285041
 20
18.586519166818
 30
0.0
  0
VERTEX
  5
415
  8
0
  6
BYBLOCK
 62
     0
 10
267.6108862003381
 20
18.5226601276271
 30
0.0
  0
VERTEX
  5
416
  8
0
  6
BYBLOCK
 62
     0
 10
267.5964266554582
 20
18.52626316176111
 30
0.0
  0
SEQEND
  5
5C9
  8
0
  6
BYBLOCK
 62
     0
  0
POLYLINE
  5
113
  8
0
  6
BYBLOCK
 62
     0
 66
     1
 10
0.0
 20
0.0
 30
0.0
  0
VERTEX
  5
417
  8
0
  6
BYBLOCK
 62
     0
 10
267.7602698918678
 20
18.48288452712141
 30
0.0
  0
VERTEX
  5
418
  8
0
  6
BYBLOCK
 62
     0
 10
267.7687085770764
 20
18.50578275720991
 30
0.0
  0
VERTEX
  5
419
  8
0
  6
BYBLOCK
 62
     0
 10
267.7482281725252
 20
18.5347018469697
 30
0.0
  0
VERTEX
  5
41A
  8
0
  6
BYBLOCK
 62
     0
 10
267.8048337351042
 20
18.50938579134392
 30
0.0
  0
VERTEX
  5
41B
  8
0
  6
BYBLOCK
 62
     0
 10
267.7602698918678
 20
18.48288452712141
 30
0.0
  0
SEQEND
  5
5CA
  8
0
  6
BYBLOCK
 62
     0
  0
POLYLINE
  5
11A
  8
0
  6
BYBLOCK
 62
     0
 66
     1
 10
0.0
 20
0.0
 30
0.0
  0
VERTEX
  5
41C
  8
0
  6
BYBLOCK
 62
     0
 10
267.6759304481257
 20
18.45761587983949
 30
0.0
  0
VERTEX
  5
41D
  8
0
  6
BYBLOCK
 62
     0
 10
267.6687243798577
 20
18.4696575991821
 30
0.0
  0
VERTEX
  5
41E
  8
0
  6
BYBLOCK
 62
     0
 10
267.6482439753065
 20
18.4901380037333
 30
0.0
  0
VERTEX
  5
41F
  8
0
  6
BYBLOCK
 62
     0
 10
267.6445935328286
 20
18.50336493167261
 30
0.0
  0
VERTEX
  5
420
  8
0
  6
BYBLOCK
 62
     0
 10
267.6108862003381
 20
18.55034660044632
 30
0.0
  0
VERTEX
  5
421
  8
0
  6
BYBLOCK
 62
     0
 10
267.5964266554582
 20
18.56964179640081
 30
0.0
  0
VERTEX
  5
422
  8
0
  6
BYBLOCK
 62
     0
 10
267.5915910043836
 20
18.5780804816094
 30
0.0
  0
VERTEX
  5
423
  8
0
  6
BYBLOCK
 62
     0
 10
267.6602856946491
 20
18.64672776353102
 30
0.0
  0
VERTEX
  5
424
  8
0
  6
BYBLOCK
 62
     0
 10
267.7445777300474
 20
18.5226601276271
 30
0.0
  0
VERTEX
  5
425
  8
0
  6
BYBLOCK
 62
     0
 10
267.7518312066592
 20
18.50938579134392
 30
0.0
  0
VERTEX
  5
426
  8
0
  6
BYBLOCK
 62
     0
 10
267.6759304481257
 20
18.45761587983949
 30
0.0
  0
SEQEND
  5
5CB
  8
0
  6
BYBLOCK
 62
     0
  0
POLYLINE
  5
127
  8
0
  6
BYBLOCK
 62
     0
 66
     1
 10
0.0
 20
0.0
 30
0.0
  0
VERTEX
  5
427
  8
0
  6
BYBLOCK
 62
     0
 10
267.6518470094405
 20
18.38655077238058
 30
0.0
  0
VERTEX
  5
428
  8
0
  6
BYBLOCK
 62
     0
 10
267.6313666048893
 20
18.3973598747826
 30
0.0
  0
VERTEX
  5
429
  8
0
  6
BYBLOCK
 62
     0
 10
267.6241131282774
 20
18.42267593040839
 30
0.0
  0
VERTEX
  5
42A
  8
0
  6
BYBLOCK
 62
     0
 10
267.6048653406668
 20
18.43471764975099
 30
0.0
  0
VERTEX
  5
42B
  8
0
  6
BYBLOCK
 62
     0
 10
267.5410537098198
 20
18.47444584191281
 30
0.0
  0
VERTEX
  5
42C
  8
0
  6
BYBLOCK
 62
     0
 10
267.5169702711345
 20
18.48288452712141
 30
0.0
  0
VERTEX
  5
42D
  8
0
  6
BYBLOCK
 62
     0
 10
267.5458893608944
 20
18.5226601276271
 30
0.0
  0
VERTEX
  5
42E
  8
0
  6
BYBLOCK
 62
     0
 10
267.6048653406668
 20
18.49857668894189
 30
0.0
  0
VERTEX
  5
42F
  8
0
  6
BYBLOCK
 62
     0
 10
267.6398052900979
 20
18.48653496959929
 30
0.0
  0
VERTEX
  5
430
  8
0
  6
BYBLOCK
 62
     0
 10
267.6687243798577
 20
18.4467593690936
 30
0.0
  0
VERTEX
  5
431
  8
0
  6
BYBLOCK
 62
     0
 10
267.6710947970511
 20
18.4262789645424
 30
0.0
  0
VERTEX
  5
432
  8
0
  6
BYBLOCK
 62
     0
 10
267.6964108526769
 20
18.39375684064859
 30
0.0
  0
VERTEX
  5
433
  8
0
  6
BYBLOCK
 62
     0
 10
267.7000138868109
 20
18.41423724519979
 30
0.0
  0
VERTEX
  5
434
  8
0
  6
BYBLOCK
 62
     0
 10
267.7120556061535
 20
18.39375684064859
 30
0.0
  0
VERTEX
  5
435
  8
0
  6
BYBLOCK
 62
     0
 10
267.7204942913621
 20
18.39375684064859
 30
0.0
  0
VERTEX
  5
436
  8
0
  6
BYBLOCK
 62
     0
 10
267.7168912572281
 20
18.4262789645424
 30
0.0
  0
VERTEX
  5
437
  8
0
  6
BYBLOCK
 62
     0
 10
267.7445777300474
 20
18.39375684064859
 30
0.0
  0
VERTEX
  5
438
  8
0
  6
BYBLOCK
 62
     0
 10
267.7602698918678
 20
18.3973598747826
 30
0.0
  0
VERTEX
  5
439
  8
0
  6
BYBLOCK
 62
     0
 10
267.7518312066592
 20
18.4262789645424
 30
0.0
  0
VERTEX
  5
43A
  8
0
  6
BYBLOCK
 62
     0
 10
267.780750296419
 20
18.40219552585719
 30
0.0
  0
VERTEX
  5
43B
  8
0
  6
BYBLOCK
 62
     0
 10
267.7770998539411
 20
18.42267593040839
 30
0.0
  0
VERTEX
  5
43C
  8
0
  6
BYBLOCK
 62
     0
 10
267.8048337351042
 20
18.41423724519979
 30
0.0
  0
VERTEX
  5
43D
  8
0
  6
BYBLOCK
 62
     0
 10
267.7855385391497
 20
18.45396543736161
 30
0.0
  0
VERTEX
  5
43E
  8
0
  6
BYBLOCK
 62
     0
 10
267.8325202079234
 20
18.42267593040839
 30
0.0
  0
VERTEX
  5
43F
  8
0
  6
BYBLOCK
 62
     0
 10
267.8253141396554
 20
18.4467593690936
 30
0.0
  0
VERTEX
  5
440
  8
0
  6
BYBLOCK
 62
     0
 10
267.8457945442066
 20
18.43471764975099
 30
0.0
  0
VERTEX
  5
441
  8
0
  6
BYBLOCK
 62
     0
 10
267.8289171737894
 20
18.46240412257021
 30
0.0
  0
VERTEX
  5
442
  8
0
  6
BYBLOCK
 62
     0
 10
267.8566036466086
 20
18.4467593690936
 30
0.0
  0
VERTEX
  5
443
  8
0
  6
BYBLOCK
 62
     0
 10
267.8518154038779
 20
18.46240412257021
 30
0.0
  0
VERTEX
  5
444
  8
0
  6
BYBLOCK
 62
     0
 10
267.780750296419
 20
18.54674356631231
 30
0.0
  0
VERTEX
  5
445
  8
0
  6
BYBLOCK
 62
     0
 10
267.7963950498956
 20
18.54674356631231
 30
0.0
  0
VERTEX
  5
446
  8
0
  6
BYBLOCK
 62
     0
 10
267.8108545947755
 20
18.537119672507
 30
0.0
  0
VERTEX
  5
447
  8
0
  6
BYBLOCK
 62
     0
 10
267.8228963141181
 20
18.52626316176111
 30
0.0
  0
VERTEX
  5
448
  8
0
  6
BYBLOCK
 62
     0
 10
267.8325202079234
 20
18.51540665101522
 30
0.0
  0
VERTEX
  5
449
  8
0
  6
BYBLOCK
 62
     0
 10
267.8421915100726
 20
18.50459754861319
 30
0.0
  0
VERTEX
  5
44A
  8
0
  6
BYBLOCK
 62
     0
 10
267.8493975783406
 20
18.49255582927059
 30
0.0
  0
VERTEX
  5
44B
  8
0
  6
BYBLOCK
 62
     0
 10
267.8566036466086
 20
18.48046670158412
 30
0.0
  0
VERTEX
  5
44C
  8
0
  6
BYBLOCK
 62
     0
 10
267.8626719146238
 20
18.46842498224151
 30
0.0
  0
VERTEX
  5
44D
  8
0
  6
BYBLOCK
 62
     0
 10
267.8686927742951
 20
18.45761587983949
 30
0.0
  0
VERTEX
  5
44E
  8
0
  6
BYBLOCK
 62
     0
 10
267.8686927742951
 20
18.44315633495959
 30
0.0
  0
VERTEX
  5
44F
  8
0
  6
BYBLOCK
 62
     0
 10
267.837355858998
 20
18.40219552585719
 30
0.0
  0
VERTEX
  5
450
  8
0
  6
BYBLOCK
 62
     0
 10
267.8144576289095
 20
18.39494204924531
 30
0.0
  0
VERTEX
  5
451
  8
0
  6
BYBLOCK
 62
     0
 10
267.7927920157616
 20
18.39015380651459
 30
0.0
  0
VERTEX
  5
452
  8
0
  6
BYBLOCK
 62
     0
 10
267.7710789942698
 20
18.38655077238058
 30
0.0
  0
VERTEX
  5
453
  8
0
  6
BYBLOCK
 62
     0
 10
267.7494133811219
 20
18.38536556378386
 30
0.0
  0
VERTEX
  5
454
  8
0
  6
BYBLOCK
 62
     0
 10
267.7265151510334
 20
18.38536556378386
 30
0.0
  0
VERTEX
  5
455
  8
0
  6
BYBLOCK
 62
     0
 10
267.7048495378855
 20
18.38536556378386
 30
0.0
  0
VERTEX
  5
456
  8
0
  6
BYBLOCK
 62
     0
 10
267.6831365163937
 20
18.38418035518715
 30
0.0
  0
VERTEX
  5
457
  8
0
  6
BYBLOCK
 62
     0
 10
267.6602856946491
 20
18.38418035518715
 30
0.0
  0
VERTEX
  5
458
  8
0
  6
BYBLOCK
 62
     0
 10
267.6518470094405
 20
18.38655077238058
 30
0.0
  0
SEQEND
  5
5CC
  8
0
  6
BYBLOCK
 62
     0
  0
POLYLINE
  5
15B
  8
0
  6
BYBLOCK
 62
     0
 66
     1
 10
0.0
 20
0.0
 30
0.0
  0
VERTEX
  5
459
  8
0
  6
BYBLOCK
 62
     0
 10
267.1712212193015
 20
18.28656657516187
 30
0.0
  0
VERTEX
  5
45A
  8
0
  6
BYBLOCK
 62
     0
 10
267.2278267818804
 20
18.35886429956136
 30
0.0
  0
VERTEX
  5
45B
  8
0
  6
BYBLOCK
 62
     0
 10
267.2278267818804
 20
18.37934470411256
 30
0.0
  0
VERTEX
  5
45C
  8
0
  6
BYBLOCK
 62
     0
 10
267.2314772243583
 20
18.33478086087615
 30
0.0
  0
VERTEX
  5
45D
  8
0
  6
BYBLOCK
 62
     0
 10
267.1989551004645
 20
18.29021701763974
 30
0.0
  0
VERTEX
  5
45E
  8
0
  6
BYBLOCK
 62
     0
 10
267.1712212193015
 20
18.28656657516187
 30
0.0
  0
SEQEND
  5
5CD
  8
0
  6
BYBLOCK
 62
     0
  0
POLYLINE
  5
163
  8
0
  6
BYBLOCK
 62
     0
 66
     1
 10
0.0
 20
0.0
 30
0.0
  0
VERTEX
  5
45F
  8
0
  6
BYBLOCK
 62
     0
 10
267.1989551004645
 20
18.27817529829714
 30
0.0
  0
VERTEX
  5
460
  8
0
  6
BYBLOCK
 62
     0
 10
267.236265467089
 20
18.31548566492166
 30
0.0
  0
VERTEX
  5
461
  8
0
  6
BYBLOCK
 62
     0
 10
267.2109968198071
 20
18.27452485581926
 30
0.0
  0
VERTEX
  5
462
  8
0
  6
BYBLOCK
 62
     0
 10
267.1989551004645
 20
18.27817529829714
 30
0.0
  0
SEQEND
  5
5CE
  8
0
  6
BYBLOCK
 62
     0
  0
POLYLINE
  5
169
  8
0
  6
BYBLOCK
 62
     0
 66
     1
 10
0.0
 20
0.0
 30
0.0
  0
VERTEX
  5
463
  8
0
  6
BYBLOCK
 62
     0
 10
267.1350960612736
 20
18.20345974836035
 30
0.0
  0
VERTEX
  5
464
  8
0
  6
BYBLOCK
 62
     0
 10
267.1555764658248
 20
18.20587757389765
 30
0.0
  0
VERTEX
  5
465
  8
0
  6
BYBLOCK
 62
     0
 10
267.1386990954076
 20
18.22996101258285
 30
0.0
  0
VERTEX
  5
466
  8
0
  6
BYBLOCK
 62
     0
 10
267.1386990954076
 20
18.27817529829714
 30
0.0
  0
VERTEX
  5
467
  8
0
  6
BYBLOCK
 62
     0
 10
267.1266573760651
 20
18.32994520980156
 30
0.0
  0
VERTEX
  5
468
  8
0
  6
BYBLOCK
 62
     0
 10
267.1555764658248
 20
18.37574166997856
 30
0.0
  0
VERTEX
  5
469
  8
0
  6
BYBLOCK
 62
     0
 10
267.2109968198071
 20
18.4467593690936
 30
0.0
  0
VERTEX
  5
46A
  8
0
  6
BYBLOCK
 62
     0
 10
267.2109968198071
 20
18.48653496959929
 30
0.0
  0
VERTEX
  5
46B
  8
0
  6
BYBLOCK
 62
     0
 10
267.2037433431952
 20
18.44917719463089
 30
0.0
  0
VERTEX
  5
46C
  8
0
  6
BYBLOCK
 62
     0
 10
267.1869133811219
 20
18.42746417313911
 30
0.0
  0
VERTEX
  5
46D
  8
0
  6
BYBLOCK
 62
     0
 10
267.1688033937642
 20
18.40698376858791
 30
0.0
  0
VERTEX
  5
46E
  8
0
  6
BYBLOCK
 62
     0
 10
267.1471377806162
 20
18.38655077238058
 30
0.0
  0
VERTEX
  5
46F
  8
0
  6
BYBLOCK
 62
     0
 10
267.1254721674683
 20
18.36730298476996
 30
0.0
  0
VERTEX
  5
470
  8
0
  6
BYBLOCK
 62
     0
 10
267.1025739373798
 20
18.35165823129335
 30
0.0
  0
VERTEX
  5
471
  8
0
  6
BYBLOCK
 62
     0
 10
267.0796757072913
 20
18.33961651195074
 30
0.0
  0
VERTEX
  5
472
  8
0
  6
BYBLOCK
 62
     0
 10
267.0567774772028
 20
18.33236303533886
 30
0.0
  0
VERTEX
  5
473
  8
0
  6
BYBLOCK
 62
     0
 10
267.0351118640549
 20
18.32994520980156
 30
0.0
  0
VERTEX
  5
474
  8
0
  6
BYBLOCK
 62
     0
 10
266.9785063014759
 20
18.35526126542735
 30
0.0
  0
VERTEX
  5
475
  8
0
  6
BYBLOCK
 62
     0
 10
266.974855858998
 20
18.36369995063595
 30
0.0
  0
VERTEX
  5
476
  8
0
  6
BYBLOCK
 62
     0
 10
266.974855858998
 20
18.37574166997856
 30
0.0
  0
VERTEX
  5
477
  8
0
  6
BYBLOCK
 62
     0
 10
266.9989867060271
 20
18.4057985599912
 30
0.0
  0
VERTEX
  5
478
  8
0
  6
BYBLOCK
 62
     0
 10
267.0073779828919
 20
18.4094015941252
 30
0.0
  0
VERTEX
  5
479
  8
0
  6
BYBLOCK
 62
     0
 10
267.0953204607679
 20
18.4178402793338
 30
0.0
  0
VERTEX
  5
47A
  8
0
  6
BYBLOCK
 62
     0
 10
267.1037591459765
 20
18.42267593040839
 30
0.0
  0
VERTEX
  5
47B
  8
0
  6
BYBLOCK
 62
     0
 10
267.130260410199
 20
18.4467593690936
 30
0.0
  0
VERTEX
  5
47C
  8
0
  6
BYBLOCK
 62
     0
 10
267.0832787414253
 20
18.42988199867641
 30
0.0
  0
VERTEX
  5
47D
  8
0
  6
BYBLOCK
 62
     0
 10
267.1037591459765
 20
18.4467593690936
 30
0.0
  0
VERTEX
  5
47E
  8
0
  6
BYBLOCK
 62
     0
 10
267.0784904986946
 20
18.4467593690936
 30
0.0
  0
VERTEX
  5
47F
  8
0
  6
BYBLOCK
 62
     0
 10
267.1435347464822
 20
18.51782447655251
 30
0.0
  0
VERTEX
  5
480
  8
0
  6
BYBLOCK
 62
     0
 10
267.1676181851674
 20
18.5226601276271
 30
0.0
  0
VERTEX
  5
481
  8
0
  6
BYBLOCK
 62
     0
 10
267.1676181851674
 20
18.5347018469697
 30
0.0
  0
VERTEX
  5
482
  8
0
  6
BYBLOCK
 62
     0
 10
267.2109968198071
 20
18.5347018469697
 30
0.0
  0
VERTEX
  5
483
  8
0
  6
BYBLOCK
 62
     0
 10
267.2242237477465
 20
18.5431405321783
 30
0.0
  0
VERTEX
  5
484
  8
0
  6
BYBLOCK
 62
     0
 10
267.2399159095669
 20
18.537119672507
 30
0.0
  0
VERTEX
  5
485
  8
0
  6
BYBLOCK
 62
     0
 10
267.2519576289095
 20
18.5286809872984
 30
0.0
  0
VERTEX
  5
486
  8
0
  6
BYBLOCK
 62
     0
 10
267.2639993482521
 20
18.51782447655251
 30
0.0
  0
VERTEX
  5
487
  8
0
  6
BYBLOCK
 62
     0
 10
267.2736232420575
 20
18.50578275720991
 30
0.0
  0
VERTEX
  5
488
  8
0
  6
BYBLOCK
 62
     0
 10
267.2820619272661
 20
18.4937410378673
 30
0.0
  0
VERTEX
  5
489
  8
0
  6
BYBLOCK
 62
     0
 10
267.289267995534
 20
18.4816993185247
 30
0.0
  0
VERTEX
  5
48A
  8
0
  6
BYBLOCK
 62
     0
 10
267.2977066807426
 20
18.46842498224151
 30
0.0
  0
VERTEX
  5
48B
  8
0
  6
BYBLOCK
 62
     0
 10
267.3049601573545
 20
18.45761587983949
 30
0.0
  0
VERTEX
  5
48C
  8
0
  6
BYBLOCK
 62
     0
 10
267.3711896137389
 20
18.38655077238058
 30
0.0
  0
VERTEX
  5
48D
  8
0
  6
BYBLOCK
 62
     0
 10
267.3687717882016
 20
18.32994520980156
 30
0.0
  0
VERTEX
  5
48E
  8
0
  6
BYBLOCK
 62
     0
 10
267.3687717882016
 20
18.29021701763974
 30
0.0
  0
VERTEX
  5
48F
  8
0
  6
BYBLOCK
 62
     0
 10
267.3519418261282
 20
18.26973661308854
 30
0.0
  0
VERTEX
  5
490
  8
0
  6
BYBLOCK
 62
     0
 10
267.3399001067856
 20
18.26371575341724
 30
0.0
  0
VERTEX
  5
491
  8
0
  6
BYBLOCK
 62
     0
 10
267.3399001067856
 20
18.24323534886604
 30
0.0
  0
VERTEX
  5
492
  8
0
  6
BYBLOCK
 62
     0
 10
267.3157692597566
 20
18.24323534886604
 30
0.0
  0
VERTEX
  5
493
  8
0
  6
BYBLOCK
 62
     0
 10
267.3194197022344
 20
18.27817529829714
 30
0.0
  0
VERTEX
  5
494
  8
0
  6
BYBLOCK
 62
     0
 10
267.3109810170258
 20
18.29021701763974
 30
0.0
  0
VERTEX
  5
495
  8
0
  6
BYBLOCK
 62
     0
 10
267.3073779828918
 20
18.33478086087615
 30
0.0
  0
VERTEX
  5
496
  8
0
  6
BYBLOCK
 62
     0
 10
267.3242079449652
 20
18.32994520980156
 30
0.0
  0
VERTEX
  5
497
  8
0
  6
BYBLOCK
 62
     0
 10
267.3157692597566
 20
18.35042561435277
 30
0.0
  0
VERTEX
  5
498
  8
0
  6
BYBLOCK
 62
     0
 10
267.3399001067856
 20
18.35042561435277
 30
0.0
  0
VERTEX
  5
499
  8
0
  6
BYBLOCK
 62
     0
 10
267.331461421577
 20
18.35886429956136
 30
0.0
  0
VERTEX
  5
49A
  8
0
  6
BYBLOCK
 62
     0
 10
267.2965214721459
 20
18.38418035518715
 30
0.0
  0
VERTEX
  5
49B
  8
0
  6
BYBLOCK
 62
     0
 10
267.2844797528033
 20
18.438320683885
 30
0.0
  0
VERTEX
  5
49C
  8
0
  6
BYBLOCK
 62
     0
 10
267.2447041522976
 20
18.5142214424185
 30
0.0
  0
VERTEX
  5
49D
  8
0
  6
BYBLOCK
 62
     0
 10
267.2531428375062
 20
18.4961588634046
 30
0.0
  0
VERTEX
  5
49E
  8
0
  6
BYBLOCK
 62
     0
 10
267.2603963141181
 20
18.47809628439069
 30
0.0
  0
VERTEX
  5
49F
  8
0
  6
BYBLOCK
 62
     0
 10
267.2664171737894
 20
18.46003370537678
 30
0.0
  0
VERTEX
  5
4A0
  8
0
  6
BYBLOCK
 62
     0
 10
267.2712054165202
 20
18.44192371801901
 30
0.0
  0
VERTEX
  5
4A1
  8
0
  6
BYBLOCK
 62
     0
 10
267.2748084506542
 20
18.4238611390051
 30
0.0
  0
VERTEX
  5
4A2
  8
0
  6
BYBLOCK
 62
     0
 10
267.278458893132
 20
18.4057985599912
 30
0.0
  0
VERTEX
  5
4A3
  8
0
  6
BYBLOCK
 62
     0
 10
267.2808293103254
 20
18.388921189574
 30
0.0
  0
VERTEX
  5
4A4
  8
0
  6
BYBLOCK
 62
     0
 10
267.2844797528033
 20
18.37090601890397
 30
0.0
  0
VERTEX
  5
4A5
  8
0
  6
BYBLOCK
 62
     0
 10
267.2796441017288
 20
18.33478086087615
 30
0.0
  0
VERTEX
  5
4A6
  8
0
  6
BYBLOCK
 62
     0
 10
267.2880827869374
 20
18.32634217566756
 30
0.0
  0
VERTEX
  5
4A7
  8
0
  6
BYBLOCK
 62
     0
 10
267.2916858210713
 20
18.29500526037046
 30
0.0
  0
VERTEX
  5
4A8
  8
0
  6
BYBLOCK
 62
     0
 10
267.3001245062799
 20
18.28656657516187
 30
0.0
  0
VERTEX
  5
4A9
  8
0
  6
BYBLOCK
 62
     0
 10
267.3049601573545
 20
18.27817529829714
 30
0.0
  0
VERTEX
  5
4AA
  8
0
  6
BYBLOCK
 62
     0
 10
267.3049601573545
 20
18.26371575341724
 30
0.0
  0
VERTEX
  5
4AB
  8
0
  6
BYBLOCK
 62
     0
 10
267.3001245062799
 20
18.22996101258285
 30
0.0
  0
VERTEX
  5
4AC
  8
0
  6
BYBLOCK
 62
     0
 10
267.1844955555846
 20
18.20345974836035
 30
0.0
  0
VERTEX
  5
4AD
  8
0
  6
BYBLOCK
 62
     0
 10
267.1350960612736
 20
18.20345974836035
 30
0.0
  0
SEQEND
  5
5CF
  8
0
  6
BYBLOCK
 62
     0
  0
POLYLINE
  5
1B6
  8
0
  6
BYBLOCK
 62
     0
 66
     1
 10
0.0
 20
0.0
 30
0.0
  0
VERTEX
  5
4AE
  8
0
  6
BYBLOCK
 62
     0
 10
267.7855385391497
 20
18.14325115164733
 30
0.0
  0
VERTEX
  5
4AF
  8
0
  6
BYBLOCK
 62
     0
 10
267.7518312066592
 20
18.15771069652723
 30
0.0
  0
VERTEX
  5
4B0
  8
0
  6
BYBLOCK
 62
     0
 10
267.7168912572281
 20
18.14927201131863
 30
0.0
  0
VERTEX
  5
4B1
  8
0
  6
BYBLOCK
 62
     0
 10
267.6843691333343
 20
18.15771069652723
 30
0.0
  0
VERTEX
  5
4B2
  8
0
  6
BYBLOCK
 62
     0
 10
267.63615484762
 20
18.32634217566756
 30
0.0
  0
VERTEX
  5
4B3
  8
0
  6
BYBLOCK
 62
     0
 10
267.6398052900979
 20
18.28656657516187
 30
0.0
  0
VERTEX
  5
4B4
  8
0
  6
BYBLOCK
 62
     0
 10
267.6602856946491
 20
18.20345974836035
 30
0.0
  0
VERTEX
  5
4B5
  8
0
  6
BYBLOCK
 62
     0
 10
267.6434083242319
 20
18.20469236530093
 30
0.0
  0
VERTEX
  5
4B6
  8
0
  6
BYBLOCK
 62
     0
 10
267.6265309538147
 20
18.20469236530093
 30
0.0
  0
VERTEX
  5
4B7
  8
0
  6
BYBLOCK
 62
     0
 10
267.6108862003381
 20
18.20469236530093
 30
0.0
  0
VERTEX
  5
4B8
  8
0
  6
BYBLOCK
 62
     0
 10
267.5940088299209
 20
18.20469236530093
 30
0.0
  0
VERTEX
  5
4B9
  8
0
  6
BYBLOCK
 62
     0
 10
267.5771314595037
 20
18.20469236530093
 30
0.0
  0
VERTEX
  5
4BA
  8
0
  6
BYBLOCK
 62
     0
 10
267.5614867060271
 20
18.20345974836035
 30
0.0
  0
VERTEX
  5
4BB
  8
0
  6
BYBLOCK
 62
     0
 10
267.5446567439538
 20
18.20345974836035
 30
0.0
  0
VERTEX
  5
4BC
  8
0
  6
BYBLOCK
 62
     0
 10
267.5290119904772
 20
18.20469236530093
 30
0.0
  0
VERTEX
  5
4BD
  8
0
  6
BYBLOCK
 62
     0
 10
267.51213462006
 20
18.20469236530093
 30
0.0
  0
VERTEX
  5
4BE
  8
0
  6
BYBLOCK
 62
     0
 10
267.4952572496428
 20
18.20587757389765
 30
0.0
  0
VERTEX
  5
4BF
  8
0
  6
BYBLOCK
 62
     0
 10
267.4796124961662
 20
18.20706278249436
 30
0.0
  0
VERTEX
  5
4C0
  8
0
  6
BYBLOCK
 62
     0
 10
267.462735125749
 20
18.20948060803165
 30
0.0
  0
VERTEX
  5
4C1
  8
0
  6
BYBLOCK
 62
     0
 10
267.4459051636757
 20
18.21308364216566
 30
0.0
  0
VERTEX
  5
4C2
  8
0
  6
BYBLOCK
 62
     0
 10
267.4302130018552
 20
18.21791929324025
 30
0.0
  0
VERTEX
  5
4C3
  8
0
  6
BYBLOCK
 62
     0
 10
267.4133830397818
 20
18.22275494431484
 30
0.0
  0
VERTEX
  5
4C4
  8
0
  6
BYBLOCK
 62
     0
 10
267.3965056693647
 20
18.22996101258285
 30
0.0
  0
VERTEX
  5
4C5
  8
0
  6
BYBLOCK
 62
     0
 10
267.4724064278981
 20
18.38418035518715
 30
0.0
  0
VERTEX
  5
4C6
  8
0
  6
BYBLOCK
 62
     0
 10
267.4724064278981
 20
18.3973598747826
 30
0.0
  0
VERTEX
  5
4C7
  8
0
  6
BYBLOCK
 62
     0
 10
267.51213462006
 20
18.46240412257021
 30
0.0
  0
VERTEX
  5
4C8
  8
0
  6
BYBLOCK
 62
     0
 10
267.5205733052686
 20
18.46605456504809
 30
0.0
  0
VERTEX
  5
4C9
  8
0
  6
BYBLOCK
 62
     0
 10
267.6108862003381
 20
18.41423724519979
 30
0.0
  0
VERTEX
  5
4CA
  8
0
  6
BYBLOCK
 62
     0
 10
267.6277635707553
 20
18.38418035518715
 30
0.0
  0
VERTEX
  5
4CB
  8
0
  6
BYBLOCK
 62
     0
 10
267.6409904986946
 20
18.38294773824657
 30
0.0
  0
VERTEX
  5
4CC
  8
0
  6
BYBLOCK
 62
     0
 10
267.6542648349778
 20
18.38052991270927
 30
0.0
  0
VERTEX
  5
4CD
  8
0
  6
BYBLOCK
 62
     0
 10
267.6674917629171
 20
18.37934470411256
 30
0.0
  0
VERTEX
  5
4CE
  8
0
  6
BYBLOCK
 62
     0
 10
267.6807660992003
 20
18.37815949551585
 30
0.0
  0
VERTEX
  5
4CF
  8
0
  6
BYBLOCK
 62
     0
 10
267.6939930271396
 20
18.37692687857527
 30
0.0
  0
VERTEX
  5
4D0
  8
0
  6
BYBLOCK
 62
     0
 10
267.7072673634228
 20
18.37692687857527
 30
0.0
  0
VERTEX
  5
4D1
  8
0
  6
BYBLOCK
 62
     0
 10
267.7204942913621
 20
18.37574166997856
 30
0.0
  0
VERTEX
  5
4D2
  8
0
  6
BYBLOCK
 62
     0
 10
267.7337686276453
 20
18.37574166997856
 30
0.0
  0
VERTEX
  5
4D3
  8
0
  6
BYBLOCK
 62
     0
 10
267.7469955555846
 20
18.37574166997856
 30
0.0
  0
VERTEX
  5
4D4
  8
0
  6
BYBLOCK
 62
     0
 10
267.7602698918678
 20
18.37692687857527
 30
0.0
  0
VERTEX
  5
4D5
  8
0
  6
BYBLOCK
 62
     0
 10
267.7723116112104
 20
18.37815949551585
 30
0.0
  0
VERTEX
  5
4D6
  8
0
  6
BYBLOCK
 62
     0
 10
267.7855385391497
 20
18.37934470411256
 30
0.0
  0
VERTEX
  5
4D7
  8
0
  6
BYBLOCK
 62
     0
 10
267.7988128754329
 20
18.38176252964985
 30
0.0
  0
VERTEX
  5
4D8
  8
0
  6
BYBLOCK
 62
     0
 10
267.8120398033722
 20
18.38536556378386
 30
0.0
  0
VERTEX
  5
4D9
  8
0
  6
BYBLOCK
 62
     0
 10
267.8240815227148
 20
18.388921189574
 30
0.0
  0
VERTEX
  5
4DA
  8
0
  6
BYBLOCK
 62
     0
 10
267.837355858998
 20
18.39375684064859
 30
0.0
  0
VERTEX
  5
4DB
  8
0
  6
BYBLOCK
 62
     0
 10
267.8770840511598
 20
18.42988199867641
 30
0.0
  0
VERTEX
  5
4DC
  8
0
  6
BYBLOCK
 62
     0
 10
267.8975644557111
 20
18.4094015941252
 30
0.0
  0
VERTEX
  5
4DD
  8
0
  6
BYBLOCK
 62
     0
 10
267.9180448602622
 20
18.3913390151113
 30
0.0
  0
VERTEX
  5
4DE
  8
0
  6
BYBLOCK
 62
     0
 10
267.939757881754
 20
18.37450905303797
 30
0.0
  0
VERTEX
  5
4DF
  8
0
  6
BYBLOCK
 62
     0
 10
267.961423494902
 20
18.36004950815807
 30
0.0
  0
VERTEX
  5
4E0
  8
0
  6
BYBLOCK
 62
     0
 10
267.9831365163937
 20
18.34682258021876
 30
0.0
  0
VERTEX
  5
4E1
  8
0
  6
BYBLOCK
 62
     0
 10
268.0059873381384
 20
18.33478086087615
 30
0.0
  0
VERTEX
  5
4E2
  8
0
  6
BYBLOCK
 62
     0
 10
268.0277003596302
 20
18.32273914153355
 30
0.0
  0
VERTEX
  5
4E3
  8
0
  6
BYBLOCK
 62
     0
 10
268.049365972778
 20
18.31069742219094
 30
0.0
  0
VERTEX
  5
4E4
  8
0
  6
BYBLOCK
 62
     0
 10
268.0614076921207
 20
18.29865570284834
 30
0.0
  0
VERTEX
  5
4E5
  8
0
  6
BYBLOCK
 62
     0
 10
268.0614076921207
 20
18.29021701763974
 30
0.0
  0
VERTEX
  5
4E6
  8
0
  6
BYBLOCK
 62
     0
 10
268.0216794999589
 20
18.24323534886604
 30
0.0
  0
VERTEX
  5
4E7
  8
0
  6
BYBLOCK
 62
     0
 10
267.9975486529298
 20
18.25527706820864
 30
0.0
  0
VERTEX
  5
4E8
  8
0
  6
BYBLOCK
 62
     0
 10
267.9819038994531
 20
18.26973661308854
 30
0.0
  0
VERTEX
  5
4E9
  8
0
  6
BYBLOCK
 62
     0
 10
267.9674443545732
 20
18.28538136656515
 30
0.0
  0
VERTEX
  5
4EA
  8
0
  6
BYBLOCK
 62
     0
 10
267.9554026352307
 20
18.29984091144505
 30
0.0
  0
VERTEX
  5
4EB
  8
0
  6
BYBLOCK
 62
     0
 10
267.9421757072913
 20
18.31548566492166
 30
0.0
  0
VERTEX
  5
4EC
  8
0
  6
BYBLOCK
 62
     0
 10
267.9300865796048
 20
18.33117782674215
 30
0.0
  0
VERTEX
  5
4ED
  8
0
  6
BYBLOCK
 62
     0
 10
267.9168596516656
 20
18.34682258021876
 30
0.0
  0
VERTEX
  5
4EE
  8
0
  6
BYBLOCK
 62
     0
 10
267.9024001067856
 20
18.36246733369537
 30
0.0
  0
VERTEX
  5
4EF
  8
0
  6
BYBLOCK
 62
     0
 10
267.8855227363684
 20
18.37934470411256
 30
0.0
  0
VERTEX
  5
4F0
  8
0
  6
BYBLOCK
 62
     0
 10
267.8927762129803
 20
18.35526126542735
 30
0.0
  0
VERTEX
  5
4F1
  8
0
  6
BYBLOCK
 62
     0
 10
267.9012148981889
 20
18.34682258021876
 30
0.0
  0
VERTEX
  5
4F2
  8
0
  6
BYBLOCK
 62
     0
 10
267.9289013710081
 20
18.31069742219094
 30
0.0
  0
VERTEX
  5
4F3
  8
0
  6
BYBLOCK
 62
     0
 10
267.9529848096934
 20
18.28296354102786
 30
0.0
  0
VERTEX
  5
4F4
  8
0
  6
BYBLOCK
 62
     0
 10
267.961423494902
 20
18.27452485581926
 30
0.0
  0
VERTEX
  5
4F5
  8
0
  6
BYBLOCK
 62
     0
 10
268.0216794999589
 20
18.21431625910624
 30
0.0
  0
VERTEX
  5
4F6
  8
0
  6
BYBLOCK
 62
     0
 10
268.0059873381384
 20
18.19502106315175
 30
0.0
  0
VERTEX
  5
4F7
  8
0
  6
BYBLOCK
 62
     0
 10
267.9975486529298
 20
18.19023282042103
 30
0.0
  0
VERTEX
  5
4F8
  8
0
  6
BYBLOCK
 62
     0
 10
267.8927762129803
 20
18.19023282042103
 30
0.0
  0
VERTEX
  5
4F9
  8
0
  6
BYBLOCK
 62
     0
 10
267.8855227363684
 20
18.18658237794316
 30
0.0
  0
VERTEX
  5
4FA
  8
0
  6
BYBLOCK
 62
     0
 10
267.8325202079234
 20
18.14685418578134
 30
0.0
  0
VERTEX
  5
4FB
  8
0
  6
BYBLOCK
 62
     0
 10
267.7855385391497
 20
18.14325115164733
 30
0.0
  0
SEQEND
  5
5D0
  8
0
  6
BYBLOCK
 62
     0
  0
POLYLINE
  5
206
  8
0
  6
BYBLOCK
 62
     0
 66
     1
 10
0.0
 20
0.0
 30
0.0
  0
VERTEX
  5
4FC
  8
0
  6
BYBLOCK
 62
     0
 10
267.2712054165202
 20
18.12637378123014
 30
0.0
  0
VERTEX
  5
4FD
  8
0
  6
BYBLOCK
 62
     0
 10
267.2471219778349
 20
18.14685418578134
 30
0.0
  0
VERTEX
  5
4FE
  8
0
  6
BYBLOCK
 62
     0
 10
267.2471219778349
 20
18.15406025404935
 30
0.0
  0
VERTEX
  5
4FF
  8
0
  6
BYBLOCK
 62
     0
 10
267.2399159095669
 20
18.19867150562963
 30
0.0
  0
VERTEX
  5
500
  8
0
  6
BYBLOCK
 62
     0
 10
267.2555606630435
 20
18.17454065860055
 30
0.0
  0
VERTEX
  5
501
  8
0
  6
BYBLOCK
 62
     0
 10
267.2844797528033
 20
18.12277074709613
 30
0.0
  0
VERTEX
  5
502
  8
0
  6
BYBLOCK
 62
     0
 10
267.2712054165202
 20
18.12637378123014
 30
0.0
  0
SEQEND
  5
5D1
  8
0
  6
BYBLOCK
 62
     0
  0
POLYLINE
  5
20F
  8
0
  6
BYBLOCK
 62
     0
 66
     1
 10
0.0
 20
0.0
 30
0.0
  0
VERTEX
  5
503
  8
0
  6
BYBLOCK
 62
     0
 10
267.2555606630435
 20
18.11433206188753
 30
0.0
  0
VERTEX
  5
504
  8
0
  6
BYBLOCK
 62
     0
 10
267.2399159095669
 20
18.13841550057274
 30
0.0
  0
VERTEX
  5
505
  8
0
  6
BYBLOCK
 62
     0
 10
267.2676023823861
 20
18.10949641081294
 30
0.0
  0
VERTEX
  5
506
  8
0
  6
BYBLOCK
 62
     0
 10
267.2555606630435
 20
18.11433206188753
 30
0.0
  0
SEQEND
  5
5D2
  8
0
  6
BYBLOCK
 62
     0
  0
POLYLINE
  5
215
  8
0
  6
BYBLOCK
 62
     0
 66
     1
 10
0.0
 20
0.0
 30
0.0
  0
VERTEX
  5
507
  8
0
  6
BYBLOCK
 62
     0
 10
267.4278425846617
 20
17.96855140449183
 30
0.0
  0
VERTEX
  5
508
  8
0
  6
BYBLOCK
 62
     0
 10
267.3796282989475
 20
17.98542877490902
 30
0.0
  0
VERTEX
  5
509
  8
0
  6
BYBLOCK
 62
     0
 10
267.3832313330815
 20
18.03961651195074
 30
0.0
  0
VERTEX
  5
50A
  8
0
  6
BYBLOCK
 62
     0
 10
267.3832313330815
 20
18.09261904039575
 30
0.0
  0
VERTEX
  5
50B
  8
0
  6
BYBLOCK
 62
     0
 10
267.3856491586188
 20
18.14443636024404
 30
0.0
  0
VERTEX
  5
50C
  8
0
  6
BYBLOCK
 62
     0
 10
267.4001087034986
 20
18.19867150562963
 30
0.0
  0
VERTEX
  5
50D
  8
0
  6
BYBLOCK
 62
     0
 10
267.5169702711345
 20
18.18658237794316
 30
0.0
  0
VERTEX
  5
50E
  8
0
  6
BYBLOCK
 62
     0
 10
267.51213462006
 20
18.17577327554113
 30
0.0
  0
VERTEX
  5
50F
  8
0
  6
BYBLOCK
 62
     0
 10
267.504928551792
 20
18.16491676479524
 30
0.0
  0
VERTEX
  5
510
  8
0
  6
BYBLOCK
 62
     0
 10
267.4976750751801
 20
18.15287504545264
 30
0.0
  0
VERTEX
  5
511
  8
0
  6
BYBLOCK
 62
     0
 10
267.4904690069121
 20
18.14201853470675
 30
0.0
  0
VERTEX
  5
512
  8
0
  6
BYBLOCK
 62
     0
 10
267.4832155303002
 20
18.12997681536414
 30
0.0
  0
VERTEX
  5
513
  8
0
  6
BYBLOCK
 62
     0
 10
267.4771946706289
 20
18.11793509602154
 30
0.0
  0
VERTEX
  5
514
  8
0
  6
BYBLOCK
 62
     0
 10
267.4735916364949
 20
18.10589337667894
 30
0.0
  0
VERTEX
  5
515
  8
0
  6
BYBLOCK
 62
     0
 10
267.4724064278981
 20
18.09385165733633
 30
0.0
  0
VERTEX
  5
516
  8
0
  6
BYBLOCK
 62
     0
 10
267.4687559854203
 20
17.96613357895453
 30
0.0
  0
VERTEX
  5
517
  8
0
  6
BYBLOCK
 62
     0
 10
267.4278425846617
 20
17.96855140449183
 30
0.0
  0
SEQEND
  5
5D3
  8
0
  6
BYBLOCK
 62
     0
  0
POLYLINE
  5
228
  8
0
  6
BYBLOCK
 62
     0
 66
     1
 10
0.0
 20
0.0
 30
0.0
  0
VERTEX
  5
518
  8
0
  6
BYBLOCK
 62
     0
 10
267.9373400562167
 20
17.94930361688121
 30
0.0
  0
VERTEX
  5
519
  8
0
  6
BYBLOCK
 62
     0
 10
267.9012148981889
 20
17.97699008970043
 30
0.0
  0
VERTEX
  5
51A
  8
0
  6
BYBLOCK
 62
     0
 10
267.7891889816276
 20
18.06611777617324
 30
0.0
  0
VERTEX
  5
51B
  8
0
  6
BYBLOCK
 62
     0
 10
267.7723116112104
 20
18.12277074709613
 30
0.0
  0
VERTEX
  5
51C
  8
0
  6
BYBLOCK
 62
     0
 10
267.8168754544468
 20
18.12637378123014
 30
0.0
  0
VERTEX
  5
51D
  8
0
  6
BYBLOCK
 62
     0
 10
267.8253141396554
 20
18.12997681536414
 30
0.0
  0
VERTEX
  5
51E
  8
0
  6
BYBLOCK
 62
     0
 10
267.8722958084291
 20
18.16249893925795
 30
0.0
  0
VERTEX
  5
51F
  8
0
  6
BYBLOCK
 62
     0
 10
267.8783166681004
 20
18.13841550057274
 30
0.0
  0
VERTEX
  5
520
  8
0
  6
BYBLOCK
 62
     0
 10
267.8891731788463
 20
18.11793509602154
 30
0.0
  0
VERTEX
  5
521
  8
0
  6
BYBLOCK
 62
     0
 10
267.9060031409197
 20
18.10105772560435
 30
0.0
  0
VERTEX
  5
522
  8
0
  6
BYBLOCK
 62
     0
 10
267.9264835454708
 20
18.08659818072445
 30
0.0
  0
VERTEX
  5
523
  8
0
  6
BYBLOCK
 62
     0
 10
267.9469639500221
 20
18.07337125278513
 30
0.0
  0
VERTEX
  5
524
  8
0
  6
BYBLOCK
 62
     0
 10
267.9686769715138
 20
18.05772649930852
 30
0.0
  0
VERTEX
  5
525
  8
0
  6
BYBLOCK
 62
     0
 10
267.989157376065
 20
18.03961651195074
 30
0.0
  0
VERTEX
  5
526
  8
0
  6
BYBLOCK
 62
     0
 10
268.0059873381384
 20
18.01795089880283
 30
0.0
  0
VERTEX
  5
527
  8
0
  6
BYBLOCK
 62
     0
 10
267.9578204607679
 20
17.94930361688121
 30
0.0
  0
VERTEX
  5
528
  8
0
  6
BYBLOCK
 62
     0
 10
267.9373400562167
 20
17.94930361688121
 30
0.0
  0
SEQEND
  5
5D4
  8
0
  6
BYBLOCK
 62
     0
  0
POLYLINE
  5
23B
  8
0
  6
BYBLOCK
 62
     0
 66
     1
 10
0.0
 20
0.0
 30
0.0
  0
VERTEX
  5
529
  8
0
  6
BYBLOCK
 62
     0
 10
267.1350960612736
 20
17.92517276985213
 30
0.0
  0
VERTEX
  5
52A
  8
0
  6
BYBLOCK
 62
     0
 10
267.1158008653192
 20
17.9372618975386
 30
0.0
  0
VERTEX
  5
52B
  8
0
  6
BYBLOCK
 62
     0
 10
267.1037591459765
 20
17.95409185961193
 30
0.0
  0
VERTEX
  5
52C
  8
0
  6
BYBLOCK
 62
     0
 10
267.0905322180372
 20
17.98542877490902
 30
0.0
  0
VERTEX
  5
52D
  8
0
  6
BYBLOCK
 62
     0
 10
267.1471377806162
 20
17.92156973571813
 30
0.0
  0
VERTEX
  5
52E
  8
0
  6
BYBLOCK
 62
     0
 10
267.1350960612736
 20
17.92517276985213
 30
0.0
  0
SEQEND
  5
5D5
  8
0
  6
BYBLOCK
 62
     0
  0
POLYLINE
  5
243
  8
0
  6
BYBLOCK
 62
     0
 66
     1
 10
0.0
 20
0.0
 30
0.0
  0
VERTEX
  5
52F
  8
0
  6
BYBLOCK
 62
     0
 10
267.4362338615265
 20
17.92156973571813
 30
0.0
  0
VERTEX
  5
530
  8
0
  6
BYBLOCK
 62
     0
 10
267.3651687540676
 20
17.94205014026933
 30
0.0
  0
VERTEX
  5
531
  8
0
  6
BYBLOCK
 62
     0
 10
267.3687717882016
 20
17.96855140449183
 30
0.0
  0
VERTEX
  5
532
  8
0
  6
BYBLOCK
 62
     0
 10
267.4001087034986
 20
17.95774230208981
 30
0.0
  0
VERTEX
  5
533
  8
0
  6
BYBLOCK
 62
     0
 10
267.4771946706289
 20
17.95409185961193
 30
0.0
  0
VERTEX
  5
534
  8
0
  6
BYBLOCK
 62
     0
 10
267.4651529512863
 20
17.9167814929874
 30
0.0
  0
VERTEX
  5
535
  8
0
  6
BYBLOCK
 62
     0
 10
267.4362338615265
 20
17.92156973571813
 30
0.0
  0
SEQEND
  5
5D6
  8
0
  6
BYBLOCK
 62
     0
  0
POLYLINE
  5
24C
  8
0
  6
BYBLOCK
 62
     0
 66
     1
 10
0.0
 20
0.0
 30
0.0
  0
VERTEX
  5
536
  8
0
  6
BYBLOCK
 62
     0
 10
267.9578204607679
 20
17.91313105050953
 30
0.0
  0
VERTEX
  5
537
  8
0
  6
BYBLOCK
 62
     0
 10
267.9457787414253
 20
17.92517276985213
 30
0.0
  0
VERTEX
  5
538
  8
0
  6
BYBLOCK
 62
     0
 10
267.9554026352307
 20
17.93361145506073
 30
0.0
  0
VERTEX
  5
539
  8
0
  6
BYBLOCK
 62
     0
 10
267.9662591459766
 20
17.94205014026933
 30
0.0
  0
VERTEX
  5
53A
  8
0
  6
BYBLOCK
 62
     0
 10
267.9758830397818
 20
17.95048882547792
 30
0.0
  0
VERTEX
  5
53B
  8
0
  6
BYBLOCK
 62
     0
 10
267.9855069335871
 20
17.96011271928323
 30
0.0
  0
VERTEX
  5
53C
  8
0
  6
BYBLOCK
 62
     0
 10
267.9939456187957
 20
17.97096923002912
 30
0.0
  0
VERTEX
  5
53D
  8
0
  6
BYBLOCK
 62
     0
 10
268.0011990954076
 20
17.98059312383443
 30
0.0
  0
VERTEX
  5
53E
  8
0
  6
BYBLOCK
 62
     0
 10
268.0084051636757
 20
17.99144963458032
 30
0.0
  0
VERTEX
  5
53F
  8
0
  6
BYBLOCK
 62
     0
 10
268.0132408147502
 20
18.00230614532622
 30
0.0
  0
VERTEX
  5
540
  8
0
  6
BYBLOCK
 62
     0
 10
268.0373242534354
 20
17.98903180904303
 30
0.0
  0
VERTEX
  5
541
  8
0
  6
BYBLOCK
 62
     0
 10
268.0011990954076
 20
17.9372618975386
 30
0.0
  0
VERTEX
  5
542
  8
0
  6
BYBLOCK
 62
     0
 10
267.9578204607679
 20
17.91313105050953
 30
0.0
  0
SEQEND
  5
5D7
  8
0
  6
BYBLOCK
 62
     0
  0
POLYLINE
  5
25B
  8
0
  6
BYBLOCK
 62
     0
 66
     1
 10
0.0
 20
0.0
 30
0.0
  0
VERTEX
  5
543
  8
0
  6
BYBLOCK
 62
     0
 10
267.1110126225884
 20
17.90834280777881
 30
0.0
  0
VERTEX
  5
544
  8
0
  6
BYBLOCK
 62
     0
 10
267.0905322180372
 20
17.94930361688121
 30
0.0
  0
VERTEX
  5
545
  8
0
  6
BYBLOCK
 62
     0
 10
267.1073621801106
 20
17.94930361688121
 30
0.0
  0
VERTEX
  5
546
  8
0
  6
BYBLOCK
 62
     0
 10
267.1242395505278
 20
17.90592498224151
 30
0.0
  0
VERTEX
  5
547
  8
0
  6
BYBLOCK
 62
     0
 10
267.1110126225884
 20
17.90834280777881
 30
0.0
  0
SEQEND
  5
5D8
  8
0
  6
BYBLOCK
 62
     0
  0
POLYLINE
  5
262
  8
0
  6
BYBLOCK
 62
     0
 66
     1
 10
0.0
 20
0.0
 30
0.0
  0
VERTEX
  5
548
  8
0
  6
BYBLOCK
 62
     0
 10
267.3362496643078
 20
17.85292245379651
 30
0.0
  0
VERTEX
  5
549
  8
0
  6
BYBLOCK
 62
     0
 10
267.2880827869374
 20
17.88904761182432
 30
0.0
  0
VERTEX
  5
54A
  8
0
  6
BYBLOCK
 62
     0
 10
267.3109810170258
 20
17.89748629703292
 30
0.0
  0
VERTEX
  5
54B
  8
0
  6
BYBLOCK
 62
     0
 10
267.2591636971775
 20
17.90834280777881
 30
0.0
  0
VERTEX
  5
54C
  8
0
  6
BYBLOCK
 62
     0
 10
267.2338476415517
 20
17.9312410378673
 30
0.0
  0
VERTEX
  5
54D
  8
0
  6
BYBLOCK
 62
     0
 10
267.2145998539411
 20
17.95650968514922
 30
0.0
  0
VERTEX
  5
54E
  8
0
  6
BYBLOCK
 62
     0
 10
267.1977224835239
 20
17.98182574077502
 30
0.0
  0
VERTEX
  5
54F
  8
0
  6
BYBLOCK
 62
     0
 10
267.183262938644
 20
18.00832700499752
 30
0.0
  0
VERTEX
  5
550
  8
0
  6
BYBLOCK
 62
     0
 10
267.172453836242
 20
18.03482826922002
 30
0.0
  0
VERTEX
  5
551
  8
0
  6
BYBLOCK
 62
     0
 10
267.1627825340929
 20
18.06132953344252
 30
0.0
  0
VERTEX
  5
552
  8
0
  6
BYBLOCK
 62
     0
 10
267.1543438488843
 20
18.08783079766503
 30
0.0
  0
VERTEX
  5
553
  8
0
  6
BYBLOCK
 62
     0
 10
267.1471377806162
 20
18.11433206188753
 30
0.0
  0
VERTEX
  5
554
  8
0
  6
BYBLOCK
 62
     0
 10
267.1869133811219
 20
18.07455646138184
 30
0.0
  0
VERTEX
  5
555
  8
0
  6
BYBLOCK
 62
     0
 10
267.1471377806162
 20
18.16975241586983
 30
0.0
  0
VERTEX
  5
556
  8
0
  6
BYBLOCK
 62
     0
 10
267.1652003596301
 20
18.18056151827185
 30
0.0
  0
VERTEX
  5
557
  8
0
  6
BYBLOCK
 62
     0
 10
267.183262938644
 20
18.18900020348045
 30
0.0
  0
VERTEX
  5
558
  8
0
  6
BYBLOCK
 62
     0
 10
267.2025581345985
 20
18.19743888868905
 30
0.0
  0
VERTEX
  5
559
  8
0
  6
BYBLOCK
 62
     0
 10
267.2218059222092
 20
18.20469236530093
 30
0.0
  0
VERTEX
  5
55A
  8
0
  6
BYBLOCK
 62
     0
 10
267.2399159095669
 20
18.21071322497223
 30
0.0
  0
VERTEX
  5
55B
  8
0
  6
BYBLOCK
 62
     0
 10
267.2591636971775
 20
18.21431625910624
 30
0.0
  0
VERTEX
  5
55C
  8
0
  6
BYBLOCK
 62
     0
 10
267.278458893132
 20
18.21673408464353
 30
0.0
  0
VERTEX
  5
55D
  8
0
  6
BYBLOCK
 62
     0
 10
267.2965214721459
 20
18.21791929324025
 30
0.0
  0
VERTEX
  5
55E
  8
0
  6
BYBLOCK
 62
     0
 10
267.2916858210713
 20
18.11433206188753
 30
0.0
  0
VERTEX
  5
55F
  8
0
  6
BYBLOCK
 62
     0
 10
267.2965214721459
 20
18.09745469147034
 30
0.0
  0
VERTEX
  5
560
  8
0
  6
BYBLOCK
 62
     0
 10
267.3001245062799
 20
18.01795089880283
 30
0.0
  0
VERTEX
  5
561
  8
0
  6
BYBLOCK
 62
     0
 10
267.3001245062799
 20
18.00230614532622
 30
0.0
  0
VERTEX
  5
562
  8
0
  6
BYBLOCK
 62
     0
 10
267.2796441017288
 20
17.96613357895453
 30
0.0
  0
VERTEX
  5
563
  8
0
  6
BYBLOCK
 62
     0
 10
267.3109810170258
 20
17.98542877490902
 30
0.0
  0
VERTEX
  5
564
  8
0
  6
BYBLOCK
 62
     0
 10
267.3001245062799
 20
17.95774230208981
 30
0.0
  0
VERTEX
  5
565
  8
0
  6
BYBLOCK
 62
     0
 10
267.3073779828918
 20
17.95774230208981
 30
0.0
  0
VERTEX
  5
566
  8
0
  6
BYBLOCK
 62
     0
 10
267.3278109790992
 20
17.99386746011762
 30
0.0
  0
VERTEX
  5
567
  8
0
  6
BYBLOCK
 62
     0
 10
267.356730068859
 20
17.96613357895453
 30
0.0
  0
VERTEX
  5
568
  8
0
  6
BYBLOCK
 62
     0
 10
267.356730068859
 20
17.94565317440333
 30
0.0
  0
VERTEX
  5
569
  8
0
  6
BYBLOCK
 62
     0
 10
267.3362496643078
 20
17.94930361688121
 30
0.0
  0
VERTEX
  5
56A
  8
0
  6
BYBLOCK
 62
     0
 10
267.3446883495163
 20
17.93361145506073
 30
0.0
  0
VERTEX
  5
56B
  8
0
  6
BYBLOCK
 62
     0
 10
267.3362496643078
 20
17.91313105050953
 30
0.0
  0
VERTEX
  5
56C
  8
0
  6
BYBLOCK
 62
     0
 10
267.3519418261282
 20
17.91313105050953
 30
0.0
  0
VERTEX
  5
56D
  8
0
  6
BYBLOCK
 62
     0
 10
267.3362496643078
 20
17.85292245379651
 30
0.0
  0
SEQEND
  5
5D9
  8
0
  6
BYBLOCK
 62
     0
  0
POLYLINE
  5
28A
  8
0
  6
BYBLOCK
 62
     0
 66
     1
 10
0.0
 20
0.0
 30
0.0
  0
VERTEX
  5
56E
  8
0
  6
BYBLOCK
 62
     0
 10
267.1676181851674
 20
17.7818573463376
 30
0.0
  0
VERTEX
  5
56F
  8
0
  6
BYBLOCK
 62
     0
 10
267.0868817755593
 20
17.80470816808222
 30
0.0
  0
VERTEX
  5
570
  8
0
  6
BYBLOCK
 62
     0
 10
267.0784904986946
 20
17.8613611390051
 30
0.0
  0
VERTEX
  5
571
  8
0
  6
BYBLOCK
 62
     0
 10
267.0640309538147
 20
17.96613357895453
 30
0.0
  0
VERTEX
  5
572
  8
0
  6
BYBLOCK
 62
     0
 10
267.0652161624114
 20
17.98903180904303
 30
0.0
  0
VERTEX
  5
573
  8
0
  6
BYBLOCK
 62
     0
 10
267.0688191965454
 20
18.01311524772824
 30
0.0
  0
VERTEX
  5
574
  8
0
  6
BYBLOCK
 62
     0
 10
267.0748400562167
 20
18.03601347781673
 30
0.0
  0
VERTEX
  5
575
  8
0
  6
BYBLOCK
 62
     0
 10
267.0820935328286
 20
18.05891170790523
 30
0.0
  0
VERTEX
  5
576
  8
0
  6
BYBLOCK
 62
     0
 10
267.0905322180372
 20
18.08299514659044
 30
0.0
  0
VERTEX
  5
577
  8
0
  6
BYBLOCK
 62
     0
 10
267.1013413204392
 20
18.10589337667894
 30
0.0
  0
VERTEX
  5
578
  8
0
  6
BYBLOCK
 62
     0
 10
267.1133830397819
 20
18.12997681536414
 30
0.0
  0
VERTEX
  5
579
  8
0
  6
BYBLOCK
 62
     0
 10
267.1266573760651
 20
18.15406025404935
 30
0.0
  0
VERTEX
  5
57A
  8
0
  6
BYBLOCK
 62
     0
 10
267.1640151510334
 20
18.02880740954872
 30
0.0
  0
VERTEX
  5
57B
  8
0
  6
BYBLOCK
 62
     0
 10
267.1712212193015
 20
17.99386746011762
 30
0.0
  0
VERTEX
  5
57C
  8
0
  6
BYBLOCK
 62
     0
 10
267.1435347464822
 20
18.00590917946023
 30
0.0
  0
VERTEX
  5
57D
  8
0
  6
BYBLOCK
 62
     0
 10
267.1350960612736
 20
18.01795089880283
 30
0.0
  0
VERTEX
  5
57E
  8
0
  6
BYBLOCK
 62
     0
 10
267.130260410199
 20
18.02520437541471
 30
0.0
  0
VERTEX
  5
57F
  8
0
  6
BYBLOCK
 62
     0
 10
267.1242395505278
 20
18.02520437541471
 30
0.0
  0
VERTEX
  5
580
  8
0
  6
BYBLOCK
 62
     0
 10
267.119451307797
 20
18.01795089880283
 30
0.0
  0
VERTEX
  5
581
  8
0
  6
BYBLOCK
 62
     0
 10
267.1712212193015
 20
17.97338705556642
 30
0.0
  0
VERTEX
  5
582
  8
0
  6
BYBLOCK
 62
     0
 10
267.1712212193015
 20
17.95774230208981
 30
0.0
  0
VERTEX
  5
583
  8
0
  6
BYBLOCK
 62
     0
 10
267.1591794999588
 20
17.94205014026933
 30
0.0
  0
VERTEX
  5
584
  8
0
  6
BYBLOCK
 62
     0
 10
267.1796599045101
 20
17.92156973571813
 30
0.0
  0
VERTEX
  5
585
  8
0
  6
BYBLOCK
 62
     0
 10
267.1796599045101
 20
17.83362725784202
 30
0.0
  0
VERTEX
  5
586
  8
0
  6
BYBLOCK
 62
     0
 10
267.1905164152559
 20
17.7818573463376
 30
0.0
  0
VERTEX
  5
587
  8
0
  6
BYBLOCK
 62
     0
 10
267.1676181851674
 20
17.7818573463376
 30
0.0
  0
SEQEND
  5
5DA
  8
0
  6
BYBLOCK
 62
     0
  0
POLYLINE
  5
2A6
  8
0
  6
BYBLOCK
 62
     0
 66
     1
 10
0.0
 20
0.0
 30
0.0
  0
VERTEX
  5
588
  8
0
  6
BYBLOCK
 62
     0
 10
267.5205733052686
 20
17.7565412907118
 30
0.0
  0
VERTEX
  5
589
  8
0
  6
BYBLOCK
 62
     0
 10
267.5000929007174
 20
17.79266644873962
 30
0.0
  0
VERTEX
  5
58A
  8
0
  6
BYBLOCK
 62
     0
 10
267.4603647085556
 20
17.82158553849941
 30
0.0
  0
VERTEX
  5
58B
  8
0
  6
BYBLOCK
 62
     0
 10
267.4808451131067
 20
17.91313105050953
 30
0.0
  0
VERTEX
  5
58C
  8
0
  6
BYBLOCK
 62
     0
 10
267.4928868324494
 20
17.89506847149562
 30
0.0
  0
VERTEX
  5
58D
  8
0
  6
BYBLOCK
 62
     0
 10
267.504928551792
 20
17.87700589248172
 30
0.0
  0
VERTEX
  5
58E
  8
0
  6
BYBLOCK
 62
     0
 10
267.515737654194
 20
17.85894331346781
 30
0.0
  0
VERTEX
  5
58F
  8
0
  6
BYBLOCK
 62
     0
 10
267.5265941649399
 20
17.8408807344539
 30
0.0
  0
VERTEX
  5
590
  8
0
  6
BYBLOCK
 62
     0
 10
267.5350328501485
 20
17.82281815544
 30
0.0
  0
VERTEX
  5
591
  8
0
  6
BYBLOCK
 62
     0
 10
267.5410537098198
 20
17.80470816808222
 30
0.0
  0
VERTEX
  5
592
  8
0
  6
BYBLOCK
 62
     0
 10
267.5446567439538
 20
17.78664558906831
 30
0.0
  0
VERTEX
  5
593
  8
0
  6
BYBLOCK
 62
     0
 10
267.5458893608944
 20
17.76858301005441
 30
0.0
  0
VERTEX
  5
594
  8
0
  6
BYBLOCK
 62
     0
 10
267.5205733052686
 20
17.7565412907118
 30
0.0
  0
SEQEND
  5
5DB
  8
0
  6
BYBLOCK
 62
     0
  0
POLYLINE
  5
2B5
  8
0
  6
BYBLOCK
 62
     0
 66
     1
 10
0.0
 20
0.0
 30
0.0
  0
VERTEX
  5
595
  8
0
  6
BYBLOCK
 62
     0
 10
267.0351118640549
 20
17.74089653723519
 30
0.0
  0
VERTEX
  5
596
  8
0
  6
BYBLOCK
 62
     0
 10
267.0097958084291
 20
17.74810260550321
 30
0.0
  0
VERTEX
  5
597
  8
0
  6
BYBLOCK
 62
     0
 10
267.0182344936377
 20
17.7649799759204
 30
0.0
  0
VERTEX
  5
598
  8
0
  6
BYBLOCK
 62
     0
 10
267.0676339879487
 20
17.77702169526301
 30
0.0
  0
VERTEX
  5
599
  8
0
  6
BYBLOCK
 62
     0
 10
267.0748400562167
 20
17.78427517187489
 30
0.0
  0
VERTEX
  5
59A
  8
0
  6
BYBLOCK
 62
     0
 10
267.1844955555846
 20
17.76858301005441
 30
0.0
  0
VERTEX
  5
59B
  8
0
  6
BYBLOCK
 62
     0
 10
267.1796599045101
 20
17.7444995713692
 30
0.0
  0
VERTEX
  5
59C
  8
0
  6
BYBLOCK
 62
     0
 10
267.0351118640549
 20
17.74089653723519
 30
0.0
  0
SEQEND
  5
5DC
  8
0
  6
BYBLOCK
 62
     0
  0
POLYLINE
  5
2BF
  8
0
  6
BYBLOCK
 62
     0
 66
     1
 10
0.0
 20
0.0
 30
0.0
  0
VERTEX
  5
59D
  8
0
  6
BYBLOCK
 62
     0
 10
267.2796441017288
 20
17.66741360423898
 30
0.0
  0
VERTEX
  5
59E
  8
0
  6
BYBLOCK
 62
     0
 10
267.2242237477465
 20
17.6806405321783
 30
0.0
  0
VERTEX
  5
59F
  8
0
  6
BYBLOCK
 62
     0
 10
267.2242237477465
 20
17.69633269399878
 30
0.0
  0
VERTEX
  5
5A0
  8
0
  6
BYBLOCK
 62
     0
 10
267.236265467089
 20
17.7011209367295
 30
0.0
  0
VERTEX
  5
5A1
  8
0
  6
BYBLOCK
 62
     0
 10
267.3109810170258
 20
17.71681309854998
 30
0.0
  0
VERTEX
  5
5A2
  8
0
  6
BYBLOCK
 62
     0
 10
267.3446883495163
 20
17.7565412907118
 30
0.0
  0
VERTEX
  5
5A3
  8
0
  6
BYBLOCK
 62
     0
 10
267.3603805113368
 20
17.9167814929874
 30
0.0
  0
VERTEX
  5
5A4
  8
0
  6
BYBLOCK
 62
     0
 10
267.4687559854203
 20
17.90592498224151
 30
0.0
  0
VERTEX
  5
5A5
  8
0
  6
BYBLOCK
 62
     0
 10
267.4205891080499
 20
17.68789400879018
 30
0.0
  0
VERTEX
  5
5A6
  8
0
  6
BYBLOCK
 62
     0
 10
267.4049443545732
 20
17.66381057010498
 30
0.0
  0
VERTEX
  5
5A7
  8
0
  6
BYBLOCK
 62
     0
 10
267.2796441017288
 20
17.66741360423898
 30
0.0
  0
SEQEND
  5
5DD
  8
0
  6
BYBLOCK
 62
     0
  0
POLYLINE
  5
2CC
  8
0
  6
BYBLOCK
 62
     0
 66
     1
 10
0.0
 20
0.0
 30
0.0
  0
VERTEX
  5
5A8
  8
0
  6
BYBLOCK
 62
     0
 10
268.0818880966718
 20
17.65655709349309
 30
0.0
  0
VERTEX
  5
5A9
  8
0
  6
BYBLOCK
 62
     0
 10
268.0662433431953
 20
17.78787820600889
 30
0.0
  0
VERTEX
  5
5AA
  8
0
  6
BYBLOCK
 62
     0
 10
267.9855069335871
 20
17.88184154355631
 30
0.0
  0
VERTEX
  5
5AB
  8
0
  6
BYBLOCK
 62
     0
 10
267.9722800056479
 20
17.89388326289891
 30
0.0
  0
VERTEX
  5
5AC
  8
0
  6
BYBLOCK
 62
     0
 10
267.9807186908564
 20
17.90592498224151
 30
0.0
  0
VERTEX
  5
5AD
  8
0
  6
BYBLOCK
 62
     0
 10
268.0059873381384
 20
17.92156973571813
 30
0.0
  0
VERTEX
  5
5AE
  8
0
  6
BYBLOCK
 62
     0
 10
268.045762938644
 20
17.96855140449183
 30
0.0
  0
VERTEX
  5
5AF
  8
0
  6
BYBLOCK
 62
     0
 10
268.0626403090612
 20
17.95290665101522
 30
0.0
  0
VERTEX
  5
5B0
  8
0
  6
BYBLOCK
 62
     0
 10
268.0758672370006
 20
17.9372618975386
 30
0.0
  0
VERTEX
  5
5B1
  8
0
  6
BYBLOCK
 62
     0
 10
268.0854911308058
 20
17.92156973571813
 30
0.0
  0
VERTEX
  5
5B2
  8
0
  6
BYBLOCK
 62
     0
 10
268.0927446074177
 20
17.90711019083822
 30
0.0
  0
VERTEX
  5
5B3
  8
0
  6
BYBLOCK
 62
     0
 10
268.0963476415517
 20
17.89265064595833
 30
0.0
  0
VERTEX
  5
5B4
  8
0
  6
BYBLOCK
 62
     0
 10
268.098765467089
 20
17.87700589248172
 30
0.0
  0
VERTEX
  5
5B5
  8
0
  6
BYBLOCK
 62
     0
 10
268.098765467089
 20
17.8613611390051
 30
0.0
  0
VERTEX
  5
5B6
  8
0
  6
BYBLOCK
 62
     0
 10
268.0975328501485
 20
17.84566897718462
 30
0.0
  0
VERTEX
  5
5B7
  8
0
  6
BYBLOCK
 62
     0
 10
268.1096219778349
 20
17.83727770031989
 30
0.0
  0
VERTEX
  5
5B8
  8
0
  6
BYBLOCK
 62
     0
 10
268.1096219778349
 20
17.8613611390051
 30
0.0
  0
VERTEX
  5
5B9
  8
0
  6
BYBLOCK
 62
     0
 10
268.1348906251168
 20
17.86496417313911
 30
0.0
  0
VERTEX
  5
5BA
  8
0
  6
BYBLOCK
 62
     0
 10
268.166227540414
 20
17.84206594305061
 30
0.0
  0
VERTEX
  5
5BB
  8
0
  6
BYBLOCK
 62
     0
 10
268.1011832926263
 20
17.66381057010498
 30
0.0
  0
VERTEX
  5
5BC
  8
0
  6
BYBLOCK
 62
     0
 10
268.0818880966718
 20
17.65655709349309
 30
0.0
  0
SEQEND
  5
5DE
  8
0
  6
BYBLOCK
 62
     0
  0
ENDSEC
  0
EOF
