  0
SECTION
  2
HEADER
  9
$ACADVER
  1
AC1009
  9
$DWGCODEPAGE
  3
ansi_1252
  9
$INSBASE
 10
23.72013644428959
 20
17.93397574237074
 30
0.0
  9
$EXTMIN
 10
23.2002126088079
 20
17.93397574
 30
0.0
  9
$EXTMAX
 10
24.16520090942597
 20
19.20994216704014
 30
0.0
  9
$LIMMIN
 10
-0.0070710678118655
 20
-0.0070710678118655
  9
$LIMMAX
 10
29.70707106781186
 20
21.00707106781186
  9
$ORTHOMODE
 70
     0
  9
$REGENMODE
 70
     1
  9
$FILLMODE
 70
     1
  9
$QTEXTMODE
 70
     0
  9
$MIRRTEXT
 70
     1
  9
$DRAGMODE
 70
     2
  9
$LTSCALE
 40
1.0
  9
$OSMODE
 70
    37
  9
$ATTMODE
 70
     1
  9
$TEXTSIZE
 40
0.3
  9
$TRACEWID
 40
0.05
  9
$TEXTSTYLE
  7
STANDARD
  9
$CLAYER
  8
0
  9
$CELTYPE
  6
BYLAYER
  9
$CECOLOR
 62
   256
  9
$DIMSCALE
 40
1.0
  9
$DIMASZ
 40
0.1000000014901161
  9
$DIMEXO
 40
0.0625
  9
$DIMDLI
 40
0.38
  9
$DIMRND
 40
0.0
  9
$DIMDLE
 40
0.1000000014901161
  9
$DIMEXE
 40
0.1000000014901161
  9
$DIMTP
 40
0.0
  9
$DIMTM
 40
0.0
  9
$DIMTXT
 40
0.2000000029802322
  9
$DIMCEN
 40
0.09
  9
$DIMTSZ
 40
0.0
  9
$DIMTOL
 70
     0
  9
$DIMLIM
 70
     0
  9
$DIMTIH
 70
     0
  9
$DIMTOH
 70
     1
  9
$DIMSE1
 70
     0
  9
$DIMSE2
 70
     0
  9
$DIMTAD
 70
     0
  9
$DIMZIN
 70
     0
  9
$DIMBLK
  1

  9
$DIMASO
 70
     1
  9
$DIMSHO
 70
     1
  9
$DIMPOST
  1

  9
$DIMAPOST
  1

  9
$DIMALT
 70
     0
  9
$DIMALTD
 70
     2
  9
$DIMALTF
 40
25.39999999999999
  9
$DIMLFAC
 40
1.0
  9
$DIMTOFL
 70
     0
  9
$DIMTVP
 40
0.0
  9
$DIMTIX
 70
     1
  9
$DIMSOXD
 70
     0
  9
$DIMSAH
 70
     0
  9
$DIMBLK1
  1

  9
$DIMBLK2
  1

  9
$DIMSTYLE
  2
STANDARD
  9
$DIMCLRD
 70
     0
  9
$DIMCLRE
 70
     0
  9
$DIMCLRT
 70
     0
  9
$DIMTFAC
 40
1.0
  9
$DIMGAP
 40
0.09
  9
$LUNITS
 70
     2
  9
$LUPREC
 70
     2
  9
$SKETCHINC
 40
0.1
  9
$FILLETRAD
 40
0.0
  9
$AUNITS
 70
     0
  9
$AUPREC
 70
     4
  9
$MENU
  1
ART90A20
  9
$ELEVATION
 40
0.0
  9
$PELEVATION
 40
0.0
  9
$THICKNESS
 40
0.0
  9
$LIMCHECK
 70
     0
  9
$CHAMFERA
 40
0.05
  9
$CHAMFERB
 40
0.1
  9
$SKPOLY
 70
     0
  9
$TDCREATE
 40
2449461.615165509
  9
$TDUPDATE
 40
2457483.532418982
  9
$TDINDWG
 40
0.0012826852
  9
$TDUSRTIMER
 40
0.0012826852
  9
$USRTIMER
 70
     1
  9
$ANGBASE
 50
0.0
  9
$ANGDIR
 70
     0
  9
$PDMODE
 70
    34
  9
$PDSIZE
 40
0.2000000029802322
  9
$PLINEWID
 40
0.0
  9
$COORDS
 70
     1
  9
$SPLFRAME
 70
     0
  9
$SPLINETYPE
 70
     6
  9
$SPLINESEGS
 70
     8
  9
$ATTDIA
 70
     0
  9
$ATTREQ
 70
     1
  9
$HANDLING
 70
     1
  9
$HANDSEED
  5
601A03
  9
$SURFTAB1
 70
    12
  9
$SURFTAB2
 70
     6
  9
$SURFTYPE
 70
     6
  9
$SURFU
 70
     6
  9
$SURFV
 70
     6
  9
$UCSNAME
  2

  9
$UCSORG
 10
0.0
 20
0.0
 30
0.0
  9
$UCSXDIR
 10
1.0
 20
0.0
 30
0.0
  9
$UCSYDIR
 10
0.0
 20
1.0
 30
0.0
  9
$PUCSNAME
  2

  9
$PUCSORG
 10
0.0
 20
0.0
 30
0.0
  9
$PUCSXDIR
 10
1.0
 20
0.0
 30
0.0
  9
$PUCSYDIR
 10
0.0
 20
1.0
 30
0.0
  9
$USERI1
 70
     3
  9
$USERI2
 70
     0
  9
$USERI3
 70
     0
  9
$USERI4
 70
     0
  9
$USERI5
 70
     0
  9
$USERR1
 40
1.0
  9
$USERR2
 40
0.0
  9
$USERR3
 40
0.0
  9
$USERR4
 40
0.0
  9
$USERR5
 40
0.0
  9
$WORLDVIEW
 70
     1
  9
$SHADEDGE
 70
     1
  9
$SHADEDIF
 70
    70
  9
$TILEMODE
 70
     1
  9
$MAXACTVP
 70
    16
  9
$PLIMCHECK
 70
     0
  9
$PEXTMIN
 10
1.000000000000000E+20
 20
1.000000000000000E+20
 30
1.000000000000000E+20
  9
$PEXTMAX
 10
-1.000000000000000E+20
 20
-1.000000000000000E+20
 30
-1.000000000000000E+20
  9
$PLIMMIN
 10
0.0
 20
0.0
  9
$PLIMMAX
 10
12.0
 20
9.0
  9
$UNITMODE
 70
     0
  9
$VISRETAIN
 70
     0
  9
$PLINEGEN
 70
     0
  9
$PSLTSCALE
 70
     0
  0
ENDSEC
  0
SECTION
  2
TABLES
  0
TABLE
  2
VPORT
 70
     1
  0
VPORT
  2
*ACTIVE
 70
     0
 10
0.0
 20
0.0
 11
1.0
 21
1.0
 12
23.68000066068978
 22
18.71257249995066
 13
0.0
 23
0.0
 14
1.0
 24
1.0
 15
1.0
 25
1.0
 16
0.0
 26
0.0
 36
1.0
 17
0.0
 27
0.0
 37
0.0
 40
1.593468464962074
 41
1.503537735849056
 42
50.0
 43
0.0
 44
0.0
 50
0.0
 51
0.0
 71
     0
 72
   100
 73
     1
 74
     1
 75
     0
 76
     0
 77
     0
 78
     0
  0
ENDTAB
  0
TABLE
  2
LTYPE
 70
     1
  0
LTYPE
  2
CONTINUOUS
 70
     0
  3
Solid line
 72
    65
 73
     0
 40
0.0
  0
ENDTAB
  0
TABLE
  2
LAYER
 70
     2
  0
LAYER
  2
0
 70
     0
 62
     7
  6
CONTINUOUS
  0
LAYER
  2
CONTORXXNP----00
 70
     0
 62
   255
  6
CONTINUOUS
  0
ENDTAB
  0
TABLE
  2
STYLE
 70
     1
  0
STYLE
  2
STANDARD
 70
     0
 40
0.0
 41
1.0
 50
0.0
 71
     0
 42
0.3
  3
txt8
  4

  0
ENDTAB
  0
TABLE
  2
VIEW
 70
     0
  0
ENDTAB
  0
TABLE
  2
UCS
 70
     0
  0
ENDTAB
  0
TABLE
  2
APPID
 70
     2
  0
APPID
  2
ACAD
 70
     0
  0
APPID
  2
DCO15
 70
     0
  0
ENDTAB
  0
TABLE
  2
DIMSTYLE
 70
     1
  0
DIMSTYLE
  2
STANDARD
 70
     0
  3

  4

  5

  6

  7

 40
1.0
 41
0.18
 42
0.0625
 43
0.38
 44
0.18
 45
0.0
 46
0.0
 47
0.0
 48
0.0
140
0.18
141
0.09
142
0.0
143
25.4
144
1.0
145
0.0
146
1.0
147
0.09
 71
     0
 72
     0
 73
     1
 74
     1
 75
     0
 76
     0
 77
     0
 78
     0
170
     0
171
     2
172
     0
173
     0
174
     0
175
     0
176
     0
177
     0
178
     0
  0
ENDTAB
  0
ENDSEC
  0
SECTION
  2
BLOCKS
  0
BLOCK
  8
0
  2
$MODEL_SPACE
 70
     0
 10
0.0
 20
0.0
 30
0.0
  3
$MODEL_SPACE
  1

  0
ENDBLK
  5
6018B3
  8
0
  0
BLOCK
 67
     1
  8
0
  2
$PAPER_SPACE
 70
     0
 10
0.0
 20
0.0
 30
0.0
  3
$PAPER_SPACE
  1

  0
ENDBLK
  5
6018B1
 67
     1
  8
0
  0
ENDSEC
  0
SECTION
  2
ENTITIES
  0
POLYLINE
  5
60132F
  8
CONTORXXNP----00
 66
     1
 10
0.0
 20
0.0
 30
0.0
 70
     1
  0
VERTEX
  5
601941
  8
CONTORXXNP----00
 10
23.47736462478547
 20
18.47647241786315
 30
0.0
 42
0.0037545189291598
  0
VERTEX
  5
601942
  8
CONTORXXNP----00
 10
23.53059118190466
 20
18.47975761687135
 30
0.0
 42
0.1001739223728068
  0
VERTEX
  5
601943
  8
CONTORXXNP----00
 10
23.55740615944523
 20
18.48714521700061
 30
0.0
 42
-0.0932691164350378
  0
VERTEX
  5
601944
  8
CONTORXXNP----00
 10
23.62325682941125
 20
18.49379240747133
 30
0.0
 42
-0.0487392402992047
  0
VERTEX
  5
601945
  8
CONTORXXNP----00
 10
23.64825644938549
 20
18.50141092759506
 30
0.0
 42
-0.0413128998460579
  0
VERTEX
  5
601946
  8
CONTORXXNP----00
 10
23.70027342009189
 20
18.50933964896678
 30
0.0
 42
0.0021688225497024
  0
VERTEX
  5
601947
  8
CONTORXXNP----00
 10
23.69807348379573
 20
18.51992196605806
 30
0.0
 42
-0.0373741722848493
  0
VERTEX
  5
601948
  8
CONTORXXNP----00
 10
23.91607246259867
 20
18.55628812479921
 30
0.0
 42
0.2212048139528143
  0
VERTEX
  5
601949
  8
CONTORXXNP----00
 10
23.93013583098194
 20
18.58240609776608
 30
0.0
 42
0.000762983645843
  0
VERTEX
  5
60194A
  8
CONTORXXNP----00
 10
23.92980499793536
 20
18.5844232840397
 30
0.0
 42
-0.0247561014314423
  0
VERTEX
  5
60194B
  8
CONTORXXNP----00
 10
23.80525409699043
 20
18.59485982348305
 30
0.0
 42
0.1214196178451989
  0
VERTEX
  5
60194C
  8
CONTORXXNP----00
 10
23.72811860779936
 20
18.58645324402561
 30
0.0
 42
-0.2694627815305473
  0
VERTEX
  5
60194D
  8
CONTORXXNP----00
 10
23.70427364359398
 20
18.59069899122634
 30
0.0
 42
0.0678279783502884
  0
VERTEX
  5
60194E
  8
CONTORXXNP----00
 10
23.67932553157838
 20
18.58730239346576
 30
0.0
 42
-0.0366350418766752
  0
VERTEX
  5
60194F
  8
CONTORXXNP----00
 10
23.65938401347068
 20
18.58331139109707
 30
0.0
 42
-0.5586753438456746
  0
VERTEX
  5
601950
  8
CONTORXXNP----00
 10
23.65454713461051
 20
18.5893403521221
 30
0.0
 42
-0.1546298406323279
  0
VERTEX
  5
601951
  8
CONTORXXNP----00
 10
23.72811860779936
 20
18.62007956185537
 30
0.0
 42
-0.1392408990084596
  0
VERTEX
  5
601952
  8
CONTORXXNP----00
 10
23.76163732972507
 20
18.61371094105428
 30
0.0
 42
0.2268154206023305
  0
VERTEX
  5
601953
  8
CONTORXXNP----00
 10
23.79396804631671
 20
18.61311653644617
 30
0.0
 42
0.0703240745701155
  0
VERTEX
  5
601954
  8
CONTORXXNP----00
 10
23.9221398551262
 20
18.62347837881249
 30
0.0
 42
0.0525321666460739
  0
VERTEX
  5
601955
  8
CONTORXXNP----00
 10
23.87686050529248
 20
18.75632748075493
 30
0.0
 42
-0.3082012058476618
  0
VERTEX
  5
601956
  8
CONTORXXNP----00
 10
23.89685748188445
 20
18.84268861991654
 30
0.0
 42
-0.057251335515686
  0
VERTEX
  5
601957
  8
CONTORXXNP----00
 10
23.9856900004561
 20
18.92814677610283
 30
0.0
 42
0.1118261992931056
  0
VERTEX
  5
601958
  8
CONTORXXNP----00
 10
24.01493955253357
 20
18.99482470302682
 30
0.0
 42
0.3153842643435499
  0
VERTEX
  5
601959
  8
CONTORXXNP----00
 10
24.00817239171789
 20
19.00836818286559
 30
0.0
 42
0.0388107158796318
  0
VERTEX
  5
60195A
  8
CONTORXXNP----00
 10
23.9689599393202
 20
19.01653137619307
 30
0.0
 42
-0.6884915465723707
  0
VERTEX
  5
60195B
  8
CONTORXXNP----00
 10
23.96219277850452
 20
19.03397092557451
 30
0.0
 42
0.0778510056669179
  0
VERTEX
  5
60195C
  8
CONTORXXNP----00
 10
23.96766212765692
 20
19.04167030109929
 30
0.0
 42
-0.6749792224681858
  0
VERTEX
  5
60195D
  8
CONTORXXNP----00
 10
23.9678475293231
 20
19.04899862238192
 30
0.0
 42
-0.5388458484164284
  0
VERTEX
  5
60195E
  8
CONTORXXNP----00
 10
23.96868183682093
 20
19.05641970722508
 30
0.0
 42
0.3432909769452737
  0
VERTEX
  5
60195F
  8
CONTORXXNP----00
 10
23.96451029933181
 20
19.05901708692019
 30
0.0
 42
-0.0622995503220112
  0
VERTEX
  5
601960
  8
CONTORXXNP----00
 10
23.95106867853355
 20
19.05744010639102
 30
0.0
 42
-0.7501742481986067
  0
VERTEX
  5
601961
  8
CONTORXXNP----00
 10
23.94949276437099
 20
19.06300592002339
 30
0.0
 42
-0.0943741415829991
  0
VERTEX
  5
601962
  8
CONTORXXNP----00
 10
23.9700723493173
 20
19.09779225522573
 30
0.0
 42
0.2043322517126669
  0
VERTEX
  5
601963
  8
CONTORXXNP----00
 10
23.9700723493173
 20
19.10725413840076
 30
0.0
 42
-0.5017495256484582
  0
VERTEX
  5
601964
  8
CONTORXXNP----00
 10
23.97081395598203
 20
19.12460092422166
 30
0.0
 42
-0.3806786686343252
  0
VERTEX
  5
601965
  8
CONTORXXNP----00
 10
23.9757509565345
 20
19.1891099084298
 30
0.0
 42
-0.1232441914636224
  0
VERTEX
  5
601966
  8
CONTORXXNP----00
 10
24.02838117333183
 20
19.20632562105701
 30
0.0
 42
-0.1680198358519597
  0
VERTEX
  5
601967
  8
CONTORXXNP----00
 10
24.13266961055972
 20
19.19370977682363
 30
0.0
 42
-0.3954750216988707
  0
VERTEX
  5
601968
  8
CONTORXXNP----00
 10
24.15519591300095
 20
19.12460092422166
 30
0.0
 42
0.2732222594633661
  0
VERTEX
  5
601969
  8
CONTORXXNP----00
 10
24.16075796298644
 20
19.0456591342025
 30
0.0
 42
-0.6696005513421098
  0
VERTEX
  5
60196A
  8
CONTORXXNP----00
 10
24.15491781050168
 20
19.02497286020217
 30
0.0
 42
-0.2039980474510374
  0
VERTEX
  5
60196B
  8
CONTORXXNP----00
 10
24.09540387565696
 20
19.02061297285681
 30
0.0
 42
0.0396267618207084
  0
VERTEX
  5
60196C
  8
CONTORXXNP----00
 10
24.11053097490803
 20
18.97716323890158
 30
0.0
 42
-0.1830185683127443
  0
VERTEX
  5
60196D
  8
CONTORXXNP----00
 10
24.15471323267563
 20
18.80846011963907
 30
0.0
 42
-0.02162315784892
  0
VERTEX
  5
60196E
  8
CONTORXXNP----00
 10
24.13252393604711
 20
18.57992196605806
 30
0.0
 42
0.0849928826917697
  0
VERTEX
  5
60196F
  8
CONTORXXNP----00
 10
24.14238747874014
 20
18.53964479577236
 30
0.0
 42
-0.1744837916109802
  0
VERTEX
  5
601970
  8
CONTORXXNP----00
 10
24.13407144140161
 20
18.3961385403878
 30
0.0
 42
-0.1783049313858776
  0
VERTEX
  5
601971
  8
CONTORXXNP----00
 10
24.084429789942
 20
18.37397574
 30
0.0
  0
VERTEX
  5
601972
  8
CONTORXXNP----00
 10
23.72013644
 20
18.37397574
 30
0.0
 42
0.0020978741224242
  0
VERTEX
  5
601973
  8
CONTORXXNP----00
 10
23.71914511322464
 20
18.38438362818467
 30
0.0
 42
-0.09057891457779
  0
VERTEX
  5
601974
  8
CONTORXXNP----00
 10
23.66310122010162
 20
18.37986779830118
 30
0.0
 42
-0.0737038348776337
  0
VERTEX
  5
601975
  8
CONTORXXNP----00
 10
23.69587073872447
 20
18.28117449311311
 30
0.0
 42
-0.1264191308096101
  0
VERTEX
  5
601976
  8
CONTORXXNP----00
 10
23.68210489088537
 20
18.10519489554356
 30
0.0
 42
0.3507692049779682
  0
VERTEX
  5
601977
  8
CONTORXXNP----00
 10
23.68896475253413
 20
18.08617836563295
 30
0.0
 42
-0.3172493252848442
  0
VERTEX
  5
601978
  8
CONTORXXNP----00
 10
23.67339101257477
 20
17.98766346433994
 30
0.0
 42
0.215294613492357
  0
VERTEX
  5
601979
  8
CONTORXXNP----00
 10
23.66829246675474
 20
17.93397574
 30
0.0
  0
VERTEX
  5
60197A
  8
CONTORXXNP----00
 10
23.64607160504836
 20
17.93397574
 30
0.0
 42
-0.0703283954457452
  0
VERTEX
  5
60197B
  8
CONTORXXNP----00
 10
23.63276193013899
 20
17.9839057995905
 30
0.0
 42
-0.1250995178748692
  0
VERTEX
  5
60197C
  8
CONTORXXNP----00
 10
23.45928306100107
 20
17.9345416666397
 30
0.0
 42
-0.5842372594270794
  0
VERTEX
  5
60197D
  8
CONTORXXNP----00
 10
23.44925832713317
 20
17.95120418683205
 30
0.0
 42
0.0816798495078514
  0
VERTEX
  5
60197E
  8
CONTORXXNP----00
 10
23.48731833368252
 20
17.97325085470559
 30
0.0
 42
-0.1337179453618942
  0
VERTEX
  5
60197F
  8
CONTORXXNP----00
 10
23.51999783335362
 20
17.98792974154171
 30
0.0
 42
0.1777760859617844
  0
VERTEX
  5
601980
  8
CONTORXXNP----00
 10
23.53800837216715
 20
17.99796125880036
 30
0.0
 42
0.0074243945293521
  0
VERTEX
  5
601981
  8
CONTORXXNP----00
 10
23.56321483878883
 20
18.00954733583026
 30
0.0
 42
0.1875879891279954
  0
VERTEX
  5
601982
  8
CONTORXXNP----00
 10
23.60093198418551
 20
18.09306230942198
 30
0.0
 42
0.0809560054404615
  0
VERTEX
  5
601983
  8
CONTORXXNP----00
 10
23.57249800082273
 20
18.35476809042937
 30
0.0
 42
0.0088920491722881
  0
VERTEX
  5
601984
  8
CONTORXXNP----00
 10
23.56424418859735
 20
18.38267469554076
 30
0.0
 42
-0.0121031610226792
  0
VERTEX
  5
601985
  8
CONTORXXNP----00
 10
23.547411361921
 20
18.37930377916503
 30
0.0
 42
-0.1264191308096101
  0
VERTEX
  5
601986
  8
CONTORXXNP----00
 10
23.37143176435145
 20
18.39306962700413
 30
0.0
 42
0.3507692049779682
  0
VERTEX
  5
601987
  8
CONTORXXNP----00
 10
23.35241523444084
 20
18.38620976535536
 30
0.0
 42
-0.3172493252848442
  0
VERTEX
  5
601988
  8
CONTORXXNP----00
 10
23.25390033314783
 20
18.40178350531473
 30
0.0
 42
0.215294613492357
  0
VERTEX
  5
601989
  8
CONTORXXNP----00
 10
23.2002126088079
 20
18.40688205113475
 30
0.0
  0
VERTEX
  5
60198A
  8
CONTORXXNP----00
 10
23.2002126088079
 20
18.42910291284113
 30
0.0
 42
-0.0703283954457452
  0
VERTEX
  5
60198B
  8
CONTORXXNP----00
 10
23.25014266839839
 20
18.4424125877505
 30
0.0
 42
-0.1250995178748692
  0
VERTEX
  5
60198C
  8
CONTORXXNP----00
 10
23.2007785354476
 20
18.61589145688842
 30
0.0
 42
-0.5842372594270794
  0
VERTEX
  5
60198D
  8
CONTORXXNP----00
 10
23.21744105563994
 20
18.62591619075633
 30
0.0
 42
0.0816798495078514
  0
VERTEX
  5
60198E
  8
CONTORXXNP----00
 10
23.23948772351349
 20
18.58785618420697
 30
0.0
 42
-0.1337179453618942
  0
VERTEX
  5
60198F
  8
CONTORXXNP----00
 10
23.2541666103496
 20
18.55517668453587
 30
0.0
 42
0.1777760859617844
  0
VERTEX
  5
601990
  8
CONTORXXNP----00
 10
23.26419812760826
 20
18.53716614572234
 30
0.0
 42
0.0074243945293521
  0
VERTEX
  5
601991
  8
CONTORXXNP----00
 10
23.27578420463816
 20
18.51195967910066
 30
0.0
 42
0.1875879891279954
  0
VERTEX
  5
601992
  8
CONTORXXNP----00
 10
23.35929917822988
 20
18.47424253370398
 30
0.0
 42
0.0361257685097488
  0
SEQEND
  5
6019FB
  8
CONTORXXNP----00
  0
POLYLINE
  5
6012DB
  8
0
 62
     0
 66
     1
 10
0.0
 20
0.0
 30
0.0
 70
     1
  0
VERTEX
  5
601993
  8
0
 62
     0
 10
23.47736462478547
 20
18.47647241786315
 30
0.0
 42
0.0037545189291598
  0
VERTEX
  5
601994
  8
0
 62
     0
 10
23.53059118190466
 20
18.47975761687135
 30
0.0
 42
0.1001739223728068
  0
VERTEX
  5
601995
  8
0
 62
     0
 10
23.55740615944523
 20
18.48714521700061
 30
0.0
 42
-0.0932691164350378
  0
VERTEX
  5
601996
  8
0
 62
     0
 10
23.62325682941125
 20
18.49379240747133
 30
0.0
 42
-0.0487392402992047
  0
VERTEX
  5
601997
  8
0
 62
     0
 10
23.64825644938549
 20
18.50141092759506
 30
0.0
 42
-0.0413128998460579
  0
VERTEX
  5
601998
  8
0
 62
     0
 10
23.70027342009189
 20
18.50933964896678
 30
0.0
 42
0.0021688225497024
  0
VERTEX
  5
601999
  8
0
 62
     0
 10
23.69807348379573
 20
18.51992196605806
 30
0.0
 42
-0.0373741722848493
  0
VERTEX
  5
60199A
  8
0
 62
     0
 10
23.91607246259867
 20
18.55628812479921
 30
0.0
 42
0.2212048139528143
  0
VERTEX
  5
60199B
  8
0
 62
     0
 10
23.93013583098194
 20
18.58240609776608
 30
0.0
 42
0.000762983645843
  0
VERTEX
  5
60199C
  8
0
 62
     0
 10
23.92980499793536
 20
18.5844232840397
 30
0.0
 42
-0.0247561014314423
  0
VERTEX
  5
60199D
  8
0
 62
     0
 10
23.80525409699043
 20
18.59485982348305
 30
0.0
 42
0.1214196178451989
  0
VERTEX
  5
60199E
  8
0
 62
     0
 10
23.72811860779936
 20
18.58645324402561
 30
0.0
 42
-0.2694627815305473
  0
VERTEX
  5
60199F
  8
0
 62
     0
 10
23.70427364359398
 20
18.59069899122634
 30
0.0
 42
0.0678279783502884
  0
VERTEX
  5
6019A0
  8
0
 62
     0
 10
23.67932553157838
 20
18.58730239346576
 30
0.0
 42
-0.0366350418766752
  0
VERTEX
  5
6019A1
  8
0
 62
     0
 10
23.65938401347068
 20
18.58331139109707
 30
0.0
 42
-0.5586753438456746
  0
VERTEX
  5
6019A2
  8
0
 62
     0
 10
23.65454713461051
 20
18.5893403521221
 30
0.0
 42
-0.1546298406323279
  0
VERTEX
  5
6019A3
  8
0
 62
     0
 10
23.72811860779936
 20
18.62007956185537
 30
0.0
 42
-0.1392408990084596
  0
VERTEX
  5
6019A4
  8
0
 62
     0
 10
23.76163732972507
 20
18.61371094105428
 30
0.0
 42
0.2268154206023305
  0
VERTEX
  5
6019A5
  8
0
 62
     0
 10
23.79396804631671
 20
18.61311653644617
 30
0.0
 42
0.0703240745701155
  0
VERTEX
  5
6019A6
  8
0
 62
     0
 10
23.9221398551262
 20
18.62347837881249
 30
0.0
 42
0.0525321666460739
  0
VERTEX
  5
6019A7
  8
0
 62
     0
 10
23.87686050529248
 20
18.75632748075493
 30
0.0
 42
-0.3082012058476618
  0
VERTEX
  5
6019A8
  8
0
 62
     0
 10
23.89685748188445
 20
18.84268861991654
 30
0.0
 42
-0.057251335515686
  0
VERTEX
  5
6019A9
  8
0
 62
     0
 10
23.9856900004561
 20
18.92814677610283
 30
0.0
 42
0.1118261992931056
  0
VERTEX
  5
6019AA
  8
0
 62
     0
 10
24.01493955253357
 20
18.99482470302682
 30
0.0
 42
0.3153842643435499
  0
VERTEX
  5
6019AB
  8
0
 62
     0
 10
24.00817239171789
 20
19.00836818286559
 30
0.0
 42
0.0388107158796318
  0
VERTEX
  5
6019AC
  8
0
 62
     0
 10
23.9689599393202
 20
19.01653137619307
 30
0.0
 42
-0.6884915465723707
  0
VERTEX
  5
6019AD
  8
0
 62
     0
 10
23.96219277850452
 20
19.03397092557451
 30
0.0
 42
0.0778510056669179
  0
VERTEX
  5
6019AE
  8
0
 62
     0
 10
23.96766212765692
 20
19.04167030109929
 30
0.0
 42
-0.6749792224681858
  0
VERTEX
  5
6019AF
  8
0
 62
     0
 10
23.9678475293231
 20
19.04899862238192
 30
0.0
 42
-0.5388458484164284
  0
VERTEX
  5
6019B0
  8
0
 62
     0
 10
23.96868183682093
 20
19.05641970722508
 30
0.0
 42
0.3432909769452737
  0
VERTEX
  5
6019B1
  8
0
 62
     0
 10
23.96451029933181
 20
19.05901708692019
 30
0.0
 42
-0.0622995503220112
  0
VERTEX
  5
6019B2
  8
0
 62
     0
 10
23.95106867853355
 20
19.05744010639102
 30
0.0
 42
-0.7501742481986067
  0
VERTEX
  5
6019B3
  8
0
 62
     0
 10
23.94949276437099
 20
19.06300592002339
 30
0.0
 42
-0.0943741415829991
  0
VERTEX
  5
6019B4
  8
0
 62
     0
 10
23.9700723493173
 20
19.09779225522573
 30
0.0
 42
0.2043322517126669
  0
VERTEX
  5
6019B5
  8
0
 62
     0
 10
23.9700723493173
 20
19.10725413840076
 30
0.0
 42
-0.5017495256484582
  0
VERTEX
  5
6019B6
  8
0
 62
     0
 10
23.97081395598203
 20
19.12460092422166
 30
0.0
 42
-0.3806786686343252
  0
VERTEX
  5
6019B7
  8
0
 62
     0
 10
23.9757509565345
 20
19.1891099084298
 30
0.0
 42
-0.1232441914636224
  0
VERTEX
  5
6019B8
  8
0
 62
     0
 10
24.02838117333183
 20
19.20632562105701
 30
0.0
 42
-0.1680198358519597
  0
VERTEX
  5
6019B9
  8
0
 62
     0
 10
24.13266961055972
 20
19.19370977682363
 30
0.0
 42
-0.3954750216988707
  0
VERTEX
  5
6019BA
  8
0
 62
     0
 10
24.15519591300095
 20
19.12460092422166
 30
0.0
 42
0.2732222594633661
  0
VERTEX
  5
6019BB
  8
0
 62
     0
 10
24.16075796298644
 20
19.0456591342025
 30
0.0
 42
-0.6696005513421098
  0
VERTEX
  5
6019BC
  8
0
 62
     0
 10
24.15491781050168
 20
19.02497286020217
 30
0.0
 42
-0.2039980474510374
  0
VERTEX
  5
6019BD
  8
0
 62
     0
 10
24.09540387565696
 20
19.02061297285681
 30
0.0
 42
0.0396267618207084
  0
VERTEX
  5
6019BE
  8
0
 62
     0
 10
24.11053097490803
 20
18.97716323890158
 30
0.0
 42
-0.1830185683127443
  0
VERTEX
  5
6019BF
  8
0
 62
     0
 10
24.15471323267563
 20
18.80846011963907
 30
0.0
 42
-0.02162315784892
  0
VERTEX
  5
6019C0
  8
0
 62
     0
 10
24.13252393604711
 20
18.57992196605806
 30
0.0
 42
0.0849928826917697
  0
VERTEX
  5
6019C1
  8
0
 62
     0
 10
24.14238747874014
 20
18.53964479577236
 30
0.0
 42
-0.1744837916109802
  0
VERTEX
  5
6019C2
  8
0
 62
     0
 10
24.13407144140161
 20
18.3961385403878
 30
0.0
 42
-0.1783049313858776
  0
VERTEX
  5
6019C3
  8
0
 62
     0
 10
24.084429789942
 20
18.37397574
 30
0.0
  0
VERTEX
  5
6019C4
  8
0
 62
     0
 10
23.72013644
 20
18.37397574
 30
0.0
 42
0.0020978741224242
  0
VERTEX
  5
6019C5
  8
0
 62
     0
 10
23.71914511322464
 20
18.38438362818467
 30
0.0
 42
-0.09057891457779
  0
VERTEX
  5
6019C6
  8
0
 62
     0
 10
23.66310122010162
 20
18.37986779830118
 30
0.0
 42
-0.0737038348776337
  0
VERTEX
  5
6019C7
  8
0
 62
     0
 10
23.69587073872447
 20
18.28117449311311
 30
0.0
 42
-0.1264191308096101
  0
VERTEX
  5
6019C8
  8
0
 62
     0
 10
23.68210489088537
 20
18.10519489554356
 30
0.0
 42
0.3507692049779682
  0
VERTEX
  5
6019C9
  8
0
 62
     0
 10
23.68896475253413
 20
18.08617836563295
 30
0.0
 42
-0.3172493252848442
  0
VERTEX
  5
6019CA
  8
0
 62
     0
 10
23.67339101257477
 20
17.98766346433994
 30
0.0
 42
0.215294613492357
  0
VERTEX
  5
6019CB
  8
0
 62
     0
 10
23.66829246675474
 20
17.93397574
 30
0.0
  0
VERTEX
  5
6019CC
  8
0
 62
     0
 10
23.64607160504836
 20
17.93397574
 30
0.0
 42
-0.0703283954457452
  0
VERTEX
  5
6019CD
  8
0
 62
     0
 10
23.63276193013899
 20
17.9839057995905
 30
0.0
 42
-0.1250995178748692
  0
VERTEX
  5
6019CE
  8
0
 62
     0
 10
23.45928306100107
 20
17.9345416666397
 30
0.0
 42
-0.5842372594270794
  0
VERTEX
  5
6019CF
  8
0
 62
     0
 10
23.44925832713317
 20
17.95120418683205
 30
0.0
 42
0.0816798495078514
  0
VERTEX
  5
6019D0
  8
0
 62
     0
 10
23.48731833368252
 20
17.97325085470559
 30
0.0
 42
-0.1337179453618942
  0
VERTEX
  5
6019D1
  8
0
 62
     0
 10
23.51999783335362
 20
17.98792974154171
 30
0.0
 42
0.1777760859617844
  0
VERTEX
  5
6019D2
  8
0
 62
     0
 10
23.53800837216715
 20
17.99796125880036
 30
0.0
 42
0.0074243945293521
  0
VERTEX
  5
6019D3
  8
0
 62
     0
 10
23.56321483878883
 20
18.00954733583026
 30
0.0
 42
0.1875879891279954
  0
VERTEX
  5
6019D4
  8
0
 62
     0
 10
23.60093198418551
 20
18.09306230942198
 30
0.0
 42
0.0809560054404615
  0
VERTEX
  5
6019D5
  8
0
 62
     0
 10
23.57249800082273
 20
18.35476809042937
 30
0.0
 42
0.0088920491722881
  0
VERTEX
  5
6019D6
  8
0
 62
     0
 10
23.56424418859735
 20
18.38267469554076
 30
0.0
 42
-0.0121031610226792
  0
VERTEX
  5
6019D7
  8
0
 62
     0
 10
23.547411361921
 20
18.37930377916503
 30
0.0
 42
-0.1264191308096101
  0
VERTEX
  5
6019D8
  8
0
 62
     0
 10
23.37143176435145
 20
18.39306962700413
 30
0.0
 42
0.3507692049779682
  0
VERTEX
  5
6019D9
  8
0
 62
     0
 10
23.35241523444084
 20
18.38620976535536
 30
0.0
 42
-0.3172493252848442
  0
VERTEX
  5
6019DA
  8
0
 62
     0
 10
23.25390033314783
 20
18.40178350531473
 30
0.0
 42
0.215294613492357
  0
VERTEX
  5
6019DB
  8
0
 62
     0
 10
23.2002126088079
 20
18.40688205113475
 30
0.0
  0
VERTEX
  5
6019DC
  8
0
 62
     0
 10
23.2002126088079
 20
18.42910291284113
 30
0.0
 42
-0.0703283954457452
  0
VERTEX
  5
6019DD
  8
0
 62
     0
 10
23.25014266839839
 20
18.4424125877505
 30
0.0
 42
-0.1250995178748692
  0
VERTEX
  5
6019DE
  8
0
 62
     0
 10
23.2007785354476
 20
18.61589145688842
 30
0.0
 42
-0.5842372594270794
  0
VERTEX
  5
6019DF
  8
0
 62
     0
 10
23.21744105563994
 20
18.62591619075633
 30
0.0
 42
0.0816798495078514
  0
VERTEX
  5
6019E0
  8
0
 62
     0
 10
23.23948772351349
 20
18.58785618420697
 30
0.0
 42
-0.1337179453618942
  0
VERTEX
  5
6019E1
  8
0
 62
     0
 10
23.2541666103496
 20
18.55517668453587
 30
0.0
 42
0.1777760859617844
  0
VERTEX
  5
6019E2
  8
0
 62
     0
 10
23.26419812760826
 20
18.53716614572234
 30
0.0
 42
0.0074243945293521
  0
VERTEX
  5
6019E3
  8
0
 62
     0
 10
23.27578420463816
 20
18.51195967910066
 30
0.0
 42
0.1875879891279954
  0
VERTEX
  5
6019E4
  8
0
 62
     0
 10
23.35929917822988
 20
18.47424253370398
 30
0.0
 42
0.0361257685097488
  0
SEQEND
  5
6019FC
  8
0
 62
     0
  0
POLYLINE
  5
6012D5
  8
0
 62
     0
 66
     1
 10
0.0
 20
0.0
 30
0.0
  0
VERTEX
  5
6019E5
  8
0
 62
     0
 10
24.08173050277597
 20
18.91575376182439
 30
0.0
 42
-0.2586138082439272
  0
VERTEX
  5
6019E6
  8
0
 62
     0
 10
24.10787213770776
 20
18.68286239895516
 30
0.0
  0
VERTEX
  5
6019E7
  8
0
 62
     0
 10
24.00293479464822
 20
18.6860163600135
 30
0.0
 42
-0.0899893567877261
  0
VERTEX
  5
6019E8
  8
0
 62
     0
 10
24.00145158131876
 20
18.87210006245585
 30
0.0
 42
-1.102246646494375
  0
SEQEND
  5
6019FD
  8
0
 62
     0
  0
POLYLINE
  5
6012D1
  8
0
 62
     0
 66
     1
 10
0.0
 20
0.0
 30
0.0
  0
VERTEX
  5
6019E9
  8
0
 62
     0
 10
23.71914511322464
 20
18.38438362818467
 30
0.0
 42
0.0253739330096978
  0
VERTEX
  5
6019EA
  8
0
 62
     0
 10
23.70027342009189
 20
18.50933964896678
 30
0.0
 42
-0.0373741722848493
  0
SEQEND
  5
6019FE
  8
0
 62
     0
  0
POLYLINE
  5
6012CA
  8
0
 62
     0
 66
     1
 10
0.0
 20
0.0
 30
0.0
  0
VERTEX
  5
6019EB
  8
0
 62
     0
 10
23.56424418859735
 20
18.38267469554076
 30
0.0
 42
0.0013258678513191
  0
VERTEX
  5
6019EC
  8
0
 62
     0
 10
23.56292861455066
 20
18.38681007186051
 30
0.0
 42
-0.2844618744513875
  0
VERTEX
  5
6019ED
  8
0
 62
     0
 10
23.56122950711542
 20
18.44036817247876
 30
0.0
 42
0.0330392878050038
  0
VERTEX
  5
6019EE
  8
0
 62
     0
 10
23.56360113150429
 20
18.44519723465744
 30
0.0
 42
-0.1462140221908624
  0
VERTEX
  5
6019EF
  8
0
 62
     0
 10
23.62325682941125
 20
18.49379240747133
 30
0.0
 42
-0.0413128998460579
  0
SEQEND
  5
6019FF
  8
0
 62
     0
  0
POLYLINE
  5
6012C3
  8
0
 62
     0
 66
     1
 10
0.0
 20
0.0
 30
0.0
  0
VERTEX
  5
6019F0
  8
0
 62
     0
 10
24.09826396799691
 20
18.683151178833
 30
0.0
 42
0.2576124261313782
  0
VERTEX
  5
6019F1
  8
0
 62
     0
 10
24.09970970479354
 20
18.6524321555249
 30
0.0
 42
-0.2307860740450734
  0
VERTEX
  5
6019F2
  8
0
 62
     0
 10
24.09970970479354
 20
18.59910557068378
 30
0.0
 42
-0.352471299525522
  0
VERTEX
  5
6019F3
  8
0
 62
     0
 10
24.07586474058816
 20
18.58789679807386
 30
0.0
 42
-0.0289445607548915
  0
VERTEX
  5
6019F4
  8
0
 62
     0
 10
23.92980499793536
 20
18.5844232840397
 30
0.0
 42
0.1214196178451989
  0
SEQEND
  5
601A00
  8
0
 62
     0
  0
POLYLINE
  5
6012BD
  8
0
 62
     0
 66
     1
 10
0.0
 20
0.0
 30
0.0
  0
VERTEX
  5
6019F5
  8
0
 62
     0
 10
23.9221398551262
 20
18.62347837881249
 30
0.0
 42
0.0020638994323886
  0
VERTEX
  5
6019F6
  8
0
 62
     0
 10
23.92583663839914
 20
18.62432530905609
 30
0.0
 42
-0.0632549885310154
  0
VERTEX
  5
6019F7
  8
0
 62
     0
 10
24.0211316376968
 20
18.63417544256178
 30
0.0
 42
-0.2382600314229979
  0
VERTEX
  5
6019F8
  8
0
 62
     0
 10
24.01680706013767
 20
18.6855994199246
 30
0.0
 42
-0.30121157616552
  0
SEQEND
  5
601A01
  8
0
 62
     0
  0
POLYLINE
  5
6012B9
  8
0
 62
     0
 66
     1
 10
0.0
 20
0.0
 30
0.0
  0
VERTEX
  5
6019F9
  8
0
 62
     0
 10
23.9856900004561
 20
18.92814677610282
 30
0.0
 42
-0.0630124530375349
  0
VERTEX
  5
6019FA
  8
0
 62
     0
 10
24.10295214593585
 20
18.99619328899522
 30
0.0
 42
-0.1040476287084477
  0
SEQEND
  5
601A02
  8
0
 62
     0
  0
ENDSEC
  0
EOF
