  0
SECTION
  2
HEADER
  9
$ACADVER
  1
AC1009
  9
$DWGCODEPAGE
  3
ansi_1252
  9
$INSBASE
 10
0.0
 20
0.0
 30
0.0
  9
$EXTMIN
 10
-6.283890091969219
 20
0.8777861600314028
 30
0.0
  9
$EXTMAX
 10
15.80181090803074
 20
63.72220716003137
 30
0.0
  9
$LIMMIN
 10
0.0
 20
0.0
  9
$LIMMAX
 10
12.0
 20
9.0
  9
$ORTHOMODE
 70
     0
  9
$REGENMODE
 70
     1
  9
$FILLMODE
 70
     1
  9
$QTEXTMODE
 70
     0
  9
$MIRRTEXT
 70
     1
  9
$DRAGMODE
 70
     2
  9
$LTSCALE
 40
1.0
  9
$OSMODE
 70
    37
  9
$ATTMODE
 70
     1
  9
$TEXTSIZE
 40
0.7
  9
$TRACEWID
 40
0.05
  9
$TEXTSTYLE
  7
ATTR
  9
$CLAYER
  8
0
  9
$CELTYPE
  6
BYLAYER
  9
$CECOLOR
 62
   256
  9
$DIMSCALE
 40
1.0
  9
$DIMASZ
 40
0.18
  9
$DIMEXO
 40
0.0625
  9
$DIMDLI
 40
0.38
  9
$DIMRND
 40
0.0
  9
$DIMDLE
 40
0.0
  9
$DIMEXE
 40
0.18
  9
$DIMTP
 40
0.0
  9
$DIMTM
 40
0.0
  9
$DIMTXT
 40
0.18
  9
$DIMCEN
 40
0.09
  9
$DIMTSZ
 40
0.0
  9
$DIMTOL
 70
     0
  9
$DIMLIM
 70
     0
  9
$DIMTIH
 70
     1
  9
$DIMTOH
 70
     1
  9
$DIMSE1
 70
     0
  9
$DIMSE2
 70
     0
  9
$DIMTAD
 70
     0
  9
$DIMZIN
 70
     0
  9
$DIMBLK
  1

  9
$DIMASO
 70
     1
  9
$DIMSHO
 70
     1
  9
$DIMPOST
  1

  9
$DIMAPOST
  1

  9
$DIMALT
 70
     0
  9
$DIMALTD
 70
     2
  9
$DIMALTF
 40
25.4
  9
$DIMLFAC
 40
1.0
  9
$DIMTOFL
 70
     0
  9
$DIMTVP
 40
0.0
  9
$DIMTIX
 70
     0
  9
$DIMSOXD
 70
     0
  9
$DIMSAH
 70
     0
  9
$DIMBLK1
  1

  9
$DIMBLK2
  1

  9
$DIMSTYLE
  2
STANDARD
  9
$DIMCLRD
 70
     0
  9
$DIMCLRE
 70
     0
  9
$DIMCLRT
 70
     0
  9
$DIMTFAC
 40
1.0
  9
$DIMGAP
 40
0.09
  9
$LUNITS
 70
     2
  9
$LUPREC
 70
     4
  9
$SKETCHINC
 40
0.1
  9
$FILLETRAD
 40
0.0
  9
$AUNITS
 70
     0
  9
$AUPREC
 70
     0
  9
$MENU
  1
acad
  9
$ELEVATION
 40
0.0
  9
$PELEVATION
 40
0.0
  9
$THICKNESS
 40
0.0
  9
$LIMCHECK
 70
     0
  9
$CHAMFERA
 40
0.0
  9
$CHAMFERB
 40
0.0
  9
$SKPOLY
 70
     0
  9
$TDCREATE
 40
2450138.641227778
  9
$TDUPDATE
 40
2457483.53244213
  9
$TDINDWG
 40
0.0148026273
  9
$TDUSRTIMER
 40
0.0148026273
  9
$USRTIMER
 70
     1
  9
$ANGBASE
 50
0.0
  9
$ANGDIR
 70
     0
  9
$PDMODE
 70
     0
  9
$PDSIZE
 40
0.0
  9
$PLINEWID
 40
0.0
  9
$COORDS
 70
     1
  9
$SPLFRAME
 70
     0
  9
$SPLINETYPE
 70
     6
  9
$SPLINESEGS
 70
     8
  9
$ATTDIA
 70
     0
  9
$ATTREQ
 70
     1
  9
$HANDLING
 70
     1
  9
$HANDSEED
  5
11E
  9
$SURFTAB1
 70
     6
  9
$SURFTAB2
 70
     6
  9
$SURFTYPE
 70
     6
  9
$SURFU
 70
     6
  9
$SURFV
 70
     6
  9
$UCSNAME
  2

  9
$UCSORG
 10
0.0
 20
0.0
 30
0.0
  9
$UCSXDIR
 10
1.0
 20
0.0
 30
0.0
  9
$UCSYDIR
 10
0.0
 20
1.0
 30
0.0
  9
$PUCSNAME
  2

  9
$PUCSORG
 10
0.0
 20
0.0
 30
0.0
  9
$PUCSXDIR
 10
1.0
 20
0.0
 30
0.0
  9
$PUCSYDIR
 10
0.0
 20
1.0
 30
0.0
  9
$USERI1
 70
     0
  9
$USERI2
 70
     0
  9
$USERI3
 70
     0
  9
$USERI4
 70
     0
  9
$USERI5
 70
     0
  9
$USERR1
 40
0.0
  9
$USERR2
 40
0.0
  9
$USERR3
 40
0.0
  9
$USERR4
 40
0.0
  9
$USERR5
 40
0.0
  9
$WORLDVIEW
 70
     1
  9
$SHADEDGE
 70
     3
  9
$SHADEDIF
 70
    70
  9
$TILEMODE
 70
     1
  9
$MAXACTVP
 70
    16
  9
$PLIMCHECK
 70
     0
  9
$PEXTMIN
 10
1.000000000000000E+20
 20
1.000000000000000E+20
 30
1.000000000000000E+20
  9
$PEXTMAX
 10
-1.000000000000000E+20
 20
-1.000000000000000E+20
 30
-1.000000000000000E+20
  9
$PLIMMIN
 10
0.0
 20
0.0
  9
$PLIMMAX
 10
12.0
 20
9.0
  9
$UNITMODE
 70
     0
  9
$VISRETAIN
 70
     0
  9
$PLINEGEN
 70
     0
  9
$PSLTSCALE
 70
     1
  0
ENDSEC
  0
SECTION
  2
TABLES
  0
TABLE
  2
VPORT
 70
     1
  0
VPORT
  2
*ACTIVE
 70
     0
 10
0.0
 20
0.0
 11
1.0
 21
1.0
 12
4.918922027022937
 22
39.49371729312589
 13
0.0
 23
0.0
 14
1.0
 24
1.0
 15
0.0
 25
0.0
 16
0.0
 26
0.0
 36
1.0
 17
0.0
 27
0.0
 37
0.0
 40
78.20277608373343
 41
1.503537735849057
 42
50.0
 43
0.0
 44
0.0
 50
0.0
 51
0.0
 71
     0
 72
   100
 73
     1
 74
     1
 75
     0
 76
     0
 77
     0
 78
     0
  0
ENDTAB
  0
TABLE
  2
LTYPE
 70
     1
  0
LTYPE
  2
CONTINUOUS
 70
     0
  3
Solid line
 72
    65
 73
     0
 40
0.0
  0
ENDTAB
  0
TABLE
  2
LAYER
 70
     1
  0
LAYER
  2
0
 70
     0
 62
     7
  6
CONTINUOUS
  0
ENDTAB
  0
TABLE
  2
STYLE
 70
     2
  0
STYLE
  2
STANDARD
 70
     0
 40
0.0
 41
1.0
 50
0.0
 71
     0
 42
0.2
  3
txt
  4

  0
STYLE
  2
ATTR
 70
     0
 40
0.7
 41
0.8
 50
0.0
 71
     0
 42
0.7
  3
romans.shx
  4

  0
ENDTAB
  0
TABLE
  2
VIEW
 70
     0
  0
ENDTAB
  0
TABLE
  2
UCS
 70
     0
  0
ENDTAB
  0
TABLE
  2
APPID
 70
     2
  0
APPID
  2
ACAD
 70
     0
  0
APPID
  2
DCO15
 70
     0
  0
ENDTAB
  0
TABLE
  2
DIMSTYLE
 70
     1
  0
DIMSTYLE
  2
STANDARD
 70
     0
  3

  4

  5

  6

  7

 40
1.0
 41
0.18
 42
0.0625
 43
0.38
 44
0.18
 45
0.0
 46
0.0
 47
0.0
 48
0.0
140
0.18
141
0.09
142
0.0
143
25.4
144
1.0
145
0.0
146
1.0
147
0.09
 71
     0
 72
     0
 73
     1
 74
     1
 75
     0
 76
     0
 77
     0
 78
     0
170
     0
171
     2
172
     0
173
     0
174
     0
175
     0
176
     0
177
     0
178
     0
  0
ENDTAB
  0
ENDSEC
  0
SECTION
  2
BLOCKS
  0
BLOCK
  8
0
  2
$MODEL_SPACE
 70
     0
 10
0.0
 20
0.0
 30
0.0
  3
$MODEL_SPACE
  1

  0
ENDBLK
  5
20
  8
0
  0
BLOCK
 67
     1
  8
0
  2
$PAPER_SPACE
 70
     0
 10
0.0
 20
0.0
 30
0.0
  3
$PAPER_SPACE
  1

  0
ENDBLK
  5
1E
 67
     1
  8
0
  0
ENDSEC
  0
SECTION
  2
ENTITIES
  0
ARC
  5
23
  8
0
 10
6.8098719080308
 20
61.42780416003137
 30
0.0
 40
2.294403
 50
78.33672
 51
117.0545
  0
ARC
  5
24
  8
0
 10
9.149771908030743
 20
54.11370416003143
 30
0.0
 40
0.9098991
 50
288.535
 51
25.09605
  0
ARC
  5
25
  8
0
 10
9.792771908030772
 20
52.1958041600314
 30
0.0
 40
1.112882
 50
108.5349
 51
167.1391
  0
ARC
  5
26
  8
0
 10
11.17417190803076
 20
55.06180416003139
 30
0.0
 40
1.325499
 50
141.8182
 51
205.096
  0
ARC
  5
27
  8
0
 10
5.59597190803072
 20
59.4485041600314
 30
0.0
 40
5.770947
 50
321.8182
 51
3.270929999999999
  0
LINE
  5
28
  8
0
 10
9.600271908030777
 20
53.32320416003137
 30
0.0
 11
12.27247190803075
 21
52.36920416003142
 31
0.0
  0
ARC
  5
29
  8
0
 10
9.385671908030758
 20
59.66510416003138
 30
0.0
 40
1.975088
 50
3.270929999999999
 51
22.51865
  0
LINE
  5
2A
  8
0
 10
13.82567190803081
 20
46.15560416003137
 30
0.0
 11
13.18177190803078
 21
51.23790416003141
 31
0.0
  0
ARC
  5
2B
  8
0
 10
9.05497190803078
 20
45.55100416003137
 30
0.0
 40
4.808854
 50
358.5915
 51
7.221072
  0
ARC
  5
2C
  8
0
 10
11.80637190803077
 20
51.06360416003139
 30
0.0
 40
1.38632
 50
7.221072
 51
70.35394000000001
  0
LINE
  5
2D
  8
0
 10
1.682771908030759
 20
53.5092041600314
 30
0.0
 11
2.329571908030744
 21
58.58240416003133
 31
0.0
  0
ARC
  5
2E
  8
0
 10
0.689071908030769
 20
53.6360041600314
 30
0.0
 40
1.001769
 50
318.9908
 51
352.7336
  0
LINE
  5
2F
  8
0
 10
5.292971908030722
 20
48.53560416003137
 30
0.0
 11
3.618271908030806
 21
46.75140416003143
 31
0.0
  0
ARC
  5
30
  8
0
 10
2.028571908030699
 20
48.43870416003136
 30
0.0
 40
0.6244215
 50
311.2695
 51
94.99396
  0
ARC
  5
31
  8
0
 10
40.04907190803078
 20
41.93780416003136
 30
0.0
 40
39.04326
 50
169.4458
 51
177.1086
  0
ARC
  5
32
  8
0
 10
2.999871908030741
 20
47.33190416003134
 30
0.0
 40
0.8481447
 50
131.2695
 51
316.8126
  0
ARC
  5
33
  8
0
 10
-0.6343280919692234
 20
43.99260416003136
 30
0.0
 40
1.692046
 50
337.5563
 51
357.1086
  0
ARC
  5
34
  8
0
 10
1.898771908030767
 20
49.92430416003134
 30
0.0
 40
0.8668281999999999
 50
111.5383
 51
274.994
  0
ARC
  5
35
  8
0
 10
1.499271908030778
 20
50.93660416003132
 30
0.0
 40
0.2213694
 50
291.5383
 51
138.54
  0
ARC
  5
36
  8
0
 10
6.152171908030823
 20
47.72900416003137
 30
0.0
 40
1.178462
 50
113.3359
 51
136.8126
  0
ARC
  5
37
  8
0
 10
-2.919728091969205
 20
50.88590416003143
 30
0.0
 40
3.636352
 50
320.3568
 51
331.6536
  0
LINE
  5
38
  8
0
 10
-3.00242809196925
 20
45.08660416003141
 30
0.0
 11
-0.1196280919692185
 21
48.56590416003138
 31
0.0
  0
ARC
  5
39
  8
0
 10
-1.924228091969212
 20
44.19320416003137
 30
0.0
 40
1.400226
 50
140.3568
 51
182.67
  0
ARC
  5
3A
  8
0
 10
0.8988719080307419
 20
51.46700416003142
 30
0.0
 40
0.5798289000000001
 50
138.9908
 51
318.54
  0
LINE
  5
3B
  8
0
 10
1.299171908030758
 20
51.04750416003134
 30
0.0
 11
0.2805719080308222
 21
49.15930416003135
 31
0.0
  0
LINE
  5
3C
  8
0
 10
1.444971908030766
 20
52.97860416003147
 30
0.0
 11
0.4613719080307419
 21
51.84740416003143
 31
0.0
  0
ARC
  5
3D
  8
0
 10
3.616871908030816
 20
53.60580416003137
 30
0.0
 40
5.221907
 50
293.3359
 51
347.1391
  0
ARC
  5
3E
  8
0
 10
8.676371908030774
 20
57.77320416003141
 30
0.0
 40
6.398094
 50
117.0545
 51
172.7336
  0
ARC
  5
3F
  8
0
 10
6.170771908030815
 20
58.33220416003138
 30
0.0
 40
5.455221
 50
22.51865
 51
78.33672
  0
ARC
  5
40
  8
0
 10
20.2405719080308
 20
38.57770416003137
 30
0.0
 40
6.544651999999999
 50
178.5915
 51
201.1734
  0
ARC
  5
41
  8
0
 10
19.45647190803072
 20
35.58840416003136
 30
0.0
 40
11.97952
 50
150.9696
 51
165.6194
  0
ARC
  5
42
  8
0
 10
-0.3242280919692462
 20
41.36040416003135
 30
0.0
 40
0.9472724
 50
328.2016
 51
4.139480000000001
  0
ARC
  5
43
  8
0
 10
5.813571908030781
 20
41.32870416003135
 30
0.0
 40
5.202378
 50
181.2101
 51
195.6962
  0
ARC
  5
44
  8
0
 10
19.5829719080308
 20
44.50600416003141
 30
0.0
 40
17.03807
 50
194.476
 51
198.446
  0
ARC
  5
45
  8
0
 10
5.927571908030814
 20
33.99530416003137
 30
0.0
 40
7.276762
 50
152.5623
 51
165.8775
  0
ARC
  5
46
  8
0
 10
-0.4800280919692455
 20
35.60740416003136
 30
0.0
 40
0.6694406999999999
 50
165.8775
 51
238.6287
  0
ARC
  5
47
  8
0
 10
-1.961928091969241
 20
39.74170416003136
 30
0.0
 40
1.155235
 50
182.67
 51
311.3848
  0
LINE
  5
48
  8
0
 10
0.8052719080307611
 20
39.92130416003141
 30
0.0
 11
-0.5306280919692199
 21
37.34830416003138
 31
0.0
  0
ARC
  5
49
  8
0
 10
-7.077628091969245
 20
45.54740416003136
 30
0.0
 40
8.893261
 50
311.3848
 51
328.2016
  0
ARC
  5
4A
  8
0
 10
8.159871908030823
 20
59.12860416003144
 30
0.0
 40
20.56724
 50
249.0476
 51
276.638
  0
ARC
  5
4B
  8
0
 10
-1.158728091969238
 20
33.96740416003138
 30
0.0
 40
9.835925999999999
 50
27.90657
 51
45.01187999999999
  0
LINE
  5
4C
  8
0
 10
10.15117190803073
 20
46.07270416003138
 30
0.0
 11
10.64587190803081
 21
36.6281041600314
 31
0.0
  0
LINE
  5
4D
  8
0
 10
-3.115828091969206
 20
39.68790416003134
 30
0.0
 11
-3.322928091969231
 21
44.12800416003137
 31
0.0
  0
ARC
  5
4E
  8
0
 10
4.834171908030726
 20
41.73380416003141
 30
0.0
 40
4.224613
 50
157.5563
 51
184.1395
  0
LINE
  5
4F
  8
0
 10
13.69777190803075
 20
38.7386041600314
 30
0.0
 11
13.86237190803081
 21
45.43280416003137
 31
0.0
  0
ARC
  5
50
  8
0
 10
14.79497190803079
 20
27.99550416003137
 30
0.0
 40
0.8978453000000002
 50
281.3575
 51
333.8101
  0
ARC
  5
51
  8
0
 10
14.62907190803082
 20
28.82140416003136
 30
0.0
 40
1.740208
 50
183.9145
 51
281.3575
  0
ARC
  5
52
  8
0
 10
13.84227190803074
 20
28.46410416003135
 30
0.0
 40
1.959539
 50
333.8101
 51
63.05956
  0
LINE
  5
53
  8
0
 10
13.42997190803078
 20
30.98370416003138
 30
0.0
 11
14.99797190803076
 21
32.88380416003139
 31
0.0
  0
LINE
  5
54
  8
0
 10
12.75887190803076
 20
30.66180416003141
 30
0.0
 11
12.89287190803077
 21
28.70260416003134
 31
0.0
  0
ARC
  5
55
  8
0
 10
12.74677190803072
 20
31.54750416003139
 30
0.0
 40
0.8858697
 50
196.324
 51
320.4703
  0
ARC
  5
56
  8
0
 10
15.35767190803074
 20
31.44600416003141
 30
0.0
 40
1.385379
 50
171.0632
 51
243.0596
  0
ARC
  5
57
  8
0
 10
8.40967190803076
 20
33.4141041600314
 30
0.0
 40
0.7418736
 50
224.4537
 51
311.4645
  0
LINE
  5
58
  8
0
 10
7.8800719080308
 20
32.89460416003141
 30
0.0
 11
7.468371908030804
 21
33.31430416003138
 31
0.0
  0
ARC
  5
59
  8
0
 10
11.9520719080308
 20
29.40510416003139
 30
0.0
 40
4.607993
 50
100.3584
 51
131.4645
  0
LINE
  5
5A
  8
0
 10
11.07637190803075
 20
34.10060416003137
 30
0.0
 11
11.89667190803073
 21
31.2986041600314
 31
0.0
  0
ARC
  5
5B
  8
0
 10
6.870571908030797
 20
32.72770416003141
 30
0.0
 40
0.8375382
 50
44.45366
 51
113.3394
  0
ARC
  5
5C
  8
0
 10
14.39307190803072
 20
33.38300416003136
 30
0.0
 40
0.7843229
 50
320.4703
 51
21.17346
  0
ARC
  5
5D
  8
0
 10
3.32547190803075
 20
32.97520416003141
 30
0.0
 40
1.124119
 50
50.77058
 51
135.6851
  0
ARC
  5
5E
  8
0
 10
0.9240719080307827
 20
33.48470416003136
 30
0.0
 40
0.8838898999999999
 50
26.89006
 51
81.77705999999999
  0
ARC
  5
5F
  8
0
 10
2.161171908030724
 20
34.1120041600314
 30
0.0
 40
0.5031406
 50
206.8901
 51
315.6851
  0
ARC
  5
60
  8
0
 10
1.202371908030784
 20
29.99260416003136
 30
0.0
 40
1.765565
 50
343.7284
 51
18.51152
  0
ARC
  5
61
  8
0
 10
-1576.343428091969
 20
-498.1995758399686
 30
0.0
 40
1665.388
 50
18.51152
 51
18.62803
  0
ARC
  5
62
  8
0
 10
5.574971908030761
 20
35.73030416003138
 30
0.0
 40
2.432681
 50
230.7706
 51
293.3394
  0
ARC
  5
63
  8
0
 10
-5.734428091969221
 20
16.18670416003135
 30
0.0
 40
12.50367
 50
348.8631
 51
8.806845
  0
ARC
  5
64
  8
0
 10
-6.371328091969247
 20
21.8181041600314
 30
0.0
 40
7.940347
 50
357.397
 51
357.8062
  0
LINE
  5
65
  8
0
 10
1.458571908030763
 20
18.78200416003136
 30
0.0
 11
1.563171908030768
 21
21.51410416003137
 31
0.0
  0
ARC
  5
66
  8
0
 10
5.740771908030752
 20
12.30930416003139
 30
0.0
 40
7.761
 50
92.77408
 51
150.5509
  0
ARC
  5
67
  8
0
 10
43.66817190803079
 20
7.098704160031389
 30
0.0
 40
41.9426
 50
174.5497
 51
181.9177
  0
ARC
  5
68
  8
0
 10
-14.18422809196926
 20
-4.577295839968599
 30
0.0
 40
17.0123
 50
40.80082
 51
55.44688000000001
  0
ARC
  5
69
  8
0
 10
-1178.813628091969
 20
844.8046041600312
 30
0.0
 40
1445.411
 50
324.553
 51
325.0337
  0
ARC
  5
6A
  8
0
 10
108.9727719080307
 20
-45.97549583996863
 30
0.0
 40
126.3103
 50
150.5509
 51
153.9804
  0
ARC
  5
6B
  8
0
 10
-2.520028091969209
 20
22.18700416003139
 30
0.0
 40
10.01337
 50
325.0337
 51
340.8954
  0
ARC
  5
6C
  8
0
 10
1.993971908030744
 20
14.82310416003139
 30
0.0
 40
9.131266
 50
268.4632
 51
296.6891
  0
ARC
  5
6D
  8
0
 10
32.92517190803073
 20
8.57620416003141
 30
0.0
 40
26.89792
 50
168.8631
 51
184.0751
  0
ARC
  5
6E
  8
0
 10
35.7731719080308
 20
19.90200416003137
 30
0.0
 40
34.24772
 50
163.7284
 51
177.397
  0
ARC
  5
6F
  8
0
 10
-3607.302428091969
 20
1270.777604160031
 30
0.0
 40
3824.91
 50
340.8954
 51
341.1088
  0
LINE
  5
70
  8
0
 10
-6.074228091969246
 20
6.204704160031383
 30
0.0
 11
-4.209428091969187
 21
9.203904160031357
 31
0.0
  0
ARC
  5
71
  8
0
 10
7.473971908030762
 20
3.676004160031368
 30
0.0
 40
0.4456090999999999
 50
276.6724
 51
67.1341
  0
ARC
  5
72
  8
0
 10
5.434271908030723
 20
1.944704160031392
 30
0.0
 40
1.036987
 50
96.67241
 51
108.7685
  0
ARC
  5
73
  8
0
 10
3.246571908030774
 20
3.623704160031366
 30
0.0
 40
1.256643
 50
176.4305
 51
288.7684
  0
LINE
  5
74
  8
0
 10
3.650871908030808
 20
2.433904160031375
 30
0.0
 11
5.10067190803079
 21
2.926504160031357
 31
0.0
  0
ARC
  5
75
  8
0
 10
-1.099628091969237
 20
1.621804160031388
 30
0.0
 40
0.6903592
 50
271.4258
 51
46.01191
  0
ARC
  5
76
  8
0
 10
-3.260728091969213
 20
1.970704160031403
 30
0.0
 40
1.092918
 50
209.4266
 51
271.4258
  0
ARC
  5
77
  8
0
 10
-5.696628091969217
 20
2.584204160031391
 30
0.0
 40
3.201432
 50
26.86026
 51
48.56757
  0
LINE
  5
78
  8
0
 10
-1.082328091969259
 20
0.9316041600313838
 30
0.0
 11
-3.23352809196922
 21
0.8781041600313984
 31
0.0
  0
LINE
  5
79
  8
0
 10
-1.268728091969251
 20
0.9270041600314016
 30
0.0
 11
-2.840628091969222
 21
4.030704160031405
 31
0.0
  0
LINE
  5
7A
  8
0
 10
5.313771908030731
 20
2.974704160031365
 30
0.0
 11
7.52577190803072
 21
3.233404160031398
 31
0.0
  0
ARC
  5
7B
  8
0
 10
1.130571908030788
 20
-16.30879583996864
 30
0.0
 40
21.15144
 50
101.466
 51
108.3509
  0
LINE
  5
7C
  8
0
 10
-4.212628091969236
 20
1.433704160031368
 30
0.0
 11
-6.104428091969226
 21
4.787604160031378
 31
0.0
  0
ARC
  5
7D
  8
0
 10
10.32207190803081
 20
10.42970416003141
 30
0.0
 40
6.884049
 50
218.2149
 51
247.1341
  0
ARC
  5
7E
  8
0
 10
-4.893628091969219
 20
5.470604160031371
 30
0.0
 40
1.390262
 50
148.1282
 51
209.4266
  0
ARC
  5
7F
  8
0
 10
2.207771908030736
 20
5.048104160031357
 30
0.0
 40
4.071799
 50
155.2937
 51
226.0119
  0
LINE
  5
80
  8
0
 10
-5.679628091969221
 20
6.839304160031361
 30
0.0
 11
-3.578128091969234
 21
4.984604160031381
 31
0.0
  0
LINE
  5
81
  8
0
 10
2.116571908030778
 20
5.692604160031351
 30
0.0
 11
1.992371908030805
 21
3.702004160031379
 31
0.0
  0
LINE
  5
82
  8
0
 10
15.12437190803075
 20
33.66630416003136
 30
0.0
 11
14.13757190803074
 21
36.21380416003137
 31
0.0
  0
ARC
  5
83
  8
0
 10
21.68427190803072
 20
37.20630416003138
 30
0.0
 40
11.05353
 50
182.9982
 51
196.324
  0
ARC
  5
84
  8
0
 10
12.85247190803079
 20
34.48400416003136
 30
0.0
 40
8.417325
 50
149.756
 51
186.3390000000001
  0
ARC
  5
85
  8
0
 10
14.56927190803071
 20
30.6512041600314
 30
0.0
 40
12.37044
 50
138.9795
 51
165.0138
  0
ARC
  5
86
  8
0
 10
13.80047190803077
 20
28.12060416003141
 30
0.0
 40
14.90906
 50
132.807
 51
154.587
  0
ARC
  5
87
  8
0
 10
1.762371908030786
 20
39.28510416003138
 30
0.0
 40
4.97685
 50
238.6287
 51
261.777
  0
ARC
  5
88
  8
0
 10
250.0546719080307
 20
71.52340416003136
 30
0.0
 40
253.2587
 50
188.3211
 51
191.1937
  0
ENDSEC
  0
EOF
