  0
SECTION
  2
HEADER
  9
$ACADVER
  1
AC1009
  9
$DWGCODEPAGE
  3
ansi_1252
  9
$INSBASE
 10
138.3053988996125
 20
49.65970438287885
 30
0.0
  9
$EXTMIN
 10
137.8236253826922
 20
49.6664923790213
 30
0.0
  9
$EXTMAX
 10
138.3491659146706
 20
51.28492896355642
 30
0.0
  9
$LIMMIN
 10
0.0
 20
0.0
  9
$LIMMAX
 10
420.0
 20
297.0
  9
$ORTHOMODE
 70
     0
  9
$REGENMODE
 70
     1
  9
$FILLMODE
 70
     1
  9
$QTEXTMODE
 70
     0
  9
$MIRRTEXT
 70
     1
  9
$DRAGMODE
 70
     2
  9
$LTSCALE
 40
1.0
  9
$OSMODE
 70
    37
  9
$ATTMODE
 70
     1
  9
$TEXTSIZE
 40
2.5
  9
$TRACEWID
 40
1.0
  9
$TEXTSTYLE
  7
STANDARD
  9
$CLAYER
  8
0
  9
$CELTYPE
  6
BYLAYER
  9
$CECOLOR
 62
   256
  9
$DIMSCALE
 40
1.0
  9
$DIMASZ
 40
2.5
  9
$DIMEXO
 40
0.625
  9
$DIMDLI
 40
3.75
  9
$DIMRND
 40
0.0
  9
$DIMDLE
 40
0.0
  9
$DIMEXE
 40
1.25
  9
$DIMTP
 40
0.0
  9
$DIMTM
 40
0.0
  9
$DIMTXT
 40
2.5
  9
$DIMCEN
 40
2.5
  9
$DIMTSZ
 40
0.0
  9
$DIMTOL
 70
     0
  9
$DIMLIM
 70
     0
  9
$DIMTIH
 70
     0
  9
$DIMTOH
 70
     0
  9
$DIMSE1
 70
     0
  9
$DIMSE2
 70
     0
  9
$DIMTAD
 70
     1
  9
$DIMZIN
 70
     8
  9
$DIMBLK
  1

  9
$DIMASO
 70
     1
  9
$DIMSHO
 70
     1
  9
$DIMPOST
  1

  9
$DIMAPOST
  1

  9
$DIMALT
 70
     0
  9
$DIMALTD
 70
     4
  9
$DIMALTF
 40
0.0394
  9
$DIMLFAC
 40
1.0
  9
$DIMTOFL
 70
     1
  9
$DIMTVP
 40
0.0
  9
$DIMTIX
 70
     0
  9
$DIMSOXD
 70
     0
  9
$DIMSAH
 70
     0
  9
$DIMBLK1
  1

  9
$DIMBLK2
  1

  9
$DIMSTYLE
  2
STANDARD
  9
$DIMCLRD
 70
     0
  9
$DIMCLRE
 70
     0
  9
$DIMCLRT
 70
     0
  9
$DIMTFAC
 40
1.0
  9
$DIMGAP
 40
0.625
  9
$LUNITS
 70
     2
  9
$LUPREC
 70
     4
  9
$SKETCHINC
 40
1.0
  9
$FILLETRAD
 40
10.0
  9
$AUNITS
 70
     0
  9
$AUPREC
 70
     0
  9
$MENU
  1
.
  9
$ELEVATION
 40
0.0
  9
$PELEVATION
 40
0.0
  9
$THICKNESS
 40
0.0
  9
$LIMCHECK
 70
     0
  9
$CHAMFERA
 40
10.0
  9
$CHAMFERB
 40
10.0
  9
$SKPOLY
 70
     0
  9
$TDCREATE
 40
2451826.675523137
  9
$TDUPDATE
 40
2457483.532638889
  9
$TDINDWG
 40
0.0608404514
  9
$TDUSRTIMER
 40
0.0608404514
  9
$USRTIMER
 70
     1
  9
$ANGBASE
 50
0.0
  9
$ANGDIR
 70
     0
  9
$PDMODE
 70
     0
  9
$PDSIZE
 40
0.0
  9
$PLINEWID
 40
0.0
  9
$COORDS
 70
     1
  9
$SPLFRAME
 70
     0
  9
$SPLINETYPE
 70
     6
  9
$SPLINESEGS
 70
     8
  9
$ATTDIA
 70
     0
  9
$ATTREQ
 70
     1
  9
$HANDLING
 70
     1
  9
$HANDSEED
  5
53E
  9
$SURFTAB1
 70
     6
  9
$SURFTAB2
 70
     6
  9
$SURFTYPE
 70
     6
  9
$SURFU
 70
     6
  9
$SURFV
 70
     6
  9
$UCSNAME
  2

  9
$UCSORG
 10
0.0
 20
0.0
 30
0.0
  9
$UCSXDIR
 10
1.0
 20
0.0
 30
0.0
  9
$UCSYDIR
 10
0.0
 20
1.0
 30
0.0
  9
$PUCSNAME
  2

  9
$PUCSORG
 10
0.0
 20
0.0
 30
0.0
  9
$PUCSXDIR
 10
1.0
 20
0.0
 30
0.0
  9
$PUCSYDIR
 10
0.0
 20
1.0
 30
0.0
  9
$USERI1
 70
     0
  9
$USERI2
 70
     0
  9
$USERI3
 70
     0
  9
$USERI4
 70
     0
  9
$USERI5
 70
     0
  9
$USERR1
 40
0.0
  9
$USERR2
 40
0.0
  9
$USERR3
 40
0.0
  9
$USERR4
 40
0.0
  9
$USERR5
 40
0.0
  9
$WORLDVIEW
 70
     1
  9
$SHADEDGE
 70
     3
  9
$SHADEDIF
 70
    70
  9
$TILEMODE
 70
     1
  9
$MAXACTVP
 70
    48
  9
$PLIMCHECK
 70
     0
  9
$PEXTMIN
 10
1.000000000000000E+20
 20
1.000000000000000E+20
 30
1.000000000000000E+20
  9
$PEXTMAX
 10
-1.000000000000000E+20
 20
-1.000000000000000E+20
 30
-1.000000000000000E+20
  9
$PLIMMIN
 10
0.0
 20
0.0
  9
$PLIMMAX
 10
420.0
 20
297.0
  9
$UNITMODE
 70
     0
  9
$VISRETAIN
 70
     1
  9
$PLINEGEN
 70
     0
  9
$PSLTSCALE
 70
     1
  0
ENDSEC
  0
SECTION
  2
TABLES
  0
TABLE
  2
VPORT
 70
     1
  0
VPORT
  2
*ACTIVE
 70
     0
 10
0.0
 20
0.0
 11
1.0
 21
1.0
 12
138.0863956486814
 22
50.65531899956401
 13
0.0
 23
0.0
 14
10.0
 24
10.0
 15
10.0
 25
10.0
 16
0.0
 26
0.0
 36
1.0
 17
0.0
 27
0.0
 37
0.0
 40
1.996057477825373
 41
1.503537735849057
 42
50.0
 43
0.0
 44
0.0
 50
0.0
 51
0.0
 71
     0
 72
   100
 73
     1
 74
     1
 75
     0
 76
     0
 77
     0
 78
     0
  0
ENDTAB
  0
TABLE
  2
LTYPE
 70
     1
  0
LTYPE
  2
CONTINUOUS
 70
     0
  3
Solid line
 72
    65
 73
     0
 40
0.0
  0
ENDTAB
  0
TABLE
  2
LAYER
 70
     1
  0
LAYER
  2
0
 70
     0
 62
     7
  6
CONTINUOUS
  0
ENDTAB
  0
TABLE
  2
STYLE
 70
     1
  0
STYLE
  2
STANDARD
 70
     0
 40
0.0
 41
1.0
 50
0.0
 71
     0
 42
2.5
  3
txt
  4

  0
ENDTAB
  0
TABLE
  2
VIEW
 70
     0
  0
ENDTAB
  0
TABLE
  2
UCS
 70
     0
  0
ENDTAB
  0
TABLE
  2
APPID
 70
     2
  0
APPID
  2
ACAD
 70
     0
  0
APPID
  2
DCO15
 70
     0
  0
ENDTAB
  0
TABLE
  2
DIMSTYLE
 70
     1
  0
DIMSTYLE
  2
STANDARD
 70
     0
  3

  4

  5

  6

  7

 40
1.0
 41
0.18
 42
0.0625
 43
0.38
 44
0.18
 45
0.0
 46
0.0
 47
0.0
 48
0.0
140
0.18
141
0.09
142
0.0
143
25.4
144
1.0
145
0.0
146
1.0
147
0.09
 71
     0
 72
     0
 73
     1
 74
     1
 75
     0
 76
     0
 77
     0
 78
     0
170
     0
171
     2
172
     0
173
     0
174
     0
175
     0
176
     0
177
     0
178
     0
  0
ENDTAB
  0
ENDSEC
  0
SECTION
  2
BLOCKS
  0
BLOCK
  8
0
  2
$MODEL_SPACE
 70
     0
 10
0.0
 20
0.0
 30
0.0
  3
$MODEL_SPACE
  1

  0
ENDBLK
  5
260
  8
0
  0
BLOCK
 67
     1
  8
0
  2
$PAPER_SPACE
 70
     0
 10
0.0
 20
0.0
 30
0.0
  3
$PAPER_SPACE
  1

  0
ENDBLK
  5
25E
 67
     1
  8
0
  0
ENDSEC
  0
SECTION
  2
ENTITIES
  0
POLYLINE
  5
1D
  8
0
  6
CONTINUOUS
 66
     1
 10
0.0
 20
0.0
 30
0.0
  0
VERTEX
  5
324
  8
0
  6
CONTINUOUS
 10
138.126251299622
 20
51.27048550769794
 30
0.0
  0
VERTEX
  5
325
  8
0
  6
CONTINUOUS
 10
138.1322654599303
 20
51.27138526396453
 30
0.0
  0
VERTEX
  5
326
  8
0
  6
CONTINUOUS
 10
138.1382796202386
 20
51.27108929150842
 30
0.0
  0
VERTEX
  5
327
  8
0
  6
CONTINUOUS
 10
138.1439978080907
 20
51.26988172388747
 30
0.0
  0
VERTEX
  5
328
  8
0
  6
CONTINUOUS
 10
138.1497159959429
 20
51.2674784275438
 30
0.0
  0
VERTEX
  5
329
  8
0
  6
CONTINUOUS
 10
138.1551263724407
 20
51.2641635360353
 30
0.0
  0
VERTEX
  5
32A
  8
0
  6
CONTINUOUS
 10
138.1602407764824
 20
51.25996072715844
 30
0.0
  0
VERTEX
  5
32B
  8
0
  6
CONTINUOUS
 10
138.1647513967136
 20
51.25545010692723
 30
0.0
  0
VERTEX
  5
32C
  8
0
  6
CONTINUOUS
 10
138.1689660444887
 20
51.25063167534166
 30
0.0
  0
VERTEX
  5
32D
  8
0
  6
CONTINUOUS
 10
138.1713693408324
 20
51.24702081137704
 30
0.0
  0
VERTEX
  5
32E
  8
0
  6
CONTINUOUS
 10
138.1734766647199
 20
51.24340994741242
 30
0.0
  0
VERTEX
  5
32F
  8
0
  6
CONTINUOUS
 10
138.1752880161513
 20
51.24010689480217
 30
0.0
  0
VERTEX
  5
330
  8
0
  6
CONTINUOUS
 10
138.1767915562284
 20
51.23679200329367
 30
0.0
  0
VERTEX
  5
331
  8
0
  6
CONTINUOUS
 10
138.1782950963055
 20
51.23318113932904
 30
0.0
  0
VERTEX
  5
332
  8
0
  6
CONTINUOUS
 10
138.1794908250282
 20
51.22957027536442
 30
0.0
  0
VERTEX
  5
333
  8
0
  6
CONTINUOUS
 10
138.1810062040035
 20
51.22595941139981
 30
0.0
  0
VERTEX
  5
334
  8
0
  6
CONTINUOUS
 10
138.1822019327262
 20
51.22175660252295
 30
0.0
  0
VERTEX
  5
335
  8
0
  6
CONTINUOUS
 10
138.180402420193
 20
51.21573060331642
 30
0.0
  0
VERTEX
  5
336
  8
0
  6
CONTINUOUS
 10
138.1794908250282
 20
51.2100242543625
 30
0.0
  0
VERTEX
  5
337
  8
0
  6
CONTINUOUS
 10
138.1800946088387
 20
51.20399825515597
 30
0.0
  0
VERTEX
  5
338
  8
0
  6
CONTINUOUS
 10
138.1815981489158
 20
51.19798409484769
 30
0.0
  0
VERTEX
  5
339
  8
0
  6
CONTINUOUS
 10
138.1837054728033
 20
51.19167396208329
 30
0.0
  0
VERTEX
  5
33A
  8
0
  6
CONTINUOUS
 10
138.1864165805013
 20
51.18564796287676
 30
0.0
  0
VERTEX
  5
33B
  8
0
  6
CONTINUOUS
 10
138.1894236606555
 20
51.17963380256848
 30
0.0
  0
VERTEX
  5
33C
  8
0
  6
CONTINUOUS
 10
138.192738552164
 20
51.17332366980408
 30
0.0
  0
VERTEX
  5
33D
  8
0
  6
CONTINUOUS
 10
138.1960416047742
 20
51.16729767059756
 30
0.0
  0
VERTEX
  5
33E
  8
0
  6
CONTINUOUS
 10
138.1990486849284
 20
51.16128351028927
 30
0.0
  0
VERTEX
  5
33F
  8
0
  6
CONTINUOUS
 10
138.201451981272
 20
51.15497337752488
 30
0.0
  0
VERTEX
  5
340
  8
0
  6
CONTINUOUS
 10
138.2035593051596
 20
51.14894737831835
 30
0.0
  0
VERTEX
  5
341
  8
0
  6
CONTINUOUS
 10
138.2047668727805
 20
51.14293321801006
 30
0.0
  0
VERTEX
  5
342
  8
0
  6
CONTINUOUS
 10
138.2050628452367
 20
51.13691905770178
 30
0.0
  0
VERTEX
  5
343
  8
0
  6
CONTINUOUS
 10
138.2041630889701
 20
51.1309048973935
 30
0.0
  0
VERTEX
  5
344
  8
0
  6
CONTINUOUS
 10
138.2020557650825
 20
51.12489073708522
 30
0.0
  0
VERTEX
  5
345
  8
0
  6
CONTINUOUS
 10
138.2038671165139
 20
51.11796498161209
 30
0.0
  0
VERTEX
  5
346
  8
0
  6
CONTINUOUS
 10
138.202659548893
 20
51.11165484884769
 30
0.0
  0
VERTEX
  5
347
  8
0
  6
CONTINUOUS
 10
138.1990486849284
 20
51.10593666099552
 30
0.0
  0
VERTEX
  5
348
  8
0
  6
CONTINUOUS
 10
138.1936383084306
 20
51.10082225695384
 30
0.0
  0
VERTEX
  5
349
  8
0
  6
CONTINUOUS
 10
138.1873163367679
 20
51.09570785291215
 30
0.0
  0
VERTEX
  5
34A
  8
0
  6
CONTINUOUS
 10
138.1810062040035
 20
51.09059344887046
 30
0.0
  0
VERTEX
  5
34B
  8
0
  6
CONTINUOUS
 10
138.174980204797
 20
51.08547904482877
 30
0.0
  0
VERTEX
  5
34C
  8
0
  6
CONTINUOUS
 10
138.1701736121097
 20
51.0797608569766
 30
0.0
  0
VERTEX
  5
34D
  8
0
  6
CONTINUOUS
 10
138.1647513967136
 20
51.07464645293491
 30
0.0
  0
VERTEX
  5
34E
  8
0
  6
CONTINUOUS
 10
138.1602407764824
 20
51.06863229262663
 30
0.0
  0
VERTEX
  5
34F
  8
0
  6
CONTINUOUS
 10
138.1569377238721
 20
51.06201434850787
 30
0.0
  0
VERTEX
  5
350
  8
0
  6
CONTINUOUS
 10
138.1536228323636
 20
51.05510043193299
 30
0.0
  0
VERTEX
  5
351
  8
0
  6
CONTINUOUS
 10
138.1503197797534
 20
51.04787870400376
 30
0.0
  0
VERTEX
  5
352
  8
0
  6
CONTINUOUS
 10
138.1470048882449
 20
51.04065697607452
 30
0.0
  0
VERTEX
  5
353
  8
0
  6
CONTINUOUS
 10
138.1424942680136
 20
51.03343524814528
 30
0.0
  0
VERTEX
  5
354
  8
0
  6
CONTINUOUS
 10
138.1370838915159
 20
51.0265213315704
 30
0.0
  0
VERTEX
  5
355
  8
0
  6
CONTINUOUS
 10
138.1358763238949
 20
51.02019935990776
 30
0.0
  0
VERTEX
  5
356
  8
0
  6
CONTINUOUS
 10
138.1370838915159
 20
51.01478898340995
 30
0.0
  0
VERTEX
  5
357
  8
0
  6
CONTINUOUS
 10
138.14009097167
 20
51.00997055182438
 30
0.0
  0
VERTEX
  5
358
  8
0
  6
CONTINUOUS
 10
138.1446015919012
 20
51.00545993159317
 30
0.0
  0
VERTEX
  5
359
  8
0
  6
CONTINUOUS
 10
138.1497159959429
 20
51.00155309517243
 30
0.0
  0
VERTEX
  5
35A
  8
0
  6
CONTINUOUS
 10
138.1551263724407
 20
50.99794223120782
 30
0.0
  0
VERTEX
  5
35B
  8
0
  6
CONTINUOUS
 10
138.1602407764824
 20
50.99462733969931
 30
0.0
  0
VERTEX
  5
35C
  8
0
  6
CONTINUOUS
 10
138.1647513967136
 20
50.99162025954517
 30
0.0
  0
VERTEX
  5
35D
  8
0
  6
CONTINUOUS
 10
138.1728728809094
 20
50.9868018279596
 30
0.0
  0
VERTEX
  5
35E
  8
0
  6
CONTINUOUS
 10
138.1819059602701
 20
50.98229120772838
 30
0.0
  0
VERTEX
  5
35F
  8
0
  6
CONTINUOUS
 10
138.1909272007325
 20
50.97838437130765
 30
0.0
  0
VERTEX
  5
360
  8
0
  6
CONTINUOUS
 10
138.2002562525493
 20
50.97477350734303
 30
0.0
  0
VERTEX
  5
361
  8
0
  6
CONTINUOUS
 10
138.2098812768222
 20
50.97147045473277
 30
0.0
  0
VERTEX
  5
362
  8
0
  6
CONTINUOUS
 10
138.219210328639
 20
50.96815556322427
 30
0.0
  0
VERTEX
  5
363
  8
0
  6
CONTINUOUS
 10
138.2285275415576
 20
50.96485251061401
 30
0.0
  0
VERTEX
  5
364
  8
0
  6
CONTINUOUS
 10
138.2375606209182
 20
50.96093383529503
 30
0.0
  0
VERTEX
  5
365
  8
0
  6
CONTINUOUS
 10
138.2459780775702
 20
50.9570269988743
 30
0.0
  0
VERTEX
  5
366
  8
0
  6
CONTINUOUS
 10
138.254099561766
 20
50.95220856728872
 30
0.0
  0
VERTEX
  5
367
  8
0
  6
CONTINUOUS
 10
138.2613212896952
 20
50.94709416324704
 30
0.0
  0
VERTEX
  5
368
  8
0
  6
CONTINUOUS
 10
138.267939233814
 20
50.94078403048263
 30
0.0
  0
VERTEX
  5
369
  8
0
  6
CONTINUOUS
 10
138.2733496103118
 20
50.9335623025534
 30
0.0
  0
VERTEX
  5
36A
  8
0
  6
CONTINUOUS
 10
138.2778720694413
 20
50.92544081835756
 30
0.0
  0
VERTEX
  5
36B
  8
0
  6
CONTINUOUS
 10
138.2811751220515
 20
50.91581579408466
 30
0.0
  0
VERTEX
  5
36C
  8
0
  6
CONTINUOUS
 10
138.2829864734829
 20
50.90498320219081
 30
0.0
  0
VERTEX
  5
36D
  8
0
  6
CONTINUOUS
 10
138.2853897698266
 20
50.89084755768669
 30
0.0
  0
VERTEX
  5
36E
  8
0
  6
CONTINUOUS
 10
138.2886928224369
 20
50.87519653420726
 30
0.0
  0
VERTEX
  5
36F
  8
0
  6
CONTINUOUS
 10
138.2923036864015
 20
50.85926137716996
 30
0.0
  0
VERTEX
  5
370
  8
0
  6
CONTINUOUS
 10
138.2962223617205
 20
50.84271059742394
 30
0.0
  0
VERTEX
  5
371
  8
0
  6
CONTINUOUS
 10
138.3007329819517
 20
50.82615981767792
 30
0.0
  0
VERTEX
  5
372
  8
0
  6
CONTINUOUS
 10
138.305539574639
 20
50.81052063309673
 30
0.0
  0
VERTEX
  5
373
  8
0
  6
CONTINUOUS
 10
138.3106539786807
 20
50.79548523232602
 30
0.0
  0
VERTEX
  5
374
  8
0
  6
CONTINUOUS
 10
138.3160761940767
 20
50.78194153273414
 30
0.0
  0
VERTEX
  5
375
  8
0
  6
CONTINUOUS
 10
138.3118615463017
 20
50.77502761615926
 30
0.0
  0
VERTEX
  5
376
  8
0
  6
CONTINUOUS
 10
138.310961790035
 20
50.76810186068614
 30
0.0
  0
VERTEX
  5
377
  8
0
  6
CONTINUOUS
 10
138.3121575187578
 20
50.76089197165515
 30
0.0
  0
VERTEX
  5
378
  8
0
  6
CONTINUOUS
 10
138.3151645989119
 20
50.75367024372591
 30
0.0
  0
VERTEX
  5
379
  8
0
  6
CONTINUOUS
 10
138.3187754628765
 20
50.74644851579668
 30
0.0
  0
VERTEX
  5
37A
  8
0
  6
CONTINUOUS
 10
138.3223863268412
 20
50.73893081541132
 30
0.0
  0
VERTEX
  5
37B
  8
0
  6
CONTINUOUS
 10
138.3244936507287
 20
50.73170908748209
 30
0.0
  0
VERTEX
  5
37C
  8
0
  6
CONTINUOUS
 10
138.3248014620831
 20
50.72448735955285
 30
0.0
  0
VERTEX
  5
37D
  8
0
  6
CONTINUOUS
 10
138.3235938944621
 20
50.71335879520287
 30
0.0
  0
VERTEX
  5
37E
  8
0
  6
CONTINUOUS
 10
138.3244936507287
 20
50.7022302308529
 30
0.0
  0
VERTEX
  5
37F
  8
0
  6
CONTINUOUS
 10
138.3272047584267
 20
50.69139763895905
 30
0.0
  0
VERTEX
  5
380
  8
0
  6
CONTINUOUS
 10
138.3308156223913
 20
50.68086101952131
 30
0.0
  0
VERTEX
  5
381
  8
0
  6
CONTINUOUS
 10
138.3353262426226
 20
50.67064405033617
 30
0.0
  0
VERTEX
  5
382
  8
0
  6
CONTINUOUS
 10
138.3398368628538
 20
50.6604152422528
 30
0.0
  0
VERTEX
  5
383
  8
0
  6
CONTINUOUS
 10
138.3437436992745
 20
50.65018643416941
 30
0.0
  0
VERTEX
  5
384
  8
0
  6
CONTINUOUS
 10
138.3467507794286
 20
50.64025359854215
 30
0.0
  0
VERTEX
  5
385
  8
0
  6
CONTINUOUS
 10
138.347058590783
 20
50.61137852572345
 30
0.0
  0
VERTEX
  5
386
  8
0
  6
CONTINUOUS
 10
138.3461588345164
 20
50.58670626178159
 30
0.0
  0
VERTEX
  5
387
  8
0
  6
CONTINUOUS
 10
138.345851023162
 20
50.56234180919409
 30
0.0
  0
VERTEX
  5
388
  8
0
  6
CONTINUOUS
 10
138.3491659146706
 20
50.53376270883151
 30
0.0
  0
VERTEX
  5
389
  8
0
  6
CONTINUOUS
 10
138.3488581033162
 20
50.52864830478982
 30
0.0
  0
VERTEX
  5
38A
  8
0
  6
CONTINUOUS
 10
138.347058590783
 20
50.52323792829201
 30
0.0
  0
VERTEX
  5
38B
  8
0
  6
CONTINUOUS
 10
138.3449512668954
 20
50.51841949670644
 30
0.0
  0
VERTEX
  5
38C
  8
0
  6
CONTINUOUS
 10
138.3422401591974
 20
50.51361290401911
 30
0.0
  0
VERTEX
  5
38D
  8
0
  6
CONTINUOUS
 10
138.3428439430079
 20
50.51000204005449
 30
0.0
  0
VERTEX
  5
38E
  8
0
  6
CONTINUOUS
 10
138.3437436992745
 20
50.50608336473551
 30
0.0
  0
VERTEX
  5
38F
  8
0
  6
CONTINUOUS
 10
138.344347483085
 20
50.50188055585866
 30
0.0
  0
VERTEX
  5
390
  8
0
  6
CONTINUOUS
 10
138.344347483085
 20
50.49766590808356
 30
0.0
  0
VERTEX
  5
391
  8
0
  6
CONTINUOUS
 10
138.3437436992745
 20
50.49405504411894
 30
0.0
  0
VERTEX
  5
392
  8
0
  6
CONTINUOUS
 10
138.3422401591974
 20
50.49134393642092
 30
0.0
  0
VERTEX
  5
393
  8
0
  6
CONTINUOUS
 10
138.3392330790433
 20
50.48984039634385
 30
0.0
  0
VERTEX
  5
394
  8
0
  6
CONTINUOUS
 10
138.3344264863559
 20
50.48954442388774
 30
0.0
  0
VERTEX
  5
395
  8
0
  6
CONTINUOUS
 10
138.3326151349245
 20
50.47150194296289
 30
0.0
  0
VERTEX
  5
396
  8
0
  6
CONTINUOUS
 10
138.3326151349245
 20
50.45555494702734
 30
0.0
  0
VERTEX
  5
397
  8
0
  6
CONTINUOUS
 10
138.333218918735
 20
50.43931197863568
 30
0.0
  0
VERTEX
  5
398
  8
0
  6
CONTINUOUS
 10
138.3326151349245
 20
50.42126949771082
 30
0.0
  0
VERTEX
  5
399
  8
0
  6
CONTINUOUS
 10
138.3293120823143
 20
50.41795460620232
 30
0.0
  0
VERTEX
  5
39A
  8
0
  6
CONTINUOUS
 10
138.3263050021601
 20
50.41404776978159
 30
0.0
  0
VERTEX
  5
39B
  8
0
  6
CONTINUOUS
 10
138.3235938944621
 20
50.40953714955037
 30
0.0
  0
VERTEX
  5
39C
  8
0
  6
CONTINUOUS
 10
138.3208827867641
 20
50.40501469042092
 30
0.0
  0
VERTEX
  5
39D
  8
0
  6
CONTINUOUS
 10
138.3187754628765
 20
50.39991212527747
 30
0.0
  0
VERTEX
  5
39E
  8
0
  6
CONTINUOUS
 10
138.3163721665329
 20
50.39479772123578
 30
0.0
  0
VERTEX
  5
39F
  8
0
  6
CONTINUOUS
 10
138.3142648426453
 20
50.3896833171941
 30
0.0
  0
VERTEX
  5
3A0
  8
0
  6
CONTINUOUS
 10
138.3118615463017
 20
50.38456891315241
 30
0.0
  0
VERTEX
  5
3A1
  8
0
  6
CONTINUOUS
 10
138.3091504386036
 20
50.37975048156683
 30
0.0
  0
VERTEX
  5
3A2
  8
0
  6
CONTINUOUS
 10
138.3064393309056
 20
50.37493204998126
 30
0.0
  0
VERTEX
  5
3A3
  8
0
  6
CONTINUOUS
 10
138.3037400621058
 20
50.37072924110441
 30
0.0
  0
VERTEX
  5
3A4
  8
0
  6
CONTINUOUS
 10
138.3001291981412
 20
50.36711837713979
 30
0.0
  0
VERTEX
  5
3A5
  8
0
  6
CONTINUOUS
 10
138.2965183341766
 20
50.36380348563129
 30
0.0
  0
VERTEX
  5
3A6
  8
0
  6
CONTINUOUS
 10
138.2920077139454
 20
50.36140018928762
 30
0.0
  0
VERTEX
  5
3A7
  8
0
  6
CONTINUOUS
 10
138.2871892823598
 20
50.35989664921055
 30
0.0
  0
VERTEX
  5
3A8
  8
0
  6
CONTINUOUS
 10
138.2814710945076
 20
50.35899689294396
 30
0.0
  0
VERTEX
  5
3A9
  8
0
  6
CONTINUOUS
 10
138.2778720694413
 20
50.35989664921055
 30
0.0
  0
VERTEX
  5
3AA
  8
0
  6
CONTINUOUS
 10
138.2745571779327
 20
50.3620039730981
 30
0.0
  0
VERTEX
  5
3AB
  8
0
  6
CONTINUOUS
 10
138.2715500977786
 20
50.36501105325225
 30
0.0
  0
VERTEX
  5
3AC
  8
0
  6
CONTINUOUS
 10
138.2688389900806
 20
50.3683141058625
 30
0.0
  0
VERTEX
  5
3AD
  8
0
  6
CONTINUOUS
 10
138.2661397212808
 20
50.37133302491489
 30
0.0
  0
VERTEX
  5
3AE
  8
0
  6
CONTINUOUS
 10
138.2637245860389
 20
50.37403229371467
 30
0.0
  0
VERTEX
  5
3AF
  8
0
  6
CONTINUOUS
 10
138.2610253172391
 20
50.37553583379174
 30
0.0
  0
VERTEX
  5
3B0
  8
0
  6
CONTINUOUS
 10
138.2586101819972
 20
50.37553583379174
 30
0.0
  0
VERTEX
  5
3B1
  8
0
  6
CONTINUOUS
 10
138.2574144532745
 20
50.35417846135839
 30
0.0
  0
VERTEX
  5
3B2
  8
0
  6
CONTINUOUS
 10
138.2556031018431
 20
50.3343246290021
 30
0.0
  0
VERTEX
  5
3B3
  8
0
  6
CONTINUOUS
 10
138.2534957779555
 20
50.3159743367229
 30
0.0
  0
VERTEX
  5
3B4
  8
0
  6
CONTINUOUS
 10
138.2513884540679
 20
50.29852380071028
 30
0.0
  0
VERTEX
  5
3B5
  8
0
  6
CONTINUOUS
 10
138.2492929690787
 20
50.28108510359591
 30
0.0
  0
VERTEX
  5
3B6
  8
0
  6
CONTINUOUS
 10
138.2474816176472
 20
50.26363456758329
 30
0.0
  0
VERTEX
  5
3B7
  8
0
  6
CONTINUOUS
 10
138.2459780775702
 20
50.24528427530408
 30
0.0
  0
VERTEX
  5
3B8
  8
0
  6
CONTINUOUS
 10
138.2450783213036
 20
50.22572641540391
 30
0.0
  0
VERTEX
  5
3B9
  8
0
  6
CONTINUOUS
 10
138.2453742937597
 20
50.21279833852076
 30
0.0
  0
VERTEX
  5
3BA
  8
0
  6
CONTINUOUS
 10
138.2471856451911
 20
50.19955061138499
 30
0.0
  0
VERTEX
  5
3BB
  8
0
  6
CONTINUOUS
 10
138.2501927253452
 20
50.18662253450183
 30
0.0
  0
VERTEX
  5
3BC
  8
0
  6
CONTINUOUS
 10
138.2534957779555
 20
50.17338664626431
 30
0.0
  0
VERTEX
  5
3BD
  8
0
  6
CONTINUOUS
 10
138.2556031018431
 20
50.15984294667243
 30
0.0
  0
VERTEX
  5
3BE
  8
0
  6
CONTINUOUS
 10
138.2565028581097
 20
50.14631108597879
 30
0.0
  0
VERTEX
  5
3BF
  8
0
  6
CONTINUOUS
 10
138.2547033455765
 20
50.13217544147468
 30
0.0
  0
VERTEX
  5
3C0
  8
0
  6
CONTINUOUS
 10
138.2498849139909
 20
50.1177319856162
 30
0.0
  0
VERTEX
  5
3C1
  8
0
  6
CONTINUOUS
 10
138.2547033455765
 20
50.09456326175142
 30
0.0
  0
VERTEX
  5
3C2
  8
0
  6
CONTINUOUS
 10
138.2574144532745
 20
50.07050662051829
 30
0.0
  0
VERTEX
  5
3C3
  8
0
  6
CONTINUOUS
 10
138.2589179933516
 20
50.04583435657644
 30
0.0
  0
VERTEX
  5
3C4
  8
0
  6
CONTINUOUS
 10
138.2592139658077
 20
50.02057014772235
 30
0.0
  0
VERTEX
  5
3C5
  8
0
  6
CONTINUOUS
 10
138.2592139658077
 20
49.99559007242613
 30
0.0
  0
VERTEX
  5
3C6
  8
0
  6
CONTINUOUS
 10
138.2592139658077
 20
49.97062183602816
 30
0.0
  0
VERTEX
  5
3C7
  8
0
  6
CONTINUOUS
 10
138.2598177496182
 20
49.94625738344067
 30
0.0
  0
VERTEX
  5
3C8
  8
0
  6
CONTINUOUS
 10
138.2616172621513
 20
49.92249671466365
 30
0.0
  0
VERTEX
  5
3C9
  8
0
  6
CONTINUOUS
 10
138.2643283698494
 20
49.90564996246151
 30
0.0
  0
VERTEX
  5
3CA
  8
0
  6
CONTINUOUS
 10
138.267939233814
 20
49.88880321025937
 30
0.0
  0
VERTEX
  5
3CB
  8
0
  6
CONTINUOUS
 10
138.2718460702347
 20
49.87166048560112
 30
0.0
  0
VERTEX
  5
3CC
  8
0
  6
CONTINUOUS
 10
138.2760607180098
 20
49.85450592204462
 30
0.0
  0
VERTEX
  5
3CD
  8
0
  6
CONTINUOUS
 10
138.2802753657849
 20
49.837055386032
 30
0.0
  0
VERTEX
  5
3CE
  8
0
  6
CONTINUOUS
 10
138.28449001356
 20
49.81991266137374
 30
0.0
  0
VERTEX
  5
3CF
  8
0
  6
CONTINUOUS
 10
138.2883968499808
 20
49.80216615290501
 30
0.0
  0
VERTEX
  5
3D0
  8
0
  6
CONTINUOUS
 10
138.291699902591
 20
49.78471561689239
 30
0.0
  0
VERTEX
  5
3D1
  8
0
  6
CONTINUOUS
 10
138.2905041738683
 20
49.78291610435921
 30
0.0
  0
VERTEX
  5
3D2
  8
0
  6
CONTINUOUS
 10
138.2890006337912
 20
49.78141256428214
 30
0.0
  0
VERTEX
  5
3D3
  8
0
  6
CONTINUOUS
 10
138.2871892823598
 20
49.78080878047166
 30
0.0
  0
VERTEX
  5
3D4
  8
0
  6
CONTINUOUS
 10
138.2856857422827
 20
49.77990902420507
 30
0.0
  0
VERTEX
  5
3D5
  8
0
  6
CONTINUOUS
 10
138.2838862297495
 20
49.77930524039459
 30
0.0
  0
VERTEX
  5
3D6
  8
0
  6
CONTINUOUS
 10
138.2826786621286
 20
49.77809767277363
 30
0.0
  0
VERTEX
  5
3D7
  8
0
  6
CONTINUOUS
 10
138.281778905862
 20
49.77659413269656
 30
0.0
  0
VERTEX
  5
3D8
  8
0
  6
CONTINUOUS
 10
138.2814710945076
 20
49.77448680880902
 30
0.0
  0
VERTEX
  5
3D9
  8
0
  6
CONTINUOUS
 10
138.2865854985493
 20
49.76306227200293
 30
0.0
  0
VERTEX
  5
3DA
  8
0
  6
CONTINUOUS
 10
138.2926114977558
 20
49.75283346391954
 30
0.0
  0
VERTEX
  5
3DB
  8
0
  6
CONTINUOUS
 10
138.2989216305203
 20
49.7431966007484
 30
0.0
  0
VERTEX
  5
3DC
  8
0
  6
CONTINUOUS
 10
138.3046398183724
 20
49.73387938782986
 30
0.0
  0
VERTEX
  5
3DD
  8
0
  6
CONTINUOUS
 10
138.3091504386036
 20
49.72484630846919
 30
0.0
  0
VERTEX
  5
3DE
  8
0
  6
CONTINUOUS
 10
138.3118615463017
 20
49.71552909555065
 30
0.0
  0
VERTEX
  5
3DF
  8
0
  6
CONTINUOUS
 10
138.3121575187578
 20
49.70620004373387
 30
0.0
  0
VERTEX
  5
3E0
  8
0
  6
CONTINUOUS
 10
138.3091504386036
 20
49.69627904700484
 30
0.0
  0
VERTEX
  5
3E1
  8
0
  6
CONTINUOUS
 10
138.3013367657622
 20
49.69206439922975
 30
0.0
  0
VERTEX
  5
3E2
  8
0
  6
CONTINUOUS
 10
138.2938072264785
 20
49.68874950772125
 30
0.0
  0
VERTEX
  5
3E3
  8
0
  6
CONTINUOUS
 10
138.2859935536371
 20
49.68605023892147
 30
0.0
  0
VERTEX
  5
3E4
  8
0
  6
CONTINUOUS
 10
138.2784640143535
 20
49.68363510367956
 30
0.0
  0
VERTEX
  5
3E5
  8
0
  6
CONTINUOUS
 10
138.2712541253225
 20
49.68213156360249
 30
0.0
  0
VERTEX
  5
3E6
  8
0
  6
CONTINUOUS
 10
138.2637245860389
 20
49.68093583487978
 30
0.0
  0
VERTEX
  5
3E7
  8
0
  6
CONTINUOUS
 10
138.2562068856535
 20
49.6803320510693
 30
0.0
  0
VERTEX
  5
3E8
  8
0
  6
CONTINUOUS
 10
138.2489851577243
 20
49.6803320510693
 30
0.0
  0
VERTEX
  5
3E9
  8
0
  6
CONTINUOUS
 10
138.241467457339
 20
49.68062802352541
 30
0.0
  0
VERTEX
  5
3EA
  8
0
  6
CONTINUOUS
 10
138.2339497569536
 20
49.68123180733589
 30
0.0
  0
VERTEX
  5
3EB
  8
0
  6
CONTINUOUS
 10
138.22642021767
 20
49.68243937495685
 30
0.0
  0
VERTEX
  5
3EC
  8
0
  6
CONTINUOUS
 10
138.2186065448285
 20
49.68363510367956
 30
0.0
  0
VERTEX
  5
3ED
  8
0
  6
CONTINUOUS
 10
138.2107810330888
 20
49.68544645511099
 30
0.0
  0
VERTEX
  5
3EE
  8
0
  6
CONTINUOUS
 10
138.2029555213491
 20
49.68724596764417
 30
0.0
  0
VERTEX
  5
3EF
  8
0
  6
CONTINUOUS
 10
138.1948340371533
 20
49.68935329153172
 30
0.0
  0
VERTEX
  5
3F0
  8
0
  6
CONTINUOUS
 10
138.1867125529574
 20
49.69175658787539
 30
0.0
  0
VERTEX
  5
3F1
  8
0
  6
CONTINUOUS
 10
138.1813021764596
 20
49.69897831580462
 30
0.0
  0
VERTEX
  5
3F2
  8
0
  6
CONTINUOUS
 10
138.1761877724179
 20
49.70590407127775
 30
0.0
  0
VERTEX
  5
3F3
  8
0
  6
CONTINUOUS
 10
138.1710733683763
 20
49.71252201539651
 30
0.0
  0
VERTEX
  5
3F4
  8
0
  6
CONTINUOUS
 10
138.1656629918784
 20
49.71883214816091
 30
0.0
  0
VERTEX
  5
3F5
  8
0
  6
CONTINUOUS
 10
138.1605485878368
 20
49.72484630846919
 30
0.0
  0
VERTEX
  5
3F6
  8
0
  6
CONTINUOUS
 10
138.1551263724407
 20
49.73056449632136
 30
0.0
  0
VERTEX
  5
3F7
  8
0
  6
CONTINUOUS
 10
138.1494081845885
 20
49.73598671171741
 30
0.0
  0
VERTEX
  5
3F8
  8
0
  6
CONTINUOUS
 10
138.1437018356346
 20
49.74139708821522
 30
0.0
  0
VERTEX
  5
3F9
  8
0
  6
CONTINUOUS
 10
138.1430980518241
 20
49.74079330440473
 30
0.0
  0
VERTEX
  5
3FA
  8
0
  6
CONTINUOUS
 10
138.1424942680136
 20
49.74049733194862
 30
0.0
  0
VERTEX
  5
3FB
  8
0
  6
CONTINUOUS
 10
138.1415945117471
 20
49.74049733194862
 30
0.0
  0
VERTEX
  5
3FC
  8
0
  6
CONTINUOUS
 10
138.1403869441261
 20
49.74049733194862
 30
0.0
  0
VERTEX
  5
3FD
  8
0
  6
CONTINUOUS
 10
138.138883404049
 20
49.77930524039459
 30
0.0
  0
VERTEX
  5
3FE
  8
0
  6
CONTINUOUS
 10
138.1376758364281
 20
49.81811314884055
 30
0.0
  0
VERTEX
  5
3FF
  8
0
  6
CONTINUOUS
 10
138.1364801077054
 20
49.85690921838828
 30
0.0
  0
VERTEX
  5
400
  8
0
  6
CONTINUOUS
 10
138.1340768113617
 20
49.89481737056766
 30
0.0
  0
VERTEX
  5
401
  8
0
  6
CONTINUOUS
 10
138.1283586235095
 20
49.91677852681148
 30
0.0
  0
VERTEX
  5
402
  8
0
  6
CONTINUOUS
 10
138.125043732001
 20
49.93813589924483
 30
0.0
  0
VERTEX
  5
403
  8
0
  6
CONTINUOUS
 10
138.1229364081135
 20
49.95859351541159
 30
0.0
  0
VERTEX
  5
404
  8
0
  6
CONTINUOUS
 10
138.1214328680364
 20
49.97844734776788
 30
0.0
  0
VERTEX
  5
405
  8
0
  6
CONTINUOUS
 10
138.1199293279593
 20
49.99830118012416
 30
0.0
  0
VERTEX
  5
406
  8
0
  6
CONTINUOUS
 10
138.1175260316157
 20
50.01815501248043
 30
0.0
  0
VERTEX
  5
407
  8
0
  6
CONTINUOUS
 10
138.113619195195
 20
50.03831665619108
 30
0.0
  0
VERTEX
  5
408
  8
0
  6
CONTINUOUS
 10
138.1072972235323
 20
50.05936621727007
 30
0.0
  0
VERTEX
  5
409
  8
0
  6
CONTINUOUS
 10
138.1085047911533
 20
50.06508440512224
 30
0.0
  0
VERTEX
  5
40A
  8
0
  6
CONTINUOUS
 10
138.1081969797989
 20
50.07050662051829
 30
0.0
  0
VERTEX
  5
40B
  8
0
  6
CONTINUOUS
 10
138.1075931959884
 20
50.07652078082657
 30
0.0
  0
VERTEX
  5
40C
  8
0
  6
CONTINUOUS
 10
138.1063974672657
 20
50.08343469740144
 30
0.0
  0
VERTEX
  5
40D
  8
0
  6
CONTINUOUS
 10
138.1051898996448
 20
50.10930269006601
 30
0.0
  0
VERTEX
  5
40E
  8
0
  6
CONTINUOUS
 10
138.1018868470345
 20
50.1357863054393
 30
0.0
  0
VERTEX
  5
40F
  8
0
  6
CONTINUOUS
 10
138.0976721992594
 20
50.16255405437045
 30
0.0
  0
VERTEX
  5
410
  8
0
  6
CONTINUOUS
 10
138.0925577952177
 20
50.18933364219986
 30
0.0
  0
VERTEX
  5
411
  8
0
  6
CONTINUOUS
 10
138.087443391176
 20
50.21639736358713
 30
0.0
  0
VERTEX
  5
412
  8
0
  6
CONTINUOUS
 10
138.0829446098431
 20
50.24347292387264
 30
0.0
  0
VERTEX
  5
413
  8
0
  6
CONTINUOUS
 10
138.0799375296889
 20
50.27054848415817
 30
0.0
  0
VERTEX
  5
414
  8
0
  6
CONTINUOUS
 10
138.078729962068
 20
50.29762404444369
 30
0.0
  0
VERTEX
  5
415
  8
0
  6
CONTINUOUS
 10
138.0769304495348
 20
50.30093893595219
 30
0.0
  0
VERTEX
  5
416
  8
0
  6
CONTINUOUS
 10
138.0754269094577
 20
50.3021346646749
 30
0.0
  0
VERTEX
  5
417
  8
0
  6
CONTINUOUS
 10
138.0739233693806
 20
50.30183869221878
 30
0.0
  0
VERTEX
  5
418
  8
0
  6
CONTINUOUS
 10
138.0730117742158
 20
50.30063112459783
 30
0.0
  0
VERTEX
  5
419
  8
0
  6
CONTINUOUS
 10
138.0718160454931
 20
50.29852380071028
 30
0.0
  0
VERTEX
  5
41A
  8
0
  6
CONTINUOUS
 10
138.0712122616826
 20
50.29641647682273
 30
0.0
  0
VERTEX
  5
41B
  8
0
  6
CONTINUOUS
 10
138.070312505416
 20
50.29432099183342
 30
0.0
  0
VERTEX
  5
41C
  8
0
  6
CONTINUOUS
 10
138.0697087216055
 20
50.29281745175636
 30
0.0
  0
VERTEX
  5
41D
  8
0
  6
CONTINUOUS
 10
138.066393830097
 20
50.26724543154791
 30
0.0
  0
VERTEX
  5
41E
  8
0
  6
CONTINUOUS
 10
138.0642865062095
 20
50.24257316760605
 30
0.0
  0
VERTEX
  5
41F
  8
0
  6
CONTINUOUS
 10
138.0627829661324
 20
50.21820871501856
 30
0.0
  0
VERTEX
  5
420
  8
0
  6
CONTINUOUS
 10
138.0621910212202
 20
50.19414023488719
 30
0.0
  0
VERTEX
  5
421
  8
0
  6
CONTINUOUS
 10
138.0618832098658
 20
50.16977578229969
 30
0.0
  0
VERTEX
  5
422
  8
0
  6
CONTINUOUS
 10
138.0621910212202
 20
50.1454113297122
 30
0.0
  0
VERTEX
  5
423
  8
0
  6
CONTINUOUS
 10
138.0624869936763
 20
50.12013528195987
 30
0.0
  0
VERTEX
  5
424
  8
0
  6
CONTINUOUS
 10
138.0630907774868
 20
50.0942672892953
 30
0.0
  0
VERTEX
  5
425
  8
0
  6
CONTINUOUS
 10
138.0624869936763
 20
50.0837425087558
 30
0.0
  0
VERTEX
  5
426
  8
0
  6
CONTINUOUS
 10
138.0612794260553
 20
50.07380967312854
 30
0.0
  0
VERTEX
  5
427
  8
0
  6
CONTINUOUS
 10
138.0597758859783
 20
50.06418464885564
 30
0.0
  0
VERTEX
  5
428
  8
0
  6
CONTINUOUS
 10
138.0582723459012
 20
50.05516340839322
 30
0.0
  0
VERTEX
  5
429
  8
0
  6
CONTINUOUS
 10
138.056472833368
 20
50.04583435657644
 30
0.0
  0
VERTEX
  5
42A
  8
0
  6
CONTINUOUS
 10
138.0546614819366
 20
50.036813116114
 30
0.0
  0
VERTEX
  5
42B
  8
0
  6
CONTINUOUS
 10
138.0528619694034
 20
50.0271880918411
 30
0.0
  0
VERTEX
  5
42C
  8
0
  6
CONTINUOUS
 10
138.0513584293263
 20
50.01725525621384
 30
0.0
  0
VERTEX
  5
42D
  8
0
  6
CONTINUOUS
 10
138.0492511054388
 20
50.01635549994725
 30
0.0
  0
VERTEX
  5
42E
  8
0
  6
CONTINUOUS
 10
138.0480435378178
 20
50.01545574368065
 30
0.0
  0
VERTEX
  5
42F
  8
0
  6
CONTINUOUS
 10
138.0471437815512
 20
50.0142481760597
 30
0.0
  0
VERTEX
  5
430
  8
0
  6
CONTINUOUS
 10
138.0465399977408
 20
50.01304060843875
 30
0.0
  0
VERTEX
  5
431
  8
0
  6
CONTINUOUS
 10
138.0459362139303
 20
50.01153706836168
 30
0.0
  0
VERTEX
  5
432
  8
0
  6
CONTINUOUS
 10
138.045344269018
 20
50.0100335282846
 30
0.0
  0
VERTEX
  5
433
  8
0
  6
CONTINUOUS
 10
138.0441367013971
 20
50.0088377995619
 30
0.0
  0
VERTEX
  5
434
  8
0
  6
CONTINUOUS
 10
138.0420293775096
 20
50.00763023194094
 30
0.0
  0
VERTEX
  5
435
  8
0
  6
CONTINUOUS
 10
138.0441367013971
 20
50.00431534043244
 30
0.0
  0
VERTEX
  5
436
  8
0
  6
CONTINUOUS
 10
138.0447404852076
 20
50.00101228782218
 30
0.0
  0
VERTEX
  5
437
  8
0
  6
CONTINUOUS
 10
138.0441367013971
 20
49.99769739631368
 30
0.0
  0
VERTEX
  5
438
  8
0
  6
CONTINUOUS
 10
138.0429291337761
 20
49.99469031615953
 30
0.0
  0
VERTEX
  5
439
  8
0
  6
CONTINUOUS
 10
138.0417334050534
 20
49.99138726354928
 30
0.0
  0
VERTEX
  5
43A
  8
0
  6
CONTINUOUS
 10
138.0405258374325
 20
49.98838018339514
 30
0.0
  0
VERTEX
  5
43B
  8
0
  6
CONTINUOUS
 10
138.039922053622
 20
49.985373103241
 30
0.0
  0
VERTEX
  5
43C
  8
0
  6
CONTINUOUS
 10
138.0402298649764
 20
49.98235418418861
 30
0.0
  0
VERTEX
  5
43D
  8
0
  6
CONTINUOUS
 10
138.0402298649764
 20
49.97092964738252
 30
0.0
  0
VERTEX
  5
43E
  8
0
  6
CONTINUOUS
 10
138.0390222973554
 20
49.95829754295548
 30
0.0
  0
VERTEX
  5
43F
  8
0
  6
CONTINUOUS
 10
138.0366190010117
 20
49.94506165471795
 30
0.0
  0
VERTEX
  5
440
  8
0
  6
CONTINUOUS
 10
138.0339078933137
 20
49.93182576648044
 30
0.0
  0
VERTEX
  5
441
  8
0
  6
CONTINUOUS
 10
138.0311967856157
 20
49.91798609443244
 30
0.0
  0
VERTEX
  5
442
  8
0
  6
CONTINUOUS
 10
138.028793489272
 20
49.90444239484056
 30
0.0
  0
VERTEX
  5
443
  8
0
  6
CONTINUOUS
 10
138.0272899491949
 20
49.89091053414692
 30
0.0
  0
VERTEX
  5
444
  8
0
  6
CONTINUOUS
 10
138.0269939767388
 20
49.87827842971988
 30
0.0
  0
VERTEX
  5
445
  8
0
  6
CONTINUOUS
 10
138.0269939767388
 20
49.86022410989678
 30
0.0
  0
VERTEX
  5
446
  8
0
  6
CONTINUOUS
 10
138.0275859216511
 20
49.84308138523853
 30
0.0
  0
VERTEX
  5
447
  8
0
  6
CONTINUOUS
 10
138.028793489272
 20
49.82592682168202
 30
0.0
  0
VERTEX
  5
448
  8
0
  6
CONTINUOUS
 10
138.030001056893
 20
49.80938788083425
 30
0.0
  0
VERTEX
  5
449
  8
0
  6
CONTINUOUS
 10
138.0315045969701
 20
49.79283710108822
 30
0.0
  0
VERTEX
  5
44A
  8
0
  6
CONTINUOUS
 10
138.0324043532366
 20
49.77599034888608
 30
0.0
  0
VERTEX
  5
44B
  8
0
  6
CONTINUOUS
 10
138.0327003256928
 20
49.75914359668395
 30
0.0
  0
VERTEX
  5
44C
  8
0
  6
CONTINUOUS
 10
138.0324043532366
 20
49.74139708821522
 30
0.0
  0
VERTEX
  5
44D
  8
0
  6
CONTINUOUS
 10
138.0251826253074
 20
49.74049733194862
 30
0.0
  0
VERTEX
  5
44E
  8
0
  6
CONTINUOUS
 10
138.0206720050762
 20
49.73749025179448
 30
0.0
  0
VERTEX
  5
44F
  8
0
  6
CONTINUOUS
 10
138.0179608973782
 20
49.73267182020891
 30
0.0
  0
VERTEX
  5
450
  8
0
  6
CONTINUOUS
 10
138.0167651686555
 20
49.72695363235674
 30
0.0
  0
VERTEX
  5
451
  8
0
  6
CONTINUOUS
 10
138.0164573573011
 20
49.72064349959233
 30
0.0
  0
VERTEX
  5
452
  8
0
  6
CONTINUOUS
 10
138.0164573573011
 20
49.71371774411922
 30
0.0
  0
VERTEX
  5
453
  8
0
  6
CONTINUOUS
 10
138.016161384845
 20
49.70740761135482
 30
0.0
  0
VERTEX
  5
454
  8
0
  6
CONTINUOUS
 10
138.0146578447679
 20
49.70198539595876
 30
0.0
  0
VERTEX
  5
455
  8
0
  6
CONTINUOUS
 10
138.0119467370699
 20
49.69687099191708
 30
0.0
  0
VERTEX
  5
456
  8
0
  6
CONTINUOUS
 10
138.0086436844596
 20
49.69236037168587
 30
0.0
  0
VERTEX
  5
457
  8
0
  6
CONTINUOUS
 10
138.005032820495
 20
49.68845353526513
 30
0.0
  0
VERTEX
  5
458
  8
0
  6
CONTINUOUS
 10
138.0014219565304
 20
49.68484267130051
 30
0.0
  0
VERTEX
  5
459
  8
0
  6
CONTINUOUS
 10
137.9972073087553
 20
49.68183559114637
 30
0.0
  0
VERTEX
  5
45A
  8
0
  6
CONTINUOUS
 10
137.9926966885241
 20
49.67882851099223
 30
0.0
  0
VERTEX
  5
45B
  8
0
  6
CONTINUOUS
 10
137.988482040749
 20
49.67641337575032
 30
0.0
  0
VERTEX
  5
45C
  8
0
  6
CONTINUOUS
 10
137.9836754480617
 20
49.67431789076102
 30
0.0
  0
VERTEX
  5
45D
  8
0
  6
CONTINUOUS
 10
137.9791529889322
 20
49.67250653932958
 30
0.0
  0
VERTEX
  5
45E
  8
0
  6
CONTINUOUS
 10
137.9743463962449
 20
49.67100299925252
 30
0.0
  0
VERTEX
  5
45F
  8
0
  6
CONTINUOUS
 10
137.9695279646593
 20
49.66979543163156
 30
0.0
  0
VERTEX
  5
460
  8
0
  6
CONTINUOUS
 10
137.9650173444281
 20
49.66889567536496
 30
0.0
  0
VERTEX
  5
461
  8
0
  6
CONTINUOUS
 10
137.9605067241969
 20
49.66799591909837
 30
0.0
  0
VERTEX
  5
462
  8
0
  6
CONTINUOUS
 10
137.9562920764218
 20
49.6673921352879
 30
0.0
  0
VERTEX
  5
463
  8
0
  6
CONTINUOUS
 10
137.952385240001
 20
49.66678835147741
 30
0.0
  0
VERTEX
  5
464
  8
0
  6
CONTINUOUS
 10
137.9484784035803
 20
49.6664923790213
 30
0.0
  0
VERTEX
  5
465
  8
0
  6
CONTINUOUS
 10
137.9427602157281
 20
49.66769994664226
 30
0.0
  0
VERTEX
  5
466
  8
0
  6
CONTINUOUS
 10
137.937042027876
 20
49.66889567536496
 30
0.0
  0
VERTEX
  5
467
  8
0
  6
CONTINUOUS
 10
137.9316316513782
 20
49.66979543163156
 30
0.0
  0
VERTEX
  5
468
  8
0
  6
CONTINUOUS
 10
137.9262094359821
 20
49.6707070267964
 30
0.0
  0
VERTEX
  5
469
  8
0
  6
CONTINUOUS
 10
137.9207990594843
 20
49.67160678306299
 30
0.0
  0
VERTEX
  5
46A
  8
0
  6
CONTINUOUS
 10
137.9153768440883
 20
49.67250653932958
 30
0.0
  0
VERTEX
  5
46B
  8
0
  6
CONTINUOUS
 10
137.9099664675905
 20
49.67340629559618
 30
0.0
  0
VERTEX
  5
46C
  8
0
  6
CONTINUOUS
 10
137.9048520635488
 20
49.67461386321713
 30
0.0
  0
VERTEX
  5
46D
  8
0
  6
CONTINUOUS
 10
137.899441687051
 20
49.67611740329421
 30
0.0
  0
VERTEX
  5
46E
  8
0
  6
CONTINUOUS
 10
137.8943272830093
 20
49.67792875472563
 30
0.0
  0
VERTEX
  5
46F
  8
0
  6
CONTINUOUS
 10
137.8889050676132
 20
49.68002423971494
 30
0.0
  0
VERTEX
  5
470
  8
0
  6
CONTINUOUS
 10
137.8834946911154
 20
49.68243937495685
 30
0.0
  0
VERTEX
  5
471
  8
0
  6
CONTINUOUS
 10
137.8780843146176
 20
49.68574242756711
 30
0.0
  0
VERTEX
  5
472
  8
0
  6
CONTINUOUS
 10
137.8726620992215
 20
49.68935329153172
 30
0.0
  0
VERTEX
  5
473
  8
0
  6
CONTINUOUS
 10
137.8672517227238
 20
49.69356793930682
 30
0.0
  0
VERTEX
  5
474
  8
0
  6
CONTINUOUS
 10
137.8615335348716
 20
49.69868234334851
 30
0.0
  0
VERTEX
  5
475
  8
0
  6
CONTINUOUS
 10
137.8612375624155
 20
49.70620004373387
 30
0.0
  0
VERTEX
  5
476
  8
0
  6
CONTINUOUS
 10
137.8630370749487
 20
49.7134217716631
 30
0.0
  0
VERTEX
  5
477
  8
0
  6
CONTINUOUS
 10
137.8663519664572
 20
49.72003971578186
 30
0.0
  0
VERTEX
  5
478
  8
0
  6
CONTINUOUS
 10
137.870554775334
 20
49.7263616874445
 30
0.0
  0
VERTEX
  5
479
  8
0
  6
CONTINUOUS
 10
137.8753732069196
 20
49.73237584775279
 30
0.0
  0
VERTEX
  5
47A
  8
0
  6
CONTINUOUS
 10
137.8795878546947
 20
49.73868598051719
 30
0.0
  0
VERTEX
  5
47B
  8
0
  6
CONTINUOUS
 10
137.8834946911154
 20
49.74500795217983
 30
0.0
  0
VERTEX
  5
47C
  8
0
  6
CONTINUOUS
 10
137.8858979874591
 20
49.75162589629859
 30
0.0
  0
VERTEX
  5
47D
  8
0
  6
CONTINUOUS
 10
137.8847022587364
 20
49.75463297645273
 30
0.0
  0
VERTEX
  5
47E
  8
0
  6
CONTINUOUS
 10
137.8825949348488
 20
49.7570362727964
 30
0.0
  0
VERTEX
  5
47F
  8
0
  6
CONTINUOUS
 10
137.8801916385052
 20
49.75945140803831
 30
0.0
  0
VERTEX
  5
480
  8
0
  6
CONTINUOUS
 10
137.8789840708842
 20
49.76245848819245
 30
0.0
  0
VERTEX
  5
481
  8
0
  6
CONTINUOUS
 10
137.8852942036486
 20
49.77990902420507
 30
0.0
  0
VERTEX
  5
482
  8
0
  6
CONTINUOUS
 10
137.8901126352342
 20
49.7976555326738
 30
0.0
  0
VERTEX
  5
483
  8
0
  6
CONTINUOUS
 10
137.8928237429322
 20
49.81600582495301
 30
0.0
  0
VERTEX
  5
484
  8
0
  6
CONTINUOUS
 10
137.8943272830093
 20
49.83495990104269
 30
0.0
  0
VERTEX
  5
485
  8
0
  6
CONTINUOUS
 10
137.8937234991988
 20
49.8542099495885
 30
0.0
  0
VERTEX
  5
486
  8
0
  6
CONTINUOUS
 10
137.8919239866656
 20
49.87375597059042
 30
0.0
  0
VERTEX
  5
487
  8
0
  6
CONTINUOUS
 10
137.888313122701
 20
49.89391761430106
 30
0.0
  0
VERTEX
  5
488
  8
0
  6
CONTINUOUS
 10
137.8834946911154
 20
49.91467120292393
 30
0.0
  0
VERTEX
  5
489
  8
0
  6
CONTINUOUS
 10
137.8837906635715
 20
49.92671136243874
 30
0.0
  0
VERTEX
  5
48A
  8
0
  6
CONTINUOUS
 10
137.8847022587364
 20
49.93783992678872
 30
0.0
  0
VERTEX
  5
48B
  8
0
  6
CONTINUOUS
 10
137.8862057988134
 20
49.94836470732822
 30
0.0
  0
VERTEX
  5
48C
  8
0
  6
CONTINUOUS
 10
137.8880053113466
 20
49.95829754295548
 30
0.0
  0
VERTEX
  5
48D
  8
0
  6
CONTINUOUS
 10
137.8901126352342
 20
49.96792256722838
 30
0.0
  0
VERTEX
  5
48E
  8
0
  6
CONTINUOUS
 10
137.8925159315778
 20
49.9778435639574
 30
0.0
  0
VERTEX
  5
48F
  8
0
  6
CONTINUOUS
 10
137.8946232554654
 20
49.98807237204078
 30
0.0
  0
VERTEX
  5
490
  8
0
  6
CONTINUOUS
 10
137.8967305793529
 20
49.99890496393463
 30
0.0
  0
VERTEX
  5
491
  8
0
  6
CONTINUOUS
 10
137.8964346068968
 20
50.01725525621384
 30
0.0
  0
VERTEX
  5
492
  8
0
  6
CONTINUOUS
 10
137.8970265518091
 20
50.0343979808721
 30
0.0
  0
VERTEX
  5
493
  8
0
  6
CONTINUOUS
 10
137.8976303356195
 20
50.05094876061812
 30
0.0
  0
VERTEX
  5
494
  8
0
  6
CONTINUOUS
 10
137.8988379032405
 20
50.0674877014659
 30
0.0
  0
VERTEX
  5
495
  8
0
  6
CONTINUOUS
 10
137.9003414433176
 20
50.0837425087558
 30
0.0
  0
VERTEX
  5
496
  8
0
  6
CONTINUOUS
 10
137.9021409558507
 20
50.10058926095795
 30
0.0
  0
VERTEX
  5
497
  8
0
  6
CONTINUOUS
 10
137.9036563348261
 20
50.11833576942668
 30
0.0
  0
VERTEX
  5
498
  8
0
  6
CONTINUOUS
 10
137.9054558473592
 20
50.13758581797249
 30
0.0
  0
VERTEX
  5
499
  8
0
  6
CONTINUOUS
 10
137.9036563348261
 20
50.15472854263074
 30
0.0
  0
VERTEX
  5
49A
  8
0
  6
CONTINUOUS
 10
137.9036563348261
 20
50.17307883490995
 30
0.0
  0
VERTEX
  5
49B
  8
0
  6
CONTINUOUS
 10
137.9048520635488
 20
50.19173693854352
 30
0.0
  0
VERTEX
  5
49C
  8
0
  6
CONTINUOUS
 10
137.9063556036258
 20
50.21069101463321
 30
0.0
  0
VERTEX
  5
49D
  8
0
  6
CONTINUOUS
 10
137.9081669550573
 20
50.22933727936854
 30
0.0
  0
VERTEX
  5
49E
  8
0
  6
CONTINUOUS
 10
137.9096704951343
 20
50.24768757164775
 30
0.0
  0
VERTEX
  5
49F
  8
0
  6
CONTINUOUS
 10
137.9099664675905
 20
50.26543408011648
 30
0.0
  0
VERTEX
  5
4A0
  8
0
  6
CONTINUOUS
 10
137.9087588999695
 20
50.2819848598625
 30
0.0
  0
VERTEX
  5
4A1
  8
0
  6
CONTINUOUS
 10
137.9081669550573
 20
50.29432099183342
 30
0.0
  0
VERTEX
  5
4A2
  8
0
  6
CONTINUOUS
 10
137.9066634149802
 20
50.30634931245
 30
0.0
  0
VERTEX
  5
4A3
  8
0
  6
CONTINUOUS
 10
137.9048520635488
 20
50.31808166061045
 30
0.0
  0
VERTEX
  5
4A4
  8
0
  6
CONTINUOUS
 10
137.9024487672051
 20
50.32921022496041
 30
0.0
  0
VERTEX
  5
4A5
  8
0
  6
CONTINUOUS
 10
137.9006374157737
 20
50.34004281685427
 30
0.0
  0
VERTEX
  5
4A6
  8
0
  6
CONTINUOUS
 10
137.8997376595071
 20
50.35087540874813
 30
0.0
  0
VERTEX
  5
4A7
  8
0
  6
CONTINUOUS
 10
137.9003414433176
 20
50.36169616174374
 30
0.0
  0
VERTEX
  5
4A8
  8
0
  6
CONTINUOUS
 10
137.9024487672051
 20
50.3725287536376
 30
0.0
  0
VERTEX
  5
4A9
  8
0
  6
CONTINUOUS
 10
137.900945227128
 20
50.37463607752515
 30
0.0
  0
VERTEX
  5
4AA
  8
0
  6
CONTINUOUS
 10
137.8991338756966
 20
50.37644742895657
 30
0.0
  0
VERTEX
  5
4AB
  8
0
  6
CONTINUOUS
 10
137.8973343631634
 20
50.37854291394588
 30
0.0
  0
VERTEX
  5
4AC
  8
0
  6
CONTINUOUS
 10
137.895523011732
 20
50.38035426537731
 30
0.0
  0
VERTEX
  5
4AD
  8
0
  6
CONTINUOUS
 10
137.8934275267427
 20
50.37674340141269
 30
0.0
  0
VERTEX
  5
4AE
  8
0
  6
CONTINUOUS
 10
137.8910123915008
 20
50.37192496982712
 30
0.0
  0
VERTEX
  5
4AF
  8
0
  6
CONTINUOUS
 10
137.888313122701
 20
50.36681056578543
 30
0.0
  0
VERTEX
  5
4B0
  8
0
  6
CONTINUOUS
 10
137.8852942036486
 20
50.3620039730981
 30
0.0
  0
VERTEX
  5
4B1
  8
0
  6
CONTINUOUS
 10
137.8816951785822
 20
50.35809713667737
 30
0.0
  0
VERTEX
  5
4B2
  8
0
  6
CONTINUOUS
 10
137.8774805308071
 20
50.35628578524594
 30
0.0
  0
VERTEX
  5
4B3
  8
0
  6
CONTINUOUS
 10
137.8726620992215
 20
50.35658175770205
 30
0.0
  0
VERTEX
  5
4B4
  8
0
  6
CONTINUOUS
 10
137.8669439113694
 20
50.36050043302103
 30
0.0
  0
VERTEX
  5
4B5
  8
0
  6
CONTINUOUS
 10
137.8609297510611
 20
50.36711837713979
 30
0.0
  0
VERTEX
  5
4B6
  8
0
  6
CONTINUOUS
 10
137.8552115632089
 20
50.37342850990419
 30
0.0
  0
VERTEX
  5
4B7
  8
0
  6
CONTINUOUS
 10
137.8501089980655
 20
50.37975048156683
 30
0.0
  0
VERTEX
  5
4B8
  8
0
  6
CONTINUOUS
 10
137.845586538936
 20
50.3863684256856
 30
0.0
  0
VERTEX
  5
4B9
  8
0
  6
CONTINUOUS
 10
137.8413837300592
 20
50.39269039734824
 30
0.0
  0
VERTEX
  5
4BA
  8
0
  6
CONTINUOUS
 10
137.8380688385507
 20
50.399308341467
 30
0.0
  0
VERTEX
  5
4BB
  8
0
  6
CONTINUOUS
 10
137.835665542207
 20
50.40592628558576
 30
0.0
  0
VERTEX
  5
4BC
  8
0
  6
CONTINUOUS
 10
137.8338541907756
 20
50.41254422970452
 30
0.0
  0
VERTEX
  5
4BD
  8
0
  6
CONTINUOUS
 10
137.8347657859404
 20
50.42035790254599
 30
0.0
  0
VERTEX
  5
4BE
  8
0
  6
CONTINUOUS
 10
137.8359615146631
 20
50.42847938674182
 30
0.0
  0
VERTEX
  5
4BF
  8
0
  6
CONTINUOUS
 10
137.8368612709297
 20
50.4366127098359
 30
0.0
  0
VERTEX
  5
4C0
  8
0
  6
CONTINUOUS
 10
137.8371690822841
 20
50.44473419403172
 30
0.0
  0
VERTEX
  5
4C1
  8
0
  6
CONTINUOUS
 10
137.8371690822841
 20
50.45285567822756
 30
0.0
  0
VERTEX
  5
4C2
  8
0
  6
CONTINUOUS
 10
137.8362693260175
 20
50.46066935106903
 30
0.0
  0
VERTEX
  5
4C3
  8
0
  6
CONTINUOUS
 10
137.8344579745861
 20
50.46879083526486
 30
0.0
  0
VERTEX
  5
4C4
  8
0
  6
CONTINUOUS
 10
137.8314508944319
 20
50.47632037454846
 30
0.0
  0
VERTEX
  5
4C5
  8
0
  6
CONTINUOUS
 10
137.8311549219758
 20
50.48323429112334
 30
0.0
  0
VERTEX
  5
4C6
  8
0
  6
CONTINUOUS
 10
137.8296513818987
 20
50.4910479639648
 30
0.0
  0
VERTEX
  5
4C7
  8
0
  6
CONTINUOUS
 10
137.8269402742007
 20
50.49886163680628
 30
0.0
  0
VERTEX
  5
4C8
  8
0
  6
CONTINUOUS
 10
137.8236253826922
 20
50.5048876360128
 30
0.0
  0
VERTEX
  5
4C9
  8
0
  6
CONTINUOUS
 10
137.8254367341236
 20
50.51691595662937
 30
0.0
  0
VERTEX
  5
4CA
  8
0
  6
CONTINUOUS
 10
137.8272362466568
 20
50.52925208860029
 30
0.0
  0
VERTEX
  5
4CB
  8
0
  6
CONTINUOUS
 10
137.8290475980883
 20
50.54098443676074
 30
0.0
  0
VERTEX
  5
4CC
  8
0
  6
CONTINUOUS
 10
137.8305511381653
 20
50.55211300111072
 30
0.0
  0
VERTEX
  5
4CD
  8
0
  6
CONTINUOUS
 10
137.8290475980883
 20
50.56866378085674
 30
0.0
  0
VERTEX
  5
4CE
  8
0
  6
CONTINUOUS
 10
137.8275440580112
 20
50.585806505515
 30
0.0
  0
VERTEX
  5
4CF
  8
0
  6
CONTINUOUS
 10
137.8269402742007
 20
50.60325704152761
 30
0.0
  0
VERTEX
  5
4D0
  8
0
  6
CONTINUOUS
 10
137.8272362466568
 20
50.62100354999635
 30
0.0
  0
VERTEX
  5
4D1
  8
0
  6
CONTINUOUS
 10
137.8293435705444
 20
50.63875005846508
 30
0.0
  0
VERTEX
  5
4D2
  8
0
  6
CONTINUOUS
 10
137.8335582183195
 20
50.65649656693381
 30
0.0
  0
VERTEX
  5
4D3
  8
0
  6
CONTINUOUS
 10
137.8404721348944
 20
50.67394710294643
 30
0.0
  0
VERTEX
  5
4D4
  8
0
  6
CONTINUOUS
 10
137.8504049705216
 20
50.69139763895905
 30
0.0
  0
VERTEX
  5
4D5
  8
0
  6
CONTINUOUS
 10
137.849505214255
 20
50.69741179926733
 30
0.0
  0
VERTEX
  5
4D6
  8
0
  6
CONTINUOUS
 10
137.8504049705216
 20
50.70342595957561
 30
0.0
  0
VERTEX
  5
4D7
  8
0
  6
CONTINUOUS
 10
137.8519085105987
 20
50.70944011988389
 30
0.0
  0
VERTEX
  5
4D8
  8
0
  6
CONTINUOUS
 10
137.8528082668653
 20
50.71576209154654
 30
0.0
  0
VERTEX
  5
4D9
  8
0
  6
CONTINUOUS
 10
137.8491974029006
 20
50.72448735955285
 30
0.0
  0
VERTEX
  5
4DA
  8
0
  6
CONTINUOUS
 10
137.8482976466341
 20
50.73260884374868
 30
0.0
  0
VERTEX
  5
4DB
  8
0
  6
CONTINUOUS
 10
137.8498011867111
 20
50.7404343554884
 30
0.0
  0
VERTEX
  5
4DC
  8
0
  6
CONTINUOUS
 10
137.8525122944092
 20
50.74824802832986
 30
0.0
  0
VERTEX
  5
4DD
  8
0
  6
CONTINUOUS
 10
137.8558153470194
 20
50.75577756761346
 30
0.0
  0
VERTEX
  5
4DE
  8
0
  6
CONTINUOUS
 10
137.8591302385279
 20
50.76359124045493
 30
0.0
  0
VERTEX
  5
4DF
  8
0
  6
CONTINUOUS
 10
137.8621373186821
 20
50.77141675219465
 30
0.0
  0
VERTEX
  5
4E0
  8
0
  6
CONTINUOUS
 10
137.8636408587591
 20
50.77953823639048
 30
0.0
  0
VERTEX
  5
4E1
  8
0
  6
CONTINUOUS
 10
137.8657481826467
 20
50.79127058455093
 30
0.0
  0
VERTEX
  5
4E2
  8
0
  6
CONTINUOUS
 10
137.8669439113694
 20
50.80390268897797
 30
0.0
  0
VERTEX
  5
4E3
  8
0
  6
CONTINUOUS
 10
137.8672517227238
 20
50.81713857721549
 30
0.0
  0
VERTEX
  5
4E4
  8
0
  6
CONTINUOUS
 10
137.8672517227238
 20
50.83068227680737
 30
0.0
  0
VERTEX
  5
4E5
  8
0
  6
CONTINUOUS
 10
137.8669439113694
 20
50.84421413750101
 30
0.0
  0
VERTEX
  5
4E6
  8
0
  6
CONTINUOUS
 10
137.8669439113694
 20
50.85834978200513
 30
0.0
  0
VERTEX
  5
4E7
  8
0
  6
CONTINUOUS
 10
137.8669439113694
 20
50.87218945405312
 30
0.0
  0
VERTEX
  5
4E8
  8
0
  6
CONTINUOUS
 10
137.8675476951799
 20
50.88602912610112
 30
0.0
  0
VERTEX
  5
4E9
  8
0
  6
CONTINUOUS
 10
137.8690512352569
 20
50.899572825693
 30
0.0
  0
VERTEX
  5
4EA
  8
0
  6
CONTINUOUS
 10
137.8714663704988
 20
50.91280871393052
 30
0.0
  0
VERTEX
  5
4EB
  8
0
  6
CONTINUOUS
 10
137.8753732069196
 20
50.92573679081368
 30
0.0
  0
VERTEX
  5
4EC
  8
0
  6
CONTINUOUS
 10
137.8807835834174
 20
50.93807292278461
 30
0.0
  0
VERTEX
  5
4ED
  8
0
  6
CONTINUOUS
 10
137.8877093388905
 20
50.94950929848894
 30
0.0
  0
VERTEX
  5
4EE
  8
0
  6
CONTINUOUS
 10
137.8970265518091
 20
50.96003407902844
 30
0.0
  0
VERTEX
  5
4EF
  8
0
  6
CONTINUOUS
 10
137.9087588999695
 20
50.96965910330134
 30
0.0
  0
VERTEX
  5
4F0
  8
0
  6
CONTINUOUS
 10
137.9229063833719
 20
50.97808839885153
 30
0.0
  0
VERTEX
  5
4F1
  8
0
  6
CONTINUOUS
 10
137.9298202999467
 20
50.97928412757424
 30
0.0
  0
VERTEX
  5
4F2
  8
0
  6
CONTINUOUS
 10
137.937042027876
 20
50.98078766765131
 30
0.0
  0
VERTEX
  5
4F3
  8
0
  6
CONTINUOUS
 10
137.9442637558052
 20
50.98229120772838
 30
0.0
  0
VERTEX
  5
4F4
  8
0
  6
CONTINUOUS
 10
137.9514854837344
 20
50.98379474780545
 30
0.0
  0
VERTEX
  5
4F5
  8
0
  6
CONTINUOUS
 10
137.9587072116637
 20
50.98529828788253
 30
0.0
  0
VERTEX
  5
4F6
  8
0
  6
CONTINUOUS
 10
137.9656211282386
 20
50.98740561177007
 30
0.0
  0
VERTEX
  5
4F7
  8
0
  6
CONTINUOUS
 10
137.9728428561678
 20
50.98921696320151
 30
0.0
  0
VERTEX
  5
4F8
  8
0
  6
CONTINUOUS
 10
137.980064584097
 20
50.99162025954517
 30
0.0
  0
VERTEX
  5
4F9
  8
0
  6
CONTINUOUS
 10
137.9869785006719
 20
50.99402355588883
 30
0.0
  0
VERTEX
  5
4FA
  8
0
  6
CONTINUOUS
 10
137.9942002286012
 20
50.99673466358686
 30
0.0
  0
VERTEX
  5
4FB
  8
0
  6
CONTINUOUS
 10
138.0008181727199
 20
50.999741743741
 30
0.0
  0
VERTEX
  5
4FC
  8
0
  6
CONTINUOUS
 10
138.0077320892948
 20
51.00335260770562
 30
0.0
  0
VERTEX
  5
4FD
  8
0
  6
CONTINUOUS
 10
138.0143500334135
 20
51.00696347167024
 30
0.0
  0
VERTEX
  5
4FE
  8
0
  6
CONTINUOUS
 10
138.0209679775323
 20
51.01117811944533
 30
0.0
  0
VERTEX
  5
4FF
  8
0
  6
CONTINUOUS
 10
138.0272899491949
 20
51.01568873967655
 30
0.0
  0
VERTEX
  5
500
  8
0
  6
CONTINUOUS
 10
138.0333041095032
 20
51.02080314371823
 30
0.0
  0
VERTEX
  5
501
  8
0
  6
CONTINUOUS
 10
138.0351154609347
 20
51.02501779149333
 30
0.0
  0
VERTEX
  5
502
  8
0
  6
CONTINUOUS
 10
138.0354114333908
 20
51.0286168165597
 30
0.0
  0
VERTEX
  5
503
  8
0
  6
CONTINUOUS
 10
138.0357074058469
 20
51.03253549187868
 30
0.0
  0
VERTEX
  5
504
  8
0
  6
CONTINUOUS
 10
138.0366190010117
 20
51.03644232829942
 30
0.0
  0
VERTEX
  5
505
  8
0
  6
CONTINUOUS
 10
138.0324043532366
 20
51.04336808377254
 30
0.0
  0
VERTEX
  5
506
  8
0
  6
CONTINUOUS
 10
138.0296932455386
 20
51.04967821653694
 30
0.0
  0
VERTEX
  5
507
  8
0
  6
CONTINUOUS
 10
138.0278937330054
 20
51.05539640438911
 30
0.0
  0
VERTEX
  5
508
  8
0
  6
CONTINUOUS
 10
138.0263901929283
 20
51.06111459224127
 30
0.0
  0
VERTEX
  5
509
  8
0
  6
CONTINUOUS
 10
138.0248866528513
 20
51.0668209411952
 30
0.0
  0
VERTEX
  5
50A
  8
0
  6
CONTINUOUS
 10
138.0230753014199
 20
51.07224315659125
 30
0.0
  0
VERTEX
  5
50B
  8
0
  6
CONTINUOUS
 10
138.0206720050762
 20
51.07796134444342
 30
0.0
  0
VERTEX
  5
50C
  8
0
  6
CONTINUOUS
 10
138.0167651686555
 20
51.0839755047517
 30
0.0
  0
VERTEX
  5
50D
  8
0
  6
CONTINUOUS
 10
138.0107391694489
 20
51.08758636871632
 30
0.0
  0
VERTEX
  5
50E
  8
0
  6
CONTINUOUS
 10
138.0074361168387
 20
51.09239296140365
 30
0.0
  0
VERTEX
  5
50F
  8
0
  6
CONTINUOUS
 10
138.0056247654072
 20
51.09781517679969
 30
0.0
  0
VERTEX
  5
510
  8
0
  6
CONTINUOUS
 10
138.005032820495
 20
51.10353336465186
 30
0.0
  0
VERTEX
  5
511
  8
0
  6
CONTINUOUS
 10
138.005032820495
 20
51.10984349741626
 30
0.0
  0
VERTEX
  5
512
  8
0
  6
CONTINUOUS
 10
138.0044290366845
 20
51.11585765772455
 30
0.0
  0
VERTEX
  5
513
  8
0
  6
CONTINUOUS
 10
138.0026176852531
 20
51.12157584557671
 30
0.0
  0
VERTEX
  5
514
  8
0
  6
CONTINUOUS
 10
137.9993146326428
 20
51.12698622207451
 30
0.0
  0
VERTEX
  5
515
  8
0
  6
CONTINUOUS
 10
137.9950999848677
 20
51.1372150301579
 30
0.0
  0
VERTEX
  5
516
  8
0
  6
CONTINUOUS
 10
137.9920929047136
 20
51.14714786578516
 30
0.0
  0
VERTEX
  5
517
  8
0
  6
CONTINUOUS
 10
137.9905893646365
 20
51.15737667386854
 30
0.0
  0
VERTEX
  5
518
  8
0
  6
CONTINUOUS
 10
137.989985580826
 20
51.16760548195192
 30
0.0
  0
VERTEX
  5
519
  8
0
  6
CONTINUOUS
 10
137.9908853370926
 20
51.1778342900353
 30
0.0
  0
VERTEX
  5
51A
  8
0
  6
CONTINUOUS
 10
137.9926966885241
 20
51.18775528676431
 30
0.0
  0
VERTEX
  5
51B
  8
0
  6
CONTINUOUS
 10
137.9959997411343
 20
51.19768812239158
 30
0.0
  0
VERTEX
  5
51C
  8
0
  6
CONTINUOUS
 10
138.0002143889094
 20
51.2076091191206
 30
0.0
  0
VERTEX
  5
51D
  8
0
  6
CONTINUOUS
 10
138.0044290366845
 20
51.21121998308521
 30
0.0
  0
VERTEX
  5
51E
  8
0
  6
CONTINUOUS
 10
138.0086436844596
 20
51.21483084704983
 30
0.0
  0
VERTEX
  5
51F
  8
0
  6
CONTINUOUS
 10
138.0131543046908
 20
51.21844171101445
 30
0.0
  0
VERTEX
  5
520
  8
0
  6
CONTINUOUS
 10
138.0173571135677
 20
51.22205257497907
 30
0.0
  0
VERTEX
  5
521
  8
0
  6
CONTINUOUS
 10
138.0218795726971
 20
51.22566343894369
 30
0.0
  0
VERTEX
  5
522
  8
0
  6
CONTINUOUS
 10
138.026082381574
 20
51.22927430290831
 30
0.0
  0
VERTEX
  5
523
  8
0
  6
CONTINUOUS
 10
138.0302970293491
 20
51.23318113932904
 30
0.0
  0
VERTEX
  5
524
  8
0
  6
CONTINUOUS
 10
138.0345116771242
 20
51.23679200329367
 30
0.0
  0
VERTEX
  5
525
  8
0
  6
CONTINUOUS
 10
138.0384185135449
 20
51.2406988397144
 30
0.0
  0
VERTEX
  5
526
  8
0
  6
CONTINUOUS
 10
138.0420293775096
 20
51.24461751503338
 30
0.0
  0
VERTEX
  5
527
  8
0
  6
CONTINUOUS
 10
138.0456402414742
 20
51.24852435145412
 30
0.0
  0
VERTEX
  5
528
  8
0
  6
CONTINUOUS
 10
138.0489551329827
 20
51.25273899922921
 30
0.0
  0
VERTEX
  5
529
  8
0
  6
CONTINUOUS
 10
138.0519622131368
 20
51.2569536470043
 30
0.0
  0
VERTEX
  5
52A
  8
0
  6
CONTINUOUS
 10
138.0543655094805
 20
51.26115645588116
 30
0.0
  0
VERTEX
  5
52B
  8
0
  6
CONTINUOUS
 10
138.0567688058241
 20
51.26567891501061
 30
0.0
  0
VERTEX
  5
52C
  8
0
  6
CONTINUOUS
 10
138.0585801572556
 20
51.27048550769794
 30
0.0
  0
VERTEX
  5
52D
  8
0
  6
CONTINUOUS
 10
138.0624869936763
 20
51.27229685912937
 30
0.0
  0
VERTEX
  5
52E
  8
0
  6
CONTINUOUS
 10
138.0667016414514
 20
51.27409637166256
 30
0.0
  0
VERTEX
  5
52F
  8
0
  6
CONTINUOUS
 10
138.0706084778721
 20
51.27589588419575
 30
0.0
  0
VERTEX
  5
530
  8
0
  6
CONTINUOUS
 10
138.0751190981034
 20
51.27800320808329
 30
0.0
  0
VERTEX
  5
531
  8
0
  6
CONTINUOUS
 10
138.0793337458784
 20
51.27981455951473
 30
0.0
  0
VERTEX
  5
532
  8
0
  6
CONTINUOUS
 10
138.0835483936535
 20
51.28161407204792
 30
0.0
  0
VERTEX
  5
533
  8
0
  6
CONTINUOUS
 10
138.0880471749865
 20
51.28311761212498
 30
0.0
  0
VERTEX
  5
534
  8
0
  6
CONTINUOUS
 10
138.0925577952177
 20
51.28402920728982
 30
0.0
  0
VERTEX
  5
535
  8
0
  6
CONTINUOUS
 10
138.0967724429928
 20
51.28492896355642
 30
0.0
  0
VERTEX
  5
536
  8
0
  6
CONTINUOUS
 10
138.101283063224
 20
51.28492896355642
 30
0.0
  0
VERTEX
  5
537
  8
0
  6
CONTINUOUS
 10
138.1054977109991
 20
51.28462115220206
 30
0.0
  0
VERTEX
  5
538
  8
0
  6
CONTINUOUS
 10
138.109700519876
 20
51.28342542347934
 30
0.0
  0
VERTEX
  5
539
  8
0
  6
CONTINUOUS
 10
138.1142229790054
 20
51.28161407204792
 30
0.0
  0
VERTEX
  5
53A
  8
0
  6
CONTINUOUS
 10
138.1181298154262
 20
51.27891480324814
 30
0.0
  0
VERTEX
  5
53B
  8
0
  6
CONTINUOUS
 10
138.1223444632013
 20
51.27530393928351
 30
0.0
  0
VERTEX
  5
53C
  8
0
  6
CONTINUOUS
 10
138.126251299622
 20
51.27048550769794
 30
0.0
  0
SEQEND
  5
53D
  8
0
  6
CONTINUOUS
  0
ENDSEC
  0
EOF
