  0
SECTION
  2
HEADER
  9
$ACADVER
  1
AC1009
  9
$DWGCODEPAGE
  3
ansi_1252
  9
$INSBASE
 10
139.6055488808665
 20
51.75289857007626
 30
0.0
  9
$EXTMIN
 10
139.1011379356076
 20
51.74593040629189
 30
0.0
  9
$EXTMAX
 10
140.1023778404488
 20
53.56055639375989
 30
0.0
  9
$LIMMIN
 10
0.0
 20
0.0
  9
$LIMMAX
 10
420.0
 20
297.0
  9
$ORTHOMODE
 70
     0
  9
$REGENMODE
 70
     1
  9
$FILLMODE
 70
     1
  9
$QTEXTMODE
 70
     0
  9
$MIRRTEXT
 70
     1
  9
$DRAGMODE
 70
     2
  9
$LTSCALE
 40
1.0
  9
$OSMODE
 70
    37
  9
$ATTMODE
 70
     1
  9
$TEXTSIZE
 40
2.5
  9
$TRACEWID
 40
1.0
  9
$TEXTSTYLE
  7
STANDARD
  9
$CLAYER
  8
0
  9
$CELTYPE
  6
BYLAYER
  9
$CECOLOR
 62
   256
  9
$DIMSCALE
 40
1.0
  9
$DIMASZ
 40
2.5
  9
$DIMEXO
 40
0.625
  9
$DIMDLI
 40
3.75
  9
$DIMRND
 40
0.0
  9
$DIMDLE
 40
0.0
  9
$DIMEXE
 40
1.25
  9
$DIMTP
 40
0.0
  9
$DIMTM
 40
0.0
  9
$DIMTXT
 40
2.5
  9
$DIMCEN
 40
2.5
  9
$DIMTSZ
 40
0.0
  9
$DIMTOL
 70
     0
  9
$DIMLIM
 70
     0
  9
$DIMTIH
 70
     0
  9
$DIMTOH
 70
     0
  9
$DIMSE1
 70
     0
  9
$DIMSE2
 70
     0
  9
$DIMTAD
 70
     1
  9
$DIMZIN
 70
     8
  9
$DIMBLK
  1

  9
$DIMASO
 70
     1
  9
$DIMSHO
 70
     1
  9
$DIMPOST
  1

  9
$DIMAPOST
  1

  9
$DIMALT
 70
     0
  9
$DIMALTD
 70
     4
  9
$DIMALTF
 40
0.0394
  9
$DIMLFAC
 40
1.0
  9
$DIMTOFL
 70
     1
  9
$DIMTVP
 40
0.0
  9
$DIMTIX
 70
     0
  9
$DIMSOXD
 70
     0
  9
$DIMSAH
 70
     0
  9
$DIMBLK1
  1

  9
$DIMBLK2
  1

  9
$DIMSTYLE
  2
STANDARD
  9
$DIMCLRD
 70
     0
  9
$DIMCLRE
 70
     0
  9
$DIMCLRT
 70
     0
  9
$DIMTFAC
 40
1.0
  9
$DIMGAP
 40
0.625
  9
$LUNITS
 70
     2
  9
$LUPREC
 70
     4
  9
$SKETCHINC
 40
1.0
  9
$FILLETRAD
 40
10.0
  9
$AUNITS
 70
     0
  9
$AUPREC
 70
     0
  9
$MENU
  1
.
  9
$ELEVATION
 40
0.0
  9
$PELEVATION
 40
0.0
  9
$THICKNESS
 40
0.0
  9
$LIMCHECK
 70
     0
  9
$CHAMFERA
 40
10.0
  9
$CHAMFERB
 40
10.0
  9
$SKPOLY
 70
     0
  9
$TDCREATE
 40
2451826.675523137
  9
$TDUPDATE
 40
2457483.532638889
  9
$TDINDWG
 40
0.0612425926
  9
$TDUSRTIMER
 40
0.0612425926
  9
$USRTIMER
 70
     1
  9
$ANGBASE
 50
0.0
  9
$ANGDIR
 70
     0
  9
$PDMODE
 70
     0
  9
$PDSIZE
 40
0.0
  9
$PLINEWID
 40
0.0
  9
$COORDS
 70
     1
  9
$SPLFRAME
 70
     0
  9
$SPLINETYPE
 70
     6
  9
$SPLINESEGS
 70
     8
  9
$ATTDIA
 70
     0
  9
$ATTREQ
 70
     1
  9
$HANDLING
 70
     1
  9
$HANDSEED
  5
84E
  9
$SURFTAB1
 70
     6
  9
$SURFTAB2
 70
     6
  9
$SURFTYPE
 70
     6
  9
$SURFU
 70
     6
  9
$SURFV
 70
     6
  9
$UCSNAME
  2

  9
$UCSORG
 10
0.0
 20
0.0
 30
0.0
  9
$UCSXDIR
 10
1.0
 20
0.0
 30
0.0
  9
$UCSYDIR
 10
0.0
 20
1.0
 30
0.0
  9
$PUCSNAME
  2

  9
$PUCSORG
 10
0.0
 20
0.0
 30
0.0
  9
$PUCSXDIR
 10
1.0
 20
0.0
 30
0.0
  9
$PUCSYDIR
 10
0.0
 20
1.0
 30
0.0
  9
$USERI1
 70
     0
  9
$USERI2
 70
     0
  9
$USERI3
 70
     0
  9
$USERI4
 70
     0
  9
$USERI5
 70
     0
  9
$USERR1
 40
0.0
  9
$USERR2
 40
0.0
  9
$USERR3
 40
0.0
  9
$USERR4
 40
0.0
  9
$USERR5
 40
0.0
  9
$WORLDVIEW
 70
     1
  9
$SHADEDGE
 70
     3
  9
$SHADEDIF
 70
    70
  9
$TILEMODE
 70
     1
  9
$MAXACTVP
 70
    48
  9
$PLIMCHECK
 70
     0
  9
$PEXTMIN
 10
1.000000000000000E+20
 20
1.000000000000000E+20
 30
1.000000000000000E+20
  9
$PEXTMAX
 10
-1.000000000000000E+20
 20
-1.000000000000000E+20
 30
-1.000000000000000E+20
  9
$PLIMMIN
 10
0.0
 20
0.0
  9
$PLIMMAX
 10
420.0
 20
297.0
  9
$UNITMODE
 70
     0
  9
$VISRETAIN
 70
     1
  9
$PLINEGEN
 70
     0
  9
$PSLTSCALE
 70
     1
  0
ENDSEC
  0
SECTION
  2
TABLES
  0
TABLE
  2
VPORT
 70
     1
  0
VPORT
  2
*ACTIVE
 70
     0
 10
0.0
 20
0.0
 11
1.0
 21
1.0
 12
139.6005257982767
 22
52.8661702945926
 13
0.0
 23
0.0
 14
10.0
 24
10.0
 15
10.0
 25
10.0
 16
0.0
 26
0.0
 36
1.0
 17
0.0
 27
0.0
 37
0.0
 40
2.263764864440339
 41
1.503537735849057
 42
50.0
 43
0.0
 44
0.0
 50
0.0
 51
0.0
 71
     0
 72
   100
 73
     1
 74
     1
 75
     0
 76
     0
 77
     0
 78
     0
  0
ENDTAB
  0
TABLE
  2
LTYPE
 70
     1
  0
LTYPE
  2
CONTINUOUS
 70
     0
  3
Solid line
 72
    65
 73
     0
 40
0.0
  0
ENDTAB
  0
TABLE
  2
LAYER
 70
     1
  0
LAYER
  2
0
 70
     0
 62
     7
  6
CONTINUOUS
  0
ENDTAB
  0
TABLE
  2
STYLE
 70
     1
  0
STYLE
  2
STANDARD
 70
     0
 40
0.0
 41
1.0
 50
0.0
 71
     0
 42
2.5
  3
txt
  4

  0
ENDTAB
  0
TABLE
  2
VIEW
 70
     0
  0
ENDTAB
  0
TABLE
  2
UCS
 70
     0
  0
ENDTAB
  0
TABLE
  2
APPID
 70
     2
  0
APPID
  2
ACAD
 70
     0
  0
APPID
  2
DCO15
 70
     0
  0
ENDTAB
  0
TABLE
  2
DIMSTYLE
 70
     1
  0
DIMSTYLE
  2
STANDARD
 70
     0
  3

  4

  5

  6

  7

 40
1.0
 41
0.18
 42
0.0625
 43
0.38
 44
0.18
 45
0.0
 46
0.0
 47
0.0
 48
0.0
140
0.18
141
0.09
142
0.0
143
25.4
144
1.0
145
0.0
146
1.0
147
0.09
 71
     0
 72
     0
 73
     1
 74
     1
 75
     0
 76
     0
 77
     0
 78
     0
170
     0
171
     2
172
     0
173
     0
174
     0
175
     0
176
     0
177
     0
178
     0
  0
ENDTAB
  0
ENDSEC
  0
SECTION
  2
BLOCKS
  0
BLOCK
  8
0
  2
$MODEL_SPACE
 70
     0
 10
0.0
 20
0.0
 30
0.0
  3
$MODEL_SPACE
  1

  0
ENDBLK
  5
3E9
  8
0
  0
BLOCK
 67
     1
  8
0
  2
$PAPER_SPACE
 70
     0
 10
0.0
 20
0.0
 30
0.0
  3
$PAPER_SPACE
  1

  0
ENDBLK
  5
3E7
 67
     1
  8
0
  0
ENDSEC
  0
SECTION
  2
ENTITIES
  0
POLYLINE
  5
1D
  8
0
  6
CONTINUOUS
 66
     1
 10
0.0
 20
0.0
 30
0.0
  0
VERTEX
  5
4AD
  8
0
  6
CONTINUOUS
 10
139.5040801130876
 20
53.32238042322177
 30
0.0
  0
VERTEX
  5
4AE
  8
0
  6
CONTINUOUS
 10
139.5086230848113
 20
53.32297062125766
 30
0.0
  0
VERTEX
  5
4AF
  8
0
  6
CONTINUOUS
 10
139.5129641466805
 20
53.32336667520281
 30
0.0
  0
VERTEX
  5
4B0
  8
0
  6
CONTINUOUS
 10
139.5173052085498
 20
53.32376272914794
 30
0.0
  0
VERTEX
  5
4B1
  8
0
  6
CONTINUOUS
 10
139.5214521263283
 20
53.3239568732387
 30
0.0
  0
VERTEX
  5
4B2
  8
0
  6
CONTINUOUS
 10
139.5257931881976
 20
53.32415101732945
 30
0.0
  0
VERTEX
  5
4B3
  8
0
  6
CONTINUOUS
 10
139.5299323402125
 20
53.32415101732945
 30
0.0
  0
VERTEX
  5
4B4
  8
0
  6
CONTINUOUS
 10
139.534079257991
 20
53.32415101732945
 30
0.0
  0
VERTEX
  5
4B5
  8
0
  6
CONTINUOUS
 10
139.538218410006
 20
53.32415101732945
 30
0.0
  0
VERTEX
  5
4B6
  8
0
  6
CONTINUOUS
 10
139.5421711836937
 20
53.3239568732387
 30
0.0
  0
VERTEX
  5
4B7
  8
0
  6
CONTINUOUS
 10
139.5463103357086
 20
53.32376272914794
 30
0.0
  0
VERTEX
  5
4B8
  8
0
  6
CONTINUOUS
 10
139.5502553436328
 20
53.32356081929355
 30
0.0
  0
VERTEX
  5
4B9
  8
0
  6
CONTINUOUS
 10
139.5544022614113
 20
53.32316476534842
 30
0.0
  0
VERTEX
  5
4BA
  8
0
  6
CONTINUOUS
 10
139.5583472693354
 20
53.3227764771669
 30
0.0
  0
VERTEX
  5
4BB
  8
0
  6
CONTINUOUS
 10
139.5622922772596
 20
53.32238042322177
 30
0.0
  0
VERTEX
  5
4BC
  8
0
  6
CONTINUOUS
 10
139.5662450509473
 20
53.32198436927663
 30
0.0
  0
VERTEX
  5
4BD
  8
0
  6
CONTINUOUS
 10
139.5701900588715
 20
53.32158831533149
 30
0.0
  0
VERTEX
  5
4BE
  8
0
  6
CONTINUOUS
 10
139.5741350667956
 20
53.32119226138634
 30
0.0
  0
VERTEX
  5
4BF
  8
0
  6
CONTINUOUS
 10
139.5780800747197
 20
53.32060206335045
 30
0.0
  0
VERTEX
  5
4C0
  8
0
  6
CONTINUOUS
 10
139.5820250826439
 20
53.32020600940531
 30
0.0
  0
VERTEX
  5
4C1
  8
0
  6
CONTINUOUS
 10
139.5861720004224
 20
53.31961581136942
 30
0.0
  0
VERTEX
  5
4C2
  8
0
  6
CONTINUOUS
 10
139.5901170083465
 20
53.31921975742428
 30
0.0
  0
VERTEX
  5
4C3
  8
0
  6
CONTINUOUS
 10
139.5940620162707
 20
53.31862955938838
 30
0.0
  0
VERTEX
  5
4C4
  8
0
  6
CONTINUOUS
 10
139.5982089340492
 20
53.31823350544324
 30
0.0
  0
VERTEX
  5
4C5
  8
0
  6
CONTINUOUS
 10
139.6023480860641
 20
53.3178374514981
 30
0.0
  0
VERTEX
  5
4C6
  8
0
  6
CONTINUOUS
 10
139.606487238079
 20
53.31744139755296
 30
0.0
  0
VERTEX
  5
4C7
  8
0
  6
CONTINUOUS
 10
139.6106341558575
 20
53.31705310937145
 30
0.0
  0
VERTEX
  5
4C8
  8
0
  6
CONTINUOUS
 10
139.6147733078724
 20
53.31665705542631
 30
0.0
  0
VERTEX
  5
4C9
  8
0
  6
CONTINUOUS
 10
139.618920225651
 20
53.31645514557193
 30
0.0
  0
VERTEX
  5
4CA
  8
0
  6
CONTINUOUS
 10
139.6232612875202
 20
53.31626100148117
 30
0.0
  0
VERTEX
  5
4CB
  8
0
  6
CONTINUOUS
 10
139.6276023493895
 20
53.31606685739042
 30
0.0
  0
VERTEX
  5
4CC
  8
0
  6
CONTINUOUS
 10
139.6319434112588
 20
53.31586494753603
 30
0.0
  0
VERTEX
  5
4CD
  8
0
  6
CONTINUOUS
 10
139.6364863829824
 20
53.31586494753603
 30
0.0
  0
VERTEX
  5
4CE
  8
0
  6
CONTINUOUS
 10
139.6524683245334
 20
53.30067511387537
 30
0.0
  0
VERTEX
  5
4CF
  8
0
  6
CONTINUOUS
 10
139.6453626508118
 20
53.3298743851249
 30
0.0
  0
VERTEX
  5
4D0
  8
0
  6
CONTINUOUS
 10
139.64418225474
 20
53.33520169897522
 30
0.0
  0
VERTEX
  5
4D1
  8
0
  6
CONTINUOUS
 10
139.6408274448517
 20
53.3395427608445
 30
0.0
  0
VERTEX
  5
4D2
  8
0
  6
CONTINUOUS
 10
139.6356942750922
 20
53.34270342664199
 30
0.0
  0
VERTEX
  5
4D3
  8
0
  6
CONTINUOUS
 10
139.6287905112249
 20
53.3450719845492
 30
0.0
  0
VERTEX
  5
4D4
  8
0
  6
CONTINUOUS
 10
139.6206985855223
 20
53.34664843456613
 30
0.0
  0
VERTEX
  5
4D5
  8
0
  6
CONTINUOUS
 10
139.6114262637478
 20
53.34744054245641
 30
0.0
  0
VERTEX
  5
4D6
  8
0
  6
CONTINUOUS
 10
139.6015559781738
 20
53.34783659640155
 30
0.0
  0
VERTEX
  5
4D7
  8
0
  6
CONTINUOUS
 10
139.591305170182
 20
53.34763468654717
 30
0.0
  0
VERTEX
  5
4D8
  8
0
  6
CONTINUOUS
 10
139.5806505424814
 20
53.34704448851127
 30
0.0
  0
VERTEX
  5
4D9
  8
0
  6
CONTINUOUS
 10
139.5701900588715
 20
53.34625238062099
 30
0.0
  0
VERTEX
  5
4DA
  8
0
  6
CONTINUOUS
 10
139.5601256292067
 20
53.34526612863996
 30
0.0
  0
VERTEX
  5
4DB
  8
0
  6
CONTINUOUS
 10
139.5506513975779
 20
53.34408573256817
 30
0.0
  0
VERTEX
  5
4DC
  8
0
  6
CONTINUOUS
 10
139.5421711836937
 20
53.34309948058713
 30
0.0
  0
VERTEX
  5
4DD
  8
0
  6
CONTINUOUS
 10
139.5348636001177
 20
53.34230737269685
 30
0.0
  0
VERTEX
  5
4DE
  8
0
  6
CONTINUOUS
 10
139.5291479980859
 20
53.34171717466096
 30
0.0
  0
VERTEX
  5
4DF
  8
0
  6
CONTINUOUS
 10
139.5251952243981
 20
53.3415230305702
 30
0.0
  0
VERTEX
  5
4E0
  8
0
  6
CONTINUOUS
 10
139.5228266664909
 20
53.34112697662506
 30
0.0
  0
VERTEX
  5
4E1
  8
0
  6
CONTINUOUS
 10
139.519673766457
 20
53.34033486873478
 30
0.0
  0
VERTEX
  5
4E2
  8
0
  6
CONTINUOUS
 10
139.5161170467144
 20
53.33875841871785
 30
0.0
  0
VERTEX
  5
4E3
  8
0
  6
CONTINUOUS
 10
139.5125680927354
 20
53.33678591475578
 30
0.0
  0
VERTEX
  5
4E4
  8
0
  6
CONTINUOUS
 10
139.5094151927015
 20
53.33402130290343
 30
0.0
  0
VERTEX
  5
4E5
  8
0
  6
CONTINUOUS
 10
139.5066505808492
 20
53.33086063710594
 30
0.0
  0
VERTEX
  5
4E6
  8
0
  6
CONTINUOUS
 10
139.5046780768871
 20
53.3269156291818
 30
0.0
  0
VERTEX
  5
4E7
  8
0
  6
CONTINUOUS
 10
139.5040801130876
 20
53.32238042322177
 30
0.0
  0
SEQEND
  5
84B
  8
0
  6
CONTINUOUS
  0
POLYLINE
  5
5A
  8
0
  6
CONTINUOUS
 66
     1
 10
0.0
 20
0.0
 30
0.0
  0
VERTEX
  5
4E8
  8
0
  6
CONTINUOUS
 10
139.843280902691
 20
53.00330072718425
 30
0.0
  0
VERTEX
  5
4E9
  8
0
  6
CONTINUOUS
 10
139.8440730105812
 20
52.9758720500424
 30
0.0
  0
VERTEX
  5
4EA
  8
0
  6
CONTINUOUS
 10
139.8454553165074
 20
52.95021396700823
 30
0.0
  0
VERTEX
  5
4EB
  8
0
  6
CONTINUOUS
 10
139.8474278204695
 20
52.92614009975463
 30
0.0
  0
VERTEX
  5
4EC
  8
0
  6
CONTINUOUS
 10
139.8499905224674
 20
52.9028583403913
 30
0.0
  0
VERTEX
  5
4ED
  8
0
  6
CONTINUOUS
 10
139.8533453323557
 20
52.88016677906386
 30
0.0
  0
VERTEX
  5
4EE
  8
0
  6
CONTINUOUS
 10
139.8574922501342
 20
52.85787127168157
 30
0.0
  0
VERTEX
  5
4EF
  8
0
  6
CONTINUOUS
 10
139.8628195639845
 20
52.83517194459051
 30
0.0
  0
VERTEX
  5
4F0
  8
0
  6
CONTINUOUS
 10
139.8691331298159
 20
52.81208432931793
 30
0.0
  0
VERTEX
  5
4F1
  8
0
  6
CONTINUOUS
 10
139.8716958318138
 20
52.80735497926714
 30
0.0
  0
VERTEX
  5
4F2
  8
0
  6
CONTINUOUS
 10
139.8738702456303
 20
52.80379825952451
 30
0.0
  0
VERTEX
  5
4F3
  8
0
  6
CONTINUOUS
 10
139.8756486055016
 20
52.80104141343579
 30
0.0
  0
VERTEX
  5
4F4
  8
0
  6
CONTINUOUS
 10
139.8770231456641
 20
52.79886699961934
 30
0.0
  0
VERTEX
  5
4F5
  8
0
  6
CONTINUOUS
 10
139.8784054515903
 20
52.79708863974802
 30
0.0
  0
VERTEX
  5
4F6
  8
0
  6
CONTINUOUS
 10
139.8797877575165
 20
52.79551218973109
 30
0.0
  0
VERTEX
  5
4F7
  8
0
  6
CONTINUOUS
 10
139.8811700634427
 20
52.79393573971416
 30
0.0
  0
VERTEX
  5
4F8
  8
0
  6
CONTINUOUS
 10
139.8827465134596
 20
52.79215737984285
 30
0.0
  0
VERTEX
  5
4F9
  8
0
  6
CONTINUOUS
 10
139.8843307292402
 20
52.79097698377105
 30
0.0
  0
VERTEX
  5
4FA
  8
0
  6
CONTINUOUS
 10
139.8859071792571
 20
52.79117112786181
 30
0.0
  0
VERTEX
  5
4FB
  8
0
  6
CONTINUOUS
 10
139.887483629274
 20
52.79274757787874
 30
0.0
  0
VERTEX
  5
4FC
  8
0
  6
CONTINUOUS
 10
139.8894561332361
 20
52.79511613578595
 30
0.0
  0
VERTEX
  5
4FD
  8
0
  6
CONTINUOUS
 10
139.8914286371982
 20
52.7984709456742
 30
0.0
  0
VERTEX
  5
4FE
  8
0
  6
CONTINUOUS
 10
139.8939991049598
 20
52.80222180950758
 30
0.0
  0
VERTEX
  5
4FF
  8
0
  6
CONTINUOUS
 10
139.897353914848
 20
52.80656287137686
 30
0.0
  0
VERTEX
  5
500
  8
0
  6
CONTINUOUS
 10
139.9012989227722
 20
52.81090393324614
 30
0.0
  0
VERTEX
  5
501
  8
0
  6
CONTINUOUS
 10
139.8906442950715
 20
52.82373297476322
 30
0.0
  0
VERTEX
  5
502
  8
0
  6
CONTINUOUS
 10
139.8936030510146
 20
52.82648982085194
 30
0.0
  0
VERTEX
  5
503
  8
0
  6
CONTINUOUS
 10
139.896367662867
 20
52.82965048664943
 30
0.0
  0
VERTEX
  5
504
  8
0
  6
CONTINUOUS
 10
139.8991245089557
 20
52.83281115244692
 30
0.0
  0
VERTEX
  5
505
  8
0
  6
CONTINUOUS
 10
139.9018891208081
 20
52.83615819657154
 30
0.0
  0
VERTEX
  5
506
  8
0
  6
CONTINUOUS
 10
139.904451822806
 20
52.83971491631416
 30
0.0
  0
VERTEX
  5
507
  8
0
  6
CONTINUOUS
 10
139.9072164346584
 20
52.84306972620242
 30
0.0
  0
VERTEX
  5
508
  8
0
  6
CONTINUOUS
 10
139.9097791366563
 20
52.84642453609066
 30
0.0
  0
VERTEX
  5
509
  8
0
  6
CONTINUOUS
 10
139.9125437485087
 20
52.8497793459789
 30
0.0
  0
VERTEX
  5
50A
  8
0
  6
CONTINUOUS
 10
139.915308360361
 20
52.85293224601276
 30
0.0
  0
VERTEX
  5
50B
  8
0
  6
CONTINUOUS
 10
139.9180729722134
 20
52.85609291181025
 30
0.0
  0
VERTEX
  5
50C
  8
0
  6
CONTINUOUS
 10
139.9210317281565
 20
52.8588575236626
 30
0.0
  0
VERTEX
  5
50D
  8
0
  6
CONTINUOUS
 10
139.9241846281903
 20
52.86142022566057
 30
0.0
  0
VERTEX
  5
50E
  8
0
  6
CONTINUOUS
 10
139.9273452939878
 20
52.86358687371339
 30
0.0
  0
VERTEX
  5
50F
  8
0
  6
CONTINUOUS
 10
139.9307001038761
 20
52.86556714343909
 30
0.0
  0
VERTEX
  5
510
  8
0
  6
CONTINUOUS
 10
139.9342490578551
 20
52.86694168360164
 30
0.0
  0
VERTEX
  5
511
  8
0
  6
CONTINUOUS
 10
139.9379999216885
 20
52.8679357013463
 30
0.0
  0
VERTEX
  5
512
  8
0
  6
CONTINUOUS
 10
139.9372078137982
 20
52.8750336093043
 30
0.0
  0
VERTEX
  5
513
  8
0
  6
CONTINUOUS
 10
139.9352353098361
 20
52.88233342711668
 30
0.0
  0
VERTEX
  5
514
  8
0
  6
CONTINUOUS
 10
139.932276553893
 20
52.88943910083832
 30
0.0
  0
VERTEX
  5
515
  8
0
  6
CONTINUOUS
 10
139.9281374018781
 20
52.8967389186507
 30
0.0
  0
VERTEX
  5
516
  8
0
  6
CONTINUOUS
 10
139.9234002860637
 20
52.90404650222671
 30
0.0
  0
VERTEX
  5
517
  8
0
  6
CONTINUOUS
 10
139.917871062359
 20
52.91114441018471
 30
0.0
  0
VERTEX
  5
518
  8
0
  6
CONTINUOUS
 10
139.9121476945635
 20
52.9184442279971
 30
0.0
  0
VERTEX
  5
519
  8
0
  6
CONTINUOUS
 10
139.9060360385866
 20
52.92575181157311
 30
0.0
  0
VERTEX
  5
51A
  8
0
  6
CONTINUOUS
 10
139.8997224727552
 20
52.9330516293855
 30
0.0
  0
VERTEX
  5
51B
  8
0
  6
CONTINUOUS
 10
139.8936030510146
 20
52.94015730310713
 30
0.0
  0
VERTEX
  5
51C
  8
0
  6
CONTINUOUS
 10
139.8876855391284
 20
52.94745712091952
 30
0.0
  0
VERTEX
  5
51D
  8
0
  6
CONTINUOUS
 10
139.8821563154237
 20
52.9547569387319
 30
0.0
  0
VERTEX
  5
51E
  8
0
  6
CONTINUOUS
 10
139.8772250555186
 20
52.96186261245353
 30
0.0
  0
VERTEX
  5
51F
  8
0
  6
CONTINUOUS
 10
139.87307813774
 20
52.96916243026591
 30
0.0
  0
VERTEX
  5
520
  8
0
  6
CONTINUOUS
 10
139.8699252377062
 20
52.97626810398754
 30
0.0
  0
VERTEX
  5
521
  8
0
  6
CONTINUOUS
 10
139.8677508238897
 20
52.98336601194554
 30
0.0
  0
VERTEX
  5
522
  8
0
  6
CONTINUOUS
 10
139.8657783199276
 20
52.98356792179992
 30
0.0
  0
VERTEX
  5
523
  8
0
  6
CONTINUOUS
 10
139.8638058159655
 20
52.98396397574507
 30
0.0
  0
VERTEX
  5
524
  8
0
  6
CONTINUOUS
 10
139.8620274560942
 20
52.98435226392657
 30
0.0
  0
VERTEX
  5
525
  8
0
  6
CONTINUOUS
 10
139.8602568619866
 20
52.98514437181686
 30
0.0
  0
VERTEX
  5
526
  8
0
  6
CONTINUOUS
 10
139.8582765922609
 20
52.98573456985275
 30
0.0
  0
VERTEX
  5
527
  8
0
  6
CONTINUOUS
 10
139.8565059981532
 20
52.98613062379789
 30
0.0
  0
VERTEX
  5
528
  8
0
  6
CONTINUOUS
 10
139.8545334941911
 20
52.98652667774303
 30
0.0
  0
VERTEX
  5
529
  8
0
  6
CONTINUOUS
 10
139.852560990229
 20
52.98672082183379
 30
0.0
  0
VERTEX
  5
52A
  8
0
  6
CONTINUOUS
 10
139.8513728283936
 20
52.98830503761435
 30
0.0
  0
VERTEX
  5
52B
  8
0
  6
CONTINUOUS
 10
139.8503865764126
 20
52.98988148763128
 30
0.0
  0
VERTEX
  5
52C
  8
0
  6
CONTINUOUS
 10
139.8492061803408
 20
52.99145793764821
 30
0.0
  0
VERTEX
  5
52D
  8
0
  6
CONTINUOUS
 10
139.8482199283598
 20
52.99303438766513
 30
0.0
  0
VERTEX
  5
52E
  8
0
  6
CONTINUOUS
 10
139.8470317665243
 20
52.99481274753645
 30
0.0
  0
VERTEX
  5
52F
  8
0
  6
CONTINUOUS
 10
139.8460455145433
 20
52.99718130544366
 30
0.0
  0
VERTEX
  5
530
  8
0
  6
CONTINUOUS
 10
139.8446632086171
 20
52.99994591729601
 30
0.0
  0
VERTEX
  5
531
  8
0
  6
CONTINUOUS
 10
139.843280902691
 20
53.00330072718425
 30
0.0
  0
SEQEND
  5
84C
  8
0
  6
CONTINUOUS
  0
POLYLINE
  5
A6
  8
0
  6
CONTINUOUS
 66
     1
 10
0.0
 20
0.0
 30
0.0
  0
VERTEX
  5
532
  8
0
  6
CONTINUOUS
 10
139.504282022942
 20
53.32316476534842
 30
0.0
  0
VERTEX
  5
533
  8
0
  6
CONTINUOUS
 10
139.504282022942
 20
53.32316476534842
 30
0.0
  0
VERTEX
  5
534
  8
0
  6
CONTINUOUS
 10
139.5040801130876
 20
53.32297062125766
 30
0.0
  0
VERTEX
  5
535
  8
0
  6
CONTINUOUS
 10
139.5003370150178
 20
53.32001186531456
 30
0.0
  0
VERTEX
  5
536
  8
0
  6
CONTINUOUS
 10
139.4969822051296
 20
53.31606685739042
 30
0.0
  0
VERTEX
  5
537
  8
0
  6
CONTINUOUS
 10
139.4940234491865
 20
53.31152388566675
 30
0.0
  0
VERTEX
  5
538
  8
0
  6
CONTINUOUS
 10
139.4912588373342
 20
53.30678676985233
 30
0.0
  0
VERTEX
  5
539
  8
0
  6
CONTINUOUS
 10
139.488300081391
 20
53.30205741980154
 30
0.0
  0
VERTEX
  5
53A
  8
0
  6
CONTINUOUS
 10
139.4849452715028
 20
53.29732030398712
 30
0.0
  0
VERTEX
  5
53B
  8
0
  6
CONTINUOUS
 10
139.4811944076694
 20
53.2931733862086
 30
0.0
  0
VERTEX
  5
53C
  8
0
  6
CONTINUOUS
 10
139.476457291855
 20
53.28981857632035
 30
0.0
  0
VERTEX
  5
53D
  8
0
  6
CONTINUOUS
 10
139.3438568778694
 20
53.25647238729229
 30
0.0
  0
VERTEX
  5
53E
  8
0
  6
CONTINUOUS
 10
139.3371472580929
 20
53.2558821892564
 30
0.0
  0
VERTEX
  5
53F
  8
0
  6
CONTINUOUS
 10
139.331221980443
 20
53.25509008136611
 30
0.0
  0
VERTEX
  5
540
  8
0
  6
CONTINUOUS
 10
139.3258946665927
 20
53.2539019195307
 30
0.0
  0
VERTEX
  5
541
  8
0
  6
CONTINUOUS
 10
139.3209634066876
 20
53.25252737936815
 30
0.0
  0
VERTEX
  5
542
  8
0
  6
CONTINUOUS
 10
139.3166223448183
 20
53.25074901949684
 30
0.0
  0
VERTEX
  5
543
  8
0
  6
CONTINUOUS
 10
139.3124754270398
 20
53.24857460568038
 30
0.0
  0
VERTEX
  5
544
  8
0
  6
CONTINUOUS
 10
139.30873232897
 20
53.24620604777317
 30
0.0
  0
VERTEX
  5
545
  8
0
  6
CONTINUOUS
 10
139.3053775190818
 20
53.24344920168445
 30
0.0
  0
VERTEX
  5
546
  8
0
  6
CONTINUOUS
 10
139.3018207993391
 20
53.24028853588696
 30
0.0
  0
VERTEX
  5
547
  8
0
  6
CONTINUOUS
 10
139.2986678993053
 20
53.23673958190796
 30
0.0
  0
VERTEX
  5
548
  8
0
  6
CONTINUOUS
 10
139.295313089417
 20
53.23279457398382
 30
0.0
  0
VERTEX
  5
549
  8
0
  6
CONTINUOUS
 10
139.2919582795288
 20
53.22845351211454
 30
0.0
  0
VERTEX
  5
54A
  8
0
  6
CONTINUOUS
 10
139.2884015597862
 20
53.22371639630012
 30
0.0
  0
VERTEX
  5
54B
  8
0
  6
CONTINUOUS
 10
139.2846584617164
 20
53.21858322654056
 30
0.0
  0
VERTEX
  5
54C
  8
0
  6
CONTINUOUS
 10
139.2807056880286
 20
53.21306176859949
 30
0.0
  0
VERTEX
  5
54D
  8
0
  6
CONTINUOUS
 10
139.2761704820686
 20
53.20713649094965
 30
0.0
  0
VERTEX
  5
54E
  8
0
  6
CONTINUOUS
 10
139.2749823202332
 20
53.19214080137974
 30
0.0
  0
VERTEX
  5
54F
  8
0
  6
CONTINUOUS
 10
139.2722254741444
 20
53.17655491377394
 30
0.0
  0
VERTEX
  5
550
  8
0
  6
CONTINUOUS
 10
139.2680785563659
 20
53.16017691827786
 30
0.0
  0
VERTEX
  5
551
  8
0
  6
CONTINUOUS
 10
139.2633414405515
 20
53.14340286883663
 30
0.0
  0
VERTEX
  5
552
  8
0
  6
CONTINUOUS
 10
139.2584101806463
 20
53.12623276545027
 30
0.0
  0
VERTEX
  5
553
  8
0
  6
CONTINUOUS
 10
139.2542632628678
 20
53.10886851797314
 30
0.0
  0
VERTEX
  5
554
  8
0
  6
CONTINUOUS
 10
139.2515064167791
 20
53.09169841458678
 30
0.0
  0
VERTEX
  5
555
  8
0
  6
CONTINUOUS
 10
139.2503182549437
 20
53.0747302210548
 30
0.0
  0
VERTEX
  5
556
  8
0
  6
CONTINUOUS
 10
139.2471653549098
 20
53.07078521313066
 30
0.0
  0
VERTEX
  5
557
  8
0
  6
CONTINUOUS
 10
139.2438105450216
 20
53.06585395322548
 30
0.0
  0
VERTEX
  5
558
  8
0
  6
CONTINUOUS
 10
139.2404557351333
 20
53.06013058543003
 30
0.0
  0
VERTEX
  5
559
  8
0
  6
CONTINUOUS
 10
139.2371009252451
 20
53.05401116368944
 30
0.0
  0
VERTEX
  5
55A
  8
0
  6
CONTINUOUS
 10
139.2335442055025
 20
53.0471073998222
 30
0.0
  0
VERTEX
  5
55B
  8
0
  6
CONTINUOUS
 10
139.2301893956142
 20
53.03980758200981
 30
0.0
  0
VERTEX
  5
55C
  8
0
  6
CONTINUOUS
 10
139.2270364955803
 20
53.03230585434304
 30
0.0
  0
VERTEX
  5
55D
  8
0
  6
CONTINUOUS
 10
139.2240777396372
 20
53.02441583849476
 30
0.0
  0
VERTEX
  5
55E
  8
0
  6
CONTINUOUS
 10
139.2215072718757
 20
53.0163239127921
 30
0.0
  0
VERTEX
  5
55F
  8
0
  6
CONTINUOUS
 10
139.2193406238228
 20
53.00823198708943
 30
0.0
  0
VERTEX
  5
560
  8
0
  6
CONTINUOUS
 10
139.2173681198607
 20
53.00034197124115
 30
0.0
  0
VERTEX
  5
561
  8
0
  6
CONTINUOUS
 10
139.2161799580253
 20
52.99244418962924
 30
0.0
  0
VERTEX
  5
562
  8
0
  6
CONTINUOUS
 10
139.2155897599894
 20
52.98474831787172
 30
0.0
  0
VERTEX
  5
563
  8
0
  6
CONTINUOUS
 10
139.2155897599894
 20
52.97764264415009
 30
0.0
  0
VERTEX
  5
564
  8
0
  6
CONTINUOUS
 10
139.2161799580253
 20
52.97073888028284
 30
0.0
  0
VERTEX
  5
565
  8
0
  6
CONTINUOUS
 10
139.2177641738059
 20
52.96442531445149
 30
0.0
  0
VERTEX
  5
566
  8
0
  6
CONTINUOUS
 10
139.2155897599894
 20
52.9632449183797
 30
0.0
  0
VERTEX
  5
567
  8
0
  6
CONTINUOUS
 10
139.2134231119366
 20
52.96205675654429
 30
0.0
  0
VERTEX
  5
568
  8
0
  6
CONTINUOUS
 10
139.210852644175
 20
52.96067445061811
 30
0.0
  0
VERTEX
  5
569
  8
0
  6
CONTINUOUS
 10
139.2082899421771
 20
52.95949405454632
 30
0.0
  0
VERTEX
  5
56A
  8
0
  6
CONTINUOUS
 10
139.2055253303247
 20
52.95811174862014
 30
0.0
  0
VERTEX
  5
56B
  8
0
  6
CONTINUOUS
 10
139.2025665743816
 20
52.95692358678473
 30
0.0
  0
VERTEX
  5
56C
  8
0
  6
CONTINUOUS
 10
139.1996078184385
 20
52.95534713676779
 30
0.0
  0
VERTEX
  5
56D
  8
0
  6
CONTINUOUS
 10
139.1968432065862
 20
52.95396483084162
 30
0.0
  0
VERTEX
  5
56E
  8
0
  6
CONTINUOUS
 10
139.193884450643
 20
52.95238838082469
 30
0.0
  0
VERTEX
  5
56F
  8
0
  6
CONTINUOUS
 10
139.1909256946999
 20
52.95081193080776
 30
0.0
  0
VERTEX
  5
570
  8
0
  6
CONTINUOUS
 10
139.1879669387568
 20
52.94903357093644
 30
0.0
  0
VERTEX
  5
571
  8
0
  6
CONTINUOUS
 10
139.1852023269045
 20
52.94725521106513
 30
0.0
  0
VERTEX
  5
572
  8
0
  6
CONTINUOUS
 10
139.1826396249065
 20
52.94528270710306
 30
0.0
  0
VERTEX
  5
573
  8
0
  6
CONTINUOUS
 10
139.1800691571449
 20
52.94331020314099
 30
0.0
  0
VERTEX
  5
574
  8
0
  6
CONTINUOUS
 10
139.1779025090921
 20
52.94114355508816
 30
0.0
  0
VERTEX
  5
575
  8
0
  6
CONTINUOUS
 10
139.1757280952756
 20
52.93877499718096
 30
0.0
  0
VERTEX
  5
576
  8
0
  6
CONTINUOUS
 10
139.1737555913136
 20
52.93028701753315
 30
0.0
  0
VERTEX
  5
577
  8
0
  6
CONTINUOUS
 10
139.1737555913136
 20
52.92120883984945
 30
0.0
  0
VERTEX
  5
578
  8
0
  6
CONTINUOUS
 10
139.1747418432946
 20
52.9113463200391
 30
0.0
  0
VERTEX
  5
579
  8
0
  6
CONTINUOUS
 10
139.1757280952756
 20
52.90069169233847
 30
0.0
  0
VERTEX
  5
57A
  8
0
  6
CONTINUOUS
 10
139.1757280952756
 20
52.8896410106927
 30
0.0
  0
VERTEX
  5
57B
  8
0
  6
CONTINUOUS
 10
139.173957501168
 20
52.87799236524741
 30
0.0
  0
VERTEX
  5
57C
  8
0
  6
CONTINUOUS
 10
139.1690184754991
 20
52.86576128752984
 30
0.0
  0
VERTEX
  5
57D
  8
0
  6
CONTINUOUS
 10
139.1603363517606
 20
52.85313415586715
 30
0.0
  0
VERTEX
  5
57E
  8
0
  6
CONTINUOUS
 10
139.1591559556888
 20
52.84208347422138
 30
0.0
  0
VERTEX
  5
57F
  8
0
  6
CONTINUOUS
 10
139.1575795056719
 20
52.83044259453971
 30
0.0
  0
VERTEX
  5
580
  8
0
  6
CONTINUOUS
 10
139.1555992359462
 20
52.81859980500366
 30
0.0
  0
VERTEX
  5
581
  8
0
  6
CONTINUOUS
 10
139.1534325878933
 20
52.80675701546761
 30
0.0
  0
VERTEX
  5
582
  8
0
  6
CONTINUOUS
 10
139.1510640299861
 20
52.7949219916952
 30
0.0
  0
VERTEX
  5
583
  8
0
  6
CONTINUOUS
 10
139.1488896161697
 20
52.78328111201353
 30
0.0
  0
VERTEX
  5
584
  8
0
  6
CONTINUOUS
 10
139.1465288240261
 20
52.77163246656824
 30
0.0
  0
VERTEX
  5
585
  8
0
  6
CONTINUOUS
 10
139.1443544102096
 20
52.76058178492246
 30
0.0
  0
VERTEX
  5
586
  8
0
  6
CONTINUOUS
 10
139.1425760503383
 20
52.75012906707622
 30
0.0
  0
VERTEX
  5
587
  8
0
  6
CONTINUOUS
 10
139.1409996003214
 20
52.74025878150224
 30
0.0
  0
VERTEX
  5
588
  8
0
  6
CONTINUOUS
 10
139.1398192042496
 20
52.73118060381854
 30
0.0
  0
VERTEX
  5
589
  8
0
  6
CONTINUOUS
 10
139.1392212404501
 20
52.72309644387951
 30
0.0
  0
VERTEX
  5
58A
  8
0
  6
CONTINUOUS
 10
139.1392212404501
 20
52.71599077015788
 30
0.0
  0
VERTEX
  5
58B
  8
0
  6
CONTINUOUS
 10
139.1398192042496
 20
52.71007325827167
 30
0.0
  0
VERTEX
  5
58C
  8
0
  6
CONTINUOUS
 10
139.1413956542665
 20
52.705530286548
 30
0.0
  0
VERTEX
  5
58D
  8
0
  6
CONTINUOUS
 10
139.1437642121737
 20
52.70237738651414
 30
0.0
  0
VERTEX
  5
58E
  8
0
  6
CONTINUOUS
 10
139.1396172943952
 20
52.69783441479048
 30
0.0
  0
VERTEX
  5
58F
  8
0
  6
CONTINUOUS
 10
139.1360683404162
 20
52.6934933529212
 30
0.0
  0
VERTEX
  5
590
  8
0
  6
CONTINUOUS
 10
139.1333037285639
 20
52.68915229105192
 30
0.0
  0
VERTEX
  5
591
  8
0
  6
CONTINUOUS
 10
139.1305391167115
 20
52.68520728312778
 30
0.0
  0
VERTEX
  5
592
  8
0
  6
CONTINUOUS
 10
139.1279764147135
 20
52.68126227520364
 30
0.0
  0
VERTEX
  5
593
  8
0
  6
CONTINUOUS
 10
139.1250176587704
 20
52.67751141137025
 30
0.0
  0
VERTEX
  5
594
  8
0
  6
CONTINUOUS
 10
139.1216628488822
 20
52.67415660148201
 30
0.0
  0
VERTEX
  5
595
  8
0
  6
CONTINUOUS
 10
139.1173217870129
 20
52.67099593568452
 30
0.0
  0
VERTEX
  5
596
  8
0
  6
CONTINUOUS
 10
139.1149532291057
 20
52.66448822576241
 30
0.0
  0
VERTEX
  5
597
  8
0
  6
CONTINUOUS
 10
139.1121886172534
 20
52.65738255204079
 30
0.0
  0
VERTEX
  5
598
  8
0
  6
CONTINUOUS
 10
139.109424005401
 20
52.6500827342284
 30
0.0
  0
VERTEX
  5
599
  8
0
  6
CONTINUOUS
 10
139.1068613034031
 20
52.64258100656163
 30
0.0
  0
VERTEX
  5
59A
  8
0
  6
CONTINUOUS
 10
139.1044927454958
 20
52.63508704465849
 30
0.0
  0
VERTEX
  5
59B
  8
0
  6
CONTINUOUS
 10
139.1027221513881
 20
52.62779499260974
 30
0.0
  0
VERTEX
  5
59C
  8
0
  6
CONTINUOUS
 10
139.1015339895527
 20
52.62088346297886
 30
0.0
  0
VERTEX
  5
59D
  8
0
  6
CONTINUOUS
 10
139.1011379356076
 20
52.61437575305676
 30
0.0
  0
VERTEX
  5
59E
  8
0
  6
CONTINUOUS
 10
139.1027221513881
 20
52.61102094316851
 30
0.0
  0
VERTEX
  5
59F
  8
0
  6
CONTINUOUS
 10
139.1046946553502
 20
52.60766613328027
 30
0.0
  0
VERTEX
  5
5A0
  8
0
  6
CONTINUOUS
 10
139.1066671593123
 20
52.60391526944688
 30
0.0
  0
VERTEX
  5
5A1
  8
0
  6
CONTINUOUS
 10
139.1088338073651
 20
52.6001644056135
 30
0.0
  0
VERTEX
  5
5A2
  8
0
  6
CONTINUOUS
 10
139.1112023652723
 20
52.59641354178012
 30
0.0
  0
VERTEX
  5
5A3
  8
0
  6
CONTINUOUS
 10
139.1137650672703
 20
52.59246853385597
 30
0.0
  0
VERTEX
  5
5A4
  8
0
  6
CONTINUOUS
 10
139.1165296791226
 20
52.58871767002259
 30
0.0
  0
VERTEX
  5
5A5
  8
0
  6
CONTINUOUS
 10
139.1196903449201
 20
52.58497457195283
 30
0.0
  0
VERTEX
  5
5A6
  8
0
  6
CONTINUOUS
 10
139.1230451548084
 20
52.5814178522102
 30
0.0
  0
VERTEX
  5
5A7
  8
0
  6
CONTINUOUS
 10
139.1265941087874
 20
52.5778688982312
 30
0.0
  0
VERTEX
  5
5A8
  8
0
  6
CONTINUOUS
 10
139.1303449726208
 20
52.57470823243371
 30
0.0
  0
VERTEX
  5
5A9
  8
0
  6
CONTINUOUS
 10
139.1344918903993
 20
52.57155533239985
 30
0.0
  0
VERTEX
  5
5AA
  8
0
  6
CONTINUOUS
 10
139.1390270963593
 20
52.5687907205475
 30
0.0
  0
VERTEX
  5
5AB
  8
0
  6
CONTINUOUS
 10
139.1437642121737
 20
52.56642216264029
 30
0.0
  0
VERTEX
  5
5AC
  8
0
  6
CONTINUOUS
 10
139.1488896161697
 20
52.56444965867823
 30
0.0
  0
VERTEX
  5
5AD
  8
0
  6
CONTINUOUS
 10
139.1544188398744
 20
52.56287320866129
 30
0.0
  0
VERTEX
  5
5AE
  8
0
  6
CONTINUOUS
 10
139.1652753774294
 20
52.57332592650754
 30
0.0
  0
VERTEX
  5
5AF
  8
0
  6
CONTINUOUS
 10
139.1638930715032
 20
52.57589639426914
 30
0.0
  0
VERTEX
  5
5B0
  8
0
  6
CONTINUOUS
 10
139.1627049096678
 20
52.57865324035785
 30
0.0
  0
VERTEX
  5
5B1
  8
0
  6
CONTINUOUS
 10
139.161524513596
 20
52.5814178522102
 30
0.0
  0
VERTEX
  5
5B2
  8
0
  6
CONTINUOUS
 10
139.1601422076698
 20
52.58418246406255
 30
0.0
  0
VERTEX
  5
5B3
  8
0
  6
CONTINUOUS
 10
139.1587599017437
 20
52.58655102196976
 30
0.0
  0
VERTEX
  5
5B4
  8
0
  6
CONTINUOUS
 10
139.1571834517267
 20
52.58891957987697
 30
0.0
  0
VERTEX
  5
5B5
  8
0
  6
CONTINUOUS
 10
139.1555992359462
 20
52.59089208383904
 30
0.0
  0
VERTEX
  5
5B6
  8
0
  6
CONTINUOUS
 10
139.1536267319841
 20
52.59267044371036
 30
0.0
  0
VERTEX
  5
5B7
  8
0
  6
CONTINUOUS
 10
139.151654228022
 20
52.59404498387291
 30
0.0
  0
VERTEX
  5
5B8
  8
0
  6
CONTINUOUS
 10
139.1494875799692
 20
52.59503123585394
 30
0.0
  0
VERTEX
  5
5B9
  8
0
  6
CONTINUOUS
 10
139.147119022062
 20
52.59582334374421
 30
0.0
  0
VERTEX
  5
5BA
  8
0
  6
CONTINUOUS
 10
139.1449446082455
 20
52.5966154516345
 30
0.0
  0
VERTEX
  5
5BB
  8
0
  6
CONTINUOUS
 10
139.1427779601927
 20
52.59720564967039
 30
0.0
  0
VERTEX
  5
5BC
  8
0
  6
CONTINUOUS
 10
139.1409996003214
 20
52.59819190165143
 30
0.0
  0
VERTEX
  5
5BD
  8
0
  6
CONTINUOUS
 10
139.1394231503045
 20
52.59917815363247
 30
0.0
  0
VERTEX
  5
5BE
  8
0
  6
CONTINUOUS
 10
139.1384368983234
 20
52.60075460364939
 30
0.0
  0
VERTEX
  5
5BF
  8
0
  6
CONTINUOUS
 10
139.1437642121737
 20
52.61950115705269
 30
0.0
  0
VERTEX
  5
5C0
  8
0
  6
CONTINUOUS
 10
139.1475150760071
 20
52.62048740903372
 30
0.0
  0
VERTEX
  5
5C1
  8
0
  6
CONTINUOUS
 10
139.1510640299861
 20
52.62285596694093
 30
0.0
  0
VERTEX
  5
5C2
  8
0
  6
CONTINUOUS
 10
139.1542246957836
 20
52.62621077682918
 30
0.0
  0
VERTEX
  5
5C3
  8
0
  6
CONTINUOUS
 10
139.1573775958175
 20
52.63015578475332
 30
0.0
  0
VERTEX
  5
5C4
  8
0
  6
CONTINUOUS
 10
139.160538261615
 20
52.63370473873232
 30
0.0
  0
VERTEX
  5
5C5
  8
0
  6
CONTINUOUS
 10
139.1634970175581
 20
52.63685763876617
 30
0.0
  0
VERTEX
  5
5C6
  8
0
  6
CONTINUOUS
 10
139.1668518274463
 20
52.63863599863749
 30
0.0
  0
VERTEX
  5
5C7
  8
0
  6
CONTINUOUS
 10
139.1702066373346
 20
52.63863599863749
 30
0.0
  0
VERTEX
  5
5C8
  8
0
  6
CONTINUOUS
 10
139.1721791412966
 20
52.63488513480411
 30
0.0
  0
VERTEX
  5
5C9
  8
0
  6
CONTINUOUS
 10
139.1747418432946
 20
52.631926378861
 30
0.0
  0
VERTEX
  5
5CA
  8
0
  6
CONTINUOUS
 10
139.177506455147
 20
52.62996164066256
 30
0.0
  0
VERTEX
  5
5CB
  8
0
  6
CONTINUOUS
 10
139.1804652110901
 20
52.62878124459077
 30
0.0
  0
VERTEX
  5
5CC
  8
0
  6
CONTINUOUS
 10
139.1838200209783
 20
52.62857933473639
 30
0.0
  0
VERTEX
  5
5CD
  8
0
  6
CONTINUOUS
 10
139.1871748308666
 20
52.62897538868152
 30
0.0
  0
VERTEX
  5
5CE
  8
0
  6
CONTINUOUS
 10
139.1907237848455
 20
52.63015578475332
 30
0.0
  0
VERTEX
  5
5CF
  8
0
  6
CONTINUOUS
 10
139.1940785947338
 20
52.63212828871539
 30
0.0
  0
VERTEX
  5
5D0
  8
0
  6
CONTINUOUS
 10
139.1978294585672
 20
52.63350282887793
 30
0.0
  0
VERTEX
  5
5D1
  8
0
  6
CONTINUOUS
 10
139.2017744664913
 20
52.63666349467542
 30
0.0
  0
VERTEX
  5
5D2
  8
0
  6
CONTINUOUS
 10
139.2061155283606
 20
52.6410045565447
 30
0.0
  0
VERTEX
  5
5D3
  8
0
  6
CONTINUOUS
 10
139.2106585000843
 20
52.64633187039502
 30
0.0
  0
VERTEX
  5
5D4
  8
0
  6
CONTINUOUS
 10
139.2151937060443
 20
52.65284734608075
 30
0.0
  0
VERTEX
  5
5D5
  8
0
  6
CONTINUOUS
 10
139.2201249659495
 20
52.66014716389314
 30
0.0
  0
VERTEX
  5
5D6
  8
0
  6
CONTINUOUS
 10
139.2250639916183
 20
52.66803717974142
 30
0.0
  0
VERTEX
  5
5D7
  8
0
  6
CONTINUOUS
 10
139.2299952515234
 20
52.67652515938922
 30
0.0
  0
VERTEX
  5
5D8
  8
0
  6
CONTINUOUS
 10
139.235128421283
 20
52.68500537327339
 30
0.0
  0
VERTEX
  5
5D9
  8
0
  6
CONTINUOUS
 10
139.2402538252789
 20
52.69388940686634
 30
0.0
  0
VERTEX
  5
5DA
  8
0
  6
CONTINUOUS
 10
139.2453869950385
 20
52.7025715306049
 30
0.0
  0
VERTEX
  5
5DB
  8
0
  6
CONTINUOUS
 10
139.250520164798
 20
52.7110595102527
 30
0.0
  0
VERTEX
  5
5DC
  8
0
  6
CONTINUOUS
 10
139.255645568794
 20
52.71914367019174
 30
0.0
  0
VERTEX
  5
5DD
  8
0
  6
CONTINUOUS
 10
139.2607787385535
 20
52.7266453978585
 30
0.0
  0
VERTEX
  5
5DE
  8
0
  6
CONTINUOUS
 10
139.2657099984587
 20
52.733355017635
 30
0.0
  0
VERTEX
  5
5DF
  8
0
  6
CONTINUOUS
 10
139.2706412583639
 20
52.73907838543045
 30
0.0
  0
VERTEX
  5
5E0
  8
0
  6
CONTINUOUS
 10
139.2718294201993
 20
52.74459984337152
 30
0.0
  0
VERTEX
  5
5E1
  8
0
  6
CONTINUOUS
 10
139.2730098162711
 20
52.75032321116698
 30
0.0
  0
VERTEX
  5
5E2
  8
0
  6
CONTINUOUS
 10
139.2741979781065
 20
52.75624072305319
 30
0.0
  0
VERTEX
  5
5E3
  8
0
  6
CONTINUOUS
 10
139.2753783741783
 20
52.76256205464816
 30
0.0
  0
VERTEX
  5
5E4
  8
0
  6
CONTINUOUS
 10
139.2769625899589
 20
52.76906976457027
 30
0.0
  0
VERTEX
  5
5E5
  8
0
  6
CONTINUOUS
 10
139.2787331840666
 20
52.77577938434676
 30
0.0
  0
VERTEX
  5
5E6
  8
0
  6
CONTINUOUS
 10
139.280907597883
 20
52.78288505806839
 30
0.0
  0
VERTEX
  5
5E7
  8
0
  6
CONTINUOUS
 10
139.2832761557902
 20
52.79018487588078
 30
0.0
  0
VERTEX
  5
5E8
  8
0
  6
CONTINUOUS
 10
139.2860330018789
 20
52.7978807476383
 30
0.0
  0
VERTEX
  5
5E9
  8
0
  6
CONTINUOUS
 10
139.2893878117672
 20
52.80557661939582
 30
0.0
  0
VERTEX
  5
5EA
  8
0
  6
CONTINUOUS
 10
139.2931386756006
 20
52.81366854509849
 30
0.0
  0
VERTEX
  5
5EB
  8
0
  6
CONTINUOUS
 10
139.2976816473242
 20
52.82195461489191
 30
0.0
  0
VERTEX
  5
5EC
  8
0
  6
CONTINUOUS
 10
139.3026129072294
 20
52.83063673863047
 30
0.0
  0
VERTEX
  5
5ED
  8
0
  6
CONTINUOUS
 10
139.3085304191156
 20
52.83931886236903
 30
0.0
  0
VERTEX
  5
5EE
  8
0
  6
CONTINUOUS
 10
139.3150458948014
 20
52.84839704005272
 30
0.0
  0
VERTEX
  5
5EF
  8
0
  6
CONTINUOUS
 10
139.3223457126138
 20
52.85766936182718
 30
0.0
  0
VERTEX
  5
5F0
  8
0
  6
CONTINUOUS
 10
139.3235261086855
 20
52.86517108949395
 30
0.0
  0
VERTEX
  5
5F1
  8
0
  6
CONTINUOUS
 10
139.324714270521
 20
52.87266505139709
 30
0.0
  0
VERTEX
  5
5F2
  8
0
  6
CONTINUOUS
 10
139.3253044685569
 20
52.87997263497311
 30
0.0
  0
VERTEX
  5
5F3
  8
0
  6
CONTINUOUS
 10
139.3241240724851
 20
52.88667448898597
 30
0.0
  0
VERTEX
  5
5F4
  8
0
  6
CONTINUOUS
 10
139.3288534225358
 20
52.88805679491214
 30
0.0
  0
VERTEX
  5
5F5
  8
0
  6
CONTINUOUS
 10
139.3328061962236
 20
52.8896410106927
 30
0.0
  0
VERTEX
  5
5F6
  8
0
  6
CONTINUOUS
 10
139.3359590962575
 20
52.89161351465477
 30
0.0
  0
VERTEX
  5
5F7
  8
0
  6
CONTINUOUS
 10
139.3387237081098
 20
52.89378016270759
 30
0.0
  0
VERTEX
  5
5F8
  8
0
  6
CONTINUOUS
 10
139.3412864101078
 20
52.89635063046919
 30
0.0
  0
VERTEX
  5
5F9
  8
0
  6
CONTINUOUS
 10
139.3440510219602
 20
52.89950353050305
 30
0.0
  0
VERTEX
  5
5FA
  8
0
  6
CONTINUOUS
 10
139.3470097779033
 20
52.90325439433644
 30
0.0
  0
VERTEX
  5
5FB
  8
0
  6
CONTINUOUS
 10
139.3505587318822
 20
52.90759545620571
 30
0.0
  0
VERTEX
  5
5FC
  8
0
  6
CONTINUOUS
 10
139.3551017036059
 20
52.88845284885728
 30
0.0
  0
VERTEX
  5
5FD
  8
0
  6
CONTINUOUS
 10
139.3586506575849
 20
52.86970629545399
 30
0.0
  0
VERTEX
  5
5FE
  8
0
  6
CONTINUOUS
 10
139.3608250714014
 20
52.85076559795993
 30
0.0
  0
VERTEX
  5
5FF
  8
0
  6
CONTINUOUS
 10
139.3622073773275
 20
52.8316229906115
 30
0.0
  0
VERTEX
  5
600
  8
0
  6
CONTINUOUS
 10
139.3627975753634
 20
52.81228623917232
 30
0.0
  0
VERTEX
  5
601
  8
0
  6
CONTINUOUS
 10
139.3627975753634
 20
52.7923515239336
 30
0.0
  0
VERTEX
  5
602
  8
0
  6
CONTINUOUS
 10
139.3622073773275
 20
52.77183437642262
 30
0.0
  0
VERTEX
  5
603
  8
0
  6
CONTINUOUS
 10
139.361609413528
 20
52.75032321116698
 30
0.0
  0
VERTEX
  5
604
  8
0
  6
CONTINUOUS
 10
139.3610192154921
 20
52.73414712552528
 30
0.0
  0
VERTEX
  5
605
  8
0
  6
CONTINUOUS
 10
139.3600329635111
 20
52.71026740236243
 30
0.0
  0
VERTEX
  5
606
  8
0
  6
CONTINUOUS
 10
139.3590467115301
 20
52.68757584103499
 30
0.0
  0
VERTEX
  5
607
  8
0
  6
CONTINUOUS
 10
139.3586506575849
 20
52.67474679951791
 30
0.0
  0
VERTEX
  5
608
  8
0
  6
CONTINUOUS
 10
139.3233319645948
 20
52.58970392200362
 30
0.0
  0
VERTEX
  5
609
  8
0
  6
CONTINUOUS
 10
139.3249084146117
 20
52.58694707591491
 30
0.0
  0
VERTEX
  5
60A
  8
0
  6
CONTINUOUS
 10
139.326686774483
 20
52.58437660815331
 30
0.0
  0
VERTEX
  5
60B
  8
0
  6
CONTINUOUS
 10
139.3288534225358
 20
52.58220996010049
 30
0.0
  0
VERTEX
  5
60C
  8
0
  6
CONTINUOUS
 10
139.331221980443
 20
52.58023745613841
 30
0.0
  0
VERTEX
  5
60D
  8
0
  6
CONTINUOUS
 10
139.3339865922954
 20
52.5784590962671
 30
0.0
  0
VERTEX
  5
60E
  8
0
  6
CONTINUOUS
 10
139.3369453482385
 20
52.57707679034093
 30
0.0
  0
VERTEX
  5
60F
  8
0
  6
CONTINUOUS
 10
139.3403001581268
 20
52.57589639426914
 30
0.0
  0
VERTEX
  5
610
  8
0
  6
CONTINUOUS
 10
139.343654968015
 20
52.5749101422881
 30
0.0
  0
VERTEX
  5
611
  8
0
  6
CONTINUOUS
 10
139.3472116877576
 20
52.57392389030706
 30
0.0
  0
VERTEX
  5
612
  8
0
  6
CONTINUOUS
 10
139.3511566956818
 20
52.57313178241679
 30
0.0
  0
VERTEX
  5
613
  8
0
  6
CONTINUOUS
 10
139.3549075595152
 20
52.57254158438089
 30
0.0
  0
VERTEX
  5
614
  8
0
  6
CONTINUOUS
 10
139.3590467115301
 20
52.57214553043575
 30
0.0
  0
VERTEX
  5
615
  8
0
  6
CONTINUOUS
 10
139.3631936293086
 20
52.57155533239985
 30
0.0
  0
VERTEX
  5
616
  8
0
  6
CONTINUOUS
 10
139.3673327813235
 20
52.57115927845472
 30
0.0
  0
VERTEX
  5
617
  8
0
  6
CONTINUOUS
 10
139.3716738431928
 20
52.57095736860033
 30
0.0
  0
VERTEX
  5
618
  8
0
  6
CONTINUOUS
 10
139.376014905062
 20
52.57056908041882
 30
0.0
  0
VERTEX
  5
619
  8
0
  6
CONTINUOUS
 10
139.3920046123766
 20
52.51867048207821
 30
0.0
  0
VERTEX
  5
61A
  8
0
  6
CONTINUOUS
 10
139.4044298341849
 20
52.47564815156693
 30
0.0
  0
VERTEX
  5
61B
  8
0
  6
CONTINUOUS
 10
139.413709921723
 20
52.4403294585768
 30
0.0
  0
VERTEX
  5
61C
  8
0
  6
CONTINUOUS
 10
139.4200234875543
 20
52.41191452945391
 30
0.0
  0
VERTEX
  5
61D
  8
0
  6
CONTINUOUS
 10
139.4239684954785
 20
52.38941711221722
 30
0.0
  0
VERTEX
  5
61E
  8
0
  6
CONTINUOUS
 10
139.4257468553498
 20
52.37185872064935
 30
0.0
  0
VERTEX
  5
61F
  8
0
  6
CONTINUOUS
 10
139.4257468553498
 20
52.35843948109638
 30
0.0
  0
VERTEX
  5
620
  8
0
  6
CONTINUOUS
 10
139.4241626395693
 20
52.34818090734088
 30
0.0
  0
VERTEX
  5
621
  8
0
  6
CONTINUOUS
 10
139.4214057934805
 20
52.34008898163822
 30
0.0
  0
VERTEX
  5
622
  8
0
  6
CONTINUOUS
 10
139.4178490737379
 20
52.33357350595249
 30
0.0
  0
VERTEX
  5
623
  8
0
  6
CONTINUOUS
 10
139.4139040658138
 20
52.32725994012114
 30
0.0
  0
VERTEX
  5
624
  8
0
  6
CONTINUOUS
 10
139.4095630039445
 20
52.32055032034464
 30
0.0
  0
VERTEX
  5
625
  8
0
  6
CONTINUOUS
 10
139.405416086166
 20
52.31226425055122
 30
0.0
  0
VERTEX
  5
626
  8
0
  6
CONTINUOUS
 10
139.401867132187
 20
52.30180376694135
 30
0.0
  0
VERTEX
  5
627
  8
0
  6
CONTINUOUS
 10
139.3991025203346
 20
52.28799623920686
 30
0.0
  0
VERTEX
  5
628
  8
0
  6
CONTINUOUS
 10
139.3975260703177
 20
52.27003402793022
 30
0.0
  0
VERTEX
  5
629
  8
0
  6
CONTINUOUS
 10
139.3998946282249
 20
52.26510276802505
 30
0.0
  0
VERTEX
  5
62A
  8
0
  6
CONTINUOUS
 10
139.401867132187
 20
52.26017150811987
 30
0.0
  0
VERTEX
  5
62B
  8
0
  6
CONTINUOUS
 10
139.403839636149
 20
52.25523248245106
 30
0.0
  0
VERTEX
  5
62C
  8
0
  6
CONTINUOUS
 10
139.4058121401111
 20
52.25030122254589
 30
0.0
  0
VERTEX
  5
62D
  8
0
  6
CONTINUOUS
 10
139.4075904999824
 20
52.24536996264072
 30
0.0
  0
VERTEX
  5
62E
  8
0
  6
CONTINUOUS
 10
139.4091669499993
 20
52.24063284682629
 30
0.0
  0
VERTEX
  5
62F
  8
0
  6
CONTINUOUS
 10
139.4109453098706
 20
52.23589573101187
 30
0.0
  0
VERTEX
  5
630
  8
0
  6
CONTINUOUS
 10
139.4125217598876
 20
52.23115861519745
 30
0.0
  0
VERTEX
  5
631
  8
0
  6
CONTINUOUS
 10
139.4143001197589
 20
52.22662340923742
 30
0.0
  0
VERTEX
  5
632
  8
0
  6
CONTINUOUS
 10
139.4160784796302
 20
52.22208820327739
 30
0.0
  0
VERTEX
  5
633
  8
0
  6
CONTINUOUS
 10
139.4178490737379
 20
52.21754523155372
 30
0.0
  0
VERTEX
  5
634
  8
0
  6
CONTINUOUS
 10
139.4198215777
 20
52.21340607953882
 30
0.0
  0
VERTEX
  5
635
  8
0
  6
CONTINUOUS
 10
139.4219959915164
 20
52.20906501766954
 30
0.0
  0
VERTEX
  5
636
  8
0
  6
CONTINUOUS
 10
139.4243645494236
 20
52.20511224398177
 30
0.0
  0
VERTEX
  5
637
  8
0
  6
CONTINUOUS
 10
139.427129161276
 20
52.20136914591202
 30
0.0
  0
VERTEX
  5
638
  8
0
  6
CONTINUOUS
 10
139.4298860073647
 20
52.19761828207864
 30
0.0
  0
VERTEX
  5
639
  8
0
  6
CONTINUOUS
 10
139.4273233053667
 20
52.18972050046673
 30
0.0
  0
VERTEX
  5
63A
  8
0
  6
CONTINUOUS
 10
139.4265311974765
 20
52.18360884448976
 30
0.0
  0
VERTEX
  5
63B
  8
0
  6
CONTINUOUS
 10
139.4273233053667
 20
52.17887172867534
 30
0.0
  0
VERTEX
  5
63C
  8
0
  6
CONTINUOUS
 10
139.4288997553837
 20
52.17531500893271
 30
0.0
  0
VERTEX
  5
63D
  8
0
  6
CONTINUOUS
 10
139.4308722593457
 20
52.17235625298961
 30
0.0
  0
VERTEX
  5
63E
  8
0
  6
CONTINUOUS
 10
139.4328447633078
 20
52.17018960493678
 30
0.0
  0
VERTEX
  5
63F
  8
0
  6
CONTINUOUS
 10
139.4344289790884
 20
52.16801519112033
 30
0.0
  0
VERTEX
  5
640
  8
0
  6
CONTINUOUS
 10
139.4350191771243
 20
52.1658485430675
 30
0.0
  0
VERTEX
  5
641
  8
0
  6
CONTINUOUS
 10
139.4288997553837
 20
52.15933306738177
 30
0.0
  0
VERTEX
  5
642
  8
0
  6
CONTINUOUS
 10
139.4245586935144
 20
52.15085285349759
 30
0.0
  0
VERTEX
  5
643
  8
0
  6
CONTINUOUS
 10
139.4218018474257
 20
52.14098256792361
 30
0.0
  0
VERTEX
  5
644
  8
0
  6
CONTINUOUS
 10
139.4200234875543
 20
52.13013379613223
 30
0.0
  0
VERTEX
  5
645
  8
0
  6
CONTINUOUS
 10
139.4190372355733
 20
52.11888120463207
 30
0.0
  0
VERTEX
  5
646
  8
0
  6
CONTINUOUS
 10
139.418245127683
 20
52.10763637889555
 30
0.0
  0
VERTEX
  5
647
  8
0
  6
CONTINUOUS
 10
139.417258875702
 20
52.09698175119492
 30
0.0
  0
VERTEX
  5
648
  8
0
  6
CONTINUOUS
 10
139.4156824256851
 20
52.08750751956608
 30
0.0
  0
VERTEX
  5
649
  8
0
  6
CONTINUOUS
 10
139.4133138677779
 20
52.08020770175369
 30
0.0
  0
VERTEX
  5
64A
  8
0
  6
CONTINUOUS
 10
139.4105492559255
 20
52.07230992014178
 30
0.0
  0
VERTEX
  5
64B
  8
0
  6
CONTINUOUS
 10
139.4073963558916
 20
52.06422576020275
 30
0.0
  0
VERTEX
  5
64C
  8
0
  6
CONTINUOUS
 10
139.403839636149
 20
52.0559319246457
 30
0.0
  0
VERTEX
  5
64D
  8
0
  6
CONTINUOUS
 10
139.4000887723156
 20
52.04724980090714
 30
0.0
  0
VERTEX
  5
64E
  8
0
  6
CONTINUOUS
 10
139.3961437643915
 20
52.03856767716858
 30
0.0
  0
VERTEX
  5
64F
  8
0
  6
CONTINUOUS
 10
139.3923929005581
 20
52.02988555343002
 30
0.0
  0
VERTEX
  5
650
  8
0
  6
CONTINUOUS
 10
139.3888439465791
 20
52.02100928560071
 30
0.0
  0
VERTEX
  5
651
  8
0
  6
CONTINUOUS
 10
139.3854891366909
 20
52.01232716186215
 30
0.0
  0
VERTEX
  5
652
  8
0
  6
CONTINUOUS
 10
139.3825303807478
 20
52.00383918221434
 30
0.0
  0
VERTEX
  5
653
  8
0
  6
CONTINUOUS
 10
139.3799676787498
 20
51.99535120256654
 30
0.0
  0
VERTEX
  5
654
  8
0
  6
CONTINUOUS
 10
139.3779874090241
 20
51.98706513277312
 30
0.0
  0
VERTEX
  5
655
  8
0
  6
CONTINUOUS
 10
139.3768070129523
 20
51.97917511692484
 30
0.0
  0
VERTEX
  5
656
  8
0
  6
CONTINUOUS
 10
139.3764109590072
 20
51.97167338925807
 30
0.0
  0
VERTEX
  5
657
  8
0
  6
CONTINUOUS
 10
139.3770011570431
 20
51.96457548130007
 30
0.0
  0
VERTEX
  5
658
  8
0
  6
CONTINUOUS
 10
139.3785853728236
 20
51.95806000561434
 30
0.0
  0
VERTEX
  5
659
  8
0
  6
CONTINUOUS
 10
139.3809539307308
 20
51.94878768383988
 30
0.0
  0
VERTEX
  5
65A
  8
0
  6
CONTINUOUS
 10
139.3839126866739
 20
51.94050161404646
 30
0.0
  0
VERTEX
  5
65B
  8
0
  6
CONTINUOUS
 10
139.3876635505073
 20
51.93280574228893
 30
0.0
  0
VERTEX
  5
65C
  8
0
  6
CONTINUOUS
 10
139.3920046123766
 20
51.92609612251245
 30
0.0
  0
VERTEX
  5
65D
  8
0
  6
CONTINUOUS
 10
139.3969358722818
 20
51.91997670077185
 30
0.0
  0
VERTEX
  5
65E
  8
0
  6
CONTINUOUS
 10
139.4022631861321
 20
51.91444747706715
 30
0.0
  0
VERTEX
  5
65F
  8
0
  6
CONTINUOUS
 10
139.4079865539275
 20
51.90971812701636
 30
0.0
  0
VERTEX
  5
660
  8
0
  6
CONTINUOUS
 10
139.4141059756681
 20
51.90557120923783
 30
0.0
  0
VERTEX
  5
661
  8
0
  6
CONTINUOUS
 10
139.420807829681
 20
51.90202225525884
 30
0.0
  0
VERTEX
  5
662
  8
0
  6
CONTINUOUS
 10
139.4275174494575
 20
51.8990557335521
 30
0.0
  0
VERTEX
  5
663
  8
0
  6
CONTINUOUS
 10
139.4346231231791
 20
51.89649303155414
 30
0.0
  0
VERTEX
  5
664
  8
0
  6
CONTINUOUS
 10
139.4419229409915
 20
51.89452052759207
 30
0.0
  0
VERTEX
  5
665
  8
0
  6
CONTINUOUS
 10
139.4494246686583
 20
51.89313822166589
 30
0.0
  0
VERTEX
  5
666
  8
0
  6
CONTINUOUS
 10
139.4569186305614
 20
51.8919578255941
 30
0.0
  0
VERTEX
  5
667
  8
0
  6
CONTINUOUS
 10
139.4644203582282
 20
51.89135986179458
 30
0.0
  0
VERTEX
  5
668
  8
0
  6
CONTINUOUS
 10
139.4721162299857
 20
51.89097157361307
 30
0.0
  0
VERTEX
  5
669
  8
0
  6
CONTINUOUS
 10
139.4811944076694
 20
51.89708322959003
 30
0.0
  0
VERTEX
  5
66A
  8
0
  6
CONTINUOUS
 10
139.4884942254818
 20
51.90339679542138
 30
0.0
  0
VERTEX
  5
66B
  8
0
  6
CONTINUOUS
 10
139.4940234491865
 20
51.90991227110712
 30
0.0
  0
VERTEX
  5
66C
  8
0
  6
CONTINUOUS
 10
139.4979684571106
 20
51.9166218908836
 30
0.0
  0
VERTEX
  5
66D
  8
0
  6
CONTINUOUS
 10
139.500733068963
 20
51.92352565475085
 30
0.0
  0
VERTEX
  5
66E
  8
0
  6
CONTINUOUS
 10
139.5023095189799
 20
51.93082547256324
 30
0.0
  0
VERTEX
  5
66F
  8
0
  6
CONTINUOUS
 10
139.5030938611066
 20
51.93852134432076
 30
0.0
  0
VERTEX
  5
670
  8
0
  6
CONTINUOUS
 10
139.5030938611066
 20
51.94621721607829
 30
0.0
  0
VERTEX
  5
671
  8
0
  6
CONTINUOUS
 10
139.5025036630707
 20
51.95430914178095
 30
0.0
  0
VERTEX
  5
672
  8
0
  6
CONTINUOUS
 10
139.5015174110896
 20
51.96279712142876
 30
0.0
  0
VERTEX
  5
673
  8
0
  6
CONTINUOUS
 10
139.5005311591086
 20
51.97147924516732
 30
0.0
  0
VERTEX
  5
674
  8
0
  6
CONTINUOUS
 10
139.4995449071276
 20
51.98055742285101
 30
0.0
  0
VERTEX
  5
675
  8
0
  6
CONTINUOUS
 10
139.4987527992373
 20
51.99002388871622
 30
0.0
  0
VERTEX
  5
676
  8
0
  6
CONTINUOUS
 10
139.4983645110558
 20
51.99970003019945
 30
0.0
  0
VERTEX
  5
677
  8
0
  6
CONTINUOUS
 10
139.4987527992373
 20
52.00975669410055
 30
0.0
  0
VERTEX
  5
678
  8
0
  6
CONTINUOUS
 10
139.4997390512183
 20
52.02021717771043
 30
0.0
  0
VERTEX
  5
679
  8
0
  6
CONTINUOUS
 10
139.5080328867754
 20
52.03185805739209
 30
0.0
  0
VERTEX
  5
67A
  8
0
  6
CONTINUOUS
 10
139.5143464526067
 20
52.04745171076153
 30
0.0
  0
VERTEX
  5
67B
  8
0
  6
CONTINUOUS
 10
139.5188816585668
 20
52.0656003003653
 30
0.0
  0
VERTEX
  5
67C
  8
0
  6
CONTINUOUS
 10
139.5220423243642
 20
52.08494481756811
 30
0.0
  0
VERTEX
  5
67D
  8
0
  6
CONTINUOUS
 10
139.5242089724171
 20
52.10388551506217
 30
0.0
  0
VERTEX
  5
67E
  8
0
  6
CONTINUOUS
 10
139.5259873322884
 20
52.12124976253929
 30
0.0
  0
VERTEX
  5
67F
  8
0
  6
CONTINUOUS
 10
139.5273696382146
 20
52.1356552540733
 30
0.0
  0
VERTEX
  5
680
  8
0
  6
CONTINUOUS
 10
139.5291479980859
 20
52.14551777388365
 30
0.0
  0
VERTEX
  5
681
  8
0
  6
CONTINUOUS
 10
139.5463103357086
 20
52.18854010439494
 30
0.0
  0
VERTEX
  5
682
  8
0
  6
CONTINUOUS
 10
139.5524297574492
 20
52.19130471624729
 30
0.0
  0
VERTEX
  5
683
  8
0
  6
CONTINUOUS
 10
139.5579512153903
 20
52.19485367022629
 30
0.0
  0
VERTEX
  5
684
  8
0
  6
CONTINUOUS
 10
139.5632785292406
 20
52.19919473209556
 30
0.0
  0
VERTEX
  5
685
  8
0
  6
CONTINUOUS
 10
139.568015645055
 20
52.20393184790998
 30
0.0
  0
VERTEX
  5
686
  8
0
  6
CONTINUOUS
 10
139.5725586167787
 20
52.2092591617603
 30
0.0
  0
VERTEX
  5
687
  8
0
  6
CONTINUOUS
 10
139.5765036247028
 20
52.21478061970137
 30
0.0
  0
VERTEX
  5
688
  8
0
  6
CONTINUOUS
 10
139.5800525786818
 20
52.22070589735121
 30
0.0
  0
VERTEX
  5
689
  8
0
  6
CONTINUOUS
 10
139.5832132444793
 20
52.22701946318256
 30
0.0
  0
VERTEX
  5
68A
  8
0
  6
CONTINUOUS
 10
139.5859778563317
 20
52.23333302901391
 30
0.0
  0
VERTEX
  5
68B
  8
0
  6
CONTINUOUS
 10
139.5885405583296
 20
52.23964659484526
 30
0.0
  0
VERTEX
  5
68C
  8
0
  6
CONTINUOUS
 10
139.5905130622917
 20
52.24596016067661
 30
0.0
  0
VERTEX
  5
68D
  8
0
  6
CONTINUOUS
 10
139.5920895123086
 20
52.25227372650796
 30
0.0
  0
VERTEX
  5
68E
  8
0
  6
CONTINUOUS
 10
139.5934718182348
 20
52.25839314824855
 30
0.0
  0
VERTEX
  5
68F
  8
0
  6
CONTINUOUS
 10
139.5942639261251
 20
52.26411651604401
 30
0.0
  0
VERTEX
  5
690
  8
0
  6
CONTINUOUS
 10
139.594854124161
 20
52.26963797398508
 30
0.0
  0
VERTEX
  5
691
  8
0
  6
CONTINUOUS
 10
139.5950482682517
 20
52.27457699965388
 30
0.0
  0
VERTEX
  5
692
  8
0
  6
CONTINUOUS
 10
139.6043205900262
 20
52.2611577601009
 30
0.0
  0
VERTEX
  5
693
  8
0
  6
CONTINUOUS
 10
139.6051049321528
 20
52.23115861519745
 30
0.0
  0
VERTEX
  5
694
  8
0
  6
CONTINUOUS
 10
139.6057028959524
 20
52.21024541374133
 30
0.0
  0
VERTEX
  5
695
  8
0
  6
CONTINUOUS
 10
139.6058970400431
 20
52.19682617418835
 30
0.0
  0
VERTEX
  5
696
  8
0
  6
CONTINUOUS
 10
139.6051049321528
 20
52.18854010439494
 30
0.0
  0
VERTEX
  5
697
  8
0
  6
CONTINUOUS
 10
139.6033343380451
 20
52.18380298858052
 30
0.0
  0
VERTEX
  5
698
  8
0
  6
CONTINUOUS
 10
139.6001736722476
 20
52.18044817869227
 30
0.0
  0
VERTEX
  5
699
  8
0
  6
CONTINUOUS
 10
139.5956462320513
 20
52.17650317076813
 30
0.0
  0
VERTEX
  5
69A
  8
0
  6
CONTINUOUS
 10
139.5893326662199
 20
52.1699876950824
 30
0.0
  0
VERTEX
  5
69B
  8
0
  6
CONTINUOUS
 10
139.5895268103106
 20
52.16564663321311
 30
0.0
  0
VERTEX
  5
69C
  8
0
  6
CONTINUOUS
 10
139.5903189182009
 20
52.16150748119822
 30
0.0
  0
VERTEX
  5
69D
  8
0
  6
CONTINUOUS
 10
139.591305170182
 20
52.1579507614556
 30
0.0
  0
VERTEX
  5
69E
  8
0
  6
CONTINUOUS
 10
139.5926874761082
 20
52.15479786142173
 30
0.0
  0
VERTEX
  5
69F
  8
0
  6
CONTINUOUS
 10
139.5942639261251
 20
52.15183910547863
 30
0.0
  0
VERTEX
  5
6A0
  8
0
  6
CONTINUOUS
 10
139.5960422859964
 20
52.14926863771704
 30
0.0
  0
VERTEX
  5
6A1
  8
0
  6
CONTINUOUS
 10
139.5976187360133
 20
52.14670593571907
 30
0.0
  0
VERTEX
  5
6A2
  8
0
  6
CONTINUOUS
 10
139.599389330121
 20
52.14433737781186
 30
0.0
  0
VERTEX
  5
6A3
  8
0
  6
CONTINUOUS
 10
139.5964305741779
 20
52.14217072975903
 30
0.0
  0
VERTEX
  5
6A4
  8
0
  6
CONTINUOUS
 10
139.5936737280892
 20
52.13999631594258
 30
0.0
  0
VERTEX
  5
6A5
  8
0
  6
CONTINUOUS
 10
139.591305170182
 20
52.13782966788975
 30
0.0
  0
VERTEX
  5
6A6
  8
0
  6
CONTINUOUS
 10
139.5891307563655
 20
52.1356552540733
 30
0.0
  0
VERTEX
  5
6A7
  8
0
  6
CONTINUOUS
 10
139.5869641083127
 20
52.13348084025684
 30
0.0
  0
VERTEX
  5
6A8
  8
0
  6
CONTINUOUS
 10
139.5849916043506
 20
52.13112004811326
 30
0.0
  0
VERTEX
  5
6A9
  8
0
  6
CONTINUOUS
 10
139.5830113346249
 20
52.12854958035167
 30
0.0
  0
VERTEX
  5
6AA
  8
0
  6
CONTINUOUS
 10
139.5810388306628
 20
52.1259868783537
 30
0.0
  0
VERTEX
  5
6AB
  8
0
  6
CONTINUOUS
 10
139.5802544885362
 20
52.10763637889555
 30
0.0
  0
VERTEX
  5
6AC
  8
0
  6
CONTINUOUS
 10
139.5780800747197
 20
52.09066818536357
 30
0.0
  0
VERTEX
  5
6AD
  8
0
  6
CONTINUOUS
 10
139.5749271746859
 20
52.07507453199413
 30
0.0
  0
VERTEX
  5
6AE
  8
0
  6
CONTINUOUS
 10
139.5711763108525
 20
52.06066904046012
 30
0.0
  0
VERTEX
  5
6AF
  8
0
  6
CONTINUOUS
 10
139.5672313029283
 20
52.04745171076153
 30
0.0
  0
VERTEX
  5
6B0
  8
0
  6
CONTINUOUS
 10
139.5632785292406
 20
52.0348168133352
 30
0.0
  0
VERTEX
  5
6B1
  8
0
  6
CONTINUOUS
 10
139.5597295752616
 20
52.02298178956278
 30
0.0
  0
VERTEX
  5
6B2
  8
0
  6
CONTINUOUS
 10
139.5569649634092
 20
52.01173696382625
 30
0.0
  0
VERTEX
  5
6B3
  8
0
  6
CONTINUOUS
 10
139.5573610173544
 20
52.01074294608159
 30
0.0
  0
VERTEX
  5
6B4
  8
0
  6
CONTINUOUS
 10
139.5581531252446
 20
52.00818024408363
 30
0.0
  0
VERTEX
  5
6B5
  8
0
  6
CONTINUOUS
 10
139.5595354311708
 20
52.00463129010463
 30
0.0
  0
VERTEX
  5
6B6
  8
0
  6
CONTINUOUS
 10
139.5607158272426
 20
52.00029022823534
 30
0.0
  0
VERTEX
  5
6B7
  8
0
  6
CONTINUOUS
 10
139.561903989078
 20
51.99574725651168
 30
0.0
  0
VERTEX
  5
6B8
  8
0
  6
CONTINUOUS
 10
139.5624941871139
 20
51.9914061946424
 30
0.0
  0
VERTEX
  5
6B9
  8
0
  6
CONTINUOUS
 10
139.5624941871139
 20
51.98765533080901
 30
0.0
  0
VERTEX
  5
6BA
  8
0
  6
CONTINUOUS
 10
139.5615079351329
 20
51.98509262881105
 30
0.0
  0
VERTEX
  5
6BB
  8
0
  6
CONTINUOUS
 10
139.5589374673713
 20
51.98193972877719
 30
0.0
  0
VERTEX
  5
6BC
  8
0
  6
CONTINUOUS
 10
139.5561806212826
 20
51.9781888649438
 30
0.0
  0
VERTEX
  5
6BD
  8
0
  6
CONTINUOUS
 10
139.5534160094302
 20
51.97364589322014
 30
0.0
  0
VERTEX
  5
6BE
  8
0
  6
CONTINUOUS
 10
139.5506513975779
 20
51.96871463331497
 30
0.0
  0
VERTEX
  5
6BF
  8
0
  6
CONTINUOUS
 10
139.5476926416348
 20
51.9631931753739
 30
0.0
  0
VERTEX
  5
6C0
  8
0
  6
CONTINUOUS
 10
139.5445397416009
 20
51.95726789772406
 30
0.0
  0
VERTEX
  5
6C1
  8
0
  6
CONTINUOUS
 10
139.5415732198942
 20
51.95135038583785
 30
0.0
  0
VERTEX
  5
6C2
  8
0
  6
CONTINUOUS
 10
139.5386144639511
 20
51.94523096409725
 30
0.0
  0
VERTEX
  5
6C3
  8
0
  6
CONTINUOUS
 10
139.535655708008
 20
51.9389173982659
 30
0.0
  0
VERTEX
  5
6C4
  8
0
  6
CONTINUOUS
 10
139.5328910961556
 20
51.93299988637969
 30
0.0
  0
VERTEX
  5
6C5
  8
0
  6
CONTINUOUS
 10
139.5299323402125
 20
51.92708237449348
 30
0.0
  0
VERTEX
  5
6C6
  8
0
  6
CONTINUOUS
 10
139.5273696382146
 20
51.92155315078878
 30
0.0
  0
VERTEX
  5
6C7
  8
0
  6
CONTINUOUS
 10
139.5248069362166
 20
51.91641998102922
 30
0.0
  0
VERTEX
  5
6C8
  8
0
  6
CONTINUOUS
 10
139.5224383783094
 20
51.91169063097843
 30
0.0
  0
VERTEX
  5
6C9
  8
0
  6
CONTINUOUS
 10
139.5202639644929
 20
51.90773785729066
 30
0.0
  0
VERTEX
  5
6CA
  8
0
  6
CONTINUOUS
 10
139.5182914605309
 20
51.9045849572568
 30
0.0
  0
VERTEX
  5
6CB
  8
0
  6
CONTINUOUS
 10
139.5171110644591
 20
51.90024389538753
 30
0.0
  0
VERTEX
  5
6CC
  8
0
  6
CONTINUOUS
 10
139.5163189565688
 20
51.896096977609
 30
0.0
  0
VERTEX
  5
6CD
  8
0
  6
CONTINUOUS
 10
139.5161170467144
 20
51.8919578255941
 30
0.0
  0
VERTEX
  5
6CE
  8
0
  6
CONTINUOUS
 10
139.5165131006596
 20
51.88741485387044
 30
0.0
  0
VERTEX
  5
6CF
  8
0
  6
CONTINUOUS
 10
139.5171110644591
 20
51.88208754002012
 30
0.0
  0
VERTEX
  5
6D0
  8
0
  6
CONTINUOUS
 10
139.5184856046216
 20
51.87577397418877
 30
0.0
  0
VERTEX
  5
6D1
  8
0
  6
CONTINUOUS
 10
139.5204658743473
 20
51.868272246522
 30
0.0
  0
VERTEX
  5
6D2
  8
0
  6
CONTINUOUS
 10
139.5228266664909
 20
51.85920183460193
 30
0.0
  0
VERTEX
  5
6D3
  8
0
  6
CONTINUOUS
 10
139.5190835684211
 20
51.85051971086337
 30
0.0
  0
VERTEX
  5
6D4
  8
0
  6
CONTINUOUS
 10
139.5165131006596
 20
51.84381009108689
 30
0.0
  0
VERTEX
  5
6D5
  8
0
  6
CONTINUOUS
 10
139.5151307947334
 20
51.83867692132733
 30
0.0
  0
VERTEX
  5
6D6
  8
0
  6
CONTINUOUS
 10
139.5143464526067
 20
51.83492605749394
 30
0.0
  0
VERTEX
  5
6D7
  8
0
  6
CONTINUOUS
 10
139.5137562545708
 20
51.83177315746008
 30
0.0
  0
VERTEX
  5
6D8
  8
0
  6
CONTINUOUS
 10
139.5133602006257
 20
51.82880663575335
 30
0.0
  0
VERTEX
  5
6D9
  8
0
  6
CONTINUOUS
 10
139.5127700025898
 20
51.82565373571948
 30
0.0
  0
VERTEX
  5
6DA
  8
0
  6
CONTINUOUS
 10
139.5113876966636
 20
51.82170872779535
 30
0.0
  0
VERTEX
  5
6DB
  8
0
  6
CONTINUOUS
 10
139.5094151927015
 20
51.81204035207575
 30
0.0
  0
VERTEX
  5
6DC
  8
0
  6
CONTINUOUS
 10
139.5074349229758
 20
51.8037465165187
 30
0.0
  0
VERTEX
  5
6DD
  8
0
  6
CONTINUOUS
 10
139.5056643288682
 20
51.79605064476118
 30
0.0
  0
VERTEX
  5
6DE
  8
0
  6
CONTINUOUS
 10
139.504282022942
 20
51.78875082694879
 30
0.0
  0
VERTEX
  5
6DF
  8
0
  6
CONTINUOUS
 10
139.5034899150517
 20
51.78125686504566
 30
0.0
  0
VERTEX
  5
6E0
  8
0
  6
CONTINUOUS
 10
139.5036918249061
 20
51.77335908343375
 30
0.0
  0
VERTEX
  5
6E1
  8
0
  6
CONTINUOUS
 10
139.5050741308323
 20
51.76467695969519
 30
0.0
  0
VERTEX
  5
6E2
  8
0
  6
CONTINUOUS
 10
139.5076368328302
 20
51.75441838593969
 30
0.0
  0
VERTEX
  5
6E3
  8
0
  6
CONTINUOUS
 10
139.5090191387564
 20
51.75323022410427
 30
0.0
  0
VERTEX
  5
6E4
  8
0
  6
CONTINUOUS
 10
139.5107897328641
 20
51.75224397212324
 30
0.0
  0
VERTEX
  5
6E5
  8
0
  6
CONTINUOUS
 10
139.5123739486446
 20
51.75125772014221
 30
0.0
  0
VERTEX
  5
6E6
  8
0
  6
CONTINUOUS
 10
139.5143464526067
 20
51.75047337801556
 30
0.0
  0
VERTEX
  5
6E7
  8
0
  6
CONTINUOUS
 10
139.5165131006596
 20
51.74987541421603
 30
0.0
  0
VERTEX
  5
6E8
  8
0
  6
CONTINUOUS
 10
139.518687514476
 20
51.74909107208938
 30
0.0
  0
VERTEX
  5
6E9
  8
0
  6
CONTINUOUS
 10
139.5210560723832
 20
51.74869501814424
 30
0.0
  0
VERTEX
  5
6EA
  8
0
  6
CONTINUOUS
 10
139.5236187743812
 20
51.74810482010835
 30
0.0
  0
VERTEX
  5
6EB
  8
0
  6
CONTINUOUS
 10
139.5263833862335
 20
51.74770876616321
 30
0.0
  0
VERTEX
  5
6EC
  8
0
  6
CONTINUOUS
 10
139.5293421421766
 20
51.74731271221806
 30
0.0
  0
VERTEX
  5
6ED
  8
0
  6
CONTINUOUS
 10
139.5323008981197
 20
51.74691665827292
 30
0.0
  0
VERTEX
  5
6EE
  8
0
  6
CONTINUOUS
 10
139.5354615639172
 20
51.74672251418217
 30
0.0
  0
VERTEX
  5
6EF
  8
0
  6
CONTINUOUS
 10
139.5388163738055
 20
51.74652060432778
 30
0.0
  0
VERTEX
  5
6F0
  8
0
  6
CONTINUOUS
 10
139.5423653277845
 20
51.74632646023703
 30
0.0
  0
VERTEX
  5
6F1
  8
0
  6
CONTINUOUS
 10
139.5459142817635
 20
51.74613231614627
 30
0.0
  0
VERTEX
  5
6F2
  8
0
  6
CONTINUOUS
 10
139.5496651455969
 20
51.74593040629189
 30
0.0
  0
VERTEX
  5
6F3
  8
0
  6
CONTINUOUS
 10
139.5587433232806
 20
51.74987541421603
 30
0.0
  0
VERTEX
  5
6F4
  8
0
  6
CONTINUOUS
 10
139.5646608351668
 20
51.75106357605145
 30
0.0
  0
VERTEX
  5
6F5
  8
0
  6
CONTINUOUS
 10
139.5709744009981
 20
51.75165377408734
 30
0.0
  0
VERTEX
  5
6F6
  8
0
  6
CONTINUOUS
 10
139.577885930629
 20
51.75185568394173
 30
0.0
  0
VERTEX
  5
6F7
  8
0
  6
CONTINUOUS
 10
139.5849916043506
 20
51.75165377408734
 30
0.0
  0
VERTEX
  5
6F8
  8
0
  6
CONTINUOUS
 10
139.5926874761082
 20
51.75125772014221
 30
0.0
  0
VERTEX
  5
6F9
  8
0
  6
CONTINUOUS
 10
139.600375582102
 20
51.75086166619707
 30
0.0
  0
VERTEX
  5
6FA
  8
0
  6
CONTINUOUS
 10
139.6084597420411
 20
51.75047337801556
 30
0.0
  0
VERTEX
  5
6FB
  8
0
  6
CONTINUOUS
 10
139.6165516677437
 20
51.75007732407042
 30
0.0
  0
VERTEX
  5
6FC
  8
0
  6
CONTINUOUS
 10
139.6248377375371
 20
51.74968127012527
 30
0.0
  0
VERTEX
  5
6FD
  8
0
  6
CONTINUOUS
 10
139.633325717185
 20
51.74987541421603
 30
0.0
  0
VERTEX
  5
6FE
  8
0
  6
CONTINUOUS
 10
139.6416117869784
 20
51.75027146816117
 30
0.0
  0
VERTEX
  5
6FF
  8
0
  6
CONTINUOUS
 10
139.6498978567718
 20
51.75106357605145
 30
0.0
  0
VERTEX
  5
700
  8
0
  6
CONTINUOUS
 10
139.6581916923288
 20
51.75264002606838
 30
0.0
  0
VERTEX
  5
701
  8
0
  6
CONTINUOUS
 10
139.6660817081771
 20
51.75461253003045
 30
0.0
  0
VERTEX
  5
702
  8
0
  6
CONTINUOUS
 10
139.6739717240254
 20
51.75757128597355
 30
0.0
  0
VERTEX
  5
703
  8
0
  6
CONTINUOUS
 10
139.6814734516922
 20
51.76132214980694
 30
0.0
  0
VERTEX
  5
704
  8
0
  6
CONTINUOUS
 10
139.6818695056373
 20
51.76744157154754
 30
0.0
  0
VERTEX
  5
705
  8
0
  6
CONTINUOUS
 10
139.6806813438019
 20
51.77237283145271
 30
0.0
  0
VERTEX
  5
706
  8
0
  6
CONTINUOUS
 10
139.6779244977132
 20
51.77651974923123
 30
0.0
  0
VERTEX
  5
707
  8
0
  6
CONTINUOUS
 10
139.6741736338798
 20
51.77987455911948
 30
0.0
  0
VERTEX
  5
708
  8
0
  6
CONTINUOUS
 10
139.6694365180654
 20
51.78263917097183
 30
0.0
  0
VERTEX
  5
709
  8
0
  6
CONTINUOUS
 10
139.6641092042151
 20
51.78480581902465
 30
0.0
  0
VERTEX
  5
70A
  8
0
  6
CONTINUOUS
 10
139.6579897824745
 20
51.78677832298672
 30
0.0
  0
VERTEX
  5
70B
  8
0
  6
CONTINUOUS
 10
139.6516762166431
 20
51.78875082694879
 30
0.0
  0
VERTEX
  5
70C
  8
0
  6
CONTINUOUS
 10
139.6453626508118
 20
51.79032727696572
 30
0.0
  0
VERTEX
  5
70D
  8
0
  6
CONTINUOUS
 10
139.6390490849804
 20
51.79230754669143
 30
0.0
  0
VERTEX
  5
70E
  8
0
  6
CONTINUOUS
 10
139.6329296632398
 20
51.79447419474425
 30
0.0
  0
VERTEX
  5
70F
  8
0
  6
CONTINUOUS
 10
139.6276023493895
 20
51.79703689674221
 30
0.0
  0
VERTEX
  5
710
  8
0
  6
CONTINUOUS
 10
139.6228652335751
 20
51.8001975625397
 30
0.0
  0
VERTEX
  5
711
  8
0
  6
CONTINUOUS
 10
139.6191221355053
 20
51.80394842637309
 30
0.0
  0
VERTEX
  5
712
  8
0
  6
CONTINUOUS
 10
139.616357523653
 20
51.80848363233312
 30
0.0
  0
VERTEX
  5
713
  8
0
  6
CONTINUOUS
 10
139.6151693618175
 20
51.81420700012858
 30
0.0
  0
VERTEX
  5
714
  8
0
  6
CONTINUOUS
 10
139.6203025315771
 20
51.82072247581431
 30
0.0
  0
VERTEX
  5
715
  8
0
  6
CONTINUOUS
 10
139.619906477632
 20
51.82288912386714
 30
0.0
  0
VERTEX
  5
716
  8
0
  6
CONTINUOUS
 10
139.6185241717058
 20
51.82446557388407
 30
0.0
  0
VERTEX
  5
717
  8
0
  6
CONTINUOUS
 10
139.6167535775981
 20
51.8254518258651
 30
0.0
  0
VERTEX
  5
718
  8
0
  6
CONTINUOUS
 10
139.6143850196909
 20
51.82624393375538
 30
0.0
  0
VERTEX
  5
719
  8
0
  6
CONTINUOUS
 10
139.6118145519293
 20
51.82663998770052
 30
0.0
  0
VERTEX
  5
71A
  8
0
  6
CONTINUOUS
 10
139.6092518499314
 20
51.82703604164566
 30
0.0
  0
VERTEX
  5
71B
  8
0
  6
CONTINUOUS
 10
139.6066891479334
 20
51.82703604164566
 30
0.0
  0
VERTEX
  5
71C
  8
0
  6
CONTINUOUS
 10
139.6045147341169
 20
51.82703604164566
 30
0.0
  0
VERTEX
  5
71D
  8
0
  6
CONTINUOUS
 10
139.6045147341169
 20
51.8345300035488
 30
0.0
  0
VERTEX
  5
71E
  8
0
  6
CONTINUOUS
 10
139.6096479038765
 20
51.83788481343704
 30
0.0
  0
VERTEX
  5
71F
  8
0
  6
CONTINUOUS
 10
139.6145791637817
 20
51.84183758712481
 30
0.0
  0
VERTEX
  5
720
  8
0
  6
CONTINUOUS
 10
139.6193162795961
 20
51.8465669371756
 30
0.0
  0
VERTEX
  5
721
  8
0
  6
CONTINUOUS
 10
139.6240533954105
 20
51.85189425102592
 30
0.0
  0
VERTEX
  5
722
  8
0
  6
CONTINUOUS
 10
139.6285886013706
 20
51.85761761882137
 30
0.0
  0
VERTEX
  5
723
  8
0
  6
CONTINUOUS
 10
139.6327355191491
 20
51.86354289647122
 30
0.0
  0
VERTEX
  5
724
  8
0
  6
CONTINUOUS
 10
139.6366805270732
 20
51.86985646230256
 30
0.0
  0
VERTEX
  5
725
  8
0
  6
CONTINUOUS
 10
139.6402294810522
 20
51.87617002813391
 30
0.0
  0
VERTEX
  5
726
  8
0
  6
CONTINUOUS
 10
139.6433901468497
 20
51.88248359396526
 30
0.0
  0
VERTEX
  5
727
  8
0
  6
CONTINUOUS
 10
139.646154758702
 20
51.88860301570586
 30
0.0
  0
VERTEX
  5
728
  8
0
  6
CONTINUOUS
 10
139.6485233166092
 20
51.89471467168282
 30
0.0
  0
VERTEX
  5
729
  8
0
  6
CONTINUOUS
 10
139.6504958205713
 20
51.90024389538753
 30
0.0
  0
VERTEX
  5
72A
  8
0
  6
CONTINUOUS
 10
139.6518781264975
 20
51.90537706514709
 30
0.0
  0
VERTEX
  5
72B
  8
0
  6
CONTINUOUS
 10
139.6526624686242
 20
51.90991227110712
 30
0.0
  0
VERTEX
  5
72C
  8
0
  6
CONTINUOUS
 10
139.6526624686242
 20
51.9136631349405
 30
0.0
  0
VERTEX
  5
72D
  8
0
  6
CONTINUOUS
 10
139.652266414679
 20
51.91681603497436
 30
0.0
  0
VERTEX
  5
72E
  8
0
  6
CONTINUOUS
 10
139.6593720884006
 20
51.92570006856731
 30
0.0
  0
VERTEX
  5
72F
  8
0
  6
CONTINUOUS
 10
139.6650954561961
 20
51.93359008441558
 30
0.0
  0
VERTEX
  5
730
  8
0
  6
CONTINUOUS
 10
139.6696306621561
 20
51.94050161404646
 30
0.0
  0
VERTEX
  5
731
  8
0
  6
CONTINUOUS
 10
139.6733815259895
 20
51.94681517987781
 30
0.0
  0
VERTEX
  5
732
  8
0
  6
CONTINUOUS
 10
139.6761461378419
 20
51.95233663781888
 30
0.0
  0
VERTEX
  5
733
  8
0
  6
CONTINUOUS
 10
139.6783205516583
 20
51.95726789772406
 30
0.0
  0
VERTEX
  5
734
  8
0
  6
CONTINUOUS
 10
139.6798970016752
 20
51.96200501353847
 30
0.0
  0
VERTEX
  5
735
  8
0
  6
CONTINUOUS
 10
139.6812793076014
 20
51.96634607540776
 30
0.0
  0
VERTEX
  5
736
  8
0
  6
CONTINUOUS
 10
139.6824597036732
 20
51.97049299318628
 30
0.0
  0
VERTEX
  5
737
  8
0
  6
CONTINUOUS
 10
139.6834459556542
 20
51.97463214520118
 30
0.0
  0
VERTEX
  5
738
  8
0
  6
CONTINUOUS
 10
139.6846341174897
 20
51.9787790629797
 30
0.0
  0
VERTEX
  5
739
  8
0
  6
CONTINUOUS
 10
139.6860086576522
 20
51.98312012484898
 30
0.0
  0
VERTEX
  5
73A
  8
0
  6
CONTINUOUS
 10
139.6877870175235
 20
51.9878572406634
 30
0.0
  0
VERTEX
  5
73B
  8
0
  6
CONTINUOUS
 10
139.6901555754307
 20
51.99278850056857
 30
0.0
  0
VERTEX
  5
73C
  8
0
  6
CONTINUOUS
 10
139.6933162412282
 20
51.99831772427327
 30
0.0
  0
VERTEX
  5
73D
  8
0
  6
CONTINUOUS
 10
139.6972612491524
 20
52.00463129010463
 30
0.0
  0
VERTEX
  5
73E
  8
0
  6
CONTINUOUS
 10
139.7017964551124
 20
52.01094485593597
 30
0.0
  0
VERTEX
  5
73F
  8
0
  6
CONTINUOUS
 10
139.7063394268361
 20
52.01706427767657
 30
0.0
  0
VERTEX
  5
740
  8
0
  6
CONTINUOUS
 10
139.7110765426505
 20
52.02298178956278
 30
0.0
  0
VERTEX
  5
741
  8
0
  6
CONTINUOUS
 10
139.7160078025557
 20
52.02850324750385
 30
0.0
  0
VERTEX
  5
742
  8
0
  6
CONTINUOUS
 10
139.7207449183701
 20
52.03403247120855
 30
0.0
  0
VERTEX
  5
743
  8
0
  6
CONTINUOUS
 10
139.7254742684209
 20
52.03955392914962
 30
0.0
  0
VERTEX
  5
744
  8
0
  6
CONTINUOUS
 10
139.7300172401445
 20
52.04488124299994
 30
0.0
  0
VERTEX
  5
745
  8
0
  6
CONTINUOUS
 10
139.7345524461046
 20
52.05020855685024
 30
0.0
  0
VERTEX
  5
746
  8
0
  6
CONTINUOUS
 10
139.7388935079738
 20
52.05554363646419
 30
0.0
  0
VERTEX
  5
747
  8
0
  6
CONTINUOUS
 10
139.7428462816616
 20
52.06087095031451
 30
0.0
  0
VERTEX
  5
748
  8
0
  6
CONTINUOUS
 10
139.7463952356406
 20
52.06658655234633
 30
0.0
  0
VERTEX
  5
749
  8
0
  6
CONTINUOUS
 10
139.7497500455289
 20
52.07230992014178
 30
0.0
  0
VERTEX
  5
74A
  8
0
  6
CONTINUOUS
 10
139.752708801472
 20
52.07823519779163
 30
0.0
  0
VERTEX
  5
74B
  8
0
  6
CONTINUOUS
 10
139.7550773593792
 20
52.08454876362298
 30
0.0
  0
VERTEX
  5
74C
  8
0
  6
CONTINUOUS
 10
139.7568557192505
 20
52.09125838339946
 30
0.0
  0
VERTEX
  5
74D
  8
0
  6
CONTINUOUS
 10
139.7582380251767
 20
52.09816214726671
 30
0.0
  0
VERTEX
  5
74E
  8
0
  6
CONTINUOUS
 10
139.7580361153223
 20
52.10644821706013
 30
0.0
  0
VERTEX
  5
74F
  8
0
  6
CONTINUOUS
 10
139.7576400613771
 20
52.11651264672486
 30
0.0
  0
VERTEX
  5
750
  8
0
  6
CONTINUOUS
 10
139.7572517731956
 20
52.12756332837063
 30
0.0
  0
VERTEX
  5
751
  8
0
  6
CONTINUOUS
 10
139.7572517731956
 20
52.1392042080523
 30
0.0
  0
VERTEX
  5
752
  8
0
  6
CONTINUOUS
 10
139.7574459172864
 20
52.15045679955245
 30
0.0
  0
VERTEX
  5
753
  8
0
  6
CONTINUOUS
 10
139.7586263133582
 20
52.1609095173987
 30
0.0
  0
VERTEX
  5
754
  8
0
  6
CONTINUOUS
 10
139.7604046732295
 20
52.16979355099164
 30
0.0
  0
VERTEX
  5
755
  8
0
  6
CONTINUOUS
 10
139.763565339027
 20
52.17650317076813
 30
0.0
  0
VERTEX
  5
756
  8
0
  6
CONTINUOUS
 10
139.7698789048583
 20
52.18833819454055
 30
0.0
  0
VERTEX
  5
757
  8
0
  6
CONTINUOUS
 10
139.7757964167446
 20
52.20412599200074
 30
0.0
  0
VERTEX
  5
758
  8
0
  6
CONTINUOUS
 10
139.7813256404492
 20
52.22326859934918
 30
0.0
  0
VERTEX
  5
759
  8
0
  6
CONTINUOUS
 10
139.7862569003544
 20
52.24517581854996
 30
0.0
  0
VERTEX
  5
75A
  8
0
  6
CONTINUOUS
 10
139.7907921063145
 20
52.26983988383946
 30
0.0
  0
VERTEX
  5
75B
  8
0
  6
CONTINUOUS
 10
139.794939024093
 20
52.29628230900028
 30
0.0
  0
VERTEX
  5
75C
  8
0
  6
CONTINUOUS
 10
139.798487978072
 20
52.32430118417803
 30
0.0
  0
VERTEX
  5
75D
  8
0
  6
CONTINUOUS
 10
139.8018427879602
 20
52.35330631133682
 30
0.0
  0
VERTEX
  5
75E
  8
0
  6
CONTINUOUS
 10
139.8044054899582
 20
52.38270749244074
 30
0.0
  0
VERTEX
  5
75F
  8
0
  6
CONTINUOUS
 10
139.8067740478654
 20
52.41231058339905
 30
0.0
  0
VERTEX
  5
760
  8
0
  6
CONTINUOUS
 10
139.8085524077367
 20
52.44131571055783
 30
0.0
  0
VERTEX
  5
761
  8
0
  6
CONTINUOUS
 10
139.8097405695721
 20
52.46953649558996
 30
0.0
  0
VERTEX
  5
762
  8
0
  6
CONTINUOUS
 10
139.8105249116988
 20
52.49617306484154
 30
0.0
  0
VERTEX
  5
763
  8
0
  6
CONTINUOUS
 10
139.8109209656439
 20
52.52103903998542
 30
0.0
  0
VERTEX
  5
764
  8
0
  6
CONTINUOUS
 10
139.8107268215532
 20
52.54333454736772
 30
0.0
  0
VERTEX
  5
765
  8
0
  6
CONTINUOUS
 10
139.8099347136629
 20
52.56287320866129
 30
0.0
  0
VERTEX
  5
766
  8
0
  6
CONTINUOUS
 10
139.810330767608
 20
52.56563005475002
 30
0.0
  0
VERTEX
  5
767
  8
0
  6
CONTINUOUS
 10
139.8113170195891
 20
52.56918677449264
 30
0.0
  0
VERTEX
  5
768
  8
0
  6
CONTINUOUS
 10
139.812893469606
 20
52.57332592650754
 30
0.0
  0
VERTEX
  5
769
  8
0
  6
CONTINUOUS
 10
139.8146718294773
 20
52.57766698837682
 30
0.0
  0
VERTEX
  5
76A
  8
0
  6
CONTINUOUS
 10
139.8162482794942
 20
52.5820080502461
 30
0.0
  0
VERTEX
  5
76B
  8
0
  6
CONTINUOUS
 10
139.8178247295112
 20
52.58615496802462
 30
0.0
  0
VERTEX
  5
76C
  8
0
  6
CONTINUOUS
 10
139.8188109814922
 20
52.58970392200362
 30
0.0
  0
VERTEX
  5
76D
  8
0
  6
CONTINUOUS
 10
139.8192070354373
 20
52.59246853385597
 30
0.0
  0
VERTEX
  5
76E
  8
0
  6
CONTINUOUS
 10
139.9172808643231
 20
52.58793332789594
 30
0.0
  0
VERTEX
  5
76F
  8
0
  6
CONTINUOUS
 10
139.9176769182682
 20
52.59976835166836
 30
0.0
  0
VERTEX
  5
770
  8
0
  6
CONTINUOUS
 10
139.9184612603949
 20
52.61555614912855
 30
0.0
  0
VERTEX
  5
771
  8
0
  6
CONTINUOUS
 10
139.9190592241944
 20
52.63350282887793
 30
0.0
  0
VERTEX
  5
772
  8
0
  6
CONTINUOUS
 10
139.9190592241944
 20
52.65224938228123
 30
0.0
  0
VERTEX
  5
773
  8
0
  6
CONTINUOUS
 10
139.917871062359
 20
52.67000968370348
 30
0.0
  0
VERTEX
  5
774
  8
0
  6
CONTINUOUS
 10
139.9149123064159
 20
52.68540142721854
 30
0.0
  0
VERTEX
  5
775
  8
0
  6
CONTINUOUS
 10
139.9095849925656
 20
52.69665401871869
 30
0.0
  0
VERTEX
  5
776
  8
0
  6
CONTINUOUS
 10
139.9012989227722
 20
52.70237738651414
 30
0.0
  0
VERTEX
  5
777
  8
0
  6
CONTINUOUS
 10
139.9014930668629
 20
52.70691259247418
 30
0.0
  0
VERTEX
  5
778
  8
0
  6
CONTINUOUS
 10
139.9020832648988
 20
52.71085760039832
 30
0.0
  0
VERTEX
  5
779
  8
0
  6
CONTINUOUS
 10
139.9032714267342
 20
52.71441432014095
 30
0.0
  0
VERTEX
  5
77A
  8
0
  6
CONTINUOUS
 10
139.904451822806
 20
52.71756722017481
 30
0.0
  0
VERTEX
  5
77B
  8
0
  6
CONTINUOUS
 10
139.9060360385866
 20
52.72052597611791
 30
0.0
  0
VERTEX
  5
77C
  8
0
  6
CONTINUOUS
 10
139.9078066326942
 20
52.72309644387951
 30
0.0
  0
VERTEX
  5
77D
  8
0
  6
CONTINUOUS
 10
139.9095849925656
 20
52.72565914587747
 30
0.0
  0
VERTEX
  5
77E
  8
0
  6
CONTINUOUS
 10
139.9115574965276
 20
52.72802770378468
 30
0.0
  0
VERTEX
  5
77F
  8
0
  6
CONTINUOUS
 10
139.9139260544349
 20
52.72743750574879
 30
0.0
  0
VERTEX
  5
780
  8
0
  6
CONTINUOUS
 10
139.9164887564328
 20
52.72605519982261
 30
0.0
  0
VERTEX
  5
781
  8
0
  6
CONTINUOUS
 10
139.9192533682852
 20
52.72388078600616
 30
0.0
  0
VERTEX
  5
782
  8
0
  6
CONTINUOUS
 10
139.9222121242283
 20
52.72171413795333
 30
0.0
  0
VERTEX
  5
783
  8
0
  6
CONTINUOUS
 10
139.9251708801714
 20
52.71934558004612
 30
0.0
  0
VERTEX
  5
784
  8
0
  6
CONTINUOUS
 10
139.9281374018781
 20
52.71717116622967
 30
0.0
  0
VERTEX
  5
785
  8
0
  6
CONTINUOUS
 10
139.9307001038761
 20
52.71578886030349
 30
0.0
  0
VERTEX
  5
786
  8
0
  6
CONTINUOUS
 10
139.9328667519289
 20
52.7151986622676
 30
0.0
  0
VERTEX
  5
787
  8
0
  6
CONTINUOUS
 10
139.9372078137982
 20
52.72012992217277
 30
0.0
  0
VERTEX
  5
788
  8
0
  6
CONTINUOUS
 10
139.9419449296126
 20
52.72506894784158
 30
0.0
  0
VERTEX
  5
789
  8
0
  6
CONTINUOUS
 10
139.9472722434629
 20
52.7301943518375
 30
0.0
  0
VERTEX
  5
78A
  8
0
  6
CONTINUOUS
 10
139.9529956112584
 20
52.73513337750632
 30
0.0
  0
VERTEX
  5
78B
  8
0
  6
CONTINUOUS
 10
139.959115032999
 20
52.74025878150224
 30
0.0
  0
VERTEX
  5
78C
  8
0
  6
CONTINUOUS
 10
139.9656227429211
 20
52.7453919512618
 30
0.0
  0
VERTEX
  5
78D
  8
0
  6
CONTINUOUS
 10
139.9723323626976
 20
52.75032321116698
 30
0.0
  0
VERTEX
  5
78E
  8
0
  6
CONTINUOUS
 10
139.9792438923284
 20
52.75525447107215
 30
0.0
  0
VERTEX
  5
78F
  8
0
  6
CONTINUOUS
 10
139.9861476561957
 20
52.75999158688657
 30
0.0
  0
VERTEX
  5
790
  8
0
  6
CONTINUOUS
 10
139.9932533299173
 20
52.76453455861024
 30
0.0
  0
VERTEX
  5
791
  8
0
  6
CONTINUOUS
 10
140.0003590036389
 20
52.76887562047951
 30
0.0
  0
VERTEX
  5
792
  8
0
  6
CONTINUOUS
 10
140.0072627675062
 20
52.77282062840366
 30
0.0
  0
VERTEX
  5
793
  8
0
  6
CONTINUOUS
 10
140.0141665313734
 20
52.77657149223704
 30
0.0
  0
VERTEX
  5
794
  8
0
  6
CONTINUOUS
 10
140.0208761511499
 20
52.77992630212528
 30
0.0
  0
VERTEX
  5
795
  8
0
  6
CONTINUOUS
 10
140.0273916268357
 20
52.78307920215914
 30
0.0
  0
VERTEX
  5
796
  8
0
  6
CONTINUOUS
 10
140.0335110485762
 20
52.78564966992074
 30
0.0
  0
VERTEX
  5
797
  8
0
  6
CONTINUOUS
 10
140.0376502005911
 20
52.78742026402843
 30
0.0
  0
VERTEX
  5
798
  8
0
  6
CONTINUOUS
 10
140.0419912624604
 20
52.79018487588078
 30
0.0
  0
VERTEX
  5
799
  8
0
  6
CONTINUOUS
 10
140.0463323243297
 20
52.79393573971416
 30
0.0
  0
VERTEX
  5
79A
  8
0
  6
CONTINUOUS
 10
140.0510694401441
 20
52.7984709456742
 30
0.0
  0
VERTEX
  5
79B
  8
0
  6
CONTINUOUS
 10
140.0558065559585
 20
52.80379825952451
 30
0.0
  0
VERTEX
  5
79C
  8
0
  6
CONTINUOUS
 10
140.060543671773
 20
52.80952162731997
 30
0.0
  0
VERTEX
  5
79D
  8
0
  6
CONTINUOUS
 10
140.0652807875874
 20
52.81564104906056
 30
0.0
  0
VERTEX
  5
79E
  8
0
  6
CONTINUOUS
 10
140.0700101376382
 20
52.82214875898266
 30
0.0
  0
VERTEX
  5
79F
  8
0
  6
CONTINUOUS
 10
140.0747472534526
 20
52.82885837875915
 30
0.0
  0
VERTEX
  5
7A0
  8
0
  6
CONTINUOUS
 10
140.0792902251762
 20
52.83556799853564
 30
0.0
  0
VERTEX
  5
7A1
  8
0
  6
CONTINUOUS
 10
140.0836312870455
 20
52.84208347422138
 30
0.0
  0
VERTEX
  5
7A2
  8
0
  6
CONTINUOUS
 10
140.0879723489148
 20
52.84839704005272
 30
0.0
  0
VERTEX
  5
7A3
  8
0
  6
CONTINUOUS
 10
140.091917356839
 20
52.85431455193893
 30
0.0
  0
VERTEX
  5
7A4
  8
0
  6
CONTINUOUS
 10
140.0956682206723
 20
52.85964186578925
 30
0.0
  0
VERTEX
  5
7A5
  8
0
  6
CONTINUOUS
 10
140.0992171746513
 20
52.86458089145805
 30
0.0
  0
VERTEX
  5
7A6
  8
0
  6
CONTINUOUS
 10
140.1023778404488
 20
52.8685258993822
 30
0.0
  0
VERTEX
  5
7A7
  8
0
  6
CONTINUOUS
 10
140.0980367785795
 20
52.88174322908079
 30
0.0
  0
VERTEX
  5
7A8
  8
0
  6
CONTINUOUS
 10
140.093889860801
 20
52.89378016270759
 30
0.0
  0
VERTEX
  5
7A9
  8
0
  6
CONTINUOUS
 10
140.0899448528769
 20
52.90463670026261
 30
0.0
  0
VERTEX
  5
7AA
  8
0
  6
CONTINUOUS
 10
140.0863881331342
 20
52.91430507598221
 30
0.0
  0
VERTEX
  5
7AB
  8
0
  6
CONTINUOUS
 10
140.0828391791553
 20
52.92298719972077
 30
0.0
  0
VERTEX
  5
7AC
  8
0
  6
CONTINUOUS
 10
140.079484369267
 20
52.93087721556904
 30
0.0
  0
VERTEX
  5
7AD
  8
0
  6
CONTINUOUS
 10
140.0763237034695
 20
52.93798288929067
 30
0.0
  0
VERTEX
  5
7AE
  8
0
  6
CONTINUOUS
 10
140.0735668573808
 20
52.94449836497641
 30
0.0
  0
VERTEX
  5
7AF
  8
0
  6
CONTINUOUS
 10
140.0706081014377
 20
52.95021396700823
 30
0.0
  0
VERTEX
  5
7B0
  8
0
  6
CONTINUOUS
 10
140.0680376336761
 20
52.95574319071293
 30
0.0
  0
VERTEX
  5
7B1
  8
0
  6
CONTINUOUS
 10
140.0656690757689
 20
52.96067445061811
 30
0.0
  0
VERTEX
  5
7B2
  8
0
  6
CONTINUOUS
 10
140.0633005178617
 20
52.96541156643253
 30
0.0
  0
VERTEX
  5
7B3
  8
0
  6
CONTINUOUS
 10
140.0611338698089
 20
52.97014868224694
 30
0.0
  0
VERTEX
  5
7B4
  8
0
  6
CONTINUOUS
 10
140.0589594559924
 20
52.97468388820698
 30
0.0
  0
VERTEX
  5
7B5
  8
0
  6
CONTINUOUS
 10
140.0569869520303
 20
52.9794210040214
 30
0.0
  0
VERTEX
  5
7B6
  8
0
  6
CONTINUOUS
 10
140.0552163579226
 20
52.98415811983582
 30
0.0
  0
VERTEX
  5
7B7
  8
0
  6
CONTINUOUS
 10
140.050673386199
 20
52.99501465739083
 30
0.0
  0
VERTEX
  5
7B8
  8
0
  6
CONTINUOUS
 10
140.045547982203
 20
53.0036967811294
 30
0.0
  0
VERTEX
  5
7B9
  8
0
  6
CONTINUOUS
 10
140.0398246144076
 20
53.0107946890874
 30
0.0
  0
VERTEX
  5
7BA
  8
0
  6
CONTINUOUS
 10
140.033705192667
 20
53.01651805688285
 30
0.0
  0
VERTEX
  5
7BB
  8
0
  6
CONTINUOUS
 10
140.0271897169813
 20
53.02165122664241
 30
0.0
  0
VERTEX
  5
7BC
  8
0
  6
CONTINUOUS
 10
140.020285953114
 20
53.02618643260244
 30
0.0
  0
VERTEX
  5
7BD
  8
0
  6
CONTINUOUS
 10
140.0127842254472
 20
53.03072940432611
 30
0.0
  0
VERTEX
  5
7BE
  8
0
  6
CONTINUOUS
 10
140.004894209599
 20
53.03566066423129
 30
0.0
  0
VERTEX
  5
7BF
  8
0
  6
CONTINUOUS
 10
139.9966081398055
 20
53.04138403202674
 30
0.0
  0
VERTEX
  5
7C0
  8
0
  6
CONTINUOUS
 10
139.9877241062126
 20
53.04828779589398
 30
0.0
  0
VERTEX
  5
7C1
  8
0
  6
CONTINUOUS
 10
139.9786536942925
 20
53.05677577554179
 30
0.0
  0
VERTEX
  5
7C2
  8
0
  6
CONTINUOUS
 10
139.9691794626637
 20
53.06743040324242
 30
0.0
  0
VERTEX
  5
7C3
  8
0
  6
CONTINUOUS
 10
139.9593091770897
 20
53.0802594447595
 30
0.0
  0
VERTEX
  5
7C4
  8
0
  6
CONTINUOUS
 10
139.9490506033342
 20
53.09603947645606
 30
0.0
  0
VERTEX
  5
7C5
  8
0
  6
CONTINUOUS
 10
139.9383959756336
 20
53.11498793971374
 30
0.0
  0
VERTEX
  5
7C6
  8
0
  6
CONTINUOUS
 10
139.9275394380786
 20
53.13767950104118
 30
0.0
  0
VERTEX
  5
7C7
  8
0
  6
CONTINUOUS
 10
139.9245806821355
 20
53.14971643466798
 30
0.0
  0
VERTEX
  5
7C8
  8
0
  6
CONTINUOUS
 10
139.9214277821016
 20
53.16076711631375
 30
0.0
  0
VERTEX
  5
7C9
  8
0
  6
CONTINUOUS
 10
139.9176769182682
 20
53.1706296361241
 30
0.0
  0
VERTEX
  5
7CA
  8
0
  6
CONTINUOUS
 10
139.9135300004897
 20
53.17970781380779
 30
0.0
  0
VERTEX
  5
7CB
  8
0
  6
CONTINUOUS
 10
139.9089947945297
 20
53.18779973951046
 30
0.0
  0
VERTEX
  5
7CC
  8
0
  6
CONTINUOUS
 10
139.9040635346245
 20
53.19490541323209
 30
0.0
  0
VERTEX
  5
7CD
  8
0
  6
CONTINUOUS
 10
139.8987284550105
 20
53.2014131231542
 30
0.0
  0
VERTEX
  5
7CE
  8
0
  6
CONTINUOUS
 10
139.8930128529787
 20
53.20733840080403
 30
0.0
  0
VERTEX
  5
7CF
  8
0
  6
CONTINUOUS
 10
139.8868934312381
 20
53.21246380479997
 30
0.0
  0
VERTEX
  5
7D0
  8
0
  6
CONTINUOUS
 10
139.8805798654068
 20
53.21700677652363
 30
0.0
  0
VERTEX
  5
7D1
  8
0
  6
CONTINUOUS
 10
139.8736683357759
 20
53.22095178444777
 30
0.0
  0
VERTEX
  5
7D2
  8
0
  6
CONTINUOUS
 10
139.8665704278179
 20
53.22450073842677
 30
0.0
  0
VERTEX
  5
7D3
  8
0
  6
CONTINUOUS
 10
139.8588745560604
 20
53.22785554831501
 30
0.0
  0
VERTEX
  5
7D4
  8
0
  6
CONTINUOUS
 10
139.8509767744485
 20
53.23062016016737
 30
0.0
  0
VERTEX
  5
7D5
  8
0
  6
CONTINUOUS
 10
139.842690704655
 20
53.23338477201972
 30
0.0
  0
VERTEX
  5
7D6
  8
0
  6
CONTINUOUS
 10
139.8342027250073
 20
53.23575332992692
 30
0.0
  0
VERTEX
  5
7D7
  8
0
  6
CONTINUOUS
 10
139.8251323130872
 20
53.23812188783413
 30
0.0
  0
VERTEX
  5
7D8
  8
0
  6
CONTINUOUS
 10
139.8158522255491
 20
53.24049044574134
 30
0.0
  0
VERTEX
  5
7D9
  8
0
  6
CONTINUOUS
 10
139.8061838498295
 20
53.24265709379417
 30
0.0
  0
VERTEX
  5
7DA
  8
0
  6
CONTINUOUS
 10
139.7963213300191
 20
53.24502565170138
 30
0.0
  0
VERTEX
  5
7DB
  8
0
  6
CONTINUOUS
 10
139.7860549905
 20
53.24758835369934
 30
0.0
  0
VERTEX
  5
7DC
  8
0
  6
CONTINUOUS
 10
139.7754003627994
 20
53.25015882146094
 30
0.0
  0
VERTEX
  5
7DD
  8
0
  6
CONTINUOUS
 10
139.7643496811536
 20
53.25311757740405
 30
0.0
  0
VERTEX
  5
7DE
  8
0
  6
CONTINUOUS
 10
139.7531048554171
 20
53.25647238729229
 30
0.0
  0
VERTEX
  5
7DF
  8
0
  6
CONTINUOUS
 10
139.7416581198262
 20
53.26002134127129
 30
0.0
  0
VERTEX
  5
7E0
  8
0
  6
CONTINUOUS
 10
139.7298230960538
 20
53.26416825904982
 30
0.0
  0
VERTEX
  5
7E1
  8
0
  6
CONTINUOUS
 10
139.7175842525726
 20
53.26890537486423
 30
0.0
  0
VERTEX
  5
7E2
  8
0
  6
CONTINUOUS
 10
139.7051512650006
 20
53.27423268871455
 30
0.0
  0
VERTEX
  5
7E3
  8
0
  6
CONTINUOUS
 10
139.6925241333379
 20
53.27995605651
 30
0.0
  0
VERTEX
  5
7E4
  8
0
  6
CONTINUOUS
 10
139.6795009477301
 20
53.2866656762865
 30
0.0
  0
VERTEX
  5
7E5
  8
0
  6
CONTINUOUS
 10
139.6662758522679
 20
53.29396549409888
 30
0.0
  0
VERTEX
  5
7E6
  8
0
  6
CONTINUOUS
 10
139.6526624686242
 20
53.3022515638923
 30
0.0
  0
VERTEX
  5
7E7
  8
0
  6
CONTINUOUS
 10
139.6418136968328
 20
53.34783659640155
 30
0.0
  0
VERTEX
  5
7E8
  8
0
  6
CONTINUOUS
 10
139.6463489027928
 20
53.35572661224983
 30
0.0
  0
VERTEX
  5
7E9
  8
0
  6
CONTINUOUS
 10
139.6510860186072
 20
53.36520084387867
 30
0.0
  0
VERTEX
  5
7EA
  8
0
  6
CONTINUOUS
 10
139.6554270804765
 20
53.37644566961519
 30
0.0
  0
VERTEX
  5
7EB
  8
0
  6
CONTINUOUS
 10
139.6593720884006
 20
53.38887865718714
 30
0.0
  0
VERTEX
  5
7EC
  8
0
  6
CONTINUOUS
 10
139.6629288081433
 20
53.40269395068526
 30
0.0
  0
VERTEX
  5
7ED
  8
0
  6
CONTINUOUS
 10
139.665685654232
 20
53.41768964025517
 30
0.0
  0
VERTEX
  5
7EE
  8
0
  6
CONTINUOUS
 10
139.6674640141033
 20
53.43327552786097
 30
0.0
  0
VERTEX
  5
7EF
  8
0
  6
CONTINUOUS
 10
139.6680542121392
 20
53.44985543321144
 30
0.0
  0
VERTEX
  5
7F0
  8
0
  6
CONTINUOUS
 10
139.6757500838967
 20
53.45380044113558
 30
0.0
  0
VERTEX
  5
7F1
  8
0
  6
CONTINUOUS
 10
139.6822655595824
 20
53.45833564709562
 30
0.0
  0
VERTEX
  5
7F2
  8
0
  6
CONTINUOUS
 10
139.6871968194876
 20
53.46346881685518
 30
0.0
  0
VERTEX
  5
7F3
  8
0
  6
CONTINUOUS
 10
139.6911418274118
 20
53.46938632874139
 30
0.0
  0
VERTEX
  5
7F4
  8
0
  6
CONTINUOUS
 10
139.6939064392641
 20
53.47550575048198
 30
0.0
  0
VERTEX
  5
7F5
  8
0
  6
CONTINUOUS
 10
139.6956847991354
 20
53.48181931631333
 30
0.0
  0
VERTEX
  5
7F6
  8
0
  6
CONTINUOUS
 10
139.6964691412621
 20
53.48852893608982
 30
0.0
  0
VERTEX
  5
7F7
  8
0
  6
CONTINUOUS
 10
139.6964691412621
 20
53.49543269995706
 30
0.0
  0
VERTEX
  5
7F8
  8
0
  6
CONTINUOUS
 10
139.6956847991354
 20
53.50214231973355
 30
0.0
  0
VERTEX
  5
7F9
  8
0
  6
CONTINUOUS
 10
139.6944966373
 20
53.50865779541929
 30
0.0
  0
VERTEX
  5
7FA
  8
0
  6
CONTINUOUS
 10
139.6927182774287
 20
53.51516550534139
 30
0.0
  0
VERTEX
  5
7FB
  8
0
  6
CONTINUOUS
 10
139.6905516293759
 20
53.52128492708199
 30
0.0
  0
VERTEX
  5
7FC
  8
0
  6
CONTINUOUS
 10
139.6879889273779
 20
53.52680638502306
 30
0.0
  0
VERTEX
  5
7FD
  8
0
  6
CONTINUOUS
 10
139.6852243155256
 20
53.53193955478262
 30
0.0
  0
VERTEX
  5
7FE
  8
0
  6
CONTINUOUS
 10
139.6824597036732
 20
53.53648252650628
 30
0.0
  0
VERTEX
  5
7FF
  8
0
  6
CONTINUOUS
 10
139.6796950918209
 20
53.54022562457604
 30
0.0
  0
VERTEX
  5
800
  8
0
  6
CONTINUOUS
 10
139.6729854720444
 20
53.54358043446428
 30
0.0
  0
VERTEX
  5
801
  8
0
  6
CONTINUOUS
 10
139.6662758522679
 20
53.54653919040739
 30
0.0
  0
VERTEX
  5
802
  8
0
  6
CONTINUOUS
 10
139.6599622864365
 20
53.54910965816898
 30
0.0
  0
VERTEX
  5
803
  8
0
  6
CONTINUOUS
 10
139.6536487206052
 20
53.55108216213105
 30
0.0
  0
VERTEX
  5
804
  8
0
  6
CONTINUOUS
 10
139.647731208719
 20
53.55286052200237
 30
0.0
  0
VERTEX
  5
805
  8
0
  6
CONTINUOUS
 10
139.6418136968328
 20
53.5544369720193
 30
0.0
  0
VERTEX
  5
806
  8
0
  6
CONTINUOUS
 10
139.6358884191829
 20
53.55561736809108
 30
0.0
  0
VERTEX
  5
807
  8
0
  6
CONTINUOUS
 10
139.6303669612419
 20
53.55660362007212
 30
0.0
  0
VERTEX
  5
808
  8
0
  6
CONTINUOUS
 10
139.6246435934464
 20
53.5573957279624
 30
0.0
  0
VERTEX
  5
809
  8
0
  6
CONTINUOUS
 10
139.6193162795961
 20
53.5579859259983
 30
0.0
  0
VERTEX
  5
80A
  8
0
  6
CONTINUOUS
 10
139.6137870558914
 20
53.55838197994343
 30
0.0
  0
VERTEX
  5
80B
  8
0
  6
CONTINUOUS
 10
139.6082655979503
 20
53.55877803388858
 30
0.0
  0
VERTEX
  5
80C
  8
0
  6
CONTINUOUS
 10
139.6029382841
 20
53.55917408783372
 30
0.0
  0
VERTEX
  5
80D
  8
0
  6
CONTINUOUS
 10
139.5974168261589
 20
53.55957014177886
 30
0.0
  0
VERTEX
  5
80E
  8
0
  6
CONTINUOUS
 10
139.5920895123086
 20
53.55995842996037
 30
0.0
  0
VERTEX
  5
80F
  8
0
  6
CONTINUOUS
 10
139.5865680543675
 20
53.56035448390551
 30
0.0
  0
VERTEX
  5
810
  8
0
  6
CONTINUOUS
 10
139.5794623806459
 20
53.56035448390551
 30
0.0
  0
VERTEX
  5
811
  8
0
  6
CONTINUOUS
 10
139.5721625628335
 20
53.56035448390551
 30
0.0
  0
VERTEX
  5
812
  8
0
  6
CONTINUOUS
 10
139.5646608351668
 20
53.56055639375989
 30
0.0
  0
VERTEX
  5
813
  8
0
  6
CONTINUOUS
 10
139.5569649634092
 20
53.56055639375989
 30
0.0
  0
VERTEX
  5
814
  8
0
  6
CONTINUOUS
 10
139.5492690916517
 20
53.56035448390551
 30
0.0
  0
VERTEX
  5
815
  8
0
  6
CONTINUOUS
 10
139.5413790758034
 20
53.56016033981475
 30
0.0
  0
VERTEX
  5
816
  8
0
  6
CONTINUOUS
 10
139.5334890599551
 20
53.55976428586961
 30
0.0
  0
VERTEX
  5
817
  8
0
  6
CONTINUOUS
 10
139.5255912783433
 20
53.55917408783372
 30
0.0
  0
VERTEX
  5
818
  8
0
  6
CONTINUOUS
 10
139.5178954065857
 20
53.55838197994343
 30
0.0
  0
VERTEX
  5
819
  8
0
  6
CONTINUOUS
 10
139.5101995348282
 20
53.5573957279624
 30
0.0
  0
VERTEX
  5
81A
  8
0
  6
CONTINUOUS
 10
139.5025036630707
 20
53.55601342203623
 30
0.0
  0
VERTEX
  5
81B
  8
0
  6
CONTINUOUS
 10
139.4952038452583
 20
53.5544369720193
 30
0.0
  0
VERTEX
  5
81C
  8
0
  6
CONTINUOUS
 10
139.4880981715366
 20
53.55226255820284
 30
0.0
  0
VERTEX
  5
81D
  8
0
  6
CONTINUOUS
 10
139.4811944076694
 20
53.54989400029563
 30
0.0
  0
VERTEX
  5
81E
  8
0
  6
CONTINUOUS
 10
139.4746789319837
 20
53.54693524435253
 30
0.0
  0
VERTEX
  5
81F
  8
0
  6
CONTINUOUS
 10
139.4685672760067
 20
53.54358043446428
 30
0.0
  0
VERTEX
  5
820
  8
0
  6
CONTINUOUS
 10
139.4638301601923
 20
53.53707272454218
 30
0.0
  0
VERTEX
  5
821
  8
0
  6
CONTINUOUS
 10
139.4612674581943
 20
53.53095330280158
 30
0.0
  0
VERTEX
  5
822
  8
0
  6
CONTINUOUS
 10
139.4602734404497
 20
53.52503579091537
 30
0.0
  0
VERTEX
  5
823
  8
0
  6
CONTINUOUS
 10
139.4604753503041
 20
53.51931242311992
 30
0.0
  0
VERTEX
  5
824
  8
0
  6
CONTINUOUS
 10
139.4612674581943
 20
53.51339491123371
 30
0.0
  0
VERTEX
  5
825
  8
0
  6
CONTINUOUS
 10
139.4624478542661
 20
53.50727548949311
 30
0.0
  0
VERTEX
  5
826
  8
0
  6
CONTINUOUS
 10
139.4636282503379
 20
53.50056586971662
 30
0.0
  0
VERTEX
  5
827
  8
0
  6
CONTINUOUS
 10
139.464024304283
 20
53.493460195995
 30
0.0
  0
VERTEX
  5
828
  8
0
  6
CONTINUOUS
 10
139.4618576562302
 20
53.4922797999232
 30
0.0
  0
VERTEX
  5
829
  8
0
  6
CONTINUOUS
 10
139.459489098323
 20
53.49129354794217
 30
0.0
  0
VERTEX
  5
82A
  8
0
  6
CONTINUOUS
 10
139.4569186305614
 20
53.49030729596114
 30
0.0
  0
VERTEX
  5
82B
  8
0
  6
CONTINUOUS
 10
139.4543559285634
 20
53.4893210439801
 30
0.0
  0
VERTEX
  5
82C
  8
0
  6
CONTINUOUS
 10
139.4515913167111
 20
53.48833479199907
 30
0.0
  0
VERTEX
  5
82D
  8
0
  6
CONTINUOUS
 10
139.448632560768
 20
53.4873407742544
 30
0.0
  0
VERTEX
  5
82E
  8
0
  6
CONTINUOUS
 10
139.4458757146793
 20
53.48616037818261
 30
0.0
  0
VERTEX
  5
82F
  8
0
  6
CONTINUOUS
 10
139.4433052469177
 20
53.48497998211082
 30
0.0
  0
VERTEX
  5
830
  8
0
  6
CONTINUOUS
 10
139.4407425449197
 20
53.4837918202754
 30
0.0
  0
VERTEX
  5
831
  8
0
  6
CONTINUOUS
 10
139.4383739870125
 20
53.48240951434923
 30
0.0
  0
VERTEX
  5
832
  8
0
  6
CONTINUOUS
 10
139.4364014830504
 20
53.48063892024154
 30
0.0
  0
VERTEX
  5
833
  8
0
  6
CONTINUOUS
 10
139.4348250330335
 20
53.47886056037022
 30
0.0
  0
VERTEX
  5
834
  8
0
  6
CONTINUOUS
 10
139.4334427271073
 20
53.47688805640816
 30
0.0
  0
VERTEX
  5
835
  8
0
  6
CONTINUOUS
 10
139.432650619217
 20
53.4747136425917
 30
0.0
  0
VERTEX
  5
836
  8
0
  6
CONTINUOUS
 10
139.4322545652719
 20
53.47215094059374
 30
0.0
  0
VERTEX
  5
837
  8
0
  6
CONTINUOUS
 10
139.4324564751263
 20
53.46919218465063
 30
0.0
  0
VERTEX
  5
838
  8
0
  6
CONTINUOUS
 10
139.4654066102092
 20
53.46267670896489
 30
0.0
  0
VERTEX
  5
839
  8
0
  6
CONTINUOUS
 10
139.4689555641882
 20
53.45793959315048
 30
0.0
  0
VERTEX
  5
83A
  8
0
  6
CONTINUOUS
 10
139.4703378701144
 20
53.45380044113558
 30
0.0
  0
VERTEX
  5
83B
  8
0
  6
CONTINUOUS
 10
139.4701437260237
 20
53.44985543321144
 30
0.0
  0
VERTEX
  5
83C
  8
0
  6
CONTINUOUS
 10
139.4695535279878
 20
53.44590265952367
 30
0.0
  0
VERTEX
  5
83D
  8
0
  6
CONTINUOUS
 10
139.4691574740426
 20
53.44156159765439
 30
0.0
  0
VERTEX
  5
83E
  8
0
  6
CONTINUOUS
 10
139.4699495819329
 20
53.4368322476036
 30
0.0
  0
VERTEX
  5
83F
  8
0
  6
CONTINUOUS
 10
139.4727064280216
 20
53.4313030238989
 30
0.0
  0
VERTEX
  5
840
  8
0
  6
CONTINUOUS
 10
139.4782356517263
 20
53.42459340412241
 30
0.0
  0
VERTEX
  5
841
  8
0
  6
CONTINUOUS
 10
139.4756651839647
 20
53.41295252444075
 30
0.0
  0
VERTEX
  5
842
  8
0
  6
CONTINUOUS
 10
139.4752768957832
 20
53.40269395068526
 30
0.0
  0
VERTEX
  5
843
  8
0
  6
CONTINUOUS
 10
139.4766514359457
 20
53.39321971905642
 30
0.0
  0
VERTEX
  5
844
  8
0
  6
CONTINUOUS
 10
139.4792219037074
 20
53.384933649263
 30
0.0
  0
VERTEX
  5
845
  8
0
  6
CONTINUOUS
 10
139.4829727675407
 20
53.37723777750548
 30
0.0
  0
VERTEX
  5
846
  8
0
  6
CONTINUOUS
 10
139.4871119195556
 20
53.3703262478746
 30
0.0
  0
VERTEX
  5
847
  8
0
  6
CONTINUOUS
 10
139.4914529814249
 20
53.3638185379525
 30
0.0
  0
VERTEX
  5
848
  8
0
  6
CONTINUOUS
 10
139.4955998992034
 20
53.35790102606629
 30
0.0
  0
VERTEX
  5
849
  8
0
  6
CONTINUOUS
 10
139.504282022942
 20
53.32316476534842
 30
0.0
  0
VERTEX
  5
84A
  8
0
  6
CONTINUOUS
 10
139.504282022942
 20
53.32316476534842
 30
0.0
  0
SEQEND
  5
84D
  8
0
  6
CONTINUOUS
  0
ENDSEC
  0
EOF
