  0
SECTION
  2
HEADER
  9
$ACADVER
  1
AC1009
  9
$DWGCODEPAGE
  3
ansi_1252
  9
$INSBASE
 10
140.8650378787778
 20
49.72801900692319
 30
0.0
  9
$EXTMIN
 10
140.5204100271627
 20
49.66892997110505
 30
0.0
  9
$EXTMAX
 10
141.6004175051177
 20
51.51780215289631
 30
0.0
  9
$LIMMIN
 10
0.0
 20
0.0
  9
$LIMMAX
 10
420.0
 20
297.0
  9
$ORTHOMODE
 70
     0
  9
$REGENMODE
 70
     1
  9
$FILLMODE
 70
     1
  9
$QTEXTMODE
 70
     0
  9
$MIRRTEXT
 70
     1
  9
$DRAGMODE
 70
     2
  9
$LTSCALE
 40
1.0
  9
$OSMODE
 70
    37
  9
$ATTMODE
 70
     1
  9
$TEXTSIZE
 40
2.5
  9
$TRACEWID
 40
1.0
  9
$TEXTSTYLE
  7
STANDARD
  9
$CLAYER
  8
0
  9
$CELTYPE
  6
BYLAYER
  9
$CECOLOR
 62
   256
  9
$DIMSCALE
 40
1.0
  9
$DIMASZ
 40
2.5
  9
$DIMEXO
 40
0.625
  9
$DIMDLI
 40
3.75
  9
$DIMRND
 40
0.0
  9
$DIMDLE
 40
0.0
  9
$DIMEXE
 40
1.25
  9
$DIMTP
 40
0.0
  9
$DIMTM
 40
0.0
  9
$DIMTXT
 40
2.5
  9
$DIMCEN
 40
2.5
  9
$DIMTSZ
 40
0.0
  9
$DIMTOL
 70
     0
  9
$DIMLIM
 70
     0
  9
$DIMTIH
 70
     0
  9
$DIMTOH
 70
     0
  9
$DIMSE1
 70
     0
  9
$DIMSE2
 70
     0
  9
$DIMTAD
 70
     1
  9
$DIMZIN
 70
     8
  9
$DIMBLK
  1

  9
$DIMASO
 70
     1
  9
$DIMSHO
 70
     1
  9
$DIMPOST
  1

  9
$DIMAPOST
  1

  9
$DIMALT
 70
     0
  9
$DIMALTD
 70
     4
  9
$DIMALTF
 40
0.0394
  9
$DIMLFAC
 40
1.0
  9
$DIMTOFL
 70
     1
  9
$DIMTVP
 40
0.0
  9
$DIMTIX
 70
     0
  9
$DIMSOXD
 70
     0
  9
$DIMSAH
 70
     0
  9
$DIMBLK1
  1

  9
$DIMBLK2
  1

  9
$DIMSTYLE
  2
STANDARD
  9
$DIMCLRD
 70
     0
  9
$DIMCLRE
 70
     0
  9
$DIMCLRT
 70
     0
  9
$DIMTFAC
 40
1.0
  9
$DIMGAP
 40
0.625
  9
$LUNITS
 70
     2
  9
$LUPREC
 70
     4
  9
$SKETCHINC
 40
1.0
  9
$FILLETRAD
 40
10.0
  9
$AUNITS
 70
     0
  9
$AUPREC
 70
     0
  9
$MENU
  1
.
  9
$ELEVATION
 40
0.0
  9
$PELEVATION
 40
0.0
  9
$THICKNESS
 40
0.0
  9
$LIMCHECK
 70
     0
  9
$CHAMFERA
 40
10.0
  9
$CHAMFERB
 40
10.0
  9
$SKPOLY
 70
     0
  9
$TDCREATE
 40
2451826.675523137
  9
$TDUPDATE
 40
2457483.532627315
  9
$TDINDWG
 40
0.0625447801
  9
$TDUSRTIMER
 40
0.0625447801
  9
$USRTIMER
 70
     1
  9
$ANGBASE
 50
0.0
  9
$ANGDIR
 70
     0
  9
$PDMODE
 70
     0
  9
$PDSIZE
 40
0.0
  9
$PLINEWID
 40
0.0
  9
$COORDS
 70
     1
  9
$SPLFRAME
 70
     0
  9
$SPLINETYPE
 70
     6
  9
$SPLINESEGS
 70
     8
  9
$ATTDIA
 70
     0
  9
$ATTREQ
 70
     1
  9
$HANDLING
 70
     1
  9
$HANDSEED
  5
845
  9
$SURFTAB1
 70
     6
  9
$SURFTAB2
 70
     6
  9
$SURFTYPE
 70
     6
  9
$SURFU
 70
     6
  9
$SURFV
 70
     6
  9
$UCSNAME
  2

  9
$UCSORG
 10
0.0
 20
0.0
 30
0.0
  9
$UCSXDIR
 10
1.0
 20
0.0
 30
0.0
  9
$UCSYDIR
 10
0.0
 20
1.0
 30
0.0
  9
$PUCSNAME
  2

  9
$PUCSORG
 10
0.0
 20
0.0
 30
0.0
  9
$PUCSXDIR
 10
1.0
 20
0.0
 30
0.0
  9
$PUCSYDIR
 10
0.0
 20
1.0
 30
0.0
  9
$USERI1
 70
     0
  9
$USERI2
 70
     0
  9
$USERI3
 70
     0
  9
$USERI4
 70
     0
  9
$USERI5
 70
     0
  9
$USERR1
 40
0.0
  9
$USERR2
 40
0.0
  9
$USERR3
 40
0.0
  9
$USERR4
 40
0.0
  9
$USERR5
 40
0.0
  9
$WORLDVIEW
 70
     1
  9
$SHADEDGE
 70
     3
  9
$SHADEDIF
 70
    70
  9
$TILEMODE
 70
     1
  9
$MAXACTVP
 70
    48
  9
$PLIMCHECK
 70
     0
  9
$PEXTMIN
 10
1.000000000000000E+20
 20
1.000000000000000E+20
 30
1.000000000000000E+20
  9
$PEXTMAX
 10
-1.000000000000000E+20
 20
-1.000000000000000E+20
 30
-1.000000000000000E+20
  9
$PLIMMIN
 10
0.0
 20
0.0
  9
$PLIMMAX
 10
420.0
 20
297.0
  9
$UNITMODE
 70
     0
  9
$VISRETAIN
 70
     1
  9
$PLINEGEN
 70
     0
  9
$PSLTSCALE
 70
     1
  0
ENDSEC
  0
SECTION
  2
TABLES
  0
TABLE
  2
VPORT
 70
     1
  0
VPORT
  2
*ACTIVE
 70
     0
 10
0.0
 20
0.0
 11
1.0
 21
1.0
 12
141.0585030948959
 22
50.79535882995258
 13
0.0
 23
0.0
 14
10.0
 24
10.0
 15
10.0
 25
10.0
 16
0.0
 26
0.0
 36
1.0
 17
0.0
 27
0.0
 37
0.0
 40
2.291486730474166
 41
1.503537735849057
 42
50.0
 43
0.0
 44
0.0
 50
0.0
 51
0.0
 71
     0
 72
   100
 73
     1
 74
     1
 75
     0
 76
     0
 77
     0
 78
     0
  0
ENDTAB
  0
TABLE
  2
LTYPE
 70
     1
  0
LTYPE
  2
CONTINUOUS
 70
     0
  3
Solid line
 72
    65
 73
     0
 40
0.0
  0
ENDTAB
  0
TABLE
  2
LAYER
 70
     1
  0
LAYER
  2
0
 70
     0
 62
     7
  6
CONTINUOUS
  0
ENDTAB
  0
TABLE
  2
STYLE
 70
     1
  0
STYLE
  2
STANDARD
 70
     0
 40
0.0
 41
1.0
 50
0.0
 71
     0
 42
2.5
  3
txt
  4

  0
ENDTAB
  0
TABLE
  2
VIEW
 70
     0
  0
ENDTAB
  0
TABLE
  2
UCS
 70
     0
  0
ENDTAB
  0
TABLE
  2
APPID
 70
     2
  0
APPID
  2
ACAD
 70
     0
  0
APPID
  2
DCO15
 70
     0
  0
ENDTAB
  0
TABLE
  2
DIMSTYLE
 70
     1
  0
DIMSTYLE
  2
STANDARD
 70
     0
  3

  4

  5

  6

  7

 40
1.0
 41
0.18
 42
0.0625
 43
0.38
 44
0.18
 45
0.0
 46
0.0
 47
0.0
 48
0.0
140
0.18
141
0.09
142
0.0
143
25.4
144
1.0
145
0.0
146
1.0
147
0.09
 71
     0
 72
     0
 73
     1
 74
     1
 75
     0
 76
     0
 77
     0
 78
     0
170
     0
171
     2
172
     0
173
     0
174
     0
175
     0
176
     0
177
     0
178
     0
  0
ENDTAB
  0
ENDSEC
  0
SECTION
  2
BLOCKS
  0
BLOCK
  8
0
  2
$MODEL_SPACE
 70
     0
 10
0.0
 20
0.0
 30
0.0
  3
$MODEL_SPACE
  1

  0
ENDBLK
  5
3E5
  8
0
  0
BLOCK
 67
     1
  8
0
  2
$PAPER_SPACE
 70
     0
 10
0.0
 20
0.0
 30
0.0
  3
$PAPER_SPACE
  1

  0
ENDBLK
  5
3E3
 67
     1
  8
0
  0
ENDSEC
  0
SECTION
  2
ENTITIES
  0
POLYLINE
  5
1D
  8
0
  6
CONTINUOUS
 66
     1
 10
0.0
 20
0.0
 30
0.0
  0
VERTEX
  5
4A9
  8
0
  6
CONTINUOUS
 10
140.7123551350511
 20
50.6969574358483
 30
0.0
  0
VERTEX
  5
4AA
  8
0
  6
CONTINUOUS
 10
140.7129044996742
 20
50.69640807122529
 30
0.0
  0
VERTEX
  5
4AB
  8
0
  6
CONTINUOUS
 10
140.7029870225324
 20
50.68409796658064
 30
0.0
  0
VERTEX
  5
4AC
  8
0
  6
CONTINUOUS
 10
140.7083144136792
 20
50.67013976806695
 30
0.0
  0
VERTEX
  5
4AD
  8
0
  6
CONTINUOUS
 10
140.7123551350511
 20
50.65526355235426
 30
0.0
  0
VERTEX
  5
4AE
  8
0
  6
CONTINUOUS
 10
140.7154778392241
 20
50.6394693194426
 30
0.0
  0
VERTEX
  5
4AF
  8
0
  6
CONTINUOUS
 10
140.717682526198
 20
50.62311849342604
 30
0.0
  0
VERTEX
  5
4B0
  8
0
  6
CONTINUOUS
 10
140.71914990802
 20
50.60603759073942
 30
0.0
  0
VERTEX
  5
4B1
  8
0
  6
CONTINUOUS
 10
140.7198872131719
 20
50.58859526395871
 30
0.0
  0
VERTEX
  5
4B2
  8
0
  6
CONTINUOUS
 10
140.720248637266
 20
50.57077705612015
 30
0.0
  0
VERTEX
  5
4B3
  8
0
  6
CONTINUOUS
 10
140.720248637266
 20
50.55296607676348
 30
0.0
  0
VERTEX
  5
4B4
  8
0
  6
CONTINUOUS
 10
140.720067925219
 20
50.53477921634894
 30
0.0
  0
VERTEX
  5
4B5
  8
0
  6
CONTINUOUS
 10
140.7198872131719
 20
50.51678029646334
 30
0.0
  0
VERTEX
  5
4B6
  8
0
  6
CONTINUOUS
 10
140.719699272643
 20
50.49896208862478
 30
0.0
  0
VERTEX
  5
4B7
  8
0
  6
CONTINUOUS
 10
140.7198872131719
 20
50.48133182131514
 30
0.0
  0
VERTEX
  5
4B8
  8
0
  6
CONTINUOUS
 10
140.7204365777949
 20
50.46425091862853
 30
0.0
  0
VERTEX
  5
4B9
  8
0
  6
CONTINUOUS
 10
140.7213545949939
 20
50.44753144003599
 30
0.0
  0
VERTEX
  5
4BA
  8
0
  6
CONTINUOUS
 10
140.723002688863
 20
50.43155649507729
 30
0.0
  0
VERTEX
  5
4BB
  8
0
  6
CONTINUOUS
 10
140.7255760284129
 20
50.41631162678864
 30
0.0
  0
VERTEX
  5
4BC
  8
0
  6
CONTINUOUS
 10
140.7305347669838
 20
50.38986261158325
 30
0.0
  0
VERTEX
  5
4BD
  8
0
  6
CONTINUOUS
 10
140.7343947763086
 20
50.36285700327296
 30
0.0
  0
VERTEX
  5
4BE
  8
0
  6
CONTINUOUS
 10
140.7375174804816
 20
50.33567791139751
 30
0.0
  0
VERTEX
  5
4BF
  8
0
  6
CONTINUOUS
 10
140.7400908200315
 20
50.30794222641716
 30
0.0
  0
VERTEX
  5
4C0
  8
0
  6
CONTINUOUS
 10
140.7421075664765
 20
50.28001860090789
 30
0.0
  0
VERTEX
  5
4C1
  8
0
  6
CONTINUOUS
 10
140.7437628888274
 20
50.2521022038805
 30
0.0
  0
VERTEX
  5
4C2
  8
0
  6
CONTINUOUS
 10
140.7450495586024
 20
50.22381715427714
 30
0.0
  0
VERTEX
  5
4C3
  8
0
  6
CONTINUOUS
 10
140.7463362283773
 20
50.19553210467378
 30
0.0
  0
VERTEX
  5
4C4
  8
0
  6
CONTINUOUS
 10
140.7476156696704
 20
50.16742776711746
 30
0.0
  0
VERTEX
  5
4C5
  8
0
  6
CONTINUOUS
 10
140.7489023394454
 20
50.1391427175141
 30
0.0
  0
VERTEX
  5
4C6
  8
0
  6
CONTINUOUS
 10
140.7505576617963
 20
50.11103837995778
 30
0.0
  0
VERTEX
  5
4C7
  8
0
  6
CONTINUOUS
 10
140.7523936961942
 20
50.08312198293039
 30
0.0
  0
VERTEX
  5
4C8
  8
0
  6
CONTINUOUS
 10
140.7549670357442
 20
50.05556700999709
 30
0.0
  0
VERTEX
  5
4C9
  8
0
  6
CONTINUOUS
 10
140.7580897399171
 20
50.02819997759271
 30
0.0
  0
VERTEX
  5
4CA
  8
0
  6
CONTINUOUS
 10
140.762130461289
 20
50.00120159776431
 30
0.0
  0
VERTEX
  5
4CB
  8
0
  6
CONTINUOUS
 10
140.766901259331
 20
49.97475258255892
 30
0.0
  0
VERTEX
  5
4CC
  8
0
  6
CONTINUOUS
 10
140.7709492091847
 20
49.95546699289836
 30
0.0
  0
VERTEX
  5
4CD
  8
0
  6
CONTINUOUS
 10
140.7755392951797
 20
49.93526338603882
 30
0.0
  0
VERTEX
  5
4CE
  8
0
  6
CONTINUOUS
 10
140.7803100932216
 20
49.91450318607438
 30
0.0
  0
VERTEX
  5
4CF
  8
0
  6
CONTINUOUS
 10
140.7849074076985
 20
49.89356950254478
 30
0.0
  0
VERTEX
  5
4D0
  8
0
  6
CONTINUOUS
 10
140.7891288411174
 20
49.87225993795732
 30
0.0
  0
VERTEX
  5
4D1
  8
0
  6
CONTINUOUS
 10
140.7924322573374
 20
49.85113831389879
 30
0.0
  0
VERTEX
  5
4D2
  8
0
  6
CONTINUOUS
 10
140.7946369443113
 20
49.83019740188731
 30
0.0
  0
VERTEX
  5
4D3
  8
0
  6
CONTINUOUS
 10
140.7955549615103
 20
49.80962514245179
 30
0.0
  0
VERTEX
  5
4D4
  8
0
  6
CONTINUOUS
 10
140.7961115546152
 20
49.80650243827887
 30
0.0
  0
VERTEX
  5
4D5
  8
0
  6
CONTINUOUS
 10
140.7970295718142
 20
49.80411703925789
 30
0.0
  0
VERTEX
  5
4D6
  8
0
  6
CONTINUOUS
 10
140.7986776656832
 20
49.80210029281287
 30
0.0
  0
VERTEX
  5
4D7
  8
0
  6
CONTINUOUS
 10
140.8007016406101
 20
49.80062568250899
 30
0.0
  0
VERTEX
  5
4D8
  8
0
  6
CONTINUOUS
 10
140.8030870396311
 20
49.79970766531001
 30
0.0
  0
VERTEX
  5
4D9
  8
0
  6
CONTINUOUS
 10
140.805841091228
 20
49.79897758863995
 30
0.0
  0
VERTEX
  5
4DA
  8
0
  6
CONTINUOUS
 10
140.8087830833539
 20
49.79878964811103
 30
0.0
  0
VERTEX
  5
4DB
  8
0
  6
CONTINUOUS
 10
140.8120864995739
 20
49.79878964811103
 30
0.0
  0
VERTEX
  5
4DC
  8
0
  6
CONTINUOUS
 10
140.8155778563228
 20
49.79897758863995
 30
0.0
  0
VERTEX
  5
4DD
  8
0
  6
CONTINUOUS
 10
140.8190692130717
 20
49.79933901273404
 30
0.0
  0
VERTEX
  5
4DE
  8
0
  6
CONTINUOUS
 10
140.8227412818676
 20
49.79989560583893
 30
0.0
  0
VERTEX
  5
4DF
  8
0
  6
CONTINUOUS
 10
140.8264133506636
 20
49.80044497046195
 30
0.0
  0
VERTEX
  5
4E0
  8
0
  6
CONTINUOUS
 10
140.8300926479414
 20
49.80099433508497
 30
0.0
  0
VERTEX
  5
4E1
  8
0
  6
CONTINUOUS
 10
140.8335767762084
 20
49.80154369970798
 30
0.0
  0
VERTEX
  5
4E2
  8
0
  6
CONTINUOUS
 10
140.8370681329573
 20
49.80210029281287
 30
0.0
  0
VERTEX
  5
4E3
  8
0
  6
CONTINUOUS
 10
140.8401908371302
 20
49.80246171690696
 30
0.0
  0
VERTEX
  5
4E4
  8
0
  6
CONTINUOUS
 10
140.8374367855332
 20
49.79970766531001
 30
0.0
  0
VERTEX
  5
4E5
  8
0
  6
CONTINUOUS
 10
140.8346827339363
 20
49.79677290166601
 30
0.0
  0
VERTEX
  5
4E6
  8
0
  6
CONTINUOUS
 10
140.8321093943864
 20
49.79328154491711
 30
0.0
  0
VERTEX
  5
4E7
  8
0
  6
CONTINUOUS
 10
140.8299047074125
 20
49.78905288301628
 30
0.0
  0
VERTEX
  5
4E8
  8
0
  6
CONTINUOUS
 10
140.8282493850615
 20
49.78409414444539
 30
0.0
  0
VERTEX
  5
4E9
  8
0
  6
CONTINUOUS
 10
140.8273313678625
 20
49.77803667662847
 30
0.0
  0
VERTEX
  5
4EA
  8
0
  6
CONTINUOUS
 10
140.8269699437685
 20
49.77068531055471
 30
0.0
  0
VERTEX
  5
4EB
  8
0
  6
CONTINUOUS
 10
140.8277000204385
 20
49.76205450318788
 30
0.0
  0
VERTEX
  5
4EC
  8
0
  6
CONTINUOUS
 10
140.8286180376375
 20
49.75635845946504
 30
0.0
  0
VERTEX
  5
4ED
  8
0
  6
CONTINUOUS
 10
140.8308227246114
 20
49.75176837347012
 30
0.0
  0
VERTEX
  5
4EE
  8
0
  6
CONTINUOUS
 10
140.8335767762084
 20
49.74754694005117
 30
0.0
  0
VERTEX
  5
4EF
  8
0
  6
CONTINUOUS
 10
140.8368874209102
 20
49.74368693072631
 30
0.0
  0
VERTEX
  5
4F0
  8
0
  6
CONTINUOUS
 10
140.8401908371302
 20
49.73983414988332
 30
0.0
  0
VERTEX
  5
4F1
  8
0
  6
CONTINUOUS
 10
140.8431328292561
 20
49.73523683540652
 30
0.0
  0
VERTEX
  5
4F2
  8
0
  6
CONTINUOUS
 10
140.84533751623
 20
49.72990944425965
 30
0.0
  0
VERTEX
  5
4F3
  8
0
  6
CONTINUOUS
 10
140.8466169575231
 20
49.72348332386676
 30
0.0
  0
VERTEX
  5
4F4
  8
0
  6
CONTINUOUS
 10
140.8469856100991
 20
49.7192618904478
 30
0.0
  0
VERTEX
  5
4F5
  8
0
  6
CONTINUOUS
 10
140.848091567827
 20
49.714664575971
 30
0.0
  0
VERTEX
  5
4F6
  8
0
  6
CONTINUOUS
 10
140.849739661696
 20
49.70989377792903
 30
0.0
  0
VERTEX
  5
4F7
  8
0
  6
CONTINUOUS
 10
140.8517636366229
 20
49.70511575140519
 30
0.0
  0
VERTEX
  5
4F8
  8
0
  6
CONTINUOUS
 10
140.8543369761728
 20
49.70052566541026
 30
0.0
  0
VERTEX
  5
4F9
  8
0
  6
CONTINUOUS
 10
140.8572717398168
 20
49.69648494403835
 30
0.0
  0
VERTEX
  5
4FA
  8
0
  6
CONTINUOUS
 10
140.8603944439897
 20
49.69281287524242
 30
0.0
  0
VERTEX
  5
4FB
  8
0
  6
CONTINUOUS
 10
140.8637050886916
 20
49.68987088311653
 30
0.0
  0
VERTEX
  5
4FC
  8
0
  6
CONTINUOUS
 10
140.8714178788595
 20
49.68674817894361
 30
0.0
  0
VERTEX
  5
4FD
  8
0
  6
CONTINUOUS
 10
140.8791306690273
 20
49.68362547477069
 30
0.0
  0
VERTEX
  5
4FE
  8
0
  6
CONTINUOUS
 10
140.8870313997241
 20
49.68087142317373
 30
0.0
  0
VERTEX
  5
4FF
  8
0
  6
CONTINUOUS
 10
140.8947441898919
 20
49.67848602415275
 30
0.0
  0
VERTEX
  5
500
  8
0
  6
CONTINUOUS
 10
140.9022762680127
 20
49.67609339664988
 30
0.0
  0
VERTEX
  5
501
  8
0
  6
CONTINUOUS
 10
140.9098011176517
 20
49.67425736225191
 30
0.0
  0
VERTEX
  5
502
  8
0
  6
CONTINUOUS
 10
140.9171524837254
 20
49.67242132785395
 30
0.0
  0
VERTEX
  5
503
  8
0
  6
CONTINUOUS
 10
140.9243159092702
 20
49.67113465807899
 30
0.0
  0
VERTEX
  5
504
  8
0
  6
CONTINUOUS
 10
140.9312913942861
 20
49.67003592883296
 30
0.0
  0
VERTEX
  5
505
  8
0
  6
CONTINUOUS
 10
140.937905455208
 20
49.66929862368102
 30
0.0
  0
VERTEX
  5
506
  8
0
  6
CONTINUOUS
 10
140.9441508635538
 20
49.66892997110505
 30
0.0
  0
VERTEX
  5
507
  8
0
  6
CONTINUOUS
 10
140.9500276193237
 20
49.66911791163398
 30
0.0
  0
VERTEX
  5
508
  8
0
  6
CONTINUOUS
 10
140.9555429509995
 20
49.66948656420995
 30
0.0
  0
VERTEX
  5
509
  8
0
  6
CONTINUOUS
 10
140.9606824016174
 20
49.67021664088001
 30
0.0
  0
VERTEX
  5
50A
  8
0
  6
CONTINUOUS
 10
140.9654604281413
 20
49.67150331065496
 30
0.0
  0
VERTEX
  5
50B
  8
0
  6
CONTINUOUS
 10
140.9695011495132
 20
49.67315863300588
 30
0.0
  0
VERTEX
  5
50C
  8
0
  6
CONTINUOUS
 10
140.9731732183091
 20
49.67683070180183
 30
0.0
  0
VERTEX
  5
50D
  8
0
  6
CONTINUOUS
 10
140.9759272699061
 20
49.68160872832567
 30
0.0
  0
VERTEX
  5
50E
  8
0
  6
CONTINUOUS
 10
140.977951244833
 20
49.68711683151958
 30
0.0
  0
VERTEX
  5
50F
  8
0
  6
CONTINUOUS
 10
140.979049974079
 20
49.69281287524242
 30
0.0
  0
VERTEX
  5
510
  8
0
  6
CONTINUOUS
 10
140.979230686126
 20
49.69850169048337
 30
0.0
  0
VERTEX
  5
511
  8
0
  6
CONTINUOUS
 10
140.978312668927
 20
49.70401702215916
 30
0.0
  0
VERTEX
  5
512
  8
0
  6
CONTINUOUS
 10
140.9764766345291
 20
49.70897576073005
 30
0.0
  0
VERTEX
  5
513
  8
0
  6
CONTINUOUS
 10
140.9737225829321
 20
49.71282854157303
 30
0.0
  0
VERTEX
  5
514
  8
0
  6
CONTINUOUS
 10
140.9676651151152
 20
49.71760656809688
 30
0.0
  0
VERTEX
  5
515
  8
0
  6
CONTINUOUS
 10
140.9621497834394
 20
49.72274601871482
 30
0.0
  0
VERTEX
  5
516
  8
0
  6
CONTINUOUS
 10
140.9573789853974
 20
49.72826135039061
 30
0.0
  0
VERTEX
  5
517
  8
0
  6
CONTINUOUS
 10
140.9531503234966
 20
49.73395016563156
 30
0.0
  0
VERTEX
  5
518
  8
0
  6
CONTINUOUS
 10
140.9494782547007
 20
49.73983414988332
 30
0.0
  0
VERTEX
  5
519
  8
0
  6
CONTINUOUS
 10
140.9461748384807
 20
49.74589161770025
 30
0.0
  0
VERTEX
  5
51A
  8
0
  6
CONTINUOUS
 10
140.9430521343078
 20
49.75213702604609
 30
0.0
  0
VERTEX
  5
51B
  8
0
  6
CONTINUOUS
 10
140.9402980827108
 20
49.75820172234489
 30
0.0
  0
VERTEX
  5
51C
  8
0
  6
CONTINUOUS
 10
140.937905455208
 20
49.76443990220886
 30
0.0
  0
VERTEX
  5
51D
  8
0
  6
CONTINUOUS
 10
140.935332115658
 20
49.77050459850766
 30
0.0
  0
VERTEX
  5
51E
  8
0
  6
CONTINUOUS
 10
140.933134657166
 20
49.77638135427754
 30
0.0
  0
VERTEX
  5
51F
  8
0
  6
CONTINUOUS
 10
140.9307420296631
 20
49.78225811004742
 30
0.0
  0
VERTEX
  5
520
  8
0
  6
CONTINUOUS
 10
140.9281686901132
 20
49.78758550119429
 30
0.0
  0
VERTEX
  5
521
  8
0
  6
CONTINUOUS
 10
140.9256025790452
 20
49.7927321802941
 30
0.0
  0
VERTEX
  5
522
  8
0
  6
CONTINUOUS
 10
140.9226605869193
 20
49.79750297833607
 30
0.0
  0
VERTEX
  5
523
  8
0
  6
CONTINUOUS
 10
140.9195378827464
 20
49.80191235228395
 30
0.0
  0
VERTEX
  5
524
  8
0
  6
CONTINUOUS
 10
140.9515022296276
 20
49.80870712525281
 30
0.0
  0
VERTEX
  5
525
  8
0
  6
CONTINUOUS
 10
140.9498469072767
 20
49.81936190754654
 30
0.0
  0
VERTEX
  5
526
  8
0
  6
CONTINUOUS
 10
140.9478229323497
 20
49.83093470703925
 30
0.0
  0
VERTEX
  5
527
  8
0
  6
CONTINUOUS
 10
140.9456182453758
 20
49.84305687115498
 30
0.0
  0
VERTEX
  5
528
  8
0
  6
CONTINUOUS
 10
140.9434135584019
 20
49.85591634042265
 30
0.0
  0
VERTEX
  5
529
  8
0
  6
CONTINUOUS
 10
140.9410281593809
 20
49.8691372337844
 30
0.0
  0
VERTEX
  5
52A
  8
0
  6
CONTINUOUS
 10
140.9388234724069
 20
49.882734008204
 30
0.0
  0
VERTEX
  5
52B
  8
0
  6
CONTINUOUS
 10
140.936438073386
 20
49.8966922067177
 30
0.0
  0
VERTEX
  5
52C
  8
0
  6
CONTINUOUS
 10
140.9344140984591
 20
49.91065040523139
 30
0.0
  0
VERTEX
  5
52D
  8
0
  6
CONTINUOUS
 10
140.9325780640611
 20
49.92442789169804
 30
0.0
  0
VERTEX
  5
52E
  8
0
  6
CONTINUOUS
 10
140.930929970192
 20
49.93838609021174
 30
0.0
  0
VERTEX
  5
52F
  8
0
  6
CONTINUOUS
 10
140.9298240124641
 20
49.95197563614946
 30
0.0
  0
VERTEX
  5
530
  8
0
  6
CONTINUOUS
 10
140.9290939357941
 20
49.9652037579931
 30
0.0
  0
VERTEX
  5
531
  8
0
  6
CONTINUOUS
 10
140.9289059952652
 20
49.97805599877888
 30
0.0
  0
VERTEX
  5
532
  8
0
  6
CONTINUOUS
 10
140.9292746478411
 20
49.99017816289462
 30
0.0
  0
VERTEX
  5
533
  8
0
  6
CONTINUOUS
 10
140.9301926650401
 20
50.00175096238733
 30
0.0
  0
VERTEX
  5
534
  8
0
  6
CONTINUOUS
 10
140.9320286994381
 20
50.01240574468105
 30
0.0
  0
VERTEX
  5
535
  8
0
  6
CONTINUOUS
 10
140.935151403611
 20
50.02819997759271
 30
0.0
  0
VERTEX
  5
536
  8
0
  6
CONTINUOUS
 10
140.9382741077839
 20
50.0441821510333
 30
0.0
  0
VERTEX
  5
537
  8
0
  6
CONTINUOUS
 10
140.9415775240039
 20
50.06071368909691
 30
0.0
  0
VERTEX
  5
538
  8
0
  6
CONTINUOUS
 10
140.9448881687057
 20
50.07742593920756
 30
0.0
  0
VERTEX
  5
539
  8
0
  6
CONTINUOUS
 10
140.9481915849257
 20
50.09432612984713
 30
0.0
  0
VERTEX
  5
53A
  8
0
  6
CONTINUOUS
 10
140.9513142890986
 20
50.11140703253376
 30
0.0
  0
VERTEX
  5
53B
  8
0
  6
CONTINUOUS
 10
140.9544369932716
 20
50.1286758757493
 30
0.0
  0
VERTEX
  5
53C
  8
0
  6
CONTINUOUS
 10
140.9575596974445
 20
50.14611820253001
 30
0.0
  0
VERTEX
  5
53D
  8
0
  6
CONTINUOUS
 10
140.9603137490414
 20
50.1635677577926
 30
0.0
  0
VERTEX
  5
53E
  8
0
  6
CONTINUOUS
 10
140.9628870885913
 20
50.18083660100815
 30
0.0
  0
VERTEX
  5
53F
  8
0
  6
CONTINUOUS
 10
140.9650917755653
 20
50.19828615627073
 30
0.0
  0
VERTEX
  5
540
  8
0
  6
CONTINUOUS
 10
140.9671085220103
 20
50.2155477710044
 30
0.0
  0
VERTEX
  5
541
  8
0
  6
CONTINUOUS
 10
140.9687638443612
 20
50.23263590217289
 30
0.0
  0
VERTEX
  5
542
  8
0
  6
CONTINUOUS
 10
140.9698698020891
 20
50.24952886433059
 30
0.0
  0
VERTEX
  5
543
  8
0
  6
CONTINUOUS
 10
140.9707878192881
 20
50.2660604023942
 30
0.0
  0
VERTEX
  5
544
  8
0
  6
CONTINUOUS
 10
140.9709685313352
 20
50.28241122841076
 30
0.0
  0
VERTEX
  5
545
  8
0
  6
CONTINUOUS
 10
140.9755586173301
 20
50.31050833748519
 30
0.0
  0
VERTEX
  5
546
  8
0
  6
CONTINUOUS
 10
140.979230686126
 20
50.33788259837145
 30
0.0
  0
VERTEX
  5
547
  8
0
  6
CONTINUOUS
 10
140.9821726782519
 20
50.36451232562388
 30
0.0
  0
VERTEX
  5
548
  8
0
  6
CONTINUOUS
 10
140.9847460178018
 20
50.39096134082928
 30
0.0
  0
VERTEX
  5
549
  8
0
  6
CONTINUOUS
 10
140.9873121288699
 20
50.41722964398762
 30
0.0
  0
VERTEX
  5
54A
  8
0
  6
CONTINUOUS
 10
140.9902541209957
 20
50.44385937124006
 30
0.0
  0
VERTEX
  5
54B
  8
0
  6
CONTINUOUS
 10
140.9939261897917
 20
50.47122640364444
 30
0.0
  0
VERTEX
  5
54C
  8
0
  6
CONTINUOUS
 10
140.9985162757866
 20
50.49933074120075
 30
0.0
  0
VERTEX
  5
54D
  8
0
  6
CONTINUOUS
 10
141.0005402507135
 20
50.51494426206537
 30
0.0
  0
VERTEX
  5
54E
  8
0
  6
CONTINUOUS
 10
141.0016389799595
 20
50.53624659817094
 30
0.0
  0
VERTEX
  5
54F
  8
0
  6
CONTINUOUS
 10
141.0021955730644
 20
50.55700679813538
 30
0.0
  0
VERTEX
  5
550
  8
0
  6
CONTINUOUS
 10
141.0023762851114
 20
50.57077705612015
 30
0.0
  0
VERTEX
  5
551
  8
0
  6
CONTINUOUS
 10
141.0086216934573
 20
50.56251490132929
 30
0.0
  0
VERTEX
  5
552
  8
0
  6
CONTINUOUS
 10
141.0148671018032
 20
50.55443345858547
 30
0.0
  0
VERTEX
  5
553
  8
0
  6
CONTINUOUS
 10
141.021112510149
 20
50.5465327278887
 30
0.0
  0
VERTEX
  5
554
  8
0
  6
CONTINUOUS
 10
141.0271699779659
 20
50.53881993772085
 30
0.0
  0
VERTEX
  5
555
  8
0
  6
CONTINUOUS
 10
141.0332274457828
 20
50.53128785960005
 30
0.0
  0
VERTEX
  5
556
  8
0
  6
CONTINUOUS
 10
141.0392921420816
 20
50.52394372200818
 30
0.0
  0
VERTEX
  5
557
  8
0
  6
CONTINUOUS
 10
141.0451688978515
 20
50.51678029646334
 30
0.0
  0
VERTEX
  5
558
  8
0
  6
CONTINUOUS
 10
141.0510456536214
 20
50.50979758296555
 30
0.0
  0
VERTEX
  5
559
  8
0
  6
CONTINUOUS
 10
141.0569224093913
 20
50.50282209794965
 30
0.0
  0
VERTEX
  5
55A
  8
0
  6
CONTINUOUS
 10
141.0626184531141
 20
50.49620803702783
 30
0.0
  0
VERTEX
  5
55B
  8
0
  6
CONTINUOUS
 10
141.068495208884
 20
50.48959397610601
 30
0.0
  0
VERTEX
  5
55C
  8
0
  6
CONTINUOUS
 10
141.0741840241249
 20
50.48334856776016
 30
0.0
  0
VERTEX
  5
55D
  8
0
  6
CONTINUOUS
 10
141.0798800678478
 20
50.47710315941431
 30
0.0
  0
VERTEX
  5
55E
  8
0
  6
CONTINUOUS
 10
141.0855761115706
 20
50.47085775106846
 30
0.0
  0
VERTEX
  5
55F
  8
0
  6
CONTINUOUS
 10
141.0912721552934
 20
50.46498099529859
 30
0.0
  0
VERTEX
  5
560
  8
0
  6
CONTINUOUS
 10
141.0969609705344
 20
50.45910423952871
 30
0.0
  0
VERTEX
  5
561
  8
0
  6
CONTINUOUS
 10
141.1026570142572
 20
50.45322748375883
 30
0.0
  0
VERTEX
  5
562
  8
0
  6
CONTINUOUS
 10
141.1085337700271
 20
50.44771938056493
 30
0.0
  0
VERTEX
  5
563
  8
0
  6
CONTINUOUS
 10
141.1142298137499
 20
50.44220404888913
 30
0.0
  0
VERTEX
  5
564
  8
0
  6
CONTINUOUS
 10
141.1199258574728
 20
50.43669594569523
 30
0.0
  0
VERTEX
  5
565
  8
0
  6
CONTINUOUS
 10
141.1258026132427
 20
50.43136855454836
 30
0.0
  0
VERTEX
  5
566
  8
0
  6
CONTINUOUS
 10
141.1316793690125
 20
50.4260411634015
 30
0.0
  0
VERTEX
  5
567
  8
0
  6
CONTINUOUS
 10
141.1375561247824
 20
50.42090171278356
 30
0.0
  0
VERTEX
  5
568
  8
0
  6
CONTINUOUS
 10
141.1434328805523
 20
50.41575503368374
 30
0.0
  0
VERTEX
  5
569
  8
0
  6
CONTINUOUS
 10
141.1493096363222
 20
50.41079629511285
 30
0.0
  0
VERTEX
  5
56A
  8
0
  6
CONTINUOUS
 10
141.155374332621
 20
50.40565684449491
 30
0.0
  0
VERTEX
  5
56B
  8
0
  6
CONTINUOUS
 10
141.1616197409668
 20
50.40087881797106
 30
0.0
  0
VERTEX
  5
56C
  8
0
  6
CONTINUOUS
 10
141.1676772087837
 20
50.39592007940017
 30
0.0
  0
VERTEX
  5
56D
  8
0
  6
CONTINUOUS
 10
141.1739226171296
 20
50.39114205287632
 30
0.0
  0
VERTEX
  5
56E
  8
0
  6
CONTINUOUS
 10
141.1803487375225
 20
50.38637125483435
 30
0.0
  0
VERTEX
  5
56F
  8
0
  6
CONTINUOUS
 10
141.1867820863972
 20
50.38159322831051
 30
0.0
  0
VERTEX
  5
570
  8
0
  6
CONTINUOUS
 10
141.1932082067901
 20
50.37681520178666
 30
0.0
  0
VERTEX
  5
571
  8
0
  6
CONTINUOUS
 10
141.201839014157
 20
50.3691024116188
 30
0.0
  0
VERTEX
  5
572
  8
0
  6
CONTINUOUS
 10
141.2095590328067
 20
50.36084025682795
 30
0.0
  0
VERTEX
  5
573
  8
0
  6
CONTINUOUS
 10
141.2167224583515
 20
50.35202150893219
 30
0.0
  0
VERTEX
  5
574
  8
0
  6
CONTINUOUS
 10
141.2233292907915
 20
50.34284133694234
 30
0.0
  0
VERTEX
  5
575
  8
0
  6
CONTINUOUS
 10
141.2295746991373
 20
50.33347322442357
 30
0.0
  0
VERTEX
  5
576
  8
0
  6
CONTINUOUS
 10
141.2352707428602
 20
50.3241051119048
 30
0.0
  0
VERTEX
  5
577
  8
0
  6
CONTINUOUS
 10
141.2407788460541
 20
50.31491771143307
 30
0.0
  0
VERTEX
  5
578
  8
0
  6
CONTINUOUS
 10
141.2461062372009
 20
50.30610619201919
 30
0.0
  0
VERTEX
  5
579
  8
0
  6
CONTINUOUS
 10
141.2512529163008
 20
50.29746815617048
 30
0.0
  0
VERTEX
  5
57A
  8
0
  6
CONTINUOUS
 10
141.2563923669187
 20
50.28957465395559
 30
0.0
  0
VERTEX
  5
57B
  8
0
  6
CONTINUOUS
 10
141.2617197580655
 20
50.28241122841076
 30
0.0
  0
VERTEX
  5
57C
  8
0
  6
CONTINUOUS
 10
141.2670471492124
 20
50.27597787953598
 30
0.0
  0
VERTEX
  5
57D
  8
0
  6
CONTINUOUS
 10
141.2725552524063
 20
50.27065048838912
 30
0.0
  0
VERTEX
  5
57E
  8
0
  6
CONTINUOUS
 10
141.2786199487051
 20
50.26642905497017
 30
0.0
  0
VERTEX
  5
57F
  8
0
  6
CONTINUOUS
 10
141.285046069098
 20
50.26348706284428
 30
0.0
  0
VERTEX
  5
580
  8
0
  6
CONTINUOUS
 10
141.2918408420669
 20
50.26201968102229
 30
0.0
  0
VERTEX
  5
581
  8
0
  6
CONTINUOUS
 10
141.2896361550929
 20
50.232079309068
 30
0.0
  0
VERTEX
  5
582
  8
0
  6
CONTINUOUS
 10
141.286332738873
 20
50.20140886044366
 30
0.0
  0
VERTEX
  5
583
  8
0
  6
CONTINUOUS
 10
141.2824727295481
 20
50.1696324540914
 30
0.0
  0
VERTEX
  5
584
  8
0
  6
CONTINUOUS
 10
141.2789886012811
 20
50.13583930129413
 30
0.0
  0
VERTEX
  5
585
  8
0
  6
CONTINUOUS
 10
141.2767839143071
 20
50.10002217356997
 30
0.0
  0
VERTEX
  5
586
  8
0
  6
CONTINUOUS
 10
141.2765959737782
 20
50.06144376576697
 30
0.0
  0
VERTEX
  5
587
  8
0
  6
CONTINUOUS
 10
141.2791693133281
 20
50.01993782280186
 30
0.0
  0
VERTEX
  5
588
  8
0
  6
CONTINUOUS
 10
141.285414721674
 20
49.97475258255892
 30
0.0
  0
VERTEX
  5
589
  8
0
  6
CONTINUOUS
 10
141.287250756072
 20
49.97364662483101
 30
0.0
  0
VERTEX
  5
58A
  8
0
  6
CONTINUOUS
 10
141.2901927481978
 20
49.97272860763202
 30
0.0
  0
VERTEX
  5
58B
  8
0
  6
CONTINUOUS
 10
141.2940455290408
 20
49.97199853096197
 30
0.0
  0
VERTEX
  5
58C
  8
0
  6
CONTINUOUS
 10
141.2980862504127
 20
49.97126122581003
 30
0.0
  0
VERTEX
  5
58D
  8
0
  6
CONTINUOUS
 10
141.3023149123136
 20
49.97053114913997
 30
0.0
  0
VERTEX
  5
58E
  8
0
  6
CONTINUOUS
 10
141.3059869811095
 20
49.96979384398803
 30
0.0
  0
VERTEX
  5
58F
  8
0
  6
CONTINUOUS
 10
141.3091096852824
 20
49.96887582678904
 30
0.0
  0
VERTEX
  5
590
  8
0
  6
CONTINUOUS
 10
141.3109457196804
 20
49.96758915701409
 30
0.0
  0
VERTEX
  5
591
  8
0
  6
CONTINUOUS
 10
141.3048810233816
 20
49.96134374866824
 30
0.0
  0
VERTEX
  5
592
  8
0
  6
CONTINUOUS
 10
141.3001102253396
 20
49.95509834032239
 30
0.0
  0
VERTEX
  5
593
  8
0
  6
CONTINUOUS
 10
141.2966188685907
 20
49.9486722199295
 30
0.0
  0
VERTEX
  5
594
  8
0
  6
CONTINUOUS
 10
141.2940455290408
 20
49.94187744696064
 30
0.0
  0
VERTEX
  5
595
  8
0
  6
CONTINUOUS
 10
141.2925781472188
 20
49.9347140214158
 30
0.0
  0
VERTEX
  5
596
  8
0
  6
CONTINUOUS
 10
141.2916601300198
 20
49.927181943295
 30
0.0
  0
VERTEX
  5
597
  8
0
  6
CONTINUOUS
 10
141.2914721894909
 20
49.91891256002226
 30
0.0
  0
VERTEX
  5
598
  8
0
  6
CONTINUOUS
 10
141.2918408420669
 20
49.91010104060838
 30
0.0
  0
VERTEX
  5
599
  8
0
  6
CONTINUOUS
 10
141.2951514867687
 20
49.90587237870755
 30
0.0
  0
VERTEX
  5
59A
  8
0
  6
CONTINUOUS
 10
141.2977175978368
 20
49.90110158066558
 30
0.0
  0
VERTEX
  5
59B
  8
0
  6
CONTINUOUS
 10
141.2999222848107
 20
49.89577418951872
 30
0.0
  0
VERTEX
  5
59C
  8
0
  6
CONTINUOUS
 10
141.3017583192087
 20
49.89025885784292
 30
0.0
  0
VERTEX
  5
59D
  8
0
  6
CONTINUOUS
 10
141.3030449889836
 20
49.88420139002601
 30
0.0
  0
VERTEX
  5
59E
  8
0
  6
CONTINUOUS
 10
141.3037822941356
 20
49.87795598168015
 30
0.0
  0
VERTEX
  5
59F
  8
0
  6
CONTINUOUS
 10
141.3043316587586
 20
49.87134192075834
 30
0.0
  0
VERTEX
  5
5A0
  8
0
  6
CONTINUOUS
 10
141.3045195992875
 20
49.86472785983652
 30
0.0
  0
VERTEX
  5
5A1
  8
0
  6
CONTINUOUS
 10
141.3842280689978
 20
49.86472785983652
 30
0.0
  0
VERTEX
  5
5A2
  8
0
  6
CONTINUOUS
 10
141.3836787043747
 20
49.87152986128726
 30
0.0
  0
VERTEX
  5
5A3
  8
0
  6
CONTINUOUS
 10
141.3834979923277
 20
49.87832463425612
 30
0.0
  0
VERTEX
  5
5A4
  8
0
  6
CONTINUOUS
 10
141.3836787043747
 20
49.88457004260197
 30
0.0
  0
VERTEX
  5
5A5
  8
0
  6
CONTINUOUS
 10
141.3836787043747
 20
49.8891601285969
 30
0.0
  0
VERTEX
  5
5A6
  8
0
  6
CONTINUOUS
 10
141.3921287996945
 20
49.89007814579588
 30
0.0
  0
VERTEX
  5
5A7
  8
0
  6
CONTINUOUS
 10
141.4000295303913
 20
49.89025885784292
 30
0.0
  0
VERTEX
  5
5A8
  8
0
  6
CONTINUOUS
 10
141.4073736679832
 20
49.88970949321991
 30
0.0
  0
VERTEX
  5
5A9
  8
0
  6
CONTINUOUS
 10
141.414537093528
 20
49.88879147602093
 30
0.0
  0
VERTEX
  5
5AA
  8
0
  6
CONTINUOUS
 10
141.4211511544498
 20
49.88732409419893
 30
0.0
  0
VERTEX
  5
5AB
  8
0
  6
CONTINUOUS
 10
141.4277652153717
 20
49.88530011927203
 30
0.0
  0
VERTEX
  5
5AC
  8
0
  6
CONTINUOUS
 10
141.4340106237175
 20
49.88309543229809
 30
0.0
  0
VERTEX
  5
5AD
  8
0
  6
CONTINUOUS
 10
141.4402560320634
 20
49.88071003327711
 30
0.0
  0
VERTEX
  5
5AE
  8
0
  6
CONTINUOUS
 10
141.4464942119273
 20
49.87795598168015
 30
0.0
  0
VERTEX
  5
5AF
  8
0
  6
CONTINUOUS
 10
141.4527396202732
 20
49.8752019300832
 30
0.0
  0
VERTEX
  5
5B0
  8
0
  6
CONTINUOUS
 10
141.4591729691479
 20
49.87244787848625
 30
0.0
  0
VERTEX
  5
5B1
  8
0
  6
CONTINUOUS
 10
141.4655990895408
 20
49.86968659840741
 30
0.0
  0
VERTEX
  5
5B2
  8
0
  6
CONTINUOUS
 10
141.4723938625097
 20
49.86712048733938
 30
0.0
  0
VERTEX
  5
5B3
  8
0
  6
CONTINUOUS
 10
141.4793765760075
 20
49.86472785983652
 30
0.0
  0
VERTEX
  5
5B4
  8
0
  6
CONTINUOUS
 10
141.4867207135994
 20
49.86271111339151
 30
0.0
  0
VERTEX
  5
5B5
  8
0
  6
CONTINUOUS
 10
141.4946214442961
 20
49.86105579104058
 30
0.0
  0
VERTEX
  5
5B6
  8
0
  6
CONTINUOUS
 10
141.5021535224169
 20
49.86032571437052
 30
0.0
  0
VERTEX
  5
5B7
  8
0
  6
CONTINUOUS
 10
141.5093169479618
 20
49.85958840921858
 30
0.0
  0
VERTEX
  5
5B8
  8
0
  6
CONTINUOUS
 10
141.5162924329777
 20
49.85903904459557
 30
0.0
  0
VERTEX
  5
5B9
  8
0
  6
CONTINUOUS
 10
141.5229064938995
 20
49.85848245149067
 30
0.0
  0
VERTEX
  5
5BA
  8
0
  6
CONTINUOUS
 10
141.5295205548213
 20
49.85812102739659
 30
0.0
  0
VERTEX
  5
5BB
  8
0
  6
CONTINUOUS
 10
141.5359466752142
 20
49.85775237482061
 30
0.0
  0
VERTEX
  5
5BC
  8
0
  6
CONTINUOUS
 10
141.5421920835601
 20
49.85756443429169
 30
0.0
  0
VERTEX
  5
5BD
  8
0
  6
CONTINUOUS
 10
141.5482567798589
 20
49.85756443429169
 30
0.0
  0
VERTEX
  5
5BE
  8
0
  6
CONTINUOUS
 10
141.5541335356287
 20
49.85756443429169
 30
0.0
  0
VERTEX
  5
5BF
  8
0
  6
CONTINUOUS
 10
141.5600102913986
 20
49.85793308686765
 30
0.0
  0
VERTEX
  5
5C0
  8
0
  6
CONTINUOUS
 10
141.5657063351214
 20
49.85830173944363
 30
0.0
  0
VERTEX
  5
5C1
  8
0
  6
CONTINUOUS
 10
141.5713951503624
 20
49.85885110406664
 30
0.0
  0
VERTEX
  5
5C2
  8
0
  6
CONTINUOUS
 10
141.5770911940852
 20
49.85976912126563
 30
0.0
  0
VERTEX
  5
5C3
  8
0
  6
CONTINUOUS
 10
141.5825992972791
 20
49.86068713846461
 30
0.0
  0
VERTEX
  5
5C4
  8
0
  6
CONTINUOUS
 10
141.588295341002
 20
49.86197380823957
 30
0.0
  0
VERTEX
  5
5C5
  8
0
  6
CONTINUOUS
 10
141.5938034441959
 20
49.86344119006156
 30
0.0
  0
VERTEX
  5
5C6
  8
0
  6
CONTINUOUS
 10
141.5956394785939
 20
49.86436643574243
 30
0.0
  0
VERTEX
  5
5C7
  8
0
  6
CONTINUOUS
 10
141.5972948009448
 20
49.86528445294142
 30
0.0
  0
VERTEX
  5
5C8
  8
0
  6
CONTINUOUS
 10
141.5984007586727
 20
49.8662024701404
 30
0.0
  0
VERTEX
  5
5C9
  8
0
  6
CONTINUOUS
 10
141.5993187758717
 20
49.86748913991536
 30
0.0
  0
VERTEX
  5
5CA
  8
0
  6
CONTINUOUS
 10
141.5998681404947
 20
49.86895652173735
 30
0.0
  0
VERTEX
  5
5CB
  8
0
  6
CONTINUOUS
 10
141.6002367930706
 20
49.87116120871129
 30
0.0
  0
VERTEX
  5
5CC
  8
0
  6
CONTINUOUS
 10
141.6004175051177
 20
49.87409597235529
 30
0.0
  0
VERTEX
  5
5CD
  8
0
  6
CONTINUOUS
 10
141.6002367930706
 20
49.87795598168015
 30
0.0
  0
VERTEX
  5
5CE
  8
0
  6
CONTINUOUS
 10
141.5996801999657
 20
49.88309543229809
 30
0.0
  0
VERTEX
  5
5CF
  8
0
  6
CONTINUOUS
 10
141.5978441655678
 20
49.88750480624597
 30
0.0
  0
VERTEX
  5
5D0
  8
0
  6
CONTINUOUS
 10
141.5947214613949
 20
49.89154552761788
 30
0.0
  0
VERTEX
  5
5D1
  8
0
  6
CONTINUOUS
 10
141.5906807400229
 20
49.89503688436677
 30
0.0
  0
VERTEX
  5
5D2
  8
0
  6
CONTINUOUS
 10
141.585541289405
 20
49.89797887649266
 30
0.0
  0
VERTEX
  5
5D3
  8
0
  6
CONTINUOUS
 10
141.5796645336351
 20
49.90073292808961
 30
0.0
  0
VERTEX
  5
5D4
  8
0
  6
CONTINUOUS
 10
141.5730504727133
 20
49.90293761506355
 30
0.0
  0
VERTEX
  5
5D5
  8
0
  6
CONTINUOUS
 10
141.5658870471685
 20
49.90495436150856
 30
0.0
  0
VERTEX
  5
5D6
  8
0
  6
CONTINUOUS
 10
141.5585429095766
 20
49.90679039590653
 30
0.0
  0
VERTEX
  5
5D7
  8
0
  6
CONTINUOUS
 10
141.5508228909269
 20
49.90844571825745
 30
0.0
  0
VERTEX
  5
5D8
  8
0
  6
CONTINUOUS
 10
141.542929388712
 20
49.90991310007946
 30
0.0
  0
VERTEX
  5
5D9
  8
0
  6
CONTINUOUS
 10
141.5352165985441
 20
49.91138048190145
 30
0.0
  0
VERTEX
  5
5DA
  8
0
  6
CONTINUOUS
 10
141.5274965798944
 20
49.91285509220533
 30
0.0
  0
VERTEX
  5
5DB
  8
0
  6
CONTINUOUS
 10
141.5201524423025
 20
49.91432247402734
 30
0.0
  0
VERTEX
  5
5DC
  8
0
  6
CONTINUOUS
 10
141.5133576693337
 20
49.91597779637826
 30
0.0
  0
VERTEX
  5
5DD
  8
0
  6
CONTINUOUS
 10
141.5071122609878
 20
49.9176258902473
 30
0.0
  0
VERTEX
  5
5DE
  8
0
  6
CONTINUOUS
 10
141.504719633485
 20
49.91891256002226
 30
0.0
  0
VERTEX
  5
5DF
  8
0
  6
CONTINUOUS
 10
141.502334234464
 20
49.92056788237318
 30
0.0
  0
VERTEX
  5
5E0
  8
0
  6
CONTINUOUS
 10
141.499948835443
 20
49.92240391677115
 30
0.0
  0
VERTEX
  5
5E1
  8
0
  6
CONTINUOUS
 10
141.4975562079401
 20
49.92460860374509
 30
0.0
  0
VERTEX
  5
5E2
  8
0
  6
CONTINUOUS
 10
141.4951708089191
 20
49.927181943295
 30
0.0
  0
VERTEX
  5
5E3
  8
0
  6
CONTINUOUS
 10
141.4925974693692
 20
49.92974805436302
 30
0.0
  0
VERTEX
  5
5E4
  8
0
  6
CONTINUOUS
 10
141.4900313583012
 20
49.93232139391294
 30
0.0
  0
VERTEX
  5
5E5
  8
0
  6
CONTINUOUS
 10
141.4872773067042
 20
49.93526338603882
 30
0.0
  0
VERTEX
  5
5E6
  8
0
  6
CONTINUOUS
 10
141.4845160266254
 20
49.93801743763577
 30
0.0
  0
VERTEX
  5
5E7
  8
0
  6
CONTINUOUS
 10
141.4815812629814
 20
49.94059077718568
 30
0.0
  0
VERTEX
  5
5E8
  8
0
  6
CONTINUOUS
 10
141.4786392708556
 20
49.94334482878264
 30
0.0
  0
VERTEX
  5
5E9
  8
0
  6
CONTINUOUS
 10
141.4753358546356
 20
49.94573022780362
 30
0.0
  0
VERTEX
  5
5EA
  8
0
  6
CONTINUOUS
 10
141.4718444978867
 20
49.9481156268246
 30
0.0
  0
VERTEX
  5
5EB
  8
0
  6
CONTINUOUS
 10
141.4681724290907
 20
49.95013960175149
 30
0.0
  0
VERTEX
  5
5EC
  8
0
  6
CONTINUOUS
 10
141.4643124197659
 20
49.95179492410242
 30
0.0
  0
VERTEX
  5
5ED
  8
0
  6
CONTINUOUS
 10
141.460271698394
 20
49.95326230592442
 30
0.0
  0
VERTEX
  5
5EE
  8
0
  6
CONTINUOUS
 10
141.4622956733209
 20
49.95326230592442
 30
0.0
  0
VERTEX
  5
5EF
  8
0
  6
CONTINUOUS
 10
141.4643124197659
 20
49.95326230592442
 30
0.0
  0
VERTEX
  5
5F0
  8
0
  6
CONTINUOUS
 10
141.4663363946928
 20
49.95326230592442
 30
0.0
  0
VERTEX
  5
5F1
  8
0
  6
CONTINUOUS
 10
141.4683531411378
 20
49.95326230592442
 30
0.0
  0
VERTEX
  5
5F2
  8
0
  6
CONTINUOUS
 10
141.4701891755358
 20
49.95326230592442
 30
0.0
  0
VERTEX
  5
5F3
  8
0
  6
CONTINUOUS
 10
141.4722131504626
 20
49.95326230592442
 30
0.0
  0
VERTEX
  5
5F4
  8
0
  6
CONTINUOUS
 10
141.4742298969077
 20
49.95326230592442
 30
0.0
  0
VERTEX
  5
5F5
  8
0
  6
CONTINUOUS
 10
141.4762538718346
 20
49.95326230592442
 30
0.0
  0
VERTEX
  5
5F6
  8
0
  6
CONTINUOUS
 10
141.4782706182796
 20
49.95326230592442
 30
0.0
  0
VERTEX
  5
5F7
  8
0
  6
CONTINUOUS
 10
141.4802945932065
 20
49.95326230592442
 30
0.0
  0
VERTEX
  5
5F8
  8
0
  6
CONTINUOUS
 10
141.4823113396515
 20
49.95326230592442
 30
0.0
  0
VERTEX
  5
5F9
  8
0
  6
CONTINUOUS
 10
141.4843353145784
 20
49.95326230592442
 30
0.0
  0
VERTEX
  5
5FA
  8
0
  6
CONTINUOUS
 10
141.4861713489763
 20
49.95326230592442
 30
0.0
  0
VERTEX
  5
5FB
  8
0
  6
CONTINUOUS
 10
141.4881953239032
 20
49.95326230592442
 30
0.0
  0
VERTEX
  5
5FC
  8
0
  6
CONTINUOUS
 10
141.4902120703483
 20
49.95326230592442
 30
0.0
  0
VERTEX
  5
5FD
  8
0
  6
CONTINUOUS
 10
141.4922360452751
 20
49.95326230592442
 30
0.0
  0
VERTEX
  5
5FE
  8
0
  6
CONTINUOUS
 10
141.4894747651963
 20
49.9817352960567
 30
0.0
  0
VERTEX
  5
5FF
  8
0
  6
CONTINUOUS
 10
141.4880073833743
 20
50.01075042233013
 30
0.0
  0
VERTEX
  5
600
  8
0
  6
CONTINUOUS
 10
141.4876387307984
 20
50.03995348913247
 30
0.0
  0
VERTEX
  5
601
  8
0
  6
CONTINUOUS
 10
141.4881953239032
 20
50.06953243699267
 30
0.0
  0
VERTEX
  5
602
  8
0
  6
CONTINUOUS
 10
141.4896627057252
 20
50.09910415637098
 30
0.0
  0
VERTEX
  5
603
  8
0
  6
CONTINUOUS
 10
141.4916794521702
 20
50.1286758757493
 30
0.0
  0
VERTEX
  5
604
  8
0
  6
CONTINUOUS
 10
141.4940720796731
 20
50.15842830717466
 30
0.0
  0
VERTEX
  5
605
  8
0
  6
CONTINUOUS
 10
141.4964574786941
 20
50.18800002655298
 30
0.0
  0
VERTEX
  5
606
  8
0
  6
CONTINUOUS
 10
141.499030818244
 20
50.21720309335532
 30
0.0
  0
VERTEX
  5
607
  8
0
  6
CONTINUOUS
 10
141.5012355052179
 20
50.24622544811062
 30
0.0
  0
VERTEX
  5
608
  8
0
  6
CONTINUOUS
 10
141.5030715396159
 20
50.27487915028996
 30
0.0
  0
VERTEX
  5
609
  8
0
  6
CONTINUOUS
 10
141.5041702688619
 20
50.30316419989332
 30
0.0
  0
VERTEX
  5
60A
  8
0
  6
CONTINUOUS
 10
141.5045389214379
 20
50.33071917282662
 30
0.0
  0
VERTEX
  5
60B
  8
0
  6
CONTINUOUS
 10
141.503801616286
 20
50.35752961212609
 30
0.0
  0
VERTEX
  5
60C
  8
0
  6
CONTINUOUS
 10
141.501784869841
 20
50.38379791528444
 30
0.0
  0
VERTEX
  5
60D
  8
0
  6
CONTINUOUS
 10
141.498481453621
 20
50.40914820124381
 30
0.0
  0
VERTEX
  5
60E
  8
0
  6
CONTINUOUS
 10
141.4951708089191
 20
50.41502495701369
 30
0.0
  0
VERTEX
  5
60F
  8
0
  6
CONTINUOUS
 10
141.4914987401232
 20
50.42090171278356
 30
0.0
  0
VERTEX
  5
610
  8
0
  6
CONTINUOUS
 10
141.4878266713273
 20
50.4265977565064
 30
0.0
  0
VERTEX
  5
611
  8
0
  6
CONTINUOUS
 10
141.4839666620024
 20
50.43191791917138
 30
0.0
  0
VERTEX
  5
612
  8
0
  6
CONTINUOUS
 10
141.4799259406305
 20
50.43724531031824
 30
0.0
  0
VERTEX
  5
613
  8
0
  6
CONTINUOUS
 10
141.4757045072115
 20
50.44239198941806
 30
0.0
  0
VERTEX
  5
614
  8
0
  6
CONTINUOUS
 10
141.4714758453107
 20
50.44735072798895
 30
0.0
  0
VERTEX
  5
615
  8
0
  6
CONTINUOUS
 10
141.4668857593158
 20
50.45230946655985
 30
0.0
  0
VERTEX
  5
616
  8
0
  6
CONTINUOUS
 10
141.4622956733209
 20
50.4570874930837
 30
0.0
  0
VERTEX
  5
617
  8
0
  6
CONTINUOUS
 10
141.4576983588441
 20
50.46167757907862
 30
0.0
  0
VERTEX
  5
618
  8
0
  6
CONTINUOUS
 10
141.4529275608021
 20
50.46626766507354
 30
0.0
  0
VERTEX
  5
619
  8
0
  6
CONTINUOUS
 10
141.4479688222312
 20
50.47067703902142
 30
0.0
  0
VERTEX
  5
61A
  8
0
  6
CONTINUOUS
 10
141.4430100836603
 20
50.4750864129693
 30
0.0
  0
VERTEX
  5
61B
  8
0
  6
CONTINUOUS
 10
141.4378634045605
 20
50.47930784638825
 30
0.0
  0
VERTEX
  5
61C
  8
0
  6
CONTINUOUS
 10
141.4325360134136
 20
50.48353650828908
 30
0.0
  0
VERTEX
  5
61D
  8
0
  6
CONTINUOUS
 10
141.4273965627957
 20
50.48775794170804
 30
0.0
  0
VERTEX
  5
61E
  8
0
  6
CONTINUOUS
 10
141.4220691716488
 20
50.49179866307995
 30
0.0
  0
VERTEX
  5
61F
  8
0
  6
CONTINUOUS
 10
141.416741780502
 20
50.49583938445186
 30
0.0
  0
VERTEX
  5
620
  8
0
  6
CONTINUOUS
 10
141.411233677308
 20
50.49988010582376
 30
0.0
  0
VERTEX
  5
621
  8
0
  6
CONTINUOUS
 10
141.4057183456323
 20
50.50392082719567
 30
0.0
  0
VERTEX
  5
622
  8
0
  6
CONTINUOUS
 10
141.4002102424384
 20
50.50778083652054
 30
0.0
  0
VERTEX
  5
623
  8
0
  6
CONTINUOUS
 10
141.3947021392445
 20
50.51182155789245
 30
0.0
  0
VERTEX
  5
624
  8
0
  6
CONTINUOUS
 10
141.3891940360505
 20
50.51586227926435
 30
0.0
  0
VERTEX
  5
625
  8
0
  6
CONTINUOUS
 10
141.3836787043747
 20
50.51971506010734
 30
0.0
  0
VERTEX
  5
626
  8
0
  6
CONTINUOUS
 10
141.3779898891338
 20
50.52375578147925
 30
0.0
  0
VERTEX
  5
627
  8
0
  6
CONTINUOUS
 10
141.372474557458
 20
50.52779650285115
 30
0.0
  0
VERTEX
  5
628
  8
0
  6
CONTINUOUS
 10
141.3669664542641
 20
50.53183722422307
 30
0.0
  0
VERTEX
  5
629
  8
0
  6
CONTINUOUS
 10
141.3614583510702
 20
50.53587794559498
 30
0.0
  0
VERTEX
  5
62A
  8
0
  6
CONTINUOUS
 10
141.3559430193944
 20
50.53992589544876
 30
0.0
  0
VERTEX
  5
62B
  8
0
  6
CONTINUOUS
 10
141.3504349162005
 20
50.54414732886772
 30
0.0
  0
VERTEX
  5
62C
  8
0
  6
CONTINUOUS
 10
141.3449268130066
 20
50.54836876228667
 30
0.0
  0
VERTEX
  5
62D
  8
0
  6
CONTINUOUS
 10
141.3395994218597
 20
50.55277813623455
 30
0.0
  0
VERTEX
  5
62E
  8
0
  6
CONTINUOUS
 10
141.3434522027027
 20
50.5590235445804
 30
0.0
  0
VERTEX
  5
62F
  8
0
  6
CONTINUOUS
 10
141.3467628474046
 20
50.5645316477743
 30
0.0
  0
VERTEX
  5
630
  8
0
  6
CONTINUOUS
 10
141.3495168990015
 20
50.56912896225111
 30
0.0
  0
VERTEX
  5
631
  8
0
  6
CONTINUOUS
 10
141.3517215859754
 20
50.57335039567006
 30
0.0
  0
VERTEX
  5
632
  8
0
  6
CONTINUOUS
 10
141.3530082557504
 20
50.57721040499493
 30
0.0
  0
VERTEX
  5
633
  8
0
  6
CONTINUOUS
 10
141.3537383324204
 20
50.58088247379087
 30
0.0
  0
VERTEX
  5
634
  8
0
  6
CONTINUOUS
 10
141.3535576203734
 20
50.5845545425868
 30
0.0
  0
VERTEX
  5
635
  8
0
  6
CONTINUOUS
 10
141.3526396031744
 20
50.58841455191167
 30
0.0
  0
VERTEX
  5
636
  8
0
  6
CONTINUOUS
 10
141.3509842808235
 20
50.59245527328358
 30
0.0
  0
VERTEX
  5
637
  8
0
  6
CONTINUOUS
 10
141.3482302292265
 20
50.59686464723146
 30
0.0
  0
VERTEX
  5
638
  8
0
  6
CONTINUOUS
 10
141.3445581604306
 20
50.6020040978494
 30
0.0
  0
VERTEX
  5
639
  8
0
  6
CONTINUOUS
 10
141.3399680744357
 20
50.60787362513739
 30
0.0
  0
VERTEX
  5
63A
  8
0
  6
CONTINUOUS
 10
141.3344527427599
 20
50.61466839810625
 30
0.0
  0
VERTEX
  5
63B
  8
0
  6
CONTINUOUS
 10
141.327657969791
 20
50.62274984085007
 30
0.0
  0
VERTEX
  5
63C
  8
0
  6
CONTINUOUS
 10
141.3199451796232
 20
50.63193724132179
 30
0.0
  0
VERTEX
  5
63D
  8
0
  6
CONTINUOUS
 10
141.3109457196804
 20
50.64259202361552
 30
0.0
  0
VERTEX
  5
63E
  8
0
  6
CONTINUOUS
 10
141.3109457196804
 20
50.64259202361552
 30
0.0
  0
VERTEX
  5
63F
  8
0
  6
CONTINUOUS
 10
141.3109457196804
 20
50.64314138823854
 30
0.0
  0
SEQEND
  5
841
  8
0
  6
CONTINUOUS
  0
POLYLINE
  5
1B6
  8
0
  6
CONTINUOUS
 66
     1
 10
0.0
 20
0.0
 30
0.0
  0
VERTEX
  5
640
  8
0
  6
CONTINUOUS
 10
141.3111264317274
 20
50.64314138823854
 30
0.0
  0
VERTEX
  5
641
  8
0
  6
CONTINUOUS
 10
141.3107577791515
 20
50.65856696857423
 30
0.0
  0
VERTEX
  5
642
  8
0
  6
CONTINUOUS
 10
141.3085603206594
 20
50.65856696857423
 30
0.0
  0
VERTEX
  5
643
  8
0
  6
CONTINUOUS
 10
141.3052496759576
 20
50.65856696857423
 30
0.0
  0
VERTEX
  5
644
  8
0
  6
CONTINUOUS
 10
141.3012089545857
 20
50.65875490910316
 30
0.0
  0
VERTEX
  5
645
  8
0
  6
CONTINUOUS
 10
141.2966188685907
 20
50.65875490910316
 30
0.0
  0
VERTEX
  5
646
  8
0
  6
CONTINUOUS
 10
141.2914721894909
 20
50.65893562115021
 30
0.0
  0
VERTEX
  5
647
  8
0
  6
CONTINUOUS
 10
141.2857833742499
 20
50.65893562115021
 30
0.0
  0
VERTEX
  5
648
  8
0
  6
CONTINUOUS
 10
141.2799066184801
 20
50.65912356167913
 30
0.0
  0
VERTEX
  5
649
  8
0
  6
CONTINUOUS
 10
141.2738419221813
 20
50.65930427372617
 30
0.0
  0
VERTEX
  5
64A
  8
0
  6
CONTINUOUS
 10
141.2677844543643
 20
50.65930427372617
 30
0.0
  0
VERTEX
  5
64B
  8
0
  6
CONTINUOUS
 10
141.2617197580655
 20
50.65948498577322
 30
0.0
  0
VERTEX
  5
64C
  8
0
  6
CONTINUOUS
 10
141.2560237143427
 20
50.65967292630214
 30
0.0
  0
VERTEX
  5
64D
  8
0
  6
CONTINUOUS
 10
141.2506963231959
 20
50.65985363834919
 30
0.0
  0
VERTEX
  5
64E
  8
0
  6
CONTINUOUS
 10
141.2457375846249
 20
50.66004157887811
 30
0.0
  0
VERTEX
  5
64F
  8
0
  6
CONTINUOUS
 10
141.241516151206
 20
50.66004157887811
 30
0.0
  0
VERTEX
  5
650
  8
0
  6
CONTINUOUS
 10
141.2380247944571
 20
50.66022229092516
 30
0.0
  0
VERTEX
  5
651
  8
0
  6
CONTINUOUS
 10
141.2352707428602
 20
50.6604030029722
 30
0.0
  0
VERTEX
  5
652
  8
0
  6
CONTINUOUS
 10
141.2339840730852
 20
50.64589543983549
 30
0.0
  0
VERTEX
  5
653
  8
0
  6
CONTINUOUS
 10
141.2349020902842
 20
50.64460877006054
 30
0.0
  0
VERTEX
  5
654
  8
0
  6
CONTINUOUS
 10
141.2371067772581
 20
50.64351004081451
 30
0.0
  0
VERTEX
  5
655
  8
0
  6
CONTINUOUS
 10
141.240598134007
 20
50.64259202361552
 30
0.0
  0
VERTEX
  5
656
  8
0
  6
CONTINUOUS
 10
141.244819567426
 20
50.64185471846358
 30
0.0
  0
VERTEX
  5
657
  8
0
  6
CONTINUOUS
 10
141.2497783059969
 20
50.64130535384057
 30
0.0
  0
VERTEX
  5
658
  8
0
  6
CONTINUOUS
 10
141.2554743497197
 20
50.6409367012646
 30
0.0
  0
VERTEX
  5
659
  8
0
  6
CONTINUOUS
 10
141.2615390460185
 20
50.64056804868863
 30
0.0
  0
VERTEX
  5
65A
  8
0
  6
CONTINUOUS
 10
141.2679651664114
 20
50.64038733664159
 30
0.0
  0
VERTEX
  5
65B
  8
0
  6
CONTINUOUS
 10
141.2743912868043
 20
50.64038733664159
 30
0.0
  0
VERTEX
  5
65C
  8
0
  6
CONTINUOUS
 10
141.2810053477261
 20
50.64056804868863
 30
0.0
  0
VERTEX
  5
65D
  8
0
  6
CONTINUOUS
 10
141.287250756072
 20
50.64075598921755
 30
0.0
  0
VERTEX
  5
65E
  8
0
  6
CONTINUOUS
 10
141.2933154523708
 20
50.6409367012646
 30
0.0
  0
VERTEX
  5
65F
  8
0
  6
CONTINUOUS
 10
141.2988235555647
 20
50.64148606588761
 30
0.0
  0
VERTEX
  5
660
  8
0
  6
CONTINUOUS
 10
141.3037822941356
 20
50.64185471846358
 30
0.0
  0
VERTEX
  5
661
  8
0
  6
CONTINUOUS
 10
141.3080037275545
 20
50.6424040830866
 30
0.0
  0
VERTEX
  5
662
  8
0
  6
CONTINUOUS
 10
141.3111264317274
 20
50.64314138823854
 30
0.0
  0
SEQEND
  5
842
  8
0
  6
CONTINUOUS
  0
POLYLINE
  5
1DB
  8
0
  6
CONTINUOUS
 66
     1
 10
0.0
 20
0.0
 30
0.0
  0
VERTEX
  5
663
  8
0
  6
CONTINUOUS
 10
140.8761886769014
 20
51.29757922388634
 30
0.0
  0
VERTEX
  5
664
  8
0
  6
CONTINUOUS
 10
140.8804173388023
 20
51.28343308484372
 30
0.0
  0
VERTEX
  5
665
  8
0
  6
CONTINUOUS
 10
140.8846387722212
 20
51.26800750450803
 30
0.0
  0
VERTEX
  5
666
  8
0
  6
CONTINUOUS
 10
140.8890481461691
 20
51.2518446190204
 30
0.0
  0
VERTEX
  5
667
  8
0
  6
CONTINUOUS
 10
140.8932768080699
 20
51.23476371633377
 30
0.0
  0
VERTEX
  5
668
  8
0
  6
CONTINUOUS
 10
140.8973175294418
 20
51.21694550849521
 30
0.0
  0
VERTEX
  5
669
  8
0
  6
CONTINUOUS
 10
140.9011703102848
 20
51.19857793603364
 30
0.0
  0
VERTEX
  5
66A
  8
0
  6
CONTINUOUS
 10
140.9048423790807
 20
51.17984171099609
 30
0.0
  0
VERTEX
  5
66B
  8
0
  6
CONTINUOUS
 10
140.9079650832537
 20
51.16073683338258
 30
0.0
  0
VERTEX
  5
66C
  8
0
  6
CONTINUOUS
 10
140.9107263633325
 20
51.14163918425095
 30
0.0
  0
VERTEX
  5
66D
  8
0
  6
CONTINUOUS
 10
140.9129238218246
 20
51.12235359459039
 30
0.0
  0
VERTEX
  5
66E
  8
0
  6
CONTINUOUS
 10
140.9143984321285
 20
51.10342942902392
 30
0.0
  0
VERTEX
  5
66F
  8
0
  6
CONTINUOUS
 10
140.9153164493274
 20
51.08451249193933
 30
0.0
  0
VERTEX
  5
670
  8
0
  6
CONTINUOUS
 10
140.9153164493274
 20
51.06633286000668
 30
0.0
  0
VERTEX
  5
671
  8
0
  6
CONTINUOUS
 10
140.9145791441755
 20
51.04851465216812
 30
0.0
  0
VERTEX
  5
672
  8
0
  6
CONTINUOUS
 10
140.9129238218246
 20
51.03143374948151
 30
0.0
  0
VERTEX
  5
673
  8
0
  6
CONTINUOUS
 10
140.9101697702276
 20
51.01508292346494
 30
0.0
  0
VERTEX
  5
674
  8
0
  6
CONTINUOUS
 10
140.9076036591596
 20
51.00424742912417
 30
0.0
  0
VERTEX
  5
675
  8
0
  6
CONTINUOUS
 10
140.9052110316567
 20
50.99378058735937
 30
0.0
  0
VERTEX
  5
676
  8
0
  6
CONTINUOUS
 10
140.9026376921068
 20
50.98367516968866
 30
0.0
  0
VERTEX
  5
677
  8
0
  6
CONTINUOUS
 10
140.9002522930858
 20
50.97412634512284
 30
0.0
  0
VERTEX
  5
678
  8
0
  6
CONTINUOUS
 10
140.8976789535359
 20
50.96493894465112
 30
0.0
  0
VERTEX
  5
679
  8
0
  6
CONTINUOUS
 10
140.894924901939
 20
50.95612742523724
 30
0.0
  0
VERTEX
  5
67A
  8
0
  6
CONTINUOUS
 10
140.8923587908709
 20
50.94767732991745
 30
0.0
  0
VERTEX
  5
67B
  8
0
  6
CONTINUOUS
 10
140.8895975107921
 20
50.93959588717363
 30
0.0
  0
VERTEX
  5
67C
  8
0
  6
CONTINUOUS
 10
140.8866627471481
 20
50.93169515647686
 30
0.0
  0
VERTEX
  5
67D
  8
0
  6
CONTINUOUS
 10
140.8837207550222
 20
50.92435101888498
 30
0.0
  0
VERTEX
  5
67E
  8
0
  6
CONTINUOUS
 10
140.8805980508493
 20
50.91718759334015
 30
0.0
  0
VERTEX
  5
67F
  8
0
  6
CONTINUOUS
 10
140.8774753466764
 20
50.91020487984236
 30
0.0
  0
VERTEX
  5
680
  8
0
  6
CONTINUOUS
 10
140.8739912184094
 20
50.90359081892054
 30
0.0
  0
VERTEX
  5
681
  8
0
  6
CONTINUOUS
 10
140.8704998616605
 20
50.89734541057469
 30
0.0
  0
VERTEX
  5
682
  8
0
  6
CONTINUOUS
 10
140.8666398523356
 20
50.89110000222885
 30
0.0
  0
VERTEX
  5
683
  8
0
  6
CONTINUOUS
 10
140.8627870714926
 20
50.88522324645897
 30
0.0
  0
VERTEX
  5
684
  8
0
  6
CONTINUOUS
 10
140.8585584095918
 20
50.87953443121802
 30
0.0
  0
VERTEX
  5
685
  8
0
  6
CONTINUOUS
 10
140.8541490356439
 20
50.87401909954223
 30
0.0
  0
VERTEX
  5
686
  8
0
  6
CONTINUOUS
 10
140.849558949649
 20
50.86869170839537
 30
0.0
  0
VERTEX
  5
687
  8
0
  6
CONTINUOUS
 10
140.8447809231251
 20
50.86355225777743
 30
0.0
  0
VERTEX
  5
688
  8
0
  6
CONTINUOUS
 10
140.8394535319783
 20
50.85859351920654
 30
0.0
  0
VERTEX
  5
689
  8
0
  6
CONTINUOUS
 10
140.8341333693133
 20
50.85363478063564
 30
0.0
  0
VERTEX
  5
68A
  8
0
  6
CONTINUOUS
 10
140.8282493850615
 20
50.84885675411179
 30
0.0
  0
VERTEX
  5
68B
  8
0
  6
CONTINUOUS
 10
140.8221919172446
 20
50.84407872758794
 30
0.0
  0
VERTEX
  5
68C
  8
0
  6
CONTINUOUS
 10
140.8159465088987
 20
50.83948864159302
 30
0.0
  0
VERTEX
  5
68D
  8
0
  6
CONTINUOUS
 10
140.8091517359299
 20
50.83489855559809
 30
0.0
  0
VERTEX
  5
68E
  8
0
  6
CONTINUOUS
 10
140.8019883103851
 20
50.83030846960317
 30
0.0
  0
VERTEX
  5
68F
  8
0
  6
CONTINUOUS
 10
140.7946369443113
 20
50.82589909565529
 30
0.0
  0
VERTEX
  5
690
  8
0
  6
CONTINUOUS
 10
140.7867434420964
 20
50.82130900966038
 30
0.0
  0
VERTEX
  5
691
  8
0
  6
CONTINUOUS
 10
140.7784740588237
 20
50.8168996357125
 30
0.0
  0
VERTEX
  5
692
  8
0
  6
CONTINUOUS
 10
140.7698432514568
 20
50.81230954971757
 30
0.0
  0
VERTEX
  5
693
  8
0
  6
CONTINUOUS
 10
140.760663079467
 20
50.80771223524076
 30
0.0
  0
VERTEX
  5
694
  8
0
  6
CONTINUOUS
 10
140.7665398352369
 20
50.80642556546581
 30
0.0
  0
VERTEX
  5
695
  8
0
  6
CONTINUOUS
 10
140.7725973030538
 20
50.80458953106784
 30
0.0
  0
VERTEX
  5
696
  8
0
  6
CONTINUOUS
 10
140.7786619993526
 20
50.80220413204686
 30
0.0
  0
VERTEX
  5
697
  8
0
  6
CONTINUOUS
 10
140.7849074076985
 20
50.79963079249695
 30
0.0
  0
VERTEX
  5
698
  8
0
  6
CONTINUOUS
 10
140.7911528160443
 20
50.79650808832402
 30
0.0
  0
VERTEX
  5
699
  8
0
  6
CONTINUOUS
 10
140.7973982243902
 20
50.79320467210405
 30
0.0
  0
VERTEX
  5
69A
  8
0
  6
CONTINUOUS
 10
140.8036364042541
 20
50.78953260330812
 30
0.0
  0
VERTEX
  5
69B
  8
0
  6
CONTINUOUS
 10
140.8100697531289
 20
50.78567259398325
 30
0.0
  0
VERTEX
  5
69C
  8
0
  6
CONTINUOUS
 10
140.8164958735218
 20
50.78163187261134
 30
0.0
  0
VERTEX
  5
69D
  8
0
  6
CONTINUOUS
 10
140.8229292223965
 20
50.77722249866346
 30
0.0
  0
VERTEX
  5
69E
  8
0
  6
CONTINUOUS
 10
140.8293553427894
 20
50.77281312471558
 30
0.0
  0
VERTEX
  5
69F
  8
0
  6
CONTINUOUS
 10
140.8357814631823
 20
50.76804232667362
 30
0.0
  0
VERTEX
  5
6A0
  8
0
  6
CONTINUOUS
 10
140.8422148120571
 20
50.76326430014977
 30
0.0
  0
VERTEX
  5
6A1
  8
0
  6
CONTINUOUS
 10
140.84864093245
 20
50.75848627362592
 30
0.0
  0
VERTEX
  5
6A2
  8
0
  6
CONTINUOUS
 10
140.8550670528429
 20
50.75371547558395
 30
0.0
  0
VERTEX
  5
6A3
  8
0
  6
CONTINUOUS
 10
140.8615004017177
 20
50.74875673701306
 30
0.0
  0
VERTEX
  5
6A4
  8
0
  6
CONTINUOUS
 10
140.8679265221106
 20
50.74397871048921
 30
0.0
  0
VERTEX
  5
6A5
  8
0
  6
CONTINUOUS
 10
140.8743526425035
 20
50.73920068396536
 30
0.0
  0
VERTEX
  5
6A6
  8
0
  6
CONTINUOUS
 10
140.8807859913782
 20
50.73461059797044
 30
0.0
  0
VERTEX
  5
6A7
  8
0
  6
CONTINUOUS
 10
140.8870313997241
 20
50.73002051197552
 30
0.0
  0
VERTEX
  5
6A8
  8
0
  6
CONTINUOUS
 10
140.893457520117
 20
50.72561113802764
 30
0.0
  0
VERTEX
  5
6A9
  8
0
  6
CONTINUOUS
 10
140.8997029284628
 20
50.72138970460868
 30
0.0
  0
VERTEX
  5
6AA
  8
0
  6
CONTINUOUS
 10
140.9057603962797
 20
50.71734898323677
 30
0.0
  0
VERTEX
  5
6AB
  8
0
  6
CONTINUOUS
 10
140.9120058046256
 20
50.71348897391191
 30
0.0
  0
VERTEX
  5
6AC
  8
0
  6
CONTINUOUS
 10
140.9180705009244
 20
50.71018555769194
 30
0.0
  0
VERTEX
  5
6AD
  8
0
  6
CONTINUOUS
 10
140.9239472566943
 20
50.7068749129901
 30
0.0
  0
VERTEX
  5
6AE
  8
0
  6
CONTINUOUS
 10
140.9298240124641
 20
50.70412086139314
 30
0.0
  0
VERTEX
  5
6AF
  8
0
  6
CONTINUOUS
 10
140.935700768234
 20
50.70173546237216
 30
0.0
  0
VERTEX
  5
6B0
  8
0
  6
CONTINUOUS
 10
140.9413968119568
 20
50.69971148744526
 30
0.0
  0
VERTEX
  5
6B1
  8
0
  6
CONTINUOUS
 10
140.9470928556797
 20
50.69806339357622
 30
0.0
  0
VERTEX
  5
6B2
  8
0
  6
CONTINUOUS
 10
140.9526009588736
 20
50.6969574358483
 30
0.0
  0
VERTEX
  5
6B3
  8
0
  6
CONTINUOUS
 10
140.9579283500205
 20
50.69640807122529
 30
0.0
  0
VERTEX
  5
6B4
  8
0
  6
CONTINUOUS
 10
140.9625184360154
 20
50.7019161744192
 30
0.0
  0
VERTEX
  5
6B5
  8
0
  6
CONTINUOUS
 10
140.9667470979162
 20
50.70779293018908
 30
0.0
  0
VERTEX
  5
6B6
  8
0
  6
CONTINUOUS
 10
140.9707878192881
 20
50.71366968595895
 30
0.0
  0
VERTEX
  5
6B7
  8
0
  6
CONTINUOUS
 10
140.9744598880841
 20
50.7199150943048
 30
0.0
  0
VERTEX
  5
6B8
  8
0
  6
CONTINUOUS
 10
140.977951244833
 20
50.72634844317957
 30
0.0
  0
VERTEX
  5
6B9
  8
0
  6
CONTINUOUS
 10
140.9812546610529
 20
50.73277456357247
 30
0.0
  0
VERTEX
  5
6BA
  8
0
  6
CONTINUOUS
 10
140.9845580772729
 20
50.73920068396536
 30
0.0
  0
VERTEX
  5
6BB
  8
0
  6
CONTINUOUS
 10
140.9876807814458
 20
50.74581474488718
 30
0.0
  0
VERTEX
  5
6BC
  8
0
  6
CONTINUOUS
 10
140.9908034856187
 20
50.75224086528007
 30
0.0
  0
VERTEX
  5
6BD
  8
0
  6
CONTINUOUS
 10
140.9939261897917
 20
50.75848627362592
 30
0.0
  0
VERTEX
  5
6BE
  8
0
  6
CONTINUOUS
 10
140.9970488939646
 20
50.76473168197177
 30
0.0
  0
VERTEX
  5
6BF
  8
0
  6
CONTINUOUS
 10
141.0003595386664
 20
50.77079637827057
 30
0.0
  0
VERTEX
  5
6C0
  8
0
  6
CONTINUOUS
 10
141.0036629548864
 20
50.77667313404045
 30
0.0
  0
VERTEX
  5
6C1
  8
0
  6
CONTINUOUS
 10
141.0073350236823
 20
50.78236917776329
 30
0.0
  0
VERTEX
  5
6C2
  8
0
  6
CONTINUOUS
 10
141.0110070924783
 20
50.78750862838123
 30
0.0
  0
VERTEX
  5
6C3
  8
0
  6
CONTINUOUS
 10
141.0150478138502
 20
50.79246736695212
 30
0.0
  0
VERTEX
  5
6C4
  8
0
  6
CONTINUOUS
 10
141.019645128327
 20
50.78677855171117
 30
0.0
  0
VERTEX
  5
6C5
  8
0
  6
CONTINUOUS
 10
141.023866561746
 20
50.78053314336532
 30
0.0
  0
VERTEX
  5
6C6
  8
0
  6
CONTINUOUS
 10
141.0279072831179
 20
50.77409979449054
 30
0.0
  0
VERTEX
  5
6C7
  8
0
  6
CONTINUOUS
 10
141.0315721234319
 20
50.76712430947463
 30
0.0
  0
VERTEX
  5
6C8
  8
0
  6
CONTINUOUS
 10
141.0352441922279
 20
50.75977294340088
 30
0.0
  0
VERTEX
  5
6C9
  8
0
  6
CONTINUOUS
 10
141.0385548369297
 20
50.752428805809
 30
0.0
  0
VERTEX
  5
6CA
  8
0
  6
CONTINUOUS
 10
141.0420461936786
 20
50.74489672768819
 30
0.0
  0
VERTEX
  5
6CB
  8
0
  6
CONTINUOUS
 10
141.0453496098986
 20
50.73718393752035
 30
0.0
  0
VERTEX
  5
6CC
  8
0
  6
CONTINUOUS
 10
141.0486530261185
 20
50.72965185939955
 30
0.0
  0
VERTEX
  5
6CD
  8
0
  6
CONTINUOUS
 10
141.0519636708204
 20
50.72193906923169
 30
0.0
  0
VERTEX
  5
6CE
  8
0
  6
CONTINUOUS
 10
141.0554550275693
 20
50.71458770315794
 30
0.0
  0
VERTEX
  5
6CF
  8
0
  6
CONTINUOUS
 10
141.0589391558363
 20
50.70742427761311
 30
0.0
  0
VERTEX
  5
6D0
  8
0
  6
CONTINUOUS
 10
141.0627991651612
 20
50.7004487925972
 30
0.0
  0
VERTEX
  5
6D1
  8
0
  6
CONTINUOUS
 10
141.0668398865331
 20
50.69383473167538
 30
0.0
  0
VERTEX
  5
6D2
  8
0
  6
CONTINUOUS
 10
141.071061319952
 20
50.68777726385846
 30
0.0
  0
VERTEX
  5
6D3
  8
0
  6
CONTINUOUS
 10
141.0756586344288
 20
50.68208122013563
 30
0.0
  0
VERTEX
  5
6D4
  8
0
  6
CONTINUOUS
 10
141.0802487204238
 20
50.68428590710957
 30
0.0
  0
VERTEX
  5
6D5
  8
0
  6
CONTINUOUS
 10
141.0846580943716
 20
50.68649059408351
 30
0.0
  0
VERTEX
  5
6D6
  8
0
  6
CONTINUOUS
 10
141.0890674683195
 20
50.68869528105744
 30
0.0
  0
VERTEX
  5
6D7
  8
0
  6
CONTINUOUS
 10
141.0934696137855
 20
50.69108068007843
 30
0.0
  0
VERTEX
  5
6D8
  8
0
  6
CONTINUOUS
 10
141.0976982756863
 20
50.69328536705237
 30
0.0
  0
VERTEX
  5
6D9
  8
0
  6
CONTINUOUS
 10
141.1019197091053
 20
50.69567076607335
 30
0.0
  0
VERTEX
  5
6DA
  8
0
  6
CONTINUOUS
 10
141.1061483710061
 20
50.69824410562326
 30
0.0
  0
VERTEX
  5
6DB
  8
0
  6
CONTINUOUS
 10
141.1100011518491
 20
50.70062950464425
 30
0.0
  0
VERTEX
  5
6DC
  8
0
  6
CONTINUOUS
 10
141.113861161174
 20
50.70320284419415
 30
0.0
  0
VERTEX
  5
6DD
  8
0
  6
CONTINUOUS
 10
141.1175332299699
 20
50.70577618374406
 30
0.0
  0
VERTEX
  5
6DE
  8
0
  6
CONTINUOUS
 10
141.1212052987659
 20
50.70834229481209
 30
0.0
  0
VERTEX
  5
6DF
  8
0
  6
CONTINUOUS
 10
141.1245159434677
 20
50.710915634362
 30
0.0
  0
VERTEX
  5
6E0
  8
0
  6
CONTINUOUS
 10
141.1276386476406
 20
50.71348897391191
 30
0.0
  0
VERTEX
  5
6E1
  8
0
  6
CONTINUOUS
 10
141.1305734112846
 20
50.71624302550887
 30
0.0
  0
VERTEX
  5
6E2
  8
0
  6
CONTINUOUS
 10
141.1333274628816
 20
50.71881636505877
 30
0.0
  0
VERTEX
  5
6E3
  8
0
  6
CONTINUOUS
 10
141.1359008024315
 20
50.72157041665573
 30
0.0
  0
VERTEX
  5
6E4
  8
0
  6
CONTINUOUS
 10
141.1360887429604
 20
50.74306069329023
 30
0.0
  0
VERTEX
  5
6E5
  8
0
  6
CONTINUOUS
 10
141.1349827852325
 20
50.76455096992473
 30
0.0
  0
VERTEX
  5
6E6
  8
0
  6
CONTINUOUS
 10
141.1325973862115
 20
50.78586053451218
 30
0.0
  0
VERTEX
  5
6E7
  8
0
  6
CONTINUOUS
 10
141.1292867415097
 20
50.8069821585707
 30
0.0
  0
VERTEX
  5
6E8
  8
0
  6
CONTINUOUS
 10
141.1250653080907
 20
50.82791584210031
 30
0.0
  0
VERTEX
  5
6E9
  8
0
  6
CONTINUOUS
 10
141.1201065695198
 20
50.84867604206475
 30
0.0
  0
VERTEX
  5
6EA
  8
0
  6
CONTINUOUS
 10
141.114410525797
 20
50.86924830150026
 30
0.0
  0
VERTEX
  5
6EB
  8
0
  6
CONTINUOUS
 10
141.1085337700271
 20
50.88963262040685
 30
0.0
  0
VERTEX
  5
6EC
  8
0
  6
CONTINUOUS
 10
141.1022883616812
 20
50.91002416779532
 30
0.0
  0
VERTEX
  5
6ED
  8
0
  6
CONTINUOUS
 10
141.0958622412884
 20
50.93003983412594
 30
0.0
  0
VERTEX
  5
6EE
  8
0
  6
CONTINUOUS
 10
141.0894288924136
 20
50.95006272893843
 30
0.0
  0
VERTEX
  5
6EF
  8
0
  6
CONTINUOUS
 10
141.0831907125496
 20
50.96971697117496
 30
0.0
  0
VERTEX
  5
6F0
  8
0
  6
CONTINUOUS
 10
141.0773067282979
 20
50.98918327288257
 30
0.0
  0
VERTEX
  5
6F1
  8
0
  6
CONTINUOUS
 10
141.071979337151
 20
51.00865680307205
 30
0.0
  0
VERTEX
  5
6F2
  8
0
  6
CONTINUOUS
 10
141.067208539109
 20
51.02775445220368
 30
0.0
  0
VERTEX
  5
6F3
  8
0
  6
CONTINUOUS
 10
141.0631678177371
 20
51.04667861777016
 30
0.0
  0
VERTEX
  5
6F4
  8
0
  6
CONTINUOUS
 10
141.0593078084123
 20
51.06798095387573
 30
0.0
  0
VERTEX
  5
6F5
  8
0
  6
CONTINUOUS
 10
141.0552670870404
 20
51.09149520543712
 30
0.0
  0
VERTEX
  5
6F6
  8
0
  6
CONTINUOUS
 10
141.0514143061974
 20
51.11647683882051
 30
0.0
  0
VERTEX
  5
6F7
  8
0
  6
CONTINUOUS
 10
141.0481036614955
 20
51.14255720144993
 30
0.0
  0
VERTEX
  5
6F8
  8
0
  6
CONTINUOUS
 10
141.0458989745216
 20
51.16955558127834
 30
0.0
  0
VERTEX
  5
6F9
  8
0
  6
CONTINUOUS
 10
141.0451688978515
 20
51.19692261368272
 30
0.0
  0
VERTEX
  5
6FA
  8
0
  6
CONTINUOUS
 10
141.0464555676265
 20
51.22428964608709
 30
0.0
  0
VERTEX
  5
6FB
  8
0
  6
CONTINUOUS
 10
141.0499396958935
 20
51.2512880259155
 30
0.0
  0
VERTEX
  5
6FC
  8
0
  6
CONTINUOUS
 10
141.0251532315209
 20
51.29592390153542
 30
0.0
  0
VERTEX
  5
6FD
  8
0
  6
CONTINUOUS
 10
141.0246038668979
 20
51.29170246811647
 30
0.0
  0
VERTEX
  5
6FE
  8
0
  6
CONTINUOUS
 10
141.02349790917
 20
51.28747380621563
 30
0.0
  0
VERTEX
  5
6FF
  8
0
  6
CONTINUOUS
 10
141.0218498153009
 20
51.28306443226775
 30
0.0
  0
VERTEX
  5
700
  8
0
  6
CONTINUOUS
 10
141.019825840374
 20
51.2788429988488
 30
0.0
  0
VERTEX
  5
701
  8
0
  6
CONTINUOUS
 10
141.0170717887771
 20
51.27462156542985
 30
0.0
  0
VERTEX
  5
702
  8
0
  6
CONTINUOUS
 10
141.0141297966512
 20
51.27039290352901
 30
0.0
  0
VERTEX
  5
703
  8
0
  6
CONTINUOUS
 10
141.0108263804312
 20
51.26635218215711
 30
0.0
  0
VERTEX
  5
704
  8
0
  6
CONTINUOUS
 10
141.0071543116353
 20
51.26231146078519
 30
0.0
  0
VERTEX
  5
705
  8
0
  6
CONTINUOUS
 10
141.0032943023104
 20
51.25845145146033
 30
0.0
  0
VERTEX
  5
706
  8
0
  6
CONTINUOUS
 10
140.9994415214674
 20
51.2547793826644
 30
0.0
  0
VERTEX
  5
707
  8
0
  6
CONTINUOUS
 10
140.9952128595666
 20
51.2512880259155
 30
0.0
  0
VERTEX
  5
708
  8
0
  6
CONTINUOUS
 10
140.9911721381947
 20
51.24816532174258
 30
0.0
  0
VERTEX
  5
709
  8
0
  6
CONTINUOUS
 10
140.9871314168228
 20
51.24523055809858
 30
0.0
  0
VERTEX
  5
70A
  8
0
  6
CONTINUOUS
 10
140.9830906954509
 20
51.24247650650162
 30
0.0
  0
VERTEX
  5
70B
  8
0
  6
CONTINUOUS
 10
140.979230686126
 20
51.24008387899875
 30
0.0
  0
VERTEX
  5
70C
  8
0
  6
CONTINUOUS
 10
140.9755586173301
 20
51.23806713255374
 30
0.0
  0
VERTEX
  5
70D
  8
0
  6
CONTINUOUS
 10
140.9698698020891
 20
51.23972245490467
 30
0.0
  0
VERTEX
  5
70E
  8
0
  6
CONTINUOUS
 10
140.9636243937433
 20
51.24137054877371
 30
0.0
  0
VERTEX
  5
70F
  8
0
  6
CONTINUOUS
 10
140.9571910448685
 20
51.24320658317168
 30
0.0
  0
VERTEX
  5
710
  8
0
  6
CONTINUOUS
 10
140.9503962718996
 20
51.24523055809858
 30
0.0
  0
VERTEX
  5
711
  8
0
  6
CONTINUOUS
 10
140.9434135584019
 20
51.24761595711956
 30
0.0
  0
VERTEX
  5
712
  8
0
  6
CONTINUOUS
 10
140.9362573613389
 20
51.25000858462243
 30
0.0
  0
VERTEX
  5
713
  8
0
  6
CONTINUOUS
 10
140.9290939357941
 20
51.25294334826642
 30
0.0
  0
VERTEX
  5
714
  8
0
  6
CONTINUOUS
 10
140.9221112222963
 20
51.25606605243934
 30
0.0
  0
VERTEX
  5
715
  8
0
  6
CONTINUOUS
 10
140.9149477967514
 20
51.25955740918824
 30
0.0
  0
VERTEX
  5
716
  8
0
  6
CONTINUOUS
 10
140.9083337358296
 20
51.26341741851311
 30
0.0
  0
VERTEX
  5
717
  8
0
  6
CONTINUOUS
 10
140.9017196749078
 20
51.2678195639791
 30
0.0
  0
VERTEX
  5
718
  8
0
  6
CONTINUOUS
 10
140.8956622070909
 20
51.27277830254999
 30
0.0
  0
VERTEX
  5
719
  8
0
  6
CONTINUOUS
 10
140.8899661633681
 20
51.27810569369686
 30
0.0
  0
VERTEX
  5
71A
  8
0
  6
CONTINUOUS
 10
140.8846387722212
 20
51.28398244946673
 30
0.0
  0
VERTEX
  5
71B
  8
0
  6
CONTINUOUS
 10
140.8800486862263
 20
51.29041579834151
 30
0.0
  0
VERTEX
  5
71C
  8
0
  6
CONTINUOUS
 10
140.8761886769014
 20
51.29757922388634
 30
0.0
  0
SEQEND
  5
843
  8
0
  6
CONTINUOUS
  0
POLYLINE
  5
297
  8
0
  6
CONTINUOUS
 66
     1
 10
0.0
 20
0.0
 30
0.0
  0
VERTEX
  5
71D
  8
0
  6
CONTINUOUS
 10
141.3105770671044
 20
50.66224626585205
 30
0.0
  0
VERTEX
  5
71E
  8
0
  6
CONTINUOUS
 10
141.3103963550574
 20
50.67216374299384
 30
0.0
  0
VERTEX
  5
71F
  8
0
  6
CONTINUOUS
 10
141.3087410327065
 20
50.70173546237216
 30
0.0
  0
VERTEX
  5
720
  8
0
  6
CONTINUOUS
 10
141.3061676931565
 20
50.7309385291745
 30
0.0
  0
VERTEX
  5
721
  8
0
  6
CONTINUOUS
 10
141.3028642769366
 20
50.75977294340088
 30
0.0
  0
VERTEX
  5
722
  8
0
  6
CONTINUOUS
 10
141.2990042676117
 20
50.78805799300424
 30
0.0
  0
VERTEX
  5
723
  8
0
  6
CONTINUOUS
 10
141.2947828341927
 20
50.81579367798458
 30
0.0
  0
VERTEX
  5
724
  8
0
  6
CONTINUOUS
 10
141.2901927481978
 20
50.84261134576595
 30
0.0
  0
VERTEX
  5
725
  8
0
  6
CONTINUOUS
 10
141.285414721674
 20
50.86869170839537
 30
0.0
  0
VERTEX
  5
726
  8
0
  6
CONTINUOUS
 10
141.2782512961292
 20
50.89386128230768
 30
0.0
  0
VERTEX
  5
727
  8
0
  6
CONTINUOUS
 10
141.2749478799092
 20
50.91350829606233
 30
0.0
  0
VERTEX
  5
728
  8
0
  6
CONTINUOUS
 10
141.2743912868043
 20
50.93059642723083
 30
0.0
  0
VERTEX
  5
729
  8
0
  6
CONTINUOUS
 10
141.2758658971082
 20
50.94730867734148
 30
0.0
  0
VERTEX
  5
72A
  8
0
  6
CONTINUOUS
 10
141.2780705840821
 20
50.96622561442607
 30
0.0
  0
VERTEX
  5
72B
  8
0
  6
CONTINUOUS
 10
141.2800873305271
 20
50.99010129008155
 30
0.0
  0
VERTEX
  5
72C
  8
0
  6
CONTINUOUS
 10
141.2806366951501
 20
51.02132833181079
 30
0.0
  0
VERTEX
  5
72D
  8
0
  6
CONTINUOUS
 10
141.2789886012811
 20
51.06247285068182
 30
0.0
  0
VERTEX
  5
72E
  8
0
  6
CONTINUOUS
 10
141.2780705840821
 20
51.06871825902767
 30
0.0
  0
VERTEX
  5
72F
  8
0
  6
CONTINUOUS
 10
141.2773332789302
 20
51.07661898972444
 30
0.0
  0
VERTEX
  5
730
  8
0
  6
CONTINUOUS
 10
141.2769646263542
 20
51.08579916171428
 30
0.0
  0
VERTEX
  5
731
  8
0
  6
CONTINUOUS
 10
141.2765959737782
 20
51.095904579385
 30
0.0
  0
VERTEX
  5
732
  8
0
  6
CONTINUOUS
 10
141.2762273212023
 20
51.10674007372577
 30
0.0
  0
VERTEX
  5
733
  8
0
  6
CONTINUOUS
 10
141.2756779565792
 20
51.11794422064251
 30
0.0
  0
VERTEX
  5
734
  8
0
  6
CONTINUOUS
 10
141.2749478799092
 20
51.1293290796063
 30
0.0
  0
VERTEX
  5
735
  8
0
  6
CONTINUOUS
 10
141.2738419221813
 20
51.14053322652304
 30
0.0
  0
VERTEX
  5
736
  8
0
  6
CONTINUOUS
 10
141.2723745403593
 20
51.15136872086381
 30
0.0
  0
VERTEX
  5
737
  8
0
  6
CONTINUOUS
 10
141.2701698533853
 20
51.16165485058156
 30
0.0
  0
VERTEX
  5
738
  8
0
  6
CONTINUOUS
 10
141.2674158017884
 20
51.17065431052437
 30
0.0
  0
VERTEX
  5
739
  8
0
  6
CONTINUOUS
 10
141.2639244450395
 20
51.17855504122114
 30
0.0
  0
VERTEX
  5
73A
  8
0
  6
CONTINUOUS
 10
141.2595150710916
 20
51.18480044956699
 30
0.0
  0
VERTEX
  5
73B
  8
0
  6
CONTINUOUS
 10
141.2540069678977
 20
51.18939053556191
 30
0.0
  0
VERTEX
  5
73C
  8
0
  6
CONTINUOUS
 10
141.2473929069759
 20
51.19159522253585
 30
0.0
  0
VERTEX
  5
73D
  8
0
  6
CONTINUOUS
 10
141.239680116808
 20
51.19159522253585
 30
0.0
  0
VERTEX
  5
73E
  8
0
  6
CONTINUOUS
 10
141.2341720136141
 20
51.19416856208576
 30
0.0
  0
VERTEX
  5
73F
  8
0
  6
CONTINUOUS
 10
141.2286566819383
 20
51.19655396110674
 30
0.0
  0
VERTEX
  5
740
  8
0
  6
CONTINUOUS
 10
141.2229678666974
 20
51.19912730065666
 30
0.0
  0
VERTEX
  5
741
  8
0
  6
CONTINUOUS
 10
141.2174525350216
 20
51.20170064020657
 30
0.0
  0
VERTEX
  5
742
  8
0
  6
CONTINUOUS
 10
141.2117637197806
 20
51.20408603922755
 30
0.0
  0
VERTEX
  5
743
  8
0
  6
CONTINUOUS
 10
141.2058797355289
 20
51.20647143824853
 30
0.0
  0
VERTEX
  5
744
  8
0
  6
CONTINUOUS
 10
141.2001909202879
 20
51.20904477779844
 30
0.0
  0
VERTEX
  5
745
  8
0
  6
CONTINUOUS
 10
141.1944948765651
 20
51.21143017681943
 30
0.0
  0
VERTEX
  5
746
  8
0
  6
CONTINUOUS
 10
141.1886181207952
 20
51.21382280432229
 30
0.0
  0
VERTEX
  5
747
  8
0
  6
CONTINUOUS
 10
141.1827413650254
 20
51.21620820334327
 30
0.0
  0
VERTEX
  5
748
  8
0
  6
CONTINUOUS
 10
141.1768646092555
 20
51.21841289031721
 30
0.0
  0
VERTEX
  5
749
  8
0
  6
CONTINUOUS
 10
141.1709806250037
 20
51.2207982893382
 30
0.0
  0
VERTEX
  5
74A
  8
0
  6
CONTINUOUS
 10
141.1649231571868
 20
51.22300297631214
 30
0.0
  0
VERTEX
  5
74B
  8
0
  6
CONTINUOUS
 10
141.1590464014169
 20
51.22520766328608
 30
0.0
  0
VERTEX
  5
74C
  8
0
  6
CONTINUOUS
 10
141.1529817051181
 20
51.22723163821297
 30
0.0
  0
VERTEX
  5
74D
  8
0
  6
CONTINUOUS
 10
141.1471049493482
 20
51.22924838465799
 30
0.0
  0
VERTEX
  5
74E
  8
0
  6
CONTINUOUS
 10
141.1410474815313
 20
51.23127235958488
 30
0.0
  0
VERTEX
  5
74F
  8
0
  6
CONTINUOUS
 10
141.1349827852325
 20
51.23328910602989
 30
0.0
  0
VERTEX
  5
750
  8
0
  6
CONTINUOUS
 10
141.1291060294626
 20
51.23512514042786
 30
0.0
  0
VERTEX
  5
751
  8
0
  6
CONTINUOUS
 10
141.1230413331638
 20
51.23696117482583
 30
0.0
  0
VERTEX
  5
752
  8
0
  6
CONTINUOUS
 10
141.1169838653469
 20
51.23861649717676
 30
0.0
  0
VERTEX
  5
753
  8
0
  6
CONTINUOUS
 10
141.1109191690481
 20
51.24027181952768
 30
0.0
  0
VERTEX
  5
754
  8
0
  6
CONTINUOUS
 10
141.1050424132782
 20
51.24192714187861
 30
0.0
  0
VERTEX
  5
755
  8
0
  6
CONTINUOUS
 10
141.0989849454613
 20
51.24339452370061
 30
0.0
  0
VERTEX
  5
756
  8
0
  6
CONTINUOUS
 10
141.0929202491625
 20
51.24468119347556
 30
0.0
  0
VERTEX
  5
757
  8
0
  6
CONTINUOUS
 10
141.0870434933926
 20
51.24596786325051
 30
0.0
  0
VERTEX
  5
758
  8
0
  6
CONTINUOUS
 10
141.0809860255757
 20
51.24724730454359
 30
0.0
  0
VERTEX
  5
759
  8
0
  6
CONTINUOUS
 10
141.0751020413239
 20
51.2483532622715
 30
0.0
  0
VERTEX
  5
75A
  8
0
  6
CONTINUOUS
 10
141.069044573507
 20
51.24927127947048
 30
0.0
  0
VERTEX
  5
75B
  8
0
  6
CONTINUOUS
 10
141.0631678177371
 20
51.25018929666947
 30
0.0
  0
VERTEX
  5
75C
  8
0
  6
CONTINUOUS
 10
141.0572910619672
 20
51.25092660182141
 30
0.0
  0
VERTEX
  5
75D
  8
0
  6
CONTINUOUS
 10
141.0514143061974
 20
51.25147596644442
 30
0.0
  0
VERTEX
  5
75E
  8
0
  6
CONTINUOUS
 10
141.0266206133429
 20
51.29445651971342
 30
0.0
  0
VERTEX
  5
75F
  8
0
  6
CONTINUOUS
 10
141.0277265710708
 20
51.30161994525825
 30
0.0
  0
VERTEX
  5
760
  8
0
  6
CONTINUOUS
 10
141.0290060123639
 20
51.30896408285013
 30
0.0
  0
VERTEX
  5
761
  8
0
  6
CONTINUOUS
 10
141.0301047416099
 20
51.31649616097094
 30
0.0
  0
VERTEX
  5
762
  8
0
  6
CONTINUOUS
 10
141.0313914113849
 20
51.32402823909174
 30
0.0
  0
VERTEX
  5
763
  8
0
  6
CONTINUOUS
 10
141.0324901406309
 20
51.33137237668361
 30
0.0
  0
VERTEX
  5
764
  8
0
  6
CONTINUOUS
 10
141.0335960983588
 20
51.3383550901814
 30
0.0
  0
VERTEX
  5
765
  8
0
  6
CONTINUOUS
 10
141.0345141155578
 20
51.34496915110322
 30
0.0
  0
VERTEX
  5
766
  8
0
  6
CONTINUOUS
 10
141.0354321327568
 20
51.35102661892014
 30
0.0
  0
VERTEX
  5
767
  8
0
  6
CONTINUOUS
 10
141.0378175317778
 20
51.35120733096718
 30
0.0
  0
VERTEX
  5
768
  8
0
  6
CONTINUOUS
 10
141.0403908713277
 20
51.35139527149611
 30
0.0
  0
VERTEX
  5
769
  8
0
  6
CONTINUOUS
 10
141.0429642108776
 20
51.35194463611913
 30
0.0
  0
VERTEX
  5
76A
  8
0
  6
CONTINUOUS
 10
141.0455303219456
 20
51.35286265331811
 30
0.0
  0
VERTEX
  5
76B
  8
0
  6
CONTINUOUS
 10
141.0481036614955
 20
51.35414932309307
 30
0.0
  0
VERTEX
  5
76C
  8
0
  6
CONTINUOUS
 10
141.0504962889984
 20
51.35580464544399
 30
0.0
  0
VERTEX
  5
76D
  8
0
  6
CONTINUOUS
 10
141.0528816880194
 20
51.357821391889
 30
0.0
  0
VERTEX
  5
76E
  8
0
  6
CONTINUOUS
 10
141.0550863749933
 20
51.36021401939187
 30
0.0
  0
VERTEX
  5
76F
  8
0
  6
CONTINUOUS
 10
141.0571031214383
 20
51.36333672356479
 30
0.0
  0
VERTEX
  5
770
  8
0
  6
CONTINUOUS
 10
141.0589391558363
 20
51.3668208518318
 30
0.0
  0
VERTEX
  5
771
  8
0
  6
CONTINUOUS
 10
141.0605944781872
 20
51.37086157320371
 30
0.0
  0
VERTEX
  5
772
  8
0
  6
CONTINUOUS
 10
141.0618811479622
 20
51.37563959972756
 30
0.0
  0
VERTEX
  5
773
  8
0
  6
CONTINUOUS
 10
141.0629798772082
 20
51.38114770292147
 30
0.0
  0
VERTEX
  5
774
  8
0
  6
CONTINUOUS
 10
141.0637171823601
 20
51.38721239922027
 30
0.0
  0
VERTEX
  5
775
  8
0
  6
CONTINUOUS
 10
141.0638978944072
 20
51.39400717218913
 30
0.0
  0
VERTEX
  5
776
  8
0
  6
CONTINUOUS
 10
141.0638978944072
 20
51.40171996235699
 30
0.0
  0
VERTEX
  5
777
  8
0
  6
CONTINUOUS
 10
141.0635364703131
 20
51.40667870092788
 30
0.0
  0
VERTEX
  5
778
  8
0
  6
CONTINUOUS
 10
141.0624305125852
 20
51.41274339722668
 30
0.0
  0
VERTEX
  5
779
  8
0
  6
CONTINUOUS
 10
141.0605944781872
 20
51.41971888224259
 30
0.0
  0
VERTEX
  5
77A
  8
0
  6
CONTINUOUS
 10
141.0582090791662
 20
51.42743890089232
 30
0.0
  0
VERTEX
  5
77B
  8
0
  6
CONTINUOUS
 10
141.0552670870404
 20
51.43552034363614
 30
0.0
  0
VERTEX
  5
77C
  8
0
  6
CONTINUOUS
 10
141.0519636708204
 20
51.443782498427
 30
0.0
  0
VERTEX
  5
77D
  8
0
  6
CONTINUOUS
 10
141.0484723140715
 20
51.45205188169974
 30
0.0
  0
VERTEX
  5
77E
  8
0
  6
CONTINUOUS
 10
141.0446123047466
 20
51.46013332444356
 30
0.0
  0
VERTEX
  5
77F
  8
0
  6
CONTINUOUS
 10
141.0405715833747
 20
51.4678461146114
 30
0.0
  0
VERTEX
  5
780
  8
0
  6
CONTINUOUS
 10
141.0367188025317
 20
51.47464088758026
 30
0.0
  0
VERTEX
  5
781
  8
0
  6
CONTINUOUS
 10
141.0326780811598
 20
51.48051764335015
 30
0.0
  0
VERTEX
  5
782
  8
0
  6
CONTINUOUS
 10
141.0290060123639
 20
51.48529566987399
 30
0.0
  0
VERTEX
  5
783
  8
0
  6
CONTINUOUS
 10
141.0253339435679
 20
51.48859908609396
 30
0.0
  0
VERTEX
  5
784
  8
0
  6
CONTINUOUS
 10
141.022211239395
 20
51.49025440844489
 30
0.0
  0
VERTEX
  5
785
  8
0
  6
CONTINUOUS
 10
141.019276475751
 20
51.49006646791596
 30
0.0
  0
VERTEX
  5
786
  8
0
  6
CONTINUOUS
 10
141.0168838482482
 20
51.48768106889498
 30
0.0
  0
VERTEX
  5
787
  8
0
  6
CONTINUOUS
 10
141.0121130502062
 20
51.49466378239276
 30
0.0
  0
VERTEX
  5
788
  8
0
  6
CONTINUOUS
 10
141.0067856590593
 20
51.50054053816265
 30
0.0
  0
VERTEX
  5
789
  8
0
  6
CONTINUOUS
 10
141.0010896153365
 20
51.50567998878059
 30
0.0
  0
VERTEX
  5
78A
  8
0
  6
CONTINUOUS
 10
140.9950321475196
 20
51.50972071015249
 30
0.0
  0
VERTEX
  5
78B
  8
0
  6
CONTINUOUS
 10
140.9884180865978
 20
51.51303135485434
 30
0.0
  0
VERTEX
  5
78C
  8
0
  6
CONTINUOUS
 10
140.9816233136289
 20
51.51541675387532
 30
0.0
  0
VERTEX
  5
78D
  8
0
  6
CONTINUOUS
 10
140.9746406001311
 20
51.51707207622625
 30
0.0
  0
VERTEX
  5
78E
  8
0
  6
CONTINUOUS
 10
140.9672964625392
 20
51.51780215289631
 30
0.0
  0
VERTEX
  5
78F
  8
0
  6
CONTINUOUS
 10
140.9595836723714
 20
51.51780215289631
 30
0.0
  0
VERTEX
  5
790
  8
0
  6
CONTINUOUS
 10
140.9518636537217
 20
51.51688413569732
 30
0.0
  0
VERTEX
  5
791
  8
0
  6
CONTINUOUS
 10
140.9437822109778
 20
51.51541675387532
 30
0.0
  0
VERTEX
  5
792
  8
0
  6
CONTINUOUS
 10
140.935700768234
 20
51.51321206690138
 30
0.0
  0
VERTEX
  5
793
  8
0
  6
CONTINUOUS
 10
140.9272506729142
 20
51.51045801530443
 30
0.0
  0
VERTEX
  5
794
  8
0
  6
CONTINUOUS
 10
140.9189885181234
 20
51.50678594650849
 30
0.0
  0
VERTEX
  5
795
  8
0
  6
CONTINUOUS
 10
140.9103577107565
 20
51.50274522513659
 30
0.0
  0
VERTEX
  5
796
  8
0
  6
CONTINUOUS
 10
140.9019076154368
 20
51.49796719861273
 30
0.0
  0
VERTEX
  5
797
  8
0
  6
CONTINUOUS
 10
140.8956622070909
 20
51.49318917208888
 30
0.0
  0
VERTEX
  5
798
  8
0
  6
CONTINUOUS
 10
140.889785451321
 20
51.48841837404692
 30
0.0
  0
VERTEX
  5
799
  8
0
  6
CONTINUOUS
 10
140.8840894075982
 20
51.483828288052
 30
0.0
  0
VERTEX
  5
79A
  8
0
  6
CONTINUOUS
 10
140.8787620164513
 20
51.47905026152814
 30
0.0
  0
VERTEX
  5
79B
  8
0
  6
CONTINUOUS
 10
140.8738032778804
 20
51.47409152295725
 30
0.0
  0
VERTEX
  5
79C
  8
0
  6
CONTINUOUS
 10
140.8688445393095
 20
51.46876413181039
 30
0.0
  0
VERTEX
  5
79D
  8
0
  6
CONTINUOUS
 10
140.8642544533146
 20
51.46288737604051
 30
0.0
  0
VERTEX
  5
79E
  8
0
  6
CONTINUOUS
 10
140.8600257914138
 20
51.45664196769467
 30
0.0
  0
VERTEX
  5
79F
  8
0
  6
CONTINUOUS
 10
140.8558043579948
 20
51.44965925419687
 30
0.0
  0
VERTEX
  5
7A0
  8
0
  6
CONTINUOUS
 10
140.851575696094
 20
51.44194646402903
 30
0.0
  0
VERTEX
  5
7A1
  8
0
  6
CONTINUOUS
 10
140.847722915251
 20
51.4333156566622
 30
0.0
  0
VERTEX
  5
7A2
  8
0
  6
CONTINUOUS
 10
140.8438629059262
 20
51.4237596036145
 30
0.0
  0
VERTEX
  5
7A3
  8
0
  6
CONTINUOUS
 10
140.8401908371302
 20
51.41311204980265
 30
0.0
  0
VERTEX
  5
7A4
  8
0
  6
CONTINUOUS
 10
140.8366994803813
 20
51.40117059773397
 30
0.0
  0
VERTEX
  5
7A5
  8
0
  6
CONTINUOUS
 10
140.8330274115854
 20
51.38776176384329
 30
0.0
  0
VERTEX
  5
7A6
  8
0
  6
CONTINUOUS
 10
140.8295360548365
 20
51.37306626017765
 30
0.0
  0
VERTEX
  5
7A7
  8
0
  6
CONTINUOUS
 10
140.8319286823393
 20
51.36773886903079
 30
0.0
  0
VERTEX
  5
7A8
  8
0
  6
CONTINUOUS
 10
140.8346827339363
 20
51.36314878303587
 30
0.0
  0
VERTEX
  5
7A9
  8
0
  6
CONTINUOUS
 10
140.8374367855332
 20
51.35929600219288
 30
0.0
  0
VERTEX
  5
7AA
  8
0
  6
CONTINUOUS
 10
140.8407402017532
 20
51.35598535749104
 30
0.0
  0
VERTEX
  5
7AB
  8
0
  6
CONTINUOUS
 10
140.8440508464551
 20
51.35341201794112
 30
0.0
  0
VERTEX
  5
7AC
  8
0
  6
CONTINUOUS
 10
140.847722915251
 20
51.35139527149611
 30
0.0
  0
VERTEX
  5
7AD
  8
0
  6
CONTINUOUS
 10
140.851575696094
 20
51.34973994914519
 30
0.0
  0
VERTEX
  5
7AE
  8
0
  6
CONTINUOUS
 10
140.8556236459478
 20
51.34864121989916
 30
0.0
  0
VERTEX
  5
7AF
  8
0
  6
CONTINUOUS
 10
140.8552549933718
 20
51.34092842973131
 30
0.0
  0
VERTEX
  5
7B0
  8
0
  6
CONTINUOUS
 10
140.8558043579948
 20
51.33376500418647
 30
0.0
  0
VERTEX
  5
7B1
  8
0
  6
CONTINUOUS
 10
140.8569030872409
 20
51.32715094326466
 30
0.0
  0
VERTEX
  5
7B2
  8
0
  6
CONTINUOUS
 10
140.8585584095918
 20
51.32108624696586
 30
0.0
  0
VERTEX
  5
7B3
  8
0
  6
CONTINUOUS
 10
140.8603944439897
 20
51.31557814377195
 30
0.0
  0
VERTEX
  5
7B4
  8
0
  6
CONTINUOUS
 10
140.8624184189167
 20
51.3108001172481
 30
0.0
  0
VERTEX
  5
7B5
  8
0
  6
CONTINUOUS
 10
140.8640665127857
 20
51.30657868382914
 30
0.0
  0
VERTEX
  5
7B6
  8
0
  6
CONTINUOUS
 10
140.8655411230896
 20
51.30308732708025
 30
0.0
  0
VERTEX
  5
7B7
  8
0
  6
CONTINUOUS
 10
140.8646231058906
 20
51.30161994525825
 30
0.0
  0
VERTEX
  5
7B8
  8
0
  6
CONTINUOUS
 10
140.8633364361156
 20
51.29996462290732
 30
0.0
  0
VERTEX
  5
7B9
  8
0
  6
CONTINUOUS
 10
140.8618618258118
 20
51.29812858850936
 30
0.0
  0
VERTEX
  5
7BA
  8
0
  6
CONTINUOUS
 10
140.8602137319427
 20
51.29592390153542
 30
0.0
  0
VERTEX
  5
7BB
  8
0
  6
CONTINUOUS
 10
140.8583776975447
 20
51.29371921456148
 30
0.0
  0
VERTEX
  5
7BC
  8
0
  6
CONTINUOUS
 10
140.8565416631468
 20
51.2913338155405
 30
0.0
  0
VERTEX
  5
7BD
  8
0
  6
CONTINUOUS
 10
140.8543369761728
 20
51.28894118803763
 30
0.0
  0
VERTEX
  5
7BE
  8
0
  6
CONTINUOUS
 10
140.8521322891989
 20
51.28655578901665
 30
0.0
  0
VERTEX
  5
7BF
  8
0
  6
CONTINUOUS
 10
140.849558949649
 20
51.28398244946673
 30
0.0
  0
VERTEX
  5
7C0
  8
0
  6
CONTINUOUS
 10
140.847173550628
 20
51.28141633839871
 30
0.0
  0
VERTEX
  5
7C1
  8
0
  6
CONTINUOUS
 10
140.844419499031
 20
51.27902371089584
 30
0.0
  0
VERTEX
  5
7C2
  8
0
  6
CONTINUOUS
 10
140.8418461594811
 20
51.2768190239219
 30
0.0
  0
VERTEX
  5
7C3
  8
0
  6
CONTINUOUS
 10
140.8389041673553
 20
51.27462156542985
 30
0.0
  0
VERTEX
  5
7C4
  8
0
  6
CONTINUOUS
 10
140.8361501157583
 20
51.27259759050295
 30
0.0
  0
VERTEX
  5
7C5
  8
0
  6
CONTINUOUS
 10
140.8332081236324
 20
51.27076155610499
 30
0.0
  0
VERTEX
  5
7C6
  8
0
  6
CONTINUOUS
 10
140.8302733599884
 20
51.26929417428298
 30
0.0
  0
VERTEX
  5
7C7
  8
0
  6
CONTINUOUS
 10
140.8260519265695
 20
51.26818821655507
 30
0.0
  0
VERTEX
  5
7C8
  8
0
  6
CONTINUOUS
 10
140.8216425526216
 20
51.26690154678012
 30
0.0
  0
VERTEX
  5
7C9
  8
0
  6
CONTINUOUS
 10
140.8170452381448
 20
51.26580281753409
 30
0.0
  0
VERTEX
  5
7CA
  8
0
  6
CONTINUOUS
 10
140.8124551521499
 20
51.26451614775913
 30
0.0
  0
VERTEX
  5
7CB
  8
0
  6
CONTINUOUS
 10
140.8078650661549
 20
51.26322947798418
 30
0.0
  0
VERTEX
  5
7CC
  8
0
  6
CONTINUOUS
 10
140.8030870396311
 20
51.26194280820923
 30
0.0
  0
VERTEX
  5
7CD
  8
0
  6
CONTINUOUS
 10
140.7981283010602
 20
51.26065613843427
 30
0.0
  0
VERTEX
  5
7CE
  8
0
  6
CONTINUOUS
 10
140.7931695624893
 20
51.25936946865932
 30
0.0
  0
VERTEX
  5
7CF
  8
0
  6
CONTINUOUS
 10
140.7882108239184
 20
51.25809002736624
 30
0.0
  0
VERTEX
  5
7D0
  8
0
  6
CONTINUOUS
 10
140.7832520853475
 20
51.25680335759129
 30
0.0
  0
VERTEX
  5
7D1
  8
0
  6
CONTINUOUS
 10
140.7781054062477
 20
51.25551668781633
 30
0.0
  0
VERTEX
  5
7D2
  8
0
  6
CONTINUOUS
 10
140.7729659556298
 20
51.25423001804138
 30
0.0
  0
VERTEX
  5
7D3
  8
0
  6
CONTINUOUS
 10
140.7678265050118
 20
51.25294334826642
 30
0.0
  0
VERTEX
  5
7D4
  8
0
  6
CONTINUOUS
 10
140.762679825912
 20
51.2518446190204
 30
0.0
  0
VERTEX
  5
7D5
  8
0
  6
CONTINUOUS
 10
140.7575403752941
 20
51.25055794924544
 30
0.0
  0
VERTEX
  5
7D6
  8
0
  6
CONTINUOUS
 10
140.7523936961942
 20
51.24945199151753
 30
0.0
  0
VERTEX
  5
7D7
  8
0
  6
CONTINUOUS
 10
140.7472542455763
 20
51.24816532174258
 30
0.0
  0
VERTEX
  5
7D8
  8
0
  6
CONTINUOUS
 10
140.7419268544294
 20
51.24706659249654
 30
0.0
  0
VERTEX
  5
7D9
  8
0
  6
CONTINUOUS
 10
140.7367801753296
 20
51.24614857529756
 30
0.0
  0
VERTEX
  5
7DA
  8
0
  6
CONTINUOUS
 10
140.7316407247117
 20
51.24504984605153
 30
0.0
  0
VERTEX
  5
7DB
  8
0
  6
CONTINUOUS
 10
140.7266819861408
 20
51.24412460037067
 30
0.0
  0
VERTEX
  5
7DC
  8
0
  6
CONTINUOUS
 10
140.721535307041
 20
51.24320658317168
 30
0.0
  0
VERTEX
  5
7DD
  8
0
  6
CONTINUOUS
 10
140.7165765684701
 20
51.24228856597269
 30
0.0
  0
VERTEX
  5
7DE
  8
0
  6
CONTINUOUS
 10
140.7116178298992
 20
51.24155848930264
 30
0.0
  0
VERTEX
  5
7DF
  8
0
  6
CONTINUOUS
 10
140.7066590913283
 20
51.2408211841507
 30
0.0
  0
VERTEX
  5
7E0
  8
0
  6
CONTINUOUS
 10
140.7018810648044
 20
51.24027181952768
 30
0.0
  0
VERTEX
  5
7E1
  8
0
  6
CONTINUOUS
 10
140.6971102667625
 20
51.23972245490467
 30
0.0
  0
VERTEX
  5
7E2
  8
0
  6
CONTINUOUS
 10
140.6925129522857
 20
51.2393538023287
 30
0.0
  0
VERTEX
  5
7E3
  8
0
  6
CONTINUOUS
 10
140.6879228662908
 20
51.23898514975273
 30
0.0
  0
VERTEX
  5
7E4
  8
0
  6
CONTINUOUS
 10
140.6835134923429
 20
51.23861649717676
 30
0.0
  0
VERTEX
  5
7E5
  8
0
  6
CONTINUOUS
 10
140.6791113468769
 20
51.23843578512971
 30
0.0
  0
VERTEX
  5
7E6
  8
0
  6
CONTINUOUS
 10
140.674882684976
 20
51.23843578512971
 30
0.0
  0
VERTEX
  5
7E7
  8
0
  6
CONTINUOUS
 10
140.6686372766302
 20
51.23347704655882
 30
0.0
  0
VERTEX
  5
7E8
  8
0
  6
CONTINUOUS
 10
140.6629412329074
 20
51.22668227358996
 30
0.0
  0
VERTEX
  5
7E9
  8
0
  6
CONTINUOUS
 10
140.6574331297134
 20
51.21841289031721
 30
0.0
  0
VERTEX
  5
7EA
  8
0
  6
CONTINUOUS
 10
140.6522936790955
 20
51.2088640657514
 30
0.0
  0
VERTEX
  5
7EB
  8
0
  6
CONTINUOUS
 10
140.6473349405246
 20
51.19802857141062
 30
0.0
  0
VERTEX
  5
7EC
  8
0
  6
CONTINUOUS
 10
140.6427376260478
 20
51.18626783138899
 30
0.0
  0
VERTEX
  5
7ED
  8
0
  6
CONTINUOUS
 10
140.6381475400529
 20
51.17359630265025
 30
0.0
  0
VERTEX
  5
7EE
  8
0
  6
CONTINUOUS
 10
140.6339261066339
 20
51.16036818080661
 30
0.0
  0
VERTEX
  5
7EF
  8
0
  6
CONTINUOUS
 10
140.6296974447331
 20
51.14677863486889
 30
0.0
  0
VERTEX
  5
7F0
  8
0
  6
CONTINUOUS
 10
140.6256567233612
 20
51.13282043635519
 30
0.0
  0
VERTEX
  5
7F1
  8
0
  6
CONTINUOUS
 10
140.6216160019893
 20
51.11904294988854
 30
0.0
  0
VERTEX
  5
7F2
  8
0
  6
CONTINUOUS
 10
140.6177632211463
 20
51.10526546342189
 30
0.0
  0
VERTEX
  5
7F3
  8
0
  6
CONTINUOUS
 10
140.6137224997744
 20
51.09186385801309
 30
0.0
  0
VERTEX
  5
7F4
  8
0
  6
CONTINUOUS
 10
140.6098624904495
 20
51.07900438874542
 30
0.0
  0
VERTEX
  5
7F5
  8
0
  6
CONTINUOUS
 10
140.6058217690776
 20
51.06669428410077
 30
0.0
  0
VERTEX
  5
7F6
  8
0
  6
CONTINUOUS
 10
140.6015931071768
 20
51.05549013718403
 30
0.0
  0
VERTEX
  5
7F7
  8
0
  6
CONTINUOUS
 10
140.5959042919359
 20
51.05108799171803
 30
0.0
  0
VERTEX
  5
7F8
  8
0
  6
CONTINUOUS
 10
140.59038896026
 20
51.04612202466526
 30
0.0
  0
VERTEX
  5
7F9
  8
0
  6
CONTINUOUS
 10
140.5850687975951
 20
51.04098257404732
 30
0.0
  0
VERTEX
  5
7FA
  8
0
  6
CONTINUOUS
 10
140.5799221184953
 20
51.03528653032448
 30
0.0
  0
VERTEX
  5
7FB
  8
0
  6
CONTINUOUS
 10
140.5751440919714
 20
51.02922906250757
 30
0.0
  0
VERTEX
  5
7FC
  8
0
  6
CONTINUOUS
 10
140.5703732939294
 20
51.02298365416172
 30
0.0
  0
VERTEX
  5
7FD
  8
0
  6
CONTINUOUS
 10
140.5655952674056
 20
51.01655030528694
 30
0.0
  0
VERTEX
  5
7FE
  8
0
  6
CONTINUOUS
 10
140.5611858934577
 20
51.00975553231808
 30
0.0
  0
VERTEX
  5
7FF
  8
0
  6
CONTINUOUS
 10
140.5567765195098
 20
51.00296075934922
 30
0.0
  0
VERTEX
  5
800
  8
0
  6
CONTINUOUS
 10
140.5525550860909
 20
50.99579733380438
 30
0.0
  0
VERTEX
  5
801
  8
0
  6
CONTINUOUS
 10
140.5483336526719
 20
50.98845319621251
 30
0.0
  0
VERTEX
  5
802
  8
0
  6
CONTINUOUS
 10
140.5442929313
 20
50.98110183013875
 30
0.0
  0
VERTEX
  5
803
  8
0
  6
CONTINUOUS
 10
140.5402522099281
 20
50.97375769254688
 30
0.0
  0
VERTEX
  5
804
  8
0
  6
CONTINUOUS
 10
140.5363922006032
 20
50.96622561442607
 30
0.0
  0
VERTEX
  5
805
  8
0
  6
CONTINUOUS
 10
140.5323514792313
 20
50.95888147683419
 30
0.0
  0
VERTEX
  5
806
  8
0
  6
CONTINUOUS
 10
140.5284914699065
 20
50.95134939871339
 30
0.0
  0
VERTEX
  5
807
  8
0
  6
CONTINUOUS
 10
140.5250073416395
 20
50.94510399036754
 30
0.0
  0
VERTEX
  5
808
  8
0
  6
CONTINUOUS
 10
140.5226147141366
 20
50.93885858202169
 30
0.0
  0
VERTEX
  5
809
  8
0
  6
CONTINUOUS
 10
140.5209593917857
 20
50.93224452109988
 30
0.0
  0
VERTEX
  5
80A
  8
0
  6
CONTINUOUS
 10
140.5204100271627
 20
50.92544974813102
 30
0.0
  0
VERTEX
  5
80B
  8
0
  6
CONTINUOUS
 10
140.5204100271627
 20
50.9188356872092
 30
0.0
  0
VERTEX
  5
80C
  8
0
  6
CONTINUOUS
 10
140.5209593917857
 20
50.91204091424033
 30
0.0
  0
VERTEX
  5
80D
  8
0
  6
CONTINUOUS
 10
140.5222460615606
 20
50.90524614127147
 30
0.0
  0
VERTEX
  5
80E
  8
0
  6
CONTINUOUS
 10
140.5239013839116
 20
50.89882002087857
 30
0.0
  0
VERTEX
  5
80F
  8
0
  6
CONTINUOUS
 10
140.5259253588384
 20
50.8923866720038
 30
0.0
  0
VERTEX
  5
810
  8
0
  6
CONTINUOUS
 10
140.5281228173305
 20
50.88632920418688
 30
0.0
  0
VERTEX
  5
811
  8
0
  6
CONTINUOUS
 10
140.5305154448334
 20
50.880452448417
 30
0.0
  0
VERTEX
  5
812
  8
0
  6
CONTINUOUS
 10
140.5329008438543
 20
50.87493711674121
 30
0.0
  0
VERTEX
  5
813
  8
0
  6
CONTINUOUS
 10
140.5354741834043
 20
50.86997837817032
 30
0.0
  0
VERTEX
  5
814
  8
0
  6
CONTINUOUS
 10
140.5376788703782
 20
50.8653882921754
 30
0.0
  0
VERTEX
  5
815
  8
0
  6
CONTINUOUS
 10
140.5396956168232
 20
50.86134757080349
 30
0.0
  0
VERTEX
  5
816
  8
0
  6
CONTINUOUS
 10
140.5413509391741
 20
50.85804415458352
 30
0.0
  0
VERTEX
  5
817
  8
0
  6
CONTINUOUS
 10
140.5450230079701
 20
50.84959405926373
 30
0.0
  0
VERTEX
  5
818
  8
0
  6
CONTINUOUS
 10
140.5488830172949
 20
50.84169332856696
 30
0.0
  0
VERTEX
  5
819
  8
0
  6
CONTINUOUS
 10
140.5527357981379
 20
50.83416125044616
 30
0.0
  0
VERTEX
  5
81A
  8
0
  6
CONTINUOUS
 10
140.5564150954157
 20
50.82699782490133
 30
0.0
  0
VERTEX
  5
81B
  8
0
  6
CONTINUOUS
 10
140.5602678762587
 20
50.82039099246138
 30
0.0
  0
VERTEX
  5
81C
  8
0
  6
CONTINUOUS
 10
140.5641278855836
 20
50.81395764358661
 30
0.0
  0
VERTEX
  5
81D
  8
0
  6
CONTINUOUS
 10
140.5679806664266
 20
50.80771223524076
 30
0.0
  0
VERTEX
  5
81E
  8
0
  6
CONTINUOUS
 10
140.5718406757514
 20
50.80202341999981
 30
0.0
  0
VERTEX
  5
81F
  8
0
  6
CONTINUOUS
 10
140.5757006850763
 20
50.79632737627698
 30
0.0
  0
VERTEX
  5
820
  8
0
  6
CONTINUOUS
 10
140.5797414064482
 20
50.79118069717716
 30
0.0
  0
VERTEX
  5
821
  8
0
  6
CONTINUOUS
 10
140.5835941872912
 20
50.78604124655922
 30
0.0
  0
VERTEX
  5
822
  8
0
  6
CONTINUOUS
 10
140.5876349086631
 20
50.78108250798833
 30
0.0
  0
VERTEX
  5
823
  8
0
  6
CONTINUOUS
 10
140.591494917988
 20
50.7764924219934
 30
0.0
  0
VERTEX
  5
824
  8
0
  6
CONTINUOUS
 10
140.5955356393599
 20
50.7718951075166
 30
0.0
  0
VERTEX
  5
825
  8
0
  6
CONTINUOUS
 10
140.5993956486847
 20
50.7674929620506
 30
0.0
  0
VERTEX
  5
826
  8
0
  6
CONTINUOUS
 10
140.6034363700566
 20
50.76326430014977
 30
0.0
  0
VERTEX
  5
827
  8
0
  6
CONTINUOUS
 10
140.6074770914286
 20
50.75885492620189
 30
0.0
  0
VERTEX
  5
828
  8
0
  6
CONTINUOUS
 10
140.6115178128005
 20
50.75481420482998
 30
0.0
  0
VERTEX
  5
829
  8
0
  6
CONTINUOUS
 10
140.6155585341724
 20
50.75059277141103
 30
0.0
  0
VERTEX
  5
82A
  8
0
  6
CONTINUOUS
 10
140.6195992555443
 20
50.74655205003912
 30
0.0
  0
VERTEX
  5
82B
  8
0
  6
CONTINUOUS
 10
140.6236399769162
 20
50.74232338813829
 30
0.0
  0
VERTEX
  5
82C
  8
0
  6
CONTINUOUS
 10
140.6276806982881
 20
50.73810195471933
 30
0.0
  0
VERTEX
  5
82D
  8
0
  6
CONTINUOUS
 10
140.63172141966
 20
50.7338732928185
 30
0.0
  0
VERTEX
  5
82E
  8
0
  6
CONTINUOUS
 10
140.6357621410319
 20
50.72965185939955
 30
0.0
  0
VERTEX
  5
82F
  8
0
  6
CONTINUOUS
 10
140.6398028624038
 20
50.72524248545167
 30
0.0
  0
VERTEX
  5
830
  8
0
  6
CONTINUOUS
 10
140.6438435837757
 20
50.72065239945675
 30
0.0
  0
VERTEX
  5
831
  8
0
  6
CONTINUOUS
 10
140.6480650171947
 20
50.71587437293289
 30
0.0
  0
VERTEX
  5
832
  8
0
  6
CONTINUOUS
 10
140.6521057385666
 20
50.71110357489093
 30
0.0
  0
VERTEX
  5
833
  8
0
  6
CONTINUOUS
 10
140.6561464599385
 20
50.70595689579111
 30
0.0
  0
VERTEX
  5
834
  8
0
  6
CONTINUOUS
 10
140.6601871813104
 20
50.70062950464425
 30
0.0
  0
VERTEX
  5
835
  8
0
  6
CONTINUOUS
 10
140.6644158432112
 20
50.69512140145034
 30
0.0
  0
VERTEX
  5
836
  8
0
  6
CONTINUOUS
 10
140.6684565645832
 20
50.68924464568046
 30
0.0
  0
VERTEX
  5
837
  8
0
  6
CONTINUOUS
 10
140.6715792687561
 20
50.6929167144764
 30
0.0
  0
VERTEX
  5
838
  8
0
  6
CONTINUOUS
 10
140.674882684976
 20
50.69658878327233
 30
0.0
  0
VERTEX
  5
839
  8
0
  6
CONTINUOUS
 10
140.678005389149
 20
50.70008014002123
 30
0.0
  0
VERTEX
  5
83A
  8
0
  6
CONTINUOUS
 10
140.6811280933219
 20
50.70375220881717
 30
0.0
  0
VERTEX
  5
83B
  8
0
  6
CONTINUOUS
 10
140.6842507974948
 20
50.70724356556606
 30
0.0
  0
VERTEX
  5
83C
  8
0
  6
CONTINUOUS
 10
140.6875542137148
 20
50.710915634362
 30
0.0
  0
VERTEX
  5
83D
  8
0
  6
CONTINUOUS
 10
140.6906769178877
 20
50.7144069911109
 30
0.0
  0
VERTEX
  5
83E
  8
0
  6
CONTINUOUS
 10
140.6939875625896
 20
50.71789834785979
 30
0.0
  0
VERTEX
  5
83F
  8
0
  6
CONTINUOUS
 10
140.7064783792813
 20
50.70375220881717
 30
0.0
  0
VERTEX
  5
840
  8
0
  6
CONTINUOUS
 10
140.7064783792813
 20
50.70375220881717
 30
0.0
  0
SEQEND
  5
844
  8
0
  6
CONTINUOUS
  0
ENDSEC
  0
EOF
