  0
SECTION
  2
HEADER
  9
$ACADVER
  1
AC1009
  9
$DWGCODEPAGE
  3
ansi_1252
  9
$INSBASE
 10
177.5867179731807
 20
226.0598803837388
 30
0.0
  9
$EXTMIN
 10
177.5807278556493
 20
226.0544066995283
 30
0.0
  9
$EXTMAX
 10
177.9893424769669
 20
227.8219414838798
 30
0.0
  9
$LIMMIN
 10
0.0
 20
0.0
  9
$LIMMAX
 10
1632.0
 20
1032.0
  9
$ORTHOMODE
 70
     0
  9
$REGENMODE
 70
     1
  9
$FILLMODE
 70
     1
  9
$QTEXTMODE
 70
     0
  9
$MIRRTEXT
 70
     1
  9
$DRAGMODE
 70
     2
  9
$LTSCALE
 40
15.0
  9
$OSMODE
 70
    37
  9
$ATTMODE
 70
     1
  9
$TEXTSIZE
 40
4.0
  9
$TRACEWID
 40
0.05
  9
$TEXTSTYLE
  7
STANDARD
  9
$CLAYER
  8
0
  9
$CELTYPE
  6
BYLAYER
  9
$CECOLOR
 62
   256
  9
$DIMSCALE
 40
1.0
  9
$DIMASZ
 40
0.18
  9
$DIMEXO
 40
4.0
  9
$DIMDLI
 40
0.0
  9
$DIMRND
 40
0.0
  9
$DIMDLE
 40
0.0
  9
$DIMEXE
 40
4.0
  9
$DIMTP
 40
0.0
  9
$DIMTM
 40
0.0
  9
$DIMTXT
 40
4.0
  9
$DIMCEN
 40
0.09
  9
$DIMTSZ
 40
1.5
  9
$DIMTOL
 70
     0
  9
$DIMLIM
 70
     0
  9
$DIMTIH
 70
     0
  9
$DIMTOH
 70
     0
  9
$DIMSE1
 70
     0
  9
$DIMSE2
 70
     0
  9
$DIMTAD
 70
     1
  9
$DIMZIN
 70
     0
  9
$DIMBLK
  1

  9
$DIMASO
 70
     0
  9
$DIMSHO
 70
     0
  9
$DIMPOST
  1

  9
$DIMAPOST
  1

  9
$DIMALT
 70
     0
  9
$DIMALTD
 70
     2
  9
$DIMALTF
 40
25.4
  9
$DIMLFAC
 40
1.0
  9
$DIMTOFL
 70
     0
  9
$DIMTVP
 40
0.0
  9
$DIMTIX
 70
     0
  9
$DIMSOXD
 70
     0
  9
$DIMSAH
 70
     0
  9
$DIMBLK1
  1

  9
$DIMBLK2
  1

  9
$DIMSTYLE
  2
STANDARD
  9
$DIMCLRD
 70
     0
  9
$DIMCLRE
 70
     0
  9
$DIMCLRT
 70
     0
  9
$DIMTFAC
 40
1.0
  9
$DIMGAP
 40
0.09
  9
$LUNITS
 70
     2
  9
$LUPREC
 70
     2
  9
$SKETCHINC
 40
0.1
  9
$FILLETRAD
 40
0.0
  9
$AUNITS
 70
     0
  9
$AUPREC
 70
     0
  9
$MENU
  1
ACAD
  9
$ELEVATION
 40
0.0
  9
$PELEVATION
 40
0.0
  9
$THICKNESS
 40
0.0
  9
$LIMCHECK
 70
     0
  9
$CHAMFERA
 40
0.0
  9
$CHAMFERB
 40
0.0
  9
$SKPOLY
 70
     0
  9
$TDCREATE
 40
2449030.627942014
  9
$TDUPDATE
 40
2457483.53275463
  9
$TDINDWG
 40
0.004165706
  9
$TDUSRTIMER
 40
0.004165706
  9
$USRTIMER
 70
     1
  9
$ANGBASE
 50
0.0
  9
$ANGDIR
 70
     0
  9
$PDMODE
 70
     0
  9
$PDSIZE
 40
0.0
  9
$PLINEWID
 40
0.0
  9
$COORDS
 70
     1
  9
$SPLFRAME
 70
     0
  9
$SPLINETYPE
 70
     6
  9
$SPLINESEGS
 70
     8
  9
$ATTDIA
 70
     0
  9
$ATTREQ
 70
     1
  9
$HANDLING
 70
     1
  9
$HANDSEED
  5
20B
  9
$SURFTAB1
 70
     6
  9
$SURFTAB2
 70
     6
  9
$SURFTYPE
 70
     6
  9
$SURFU
 70
     6
  9
$SURFV
 70
     6
  9
$UCSNAME
  2

  9
$UCSORG
 10
0.0
 20
0.0
 30
0.0
  9
$UCSXDIR
 10
1.0
 20
0.0
 30
0.0
  9
$UCSYDIR
 10
0.0
 20
1.0
 30
0.0
  9
$PUCSNAME
  2

  9
$PUCSORG
 10
0.0
 20
0.0
 30
0.0
  9
$PUCSXDIR
 10
1.0
 20
0.0
 30
0.0
  9
$PUCSYDIR
 10
0.0
 20
1.0
 30
0.0
  9
$USERI1
 70
     0
  9
$USERI2
 70
     0
  9
$USERI3
 70
     0
  9
$USERI4
 70
     0
  9
$USERI5
 70
     0
  9
$USERR1
 40
0.0
  9
$USERR2
 40
0.0
  9
$USERR3
 40
0.0
  9
$USERR4
 40
0.0
  9
$USERR5
 40
0.0
  9
$WORLDVIEW
 70
     1
  9
$SHADEDGE
 70
     3
  9
$SHADEDIF
 70
    70
  9
$TILEMODE
 70
     1
  9
$MAXACTVP
 70
    16
  9
$PLIMCHECK
 70
     0
  9
$PEXTMIN
 10
1.000000000000000E+20
 20
1.000000000000000E+20
 30
1.000000000000000E+20
  9
$PEXTMAX
 10
-1.000000000000000E+20
 20
-1.000000000000000E+20
 30
-1.000000000000000E+20
  9
$PLIMMIN
 10
0.0
 20
0.0
  9
$PLIMMAX
 10
12.0
 20
9.0
  9
$UNITMODE
 70
     0
  9
$VISRETAIN
 70
     0
  9
$PLINEGEN
 70
     0
  9
$PSLTSCALE
 70
     0
  0
ENDSEC
  0
SECTION
  2
TABLES
  0
TABLE
  2
VPORT
 70
     1
  0
VPORT
  2
*ACTIVE
 70
     0
 10
0.0
 20
0.0
 11
1.0
 21
1.0
 12
177.7850351663081
 22
227.2621293351128
 13
0.0
 23
0.0
 14
1.0
 24
1.0
 15
48.0
 25
48.0
 16
0.0
 26
0.0
 36
1.0
 17
0.0
 27
0.0
 37
0.0
 40
2.446007232341141
 41
1.376889848812095
 42
50.0
 43
0.0
 44
0.0
 50
0.0
 51
0.0
 71
     0
 72
   100
 73
     1
 74
     1
 75
     0
 76
     1
 77
     0
 78
     0
  0
ENDTAB
  0
TABLE
  2
LTYPE
 70
     1
  0
LTYPE
  2
CONTINUOUS
 70
     0
  3
Solid line
 72
    65
 73
     0
 40
0.0
  0
ENDTAB
  0
TABLE
  2
LAYER
 70
     1
  0
LAYER
  2
0
 70
     0
 62
     7
  6
CONTINUOUS
  0
ENDTAB
  0
TABLE
  2
STYLE
 70
     1
  0
STYLE
  2
STANDARD
 70
     0
 40
0.0
 41
1.0
 50
0.0
 71
     0
 42
4.0
  3
TXT
  4

  0
ENDTAB
  0
TABLE
  2
VIEW
 70
     0
  0
ENDTAB
  0
TABLE
  2
UCS
 70
     0
  0
ENDTAB
  0
TABLE
  2
APPID
 70
     1
  0
APPID
  2
ACAD
 70
     0
  0
ENDTAB
  0
TABLE
  2
DIMSTYLE
 70
     1
  0
DIMSTYLE
  2
STANDARD
 70
     0
  3

  4

  5

  6

  7

 40
1.0
 41
0.18
 42
0.0625
 43
0.38
 44
0.18
 45
0.0
 46
0.0
 47
0.0
 48
0.0
140
0.18
141
0.09
142
0.0
143
25.4
144
1.0
145
0.0
146
1.0
147
0.09
 71
     0
 72
     0
 73
     1
 74
     1
 75
     0
 76
     0
 77
     0
 78
     0
170
     0
171
     2
172
     0
173
     0
174
     0
175
     0
176
     0
177
     0
178
     0
  0
ENDTAB
  0
ENDSEC
  0
SECTION
  2
BLOCKS
  0
BLOCK
  8
0
  2
$MODEL_SPACE
 70
     0
 10
0.0
 20
0.0
 30
0.0
  3
$MODEL_SPACE
  1

  0
ENDBLK
  5
20
  8
0
  0
BLOCK
 67
     1
  8
0
  2
$PAPER_SPACE
 70
     0
 10
0.0
 20
0.0
 30
0.0
  3
$PAPER_SPACE
  1

  0
ENDBLK
  5
1E
 67
     1
  8
0
  0
ENDSEC
  0
SECTION
  2
ENTITIES
  0
POLYLINE
  5
22
  8
0
 62
     0
 66
     1
 10
0.0
 20
0.0
 30
0.0
 70
     4
 75
     6
  0
VERTEX
  5
23
  8
0
 62
     0
 10
177.6083692520003
 20
226.8601350028867
 30
0.0
 70
    16
  0
VERTEX
  5
24
  8
0
 62
     0
 10
177.6083692520003
 20
226.8601350028867
 30
0.0
 70
     8
  0
VERTEX
  5
25
  8
0
 62
     0
 10
177.633491434219
 20
226.8520233163057
 30
0.0
 70
     8
  0
VERTEX
  5
26
  8
0
 62
     0
 10
177.65359493813
 20
226.8460047550151
 30
0.0
 70
     8
  0
VERTEX
  5
27
  8
0
 62
     0
 10
177.6693923865421
 20
226.8417804659013
 30
0.0
 70
     8
  0
VERTEX
  5
28
  8
0
 62
     0
 10
177.6815964022641
 20
226.8390515958505
 30
0.0
 70
     8
  0
VERTEX
  5
29
  8
0
 62
     0
 10
177.6909196081052
 20
226.837519291749
 30
0.0
 70
     8
  0
VERTEX
  5
2A
  8
0
 62
     0
 10
177.698074626874
 20
226.8368847004832
 30
0.0
 70
     8
  0
VERTEX
  5
2B
  8
0
 62
     0
 10
177.7037740813794
 20
226.8368489689394
 30
0.0
 70
     8
  0
VERTEX
  5
2C
  8
0
 62
     0
 10
177.7087305944305
 20
226.8371132440038
 30
0.0
 70
     8
  0
VERTEX
  5
2D
  8
0
 62
     0
 10
177.7135360107736
 20
226.8374284162624
 30
0.0
 70
     8
  0
VERTEX
  5
2E
  8
0
 62
     0
 10
177.7182990629051
 20
226.837744351099
 30
0.0
 70
     8
  0
VERTEX
  5
2F
  8
0
 62
     0
 10
177.7230077052593
 20
226.8380606575969
 30
0.0
 70
     8
  0
VERTEX
  5
30
  8
0
 62
     0
 10
177.7276498922702
 20
226.8383769448396
 30
0.0
 70
     8
  0
VERTEX
  5
31
  8
0
 62
     0
 10
177.7322135783718
 20
226.8386928219104
 30
0.0
 70
     8
  0
VERTEX
  5
32
  8
0
 62
     0
 10
177.7366867179981
 20
226.8390078978928
 30
0.0
 70
     8
  0
VERTEX
  5
33
  8
0
 62
     0
 10
177.7410572655834
 20
226.8393217818701
 30
0.0
 70
     8
  0
VERTEX
  5
34
  8
0
 62
     0
 10
177.7453131755616
 20
226.8396340829256
 30
0.0
 70
     8
  0
VERTEX
  5
35
  8
0
 62
     0
 10
177.7494453253518
 20
226.8399445934536
 30
0.0
 70
     8
  0
VERTEX
  5
36
  8
0
 62
     0
 10
177.7534562843134
 20
226.8402538390906
 30
0.0
 70
     8
  0
VERTEX
  5
37
  8
0
 62
     0
 10
177.7573515447906
 20
226.8405625287839
 30
0.0
 70
     8
  0
VERTEX
  5
38
  8
0
 62
     0
 10
177.7611365991278
 20
226.8408713714808
 30
0.0
 70
     8
  0
VERTEX
  5
39
  8
0
 62
     0
 10
177.7648169396691
 20
226.8411810761287
 30
0.0
 70
     8
  0
VERTEX
  5
3A
  8
0
 62
     0
 10
177.768398058759
 20
226.841492351675
 30
0.0
 70
     8
  0
VERTEX
  5
3B
  8
0
 62
     0
 10
177.7718854487417
 20
226.8418059070669
 30
0.0
 70
     8
  0
VERTEX
  5
3C
  8
0
 62
     0
 10
177.7752846019615
 20
226.8421224512516
 30
0.0
 70
     8
  0
VERTEX
  5
3D
  8
0
 62
     0
 10
177.7786010107629
 20
226.8424426931767
 30
0.0
 70
     8
  0
VERTEX
  5
3E
  8
0
 62
     0
 10
177.7818401674899
 20
226.8427673417894
 30
0.0
 70
     8
  0
VERTEX
  5
3F
  8
0
 62
     0
 10
177.785007564487
 20
226.843097106037
 30
0.0
 70
     8
  0
VERTEX
  5
40
  8
0
 62
     0
 10
177.7881086940984
 20
226.8434326948668
 30
0.0
 70
     8
  0
VERTEX
  5
41
  8
0
 62
     0
 10
177.7911490486685
 20
226.8437748172262
 30
0.0
 70
     8
  0
VERTEX
  5
42
  8
0
 62
     0
 10
177.7941341205415
 20
226.8441241820624
 30
0.0
 70
     8
  0
VERTEX
  5
43
  8
0
 62
     0
 10
177.7970694020618
 20
226.8444814983229
 30
0.0
 70
     8
  0
VERTEX
  5
44
  8
0
 62
     0
 10
177.7999603855737
 20
226.8448474749549
 30
0.0
 70
     8
  0
VERTEX
  5
45
  8
0
 62
     0
 10
177.8028125634214
 20
226.8452228209057
 30
0.0
 70
     8
  0
VERTEX
  5
46
  8
0
 62
     0
 10
177.8056314279493
 20
226.8456082451227
 30
0.0
 70
     8
  0
VERTEX
  5
47
  8
0
 62
     0
 10
177.8084224715016
 20
226.8460044565531
 30
0.0
 70
     8
  0
VERTEX
  5
48
  8
0
 62
     0
 10
177.8111911864227
 20
226.8464121641444
 30
0.0
 70
     8
  0
VERTEX
  5
49
  8
0
 62
     0
 10
177.8139430650569
 20
226.8468320768438
 30
0.0
 70
     8
  0
VERTEX
  5
4A
  8
0
 62
     0
 10
177.8166835997485
 20
226.8472649035986
 30
0.0
 70
     8
  0
VERTEX
  5
4B
  8
0
 62
     0
 10
177.8194182828418
 20
226.8477113533563
 30
0.0
 70
     8
  0
VERTEX
  5
4C
  8
0
 62
     0
 10
177.822152606681
 20
226.8481721350639
 30
0.0
 70
     8
  0
VERTEX
  5
4D
  8
0
 62
     0
 10
177.8248961639779
 20
226.8486488613766
 30
0.0
 70
     8
  0
VERTEX
  5
4E
  8
0
 62
     0
 10
177.8276749489133
 20
226.8491467597793
 30
0.0
 70
     8
  0
VERTEX
  5
4F
  8
0
 62
     0
 10
177.8305190560357
 20
226.8496719614647
 30
0.0
 70
     8
  0
VERTEX
  5
50
  8
0
 62
     0
 10
177.8334585798933
 20
226.8502305976252
 30
0.0
 70
     8
  0
VERTEX
  5
51
  8
0
 62
     0
 10
177.8365236150344
 20
226.8508287994536
 30
0.0
 70
     8
  0
VERTEX
  5
52
  8
0
 62
     0
 10
177.8397442560073
 20
226.8514726981424
 30
0.0
 70
     8
  0
VERTEX
  5
53
  8
0
 62
     0
 10
177.8431505973603
 20
226.8521684248843
 30
0.0
 70
     8
  0
VERTEX
  5
54
  8
0
 62
     0
 10
177.8467727336418
 20
226.8529221108718
 30
0.0
 70
     8
  0
VERTEX
  5
55
  8
0
 62
     0
 10
177.8506709790278
 20
226.8537472105441
 30
0.0
 70
     8
  0
VERTEX
  5
56
  8
0
 62
     0
 10
177.8550265262053
 20
226.8546864713269
 30
0.0
 70
     8
  0
VERTEX
  5
57
  8
0
 62
     0
 10
177.8600507874891
 20
226.8557899638923
 30
0.0
 70
     8
  0
VERTEX
  5
58
  8
0
 62
     0
 10
177.865955175194
 20
226.8571077589125
 30
0.0
 70
     8
  0
VERTEX
  5
59
  8
0
 62
     0
 10
177.8729511016348
 20
226.8586899270596
 30
0.0
 70
     8
  0
VERTEX
  5
5A
  8
0
 62
     0
 10
177.8812499791263
 20
226.860586539006
 30
0.0
 70
     8
  0
VERTEX
  5
5B
  8
0
 62
     0
 10
177.8910632199832
 20
226.8628476654237
 30
0.0
 70
     8
  0
VERTEX
  5
5C
  8
0
 62
     0
 10
177.9026022365202
 20
226.8655233769849
 30
0.0
 70
     8
  0
VERTEX
  5
5D
  8
0
 62
     0
 10
177.6826867514906
 20
226.835447357738
 30
0.0
 70
    16
  0
VERTEX
  5
5E
  8
0
 62
     0
 10
177.7090539933163
 20
226.8371009400614
 30
0.0
 70
    16
  0
VERTEX
  5
5F
  8
0
 62
     0
 10
177.7466644627401
 20
226.8396551372009
 30
0.0
 70
    16
  0
VERTEX
  5
60
  8
0
 62
     0
 10
177.7761672090929
 20
226.8420830086888
 30
0.0
 70
    16
  0
VERTEX
  5
61
  8
0
 62
     0
 10
177.8003743126578
 20
226.8447475355539
 30
0.0
 70
    16
  0
VERTEX
  5
62
  8
0
 62
     0
 10
177.8220978537179
 20
226.8480116988248
 30
0.0
 70
    16
  0
VERTEX
  5
63
  8
0
 62
     0
 10
177.8441499125565
 20
226.8522384795305
 30
0.0
 70
    16
  0
VERTEX
  5
64
  8
0
 62
     0
 10
177.8693425694568
 20
226.8577908586994
 30
0.0
 70
    16
  0
VERTEX
  5
65
  8
0
 62
     0
 10
177.9026022365203
 20
226.8655233769849
 30
0.0
 70
    16
  0
SEQEND
  5
66
  8
0
 62
     0
  0
POLYLINE
  5
67
  8
0
 62
     0
 66
     1
 10
0.0
 20
0.0
 30
0.0
 70
     4
 75
     6
  0
VERTEX
  5
68
  8
0
 62
     0
 10
177.8975370693927
 20
226.9593418001325
 30
0.0
 70
    16
  0
VERTEX
  5
69
  8
0
 62
     0
 10
177.8975370693927
 20
226.9593418001325
 30
0.0
 70
     8
  0
VERTEX
  5
6A
  8
0
 62
     0
 10
177.8867510137292
 20
226.994369538529
 30
0.0
 70
     8
  0
VERTEX
  5
6B
  8
0
 62
     0
 10
177.8775687245167
 20
227.0250227839981
 30
0.0
 70
     8
  0
VERTEX
  5
6C
  8
0
 62
     0
 10
177.8697385459576
 20
227.0518409118381
 30
0.0
 70
     8
  0
VERTEX
  5
6D
  8
0
 62
     0
 10
177.8630088222541
 20
227.0753632973475
 30
0.0
 70
     8
  0
VERTEX
  5
6E
  8
0
 62
     0
 10
177.8571278976087
 20
227.0961293158247
 30
0.0
 70
     8
  0
VERTEX
  5
6F
  8
0
 62
     0
 10
177.8518441162236
 20
227.1146783425681
 30
0.0
 70
     8
  0
VERTEX
  5
70
  8
0
 62
     0
 10
177.8469058223011
 20
227.1315497528761
 30
0.0
 70
     8
  0
VERTEX
  5
71
  8
0
 62
     0
 10
177.8420613600435
 20
227.1472829220471
 30
0.0
 70
     8
  0
VERTEX
  5
72
  8
0
 62
     0
 10
177.8371023098158
 20
227.162356601182
 30
0.0
 70
     8
  0
VERTEX
  5
73
  8
0
 62
     0
 10
177.8319931966328
 20
227.1770070445912
 30
0.0
 70
     8
  0
VERTEX
  5
74
  8
0
 62
     0
 10
177.826741781672
 20
227.1914098823877
 30
0.0
 70
     8
  0
VERTEX
  5
75
  8
0
 62
     0
 10
177.8213558261108
 20
227.2057407446844
 30
0.0
 70
     8
  0
VERTEX
  5
76
  8
0
 62
     0
 10
177.8158430911267
 20
227.2201752615942
 30
0.0
 70
     8
  0
VERTEX
  5
77
  8
0
 62
     0
 10
177.8102113378972
 20
227.23488906323
 30
0.0
 70
     8
  0
VERTEX
  5
78
  8
0
 62
     0
 10
177.8044683275997
 20
227.2500577797047
 30
0.0
 70
     8
  0
VERTEX
  5
79
  8
0
 62
     0
 10
177.7986218214116
 20
227.2658570411314
 30
0.0
 70
     8
  0
VERTEX
  5
7A
  8
0
 62
     0
 10
177.7927189021651
 20
227.2824110160842
 30
0.0
 70
     8
  0
VERTEX
  5
7B
  8
0
 62
     0
 10
177.7869639393102
 20
227.2996380269829
 30
0.0
 70
     8
  0
VERTEX
  5
7C
  8
0
 62
     0
 10
177.7816006239518
 20
227.3174049347088
 30
0.0
 70
     8
  0
VERTEX
  5
7D
  8
0
 62
     0
 10
177.7768726471946
 20
227.3355786001428
 30
0.0
 70
     8
  0
VERTEX
  5
7E
  8
0
 62
     0
 10
177.7730237001434
 20
227.3540258841662
 30
0.0
 70
     8
  0
VERTEX
  5
7F
  8
0
 62
     0
 10
177.7702974739029
 20
227.37261364766
 30
0.0
 70
     8
  0
VERTEX
  5
80
  8
0
 62
     0
 10
177.7689376595779
 20
227.3912087515055
 30
0.0
 70
     8
  0
VERTEX
  5
81
  8
0
 62
     0
 10
177.7691879482732
 20
227.4096780565838
 30
0.0
 70
     8
  0
VERTEX
  5
82
  8
0
 62
     0
 10
177.8664122049795
 20
227.0590612044695
 30
0.0
 70
    16
  0
VERTEX
  5
83
  8
0
 62
     0
 10
177.8437448174593
 20
227.1536708243253
 30
0.0
 70
    16
  0
VERTEX
  5
84
  8
0
 62
     0
 10
177.7996429916843
 20
227.2572578404402
 30
0.0
 70
    16
  0
VERTEX
  5
85
  8
0
 62
     0
 10
177.7661570934102
 20
227.3607126539482
 30
0.0
 70
    16
  0
VERTEX
  5
86
  8
0
 62
     0
 10
177.7691879482732
 20
227.4096780565838
 30
0.0
 70
    16
  0
SEQEND
  5
87
  8
0
 62
     0
  0
POLYLINE
  5
88
  8
0
 62
     0
 66
     1
 10
0.0
 20
0.0
 30
0.0
 70
     4
 75
     6
  0
VERTEX
  5
89
  8
0
 62
     0
 10
177.953709304415
 20
226.9547074797097
 30
0.0
 70
    16
  0
VERTEX
  5
8A
  8
0
 62
     0
 10
177.953709304415
 20
226.9547074797097
 30
0.0
 70
     8
  0
VERTEX
  5
8B
  8
0
 62
     0
 10
177.9668450259416
 20
226.9432251685551
 30
0.0
 70
     8
  0
VERTEX
  5
8C
  8
0
 62
     0
 10
177.9766106477859
 20
226.9344226799978
 30
0.0
 70
     8
  0
VERTEX
  5
8D
  8
0
 62
     0
 10
177.9833717261221
 20
226.9277264871112
 30
0.0
 70
     8
  0
VERTEX
  5
8E
  8
0
 62
     0
 10
177.9874938171244
 20
226.9225630629686
 30
0.0
 70
     8
  0
VERTEX
  5
8F
  8
0
 62
     0
 10
177.9893424769669
 20
226.9183588806436
 30
0.0
 70
     8
  0
VERTEX
  5
90
  8
0
 62
     0
 10
177.9892832618238
 20
226.9145404132094
 30
0.0
 70
     8
  0
VERTEX
  5
91
  8
0
 62
     0
 10
177.9876817278692
 20
226.9105341337396
 30
0.0
 70
     8
  0
VERTEX
  5
92
  8
0
 62
     0
 10
177.9849034312775
 20
226.9057665153075
 30
0.0
 70
     8
  0
VERTEX
  5
93
  8
0
 62
     0
 10
177.9935563002171
 20
226.9200050847886
 30
0.0
 70
    16
  0
VERTEX
  5
94
  8
0
 62
     0
 10
177.9849034312775
 20
226.9057665153075
 30
0.0
 70
    16
  0
SEQEND
  5
95
  8
0
 62
     0
  0
POLYLINE
  5
96
  8
0
 62
     0
 66
     1
 10
0.0
 20
0.0
 30
0.0
 70
     4
 75
     6
  0
VERTEX
  5
97
  8
0
 62
     0
 10
177.9491456970145
 20
226.9390611225295
 30
0.0
 70
    16
  0
VERTEX
  5
98
  8
0
 62
     0
 10
177.9491456970145
 20
226.9390611225295
 30
0.0
 70
     8
  0
VERTEX
  5
99
  8
0
 62
     0
 10
177.9478775664927
 20
226.927751111662
 30
0.0
 70
     8
  0
VERTEX
  5
9A
  8
0
 62
     0
 10
177.9484044598591
 20
226.9177746836636
 30
0.0
 70
     8
  0
VERTEX
  5
9B
  8
0
 62
     0
 10
177.9506487284883
 20
226.909488095692
 30
0.0
 70
     8
  0
VERTEX
  5
9C
  8
0
 62
     0
 10
177.9545327237547
 20
226.9032476049049
 30
0.0
 70
     8
  0
VERTEX
  5
9D
  8
0
 62
     0
 10
177.9599787970328
 20
226.8994094684603
 30
0.0
 70
     8
  0
VERTEX
  5
9E
  8
0
 62
     0
 10
177.9669092996971
 20
226.8983299435158
 30
0.0
 70
     8
  0
VERTEX
  5
9F
  8
0
 62
     0
 10
177.9752465831221
 20
226.9003652872293
 30
0.0
 70
     8
  0
VERTEX
  5
A0
  8
0
 62
     0
 10
177.9849129986821
 20
226.9058717567587
 30
0.0
 70
     8
  0
VERTEX
  5
A1
  8
0
 62
     0
 10
177.943301629438
 20
226.9074396560868
 30
0.0
 70
    16
  0
VERTEX
  5
A2
  8
0
 62
     0
 10
177.9574327353424
 20
226.8862429972303
 30
0.0
 70
    16
  0
VERTEX
  5
A3
  8
0
 62
     0
 10
177.9849129986821
 20
226.9058717567587
 30
0.0
 70
    16
  0
SEQEND
  5
A4
  8
0
 62
     0
  0
POLYLINE
  5
A5
  8
0
 62
     0
 66
     1
 10
0.0
 20
0.0
 30
0.0
 70
     4
 75
     6
  0
VERTEX
  5
A6
  8
0
 62
     0
 10
177.9849034312775
 20
226.9057665153075
 30
0.0
 70
    16
  0
VERTEX
  5
A7
  8
0
 62
     0
 10
177.9849034312775
 20
226.9057665153075
 30
0.0
 70
     8
  0
VERTEX
  5
A8
  8
0
 62
     0
 10
177.9837224583257
 20
226.8952757313985
 30
0.0
 70
     8
  0
VERTEX
  5
A9
  8
0
 62
     0
 10
177.9822481776868
 20
226.8863839982375
 30
0.0
 70
     8
  0
VERTEX
  5
AA
  8
0
 62
     0
 10
177.9804876213369
 20
226.8789070648382
 30
0.0
 70
     8
  0
VERTEX
  5
AB
  8
0
 62
     0
 10
177.9784478212522
 20
226.8726606802146
 30
0.0
 70
     8
  0
VERTEX
  5
AC
  8
0
 62
     0
 10
177.9761358094089
 20
226.8674605933803
 30
0.0
 70
     8
  0
VERTEX
  5
AD
  8
0
 62
     0
 10
177.9735586177832
 20
226.8631225533493
 30
0.0
 70
     8
  0
VERTEX
  5
AE
  8
0
 62
     0
 10
177.9707232783511
 20
226.8594623091354
 30
0.0
 70
     8
  0
VERTEX
  5
AF
  8
0
 62
     0
 10
177.9676368230888
 20
226.8562956097525
 30
0.0
 70
     8
  0
VERTEX
  5
B0
  8
0
 62
     0
 10
177.964307170145
 20
226.8534763877989
 30
0.0
 70
     8
  0
VERTEX
  5
B1
  8
0
 62
     0
 10
177.9607457823587
 20
226.8510113102121
 30
0.0
 70
     8
  0
VERTEX
  5
B2
  8
0
 62
     0
 10
177.9569650087414
 20
226.8489452275141
 30
0.0
 70
     8
  0
VERTEX
  5
B3
  8
0
 62
     0
 10
177.9529771983044
 20
226.8473229902268
 30
0.0
 70
     8
  0
VERTEX
  5
B4
  8
0
 62
     0
 10
177.9487947000592
 20
226.8461894488722
 30
0.0
 70
     8
  0
VERTEX
  5
B5
  8
0
 62
     0
 10
177.9444298630174
 20
226.8455894539724
 30
0.0
 70
     8
  0
VERTEX
  5
B6
  8
0
 62
     0
 10
177.9398950361903
 20
226.8455678560493
 30
0.0
 70
     8
  0
VERTEX
  5
B7
  8
0
 62
     0
 10
177.9352025685895
 20
226.8461695056249
 30
0.0
 70
     8
  0
VERTEX
  5
B8
  8
0
 62
     0
 10
177.9303734271277
 20
226.8474234198215
 30
0.0
 70
     8
  0
VERTEX
  5
B9
  8
0
 62
     0
 10
177.9254630503231
 20
226.8492952821625
 30
0.0
 70
     8
  0
VERTEX
  5
BA
  8
0
 62
     0
 10
177.9205354945951
 20
226.8517349427715
 30
0.0
 70
     8
  0
VERTEX
  5
BB
  8
0
 62
     0
 10
177.9156548163631
 20
226.8546922517722
 30
0.0
 70
     8
  0
VERTEX
  5
BC
  8
0
 62
     0
 10
177.9108850720465
 20
226.8581170592882
 30
0.0
 70
     8
  0
VERTEX
  5
BD
  8
0
 62
     0
 10
177.9062903180649
 20
226.8619592154431
 30
0.0
 70
     8
  0
VERTEX
  5
BE
  8
0
 62
     0
 10
177.9019346108377
 20
226.8661685703607
 30
0.0
 70
     8
  0
VERTEX
  5
BF
  8
0
 62
     0
 10
177.8978820067842
 20
226.8706949741646
 30
0.0
 70
     8
  0
VERTEX
  5
C0
  8
0
 62
     0
 10
177.8942300433969
 20
226.8755795596099
 30
0.0
 70
     8
  0
VERTEX
  5
C1
  8
0
 62
     0
 10
177.8912101824593
 20
226.881228589978
 30
0.0
 70
     8
  0
VERTEX
  5
C2
  8
0
 62
     0
 10
177.8890873668281
 20
226.8881396111818
 30
0.0
 70
     8
  0
VERTEX
  5
C3
  8
0
 62
     0
 10
177.8881265393596
 20
226.8968101691343
 30
0.0
 70
     8
  0
VERTEX
  5
C4
  8
0
 62
     0
 10
177.8885926429106
 20
226.9077378097481
 30
0.0
 70
     8
  0
VERTEX
  5
C5
  8
0
 62
     0
 10
177.8907506203374
 20
226.9214200789364
 30
0.0
 70
     8
  0
VERTEX
  5
C6
  8
0
 62
     0
 10
177.8948654144966
 20
226.9383545226119
 30
0.0
 70
     8
  0
VERTEX
  5
C7
  8
0
 62
     0
 10
177.9012019682448
 20
226.9590386866876
 30
0.0
 70
     8
  0
VERTEX
  5
C8
  8
0
 62
     0
 10
177.9821514976342
 20
226.875495245232
 30
0.0
 70
    16
  0
VERTEX
  5
C9
  8
0
 62
     0
 10
177.9702403841983
 20
226.8529964754085
 30
0.0
 70
    16
  0
VERTEX
  5
CA
  8
0
 62
     0
 10
177.9367523473873
 20
226.8390431267372
 30
0.0
 70
    16
  0
VERTEX
  5
CB
  8
0
 62
     0
 10
177.8939656377896
 20
226.8678480513921
 30
0.0
 70
    16
  0
VERTEX
  5
CC
  8
0
 62
     0
 10
177.8811066407031
 20
226.8984390255852
 30
0.0
 70
    16
  0
VERTEX
  5
CD
  8
0
 62
     0
 10
177.9012019682448
 20
226.9590386866876
 30
0.0
 70
    16
  0
SEQEND
  5
CE
  8
0
 62
     0
  0
POLYLINE
  5
CF
  8
0
 62
     0
 66
     1
 10
0.0
 20
0.0
 30
0.0
 70
     4
 75
     6
  0
VERTEX
  5
D0
  8
0
 62
     0
 10
177.7706953571305
 20
227.5893735567678
 30
0.0
 70
    16
  0
VERTEX
  5
D1
  8
0
 62
     0
 10
177.7706953571305
 20
227.5893735567678
 30
0.0
 70
     8
  0
VERTEX
  5
D2
  8
0
 62
     0
 10
177.7945267336509
 20
227.5723318125608
 30
0.0
 70
     8
  0
VERTEX
  5
D3
  8
0
 62
     0
 10
177.8126033958089
 20
227.5581740100736
 30
0.0
 70
     8
  0
VERTEX
  5
D4
  8
0
 62
     0
 10
177.8257557551839
 20
227.5465885191125
 30
0.0
 70
     8
  0
VERTEX
  5
D5
  8
0
 62
     0
 10
177.8348142233554
 20
227.5372637094841
 30
0.0
 70
     8
  0
VERTEX
  5
D6
  8
0
 62
     0
 10
177.8406092119029
 20
227.5298879509948
 30
0.0
 70
     8
  0
VERTEX
  5
D7
  8
0
 62
     0
 10
177.8439711324057
 20
227.5241496134512
 30
0.0
 70
     8
  0
VERTEX
  5
D8
  8
0
 62
     0
 10
177.8457303964434
 20
227.5197370666598
 30
0.0
 70
     8
  0
VERTEX
  5
D9
  8
0
 62
     0
 10
177.8467174155955
 20
227.516338680427
 30
0.0
 70
     8
  0
VERTEX
  5
DA
  8
0
 62
     0
 10
177.8476262759618
 20
227.5136677400336
 30
0.0
 70
     8
  0
VERTEX
  5
DB
  8
0
 62
     0
 10
177.8486057617242
 20
227.5115371926579
 30
0.0
 70
     8
  0
VERTEX
  5
DC
  8
0
 62
     0
 10
177.8496683315851
 20
227.5097849009523
 30
0.0
 70
     8
  0
VERTEX
  5
DD
  8
0
 62
     0
 10
177.850826444247
 20
227.5082487275692
 30
0.0
 70
     8
  0
VERTEX
  5
DE
  8
0
 62
     0
 10
177.852092558412
 20
227.506766535161
 30
0.0
 70
     8
  0
VERTEX
  5
DF
  8
0
 62
     0
 10
177.8534791327827
 20
227.5051761863803
 30
0.0
 70
     8
  0
VERTEX
  5
E0
  8
0
 62
     0
 10
177.8549986260613
 20
227.5033155438794
 30
0.0
 70
     8
  0
VERTEX
  5
E1
  8
0
 62
     0
 10
177.8566634969502
 20
227.5010224703109
 30
0.0
 70
     8
  0
VERTEX
  5
E2
  8
0
 62
     0
 10
177.858479491882
 20
227.4981711475342
 30
0.0
 70
     8
  0
VERTEX
  5
E3
  8
0
 62
     0
 10
177.8604255082096
 20
227.4947810342373
 30
0.0
 70
     8
  0
VERTEX
  5
E4
  8
0
 62
     0
 10
177.8624737310162
 20
227.4909079083149
 30
0.0
 70
     8
  0
VERTEX
  5
E5
  8
0
 62
     0
 10
177.864596345385
 20
227.486607547662
 30
0.0
 70
     8
  0
VERTEX
  5
E6
  8
0
 62
     0
 10
177.8667655363991
 20
227.4819357301735
 30
0.0
 70
     8
  0
VERTEX
  5
E7
  8
0
 62
     0
 10
177.8689534891417
 20
227.4769482337443
 30
0.0
 70
     8
  0
VERTEX
  5
E8
  8
0
 62
     0
 10
177.8711323886959
 20
227.4717008362693
 30
0.0
 70
     8
  0
VERTEX
  5
E9
  8
0
 62
     0
 10
177.8732744201449
 20
227.4662493156434
 30
0.0
 70
     8
  0
VERTEX
  5
EA
  8
0
 62
     0
 10
177.8753581492438
 20
227.4606487441409
 30
0.0
 70
     8
  0
VERTEX
  5
EB
  8
0
 62
     0
 10
177.8773876644352
 20
227.4549513715539
 30
0.0
 70
     8
  0
VERTEX
  5
EC
  8
0
 62
     0
 10
177.879373434834
 20
227.4492087420541
 30
0.0
 70
     8
  0
VERTEX
  5
ED
  8
0
 62
     0
 10
177.8813259295547
 20
227.4434723998129
 30
0.0
 70
     8
  0
VERTEX
  5
EE
  8
0
 62
     0
 10
177.883255617712
 20
227.4377938890019
 30
0.0
 70
     8
  0
VERTEX
  5
EF
  8
0
 62
     0
 10
177.8851729684205
 20
227.4322247537926
 30
0.0
 70
     8
  0
VERTEX
  5
F0
  8
0
 62
     0
 10
177.887088450795
 20
227.4268165383566
 30
0.0
 70
     8
  0
VERTEX
  5
F1
  8
0
 62
     0
 10
177.8890125339501
 20
227.4216207868654
 30
0.0
 70
     8
  0
VERTEX
  5
F2
  8
0
 62
     0
 10
177.890956569927
 20
227.4166722801825
 30
0.0
 70
     8
  0
VERTEX
  5
F3
  8
0
 62
     0
 10
177.8929354424727
 20
227.4119387459388
 30
0.0
 70
     8
  0
VERTEX
  5
F4
  8
0
 62
     0
 10
177.894964918261
 20
227.4073711484572
 30
0.0
 70
     8
  0
VERTEX
  5
F5
  8
0
 62
     0
 10
177.8970607639653
 20
227.4029204520606
 30
0.0
 70
     8
  0
VERTEX
  5
F6
  8
0
 62
     0
 10
177.8992387462594
 20
227.3985376210717
 30
0.0
 70
     8
  0
VERTEX
  5
F7
  8
0
 62
     0
 10
177.9015146318167
 20
227.3941736198134
 30
0.0
 70
     8
  0
VERTEX
  5
F8
  8
0
 62
     0
 10
177.9039041873111
 20
227.3897794126086
 30
0.0
 70
     8
  0
VERTEX
  5
F9
  8
0
 62
     0
 10
177.9064231794159
 20
227.38530596378
 30
0.0
 70
     8
  0
VERTEX
  5
FA
  8
0
 62
     0
 10
177.9090728936998
 20
227.3807157393288
 30
0.0
 70
     8
  0
VERTEX
  5
FB
  8
0
 62
     0
 10
177.9117966913105
 20
227.3760172119685
 30
0.0
 70
     8
  0
VERTEX
  5
FC
  8
0
 62
     0
 10
177.9145234522905
 20
227.3712303560909
 30
0.0
 70
     8
  0
VERTEX
  5
FD
  8
0
 62
     0
 10
177.9171820566825
 20
227.3663751460877
 30
0.0
 70
     8
  0
VERTEX
  5
FE
  8
0
 62
     0
 10
177.9197013845291
 20
227.3614715563506
 30
0.0
 70
     8
  0
VERTEX
  5
FF
  8
0
 62
     0
 10
177.9220103158729
 20
227.3565395612715
 30
0.0
 70
     8
  0
VERTEX
  5
100
  8
0
 62
     0
 10
177.9240377307564
 20
227.351599135242
 30
0.0
 70
     8
  0
VERTEX
  5
101
  8
0
 62
     0
 10
177.9257125092223
 20
227.346670252654
 30
0.0
 70
     8
  0
VERTEX
  5
102
  8
0
 62
     0
 10
177.9269960425447
 20
227.3417589365275
 30
0.0
 70
     8
  0
VERTEX
  5
103
  8
0
 62
     0
 10
177.9279797669235
 20
227.3368154043957
 30
0.0
 70
     8
  0
VERTEX
  5
104
  8
0
 62
     0
 10
177.9287876297901
 20
227.3317759224202
 30
0.0
 70
     8
  0
VERTEX
  5
105
  8
0
 62
     0
 10
177.9295435785759
 20
227.3265767567626
 30
0.0
 70
     8
  0
VERTEX
  5
106
  8
0
 62
     0
 10
177.9303715607123
 20
227.3211541735844
 30
0.0
 70
     8
  0
VERTEX
  5
107
  8
0
 62
     0
 10
177.9313955236307
 20
227.3154444390472
 30
0.0
 70
     8
  0
VERTEX
  5
108
  8
0
 62
     0
 10
177.9327394147626
 20
227.3093838193126
 30
0.0
 70
     8
  0
VERTEX
  5
109
  8
0
 62
     0
 10
177.9345271815394
 20
227.3029085805422
 30
0.0
 70
     8
  0
VERTEX
  5
10A
  8
0
 62
     0
 10
177.9368395640332
 20
227.2959855683782
 30
0.0
 70
     8
  0
VERTEX
  5
10B
  8
0
 62
     0
 10
177.9395844728797
 20
227.288703946386
 30
0.0
 70
     8
  0
VERTEX
  5
10C
  8
0
 62
     0
 10
177.9426266113553
 20
227.2811834576118
 30
0.0
 70
     8
  0
VERTEX
  5
10D
  8
0
 62
     0
 10
177.9458306827363
 20
227.2735438451017
 30
0.0
 70
     8
  0
VERTEX
  5
10E
  8
0
 62
     0
 10
177.9490613902991
 20
227.2659048519018
 30
0.0
 70
     8
  0
VERTEX
  5
10F
  8
0
 62
     0
 10
177.9521834373203
 20
227.2583862210583
 30
0.0
 70
     8
  0
VERTEX
  5
110
  8
0
 62
     0
 10
177.9550615270761
 20
227.2511076956172
 30
0.0
 70
     8
  0
VERTEX
  5
111
  8
0
 62
     0
 10
177.957560362843
 20
227.2441890186247
 30
0.0
 70
     8
  0
VERTEX
  5
112
  8
0
 62
     0
 10
177.9595757545625
 20
227.2376670648569
 30
0.0
 70
     8
  0
VERTEX
  5
113
  8
0
 62
     0
 10
177.9611279388371
 20
227.2312472360091
 30
0.0
 70
     8
  0
VERTEX
  5
114
  8
0
 62
     0
 10
177.9622682589344
 20
227.2245520655069
 30
0.0
 70
     8
  0
VERTEX
  5
115
  8
0
 62
     0
 10
177.9630480581218
 20
227.2172040867755
 30
0.0
 70
     8
  0
VERTEX
  5
116
  8
0
 62
     0
 10
177.963518679667
 20
227.2088258332405
 30
0.0
 70
     8
  0
VERTEX
  5
117
  8
0
 62
     0
 10
177.9637314668377
 20
227.1990398383271
 30
0.0
 70
     8
  0
VERTEX
  5
118
  8
0
 62
     0
 10
177.9637377629012
 20
227.1874686354609
 30
0.0
 70
     8
  0
VERTEX
  5
119
  8
0
 62
     0
 10
177.9635889111253
 20
227.1737347580671
 30
0.0
 70
     8
  0
VERTEX
  5
11A
  8
0
 62
     0
 10
177.9633183842617
 20
227.1574934257582
 30
0.0
 70
     8
  0
VERTEX
  5
11B
  8
0
 62
     0
 10
177.9628881729986
 20
227.1385306028947
 30
0.0
 70
     8
  0
VERTEX
  5
11C
  8
0
 62
     0
 10
177.9622423975084
 20
227.1166649400243
 30
0.0
 70
     8
  0
VERTEX
  5
11D
  8
0
 62
     0
 10
177.9613251779635
 20
227.0917150876945
 30
0.0
 70
     8
  0
VERTEX
  5
11E
  8
0
 62
     0
 10
177.9600806345362
 20
227.0634996964529
 30
0.0
 70
     8
  0
VERTEX
  5
11F
  8
0
 62
     0
 10
177.9584528873991
 20
227.031837416847
 30
0.0
 70
     8
  0
VERTEX
  5
120
  8
0
 62
     0
 10
177.9563860567244
 20
226.9965468994244
 30
0.0
 70
     8
  0
VERTEX
  5
121
  8
0
 62
     0
 10
177.9538242626845
 20
226.9574467947327
 30
0.0
 70
     8
  0
VERTEX
  5
122
  8
0
 62
     0
 10
177.8426567906276
 20
227.5398066453067
 30
0.0
 70
    16
  0
VERTEX
  5
123
  8
0
 62
     0
 10
177.8460969708619
 20
227.5088450231987
 30
0.0
 70
    16
  0
VERTEX
  5
124
  8
0
 62
     0
 10
177.8549799096148
 20
227.5073645334065
 30
0.0
 70
    16
  0
VERTEX
  5
125
  8
0
 62
     0
 10
177.8739643723802
 20
227.4678316650407
 30
0.0
 70
    16
  0
VERTEX
  5
126
  8
0
 62
     0
 10
177.888809121734
 20
227.4188047002907
 30
0.0
 70
    16
  0
VERTEX
  5
127
  8
0
 62
     0
 10
177.9048743443848
 20
227.386674254989
 30
0.0
 70
    16
  0
VERTEX
  5
128
  8
0
 62
     0
 10
177.9302325772225
 20
227.3463340624334
 30
0.0
 70
    16
  0
VERTEX
  5
129
  8
0
 62
     0
 10
177.9284704020592
 20
227.3080110112013
 30
0.0
 70
    16
  0
VERTEX
  5
12A
  8
0
 62
     0
 10
177.9630489037767
 20
227.2390733760143
 30
0.0
 70
    16
  0
VERTEX
  5
12B
  8
0
 62
     0
 10
177.964696159892
 20
227.2008295964898
 30
0.0
 70
    16
  0
VERTEX
  5
12C
  8
0
 62
     0
 10
177.9613653355689
 20
227.0669543897826
 30
0.0
 70
    16
  0
VERTEX
  5
12D
  8
0
 62
     0
 10
177.9538242626845
 20
226.9574467947327
 30
0.0
 70
    16
  0
SEQEND
  5
12E
  8
0
 62
     0
  0
POLYLINE
  5
12F
  8
0
 62
     0
 66
     1
 10
0.0
 20
0.0
 30
0.0
  0
VERTEX
  5
1FE
  8
0
 62
     0
 10
177.6554540704752
 20
227.7856851215001
 30
0.0
  0
VERTEX
  5
1FF
  8
0
 62
     0
 10
177.6406092383398
 20
227.7557755904173
 30
0.0
  0
VERTEX
  5
200
  8
0
 62
     0
 10
177.5989340510812
 20
227.7382613936154
 30
0.0
 42
0.5734600992796813
  0
VERTEX
  5
201
  8
0
 62
     0
 10
177.5973031900654
 20
227.7259403904289
 30
0.0
  0
VERTEX
  5
202
  8
0
 62
     0
 10
177.6154627172516
 20
227.7118163137286
 30
0.0
  0
SEQEND
  5
209
  8
0
 62
     0
  0
POLYLINE
  5
136
  8
0
 62
     0
 66
     1
 10
0.0
 20
0.0
 30
0.0
  0
VERTEX
  5
203
  8
0
 62
     0
 10
177.6941235530739
 20
227.6351219988019
 30
0.0
 42
-0.2470471550912399
  0
VERTEX
  5
204
  8
0
 62
     0
 10
177.5807278556493
 20
227.6577305308504
 30
0.0
  0
VERTEX
  5
205
  8
0
 62
     0
 10
177.581961303479
 20
227.6698881850444
 30
0.0
  0
VERTEX
  5
206
  8
0
 62
     0
 10
177.5917308797223
 20
227.6770474516061
 30
0.0
  0
VERTEX
  5
207
  8
0
 62
     0
 10
177.5997448041855
 20
227.6996498262524
 30
0.0
  0
VERTEX
  5
208
  8
0
 62
     0
 10
177.6122093675504
 20
227.7143466968295
 30
0.0
  0
SEQEND
  5
20A
  8
0
 62
     0
  0
ARC
  5
13E
  8
0
 62
     0
 10
177.7369283905596
 20
226.1522068266213
 30
0.0
 40
0.0511995919972513
 50
273.2902283831395
 51
316.2578371023881
  0
ARC
  5
13F
  8
0
 62
     0
 10
177.7086209256839
 20
225.9953309614025
 30
0.0
 40
0.1009970886419939
 50
94.5718073699387
 51
124.5744442908816
  0
LINE
  5
140
  8
0
 62
     0
 10
177.5867179731807
 20
226.0598803837388
 30
0.0
 11
177.6469284994965
 21
226.0598803837388
 31
0.0
  0
LINE
  5
141
  8
0
 62
     0
 10
177.599854815286
 20
226.0927224890019
 30
0.0
 11
177.5867179731807
 21
226.0598803837388
 31
0.0
  0
LINE
  5
142
  8
0
 62
     0
 10
177.684149552128
 20
226.1157119626862
 30
0.0
 11
177.599854815286
 21
226.0927224890019
 31
0.0
  0
LINE
  5
143
  8
0
 62
     0
 10
177.7072562468232
 20
226.1283401730043
 30
0.0
 11
177.684149552128
 21
226.1157119626862
 31
0.0
  0
LINE
  5
144
  8
0
 62
     0
 10
177.7016653416017
 20
226.0949119626862
 30
0.0
 11
177.7398669277589
 21
226.1010916310351
 31
0.0
  0
LINE
  5
145
  8
0
 62
     0
 10
177.6469284994965
 20
226.0565961732125
 30
0.0
 11
177.6513074468649
 21
226.0784909100546
 31
0.0
  0
LINE
  5
146
  8
0
 62
     0
 10
177.7651600784438
 20
226.0555014363704
 30
0.0
 11
177.6469284994965
 21
226.0565961732125
 31
0.0
  0
LINE
  5
147
  8
0
 62
     0
 10
177.8111390258123
 20
226.0675435416335
 30
0.0
 11
177.7651600784438
 21
226.0555014363704
 31
0.0
  0
LINE
  5
148
  8
0
 62
     0
 10
177.8111390258123
 20
226.0544066995283
 30
0.0
 11
177.8111390258123
 21
226.0675435416335
 31
0.0
  0
LINE
  5
149
  8
0
 62
     0
 10
177.8850528909974
 20
226.055509891546
 30
0.0
 11
177.8111390258123
 21
226.0544066995283
 31
0.0
  0
LINE
  5
14A
  8
0
 62
     0
 10
177.8932442889702
 20
226.1168066995283
 30
0.0
 11
177.7684684846298
 21
226.116097725443
 31
0.0
  0
LINE
  5
14B
  8
0
 62
     0
 10
177.8896272467412
 20
226.2098090127155
 30
0.0
 11
177.8932442889702
 21
226.1168066995283
 31
0.0
  0
LINE
  5
14C
  8
0
 62
     0
 10
177.7684684846298
 20
226.116097725443
 30
0.0
 11
177.7684684846298
 21
226.312188360494
 31
0.0
  0
LINE
  5
14D
  8
0
 62
     0
 10
177.697812955108
 20
226.1302288313473
 30
0.0
 11
177.7684684846298
 21
226.116097725443
 31
0.0
  0
LINE
  5
14E
  8
0
 62
     0
 10
177.7306484789299
 20
226.4678668794643
 30
0.0
 11
177.697812955108
 21
226.1302288313473
 31
0.0
  0
LINE
  5
14F
  8
0
 62
     0
 10
177.811683960199
 20
227.2310169381053
 30
0.0
 11
177.7890885537681
 21
227.2221416372336
 31
0.0
  0
LINE
  5
150
  8
0
 62
     0
 10
177.7990700604695
 20
227.259027913666
 30
0.0
 11
177.7702881963676
 21
227.2156400276954
 31
0.0
  0
LINE
  5
151
  8
0
 62
     0
 10
177.6173528331975
 20
227.1585126036517
 30
0.0
 11
177.6418130215996
 21
227.1334355160645
 31
0.0
  0
LINE
  5
152
  8
0
 62
     0
 10
177.7717231472279
 20
227.0072066222976
 30
0.0
 11
177.7217358541713
 21
227.0215846321541
 31
0.0
  0
LINE
  5
153
  8
0
 62
     0
 10
177.8460523387629
 20
227.021821865619
 30
0.0
 11
177.7717231472279
 21
227.0072066222976
 31
0.0
  0
LINE
  5
154
  8
0
 62
     0
 10
177.8398856812728
 20
227.0751217854054
 30
0.0
 11
177.8460523387629
 21
227.021821865619
 31
0.0
  0
LINE
  5
155
  8
0
 62
     0
 10
177.6849807394121
 20
227.5401808293149
 30
0.0
 11
177.5985452092643
 21
227.3459895972297
 31
0.0
  0
LINE
  5
156
  8
0
 62
     0
 10
177.5902230108296
 20
227.281953054748
 30
0.0
 11
177.6036635918783
 21
227.3853738450662
 31
0.0
  0
LINE
  5
157
  8
0
 62
     0
 10
177.6115296754605
 20
227.3558760316328
 30
0.0
 11
177.5898979456094
 21
227.2850812793928
 31
0.0
  0
LINE
  5
158
  8
0
 62
     0
 10
177.7236213665072
 20
227.4915659734263
 30
0.0
 11
177.6115296754605
 21
227.3558760316328
 31
0.0
  0
LINE
  5
159
  8
0
 62
     0
 10
177.7084972296988
 20
227.5420647167792
 30
0.0
 11
177.7236213665072
 21
227.4915659734263
 31
0.0
  0
LINE
  5
15A
  8
0
 62
     0
 10
177.6705253023272
 20
227.5485950793974
 30
0.0
 11
177.717915491683
 21
227.581624605312
 31
0.0
  0
LINE
  5
15B
  8
0
 62
     0
 10
177.6646257396405
 20
227.5584276838752
 30
0.0
 11
177.6705253023272
 21
227.5485950793974
 31
0.0
  0
SOLID
  5
15C
  8
0
 62
     0
 10
177.644960530685
 20
227.5466285585019
 30
0.0
 11
177.6016970709827
 21
227.3814408032751
 31
0.0
 12
177.6488935724761
 22
227.5466285585019
 32
0.0
 13
177.6429940097894
 23
227.4542020764107
 33
0.0
  0
SOLID
  5
15D
  8
0
 62
     0
 10
177.6543077882864
 20
227.5904577677137
 30
0.0
 11
177.6370944471027
 21
227.5702268092485
 31
0.0
 12
177.6646257396405
 22
227.5584276838752
 32
0.0
 13
177.6429940097894
 23
227.5466285585019
 33
0.0
  0
SOLID
  5
15E
  8
0
 62
     0
 10
177.6488935724761
 20
227.7511467316397
 30
0.0
 11
177.644960530685
 21
227.741314127162
 31
0.0
 12
177.6528266142672
 22
227.7452471689531
 32
0.0
 13
177.6528266142672
 23
227.7452471689531
 33
0.0
  0
LINE
  5
15F
  8
0
 62
     0
 10
177.6488935724761
 20
227.7531132525353
 30
0.0
 11
177.6587261769538
 21
227.7373810853709
 31
0.0
  0
LINE
  5
160
  8
0
 62
     0
 10
177.5971617619068
 20
227.6923646453679
 30
0.0
 11
177.6075966336694
 21
227.6842850211908
 31
0.0
  0
ARC
  5
161
  8
0
 62
     0
 10
177.6835004843145
 20
227.7172531656163
 30
0.0
 40
0.04567131205222
 50
258.5809689800623
 51
326.6587609160206
  0
SOLID
  5
162
  8
0
 62
     0
 10
177.8250266400577
 20
227.7142007372877
 30
0.0
 11
177.7258006480902
 21
227.6944582597381
 31
0.0
 12
177.7649955219193
 22
227.6225957145803
 32
0.0
 13
177.739482080666
 23
227.6276879662204
 33
0.0
  0
SOLID
  5
163
  8
0
 62
     0
 10
177.6956621098518
 20
227.7191525600116
 30
0.0
 11
177.8250266400577
 21
227.7142007372877
 31
0.0
 12
177.6771964552172
 22
227.6982555739639
 32
0.0
 13
177.7258006480902
 23
227.6944582597381
 33
0.0
  0
SOLID
  5
164
  8
0
 62
     0
 10
177.6801832702426
 20
227.7491151050876
 30
0.0
 11
177.8240577636299
 21
227.7558715640257
 31
0.0
 12
177.6956621098518
 22
227.7191525600116
 32
0.0
 13
177.8250266400577
 23
227.7142007372877
 33
0.0
  0
SOLID
  5
165
  8
0
 62
     0
 10
177.7052740952428
 20
227.7948031128634
 30
0.0
 11
177.8055483184398
 21
227.7857636453615
 31
0.0
 12
177.6801832702426
 22
227.7491151050876
 32
0.0
 13
177.8240577636299
 23
227.7558715640257
 33
0.0
  0
SOLID
  5
166
  8
0
 62
     0
 10
177.6518773709077
 20
227.8091018510122
 30
0.0
 11
177.7216548456117
 21
227.8219414838798
 31
0.0
 12
177.6567596560583
 22
227.7865441077598
 32
0.0
 13
177.8055483184398
 23
227.7857636453615
 33
0.0
  0
LINE
  5
167
  8
0
 62
     0
 10
177.9510760349954
 20
226.9508648468563
 30
0.0
 11
177.953709304415
 21
226.9547074797097
 31
0.0
  0
LINE
  5
168
  8
0
 62
     0
 10
177.6488105363282
 20
227.6149669344811
 30
0.0
 11
177.6305949886764
 21
227.6332944208404
 31
0.0
  0
LINE
  5
169
  8
0
 62
     0
 10
177.6543077882864
 20
227.5904577677137
 30
0.0
 11
177.6488105363282
 21
227.6149669344811
 31
0.0
  0
LINE
  5
16A
  8
0
 62
     0
 10
177.739482080666
 20
227.6276879662204
 30
0.0
 11
177.6543077882864
 21
227.5904577677137
 31
0.0
  0
LINE
  5
16B
  8
0
 62
     0
 10
177.9538242626845
 20
226.9574467947327
 30
0.0
 11
177.8975370693927
 21
226.9593418001325
 31
0.0
  0
LINE
  5
16C
  8
0
 62
     0
 10
177.9491456970145
 20
226.9390611225295
 30
0.0
 11
177.9521323458519
 21
226.9573240277229
 31
0.0
  0
LINE
  5
16D
  8
0
 62
     0
 10
177.7551629174415
 20
227.628495277267
 30
0.0
 11
177.6849807394121
 21
227.5401808293149
 31
0.0
  0
LINE
  5
16E
  8
0
 62
     0
 10
177.7706953571305
 20
227.5893735567678
 30
0.0
 11
177.7649955219193
 21
227.6225957145803
 31
0.0
  0
LINE
  5
16F
  8
0
 62
     0
 10
177.7351559560125
 20
227.5366200633441
 30
0.0
 11
177.7706953571305
 21
227.5893735567678
 31
0.0
  0
LINE
  5
170
  8
0
 62
     0
 10
177.7084972296988
 20
227.5420647167792
 30
0.0
 11
177.7351559560125
 21
227.5366200633441
 31
0.0
  0
LINE
  5
171
  8
0
 62
     0
 10
177.5994201077126
 20
227.1961269727717
 30
0.0
 11
177.5902230108296
 21
227.281953054748
 31
0.0
  0
LINE
  5
172
  8
0
 62
     0
 10
177.6237263588507
 20
227.1451439639146
 30
0.0
 11
177.5994201077126
 21
227.1961269727717
 31
0.0
  0
LINE
  5
173
  8
0
 62
     0
 10
177.6064055738064
 20
227.0424030112463
 30
0.0
 11
177.6237263588507
 21
227.1451439639146
 31
0.0
  0
LINE
  5
174
  8
0
 62
     0
 10
177.6083692520003
 20
226.8601350028867
 30
0.0
 11
177.6064055738064
 21
227.0424030112463
 31
0.0
  0
LINE
  5
175
  8
0
 62
     0
 10
177.7187202886104
 20
226.5155088151
 30
0.0
 11
177.6595546779224
 21
226.8431316370494
 31
0.0
  0
LINE
  5
176
  8
0
 62
     0
 10
177.7538182111297
 20
226.3753255248581
 30
0.0
 11
177.7187202886104
 21
226.5155088151
 31
0.0
  0
LINE
  5
177
  8
0
 62
     0
 10
177.7684684846298
 20
226.312188360494
 30
0.0
 11
177.7538182111297
 21
226.3753255248581
 31
0.0
  0
LINE
  5
178
  8
0
 62
     0
 10
177.8817133156022
 20
226.1167411807257
 30
0.0
 11
177.8850528909974
 21
226.055509891546
 31
0.0
  0
LINE
  5
179
  8
0
 62
     0
 10
177.8937893623048
 20
226.2728304474342
 30
0.0
 11
177.8896272467412
 21
226.2098090127155
 31
0.0
  0
LINE
  5
17A
  8
0
 62
     0
 10
177.8840372803737
 20
226.3662242353955
 30
0.0
 11
177.8937893623048
 21
226.2728304474342
 31
0.0
  0
LINE
  5
17B
  8
0
 62
     0
 10
177.8702416765962
 20
226.5031125148426
 30
0.0
 11
177.8840372803737
 21
226.3662242353955
 31
0.0
  0
LINE
  5
17C
  8
0
 62
     0
 10
177.8484640599841
 20
226.5920573651693
 30
0.0
 11
177.8702416765962
 21
226.5031125148426
 31
0.0
  0
LINE
  5
17D
  8
0
 62
     0
 10
177.8419189091725
 20
226.7105417288486
 30
0.0
 11
177.8484640599841
 21
226.5920573651693
 31
0.0
  0
LINE
  5
17E
  8
0
 62
     0
 10
177.8608164865919
 20
226.7780695075734
 30
0.0
 11
177.8419189091725
 21
226.7105417288486
 31
0.0
  0
LINE
  5
17F
  8
0
 62
     0
 10
177.8712420776218
 20
226.8581862684089
 30
0.0
 11
177.8608164865919
 21
226.7780695075734
 31
0.0
  0
ENDSEC
  0
EOF
