  0
SECTION
  2
HEADER
  9
$ACADVER
  1
AC1009
  9
$DWGCODEPAGE
  3
ansi_1252
  9
$INSBASE
 10
0.0
 20
0.0
 30
0.0
  9
$EXTMIN
 10
368.6462818129925
 20
400.4575281473117
 30
0.0
  9
$EXTMAX
 10
468.7702722971152
 20
581.9201268941118
 30
0.0
  9
$LIMMIN
 10
0.0
 20
0.0
  9
$LIMMAX
 10
410.0
 20
287.0
  9
$ORTHOMODE
 70
     0
  9
$REGENMODE
 70
     1
  9
$FILLMODE
 70
     1
  9
$QTEXTMODE
 70
     0
  9
$MIRRTEXT
 70
     1
  9
$DRAGMODE
 70
     2
  9
$LTSCALE
 40
25.0
  9
$OSMODE
 70
    37
  9
$ATTMODE
 70
     1
  9
$TEXTSIZE
 40
3.5
  9
$TRACEWID
 40
1.0
  9
$TEXTSTYLE
  7
STANDARD
  9
$CLAYER
  8
0
  9
$CELTYPE
  6
BYLAYER
  9
$CECOLOR
 62
   256
  9
$DIMSCALE
 40
1.0
  9
$DIMASZ
 40
3.5
  9
$DIMEXO
 40
0.1
  9
$DIMDLI
 40
7.0
  9
$DIMRND
 40
0.0
  9
$DIMDLE
 40
0.0
  9
$DIMEXE
 40
1.8
  9
$DIMTP
 40
0.0
  9
$DIMTM
 40
0.0
  9
$DIMTXT
 40
3.5
  9
$DIMCEN
 40
1.5
  9
$DIMTSZ
 40
0.0
  9
$DIMTOL
 70
     0
  9
$DIMLIM
 70
     0
  9
$DIMTIH
 70
     0
  9
$DIMTOH
 70
     0
  9
$DIMSE1
 70
     0
  9
$DIMSE2
 70
     0
  9
$DIMTAD
 70
     0
  9
$DIMZIN
 70
     0
  9
$DIMBLK
  1

  9
$DIMASO
 70
     1
  9
$DIMSHO
 70
     0
  9
$DIMPOST
  1

  9
$DIMAPOST
  1

  9
$DIMALT
 70
     0
  9
$DIMALTD
 70
     2
  9
$DIMALTF
 40
25.4
  9
$DIMLFAC
 40
1.0
  9
$DIMTOFL
 70
     0
  9
$DIMTVP
 40
0.0
  9
$DIMTIX
 70
     0
  9
$DIMSOXD
 70
     0
  9
$DIMSAH
 70
     0
  9
$DIMBLK1
  1

  9
$DIMBLK2
  1

  9
$DIMSTYLE
  2
STANDARD
  9
$DIMCLRD
 70
     0
  9
$DIMCLRE
 70
     0
  9
$DIMCLRT
 70
     0
  9
$DIMTFAC
 40
1.0
  9
$DIMGAP
 40
0.09
  9
$LUNITS
 70
     2
  9
$LUPREC
 70
     2
  9
$SKETCHINC
 40
1.0
  9
$FILLETRAD
 40
0.0
  9
$AUNITS
 70
     0
  9
$AUPREC
 70
     0
  9
$MENU
  1
acad
  9
$ELEVATION
 40
0.0
  9
$PELEVATION
 40
0.0
  9
$THICKNESS
 40
0.0
  9
$LIMCHECK
 70
     0
  9
$CHAMFERA
 40
0.0
  9
$CHAMFERB
 40
0.0
  9
$SKPOLY
 70
     0
  9
$TDCREATE
 40
2450495.032932407
  9
$TDUPDATE
 40
2457483.532743055
  9
$TDINDWG
 40
0.0334251736
  9
$TDUSRTIMER
 40
0.0334251736
  9
$USRTIMER
 70
     1
  9
$ANGBASE
 50
0.0
  9
$ANGDIR
 70
     0
  9
$PDMODE
 70
     0
  9
$PDSIZE
 40
0.0
  9
$PLINEWID
 40
0.0
  9
$COORDS
 70
     1
  9
$SPLFRAME
 70
     0
  9
$SPLINETYPE
 70
     6
  9
$SPLINESEGS
 70
     8
  9
$ATTDIA
 70
     0
  9
$ATTREQ
 70
     1
  9
$HANDLING
 70
     1
  9
$HANDSEED
  5
7FB
  9
$SURFTAB1
 70
     6
  9
$SURFTAB2
 70
     6
  9
$SURFTYPE
 70
     6
  9
$SURFU
 70
     6
  9
$SURFV
 70
     6
  9
$UCSNAME
  2

  9
$UCSORG
 10
0.0
 20
0.0
 30
0.0
  9
$UCSXDIR
 10
1.0
 20
0.0
 30
0.0
  9
$UCSYDIR
 10
0.0
 20
1.0
 30
0.0
  9
$PUCSNAME
  2

  9
$PUCSORG
 10
0.0
 20
0.0
 30
0.0
  9
$PUCSXDIR
 10
1.0
 20
0.0
 30
0.0
  9
$PUCSYDIR
 10
0.0
 20
1.0
 30
0.0
  9
$USERI1
 70
     0
  9
$USERI2
 70
     0
  9
$USERI3
 70
     0
  9
$USERI4
 70
     0
  9
$USERI5
 70
     0
  9
$USERR1
 40
0.0
  9
$USERR2
 40
0.0
  9
$USERR3
 40
0.0
  9
$USERR4
 40
0.0
  9
$USERR5
 40
0.0
  9
$WORLDVIEW
 70
     1
  9
$SHADEDGE
 70
     3
  9
$SHADEDIF
 70
    70
  9
$TILEMODE
 70
     1
  9
$MAXACTVP
 70
    16
  9
$PLIMCHECK
 70
     0
  9
$PEXTMIN
 10
1.000000000000000E+20
 20
1.000000000000000E+20
 30
1.000000000000000E+20
  9
$PEXTMAX
 10
-1.000000000000000E+20
 20
-1.000000000000000E+20
 30
-1.000000000000000E+20
  9
$PLIMMIN
 10
0.0
 20
0.0
  9
$PLIMMAX
 10
12.0
 20
9.0
  9
$UNITMODE
 70
     0
  9
$VISRETAIN
 70
     0
  9
$PLINEGEN
 70
     0
  9
$PSLTSCALE
 70
     0
  0
ENDSEC
  0
SECTION
  2
TABLES
  0
TABLE
  2
VPORT
 70
     1
  0
VPORT
  2
*ACTIVE
 70
     0
 10
0.0
 20
0.0
 11
1.0
 21
1.0
 12
418.7059656901978
 22
511.324395583177
 13
0.0
 23
0.0
 14
1.0
 24
1.0
 15
10.0
 25
10.0
 16
0.0
 26
0.0
 36
1.0
 17
0.0
 27
0.0
 37
0.0
 40
223.7861370882869
 41
1.503537735849057
 42
50.0
 43
0.0
 44
0.0
 50
0.0
 51
0.0
 71
     0
 72
   100
 73
     1
 74
     1
 75
     0
 76
     0
 77
     0
 78
     0
  0
ENDTAB
  0
TABLE
  2
LTYPE
 70
     1
  0
LTYPE
  2
CONTINUOUS
 70
     0
  3
Solid Line
 72
    65
 73
     0
 40
0.0
  0
ENDTAB
  0
TABLE
  2
LAYER
 70
     8
  0
LAYER
  2
0
 70
     0
 62
     7
  6
CONTINUOUS
  0
LAYER
  2
7
 70
     0
 62
     7
  6
CONTINUOUS
  0
LAYER
  2
1
 70
     0
 62
     7
  6
CONTINUOUS
  0
LAYER
  2
2
 70
     0
 62
     7
  6
CONTINUOUS
  0
LAYER
  2
6
 70
     0
 62
     7
  6
CONTINUOUS
  0
LAYER
  2
4
 70
     0
 62
     7
  6
CONTINUOUS
  0
LAYER
  2
3
 70
     0
 62
     7
  6
CONTINUOUS
  0
LAYER
  2
5
 70
     0
 62
     7
  6
CONTINUOUS
  0
ENDTAB
  0
TABLE
  2
STYLE
 70
     1
  0
STYLE
  2
STANDARD
 70
     0
 40
0.0
 41
1.0
 50
0.0
 71
     0
 42
3.5
  3
txt
  4

  0
ENDTAB
  0
TABLE
  2
VIEW
 70
     0
  0
ENDTAB
  0
TABLE
  2
UCS
 70
     0
  0
ENDTAB
  0
TABLE
  2
APPID
 70
     2
  0
APPID
  2
ACAD
 70
     0
  0
APPID
  2
DCO15
 70
     0
  0
ENDTAB
  0
TABLE
  2
DIMSTYLE
 70
     1
  0
DIMSTYLE
  2
STANDARD
 70
     0
  3

  4

  5

  6

  7

 40
1.0
 41
0.18
 42
0.0625
 43
0.38
 44
0.18
 45
0.0
 46
0.0
 47
0.0
 48
0.0
140
0.18
141
0.09
142
0.0
143
25.4
144
1.0
145
0.0
146
1.0
147
0.09
 71
     0
 72
     0
 73
     1
 74
     1
 75
     0
 76
     0
 77
     0
 78
     0
170
     0
171
     2
172
     0
173
     0
174
     0
175
     0
176
     0
177
     0
178
     0
  0
ENDTAB
  0
ENDSEC
  0
SECTION
  2
BLOCKS
  0
BLOCK
  8
0
  2
$MODEL_SPACE
 70
     0
 10
0.0
 20
0.0
 30
0.0
  3
$MODEL_SPACE
  1

  0
ENDBLK
  5
28
  8
0
  0
BLOCK
 67
     1
  8
0
  2
$PAPER_SPACE
 70
     0
 10
0.0
 20
0.0
 30
0.0
  3
$PAPER_SPACE
  1

  0
ENDBLK
  5
26
 67
     1
  8
0
  0
ENDSEC
  0
SECTION
  2
ENTITIES
  0
POLYLINE
  5
29
  8
7
  6
CONTINUOUS
 66
     1
 10
0.0
 20
0.0
 30
0.0
  0
VERTEX
  5
45A
  8
7
  6
CONTINUOUS
 10
408.9404995609927
 20
558.1025298402993
 30
0.0
  0
VERTEX
  5
45B
  8
7
  6
CONTINUOUS
 10
409.3947967333593
 20
558.1615496438889
 30
0.0
  0
VERTEX
  5
45C
  8
7
  6
CONTINUOUS
 10
409.8289029202872
 20
558.2011550384029
 30
0.0
  0
VERTEX
  5
45D
  8
7
  6
CONTINUOUS
 10
410.2630091072152
 20
558.2407604329169
 30
0.0
  0
VERTEX
  5
45E
  8
7
  6
CONTINUOUS
 10
410.6777008850677
 20
558.2601748419925
 30
0.0
  0
VERTEX
  5
45F
  8
7
  6
CONTINUOUS
 10
411.1118070719957
 20
558.2795892510678
 30
0.0
  0
VERTEX
  5
460
  8
7
  6
CONTINUOUS
 10
411.5257222734851
 20
558.2795892510678
 30
0.0
  0
VERTEX
  5
461
  8
7
  6
CONTINUOUS
 10
411.9404140513377
 20
558.2795892510678
 30
0.0
  0
VERTEX
  5
462
  8
7
  6
CONTINUOUS
 10
412.3543292528271
 20
558.2795892510678
 30
0.0
  0
VERTEX
  5
463
  8
7
  6
CONTINUOUS
 10
412.7496066216041
 20
558.2601748419925
 30
0.0
  0
VERTEX
  5
464
  8
7
  6
CONTINUOUS
 10
413.1635218230936
 20
558.2407604329169
 30
0.0
  0
VERTEX
  5
465
  8
7
  6
CONTINUOUS
 10
413.5580226155076
 20
558.2205694474784
 30
0.0
  0
VERTEX
  5
466
  8
7
  6
CONTINUOUS
 10
413.97271439336
 20
558.1809640529643
 30
0.0
  0
VERTEX
  5
467
  8
7
  6
CONTINUOUS
 10
414.367215185774
 20
558.1421352348134
 30
0.0
  0
VERTEX
  5
468
  8
7
  6
CONTINUOUS
 10
414.761715978188
 20
558.1025298402993
 30
0.0
  0
VERTEX
  5
469
  8
7
  6
CONTINUOUS
 10
415.156993346965
 20
558.0629244457854
 30
0.0
  0
VERTEX
  5
46A
  8
7
  6
CONTINUOUS
 10
415.551494139379
 20
558.0233190512713
 30
0.0
  0
VERTEX
  5
46B
  8
7
  6
CONTINUOUS
 10
415.9459949317929
 20
557.9837136567573
 30
0.0
  0
VERTEX
  5
46C
  8
7
  6
CONTINUOUS
 10
416.340495724207
 20
557.9246938531679
 30
0.0
  0
VERTEX
  5
46D
  8
7
  6
CONTINUOUS
 10
416.7349965166209
 20
557.8850884586539
 30
0.0
  0
VERTEX
  5
46E
  8
7
  6
CONTINUOUS
 10
417.1496882944734
 20
557.8260686550643
 30
0.0
  0
VERTEX
  5
46F
  8
7
  6
CONTINUOUS
 10
417.5441890868874
 20
557.7864632605504
 30
0.0
  0
VERTEX
  5
470
  8
7
  6
CONTINUOUS
 10
417.9386898793014
 20
557.7274434569608
 30
0.0
  0
VERTEX
  5
471
  8
7
  6
CONTINUOUS
 10
418.3533816571539
 20
557.6878380624469
 30
0.0
  0
VERTEX
  5
472
  8
7
  6
CONTINUOUS
 10
418.7672968586433
 20
557.6482326679329
 30
0.0
  0
VERTEX
  5
473
  8
7
  6
CONTINUOUS
 10
419.1812120601328
 20
557.6086272734188
 30
0.0
  0
VERTEX
  5
474
  8
7
  6
CONTINUOUS
 10
419.5959038379853
 20
557.5697984552679
 30
0.0
  0
VERTEX
  5
475
  8
7
  6
CONTINUOUS
 10
420.0098190394748
 20
557.5301930607538
 30
0.0
  0
VERTEX
  5
476
  8
7
  6
CONTINUOUS
 10
420.4245108173272
 20
557.5100020753154
 30
0.0
  0
VERTEX
  5
477
  8
7
  6
CONTINUOUS
 10
420.8586170042553
 20
557.4905876662399
 30
0.0
  0
VERTEX
  5
478
  8
7
  6
CONTINUOUS
 10
421.2927231911832
 20
557.4711732571644
 30
0.0
  0
VERTEX
  5
479
  8
7
  6
CONTINUOUS
 10
421.7268293781112
 20
557.4509822717259
 30
0.0
  0
VERTEX
  5
47A
  8
7
  6
CONTINUOUS
 10
422.1811265504777
 20
557.4509822717259
 30
0.0
  0
VERTEX
  5
47B
  8
7
  6
CONTINUOUS
 10
423.7793207055721
 20
555.9319989056595
 30
0.0
  0
VERTEX
  5
47C
  8
7
  6
CONTINUOUS
 10
423.0687533334092
 20
558.8519260306133
 30
0.0
  0
VERTEX
  5
47D
  8
7
  6
CONTINUOUS
 10
422.9507137262302
 20
559.3846574156448
 30
0.0
  0
VERTEX
  5
47E
  8
7
  6
CONTINUOUS
 10
422.6152327374057
 20
559.8187636025727
 30
0.0
  0
VERTEX
  5
47F
  8
7
  6
CONTINUOUS
 10
422.1019157614497
 20
560.1348301823218
 30
0.0
  0
VERTEX
  5
480
  8
7
  6
CONTINUOUS
 10
421.4115393747252
 20
560.3716859730428
 30
0.0
  0
VERTEX
  5
481
  8
7
  6
CONTINUOUS
 10
420.6023468044588
 20
560.5293309747358
 30
0.0
  0
VERTEX
  5
482
  8
7
  6
CONTINUOUS
 10
419.6751146270133
 20
560.6085417637637
 30
0.0
  0
VERTEX
  5
483
  8
7
  6
CONTINUOUS
 10
418.6880860696153
 20
560.6481471582778
 30
0.0
  0
VERTEX
  5
484
  8
7
  6
CONTINUOUS
 10
417.6630052704294
 20
560.6279561728393
 30
0.0
  0
VERTEX
  5
485
  8
7
  6
CONTINUOUS
 10
416.5975425003664
 20
560.5689363692497
 30
0.0
  0
VERTEX
  5
486
  8
7
  6
CONTINUOUS
 10
415.551494139379
 20
560.4897255802218
 30
0.0
  0
VERTEX
  5
487
  8
7
  6
CONTINUOUS
 10
414.5450511729056
 20
560.3911003821182
 30
0.0
  0
VERTEX
  5
488
  8
7
  6
CONTINUOUS
 10
413.5976280100216
 20
560.2730607749393
 30
0.0
  0
VERTEX
  5
489
  8
7
  6
CONTINUOUS
 10
412.7496066216041
 20
560.1744355768358
 30
0.0
  0
VERTEX
  5
48A
  8
7
  6
CONTINUOUS
 10
412.0188482640026
 20
560.0952247878078
 30
0.0
  0
VERTEX
  5
48B
  8
7
  6
CONTINUOUS
 10
411.4472880608201
 20
560.0362049842183
 30
0.0
  0
VERTEX
  5
48C
  8
7
  6
CONTINUOUS
 10
411.0520106920432
 20
560.0167905751427
 30
0.0
  0
VERTEX
  5
48D
  8
7
  6
CONTINUOUS
 10
410.8151549013222
 20
559.9771851806288
 30
0.0
  0
VERTEX
  5
48E
  8
7
  6
CONTINUOUS
 10
410.4998648979362
 20
559.8979743916008
 30
0.0
  0
VERTEX
  5
48F
  8
7
  6
CONTINUOUS
 10
410.1441929236732
 20
559.7403293899079
 30
0.0
  0
VERTEX
  5
490
  8
7
  6
CONTINUOUS
 10
409.7892975257732
 20
559.5430789937008
 30
0.0
  0
VERTEX
  5
491
  8
7
  6
CONTINUOUS
 10
409.4740075223872
 20
559.2666178084658
 30
0.0
  0
VERTEX
  5
492
  8
7
  6
CONTINUOUS
 10
409.1975463371523
 20
558.9505512287168
 30
0.0
  0
VERTEX
  5
493
  8
7
  6
CONTINUOUS
 10
409.0002959409453
 20
558.5560504363028
 30
0.0
  0
VERTEX
  5
494
  8
7
  6
CONTINUOUS
 10
408.9404995609927
 20
558.1025298402993
 30
0.0
  0
SEQEND
  5
7F8
  8
7
  6
CONTINUOUS
  0
POLYLINE
  5
66
  8
7
  6
CONTINUOUS
 66
     1
 10
0.0
 20
0.0
 30
0.0
  0
VERTEX
  5
495
  8
7
  6
CONTINUOUS
 10
408.9606905464312
 20
558.1809640529643
 30
0.0
  0
VERTEX
  5
496
  8
7
  6
CONTINUOUS
 10
408.9606905464312
 20
558.1809640529643
 30
0.0
  0
VERTEX
  5
497
  8
7
  6
CONTINUOUS
 10
408.9404995609927
 20
558.1615496438889
 30
0.0
  0
VERTEX
  5
498
  8
7
  6
CONTINUOUS
 10
408.5661897540173
 20
557.8656740495784
 30
0.0
  0
VERTEX
  5
499
  8
7
  6
CONTINUOUS
 10
408.2307087651928
 20
557.4711732571644
 30
0.0
  0
VERTEX
  5
49A
  8
7
  6
CONTINUOUS
 10
407.9348331708824
 20
557.0168760847979
 30
0.0
  0
VERTEX
  5
49B
  8
7
  6
CONTINUOUS
 10
407.6583719856474
 20
556.5431645033559
 30
0.0
  0
VERTEX
  5
49C
  8
7
  6
CONTINUOUS
 10
407.3624963913368
 20
556.070229498277
 30
0.0
  0
VERTEX
  5
49D
  8
7
  6
CONTINUOUS
 10
407.0270154025123
 20
555.596517916835
 30
0.0
  0
VERTEX
  5
49E
  8
7
  6
CONTINUOUS
 10
406.6519290191738
 20
555.1818261389825
 30
0.0
  0
VERTEX
  5
49F
  8
7
  6
CONTINUOUS
 10
406.1782174377319
 20
554.846345150158
 30
0.0
  0
VERTEX
  5
4A0
  8
7
  6
CONTINUOUS
 10
392.9181760391714
 20
551.5117262473516
 30
0.0
  0
VERTEX
  5
4A1
  8
7
  6
CONTINUOUS
 10
392.2472140615225
 20
551.4527064437622
 30
0.0
  0
VERTEX
  5
4A2
  8
7
  6
CONTINUOUS
 10
391.6546862965386
 20
551.3734956547341
 30
0.0
  0
VERTEX
  5
4A3
  8
7
  6
CONTINUOUS
 10
391.121954911507
 20
551.2546794711922
 30
0.0
  0
VERTEX
  5
4A4
  8
7
  6
CONTINUOUS
 10
390.6288289209896
 20
551.1172254549376
 30
0.0
  0
VERTEX
  5
4A5
  8
7
  6
CONTINUOUS
 10
390.1947227340616
 20
550.9393894678062
 30
0.0
  0
VERTEX
  5
4A6
  8
7
  6
CONTINUOUS
 10
389.7800309562091
 20
550.7219480861606
 30
0.0
  0
VERTEX
  5
4A7
  8
7
  6
CONTINUOUS
 10
389.4057211492336
 20
550.4850922954397
 30
0.0
  0
VERTEX
  5
4A8
  8
7
  6
CONTINUOUS
 10
389.0702401604091
 20
550.2094076865677
 30
0.0
  0
VERTEX
  5
4A9
  8
7
  6
CONTINUOUS
 10
388.7145681861462
 20
549.8933411068186
 30
0.0
  0
VERTEX
  5
4AA
  8
7
  6
CONTINUOUS
 10
388.3992781827602
 20
549.5384457089187
 30
0.0
  0
VERTEX
  5
4AB
  8
7
  6
CONTINUOUS
 10
388.0637971939357
 20
549.1439449165048
 30
0.0
  0
VERTEX
  5
4AC
  8
7
  6
CONTINUOUS
 10
387.7283162051112
 20
548.7098387295769
 30
0.0
  0
VERTEX
  5
4AD
  8
7
  6
CONTINUOUS
 10
387.3726442308482
 20
548.2361271481348
 30
0.0
  0
VERTEX
  5
4AE
  8
7
  6
CONTINUOUS
 10
386.9983344238727
 20
547.7228101721788
 30
0.0
  0
VERTEX
  5
4AF
  8
7
  6
CONTINUOUS
 10
386.6030570550957
 20
547.1706643780718
 30
0.0
  0
VERTEX
  5
4B0
  8
7
  6
CONTINUOUS
 10
386.1495364590922
 20
546.578136613088
 30
0.0
  0
VERTEX
  5
4B1
  8
7
  6
CONTINUOUS
 10
386.0307202755503
 20
545.078567656097
 30
0.0
  0
VERTEX
  5
4B2
  8
7
  6
CONTINUOUS
 10
385.7550356666783
 20
543.5199788955165
 30
0.0
  0
VERTEX
  5
4B3
  8
7
  6
CONTINUOUS
 10
385.3403438888258
 20
541.8821793459081
 30
0.0
  0
VERTEX
  5
4B4
  8
7
  6
CONTINUOUS
 10
384.8666323073838
 20
540.2047744017857
 30
0.0
  0
VERTEX
  5
4B5
  8
7
  6
CONTINUOUS
 10
384.3735063168663
 20
538.4877640631493
 30
0.0
  0
VERTEX
  5
4B6
  8
7
  6
CONTINUOUS
 10
383.9588145390138
 20
536.7513393154372
 30
0.0
  0
VERTEX
  5
4B7
  8
7
  6
CONTINUOUS
 10
383.6831299301419
 20
535.0343289768009
 30
0.0
  0
VERTEX
  5
4B8
  8
7
  6
CONTINUOUS
 10
383.5643137465999
 20
533.337509623603
 30
0.0
  0
VERTEX
  5
4B9
  8
7
  6
CONTINUOUS
 10
383.2490237432139
 20
532.9430088311889
 30
0.0
  0
VERTEX
  5
4BA
  8
7
  6
CONTINUOUS
 10
382.9135427543894
 20
532.4498828406714
 30
0.0
  0
VERTEX
  5
4BB
  8
7
  6
CONTINUOUS
 10
382.5780617655649
 20
531.8775460611259
 30
0.0
  0
VERTEX
  5
4BC
  8
7
  6
CONTINUOUS
 10
382.2425807767405
 20
531.2656038870665
 30
0.0
  0
VERTEX
  5
4BD
  8
7
  6
CONTINUOUS
 10
381.8869088024774
 20
530.5752275003421
 30
0.0
  0
VERTEX
  5
4BE
  8
7
  6
CONTINUOUS
 10
381.551427813653
 20
529.8452457191036
 30
0.0
  0
VERTEX
  5
4BF
  8
7
  6
CONTINUOUS
 10
381.236137810267
 20
529.0950729524266
 30
0.0
  0
VERTEX
  5
4C0
  8
7
  6
CONTINUOUS
 10
380.9402622159565
 20
528.3060713675986
 30
0.0
  0
VERTEX
  5
4C1
  8
7
  6
CONTINUOUS
 10
380.683215439797
 20
527.4968787973322
 30
0.0
  0
VERTEX
  5
4C2
  8
7
  6
CONTINUOUS
 10
380.4665506345145
 20
526.6876862270657
 30
0.0
  0
VERTEX
  5
4C3
  8
7
  6
CONTINUOUS
 10
380.2693002383076
 20
525.8986846422378
 30
0.0
  0
VERTEX
  5
4C4
  8
7
  6
CONTINUOUS
 10
380.1504840547655
 20
525.1089064810468
 30
0.0
  0
VERTEX
  5
4C5
  8
7
  6
CONTINUOUS
 10
380.091464251176
 20
524.3393193052943
 30
0.0
  0
VERTEX
  5
4C6
  8
7
  6
CONTINUOUS
 10
380.091464251176
 20
523.6287519331314
 30
0.0
  0
VERTEX
  5
4C7
  8
7
  6
CONTINUOUS
 10
380.1504840547655
 20
522.9383755464069
 30
0.0
  0
VERTEX
  5
4C8
  8
7
  6
CONTINUOUS
 10
380.3089056328215
 20
522.307018963272
 30
0.0
  0
VERTEX
  5
4C9
  8
7
  6
CONTINUOUS
 10
380.091464251176
 20
522.1889793560929
 30
0.0
  0
VERTEX
  5
4CA
  8
7
  6
CONTINUOUS
 10
379.8747994458935
 20
522.0701631725509
 30
0.0
  0
VERTEX
  5
4CB
  8
7
  6
CONTINUOUS
 10
379.617752669734
 20
521.9319325799333
 30
0.0
  0
VERTEX
  5
4CC
  8
7
  6
CONTINUOUS
 10
379.3614824699375
 20
521.8138929727545
 30
0.0
  0
VERTEX
  5
4CD
  8
7
  6
CONTINUOUS
 10
379.0850212847025
 20
521.6756623801369
 30
0.0
  0
VERTEX
  5
4CE
  8
7
  6
CONTINUOUS
 10
378.7891456903921
 20
521.556846196595
 30
0.0
  0
VERTEX
  5
4CF
  8
7
  6
CONTINUOUS
 10
378.4932700960816
 20
521.3992011949019
 30
0.0
  0
VERTEX
  5
4D0
  8
7
  6
CONTINUOUS
 10
378.2168089108466
 20
521.2609706022845
 30
0.0
  0
VERTEX
  5
4D1
  8
7
  6
CONTINUOUS
 10
377.9209333165361
 20
521.1033256005915
 30
0.0
  0
VERTEX
  5
4D2
  8
7
  6
CONTINUOUS
 10
377.6250577222256
 20
520.9456805988984
 30
0.0
  0
VERTEX
  5
4D3
  8
7
  6
CONTINUOUS
 10
377.3291821279151
 20
520.767844611767
 30
0.0
  0
VERTEX
  5
4D4
  8
7
  6
CONTINUOUS
 10
377.0527209426801
 20
520.5900086246355
 30
0.0
  0
VERTEX
  5
4D5
  8
7
  6
CONTINUOUS
 10
376.7964507428837
 20
520.3927582284285
 30
0.0
  0
VERTEX
  5
4D6
  8
7
  6
CONTINUOUS
 10
376.5394039667242
 20
520.1955078322214
 30
0.0
  0
VERTEX
  5
4D7
  8
7
  6
CONTINUOUS
 10
376.3227391614417
 20
519.978843026939
 30
0.0
  0
VERTEX
  5
4D8
  8
7
  6
CONTINUOUS
 10
376.1052977797962
 20
519.741987236218
 30
0.0
  0
VERTEX
  5
4D9
  8
7
  6
CONTINUOUS
 10
375.9080473835892
 20
518.8931892714376
 30
0.0
  0
VERTEX
  5
4DA
  8
7
  6
CONTINUOUS
 10
375.9080473835892
 20
517.9853715030675
 30
0.0
  0
VERTEX
  5
4DB
  8
7
  6
CONTINUOUS
 10
376.0066725816927
 20
516.9991195220326
 30
0.0
  0
VERTEX
  5
4DC
  8
7
  6
CONTINUOUS
 10
376.1052977797962
 20
515.9336567519697
 30
0.0
  0
VERTEX
  5
4DD
  8
7
  6
CONTINUOUS
 10
376.1052977797962
 20
514.8285885873928
 30
0.0
  0
VERTEX
  5
4DE
  8
7
  6
CONTINUOUS
 10
375.9282383690277
 20
513.6637240428634
 30
0.0
  0
VERTEX
  5
4DF
  8
7
  6
CONTINUOUS
 10
375.4343358021472
 20
512.4406162711073
 30
0.0
  0
VERTEX
  5
4E0
  8
7
  6
CONTINUOUS
 10
374.5661234282913
 20
511.1779031048374
 30
0.0
  0
VERTEX
  5
4E1
  8
7
  6
CONTINUOUS
 10
374.4480838211123
 20
510.0728349402605
 30
0.0
  0
VERTEX
  5
4E2
  8
7
  6
CONTINUOUS
 10
374.2904388194193
 20
508.908746972094
 30
0.0
  0
VERTEX
  5
4E3
  8
7
  6
CONTINUOUS
 10
374.0924118468493
 20
507.7244680184891
 30
0.0
  0
VERTEX
  5
4E4
  8
7
  6
CONTINUOUS
 10
373.8757470415668
 20
506.5401890648841
 30
0.0
  0
VERTEX
  5
4E5
  8
7
  6
CONTINUOUS
 10
373.6388912508458
 20
505.3566866876422
 30
0.0
  0
VERTEX
  5
4E6
  8
7
  6
CONTINUOUS
 10
373.4214498692003
 20
504.1925987194757
 30
0.0
  0
VERTEX
  5
4E7
  8
7
  6
CONTINUOUS
 10
373.1853706548424
 20
503.0277341749463
 30
0.0
  0
VERTEX
  5
4E8
  8
7
  6
CONTINUOUS
 10
372.9679292731969
 20
501.9226660103693
 30
0.0
  0
VERTEX
  5
4E9
  8
7
  6
CONTINUOUS
 10
372.7900932860653
 20
500.8773942257449
 30
0.0
  0
VERTEX
  5
4EA
  8
7
  6
CONTINUOUS
 10
372.6324482843723
 20
499.8903656683469
 30
0.0
  0
VERTEX
  5
4EB
  8
7
  6
CONTINUOUS
 10
372.5144086771934
 20
498.9825478999769
 30
0.0
  0
VERTEX
  5
4EC
  8
7
  6
CONTINUOUS
 10
372.4546122972408
 20
498.1741319060735
 30
0.0
  0
VERTEX
  5
4ED
  8
7
  6
CONTINUOUS
 10
372.4546122972408
 20
497.4635645339105
 30
0.0
  0
VERTEX
  5
4EE
  8
7
  6
CONTINUOUS
 10
372.5144086771934
 20
496.8718133452895
 30
0.0
  0
VERTEX
  5
4EF
  8
7
  6
CONTINUOUS
 10
372.6720536788864
 20
496.417516172923
 30
0.0
  0
VERTEX
  5
4F0
  8
7
  6
CONTINUOUS
 10
372.9089094696074
 20
496.1022261695371
 30
0.0
  0
VERTEX
  5
4F1
  8
7
  6
CONTINUOUS
 10
372.4942176917548
 20
495.6479289971705
 30
0.0
  0
VERTEX
  5
4F2
  8
7
  6
CONTINUOUS
 10
372.1393222938549
 20
495.2138228102426
 30
0.0
  0
VERTEX
  5
4F3
  8
7
  6
CONTINUOUS
 10
371.8628611086199
 20
494.7797166233146
 30
0.0
  0
VERTEX
  5
4F4
  8
7
  6
CONTINUOUS
 10
371.5863999233849
 20
494.3852158309006
 30
0.0
  0
VERTEX
  5
4F5
  8
7
  6
CONTINUOUS
 10
371.3301297235884
 20
493.9907150384866
 30
0.0
  0
VERTEX
  5
4F6
  8
7
  6
CONTINUOUS
 10
371.0342541292779
 20
493.6156286551482
 30
0.0
  0
VERTEX
  5
4F7
  8
7
  6
CONTINUOUS
 10
370.6987731404535
 20
493.2801476663237
 30
0.0
  0
VERTEX
  5
4F8
  8
7
  6
CONTINUOUS
 10
370.2646669535254
 20
492.9640810865747
 30
0.0
  0
VERTEX
  5
4F9
  8
7
  6
CONTINUOUS
 10
370.0278111628044
 20
492.3133100943642
 30
0.0
  0
VERTEX
  5
4FA
  8
7
  6
CONTINUOUS
 10
369.7513499775695
 20
491.6027427222012
 30
0.0
  0
VERTEX
  5
4FB
  8
7
  6
CONTINUOUS
 10
369.4748887923345
 20
490.8727609409627
 30
0.0
  0
VERTEX
  5
4FC
  8
7
  6
CONTINUOUS
 10
369.218618592538
 20
490.1225881742857
 30
0.0
  0
VERTEX
  5
4FD
  8
7
  6
CONTINUOUS
 10
368.981762801817
 20
489.3731919839719
 30
0.0
  0
VERTEX
  5
4FE
  8
7
  6
CONTINUOUS
 10
368.8047033910485
 20
488.6439867790964
 30
0.0
  0
VERTEX
  5
4FF
  8
7
  6
CONTINUOUS
 10
368.6858872075065
 20
487.9528338160089
 30
0.0
  0
VERTEX
  5
500
  8
7
  6
CONTINUOUS
 10
368.6462818129925
 20
487.3020628237985
 30
0.0
  0
VERTEX
  5
501
  8
7
  6
CONTINUOUS
 10
368.8047033910485
 20
486.966581834974
 30
0.0
  0
VERTEX
  5
502
  8
7
  6
CONTINUOUS
 10
369.0019537872555
 20
486.6311008461495
 30
0.0
  0
VERTEX
  5
503
  8
7
  6
CONTINUOUS
 10
369.1992041834625
 20
486.256014462811
 30
0.0
  0
VERTEX
  5
504
  8
7
  6
CONTINUOUS
 10
369.415868988745
 20
485.8809280794725
 30
0.0
  0
VERTEX
  5
505
  8
7
  6
CONTINUOUS
 10
369.652724779466
 20
485.505841696134
 30
0.0
  0
VERTEX
  5
506
  8
7
  6
CONTINUOUS
 10
369.9089949792624
 20
485.11134090372
 30
0.0
  0
VERTEX
  5
507
  8
7
  6
CONTINUOUS
 10
370.1854561644975
 20
484.7362545203815
 30
0.0
  0
VERTEX
  5
508
  8
7
  6
CONTINUOUS
 10
370.5015227442464
 20
484.3619447134061
 30
0.0
  0
VERTEX
  5
509
  8
7
  6
CONTINUOUS
 10
370.8370037330709
 20
484.0062727391431
 30
0.0
  0
VERTEX
  5
50A
  8
7
  6
CONTINUOUS
 10
371.1918991309709
 20
483.6513773412431
 30
0.0
  0
VERTEX
  5
50B
  8
7
  6
CONTINUOUS
 10
371.5669855143094
 20
483.3353107614941
 30
0.0
  0
VERTEX
  5
50C
  8
7
  6
CONTINUOUS
 10
371.9816772921619
 20
483.0200207581081
 30
0.0
  0
VERTEX
  5
50D
  8
7
  6
CONTINUOUS
 10
372.4351978881654
 20
482.7435595728732
 30
0.0
  0
VERTEX
  5
50E
  8
7
  6
CONTINUOUS
 10
372.9089094696074
 20
482.5067037821522
 30
0.0
  0
VERTEX
  5
50F
  8
7
  6
CONTINUOUS
 10
373.4214498692003
 20
482.3094533859452
 30
0.0
  0
VERTEX
  5
510
  8
7
  6
CONTINUOUS
 10
373.9743722396703
 20
482.1518083842521
 30
0.0
  0
VERTEX
  5
511
  8
7
  6
CONTINUOUS
 10
375.0600259951717
 20
483.1970801688766
 30
0.0
  0
VERTEX
  5
512
  8
7
  6
CONTINUOUS
 10
374.9217954025543
 20
483.4541269450361
 30
0.0
  0
VERTEX
  5
513
  8
7
  6
CONTINUOUS
 10
374.8029792190122
 20
483.7298115539081
 30
0.0
  0
VERTEX
  5
514
  8
7
  6
CONTINUOUS
 10
374.6849396118333
 20
484.0062727391431
 30
0.0
  0
VERTEX
  5
515
  8
7
  6
CONTINUOUS
 10
374.5467090192158
 20
484.282733924378
 30
0.0
  0
VERTEX
  5
516
  8
7
  6
CONTINUOUS
 10
374.4084784265983
 20
484.5195897150991
 30
0.0
  0
VERTEX
  5
517
  8
7
  6
CONTINUOUS
 10
374.2508334249053
 20
484.7564455058201
 30
0.0
  0
VERTEX
  5
518
  8
7
  6
CONTINUOUS
 10
374.0924118468493
 20
484.9536959020271
 30
0.0
  0
VERTEX
  5
519
  8
7
  6
CONTINUOUS
 10
373.8951614506423
 20
485.1315318891585
 30
0.0
  0
VERTEX
  5
51A
  8
7
  6
CONTINUOUS
 10
373.6979110544353
 20
485.268985905413
 30
0.0
  0
VERTEX
  5
51B
  8
7
  6
CONTINUOUS
 10
373.4812462491528
 20
485.3676111035165
 30
0.0
  0
VERTEX
  5
51C
  8
7
  6
CONTINUOUS
 10
373.2443904584318
 20
485.4468218925445
 30
0.0
  0
VERTEX
  5
51D
  8
7
  6
CONTINUOUS
 10
373.0269490767863
 20
485.5260326815725
 30
0.0
  0
VERTEX
  5
51E
  8
7
  6
CONTINUOUS
 10
372.8102842715039
 20
485.585052485162
 30
0.0
  0
VERTEX
  5
51F
  8
7
  6
CONTINUOUS
 10
372.6324482843723
 20
485.6836776832655
 30
0.0
  0
VERTEX
  5
520
  8
7
  6
CONTINUOUS
 10
372.4748032826793
 20
485.782302881369
 30
0.0
  0
VERTEX
  5
521
  8
7
  6
CONTINUOUS
 10
372.3761780845758
 20
485.939947883062
 30
0.0
  0
VERTEX
  5
522
  8
7
  6
CONTINUOUS
 10
372.9089094696074
 20
487.8146032233914
 30
0.0
  0
VERTEX
  5
523
  8
7
  6
CONTINUOUS
 10
373.2839958529458
 20
487.9132284214949
 30
0.0
  0
VERTEX
  5
524
  8
7
  6
CONTINUOUS
 10
373.6388912508458
 20
488.1500842122159
 30
0.0
  0
VERTEX
  5
525
  8
7
  6
CONTINUOUS
 10
373.9549578305948
 20
488.4855652010404
 30
0.0
  0
VERTEX
  5
526
  8
7
  6
CONTINUOUS
 10
374.2702478339808
 20
488.8800659934544
 30
0.0
  0
VERTEX
  5
527
  8
7
  6
CONTINUOUS
 10
374.5863144137297
 20
489.2349613913544
 30
0.0
  0
VERTEX
  5
528
  8
7
  6
CONTINUOUS
 10
374.8821900080403
 20
489.5502513947403
 30
0.0
  0
VERTEX
  5
529
  8
7
  6
CONTINUOUS
 10
375.2176709968647
 20
489.7280873818718
 30
0.0
  0
VERTEX
  5
52A
  8
7
  6
CONTINUOUS
 10
375.5531519856892
 20
489.7280873818718
 30
0.0
  0
VERTEX
  5
52B
  8
7
  6
CONTINUOUS
 10
375.7504023818962
 20
489.3530009985333
 30
0.0
  0
VERTEX
  5
52C
  8
7
  6
CONTINUOUS
 10
376.0066725816927
 20
489.0571254042229
 30
0.0
  0
VERTEX
  5
52D
  8
7
  6
CONTINUOUS
 10
376.2831337669277
 20
488.8606515843788
 30
0.0
  0
VERTEX
  5
52E
  8
7
  6
CONTINUOUS
 10
376.5790093612381
 20
488.7426119771999
 30
0.0
  0
VERTEX
  5
52F
  8
7
  6
CONTINUOUS
 10
376.9144903500627
 20
488.7224209917613
 30
0.0
  0
VERTEX
  5
530
  8
7
  6
CONTINUOUS
 10
377.2499713388871
 20
488.7620263862754
 30
0.0
  0
VERTEX
  5
531
  8
7
  6
CONTINUOUS
 10
377.6048667367871
 20
488.8800659934544
 30
0.0
  0
VERTEX
  5
532
  8
7
  6
CONTINUOUS
 10
377.9403477256116
 20
489.0773163896613
 30
0.0
  0
VERTEX
  5
533
  8
7
  6
CONTINUOUS
 10
378.3154341089501
 20
489.2147704059158
 30
0.0
  0
VERTEX
  5
534
  8
7
  6
CONTINUOUS
 10
378.7099349013641
 20
489.5308369856648
 30
0.0
  0
VERTEX
  5
535
  8
7
  6
CONTINUOUS
 10
379.1440410882921
 20
489.9649431725928
 30
0.0
  0
VERTEX
  5
536
  8
7
  6
CONTINUOUS
 10
379.5983382606585
 20
490.4976745576243
 30
0.0
  0
VERTEX
  5
537
  8
7
  6
CONTINUOUS
 10
380.051858856662
 20
491.1492221261977
 30
0.0
  0
VERTEX
  5
538
  8
7
  6
CONTINUOUS
 10
380.5449848471795
 20
491.8792039074362
 30
0.0
  0
VERTEX
  5
539
  8
7
  6
CONTINUOUS
 10
381.03888741406
 20
492.6682054922642
 30
0.0
  0
VERTEX
  5
53A
  8
7
  6
CONTINUOUS
 10
381.5320134045775
 20
493.5170034570447
 30
0.0
  0
VERTEX
  5
53B
  8
7
  6
CONTINUOUS
 10
382.0453303805334
 20
494.3650248454621
 30
0.0
  0
VERTEX
  5
53C
  8
7
  6
CONTINUOUS
 10
382.5578707801264
 20
495.2534282047566
 30
0.0
  0
VERTEX
  5
53D
  8
7
  6
CONTINUOUS
 10
383.0711877560824
 20
496.1216405786125
 30
0.0
  0
VERTEX
  5
53E
  8
7
  6
CONTINUOUS
 10
383.5845047320384
 20
496.9704385433931
 30
0.0
  0
VERTEX
  5
53F
  8
7
  6
CONTINUOUS
 10
384.0970451316313
 20
497.7788545372965
 30
0.0
  0
VERTEX
  5
540
  8
7
  6
CONTINUOUS
 10
384.6103621075873
 20
498.5290273039734
 30
0.0
  0
VERTEX
  5
541
  8
7
  6
CONTINUOUS
 10
385.1034880981048
 20
499.1999892816224
 30
0.0
  0
VERTEX
  5
542
  8
7
  6
CONTINUOUS
 10
385.5966140886222
 20
499.7723260611679
 30
0.0
  0
VERTEX
  5
543
  8
7
  6
CONTINUOUS
 10
385.7154302721643
 20
500.3244718552749
 30
0.0
  0
VERTEX
  5
544
  8
7
  6
CONTINUOUS
 10
385.8334698793433
 20
500.8968086348203
 30
0.0
  0
VERTEX
  5
545
  8
7
  6
CONTINUOUS
 10
385.9522860628853
 20
501.4885598234413
 30
0.0
  0
VERTEX
  5
546
  8
7
  6
CONTINUOUS
 10
386.0703256700642
 20
502.1206929829393
 30
0.0
  0
VERTEX
  5
547
  8
7
  6
CONTINUOUS
 10
386.2287472481203
 20
502.7714639751497
 30
0.0
  0
VERTEX
  5
548
  8
7
  6
CONTINUOUS
 10
386.4058066588888
 20
503.4424259527987
 30
0.0
  0
VERTEX
  5
549
  8
7
  6
CONTINUOUS
 10
386.6232480405342
 20
504.1529933249617
 30
0.0
  0
VERTEX
  5
54A
  8
7
  6
CONTINUOUS
 10
386.8601038312552
 20
504.8829751062002
 30
0.0
  0
VERTEX
  5
54B
  8
7
  6
CONTINUOUS
 10
387.1357884401272
 20
505.6525622819526
 30
0.0
  0
VERTEX
  5
54C
  8
7
  6
CONTINUOUS
 10
387.4712694289517
 20
506.4221494577051
 30
0.0
  0
VERTEX
  5
54D
  8
7
  6
CONTINUOUS
 10
387.8463558122902
 20
507.2313420279716
 30
0.0
  0
VERTEX
  5
54E
  8
7
  6
CONTINUOUS
 10
388.3006529846567
 20
508.0599490073135
 30
0.0
  0
VERTEX
  5
54F
  8
7
  6
CONTINUOUS
 10
388.7937789751742
 20
508.9281613811694
 30
0.0
  0
VERTEX
  5
550
  8
7
  6
CONTINUOUS
 10
389.3855301637951
 20
509.7963737550255
 30
0.0
  0
VERTEX
  5
551
  8
7
  6
CONTINUOUS
 10
390.0370777323686
 20
510.7041915233954
 30
0.0
  0
VERTEX
  5
552
  8
7
  6
CONTINUOUS
 10
390.767059513607
 20
511.6314237008409
 30
0.0
  0
VERTEX
  5
553
  8
7
  6
CONTINUOUS
 10
390.885099120786
 20
512.3815964675179
 30
0.0
  0
VERTEX
  5
554
  8
7
  6
CONTINUOUS
 10
391.0039153043281
 20
513.1309926578318
 30
0.0
  0
VERTEX
  5
555
  8
7
  6
CONTINUOUS
 10
391.0629351079176
 20
513.8617510154334
 30
0.0
  0
VERTEX
  5
556
  8
7
  6
CONTINUOUS
 10
390.9448955007386
 20
514.5319364167192
 30
0.0
  0
VERTEX
  5
557
  8
7
  6
CONTINUOUS
 10
391.4178305058175
 20
514.6701670093368
 30
0.0
  0
VERTEX
  5
558
  8
7
  6
CONTINUOUS
 10
391.8131078745945
 20
514.8285885873928
 30
0.0
  0
VERTEX
  5
559
  8
7
  6
CONTINUOUS
 10
392.1283978779805
 20
515.0258389835998
 30
0.0
  0
VERTEX
  5
55A
  8
7
  6
CONTINUOUS
 10
392.4048590632155
 20
515.2425037888822
 30
0.0
  0
VERTEX
  5
55B
  8
7
  6
CONTINUOUS
 10
392.661129263012
 20
515.4995505650417
 30
0.0
  0
VERTEX
  5
55C
  8
7
  6
CONTINUOUS
 10
392.937590448247
 20
515.8148405684277
 30
0.0
  0
VERTEX
  5
55D
  8
7
  6
CONTINUOUS
 10
393.2334660425574
 20
516.1899269517662
 30
0.0
  0
VERTEX
  5
55E
  8
7
  6
CONTINUOUS
 10
393.5883614404574
 20
516.6240331386941
 30
0.0
  0
VERTEX
  5
55F
  8
7
  6
CONTINUOUS
 10
394.0426586128239
 20
514.7097724038507
 30
0.0
  0
VERTEX
  5
560
  8
7
  6
CONTINUOUS
 10
394.3975540107239
 20
512.8351170635214
 30
0.0
  0
VERTEX
  5
561
  8
7
  6
CONTINUOUS
 10
394.6149953923695
 20
510.9410473141164
 30
0.0
  0
VERTEX
  5
562
  8
7
  6
CONTINUOUS
 10
394.7532259849869
 20
509.026786579273
 30
0.0
  0
VERTEX
  5
563
  8
7
  6
CONTINUOUS
 10
394.8122457885764
 20
507.0931114353541
 30
0.0
  0
VERTEX
  5
564
  8
7
  6
CONTINUOUS
 10
394.8122457885764
 20
505.0996399114827
 30
0.0
  0
VERTEX
  5
565
  8
7
  6
CONTINUOUS
 10
394.7532259849869
 20
503.0479251603847
 30
0.0
  0
VERTEX
  5
566
  8
7
  6
CONTINUOUS
 10
394.6934296050344
 20
500.8968086348203
 30
0.0
  0
VERTEX
  5
567
  8
7
  6
CONTINUOUS
 10
394.6344098014449
 20
499.2792000706504
 30
0.0
  0
VERTEX
  5
568
  8
7
  6
CONTINUOUS
 10
394.5357846033414
 20
496.891227754365
 30
0.0
  0
VERTEX
  5
569
  8
7
  6
CONTINUOUS
 10
394.4371594052379
 20
494.6220716216217
 30
0.0
  0
VERTEX
  5
56A
  8
7
  6
CONTINUOUS
 10
394.3975540107239
 20
493.3391674699131
 30
0.0
  0
VERTEX
  5
56B
  8
7
  6
CONTINUOUS
 10
390.8656847117106
 20
484.834879718485
 30
0.0
  0
VERTEX
  5
56C
  8
7
  6
CONTINUOUS
 10
391.0233297134035
 20
484.5591951096131
 30
0.0
  0
VERTEX
  5
56D
  8
7
  6
CONTINUOUS
 10
391.2011657005351
 20
484.3021483334536
 30
0.0
  0
VERTEX
  5
56E
  8
7
  6
CONTINUOUS
 10
391.4178305058175
 20
484.0854835281711
 30
0.0
  0
VERTEX
  5
56F
  8
7
  6
CONTINUOUS
 10
391.6546862965386
 20
483.8882331319641
 30
0.0
  0
VERTEX
  5
570
  8
7
  6
CONTINUOUS
 10
391.9311474817735
 20
483.7103971448326
 30
0.0
  0
VERTEX
  5
571
  8
7
  6
CONTINUOUS
 10
392.227023076084
 20
483.5721665522151
 30
0.0
  0
VERTEX
  5
572
  8
7
  6
CONTINUOUS
 10
392.5625040649085
 20
483.4541269450361
 30
0.0
  0
VERTEX
  5
573
  8
7
  6
CONTINUOUS
 10
392.897985053733
 20
483.3555017469326
 30
0.0
  0
VERTEX
  5
574
  8
7
  6
CONTINUOUS
 10
393.2536570279959
 20
483.2568765488292
 30
0.0
  0
VERTEX
  5
575
  8
7
  6
CONTINUOUS
 10
393.6481578204099
 20
483.1776657598011
 30
0.0
  0
VERTEX
  5
576
  8
7
  6
CONTINUOUS
 10
394.0232442037484
 20
483.1186459562117
 30
0.0
  0
VERTEX
  5
577
  8
7
  6
CONTINUOUS
 10
394.4371594052379
 20
483.0790405616976
 30
0.0
  0
VERTEX
  5
578
  8
7
  6
CONTINUOUS
 10
394.8518511830904
 20
483.0200207581081
 30
0.0
  0
VERTEX
  5
579
  8
7
  6
CONTINUOUS
 10
395.2657663845799
 20
482.9804153635941
 30
0.0
  0
VERTEX
  5
57A
  8
7
  6
CONTINUOUS
 10
395.6998725715079
 20
482.9602243781556
 30
0.0
  0
VERTEX
  5
57B
  8
7
  6
CONTINUOUS
 10
396.1339787584358
 20
482.9213955600046
 30
0.0
  0
VERTEX
  5
57C
  8
7
  6
CONTINUOUS
 10
397.7329494898933
 20
477.7315357259444
 30
0.0
  0
VERTEX
  5
57D
  8
7
  6
CONTINUOUS
 10
398.9754716707247
 20
473.4293026748155
 30
0.0
  0
VERTEX
  5
57E
  8
7
  6
CONTINUOUS
 10
399.9034804245331
 20
469.8974333758022
 30
0.0
  0
VERTEX
  5
57F
  8
7
  6
CONTINUOUS
 10
400.5348370076682
 20
467.0559404635133
 30
0.0
  0
VERTEX
  5
580
  8
7
  6
CONTINUOUS
 10
400.9293378000821
 20
464.8061987398454
 30
0.0
  0
VERTEX
  5
581
  8
7
  6
CONTINUOUS
 10
401.1071737872136
 20
463.050359583058
 30
0.0
  0
VERTEX
  5
582
  8
7
  6
CONTINUOUS
 10
401.1071737872136
 20
461.7084356277601
 30
0.0
  0
VERTEX
  5
583
  8
7
  6
CONTINUOUS
 10
400.9487522091576
 20
460.6825782522111
 30
0.0
  0
VERTEX
  5
584
  8
7
  6
CONTINUOUS
 10
400.6730676002857
 20
459.8733856819446
 30
0.0
  0
VERTEX
  5
585
  8
7
  6
CONTINUOUS
 10
400.3173956260226
 20
459.2218381133712
 30
0.0
  0
VERTEX
  5
586
  8
7
  6
CONTINUOUS
 10
399.9228948336087
 20
458.5904815302362
 30
0.0
  0
VERTEX
  5
587
  8
7
  6
CONTINUOUS
 10
399.4887886466807
 20
457.9195195525872
 30
0.0
  0
VERTEX
  5
588
  8
7
  6
CONTINUOUS
 10
399.0740968688282
 20
457.0909125732452
 30
0.0
  0
VERTEX
  5
589
  8
7
  6
CONTINUOUS
 10
398.7192014709282
 20
456.0448642122578
 30
0.0
  0
VERTEX
  5
58A
  8
7
  6
CONTINUOUS
 10
398.4427402856932
 20
454.6641114388088
 30
0.0
  0
VERTEX
  5
58B
  8
7
  6
CONTINUOUS
 10
398.2850952840002
 20
452.8678903111444
 30
0.0
  0
VERTEX
  5
58C
  8
7
  6
CONTINUOUS
 10
398.5219510747212
 20
452.374764320627
 30
0.0
  0
VERTEX
  5
58D
  8
7
  6
CONTINUOUS
 10
398.7192014709282
 20
451.8816383301095
 30
0.0
  0
VERTEX
  5
58E
  8
7
  6
CONTINUOUS
 10
398.9164518671352
 20
451.387735763229
 30
0.0
  0
VERTEX
  5
58F
  8
7
  6
CONTINUOUS
 10
399.1137022633422
 20
450.8946097727115
 30
0.0
  0
VERTEX
  5
590
  8
7
  6
CONTINUOUS
 10
399.2915382504737
 20
450.4014837821941
 30
0.0
  0
VERTEX
  5
591
  8
7
  6
CONTINUOUS
 10
399.4491832521667
 20
449.927772200752
 30
0.0
  0
VERTEX
  5
592
  8
7
  6
CONTINUOUS
 10
399.6270192392982
 20
449.45406061931
 30
0.0
  0
VERTEX
  5
593
  8
7
  6
CONTINUOUS
 10
399.7846642409912
 20
448.9803490378681
 30
0.0
  0
VERTEX
  5
594
  8
7
  6
CONTINUOUS
 10
399.9625002281227
 20
448.5268284418646
 30
0.0
  0
VERTEX
  5
595
  8
7
  6
CONTINUOUS
 10
400.1403362152541
 20
448.0733078458612
 30
0.0
  0
VERTEX
  5
596
  8
7
  6
CONTINUOUS
 10
400.3173956260226
 20
447.6190106734946
 30
0.0
  0
VERTEX
  5
597
  8
7
  6
CONTINUOUS
 10
400.5146460222296
 20
447.2050954720052
 30
0.0
  0
VERTEX
  5
598
  8
7
  6
CONTINUOUS
 10
400.7320874038751
 20
446.7709892850772
 30
0.0
  0
VERTEX
  5
599
  8
7
  6
CONTINUOUS
 10
400.9689431945961
 20
446.3757119163002
 30
0.0
  0
VERTEX
  5
59A
  8
7
  6
CONTINUOUS
 10
401.2454043798311
 20
446.0014021093248
 30
0.0
  0
VERTEX
  5
59B
  8
7
  6
CONTINUOUS
 10
401.5210889887031
 20
445.6263157259863
 30
0.0
  0
VERTEX
  5
59C
  8
7
  6
CONTINUOUS
 10
401.2648187889066
 20
444.8365375647953
 30
0.0
  0
VERTEX
  5
59D
  8
7
  6
CONTINUOUS
 10
401.1856079998786
 20
444.2253719670988
 30
0.0
  0
VERTEX
  5
59E
  8
7
  6
CONTINUOUS
 10
401.2648187889066
 20
443.7516603856569
 30
0.0
  0
VERTEX
  5
59F
  8
7
  6
CONTINUOUS
 10
401.4224637905996
 20
443.3959884113938
 30
0.0
  0
VERTEX
  5
5A0
  8
7
  6
CONTINUOUS
 10
401.6197141868066
 20
443.1001128170834
 30
0.0
  0
VERTEX
  5
5A1
  8
7
  6
CONTINUOUS
 10
401.8169645830136
 20
442.8834480118009
 30
0.0
  0
VERTEX
  5
5A2
  8
7
  6
CONTINUOUS
 10
401.9753861610696
 20
442.6660066301554
 30
0.0
  0
VERTEX
  5
5A3
  8
7
  6
CONTINUOUS
 10
402.0344059646591
 20
442.4493418248729
 30
0.0
  0
VERTEX
  5
5A4
  8
7
  6
CONTINUOUS
 10
401.4224637905996
 20
441.7977942562994
 30
0.0
  0
VERTEX
  5
5A5
  8
7
  6
CONTINUOUS
 10
400.9883576036716
 20
440.949772867882
 30
0.0
  0
VERTEX
  5
5A6
  8
7
  6
CONTINUOUS
 10
400.7126729947996
 20
439.962744310484
 30
0.0
  0
VERTEX
  5
5A7
  8
7
  6
CONTINUOUS
 10
400.5348370076682
 20
438.8778671313456
 30
0.0
  0
VERTEX
  5
5A8
  8
7
  6
CONTINUOUS
 10
400.4362118095647
 20
437.7526079813301
 30
0.0
  0
VERTEX
  5
5A9
  8
7
  6
CONTINUOUS
 10
400.3570010205366
 20
436.6281254076777
 30
0.0
  0
VERTEX
  5
5AA
  8
7
  6
CONTINUOUS
 10
400.2583758224331
 20
435.5626626376147
 30
0.0
  0
VERTEX
  5
5AB
  8
7
  6
CONTINUOUS
 10
400.1007308207402
 20
434.6152394747307
 30
0.0
  0
VERTEX
  5
5AC
  8
7
  6
CONTINUOUS
 10
399.8638750300191
 20
433.8852576934922
 30
0.0
  0
VERTEX
  5
5AD
  8
7
  6
CONTINUOUS
 10
399.5874138447842
 20
433.0954795323013
 30
0.0
  0
VERTEX
  5
5AE
  8
7
  6
CONTINUOUS
 10
399.2721238413982
 20
432.2870635383978
 30
0.0
  0
VERTEX
  5
5AF
  8
7
  6
CONTINUOUS
 10
398.9164518671352
 20
431.4576799826929
 30
0.0
  0
VERTEX
  5
5B0
  8
7
  6
CONTINUOUS
 10
398.5413654837967
 20
430.5894676088369
 30
0.0
  0
VERTEX
  5
5B1
  8
7
  6
CONTINUOUS
 10
398.1468646913827
 20
429.721255234981
 30
0.0
  0
VERTEX
  5
5B2
  8
7
  6
CONTINUOUS
 10
397.7717783080442
 20
428.853042861125
 30
0.0
  0
VERTEX
  5
5B3
  8
7
  6
CONTINUOUS
 10
397.4168829101442
 20
427.9654160781935
 30
0.0
  0
VERTEX
  5
5B4
  8
7
  6
CONTINUOUS
 10
397.0814019213198
 20
427.0972037043376
 30
0.0
  0
VERTEX
  5
5B5
  8
7
  6
CONTINUOUS
 10
396.7855263270093
 20
426.2484057395571
 30
0.0
  0
VERTEX
  5
5B6
  8
7
  6
CONTINUOUS
 10
396.5292561272128
 20
425.3996077747766
 30
0.0
  0
VERTEX
  5
5B7
  8
7
  6
CONTINUOUS
 10
396.3312291546428
 20
424.5710007954347
 30
0.0
  0
VERTEX
  5
5B8
  8
7
  6
CONTINUOUS
 10
396.2131895474639
 20
423.7819992106067
 30
0.0
  0
VERTEX
  5
5B9
  8
7
  6
CONTINUOUS
 10
396.1735841529498
 20
423.0318264439297
 30
0.0
  0
VERTEX
  5
5BA
  8
7
  6
CONTINUOUS
 10
396.2326039565393
 20
422.3220356481298
 30
0.0
  0
VERTEX
  5
5BB
  8
7
  6
CONTINUOUS
 10
396.3910255345953
 20
421.6704880795563
 30
0.0
  0
VERTEX
  5
5BC
  8
7
  6
CONTINUOUS
 10
396.6278813253163
 20
420.7432559021108
 30
0.0
  0
VERTEX
  5
5BD
  8
7
  6
CONTINUOUS
 10
396.9237569196268
 20
419.9146489227689
 30
0.0
  0
VERTEX
  5
5BE
  8
7
  6
CONTINUOUS
 10
397.2988433029653
 20
419.1450617470164
 30
0.0
  0
VERTEX
  5
5BF
  8
7
  6
CONTINUOUS
 10
397.7329494898933
 20
418.4740997693675
 30
0.0
  0
VERTEX
  5
5C0
  8
7
  6
CONTINUOUS
 10
398.2260754804108
 20
417.862157595308
 30
0.0
  0
VERTEX
  5
5C1
  8
7
  6
CONTINUOUS
 10
398.7588068654422
 20
417.3092352248379
 30
0.0
  0
VERTEX
  5
5C2
  8
7
  6
CONTINUOUS
 10
399.3311436449877
 20
416.836300219759
 30
0.0
  0
VERTEX
  5
5C3
  8
7
  6
CONTINUOUS
 10
399.9430858190472
 20
416.4216084419065
 30
0.0
  0
VERTEX
  5
5C4
  8
7
  6
CONTINUOUS
 10
400.6132712203332
 20
416.0667130440065
 30
0.0
  0
VERTEX
  5
5C5
  8
7
  6
CONTINUOUS
 10
401.2842331979821
 20
415.770060873333
 30
0.0
  0
VERTEX
  5
5C6
  8
7
  6
CONTINUOUS
 10
401.9948005701451
 20
415.5137906735366
 30
0.0
  0
VERTEX
  5
5C7
  8
7
  6
CONTINUOUS
 10
402.7247823513836
 20
415.3165402773295
 30
0.0
  0
VERTEX
  5
5C8
  8
7
  6
CONTINUOUS
 10
403.4749551180605
 20
415.178309684712
 30
0.0
  0
VERTEX
  5
5C9
  8
7
  6
CONTINUOUS
 10
404.2243513083745
 20
415.0602700775331
 30
0.0
  0
VERTEX
  5
5CA
  8
7
  6
CONTINUOUS
 10
404.9745240750515
 20
415.0004736975806
 30
0.0
  0
VERTEX
  5
5CB
  8
7
  6
CONTINUOUS
 10
405.7441112508039
 20
414.9616448794296
 30
0.0
  0
VERTEX
  5
5CC
  8
7
  6
CONTINUOUS
 10
406.6519290191738
 20
415.572810477126
 30
0.0
  0
VERTEX
  5
5CD
  8
7
  6
CONTINUOUS
 10
407.3819108004124
 20
416.204167060261
 30
0.0
  0
VERTEX
  5
5CE
  8
7
  6
CONTINUOUS
 10
407.9348331708824
 20
416.8557146288345
 30
0.0
  0
VERTEX
  5
5CF
  8
7
  6
CONTINUOUS
 10
408.3293339632963
 20
417.5266766064834
 30
0.0
  0
VERTEX
  5
5D0
  8
7
  6
CONTINUOUS
 10
408.6057951485313
 20
418.2170529932079
 30
0.0
  0
VERTEX
  5
5D1
  8
7
  6
CONTINUOUS
 10
408.7634401502243
 20
418.9470347744464
 30
0.0
  0
VERTEX
  5
5D2
  8
7
  6
CONTINUOUS
 10
408.8418743628893
 20
419.7166219501989
 30
0.0
  0
VERTEX
  5
5D3
  8
7
  6
CONTINUOUS
 10
408.8418743628893
 20
420.4862091259513
 30
0.0
  0
VERTEX
  5
5D4
  8
7
  6
CONTINUOUS
 10
408.7828545592998
 20
421.2954016962178
 30
0.0
  0
VERTEX
  5
5D5
  8
7
  6
CONTINUOUS
 10
408.6842293611963
 20
422.1441996609983
 30
0.0
  0
VERTEX
  5
5D6
  8
7
  6
CONTINUOUS
 10
408.5856041630928
 20
423.0124120348542
 30
0.0
  0
VERTEX
  5
5D7
  8
7
  6
CONTINUOUS
 10
408.4869789649892
 20
423.9202298032242
 30
0.0
  0
VERTEX
  5
5D8
  8
7
  6
CONTINUOUS
 10
408.4077681759613
 20
424.8668763897451
 30
0.0
  0
VERTEX
  5
5D9
  8
7
  6
CONTINUOUS
 10
408.3689393578103
 20
425.8344905380676
 30
0.0
  0
VERTEX
  5
5DA
  8
7
  6
CONTINUOUS
 10
408.4077681759613
 20
426.840156928178
 30
0.0
  0
VERTEX
  5
5DB
  8
7
  6
CONTINUOUS
 10
408.5063933740648
 20
427.8862052891655
 30
0.0
  0
VERTEX
  5
5DC
  8
7
  6
CONTINUOUS
 10
409.3357769297697
 20
429.0502932573319
 30
0.0
  0
VERTEX
  5
5DD
  8
7
  6
CONTINUOUS
 10
409.9671335129047
 20
430.6096585942754
 30
0.0
  0
VERTEX
  5
5DE
  8
7
  6
CONTINUOUS
 10
410.4206541089082
 20
432.4245175546523
 30
0.0
  0
VERTEX
  5
5DF
  8
7
  6
CONTINUOUS
 10
410.7367206886572
 20
434.3589692749342
 30
0.0
  0
VERTEX
  5
5E0
  8
7
  6
CONTINUOUS
 10
410.9533854939397
 20
436.2530390243392
 30
0.0
  0
VERTEX
  5
5E1
  8
7
  6
CONTINUOUS
 10
411.1312214810712
 20
437.9894637720511
 30
0.0
  0
VERTEX
  5
5E2
  8
7
  6
CONTINUOUS
 10
411.2694520736887
 20
439.4300129254525
 30
0.0
  0
VERTEX
  5
5E3
  8
7
  6
CONTINUOUS
 10
411.4472880608201
 20
440.4162649064875
 30
0.0
  0
VERTEX
  5
5E4
  8
7
  6
CONTINUOUS
 10
413.1635218230936
 20
444.7184979576163
 30
0.0
  0
VERTEX
  5
5E5
  8
7
  6
CONTINUOUS
 10
413.7754639971531
 20
444.9949591428513
 30
0.0
  0
VERTEX
  5
5E6
  8
7
  6
CONTINUOUS
 10
414.32760979126
 20
445.3498545407513
 30
0.0
  0
VERTEX
  5
5E7
  8
7
  6
CONTINUOUS
 10
414.8603411762915
 20
445.7839607276792
 30
0.0
  0
VERTEX
  5
5E8
  8
7
  6
CONTINUOUS
 10
415.3340527577335
 20
446.2576723091212
 30
0.0
  0
VERTEX
  5
5E9
  8
7
  6
CONTINUOUS
 10
415.7883499301
 20
446.7904036941527
 30
0.0
  0
VERTEX
  5
5EA
  8
7
  6
CONTINUOUS
 10
416.182850722514
 20
447.3425494882596
 30
0.0
  0
VERTEX
  5
5EB
  8
7
  6
CONTINUOUS
 10
416.5377461204139
 20
447.9350772532437
 30
0.0
  0
VERTEX
  5
5EC
  8
7
  6
CONTINUOUS
 10
416.8538127001629
 20
448.5664338363786
 30
0.0
  0
VERTEX
  5
5ED
  8
7
  6
CONTINUOUS
 10
417.130273885398
 20
449.1977904195136
 30
0.0
  0
VERTEX
  5
5EE
  8
7
  6
CONTINUOUS
 10
417.3865440851944
 20
449.8291470026485
 30
0.0
  0
VERTEX
  5
5EF
  8
7
  6
CONTINUOUS
 10
417.5837944814014
 20
450.4605035857835
 30
0.0
  0
VERTEX
  5
5F0
  8
7
  6
CONTINUOUS
 10
417.7414394830944
 20
451.0918601689185
 30
0.0
  0
VERTEX
  5
5F1
  8
7
  6
CONTINUOUS
 10
417.8796700757119
 20
451.703802342978
 30
0.0
  0
VERTEX
  5
5F2
  8
7
  6
CONTINUOUS
 10
417.9588808647399
 20
452.2761391225234
 30
0.0
  0
VERTEX
  5
5F3
  8
7
  6
CONTINUOUS
 10
418.0179006683294
 20
452.8282849166304
 30
0.0
  0
VERTEX
  5
5F4
  8
7
  6
CONTINUOUS
 10
418.0373150774049
 20
453.3221874835109
 30
0.0
  0
VERTEX
  5
5F5
  8
7
  6
CONTINUOUS
 10
418.9645472548503
 20
451.980263528213
 30
0.0
  0
VERTEX
  5
5F6
  8
7
  6
CONTINUOUS
 10
419.0429814675153
 20
448.9803490378681
 30
0.0
  0
VERTEX
  5
5F7
  8
7
  6
CONTINUOUS
 10
419.1027778474678
 20
446.8890288922562
 30
0.0
  0
VERTEX
  5
5F8
  8
7
  6
CONTINUOUS
 10
419.1221922565433
 20
445.5471049369582
 30
0.0
  0
VERTEX
  5
5F9
  8
7
  6
CONTINUOUS
 10
419.0429814675153
 20
444.7184979576163
 30
0.0
  0
VERTEX
  5
5FA
  8
7
  6
CONTINUOUS
 10
418.8659220567468
 20
444.2447863761743
 30
0.0
  0
VERTEX
  5
5FB
  8
7
  6
CONTINUOUS
 10
418.5498554769978
 20
443.9093053873498
 30
0.0
  0
VERTEX
  5
5FC
  8
7
  6
CONTINUOUS
 10
418.0971114573574
 20
443.5148045949359
 30
0.0
  0
VERTEX
  5
5FD
  8
7
  6
CONTINUOUS
 10
417.4657548742224
 20
442.8632570263624
 30
0.0
  0
VERTEX
  5
5FE
  8
7
  6
CONTINUOUS
 10
417.4851692832979
 20
442.4291508394344
 30
0.0
  0
VERTEX
  5
5FF
  8
7
  6
CONTINUOUS
 10
417.5643800723259
 20
442.0152356379449
 30
0.0
  0
VERTEX
  5
600
  8
7
  6
CONTINUOUS
 10
417.6630052704294
 20
441.6595636636819
 30
0.0
  0
VERTEX
  5
601
  8
7
  6
CONTINUOUS
 10
417.8012358630469
 20
441.3442736602959
 30
0.0
  0
VERTEX
  5
602
  8
7
  6
CONTINUOUS
 10
417.9588808647399
 20
441.0483980659855
 30
0.0
  0
VERTEX
  5
603
  8
7
  6
CONTINUOUS
 10
418.1367168518714
 20
440.791351289826
 30
0.0
  0
VERTEX
  5
604
  8
7
  6
CONTINUOUS
 10
418.2943618535644
 20
440.5350810900295
 30
0.0
  0
VERTEX
  5
605
  8
7
  6
CONTINUOUS
 10
418.4714212643328
 20
440.2982252993085
 30
0.0
  0
VERTEX
  5
606
  8
7
  6
CONTINUOUS
 10
418.1755456700224
 20
440.081560494026
 30
0.0
  0
VERTEX
  5
607
  8
7
  6
CONTINUOUS
 10
417.8998610611504
 20
439.8641191123805
 30
0.0
  0
VERTEX
  5
608
  8
7
  6
CONTINUOUS
 10
417.6630052704294
 20
439.647454307098
 30
0.0
  0
VERTEX
  5
609
  8
7
  6
CONTINUOUS
 10
417.4455638887839
 20
439.4300129254525
 30
0.0
  0
VERTEX
  5
60A
  8
7
  6
CONTINUOUS
 10
417.2288990835014
 20
439.212571543807
 30
0.0
  0
VERTEX
  5
60B
  8
7
  6
CONTINUOUS
 10
417.0316486872945
 20
438.976492329449
 30
0.0
  0
VERTEX
  5
60C
  8
7
  6
CONTINUOUS
 10
416.8336217147245
 20
438.7194455532896
 30
0.0
  0
VERTEX
  5
60D
  8
7
  6
CONTINUOUS
 10
416.6363713185174
 20
438.4631753534931
 30
0.0
  0
VERTEX
  5
60E
  8
7
  6
CONTINUOUS
 10
416.5579371058524
 20
436.6281254076777
 30
0.0
  0
VERTEX
  5
60F
  8
7
  6
CONTINUOUS
 10
416.340495724207
 20
434.9313060544797
 30
0.0
  0
VERTEX
  5
610
  8
7
  6
CONTINUOUS
 10
416.025205720821
 20
433.3719407175362
 30
0.0
  0
VERTEX
  5
611
  8
7
  6
CONTINUOUS
 10
415.6501193374825
 20
431.9313915641349
 30
0.0
  0
VERTEX
  5
612
  8
7
  6
CONTINUOUS
 10
415.2556185450685
 20
430.6096585942754
 30
0.0
  0
VERTEX
  5
613
  8
7
  6
CONTINUOUS
 10
414.8603411762915
 20
429.3461688516425
 30
0.0
  0
VERTEX
  5
614
  8
7
  6
CONTINUOUS
 10
414.5054457783915
 20
428.1626664744005
 30
0.0
  0
VERTEX
  5
615
  8
7
  6
CONTINUOUS
 10
414.2289845931565
 20
427.038183900748
 30
0.0
  0
VERTEX
  5
616
  8
7
  6
CONTINUOUS
 10
414.2685899876706
 20
426.9387821262815
 30
0.0
  0
VERTEX
  5
617
  8
7
  6
CONTINUOUS
 10
414.3478007766985
 20
426.6825119264851
 30
0.0
  0
VERTEX
  5
618
  8
7
  6
CONTINUOUS
 10
414.486031369316
 20
426.3276165285851
 30
0.0
  0
VERTEX
  5
619
  8
7
  6
CONTINUOUS
 10
414.604070976495
 20
425.8935103416571
 30
0.0
  0
VERTEX
  5
61A
  8
7
  6
CONTINUOUS
 10
414.722887160037
 20
425.4392131692906
 30
0.0
  0
VERTEX
  5
61B
  8
7
  6
CONTINUOUS
 10
414.7819069636266
 20
425.0051069823626
 30
0.0
  0
VERTEX
  5
61C
  8
7
  6
CONTINUOUS
 10
414.7819069636266
 20
424.6300205990241
 30
0.0
  0
VERTEX
  5
61D
  8
7
  6
CONTINUOUS
 10
414.683281765523
 20
424.3737503992277
 30
0.0
  0
VERTEX
  5
61E
  8
7
  6
CONTINUOUS
 10
414.4262349893635
 20
424.0584603958417
 30
0.0
  0
VERTEX
  5
61F
  8
7
  6
CONTINUOUS
 10
414.1505503804916
 20
423.6833740125032
 30
0.0
  0
VERTEX
  5
620
  8
7
  6
CONTINUOUS
 10
413.8740891952565
 20
423.2290768401367
 30
0.0
  0
VERTEX
  5
621
  8
7
  6
CONTINUOUS
 10
413.5976280100216
 20
422.7359508496193
 30
0.0
  0
VERTEX
  5
622
  8
7
  6
CONTINUOUS
 10
413.3017524157111
 20
422.1838050555123
 30
0.0
  0
VERTEX
  5
623
  8
7
  6
CONTINUOUS
 10
412.9864624123251
 20
421.5912772905283
 30
0.0
  0
VERTEX
  5
624
  8
7
  6
CONTINUOUS
 10
412.6898102416516
 20
420.9995261019073
 30
0.0
  0
VERTEX
  5
625
  8
7
  6
CONTINUOUS
 10
412.3939346473411
 20
420.3875839278479
 30
0.0
  0
VERTEX
  5
626
  8
7
  6
CONTINUOUS
 10
412.0980590530306
 20
419.7562273447129
 30
0.0
  0
VERTEX
  5
627
  8
7
  6
CONTINUOUS
 10
411.8215978677957
 20
419.1644761560919
 30
0.0
  0
VERTEX
  5
628
  8
7
  6
CONTINUOUS
 10
411.5257222734851
 20
418.5727249674709
 30
0.0
  0
VERTEX
  5
629
  8
7
  6
CONTINUOUS
 10
411.2694520736887
 20
418.0198025970009
 30
0.0
  0
VERTEX
  5
62A
  8
7
  6
CONTINUOUS
 10
411.0131818738922
 20
417.506485621045
 30
0.0
  0
VERTEX
  5
62B
  8
7
  6
CONTINUOUS
 10
410.7763260831712
 20
417.033550615966
 30
0.0
  0
VERTEX
  5
62C
  8
7
  6
CONTINUOUS
 10
410.5588847015257
 20
416.638273247189
 30
0.0
  0
VERTEX
  5
62D
  8
7
  6
CONTINUOUS
 10
410.3616343053187
 20
416.322983243803
 30
0.0
  0
VERTEX
  5
62E
  8
7
  6
CONTINUOUS
 10
410.2435946981397
 20
415.8888770568751
 30
0.0
  0
VERTEX
  5
62F
  8
7
  6
CONTINUOUS
 10
410.1643839091117
 20
415.4741852790225
 30
0.0
  0
VERTEX
  5
630
  8
7
  6
CONTINUOUS
 10
410.1441929236732
 20
415.0602700775331
 30
0.0
  0
VERTEX
  5
631
  8
7
  6
CONTINUOUS
 10
410.1837983181872
 20
414.6059729051666
 30
0.0
  0
VERTEX
  5
632
  8
7
  6
CONTINUOUS
 10
410.2435946981397
 20
414.0732415201351
 30
0.0
  0
VERTEX
  5
633
  8
7
  6
CONTINUOUS
 10
410.3810487143942
 20
413.4418849370001
 30
0.0
  0
VERTEX
  5
634
  8
7
  6
CONTINUOUS
 10
410.5790756869642
 20
412.6917121703232
 30
0.0
  0
VERTEX
  5
635
  8
7
  6
CONTINUOUS
 10
410.8151549013222
 20
411.7846709783162
 30
0.0
  0
VERTEX
  5
636
  8
7
  6
CONTINUOUS
 10
410.4408450943467
 20
410.9164586044602
 30
0.0
  0
VERTEX
  5
637
  8
7
  6
CONTINUOUS
 10
410.1837983181872
 20
410.2454966268113
 30
0.0
  0
VERTEX
  5
638
  8
7
  6
CONTINUOUS
 10
410.0455677255697
 20
409.7321796508553
 30
0.0
  0
VERTEX
  5
639
  8
7
  6
CONTINUOUS
 10
409.9671335129047
 20
409.3570932675168
 30
0.0
  0
VERTEX
  5
63A
  8
7
  6
CONTINUOUS
 10
409.9081137093153
 20
409.0418032641308
 30
0.0
  0
VERTEX
  5
63B
  8
7
  6
CONTINUOUS
 10
409.8685083148013
 20
408.7451510934573
 30
0.0
  0
VERTEX
  5
63C
  8
7
  6
CONTINUOUS
 10
409.8094885112117
 20
408.4298610900714
 30
0.0
  0
VERTEX
  5
63D
  8
7
  6
CONTINUOUS
 10
409.6712579185943
 20
408.0353602976574
 30
0.0
  0
VERTEX
  5
63E
  8
7
  6
CONTINUOUS
 10
409.4740075223872
 20
407.0685227256979
 30
0.0
  0
VERTEX
  5
63F
  8
7
  6
CONTINUOUS
 10
409.2759805498172
 20
406.2391391699929
 30
0.0
  0
VERTEX
  5
640
  8
7
  6
CONTINUOUS
 10
409.0989211390487
 20
405.4695519942405
 30
0.0
  0
VERTEX
  5
641
  8
7
  6
CONTINUOUS
 10
408.9606905464312
 20
404.739570213002
 30
0.0
  0
VERTEX
  5
642
  8
7
  6
CONTINUOUS
 10
408.8814797574033
 20
403.9901740226881
 30
0.0
  0
VERTEX
  5
643
  8
7
  6
CONTINUOUS
 10
408.9016707428418
 20
403.2003958614971
 30
0.0
  0
VERTEX
  5
644
  8
7
  6
CONTINUOUS
 10
409.0399013354593
 20
402.3321834876411
 30
0.0
  0
VERTEX
  5
645
  8
7
  6
CONTINUOUS
 10
409.2961715352558
 20
401.3063261120922
 30
0.0
  0
VERTEX
  5
646
  8
7
  6
CONTINUOUS
 10
409.4344021278733
 20
401.1875099285502
 30
0.0
  0
VERTEX
  5
647
  8
7
  6
CONTINUOUS
 10
409.6114615386417
 20
401.0888847304467
 30
0.0
  0
VERTEX
  5
648
  8
7
  6
CONTINUOUS
 10
409.7698831166978
 20
400.9902595323431
 30
0.0
  0
VERTEX
  5
649
  8
7
  6
CONTINUOUS
 10
409.9671335129047
 20
400.9118253196782
 30
0.0
  0
VERTEX
  5
64A
  8
7
  6
CONTINUOUS
 10
410.1837983181872
 20
400.8520289397257
 30
0.0
  0
VERTEX
  5
64B
  8
7
  6
CONTINUOUS
 10
410.4012396998327
 20
400.7735947270607
 30
0.0
  0
VERTEX
  5
64C
  8
7
  6
CONTINUOUS
 10
410.6380954905537
 20
400.7339893325467
 30
0.0
  0
VERTEX
  5
64D
  8
7
  6
CONTINUOUS
 10
410.8943656903502
 20
400.6749695289572
 30
0.0
  0
VERTEX
  5
64E
  8
7
  6
CONTINUOUS
 10
411.1708268755852
 20
400.6353641344432
 30
0.0
  0
VERTEX
  5
64F
  8
7
  6
CONTINUOUS
 10
411.4667024698957
 20
400.5957587399292
 30
0.0
  0
VERTEX
  5
650
  8
7
  6
CONTINUOUS
 10
411.7625780642061
 20
400.5561533454152
 30
0.0
  0
VERTEX
  5
651
  8
7
  6
CONTINUOUS
 10
412.0786446439552
 20
400.5367389363397
 30
0.0
  0
VERTEX
  5
652
  8
7
  6
CONTINUOUS
 10
412.4141256327796
 20
400.5165479509012
 30
0.0
  0
VERTEX
  5
653
  8
7
  6
CONTINUOUS
 10
412.7690210306796
 20
400.4971335418257
 30
0.0
  0
VERTEX
  5
654
  8
7
  6
CONTINUOUS
 10
413.1239164285795
 20
400.4777191327502
 30
0.0
  0
VERTEX
  5
655
  8
7
  6
CONTINUOUS
 10
413.499002811918
 20
400.4575281473117
 30
0.0
  0
VERTEX
  5
656
  8
7
  6
CONTINUOUS
 10
414.4068205802881
 20
400.8520289397257
 30
0.0
  0
VERTEX
  5
657
  8
7
  6
CONTINUOUS
 10
414.998571768909
 20
400.9708451232677
 30
0.0
  0
VERTEX
  5
658
  8
7
  6
CONTINUOUS
 10
415.629928352044
 20
401.0298649268572
 30
0.0
  0
VERTEX
  5
659
  8
7
  6
CONTINUOUS
 10
416.3210813151314
 20
401.0500559122957
 30
0.0
  0
VERTEX
  5
65A
  8
7
  6
CONTINUOUS
 10
417.0316486872945
 20
401.0298649268572
 30
0.0
  0
VERTEX
  5
65B
  8
7
  6
CONTINUOUS
 10
417.8012358630469
 20
400.9902595323431
 30
0.0
  0
VERTEX
  5
65C
  8
7
  6
CONTINUOUS
 10
418.5700464624364
 20
400.9506541378292
 30
0.0
  0
VERTEX
  5
65D
  8
7
  6
CONTINUOUS
 10
419.3784624563398
 20
400.9118253196782
 30
0.0
  0
VERTEX
  5
65E
  8
7
  6
CONTINUOUS
 10
420.1876550266063
 20
400.8722199251642
 30
0.0
  0
VERTEX
  5
65F
  8
7
  6
CONTINUOUS
 10
421.0162620059482
 20
400.8326145306502
 30
0.0
  0
VERTEX
  5
660
  8
7
  6
CONTINUOUS
 10
421.8650599707287
 20
400.8520289397257
 30
0.0
  0
VERTEX
  5
661
  8
7
  6
CONTINUOUS
 10
422.6936669500707
 20
400.8916343342397
 30
0.0
  0
VERTEX
  5
662
  8
7
  6
CONTINUOUS
 10
423.5222739294126
 20
400.9708451232677
 30
0.0
  0
VERTEX
  5
663
  8
7
  6
CONTINUOUS
 10
424.3516574851176
 20
401.1284901249606
 30
0.0
  0
VERTEX
  5
664
  8
7
  6
CONTINUOUS
 10
425.1406590699456
 20
401.3257405211677
 30
0.0
  0
VERTEX
  5
665
  8
7
  6
CONTINUOUS
 10
425.9296606547735
 20
401.6216161154781
 30
0.0
  0
VERTEX
  5
666
  8
7
  6
CONTINUOUS
 10
426.6798334214505
 20
401.9967024988166
 30
0.0
  0
VERTEX
  5
667
  8
7
  6
CONTINUOUS
 10
426.7194388159645
 20
402.6086446728761
 30
0.0
  0
VERTEX
  5
668
  8
7
  6
CONTINUOUS
 10
426.6006226324225
 20
403.1017706633936
 30
0.0
  0
VERTEX
  5
669
  8
7
  6
CONTINUOUS
 10
426.3249380235505
 20
403.5164624412461
 30
0.0
  0
VERTEX
  5
66A
  8
7
  6
CONTINUOUS
 10
425.949851640212
 20
403.8519434300705
 30
0.0
  0
VERTEX
  5
66B
  8
7
  6
CONTINUOUS
 10
425.4761400587701
 20
404.1284046153056
 30
0.0
  0
VERTEX
  5
66C
  8
7
  6
CONTINUOUS
 10
424.9434086737386
 20
404.345069420588
 30
0.0
  0
VERTEX
  5
66D
  8
7
  6
CONTINUOUS
 10
424.3314664996791
 20
404.542319816795
 30
0.0
  0
VERTEX
  5
66E
  8
7
  6
CONTINUOUS
 10
423.7001099165441
 20
404.739570213002
 30
0.0
  0
VERTEX
  5
66F
  8
7
  6
CONTINUOUS
 10
423.0687533334092
 20
404.897215214695
 30
0.0
  0
VERTEX
  5
670
  8
7
  6
CONTINUOUS
 10
422.4373967502742
 20
405.095242187265
 30
0.0
  0
VERTEX
  5
671
  8
7
  6
CONTINUOUS
 10
421.8254545762147
 20
405.3119069925475
 30
0.0
  0
VERTEX
  5
672
  8
7
  6
CONTINUOUS
 10
421.2927231911832
 20
405.568177192344
 30
0.0
  0
VERTEX
  5
673
  8
7
  6
CONTINUOUS
 10
420.8190116097413
 20
405.884243772093
 30
0.0
  0
VERTEX
  5
674
  8
7
  6
CONTINUOUS
 10
420.4447018027658
 20
406.2593301554315
 30
0.0
  0
VERTEX
  5
675
  8
7
  6
CONTINUOUS
 10
420.1682406175308
 20
406.7128507514349
 30
0.0
  0
VERTEX
  5
676
  8
7
  6
CONTINUOUS
 10
420.0494244339887
 20
407.2851875309804
 30
0.0
  0
VERTEX
  5
677
  8
7
  6
CONTINUOUS
 10
420.5627414099447
 20
407.9367350995539
 30
0.0
  0
VERTEX
  5
678
  8
7
  6
CONTINUOUS
 10
420.5231360154307
 20
408.1533999048364
 30
0.0
  0
VERTEX
  5
679
  8
7
  6
CONTINUOUS
 10
420.3849054228132
 20
408.3110449065294
 30
0.0
  0
VERTEX
  5
67A
  8
7
  6
CONTINUOUS
 10
420.2078460120448
 20
408.4096701046328
 30
0.0
  0
VERTEX
  5
67B
  8
7
  6
CONTINUOUS
 10
419.9709902213237
 20
408.4888808936608
 30
0.0
  0
VERTEX
  5
67C
  8
7
  6
CONTINUOUS
 10
419.7139434451643
 20
408.5284862881749
 30
0.0
  0
VERTEX
  5
67D
  8
7
  6
CONTINUOUS
 10
419.4576732453678
 20
408.5680916826888
 30
0.0
  0
VERTEX
  5
67E
  8
7
  6
CONTINUOUS
 10
419.2014030455713
 20
408.5680916826888
 30
0.0
  0
VERTEX
  5
67F
  8
7
  6
CONTINUOUS
 10
418.9839616639258
 20
408.5680916826888
 30
0.0
  0
VERTEX
  5
680
  8
7
  6
CONTINUOUS
 10
418.9839616639258
 20
409.3174878730028
 30
0.0
  0
VERTEX
  5
681
  8
7
  6
CONTINUOUS
 10
419.4972786398818
 20
409.6529688618273
 30
0.0
  0
VERTEX
  5
682
  8
7
  6
CONTINUOUS
 10
419.9904046303993
 20
410.0482462306043
 30
0.0
  0
VERTEX
  5
683
  8
7
  6
CONTINUOUS
 10
420.4641162118413
 20
410.5211812356833
 30
0.0
  0
VERTEX
  5
684
  8
7
  6
CONTINUOUS
 10
420.9378277932832
 20
411.0539126207148
 30
0.0
  0
VERTEX
  5
685
  8
7
  6
CONTINUOUS
 10
421.3913483892867
 20
411.6262494002602
 30
0.0
  0
VERTEX
  5
686
  8
7
  6
CONTINUOUS
 10
421.8060401671392
 20
412.2187771652442
 30
0.0
  0
VERTEX
  5
687
  8
7
  6
CONTINUOUS
 10
422.2005409595532
 20
412.8501337483792
 30
0.0
  0
VERTEX
  5
688
  8
7
  6
CONTINUOUS
 10
422.5554363574532
 20
413.4814903315142
 30
0.0
  0
VERTEX
  5
689
  8
7
  6
CONTINUOUS
 10
422.8715029372021
 20
414.1128469146491
 30
0.0
  0
VERTEX
  5
68A
  8
7
  6
CONTINUOUS
 10
423.1479641224371
 20
414.7247890887086
 30
0.0
  0
VERTEX
  5
68B
  8
7
  6
CONTINUOUS
 10
423.3848199131581
 20
415.335954686405
 30
0.0
  0
VERTEX
  5
68C
  8
7
  6
CONTINUOUS
 10
423.5820703093651
 20
415.8888770568751
 30
0.0
  0
VERTEX
  5
68D
  8
7
  6
CONTINUOUS
 10
423.7203009019826
 20
416.402194032831
 30
0.0
  0
VERTEX
  5
68E
  8
7
  6
CONTINUOUS
 10
423.7987351146476
 20
416.8557146288345
 30
0.0
  0
VERTEX
  5
68F
  8
7
  6
CONTINUOUS
 10
423.7987351146476
 20
417.230801012173
 30
0.0
  0
VERTEX
  5
690
  8
7
  6
CONTINUOUS
 10
423.7591297201336
 20
417.5460910155589
 30
0.0
  0
VERTEX
  5
691
  8
7
  6
CONTINUOUS
 10
424.4696970922966
 20
418.4344943748534
 30
0.0
  0
VERTEX
  5
692
  8
7
  6
CONTINUOUS
 10
425.0420338718421
 20
419.2234959596814
 30
0.0
  0
VERTEX
  5
693
  8
7
  6
CONTINUOUS
 10
425.4955544678455
 20
419.9146489227689
 30
0.0
  0
VERTEX
  5
694
  8
7
  6
CONTINUOUS
 10
425.870640851184
 20
420.5460055059038
 30
0.0
  0
VERTEX
  5
695
  8
7
  6
CONTINUOUS
 10
426.147102036419
 20
421.0981513000108
 30
0.0
  0
VERTEX
  5
696
  8
7
  6
CONTINUOUS
 10
426.3645434180645
 20
421.5912772905283
 30
0.0
  0
VERTEX
  5
697
  8
7
  6
CONTINUOUS
 10
426.5221884197575
 20
422.0649888719702
 30
0.0
  0
VERTEX
  5
698
  8
7
  6
CONTINUOUS
 10
426.660419012375
 20
422.4990950588983
 30
0.0
  0
VERTEX
  5
699
  8
7
  6
CONTINUOUS
 10
426.778458619554
 20
422.9137868367507
 30
0.0
  0
VERTEX
  5
69A
  8
7
  6
CONTINUOUS
 10
426.8770838176575
 20
423.3277020382402
 30
0.0
  0
VERTEX
  5
69B
  8
7
  6
CONTINUOUS
 10
426.9959000011995
 20
423.7423938160927
 30
0.0
  0
VERTEX
  5
69C
  8
7
  6
CONTINUOUS
 10
427.1333540174539
 20
424.1765000030206
 30
0.0
  0
VERTEX
  5
69D
  8
7
  6
CONTINUOUS
 10
427.3111900045855
 20
424.6502115844626
 30
0.0
  0
VERTEX
  5
69E
  8
7
  6
CONTINUOUS
 10
427.5480457953065
 20
425.1433375749801
 30
0.0
  0
VERTEX
  5
69F
  8
7
  6
CONTINUOUS
 10
427.8641123750555
 20
425.6962599454502
 30
0.0
  0
VERTEX
  5
6A0
  8
7
  6
CONTINUOUS
 10
428.2586131674694
 20
426.3276165285851
 30
0.0
  0
VERTEX
  5
6A1
  8
7
  6
CONTINUOUS
 10
428.7121337634729
 20
426.9589731117201
 30
0.0
  0
VERTEX
  5
6A2
  8
7
  6
CONTINUOUS
 10
429.1664309358394
 20
427.5709152857796
 30
0.0
  0
VERTEX
  5
6A3
  8
7
  6
CONTINUOUS
 10
429.6401425172814
 20
428.1626664744005
 30
0.0
  0
VERTEX
  5
6A4
  8
7
  6
CONTINUOUS
 10
430.1332685077988
 20
428.7148122685075
 30
0.0
  0
VERTEX
  5
6A5
  8
7
  6
CONTINUOUS
 10
430.6069800892408
 20
429.2677346389775
 30
0.0
  0
VERTEX
  5
6A6
  8
7
  6
CONTINUOUS
 10
431.0799150943198
 20
429.8198804330844
 30
0.0
  0
VERTEX
  5
6A7
  8
7
  6
CONTINUOUS
 10
431.5342122666863
 20
430.3526118181159
 30
0.0
  0
VERTEX
  5
6A8
  8
7
  6
CONTINUOUS
 10
431.9877328626898
 20
430.8853432031474
 30
0.0
  0
VERTEX
  5
6A9
  8
7
  6
CONTINUOUS
 10
432.4218390496177
 20
431.4188511645419
 30
0.0
  0
VERTEX
  5
6AA
  8
7
  6
CONTINUOUS
 10
432.8171164183947
 20
431.9515825495733
 30
0.0
  0
VERTEX
  5
6AB
  8
7
  6
CONTINUOUS
 10
433.1720118162947
 20
432.5231427527558
 30
0.0
  0
VERTEX
  5
6AC
  8
7
  6
CONTINUOUS
 10
433.5074928051192
 20
433.0954795323013
 30
0.0
  0
VERTEX
  5
6AD
  8
7
  6
CONTINUOUS
 10
433.8033683994297
 20
433.6880072972853
 30
0.0
  0
VERTEX
  5
6AE
  8
7
  6
CONTINUOUS
 10
434.0402241901507
 20
434.3193638804203
 30
0.0
  0
VERTEX
  5
6AF
  8
7
  6
CONTINUOUS
 10
434.2180601772822
 20
434.9903258580692
 30
0.0
  0
VERTEX
  5
6B0
  8
7
  6
CONTINUOUS
 10
434.3562907698997
 20
435.6807022447937
 30
0.0
  0
VERTEX
  5
6B1
  8
7
  6
CONTINUOUS
 10
434.3360997844612
 20
436.5093092241356
 30
0.0
  0
VERTEX
  5
6B2
  8
7
  6
CONTINUOUS
 10
434.2964943899472
 20
437.5157521906091
 30
0.0
  0
VERTEX
  5
6B3
  8
7
  6
CONTINUOUS
 10
434.2576655717962
 20
438.620820355186
 30
0.0
  0
VERTEX
  5
6B4
  8
7
  6
CONTINUOUS
 10
434.2576655717962
 20
439.7849083233525
 30
0.0
  0
VERTEX
  5
6B5
  8
7
  6
CONTINUOUS
 10
434.2770799808717
 20
440.9101674733679
 30
0.0
  0
VERTEX
  5
6B6
  8
7
  6
CONTINUOUS
 10
434.3951195880506
 20
441.9554392579924
 30
0.0
  0
VERTEX
  5
6B7
  8
7
  6
CONTINUOUS
 10
434.5729555751821
 20
442.8438426172868
 30
0.0
  0
VERTEX
  5
6B8
  8
7
  6
CONTINUOUS
 10
434.8890221549312
 20
443.5148045949359
 30
0.0
  0
VERTEX
  5
6B9
  8
7
  6
CONTINUOUS
 10
435.5203787380661
 20
444.6983069721778
 30
0.0
  0
VERTEX
  5
6BA
  8
7
  6
CONTINUOUS
 10
436.1121299266871
 20
446.2770867181968
 30
0.0
  0
VERTEX
  5
6BB
  8
7
  6
CONTINUOUS
 10
436.665052297157
 20
448.1913474530401
 30
0.0
  0
VERTEX
  5
6BC
  8
7
  6
CONTINUOUS
 10
437.1581782876746
 20
450.3820693731186
 30
0.0
  0
VERTEX
  5
6BD
  8
7
  6
CONTINUOUS
 10
437.611698883678
 20
452.848475902069
 30
0.0
  0
VERTEX
  5
6BE
  8
7
  6
CONTINUOUS
 10
438.0263906615305
 20
455.4927184181508
 30
0.0
  0
VERTEX
  5
6BF
  8
7
  6
CONTINUOUS
 10
438.3812860594305
 20
458.2946059359257
 30
0.0
  0
VERTEX
  5
6C0
  8
7
  6
CONTINUOUS
 10
438.716767048255
 20
461.1951186518041
 30
0.0
  0
VERTEX
  5
6C1
  8
7
  6
CONTINUOUS
 10
438.9730372480514
 20
464.1352367621964
 30
0.0
  0
VERTEX
  5
6C2
  8
7
  6
CONTINUOUS
 10
439.2098930387724
 20
467.0955458580273
 30
0.0
  0
VERTEX
  5
6C3
  8
7
  6
CONTINUOUS
 10
439.387729025904
 20
469.9960585739057
 30
0.0
  0
VERTEX
  5
6C4
  8
7
  6
CONTINUOUS
 10
439.506545209446
 20
472.8181370771191
 30
0.0
  0
VERTEX
  5
6C5
  8
7
  6
CONTINUOUS
 10
439.5849794221109
 20
475.4817940022764
 30
0.0
  0
VERTEX
  5
6C6
  8
7
  6
CONTINUOUS
 10
439.6245848166249
 20
477.9683915166653
 30
0.0
  0
VERTEX
  5
6C7
  8
7
  6
CONTINUOUS
 10
439.6051704075495
 20
480.1979422548948
 30
0.0
  0
VERTEX
  5
6C8
  8
7
  6
CONTINUOUS
 10
439.5259596185215
 20
482.1518083842521
 30
0.0
  0
VERTEX
  5
6C9
  8
7
  6
CONTINUOUS
 10
439.5655650130354
 20
482.4274929931241
 30
0.0
  0
VERTEX
  5
6CA
  8
7
  6
CONTINUOUS
 10
439.6641902111389
 20
482.7831649673872
 30
0.0
  0
VERTEX
  5
6CB
  8
7
  6
CONTINUOUS
 10
439.8218352128319
 20
483.1970801688766
 30
0.0
  0
VERTEX
  5
6CC
  8
7
  6
CONTINUOUS
 10
439.9996711999634
 20
483.6311863558046
 30
0.0
  0
VERTEX
  5
6CD
  8
7
  6
CONTINUOUS
 10
440.1573162016564
 20
484.0652925427325
 30
0.0
  0
VERTEX
  5
6CE
  8
7
  6
CONTINUOUS
 10
440.3149612033494
 20
484.4799843205851
 30
0.0
  0
VERTEX
  5
6CF
  8
7
  6
CONTINUOUS
 10
440.4135864014529
 20
484.834879718485
 30
0.0
  0
VERTEX
  5
6D0
  8
7
  6
CONTINUOUS
 10
440.4531917959669
 20
485.11134090372
 30
0.0
  0
VERTEX
  5
6D1
  8
7
  6
CONTINUOUS
 10
450.260574684542
 20
484.6578203077165
 30
0.0
  0
VERTEX
  5
6D2
  8
7
  6
CONTINUOUS
 10
450.300180079056
 20
485.8413226849585
 30
0.0
  0
VERTEX
  5
6D3
  8
7
  6
CONTINUOUS
 10
450.378614291721
 20
487.4201024309775
 30
0.0
  0
VERTEX
  5
6D4
  8
7
  6
CONTINUOUS
 10
450.4384106716735
 20
489.2147704059158
 30
0.0
  0
VERTEX
  5
6D5
  8
7
  6
CONTINUOUS
 10
450.4384106716735
 20
491.0894257462452
 30
0.0
  0
VERTEX
  5
6D6
  8
7
  6
CONTINUOUS
 10
450.3195944881315
 20
492.8654558884712
 30
0.0
  0
VERTEX
  5
6D7
  8
7
  6
CONTINUOUS
 10
450.023718893821
 20
494.4046302399761
 30
0.0
  0
VERTEX
  5
6D8
  8
7
  6
CONTINUOUS
 10
449.4909875087895
 20
495.5298893899916
 30
0.0
  0
VERTEX
  5
6D9
  8
7
  6
CONTINUOUS
 10
448.6623805294475
 20
496.1022261695371
 30
0.0
  0
VERTEX
  5
6DA
  8
7
  6
CONTINUOUS
 10
448.681794938523
 20
496.5557467655405
 30
0.0
  0
VERTEX
  5
6DB
  8
7
  6
CONTINUOUS
 10
448.7408147421125
 20
496.9502475579545
 30
0.0
  0
VERTEX
  5
6DC
  8
7
  6
CONTINUOUS
 10
448.8596309256545
 20
497.3059195322174
 30
0.0
  0
VERTEX
  5
6DD
  8
7
  6
CONTINUOUS
 10
448.9776705328335
 20
497.6212095356035
 30
0.0
  0
VERTEX
  5
6DE
  8
7
  6
CONTINUOUS
 10
449.1360921108895
 20
497.917085129914
 30
0.0
  0
VERTEX
  5
6DF
  8
7
  6
CONTINUOUS
 10
449.313151521658
 20
498.1741319060735
 30
0.0
  0
VERTEX
  5
6E0
  8
7
  6
CONTINUOUS
 10
449.4909875087895
 20
498.43040210587
 30
0.0
  0
VERTEX
  5
6E1
  8
7
  6
CONTINUOUS
 10
449.6882379049965
 20
498.667257896591
 30
0.0
  0
VERTEX
  5
6E2
  8
7
  6
CONTINUOUS
 10
449.9250936957175
 20
498.6082380930014
 30
0.0
  0
VERTEX
  5
6E3
  8
7
  6
CONTINUOUS
 10
450.181363895514
 20
498.4700075003839
 30
0.0
  0
VERTEX
  5
6E4
  8
7
  6
CONTINUOUS
 10
450.457825080749
 20
498.2525661187385
 30
0.0
  0
VERTEX
  5
6E5
  8
7
  6
CONTINUOUS
 10
450.7537006750595
 20
498.035901313456
 30
0.0
  0
VERTEX
  5
6E6
  8
7
  6
CONTINUOUS
 10
451.0495762693699
 20
497.7990455227349
 30
0.0
  0
VERTEX
  5
6E7
  8
7
  6
CONTINUOUS
 10
451.3462284400434
 20
497.5816041410894
 30
0.0
  0
VERTEX
  5
6E8
  8
7
  6
CONTINUOUS
 10
451.60249863984
 20
497.443373548472
 30
0.0
  0
VERTEX
  5
6E9
  8
7
  6
CONTINUOUS
 10
451.8191634451224
 20
497.3843537448824
 30
0.0
  0
VERTEX
  5
6EA
  8
7
  6
CONTINUOUS
 10
452.2532696320504
 20
497.8774797353999
 30
0.0
  0
VERTEX
  5
6EB
  8
7
  6
CONTINUOUS
 10
452.7269812134924
 20
498.3713823022805
 30
0.0
  0
VERTEX
  5
6EC
  8
7
  6
CONTINUOUS
 10
453.2597125985238
 20
498.8839227018734
 30
0.0
  0
VERTEX
  5
6ED
  8
7
  6
CONTINUOUS
 10
453.8320493780693
 20
499.3778252687539
 30
0.0
  0
VERTEX
  5
6EE
  8
7
  6
CONTINUOUS
 10
454.4439915521288
 20
499.8903656683469
 30
0.0
  0
VERTEX
  5
6EF
  8
7
  6
CONTINUOUS
 10
455.0947625443393
 20
500.4036826443029
 30
0.0
  0
VERTEX
  5
6F0
  8
7
  6
CONTINUOUS
 10
455.7657245219882
 20
500.8968086348203
 30
0.0
  0
VERTEX
  5
6F1
  8
7
  6
CONTINUOUS
 10
456.4568774850757
 20
501.3899346253378
 30
0.0
  0
VERTEX
  5
6F2
  8
7
  6
CONTINUOUS
 10
457.1472538718002
 20
501.8636462067798
 30
0.0
  0
VERTEX
  5
6F3
  8
7
  6
CONTINUOUS
 10
457.8578212439631
 20
502.3179433791463
 30
0.0
  0
VERTEX
  5
6F4
  8
7
  6
CONTINUOUS
 10
458.5683886161261
 20
502.7520495660742
 30
0.0
  0
VERTEX
  5
6F5
  8
7
  6
CONTINUOUS
 10
459.2587650028506
 20
503.1465503584882
 30
0.0
  0
VERTEX
  5
6F6
  8
7
  6
CONTINUOUS
 10
459.9491413895751
 20
503.5216367418267
 30
0.0
  0
VERTEX
  5
6F7
  8
7
  6
CONTINUOUS
 10
460.620103367224
 20
503.8571177306512
 30
0.0
  0
VERTEX
  5
6F8
  8
7
  6
CONTINUOUS
 10
461.2716509357975
 20
504.1724077340372
 30
0.0
  0
VERTEX
  5
6F9
  8
7
  6
CONTINUOUS
 10
461.883593109857
 20
504.4294545101966
 30
0.0
  0
VERTEX
  5
6FA
  8
7
  6
CONTINUOUS
 10
462.2975083113465
 20
504.6065139209652
 30
0.0
  0
VERTEX
  5
6FB
  8
7
  6
CONTINUOUS
 10
462.7316144982744
 20
504.8829751062002
 30
0.0
  0
VERTEX
  5
6FC
  8
7
  6
CONTINUOUS
 10
463.1657206852024
 20
505.2580614895386
 30
0.0
  0
VERTEX
  5
6FD
  8
7
  6
CONTINUOUS
 10
463.6394322666444
 20
505.7115820855421
 30
0.0
  0
VERTEX
  5
6FE
  8
7
  6
CONTINUOUS
 10
464.1131438480864
 20
506.2443134705736
 30
0.0
  0
VERTEX
  5
6FF
  8
7
  6
CONTINUOUS
 10
464.5868554295283
 20
506.8166502501191
 30
0.0
  0
VERTEX
  5
700
  8
7
  6
CONTINUOUS
 10
465.0605670109703
 20
507.4285924241786
 30
0.0
  0
VERTEX
  5
701
  8
7
  6
CONTINUOUS
 10
465.5335020160493
 20
508.079363416389
 30
0.0
  0
VERTEX
  5
702
  8
7
  6
CONTINUOUS
 10
466.0072135974913
 20
508.750325394038
 30
0.0
  0
VERTEX
  5
703
  8
7
  6
CONTINUOUS
 10
466.4615107698577
 20
509.421287371687
 30
0.0
  0
VERTEX
  5
704
  8
7
  6
CONTINUOUS
 10
466.8956169567858
 20
510.0728349402605
 30
0.0
  0
VERTEX
  5
705
  8
7
  6
CONTINUOUS
 10
467.3297231437137
 20
510.7041915233954
 30
0.0
  0
VERTEX
  5
706
  8
7
  6
CONTINUOUS
 10
467.7242239361277
 20
511.2959427120164
 30
0.0
  0
VERTEX
  5
707
  8
7
  6
CONTINUOUS
 10
468.0993103194662
 20
511.8286740970478
 30
0.0
  0
VERTEX
  5
708
  8
7
  6
CONTINUOUS
 10
468.4542057173662
 20
512.3225766639283
 30
0.0
  0
VERTEX
  5
709
  8
7
  6
CONTINUOUS
 10
468.7702722971152
 20
512.7170774563423
 30
0.0
  0
VERTEX
  5
70A
  8
7
  6
CONTINUOUS
 10
468.3361661101872
 20
514.0388104262017
 30
0.0
  0
VERTEX
  5
70B
  8
7
  6
CONTINUOUS
 10
467.9214743323347
 20
515.2425037888822
 30
0.0
  0
VERTEX
  5
70C
  8
7
  6
CONTINUOUS
 10
467.5269735399207
 20
516.3281575443837
 30
0.0
  0
VERTEX
  5
70D
  8
7
  6
CONTINUOUS
 10
467.1713015656578
 20
517.2949951163431
 30
0.0
  0
VERTEX
  5
70E
  8
7
  6
CONTINUOUS
 10
466.8164061677577
 20
518.163207490199
 30
0.0
  0
VERTEX
  5
70F
  8
7
  6
CONTINUOUS
 10
466.4809251789333
 20
518.952209075027
 30
0.0
  0
VERTEX
  5
710
  8
7
  6
CONTINUOUS
 10
466.1648585991843
 20
519.66277644719
 30
0.0
  0
VERTEX
  5
711
  8
7
  6
CONTINUOUS
 10
465.8891739903123
 20
520.3143240157635
 30
0.0
  0
VERTEX
  5
712
  8
7
  6
CONTINUOUS
 10
465.5932983960018
 20
520.885884218946
 30
0.0
  0
VERTEX
  5
713
  8
7
  6
CONTINUOUS
 10
465.3362516198423
 20
521.4388065894159
 30
0.0
  0
VERTEX
  5
714
  8
7
  6
CONTINUOUS
 10
465.0993958291213
 20
521.9319325799333
 30
0.0
  0
VERTEX
  5
715
  8
7
  6
CONTINUOUS
 10
464.8625400384003
 20
522.4056441613754
 30
0.0
  0
VERTEX
  5
716
  8
7
  6
CONTINUOUS
 10
464.6458752331179
 20
522.8793557428173
 30
0.0
  0
VERTEX
  5
717
  8
7
  6
CONTINUOUS
 10
464.4284338514723
 20
523.3328763388208
 30
0.0
  0
VERTEX
  5
718
  8
7
  6
CONTINUOUS
 10
464.2311834552654
 20
523.8065879202628
 30
0.0
  0
VERTEX
  5
719
  8
7
  6
CONTINUOUS
 10
464.0541240444969
 20
524.2802995017048
 30
0.0
  0
VERTEX
  5
71A
  8
7
  6
CONTINUOUS
 10
463.5998268721304
 20
525.3659532572062
 30
0.0
  0
VERTEX
  5
71B
  8
7
  6
CONTINUOUS
 10
463.0872864725374
 20
526.2341656310623
 30
0.0
  0
VERTEX
  5
71C
  8
7
  6
CONTINUOUS
 10
462.5149496929919
 20
526.9439564268622
 30
0.0
  0
VERTEX
  5
71D
  8
7
  6
CONTINUOUS
 10
461.9030075189325
 20
527.5162932064077
 30
0.0
  0
VERTEX
  5
71E
  8
7
  6
CONTINUOUS
 10
461.251459950359
 20
528.0296101823636
 30
0.0
  0
VERTEX
  5
71F
  8
7
  6
CONTINUOUS
 10
460.5610835636346
 20
528.4831307783671
 30
0.0
  0
VERTEX
  5
720
  8
7
  6
CONTINUOUS
 10
459.8109107969576
 20
528.9374279507336
 30
0.0
  0
VERTEX
  5
721
  8
7
  6
CONTINUOUS
 10
459.0219092121296
 20
529.4305539412511
 30
0.0
  0
VERTEX
  5
722
  8
7
  6
CONTINUOUS
 10
458.1933022327876
 20
530.0028907207966
 30
0.0
  0
VERTEX
  5
723
  8
7
  6
CONTINUOUS
 10
457.3048988734932
 20
530.693267107521
 30
0.0
  0
VERTEX
  5
724
  8
7
  6
CONTINUOUS
 10
456.3978576814862
 20
531.5420650723015
 30
0.0
  0
VERTEX
  5
725
  8
7
  6
CONTINUOUS
 10
455.4504345186023
 20
532.6075278423646
 30
0.0
  0
VERTEX
  5
726
  8
7
  6
CONTINUOUS
 10
454.4634059612043
 20
533.8904319940729
 30
0.0
  0
VERTEX
  5
727
  8
7
  6
CONTINUOUS
 10
453.4375485856553
 20
535.4684351637288
 30
0.0
  0
VERTEX
  5
728
  8
7
  6
CONTINUOUS
 10
452.3720858155924
 20
537.3632814894968
 30
0.0
  0
VERTEX
  5
729
  8
7
  6
CONTINUOUS
 10
451.2864320600909
 20
539.6324376222401
 30
0.0
  0
VERTEX
  5
72A
  8
7
  6
CONTINUOUS
 10
450.9905564657805
 20
540.8361309849206
 30
0.0
  0
VERTEX
  5
72B
  8
7
  6
CONTINUOUS
 10
450.6752664623945
 20
541.9411991494976
 30
0.0
  0
VERTEX
  5
72C
  8
7
  6
CONTINUOUS
 10
450.300180079056
 20
542.9274511305325
 30
0.0
  0
VERTEX
  5
72D
  8
7
  6
CONTINUOUS
 10
449.8854883012035
 20
543.8352688989025
 30
0.0
  0
VERTEX
  5
72E
  8
7
  6
CONTINUOUS
 10
449.4319677052
 20
544.644461469169
 30
0.0
  0
VERTEX
  5
72F
  8
7
  6
CONTINUOUS
 10
448.9388417146826
 20
545.3550288413319
 30
0.0
  0
VERTEX
  5
730
  8
7
  6
CONTINUOUS
 10
448.4053337532881
 20
546.0057998335424
 30
0.0
  0
VERTEX
  5
731
  8
7
  6
CONTINUOUS
 10
447.8337735501056
 20
546.5983275985263
 30
0.0
  0
VERTEX
  5
732
  8
7
  6
CONTINUOUS
 10
447.2218313760461
 20
547.1108679981194
 30
0.0
  0
VERTEX
  5
733
  8
7
  6
CONTINUOUS
 10
446.5904747929112
 20
547.5651651704859
 30
0.0
  0
VERTEX
  5
734
  8
7
  6
CONTINUOUS
 10
445.8993218298237
 20
547.9596659628999
 30
0.0
  0
VERTEX
  5
735
  8
7
  6
CONTINUOUS
 10
445.1895310340237
 20
548.3145613607999
 30
0.0
  0
VERTEX
  5
736
  8
7
  6
CONTINUOUS
 10
444.4199438582712
 20
548.6500423496243
 30
0.0
  0
VERTEX
  5
737
  8
7
  6
CONTINUOUS
 10
443.6301656970803
 20
548.9265035348593
 30
0.0
  0
VERTEX
  5
738
  8
7
  6
CONTINUOUS
 10
442.8015587177383
 20
549.2029647200943
 30
0.0
  0
VERTEX
  5
739
  8
7
  6
CONTINUOUS
 10
441.9527607529578
 20
549.4398205108153
 30
0.0
  0
VERTEX
  5
73A
  8
7
  6
CONTINUOUS
 10
441.0457195609509
 20
549.6766763015362
 30
0.0
  0
VERTEX
  5
73B
  8
7
  6
CONTINUOUS
 10
440.1177108071424
 20
549.9135320922572
 30
0.0
  0
VERTEX
  5
73C
  8
7
  6
CONTINUOUS
 10
439.150873235183
 20
550.1301968975397
 30
0.0
  0
VERTEX
  5
73D
  8
7
  6
CONTINUOUS
 10
438.164621254148
 20
550.3670526882606
 30
0.0
  0
VERTEX
  5
73E
  8
7
  6
CONTINUOUS
 10
437.137987302236
 20
550.6233228880571
 30
0.0
  0
VERTEX
  5
73F
  8
7
  6
CONTINUOUS
 10
436.0725245321731
 20
550.8803696642167
 30
0.0
  0
VERTEX
  5
740
  8
7
  6
CONTINUOUS
 10
434.9674563675961
 20
551.1762452585272
 30
0.0
  0
VERTEX
  5
741
  8
7
  6
CONTINUOUS
 10
433.8429737939437
 20
551.5117262473516
 30
0.0
  0
VERTEX
  5
742
  8
7
  6
CONTINUOUS
 10
432.6983002348527
 20
551.8666216452516
 30
0.0
  0
VERTEX
  5
743
  8
7
  6
CONTINUOUS
 10
431.5147978576108
 20
552.2813134231042
 30
0.0
  0
VERTEX
  5
744
  8
7
  6
CONTINUOUS
 10
430.2909135094919
 20
552.755025004546
 30
0.0
  0
VERTEX
  5
745
  8
7
  6
CONTINUOUS
 10
429.0476147522974
 20
553.2877563895776
 30
0.0
  0
VERTEX
  5
746
  8
7
  6
CONTINUOUS
 10
427.7849015860274
 20
553.860093169123
 30
0.0
  0
VERTEX
  5
747
  8
7
  6
CONTINUOUS
 10
426.4825830252435
 20
554.531055146772
 30
0.0
  0
VERTEX
  5
748
  8
7
  6
CONTINUOUS
 10
425.160073479021
 20
555.2610369280105
 30
0.0
  0
VERTEX
  5
749
  8
7
  6
CONTINUOUS
 10
423.7987351146476
 20
556.0896439073524
 30
0.0
  0
VERTEX
  5
74A
  8
7
  6
CONTINUOUS
 10
422.7138579355092
 20
560.6481471582778
 30
0.0
  0
VERTEX
  5
74B
  8
7
  6
CONTINUOUS
 10
423.1673785315127
 20
561.4371487431057
 30
0.0
  0
VERTEX
  5
74C
  8
7
  6
CONTINUOUS
 10
423.6410901129546
 20
562.3845719059897
 30
0.0
  0
VERTEX
  5
74D
  8
7
  6
CONTINUOUS
 10
424.0751962998826
 20
563.5090544796421
 30
0.0
  0
VERTEX
  5
74E
  8
7
  6
CONTINUOUS
 10
424.4696970922966
 20
564.7523532368366
 30
0.0
  0
VERTEX
  5
74F
  8
7
  6
CONTINUOUS
 10
424.8253690665596
 20
566.1338825866485
 30
0.0
  0
VERTEX
  5
750
  8
7
  6
CONTINUOUS
 10
425.1010536754316
 20
567.6334515436395
 30
0.0
  0
VERTEX
  5
751
  8
7
  6
CONTINUOUS
 10
425.2788896625631
 20
569.19204030422
 30
0.0
  0
VERTEX
  5
752
  8
7
  6
CONTINUOUS
 10
425.3379094661526
 20
570.8500308392669
 30
0.0
  0
VERTEX
  5
753
  8
7
  6
CONTINUOUS
 10
426.107496641905
 20
571.2445316316807
 30
0.0
  0
VERTEX
  5
754
  8
7
  6
CONTINUOUS
 10
426.7590442104785
 20
571.6980522276842
 30
0.0
  0
VERTEX
  5
755
  8
7
  6
CONTINUOUS
 10
427.252170200996
 20
572.2113692036403
 30
0.0
  0
VERTEX
  5
756
  8
7
  6
CONTINUOUS
 10
427.6466709934099
 20
572.8031203922612
 30
0.0
  0
VERTEX
  5
757
  8
7
  6
CONTINUOUS
 10
427.9231321786449
 20
573.4150625663208
 30
0.0
  0
VERTEX
  5
758
  8
7
  6
CONTINUOUS
 10
428.1009681657764
 20
574.0464191494557
 30
0.0
  0
VERTEX
  5
759
  8
7
  6
CONTINUOUS
 10
428.1794023784414
 20
574.7173811271047
 30
0.0
  0
VERTEX
  5
75A
  8
7
  6
CONTINUOUS
 10
428.1794023784414
 20
575.4077575138291
 30
0.0
  0
VERTEX
  5
75B
  8
7
  6
CONTINUOUS
 10
428.1009681657764
 20
576.0787194914781
 30
0.0
  0
VERTEX
  5
75C
  8
7
  6
CONTINUOUS
 10
427.9821519822344
 20
576.7302670600516
 30
0.0
  0
VERTEX
  5
75D
  8
7
  6
CONTINUOUS
 10
427.8043159951029
 20
577.381038052262
 30
0.0
  0
VERTEX
  5
75E
  8
7
  6
CONTINUOUS
 10
427.5876511898205
 20
577.9929802263215
 30
0.0
  0
VERTEX
  5
75F
  8
7
  6
CONTINUOUS
 10
427.3313809900239
 20
578.5451260204285
 30
0.0
  0
VERTEX
  5
760
  8
7
  6
CONTINUOUS
 10
427.054919804789
 20
579.0584429963844
 30
0.0
  0
VERTEX
  5
761
  8
7
  6
CONTINUOUS
 10
426.778458619554
 20
579.512740168751
 30
0.0
  0
VERTEX
  5
762
  8
7
  6
CONTINUOUS
 10
426.501997434319
 20
579.8870499757264
 30
0.0
  0
VERTEX
  5
763
  8
7
  6
CONTINUOUS
 10
425.83103545667
 20
580.222530964551
 30
0.0
  0
VERTEX
  5
764
  8
7
  6
CONTINUOUS
 10
425.160073479021
 20
580.5184065588613
 30
0.0
  0
VERTEX
  5
765
  8
7
  6
CONTINUOUS
 10
424.5287168958861
 20
580.7754533350209
 30
0.0
  0
VERTEX
  5
766
  8
7
  6
CONTINUOUS
 10
423.8973603127511
 20
580.9727037312279
 30
0.0
  0
VERTEX
  5
767
  8
7
  6
CONTINUOUS
 10
423.3056091241302
 20
581.1505397183594
 30
0.0
  0
VERTEX
  5
768
  8
7
  6
CONTINUOUS
 10
422.7138579355092
 20
581.3081847200524
 30
0.0
  0
VERTEX
  5
769
  8
7
  6
CONTINUOUS
 10
422.1213301705252
 20
581.4262243272314
 30
0.0
  0
VERTEX
  5
76A
  8
7
  6
CONTINUOUS
 10
421.5691843764182
 20
581.5248495253348
 30
0.0
  0
VERTEX
  5
76B
  8
7
  6
CONTINUOUS
 10
420.9968475968727
 20
581.6040603143629
 30
0.0
  0
VERTEX
  5
76C
  8
7
  6
CONTINUOUS
 10
420.4641162118413
 20
581.6630801179524
 30
0.0
  0
VERTEX
  5
76D
  8
7
  6
CONTINUOUS
 10
419.9111938413712
 20
581.7026855124664
 30
0.0
  0
VERTEX
  5
76E
  8
7
  6
CONTINUOUS
 10
419.3590480472643
 20
581.7422909069803
 30
0.0
  0
VERTEX
  5
76F
  8
7
  6
CONTINUOUS
 10
418.8263166622328
 20
581.7818963014944
 30
0.0
  0
VERTEX
  5
770
  8
7
  6
CONTINUOUS
 10
418.2741708681259
 20
581.8215016960083
 30
0.0
  0
VERTEX
  5
771
  8
7
  6
CONTINUOUS
 10
417.7414394830944
 20
581.8603305141594
 30
0.0
  0
VERTEX
  5
772
  8
7
  6
CONTINUOUS
 10
417.1892936889874
 20
581.8999359086733
 30
0.0
  0
VERTEX
  5
773
  8
7
  6
CONTINUOUS
 10
416.4787263168245
 20
581.8999359086733
 30
0.0
  0
VERTEX
  5
774
  8
7
  6
CONTINUOUS
 10
415.748744535586
 20
581.8999359086733
 30
0.0
  0
VERTEX
  5
775
  8
7
  6
CONTINUOUS
 10
414.998571768909
 20
581.9201268941118
 30
0.0
  0
VERTEX
  5
776
  8
7
  6
CONTINUOUS
 10
414.2289845931565
 20
581.9201268941118
 30
0.0
  0
VERTEX
  5
777
  8
7
  6
CONTINUOUS
 10
413.4593974174041
 20
581.8999359086733
 30
0.0
  0
VERTEX
  5
778
  8
7
  6
CONTINUOUS
 10
412.6703958325761
 20
581.8805214995979
 30
0.0
  0
VERTEX
  5
779
  8
7
  6
CONTINUOUS
 10
411.8813942477482
 20
581.8409161050838
 30
0.0
  0
VERTEX
  5
77A
  8
7
  6
CONTINUOUS
 10
411.0916160865572
 20
581.7818963014944
 30
0.0
  0
VERTEX
  5
77B
  8
7
  6
CONTINUOUS
 10
410.3220289108047
 20
581.7026855124664
 30
0.0
  0
VERTEX
  5
77C
  8
7
  6
CONTINUOUS
 10
409.5524417350522
 20
581.6040603143629
 30
0.0
  0
VERTEX
  5
77D
  8
7
  6
CONTINUOUS
 10
408.7828545592998
 20
581.4658297217454
 30
0.0
  0
VERTEX
  5
77E
  8
7
  6
CONTINUOUS
 10
408.0528727780613
 20
581.3081847200524
 30
0.0
  0
VERTEX
  5
77F
  8
7
  6
CONTINUOUS
 10
407.3423054058983
 20
581.0907433384068
 30
0.0
  0
VERTEX
  5
780
  8
7
  6
CONTINUOUS
 10
406.6519290191738
 20
580.8538875476859
 30
0.0
  0
VERTEX
  5
781
  8
7
  6
CONTINUOUS
 10
406.0003814506004
 20
580.5580119533754
 30
0.0
  0
VERTEX
  5
782
  8
7
  6
CONTINUOUS
 10
405.3892158529039
 20
580.222530964551
 30
0.0
  0
VERTEX
  5
783
  8
7
  6
CONTINUOUS
 10
404.9155042714619
 20
579.5717599723405
 30
0.0
  0
VERTEX
  5
784
  8
7
  6
CONTINUOUS
 10
404.6592340716655
 20
578.9598177982809
 30
0.0
  0
VERTEX
  5
785
  8
7
  6
CONTINUOUS
 10
404.559832297199
 20
578.36806660966
 30
0.0
  0
VERTEX
  5
786
  8
7
  6
CONTINUOUS
 10
404.5800232826375
 20
577.7957298301145
 30
0.0
  0
VERTEX
  5
787
  8
7
  6
CONTINUOUS
 10
404.6592340716655
 20
577.2039786414934
 30
0.0
  0
VERTEX
  5
788
  8
7
  6
CONTINUOUS
 10
404.7772736788444
 20
576.5920364674341
 30
0.0
  0
VERTEX
  5
789
  8
7
  6
CONTINUOUS
 10
404.8953132860235
 20
575.921074489785
 30
0.0
  0
VERTEX
  5
78A
  8
7
  6
CONTINUOUS
 10
404.9349186805375
 20
575.2105071176222
 30
0.0
  0
VERTEX
  5
78B
  8
7
  6
CONTINUOUS
 10
404.718253875255
 20
575.0924675104432
 30
0.0
  0
VERTEX
  5
78C
  8
7
  6
CONTINUOUS
 10
404.481398084534
 20
574.9938423123397
 30
0.0
  0
VERTEX
  5
78D
  8
7
  6
CONTINUOUS
 10
404.2243513083745
 20
574.8952171142362
 30
0.0
  0
VERTEX
  5
78E
  8
7
  6
CONTINUOUS
 10
403.968081108578
 20
574.7965919161327
 30
0.0
  0
VERTEX
  5
78F
  8
7
  6
CONTINUOUS
 10
403.691619923343
 20
574.6979667180292
 30
0.0
  0
VERTEX
  5
790
  8
7
  6
CONTINUOUS
 10
403.3957443290325
 20
574.5985649435627
 30
0.0
  0
VERTEX
  5
791
  8
7
  6
CONTINUOUS
 10
403.1200597201606
 20
574.4805253363836
 30
0.0
  0
VERTEX
  5
792
  8
7
  6
CONTINUOUS
 10
402.8630129440011
 20
574.3624857292046
 30
0.0
  0
VERTEX
  5
793
  8
7
  6
CONTINUOUS
 10
402.6067427442046
 20
574.2436695456627
 30
0.0
  0
VERTEX
  5
794
  8
7
  6
CONTINUOUS
 10
402.3698869534836
 20
574.1054389530452
 30
0.0
  0
VERTEX
  5
795
  8
7
  6
CONTINUOUS
 10
402.1726365572766
 20
573.9283795422766
 30
0.0
  0
VERTEX
  5
796
  8
7
  6
CONTINUOUS
 10
402.0149915555836
 20
573.7505435551452
 30
0.0
  0
VERTEX
  5
797
  8
7
  6
CONTINUOUS
 10
401.8767609629661
 20
573.5532931589382
 30
0.0
  0
VERTEX
  5
798
  8
7
  6
CONTINUOUS
 10
401.7975501739381
 20
573.3358517772928
 30
0.0
  0
VERTEX
  5
799
  8
7
  6
CONTINUOUS
 10
401.7579447794241
 20
573.0795815774962
 30
0.0
  0
VERTEX
  5
79A
  8
7
  6
CONTINUOUS
 10
401.7781357648626
 20
572.7837059831858
 30
0.0
  0
VERTEX
  5
79B
  8
7
  6
CONTINUOUS
 10
405.073149273155
 20
572.1321584146123
 30
0.0
  0
VERTEX
  5
79C
  8
7
  6
CONTINUOUS
 10
405.4280446710549
 20
571.6584468331703
 30
0.0
  0
VERTEX
  5
79D
  8
7
  6
CONTINUOUS
 10
405.5662752636724
 20
571.2445316316807
 30
0.0
  0
VERTEX
  5
79E
  8
7
  6
CONTINUOUS
 10
405.546860854597
 20
570.8500308392669
 30
0.0
  0
VERTEX
  5
79F
  8
7
  6
CONTINUOUS
 10
405.4878410510074
 20
570.4547534704898
 30
0.0
  0
VERTEX
  5
7A0
  8
7
  6
CONTINUOUS
 10
405.4482356564935
 20
570.0206472835619
 30
0.0
  0
VERTEX
  5
7A1
  8
7
  6
CONTINUOUS
 10
405.5274464455214
 20
569.5477122784829
 30
0.0
  0
VERTEX
  5
7A2
  8
7
  6
CONTINUOUS
 10
405.8031310543934
 20
568.9947899080129
 30
0.0
  0
VERTEX
  5
7A3
  8
7
  6
CONTINUOUS
 10
406.3560534248634
 20
568.3238279303639
 30
0.0
  0
VERTEX
  5
7A4
  8
7
  6
CONTINUOUS
 10
406.0990066487039
 20
567.1597399621975
 30
0.0
  0
VERTEX
  5
7A5
  8
7
  6
CONTINUOUS
 10
406.0601778305529
 20
566.1338825866485
 30
0.0
  0
VERTEX
  5
7A6
  8
7
  6
CONTINUOUS
 10
406.1976318468074
 20
565.1864594237645
 30
0.0
  0
VERTEX
  5
7A7
  8
7
  6
CONTINUOUS
 10
406.4546786229669
 20
564.3578524444226
 30
0.0
  0
VERTEX
  5
7A8
  8
7
  6
CONTINUOUS
 10
406.8297650063054
 20
563.5882652686702
 30
0.0
  0
VERTEX
  5
7A9
  8
7
  6
CONTINUOUS
 10
407.2436802077948
 20
562.8971123055827
 30
0.0
  0
VERTEX
  5
7AA
  8
7
  6
CONTINUOUS
 10
407.6777863947228
 20
562.2463413133721
 30
0.0
  0
VERTEX
  5
7AB
  8
7
  6
CONTINUOUS
 10
408.0924781725753
 20
561.6545901247513
 30
0.0
  0
VERTEX
  5
7AC
  8
7
  6
CONTINUOUS
 10
408.9606905464312
 20
558.1809640529643
 30
0.0
  0
VERTEX
  5
7AD
  8
7
  6
CONTINUOUS
 10
408.9606905464312
 20
558.1809640529643
 30
0.0
  0
SEQEND
  5
7F9
  8
7
  6
CONTINUOUS
  0
POLYLINE
  5
381
  8
7
  6
CONTINUOUS
 66
     1
 10
0.0
 20
0.0
 30
0.0
  0
VERTEX
  5
7AE
  8
7
  6
CONTINUOUS
 10
442.8605785213278
 20
526.1945602365482
 30
0.0
  0
VERTEX
  5
7AF
  8
7
  6
CONTINUOUS
 10
442.9397893103558
 20
523.4516925223628
 30
0.0
  0
VERTEX
  5
7B0
  8
7
  6
CONTINUOUS
 10
443.0780199029733
 20
520.885884218946
 30
0.0
  0
VERTEX
  5
7B1
  8
7
  6
CONTINUOUS
 10
443.2752702991802
 20
518.478497493585
 30
0.0
  0
VERTEX
  5
7B2
  8
7
  6
CONTINUOUS
 10
443.5315404989768
 20
516.1503215572523
 30
0.0
  0
VERTEX
  5
7B3
  8
7
  6
CONTINUOUS
 10
443.8670214878013
 20
513.8811654245088
 30
0.0
  0
VERTEX
  5
7B4
  8
7
  6
CONTINUOUS
 10
444.2817132656537
 20
511.6516146862794
 30
0.0
  0
VERTEX
  5
7B5
  8
7
  6
CONTINUOUS
 10
444.8144446506852
 20
509.381681977173
 30
0.0
  0
VERTEX
  5
7B6
  8
7
  6
CONTINUOUS
 10
445.4458012338202
 20
507.0729204499155
 30
0.0
  0
VERTEX
  5
7B7
  8
7
  6
CONTINUOUS
 10
445.7020714336167
 20
506.5999854448366
 30
0.0
  0
VERTEX
  5
7B8
  8
7
  6
CONTINUOUS
 10
445.9195128152621
 20
506.2443134705736
 30
0.0
  0
VERTEX
  5
7B9
  8
7
  6
CONTINUOUS
 10
446.0973488023937
 20
505.9686288617016
 30
0.0
  0
VERTEX
  5
7BA
  8
7
  6
CONTINUOUS
 10
446.2348028186481
 20
505.7511874800561
 30
0.0
  0
VERTEX
  5
7BB
  8
7
  6
CONTINUOUS
 10
446.3730334112657
 20
505.5733514929246
 30
0.0
  0
VERTEX
  5
7BC
  8
7
  6
CONTINUOUS
 10
446.5112640038831
 20
505.4157064912317
 30
0.0
  0
VERTEX
  5
7BD
  8
7
  6
CONTINUOUS
 10
446.6494945965006
 20
505.2580614895386
 30
0.0
  0
VERTEX
  5
7BE
  8
7
  6
CONTINUOUS
 10
446.8071395981936
 20
505.0802255024072
 30
0.0
  0
VERTEX
  5
7BF
  8
7
  6
CONTINUOUS
 10
446.9655611762497
 20
504.9621858952282
 30
0.0
  0
VERTEX
  5
7C0
  8
7
  6
CONTINUOUS
 10
447.1232061779426
 20
504.9816003043036
 30
0.0
  0
VERTEX
  5
7C1
  8
7
  6
CONTINUOUS
 10
447.2808511796356
 20
505.1392453059966
 30
0.0
  0
VERTEX
  5
7C2
  8
7
  6
CONTINUOUS
 10
447.4781015758426
 20
505.3761010967177
 30
0.0
  0
VERTEX
  5
7C3
  8
7
  6
CONTINUOUS
 10
447.6753519720496
 20
505.7115820855421
 30
0.0
  0
VERTEX
  5
7C4
  8
7
  6
CONTINUOUS
 10
447.9323987482091
 20
506.0866684688806
 30
0.0
  0
VERTEX
  5
7C5
  8
7
  6
CONTINUOUS
 10
448.2678797370335
 20
506.5207746558086
 30
0.0
  0
VERTEX
  5
7C6
  8
7
  6
CONTINUOUS
 10
448.6623805294475
 20
506.9548808427366
 30
0.0
  0
VERTEX
  5
7C7
  8
7
  6
CONTINUOUS
 10
447.5969177593846
 20
508.237784994445
 30
0.0
  0
VERTEX
  5
7C8
  8
7
  6
CONTINUOUS
 10
447.8927933536951
 20
508.513469603317
 30
0.0
  0
VERTEX
  5
7C9
  8
7
  6
CONTINUOUS
 10
448.1692545389301
 20
508.829536183066
 30
0.0
  0
VERTEX
  5
7CA
  8
7
  6
CONTINUOUS
 10
448.444939147802
 20
509.145602762815
 30
0.0
  0
VERTEX
  5
7CB
  8
7
  6
CONTINUOUS
 10
448.7214003330371
 20
509.4803071752764
 30
0.0
  0
VERTEX
  5
7CC
  8
7
  6
CONTINUOUS
 10
448.9776705328335
 20
509.8359791495394
 30
0.0
  0
VERTEX
  5
7CD
  8
7
  6
CONTINUOUS
 10
449.2541317180685
 20
510.1714601383639
 30
0.0
  0
VERTEX
  5
7CE
  8
7
  6
CONTINUOUS
 10
449.510401917865
 20
510.5069411271884
 30
0.0
  0
VERTEX
  5
7CF
  8
7
  6
CONTINUOUS
 10
449.7868631031
 20
510.8424221160129
 30
0.0
  0
VERTEX
  5
7D0
  8
7
  6
CONTINUOUS
 10
450.063324288335
 20
511.1577121193989
 30
0.0
  0
VERTEX
  5
7D1
  8
7
  6
CONTINUOUS
 10
450.33978547357
 20
511.4737786991479
 30
0.0
  0
VERTEX
  5
7D2
  8
7
  6
CONTINUOUS
 10
450.6356610678804
 20
511.7502398843828
 30
0.0
  0
VERTEX
  5
7D3
  8
7
  6
CONTINUOUS
 10
450.9509510712664
 20
512.0065100841794
 30
0.0
  0
VERTEX
  5
7D4
  8
7
  6
CONTINUOUS
 10
451.2670176510154
 20
512.2231748894618
 30
0.0
  0
VERTEX
  5
7D5
  8
7
  6
CONTINUOUS
 10
451.60249863984
 20
512.4212018620318
 30
0.0
  0
VERTEX
  5
7D6
  8
7
  6
CONTINUOUS
 10
451.9573940377399
 20
512.5586558782863
 30
0.0
  0
VERTEX
  5
7D7
  8
7
  6
CONTINUOUS
 10
452.3324804210784
 20
512.6580576527529
 30
0.0
  0
VERTEX
  5
7D8
  8
7
  6
CONTINUOUS
 10
452.2532696320504
 20
513.3678484485528
 30
0.0
  0
VERTEX
  5
7D9
  8
7
  6
CONTINUOUS
 10
452.0560192358434
 20
514.0978302297913
 30
0.0
  0
VERTEX
  5
7DA
  8
7
  6
CONTINUOUS
 10
451.7601436415329
 20
514.8083976019542
 30
0.0
  0
VERTEX
  5
7DB
  8
7
  6
CONTINUOUS
 10
451.3462284400434
 20
515.5383793831927
 30
0.0
  0
VERTEX
  5
7DC
  8
7
  6
CONTINUOUS
 10
450.8725168586014
 20
516.2691377407941
 30
0.0
  0
VERTEX
  5
7DD
  8
7
  6
CONTINUOUS
 10
450.3195944881315
 20
516.9789285365941
 30
0.0
  0
VERTEX
  5
7DE
  8
7
  6
CONTINUOUS
 10
449.747257708586
 20
517.7089103178325
 30
0.0
  0
VERTEX
  5
7DF
  8
7
  6
CONTINUOUS
 10
449.1360921108895
 20
518.4396686754341
 30
0.0
  0
VERTEX
  5
7E0
  8
7
  6
CONTINUOUS
 10
448.5047355277545
 20
519.1696504566726
 30
0.0
  0
VERTEX
  5
7E1
  8
7
  6
CONTINUOUS
 10
447.8927933536951
 20
519.8802178288355
 30
0.0
  0
VERTEX
  5
7E2
  8
7
  6
CONTINUOUS
 10
447.3010421650741
 20
520.610199610074
 30
0.0
  0
VERTEX
  5
7E3
  8
7
  6
CONTINUOUS
 10
446.7481197946041
 20
521.3401813913125
 30
0.0
  0
VERTEX
  5
7E4
  8
7
  6
CONTINUOUS
 10
446.2549938040867
 20
522.0507487634754
 30
0.0
  0
VERTEX
  5
7E5
  8
7
  6
CONTINUOUS
 10
445.8403020262342
 20
522.780730544714
 30
0.0
  0
VERTEX
  5
7E6
  8
7
  6
CONTINUOUS
 10
445.5250120228482
 20
523.4912979168769
 30
0.0
  0
VERTEX
  5
7E7
  8
7
  6
CONTINUOUS
 10
445.3075706412027
 20
524.2010887126768
 30
0.0
  0
VERTEX
  5
7E8
  8
7
  6
CONTINUOUS
 10
445.1103202449957
 20
524.2212796981153
 30
0.0
  0
VERTEX
  5
7E9
  8
7
  6
CONTINUOUS
 10
444.9130698487887
 20
524.2608850926293
 30
0.0
  0
VERTEX
  5
7EA
  8
7
  6
CONTINUOUS
 10
444.7352338616572
 20
524.2997139107804
 30
0.0
  0
VERTEX
  5
7EB
  8
7
  6
CONTINUOUS
 10
444.5581744508887
 20
524.3789246998083
 30
0.0
  0
VERTEX
  5
7EC
  8
7
  6
CONTINUOUS
 10
444.3601474783187
 20
524.4379445033978
 30
0.0
  0
VERTEX
  5
7ED
  8
7
  6
CONTINUOUS
 10
444.1830880675502
 20
524.4775498979118
 30
0.0
  0
VERTEX
  5
7EE
  8
7
  6
CONTINUOUS
 10
443.9858376713433
 20
524.5171552924259
 30
0.0
  0
VERTEX
  5
7EF
  8
7
  6
CONTINUOUS
 10
443.7885872751363
 20
524.5365697015013
 30
0.0
  0
VERTEX
  5
7F0
  8
7
  6
CONTINUOUS
 10
443.6697710915942
 20
524.6949912795573
 30
0.0
  0
VERTEX
  5
7F1
  8
7
  6
CONTINUOUS
 10
443.5711458934907
 20
524.8526362812504
 30
0.0
  0
VERTEX
  5
7F2
  8
7
  6
CONTINUOUS
 10
443.4531062863118
 20
525.0102812829433
 30
0.0
  0
VERTEX
  5
7F3
  8
7
  6
CONTINUOUS
 10
443.3544810882083
 20
525.1679262846362
 30
0.0
  0
VERTEX
  5
7F4
  8
7
  6
CONTINUOUS
 10
443.2356649046663
 20
525.3457622717679
 30
0.0
  0
VERTEX
  5
7F5
  8
7
  6
CONTINUOUS
 10
443.1370397065628
 20
525.5826180624888
 30
0.0
  0
VERTEX
  5
7F6
  8
7
  6
CONTINUOUS
 10
442.9988091139453
 20
525.8590792477238
 30
0.0
  0
VERTEX
  5
7F7
  8
7
  6
CONTINUOUS
 10
442.8605785213278
 20
526.1945602365482
 30
0.0
  0
SEQEND
  5
7FA
  8
7
  6
CONTINUOUS
  0
ENDSEC
  0
EOF
