  0
SECTION
  2
HEADER
  9
$ACADVER
  1
AC1009
  9
$DWGCODEPAGE
  3
ansi_1252
  9
$INSBASE
 10
0.0
 20
0.0
 30
0.0
  9
$EXTMIN
 10
-0.2636668855514845
 20
-0.0185324832129465
 30
0.0
  9
$EXTMAX
 10
0.3633786460208853
 20
1.773299953398717
 30
0.0
  9
$LIMMIN
 10
-16.1
 20
-11.9
  9
$LIMMAX
 10
44.90000000000001
 20
28.9
  9
$ORTHOMODE
 70
     0
  9
$REGENMODE
 70
     0
  9
$FILLMODE
 70
     1
  9
$QTEXTMODE
 70
     0
  9
$MIRRTEXT
 70
     1
  9
$DRAGMODE
 70
     2
  9
$LTSCALE
 40
1.2
  9
$OSMODE
 70
    37
  9
$ATTMODE
 70
     1
  9
$TEXTSIZE
 40
0.2
  9
$TRACEWID
 40
0.05
  9
$TEXTSTYLE
  7
STANDARD
  9
$CLAYER
  8
0
  9
$CELTYPE
  6
BYLAYER
  9
$CECOLOR
 62
   256
  9
$DIMSCALE
 40
1.2
  9
$DIMASZ
 40
0.18
  9
$DIMEXO
 40
0.08
  9
$DIMDLI
 40
0.38
  9
$DIMRND
 40
0.0
  9
$DIMDLE
 40
0.0
  9
$DIMEXE
 40
0.1
  9
$DIMTP
 40
0.0
  9
$DIMTM
 40
0.0
  9
$DIMTXT
 40
0.18
  9
$DIMCEN
 40
0.09
  9
$DIMTSZ
 40
0.07
  9
$DIMTOL
 70
     0
  9
$DIMLIM
 70
     0
  9
$DIMTIH
 70
     0
  9
$DIMTOH
 70
     1
  9
$DIMSE1
 70
     0
  9
$DIMSE2
 70
     0
  9
$DIMTAD
 70
     0
  9
$DIMZIN
 70
     0
  9
$DIMBLK
  1

  9
$DIMASO
 70
     1
  9
$DIMSHO
 70
     1
  9
$DIMPOST
  1

  9
$DIMAPOST
  1

  9
$DIMALT
 70
     0
  9
$DIMALTD
 70
     2
  9
$DIMALTF
 40
25.4
  9
$DIMLFAC
 40
1.0
  9
$DIMTOFL
 70
     0
  9
$DIMTVP
 40
0.0
  9
$DIMTIX
 70
     0
  9
$DIMSOXD
 70
     0
  9
$DIMSAH
 70
     0
  9
$DIMBLK1
  1

  9
$DIMBLK2
  1

  9
$DIMSTYLE
  2
STANDARD
  9
$DIMCLRD
 70
     0
  9
$DIMCLRE
 70
     0
  9
$DIMCLRT
 70
     0
  9
$DIMTFAC
 40
1.0
  9
$DIMGAP
 40
0.09
  9
$LUNITS
 70
     2
  9
$LUPREC
 70
     3
  9
$SKETCHINC
 40
0.1
  9
$FILLETRAD
 40
0.0
  9
$AUNITS
 70
     0
  9
$AUPREC
 70
     2
  9
$MENU
  1
ACAD
  9
$ELEVATION
 40
0.0
  9
$PELEVATION
 40
0.0
  9
$THICKNESS
 40
0.0
  9
$LIMCHECK
 70
     0
  9
$CHAMFERA
 40
0.0
  9
$CHAMFERB
 40
0.0
  9
$SKPOLY
 70
     0
  9
$TDCREATE
 40
2449213.951254861
  9
$TDUPDATE
 40
2457483.532731481
  9
$TDINDWG
 40
0.0094502315
  9
$TDUSRTIMER
 40
0.0094502315
  9
$USRTIMER
 70
     1
  9
$ANGBASE
 50
0.0
  9
$ANGDIR
 70
     0
  9
$PDMODE
 70
     0
  9
$PDSIZE
 40
0.0
  9
$PLINEWID
 40
0.0
  9
$COORDS
 70
     1
  9
$SPLFRAME
 70
     0
  9
$SPLINETYPE
 70
     6
  9
$SPLINESEGS
 70
     8
  9
$ATTDIA
 70
     0
  9
$ATTREQ
 70
     1
  9
$HANDLING
 70
     1
  9
$HANDSEED
  5
149
  9
$SURFTAB1
 70
     6
  9
$SURFTAB2
 70
     6
  9
$SURFTYPE
 70
     6
  9
$SURFU
 70
     6
  9
$SURFV
 70
     6
  9
$UCSNAME
  2

  9
$UCSORG
 10
0.0
 20
0.0
 30
0.0
  9
$UCSXDIR
 10
1.0
 20
0.0
 30
0.0
  9
$UCSYDIR
 10
0.0
 20
1.0
 30
0.0
  9
$PUCSNAME
  2

  9
$PUCSORG
 10
0.0
 20
0.0
 30
0.0
  9
$PUCSXDIR
 10
1.0
 20
0.0
 30
0.0
  9
$PUCSYDIR
 10
0.0
 20
1.0
 30
0.0
  9
$USERI1
 70
     0
  9
$USERI2
 70
     0
  9
$USERI3
 70
     0
  9
$USERI4
 70
     0
  9
$USERI5
 70
     0
  9
$USERR1
 40
100.0
  9
$USERR2
 40
0.0
  9
$USERR3
 40
0.0
  9
$USERR4
 40
0.0
  9
$USERR5
 40
0.0
  9
$WORLDVIEW
 70
     1
  9
$SHADEDGE
 70
     3
  9
$SHADEDIF
 70
    70
  9
$TILEMODE
 70
     1
  9
$MAXACTVP
 70
    16
  9
$PLIMCHECK
 70
     0
  9
$PEXTMIN
 10
1.000000000000000E+20
 20
1.000000000000000E+20
 30
1.000000000000000E+20
  9
$PEXTMAX
 10
-1.000000000000000E+20
 20
-1.000000000000000E+20
 30
-1.000000000000000E+20
  9
$PLIMMIN
 10
0.0
 20
0.0
  9
$PLIMMAX
 10
12.0
 20
9.0
  9
$UNITMODE
 70
     0
  9
$VISRETAIN
 70
     0
  9
$PLINEGEN
 70
     0
  9
$PSLTSCALE
 70
     0
  0
ENDSEC
  0
SECTION
  2
TABLES
  0
TABLE
  2
VPORT
 70
     1
  0
VPORT
  2
*ACTIVE
 70
     0
 10
0.0
 20
0.0
 11
1.0
 21
1.0
 12
0.1550782890201705
 22
0.9276847229930669
 13
0.0
 23
0.0
 14
0.05
 24
0.05
 15
1.0
 25
1.0
 16
0.0
 26
0.0
 36
1.0
 17
0.0
 27
0.0
 37
0.0
 40
2.682196554481133
 41
1.503537735849057
 42
50.0
 43
0.0
 44
0.0
 50
0.0
 51
0.0
 71
     0
 72
   100
 73
     1
 74
     1
 75
     0
 76
     0
 77
     0
 78
     0
  0
ENDTAB
  0
TABLE
  2
LTYPE
 70
     1
  0
LTYPE
  2
CONTINUOUS
 70
     0
  3
Solid line
 72
    65
 73
     0
 40
0.0
  0
ENDTAB
  0
TABLE
  2
LAYER
 70
     2
  0
LAYER
  2
0
 70
     0
 62
     7
  6
CONTINUOUS
  0
LAYER
  2
ARQ-HUM
 70
     0
 62
     1
  6
CONTINUOUS
  0
ENDTAB
  0
TABLE
  2
STYLE
 70
     1
  0
STYLE
  2
STANDARD
 70
     0
 40
0.0
 41
1.0
 50
0.0
 71
     0
 42
0.2
  3
TXT
  4

  0
ENDTAB
  0
TABLE
  2
VIEW
 70
     0
  0
ENDTAB
  0
TABLE
  2
UCS
 70
     0
  0
ENDTAB
  0
TABLE
  2
APPID
 70
     3
  0
APPID
  2
ACAD
 70
     0
  0
APPID
  2
ACAECLAYERSTANDARD
 70
     0
  0
APPID
  2
DCO15
 70
     0
  0
ENDTAB
  0
TABLE
  2
DIMSTYLE
 70
     1
  0
DIMSTYLE
  2
STANDARD
 70
     0
  3

  4

  5

  6

  7

 40
1.0
 41
0.18
 42
0.0625
 43
0.38
 44
0.18
 45
0.0
 46
0.0
 47
0.0
 48
0.0
140
0.18
141
0.09
142
0.0
143
25.4
144
1.0
145
0.0
146
1.0
147
0.09
 71
     0
 72
     0
 73
     1
 74
     1
 75
     0
 76
     0
 77
     0
 78
     0
170
     0
171
     2
172
     0
173
     0
174
     0
175
     0
176
     0
177
     0
178
     0
  0
ENDTAB
  0
ENDSEC
  0
SECTION
  2
BLOCKS
  0
BLOCK
  8
0
  2
$MODEL_SPACE
 70
     0
 10
0.0
 20
0.0
 30
0.0
  3
$MODEL_SPACE
  1

  0
ENDBLK
  5
29
  8
0
  0
BLOCK
 67
     1
  8
0
  2
$PAPER_SPACE
 70
     0
 10
0.0
 20
0.0
 30
0.0
  3
$PAPER_SPACE
  1

  0
ENDBLK
  5
27
 67
     1
  8
0
  0
ENDSEC
  0
SECTION
  2
ENTITIES
  0
POLYLINE
  5
2A
  8
0
 62
     0
 66
     1
 10
0.0
 20
0.0
 30
0.0
  0
VERTEX
  5
121
  8
0
 62
     0
 10
0.0156726471647353
 20
1.383373509288484
 30
0.0
  0
VERTEX
  5
122
  8
0
 62
     0
 10
0.0097379736914561
 20
1.462726175093732
 30
0.0
  0
VERTEX
  5
123
  8
0
 62
     0
 10
0.0168970429367274
 20
1.480297136139296
 30
0.0
  0
VERTEX
  5
124
  8
0
 62
     0
 10
0.0036979707259206
 20
1.49459144442797
 30
0.0
  0
VERTEX
  5
125
  8
0
 62
     0
 10
0.0394080048295873
 20
1.454390847084243
 30
0.0
  0
SEQEND
  5
146
  8
0
 62
     0
  0
POLYLINE
  5
31
  8
0
 62
     0
 66
     1
 10
0.0
 20
0.0
 30
0.0
  0
VERTEX
  5
126
  8
0
 62
     0
 10
0.1968069647736652
 20
1.077853163591689
 30
0.0
  0
VERTEX
  5
127
  8
0
 62
     0
 10
0.079207778177889
 20
1.035522146200937
 30
0.0
  0
VERTEX
  5
128
  8
0
 62
     0
 10
0.0097041348048037
 20
1.031067328263679
 30
0.0
  0
VERTEX
  5
129
  8
0
 62
     0
 10
0.0221296786629665
 20
0.9480081128598364
 30
0.0
  0
VERTEX
  5
12A
  8
0
 62
     0
 10
0.0669933699082801
 20
0.8044950115444092
 30
0.0
  0
VERTEX
  5
12B
  8
0
 62
     0
 10
0.1489106420385937
 20
0.8274191891376645
 30
0.0
  0
SEQEND
  5
147
  8
0
 62
     0
  0
POLYLINE
  5
39
  8
0
 62
     0
 66
     1
 10
0.0
 20
0.0
 30
0.0
  0
VERTEX
  5
12C
  8
0
 62
     0
 10
0.2977569425321441
 20
1.103092683598467
 30
0.0
  0
VERTEX
  5
12D
  8
0
 62
     0
 10
0.2872177974538751
 20
0.997147895528395
 30
0.0
  0
VERTEX
  5
12E
  8
0
 62
     0
 10
0.2930952784426694
 20
0.9551323900103796
 30
0.0
  0
VERTEX
  5
12F
  8
0
 62
     0
 10
0.2696330148912282
 20
0.9420801118430809
 30
0.0
  0
VERTEX
  5
130
  8
0
 62
     0
 10
0.2619892393399553
 20
0.9146915842318205
 30
0.0
  0
VERTEX
  5
131
  8
0
 62
     0
 10
0.264704929144866
 20
0.859298756593023
 30
0.0
  0
VERTEX
  5
132
  8
0
 62
     0
 10
0.2395164057700853
 20
0.8407064330953844
 30
0.0
  0
VERTEX
  5
133
  8
0
 62
     0
 10
0.2340654853947335
 20
0.8479989514711179
 30
0.0
  0
VERTEX
  5
134
  8
0
 62
     0
 10
0.2055188099726742
 20
0.8242202228388656
 30
0.0
  0
VERTEX
  5
135
  8
0
 62
     0
 10
0.1532091338515962
 20
0.8299704505496834
 30
0.0
  0
VERTEX
  5
136
  8
0
 62
     0
 10
0.1732741638246939
 20
0.8558500497786441
 30
0.0
  0
VERTEX
  5
137
  8
0
 62
     0
 10
0.1389386557647903
 20
0.8387142282191956
 30
0.0
  0
VERTEX
  5
138
  8
0
 62
     0
 10
0.1528035438157975
 20
0.8660031455866467
 30
0.0
  0
VERTEX
  5
139
  8
0
 62
     0
 10
0.1510696583278605
 20
0.8804413882946052
 30
0.0
  0
VERTEX
  5
13A
  8
0
 62
     0
 10
0.1790820606240328
 20
0.9117614226100955
 30
0.0
  0
VERTEX
  5
13B
  8
0
 62
     0
 10
0.198031360545658
 20
0.9497767904425004
 30
0.0
  0
VERTEX
  5
13C
  8
0
 62
     0
 10
0.2005120845601468
 20
0.9615274629837534
 30
0.0
  0
VERTEX
  5
13D
  8
0
 62
     0
 10
0.1828519985595964
 20
0.9631202736766298
 30
0.0
  0
VERTEX
  5
13E
  8
0
 62
     0
 10
0.1974141583172696
 20
1.033956978542227
 30
0.0
  0
VERTEX
  5
13F
  8
0
 62
     0
 10
0.1961502044101753
 20
1.139108220890085
 30
0.0
  0
VERTEX
  5
140
  8
0
 62
     0
 10
0.2030295070855132
 20
1.200570124340698
 30
0.0
  0
VERTEX
  5
141
  8
0
 62
     0
 10
0.1956955241585284
 20
1.23343864517359
 30
0.0
  0
VERTEX
  5
142
  8
0
 62
     0
 10
0.1968274587472724
 20
1.263224014488763
 30
0.0
  0
VERTEX
  5
143
  8
0
 62
     0
 10
0.1778142938846404
 20
1.364401808977102
 30
0.0
  0
VERTEX
  5
144
  8
0
 62
     0
 10
0.1845677730941127
 20
1.418005465059629
 30
0.0
  0
VERTEX
  5
145
  8
0
 62
     0
 10
0.1926776673939287
 20
1.433596136329938
 30
0.0
  0
SEQEND
  5
148
  8
0
 62
     0
  0
LINE
  5
55
  8
0
 62
     0
 10
-0.0118823664209074
 20
1.526748962479885
 30
0.0
 11
-0.0351848164544904
 21
1.479821008705968
 31
0.0
  0
LINE
  5
56
  8
0
 62
     0
 10
-0.0351848164544904
 20
1.479821008705968
 30
0.0
 11
-0.045801647990849
 21
1.450842530026055
 31
0.0
  0
LINE
  5
57
  8
0
 62
     0
 10
-0.045801647990849
 20
1.450842530026055
 30
0.0
 11
-0.047797665699337
 21
1.223909424050499
 31
0.0
  0
LINE
  5
58
  8
0
 62
     0
 10
-0.047797665699337
 20
1.223909424050499
 30
0.0
 11
-0.0019669448622086
 21
1.345337170878435
 31
0.0
  0
LINE
  5
59
  8
0
 62
     0
 10
-0.0019669448622086
 20
1.345337170878435
 30
0.0
 11
0.035590883094325
 21
1.400085153254676
 31
0.0
  0
LINE
  5
5A
  8
0
 62
     0
 10
0.035590883094325
 20
1.400085153254676
 30
0.0
 11
0.084036253680442
 21
1.562082388951259
 31
0.0
  0
LINE
  5
5B
  8
0
 62
     0
 10
0.084036253680442
 20
1.562082388951259
 30
0.0
 11
0.0217984388569978
 21
1.520502499523396
 31
0.0
  0
LINE
  5
5C
  8
0
 62
     0
 10
0.0217984388569978
 20
1.520502499523396
 30
0.0
 11
-0.0007730517486074
 21
1.522173949882438
 31
0.0
  0
LINE
  5
5D
  8
0
 62
     0
 10
-0.0007730517486074
 20
1.522173949882438
 30
0.0
 11
-0.0117325615878336
 21
1.533157289923532
 31
0.0
  0
LINE
  5
5E
  8
0
 62
     0
 10
-0.0117325615878336
 20
1.533157289923532
 30
0.0
 11
-0.0088881886928345
 21
1.506255851638459
 31
0.0
  0
LINE
  5
5F
  8
0
 62
     0
 10
-0.0088881886928345
 20
1.506255851638459
 30
0.0
 11
-0.0363610752187086
 21
1.4677219386134
 31
0.0
  0
LINE
  5
60
  8
0
 62
     0
 10
-0.0363610752187086
 20
1.4677219386134
 30
0.0
 11
-0.0143186150945798
 21
1.473919220911267
 31
0.0
  0
LINE
  5
61
  8
0
 62
     0
 10
-0.0143186150945798
 20
1.473919220911267
 30
0.0
 11
-0.0453340994301943
 21
1.336861244677922
 31
0.0
  0
LINE
  5
62
  8
0
 62
     0
 10
0.0039029104619875
 20
1.773299953398717
 30
0.0
 11
-0.0617869474040965
 21
1.76157883030778
 31
0.0
  0
LINE
  5
63
  8
0
 62
     0
 10
-0.0617869474040965
 20
1.76157883030778
 30
0.0
 11
-0.0831578521347858
 21
1.686206746325641
 31
0.0
  0
LINE
  5
64
  8
0
 62
     0
 10
-0.0831578521347858
 20
1.686206746325641
 30
0.0
 11
-0.0694040978752998
 21
1.663276581936588
 31
0.0
  0
LINE
  5
65
  8
0
 62
     0
 10
-0.0694040978752998
 20
1.663276581936588
 30
0.0
 11
-0.0828809057260454
 21
1.634184126834287
 31
0.0
  0
LINE
  5
66
  8
0
 62
     0
 10
-0.0828809057260454
 20
1.634184126834287
 30
0.0
 11
-0.0736360087951546
 21
1.558868727892798
 31
0.0
  0
LINE
  5
67
  8
0
 62
     0
 10
-0.0736360087951546
 20
1.558868727892798
 30
0.0
 11
-0.0140560062699912
 21
1.531229426592388
 31
0.0
  0
LINE
  5
68
  8
0
 62
     0
 10
-0.0140560062699912
 20
1.531229426592388
 30
0.0
 11
-0.0959761380245297
 21
1.487672107013494
 31
0.0
  0
LINE
  5
69
  8
0
 62
     0
 10
-0.0959761380245297
 20
1.487672107013494
 30
0.0
 11
-0.1230887118981553
 21
1.348914084178865
 31
0.0
  0
LINE
  5
6A
  8
0
 62
     0
 10
-0.1230887118981553
 20
1.348914084178865
 30
0.0
 11
-0.1447046114088419
 21
1.307993814738715
 31
0.0
  0
LINE
  5
6B
  8
0
 62
     0
 10
-0.1447046114088419
 20
1.307993814738715
 30
0.0
 11
-0.14088558325743
 21
1.301054936558707
 31
0.0
  0
LINE
  5
6C
  8
0
 62
     0
 10
-0.14088558325743
 20
1.301054936558707
 30
0.0
 11
-0.1565787243957726
 21
1.28231057637315
 31
0.0
  0
LINE
  5
6D
  8
0
 62
     0
 10
-0.1565787243957726
 20
1.28231057637315
 30
0.0
 11
-0.1541323158719742
 21
1.271463545086742
 31
0.0
  0
LINE
  5
6E
  8
0
 62
     0
 10
-0.1541323158719742
 20
1.271463545086742
 30
0.0
 11
-0.1750199644135659
 21
1.235116767989155
 31
0.0
  0
LINE
  5
6F
  8
0
 62
     0
 10
-0.1750199644135659
 20
1.235116767989155
 30
0.0
 11
-0.1720106865216383
 21
1.198059850875892
 31
0.0
  0
LINE
  5
70
  8
0
 62
     0
 10
-0.1720106865216383
 20
1.198059850875892
 30
0.0
 11
-0.2282094515876217
 21
1.04273697811858
 31
0.0
  0
LINE
  5
71
  8
0
 62
     0
 10
-0.2282094515876217
 20
1.04273697811858
 30
0.0
 11
-0.2260880870173058
 21
1.011589474464615
 31
0.0
  0
LINE
  5
72
  8
0
 62
     0
 10
-0.2260880870173058
 20
1.011589474464615
 30
0.0
 11
-0.2636668855514845
 21
0.9555317841936919
 31
0.0
  0
LINE
  5
73
  8
0
 62
     0
 10
-0.2636668855514845
 20
0.9555317841936919
 30
0.0
 11
-0.2575406172551848
 21
0.9085996314262111
 31
0.0
  0
LINE
  5
74
  8
0
 62
     0
 10
-0.2575406172551848
 20
0.9085996314262111
 30
0.0
 11
-0.2010063229468958
 21
0.8598778304984223
 31
0.0
  0
LINE
  5
75
  8
0
 62
     0
 10
-0.2010063229468958
 20
0.8598778304984223
 30
0.0
 11
-0.198478415132708
 21
0.8745753458027075
 31
0.0
  0
LINE
  5
76
  8
0
 62
     0
 10
-0.198478415132708
 20
0.8745753458027075
 30
0.0
 11
-0.2249185007096109
 21
0.9005445465906927
 31
0.0
  0
LINE
  5
77
  8
0
 62
     0
 10
-0.2249185007096109
 20
0.9005445465906927
 30
0.0
 11
-0.2061531699464091
 21
0.8861611133470316
 31
0.0
  0
LINE
  5
78
  8
0
 62
     0
 10
-0.2061531699464091
 20
0.8861611133470316
 30
0.0
 11
-0.2034074540871448
 21
0.9349162765574364
 31
0.0
  0
LINE
  5
79
  8
0
 62
     0
 10
-0.2034074540871448
 20
0.9349162765574364
 30
0.0
 11
-0.1776160266050972
 21
0.9911627020271561
 31
0.0
  0
LINE
  5
7A
  8
0
 62
     0
 10
-0.1776160266050972
 20
0.9911627020271561
 30
0.0
 11
-0.140700660890932
 21
0.9853314516299861
 31
0.0
  0
LINE
  5
7B
  8
0
 62
     0
 10
-0.140700660890932
 20
0.9853314516299861
 30
0.0
 11
-0.1227174373530481
 21
1.065283685314241
 31
0.0
  0
LINE
  5
7C
  8
0
 62
     0
 10
-0.1227174373530481
 20
1.065283685314241
 30
0.0
 11
-0.0788303077802969
 21
1.188052595903324
 31
0.0
  0
LINE
  5
7D
  8
0
 62
     0
 10
-0.0788303077802969
 20
1.188052595903324
 30
0.0
 11
-0.0801891058908261
 21
1.24637129572751
 31
0.0
  0
LINE
  5
7E
  8
0
 62
     0
 10
-0.0801891058908261
 20
1.24637129572751
 30
0.0
 11
-0.0732678620602009
 21
1.085452614967485
 31
0.0
  0
LINE
  5
7F
  8
0
 62
     0
 10
-0.0732678620602009
 20
1.085452614967485
 30
0.0
 11
-0.0839056641742047
 21
1.055164428392892
 31
0.0
  0
LINE
  5
80
  8
0
 62
     0
 10
-0.0839056641742047
 20
1.055164428392892
 30
0.0
 11
-0.0684360503293867
 21
0.9985848567010529
 31
0.0
  0
LINE
  5
81
  8
0
 62
     0
 10
-0.0684360503293867
 20
0.9985848567010529
 30
0.0
 11
-0.0596627232095578
 21
0.8510644686394546
 31
0.0
  0
LINE
  5
82
  8
0
 62
     0
 10
-0.0596627232095578
 20
0.8510644686394546
 30
0.0
 11
-0.0396687072380271
 21
0.8520543752250632
 31
0.0
  0
LINE
  5
83
  8
0
 62
     0
 10
-0.0396687072380271
 20
0.8520543752250632
 30
0.0
 11
-0.0025298142303381
 21
0.6965470567052894
 31
0.0
  0
LINE
  5
84
  8
0
 62
     0
 10
-0.0025298142303381
 20
0.6965470567052894
 30
0.0
 11
0.0034415577538173
 21
0.6194863797157325
 31
0.0
  0
LINE
  5
85
  8
0
 62
     0
 10
0.0034415577538173
 20
0.6194863797157325
 30
0.0
 11
0.0258500497786439
 21
0.5667258361753057
 31
0.0
  0
LINE
  5
86
  8
0
 62
     0
 10
0.0258500497786439
 20
0.5667258361753057
 30
0.0
 11
0.0279366222542304
 21
0.472041771696075
 31
0.0
  0
LINE
  5
87
  8
0
 62
     0
 10
0.0279366222542304
 20
0.472041771696075
 30
0.0
 11
0.0360040987947212
 21
0.4440741701794151
 31
0.0
  0
LINE
  5
88
  8
0
 62
     0
 10
0.0360040987947212
 20
0.4440741701794151
 30
0.0
 11
-0.0342606812260378
 21
0.0852647270647548
 31
0.0
  0
LINE
  5
89
  8
0
 62
     0
 10
-0.0342606812260378
 20
0.0852647270647548
 30
0.0
 11
-0.0125642356330371
 21
0.0698518291003834
 31
0.0
  0
LINE
  5
8A
  8
0
 62
     0
 10
-0.0125642356330371
 20
0.0698518291003834
 30
0.0
 11
-0.0479582812599293
 21
0.0275146158571459
 31
0.0
  0
LINE
  5
8B
  8
0
 62
     0
 10
-0.0479582812599293
 20
0.0275146158571459
 30
0.0
 11
-0.0891854837001425
 21
0.0095066089093182
 31
0.0
  0
LINE
  5
8C
  8
0
 62
     0
 10
-0.0891854837001425
 20
0.0095066089093182
 30
0.0
 11
-0.0152894575186941
 21
-0.0185324832129465
 31
0.0
  0
LINE
  5
8D
  8
0
 62
     0
 10
-0.0152894575186941
 20
-0.0185324832129465
 30
0.0
 11
0.0252776483297673
 21
-0.000841417949967
 31
0.0
  0
LINE
  5
8E
  8
0
 62
     0
 10
0.0252776483297673
 20
-0.000841417949967
 30
0.0
 11
0.0803692622169493
 21
0.0035166493677055
 31
0.0
  0
LINE
  5
8F
  8
0
 62
     0
 10
0.0803692622169493
 20
0.0035166493677055
 30
0.0
 11
0.0775801753902858
 21
0.0543254993751193
 31
0.0
  0
LINE
  5
90
  8
0
 62
     0
 10
0.0775801753902858
 20
0.0543254993751193
 30
0.0
 11
0.086240070749221
 21
0.0633571458832003
 31
0.0
  0
LINE
  5
91
  8
0
 62
     0
 10
0.086240070749221
 20
0.0633571458832003
 30
0.0
 11
0.0837154991632946
 21
0.1102316295621598
 31
0.0
  0
LINE
  5
92
  8
0
 62
     0
 10
0.0837154991632946
 20
0.1102316295621598
 30
0.0
 11
0.0853559702599078
 21
0.1717774153233496
 31
0.0
  0
LINE
  5
93
  8
0
 62
     0
 10
0.0853559702599078
 20
0.1717774153233496
 30
0.0
 11
0.1089917176809504
 21
0.2365736406193735
 31
0.0
  0
LINE
  5
94
  8
0
 62
     0
 10
0.1089917176809504
 20
0.2365736406193735
 30
0.0
 11
0.1310127306233977
 21
0.2005223580249531
 31
0.0
  0
LINE
  5
95
  8
0
 62
     0
 10
0.1310127306233977
 20
0.2005223580249531
 30
0.0
 11
0.1105206634328194
 21
0.1684268889406681
 31
0.0
  0
LINE
  5
96
  8
0
 62
     0
 10
0.1105206634328194
 20
0.1684268889406681
 30
0.0
 11
0.0857958757863965
 21
0.1583424241140461
 31
0.0
  0
LINE
  5
97
  8
0
 62
     0
 10
0.0857958757863965
 20
0.1583424241140461
 30
0.0
 11
0.0779319091698611
 21
0.117201963608634
 31
0.0
  0
LINE
  5
98
  8
0
 62
     0
 10
0.0779319091698611
 20
0.117201963608634
 30
0.0
 11
0.178850431061873
 21
0.1404769217733907
 31
0.0
  0
LINE
  5
99
  8
0
 62
     0
 10
0.178850431061873
 20
0.1404769217733907
 30
0.0
 11
0.1939568726302184
 21
0.1634883179054842
 31
0.0
  0
LINE
  5
9A
  8
0
 62
     0
 10
0.1939568726302184
 20
0.1634883179054842
 30
0.0
 11
0.2040389544366541
 21
0.1590692452710289
 31
0.0
  0
LINE
  5
9B
  8
0
 62
     0
 10
0.2040389544366541
 20
0.1590692452710289
 30
0.0
 11
0.2454758626533071
 21
0.1901743311656677
 31
0.0
  0
LINE
  5
9C
  8
0
 62
     0
 10
0.2454758626533071
 20
0.1901743311656677
 30
0.0
 11
0.2358055667351557
 21
0.2407658497320428
 31
0.0
  0
LINE
  5
9D
  8
0
 62
     0
 10
0.2358055667351557
 20
0.2407658497320428
 30
0.0
 11
0.2445231311826135
 21
0.2533991929504968
 31
0.0
  0
LINE
  5
9E
  8
0
 62
     0
 10
0.2445231311826135
 20
0.2533991929504968
 30
0.0
 11
0.1589155139909764
 21
0.4909052828909743
 31
0.0
  0
LINE
  5
9F
  8
0
 62
     0
 10
0.1589155139909764
 20
0.4909052828909743
 30
0.0
 11
0.1848837615708863
 21
0.6604676544726644
 31
0.0
  0
LINE
  5
A0
  8
0
 62
     0
 10
0.1848837615708863
 20
0.6604676544726644
 30
0.0
 11
0.1918836450676775
 21
0.729460378317694
 31
0.0
  0
LINE
  5
A1
  8
0
 62
     0
 10
0.1918836450676775
 20
0.729460378317694
 30
0.0
 11
0.2202739943654812
 21
0.8252940117350506
 31
0.0
  0
LINE
  5
A2
  8
0
 62
     0
 10
0.2202739943654812
 20
0.8252940117350506
 30
0.0
 11
0.257333771102968
 21
0.8489364316126164
 31
0.0
  0
LINE
  5
A3
  8
0
 62
     0
 10
0.257333771102968
 20
0.8489364316126164
 30
0.0
 11
0.3633786460208853
 21
0.8855572560316891
 31
0.0
  0
LINE
  5
A4
  8
0
 62
     0
 10
0.3633786460208853
 20
0.8855572560316891
 30
0.0
 11
0.3448006206443679
 21
1.013911489334661
 31
0.0
  0
LINE
  5
A5
  8
0
 62
     0
 10
0.3448006206443679
 20
1.013911489334661
 30
0.0
 11
0.325936632845432
 21
1.1039515240738
 31
0.0
  0
LINE
  5
A6
  8
0
 62
     0
 10
0.325936632845432
 20
1.1039515240738
 30
0.0
 11
0.302600192759855
 21
1.098757493274588
 31
0.0
  0
LINE
  5
A7
  8
0
 62
     0
 10
0.302600192759855
 20
1.098757493274588
 30
0.0
 11
0.3159341439132369
 21
1.195159715308522
 31
0.0
  0
LINE
  5
A8
  8
0
 62
     0
 10
0.3159341439132369
 20
1.195159715308522
 30
0.0
 11
0.3065464741892434
 21
1.222493433455485
 31
0.0
  0
LINE
  5
A9
  8
0
 62
     0
 10
0.3065464741892434
 20
1.222493433455485
 30
0.0
 11
0.3123276811624898
 21
1.235828814420979
 31
0.0
  0
LINE
  5
AA
  8
0
 62
     0
 10
0.3123276811624898
 20
1.235828814420979
 30
0.0
 11
0.2612047490944512
 21
1.479332966171705
 31
0.0
  0
LINE
  5
AB
  8
0
 62
     0
 10
0.2612047490944512
 20
1.479332966171705
 30
0.0
 11
0.1340143828507269
 21
1.533443728949988
 31
0.0
  0
LINE
  5
AC
  8
0
 62
     0
 10
0.1340143828507269
 20
1.533443728949988
 30
0.0
 11
0.099899542460124
 21
1.570998697282298
 31
0.0
  0
LINE
  5
AD
  8
0
 62
     0
 10
0.099899542460124
 20
1.570998697282298
 30
0.0
 11
0.0837641127751063
 21
1.585995043318012
 31
0.0
  0
LINE
  5
AE
  8
0
 62
     0
 10
0.0837641127751063
 20
1.585995043318012
 30
0.0
 11
0.0939958482492742
 21
1.611377067931963
 31
0.0
  0
LINE
  5
AF
  8
0
 62
     0
 10
0.0939958482492742
 20
1.611377067931963
 30
0.0
 11
0.108754368870342
 21
1.674022855811392
 31
0.0
  0
LINE
  5
B0
  8
0
 62
     0
 10
0.108754368870342
 20
1.674022855811392
 30
0.0
 11
0.0676305895062377
 21
1.764746817344151
 31
0.0
  0
LINE
  5
B1
  8
0
 62
     0
 10
0.0676305895062377
 20
1.764746817344151
 30
0.0
 11
0.0039029104619875
 21
1.773299953398717
 31
0.0
  0
LINE
  5
B2
  8
0
 62
     0
 10
-0.0458780927761005
 20
1.749176336071822
 30
0.0
 11
0.0208937823071935
 21
1.74033412382485
 31
0.0
  0
LINE
  5
B3
  8
0
 62
     0
 10
0.0208937823071935
 20
1.74033412382485
 30
0.0
 11
0.0654083656960559
 21
1.753749894130601
 31
0.0
  0
LINE
  5
B4
  8
0
 62
     0
 10
0.0654083656960559
 20
1.753749894130601
 30
0.0
 11
0.0454377820524225
 21
1.731491911577878
 31
0.0
  0
LINE
  5
B5
  8
0
 62
     0
 10
0.0454377820524225
 20
1.731491911577878
 30
0.0
 11
0.0542797198488405
 21
1.671273397137291
 31
0.0
  0
LINE
  5
B6
  8
0
 62
     0
 10
0.0542797198488405
 20
1.671273397137291
 30
0.0
 11
0.0876656573904871
 21
1.686975946472431
 31
0.0
  0
LINE
  5
B7
  8
0
 62
     0
 10
0.0876656573904871
 20
1.686975946472431
 30
0.0
 11
0.0966600423902918
 21
1.664717963919708
 31
0.0
  0
LINE
  5
B8
  8
0
 62
     0
 10
-0.0284991115900375
 20
1.674932243584315
 30
0.0
 11
-0.0027355342177167
 21
1.664717963919708
 31
0.0
  0
LINE
  5
B9
  8
0
 62
     0
 10
-0.0027355342177167
 20
1.664717963919708
 30
0.0
 11
-0.0452683039625544
 21
1.66365080037266
 31
0.0
  0
ENDSEC
  0
EOF
