  0
SECTION
  2
HEADER
  9
$ACADVER
  1
AC1009
  9
$DWGCODEPAGE
  3
ansi_1252
  9
$INSBASE
 10
207.7027856687961
 20
84.98290520427621
 30
0.0
  9
$EXTMIN
 10
207.2303965578681
 20
84.96971762024239
 30
-0.0001168390152628
  9
$EXTMAX
 10
207.8563578410527
 20
86.80425035264088
 30
0.0003245301121169
  9
$LIMMIN
 10
0.0
 20
0.0
  9
$LIMMAX
 10
12.0
 20
9.0
  9
$ORTHOMODE
 70
     0
  9
$REGENMODE
 70
     1
  9
$FILLMODE
 70
     1
  9
$QTEXTMODE
 70
     0
  9
$MIRRTEXT
 70
     1
  9
$DRAGMODE
 70
     2
  9
$LTSCALE
 40
1.0
  9
$OSMODE
 70
    37
  9
$ATTMODE
 70
     1
  9
$TEXTSIZE
 40
0.25
  9
$TRACEWID
 40
0.05
  9
$TEXTSTYLE
  7
STANDARD
  9
$CLAYER
  8
L01
  9
$CELTYPE
  6
BYLAYER
  9
$CECOLOR
 62
   256
  9
$DIMSCALE
 40
1.0
  9
$DIMASZ
 40
0.1
  9
$DIMEXO
 40
0.25
  9
$DIMDLI
 40
0.38
  9
$DIMRND
 40
0.0
  9
$DIMDLE
 40
0.0
  9
$DIMEXE
 40
0.25
  9
$DIMTP
 40
0.0
  9
$DIMTM
 40
0.0
  9
$DIMTXT
 40
0.18
  9
$DIMCEN
 40
0.09
  9
$DIMTSZ
 40
0.0
  9
$DIMTOL
 70
     0
  9
$DIMLIM
 70
     0
  9
$DIMTIH
 70
     1
  9
$DIMTOH
 70
     0
  9
$DIMSE1
 70
     0
  9
$DIMSE2
 70
     0
  9
$DIMTAD
 70
     1
  9
$DIMZIN
 70
     0
  9
$DIMBLK
  1

  9
$DIMASO
 70
     1
  9
$DIMSHO
 70
     1
  9
$DIMPOST
  1

  9
$DIMAPOST
  1

  9
$DIMALT
 70
     0
  9
$DIMALTD
 70
     2
  9
$DIMALTF
 40
25.4
  9
$DIMLFAC
 40
1.0
  9
$DIMTOFL
 70
     0
  9
$DIMTVP
 40
0.0
  9
$DIMTIX
 70
     0
  9
$DIMSOXD
 70
     0
  9
$DIMSAH
 70
     1
  9
$DIMBLK1
  1
DOT
  9
$DIMBLK2
  1
DOT
  9
$DIMSTYLE
  2
STANDARD
  9
$DIMCLRD
 70
     1
  9
$DIMCLRE
 70
     1
  9
$DIMCLRT
 70
     3
  9
$DIMTFAC
 40
1.0
  9
$DIMGAP
 40
0.09
  9
$LUNITS
 70
     2
  9
$LUPREC
 70
     4
  9
$SKETCHINC
 40
0.1
  9
$FILLETRAD
 40
0.0
  9
$AUNITS
 70
     0
  9
$AUPREC
 70
     0
  9
$MENU
  1
acad
  9
$ELEVATION
 40
0.0
  9
$PELEVATION
 40
0.0
  9
$THICKNESS
 40
0.0
  9
$LIMCHECK
 70
     0
  9
$CHAMFERA
 40
0.5
  9
$CHAMFERB
 40
0.5
  9
$SKPOLY
 70
     1
  9
$TDCREATE
 40
2451036.576688426
  9
$TDUPDATE
 40
2457483.532719907
  9
$TDINDWG
 40
0.9397220023
  9
$TDUSRTIMER
 40
0.9397220023
  9
$USRTIMER
 70
     1
  9
$ANGBASE
 50
0.0
  9
$ANGDIR
 70
     0
  9
$PDMODE
 70
     0
  9
$PDSIZE
 40
0.0
  9
$PLINEWID
 40
0.0
  9
$COORDS
 70
     1
  9
$SPLFRAME
 70
     0
  9
$SPLINETYPE
 70
     6
  9
$SPLINESEGS
 70
     8
  9
$ATTDIA
 70
     0
  9
$ATTREQ
 70
     1
  9
$HANDLING
 70
     1
  9
$HANDSEED
  5
32B
  9
$SURFTAB1
 70
     6
  9
$SURFTAB2
 70
     6
  9
$SURFTYPE
 70
     6
  9
$SURFU
 70
     6
  9
$SURFV
 70
     6
  9
$UCSNAME
  2

  9
$UCSORG
 10
0.0
 20
0.0
 30
0.0
  9
$UCSXDIR
 10
1.0
 20
0.0
 30
0.0
  9
$UCSYDIR
 10
0.0
 20
1.0
 30
0.0
  9
$PUCSNAME
  2

  9
$PUCSORG
 10
0.0
 20
0.0
 30
0.0
  9
$PUCSXDIR
 10
1.0
 20
0.0
 30
0.0
  9
$PUCSYDIR
 10
0.0
 20
1.0
 30
0.0
  9
$USERI1
 70
     0
  9
$USERI2
 70
     0
  9
$USERI3
 70
     0
  9
$USERI4
 70
     0
  9
$USERI5
 70
     0
  9
$USERR1
 40
0.0
  9
$USERR2
 40
0.0
  9
$USERR3
 40
0.0
  9
$USERR4
 40
0.0
  9
$USERR5
 40
0.0
  9
$WORLDVIEW
 70
     1
  9
$SHADEDGE
 70
     3
  9
$SHADEDIF
 70
    70
  9
$TILEMODE
 70
     1
  9
$MAXACTVP
 70
    16
  9
$PLIMCHECK
 70
     0
  9
$PEXTMIN
 10
1.000000000000000E+20
 20
1.000000000000000E+20
 30
1.000000000000000E+20
  9
$PEXTMAX
 10
-1.000000000000000E+20
 20
-1.000000000000000E+20
 30
-1.000000000000000E+20
  9
$PLIMMIN
 10
0.0
 20
0.0
  9
$PLIMMAX
 10
12.0
 20
9.0
  9
$UNITMODE
 70
     0
  9
$VISRETAIN
 70
     1
  9
$PLINEGEN
 70
     0
  9
$PSLTSCALE
 70
     1
  0
ENDSEC
  0
SECTION
  2
TABLES
  0
TABLE
  2
VPORT
 70
     1
  0
VPORT
  2
*ACTIVE
 70
     0
 10
0.0
 20
0.0
 11
1.0
 21
1.0
 12
207.5433771994604
 22
85.88698398644163
 13
0.0
 23
0.0
 14
0.5
 24
0.5
 15
0.5
 25
0.5
 16
0.0
 26
0.0
 36
1.0
 17
0.0
 27
0.0
 37
0.0
 40
1.846406730666445
 41
1.376889848812095
 42
50.0
 43
0.0
 44
0.0
 50
0.0
 51
0.0
 71
     0
 72
   100
 73
     1
 74
     1
 75
     0
 76
     0
 77
     0
 78
     0
  0
ENDTAB
  0
TABLE
  2
LTYPE
 70
     1
  0
LTYPE
  2
CONTINUOUS
 70
     0
  3
Solid line
 72
    65
 73
     0
 40
0.0
  0
ENDTAB
  0
TABLE
  2
LAYER
 70
     2
  0
LAYER
  2
0
 70
     0
 62
     7
  6
CONTINUOUS
  0
LAYER
  2
L01
 70
     0
 62
     1
  6
CONTINUOUS
  0
ENDTAB
  0
TABLE
  2
STYLE
 70
     1
  0
STYLE
  2
STANDARD
 70
     0
 40
0.0
 41
1.15
 50
0.0
 71
     0
 42
0.25
  3
ROMANS.SHX
  4

  0
ENDTAB
  0
TABLE
  2
VIEW
 70
     0
  0
ENDTAB
  0
TABLE
  2
UCS
 70
     0
  0
ENDTAB
  0
TABLE
  2
APPID
 70
     1
  0
APPID
  2
ACAD
 70
     0
  0
ENDTAB
  0
TABLE
  2
DIMSTYLE
 70
     1
  0
DIMSTYLE
  2
STANDARD
 70
     0
  3

  4

  5

  6

  7

 40
1.0
 41
0.18
 42
0.0625
 43
0.38
 44
0.18
 45
0.0
 46
0.0
 47
0.0
 48
0.0
140
0.18
141
0.09
142
0.0
143
25.4
144
1.0
145
0.0
146
1.0
147
0.09
 71
     0
 72
     0
 73
     1
 74
     1
 75
     0
 76
     0
 77
     0
 78
     0
170
     0
171
     2
172
     0
173
     0
174
     0
175
     0
176
     0
177
     0
178
     0
  0
ENDTAB
  0
ENDSEC
  0
SECTION
  2
BLOCKS
  0
BLOCK
  8
0
  2
$MODEL_SPACE
 70
     0
 10
0.0
 20
0.0
 30
0.0
  3
$MODEL_SPACE
  1

  0
ENDBLK
  5
6
  8
0
  0
BLOCK
 67
     1
  8
0
  2
$PAPER_SPACE
 70
     0
 10
0.0
 20
0.0
 30
0.0
  3
$PAPER_SPACE
  1

  0
ENDBLK
  5
9
 67
     1
  8
0
  0
BLOCK
  8
0
  2
_DOT
 70
     0
 10
0.0
 20
0.0
 30
0.0
  3
_DOT
  1

  0
POLYLINE
  5
1F
  8
0
  6
BYBLOCK
 62
     0
 66
     1
 10
0.0
 20
0.0
 30
0.0
 70
     1
 40
0.5
 41
0.5
  0
VERTEX
  5
2FA
  8
0
  6
BYBLOCK
 62
     0
 10
-0.25
 20
0.0
 30
0.0
 42
1.0
  0
VERTEX
  5
2FB
  8
0
  6
BYBLOCK
 62
     0
 10
0.25
 20
0.0
 30
0.0
 42
1.0
  0
SEQEND
  5
32A
  8
0
  6
BYBLOCK
 62
     0
  0
LINE
  5
20
  8
0
  6
BYBLOCK
 62
     0
 10
-0.5
 20
0.0
 30
0.0
 11
-1.0
 21
0.0
 31
0.0
  0
ENDBLK
  5
22
  8
0
  0
ENDSEC
  0
SECTION
  2
ENTITIES
  0
POLYLINE
  5
23
  8
0
 62
     0
 66
     1
 10
0.0
 20
0.0
 30
0.0
  0
VERTEX
  5
BD
  8
0
 62
     0
 10
207.8226935245943
 20
86.1952773503179
 30
0.0
  0
VERTEX
  5
BE
  8
0
 62
     0
 10
207.8270913603602
 20
86.16007123101687
 30
0.0
  0
VERTEX
  5
BF
  8
0
 62
     0
 10
207.832251912694
 20
86.12392330464021
 30
0.0
  0
VERTEX
  5
C0
  8
0
 62
     0
 10
207.8270913603602
 20
86.09293936774594
 30
0.0
  0
VERTEX
  5
C1
  8
0
 62
     0
 10
207.8374124650277
 20
86.05679144136928
 30
0.0
  0
VERTEX
  5
C2
  8
0
 62
     0
 10
207.8374124650277
 20
86.02580750447501
 30
0.0
  0
VERTEX
  5
C3
  8
0
 62
     0
 10
207.832251912694
 20
85.99482356758074
 30
0.0
  0
VERTEX
  5
C4
  8
0
 62
     0
 10
207.832251912694
 20
85.9586756412041
 30
0.0
  0
VERTEX
  5
C5
  8
0
 62
     0
 10
207.8374124650277
 20
85.94318367275696
 30
0.0
  0
VERTEX
  5
C6
  8
0
 62
     0
 10
207.8374124650277
 20
85.91219973586269
 30
0.0
  0
VERTEX
  5
C7
  8
0
 62
     0
 10
207.8374124650277
 20
85.88121579896841
 30
0.0
  0
VERTEX
  5
C8
  8
0
 62
     0
 10
207.8374124650277
 20
85.87088782000365
 30
0.0
  0
VERTEX
  5
C9
  8
0
 62
     0
 10
207.8219308080265
 20
85.87088782000365
 30
0.0
  0
VERTEX
  5
CA
  8
0
 62
     0
 10
207.8012885986914
 20
85.87088782000365
 30
0.0
  0
VERTEX
  5
CB
  8
0
 62
     0
 10
207.7806463893564
 20
85.86572383052128
 30
0.0
  0
VERTEX
  5
CC
  8
0
 62
     0
 10
207.7548436276875
 20
85.86055984103889
 30
0.0
  0
VERTEX
  5
CD
  8
0
 62
     0
 10
207.7393619706862
 20
85.86572383052128
 30
0.0
  0
VERTEX
  5
CE
  8
0
 62
     0
 10
207.7290408660187
 20
85.87088782000365
 30
0.0
  0
VERTEX
  5
CF
  8
0
 62
     0
 10
207.7187197613512
 20
85.87605180948603
 30
0.0
  0
VERTEX
  5
D0
  8
0
 62
     0
 10
207.7187197613512
 20
85.86055984103889
 30
0.0
  0
VERTEX
  5
D1
  8
0
 62
     0
 10
207.723880313685
 20
85.84506787259176
 30
0.0
  0
VERTEX
  5
D2
  8
0
 62
     0
 10
207.7187197613512
 20
85.83990388310937
 30
0.0
  0
VERTEX
  5
D3
  8
0
 62
     0
 10
207.7032381043499
 20
85.83990388310937
 30
0.0
  0
VERTEX
  5
D4
  8
0
 62
     0
 10
207.6774353426811
 20
85.84506787259176
 30
0.0
  0
VERTEX
  5
D5
  8
0
 62
     0
 10
207.6516325810123
 20
85.84506787259176
 30
0.0
  0
VERTEX
  5
D6
  8
0
 62
     0
 10
207.6206692670097
 20
85.84506787259176
 30
0.0
  0
VERTEX
  5
D7
  8
0
 62
     0
 10
207.5897059530071
 20
85.86055984103889
 30
0.0
  0
VERTEX
  5
D8
  8
0
 62
     0
 10
207.5639031913383
 20
85.87088782000365
 30
0.0
  0
VERTEX
  5
D9
  8
0
 62
     0
 10
207.548421534337
 20
85.89154377793317
 30
0.0
  0
VERTEX
  5
DA
  8
0
 62
     0
 10
207.5381004296694
 20
85.92252771482744
 30
0.0
  0
VERTEX
  5
DB
  8
0
 62
     0
 10
207.5329398773357
 20
85.95351165172171
 30
0.0
  0
VERTEX
  5
DC
  8
0
 62
     0
 10
207.5329398773357
 20
85.96383963068646
 30
0.0
  0
VERTEX
  5
DD
  8
0
 62
     0
 10
207.5174582203344
 20
85.98965957809835
 30
0.0
  0
SEQEND
  5
2FC
  8
0
 62
     0
  0
POLYLINE
  5
24
  8
0
 62
     0
 66
     1
 10
0.0
 20
0.0
 30
0.0
  0
VERTEX
  5
DE
  8
0
 62
     0
 10
207.723880313685
 20
85.87605180948603
 30
0.0
  0
VERTEX
  5
DF
  8
0
 62
     0
 10
207.723880313685
 20
85.8863797884508
 30
0.0
  0
VERTEX
  5
E0
  8
0
 62
     0
 10
207.723880313685
 20
85.91219973586269
 30
0.0
  0
VERTEX
  5
E1
  8
0
 62
     0
 10
207.7290408660187
 20
85.92769170430981
 30
0.0
  0
VERTEX
  5
E2
  8
0
 62
     0
 10
207.7342014183525
 20
85.9586756412041
 30
0.0
  0
VERTEX
  5
E3
  8
0
 62
     0
 10
207.723880313685
 20
85.97933159913362
 30
0.0
  0
VERTEX
  5
E4
  8
0
 62
     0
 10
207.7290408660187
 20
86.0051515465455
 30
0.0
  0
VERTEX
  5
E5
  8
0
 62
     0
 10
207.7290408660187
 20
86.05679144136928
 30
0.0
  0
VERTEX
  5
E6
  8
0
 62
     0
 10
207.7290408660187
 20
86.08261138878117
 30
0.0
  0
VERTEX
  5
E7
  8
0
 62
     0
 10
207.7290408660187
 20
86.11359532567545
 30
0.0
  0
VERTEX
  5
E8
  8
0
 62
     0
 10
207.723880313685
 20
86.1497432520521
 30
0.0
  0
VERTEX
  5
E9
  8
0
 62
     0
 10
207.723880313685
 20
86.18072718894638
 30
0.0
  0
VERTEX
  5
EA
  8
0
 62
     0
 10
207.723880313685
 20
86.2220391048054
 30
0.0
  0
VERTEX
  5
EB
  8
0
 62
     0
 10
207.7288809330133
 20
86.2620707044431
 30
0.0
  0
SEQEND
  5
2FD
  8
0
 62
     0
  0
POLYLINE
  5
25
  8
0
 62
     0
 66
     1
 10
0.0
 20
0.0
 30
0.0
  0
VERTEX
  5
EC
  8
0
 62
     0
 10
207.5156205555094
 20
86.16558789738211
 30
0.0
  0
VERTEX
  5
ED
  8
0
 62
     0
 10
207.5174582203344
 20
86.16007123101687
 30
0.0
  0
VERTEX
  5
EE
  8
0
 62
     0
 10
207.5226187726682
 20
86.12908729412258
 30
0.0
  0
VERTEX
  5
EF
  8
0
 62
     0
 10
207.5226187726682
 20
86.1032673467107
 30
0.0
  0
VERTEX
  5
F0
  8
0
 62
     0
 10
207.5226187726682
 20
86.0774473992988
 30
0.0
  0
VERTEX
  5
F1
  8
0
 62
     0
 10
207.5174582203344
 20
86.05679144136928
 30
0.0
  0
VERTEX
  5
F2
  8
0
 62
     0
 10
207.5174582203344
 20
86.02064351499263
 30
0.0
  0
VERTEX
  5
F3
  8
0
 62
     0
 10
207.5174582203344
 20
85.99482356758074
 30
0.0
  0
VERTEX
  5
F4
  8
0
 62
     0
 10
207.5122976680007
 20
85.9586756412041
 30
0.0
  0
VERTEX
  5
F5
  8
0
 62
     0
 10
207.5071371156669
 20
85.93801968327458
 30
0.0
  0
VERTEX
  5
F6
  8
0
 62
     0
 10
207.4916554586656
 20
85.90187175689792
 30
0.0
  0
VERTEX
  5
F7
  8
0
 62
     0
 10
207.4864949063318
 20
85.87605180948603
 30
0.0
  0
VERTEX
  5
F8
  8
0
 62
     0
 10
207.4710132493305
 20
85.86055984103889
 30
0.0
  0
VERTEX
  5
F9
  8
0
 62
     0
 10
207.4452104876617
 20
85.84506787259176
 30
0.0
  0
VERTEX
  5
FA
  8
0
 62
     0
 10
207.4090866213254
 20
85.84506787259176
 30
0.0
  0
VERTEX
  5
FB
  8
0
 62
     0
 10
207.3884444119903
 20
85.83990388310937
 30
0.0
  0
VERTEX
  5
FC
  8
0
 62
     0
 10
207.3678022026552
 20
85.85023186207414
 30
0.0
  0
VERTEX
  5
FD
  8
0
 62
     0
 10
207.3574810979877
 20
85.86055984103889
 30
0.0
  0
VERTEX
  5
FE
  8
0
 62
     0
 10
207.3574810979877
 20
85.86055984103889
 30
0.0
  0
VERTEX
  5
FF
  8
0
 62
     0
 10
207.3574810979877
 20
85.87088782000365
 30
0.0
  0
VERTEX
  5
100
  8
0
 62
     0
 10
207.352320545654
 20
85.88121579896841
 30
0.0
  0
VERTEX
  5
101
  8
0
 62
     0
 10
207.352320545654
 20
85.89154377793317
 30
0.0
  0
VERTEX
  5
102
  8
0
 62
     0
 10
207.3419994409864
 20
85.90187175689792
 30
0.0
  0
VERTEX
  5
103
  8
0
 62
     0
 10
207.3368388886527
 20
85.92252771482744
 30
0.0
  0
VERTEX
  5
104
  8
0
 62
     0
 10
207.3419994409864
 20
85.91736372534506
 30
0.0
  0
VERTEX
  5
105
  8
0
 62
     0
 10
207.3471599933202
 20
85.9070357463803
 30
0.0
  0
VERTEX
  5
106
  8
0
 62
     0
 10
207.352320545654
 20
85.90187175689792
 30
0.0
  0
VERTEX
  5
107
  8
0
 62
     0
 10
207.352320545654
 20
85.9070357463803
 30
0.0
  0
VERTEX
  5
108
  8
0
 62
     0
 10
207.3626416503215
 20
85.91219973586269
 30
0.0
  0
VERTEX
  5
109
  8
0
 62
     0
 10
207.3626416503215
 20
85.92769170430981
 30
0.0
  0
VERTEX
  5
10A
  8
0
 62
     0
 10
207.3574810979877
 20
85.93801968327458
 30
0.0
  0
VERTEX
  5
10B
  8
0
 62
     0
 10
207.3471599933202
 20
85.95351165172171
 30
0.0
  0
VERTEX
  5
10C
  8
0
 62
     0
 10
207.3419994409864
 20
85.9586756412041
 30
0.0
  0
VERTEX
  5
10D
  8
0
 62
     0
 10
207.3368388886527
 20
85.96383963068646
 30
0.0
  0
VERTEX
  5
10E
  8
0
 62
     0
 10
207.3419994409864
 20
85.96383963068646
 30
0.0
  0
VERTEX
  5
10F
  8
0
 62
     0
 10
207.3471599933202
 20
85.96383963068646
 30
0.0
  0
VERTEX
  5
110
  8
0
 62
     0
 10
207.352320545654
 20
85.96900362016885
 30
0.0
  0
VERTEX
  5
111
  8
0
 62
     0
 10
207.352320545654
 20
86.0051515465455
 30
0.0
  0
VERTEX
  5
112
  8
0
 62
     0
 10
207.3574810979877
 20
86.04646346240453
 30
0.0
  0
VERTEX
  5
113
  8
0
 62
     0
 10
207.3626416503215
 20
86.10843133619306
 30
0.0
  0
VERTEX
  5
114
  8
0
 62
     0
 10
207.3574810979877
 20
86.13425128360497
 30
0.0
  0
VERTEX
  5
115
  8
0
 62
     0
 10
207.3678022026552
 20
86.13425128360497
 30
0.0
  0
VERTEX
  5
116
  8
0
 62
     0
 10
207.372962754989
 20
86.15490724153449
 30
0.0
  0
VERTEX
  5
117
  8
0
 62
     0
 10
207.3626416503215
 20
86.18589117842876
 30
0.0
  0
VERTEX
  5
118
  8
0
 62
     0
 10
207.3678022026552
 20
86.21687511532303
 30
0.0
  0
VERTEX
  5
119
  8
0
 62
     0
 10
207.3678022026552
 20
86.25818703118206
 30
0.0
  0
VERTEX
  5
11A
  8
0
 62
     0
 10
207.3626416503215
 20
86.28400697859395
 30
0.0
  0
VERTEX
  5
11B
  8
0
 62
     0
 10
207.3471599933202
 20
86.30982692600585
 30
0.0
  0
VERTEX
  5
11C
  8
0
 62
     0
 10
207.3419994409864
 20
86.33048288393536
 30
0.0
  0
VERTEX
  5
11D
  8
0
 62
     0
 10
207.3265177839851
 20
86.3459748523825
 30
0.0
  0
VERTEX
  5
11E
  8
0
 62
     0
 10
207.3255864136736
 20
86.3497028149585
 30
0.0
  0
SEQEND
  5
2FE
  8
0
 62
     0
  0
POLYLINE
  5
26
  8
0
 62
     0
 66
     1
 10
0.0
 20
0.0
 30
0.0
  0
VERTEX
  5
11F
  8
0
 62
     0
 10
207.3110361269839
 20
86.43892666306532
 30
0.0
  0
VERTEX
  5
120
  8
0
 62
     0
 10
207.3110361269839
 20
86.42343469461818
 30
0.0
  0
VERTEX
  5
121
  8
0
 62
     0
 10
207.3058755746501
 20
86.41310671565341
 30
0.0
  0
VERTEX
  5
122
  8
0
 62
     0
 10
207.3007150223163
 20
86.3924507577239
 30
0.0
  0
VERTEX
  5
123
  8
0
 62
     0
 10
207.285233365315
 20
86.36146682082963
 30
0.0
  0
VERTEX
  5
124
  8
0
 62
     0
 10
207.2800728129813
 20
86.35113884186488
 30
0.0
  0
VERTEX
  5
125
  8
0
 62
     0
 10
207.285233365315
 20
86.34081086290013
 30
0.0
  0
VERTEX
  5
126
  8
0
 62
     0
 10
207.2903939176488
 20
86.33564687341774
 30
0.0
  0
VERTEX
  5
127
  8
0
 62
     0
 10
207.2955544699826
 20
86.33048288393536
 30
0.0
  0
VERTEX
  5
128
  8
0
 62
     0
 10
207.2903939176488
 20
86.33048288393536
 30
0.0
  0
VERTEX
  5
129
  8
0
 62
     0
 10
207.285233365315
 20
86.3201549049706
 30
0.0
  0
VERTEX
  5
12A
  8
0
 62
     0
 10
207.285233365315
 20
86.30982692600585
 30
0.0
  0
VERTEX
  5
12B
  8
0
 62
     0
 10
207.2800728129813
 20
86.28917096807633
 30
0.0
  0
VERTEX
  5
12C
  8
0
 62
     0
 10
207.2749122606475
 20
86.2736789996292
 30
0.0
  0
VERTEX
  5
12D
  8
0
 62
     0
 10
207.2697517083137
 20
86.24785905221731
 30
0.0
  0
VERTEX
  5
12E
  8
0
 62
     0
 10
207.26459115598
 20
86.23236708377016
 30
0.0
  0
VERTEX
  5
12F
  8
0
 62
     0
 10
207.2594306036462
 20
86.21687511532303
 30
0.0
  0
VERTEX
  5
130
  8
0
 62
     0
 10
207.2542700513125
 20
86.19621915739351
 30
0.0
  0
VERTEX
  5
131
  8
0
 62
     0
 10
207.2439489466449
 20
86.175563199464
 30
0.0
  0
VERTEX
  5
132
  8
0
 62
     0
 10
207.2439489466449
 20
86.15490724153449
 30
0.0
  0
VERTEX
  5
133
  8
0
 62
     0
 10
207.2439489466449
 20
86.12908729412258
 30
0.0
  0
VERTEX
  5
134
  8
0
 62
     0
 10
207.2439489466449
 20
86.1032673467107
 30
0.0
  0
VERTEX
  5
135
  8
0
 62
     0
 10
207.2491094989787
 20
86.07228340981642
 30
0.0
  0
VERTEX
  5
136
  8
0
 62
     0
 10
207.2491094989787
 20
86.04129947292215
 30
0.0
  0
VERTEX
  5
137
  8
0
 62
     0
 10
207.2491094989787
 20
86.01547952551026
 30
0.0
  0
VERTEX
  5
138
  8
0
 62
     0
 10
207.2542700513125
 20
85.98449558861599
 30
0.0
  0
VERTEX
  5
139
  8
0
 62
     0
 10
207.2594306036462
 20
85.96383963068646
 30
0.0
  0
VERTEX
  5
13A
  8
0
 62
     0
 10
207.2594306036462
 20
85.95351165172171
 30
0.0
  0
VERTEX
  5
13B
  8
0
 62
     0
 10
207.26459115598
 20
85.94834766223934
 30
0.0
  0
VERTEX
  5
13C
  8
0
 62
     0
 10
207.2697517083137
 20
85.94834766223934
 30
0.0
  0
VERTEX
  5
13D
  8
0
 62
     0
 10
207.2749122606475
 20
85.95351165172171
 30
0.0
  0
VERTEX
  5
13E
  8
0
 62
     0
 10
207.2903939176488
 20
85.96383963068646
 30
0.0
  0
VERTEX
  5
13F
  8
0
 62
     0
 10
207.3110361269839
 20
85.96383963068646
 30
0.0
  0
VERTEX
  5
140
  8
0
 62
     0
 10
207.3213572316514
 20
85.96383963068646
 30
0.0
  0
VERTEX
  5
141
  8
0
 62
     0
 10
207.3316783363189
 20
85.9586756412041
 30
0.0
  0
SEQEND
  5
2FF
  8
0
 62
     0
  0
POLYLINE
  5
27
  8
0
 62
     0
 66
     1
 10
0.0
 20
0.0
 30
0.0
  0
VERTEX
  5
142
  8
0
 62
     0
 10
207.5071371156669
 20
86.05679144136928
 30
0.0
  0
VERTEX
  5
143
  8
0
 62
     0
 10
207.5019765633331
 20
86.06195543085167
 30
0.0
  0
VERTEX
  5
144
  8
0
 62
     0
 10
207.4916554586656
 20
86.0516274518869
 30
0.0
  0
VERTEX
  5
145
  8
0
 62
     0
 10
207.4968160109993
 20
86.03613548343978
 30
0.0
  0
VERTEX
  5
146
  8
0
 62
     0
 10
207.5019765633331
 20
86.02580750447501
 30
0.0
  0
VERTEX
  5
147
  8
0
 62
     0
 10
207.5122976680007
 20
86.03613548343978
 30
0.0
  0
SEQEND
  5
300
  8
0
 62
     0
  0
POLYLINE
  5
28
  8
0
 62
     0
 66
     1
 10
0.0
 20
0.0
 30
0.0
  0
VERTEX
  5
148
  8
0
 62
     0
 10
207.4555315923292
 20
85.57137643002568
 30
0.0
  0
VERTEX
  5
149
  8
0
 62
     0
 10
207.4710132493305
 20
85.55588446157856
 30
0.0
  0
VERTEX
  5
14A
  8
0
 62
     0
 10
207.4864949063318
 20
85.54555648261379
 30
0.0
  0
SEQEND
  5
301
  8
0
 62
     0
  0
POLYLINE
  5
29
  8
0
 62
     0
 66
     1
 10
0.0
 20
0.0
 30
0.0
  0
VERTEX
  5
14B
  8
0
 62
     0
 10
207.7651647323551
 20
85.74178808294418
 30
0.0
  0
VERTEX
  5
14C
  8
0
 62
     0
 10
207.7651647323551
 20
85.72629611449705
 30
0.0
  0
VERTEX
  5
14D
  8
0
 62
     0
 10
207.7651647323551
 20
85.71596813553228
 30
0.0
  0
VERTEX
  5
14E
  8
0
 62
     0
 10
207.7496830753538
 20
85.70564015656753
 30
0.0
  0
VERTEX
  5
14F
  8
0
 62
     0
 10
207.74452252302
 20
85.70047616708516
 30
0.0
  0
VERTEX
  5
150
  8
0
 62
     0
 10
207.74452252302
 20
85.70047616708516
 30
0.0
  0
VERTEX
  5
151
  8
0
 62
     0
 10
207.811609703359
 20
85.69531217760277
 30
0.0
  0
VERTEX
  5
152
  8
0
 62
     0
 10
207.832251912694
 20
85.71080414604991
 30
0.0
  0
VERTEX
  5
153
  8
0
 62
     0
 10
207.832251912694
 20
85.72113212501466
 30
0.0
  0
VERTEX
  5
154
  8
0
 62
     0
 10
207.8012885986914
 20
85.72629611449705
 30
0.0
  0
VERTEX
  5
155
  8
0
 62
     0
 10
207.7909674940239
 20
85.72629611449705
 30
0.0
  0
VERTEX
  5
156
  8
0
 62
     0
 10
207.7858069416901
 20
85.72113212501466
 30
0.0
  0
VERTEX
  5
157
  8
0
 62
     0
 10
207.7961280463576
 20
85.74178808294418
 30
0.0
  0
VERTEX
  5
158
  8
0
 62
     0
 10
207.7961280463576
 20
85.74695207242655
 30
0.0
  0
SEQEND
  5
302
  8
0
 62
     0
  0
POLYLINE
  5
2A
  8
0
 62
     0
 66
     1
 10
0.0
 20
0.0
 30
0.0
  0
VERTEX
  5
159
  8
0
 62
     0
 10
207.7600041800213
 20
85.834739893627
 30
0.0
  0
VERTEX
  5
15A
  8
0
 62
     0
 10
207.7600041800213
 20
85.82441191466225
 30
0.0
  0
VERTEX
  5
15B
  8
0
 62
     0
 10
207.7548436276875
 20
85.81408393569748
 30
0.0
  0
VERTEX
  5
15C
  8
0
 62
     0
 10
207.7496830753538
 20
85.79859196725035
 30
0.0
  0
VERTEX
  5
15D
  8
0
 62
     0
 10
207.7393619706862
 20
85.77793600932083
 30
0.0
  0
VERTEX
  5
15E
  8
0
 62
     0
 10
207.7342014183525
 20
85.7624440408737
 30
0.0
  0
VERTEX
  5
15F
  8
0
 62
     0
 10
207.7393619706862
 20
85.75211606190894
 30
0.0
  0
VERTEX
  5
160
  8
0
 62
     0
 10
207.7496830753538
 20
85.73146010397943
 30
0.0
  0
VERTEX
  5
161
  8
0
 62
     0
 10
207.7600041800213
 20
85.73662409346181
 30
0.0
  0
VERTEX
  5
162
  8
0
 62
     0
 10
207.7600041800213
 20
85.75211606190894
 30
0.0
  0
VERTEX
  5
163
  8
0
 62
     0
 10
207.7651647323551
 20
85.77277201983846
 30
0.0
  0
VERTEX
  5
164
  8
0
 62
     0
 10
207.7754858370226
 20
85.78826398828559
 30
0.0
  0
VERTEX
  5
165
  8
0
 62
     0
 10
207.7858069416901
 20
85.78826398828559
 30
0.0
  0
VERTEX
  5
166
  8
0
 62
     0
 10
207.7858069416901
 20
85.78309999880321
 30
0.0
  0
VERTEX
  5
167
  8
0
 62
     0
 10
207.7858069416901
 20
85.76760803035609
 30
0.0
  0
VERTEX
  5
168
  8
0
 62
     0
 10
207.7858069416901
 20
85.75211606190894
 30
0.0
  0
VERTEX
  5
169
  8
0
 62
     0
 10
207.7858069416901
 20
85.74695207242655
 30
0.0
  0
VERTEX
  5
16A
  8
0
 62
     0
 10
207.7858069416901
 20
85.74178808294418
 30
0.0
  0
VERTEX
  5
16B
  8
0
 62
     0
 10
207.7961280463576
 20
85.74178808294418
 30
0.0
  0
VERTEX
  5
16C
  8
0
 62
     0
 10
207.8219308080265
 20
85.74695207242655
 30
0.0
  0
VERTEX
  5
16D
  8
0
 62
     0
 10
207.832251912694
 20
85.75728005139132
 30
0.0
  0
VERTEX
  5
16E
  8
0
 62
     0
 10
207.8425730173615
 20
85.77793600932083
 30
0.0
  0
VERTEX
  5
16F
  8
0
 62
     0
 10
207.8425730173615
 20
85.79859196725035
 30
0.0
  0
VERTEX
  5
170
  8
0
 62
     0
 10
207.832251912694
 20
85.81924792517987
 30
0.0
  0
VERTEX
  5
171
  8
0
 62
     0
 10
207.8270913603602
 20
85.83990388310937
 30
0.0
  0
VERTEX
  5
172
  8
0
 62
     0
 10
207.8219308080265
 20
85.84506787259176
 30
0.0
  0
SEQEND
  5
303
  8
0
 62
     0
  0
POLYLINE
  5
2B
  8
0
 62
     0
 66
     1
 10
0.0
 20
0.0
 30
0.0
  0
VERTEX
  5
173
  8
0
 62
     0
 10
207.7496830753538
 20
85.86572383052128
 30
0.0
  0
VERTEX
  5
174
  8
0
 62
     0
 10
207.7496830753538
 20
85.84506787259176
 30
0.0
  0
VERTEX
  5
175
  8
0
 62
     0
 10
207.7548436276875
 20
85.83990388310937
 30
0.0
  0
VERTEX
  5
176
  8
0
 62
     0
 10
207.7909674940239
 20
85.84506787259176
 30
0.0
  0
VERTEX
  5
177
  8
0
 62
     0
 10
207.8219308080265
 20
85.84506787259176
 30
0.0
  0
VERTEX
  5
178
  8
0
 62
     0
 10
207.8270913603602
 20
85.85539585155652
 30
0.0
  0
VERTEX
  5
179
  8
0
 62
     0
 10
207.832251912694
 20
85.86572383052128
 30
0.0
  0
VERTEX
  5
17A
  8
0
 62
     0
 10
207.832251912694
 20
85.87088782000365
 30
0.0
  0
SEQEND
  5
304
  8
0
 62
     0
  0
POLYLINE
  5
2C
  8
0
 62
     0
 66
     1
 10
0.0
 20
0.0
 30
0.0
  0
VERTEX
  5
17B
  8
0
 62
     0
 10
207.352320545654
 20
85.98965957809835
 30
0.0
  0
VERTEX
  5
17C
  8
0
 62
     0
 10
207.3678022026552
 20
85.98965957809835
 30
0.0
  0
VERTEX
  5
17D
  8
0
 62
     0
 10
207.3884444119903
 20
85.98965957809835
 30
0.0
  0
VERTEX
  5
17E
  8
0
 62
     0
 10
207.3936049643241
 20
85.98965957809835
 30
0.0
  0
VERTEX
  5
17F
  8
0
 62
     0
 10
207.4245682783267
 20
85.99482356758074
 30
0.0
  0
VERTEX
  5
180
  8
0
 62
     0
 10
207.4245682783267
 20
85.99998755706312
 30
0.0
  0
VERTEX
  5
181
  8
0
 62
     0
 10
207.4245682783267
 20
86.01031553602787
 30
0.0
  0
SEQEND
  5
305
  8
0
 62
     0
  0
POLYLINE
  5
2D
  8
0
 62
     0
 66
     1
 10
0.0
 20
0.0
 30
0.0
  0
VERTEX
  5
182
  8
0
 62
     0
 10
207.636150924011
 20
85.99482356758074
 30
0.0
  0
VERTEX
  5
183
  8
0
 62
     0
 10
207.6413114763448
 20
85.97933159913362
 30
0.0
  0
VERTEX
  5
184
  8
0
 62
     0
 10
207.656793133346
 20
85.97933159913362
 30
0.0
  0
VERTEX
  5
185
  8
0
 62
     0
 10
207.6722747903473
 20
85.97933159913362
 30
0.0
  0
VERTEX
  5
186
  8
0
 62
     0
 10
207.6929169996824
 20
85.97933159913362
 30
0.0
  0
VERTEX
  5
187
  8
0
 62
     0
 10
207.7135592090174
 20
85.97933159913362
 30
0.0
  0
VERTEX
  5
188
  8
0
 62
     0
 10
207.7135592090174
 20
85.97933159913362
 30
0.0
  0
SEQEND
  5
306
  8
0
 62
     0
  0
POLYLINE
  5
2E
  8
0
 62
     0
 66
     1
 10
0.0
 20
0.0
 30
0.0
  0
VERTEX
  5
189
  8
0
 62
     0
 10
207.2594306036462
 20
85.96900362016885
 30
0.0
  0
VERTEX
  5
18A
  8
0
 62
     0
 10
207.2594306036462
 20
85.97416760965123
 30
0.0
  0
VERTEX
  5
18B
  8
0
 62
     0
 10
207.2800728129813
 20
85.97933159913362
 30
0.0
  0
VERTEX
  5
18C
  8
0
 62
     0
 10
207.3007150223163
 20
85.97933159913362
 30
0.0
  0
VERTEX
  5
18D
  8
0
 62
     0
 10
207.3265177839851
 20
85.97933159913362
 30
0.0
  0
VERTEX
  5
18E
  8
0
 62
     0
 10
207.3368388886527
 20
85.97416760965123
 30
0.0
  0
SEQEND
  5
307
  8
0
 62
     0
  0
POLYLINE
  5
2F
  8
0
 62
     0
 66
     1
 10
0.0
 20
0.0
 30
0.0
  0
VERTEX
  5
18F
  8
0
 62
     0
 10
207.2749122606475
 20
85.94834766223934
 30
0.0
  0
VERTEX
  5
190
  8
0
 62
     0
 10
207.2749122606475
 20
85.93285569379219
 30
0.0
  0
VERTEX
  5
191
  8
0
 62
     0
 10
207.2749122606475
 20
85.91736372534506
 30
0.0
  0
VERTEX
  5
192
  8
0
 62
     0
 10
207.2800728129813
 20
85.90187175689792
 30
0.0
  0
VERTEX
  5
193
  8
0
 62
     0
 10
207.2903939176488
 20
85.8863797884508
 30
0.0
  0
VERTEX
  5
194
  8
0
 62
     0
 10
207.3007150223163
 20
85.87088782000365
 30
0.0
  0
VERTEX
  5
195
  8
0
 62
     0
 10
207.3161966793176
 20
85.86572383052128
 30
0.0
  0
VERTEX
  5
196
  8
0
 62
     0
 10
207.3213572316514
 20
85.86572383052128
 30
0.0
  0
VERTEX
  5
197
  8
0
 62
     0
 10
207.3368388886527
 20
85.86055984103889
 30
0.0
  0
VERTEX
  5
198
  8
0
 62
     0
 10
207.3419994409864
 20
85.86055984103889
 30
0.0
  0
VERTEX
  5
199
  8
0
 62
     0
 10
207.3471599933202
 20
85.86055984103889
 30
0.0
  0
SEQEND
  5
308
  8
0
 62
     0
  0
POLYLINE
  5
30
  8
0
 62
     0
 66
     1
 10
0.0
 20
0.0
 30
0.0
  0
VERTEX
  5
19A
  8
0
 62
     0
 10
207.4710132493305
 20
85.16342126091776
 30
0.0
  0
VERTEX
  5
19B
  8
0
 62
     0
 10
207.4968160109993
 20
85.16858525040013
 30
0.0
  0
VERTEX
  5
19C
  8
0
 62
     0
 10
207.5122976680007
 20
85.21506115574155
 30
0.0
  0
VERTEX
  5
19D
  8
0
 62
     0
 10
207.5174582203344
 20
85.2512090821182
 30
0.0
  0
VERTEX
  5
19E
  8
0
 62
     0
 10
207.5174582203344
 20
85.26670105056533
 30
0.0
  0
SEQEND
  5
309
  8
0
 62
     0
  0
POLYLINE
  5
31
  8
0
 62
     0
 66
     1
 10
0.0
 20
0.0
 30
0.0
  0
VERTEX
  5
19F
  8
0
 62
     0
 10
207.5639031913383
 20
85.02915753437591
 30
0.0
  0
VERTEX
  5
1A0
  8
0
 62
     0
 10
207.569063743672
 20
85.01366556592878
 30
0.0
  0
VERTEX
  5
1A1
  8
0
 62
     0
 10
207.5789324127858
 20
84.99323318324096
 30
0.0
  0
VERTEX
  5
1A2
  8
0
 62
     0
 10
207.5944140697871
 20
84.99323318324096
 30
0.0
  0
VERTEX
  5
1A3
  8
0
 62
     0
 10
207.6150562791221
 20
84.98290520427621
 30
0.0
  0
VERTEX
  5
1A4
  8
0
 62
     0
 10
207.6460195931247
 20
84.97774121479384
 30
0.0
  0
VERTEX
  5
1A5
  8
0
 62
     0
 10
207.6976251164624
 20
84.97774121479384
 30
0.0
  0
VERTEX
  5
1A6
  8
0
 62
     0
 10
207.7027856687961
 20
84.98290520427621
 30
0.0
  0
SEQEND
  5
30A
  8
0
 62
     0
  0
POLYLINE
  5
32
  8
0
 62
     0
 66
     1
 10
0.0
 20
0.0
 30
0.0
  0
VERTEX
  5
1A7
  8
0
 62
     0
 10
207.6000270576746
 20
85.04981349230542
 30
0.0
  0
VERTEX
  5
1A8
  8
0
 62
     0
 10
207.6206692670097
 20
85.06530546075257
 30
0.0
  0
VERTEX
  5
1A9
  8
0
 62
     0
 10
207.636150924011
 20
85.06014147127019
 30
0.0
  0
SEQEND
  5
30B
  8
0
 62
     0
  0
POLYLINE
  5
33
  8
0
 62
     0
 66
     1
 10
0.0
 20
0.0
 30
0.0
  0
VERTEX
  5
1AA
  8
0
 62
     0
 10
207.6516325810123
 20
85.08079742919969
 30
0.0
  0
VERTEX
  5
1AB
  8
0
 62
     0
 10
207.6619536856798
 20
85.06014147127019
 30
0.0
  0
VERTEX
  5
1AC
  8
0
 62
     0
 10
207.6722747903473
 20
85.03948551334067
 30
0.0
  0
VERTEX
  5
1AD
  8
0
 62
     0
 10
207.7083986566836
 20
85.0085015764464
 30
0.0
  0
VERTEX
  5
1AE
  8
0
 62
     0
 10
207.7079462211299
 20
84.98806919375858
 30
0.0
  0
VERTEX
  5
1AF
  8
0
 62
     0
 10
207.6718223547936
 20
84.98806919375858
 30
0.0
  0
VERTEX
  5
1B0
  8
0
 62
     0
 10
207.6202168314559
 20
84.99323318324096
 30
0.0
  0
VERTEX
  5
1B1
  8
0
 62
     0
 10
207.5944140697871
 20
84.99323318324096
 30
0.0
  0
VERTEX
  5
1B2
  8
0
 62
     0
 10
207.5793848483396
 20
85.01882955541114
 30
0.0
  0
VERTEX
  5
1B3
  8
0
 62
     0
 10
207.5587426390045
 20
85.03948551334067
 30
0.0
  0
VERTEX
  5
1B4
  8
0
 62
     0
 10
207.5639031913383
 20
85.07046945023494
 30
0.0
  0
VERTEX
  5
1B5
  8
0
 62
     0
 10
207.569063743672
 20
85.08596141868207
 30
0.0
  0
VERTEX
  5
1B6
  8
0
 62
     0
 10
207.5897059530071
 20
85.06530546075257
 30
0.0
  0
VERTEX
  5
1B7
  8
0
 62
     0
 10
207.6206692670097
 20
85.06530546075257
 30
0.0
  0
VERTEX
  5
1B8
  8
0
 62
     0
 10
207.636150924011
 20
85.07046945023494
 30
0.0
  0
SEQEND
  5
30C
  8
0
 62
     0
  0
POLYLINE
  5
34
  8
0
 62
     0
 66
     1
 10
0.0
 20
0.0
 30
0.0
  0
VERTEX
  5
1B9
  8
0
 62
     0
 10
207.5793848483396
 20
85.09628939764684
 30
0.0
  0
VERTEX
  5
1BA
  8
0
 62
     0
 10
207.5793848483396
 20
85.08596141868207
 30
0.0
  0
VERTEX
  5
1BB
  8
0
 62
     0
 10
207.5897059530071
 20
85.08079742919969
 30
0.0
  0
VERTEX
  5
1BC
  8
0
 62
     0
 10
207.6103481623421
 20
85.08079742919969
 30
0.0
  0
VERTEX
  5
1BD
  8
0
 62
     0
 10
207.6258298193434
 20
85.08079742919969
 30
0.0
  0
VERTEX
  5
1BE
  8
0
 62
     0
 10
207.6413114763448
 20
85.08079742919969
 30
0.0
  0
VERTEX
  5
1BF
  8
0
 62
     0
 10
207.6516325810123
 20
85.08079742919969
 30
0.0
  0
VERTEX
  5
1C0
  8
0
 62
     0
 10
207.6516325810123
 20
85.09112540816446
 30
0.0
  0
SEQEND
  5
30D
  8
0
 62
     0
  0
POLYLINE
  5
35
  8
0
 62
     0
 66
     1
 10
0.0
 20
0.0
 30
0.0
  0
VERTEX
  5
1C1
  8
0
 62
     0
 10
207.4452104876617
 20
85.27186504004771
 30
0.0
  0
VERTEX
  5
1C2
  8
0
 62
     0
 10
207.4555315923292
 20
85.26670105056533
 30
0.0
  0
VERTEX
  5
1C3
  8
0
 62
     0
 10
207.4658526969968
 20
85.27186504004771
 30
0.0
  0
VERTEX
  5
1C4
  8
0
 62
     0
 10
207.4813343539981
 20
85.27186504004771
 30
0.0
  0
VERTEX
  5
1C5
  8
0
 62
     0
 10
207.4864949063318
 20
85.26670105056533
 30
0.0
  0
VERTEX
  5
1C6
  8
0
 62
     0
 10
207.4864949063318
 20
85.26153706108295
 30
0.0
  0
VERTEX
  5
1C7
  8
0
 62
     0
 10
207.4710132493305
 20
85.26153706108295
 30
0.0
  0
SEQEND
  5
30E
  8
0
 62
     0
  0
POLYLINE
  5
36
  8
0
 62
     0
 66
     1
 10
0.0
 20
0.0
 30
0.0
  0
VERTEX
  5
1C8
  8
0
 62
     0
 10
207.460692144663
 20
85.30801296642437
 30
0.0
  0
VERTEX
  5
1C9
  8
0
 62
     0
 10
207.4503710399955
 20
85.29252099797722
 30
0.0
  0
VERTEX
  5
1CA
  8
0
 62
     0
 10
207.4452104876617
 20
85.27186504004771
 30
0.0
  0
VERTEX
  5
1CB
  8
0
 62
     0
 10
207.4400499353279
 20
85.2512090821182
 30
0.0
  0
VERTEX
  5
1CC
  8
0
 62
     0
 10
207.4400499353279
 20
85.23055312418867
 30
0.0
  0
VERTEX
  5
1CD
  8
0
 62
     0
 10
207.4400499353279
 20
85.19440519781203
 30
0.0
  0
VERTEX
  5
1CE
  8
0
 62
     0
 10
207.4452104876617
 20
85.17374923988251
 30
0.0
  0
VERTEX
  5
1CF
  8
0
 62
     0
 10
207.4555315923292
 20
85.16858525040013
 30
0.0
  0
VERTEX
  5
1D0
  8
0
 62
     0
 10
207.4710132493305
 20
85.16342126091776
 30
0.0
  0
VERTEX
  5
1D1
  8
0
 62
     0
 10
207.4864949063318
 20
85.1789132293649
 30
0.0
  0
VERTEX
  5
1D2
  8
0
 62
     0
 10
207.5019765633331
 20
85.21506115574155
 30
0.0
  0
VERTEX
  5
1D3
  8
0
 62
     0
 10
207.5122976680007
 20
85.25637307160058
 30
0.0
  0
VERTEX
  5
1D4
  8
0
 62
     0
 10
207.5174582203344
 20
85.27186504004771
 30
0.0
  0
VERTEX
  5
1D5
  8
0
 62
     0
 10
207.5174582203344
 20
85.29252099797722
 30
0.0
  0
VERTEX
  5
1D6
  8
0
 62
     0
 10
207.5071371156669
 20
85.31834094538912
 30
0.0
  0
SEQEND
  5
30F
  8
0
 62
     0
  0
POLYLINE
  5
37
  8
0
 62
     0
 66
     1
 10
0.0
 20
0.0
 30
0.0
  0
VERTEX
  5
1D7
  8
0
 62
     0
 10
207.5948665053409
 20
85.10145338712921
 30
0.0
  0
VERTEX
  5
1D8
  8
0
 62
     0
 10
207.6000270576746
 20
85.21506115574155
 30
0.0
  0
SEQEND
  5
310
  8
0
 62
     0
  0
POLYLINE
  5
38
  8
0
 62
     0
 66
     1
 10
0.0
 20
0.0
 30
0.0
  0
VERTEX
  5
1D9
  8
0
 62
     0
 10
207.6980775520161
 20
85.83990388310937
 30
0.0
  0
VERTEX
  5
1DA
  8
0
 62
     0
 10
207.7083986566836
 20
85.77793600932083
 30
0.0
  0
VERTEX
  5
1DB
  8
0
 62
     0
 10
207.7032381043499
 20
85.62818031433184
 30
0.0
  0
VERTEX
  5
1DC
  8
0
 62
     0
 10
207.6929169996824
 20
85.42678472451908
 30
0.0
  0
VERTEX
  5
1DD
  8
0
 62
     0
 10
207.6774353426811
 20
85.2770290295301
 30
0.0
  0
VERTEX
  5
1DE
  8
0
 62
     0
 10
207.6671142380135
 20
85.153093281953
 30
0.0
  0
VERTEX
  5
1DF
  8
0
 62
     0
 10
207.656793133346
 20
85.11178136609396
 30
0.0
  0
VERTEX
  5
1E0
  8
0
 62
     0
 10
207.6516325810123
 20
85.10145338712921
 30
0.0
  0
VERTEX
  5
1E1
  8
0
 62
     0
 10
207.6103481623421
 20
85.09112540816446
 30
0.0
  0
VERTEX
  5
1E2
  8
0
 62
     0
 10
207.5793848483396
 20
85.09628939764684
 30
0.0
  0
VERTEX
  5
1E3
  8
0
 62
     0
 10
207.569063743672
 20
85.14792929247062
 30
0.0
  0
VERTEX
  5
1E4
  8
0
 62
     0
 10
207.5742242960058
 20
85.28219301901247
 30
0.0
  0
VERTEX
  5
1E5
  8
0
 62
     0
 10
207.5793848483396
 20
85.36481685073053
 30
0.0
  0
VERTEX
  5
1E6
  8
0
 62
     0
 10
207.569063743672
 20
85.37514482969529
 30
0.0
  0
VERTEX
  5
1E7
  8
0
 62
     0
 10
207.5639031913383
 20
85.53522850364902
 30
0.0
  0
VERTEX
  5
1E8
  8
0
 62
     0
 10
207.5639031913383
 20
85.69014818812039
 30
0.0
  0
VERTEX
  5
1E9
  8
0
 62
     0
 10
207.5535820866708
 20
85.80375595673272
 30
0.0
  0
VERTEX
  5
1EA
  8
0
 62
     0
 10
207.5459498076327
 20
85.80779836197226
 30
0.0
  0
VERTEX
  5
1EB
  8
0
 62
     0
 10
207.5309310325188
 20
85.79507626911308
 30
0.0
  0
VERTEX
  5
1EC
  8
0
 62
     0
 10
207.498243110212
 20
85.6527478552509
 30
0.0
  0
SEQEND
  5
311
  8
0
 62
     0
  0
POLYLINE
  5
39
  8
0
 62
     0
 66
     1
 10
0.0
 20
0.0
 30
0.0
  0
VERTEX
  5
1ED
  8
0
 62
     0
 10
207.502507381797
 20
85.64314111076729
 30
0.0
  0
VERTEX
  5
1EE
  8
0
 62
     0
 10
207.5071371156669
 20
85.63850829329661
 30
0.0
  0
VERTEX
  5
1EF
  8
0
 62
     0
 10
207.5071371156669
 20
85.58170440899045
 30
0.0
  0
VERTEX
  5
1F0
  8
0
 62
     0
 10
207.4916554586656
 20
85.5403924931314
 30
0.0
  0
VERTEX
  5
1F1
  8
0
 62
     0
 10
207.5019765633331
 20
85.48875259830763
 30
0.0
  0
VERTEX
  5
1F2
  8
0
 62
     0
 10
207.5019765633331
 20
85.44744068244859
 30
0.0
  0
VERTEX
  5
1F3
  8
0
 62
     0
 10
207.5071371156669
 20
85.32866892435388
 30
0.0
  0
VERTEX
  5
1F4
  8
0
 62
     0
 10
207.4761738016643
 20
85.30801296642437
 30
0.0
  0
VERTEX
  5
1F5
  8
0
 62
     0
 10
207.460692144663
 20
85.30801296642437
 30
0.0
  0
VERTEX
  5
1F6
  8
0
 62
     0
 10
207.4348893829942
 20
85.40096477710719
 30
0.0
  0
VERTEX
  5
1F7
  8
0
 62
     0
 10
207.3987655166578
 20
85.49391658779
 30
0.0
  0
VERTEX
  5
1F8
  8
0
 62
     0
 10
207.3781233073228
 20
85.57137643002568
 30
0.0
  0
VERTEX
  5
1F9
  8
0
 62
     0
 10
207.3832838596566
 20
85.62818031433184
 30
0.0
  0
VERTEX
  5
1FA
  8
0
 62
     0
 10
207.3832838596566
 20
85.62818031433184
 30
0.0
  0
VERTEX
  5
1FB
  8
0
 62
     0
 10
207.372962754989
 20
85.74178808294418
 30
0.0
  0
VERTEX
  5
1FC
  8
0
 62
     0
 10
207.372962754989
 20
85.85023186207414
 30
0.0
  0
SEQEND
  5
312
  8
0
 62
     0
  0
POLYLINE
  5
3A
  8
0
 62
     0
 66
     1
 10
0.0
 20
0.0
 30
0.0
  0
VERTEX
  5
1FD
  8
0
 62
     0
 10
207.7393619706862
 20
85.69531217760277
 30
0.0
  0
VERTEX
  5
1FE
  8
0
 62
     0
 10
207.74452252302
 20
85.41129275607194
 30
0.0
  0
VERTEX
  5
1FF
  8
0
 62
     0
 10
207.811609703359
 20
85.41129275607194
 30
0.0
  0
VERTEX
  5
200
  8
0
 62
     0
 10
207.8374124650277
 20
85.43194871400146
 30
0.0
  0
VERTEX
  5
201
  8
0
 62
     0
 10
207.8374124650277
 20
85.71080414604991
 30
0.0
  0
VERTEX
  5
202
  8
0
 62
     0
 10
207.811609703359
 20
85.69531217760277
 30
0.0
  0
VERTEX
  5
203
  8
0
 62
     0
 10
207.811609703359
 20
85.41645674555431
 30
0.0
  0
SEQEND
  5
313
  8
0
 62
     0
  0
POLYLINE
  5
3B
  8
0
 62
     0
 66
     1
 10
0.0
 20
0.0
 30
0.0
  0
VERTEX
  5
204
  8
0
 62
     0
 10
207.4658526969968
 20
86.51122251581862
 30
0.0
  0
VERTEX
  5
205
  8
0
 62
     0
 10
207.4658526969968
 20
86.50871856786705
 30
0.0
  0
SEQEND
  5
314
  8
0
 62
     0
  0
POLYLINE
  5
3C
  8
0
 62
     0
 66
     1
 10
0.0
 20
0.0
 30
0.0
  0
VERTEX
  5
206
  8
0
 62
     0
 10
207.4924278931041
 20
86.40247597891337
 30
0.0
  0
VERTEX
  5
207
  8
0
 62
     0
 10
207.4996174116725
 20
86.44589686309445
 30
0.0
  0
VERTEX
  5
208
  8
0
 62
     0
 10
207.5057798561596
 20
86.460678440688
 30
0.0
  0
VERTEX
  5
209
  8
0
 62
     0
 10
207.5211859673775
 20
86.45790689488922
 30
0.0
  0
VERTEX
  5
20A
  8
0
 62
     0
 10
207.5304296341083
 20
86.43296298270009
 30
0.0
  0
VERTEX
  5
20B
  8
0
 62
     0
 10
207.5365920785954
 20
86.36182664053109
 30
0.0
  0
VERTEX
  5
20C
  8
0
 62
     0
 10
207.5365920785954
 20
86.33595887974238
 30
0.0
  0
SEQEND
  5
315
  8
0
 62
     0
  0
POLYLINE
  5
3D
  8
0
 62
     0
 66
     1
 10
0.0
 20
0.0
 30
0.0
  0
VERTEX
  5
20D
  8
0
 62
     0
 10
207.4955091153477
 20
86.48562235287713
 30
0.0
  0
VERTEX
  5
20E
  8
0
 62
     0
 10
207.5068069302408
 20
86.46252613788721
 30
0.0
  0
VERTEX
  5
20F
  8
0
 62
     0
 10
207.5211859673775
 20
86.460678440688
 30
0.0
  0
VERTEX
  5
210
  8
0
 62
     0
 10
207.5335108563518
 20
86.47268847248276
 30
0.0
  0
VERTEX
  5
211
  8
0
 62
     0
 10
207.5365920785954
 20
86.48285080707834
 30
0.0
  0
SEQEND
  5
316
  8
0
 62
     0
  0
POLYLINE
  5
3E
  8
0
 62
     0
 66
     1
 10
0.0
 20
0.0
 30
0.0
  0
VERTEX
  5
212
  8
0
 62
     0
 10
207.3127148021323
 20
86.40987173904637
 30
0.0
  0
VERTEX
  5
213
  8
0
 62
     0
 10
207.3110361269839
 20
86.4182707051358
 30
0.0
  0
VERTEX
  5
214
  8
0
 62
     0
 10
207.3110361269839
 20
86.43892666306532
 30
0.0
  0
VERTEX
  5
215
  8
0
 62
     0
 10
207.3161966793176
 20
86.44925464203007
 30
0.0
  0
VERTEX
  5
216
  8
0
 62
     0
 10
207.3161966793176
 20
86.44925464203007
 30
0.0
  0
VERTEX
  5
217
  8
0
 62
     0
 10
207.3316783363189
 20
86.45441863151245
 30
0.0
  0
VERTEX
  5
218
  8
0
 62
     0
 10
207.352320545654
 20
86.45958262099484
 30
0.0
  0
VERTEX
  5
219
  8
0
 62
     0
 10
207.3832838596566
 20
86.46991059995959
 30
0.0
  0
VERTEX
  5
21A
  8
0
 62
     0
 10
207.3987655166578
 20
86.47507458944196
 30
0.0
  0
VERTEX
  5
21B
  8
0
 62
     0
 10
207.4194077259929
 20
86.48540256840673
 30
0.0
  0
VERTEX
  5
21C
  8
0
 62
     0
 10
207.4348893829942
 20
86.49056655788911
 30
0.0
  0
SEQEND
  5
317
  8
0
 62
     0
  0
POLYLINE
  5
3F
  8
0
 62
     0
 66
     1
 10
0.0
 20
0.0
 30
0.0
  0
VERTEX
  5
21D
  8
0
 62
     0
 10
207.4555883584049
 20
86.5632135619272
 30
0.0
  0
VERTEX
  5
21E
  8
0
 62
     0
 10
207.4741338353268
 20
86.56939950492816
 30
0.0
  0
VERTEX
  5
21F
  8
0
 62
     0
 10
207.4988611378892
 20
86.57558544792909
 30
0.0
  0
SEQEND
  5
318
  8
0
 62
     0
  0
POLYLINE
  5
40
  8
0
 62
     0
 66
     1
 10
0.0
 20
0.0
 30
0.0
  0
VERTEX
  5
220
  8
0
 62
     0
 10
207.5050429635298
 20
86.64363082093945
 30
0.0
  0
VERTEX
  5
221
  8
0
 62
     0
 10
207.4741338353268
 20
86.6498167639404
 30
0.0
  0
SEQEND
  5
319
  8
0
 62
     0
  0
POLYLINE
  5
41
  8
0
 62
     0
 66
     1
 10
0.0
 20
0.0
 30
0.0
  0
VERTEX
  5
222
  8
0
 62
     0
 10
207.5235884404517
 20
86.66218864994228
 30
0.0
  0
VERTEX
  5
223
  8
0
 62
     0
 10
207.5112247891705
 20
86.66837459294322
 30
0.0
  0
VERTEX
  5
224
  8
0
 62
     0
 10
207.4926793122486
 20
86.67456053594415
 30
0.0
  0
VERTEX
  5
225
  8
0
 62
     0
 10
207.486497486608
 20
86.67456053594415
 30
0.0
  0
VERTEX
  5
226
  8
0
 62
     0
 10
207.4741338353268
 20
86.67456053594415
 30
0.0
  0
SEQEND
  5
31A
  8
0
 62
     0
  0
POLYLINE
  5
42
  8
0
 62
     0
 66
     1
 10
0.0
 20
0.0
 30
0.0
  0
VERTEX
  5
227
  8
0
 62
     0
 10
207.6595886045452
 20
86.6807464789451
 30
0.0
  0
VERTEX
  5
228
  8
0
 62
     0
 10
207.6163158250609
 20
86.68693242194604
 30
0.0
  0
VERTEX
  5
229
  8
0
 62
     0
 10
207.5730430455766
 20
86.69930430794793
 30
0.0
  0
VERTEX
  5
22A
  8
0
 62
     0
 10
207.5112247891705
 20
86.71167619394981
 30
0.0
  0
VERTEX
  5
22B
  8
0
 62
     0
 10
207.4988611378892
 20
86.71786213695074
 30
0.0
  0
SEQEND
  5
31B
  8
0
 62
     0
  0
POLYLINE
  5
43
  8
0
 62
     0
 66
     1
 10
0.0
 20
0.0
 30
0.0
  0
VERTEX
  5
22C
  8
0
 62
     0
 10
207.4555883584049
 20
86.74260590895452
 30
0.0
  0
VERTEX
  5
22D
  8
0
 62
     0
 10
207.486497486608
 20
86.74260590895452
 30
0.0
  0
VERTEX
  5
22E
  8
0
 62
     0
 10
207.5421339173735
 20
86.73023402295263
 30
0.0
  0
VERTEX
  5
22F
  8
0
 62
     0
 10
207.6101339994203
 20
86.70549025094886
 30
0.0
  0
VERTEX
  5
230
  8
0
 62
     0
 10
207.6595886045452
 20
86.69311836494698
 30
0.0
  0
SEQEND
  5
31C
  8
0
 62
     0
  0
POLYLINE
  5
44
  8
0
 62
     0
 66
     1
 10
0.0
 20
0.0
 30
0.0
  0
VERTEX
  5
231
  8
0
 62
     0
 10
207.4679520096861
 20
86.65600270694134
 30
0.0
  0
VERTEX
  5
232
  8
0
 62
     0
 10
207.4617701840455
 20
86.64363082093945
 30
0.0
  0
VERTEX
  5
233
  8
0
 62
     0
 10
207.4494065327643
 20
86.63125893493756
 30
0.0
  0
SEQEND
  5
31D
  8
0
 62
     0
  0
POLYLINE
  5
45
  8
0
 62
     0
 66
     1
 10
0.0
 20
0.0
 30
0.0
  0
VERTEX
  5
234
  8
0
 62
     0
 10
207.4617701840455
 20
86.60032921993286
 30
0.0
  0
VERTEX
  5
235
  8
0
 62
     0
 10
207.4432247071237
 20
86.60651516293379
 30
0.0
  0
SEQEND
  5
31E
  8
0
 62
     0
  0
POLYLINE
  5
46
  8
0
 62
     0
 66
     1
 10
0.0
 20
0.0
 30
0.0
  0
VERTEX
  5
236
  8
0
 62
     0
 10
207.5792248712172
 20
86.54465573292438
 30
0.0
  0
VERTEX
  5
237
  8
0
 62
     0
 10
207.4988611378892
 20
86.52609790392157
 30
0.0
  0
VERTEX
  5
238
  8
0
 62
     0
 10
207.4679520096861
 20
86.52609790392157
 30
0.0
  0
VERTEX
  5
239
  8
0
 62
     0
 10
207.4555883584049
 20
86.54465573292438
 30
0.0
  0
VERTEX
  5
23A
  8
0
 62
     0
 10
207.4494065327643
 20
86.56939950492816
 30
0.0
  0
VERTEX
  5
23B
  8
0
 62
     0
 10
207.4432247071237
 20
86.60032921993286
 30
0.0
  0
VERTEX
  5
23C
  8
0
 62
     0
 10
207.4370428814831
 20
86.60032921993286
 30
0.0
  0
VERTEX
  5
23D
  8
0
 62
     0
 10
207.4555883584049
 20
86.6498167639404
 30
0.0
  0
VERTEX
  5
23E
  8
0
 62
     0
 10
207.4494065327643
 20
86.66218864994228
 30
0.0
  0
VERTEX
  5
23F
  8
0
 62
     0
 10
207.4617701840455
 20
86.66837459294322
 30
0.0
  0
VERTEX
  5
240
  8
0
 62
     0
 10
207.4494065327643
 20
86.6807464789451
 30
0.0
  0
SEQEND
  5
31F
  8
0
 62
     0
  0
POLYLINE
  5
47
  8
0
 62
     0
 66
     1
 10
0.0
 20
0.0
 30
0.0
  0
VERTEX
  5
241
  8
0
 62
     0
 10
207.6039715549331
 20
86.52609790392157
 30
0.0
  0
VERTEX
  5
242
  8
0
 62
     0
 10
207.6101339994203
 20
86.53846978992345
 30
0.0
  0
VERTEX
  5
243
  8
0
 62
     0
 10
207.6101339994203
 20
86.55702761892627
 30
0.0
  0
VERTEX
  5
244
  8
0
 62
     0
 10
207.6163158250609
 20
86.56939950492816
 30
0.0
  0
VERTEX
  5
245
  8
0
 62
     0
 10
207.6163158250609
 20
86.58177139093004
 30
0.0
  0
VERTEX
  5
246
  8
0
 62
     0
 10
207.6286794763421
 20
86.59414327693192
 30
0.0
  0
VERTEX
  5
247
  8
0
 62
     0
 10
207.6410431276234
 20
86.60032921993286
 30
0.0
  0
VERTEX
  5
248
  8
0
 62
     0
 10
207.647224953264
 20
86.62507299193662
 30
0.0
  0
VERTEX
  5
249
  8
0
 62
     0
 10
207.647224953264
 20
86.6374448779385
 30
0.0
  0
VERTEX
  5
24A
  8
0
 62
     0
 10
207.647224953264
 20
86.6498167639404
 30
0.0
  0
SEQEND
  5
320
  8
0
 62
     0
  0
POLYLINE
  5
48
  8
0
 62
     0
 66
     1
 10
0.0
 20
0.0
 30
0.0
  0
VERTEX
  5
24B
  8
0
 62
     0
 10
207.5483157430141
 20
86.6807464789451
 30
0.0
  0
VERTEX
  5
24C
  8
0
 62
     0
 10
207.5606793942954
 20
86.6807464789451
 30
0.0
  0
VERTEX
  5
24D
  8
0
 62
     0
 10
207.566861219936
 20
86.66837459294322
 30
0.0
  0
VERTEX
  5
24E
  8
0
 62
     0
 10
207.5792248712172
 20
86.66837459294322
 30
0.0
  0
VERTEX
  5
24F
  8
0
 62
     0
 10
207.5854066968578
 20
86.65600270694134
 30
0.0
  0
VERTEX
  5
250
  8
0
 62
     0
 10
207.5915885224985
 20
86.65600270694134
 30
0.0
  0
VERTEX
  5
251
  8
0
 62
     0
 10
207.5977703481391
 20
86.64363082093945
 30
0.0
  0
VERTEX
  5
252
  8
0
 62
     0
 10
207.6039521737797
 20
86.6374448779385
 30
0.0
  0
SEQEND
  5
321
  8
0
 62
     0
  0
POLYLINE
  5
49
  8
0
 62
     0
 66
     1
 10
0.0
 20
0.0
 30
0.0
  0
VERTEX
  5
253
  8
0
 62
     0
 10
207.4864949063318
 20
86.51122251581862
 30
0.0
  0
VERTEX
  5
254
  8
0
 62
     0
 10
207.4916554586656
 20
86.50605852633623
 30
0.0
  0
VERTEX
  5
255
  8
0
 62
     0
 10
207.5019765633331
 20
86.50089453685386
 30
0.0
  0
VERTEX
  5
256
  8
0
 62
     0
 10
207.5071371156669
 20
86.4957305473715
 30
0.0
  0
VERTEX
  5
257
  8
0
 62
     0
 10
207.5174582203344
 20
86.4957305473715
 30
0.0
  0
VERTEX
  5
258
  8
0
 62
     0
 10
207.5277793250019
 20
86.50089453685386
 30
0.0
  0
VERTEX
  5
259
  8
0
 62
     0
 10
207.5381004296694
 20
86.50605852633623
 30
0.0
  0
VERTEX
  5
25A
  8
0
 62
     0
 10
207.548421534337
 20
86.50605852633623
 30
0.0
  0
VERTEX
  5
25B
  8
0
 62
     0
 10
207.5639031913383
 20
86.51122251581862
 30
0.0
  0
VERTEX
  5
25C
  8
0
 62
     0
 10
207.5742242960058
 20
86.516386505301
 30
0.0
  0
VERTEX
  5
25D
  8
0
 62
     0
 10
207.5845454006733
 20
86.52155049478338
 30
0.0
  0
VERTEX
  5
25E
  8
0
 62
     0
 10
207.5897059530071
 20
86.52155049478338
 30
0.0
  0
VERTEX
  5
25F
  8
0
 62
     0
 10
207.5948665053409
 20
86.51122251581862
 30
0.0
  0
VERTEX
  5
260
  8
0
 62
     0
 10
207.5948665053409
 20
86.50089453685386
 30
0.0
  0
VERTEX
  5
261
  8
0
 62
     0
 10
207.6000270576746
 20
86.49056655788911
 30
0.0
  0
VERTEX
  5
262
  8
0
 62
     0
 10
207.6000270576746
 20
86.48540256840673
 30
0.0
  0
VERTEX
  5
263
  8
0
 62
     0
 10
207.5897059530071
 20
86.48540256840673
 30
0.0
  0
VERTEX
  5
264
  8
0
 62
     0
 10
207.5742242960058
 20
86.47507458944196
 30
0.0
  0
VERTEX
  5
265
  8
0
 62
     0
 10
207.569063743672
 20
86.47507458944196
 30
0.0
  0
VERTEX
  5
266
  8
0
 62
     0
 10
207.5587426390045
 20
86.47507458944196
 30
0.0
  0
VERTEX
  5
267
  8
0
 62
     0
 10
207.5535820866708
 20
86.47507458944196
 30
0.0
  0
VERTEX
  5
268
  8
0
 62
     0
 10
207.5432609820032
 20
86.48023857892434
 30
0.0
  0
VERTEX
  5
269
  8
0
 62
     0
 10
207.5277793250019
 20
86.48540256840673
 30
0.0
  0
VERTEX
  5
26A
  8
0
 62
     0
 10
207.5226187726682
 20
86.49056655788911
 30
0.0
  0
VERTEX
  5
26B
  8
0
 62
     0
 10
207.5071371156669
 20
86.49056655788911
 30
0.0
  0
VERTEX
  5
26C
  8
0
 62
     0
 10
207.5019765633331
 20
86.49056655788911
 30
0.0
  0
VERTEX
  5
26D
  8
0
 62
     0
 10
207.4916554586656
 20
86.48540256840673
 30
0.0
  0
VERTEX
  5
26E
  8
0
 62
     0
 10
207.4813343539981
 20
86.47507458944196
 30
0.0
  0
VERTEX
  5
26F
  8
0
 62
     0
 10
207.4761738016643
 20
86.47507458944196
 30
0.0
  0
VERTEX
  5
270
  8
0
 62
     0
 10
207.4710132493305
 20
86.48023857892434
 30
0.0
  0
VERTEX
  5
271
  8
0
 62
     0
 10
207.4710132493305
 20
86.49056655788911
 30
0.0
  0
VERTEX
  5
272
  8
0
 62
     0
 10
207.4710132493305
 20
86.50089453685386
 30
0.0
  0
VERTEX
  5
273
  8
0
 62
     0
 10
207.4710132493305
 20
86.51122251581862
 30
0.0
  0
VERTEX
  5
274
  8
0
 62
     0
 10
207.4710132493305
 20
86.51122251581862
 30
0.0
  0
SEQEND
  5
322
  8
0
 62
     0
  0
POLYLINE
  5
4A
  8
0
 62
     0
 66
     1
 10
0.0
 20
0.0
 30
0.0
 70
     1
  0
VERTEX
  5
275
  8
0
 62
     0
 10
207.4741338353268
 20
86.79209345296204
 30
0.0
  0
VERTEX
  5
276
  8
0
 62
     0
 10
207.5050429635298
 20
86.798279395963
 30
0.0
  0
VERTEX
  5
277
  8
0
 62
     0
 10
207.5359520917329
 20
86.798279395963
 30
0.0
  0
VERTEX
  5
278
  8
0
 62
     0
 10
207.5915885224985
 20
86.7859075099611
 30
0.0
  0
VERTEX
  5
279
  8
0
 62
     0
 10
207.6348613019828
 20
86.76734968095828
 30
0.0
  0
VERTEX
  5
27A
  8
0
 62
     0
 10
207.6534067789046
 20
86.7549777949564
 30
0.0
  0
VERTEX
  5
27B
  8
0
 62
     0
 10
207.6595886045452
 20
86.68693242194604
 30
0.0
  0
VERTEX
  5
27C
  8
0
 62
     0
 10
207.6719522558265
 20
86.6807464789451
 30
0.0
  0
VERTEX
  5
27D
  8
0
 62
     0
 10
207.6781340814671
 20
86.66837459294322
 30
0.0
  0
VERTEX
  5
27E
  8
0
 62
     0
 10
207.6966795583889
 20
86.66218864994228
 30
0.0
  0
VERTEX
  5
27F
  8
0
 62
     0
 10
207.7028613840295
 20
86.65600270694134
 30
0.0
  0
VERTEX
  5
280
  8
0
 62
     0
 10
207.7214068609514
 20
86.65600270694134
 30
0.0
  0
VERTEX
  5
281
  8
0
 62
     0
 10
207.7028613840295
 20
86.6498167639404
 30
0.0
  0
VERTEX
  5
282
  8
0
 62
     0
 10
207.6719522558265
 20
86.6498167639404
 30
0.0
  0
VERTEX
  5
283
  8
0
 62
     0
 10
207.6534067789046
 20
86.6498167639404
 30
0.0
  0
VERTEX
  5
284
  8
0
 62
     0
 10
207.6286794763421
 20
86.65600270694134
 30
0.0
  0
VERTEX
  5
285
  8
0
 62
     0
 10
207.6101339994203
 20
86.66837459294322
 30
0.0
  0
VERTEX
  5
286
  8
0
 62
     0
 10
207.5854066968578
 20
86.67456053594415
 30
0.0
  0
VERTEX
  5
287
  8
0
 62
     0
 10
207.5421339173735
 20
86.68693242194604
 30
0.0
  0
VERTEX
  5
288
  8
0
 62
     0
 10
207.4988611378892
 20
86.68693242194604
 30
0.0
  0
VERTEX
  5
289
  8
0
 62
     0
 10
207.4803156609674
 20
86.68693242194604
 30
0.0
  0
VERTEX
  5
28A
  8
0
 62
     0
 10
207.4555883584049
 20
86.68693242194604
 30
0.0
  0
VERTEX
  5
28B
  8
0
 62
     0
 10
207.4432247071237
 20
86.68693242194604
 30
0.0
  0
VERTEX
  5
28C
  8
0
 62
     0
 10
207.4184974045612
 20
86.68693242194604
 30
0.0
  0
VERTEX
  5
28D
  8
0
 62
     0
 10
207.3999519276394
 20
86.68693242194604
 30
0.0
  0
VERTEX
  5
28E
  8
0
 62
     0
 10
207.3937701019988
 20
86.68693242194604
 30
0.0
  0
VERTEX
  5
28F
  8
0
 62
     0
 10
207.40613375328
 20
86.69930430794793
 30
0.0
  0
VERTEX
  5
290
  8
0
 62
     0
 10
207.4184974045612
 20
86.69930430794793
 30
0.0
  0
VERTEX
  5
291
  8
0
 62
     0
 10
207.4370428814831
 20
86.71167619394981
 30
0.0
  0
VERTEX
  5
292
  8
0
 62
     0
 10
207.4432247071237
 20
86.71786213695074
 30
0.0
  0
VERTEX
  5
293
  8
0
 62
     0
 10
207.4617701840455
 20
86.71786213695074
 30
0.0
  0
VERTEX
  5
294
  8
0
 62
     0
 10
207.4741338353268
 20
86.71786213695074
 30
0.0
  0
VERTEX
  5
295
  8
0
 62
     0
 10
207.4803156609674
 20
86.71167619394981
 30
0.0
  0
VERTEX
  5
296
  8
0
 62
     0
 10
207.4926793122486
 20
86.71167619394981
 30
0.0
  0
VERTEX
  5
297
  8
0
 62
     0
 10
207.4926793122486
 20
86.71167619394981
 30
0.0
  0
VERTEX
  5
298
  8
0
 62
     0
 10
207.4926793122486
 20
86.71786213695074
 30
0.0
  0
VERTEX
  5
299
  8
0
 62
     0
 10
207.4803156609674
 20
86.71786213695074
 30
0.0
  0
VERTEX
  5
29A
  8
0
 62
     0
 10
207.4555883584049
 20
86.71786213695074
 30
0.0
  0
VERTEX
  5
29B
  8
0
 62
     0
 10
207.4494065327643
 20
86.7240480799517
 30
0.0
  0
VERTEX
  5
29C
  8
0
 62
     0
 10
207.4494065327643
 20
86.73023402295263
 30
0.0
  0
VERTEX
  5
29D
  8
0
 62
     0
 10
207.4555883584049
 20
86.7549777949564
 30
0.0
  0
VERTEX
  5
29E
  8
0
 62
     0
 10
207.4617701840455
 20
86.77353562395922
 30
0.0
  0
VERTEX
  5
29F
  8
0
 62
     0
 10
207.4679520096861
 20
86.79209345296204
 30
0.0
  0
SEQEND
  5
323
  8
0
 62
     0
  0
POLYLINE
  5
4B
  8
0
 62
     0
 66
     1
 10
0.0
 20
0.0
 30
0.0
  0
VERTEX
  5
2A0
  8
0
 62
     0
 10
207.5122976680007
 20
86.14457926256972
 30
0.0
  0
VERTEX
  5
2A1
  8
0
 62
     0
 10
207.5019765633331
 20
86.1497432520521
 30
0.0
  0
VERTEX
  5
2A2
  8
0
 62
     0
 10
207.4968160109993
 20
86.13941527308734
 30
0.0
  0
VERTEX
  5
2A3
  8
0
 62
     0
 10
207.4968160109993
 20
86.11875931515783
 30
0.0
  0
VERTEX
  5
2A4
  8
0
 62
     0
 10
207.5071371156669
 20
86.11359532567545
 30
0.0
  0
VERTEX
  5
2A5
  8
0
 62
     0
 10
207.5071371156669
 20
86.11359532567545
 30
0.0
  0
VERTEX
  5
2A6
  8
0
 62
     0
 10
207.5122976680007
 20
86.12392330464021
 30
0.0
  0
SEQEND
  5
324
  8
0
 62
     0
  0
POLYLINE
  5
4C
  8
0
 62
     0
 66
     1
 10
0.0
 20
0.0
 30
0.0
  0
VERTEX
  5
2A7
  8
0
 62
     0
 10
207.4688051892367
 20
86.51149011366584
 30
0.0
  0
VERTEX
  5
2A8
  8
0
 62
     0
 10
207.437992966801
 20
86.49948008187108
 30
0.0
  0
VERTEX
  5
2A9
  8
0
 62
     0
 10
207.4256680778267
 20
86.44404916589525
 30
0.0
  0
VERTEX
  5
2AA
  8
0
 62
     0
 10
207.4462095594505
 20
86.44035377149686
 30
0.0
  0
VERTEX
  5
2AB
  8
0
 62
     0
 10
207.4482637076129
 20
86.43758222569807
 30
0.0
  0
VERTEX
  5
2AC
  8
0
 62
     0
 10
207.4318305223138
 20
86.42372449670412
 30
0.0
  0
VERTEX
  5
2AD
  8
0
 62
     0
 10
207.4451824853693
 20
86.37845591532385
 30
0.0
  0
VERTEX
  5
2AE
  8
0
 62
     0
 10
207.4934549671854
 20
86.2620509917746
 30
0.0
  0
VERTEX
  5
2AF
  8
0
 62
     0
 10
207.5119423006468
 20
86.17613307201206
 30
0.0
  0
SEQEND
  5
325
  8
0
 62
     0
  0
POLYLINE
  5
4D
  8
0
 62
     0
 66
     1
 10
0.0
 20
0.0
 30
0.0
  0
VERTEX
  5
2B0
  8
0
 62
     0
 10
207.6489761482293
 20
86.4776819866297
 30
0.0
  0
VERTEX
  5
2B1
  8
0
 62
     0
 10
207.656793133346
 20
86.47507458944196
 30
0.0
  0
VERTEX
  5
2B2
  8
0
 62
     0
 10
207.6774353426811
 20
86.4647466104772
 30
0.0
  0
VERTEX
  5
2B3
  8
0
 62
     0
 10
207.6980775520161
 20
86.45958262099484
 30
0.0
  0
VERTEX
  5
2B4
  8
0
 62
     0
 10
207.7279634280819
 20
86.44963374414527
 30
0.0
  0
VERTEX
  5
2B5
  8
0
 62
     0
 10
207.7496830753538
 20
86.43892666306532
 30
0.0
  0
VERTEX
  5
2B6
  8
0
 62
     0
 10
207.7713775406978
 20
86.43430742006733
 30
0.0
  0
VERTEX
  5
2B7
  8
0
 62
     0
 10
207.7868591976991
 20
86.42914343058496
 30
0.0
  0
VERTEX
  5
2B8
  8
0
 62
     0
 10
207.7961280463576
 20
86.41310671565341
 30
0.0
  0
VERTEX
  5
2B9
  8
0
 62
     0
 10
207.8064491510252
 20
86.3924507577239
 30
0.0
  0
VERTEX
  5
2BA
  8
0
 62
     0
 10
207.8207783907776
 20
86.21856899470392
 30
0.0
  0
SEQEND
  5
326
  8
0
 62
     0
  0
POLYLINE
  5
4E
  8
0
 62
     0
 66
     1
 10
0.0
 20
0.0
 30
0.0
  0
VERTEX
  5
2BB
  8
0
 62
     0
 10
207.4767243894415
 20
86.47287077147294
 30
0.0
  0
VERTEX
  5
2BC
  8
0
 62
     0
 10
207.4813343539981
 20
86.45441863151245
 30
0.0
  0
VERTEX
  5
2BD
  8
0
 62
     0
 10
207.4813343539981
 20
86.42859868410056
 30
0.0
  0
VERTEX
  5
2BE
  8
0
 62
     0
 10
207.4916554586656
 20
86.40277873668867
 30
0.0
  0
VERTEX
  5
2BF
  8
0
 62
     0
 10
207.4968160109993
 20
86.3717947997944
 30
0.0
  0
VERTEX
  5
2C0
  8
0
 62
     0
 10
207.5019765633331
 20
86.33564687341774
 30
0.0
  0
VERTEX
  5
2C1
  8
0
 62
     0
 10
207.5071371156669
 20
86.30466293652347
 30
0.0
  0
VERTEX
  5
2C2
  8
0
 62
     0
 10
207.5122976680007
 20
86.2736789996292
 30
0.0
  0
VERTEX
  5
2C3
  8
0
 62
     0
 10
207.5122976680007
 20
86.25302304169968
 30
0.0
  0
VERTEX
  5
2C4
  8
0
 62
     0
 10
207.5122976680007
 20
86.22720309428779
 30
0.0
  0
VERTEX
  5
2C5
  8
0
 62
     0
 10
207.5174582203344
 20
86.20138314687588
 30
0.0
  0
VERTEX
  5
2C6
  8
0
 62
     0
 10
207.5174582203344
 20
86.18072718894638
 30
0.0
  0
VERTEX
  5
2C7
  8
0
 62
     0
 10
207.5174582203344
 20
86.16007123101687
 30
0.0
  0
VERTEX
  5
2C8
  8
0
 62
     0
 10
207.5226187726682
 20
86.18072718894638
 30
0.0
  0
VERTEX
  5
2C9
  8
0
 62
     0
 10
207.5277793250019
 20
86.19621915739351
 30
0.0
  0
VERTEX
  5
2CA
  8
0
 62
     0
 10
207.5329398773357
 20
86.2220391048054
 30
0.0
  0
VERTEX
  5
2CB
  8
0
 62
     0
 10
207.5535820866708
 20
86.24785905221731
 30
0.0
  0
VERTEX
  5
2CC
  8
0
 62
     0
 10
207.5639031913383
 20
86.27884298911158
 30
0.0
  0
VERTEX
  5
2CD
  8
0
 62
     0
 10
207.5948665053409
 20
86.31499091548824
 30
0.0
  0
VERTEX
  5
2CE
  8
0
 62
     0
 10
207.6103481623421
 20
86.3459748523825
 30
0.0
  0
VERTEX
  5
2CF
  8
0
 62
     0
 10
207.6258298193434
 20
86.37695878927677
 30
0.0
  0
VERTEX
  5
2D0
  8
0
 62
     0
 10
207.6413114763448
 20
86.40277873668867
 30
0.0
  0
VERTEX
  5
2D1
  8
0
 62
     0
 10
207.6309903716772
 20
86.41310671565341
 30
0.0
  0
VERTEX
  5
2D2
  8
0
 62
     0
 10
207.6258298193434
 20
86.42343469461818
 30
0.0
  0
VERTEX
  5
2D3
  8
0
 62
     0
 10
207.636150924011
 20
86.42859868410056
 30
0.0
  0
VERTEX
  5
2D4
  8
0
 62
     0
 10
207.6464720286785
 20
86.43892666306532
 30
0.0
  0
VERTEX
  5
2D5
  8
0
 62
     0
 10
207.6413114763448
 20
86.44925464203007
 30
0.0
  0
VERTEX
  5
2D6
  8
0
 62
     0
 10
207.6413114763448
 20
86.47507458944196
 30
0.0
  0
VERTEX
  5
2D7
  8
0
 62
     0
 10
207.6464720286785
 20
86.49056655788911
 30
0.0
  0
VERTEX
  5
2D8
  8
0
 62
     0
 10
207.6309903716772
 20
86.50605852633623
 30
0.0
  0
VERTEX
  5
2D9
  8
0
 62
     0
 10
207.6206692670097
 20
86.51122251581862
 30
0.0
  0
VERTEX
  5
2DA
  8
0
 62
     0
 10
207.6051876100084
 20
86.52155049478338
 30
0.0
  0
VERTEX
  5
2DB
  8
0
 62
     0
 10
207.5948665053409
 20
86.52155049478338
 30
0.0
  0
SEQEND
  5
327
  8
0
 62
     0
  0
POLYLINE
  5
4F
  8
0
 62
     0
 66
     1
 10
0.0
 20
0.0
 30
0.0
  0
VERTEX
  5
2DC
  8
0
 62
     0
 10
207.6000270576746
 20
86.4957305473715
 30
0.0
  0
VERTEX
  5
2DD
  8
0
 62
     0
 10
207.6000270576746
 20
86.48540256840673
 30
0.0
  0
VERTEX
  5
2DE
  8
0
 62
     0
 10
207.5948665053409
 20
86.4647466104772
 30
0.0
  0
VERTEX
  5
2DF
  8
0
 62
     0
 10
207.5897059530071
 20
86.44925464203007
 30
0.0
  0
VERTEX
  5
2E0
  8
0
 62
     0
 10
207.5742242960058
 20
86.42343469461818
 30
0.0
  0
VERTEX
  5
2E1
  8
0
 62
     0
 10
207.5639031913383
 20
86.40277873668867
 30
0.0
  0
VERTEX
  5
2E2
  8
0
 62
     0
 10
207.548421534337
 20
86.36663081031202
 30
0.0
  0
VERTEX
  5
2E3
  8
0
 62
     0
 10
207.5432609820032
 20
86.35113884186488
 30
0.0
  0
VERTEX
  5
2E4
  8
0
 62
     0
 10
207.5329398773357
 20
86.31499091548824
 30
0.0
  0
VERTEX
  5
2E5
  8
0
 62
     0
 10
207.5277793250019
 20
86.28917096807633
 30
0.0
  0
VERTEX
  5
2E6
  8
0
 62
     0
 10
207.5174582203344
 20
86.26851501014681
 30
0.0
  0
SEQEND
  5
328
  8
0
 62
     0
  0
POLYLINE
  5
50
  8
0
 62
     0
 66
     1
 10
0.0
 20
0.0
 30
0.0
  0
VERTEX
  5
2E7
  8
0
 62
     0
 10
207.3626416503215
 20
86.29949894704109
 30
0.0
  0
VERTEX
  5
2E8
  8
0
 62
     0
 10
207.3781233073228
 20
86.29949894704109
 30
0.0
  0
VERTEX
  5
2E9
  8
0
 62
     0
 10
207.3936049643241
 20
86.2943349575587
 30
0.0
  0
VERTEX
  5
2EA
  8
0
 62
     0
 10
207.4194077259929
 20
86.2943349575587
 30
0.0
  0
VERTEX
  5
2EB
  8
0
 62
     0
 10
207.4400499353279
 20
86.2943349575587
 30
0.0
  0
VERTEX
  5
2EC
  8
0
 62
     0
 10
207.4503710399955
 20
86.29949894704109
 30
0.0
  0
VERTEX
  5
2ED
  8
0
 62
     0
 10
207.4452104876617
 20
86.29949894704109
 30
0.0
  0
VERTEX
  5
2EE
  8
0
 62
     0
 10
207.4400499353279
 20
86.30466293652347
 30
0.0
  0
VERTEX
  5
2EF
  8
0
 62
     0
 10
207.4348893829942
 20
86.3201549049706
 30
0.0
  0
VERTEX
  5
2F0
  8
0
 62
     0
 10
207.4245682783267
 20
86.33048288393536
 30
0.0
  0
VERTEX
  5
2F1
  8
0
 62
     0
 10
207.4194077259929
 20
86.33048288393536
 30
0.0
  0
VERTEX
  5
2F2
  8
0
 62
     0
 10
207.4090866213254
 20
86.3201549049706
 30
0.0
  0
VERTEX
  5
2F3
  8
0
 62
     0
 10
207.4039260689916
 20
86.31499091548824
 30
0.0
  0
VERTEX
  5
2F4
  8
0
 62
     0
 10
207.3987655166578
 20
86.31499091548824
 30
0.0
  0
VERTEX
  5
2F5
  8
0
 62
     0
 10
207.3936049643241
 20
86.3201549049706
 30
0.0
  0
VERTEX
  5
2F6
  8
0
 62
     0
 10
207.3884444119903
 20
86.33048288393536
 30
0.0
  0
VERTEX
  5
2F7
  8
0
 62
     0
 10
207.3832838596566
 20
86.32531889445298
 30
0.0
  0
VERTEX
  5
2F8
  8
0
 62
     0
 10
207.372962754989
 20
86.30982692600585
 30
0.0
  0
VERTEX
  5
2F9
  8
0
 62
     0
 10
207.3678022026552
 20
86.29949894704109
 30
0.0
  0
SEQEND
  5
329
  8
0
 62
     0
  0
ENDSEC
  0
EOF
