  0
SECTION
  2
HEADER
  9
$ACADVER
  1
AC1009
  9
$DWGCODEPAGE
  3
ansi_1252
  9
$INSBASE
 10
0.0
 20
0.0
 30
0.0
  9
$EXTMIN
 10
-0.298921150000001
 20
-0.254801225
 30
0.0
  9
$EXTMAX
 10
0.512036225
 20
0.2586356999999992
 30
0.0
  9
$LIMMIN
 10
-16.1
 20
-11.9
  9
$LIMMAX
 10
44.90000000000001
 20
28.9
  9
$ORTHOMODE
 70
     0
  9
$REGENMODE
 70
     0
  9
$FILLMODE
 70
     1
  9
$QTEXTMODE
 70
     0
  9
$MIRRTEXT
 70
     1
  9
$DRAGMODE
 70
     2
  9
$LTSCALE
 40
1.2
  9
$OSMODE
 70
    37
  9
$ATTMODE
 70
     1
  9
$TEXTSIZE
 40
0.2
  9
$TRACEWID
 40
0.05
  9
$TEXTSTYLE
  7
STANDARD
  9
$CLAYER
  8
0
  9
$CELTYPE
  6
BYLAYER
  9
$CECOLOR
 62
   256
  9
$DIMSCALE
 40
1.2
  9
$DIMASZ
 40
0.18
  9
$DIMEXO
 40
0.08
  9
$DIMDLI
 40
0.38
  9
$DIMRND
 40
0.0
  9
$DIMDLE
 40
0.0
  9
$DIMEXE
 40
0.1
  9
$DIMTP
 40
0.0
  9
$DIMTM
 40
0.0
  9
$DIMTXT
 40
0.18
  9
$DIMCEN
 40
0.09
  9
$DIMTSZ
 40
0.07
  9
$DIMTOL
 70
     0
  9
$DIMLIM
 70
     0
  9
$DIMTIH
 70
     0
  9
$DIMTOH
 70
     1
  9
$DIMSE1
 70
     0
  9
$DIMSE2
 70
     0
  9
$DIMTAD
 70
     0
  9
$DIMZIN
 70
     0
  9
$DIMBLK
  1

  9
$DIMASO
 70
     1
  9
$DIMSHO
 70
     1
  9
$DIMPOST
  1

  9
$DIMAPOST
  1

  9
$DIMALT
 70
     0
  9
$DIMALTD
 70
     2
  9
$DIMALTF
 40
25.4
  9
$DIMLFAC
 40
1.0
  9
$DIMTOFL
 70
     0
  9
$DIMTVP
 40
0.0
  9
$DIMTIX
 70
     0
  9
$DIMSOXD
 70
     0
  9
$DIMSAH
 70
     0
  9
$DIMBLK1
  1

  9
$DIMBLK2
  1

  9
$DIMSTYLE
  2
STANDARD
  9
$DIMCLRD
 70
     0
  9
$DIMCLRE
 70
     0
  9
$DIMCLRT
 70
     0
  9
$DIMTFAC
 40
1.0
  9
$DIMGAP
 40
0.09
  9
$LUNITS
 70
     2
  9
$LUPREC
 70
     3
  9
$SKETCHINC
 40
0.1
  9
$FILLETRAD
 40
0.0
  9
$AUNITS
 70
     0
  9
$AUPREC
 70
     2
  9
$MENU
  1
ACAD
  9
$ELEVATION
 40
0.0
  9
$PELEVATION
 40
0.0
  9
$THICKNESS
 40
0.0
  9
$LIMCHECK
 70
     0
  9
$CHAMFERA
 40
0.0
  9
$CHAMFERB
 40
0.0
  9
$SKPOLY
 70
     0
  9
$TDCREATE
 40
2449213.95214294
  9
$TDUPDATE
 40
2457483.532731481
  9
$TDINDWG
 40
0.0082135532
  9
$TDUSRTIMER
 40
0.0082135532
  9
$USRTIMER
 70
     1
  9
$ANGBASE
 50
0.0
  9
$ANGDIR
 70
     0
  9
$PDMODE
 70
     0
  9
$PDSIZE
 40
0.0
  9
$PLINEWID
 40
0.0
  9
$COORDS
 70
     1
  9
$SPLFRAME
 70
     0
  9
$SPLINETYPE
 70
     6
  9
$SPLINESEGS
 70
     8
  9
$ATTDIA
 70
     0
  9
$ATTREQ
 70
     1
  9
$HANDLING
 70
     1
  9
$HANDSEED
  5
128
  9
$SURFTAB1
 70
     6
  9
$SURFTAB2
 70
     6
  9
$SURFTYPE
 70
     6
  9
$SURFU
 70
     6
  9
$SURFV
 70
     6
  9
$UCSNAME
  2

  9
$UCSORG
 10
0.0
 20
0.0
 30
0.0
  9
$UCSXDIR
 10
1.0
 20
0.0
 30
0.0
  9
$UCSYDIR
 10
0.0
 20
1.0
 30
0.0
  9
$PUCSNAME
  2

  9
$PUCSORG
 10
0.0
 20
0.0
 30
0.0
  9
$PUCSXDIR
 10
1.0
 20
0.0
 30
0.0
  9
$PUCSYDIR
 10
0.0
 20
1.0
 30
0.0
  9
$USERI1
 70
     0
  9
$USERI2
 70
     0
  9
$USERI3
 70
     0
  9
$USERI4
 70
     0
  9
$USERI5
 70
     0
  9
$USERR1
 40
100.0
  9
$USERR2
 40
0.0
  9
$USERR3
 40
0.0
  9
$USERR4
 40
0.0
  9
$USERR5
 40
0.0
  9
$WORLDVIEW
 70
     1
  9
$SHADEDGE
 70
     3
  9
$SHADEDIF
 70
    70
  9
$TILEMODE
 70
     1
  9
$MAXACTVP
 70
    16
  9
$PLIMCHECK
 70
     0
  9
$PEXTMIN
 10
1.000000000000000E+20
 20
1.000000000000000E+20
 30
1.000000000000000E+20
  9
$PEXTMAX
 10
-1.000000000000000E+20
 20
-1.000000000000000E+20
 30
-1.000000000000000E+20
  9
$PLIMMIN
 10
0.0
 20
0.0
  9
$PLIMMAX
 10
12.0
 20
9.0
  9
$UNITMODE
 70
     0
  9
$VISRETAIN
 70
     0
  9
$PLINEGEN
 70
     0
  9
$PSLTSCALE
 70
     0
  0
ENDSEC
  0
SECTION
  2
TABLES
  0
TABLE
  2
VPORT
 70
     1
  0
VPORT
  2
*ACTIVE
 70
     0
 10
0.0
 20
0.0
 11
1.0
 21
1.0
 12
0.105006382343537
 22
0.0515286788898604
 13
0.0
 23
0.0
 14
0.05
 24
0.05
 15
1.0
 25
1.0
 16
0.0
 26
0.0
 36
1.0
 17
0.0
 27
0.0
 37
0.0
 40
0.8830424040035152
 41
1.503537735849057
 42
50.0
 43
0.0
 44
0.0
 50
0.0
 51
0.0
 71
     0
 72
   100
 73
     1
 74
     1
 75
     0
 76
     0
 77
     0
 78
     0
  0
ENDTAB
  0
TABLE
  2
LTYPE
 70
     1
  0
LTYPE
  2
CONTINUOUS
 70
     0
  3
Solid line
 72
    65
 73
     0
 40
0.0
  0
ENDTAB
  0
TABLE
  2
LAYER
 70
     2
  0
LAYER
  2
0
 70
     0
 62
     7
  6
CONTINUOUS
  0
LAYER
  2
ARQ-HUM
 70
     0
 62
     1
  6
CONTINUOUS
  0
ENDTAB
  0
TABLE
  2
STYLE
 70
     1
  0
STYLE
  2
STANDARD
 70
     0
 40
0.0
 41
1.0
 50
0.0
 71
     0
 42
0.2
  3
TXT
  4

  0
ENDTAB
  0
TABLE
  2
VIEW
 70
     0
  0
ENDTAB
  0
TABLE
  2
UCS
 70
     0
  0
ENDTAB
  0
TABLE
  2
APPID
 70
     3
  0
APPID
  2
ACAD
 70
     0
  0
APPID
  2
ACAECLAYERSTANDARD
 70
     0
  0
APPID
  2
DCO15
 70
     0
  0
ENDTAB
  0
TABLE
  2
DIMSTYLE
 70
     1
  0
DIMSTYLE
  2
STANDARD
 70
     0
  3

  4

  5

  6

  7

 40
1.0
 41
0.18
 42
0.0625
 43
0.38
 44
0.18
 45
0.0
 46
0.0
 47
0.0
 48
0.0
140
0.18
141
0.09
142
0.0
143
25.4
144
1.0
145
0.0
146
1.0
147
0.09
 71
     0
 72
     0
 73
     1
 74
     1
 75
     0
 76
     0
 77
     0
 78
     0
170
     0
171
     2
172
     0
173
     0
174
     0
175
     0
176
     0
177
     0
178
     0
  0
ENDTAB
  0
ENDSEC
  0
SECTION
  2
BLOCKS
  0
BLOCK
  8
0
  2
$MODEL_SPACE
 70
     0
 10
0.0
 20
0.0
 30
0.0
  3
$MODEL_SPACE
  1

  0
ENDBLK
  5
29
  8
0
  0
BLOCK
 67
     1
  8
0
  2
$PAPER_SPACE
 70
     0
 10
0.0
 20
0.0
 30
0.0
  3
$PAPER_SPACE
  1

  0
ENDBLK
  5
27
 67
     1
  8
0
  0
ENDSEC
  0
SECTION
  2
ENTITIES
  0
POLYLINE
  5
2A
  8
0
 62
     0
 66
     1
 10
0.0
 20
0.0
 30
0.0
  0
VERTEX
  5
DE
  8
0
 62
     0
 10
0.071802224999999
 20
0.1327608499999997
 30
0.0
  0
VERTEX
  5
DF
  8
0
 62
     0
 10
-0.0308087
 20
0.1128858500000007
 30
0.0
  0
VERTEX
  5
E0
  8
0
 62
     0
 10
-0.1168694999999985
 20
0.1294483499999984
 30
0.0
  0
VERTEX
  5
E1
  8
0
 62
     0
 10
-0.1731400000000008
 20
0.1493233250000003
 30
0.0
  0
SEQEND
  5
124
  8
0
 62
     0
  0
POLYLINE
  5
30
  8
0
 62
     0
 66
     1
 10
0.0
 20
0.0
 30
0.0
  0
VERTEX
  5
E2
  8
0
 62
     0
 10
0.0089116500000017
 20
-0.1123638999999997
 30
0.0
  0
VERTEX
  5
E3
  8
0
 62
     0
 10
-0.1036293749999999
 20
-0.1686763250000013
 30
0.0
  0
VERTEX
  5
E4
  8
0
 62
     0
 10
-0.1830701000000005
 20
-0.1885512999999975
 30
0.0
  0
SEQEND
  5
125
  8
0
 62
     0
  0
POLYLINE
  5
35
  8
0
 62
     0
 66
     1
 10
0.0
 20
0.0
 30
0.0
  0
VERTEX
  5
E5
  8
0
 62
     0
 10
-0.1334196500000019
 20
0.076448400000001
 30
0.0
  0
VERTEX
  5
E6
  8
0
 62
     0
 10
-0.1334196500000019
 20
0.0433234499999998
 30
0.0
  0
VERTEX
  5
E7
  8
0
 62
     0
 10
-0.0572889500000002
 20
-0.0196139999999986
 30
0.0
  0
VERTEX
  5
E8
  8
0
 62
     0
 10
-0.0672190499999999
 20
-0.0593639499999995
 30
0.0
  0
VERTEX
  5
E9
  8
0
 62
     0
 10
-0.1102494249999978
 20
-0.1057389000000001
 30
0.0
  0
VERTEX
  5
EA
  8
0
 62
     0
 10
-0.1996202499999981
 20
-0.1057389000000001
 30
0.0
  0
VERTEX
  5
EB
  8
0
 62
     0
 10
-0.269130874999999
 20
-0.0759264250000001
 30
0.0
  0
VERTEX
  5
EC
  8
0
 62
     0
 10
-0.2724409000000009
 20
-0.0196139999999986
 30
0.0
  0
VERTEX
  5
ED
  8
0
 62
     0
 10
-0.2393405999999999
 20
0.0863859000000019
 30
0.0
  0
VERTEX
  5
EE
  8
0
 62
     0
 10
-0.1797600750000015
 20
0.1128858500000007
 30
0.0
  0
VERTEX
  5
EF
  8
0
 62
     0
 10
-0.0539789250000013
 20
0.0830734000000007
 30
0.0
  0
VERTEX
  5
F0
  8
0
 62
     0
 10
-0.0175686000000013
 20
0.0532609250000007
 30
0.0
  0
VERTEX
  5
F1
  8
0
 62
     0
 10
-0.0109485250000006
 20
0.0333859499999988
 30
0.0
  0
VERTEX
  5
F2
  8
0
 62
     0
 10
-0.0407387999999997
 20
-0.0229264999999998
 30
0.0
  0
SEQEND
  5
126
  8
0
 62
     0
  0
POLYLINE
  5
45
  8
0
 62
     0
 66
     1
 10
0.0
 20
0.0
 30
0.0
 70
     1
  0
VERTEX
  5
F3
  8
0
 62
     0
 10
0.0751122500000008
 20
0.1294483499999984
 30
0.0
  0
VERTEX
  5
F4
  8
0
 62
     0
 10
0.1578630000000004
 20
0.146010824999999
 30
0.0
  0
VERTEX
  5
F5
  8
0
 62
     0
 10
0.1711031249999991
 20
0.2023232749999977
 30
0.0
  0
VERTEX
  5
F6
  8
0
 62
     0
 10
0.174413149999998
 20
0.1426983250000007
 30
0.0
  0
VERTEX
  5
F7
  8
0
 62
     0
 10
0.3134344249999998
 20
0.0598859250000004
 30
0.0
  0
VERTEX
  5
F8
  8
0
 62
     0
 10
0.3266745500000013
 20
0.0631984250000016
 30
0.0
  0
VERTEX
  5
F9
  8
0
 62
     0
 10
0.343224699999999
 20
0.0466359250000011
 30
0.0
  0
VERTEX
  5
FA
  8
0
 62
     0
 10
0.3531547750000016
 20
0.0267609499999992
 30
0.0
  0
VERTEX
  5
FB
  8
0
 62
     0
 10
0.4226654249999996
 20
-0.0063639999999992
 30
0.0
  0
VERTEX
  5
FC
  8
0
 62
     0
 10
0.4524556749999988
 20
-0.0626764500000007
 30
0.0
  0
VERTEX
  5
FD
  8
0
 62
     0
 10
0.4656958000000003
 20
-0.0626764500000007
 30
0.0
  0
VERTEX
  5
FE
  8
0
 62
     0
 10
0.4590757499999996
 20
-0.0196139999999986
 30
0.0
  0
VERTEX
  5
FF
  8
0
 62
     0
 10
0.4756259
 20
-0.0494264500000014
 30
0.0
  0
VERTEX
  5
100
  8
0
 62
     0
 10
0.512036225
 20
-0.0295514749999995
 30
0.0
  0
VERTEX
  5
101
  8
0
 62
     0
 10
0.5021061250000003
 20
0.0366984500000001
 30
0.0
  0
VERTEX
  5
102
  8
0
 62
     0
 10
0.4226654249999996
 20
0.0631984250000016
 30
0.0
  0
VERTEX
  5
103
  8
0
 62
     0
 10
0.3895651000000016
 20
0.0896983750000004
 30
0.0
  0
VERTEX
  5
104
  8
0
 62
     0
 10
0.3961851749999994
 20
0.0996358749999985
 30
0.0
  0
VERTEX
  5
105
  8
0
 62
     0
 10
0.3829450499999979
 20
0.1095733749999994
 30
0.0
  0
VERTEX
  5
106
  8
0
 62
     0
 10
0.3928751499999976
 20
0.1228233499999988
 30
0.0
  0
VERTEX
  5
107
  8
0
 62
     0
 10
0.24061375
 20
0.2520106999999996
 30
0.0
  0
VERTEX
  5
108
  8
0
 62
     0
 10
0.071802224999999
 20
0.2586356999999992
 30
0.0
  0
VERTEX
  5
109
  8
0
 62
     0
 10
-0.1267995750000011
 20
0.2255107500000008
 30
0.0
  0
VERTEX
  5
10A
  8
0
 62
     0
 10
-0.2227904499999994
 20
0.1725108000000006
 30
0.0
  0
VERTEX
  5
10B
  8
0
 62
     0
 10
-0.2757509499999998
 20
0.1062608749999981
 30
0.0
  0
VERTEX
  5
10C
  8
0
 62
     0
 10
-0.298921150000001
 20
-0.0163015000000001
 30
0.0
  0
VERTEX
  5
10D
  8
0
 62
     0
 10
-0.2625108250000011
 20
-0.1189888749999994
 30
0.0
  0
VERTEX
  5
10E
  8
0
 62
     0
 10
-0.2360305750000009
 20
-0.2018012999999996
 30
0.0
  0
VERTEX
  5
10F
  8
0
 62
     0
 10
-0.0738390999999979
 20
-0.2415512500000006
 30
0.0
  0
VERTEX
  5
110
  8
0
 62
     0
 10
0.038701924999998
 20
-0.254801225
 30
0.0
  0
VERTEX
  5
111
  8
0
 62
     0
 10
0.2008934000000011
 20
-0.2183637750000003
 30
0.0
  0
VERTEX
  5
112
  8
0
 62
     0
 10
0.3134344249999998
 20
-0.1786138249999993
 30
0.0
  0
VERTEX
  5
113
  8
0
 62
     0
 10
0.306814350000002
 20
-0.1686763250000013
 30
0.0
  0
VERTEX
  5
114
  8
0
 62
     0
 10
0.4193553750000007
 20
-0.135551375
 30
0.0
  0
VERTEX
  5
115
  8
0
 62
     0
 10
0.4656958000000003
 20
-0.0924888999999979
 30
0.0
  0
VERTEX
  5
116
  8
0
 62
     0
 10
0.4524556749999988
 20
-0.0891764249999994
 30
0.0
  0
VERTEX
  5
117
  8
0
 62
     0
 10
0.3630848750000013
 20
-0.1223013750000007
 30
0.0
  0
VERTEX
  5
118
  8
0
 62
     0
 10
0.3697049249999992
 20
-0.0958013999999991
 30
0.0
  0
VERTEX
  5
119
  8
0
 62
     0
 10
0.3961851749999994
 20
-0.0891764249999994
 30
0.0
  0
VERTEX
  5
11A
  8
0
 62
     0
 10
0.3928751499999976
 20
-0.0792389250000014
 30
0.0
  0
VERTEX
  5
11B
  8
0
 62
     0
 10
0.3399146500000001
 20
-0.085863925000001
 30
0.0
  0
VERTEX
  5
11C
  8
0
 62
     0
 10
0.2935742500000004
 20
-0.1256138749999991
 30
0.0
  0
VERTEX
  5
11D
  8
0
 62
     0
 10
0.2902641999999986
 20
-0.0958013999999991
 30
0.0
  0
VERTEX
  5
11E
  8
0
 62
     0
 10
0.1280727249999984
 20
-0.135551375
 30
0.0
  0
VERTEX
  5
11F
  8
0
 62
     0
 10
0.1115225750000008
 20
-0.1852387999999991
 30
0.0
  0
VERTEX
  5
120
  8
0
 62
     0
 10
0.0982824500000021
 20
-0.1786138249999993
 30
0.0
  0
VERTEX
  5
121
  8
0
 62
     0
 10
0.1247626999999994
 20
-0.1322388749999988
 30
0.0
  0
VERTEX
  5
122
  8
0
 62
     0
 10
0.0188417500000014
 20
-0.1123638999999997
 30
0.0
  0
VERTEX
  5
123
  8
0
 62
     0
 10
0.0817322999999988
 20
-0.0494264500000014
 30
0.0
  0
SEQEND
  5
127
  8
0
 62
     0
  0
ENDSEC
  0
EOF
