  0
SECTION
  2
HEADER
  9
$ACADVER
  1
AC1009
  9
$DWGCODEPAGE
  3
ansi_1252
  9
$INSBASE
 10
217.8534307086947
 20
271.1321270491104
 30
0.0
  9
$EXTMIN
 10
217.7509160043686
 20
271.1322296072507
 30
0.0
  9
$EXTMAX
 10
218.2931480362538
 20
272.7999758308157
 30
0.0
  9
$LIMMIN
 10
0.0
 20
0.0
  9
$LIMMAX
 10
1632.0
 20
1032.0
  9
$ORTHOMODE
 70
     0
  9
$REGENMODE
 70
     1
  9
$FILLMODE
 70
     1
  9
$QTEXTMODE
 70
     0
  9
$MIRRTEXT
 70
     1
  9
$DRAGMODE
 70
     2
  9
$LTSCALE
 40
15.0
  9
$OSMODE
 70
    37
  9
$ATTMODE
 70
     1
  9
$TEXTSIZE
 40
4.0
  9
$TRACEWID
 40
0.05
  9
$TEXTSTYLE
  7
STANDARD
  9
$CLAYER
  8
0
  9
$CELTYPE
  6
BYLAYER
  9
$CECOLOR
 62
   256
  9
$DIMSCALE
 40
1.0
  9
$DIMASZ
 40
0.18
  9
$DIMEXO
 40
4.0
  9
$DIMDLI
 40
0.0
  9
$DIMRND
 40
0.0
  9
$DIMDLE
 40
0.0
  9
$DIMEXE
 40
4.0
  9
$DIMTP
 40
0.0
  9
$DIMTM
 40
0.0
  9
$DIMTXT
 40
4.0
  9
$DIMCEN
 40
0.09
  9
$DIMTSZ
 40
1.5
  9
$DIMTOL
 70
     0
  9
$DIMLIM
 70
     0
  9
$DIMTIH
 70
     0
  9
$DIMTOH
 70
     0
  9
$DIMSE1
 70
     0
  9
$DIMSE2
 70
     0
  9
$DIMTAD
 70
     1
  9
$DIMZIN
 70
     0
  9
$DIMBLK
  1

  9
$DIMASO
 70
     0
  9
$DIMSHO
 70
     0
  9
$DIMPOST
  1

  9
$DIMAPOST
  1

  9
$DIMALT
 70
     0
  9
$DIMALTD
 70
     2
  9
$DIMALTF
 40
25.4
  9
$DIMLFAC
 40
1.0
  9
$DIMTOFL
 70
     0
  9
$DIMTVP
 40
0.0
  9
$DIMTIX
 70
     0
  9
$DIMSOXD
 70
     0
  9
$DIMSAH
 70
     0
  9
$DIMBLK1
  1

  9
$DIMBLK2
  1

  9
$DIMSTYLE
  2
STANDARD
  9
$DIMCLRD
 70
     0
  9
$DIMCLRE
 70
     0
  9
$DIMCLRT
 70
     0
  9
$DIMTFAC
 40
1.0
  9
$DIMGAP
 40
0.09
  9
$LUNITS
 70
     2
  9
$LUPREC
 70
     2
  9
$SKETCHINC
 40
0.1
  9
$FILLETRAD
 40
0.0
  9
$AUNITS
 70
     0
  9
$AUPREC
 70
     0
  9
$MENU
  1
ACAD
  9
$ELEVATION
 40
0.0
  9
$PELEVATION
 40
0.0
  9
$THICKNESS
 40
0.0
  9
$LIMCHECK
 70
     0
  9
$CHAMFERA
 40
0.0
  9
$CHAMFERB
 40
0.0
  9
$SKPOLY
 70
     0
  9
$TDCREATE
 40
2449030.693157176
  9
$TDUPDATE
 40
2457483.53287037
  9
$TDINDWG
 40
0.0033542708
  9
$TDUSRTIMER
 40
0.0033542708
  9
$USRTIMER
 70
     1
  9
$ANGBASE
 50
0.0
  9
$ANGDIR
 70
     0
  9
$PDMODE
 70
     0
  9
$PDSIZE
 40
0.0
  9
$PLINEWID
 40
0.0
  9
$COORDS
 70
     1
  9
$SPLFRAME
 70
     0
  9
$SPLINETYPE
 70
     6
  9
$SPLINESEGS
 70
     8
  9
$ATTDIA
 70
     0
  9
$ATTREQ
 70
     1
  9
$HANDLING
 70
     1
  9
$HANDSEED
  5
14B
  9
$SURFTAB1
 70
     6
  9
$SURFTAB2
 70
     6
  9
$SURFTYPE
 70
     6
  9
$SURFU
 70
     6
  9
$SURFV
 70
     6
  9
$UCSNAME
  2

  9
$UCSORG
 10
0.0
 20
0.0
 30
0.0
  9
$UCSXDIR
 10
1.0
 20
0.0
 30
0.0
  9
$UCSYDIR
 10
0.0
 20
1.0
 30
0.0
  9
$PUCSNAME
  2

  9
$PUCSORG
 10
0.0
 20
0.0
 30
0.0
  9
$PUCSXDIR
 10
1.0
 20
0.0
 30
0.0
  9
$PUCSYDIR
 10
0.0
 20
1.0
 30
0.0
  9
$USERI1
 70
     0
  9
$USERI2
 70
     0
  9
$USERI3
 70
     0
  9
$USERI4
 70
     0
  9
$USERI5
 70
     0
  9
$USERR1
 40
0.0
  9
$USERR2
 40
0.0
  9
$USERR3
 40
0.0
  9
$USERR4
 40
0.0
  9
$USERR5
 40
0.0
  9
$WORLDVIEW
 70
     1
  9
$SHADEDGE
 70
     3
  9
$SHADEDIF
 70
    70
  9
$TILEMODE
 70
     1
  9
$MAXACTVP
 70
    16
  9
$PLIMCHECK
 70
     0
  9
$PEXTMIN
 10
1.000000000000000E+20
 20
1.000000000000000E+20
 30
1.000000000000000E+20
  9
$PEXTMAX
 10
-1.000000000000000E+20
 20
-1.000000000000000E+20
 30
-1.000000000000000E+20
  9
$PLIMMIN
 10
0.0
 20
0.0
  9
$PLIMMAX
 10
12.0
 20
9.0
  9
$UNITMODE
 70
     0
  9
$VISRETAIN
 70
     0
  9
$PLINEGEN
 70
     0
  9
$PSLTSCALE
 70
     0
  0
ENDSEC
  0
SECTION
  2
TABLES
  0
TABLE
  2
VPORT
 70
     1
  0
VPORT
  2
*ACTIVE
 70
     0
 10
0.0
 20
0.0
 11
1.0
 21
1.0
 12
218.0220320203112
 22
272.2717686321357
 13
0.0
 23
0.0
 14
1.0
 24
1.0
 15
48.0
 25
48.0
 16
0.0
 26
0.0
 36
1.0
 17
0.0
 27
0.0
 37
0.0
 40
2.307269658483922
 41
1.376889848812095
 42
50.0
 43
0.0
 44
0.0
 50
0.0
 51
0.0
 71
     0
 72
   100
 73
     1
 74
     1
 75
     0
 76
     1
 77
     0
 78
     0
  0
ENDTAB
  0
TABLE
  2
LTYPE
 70
     1
  0
LTYPE
  2
CONTINUOUS
 70
     0
  3
Solid line
 72
    65
 73
     0
 40
0.0
  0
ENDTAB
  0
TABLE
  2
LAYER
 70
     1
  0
LAYER
  2
0
 70
     0
 62
     7
  6
CONTINUOUS
  0
ENDTAB
  0
TABLE
  2
STYLE
 70
     1
  0
STYLE
  2
STANDARD
 70
     0
 40
0.0
 41
1.0
 50
0.0
 71
     0
 42
4.0
  3
TXT
  4

  0
ENDTAB
  0
TABLE
  2
VIEW
 70
     0
  0
ENDTAB
  0
TABLE
  2
UCS
 70
     0
  0
ENDTAB
  0
TABLE
  2
APPID
 70
     1
  0
APPID
  2
ACAD
 70
     0
  0
ENDTAB
  0
TABLE
  2
DIMSTYLE
 70
     1
  0
DIMSTYLE
  2
STANDARD
 70
     0
  3

  4

  5

  6

  7

 40
1.0
 41
0.18
 42
0.0625
 43
0.38
 44
0.18
 45
0.0
 46
0.0
 47
0.0
 48
0.0
140
0.18
141
0.09
142
0.0
143
25.4
144
1.0
145
0.0
146
1.0
147
0.09
 71
     0
 72
     0
 73
     1
 74
     1
 75
     0
 76
     0
 77
     0
 78
     0
170
     0
171
     2
172
     0
173
     0
174
     0
175
     0
176
     0
177
     0
178
     0
  0
ENDTAB
  0
ENDSEC
  0
SECTION
  2
BLOCKS
  0
BLOCK
  8
0
  2
$MODEL_SPACE
 70
     0
 10
0.0
 20
0.0
 30
0.0
  3
$MODEL_SPACE
  1

  0
ENDBLK
  5
20
  8
0
  0
BLOCK
 67
     1
  8
0
  2
$PAPER_SPACE
 70
     0
 10
0.0
 20
0.0
 30
0.0
  3
$PAPER_SPACE
  1

  0
ENDBLK
  5
1E
 67
     1
  8
0
  0
ENDSEC
  0
SECTION
  2
ENTITIES
  0
LINE
  5
22
  8
0
 62
     0
 10
218.0427027328626
 20
272.5776023912172
 30
0.0
 11
218.0271464867587
 21
272.6000844925892
 31
0.0
  0
LINE
  5
23
  8
0
 62
     0
 10
218.0399520687434
 20
272.6352356791381
 30
0.0
 11
218.0427027328626
 21
272.5776023912172
 31
0.0
  0
LINE
  5
24
  8
0
 62
     0
 10
218.0063869787216
 20
272.6217564835968
 30
0.0
 11
218.0034989352721
 21
272.6154661123891
 31
0.0
  0
LINE
  5
25
  8
0
 62
     0
 10
218.0025778307362
 20
272.6327152402381
 30
0.0
 11
218.0063869787216
 21
272.6217564835968
 31
0.0
  0
LINE
  5
26
  8
0
 62
     0
 10
218.0008460274874
 20
272.6548938670264
 30
0.0
 11
218.0025778307362
 21
272.6327152402381
 31
0.0
  0
LINE
  5
27
  8
0
 62
     0
 10
217.9639109688644
 20
272.677976334807
 30
0.0
 11
217.9799146312288
 21
272.6726035380455
 31
0.0
  0
LINE
  5
28
  8
0
 62
     0
 10
217.9429595687632
 20
272.6740517800379
 30
0.0
 11
217.9639109688644
 21
272.677976334807
 31
0.0
  0
LINE
  5
29
  8
0
 62
     0
 10
218.016584163734
 20
272.6656806245188
 30
0.0
 11
218.0020809027025
 21
272.6685863184176
 31
0.0
  0
LINE
  5
2A
  8
0
 62
     0
 10
218.0272709224262
 20
272.6703116498349
 30
0.0
 11
218.016584163734
 21
272.6656806245188
 31
0.0
  0
LINE
  5
2B
  8
0
 62
     0
 10
218.0104415584671
 20
272.6736329891855
 30
0.0
 11
218.0272709224262
 21
272.6703116498349
 31
0.0
  0
LINE
  5
2C
  8
0
 62
     0
 10
218.0020773726127
 20
272.6669437404528
 30
0.0
 11
218.0104415584671
 21
272.6736329891855
 31
0.0
  0
LINE
  5
2D
  8
0
 62
     0
 10
217.9733404951057
 20
272.670838198943
 30
0.0
 11
217.9740146064956
 21
272.6660458756751
 31
0.0
  0
LINE
  5
2E
  8
0
 62
     0
 10
217.961843626049
 20
272.6714104355603
 30
0.0
 11
217.9733404951057
 21
272.670838198943
 31
0.0
  0
LINE
  5
2F
  8
0
 62
     0
 10
217.945956547165
 20
272.6673381148503
 30
0.0
 11
217.961843626049
 21
272.6714104355603
 31
0.0
  0
POINT
  5
30
  8
0
 62
     0
 10
217.9884428531176
 20
272.6159091160373
 30
0.0
  0
LINE
  5
31
  8
0
 62
     0
 10
218.0040155729741
 20
272.6010923785008
 30
0.0
 11
218.0090916611575
 21
272.6064198724425
 31
0.0
  0
LINE
  5
32
  8
0
 62
     0
 10
217.9881334950508
 20
272.5993470432409
 30
0.0
 11
218.0040155729741
 21
272.6010923785008
 31
0.0
  0
LINE
  5
33
  8
0
 62
     0
 10
217.9752678110234
 20
272.5999222215997
 30
0.0
 11
217.9881334950508
 21
272.5993470432409
 31
0.0
  0
LINE
  5
34
  8
0
 62
     0
 10
217.9647341134068
 20
272.602819384448
 30
0.0
 11
217.9752678110234
 21
272.5999222215997
 31
0.0
  0
LINE
  5
35
  8
0
 62
     0
 10
217.9911769755978
 20
271.1493481070123
 30
0.0
 11
217.9302497065227
 21
271.1424980581609
 31
0.0
  0
LINE
  5
36
  8
0
 62
     0
 10
217.8507331426649
 20
271.2754446138445
 30
0.0
 11
217.8497011344726
 21
271.2410894173007
 31
0.0
  0
LINE
  5
37
  8
0
 62
     0
 10
218.2849766466059
 20
271.2365950245651
 30
0.0
 11
218.269695634367
 21
271.2597609450741
 31
0.0
  0
LINE
  5
38
  8
0
 62
     0
 10
218.2145548388014
 20
271.2066323007267
 30
0.0
 11
218.2097113292305
 21
271.1821408088477
 31
0.0
  0
LINE
  5
39
  8
0
 62
     0
 10
218.2392591996244
 20
271.1734537329153
 30
0.0
 11
218.2188747410057
 21
271.1785621802557
 31
0.0
  0
LINE
  5
3A
  8
0
 62
     0
 10
218.2616499259782
 20
271.2738770955468
 30
0.0
 11
218.2831483542344
 21
271.2138765203165
 31
0.0
  0
LINE
  5
3B
  8
0
 62
     0
 10
218.207928874371
 20
271.2461399440719
 30
0.0
 11
218.219559148491
 21
271.178560709385
 31
0.0
  0
LINE
  5
3C
  8
0
 62
     0
 10
217.8153412311423
 20
272.06793132154
 30
0.0
 11
217.8049577433749
 21
272.0133376672733
 31
0.0
  0
LINE
  5
3D
  8
0
 62
     0
 10
217.8432655543764
 20
272.1317952633151
 30
0.0
 11
217.8153412311423
 21
272.06793132154
 31
0.0
  0
LINE
  5
3E
  8
0
 62
     0
 10
217.8715166824676
 20
272.1566470959048
 30
0.0
 11
217.8432655543764
 21
272.1317952633151
 31
0.0
  0
LINE
  5
3F
  8
0
 62
     0
 10
217.8545478799592
 20
272.0950866056473
 30
0.0
 11
217.860866876575
 21
272.0418258771044
 31
0.0
  0
LINE
  5
40
  8
0
 62
     0
 10
217.8705629246005
 20
272.1587023775798
 30
0.0
 11
217.8545478799592
 21
272.0950866056473
 31
0.0
  0
LINE
  5
41
  8
0
 62
     0
 10
217.9240579968008
 20
272.1466786652408
 30
0.0
 11
217.9379627265714
 21
271.9926563869325
 31
0.0
  0
LINE
  5
42
  8
0
 62
     0
 10
217.9953776693831
 20
272.1485786229621
 30
0.0
 11
217.9981616656969
 21
272.0427627539008
 31
0.0
  0
LINE
  5
43
  8
0
 62
     0
 10
217.9963352515143
 20
272.1483028007489
 30
0.0
 11
218.0329910483493
 21
272.0712962665517
 31
0.0
  0
LINE
  5
44
  8
0
 62
     0
 10
218.102358154222
 20
272.3002903063363
 30
0.0
 11
218.1224167810212
 21
272.270954422364
 31
0.0
  0
LINE
  5
45
  8
0
 62
     0
 10
218.1240484489856
 20
272.2766975318504
 30
0.0
 11
218.1289698241924
 21
272.4011128107597
 31
0.0
  0
LINE
  5
46
  8
0
 62
     0
 10
218.1157988779076
 20
272.1959548048582
 30
0.0
 11
218.1240484489856
 21
272.2766975318504
 31
0.0
  0
LINE
  5
47
  8
0
 62
     0
 10
218.1065998710597
 20
272.1829707723056
 30
0.0
 11
218.1157988779076
 21
272.1959548048582
 31
0.0
  0
LINE
  5
48
  8
0
 62
     0
 10
218.1118982417601
 20
272.1643434159129
 30
0.0
 11
218.1065998710597
 21
272.1829707723056
 31
0.0
  0
LINE
  5
49
  8
0
 62
     0
 10
218.1023848758847
 20
272.1324703251138
 30
0.0
 11
218.1118982417601
 21
272.1643434159129
 31
0.0
  0
LINE
  5
4A
  8
0
 62
     0
 10
218.0996210644437
 20
272.1202937553583
 30
0.0
 11
218.1023848758847
 21
272.1324703251138
 31
0.0
  0
LINE
  5
4B
  8
0
 62
     0
 10
217.8131544988777
 20
272.3879664393313
 30
0.0
 11
217.8396154867224
 21
272.4715445525992
 31
0.0
  0
LINE
  5
4C
  8
0
 62
     0
 10
217.8110486192481
 20
272.3634690639692
 30
0.0
 11
217.8131544988777
 21
272.3879664393313
 31
0.0
  0
LINE
  5
4D
  8
0
 62
     0
 10
217.8306237368809
 20
272.2365372609391
 30
0.0
 11
217.8110486192481
 21
272.3634690639692
 31
0.0
  0
LINE
  5
4E
  8
0
 62
     0
 10
217.8316946665767
 20
272.2253106247867
 30
0.0
 11
217.8306237368809
 21
272.2365372609391
 31
0.0
  0
LINE
  5
4F
  8
0
 62
     0
 10
217.8240107697694
 20
272.2167035642244
 30
0.0
 11
217.8316946665767
 21
272.2253106247867
 31
0.0
  0
LINE
  5
50
  8
0
 62
     0
 10
217.8428604086791
 20
272.1980470845904
 30
0.0
 11
217.8240107697694
 21
272.2167035642244
 31
0.0
  0
LINE
  5
51
  8
0
 62
     0
 10
218.0767970648175
 20
272.2004188523983
 30
0.0
 11
218.0578974163015
 21
272.1958054775315
 31
0.0
  0
LINE
  5
52
  8
0
 62
     0
 10
218.0771502548334
 20
272.2373762682571
 30
0.0
 11
218.0767970648175
 21
272.2004188523983
 31
0.0
  0
LINE
  5
53
  8
0
 62
     0
 10
218.100966956459
 20
272.3007015092687
 30
0.0
 11
218.0771502548334
 21
272.2373762682571
 31
0.0
  0
LINE
  5
54
  8
0
 62
     0
 10
218.1133536797049
 20
272.5231083488451
 30
0.0
 11
218.100966956459
 21
272.3007015092687
 31
0.0
  0
LINE
  5
55
  8
0
 62
     0
 10
218.1253071296785
 20
272.0980636480929
 30
0.0
 11
218.1088907636039
 21
272.1024791568975
 31
0.0
  0
LINE
  5
56
  8
0
 62
     0
 10
218.1318483182962
 20
272.0844982595243
 30
0.0
 11
218.1253071296785
 21
272.0980636480929
 31
0.0
  0
LINE
  5
57
  8
0
 62
     0
 10
218.1188019208228
 20
272.0646783889948
 30
0.0
 11
218.1318483182962
 21
272.0844982595243
 31
0.0
  0
LINE
  5
58
  8
0
 62
     0
 10
218.132826198444
 20
272.0936672606084
 30
0.0
 11
218.1279851582787
 21
272.0934609214265
 31
0.0
  0
LINE
  5
59
  8
0
 62
     0
 10
218.1790014482966
 20
272.1150585189572
 30
0.0
 11
218.132826198444
 21
272.0936672606084
 31
0.0
  0
LINE
  5
5A
  8
0
 62
     0
 10
218.1586614099753
 20
272.1408360723541
 30
0.0
 11
218.1790014482966
 21
272.1150585189572
 31
0.0
  0
LINE
  5
5B
  8
0
 62
     0
 10
218.1858104259103
 20
272.1624051024075
 30
0.0
 11
218.1586614099753
 21
272.1408360723541
 31
0.0
  0
LINE
  5
5C
  8
0
 62
     0
 10
218.1927162773359
 20
272.1911355080831
 30
0.0
 11
218.1858104259103
 21
272.1624051024075
 31
0.0
  0
LINE
  5
5D
  8
0
 62
     0
 10
218.2141612790399
 20
272.2336597625016
 30
0.0
 11
218.1927162773359
 21
272.1911355080831
 31
0.0
  0
LINE
  5
5E
  8
0
 62
     0
 10
218.2013414861807
 20
272.2555884544023
 30
0.0
 11
218.2141612790399
 21
272.2336597625016
 31
0.0
  0
LINE
  5
5F
  8
0
 62
     0
 10
218.1525198230036
 20
272.4677237960491
 30
0.0
 11
218.2013414861807
 21
272.2555884544023
 31
0.0
  0
LINE
  5
60
  8
0
 62
     0
 10
218.1419133738556
 20
272.5004614194313
 30
0.0
 11
218.1525198230036
 21
272.4677237960491
 31
0.0
  0
LINE
  5
61
  8
0
 62
     0
 10
218.1207399854115
 20
272.5206285964936
 30
0.0
 11
218.1419133738556
 21
272.5004614194313
 31
0.0
  0
LINE
  5
62
  8
0
 62
     0
 10
218.0404592145015
 20
272.5608459214502
 30
0.0
 11
218.1207399854115
 21
272.5206285964936
 31
0.0
  0
LINE
  5
63
  8
0
 62
     0
 10
218.033534908475
 20
272.5791277973532
 30
0.0
 11
218.0208351178954
 21
272.5937670959495
 31
0.0
  0
LINE
  5
64
  8
0
 62
     0
 10
218.0411493801818
 20
272.5554308246087
 30
0.0
 11
218.033534908475
 21
272.5791277973532
 31
0.0
  0
LINE
  5
65
  8
0
 62
     0
 10
218.0187977789906
 20
272.4732127010867
 30
0.0
 11
218.0411493801818
 21
272.5554308246087
 31
0.0
  0
LINE
  5
66
  8
0
 62
     0
 10
217.9716283788965
 20
272.4987741496238
 30
0.0
 11
218.0187977789906
 21
272.4732127010867
 31
0.0
  0
LINE
  5
67
  8
0
 62
     0
 10
218.0208351178954
 20
272.5937670959495
 30
0.0
 11
217.9306534795157
 21
272.4330244276921
 31
0.0
  0
LINE
  5
68
  8
0
 62
     0
 10
217.9248767966173
 20
272.6673834176702
 30
0.0
 11
217.9503635249191
 21
272.6797849175102
 31
0.0
  0
LINE
  5
69
  8
0
 62
     0
 10
217.8994600817642
 20
272.6875597141313
 30
0.0
 11
217.9248767966173
 21
272.6673834176702
 31
0.0
  0
LINE
  5
6A
  8
0
 62
     0
 10
217.8933453098981
 20
272.5687522749167
 30
0.0
 11
217.920399217066
 21
272.6097587717272
 31
0.0
  0
LINE
  5
6B
  8
0
 62
     0
 10
217.8867193086087
 20
272.6065459826398
 30
0.0
 11
217.8933453098981
 21
272.5687522749167
 31
0.0
  0
LINE
  5
6C
  8
0
 62
     0
 10
217.897812593354
 20
272.6092597844745
 30
0.0
 11
217.8867193086087
 21
272.6065459826398
 31
0.0
  0
LINE
  5
6D
  8
0
 62
     0
 10
217.8858452719375
 20
272.645696150019
 30
0.0
 11
217.897812593354
 21
272.6092597844745
 31
0.0
  0
LINE
  5
6E
  8
0
 62
     0
 10
217.8937905764245
 20
272.6485535993563
 30
0.0
 11
217.8858452719375
 21
272.645696150019
 31
0.0
  0
CIRCLE
  5
6F
  8
0
 62
     0
 10
217.9101804856501
 20
272.6301360275855
 30
0.0
 40
0.008897317856055
  0
LINE
  5
70
  8
0
 62
     0
 10
218.0422887619406
 20
272.6397477675806
 30
0.0
 11
218.0434382361357
 21
272.665068491144
 31
0.0
  0
LINE
  5
71
  8
0
 62
     0
 10
217.9773823122187
 20
272.564738970068
 30
0.0
 11
217.9996356185186
 21
272.568133980027
 31
0.0
  0
LINE
  5
72
  8
0
 62
     0
 10
217.9682156645278
 20
272.5668119021923
 30
0.0
 11
217.9773823122187
 21
272.564738970068
 31
0.0
  0
LINE
  5
73
  8
0
 62
     0
 10
217.9451094613721
 20
272.5793178338572
 30
0.0
 11
217.9682156645278
 21
272.5668119021923
 31
0.0
  0
LINE
  5
74
  8
0
 62
     0
 10
217.9254467703564
 20
272.6018087604539
 30
0.0
 11
217.9451094613721
 21
272.5793178338572
 31
0.0
  0
LINE
  5
75
  8
0
 62
     0
 10
217.902650846274
 20
272.6834576392304
 30
0.0
 11
217.9254467703564
 21
272.6018087604539
 31
0.0
  0
LINE
  5
76
  8
0
 62
     0
 10
217.9028956285732
 20
272.4904351722315
 30
0.0
 11
217.9247748992158
 21
272.4802588735841
 31
0.0
  0
LINE
  5
77
  8
0
 62
     0
 10
217.8679590760133
 20
272.4757269849582
 30
0.0
 11
217.9028956285732
 21
272.4904351722315
 31
0.0
  0
LINE
  5
78
  8
0
 62
     0
 10
217.9239087147317
 20
272.5867550316926
 30
0.0
 11
217.8679590760133
 21
272.4757269849582
 31
0.0
  0
LINE
  5
79
  8
0
 62
     0
 10
217.9230254455178
 20
272.4942246105485
 30
0.0
 11
217.9239087147317
 21
272.5867550316926
 31
0.0
  0
LINE
  5
7A
  8
0
 62
     0
 10
217.9382309455141
 20
272.3722299549857
 30
0.0
 11
217.9230254455178
 21
272.4942246105485
 31
0.0
  0
LINE
  5
7B
  8
0
 62
     0
 10
217.9195469945398
 20
272.2132130747348
 30
0.0
 11
217.9382309455141
 21
272.3722299549857
 31
0.0
  0
LINE
  5
7C
  8
0
 62
     0
 10
217.9301634456091
 20
272.1851294222528
 30
0.0
 11
217.9195469945398
 21
272.2132130747348
 31
0.0
  0
LINE
  5
7D
  8
0
 62
     0
 10
217.8042234846847
 20
272.4996814506032
 30
0.0
 11
217.913498489426
 21
272.5670090634441
 31
0.0
  0
LINE
  5
7E
  8
0
 62
     0
 10
217.7752361518282
 20
272.2596524929784
 30
0.0
 11
217.8042234846847
 21
272.4996814506032
 31
0.0
  0
LINE
  5
7F
  8
0
 62
     0
 10
217.7623548765707
 20
272.2529729519928
 30
0.0
 11
217.7752361518282
 21
272.2596524929784
 31
0.0
  0
LINE
  5
80
  8
0
 62
     0
 10
217.77601252268
 20
272.1750576685742
 30
0.0
 11
217.7623548765707
 21
272.2529729519928
 31
0.0
  0
LINE
  5
81
  8
0
 62
     0
 10
217.8045155083938
 20
272.1800754591617
 30
0.0
 11
217.8366082722517
 21
272.1676620758266
 31
0.0
  0
LINE
  5
82
  8
0
 62
     0
 10
217.7778142028935
 20
272.1757526152159
 30
0.0
 11
217.8045155083938
 21
272.1800754591617
 31
0.0
  0
LINE
  5
83
  8
0
 62
     0
 10
217.7576652646288
 20
272.1630658795897
 30
0.0
 11
217.7778142028935
 21
272.1757526152159
 31
0.0
  0
LINE
  5
84
  8
0
 62
     0
 10
217.7509160043686
 20
272.1435062400433
 30
0.0
 11
217.7576652646288
 21
272.1630658795897
 31
0.0
  0
LINE
  5
85
  8
0
 62
     0
 10
217.761133872087
 20
272.1210356114633
 30
0.0
 11
217.7509160043686
 21
272.1435062400433
 31
0.0
  0
LINE
  5
86
  8
0
 62
     0
 10
217.7812333890937
 20
272.1107262555828
 30
0.0
 11
217.761133872087
 21
272.1210356114633
 31
0.0
  0
LINE
  5
87
  8
0
 62
     0
 10
217.9846227075446
 20
271.6663659951731
 30
0.0
 11
217.9816655557976
 21
271.8189959245784
 31
0.0
  0
LINE
  5
88
  8
0
 62
     0
 10
217.9952294508667
 20
271.6337652532879
 30
0.0
 11
217.9846227075446
 21
271.6663659951731
 31
0.0
  0
LINE
  5
89
  8
0
 62
     0
 10
217.9928104794213
 20
271.5272761553592
 30
0.0
 11
217.9952294508667
 21
271.6337652532879
 31
0.0
  0
LINE
  5
8A
  8
0
 62
     0
 10
218.0094825262756
 20
271.2739704998085
 30
0.0
 11
217.9928104794213
 21
271.5272761553592
 31
0.0
  0
LINE
  5
8B
  8
0
 62
     0
 10
218.0083793976426
 20
271.7017674107837
 30
0.0
 11
217.9513907358098
 21
271.9352739164216
 31
0.0
  0
LINE
  5
8C
  8
0
 62
     0
 10
218.0126313456172
 20
271.6420776644911
 30
0.0
 11
218.0083793976426
 21
271.7017674107837
 31
0.0
  0
LINE
  5
8D
  8
0
 62
     0
 10
218.0397301482868
 20
271.5765897682381
 30
0.0
 11
218.0126313456172
 21
271.6420776644911
 31
0.0
  0
LINE
  5
8E
  8
0
 62
     0
 10
218.0592675211127
 20
271.4957873238924
 30
0.0
 11
218.0397301482868
 21
271.5765897682381
 31
0.0
  0
LINE
  5
8F
  8
0
 62
     0
 10
218.1357648398481
 20
271.295501249311
 30
0.0
 11
218.0592675211127
 21
271.4957873238924
 31
0.0
  0
LINE
  5
90
  8
0
 62
     0
 10
218.154029886826
 20
271.2595988777437
 30
0.0
 11
218.1357648398481
 21
271.295501249311
 31
0.0
  0
LINE
  5
91
  8
0
 62
     0
 10
218.2634440941478
 20
271.2807173461359
 30
0.0
 11
218.2584555861268
 21
271.3123308741777
 31
0.0
  0
LINE
  5
92
  8
0
 62
     0
 10
218.2567189561682
 20
271.2723819893486
 30
0.0
 11
218.2634440941478
 21
271.2807173461359
 31
0.0
  0
LINE
  5
93
  8
0
 62
     0
 10
218.1906966205591
 20
271.2368714704786
 30
0.0
 11
218.2567189561682
 21
271.2723819893486
 31
0.0
  0
LINE
  5
94
  8
0
 62
     0
 10
218.1560348647206
 20
271.2371458996129
 30
0.0
 11
218.1572810063086
 21
271.2365100166041
 31
0.0
  0
LINE
  5
95
  8
0
 62
     0
 10
218.1517176100837
 20
271.2664479535574
 30
0.0
 11
218.1560348647206
 21
271.2371458996129
 31
0.0
  0
LINE
  5
96
  8
0
 62
     0
 10
218.1562443665175
 20
271.2643446605049
 30
0.0
 11
218.1517176100837
 21
271.2664479535574
 31
0.0
  0
LINE
  5
97
  8
0
 62
     0
 10
218.2407336153103
 20
271.2958152151411
 30
0.0
 11
218.1895818383123
 21
271.265913339075
 31
0.0
  0
LINE
  5
98
  8
0
 62
     0
 10
218.2612650782975
 20
271.3495737401194
 30
0.0
 11
218.2583515087426
 21
271.3229746295013
 31
0.0
  0
LINE
  5
99
  8
0
 62
     0
 10
218.186304344316
 20
271.5642291359769
 30
0.0
 11
218.2612650782975
 21
271.3495737401194
 31
0.0
  0
LINE
  5
9A
  8
0
 62
     0
 10
218.1725140256629
 20
271.5804108642199
 30
0.0
 11
218.186304344316
 21
271.5642291359769
 31
0.0
  0
LINE
  5
9B
  8
0
 62
     0
 10
218.1604633624456
 20
271.6417599564041
 30
0.0
 11
218.1725140256629
 21
271.5804108642199
 31
0.0
  0
LINE
  5
9C
  8
0
 62
     0
 10
218.1613555473992
 20
271.6747466321514
 30
0.0
 11
218.1604633624456
 21
271.6417599564041
 31
0.0
  0
LINE
  5
9D
  8
0
 62
     0
 10
218.1461713184572
 20
271.7429465651942
 30
0.0
 11
218.1613555473992
 21
271.6747466321514
 31
0.0
  0
LINE
  5
9E
  8
0
 62
     0
 10
218.1486796057017
 20
271.763610376116
 30
0.0
 11
218.1461713184572
 21
271.7429465651942
 31
0.0
  0
LINE
  5
9F
  8
0
 62
     0
 10
218.1113276570439
 20
272.0262305737243
 30
0.0
 11
218.1486796057017
 21
271.763610376116
 31
0.0
  0
LINE
  5
A0
  8
0
 62
     0
 10
218.1165090595746
 20
272.0805616436147
 30
0.0
 11
218.1113276570439
 21
272.0262305737243
 31
0.0
  0
LINE
  5
A1
  8
0
 62
     0
 10
218.0657900636147
 20
272.1741611388945
 30
0.0
 11
218.1165090595746
 21
272.0805616436147
 31
0.0
  0
LINE
  5
A2
  8
0
 62
     0
 10
217.7710439890934
 20
272.0923915404433
 30
0.0
 11
217.8452816203738
 21
272.1781939723814
 31
0.0
  0
LINE
  5
A3
  8
0
 62
     0
 10
217.8256811585061
 20
271.9111790618184
 30
0.0
 11
217.7710439890934
 21
272.0923915404433
 31
0.0
  0
LINE
  5
A4
  8
0
 62
     0
 10
217.7907675515304
 20
271.9071476313159
 30
0.0
 11
217.7902356495468
 21
272.0271178247734
 31
0.0
  0
LINE
  5
A5
  8
0
 62
     0
 10
217.8557229925634
 20
271.686490924301
 30
0.0
 11
217.7907675515304
 21
271.9071476313159
 31
0.0
  0
LINE
  5
A6
  8
0
 62
     0
 10
217.9237559252015
 20
271.5602762726025
 30
0.0
 11
217.8557229925634
 21
271.686490924301
 31
0.0
  0
LINE
  5
A7
  8
0
 62
     0
 10
217.8238412575699
 20
271.5645974646473
 30
0.0
 11
217.8074924471299
 21
271.8446888217522
 31
0.0
  0
LINE
  5
A8
  8
0
 62
     0
 10
217.8500510885728
 20
271.2765411366918
 30
0.0
 11
217.8238412575699
 21
271.5645974646473
 31
0.0
  0
LINE
  5
A9
  8
0
 62
     0
 10
217.8709851323989
 20
271.2723896831342
 30
0.0
 11
217.8500510885728
 21
271.2765411366918
 31
0.0
  0
LINE
  5
AA
  8
0
 62
     0
 10
218.012205094455
 20
271.2740015753475
 30
0.0
 11
217.8709851323989
 21
271.2723896831342
 31
0.0
  0
LINE
  5
AB
  8
0
 62
     0
 10
217.8487456115606
 20
271.2423234099933
 30
0.0
 11
218.0097683125047
 21
271.2423234099933
 31
0.0
  0
LINE
  5
AC
  8
0
 62
     0
 10
217.9282900302115
 20
272.5978247734139
 30
0.0
 11
217.9233595166163
 21
272.579335347432
 31
0.0
  0
SOLID
  5
AD
  8
0
 62
     0
 10
217.9948519637462
 20
272.6779456193353
 30
0.0
 11
218.0601812688822
 21
272.6865740181269
 31
0.0
 12
217.9689667673716
 22
272.7309486404834
 32
0.0
 13
218.0453897280967
 23
272.7383444108762
 33
0.0
  0
SOLID
  5
AE
  8
0
 62
     0
 10
217.9689667673716
 20
272.7309486404834
 30
0.0
 11
218.0453897280967
 21
272.7383444108762
 31
0.0
 12
217.9689667673716
 22
272.733413897281
 32
0.0
 13
218.0219697885196
 23
272.7716253776435
 33
0.0
  0
SOLID
  5
AF
  8
0
 62
     0
 10
217.9689667673716
 20
272.733413897281
 30
0.0
 11
218.0219697885196
 21
272.7716253776435
 31
0.0
 12
217.9677341389728
 22
272.733413897281
 32
0.0
 13
217.9997824773414
 23
272.7938126888217
 33
0.0
  0
SOLID
  5
B0
  8
0
 62
     0
 10
217.9677341389728
 20
272.733413897281
 30
0.0
 11
217.9997824773414
 21
272.7938126888217
 31
0.0
 12
217.9677341389728
 22
272.733413897281
 32
0.0
 13
217.9689667673716
 23
272.7999758308157
 33
0.0
  0
SOLID
  5
B1
  8
0
 62
     0
 10
217.9677341389728
 20
272.733413897281
 30
0.0
 11
217.9689667673716
 21
272.7999758308157
 31
0.0
 12
217.966501510574
 22
272.7321812688822
 32
0.0
 13
217.943081570997
 23
272.7975105740181
 33
0.0
  0
SOLID
  5
B2
  8
0
 62
     0
 10
217.966501510574
 20
272.7321812688822
 30
0.0
 11
217.943081570997
 21
272.7975105740181
 31
0.0
 12
217.9504773413897
 22
272.6791782477341
 32
0.0
 13
217.9233595166163
 23
272.7814864048339
 33
0.0
  0
SOLID
  5
B3
  8
0
 62
     0
 10
217.9504773413897
 20
272.6791782477341
 30
0.0
 11
217.9233595166163
 21
272.7814864048339
 31
0.0
 12
217.9245921450151
 22
272.668084592145
 32
0.0
 13
217.9024048338369
 23
272.7556012084592
 33
0.0
  0
SOLID
  5
B4
  8
0
 62
     0
 10
217.9245921450151
 20
272.668084592145
 30
0.0
 11
217.9024048338369
 21
272.7556012084592
 31
0.0
 12
217.9011722054381
 22
272.6853413897281
 32
0.0
 13
217.8950090634441
 23
272.7062960725075
 33
0.0
  0
SOLID
  5
B5
  8
0
 62
     0
 10
217.9011722054381
 20
272.6853413897281
 30
0.0
 11
217.8950090634441
 21
272.7062960725075
 31
0.0
 12
217.8937764350453
 22
272.6927371601208
 32
0.0
 13
217.8937764350453
 23
272.6927371601208
 33
0.0
  0
LINE
  5
B6
  8
0
 62
     0
 10
218.0080713686721
 20
272.5737494313292
 30
0.0
 11
218.0355287009064
 21
272.6187794561934
 31
0.0
  0
LINE
  5
B7
  8
0
 62
     0
 10
218.0355287009064
 20
272.6187794561934
 30
0.0
 11
218.0367613293051
 21
272.6298731117825
 31
0.0
  0
LINE
  5
B8
  8
0
 62
     0
 10
218.0367613293051
 20
272.6298731117825
 30
0.0
 11
218.0416918429003
 21
272.6372688821752
 31
0.0
  0
ARC
  5
B9
  8
0
 62
     0
 10
217.9978258145626
 20
272.5799967204204
 30
0.0
 40
0.012
 50
278.6742756485037
 51
328.6269948598915
  0
ARC
  5
BA
  8
0
 62
     0
 10
217.9885184978951
 20
272.6270141997297
 30
0.0
 40
0.0339276588052773
 50
225.4901161081457
 51
295.4686376995346
  0
ARC
  5
BB
  8
0
 62
     0
 10
217.9957620666408
 20
272.6075651757173
 30
0.0
 40
0.0133787073206017
 50
303.3035100372055
 51
355.0891025563203
  0
SOLID
  5
BC
  8
0
 62
     0
 10
218.0651117824773
 20
272.1738006042296
 30
0.0
 11
218.0675770392749
 21
272.1984531722055
 31
0.0
 12
217.9874561933535
 22
272.1639395770393
 32
0.0
 13
217.9849909365559
 23
272.1824290030211
 33
0.0
  0
SOLID
  5
BD
  8
0
 62
     0
 10
217.9874561933535
 20
272.1639395770393
 30
0.0
 11
217.9849909365559
 21
272.1824290030211
 31
0.0
 12
217.8913111782477
 22
272.171335347432
 32
0.0
 13
217.8937764350453
 23
272.1848942598187
 33
0.0
  0
SOLID
  5
BE
  8
0
 62
     0
 10
217.8913111782477
 20
272.171335347432
 30
0.0
 11
217.8937764350453
 21
272.1848942598187
 31
0.0
 12
217.8469365558912
 22
272.177498489426
 32
0.0
 13
217.8457039274925
 23
272.1972205438066
 33
0.0
  0
LINE
  5
BF
  8
0
 62
     0
 10
217.7754441087613
 20
272.2588519637462
 30
0.0
 11
217.8284471299094
 21
272.2477583081571
 31
0.0
  0
ARC
  5
C0
  8
0
 62
     0
 10
218.1138190360561
 20
272.1057767964537
 30
0.0
 40
0.028627250946424
 50
345.502411806576
 51
114.1855889435853
  0
SOLID
  5
C1
  8
0
 62
     0
 10
217.9948519637462
 20
271.2172809667674
 30
0.0
 11
218.0059456193353
 21
271.1815347432024
 31
0.0
 12
217.9591057401813
 22
271.1803021148036
 32
0.0
 13
217.9899214501511
 23
271.1482537764351
 33
0.0
  0
SOLID
  5
C2
  8
0
 62
     0
 10
217.9591057401813
 20
271.1803021148036
 30
0.0
 11
217.9899214501511
 21
271.1482537764351
 31
0.0
 12
217.8950090634441
 22
271.1605800604229
 32
0.0
 13
217.8592628398792
 23
271.1334622356496
 33
0.0
  0
SOLID
  5
C3
  8
0
 62
     0
 10
217.8950090634441
 20
271.1605800604229
 30
0.0
 11
217.8592628398792
 21
271.1334622356496
 31
0.0
 12
217.8604954682779
 22
271.1618126888217
 32
0.0
 13
217.8296797583081
 23
271.1457885196374
 33
0.0
  0
SOLID
  5
C4
  8
0
 62
     0
 10
217.8296797583081
 20
271.1470211480362
 30
0.0
 11
217.8284471299094
 21
271.1371601208459
 31
0.0
 12
217.8530996978852
 22
271.1322296072507
 32
0.0
 13
217.8530996978852
 23
271.1322296072507
 33
0.0
  0
ARC
  5
C5
  8
0
 62
     0
 10
217.852953612237
 20
271.2452364476314
 30
0.0
 40
0.082798093127692
 50
276.9418325286719
 51
357.7137976494105
  0
LINE
  5
C6
  8
0
 62
     0
 10
217.9936193353474
 20
271.2419335347432
 30
0.0
 11
217.9936193353474
 21
271.2185135951661
 31
0.0
  0
SOLID
  5
C7
  8
0
 62
     0
 10
218.2672628398792
 20
271.2591903323263
 30
0.0
 11
218.2845196374622
 21
271.237003021148
 31
0.0
 12
218.2882175226586
 22
271.1667432024169
 32
0.0
 13
218.2931480362538
 23
271.1692084592145
 33
0.0
  0
SOLID
  5
C8
  8
0
 62
     0
 10
218.2820543806646
 20
271.1938610271903
 30
0.0
 11
218.2882175226586
 21
271.1642779456193
 31
0.0
 12
218.2487734138973
 22
271.1778368580061
 32
0.0
 13
218.25616918429
 23
271.1494864048339
 33
0.0
  0
SOLID
  5
C9
  8
0
 62
     0
 10
218.2487734138973
 20
271.1778368580061
 30
0.0
 11
218.25616918429
 21
271.1494864048339
 31
0.0
 12
218.2376797583082
 22
271.1741389728097
 32
0.0
 13
218.2204229607251
 23
271.1457885196374
 33
0.0
  0
SOLID
  5
CA
  8
0
 62
     0
 10
218.2376797583082
 20
271.1741389728097
 30
0.0
 11
218.2204229607251
 21
271.1457885196374
 31
0.0
 12
218.2204229607251
 22
271.1778368580061
 32
0.0
 13
218.209329305136
 23
271.1815347432024
 33
0.0
  0
SOLID
  5
CB
  8
0
 62
     0
 10
218.2204229607251
 20
271.1778368580061
 30
0.0
 11
218.209329305136
 21
271.1815347432024
 31
0.0
 12
218.2142598187311
 22
271.2024894259819
 32
0.0
 13
218.2142598187311
 23
271.2024894259819
 33
0.0
  0
LINE
  5
CC
  8
0
 62
     0
 10
218.012205094455
 20
271.2740015753475
 30
0.0
 11
218.0097683125047
 21
271.2423234099933
 31
0.0
  0
ARC
  5
CD
  8
0
 62
     0
 10
218.1736439085642
 20
271.2685764387584
 30
0.0
 40
0.036
 50
242.9656199109742
 51
298.2738589552567
  0
ARC
  5
CE
  8
0
 62
     0
 10
218.1714137753782
 20
271.2969926165637
 30
0.0
 40
0.036
 50
245.0787324850783
 51
300.309343476122
  0
ARC
  5
CF
  8
0
 62
     0
 10
218.2940155901898
 20
271.3179421227944
 30
0.0
 40
0.036
 50
173.7489502862062
 51
188.9671418593342
  0
ARC
  5
D0
  8
0
 62
     0
 10
218.2225655523763
 20
271.3268944926298
 30
0.0
 40
0.036
 50
300.309343476122
 51
353.7489502862062
  0
ARC
  5
D1
  8
0
 62
     0
 10
217.8141151764356
 20
272.1222692541515
 30
0.0
 40
0.0314555542368251
 50
74.70733491993562
 51
202.4453338300592
  0
ARC
  5
D2
  8
0
 62
     0
 10
217.9881799122166
 20
272.6206455412856
 30
0.0
 40
0.0059601966073951
 50
92.72631099390082
 51
205.3461759419493
  0
SOLID
  5
D3
  8
0
 62
     0
 10
217.9666340914112
 20
272.6708246239508
 30
0.0
 11
217.9725875418969
 21
272.6708246239508
 31
0.0
 12
217.9666340914112
 22
272.6631701876121
 32
0.0
 13
217.97428852775
 23
272.6657216663916
 33
0.0
  0
SOLID
  5
D4
  8
0
 62
     0
 10
218.0176636670029
 20
272.6716751168773
 30
0.0
 11
218.0261685962682
 21
272.6708246239508
 31
0.0
 12
218.0185141599295
 22
272.6657216663916
 32
0.0
 13
218.0261685962682
 23
272.6674226522447
 33
0.0
  0
ARC
  5
D5
  8
0
 62
     0
 10
217.8926723223981
 20
272.685977918654
 30
0.0
 40
0.0070075899667502
 50
83.28520895278399
 51
192.7403660555838
  0
LINE
  5
D6
  8
0
 62
     0
 10
217.885837263391
 20
272.6844325107753
 30
0.0
 11
217.8943421926563
 21
272.648711807861
 31
0.0
  0
LINE
  5
D7
  8
0
 62
     0
 10
217.8943421926563
 20
272.648711807861
 30
0.0
 11
217.9028471219216
 21
272.6359544139631
 31
0.0
  0
SOLID
  5
D8
  8
0
 62
     0
 10
218.004906273105
 20
272.6784790602896
 30
0.0
 11
218.0542348628437
 21
272.6767780744365
 31
0.0
 12
218.0601883133294
 22
272.6861334966283
 32
0.0
 13
218.0601883133294
 23
272.6861334966283
 33
0.0
  0
LINE
  5
D9
  8
0
 62
     0
 10
218.0431784547988
 20
272.6648711734651
 30
0.0
 11
218.0397764830927
 21
272.6767780744365
 31
0.0
  0
ENDSEC
  0
EOF
