  0
SECTION
  2
HEADER
  9
$ACADVER
  1
AC1009
  9
$DWGCODEPAGE
  3
ansi_1252
  9
$INSBASE
 10
-12321.95960895933
 20
-4472.524842725426
 30
0.0
  9
$EXTMIN
 10
-12406.98497781441
 20
-4478.512544757473
 30
0.0
  9
$EXTMAX
 10
-11857.31393127248
 20
-2763.634682779174
 30
0.0
  9
$LIMMIN
 10
0.0
 20
0.0
  9
$LIMMAX
 10
12.0
 20
9.0
  9
$ORTHOMODE
 70
     0
  9
$REGENMODE
 70
     1
  9
$FILLMODE
 70
     1
  9
$QTEXTMODE
 70
     0
  9
$MIRRTEXT
 70
     1
  9
$DRAGMODE
 70
     2
  9
$LTSCALE
 40
1.0
  9
$OSMODE
 70
    37
  9
$ATTMODE
 70
     1
  9
$TEXTSIZE
 40
0.2
  9
$TRACEWID
 40
0.05
  9
$TEXTSTYLE
  7
STANDARD
  9
$CLAYER
  8
0
  9
$CELTYPE
  6
BYLAYER
  9
$CECOLOR
 62
   256
  9
$DIMSCALE
 40
1.0
  9
$DIMASZ
 40
0.18
  9
$DIMEXO
 40
0.0625
  9
$DIMDLI
 40
0.38
  9
$DIMRND
 40
0.0
  9
$DIMDLE
 40
0.0
  9
$DIMEXE
 40
0.18
  9
$DIMTP
 40
0.0
  9
$DIMTM
 40
0.0
  9
$DIMTXT
 40
0.18
  9
$DIMCEN
 40
0.09
  9
$DIMTSZ
 40
0.0
  9
$DIMTOL
 70
     0
  9
$DIMLIM
 70
     0
  9
$DIMTIH
 70
     1
  9
$DIMTOH
 70
     1
  9
$DIMSE1
 70
     0
  9
$DIMSE2
 70
     0
  9
$DIMTAD
 70
     0
  9
$DIMZIN
 70
     0
  9
$DIMBLK
  1

  9
$DIMASO
 70
     1
  9
$DIMSHO
 70
     1
  9
$DIMPOST
  1

  9
$DIMAPOST
  1

  9
$DIMALT
 70
     0
  9
$DIMALTD
 70
     2
  9
$DIMALTF
 40
25.4
  9
$DIMLFAC
 40
1.0
  9
$DIMTOFL
 70
     0
  9
$DIMTVP
 40
0.0
  9
$DIMTIX
 70
     0
  9
$DIMSOXD
 70
     0
  9
$DIMSAH
 70
     0
  9
$DIMBLK1
  1

  9
$DIMBLK2
  1

  9
$DIMSTYLE
  2
STANDARD
  9
$DIMCLRD
 70
     0
  9
$DIMCLRE
 70
     0
  9
$DIMCLRT
 70
     0
  9
$DIMTFAC
 40
1.0
  9
$DIMGAP
 40
0.09
  9
$LUNITS
 70
     2
  9
$LUPREC
 70
     2
  9
$SKETCHINC
 40
0.1
  9
$FILLETRAD
 40
0.0
  9
$AUNITS
 70
     0
  9
$AUPREC
 70
     0
  9
$MENU
  1
.
  9
$ELEVATION
 40
0.0
  9
$PELEVATION
 40
0.0
  9
$THICKNESS
 40
0.0
  9
$LIMCHECK
 70
     0
  9
$CHAMFERA
 40
0.5
  9
$CHAMFERB
 40
0.5
  9
$SKPOLY
 70
     0
  9
$TDCREATE
 40
2451109.617893981
  9
$TDUPDATE
 40
2457483.532916666
  9
$TDINDWG
 40
0.0688889699
  9
$TDUSRTIMER
 40
0.0688507755
  9
$USRTIMER
 70
     1
  9
$ANGBASE
 50
0.0
  9
$ANGDIR
 70
     0
  9
$PDMODE
 70
     0
  9
$PDSIZE
 40
0.0
  9
$PLINEWID
 40
0.0
  9
$COORDS
 70
     1
  9
$SPLFRAME
 70
     0
  9
$SPLINETYPE
 70
     6
  9
$SPLINESEGS
 70
     8
  9
$ATTDIA
 70
     0
  9
$ATTREQ
 70
     1
  9
$HANDLING
 70
     1
  9
$HANDSEED
  5
263
  9
$SURFTAB1
 70
     6
  9
$SURFTAB2
 70
     6
  9
$SURFTYPE
 70
     6
  9
$SURFU
 70
     6
  9
$SURFV
 70
     6
  9
$UCSNAME
  2

  9
$UCSORG
 10
0.0
 20
0.0
 30
0.0
  9
$UCSXDIR
 10
1.0
 20
0.0
 30
0.0
  9
$UCSYDIR
 10
0.0
 20
1.0
 30
0.0
  9
$PUCSNAME
  2

  9
$PUCSORG
 10
0.0
 20
0.0
 30
0.0
  9
$PUCSXDIR
 10
1.0
 20
0.0
 30
0.0
  9
$PUCSYDIR
 10
0.0
 20
1.0
 30
0.0
  9
$USERI1
 70
     0
  9
$USERI2
 70
     0
  9
$USERI3
 70
     0
  9
$USERI4
 70
     0
  9
$USERI5
 70
     0
  9
$USERR1
 40
0.0
  9
$USERR2
 40
0.0
  9
$USERR3
 40
0.0
  9
$USERR4
 40
0.0
  9
$USERR5
 40
0.0
  9
$WORLDVIEW
 70
     1
  9
$SHADEDGE
 70
     3
  9
$SHADEDIF
 70
    70
  9
$TILEMODE
 70
     1
  9
$MAXACTVP
 70
    48
  9
$PLIMCHECK
 70
     0
  9
$PEXTMIN
 10
1.000000000000000E+20
 20
1.000000000000000E+20
 30
1.000000000000000E+20
  9
$PEXTMAX
 10
-1.000000000000000E+20
 20
-1.000000000000000E+20
 30
-1.000000000000000E+20
  9
$PLIMMIN
 10
0.0
 20
0.0
  9
$PLIMMAX
 10
12.0
 20
9.0
  9
$UNITMODE
 70
     0
  9
$VISRETAIN
 70
     1
  9
$PLINEGEN
 70
     0
  9
$PSLTSCALE
 70
     1
  0
ENDSEC
  0
SECTION
  2
TABLES
  0
TABLE
  2
VPORT
 70
     1
  0
VPORT
  2
*ACTIVE
 70
     0
 10
0.0
 20
0.0
 11
1.0
 21
1.0
 12
-12132.11713185905
 22
-3306.635720508382
 13
0.0
 23
0.0
 14
0.5
 24
0.5
 15
0.5
 25
0.5
 16
0.0
 26
0.0
 36
1.0
 17
0.0
 27
0.0
 37
0.0
 40
2373.194685847821
 41
1.376889848812095
 42
50.0
 43
0.0
 44
0.0
 50
0.0
 51
0.0
 71
     0
 72
   100
 73
     1
 74
     3
 75
     0
 76
     0
 77
     0
 78
     0
  0
ENDTAB
  0
TABLE
  2
LTYPE
 70
     1
  0
LTYPE
  2
CONTINUOUS
 70
     0
  3
Solid line
 72
    65
 73
     0
 40
0.0
  0
ENDTAB
  0
TABLE
  2
LAYER
 70
     1
  0
LAYER
  2
0
 70
     0
 62
     7
  6
CONTINUOUS
  0
ENDTAB
  0
TABLE
  2
STYLE
 70
     1
  0
STYLE
  2
STANDARD
 70
     0
 40
0.0
 41
1.0
 50
0.0
 71
     0
 42
0.2
  3
txt
  4

  0
ENDTAB
  0
TABLE
  2
VIEW
 70
     0
  0
ENDTAB
  0
TABLE
  2
UCS
 70
     0
  0
ENDTAB
  0
TABLE
  2
APPID
 70
     1
  0
APPID
  2
ACAD
 70
     0
  0
ENDTAB
  0
TABLE
  2
DIMSTYLE
 70
     1
  0
DIMSTYLE
  2
STANDARD
 70
     0
  3

  4

  5

  6

  7

 40
1.0
 41
0.18
 42
0.0625
 43
0.38
 44
0.18
 45
0.0
 46
0.0
 47
0.0
 48
0.0
140
0.18
141
0.09
142
0.0
143
25.4
144
1.0
145
0.0
146
1.0
147
0.09
 71
     0
 72
     0
 73
     1
 74
     1
 75
     0
 76
     0
 77
     0
 78
     0
170
     0
171
     2
172
     0
173
     0
174
     0
175
     0
176
     0
177
     0
178
     0
  0
ENDTAB
  0
ENDSEC
  0
SECTION
  2
BLOCKS
  0
BLOCK
  8
0
  2
$MODEL_SPACE
 70
     0
 10
0.0
 20
0.0
 30
0.0
  3
$MODEL_SPACE
  1

  0
ENDBLK
  5
F
  8
0
  0
BLOCK
 67
     1
  8
0
  2
$PAPER_SPACE
 70
     0
 10
0.0
 20
0.0
 30
0.0
  3
$PAPER_SPACE
  1

  0
ENDBLK
  5
15
 67
     1
  8
0
  0
ENDSEC
  0
SECTION
  2
ENTITIES
  0
POLYLINE
  5
31
  8
0
 62
     0
 66
     1
 10
0.0
 20
0.0
 30
0.0
  0
VERTEX
  5
184
  8
0
 62
     0
 10
-12050.1179367044
 20
-2776.807627249678
 30
0.0
  0
VERTEX
  5
185
  8
0
 62
     0
 10
-12113.58757824409
 20
-2763.634682779174
 30
0.0
  0
VERTEX
  5
186
  8
0
 62
     0
 10
-12166.27935612611
 20
-2785.190410094544
 30
0.0
  0
VERTEX
  5
187
  8
0
 62
     0
 10
-12196.21786628634
 20
-2840.277268789378
 30
0.0
  0
VERTEX
  5
188
  8
0
 62
     0
 10
-12195.02032587994
 20
-2910.932152767534
 30
0.0
  0
VERTEX
  5
189
  8
0
 62
     0
 10
-12179.45230059661
 20
-2942.068203334179
 30
0.0
  0
VERTEX
  5
18A
  8
0
 62
     0
 10
-12165.0818157197
 20
-2942.068203334179
 30
0.0
  0
VERTEX
  5
18B
  8
0
 62
     0
 10
-12157.89657328124
 20
-2982.7845771521
 30
0.0
  0
VERTEX
  5
18C
  8
0
 62
     0
 10
-12135.14330555946
 20
-3000.747683248241
 30
0.0
  0
VERTEX
  5
18D
  8
0
 62
     0
 10
-12137.53838637228
 20
-3022.303410563611
 30
0.0
  0
VERTEX
  5
18E
  8
0
 62
     0
 10
-12145.92116921715
 20
-3024.69849137643
 30
0.0
  0
VERTEX
  5
18F
  8
0
 62
     0
 10
-12149.51379043638
 20
-3046.254218691799
 30
0.0
  0
VERTEX
  5
190
  8
0
 62
     0
 10
-12184.24246222225
 20
-3061.822243975122
 30
0.0
  0
VERTEX
  5
191
  8
0
 62
     0
 10
-12227.35391685299
 20
-3086.97059250972
 30
0.0
  0
VERTEX
  5
192
  8
0
 62
     0
 10
-12228.5514572594
 20
-3079.785350071263
 30
0.0
  0
VERTEX
  5
193
  8
0
 62
     0
 10
-12301.60142205037
 20
-3066.612405600759
 30
0.0
  0
VERTEX
  5
194
  8
0
 62
     0
 10
-12296.81126042474
 20
-3034.278814627705
 30
0.0
  0
VERTEX
  5
195
  8
0
 62
     0
 10
-12232.14407847863
 20
-2942.068203334179
 30
0.0
  0
VERTEX
  5
196
  8
0
 62
     0
 10
-12235.73669969786
 20
-2934.882960895723
 30
0.0
  0
VERTEX
  5
197
  8
0
 62
     0
 10
-12217.77359360171
 20
-2926.500178050856
 30
0.0
  0
VERTEX
  5
198
  8
0
 62
     0
 10
-12192.62524506712
 20
-2920.512476018809
 30
0.0
  0
VERTEX
  5
199
  8
0
 62
     0
 10
-12193.82278547353
 20
-2915.722314393171
 30
0.0
  0
VERTEX
  5
19A
  8
0
 62
     0
 10
-12210.58835116326
 20
-2909.734612361124
 30
0.0
  0
VERTEX
  5
19B
  8
0
 62
     0
 10
-12210.58835116326
 20
-2904.944450735486
 30
0.0
  0
VERTEX
  5
19C
  8
0
 62
     0
 10
-12209.39081075685
 20
-2902.549369922668
 30
0.0
  0
VERTEX
  5
19D
  8
0
 62
     0
 10
-12195.02032587994
 20
-2884.586263826526
 30
0.0
  0
VERTEX
  5
19E
  8
0
 62
     0
 10
-12196.21786628634
 20
-2870.215778949613
 30
0.0
  0
VERTEX
  5
19F
  8
0
 62
     0
 10
-12205.79818953762
 20
-2869.018238543204
 30
0.0
  0
VERTEX
  5
1A0
  8
0
 62
     0
 10
-12235.73669969786
 20
-2880.993642607298
 30
0.0
  0
VERTEX
  5
1A1
  8
0
 62
     0
 10
-12266.8727502645
 20
-2914.524773986762
 30
0.0
  0
VERTEX
  5
1A2
  8
0
 62
     0
 10
-12271.66291189014
 20
-2913.327233580353
 30
0.0
  0
VERTEX
  5
1A3
  8
0
 62
     0
 10
-12350.70057871316
 20
-3000.747683248241
 30
0.0
  0
VERTEX
  5
1A4
  8
0
 62
     0
 10
-12406.98497781441
 20
-3074.995188445625
 30
0.0
  0
VERTEX
  5
1A5
  8
0
 62
     0
 10
-12390.21941212467
 20
-3106.13123901227
 30
0.0
  0
VERTEX
  5
1A6
  8
0
 62
     0
 10
-12362.67598277725
 20
-3132.477127953278
 30
0.0
  0
VERTEX
  5
1A7
  8
0
 62
     0
 10
-12246.51456335554
 20
-3189.95906746093
 30
0.0
  0
VERTEX
  5
1A8
  8
0
 62
     0
 10
-12238.13178051067
 20
-3206.724633150662
 30
0.0
  0
VERTEX
  5
1A9
  8
0
 62
     0
 10
-12250.10718457477
 20
-3279.774597941637
 30
0.0
  0
VERTEX
  5
1AA
  8
0
 62
     0
 10
-12220.16867441453
 20
-3322.886052572377
 30
0.0
  0
VERTEX
  5
1AB
  8
0
 62
     0
 10
-12218.97113400812
 20
-3437.849931587682
 30
0.0
  0
VERTEX
  5
1AC
  8
0
 62
     0
 10
-12251.30472498118
 20
-3601.912967265773
 30
0.0
  0
VERTEX
  5
1AD
  8
0
 62
     0
 10
-12259.68750782605
 20
-3842.618588954067
 30
0.0
  0
VERTEX
  5
1AE
  8
0
 62
     0
 10
-12232.14407847863
 20
-3851.001371798934
 30
0.0
  0
VERTEX
  5
1AF
  8
0
 62
     0
 10
-12227.35391685299
 20
-4027.039811541119
 30
0.0
  0
VERTEX
  5
1B0
  8
0
 62
     0
 10
-12216.57605319531
 20
-4072.546346984677
 30
0.0
  0
VERTEX
  5
1B1
  8
0
 62
     0
 10
-12205.79818953762
 20
-4367.141286961396
 30
0.0
  0
VERTEX
  5
1B2
  8
0
 62
     0
 10
-12232.14407847863
 20
-4400.672418340861
 30
0.0
  0
VERTEX
  5
1B3
  8
0
 62
     0
 10
-12262.08258863886
 20
-4425.820766875459
 30
0.0
  0
VERTEX
  5
1B4
  8
0
 62
     0
 10
-12321.95960895933
 20
-4458.154357848513
 30
0.0
  0
VERTEX
  5
1B5
  8
0
 62
     0
 10
-12321.95960895933
 20
-4472.524842725426
 30
0.0
  0
VERTEX
  5
1B6
  8
0
 62
     0
 10
-12262.08258863886
 20
-4478.512544757473
 30
0.0
  0
VERTEX
  5
1B7
  8
0
 62
     0
 10
-12236.93424010426
 20
-4473.722383131835
 30
0.0
  0
VERTEX
  5
1B8
  8
0
 62
     0
 10
-12217.77359360171
 20
-4450.969115410056
 30
0.0
  0
VERTEX
  5
1B9
  8
0
 62
     0
 10
-12186.63754303507
 20
-4448.574034597237
 30
0.0
  0
VERTEX
  5
1BA
  8
0
 62
     0
 10
-12187.83508344148
 20
-4473.722383131835
 30
0.0
  0
VERTEX
  5
1BB
  8
0
 62
     0
 10
-12184.24246222225
 20
-4476.117463944654
 30
0.0
  0
VERTEX
  5
1BC
  8
0
 62
     0
 10
-12179.45230059661
 20
-4476.117463944654
 30
0.0
  0
VERTEX
  5
1BD
  8
0
 62
     0
 10
-12151.9088712492
 20
-4434.203549720324
 30
0.0
  0
VERTEX
  5
1BE
  8
0
 62
     0
 10
-12149.51379043638
 20
-4409.055201185726
 30
0.0
  0
VERTEX
  5
1BF
  8
0
 62
     0
 10
-12149.51379043638
 20
-4397.079797121633
 30
0.0
  0
VERTEX
  5
1C0
  8
0
 62
     0
 10
-12155.50149246842
 20
-4393.487175902404
 30
0.0
  0
VERTEX
  5
1C1
  8
0
 62
     0
 10
-12162.68673490688
 20
-4324.029832330657
 30
0.0
  0
VERTEX
  5
1C2
  8
0
 62
     0
 10
-12136.34084596587
 20
-4207.868412908942
 30
0.0
  0
VERTEX
  5
1C3
  8
0
 62
     0
 10
-12130.35314393383
 20
-4125.238124866692
 30
0.0
  0
VERTEX
  5
1C4
  8
0
 62
     0
 10
-12141.13100759151
 20
-4050.990619669307
 30
0.0
  0
VERTEX
  5
1C5
  8
0
 62
     0
 10
-12133.94576515305
 20
-4012.669326664206
 30
0.0
  0
VERTEX
  5
1C6
  8
0
 62
     0
 10
-12119.57528027614
 20
-3860.581695050209
 30
0.0
  0
VERTEX
  5
1C7
  8
0
 62
     0
 10
-12093.22939133514
 20
-3862.976775863028
 30
0.0
  0
VERTEX
  5
1C8
  8
0
 62
     0
 10
-12077.66136605181
 20
-3858.18661423739
 30
0.0
  0
VERTEX
  5
1C9
  8
0
 62
     0
 10
-12059.69825995567
 20
-4007.879165038568
 30
0.0
  0
VERTEX
  5
1CA
  8
0
 62
     0
 10
-12057.30317914285
 20
-4064.163564139812
 30
0.0
  0
VERTEX
  5
1CB
  8
0
 62
     0
 10
-12054.90809833003
 20
-4112.065180396188
 30
0.0
  0
VERTEX
  5
1CC
  8
0
 62
     0
 10
-12054.90809833003
 20
-4183.917604780754
 30
0.0
  0
VERTEX
  5
1CD
  8
0
 62
     0
 10
-12046.52531548517
 20
-4303.671645421697
 30
0.0
  0
VERTEX
  5
1CE
  8
0
 62
     0
 10
-12039.34007304671
 20
-4365.943746554987
 30
0.0
  0
VERTEX
  5
1CF
  8
0
 62
     0
 10
-12044.13023467235
 20
-4404.265039560089
 30
0.0
  0
VERTEX
  5
1D0
  8
0
 62
     0
 10
-12057.30317914285
 20
-4447.376494190828
 30
0.0
  0
VERTEX
  5
1D1
  8
0
 62
     0
 10
-12041.73515385953
 20
-4478.512544757473
 30
0.0
  0
VERTEX
  5
1D2
  8
0
 62
     0
 10
-11979.46305272624
 20
-4474.919923538245
 30
0.0
  0
VERTEX
  5
1D3
  8
0
 62
     0
 10
-11971.08026988137
 20
-4448.574034597237
 30
0.0
  0
VERTEX
  5
1D4
  8
0
 62
     0
 10
-11992.63599719674
 20
-4383.906852651128
 30
0.0
  0
VERTEX
  5
1D5
  8
0
 62
     0
 10
-11995.03107800956
 20
-4340.795398020389
 30
0.0
  0
VERTEX
  5
1D6
  8
0
 62
     0
 10
-11975.87043150701
 20
-4203.078251283305
 30
0.0
  0
VERTEX
  5
1D7
  8
0
 62
     0
 10
-11980.66059313265
 20
-4101.287316738503
 30
0.0
  0
VERTEX
  5
1D8
  8
0
 62
     0
 10
-11974.6728911006
 20
-4011.471786257796
 30
0.0
  0
VERTEX
  5
1D9
  8
0
 62
     0
 10
-11972.27781028778
 20
-3957.582467969372
 30
0.0
  0
VERTEX
  5
1DA
  8
0
 62
     0
 10
-11956.70978500446
 20
-3843.816129360477
 30
0.0
  0
VERTEX
  5
1DB
  8
0
 62
     0
 10
-11938.74667890832
 20
-3841.421048547658
 30
0.0
  0
VERTEX
  5
1DC
  8
0
 62
     0
 10
-11935.15405768909
 20
-3798.309593916919
 30
0.0
  0
VERTEX
  5
1DD
  8
0
 62
     0
 10
-11913.59833037372
 20
-3799.507134323329
 30
0.0
  0
VERTEX
  5
1DE
  8
0
 62
     0
 10
-11870.48687574298
 20
-3730.049790751581
 30
0.0
  0
VERTEX
  5
1DF
  8
0
 62
     0
 10
-11857.31393127248
 20
-3703.703901810574
 30
0.0
  0
VERTEX
  5
1E0
  8
0
 62
     0
 10
-11859.7090120853
 20
-3551.616270196577
 30
0.0
  0
VERTEX
  5
1E1
  8
0
 62
     0
 10
-11899.22784549681
 20
-3533.653164100436
 30
0.0
  0
VERTEX
  5
1E2
  8
0
 62
     0
 10
-11900.42538590322
 20
-3554.011351009396
 30
0.0
  0
VERTEX
  5
1E3
  8
0
 62
     0
 10
-11901.62292630962
 20
-3501.319573127381
 30
0.0
  0
VERTEX
  5
1E4
  8
0
 62
     0
 10
-11890.84506265194
 20
-3434.257310368453
 30
0.0
  0
VERTEX
  5
1E5
  8
0
 62
     0
 10
-11876.47457777503
 20
-3368.392588015935
 30
0.0
  0
VERTEX
  5
1E6
  8
0
 62
     0
 10
-11913.59833037372
 20
-3137.267289578916
 30
0.0
  0
VERTEX
  5
1E7
  8
0
 62
     0
 10
-11971.08026988137
 20
-3078.587809664853
 30
0.0
  0
VERTEX
  5
1E8
  8
0
 62
     0
 10
-12040.53761345312
 20
-3051.044380317437
 30
0.0
  0
VERTEX
  5
1E9
  8
0
 62
     0
 10
-12046.52531548517
 20
-3024.69849137643
 30
0.0
  0
VERTEX
  5
1EA
  8
0
 62
     0
 10
-12057.30317914285
 20
-3021.105870157201
 30
0.0
  0
VERTEX
  5
1EB
  8
0
 62
     0
 10
-12063.2908811749
 20
-3003.14276406106
 30
0.0
  0
VERTEX
  5
1EC
  8
0
 62
     0
 10
-12050.1179367044
 20
-2983.982117558509
 30
0.0
  0
VERTEX
  5
1ED
  8
0
 62
     0
 10
-12041.73515385953
 20
-2944.463284146998
 30
0.0
  0
VERTEX
  5
1EE
  8
0
 62
     0
 10
-12028.56220938903
 20
-2949.253445772635
 30
0.0
  0
VERTEX
  5
1EF
  8
0
 62
     0
 10
-12004.61140126084
 20
-2894.166587077802
 30
0.0
  0
VERTEX
  5
1F0
  8
0
 62
     0
 10
-12020.17942654416
 20
-2823.511703099646
 30
0.0
  0
VERTEX
  5
1F1
  8
0
 62
     0
 10
-12050.1179367044
 20
-2776.807627249678
 30
0.0
  0
SEQEND
  5
261
  8
0
 62
     0
  0
POLYLINE
  5
A1
  8
0
 62
     0
 66
     1
 10
0.0
 20
0.0
 30
0.0
  0
VERTEX
  5
1F2
  8
0
 62
     0
 10
-12050.1179367044
 20
-2776.807627249678
 30
0.0
  0
VERTEX
  5
1F3
  8
0
 62
     0
 10
-12113.58757824409
 20
-2763.634682779174
 30
0.0
  0
VERTEX
  5
1F4
  8
0
 62
     0
 10
-12166.27935612611
 20
-2785.190410094544
 30
0.0
  0
VERTEX
  5
1F5
  8
0
 62
     0
 10
-12196.21786628634
 20
-2840.277268789378
 30
0.0
  0
VERTEX
  5
1F6
  8
0
 62
     0
 10
-12195.02032587994
 20
-2910.932152767534
 30
0.0
  0
VERTEX
  5
1F7
  8
0
 62
     0
 10
-12179.45230059661
 20
-2942.068203334179
 30
0.0
  0
VERTEX
  5
1F8
  8
0
 62
     0
 10
-12165.0818157197
 20
-2942.068203334179
 30
0.0
  0
VERTEX
  5
1F9
  8
0
 62
     0
 10
-12157.89657328124
 20
-2982.7845771521
 30
0.0
  0
VERTEX
  5
1FA
  8
0
 62
     0
 10
-12135.14330555946
 20
-3000.747683248241
 30
0.0
  0
VERTEX
  5
1FB
  8
0
 62
     0
 10
-12137.53838637228
 20
-3022.303410563611
 30
0.0
  0
VERTEX
  5
1FC
  8
0
 62
     0
 10
-12145.92116921715
 20
-3024.69849137643
 30
0.0
  0
VERTEX
  5
1FD
  8
0
 62
     0
 10
-12149.51379043638
 20
-3046.254218691799
 30
0.0
  0
VERTEX
  5
1FE
  8
0
 62
     0
 10
-12184.24246222225
 20
-3061.822243975122
 30
0.0
  0
VERTEX
  5
1FF
  8
0
 62
     0
 10
-12227.35391685299
 20
-3086.97059250972
 30
0.0
  0
VERTEX
  5
200
  8
0
 62
     0
 10
-12228.5514572594
 20
-3079.785350071263
 30
0.0
  0
VERTEX
  5
201
  8
0
 62
     0
 10
-12301.60142205037
 20
-3066.612405600759
 30
0.0
  0
VERTEX
  5
202
  8
0
 62
     0
 10
-12296.81126042474
 20
-3034.278814627705
 30
0.0
  0
VERTEX
  5
203
  8
0
 62
     0
 10
-12232.14407847863
 20
-2942.068203334179
 30
0.0
  0
VERTEX
  5
204
  8
0
 62
     0
 10
-12235.73669969786
 20
-2934.882960895723
 30
0.0
  0
VERTEX
  5
205
  8
0
 62
     0
 10
-12217.77359360171
 20
-2926.500178050856
 30
0.0
  0
VERTEX
  5
206
  8
0
 62
     0
 10
-12192.62524506712
 20
-2920.512476018809
 30
0.0
  0
VERTEX
  5
207
  8
0
 62
     0
 10
-12193.82278547353
 20
-2915.722314393171
 30
0.0
  0
VERTEX
  5
208
  8
0
 62
     0
 10
-12210.58835116326
 20
-2909.734612361124
 30
0.0
  0
VERTEX
  5
209
  8
0
 62
     0
 10
-12210.58835116326
 20
-2904.944450735486
 30
0.0
  0
VERTEX
  5
20A
  8
0
 62
     0
 10
-12209.39081075685
 20
-2902.549369922668
 30
0.0
  0
VERTEX
  5
20B
  8
0
 62
     0
 10
-12195.02032587994
 20
-2884.586263826526
 30
0.0
  0
VERTEX
  5
20C
  8
0
 62
     0
 10
-12196.21786628634
 20
-2870.215778949613
 30
0.0
  0
VERTEX
  5
20D
  8
0
 62
     0
 10
-12205.79818953762
 20
-2869.018238543204
 30
0.0
  0
VERTEX
  5
20E
  8
0
 62
     0
 10
-12235.73669969786
 20
-2880.993642607298
 30
0.0
  0
VERTEX
  5
20F
  8
0
 62
     0
 10
-12266.8727502645
 20
-2914.524773986762
 30
0.0
  0
VERTEX
  5
210
  8
0
 62
     0
 10
-12271.66291189014
 20
-2913.327233580353
 30
0.0
  0
VERTEX
  5
211
  8
0
 62
     0
 10
-12350.70057871316
 20
-3000.747683248241
 30
0.0
  0
VERTEX
  5
212
  8
0
 62
     0
 10
-12406.98497781441
 20
-3074.995188445625
 30
0.0
  0
VERTEX
  5
213
  8
0
 62
     0
 10
-12390.21941212467
 20
-3106.13123901227
 30
0.0
  0
VERTEX
  5
214
  8
0
 62
     0
 10
-12362.67598277725
 20
-3132.477127953278
 30
0.0
  0
VERTEX
  5
215
  8
0
 62
     0
 10
-12246.51456335554
 20
-3189.95906746093
 30
0.0
  0
VERTEX
  5
216
  8
0
 62
     0
 10
-12238.13178051067
 20
-3206.724633150662
 30
0.0
  0
VERTEX
  5
217
  8
0
 62
     0
 10
-12250.10718457477
 20
-3279.774597941637
 30
0.0
  0
VERTEX
  5
218
  8
0
 62
     0
 10
-12220.16867441453
 20
-3322.886052572377
 30
0.0
  0
VERTEX
  5
219
  8
0
 62
     0
 10
-12218.97113400812
 20
-3437.849931587682
 30
0.0
  0
VERTEX
  5
21A
  8
0
 62
     0
 10
-12251.30472498118
 20
-3601.912967265773
 30
0.0
  0
VERTEX
  5
21B
  8
0
 62
     0
 10
-12259.68750782605
 20
-3842.618588954067
 30
0.0
  0
VERTEX
  5
21C
  8
0
 62
     0
 10
-12232.14407847863
 20
-3851.001371798934
 30
0.0
  0
VERTEX
  5
21D
  8
0
 62
     0
 10
-12227.35391685299
 20
-4027.039811541119
 30
0.0
  0
VERTEX
  5
21E
  8
0
 62
     0
 10
-12216.57605319531
 20
-4072.546346984677
 30
0.0
  0
VERTEX
  5
21F
  8
0
 62
     0
 10
-12205.79818953762
 20
-4367.141286961396
 30
0.0
  0
VERTEX
  5
220
  8
0
 62
     0
 10
-12232.14407847863
 20
-4400.672418340861
 30
0.0
  0
VERTEX
  5
221
  8
0
 62
     0
 10
-12262.08258863886
 20
-4425.820766875459
 30
0.0
  0
VERTEX
  5
222
  8
0
 62
     0
 10
-12321.95960895933
 20
-4458.154357848513
 30
0.0
  0
VERTEX
  5
223
  8
0
 62
     0
 10
-12321.95960895933
 20
-4472.524842725426
 30
0.0
  0
VERTEX
  5
224
  8
0
 62
     0
 10
-12262.08258863886
 20
-4478.512544757473
 30
0.0
  0
VERTEX
  5
225
  8
0
 62
     0
 10
-12236.93424010426
 20
-4473.722383131835
 30
0.0
  0
VERTEX
  5
226
  8
0
 62
     0
 10
-12217.77359360171
 20
-4450.969115410056
 30
0.0
  0
VERTEX
  5
227
  8
0
 62
     0
 10
-12186.63754303507
 20
-4448.574034597237
 30
0.0
  0
VERTEX
  5
228
  8
0
 62
     0
 10
-12187.83508344148
 20
-4473.722383131835
 30
0.0
  0
VERTEX
  5
229
  8
0
 62
     0
 10
-12184.24246222225
 20
-4476.117463944654
 30
0.0
  0
VERTEX
  5
22A
  8
0
 62
     0
 10
-12179.45230059661
 20
-4476.117463944654
 30
0.0
  0
VERTEX
  5
22B
  8
0
 62
     0
 10
-12151.9088712492
 20
-4434.203549720324
 30
0.0
  0
VERTEX
  5
22C
  8
0
 62
     0
 10
-12149.51379043638
 20
-4409.055201185726
 30
0.0
  0
VERTEX
  5
22D
  8
0
 62
     0
 10
-12149.51379043638
 20
-4397.079797121633
 30
0.0
  0
VERTEX
  5
22E
  8
0
 62
     0
 10
-12155.50149246842
 20
-4393.487175902404
 30
0.0
  0
VERTEX
  5
22F
  8
0
 62
     0
 10
-12162.68673490688
 20
-4324.029832330657
 30
0.0
  0
VERTEX
  5
230
  8
0
 62
     0
 10
-12136.34084596587
 20
-4207.868412908942
 30
0.0
  0
VERTEX
  5
231
  8
0
 62
     0
 10
-12130.35314393383
 20
-4125.238124866692
 30
0.0
  0
VERTEX
  5
232
  8
0
 62
     0
 10
-12141.13100759151
 20
-4050.990619669307
 30
0.0
  0
VERTEX
  5
233
  8
0
 62
     0
 10
-12133.94576515305
 20
-4012.669326664206
 30
0.0
  0
VERTEX
  5
234
  8
0
 62
     0
 10
-12119.57528027614
 20
-3860.581695050209
 30
0.0
  0
VERTEX
  5
235
  8
0
 62
     0
 10
-12093.22939133514
 20
-3862.976775863028
 30
0.0
  0
VERTEX
  5
236
  8
0
 62
     0
 10
-12077.66136605181
 20
-3858.18661423739
 30
0.0
  0
VERTEX
  5
237
  8
0
 62
     0
 10
-12059.69825995567
 20
-4007.879165038568
 30
0.0
  0
VERTEX
  5
238
  8
0
 62
     0
 10
-12057.30317914285
 20
-4064.163564139812
 30
0.0
  0
VERTEX
  5
239
  8
0
 62
     0
 10
-12054.90809833003
 20
-4112.065180396188
 30
0.0
  0
VERTEX
  5
23A
  8
0
 62
     0
 10
-12054.90809833003
 20
-4183.917604780754
 30
0.0
  0
VERTEX
  5
23B
  8
0
 62
     0
 10
-12046.52531548517
 20
-4303.671645421697
 30
0.0
  0
VERTEX
  5
23C
  8
0
 62
     0
 10
-12039.34007304671
 20
-4365.943746554987
 30
0.0
  0
VERTEX
  5
23D
  8
0
 62
     0
 10
-12044.13023467235
 20
-4404.265039560089
 30
0.0
  0
VERTEX
  5
23E
  8
0
 62
     0
 10
-12057.30317914285
 20
-4447.376494190828
 30
0.0
  0
VERTEX
  5
23F
  8
0
 62
     0
 10
-12041.73515385953
 20
-4478.512544757473
 30
0.0
  0
VERTEX
  5
240
  8
0
 62
     0
 10
-11979.46305272624
 20
-4474.919923538245
 30
0.0
  0
VERTEX
  5
241
  8
0
 62
     0
 10
-11971.08026988137
 20
-4448.574034597237
 30
0.0
  0
VERTEX
  5
242
  8
0
 62
     0
 10
-11992.63599719674
 20
-4383.906852651128
 30
0.0
  0
VERTEX
  5
243
  8
0
 62
     0
 10
-11995.03107800956
 20
-4340.795398020389
 30
0.0
  0
VERTEX
  5
244
  8
0
 62
     0
 10
-11975.87043150701
 20
-4203.078251283305
 30
0.0
  0
VERTEX
  5
245
  8
0
 62
     0
 10
-11980.66059313265
 20
-4101.287316738503
 30
0.0
  0
VERTEX
  5
246
  8
0
 62
     0
 10
-11974.6728911006
 20
-4011.471786257796
 30
0.0
  0
VERTEX
  5
247
  8
0
 62
     0
 10
-11972.27781028778
 20
-3957.582467969372
 30
0.0
  0
VERTEX
  5
248
  8
0
 62
     0
 10
-11956.70978500446
 20
-3843.816129360477
 30
0.0
  0
VERTEX
  5
249
  8
0
 62
     0
 10
-11938.74667890832
 20
-3841.421048547658
 30
0.0
  0
VERTEX
  5
24A
  8
0
 62
     0
 10
-11935.15405768909
 20
-3798.309593916919
 30
0.0
  0
VERTEX
  5
24B
  8
0
 62
     0
 10
-11913.59833037372
 20
-3799.507134323329
 30
0.0
  0
VERTEX
  5
24C
  8
0
 62
     0
 10
-11870.48687574298
 20
-3730.049790751581
 30
0.0
  0
VERTEX
  5
24D
  8
0
 62
     0
 10
-11857.31393127248
 20
-3703.703901810574
 30
0.0
  0
VERTEX
  5
24E
  8
0
 62
     0
 10
-11859.7090120853
 20
-3551.616270196577
 30
0.0
  0
VERTEX
  5
24F
  8
0
 62
     0
 10
-11899.22784549681
 20
-3533.653164100436
 30
0.0
  0
VERTEX
  5
250
  8
0
 62
     0
 10
-11900.42538590322
 20
-3554.011351009396
 30
0.0
  0
VERTEX
  5
251
  8
0
 62
     0
 10
-11901.62292630962
 20
-3501.319573127381
 30
0.0
  0
VERTEX
  5
252
  8
0
 62
     0
 10
-11890.84506265194
 20
-3434.257310368453
 30
0.0
  0
VERTEX
  5
253
  8
0
 62
     0
 10
-11876.47457777503
 20
-3368.392588015935
 30
0.0
  0
VERTEX
  5
254
  8
0
 62
     0
 10
-11913.59833037372
 20
-3137.267289578916
 30
0.0
  0
VERTEX
  5
255
  8
0
 62
     0
 10
-11971.08026988137
 20
-3078.587809664853
 30
0.0
  0
VERTEX
  5
256
  8
0
 62
     0
 10
-12040.53761345312
 20
-3051.044380317437
 30
0.0
  0
VERTEX
  5
257
  8
0
 62
     0
 10
-12046.52531548517
 20
-3024.69849137643
 30
0.0
  0
VERTEX
  5
258
  8
0
 62
     0
 10
-12057.30317914285
 20
-3021.105870157201
 30
0.0
  0
VERTEX
  5
259
  8
0
 62
     0
 10
-12063.2908811749
 20
-3003.14276406106
 30
0.0
  0
VERTEX
  5
25A
  8
0
 62
     0
 10
-12050.1179367044
 20
-2983.982117558509
 30
0.0
  0
VERTEX
  5
25B
  8
0
 62
     0
 10
-12041.73515385953
 20
-2944.463284146998
 30
0.0
  0
VERTEX
  5
25C
  8
0
 62
     0
 10
-12028.56220938903
 20
-2949.253445772635
 30
0.0
  0
VERTEX
  5
25D
  8
0
 62
     0
 10
-12004.61140126084
 20
-2894.166587077802
 30
0.0
  0
VERTEX
  5
25E
  8
0
 62
     0
 10
-12020.17942654416
 20
-2823.511703099646
 30
0.0
  0
VERTEX
  5
25F
  8
0
 62
     0
 10
-12050.1179367044
 20
-2776.807627249678
 30
0.0
  0
VERTEX
  5
260
  8
0
 62
     0
 10
-12050.1179367044
 20
-2776.807627249678
 30
0.0
  0
SEQEND
  5
262
  8
0
 62
     0
  0
ENDSEC
  0
EOF
