  0
SECTION
  2
HEADER
  9
$ACADVER
  1
AC1009
  9
$DWGCODEPAGE
  3
ansi_1252
  9
$INSBASE
 10
9.793657399541518
 20
0.019394904703349
 30
0.0
  9
$EXTMIN
 10
9.881660866476569
 20
0.0078243888040875
 30
0.0
  9
$EXTMAX
 10
10.27853667693687
 20
1.24193529470332
 30
0.0
  9
$LIMMIN
 10
0.0
 20
0.0
  9
$LIMMAX
 10
0.0
 20
0.0
  9
$ORTHOMODE
 70
     0
  9
$REGENMODE
 70
     1
  9
$FILLMODE
 70
     1
  9
$QTEXTMODE
 70
     0
  9
$MIRRTEXT
 70
     1
  9
$DRAGMODE
 70
     2
  9
$LTSCALE
 40
0.000394
  9
$OSMODE
 70
    37
  9
$ATTMODE
 70
     1
  9
$TEXTSIZE
 40
0.2
  9
$TRACEWID
 40
0.05
  9
$TEXTSTYLE
  7
STANDARD
  9
$CLAYER
  8
0
  9
$CELTYPE
  6
CONTINUOUS
  9
$CECOLOR
 62
   256
  9
$DIMSCALE
 40
1.0
  9
$DIMASZ
 40
0.18
  9
$DIMEXO
 40
0.0625
  9
$DIMDLI
 40
0.38
  9
$DIMRND
 40
0.0
  9
$DIMDLE
 40
0.0
  9
$DIMEXE
 40
0.18
  9
$DIMTP
 40
0.0
  9
$DIMTM
 40
0.0
  9
$DIMTXT
 40
0.18
  9
$DIMCEN
 40
0.09
  9
$DIMTSZ
 40
0.0
  9
$DIMTOL
 70
     0
  9
$DIMLIM
 70
     0
  9
$DIMTIH
 70
     1
  9
$DIMTOH
 70
     1
  9
$DIMSE1
 70
     0
  9
$DIMSE2
 70
     0
  9
$DIMTAD
 70
     0
  9
$DIMZIN
 70
     0
  9
$DIMBLK
  1

  9
$DIMASO
 70
     1
  9
$DIMSHO
 70
     1
  9
$DIMPOST
  1

  9
$DIMAPOST
  1

  9
$DIMALT
 70
     0
  9
$DIMALTD
 70
     2
  9
$DIMALTF
 40
25.4
  9
$DIMLFAC
 40
1.0
  9
$DIMTOFL
 70
     0
  9
$DIMTVP
 40
0.0
  9
$DIMTIX
 70
     0
  9
$DIMSOXD
 70
     0
  9
$DIMSAH
 70
     0
  9
$DIMBLK1
  1

  9
$DIMBLK2
  1

  9
$DIMSTYLE
  2
STANDARD
  9
$DIMCLRD
 70
     0
  9
$DIMCLRE
 70
     0
  9
$DIMCLRT
 70
     0
  9
$DIMTFAC
 40
1.0
  9
$DIMGAP
 40
0.09
  9
$LUNITS
 70
     2
  9
$LUPREC
 70
     4
  9
$SKETCHINC
 40
0.1
  9
$FILLETRAD
 40
0.0
  9
$AUNITS
 70
     0
  9
$AUPREC
 70
     0
  9
$MENU
  1
icad
  9
$ELEVATION
 40
0.0
  9
$PELEVATION
 40
0.0
  9
$THICKNESS
 40
0.0
  9
$LIMCHECK
 70
     0
  9
$CHAMFERA
 40
0.0
  9
$CHAMFERB
 40
0.0
  9
$SKPOLY
 70
     0
  9
$TDCREATE
 40
2444971.875
  9
$TDUPDATE
 40
2457483.532916666
  9
$TDINDWG
 40
0.0011020486
  9
$TDUSRTIMER
 40
0.0065071528
  9
$USRTIMER
 70
     1
  9
$ANGBASE
 50
0.0
  9
$ANGDIR
 70
     0
  9
$PDMODE
 70
    35
  9
$PDSIZE
 40
0.000315
  9
$PLINEWID
 40
0.0
  9
$COORDS
 70
     1
  9
$SPLFRAME
 70
     0
  9
$SPLINETYPE
 70
     6
  9
$SPLINESEGS
 70
     8
  9
$ATTDIA
 70
     0
  9
$ATTREQ
 70
     1
  9
$HANDLING
 70
     1
  9
$HANDSEED
  5
177
  9
$SURFTAB1
 70
     6
  9
$SURFTAB2
 70
     6
  9
$SURFTYPE
 70
     6
  9
$SURFU
 70
     6
  9
$SURFV
 70
     6
  9
$UCSNAME
  2

  9
$UCSORG
 10
0.0
 20
0.0
 30
0.0
  9
$UCSXDIR
 10
1.0
 20
0.0
 30
0.0
  9
$UCSYDIR
 10
0.0
 20
1.0
 30
0.0
  9
$PUCSNAME
  2

  9
$PUCSORG
 10
0.0
 20
0.0
 30
0.0
  9
$PUCSXDIR
 10
1.0
 20
0.0
 30
0.0
  9
$PUCSYDIR
 10
0.0
 20
1.0
 30
0.0
  9
$USERI1
 70
     0
  9
$USERI2
 70
     0
  9
$USERI3
 70
     0
  9
$USERI4
 70
     0
  9
$USERI5
 70
     0
  9
$USERR1
 40
0.0
  9
$USERR2
 40
0.0
  9
$USERR3
 40
0.0
  9
$USERR4
 40
0.0
  9
$USERR5
 40
0.0
  9
$WORLDVIEW
 70
     1
  9
$SHADEDGE
 70
     3
  9
$SHADEDIF
 70
    70
  9
$TILEMODE
 70
     1
  9
$MAXACTVP
 70
    64
  9
$PLIMCHECK
 70
     0
  9
$PEXTMIN
 10
1.000000000000000E+20
 20
1.000000000000000E+20
 30
1.000000000000000E+20
  9
$PEXTMAX
 10
-1.000000000000000E+20
 20
-1.000000000000000E+20
 30
-1.000000000000000E+20
  9
$PLIMMIN
 10
0.0
 20
0.0
  9
$PLIMMAX
 10
12.0
 20
9.0
  9
$UNITMODE
 70
     0
  9
$VISRETAIN
 70
     0
  9
$PLINEGEN
 70
     1
  9
$PSLTSCALE
 70
     0
  0
ENDSEC
  0
SECTION
  2
TABLES
  0
TABLE
  2
VPORT
 70
     1
  0
VPORT
  2
*ACTIVE
 70
     0
 10
0.0
 20
0.0
 11
1.0
 21
1.0
 12
10.18722483748884
 22
0.6248798417537035
 13
0.0
 23
0.0
 14
0.5
 24
0.5
 15
0.5
 25
0.5
 16
0.0
 26
0.0
 36
1.0
 17
0.0
 27
0.0
 37
0.0
 40
1.259165839890403
 41
1.503537735849057
 42
50.0
 43
0.0
 44
0.0
 50
0.0
 51
0.0
 71
     0
 72
   100
 73
     1
 74
     1
 75
     0
 76
     0
 77
     0
 78
     0
  0
ENDTAB
  0
TABLE
  2
LTYPE
 70
     1
  0
LTYPE
  2
CONTINUOUS
 70
     0
  3
CONTINUOUS
 72
    65
 73
     0
 40
0.0
  0
ENDTAB
  0
TABLE
  2
LAYER
 70
     1
  0
LAYER
  2
0
 70
     0
 62
     7
  6
CONTINUOUS
  0
ENDTAB
  0
TABLE
  2
STYLE
 70
     1
  0
STYLE
  2
STANDARD
 70
     0
 40
0.0
 41
1.0
 50
0.0
 71
     0
 42
0.2
  3
txt
  4

  0
ENDTAB
  0
TABLE
  2
VIEW
 70
     0
  0
ENDTAB
  0
TABLE
  2
UCS
 70
     0
  0
ENDTAB
  0
TABLE
  2
APPID
 70
     2
  0
APPID
  2
ACAD
 70
     0
  0
APPID
  2
DCO15
 70
     0
  0
ENDTAB
  0
TABLE
  2
DIMSTYLE
 70
     1
  0
DIMSTYLE
  2
STANDARD
 70
     0
  3

  4

  5

  6

  7

 40
1.0
 41
0.18
 42
0.0625
 43
0.38
 44
0.18
 45
0.0
 46
0.0
 47
0.0
 48
0.0
140
0.18
141
0.09
142
0.0
143
25.4
144
1.0
145
0.0
146
1.0
147
0.09
 71
     0
 72
     0
 73
     1
 74
     1
 75
     0
 76
     0
 77
     0
 78
     0
170
     0
171
     2
172
     0
173
     0
174
     0
175
     0
176
     0
177
     0
178
     0
  0
ENDTAB
  0
ENDSEC
  0
SECTION
  2
BLOCKS
  0
BLOCK
  8
0
  2
$MODEL_SPACE
 70
     0
 10
0.0
 20
0.0
 30
0.0
  3
$MODEL_SPACE
  1

  0
ENDBLK
  5
1B
  8
0
  0
BLOCK
 67
     1
  8
0
  2
$PAPER_SPACE
 70
     0
 10
0.0
 20
0.0
 30
0.0
  3
$PAPER_SPACE
  1

  0
ENDBLK
  5
18
 67
     1
  8
0
  0
ENDSEC
  0
SECTION
  2
ENTITIES
  0
LINE
  5
37
  8
0
 10
10.27853667693687
 20
1.182531640989759
 30
0.0
 11
10.27853667693687
 21
1.188032419323634
 31
0.0
  0
LINE
  5
38
  8
0
 10
10.27853667693687
 20
1.188032419323634
 30
0.0
 11
10.27853667693687
 21
1.192872332009947
 31
0.0
  0
LINE
  5
39
  8
0
 10
10.27853667693687
 20
1.192872332009947
 30
0.0
 11
10.27853667693687
 21
1.197382554418148
 31
0.0
  0
LINE
  5
3A
  8
0
 10
10.27259631156551
 20
1.176591275618402
 30
0.0
 11
10.25994481841587
 21
1.204368424094863
 31
0.0
  0
LINE
  5
3B
  8
0
 10
10.25994481841587
 20
1.204368424094863
 30
0.0
 11
10.24267469118999
 21
1.220594532106723
 31
0.0
  0
LINE
  5
3C
  8
0
 10
10.24267469118999
 20
1.220594532106723
 30
0.0
 11
10.2339839366517
 21
1.231539655303446
 31
0.0
  0
LINE
  5
3D
  8
0
 10
10.25329012410861
 20
1.16471054487569
 30
0.0
 11
10.25928543785965
 21
1.169110870524522
 31
0.0
  0
LINE
  5
3E
  8
0
 10
10.25928543785965
 20
1.169110870524522
 30
0.0
 11
10.2656104418888
 21
1.173181505895244
 31
0.0
  0
LINE
  5
3F
  8
0
 10
10.2656104418888
 20
1.173181505895244
 30
0.0
 11
10.27259631156551
 21
1.176591275618402
 31
0.0
  0
LINE
  5
40
  8
0
 10
10.22804357128034
 20
1.222629107246412
 30
0.0
 11
10.22105770160363
 21
1.22559928993209
 31
0.0
  0
LINE
  5
41
  8
0
 10
10.22105770160363
 20
1.22559928993209
 30
0.0
 11
10.21473269757448
 21
1.228569472617768
 31
0.0
  0
LINE
  5
42
  8
0
 10
10.21473269757448
 20
1.228569472617768
 30
0.0
 11
10.20873738382344
 21
1.231539655303446
 31
0.0
  0
LINE
  5
43
  8
0
 10
10.22804357128034
 20
1.176591275618402
 30
0.0
 11
10.22804357128034
 21
1.192487693352151
 31
0.0
  0
LINE
  5
44
  8
0
 10
10.22804357128034
 20
1.192487693352151
 30
0.0
 11
10.22804357128034
 21
1.207723245438337
 31
0.0
  0
LINE
  5
45
  8
0
 10
10.22804357128034
 20
1.207723245438337
 30
0.0
 11
10.22804357128034
 21
1.222629107246412
 31
0.0
  0
LINE
  5
46
  8
0
 10
10.24883485008009
 20
1.146889448761622
 30
0.0
 11
10.24443452443126
 21
1.163170505153166
 31
0.0
  0
LINE
  5
47
  8
0
 10
10.24443452443126
 20
1.163170505153166
 30
0.0
 11
10.23838426230053
 21
1.171200394043897
 31
0.0
  0
LINE
  5
48
  8
0
 10
10.23838426230053
 20
1.171200394043897
 30
0.0
 11
10.22804357128034
 21
1.176591275618402
 31
0.0
  0
LINE
  5
49
  8
0
 10
10.06022824953953
 20
1.05778396819128
 30
0.0
 11
10.06770865463341
 21
1.05778396819128
 31
0.0
  0
LINE
  5
4A
  8
0
 10
10.06770865463341
 20
1.05778396819128
 30
0.0
 11
10.0755187500054
 21
1.05778396819128
 31
0.0
  0
LINE
  5
4B
  8
0
 10
10.0755187500054
 20
1.05778396819128
 30
0.0
 11
10.08398971102496
 21
1.05778396819128
 31
0.0
  0
LINE
  5
4C
  8
0
 10
10.23843921068022
 20
1.161740362190012
 30
0.0
 11
10.21440300729637
 21
1.16256607297663
 31
0.0
  0
LINE
  5
4D
  8
0
 10
10.21440300729637
 20
1.16256607297663
 30
0.0
 11
10.20554740761902
 21
1.161410671911902
 31
0.0
  0
LINE
  5
4E
  8
0
 10
10.20554740761902
 20
1.161410671911902
 30
0.0
 11
10.20428210979492
 21
1.157285088161495
 31
0.0
  0
LINE
  5
4F
  8
0
 10
10.18646101368085
 20
0.946402117478353
 30
0.0
 11
10.21478764595416
 21
1.016421204110528
 31
0.0
  0
LINE
  5
50
  8
0
 10
10.21478764595416
 20
1.016421204110528
 30
0.0
 11
10.23387403989233
 21
1.090730719632164
 31
0.0
  0
LINE
  5
51
  8
0
 10
10.23387403989233
 20
1.090730719632164
 30
0.0
 11
10.23843921068022
 21
1.161740362190012
 31
0.0
  0
LINE
  5
52
  8
0
 10
10.10923626385322
 20
0.9389766607641579
 30
0.0
 11
10.11809186353057
 21
0.9554225622947573
 31
0.0
  0
LINE
  5
53
  8
0
 10
10.11809186353057
 20
0.9554225622947573
 30
0.0
 11
10.13057702644982
 21
0.9626282254902122
 31
0.0
  0
LINE
  5
54
  8
0
 10
10.13057702644982
 20
0.9626282254902122
 30
0.0
 11
10.14339336473852
 21
0.9731337616494555
 31
0.0
  0
LINE
  5
55
  8
0
 10
10.13448281668149
 20
0.9864995837350068
 30
0.0
 11
10.13899303908969
 21
0.9845749053546874
 31
0.0
  0
LINE
  5
56
  8
0
 10
10.13899303908969
 20
0.9845749053546874
 30
0.0
 11
10.143832951776
 21
0.9819893613268047
 31
0.0
  0
LINE
  5
57
  8
0
 10
10.143832951776
 20
0.9819893613268047
 30
0.0
 11
10.14933373010988
 21
0.9790741270208116
 31
0.0
  0
LINE
  5
58
  8
0
 10
10.05874315819669
 20
0.9345213867356408
 30
0.0
 11
10.08695989371064
 21
0.9486579712281256
 31
0.0
  0
LINE
  5
59
  8
0
 10
10.08695989371064
 20
0.9486579712281256
 30
0.0
 11
10.1122064465389
 21
0.9654335630368351
 31
0.0
  0
LINE
  5
5A
  8
0
 10
10.1122064465389
 20
0.9654335630368351
 30
0.0
 11
10.13448281668149
 21
0.9864995837350068
 31
0.0
  0
LINE
  5
5B
  8
0
 10
10.15378900413839
 20
0.9864995837350068
 30
0.0
 11
10.18415021155139
 21
1.0725249848603
 31
0.0
  0
LINE
  5
5C
  8
0
 10
10.18415021155139
 20
1.0725249848603
 30
0.0
 11
10.19768236386734
 21
1.15788952033803
 31
0.0
  0
LINE
  5
5D
  8
0
 10
10.19768236386734
 20
1.15788952033803
 30
0.0
 11
10.19834174442356
 21
1.24193529470332
 31
0.0
  0
LINE
  5
5E
  8
0
 10
10.06913879759657
 20
1.066694516248314
 30
0.0
 11
10.11187675626079
 21
1.039303491520991
 31
0.0
  0
LINE
  5
5F
  8
0
 10
10.11187675626079
 20
1.039303491520991
 30
0.0
 11
10.13877324557095
 21
1.003990989570965
 31
0.0
  0
LINE
  5
60
  8
0
 10
10.13877324557095
 20
1.003990989570965
 30
0.0
 11
10.15378900413839
 21
0.9864995837350068
 31
0.0
  0
LINE
  5
61
  8
0
 10
10.04686242745398
 20
0.9374915694213188
 30
0.0
 11
10.00148397638219
 21
0.9808889086417608
 31
0.0
  0
LINE
  5
62
  8
0
 10
10.00148397638219
 20
0.9808889086417608
 30
0.0
 11
10.02145102948666
 21
1.029237542399228
 31
0.0
  0
LINE
  5
63
  8
0
 10
10.02145102948666
 20
1.029237542399228
 30
0.0
 11
10.06913879759657
 21
1.066694516248314
 31
0.0
  0
LINE
  5
64
  8
0
 10
9.916174389284148
 20
1.026597049991661
 30
0.0
 11
9.92068461169235
 21
1.027642554297019
 31
0.0
  0
LINE
  5
65
  8
0
 10
9.92068461169235
 20
1.027642554297019
 30
0.0
 11
9.925524524378663
 21
1.028027192954814
 31
0.0
  0
LINE
  5
66
  8
0
 10
9.925524524378663
 20
1.028027192954814
 30
0.0
 11
9.931025302712538
 21
1.0280821413345
 31
0.0
  0
LINE
  5
67
  8
0
 10
9.91171911525563
 20
0.8840282810791139
 30
0.0
 11
9.910234023912793
 21
0.934851077013751
 31
0.0
  0
LINE
  5
68
  8
0
 10
9.910234023912793
 20
0.934851077013751
 30
0.0
 11
9.909739488495626
 21
0.9827036902627102
 31
0.0
  0
LINE
  5
69
  8
0
 10
9.909739488495626
 20
0.9827036902627102
 30
0.0
 11
9.916174389284148
 21
1.026597049991661
 31
0.0
  0
LINE
  5
6A
  8
0
 10
9.96072712956932
 20
0.7162129593383038
 30
0.0
 11
9.96072712956932
 21
0.7280387417013309
 31
0.0
  0
LINE
  5
6B
  8
0
 10
9.96072712956932
 20
0.7280387417013309
 30
0.0
 11
9.96072712956932
 21
0.7395348337862478
 31
0.0
  0
LINE
  5
6C
  8
0
 10
9.96072712956932
 20
0.7395348337862478
 30
0.0
 11
9.96072712956932
 21
0.7503700602236013
 31
0.0
  0
LINE
  5
6D
  8
0
 10
9.941420942112412
 20
1.093426160419417
 30
0.0
 11
9.937791378870514
 21
1.030447891843642
 31
0.0
  0
LINE
  5
6E
  8
0
 10
9.937791378870514
 20
1.030447891843642
 30
0.0
 11
9.9599014187827
 21
0.9588872803976007
 31
0.0
  0
LINE
  5
6F
  8
0
 10
9.9599014187827
 20
0.9588872803976007
 30
0.0
 11
9.985973682397583
 21
0.88996864645047
 31
0.0
  0
LINE
  5
70
  8
0
 10
9.956271855540802
 20
0.7162129593383038
 30
0.0
 11
9.946565298524007
 21
0.7610345011565284
 31
0.0
  0
LINE
  5
71
  8
0
 10
9.946565298524007
 20
0.7610345011565284
 30
0.0
 11
9.929167453442647
 21
0.8207411135040287
 31
0.0
  0
LINE
  5
72
  8
0
 10
9.929167453442647
 20
0.8207411135040287
 30
0.0
 11
9.910211747542649
 21
0.888214753574577
 31
0.0
  0
LINE
  5
73
  8
0
 10
9.910211747542649
 20
0.888214753574577
 30
0.0
 11
9.895828637887252
 21
0.9563388636532889
 31
0.0
  0
LINE
  5
74
  8
0
 10
9.895828637887252
 20
0.9563388636532889
 30
0.0
 11
9.892148581539697
 21
1.017993915842594
 31
0.0
  0
LINE
  5
75
  8
0
 10
9.892148581539697
 20
1.017993915842594
 30
0.0
 11
9.905302035563224
 21
1.066061867336265
 31
0.0
  0
LINE
  5
76
  8
0
 10
9.905302035563224
 20
1.066061867336265
 30
0.0
 11
9.941420942112412
 21
1.093426160419417
 31
0.0
  0
LINE
  5
77
  8
0
 10
10.16418464353827
 20
0.5469125462546545
 30
0.0
 11
10.16418464353827
 21
0.5542830545891646
 31
0.0
  0
LINE
  5
78
  8
0
 10
10.16418464353827
 20
0.5542830545891646
 30
0.0
 11
10.16418464353827
 21
0.5613238726455645
 31
0.0
  0
LINE
  5
79
  8
0
 10
10.16418464353827
 20
0.5613238726455645
 30
0.0
 11
10.16418464353827
 21
0.5677038250544009
 31
0.0
  0
LINE
  5
7A
  8
0
 10
10.11369153788174
 20
0.4578070656843129
 30
0.0
 11
10.1122064465389
 21
0.4711728877698642
 31
0.0
  0
LINE
  5
7B
  8
0
 10
10.1122064465389
 20
0.4711728877698642
 30
0.0
 11
10.11072135519606
 21
0.4845387098554154
 31
0.0
  0
LINE
  5
7C
  8
0
 10
10.11072135519606
 20
0.4845387098554154
 30
0.0
 11
10.10923626385322
 21
0.4979045319409667
 31
0.0
  0
LINE
  5
7D
  8
0
 10
10.09438535042483
 20
0.460777248369991
 30
0.0
 11
10.09950000500957
 21
0.4744178123539674
 31
0.0
  0
LINE
  5
7E
  8
0
 10
10.09950000500957
 20
0.4744178123539674
 30
0.0
 11
10.1006554060743
 21
0.48673813013416
 31
0.0
  0
LINE
  5
7F
  8
0
 10
10.1006554060743
 20
0.48673813013416
 30
0.0
 11
10.09884062445335
 21
0.5083001713408399
 31
0.0
  0
LINE
  5
80
  8
0
 10
10.14933373010988
 20
0.4340456041988884
 30
0.0
 11
10.14933373010988
 21
0.4458713865619157
 31
0.0
  0
LINE
  5
81
  8
0
 10
10.14933373010988
 20
0.4458713865619157
 30
0.0
 11
10.14933373010988
 21
0.4573674786468326
 31
0.0
  0
LINE
  5
82
  8
0
 10
10.14933373010988
 20
0.4573674786468326
 30
0.0
 11
10.14933373010988
 21
0.4682027050841861
 31
0.0
  0
LINE
  5
83
  8
0
 10
9.971122768969192
 20
0.4370157868845665
 30
0.0
 11
9.977118082720233
 21
0.4365761998470862
 31
0.0
  0
LINE
  5
84
  8
0
 10
9.977118082720233
 20
0.4365761998470862
 30
0.0
 11
9.983443086749386
 21
0.4354757471620425
 31
0.0
  0
LINE
  5
85
  8
0
 10
9.983443086749386
 20
0.4354757471620425
 30
0.0
 11
9.9904289564261
 21
0.4340456041988884
 31
0.0
  0
LINE
  5
86
  8
0
 10
9.962212220912159
 20
0.4385008782274055
 30
0.0
 11
9.957811895263326
 21
0.4399859695702446
 31
0.0
  0
LINE
  5
87
  8
0
 10
9.957811895263326
 20
0.4399859695702446
 30
0.0
 11
9.953741259892604
 21
0.4414710609130836
 31
0.0
  0
LINE
  5
88
  8
0
 10
9.953741259892604
 20
0.4414710609130836
 30
0.0
 11
9.950331490169445
 21
0.4429561522559226
 31
0.0
  0
LINE
  5
89
  8
0
 10
9.965182403597836
 20
0.4236499647990152
 30
0.0
 11
9.963752260634683
 21
0.429150743132891
 31
0.0
  0
LINE
  5
8A
  8
0
 10
9.963752260634683
 20
0.429150743132891
 30
0.0
 11
9.962651807949639
 21
0.4339906558192034
 31
0.0
  0
LINE
  5
8B
  8
0
 10
9.962651807949639
 20
0.4339906558192034
 30
0.0
 11
9.962212220912159
 21
0.4385008782274055
 31
0.0
  0
LINE
  5
8C
  8
0
 10
10.15081882145271
 20
0.3687015851139713
 30
0.0
 11
10.15125840849019
 21
0.3835524985423615
 31
0.0
  0
LINE
  5
8D
  8
0
 10
10.15125840849019
 20
0.3835524985423615
 30
0.0
 11
10.15235886117524
 21
0.3984034119707517
 31
0.0
  0
LINE
  5
8E
  8
0
 10
10.15235886117524
 20
0.3984034119707517
 30
0.0
 11
10.15378900413839
 21
0.413254325399142
 31
0.0
  0
LINE
  5
8F
  8
0
 10
10.12408717728161
 20
0.3642463110854541
 30
0.0
 11
10.13299772533865
 21
0.3657314024282933
 31
0.0
  0
LINE
  5
90
  8
0
 10
10.13299772533865
 20
0.3657314024282933
 30
0.0
 11
10.14190827339568
 21
0.3672164937711321
 31
0.0
  0
LINE
  5
91
  8
0
 10
10.14190827339568
 20
0.3672164937711321
 30
0.0
 11
10.15081882145271
 21
0.3687015851139713
 31
0.0
  0
LINE
  5
92
  8
0
 10
10.14339336473852
 20
0.3761270418281663
 30
0.0
 11
10.14760508378681
 21
0.4431967370534625
 31
0.0
  0
LINE
  5
93
  8
0
 10
10.14760508378681
 20
0.4431967370534625
 30
0.0
 11
10.15230391279555
 21
0.5105976076482118
 31
0.0
  0
LINE
  5
94
  8
0
 10
10.15230391279555
 20
0.5105976076482118
 30
0.0
 11
10.15728193897675
 21
0.5781024346369599
 31
0.0
  0
LINE
  5
95
  8
0
 10
10.15728193897675
 20
0.5781024346369599
 30
0.0
 11
10.16232827935972
 21
0.645485484135595
 31
0.0
  0
LINE
  5
96
  8
0
 10
10.16232827935972
 20
0.645485484135595
 30
0.0
 11
10.1672365062478
 21
0.7125210222600058
 31
0.0
  0
LINE
  5
97
  8
0
 10
10.1672365062478
 20
0.7125210222600058
 30
0.0
 11
10.17179573667032
 21
0.778981830034738
 31
0.0
  0
LINE
  5
98
  8
0
 10
10.17179573667032
 20
0.778981830034738
 30
0.0
 11
10.17579805783927
 21
0.84464217357568
 31
0.0
  0
LINE
  5
99
  8
0
 10
10.17579805783927
 20
0.84464217357568
 30
0.0
 11
10.17903555696665
 21
0.9092748339073773
 31
0.0
  0
LINE
  5
9A
  8
0
 10
10.1196319032531
 20
0.3672164937711321
 30
0.0
 11
10.12711230834697
 21
0.3701866764568102
 31
0.0
  0
LINE
  5
9B
  8
0
 10
10.12711230834697
 20
0.3701866764568102
 30
0.0
 11
10.13492240371897
 21
0.3731568591424883
 31
0.0
  0
LINE
  5
9C
  8
0
 10
10.13492240371897
 20
0.3731568591424883
 30
0.0
 11
10.14339336473852
 21
0.3761270418281663
 31
0.0
  0
LINE
  5
9D
  8
0
 10
10.09141516773915
 20
0.4518667003129568
 30
0.0
 11
10.08849993343316
 21
0.4429012038762376
 31
0.0
  0
LINE
  5
9E
  8
0
 10
10.08849993343316
 20
0.4429012038762376
 30
0.0
 11
10.08591438940528
 21
0.4336060171614081
 31
0.0
  0
LINE
  5
9F
  8
0
 10
10.08591438940528
 20
0.4336060171614081
 30
0.0
 11
10.08398971102496
 21
0.4236499647990152
 31
0.0
  0
LINE
  5
A0
  8
0
 10
10.11369153788174
 20
0.4533517916557958
 30
0.0
 11
10.10626608116754
 21
0.4532968432761107
 31
0.0
  0
LINE
  5
A1
  8
0
 10
10.10626608116754
 20
0.4532968432761107
 30
0.0
 11
10.09884062445335
 21
0.4529122046183153
 31
0.0
  0
LINE
  5
A2
  8
0
 10
10.09884062445335
 20
0.4529122046183153
 30
0.0
 11
10.09141516773915
 21
0.4518667003129568
 31
0.0
  0
LINE
  5
A3
  8
0
 10
10.11369153788174
 20
0.3642463110854541
 30
0.0
 11
10.10544037038093
 21
0.3926278917384509
 31
0.0
  0
LINE
  5
A4
  8
0
 10
10.10544037038093
 20
0.3926278917384509
 30
0.0
 11
10.10907141871417
 21
0.4289309496141508
 31
0.0
  0
LINE
  5
A5
  8
0
 10
10.10907141871417
 20
0.4289309496141508
 30
0.0
 11
10.11369153788174
 21
0.4533517916557958
 31
0.0
  0
LINE
  5
A6
  8
0
 10
10.10181080713903
 20
0.3642463110854541
 30
0.0
 11
10.09290025908199
 21
0.36270627136293
 31
0.0
  0
LINE
  5
A7
  8
0
 10
10.09290025908199
 20
0.36270627136293
 30
0.0
 11
10.08398971102496
 21
0.3608365413622957
 31
0.0
  0
LINE
  5
A8
  8
0
 10
10.08398971102496
 20
0.3608365413622957
 30
0.0
 11
10.07507916296792
 21
0.358305945714098
 31
0.0
  0
LINE
  5
A9
  8
0
 10
10.10923626385322
 20
0.353850671685581
 30
0.0
 11
10.10632102954723
 21
0.3578663586766176
 31
0.0
  0
LINE
  5
AA
  8
0
 10
10.10632102954723
 20
0.3578663586766176
 30
0.0
 11
10.10373548551935
 21
0.361221180020091
 31
0.0
  0
LINE
  5
AB
  8
0
 10
10.10373548551935
 20
0.361221180020091
 30
0.0
 11
10.10181080713903
 21
0.3642463110854541
 31
0.0
  0
LINE
  5
AC
  8
0
 10
10.10478098982471
 20
0.2855364699149857
 30
0.0
 11
10.10626608116754
 21
0.2988473436208519
 31
0.0
  0
LINE
  5
AD
  8
0
 10
10.10626608116754
 20
0.2988473436208519
 30
0.0
 11
10.10775117251038
 21
0.3118285270486078
 31
0.0
  0
LINE
  5
AE
  8
0
 10
10.10775117251038
 20
0.3118285270486078
 30
0.0
 11
10.10923626385322
 21
0.3241488448288005
 31
0.0
  0
LINE
  5
AF
  8
0
 10
10.09884062445335
 20
0.2350433642584587
 30
0.0
 11
10.09884062445335
 21
0.2438989639358078
 31
0.0
  0
LINE
  5
B0
  8
0
 10
10.09884062445335
 20
0.2438989639358078
 30
0.0
 11
10.09884062445335
 21
0.2524248733350467
 31
0.0
  0
LINE
  5
B1
  8
0
 10
10.09884062445335
 20
0.2524248733350467
 30
0.0
 11
10.09884062445335
 21
0.2602899170867222
 31
0.0
  0
LINE
  5
B2
  8
0
 10
9.994884230454616
 20
0.3493953976570638
 30
0.0
 11
9.99642427017714
 21
0.3415303539053883
 31
0.0
  0
LINE
  5
B3
  8
0
 10
9.99642427017714
 20
0.3415303539053883
 30
0.0
 11
9.998294000177776
 21
0.3330044445061495
 31
0.0
  0
LINE
  5
B4
  8
0
 10
9.998294000177776
 20
0.3330044445061495
 30
0.0
 11
10.00082459582597
 21
0.3241488448288005
 31
0.0
  0
LINE
  5
B5
  8
0
 10
10.01567550925436
 20
0.3464252149713857
 30
0.0
 11
10.00830500091985
 21
0.3478553579345398
 31
0.0
  0
LINE
  5
B6
  8
0
 10
10.00830500091985
 20
0.3478553579345398
 30
0.0
 11
10.00126418286345
 21
0.3489558106195835
 31
0.0
  0
LINE
  5
B7
  8
0
 10
10.00126418286345
 20
0.3489558106195835
 30
0.0
 11
9.994884230454616
 21
0.3493953976570638
 31
0.0
  0
LINE
  5
B8
  8
0
 10
10.05725806685386
 20
0.1058404174314633
 30
0.0
 11
10.05076821768565
 21
0.1923054055942372
 31
0.0
  0
LINE
  5
B9
  8
0
 10
10.05076821768565
 20
0.1923054055942372
 30
0.0
 11
10.03899738370231
 21
0.2718409575513241
 31
0.0
  0
LINE
  5
BA
  8
0
 10
10.03899738370231
 20
0.2718409575513241
 30
0.0
 11
10.01567550925436
 21
0.3464252149713857
 31
0.0
  0
LINE
  5
BB
  8
0
 10
9.91320420659847
 20
0.413254325399142
 30
0.0
 11
9.901739301431753
 21
0.4890533875376461
 31
0.0
  0
LINE
  5
BC
  8
0
 10
9.901739301431753
 20
0.4890533875376461
 30
0.0
 11
9.88920513049819
 21
0.5534469481631463
 31
0.0
  0
LINE
  5
BD
  8
0
 10
9.88920513049819
 20
0.5534469481631463
 30
0.0
 11
9.881660866476569
 21
0.6132070237989887
 31
0.0
  0
LINE
  5
BE
  8
0
 10
9.881660866476569
 20
0.6132070237989887
 30
0.0
 11
9.885165682045669
 21
0.6751056309685195
 31
0.0
  0
LINE
  5
BF
  8
0
 10
9.885165682045669
 20
0.6751056309685195
 30
0.0
 11
9.905778749884275
 21
0.7459147861950842
 31
0.0
  0
LINE
  5
C0
  8
0
 10
9.916174389284148
 20
0.4429561522559226
 30
0.0
 11
9.914744246320993
 21
0.4336060171614081
 31
0.0
  0
LINE
  5
C1
  8
0
 10
9.914744246320993
 20
0.4336060171614081
 30
0.0
 11
9.91364379363595
 21
0.4235950164193302
 31
0.0
  0
LINE
  5
C2
  8
0
 10
9.91364379363595
 20
0.4235950164193302
 30
0.0
 11
9.91320420659847
 21
0.413254325399142
 31
0.0
  0
LINE
  5
C3
  8
0
 10
9.942906033455252
 20
0.1013851434029462
 30
0.0
 11
9.948969661408062
 21
0.1556667170750556
 31
0.0
  0
LINE
  5
C4
  8
0
 10
9.948969661408062
 20
0.1556667170750556
 30
0.0
 11
9.958747502809315
 21
0.2252521570351211
 31
0.0
  0
LINE
  5
C5
  8
0
 10
9.958747502809315
 20
0.2252521570351211
 30
0.0
 11
9.966296222104964
 21
0.2994592012541015
 31
0.0
  0
LINE
  5
C6
  8
0
 10
9.966296222104964
 20
0.2994592012541015
 30
0.0
 11
9.965676939015003
 21
0.3676011324289274
 31
0.0
  0
LINE
  5
C7
  8
0
 10
9.965676939015003
 20
0.3676011324289274
 30
0.0
 11
9.95095077325941
 21
0.4189956885305577
 31
0.0
  0
LINE
  5
C8
  8
0
 10
9.95095077325941
 20
0.4189956885305577
 30
0.0
 11
9.916174389284148
 21
0.4429561522559226
 31
0.0
  0
LINE
  5
C9
  8
0
 10
9.983003499711904
 20
0.1147509654884975
 30
0.0
 11
9.978603174063073
 21
0.1157964697938562
 31
0.0
  0
LINE
  5
CA
  8
0
 10
9.978603174063073
 20
0.1157964697938562
 30
0.0
 11
9.974532538692351
 21
0.1161811084516515
 31
0.0
  0
LINE
  5
CB
  8
0
 10
9.974532538692351
 20
0.1161811084516515
 30
0.0
 11
9.971122768969192
 21
0.1162360568313365
 31
0.0
  0
LINE
  5
CC
  8
0
 10
9.985973682397583
 20
0.086534229974556
 30
0.0
 11
9.984543539434428
 21
0.0964902823369488
 31
0.0
  0
LINE
  5
CD
  8
0
 10
9.984543539434428
 20
0.0964902823369488
 30
0.0
 11
9.983443086749386
 21
0.1057854690517783
 31
0.0
  0
LINE
  5
CE
  8
0
 10
9.983443086749386
 20
0.1057854690517783
 30
0.0
 11
9.983003499711904
 21
0.1147509654884975
 31
0.0
  0
LINE
  5
CF
  8
0
 10
10.06616861491089
 20
0.0791087732603608
 30
0.0
 11
10.05764270551165
 21
0.0947853974753696
 31
0.0
  0
LINE
  5
D0
  8
0
 10
10.05764270551165
 20
0.0947853974753696
 30
0.0
 11
10.05340722500187
 21
0.1005594326163277
 31
0.0
  0
LINE
  5
D1
  8
0
 10
10.05340722500187
 20
0.1005594326163277
 30
0.0
 11
10.04983261013966
 21
0.1013851434029462
 31
0.0
  0
LINE
  5
D2
  8
0
 10
9.956271855540802
 20
0.1073255087743024
 30
0.0
 11
9.953741259892604
 21
0.1039157390511439
 31
0.0
  0
LINE
  5
D3
  8
0
 10
9.953741259892604
 20
0.1039157390511439
 30
0.0
 11
9.951871529891969
 21
0.0998451036804222
 31
0.0
  0
LINE
  5
D4
  8
0
 10
9.951871529891969
 20
0.0998451036804222
 30
0.0
 11
9.950331490169445
 21
0.0954447780315901
 31
0.0
  0
LINE
  5
D5
  8
0
 10
9.980033317026226
 20
0.1117807828028194
 30
0.0
 11
9.971562356006672
 21
0.1102956914599804
 31
0.0
  0
LINE
  5
D6
  8
0
 10
9.971562356006672
 20
0.1102956914599804
 30
0.0
 11
9.963752260634683
 21
0.1088106001171414
 31
0.0
  0
LINE
  5
D7
  8
0
 10
9.963752260634683
 20
0.1088106001171414
 30
0.0
 11
9.956271855540802
 21
0.1073255087743024
 31
0.0
  0
LINE
  5
D8
  8
0
 10
9.977063134340549
 20
0.0716833165461657
 30
0.0
 11
9.977502721378029
 21
0.0850491386317169
 31
0.0
  0
LINE
  5
D9
  8
0
 10
9.977502721378029
 20
0.0850491386317169
 30
0.0
 11
9.978603174063073
 21
0.0984149607172682
 31
0.0
  0
LINE
  5
DA
  8
0
 10
9.978603174063073
 20
0.0984149607172682
 30
0.0
 11
9.980033317026226
 21
0.1117807828028194
 31
0.0
  0
LINE
  5
DB
  8
0
 10
9.9904289564261
 20
0.0612876771462925
 30
0.0
 11
9.991914047768939
 21
0.0612876771462925
 31
0.0
  0
LINE
  5
DC
  8
0
 10
9.991914047768939
 20
0.0612876771462925
 30
0.0
 11
9.993399139111776
 21
0.0612876771462925
 31
0.0
  0
LINE
  5
DD
  8
0
 10
9.993399139111776
 20
0.0612876771462925
 30
0.0
 11
9.994884230454616
 21
0.0612876771462925
 31
0.0
  0
LINE
  5
DE
  8
0
 10
9.920629663312665
 20
0.090989504003073
 30
0.0
 11
9.919144571969827
 21
0.0849941902520319
 31
0.0
  0
LINE
  5
DF
  8
0
 10
9.919144571969827
 20
0.0849941902520319
 30
0.0
 11
9.917659480626988
 21
0.0786691862228804
 31
0.0
  0
LINE
  5
E0
  8
0
 10
9.917659480626988
 20
0.0786691862228804
 30
0.0
 11
9.916174389284148
 21
0.0716833165461657
 31
0.0
  0
LINE
  5
E1
  8
0
 10
9.939935850769572
 20
0.0954447780315901
 30
0.0
 11
9.932949981092857
 21
0.0939596866887511
 31
0.0
  0
LINE
  5
E2
  8
0
 10
9.932949981092857
 20
0.0939596866887511
 30
0.0
 11
9.926624977063707
 21
0.0924745953459121
 31
0.0
  0
LINE
  5
E3
  8
0
 10
9.926624977063707
 20
0.0924745953459121
 30
0.0
 11
9.920629663312665
 21
0.090989504003073
 31
0.0
  0
LINE
  5
E4
  8
0
 10
9.945876216140928
 20
0.0657429511748095
 30
0.0
 11
9.943345620492732
 21
0.0760836421949977
 31
0.0
  0
LINE
  5
E5
  8
0
 10
9.943345620492732
 20
0.0760836421949977
 30
0.0
 11
9.941475890492097
 21
0.0860946429370756
 31
0.0
  0
LINE
  5
E6
  8
0
 10
9.941475890492097
 20
0.0860946429370756
 30
0.0
 11
9.939935850769572
 21
0.0954447780315901
 31
0.0
  0
LINE
  5
E7
  8
0
 10
9.980033317026226
 20
0.0642578598319705
 30
0.0
 11
9.968207534663199
 21
0.0653033641373292
 31
0.0
  0
LINE
  5
E8
  8
0
 10
9.968207534663199
 20
0.0653033641373292
 30
0.0
 11
9.956711442578282
 21
0.0656880027951245
 31
0.0
  0
LINE
  5
E9
  8
0
 10
9.956711442578282
 20
0.0656880027951245
 30
0.0
 11
9.945876216140928
 21
0.0657429511748095
 31
0.0
  0
LINE
  5
EA
  8
0
 10
10.12408717728161
 20
0.0612876771462925
 30
0.0
 11
10.12408717728161
 21
0.0627727684891315
 31
0.0
  0
LINE
  5
EB
  8
0
 10
10.12408717728161
 20
0.0627727684891315
 30
0.0
 11
10.12408717728161
 21
0.0642578598319705
 31
0.0
  0
LINE
  5
EC
  8
0
 10
10.12408717728161
 20
0.0642578598319705
 30
0.0
 11
10.12408717728161
 21
0.0657429511748095
 31
0.0
  0
LINE
  5
ED
  8
0
 10
10.09884062445335
 20
0.3523655803427418
 30
0.0
 11
10.07183423838382
 21
0.3587455327515784
 31
0.0
  0
LINE
  5
EE
  8
0
 10
10.07183423838382
 20
0.3587455327515784
 30
0.0
 11
10.06297863870647
 21
0.3618256121966264
 31
0.0
  0
LINE
  5
EF
  8
0
 10
10.06297863870647
 20
0.3618256121966264
 30
0.0
 11
10.06468352356805
 21
0.3642463110854541
 31
0.0
  0
LINE
  5
F0
  8
0
 10
10.1196319032531
 20
0.0568324031177754
 30
0.0
 11
10.11262375720624
 21
0.1337096415711805
 31
0.0
  0
LINE
  5
F1
  8
0
 10
10.11262375720624
 20
0.1337096415711805
 30
0.0
 11
10.10700862683896
 21
0.2096111750123403
 31
0.0
  0
LINE
  5
F2
  8
0
 10
10.10700862683896
 20
0.2096111750123403
 30
0.0
 11
10.10250731497882
 21
0.2830073593581308
 31
0.0
  0
LINE
  5
F3
  8
0
 10
10.10250731497882
 20
0.2830073593581308
 30
0.0
 11
10.09884062445335
 21
0.3523655803427418
 31
0.0
  0
LINE
  5
F4
  8
0
 10
10.07210898028225
 20
0.0508920377464193
 30
0.0
 11
10.05643235606724
 21
0.0914290910405533
 31
0.0
  0
LINE
  5
F5
  8
0
 10
10.05643235606724
 20
0.0914290910405533
 30
0.0
 11
10.02590630351518
 21
0.1256960886852211
 31
0.0
  0
LINE
  5
F6
  8
0
 10
10.02590630351518
 20
0.1256960886852211
 30
0.0
 11
10.00527986985449
 21
0.1563335230879902
 31
0.0
  0
LINE
  5
F7
  8
0
 10
10.12854245131013
 20
0.0508920377464193
 30
0.0
 11
10.1167166689471
 21
0.0494069464035802
 31
0.0
  0
LINE
  5
F8
  8
0
 10
10.1167166689471
 20
0.0494069464035802
 30
0.0
 11
10.10522057686219
 21
0.0479218550607412
 31
0.0
  0
LINE
  5
F9
  8
0
 10
10.10522057686219
 20
0.0479218550607412
 30
0.0
 11
10.09438535042483
 21
0.0464367637179022
 31
0.0
  0
LINE
  5
FA
  8
0
 10
10.12854245131013
 20
0.036041124318029
 30
0.0
 11
10.12854245131013
 21
0.0415419026519048
 31
0.0
  0
LINE
  5
FB
  8
0
 10
10.12854245131013
 20
0.0415419026519048
 30
0.0
 11
10.12854245131013
 21
0.0463818153382171
 31
0.0
  0
LINE
  5
FC
  8
0
 10
10.12854245131013
 20
0.0463818153382171
 30
0.0
 11
10.12854245131013
 21
0.0508920377464193
 31
0.0
  0
LINE
  5
FD
  8
0
 10
10.11369153788174
 20
0.0315858502895119
 30
0.0
 11
10.11820176028994
 21
0.0330709416323509
 31
0.0
  0
LINE
  5
FE
  8
0
 10
10.11820176028994
 20
0.0330709416323509
 30
0.0
 11
10.12304167297625
 21
0.0345560329751899
 31
0.0
  0
LINE
  5
FF
  8
0
 10
10.12304167297625
 20
0.0345560329751899
 30
0.0
 11
10.12854245131013
 21
0.036041124318029
 31
0.0
  0
LINE
  5
100
  8
0
 10
9.96072712956932
 20
0.0538622204320973
 30
0.0
 11
9.936690926185468
 21
0.0525969226079985
 31
0.0
  0
LINE
  5
101
  8
0
 10
9.936690926185468
 20
0.0525969226079985
 30
0.0
 11
9.92783532650812
 21
0.0506722442276791
 31
0.0
  0
LINE
  5
102
  8
0
 10
9.92783532650812
 20
0.0506722442276791
 30
0.0
 11
9.92657002868402
 21
0.0464367637179022
 31
0.0
  0
LINE
  5
103
  8
0
 10
9.968152586283514
 20
0.0271305762609948
 30
0.0
 11
9.965237351977521
 21
0.036041124318029
 31
0.0
  0
LINE
  5
104
  8
0
 10
9.965237351977521
 20
0.036041124318029
 30
0.0
 11
9.962651807949639
 21
0.0449516723750631
 31
0.0
  0
LINE
  5
105
  8
0
 10
9.962651807949639
 20
0.0449516723750631
 30
0.0
 11
9.96072712956932
 21
0.0538622204320973
 31
0.0
  0
LINE
  5
106
  8
0
 10
9.975578042997709
 20
0.0568324031177754
 30
0.0
 11
9.972662808691716
 21
0.0474822680232609
 31
0.0
  0
LINE
  5
107
  8
0
 10
9.972662808691716
 20
0.0474822680232609
 30
0.0
 11
9.970077264663834
 21
0.037471267281183
 31
0.0
  0
LINE
  5
108
  8
0
 10
9.970077264663834
 20
0.037471267281183
 30
0.0
 11
9.968152586283514
 21
0.0271305762609948
 31
0.0
  0
LINE
  5
109
  8
0
 10
10.10923626385322
 20
0.0241603935753168
 30
0.0
 11
10.10775117251038
 21
0.0301007589466728
 31
0.0
  0
LINE
  5
10A
  8
0
 10
10.10775117251038
 20
0.0301007589466728
 30
0.0
 11
10.10626608116754
 21
0.036041124318029
 31
0.0
  0
LINE
  5
10B
  8
0
 10
10.10626608116754
 20
0.036041124318029
 30
0.0
 11
10.10478098982471
 21
0.0419814896893851
 31
0.0
  0
LINE
  5
10C
  8
0
 10
9.920629663312665
 20
0.0226753022324778
 30
0.0
 11
9.920629663312665
 21
0.0241603935753168
 31
0.0
  0
LINE
  5
10D
  8
0
 10
9.920629663312665
 20
0.0241603935753168
 30
0.0
 11
9.920629663312665
 21
0.0256454849181558
 31
0.0
  0
LINE
  5
10E
  8
0
 10
9.920629663312665
 20
0.0256454849181558
 30
0.0
 11
9.920629663312665
 21
0.0271305762609948
 31
0.0
  0
LINE
  5
10F
  8
0
 10
9.920629663312665
 20
0.0078243888040875
 30
0.0
 11
9.920629663312665
 21
0.0271305762609948
 31
0.0
  0
LINE
  5
110
  8
0
 10
9.920629663312665
 20
0.0271305762609948
 30
0.0
 11
9.920629663312665
 21
0.0464367637179022
 31
0.0
  0
LINE
  5
111
  8
0
 10
9.920629663312665
 20
0.0464367637179022
 30
0.0
 11
9.920629663312665
 21
0.0657429511748095
 31
0.0
  0
ENDSEC
  0
EOF
