  0
SECTION
  2
HEADER
  9
$ACADVER
  1
AC1009
  9
$DWGCODEPAGE
  3
ansi_1252
  9
$INSBASE
 10
-13846.42854631853
 20
-4492.883029634386
 30
0.0
  9
$EXTMIN
 10
-14012.88666280944
 20
-4494.080570040795
 30
0.0
  9
$EXTMAX
 10
-13252.44850473946
 20
-2681.004394736924
 30
0.0
  9
$LIMMIN
 10
0.0
 20
0.0
  9
$LIMMAX
 10
12.0
 20
9.0
  9
$ORTHOMODE
 70
     0
  9
$REGENMODE
 70
     1
  9
$FILLMODE
 70
     1
  9
$QTEXTMODE
 70
     0
  9
$MIRRTEXT
 70
     1
  9
$DRAGMODE
 70
     2
  9
$LTSCALE
 40
1.0
  9
$OSMODE
 70
    37
  9
$ATTMODE
 70
     1
  9
$TEXTSIZE
 40
0.2
  9
$TRACEWID
 40
0.05
  9
$TEXTSTYLE
  7
STANDARD
  9
$CLAYER
  8
0
  9
$CELTYPE
  6
BYLAYER
  9
$CECOLOR
 62
   256
  9
$DIMSCALE
 40
1.0
  9
$DIMASZ
 40
0.18
  9
$DIMEXO
 40
0.0625
  9
$DIMDLI
 40
0.38
  9
$DIMRND
 40
0.0
  9
$DIMDLE
 40
0.0
  9
$DIMEXE
 40
0.18
  9
$DIMTP
 40
0.0
  9
$DIMTM
 40
0.0
  9
$DIMTXT
 40
0.18
  9
$DIMCEN
 40
0.09
  9
$DIMTSZ
 40
0.0
  9
$DIMTOL
 70
     0
  9
$DIMLIM
 70
     0
  9
$DIMTIH
 70
     1
  9
$DIMTOH
 70
     1
  9
$DIMSE1
 70
     0
  9
$DIMSE2
 70
     0
  9
$DIMTAD
 70
     0
  9
$DIMZIN
 70
     0
  9
$DIMBLK
  1

  9
$DIMASO
 70
     1
  9
$DIMSHO
 70
     1
  9
$DIMPOST
  1

  9
$DIMAPOST
  1

  9
$DIMALT
 70
     0
  9
$DIMALTD
 70
     2
  9
$DIMALTF
 40
25.4
  9
$DIMLFAC
 40
1.0
  9
$DIMTOFL
 70
     0
  9
$DIMTVP
 40
0.0
  9
$DIMTIX
 70
     0
  9
$DIMSOXD
 70
     0
  9
$DIMSAH
 70
     0
  9
$DIMBLK1
  1

  9
$DIMBLK2
  1

  9
$DIMSTYLE
  2
STANDARD
  9
$DIMCLRD
 70
     0
  9
$DIMCLRE
 70
     0
  9
$DIMCLRT
 70
     0
  9
$DIMTFAC
 40
1.0
  9
$DIMGAP
 40
0.09
  9
$LUNITS
 70
     2
  9
$LUPREC
 70
     2
  9
$SKETCHINC
 40
0.1
  9
$FILLETRAD
 40
0.0
  9
$AUNITS
 70
     0
  9
$AUPREC
 70
     0
  9
$MENU
  1
.
  9
$ELEVATION
 40
0.0
  9
$PELEVATION
 40
0.0
  9
$THICKNESS
 40
0.0
  9
$LIMCHECK
 70
     0
  9
$CHAMFERA
 40
0.5
  9
$CHAMFERB
 40
0.5
  9
$SKPOLY
 70
     0
  9
$TDCREATE
 40
2451109.617893981
  9
$TDUPDATE
 40
2457483.532916666
  9
$TDINDWG
 40
0.0689510995
  9
$TDUSRTIMER
 40
0.0689129051
  9
$USRTIMER
 70
     1
  9
$ANGBASE
 50
0.0
  9
$ANGDIR
 70
     0
  9
$PDMODE
 70
     0
  9
$PDSIZE
 40
0.0
  9
$PLINEWID
 40
0.0
  9
$COORDS
 70
     1
  9
$SPLFRAME
 70
     0
  9
$SPLINETYPE
 70
     6
  9
$SPLINESEGS
 70
     8
  9
$ATTDIA
 70
     0
  9
$ATTREQ
 70
     1
  9
$HANDLING
 70
     1
  9
$HANDSEED
  5
196
  9
$SURFTAB1
 70
     6
  9
$SURFTAB2
 70
     6
  9
$SURFTYPE
 70
     6
  9
$SURFU
 70
     6
  9
$SURFV
 70
     6
  9
$UCSNAME
  2

  9
$UCSORG
 10
0.0
 20
0.0
 30
0.0
  9
$UCSXDIR
 10
1.0
 20
0.0
 30
0.0
  9
$UCSYDIR
 10
0.0
 20
1.0
 30
0.0
  9
$PUCSNAME
  2

  9
$PUCSORG
 10
0.0
 20
0.0
 30
0.0
  9
$PUCSXDIR
 10
1.0
 20
0.0
 30
0.0
  9
$PUCSYDIR
 10
0.0
 20
1.0
 30
0.0
  9
$USERI1
 70
     0
  9
$USERI2
 70
     0
  9
$USERI3
 70
     0
  9
$USERI4
 70
     0
  9
$USERI5
 70
     0
  9
$USERR1
 40
0.0
  9
$USERR2
 40
0.0
  9
$USERR3
 40
0.0
  9
$USERR4
 40
0.0
  9
$USERR5
 40
0.0
  9
$WORLDVIEW
 70
     1
  9
$SHADEDGE
 70
     3
  9
$SHADEDIF
 70
    70
  9
$TILEMODE
 70
     1
  9
$MAXACTVP
 70
    48
  9
$PLIMCHECK
 70
     0
  9
$PEXTMIN
 10
1.000000000000000E+20
 20
1.000000000000000E+20
 30
1.000000000000000E+20
  9
$PEXTMAX
 10
-1.000000000000000E+20
 20
-1.000000000000000E+20
 30
-1.000000000000000E+20
  9
$PLIMMIN
 10
0.0
 20
0.0
  9
$PLIMMAX
 10
12.0
 20
9.0
  9
$UNITMODE
 70
     0
  9
$VISRETAIN
 70
     1
  9
$PLINEGEN
 70
     0
  9
$PSLTSCALE
 70
     1
  0
ENDSEC
  0
SECTION
  2
TABLES
  0
TABLE
  2
VPORT
 70
     1
  0
VPORT
  2
*ACTIVE
 70
     0
 10
0.0
 20
0.0
 11
1.0
 21
1.0
 12
-13632.38968221061
 22
-3255.226236703542
 13
0.0
 23
0.0
 14
0.5
 24
0.5
 15
0.5
 25
0.5
 16
0.0
 26
0.0
 36
1.0
 17
0.0
 27
0.0
 37
0.0
 40
2508.717840608317
 41
1.376889848812095
 42
50.0
 43
0.0
 44
0.0
 50
0.0
 51
0.0
 71
     0
 72
   100
 73
     1
 74
     3
 75
     0
 76
     0
 77
     0
 78
     0
  0
ENDTAB
  0
TABLE
  2
LTYPE
 70
     1
  0
LTYPE
  2
CONTINUOUS
 70
     0
  3
Solid line
 72
    65
 73
     0
 40
0.0
  0
ENDTAB
  0
TABLE
  2
LAYER
 70
     1
  0
LAYER
  2
0
 70
     0
 62
     7
  6
CONTINUOUS
  0
ENDTAB
  0
TABLE
  2
STYLE
 70
     1
  0
STYLE
  2
STANDARD
 70
     0
 40
0.0
 41
1.0
 50
0.0
 71
     0
 42
0.2
  3
txt
  4

  0
ENDTAB
  0
TABLE
  2
VIEW
 70
     0
  0
ENDTAB
  0
TABLE
  2
UCS
 70
     0
  0
ENDTAB
  0
TABLE
  2
APPID
 70
     1
  0
APPID
  2
ACAD
 70
     0
  0
ENDTAB
  0
TABLE
  2
DIMSTYLE
 70
     1
  0
DIMSTYLE
  2
STANDARD
 70
     0
  3

  4

  5

  6

  7

 40
1.0
 41
0.18
 42
0.0625
 43
0.38
 44
0.18
 45
0.0
 46
0.0
 47
0.0
 48
0.0
140
0.18
141
0.09
142
0.0
143
25.4
144
1.0
145
0.0
146
1.0
147
0.09
 71
     0
 72
     0
 73
     1
 74
     1
 75
     0
 76
     0
 77
     0
 78
     0
170
     0
171
     2
172
     0
173
     0
174
     0
175
     0
176
     0
177
     0
178
     0
  0
ENDTAB
  0
ENDSEC
  0
SECTION
  2
BLOCKS
  0
BLOCK
  8
0
  2
$MODEL_SPACE
 70
     0
 10
0.0
 20
0.0
 30
0.0
  3
$MODEL_SPACE
  1

  0
ENDBLK
  5
F
  8
0
  0
BLOCK
 67
     1
  8
0
  2
$PAPER_SPACE
 70
     0
 10
0.0
 20
0.0
 30
0.0
  3
$PAPER_SPACE
  1

  0
ENDBLK
  5
15
 67
     1
  8
0
  0
ENDSEC
  0
SECTION
  2
ENTITIES
  0
POLYLINE
  5
31
  8
0
 62
     0
 66
     1
 10
0.0
 20
0.0
 30
0.0
 70
     1
  0
VERTEX
  5
143
  8
0
 62
     0
 10
-13478.78364155084
 20
-3616.283452142686
 30
0.0
  0
VERTEX
  5
144
  8
0
 62
     0
 10
-13463.21561626752
 20
-3615.085911736277
 30
0.0
  0
VERTEX
  5
145
  8
0
 62
     0
 10
-13459.42431831517
 20
-3689.818967169759
 30
0.0
  0
VERTEX
  5
146
  8
0
 62
     0
 10
-13469.20331829957
 20
-3690.659439332806
 30
0.0
  0
VERTEX
  5
147
  8
0
 62
     0
 10
-13469.20331829957
 20
-3661.789987586244
 30
0.0
  0
VERTEX
  5
148
  8
0
 62
     0
 10
-13478.78364155084
 20
-3616.283452142686
 30
0.0
  0
SEQEND
  5
191
  8
0
 62
     0
  0
POLYLINE
  5
39
  8
0
 62
     0
 66
     1
 10
0.0
 20
0.0
 30
0.0
 70
     1
  0
VERTEX
  5
149
  8
0
 62
     0
 10
-13469.11779834258
 20
-3732.694645212075
 30
0.0
  0
VERTEX
  5
14A
  8
0
 62
     0
 10
-13468.00577789316
 20
-4140.806150150015
 30
0.0
  0
VERTEX
  5
14B
  8
0
 62
     0
 10
-13448.8451313906
 20
-4401.869958747269
 30
0.0
  0
VERTEX
  5
14C
  8
0
 62
     0
 10
-13457.22791423547
 20
-4404.265039560089
 30
0.0
  0
VERTEX
  5
14D
  8
0
 62
     0
 10
-13415.31400001114
 20
-4442.58633256519
 30
0.0
  0
VERTEX
  5
14E
  8
0
 62
     0
 10
-13357.83206050349
 20
-4452.166655816465
 30
0.0
  0
VERTEX
  5
14F
  8
0
 62
     0
 10
-13348.25173725221
 20
-4492.883029634386
 30
0.0
  0
VERTEX
  5
150
  8
0
 62
     0
 10
-13444.05496976497
 20
-4490.487948821567
 30
0.0
  0
VERTEX
  5
151
  8
0
 62
     0
 10
-13536.26558105849
 20
-4492.883029634386
 30
0.0
  0
VERTEX
  5
152
  8
0
 62
     0
 10
-13602.13030341101
 20
-4494.080570040795
 30
0.0
  0
VERTEX
  5
153
  8
0
 62
     0
 10
-13602.13030341101
 20
-4460.549438661332
 30
0.0
  0
VERTEX
  5
154
  8
0
 62
     0
 10
-13596.14260137896
 20
-4424.623226469049
 30
0.0
  0
VERTEX
  5
155
  8
0
 62
     0
 10
-13616.50078828793
 20
-4419.833064843411
 30
0.0
  0
VERTEX
  5
156
  8
0
 62
     0
 10
-13676.37780860839
 20
-3725.259629125944
 30
0.0
  0
VERTEX
  5
157
  8
0
 62
     0
 10
-13715.89664201991
 20
-4407.857660779317
 30
0.0
  0
VERTEX
  5
158
  8
0
 62
     0
 10
-13723.08188445836
 20
-4409.055201185726
 30
0.0
  0
VERTEX
  5
159
  8
0
 62
     0
 10
-13718.29172283272
 20
-4446.178953784419
 30
0.0
  0
VERTEX
  5
15A
  8
0
 62
     0
 10
-13718.29172283272
 20
-4490.487948821567
 30
0.0
  0
VERTEX
  5
15B
  8
0
 62
     0
 10
-13846.42854631853
 20
-4492.883029634386
 30
0.0
  0
VERTEX
  5
15C
  8
0
 62
     0
 10
-13847.62608672494
 20
-4459.351898254922
 30
0.0
  0
VERTEX
  5
15D
  8
0
 62
     0
 10
-13838.04576347367
 20
-4412.647822404954
 30
0.0
  0
VERTEX
  5
15E
  8
0
 62
     0
 10
-13859.60149078904
 20
-4415.042903217774
 30
0.0
  0
VERTEX
  5
15F
  8
0
 62
     0
 10
-13878.76213729159
 20
-4078.534049016725
 30
0.0
  0
VERTEX
  5
160
  8
0
 62
     0
 10
-13901.51540501337
 20
-3662.987527992654
 30
0.0
  0
VERTEX
  5
161
  8
0
 62
     0
 10
-13894.33016257491
 20
-3637.839179458056
 30
0.0
  0
VERTEX
  5
162
  8
0
 62
     0
 10
-13944.62685964411
 20
-3537.245785319664
 30
0.0
  0
VERTEX
  5
163
  8
0
 62
     0
 10
-14012.88666280944
 20
-3334.861456636471
 30
0.0
  0
VERTEX
  5
164
  8
0
 62
     0
 10
-13929.05883436079
 20
-2991.167359996965
 30
0.0
  0
VERTEX
  5
165
  8
0
 62
     0
 10
-13833.25560184803
 20
-2970.809173088005
 30
0.0
  0
VERTEX
  5
166
  8
0
 62
     0
 10
-13832.05806144162
 20
-2962.426390243139
 30
0.0
  0
VERTEX
  5
167
  8
0
 62
     0
 10
-13773.37858152756
 20
-2945.660824553407
 30
0.0
  0
VERTEX
  5
168
  8
0
 62
     0
 10
-13768.58841990192
 20
-2915.722314393171
 30
0.0
  0
VERTEX
  5
169
  8
0
 62
     0
 10
-13757.81055624424
 20
-2912.129693173943
 30
0.0
  0
VERTEX
  5
16A
  8
0
 62
     0
 10
-13756.61301583783
 20
-2892.969046671392
 30
0.0
  0
VERTEX
  5
16B
  8
0
 62
     0
 10
-13770.98350071474
 20
-2879.796102200889
 30
0.0
  0
VERTEX
  5
16C
  8
0
 62
     0
 10
-13784.15644518524
 20
-2839.079728382968
 30
0.0
  0
VERTEX
  5
16D
  8
0
 62
     0
 10
-13782.95890477883
 20
-2754.054359527899
 30
0.0
  0
VERTEX
  5
16E
  8
0
 62
     0
 10
-13761.40317746346
 20
-2694.177339207427
 30
0.0
  0
VERTEX
  5
16F
  8
0
 62
     0
 10
-13725.47696527118
 20
-2681.004394736924
 30
0.0
  0
VERTEX
  5
170
  8
0
 62
     0
 10
-13654.82208129303
 20
-2689.38717758179
 30
0.0
  0
VERTEX
  5
171
  8
0
 62
     0
 10
-13616.50078828793
 20
-2710.94290489716
 30
0.0
  0
VERTEX
  5
172
  8
0
 62
     0
 10
-13603.32784381742
 20
-2740.881415057395
 30
0.0
  0
VERTEX
  5
173
  8
0
 62
     0
 10
-13606.92046503665
 20
-2866.623157730385
 30
0.0
  0
VERTEX
  5
174
  8
0
 62
     0
 10
-13634.46389438407
 20
-2897.75920829703
 30
0.0
  0
VERTEX
  5
175
  8
0
 62
     0
 10
-13630.87127316484
 20
-2920.512476018809
 30
0.0
  0
VERTEX
  5
176
  8
0
 62
     0
 10
-13627.27865194561
 20
-2920.512476018809
 30
0.0
  0
VERTEX
  5
177
  8
0
 62
     0
 10
-13626.0811115392
 20
-2943.265743740588
 30
0.0
  0
VERTEX
  5
178
  8
0
 62
     0
 10
-13562.6114699995
 20
-2962.426390243139
 30
0.0
  0
VERTEX
  5
179
  8
0
 62
     0
 10
-13562.6114699995
 20
-2968.414092275187
 30
0.0
  0
VERTEX
  5
17A
  8
0
 62
     0
 10
-13435.6721869201
 20
-2995.957521622603
 30
0.0
  0
VERTEX
  5
17B
  8
0
 62
     0
 10
-13408.12875757268
 20
-3273.78689590959
 30
0.0
  0
VERTEX
  5
17C
  8
0
 62
     0
 10
-13381.78286863168
 20
-3594.727724827316
 30
0.0
  0
VERTEX
  5
17D
  8
0
 62
     0
 10
-13388.96811107013
 20
-3609.09820970423
 30
0.0
  0
VERTEX
  5
17E
  8
0
 62
     0
 10
-13384.1779494445
 20
-3647.419502709331
 30
0.0
  0
VERTEX
  5
17F
  8
0
 62
     0
 10
-13392.56073228936
 20
-3704.901442216984
 30
0.0
  0
VERTEX
  5
180
  8
0
 62
     0
 10
-13404.37418381758
 20
-3704.901442216984
 30
0.0
  0
VERTEX
  5
181
  8
0
 62
     0
 10
-13411.85690620091
 20
-3702.954235255315
 30
0.0
  0
VERTEX
  5
182
  8
0
 62
     0
 10
-13252.44850473946
 20
-4070.151266171859
 30
0.0
  0
VERTEX
  5
183
  8
0
 62
     0
 10
-13300.35012099584
 20
-4091.706993487229
 30
0.0
  0
SEQEND
  5
192
  8
0
 62
     0
  0
POLYLINE
  5
76
  8
0
 62
     0
 66
     1
 10
0.0
 20
0.0
 30
0.0
  0
VERTEX
  5
184
  8
0
 62
     0
 10
-13877.56459688518
 20
-3216.304956401937
 30
0.0
  0
VERTEX
  5
185
  8
0
 62
     0
 10
-13897.92278379414
 20
-3385.158153705666
 30
0.0
  0
VERTEX
  5
186
  8
0
 62
     0
 10
-13867.98427363391
 20
-3503.7146539402
 30
0.0
  0
VERTEX
  5
187
  8
0
 62
     0
 10
-13877.56459688518
 20
-3216.304956401937
 30
0.0
  0
SEQEND
  5
193
  8
0
 62
     0
  0
POLYLINE
  5
7C
  8
0
 62
     0
 66
     1
 10
0.0
 20
0.0
 30
0.0
  0
VERTEX
  5
188
  8
0
 62
     0
 10
-13877.56459688518
 20
-3216.304956401937
 30
0.0
  0
VERTEX
  5
189
  8
0
 62
     0
 10
-13897.92278379414
 20
-3385.158153705666
 30
0.0
  0
VERTEX
  5
18A
  8
0
 62
     0
 10
-13867.98427363391
 20
-3503.7146539402
 30
0.0
  0
VERTEX
  5
18B
  8
0
 62
     0
 10
-13877.56459688518
 20
-3216.304956401937
 30
0.0
  0
VERTEX
  5
18C
  8
0
 62
     0
 10
-13877.56459688518
 20
-3216.304956401937
 30
0.0
  0
SEQEND
  5
194
  8
0
 62
     0
  0
POLYLINE
  5
83
  8
0
 62
     0
 66
     1
 10
0.0
 20
0.0
 30
0.0
 70
     1
  0
VERTEX
  5
18D
  8
0
 62
     0
 10
-13519.50001536876
 20
-3187.563986648111
 30
0.0
  0
VERTEX
  5
18E
  8
0
 62
     0
 10
-13484.32226593048
 20
-3588.590330244466
 30
0.0
  0
VERTEX
  5
18F
  8
0
 62
     0
 10
-13511.11723252389
 20
-3454.615497277414
 30
0.0
  0
VERTEX
  5
190
  8
0
 62
     0
 10
-13519.50001536876
 20
-3187.563986648111
 30
0.0
  0
SEQEND
  5
195
  8
0
 62
     0
  0
ENDSEC
  0
EOF
