  0
SECTION
  2
HEADER
  9
$ACADVER
  1
AC1009
  9
$DWGCODEPAGE
  3
ansi_1252
  9
$INSBASE
 10
-10273.21731050245
 20
-4492.742248794297
 30
0.0
  9
$EXTMIN
 10
-10274.41485090886
 20
-4498.729950826343
 30
0.0
  9
$EXTMAX
 10
-9812.164254034822
 20
-2798.222573724958
 30
0.0
  9
$LIMMIN
 10
0.0
 20
0.0
  9
$LIMMAX
 10
12.0
 20
9.0
  9
$ORTHOMODE
 70
     0
  9
$REGENMODE
 70
     1
  9
$FILLMODE
 70
     1
  9
$QTEXTMODE
 70
     0
  9
$MIRRTEXT
 70
     1
  9
$DRAGMODE
 70
     2
  9
$LTSCALE
 40
1.0
  9
$OSMODE
 70
    37
  9
$ATTMODE
 70
     1
  9
$TEXTSIZE
 40
0.2
  9
$TRACEWID
 40
0.05
  9
$TEXTSTYLE
  7
STANDARD
  9
$CLAYER
  8
0
  9
$CELTYPE
  6
BYLAYER
  9
$CECOLOR
 62
   256
  9
$DIMSCALE
 40
1.0
  9
$DIMASZ
 40
0.18
  9
$DIMEXO
 40
0.0625
  9
$DIMDLI
 40
0.38
  9
$DIMRND
 40
0.0
  9
$DIMDLE
 40
0.0
  9
$DIMEXE
 40
0.18
  9
$DIMTP
 40
0.0
  9
$DIMTM
 40
0.0
  9
$DIMTXT
 40
0.18
  9
$DIMCEN
 40
0.09
  9
$DIMTSZ
 40
0.0
  9
$DIMTOL
 70
     0
  9
$DIMLIM
 70
     0
  9
$DIMTIH
 70
     1
  9
$DIMTOH
 70
     1
  9
$DIMSE1
 70
     0
  9
$DIMSE2
 70
     0
  9
$DIMTAD
 70
     0
  9
$DIMZIN
 70
     0
  9
$DIMBLK
  1

  9
$DIMASO
 70
     1
  9
$DIMSHO
 70
     1
  9
$DIMPOST
  1

  9
$DIMAPOST
  1

  9
$DIMALT
 70
     0
  9
$DIMALTD
 70
     2
  9
$DIMALTF
 40
25.4
  9
$DIMLFAC
 40
1.0
  9
$DIMTOFL
 70
     0
  9
$DIMTVP
 40
0.0
  9
$DIMTIX
 70
     0
  9
$DIMSOXD
 70
     0
  9
$DIMSAH
 70
     0
  9
$DIMBLK1
  1

  9
$DIMBLK2
  1

  9
$DIMSTYLE
  2
STANDARD
  9
$DIMCLRD
 70
     0
  9
$DIMCLRE
 70
     0
  9
$DIMCLRT
 70
     0
  9
$DIMTFAC
 40
1.0
  9
$DIMGAP
 40
0.09
  9
$LUNITS
 70
     2
  9
$LUPREC
 70
     2
  9
$SKETCHINC
 40
0.1
  9
$FILLETRAD
 40
0.0
  9
$AUNITS
 70
     0
  9
$AUPREC
 70
     0
  9
$MENU
  1
.
  9
$ELEVATION
 40
0.0
  9
$PELEVATION
 40
0.0
  9
$THICKNESS
 40
0.0
  9
$LIMCHECK
 70
     0
  9
$CHAMFERA
 40
0.5
  9
$CHAMFERB
 40
0.5
  9
$SKPOLY
 70
     0
  9
$TDCREATE
 40
2451109.617893981
  9
$TDUPDATE
 40
2457483.532916666
  9
$TDINDWG
 40
0.0687969792
  9
$TDUSRTIMER
 40
0.0687587847
  9
$USRTIMER
 70
     1
  9
$ANGBASE
 50
0.0
  9
$ANGDIR
 70
     0
  9
$PDMODE
 70
     0
  9
$PDSIZE
 40
0.0
  9
$PLINEWID
 40
0.0
  9
$COORDS
 70
     1
  9
$SPLFRAME
 70
     0
  9
$SPLINETYPE
 70
     6
  9
$SPLINESEGS
 70
     8
  9
$ATTDIA
 70
     0
  9
$ATTREQ
 70
     1
  9
$HANDLING
 70
     1
  9
$HANDSEED
  5
156
  9
$SURFTAB1
 70
     6
  9
$SURFTAB2
 70
     6
  9
$SURFTYPE
 70
     6
  9
$SURFU
 70
     6
  9
$SURFV
 70
     6
  9
$UCSNAME
  2

  9
$UCSORG
 10
0.0
 20
0.0
 30
0.0
  9
$UCSXDIR
 10
1.0
 20
0.0
 30
0.0
  9
$UCSYDIR
 10
0.0
 20
1.0
 30
0.0
  9
$PUCSNAME
  2

  9
$PUCSORG
 10
0.0
 20
0.0
 30
0.0
  9
$PUCSXDIR
 10
1.0
 20
0.0
 30
0.0
  9
$PUCSYDIR
 10
0.0
 20
1.0
 30
0.0
  9
$USERI1
 70
     0
  9
$USERI2
 70
     0
  9
$USERI3
 70
     0
  9
$USERI4
 70
     0
  9
$USERI5
 70
     0
  9
$USERR1
 40
0.0
  9
$USERR2
 40
0.0
  9
$USERR3
 40
0.0
  9
$USERR4
 40
0.0
  9
$USERR5
 40
0.0
  9
$WORLDVIEW
 70
     1
  9
$SHADEDGE
 70
     3
  9
$SHADEDIF
 70
    70
  9
$TILEMODE
 70
     1
  9
$MAXACTVP
 70
    48
  9
$PLIMCHECK
 70
     0
  9
$PEXTMIN
 10
1.000000000000000E+20
 20
1.000000000000000E+20
 30
1.000000000000000E+20
  9
$PEXTMAX
 10
-1.000000000000000E+20
 20
-1.000000000000000E+20
 30
-1.000000000000000E+20
  9
$PLIMMIN
 10
0.0
 20
0.0
  9
$PLIMMAX
 10
12.0
 20
9.0
  9
$UNITMODE
 70
     0
  9
$VISRETAIN
 70
     1
  9
$PLINEGEN
 70
     0
  9
$PSLTSCALE
 70
     1
  0
ENDSEC
  0
SECTION
  2
TABLES
  0
TABLE
  2
VPORT
 70
     1
  0
VPORT
  2
*ACTIVE
 70
     0
 10
0.0
 20
0.0
 11
1.0
 21
1.0
 12
-10043.21535337751
 22
-3336.84779135798
 13
0.0
 23
0.0
 14
0.5
 24
0.5
 15
0.5
 25
0.5
 16
0.0
 26
0.0
 36
1.0
 17
0.0
 27
0.0
 37
0.0
 40
2353.13004933226
 41
1.376889848812095
 42
50.0
 43
0.0
 44
0.0
 50
0.0
 51
0.0
 71
     0
 72
   100
 73
     1
 74
     3
 75
     0
 76
     0
 77
     0
 78
     0
  0
ENDTAB
  0
TABLE
  2
LTYPE
 70
     1
  0
LTYPE
  2
CONTINUOUS
 70
     0
  3
Solid line
 72
    65
 73
     0
 40
0.0
  0
ENDTAB
  0
TABLE
  2
LAYER
 70
     1
  0
LAYER
  2
0
 70
     0
 62
     7
  6
CONTINUOUS
  0
ENDTAB
  0
TABLE
  2
STYLE
 70
     1
  0
STYLE
  2
STANDARD
 70
     0
 40
0.0
 41
1.0
 50
0.0
 71
     0
 42
0.2
  3
txt
  4

  0
ENDTAB
  0
TABLE
  2
VIEW
 70
     0
  0
ENDTAB
  0
TABLE
  2
UCS
 70
     0
  0
ENDTAB
  0
TABLE
  2
APPID
 70
     1
  0
APPID
  2
ACAD
 70
     0
  0
ENDTAB
  0
TABLE
  2
DIMSTYLE
 70
     1
  0
DIMSTYLE
  2
STANDARD
 70
     0
  3

  4

  5

  6

  7

 40
1.0
 41
0.18
 42
0.0625
 43
0.38
 44
0.18
 45
0.0
 46
0.0
 47
0.0
 48
0.0
140
0.18
141
0.09
142
0.0
143
25.4
144
1.0
145
0.0
146
1.0
147
0.09
 71
     0
 72
     0
 73
     1
 74
     1
 75
     0
 76
     0
 77
     0
 78
     0
170
     0
171
     2
172
     0
173
     0
174
     0
175
     0
176
     0
177
     0
178
     0
  0
ENDTAB
  0
ENDSEC
  0
SECTION
  2
BLOCKS
  0
BLOCK
  8
0
  2
$MODEL_SPACE
 70
     0
 10
0.0
 20
0.0
 30
0.0
  3
$MODEL_SPACE
  1

  0
ENDBLK
  5
F
  8
0
  0
BLOCK
 67
     1
  8
0
  2
$PAPER_SPACE
 70
     0
 10
0.0
 20
0.0
 30
0.0
  3
$PAPER_SPACE
  1

  0
ENDBLK
  5
15
 67
     1
  8
0
  0
ENDSEC
  0
SECTION
  2
ENTITIES
  0
POLYLINE
  5
31
  8
0
 62
     0
 66
     1
 10
0.0
 20
0.0
 30
0.0
  0
VERTEX
  5
FD
  8
0
 62
     0
 10
-10003.77071906033
 20
-2811.395518195462
 30
0.0
  0
VERTEX
  5
FE
  8
0
 62
     0
 10
-10067.24036060003
 20
-2798.222573724958
 30
0.0
  0
VERTEX
  5
FF
  8
0
 62
     0
 10
-10118.73459807564
 20
-2819.778301040328
 30
0.0
  0
VERTEX
  5
100
  8
0
 62
     0
 10
-10148.67310823587
 20
-2873.667619328752
 30
0.0
  0
VERTEX
  5
101
  8
0
 62
     0
 10
-10148.67310823587
 20
-2944.322503306908
 30
0.0
  0
VERTEX
  5
102
  8
0
 62
     0
 10
-10133.10508295255
 20
-2975.458553873553
 30
0.0
  0
VERTEX
  5
103
  8
0
 62
     0
 10
-10118.73459807564
 20
-2974.261013467144
 30
0.0
  0
VERTEX
  5
104
  8
0
 62
     0
 10
-10111.54935563718
 20
-3014.977387285064
 30
0.0
  0
VERTEX
  5
105
  8
0
 62
     0
 10
-10088.7960879154
 20
-3032.940493381206
 30
0.0
  0
VERTEX
  5
106
  8
0
 62
     0
 10
-10091.19116872822
 20
-3054.496220696576
 30
0.0
  0
VERTEX
  5
107
  8
0
 62
     0
 10
-10099.57395157309
 20
-3056.891301509394
 30
0.0
  0
VERTEX
  5
108
  8
0
 62
     0
 10
-10103.16657279231
 20
-3078.447028824764
 30
0.0
  0
VERTEX
  5
109
  8
0
 62
     0
 10
-10177.4140779897
 20
-3108.385538985
 30
0.0
  0
VERTEX
  5
10A
  8
0
 62
     0
 10
-10236.09355790376
 20
-3179.040422963156
 30
0.0
  0
VERTEX
  5
10B
  8
0
 62
     0
 10
-10270.82222968963
 20
-3402.980478961718
 30
0.0
  0
VERTEX
  5
10C
  8
0
 62
     0
 10
-10233.69847709094
 20
-3477.227984159103
 30
0.0
  0
VERTEX
  5
10D
  8
0
 62
     0
 10
-10215.7353709948
 20
-3531.117302447527
 30
0.0
  0
VERTEX
  5
10E
  8
0
 62
     0
 10
-10219.32799221403
 20
-3616.142671302596
 30
0.0
  0
VERTEX
  5
10F
  8
0
 62
     0
 10
-10212.14274977557
 20
-3867.626156648576
 30
0.0
  0
VERTEX
  5
110
  8
0
 62
     0
 10
-10185.79686083457
 20
-3876.008939493442
 30
0.0
  0
VERTEX
  5
111
  8
0
 62
     0
 10
-10179.80915880252
 20
-4050.849838829218
 30
0.0
  0
VERTEX
  5
112
  8
0
 62
     0
 10
-10169.03129514483
 20
-4096.356374272777
 30
0.0
  0
VERTEX
  5
113
  8
0
 62
     0
 10
-10159.45097189356
 20
-4388.556233436676
 30
0.0
  0
VERTEX
  5
114
  8
0
 62
     0
 10
-10185.79686083457
 20
-4422.087364816141
 30
0.0
  0
VERTEX
  5
115
  8
0
 62
     0
 10
-10214.53783058839
 20
-4447.235713350738
 30
0.0
  0
VERTEX
  5
116
  8
0
 62
     0
 10
-10274.41485090886
 20
-4478.371763917384
 30
0.0
  0
VERTEX
  5
117
  8
0
 62
     0
 10
-10273.21731050245
 20
-4492.742248794297
 30
0.0
  0
VERTEX
  5
118
  8
0
 62
     0
 10
-10214.53783058839
 20
-4498.729950826343
 30
0.0
  0
VERTEX
  5
119
  8
0
 62
     0
 10
-10190.5870224602
 20
-4495.137329607115
 30
0.0
  0
VERTEX
  5
11A
  8
0
 62
     0
 10
-10170.22883555124
 20
-4471.186521478927
 30
0.0
  0
VERTEX
  5
11B
  8
0
 62
     0
 10
-10139.0927849846
 20
-4468.791440666108
 30
0.0
  0
VERTEX
  5
11C
  8
0
 62
     0
 10
-10141.48786579741
 20
-4493.939789200705
 30
0.0
  0
VERTEX
  5
11D
  8
0
 62
     0
 10
-10137.89524457819
 20
-4496.334870013525
 30
0.0
  0
VERTEX
  5
11E
  8
0
 62
     0
 10
-10131.90754254614
 20
-4496.334870013525
 30
0.0
  0
VERTEX
  5
11F
  8
0
 62
     0
 10
-10105.56165360513
 20
-4455.618496195604
 30
0.0
  0
VERTEX
  5
120
  8
0
 62
     0
 10
-10103.16657279231
 20
-4430.470147661006
 30
0.0
  0
VERTEX
  5
121
  8
0
 62
     0
 10
-10103.16657279231
 20
-4418.494743596912
 30
0.0
  0
VERTEX
  5
122
  8
0
 62
     0
 10
-10109.15427482436
 20
-4413.704581971275
 30
0.0
  0
VERTEX
  5
123
  8
0
 62
     0
 10
-10116.33951726282
 20
-4345.444778805937
 30
0.0
  0
VERTEX
  5
124
  8
0
 62
     0
 10
-10089.99362832181
 20
-4230.480899790632
 30
0.0
  0
VERTEX
  5
125
  8
0
 62
     0
 10
-10084.00592628976
 20
-4147.850611748382
 30
0.0
  0
VERTEX
  5
126
  8
0
 62
     0
 10
-10094.78378994745
 20
-4074.800646957407
 30
0.0
  0
VERTEX
  5
127
  8
0
 62
     0
 10
-10087.59854750899
 20
-4037.676894358714
 30
0.0
  0
VERTEX
  5
128
  8
0
 62
     0
 10
-10073.22806263208
 20
-3886.786803151127
 30
0.0
  0
VERTEX
  5
129
  8
0
 62
     0
 10
-10046.88217369107
 20
-3889.181883963945
 30
0.0
  0
VERTEX
  5
12A
  8
0
 62
     0
 10
-10031.31414840775
 20
-3884.391722338308
 30
0.0
  0
VERTEX
  5
12B
  8
0
 62
     0
 10
-10013.35104231161
 20
-4031.689192326668
 30
0.0
  0
VERTEX
  5
12C
  8
0
 62
     0
 10
-10010.95596149879
 20
-4087.97359142791
 30
0.0
  0
VERTEX
  5
12D
  8
0
 62
     0
 10
-10008.56088068597
 20
-4135.875207684287
 30
0.0
  0
VERTEX
  5
12E
  8
0
 62
     0
 10
-10008.56088068597
 20
-4206.530091662444
 30
0.0
  0
VERTEX
  5
12F
  8
0
 62
     0
 10
-10000.1780978411
 20
-4326.284132303386
 30
0.0
  0
VERTEX
  5
130
  8
0
 62
     0
 10
-9992.992855402645
 20
-4387.358693030267
 30
0.0
  0
VERTEX
  5
131
  8
0
 62
     0
 10
-9998.980557434694
 20
-4425.679986035369
 30
0.0
  0
VERTEX
  5
132
  8
0
 62
     0
 10
-10012.1535019052
 20
-4467.593900259699
 30
0.0
  0
VERTEX
  5
133
  8
0
 62
     0
 10
-9996.585476621874
 20
-4498.729950826343
 30
0.0
  0
VERTEX
  5
134
  8
0
 62
     0
 10
-9934.313375488584
 20
-4495.137329607115
 30
0.0
  0
VERTEX
  5
135
  8
0
 62
     0
 10
-9925.93059264372
 20
-4468.791440666108
 30
0.0
  0
VERTEX
  5
136
  8
0
 62
     0
 10
-9946.28877955268
 20
-4405.321799126408
 30
0.0
  0
VERTEX
  5
137
  8
0
 62
     0
 10
-9949.881400771907
 20
-4362.210344495669
 30
0.0
  0
VERTEX
  5
138
  8
0
 62
     0
 10
-9930.720754269358
 20
-4225.690738164994
 30
0.0
  0
VERTEX
  5
139
  8
0
 62
     0
 10
-9935.510915894993
 20
-4125.097344026603
 30
0.0
  0
VERTEX
  5
13A
  8
0
 62
     0
 10
-9929.523213862947
 20
-4036.479353952305
 30
0.0
  0
VERTEX
  5
13B
  8
0
 62
     0
 10
-9927.128133050128
 20
-3982.59003566388
 30
0.0
  0
VERTEX
  5
13C
  8
0
 62
     0
 10
-9911.560107766805
 20
-3868.823697054985
 30
0.0
  0
VERTEX
  5
13D
  8
0
 62
     0
 10
-9893.597001670663
 20
-3866.428616242166
 30
0.0
  0
VERTEX
  5
13E
  8
0
 62
     0
 10
-9890.004380451435
 20
-3823.317161611427
 30
0.0
  0
VERTEX
  5
13F
  8
0
 62
     0
 10
-9868.448653136067
 20
-3825.712242424246
 30
0.0
  0
VERTEX
  5
140
  8
0
 62
     0
 10
-9826.534738911736
 20
-3756.2548988525
 30
0.0
  0
VERTEX
  5
141
  8
0
 62
     0
 10
-9812.164254034822
 20
-3731.106550317902
 30
0.0
  0
VERTEX
  5
142
  8
0
 62
     0
 10
-9815.756875254052
 20
-3580.216459110313
 30
0.0
  0
VERTEX
  5
143
  8
0
 62
     0
 10
-9849.639399437154
 20
-3549.963533942446
 30
0.0
  0
VERTEX
  5
144
  8
0
 62
     0
 10
-9849.639399437154
 20
-3549.963533942446
 30
0.0
  0
VERTEX
  5
145
  8
0
 62
     0
 10
-9859.044218408526
 20
-3555.023229927439
 30
0.0
  0
VERTEX
  5
146
  8
0
 62
     0
 10
-9845.695385414285
 20
-3462.85749928219
 30
0.0
  0
VERTEX
  5
147
  8
0
 62
     0
 10
-9831.324900537373
 20
-3396.992776929671
 30
0.0
  0
VERTEX
  5
148
  8
0
 62
     0
 10
-9869.646193542476
 20
-3169.460099711881
 30
0.0
  0
VERTEX
  5
149
  8
0
 62
     0
 10
-9925.93059264372
 20
-3110.780619797819
 30
0.0
  0
VERTEX
  5
14A
  8
0
 62
     0
 10
-9995.387936215466
 20
-3083.237190450402
 30
0.0
  0
VERTEX
  5
14B
  8
0
 62
     0
 10
-10001.37563824751
 20
-3056.891301509394
 30
0.0
  0
VERTEX
  5
14C
  8
0
 62
     0
 10
-10010.95596149879
 20
-3053.298680290166
 30
0.0
  0
VERTEX
  5
14D
  8
0
 62
     0
 10
-10016.94366353083
 20
-3035.335574194024
 30
0.0
  0
VERTEX
  5
14E
  8
0
 62
     0
 10
-10003.77071906033
 20
-3016.174927691474
 30
0.0
  0
VERTEX
  5
14F
  8
0
 62
     0
 10
-9996.585476621874
 20
-2977.853634686372
 30
0.0
  0
VERTEX
  5
150
  8
0
 62
     0
 10
-9983.412532151371
 20
-2981.446255905601
 30
0.0
  0
VERTEX
  5
151
  8
0
 62
     0
 10
-9959.461724023182
 20
-2927.556937617176
 30
0.0
  0
VERTEX
  5
152
  8
0
 62
     0
 10
-9975.029749306505
 20
-2856.90205363902
 30
0.0
  0
VERTEX
  5
153
  8
0
 62
     0
 10
-10003.77071906033
 20
-2811.395518195462
 30
0.0
  0
VERTEX
  5
154
  8
0
 62
     0
 10
-10003.77071906033
 20
-2811.395518195462
 30
0.0
  0
SEQEND
  5
155
  8
0
 62
     0
  0
ENDSEC
  0
EOF
