  0
SECTION
  2
HEADER
  9
$ACADVER
  1
AC1009
  9
$DWGCODEPAGE
  3
ansi_1252
  9
$INSBASE
 10
-13252.17770129598
 20
-2066.628107190244
 30
0.0
  9
$EXTMIN
 10
-13252.17770129598
 20
-2067.825647596654
 30
0.0
  9
$EXTMAX
 10
-12540.83869988878
 20
-431.9854524413768
 30
0.0
  9
$LIMMIN
 10
0.0
 20
0.0
  9
$LIMMAX
 10
12.0
 20
9.0
  9
$ORTHOMODE
 70
     0
  9
$REGENMODE
 70
     1
  9
$FILLMODE
 70
     1
  9
$QTEXTMODE
 70
     0
  9
$MIRRTEXT
 70
     1
  9
$DRAGMODE
 70
     2
  9
$LTSCALE
 40
1.0
  9
$OSMODE
 70
    37
  9
$ATTMODE
 70
     1
  9
$TEXTSIZE
 40
0.2
  9
$TRACEWID
 40
0.05
  9
$TEXTSTYLE
  7
STANDARD
  9
$CLAYER
  8
0
  9
$CELTYPE
  6
BYLAYER
  9
$CECOLOR
 62
   256
  9
$DIMSCALE
 40
1.0
  9
$DIMASZ
 40
0.18
  9
$DIMEXO
 40
0.0625
  9
$DIMDLI
 40
0.38
  9
$DIMRND
 40
0.0
  9
$DIMDLE
 40
0.0
  9
$DIMEXE
 40
0.18
  9
$DIMTP
 40
0.0
  9
$DIMTM
 40
0.0
  9
$DIMTXT
 40
0.18
  9
$DIMCEN
 40
0.09
  9
$DIMTSZ
 40
0.0
  9
$DIMTOL
 70
     0
  9
$DIMLIM
 70
     0
  9
$DIMTIH
 70
     1
  9
$DIMTOH
 70
     1
  9
$DIMSE1
 70
     0
  9
$DIMSE2
 70
     0
  9
$DIMTAD
 70
     0
  9
$DIMZIN
 70
     0
  9
$DIMBLK
  1

  9
$DIMASO
 70
     1
  9
$DIMSHO
 70
     1
  9
$DIMPOST
  1

  9
$DIMAPOST
  1

  9
$DIMALT
 70
     0
  9
$DIMALTD
 70
     2
  9
$DIMALTF
 40
25.4
  9
$DIMLFAC
 40
1.0
  9
$DIMTOFL
 70
     0
  9
$DIMTVP
 40
0.0
  9
$DIMTIX
 70
     0
  9
$DIMSOXD
 70
     0
  9
$DIMSAH
 70
     0
  9
$DIMBLK1
  1

  9
$DIMBLK2
  1

  9
$DIMSTYLE
  2
STANDARD
  9
$DIMCLRD
 70
     0
  9
$DIMCLRE
 70
     0
  9
$DIMCLRT
 70
     0
  9
$DIMTFAC
 40
1.0
  9
$DIMGAP
 40
0.09
  9
$LUNITS
 70
     2
  9
$LUPREC
 70
     2
  9
$SKETCHINC
 40
0.1
  9
$FILLETRAD
 40
0.0
  9
$AUNITS
 70
     0
  9
$AUPREC
 70
     0
  9
$MENU
  1
.
  9
$ELEVATION
 40
0.0
  9
$PELEVATION
 40
0.0
  9
$THICKNESS
 40
0.0
  9
$LIMCHECK
 70
     0
  9
$CHAMFERA
 40
0.5
  9
$CHAMFERB
 40
0.5
  9
$SKPOLY
 70
     0
  9
$TDCREATE
 40
2451109.617893981
  9
$TDUPDATE
 40
2457483.532916666
  9
$TDINDWG
 40
0.0691712963
  9
$TDUSRTIMER
 40
0.0691331019
  9
$USRTIMER
 70
     1
  9
$ANGBASE
 50
0.0
  9
$ANGDIR
 70
     0
  9
$PDMODE
 70
     0
  9
$PDSIZE
 40
0.0
  9
$PLINEWID
 40
0.0
  9
$COORDS
 70
     1
  9
$SPLFRAME
 70
     0
  9
$SPLINETYPE
 70
     6
  9
$SPLINESEGS
 70
     8
  9
$ATTDIA
 70
     0
  9
$ATTREQ
 70
     1
  9
$HANDLING
 70
     1
  9
$HANDSEED
  5
1D3
  9
$SURFTAB1
 70
     6
  9
$SURFTAB2
 70
     6
  9
$SURFTYPE
 70
     6
  9
$SURFU
 70
     6
  9
$SURFV
 70
     6
  9
$UCSNAME
  2

  9
$UCSORG
 10
0.0
 20
0.0
 30
0.0
  9
$UCSXDIR
 10
1.0
 20
0.0
 30
0.0
  9
$UCSYDIR
 10
0.0
 20
1.0
 30
0.0
  9
$PUCSNAME
  2

  9
$PUCSORG
 10
0.0
 20
0.0
 30
0.0
  9
$PUCSXDIR
 10
1.0
 20
0.0
 30
0.0
  9
$PUCSYDIR
 10
0.0
 20
1.0
 30
0.0
  9
$USERI1
 70
     0
  9
$USERI2
 70
     0
  9
$USERI3
 70
     0
  9
$USERI4
 70
     0
  9
$USERI5
 70
     0
  9
$USERR1
 40
0.0
  9
$USERR2
 40
0.0
  9
$USERR3
 40
0.0
  9
$USERR4
 40
0.0
  9
$USERR5
 40
0.0
  9
$WORLDVIEW
 70
     1
  9
$SHADEDGE
 70
     3
  9
$SHADEDIF
 70
    70
  9
$TILEMODE
 70
     1
  9
$MAXACTVP
 70
    48
  9
$PLIMCHECK
 70
     0
  9
$PEXTMIN
 10
1.000000000000000E+20
 20
1.000000000000000E+20
 30
1.000000000000000E+20
  9
$PEXTMAX
 10
-1.000000000000000E+20
 20
-1.000000000000000E+20
 30
-1.000000000000000E+20
  9
$PLIMMIN
 10
0.0
 20
0.0
  9
$PLIMMAX
 10
12.0
 20
9.0
  9
$UNITMODE
 70
     0
  9
$VISRETAIN
 70
     1
  9
$PLINEGEN
 70
     0
  9
$PSLTSCALE
 70
     1
  0
ENDSEC
  0
SECTION
  2
TABLES
  0
TABLE
  2
VPORT
 70
     1
  0
VPORT
  2
*ACTIVE
 70
     0
 10
0.0
 20
0.0
 11
1.0
 21
1.0
 12
-12896.36675854711
 22
-950.0496322274084
 13
0.0
 23
0.0
 14
0.5
 24
0.5
 15
0.5
 25
0.5
 16
0.0
 26
0.0
 36
1.0
 17
0.0
 27
0.0
 37
0.0
 40
2263.72884623771
 41
1.376889848812095
 42
50.0
 43
0.0
 44
0.0
 50
0.0
 51
0.0
 71
     0
 72
   100
 73
     1
 74
     3
 75
     0
 76
     0
 77
     0
 78
     0
  0
ENDTAB
  0
TABLE
  2
LTYPE
 70
     1
  0
LTYPE
  2
CONTINUOUS
 70
     0
  3
Solid line
 72
    65
 73
     0
 40
0.0
  0
ENDTAB
  0
TABLE
  2
LAYER
 70
     1
  0
LAYER
  2
0
 70
     0
 62
     7
  6
CONTINUOUS
  0
ENDTAB
  0
TABLE
  2
STYLE
 70
     1
  0
STYLE
  2
STANDARD
 70
     0
 40
0.0
 41
1.0
 50
0.0
 71
     0
 42
0.2
  3
txt
  4

  0
ENDTAB
  0
TABLE
  2
VIEW
 70
     0
  0
ENDTAB
  0
TABLE
  2
UCS
 70
     0
  0
ENDTAB
  0
TABLE
  2
APPID
 70
     1
  0
APPID
  2
ACAD
 70
     0
  0
ENDTAB
  0
TABLE
  2
DIMSTYLE
 70
     1
  0
DIMSTYLE
  2
STANDARD
 70
     0
  3

  4

  5

  6

  7

 40
1.0
 41
0.18
 42
0.0625
 43
0.38
 44
0.18
 45
0.0
 46
0.0
 47
0.0
 48
0.0
140
0.18
141
0.09
142
0.0
143
25.4
144
1.0
145
0.0
146
1.0
147
0.09
 71
     0
 72
     0
 73
     1
 74
     1
 75
     0
 76
     0
 77
     0
 78
     0
170
     0
171
     2
172
     0
173
     0
174
     0
175
     0
176
     0
177
     0
178
     0
  0
ENDTAB
  0
ENDSEC
  0
SECTION
  2
BLOCKS
  0
BLOCK
  8
0
  2
$MODEL_SPACE
 70
     0
 10
0.0
 20
0.0
 30
0.0
  3
$MODEL_SPACE
  1

  0
ENDBLK
  5
F
  8
0
  0
BLOCK
 67
     1
  8
0
  2
$PAPER_SPACE
 70
     0
 10
0.0
 20
0.0
 30
0.0
  3
$PAPER_SPACE
  1

  0
ENDBLK
  5
15
 67
     1
  8
0
  0
ENDSEC
  0
SECTION
  2
ENTITIES
  0
POLYLINE
  5
31
  8
0
 62
     0
 66
     1
 10
0.0
 20
0.0
 30
0.0
  0
VERTEX
  5
13C
  8
0
 62
     0
 10
-12898.9032814052
 20
-441.5657756926526
 30
0.0
  0
VERTEX
  5
13D
  8
0
 62
     0
 10
-12848.606584336
 20
-433.182992847786
 30
0.0
  0
VERTEX
  5
13E
  8
0
 62
     0
 10
-12805.49512970526
 20
-461.9239626016129
 30
0.0
  0
VERTEX
  5
13F
  8
0
 62
     0
 10
-12781.54432157707
 20
-509.82557885799
 30
0.0
  0
VERTEX
  5
140
  8
0
 62
     0
 10
-12782.74186198348
 20
-581.6780032425554
 30
0.0
  0
VERTEX
  5
141
  8
0
 62
     0
 10
-12815.07545295654
 20
-646.3451851886641
 30
0.0
  0
VERTEX
  5
142
  8
0
 62
     0
 10
-12840.22380149113
 20
-642.7525639694361
 30
0.0
  0
VERTEX
  5
143
  8
0
 62
     0
 10
-12840.22380149113
 20
-667.9009125040343
 30
0.0
  0
VERTEX
  5
144
  8
0
 62
     0
 10
-12831.84101864627
 20
-667.9009125040343
 30
0.0
  0
VERTEX
  5
145
  8
0
 62
     0
 10
-12834.23609945909
 20
-671.4935337232621
 30
0.0
  0
VERTEX
  5
146
  8
0
 62
     0
 10
-12821.06315498858
 20
-664.3082912848058
 30
0.0
  0
VERTEX
  5
147
  8
0
 62
     0
 10
-12795.91480645398
 20
-700.2345034770888
 30
0.0
  0
VERTEX
  5
148
  8
0
 62
     0
 10
-12806.69267011167
 20
-708.6172863219545
 30
0.0
  0
VERTEX
  5
149
  8
0
 62
     0
 10
-12795.91480645398
 20
-719.3951499796392
 30
0.0
  0
VERTEX
  5
14A
  8
0
 62
     0
 10
-12759.9885942617
 20
-774.482008674473
 30
0.0
  0
VERTEX
  5
14B
  8
0
 62
     0
 10
-12718.07468003737
 20
-911.0016150051476
 30
0.0
  0
VERTEX
  5
14C
  8
0
 62
     0
 10
-12700.11157394123
 20
-1058.299084993507
 30
0.0
  0
VERTEX
  5
14D
  8
0
 62
     0
 10
-12724.06238206942
 20
-1148.114615474214
 30
0.0
  0
VERTEX
  5
14E
  8
0
 62
     0
 10
-12720.46976085019
 20
-1217.571959045961
 30
0.0
  0
VERTEX
  5
14F
  8
0
 62
     0
 10
-12725.25992247583
 20
-1527.734924306002
 30
0.0
  0
VERTEX
  5
150
  8
0
 62
     0
 10
-12702.50665475405
 20
-1611.562752754662
 30
0.0
  0
VERTEX
  5
151
  8
0
 62
     0
 10
-12637.83947280794
 20
-1763.650384368659
 30
0.0
  0
VERTEX
  5
152
  8
0
 62
     0
 10
-12667.77798296817
 20
-1776.823328839163
 30
0.0
  0
VERTEX
  5
153
  8
0
 62
     0
 10
-12558.80180598492
 20
-1952.861768581349
 30
0.0
  0
VERTEX
  5
154
  8
0
 62
     0
 10
-12540.83869988878
 20
-2006.751086869773
 30
0.0
  0
VERTEX
  5
155
  8
0
 62
     0
 10
-12555.20918476569
 20
-2021.121571746686
 30
0.0
  0
VERTEX
  5
156
  8
0
 62
     0
 10
-12585.14769492593
 20
-2005.553546463363
 30
0.0
  0
VERTEX
  5
157
  8
0
 62
     0
 10
-12612.69112427334
 20
-2066.628107190244
 30
0.0
  0
VERTEX
  5
158
  8
0
 62
     0
 10
-12740.82794775915
 20
-2067.825647596654
 30
0.0
  0
VERTEX
  5
159
  8
0
 62
     0
 10
-12740.82794775915
 20
-2048.665001094103
 30
0.0
  0
VERTEX
  5
15A
  8
0
 62
     0
 10
-12664.18536174895
 20
-2025.911733372324
 30
0.0
  0
VERTEX
  5
15B
  8
0
 62
     0
 10
-12649.81487687204
 20
-1972.022415083899
 30
0.0
  0
VERTEX
  5
15C
  8
0
 62
     0
 10
-12664.18536174895
 20
-1979.207657522356
 30
0.0
  0
VERTEX
  5
15D
  8
0
 62
     0
 10
-12800.70496807962
 20
-1803.16921778017
 30
0.0
  0
VERTEX
  5
15E
  8
0
 62
     0
 10
-12903.69344303084
 20
-1829.515106721178
 30
0.0
  0
VERTEX
  5
15F
  8
0
 62
     0
 10
-12945.60735725516
 20
-1776.823328839163
 30
0.0
  0
VERTEX
  5
160
  8
0
 62
     0
 10
-12993.50897351154
 20
-1787.601192496848
 30
0.0
  0
VERTEX
  5
161
  8
0
 62
     0
 10
-13007.87945838845
 20
-1828.317566314768
 30
0.0
  0
VERTEX
  5
162
  8
0
 62
     0
 10
-13066.55893830252
 20
-1994.775682805679
 30
0.0
  0
VERTEX
  5
163
  8
0
 62
     0
 10
-13072.54664033456
 20
-1993.578142399269
 30
0.0
  0
VERTEX
  5
164
  8
0
 62
     0
 10
-13074.94172114738
 20
-2064.233026377425
 30
0.0
  0
VERTEX
  5
165
  8
0
 62
     0
 10
-13134.81874146785
 20
-2064.233026377425
 30
0.0
  0
VERTEX
  5
166
  8
0
 62
     0
 10
-13133.62120106145
 20
-2055.850243532559
 30
0.0
  0
VERTEX
  5
167
  8
0
 62
     0
 10
-13175.53511528577
 20
-2067.825647596654
 30
0.0
  0
VERTEX
  5
168
  8
0
 62
     0
 10
-13252.17770129598
 20
-2066.628107190244
 30
0.0
  0
VERTEX
  5
169
  8
0
 62
     0
 10
-13249.78262048316
 20
-2043.874839468465
 30
0.0
  0
VERTEX
  5
16A
  8
0
 62
     0
 10
-13189.90560016269
 20
-2031.899435404371
 30
0.0
  0
VERTEX
  5
16B
  8
0
 62
     0
 10
-13150.38676675117
 20
-1997.170763618497
 30
0.0
  0
VERTEX
  5
16C
  8
0
 62
     0
 10
-13139.60890309349
 20
-1998.368304024907
 30
0.0
  0
VERTEX
  5
16D
  8
0
 62
     0
 10
-13131.22612024863
 20
-1980.405197928765
 30
0.0
  0
VERTEX
  5
16E
  8
0
 62
     0
 10
-13152.78184756399
 20
-1974.417495896718
 30
0.0
  0
VERTEX
  5
16F
  8
0
 62
     0
 10
-13134.81874146785
 20
-1882.206884603192
 30
0.0
  0
VERTEX
  5
170
  8
0
 62
     0
 10
-13118.05317577812
 20
-1788.798732903257
 30
0.0
  0
VERTEX
  5
171
  8
0
 62
     0
 10
-13175.53511528577
 20
-1767.243005587887
 30
0.0
  0
VERTEX
  5
172
  8
0
 62
     0
 10
-13090.5097464307
 20
-1560.068515279057
 30
0.0
  0
VERTEX
  5
173
  8
0
 62
     0
 10
-13023.44748367178
 20
-1340.918620906132
 30
0.0
  0
VERTEX
  5
174
  8
0
 62
     0
 10
-13010.27453920127
 20
-1306.189949120258
 30
0.0
  0
VERTEX
  5
175
  8
0
 62
     0
 10
-12992.31143310513
 20
-1175.658044821631
 30
0.0
  0
VERTEX
  5
176
  8
0
 62
     0
 10
-12991.11389269872
 20
-1018.780251581996
 30
0.0
  0
VERTEX
  5
177
  8
0
 62
     0
 10
-12987.52127147949
 20
-931.359801914108
 30
0.0
  0
VERTEX
  5
178
  8
0
 62
     0
 10
-12930.03933197184
 20
-713.4074479475921
 30
0.0
  0
VERTEX
  5
179
  8
0
 62
     0
 10
-12907.28606425006
 20
-699.0369630706791
 30
0.0
  0
VERTEX
  5
17A
  8
0
 62
     0
 10
-12931.23687237825
 20
-646.3451851886641
 30
0.0
  0
VERTEX
  5
17B
  8
0
 62
     0
 10
-12956.38522091285
 20
-640.357483156617
 30
0.0
  0
VERTEX
  5
17C
  8
0
 62
     0
 10
-12964.76800375772
 20
-608.0238921835626
 30
0.0
  0
VERTEX
  5
17D
  8
0
 62
     0
 10
-12963.57046335131
 20
-578.0853820233269
 30
0.0
  0
VERTEX
  5
17E
  8
0
 62
     0
 10
-12974.34832700899
 20
-574.4927608040989
 30
0.0
  0
VERTEX
  5
17F
  8
0
 62
     0
 10
-12955.18768050644
 20
-528.9862253605406
 30
0.0
  0
VERTEX
  5
180
  8
0
 62
     0
 10
-12961.17538253848
 20
-528.9862253605406
 30
0.0
  0
VERTEX
  5
181
  8
0
 62
     0
 10
-12951.59505928721
 20
-482.2821495105727
 30
0.0
  0
VERTEX
  5
182
  8
0
 62
     0
 10
-12959.97784213208
 20
-476.2944474785259
 30
0.0
  0
VERTEX
  5
183
  8
0
 62
     0
 10
-12959.97784213208
 20
-447.5534777246994
 30
0.0
  0
VERTEX
  5
184
  8
0
 62
     0
 10
-12930.03933197184
 20
-431.9854524413768
 30
0.0
  0
VERTEX
  5
185
  8
0
 62
     0
 10
-12898.9032814052
 20
-441.5657756926526
 30
0.0
  0
VERTEX
  5
186
  8
0
 62
     0
 10
-12898.9032814052
 20
-441.5657756926526
 30
0.0
  0
SEQEND
  5
1D1
  8
0
 62
     0
  0
POLYLINE
  5
7E
  8
0
 62
     0
 66
     1
 10
0.0
 20
0.0
 30
0.0
  0
VERTEX
  5
187
  8
0
 62
     0
 10
-12898.9032814052
 20
-441.5657756926526
 30
0.0
  0
VERTEX
  5
188
  8
0
 62
     0
 10
-12848.606584336
 20
-433.182992847786
 30
0.0
  0
VERTEX
  5
189
  8
0
 62
     0
 10
-12805.49512970526
 20
-461.9239626016129
 30
0.0
  0
VERTEX
  5
18A
  8
0
 62
     0
 10
-12781.54432157707
 20
-509.82557885799
 30
0.0
  0
VERTEX
  5
18B
  8
0
 62
     0
 10
-12782.74186198348
 20
-581.6780032425554
 30
0.0
  0
VERTEX
  5
18C
  8
0
 62
     0
 10
-12815.07545295654
 20
-646.3451851886641
 30
0.0
  0
VERTEX
  5
18D
  8
0
 62
     0
 10
-12840.22380149113
 20
-642.7525639694361
 30
0.0
  0
VERTEX
  5
18E
  8
0
 62
     0
 10
-12840.22380149113
 20
-667.9009125040343
 30
0.0
  0
VERTEX
  5
18F
  8
0
 62
     0
 10
-12831.84101864627
 20
-667.9009125040343
 30
0.0
  0
VERTEX
  5
190
  8
0
 62
     0
 10
-12834.23609945909
 20
-671.4935337232621
 30
0.0
  0
VERTEX
  5
191
  8
0
 62
     0
 10
-12821.06315498858
 20
-664.3082912848058
 30
0.0
  0
VERTEX
  5
192
  8
0
 62
     0
 10
-12795.91480645398
 20
-700.2345034770888
 30
0.0
  0
VERTEX
  5
193
  8
0
 62
     0
 10
-12806.69267011167
 20
-708.6172863219545
 30
0.0
  0
VERTEX
  5
194
  8
0
 62
     0
 10
-12795.91480645398
 20
-719.3951499796392
 30
0.0
  0
VERTEX
  5
195
  8
0
 62
     0
 10
-12759.9885942617
 20
-774.482008674473
 30
0.0
  0
VERTEX
  5
196
  8
0
 62
     0
 10
-12718.07468003737
 20
-911.0016150051476
 30
0.0
  0
VERTEX
  5
197
  8
0
 62
     0
 10
-12700.11157394123
 20
-1058.299084993507
 30
0.0
  0
VERTEX
  5
198
  8
0
 62
     0
 10
-12724.06238206942
 20
-1148.114615474214
 30
0.0
  0
VERTEX
  5
199
  8
0
 62
     0
 10
-12720.46976085019
 20
-1217.571959045961
 30
0.0
  0
VERTEX
  5
19A
  8
0
 62
     0
 10
-12725.25992247583
 20
-1527.734924306002
 30
0.0
  0
VERTEX
  5
19B
  8
0
 62
     0
 10
-12702.50665475405
 20
-1611.562752754662
 30
0.0
  0
VERTEX
  5
19C
  8
0
 62
     0
 10
-12637.83947280794
 20
-1763.650384368659
 30
0.0
  0
VERTEX
  5
19D
  8
0
 62
     0
 10
-12667.77798296817
 20
-1776.823328839163
 30
0.0
  0
VERTEX
  5
19E
  8
0
 62
     0
 10
-12558.80180598492
 20
-1952.861768581349
 30
0.0
  0
VERTEX
  5
19F
  8
0
 62
     0
 10
-12540.83869988878
 20
-2006.751086869773
 30
0.0
  0
VERTEX
  5
1A0
  8
0
 62
     0
 10
-12555.20918476569
 20
-2021.121571746686
 30
0.0
  0
VERTEX
  5
1A1
  8
0
 62
     0
 10
-12585.14769492593
 20
-2005.553546463363
 30
0.0
  0
VERTEX
  5
1A2
  8
0
 62
     0
 10
-12612.69112427334
 20
-2066.628107190244
 30
0.0
  0
VERTEX
  5
1A3
  8
0
 62
     0
 10
-12740.82794775915
 20
-2067.825647596654
 30
0.0
  0
VERTEX
  5
1A4
  8
0
 62
     0
 10
-12740.82794775915
 20
-2048.665001094103
 30
0.0
  0
VERTEX
  5
1A5
  8
0
 62
     0
 10
-12664.18536174895
 20
-2025.911733372324
 30
0.0
  0
VERTEX
  5
1A6
  8
0
 62
     0
 10
-12649.81487687204
 20
-1972.022415083899
 30
0.0
  0
VERTEX
  5
1A7
  8
0
 62
     0
 10
-12664.18536174895
 20
-1979.207657522356
 30
0.0
  0
VERTEX
  5
1A8
  8
0
 62
     0
 10
-12800.70496807962
 20
-1803.16921778017
 30
0.0
  0
VERTEX
  5
1A9
  8
0
 62
     0
 10
-12903.69344303084
 20
-1829.515106721178
 30
0.0
  0
VERTEX
  5
1AA
  8
0
 62
     0
 10
-12945.60735725516
 20
-1776.823328839163
 30
0.0
  0
VERTEX
  5
1AB
  8
0
 62
     0
 10
-12993.50897351154
 20
-1787.601192496848
 30
0.0
  0
VERTEX
  5
1AC
  8
0
 62
     0
 10
-13007.87945838845
 20
-1828.317566314768
 30
0.0
  0
VERTEX
  5
1AD
  8
0
 62
     0
 10
-13066.55893830252
 20
-1994.775682805679
 30
0.0
  0
VERTEX
  5
1AE
  8
0
 62
     0
 10
-13072.54664033456
 20
-1993.578142399269
 30
0.0
  0
VERTEX
  5
1AF
  8
0
 62
     0
 10
-13074.94172114738
 20
-2064.233026377425
 30
0.0
  0
VERTEX
  5
1B0
  8
0
 62
     0
 10
-13134.81874146785
 20
-2064.233026377425
 30
0.0
  0
VERTEX
  5
1B1
  8
0
 62
     0
 10
-13133.62120106145
 20
-2055.850243532559
 30
0.0
  0
VERTEX
  5
1B2
  8
0
 62
     0
 10
-13175.53511528577
 20
-2067.825647596654
 30
0.0
  0
VERTEX
  5
1B3
  8
0
 62
     0
 10
-13252.17770129598
 20
-2066.628107190244
 30
0.0
  0
VERTEX
  5
1B4
  8
0
 62
     0
 10
-13249.78262048316
 20
-2043.874839468465
 30
0.0
  0
VERTEX
  5
1B5
  8
0
 62
     0
 10
-13189.90560016269
 20
-2031.899435404371
 30
0.0
  0
VERTEX
  5
1B6
  8
0
 62
     0
 10
-13150.38676675117
 20
-1997.170763618497
 30
0.0
  0
VERTEX
  5
1B7
  8
0
 62
     0
 10
-13139.60890309349
 20
-1998.368304024907
 30
0.0
  0
VERTEX
  5
1B8
  8
0
 62
     0
 10
-13131.22612024863
 20
-1980.405197928765
 30
0.0
  0
VERTEX
  5
1B9
  8
0
 62
     0
 10
-13152.78184756399
 20
-1974.417495896718
 30
0.0
  0
VERTEX
  5
1BA
  8
0
 62
     0
 10
-13134.81874146785
 20
-1882.206884603192
 30
0.0
  0
VERTEX
  5
1BB
  8
0
 62
     0
 10
-13118.05317577812
 20
-1788.798732903257
 30
0.0
  0
VERTEX
  5
1BC
  8
0
 62
     0
 10
-13175.53511528577
 20
-1767.243005587887
 30
0.0
  0
VERTEX
  5
1BD
  8
0
 62
     0
 10
-13090.5097464307
 20
-1560.068515279057
 30
0.0
  0
VERTEX
  5
1BE
  8
0
 62
     0
 10
-13023.44748367178
 20
-1340.918620906132
 30
0.0
  0
VERTEX
  5
1BF
  8
0
 62
     0
 10
-13010.27453920127
 20
-1306.189949120258
 30
0.0
  0
VERTEX
  5
1C0
  8
0
 62
     0
 10
-12992.31143310513
 20
-1175.658044821631
 30
0.0
  0
VERTEX
  5
1C1
  8
0
 62
     0
 10
-12991.11389269872
 20
-1018.780251581996
 30
0.0
  0
VERTEX
  5
1C2
  8
0
 62
     0
 10
-12987.52127147949
 20
-931.359801914108
 30
0.0
  0
VERTEX
  5
1C3
  8
0
 62
     0
 10
-12930.03933197184
 20
-713.4074479475921
 30
0.0
  0
VERTEX
  5
1C4
  8
0
 62
     0
 10
-12907.28606425006
 20
-699.0369630706791
 30
0.0
  0
VERTEX
  5
1C5
  8
0
 62
     0
 10
-12931.23687237825
 20
-646.3451851886641
 30
0.0
  0
VERTEX
  5
1C6
  8
0
 62
     0
 10
-12956.38522091285
 20
-640.357483156617
 30
0.0
  0
VERTEX
  5
1C7
  8
0
 62
     0
 10
-12964.76800375772
 20
-608.0238921835626
 30
0.0
  0
VERTEX
  5
1C8
  8
0
 62
     0
 10
-12963.57046335131
 20
-578.0853820233269
 30
0.0
  0
VERTEX
  5
1C9
  8
0
 62
     0
 10
-12974.34832700899
 20
-574.4927608040989
 30
0.0
  0
VERTEX
  5
1CA
  8
0
 62
     0
 10
-12955.18768050644
 20
-528.9862253605406
 30
0.0
  0
VERTEX
  5
1CB
  8
0
 62
     0
 10
-12961.17538253848
 20
-528.9862253605406
 30
0.0
  0
VERTEX
  5
1CC
  8
0
 62
     0
 10
-12951.59505928721
 20
-482.2821495105727
 30
0.0
  0
VERTEX
  5
1CD
  8
0
 62
     0
 10
-12959.97784213208
 20
-476.2944474785259
 30
0.0
  0
VERTEX
  5
1CE
  8
0
 62
     0
 10
-12959.97784213208
 20
-447.5534777246994
 30
0.0
  0
VERTEX
  5
1CF
  8
0
 62
     0
 10
-12930.03933197184
 20
-431.9854524413768
 30
0.0
  0
VERTEX
  5
1D0
  8
0
 62
     0
 10
-12898.9032814052
 20
-441.5657756926526
 30
0.0
  0
SEQEND
  5
1D2
  8
0
 62
     0
  0
ENDSEC
  0
EOF
