  0
SECTION
  2
HEADER
  9
$ACADVER
  1
AC1009
  9
$DWGCODEPAGE
  3
ansi_1252
  9
$INSBASE
 10
-13087.18792865496
 20
-4441.388792158781
 30
0.0
  9
$EXTMIN
 10
-13202.15180767026
 20
-4444.981413378009
 30
0.0
  9
$EXTMAX
 10
-12380.6390888734
 20
-2859.437915291928
 30
0.0
  9
$LIMMIN
 10
0.0
 20
0.0
  9
$LIMMAX
 10
12.0
 20
9.0
  9
$ORTHOMODE
 70
     0
  9
$REGENMODE
 70
     1
  9
$FILLMODE
 70
     1
  9
$QTEXTMODE
 70
     0
  9
$MIRRTEXT
 70
     1
  9
$DRAGMODE
 70
     2
  9
$LTSCALE
 40
1.0
  9
$OSMODE
 70
    37
  9
$ATTMODE
 70
     1
  9
$TEXTSIZE
 40
0.2
  9
$TRACEWID
 40
0.05
  9
$TEXTSTYLE
  7
STANDARD
  9
$CLAYER
  8
0
  9
$CELTYPE
  6
BYLAYER
  9
$CECOLOR
 62
   256
  9
$DIMSCALE
 40
1.0
  9
$DIMASZ
 40
0.18
  9
$DIMEXO
 40
0.0625
  9
$DIMDLI
 40
0.38
  9
$DIMRND
 40
0.0
  9
$DIMDLE
 40
0.0
  9
$DIMEXE
 40
0.18
  9
$DIMTP
 40
0.0
  9
$DIMTM
 40
0.0
  9
$DIMTXT
 40
0.18
  9
$DIMCEN
 40
0.09
  9
$DIMTSZ
 40
0.0
  9
$DIMTOL
 70
     0
  9
$DIMLIM
 70
     0
  9
$DIMTIH
 70
     1
  9
$DIMTOH
 70
     1
  9
$DIMSE1
 70
     0
  9
$DIMSE2
 70
     0
  9
$DIMTAD
 70
     0
  9
$DIMZIN
 70
     0
  9
$DIMBLK
  1

  9
$DIMASO
 70
     1
  9
$DIMSHO
 70
     1
  9
$DIMPOST
  1

  9
$DIMAPOST
  1

  9
$DIMALT
 70
     0
  9
$DIMALTD
 70
     2
  9
$DIMALTF
 40
25.4
  9
$DIMLFAC
 40
1.0
  9
$DIMTOFL
 70
     0
  9
$DIMTVP
 40
0.0
  9
$DIMTIX
 70
     0
  9
$DIMSOXD
 70
     0
  9
$DIMSAH
 70
     0
  9
$DIMBLK1
  1

  9
$DIMBLK2
  1

  9
$DIMSTYLE
  2
STANDARD
  9
$DIMCLRD
 70
     0
  9
$DIMCLRE
 70
     0
  9
$DIMCLRT
 70
     0
  9
$DIMTFAC
 40
1.0
  9
$DIMGAP
 40
0.09
  9
$LUNITS
 70
     2
  9
$LUPREC
 70
     2
  9
$SKETCHINC
 40
0.1
  9
$FILLETRAD
 40
0.0
  9
$AUNITS
 70
     0
  9
$AUPREC
 70
     0
  9
$MENU
  1
.
  9
$ELEVATION
 40
0.0
  9
$PELEVATION
 40
0.0
  9
$THICKNESS
 40
0.0
  9
$LIMCHECK
 70
     0
  9
$CHAMFERA
 40
0.5
  9
$CHAMFERB
 40
0.5
  9
$SKPOLY
 70
     0
  9
$TDCREATE
 40
2451109.617893981
  9
$TDUPDATE
 40
2457483.532916666
  9
$TDINDWG
 40
0.0689191319
  9
$TDUSRTIMER
 40
0.0688809375
  9
$USRTIMER
 70
     1
  9
$ANGBASE
 50
0.0
  9
$ANGDIR
 70
     0
  9
$PDMODE
 70
     0
  9
$PDSIZE
 40
0.0
  9
$PLINEWID
 40
0.0
  9
$COORDS
 70
     1
  9
$SPLFRAME
 70
     0
  9
$SPLINETYPE
 70
     6
  9
$SPLINESEGS
 70
     8
  9
$ATTDIA
 70
     0
  9
$ATTREQ
 70
     1
  9
$HANDLING
 70
     1
  9
$HANDSEED
  5
285
  9
$SURFTAB1
 70
     6
  9
$SURFTAB2
 70
     6
  9
$SURFTYPE
 70
     6
  9
$SURFU
 70
     6
  9
$SURFV
 70
     6
  9
$UCSNAME
  2

  9
$UCSORG
 10
0.0
 20
0.0
 30
0.0
  9
$UCSXDIR
 10
1.0
 20
0.0
 30
0.0
  9
$UCSYDIR
 10
0.0
 20
1.0
 30
0.0
  9
$PUCSNAME
  2

  9
$PUCSORG
 10
0.0
 20
0.0
 30
0.0
  9
$PUCSXDIR
 10
1.0
 20
0.0
 30
0.0
  9
$PUCSYDIR
 10
0.0
 20
1.0
 30
0.0
  9
$USERI1
 70
     0
  9
$USERI2
 70
     0
  9
$USERI3
 70
     0
  9
$USERI4
 70
     0
  9
$USERI5
 70
     0
  9
$USERR1
 40
0.0
  9
$USERR2
 40
0.0
  9
$USERR3
 40
0.0
  9
$USERR4
 40
0.0
  9
$USERR5
 40
0.0
  9
$WORLDVIEW
 70
     1
  9
$SHADEDGE
 70
     3
  9
$SHADEDIF
 70
    70
  9
$TILEMODE
 70
     1
  9
$MAXACTVP
 70
    48
  9
$PLIMCHECK
 70
     0
  9
$PEXTMIN
 10
1.000000000000000E+20
 20
1.000000000000000E+20
 30
1.000000000000000E+20
  9
$PEXTMAX
 10
-1.000000000000000E+20
 20
-1.000000000000000E+20
 30
-1.000000000000000E+20
  9
$PLIMMIN
 10
0.0
 20
0.0
  9
$PLIMMAX
 10
12.0
 20
9.0
  9
$UNITMODE
 70
     0
  9
$VISRETAIN
 70
     1
  9
$PLINEGEN
 70
     0
  9
$PSLTSCALE
 70
     1
  0
ENDSEC
  0
SECTION
  2
TABLES
  0
TABLE
  2
VPORT
 70
     1
  0
VPORT
  2
*ACTIVE
 70
     0
 10
0.0
 20
0.0
 11
1.0
 21
1.0
 12
-12791.22585967797
 22
-3361.501073420488
 13
0.0
 23
0.0
 14
0.5
 24
0.5
 15
0.5
 25
0.5
 16
0.0
 26
0.0
 36
1.0
 17
0.0
 27
0.0
 37
0.0
 40
2194.154490566038
 41
1.376889848812095
 42
50.0
 43
0.0
 44
0.0
 50
0.0
 51
0.0
 71
     0
 72
   100
 73
     1
 74
     3
 75
     0
 76
     0
 77
     0
 78
     0
  0
ENDTAB
  0
TABLE
  2
LTYPE
 70
     1
  0
LTYPE
  2
CONTINUOUS
 70
     0
  3
Solid line
 72
    65
 73
     0
 40
0.0
  0
ENDTAB
  0
TABLE
  2
LAYER
 70
     1
  0
LAYER
  2
0
 70
     0
 62
     7
  6
CONTINUOUS
  0
ENDTAB
  0
TABLE
  2
STYLE
 70
     1
  0
STYLE
  2
STANDARD
 70
     0
 40
0.0
 41
1.0
 50
0.0
 71
     0
 42
0.2
  3
txt
  4

  0
ENDTAB
  0
TABLE
  2
VIEW
 70
     0
  0
ENDTAB
  0
TABLE
  2
UCS
 70
     0
  0
ENDTAB
  0
TABLE
  2
APPID
 70
     1
  0
APPID
  2
ACAD
 70
     0
  0
ENDTAB
  0
TABLE
  2
DIMSTYLE
 70
     1
  0
DIMSTYLE
  2
STANDARD
 70
     0
  3

  4

  5

  6

  7

 40
1.0
 41
0.18
 42
0.0625
 43
0.38
 44
0.18
 45
0.0
 46
0.0
 47
0.0
 48
0.0
140
0.18
141
0.09
142
0.0
143
25.4
144
1.0
145
0.0
146
1.0
147
0.09
 71
     0
 72
     0
 73
     1
 74
     1
 75
     0
 76
     0
 77
     0
 78
     0
170
     0
171
     2
172
     0
173
     0
174
     0
175
     0
176
     0
177
     0
178
     0
  0
ENDTAB
  0
ENDSEC
  0
SECTION
  2
BLOCKS
  0
BLOCK
  8
0
  2
$MODEL_SPACE
 70
     0
 10
0.0
 20
0.0
 30
0.0
  3
$MODEL_SPACE
  1

  0
ENDBLK
  5
F
  8
0
  0
BLOCK
 67
     1
  8
0
  2
$PAPER_SPACE
 70
     0
 10
0.0
 20
0.0
 30
0.0
  3
$PAPER_SPACE
  1

  0
ENDBLK
  5
15
 67
     1
  8
0
  0
ENDSEC
  0
SECTION
  2
ENTITIES
  0
POLYLINE
  5
31
  8
0
 62
     0
 66
     1
 10
0.0
 20
0.0
 30
0.0
  0
VERTEX
  5
1E3
  8
0
 62
     0
 10
-12870.43311509485
 20
-4102.484857144913
 30
0.0
  0
VERTEX
  5
1E4
  8
0
 62
     0
 10
-12878.81589793972
 20
-4341.992938426799
 30
0.0
  0
VERTEX
  5
1E5
  8
0
 62
     0
 10
-12853.66754940512
 20
-4373.128988993443
 30
0.0
  0
VERTEX
  5
1E6
  8
0
 62
     0
 10
-12826.1241200577
 20
-4395.882256715223
 30
0.0
  0
VERTEX
  5
1E7
  8
0
 62
     0
 10
-12772.23480176928
 20
-4425.820766875459
 30
0.0
  0
VERTEX
  5
1E8
  8
0
 62
     0
 10
-12772.23480176928
 20
-4438.993711345962
 30
0.0
  0
VERTEX
  5
1E9
  8
0
 62
     0
 10
-12827.32166046411
 20
-4444.981413378009
 30
0.0
  0
VERTEX
  5
1EA
  8
0
 62
     0
 10
-12850.07492818589
 20
-4441.388792158781
 30
0.0
  0
VERTEX
  5
1EB
  8
0
 62
     0
 10
-12868.03803428203
 20
-4419.833064843411
 30
0.0
  0
VERTEX
  5
1EC
  8
0
 62
     0
 10
-12900.37162525509
 20
-4417.437984030593
 30
0.0
  0
VERTEX
  5
1ED
  8
0
 62
     0
 10
-12897.97654444227
 20
-4440.191251752371
 30
0.0
  0
VERTEX
  5
1EE
  8
0
 62
     0
 10
-12901.5691656615
 20
-4442.58633256519
 30
0.0
  0
VERTEX
  5
1EF
  8
0
 62
     0
 10
-12906.35932728713
 20
-4442.58633256519
 30
0.0
  0
VERTEX
  5
1F0
  8
0
 62
     0
 10
-12932.70521622814
 20
-4404.265039560089
 30
0.0
  0
VERTEX
  5
1F1
  8
0
 62
     0
 10
-12933.90275663455
 20
-4381.51177183831
 30
0.0
  0
VERTEX
  5
1F2
  8
0
 62
     0
 10
-12933.90275663455
 20
-4369.536367774215
 30
0.0
  0
VERTEX
  5
1F3
  8
0
 62
     0
 10
-12929.11259500891
 20
-4365.943746554987
 30
0.0
  0
VERTEX
  5
1F4
  8
0
 62
     0
 10
-12921.92735257046
 20
-4301.276564608878
 30
0.0
  0
VERTEX
  5
1F5
  8
0
 62
     0
 10
-12945.87816069864
 20
-4194.695468438439
 30
0.0
  0
VERTEX
  5
1F6
  8
0
 62
     0
 10
-12951.86586273069
 20
-4118.052882428236
 30
0.0
  0
VERTEX
  5
1F7
  8
0
 62
     0
 10
-12942.28553947942
 20
-4049.793079262899
 30
0.0
  0
VERTEX
  5
1F8
  8
0
 62
     0
 10
-12948.27324151146
 20
-4015.064407477025
 30
0.0
  0
VERTEX
  5
1F9
  8
0
 62
     0
 10
-12967.43388801401
 20
-3871.359558707894
 30
0.0
  0
VERTEX
  5
1FA
  8
0
 62
     0
 10
-12983.00191329734
 20
-3876.149720333532
 30
0.0
  0
VERTEX
  5
1FB
  8
0
 62
     0
 10
-12997.37239817425
 20
-3871.359558707894
 30
0.0
  0
VERTEX
  5
1FC
  8
0
 62
     0
 10
-13014.13796386398
 20
-4010.274245851388
 30
0.0
  0
VERTEX
  5
1FD
  8
0
 62
     0
 10
-13016.5330446768
 20
-4061.768483326992
 30
0.0
  0
VERTEX
  5
1FE
  8
0
 62
     0
 10
-13018.92812548962
 20
-4106.077478364142
 30
0.0
  0
VERTEX
  5
1FF
  8
0
 62
     0
 10
-13018.92812548962
 20
-4171.942200716659
 30
0.0
  0
VERTEX
  5
200
  8
0
 62
     0
 10
-13026.11336792808
 20
-4283.313458512736
 30
0.0
  0
VERTEX
  5
201
  8
0
 62
     0
 10
-13033.29861036653
 20
-4340.795398020389
 30
0.0
  0
VERTEX
  5
202
  8
0
 62
     0
 10
-13028.50844874089
 20
-4376.721610212671
 30
0.0
  0
VERTEX
  5
203
  8
0
 62
     0
 10
-13015.33550427039
 20
-4416.240443624183
 30
0.0
  0
VERTEX
  5
204
  8
0
 62
     0
 10
-13029.70598914731
 20
-4444.981413378009
 30
0.0
  0
VERTEX
  5
205
  8
0
 62
     0
 10
-13087.18792865496
 20
-4441.388792158781
 30
0.0
  0
VERTEX
  5
206
  8
0
 62
     0
 10
-13095.57071149982
 20
-4417.437984030593
 30
0.0
  0
VERTEX
  5
207
  8
0
 62
     0
 10
-13076.41006499727
 20
-4357.560963710121
 30
0.0
  0
VERTEX
  5
208
  8
0
 62
     0
 10
-13074.01498418445
 20
-4318.04213029861
 30
0.0
  0
VERTEX
  5
209
  8
0
 62
     0
 10
-13091.9780902806
 20
-4189.905306812801
 30
0.0
  0
VERTEX
  5
20A
  8
0
 62
     0
 10
-13087.18792865496
 20
-4096.497155112866
 30
0.0
  0
VERTEX
  5
20B
  8
0
 62
     0
 10
-13091.9780902806
 20
-4013.866867070616
 30
0.0
  0
VERTEX
  5
20C
  8
0
 62
     0
 10
-13094.37317109342
 20
-3963.57017000142
 30
0.0
  0
VERTEX
  5
20D
  8
0
 62
     0
 10
-13108.74365597033
 20
-3858.18661423739
 30
0.0
  0
VERTEX
  5
20E
  8
0
 62
     0
 10
-13125.50922166006
 20
-3855.791533424571
 30
0.0
  0
VERTEX
  5
20F
  8
0
 62
     0
 10
-13129.10184287929
 20
-3815.075159606651
 30
0.0
  0
VERTEX
  5
210
  8
0
 62
     0
 10
-13149.46002978825
 20
-3817.47024041947
 30
0.0
  0
VERTEX
  5
211
  8
0
 62
     0
 10
-13188.97886319976
 20
-3752.803058473361
 30
0.0
  0
VERTEX
  5
212
  8
0
 62
     0
 10
-13202.15180767026
 20
-3728.852250345172
 30
0.0
  0
VERTEX
  5
213
  8
0
 62
     0
 10
-13198.55918645104
 20
-3587.54248238886
 30
0.0
  0
VERTEX
  5
214
  8
0
 62
     0
 10
-13161.43543385234
 20
-3570.776916699128
 30
0.0
  0
VERTEX
  5
215
  8
0
 62
     0
 10
-13149.46002978825
 20
-3582.752320763222
 30
0.0
  0
VERTEX
  5
216
  8
0
 62
     0
 10
-13137.48462572415
 20
-3531.258083287617
 30
0.0
  0
VERTEX
  5
217
  8
0
 62
     0
 10
-13169.81821669721
 20
-3479.763845812011
 30
0.0
  0
VERTEX
  5
218
  8
0
 62
     0
 10
-13191.37394401258
 20
-3453.417956871004
 30
0.0
  0
VERTEX
  5
219
  8
0
 62
     0
 10
-13148.26248938184
 20
-3205.527092744253
 30
0.0
  0
VERTEX
  5
21A
  8
0
 62
     0
 10
-13096.76825190623
 20
-3151.637774455829
 30
0.0
  0
VERTEX
  5
21B
  8
0
 62
     0
 10
-13030.90352955371
 20
-3125.291885514821
 30
0.0
  0
VERTEX
  5
21C
  8
0
 62
     0
 10
-13026.11336792808
 20
-3100.143536980223
 30
0.0
  0
VERTEX
  5
21D
  8
0
 62
     0
 10
-13016.5330446768
 20
-3097.748456167405
 30
0.0
  0
VERTEX
  5
21E
  8
0
 62
     0
 10
-13010.54534264475
 20
-3080.982890477672
 30
0.0
  0
VERTEX
  5
21F
  8
0
 62
     0
 10
-13022.52074670885
 20
-3063.019784381531
 30
0.0
  0
VERTEX
  5
220
  8
0
 62
     0
 10
-13023.71828711526
 20
-3059.427163162302
 30
0.0
  0
VERTEX
  5
221
  8
0
 62
     0
 10
-13040.48385280499
 20
-3055.834541943074
 30
0.0
  0
VERTEX
  5
222
  8
0
 62
     0
 10
-13072.81744377804
 20
-2932.487880082904
 30
0.0
  0
VERTEX
  5
223
  8
0
 62
     0
 10
-13056.05187808831
 20
-2883.388723420117
 30
0.0
  0
VERTEX
  5
224
  8
0
 62
     0
 10
-13035.69369117935
 20
-2864.228076917566
 30
0.0
  0
VERTEX
  5
225
  8
0
 62
     0
 10
-12963.84126679479
 20
-2859.437915291928
 30
0.0
  0
VERTEX
  5
226
  8
0
 62
     0
 10
-12915.93965053841
 20
-2879.796102200889
 30
0.0
  0
VERTEX
  5
227
  8
0
 62
     0
 10
-12888.39622119099
 20
-2930.092799270084
 30
0.0
  0
VERTEX
  5
228
  8
0
 62
     0
 10
-12888.39622119099
 20
-2961.22884983673
 30
0.0
  0
VERTEX
  5
229
  8
0
 62
     0
 10
-12901.5691656615
 20
-2964.821471055958
 30
0.0
  0
VERTEX
  5
22A
  8
0
 62
     0
 10
-12913.54456972559
 20
-3039.068976253342
 30
0.0
  0
VERTEX
  5
22B
  8
0
 62
     0
 10
-12931.50767582173
 20
-3069.007486413579
 30
0.0
  0
VERTEX
  5
22C
  8
0
 62
     0
 10
-12944.68062029224
 20
-3078.587809664853
 30
0.0
  0
VERTEX
  5
22D
  8
0
 62
     0
 10
-12942.28553947942
 20
-3098.945996573814
 30
0.0
  0
VERTEX
  5
22E
  8
0
 62
     0
 10
-12933.90275663455
 20
-3100.143536980223
 30
0.0
  0
VERTEX
  5
22F
  8
0
 62
     0
 10
-12931.50767582173
 20
-3120.501723889183
 30
0.0
  0
VERTEX
  5
230
  8
0
 62
     0
 10
-12888.39622119099
 20
-3142.057451204553
 30
0.0
  0
VERTEX
  5
231
  8
0
 62
     0
 10
-12838.0995241218
 20
-3199.539390712205
 30
0.0
  0
VERTEX
  5
232
  8
0
 62
     0
 10
-12797.38315030388
 20
-3400.726178988989
 30
0.0
  0
VERTEX
  5
233
  8
0
 62
     0
 10
-12779.42004420773
 20
-3457.010578090232
 30
0.0
  0
VERTEX
  5
234
  8
0
 62
     0
 10
-12771.03726136287
 20
-3488.146628656878
 30
0.0
  0
VERTEX
  5
235
  8
0
 62
     0
 10
-12759.06185729878
 20
-3489.344169063287
 30
0.0
  0
VERTEX
  5
236
  8
0
 62
     0
 10
-12744.69137242186
 20
-3495.331871095334
 30
0.0
  0
VERTEX
  5
237
  8
0
 62
     0
 10
-12730.32088754495
 20
-3513.294977191475
 30
0.0
  0
VERTEX
  5
238
  8
0
 62
     0
 10
-12738.70367038982
 20
-3520.480219629932
 30
0.0
  0
VERTEX
  5
239
  8
0
 62
     0
 10
-12753.07415526673
 20
-3504.912194346609
 30
0.0
  0
VERTEX
  5
23A
  8
0
 62
     0
 10
-12761.45693811159
 20
-3502.517113533791
 30
0.0
  0
VERTEX
  5
23B
  8
0
 62
     0
 10
-12767.44464014364
 20
-3502.517113533791
 30
0.0
  0
VERTEX
  5
23C
  8
0
 62
     0
 10
-12748.28399364109
 20
-3557.603972228624
 30
0.0
  0
VERTEX
  5
23D
  8
0
 62
     0
 10
-12715.95040266804
 20
-3653.407204741378
 30
0.0
  0
VERTEX
  5
23E
  8
0
 62
     0
 10
-12723.13564510649
 20
-3659.394906773425
 30
0.0
  0
VERTEX
  5
23F
  8
0
 62
     0
 10
-12705.17253901035
 20
-3739.630114002857
 30
0.0
  0
VERTEX
  5
240
  8
0
 62
     0
 10
-12707.56761982317
 20
-3748.012896847723
 30
0.0
  0
VERTEX
  5
241
  8
0
 62
     0
 10
-12724.3331855129
 20
-3762.383381724636
 30
0.0
  0
VERTEX
  5
242
  8
0
 62
     0
 10
-12713.55532185522
 20
-3783.939109040006
 30
0.0
  0
VERTEX
  5
243
  8
0
 62
     0
 10
-12701.57991779112
 20
-3804.297295948966
 30
0.0
  0
VERTEX
  5
244
  8
0
 62
     0
 10
-12606.97422568478
 20
-3742.025194815676
 30
0.0
  0
VERTEX
  5
245
  8
0
 62
     0
 10
-12468.05953854129
 20
-3724.062088719534
 30
0.0
  0
VERTEX
  5
246
  8
0
 62
     0
 10
-12380.6390888734
 20
-3769.568624163093
 30
0.0
  0
VERTEX
  5
247
  8
0
 62
     0
 10
-12390.21941212467
 20
-3874.952179927122
 30
0.0
  0
VERTEX
  5
248
  8
0
 62
     0
 10
-12430.93578594259
 20
-3968.360331627057
 30
0.0
  0
VERTEX
  5
249
  8
0
 62
     0
 10
-12527.93655886175
 20
-4070.151266171859
 30
0.0
  0
VERTEX
  5
24A
  8
0
 62
     0
 10
-12533.9242608938
 20
-4089.31191267441
 30
0.0
  0
VERTEX
  5
24B
  8
0
 62
     0
 10
-12520.7513164233
 20
-4119.250422834645
 30
0.0
  0
VERTEX
  5
24C
  8
0
 62
     0
 10
-12529.13409926817
 20
-4125.238124866692
 30
0.0
  0
VERTEX
  5
24D
  8
0
 62
     0
 10
-12543.50458414508
 20
-4096.497155112866
 30
0.0
  0
VERTEX
  5
24E
  8
0
 62
     0
 10
-12567.45539227327
 20
-4095.299614706457
 30
0.0
  0
VERTEX
  5
24F
  8
0
 62
     0
 10
-12720.74056429367
 20
-4137.213528930786
 30
0.0
  0
VERTEX
  5
250
  8
0
 62
     0
 10
-12854.86508981153
 20
-4119.250422834645
 30
0.0
  0
VERTEX
  5
251
  8
0
 62
     0
 10
-12870.43311509485
 20
-4101.287316738503
 30
0.0
  0
VERTEX
  5
252
  8
0
 62
     0
 10
-12870.43311509485
 20
-4102.484857144913
 30
0.0
  0
VERTEX
  5
253
  8
0
 62
     0
 10
-12870.43311509485
 20
-4102.484857144913
 30
0.0
  0
SEQEND
  5
27F
  8
0
 62
     0
  0
POLYLINE
  5
A4
  8
0
 62
     0
 66
     1
 10
0.0
 20
0.0
 30
0.0
 70
     1
  0
VERTEX
  5
254
  8
0
 62
     0
 10
-12859.14023652766
 20
-3946.264623107616
 30
0.0
  0
VERTEX
  5
255
  8
0
 62
     0
 10
-12833.30936249616
 20
-3888.125124397626
 30
0.0
  0
VERTEX
  5
256
  8
0
 62
     0
 10
-12749.4815340475
 20
-3834.235806109202
 30
0.0
  0
VERTEX
  5
257
  8
0
 62
     0
 10
-12715.95040266804
 20
-3812.680078793832
 30
0.0
  0
VERTEX
  5
258
  8
0
 62
     0
 10
-12738.70367038982
 20
-3771.963704975911
 30
0.0
  0
VERTEX
  5
259
  8
0
 62
     0
 10
-12756.66677648596
 20
-3775.55632619514
 30
0.0
  0
VERTEX
  5
25A
  8
0
 62
     0
 10
-12775.82742298851
 20
-3755.198139286179
 30
0.0
  0
VERTEX
  5
25B
  8
0
 62
     0
 10
-12775.82742298851
 20
-3745.617816034904
 30
0.0
  0
VERTEX
  5
25C
  8
0
 62
     0
 10
-12774.6298825821
 20
-3737.235033190038
 30
0.0
  0
VERTEX
  5
25D
  8
0
 62
     0
 10
-12787.8028270526
 20
-3702.506361404165
 30
0.0
  0
VERTEX
  5
25E
  8
0
 62
     0
 10
-12798.58069071029
 20
-3703.703901810574
 30
0.0
  0
VERTEX
  5
25F
  8
0
 62
     0
 10
-12830.85354500596
 20
-3692.367721689054
 30
0.0
  0
VERTEX
  5
260
  8
0
 62
     0
 10
-12814.14871599361
 20
-3780.346487820778
 30
0.0
  0
VERTEX
  5
261
  8
0
 62
     0
 10
-12839.29706452821
 20
-3788.729270665644
 30
0.0
  0
VERTEX
  5
262
  8
0
 62
     0
 10
-12833.30936249616
 20
-3856.98907383098
 30
0.0
  0
VERTEX
  5
263
  8
0
 62
     0
 10
-12853.66754940512
 20
-3864.174316269437
 30
0.0
  0
SEQEND
  5
280
  8
0
 62
     0
  0
POLYLINE
  5
B6
  8
0
 62
     0
 66
     1
 10
0.0
 20
0.0
 30
0.0
  0
VERTEX
  5
264
  8
0
 62
     0
 10
-12817.88803325003
 20
-3760.652750270309
 30
0.0
  0
VERTEX
  5
265
  8
0
 62
     0
 10
-12814.14871599361
 20
-3780.346487820777
 30
0.0
  0
VERTEX
  5
266
  8
0
 62
     0
 10
-12839.29706452821
 20
-3788.729270665644
 30
0.0
  0
VERTEX
  5
267
  8
0
 62
     0
 10
-12833.30936249616
 20
-3856.98907383098
 30
0.0
  0
VERTEX
  5
268
  8
0
 62
     0
 10
-12853.66754940512
 20
-3864.174316269437
 30
0.0
  0
VERTEX
  5
269
  8
0
 62
     0
 10
-12859.19113004844
 20
-3947.028025919287
 30
0.0
  0
SEQEND
  5
281
  8
0
 62
     0
  0
POLYLINE
  5
BE
  8
0
 62
     0
 66
     1
 10
0.0
 20
0.0
 30
0.0
  0
VERTEX
  5
26A
  8
0
 62
     0
 10
-12825.18063281452
 20
-3691.881705319803
 30
0.0
  0
VERTEX
  5
26B
  8
0
 62
     0
 10
-12825.7022526871
 20
-3691.649874265325
 30
0.0
  0
SEQEND
  5
282
  8
0
 62
     0
  0
POLYLINE
  5
C2
  8
0
 62
     0
 66
     1
 10
0.0
 20
0.0
 30
0.0
 70
     1
  0
VERTEX
  5
26C
  8
0
 62
     0
 10
-12848.81024710989
 20
-3597.795757275008
 30
0.0
  0
VERTEX
  5
26D
  8
0
 62
     0
 10
-12830.91428168334
 20
-3604.308048078592
 30
0.0
  0
VERTEX
  5
26E
  8
0
 62
     0
 10
-12836.90198371539
 20
-3598.320346046545
 30
0.0
  0
VERTEX
  5
26F
  8
0
 62
     0
 10
-12850.07492818589
 20
-3564.789214667081
 30
0.0
  0
VERTEX
  5
270
  8
0
 62
     0
 10
-12847.67984737307
 20
-3546.826108570939
 30
0.0
  0
VERTEX
  5
271
  8
0
 62
     0
 10
-12841.69214534103
 20
-3528.863002474798
 30
0.0
  0
VERTEX
  5
272
  8
0
 62
     0
 10
-12832.11182208975
 20
-3515.690058004294
 30
0.0
  0
VERTEX
  5
273
  8
0
 62
     0
 10
-12833.10959546719
 20
-3511.499197465565
 30
0.0
  0
VERTEX
  5
274
  8
0
 62
     0
 10
-12848.87738777948
 20
-3464.195820528689
 30
0.0
  0
VERTEX
  5
275
  8
0
 62
     0
 10
-12850.07492818589
 20
-3591.135103608088
 30
0.0
  0
SEQEND
  5
283
  8
0
 62
     0
  0
POLYLINE
  5
CE
  8
0
 62
     0
 66
     1
 10
0.0
 20
0.0
 30
0.0
  0
VERTEX
  5
276
  8
0
 62
     0
 10
-12826.89687090092
 20
-3530.137371164372
 30
0.0
  0
VERTEX
  5
277
  8
0
 62
     0
 10
-12828.51920087052
 20
-3526.467921661979
 30
0.0
  0
VERTEX
  5
278
  8
0
 62
     0
 10
-12839.29706452821
 20
-3545.62856816453
 30
0.0
  0
VERTEX
  5
279
  8
0
 62
     0
 10
-12839.29706452821
 20
-3563.591674260671
 30
0.0
  0
VERTEX
  5
27A
  8
0
 62
     0
 10
-12833.30936249616
 20
-3580.357239950403
 30
0.0
  0
VERTEX
  5
27B
  8
0
 62
     0
 10
-12803.37085233592
 20
-3625.863775393962
 30
0.0
  0
VERTEX
  5
27C
  8
0
 62
     0
 10
-12793.79052908465
 20
-3618.678532955505
 30
0.0
  0
VERTEX
  5
27D
  8
0
 62
     0
 10
-12803.37085233592
 20
-3600.715426859364
 30
0.0
  0
VERTEX
  5
27E
  8
0
 62
     0
 10
-12826.89687090092
 20
-3530.137371164372
 30
0.0
  0
SEQEND
  5
284
  8
0
 62
     0
  0
ENDSEC
  0
EOF
