  0
SECTION
  2
HEADER
  9
$ACADVER
  1
AC1009
  9
$DWGCODEPAGE
  3
ansi_1252
  9
$INSBASE
 10
8682.210663363505
 20
-4365.943746554987
 30
0.0
  9
$EXTMIN
 10
8682.210663363505
 20
-4369.536367774215
 30
0.0
  9
$EXTMAX
 10
9104.942426826032
 20
-3231.87298168526
 30
0.0
  9
$LIMMIN
 10
0.0
 20
0.0
  9
$LIMMAX
 10
12.0
 20
9.0
  9
$ORTHOMODE
 70
     0
  9
$REGENMODE
 70
     1
  9
$FILLMODE
 70
     1
  9
$QTEXTMODE
 70
     0
  9
$MIRRTEXT
 70
     1
  9
$DRAGMODE
 70
     2
  9
$LTSCALE
 40
1.0
  9
$OSMODE
 70
    37
  9
$ATTMODE
 70
     1
  9
$TEXTSIZE
 40
0.2
  9
$TRACEWID
 40
0.05
  9
$TEXTSTYLE
  7
STANDARD
  9
$CLAYER
  8
0
  9
$CELTYPE
  6
BYLAYER
  9
$CECOLOR
 62
   256
  9
$DIMSCALE
 40
1.0
  9
$DIMASZ
 40
0.18
  9
$DIMEXO
 40
0.0625
  9
$DIMDLI
 40
0.38
  9
$DIMRND
 40
0.0
  9
$DIMDLE
 40
0.0
  9
$DIMEXE
 40
0.18
  9
$DIMTP
 40
0.0
  9
$DIMTM
 40
0.0
  9
$DIMTXT
 40
0.18
  9
$DIMCEN
 40
0.09
  9
$DIMTSZ
 40
0.0
  9
$DIMTOL
 70
     0
  9
$DIMLIM
 70
     0
  9
$DIMTIH
 70
     1
  9
$DIMTOH
 70
     1
  9
$DIMSE1
 70
     0
  9
$DIMSE2
 70
     0
  9
$DIMTAD
 70
     0
  9
$DIMZIN
 70
     0
  9
$DIMBLK
  1

  9
$DIMASO
 70
     1
  9
$DIMSHO
 70
     1
  9
$DIMPOST
  1

  9
$DIMAPOST
  1

  9
$DIMALT
 70
     0
  9
$DIMALTD
 70
     2
  9
$DIMALTF
 40
25.4
  9
$DIMLFAC
 40
1.0
  9
$DIMTOFL
 70
     0
  9
$DIMTVP
 40
0.0
  9
$DIMTIX
 70
     0
  9
$DIMSOXD
 70
     0
  9
$DIMSAH
 70
     0
  9
$DIMBLK1
  1

  9
$DIMBLK2
  1

  9
$DIMSTYLE
  2
STANDARD
  9
$DIMCLRD
 70
     0
  9
$DIMCLRE
 70
     0
  9
$DIMCLRT
 70
     0
  9
$DIMTFAC
 40
1.0
  9
$DIMGAP
 40
0.09
  9
$LUNITS
 70
     2
  9
$LUPREC
 70
     2
  9
$SKETCHINC
 40
0.1
  9
$FILLETRAD
 40
0.0
  9
$AUNITS
 70
     0
  9
$AUPREC
 70
     0
  9
$MENU
  1
.
  9
$ELEVATION
 40
0.0
  9
$PELEVATION
 40
0.0
  9
$THICKNESS
 40
0.0
  9
$LIMCHECK
 70
     0
  9
$CHAMFERA
 40
0.5
  9
$CHAMFERB
 40
0.5
  9
$SKPOLY
 70
     0
  9
$TDCREATE
 40
2451109.617893981
  9
$TDUPDATE
 40
2457483.532951389
  9
$TDINDWG
 40
0.0577315856
  9
$TDUSRTIMER
 40
0.0576933912
  9
$USRTIMER
 70
     1
  9
$ANGBASE
 50
0.0
  9
$ANGDIR
 70
     0
  9
$PDMODE
 70
     0
  9
$PDSIZE
 40
0.0
  9
$PLINEWID
 40
0.0
  9
$COORDS
 70
     1
  9
$SPLFRAME
 70
     0
  9
$SPLINETYPE
 70
     6
  9
$SPLINESEGS
 70
     8
  9
$ATTDIA
 70
     0
  9
$ATTREQ
 70
     1
  9
$HANDLING
 70
     1
  9
$HANDSEED
  5
26C
  9
$SURFTAB1
 70
     6
  9
$SURFTAB2
 70
     6
  9
$SURFTYPE
 70
     6
  9
$SURFU
 70
     6
  9
$SURFV
 70
     6
  9
$UCSNAME
  2

  9
$UCSORG
 10
0.0
 20
0.0
 30
0.0
  9
$UCSXDIR
 10
1.0
 20
0.0
 30
0.0
  9
$UCSYDIR
 10
0.0
 20
1.0
 30
0.0
  9
$PUCSNAME
  2

  9
$PUCSORG
 10
0.0
 20
0.0
 30
0.0
  9
$PUCSXDIR
 10
1.0
 20
0.0
 30
0.0
  9
$PUCSYDIR
 10
0.0
 20
1.0
 30
0.0
  9
$USERI1
 70
     0
  9
$USERI2
 70
     0
  9
$USERI3
 70
     0
  9
$USERI4
 70
     0
  9
$USERI5
 70
     0
  9
$USERR1
 40
0.0
  9
$USERR2
 40
0.0
  9
$USERR3
 40
0.0
  9
$USERR4
 40
0.0
  9
$USERR5
 40
0.0
  9
$WORLDVIEW
 70
     1
  9
$SHADEDGE
 70
     3
  9
$SHADEDIF
 70
    70
  9
$TILEMODE
 70
     1
  9
$MAXACTVP
 70
    48
  9
$PLIMCHECK
 70
     0
  9
$PEXTMIN
 10
1.000000000000000E+20
 20
1.000000000000000E+20
 30
1.000000000000000E+20
  9
$PEXTMAX
 10
-1.000000000000000E+20
 20
-1.000000000000000E+20
 30
-1.000000000000000E+20
  9
$PLIMMIN
 10
0.0
 20
0.0
  9
$PLIMMAX
 10
12.0
 20
9.0
  9
$UNITMODE
 70
     0
  9
$VISRETAIN
 70
     1
  9
$PLINEGEN
 70
     0
  9
$PSLTSCALE
 70
     1
  0
ENDSEC
  0
SECTION
  2
TABLES
  0
TABLE
  2
VPORT
 70
     1
  0
VPORT
  2
*ACTIVE
 70
     0
 10
0.0
 20
0.0
 11
1.0
 21
1.0
 12
8893.698786086963
 22
-3592.008828693632
 13
0.0
 23
0.0
 14
0.5
 24
0.5
 15
0.5
 25
0.5
 16
0.0
 26
0.0
 36
1.0
 17
0.0
 27
0.0
 37
0.0
 40
1574.940947772272
 41
1.376889848812095
 42
50.0
 43
0.0
 44
0.0
 50
0.0
 51
0.0
 71
     0
 72
   100
 73
     1
 74
     3
 75
     0
 76
     0
 77
     0
 78
     0
  0
ENDTAB
  0
TABLE
  2
LTYPE
 70
     1
  0
LTYPE
  2
CONTINUOUS
 70
     0
  3
Solid line
 72
    65
 73
     0
 40
0.0
  0
ENDTAB
  0
TABLE
  2
LAYER
 70
     1
  0
LAYER
  2
0
 70
     0
 62
     7
  6
CONTINUOUS
  0
ENDTAB
  0
TABLE
  2
STYLE
 70
     1
  0
STYLE
  2
STANDARD
 70
     0
 40
0.0
 41
1.0
 50
0.0
 71
     0
 42
0.2
  3
txt
  4

  0
ENDTAB
  0
TABLE
  2
VIEW
 70
     0
  0
ENDTAB
  0
TABLE
  2
UCS
 70
     0
  0
ENDTAB
  0
TABLE
  2
APPID
 70
     1
  0
APPID
  2
ACAD
 70
     0
  0
ENDTAB
  0
TABLE
  2
DIMSTYLE
 70
     1
  0
DIMSTYLE
  2
STANDARD
 70
     0
  3

  4

  5

  6

  7

 40
1.0
 41
0.18
 42
0.0625
 43
0.38
 44
0.18
 45
0.0
 46
0.0
 47
0.0
 48
0.0
140
0.18
141
0.09
142
0.0
143
25.4
144
1.0
145
0.0
146
1.0
147
0.09
 71
     0
 72
     0
 73
     1
 74
     1
 75
     0
 76
     0
 77
     0
 78
     0
170
     0
171
     2
172
     0
173
     0
174
     0
175
     0
176
     0
177
     0
178
     0
  0
ENDTAB
  0
ENDSEC
  0
SECTION
  2
BLOCKS
  0
BLOCK
  8
0
  2
$MODEL_SPACE
 70
     0
 10
0.0
 20
0.0
 30
0.0
  3
$MODEL_SPACE
  1

  0
ENDBLK
  5
F
  8
0
  0
BLOCK
 67
     1
  8
0
  2
$PAPER_SPACE
 70
     0
 10
0.0
 20
0.0
 30
0.0
  3
$PAPER_SPACE
  1

  0
ENDBLK
  5
15
 67
     1
  8
0
  0
BLOCK
  8
0
  2
*U0
 70
     1
 10
0.0
 20
0.0
 30
0.0
  3
*U0
  1

  0
SOLID
  5
35
  8
0
  6
CONTINUOUS
 10
8823.520431319816
 20
-4367.141286961396
 30
0.0
 11
8773.223734250621
 21
-4368.338827367806
 31
0.0
 12
8823.520431319816
 22
-4369.536367774215
 32
0.0
 13
8823.520431319816
 23
-4369.536367774215
 33
0.0
  0
SOLID
  5
36
  8
0
  6
CONTINUOUS
 10
8823.520431319816
 20
-4367.141286961396
 30
0.0
 11
8827.113052539044
 21
-4368.338827367806
 31
0.0
 12
8852.261401073642
 22
-4368.338827367806
 32
0.0
 13
8852.261401073642
 23
-4368.338827367806
 33
0.0
  0
SOLID
  5
37
  8
0
  6
CONTINUOUS
 10
8761.248330186529
 20
-4367.141286961396
 30
0.0
 11
8773.223734250621
 21
-4368.338827367806
 31
0.0
 12
8823.520431319816
 22
-4367.141286961396
 32
0.0
 13
8823.520431319816
 23
-4367.141286961396
 33
0.0
  0
SOLID
  5
38
  8
0
  6
CONTINUOUS
 10
8682.210663363507
 20
-4365.943746554987
 30
0.0
 11
8738.495062464748
 21
-4369.536367774215
 31
0.0
 12
8761.248330186529
 22
-4367.141286961396
 32
0.0
 13
8761.248330186529
 23
-4367.141286961396
 33
0.0
  0
SOLID
  5
39
  8
0
  6
CONTINUOUS
 10
8682.210663363505
 20
-4357.560963710122
 30
0.0
 11
8682.210663363507
 21
-4365.943746554987
 31
0.0
 12
8761.248330186529
 22
-4367.141286961396
 32
0.0
 13
8761.248330186529
 23
-4367.141286961396
 33
0.0
  0
SOLID
  5
3A
  8
0
  6
CONTINUOUS
 10
8682.210663363505
 20
-4357.560963710122
 30
0.0
 11
8761.248330186529
 21
-4367.141286961396
 31
0.0
 12
8823.520431319816
 22
-4367.141286961396
 32
0.0
 13
8823.520431319816
 23
-4367.141286961396
 33
0.0
  0
SOLID
  5
3B
  8
0
  6
CONTINUOUS
 10
8682.210663363505
 20
-4357.560963710122
 30
0.0
 11
8823.520431319816
 21
-4367.141286961396
 31
0.0
 12
8852.261401073642
 22
-4368.338827367806
 32
0.0
 13
8852.261401073642
 23
-4368.338827367806
 33
0.0
  0
SOLID
  5
3C
  8
0
  6
CONTINUOUS
 10
9010.336734719687
 20
-4351.573261678074
 30
0.0
 11
8927.706446677437
 21
-4367.141286961396
 31
0.0
 12
9001.95395187482
 22
-4368.338827367805
 32
0.0
 13
9001.95395187482
 23
-4368.338827367805
 33
0.0
  0
SOLID
  5
3D
  8
0
  6
CONTINUOUS
 10
8913.335961800525
 20
-4347.980640458845
 30
0.0
 11
8927.706446677437
 21
-4367.141286961396
 31
0.0
 12
9010.336734719687
 22
-4351.573261678074
 32
0.0
 13
9010.336734719687
 23
-4351.573261678074
 33
0.0
  0
SOLID
  5
3E
  8
0
  6
CONTINUOUS
 10
8858.249103105692
 20
-4343.1904788332
 30
0.0
 11
8682.210663363505
 21
-4357.560963710122
 31
0.0
 12
8852.261401073642
 22
-4368.338827367806
 32
0.0
 13
8852.261401073642
 23
-4368.338827367806
 33
0.0
  0
SOLID
  5
3F
  8
0
  6
CONTINUOUS
 10
8737.297522058341
 20
-4337.202776801161
 30
0.0
 11
8682.210663363505
 21
-4357.560963710122
 31
0.0
 12
8858.249103105692
 22
-4343.1904788332
 32
0.0
 13
8858.249103105692
 23
-4343.1904788332
 33
0.0
  0
SOLID
  5
40
  8
0
  6
CONTINUOUS
 10
8860.644183918512
 20
-4327.622453549889
 30
0.0
 11
8737.297522058341
 21
-4337.202776801161
 31
0.0
 12
8858.249103105692
 22
-4343.1904788332
 32
0.0
 13
8858.249103105692
 23
-4343.1904788332
 33
0.0
  0
SOLID
  5
41
  8
0
  6
CONTINUOUS
 10
8925.311365864614
 20
-4321.634751517841
 30
0.0
 11
8913.335961800525
 21
-4347.980640458845
 31
0.0
 12
9010.336734719687
 22
-4351.573261678074
 32
0.0
 13
9010.336734719687
 23
-4351.573261678074
 33
0.0
  0
SOLID
  5
42
  8
0
  6
CONTINUOUS
 10
8859.4466435121
 20
-4319.239670705018
 30
0.0
 11
8737.297522058341
 21
-4337.202776801161
 31
0.0
 12
8860.644183918512
 22
-4327.622453549889
 32
0.0
 13
8860.644183918512
 23
-4327.622453549889
 33
0.0
  0
SOLID
  5
43
  8
0
  6
CONTINUOUS
 10
8854.65648188646
 20
-4316.844589892201
 30
0.0
 11
8737.297522058341
 21
-4337.202776801161
 31
0.0
 12
8859.4466435121
 22
-4319.239670705018
 32
0.0
 13
8859.4466435121
 23
-4319.239670705018
 33
0.0
  0
SOLID
  5
44
  8
0
  6
CONTINUOUS
 10
8991.176088217137
 20
-4310.856887860153
 30
0.0
 11
8925.311365864614
 21
-4321.634751517841
 31
0.0
 12
9010.336734719687
 22
-4351.573261678074
 32
0.0
 13
9010.336734719687
 23
-4351.573261678074
 33
0.0
  0
SOLID
  5
45
  8
0
  6
CONTINUOUS
 10
8780.408976689076
 20
-4308.461807047333
 30
0.0
 11
8737.297522058341
 21
-4337.202776801161
 31
0.0
 12
8854.65648188646
 22
-4316.844589892201
 32
0.0
 13
8854.65648188646
 23
-4316.844589892201
 33
0.0
  0
SOLID
  5
46
  8
0
  6
CONTINUOUS
 10
8768.433572624985
 20
-4302.474105015289
 30
0.0
 11
8780.408976689076
 21
-4308.461807047333
 31
0.0
 12
8854.65648188646
 22
-4316.844589892201
 32
0.0
 13
8854.65648188646
 23
-4316.844589892201
 33
0.0
  0
SOLID
  5
47
  8
0
  6
CONTINUOUS
 10
9003.151492281228
 20
-4298.881483796058
 30
0.0
 11
8925.311365864614
 21
-4321.634751517841
 31
0.0
 12
8991.176088217137
 22
-4310.856887860153
 32
0.0
 13
8991.176088217137
 23
-4310.856887860153
 33
0.0
  0
SOLID
  5
48
  8
0
  6
CONTINUOUS
 10
8931.299067896663
 20
-4297.683943389648
 30
0.0
 11
8925.311365864614
 21
-4321.634751517841
 31
0.0
 12
9003.151492281228
 22
-4298.881483796058
 32
0.0
 13
9003.151492281228
 23
-4298.881483796058
 33
0.0
  0
SOLID
  5
49
  8
0
  6
CONTINUOUS
 10
8864.236805137734
 20
-4292.893781764007
 30
0.0
 11
8768.433572624985
 21
-4302.474105015289
 31
0.0
 12
8854.65648188646
 22
-4316.844589892201
 32
0.0
 13
8854.65648188646
 23
-4316.844589892201
 33
0.0
  0
SOLID
  5
4A
  8
0
  6
CONTINUOUS
 10
8872.61958798258
 20
-4200.68317047115
 30
0.0
 11
8768.433572624985
 21
-4302.474105015289
 31
0.0
 12
8864.236805137734
 22
-4292.893781764007
 32
0.0
 13
8864.236805137734
 23
-4292.893781764007
 33
0.0
  0
SOLID
  5
4B
  8
0
  6
CONTINUOUS
 10
9006.74411350046
 20
-4197.090549251263
 30
0.0
 11
8931.299067896663
 21
-4297.683943389648
 31
0.0
 12
9003.151492281228
 22
-4298.881483796058
 32
0.0
 13
9003.151492281228
 23
-4298.881483796058
 33
0.0
  0
SOLID
  5
4C
  8
0
  6
CONTINUOUS
 10
8915.73104261334
 20
-4182.720064374334
 30
0.0
 11
8931.299067896663
 21
-4297.683943389648
 31
0.0
 12
9006.74411350046
 22
-4197.090549251263
 32
0.0
 13
9006.74411350046
 23
-4197.090549251263
 33
0.0
  0
SOLID
  5
4D
  8
0
  6
CONTINUOUS
 10
8915.73104261334
 20
-4182.720064374334
 30
0.0
 11
8921.71874464539
 21
-4298.88148379606
 31
0.0
 12
8931.299067896663
 22
-4297.683943389648
 32
0.0
 13
8931.299067896663
 23
-4297.683943389648
 33
0.0
  0
SOLID
  5
4E
  8
0
  6
CONTINUOUS
 10
8877.409749608241
 20
-4149.188932994879
 30
0.0
 11
8768.433572624985
 21
-4302.474105015289
 31
0.0
 12
8872.61958798258
 22
-4200.68317047115
 32
0.0
 13
8872.61958798258
 23
-4200.68317047115
 33
0.0
  0
SOLID
  5
4F
  8
0
  6
CONTINUOUS
 10
8915.731042613343
 20
-4138.411069337197
 30
0.0
 11
8915.73104261334
 21
-4182.720064374334
 31
0.0
 12
9006.74411350046
 22
-4197.090549251263
 32
0.0
 13
9006.74411350046
 23
-4197.090549251263
 33
0.0
  0
SOLID
  5
50
  8
0
  6
CONTINUOUS
 10
9001.953951874819
 20
-4133.620907711559
 30
0.0
 11
8915.731042613343
 21
-4138.411069337197
 31
0.0
 12
9006.74411350046
 22
-4197.090549251263
 32
0.0
 13
9006.74411350046
 23
-4197.090549251263
 33
0.0
  0
SOLID
  5
51
  8
0
  6
CONTINUOUS
 10
8770.8286534378
 20
-4119.250422834764
 30
0.0
 11
8768.433572624985
 21
-4302.474105015289
 31
0.0
 12
8877.409749608241
 22
-4149.188932994879
 32
0.0
 13
8877.409749608241
 23
-4149.188932994879
 33
0.0
  0
SOLID
  5
52
  8
0
  6
CONTINUOUS
 10
8913.335961800525
 20
-4108.472559176758
 30
0.0
 11
8915.731042613343
 21
-4138.411069337197
 31
0.0
 12
9001.953951874819
 22
-4133.620907711559
 32
0.0
 13
9001.953951874819
 23
-4133.620907711559
 33
0.0
  0
SOLID
  5
53
  8
0
  6
CONTINUOUS
 10
8876.212209201827
 20
-4102.4848571449
 30
0.0
 11
8770.8286534378
 21
-4119.250422834764
 31
0.0
 12
8877.409749608241
 22
-4149.188932994879
 32
0.0
 13
8877.409749608241
 23
-4149.188932994879
 33
0.0
  0
SOLID
  5
54
  8
0
  6
CONTINUOUS
 10
8770.828653437802
 20
-4088.114372268011
 30
0.0
 11
8770.8286534378
 21
-4119.250422834764
 31
0.0
 12
8876.212209201827
 22
-4102.4848571449
 32
0.0
 13
8876.212209201827
 23
-4102.4848571449
 33
0.0
  0
SOLID
  5
55
  8
0
  6
CONTINUOUS
 10
8873.817128389013
 20
-4078.534049016732
 30
0.0
 11
8770.828653437802
 21
-4088.114372268011
 31
0.0
 12
8876.212209201827
 22
-4102.4848571449
 32
0.0
 13
8876.212209201827
 23
-4102.4848571449
 33
0.0
  0
SOLID
  5
56
  8
0
  6
CONTINUOUS
 10
9006.744113500456
 20
-4078.534049016719
 30
0.0
 11
8913.335961800525
 21
-4108.472559176758
 31
0.0
 12
9001.953951874819
 22
-4133.620907711559
 32
0.0
 13
9001.953951874819
 23
-4133.620907711559
 33
0.0
  0
SOLID
  5
57
  8
0
  6
CONTINUOUS
 10
8910.940880987706
 20
-4073.743887391088
 30
0.0
 11
8913.335961800525
 21
-4108.472559176758
 31
0.0
 12
9006.744113500456
 22
-4078.534049016719
 32
0.0
 13
9006.744113500456
 23
-4078.534049016719
 33
0.0
  0
SOLID
  5
58
  8
0
  6
CONTINUOUS
 10
9009.139194313277
 20
-4043.805377230859
 30
0.0
 11
8910.940880987706
 21
-4073.743887391088
 31
0.0
 12
9006.744113500456
 22
-4078.534049016719
 32
0.0
 13
9006.744113500456
 23
-4078.534049016719
 33
0.0
  0
SOLID
  5
59
  8
0
  6
CONTINUOUS
 10
8886.990072859518
 20
-3983.928356910381
 30
0.0
 11
8770.828653437802
 21
-4088.114372268011
 31
0.0
 12
8873.817128389013
 22
-4078.534049016732
 32
0.0
 13
8873.817128389013
 23
-4078.534049016732
 33
0.0
  0
SOLID
  5
5A
  8
0
  6
CONTINUOUS
 10
8879.804830421055
 20
-3982.73081650397
 30
0.0
 11
8770.828653437802
 21
-4088.114372268011
 31
0.0
 12
8886.990072859518
 22
-3983.928356910381
 32
0.0
 13
8886.990072859518
 23
-3983.928356910381
 33
0.0
  0
SOLID
  5
5B
  8
0
  6
CONTINUOUS
 10
8890.582694078745
 20
-3979.138195284743
 30
0.0
 11
8910.940880987706
 21
-4073.743887391088
 31
0.0
 12
9009.139194313277
 22
-4043.805377230859
 32
0.0
 13
9009.139194313277
 23
-4043.805377230859
 33
0.0
  0
SOLID
  5
5C
  8
0
  6
CONTINUOUS
 10
8766.038491812165
 20
-3976.743114471923
 30
0.0
 11
8879.804830421055
 21
-3982.73081650397
 31
0.0
 12
8890.582694078745
 22
-3979.138195284743
 32
0.0
 13
8890.582694078745
 23
-3979.138195284743
 33
0.0
  0
SOLID
  5
5D
  8
0
  6
CONTINUOUS
 10
8766.038491812165
 20
-3976.743114471923
 30
0.0
 11
8770.828653437802
 21
-4088.114372268011
 31
0.0
 12
8879.804830421055
 22
-3982.73081650397
 32
0.0
 13
8879.804830421055
 23
-3982.73081650397
 33
0.0
  0
SOLID
  5
5E
  8
0
  6
CONTINUOUS
 10
8739.692602871157
 20
-3971.952952846286
 30
0.0
 11
8766.038491812165
 21
-3976.743114471923
 31
0.0
 12
8890.582694078745
 22
-3979.138195284743
 32
0.0
 13
8890.582694078745
 23
-3979.138195284743
 33
0.0
  0
SOLID
  5
5F
  8
0
  6
CONTINUOUS
 10
9028.484077801431
 20
-3926.446417402727
 30
0.0
 11
8739.692602871157
 21
-3971.952952846286
 31
0.0
 12
8890.582694078745
 22
-3979.138195284743
 32
0.0
 13
8890.582694078745
 23
-3979.138195284743
 33
0.0
  0
SOLID
  5
60
  8
0
  6
CONTINUOUS
 10
9028.484077801431
 20
-3926.446417402727
 30
0.0
 11
8890.582694078745
 21
-3979.138195284743
 31
0.0
 12
9009.139194313277
 22
-4043.805377230859
 32
0.0
 13
9009.139194313277
 23
-4043.805377230859
 33
0.0
  0
SOLID
  5
61
  8
0
  6
CONTINUOUS
 10
9088.176861136299
 20
-3886.927583991215
 30
0.0
 11
9028.484077801431
 21
-3926.446417402727
 31
0.0
 12
9080.492643528507
 22
-3926.446417402727
 32
0.0
 13
9080.492643528507
 23
-3926.446417402727
 33
0.0
  0
SOLID
  5
62
  8
0
  6
CONTINUOUS
 10
9088.176861136299
 20
-3886.927583991215
 30
0.0
 11
8739.692602871157
 21
-3971.952952846286
 31
0.0
 12
9028.484077801431
 22
-3926.446417402727
 32
0.0
 13
9028.484077801431
 23
-3926.446417402727
 33
0.0
  0
SOLID
  5
63
  8
0
  6
CONTINUOUS
 10
9080.99161869784
 20
-3867.766937488666
 30
0.0
 11
8739.692602871157
 21
-3971.952952846286
 31
0.0
 12
9088.176861136299
 22
-3886.927583991215
 32
0.0
 13
9088.176861136299
 23
-3886.927583991215
 33
0.0
  0
SOLID
  5
64
  8
0
  6
CONTINUOUS
 10
9086.97932072989
 20
-3865.371856675847
 30
0.0
 11
8739.692602871157
 21
-3971.952952846286
 31
0.0
 12
9080.99161869784
 22
-3867.766937488666
 32
0.0
 13
9080.99161869784
 23
-3867.766937488666
 33
0.0
  0
SOLID
  5
65
  8
0
  6
CONTINUOUS
 10
8746.877845309613
 20
-3806.692376761782
 30
0.0
 11
8739.692602871157
 21
-3971.952952846286
 31
0.0
 12
9086.97932072989
 22
-3865.371856675847
 32
0.0
 13
9086.97932072989
 23
-3865.371856675847
 33
0.0
  0
SOLID
  5
66
  8
0
  6
CONTINUOUS
 10
8734.902441245516
 20
-3751.605518066945
 30
0.0
 11
8746.877845309613
 21
-3806.692376761782
 31
0.0
 12
9086.97932072989
 22
-3865.371856675847
 32
0.0
 13
9086.97932072989
 23
-3865.371856675847
 33
0.0
  0
SOLID
  5
67
  8
0
  6
CONTINUOUS
 10
9101.349805606802
 20
-3725.259629125929
 30
0.0
 11
8734.902441245516
 21
-3751.605518066945
 31
0.0
 12
9086.97932072989
 22
-3865.371856675847
 32
0.0
 13
9086.97932072989
 23
-3865.371856675847
 33
0.0
  0
SOLID
  5
68
  8
0
  6
CONTINUOUS
 10
8720.531956368604
 20
-3719.271927093897
 30
0.0
 11
8734.902441245516
 21
-3751.605518066945
 31
0.0
 12
9101.349805606802
 22
-3725.259629125929
 32
0.0
 13
9101.349805606802
 23
-3725.259629125929
 33
0.0
  0
SOLID
  5
69
  8
0
  6
CONTINUOUS
 10
8709.75409271092
 20
-3654.604745147784
 30
0.0
 11
8720.531956368604
 21
-3719.271927093897
 31
0.0
 12
9101.349805606802
 22
-3725.259629125929
 32
0.0
 13
9101.349805606802
 23
-3725.259629125929
 33
0.0
  0
SOLID
  5
6A
  8
0
  6
CONTINUOUS
 10
9100.152265200393
 20
-3641.431800677291
 30
0.0
 11
8709.75409271092
 21
-3654.604745147784
 31
0.0
 12
9101.349805606802
 22
-3725.259629125929
 32
0.0
 13
9101.349805606802
 23
-3725.259629125929
 33
0.0
  0
SOLID
  5
6B
  8
0
  6
CONTINUOUS
 10
8728.914739213471
 20
-3501.319573127381
 30
0.0
 11
8709.75409271092
 21
-3654.604745147784
 31
0.0
 12
9100.152265200393
 22
-3641.431800677291
 32
0.0
 13
9100.152265200393
 23
-3641.431800677291
 33
0.0
  0
SOLID
  5
6C
  8
0
  6
CONTINUOUS
 10
9064.226053008108
 20
-3496.529411501744
 30
0.0
 11
8728.914739213471
 21
-3501.319573127381
 31
0.0
 12
9100.152265200393
 22
-3641.431800677291
 32
0.0
 13
9100.152265200393
 23
-3641.431800677291
 33
0.0
  0
SOLID
  5
6D
  8
0
  6
CONTINUOUS
 10
9011.534275126096
 20
-3460.603199309461
 30
0.0
 11
8728.914739213471
 21
-3501.319573127381
 31
0.0
 12
9064.226053008108
 22
-3496.529411501744
 32
0.0
 13
9064.226053008108
 23
-3496.529411501744
 33
0.0
  0
SOLID
  5
6E
  8
0
  6
CONTINUOUS
 10
8773.223734250618
 20
-3458.208118496643
 30
0.0
 11
8728.914739213471
 21
-3501.319573127381
 31
0.0
 12
9011.534275126096
 22
-3460.603199309461
 32
0.0
 13
9011.534275126096
 23
-3460.603199309461
 33
0.0
  0
SOLID
  5
6F
  8
0
  6
CONTINUOUS
 10
8938.043111238023
 20
-3440.560154612713
 30
0.0
 11
8773.223734250618
 21
-3458.208118496643
 31
0.0
 12
9011.534275126096
 22
-3460.603199309461
 32
0.0
 13
9011.534275126096
 23
-3460.603199309461
 33
0.0
  0
SOLID
  5
70
  8
0
  6
CONTINUOUS
 10
8843.87861822878
 20
-3440.2450124005
 30
0.0
 11
8773.223734250618
 21
-3458.208118496643
 31
0.0
 12
8938.043111238023
 22
-3440.560154612713
 32
0.0
 13
8938.043111238023
 23
-3440.560154612713
 33
0.0
  0
SOLID
  5
71
  8
0
  6
CONTINUOUS
 10
8845.076158635187
 20
-3424.676987117177
 30
0.0
 11
8843.87861822878
 21
-3440.2450124005
 31
0.0
 12
8938.043111238023
 22
-3440.560154612713
 32
0.0
 13
8938.043111238023
 23
-3440.560154612713
 33
0.0
  0
SOLID
  5
72
  8
0
  6
CONTINUOUS
 10
8869.235234660144
 20
-3421.65710261406
 30
0.0
 11
8845.076158635187
 21
-3424.676987117177
 31
0.0
 12
8938.043111238023
 22
-3440.560154612713
 32
0.0
 13
8938.043111238023
 23
-3440.560154612713
 33
0.0
  0
SOLID
  5
73
  8
0
  6
CONTINUOUS
 10
8924.113825458207
 20
-3412.701583053083
 30
0.0
 11
8869.235234660144
 21
-3421.65710261406
 31
0.0
 12
8938.043111238023
 22
-3440.560154612713
 32
0.0
 13
8938.043111238023
 23
-3440.560154612713
 33
0.0
  0
SOLID
  5
74
  8
0
  6
CONTINUOUS
 10
8842.681077822366
 20
-3399.528638582579
 30
0.0
 11
8869.235234660144
 21
-3421.65710261406
 31
0.0
 12
8924.113825458207
 22
-3412.701583053083
 32
0.0
 13
8924.113825458207
 23
-3412.701583053083
 33
0.0
  0
SOLID
  5
75
  8
0
  6
CONTINUOUS
 10
8940.879391147939
 20
-3393.540936550531
 30
0.0
 11
8842.681077822366
 21
-3399.528638582579
 31
0.0
 12
8924.113825458207
 22
-3412.701583053083
 32
0.0
 13
8924.113825458207
 23
-3412.701583053083
 33
0.0
  0
SOLID
  5
76
  8
0
  6
CONTINUOUS
 10
8828.310592945454
 20
-3368.392588015933
 30
0.0
 11
8842.681077822366
 21
-3399.528638582579
 31
0.0
 12
8940.879391147939
 22
-3393.540936550531
 32
0.0
 13
8940.879391147939
 23
-3393.540936550531
 33
0.0
  0
SOLID
  5
77
  8
0
  6
CONTINUOUS
 10
8954.052335618442
 20
-3351.627022326202
 30
0.0
 11
8828.310592945454
 21
-3368.392588015933
 31
0.0
 12
8940.879391147939
 22
-3393.540936550531
 32
0.0
 13
8940.879391147939
 23
-3393.540936550531
 33
0.0
  0
SOLID
  5
78
  8
0
  6
CONTINUOUS
 10
8823.520431319817
 20
-3350.429481919788
 30
0.0
 11
8828.310592945454
 21
-3368.392588015933
 31
0.0
 12
8954.052335618442
 22
-3351.627022326202
 32
0.0
 13
8954.052335618442
 23
-3351.627022326202
 33
0.0
  0
SOLID
  5
79
  8
0
  6
CONTINUOUS
 10
8821.125350506998
 20
-3321.688512165972
 30
0.0
 11
8823.520431319817
 21
-3350.429481919788
 31
0.0
 12
8954.052335618442
 22
-3351.627022326202
 32
0.0
 13
8954.052335618442
 23
-3351.627022326202
 33
0.0
  0
SOLID
  5
7A
  8
0
  6
CONTINUOUS
 10
8961.014202644306
 20
-3314.497064854954
 30
0.0
 11
8821.125350506998
 21
-3321.688512165972
 31
0.0
 12
8954.052335618442
 22
-3351.627022326202
 32
0.0
 13
8954.052335618442
 23
-3351.627022326202
 33
0.0
  0
SOLID
  5
7B
  8
0
  6
CONTINUOUS
 10
8815.137648474949
 20
-3289.354921192913
 30
0.0
 11
8821.125350506998
 21
-3321.688512165972
 31
0.0
 12
8961.014202644306
 22
-3314.497064854954
 32
0.0
 13
8961.014202644306
 23
-3314.497064854954
 33
0.0
  0
SOLID
  5
7C
  8
0
  6
CONTINUOUS
 10
8956.447416431263
 20
-3265.404113064723
 30
0.0
 11
8815.137648474949
 21
-3289.354921192913
 31
0.0
 12
8961.014202644306
 22
-3314.497064854954
 32
0.0
 13
8961.014202644306
 23
-3314.497064854954
 33
0.0
  0
SOLID
  5
7D
  8
0
  6
CONTINUOUS
 10
8831.903214164684
 20
-3251.033628187811
 30
0.0
 11
8815.137648474949
 21
-3289.354921192913
 31
0.0
 12
8956.447416431263
 22
-3265.404113064723
 32
0.0
 13
8956.447416431263
 23
-3265.404113064723
 33
0.0
  0
SOLID
  5
7E
  8
0
  6
CONTINUOUS
 10
8937.286769928713
 20
-3240.255764530126
 30
0.0
 11
8831.903214164684
 21
-3251.033628187811
 31
0.0
 12
8956.447416431263
 22
-3265.404113064723
 32
0.0
 13
8956.447416431263
 23
-3265.404113064723
 33
0.0
  0
SOLID
  5
7F
  8
0
  6
CONTINUOUS
 10
8877.409749608238
 20
-3231.872981685261
 30
0.0
 11
8831.903214164684
 21
-3251.033628187811
 31
0.0
 12
8937.286769928713
 22
-3240.255764530126
 32
0.0
 13
8937.286769928713
 23
-3240.255764530126
 33
0.0
  0
ENDBLK
  5
81
  8
0
  0
BLOCK
  8
0
  2
*U1
 70
     1
 10
0.0
 20
0.0
 30
0.0
  3
*U1
  1

  0
SOLID
  5
12D
  8
0
  6
CONTINUOUS
 10
9045.065406505562
 20
-3933.19619060249
 30
0.0
 11
9045.06540650556
 21
-4147.991392588471
 31
0.0
 12
9104.942426826032
 22
-4147.991392588471
 32
0.0
 13
9104.942426826032
 23
-4147.991392588471
 33
0.0
  0
SOLID
  5
12E
  8
0
  6
CONTINUOUS
 10
9079.794078291434
 20
-3930.039038621955
 30
0.0
 11
9045.065406505562
 21
-3933.19619060249
 31
0.0
 12
9104.942426826032
 22
-4147.991392588471
 32
0.0
 13
9104.942426826032
 23
-4147.991392588471
 33
0.0
  0
SOLID
  5
12F
  8
0
  6
CONTINUOUS
 10
9079.794078291434
 20
-3930.039038621955
 30
0.0
 11
9104.942426826032
 21
-3926.446417402727
 31
0.0
 12
9080.492643528507
 22
-3926.446417402727
 32
0.0
 13
9080.492643528507
 23
-3926.446417402727
 33
0.0
  0
SOLID
  5
130
  8
0
  6
CONTINUOUS
 10
9104.942426826032
 20
-3926.446417402727
 30
0.0
 11
9079.794078291434
 21
-3930.039038621955
 31
0.0
 12
9104.942426826032
 22
-4147.991392588471
 32
0.0
 13
9104.942426826032
 23
-4147.991392588471
 33
0.0
  0
ENDBLK
  5
132
  8
0
  0
ENDSEC
  0
SECTION
  2
ENTITIES
  0
INSERT
  5
33
  8
0
  6
CONTINUOUS
 62
     0
  2
*U0
 10
0.0
 20
0.0
 30
0.0
  0
POLYLINE
  5
82
  8
0
 62
     0
 66
     1
 10
0.0
 20
0.0
 30
0.0
  0
VERTEX
  5
1B8
  8
0
 62
     0
 10
8937.286769928713
 20
-3240.255764530126
 30
0.0
  0
VERTEX
  5
1B9
  8
0
 62
     0
 10
8877.40974960824
 20
-3231.87298168526
 30
0.0
  0
VERTEX
  5
1BA
  8
0
 62
     0
 10
8831.903214164682
 20
-3251.033628187811
 30
0.0
  0
VERTEX
  5
1BB
  8
0
 62
     0
 10
8815.13764847495
 20
-3289.354921192913
 30
0.0
  0
VERTEX
  5
1BC
  8
0
 62
     0
 10
8821.125350506998
 20
-3321.688512165967
 30
0.0
  0
VERTEX
  5
1BD
  8
0
 62
     0
 10
8823.520431319816
 20
-3350.429481919793
 30
0.0
  0
VERTEX
  5
1BE
  8
0
 62
     0
 10
8828.310592945454
 20
-3368.392588015935
 30
0.0
  0
VERTEX
  5
1BF
  8
0
 62
     0
 10
8842.681077822366
 20
-3399.52863858258
 30
0.0
  0
VERTEX
  5
1C0
  8
0
 62
     0
 10
8857.05156269928
 20
-3411.504042646674
 30
0.0
  0
VERTEX
  5
1C1
  8
0
 62
     0
 10
8854.65648188646
 20
-3423.479446710769
 30
0.0
  0
VERTEX
  5
1C2
  8
0
 62
     0
 10
8845.076158635185
 20
-3424.676987117177
 30
0.0
  0
VERTEX
  5
1C3
  8
0
 62
     0
 10
8843.878618228777
 20
-3440.245012400501
 30
0.0
  0
VERTEX
  5
1C4
  8
0
 62
     0
 10
8773.22373425062
 20
-3458.208118496642
 30
0.0
  0
VERTEX
  5
1C5
  8
0
 62
     0
 10
8728.914739213473
 20
-3501.319573127381
 30
0.0
  0
VERTEX
  5
1C6
  8
0
 62
     0
 10
8709.75409271092
 20
-3654.604745147788
 30
0.0
  0
VERTEX
  5
1C7
  8
0
 62
     0
 10
8720.531956368604
 20
-3719.271927093897
 30
0.0
  0
VERTEX
  5
1C8
  8
0
 62
     0
 10
8734.902441245518
 20
-3751.605518066951
 30
0.0
  0
VERTEX
  5
1C9
  8
0
 62
     0
 10
8746.877845309613
 20
-3806.692376761785
 30
0.0
  0
VERTEX
  5
1CA
  8
0
 62
     0
 10
8739.692602871155
 20
-3971.952952846286
 30
0.0
  0
VERTEX
  5
1CB
  8
0
 62
     0
 10
8766.038491812164
 20
-3976.743114471923
 30
0.0
  0
VERTEX
  5
1CC
  8
0
 62
     0
 10
8770.828653437802
 20
-4088.114372268
 30
0.0
  0
VERTEX
  5
1CD
  8
0
 62
     0
 10
8770.828653437802
 20
-4119.250422834645
 30
0.0
  0
VERTEX
  5
1CE
  8
0
 62
     0
 10
8768.433572624983
 20
-4302.474105015288
 30
0.0
  0
VERTEX
  5
1CF
  8
0
 62
     0
 10
8780.408976689077
 20
-4308.461807047334
 30
0.0
  0
VERTEX
  5
1D0
  8
0
 62
     0
 10
8737.297522058338
 20
-4337.20277680116
 30
0.0
  0
VERTEX
  5
1D1
  8
0
 62
     0
 10
8682.210663363505
 20
-4357.560963710121
 30
0.0
  0
VERTEX
  5
1D2
  8
0
 62
     0
 10
8682.210663363505
 20
-4365.943746554987
 30
0.0
  0
VERTEX
  5
1D3
  8
0
 62
     0
 10
8738.495062464748
 20
-4369.536367774215
 30
0.0
  0
VERTEX
  5
1D4
  8
0
 62
     0
 10
8761.248330186527
 20
-4367.141286961396
 30
0.0
  0
VERTEX
  5
1D5
  8
0
 62
     0
 10
8773.22373425062
 20
-4368.338827367806
 30
0.0
  0
VERTEX
  5
1D6
  8
0
 62
     0
 10
8823.520431319816
 20
-4369.536367774215
 30
0.0
  0
VERTEX
  5
1D7
  8
0
 62
     0
 10
8823.520431319816
 20
-4367.141286961396
 30
0.0
  0
VERTEX
  5
1D8
  8
0
 62
     0
 10
8827.113052539044
 20
-4368.338827367806
 30
0.0
  0
VERTEX
  5
1D9
  8
0
 62
     0
 10
8852.261401073642
 20
-4368.338827367806
 30
0.0
  0
VERTEX
  5
1DA
  8
0
 62
     0
 10
8858.249103105689
 20
-4343.190478833208
 30
0.0
  0
VERTEX
  5
1DB
  8
0
 62
     0
 10
8860.64418391851
 20
-4327.622453549885
 30
0.0
  0
VERTEX
  5
1DC
  8
0
 62
     0
 10
8859.4466435121
 20
-4319.239670705019
 30
0.0
  0
VERTEX
  5
1DD
  8
0
 62
     0
 10
8854.65648188646
 20
-4316.844589892201
 30
0.0
  0
VERTEX
  5
1DE
  8
0
 62
     0
 10
8864.236805137736
 20
-4292.893781764012
 30
0.0
  0
VERTEX
  5
1DF
  8
0
 62
     0
 10
8872.619587982603
 20
-4200.683170470486
 30
0.0
  0
VERTEX
  5
1E0
  8
0
 62
     0
 10
8877.40974960824
 20
-4149.188932994881
 30
0.0
  0
VERTEX
  5
1E1
  8
0
 62
     0
 10
8876.21220920183
 20
-4102.484857144913
 30
0.0
  0
VERTEX
  5
1E2
  8
0
 62
     0
 10
8873.817128389011
 20
-4078.534049016725
 30
0.0
  0
VERTEX
  5
1E3
  8
0
 62
     0
 10
8886.990072859517
 20
-3983.92835691038
 30
0.0
  0
VERTEX
  5
1E4
  8
0
 62
     0
 10
8879.804830421059
 20
-3982.73081650397
 30
0.0
  0
VERTEX
  5
1E5
  8
0
 62
     0
 10
8890.582694078745
 20
-3979.138195284742
 30
0.0
  0
VERTEX
  5
1E6
  8
0
 62
     0
 10
8910.940880987704
 20
-4073.743887391087
 30
0.0
  0
VERTEX
  5
1E7
  8
0
 62
     0
 10
8913.335961800523
 20
-4108.47255917696
 30
0.0
  0
VERTEX
  5
1E8
  8
0
 62
     0
 10
8915.731042613343
 20
-4138.411069337196
 30
0.0
  0
VERTEX
  5
1E9
  8
0
 62
     0
 10
8915.731042613343
 20
-4182.720064374344
 30
0.0
  0
VERTEX
  5
1EA
  8
0
 62
     0
 10
8921.71874464539
 20
-4298.881483796059
 30
0.0
  0
VERTEX
  5
1EB
  8
0
 62
     0
 10
8931.299067896663
 20
-4297.683943389649
 30
0.0
  0
VERTEX
  5
1EC
  8
0
 62
     0
 10
8925.311365864618
 20
-4321.634751517838
 30
0.0
  0
VERTEX
  5
1ED
  8
0
 62
     0
 10
8913.335961800523
 20
-4347.980640458845
 30
0.0
  0
VERTEX
  5
1EE
  8
0
 62
     0
 10
8927.706446677437
 20
-4367.141286961396
 30
0.0
  0
VERTEX
  5
1EF
  8
0
 62
     0
 10
9001.95395187482
 20
-4368.338827367806
 30
0.0
  0
VERTEX
  5
1F0
  8
0
 62
     0
 10
9010.336734719687
 20
-4351.573261678073
 30
0.0
  0
VERTEX
  5
1F1
  8
0
 62
     0
 10
8991.176088217137
 20
-4310.856887860154
 30
0.0
  0
VERTEX
  5
1F2
  8
0
 62
     0
 10
9003.15149228123
 20
-4298.881483796059
 30
0.0
  0
VERTEX
  5
1F3
  8
0
 62
     0
 10
9006.74411350046
 20
-4197.090549251257
 30
0.0
  0
VERTEX
  5
1F4
  8
0
 62
     0
 10
9001.95395187482
 20
-4133.620907711558
 30
0.0
  0
VERTEX
  5
1F5
  8
0
 62
     0
 10
9006.74411350046
 20
-4078.534049016725
 30
0.0
  0
VERTEX
  5
1F6
  8
0
 62
     0
 10
9009.139194313277
 20
-4043.805377230851
 30
0.0
  0
VERTEX
  5
1F7
  8
0
 62
     0
 10
9027.10230040942
 20
-3934.829200247594
 30
0.0
  0
VERTEX
  5
1F8
  8
0
 62
     0
 10
9079.794078291434
 20
-3930.039038621955
 30
0.0
  0
VERTEX
  5
1F9
  8
0
 62
     0
 10
9088.176861136299
 20
-3886.927583991216
 30
0.0
  0
VERTEX
  5
1FA
  8
0
 62
     0
 10
9080.991618697843
 20
-3867.766937488665
 30
0.0
  0
VERTEX
  5
1FB
  8
0
 62
     0
 10
9086.97932072989
 20
-3865.371856675847
 30
0.0
  0
VERTEX
  5
1FC
  8
0
 62
     0
 10
9101.349805606802
 20
-3725.259629125943
 30
0.0
  0
VERTEX
  5
1FD
  8
0
 62
     0
 10
9100.152265200393
 20
-3641.431800677284
 30
0.0
  0
VERTEX
  5
1FE
  8
0
 62
     0
 10
9064.22605300811
 20
-3496.529411501744
 30
0.0
  0
VERTEX
  5
1FF
  8
0
 62
     0
 10
9011.534275126096
 20
-3460.60319930946
 30
0.0
  0
VERTEX
  5
200
  8
0
 62
     0
 10
8945.66955277358
 20
-3442.640093213319
 30
0.0
  0
VERTEX
  5
201
  8
0
 62
     0
 10
8938.484310335121
 20
-3423.479446710769
 30
0.0
  0
VERTEX
  5
202
  8
0
 62
     0
 10
8930.101527490255
 20
-3424.676987117177
 30
0.0
  0
VERTEX
  5
203
  8
0
 62
     0
 10
8924.113825458207
 20
-3412.701583053084
 30
0.0
  0
VERTEX
  5
204
  8
0
 62
     0
 10
8940.87939114794
 20
-3393.540936550533
 30
0.0
  0
VERTEX
  5
205
  8
0
 62
     0
 10
8954.052335618442
 20
-3351.627022326203
 30
0.0
  0
VERTEX
  5
206
  8
0
 62
     0
 10
8957.644956837672
 20
-3332.466375823652
 30
0.0
  0
VERTEX
  5
207
  8
0
 62
     0
 10
8961.2375780569
 20
-3316.898350540329
 30
0.0
  0
VERTEX
  5
208
  8
0
 62
     0
 10
8956.447416431263
 20
-3265.404113064724
 30
0.0
  0
VERTEX
  5
209
  8
0
 62
     0
 10
8937.286769928713
 20
-3240.255764530126
 30
0.0
  0
VERTEX
  5
20A
  8
0
 62
     0
 10
8937.286769928713
 20
-3240.255764530126
 30
0.0
  0
SEQEND
  5
268
  8
0
 62
     0
  0
POLYLINE
  5
D7
  8
0
 62
     0
 66
     1
 10
0.0
 20
0.0
 30
0.0
  0
VERTEX
  5
20B
  8
0
 62
     0
 10
8937.286769928713
 20
-3240.255764530126
 30
0.0
  0
VERTEX
  5
20C
  8
0
 62
     0
 10
8877.40974960824
 20
-3231.87298168526
 30
0.0
  0
VERTEX
  5
20D
  8
0
 62
     0
 10
8831.903214164682
 20
-3251.033628187811
 30
0.0
  0
VERTEX
  5
20E
  8
0
 62
     0
 10
8815.13764847495
 20
-3289.354921192913
 30
0.0
  0
VERTEX
  5
20F
  8
0
 62
     0
 10
8821.125350506998
 20
-3321.688512165967
 30
0.0
  0
VERTEX
  5
210
  8
0
 62
     0
 10
8823.520431319816
 20
-3350.429481919793
 30
0.0
  0
VERTEX
  5
211
  8
0
 62
     0
 10
8828.310592945454
 20
-3368.392588015935
 30
0.0
  0
VERTEX
  5
212
  8
0
 62
     0
 10
8842.681077822366
 20
-3399.52863858258
 30
0.0
  0
VERTEX
  5
213
  8
0
 62
     0
 10
8857.05156269928
 20
-3411.504042646674
 30
0.0
  0
VERTEX
  5
214
  8
0
 62
     0
 10
8854.65648188646
 20
-3423.479446710769
 30
0.0
  0
VERTEX
  5
215
  8
0
 62
     0
 10
8845.076158635185
 20
-3424.676987117177
 30
0.0
  0
VERTEX
  5
216
  8
0
 62
     0
 10
8843.878618228777
 20
-3440.245012400501
 30
0.0
  0
VERTEX
  5
217
  8
0
 62
     0
 10
8773.22373425062
 20
-3458.208118496642
 30
0.0
  0
VERTEX
  5
218
  8
0
 62
     0
 10
8728.914739213473
 20
-3501.319573127381
 30
0.0
  0
VERTEX
  5
219
  8
0
 62
     0
 10
8709.75409271092
 20
-3654.604745147788
 30
0.0
  0
VERTEX
  5
21A
  8
0
 62
     0
 10
8720.531956368604
 20
-3719.271927093897
 30
0.0
  0
VERTEX
  5
21B
  8
0
 62
     0
 10
8734.902441245518
 20
-3751.605518066951
 30
0.0
  0
VERTEX
  5
21C
  8
0
 62
     0
 10
8746.877845309613
 20
-3806.692376761785
 30
0.0
  0
VERTEX
  5
21D
  8
0
 62
     0
 10
8739.692602871155
 20
-3971.952952846286
 30
0.0
  0
VERTEX
  5
21E
  8
0
 62
     0
 10
8766.038491812164
 20
-3976.743114471923
 30
0.0
  0
VERTEX
  5
21F
  8
0
 62
     0
 10
8770.828653437802
 20
-4088.114372268
 30
0.0
  0
VERTEX
  5
220
  8
0
 62
     0
 10
8770.828653437802
 20
-4119.250422834645
 30
0.0
  0
VERTEX
  5
221
  8
0
 62
     0
 10
8768.433572624983
 20
-4302.474105015288
 30
0.0
  0
VERTEX
  5
222
  8
0
 62
     0
 10
8780.408976689077
 20
-4308.461807047334
 30
0.0
  0
VERTEX
  5
223
  8
0
 62
     0
 10
8737.297522058338
 20
-4337.20277680116
 30
0.0
  0
VERTEX
  5
224
  8
0
 62
     0
 10
8682.210663363505
 20
-4357.560963710121
 30
0.0
  0
VERTEX
  5
225
  8
0
 62
     0
 10
8682.210663363505
 20
-4365.943746554987
 30
0.0
  0
VERTEX
  5
226
  8
0
 62
     0
 10
8738.495062464748
 20
-4369.536367774215
 30
0.0
  0
VERTEX
  5
227
  8
0
 62
     0
 10
8761.248330186527
 20
-4367.141286961396
 30
0.0
  0
VERTEX
  5
228
  8
0
 62
     0
 10
8773.22373425062
 20
-4368.338827367806
 30
0.0
  0
VERTEX
  5
229
  8
0
 62
     0
 10
8823.520431319816
 20
-4369.536367774215
 30
0.0
  0
VERTEX
  5
22A
  8
0
 62
     0
 10
8823.520431319816
 20
-4367.141286961396
 30
0.0
  0
VERTEX
  5
22B
  8
0
 62
     0
 10
8827.113052539044
 20
-4368.338827367806
 30
0.0
  0
VERTEX
  5
22C
  8
0
 62
     0
 10
8852.261401073642
 20
-4368.338827367806
 30
0.0
  0
VERTEX
  5
22D
  8
0
 62
     0
 10
8858.249103105689
 20
-4343.190478833208
 30
0.0
  0
VERTEX
  5
22E
  8
0
 62
     0
 10
8860.64418391851
 20
-4327.622453549885
 30
0.0
  0
VERTEX
  5
22F
  8
0
 62
     0
 10
8859.4466435121
 20
-4319.239670705019
 30
0.0
  0
VERTEX
  5
230
  8
0
 62
     0
 10
8854.65648188646
 20
-4316.844589892201
 30
0.0
  0
VERTEX
  5
231
  8
0
 62
     0
 10
8864.236805137736
 20
-4292.893781764012
 30
0.0
  0
VERTEX
  5
232
  8
0
 62
     0
 10
8872.619587982603
 20
-4200.683170470486
 30
0.0
  0
VERTEX
  5
233
  8
0
 62
     0
 10
8877.40974960824
 20
-4149.188932994881
 30
0.0
  0
VERTEX
  5
234
  8
0
 62
     0
 10
8876.21220920183
 20
-4102.484857144913
 30
0.0
  0
VERTEX
  5
235
  8
0
 62
     0
 10
8873.817128389011
 20
-4078.534049016725
 30
0.0
  0
VERTEX
  5
236
  8
0
 62
     0
 10
8886.990072859517
 20
-3983.92835691038
 30
0.0
  0
VERTEX
  5
237
  8
0
 62
     0
 10
8879.804830421059
 20
-3982.73081650397
 30
0.0
  0
VERTEX
  5
238
  8
0
 62
     0
 10
8890.582694078745
 20
-3979.138195284742
 30
0.0
  0
VERTEX
  5
239
  8
0
 62
     0
 10
8910.940880987704
 20
-4073.743887391087
 30
0.0
  0
VERTEX
  5
23A
  8
0
 62
     0
 10
8913.335961800523
 20
-4108.47255917696
 30
0.0
  0
VERTEX
  5
23B
  8
0
 62
     0
 10
8915.731042613343
 20
-4138.411069337196
 30
0.0
  0
VERTEX
  5
23C
  8
0
 62
     0
 10
8915.731042613343
 20
-4182.720064374344
 30
0.0
  0
VERTEX
  5
23D
  8
0
 62
     0
 10
8921.71874464539
 20
-4298.881483796059
 30
0.0
  0
VERTEX
  5
23E
  8
0
 62
     0
 10
8931.299067896663
 20
-4297.683943389649
 30
0.0
  0
VERTEX
  5
23F
  8
0
 62
     0
 10
8925.311365864618
 20
-4321.634751517838
 30
0.0
  0
VERTEX
  5
240
  8
0
 62
     0
 10
8913.335961800523
 20
-4347.980640458845
 30
0.0
  0
VERTEX
  5
241
  8
0
 62
     0
 10
8927.706446677437
 20
-4367.141286961396
 30
0.0
  0
VERTEX
  5
242
  8
0
 62
     0
 10
9001.95395187482
 20
-4368.338827367806
 30
0.0
  0
VERTEX
  5
243
  8
0
 62
     0
 10
9010.336734719687
 20
-4351.573261678073
 30
0.0
  0
VERTEX
  5
244
  8
0
 62
     0
 10
8991.176088217137
 20
-4310.856887860154
 30
0.0
  0
VERTEX
  5
245
  8
0
 62
     0
 10
9003.15149228123
 20
-4298.881483796059
 30
0.0
  0
VERTEX
  5
246
  8
0
 62
     0
 10
9006.74411350046
 20
-4197.090549251257
 30
0.0
  0
VERTEX
  5
247
  8
0
 62
     0
 10
9001.95395187482
 20
-4133.620907711558
 30
0.0
  0
VERTEX
  5
248
  8
0
 62
     0
 10
9006.74411350046
 20
-4078.534049016725
 30
0.0
  0
VERTEX
  5
249
  8
0
 62
     0
 10
9009.139194313277
 20
-4043.805377230851
 30
0.0
  0
VERTEX
  5
24A
  8
0
 62
     0
 10
9027.10230040942
 20
-3934.829200247594
 30
0.0
  0
VERTEX
  5
24B
  8
0
 62
     0
 10
9079.794078291434
 20
-3930.039038621955
 30
0.0
  0
VERTEX
  5
24C
  8
0
 62
     0
 10
9088.176861136299
 20
-3886.927583991216
 30
0.0
  0
VERTEX
  5
24D
  8
0
 62
     0
 10
9080.991618697843
 20
-3867.766937488665
 30
0.0
  0
VERTEX
  5
24E
  8
0
 62
     0
 10
9086.97932072989
 20
-3865.371856675847
 30
0.0
  0
VERTEX
  5
24F
  8
0
 62
     0
 10
9101.349805606802
 20
-3725.259629125943
 30
0.0
  0
VERTEX
  5
250
  8
0
 62
     0
 10
9100.152265200393
 20
-3641.431800677284
 30
0.0
  0
VERTEX
  5
251
  8
0
 62
     0
 10
9064.22605300811
 20
-3496.529411501744
 30
0.0
  0
VERTEX
  5
252
  8
0
 62
     0
 10
9011.534275126096
 20
-3460.60319930946
 30
0.0
  0
VERTEX
  5
253
  8
0
 62
     0
 10
8945.66955277358
 20
-3442.640093213319
 30
0.0
  0
VERTEX
  5
254
  8
0
 62
     0
 10
8938.484310335121
 20
-3423.479446710769
 30
0.0
  0
VERTEX
  5
255
  8
0
 62
     0
 10
8930.101527490255
 20
-3424.676987117177
 30
0.0
  0
VERTEX
  5
256
  8
0
 62
     0
 10
8924.113825458207
 20
-3412.701583053084
 30
0.0
  0
VERTEX
  5
257
  8
0
 62
     0
 10
8940.87939114794
 20
-3393.540936550533
 30
0.0
  0
VERTEX
  5
258
  8
0
 62
     0
 10
8954.052335618442
 20
-3351.627022326203
 30
0.0
  0
VERTEX
  5
259
  8
0
 62
     0
 10
8957.644956837672
 20
-3332.466375823652
 30
0.0
  0
VERTEX
  5
25A
  8
0
 62
     0
 10
8961.2375780569
 20
-3316.898350540329
 30
0.0
  0
VERTEX
  5
25B
  8
0
 62
     0
 10
8956.447416431263
 20
-3265.404113064724
 30
0.0
  0
VERTEX
  5
25C
  8
0
 62
     0
 10
8937.286769928713
 20
-3240.255764530126
 30
0.0
  0
SEQEND
  5
269
  8
0
 62
     0
  0
INSERT
  5
12B
  8
0
  6
CONTINUOUS
 62
     0
  2
*U1
 10
0.0
 20
0.0
 30
0.0
  0
POLYLINE
  5
133
  8
0
 62
     0
 66
     1
 10
0.0
 20
0.0
 30
0.0
  0
VERTEX
  5
25D
  8
0
 62
     0
 10
9104.942426826032
 20
-3926.446417402727
 30
0.0
  0
VERTEX
  5
25E
  8
0
 62
     0
 10
9045.06540650556
 20
-3926.446417402727
 30
0.0
  0
VERTEX
  5
25F
  8
0
 62
     0
 10
9045.06540650556
 20
-4147.991392588471
 30
0.0
  0
VERTEX
  5
260
  8
0
 62
     0
 10
9104.942426826032
 20
-4147.991392588471
 30
0.0
  0
VERTEX
  5
261
  8
0
 62
     0
 10
9104.942426826032
 20
-3926.446417402727
 30
0.0
  0
VERTEX
  5
262
  8
0
 62
     0
 10
9104.942426826032
 20
-3926.446417402727
 30
0.0
  0
SEQEND
  5
26A
  8
0
 62
     0
  0
POLYLINE
  5
13B
  8
0
 62
     0
 66
     1
 10
0.0
 20
0.0
 30
0.0
  0
VERTEX
  5
263
  8
0
 62
     0
 10
9104.942426826032
 20
-3926.446417402727
 30
0.0
  0
VERTEX
  5
264
  8
0
 62
     0
 10
9045.06540650556
 20
-3926.446417402727
 30
0.0
  0
VERTEX
  5
265
  8
0
 62
     0
 10
9045.06540650556
 20
-4147.991392588471
 30
0.0
  0
VERTEX
  5
266
  8
0
 62
     0
 10
9104.942426826032
 20
-4147.991392588471
 30
0.0
  0
VERTEX
  5
267
  8
0
 62
     0
 10
9104.942426826032
 20
-3926.446417402727
 30
0.0
  0
SEQEND
  5
26B
  8
0
 62
     0
  0
ENDSEC
  0
EOF
