  0
SECTION
  2
HEADER
  9
$ACADVER
  1
AC1009
  9
$DWGCODEPAGE
  3
ansi_1252
  9
$INSBASE
 10
13.48619381788046
 20
8.951303445663958
 30
0.0
  9
$EXTMIN
 10
13.24218758526513
 20
8.950259469554588
 30
-0.0000000349181948
  9
$EXTMAX
 10
13.77777104705778
 20
10.69780659138667
 30
0.0000000814935746
  9
$LIMMIN
 10
0.0
 20
0.0
  9
$LIMMAX
 10
30.0
 20
25.65
  9
$ORTHOMODE
 70
     0
  9
$REGENMODE
 70
     1
  9
$FILLMODE
 70
     1
  9
$QTEXTMODE
 70
     0
  9
$MIRRTEXT
 70
     0
  9
$DRAGMODE
 70
     2
  9
$LTSCALE
 40
0.4
  9
$OSMODE
 70
    37
  9
$ATTMODE
 70
     1
  9
$TEXTSIZE
 40
0.2
  9
$TRACEWID
 40
0.05
  9
$TEXTSTYLE
  7
STANDARD
  9
$CLAYER
  8
VEHICULO
  9
$CELTYPE
  6
BYLAYER
  9
$CECOLOR
 62
   256
  9
$DIMSCALE
 40
1.0
  9
$DIMASZ
 40
0.07
  9
$DIMEXO
 40
0.1
  9
$DIMDLI
 40
0.0
  9
$DIMRND
 40
0.0
  9
$DIMDLE
 40
0.0
  9
$DIMEXE
 40
0.1
  9
$DIMTP
 40
0.0
  9
$DIMTM
 40
0.0
  9
$DIMTXT
 40
0.1
  9
$DIMCEN
 40
0.2
  9
$DIMTSZ
 40
0.0
  9
$DIMTOL
 70
     0
  9
$DIMLIM
 70
     0
  9
$DIMTIH
 70
     0
  9
$DIMTOH
 70
     1
  9
$DIMSE1
 70
     1
  9
$DIMSE2
 70
     1
  9
$DIMTAD
 70
     1
  9
$DIMZIN
 70
     0
  9
$DIMBLK
  1

  9
$DIMASO
 70
     1
  9
$DIMSHO
 70
     0
  9
$DIMPOST
  1

  9
$DIMAPOST
  1

  9
$DIMALT
 70
     0
  9
$DIMALTD
 70
     2
  9
$DIMALTF
 40
25.4
  9
$DIMLFAC
 40
1.0
  9
$DIMTOFL
 70
     0
  9
$DIMTVP
 40
0.0
  9
$DIMTIX
 70
     1
  9
$DIMSOXD
 70
     0
  9
$DIMSAH
 70
     0
  9
$DIMBLK1
  1

  9
$DIMBLK2
  1

  9
$DIMSTYLE
  2
STANDARD
  9
$DIMCLRD
 70
     0
  9
$DIMCLRE
 70
     0
  9
$DIMCLRT
 70
     0
  9
$DIMTFAC
 40
1.0
  9
$DIMGAP
 40
0.09
  9
$LUNITS
 70
     2
  9
$LUPREC
 70
     3
  9
$SKETCHINC
 40
0.01
  9
$FILLETRAD
 40
0.0
  9
$AUNITS
 70
     0
  9
$AUPREC
 70
     2
  9
$MENU
  1
ARQ11-I9
  9
$ELEVATION
 40
0.0
  9
$PELEVATION
 40
0.0
  9
$THICKNESS
 40
0.0
  9
$LIMCHECK
 70
     0
  9
$CHAMFERA
 40
0.0
  9
$CHAMFERB
 40
0.0
  9
$SKPOLY
 70
     1
  9
$TDCREATE
 40
2448683.748278819
  9
$TDUPDATE
 40
2457483.532962963
  9
$TDINDWG
 40
0.0033648727
  9
$TDUSRTIMER
 40
0.0033648727
  9
$USRTIMER
 70
     1
  9
$ANGBASE
 50
0.0
  9
$ANGDIR
 70
     0
  9
$PDMODE
 70
     1
  9
$PDSIZE
 40
0.1
  9
$PLINEWID
 40
0.0
  9
$COORDS
 70
     1
  9
$SPLFRAME
 70
     0
  9
$SPLINETYPE
 70
     6
  9
$SPLINESEGS
 70
     8
  9
$ATTDIA
 70
     0
  9
$ATTREQ
 70
     1
  9
$HANDLING
 70
     1
  9
$HANDSEED
  5
1D1
  9
$SURFTAB1
 70
     6
  9
$SURFTAB2
 70
     6
  9
$SURFTYPE
 70
     6
  9
$SURFU
 70
     6
  9
$SURFV
 70
     6
  9
$UCSNAME
  2

  9
$UCSORG
 10
0.0
 20
0.0
 30
0.0
  9
$UCSXDIR
 10
1.0
 20
0.0
 30
0.0
  9
$UCSYDIR
 10
0.0
 20
1.0
 30
0.0
  9
$PUCSNAME
  2

  9
$PUCSORG
 10
0.0
 20
0.0
 30
0.0
  9
$PUCSXDIR
 10
1.0
 20
0.0
 30
0.0
  9
$PUCSYDIR
 10
0.0
 20
1.0
 30
0.0
  9
$USERI1
 70
     0
  9
$USERI2
 70
     0
  9
$USERI3
 70
     0
  9
$USERI4
 70
     0
  9
$USERI5
 70
     0
  9
$USERR1
 40
0.0
  9
$USERR2
 40
0.0
  9
$USERR3
 40
0.0
  9
$USERR4
 40
0.0
  9
$USERR5
 40
0.0
  9
$WORLDVIEW
 70
     1
  9
$SHADEDGE
 70
     3
  9
$SHADEDIF
 70
    70
  9
$TILEMODE
 70
     1
  9
$MAXACTVP
 70
    16
  9
$PLIMCHECK
 70
     0
  9
$PEXTMIN
 10
1.000000000000000E+20
 20
1.000000000000000E+20
 30
1.000000000000000E+20
  9
$PEXTMAX
 10
-1.000000000000000E+20
 20
-1.000000000000000E+20
 30
-1.000000000000000E+20
  9
$PLIMMIN
 10
0.0
 20
0.0
  9
$PLIMMAX
 10
12.0
 20
9.0
  9
$UNITMODE
 70
     0
  9
$VISRETAIN
 70
     0
  9
$PLINEGEN
 70
     0
  9
$PSLTSCALE
 70
     0
  0
ENDSEC
  0
SECTION
  2
TABLES
  0
TABLE
  2
VPORT
 70
     1
  0
VPORT
  2
*ACTIVE
 70
     0
 10
0.0
 20
0.0
 11
1.0
 21
1.0
 12
13.50997931616146
 22
9.82403303047063
 13
0.0
 23
0.0
 14
0.025
 24
0.025
 15
0.0
 25
0.0
 16
0.0
 26
0.0
 36
1.0
 17
0.0
 27
0.0
 37
0.0
 40
1.765750737684503
 41
1.365217391304348
 42
50.0
 43
0.0
 44
0.0
 50
0.0
 51
0.0
 71
     0
 72
   100
 73
     1
 74
     1
 75
     0
 76
     0
 77
     0
 78
     0
  0
ENDTAB
  0
TABLE
  2
LTYPE
 70
     1
  0
LTYPE
  2
CONTINUOUS
 70
     0
  3
Solid line
 72
    65
 73
     0
 40
0.0
  0
ENDTAB
  0
TABLE
  2
LAYER
 70
     3
  0
LAYER
  2
0
 70
     0
 62
     7
  6
CONTINUOUS
  0
LAYER
  2
VEHICULO
 70
     0
 62
     2
  6
CONTINUOUS
  0
LAYER
  2
PERSONA
 70
     0
 62
    31
  6
CONTINUOUS
  0
ENDTAB
  0
TABLE
  2
STYLE
 70
     1
  0
STYLE
  2
STANDARD
 70
     0
 40
0.0
 41
1.0
 50
0.0
 71
     0
 42
0.2
  3
TXT
  4

  0
ENDTAB
  0
TABLE
  2
VIEW
 70
     0
  0
ENDTAB
  0
TABLE
  2
UCS
 70
     0
  0
ENDTAB
  0
TABLE
  2
APPID
 70
     1
  0
APPID
  2
ACAD
 70
     0
  0
ENDTAB
  0
TABLE
  2
DIMSTYLE
 70
     1
  0
DIMSTYLE
  2
STANDARD
 70
     0
  3

  4

  5

  6

  7

 40
1.0
 41
0.18
 42
0.0625
 43
0.38
 44
0.18
 45
0.0
 46
0.0
 47
0.0
 48
0.0
140
0.18
141
0.09
142
0.0
143
25.4
144
1.0
145
0.0
146
1.0
147
0.09
 71
     0
 72
     0
 73
     1
 74
     1
 75
     0
 76
     0
 77
     0
 78
     0
170
     0
171
     2
172
     0
173
     0
174
     0
175
     0
176
     0
177
     0
178
     0
  0
ENDTAB
  0
ENDSEC
  0
SECTION
  2
BLOCKS
  0
BLOCK
  8
0
  2
$MODEL_SPACE
 70
     0
 10
0.0
 20
0.0
 30
0.0
  3
$MODEL_SPACE
  1

  0
ENDBLK
  5
64
  8
0
  0
BLOCK
 67
     1
  8
0
  2
$PAPER_SPACE
 70
     0
 10
0.0
 20
0.0
 30
0.0
  3
$PAPER_SPACE
  1

  0
ENDBLK
  5
62
 67
     1
  8
0
  0
ENDSEC
  0
SECTION
  2
ENTITIES
  0
ARC
  5
68
  8
0
 62
     0
 10
18.07792865569023
 20
8.634912127696538
 30
0.0
 40
4.559911287240529
 50
164.5637228637007
 51
168.799465608678
  0
ARC
  5
69
  8
0
 62
     0
 10
13.50619440993222
 20
10.4986870067103
 30
0.0
 40
0.0941937759061826
 50
223.8434087452003
 51
307.4230378269255
  0
ARC
  5
6A
  8
0
 62
     0
 10
13.77108529080259
 20
10.11101591535787
 30
0.0
 40
0.1517448798085118
 50
177.9341840340592
 51
198.3785213013352
  0
ARC
  5
6B
  8
0
 62
     0
 10
14.5432988001723
 20
10.09225057870906
 30
0.0
 40
0.924177591938117
 50
171.6209130202564
 51
178.4973203375826
  0
ARC
  5
6C
  8
0
 62
     0
 10
13.59468245845951
 20
10.47195798856134
 30
0.0
 40
0.0562392034339011
 50
195.8127201745504
 51
264.271409071487
  0
ARC
  5
6D
  8
0
 62
     0
 10
13.02558189605866
 20
9.92956157359651
 30
0.0
 40
0.2409194732480749
 50
16.86669939246364
 51
25.23653164268941
  0
ARC
  5
6E
  8
0
 62
     0
 10
13.29163236951188
 20
9.967951203990477
 30
0.0
 40
0.088551199625226
 50
58.06872815078349
 51
96.65436783241617
  0
ARC
  5
6F
  8
0
 62
     0
 10
13.33232207716856
 20
10.03324249348115
 30
0.0
 40
0.0116187305855422
 50
347.4038715201652
 51
58.06872815078324
  0
ARC
  5
70
  8
0
 62
     0
 10
13.54522540088105
 20
9.985668066934334
 30
0.0
 40
0.2065352318104775
 50
167.4038715201675
 51
178.2608171695859
  0
ARC
  5
71
  8
0
 62
     0
 10
13.33151500613506
 20
9.9775463082805
 30
0.0
 40
0.011803244592759
 50
252.5729853621886
 51
51.7821639849293
  0
ARC
  5
72
  8
0
 62
     0
 10
13.16465290300322
 20
9.765638170618443
 30
0.0
 40
0.2815216538068586
 50
51.78216398492731
 51
57.11071942374889
  0
ARC
  5
73
  8
0
 62
     0
 10
13.29077951981923
 20
9.960680238859181
 30
0.0
 40
0.0492516991138792
 50
57.11071942374877
 51
88.70723329671608
  0
ARC
  5
74
  8
0
 62
     0
 10
13.29067260472203
 20
9.955942536179283
 30
0.0
 40
0.0539906080095147
 50
88.70723329671668
 51
145.8604519723973
  0
ARC
  5
75
  8
0
 62
     0
 10
13.26222410962764
 20
9.975232266432227
 30
0.0
 40
0.0196189544798048
 50
145.860451972397
 51
227.8914810979509
  0
ARC
  5
76
  8
0
 62
     0
 10
13.29447616279728
 20
10.01091565387793
 30
0.0
 40
0.0677178013813377
 50
227.8914810979499
 51
297.6315617318989
  0
ARC
  5
77
  8
0
 62
     0
 10
13.32017588626939
 20
9.964516932403408
 30
0.0
 40
0.0088510282199322
 50
50.9220061206701
 51
254.4983727188869
  0
ARC
  5
78
  8
0
 62
     0
 10
13.76645125561839
 20
10.09787027020204
 30
0.0
 40
0.1443421093265271
 50
195.1084463262768
 51
226.0384311555251
  0
ARC
  5
79
  8
0
 62
     0
 10
13.5106404549694
 20
10.32131276041101
 30
0.0
 40
0.2849885419350273
 50
256.8731588673244
 51
293.6373556072834
  0
ARC
  5
7A
  8
0
 62
     0
 10
13.56818142195936
 20
10.30757480237727
 30
0.0
 40
0.0987603162791921
 50
282.9663547340481
 51
354.8986435829783
  0
ARC
  5
7B
  8
0
 62
     0
 10
13.68271961672467
 20
10.10299065591121
 30
0.0
 40
0.02468254305215
 50
344.8981102838102
 51
50.70859612978488
  0
ARC
  5
7C
  8
0
 62
     0
 10
13.577659612309
 20
10.09064186091458
 30
0.0
 40
0.1290259076757569
 50
347.9241775636086
 51
2.628936283395964
  0
ARC
  5
7D
  8
0
 62
     0
 10
13.70198370373555
 20
10.01970539350306
 30
0.0
 40
0.0768539345629194
 50
88.77561662778248
 51
127.2369613791102
  0
ARC
  5
7E
  8
0
 62
     0
 10
13.66460550465299
 20
10.01621667289097
 30
0.0
 40
0.0615500193060408
 50
11.58241297244953
 51
50.41036488017473
  0
ARC
  5
7F
  8
0
 62
     0
 10
13.72007697089764
 20
10.02019912432294
 30
0.0
 40
0.1070498159499062
 50
101.7200067516849
 51
130.7250364035376
  0
ARC
  5
80
  8
0
 62
     0
 10
14.34127066366675
 20
10.18455867229028
 30
0.0
 40
0.6456897732912931
 50
178.9281605799445
 51
185.2909787072311
  0
ARC
  5
81
  8
0
 62
     0
 10
18.61888010163737
 20
10.10452755354209
 30
0.0
 40
4.924047809241937
 50
177.3789726635555
 51
178.9281605799444
  0
ARC
  5
82
  8
0
 62
     0
 10
13.42946441395776
 20
9.933999449308239
 30
0.0
 40
0.080245547355457
 50
175.4167376491838
 51
183.9962568237354
  0
POLYLINE
  5
83
  8
0
 62
     0
 66
     1
 10
0.0
 20
0.0
 30
0.0
  0
VERTEX
  5
190
  8
0
 62
     0
 10
13.49340802310143
 20
9.91059212429366
 30
0.0
  0
VERTEX
  5
191
  8
0
 62
     0
 10
13.5490527272397
 20
9.91059212429366
 30
0.0
 42
0.1689184025220576
  0
VERTEX
  5
192
  8
0
 62
     0
 10
13.59753511713083
 20
9.927452339716506
 30
0.0
  0
VERTEX
  5
193
  8
0
 62
     0
 10
13.67450641984616
 20
9.966758212801821
 30
0.0
  0
SEQEND
  5
1C6
  8
0
 62
     0
  0
ARC
  5
89
  8
0
 62
     0
 10
13.67559735005194
 20
9.98946964693398
 30
0.0
 40
0.0084584664401723
 50
147.730466908739
 51
291.9267823549859
  0
ARC
  5
8A
  8
0
 62
     0
 10
13.73176451718338
 20
9.954004026620094
 30
0.0
 40
0.07488557602519
 50
58.73186577752151
 51
147.7304669087358
  0
ARC
  5
8B
  8
0
 62
     0
 10
13.74399203563423
 20
9.998197065267783
 30
0.0
 40
0.0328758242460134
 50
324.8541200202146
 51
41.99118054906879
  0
ARC
  5
8C
  8
0
 62
     0
 10
13.71387216342317
 20
10.03858615674454
 30
0.0
 40
0.0822644137090736
 50
241.987104185207
 51
313.8611339089817
  0
ARC
  5
8D
  8
0
 62
     0
 10
13.70686706749879
 20
9.805857191138966
 30
0.0
 40
0.1631974124281175
 50
94.45598418087508
 51
101.1762045594086
  0
ARC
  5
8E
  8
0
 62
     0
 10
13.68684374280784
 20
9.974058934328006
 30
0.0
 40
0.0091737727763552
 50
323.1819099499331
 51
124.2572655338676
  0
ARC
  5
8F
  8
0
 62
     0
 10
13.55457416462356
 20
9.858153912972746
 30
0.0
 40
0.0579179103891544
 50
201.1644014842047
 51
290.9990458139471
  0
ARC
  5
90
  8
0
 62
     0
 10
16.43744586984553
 20
9.233240678708777
 30
0.0
 40
2.791785402865866
 50
168.3379554820386
 51
173.4497296689425
  0
ARC
  5
91
  8
0
 62
     0
 10
13.59405394505723
 20
9.820114727640783
 30
0.0
 40
0.1115400675664748
 50
348.3379554820386
 51
21.57456541751889
  0
ARC
  5
92
  8
0
 62
     0
 10
13.74412441220854
 20
9.879454780447928
 30
0.0
 40
0.0498364703136256
 50
153.0047931472601
 51
201.5745654175189
  0
ARC
  5
93
  8
0
 62
     0
 10
13.59971313062075
 20
9.9453387897253
 30
0.0
 40
0.1089614266610439
 50
336.6065090761384
 51
6.089269246423488
  0
ARC
  5
94
  8
0
 62
     0
 10
13.23837249848826
 20
9.631590901942351
 30
0.0
 40
0.3444748280280082
 50
342.4499734198736
 51
15.24748462960855
  0
ARC
  5
95
  8
0
 62
     0
 10
13.57234901665549
 20
9.52596782809127
 30
0.0
 40
0.0058058428872695
 50
162.4499734198735
 51
288.2623561471565
  0
ARC
  5
96
  8
0
 62
     0
 10
13.58055628998322
 20
9.501096524232127
 30
0.0
 40
0.0203846342204497
 50
54.26941957822904
 51
108.2623561471589
  0
ARC
  5
97
  8
0
 62
     0
 10
14.05623441648845
 20
10.16232766377837
 30
0.0
 40
0.7941681878489047
 50
234.2694195782291
 51
235.8204831095383
  0
ARC
  5
98
  8
0
 62
     0
 10
13.65780753560989
 20
9.575609236757284
 30
0.0
 40
0.0849556019392087
 50
235.8204831095385
 51
258.4946654301978
  0
ARC
  5
99
  8
0
 62
     0
 10
13.64517156860257
 20
9.513531059973996
 30
0.0
 40
0.0216044559752453
 50
258.4946654301983
 51
12.21766413683136
  0
ARC
  5
9A
  8
0
 62
     0
 10
13.78272155900024
 20
9.543314812132243
 30
0.0
 40
0.1191331429492194
 50
175.9574594285215
 51
192.2176641368325
  0
ARC
  5
9B
  8
0
 62
     0
 10
13.62407430090597
 20
9.750005414446369
 30
0.0
 40
0.0630164118664156
 50
168.0370924481323
 51
223.1854745250153
  0
ARC
  5
9C
  8
0
 62
     0
 10
13.90456192443878
 20
9.690575691088112
 30
0.0
 40
0.3497309022109379
 50
150.376184935054
 51
168.037092448132
  0
ARC
  5
9D
  8
0
 62
     0
 10
13.6215469709424
 20
9.427756122068638
 30
0.0
 40
0.0544251629071574
 50
42.76685229476204
 51
115.832651311775
  0
ARC
  5
9E
  8
0
 62
     0
 10
13.41695805413148
 20
9.430652337396502
 30
0.0
 40
0.2499444154905444
 50
358.9341494962783
 51
14.32033496975555
  0
ARC
  5
9F
  8
0
 62
     0
 10
13.64886699478936
 20
9.42633773028119
 30
0.0
 40
0.0179953422188044
 50
271.7781800707532
 51
358.9341494962782
  0
ARC
  5
A0
  8
0
 62
     0
 10
13.61743551971741
 20
10.43878448165835
 30
0.0
 40
1.030929872185755
 50
268.9341494962781
 51
271.7781800707538
  0
ARC
  5
A1
  8
0
 62
     0
 10
13.59865127820498
 20
9.429136688989457
 30
0.0
 40
0.0211073566067198
 50
153.3036191392349
 51
268.9341494962781
  0
ARC
  5
A2
  8
0
 62
     0
 10
13.44984735473224
 20
9.503965489082201
 30
0.0
 40
0.145451812952337
 50
333.3036191392338
 51
5.401628724299794
  0
ARC
  5
A3
  8
0
 62
     0
 10
13.40125062764292
 20
9.500626040796561
 30
0.0
 40
0.0402054302061122
 50
229.0925206911375
 51
330.5444532919469
  0
ARC
  5
A4
  8
0
 62
     0
 10
13.63187312610905
 20
9.202105097922436
 30
0.0
 40
0.2255390683877296
 50
162.2285764016054
 51
198.4837531654264
  0
ARC
  5
A5
  8
0
 62
     0
 10
13.01855690078303
 20
9.398682024333862
 30
0.0
 40
0.4185100603637384
 50
342.2285764016054
 51
9.588983465245944
  0
LINE
  5
A6
  8
0
 62
     0
 10
13.39981888994218
 20
9.121613004153371
 30
0.0
 11
13.41325199226202
 21
9.066245440647334
 31
0.0
  0
LINE
  5
A7
  8
0
 62
     0
 10
13.35966974014616
 20
9.101730460080159
 30
0.0
 11
13.41796880807179
 21
9.130601153316439
 31
0.0
  0
LINE
  5
A8
  8
0
 62
     0
 10
13.37461990459672
 20
9.166149786603228
 30
0.0
 11
13.35966974014616
 21
9.101730460080159
 31
0.0
  0
ARC
  5
A9
  8
0
 62
     0
 10
13.3472527473752
 20
9.083530442155192
 30
0.0
 40
0.0212245204171288
 50
186.698412278398
 51
290.7989127961375
  0
LINE
  5
AA
  8
0
 62
     0
 10
13.34543810801414
 20
9.124840853153833
 30
0.0
 11
13.32617310803434
 21
9.081054745849839
 31
0.0
  0
ARC
  5
AB
  8
0
 62
     0
 10
13.71648171565683
 20
9.855375711467472
 30
0.0
 40
0.3769594542020879
 50
166.8970072875746
 51
181.7973103644688
  0
LINE
  5
AC
  8
0
 62
     0
 10
13.3361201943323
 20
9.12716842858737
 30
0.0
 11
13.36467281829876
 21
9.120036103865699
 31
0.0
  0
ARC
  5
AD
  8
0
 62
     0
 10
13.12744610181259
 20
9.193447023837752
 30
0.0
 40
0.2189468635931696
 50
342.3792282719558
 51
0.1996061309564912
  0
ARC
  5
AE
  8
0
 62
     0
 10
13.36879499456757
 20
9.217079160070963
 30
0.0
 40
0.032014351710683
 50
194.5269118612271
 51
242.4998708805421
  0
ARC
  5
AF
  8
0
 62
     0
 10
13.82177915201883
 20
9.334455853642766
 30
0.0
 40
0.4999587235068075
 50
164.8758569012699
 51
194.5269118612269
  0
ARC
  5
B0
  8
0
 62
     0
 10
13.17160001562478
 20
9.510181598037056
 30
0.0
 40
0.1735488463430334
 50
344.87585690127
 51
7.039061955771029
  0
ARC
  5
B1
  8
0
 62
     0
 10
15.29268099327429
 20
9.772085586231865
 30
0.0
 40
1.963640479097965
 50
185.6022418137674
 51
187.039061955771
  0
ARC
  5
B2
  8
0
 62
     0
 10
14.61612142407272
 20
9.70572161410015
 30
0.0
 40
1.283833868748149
 50
173.8369006013379
 51
185.6022418137673
  0
ARC
  5
B3
  8
0
 62
     0
 10
13.42946441395776
 20
9.933999449308239
 30
0.0
 40
0.080245547355457
 50
147.8280012943141
 51
165.2965650236806
  0
ARC
  5
B4
  8
0
 62
     0
 10
13.24187203032495
 20
10.05200468151205
 30
0.0
 40
0.141376060852126
 50
327.8280012943138
 51
351.4332105415974
  0
ARC
  5
B5
  8
0
 62
     0
 10
13.09740392934472
 20
10.07376778127142
 30
0.0
 40
0.2874741946936275
 50
351.4332105415974
 51
9.279119025434602
  0
ARC
  5
B6
  8
0
 62
     0
 10
11.74960361564888
 20
9.853561352172216
 30
0.0
 40
1.653144929905897
 50
9.279119025434506
 51
11.72429940938983
  0
ARC
  5
B7
  8
0
 62
     0
 10
13.37386707785173
 20
10.0677202779946
 30
0.0
 40
0.0431178975035788
 50
153.5255987774322
 51
214.8148804581823
  0
ARC
  5
B8
  8
0
 62
     0
 10
13.03314206959984
 20
10.23740947079091
 30
0.0
 40
0.3375236049631369
 50
333.5255987774316
 51
3.532843743864813
  0
ARC
  5
B9
  8
0
 62
     0
 10
13.51785172667208
 20
10.40046431845873
 30
0.0
 40
0.199698958340681
 50
209.5731303549544
 51
228.4588157202583
  0
ARC
  5
BA
  8
0
 62
     0
 10
13.62575568366516
 20
10.33207879906258
 30
0.0
 40
0.0742659126513855
 50
358.1662356849724
 51
43.99721161318021
  0
ARC
  5
BB
  8
0
 62
     0
 10
13.64896591325712
 20
10.35449047440359
 30
0.0
 40
0.0420014128210376
 50
43.9972116131804
 51
80.7561691768912
  0
ARC
  5
BC
  8
0
 62
     0
 10
13.69852241750647
 20
10.65898546948812
 30
0.0
 40
0.2664998823868499
 50
245.7507024520364
 51
260.7561691768911
  0
ARC
  5
BD
  8
0
 62
     0
 10
13.36619165390166
 20
10.0435023146884
 30
0.0
 40
0.1231970331671585
 50
149.0043975703288
 51
185.2268921663297
  0
ARC
  5
BE
  8
0
 62
     0
 10
13.49576533131893
 20
10.08675886545084
 30
0.0
 40
0.240734035047442
 50
160.9150405290433
 51
176.4185506871112
  0
ARC
  5
BF
  8
0
 62
     0
 10
12.4578395562726
 20
10.44586778395628
 30
0.0
 40
0.8575597006424573
 50
340.9150405290433
 51
352.5432993182056
  0
ARC
  5
C0
  8
0
 62
     0
 10
13.37156650733888
 20
10.32627576507288
 30
0.0
 40
0.0639603436786034
 50
101.3513107912153
 51
172.5432993182056
  0
ARC
  5
C1
  8
0
 62
     0
 10
13.32982709623781
 20
10.5341919041736
 30
0.0
 40
0.1481040317775584
 50
281.3513107912152
 51
315.5059926475235
  0
ARC
  5
C2
  8
0
 62
     0
 10
13.39412404475054
 20
10.4710206865992
 30
0.0
 40
0.0579669122435911
 50
315.5059926475237
 51
32.39763146673994
  0
ARC
  5
C3
  8
0
 62
     0
 10
13.57243081137609
 20
10.45370282418495
 30
0.0
 40
0.0319938030686644
 50
132.8373380755969
 51
174.7448891372766
  0
ARC
  5
C4
  8
0
 62
     0
 10
13.49181070217285
 20
10.54065089557164
 30
0.0
 40
0.0865792508930516
 50
312.8373380755971
 51
355.3417147772693
  0
LINE
  5
C5
  8
0
 62
     0
 10
13.44266855294992
 20
10.56640279387349
 30
0.0
 11
13.44306841146054
 21
10.50207888813137
 31
0.0
  0
ARC
  5
C6
  8
0
 62
     0
 10
13.43275637370559
 20
10.510207400649
 30
0.0
 40
0.0131305307740685
 50
181.0186266903672
 51
321.7528872596922
  0
ARC
  5
C7
  8
0
 62
     0
 10
13.25924291961023
 20
10.50712228581658
 30
0.0
 40
0.1604103482303653
 50
1.018626690366196
 51
17.73234773943063
  0
ARC
  5
C8
  8
0
 62
     0
 10
13.52774927186135
 20
10.59298065527144
 30
0.0
 40
0.1214891388295577
 50
159.7977012852122
 51
197.7323477394308
  0
ARC
  5
C9
  8
0
 62
     0
 10
13.51931871978412
 20
10.59608287850138
 30
0.0
 40
0.1125059324256405
 50
126.6527793854006
 51
159.797701285212
  0
ARC
  5
CA
  8
0
 62
     0
 10
13.47693240776491
 20
10.65304639547309
 30
0.0
 40
0.0415028218432476
 50
88.95392702819814
 51
126.6527793854006
  0
ARC
  5
CB
  8
0
 62
     0
 10
13.48293143447816
 20
10.98159012930909
 30
0.0
 40
0.2870956768818794
 50
268.9539270281981
 51
277.5800781911686
  0
ARC
  5
CC
  8
0
 62
     0
 10
13.52526308938637
 20
10.66348546522064
 30
0.0
 40
0.0338132608591766
 50
51.24145957401835
 51
97.5800781911686
  0
ARC
  5
CD
  8
0
 62
     0
 10
13.28626246634297
 20
10.36578777505972
 30
0.0
 40
0.4155791741388721
 50
43.96235512480475
 51
51.24145957401807
  0
ARC
  5
CE
  8
0
 62
     0
 10
13.57436519054908
 20
10.64363975795933
 30
0.0
 40
0.0153231259694159
 50
281.8555975956582
 51
43.9623551248047
  0
ARC
  5
CF
  8
0
 62
     0
 10
13.54073053601619
 20
10.80386291666673
 30
0.0
 40
0.1790385820867988
 50
250.2570063309882
 51
281.8555975956592
  0
ARC
  5
D0
  8
0
 62
     0
 10
13.33972716611641
 20
10.66723227648622
 30
0.0
 40
0.1440955019671148
 50
315.5937986459102
 51
347.2165405061886
  0
ARC
  5
D1
  8
0
 62
     0
 10
13.63484961532213
 20
10.53592416681828
 30
0.0
 40
0.0567924323786255
 50
155.7667792214884
 51
182.3256853975001
  0
ARC
  5
D2
  8
0
 62
     0
 10
13.53723129891791
 20
10.57986362765644
 30
0.0
 40
0.050259012807047
 50
335.7667792214888
 51
15.00606888932849
  0
ARC
  5
D3
  8
0
 62
     0
 10
13.67371316177297
 20
10.61644932740149
 30
0.0
 40
0.0910414200097747
 50
170.3633674879384
 51
195.0060688893268
  0
ARC
  5
D4
  8
0
 62
     0
 10
13.52204319361649
 20
10.49745294925583
 30
0.0
 40
0.0412527442214988
 50
240.6112834865738
 51
300.1010460804595
  0
POLYLINE
  5
D5
  8
0
 62
     0
 66
     1
 10
0.0
 20
0.0
 30
0.0
  0
VERTEX
  5
194
  8
0
 62
     0
 10
13.53860612072657
 20
9.267780777454925
 30
0.0
  0
VERTEX
  5
195
  8
0
 62
     0
 10
13.53860612072657
 20
9.240594050664582
 30
0.0
  0
VERTEX
  5
196
  8
0
 62
     0
 10
13.50223505118498
 20
9.240594050664582
 30
0.0
  0
SEQEND
  5
1C7
  8
0
 62
     0
  0
POLYLINE
  5
DA
  8
0
 62
     0
 66
     1
 10
0.0
 20
0.0
 30
0.0
  0
VERTEX
  5
197
  8
0
 62
     0
 10
13.50223505118498
 20
9.214851644427695
 30
0.0
  0
VERTEX
  5
198
  8
0
 62
     0
 10
13.5522091860887
 20
9.214851644427695
 30
0.0
  0
VERTEX
  5
199
  8
0
 62
     0
 10
13.5522091860887
 20
9.391488535648913
 30
0.0
  0
VERTEX
  5
19A
  8
0
 62
     0
 10
13.64098958944832
 20
9.391488535648913
 30
0.0
  0
VERTEX
  5
19B
  8
0
 62
     0
 10
13.64098958944832
 20
9.407238417120725
 30
0.0
  0
VERTEX
  5
19C
  8
0
 62
     0
 10
13.53860612072657
 20
9.407238417120725
 30
0.0
  0
VERTEX
  5
19D
  8
0
 62
     0
 10
13.53860612072657
 20
9.275538369193335
 30
0.0
  0
SEQEND
  5
1C8
  8
0
 62
     0
  0
POLYLINE
  5
E3
  8
0
 62
     0
 66
     1
 10
0.0
 20
0.0
 30
0.0
  0
VERTEX
  5
19E
  8
0
 62
     0
 10
13.47015337293915
 20
9.240594050664582
 30
0.0
  0
VERTEX
  5
19F
  8
0
 62
     0
 10
13.42017923803544
 20
9.240594050664582
 30
0.0
  0
VERTEX
  5
1A0
  8
0
 62
     0
 10
13.42017923803544
 20
9.063957159443362
 30
0.0
  0
VERTEX
  5
1A1
  8
0
 62
     0
 10
13.33139883467581
 20
9.063957159443362
 30
0.0
  0
VERTEX
  5
1A2
  8
0
 62
     0
 10
13.33139883467581
 20
9.048207277971551
 30
0.0
  0
VERTEX
  5
1A3
  8
0
 62
     0
 10
13.43378230339756
 20
9.048207277971551
 30
0.0
  0
VERTEX
  5
1A4
  8
0
 62
     0
 10
13.43378230339756
 20
9.214851644427695
 30
0.0
  0
VERTEX
  5
1A5
  8
0
 62
     0
 10
13.47015337293915
 20
9.214851644427695
 30
0.0
  0
SEQEND
  5
1C9
  8
0
 62
     0
  0
POLYLINE
  5
ED
  8
0
 62
     0
 66
     1
 10
0.0
 20
0.0
 30
0.0
  0
VERTEX
  5
1A6
  8
0
 62
     0
 10
13.49340802310143
 20
9.924099163028616
 30
0.0
  0
VERTEX
  5
1A7
  8
0
 62
     0
 10
13.5490527272397
 20
9.924099163028616
 30
0.0
 42
0.1739895258427665
  0
VERTEX
  5
1A8
  8
0
 62
     0
 10
13.59014515643777
 20
9.938844854377159
 30
0.0
  0
VERTEX
  5
1A9
  8
0
 62
     0
 10
13.67332622832247
 20
9.981321784600006
 30
0.0
  0
SEQEND
  5
1CA
  8
0
 62
     0
  0
POLYLINE
  5
F3
  8
0
 62
     0
 66
     1
 10
0.0
 20
0.0
 30
0.0
  0
VERTEX
  5
1AA
  8
0
 62
     0
 10
13.4789804010227
 20
9.91059212429366
 30
0.0
  0
VERTEX
  5
1AB
  8
0
 62
     0
 10
13.42333569688444
 20
9.91059212429366
 30
0.0
 42
-0.1689184025220576
  0
VERTEX
  5
1AC
  8
0
 62
     0
 10
13.3748533069933
 20
9.927452339716506
 30
0.0
  0
VERTEX
  5
1AD
  8
0
 62
     0
 10
13.31670233120615
 20
9.957147496137733
 30
0.0
  0
SEQEND
  5
1CB
  8
0
 62
     0
  0
POLYLINE
  5
F9
  8
0
 62
     0
 66
     1
 10
0.0
 20
0.0
 30
0.0
  0
VERTEX
  5
1AE
  8
0
 62
     0
 10
13.4789804010227
 20
9.924099163028616
 30
0.0
  0
VERTEX
  5
1AF
  8
0
 62
     0
 10
13.42333569688444
 20
9.924099163028616
 30
0.0
 42
-0.1739895258427665
  0
VERTEX
  5
1B0
  8
0
 62
     0
 10
13.38224326768636
 20
9.938844854377159
 30
0.0
  0
VERTEX
  5
1B1
  8
0
 62
     0
 10
13.32284519470275
 20
9.969176848715895
 30
0.0
  0
SEQEND
  5
1CC
  8
0
 62
     0
  0
POLYLINE
  5
FF
  8
0
 62
     0
 66
     1
 10
0.0
 20
0.0
 30
0.0
  0
VERTEX
  5
1B2
  8
0
 62
     0
 10
13.4789804010227
 20
9.77577903113431
 30
0.0
  0
VERTEX
  5
1B3
  8
0
 62
     0
 10
13.4789804010227
 20
9.926260216524662
 30
0.0
 42
-1.0
  0
VERTEX
  5
1B4
  8
0
 62
     0
 10
13.49340802310143
 20
9.926260216524662
 30
0.0
  0
VERTEX
  5
1B5
  8
0
 62
     0
 10
13.49340802310143
 20
9.77577903113431
 30
0.0
  0
SEQEND
  5
1CD
  8
0
 62
     0
  0
LINE
  5
105
  8
0
 62
     0
 10
13.50643775514696
 20
9.65008703093119
 30
0.0
 11
13.50643775514696
 21
9.671024313887076
 31
0.0
  0
LINE
  5
106
  8
0
 62
     0
 10
13.50643775514696
 20
9.768677822999502
 30
0.0
 11
13.48619421206207
 21
9.768677822999502
 31
0.0
  0
LINE
  5
107
  8
0
 62
     0
 10
13.50643775514696
 20
9.768677822999502
 30
0.0
 11
13.5128977398767
 21
9.768677822999502
 31
0.0
  0
LINE
  5
108
  8
0
 62
     0
 10
13.5128977398767
 20
9.768677822999502
 30
0.0
 11
13.5128977398767
 21
9.77577903113431
 31
0.0
  0
LINE
  5
109
  8
0
 62
     0
 10
13.5128977398767
 20
9.77577903113431
 30
0.0
 11
13.48619421206207
 21
9.77577903113431
 31
0.0
  0
LINE
  5
10A
  8
0
 62
     0
 10
13.50643775514696
 20
9.747564210818759
 30
0.0
 11
13.50643775514696
 21
9.768677822999502
 31
0.0
  0
LINE
  5
10B
  8
0
 62
     0
 10
13.46595066897718
 20
9.747564210818759
 30
0.0
 11
13.46595066897718
 21
9.768677822999502
 31
0.0
  0
LINE
  5
10C
  8
0
 62
     0
 10
13.45949068424743
 20
9.77577903113431
 30
0.0
 11
13.48619421206207
 21
9.77577903113431
 31
0.0
  0
LINE
  5
10D
  8
0
 62
     0
 10
13.45949068424743
 20
9.768677822999502
 30
0.0
 11
13.45949068424743
 21
9.77577903113431
 31
0.0
  0
LINE
  5
10E
  8
0
 62
     0
 10
13.46595066897718
 20
9.768677822999502
 30
0.0
 11
13.45949068424743
 21
9.768677822999502
 31
0.0
  0
LINE
  5
10F
  8
0
 62
     0
 10
13.46595066897718
 20
9.768677822999502
 30
0.0
 11
13.48619421206207
 21
9.768677822999502
 31
0.0
  0
LINE
  5
110
  8
0
 62
     0
 10
13.46595066897718
 20
9.65008703093119
 30
0.0
 11
13.46595066897718
 21
9.671024313887076
 31
0.0
  0
POLYLINE
  5
111
  8
0
 62
     0
 66
     1
 10
0.0
 20
0.0
 30
0.0
  0
VERTEX
  5
1B6
  8
0
 62
     0
 10
13.48619421206207
 20
9.65008703093119
 30
0.0
  0
VERTEX
  5
1B7
  8
0
 62
     0
 10
13.53422342911166
 20
9.65008703093119
 30
0.0
  0
VERTEX
  5
1B8
  8
0
 62
     0
 10
13.53422342911166
 20
9.26424437798261
 30
0.0
  0
VERTEX
  5
1B9
  8
0
 62
     0
 10
13.52419667403469
 20
9.26424437798261
 30
0.0
  0
VERTEX
  5
1BA
  8
0
 62
     0
 10
13.5165078795524
 20
9.616939669169934
 30
0.0
  0
VERTEX
  5
1BB
  8
0
 62
     0
 10
13.48619421206207
 20
9.616939669169934
 30
0.0
  0
SEQEND
  5
1CE
  8
0
 62
     0
  0
LINE
  5
119
  8
0
 62
     0
 10
13.50223505118498
 20
9.275538369193335
 30
0.0
 11
13.52395046383718
 21
9.275538369193335
 31
0.0
  0
LINE
  5
11A
  8
0
 62
     0
 10
13.50223505118498
 20
9.267780777454925
 30
0.0
 11
13.52411958015385
 21
9.267780777454927
 31
0.0
  0
LINE
  5
11B
  8
0
 62
     0
 10
13.54089100703893
 20
9.275538369193335
 30
0.0
 11
13.54089100703893
 21
9.267780777454925
 31
0.0
  0
LINE
  5
11C
  8
0
 62
     0
 10
13.53422342911166
 20
9.275538369193335
 30
0.0
 11
13.54089100703893
 21
9.275538369193335
 31
0.0
  0
LINE
  5
11D
  8
0
 62
     0
 10
13.53422342911166
 20
9.267780777454925
 30
0.0
 11
13.54089100703893
 21
9.267780777454925
 31
0.0
  0
LINE
  5
11E
  8
0
 62
     0
 10
13.43816499501248
 20
9.267780777454925
 30
0.0
 11
13.43149741708521
 21
9.267780777454925
 31
0.0
  0
LINE
  5
11F
  8
0
 62
     0
 10
13.43816499501248
 20
9.275538369193335
 30
0.0
 11
13.43149741708521
 21
9.275538369193335
 31
0.0
  0
LINE
  5
120
  8
0
 62
     0
 10
13.43149741708521
 20
9.275538369193335
 30
0.0
 11
13.43149741708521
 21
9.267780777454925
 31
0.0
  0
LINE
  5
121
  8
0
 62
     0
 10
13.47015337293915
 20
9.267780777454925
 30
0.0
 11
13.44826884397028
 21
9.267780777454927
 31
0.0
  0
LINE
  5
122
  8
0
 62
     0
 10
13.47015337293915
 20
9.275538369193335
 30
0.0
 11
13.44843796028696
 21
9.275538369193335
 31
0.0
  0
POLYLINE
  5
123
  8
0
 62
     0
 66
     1
 10
0.0
 20
0.0
 30
0.0
  0
VERTEX
  5
1BC
  8
0
 62
     0
 10
13.48619421206207
 20
9.65008703093119
 30
0.0
  0
VERTEX
  5
1BD
  8
0
 62
     0
 10
13.43816499501248
 20
9.65008703093119
 30
0.0
  0
VERTEX
  5
1BE
  8
0
 62
     0
 10
13.43816499501248
 20
9.26424437798261
 30
0.0
  0
VERTEX
  5
1BF
  8
0
 62
     0
 10
13.44819175008945
 20
9.26424437798261
 30
0.0
  0
VERTEX
  5
1C0
  8
0
 62
     0
 10
13.45588054457173
 20
9.616939669169934
 30
0.0
  0
VERTEX
  5
1C1
  8
0
 62
     0
 10
13.48619421206207
 20
9.616939669169934
 30
0.0
  0
SEQEND
  5
1CF
  8
0
 62
     0
  0
CIRCLE
  5
12B
  8
0
 62
     0
 10
13.48619421206207
 20
9.709294262352916
 30
0.0
 40
0.0432942258529702
  0
POLYLINE
  5
12C
  8
0
 62
     0
 66
     1
 10
0.0
 20
0.0
 30
0.0
 70
     1
  0
VERTEX
  5
1C2
  8
0
 62
     0
 10
13.47015337293915
 20
8.967185644333572
 30
0.0
  0
VERTEX
  5
1C3
  8
0
 62
     0
 10
13.47015337293915
 20
9.57613350231469
 30
0.0
 42
-1.0
  0
VERTEX
  5
1C4
  8
0
 62
     0
 10
13.50223505118498
 20
9.57613350231469
 30
0.0
  0
VERTEX
  5
1C5
  8
0
 62
     0
 10
13.50223505118498
 20
8.967344678968479
 30
0.0
 42
-0.9950551073262561
  0
SEQEND
  5
1D0
  8
0
 62
     0
  0
ENDSEC
  0
EOF
