  0
SECTION
  2
HEADER
  9
$ACADVER
  1
AC1009
  9
$DWGCODEPAGE
  3
ansi_1252
  9
$INSBASE
 10
7.536717680967403
 20
18.57444836110613
 30
0.0
  9
$EXTMIN
 10
7.069244462844495
 20
18.57253197221147
 30
-0.0000000349181948
  9
$EXTMAX
 10
8.08319096230342
 20
20.38270116442896
 30
0.0000000814935746
  9
$LIMMIN
 10
0.0
 20
0.0
  9
$LIMMAX
 10
30.0
 20
25.65
  9
$ORTHOMODE
 70
     0
  9
$REGENMODE
 70
     1
  9
$FILLMODE
 70
     1
  9
$QTEXTMODE
 70
     0
  9
$MIRRTEXT
 70
     0
  9
$DRAGMODE
 70
     2
  9
$LTSCALE
 40
0.4
  9
$OSMODE
 70
    37
  9
$ATTMODE
 70
     1
  9
$TEXTSIZE
 40
0.2
  9
$TRACEWID
 40
0.05
  9
$TEXTSTYLE
  7
STANDARD
  9
$CLAYER
  8
PERSONA
  9
$CELTYPE
  6
BYLAYER
  9
$CECOLOR
 62
   256
  9
$DIMSCALE
 40
1.0
  9
$DIMASZ
 40
0.07
  9
$DIMEXO
 40
0.1
  9
$DIMDLI
 40
0.0
  9
$DIMRND
 40
0.0
  9
$DIMDLE
 40
0.0
  9
$DIMEXE
 40
0.1
  9
$DIMTP
 40
0.0
  9
$DIMTM
 40
0.0
  9
$DIMTXT
 40
0.1
  9
$DIMCEN
 40
0.2
  9
$DIMTSZ
 40
0.0
  9
$DIMTOL
 70
     0
  9
$DIMLIM
 70
     0
  9
$DIMTIH
 70
     0
  9
$DIMTOH
 70
     1
  9
$DIMSE1
 70
     1
  9
$DIMSE2
 70
     1
  9
$DIMTAD
 70
     1
  9
$DIMZIN
 70
     0
  9
$DIMBLK
  1

  9
$DIMASO
 70
     1
  9
$DIMSHO
 70
     0
  9
$DIMPOST
  1

  9
$DIMAPOST
  1

  9
$DIMALT
 70
     0
  9
$DIMALTD
 70
     2
  9
$DIMALTF
 40
25.4
  9
$DIMLFAC
 40
1.0
  9
$DIMTOFL
 70
     0
  9
$DIMTVP
 40
0.0
  9
$DIMTIX
 70
     1
  9
$DIMSOXD
 70
     0
  9
$DIMSAH
 70
     0
  9
$DIMBLK1
  1

  9
$DIMBLK2
  1

  9
$DIMSTYLE
  2
STANDARD
  9
$DIMCLRD
 70
     0
  9
$DIMCLRE
 70
     0
  9
$DIMCLRT
 70
     0
  9
$DIMTFAC
 40
1.0
  9
$DIMGAP
 40
0.09
  9
$LUNITS
 70
     2
  9
$LUPREC
 70
     3
  9
$SKETCHINC
 40
0.01
  9
$FILLETRAD
 40
0.0
  9
$AUNITS
 70
     0
  9
$AUPREC
 70
     2
  9
$MENU
  1
ARQ11-I9
  9
$ELEVATION
 40
0.0
  9
$PELEVATION
 40
0.0
  9
$THICKNESS
 40
0.0
  9
$LIMCHECK
 70
     0
  9
$CHAMFERA
 40
0.0
  9
$CHAMFERB
 40
0.0
  9
$SKPOLY
 70
     1
  9
$TDCREATE
 40
2448684.364040741
  9
$TDUPDATE
 40
2457483.532962963
  9
$TDINDWG
 40
0.0034696875
  9
$TDUSRTIMER
 40
0.0034696875
  9
$USRTIMER
 70
     1
  9
$ANGBASE
 50
0.0
  9
$ANGDIR
 70
     0
  9
$PDMODE
 70
     1
  9
$PDSIZE
 40
0.1
  9
$PLINEWID
 40
0.0
  9
$COORDS
 70
     1
  9
$SPLFRAME
 70
     0
  9
$SPLINETYPE
 70
     6
  9
$SPLINESEGS
 70
     8
  9
$ATTDIA
 70
     0
  9
$ATTREQ
 70
     1
  9
$HANDLING
 70
     1
  9
$HANDSEED
  5
1C5
  9
$SURFTAB1
 70
     6
  9
$SURFTAB2
 70
     6
  9
$SURFTYPE
 70
     6
  9
$SURFU
 70
     6
  9
$SURFV
 70
     6
  9
$UCSNAME
  2

  9
$UCSORG
 10
0.0
 20
0.0
 30
0.0
  9
$UCSXDIR
 10
1.0
 20
0.0
 30
0.0
  9
$UCSYDIR
 10
0.0
 20
1.0
 30
0.0
  9
$PUCSNAME
  2

  9
$PUCSORG
 10
0.0
 20
0.0
 30
0.0
  9
$PUCSXDIR
 10
1.0
 20
0.0
 30
0.0
  9
$PUCSYDIR
 10
0.0
 20
1.0
 30
0.0
  9
$USERI1
 70
     0
  9
$USERI2
 70
     0
  9
$USERI3
 70
     0
  9
$USERI4
 70
     0
  9
$USERI5
 70
     0
  9
$USERR1
 40
0.0
  9
$USERR2
 40
0.0
  9
$USERR3
 40
0.0
  9
$USERR4
 40
0.0
  9
$USERR5
 40
0.0
  9
$WORLDVIEW
 70
     1
  9
$SHADEDGE
 70
     3
  9
$SHADEDIF
 70
    70
  9
$TILEMODE
 70
     1
  9
$MAXACTVP
 70
    16
  9
$PLIMCHECK
 70
     0
  9
$PEXTMIN
 10
1.000000000000000E+20
 20
1.000000000000000E+20
 30
1.000000000000000E+20
  9
$PEXTMAX
 10
-1.000000000000000E+20
 20
-1.000000000000000E+20
 30
-1.000000000000000E+20
  9
$PLIMMIN
 10
0.0
 20
0.0
  9
$PLIMMAX
 10
12.0
 20
9.0
  9
$UNITMODE
 70
     0
  9
$VISRETAIN
 70
     0
  9
$PLINEGEN
 70
     0
  9
$PSLTSCALE
 70
     0
  0
ENDSEC
  0
SECTION
  2
TABLES
  0
TABLE
  2
VPORT
 70
     1
  0
VPORT
  2
*ACTIVE
 70
     0
 10
0.0
 20
0.0
 11
1.0
 21
1.0
 12
7.576217712573957
 22
19.47761656832022
 13
0.0
 23
0.0
 14
0.025
 24
0.025
 15
0.0
 25
0.0
 16
0.0
 26
0.0
 36
1.0
 17
0.0
 27
0.0
 37
0.0
 40
1.829025121303083
 41
1.365217391304348
 42
50.0
 43
0.0
 44
0.0
 50
0.0
 51
0.0
 71
     0
 72
   600
 73
     1
 74
     1
 75
     0
 76
     0
 77
     0
 78
     0
  0
ENDTAB
  0
TABLE
  2
LTYPE
 70
     1
  0
LTYPE
  2
CONTINUOUS
 70
     0
  3
Solid line
 72
    65
 73
     0
 40
0.0
  0
ENDTAB
  0
TABLE
  2
LAYER
 70
     2
  0
LAYER
  2
0
 70
     0
 62
     7
  6
CONTINUOUS
  0
LAYER
  2
PERSONA
 70
     0
 62
    31
  6
CONTINUOUS
  0
ENDTAB
  0
TABLE
  2
STYLE
 70
     1
  0
STYLE
  2
STANDARD
 70
     0
 40
0.0
 41
1.0
 50
0.0
 71
     0
 42
0.2
  3
TXT
  4

  0
ENDTAB
  0
TABLE
  2
VIEW
 70
     0
  0
ENDTAB
  0
TABLE
  2
UCS
 70
     0
  0
ENDTAB
  0
TABLE
  2
APPID
 70
     1
  0
APPID
  2
ACAD
 70
     0
  0
ENDTAB
  0
TABLE
  2
DIMSTYLE
 70
     1
  0
DIMSTYLE
  2
STANDARD
 70
     0
  3

  4

  5

  6

  7

 40
1.0
 41
0.18
 42
0.0625
 43
0.38
 44
0.18
 45
0.0
 46
0.0
 47
0.0
 48
0.0
140
0.18
141
0.09
142
0.0
143
25.4
144
1.0
145
0.0
146
1.0
147
0.09
 71
     0
 72
     0
 73
     1
 74
     1
 75
     0
 76
     0
 77
     0
 78
     0
170
     0
171
     2
172
     0
173
     0
174
     0
175
     0
176
     0
177
     0
178
     0
  0
ENDTAB
  0
ENDSEC
  0
SECTION
  2
BLOCKS
  0
BLOCK
  8
0
  2
$MODEL_SPACE
 70
     0
 10
0.0
 20
0.0
 30
0.0
  3
$MODEL_SPACE
  1

  0
ENDBLK
  5
64
  8
0
  0
BLOCK
 67
     1
  8
0
  2
$PAPER_SPACE
 70
     0
 10
0.0
 20
0.0
 30
0.0
  3
$PAPER_SPACE
  1

  0
ENDBLK
  5
62
 67
     1
  8
0
  0
ENDSEC
  0
SECTION
  2
ENTITIES
  0
ARC
  5
68
  8
0
 62
     0
 10
6.24500232953185
 20
19.79646993643685
 30
0.0
 40
1.192017020708531
 50
341.5544824005823
 51
358.7314135681918
  0
ARC
  5
69
  8
0
 62
     0
 10
7.443375614795324
 20
19.95128465049266
 30
0.0
 40
0.3359503947106002
 50
277.2083578481218
 51
285.621336303511
  0
ARC
  5
6A
  8
0
 62
     0
 10
7.448211987910947
 20
20.93516825593879
 30
0.0
 40
1.323380082453288
 50
259.953906915686
 51
263.9853303898
  0
ARC
  5
6B
  8
0
 62
     0
 10
6.030145927801141
 20
19.78740407061191
 30
0.0
 40
1.195361159409015
 50
352.184443343176
 51
3.500736210536202
  0
ARC
  5
6C
  8
0
 62
     0
 10
8.96819125286417
 20
19.73874911249267
 30
0.0
 40
1.437623971284334
 50
177.1375929886305
 51
184.6595733478888
  0
ARC
  5
6D
  8
0
 62
     0
 10
6.152760036751782
 20
19.49052806429445
 30
0.0
 40
1.385338858441228
 50
357.5163714637562
 51
3.630531253194929
  0
ARC
  5
6E
  8
0
 62
     0
 10
7.517205506002522
 20
19.42808374814245
 30
0.0
 40
0.019739995429045
 50
256.8920031550241
 51
7.018863382830688
  0
ARC
  5
6F
  8
0
 62
     0
 10
7.68109181124334
 20
19.6273880576379
 30
0.0
 40
0.0461612361038978
 50
91.53271882369656
 51
182.9682492018222
  0
ARC
  5
70
  8
0
 62
     0
 10
7.781171723588804
 20
19.75730242502031
 30
0.0
 40
0.0562663061372765
 50
220.8466456369991
 51
329.0086706160826
  0
ARC
  5
71
  8
0
 62
     0
 10
7.54996693239846
 20
19.69465551864353
 30
0.0
 40
0.1313542366267254
 50
351.4374994349965
 51
13.44598862475848
  0
ARC
  5
72
  8
0
 62
     0
 10
7.580105469829783
 20
19.64818002590481
 30
0.0
 40
0.0425324484187344
 50
324.4184756742121
 51
348.3693227591385
  0
ARC
  5
73
  8
0
 62
     0
 10
7.693388042165342
 20
19.72302531228434
 30
0.0
 40
0.0486086019654499
 50
220.3742926178916
 51
247.1547616515082
  0
ARC
  5
74
  8
0
 62
     0
 10
7.66288474112013
 20
19.78105424825247
 30
0.0
 40
0.1546275269726415
 50
211.5292506258637
 51
225.6930861140127
  0
ARC
  5
75
  8
0
 62
     0
 10
7.61637334678931
 20
19.78475503450824
 30
0.0
 40
0.042117208574637
 50
190.2365280650148
 51
231.4533014804426
  0
LINE
  5
76
  8
0
 62
     0
 10
7.8005642215669
 20
18.57679683208206
 30
0.0
 11
7.826201132394371
 21
18.57679683208206
 31
0.0
  0
LINE
  5
77
  8
0
 62
     0
 10
7.756365701623261
 20
18.58189404471553
 30
0.0
 11
7.8005642215669
 21
18.57679683208206
 31
0.0
  0
ARC
  5
78
  8
0
 62
     0
 10
7.453890541439142
 20
18.49240617984952
 30
0.0
 40
0.1303155090862926
 50
65.93844350351998
 51
115.3805140752543
  0
LINE
  5
79
  8
0
 62
     0
 10
7.402598656731207
 20
18.5804533545561
 30
0.0
 11
7.501886906463668
 21
18.5804533545561
 31
0.0
  0
ARC
  5
7A
  8
0
 62
     0
 10
7.505401970032597
 20
18.58818959263591
 30
0.0
 40
0.0084973555604763
 50
245.5646898377803
 51
21.65967863568701
  0
ARC
  5
7B
  8
0
 62
     0
 10
7.403377780663311
 20
18.59229013200011
 30
0.0
 40
0.01186239159531
 50
168.4201730225411
 51
266.2340923574654
  0
ARC
  5
7C
  8
0
 62
     0
 10
7.001633584384939
 20
18.67460897440083
 30
0.0
 40
0.3982288068685802
 50
348.4201730225423
 51
354.5069920359425
  0
ARC
  5
7D
  8
0
 62
     0
 10
7.431900676038106
 20
18.59837432819792
 30
0.0
 40
0.082714789013494
 50
356.273659552185
 51
27.43835636195176
  0
ARC
  5
7E
  8
0
 62
     0
 10
7.442971976089162
 20
19.03823336219979
 30
0.0
 40
0.4046828539187569
 50
261.3425289444643
 51
281.0762121462741
  0
ARC
  5
7F
  8
0
 62
     0
 10
5.703455275424691
 20
18.81380559083489
 30
0.0
 40
1.686630375845919
 50
354.0224342804316
 51
7.006263687989833
  0
ARC
  5
80
  8
0
 62
     0
 10
10.61609579704551
 20
19.41754716379478
 30
0.0
 40
3.262969686946122
 50
182.9735836750527
 51
187.0062636879898
  0
ARC
  5
81
  8
0
 62
     0
 10
-0.0360854986179477
 20
18.88405077380675
 30
0.0
 40
7.562365142669909
 50
358.1715763120088
 51
3.966664158158952
  0
ARC
  5
82
  8
0
 62
     0
 10
4.145129693845917
 20
19.33946472869368
 30
0.0
 40
3.05860634698422
 50
354.9875434288762
 51
1.354881998574828
  0
ARC
  5
83
  8
0
 62
     0
 10
9.425360813356438
 20
18.62995383798251
 30
0.0
 40
2.276693134211002
 50
168.7984263397972
 51
179.7872970725296
  0
ARC
  5
84
  8
0
 62
     0
 10
7.228269467592458
 20
18.47308149058755
 30
0.0
 40
0.1498359361358354
 50
73.06039567564893
 51
115.366547047074
  0
ARC
  5
85
  8
0
 62
     0
 10
7.189756604143806
 20
19.7640646487769
 30
0.0
 40
1.190268196555674
 50
268.5440414209745
 51
274.5369532358374
  0
ARC
  5
86
  8
0
 62
     0
 10
4.301332454326467
 20
18.20652844161521
 30
0.0
 40
3.004792474722307
 50
7.148581714944919
 51
8.283180873460996
  0
ARC
  5
87
  8
0
 62
     0
 10
7.294971682959842
 20
18.58986229276128
 30
0.0
 40
0.138063383239046
 50
163.0051797361215
 51
186.5218639891974
  0
ARC
  5
88
  8
0
 62
     0
 10
7.242341419832581
 20
17.72395213492226
 30
0.0
 40
0.9192373047254434
 50
86.12573661286825
 51
95.84782523738616
  0
ARC
  5
89
  8
0
 62
     0
 10
9.586361333268734
 20
18.70876328129087
 30
0.0
 40
2.282863999609584
 50
172.4511964487138
 51
181.6567584914453
  0
ARC
  5
8A
  8
0
 62
     0
 10
7.215810809810169
 20
19.06829766735647
 30
0.0
 40
0.1229072822074129
 50
330.9752403886987
 51
1.247104733269221
  0
ARC
  5
8B
  8
0
 62
     0
 10
5.979896162719388
 20
19.04139239664999
 30
0.0
 40
1.35911475204624
 50
1.247104733269513
 51
3.134859755680974
  0
ARC
  5
8C
  8
0
 62
     0
 10
7.636234891883403
 20
19.13210723042761
 30
0.0
 40
0.2997062650607781
 50
161.9719530326681
 51
183.1348597556809
  0
ARC
  5
8D
  8
0
 62
     0
 10
6.49128010272443
 20
19.50474533065381
 30
0.0
 40
0.9043620980142862
 50
341.9719530326681
 51
357.2622044850511
  0
ARC
  5
8E
  8
0
 62
     0
 10
7.129007071256849
 20
16.82517185445509
 30
0.0
 40
2.589893336434783
 50
85.07746537079323
 51
87.73392163082569
  0
ARC
  5
8F
  8
0
 62
     0
 10
7.353387259078074
 20
19.43041321388634
 30
0.0
 40
0.0249927049784702
 50
265.0774653707933
 51
333.6304259176788
  0
ARC
  5
90
  8
0
 62
     0
 10
7.653069237179366
 20
19.61464659316647
 30
0.0
 40
0.016866339874147
 50
10.56203215499576
 51
72.15657193085313
  0
ARC
  5
91
  8
0
 62
     0
 10
7.750788348439446
 20
19.63286721320977
 30
0.0
 40
0.0825369583619904
 50
190.5620321549972
 51
210.8387490370595
  0
ARC
  5
92
  8
0
 62
     0
 10
7.697835059683436
 20
19.6012521597765
 30
0.0
 40
0.0208639302729948
 50
210.838749037059
 51
333.0961415176752
  0
ARC
  5
93
  8
0
 62
     0
 10
7.675731412485847
 20
19.61246785174124
 30
0.0
 40
0.0456502766290717
 50
333.096141517674
 51
23.54210729406546
  0
ARC
  5
94
  8
0
 62
     0
 10
7.622724643965487
 20
19.58937351781391
 30
0.0
 40
0.1034695274761554
 50
23.5421072940651
 51
59.79133077707087
  0
ARC
  5
95
  8
0
 62
     0
 10
6.932355857270636
 20
19.45012336300227
 30
0.0
 40
0.4871179068082264
 50
357.9002750765566
 51
10.60209611217464
  0
ARC
  5
96
  8
0
 62
     0
 10
7.442934138278309
 20
19.4314037619296
 30
0.0
 40
0.0238034222641366
 50
177.9002750765565
 51
269.0565595954366
  0
ARC
  5
97
  8
0
 62
     0
 10
7.459375558158678
 20
20.42981216596948
 30
0.0
 40
1.022347192734486
 50
269.0565595954378
 51
272.9914501501693
  0
ARC
  5
98
  8
0
 62
     0
 10
9.025104464523356
 20
20.08551887949528
 30
0.0
 40
1.482576543579183
 50
182.1196228380612
 51
192.0001418112923
  0
ARC
  5
99
  8
0
 62
     0
 10
7.502146768388162
 20
20.02915226069916
 30
0.0
 40
0.0414238960309656
 50
2.119622838061179
 51
34.89134557155068
  0
ARC
  5
9A
  8
0
 62
     0
 10
5.90698366716682
 20
18.91670923558744
 30
0.0
 40
1.986179614268554
 50
34.8913455715503
 51
35.94231877636486
  0
ARC
  5
9B
  8
0
 62
     0
 10
7.486985351911587
 20
20.06221916174729
 30
0.0
 40
0.0346165702633031
 50
35.94231877636488
 51
86.1109298690099
  0
ARC
  5
9C
  8
0
 62
     0
 10
7.492454457268627
 20
20.1426690517665
 30
0.0
 40
0.046019004500627
 50
200.6415097923523
 51
266.1109298690097
  0
ARC
  5
9D
  8
0
 62
     0
 10
7.25639202869508
 20
19.46574238453066
 30
0.0
 40
0.0082105608022372
 50
207.3808670164865
 51
8.700708120927253
  0
ARC
  5
9E
  8
0
 62
     0
 10
7.180310170694737
 20
19.45409926195153
 30
0.0
 40
0.0851781606100601
 50
8.700708120927496
 51
43.34576084272275
  0
ARC
  5
9F
  8
0
 62
     0
 10
7.30195357296258
 20
19.56891377269395
 30
0.0
 40
0.0820925457085283
 50
187.5365847530839
 51
223.3457608427224
  0
ARC
  5
A0
  8
0
 62
     0
 10
14.76449420682966
 20
21.33401254290212
 30
0.0
 40
7.747384752487846
 50
193.7760462696358
 51
194.0914976092559
  0
ARC
  5
A1
  8
0
 62
     0
 10
7.227715610666527
 20
19.44209354731137
 30
0.0
 40
0.0232258472951475
 50
322.9328166005033
 51
14.09149760925581
  0
ARC
  5
A2
  8
0
 62
     0
 10
7.21412719731479
 20
19.45235815439103
 30
0.0
 40
0.0402554431775344
 50
252.9295081282227
 51
322.9328166005009
  0
ARC
  5
A3
  8
0
 62
     0
 10
7.342450755904736
 20
19.52973964350994
 30
0.0
 40
0.1818342358454604
 50
178.8231463019673
 51
219.5828048581435
  0
ARC
  5
A4
  8
0
 62
     0
 10
6.160854293429246
 20
19.36769320975422
 30
0.0
 40
1.082418102168027
 50
10.33648876284061
 51
19.76798190072449
  0
ARC
  5
A5
  8
0
 62
     0
 10
6.807290606661585
 20
20.45321669917809
 30
0.0
 40
0.9846312159435041
 50
290.7115896883681
 51
295.1472515220152
  0
ARC
  5
A6
  8
0
 62
     0
 10
8.927397096739089
 20
20.45758587633924
 30
0.0
 40
1.998963111646685
 50
202.5981423159303
 51
207.5758896355162
  0
ARC
  5
A7
  8
0
 62
     0
 10
7.48667650473563
 20
20.15420755396433
 30
0.0
 40
0.0464864186555685
 50
189.5202888387041
 51
216.6687322317989
  0
ARC
  5
A8
  8
0
 62
     0
 10
7.352593223366855
 20
20.17742448879363
 30
0.0
 40
0.1093997859912406
 50
313.7732404464324
 51
332.2263763676182
  0
LINE
  5
A9
  8
0
 62
     0
 10
7.429417896601469
 20
20.09842871832439
 30
0.0
 11
7.449389670972941
 21
20.05159311481418
 31
0.0
  0
ARC
  5
AA
  8
0
 62
     0
 10
8.35687425849885
 20
19.71717017971132
 30
0.0
 40
0.9214917814869703
 50
158.9716094037956
 51
176.7814697504969
  0
LINE
  5
AB
  8
0
 62
     0
 10
7.459660869221127
 20
20.04281143915602
 30
0.0
 11
7.496751307339576
 21
20.04782953953211
 31
0.0
  0
LINE
  5
AC
  8
0
 62
     0
 10
7.481344509967297
 20
20.09717419323036
 30
0.0
 11
7.476208910843205
 21
20.04406596425004
 31
0.0
  0
ARC
  5
AD
  8
0
 62
     0
 10
7.973257852042039
 20
19.95031739118278
 30
0.0
 40
0.531382520915868
 50
163.1101544940815
 51
178.9094491061769
  0
ARC
  5
AE
  8
0
 62
     0
 10
-41.18891924109246
 20
20.8861687227836
 30
0.0
 40
48.63970119961624
 50
358.685268941389
 51
358.9094491061769
  0
ARC
  5
AF
  8
0
 62
     0
 10
6.904696883139302
 20
19.76691311602618
 30
0.0
 40
0.5332902376211911
 50
0.3489834297923622
 51
17.65474562747614
  0
ARC
  5
B0
  8
0
 62
     0
 10
7.130278785002631
 20
19.83870921345679
 30
0.0
 40
0.2965585877419636
 50
17.65474562747607
 51
46.5777886290588
  0
LINE
  5
B1
  8
0
 62
     0
 10
7.367220084987457
 20
20.05033858972016
 30
0.0
 11
7.334124001743303
 21
20.05410216500223
 31
0.0
  0
ARC
  5
B2
  8
0
 62
     0
 10
7.035691767840982
 20
20.02639359670428
 30
0.0
 40
0.3159866922552232
 50
4.574119369721537
 51
18.21997514400164
  0
ARC
  5
B3
  8
0
 62
     0
 10
8.481644920284726
 20
20.57869434593232
 30
0.0
 40
1.211237977026366
 50
201.3494339541472
 51
210.762127065466
  0
LINE
  5
B4
  8
0
 62
     0
 10
7.429417896601469
 20
20.09842871832439
 30
0.0
 11
7.397463057607114
 21
20.04908406462614
 31
0.0
  0
ARC
  5
B5
  8
0
 62
     0
 10
7.60304976555445
 20
20.39948992961466
 30
0.0
 40
0.347542628838058
 50
227.0118508668374
 51
240.026541793123
  0
ARC
  5
B6
  8
0
 62
     0
 10
7.208386184838249
 20
19.75943570989048
 30
0.0
 40
0.0386453852924856
 50
146.7659869037017
 51
221.5959052192838
  0
ARC
  5
B7
  8
0
 62
     0
 10
6.542992233138269
 20
20.19542168220649
 30
0.0
 40
0.7568625524524841
 50
326.7659869037014
 51
340.9098534011571
  0
ARC
  5
B8
  8
0
 62
     0
 10
7.216857692190318
 20
19.74695260448217
 30
0.0
 40
0.1466877163395814
 50
156.9220664700022
 51
203.0779335299978
  0
LINE
  5
B9
  8
0
 62
     0
 10
7.20858713426548
 20
20.07961084191404
 30
0.0
 11
7.081909022537857
 21
19.80445167129157
 31
0.0
  0
ARC
  5
BA
  8
0
 62
     0
 10
7.263816834789758
 20
20.04848621741711
 30
0.0
 40
0.0633960729862326
 50
97.12934186229033
 51
150.5966240128105
  0
ARC
  5
BB
  8
0
 62
     0
 10
7.179813098117052
 20
20.72010414157316
 30
0.0
 40
0.6134549178696964
 50
277.1293418622903
 51
283.6347153079475
  0
ARC
  5
BC
  8
0
 62
     0
 10
7.308034305814928
 20
20.19150275103228
 30
0.0
 40
0.0695246758484842
 50
283.6347153079475
 51
321.0253579001695
  0
ARC
  5
BD
  8
0
 62
     0
 10
7.328302175138324
 20
20.17510500104206
 30
0.0
 40
0.0434541420669905
 50
321.0253579001691
 51
15.99895630958201
  0
ARC
  5
BE
  8
0
 62
     0
 10
7.498724575233533
 20
20.27261697979875
 30
0.0
 40
0.0284451783463052
 50
353.6325912662692
 51
31.41567259350857
  0
ARC
  5
BF
  8
0
 62
     0
 10
7.479863126444288
 20
20.26064788151078
 30
0.0
 40
0.0479483025063953
 50
322.4240095501337
 51
10.593033695835
  0
ARC
  5
C0
  8
0
 62
     0
 10
7.618487353595821
 20
20.15398536591336
 30
0.0
 40
0.1269618704022465
 50
142.4240095501342
 51
158.7286576851915
  0
ARC
  5
C1
  8
0
 62
     0
 10
7.349828868938513
 20
20.25857616080223
 30
0.0
 40
0.1613376539710127
 50
323.2267052368817
 51
338.7286576851914
  0
ARC
  5
C2
  8
0
 62
     0
 10
7.450641836635221
 20
20.18323168507064
 30
0.0
 40
0.0354804154859506
 50
222.0182129050963
 51
323.2267052368814
  0
ARC
  5
C3
  8
0
 62
     0
 10
7.542463638883605
 20
20.28928801927897
 30
0.0
 40
0.019550886929931
 50
142.3011362359188
 51
185.4126160628369
  0
ARC
  5
C4
  8
0
 62
     0
 10
7.471161137235196
 20
20.30672699236703
 30
0.0
 40
0.056101758660522
 50
354.3909576871299
 51
27.95344027930604
  0
LINE
  5
C5
  8
0
 62
     0
 10
7.425423541727175
 20
20.31504338455909
 30
0.0
 11
7.433412251475763
 21
20.33051586071871
 31
0.0
  0
LINE
  5
C6
  8
0
 62
     0
 10
7.423141053227578
 20
20.29246193286667
 30
0.0
 11
7.425423541727175
 21
20.31504338455909
 31
0.0
  0
LINE
  5
C7
  8
0
 62
     0
 10
7.416864209853687
 20
20.26193515557877
 30
0.0
 11
7.423141053227578
 21
20.29246193286667
 31
0.0
  0
LINE
  5
C8
  8
0
 62
     0
 10
7.398800249760694
 20
20.2630057134215
 30
0.0
 11
7.416864209853687
 21
20.26193515557877
 31
0.0
  0
ARC
  5
C9
  8
0
 62
     0
 10
7.41223414960238
 20
20.27429780800432
 30
0.0
 40
0.0162919849241144
 50
155.046134092082
 51
222.9856735513104
  0
ARC
  5
CA
  8
0
 62
     0
 10
7.391062924134797
 20
20.28414936673444
 30
0.0
 40
0.0070591177738745
 50
335.0461340920817
 51
88.99925717291923
  0
ARC
  5
CB
  8
0
 62
     0
 10
7.390900743467068
 20
20.27486494062848
 30
0.0
 40
0.0163449602604739
 50
88.99925717291872
 51
185.7552470938274
  0
ARC
  5
CC
  8
0
 62
     0
 10
7.205962026159446
 20
20.25622548261335
 30
0.0
 40
0.1695306932137959
 50
343.3223506456711
 51
5.755247093828216
  0
ARC
  5
CD
  8
0
 62
     0
 10
7.381160657409843
 20
20.20373786071564
 30
0.0
 40
0.013361381093674
 50
163.3223506456713
 51
213.9203585208185
  0
ARC
  5
CE
  8
0
 62
     0
 10
7.364446203454159
 20
20.19249759093169
 30
0.0
 40
0.0067810277953522
 50
259.6311993401644
 51
33.92035852082093
  0
ARC
  5
CF
  8
0
 62
     0
 10
7.36731165507066
 20
20.20815823311845
 30
0.0
 40
0.0227016599017748
 50
207.8978549292398
 51
259.6311993401694
  0
ARC
  5
D0
  8
0
 62
     0
 10
7.447967691207127
 20
20.2508595398875
 30
0.0
 40
0.1139639071074609
 50
182.6319416416225
 51
207.8978549292395
  0
ARC
  5
D1
  8
0
 62
     0
 10
8.134661215981817
 20
20.28242573211448
 30
0.0
 40
0.8013825724484575
 50
177.3680583583777
 51
182.6319416416223
  0
ARC
  5
D2
  8
0
 62
     0
 10
7.362592772344465
 20
20.31791647146905
 30
0.0
 40
0.0284988332997196
 50
144.9589896129155
 51
177.3680583583778
  0
ARC
  5
D3
  8
0
 62
     0
 10
6.862377937348182
 20
20.66870451634909
 30
0.0
 40
0.5824570845708937
 50
324.9589896129169
 51
328.1151512834478
  0
ARC
  5
D4
  8
0
 62
     0
 10
7.383151112139823
 20
20.34474280095915
 30
0.0
 40
0.030858407342495
 50
102.7322999069027
 51
148.1151512834479
  0
ARC
  5
D5
  8
0
 62
     0
 10
7.440721044378424
 20
20.0899546746898
 30
0.0
 40
0.2920695984997638
 50
79.73723950229989
 51
102.7322999069034
  0
ARC
  5
D6
  8
0
 62
     0
 10
7.484604840644291
 20
20.33232696381267
 30
0.0
 40
0.0457565576160864
 50
28.7735450778419
 51
79.73723950229984
  0
ARC
  5
D7
  8
0
 62
     0
 10
7.510578024342397
 20
20.3465902293742
 30
0.0
 40
0.0161246994918608
 50
265.4718383816312
 51
28.77354507784195
  0
ARC
  5
D8
  8
0
 62
     0
 10
7.517540741174654
 20
20.43450744639435
 30
0.0
 40
0.104317196192284
 50
244.246295984008
 51
265.47183838163
  0
ARC
  5
D9
  8
0
 62
     0
 10
7.459223147093416
 20
20.31362253241272
 30
0.0
 40
0.0298994354439273
 50
64.24629598400197
 51
145.5973666299499
  0
ARC
  5
DA
  8
0
 62
     0
 10
7.622646026834218
 20
20.32928878642033
 30
0.0
 40
0.7054687141511125
 50
268.3771898076015
 51
273.5436897357822
  0
ARC
  5
DB
  8
0
 62
     0
 10
7.904751773151446
 20
19.6179599658814
 30
0.0
 40
0.2543605689943663
 50
140.6199455499194
 51
158.2621542960203
  0
ARC
  5
DC
  8
0
 62
     0
 10
7.459102380855774
 20
19.7956464703671
 30
0.0
 40
0.2254059103785145
 50
316.190164614848
 51
338.2621542960208
  0
ARC
  5
DD
  8
0
 62
     0
 10
6.585807200472909
 20
19.59208210730815
 30
0.0
 40
1.390059477527978
 50
10.46328201866007
 51
14.86008438017779
  0
ARC
  5
DE
  8
0
 62
     0
 10
7.817764204992721
 20
19.616952712802
 30
0.0
 40
0.3508770263899264
 50
72.55707005527866
 51
80.31052403519234
  0
ARC
  5
DF
  8
0
 62
     0
 10
6.845641040388515
 20
20.57291927095982
 30
0.0
 40
1.172038378573381
 50
317.3832148292035
 51
320.1957517450314
  0
ARC
  5
E0
  8
0
 62
     0
 10
7.700010113597114
 20
19.86097846650667
 30
0.0
 40
0.0599204791127518
 50
320.1957517450313
 51
59.11817205395525
  0
ARC
  5
E1
  8
0
 62
     0
 10
7.781176984285512
 20
19.88496605000628
 30
0.0
 40
0.1431773369634633
 50
356.5025756063873
 51
28.70928132262056
  0
ARC
  5
E2
  8
0
 62
     0
 10
7.947500852121445
 20
19.81660330124294
 30
0.0
 40
0.064060318101568
 50
111.4375366048635
 51
169.9458953493512
  0
ARC
  5
E3
  8
0
 62
     0
 10
7.842974014211374
 20
19.76199531394353
 30
0.0
 40
0.0777601974442221
 50
57.78806285253191
 51
106.8951249525591
  0
ARC
  5
E4
  8
0
 62
     0
 10
7.683390028267749
 20
19.80195499246909
 30
0.0
 40
0.1412493094459621
 50
14.11413917180534
 51
58.77196902875809
  0
ARC
  5
E5
  8
0
 62
     0
 10
7.751396636635549
 20
19.81242018984867
 30
0.0
 40
0.1038212699244988
 50
102.5188270887173
 51
133.0494680202265
  0
ARC
  5
E6
  8
0
 62
     0
 10
7.929789130297933
 20
19.62144849544613
 30
0.0
 40
0.3651526110569041
 50
133.0494680202265
 51
146.7908430276846
  0
ARC
  5
E7
  8
0
 62
     0
 10
7.538293370354364
 20
19.06091927977893
 30
0.0
 40
0.1917518133078716
 50
359.0214659966114
 51
32.07824686204912
  0
ARC
  5
E8
  8
0
 62
     0
 10
7.26609346332709
 20
19.06556853609443
 30
0.0
 40
0.4639914227880917
 50
353.6129260890021
 51
359.0214659966114
  0
ARC
  5
E9
  8
0
 62
     0
 10
7.598345055568387
 20
19.02837644682976
 30
0.0
 40
0.1296646783437548
 50
337.5762448142216
 51
353.6129260890025
  0
ARC
  5
EA
  8
0
 62
     0
 10
7.768019145710658
 20
18.95835952046479
 30
0.0
 40
0.0538882209610649
 50
157.5762448142212
 51
192.4257222495795
  0
ARC
  5
EB
  8
0
 62
     0
 10
7.069413751731344
 20
18.80443233895596
 30
0.0
 40
0.6614739766033917
 50
2.939784794213045
 51
12.42572224957952
  0
ARC
  5
EC
  8
0
 62
     0
 10
8.197396114140172
 20
18.86235874159851
 30
0.0
 40
0.4679947826053382
 50
182.9397847942132
 51
197.1730753022667
  0
ARC
  5
ED
  8
0
 62
     0
 10
4.739416920063016
 20
19.00867034106135
 30
0.0
 40
3.102583867808889
 50
359.2656336442941
 51
2.43488834835323
  0
ARC
  5
EE
  8
0
 62
     0
 10
7.277339488852346
 20
18.97613972485919
 30
0.0
 40
0.5644528219090297
 50
345.0419909064488
 51
359.2656336442941
  0
ARC
  5
EF
  8
0
 62
     0
 10
8.298656778383776
 20
18.75681639411092
 30
0.0
 40
0.4816522552180566
 50
171.2065197702275
 51
182.0108876624062
  0
ARC
  5
F0
  8
0
 62
     0
 10
7.667246133446803
 20
18.67842408511031
 30
0.0
 40
0.0947933852813163
 50
344.6983956109087
 51
28.86062726121855
  0
ARC
  5
F1
  8
0
 62
     0
 10
7.741415535968445
 20
18.65770530554796
 30
0.0
 40
0.0177903467055529
 50
302.8528219796835
 51
346.0221511958663
  0
ARC
  5
F2
  8
0
 62
     0
 10
7.752786507254452
 20
18.64009668481037
 30
0.0
 40
0.0031706292323071
 50
122.8528219796872
 51
237.0975067797995
  0
ARC
  5
F3
  8
0
 62
     0
 10
7.741907019405625
 20
18.62328116155894
 30
0.0
 40
0.0168574779691237
 50
353.7795121034392
 51
57.09750677980069
  0
ARC
  5
F4
  8
0
 62
     0
 10
7.660482281271452
 20
18.63215617951676
 30
0.0
 40
0.0987644613342217
 50
346.1548570531776
 51
353.7795121034393
  0
ARC
  5
F5
  8
0
 62
     0
 10
7.730171493674211
 20
18.61498063562242
 30
0.0
 40
0.0269899140811469
 50
320.665369352157
 51
346.1548570531768
  0
ARC
  5
F6
  8
0
 62
     0
 10
7.758748417376356
 20
18.59156183661977
 30
0.0
 40
0.0099570846468177
 50
140.6653693521563
 51
256.1548570531797
  0
ARC
  5
F7
  8
0
 62
     0
 10
8.139899992698357
 20
18.71618889838408
 30
0.0
 40
0.3234702062635147
 50
175.7935654134599
 51
191.1962927935929
  0
ARC
  5
F8
  8
0
 62
     0
 10
7.953640795167837
 20
18.67733272730256
 30
0.0
 40
0.1332254883892731
 50
190.3574026693167
 51
196.0739659205505
  0
ARC
  5
F9
  8
0
 62
     0
 10
7.803879692706333
 20
18.63418011420738
 30
0.0
 40
0.0226287249879302
 50
325.6958089972985
 51
16.07396592055104
  0
LINE
  5
FA
  8
0
 62
     0
 10
7.822572311016593
 20
18.62142687088318
 30
0.0
 11
7.830923944963855
 21
18.58186172644793
 31
0.0
  0
ARC
  5
FB
  8
0
 62
     0
 10
7.787139137815144
 20
18.57072989704194
 30
0.0
 40
0.0561913996005862
 50
53.84861926440033
 51
120.4474603387693
  0
ARC
  5
FC
  8
0
 62
     0
 10
8.00234168517648
 20
19.19154479932414
 30
0.0
 40
0.1300653847583891
 50
200.2509998984882
 51
223.4984201309531
  0
ARC
  5
FD
  8
0
 62
     0
 10
7.89053655156517
 20
19.08545154816269
 30
0.0
 40
0.0240649686566648
 50
341.1300831851902
 51
43.49842013095357
  0
ARC
  5
FE
  8
0
 62
     0
 10
7.771151863969541
 20
19.12625604449416
 30
0.0
 40
0.1502303781521798
 50
333.5805156782307
 51
341.1300831852008
  0
ARC
  5
FF
  8
0
 62
     0
 10
8.10598240254557
 20
18.95990277525456
 30
0.0
 40
0.223647810232507
 50
153.5805156782307
 51
165.2577226420957
  0
ARC
  5
100
  8
0
 62
     0
 10
8.078973185009705
 20
18.96700981614433
 30
0.0
 40
0.1957191893910053
 50
165.2577226420955
 51
200.5733413061306
  0
ARC
  5
101
  8
0
 62
     0
 10
7.89153264198454
 20
18.75536967699362
 30
0.0
 40
0.028711100020174
 50
122.9897573771533
 51
174.4331079935837
  0
ARC
  5
102
  8
0
 62
     0
 10
7.94650082042225
 20
18.75001206653432
 30
0.0
 40
0.0839397577133817
 50
174.4331079935836
 51
218.9157092338968
  0
ARC
  5
103
  8
0
 62
     0
 10
7.866257625162941
 20
18.68522763692754
 30
0.0
 40
0.0191911915933108
 50
20.52438211948726
 51
38.91570923389838
  0
ARC
  5
104
  8
0
 62
     0
 10
7.840207732090894
 20
18.67547534387005
 30
0.0
 40
0.0470067294983072
 50
9.936184046114773
 51
20.52438211948751
  0
ARC
  5
105
  8
0
 62
     0
 10
7.841020617329912
 20
18.67561774411278
 30
0.0
 40
0.0461814657580751
 50
350.0141447133783
 51
9.936184046115109
  0
ARC
  5
106
  8
0
 62
     0
 10
7.930200447119281
 20
18.65991563348872
 30
0.0
 40
0.0443701676855643
 50
170.0141447133783
 51
221.8269758479624
  0
ARC
  5
107
  8
0
 62
     0
 10
7.756712507581854
 20
18.50465247250214
 30
0.0
 40
0.1884488915095296
 50
30.89205654320018
 51
41.82697584796236
  0
ARC
  5
108
  8
0
 62
     0
 10
7.934603094783677
 20
18.61108429889934
 30
0.0
 40
0.0188499138060194
 50
210.8920565432001
 51
2.913298344587219
  0
ARC
  5
109
  8
0
 62
     0
 10
8.442602592091719
 20
18.63693665387
 30
0.0
 40
0.4898069779419946
 50
177.037030414906
 51
182.9132983445872
  0
ARC
  5
10A
  8
0
 62
     0
 10
7.922497930592453
 20
18.66385712726789
 30
0.0
 40
0.0309939156836147
 50
357.0370304149055
 51
34.19779125900443
  0
ARC
  5
10B
  8
0
 62
     0
 10
7.968366375149698
 20
18.6950267051865
 30
0.0
 40
0.0244628854657963
 50
162.0127422087968
 51
214.1977912590034
  0
ARC
  5
10C
  8
0
 62
     0
 10
7.90051745398587
 20
18.71705547508211
 30
0.0
 40
0.0468725391576603
 50
342.0127422087968
 51
17.93758655069576
  0
ARC
  5
10D
  8
0
 62
     0
 10
8.347834754221585
 20
19.33289102935287
 30
0.0
 40
0.377573304055633
 50
200.0949508502564
 51
208.9897205504389
  0
ARC
  5
10E
  8
0
 62
     0
 10
7.940735495746026
 20
19.10732769530176
 30
0.0
 40
0.087839011982096
 50
330.9606082090542
 51
28.98972055043895
  0
ARC
  5
10F
  8
0
 62
     0
 10
8.093900700772538
 20
19.02228912425862
 30
0.0
 40
0.08734985351989
 50
150.9606082090544
 51
175.1346944221444
  0
ARC
  5
110
  8
0
 62
     0
 10
7.731758188072128
 20
19.05311480032577
 30
0.0
 40
0.27610223659649
 50
338.0306388298469
 51
355.1346944221446
  0
ARC
  5
111
  8
0
 62
     0
 10
8.336089295060715
 20
18.80932502054638
 30
0.0
 40
0.3755491607003609
 50
158.030638829847
 51
176.7848044225653
  0
ARC
  5
112
  8
0
 62
     0
 10
7.653608576393692
 20
18.87427422375695
 30
0.0
 40
0.2433102495610867
 50
337.8386066881823
 51
5.651053969308121
  0
ARC
  5
113
  8
0
 62
     0
 10
7.923203618763706
 20
18.77659130971146
 30
0.0
 40
0.0443529058838879
 50
176.3041393659693
 51
296.266054341564
  0
ARC
  5
114
  8
0
 62
     0
 10
-1.358233548238774
 20
20.28922345638039
 30
0.0
 40
9.432855405375674
 50
350.4946916926155
 51
351.1032303861257
  0
ARC
  5
115
  8
0
 62
     0
 10
7.67223825603952
 20
18.74037748951767
 30
0.0
 40
0.4235248156144371
 50
73.73635420542172
 51
97.02546789153901
  0
ARC
  5
116
  8
0
 62
     0
 10
7.836332189465242
 20
19.30285958305692
 30
0.0
 40
0.1624042965991706
 50
253.7363542054218
 51
300.4640072518751
  0
ARC
  5
117
  8
0
 62
     0
 10
7.828447886911466
 20
19.3162637205361
 30
0.0
 40
0.1779552814014359
 50
300.4640072518752
 51
318.2876428345774
  0
ARC
  5
118
  8
0
 62
     0
 10
7.983715695283671
 20
19.17786506798999
 30
0.0
 40
0.0300405823634171
 50
47.79565692716715
 51
138.2876428345784
  0
ARC
  5
119
  8
0
 62
     0
 10
7.850842948521713
 20
19.51012371757642
 30
0.0
 40
0.0855172634798005
 50
349.0066055736302
 51
45.06943753278541
  0
ARC
  5
11A
  8
0
 62
     0
 10
10.71729172495982
 20
19.9935419628873
 30
0.0
 40
2.827019092268731
 50
190.1815513311778
 51
196.2994526406679
  0
ARC
  5
11B
  8
0
 62
     0
 10
7.992912018015755
 20
19.19690583666476
 30
0.0
 40
0.0114442076898047
 50
319.4613619648056
 51
16.29945264066796
  0
ARC
  5
11C
  8
0
 62
     0
 10
8.857464813702242
 20
19.21610491783881
 30
0.0
 40
1.23826722957044
 50
163.8773352915865
 51
182.563454445521
  0
ARC
  5
11D
  8
0
 62
     0
 10
8.428649222637082
 20
19.37448314224472
 30
0.0
 40
0.9202122439368741
 50
150.9408549164907
 51
159.8691718324386
  0
ARC
  5
11E
  8
0
 62
     0
 10
5.348777812320681
 20
20.5034354518966
 30
0.0
 40
2.360053175438916
 50
337.9708144325643
 51
339.8691718324389
  0
ARC
  5
11F
  8
0
 62
     0
 10
7.597785880597542
 20
19.59344432044823
 30
0.0
 40
0.0660797868055443
 50
157.9708144325647
 51
185.6813912518877
  0
ARC
  5
120
  8
0
 62
     0
 10
7.540056697716043
 20
19.58770111765383
 30
0.0
 40
0.0080656253059305
 50
185.6813912518893
 51
293.5547671053013
  0
ARC
  5
121
  8
0
 62
     0
 10
7.549263075824985
 20
19.56658312223287
 30
0.0
 40
0.0149718903692523
 50
46.3823841645689
 51
113.554767105301
  0
ARC
  5
122
  8
0
 62
     0
 10
7.609397707689345
 20
19.62969184270038
 30
0.0
 40
0.0721996907137375
 50
226.3823841645691
 51
245.8335332818338
  0
ARC
  5
123
  8
0
 62
     0
 10
7.485689044108378
 20
19.35399614811217
 30
0.0
 40
0.2299789807034635
 50
62.08986386697639
 51
65.8335332818275
  0
ARC
  5
124
  8
0
 62
     0
 10
7.612309601239332
 20
19.59303849583404
 30
0.0
 40
0.0405279683616892
 50
242.0898638669763
 51
279.8063316698185
  0
ARC
  5
125
  8
0
 62
     0
 10
7.753761603759978
 20
18.7746579574147
 30
0.0
 40
0.7899871577381447
 50
95.23769054431095
 51
99.80633166981848
  0
ARC
  5
126
  8
0
 62
     0
 10
7.751718399164337
 20
18.79694654425991
 30
0.0
 40
0.7676051160847123
 50
92.50227212475342
 51
95.23769054431087
  0
ARC
  5
127
  8
0
 62
     0
 10
7.72264303501392
 20
19.46227641378906
 30
0.0
 40
0.1016402430710162
 50
63.3298488907772
 51
92.5022721247533
  0
ARC
  5
128
  8
0
 62
     0
 10
7.793155880239505
 20
19.6026577448527
 30
0.0
 40
0.0554552038808485
 50
243.3298488907776
 51
278.0142351134309
  0
ARC
  5
129
  8
0
 62
     0
 10
7.948880483408663
 20
18.49661358494748
 30
0.0
 40
1.061497720683393
 50
95.56811726483055
 51
98.01423511343089
  0
ARC
  5
12A
  8
0
 62
     0
 10
7.84425978016626
 20
19.56976663851847
 30
0.0
 40
0.016742961138464
 50
275.5681172648342
 51
334.5930424521763
  0
ARC
  5
12B
  8
0
 62
     0
 10
7.793664110954088
 20
19.59379875824288
 30
0.0
 40
0.0727560356967786
 50
334.5930424521761
 51
19.62053660473202
  0
ARC
  5
12C
  8
0
 62
     0
 10
7.855868336241029
 20
19.61597381271174
 30
0.0
 40
0.006717420597385
 50
19.62053660472256
 51
108.3028605440749
  0
ARC
  5
12D
  8
0
 62
     0
 10
7.847571719481598
 20
19.64105626354019
 30
0.0
 40
0.0197015723662804
 50
251.6971394559236
 51
288.3028605440734
  0
ARC
  5
12E
  8
0
 62
     0
 10
7.827323097434235
 20
19.57984033883579
 30
0.0
 40
0.0447763008324514
 50
71.69713945592315
 51
108.3028605440759
  0
ARC
  5
12F
  8
0
 62
     0
 10
7.739058991642416
 20
19.65498026056728
 30
0.0
 40
0.0431711010813656
 50
242.8072752164593
 51
315.6919560450698
  0
ARC
  5
130
  8
0
 62
     0
 10
7.79544107976597
 20
19.59994382943689
 30
0.0
 40
0.0356194352332338
 50
74.72578091546558
 51
135.6919560450704
  0
ARC
  5
131
  8
0
 62
     0
 10
7.801805273082605
 20
19.62324859706173
 30
0.0
 40
0.011461307188635
 50
1.696853882918772
 51
74.72578091546357
  0
ARC
  5
132
  8
0
 62
     0
 10
7.715850683830697
 20
19.98184852268259
 30
0.0
 40
0.0693134037085366
 50
280.8450883128625
 51
347.2354126193231
  0
ARC
  5
133
  8
0
 62
     0
 10
7.707157930113835
 20
19.98381781863752
 30
0.0
 40
0.0782264331452712
 50
347.2354126193231
 51
17.50026201669266
  0
ARC
  5
134
  8
0
 62
     0
 10
8.230127366426442
 20
19.8733141246417
 30
0.0
 40
0.2788653966706905
 50
185.9257105798326
 51
200.582882724524
  0
ARC
  5
135
  8
0
 62
     0
 10
7.951922420695251
 20
19.76883860676397
 30
0.0
 40
0.018309847360698
 50
311.2764527024959
 51
20.58288272452353
  0
ARC
  5
136
  8
0
 62
     0
 10
7.995175080733521
 20
19.71956431028302
 30
0.0
 40
0.0472549975951083
 50
131.2764527024963
 51
163.1882455421018
  0
ARC
  5
137
  8
0
 62
     0
 10
7.90820553143068
 20
19.74584143505375
 30
0.0
 40
0.0435975741470054
 50
302.108216229129
 51
343.1882455421014
  0
ARC
  5
138
  8
0
 62
     0
 10
7.939021475711701
 20
19.69673225596217
 30
0.0
 40
0.0143794376161102
 50
122.1082162291305
 51
202.6793638889388
  0
ARC
  5
139
  8
0
 62
     0
 10
7.910593464843062
 20
19.88860500753747
 30
0.0
 40
0.0642870481590551
 50
4.434416431111785
 51
78.92592305272932
  0
ARC
  5
13A
  8
0
 62
     0
 10
10.38289220469739
 20
20.08033195021174
 30
0.0
 40
2.415434766809815
 50
184.4344164311119
 51
187.5118637566725
  0
ARC
  5
13B
  8
0
 62
     0
 10
8.401653107983071
 20
19.81907951444918
 30
0.0
 40
0.4170451167312241
 50
187.5118637566726
 51
198.9922532345444
  0
ARC
  5
13C
  8
0
 62
     0
 10
6.933677498331358
 20
19.31383697809412
 30
0.0
 40
1.135443985025956
 50
12.50546632449948
 51
18.9922532345444
  0
ARC
  5
13D
  8
0
 62
     0
 10
7.78183952687786
 20
19.50195487093871
 30
0.0
 40
0.2666706151092643
 50
355.8415731799849
 51
12.5054663244995
  0
ARC
  5
13E
  8
0
 62
     0
 10
7.357475125019652
 20
19.52510058657542
 30
0.0
 40
0.5963441053318089
 50
4.914187007695068
 51
17.28780806809578
  0
ARC
  5
13F
  8
0
 62
     0
 10
8.162053632909911
 20
19.59427798674599
 30
0.0
 40
0.2112028518498004
 50
184.9141870076951
 51
214.5915267807447
  0
ARC
  5
140
  8
0
 62
     0
 10
7.423896963428612
 20
19.70394573516209
 30
0.0
 40
0.5020520162153709
 50
344.7704928917976
 51
358.402707814046
  0
ARC
  5
141
  8
0
 62
     0
 10
7.894097583780788
 20
19.57593499106703
 30
0.0
 40
0.0147375653898896
 50
261.8416928049785
 51
344.7704928917991
  0
ARC
  5
142
  8
0
 62
     0
 10
7.897985985174698
 20
19.99461751483951
 30
0.0
 40
0.0381945145052595
 50
177.0293105758261
 51
236.3464310017875
  0
ARC
  5
143
  8
0
 62
     0
 10
7.848754261771683
 20
20.05823102153215
 30
0.0
 40
0.0626235941540491
 50
237.9982185647147
 51
296.2272997425555
  0
ARC
  5
144
  8
0
 62
     0
 10
7.887038440686936
 20
20.14986109639491
 30
0.0
 40
0.0292864037363628
 50
319.9068994414193
 51
24.07114652911059
  0
ARC
  5
145
  8
0
 62
     0
 10
7.913332279956411
 20
20.1277250386577
 30
0.0
 40
0.0050846747406606
 50
139.9068994414175
 51
257.7660525872766
  0
ARC
  5
146
  8
0
 62
     0
 10
7.809457613436342
 20
20.0881024905967
 30
0.0
 40
0.10959724087623
 50
310.5836762001717
 51
15.50337617873789
  0
ARC
  5
147
  8
0
 62
     0
 10
7.82553332588328
 20
20.29129490042521
 30
0.0
 40
0.1364966335967152
 50
260.7955873884887
 51
292.069675404743
  0
ARC
  5
148
  8
0
 62
     0
 10
7.893139393331287
 20
20.12454811101418
 30
0.0
 40
0.043434109009074
 50
53.45179279376852
 51
112.0696754047422
  0
ARC
  5
149
  8
0
 62
     0
 10
7.777340888763337
 20
20.07451510137758
 30
0.0
 40
0.0685532044500086
 50
170.2958346163567
 51
273.699089221215
  0
ARC
  5
14A
  8
0
 62
     0
 10
7.389548195321203
 20
20.14083073687977
 30
0.0
 40
0.3248688800841012
 50
350.2958346163567
 51
358.2658811739508
  0
ARC
  5
14B
  8
0
 62
     0
 10
7.847688904821815
 20
20.12696037657085
 30
0.0
 40
0.1334817461801422
 50
134.7954561915477
 51
178.2658811739508
  0
ARC
  5
14C
  8
0
 62
     0
 10
7.799913557405452
 20
20.17507806000615
 30
0.0
 40
0.0656747017088311
 50
86.6950649641559
 51
134.7954561915474
  0
ARC
  5
14D
  8
0
 62
     0
 10
7.815240734284229
 20
20.44050184432267
 30
0.0
 40
0.2001912563075644
 50
266.6950649641559
 51
277.1793352972939
  0
ARC
  5
14E
  8
0
 62
     0
 10
7.846949109613423
 20
20.18877409606992
 30
0.0
 40
0.0535256731757032
 50
52.36689492829544
 51
97.17933529729382
  0
ARC
  5
14F
  8
0
 62
     0
 10
7.804106825878421
 20
20.13320870028031
 30
0.0
 40
0.1236895847320469
 50
32.59297271592853
 51
52.36689492829555
  0
ARC
  5
150
  8
0
 62
     0
 10
7.368415402901702
 20
19.85464769762861
 30
0.0
 40
0.6408194023347401
 50
29.36852908092674
 51
32.59297271592846
  0
ARC
  5
151
  8
0
 62
     0
 10
7.904246218421605
 20
20.15618520355177
 30
0.0
 40
0.0259702091669528
 50
339.4648547538728
 51
29.36852908092686
  0
ARC
  5
152
  8
0
 62
     0
 10
7.979145998470655
 20
20.12812894529421
 30
0.0
 40
0.0540118555651524
 50
159.4648547538726
 51
194.6024910390945
  0
ARC
  5
153
  8
0
 62
     0
 10
7.895366677795371
 20
20.10630217720525
 30
0.0
 40
0.0325640208555992
 50
324.3159361547918
 51
14.60249103909376
  0
ARC
  5
154
  8
0
 62
     0
 10
7.898727108838782
 20
20.11013210732405
 30
0.0
 40
0.1057608960176598
 50
153.9631228661194
 51
210.5389381060746
  0
ARC
  5
155
  8
0
 62
     0
 10
7.778844867064944
 20
20.0394062859527
 30
0.0
 40
0.0334292390543797
 50
275.009085283537
 51
30.53893810607517
  0
ARC
  5
156
  8
0
 62
     0
 10
8.279079894532893
 20
19.49277907483425
 30
0.0
 40
0.231494937974833
 50
182.5158635478003
 51
202.7589223659896
  0
ARC
  5
157
  8
0
 62
     0
 10
7.849715186551595
 20
19.4108292040849
 30
0.0
 40
0.1523560293863507
 50
356.0027610326157
 51
24.65021629539753
  0
ARC
  5
158
  8
0
 62
     0
 10
8.034598623441807
 20
19.39790984766477
 30
0.0
 40
0.0329782497059084
 50
176.0027610326155
 51
227.5503866995803
  0
ARC
  5
159
  8
0
 62
     0
 10
8.447749289451403
 20
19.53817292001241
 30
0.0
 40
0.4052682716753594
 50
199.4501228360401
 51
205.5049735319011
  0
ARC
  5
15A
  8
0
 62
     0
 10
8.072483262072955
 20
19.35914021931438
 30
0.0
 40
0.010516888261396
 50
304.1518862344177
 51
25.50497353190297
  0
ARC
  5
15B
  8
0
 62
     0
 10
7.941594040054943
 20
19.55208618707091
 30
0.0
 40
0.2436694883197753
 50
295.9391962092289
 51
304.1518862344177
  0
ARC
  5
15C
  8
0
 62
     0
 10
8.037767416251167
 20
19.35436928282958
 30
0.0
 40
0.0238029549142754
 50
267.4803604692294
 51
295.9391962092218
  0
ARC
  5
15D
  8
0
 62
     0
 10
8.064219738374495
 20
19.95549863748705
 30
0.0
 40
0.6255140370596998
 50
264.9940493872242
 51
267.4803604692295
  0
ARC
  5
15E
  8
0
 62
     0
 10
8.010031647655046
 20
19.33686593306848
 30
0.0
 40
0.0045126102078343
 50
95.0059506127712
 51
264.9940493872195
  0
ARC
  5
15F
  8
0
 62
     0
 10
8.028137219668231
 20
19.13016555239697
 30
0.0
 40
0.2120044392220687
 50
87.99255558527302
 51
95.00595061277117
  0
ARC
  5
160
  8
0
 62
     0
 10
8.036090948290301
 20
19.35708520740698
 30
0.0
 40
0.0150545655076616
 50
267.9925555852752
 51
286.2709168497754
  0
ARC
  5
161
  8
0
 62
     0
 10
7.930707690530062
 20
19.4372374234462
 30
0.0
 40
0.1443964206969461
 50
319.3787732373937
 51
326.5508264347492
  0
ARC
  5
162
  8
0
 62
     0
 10
7.958497007728088
 20
19.31292841935872
 30
0.0
 40
0.079779513668541
 50
26.12836575893956
 51
47.9296506700711
  0
ARC
  5
163
  8
0
 62
     0
 10
8.035047459651
 20
19.35047710395857
 30
0.0
 40
0.0054840506762681
 50
206.1283657589452
 51
49.99601621958197
  0
ARC
  5
164
  8
0
 62
     0
 10
7.942983705765547
 20
19.32516444302691
 30
0.0
 40
0.1000416126005182
 50
17.15823665716929
 51
34.08236786850235
  0
ARC
  5
165
  8
0
 62
     0
 10
8.015499521859343
 20
19.40094863641399
 30
0.0
 40
0.0296083521323899
 50
299.5988858554024
 51
339.9767679864173
  0
ARC
  5
166
  8
0
 62
     0
 10
8.318715692757507
 20
19.65390385124827
 30
0.0
 40
0.3999497686454158
 50
224.173786584388
 51
227.7941738571297
  0
ENDSEC
  0
EOF
