  0
SECTION
  2
HEADER
  9
$ACADVER
  1
AC1009
  9
$DWGCODEPAGE
  3
ansi_1252
  9
$INSBASE
 10
9.880601227350468
 20
9.421276318347433
 30
0.0
  9
$EXTMIN
 10
10.4795838222834
 20
9.4199249974451
 30
-0.0000000349181948
  9
$EXTMAX
 10
12.36557011767938
 20
10.60583042550812
 30
0.0000000814935746
  9
$LIMMIN
 10
0.0
 20
0.0
  9
$LIMMAX
 10
30.0
 20
25.65
  9
$ORTHOMODE
 70
     0
  9
$REGENMODE
 70
     1
  9
$FILLMODE
 70
     1
  9
$QTEXTMODE
 70
     0
  9
$MIRRTEXT
 70
     0
  9
$DRAGMODE
 70
     2
  9
$LTSCALE
 40
0.4
  9
$OSMODE
 70
    37
  9
$ATTMODE
 70
     1
  9
$TEXTSIZE
 40
0.2
  9
$TRACEWID
 40
0.05
  9
$TEXTSTYLE
  7
STANDARD
  9
$CLAYER
  8
PERSONA
  9
$CELTYPE
  6
BYLAYER
  9
$CECOLOR
 62
   256
  9
$DIMSCALE
 40
1.0
  9
$DIMASZ
 40
0.07
  9
$DIMEXO
 40
0.1
  9
$DIMDLI
 40
0.0
  9
$DIMRND
 40
0.0
  9
$DIMDLE
 40
0.0
  9
$DIMEXE
 40
0.1
  9
$DIMTP
 40
0.0
  9
$DIMTM
 40
0.0
  9
$DIMTXT
 40
0.1
  9
$DIMCEN
 40
0.2
  9
$DIMTSZ
 40
0.0
  9
$DIMTOL
 70
     0
  9
$DIMLIM
 70
     0
  9
$DIMTIH
 70
     0
  9
$DIMTOH
 70
     1
  9
$DIMSE1
 70
     1
  9
$DIMSE2
 70
     1
  9
$DIMTAD
 70
     1
  9
$DIMZIN
 70
     0
  9
$DIMBLK
  1

  9
$DIMASO
 70
     1
  9
$DIMSHO
 70
     0
  9
$DIMPOST
  1

  9
$DIMAPOST
  1

  9
$DIMALT
 70
     0
  9
$DIMALTD
 70
     2
  9
$DIMALTF
 40
25.4
  9
$DIMLFAC
 40
1.0
  9
$DIMTOFL
 70
     0
  9
$DIMTVP
 40
0.0
  9
$DIMTIX
 70
     1
  9
$DIMSOXD
 70
     0
  9
$DIMSAH
 70
     0
  9
$DIMBLK1
  1

  9
$DIMBLK2
  1

  9
$DIMSTYLE
  2
STANDARD
  9
$DIMCLRD
 70
     0
  9
$DIMCLRE
 70
     0
  9
$DIMCLRT
 70
     0
  9
$DIMTFAC
 40
1.0
  9
$DIMGAP
 40
0.09
  9
$LUNITS
 70
     2
  9
$LUPREC
 70
     3
  9
$SKETCHINC
 40
0.01
  9
$FILLETRAD
 40
0.0
  9
$AUNITS
 70
     0
  9
$AUPREC
 70
     2
  9
$MENU
  1
ARQ11-I9
  9
$ELEVATION
 40
0.0
  9
$PELEVATION
 40
0.0
  9
$THICKNESS
 40
0.0
  9
$LIMCHECK
 70
     0
  9
$CHAMFERA
 40
0.0
  9
$CHAMFERB
 40
0.0
  9
$SKPOLY
 70
     1
  9
$TDCREATE
 40
2448683.773836343
  9
$TDUPDATE
 40
2457483.532951389
  9
$TDINDWG
 40
0.0040388657
  9
$TDUSRTIMER
 40
0.0040388657
  9
$USRTIMER
 70
     1
  9
$ANGBASE
 50
0.0
  9
$ANGDIR
 70
     0
  9
$PDMODE
 70
     1
  9
$PDSIZE
 40
0.1
  9
$PLINEWID
 40
0.0
  9
$COORDS
 70
     1
  9
$SPLFRAME
 70
     0
  9
$SPLINETYPE
 70
     6
  9
$SPLINESEGS
 70
     8
  9
$ATTDIA
 70
     0
  9
$ATTREQ
 70
     1
  9
$HANDLING
 70
     1
  9
$HANDSEED
  5
175
  9
$SURFTAB1
 70
     6
  9
$SURFTAB2
 70
     6
  9
$SURFTYPE
 70
     6
  9
$SURFU
 70
     6
  9
$SURFV
 70
     6
  9
$UCSNAME
  2

  9
$UCSORG
 10
0.0
 20
0.0
 30
0.0
  9
$UCSXDIR
 10
1.0
 20
0.0
 30
0.0
  9
$UCSYDIR
 10
0.0
 20
1.0
 30
0.0
  9
$PUCSNAME
  2

  9
$PUCSORG
 10
0.0
 20
0.0
 30
0.0
  9
$PUCSXDIR
 10
1.0
 20
0.0
 30
0.0
  9
$PUCSYDIR
 10
0.0
 20
1.0
 30
0.0
  9
$USERI1
 70
     0
  9
$USERI2
 70
     0
  9
$USERI3
 70
     0
  9
$USERI4
 70
     0
  9
$USERI5
 70
     0
  9
$USERR1
 40
0.0
  9
$USERR2
 40
0.0
  9
$USERR3
 40
0.0
  9
$USERR4
 40
0.0
  9
$USERR5
 40
0.0
  9
$WORLDVIEW
 70
     1
  9
$SHADEDGE
 70
     3
  9
$SHADEDIF
 70
    70
  9
$TILEMODE
 70
     1
  9
$MAXACTVP
 70
    16
  9
$PLIMCHECK
 70
     0
  9
$PEXTMIN
 10
1.000000000000000E+20
 20
1.000000000000000E+20
 30
1.000000000000000E+20
  9
$PEXTMAX
 10
-1.000000000000000E+20
 20
-1.000000000000000E+20
 30
-1.000000000000000E+20
  9
$PLIMMIN
 10
0.0
 20
0.0
  9
$PLIMMAX
 10
12.0
 20
9.0
  9
$UNITMODE
 70
     0
  9
$VISRETAIN
 70
     0
  9
$PLINEGEN
 70
     0
  9
$PSLTSCALE
 70
     0
  0
ENDSEC
  0
SECTION
  2
TABLES
  0
TABLE
  2
VPORT
 70
     1
  0
VPORT
  2
*ACTIVE
 70
     0
 10
0.0
 20
0.0
 11
1.0
 21
1.0
 12
11.42257696998139
 22
10.01287771147661
 13
0.0
 23
0.0
 14
0.025
 24
0.025
 15
0.0
 25
0.0
 16
0.0
 26
0.0
 36
1.0
 17
0.0
 27
0.0
 37
0.0
 40
1.391995489523136
 41
1.365217391304348
 42
50.0
 43
0.0
 44
0.0
 50
0.0
 51
0.0
 71
     0
 72
   600
 73
     1
 74
     1
 75
     0
 76
     0
 77
     0
 78
     0
  0
ENDTAB
  0
TABLE
  2
LTYPE
 70
     1
  0
LTYPE
  2
CONTINUOUS
 70
     0
  3
Solid line
 72
    65
 73
     0
 40
0.0
  0
ENDTAB
  0
TABLE
  2
LAYER
 70
     3
  0
LAYER
  2
0
 70
     0
 62
     7
  6
CONTINUOUS
  0
LAYER
  2
MUEBLES
 70
     0
 62
     2
  6
CONTINUOUS
  0
LAYER
  2
PERSONA
 70
     0
 62
    31
  6
CONTINUOUS
  0
ENDTAB
  0
TABLE
  2
STYLE
 70
     1
  0
STYLE
  2
STANDARD
 70
     0
 40
0.0
 41
1.0
 50
0.0
 71
     0
 42
0.2
  3
TXT
  4

  0
ENDTAB
  0
TABLE
  2
VIEW
 70
     0
  0
ENDTAB
  0
TABLE
  2
UCS
 70
     0
  0
ENDTAB
  0
TABLE
  2
APPID
 70
     1
  0
APPID
  2
ACAD
 70
     0
  0
ENDTAB
  0
TABLE
  2
DIMSTYLE
 70
     1
  0
DIMSTYLE
  2
STANDARD
 70
     0
  3

  4

  5

  6

  7

 40
1.0
 41
0.18
 42
0.0625
 43
0.38
 44
0.18
 45
0.0
 46
0.0
 47
0.0
 48
0.0
140
0.18
141
0.09
142
0.0
143
25.4
144
1.0
145
0.0
146
1.0
147
0.09
 71
     0
 72
     0
 73
     1
 74
     1
 75
     0
 76
     0
 77
     0
 78
     0
170
     0
171
     2
172
     0
173
     0
174
     0
175
     0
176
     0
177
     0
178
     0
  0
ENDTAB
  0
ENDSEC
  0
SECTION
  2
BLOCKS
  0
BLOCK
  8
0
  2
$MODEL_SPACE
 70
     0
 10
0.0
 20
0.0
 30
0.0
  3
$MODEL_SPACE
  1

  0
ENDBLK
  5
64
  8
0
  0
BLOCK
 67
     1
  8
0
  2
$PAPER_SPACE
 70
     0
 10
0.0
 20
0.0
 30
0.0
  3
$PAPER_SPACE
  1

  0
ENDBLK
  5
62
 67
     1
  8
0
  0
ENDSEC
  0
SECTION
  2
ENTITIES
  0
POLYLINE
  5
68
  8
0
 62
     0
 66
     1
 10
0.0
 20
0.0
 30
0.0
  0
VERTEX
  5
160
  8
0
 62
     0
 10
12.28076663603109
 20
9.788213819326637
 30
0.0
  0
VERTEX
  5
161
  8
0
 62
     0
 10
12.28076663603109
 20
9.421819620966698
 30
0.0
  0
VERTEX
  5
162
  8
0
 62
     0
 10
12.33067658331759
 20
9.421819620966698
 30
0.0
  0
VERTEX
  5
163
  8
0
 62
     0
 10
12.33067658331759
 20
9.789213932147149
 30
0.0
  0
SEQEND
  5
171
  8
0
 62
     0
  0
POLYLINE
  5
6E
  8
0
 62
     0
 66
     1
 10
0.0
 20
0.0
 30
0.0
  0
VERTEX
  5
164
  8
0
 62
     0
 10
11.49122566425607
 20
9.78821381932664
 30
0.0
  0
VERTEX
  5
165
  8
0
 62
     0
 10
11.49122566425607
 20
9.4218196209667
 30
0.0
  0
VERTEX
  5
166
  8
0
 62
     0
 10
11.54113561154258
 20
9.4218196209667
 30
0.0
  0
VERTEX
  5
167
  8
0
 62
     0
 10
11.54113561154258
 20
9.78921393214715
 30
0.0
  0
SEQEND
  5
172
  8
0
 62
     0
  0
POLYLINE
  5
74
  8
0
 62
     0
 66
     1
 10
0.0
 20
0.0
 30
0.0
  0
VERTEX
  5
168
  8
0
 62
     0
 10
11.63925920718732
 20
9.989947404470989
 30
0.0
  0
VERTEX
  5
169
  8
0
 62
     0
 10
12.36402613450779
 20
9.989947404470987
 30
0.0
  0
VERTEX
  5
16A
  8
0
 62
     0
 10
12.36402613450779
 20
9.789094739649645
 30
0.0
  0
VERTEX
  5
16B
  8
0
 62
     0
 10
11.46402613450779
 20
9.789094739649647
 30
0.0
  0
VERTEX
  5
16C
  8
0
 62
     0
 10
11.46402613450779
 20
9.967541196763095
 30
0.0
  0
SEQEND
  5
173
  8
0
 62
     0
  0
ARC
  5
7B
  8
0
 62
     0
 10
11.66592823720885
 20
9.959112038740312
 30
0.0
 40
0.137595289168581
 50
81.00271909214867
 51
96.71558953214458
  0
ARC
  5
7C
  8
0
 62
     0
 10
11.46000617485779
 20
10.0552585234513
 30
0.0
 40
0.1933052245877481
 50
12.09526556477299
 51
32.71177154556622
  0
ARC
  5
7D
  8
0
 62
     0
 10
11.55841703106242
 20
10.26198072509636
 30
0.0
 40
0.1184956395631867
 50
301.8904977502032
 51
330.2393214061506
  0
ARC
  5
7E
  8
0
 62
     0
 10
11.59840980259735
 20
10.10920899748658
 30
0.0
 40
0.0544494595661702
 50
153.4930662070421
 51
216.4102230372586
  0
ARC
  5
7F
  8
0
 62
     0
 10
11.52504265870743
 20
10.24325848039548
 30
0.0
 40
0.2761479828326089
 50
259.863906599874
 51
286.9143389674761
  0
LINE
  5
80
  8
0
 62
     0
 10
11.20095994054647
 20
9.535113222315246
 30
0.0
 11
11.26177189614988
 21
9.579156407289888
 31
0.0
  0
ARC
  5
81
  8
0
 62
     0
 10
11.20867715930416
 20
9.578371223173605
 30
0.0
 40
0.0668160396911205
 50
306.6391150035208
 51
4.079768599262085
  0
LINE
  5
82
  8
0
 62
     0
 10
11.35965356782997
 20
9.590467803614844
 30
0.0
 11
11.37686824863348
 21
9.627435597365876
 31
0.0
  0
LINE
  5
83
  8
0
 62
     0
 10
11.32602203153879
 20
9.542723705748557
 30
0.0
 11
11.35965356782997
 21
9.590467803614844
 31
0.0
  0
LINE
  5
84
  8
0
 62
     0
 10
11.28540428605894
 20
9.52499941331676
 30
0.0
 11
11.32602203153879
 21
9.542723705748557
 31
0.0
  0
LINE
  5
85
  8
0
 62
     0
 10
11.24855115492427
 20
9.524757347793324
 30
0.0
 11
11.28540428605894
 21
9.52499941331676
 31
0.0
  0
LINE
  5
86
  8
0
 62
     0
 10
11.43406210323484
 20
9.631690712903282
 30
0.0
 11
11.40679887203302
 21
9.647999275919943
 31
0.0
  0
LINE
  5
87
  8
0
 62
     0
 10
11.4517226942131
 20
9.600771159827294
 30
0.0
 11
11.43406210323484
 21
9.631690712903282
 31
0.0
  0
LINE
  5
88
  8
0
 62
     0
 10
11.451901058283
 20
9.573616221096488
 30
0.0
 11
11.4517226942131
 21
9.600771159827294
 31
0.0
  0
LINE
  5
89
  8
0
 62
     0
 10
11.39111458326101
 20
9.5256937591603
 30
0.0
 11
11.451901058283
 21
9.573616221096488
 31
0.0
  0
LINE
  5
8A
  8
0
 62
     0
 10
11.37067830761402
 20
9.53622799775212
 30
0.0
 11
11.39111458326101
 21
9.5256937591603
 31
0.0
  0
LINE
  5
8B
  8
0
 62
     0
 10
11.28580560521621
 20
9.463900801172443
 30
0.0
 11
11.37067830761402
 21
9.53622799775212
 31
0.0
  0
ARC
  5
8C
  8
0
 62
     0
 10
11.18011910298843
 20
9.72700316919512
 30
0.0
 40
0.283535699361268
 50
279.0698610322287
 51
291.8850058495262
  0
ARC
  5
8D
  8
0
 62
     0
 10
11.17139416899106
 20
9.7816588352888
 30
0.0
 40
0.3388833850346759
 50
269.8540430867017
 51
279.0698610322287
  0
ARC
  5
8E
  8
0
 62
     0
 10
11.17058429571796
 20
9.463741587890619
 30
0.0
 40
0.0209651060887272
 50
109.8232718883312
 51
269.8540430867017
  0
ARC
  5
8F
  8
0
 62
     0
 10
11.21380862054749
 20
9.343834240964714
 30
0.0
 40
0.1484253512782689
 50
99.00188560650332
 51
109.8232718883323
  0
ARC
  5
90
  8
0
 62
     0
 10
11.17628759517347
 20
9.580682223279775
 30
0.0
 40
0.0913762210098077
 50
279.0018856065033
 51
322.2636592795395
  0
ARC
  5
91
  8
0
 62
     0
 10
11.17835470118597
 20
9.580548213270255
 30
0.0
 40
0.050747761030682
 50
225.3763352794955
 51
296.4516908634395
  0
LINE
  5
92
  8
0
 62
     0
 10
11.04824448233913
 20
9.455551380878113
 30
0.0
 11
11.15007550257965
 21
9.45622024614024
 31
0.0
  0
ARC
  5
93
  8
0
 62
     0
 10
11.04706753605308
 20
9.477850455127552
 30
0.0
 40
0.0223301122913038
 50
87.73139977310602
 51
273.0212707858773
  0
LINE
  5
94
  8
0
 62
     0
 10
11.14270708466978
 20
9.544429205997888
 30
0.0
 11
11.04795145565286
 21
9.500163065935869
 31
0.0
  0
ARC
  5
95
  8
0
 62
     0
 10
11.14392017812784
 20
9.57554733338271
 30
0.0
 40
0.0311417637213444
 50
267.7675405327455
 51
18.37723347027072
  0
ARC
  5
96
  8
0
 62
     0
 10
10.87418198662889
 20
9.75380360151394
 30
0.0
 40
0.0826540248042922
 50
117.2604844617802
 51
151.3893974266825
  0
ARC
  5
97
  8
0
 62
     0
 10
9.792140155007198
 20
10.945047306371
 30
0.0
 40
1.569259207062391
 50
313.0160400359894
 51
319.3974843942391
  0
ARC
  5
98
  8
0
 62
     0
 10
11.28032340867636
 20
9.663652878002557
 30
0.0
 40
0.4731902514999171
 50
133.6901789263754
 51
159.7699483880941
  0
ARC
  5
99
  8
0
 62
     0
 10
11.28341928916307
 20
9.93600329256008
 30
0.0
 40
0.2468507349691116
 50
53.3524170919738
 51
82.63998336308926
  0
ARC
  5
9A
  8
0
 62
     0
 10
11.31935449951145
 20
10.14603675685665
 30
0.0
 40
0.035049765409588
 50
97.06796966571967
 51
134.611391017008
  0
ARC
  5
9B
  8
0
 62
     0
 10
11.2384985121084
 20
10.22799706372805
 30
0.0
 40
0.0800813885035749
 50
249.5200178928584
 51
314.6113910170021
  0
ARC
  5
9C
  8
0
 62
     0
 10
11.22369846393813
 20
10.18837033660084
 30
0.0
 40
0.0377810465586614
 50
176.5544781094713
 51
249.5200178928581
  0
ARC
  5
9D
  8
0
 62
     0
 10
11.89788166379165
 20
9.450796286717496
 30
0.0
 40
1.011774629791149
 50
137.1378158221927
 51
149.673845325253
  0
ARC
  5
9E
  8
0
 62
     0
 10
10.96068933387262
 20
9.999021319160658
 30
0.0
 40
0.0739878439830918
 50
303.4171038895445
 51
329.673845325253
  0
ARC
  5
9F
  8
0
 62
     0
 10
11.09710866523416
 20
9.792264871761379
 30
0.0
 40
0.173718559870948
 50
123.4171038895443
 51
130.8037354282071
  0
ARC
  5
A0
  8
0
 62
     0
 10
10.75530754651868
 20
10.18107113633931
 30
0.0
 40
0.2645414349500034
 50
318.5084545223604
 51
326.7506052620719
  0
ARC
  5
A1
  8
0
 62
     0
 10
9.042591330470202
 20
11.3039512225506
 30
0.0
 40
2.312529844273964
 50
326.7506052620719
 51
331.474601908156
  0
ARC
  5
A2
  8
0
 62
     0
 10
10.92139263272782
 20
10.46084433565448
 30
0.0
 40
0.1014387433430332
 50
163.3603811941513
 51
182.5759089360734
  0
ARC
  5
A3
  8
0
 62
     0
 10
10.85170328675718
 20
10.45751011114645
 30
0.0
 40
0.0316705887491027
 50
182.2162347707923
 51
277.1701658399774
  0
ARC
  5
A4
  8
0
 62
     0
 10
10.98750589512548
 20
10.48636677139813
 30
0.0
 40
0.1179233689682712
 50
68.07261947201671
 51
97.15655994803949
  0
ARC
  5
A5
  8
0
 62
     0
 10
10.98384759074171
 20
10.43487123067866
 30
0.0
 40
0.1688610227000063
 50
93.74614674102023
 51
160.9840605922503
  0
ARC
  5
A6
  8
0
 62
     0
 10
11.20581038155685
 20
10.5685320646906
 30
0.0
 40
0.9793783097618183
 50
265.7187095071708
 51
271.8516805094236
  0
ARC
  5
A7
  8
0
 62
     0
 10
9.55480769819778
 20
9.586254869882522
 30
0.0
 40
1.577899107340668
 50
0.204498349803961
 51
10.10455931578633
  0
ARC
  5
A8
  8
0
 62
     0
 10
12.07225315543848
 20
10.09395544638669
 30
0.0
 40
0.7956913070406585
 50
196.7519303141261
 51
213.7490480731119
  0
ARC
  5
A9
  8
0
 62
     0
 10
11.24215256234146
 20
9.85694873929615
 30
0.0
 40
0.0686067242073314
 50
6.415340306156434
 51
72.81206447962967
  0
ARC
  5
AA
  8
0
 62
     0
 10
10.91090664738134
 20
10.34762609884124
 30
0.0
 40
0.0602281438532955
 50
87.04176891309189
 51
117.2223288838426
  0
ARC
  5
AB
  8
0
 62
     0
 10
11.23705202436133
 20
10.92124289222937
 30
0.0
 40
0.3849335855747882
 50
237.7317432180695
 51
239.7955777988894
  0
ARC
  5
AC
  8
0
 62
     0
 10
11.31424876634902
 20
10.79578319058035
 30
0.0
 40
0.3408326621906646
 50
217.6011237217371
 51
225.1928796515151
  0
ARC
  5
AD
  8
0
 62
     0
 10
11.09206312009455
 20
10.57209656092368
 30
0.0
 40
0.0255515658834513
 50
225.1928796515151
 51
265.3668744112218
  0
ARC
  5
AE
  8
0
 62
     0
 10
10.99163731840981
 20
9.332883958591873
 30
0.0
 40
1.217723631095077
 50
81.11443580444362
 51
85.36687441122452
  0
ARC
  5
AF
  8
0
 62
     0
 10
11.08194687558426
 20
10.38935661202961
 30
0.0
 40
0.0510741717098777
 50
8.08501483624604
 51
90.59713933828517
  0
ARC
  5
B0
  8
0
 62
     0
 10
11.07966640312713
 20
10.60816101479337
 30
0.0
 40
0.1677421147576393
 50
231.4496109124426
 51
270.5971393382846
  0
ARC
  5
B1
  8
0
 62
     0
 10
11.1357551221751
 20
10.41878028852998
 30
0.0
 40
0.0563332503741295
 50
40.95725697759366
 51
103.6112749176745
  0
ARC
  5
B2
  8
0
 62
     0
 10
11.07813533443663
 20
10.65674704176302
 30
0.0
 40
0.1885099965886916
 50
248.9041412048117
 51
283.6112749176743
  0
ARC
  5
B3
  8
0
 62
     0
 10
11.18995053193798
 20
10.46533834389967
 30
0.0
 40
0.0302957570368187
 50
356.7964632236851
 51
94.2599634856301
  0
ARC
  5
B4
  8
0
 62
     0
 10
11.1490027863928
 20
11.01506330949614
 30
0.0
 40
0.5209521505921108
 50
262.9080441791804
 51
274.2599634856293
  0
ARC
  5
B5
  8
0
 62
     0
 10
11.19504721536882
 20
10.4352856859251
 30
0.0
 40
0.0716755284665136
 50
23.30757503172577
 51
101.8391813266941
  0
ARC
  5
B6
  8
0
 62
     0
 10
11.11493442253041
 20
10.8174582179115
 30
0.0
 40
0.3188035411150311
 50
257.0328012750392
 51
281.8391813266952
  0
ARC
  5
B7
  8
0
 62
     0
 10
11.32288503532995
 20
10.3510453899563
 30
0.0
 40
0.1910544124328998
 50
150.981838184772
 51
170.3083541814181
  0
ARC
  5
B8
  8
0
 62
     0
 10
11.10089188310941
 20
10.38895806109616
 30
0.0
 40
0.0341528926568102
 50
196.4021517891263
 51
350.3083541814181
  0
ARC
  5
B9
  8
0
 62
     0
 10
10.74761400564897
 20
7.566875634943202
 30
0.0
 40
2.866493714846477
 50
83.19348170028691
 51
84.56998876104835
  0
ARC
  5
BA
  8
0
 62
     0
 10
11.08412026497871
 20
10.38617381602132
 30
0.0
 40
0.0271841691296851
 50
356.589549519759
 51
83.19348170028691
  0
ARC
  5
BB
  8
0
 62
     0
 10
11.08930174802995
 20
10.38586503078185
 30
0.0
 40
0.0219934933611244
 50
195.7010068005135
 51
356.5895495197599
  0
ARC
  5
BC
  8
0
 62
     0
 10
10.94990953923348
 20
10.39562076591693
 30
0.0
 40
0.1115579176513229
 50
289.0769134977904
 51
342.1035936260867
  0
ARC
  5
BD
  8
0
 62
     0
 10
10.9800345556297
 20
10.30851140953851
 30
0.0
 40
0.0193865740485798
 50
250.9230865022126
 51
289.0769134977906
  0
ARC
  5
BE
  8
0
 62
     0
 10
10.97636839297294
 20
10.29791035076367
 30
0.0
 40
0.0081694801391251
 50
192.2203772824325
 51
250.923086502211
  0
ARC
  5
BF
  8
0
 62
     0
 10
10.95525573126241
 20
10.29333777138943
 30
0.0
 40
0.0134326717591685
 50
12.22037728243134
 51
64.56069142097085
  0
ARC
  5
C0
  8
0
 62
     0
 10
10.95775547598497
 20
10.29859291368106
 30
0.0
 40
0.0076132865525301
 50
64.56069142096528
 51
115.4393085790373
  0
ARC
  5
C1
  8
0
 62
     0
 10
10.95374299076947
 20
10.3070282473214
 30
0.0
 40
0.0017277461113925
 50
138.8911445484116
 51
295.4393085790408
  0
ARC
  5
C2
  8
0
 62
     0
 10
10.94704704672251
 20
10.31287131432853
 30
0.0
 40
0.0071591599154407
 50
318.8911445483972
 51
48.1016381704661
  0
ARC
  5
C3
  8
0
 62
     0
 10
10.95017966502024
 20
10.3163628753026
 30
0.0
 40
0.0024682862830597
 50
48.10163817047007
 51
99.22281785389166
  0
ARC
  5
C4
  8
0
 62
     0
 10
10.81595219109163
 20
11.14302224155898
 30
0.0
 40
0.8350176673762539
 50
278.6265532812506
 51
279.2228178538767
  0
ARC
  5
C5
  8
0
 62
     0
 10
10.94031930612183
 20
10.32325272875891
 30
0.0
 40
0.005867962306415
 50
178.144615392235
 51
278.6265532812506
  0
ARC
  5
C6
  8
0
 62
     0
 10
10.91278621975725
 20
10.31702978433483
 30
0.0
 40
0.0224964361959659
 50
20.11323677498893
 51
70.63943378399435
  0
ARC
  5
C7
  8
0
 62
     0
 10
10.51129749864971
 20
9.253687915547902
 30
0.0
 40
1.100835337263313
 50
54.13742291113322
 51
59.23511259589139
  0
ARC
  5
C8
  8
0
 62
     0
 10
9.826419832181722
 20
9.07437191589891
 30
0.0
 40
1.505031151791967
 50
19.59211060485758
 51
32.69921520280263
  0
ARC
  5
C9
  8
0
 62
     0
 10
11.16363883017804
 20
9.989515268424142
 30
0.0
 40
0.4183266454000898
 50
281.1194366775118
 51
306.1911322774765
  0
ARC
  5
CA
  8
0
 62
     0
 10
11.19967444521412
 20
9.952306687439306
 30
0.0
 40
0.0613912992668032
 50
249.5554424261791
 51
323.295237717871
  0
ARC
  5
CB
  8
0
 62
     0
 10
11.17787201653441
 20
9.930134416642668
 30
0.0
 40
0.0950704773245488
 50
177.1324587139479
 51
206.6894531523234
  0
ARC
  5
CC
  8
0
 62
     0
 10
11.19473533712219
 20
9.929289735179802
 30
0.0
 40
0.111954939650017
 50
125.400500731253
 51
177.1324587139476
  0
ARC
  5
CD
  8
0
 62
     0
 10
11.50023301157949
 20
9.499420702676227
 30
0.0
 40
0.6393221875943459
 50
98.95498880043301
 51
125.400500731253
  0
ARC
  5
CE
  8
0
 62
     0
 10
11.42649126010821
 20
9.967386861527709
 30
0.0
 40
0.1655815710748609
 50
55.94568350913778
 51
98.95498880043269
  0
ARC
  5
CF
  8
0
 62
     0
 10
11.15960071797561
 20
10.14707056330579
 30
0.0
 40
0.0036058411212534
 50
200.092951075704
 51
340.6597194832603
  0
ARC
  5
D0
  8
0
 62
     0
 10
11.2854174526469
 20
10.10291084480587
 30
0.0
 40
0.1297355682808422
 50
105.5117309904355
 51
160.6597194832701
  0
ARC
  5
D1
  8
0
 62
     0
 10
11.38296669552673
 20
10.34186842370704
 30
0.0
 40
0.2140002054271103
 50
287.7460406277542
 51
334.7040593983847
  0
ARC
  5
D2
  8
0
 62
     0
 10
11.56485481444086
 20
10.2559060694626
 30
0.0
 40
0.012821642579655
 50
334.7040593983848
 51
68.5496221748702
  0
ARC
  5
D3
  8
0
 62
     0
 10
11.7044618972083
 20
10.61122141938007
 30
0.0
 40
0.3689363114249837
 50
232.7132857902315
 51
248.5496221748663
  0
ARC
  5
D4
  8
0
 62
     0
 10
14.25380632346343
 20
13.95932459196919
 30
0.0
 40
4.577136860113158
 50
230.2008666343847
 51
232.7132857902316
  0
ARC
  5
D5
  8
0
 62
     0
 10
11.24528745283588
 20
10.02979397923155
 30
0.0
 40
0.1098943977052379
 50
252.3550963569489
 51
282.5758985496968
  0
ARC
  5
D6
  8
0
 62
     0
 10
9.36440691525367
 20
18.46102754601059
 30
0.0
 40
8.748378700766574
 50
282.5758985496968
 51
283.9703902846232
  0
ARC
  5
D7
  8
0
 62
     0
 10
11.53398582701362
 20
10.1181618763876
 30
0.0
 40
0.1563593662408609
 50
297.1704374674278
 51
33.07199568543908
  0
ARC
  5
D8
  8
0
 62
     0
 10
11.33316701488373
 20
9.727636402984524
 30
0.0
 40
0.5801330953489047
 50
55.10903796987474
 51
65.20908467433905
  0
ARC
  5
D9
  8
0
 62
     0
 10
10.38331876526998
 20
10.42952174938346
 30
0.0
 40
0.7283160718257541
 50
341.5981014256786
 51
351.5104598618398
  0
ARC
  5
DA
  8
0
 62
     0
 10
11.06726091041875
 20
10.32743355607748
 30
0.0
 40
0.0367968333925926
 50
351.5104598618397
 51
108.0396214071345
  0
ARC
  5
DB
  8
0
 62
     0
 10
10.93828544326274
 20
10.2965337709406
 30
0.0
 40
0.0468529327303566
 50
107.6183533173503
 51
126.2644195957885
  0
ARC
  5
DC
  8
0
 62
     0
 10
10.90651550778549
 20
10.33983963621321
 30
0.0
 40
0.0068567197283783
 50
194.5220379193885
 51
306.264419595789
  0
ARC
  5
DD
  8
0
 62
     0
 10
10.91908609478365
 20
10.34309577003321
 30
0.0
 40
0.0198421756284189
 50
166.2306326395936
 51
194.5220379193915
  0
ARC
  5
DE
  8
0
 62
     0
 10
10.8617093233473
 20
10.35715633442509
 30
0.0
 40
0.0392322974668012
 50
346.2306326395939
 51
63.59749487254388
  0
ARC
  5
DF
  8
0
 62
     0
 10
10.88598172003881
 20
10.40604739296842
 30
0.0
 40
0.0153523601453659
 50
207.1551756864521
 51
243.5974948725336
  0
ARC
  5
E0
  8
0
 62
     0
 10
10.97574826456931
 20
10.45209239011082
 30
0.0
 40
0.1162392982433654
 50
192.9051429886352
 51
207.1551756864511
  0
ARC
  5
E1
  8
0
 62
     0
 10
11.2387208632529
 20
10.27303565329028
 30
0.0
 40
0.1899232698120222
 50
63.32268448278218
 51
115.4314987356857
  0
ARC
  5
E2
  8
0
 62
     0
 10
11.01039751781577
 20
10.50631154387089
 30
0.0
 40
0.0860785561555869
 50
242.7958789492433
 51
272.8991761914377
  0
ARC
  5
E3
  8
0
 62
     0
 10
10.99254916267691
 20
10.47158854415632
 30
0.0
 40
0.0470369054432896
 50
168.4631183988856
 51
242.795878949243
  0
ARC
  5
E4
  8
0
 62
     0
 10
11.22059110435328
 20
10.478353703196
 30
0.0
 40
0.0449759856887438
 50
339.6407620577383
 51
67.03945462095082
  0
ARC
  5
E5
  8
0
 62
     0
 10
11.15024083843169
 20
10.31230103625774
 30
0.0
 40
0.2253163530848107
 50
67.03945462095042
 51
102.2920296630333
  0
ARC
  5
E6
  8
0
 62
     0
 10
10.83877201994289
 20
10.5603020492321
 30
0.0
 40
0.1352727132293712
 50
277.1701658399765
 51
318.282256279145
  0
LINE
  5
ED
  8
0
 62
     0
 10
10.93439653678604
 20
9.567114001395911
 30
0.0
 11
10.47977426813239
 21
9.567114001395911
 31
0.0
  0
LINE
  5
EE
  8
0
 62
     0
 10
10.93439653678604
 20
9.794185476698656
 30
0.0
 11
10.47977426813239
 21
9.794185476698656
 31
0.0
  0
POLYLINE
  5
EF
  8
0
 62
     0
 66
     1
 10
0.0
 20
0.0
 30
0.0
 70
     1
  0
VERTEX
  5
16D
  8
0
 62
     0
 10
10.93439653678604
 20
9.807833017662949
 30
0.0
  0
VERTEX
  5
16E
  8
0
 62
     0
 10
10.93439653678604
 20
9.556579762804091
 30
0.0
  0
VERTEX
  5
16F
  8
0
 62
     0
 10
10.95643171891678
 20
9.556579762804091
 30
0.0
  0
VERTEX
  5
170
  8
0
 62
     0
 10
10.95643171891678
 20
9.808145154785274
 30
0.0
  0
SEQEND
  5
174
  8
0
 62
     0
  0
ENDSEC
  0
EOF
