  0
SECTION
  2
HEADER
  9
$ACADVER
  1
AC1009
  9
$DWGCODEPAGE
  3
ansi_1252
  9
$INSBASE
 10
26.43352782050601
 20
277.9011214007043
 30
0.0
  9
$EXTMIN
 10
-14.05863630462882
 20
277.4881177662392
 30
0.0
  9
$EXTMAX
 10
86.15053792527603
 20
461.2640143823373
 30
0.0
  9
$LIMMIN
 10
0.0
 20
0.0
  9
$LIMMAX
 10
420.0
 20
297.0
  9
$ORTHOMODE
 70
     0
  9
$REGENMODE
 70
     1
  9
$FILLMODE
 70
     1
  9
$QTEXTMODE
 70
     0
  9
$MIRRTEXT
 70
     0
  9
$DRAGMODE
 70
     2
  9
$LTSCALE
 40
1.0
  9
$OSMODE
 70
    37
  9
$ATTMODE
 70
     1
  9
$TEXTSIZE
 40
2.5
  9
$TRACEWID
 40
1.0
  9
$TEXTSTYLE
  7
STANDARD
  9
$CLAYER
  8
Z_MAN-L
  9
$CELTYPE
  6
BYLAYER
  9
$CECOLOR
 62
   256
  9
$DIMSCALE
 40
1.0
  9
$DIMASZ
 40
2.5
  9
$DIMEXO
 40
0.625
  9
$DIMDLI
 40
3.75
  9
$DIMRND
 40
0.0
  9
$DIMDLE
 40
0.0
  9
$DIMEXE
 40
1.25
  9
$DIMTP
 40
0.0
  9
$DIMTM
 40
0.0
  9
$DIMTXT
 40
2.5
  9
$DIMCEN
 40
2.5
  9
$DIMTSZ
 40
0.0
  9
$DIMTOL
 70
     0
  9
$DIMLIM
 70
     0
  9
$DIMTIH
 70
     1
  9
$DIMTOH
 70
     0
  9
$DIMSE1
 70
     0
  9
$DIMSE2
 70
     0
  9
$DIMTAD
 70
     1
  9
$DIMZIN
 70
     8
  9
$DIMBLK
  1

  9
$DIMASO
 70
     1
  9
$DIMSHO
 70
     1
  9
$DIMPOST
  1

  9
$DIMAPOST
  1

  9
$DIMALT
 70
     0
  9
$DIMALTD
 70
     2
  9
$DIMALTF
 40
0.0394
  9
$DIMLFAC
 40
1.0
  9
$DIMTOFL
 70
     1
  9
$DIMTVP
 40
1.0
  9
$DIMTIX
 70
     0
  9
$DIMSOXD
 70
     0
  9
$DIMSAH
 70
     0
  9
$DIMBLK1
  1

  9
$DIMBLK2
  1

  9
$DIMSTYLE
  2
ISO-25
  9
$DIMCLRD
 70
     0
  9
$DIMCLRE
 70
     0
  9
$DIMCLRT
 70
     0
  9
$DIMTFAC
 40
1.0
  9
$DIMGAP
 40
0.625
  9
$LUNITS
 70
     2
  9
$LUPREC
 70
     4
  9
$SKETCHINC
 40
1.0
  9
$FILLETRAD
 40
0.0
  9
$AUNITS
 70
     0
  9
$AUPREC
 70
     0
  9
$MENU
  1
ACAD13
  9
$ELEVATION
 40
0.0
  9
$PELEVATION
 40
0.0
  9
$THICKNESS
 40
0.0
  9
$LIMCHECK
 70
     0
  9
$CHAMFERA
 40
10.0
  9
$CHAMFERB
 40
10.0
  9
$SKPOLY
 70
     0
  9
$TDCREATE
 40
2450140.669728588
  9
$TDUPDATE
 40
2457483.532974537
  9
$TDINDWG
 40
0.4286591435
  9
$TDUSRTIMER
 40
0.4286591435
  9
$USRTIMER
 70
     1
  9
$ANGBASE
 50
0.0
  9
$ANGDIR
 70
     0
  9
$PDMODE
 70
     0
  9
$PDSIZE
 40
0.0
  9
$PLINEWID
 40
0.0
  9
$COORDS
 70
     1
  9
$SPLFRAME
 70
     0
  9
$SPLINETYPE
 70
     6
  9
$SPLINESEGS
 70
     8
  9
$ATTDIA
 70
     0
  9
$ATTREQ
 70
     1
  9
$HANDLING
 70
     1
  9
$HANDSEED
  5
2DB
  9
$SURFTAB1
 70
     6
  9
$SURFTAB2
 70
     6
  9
$SURFTYPE
 70
     6
  9
$SURFU
 70
     6
  9
$SURFV
 70
     6
  9
$UCSNAME
  2

  9
$UCSORG
 10
0.0
 20
0.0
 30
0.0
  9
$UCSXDIR
 10
1.0
 20
0.0
 30
0.0
  9
$UCSYDIR
 10
0.0
 20
1.0
 30
0.0
  9
$PUCSNAME
  2

  9
$PUCSORG
 10
0.0
 20
0.0
 30
0.0
  9
$PUCSXDIR
 10
1.0
 20
0.0
 30
0.0
  9
$PUCSYDIR
 10
0.0
 20
1.0
 30
0.0
  9
$USERI1
 70
     0
  9
$USERI2
 70
     0
  9
$USERI3
 70
     0
  9
$USERI4
 70
     0
  9
$USERI5
 70
     0
  9
$USERR1
 40
0.0
  9
$USERR2
 40
0.0
  9
$USERR3
 40
0.0
  9
$USERR4
 40
0.0
  9
$USERR5
 40
0.0
  9
$WORLDVIEW
 70
     1
  9
$SHADEDGE
 70
     1
  9
$SHADEDIF
 70
    70
  9
$TILEMODE
 70
     1
  9
$MAXACTVP
 70
    16
  9
$PLIMCHECK
 70
     0
  9
$PEXTMIN
 10
1.000000000000000E+20
 20
1.000000000000000E+20
 30
1.000000000000000E+20
  9
$PEXTMAX
 10
-1.000000000000000E+20
 20
-1.000000000000000E+20
 30
-1.000000000000000E+20
  9
$PLIMMIN
 10
0.0
 20
0.0
  9
$PLIMMAX
 10
420.0
 20
297.0
  9
$UNITMODE
 70
     0
  9
$VISRETAIN
 70
     0
  9
$PLINEGEN
 70
     1
  9
$PSLTSCALE
 70
     1
  0
ENDSEC
  0
SECTION
  2
TABLES
  0
TABLE
  2
VPORT
 70
     1
  0
VPORT
  2
*ACTIVE
 70
     0
 10
0.0
 20
0.0
 11
1.0
 21
1.0
 12
36.04595081032362
 22
370.8704599005318
 13
0.0
 23
0.0
 14
10.0
 24
10.0
 15
10.0
 25
10.0
 16
0.0
 26
0.0
 36
1.0
 17
0.0
 27
0.0
 37
0.0
 40
188.3744001513541
 41
1.503537735849057
 42
50.0
 43
0.0
 44
0.0
 50
0.0
 51
0.0
 71
     0
 72
   100
 73
     1
 74
     1
 75
     0
 76
     0
 77
     0
 78
     0
  0
ENDTAB
  0
TABLE
  2
LTYPE
 70
     1
  0
LTYPE
  2
CONTINUOUS
 70
     0
  3
Solid line
 72
    65
 73
     0
 40
0.0
  0
ENDTAB
  0
TABLE
  2
LAYER
 70
     2
  0
LAYER
  2
0
 70
     0
 62
     7
  6
CONTINUOUS
  0
LAYER
  2
Z_MAN-L
 70
     0
 62
     7
  6
CONTINUOUS
  0
ENDTAB
  0
TABLE
  2
STYLE
 70
     1
  0
STYLE
  2
STANDARD
 70
     0
 40
0.0
 41
0.7
 50
0.0
 71
     0
 42
2.5
  3
sim
  4

  0
ENDTAB
  0
TABLE
  2
VIEW
 70
     0
  0
ENDTAB
  0
TABLE
  2
UCS
 70
     0
  0
ENDTAB
  0
TABLE
  2
APPID
 70
     2
  0
APPID
  2
ACAD
 70
     0
  0
APPID
  2
DCO15
 70
     0
  0
ENDTAB
  0
TABLE
  2
DIMSTYLE
 70
     1
  0
DIMSTYLE
  2
ISO-25
 70
     0
  3

  4

  5

  6

  7

 40
1.0
 41
2.5
 42
0.625
 43
3.75
 44
1.25
 45
0.0
 46
0.0
 47
0.0
 48
0.0
140
2.5
141
2.5
142
0.0
143
0.0394
144
1.0
145
1.0
146
1.0
147
0.625
 71
     0
 72
     0
 73
     1
 74
     0
 75
     0
 76
     0
 77
     1
 78
     8
170
     0
171
     2
172
     1
173
     0
174
     0
175
     0
176
     0
177
     0
178
     0
  0
ENDTAB
  0
ENDSEC
  0
SECTION
  2
BLOCKS
  0
BLOCK
  8
0
  2
$MODEL_SPACE
 70
     0
 10
0.0
 20
0.0
 30
0.0
  3
$MODEL_SPACE
  1

  0
ENDBLK
  5
6
  8
0
  0
BLOCK
 67
     1
  8
0
  2
$PAPER_SPACE
 70
     0
 10
0.0
 20
0.0
 30
0.0
  3
$PAPER_SPACE
  1

  0
ENDBLK
  5
9
 67
     1
  8
0
  0
BLOCK
  8
0
  2
*U0
 70
     1
 10
0.0
 20
0.0
 30
0.0
  3
*U0
  1

  0
SOLID
  5
130
  8
Z_MAN-L
 10
-13.45496595061645
 20
405.5377705098107
 30
0.0
 11
-14.05863630462882
 21
405.7389486276807
 31
0.0
 12
-13.45496595061645
 22
409.6619150078477
 32
0.0
 13
-13.45496595061645
 23
409.6619150078477
 33
0.0
  0
SOLID
  5
131
  8
Z_MAN-L
 10
-13.15313160989928
 20
396.6859522783776
 30
0.0
 11
-13.45496595061645
 21
399.1000821416965
 31
0.0
 12
-13.15313160989928
 22
405.437181729576
 32
0.0
 13
-13.15313160989928
 23
405.437181729576
 33
0.0
  0
SOLID
  5
132
  8
Z_MAN-L
 10
-13.45496595061645
 20
405.5377705098107
 30
0.0
 11
-13.45496595061645
 21
409.6619150078477
 31
0.0
 12
-13.15313160989928
 22
405.437181729576
 32
0.0
 13
-13.15313160989928
 23
405.437181729576
 33
0.0
  0
SOLID
  5
133
  8
Z_MAN-L
 10
-13.15313160989928
 20
405.437181729576
 30
0.0
 11
-13.45496595061645
 21
409.6619150078477
 31
0.0
 12
-13.15313160989928
 22
410.7935380923315
 32
0.0
 13
-13.15313160989928
 23
410.7935380923315
 33
0.0
  0
SOLID
  5
134
  8
Z_MAN-L
 10
-13.15313160989928
 20
396.6859522783776
 30
0.0
 11
-13.15313160989928
 21
410.7935380923315
 31
0.0
 12
-12.85129643289319
 22
394.271815726257
 32
0.0
 13
-12.85129643289319
 23
394.271815726257
 33
0.0
  0
SOLID
  5
135
  8
Z_MAN-L
 10
-12.85129643289319
 20
394.271815726257
 30
0.0
 11
-13.15313160989928
 21
410.7935380923315
 31
0.0
 12
-12.85129643289319
 22
411.9251643121904
 32
0.0
 13
-12.85129643289319
 23
411.9251643121904
 33
0.0
  0
SOLID
  5
136
  8
Z_MAN-L
 10
-12.85129643289319
 20
394.271815726257
 30
0.0
 11
-12.85129643289319
 21
411.9251643121904
 31
0.0
 12
-11.04028704343447
 22
389.357328900273
 32
0.0
 13
-11.04028704343447
 23
389.357328900273
 33
0.0
  0
SOLID
  5
137
  8
Z_MAN-L
 10
-11.04028704343447
 20
389.357328900273
 30
0.0
 11
-12.85129643289319
 21
411.9251643121904
 31
0.0
 12
-11.04028704343447
 22
418.7149153605933
 32
0.0
 13
-11.04028704343447
 23
418.7149153605933
 33
0.0
  0
SOLID
  5
138
  8
Z_MAN-L
 10
-11.04028704343447
 20
389.357328900273
 30
0.0
 11
-11.04028704343447
 21
418.7149153605933
 31
0.0
 12
-10.73845270271748
 22
388.5382492755525
 32
0.0
 13
-10.73845270271748
 23
388.5382492755525
 33
0.0
  0
SOLID
  5
139
  8
Z_MAN-L
 10
-10.73845270271748
 20
388.5382492755525
 30
0.0
 11
-11.04028704343447
 21
418.7149153605933
 31
0.0
 12
-10.73845270271748
 22
419.5104807760489
 32
0.0
 13
-10.73845270271748
 23
419.5104807760489
 33
0.0
  0
SOLID
  5
13A
  8
Z_MAN-L
 10
-10.73845270271748
 20
388.5382492755525
 30
0.0
 11
-10.73845270271748
 21
419.5104807760489
 31
0.0
 12
-7.720104277812403
 22
383.6002495806525
 32
0.0
 13
-7.720104277812403
 23
383.6002495806525
 33
0.0
  0
SOLID
  5
13B
  8
Z_MAN-L
 10
-7.720104277812403
 20
383.6002495806525
 30
0.0
 11
-10.73845270271748
 21
419.5104807760489
 31
0.0
 12
-7.720104277812403
 22
427.4661481561925
 32
0.0
 13
-7.720104277812403
 23
427.4661481561925
 33
0.0
  0
SOLID
  5
13C
  8
Z_MAN-L
 10
-7.720104277812403
 20
383.6002495806525
 30
0.0
 11
-7.720104277812403
 21
427.4661481561925
 31
0.0
 12
-7.418269100805954
 22
383.1064490638964
 32
0.0
 13
-7.418269100805954
 23
383.1064490638964
 33
0.0
  0
SOLID
  5
13D
  8
Z_MAN-L
 10
-7.418269100805954
 20
383.1064490638964
 30
0.0
 11
-7.720104277812403
 21
427.4661481561925
 31
0.0
 12
-7.418269100805954
 22
427.7679151074157
 32
0.0
 13
-7.418269100805954
 23
427.7679151074157
 33
0.0
  0
SOLID
  5
13E
  8
Z_MAN-L
 10
-7.418269100805954
 20
383.1064490638964
 30
0.0
 11
-7.418269100805954
 21
427.7679151074157
 31
0.0
 12
-4.701755016618055
 22
379.6663085580333
 32
0.0
 13
-4.701755016618055
 23
379.6663085580333
 33
0.0
  0
SOLID
  5
13F
  8
Z_MAN-L
 10
-4.701755016618055
 20
379.6663085580333
 30
0.0
 11
-7.418269100805954
 21
427.7679151074157
 31
0.0
 12
-4.701755016618055
 22
430.4838151601216
 32
0.0
 13
-4.701755016618055
 23
430.4838151601216
 33
0.0
  0
SOLID
  5
140
  8
Z_MAN-L
 10
-4.701755016618055
 20
379.6663085580333
 30
0.0
 11
-4.701755016618055
 21
430.4838151601216
 31
0.0
 12
-3.494415981171702
 22
378.1373579281342
 32
0.0
 13
-3.494415981171702
 23
378.1373579281342
 33
0.0
  0
SOLID
  5
141
  8
Z_MAN-L
 10
-3.494415981171702
 20
378.1373579281342
 30
0.0
 11
-4.701755016618055
 21
430.4838151601216
 31
0.0
 12
-3.494415981171702
 22
430.6968267259828
 32
0.0
 13
-3.494415981171702
 23
430.6968267259828
 33
0.0
  0
SOLID
  5
142
  8
Z_MAN-L
 10
-2.890746463448437
 20
330.4179906071146
 30
0.0
 11
-3.494415981171702
 21
331.5043503484485
 31
0.0
 12
-2.890746463448437
 22
335.6083755985687
 32
0.0
 13
-2.890746463448437
 23
335.6083755985687
 33
0.0
  0
SOLID
  5
143
  8
Z_MAN-L
 10
-3.494415981171702
 20
378.1373579281342
 30
0.0
 11
-3.494415981171702
 21
430.6968267259828
 31
0.0
 12
-2.890746463448437
 22
377.3728826131846
 32
0.0
 13
-2.890746463448437
 23
377.3728826131846
 33
0.0
  0
SOLID
  5
144
  8
Z_MAN-L
 10
-2.890746463448437
 20
377.3728826131846
 30
0.0
 11
-3.494415981171702
 21
430.6968267259828
 31
0.0
 12
-2.890746463448437
 22
430.8033325089135
 32
0.0
 13
-2.890746463448437
 23
430.8033325089135
 33
0.0
  0
SOLID
  5
145
  8
Z_MAN-L
 10
-2.890746463448437
 20
330.4179906071146
 30
0.0
 11
-2.890746463448437
 21
335.6083755985687
 31
0.0
 12
-1.985241768719256
 22
328.7884502426241
 32
0.0
 13
-1.985241768719256
 23
328.7884502426241
 33
0.0
  0
SOLID
  5
146
  8
Z_MAN-L
 10
-1.985241768719256
 20
328.7884502426241
 30
0.0
 11
-2.890746463448437
 21
335.6083755985687
 31
0.0
 12
-1.985241768719256
 22
341.7644163164878
 32
0.0
 13
-1.985241768719256
 23
341.7644163164878
 33
0.0
  0
SOLID
  5
147
  8
Z_MAN-L
 10
-2.890746463448437
 20
377.3728826131846
 30
0.0
 11
-2.890746463448437
 21
430.8033325089135
 31
0.0
 12
-1.985241768719256
 22
375.5622828756717
 32
0.0
 13
-1.985241768719256
 23
375.5622828756717
 33
0.0
  0
SOLID
  5
148
  8
Z_MAN-L
 10
-1.985241768719256
 20
375.5622828756717
 30
0.0
 11
-2.890746463448437
 21
430.8033325089135
 31
0.0
 12
-1.985241768719256
 22
430.9630912570829
 32
0.0
 13
-1.985241768719256
 23
430.9630912570829
 33
0.0
  0
SOLID
  5
149
  8
Z_MAN-L
 10
-1.985241768719256
 20
325.770783897744
 30
0.0
 11
-1.985241768719256
 21
341.7644163164878
 31
0.0
 12
-1.683406591712984
 22
325.1295290672825
 32
0.0
 13
-1.683406591712984
 23
325.1295290672825
 33
0.0
  0
SOLID
  5
14A
  8
Z_MAN-L
 10
-1.683406591712984
 20
325.1295290672825
 30
0.0
 11
-1.985241768719256
 21
341.7644163164878
 31
0.0
 12
-1.683406591712984
 22
349.3085828377516
 32
0.0
 13
-1.683406591712984
 23
349.3085828377516
 33
0.0
  0
SOLID
  5
14B
  8
Z_MAN-L
 10
-1.683406591712984
 20
349.3085828377516
 30
0.0
 11
-1.985241768719256
 21
357.4562831552321
 31
0.0
 12
-1.683406591712984
 22
358.889675760777
 32
0.0
 13
-1.683406591712984
 23
358.889675760777
 33
0.0
  0
SOLID
  5
14C
  8
Z_MAN-L
 10
-1.985241768719256
 20
375.5622828756717
 30
0.0
 11
-1.985241768719256
 21
430.9630912570829
 31
0.0
 12
-1.683406591712984
 22
374.9587490724338
 32
0.0
 13
-1.683406591712984
 23
374.9587490724338
 33
0.0
  0
SOLID
  5
14D
  8
Z_MAN-L
 10
-1.683406591712984
 20
374.9587490724338
 30
0.0
 11
-1.985241768719256
 21
430.9630912570829
 31
0.0
 12
-1.683406591712984
 22
431.0163442223217
 32
0.0
 13
-1.683406591712984
 23
431.0163442223217
 33
0.0
  0
SOLID
  5
14E
  8
Z_MAN-L
 10
-1.683406591712984
 20
325.1295290672825
 30
0.0
 11
-1.683406591712984
 21
358.889675760777
 31
0.0
 12
-0.7779018969834439
 22
323.2057663526111
 32
0.0
 13
-0.7779018969834439
 23
323.2057663526111
 33
0.0
  0
SOLID
  5
14F
  8
Z_MAN-L
 10
-0.7779018969834439
 20
323.2057663526111
 30
0.0
 11
-1.683406591712984
 21
358.889675760777
 31
0.0
 12
-0.7779018969834439
 22
363.1898496059366
 32
0.0
 13
-0.7779018969834439
 23
363.1898496059366
 33
0.0
  0
SOLID
  5
150
  8
Z_MAN-L
 10
-1.683406591712984
 20
374.9587490724338
 30
0.0
 11
-1.683406591712984
 21
431.0163442223217
 31
0.0
 12
-0.7779018969834439
 22
373.1481493349202
 32
0.0
 13
-0.7779018969834439
 23
373.1481493349202
 33
0.0
  0
SOLID
  5
151
  8
Z_MAN-L
 10
-0.7779018969834439
 20
373.1481493349202
 30
0.0
 11
-1.683406591712984
 21
431.0163442223217
 31
0.0
 12
-0.7779018969834439
 22
431.1761029704911
 32
0.0
 13
-0.7779018969834439
 23
431.1761029704911
 33
0.0
  0
SOLID
  5
152
  8
Z_MAN-L
 10
-0.7779018969834439
 20
323.2057663526111
 30
0.0
 11
-0.7779018969834439
 21
431.1761029704911
 31
0.0
 12
0.4294371384625499
 22
320.6407505841926
 32
0.0
 13
0.4294371384625499
 23
320.6407505841926
 33
0.0
  0
SOLID
  5
153
  8
Z_MAN-L
 10
0.4294371384625499
 20
320.6407505841926
 30
0.0
 11
-0.7779018969834439
 21
431.1761029704911
 31
0.0
 12
0.4294371384625499
 22
431.3891145363523
 32
0.0
 13
0.4294371384625499
 23
431.3891145363523
 33
0.0
  0
SOLID
  5
154
  8
Z_MAN-L
 10
0.4294371384625499
 20
320.6407505841926
 30
0.0
 11
0.4294371384625499
 21
431.3891145363523
 31
0.0
 12
2.240446527921268
 22
316.2651338568724
 32
0.0
 13
2.240446527921268
 23
316.2651338568724
 33
0.0
  0
SOLID
  5
155
  8
Z_MAN-L
 10
2.240446527921268
 20
316.2651338568724
 30
0.0
 11
0.4294371384625499
 21
431.3891145363523
 31
0.0
 12
2.240446527921268
 22
432.2944146552361
 32
0.0
 13
2.240446527921268
 23
432.2944146552361
 33
0.0
  0
SOLID
  5
156
  8
Z_MAN-L
 10
4.051455917380167
 20
283.2216842169437
 30
0.0
 11
2.240446527921268
 21
290.1623176010471
 31
0.0
 12
4.051455917380167
 22
294.5379353386556
 32
0.0
 13
4.051455917380167
 23
294.5379353386556
 33
0.0
  0
SOLID
  5
157
  8
Z_MAN-L
 10
2.240446527921268
 20
316.2651338568724
 30
0.0
 11
2.240446527921268
 21
432.2944146552361
 31
0.0
 12
4.051455917380167
 22
311.8895171295517
 32
0.0
 13
4.051455917380167
 23
311.8895171295517
 33
0.0
  0
SOLID
  5
158
  8
Z_MAN-L
 10
4.051455917380167
 20
311.8895171295517
 30
0.0
 11
2.240446527921268
 21
432.2944146552361
 31
0.0
 12
4.051455917380167
 22
433.19971477412
 32
0.0
 13
4.051455917380167
 23
433.19971477412
 33
0.0
  0
SOLID
  5
159
  8
Z_MAN-L
 10
4.051455917380167
 20
283.2216842169437
 30
0.0
 11
4.051455917380167
 21
294.5379353386556
 31
0.0
 12
4.956959775820248
 22
283.0708010371643
 32
0.0
 13
4.956959775820248
 23
283.0708010371643
 33
0.0
  0
SOLID
  5
15A
  8
Z_MAN-L
 10
4.956959775820248
 20
283.0708010371643
 30
0.0
 11
4.051455917380167
 21
294.5379353386556
 31
0.0
 12
4.956959775820248
 22
296.7257421868836
 32
0.0
 13
4.956959775820248
 23
296.7257421868836
 33
0.0
  0
SOLID
  5
15B
  8
Z_MAN-L
 10
4.051455917380167
 20
311.8895171295517
 30
0.0
 11
4.051455917380167
 21
433.19971477412
 31
0.0
 12
4.956959775820248
 22
306.1559506788399
 32
0.0
 13
4.956959775820248
 23
306.1559506788399
 33
0.0
  0
SOLID
  5
15C
  8
Z_MAN-L
 10
4.956959775820248
 20
306.1559506788399
 30
0.0
 11
4.051455917380167
 21
433.19971477412
 31
0.0
 12
4.956959775820248
 22
433.6523644155118
 32
0.0
 13
4.956959775820248
 23
433.6523644155118
 33
0.0
  0
SOLID
  5
15D
  8
Z_MAN-L
 10
4.956959775820248
 20
283.0708010371643
 30
0.0
 11
4.956959775820248
 21
296.7257421868836
 31
0.0
 12
5.862464470549785
 22
282.9199177180349
 32
0.0
 13
5.862464470549785
 23
282.9199177180349
 33
0.0
  0
SOLID
  5
15E
  8
Z_MAN-L
 10
5.862464470549785
 20
282.9199177180349
 30
0.0
 11
4.956959775820248
 21
296.7257421868836
 31
0.0
 12
5.862464470549785
 22
298.913551055688
 32
0.0
 13
5.862464470549785
 23
298.913551055688
 33
0.0
  0
SOLID
  5
15F
  8
Z_MAN-L
 10
4.956959775820248
 20
306.1559506788399
 30
0.0
 11
4.956959775820248
 21
433.6523644155118
 31
0.0
 12
5.862464470549785
 22
298.913551055688
 32
0.0
 13
5.862464470549785
 23
298.913551055688
 33
0.0
  0
SOLID
  5
160
  8
Z_MAN-L
 10
5.862464470549785
 20
298.913551055688
 30
0.0
 11
4.956959775820248
 21
433.6523644155118
 31
0.0
 12
5.862464470549785
 22
434.1050144749538
 32
0.0
 13
5.862464470549785
 23
434.1050144749538
 33
0.0
  0
SOLID
  5
161
  8
Z_MAN-L
 10
5.862464470549785
 20
282.9199177180349
 30
0.0
 11
5.862464470549785
 21
434.1050144749538
 31
0.0
 12
7.673473860008503
 22
282.618151079776
 32
0.0
 13
7.673473860008503
 23
282.618151079776
 33
0.0
  0
SOLID
  5
162
  8
Z_MAN-L
 10
7.673473860008503
 20
282.618151079776
 30
0.0
 11
5.862464470549785
 21
434.1050144749538
 31
0.0
 12
7.673473860008503
 22
435.0103145938376
 32
0.0
 13
7.673473860008503
 23
435.0103145938376
 33
0.0
  0
SOLID
  5
163
  8
Z_MAN-L
 10
7.673473860008503
 20
282.618151079776
 30
0.0
 11
7.673473860008503
 21
435.0103145938376
 31
0.0
 12
9.484483249467221
 22
282.7827512198348
 32
0.0
 13
9.484483249467221
 23
282.7827512198348
 33
0.0
  0
SOLID
  5
164
  8
Z_MAN-L
 10
9.484483249467221
 20
282.7827512198348
 30
0.0
 11
7.673473860008503
 21
435.0103145938376
 31
0.0
 12
9.484483249467221
 22
435.9156147127214
 32
0.0
 13
9.484483249467221
 23
435.9156147127214
 33
0.0
  0
SOLID
  5
165
  8
Z_MAN-L
 10
9.484483249467221
 20
282.7827512198348
 30
0.0
 11
9.484483249467221
 21
435.9156147127214
 31
0.0
 12
10.08815276719031
 22
282.8376179078513
 32
0.0
 13
10.08815276719031
 23
282.8376179078513
 33
0.0
  0
SOLID
  5
166
  8
Z_MAN-L
 10
10.08815276719031
 20
282.8376179078513
 30
0.0
 11
9.484483249467221
 21
435.9156147127214
 31
0.0
 12
10.08815276719031
 22
435.7949079869236
 32
0.0
 13
10.08815276719031
 23
435.7949079869236
 33
0.0
  0
SOLID
  5
167
  8
Z_MAN-L
 10
10.08815276719031
 20
282.8376179078513
 30
0.0
 11
10.08815276719031
 21
435.7949079869236
 31
0.0
 12
10.99365746191985
 22
282.9199179778807
 32
0.0
 13
10.99365746191985
 23
282.9199179778807
 33
0.0
  0
SOLID
  5
168
  8
Z_MAN-L
 10
10.99365746191985
 20
282.9199179778807
 30
0.0
 11
10.08815276719031
 21
435.7949079869236
 31
0.0
 12
10.99365746191985
 22
435.6138478146167
 32
0.0
 13
10.99365746191985
 23
435.6138478146167
 33
0.0
  0
SOLID
  5
169
  8
Z_MAN-L
 10
10.08815276719031
 20
442.5544811987129
 30
0.0
 11
10.08815276719031
 21
449.1933476846971
 31
0.0
 12
10.99365746191985
 22
441.9886686937274
 32
0.0
 13
10.99365746191985
 23
441.9886686937274
 33
0.0
  0
SOLID
  5
16A
  8
Z_MAN-L
 10
10.99365746191985
 20
441.9886686937274
 30
0.0
 11
10.08815276719031
 21
449.1933476846971
 31
0.0
 12
10.99365746191985
 22
456.7375142059682
 32
0.0
 13
10.99365746191985
 23
456.7375142059682
 33
0.0
  0
SOLID
  5
16B
  8
Z_MAN-L
 10
10.99365746191985
 20
282.9199179778807
 30
0.0
 11
10.99365746191985
 21
435.6138478146167
 31
0.0
 12
12.50283167437211
 22
285.1831676480235
 32
0.0
 13
12.50283167437211
 23
285.1831676480235
 33
0.0
  0
SOLID
  5
16C
  8
Z_MAN-L
 10
12.50283167437211
 20
285.1831676480235
 30
0.0
 11
10.99365746191985
 21
435.6138478146167
 31
0.0
 12
12.50283167437211
 22
437.7262147832735
 32
0.0
 13
12.50283167437211
 23
437.7262147832735
 33
0.0
  0
SOLID
  5
16D
  8
Z_MAN-L
 10
10.99365746191985
 20
441.9886686937274
 30
0.0
 11
10.99365746191985
 21
456.7375142059682
 31
0.0
 12
12.50283167437211
 22
441.0456480262728
 32
0.0
 13
12.50283167437211
 23
441.0456480262728
 33
0.0
  0
SOLID
  5
16E
  8
Z_MAN-L
 10
12.50283167437211
 20
441.0456480262728
 30
0.0
 11
10.99365746191985
 21
456.7375142059682
 31
0.0
 12
12.50283167437211
 22
457.963441320802
 32
0.0
 13
12.50283167437211
 23
457.963441320802
 33
0.0
  0
SOLID
  5
16F
  8
Z_MAN-L
 10
12.50283167437211
 20
285.1831676480235
 30
0.0
 11
12.50283167437211
 21
457.963441320802
 31
0.0
 12
12.80466685137839
 22
285.6358180837124
 32
0.0
 13
12.80466685137839
 23
285.6358180837124
 33
0.0
  0
SOLID
  5
170
  8
Z_MAN-L
 10
12.80466685137839
 20
285.6358180837124
 30
0.0
 11
12.50283167437211
 21
457.963441320802
 31
0.0
 12
12.80466685137839
 22
458.2086270155015
 32
0.0
 13
12.80466685137839
 23
458.2086270155015
 33
0.0
  0
SOLID
  5
171
  8
Z_MAN-L
 10
12.80466685137839
 20
285.6358180837124
 30
0.0
 11
12.80466685137839
 21
314.907184133488
 31
0.0
 12
13.40833636910165
 22
287.8085373027632
 32
0.0
 13
13.40833636910165
 23
287.8085373027632
 33
0.0
  0
SOLID
  5
172
  8
Z_MAN-L
 10
13.40833636910165
 20
287.8085373027632
 30
0.0
 11
12.80466685137839
 21
314.907184133488
 31
0.0
 12
13.40833636910165
 22
308.2683169884549
 32
0.0
 13
13.40833636910165
 23
308.2683169884549
 33
0.0
  0
SOLID
  5
173
  8
Z_MAN-L
 10
12.80466685137839
 20
314.907184133488
 30
0.0
 11
12.80466685137839
 21
458.2086270155015
 31
0.0
 12
13.40833636910165
 22
324.2619500662549
 32
0.0
 13
13.40833636910165
 23
324.2619500662549
 33
0.0
  0
SOLID
  5
174
  8
Z_MAN-L
 10
13.40833636910165
 20
324.2619500662549
 30
0.0
 11
12.80466685137839
 21
458.2086270155015
 31
0.0
 12
13.40833636910165
 22
458.6989977255689
 32
0.0
 13
13.40833636910165
 23
458.6989977255689
 33
0.0
  0
SOLID
  5
175
  8
Z_MAN-L
 10
13.40833636910165
 20
287.8085373027632
 30
0.0
 11
13.40833636910165
 21
308.2683169884549
 31
0.0
 12
13.71017154610793
 22
288.8948984172692
 32
0.0
 13
13.71017154610793
 23
288.8948984172692
 33
0.0
  0
SOLID
  5
176
  8
Z_MAN-L
 10
13.71017154610793
 20
288.8948984172692
 30
0.0
 11
13.40833636910165
 21
308.2683169884549
 31
0.0
 12
13.71017154610793
 22
307.6647831840443
 32
0.0
 13
13.71017154610793
 23
307.6647831840443
 33
0.0
  0
SOLID
  5
177
  8
Z_MAN-L
 10
13.40833636910165
 20
324.2619500662549
 30
0.0
 11
13.40833636910165
 21
458.6989977255689
 31
0.0
 12
13.71017154610793
 22
325.0918095266397
 32
0.0
 13
13.71017154610793
 23
325.0918095266397
 33
0.0
  0
SOLID
  5
178
  8
Z_MAN-L
 10
13.71017154610793
 20
325.0918095266397
 30
0.0
 11
13.40833636910165
 21
458.6989977255689
 31
0.0
 12
13.71017154610793
 22
458.9441834202684
 32
0.0
 13
13.71017154610793
 23
458.9441834202684
 33
0.0
  0
SOLID
  5
179
  8
Z_MAN-L
 10
13.71017154610793
 20
288.8948984172692
 30
0.0
 11
13.71017154610793
 21
294.3870508793188
 31
0.0
 12
14.31384106383101
 22
291.0676176363195
 32
0.0
 13
14.31384106383101
 23
291.0676176363195
 33
0.0
  0
SOLID
  5
17A
  8
Z_MAN-L
 10
13.71017154610793
 20
294.3870508793188
 30
0.0
 11
13.71017154610793
 21
307.6647831840443
 31
0.0
 12
14.31384106383101
 22
295.1414674655352
 32
0.0
 13
14.31384106383101
 23
295.1414674655352
 33
0.0
  0
SOLID
  5
17B
  8
Z_MAN-L
 10
14.31384106383101
 20
295.1414674655352
 30
0.0
 11
13.71017154610793
 21
307.6647831840443
 31
0.0
 12
14.31384106383101
 22
306.4577172474235
 32
0.0
 13
14.31384106383101
 23
306.4577172474235
 33
0.0
  0
SOLID
  5
17C
  8
Z_MAN-L
 10
13.71017154610793
 20
325.0918095266397
 30
0.0
 11
13.71017154610793
 21
458.9441834202684
 31
0.0
 12
14.31384106383101
 22
326.7515261481321
 32
0.0
 13
14.31384106383101
 23
326.7515261481321
 33
0.0
  0
SOLID
  5
17D
  8
Z_MAN-L
 10
14.31384106383101
 20
326.7515261481321
 30
0.0
 11
13.71017154610793
 21
458.9441834202684
 31
0.0
 12
14.31384106383101
 22
459.4345541303356
 32
0.0
 13
14.31384106383101
 23
459.4345541303356
 33
0.0
  0
SOLID
  5
17E
  8
Z_MAN-L
 10
14.31384106383101
 20
295.1414674655352
 30
0.0
 11
14.31384106383101
 21
306.4577172474235
 31
0.0
 12
14.61567540454783
 22
295.5186752360805
 32
0.0
 13
14.61567540454783
 23
295.5186752360805
 33
0.0
  0
SOLID
  5
17F
  8
Z_MAN-L
 10
14.61567540454783
 20
295.5186752360805
 30
0.0
 11
14.31384106383101
 21
306.4577172474235
 31
0.0
 12
14.61567540454783
 22
305.8541851152135
 32
0.0
 13
14.61567540454783
 23
305.8541851152135
 33
0.0
  0
SOLID
  5
180
  8
Z_MAN-L
 10
14.31384106383101
 20
326.7515261481321
 30
0.0
 11
14.31384106383101
 21
459.4345541303356
 31
0.0
 12
14.61567540454783
 22
327.5813833092398
 32
0.0
 13
14.61567540454783
 23
327.5813833092398
 33
0.0
  0
SOLID
  5
181
  8
Z_MAN-L
 10
14.61567540454783
 20
327.5813833092398
 30
0.0
 11
14.31384106383101
 21
459.4345541303356
 31
0.0
 12
14.61567540454783
 22
459.6797391457034
 32
0.0
 13
14.61567540454783
 23
459.6797391457034
 33
0.0
  0
SOLID
  5
182
  8
Z_MAN-L
 10
14.61567540454783
 20
295.5186752360805
 30
0.0
 11
14.61567540454783
 21
305.8541851152135
 31
0.0
 12
14.9175105815541
 22
295.8958840517516
 32
0.0
 13
14.9175105815541
 23
295.8958840517516
 33
0.0
  0
SOLID
  5
183
  8
Z_MAN-L
 10
14.9175105815541
 20
295.8958840517516
 30
0.0
 11
14.61567540454783
 21
305.8541851152135
 31
0.0
 12
14.9175105815541
 22
305.2506513108028
 32
0.0
 13
14.9175105815541
 23
305.2506513108028
 33
0.0
  0
SOLID
  5
184
  8
Z_MAN-L
 10
14.61567540454783
 20
327.5813833092398
 30
0.0
 11
14.61567540454783
 21
459.6797391457034
 31
0.0
 12
14.9175105815541
 22
328.3056241401169
 32
0.0
 13
14.9175105815541
 23
328.3056241401169
 33
0.0
  0
SOLID
  5
185
  8
Z_MAN-L
 10
14.9175105815541
 20
328.3056241401169
 30
0.0
 11
14.61567540454783
 21
459.6797391457034
 31
0.0
 12
14.9175105815541
 22
459.9249248404029
 32
0.0
 13
14.9175105815541
 23
459.9249248404029
 33
0.0
  0
SOLID
  5
186
  8
Z_MAN-L
 10
14.9175105815541
 20
295.8958840517516
 30
0.0
 11
14.9175105815541
 21
305.2506513108028
 31
0.0
 12
15.21934575856019
 22
296.4994179660022
 32
0.0
 13
15.21934575856019
 23
296.4994179660022
 33
0.0
  0
SOLID
  5
187
  8
Z_MAN-L
 10
15.21934575856019
 20
296.4994179660022
 30
0.0
 11
14.9175105815541
 21
305.2506513108028
 31
0.0
 12
15.21934575856019
 22
304.6471175063925
 32
0.0
 13
15.21934575856019
 23
304.6471175063925
 33
0.0
  0
SOLID
  5
188
  8
Z_MAN-L
 10
14.9175105815541
 20
328.3056241401169
 30
0.0
 11
14.9175105815541
 21
459.9249248404029
 31
0.0
 12
15.21934575856019
 22
329.0298649709937
 32
0.0
 13
15.21934575856019
 23
329.0298649709937
 33
0.0
  0
SOLID
  5
189
  8
Z_MAN-L
 10
15.21934575856019
 20
329.0298649709937
 30
0.0
 11
14.9175105815541
 21
459.9249248404029
 31
0.0
 12
15.21934575856019
 22
460.1701105351023
 32
0.0
 13
15.21934575856019
 23
460.1701105351023
 33
0.0
  0
SOLID
  5
18A
  8
Z_MAN-L
 10
15.21934575856019
 20
296.4994179660022
 30
0.0
 11
15.21934575856019
 21
304.6471175063925
 31
0.0
 12
15.82301527628346
 22
297.7064841223037
 32
0.0
 13
15.82301527628346
 23
297.7064841223037
 33
0.0
  0
SOLID
  5
18B
  8
Z_MAN-L
 10
15.82301527628346
 20
297.7064841223037
 30
0.0
 11
15.21934575856019
 21
304.6471175063925
 31
0.0
 12
15.82301527628346
 22
306.4577173572616
 32
0.0
 13
15.82301527628346
 23
306.4577173572616
 33
0.0
  0
SOLID
  5
18C
  8
Z_MAN-L
 10
15.21934575856019
 20
329.0298649709937
 30
0.0
 11
15.21934575856019
 21
460.1701105351023
 31
0.0
 12
15.82301527628346
 22
330.4783446261072
 32
0.0
 13
15.82301527628346
 23
330.4783446261072
 33
0.0
  0
SOLID
  5
18D
  8
Z_MAN-L
 10
15.82301527628346
 20
330.4783446261072
 30
0.0
 11
15.21934575856019
 21
460.1701105351023
 31
0.0
 12
15.82301527628346
 22
460.6604812451696
 32
0.0
 13
15.82301527628346
 23
460.6604812451696
 33
0.0
  0
SOLID
  5
18E
  8
Z_MAN-L
 10
16.12484961700063
 20
281.8888820481231
 30
0.0
 11
15.82301527628346
 21
282.0146179426083
 31
0.0
 12
16.12484961700063
 22
283.8252153400974
 32
0.0
 13
16.12484961700063
 23
283.8252153400974
 33
0.0
  0
SOLID
  5
18F
  8
Z_MAN-L
 10
15.82301527628346
 20
294.6888177774163
 30
0.0
 11
15.82301527628346
 21
306.4577173572616
 31
0.0
 12
16.12484961700063
 22
289.2570175657675
 32
0.0
 13
16.12484961700063
 23
289.2570175657675
 33
0.0
  0
SOLID
  5
190
  8
Z_MAN-L
 10
16.12484961700063
 20
289.2570175657675
 30
0.0
 11
15.82301527628346
 21
306.4577173572616
 31
0.0
 12
16.12484961700063
 22
307.3630160285458
 32
0.0
 13
16.12484961700063
 23
307.3630160285458
 33
0.0
  0
SOLID
  5
191
  8
Z_MAN-L
 10
15.82301527628346
 20
330.4783446261072
 30
0.0
 11
15.82301527628346
 21
460.6604812451696
 31
0.0
 12
16.12484961700063
 22
331.2025834503438
 32
0.0
 13
16.12484961700063
 23
331.2025834503438
 33
0.0
  0
SOLID
  5
192
  8
Z_MAN-L
 10
16.12484961700063
 20
331.2025834503438
 30
0.0
 11
15.82301527628346
 21
460.6604812451696
 31
0.0
 12
16.12484961700063
 22
460.6748510414305
 32
0.0
 13
16.12484961700063
 23
460.6748510414305
 33
0.0
  0
SOLID
  5
193
  8
Z_MAN-L
 10
16.12484961700063
 20
281.8888820481231
 30
0.0
 11
16.12484961700063
 21
283.8252153400974
 31
0.0
 12
16.42668479400672
 22
281.7631458052629
 32
0.0
 13
16.42668479400672
 23
281.7631458052629
 33
0.0
  0
SOLID
  5
194
  8
Z_MAN-L
 10
16.42668479400672
 20
281.7631458052629
 30
0.0
 11
16.12484961700063
 21
283.8252153400974
 31
0.0
 12
16.42668479400672
 22
285.6358177541879
 32
0.0
 13
16.42668479400672
 23
285.6358177541879
 33
0.0
  0
SOLID
  5
195
  8
Z_MAN-L
 10
16.12484961700063
 20
289.2570175657675
 30
0.0
 11
16.12484961700063
 21
307.3630160285458
 31
0.0
 12
16.42668479400672
 22
289.2570175657675
 32
0.0
 13
16.42668479400672
 23
289.2570175657675
 33
0.0
  0
SOLID
  5
196
  8
Z_MAN-L
 10
16.42668479400672
 20
289.2570175657675
 30
0.0
 11
16.12484961700063
 21
307.3630160285458
 31
0.0
 12
16.42668479400672
 22
308.2683172081306
 32
0.0
 13
16.42668479400672
 23
308.2683172081306
 33
0.0
  0
SOLID
  5
197
  8
Z_MAN-L
 10
16.12484961700063
 20
335.4273167286156
 30
0.0
 11
16.12484961700063
 21
460.6748510414305
 31
0.0
 12
16.42668479400672
 22
339.0485168697051
 32
0.0
 13
16.42668479400672
 23
339.0485168697051
 33
0.0
  0
SOLID
  5
198
  8
Z_MAN-L
 10
16.42668479400672
 20
339.0485168697051
 30
0.0
 11
16.12484961700063
 21
460.6748510414305
 31
0.0
 12
16.42668479400672
 22
460.6892208775056
 32
0.0
 13
16.42668479400672
 23
460.6892208775056
 33
0.0
  0
SOLID
  5
199
  8
Z_MAN-L
 10
16.42668479400672
 20
281.7631458052629
 30
0.0
 11
16.42668479400672
 21
285.6358177541879
 31
0.0
 12
17.03035431172999
 22
281.5116736679175
 32
0.0
 13
17.03035431172999
 23
281.5116736679175
 33
0.0
  0
SOLID
  5
19A
  8
Z_MAN-L
 10
17.03035431172999
 20
281.5116736679175
 30
0.0
 11
16.42668479400672
 21
285.6358177541879
 31
0.0
 12
17.03035431172999
 22
289.2570175657675
 32
0.0
 13
17.03035431172999
 23
289.2570175657675
 33
0.0
  0
SOLID
  5
19B
  8
Z_MAN-L
 10
16.42668479400672
 20
289.2570175657675
 30
0.0
 11
16.42668479400672
 21
308.2683172081306
 31
0.0
 12
17.03035431172999
 22
289.2570175657675
 32
0.0
 13
17.03035431172999
 23
289.2570175657675
 33
0.0
  0
SOLID
  5
19C
  8
Z_MAN-L
 10
17.03035431172999
 20
289.2570175657675
 30
0.0
 11
16.42668479400672
 21
308.2683172081306
 31
0.0
 12
17.03035431172999
 22
310.0789170589997
 32
0.0
 13
17.03035431172999
 23
310.0789170589997
 33
0.0
  0
SOLID
  5
19D
  8
Z_MAN-L
 10
16.42668479400672
 20
339.0485168697051
 30
0.0
 11
16.42668479400672
 21
460.6892208775056
 31
0.0
 12
17.03035431172999
 22
341.0602935039688
 32
0.0
 13
17.03035431172999
 23
341.0602935039688
 33
0.0
  0
SOLID
  5
19E
  8
Z_MAN-L
 10
17.03035431172999
 20
341.0602935039688
 30
0.0
 11
16.42668479400672
 21
460.6892208775056
 31
0.0
 12
17.03035431172999
 22
460.7179605098415
 32
0.0
 13
17.03035431172999
 23
460.7179605098415
 33
0.0
  0
SOLID
  5
19F
  8
Z_MAN-L
 10
17.03035431172999
 20
281.5116736679175
 30
0.0
 11
17.03035431172999
 21
310.0789170589997
 31
0.0
 12
17.3321894887359
 22
281.3859374250574
 32
0.0
 13
17.3321894887359
 23
281.3859374250574
 33
0.0
  0
SOLID
  5
1A0
  8
Z_MAN-L
 10
17.3321894887359
 20
281.3859374250574
 30
0.0
 11
17.03035431172999
 21
310.0789170589997
 31
0.0
 12
17.3321894887359
 22
320.3389836860879
 32
0.0
 13
17.3321894887359
 23
320.3389836860879
 33
0.0
  0
SOLID
  5
1A1
  8
Z_MAN-L
 10
17.03035431172999
 20
341.0602935039688
 30
0.0
 11
17.03035431172999
 21
460.7179605098415
 31
0.0
 12
17.3321894887359
 22
342.0661832145997
 32
0.0
 13
17.3321894887359
 23
342.0661832145997
 33
0.0
  0
SOLID
  5
1A2
  8
Z_MAN-L
 10
17.3321894887359
 20
342.0661832145997
 30
0.0
 11
17.03035431172999
 21
460.7179605098415
 31
0.0
 12
17.3321894887359
 22
460.7323303459166
 32
0.0
 13
17.3321894887359
 23
460.7323303459166
 33
0.0
  0
SOLID
  5
1A3
  8
Z_MAN-L
 10
17.3321894887359
 20
281.3859374250574
 30
0.0
 11
17.3321894887359
 21
320.3389836860879
 31
0.0
 12
17.70601366904075
 22
281.2302125410725
 32
0.0
 13
17.70601366904075
 23
281.2302125410725
 33
0.0
  0
SOLID
  5
1A4
  8
Z_MAN-L
 10
17.70601366904075
 20
281.2302125410725
 30
0.0
 11
17.3321894887359
 21
320.3389836860879
 31
0.0
 12
17.70601366904075
 22
320.9262890288413
 32
0.0
 13
17.70601366904075
 23
320.9262890288413
 33
0.0
  0
SOLID
  5
1A5
  8
Z_MAN-L
 10
17.3321894887359
 20
342.0661832145997
 30
0.0
 11
17.3321894887359
 21
460.7323303459166
 31
0.0
 12
17.70601366904075
 22
348.4032834615282
 32
0.0
 13
17.70601366904075
 23
348.4032834615282
 33
0.0
  0
SOLID
  5
1A6
  8
Z_MAN-L
 10
17.70601366904075
 20
348.4032834615282
 30
0.0
 11
17.3321894887359
 21
460.7323303459166
 31
0.0
 12
17.70601366904075
 22
460.750127450433
 32
0.0
 13
17.70601366904075
 23
460.750127450433
 33
0.0
  0
SOLID
  5
1A7
  8
Z_MAN-L
 10
17.70601366904075
 20
281.2302125410725
 30
0.0
 11
17.70601366904075
 21
320.9262890288413
 31
0.0
 12
17.93585900645917
 22
281.134465287712
 32
0.0
 13
17.93585900645917
 23
281.134465287712
 33
0.0
  0
SOLID
  5
1A8
  8
Z_MAN-L
 10
17.93585900645917
 20
281.134465287712
 30
0.0
 11
17.70601366904075
 21
320.9262890288413
 31
0.0
 12
17.93585900645917
 22
321.2873929963876
 32
0.0
 13
17.93585900645917
 23
321.2873929963876
 33
0.0
  0
SOLID
  5
1A9
  8
Z_MAN-L
 10
17.70601366904075
 20
348.4032834615282
 30
0.0
 11
17.70601366904075
 21
460.750127450433
 31
0.0
 12
17.93585900645917
 22
341.4626500774248
 32
0.0
 13
17.93585900645917
 23
341.4626500774248
 33
0.0
  0
SOLID
  5
1AA
  8
Z_MAN-L
 10
17.93585900645917
 20
341.4626500774248
 30
0.0
 11
17.70601366904075
 21
460.750127450433
 31
0.0
 12
17.93585900645917
 22
460.7610699782526
 32
0.0
 13
17.93585900645917
 23
460.7610699782526
 33
0.0
  0
SOLID
  5
1AB
  8
Z_MAN-L
 10
17.93585900645917
 20
281.134465287712
 30
0.0
 11
17.93585900645917
 21
321.2873929963876
 31
0.0
 12
18.23769418346544
 22
281.0087290448517
 32
0.0
 13
18.23769418346544
 23
281.0087290448517
 33
0.0
  0
SOLID
  5
1AC
  8
Z_MAN-L
 10
18.23769418346544
 20
281.0087290448517
 30
0.0
 11
17.93585900645917
 21
321.2873929963876
 31
0.0
 12
18.23769418346544
 22
321.7615983084735
 32
0.0
 13
18.23769418346544
 23
321.7615983084735
 33
0.0
  0
SOLID
  5
1AD
  8
Z_MAN-L
 10
17.93585900645917
 20
341.4626500774248
 30
0.0
 11
17.93585900645917
 21
460.7610699782526
 31
0.0
 12
18.23769418346544
 22
330.5990503131761
 32
0.0
 13
18.23769418346544
 23
330.5990503131761
 33
0.0
  0
SOLID
  5
1AE
  8
Z_MAN-L
 10
18.23769418346544
 20
330.5990503131761
 30
0.0
 11
17.93585900645917
 21
460.7610699782526
 31
0.0
 12
18.23769418346544
 22
460.7754398143277
 32
0.0
 13
18.23769418346544
 23
460.7754398143277
 33
0.0
  0
SOLID
  5
1AF
  8
Z_MAN-L
 10
18.23769418346544
 20
281.0087290448517
 30
0.0
 11
18.23769418346544
 21
321.7615983084735
 31
0.0
 12
19.4450332189118
 22
280.505784770161
 32
0.0
 13
19.4450332189118
 23
280.505784770161
 33
0.0
  0
SOLID
  5
1B0
  8
Z_MAN-L
 10
19.4450332189118
 20
280.505784770161
 30
0.0
 11
18.23769418346544
 21
321.7615983084735
 31
0.0
 12
19.4450332189118
 22
323.6584169290727
 32
0.0
 13
19.4450332189118
 23
323.6584169290727
 33
0.0
  0
SOLID
  5
1B1
  8
Z_MAN-L
 10
18.23769418346544
 20
325.16725010152
 30
0.0
 11
18.23769418346544
 21
460.7754398143277
 31
0.0
 12
19.4450332189118
 22
323.6584169290727
 32
0.0
 13
19.4450332189118
 23
323.6584169290727
 33
0.0
  0
SOLID
  5
1B2
  8
Z_MAN-L
 10
19.4450332189118
 20
323.6584169290727
 30
0.0
 11
18.23769418346544
 21
460.7754398143277
 31
0.0
 12
19.4450332189118
 22
460.8329190789996
 32
0.0
 13
19.4450332189118
 23
460.8329190789996
 33
0.0
  0
SOLID
  5
1B3
  8
Z_MAN-L
 10
19.4450332189118
 20
280.505784770161
 30
0.0
 11
19.4450332189118
 21
460.8329190789996
 31
0.0
 12
21.2560426083707
 22
278.6951846996089
 32
0.0
 13
21.2560426083707
 23
278.6951846996089
 33
0.0
  0
SOLID
  5
1B4
  8
Z_MAN-L
 10
21.2560426083707
 20
278.6951846996089
 30
0.0
 11
19.4450332189118
 21
460.8329190789996
 31
0.0
 12
21.2560426083707
 22
460.9191380158216
 32
0.0
 13
21.2560426083707
 23
460.9191380158216
 33
0.0
  0
SOLID
  5
1B5
  8
Z_MAN-L
 10
21.2560426083707
 20
278.6951846996089
 30
0.0
 11
21.2560426083707
 21
460.9191380158216
 31
0.0
 12
22.16154730309988
 22
278.5227465435194
 32
0.0
 13
22.16154730309988
 23
278.5227465435194
 33
0.0
  0
SOLID
  5
1B6
  8
Z_MAN-L
 10
22.16154730309988
 20
278.5227465435194
 30
0.0
 11
21.2560426083707
 21
460.9191380158216
 31
0.0
 12
22.16154730309988
 22
460.9622474842326
 32
0.0
 13
22.16154730309988
 23
460.9622474842326
 33
0.0
  0
SOLID
  5
1B7
  8
Z_MAN-L
 10
22.16154730309988
 20
278.5227465435194
 30
0.0
 11
22.16154730309988
 21
460.9622474842326
 31
0.0
 12
25.17989572800495
 22
277.947952796059
 32
0.0
 13
25.17989572800495
 23
277.947952796059
 33
0.0
  0
SOLID
  5
1B8
  8
Z_MAN-L
 10
25.17989572800495
 20
277.947952796059
 30
0.0
 11
22.16154730309988
 21
460.9622474842326
 31
0.0
 12
25.17989572800495
 22
461.150851782484
 32
0.0
 13
25.17989572800495
 23
461.150851782484
 33
0.0
  0
SOLID
  5
1B9
  8
Z_MAN-L
 10
25.17989572800495
 20
277.947952796059
 30
0.0
 11
25.17989572800495
 21
288.0499512914321
 31
0.0
 12
26.68906994045757
 22
277.6605559223287
 32
0.0
 13
26.68906994045757
 23
277.6605559223287
 33
0.0
  0
SOLID
  5
1BA
  8
Z_MAN-L
 10
26.68906994045757
 20
277.6605559223287
 30
0.0
 11
25.17989572800495
 21
288.0499512914321
 31
0.0
 12
26.68906994045757
 22
286.5411174599431
 32
0.0
 13
26.68906994045757
 23
286.5411174599431
 33
0.0
  0
SOLID
  5
1BB
  8
Z_MAN-L
 10
25.17989572800495
 20
288.0499512914321
 30
0.0
 11
25.17989572800495
 21
461.150851782484
 31
0.0
 12
26.68906994045757
 22
292.7021862668234
 32
0.0
 13
26.68906994045757
 23
292.7021862668234
 33
0.0
  0
SOLID
  5
1BC
  8
Z_MAN-L
 10
26.68906994045757
 20
292.7021862668234
 30
0.0
 11
25.17989572800495
 21
461.150851782484
 31
0.0
 12
26.68906994045757
 22
461.2451539316097
 32
0.0
 13
26.68906994045757
 23
461.2451539316097
 33
0.0
  0
SOLID
  5
1BD
  8
Z_MAN-L
 10
26.68906994045757
 20
277.6605559223287
 30
0.0
 11
26.68906994045757
 21
286.5411174599431
 31
0.0
 12
26.99090511746384
 22
277.6030764838798
 32
0.0
 13
26.99090511746384
 23
277.6030764838798
 33
0.0
  0
SOLID
  5
1BE
  8
Z_MAN-L
 10
26.99090511746384
 20
277.6030764838798
 30
0.0
 11
26.68906994045757
 21
286.5411174599431
 31
0.0
 12
26.99090511746384
 22
286.2728801891296
 32
0.0
 13
26.99090511746384
 23
286.2728801891296
 33
0.0
  0
SOLID
  5
1BF
  8
Z_MAN-L
 10
26.68906994045757
 20
292.7021862668234
 30
0.0
 11
26.68906994045757
 21
435.0103146774563
 31
0.0
 12
26.99090511746384
 22
293.6326342930921
 32
0.0
 13
26.99090511746384
 23
293.6326342930921
 33
0.0
  0
SOLID
  5
1C0
  8
Z_MAN-L
 10
26.99090511746384
 20
293.6326342930921
 30
0.0
 11
26.68906994045757
 21
435.0103146774563
 31
0.0
 12
26.99090511746384
 22
434.8594311988936
 32
0.0
 13
26.99090511746384
 23
434.8594311988936
 33
0.0
  0
SOLID
  5
1C1
  8
Z_MAN-L
 10
26.68906994045757
 20
435.0103146774563
 30
0.0
 11
26.68906994045757
 21
461.2451539316097
 31
0.0
 12
26.99090511746384
 22
435.1611982008982
 32
0.0
 13
26.99090511746384
 23
435.1611982008982
 33
0.0
  0
SOLID
  5
1C2
  8
Z_MAN-L
 10
26.99090511746384
 20
435.1611982008982
 30
0.0
 11
26.68906994045757
 21
461.2451539316097
 31
0.0
 12
26.99090511746384
 22
461.2640143823373
 32
0.0
 13
26.99090511746384
 23
461.2640143823373
 33
0.0
  0
SOLID
  5
1C3
  8
Z_MAN-L
 10
26.99090511746384
 20
277.6030764838798
 30
0.0
 11
26.99090511746384
 21
286.2728801891296
 31
0.0
 12
27.59457463518693
 22
277.4881177662392
 32
0.0
 13
27.59457463518693
 23
277.4881177662392
 33
0.0
  0
SOLID
  5
1C4
  8
Z_MAN-L
 10
27.59457463518693
 20
277.4881177662392
 30
0.0
 11
26.99090511746384
 21
286.2728801891296
 31
0.0
 12
27.59457463518693
 22
285.7364063907032
 32
0.0
 13
27.59457463518693
 23
285.7364063907032
 33
0.0
  0
SOLID
  5
1C5
  8
Z_MAN-L
 10
26.99090511746384
 20
293.6326342930921
 30
0.0
 11
26.99090511746384
 21
434.8594311988936
 31
0.0
 12
27.59457463518693
 22
295.4935277676532
 32
0.0
 13
27.59457463518693
 23
295.4935277676532
 33
0.0
  0
SOLID
  5
1C6
  8
Z_MAN-L
 10
27.59457463518693
 20
295.4935277676532
 30
0.0
 11
26.99090511746384
 21
434.8594311988936
 31
0.0
 12
27.59457463518693
 22
434.5576646598183
 32
0.0
 13
27.59457463518693
 23
434.5576646598183
 33
0.0
  0
SOLID
  5
1C7
  8
Z_MAN-L
 10
26.99090511746384
 20
435.1611982008982
 30
0.0
 11
26.99090511746384
 21
461.2640143823373
 31
0.0
 12
27.59457463518693
 22
435.4629648297317
 32
0.0
 13
27.59457463518693
 23
435.4629648297317
 33
0.0
  0
SOLID
  5
1C8
  8
Z_MAN-L
 10
27.59457463518693
 20
435.4629648297317
 30
0.0
 11
26.99090511746384
 21
461.2640143823373
 31
0.0
 12
27.59457463518693
 22
460.9018944685605
 32
0.0
 13
27.59457463518693
 23
460.9018944685605
 33
0.0
  0
SOLID
  5
1C9
  8
Z_MAN-L
 10
27.59457463518693
 20
277.4881177662392
 30
0.0
 11
27.59457463518693
 21
285.7364063907032
 31
0.0
 12
28.80191450692238
 22
277.9192130863373
 32
0.0
 13
28.80191450692238
 23
277.9192130863373
 33
0.0
  0
SOLID
  5
1CA
  8
Z_MAN-L
 10
28.80191450692238
 20
277.9192130863373
 30
0.0
 11
27.59457463518693
 21
285.7364063907032
 31
0.0
 12
28.80191450692238
 22
284.66345805065
 32
0.0
 13
28.80191450692238
 23
284.66345805065
 33
0.0
  0
SOLID
  5
1CB
  8
Z_MAN-L
 10
27.59457463518693
 20
295.4935277676532
 30
0.0
 11
27.59457463518693
 21
434.5576646598183
 31
0.0
 12
28.80191450692238
 22
299.215317294751
 32
0.0
 13
28.80191450692238
 23
299.215317294751
 33
0.0
  0
SOLID
  5
1CC
  8
Z_MAN-L
 10
28.80191450692238
 20
299.215317294751
 30
0.0
 11
27.59457463518693
 21
434.5576646598183
 31
0.0
 12
28.80191450692238
 22
433.9541311636177
 32
0.0
 13
28.80191450692238
 23
433.9541311636177
 33
0.0
  0
SOLID
  5
1CD
  8
Z_MAN-L
 10
27.59457463518693
 20
435.4629648297317
 30
0.0
 11
27.59457463518693
 21
460.9018944685605
 31
0.0
 12
28.80191450692238
 22
436.0664985054489
 32
0.0
 13
28.80191450692238
 23
436.0664985054489
 33
0.0
  0
SOLID
  5
1CE
  8
Z_MAN-L
 10
28.80191450692238
 20
436.0664985054489
 30
0.0
 11
27.59457463518693
 21
460.9018944685605
 31
0.0
 12
28.80191450692238
 22
460.1776541393465
 32
0.0
 13
28.80191450692238
 23
460.1776541393465
 33
0.0
  0
SOLID
  5
1CF
  8
Z_MAN-L
 10
28.80191450692238
 20
277.9192130863373
 30
0.0
 11
28.80191450692238
 21
284.66345805065
 31
0.0
 12
29.10374884763955
 22
278.0269866924065
 32
0.0
 13
29.10374884763955
 23
278.0269866924065
 33
0.0
  0
SOLID
  5
1D0
  8
Z_MAN-L
 10
29.10374884763955
 20
278.0269866924065
 30
0.0
 11
28.80191450692238
 21
284.66345805065
 31
0.0
 12
29.10374884763955
 22
284.3952215230366
 32
0.0
 13
29.10374884763955
 23
284.3952215230366
 33
0.0
  0
SOLID
  5
1D1
  8
Z_MAN-L
 10
28.80191450692238
 20
299.215317294751
 30
0.0
 11
28.80191450692238
 21
433.9541311636177
 31
0.0
 12
29.10374884763955
 22
303.4400447203137
 32
0.0
 13
29.10374884763955
 23
303.4400447203137
 33
0.0
  0
SOLID
  5
1D2
  8
Z_MAN-L
 10
29.10374884763955
 20
303.4400447203137
 30
0.0
 11
28.80191450692238
 21
433.9541311636177
 31
0.0
 12
29.10374884763955
 22
433.803248103105
 32
0.0
 13
29.10374884763955
 23
433.803248103105
 33
0.0
  0
SOLID
  5
1D3
  8
Z_MAN-L
 10
28.80191450692238
 20
436.0664985054489
 30
0.0
 11
28.80191450692238
 21
437.4244478851688
 31
0.0
 12
29.10374884763955
 22
436.2173816108407
 32
0.0
 13
29.10374884763955
 23
436.2173816108407
 33
0.0
  0
SOLID
  5
1D4
  8
Z_MAN-L
 10
29.10374884763955
 20
436.2173816108407
 30
0.0
 11
28.80191450692238
 21
437.4244478851688
 31
0.0
 12
29.10374884763955
 22
437.1226817346349
 32
0.0
 13
29.10374884763955
 23
437.1226817346349
 33
0.0
  0
SOLID
  5
1D5
  8
Z_MAN-L
 10
28.80191450692238
 20
437.4244478851688
 30
0.0
 11
28.80191450692238
 21
460.1776541393465
 31
0.0
 12
29.10374884763955
 22
438.0279802550932
 32
0.0
 13
29.10374884763955
 23
438.0279802550932
 33
0.0
  0
SOLID
  5
1D6
  8
Z_MAN-L
 10
29.10374884763955
 20
438.0279802550932
 30
0.0
 11
28.80191450692238
 21
460.1776541393465
 31
0.0
 12
29.10374884763955
 22
459.996594433288
 32
0.0
 13
29.10374884763955
 23
459.996594433288
 33
0.0
  0
SOLID
  5
1D7
  8
Z_MAN-L
 10
29.10374884763955
 20
278.0269866924065
 30
0.0
 11
29.10374884763955
 21
284.3952215230366
 31
0.0
 12
29.40558402464565
 22
278.1347605970828
 32
0.0
 13
29.40558402464565
 23
278.1347605970828
 33
0.0
  0
SOLID
  5
1D8
  8
Z_MAN-L
 10
29.40558402464565
 20
278.1347605970828
 30
0.0
 11
29.10374884763955
 21
284.3952215230366
 31
0.0
 12
29.40558402464565
 22
284.1269842522233
 32
0.0
 13
29.40558402464565
 23
284.1269842522233
 33
0.0
  0
SOLID
  5
1D9
  8
Z_MAN-L
 10
29.10374884763955
 20
303.4400447203137
 30
0.0
 11
29.10374884763955
 21
433.803248103105
 31
0.0
 12
29.40558402464565
 22
307.6647838512799
 32
0.0
 13
29.40558402464565
 23
307.6647838512799
 33
0.0
  0
SOLID
  5
1DA
  8
Z_MAN-L
 10
29.40558402464565
 20
307.6647838512799
 30
0.0
 11
29.10374884763955
 21
433.803248103105
 31
0.0
 12
29.40558402464565
 22
433.6523646245423
 32
0.0
 13
29.40558402464565
 23
433.6523646245423
 33
0.0
  0
SOLID
  5
1DB
  8
Z_MAN-L
 10
29.10374884763955
 20
436.2173816108407
 30
0.0
 11
29.10374884763955
 21
437.1226817346349
 31
0.0
 12
29.40558402464565
 22
436.8209147480011
 32
0.0
 13
29.40558402464565
 23
436.8209147480011
 33
0.0
  0
SOLID
  5
1DC
  8
Z_MAN-L
 10
29.10374884763955
 20
438.0279802550932
 30
0.0
 11
29.10374884763955
 21
459.996594433288
 31
0.0
 12
29.40558402464565
 22
438.6315142972178
 32
0.0
 13
29.40558402464565
 23
438.6315142972178
 33
0.0
  0
SOLID
  5
1DD
  8
Z_MAN-L
 10
29.40558402464565
 20
438.6315142972178
 30
0.0
 11
29.10374884763955
 21
459.996594433288
 31
0.0
 12
29.40558402464565
 22
459.8155342255695
 32
0.0
 13
29.40558402464565
 23
459.8155342255695
 33
0.0
  0
SOLID
  5
1DE
  8
Z_MAN-L
 10
29.40558402464565
 20
278.1347605970828
 30
0.0
 11
29.40558402464565
 21
284.1269842522233
 31
0.0
 12
30.31108871937501
 22
278.4580820125046
 32
0.0
 13
30.31108871937501
 23
278.4580820125046
 33
0.0
  0
SOLID
  5
1DF
  8
Z_MAN-L
 10
30.31108871937501
 20
278.4580820125046
 30
0.0
 11
29.40558402464565
 21
284.1269842522233
 31
0.0
 12
30.31108871937501
 22
283.4228619322516
 32
0.0
 13
30.31108871937501
 23
283.4228619322516
 33
0.0
  0
SOLID
  5
1E0
  8
Z_MAN-L
 10
29.40558402464565
 20
307.6647838512799
 30
0.0
 11
29.40558402464565
 21
433.6523646245423
 31
0.0
 12
30.31108871937501
 22
311.2859845294499
 32
0.0
 13
30.31108871937501
 23
311.2859845294499
 33
0.0
  0
SOLID
  5
1E1
  8
Z_MAN-L
 10
30.31108871937501
 20
311.2859845294499
 30
0.0
 11
29.40558402464565
 21
433.6523646245423
 31
0.0
 12
30.31108871937501
 22
433.1997146069043
 32
0.0
 13
30.31108871937501
 23
433.1997146069043
 33
0.0
  0
SOLID
  5
1E2
  8
Z_MAN-L
 10
29.40558402464565
 20
438.6315142972178
 30
0.0
 11
29.40558402464565
 21
459.8155342255695
 31
0.0
 12
30.31108871937501
 22
440.4421147513915
 32
0.0
 13
30.31108871937501
 23
440.4421147513915
 33
0.0
  0
SOLID
  5
1E3
  8
Z_MAN-L
 10
30.31108871937501
 20
440.4421147513915
 30
0.0
 11
29.40558402464565
 21
459.8155342255695
 31
0.0
 12
30.31108871937501
 22
459.2723541040741
 32
0.0
 13
30.31108871937501
 23
459.2723541040741
 33
0.0
  0
SOLID
  5
1E4
  8
Z_MAN-L
 10
30.31108871937501
 20
278.4580820125046
 30
0.0
 11
30.31108871937501
 21
283.4228619322516
 31
0.0
 12
30.91475823709827
 22
278.6736295232501
 32
0.0
 13
30.91475823709827
 23
278.6736295232501
 33
0.0
  0
SOLID
  5
1E5
  8
Z_MAN-L
 10
30.91475823709827
 20
278.6736295232501
 30
0.0
 11
30.31108871937501
 21
283.4228619322516
 31
0.0
 12
30.91475823709827
 22
282.953447269037
 32
0.0
 13
30.91475823709827
 23
282.953447269037
 33
0.0
  0
SOLID
  5
1E6
  8
Z_MAN-L
 10
30.31108871937501
 20
311.2859845294499
 30
0.0
 11
30.31108871937501
 21
433.1997146069043
 31
0.0
 12
30.91475823709827
 22
313.7001172000964
 32
0.0
 13
30.91475823709827
 23
313.7001172000964
 33
0.0
  0
SOLID
  5
1E7
  8
Z_MAN-L
 10
30.91475823709827
 20
313.7001172000964
 30
0.0
 11
30.31108871937501
 21
433.1997146069043
 31
0.0
 12
30.91475823709827
 22
432.9824427113609
 32
0.0
 13
30.91475823709827
 23
432.9824427113609
 33
0.0
  0
SOLID
  5
1E8
  8
Z_MAN-L
 10
30.31108871937501
 20
440.4421147513915
 30
0.0
 11
30.31108871937501
 21
445.8739144417123
 31
0.0
 12
30.91475823709827
 22
441.6491811634405
 32
0.0
 13
30.91475823709827
 23
441.6491811634405
 33
0.0
  0
SOLID
  5
1E9
  8
Z_MAN-L
 10
30.31108871937501
 20
445.8739144417123
 30
0.0
 11
30.31108871937501
 21
454.9269141354162
 31
0.0
 12
30.91475823709827
 22
446.3050095485238
 32
0.0
 13
30.91475823709827
 23
446.3050095485238
 33
0.0
  0
SOLID
  5
1EA
  8
Z_MAN-L
 10
30.91475823709827
 20
446.3050095485238
 30
0.0
 11
30.31108871937501
 21
454.9269141354162
 31
0.0
 12
30.91475823709827
 22
452.7714384130672
 32
0.0
 13
30.91475823709827
 23
452.7714384130672
 33
0.0
  0
SOLID
  5
1EB
  8
Z_MAN-L
 10
30.31108871937501
 20
454.9269141354162
 30
0.0
 11
30.31108871937501
 21
459.2723541040741
 31
0.0
 12
30.91475823709827
 22
455.8322141706923
 32
0.0
 13
30.91475823709827
 23
455.8322141706923
 33
0.0
  0
SOLID
  5
1EC
  8
Z_MAN-L
 10
30.91475823709827
 20
455.8322141706923
 30
0.0
 11
30.31108871937501
 21
459.2723541040741
 31
0.0
 12
30.91475823709827
 22
458.9102341902971
 32
0.0
 13
30.91475823709827
 23
458.9102341902971
 33
0.0
  0
SOLID
  5
1ED
  8
Z_MAN-L
 10
30.91475823709827
 20
278.6736295232501
 30
0.0
 11
30.91475823709827
 21
282.953447269037
 31
0.0
 12
31.51842775482136
 22
278.8891770339956
 32
0.0
 13
31.51842775482136
 23
278.8891770339956
 33
0.0
  0
SOLID
  5
1EE
  8
Z_MAN-L
 10
31.51842775482136
 20
278.8891770339956
 30
0.0
 11
30.91475823709827
 21
282.953447269037
 31
0.0
 12
31.51842775482136
 22
282.4840326058227
 32
0.0
 13
31.51842775482136
 23
282.4840326058227
 33
0.0
  0
SOLID
  5
1EF
  8
Z_MAN-L
 10
30.91475823709827
 20
313.7001172000964
 30
0.0
 11
30.91475823709827
 21
432.9824427113609
 31
0.0
 12
31.51842775482136
 22
315.4352749451733
 32
0.0
 13
31.51842775482136
 23
315.4352749451733
 33
0.0
  0
SOLID
  5
1F0
  8
Z_MAN-L
 10
31.51842775482136
 20
315.4352749451733
 30
0.0
 11
30.91475823709827
 21
432.9824427113609
 31
0.0
 12
31.51842775482136
 22
432.7651708158175
 32
0.0
 13
31.51842775482136
 23
432.7651708158175
 33
0.0
  0
SOLID
  5
1F1
  8
Z_MAN-L
 10
30.91475823709827
 20
446.3050095485238
 30
0.0
 11
30.91475823709827
 21
452.7714384130672
 31
0.0
 12
31.51842775482136
 22
446.7361046553352
 32
0.0
 13
31.51842775482136
 23
446.7361046553352
 33
0.0
  0
SOLID
  5
1F2
  8
Z_MAN-L
 10
31.51842775482136
 20
446.7361046553352
 30
0.0
 11
30.91475823709827
 21
452.7714384130672
 31
0.0
 12
31.51842775482136
 22
450.6159626907189
 32
0.0
 13
31.51842775482136
 23
450.6159626907189
 33
0.0
  0
SOLID
  5
1F3
  8
Z_MAN-L
 10
30.91475823709827
 20
455.8322141706923
 30
0.0
 11
30.91475823709827
 21
458.9102341902971
 31
0.0
 12
31.51842775482136
 22
456.7375142059682
 32
0.0
 13
31.51842775482136
 23
456.7375142059682
 33
0.0
  0
SOLID
  5
1F4
  8
Z_MAN-L
 10
31.51842775482136
 20
456.7375142059682
 30
0.0
 11
30.91475823709827
 21
458.9102341902971
 31
0.0
 12
31.51842775482136
 22
458.5481142765202
 32
0.0
 13
31.51842775482136
 23
458.5481142765202
 33
0.0
  0
SOLID
  5
1F5
  8
Z_MAN-L
 10
31.51842775482136
 20
278.8891770339956
 30
0.0
 11
31.51842775482136
 21
282.4840326058227
 31
0.0
 12
31.82026293182763
 22
278.9969509386719
 32
0.0
 13
31.82026293182763
 23
278.9969509386719
 33
0.0
  0
SOLID
  5
1F6
  8
Z_MAN-L
 10
31.82026293182763
 20
278.9969509386719
 30
0.0
 11
31.51842775482136
 21
282.4840326058227
 31
0.0
 12
31.82026293182763
 22
282.2493249490653
 32
0.0
 13
31.82026293182763
 23
282.2493249490653
 33
0.0
  0
SOLID
  5
1F7
  8
Z_MAN-L
 10
31.51842775482136
 20
315.4352749451733
 30
0.0
 11
31.51842775482136
 21
432.7651708158175
 31
0.0
 12
31.82026293182763
 22
316.3028550196061
 32
0.0
 13
31.82026293182763
 23
316.3028550196061
 33
0.0
  0
SOLID
  5
1F8
  8
Z_MAN-L
 10
31.82026293182763
 20
316.3028550196061
 30
0.0
 11
31.51842775482136
 21
432.7651708158175
 31
0.0
 12
31.82026293182763
 22
432.6565347175477
 32
0.0
 13
31.82026293182763
 23
432.6565347175477
 33
0.0
  0
SOLID
  5
1F9
  8
Z_MAN-L
 10
31.51842775482136
 20
446.7361046553352
 30
0.0
 11
31.51842775482136
 21
450.6159626907189
 31
0.0
 12
31.82026293182763
 22
446.9516525073482
 32
0.0
 13
31.82026293182763
 23
446.9516525073482
 33
0.0
  0
SOLID
  5
1FA
  8
Z_MAN-L
 10
31.82026293182763
 20
446.9516525073482
 30
0.0
 11
31.51842775482136
 21
450.6159626907189
 31
0.0
 12
31.82026293182763
 22
449.5382233365079
 32
0.0
 13
31.82026293182763
 23
449.5382233365079
 33
0.0
  0
SOLID
  5
1FB
  8
Z_MAN-L
 10
31.82026293182763
 20
278.9969509386719
 30
0.0
 11
31.82026293182763
 21
282.2493249490653
 31
0.0
 12
32.12209727254445
 22
282.0146179426083
 32
0.0
 13
32.12209727254445
 23
282.0146179426083
 33
0.0
  0
SOLID
  5
1FC
  8
Z_MAN-L
 10
31.82026293182763
 20
316.3028550196061
 30
0.0
 11
31.82026293182763
 21
432.6565347175477
 31
0.0
 12
32.12209727254445
 22
317.17043269025
 32
0.0
 13
32.12209727254445
 23
317.17043269025
 33
0.0
  0
SOLID
  5
1FD
  8
Z_MAN-L
 10
32.12209727254445
 20
317.17043269025
 30
0.0
 11
31.82026293182763
 21
432.6565347175477
 31
0.0
 12
32.12209727254445
 22
432.5478989202741
 32
0.0
 13
32.12209727254445
 23
432.5478989202741
 33
0.0
  0
SOLID
  5
1FE
  8
Z_MAN-L
 10
31.82026293182763
 20
446.9516525073482
 30
0.0
 11
31.82026293182763
 21
449.5382233365079
 31
0.0
 12
32.12209727254445
 22
447.1671997621466
 32
0.0
 13
32.12209727254445
 23
447.1671997621466
 33
0.0
  0
SOLID
  5
1FF
  8
Z_MAN-L
 10
32.12209727254445
 20
447.1671997621466
 30
0.0
 11
31.82026293182763
 21
449.5382233365079
 31
0.0
 12
32.12209727254445
 22
448.4604869683706
 32
0.0
 13
32.12209727254445
 23
448.4604869683706
 33
0.0
  0
SOLID
  5
200
  8
Z_MAN-L
 10
32.12209727254445
 20
317.17043269025
 30
0.0
 11
32.12209727254445
 21
432.5478989202741
 31
0.0
 12
32.42393244955072
 22
318.0380127646829
 32
0.0
 13
32.42393244955072
 23
318.0380127646829
 33
0.0
  0
SOLID
  5
201
  8
Z_MAN-L
 10
32.42393244955072
 20
318.0380127646829
 30
0.0
 11
32.12209727254445
 21
432.5478989202741
 31
0.0
 12
32.42393244955072
 22
432.4392628220044
 32
0.0
 13
32.42393244955072
 23
432.4392628220044
 33
0.0
  0
SOLID
  5
202
  8
Z_MAN-L
 10
32.12209727254445
 20
447.1671997621466
 30
0.0
 11
32.12209727254445
 21
448.4604869683706
 31
0.0
 12
32.42393244955072
 22
447.3827476141596
 32
0.0
 13
32.42393244955072
 23
447.3827476141596
 33
0.0
  0
SOLID
  5
203
  8
Z_MAN-L
 10
32.42393244955072
 20
318.0380127646829
 30
0.0
 11
32.42393244955072
 21
432.4392628220044
 31
0.0
 12
33.32943714428008
 22
320.6407505841926
 32
0.0
 13
33.32943714428008
 23
320.6407505841926
 33
0.0
  0
SOLID
  5
204
  8
Z_MAN-L
 10
33.32943714428008
 20
320.6407505841926
 30
0.0
 11
32.42393244955072
 21
432.4392628220044
 31
0.0
 12
33.32943714428008
 22
432.1133548281912
 32
0.0
 13
33.32943714428008
 23
432.1133548281912
 33
0.0
  0
SOLID
  5
205
  8
Z_MAN-L
 10
33.32943714428008
 20
320.6407505841926
 30
0.0
 11
33.32943714428008
 21
432.1133548281912
 31
0.0
 12
33.63127232128635
 22
329.6937502778965
 32
0.0
 13
33.63127232128635
 23
329.6937502778965
 33
0.0
  0
SOLID
  5
206
  8
Z_MAN-L
 10
33.63127232128635
 20
329.6937502778965
 30
0.0
 11
33.32943714428008
 21
432.1133548281912
 31
0.0
 12
33.63127232128635
 22
432.0047187299215
 32
0.0
 13
33.63127232128635
 23
432.0047187299215
 33
0.0
  0
SOLID
  5
207
  8
Z_MAN-L
 10
33.63127232128635
 20
329.6937502778965
 30
0.0
 11
33.63127232128635
 21
432.0047187299215
 31
0.0
 12
34.23494183900944
 22
334.8237835914479
 32
0.0
 13
34.23494183900944
 23
334.8237835914479
 33
0.0
  0
SOLID
  5
208
  8
Z_MAN-L
 10
34.23494183900944
 20
334.8237835914479
 30
0.0
 11
33.63127232128635
 21
432.0047187299215
 31
0.0
 12
34.23494183900944
 22
431.7874468343782
 32
0.0
 13
34.23494183900944
 23
431.7874468343782
 33
0.0
  0
SOLID
  5
209
  8
Z_MAN-L
 10
34.23494183900944
 20
334.8237835914479
 30
0.0
 11
34.23494183900944
 21
431.7874468343782
 31
0.0
 12
35.44228087445579
 22
338.1432168344327
 32
0.0
 13
35.44228087445579
 23
338.1432168344327
 33
0.0
  0
SOLID
  5
20A
  8
Z_MAN-L
 10
35.44228087445579
 20
338.1432168344327
 30
0.0
 11
34.23494183900944
 21
431.7874468343782
 31
0.0
 12
35.44228087445579
 22
431.3529030432913
 32
0.0
 13
35.44228087445579
 23
431.3529030432913
 33
0.0
  0
SOLID
  5
20B
  8
Z_MAN-L
 10
35.74411605146206
 20
325.770783897744
 30
0.0
 11
35.44228087445579
 21
329.6937502778965
 31
0.0
 12
35.74411605146206
 22
331.6552334679799
 32
0.0
 13
35.74411605146206
 23
331.6552334679799
 33
0.0
  0
SOLID
  5
20C
  8
Z_MAN-L
 10
35.44228087445579
 20
344.4803164223194
 30
0.0
 11
35.44228087445579
 21
431.3529030432913
 31
0.0
 12
35.74411605146206
 22
339.0485165401916
 32
0.0
 13
35.74411605146206
 23
339.0485165401916
 33
0.0
  0
SOLID
  5
20D
  8
Z_MAN-L
 10
35.74411605146206
 20
339.0485165401916
 30
0.0
 11
35.44228087445579
 21
431.3529030432913
 31
0.0
 12
35.74411605146206
 22
431.2442669450216
 32
0.0
 13
35.74411605146206
 23
431.2442669450216
 33
0.0
  0
SOLID
  5
20E
  8
Z_MAN-L
 10
35.74411605146206
 20
325.770783897744
 30
0.0
 11
35.74411605146206
 21
331.6552334679799
 31
0.0
 12
36.04595122846834
 22
325.1422656124571
 32
0.0
 13
36.04595122846834
 23
325.1422656124571
 33
0.0
  0
SOLID
  5
20F
  8
Z_MAN-L
 10
36.04595122846834
 20
325.1422656124571
 30
0.0
 11
35.74411605146206
 21
331.6552334679799
 31
0.0
 12
36.04595122846834
 22
333.6167166580635
 32
0.0
 13
36.04595122846834
 23
333.6167166580635
 33
0.0
  0
SOLID
  5
210
  8
Z_MAN-L
 10
35.74411605146206
 20
339.0485165401916
 30
0.0
 11
35.74411605146206
 21
431.2442669450216
 31
0.0
 12
36.04595122846834
 22
333.6167166580635
 32
0.0
 13
36.04595122846834
 23
333.6167166580635
 33
0.0
  0
SOLID
  5
211
  8
Z_MAN-L
 10
36.04595122846834
 20
333.6167166580635
 30
0.0
 11
35.74411605146206
 21
431.2442669450216
 31
0.0
 12
36.04595122846834
 22
431.1356308467518
 32
0.0
 13
36.04595122846834
 23
431.1356308467518
 33
0.0
  0
SOLID
  5
212
  8
Z_MAN-L
 10
36.04595122846834
 20
325.1422656124571
 30
0.0
 11
36.04595122846834
 21
431.1356308467518
 31
0.0
 12
36.95145508690841
 22
323.2567142394454
 32
0.0
 13
36.95145508690841
 23
323.2567142394454
 33
0.0
  0
SOLID
  5
213
  8
Z_MAN-L
 10
36.95145508690841
 20
323.2567142394454
 30
0.0
 11
36.04595122846834
 21
431.1356308467518
 31
0.0
 12
36.95145508690841
 22
430.8097231539348
 32
0.0
 13
36.95145508690841
 23
430.8097231539348
 33
0.0
  0
SOLID
  5
214
  8
Z_MAN-L
 10
36.95145508690841
 20
323.2567142394454
 30
0.0
 11
36.95145508690841
 21
430.8097231539348
 31
0.0
 12
37.25329026391469
 22
322.6281959541586
 32
0.0
 13
37.25329026391469
 23
322.6281959541586
 33
0.0
  0
SOLID
  5
215
  8
Z_MAN-L
 10
37.25329026391469
 20
322.6281959541586
 30
0.0
 11
36.95145508690841
 21
430.8097231539348
 31
0.0
 12
37.25329026391469
 22
430.701087055665
 32
0.0
 13
37.25329026391469
 23
430.701087055665
 33
0.0
  0
SOLID
  5
216
  8
Z_MAN-L
 10
37.25329026391469
 20
435.085756454237
 30
0.0
 11
36.95145508690841
 21
435.0103146774563
 31
0.0
 12
37.25329026391469
 22
437.4244478851688
 32
0.0
 13
37.25329026391469
 23
437.4244478851688
 33
0.0
  0
SOLID
  5
217
  8
Z_MAN-L
 10
37.48313560133312
 20
315.5410726590251
 30
0.0
 11
37.25329026391469
 21
318.5283836155359
 31
0.0
 12
37.48313560133312
 22
322.1495837566399
 32
0.0
 13
37.48313560133312
 23
322.1495837566399
 33
0.0
  0
SOLID
  5
218
  8
Z_MAN-L
 10
37.25329026391469
 20
322.6281959541586
 30
0.0
 11
37.25329026391469
 21
430.701087055665
 31
0.0
 12
37.48313560133312
 22
322.1495837566399
 32
0.0
 13
37.48313560133312
 23
322.1495837566399
 33
0.0
  0
SOLID
  5
219
  8
Z_MAN-L
 10
37.48313560133312
 20
322.1495837566399
 30
0.0
 11
37.25329026391469
 21
430.701087055665
 31
0.0
 12
37.48313560133312
 22
430.6183614406115
 32
0.0
 13
37.48313560133312
 23
430.6183614406115
 33
0.0
  0
SOLID
  5
21A
  8
Z_MAN-L
 10
37.25329026391469
 20
435.085756454237
 30
0.0
 11
37.25329026391469
 21
437.4244478851688
 31
0.0
 12
37.48313560133312
 22
435.1432048299087
 32
0.0
 13
37.48313560133312
 23
435.1432048299087
 33
0.0
  0
SOLID
  5
21B
  8
Z_MAN-L
 10
37.48313560133312
 20
435.1432048299087
 30
0.0
 11
37.25329026391469
 21
437.4244478851688
 31
0.0
 12
37.48313560133312
 22
437.6236022031104
 32
0.0
 13
37.48313560133312
 23
437.6236022031104
 33
0.0
  0
SOLID
  5
21C
  8
Z_MAN-L
 10
37.48313560133312
 20
315.5410726590251
 30
0.0
 11
37.48313560133312
 21
430.6183614406115
 31
0.0
 12
37.55512544092078
 22
314.6054172353688
 32
0.0
 13
37.55512544092078
 23
314.6054172353688
 33
0.0
  0
SOLID
  5
21D
  8
Z_MAN-L
 10
37.55512544092078
 20
314.6054172353688
 30
0.0
 11
37.48313560133312
 21
430.6183614406115
 31
0.0
 12
37.55512544092078
 22
430.5924509573953
 32
0.0
 13
37.55512544092078
 23
430.5924509573953
 33
0.0
  0
SOLID
  5
21E
  8
Z_MAN-L
 10
37.48313560133312
 20
435.1432048299087
 30
0.0
 11
37.48313560133312
 21
437.6236022031104
 31
0.0
 12
37.55512544092078
 22
435.1611982310176
 32
0.0
 13
37.55512544092078
 23
435.1611982310176
 33
0.0
  0
SOLID
  5
21F
  8
Z_MAN-L
 10
37.55512544092078
 20
435.1611982310176
 30
0.0
 11
37.48313560133312
 21
437.6236022031104
 31
0.0
 12
37.55512544092078
 22
437.6859793109641
 32
0.0
 13
37.55512544092078
 23
437.6859793109641
 33
0.0
  0
SOLID
  5
220
  8
Z_MAN-L
 10
37.55512544092078
 20
314.6054172353688
 30
0.0
 11
37.55512544092078
 21
430.5924509573953
 31
0.0
 12
37.85695978163795
 22
314.3371806251794
 32
0.0
 13
37.85695978163795
 23
314.3371806251794
 33
0.0
  0
SOLID
  5
221
  8
Z_MAN-L
 10
37.85695978163795
 20
314.3371806251794
 30
0.0
 11
37.55512544092078
 21
430.5924509573953
 31
0.0
 12
37.85695978163795
 22
430.4838151601216
 32
0.0
 13
37.85695978163795
 23
430.4838151601216
 33
0.0
  0
SOLID
  5
222
  8
Z_MAN-L
 10
37.55512544092078
 20
435.1611982310176
 30
0.0
 11
37.55512544092078
 21
437.6859793109641
 31
0.0
 12
37.85695978163795
 22
435.2366397987732
 32
0.0
 13
37.85695978163795
 23
435.2366397987732
 33
0.0
  0
SOLID
  5
223
  8
Z_MAN-L
 10
37.85695978163795
 20
435.2366397987732
 30
0.0
 11
37.55512544092078
 21
437.6859793109641
 31
0.0
 12
37.85695978163795
 22
437.9475100121393
 32
0.0
 13
37.85695978163795
 23
437.9475100121393
 33
0.0
  0
SOLID
  5
224
  8
Z_MAN-L
 10
37.85695978163795
 20
314.3371806251794
 30
0.0
 11
37.85695978163795
 21
430.4838151601216
 31
0.0
 12
38.15879495864387
 22
314.06894327179
 32
0.0
 13
38.15879495864387
 23
314.06894327179
 33
0.0
  0
SOLID
  5
225
  8
Z_MAN-L
 10
38.15879495864387
 20
314.06894327179
 30
0.0
 11
37.85695978163795
 21
430.4838151601216
 31
0.0
 12
38.15879495864387
 22
435.3120815755537
 32
0.0
 13
38.15879495864387
 23
435.3120815755537
 33
0.0
  0
SOLID
  5
226
  8
Z_MAN-L
 10
37.85695978163795
 20
435.2366397987732
 30
0.0
 11
37.85695978163795
 21
437.9475100121393
 31
0.0
 12
38.15879495864387
 22
435.3120815755537
 32
0.0
 13
38.15879495864387
 23
435.3120815755537
 33
0.0
  0
SOLID
  5
227
  8
Z_MAN-L
 10
38.15879495864387
 20
435.3120815755537
 30
0.0
 11
37.85695978163795
 21
437.9475100121393
 31
0.0
 12
38.15879495864387
 22
438.2090414379344
 32
0.0
 13
38.15879495864387
 23
438.2090414379344
 33
0.0
  0
SOLID
  5
228
  8
Z_MAN-L
 10
38.15879495864387
 20
314.06894327179
 30
0.0
 11
38.15879495864387
 21
438.2090414379344
 31
0.0
 12
39.96980434810258
 22
312.4595206378531
 32
0.0
 13
39.96980434810258
 23
312.4595206378531
 33
0.0
  0
SOLID
  5
229
  8
Z_MAN-L
 10
39.96980434810258
 20
312.4595206378531
 30
0.0
 11
38.15879495864387
 21
438.2090414379344
 31
0.0
 12
39.96980434810258
 22
439.7782285434661
 32
0.0
 13
39.96980434810258
 23
439.7782285434661
 33
0.0
  0
SOLID
  5
22A
  8
Z_MAN-L
 10
39.96980434810258
 20
284.1269842522233
 30
0.0
 11
39.96980434810258
 21
287.7481843933201
 31
0.0
 12
40.27163868881976
 22
284.0172511203938
 32
0.0
 13
40.27163868881976
 23
284.0172511203938
 33
0.0
  0
SOLID
  5
22B
  8
Z_MAN-L
 10
40.27163868881976
 20
284.0172511203938
 30
0.0
 11
39.96980434810258
 21
287.7481843933201
 31
0.0
 12
40.27163868881976
 22
287.9292440993801
 32
0.0
 13
40.27163868881976
 23
287.9292440993801
 33
0.0
  0
SOLID
  5
22C
  8
Z_MAN-L
 10
39.96980434810258
 20
312.4595206378531
 30
0.0
 11
39.96980434810258
 21
439.7782285434661
 31
0.0
 12
40.27163868881976
 22
312.1912840276636
 32
0.0
 13
40.27163868881976
 23
312.1912840276636
 33
0.0
  0
SOLID
  5
22D
  8
Z_MAN-L
 10
40.27163868881976
 20
312.1912840276636
 30
0.0
 11
39.96980434810258
 21
439.7782285434661
 31
0.0
 12
40.27163868881976
 22
440.0397592446413
 32
0.0
 13
40.27163868881976
 23
440.0397592446413
 33
0.0
  0
SOLID
  5
22E
  8
Z_MAN-L
 10
40.27163868881976
 20
284.0172511203938
 30
0.0
 11
40.27163868881976
 21
287.9292440993801
 31
0.0
 12
41.47897856055503
 22
283.5783176809668
 32
0.0
 13
41.47897856055503
 23
283.5783176809668
 33
0.0
  0
SOLID
  5
22F
  8
Z_MAN-L
 10
41.47897856055503
 20
283.5783176809668
 30
0.0
 11
40.27163868881976
 21
287.9292440993801
 31
0.0
 12
41.47897856055503
 22
288.6534844285998
 32
0.0
 13
41.47897856055503
 23
288.6534844285998
 33
0.0
  0
SOLID
  5
230
  8
Z_MAN-L
 10
40.27163868881976
 20
312.1912840276636
 30
0.0
 11
40.27163868881976
 21
440.0397592446413
 31
0.0
 12
41.47897856055503
 22
309.5759720643413
 32
0.0
 13
41.47897856055503
 23
309.5759720643413
 33
0.0
  0
SOLID
  5
231
  8
Z_MAN-L
 10
41.47897856055503
 20
309.5759720643413
 30
0.0
 11
40.27163868881976
 21
440.0397592446413
 31
0.0
 12
41.47897856055503
 22
441.0858842232023
 32
0.0
 13
41.47897856055503
 23
441.0858842232023
 33
0.0
  0
SOLID
  5
232
  8
Z_MAN-L
 10
41.47897856055503
 20
283.5783176809668
 30
0.0
 11
41.47897856055503
 21
288.6534844285998
 31
0.0
 12
41.7808129012722
 22
283.4685845491372
 32
0.0
 13
41.7808129012722
 23
283.4685845491372
 33
0.0
  0
SOLID
  5
233
  8
Z_MAN-L
 10
41.7808129012722
 20
283.4685845491372
 30
0.0
 11
41.47897856055503
 21
288.6534844285998
 31
0.0
 12
41.7808129012722
 22
288.9826838609943
 32
0.0
 13
41.7808129012722
 23
288.9826838609943
 33
0.0
  0
SOLID
  5
234
  8
Z_MAN-L
 10
41.47897856055503
 20
309.5759720643413
 30
0.0
 11
41.47897856055503
 21
441.0858842232023
 31
0.0
 12
41.7808129012722
 22
308.9221454321731
 32
0.0
 13
41.7808129012722
 23
308.9221454321731
 33
0.0
  0
SOLID
  5
235
  8
Z_MAN-L
 10
41.7808129012722
 20
308.9221454321731
 30
0.0
 11
41.47897856055503
 21
441.0858842232023
 31
0.0
 12
41.7808129012722
 22
441.3474149243775
 32
0.0
 13
41.7808129012722
 23
441.3474149243775
 33
0.0
  0
SOLID
  5
236
  8
Z_MAN-L
 10
41.7808129012722
 20
283.4685845491372
 30
0.0
 11
41.7808129012722
 21
288.9826838609943
 31
0.0
 12
42.0826480782783
 22
283.3588511132714
 32
0.0
 13
42.0826480782783
 23
283.3588511132714
 33
0.0
  0
SOLID
  5
237
  8
Z_MAN-L
 10
42.0826480782783
 20
283.3588511132714
 30
0.0
 11
41.7808129012722
 21
288.9826838609943
 31
0.0
 12
42.0826480782783
 22
289.311884205498
 32
0.0
 13
42.0826480782783
 23
289.311884205498
 33
0.0
  0
SOLID
  5
238
  8
Z_MAN-L
 10
41.7808129012722
 20
308.9221454321731
 30
0.0
 11
41.7808129012722
 21
441.3474149243775
 31
0.0
 12
42.0826480782783
 22
308.2683169884549
 32
0.0
 13
42.0826480782783
 23
308.2683169884549
 33
0.0
  0
SOLID
  5
239
  8
Z_MAN-L
 10
42.0826480782783
 20
308.2683169884549
 30
0.0
 11
41.7808129012722
 21
441.3474149243775
 31
0.0
 12
42.0826480782783
 22
441.507173871591
 32
0.0
 13
42.0826480782783
 23
441.507173871591
 33
0.0
  0
SOLID
  5
23A
  8
Z_MAN-L
 10
42.0826480782783
 20
283.3588511132714
 30
0.0
 11
42.0826480782783
 21
289.311884205498
 31
0.0
 12
43.28998711372465
 22
282.9199179778807
 32
0.0
 13
43.28998711372465
 23
282.9199179778807
 33
0.0
  0
SOLID
  5
23B
  8
Z_MAN-L
 10
43.28998711372465
 20
282.9199179778807
 30
0.0
 11
42.0826480782783
 21
289.311884205498
 31
0.0
 12
43.28998711372465
 22
290.6286837592942
 32
0.0
 13
43.28998711372465
 23
290.6286837592942
 33
0.0
  0
SOLID
  5
23C
  8
Z_MAN-L
 10
42.0826480782783
 20
308.2683169884549
 30
0.0
 11
42.0826480782783
 21
441.507173871591
 31
0.0
 12
43.28998711372465
 22
306.5247771801808
 32
0.0
 13
43.28998711372465
 23
306.5247771801808
 33
0.0
  0
SOLID
  5
23D
  8
Z_MAN-L
 10
43.28998711372465
 20
306.5247771801808
 30
0.0
 11
42.0826480782783
 21
441.507173871591
 31
0.0
 12
43.28998711372465
 22
442.1462087751627
 32
0.0
 13
43.28998711372465
 23
442.1462087751627
 33
0.0
  0
SOLID
  5
23E
  8
Z_MAN-L
 10
43.28998711372465
 20
282.9199179778807
 30
0.0
 11
43.28998711372465
 21
290.6286837592942
 31
0.0
 12
44.79916216246656
 22
283.1713902112702
 32
0.0
 13
44.79916216246656
 23
283.1713902112702
 33
0.0
  0
SOLID
  5
23F
  8
Z_MAN-L
 10
44.79916216246656
 20
283.1713902112702
 30
0.0
 11
43.28998711372465
 21
290.6286837592942
 31
0.0
 12
44.79916216246656
 22
292.2746845697038
 32
0.0
 13
44.79916216246656
 23
292.2746845697038
 33
0.0
  0
SOLID
  5
240
  8
Z_MAN-L
 10
43.28998711372465
 20
306.5247771801808
 30
0.0
 11
43.28998711372465
 21
442.1462087751627
 31
0.0
 12
44.79916216246656
 22
304.3453506082878
 32
0.0
 13
44.79916216246656
 23
304.3453506082878
 33
0.0
  0
SOLID
  5
241
  8
Z_MAN-L
 10
44.79916216246656
 20
304.3453506082878
 30
0.0
 11
43.28998711372465
 21
442.1462087751627
 31
0.0
 12
44.79916216246656
 22
442.9450030685892
 32
0.0
 13
44.79916216246656
 23
442.9450030685892
 33
0.0
  0
SOLID
  5
242
  8
Z_MAN-L
 10
44.79916216246656
 20
283.1713902112702
 30
0.0
 11
44.79916216246656
 21
292.2746845697038
 31
0.0
 12
45.10099650318355
 22
283.2216845464682
 32
0.0
 13
45.10099650318355
 23
283.2216845464682
 33
0.0
  0
SOLID
  5
243
  8
Z_MAN-L
 10
45.10099650318355
 20
283.2216845464682
 30
0.0
 11
44.79916216246656
 21
292.2746845697038
 31
0.0
 12
45.10099650318355
 22
292.9536584907848
 32
0.0
 13
45.10099650318355
 23
292.9536584907848
 33
0.0
  0
SOLID
  5
244
  8
Z_MAN-L
 10
44.79916216246656
 20
304.3453506082878
 30
0.0
 11
44.79916216246656
 21
442.9450030685892
 31
0.0
 12
45.10099650318355
 22
301.6294505024707
 32
0.0
 13
45.10099650318355
 23
301.6294505024707
 33
0.0
  0
SOLID
  5
245
  8
Z_MAN-L
 10
45.10099650318355
 20
301.6294505024707
 30
0.0
 11
44.79916216246656
 21
442.9450030685892
 31
0.0
 12
45.10099650318355
 22
443.1047615731616
 32
0.0
 13
45.10099650318355
 23
443.1047615731616
 33
0.0
  0
SOLID
  5
246
  8
Z_MAN-L
 10
45.10099650318355
 20
283.2216845464682
 30
0.0
 11
45.10099650318355
 21
292.9536584907848
 31
0.0
 12
46.00650119791291
 22
283.372567830762
 32
0.0
 13
46.00650119791291
 23
283.372567830762
 33
0.0
  0
SOLID
  5
247
  8
Z_MAN-L
 10
46.00650119791291
 20
283.372567830762
 30
0.0
 11
45.10099650318355
 21
292.9536584907848
 31
0.0
 12
46.00650119791291
 22
294.9905840164793
 32
0.0
 13
46.00650119791291
 23
294.9905840164793
 33
0.0
  0
SOLID
  5
248
  8
Z_MAN-L
 10
45.10099650318355
 20
301.6294505024707
 30
0.0
 11
45.10099650318355
 21
443.1047615731616
 31
0.0
 12
46.00650119791291
 22
300.2715012573752
 32
0.0
 13
46.00650119791291
 23
300.2715012573752
 33
0.0
  0
SOLID
  5
249
  8
Z_MAN-L
 10
46.00650119791291
 20
300.2715012573752
 30
0.0
 11
45.10099650318355
 21
443.1047615731616
 31
0.0
 12
46.00650119791291
 22
443.584037972161
 32
0.0
 13
46.00650119791291
 23
443.584037972161
 33
0.0
  0
SOLID
  5
24A
  8
Z_MAN-L
 10
46.00650119791291
 20
283.372567830762
 30
0.0
 11
46.00650119791291
 21
294.9905840164793
 31
0.0
 12
46.30833637491899
 22
283.4228623053098
 32
0.0
 13
46.30833637491899
 23
283.4228623053098
 33
0.0
  0
SOLID
  5
24B
  8
Z_MAN-L
 10
46.30833637491899
 20
283.4228623053098
 30
0.0
 11
46.00650119791291
 21
294.9905840164793
 31
0.0
 12
46.30833637491899
 22
295.5438234012612
 32
0.0
 13
46.30833637491899
 23
295.5438234012612
 33
0.0
  0
SOLID
  5
24C
  8
Z_MAN-L
 10
46.00650119791291
 20
300.2715012573752
 30
0.0
 11
46.00650119791291
 21
443.584037972161
 31
0.0
 12
46.30833637491899
 22
299.8188510909604
 32
0.0
 13
46.30833637491899
 23
299.8188510909604
 33
0.0
  0
SOLID
  5
24D
  8
Z_MAN-L
 10
46.30833637491899
 20
299.8188510909604
 30
0.0
 11
46.00650119791291
 21
443.584037972161
 31
0.0
 12
46.30833637491899
 22
443.7437969193744
 32
0.0
 13
46.30833637491899
 23
443.7437969193744
 33
0.0
  0
SOLID
  5
24E
  8
Z_MAN-L
 10
46.30833637491899
 20
283.4228623053098
 30
0.0
 11
46.30833637491899
 21
295.5438234012612
 31
0.0
 12
46.91200589264209
 22
283.5234511150557
 32
0.0
 13
46.91200589264209
 23
283.5234511150557
 33
0.0
  0
SOLID
  5
24F
  8
Z_MAN-L
 10
46.91200589264209
 20
283.5234511150557
 30
0.0
 11
46.30833637491899
 21
295.5438234012612
 31
0.0
 12
46.91200589264209
 22
296.650300637975
 32
0.0
 13
46.91200589264209
 23
296.650300637975
 33
0.0
  0
SOLID
  5
250
  8
Z_MAN-L
 10
46.30833637491899
 20
299.8188510909604
 30
0.0
 11
46.30833637491899
 21
443.7437969193744
 31
0.0
 12
46.91200589264209
 22
299.215317725585
 32
0.0
 13
46.91200589264209
 23
299.215317725585
 33
0.0
  0
SOLID
  5
251
  8
Z_MAN-L
 10
46.91200589264209
 20
299.215317725585
 30
0.0
 11
46.30833637491899
 21
443.7437969193744
 31
0.0
 12
46.91200589264209
 22
444.0633143711602
 32
0.0
 13
46.91200589264209
 23
444.0633143711602
 33
0.0
  0
SOLID
  5
252
  8
Z_MAN-L
 10
46.91200589264209
 20
283.5234511150557
 30
0.0
 11
46.91200589264209
 21
296.650300637975
 31
0.0
 12
47.81751058737163
 22
284.4287511724632
 32
0.0
 13
47.81751058737163
 23
284.4287511724632
 33
0.0
  0
SOLID
  5
253
  8
Z_MAN-L
 10
47.81751058737163
 20
284.4287511724632
 30
0.0
 11
46.91200589264209
 21
296.650300637975
 31
0.0
 12
47.81751058737163
 22
298.3100172594714
 32
0.0
 13
47.81751058737163
 23
298.3100172594714
 33
0.0
  0
SOLID
  5
254
  8
Z_MAN-L
 10
46.91200589264209
 20
299.215317725585
 30
0.0
 11
46.91200589264209
 21
444.0633143711602
 31
0.0
 12
47.81751058737163
 22
298.3100172594714
 32
0.0
 13
47.81751058737163
 23
298.3100172594714
 33
0.0
  0
SOLID
  5
255
  8
Z_MAN-L
 10
47.81751058737163
 20
298.3100172594714
 30
0.0
 11
46.91200589264209
 21
444.0633143711602
 31
0.0
 12
47.81751058737163
 22
444.1236677619292
 32
0.0
 13
47.81751058737163
 23
444.1236677619292
 33
0.0
  0
SOLID
  5
256
  8
Z_MAN-L
 10
47.81751058737163
 20
284.4287511724632
 30
0.0
 11
47.81751058737163
 21
444.1236677619292
 31
0.0
 12
49.32668479982406
 22
285.9375843227754
 32
0.0
 13
49.32668479982406
 23
285.9375843227754
 33
0.0
  0
SOLID
  5
257
  8
Z_MAN-L
 10
49.32668479982406
 20
285.9375843227754
 30
0.0
 11
47.81751058737163
 21
444.1236677619292
 31
0.0
 12
49.32668479982406
 22
444.2242567279641
 32
0.0
 13
49.32668479982406
 23
444.2242567279641
 33
0.0
  0
SOLID
  5
258
  8
Z_MAN-L
 10
49.32668479982406
 20
285.9375843227754
 30
0.0
 11
49.32668479982406
 21
444.2242567279641
 31
0.0
 12
51.43952852999979
 22
288.5193658475361
 32
0.0
 13
51.43952852999979
 23
288.5193658475361
 33
0.0
  0
SOLID
  5
259
  8
Z_MAN-L
 10
51.43952852999979
 20
288.5193658475361
 30
0.0
 11
49.32668479982406
 21
444.2242567279641
 31
0.0
 12
51.43952852999979
 22
444.3650812692649
 32
0.0
 13
51.43952852999979
 23
444.3650812692649
 33
0.0
  0
SOLID
  5
25A
  8
Z_MAN-L
 10
51.43952852999979
 20
288.5193658475361
 30
0.0
 11
51.43952852999979
 21
444.3650812692649
 31
0.0
 12
51.74136370700606
 22
288.8881922176021
 32
0.0
 13
51.74136370700606
 23
288.8881922176021
 33
0.0
  0
SOLID
  5
25B
  8
Z_MAN-L
 10
51.74136370700606
 20
288.8881922176021
 30
0.0
 11
51.43952852999979
 21
444.3650812692649
 31
0.0
 12
51.74136370700606
 22
444.2896395075444
 32
0.0
 13
51.74136370700606
 23
444.2896395075444
 33
0.0
  0
SOLID
  5
25C
  8
Z_MAN-L
 10
51.74136370700606
 20
288.8881922176021
 30
0.0
 11
51.74136370700606
 21
325.16725010152
 31
0.0
 12
52.04319804772287
 22
289.2570175657675
 32
0.0
 13
52.04319804772287
 23
289.2570175657675
 33
0.0
  0
SOLID
  5
25D
  8
Z_MAN-L
 10
52.04319804772287
 20
289.2570175657675
 30
0.0
 11
51.74136370700606
 21
325.16725010152
 31
0.0
 12
52.04319804772287
 22
322.3004708476465
 32
0.0
 13
52.04319804772287
 23
322.3004708476465
 33
0.0
  0
SOLID
  5
25E
  8
Z_MAN-L
 10
51.74136370700606
 20
325.16725010152
 30
0.0
 11
51.74136370700606
 21
444.2896395075444
 31
0.0
 12
52.04319804772287
 22
325.7707824407044
 32
0.0
 13
52.04319804772287
 23
325.7707824407044
 33
0.0
  0
SOLID
  5
25F
  8
Z_MAN-L
 10
52.04319804772287
 20
325.7707824407044
 30
0.0
 11
51.74136370700606
 21
444.2896395075444
 31
0.0
 12
52.04319804772287
 22
444.2141979548491
 32
0.0
 13
52.04319804772287
 23
444.2141979548491
 33
0.0
  0
SOLID
  5
260
  8
Z_MAN-L
 10
52.04319804772287
 20
289.2570175657675
 30
0.0
 11
52.04319804772287
 21
322.3004708476465
 31
0.0
 12
52.34503322472915
 22
289.5587845302692
 32
0.0
 13
52.34503322472915
 23
289.5587845302692
 33
0.0
  0
SOLID
  5
261
  8
Z_MAN-L
 10
52.34503322472915
 20
289.5587845302692
 30
0.0
 11
52.04319804772287
 21
322.3004708476465
 31
0.0
 12
52.34503322472915
 22
319.4336836508155
 32
0.0
 13
52.34503322472915
 23
319.4336836508155
 33
0.0
  0
SOLID
  5
262
  8
Z_MAN-L
 10
52.04319804772287
 20
325.7707824407044
 30
0.0
 11
52.04319804772287
 21
444.2141979548491
 31
0.0
 12
52.34503322472915
 22
326.3743164520899
 32
0.0
 13
52.34503322472915
 23
326.3743164520899
 33
0.0
  0
SOLID
  5
263
  8
Z_MAN-L
 10
52.34503322472915
 20
326.3743164520899
 30
0.0
 11
52.04319804772287
 21
444.2141979548491
 31
0.0
 12
52.34503322472915
 22
444.1387561931286
 32
0.0
 13
52.34503322472915
 23
444.1387561931286
 33
0.0
  0
SOLID
  5
264
  8
Z_MAN-L
 10
52.34503322472915
 20
289.5587845302692
 30
0.0
 11
52.34503322472915
 21
319.4336836508155
 31
0.0
 12
53.55237309646478
 22
290.7658515521755
 32
0.0
 13
53.55237309646478
 23
290.7658515521755
 33
0.0
  0
SOLID
  5
265
  8
Z_MAN-L
 10
53.55237309646478
 20
290.7658515521755
 30
0.0
 11
52.34503322472915
 21
319.4336836508155
 31
0.0
 12
53.55237309646478
 22
316.8183721268542
 32
0.0
 13
53.55237309646478
 23
316.8183721268542
 33
0.0
  0
SOLID
  5
266
  8
Z_MAN-L
 10
52.34503322472915
 20
326.3743164520899
 30
0.0
 11
52.34503322472915
 21
444.1387561931286
 31
0.0
 12
53.55237309646478
 22
328.7884508254309
 32
0.0
 13
53.55237309646478
 23
328.7884508254309
 33
0.0
  0
SOLID
  5
267
  8
Z_MAN-L
 10
53.55237309646478
 20
328.7884508254309
 30
0.0
 11
52.34503322472915
 21
444.1387561931286
 31
0.0
 12
53.55237309646478
 22
443.8369893552717
 32
0.0
 13
53.55237309646478
 23
443.8369893552717
 33
0.0
  0
SOLID
  5
268
  8
Z_MAN-L
 10
53.55237309646478
 20
281.4110848054479
 30
0.0
 11
53.55237309646478
 21
283.5234511150557
 31
0.0
 12
54.15604261418804
 22
280.8075514485972
 32
0.0
 13
54.15604261418804
 23
280.8075514485972
 33
0.0
  0
SOLID
  5
269
  8
Z_MAN-L
 10
54.15604261418804
 20
280.8075514485972
 30
0.0
 11
53.55237309646478
 21
283.5234511150557
 31
0.0
 12
54.15604261418804
 22
286.9434749033876
 32
0.0
 13
54.15604261418804
 23
286.9434749033876
 33
0.0
  0
SOLID
  5
26A
  8
Z_MAN-L
 10
53.55237309646478
 20
290.7658515521755
 30
0.0
 11
53.55237309646478
 21
316.8183721268542
 31
0.0
 12
54.15604261418804
 22
291.3693846450786
 32
0.0
 13
54.15604261418804
 23
291.3693846450786
 33
0.0
  0
SOLID
  5
26B
  8
Z_MAN-L
 10
54.15604261418804
 20
291.3693846450786
 30
0.0
 11
53.55237309646478
 21
316.8183721268542
 31
0.0
 12
54.15604261418804
 22
315.5107172706485
 32
0.0
 13
54.15604261418804
 23
315.5107172706485
 33
0.0
  0
SOLID
  5
26C
  8
Z_MAN-L
 10
53.55237309646478
 20
328.7884508254309
 30
0.0
 11
53.55237309646478
 21
443.8369893552717
 31
0.0
 12
54.15604261418804
 22
329.9955171760012
 32
0.0
 13
54.15604261418804
 23
329.9955171760012
 33
0.0
  0
SOLID
  5
26D
  8
Z_MAN-L
 10
54.15604261418804
 20
329.9955171760012
 30
0.0
 11
53.55237309646478
 21
443.8369893552717
 31
0.0
 12
54.15604261418804
 22
443.6861060408559
 32
0.0
 13
54.15604261418804
 23
443.6861060408559
 33
0.0
  0
SOLID
  5
26E
  8
Z_MAN-L
 10
54.15604261418804
 20
280.8075514485972
 30
0.0
 11
54.15604261418804
 21
286.9434749033876
 31
0.0
 12
54.45787695490486
 22
280.5057851882223
 32
0.0
 13
54.45787695490486
 23
280.5057851882223
 33
0.0
  0
SOLID
  5
26F
  8
Z_MAN-L
 10
54.45787695490486
 20
280.5057851882223
 30
0.0
 11
54.15604261418804
 21
286.9434749033876
 31
0.0
 12
54.45787695490486
 22
288.6534844285998
 32
0.0
 13
54.45787695490486
 23
288.6534844285998
 33
0.0
  0
SOLID
  5
270
  8
Z_MAN-L
 10
54.15604261418804
 20
291.3693846450786
 30
0.0
 11
54.15604261418804
 21
315.5107172706485
 31
0.0
 12
54.45787695490486
 22
291.6711507734799
 32
0.0
 13
54.45787695490486
 23
291.6711507734799
 33
0.0
  0
SOLID
  5
271
  8
Z_MAN-L
 10
54.45787695490486
 20
291.6711507734799
 30
0.0
 11
54.15604261418804
 21
315.5107172706485
 31
0.0
 12
54.45787695490486
 22
308.8718507846643
 32
0.0
 13
54.45787695490486
 23
308.8718507846643
 33
0.0
  0
SOLID
  5
272
  8
Z_MAN-L
 10
54.15604261418804
 20
329.9955171760012
 30
0.0
 11
54.15604261418804
 21
443.6861060408559
 31
0.0
 12
54.45787695490486
 22
332.4096503837209
 32
0.0
 13
54.45787695490486
 23
332.4096503837209
 33
0.0
  0
SOLID
  5
273
  8
Z_MAN-L
 10
54.45787695490486
 20
332.4096503837209
 30
0.0
 11
54.15604261418804
 21
443.6861060408559
 31
0.0
 12
54.45787695490486
 22
443.6106644881605
 32
0.0
 13
54.45787695490486
 23
443.6106644881605
 33
0.0
  0
SOLID
  5
274
  8
Z_MAN-L
 10
54.45787695490486
 20
280.5057851882223
 30
0.0
 11
54.45787695490486
 21
308.8718507846643
 31
0.0
 12
55.06154730891723
 22
279.9022509952711
 32
0.0
 13
55.06154730891723
 23
279.9022509952711
 33
0.0
  0
SOLID
  5
275
  8
Z_MAN-L
 10
55.06154730891723
 20
279.9022509952711
 30
0.0
 11
54.45787695490486
 21
308.8718507846643
 31
0.0
 12
55.06154730891723
 22
309.6765623774209
 32
0.0
 13
55.06154730891723
 23
309.6765623774209
 33
0.0
  0
SOLID
  5
276
  8
Z_MAN-L
 10
54.45787695490486
 20
332.4096503837209
 30
0.0
 11
54.45787695490486
 21
443.6106644881605
 31
0.0
 12
55.06154730891723
 22
326.6760839330091
 32
0.0
 13
55.06154730891723
 23
326.6760839330091
 33
0.0
  0
SOLID
  5
277
  8
Z_MAN-L
 10
55.06154730891723
 20
326.6760839330091
 30
0.0
 11
54.45787695490486
 21
443.6106644881605
 31
0.0
 12
55.06154730891723
 22
443.4597809647196
 32
0.0
 13
55.06154730891723
 23
443.4597809647196
 33
0.0
  0
SOLID
  5
278
  8
Z_MAN-L
 10
55.06154730891723
 20
279.9022509952711
 30
0.0
 11
55.06154730891723
 21
309.6765623774209
 31
0.0
 12
55.36338164963439
 22
279.6004847348959
 32
0.0
 13
55.36338164963439
 23
279.6004847348959
 33
0.0
  0
SOLID
  5
279
  8
Z_MAN-L
 10
55.36338164963439
 20
279.6004847348959
 30
0.0
 11
55.06154730891723
 21
309.6765623774209
 31
0.0
 12
55.36338164963439
 22
310.0789170589997
 32
0.0
 13
55.36338164963439
 23
310.0789170589997
 33
0.0
  0
SOLID
  5
27A
  8
Z_MAN-L
 10
55.06154730891723
 20
326.6760839330091
 30
0.0
 11
55.06154730891723
 21
443.4597809647196
 31
0.0
 12
55.36338164963439
 22
324.7146031307345
 32
0.0
 13
55.36338164963439
 23
324.7146031307345
 33
0.0
  0
SOLID
  5
27B
  8
Z_MAN-L
 10
55.36338164963439
 20
324.7146031307345
 30
0.0
 11
55.06154730891723
 21
443.4597809647196
 31
0.0
 12
55.36338164963439
 22
443.3843394120241
 32
0.0
 13
55.36338164963439
 23
443.3843394120241
 33
0.0
  0
SOLID
  5
27C
  8
Z_MAN-L
 10
55.36338164963439
 20
279.6004847348959
 30
0.0
 11
55.36338164963439
 21
310.0789170589997
 31
0.0
 12
55.66521682664049
 22
279.3657770771673
 32
0.0
 13
55.66521682664049
 23
279.3657770771673
 33
0.0
  0
SOLID
  5
27D
  8
Z_MAN-L
 10
55.66521682664049
 20
279.3657770771673
 30
0.0
 11
55.36338164963439
 21
310.0789170589997
 31
0.0
 12
55.66521682664049
 22
314.6054172353688
 32
0.0
 13
55.66521682664049
 23
314.6054172353688
 33
0.0
  0
SOLID
  5
27E
  8
Z_MAN-L
 10
55.36338164963439
 20
324.7146031307345
 30
0.0
 11
55.36338164963439
 21
443.3843394120241
 31
0.0
 12
55.66521682664049
 22
322.7531168938076
 32
0.0
 13
55.66521682664049
 23
322.7531168938076
 33
0.0
  0
SOLID
  5
27F
  8
Z_MAN-L
 10
55.66521682664049
 20
322.7531168938076
 30
0.0
 11
55.36338164963439
 21
443.3843394120241
 31
0.0
 12
55.66521682664049
 22
443.3088976503037
 32
0.0
 13
55.66521682664049
 23
443.3088976503037
 33
0.0
  0
SOLID
  5
280
  8
Z_MAN-L
 10
55.66521682664049
 20
279.3657770771673
 30
0.0
 11
55.66521682664049
 21
314.6054172353688
 31
0.0
 12
56.26888634436358
 22
278.8963624120104
 32
0.0
 13
56.26888634436358
 23
278.8963624120104
 33
0.0
  0
SOLID
  5
281
  8
Z_MAN-L
 10
56.26888634436358
 20
278.8963624120104
 30
0.0
 11
55.66521682664049
 21
314.6054172353688
 31
0.0
 12
56.26888634436358
 22
316.053896890482
 32
0.0
 13
56.26888634436358
 23
316.053896890482
 33
0.0
  0
SOLID
  5
282
  8
Z_MAN-L
 10
55.66521682664049
 20
322.7531168938076
 30
0.0
 11
55.66521682664049
 21
443.3088976503037
 31
0.0
 12
56.26888634436358
 22
320.9425175885342
 32
0.0
 13
56.26888634436358
 23
320.9425175885342
 33
0.0
  0
SOLID
  5
283
  8
Z_MAN-L
 10
56.26888634436358
 20
320.9425175885342
 30
0.0
 11
55.66521682664049
 21
443.3088976503037
 31
0.0
 12
56.26888634436358
 22
443.1580143358879
 32
0.0
 13
56.26888634436358
 23
443.1580143358879
 33
0.0
  0
SOLID
  5
284
  8
Z_MAN-L
 10
56.26888634436358
 20
278.8963624120104
 30
0.0
 11
56.26888634436358
 21
316.053896890482
 31
0.0
 12
57.17439103909311
 22
278.1922400891247
 32
0.0
 13
57.17439103909311
 23
278.1922400891247
 33
0.0
  0
SOLID
  5
285
  8
Z_MAN-L
 10
57.17439103909311
 20
278.1922400891247
 30
0.0
 11
56.26888634436358
 21
316.053896890482
 31
0.0
 12
57.17439103909311
 22
318.2266173764729
 32
0.0
 13
57.17439103909311
 23
318.2266173764729
 33
0.0
  0
SOLID
  5
286
  8
Z_MAN-L
 10
56.26888634436358
 20
320.9425175885342
 30
0.0
 11
56.26888634436358
 21
443.1580143358879
 31
0.0
 12
57.17439103909311
 22
318.2266173764729
 32
0.0
 13
57.17439103909311
 23
318.2266173764729
 33
0.0
  0
SOLID
  5
287
  8
Z_MAN-L
 10
57.17439103909311
 20
318.2266173764729
 30
0.0
 11
56.26888634436358
 21
443.1580143358879
 31
0.0
 12
57.17439103909311
 22
442.1621841790459
 32
0.0
 13
57.17439103909311
 23
442.1621841790459
 33
0.0
  0
SOLID
  5
288
  8
Z_MAN-L
 10
57.17439103909311
 20
278.1922400891247
 30
0.0
 11
57.17439103909311
 21
442.1621841790459
 31
0.0
 12
58.0798957338223
 22
277.4881177662392
 32
0.0
 13
58.0798957338223
 23
277.4881177662392
 33
0.0
  0
SOLID
  5
289
  8
Z_MAN-L
 10
58.0798957338223
 20
277.4881177662392
 30
0.0
 11
57.17439103909311
 21
442.1621841790459
 31
0.0
 12
58.0798957338223
 22
441.1663540222042
 32
0.0
 13
58.0798957338223
 23
441.1663540222042
 33
0.0
  0
SOLID
  5
28A
  8
Z_MAN-L
 10
58.0798957338223
 20
277.4881177662392
 30
0.0
 11
58.0798957338223
 21
441.1663540222042
 31
0.0
 12
59.28723476926882
 22
277.7144426966728
 32
0.0
 13
59.28723476926882
 23
277.7144426966728
 33
0.0
  0
SOLID
  5
28B
  8
Z_MAN-L
 10
59.28723476926882
 20
277.7144426966728
 30
0.0
 11
58.0798957338223
 21
441.1663540222042
 31
0.0
 12
59.28723476926882
 22
439.8385810928885
 32
0.0
 13
59.28723476926882
 23
439.8385810928885
 33
0.0
  0
SOLID
  5
28C
  8
Z_MAN-L
 10
59.28723476926882
 20
277.7144426966728
 30
0.0
 11
59.28723476926882
 21
439.8385810928885
 31
0.0
 12
59.89090512328119
 22
277.8276053186585
 32
0.0
 13
59.89090512328119
 23
277.8276053186585
 33
0.0
  0
SOLID
  5
28D
  8
Z_MAN-L
 10
59.89090512328119
 20
277.8276053186585
 30
0.0
 11
59.28723476926882
 21
439.8385810928885
 31
0.0
 12
59.89090512328119
 22
436.2173816108407
 32
0.0
 13
59.89090512328119
 23
436.2173816108407
 33
0.0
  0
SOLID
  5
28E
  8
Z_MAN-L
 10
59.89090512328119
 20
277.8276053186585
 30
0.0
 11
59.89090512328119
 21
436.2173816108407
 31
0.0
 12
61.40007933573382
 22
278.1105115600851
 32
0.0
 13
61.40007933573382
 23
278.1105115600851
 33
0.0
  0
SOLID
  5
28F
  8
Z_MAN-L
 10
61.40007933573382
 20
278.1105115600851
 30
0.0
 11
59.89090512328119
 21
436.2173816108407
 31
0.0
 12
61.40007933573382
 22
433.3157792263428
 32
0.0
 13
61.40007933573382
 23
433.3157792263428
 33
0.0
  0
SOLID
  5
290
  8
Z_MAN-L
 10
61.40007933573382
 20
278.1105115600851
 30
0.0
 11
61.40007933573382
 21
285.9375843227754
 31
0.0
 12
62.60741837118017
 22
278.3368364905187
 32
0.0
 13
62.60741837118017
 23
278.3368364905187
 33
0.0
  0
SOLID
  5
291
  8
Z_MAN-L
 10
62.60741837118017
 20
278.3368364905187
 30
0.0
 11
61.40007933573382
 21
285.9375843227754
 31
0.0
 12
62.60741837118017
 22
284.1269848792984
 32
0.0
 13
62.60741837118017
 23
284.1269848792984
 33
0.0
  0
SOLID
  5
292
  8
Z_MAN-L
 10
61.40007933573382
 20
289.8605507029279
 30
0.0
 11
61.40007933573382
 21
433.3157792263428
 31
0.0
 12
62.60741837118017
 22
292.8782177068715
 32
0.0
 13
62.60741837118017
 23
292.8782177068715
 33
0.0
  0
SOLID
  5
293
  8
Z_MAN-L
 10
62.60741837118017
 20
292.8782177068715
 30
0.0
 11
61.40007933573382
 21
433.3157792263428
 31
0.0
 12
62.60741837118017
 22
430.9944979618986
 32
0.0
 13
62.60741837118017
 23
430.9944979618986
 33
0.0
  0
SOLID
  5
294
  8
Z_MAN-L
 10
62.60741837118017
 20
278.3368364905187
 30
0.0
 11
62.60741837118017
 21
284.1269848792984
 31
0.0
 12
62.90925354818626
 22
278.3934178015115
 32
0.0
 13
62.90925354818626
 23
278.3934178015115
 33
0.0
  0
SOLID
  5
295
  8
Z_MAN-L
 10
62.90925354818626
 20
278.3934178015115
 30
0.0
 11
62.60741837118017
 21
284.1269848792984
 31
0.0
 12
62.90925354818626
 22
283.6743343913542
 32
0.0
 13
62.90925354818626
 23
283.6743343913542
 33
0.0
  0
SOLID
  5
296
  8
Z_MAN-L
 10
62.60741837118017
 20
292.8782177068715
 30
0.0
 11
62.60741837118017
 21
430.9944979618986
 31
0.0
 12
62.90925354818626
 22
292.7488890280224
 32
0.0
 13
62.90925354818626
 23
292.7488890280224
 33
0.0
  0
SOLID
  5
297
  8
Z_MAN-L
 10
62.90925354818626
 20
292.7488890280224
 30
0.0
 11
62.60741837118017
 21
430.9944979618986
 31
0.0
 12
62.90925354818626
 22
430.4141768418452
 32
0.0
 13
62.90925354818626
 23
430.4141768418452
 33
0.0
  0
SOLID
  5
298
  8
Z_MAN-L
 10
62.90925354818626
 20
278.3934178015115
 30
0.0
 11
62.90925354818626
 21
283.6743343913542
 31
0.0
 12
63.79442888832416
 22
279.7208813276998
 32
0.0
 13
63.79442888832416
 23
279.7208813276998
 33
0.0
  0
SOLID
  5
299
  8
Z_MAN-L
 10
63.79442888832416
 20
279.7208813276998
 30
0.0
 11
62.90925354818626
 21
283.6743343913542
 31
0.0
 12
63.79442888832416
 22
282.3468713249085
 32
0.0
 13
63.79442888832416
 23
282.3468713249085
 33
0.0
  0
SOLID
  5
29A
  8
Z_MAN-L
 10
62.90925354818626
 20
292.7488890280224
 30
0.0
 11
62.90925354818626
 21
430.4141768418452
 31
0.0
 12
63.79442888832416
 22
292.3696139600023
 32
0.0
 13
63.79442888832416
 23
292.3696139600023
 33
0.0
  0
SOLID
  5
29B
  8
Z_MAN-L
 10
63.79442888832416
 20
292.3696139600023
 30
0.0
 11
62.90925354818626
 21
430.4141768418452
 31
0.0
 12
63.79442888832416
 22
428.7123011694079
 32
0.0
 13
63.79442888832416
 23
428.7123011694079
 33
0.0
  0
SOLID
  5
29C
  8
Z_MAN-L
 10
63.79442888832416
 20
279.7208813276998
 30
0.0
 11
63.79442888832416
 21
282.3468713249085
 31
0.0
 12
63.81475824291562
 22
279.7513684814957
 32
0.0
 13
63.81475824291562
 23
279.7513684814957
 33
0.0
  0
SOLID
  5
29D
  8
Z_MAN-L
 10
63.81475824291562
 20
279.7513684814957
 30
0.0
 11
63.79442888832416
 21
282.3468713249085
 31
0.0
 12
63.81475824291562
 22
282.3163841816713
 32
0.0
 13
63.81475824291562
 23
282.3163841816713
 33
0.0
  0
SOLID
  5
29E
  8
Z_MAN-L
 10
63.81475824291562
 20
282.3163841816713
 30
0.0
 11
63.79442888832416
 21
282.4014647502991
 31
0.0
 12
63.81475824291562
 22
282.3389692383207
 32
0.0
 13
63.81475824291562
 23
282.3389692383207
 33
0.0
  0
SOLID
  5
29F
  8
Z_MAN-L
 10
63.79442888832416
 20
292.3696139600023
 30
0.0
 11
63.79442888832416
 21
428.7123011694079
 31
0.0
 12
63.81475824291562
 22
292.3609033498036
 32
0.0
 13
63.81475824291562
 23
292.3609033498036
 33
0.0
  0
SOLID
  5
2A0
  8
Z_MAN-L
 10
63.81475824291562
 20
292.3609033498036
 30
0.0
 11
63.79442888832416
 21
428.7123011694079
 31
0.0
 12
63.81475824291562
 22
428.6732150895696
 32
0.0
 13
63.81475824291562
 23
428.6732150895696
 33
0.0
  0
SOLID
  5
2A1
  8
Z_MAN-L
 10
63.81475824291562
 20
279.7513684814957
 30
0.0
 11
63.81475824291562
 21
282.3389692383207
 31
0.0
 12
64.11659258363244
 22
280.2040178720563
 32
0.0
 13
64.11659258363244
 23
280.2040178720563
 33
0.0
  0
SOLID
  5
2A2
  8
Z_MAN-L
 10
64.11659258363244
 20
280.2040178720563
 30
0.0
 11
63.81475824291562
 21
282.3389692383207
 31
0.0
 12
64.11659258363244
 22
281.4110848054479
 32
0.0
 13
64.11659258363244
 23
281.4110848054479
 33
0.0
  0
SOLID
  5
2A3
  8
Z_MAN-L
 10
63.81475824291562
 20
292.3609033498036
 30
0.0
 11
63.81475824291562
 21
428.6732150895696
 31
0.0
 12
64.11659258363244
 22
292.231575029283
 32
0.0
 13
64.11659258363244
 23
292.231575029283
 33
0.0
  0
SOLID
  5
2A4
  8
Z_MAN-L
 10
64.11659258363244
 20
292.231575029283
 30
0.0
 11
63.81475824291562
 21
428.6732150895696
 31
0.0
 12
64.11659258363244
 22
427.6924750247163
 32
0.0
 13
64.11659258363244
 23
427.6924750247163
 33
0.0
  0
SOLID
  5
2A5
  8
Z_MAN-L
 10
64.11659258363244
 20
292.231575029283
 30
0.0
 11
64.11659258363244
 21
427.6924750247163
 31
0.0
 12
64.72026293764516
 22
291.9729176715846
 32
0.0
 13
64.72026293764516
 23
291.9729176715846
 33
0.0
  0
SOLID
  5
2A6
  8
Z_MAN-L
 10
64.72026293764516
 20
291.9729176715846
 30
0.0
 11
64.11659258363244
 21
427.6924750247163
 31
0.0
 12
64.72026293764516
 22
425.7309894603553
 32
0.0
 13
64.72026293764516
 23
425.7309894603553
 33
0.0
  0
SOLID
  5
2A7
  8
Z_MAN-L
 10
64.72026293764516
 20
291.9729176715846
 30
0.0
 11
64.72026293764516
 21
425.7309894603553
 31
0.0
 12
65.02209727836197
 22
292.2746838044138
 32
0.0
 13
65.02209727836197
 23
292.2746838044138
 33
0.0
  0
SOLID
  5
2A8
  8
Z_MAN-L
 10
65.02209727836197
 20
292.2746838044138
 30
0.0
 11
64.72026293764516
 21
425.7309894603553
 31
0.0
 12
65.02209727836197
 22
424.7502493955021
 32
0.0
 13
65.02209727836197
 23
424.7502493955021
 33
0.0
  0
SOLID
  5
2A9
  8
Z_MAN-L
 10
65.02209727836197
 20
292.2746838044138
 30
0.0
 11
65.02209727836197
 21
294.6888177774163
 31
0.0
 12
66.22943715009743
 22
293.4817508440319
 32
0.0
 13
66.22943715009743
 23
293.4817508440319
 33
0.0
  0
SOLID
  5
2AA
  8
Z_MAN-L
 10
65.02209727836197
 20
294.6888177774163
 30
0.0
 11
65.02209727836197
 21
424.7502493955021
 31
0.0
 12
66.22943715009743
 22
296.7315466888421
 32
0.0
 13
66.22943715009743
 23
296.7315466888421
 33
0.0
  0
SOLID
  5
2AB
  8
Z_MAN-L
 10
66.22943715009743
 20
296.7315466888421
 30
0.0
 11
65.02209727836197
 21
424.7502493955021
 31
0.0
 12
66.22943715009743
 22
420.8272809841088
 32
0.0
 13
66.22943715009743
 23
420.8272809841088
 33
0.0
  0
SOLID
  5
2AC
  8
Z_MAN-L
 10
66.22943715009743
 20
296.7315466888421
 30
0.0
 11
66.22943715009743
 21
420.8272809841088
 31
0.0
 12
67.43677618554378
 22
298.7742741853293
 32
0.0
 13
67.43677618554378
 23
298.7742741853293
 33
0.0
  0
SOLID
  5
2AD
  8
Z_MAN-L
 10
67.43677618554378
 20
298.7742741853293
 30
0.0
 11
66.22943715009743
 21
420.8272809841088
 31
0.0
 12
67.43677618554378
 22
416.9043152900413
 32
0.0
 13
67.43677618554378
 23
416.9043152900413
 33
0.0
  0
SOLID
  5
2AE
  8
Z_MAN-L
 10
67.43677618554378
 20
298.7742741853293
 30
0.0
 11
67.43677618554378
 21
416.9043152900413
 31
0.0
 12
68.9459503979964
 22
301.3276842634077
 32
0.0
 13
68.9459503979964
 23
301.3276842634077
 33
0.0
  0
SOLID
  5
2AF
  8
Z_MAN-L
 10
68.9459503979964
 20
301.3276842634077
 30
0.0
 11
67.43677618554378
 21
416.9043152900413
 31
0.0
 12
68.9459503979964
 22
416.4328049563161
 32
0.0
 13
68.9459503979964
 23
416.4328049563161
 33
0.0
  0
SOLID
  5
2B0
  8
Z_MAN-L
 10
68.9459503979964
 20
301.3276842634077
 30
0.0
 11
68.9459503979964
 21
416.4328049563161
 31
0.0
 12
70.45512461044885
 22
310.3806839571116
 32
0.0
 13
70.45512461044885
 23
310.3806839571116
 33
0.0
  0
SOLID
  5
2B1
  8
Z_MAN-L
 10
70.45512461044885
 20
310.3806839571116
 30
0.0
 11
68.9459503979964
 21
416.4328049563161
 31
0.0
 12
70.45512461044885
 22
415.9612946225911
 32
0.0
 13
70.45512461044885
 23
415.9612946225911
 33
0.0
  0
SOLID
  5
2B2
  8
Z_MAN-L
 10
70.45512461044885
 20
310.3806839571116
 30
0.0
 11
70.45512461044885
 21
415.9612946225911
 31
0.0
 12
71.36062930517839
 22
316.7177835449838
 32
0.0
 13
71.36062930517839
 23
316.7177835449838
 33
0.0
  0
SOLID
  5
2B3
  8
Z_MAN-L
 10
71.36062930517839
 20
316.7177835449838
 30
0.0
 11
70.45512461044885
 21
415.9612946225911
 31
0.0
 12
71.36062930517839
 22
415.6783883700998
 32
0.0
 13
71.36062930517839
 23
415.6783883700998
 33
0.0
  0
SOLID
  5
2B4
  8
Z_MAN-L
 10
71.36062930517839
 20
316.7177835449838
 30
0.0
 11
71.36062930517839
 21
415.6783883700998
 31
0.0
 12
72.26613399990775
 22
321.5460502899483
 32
0.0
 13
72.26613399990775
 23
321.5460502899483
 33
0.0
  0
SOLID
  5
2B5
  8
Z_MAN-L
 10
72.26613399990775
 20
321.5460502899483
 30
0.0
 11
71.36062930517839
 21
415.6783883700998
 31
0.0
 12
72.26613399990775
 22
415.3954821176085
 32
0.0
 13
72.26613399990775
 23
415.3954821176085
 33
0.0
  0
SOLID
  5
2B6
  8
Z_MAN-L
 10
72.26613399990775
 20
321.5460502899483
 30
0.0
 11
72.26613399990775
 21
415.3954821176085
 31
0.0
 12
73.17163869463693
 22
326.3743170349117
 32
0.0
 13
73.17163869463693
 23
326.3743170349117
 33
0.0
  0
SOLID
  5
2B7
  8
Z_MAN-L
 10
73.17163869463693
 20
326.3743170349117
 30
0.0
 11
72.26613399990775
 21
415.3954821176085
 31
0.0
 12
73.17163869463693
 22
414.4901819596359
 32
0.0
 13
73.17163869463693
 23
414.4901819596359
 33
0.0
  0
SOLID
  5
2B8
  8
Z_MAN-L
 10
73.17163869463693
 20
326.3743170349117
 30
0.0
 11
73.17163869463693
 21
414.4901819596359
 31
0.0
 12
75.58631760181892
 22
343.8767832851518
 32
0.0
 13
75.58631760181892
 23
343.8767832851518
 33
0.0
  0
SOLID
  5
2B9
  8
Z_MAN-L
 10
75.58631760181892
 20
343.8767832851518
 30
0.0
 11
73.17163869463693
 21
414.4901819596359
 31
0.0
 12
75.58631760181892
 22
412.0760484837418
 32
0.0
 13
75.58631760181892
 23
412.0760484837418
 33
0.0
  0
SOLID
  5
2BA
  8
Z_MAN-L
 10
75.58631760181892
 20
353.2315498769603
 30
0.0
 11
75.58631760181892
 21
412.0760484837418
 31
0.0
 12
75.888152778825
 22
357.1545162571128
 32
0.0
 13
75.888152778825
 23
357.1545162571128
 33
0.0
  0
SOLID
  5
2BB
  8
Z_MAN-L
 10
75.888152778825
 20
357.1545162571128
 30
0.0
 11
75.58631760181892
 21
412.0760484837418
 31
0.0
 12
75.888152778825
 22
411.7742814857176
 32
0.0
 13
75.888152778825
 23
411.7742814857176
 33
0.0
  0
SOLID
  5
2BC
  8
Z_MAN-L
 10
75.888152778825
 20
357.1545162571128
 30
0.0
 11
75.888152778825
 21
411.7742814857176
 31
0.0
 12
77.09549181427172
 22
357.483716228485
 32
0.0
 13
77.09549181427172
 23
357.483716228485
 33
0.0
  0
SOLID
  5
2BD
  8
Z_MAN-L
 10
77.09549181427172
 20
357.483716228485
 30
0.0
 11
75.888152778825
 21
411.7742814857176
 31
0.0
 12
77.09549181427172
 22
410.5672151658203
 32
0.0
 13
77.09549181427172
 23
410.5672151658203
 33
0.0
  0
SOLID
  5
2BE
  8
Z_MAN-L
 10
77.09549181427172
 20
357.483716228485
 30
0.0
 11
77.09549181427172
 21
369.8287160919208
 31
0.0
 12
77.69916133199463
 22
357.648316214171
 32
0.0
 13
77.69916133199463
 23
357.648316214171
 33
0.0
  0
SOLID
  5
2BF
  8
Z_MAN-L
 10
77.69916133199463
 20
357.648316214171
 30
0.0
 11
77.09549181427172
 21
369.8287160919208
 31
0.0
 12
77.69916133199463
 22
368.9234160566557
 32
0.0
 13
77.69916133199463
 23
368.9234160566557
 33
0.0
  0
SOLID
  5
2C0
  8
Z_MAN-L
 10
77.09549181427172
 20
369.8287160919208
 30
0.0
 11
77.09549181427172
 21
410.5672151658203
 31
0.0
 12
77.69916133199463
 22
370.6669565584497
 32
0.0
 13
77.69916133199463
 23
370.6669565584497
 33
0.0
  0
SOLID
  5
2C1
  8
Z_MAN-L
 10
77.69916133199463
 20
370.6669565584497
 30
0.0
 11
77.09549181427172
 21
410.5672151658203
 31
0.0
 12
77.69916133199463
 22
409.9636820058722
 32
0.0
 13
77.69916133199463
 23
409.9636820058722
 33
0.0
  0
SOLID
  5
2C2
  8
Z_MAN-L
 10
77.69916133199463
 20
357.648316214171
 30
0.0
 11
77.69916133199463
 21
368.9234160566557
 31
0.0
 12
78.0009965090009
 22
357.7306163210277
 32
0.0
 13
78.0009965090009
 23
357.7306163210277
 33
0.0
  0
SOLID
  5
2C3
  8
Z_MAN-L
 10
78.0009965090009
 20
357.7306163210277
 30
0.0
 11
77.69916133199463
 21
368.9234160566557
 31
0.0
 12
78.0009965090009
 22
368.4061013412652
 32
0.0
 13
78.0009965090009
 23
368.4061013412652
 33
0.0
  0
SOLID
  5
2C4
  8
Z_MAN-L
 10
77.69916133199463
 20
370.6669565584497
 30
0.0
 11
77.69916133199463
 21
409.9636820058722
 31
0.0
 12
78.0009965090009
 22
371.0860773723396
 32
0.0
 13
78.0009965090009
 23
371.0860773723396
 33
0.0
  0
SOLID
  5
2C5
  8
Z_MAN-L
 10
78.0009965090009
 20
371.0860773723396
 30
0.0
 11
77.69916133199463
 21
409.9636820058722
 31
0.0
 12
78.0009965090009
 22
409.6619150078477
 32
0.0
 13
78.0009965090009
 23
409.6619150078477
 33
0.0
  0
SOLID
  5
2C6
  8
Z_MAN-L
 10
78.0009965090009
 20
357.7306163210277
 30
0.0
 11
78.0009965090009
 21
368.4061013412652
 31
0.0
 12
79.20833554444725
 22
358.0598162923998
 32
0.0
 13
79.20833554444725
 23
358.0598162923998
 33
0.0
  0
SOLID
  5
2C7
  8
Z_MAN-L
 10
79.20833554444725
 20
358.0598162923998
 30
0.0
 11
78.0009965090009
 21
368.4061013412652
 31
0.0
 12
79.20833554444725
 22
366.3368453463324
 32
0.0
 13
79.20833554444725
 23
366.3368453463324
 33
0.0
  0
SOLID
  5
2C8
  8
Z_MAN-L
 10
78.0009965090009
 20
371.0860773723396
 30
0.0
 11
78.0009965090009
 21
409.6619150078477
 31
0.0
 12
79.20833554444725
 22
372.7625583053981
 32
0.0
 13
79.20833554444725
 23
372.7625583053981
 33
0.0
  0
SOLID
  5
2C9
  8
Z_MAN-L
 10
79.20833554444725
 20
372.7625583053981
 30
0.0
 11
78.0009965090009
 21
409.6619150078477
 31
0.0
 12
79.20833554444725
 22
407.0063691492221
 32
0.0
 13
79.20833554444725
 23
407.0063691492221
 33
0.0
  0
SOLID
  5
2CA
  8
Z_MAN-L
 10
79.20833554444725
 20
358.0598162923998
 30
0.0
 11
79.20833554444725
 21
366.3368453463324
 31
0.0
 12
79.81200589845962
 22
359.7195340635297
 32
0.0
 13
79.81200589845962
 23
359.7195340635297
 33
0.0
  0
SOLID
  5
2CB
  8
Z_MAN-L
 10
79.81200589845962
 20
359.7195340635297
 30
0.0
 11
79.20833554444725
 21
366.3368453463324
 31
0.0
 12
79.81200589845962
 22
365.3022159155516
 32
0.0
 13
79.81200589845962
 23
365.3022159155516
 33
0.0
  0
SOLID
  5
2CC
  8
Z_MAN-L
 10
79.20833554444725
 20
372.7625583053981
 30
0.0
 11
79.20833554444725
 21
407.0063691492221
 31
0.0
 12
79.81200589845962
 22
373.6007999331777
 32
0.0
 13
79.81200589845962
 23
373.6007999331777
 33
0.0
  0
SOLID
  5
2CD
  8
Z_MAN-L
 10
79.81200589845962
 20
373.6007999331777
 30
0.0
 11
79.20833554444725
 21
407.0063691492221
 31
0.0
 12
79.81200589845962
 22
405.6785943804887
 32
0.0
 13
79.81200589845962
 23
405.6785943804887
 33
0.0
  0
SOLID
  5
2CE
  8
Z_MAN-L
 10
79.81200589845962
 20
359.7195340635297
 30
0.0
 11
79.81200589845962
 21
365.3022159155516
 31
0.0
 12
80.41567541618271
 22
361.3792495353846
 32
0.0
 13
80.41567541618271
 23
361.3792495353846
 33
0.0
  0
SOLID
  5
2CF
  8
Z_MAN-L
 10
79.81200589845962
 20
373.6007999331777
 30
0.0
 11
79.81200589845962
 21
405.6785943804887
 31
0.0
 12
80.41567541618271
 22
374.4390403997068
 32
0.0
 13
80.41567541618271
 23
374.4390403997068
 33
0.0
  0
SOLID
  5
2D0
  8
Z_MAN-L
 10
80.41567541618271
 20
374.4390403997068
 30
0.0
 11
79.81200589845962
 21
405.6785943804887
 31
0.0
 12
80.41567541618271
 22
404.3508214511761
 32
0.0
 13
80.41567541618271
 23
404.3508214511761
 33
0.0
  0
SOLID
  5
2D1
  8
Z_MAN-L
 10
80.41567541618271
 20
374.4390403997068
 30
0.0
 11
80.41567541618271
 21
404.3508214511761
 31
0.0
 12
81.01934493390578
 22
375.277280866236
 32
0.0
 13
81.01934493390578
 23
375.277280866236
 33
0.0
  0
SOLID
  5
2D2
  8
Z_MAN-L
 10
81.01934493390578
 20
375.277280866236
 30
0.0
 11
80.41567541618271
 21
404.3508214511761
 31
0.0
 12
81.01934493390578
 22
403.0230485218635
 32
0.0
 13
81.01934493390578
 23
403.0230485218635
 33
0.0
  0
SOLID
  5
2D3
  8
Z_MAN-L
 10
81.01934493390578
 20
375.277280866236
 30
0.0
 11
81.01934493390578
 21
403.0230485218635
 31
0.0
 12
82.52851914635859
 22
377.3728826131846
 32
0.0
 13
82.52851914635859
 23
377.3728826131846
 33
0.0
  0
SOLID
  5
2D4
  8
Z_MAN-L
 10
82.52851914635859
 20
377.3728826131846
 30
0.0
 11
81.01934493390578
 21
403.0230485218635
 31
0.0
 12
82.52851914635859
 22
395.1016741737943
 32
0.0
 13
82.52851914635859
 23
395.1016741737943
 33
0.0
  0
SOLID
  5
2D5
  8
Z_MAN-L
 10
82.52851914635859
 20
377.3728826131846
 30
0.0
 11
82.52851914635859
 21
395.1016741737943
 31
0.0
 12
83.43402384108795
 22
379.2589242435006
 32
0.0
 13
83.43402384108795
 23
379.2589242435006
 33
0.0
  0
SOLID
  5
2D6
  8
Z_MAN-L
 10
83.43402384108795
 20
379.2589242435006
 30
0.0
 11
82.52851914635859
 21
395.1016741737943
 31
0.0
 12
83.43402384108795
 22
390.3488486870483
 32
0.0
 13
83.43402384108795
 23
390.3488486870483
 33
0.0
  0
SOLID
  5
2D7
  8
Z_MAN-L
 10
83.43402384108795
 20
379.2589242435006
 30
0.0
 11
83.43402384108795
 21
390.3488486870483
 31
0.0
 12
86.15053792527603
 22
384.9170491344485
 32
0.0
 13
86.15053792527603
 23
384.9170491344485
 33
0.0
  0
ENDBLK
  5
2D9
  8
0
  0
ENDSEC
  0
SECTION
  2
ENTITIES
  0
POLYLINE
  5
1E
  8
Z_MAN-L
 66
     1
 10
0.0
 20
0.0
 30
0.0
 70
   129
  0
VERTEX
  5
81
  8
Z_MAN-L
 10
63.79442888832416
 20
282.4014647502991
 30
0.0
  0
VERTEX
  5
82
  8
Z_MAN-L
 10
63.81475824291562
 20
282.3163841816713
 30
0.0
  0
VERTEX
  5
83
  8
Z_MAN-L
 10
61.40007933573382
 20
285.9375843227754
 30
0.0
  0
VERTEX
  5
84
  8
Z_MAN-L
 10
61.40007933573382
 20
289.8605507029279
 30
0.0
  0
VERTEX
  5
85
  8
Z_MAN-L
 10
62.60741837118017
 20
292.8782177068715
 30
0.0
  0
VERTEX
  5
86
  8
Z_MAN-L
 10
64.72026293764516
 20
291.9729176715846
 30
0.0
  0
VERTEX
  5
87
  8
Z_MAN-L
 10
66.22943715009743
 20
293.4817508440319
 30
0.0
  0
VERTEX
  5
88
  8
Z_MAN-L
 10
65.02209727836197
 20
294.6888177774163
 30
0.0
  0
VERTEX
  5
89
  8
Z_MAN-L
 10
68.9459503979964
 20
301.3276842634077
 30
0.0
  0
VERTEX
  5
8A
  8
Z_MAN-L
 10
70.45512461044885
 20
310.3806839571116
 30
0.0
  0
VERTEX
  5
8B
  8
Z_MAN-L
 10
71.36062930517839
 20
316.7177835449838
 30
0.0
  0
VERTEX
  5
8C
  8
Z_MAN-L
 10
73.17163869463693
 20
326.3743170349117
 30
0.0
  0
VERTEX
  5
8D
  8
Z_MAN-L
 10
75.58631760181892
 20
343.8767832851518
 30
0.0
  0
VERTEX
  5
8E
  8
Z_MAN-L
 10
75.58631760181892
 20
353.2315498769603
 30
0.0
  0
VERTEX
  5
8F
  8
Z_MAN-L
 10
75.888152778825
 20
357.1545162571128
 30
0.0
  0
VERTEX
  5
90
  8
Z_MAN-L
 10
79.20833554444725
 20
358.0598162923998
 30
0.0
  0
VERTEX
  5
91
  8
Z_MAN-L
 10
80.41567541618271
 20
361.3792495353846
 30
0.0
  0
VERTEX
  5
92
  8
Z_MAN-L
 10
79.81200589845962
 20
365.3022159155516
 30
0.0
  0
VERTEX
  5
93
  8
Z_MAN-L
 10
77.69916133199463
 20
368.9234160566557
 30
0.0
  0
VERTEX
  5
94
  8
Z_MAN-L
 10
77.09549181427172
 20
369.8287160919208
 30
0.0
  0
VERTEX
  5
95
  8
Z_MAN-L
 10
82.52851914635859
 20
377.3728826131846
 30
0.0
  0
VERTEX
  5
96
  8
Z_MAN-L
 10
86.15053792527603
 20
384.9170491344485
 30
0.0
  0
VERTEX
  5
97
  8
Z_MAN-L
 10
83.43402384108795
 20
390.3488486870483
 30
0.0
  0
VERTEX
  5
98
  8
Z_MAN-L
 10
81.01934493390578
 20
403.0230485218635
 30
0.0
  0
VERTEX
  5
99
  8
Z_MAN-L
 10
78.0009965090009
 20
409.6619150078477
 30
0.0
  0
VERTEX
  5
9A
  8
Z_MAN-L
 10
72.26613399990775
 20
415.3954821176085
 30
0.0
  0
VERTEX
  5
9B
  8
Z_MAN-L
 10
67.43677618554378
 20
416.9043152900413
 30
0.0
  0
VERTEX
  5
9C
  8
Z_MAN-L
 10
63.81475824291562
 20
428.6732150895696
 30
0.0
  0
VERTEX
  5
9D
  8
Z_MAN-L
 10
59.89090512328119
 20
436.2173816108407
 30
0.0
  0
VERTEX
  5
9E
  8
Z_MAN-L
 10
59.28723476926882
 20
439.8385810928885
 30
0.0
  0
VERTEX
  5
9F
  8
Z_MAN-L
 10
56.26888634436358
 20
443.1580143358879
 30
0.0
  0
VERTEX
  5
A0
  8
Z_MAN-L
 10
51.43952852999979
 20
444.3650812692649
 30
0.0
  0
VERTEX
  5
A1
  8
Z_MAN-L
 10
46.91200589264209
 20
444.0633143711602
 30
0.0
  0
VERTEX
  5
A2
  8
Z_MAN-L
 10
41.7808129012722
 20
441.3474149243775
 30
0.0
  0
VERTEX
  5
A3
  8
Z_MAN-L
 10
37.25329026391469
 20
437.4244478851688
 30
0.0
  0
VERTEX
  5
A4
  8
Z_MAN-L
 10
36.95145508690841
 20
435.0103146774563
 30
0.0
  0
VERTEX
  5
A5
  8
Z_MAN-L
 10
38.15879495864387
 20
435.3120815755537
 30
0.0
  0
VERTEX
  5
A6
  8
Z_MAN-L
 10
37.85695978163795
 20
430.4838151601216
 30
0.0
  0
VERTEX
  5
A7
  8
Z_MAN-L
 10
30.31108871937501
 20
433.1997146069043
 30
0.0
  0
VERTEX
  5
A8
  8
Z_MAN-L
 10
26.68906994045757
 20
435.0103146774563
 30
0.0
  0
VERTEX
  5
A9
  8
Z_MAN-L
 10
29.10374884763955
 20
436.2173816108407
 30
0.0
  0
VERTEX
  5
AA
  8
Z_MAN-L
 10
29.40558402464565
 20
436.8209147480011
 30
0.0
  0
VERTEX
  5
AB
  8
Z_MAN-L
 10
28.80191450692238
 20
437.4244478851688
 30
0.0
  0
VERTEX
  5
AC
  8
Z_MAN-L
 10
30.91475823709827
 20
441.6491811634405
 30
0.0
  0
VERTEX
  5
AD
  8
Z_MAN-L
 10
30.31108871937501
 20
445.8739144417123
 30
0.0
  0
VERTEX
  5
AE
  8
Z_MAN-L
 10
32.42393244955072
 20
447.3827476141596
 30
0.0
  0
VERTEX
  5
AF
  8
Z_MAN-L
 10
30.31108871937501
 20
454.9269141354162
 30
0.0
  0
VERTEX
  5
B0
  8
Z_MAN-L
 10
31.51842775482136
 20
456.7375142059682
 30
0.0
  0
VERTEX
  5
B1
  8
Z_MAN-L
 10
31.51842775482136
 20
458.5481142765202
 30
0.0
  0
VERTEX
  5
B2
  8
Z_MAN-L
 10
26.99090511746384
 20
461.2640143823373
 30
0.0
  0
VERTEX
  5
B3
  8
Z_MAN-L
 10
22.16154730309988
 20
460.9622474842326
 30
0.0
  0
VERTEX
  5
B4
  8
Z_MAN-L
 10
15.82301527628346
 20
460.6604812451696
 30
0.0
  0
VERTEX
  5
B5
  8
Z_MAN-L
 10
10.99365746191985
 20
456.7375142059682
 30
0.0
  0
VERTEX
  5
B6
  8
Z_MAN-L
 10
10.08815276719031
 20
449.1933476846971
 30
0.0
  0
VERTEX
  5
B7
  8
Z_MAN-L
 10
10.08815276719031
 20
442.5544811987129
 30
0.0
  0
VERTEX
  5
B8
  8
Z_MAN-L
 10
12.50283167437211
 20
441.0456480262728
 30
0.0
  0
VERTEX
  5
B9
  8
Z_MAN-L
 10
12.50283167437211
 20
437.7262147832735
 30
0.0
  0
VERTEX
  5
BA
  8
Z_MAN-L
 10
10.99365746191985
 20
435.6138478146167
 30
0.0
  0
VERTEX
  5
BB
  8
Z_MAN-L
 10
9.484483249467221
 20
435.9156147127214
 30
0.0
  0
VERTEX
  5
BC
  8
Z_MAN-L
 10
0.4294371384625499
 20
431.3891145363523
 30
0.0
  0
VERTEX
  5
BD
  8
Z_MAN-L
 10
-4.701755016618055
 20
430.4838151601216
 30
0.0
  0
VERTEX
  5
BE
  8
Z_MAN-L
 10
-7.720104277812403
 20
427.4661481561925
 30
0.0
  0
VERTEX
  5
BF
  8
Z_MAN-L
 10
-11.04028704343447
 20
418.7149153605933
 30
0.0
  0
VERTEX
  5
C0
  8
Z_MAN-L
 10
-13.45496595061645
 20
409.6619150078477
 30
0.0
  0
VERTEX
  5
C1
  8
Z_MAN-L
 10
-14.05863630462882
 20
405.7389486276807
 30
0.0
  0
VERTEX
  5
C2
  8
Z_MAN-L
 10
-13.15313160989928
 20
405.437181729576
 30
0.0
  0
VERTEX
  5
C3
  8
Z_MAN-L
 10
-13.45496595061645
 20
399.1000821416965
 30
0.0
  0
VERTEX
  5
C4
  8
Z_MAN-L
 10
-12.85129643289319
 20
394.271815726257
 30
0.0
  0
VERTEX
  5
C5
  8
Z_MAN-L
 10
-10.73845270271748
 20
388.5382492755525
 30
0.0
  0
VERTEX
  5
C6
  8
Z_MAN-L
 10
-7.418269100805954
 20
383.1064490638964
 30
0.0
  0
VERTEX
  5
C7
  8
Z_MAN-L
 10
-2.890746463448437
 20
377.3728826131846
 30
0.0
  0
VERTEX
  5
C8
  8
Z_MAN-L
 10
-0.7779018969834439
 20
373.1481493349202
 30
0.0
  0
VERTEX
  5
C9
  8
Z_MAN-L
 10
-0.7779018969834439
 20
363.1898496059366
 30
0.0
  0
VERTEX
  5
CA
  8
Z_MAN-L
 10
-1.985241768719256
 20
357.4562831552321
 30
0.0
  0
VERTEX
  5
CB
  8
Z_MAN-L
 10
-1.683406591712984
 20
349.3085828377516
 30
0.0
  0
VERTEX
  5
CC
  8
Z_MAN-L
 10
-1.985241768719256
 20
341.7644163164878
 30
0.0
  0
VERTEX
  5
CD
  8
Z_MAN-L
 10
-3.494415981171702
 20
331.5043503484485
 30
0.0
  0
VERTEX
  5
CE
  8
Z_MAN-L
 10
-1.985241768719256
 20
328.7884502426241
 30
0.0
  0
VERTEX
  5
CF
  8
Z_MAN-L
 10
-1.985241768719256
 20
325.770783897744
 30
0.0
  0
VERTEX
  5
D0
  8
Z_MAN-L
 10
0.4294371384625499
 20
320.6407505841926
 30
0.0
  0
VERTEX
  5
D1
  8
Z_MAN-L
 10
4.051455917380167
 20
311.8895171295517
 30
0.0
  0
VERTEX
  5
D2
  8
Z_MAN-L
 10
4.956959775820248
 20
306.1559506788399
 30
0.0
  0
VERTEX
  5
D3
  8
Z_MAN-L
 10
5.862464470549785
 20
298.913551055688
 30
0.0
  0
VERTEX
  5
D4
  8
Z_MAN-L
 10
2.240446527921268
 20
290.1623176010471
 30
0.0
  0
VERTEX
  5
D5
  8
Z_MAN-L
 10
4.051455917380167
 20
283.2216842169437
 30
0.0
  0
VERTEX
  5
D6
  8
Z_MAN-L
 10
7.673473860008503
 20
282.618151079776
 30
0.0
  0
VERTEX
  5
D7
  8
Z_MAN-L
 10
10.99365746191985
 20
282.9199179778807
 30
0.0
  0
VERTEX
  5
D8
  8
Z_MAN-L
 10
12.80466685137839
 20
285.6358180837124
 30
0.0
  0
VERTEX
  5
D9
  8
Z_MAN-L
 10
14.31384106383101
 20
291.0676176363195
 30
0.0
  0
VERTEX
  5
DA
  8
Z_MAN-L
 10
13.71017154610793
 20
294.3870508793188
 30
0.0
  0
VERTEX
  5
DB
  8
Z_MAN-L
 10
14.9175105815541
 20
295.8958840517516
 30
0.0
  0
VERTEX
  5
DC
  8
Z_MAN-L
 10
15.82301527628346
 20
297.7064841223037
 30
0.0
  0
VERTEX
  5
DD
  8
Z_MAN-L
 10
15.21934575856019
 20
304.6471175063925
 30
0.0
  0
VERTEX
  5
DE
  8
Z_MAN-L
 10
13.40833636910165
 20
308.2683169884549
 30
0.0
  0
VERTEX
  5
DF
  8
Z_MAN-L
 10
12.80466685137839
 20
314.907184133488
 30
0.0
  0
VERTEX
  5
E0
  8
Z_MAN-L
 10
13.40833636910165
 20
324.2619500662549
 30
0.0
  0
VERTEX
  5
E1
  8
Z_MAN-L
 10
14.61567540454783
 20
327.5813833092398
 30
0.0
  0
VERTEX
  5
E2
  8
Z_MAN-L
 10
16.12484961700063
 20
331.2025834503438
 30
0.0
  0
VERTEX
  5
E3
  8
Z_MAN-L
 10
16.12484961700063
 20
335.4273167286156
 30
0.0
  0
VERTEX
  5
E4
  8
Z_MAN-L
 10
16.42668479400672
 20
339.0485168697051
 30
0.0
  0
VERTEX
  5
E5
  8
Z_MAN-L
 10
17.3321894887359
 20
342.0661832145997
 30
0.0
  0
VERTEX
  5
E6
  8
Z_MAN-L
 10
17.70601366904075
 20
348.4032834615282
 30
0.0
  0
VERTEX
  5
E7
  8
Z_MAN-L
 10
17.93585900645917
 20
341.4626500774248
 30
0.0
  0
VERTEX
  5
E8
  8
Z_MAN-L
 10
18.23769418346544
 20
330.5990503131761
 30
0.0
  0
VERTEX
  5
E9
  8
Z_MAN-L
 10
18.23769418346544
 20
325.16725010152
 30
0.0
  0
VERTEX
  5
EA
  8
Z_MAN-L
 10
19.4450332189118
 20
323.6584169290727
 30
0.0
  0
VERTEX
  5
EB
  8
Z_MAN-L
 10
17.3321894887359
 20
320.3389836860879
 30
0.0
  0
VERTEX
  5
EC
  8
Z_MAN-L
 10
17.03035431172999
 20
310.0789170589997
 30
0.0
  0
VERTEX
  5
ED
  8
Z_MAN-L
 10
15.21934575856019
 20
304.6471175063925
 30
0.0
  0
VERTEX
  5
EE
  8
Z_MAN-L
 10
15.82301527628346
 20
297.7064841223037
 30
0.0
  0
VERTEX
  5
EF
  8
Z_MAN-L
 10
15.82301527628346
 20
294.6888177774163
 30
0.0
  0
VERTEX
  5
F0
  8
Z_MAN-L
 10
16.12484961700063
 20
289.2570175657675
 30
0.0
  0
VERTEX
  5
F1
  8
Z_MAN-L
 10
17.03035431172999
 20
289.2570175657675
 30
0.0
  0
VERTEX
  5
F2
  8
Z_MAN-L
 10
15.82301527628346
 20
282.0146179426083
 30
0.0
  0
VERTEX
  5
F3
  8
Z_MAN-L
 10
19.4450332189118
 20
280.505784770161
 30
0.0
  0
VERTEX
  5
F4
  8
Z_MAN-L
 10
21.2560426083707
 20
278.6951846996089
 30
0.0
  0
VERTEX
  5
F5
  8
Z_MAN-L
 10
27.59457463518693
 20
277.4881177662392
 30
0.0
  0
VERTEX
  5
F6
  8
Z_MAN-L
 10
31.82026293182763
 20
278.9969509386719
 30
0.0
  0
VERTEX
  5
F7
  8
Z_MAN-L
 10
32.12209727254445
 20
282.0146179426083
 30
0.0
  0
VERTEX
  5
F8
  8
Z_MAN-L
 10
29.40558402464565
 20
284.1269842522233
 30
0.0
  0
VERTEX
  5
F9
  8
Z_MAN-L
 10
26.68906994045757
 20
286.5411174599431
 30
0.0
  0
VERTEX
  5
FA
  8
Z_MAN-L
 10
25.17989572800495
 20
288.0499512914321
 30
0.0
  0
VERTEX
  5
FB
  8
Z_MAN-L
 10
28.80191450692238
 20
299.215317294751
 30
0.0
  0
VERTEX
  5
FC
  8
Z_MAN-L
 10
29.40558402464565
 20
307.6647838512799
 30
0.0
  0
VERTEX
  5
FD
  8
Z_MAN-L
 10
30.91475823709827
 20
313.7001172000964
 30
0.0
  0
VERTEX
  5
FE
  8
Z_MAN-L
 10
33.32943714428008
 20
320.6407505841926
 30
0.0
  0
VERTEX
  5
FF
  8
Z_MAN-L
 10
33.63127232128635
 20
329.6937502778965
 30
0.0
  0
VERTEX
  5
100
  8
Z_MAN-L
 10
34.23494183900944
 20
334.8237835914479
 30
0.0
  0
VERTEX
  5
101
  8
Z_MAN-L
 10
35.44228087445579
 20
338.1432168344327
 30
0.0
  0
VERTEX
  5
102
  8
Z_MAN-L
 10
35.44228087445579
 20
344.4803164223194
 30
0.0
  0
VERTEX
  5
103
  8
Z_MAN-L
 10
36.04595122846834
 20
333.6167166580635
 30
0.0
  0
VERTEX
  5
104
  8
Z_MAN-L
 10
35.44228087445579
 20
329.6937502778965
 30
0.0
  0
VERTEX
  5
105
  8
Z_MAN-L
 10
35.74411605146206
 20
325.770783897744
 30
0.0
  0
VERTEX
  5
106
  8
Z_MAN-L
 10
37.48313560133312
 20
322.1495837566399
 30
0.0
  0
VERTEX
  5
107
  8
Z_MAN-L
 10
37.25329026391469
 20
318.5283836155359
 30
0.0
  0
VERTEX
  5
108
  8
Z_MAN-L
 10
37.55512544092078
 20
314.6054172353688
 30
0.0
  0
VERTEX
  5
109
  8
Z_MAN-L
 10
40.27163868881976
 20
312.1912840276636
 30
0.0
  0
VERTEX
  5
10A
  8
Z_MAN-L
 10
42.0826480782783
 20
308.2683169884549
 30
0.0
  0
VERTEX
  5
10B
  8
Z_MAN-L
 10
44.79916216246656
 20
304.3453506082878
 30
0.0
  0
VERTEX
  5
10C
  8
Z_MAN-L
 10
45.10099650318355
 20
301.6294505024707
 30
0.0
  0
VERTEX
  5
10D
  8
Z_MAN-L
 10
46.30833637491899
 20
299.8188510909604
 30
0.0
  0
VERTEX
  5
10E
  8
Z_MAN-L
 10
47.81751058737163
 20
298.3100172594714
 30
0.0
  0
VERTEX
  5
10F
  8
Z_MAN-L
 10
46.00650119791291
 20
294.9905840164793
 30
0.0
  0
VERTEX
  5
110
  8
Z_MAN-L
 10
44.79916216246656
 20
292.2746845697038
 30
0.0
  0
VERTEX
  5
111
  8
Z_MAN-L
 10
41.47897856055503
 20
288.6534844285998
 30
0.0
  0
VERTEX
  5
112
  8
Z_MAN-L
 10
39.96980434810258
 20
287.7481843933201
 30
0.0
  0
VERTEX
  5
113
  8
Z_MAN-L
 10
39.96980434810258
 20
284.1269842522233
 30
0.0
  0
VERTEX
  5
114
  8
Z_MAN-L
 10
43.28998711372465
 20
282.9199179778807
 30
0.0
  0
VERTEX
  5
115
  8
Z_MAN-L
 10
46.91200589264209
 20
283.5234511150557
 30
0.0
  0
VERTEX
  5
116
  8
Z_MAN-L
 10
49.32668479982406
 20
285.9375843227754
 30
0.0
  0
VERTEX
  5
117
  8
Z_MAN-L
 10
52.04319804772287
 20
289.2570175657675
 30
0.0
  0
VERTEX
  5
118
  8
Z_MAN-L
 10
54.45787695490486
 20
291.6711507734799
 30
0.0
  0
VERTEX
  5
119
  8
Z_MAN-L
 10
54.45787695490486
 20
308.8718507846643
 30
0.0
  0
VERTEX
  5
11A
  8
Z_MAN-L
 10
54.15604261418804
 20
315.5107172706485
 30
0.0
  0
VERTEX
  5
11B
  8
Z_MAN-L
 10
52.34503322472915
 20
319.4336836508155
 30
0.0
  0
VERTEX
  5
11C
  8
Z_MAN-L
 10
51.74136370700606
 20
325.16725010152
 30
0.0
  0
VERTEX
  5
11D
  8
Z_MAN-L
 10
54.15604261418804
 20
329.9955171760012
 30
0.0
  0
VERTEX
  5
11E
  8
Z_MAN-L
 10
54.45787695490486
 20
332.4096503837209
 30
0.0
  0
VERTEX
  5
11F
  8
Z_MAN-L
 10
55.06154730891723
 20
326.6760839330091
 30
0.0
  0
VERTEX
  5
120
  8
Z_MAN-L
 10
55.66521682664049
 20
322.7531168938076
 30
0.0
  0
VERTEX
  5
121
  8
Z_MAN-L
 10
57.17439103909311
 20
318.2266173764729
 30
0.0
  0
VERTEX
  5
122
  8
Z_MAN-L
 10
55.66521682664049
 20
314.6054172353688
 30
0.0
  0
VERTEX
  5
123
  8
Z_MAN-L
 10
55.36338164963439
 20
310.0789170589997
 30
0.0
  0
VERTEX
  5
124
  8
Z_MAN-L
 10
54.45787695490486
 20
308.8718507846643
 30
0.0
  0
VERTEX
  5
125
  8
Z_MAN-L
 10
54.45787695490486
 20
291.6711507734799
 30
0.0
  0
VERTEX
  5
126
  8
Z_MAN-L
 10
54.45787695490486
 20
288.6534844285998
 30
0.0
  0
VERTEX
  5
127
  8
Z_MAN-L
 10
53.55237309646478
 20
283.5234511150557
 30
0.0
  0
VERTEX
  5
128
  8
Z_MAN-L
 10
53.55237309646478
 20
281.4110848054479
 30
0.0
  0
VERTEX
  5
129
  8
Z_MAN-L
 10
55.36338164963439
 20
279.6004847348959
 30
0.0
  0
VERTEX
  5
12A
  8
Z_MAN-L
 10
58.0798957338223
 20
277.4881177662392
 30
0.0
  0
VERTEX
  5
12B
  8
Z_MAN-L
 10
62.90925354818626
 20
278.3934178015115
 30
0.0
  0
VERTEX
  5
12C
  8
Z_MAN-L
 10
64.11659258363244
 20
280.2040178720563
 30
0.0
  0
VERTEX
  5
12D
  8
Z_MAN-L
 10
64.11659258363244
 20
281.4110848054479
 30
0.0
  0
VERTEX
  5
12E
  8
Z_MAN-L
 10
63.79442888832416
 20
282.4014647502991
 30
0.0
  0
SEQEND
  5
2DA
  8
Z_MAN-L
  0
INSERT
  5
23
  8
Z_MAN-L
  2
*U0
 10
0.0
 20
0.0
 30
0.0
1001
ACAD
1002
{
1000
R14_HATCH_DATA
1000
23
1011
1.0
1021
0.0
1031
0.0
1021
0.0
1031
0.0
1011
0.0
1021
1.0
1031
0.0
1021
1.0
1031
0.0
1011
0.0
1021
0.0
1031
1.0
1021
0.0
1031
1.0
1040
0.0
1010
0.0
1020
0.0
1030
1.0
1000
SOLID
1070
     1
1070
     1
1071
        1
1071
        1
1071
      173
1070
     1
1040
63.79442888832416
1040
282.4014647502991
1040
63.81475824291562
1040
282.3163841816713
1070
     1
1040
63.81475824291562
1040
282.3163841816713
1040
61.40007933573382
1040
285.9375843227754
1070
     1
1040
61.40007933573382
1040
285.9375843227754
1040
61.40007933573382
1040
289.8605507029279
1070
     1
1040
61.40007933573382
1040
289.8605507029279
1040
62.60741837118017
1040
292.8782177068715
1070
     1
1040
62.60741837118017
1040
292.8782177068715
1040
64.72026293764516
1040
291.9729176715846
1070
     1
1040
64.72026293764516
1040
291.9729176715846
1040
66.22943715009743
1040
293.4817508440319
1070
     1
1040
66.22943715009743
1040
293.4817508440319
1040
65.02209727836197
1040
294.6888177774163
1070
     1
1040
65.02209727836197
1040
294.6888177774163
1040
68.9459503979964
1040
301.3276842634077
1070
     1
1040
68.9459503979964
1040
301.3276842634077
1040
70.45512461044885
1040
310.3806839571116
1070
     1
1040
70.45512461044885
1040
310.3806839571116
1040
71.36062930517839
1040
316.7177835449838
1070
     1
1040
71.36062930517839
1040
316.7177835449838
1040
73.17163869463693
1040
326.3743170349117
1070
     1
1040
73.17163869463693
1040
326.3743170349117
1040
75.58631760181892
1040
343.8767832851518
1070
     1
1040
75.58631760181892
1040
343.8767832851518
1040
75.58631760181892
1040
353.2315498769603
1070
     1
1040
75.58631760181892
1040
353.2315498769603
1040
75.888152778825
1040
357.1545162571128
1070
     1
1040
75.888152778825
1040
357.1545162571128
1040
79.20833554444725
1040
358.0598162923998
1070
     1
1040
79.20833554444725
1040
358.0598162923998
1040
80.41567541618271
1040
361.3792495353846
1070
     1
1040
80.41567541618271
1040
361.3792495353846
1040
79.81200589845962
1040
365.3022159155516
1070
     1
1040
79.81200589845962
1040
365.3022159155516
1040
77.69916133199463
1040
368.9234160566557
1070
     1
1040
77.69916133199463
1040
368.9234160566557
1040
77.09549181427172
1040
369.8287160919208
1070
     1
1040
77.09549181427172
1040
369.8287160919208
1040
82.52851914635859
1040
377.3728826131846
1070
     1
1040
82.52851914635859
1040
377.3728826131846
1040
86.15053792527603
1040
384.9170491344485
1070
     1
1040
86.15053792527603
1040
384.9170491344485
1040
83.43402384108795
1040
390.3488486870483
1070
     1
1040
83.43402384108795
1040
390.3488486870483
1040
81.01934493390578
1040
403.0230485218635
1070
     1
1040
81.01934493390578
1040
403.0230485218635
1040
78.0009965090009
1040
409.6619150078477
1070
     1
1040
78.0009965090009
1040
409.6619150078477
1040
72.26613399990775
1040
415.3954821176085
1070
     1
1040
72.26613399990775
1040
415.3954821176085
1040
67.43677618554378
1040
416.9043152900413
1070
     1
1040
67.43677618554378
1040
416.9043152900413
1040
63.81475824291562
1040
428.6732150895696
1070
     1
1040
63.81475824291562
1040
428.6732150895696
1040
59.89090512328119
1040
436.2173816108407
1070
     1
1040
59.89090512328119
1040
436.2173816108407
1040
59.28723476926882
1040
439.8385810928885
1070
     1
1040
59.28723476926882
1040
439.8385810928885
1040
56.26888634436358
1040
443.1580143358879
1070
     1
1040
56.26888634436358
1040
443.1580143358879
1040
51.43952852999979
1040
444.3650812692649
1070
     1
1040
51.43952852999979
1040
444.3650812692649
1040
46.91200589264209
1040
444.0633143711602
1070
     1
1040
46.91200589264209
1040
444.0633143711602
1040
41.7808129012722
1040
441.3474149243775
1070
     1
1040
41.7808129012722
1040
441.3474149243775
1040
37.25329026391469
1040
437.4244478851688
1070
     1
1040
37.25329026391469
1040
437.4244478851688
1040
36.95145508690841
1040
435.0103146774563
1070
     1
1040
36.95145508690841
1040
435.0103146774563
1040
38.15879495864387
1040
435.3120815755537
1070
     1
1040
38.15879495864387
1040
435.3120815755537
1040
37.85695978163795
1040
430.4838151601216
1070
     1
1040
37.85695978163795
1040
430.4838151601216
1040
30.31108871937501
1040
433.1997146069043
1070
     1
1040
30.31108871937501
1040
433.1997146069043
1040
26.68906994045757
1040
435.0103146774563
1070
     1
1040
26.68906994045757
1040
435.0103146774563
1040
29.10374884763955
1040
436.2173816108407
1070
     1
1040
29.10374884763955
1040
436.2173816108407
1040
29.40558402464565
1040
436.8209147480011
1070
     1
1040
29.40558402464565
1040
436.8209147480011
1040
28.80191450692238
1040
437.4244478851688
1070
     1
1040
28.80191450692238
1040
437.4244478851688
1040
30.91475823709827
1040
441.6491811634405
1070
     1
1040
30.91475823709827
1040
441.6491811634405
1040
30.31108871937501
1040
445.8739144417123
1070
     1
1040
30.31108871937501
1040
445.8739144417123
1040
32.42393244955072
1040
447.3827476141596
1070
     1
1040
32.42393244955072
1040
447.3827476141596
1040
30.31108871937501
1040
454.9269141354162
1070
     1
1040
30.31108871937501
1040
454.9269141354162
1040
31.51842775482136
1040
456.7375142059682
1070
     1
1040
31.51842775482136
1040
456.7375142059682
1040
31.51842775482136
1040
458.5481142765202
1070
     1
1040
31.51842775482136
1040
458.5481142765202
1040
26.99090511746384
1040
461.2640143823373
1070
     1
1040
26.99090511746384
1040
461.2640143823373
1040
22.16154730309988
1040
460.9622474842326
1070
     1
1040
22.16154730309988
1040
460.9622474842326
1040
15.82301527628346
1040
460.6604812451696
1070
     1
1040
15.82301527628346
1040
460.6604812451696
1040
10.99365746191985
1040
456.7375142059682
1070
     1
1040
10.99365746191985
1040
456.7375142059682
1040
10.08815276719031
1040
449.1933476846971
1070
     1
1040
10.08815276719031
1040
449.1933476846971
1040
10.08815276719031
1040
442.5544811987129
1070
     1
1040
10.08815276719031
1040
442.5544811987129
1040
12.50283167437211
1040
441.0456480262728
1070
     1
1040
12.50283167437211
1040
441.0456480262728
1040
12.50283167437211
1040
437.7262147832735
1070
     1
1040
12.50283167437211
1040
437.7262147832735
1040
10.99365746191985
1040
435.6138478146167
1070
     1
1040
10.99365746191985
1040
435.6138478146167
1040
9.484483249467221
1040
435.9156147127214
1070
     1
1040
9.484483249467221
1040
435.9156147127214
1040
0.4294371384625499
1040
431.3891145363523
1070
     1
1040
0.4294371384625499
1040
431.3891145363523
1040
-4.701755016618055
1040
430.4838151601216
1070
     1
1040
-4.701755016618055
1040
430.4838151601216
1040
-7.720104277812403
1040
427.4661481561925
1070
     1
1040
-7.720104277812403
1040
427.4661481561925
1040
-11.04028704343447
1040
418.7149153605933
1070
     1
1040
-11.04028704343447
1040
418.7149153605933
1040
-13.45496595061645
1040
409.6619150078477
1070
     1
1040
-13.45496595061645
1040
409.6619150078477
1040
-14.05863630462882
1040
405.7389486276807
1070
     1
1040
-14.05863630462882
1040
405.7389486276807
1040
-13.15313160989928
1040
405.437181729576
1070
     1
1040
-13.15313160989928
1040
405.437181729576
1040
-13.45496595061645
1040
399.1000821416965
1070
     1
1040
-13.45496595061645
1040
399.1000821416965
1040
-12.85129643289319
1040
394.271815726257
1070
     1
1040
-12.85129643289319
1040
394.271815726257
1040
-10.73845270271748
1040
388.5382492755525
1070
     1
1040
-10.73845270271748
1040
388.5382492755525
1040
-7.418269100805954
1040
383.1064490638964
1070
     1
1040
-7.418269100805954
1040
383.1064490638964
1040
-2.890746463448437
1040
377.3728826131846
1070
     1
1040
-2.890746463448437
1040
377.3728826131846
1040
-0.7779018969834439
1040
373.1481493349202
1070
     1
1040
-0.7779018969834439
1040
373.1481493349202
1040
-0.7779018969834439
1040
363.1898496059366
1070
     1
1040
-0.7779018969834439
1040
363.1898496059366
1040
-1.985241768719256
1040
357.4562831552321
1070
     1
1040
-1.985241768719256
1040
357.4562831552321
1040
-1.683406591712984
1040
349.3085828377516
1070
     1
1040
-1.683406591712984
1040
349.3085828377516
1040
-1.985241768719256
1040
341.7644163164878
1070
     1
1040
-1.985241768719256
1040
341.7644163164878
1040
-3.494415981171702
1040
331.5043503484485
1070
     1
1040
-3.494415981171702
1040
331.5043503484485
1040
-1.985241768719256
1040
328.7884502426241
1070
     1
1040
-1.985241768719256
1040
328.7884502426241
1040
-1.985241768719256
1040
325.770783897744
1070
     1
1040
-1.985241768719256
1040
325.770783897744
1040
0.4294371384625499
1040
320.6407505841926
1070
     1
1040
0.4294371384625499
1040
320.6407505841926
1040
4.051455917380167
1040
311.8895171295517
1070
     1
1040
4.051455917380167
1040
311.8895171295517
1040
4.956959775820248
1040
306.1559506788399
1070
     1
1040
4.956959775820248
1040
306.1559506788399
1040
5.862464470549785
1040
298.913551055688
1070
     1
1040
5.862464470549785
1040
298.913551055688
1040
2.240446527921268
1040
290.1623176010471
1070
     1
1040
2.240446527921268
1040
290.1623176010471
1040
4.051455917380167
1040
283.2216842169437
1070
     1
1040
4.051455917380167
1040
283.2216842169437
1040
7.673473860008503
1040
282.618151079776
1070
     1
1040
7.673473860008503
1040
282.618151079776
1040
10.99365746191985
1040
282.9199179778807
1070
     1
1040
10.99365746191985
1040
282.9199179778807
1040
12.80466685137839
1040
285.6358180837124
1070
     1
1040
12.80466685137839
1040
285.6358180837124
1040
14.31384106383101
1040
291.0676176363195
1070
     1
1040
14.31384106383101
1040
291.0676176363195
1040
13.71017154610793
1040
294.3870508793188
1070
     1
1040
13.71017154610793
1040
294.3870508793188
1040
14.9175105815541
1040
295.8958840517516
1070
     1
1040
14.9175105815541
1040
295.8958840517516
1040
15.82301527628346
1040
297.7064841223037
1070
     1
1040
15.82301527628346
1040
297.7064841223037
1040
15.21934575856019
1040
304.6471175063925
1070
     1
1040
15.21934575856019
1040
304.6471175063925
1040
13.40833636910165
1040
308.2683169884549
1070
     1
1040
13.40833636910165
1040
308.2683169884549
1040
12.80466685137839
1040
314.907184133488
1070
     1
1040
12.80466685137839
1040
314.907184133488
1040
13.40833636910165
1040
324.2619500662549
1070
     1
1040
13.40833636910165
1040
324.2619500662549
1040
14.61567540454783
1040
327.5813833092398
1070
     1
1040
14.61567540454783
1040
327.5813833092398
1040
16.12484961700063
1040
331.2025834503438
1070
     1
1040
16.12484961700063
1040
331.2025834503438
1040
16.12484961700063
1040
335.4273167286156
1070
     1
1040
16.12484961700063
1040
335.4273167286156
1040
16.42668479400672
1040
339.0485168697051
1070
     1
1040
16.42668479400672
1040
339.0485168697051
1040
17.3321894887359
1040
342.0661832145997
1070
     1
1040
17.3321894887359
1040
342.0661832145997
1040
17.70601366904075
1040
348.4032834615282
1070
     1
1040
17.70601366904075
1040
348.4032834615282
1040
17.93585900645917
1040
341.4626500774248
1070
     1
1040
17.93585900645917
1040
341.4626500774248
1040
18.23769418346544
1040
330.5990503131761
1070
     1
1040
18.23769418346544
1040
330.5990503131761
1040
18.23769418346544
1040
325.16725010152
1070
     1
1040
18.23769418346544
1040
325.16725010152
1040
19.4450332189118
1040
323.6584169290727
1070
     1
1040
19.4450332189118
1040
323.6584169290727
1040
17.3321894887359
1040
320.3389836860879
1070
     1
1040
17.3321894887359
1040
320.3389836860879
1040
17.03035431172999
1040
310.0789170589997
1070
     1
1040
17.03035431172999
1040
310.0789170589997
1040
15.21934575856019
1040
304.6471175063925
1070
     1
1040
15.21934575856019
1040
304.6471175063925
1040
15.82301527628346
1040
297.7064841223037
1070
     1
1040
15.82301527628346
1040
297.7064841223037
1040
15.82301527628346
1040
294.6888177774163
1070
     1
1040
15.82301527628346
1040
294.6888177774163
1040
16.12484961700063
1040
289.2570175657675
1070
     1
1040
16.12484961700063
1040
289.2570175657675
1040
17.03035431172999
1040
289.2570175657675
1070
     1
1040
17.03035431172999
1040
289.2570175657675
1040
15.82301527628346
1040
282.0146179426083
1070
     1
1040
15.82301527628346
1040
282.0146179426083
1040
19.4450332189118
1040
280.505784770161
1070
     1
1040
19.4450332189118
1040
280.505784770161
1040
21.2560426083707
1040
278.6951846996089
1070
     1
1040
21.2560426083707
1040
278.6951846996089
1040
27.59457463518693
1040
277.4881177662392
1070
     1
1040
27.59457463518693
1040
277.4881177662392
1040
31.82026293182763
1040
278.9969509386719
1070
     1
1040
31.82026293182763
1040
278.9969509386719
1040
32.12209727254445
1040
282.0146179426083
1070
     1
1040
32.12209727254445
1040
282.0146179426083
1040
29.40558402464565
1040
284.1269842522233
1070
     1
1040
29.40558402464565
1040
284.1269842522233
1040
26.68906994045757
1040
286.5411174599431
1070
     1
1040
26.68906994045757
1040
286.5411174599431
1040
25.17989572800495
1040
288.0499512914321
1070
     1
1040
25.17989572800495
1040
288.0499512914321
1040
28.80191450692238
1040
299.215317294751
1070
     1
1040
28.80191450692238
1040
299.215317294751
1040
29.40558402464565
1040
307.6647838512799
1070
     1
1040
29.40558402464565
1040
307.6647838512799
1040
30.91475823709827
1040
313.7001172000964
1070
     1
1040
30.91475823709827
1040
313.7001172000964
1040
33.32943714428008
1040
320.6407505841926
1070
     1
1040
33.32943714428008
1040
320.6407505841926
1040
33.63127232128635
1040
329.6937502778965
1070
     1
1040
33.63127232128635
1040
329.6937502778965
1040
34.23494183900944
1040
334.8237835914479
1070
     1
1040
34.23494183900944
1040
334.8237835914479
1040
35.44228087445579
1040
338.1432168344327
1070
     1
1040
35.44228087445579
1040
338.1432168344327
1040
35.44228087445579
1040
344.4803164223194
1070
     1
1040
35.44228087445579
1040
344.4803164223194
1040
36.04595122846834
1040
333.6167166580635
1070
     1
1040
36.04595122846834
1040
333.6167166580635
1040
35.44228087445579
1040
329.6937502778965
1070
     1
1040
35.44228087445579
1040
329.6937502778965
1040
35.74411605146206
1040
325.770783897744
1070
     1
1040
35.74411605146206
1040
325.770783897744
1040
37.48313560133312
1040
322.1495837566399
1070
     1
1040
37.48313560133312
1040
322.1495837566399
1040
37.25329026391469
1040
318.5283836155359
1070
     1
1040
37.25329026391469
1040
318.5283836155359
1040
37.55512544092078
1040
314.6054172353688
1070
     1
1040
37.55512544092078
1040
314.6054172353688
1040
40.27163868881976
1040
312.1912840276636
1070
     1
1040
40.27163868881976
1040
312.1912840276636
1040
42.0826480782783
1040
308.2683169884549
1070
     1
1040
42.0826480782783
1040
308.2683169884549
1040
44.79916216246656
1040
304.3453506082878
1070
     1
1040
44.79916216246656
1040
304.3453506082878
1040
45.10099650318355
1040
301.6294505024707
1070
     1
1040
45.10099650318355
1040
301.6294505024707
1040
46.30833637491899
1040
299.8188510909604
1070
     1
1040
46.30833637491899
1040
299.8188510909604
1040
47.81751058737163
1040
298.3100172594714
1070
     1
1040
47.81751058737163
1040
298.3100172594714
1040
46.00650119791291
1040
294.9905840164793
1070
     1
1040
46.00650119791291
1040
294.9905840164793
1040
44.79916216246656
1040
292.2746845697038
1070
     1
1040
44.79916216246656
1040
292.2746845697038
1040
41.47897856055503
1040
288.6534844285998
1070
     1
1040
41.47897856055503
1040
288.6534844285998
1040
39.96980434810258
1040
287.7481843933201
1070
     1
1040
39.96980434810258
1040
287.7481843933201
1040
39.96980434810258
1040
284.1269842522233
1070
     1
1040
39.96980434810258
1040
284.1269842522233
1040
43.28998711372465
1040
282.9199179778807
1070
     1
1040
43.28998711372465
1040
282.9199179778807
1040
46.91200589264209
1040
283.5234511150557
1070
     1
1040
46.91200589264209
1040
283.5234511150557
1040
49.32668479982406
1040
285.9375843227754
1070
     1
1040
49.32668479982406
1040
285.9375843227754
1040
52.04319804772287
1040
289.2570175657675
1070
     1
1040
52.04319804772287
1040
289.2570175657675
1040
54.45787695490486
1040
291.6711507734799
1070
     1
1040
54.45787695490486
1040
291.6711507734799
1040
54.45787695490486
1040
308.8718507846643
1070
     1
1040
54.45787695490486
1040
308.8718507846643
1040
54.15604261418804
1040
315.5107172706485
1070
     1
1040
54.15604261418804
1040
315.5107172706485
1040
52.34503322472915
1040
319.4336836508155
1070
     1
1040
52.34503322472915
1040
319.4336836508155
1040
51.74136370700606
1040
325.16725010152
1070
     1
1040
51.74136370700606
1040
325.16725010152
1040
54.15604261418804
1040
329.9955171760012
1070
     1
1040
54.15604261418804
1040
329.9955171760012
1040
54.45787695490486
1040
332.4096503837209
1070
     1
1040
54.45787695490486
1040
332.4096503837209
1040
55.06154730891723
1040
326.6760839330091
1070
     1
1040
55.06154730891723
1040
326.6760839330091
1040
55.66521682664049
1040
322.7531168938076
1070
     1
1040
55.66521682664049
1040
322.7531168938076
1040
57.17439103909311
1040
318.2266173764729
1070
     1
1040
57.17439103909311
1040
318.2266173764729
1040
55.66521682664049
1040
314.6054172353688
1070
     1
1040
55.66521682664049
1040
314.6054172353688
1040
55.36338164963439
1040
310.0789170589997
1070
     1
1040
55.36338164963439
1040
310.0789170589997
1040
54.45787695490486
1040
308.8718507846643
1070
     1
1040
54.45787695490486
1040
308.8718507846643
1040
54.45787695490486
1040
291.6711507734799
1070
     1
1040
54.45787695490486
1040
291.6711507734799
1040
54.45787695490486
1040
288.6534844285998
1070
     1
1040
54.45787695490486
1040
288.6534844285998
1040
53.55237309646478
1040
283.5234511150557
1070
     1
1040
53.55237309646478
1040
283.5234511150557
1040
53.55237309646478
1040
281.4110848054479
1070
     1
1040
53.55237309646478
1040
281.4110848054479
1040
55.36338164963439
1040
279.6004847348959
1070
     1
1040
55.36338164963439
1040
279.6004847348959
1040
58.0798957338223
1040
277.4881177662392
1070
     1
1040
58.0798957338223
1040
277.4881177662392
1040
62.90925354818626
1040
278.3934178015115
1070
     1
1040
62.90925354818626
1040
278.3934178015115
1040
64.11659258363244
1040
280.2040178720563
1070
     1
1040
64.11659258363244
1040
280.2040178720563
1040
64.11659258363244
1040
281.4110848054479
1070
     1
1040
64.11659258363244
1040
281.4110848054479
1040
63.79442888832416
1040
282.4014647502991
1071
        1
1005
1E
1070
     0
1070
     1
1071
        1
1040
0.0
1040
0.0
1040
0.0
1002
}
  0
ENDSEC
  0
EOF
