  0
SECTION
  2
HEADER
  9
$ACADVER
  1
AC1009
  9
$DWGCODEPAGE
  3
ansi_1252
  9
$INSBASE
 10
6.130567021196506
 20
4.82053684111932
 30
0.0
  9
$EXTMIN
 10
-90.6419668861545
 20
-62.88949330893663
 30
0.0
  9
$EXTMAX
 10
47.90319892283089
 20
86.7529579850777
 30
0.0
  9
$LIMMIN
 10
0.0
 20
0.0
  9
$LIMMAX
 10
12.0
 20
9.0
  9
$ORTHOMODE
 70
     0
  9
$REGENMODE
 70
     1
  9
$FILLMODE
 70
     1
  9
$QTEXTMODE
 70
     0
  9
$MIRRTEXT
 70
     1
  9
$DRAGMODE
 70
     2
  9
$LTSCALE
 40
1.0
  9
$OSMODE
 70
    37
  9
$ATTMODE
 70
     1
  9
$TEXTSIZE
 40
0.2
  9
$TRACEWID
 40
0.05
  9
$TEXTSTYLE
  7
STANDARD
  9
$CLAYER
  8
0
  9
$CELTYPE
  6
BYLAYER
  9
$CECOLOR
 62
   256
  9
$DIMSCALE
 40
1.0
  9
$DIMASZ
 40
0.18
  9
$DIMEXO
 40
0.0625
  9
$DIMDLI
 40
0.38
  9
$DIMRND
 40
0.0
  9
$DIMDLE
 40
0.0
  9
$DIMEXE
 40
0.18
  9
$DIMTP
 40
0.0
  9
$DIMTM
 40
0.0
  9
$DIMTXT
 40
0.18
  9
$DIMCEN
 40
0.09
  9
$DIMTSZ
 40
0.0
  9
$DIMTOL
 70
     0
  9
$DIMLIM
 70
     0
  9
$DIMTIH
 70
     1
  9
$DIMTOH
 70
     1
  9
$DIMSE1
 70
     0
  9
$DIMSE2
 70
     0
  9
$DIMTAD
 70
     0
  9
$DIMZIN
 70
     0
  9
$DIMBLK
  1

  9
$DIMASO
 70
     1
  9
$DIMSHO
 70
     0
  9
$DIMPOST
  1

  9
$DIMAPOST
  1

  9
$DIMALT
 70
     0
  9
$DIMALTD
 70
     2
  9
$DIMALTF
 40
25.4
  9
$DIMLFAC
 40
1.0
  9
$DIMTOFL
 70
     0
  9
$DIMTVP
 40
0.0
  9
$DIMTIX
 70
     0
  9
$DIMSOXD
 70
     0
  9
$DIMSAH
 70
     0
  9
$DIMBLK1
  1

  9
$DIMBLK2
  1

  9
$DIMSTYLE
  2
STANDARD
  9
$DIMCLRD
 70
     0
  9
$DIMCLRE
 70
     0
  9
$DIMCLRT
 70
     0
  9
$DIMTFAC
 40
1.0
  9
$DIMGAP
 40
0.09
  9
$LUNITS
 70
     2
  9
$LUPREC
 70
     4
  9
$SKETCHINC
 40
0.1
  9
$FILLETRAD
 40
0.0
  9
$AUNITS
 70
     0
  9
$AUPREC
 70
     0
  9
$MENU
  1
amenu
  9
$ELEVATION
 40
0.0
  9
$PELEVATION
 40
0.0
  9
$THICKNESS
 40
0.0
  9
$LIMCHECK
 70
     0
  9
$CHAMFERA
 40
0.0
  9
$CHAMFERB
 40
0.0
  9
$SKPOLY
 70
     0
  9
$TDCREATE
 40
2450498.961587616
  9
$TDUPDATE
 40
2457483.532986111
  9
$TDINDWG
 40
0.0035125
  9
$TDUSRTIMER
 40
0.0035125
  9
$USRTIMER
 70
     1
  9
$ANGBASE
 50
0.0
  9
$ANGDIR
 70
     0
  9
$PDMODE
 70
     0
  9
$PDSIZE
 40
0.0
  9
$PLINEWID
 40
0.0
  9
$COORDS
 70
     1
  9
$SPLFRAME
 70
     0
  9
$SPLINETYPE
 70
     6
  9
$SPLINESEGS
 70
     8
  9
$ATTDIA
 70
     0
  9
$ATTREQ
 70
     1
  9
$HANDLING
 70
     1
  9
$HANDSEED
  5
A3F
  9
$SURFTAB1
 70
     6
  9
$SURFTAB2
 70
     6
  9
$SURFTYPE
 70
     6
  9
$SURFU
 70
     6
  9
$SURFV
 70
     6
  9
$UCSNAME
  2

  9
$UCSORG
 10
0.0
 20
0.0
 30
0.0
  9
$UCSXDIR
 10
1.0
 20
0.0
 30
0.0
  9
$UCSYDIR
 10
0.0
 20
1.0
 30
0.0
  9
$PUCSNAME
  2

  9
$PUCSORG
 10
0.0
 20
0.0
 30
0.0
  9
$PUCSXDIR
 10
1.0
 20
0.0
 30
0.0
  9
$PUCSYDIR
 10
0.0
 20
1.0
 30
0.0
  9
$USERI1
 70
     0
  9
$USERI2
 70
     0
  9
$USERI3
 70
     0
  9
$USERI4
 70
     0
  9
$USERI5
 70
     0
  9
$USERR1
 40
0.0
  9
$USERR2
 40
0.0
  9
$USERR3
 40
0.0
  9
$USERR4
 40
0.0
  9
$USERR5
 40
0.0
  9
$WORLDVIEW
 70
     1
  9
$SHADEDGE
 70
     3
  9
$SHADEDIF
 70
    70
  9
$TILEMODE
 70
     1
  9
$MAXACTVP
 70
    16
  9
$PLIMCHECK
 70
     0
  9
$PEXTMIN
 10
1.000000000000000E+20
 20
1.000000000000000E+20
 30
1.000000000000000E+20
  9
$PEXTMAX
 10
-1.000000000000000E+20
 20
-1.000000000000000E+20
 30
-1.000000000000000E+20
  9
$PLIMMIN
 10
0.0
 20
0.0
  9
$PLIMMAX
 10
12.0
 20
9.0
  9
$UNITMODE
 70
     0
  9
$VISRETAIN
 70
     0
  9
$PLINEGEN
 70
     0
  9
$PSLTSCALE
 70
     0
  0
ENDSEC
  0
SECTION
  2
TABLES
  0
TABLE
  2
VPORT
 70
     1
  0
VPORT
  2
*ACTIVE
 70
     0
 10
0.0
 20
0.0
 11
1.0
 21
1.0
 12
-21.13766497215514
 22
28.91826964684479
 13
0.0
 23
0.0
 14
1.0
 24
1.0
 15
0.0
 25
0.0
 16
0.0
 26
0.0
 36
1.0
 17
0.0
 27
0.0
 37
0.0
 40
185.4020904117237
 41
1.503537735849056
 42
50.0
 43
0.0
 44
0.0
 50
0.0
 51
0.0
 71
     0
 72
   100
 73
     1
 74
     1
 75
     0
 76
     0
 77
     0
 78
     0
  0
ENDTAB
  0
TABLE
  2
LTYPE
 70
     1
  0
LTYPE
  2
CONTINUOUS
 70
     0
  3
Solid line
 72
    65
 73
     0
 40
0.0
  0
ENDTAB
  0
TABLE
  2
LAYER
 70
     7
  0
LAYER
  2
0
 70
     0
 62
     7
  6
CONTINUOUS
  0
LAYER
  2
SYMBOLS
 70
     0
 62
     6
  6
CONTINUOUS
  0
LAYER
  2
7
 70
     0
 62
     7
  6
CONTINUOUS
  0
LAYER
  2
1
 70
     0
 62
     7
  6
CONTINUOUS
  0
LAYER
  2
2
 70
     0
 62
     7
  6
CONTINUOUS
  0
LAYER
  2
4
 70
     0
 62
     7
  6
CONTINUOUS
  0
LAYER
  2
3
 70
     0
 62
     7
  6
CONTINUOUS
  0
ENDTAB
  0
TABLE
  2
STYLE
 70
     1
  0
STYLE
  2
STANDARD
 70
     0
 40
0.0
 41
1.0
 50
0.0
 71
     0
 42
0.2
  3
txt
  4

  0
ENDTAB
  0
TABLE
  2
VIEW
 70
     0
  0
ENDTAB
  0
TABLE
  2
UCS
 70
     0
  0
ENDTAB
  0
TABLE
  2
APPID
 70
     2
  0
APPID
  2
ACAD
 70
     0
  0
APPID
  2
DCO15
 70
     0
  0
ENDTAB
  0
TABLE
  2
DIMSTYLE
 70
     1
  0
DIMSTYLE
  2
STANDARD
 70
     0
  3

  4

  5

  6

  7

 40
1.0
 41
0.18
 42
0.0625
 43
0.38
 44
0.18
 45
0.0
 46
0.0
 47
0.0
 48
0.0
140
0.18
141
0.09
142
0.0
143
25.4
144
1.0
145
0.0
146
1.0
147
0.09
 71
     0
 72
     0
 73
     1
 74
     1
 75
     0
 76
     0
 77
     0
 78
     0
170
     0
171
     2
172
     0
173
     0
174
     0
175
     0
176
     0
177
     0
178
     0
  0
ENDTAB
  0
ENDSEC
  0
SECTION
  2
BLOCKS
  0
BLOCK
  8
0
  2
$MODEL_SPACE
 70
     0
 10
0.0
 20
0.0
 30
0.0
  3
$MODEL_SPACE
  1

  0
ENDBLK
  5
2A
  8
0
  0
BLOCK
 67
     1
  8
0
  2
$PAPER_SPACE
 70
     0
 10
0.0
 20
0.0
 30
0.0
  3
$PAPER_SPACE
  1

  0
ENDBLK
  5
28
 67
     1
  8
0
  0
ENDSEC
  0
SECTION
  2
ENTITIES
  0
POLYLINE
  5
2B
  8
7
  6
CONTINUOUS
 66
     1
 10
0.0
 20
0.0
 30
0.0
  0
VERTEX
  5
57D
  8
7
  6
CONTINUOUS
 10
22.26525394874854
 20
-51.21240440705356
 30
0.0
  0
VERTEX
  5
57E
  8
7
  6
CONTINUOUS
 10
22.1044787654724
 20
-51.34153093220448
 30
0.0
  0
VERTEX
  5
57F
  8
7
  6
CONTINUOUS
 10
21.8791403196208
 20
-51.40609419477995
 30
0.0
  0
VERTEX
  5
580
  8
7
  6
CONTINUOUS
 10
21.6550678200942
 20
-51.40609419477995
 30
0.0
  0
VERTEX
  5
581
  8
7
  6
CONTINUOUS
 10
21.46137803236783
 20
-51.34153093220448
 30
0.0
  0
VERTEX
  5
582
  8
7
  6
CONTINUOUS
 10
21.26895419096645
 20
-51.2453190115038
 30
0.0
  0
VERTEX
  5
583
  8
7
  6
CONTINUOUS
 10
21.10817900769031
 20
-51.11619248635289
 30
0.0
  0
VERTEX
  5
584
  8
7
  6
CONTINUOUS
 10
21.07526440324008
 20
-50.95541730307674
 30
0.0
  0
VERTEX
  5
585
  8
7
  6
CONTINUOUS
 10
21.10817900769031
 20
-50.76299346167537
 30
0.0
  0
VERTEX
  5
586
  8
7
  6
CONTINUOUS
 10
21.36516611166714
 20
-50.50474041137354
 30
0.0
  0
VERTEX
  5
587
  8
7
  6
CONTINUOUS
 10
21.62215321564397
 20
-50.27940196552193
 30
0.0
  0
VERTEX
  5
588
  8
7
  6
CONTINUOUS
 10
21.8791403196208
 20
-50.05532946599534
 30
0.0
  0
VERTEX
  5
589
  8
7
  6
CONTINUOUS
 10
22.13739336992263
 20
-49.82999102014373
 30
0.0
  0
VERTEX
  5
58A
  8
7
  6
CONTINUOUS
 10
22.39438047389946
 20
-49.60465257429213
 30
0.0
  0
VERTEX
  5
58B
  8
7
  6
CONTINUOUS
 10
22.65136757787629
 20
-49.34639952399029
 30
0.0
  0
VERTEX
  5
58C
  8
7
  6
CONTINUOUS
 10
22.90962062817812
 20
-49.05776376188824
 30
0.0
  0
VERTEX
  5
58D
  8
7
  6
CONTINUOUS
 10
23.13369312770472
 20
-48.76786205346119
 30
0.0
  0
VERTEX
  5
58E
  8
7
  6
CONTINUOUS
 10
23.48815809870725
 20
-48.86407397416186
 30
0.0
  0
VERTEX
  5
58F
  8
7
  6
CONTINUOUS
 10
23.58437001940792
 20
-49.08941242001347
 30
0.0
  0
VERTEX
  5
590
  8
7
  6
CONTINUOUS
 10
23.51980675683247
 20
-49.37931412844053
 30
0.0
  0
VERTEX
  5
591
  8
7
  6
CONTINUOUS
 10
23.29446831098086
 20
-49.73251315311804
 30
0.0
  0
VERTEX
  5
592
  8
7
  6
CONTINUOUS
 10
23.00583254887881
 20
-50.15154138669602
 30
0.0
  0
VERTEX
  5
593
  8
7
  6
CONTINUOUS
 10
22.68428218232652
 20
-50.53765501582376
 30
0.0
  0
VERTEX
  5
594
  8
7
  6
CONTINUOUS
 10
22.42602913202468
 20
-50.89085404050129
 30
0.0
  0
VERTEX
  5
595
  8
7
  6
CONTINUOUS
 10
22.26525394874854
 20
-51.21240440705356
 30
0.0
  0
SEQEND
  5
A3C
  8
7
  6
CONTINUOUS
  0
POLYLINE
  5
46
  8
7
  6
CONTINUOUS
 66
     1
 10
0.0
 20
0.0
 30
0.0
  0
VERTEX
  5
596
  8
7
  6
CONTINUOUS
 10
-12.47484510214855
 20
-2.639309862783087
 30
0.0
  0
VERTEX
  5
597
  8
7
  6
CONTINUOUS
 10
-12.95843659830199
 20
-1.899997208977837
 30
0.0
  0
VERTEX
  5
598
  8
7
  6
CONTINUOUS
 10
-13.47241080625564
 20
-1.192333213297808
 30
0.0
  0
VERTEX
  5
599
  8
7
  6
CONTINUOUS
 10
-14.05221422310977
 20
-0.484669217617764
 30
0.0
  0
VERTEX
  5
59A
  8
7
  6
CONTINUOUS
 10
-14.63075169363889
 20
0.1913461199370374
 30
0.0
  0
VERTEX
  5
59B
  8
7
  6
CONTINUOUS
 10
-15.27385242674345
 20
0.8344468530416194
 30
0.0
  0
VERTEX
  5
59C
  8
7
  6
CONTINUOUS
 10
-15.91695315984803
 20
1.412984323570726
 30
0.0
  0
VERTEX
  5
59D
  8
7
  6
CONTINUOUS
 10
-16.56131983927762
 20
1.992787740424845
 30
0.0
  0
VERTEX
  5
59E
  8
7
  6
CONTINUOUS
 10
-17.20442057238219
 20
2.539676552828737
 30
0.0
  0
VERTEX
  5
59F
  8
7
  6
CONTINUOUS
 10
-18.00829648876291
 20
2.185211581826216
 30
0.0
  0
VERTEX
  5
5A0
  8
7
  6
CONTINUOUS
 10
-18.78052374701841
 20
1.92822447784939
 30
0.0
  0
VERTEX
  5
5A1
  8
7
  6
CONTINUOUS
 10
-19.58439966339911
 20
1.702886031997785
 30
0.0
  0
VERTEX
  5
5A2
  8
7
  6
CONTINUOUS
 10
-20.35662692165459
 20
1.510462190596414
 30
0.0
  0
VERTEX
  5
5A3
  8
7
  6
CONTINUOUS
 10
-21.12885417991009
 20
1.381335665445498
 30
0.0
  0
VERTEX
  5
5A4
  8
7
  6
CONTINUOUS
 10
-21.86690088739034
 20
1.285123744744816
 30
0.0
  0
VERTEX
  5
5A5
  8
7
  6
CONTINUOUS
 10
-22.63912814564583
 20
1.188911824044133
 30
0.0
  0
VERTEX
  5
5A6
  8
7
  6
CONTINUOUS
 10
-23.3784407994511
 20
1.091433957018438
 30
0.0
  0
VERTEX
  5
5A7
  8
7
  6
CONTINUOUS
 10
-24.11901939958138
 20
0.995222036317756
 30
0.0
  0
VERTEX
  5
5A8
  8
7
  6
CONTINUOUS
 10
-24.85833205338662
 20
0.867361457491846
 30
0.0
  0
VERTEX
  5
5A9
  8
7
  6
CONTINUOUS
 10
-25.5989106535169
 20
0.738234932340923
 30
0.0
  0
VERTEX
  5
5AA
  8
7
  6
CONTINUOUS
 10
-26.33822330732215
 20
0.5445451446145455
 30
0.0
  0
VERTEX
  5
5AB
  8
7
  6
CONTINUOUS
 10
-27.04588730300219
 20
0.3204726450879534
 30
0.0
  0
VERTEX
  5
5AC
  8
7
  6
CONTINUOUS
 10
-27.78646590313244
 20
-0.0023436677893329
 30
0.0
  0
VERTEX
  5
5AD
  8
7
  6
CONTINUOUS
 10
-28.49412989881247
 20
-0.3555426924668552
 30
0.0
  0
VERTEX
  5
5AE
  8
7
  6
CONTINUOUS
 10
-29.20179389449252
 20
-0.8062195841700586
 30
0.0
  0
VERTEX
  5
5AF
  8
7
  6
CONTINUOUS
 10
-28.49412989881247
 20
-2.574746600207639
 30
0.0
  0
VERTEX
  5
5B0
  8
7
  6
CONTINUOUS
 10
-27.84976321938289
 20
-4.279976299994765
 30
0.0
  0
VERTEX
  5
5B1
  8
7
  6
CONTINUOUS
 10
-27.30287440697902
 20
-5.952291395331656
 30
0.0
  0
VERTEX
  5
5B2
  8
7
  6
CONTINUOUS
 10
-26.85346346160081
 20
-7.592957832543327
 30
0.0
  0
VERTEX
  5
5B3
  8
7
  6
CONTINUOUS
 10
-26.4989984905983
 20
-9.266538874205231
 30
0.0
  0
VERTEX
  5
5B4
  8
7
  6
CONTINUOUS
 10
-26.27366004474669
 20
-10.9072053114169
 30
0.0
  0
VERTEX
  5
5B5
  8
7
  6
CONTINUOUS
 10
-26.14579946592079
 20
-12.57952040675379
 30
0.0
  0
VERTEX
  5
5B6
  8
7
  6
CONTINUOUS
 10
-26.17744812404599
 20
-14.31639876466615
 30
0.0
  0
VERTEX
  5
5B7
  8
7
  6
CONTINUOUS
 10
-25.85589775749372
 20
-14.95949949777072
 30
0.0
  0
VERTEX
  5
5B8
  8
7
  6
CONTINUOUS
 10
-25.53434739094143
 20
-15.63551483532553
 30
0.0
  0
VERTEX
  5
5B9
  8
7
  6
CONTINUOUS
 10
-25.17988241993891
 20
-16.31026422655533
 30
0.0
  0
VERTEX
  5
5BA
  8
7
  6
CONTINUOUS
 10
-24.79376879081117
 20
-16.95463090598491
 30
0.0
  0
VERTEX
  5
5BB
  8
7
  6
CONTINUOUS
 10
-24.40892110800843
 20
-17.62938029721471
 30
0.0
  0
VERTEX
  5
5BC
  8
7
  6
CONTINUOUS
 10
-24.02280747888068
 20
-18.30539563476952
 30
0.0
  0
VERTEX
  5
5BD
  8
7
  6
CONTINUOUS
 10
-23.66834250787815
 20
-18.94849636787409
 30
0.0
  0
VERTEX
  5
5BE
  8
7
  6
CONTINUOUS
 10
-23.31514348320064
 20
-19.59159710097867
 30
0.0
  0
VERTEX
  5
5BF
  8
7
  6
CONTINUOUS
 10
-22.92902985407289
 20
-19.46373652215276
 30
0.0
  0
VERTEX
  5
5C0
  8
7
  6
CONTINUOUS
 10
-22.57456488307039
 20
-19.46373652215276
 30
0.0
  0
VERTEX
  5
5C1
  8
7
  6
CONTINUOUS
 10
-22.18845125394263
 20
-19.55994844285344
 30
0.0
  0
VERTEX
  5
5C2
  8
7
  6
CONTINUOUS
 10
-21.86690088739034
 20
-19.75237228425481
 30
0.0
  0
VERTEX
  5
5C3
  8
7
  6
CONTINUOUS
 10
-21.54661646716306
 20
-20.04227399268187
 30
0.0
  0
VERTEX
  5
5C4
  8
7
  6
CONTINUOUS
 10
-21.28962936318625
 20
-20.39547301735939
 30
0.0
  0
VERTEX
  5
5C5
  8
7
  6
CONTINUOUS
 10
-21.06429091733463
 20
-20.78158664648713
 30
0.0
  0
VERTEX
  5
5C6
  8
7
  6
CONTINUOUS
 10
-20.93516439218372
 20
-21.20061488006511
 30
0.0
  0
VERTEX
  5
5C7
  8
7
  6
CONTINUOUS
 10
-21.06429091733463
 20
-21.77915235059422
 30
0.0
  0
VERTEX
  5
5C8
  8
7
  6
CONTINUOUS
 10
-21.06429091733463
 20
-22.32604116299812
 30
0.0
  0
VERTEX
  5
5C9
  8
7
  6
CONTINUOUS
 10
-20.96807899663395
 20
-22.84128131727678
 30
0.0
  0
VERTEX
  5
5CA
  8
7
  6
CONTINUOUS
 10
-20.74274055078236
 20
-23.32360686710521
 30
0.0
  0
VERTEX
  5
5CB
  8
7
  6
CONTINUOUS
 10
-20.45283884235529
 20
-23.77428375880842
 30
0.0
  0
VERTEX
  5
5CC
  8
7
  6
CONTINUOUS
 10
-20.09963981767777
 20
-24.22369470418662
 30
0.0
  0
VERTEX
  5
5CD
  8
7
  6
CONTINUOUS
 10
-19.71352618855003
 20
-24.64272293776459
 30
0.0
  0
VERTEX
  5
5CE
  8
7
  6
CONTINUOUS
 10
-19.29449795497204
 20
-25.06048522501757
 30
0.0
  0
VERTEX
  5
5CF
  8
7
  6
CONTINUOUS
 10
-18.84508700959384
 20
-25.47824751227053
 30
0.0
  0
VERTEX
  5
5D0
  8
7
  6
CONTINUOUS
 10
-18.42605877601588
 20
-25.89727574584851
 30
0.0
  0
VERTEX
  5
5D1
  8
7
  6
CONTINUOUS
 10
-18.03994514688813
 20
-26.34668669122671
 30
0.0
  0
VERTEX
  5
5D2
  8
7
  6
CONTINUOUS
 10
-17.68674612221062
 20
-26.79736358292991
 30
0.0
  0
VERTEX
  5
5D3
  8
7
  6
CONTINUOUS
 10
-17.39684441378355
 20
-27.27968913275835
 30
0.0
  0
VERTEX
  5
5D4
  8
7
  6
CONTINUOUS
 10
-17.17150596793196
 20
-27.79492928703701
 30
0.0
  0
VERTEX
  5
5D5
  8
7
  6
CONTINUOUS
 10
-17.07529404723127
 20
-28.3418180994409
 30
0.0
  0
VERTEX
  5
5D6
  8
7
  6
CONTINUOUS
 10
-17.07529404723127
 20
-28.92035556997002
 30
0.0
  0
VERTEX
  5
5D7
  8
7
  6
CONTINUOUS
 10
-17.07529404723127
 20
-29.37103246167322
 30
0.0
  0
VERTEX
  5
5D8
  8
7
  6
CONTINUOUS
 10
-17.42975901823378
 20
-29.94956993220233
 30
0.0
  0
VERTEX
  5
5D9
  8
7
  6
CONTINUOUS
 10
-17.94373322618745
 20
-30.52937334905646
 30
0.0
  0
VERTEX
  5
5DA
  8
7
  6
CONTINUOUS
 10
-18.45897338046611
 20
-31.10791081958558
 30
0.0
  0
VERTEX
  5
5DB
  8
7
  6
CONTINUOUS
 10
-18.81217240514361
 20
-31.62315097386424
 30
0.0
  0
VERTEX
  5
5DC
  8
7
  6
CONTINUOUS
 10
-18.84508700959384
 20
-32.00926460299198
 30
0.0
  0
VERTEX
  5
5DD
  8
7
  6
CONTINUOUS
 10
-18.39441011789064
 20
-32.23333710251858
 30
0.0
  0
VERTEX
  5
5DE
  8
7
  6
CONTINUOUS
 10
-17.30063249308286
 20
-32.23333710251858
 30
0.0
  0
VERTEX
  5
5DF
  8
7
  6
CONTINUOUS
 10
-16.335981393426
 20
-32.20168844439335
 30
0.0
  0
VERTEX
  5
5E0
  8
7
  6
CONTINUOUS
 10
-15.37006434744414
 20
-32.17003978626813
 30
0.0
  0
VERTEX
  5
5E1
  8
7
  6
CONTINUOUS
 10
-14.40541324778728
 20
-32.13712518181789
 30
0.0
  0
VERTEX
  5
5E2
  8
7
  6
CONTINUOUS
 10
-13.47241080625564
 20
-32.10547652369267
 30
0.0
  0
VERTEX
  5
5E3
  8
7
  6
CONTINUOUS
 10
-12.50775970659878
 20
-32.07256191924244
 30
0.0
  0
VERTEX
  5
5E4
  8
7
  6
CONTINUOUS
 10
-11.57475726506715
 20
-32.04091326111722
 30
0.0
  0
VERTEX
  5
5E5
  8
7
  6
CONTINUOUS
 10
-10.61010616541029
 20
-32.00926460299198
 30
0.0
  0
VERTEX
  5
5E6
  8
7
  6
CONTINUOUS
 10
-9.677103723878659
 20
-31.94470134041652
 30
0.0
  0
VERTEX
  5
5E7
  8
7
  6
CONTINUOUS
 10
-8.744101282347003
 20
-31.9117867359663
 30
0.0
  0
VERTEX
  5
5E8
  8
7
  6
CONTINUOUS
 10
-7.811098840815376
 20
-31.88013807784107
 30
0.0
  0
VERTEX
  5
5E9
  8
7
  6
CONTINUOUS
 10
-6.846447741158514
 20
-31.81557481526561
 30
0.0
  0
VERTEX
  5
5EA
  8
7
  6
CONTINUOUS
 10
-5.913445299626886
 20
-31.78392615714039
 30
0.0
  0
VERTEX
  5
5EB
  8
7
  6
CONTINUOUS
 10
-4.98044285809523
 20
-31.71936289456492
 30
0.0
  0
VERTEX
  5
5EC
  8
7
  6
CONTINUOUS
 10
-4.047440416563603
 20
-31.68644829011469
 30
0.0
  0
VERTEX
  5
5ED
  8
7
  6
CONTINUOUS
 10
-3.114437975031962
 20
-31.62315097386424
 30
0.0
  0
VERTEX
  5
5EE
  8
7
  6
CONTINUOUS
 10
-2.181435533500334
 20
-31.55858771128878
 30
0.0
  0
VERTEX
  5
5EF
  8
7
  6
CONTINUOUS
 10
-1.248433091968707
 20
-31.52567310683855
 30
0.0
  0
VERTEX
  5
5F0
  8
7
  6
CONTINUOUS
 10
-0.3483452548873061
 20
-31.46237579058809
 30
0.0
  0
VERTEX
  5
5F1
  8
7
  6
CONTINUOUS
 10
0.5846571866443497
 20
-31.39781252801264
 30
0.0
  0
VERTEX
  5
5F2
  8
7
  6
CONTINUOUS
 10
1.517659628175977
 20
-31.3648979235624
 30
0.0
  0
VERTEX
  5
5F3
  8
7
  6
CONTINUOUS
 10
2.450662069707604
 20
-31.30033466098695
 30
0.0
  0
VERTEX
  5
5F4
  8
7
  6
CONTINUOUS
 10
3.383664511239246
 20
-31.23703734473649
 30
0.0
  0
VERTEX
  5
5F5
  8
7
  6
CONTINUOUS
 10
4.316666952770873
 20
-31.17247408216103
 30
0.0
  0
VERTEX
  5
5F6
  8
7
  6
CONTINUOUS
 10
5.248403447977509
 20
-31.10791081958558
 30
0.0
  0
VERTEX
  5
5F7
  8
7
  6
CONTINUOUS
 10
6.181405889509136
 20
-31.07626216146035
 30
0.0
  0
VERTEX
  5
5F8
  8
7
  6
CONTINUOUS
 10
7.114408331040778
 20
-31.01169889888489
 30
0.0
  0
VERTEX
  5
5F9
  8
7
  6
CONTINUOUS
 10
8.04741077257242
 20
-30.94713563630943
 30
0.0
  0
VERTEX
  5
5FA
  8
7
  6
CONTINUOUS
 10
8.980413214104047
 20
-30.88257237373398
 30
0.0
  0
VERTEX
  5
5FB
  8
7
  6
CONTINUOUS
 10
9.913415655635688
 20
-30.81800911115851
 30
0.0
  0
VERTEX
  5
5FC
  8
7
  6
CONTINUOUS
 10
10.84641809716733
 20
-30.75471179490806
 30
0.0
  0
VERTEX
  5
5FD
  8
7
  6
CONTINUOUS
 10
11.81106919682419
 20
-30.6901485323326
 30
0.0
  0
VERTEX
  5
5FE
  8
7
  6
CONTINUOUS
 10
12.74407163835582
 20
-30.62558526975715
 30
0.0
  0
VERTEX
  5
5FF
  8
7
  6
CONTINUOUS
 10
13.03397334678287
 20
-28.79249499114411
 30
0.0
  0
VERTEX
  5
600
  8
7
  6
CONTINUOUS
 10
13.00105874233265
 20
-27.34425239533381
 30
0.0
  0
VERTEX
  5
601
  8
7
  6
CONTINUOUS
 10
12.80863490093128
 20
-26.05805092912466
 30
0.0
  0
VERTEX
  5
602
  8
7
  6
CONTINUOUS
 10
12.51873319250421
 20
-24.64272293776459
 30
0.0
  0
VERTEX
  5
603
  8
7
  6
CONTINUOUS
 10
12.26174608852739
 20
-24.57815967518913
 30
0.0
  0
VERTEX
  5
604
  8
7
  6
CONTINUOUS
 10
12.10097090525124
 20
-24.38446988746275
 30
0.0
  0
VERTEX
  5
605
  8
7
  6
CONTINUOUS
 10
12.00475898455058
 20
-24.15913144161115
 30
0.0
  0
VERTEX
  5
606
  8
7
  6
CONTINUOUS
 10
11.87563245939965
 20
-23.96670760020978
 30
0.0
  0
VERTEX
  5
607
  8
7
  6
CONTINUOUS
 10
11.55408209284735
 20
-22.51973095072449
 30
0.0
  0
VERTEX
  5
608
  8
7
  6
CONTINUOUS
 10
11.23253172629508
 20
-21.10440295936443
 30
0.0
  0
VERTEX
  5
609
  8
7
  6
CONTINUOUS
 10
10.87806675529255
 20
-19.65616036355413
 30
0.0
  0
VERTEX
  5
60A
  8
7
  6
CONTINUOUS
 10
10.4919531261648
 20
-18.24083237219406
 30
0.0
  0
VERTEX
  5
60B
  8
7
  6
CONTINUOUS
 10
9.94506431376091
 20
-16.82550438083399
 30
0.0
  0
VERTEX
  5
60C
  8
7
  6
CONTINUOUS
 10
9.270314922531114
 20
-15.47473965204938
 30
0.0
  0
VERTEX
  5
60D
  8
7
  6
CONTINUOUS
 10
8.368961139124707
 20
-14.18727223951523
 30
0.0
  0
VERTEX
  5
60E
  8
7
  6
CONTINUOUS
 10
7.243534856191701
 20
-12.93271943143131
 30
0.0
  0
VERTEX
  5
60F
  8
7
  6
CONTINUOUS
 10
5.763643602256167
 20
-11.22875567796918
 30
0.0
  0
VERTEX
  5
610
  8
7
  6
CONTINUOUS
 10
5.473741893829114
 20
-10.80972744439121
 30
0.0
  0
VERTEX
  5
611
  8
7
  6
CONTINUOUS
 10
5.152191527276813
 20
-10.45652841971369
 30
0.0
  0
VERTEX
  5
612
  8
7
  6
CONTINUOUS
 10
4.798992502599305
 20
-10.10206344871117
 30
0.0
  0
VERTEX
  5
613
  8
7
  6
CONTINUOUS
 10
4.44452753159679
 20
-9.813427686609124
 30
0.0
  0
VERTEX
  5
614
  8
7
  6
CONTINUOUS
 10
4.091328506919282
 20
-9.523525978182057
 30
0.0
  0
VERTEX
  5
615
  8
7
  6
CONTINUOUS
 10
3.705214877791533
 20
-9.233624269754998
 30
0.0
  0
VERTEX
  5
616
  8
7
  6
CONTINUOUS
 10
3.319101248663785
 20
-8.976637165778165
 30
0.0
  0
VERTEX
  5
617
  8
7
  6
CONTINUOUS
 10
2.93298761953605
 20
-8.719650061801339
 30
0.0
  0
VERTEX
  5
618
  8
7
  6
CONTINUOUS
 10
2.515225332283066
 20
-8.494311615949734
 30
0.0
  0
VERTEX
  5
619
  8
7
  6
CONTINUOUS
 10
2.129111703155331
 20
-8.237324511972908
 30
0.0
  0
VERTEX
  5
61A
  8
7
  6
CONTINUOUS
 10
1.710083469577341
 20
-7.979071461671069
 30
0.0
  0
VERTEX
  5
61B
  8
7
  6
CONTINUOUS
 10
1.323969840449593
 20
-7.690435699569015
 30
0.0
  0
VERTEX
  5
61C
  8
7
  6
CONTINUOUS
 10
0.9391221576468638
 20
-7.432182649267183
 30
0.0
  0
VERTEX
  5
61D
  8
7
  6
CONTINUOUS
 10
0.5846571866443497
 20
-7.110632282714896
 30
0.0
  0
VERTEX
  5
61E
  8
7
  6
CONTINUOUS
 10
0.2301922156418215
 20
-6.757433258037381
 30
0.0
  0
VERTEX
  5
61F
  8
7
  6
CONTINUOUS
 10
-0.1230068090356866
 20
-6.402968287034867
 30
0.0
  0
VERTEX
  5
620
  8
7
  6
CONTINUOUS
 10
-0.5736837007388971
 20
-5.920642737206435
 30
0.0
  0
VERTEX
  5
621
  8
7
  6
CONTINUOUS
 10
-1.024360592442093
 20
-5.438317187378004
 30
0.0
  0
VERTEX
  5
622
  8
7
  6
CONTINUOUS
 10
-1.442122879695063
 20
-4.955991637549573
 30
0.0
  0
VERTEX
  5
623
  8
7
  6
CONTINUOUS
 10
-1.828236508822826
 20
-4.473666087721142
 30
0.0
  0
VERTEX
  5
624
  8
7
  6
CONTINUOUS
 10
-2.214350137950575
 20
-3.990074591567698
 30
0.0
  0
VERTEX
  5
625
  8
7
  6
CONTINUOUS
 10
-2.60046376707831
 20
-3.507749041739274
 30
0.0
  0
VERTEX
  5
626
  8
7
  6
CONTINUOUS
 10
-2.953662791755818
 20
-3.025423491910843
 30
0.0
  0
VERTEX
  5
627
  8
7
  6
CONTINUOUS
 10
-3.308127762758346
 20
-2.543097942082412
 30
0.0
  0
VERTEX
  5
628
  8
7
  6
CONTINUOUS
 10
-3.629678129310633
 20
-2.06077239225398
 30
0.0
  0
VERTEX
  5
629
  8
7
  6
CONTINUOUS
 10
-3.982877153988142
 20
-1.578446842425549
 30
0.0
  0
VERTEX
  5
62A
  8
7
  6
CONTINUOUS
 10
-4.304427520540443
 20
-1.094855346272105
 30
0.0
  0
VERTEX
  5
62B
  8
7
  6
CONTINUOUS
 10
-4.658892491542957
 20
-0.612529796443674
 30
0.0
  0
VERTEX
  5
62C
  8
7
  6
CONTINUOUS
 10
-4.98044285809523
 20
-0.1302042466152429
 30
0.0
  0
VERTEX
  5
62D
  8
7
  6
CONTINUOUS
 10
-5.333641882772767
 20
0.3521213032131882
 30
0.0
  0
VERTEX
  5
62E
  8
7
  6
CONTINUOUS
 10
-5.688106853775281
 20
0.8344468530416194
 30
0.0
  0
VERTEX
  5
62F
  8
7
  6
CONTINUOUS
 10
-6.041305878452789
 20
1.31677240287005
 30
0.0
  0
VERTEX
  5
630
  8
7
  6
CONTINUOUS
 10
-6.395770849455317
 20
1.028136640767983
 30
0.0
  0
VERTEX
  5
631
  8
7
  6
CONTINUOUS
 10
-6.748969874132825
 20
0.7053203278906963
 30
0.0
  0
VERTEX
  5
632
  8
7
  6
CONTINUOUS
 10
-7.13508350326056
 20
0.3837699613384089
 30
0.0
  0
VERTEX
  5
633
  8
7
  6
CONTINUOUS
 10
-7.489548474263088
 20
0.0305709366608937
 30
0.0
  0
VERTEX
  5
634
  8
7
  6
CONTINUOUS
 10
-7.875662103390837
 20
-0.2909794298913937
 30
0.0
  0
VERTEX
  5
635
  8
7
  6
CONTINUOUS
 10
-8.261775732518572
 20
-0.6454444008939149
 30
0.0
  0
VERTEX
  5
636
  8
7
  6
CONTINUOUS
 10
-8.647889361646335
 20
-0.9669947674461952
 30
0.0
  0
VERTEX
  5
637
  8
7
  6
CONTINUOUS
 10
-9.034002990774084
 20
-1.28854513399849
 30
0.0
  0
VERTEX
  5
638
  8
7
  6
CONTINUOUS
 10
-9.45176527802704
 20
-1.578446842425549
 30
0.0
  0
VERTEX
  5
639
  8
7
  6
CONTINUOUS
 10
-9.837878907154789
 20
-1.835433946402375
 30
0.0
  0
VERTEX
  5
63A
  8
7
  6
CONTINUOUS
 10
-10.25564119440776
 20
-2.06077239225398
 30
0.0
  0
VERTEX
  5
63B
  8
7
  6
CONTINUOUS
 10
-10.70631808611097
 20
-2.286110838105579
 30
0.0
  0
VERTEX
  5
63C
  8
7
  6
CONTINUOUS
 10
-11.12408037336394
 20
-2.446886021381729
 30
0.0
  0
VERTEX
  5
63D
  8
7
  6
CONTINUOUS
 10
-11.57475726506715
 20
-2.574746600207639
 30
0.0
  0
VERTEX
  5
63E
  8
7
  6
CONTINUOUS
 10
-12.02543415677034
 20
-2.639309862783087
 30
0.0
  0
VERTEX
  5
63F
  8
7
  6
CONTINUOUS
 10
-12.47484510214855
 20
-2.639309862783087
 30
0.0
  0
SEQEND
  5
A3D
  8
7
  6
CONTINUOUS
  0
POLYLINE
  5
F2
  8
7
  6
CONTINUOUS
 66
     1
 10
0.0
 20
0.0
 30
0.0
  0
VERTEX
  5
640
  8
7
  6
CONTINUOUS
 10
18.63072204964769
 20
-62.82493004636116
 30
0.0
  0
VERTEX
  5
641
  8
7
  6
CONTINUOUS
 10
18.18004515794448
 20
-62.66415486308502
 30
0.0
  0
VERTEX
  5
642
  8
7
  6
CONTINUOUS
 10
17.66607094999083
 20
-62.34260449653273
 30
0.0
  0
VERTEX
  5
643
  8
7
  6
CONTINUOUS
 10
17.11918213758693
 20
-61.92484220927976
 30
0.0
  0
VERTEX
  5
644
  8
7
  6
CONTINUOUS
 10
16.57229332518304
 20
-61.40960205500109
 30
0.0
  0
VERTEX
  5
645
  8
7
  6
CONTINUOUS
 10
16.05705317090438
 20
-60.86271324259721
 30
0.0
  0
VERTEX
  5
646
  8
7
  6
CONTINUOUS
 10
15.60637627920119
 20
-60.31582443019332
 30
0.0
  0
VERTEX
  5
647
  8
7
  6
CONTINUOUS
 10
15.31774051709912
 20
-59.76893561778942
 30
0.0
  0
VERTEX
  5
648
  8
7
  6
CONTINUOUS
 10
15.18861399194822
 20
-59.25496140983577
 30
0.0
  0
VERTEX
  5
649
  8
7
  6
CONTINUOUS
 10
15.02783880867206
 20
-58.2890443638539
 30
0.0
  0
VERTEX
  5
64A
  8
7
  6
CONTINUOUS
 10
15.22152859639844
 20
-57.32439326419703
 30
0.0
  0
VERTEX
  5
64B
  8
7
  6
CONTINUOUS
 10
15.63929088365141
 20
-56.42430542711563
 30
0.0
  0
VERTEX
  5
64C
  8
7
  6
CONTINUOUS
 10
16.25074295863077
 20
-55.52295164370922
 30
0.0
  0
VERTEX
  5
64D
  8
7
  6
CONTINUOUS
 10
16.9584069543108
 20
-54.62286380662783
 30
0.0
  0
VERTEX
  5
64E
  8
7
  6
CONTINUOUS
 10
17.76228287069151
 20
-53.75442462767165
 30
0.0
  0
VERTEX
  5
64F
  8
7
  6
CONTINUOUS
 10
18.50159552449676
 20
-52.91763410684069
 30
0.0
  0
VERTEX
  5
650
  8
7
  6
CONTINUOUS
 10
19.17761086205158
 20
-52.04919492788452
 30
0.0
  0
VERTEX
  5
651
  8
7
  6
CONTINUOUS
 10
19.0813989413509
 20
-51.98463166530905
 30
0.0
  0
VERTEX
  5
652
  8
7
  6
CONTINUOUS
 10
19.04848433690066
 20
-51.88841974460838
 30
0.0
  0
VERTEX
  5
653
  8
7
  6
CONTINUOUS
 10
19.01683567877544
 20
-51.85550514015814
 30
0.0
  0
VERTEX
  5
654
  8
7
  6
CONTINUOUS
 10
18.95227241619997
 20
-51.85550514015814
 30
0.0
  0
VERTEX
  5
655
  8
7
  6
CONTINUOUS
 10
18.46994686637155
 20
-51.95298300718383
 30
0.0
  0
VERTEX
  5
656
  8
7
  6
CONTINUOUS
 10
17.98762131654312
 20
-52.04919492788452
 30
0.0
  0
VERTEX
  5
657
  8
7
  6
CONTINUOUS
 10
17.50529576671469
 20
-52.11375819045998
 30
0.0
  0
VERTEX
  5
658
  8
7
  6
CONTINUOUS
 10
17.02297021688625
 20
-52.17832145303544
 30
0.0
  0
VERTEX
  5
659
  8
7
  6
CONTINUOUS
 10
16.57229332518304
 20
-52.20997011116066
 30
0.0
  0
VERTEX
  5
65A
  8
7
  6
CONTINUOUS
 10
16.12161643347984
 20
-52.24161876928589
 30
0.0
  0
VERTEX
  5
65B
  8
7
  6
CONTINUOUS
 10
15.67093954177663
 20
-52.24161876928589
 30
0.0
  0
VERTEX
  5
65C
  8
7
  6
CONTINUOUS
 10
15.22152859639844
 20
-52.20997011116066
 30
0.0
  0
VERTEX
  5
65D
  8
7
  6
CONTINUOUS
 10
14.77085170469523
 20
-52.1454068485852
 30
0.0
  0
VERTEX
  5
65E
  8
7
  6
CONTINUOUS
 10
14.35182347111726
 20
-52.08084358600975
 30
0.0
  0
VERTEX
  5
65F
  8
7
  6
CONTINUOUS
 10
13.90241252573907
 20
-51.95298300718383
 30
0.0
  0
VERTEX
  5
660
  8
7
  6
CONTINUOUS
 10
13.45173563403586
 20
-51.79220782390769
 30
0.0
  0
VERTEX
  5
661
  8
7
  6
CONTINUOUS
 10
13.00105874233265
 20
-51.5985180361813
 30
0.0
  0
VERTEX
  5
662
  8
7
  6
CONTINUOUS
 10
12.55164779695446
 20
-51.37317959032971
 30
0.0
  0
VERTEX
  5
663
  8
7
  6
CONTINUOUS
 10
12.10097090525124
 20
-51.08454382822766
 30
0.0
  0
VERTEX
  5
664
  8
7
  6
CONTINUOUS
 10
11.65029401354805
 20
-50.76299346167537
 30
0.0
  0
VERTEX
  5
665
  8
7
  6
CONTINUOUS
 10
10.87806675529255
 20
-50.76299346167537
 30
0.0
  0
VERTEX
  5
666
  8
7
  6
CONTINUOUS
 10
10.10583949703707
 20
-50.73007885722514
 30
0.0
  0
VERTEX
  5
667
  8
7
  6
CONTINUOUS
 10
9.334878185106575
 20
-50.73007885722514
 30
0.0
  0
VERTEX
  5
668
  8
7
  6
CONTINUOUS
 10
8.594299584976312
 20
-50.73007885722514
 30
0.0
  0
VERTEX
  5
669
  8
7
  6
CONTINUOUS
 10
7.822072326720814
 20
-50.73007885722514
 30
0.0
  0
VERTEX
  5
66A
  8
7
  6
CONTINUOUS
 10
7.082759672915557
 20
-50.69843019909992
 30
0.0
  0
VERTEX
  5
66B
  8
7
  6
CONTINUOUS
 10
6.342181072785294
 20
-50.69843019909992
 30
0.0
  0
VERTEX
  5
66C
  8
7
  6
CONTINUOUS
 10
5.634517077105244
 20
-50.69843019909992
 30
0.0
  0
VERTEX
  5
66D
  8
7
  6
CONTINUOUS
 10
4.895204423300001
 20
-50.69843019909992
 30
0.0
  0
VERTEX
  5
66E
  8
7
  6
CONTINUOUS
 10
4.18754042761995
 20
-50.66551559464968
 30
0.0
  0
VERTEX
  5
66F
  8
7
  6
CONTINUOUS
 10
3.446961827489702
 20
-50.66551559464968
 30
0.0
  0
VERTEX
  5
670
  8
7
  6
CONTINUOUS
 10
2.739297831809665
 20
-50.66551559464968
 30
0.0
  0
VERTEX
  5
671
  8
7
  6
CONTINUOUS
 10
2.031633836129629
 20
-50.66551559464968
 30
0.0
  0
VERTEX
  5
672
  8
7
  6
CONTINUOUS
 10
1.323969840449593
 20
-50.63386693652446
 30
0.0
  0
VERTEX
  5
673
  8
7
  6
CONTINUOUS
 10
0.6163058447695562
 20
-50.63386693652446
 30
0.0
  0
VERTEX
  5
674
  8
7
  6
CONTINUOUS
 10
-0.091358150910466
 20
-50.63386693652446
 30
0.0
  0
VERTEX
  5
675
  8
7
  6
CONTINUOUS
 10
-0.7990221465905023
 20
-50.60095233207421
 30
0.0
  0
VERTEX
  5
676
  8
7
  6
CONTINUOUS
 10
-1.506686142270524
 20
-50.60095233207421
 30
0.0
  0
VERTEX
  5
677
  8
7
  6
CONTINUOUS
 10
-2.214350137950575
 20
-50.56930367394899
 30
0.0
  0
VERTEX
  5
678
  8
7
  6
CONTINUOUS
 10
-2.922014133630611
 20
-50.56930367394899
 30
0.0
  0
VERTEX
  5
679
  8
7
  6
CONTINUOUS
 10
-3.629678129310633
 20
-50.53765501582376
 30
0.0
  0
VERTEX
  5
67A
  8
7
  6
CONTINUOUS
 10
-4.33734212499067
 20
-50.53765501582376
 30
0.0
  0
VERTEX
  5
67B
  8
7
  6
CONTINUOUS
 10
-5.045006120670706
 20
-50.50474041137354
 30
0.0
  0
VERTEX
  5
67C
  8
7
  6
CONTINUOUS
 10
-5.752670116350728
 20
-50.47309175324831
 30
0.0
  0
VERTEX
  5
67D
  8
7
  6
CONTINUOUS
 10
-6.460334112030765
 20
-50.44017714879807
 30
0.0
  0
VERTEX
  5
67E
  8
7
  6
CONTINUOUS
 10
-7.167998107710801
 20
-50.40852849067284
 30
0.0
  0
VERTEX
  5
67F
  8
7
  6
CONTINUOUS
 10
-7.875662103390837
 20
-50.37687983254762
 30
0.0
  0
VERTEX
  5
680
  8
7
  6
CONTINUOUS
 10
-8.583326099070874
 20
-50.3439652280974
 30
0.0
  0
VERTEX
  5
681
  8
7
  6
CONTINUOUS
 10
-9.32263875287613
 20
-50.31231656997217
 30
0.0
  0
VERTEX
  5
682
  8
7
  6
CONTINUOUS
 10
-10.03030274855615
 20
-50.24775330739671
 30
0.0
  0
VERTEX
  5
683
  8
7
  6
CONTINUOUS
 10
-10.77088134868642
 20
-50.21610464927149
 30
0.0
  0
VERTEX
  5
684
  8
7
  6
CONTINUOUS
 10
-11.51019400249169
 20
-50.15154138669602
 30
0.0
  0
VERTEX
  5
685
  8
7
  6
CONTINUOUS
 10
-12.47484510214855
 20
-50.05532946599534
 30
0.0
  0
VERTEX
  5
686
  8
7
  6
CONTINUOUS
 10
-13.40784754368019
 20
-49.95785159896965
 30
0.0
  0
VERTEX
  5
687
  8
7
  6
CONTINUOUS
 10
-14.34084998521182
 20
-49.86163967826896
 30
0.0
  0
VERTEX
  5
688
  8
7
  6
CONTINUOUS
 10
-15.27385242674345
 20
-49.76542775756827
 30
0.0
  0
VERTEX
  5
689
  8
7
  6
CONTINUOUS
 10
-16.17520621014987
 20
-49.70086449499281
 30
0.0
  0
VERTEX
  5
68A
  8
7
  6
CONTINUOUS
 10
-17.07529404723127
 20
-49.60465257429213
 30
0.0
  0
VERTEX
  5
68B
  8
7
  6
CONTINUOUS
 10
-17.97664783063767
 20
-49.50844065359146
 30
0.0
  0
VERTEX
  5
68C
  8
7
  6
CONTINUOUS
 10
-18.84508700959384
 20
-49.41096278656575
 30
0.0
  0
VERTEX
  5
68D
  8
7
  6
CONTINUOUS
 10
-19.71352618855003
 20
-49.34639952399029
 30
0.0
  0
VERTEX
  5
68E
  8
7
  6
CONTINUOUS
 10
-20.5819653675062
 20
-49.25018760328961
 30
0.0
  0
VERTEX
  5
68F
  8
7
  6
CONTINUOUS
 10
-21.41748994201215
 20
-49.18562434071416
 30
0.0
  0
VERTEX
  5
690
  8
7
  6
CONTINUOUS
 10
-22.28592912096832
 20
-49.08941242001347
 30
0.0
  0
VERTEX
  5
691
  8
7
  6
CONTINUOUS
 10
-23.12145369547426
 20
-48.99320049931278
 30
0.0
  0
VERTEX
  5
692
  8
7
  6
CONTINUOUS
 10
-23.95824421630522
 20
-48.92863723673732
 30
0.0
  0
VERTEX
  5
693
  8
7
  6
CONTINUOUS
 10
-24.79376879081117
 20
-48.83242531603664
 30
0.0
  0
VERTEX
  5
694
  8
7
  6
CONTINUOUS
 10
-25.6305593116421
 20
-48.76786205346119
 30
0.0
  0
VERTEX
  5
695
  8
7
  6
CONTINUOUS
 10
-25.82424909936849
 20
-48.99320049931278
 30
0.0
  0
VERTEX
  5
696
  8
7
  6
CONTINUOUS
 10
-26.01667294076987
 20
-49.21853894516438
 30
0.0
  0
VERTEX
  5
697
  8
7
  6
CONTINUOUS
 10
-26.24201138662146
 20
-49.44387739101599
 30
0.0
  0
VERTEX
  5
698
  8
7
  6
CONTINUOUS
 10
-26.43443522802283
 20
-49.63630123241735
 30
0.0
  0
VERTEX
  5
699
  8
7
  6
CONTINUOUS
 10
-26.65977367387443
 20
-49.86163967826896
 30
0.0
  0
VERTEX
  5
69A
  8
7
  6
CONTINUOUS
 10
-26.85346346160081
 20
-50.08697812412056
 30
0.0
  0
VERTEX
  5
69B
  8
7
  6
CONTINUOUS
 10
-27.04588730300219
 20
-50.31231656997217
 30
0.0
  0
VERTEX
  5
69C
  8
7
  6
CONTINUOUS
 10
-27.23957709072855
 20
-50.53765501582376
 30
0.0
  0
VERTEX
  5
69D
  8
7
  6
CONTINUOUS
 10
-26.78890019902535
 20
-51.66308129875678
 30
0.0
  0
VERTEX
  5
69E
  8
7
  6
CONTINUOUS
 10
-26.72433693644989
 20
-52.72521026543932
 30
0.0
  0
VERTEX
  5
69F
  8
7
  6
CONTINUOUS
 10
-26.94967538230149
 20
-53.68986136509618
 30
0.0
  0
VERTEX
  5
6A0
  8
7
  6
CONTINUOUS
 10
-27.36743766955448
 20
-54.58994920217759
 30
0.0
  0
VERTEX
  5
6A1
  8
7
  6
CONTINUOUS
 10
-27.97888974453382
 20
-55.45838838113377
 30
0.0
  0
VERTEX
  5
6A2
  8
7
  6
CONTINUOUS
 10
-28.65490508208863
 20
-56.29517890196471
 30
0.0
  0
VERTEX
  5
6A3
  8
7
  6
CONTINUOUS
 10
-29.32965447331843
 20
-57.13196942279568
 30
0.0
  0
VERTEX
  5
6A4
  8
7
  6
CONTINUOUS
 10
-29.97402115274801
 20
-57.96749399730162
 30
0.0
  0
VERTEX
  5
6A5
  8
7
  6
CONTINUOUS
 10
-30.00566981087323
 20
-58.00040860175184
 30
0.0
  0
VERTEX
  5
6A6
  8
7
  6
CONTINUOUS
 10
-30.03731846899846
 20
-58.00040860175184
 30
0.0
  0
VERTEX
  5
6A7
  8
7
  6
CONTINUOUS
 10
-30.00566981087323
 20
-57.96749399730162
 30
0.0
  0
VERTEX
  5
6A8
  8
7
  6
CONTINUOUS
 10
-29.94110654829777
 20
-57.96749399730162
 30
0.0
  0
VERTEX
  5
6A9
  8
7
  6
CONTINUOUS
 10
-29.97402115274801
 20
-58.00040860175184
 30
0.0
  0
VERTEX
  5
6AA
  8
7
  6
CONTINUOUS
 10
-30.26265691485006
 20
-58.2890443638539
 30
0.0
  0
VERTEX
  5
6AB
  8
7
  6
CONTINUOUS
 10
-30.55255862327712
 20
-58.51438280970551
 30
0.0
  0
VERTEX
  5
6AC
  8
7
  6
CONTINUOUS
 10
-30.90575764795463
 20
-58.70807259743188
 30
0.0
  0
VERTEX
  5
6AD
  8
7
  6
CONTINUOUS
 10
-31.26022261895714
 20
-58.83593317625778
 30
0.0
  0
VERTEX
  5
6AE
  8
7
  6
CONTINUOUS
 10
-31.61342164363468
 20
-58.93341104328349
 30
0.0
  0
VERTEX
  5
6AF
  8
7
  6
CONTINUOUS
 10
-31.99953527276242
 20
-58.96505970140871
 30
0.0
  0
VERTEX
  5
6B0
  8
7
  6
CONTINUOUS
 10
-32.38564890189016
 20
-58.96505970140871
 30
0.0
  0
VERTEX
  5
6B1
  8
7
  6
CONTINUOUS
 10
-32.7717625310179
 20
-58.93341104328349
 30
0.0
  0
VERTEX
  5
6B2
  8
7
  6
CONTINUOUS
 10
-33.15787616014566
 20
-58.90049643883325
 30
0.0
  0
VERTEX
  5
6B3
  8
7
  6
CONTINUOUS
 10
-33.5439897892734
 20
-58.80428451813256
 30
0.0
  0
VERTEX
  5
6B4
  8
7
  6
CONTINUOUS
 10
-33.89845476027592
 20
-58.70807259743188
 30
0.0
  0
VERTEX
  5
6B5
  8
7
  6
CONTINUOUS
 10
-34.25165378495343
 20
-58.54729741415574
 30
0.0
  0
VERTEX
  5
6B6
  8
7
  6
CONTINUOUS
 10
-34.54155549338049
 20
-58.41817088900481
 30
0.0
  0
VERTEX
  5
6B7
  8
7
  6
CONTINUOUS
 10
-34.83019125548255
 20
-58.22574704760345
 30
0.0
  0
VERTEX
  5
6B8
  8
7
  6
CONTINUOUS
 10
-35.08844430578438
 20
-58.0649718643273
 30
0.0
  0
VERTEX
  5
6B9
  8
7
  6
CONTINUOUS
 10
-35.28086814718576
 20
-57.87128207660093
 30
0.0
  0
VERTEX
  5
6BA
  8
7
  6
CONTINUOUS
 10
-35.82775695958964
 20
-57.45351978934795
 30
0.0
  0
VERTEX
  5
6BB
  8
7
  6
CONTINUOUS
 10
-36.31008250941807
 20
-56.97119423951953
 30
0.0
  0
VERTEX
  5
6BC
  8
7
  6
CONTINUOUS
 10
-36.72911074299606
 20
-56.39139082266541
 30
0.0
  0
VERTEX
  5
6BD
  8
7
  6
CONTINUOUS
 10
-37.05066110954834
 20
-55.74829008956083
 30
0.0
  0
VERTEX
  5
6BE
  8
7
  6
CONTINUOUS
 10
-37.30764821352517
 20
-55.13683801458147
 30
0.0
  0
VERTEX
  5
6BF
  8
7
  6
CONTINUOUS
 10
-37.40386013422585
 20
-54.52665188592714
 30
0.0
  0
VERTEX
  5
6C0
  8
7
  6
CONTINUOUS
 10
-37.40386013422585
 20
-53.94684846907302
 30
0.0
  0
VERTEX
  5
6C1
  8
7
  6
CONTINUOUS
 10
-37.24308495094971
 20
-53.46452291924459
 30
0.0
  0
VERTEX
  5
6C2
  8
7
  6
CONTINUOUS
 10
-36.8898859262722
 20
-53.04676063199162
 30
0.0
  0
VERTEX
  5
6C3
  8
7
  6
CONTINUOUS
 10
-36.53542095526967
 20
-52.62773239841363
 30
0.0
  0
VERTEX
  5
6C4
  8
7
  6
CONTINUOUS
 10
-36.18222193059216
 20
-52.17832145303544
 30
0.0
  0
VERTEX
  5
6C5
  8
7
  6
CONTINUOUS
 10
-35.82775695958964
 20
-51.72764456133223
 30
0.0
  0
VERTEX
  5
6C6
  8
7
  6
CONTINUOUS
 10
-35.47455793491214
 20
-51.2453190115038
 30
0.0
  0
VERTEX
  5
6C7
  8
7
  6
CONTINUOUS
 10
-35.08844430578438
 20
-50.79464211980059
 30
0.0
  0
VERTEX
  5
6C8
  8
7
  6
CONTINUOUS
 10
-34.73397933478186
 20
-50.3439652280974
 30
0.0
  0
VERTEX
  5
6C9
  8
7
  6
CONTINUOUS
 10
-34.34786570565412
 20
-49.92620294084443
 30
0.0
  0
VERTEX
  5
6CA
  8
7
  6
CONTINUOUS
 10
-33.96175207652637
 20
-49.54008931171668
 30
0.0
  0
VERTEX
  5
6CB
  8
7
  6
CONTINUOUS
 10
-33.5439897892734
 20
-49.21853894516438
 30
0.0
  0
VERTEX
  5
6CC
  8
7
  6
CONTINUOUS
 10
-33.12622750202043
 20
-48.92863723673732
 30
0.0
  0
VERTEX
  5
6CD
  8
7
  6
CONTINUOUS
 10
-32.67555061031723
 20
-48.67165013276049
 30
0.0
  0
VERTEX
  5
6CE
  8
7
  6
CONTINUOUS
 10
-32.22487371861401
 20
-48.51087494948435
 30
0.0
  0
VERTEX
  5
6CF
  8
7
  6
CONTINUOUS
 10
-31.74254816878558
 20
-48.44631168690889
 30
0.0
  0
VERTEX
  5
6D0
  8
7
  6
CONTINUOUS
 10
-31.22730801450692
 20
-48.44631168690889
 30
0.0
  0
VERTEX
  5
6D1
  8
7
  6
CONTINUOUS
 10
-30.68168514842804
 20
-48.54252360760958
 30
0.0
  0
VERTEX
  5
6D2
  8
7
  6
CONTINUOUS
 10
-30.68168514842804
 20
-48.44631168690889
 30
0.0
  0
VERTEX
  5
6D3
  8
7
  6
CONTINUOUS
 10
-30.68168514842804
 20
-48.31718516175798
 30
0.0
  0
VERTEX
  5
6D4
  8
7
  6
CONTINUOUS
 10
-30.68168514842804
 20
-48.18932458293206
 30
0.0
  0
VERTEX
  5
6D5
  8
7
  6
CONTINUOUS
 10
-30.68168514842804
 20
-48.09311266223138
 30
0.0
  0
VERTEX
  5
6D6
  8
7
  6
CONTINUOUS
 10
-31.58177298550945
 20
-47.899422874505
 30
0.0
  0
VERTEX
  5
6D7
  8
7
  6
CONTINUOUS
 10
-32.54642408516631
 20
-47.70699903310364
 30
0.0
  0
VERTEX
  5
6D8
  8
7
  6
CONTINUOUS
 10
-33.5439897892734
 20
-47.48166058725203
 30
0.0
  0
VERTEX
  5
6D9
  8
7
  6
CONTINUOUS
 10
-34.54155549338049
 20
-47.22340753695021
 30
0.0
  0
VERTEX
  5
6DA
  8
7
  6
CONTINUOUS
 10
-35.57076985561281
 20
-46.93477177484815
 30
0.0
  0
VERTEX
  5
6DB
  8
7
  6
CONTINUOUS
 10
-36.59998421784513
 20
-46.58030680384562
 30
0.0
  0
VERTEX
  5
6DC
  8
7
  6
CONTINUOUS
 10
-37.62919858007746
 20
-46.2271077791681
 30
0.0
  0
VERTEX
  5
6DD
  8
7
  6
CONTINUOUS
 10
-38.65841294230978
 20
-45.7764308874649
 30
0.0
  0
VERTEX
  5
6DE
  8
7
  6
CONTINUOUS
 10
-39.65597864641687
 20
-45.32575399576169
 30
0.0
  0
VERTEX
  5
6DF
  8
7
  6
CONTINUOUS
 10
-40.65354435052396
 20
-44.77886518335781
 30
0.0
  0
VERTEX
  5
6E0
  8
7
  6
CONTINUOUS
 10
-41.58654679205561
 20
-44.2003277128287
 30
0.0
  0
VERTEX
  5
6E1
  8
7
  6
CONTINUOUS
 10
-42.48663462913699
 20
-43.52431237527388
 30
0.0
  0
VERTEX
  5
6E2
  8
7
  6
CONTINUOUS
 10
-43.32342514996795
 20
-42.81664837959385
 30
0.0
  0
VERTEX
  5
6E3
  8
7
  6
CONTINUOUS
 10
-44.12730106634866
 20
-42.01277246321313
 30
0.0
  0
VERTEX
  5
6E4
  8
7
  6
CONTINUOUS
 10
-44.8349650620287
 20
-41.14433328425696
 30
0.0
  0
VERTEX
  5
6E5
  8
7
  6
CONTINUOUS
 10
-45.47806579513329
 20
-40.1796821846001
 30
0.0
  0
VERTEX
  5
6E6
  8
7
  6
CONTINUOUS
 10
-45.57427771583396
 20
-39.24667974306846
 30
0.0
  0
VERTEX
  5
6E7
  8
7
  6
CONTINUOUS
 10
-45.51098039958352
 20
-38.31367730153683
 30
0.0
  0
VERTEX
  5
6E8
  8
7
  6
CONTINUOUS
 10
-45.31729061185713
 20
-37.41232351813041
 30
0.0
  0
VERTEX
  5
6E9
  8
7
  6
CONTINUOUS
 10
-44.99574024530486
 20
-36.54388433917424
 30
0.0
  0
VERTEX
  5
6EA
  8
7
  6
CONTINUOUS
 10
-44.57797795805189
 20
-35.67544516021806
 30
0.0
  0
VERTEX
  5
6EB
  8
7
  6
CONTINUOUS
 10
-44.0627378037732
 20
-34.87156924383734
 30
0.0
  0
VERTEX
  5
6EC
  8
7
  6
CONTINUOUS
 10
-43.4842003332441
 20
-34.09934198558185
 30
0.0
  0
VERTEX
  5
6ED
  8
7
  6
CONTINUOUS
 10
-42.80818499568929
 20
-33.39167798990182
 30
0.0
  0
VERTEX
  5
6EE
  8
7
  6
CONTINUOUS
 10
-42.29421078773564
 20
-32.84478917749793
 30
0.0
  0
VERTEX
  5
6EF
  8
7
  6
CONTINUOUS
 10
-41.74732197533174
 20
-32.36246362766949
 30
0.0
  0
VERTEX
  5
6F0
  8
7
  6
CONTINUOUS
 10
-41.16751855847762
 20
-31.94470134041652
 30
0.0
  0
VERTEX
  5
6F1
  8
7
  6
CONTINUOUS
 10
-40.62062974607373
 20
-31.55858771128878
 30
0.0
  0
VERTEX
  5
6F2
  8
7
  6
CONTINUOUS
 10
-40.00917767109438
 20
-31.23703734473649
 30
0.0
  0
VERTEX
  5
6F3
  8
7
  6
CONTINUOUS
 10
-39.39899154244004
 20
-30.97878429443465
 30
0.0
  0
VERTEX
  5
6F4
  8
7
  6
CONTINUOUS
 10
-38.78753946746069
 20
-30.75471179490806
 30
0.0
  0
VERTEX
  5
6F5
  8
7
  6
CONTINUOUS
 10
-38.17608739248135
 20
-30.59267066530691
 30
0.0
  0
VERTEX
  5
6F6
  8
7
  6
CONTINUOUS
 10
-37.53298665937676
 20
-30.49645874460623
 30
0.0
  0
VERTEX
  5
6F7
  8
7
  6
CONTINUOUS
 10
-36.92153458439742
 20
-30.43189548203076
 30
0.0
  0
VERTEX
  5
6F8
  8
7
  6
CONTINUOUS
 10
-36.27843385129285
 20
-30.40024682390554
 30
0.0
  0
VERTEX
  5
6F9
  8
7
  6
CONTINUOUS
 10
-35.63533311818827
 20
-30.43189548203076
 30
0.0
  0
VERTEX
  5
6FA
  8
7
  6
CONTINUOUS
 10
-34.99096643875869
 20
-30.49645874460623
 30
0.0
  0
VERTEX
  5
6FB
  8
7
  6
CONTINUOUS
 10
-34.34786570565412
 20
-30.59267066530691
 30
0.0
  0
VERTEX
  5
6FC
  8
7
  6
CONTINUOUS
 10
-33.70476497254955
 20
-30.75471179490806
 30
0.0
  0
VERTEX
  5
6FD
  8
7
  6
CONTINUOUS
 10
-33.06166423944497
 20
-30.94713563630943
 30
0.0
  0
VERTEX
  5
6FE
  8
7
  6
CONTINUOUS
 10
-32.83632579359336
 20
-30.59267066530691
 30
0.0
  0
VERTEX
  5
6FF
  8
7
  6
CONTINUOUS
 10
-32.61098734774177
 20
-30.20782298250417
 30
0.0
  0
VERTEX
  5
700
  8
7
  6
CONTINUOUS
 10
-32.38564890189016
 20
-29.82170935337642
 30
0.0
  0
VERTEX
  5
701
  8
7
  6
CONTINUOUS
 10
-32.1932250604888
 20
-29.43559572424868
 30
0.0
  0
VERTEX
  5
702
  8
7
  6
CONTINUOUS
 10
-31.96788661463718
 20
-29.04948209512093
 30
0.0
  0
VERTEX
  5
703
  8
7
  6
CONTINUOUS
 10
-31.74254816878558
 20
-28.69501712411842
 30
0.0
  0
VERTEX
  5
704
  8
7
  6
CONTINUOUS
 10
-31.48556106480875
 20
-28.3418180994409
 30
0.0
  0
VERTEX
  5
705
  8
7
  6
CONTINUOUS
 10
-31.22730801450692
 20
-28.02026773288861
 30
0.0
  0
VERTEX
  5
706
  8
7
  6
CONTINUOUS
 10
-31.32478588153261
 20
-27.1189139494822
 30
0.0
  0
VERTEX
  5
707
  8
7
  6
CONTINUOUS
 10
-31.45264646035852
 20
-26.18591150795057
 30
0.0
  0
VERTEX
  5
708
  8
7
  6
CONTINUOUS
 10
-31.61342164363468
 20
-25.28582367086916
 30
0.0
  0
VERTEX
  5
709
  8
7
  6
CONTINUOUS
 10
-31.80711143136104
 20
-24.35282122933753
 30
0.0
  0
VERTEX
  5
70A
  8
7
  6
CONTINUOUS
 10
-31.99953527276242
 20
-23.4198187878059
 30
0.0
  0
VERTEX
  5
70B
  8
7
  6
CONTINUOUS
 10
-32.25778832306426
 20
-22.48681634627426
 30
0.0
  0
VERTEX
  5
70C
  8
7
  6
CONTINUOUS
 10
-32.54642408516631
 20
-21.55381390474263
 30
0.0
  0
VERTEX
  5
70D
  8
7
  6
CONTINUOUS
 10
-32.8679744517186
 20
-20.58916280508576
 30
0.0
  0
VERTEX
  5
70E
  8
7
  6
CONTINUOUS
 10
-33.22243942272112
 20
-19.65616036355413
 30
0.0
  0
VERTEX
  5
70F
  8
7
  6
CONTINUOUS
 10
-33.60855305184886
 20
-18.72315792202249
 30
0.0
  0
VERTEX
  5
710
  8
7
  6
CONTINUOUS
 10
-34.05922994355205
 20
-17.79015548049085
 30
0.0
  0
VERTEX
  5
711
  8
7
  6
CONTINUOUS
 10
-34.54155549338049
 20
-16.85715303895922
 30
0.0
  0
VERTEX
  5
712
  8
7
  6
CONTINUOUS
 10
-35.08844430578438
 20
-15.92541654375259
 30
0.0
  0
VERTEX
  5
713
  8
7
  6
CONTINUOUS
 10
-35.66698177631351
 20
-14.99241410222095
 30
0.0
  0
VERTEX
  5
714
  8
7
  6
CONTINUOUS
 10
-36.31008250941807
 20
-14.05941166068932
 30
0.0
  0
VERTEX
  5
715
  8
7
  6
CONTINUOUS
 10
-37.0177465050981
 20
-13.15805787728291
 30
0.0
  0
VERTEX
  5
716
  8
7
  6
CONTINUOUS
 10
-37.66084723820269
 20
-12.25797004020151
 30
0.0
  0
VERTEX
  5
717
  8
7
  6
CONTINUOUS
 10
-38.33686257575749
 20
-11.3566162567951
 30
0.0
  0
VERTEX
  5
718
  8
7
  6
CONTINUOUS
 10
-39.04452657143752
 20
-10.52109168228915
 30
0.0
  0
VERTEX
  5
719
  8
7
  6
CONTINUOUS
 10
-39.78510517156779
 20
-9.684301161458201
 30
0.0
  0
VERTEX
  5
71A
  8
7
  6
CONTINUOUS
 10
-40.55606648349827
 20
-8.880425245077483
 30
0.0
  0
VERTEX
  5
71B
  8
7
  6
CONTINUOUS
 10
-41.32829374175377
 20
-8.075283382371758
 30
0.0
  0
VERTEX
  5
71C
  8
7
  6
CONTINUOUS
 10
-42.13216965813449
 20
-7.271407465991039
 30
0.0
  0
VERTEX
  5
71D
  8
7
  6
CONTINUOUS
 10
-42.90439691638998
 20
-6.499180207735549
 30
0.0
  0
VERTEX
  5
71E
  8
7
  6
CONTINUOUS
 10
-43.70953877909569
 20
-5.728218895805064
 30
0.0
  0
VERTEX
  5
71F
  8
7
  6
CONTINUOUS
 10
-44.48050009102617
 20
-4.923077033099339
 30
0.0
  0
VERTEX
  5
720
  8
7
  6
CONTINUOUS
 10
-45.25272734928167
 20
-4.150849774843842
 30
0.0
  0
VERTEX
  5
721
  8
7
  6
CONTINUOUS
 10
-45.99330594941195
 20
-3.34697385846313
 30
0.0
  0
VERTEX
  5
722
  8
7
  6
CONTINUOUS
 10
-46.70096994509197
 20
-2.574746600207639
 30
0.0
  0
VERTEX
  5
723
  8
7
  6
CONTINUOUS
 10
-47.37571933632177
 20
-1.739222025701686
 30
0.0
  0
VERTEX
  5
724
  8
7
  6
CONTINUOUS
 10
-48.02008601575136
 20
-0.9024315048707479
 30
0.0
  0
VERTEX
  5
725
  8
7
  6
CONTINUOUS
 10
-48.59862348628047
 20
-0.0656409840397885
 30
0.0
  0
VERTEX
  5
726
  8
7
  6
CONTINUOUS
 10
-49.98230281951533
 20
1.510462190596414
 30
0.0
  0
VERTEX
  5
727
  8
7
  6
CONTINUOUS
 10
-51.07481449799809
 20
3.053650760782389
 30
0.0
  0
VERTEX
  5
728
  8
7
  6
CONTINUOUS
 10
-51.91160501882902
 20
4.598105277293385
 30
0.0
  0
VERTEX
  5
729
  8
7
  6
CONTINUOUS
 10
-52.45849383123291
 20
6.142559793804367
 30
0.0
  0
VERTEX
  5
72A
  8
7
  6
CONTINUOUS
 10
-52.74839553965998
 20
7.750311626565797
 30
0.0
  0
VERTEX
  5
72B
  8
7
  6
CONTINUOUS
 10
-52.7800441977852
 20
9.390978063777467
 30
0.0
  0
VERTEX
  5
72C
  8
7
  6
CONTINUOUS
 10
-52.58762035638384
 20
11.0962077635646
 30
0.0
  0
VERTEX
  5
72D
  8
7
  6
CONTINUOUS
 10
-52.13694346468063
 20
12.89638343772741
 30
0.0
  0
VERTEX
  5
72E
  8
7
  6
CONTINUOUS
 10
-51.81539309812837
 20
13.5711328289572
 30
0.0
  0
VERTEX
  5
72F
  8
7
  6
CONTINUOUS
 10
-51.3976308108754
 20
14.21549950838678
 30
0.0
  0
VERTEX
  5
730
  8
7
  6
CONTINUOUS
 10
-50.94695391917219
 20
14.7940369789159
 30
0.0
  0
VERTEX
  5
731
  8
7
  6
CONTINUOUS
 10
-50.46462836934376
 20
15.30927713319456
 30
0.0
  0
VERTEX
  5
732
  8
7
  6
CONTINUOUS
 10
-49.91773955693986
 20
15.82325134114822
 30
0.0
  0
VERTEX
  5
733
  8
7
  6
CONTINUOUS
 10
-49.33793614008573
 20
16.30557689097665
 30
0.0
  0
VERTEX
  5
734
  8
7
  6
CONTINUOUS
 10
-48.7277500114314
 20
16.72460512455463
 30
0.0
  0
VERTEX
  5
735
  8
7
  6
CONTINUOUS
 10
-48.11629793645204
 20
17.14236741180761
 30
0.0
  0
VERTEX
  5
736
  8
7
  6
CONTINUOUS
 10
-47.47319720334747
 20
17.56012969906057
 30
0.0
  0
VERTEX
  5
737
  8
7
  6
CONTINUOUS
 10
-46.79718186579265
 20
17.94624332818832
 30
0.0
  0
VERTEX
  5
738
  8
7
  6
CONTINUOUS
 10
-46.15408113268808
 20
18.33235695731607
 30
0.0
  0
VERTEX
  5
739
  8
7
  6
CONTINUOUS
 10
-45.47806579513329
 20
18.68682192831859
 30
0.0
  0
VERTEX
  5
73A
  8
7
  6
CONTINUOUS
 10
-44.8349650620287
 20
19.07293555744634
 30
0.0
  0
VERTEX
  5
73B
  8
7
  6
CONTINUOUS
 10
-44.22351298704936
 20
19.42613458212384
 30
0.0
  0
VERTEX
  5
73C
  8
7
  6
CONTINUOUS
 10
-43.61206091207001
 20
19.84389686937682
 30
0.0
  0
VERTEX
  5
73D
  8
7
  6
CONTINUOUS
 10
-43.03352344154091
 20
20.23001049850457
 30
0.0
  0
VERTEX
  5
73E
  8
7
  6
CONTINUOUS
 10
-43.12973536224158
 20
20.51991220693162
 30
0.0
  0
VERTEX
  5
73F
  8
7
  6
CONTINUOUS
 10
-43.12973536224158
 20
20.84146257348391
 30
0.0
  0
VERTEX
  5
740
  8
7
  6
CONTINUOUS
 10
-43.12973536224158
 20
21.1630129400362
 30
0.0
  0
VERTEX
  5
741
  8
7
  6
CONTINUOUS
 10
-43.1626499666918
 20
21.48456330658848
 30
0.0
  0
VERTEX
  5
742
  8
7
  6
CONTINUOUS
 10
-43.83739935792161
 20
22.22514190671875
 30
0.0
  0
VERTEX
  5
743
  8
7
  6
CONTINUOUS
 10
-44.25642759149959
 20
23.02901782309947
 30
0.0
  0
VERTEX
  5
744
  8
7
  6
CONTINUOUS
 10
-44.44885143290097
 20
23.83289373948018
 30
0.0
  0
VERTEX
  5
745
  8
7
  6
CONTINUOUS
 10
-44.51341469547643
 20
24.66968426031114
 30
0.0
  0
VERTEX
  5
746
  8
7
  6
CONTINUOUS
 10
-44.44885143290097
 20
25.47356017669185
 30
0.0
  0
VERTEX
  5
747
  8
7
  6
CONTINUOUS
 10
-44.35263951220027
 20
26.27743609307258
 30
0.0
  0
VERTEX
  5
748
  8
7
  6
CONTINUOUS
 10
-44.25642759149959
 20
27.08257795577831
 30
0.0
  0
VERTEX
  5
749
  8
7
  6
CONTINUOUS
 10
-44.22351298704936
 20
27.82189060958356
 30
0.0
  0
VERTEX
  5
74A
  8
7
  6
CONTINUOUS
 10
-43.93361127862231
 20
29.07644341766748
 30
0.0
  0
VERTEX
  5
74B
  8
7
  6
CONTINUOUS
 10
-43.64497551652023
 20
30.33099622575141
 30
0.0
  0
VERTEX
  5
74C
  8
7
  6
CONTINUOUS
 10
-43.38672246621842
 20
31.58554903383533
 30
0.0
  0
VERTEX
  5
74D
  8
7
  6
CONTINUOUS
 10
-43.09808670411634
 20
32.84010184191925
 30
0.0
  0
VERTEX
  5
74E
  8
7
  6
CONTINUOUS
 10
-42.80818499568929
 20
34.06300599187794
 30
0.0
  0
VERTEX
  5
74F
  8
7
  6
CONTINUOUS
 10
-42.48663462913699
 20
35.28464419551163
 30
0.0
  0
VERTEX
  5
750
  8
7
  6
CONTINUOUS
 10
-42.13216965813449
 20
36.50754834547034
 30
0.0
  0
VERTEX
  5
751
  8
7
  6
CONTINUOUS
 10
-41.74732197533174
 20
37.69753789097881
 30
0.0
  0
VERTEX
  5
752
  8
7
  6
CONTINUOUS
 10
-41.29664508362853
 20
38.88752743648726
 30
0.0
  0
VERTEX
  5
753
  8
7
  6
CONTINUOUS
 10
-40.78140492934988
 20
40.04586832387051
 30
0.0
  0
VERTEX
  5
754
  8
7
  6
CONTINUOUS
 10
-40.20286745882076
 20
41.20420921125374
 30
0.0
  0
VERTEX
  5
755
  8
7
  6
CONTINUOUS
 10
-39.52685212126595
 20
42.32963549418673
 30
0.0
  0
VERTEX
  5
756
  8
7
  6
CONTINUOUS
 10
-38.78753946746069
 20
43.45506177711975
 30
0.0
  0
VERTEX
  5
757
  8
7
  6
CONTINUOUS
 10
-37.91910028850452
 20
44.54883940192752
 30
0.0
  0
VERTEX
  5
758
  8
7
  6
CONTINUOUS
 10
-36.92153458439742
 20
45.61096836861007
 30
0.0
  0
VERTEX
  5
759
  8
7
  6
CONTINUOUS
 10
-35.82775695958964
 20
46.67183138896763
 30
0.0
  0
VERTEX
  5
75A
  8
7
  6
CONTINUOUS
 10
-35.86067156403988
 20
47.66939709307472
 30
0.0
  0
VERTEX
  5
75B
  8
7
  6
CONTINUOUS
 10
-35.79610830146441
 20
48.63404819273158
 30
0.0
  0
VERTEX
  5
75C
  8
7
  6
CONTINUOUS
 10
-35.69863043443871
 20
49.56705063426321
 30
0.0
  0
VERTEX
  5
75D
  8
7
  6
CONTINUOUS
 10
-35.60241851373804
 20
50.50005307579485
 30
0.0
  0
VERTEX
  5
75E
  8
7
  6
CONTINUOUS
 10
-35.53785525116258
 20
51.43305551732649
 30
0.0
  0
VERTEX
  5
75F
  8
7
  6
CONTINUOUS
 10
-35.57076985561281
 20
52.3344093007329
 30
0.0
  0
VERTEX
  5
760
  8
7
  6
CONTINUOUS
 10
-35.73154503888897
 20
53.2344971378143
 30
0.0
  0
VERTEX
  5
761
  8
7
  6
CONTINUOUS
 10
-36.05309540544124
 20
54.10293631677047
 30
0.0
  0
VERTEX
  5
762
  8
7
  6
CONTINUOUS
 10
-36.47085769269421
 20
54.1345849748957
 30
0.0
  0
VERTEX
  5
763
  8
7
  6
CONTINUOUS
 10
-36.92153458439742
 20
54.1345849748957
 30
0.0
  0
VERTEX
  5
764
  8
7
  6
CONTINUOUS
 10
-37.40386013422585
 20
54.10293631677047
 30
0.0
  0
VERTEX
  5
765
  8
7
  6
CONTINUOUS
 10
-37.85453702592906
 20
54.07128765864526
 30
0.0
  0
VERTEX
  5
766
  8
7
  6
CONTINUOUS
 10
-38.36977718020772
 20
54.0067243960698
 30
0.0
  0
VERTEX
  5
767
  8
7
  6
CONTINUOUS
 10
-38.85210273003615
 20
53.94216113349434
 30
0.0
  0
VERTEX
  5
768
  8
7
  6
CONTINUOUS
 10
-39.36607693798982
 20
53.84594921279364
 30
0.0
  0
VERTEX
  5
769
  8
7
  6
CONTINUOUS
 10
-39.84840248781825
 20
53.74973729209296
 30
0.0
  0
VERTEX
  5
76A
  8
7
  6
CONTINUOUS
 10
-40.36364264209691
 20
53.68517402951753
 30
0.0
  0
VERTEX
  5
76B
  8
7
  6
CONTINUOUS
 10
-40.87761685005056
 20
53.58896210881683
 30
0.0
  0
VERTEX
  5
76C
  8
7
  6
CONTINUOUS
 10
-41.39285700432923
 20
53.52439884624137
 30
0.0
  0
VERTEX
  5
76D
  8
7
  6
CONTINUOUS
 10
-41.87518255415766
 20
53.45983558366591
 30
0.0
  0
VERTEX
  5
76E
  8
7
  6
CONTINUOUS
 10
-42.39042270843632
 20
53.42692097921568
 30
0.0
  0
VERTEX
  5
76F
  8
7
  6
CONTINUOUS
 10
-42.87274825826475
 20
53.39527232109045
 30
0.0
  0
VERTEX
  5
770
  8
7
  6
CONTINUOUS
 10
-43.32342514996795
 20
53.42692097921568
 30
0.0
  0
VERTEX
  5
771
  8
7
  6
CONTINUOUS
 10
-43.77283609534615
 20
53.45983558366591
 30
0.0
  0
VERTEX
  5
772
  8
7
  6
CONTINUOUS
 10
-44.3842881703255
 20
54.0067243960698
 30
0.0
  0
VERTEX
  5
773
  8
7
  6
CONTINUOUS
 10
-44.9311769827294
 20
54.71438839174982
 30
0.0
  0
VERTEX
  5
774
  8
7
  6
CONTINUOUS
 10
-45.44641713700805
 20
55.48661565000532
 30
0.0
  0
VERTEX
  5
775
  8
7
  6
CONTINUOUS
 10
-45.89582808238626
 20
56.3550548289615
 30
0.0
  0
VERTEX
  5
776
  8
7
  6
CONTINUOUS
 10
-46.31485631596422
 20
57.19057940346744
 30
0.0
  0
VERTEX
  5
777
  8
7
  6
CONTINUOUS
 10
-46.70096994509197
 20
58.0590185824236
 30
0.0
  0
VERTEX
  5
778
  8
7
  6
CONTINUOUS
 10
-47.02252031164426
 20
58.83124584067912
 30
0.0
  0
VERTEX
  5
779
  8
7
  6
CONTINUOUS
 10
-47.3111560737463
 20
59.53890983635915
 30
0.0
  0
VERTEX
  5
77A
  8
7
  6
CONTINUOUS
 10
-47.44028259889723
 20
59.57182444080938
 30
0.0
  0
VERTEX
  5
77B
  8
7
  6
CONTINUOUS
 10
-47.53649451959791
 20
59.63638770338484
 30
0.0
  0
VERTEX
  5
77C
  8
7
  6
CONTINUOUS
 10
-47.66562104474883
 20
59.66803636151008
 30
0.0
  0
VERTEX
  5
77D
  8
7
  6
CONTINUOUS
 10
-47.79474756989976
 20
59.69968501963528
 30
0.0
  0
VERTEX
  5
77E
  8
7
  6
CONTINUOUS
 10
-47.89095949060044
 20
59.73259962408551
 30
0.0
  0
VERTEX
  5
77F
  8
7
  6
CONTINUOUS
 10
-48.02008601575136
 20
59.76424828221074
 30
0.0
  0
VERTEX
  5
780
  8
7
  6
CONTINUOUS
 10
-48.14794659457726
 20
59.76424828221074
 30
0.0
  0
VERTEX
  5
781
  8
7
  6
CONTINUOUS
 10
-48.27707311972819
 20
59.76424828221074
 30
0.0
  0
VERTEX
  5
782
  8
7
  6
CONTINUOUS
 10
-49.37085074453597
 20
59.57182444080938
 30
0.0
  0
VERTEX
  5
783
  8
7
  6
CONTINUOUS
 10
-50.43171376489352
 20
59.37813465308299
 30
0.0
  0
VERTEX
  5
784
  8
7
  6
CONTINUOUS
 10
-51.5254913897013
 20
59.25027407425708
 30
0.0
  0
VERTEX
  5
785
  8
7
  6
CONTINUOUS
 10
-52.58762035638384
 20
59.12114754910615
 30
0.0
  0
VERTEX
  5
786
  8
7
  6
CONTINUOUS
 10
-53.61683471861616
 20
59.05658428653072
 30
0.0
  0
VERTEX
  5
787
  8
7
  6
CONTINUOUS
 10
-54.67769773897371
 20
58.99202102395526
 30
0.0
  0
VERTEX
  5
788
  8
7
  6
CONTINUOUS
 10
-55.73982670565627
 20
58.9287237077048
 30
0.0
  0
VERTEX
  5
789
  8
7
  6
CONTINUOUS
 10
-56.76904106788859
 20
58.9287237077048
 30
0.0
  0
VERTEX
  5
78A
  8
7
  6
CONTINUOUS
 10
-57.83117003457113
 20
58.96037236583003
 30
0.0
  0
VERTEX
  5
78B
  8
7
  6
CONTINUOUS
 10
-58.86038439680345
 20
58.99202102395526
 30
0.0
  0
VERTEX
  5
78C
  8
7
  6
CONTINUOUS
 10
-59.88959875903578
 20
59.05658428653072
 30
0.0
  0
VERTEX
  5
78D
  8
7
  6
CONTINUOUS
 10
-60.95046177939332
 20
59.12114754910615
 30
0.0
  0
VERTEX
  5
78E
  8
7
  6
CONTINUOUS
 10
-61.97967614162565
 20
59.21735946980685
 30
0.0
  0
VERTEX
  5
78F
  8
7
  6
CONTINUOUS
 10
-63.04180510830821
 20
59.34648599495776
 30
0.0
  0
VERTEX
  5
790
  8
7
  6
CONTINUOUS
 10
-64.07101947054053
 20
59.50726117823392
 30
0.0
  0
VERTEX
  5
791
  8
7
  6
CONTINUOUS
 10
-65.13314843722307
 20
59.66803636151008
 30
0.0
  0
VERTEX
  5
792
  8
7
  6
CONTINUOUS
 10
-66.09779953687993
 20
59.50726117823392
 30
0.0
  0
VERTEX
  5
793
  8
7
  6
CONTINUOUS
 10
-67.03080197841157
 20
59.37813465308299
 30
0.0
  0
VERTEX
  5
794
  8
7
  6
CONTINUOUS
 10
-67.99545307806844
 20
59.34648599495776
 30
0.0
  0
VERTEX
  5
795
  8
7
  6
CONTINUOUS
 10
-68.9601041777253
 20
59.37813465308299
 30
0.0
  0
VERTEX
  5
796
  8
7
  6
CONTINUOUS
 10
-69.89310661925691
 20
59.41104925753324
 30
0.0
  0
VERTEX
  5
797
  8
7
  6
CONTINUOUS
 10
-70.82610906078855
 20
59.44269791565846
 30
0.0
  0
VERTEX
  5
798
  8
7
  6
CONTINUOUS
 10
-71.75911150232022
 20
59.44269791565846
 30
0.0
  0
VERTEX
  5
799
  8
7
  6
CONTINUOUS
 10
-72.66046528572662
 20
59.44269791565846
 30
0.0
  0
VERTEX
  5
79A
  8
7
  6
CONTINUOUS
 10
-73.56055312280802
 20
59.37813465308299
 30
0.0
  0
VERTEX
  5
79B
  8
7
  6
CONTINUOUS
 10
-74.4289923017642
 20
59.25027407425708
 30
0.0
  0
VERTEX
  5
79C
  8
7
  6
CONTINUOUS
 10
-75.29743148072038
 20
59.02493562840549
 30
0.0
  0
VERTEX
  5
79D
  8
7
  6
CONTINUOUS
 10
-76.13422200155131
 20
58.67047065740296
 30
0.0
  0
VERTEX
  5
79E
  8
7
  6
CONTINUOUS
 10
-76.93809791793203
 20
58.22105971202478
 30
0.0
  0
VERTEX
  5
79F
  8
7
  6
CONTINUOUS
 10
-77.71032517618752
 20
57.60960763704543
 30
0.0
  0
VERTEX
  5
7A0
  8
7
  6
CONTINUOUS
 10
-78.44963782999278
 20
56.86902903691515
 30
0.0
  0
VERTEX
  5
7A1
  8
7
  6
CONTINUOUS
 10
-79.15730182567282
 20
55.90437793725829
 30
0.0
  0
VERTEX
  5
7A2
  8
7
  6
CONTINUOUS
 10
-79.92952908392832
 20
55.71195409585694
 30
0.0
  0
VERTEX
  5
7A3
  8
7
  6
CONTINUOUS
 10
-80.6055444214831
 20
55.61447622883124
 30
0.0
  0
VERTEX
  5
7A4
  8
7
  6
CONTINUOUS
 10
-81.28029381271293
 20
55.58282757070602
 30
0.0
  0
VERTEX
  5
7A5
  8
7
  6
CONTINUOUS
 10
-81.89174588769228
 20
55.51826430813053
 30
0.0
  0
VERTEX
  5
7A6
  8
7
  6
CONTINUOUS
 10
-82.47154930454639
 20
55.38913778297963
 30
0.0
  0
VERTEX
  5
7A7
  8
7
  6
CONTINUOUS
 10
-83.0500867750755
 20
55.16506528345302
 30
0.0
  0
VERTEX
  5
7A8
  8
7
  6
CONTINUOUS
 10
-83.56532692935417
 20
54.74603704987506
 30
0.0
  0
VERTEX
  5
7A9
  8
7
  6
CONTINUOUS
 10
-84.07930113730785
 20
54.10293631677047
 30
0.0
  0
VERTEX
  5
7AA
  8
7
  6
CONTINUOUS
 10
-84.43376610831035
 20
54.52069860402347
 30
0.0
  0
VERTEX
  5
7AB
  8
7
  6
CONTINUOUS
 10
-84.62618994971172
 20
54.87516357502598
 30
0.0
  0
VERTEX
  5
7AC
  8
7
  6
CONTINUOUS
 10
-84.65910455416196
 20
55.19671394157825
 30
0.0
  0
VERTEX
  5
7AD
  8
7
  6
CONTINUOUS
 10
-84.52997802901103
 20
55.51826430813053
 30
0.0
  0
VERTEX
  5
7AE
  8
7
  6
CONTINUOUS
 10
-84.33628824128468
 20
55.80816601655761
 30
0.0
  0
VERTEX
  5
7AF
  8
7
  6
CONTINUOUS
 10
-84.0476524791826
 20
56.09680177865967
 30
0.0
  0
VERTEX
  5
7B0
  8
7
  6
CONTINUOUS
 10
-83.69318750818007
 20
56.38670348708672
 30
0.0
  0
VERTEX
  5
7B1
  8
7
  6
CONTINUOUS
 10
-83.30707387905233
 20
56.64369059106355
 30
0.0
  0
VERTEX
  5
7B2
  8
7
  6
CONTINUOUS
 10
-82.9209602499246
 20
56.93359229949061
 30
0.0
  0
VERTEX
  5
7B3
  8
7
  6
CONTINUOUS
 10
-82.56776122524707
 20
57.2551426660429
 30
0.0
  0
VERTEX
  5
7B4
  8
7
  6
CONTINUOUS
 10
-82.24621085869478
 20
57.57669303259517
 30
0.0
  0
VERTEX
  5
7B5
  8
7
  6
CONTINUOUS
 10
-82.0208724128432
 20
57.89824339914747
 30
0.0
  0
VERTEX
  5
7B6
  8
7
  6
CONTINUOUS
 10
-81.89174588769228
 20
58.28435702827521
 30
0.0
  0
VERTEX
  5
7B7
  8
7
  6
CONTINUOUS
 10
-81.89174588769228
 20
58.70338526185321
 30
0.0
  0
VERTEX
  5
7B8
  8
7
  6
CONTINUOUS
 10
-82.05252107096842
 20
59.15279620723139
 30
0.0
  0
VERTEX
  5
7B9
  8
7
  6
CONTINUOUS
 10
-82.37407143752071
 20
59.66803636151008
 30
0.0
  0
VERTEX
  5
7BA
  8
7
  6
CONTINUOUS
 10
-83.0184381169503
 20
59.41104925753324
 30
0.0
  0
VERTEX
  5
7BB
  8
7
  6
CONTINUOUS
 10
-83.59697558747942
 20
59.05658428653072
 30
0.0
  0
VERTEX
  5
7BC
  8
7
  6
CONTINUOUS
 10
-84.1755130580085
 20
58.67047065740296
 30
0.0
  0
VERTEX
  5
7BD
  8
7
  6
CONTINUOUS
 10
-84.7224018704124
 20
58.28435702827521
 30
0.0
  0
VERTEX
  5
7BE
  8
7
  6
CONTINUOUS
 10
-85.26929068281629
 20
57.89824339914747
 30
0.0
  0
VERTEX
  5
7BF
  8
7
  6
CONTINUOUS
 10
-85.81617949522018
 20
57.57669303259517
 30
0.0
  0
VERTEX
  5
7C0
  8
7
  6
CONTINUOUS
 10
-86.42763157019954
 20
57.35135458674358
 30
0.0
  0
VERTEX
  5
7C1
  8
7
  6
CONTINUOUS
 10
-87.10364690775432
 20
57.22349400791767
 30
0.0
  0
VERTEX
  5
7C2
  8
7
  6
CONTINUOUS
 10
-87.58597245758278
 20
57.35135458674358
 30
0.0
  0
VERTEX
  5
7C3
  8
7
  6
CONTINUOUS
 10
-88.036649349286
 20
57.2551426660429
 30
0.0
  0
VERTEX
  5
7C4
  8
7
  6
CONTINUOUS
 10
-88.5189748991144
 20
57.02980422019131
 30
0.0
  0
VERTEX
  5
7C5
  8
7
  6
CONTINUOUS
 10
-88.96838584449262
 20
56.8057317206647
 30
0.0
  0
VERTEX
  5
7C6
  8
7
  6
CONTINUOUS
 10
-89.4190627361958
 20
56.6766051955138
 30
0.0
  0
VERTEX
  5
7C7
  8
7
  6
CONTINUOUS
 10
-89.86973962789901
 20
56.70825385363901
 30
0.0
  0
VERTEX
  5
7C8
  8
7
  6
CONTINUOUS
 10
-90.25585325702676
 20
57.02980422019131
 30
0.0
  0
VERTEX
  5
7C9
  8
7
  6
CONTINUOUS
 10
-90.6419668861545
 20
57.73746821587133
 30
0.0
  0
VERTEX
  5
7CA
  8
7
  6
CONTINUOUS
 10
-90.44827709842812
 20
58.31727163272545
 30
0.0
  0
VERTEX
  5
7CB
  8
7
  6
CONTINUOUS
 10
-90.19128999445132
 20
58.86416044512934
 30
0.0
  0
VERTEX
  5
7CC
  8
7
  6
CONTINUOUS
 10
-89.90138828602423
 20
59.34648599495776
 30
0.0
  0
VERTEX
  5
7CD
  8
7
  6
CONTINUOUS
 10
-89.54818926134672
 20
59.82881154478619
 30
0.0
  0
VERTEX
  5
7CE
  8
7
  6
CONTINUOUS
 10
-89.16207563221897
 20
60.27948843648943
 30
0.0
  0
VERTEX
  5
7CF
  8
7
  6
CONTINUOUS
 10
-88.74431334496603
 20
60.69725072374237
 30
0.0
  0
VERTEX
  5
7D0
  8
7
  6
CONTINUOUS
 10
-88.29363645326279
 20
61.11501301099537
 30
0.0
  0
VERTEX
  5
7D1
  8
7
  6
CONTINUOUS
 10
-87.81131090343436
 20
61.5011266401231
 30
0.0
  0
VERTEX
  5
7D2
  8
7
  6
CONTINUOUS
 10
-87.32898535360593
 20
61.88724026925084
 30
0.0
  0
VERTEX
  5
7D3
  8
7
  6
CONTINUOUS
 10
-86.8453938574525
 20
62.27335389837859
 30
0.0
  0
VERTEX
  5
7D4
  8
7
  6
CONTINUOUS
 10
-86.33141964949886
 20
62.65946752750635
 30
0.0
  0
VERTEX
  5
7D5
  8
7
  6
CONTINUOUS
 10
-85.81617949522018
 20
63.01393249850886
 30
0.0
  0
VERTEX
  5
7D6
  8
7
  6
CONTINUOUS
 10
-85.3022052872665
 20
63.40004612763661
 30
0.0
  0
VERTEX
  5
7D7
  8
7
  6
CONTINUOUS
 10
-84.81987973743813
 20
63.78489381043933
 30
0.0
  0
VERTEX
  5
7D8
  8
7
  6
CONTINUOUS
 10
-84.33628824128468
 20
64.17100743956708
 30
0.0
  0
VERTEX
  5
7D9
  8
7
  6
CONTINUOUS
 10
-83.88687729590646
 20
64.59003567314507
 30
0.0
  0
VERTEX
  5
7DA
  8
7
  6
CONTINUOUS
 10
-83.53241232490393
 20
64.65459893572053
 30
0.0
  0
VERTEX
  5
7DB
  8
7
  6
CONTINUOUS
 10
-83.14629869577618
 20
64.71789625197097
 30
0.0
  0
VERTEX
  5
7DC
  8
7
  6
CONTINUOUS
 10
-82.76018506664846
 20
64.78245951454643
 30
0.0
  0
VERTEX
  5
7DD
  8
7
  6
CONTINUOUS
 10
-82.37407143752071
 20
64.78245951454643
 30
0.0
  0
VERTEX
  5
7DE
  8
7
  6
CONTINUOUS
 10
-81.98795780839293
 20
64.78245951454643
 30
0.0
  0
VERTEX
  5
7DF
  8
7
  6
CONTINUOUS
 10
-81.57019552114
 20
64.78245951454643
 30
0.0
  0
VERTEX
  5
7E0
  8
7
  6
CONTINUOUS
 10
-81.152433233887
 20
64.75081085642121
 30
0.0
  0
VERTEX
  5
7E1
  8
7
  6
CONTINUOUS
 10
-80.73340500030903
 20
64.71789625197097
 30
0.0
  0
VERTEX
  5
7E2
  8
7
  6
CONTINUOUS
 10
-80.31564271305606
 20
64.68624759384576
 30
0.0
  0
VERTEX
  5
7E3
  8
7
  6
CONTINUOUS
 10
-79.8978804258031
 20
64.65459893572053
 30
0.0
  0
VERTEX
  5
7E4
  8
7
  6
CONTINUOUS
 10
-79.4788521922251
 20
64.59003567314507
 30
0.0
  0
VERTEX
  5
7E5
  8
7
  6
CONTINUOUS
 10
-79.06108990497214
 20
64.5254724105696
 30
0.0
  0
VERTEX
  5
7E6
  8
7
  6
CONTINUOUS
 10
-78.64332761771917
 20
64.46090914799416
 30
0.0
  0
VERTEX
  5
7E7
  8
7
  6
CONTINUOUS
 10
-78.25721398859142
 20
64.39634588541868
 30
0.0
  0
VERTEX
  5
7E8
  8
7
  6
CONTINUOUS
 10
-77.83945170133845
 20
64.33178262284324
 30
0.0
  0
VERTEX
  5
7E9
  8
7
  6
CONTINUOUS
 10
-77.4533380722107
 20
64.26848530659278
 30
0.0
  0
VERTEX
  5
7EA
  8
7
  6
CONTINUOUS
 10
-76.26208258037724
 20
64.04314686074117
 30
0.0
  0
VERTEX
  5
7EB
  8
7
  6
CONTINUOUS
 10
-75.10500763931898
 20
63.97858359816573
 30
0.0
  0
VERTEX
  5
7EC
  8
7
  6
CONTINUOUS
 10
-73.97831541006099
 20
63.97858359816573
 30
0.0
  0
VERTEX
  5
7ED
  8
7
  6
CONTINUOUS
 10
-72.85288912712798
 20
64.07479551886641
 30
0.0
  0
VERTEX
  5
7EE
  8
7
  6
CONTINUOUS
 10
-71.72746284419497
 20
64.26848530659278
 30
0.0
  0
VERTEX
  5
7EF
  8
7
  6
CONTINUOUS
 10
-70.63368521938719
 20
64.5254724105696
 30
0.0
  0
VERTEX
  5
7F0
  8
7
  6
CONTINUOUS
 10
-69.50699299012919
 20
64.8470227771219
 30
0.0
  0
VERTEX
  5
7F1
  8
7
  6
CONTINUOUS
 10
-68.4132153653214
 20
65.20148774812442
 30
0.0
  0
VERTEX
  5
7F2
  8
7
  6
CONTINUOUS
 10
-67.32070368683864
 20
65.58633543092715
 30
0.0
  0
VERTEX
  5
7F3
  8
7
  6
CONTINUOUS
 10
-66.19401145758061
 20
65.9724490600549
 30
0.0
  0
VERTEX
  5
7F4
  8
7
  6
CONTINUOUS
 10
-65.10023383277283
 20
66.39147729363289
 30
0.0
  0
VERTEX
  5
7F5
  8
7
  6
CONTINUOUS
 10
-63.97480754983985
 20
66.77759092276062
 30
0.0
  0
VERTEX
  5
7F6
  8
7
  6
CONTINUOUS
 10
-62.81646666245661
 20
67.13078994743813
 30
0.0
  0
VERTEX
  5
7F7
  8
7
  6
CONTINUOUS
 10
-61.6910403795236
 20
67.45234031399042
 30
0.0
  0
VERTEX
  5
7F8
  8
7
  6
CONTINUOUS
 10
-60.50105083401513
 20
67.74224202241749
 30
0.0
  0
VERTEX
  5
7F9
  8
7
  6
CONTINUOUS
 10
-59.30979534218167
 20
67.93466586381886
 30
0.0
  0
VERTEX
  5
7FA
  8
7
  6
CONTINUOUS
 10
-58.02359387597252
 20
67.93466586381886
 30
0.0
  0
VERTEX
  5
7FB
  8
7
  6
CONTINUOUS
 10
-56.73739240976334
 20
67.9675804682691
 30
0.0
  0
VERTEX
  5
7FC
  8
7
  6
CONTINUOUS
 10
-55.48283960167944
 20
67.99922912639431
 30
0.0
  0
VERTEX
  5
7FD
  8
7
  6
CONTINUOUS
 10
-54.22828679359552
 20
68.06379238896977
 30
0.0
  0
VERTEX
  5
7FE
  8
7
  6
CONTINUOUS
 10
-52.97373398551159
 20
68.095441047095
 30
0.0
  0
VERTEX
  5
7FF
  8
7
  6
CONTINUOUS
 10
-51.75082983555291
 20
68.16000430967047
 30
0.0
  0
VERTEX
  5
800
  8
7
  6
CONTINUOUS
 10
-50.5279256855942
 20
68.22456757224592
 30
0.0
  0
VERTEX
  5
801
  8
7
  6
CONTINUOUS
 10
-49.30628748196051
 20
68.25621623037114
 30
0.0
  0
VERTEX
  5
802
  8
7
  6
CONTINUOUS
 10
-48.0833833320018
 20
68.28913083482139
 30
0.0
  0
VERTEX
  5
803
  8
7
  6
CONTINUOUS
 10
-46.89339378649333
 20
68.3207794929466
 30
0.0
  0
VERTEX
  5
804
  8
7
  6
CONTINUOUS
 10
-45.67175558285965
 20
68.3207794929466
 30
0.0
  0
VERTEX
  5
805
  8
7
  6
CONTINUOUS
 10
-44.48050009102617
 20
68.3207794929466
 30
0.0
  0
VERTEX
  5
806
  8
7
  6
CONTINUOUS
 10
-43.29051054551772
 20
68.28913083482139
 30
0.0
  0
VERTEX
  5
807
  8
7
  6
CONTINUOUS
 10
-42.10052100000925
 20
68.22456757224592
 30
0.0
  0
VERTEX
  5
808
  8
7
  6
CONTINUOUS
 10
-40.9105314545008
 20
68.16000430967047
 30
0.0
  0
VERTEX
  5
809
  8
7
  6
CONTINUOUS
 10
-39.72054190899233
 20
68.03214373084457
 30
0.0
  0
VERTEX
  5
80A
  8
7
  6
CONTINUOUS
 10
-39.30151367541436
 20
68.06379238896977
 30
0.0
  0
VERTEX
  5
80B
  8
7
  6
CONTINUOUS
 10
-38.85210273003615
 20
68.095441047095
 30
0.0
  0
VERTEX
  5
80C
  8
7
  6
CONTINUOUS
 10
-38.43307449645816
 20
68.12835565154523
 30
0.0
  0
VERTEX
  5
80D
  8
7
  6
CONTINUOUS
 10
-38.01531220920521
 20
68.16000430967047
 30
0.0
  0
VERTEX
  5
80E
  8
7
  6
CONTINUOUS
 10
-37.59754992195222
 20
68.22456757224592
 30
0.0
  0
VERTEX
  5
80F
  8
7
  6
CONTINUOUS
 10
-37.14687303024903
 20
68.25621623037114
 30
0.0
  0
VERTEX
  5
810
  8
7
  6
CONTINUOUS
 10
-36.72911074299606
 20
68.3207794929466
 30
0.0
  0
VERTEX
  5
811
  8
7
  6
CONTINUOUS
 10
-36.31008250941807
 20
68.38534275552206
 30
0.0
  0
VERTEX
  5
812
  8
7
  6
CONTINUOUS
 10
-35.89232022216511
 20
68.4182573599723
 30
0.0
  0
VERTEX
  5
813
  8
7
  6
CONTINUOUS
 10
-35.47455793491214
 20
68.51446928067298
 30
0.0
  0
VERTEX
  5
814
  8
7
  6
CONTINUOUS
 10
-35.08844430578438
 20
68.57903254324843
 30
0.0
  0
VERTEX
  5
815
  8
7
  6
CONTINUOUS
 10
-34.6694160722064
 20
68.67524446394913
 30
0.0
  0
VERTEX
  5
816
  8
7
  6
CONTINUOUS
 10
-34.25165378495343
 20
68.77145638464982
 30
0.0
  0
VERTEX
  5
817
  8
7
  6
CONTINUOUS
 10
-33.86554015582568
 20
68.86766830535049
 30
0.0
  0
VERTEX
  5
818
  8
7
  6
CONTINUOUS
 10
-33.44777786857271
 20
68.96388022605117
 30
0.0
  0
VERTEX
  5
819
  8
7
  6
CONTINUOUS
 10
-33.06166423944497
 20
69.0930067512021
 30
0.0
  0
VERTEX
  5
81A
  8
7
  6
CONTINUOUS
 10
-32.12866179791334
 20
69.5436836429053
 30
0.0
  0
VERTEX
  5
81B
  8
7
  6
CONTINUOUS
 10
-31.22730801450692
 20
69.80067074688213
 30
0.0
  0
VERTEX
  5
81C
  8
7
  6
CONTINUOUS
 10
-30.35886883555075
 20
69.96144593015828
 30
0.0
  0
VERTEX
  5
81D
  8
7
  6
CONTINUOUS
 10
-29.5233442610448
 20
69.99436053460849
 30
0.0
  0
VERTEX
  5
81E
  8
7
  6
CONTINUOUS
 10
-28.65490508208863
 20
69.96144593015828
 30
0.0
  0
VERTEX
  5
81F
  8
7
  6
CONTINUOUS
 10
-27.84976321938289
 20
69.80067074688213
 30
0.0
  0
VERTEX
  5
820
  8
7
  6
CONTINUOUS
 10
-27.04588730300219
 20
69.60824690548075
 30
0.0
  0
VERTEX
  5
821
  8
7
  6
CONTINUOUS
 10
-26.21036272849625
 20
69.38290845962914
 30
0.0
  0
VERTEX
  5
822
  8
7
  6
CONTINUOUS
 10
-25.40522086579051
 20
69.0930067512021
 30
0.0
  0
VERTEX
  5
823
  8
7
  6
CONTINUOUS
 10
-24.60134494940981
 20
68.83601964722527
 30
0.0
  0
VERTEX
  5
824
  8
7
  6
CONTINUOUS
 10
-23.79746903302907
 20
68.57903254324843
 30
0.0
  0
VERTEX
  5
825
  8
7
  6
CONTINUOUS
 10
-22.99359311664836
 20
68.35369409739684
 30
0.0
  0
VERTEX
  5
826
  8
7
  6
CONTINUOUS
 10
-22.1568025958174
 20
68.19291891412068
 30
0.0
  0
VERTEX
  5
827
  8
7
  6
CONTINUOUS
 10
-21.28962936318625
 20
68.06379238896977
 30
0.0
  0
VERTEX
  5
828
  8
7
  6
CONTINUOUS
 10
-20.45283884235529
 20
68.03214373084457
 30
0.0
  0
VERTEX
  5
829
  8
7
  6
CONTINUOUS
 10
-19.55275100527389
 20
68.12835565154523
 30
0.0
  0
VERTEX
  5
82A
  8
7
  6
CONTINUOUS
 10
-18.90838432584431
 20
68.19291891412068
 30
0.0
  0
VERTEX
  5
82B
  8
7
  6
CONTINUOUS
 10
-18.29819819718998
 20
68.25621623037114
 30
0.0
  0
VERTEX
  5
82C
  8
7
  6
CONTINUOUS
 10
-17.68674612221062
 20
68.35369409739684
 30
0.0
  0
VERTEX
  5
82D
  8
7
  6
CONTINUOUS
 10
-17.10820865168149
 20
68.48155467622274
 30
0.0
  0
VERTEX
  5
82E
  8
7
  6
CONTINUOUS
 10
-16.52840523482737
 20
68.6423298594989
 30
0.0
  0
VERTEX
  5
82F
  8
7
  6
CONTINUOUS
 10
-15.94986776429826
 20
68.77145638464982
 30
0.0
  0
VERTEX
  5
830
  8
7
  6
CONTINUOUS
 10
-15.37006434744414
 20
68.90058290980073
 30
0.0
  0
VERTEX
  5
831
  8
7
  6
CONTINUOUS
 10
-14.82317553504025
 20
69.02844348862664
 30
0.0
  0
VERTEX
  5
832
  8
7
  6
CONTINUOUS
 10
-14.27628672263636
 20
69.12592135565234
 30
0.0
  0
VERTEX
  5
833
  8
7
  6
CONTINUOUS
 10
-13.72939791023246
 20
69.18921867190278
 30
0.0
  0
VERTEX
  5
834
  8
7
  6
CONTINUOUS
 10
-13.21542370227883
 20
69.22213327635302
 30
0.0
  0
VERTEX
  5
835
  8
7
  6
CONTINUOUS
 10
-12.66853488987493
 20
69.22213327635302
 30
0.0
  0
VERTEX
  5
836
  8
7
  6
CONTINUOUS
 10
-12.15329473559626
 20
69.15757001377756
 30
0.0
  0
VERTEX
  5
837
  8
7
  6
CONTINUOUS
 10
-11.60640592319237
 20
69.02844348862664
 30
0.0
  0
VERTEX
  5
838
  8
7
  6
CONTINUOUS
 10
-11.09243171523872
 20
68.83601964722527
 30
0.0
  0
VERTEX
  5
839
  8
7
  6
CONTINUOUS
 10
-10.54554290283482
 20
68.57903254324843
 30
0.0
  0
VERTEX
  5
83A
  8
7
  6
CONTINUOUS
 10
-10.28855579885798
 20
69.02844348862664
 30
0.0
  0
VERTEX
  5
83B
  8
7
  6
CONTINUOUS
 10
-9.90244216973025
 20
69.41455711775437
 30
0.0
  0
VERTEX
  5
83C
  8
7
  6
CONTINUOUS
 10
-9.48341393615226
 20
69.83358535133237
 30
0.0
  0
VERTEX
  5
83D
  8
7
  6
CONTINUOUS
 10
-9.034002990774084
 20
70.25134763858533
 30
0.0
  0
VERTEX
  5
83E
  8
7
  6
CONTINUOUS
 10
-8.550411494620633
 20
70.66910992583831
 30
0.0
  0
VERTEX
  5
83F
  8
7
  6
CONTINUOUS
 10
-8.101000549242443
 20
71.11978681754151
 30
0.0
  0
VERTEX
  5
840
  8
7
  6
CONTINUOUS
 10
-7.681972315664453
 20
71.5704637092447
 30
0.0
  0
VERTEX
  5
841
  8
7
  6
CONTINUOUS
 10
-7.328773290986945
 20
72.08443791719837
 30
0.0
  0
VERTEX
  5
842
  8
7
  6
CONTINUOUS
 10
-7.295858686536718
 20
73.72510435441004
 30
0.0
  0
VERTEX
  5
843
  8
7
  6
CONTINUOUS
 10
-7.038871582559878
 20
75.26955887092102
 30
0.0
  0
VERTEX
  5
844
  8
7
  6
CONTINUOUS
 10
-6.621109295306908
 20
76.78109878298179
 30
0.0
  0
VERTEX
  5
845
  8
7
  6
CONTINUOUS
 10
-6.041305878452789
 20
78.26099003691729
 30
0.0
  0
VERTEX
  5
846
  8
7
  6
CONTINUOUS
 10
-5.366556487222994
 20
79.74088129085283
 30
0.0
  0
VERTEX
  5
847
  8
7
  6
CONTINUOUS
 10
-4.594329228967496
 20
81.18785794033812
 30
0.0
  0
VERTEX
  5
848
  8
7
  6
CONTINUOUS
 10
-3.790453312586777
 20
82.63610053614843
 30
0.0
  0
VERTEX
  5
849
  8
7
  6
CONTINUOUS
 10
-2.953662791755818
 20
84.11599179008394
 30
0.0
  0
VERTEX
  5
84A
  8
7
  6
CONTINUOUS
 10
-2.502985900052622
 20
84.46919081476145
 30
0.0
  0
VERTEX
  5
84B
  8
7
  6
CONTINUOUS
 10
-2.053574954674417
 20
84.75909252318851
 30
0.0
  0
VERTEX
  5
84C
  8
7
  6
CONTINUOUS
 10
-1.56998345852098
 20
85.04772828529059
 30
0.0
  0
VERTEX
  5
84D
  8
7
  6
CONTINUOUS
 10
-1.056009250567328
 20
85.33762999371763
 30
0.0
  0
VERTEX
  5
84E
  8
7
  6
CONTINUOUS
 10
-0.5407690962886704
 20
85.59461709769445
 30
0.0
  0
VERTEX
  5
84F
  8
7
  6
CONTINUOUS
 10
-0.0267948883350044
 20
85.88451880612152
 30
0.0
  0
VERTEX
  5
850
  8
7
  6
CONTINUOUS
 10
0.4555306614934267
 20
86.17442051454859
 30
0.0
  0
VERTEX
  5
851
  8
7
  6
CONTINUOUS
 10
0.9391221576468638
 20
86.46432222297565
 30
0.0
  0
VERTEX
  5
852
  8
7
  6
CONTINUOUS
 10
1.48474502372575
 20
86.5276195392261
 30
0.0
  0
VERTEX
  5
853
  8
7
  6
CONTINUOUS
 10
2.031633836129629
 20
86.59218280180156
 30
0.0
  0
VERTEX
  5
854
  8
7
  6
CONTINUOUS
 10
2.578522648533522
 20
86.65674606437702
 30
0.0
  0
VERTEX
  5
855
  8
7
  6
CONTINUOUS
 10
3.1254114609374
 20
86.72130932695248
 30
0.0
  0
VERTEX
  5
856
  8
7
  6
CONTINUOUS
 10
3.672300273341293
 20
86.72130932695248
 30
0.0
  0
VERTEX
  5
857
  8
7
  6
CONTINUOUS
 10
4.219189085745185
 20
86.7529579850777
 30
0.0
  0
VERTEX
  5
858
  8
7
  6
CONTINUOUS
 10
4.766077898149078
 20
86.72130932695248
 30
0.0
  0
VERTEX
  5
859
  8
7
  6
CONTINUOUS
 10
5.312966710552971
 20
86.68839472250224
 30
0.0
  0
VERTEX
  5
85A
  8
7
  6
CONTINUOUS
 10
5.859855522956863
 20
86.62509740625177
 30
0.0
  0
VERTEX
  5
85B
  8
7
  6
CONTINUOUS
 10
6.406744335360742
 20
86.5276195392261
 30
0.0
  0
VERTEX
  5
85C
  8
7
  6
CONTINUOUS
 10
6.921984489639414
 20
86.39975896040019
 30
0.0
  0
VERTEX
  5
85D
  8
7
  6
CONTINUOUS
 10
7.435958697593065
 20
86.2060691726738
 30
0.0
  0
VERTEX
  5
85E
  8
7
  6
CONTINUOUS
 10
7.951198851871737
 20
85.9807307268222
 30
0.0
  0
VERTEX
  5
85F
  8
7
  6
CONTINUOUS
 10
8.433524401700154
 20
85.72374362284538
 30
0.0
  0
VERTEX
  5
860
  8
7
  6
CONTINUOUS
 10
8.9158499515286
 20
85.43384191441831
 30
0.0
  0
VERTEX
  5
861
  8
7
  6
CONTINUOUS
 10
9.39817550135703
 20
85.0806428897408
 30
0.0
  0
VERTEX
  5
862
  8
7
  6
CONTINUOUS
 10
10.07419083891183
 20
84.82365578576398
 30
0.0
  0
VERTEX
  5
863
  8
7
  6
CONTINUOUS
 10
10.68564291389119
 20
84.53375407733691
 30
0.0
  0
VERTEX
  5
864
  8
7
  6
CONTINUOUS
 10
11.23253172629508
 20
84.21220371078462
 30
0.0
  0
VERTEX
  5
865
  8
7
  6
CONTINUOUS
 10
11.77942053869896
 20
83.8260900816569
 30
0.0
  0
VERTEX
  5
866
  8
7
  6
CONTINUOUS
 10
12.22883148407715
 20
83.4083277944039
 30
0.0
  0
VERTEX
  5
867
  8
7
  6
CONTINUOUS
 10
12.67950837578036
 20
82.9576509027007
 30
0.0
  0
VERTEX
  5
868
  8
7
  6
CONTINUOUS
 10
13.09727066303333
 20
82.47532535287228
 30
0.0
  0
VERTEX
  5
869
  8
7
  6
CONTINUOUS
 10
13.48338429216108
 20
81.9600851985936
 30
0.0
  0
VERTEX
  5
86A
  8
7
  6
CONTINUOUS
 10
13.8378492631636
 20
81.41319638618972
 30
0.0
  0
VERTEX
  5
86B
  8
7
  6
CONTINUOUS
 10
14.19104828784111
 20
80.86630757378583
 30
0.0
  0
VERTEX
  5
86C
  8
7
  6
CONTINUOUS
 10
14.54551325884363
 20
80.28777010325672
 30
0.0
  0
VERTEX
  5
86D
  8
7
  6
CONTINUOUS
 10
14.86706362539593
 20
79.70796668640259
 30
0.0
  0
VERTEX
  5
86E
  8
7
  6
CONTINUOUS
 10
15.22152859639844
 20
79.09778055774825
 30
0.0
  0
VERTEX
  5
86F
  8
7
  6
CONTINUOUS
 10
15.54307896295073
 20
78.48632848276891
 30
0.0
  0
VERTEX
  5
870
  8
7
  6
CONTINUOUS
 10
15.89627798762824
 20
77.84322774966434
 30
0.0
  0
VERTEX
  5
871
  8
7
  6
CONTINUOUS
 10
16.28239161675599
 20
77.23177567468498
 30
0.0
  0
VERTEX
  5
872
  8
7
  6
CONTINUOUS
 10
16.44316680003215
 20
75.78353307887468
 30
0.0
  0
VERTEX
  5
873
  8
7
  6
CONTINUOUS
 10
16.47608140448237
 20
74.36820508751462
 30
0.0
  0
VERTEX
  5
874
  8
7
  6
CONTINUOUS
 10
16.47608140448237
 20
72.85666517545387
 30
0.0
  0
VERTEX
  5
875
  8
7
  6
CONTINUOUS
 10
16.47608140448237
 20
71.24891334269243
 30
0.0
  0
VERTEX
  5
876
  8
7
  6
CONTINUOUS
 10
16.12161643347984
 20
70.25134763858533
 30
0.0
  0
VERTEX
  5
877
  8
7
  6
CONTINUOUS
 10
15.54307896295073
 20
69.70445882618145
 30
0.0
  0
VERTEX
  5
878
  8
7
  6
CONTINUOUS
 10
14.86706362539593
 20
69.44747172220463
 30
0.0
  0
VERTEX
  5
879
  8
7
  6
CONTINUOUS
 10
14.12775097159066
 20
69.34999385517892
 30
0.0
  0
VERTEX
  5
87A
  8
7
  6
CONTINUOUS
 10
13.42008697591064
 20
69.22213327635302
 30
0.0
  0
VERTEX
  5
87B
  8
7
  6
CONTINUOUS
 10
12.80863490093128
 20
68.93223156792594
 30
0.0
  0
VERTEX
  5
87C
  8
7
  6
CONTINUOUS
 10
12.42252127180355
 20
68.3207794929466
 30
0.0
  0
VERTEX
  5
87D
  8
7
  6
CONTINUOUS
 10
12.29339474665262
 20
67.25991647258905
 30
0.0
  0
VERTEX
  5
87E
  8
7
  6
CONTINUOUS
 10
11.48951883027189
 20
67.06622668486268
 30
0.0
  0
VERTEX
  5
87F
  8
7
  6
CONTINUOUS
 10
11.00719328044346
 20
66.6484643976097
 30
0.0
  0
VERTEX
  5
880
  8
7
  6
CONTINUOUS
 10
10.71729157201641
 20
66.10157558520582
 30
0.0
  0
VERTEX
  5
881
  8
7
  6
CONTINUOUS
 10
10.52486773061504
 20
65.45847485210123
 30
0.0
  0
VERTEX
  5
882
  8
7
  6
CONTINUOUS
 10
10.3640925473389
 20
64.81537411899669
 30
0.0
  0
VERTEX
  5
883
  8
7
  6
CONTINUOUS
 10
10.07419083891183
 20
64.26848530659278
 30
0.0
  0
VERTEX
  5
884
  8
7
  6
CONTINUOUS
 10
9.558950684633174
 20
63.88237167746502
 30
0.0
  0
VERTEX
  5
885
  8
7
  6
CONTINUOUS
 10
8.755074768252442
 20
63.75324515231411
 30
0.0
  0
VERTEX
  5
886
  8
7
  6
CONTINUOUS
 10
8.562650926851077
 20
63.4962580483373
 30
0.0
  0
VERTEX
  5
887
  8
7
  6
CONTINUOUS
 10
8.368961139124707
 20
63.20635633991022
 30
0.0
  0
VERTEX
  5
888
  8
7
  6
CONTINUOUS
 10
8.176537297723343
 20
62.94936923593339
 30
0.0
  0
VERTEX
  5
889
  8
7
  6
CONTINUOUS
 10
7.951198851871737
 20
62.65946752750635
 30
0.0
  0
VERTEX
  5
88A
  8
7
  6
CONTINUOUS
 10
7.725860406020132
 20
62.40248042352951
 30
0.0
  0
VERTEX
  5
88B
  8
7
  6
CONTINUOUS
 10
7.468873302043306
 20
62.17714197767792
 30
0.0
  0
VERTEX
  5
88C
  8
7
  6
CONTINUOUS
 10
7.21062025174146
 20
61.98471813627653
 30
0.0
  0
VERTEX
  5
88D
  8
7
  6
CONTINUOUS
 10
6.921984489639414
 20
61.82267700667539
 30
0.0
  0
VERTEX
  5
88E
  8
7
  6
CONTINUOUS
 10
6.696646043787808
 20
61.30870279872173
 30
0.0
  0
VERTEX
  5
88F
  8
7
  6
CONTINUOUS
 10
6.245969152084598
 20
60.82637724889329
 30
0.0
  0
VERTEX
  5
890
  8
7
  6
CONTINUOUS
 10
5.667431681555485
 20
60.3757003571901
 30
0.0
  0
VERTEX
  5
891
  8
7
  6
CONTINUOUS
 10
5.055979606576145
 20
59.95793806993711
 30
0.0
  0
VERTEX
  5
892
  8
7
  6
CONTINUOUS
 10
4.605302714872948
 20
59.50726117823392
 30
0.0
  0
VERTEX
  5
893
  8
7
  6
CONTINUOUS
 10
4.348315610896108
 20
59.02493562840549
 30
0.0
  0
VERTEX
  5
894
  8
7
  6
CONTINUOUS
 10
4.477442136047017
 20
58.47804681600161
 30
0.0
  0
VERTEX
  5
895
  8
7
  6
CONTINUOUS
 10
5.087628264701365
 20
57.83494608289702
 30
0.0
  0
VERTEX
  5
896
  8
7
  6
CONTINUOUS
 10
5.345881315003197
 20
57.31970592861835
 30
0.0
  0
VERTEX
  5
897
  8
7
  6
CONTINUOUS
 10
5.634517077105244
 20
56.90194364136539
 30
0.0
  0
VERTEX
  5
898
  8
7
  6
CONTINUOUS
 10
5.956067443657545
 20
56.54747867036288
 30
0.0
  0
VERTEX
  5
899
  8
7
  6
CONTINUOUS
 10
6.278883756534839
 20
56.2588429082608
 30
0.0
  0
VERTEX
  5
89A
  8
7
  6
CONTINUOUS
 10
6.663731439337568
 20
56.00058985795899
 30
0.0
  0
VERTEX
  5
89B
  8
7
  6
CONTINUOUS
 10
7.049845068465331
 20
55.80816601655761
 30
0.0
  0
VERTEX
  5
89C
  8
7
  6
CONTINUOUS
 10
7.468873302043306
 20
55.61447622883124
 30
0.0
  0
VERTEX
  5
89D
  8
7
  6
CONTINUOUS
 10
7.886635589296276
 20
55.45370104555509
 30
0.0
  0
VERTEX
  5
89E
  8
7
  6
CONTINUOUS
 10
8.337312480999472
 20
55.26127720415371
 30
0.0
  0
VERTEX
  5
89F
  8
7
  6
CONTINUOUS
 10
8.755074768252442
 20
55.10050202087758
 30
0.0
  0
VERTEX
  5
8A0
  8
7
  6
CONTINUOUS
 10
9.205751659955652
 20
54.9068122331512
 30
0.0
  0
VERTEX
  5
8A1
  8
7
  6
CONTINUOUS
 10
9.623513947208622
 20
54.68147378729959
 30
0.0
  0
VERTEX
  5
8A2
  8
7
  6
CONTINUOUS
 10
10.04254218078661
 20
54.42448668332278
 30
0.0
  0
VERTEX
  5
8A3
  8
7
  6
CONTINUOUS
 10
10.46030446803958
 20
54.1345849748957
 30
0.0
  0
VERTEX
  5
8A4
  8
7
  6
CONTINUOUS
 10
10.84641809716733
 20
53.74973729209296
 30
0.0
  0
VERTEX
  5
8A5
  8
7
  6
CONTINUOUS
 10
11.23253172629508
 20
53.330709058515
 30
0.0
  0
VERTEX
  5
8A6
  8
7
  6
CONTINUOUS
 10
11.74650593424873
 20
52.62304506283496
 30
0.0
  0
VERTEX
  5
8A7
  8
7
  6
CONTINUOUS
 10
12.16553416782671
 20
51.91538106715493
 30
0.0
  0
VERTEX
  5
8A8
  8
7
  6
CONTINUOUS
 10
12.51873319250421
 20
51.20771707147489
 30
0.0
  0
VERTEX
  5
8A9
  8
7
  6
CONTINUOUS
 10
12.87319816350674
 20
50.46840441766963
 30
0.0
  0
VERTEX
  5
8AA
  8
7
  6
CONTINUOUS
 10
13.22639718818425
 20
49.7607404219896
 30
0.0
  0
VERTEX
  5
8AB
  8
7
  6
CONTINUOUS
 10
13.58086215918678
 20
49.05307642630957
 30
0.0
  0
VERTEX
  5
8AC
  8
7
  6
CONTINUOUS
 10
14.03027310456497
 20
48.37706108875476
 30
0.0
  0
VERTEX
  5
8AD
  8
7
  6
CONTINUOUS
 10
14.57716191696886
 20
47.73396035565018
 30
0.0
  0
VERTEX
  5
8AE
  8
7
  6
CONTINUOUS
 10
14.83541496727069
 20
46.76930925599332
 30
0.0
  0
VERTEX
  5
8AF
  8
7
  6
CONTINUOUS
 10
15.15696533382298
 20
45.80339221001147
 30
0.0
  0
VERTEX
  5
8B0
  8
7
  6
CONTINUOUS
 10
15.54307896295073
 20
44.87038976847981
 30
0.0
  0
VERTEX
  5
8B1
  8
7
  6
CONTINUOUS
 10
15.99248990832892
 20
43.93865327327319
 30
0.0
  0
VERTEX
  5
8B2
  8
7
  6
CONTINUOUS
 10
16.50773006260759
 20
43.00565083174155
 30
0.0
  0
VERTEX
  5
8B3
  8
7
  6
CONTINUOUS
 10
17.08626753313671
 20
42.10429704833514
 30
0.0
  0
VERTEX
  5
8B4
  8
7
  6
CONTINUOUS
 10
17.73063421256629
 20
41.20420921125374
 30
0.0
  0
VERTEX
  5
8B5
  8
7
  6
CONTINUOUS
 10
18.40538360379609
 20
40.36741869042278
 30
0.0
  0
VERTEX
  5
8B6
  8
7
  6
CONTINUOUS
 10
19.11304759947612
 20
39.53062816959184
 30
0.0
  0
VERTEX
  5
8B7
  8
7
  6
CONTINUOUS
 10
19.88527485773162
 20
38.72675225321113
 30
0.0
  0
VERTEX
  5
8B8
  8
7
  6
CONTINUOUS
 10
20.68915077411233
 20
37.98743959940586
 30
0.0
  0
VERTEX
  5
8B9
  8
7
  6
CONTINUOUS
 10
21.55758995306851
 20
37.27977560372584
 30
0.0
  0
VERTEX
  5
8BA
  8
7
  6
CONTINUOUS
 10
22.42602913202468
 20
36.63540892429624
 30
0.0
  0
VERTEX
  5
8BB
  8
7
  6
CONTINUOUS
 10
23.29446831098086
 20
36.02522279564191
 30
0.0
  0
VERTEX
  5
8BC
  8
7
  6
CONTINUOUS
 10
24.2274707525125
 20
35.47833398323802
 30
0.0
  0
VERTEX
  5
8BD
  8
7
  6
CONTINUOUS
 10
25.16047319404414
 20
34.99600843340959
 30
0.0
  0
VERTEX
  5
8BE
  8
7
  6
CONTINUOUS
 10
26.22260216072669
 20
34.09465465000318
 30
0.0
  0
VERTEX
  5
8BF
  8
7
  6
CONTINUOUS
 10
27.18725326038355
 20
33.13000355034632
 30
0.0
  0
VERTEX
  5
8C0
  8
7
  6
CONTINUOUS
 10
28.02404378121449
 20
32.16408650436445
 30
0.0
  0
VERTEX
  5
8C1
  8
7
  6
CONTINUOUS
 10
28.76335643501975
 20
31.16778674658237
 30
0.0
  0
VERTEX
  5
8C2
  8
7
  6
CONTINUOUS
 10
29.43937177257456
 20
30.17022104247526
 30
0.0
  0
VERTEX
  5
8C3
  8
7
  6
CONTINUOUS
 10
30.05082384755391
 20
29.14100668024294
 30
0.0
  0
VERTEX
  5
8C4
  8
7
  6
CONTINUOUS
 10
30.59771265995781
 20
28.11179231801063
 30
0.0
  0
VERTEX
  5
8C5
  8
7
  6
CONTINUOUS
 10
31.14333552603669
 20
27.08257795577831
 30
0.0
  0
VERTEX
  5
8C6
  8
7
  6
CONTINUOUS
 10
31.65857568031535
 20
26.05336359354598
 30
0.0
  0
VERTEX
  5
8C7
  8
7
  6
CONTINUOUS
 10
32.17381583459402
 20
24.99123462686342
 30
0.0
  0
VERTEX
  5
8C8
  8
7
  6
CONTINUOUS
 10
32.7207046469979
 20
23.99366892275633
 30
0.0
  0
VERTEX
  5
8C9
  8
7
  6
CONTINUOUS
 10
33.29924211752702
 20
22.964454560524
 30
0.0
  0
VERTEX
  5
8CA
  8
7
  6
CONTINUOUS
 10
33.94234285063159
 20
21.96688885641692
 30
0.0
  0
VERTEX
  5
8CB
  8
7
  6
CONTINUOUS
 10
34.65000684631163
 20
21.00223775676005
 30
0.0
  0
VERTEX
  5
8CC
  8
7
  6
CONTINUOUS
 10
35.42223410456712
 20
20.03758665710319
 30
0.0
  0
VERTEX
  5
8CD
  8
7
  6
CONTINUOUS
 10
36.32358788797353
 20
19.13623287369678
 30
0.0
  0
VERTEX
  5
8CE
  8
7
  6
CONTINUOUS
 10
36.90212535850264
 20
19.16914747814702
 30
0.0
  0
VERTEX
  5
8CF
  8
7
  6
CONTINUOUS
 10
37.41609956645631
 20
19.07293555744634
 30
0.0
  0
VERTEX
  5
8D0
  8
7
  6
CONTINUOUS
 10
37.89969106260975
 20
18.84759711159473
 30
0.0
  0
VERTEX
  5
8D1
  8
7
  6
CONTINUOUS
 10
38.34910200798794
 20
18.52604674504244
 30
0.0
  0
VERTEX
  5
8D2
  8
7
  6
CONTINUOUS
 10
38.76813024156591
 20
18.10701851146447
 30
0.0
  0
VERTEX
  5
8D3
  8
7
  6
CONTINUOUS
 10
39.15424387069366
 20
17.62469296163604
 30
0.0
  0
VERTEX
  5
8D4
  8
7
  6
CONTINUOUS
 10
39.5403574998214
 20
17.11071875368238
 30
0.0
  0
VERTEX
  5
8D5
  8
7
  6
CONTINUOUS
 10
39.8619078663737
 20
16.56382994127848
 30
0.0
  0
VERTEX
  5
8D6
  8
7
  6
CONTINUOUS
 10
39.82899326192346
 20
16.24101362840119
 30
0.0
  0
VERTEX
  5
8D7
  8
7
  6
CONTINUOUS
 10
39.82899326192346
 20
15.95237786629913
 30
0.0
  0
VERTEX
  5
8D8
  8
7
  6
CONTINUOUS
 10
39.92520518262414
 20
15.69539076232231
 30
0.0
  0
VERTEX
  5
8D9
  8
7
  6
CONTINUOUS
 10
40.08598036590029
 20
15.40548905389525
 30
0.0
  0
VERTEX
  5
8DA
  8
7
  6
CONTINUOUS
 10
40.50500859947827
 20
14.98772676664228
 30
0.0
  0
VERTEX
  5
8DB
  8
7
  6
CONTINUOUS
 10
40.95568549118147
 20
14.53704987493907
 30
0.0
  0
VERTEX
  5
8DC
  8
7
  6
CONTINUOUS
 10
41.40509643655967
 20
14.11802164136109
 30
0.0
  0
VERTEX
  5
8DD
  8
7
  6
CONTINUOUS
 10
41.88742198638811
 20
13.6686106959829
 30
0.0
  0
VERTEX
  5
8DE
  8
7
  6
CONTINUOUS
 10
42.3380988780913
 20
13.21793380427969
 30
0.0
  0
VERTEX
  5
8DF
  8
7
  6
CONTINUOUS
 10
42.78877576979451
 20
12.73560825445126
 30
0.0
  0
VERTEX
  5
8E0
  8
7
  6
CONTINUOUS
 10
43.27110131962295
 20
12.28493136274805
 30
0.0
  0
VERTEX
  5
8E1
  8
7
  6
CONTINUOUS
 10
43.72177821132615
 20
11.80260581291962
 30
0.0
  0
VERTEX
  5
8E2
  8
7
  6
CONTINUOUS
 10
44.13954049857912
 20
11.3215462094162
 30
0.0
  0
VERTEX
  5
8E3
  8
7
  6
CONTINUOUS
 10
44.55730278583209
 20
10.83922065958777
 30
0.0
  0
VERTEX
  5
8E4
  8
7
  6
CONTINUOUS
 10
44.94341641495983
 20
10.35562916343433
 30
0.0
  0
VERTEX
  5
8E5
  8
7
  6
CONTINUOUS
 10
45.29788138596236
 20
9.84165495548067
 30
0.0
  0
VERTEX
  5
8E6
  8
7
  6
CONTINUOUS
 10
45.65108041063987
 20
9.326414801202013
 30
0.0
  0
VERTEX
  5
8E7
  8
7
  6
CONTINUOUS
 10
45.94098211906693
 20
8.812440593248354
 30
0.0
  0
VERTEX
  5
8E8
  8
7
  6
CONTINUOUS
 10
46.19796922304376
 20
8.29720043896969
 30
0.0
  0
VERTEX
  5
8E9
  8
7
  6
CONTINUOUS
 10
46.39165901077014
 20
7.750311626565797
 30
0.0
  0
VERTEX
  5
8EA
  8
7
  6
CONTINUOUS
 10
47.26009818972631
 20
6.367898239655965
 30
0.0
  0
VERTEX
  5
8EB
  8
7
  6
CONTINUOUS
 10
47.356310110427
 20
6.077996531228905
 30
0.0
  0
VERTEX
  5
8EC
  8
7
  6
CONTINUOUS
 10
47.54999989815338
 20
5.562756376950247
 30
0.0
  0
VERTEX
  5
8ED
  8
7
  6
CONTINUOUS
 10
47.74242373955475
 20
5.015867564546355
 30
0.0
  0
VERTEX
  5
8EE
  8
7
  6
CONTINUOUS
 10
47.90319892283089
 20
4.533542014717924
 30
0.0
  0
VERTEX
  5
8EF
  8
7
  6
CONTINUOUS
 10
47.5816485562786
 20
3.761314756462433
 30
0.0
  0
VERTEX
  5
8F0
  8
7
  6
CONTINUOUS
 10
47.29174684785154
 20
2.892875577506253
 30
0.0
  0
VERTEX
  5
8F1
  8
7
  6
CONTINUOUS
 10
47.06640840199993
 20
1.959873135974618
 30
0.0
  0
VERTEX
  5
8F2
  8
7
  6
CONTINUOUS
 10
46.77777263989789
 20
1.028136640767983
 30
0.0
  0
VERTEX
  5
8F3
  8
7
  6
CONTINUOUS
 10
46.42330766889536
 20
0.1584315154868037
 30
0.0
  0
VERTEX
  5
8F4
  8
7
  6
CONTINUOUS
 10
45.94098211906693
 20
-0.6770930590191355
 30
0.0
  0
VERTEX
  5
8F5
  8
7
  6
CONTINUOUS
 10
45.26496678151213
 20
-1.353108396573951
 30
0.0
  0
VERTEX
  5
8F6
  8
7
  6
CONTINUOUS
 10
44.36487894443073
 20
-1.899997208977837
 30
0.0
  0
VERTEX
  5
8F7
  8
7
  6
CONTINUOUS
 10
44.01041397342821
 20
-1.578446842425549
 30
0.0
  0
VERTEX
  5
8F8
  8
7
  6
CONTINUOUS
 10
43.81799013202684
 20
-1.192333213297808
 30
0.0
  0
VERTEX
  5
8F9
  8
7
  6
CONTINUOUS
 10
43.72177821132615
 20
-0.8062195841700586
 30
0.0
  0
VERTEX
  5
8FA
  8
7
  6
CONTINUOUS
 10
43.72177821132615
 20
-0.3555426924668552
 30
0.0
  0
VERTEX
  5
8FB
  8
7
  6
CONTINUOUS
 10
43.72177821132615
 20
0.0622195947861144
 30
0.0
  0
VERTEX
  5
8FC
  8
7
  6
CONTINUOUS
 10
43.72177821132615
 20
0.4483332239138633
 30
0.0
  0
VERTEX
  5
8FD
  8
7
  6
CONTINUOUS
 10
43.68886360687592
 20
0.8027981949163845
 30
0.0
  0
VERTEX
  5
8FE
  8
7
  6
CONTINUOUS
 10
43.52808842359976
 20
1.091433957018438
 30
0.0
  0
VERTEX
  5
8FF
  8
7
  6
CONTINUOUS
 10
43.46479110734932
 20
0.9635733781925353
 30
0.0
  0
VERTEX
  5
900
  8
7
  6
CONTINUOUS
 10
43.27110131962295
 20
0.609108407190007
 30
0.0
  0
VERTEX
  5
901
  8
7
  6
CONTINUOUS
 10
43.07867747822157
 20
0.1584315154868037
 30
0.0
  0
VERTEX
  5
902
  8
7
  6
CONTINUOUS
 10
42.98119961119588
 20
-0.2909794298913937
 30
0.0
  0
VERTEX
  5
903
  8
7
  6
CONTINUOUS
 10
42.8849876904952
 20
-0.5492324801932256
 30
0.0
  0
VERTEX
  5
904
  8
7
  6
CONTINUOUS
 10
42.72421250721905
 20
-0.6770930590191355
 30
0.0
  0
VERTEX
  5
905
  8
7
  6
CONTINUOUS
 10
42.53178866581768
 20
-0.7100076634693764
 30
0.0
  0
VERTEX
  5
906
  8
7
  6
CONTINUOUS
 10
42.3380988780913
 20
-0.6454444008939149
 30
0.0
  0
VERTEX
  5
907
  8
7
  6
CONTINUOUS
 10
42.11276043223971
 20
-0.5492324801932256
 30
0.0
  0
VERTEX
  5
908
  8
7
  6
CONTINUOUS
 10
41.92033659083833
 20
-0.4201059550423167
 30
0.0
  0
VERTEX
  5
909
  8
7
  6
CONTINUOUS
 10
41.72664680311196
 20
-0.2909794298913937
 30
0.0
  0
VERTEX
  5
90A
  8
7
  6
CONTINUOUS
 10
41.56587161983581
 20
-0.1631188510654837
 30
0.0
  0
VERTEX
  5
90B
  8
7
  6
CONTINUOUS
 10
41.56587161983581
 20
0.3521213032131882
 30
0.0
  0
VERTEX
  5
90C
  8
7
  6
CONTINUOUS
 10
41.50257430358536
 20
0.8990101156170667
 30
0.0
  0
VERTEX
  5
90D
  8
7
  6
CONTINUOUS
 10
41.4380110410099
 20
1.412984323570726
 30
0.0
  0
VERTEX
  5
90E
  8
7
  6
CONTINUOUS
 10
41.34053317398421
 20
1.959873135974618
 30
0.0
  0
VERTEX
  5
90F
  8
7
  6
CONTINUOUS
 10
41.17975799070807
 20
2.475113290253276
 30
0.0
  0
VERTEX
  5
910
  8
7
  6
CONTINUOUS
 10
41.01898280743192
 20
2.957438840081707
 30
0.0
  0
VERTEX
  5
911
  8
7
  6
CONTINUOUS
 10
40.82655896603056
 20
3.408115731784918
 30
0.0
  0
VERTEX
  5
912
  8
7
  6
CONTINUOUS
 10
40.60122052017895
 20
3.794229360912659
 30
0.0
  0
VERTEX
  5
913
  8
7
  6
CONTINUOUS
 10
40.27967015362667
 20
3.922089939738569
 30
0.0
  0
VERTEX
  5
914
  8
7
  6
CONTINUOUS
 10
39.89355652449892
 20
4.051216464889492
 30
0.0
  0
VERTEX
  5
915
  8
7
  6
CONTINUOUS
 10
39.47579423724595
 20
4.147428385590175
 30
0.0
  0
VERTEX
  5
916
  8
7
  6
CONTINUOUS
 10
39.05676600366797
 20
4.276554910741091
 30
0.0
  0
VERTEX
  5
917
  8
7
  6
CONTINUOUS
 10
38.60735505828978
 20
4.405681435892014
 30
0.0
  0
VERTEX
  5
918
  8
7
  6
CONTINUOUS
 10
38.1883268247118
 20
4.501893356592689
 30
0.0
  0
VERTEX
  5
919
  8
7
  6
CONTINUOUS
 10
37.77056453745882
 20
4.629753935418606
 30
0.0
  0
VERTEX
  5
91A
  8
7
  6
CONTINUOUS
 10
37.38445090833108
 20
4.758880460569522
 30
0.0
  0
VERTEX
  5
91B
  8
7
  6
CONTINUOUS
 10
36.45144846679943
 20
5.723531560226384
 30
0.0
  0
VERTEX
  5
91C
  8
7
  6
CONTINUOUS
 10
35.83999639182009
 20
6.689448606208259
 30
0.0
  0
VERTEX
  5
91D
  8
7
  6
CONTINUOUS
 10
35.42223410456712
 20
7.718662968440576
 30
0.0
  0
VERTEX
  5
91E
  8
7
  6
CONTINUOUS
 10
35.13233239614005
 20
8.716228672547672
 30
0.0
  0
VERTEX
  5
91F
  8
7
  6
CONTINUOUS
 10
34.90699395028845
 20
9.745443034779989
 30
0.0
  0
VERTEX
  5
920
  8
7
  6
CONTINUOUS
 10
34.65000684631163
 20
10.77465739701231
 30
0.0
  0
VERTEX
  5
921
  8
7
  6
CONTINUOUS
 10
34.23224455905866
 20
11.83425447104484
 30
0.0
  0
VERTEX
  5
922
  8
7
  6
CONTINUOUS
 10
33.65244114220453
 20
12.89638343772741
 30
0.0
  0
VERTEX
  5
923
  8
7
  6
CONTINUOUS
 10
33.20303019682634
 20
13.08880727912877
 30
0.0
  0
VERTEX
  5
924
  8
7
  6
CONTINUOUS
 10
32.75235330512313
 20
13.37870898755584
 30
0.0
  0
VERTEX
  5
925
  8
7
  6
CONTINUOUS
 10
32.2700277552947
 20
13.73317395855835
 30
0.0
  0
VERTEX
  5
926
  8
7
  6
CONTINUOUS
 10
31.8193508635915
 20
14.11802164136109
 30
0.0
  0
VERTEX
  5
927
  8
7
  6
CONTINUOUS
 10
31.43323723446375
 20
14.5686985330643
 30
0.0
  0
VERTEX
  5
928
  8
7
  6
CONTINUOUS
 10
31.08003820978624
 20
15.0193754247675
 30
0.0
  0
VERTEX
  5
929
  8
7
  6
CONTINUOUS
 10
30.82178515948439
 20
15.47005231647071
 30
0.0
  0
VERTEX
  5
92A
  8
7
  6
CONTINUOUS
 10
30.66100997620826
 20
15.9194632618489
 30
0.0
  0
VERTEX
  5
92B
  8
7
  6
CONTINUOUS
 10
29.98626058497845
 20
16.37014015355211
 30
0.0
  0
VERTEX
  5
92C
  8
7
  6
CONTINUOUS
 10
29.37480850999911
 20
16.82081704525531
 30
0.0
  0
VERTEX
  5
92D
  8
7
  6
CONTINUOUS
 10
28.73170777689453
 20
17.27149393695852
 30
0.0
  0
VERTEX
  5
92E
  8
7
  6
CONTINUOUS
 10
28.12025570191518
 20
17.72090488233672
 30
0.0
  0
VERTEX
  5
92F
  8
7
  6
CONTINUOUS
 10
27.50880362693583
 20
18.17158177403991
 30
0.0
  0
VERTEX
  5
930
  8
7
  6
CONTINUOUS
 10
26.93026615640672
 20
18.62225866574313
 30
0.0
  0
VERTEX
  5
931
  8
7
  6
CONTINUOUS
 10
26.31881408142737
 20
19.07293555744634
 30
0.0
  0
VERTEX
  5
932
  8
7
  6
CONTINUOUS
 10
25.74027661089826
 20
19.55526110727477
 30
0.0
  0
VERTEX
  5
933
  8
7
  6
CONTINUOUS
 10
25.16047319404414
 20
20.00467205265295
 30
0.0
  0
VERTEX
  5
934
  8
7
  6
CONTINUOUS
 10
24.58193572351502
 20
20.45534894435616
 30
0.0
  0
VERTEX
  5
935
  8
7
  6
CONTINUOUS
 10
23.97048364853566
 20
20.90602583605937
 30
0.0
  0
VERTEX
  5
936
  8
7
  6
CONTINUOUS
 10
23.39194617800656
 20
21.35670272776258
 30
0.0
  0
VERTEX
  5
937
  8
7
  6
CONTINUOUS
 10
22.7804941030272
 20
21.80611367314077
 30
0.0
  0
VERTEX
  5
938
  8
7
  6
CONTINUOUS
 10
22.16904202804785
 20
22.22514190671875
 30
0.0
  0
VERTEX
  5
939
  8
7
  6
CONTINUOUS
 10
21.52594129494328
 20
22.67455285209695
 30
0.0
  0
VERTEX
  5
93A
  8
7
  6
CONTINUOUS
 10
20.88284056183871
 20
23.09358108567493
 30
0.0
  0
VERTEX
  5
93B
  8
7
  6
CONTINUOUS
 10
20.40051501201027
 20
23.38348279410199
 30
0.0
  0
VERTEX
  5
93C
  8
7
  6
CONTINUOUS
 10
19.94983812030708
 20
23.70503316065428
 30
0.0
  0
VERTEX
  5
93D
  8
7
  6
CONTINUOUS
 10
19.49916122860387
 20
24.02658352720655
 30
0.0
  0
VERTEX
  5
93E
  8
7
  6
CONTINUOUS
 10
19.0813989413509
 20
24.41269715633432
 30
0.0
  0
VERTEX
  5
93F
  8
7
  6
CONTINUOUS
 10
18.63072204964769
 20
24.79881078546205
 30
0.0
  0
VERTEX
  5
940
  8
7
  6
CONTINUOUS
 10
18.21295976239472
 20
25.21657307271502
 30
0.0
  0
VERTEX
  5
941
  8
7
  6
CONTINUOUS
 10
17.82684613326697
 20
25.63433535996801
 30
0.0
  0
VERTEX
  5
942
  8
7
  6
CONTINUOUS
 10
17.44073250413923
 20
26.0850122516712
 30
0.0
  0
VERTEX
  5
943
  8
7
  6
CONTINUOUS
 10
17.08626753313671
 20
26.53568914337441
 30
0.0
  0
VERTEX
  5
944
  8
7
  6
CONTINUOUS
 10
16.7330685084592
 20
27.01801469320284
 30
0.0
  0
VERTEX
  5
945
  8
7
  6
CONTINUOUS
 10
16.41151814190691
 20
27.50034024303127
 30
0.0
  0
VERTEX
  5
946
  8
7
  6
CONTINUOUS
 10
16.12161643347984
 20
27.98266579285969
 30
0.0
  0
VERTEX
  5
947
  8
7
  6
CONTINUOUS
 10
15.83171472505279
 20
28.49790594713836
 30
0.0
  0
VERTEX
  5
948
  8
7
  6
CONTINUOUS
 10
15.60637627920119
 20
28.98023149696679
 30
0.0
  0
VERTEX
  5
949
  8
7
  6
CONTINUOUS
 10
15.38230377967459
 20
29.49420570492045
 30
0.0
  0
VERTEX
  5
94A
  8
7
  6
CONTINUOUS
 10
15.18861399194822
 20
29.97779720107388
 30
0.0
  0
VERTEX
  5
94B
  8
7
  6
CONTINUOUS
 10
14.83541496727069
 20
30.20186970060048
 30
0.0
  0
VERTEX
  5
94C
  8
7
  6
CONTINUOUS
 10
14.44930133814296
 20
30.46012275090231
 30
0.0
  0
VERTEX
  5
94D
  8
7
  6
CONTINUOUS
 10
14.09483636714043
 20
30.68546119675393
 30
0.0
  0
VERTEX
  5
94E
  8
7
  6
CONTINUOUS
 10
13.77328600058814
 20
30.94244830073075
 30
0.0
  0
VERTEX
  5
94F
  8
7
  6
CONTINUOUS
 10
13.42008697591064
 20
31.23235000915781
 30
0.0
  0
VERTEX
  5
950
  8
7
  6
CONTINUOUS
 10
13.06562200490811
 20
31.48933711313464
 30
0.0
  0
VERTEX
  5
951
  8
7
  6
CONTINUOUS
 10
12.74407163835582
 20
31.77923882156171
 30
0.0
  0
VERTEX
  5
952
  8
7
  6
CONTINUOUS
 10
12.42252127180355
 20
32.06787458366377
 30
0.0
  0
VERTEX
  5
953
  8
7
  6
CONTINUOUS
 10
12.10097090525124
 20
32.35777629209082
 30
0.0
  0
VERTEX
  5
954
  8
7
  6
CONTINUOUS
 10
11.77942053869896
 20
32.64767800051789
 30
0.0
  0
VERTEX
  5
955
  8
7
  6
CONTINUOUS
 10
11.45787017214668
 20
32.96922836707017
 30
0.0
  0
VERTEX
  5
956
  8
7
  6
CONTINUOUS
 10
11.13505385926938
 20
33.25786412917222
 30
0.0
  0
VERTEX
  5
957
  8
7
  6
CONTINUOUS
 10
10.81350349271709
 20
33.57941449572451
 30
0.0
  0
VERTEX
  5
958
  8
7
  6
CONTINUOUS
 10
10.4919531261648
 20
33.86931620415157
 30
0.0
  0
VERTEX
  5
959
  8
7
  6
CONTINUOUS
 10
10.17040275961251
 20
34.19086657070386
 30
0.0
  0
VERTEX
  5
95A
  8
7
  6
CONTINUOUS
 10
9.848852393060227
 20
34.48076827913091
 30
0.0
  0
VERTEX
  5
95B
  8
7
  6
CONTINUOUS
 10
9.688077209784083
 20
34.38455635843023
 30
0.0
  0
VERTEX
  5
95C
  8
7
  6
CONTINUOUS
 10
9.52730202650794
 20
34.31999309585477
 30
0.0
  0
VERTEX
  5
95D
  8
7
  6
CONTINUOUS
 10
9.366526843231796
 20
34.2237811751541
 30
0.0
  0
VERTEX
  5
95E
  8
7
  6
CONTINUOUS
 10
9.205751659955652
 20
34.15921791257864
 30
0.0
  0
VERTEX
  5
95F
  8
7
  6
CONTINUOUS
 10
9.044976476679508
 20
34.09465465000318
 30
0.0
  0
VERTEX
  5
960
  8
7
  6
CONTINUOUS
 10
8.9158499515286
 20
34.03009138742772
 30
0.0
  0
VERTEX
  5
961
  8
7
  6
CONTINUOUS
 10
8.787989372702683
 20
33.96552812485226
 30
0.0
  0
VERTEX
  5
962
  8
7
  6
CONTINUOUS
 10
8.658862847551774
 20
33.93387946672703
 30
0.0
  0
VERTEX
  5
963
  8
7
  6
CONTINUOUS
 10
8.080325377022646
 20
34.35164175398
 30
0.0
  0
VERTEX
  5
964
  8
7
  6
CONTINUOUS
 10
7.533436564618754
 20
34.83396730380844
 30
0.0
  0
VERTEX
  5
965
  8
7
  6
CONTINUOUS
 10
7.018196410340096
 20
35.34920745808709
 30
0.0
  0
VERTEX
  5
966
  8
7
  6
CONTINUOUS
 10
6.5675195186369
 20
35.92774492861621
 30
0.0
  0
VERTEX
  5
967
  8
7
  6
CONTINUOUS
 10
6.181405889509136
 20
36.50754834547034
 30
0.0
  0
VERTEX
  5
968
  8
7
  6
CONTINUOUS
 10
5.828206864831628
 20
37.11900042044968
 30
0.0
  0
VERTEX
  5
969
  8
7
  6
CONTINUOUS
 10
5.538305156404576
 20
37.72918654910401
 30
0.0
  0
VERTEX
  5
96A
  8
7
  6
CONTINUOUS
 10
5.312966710552971
 20
38.30898996595813
 30
0.0
  0
VERTEX
  5
96B
  8
7
  6
CONTINUOUS
 10
4.41287887347157
 20
37.60132597027811
 30
0.0
  0
VERTEX
  5
96C
  8
7
  6
CONTINUOUS
 10
4.058413902469042
 20
36.89366197459807
 30
0.0
  0
VERTEX
  5
96D
  8
7
  6
CONTINUOUS
 10
4.122977165044503
 20
36.15308337446783
 30
0.0
  0
VERTEX
  5
96E
  8
7
  6
CONTINUOUS
 10
4.41287887347157
 20
35.41377072066255
 30
0.0
  0
VERTEX
  5
96F
  8
7
  6
CONTINUOUS
 10
4.701514635573616
 20
34.67319212053228
 30
0.0
  0
VERTEX
  5
970
  8
7
  6
CONTINUOUS
 10
4.895204423300001
 20
33.9022308086018
 30
0.0
  0
VERTEX
  5
971
  8
7
  6
CONTINUOUS
 10
4.701514635573616
 20
33.13000355034632
 30
0.0
  0
VERTEX
  5
972
  8
7
  6
CONTINUOUS
 10
4.026765244343821
 20
32.32486168764059
 30
0.0
  0
VERTEX
  5
973
  8
7
  6
CONTINUOUS
 10
3.609002957090851
 20
32.32486168764059
 30
0.0
  0
VERTEX
  5
974
  8
7
  6
CONTINUOUS
 10
3.350749906789019
 20
32.19700110881469
 30
0.0
  0
VERTEX
  5
975
  8
7
  6
CONTINUOUS
 10
3.222889327963088
 20
32.0033113210883
 30
0.0
  0
VERTEX
  5
976
  8
7
  6
CONTINUOUS
 10
3.158326065387641
 20
31.71467555898626
 30
0.0
  0
VERTEX
  5
977
  8
7
  6
CONTINUOUS
 10
3.158326065387641
 20
31.39312519243396
 30
0.0
  0
VERTEX
  5
978
  8
7
  6
CONTINUOUS
 10
3.189974723512861
 20
31.1032234840069
 30
0.0
  0
VERTEX
  5
979
  8
7
  6
CONTINUOUS
 10
3.222889327963088
 20
30.81332177557984
 30
0.0
  0
VERTEX
  5
97A
  8
7
  6
CONTINUOUS
 10
3.189974723512861
 20
30.58798332972823
 30
0.0
  0
VERTEX
  5
97B
  8
7
  6
CONTINUOUS
 10
2.96463627766127
 20
30.26643296317594
 30
0.0
  0
VERTEX
  5
97C
  8
7
  6
CONTINUOUS
 10
2.739297831809665
 20
30.00944585919912
 30
0.0
  0
VERTEX
  5
97D
  8
7
  6
CONTINUOUS
 10
2.450662069707604
 20
29.78410741334751
 30
0.0
  0
VERTEX
  5
97E
  8
7
  6
CONTINUOUS
 10
2.160760361280538
 20
29.59168357194615
 30
0.0
  0
VERTEX
  5
97F
  8
7
  6
CONTINUOUS
 10
1.870858652853485
 20
29.36634512609454
 30
0.0
  0
VERTEX
  5
980
  8
7
  6
CONTINUOUS
 10
1.582222890751439
 20
29.17265533836816
 30
0.0
  0
VERTEX
  5
981
  8
7
  6
CONTINUOUS
 10
1.292321182324372
 20
28.91566823439133
 30
0.0
  0
VERTEX
  5
982
  8
7
  6
CONTINUOUS
 10
1.035334078347546
 20
28.65868113041451
 30
0.0
  0
VERTEX
  5
983
  8
7
  6
CONTINUOUS
 10
1.131545999048228
 20
28.01558039730993
 30
0.0
  0
VERTEX
  5
984
  8
7
  6
CONTINUOUS
 10
1.323969840449593
 20
27.37121371788035
 30
0.0
  0
VERTEX
  5
985
  8
7
  6
CONTINUOUS
 10
1.6467861533269
 20
26.72811298477578
 30
0.0
  0
VERTEX
  5
986
  8
7
  6
CONTINUOUS
 10
2.031633836129629
 20
26.11666090979644
 30
0.0
  0
VERTEX
  5
987
  8
7
  6
CONTINUOUS
 10
2.482310727832839
 20
25.47356017669185
 30
0.0
  0
VERTEX
  5
988
  8
7
  6
CONTINUOUS
 10
2.997550882111497
 20
24.86210810171251
 30
0.0
  0
VERTEX
  5
989
  8
7
  6
CONTINUOUS
 10
3.479876431939928
 20
24.25192197305817
 30
0.0
  0
VERTEX
  5
98A
  8
7
  6
CONTINUOUS
 10
3.993850639893594
 20
23.64046989807882
 30
0.0
  0
VERTEX
  5
98B
  8
7
  6
CONTINUOUS
 10
4.44452753159679
 20
22.99736916497424
 30
0.0
  0
VERTEX
  5
98C
  8
7
  6
CONTINUOUS
 10
4.863555765174766
 20
22.38591708999489
 30
0.0
  0
VERTEX
  5
98D
  8
7
  6
CONTINUOUS
 10
5.216754789852274
 20
21.74281635689033
 30
0.0
  0
VERTEX
  5
98E
  8
7
  6
CONTINUOUS
 10
5.506656498279341
 20
21.13136428191098
 30
0.0
  0
VERTEX
  5
98F
  8
7
  6
CONTINUOUS
 10
5.634517077105244
 20
20.4882635488064
 30
0.0
  0
VERTEX
  5
990
  8
7
  6
CONTINUOUS
 10
5.667431681555485
 20
19.84389686937682
 30
0.0
  0
VERTEX
  5
991
  8
7
  6
CONTINUOUS
 10
5.538305156404576
 20
19.16914747814702
 30
0.0
  0
VERTEX
  5
992
  8
7
  6
CONTINUOUS
 10
5.216754789852274
 20
18.49313214059221
 30
0.0
  0
VERTEX
  5
993
  8
7
  6
CONTINUOUS
 10
4.959767685875462
 20
17.94624332818832
 30
0.0
  0
VERTEX
  5
994
  8
7
  6
CONTINUOUS
 10
4.701514635573616
 20
17.43226912023466
 30
0.0
  0
VERTEX
  5
995
  8
7
  6
CONTINUOUS
 10
4.379964269021329
 20
16.91702896595599
 30
0.0
  0
VERTEX
  5
996
  8
7
  6
CONTINUOUS
 10
4.058413902469042
 20
16.40305475800234
 30
0.0
  0
VERTEX
  5
997
  8
7
  6
CONTINUOUS
 10
3.736863535916754
 20
15.85616594559845
 30
0.0
  0
VERTEX
  5
998
  8
7
  6
CONTINUOUS
 10
3.415313169364467
 20
15.34092579131979
 30
0.0
  0
VERTEX
  5
999
  8
7
  6
CONTINUOUS
 10
3.1254114609374
 20
14.76238832079067
 30
0.0
  0
VERTEX
  5
99A
  8
7
  6
CONTINUOUS
 10
2.868424356960588
 20
14.18258490393655
 30
0.0
  0
VERTEX
  5
99B
  8
7
  6
CONTINUOUS
 10
3.736863535916754
 20
13.37870898755584
 30
0.0
  0
VERTEX
  5
99C
  8
7
  6
CONTINUOUS
 10
4.605302714872948
 20
12.57483307117511
 30
0.0
  0
VERTEX
  5
99D
  8
7
  6
CONTINUOUS
 10
5.473741893829114
 20
11.7709571547944
 30
0.0
  0
VERTEX
  5
99E
  8
7
  6
CONTINUOUS
 10
6.375095677235521
 20
10.96708123841368
 30
0.0
  0
VERTEX
  5
99F
  8
7
  6
CONTINUOUS
 10
7.243534856191701
 20
10.16320532203296
 30
0.0
  0
VERTEX
  5
9A0
  8
7
  6
CONTINUOUS
 10
8.111974035147881
 20
9.326414801202013
 30
0.0
  0
VERTEX
  5
9A1
  8
7
  6
CONTINUOUS
 10
8.948764555978826
 20
8.490890226696067
 30
0.0
  0
VERTEX
  5
9A2
  8
7
  6
CONTINUOUS
 10
9.784289130484765
 20
7.654099705865114
 30
0.0
  0
VERTEX
  5
9A3
  8
7
  6
CONTINUOUS
 10
10.55651638874026
 20
6.817309185034169
 30
0.0
  0
VERTEX
  5
9A4
  8
7
  6
CONTINUOUS
 10
11.32874364699576
 20
5.948870006077982
 30
0.0
  0
VERTEX
  5
9A5
  8
7
  6
CONTINUOUS
 10
12.06805630080102
 20
5.048782168996581
 30
0.0
  0
VERTEX
  5
9A6
  8
7
  6
CONTINUOUS
 10
12.74407163835582
 20
4.147428385590175
 30
0.0
  0
VERTEX
  5
9A7
  8
7
  6
CONTINUOUS
 10
13.38717237146039
 20
3.21442594405854
 30
0.0
  0
VERTEX
  5
9A8
  8
7
  6
CONTINUOUS
 10
13.96697578831453
 20
2.249774844401678
 30
0.0
  0
VERTEX
  5
9A9
  8
7
  6
CONTINUOUS
 10
14.51386460071842
 20
1.285123744744816
 30
0.0
  0
VERTEX
  5
9AA
  8
7
  6
CONTINUOUS
 10
14.9632755460966
 20
0.2559093825124918
 30
0.0
  0
VERTEX
  5
9AB
  8
7
  6
CONTINUOUS
 10
15.47851570037527
 20
-0.7733049797198248
 30
0.0
  0
VERTEX
  5
9AC
  8
7
  6
CONTINUOUS
 10
15.89627798762824
 20
-1.835433946402375
 30
0.0
  0
VERTEX
  5
9AD
  8
7
  6
CONTINUOUS
 10
16.25074295863077
 20
-2.929211571210161
 30
0.0
  0
VERTEX
  5
9AE
  8
7
  6
CONTINUOUS
 10
16.53937872073281
 20
-4.054637854143159
 30
0.0
  0
VERTEX
  5
9AF
  8
7
  6
CONTINUOUS
 10
16.82928042915988
 20
-5.181330083401171
 30
0.0
  0
VERTEX
  5
9B0
  8
7
  6
CONTINUOUS
 10
17.05461887501147
 20
-6.306756366334177
 30
0.0
  0
VERTEX
  5
9B1
  8
7
  6
CONTINUOUS
 10
17.27995732086308
 20
-7.465097253717417
 30
0.0
  0
VERTEX
  5
9B2
  8
7
  6
CONTINUOUS
 10
17.50529576671469
 20
-8.590523536650423
 30
0.0
  0
VERTEX
  5
9B3
  8
7
  6
CONTINUOUS
 10
17.76228287069151
 20
-9.748864424033663
 30
0.0
  0
VERTEX
  5
9B4
  8
7
  6
CONTINUOUS
 10
18.05218457911857
 20
-10.9072053114169
 30
0.0
  0
VERTEX
  5
9B5
  8
7
  6
CONTINUOUS
 10
18.37373494567086
 20
-12.06428025247513
 30
0.0
  0
VERTEX
  5
9B6
  8
7
  6
CONTINUOUS
 10
18.72693397034838
 20
-13.22262113985837
 30
0.0
  0
VERTEX
  5
9B7
  8
7
  6
CONTINUOUS
 10
19.17761086205158
 20
-14.34804742279137
 30
0.0
  0
VERTEX
  5
9B8
  8
7
  6
CONTINUOUS
 10
19.72449967445547
 20
-15.47473965204938
 30
0.0
  0
VERTEX
  5
9B9
  8
7
  6
CONTINUOUS
 10
20.36760040756004
 20
-16.56851727685716
 30
0.0
  0
VERTEX
  5
9BA
  8
7
  6
CONTINUOUS
 10
21.10817900769031
 20
-17.66229490166494
 30
0.0
  0
VERTEX
  5
9BB
  8
7
  6
CONTINUOUS
 10
21.4297293742426
 20
-17.950930663767
 30
0.0
  0
VERTEX
  5
9BC
  8
7
  6
CONTINUOUS
 10
21.75127974079488
 20
-18.24083237219406
 30
0.0
  0
VERTEX
  5
9BD
  8
7
  6
CONTINUOUS
 10
22.07283010734717
 20
-18.53073408062112
 30
0.0
  0
VERTEX
  5
9BE
  8
7
  6
CONTINUOUS
 10
22.36273181577423
 20
-18.81936984272318
 30
0.0
  0
VERTEX
  5
9BF
  8
7
  6
CONTINUOUS
 10
22.65136757787629
 20
-19.10927155115024
 30
0.0
  0
VERTEX
  5
9C0
  8
7
  6
CONTINUOUS
 10
22.97291794442857
 20
-19.3991732595773
 30
0.0
  0
VERTEX
  5
9C1
  8
7
  6
CONTINUOUS
 10
23.32738291543109
 20
-19.65616036355413
 30
0.0
  0
VERTEX
  5
9C2
  8
7
  6
CONTINUOUS
 10
23.6805819401086
 20
-19.88149880940573
 30
0.0
  0
VERTEX
  5
9C3
  8
7
  6
CONTINUOUS
 10
23.61728462385815
 20
-20.78158664648713
 30
0.0
  0
VERTEX
  5
9C4
  8
7
  6
CONTINUOUS
 10
23.45650944058201
 20
-21.77915235059422
 30
0.0
  0
VERTEX
  5
9C5
  8
7
  6
CONTINUOUS
 10
23.39194617800656
 20
-22.74380345025109
 30
0.0
  0
VERTEX
  5
9C6
  8
7
  6
CONTINUOUS
 10
23.55272136128269
 20
-23.54894531295681
 30
0.0
  0
VERTEX
  5
9C7
  8
7
  6
CONTINUOUS
 10
23.90592038596021
 20
-23.16283168382907
 30
0.0
  0
VERTEX
  5
9C8
  8
7
  6
CONTINUOUS
 10
24.26038535696274
 20
-22.74380345025109
 30
0.0
  0
VERTEX
  5
9C9
  8
7
  6
CONTINUOUS
 10
24.61358438164024
 20
-22.32604116299812
 30
0.0
  0
VERTEX
  5
9CA
  8
7
  6
CONTINUOUS
 10
24.96804935264277
 20
-21.93992753387037
 30
0.0
  0
VERTEX
  5
9CB
  8
7
  6
CONTINUOUS
 10
25.28959971919505
 20
-21.5221652466174
 30
0.0
  0
VERTEX
  5
9CC
  8
7
  6
CONTINUOUS
 10
25.64279874387257
 20
-21.10440295936443
 30
0.0
  0
VERTEX
  5
9CD
  8
7
  6
CONTINUOUS
 10
25.96434911042485
 20
-20.65372606766122
 30
0.0
  0
VERTEX
  5
9CE
  8
7
  6
CONTINUOUS
 10
26.28716542330215
 20
-20.23469783408324
 30
0.0
  0
VERTEX
  5
9CF
  8
7
  6
CONTINUOUS
 10
26.64036444797966
 20
-19.81693554683027
 30
0.0
  0
VERTEX
  5
9D0
  8
7
  6
CONTINUOUS
 10
26.96191481453195
 20
-19.36625865512707
 30
0.0
  0
VERTEX
  5
9D1
  8
7
  6
CONTINUOUS
 10
27.28346518108423
 20
-18.91684770974887
 30
0.0
  0
VERTEX
  5
9D2
  8
7
  6
CONTINUOUS
 10
27.60501554763652
 20
-18.49781947617089
 30
0.0
  0
VERTEX
  5
9D3
  8
7
  6
CONTINUOUS
 10
27.9265659141888
 20
-18.04840853079269
 30
0.0
  0
VERTEX
  5
9D4
  8
7
  6
CONTINUOUS
 10
28.2493822270661
 20
-17.59773163908949
 30
0.0
  0
VERTEX
  5
9D5
  8
7
  6
CONTINUOUS
 10
28.60258125174362
 20
-17.11540608926106
 30
0.0
  0
VERTEX
  5
9D6
  8
7
  6
CONTINUOUS
 10
28.9241316182959
 20
-16.66472919755785
 30
0.0
  0
VERTEX
  5
9D7
  8
7
  6
CONTINUOUS
 10
29.18111872227272
 20
-16.56851727685716
 30
0.0
  0
VERTEX
  5
9D8
  8
7
  6
CONTINUOUS
 10
29.43937177257456
 20
-16.63308053943262
 30
0.0
  0
VERTEX
  5
9D9
  8
7
  6
CONTINUOUS
 10
29.63179561397593
 20
-16.85715303895922
 30
0.0
  0
VERTEX
  5
9DA
  8
7
  6
CONTINUOUS
 10
29.66471021842617
 20
-17.11540608926106
 30
0.0
  0
VERTEX
  5
9DB
  8
7
  6
CONTINUOUS
 10
29.31024524742364
 20
-17.59773163908949
 30
0.0
  0
VERTEX
  5
9DC
  8
7
  6
CONTINUOUS
 10
28.9241316182959
 20
-18.11170584704314
 30
0.0
  0
VERTEX
  5
9DD
  8
7
  6
CONTINUOUS
 10
28.57093259361839
 20
-18.59529734319658
 30
0.0
  0
VERTEX
  5
9DE
  8
7
  6
CONTINUOUS
 10
28.21646762261587
 20
-19.10927155115024
 30
0.0
  0
VERTEX
  5
9DF
  8
7
  6
CONTINUOUS
 10
27.86326859793836
 20
-19.6245117054289
 30
0.0
  0
VERTEX
  5
9E0
  8
7
  6
CONTINUOUS
 10
27.50880362693583
 20
-20.13848591338256
 30
0.0
  0
VERTEX
  5
9E1
  8
7
  6
CONTINUOUS
 10
27.15560460225832
 20
-20.62081146321099
 30
0.0
  0
VERTEX
  5
9E2
  8
7
  6
CONTINUOUS
 10
26.76949097313058
 20
-21.13605161748965
 30
0.0
  0
VERTEX
  5
9E3
  8
7
  6
CONTINUOUS
 10
26.41502600212806
 20
-21.6500258254433
 30
0.0
  0
VERTEX
  5
9E4
  8
7
  6
CONTINUOUS
 10
26.06182697745054
 20
-22.16526597972197
 30
0.0
  0
VERTEX
  5
9E5
  8
7
  6
CONTINUOUS
 10
25.67571334832279
 20
-22.6475915295504
 30
0.0
  0
VERTEX
  5
9E6
  8
7
  6
CONTINUOUS
 10
25.28959971919505
 20
-23.12991707937883
 30
0.0
  0
VERTEX
  5
9E7
  8
7
  6
CONTINUOUS
 10
24.9034860900673
 20
-23.61224262920726
 30
0.0
  0
VERTEX
  5
9E8
  8
7
  6
CONTINUOUS
 10
24.51737246093955
 20
-24.0958341253607
 30
0.0
  0
VERTEX
  5
9E9
  8
7
  6
CONTINUOUS
 10
24.09961017368659
 20
-24.57815967518913
 30
0.0
  0
VERTEX
  5
9EA
  8
7
  6
CONTINUOUS
 10
23.6805819401086
 20
-25.02883656689234
 30
0.0
  0
VERTEX
  5
9EB
  8
7
  6
CONTINUOUS
 10
23.90592038596021
 20
-25.79979787882282
 30
0.0
  0
VERTEX
  5
9EC
  8
7
  6
CONTINUOUS
 10
24.16417343626205
 20
-26.50746187450285
 30
0.0
  0
VERTEX
  5
9ED
  8
7
  6
CONTINUOUS
 10
24.38824593578865
 20
-27.18347721205766
 30
0.0
  0
VERTEX
  5
9EE
  8
7
  6
CONTINUOUS
 10
24.64649898609048
 20
-27.85949254961247
 30
0.0
  0
VERTEX
  5
9EF
  8
7
  6
CONTINUOUS
 10
24.9034860900673
 20
-28.50259328271705
 30
0.0
  0
VERTEX
  5
9F0
  8
7
  6
CONTINUOUS
 10
25.16047319404414
 20
-29.14569401582162
 30
0.0
  0
VERTEX
  5
9F1
  8
7
  6
CONTINUOUS
 10
25.38581163989573
 20
-29.75714609080097
 30
0.0
  0
VERTEX
  5
9F2
  8
7
  6
CONTINUOUS
 10
25.61115008574733
 20
-30.40024682390554
 30
0.0
  0
VERTEX
  5
9F3
  8
7
  6
CONTINUOUS
 10
26.18968755627646
 20
-30.49645874460623
 30
0.0
  0
VERTEX
  5
9F4
  8
7
  6
CONTINUOUS
 10
26.76949097313058
 20
-30.59267066530691
 30
0.0
  0
VERTEX
  5
9F5
  8
7
  6
CONTINUOUS
 10
27.38094304810993
 20
-30.65723392788237
 30
0.0
  0
VERTEX
  5
9F6
  8
7
  6
CONTINUOUS
 10
28.02404378121449
 20
-30.72179719045783
 30
0.0
  0
VERTEX
  5
9F7
  8
7
  6
CONTINUOUS
 10
28.66714451431907
 20
-30.81800911115851
 30
0.0
  0
VERTEX
  5
9F8
  8
7
  6
CONTINUOUS
 10
29.31024524742364
 20
-30.88257237373398
 30
0.0
  0
VERTEX
  5
9F9
  8
7
  6
CONTINUOUS
 10
29.98626058497845
 20
-30.97878429443465
 30
0.0
  0
VERTEX
  5
9FA
  8
7
  6
CONTINUOUS
 10
30.66100997620826
 20
-31.10791081958558
 30
0.0
  0
VERTEX
  5
9FB
  8
7
  6
CONTINUOUS
 10
31.30537665563783
 20
-31.23703734473649
 30
0.0
  0
VERTEX
  5
9FC
  8
7
  6
CONTINUOUS
 10
31.98012604686763
 20
-31.39781252801264
 30
0.0
  0
VERTEX
  5
9FD
  8
7
  6
CONTINUOUS
 10
32.62322677997221
 20
-31.590236369414
 30
0.0
  0
VERTEX
  5
9FE
  8
7
  6
CONTINUOUS
 10
33.26759345940179
 20
-31.84722347339083
 30
0.0
  0
VERTEX
  5
9FF
  8
7
  6
CONTINUOUS
 10
33.87777958805614
 20
-32.13712518181789
 30
0.0
  0
VERTEX
  5
A00
  8
7
  6
CONTINUOUS
 10
34.45758300491025
 20
-32.45867554837019
 30
0.0
  0
VERTEX
  5
A01
  8
7
  6
CONTINUOUS
 10
35.03612047543938
 20
-32.84478917749793
 30
0.0
  0
VERTEX
  5
A02
  8
7
  6
CONTINUOUS
 10
35.58300928784326
 20
-33.29546606920114
 30
0.0
  0
VERTEX
  5
A03
  8
7
  6
CONTINUOUS
 10
36.41979980867421
 20
-34.29303177330823
 30
0.0
  0
VERTEX
  5
A04
  8
7
  6
CONTINUOUS
 10
37.06290054177878
 20
-35.28933153109031
 30
0.0
  0
VERTEX
  5
A05
  8
7
  6
CONTINUOUS
 10
37.513577433482
 20
-36.31854589332263
 30
0.0
  0
VERTEX
  5
A06
  8
7
  6
CONTINUOUS
 10
37.80221319558405
 20
-37.31611159742973
 30
0.0
  0
VERTEX
  5
A07
  8
7
  6
CONTINUOUS
 10
37.93133972073497
 20
-38.34532595966205
 30
0.0
  0
VERTEX
  5
A08
  8
7
  6
CONTINUOUS
 10
37.96298837886019
 20
-39.37454032189437
 30
0.0
  0
VERTEX
  5
A09
  8
7
  6
CONTINUOUS
 10
37.83512780003427
 20
-40.4050206304517
 30
0.0
  0
VERTEX
  5
A0A
  8
7
  6
CONTINUOUS
 10
37.60978935418267
 20
-41.43423499268402
 30
0.0
  0
VERTEX
  5
A0B
  8
7
  6
CONTINUOUS
 10
37.25532438318015
 20
-42.01277246321313
 30
0.0
  0
VERTEX
  5
A0C
  8
7
  6
CONTINUOUS
 10
36.83756209592718
 20
-42.5280126174918
 30
0.0
  0
VERTEX
  5
A0D
  8
7
  6
CONTINUOUS
 10
36.41979980867421
 20
-43.04198682544546
 30
0.0
  0
VERTEX
  5
A0E
  8
7
  6
CONTINUOUS
 10
36.00077157509624
 20
-43.52431237527388
 30
0.0
  0
VERTEX
  5
A0F
  8
7
  6
CONTINUOUS
 10
35.5184460252678
 20
-43.97498926697709
 30
0.0
  0
VERTEX
  5
A10
  8
7
  6
CONTINUOUS
 10
35.03612047543938
 20
-44.39275155423007
 30
0.0
  0
VERTEX
  5
A11
  8
7
  6
CONTINUOUS
 10
34.52214626748572
 20
-44.77886518335781
 30
0.0
  0
VERTEX
  5
A12
  8
7
  6
CONTINUOUS
 10
34.00690611320705
 20
-45.13333015436034
 30
0.0
  0
VERTEX
  5
A13
  8
7
  6
CONTINUOUS
 10
33.46001730080317
 20
-45.48652917903784
 30
0.0
  0
VERTEX
  5
A14
  8
7
  6
CONTINUOUS
 10
32.91312848839927
 20
-45.7764308874649
 30
0.0
  0
VERTEX
  5
A15
  8
7
  6
CONTINUOUS
 10
32.33459101787015
 20
-46.06633259589196
 30
0.0
  0
VERTEX
  5
A16
  8
7
  6
CONTINUOUS
 10
31.75478760101603
 20
-46.3233196998688
 30
0.0
  0
VERTEX
  5
A17
  8
7
  6
CONTINUOUS
 10
31.17625013048691
 20
-46.58030680384562
 30
0.0
  0
VERTEX
  5
A18
  8
7
  6
CONTINUOUS
 10
30.56479805550756
 20
-46.80564524969723
 30
0.0
  0
VERTEX
  5
A19
  8
7
  6
CONTINUOUS
 10
29.95334598052822
 20
-46.9993350374236
 30
0.0
  0
VERTEX
  5
A1A
  8
7
  6
CONTINUOUS
 10
29.34315985187389
 20
-47.16011022069975
 30
0.0
  0
VERTEX
  5
A1B
  8
7
  6
CONTINUOUS
 10
28.63549585619385
 20
-47.80321095380432
 30
0.0
  0
VERTEX
  5
A1C
  8
7
  6
CONTINUOUS
 10
27.99112917676426
 20
-48.38174842433344
 30
0.0
  0
VERTEX
  5
A1D
  8
7
  6
CONTINUOUS
 10
27.41259170623515
 20
-48.96155184118756
 30
0.0
  0
VERTEX
  5
A1E
  8
7
  6
CONTINUOUS
 10
26.89735155195649
 20
-49.54008931171668
 30
0.0
  0
VERTEX
  5
A1F
  8
7
  6
CONTINUOUS
 10
26.38337734400282
 20
-50.15154138669602
 30
0.0
  0
VERTEX
  5
A20
  8
7
  6
CONTINUOUS
 10
25.9010517941744
 20
-50.76299346167537
 30
0.0
  0
VERTEX
  5
A21
  8
7
  6
CONTINUOUS
 10
25.41872624434597
 20
-51.43774285290517
 30
0.0
  0
VERTEX
  5
A22
  8
7
  6
CONTINUOUS
 10
24.93513474819252
 20
-52.1454068485852
 30
0.0
  0
VERTEX
  5
A23
  8
7
  6
CONTINUOUS
 10
25.32124837732027
 20
-52.53152047771295
 30
0.0
  0
VERTEX
  5
A24
  8
7
  6
CONTINUOUS
 10
25.67571334832279
 20
-52.91763410684069
 30
0.0
  0
VERTEX
  5
A25
  8
7
  6
CONTINUOUS
 10
25.93270045229963
 20
-53.3683109985439
 30
0.0
  0
VERTEX
  5
A26
  8
7
  6
CONTINUOUS
 10
26.12639024002601
 20
-53.8177219439221
 30
0.0
  0
VERTEX
  5
A27
  8
7
  6
CONTINUOUS
 10
26.18968755627646
 20
-54.33296209820076
 30
0.0
  0
VERTEX
  5
A28
  8
7
  6
CONTINUOUS
 10
26.22260216072669
 20
-54.84820225247942
 30
0.0
  0
VERTEX
  5
A29
  8
7
  6
CONTINUOUS
 10
26.12639024002601
 20
-55.36217646043308
 30
0.0
  0
VERTEX
  5
A2A
  8
7
  6
CONTINUOUS
 10
25.93270045229963
 20
-55.90906527283697
 30
0.0
  0
VERTEX
  5
A2B
  8
7
  6
CONTINUOUS
 10
25.70736200644802
 20
-56.26353024383949
 30
0.0
  0
VERTEX
  5
A2C
  8
7
  6
CONTINUOUS
 10
25.48202356059642
 20
-56.68129253109246
 30
0.0
  0
VERTEX
  5
A2D
  8
7
  6
CONTINUOUS
 10
25.22503645661958
 20
-57.19653268537112
 30
0.0
  0
VERTEX
  5
A2E
  8
7
  6
CONTINUOUS
 10
24.9034860900673
 20
-57.74342149777502
 30
0.0
  0
VERTEX
  5
A2F
  8
7
  6
CONTINUOUS
 10
24.58193572351502
 20
-58.35360762642936
 30
0.0
  0
VERTEX
  5
A30
  8
7
  6
CONTINUOUS
 10
24.2274707525125
 20
-58.96505970140871
 30
0.0
  0
VERTEX
  5
A31
  8
7
  6
CONTINUOUS
 10
23.84135712338475
 20
-59.57651177638805
 30
0.0
  0
VERTEX
  5
A32
  8
7
  6
CONTINUOUS
 10
23.42359483613178
 20
-60.21961250949263
 30
0.0
  0
VERTEX
  5
A33
  8
7
  6
CONTINUOUS
 10
22.94126928630335
 20
-60.79814998002175
 30
0.0
  0
VERTEX
  5
A34
  8
7
  6
CONTINUOUS
 10
22.45894373647492
 20
-61.34503879242563
 30
0.0
  0
VERTEX
  5
A35
  8
7
  6
CONTINUOUS
 10
21.91205492407103
 20
-61.86027894670431
 30
0.0
  0
VERTEX
  5
A36
  8
7
  6
CONTINUOUS
 10
21.3322515072169
 20
-62.24639257583205
 30
0.0
  0
VERTEX
  5
A37
  8
7
  6
CONTINUOUS
 10
20.72206537856257
 20
-62.56794294238433
 30
0.0
  0
VERTEX
  5
A38
  8
7
  6
CONTINUOUS
 10
20.04605004100776
 20
-62.79328138823593
 30
0.0
  0
VERTEX
  5
A39
  8
7
  6
CONTINUOUS
 10
19.33838604532772
 20
-62.88949330893663
 30
0.0
  0
VERTEX
  5
A3A
  8
7
  6
CONTINUOUS
 10
18.59907339152246
 20
-62.82493004636116
 30
0.0
  0
VERTEX
  5
A3B
  8
7
  6
CONTINUOUS
 10
18.63072204964769
 20
-62.82493004636116
 30
0.0
  0
SEQEND
  5
A3E
  8
7
  6
CONTINUOUS
  0
ENDSEC
  0
EOF
