  0
SECTION
  2
HEADER
  9
$ACADVER
  1
AC1009
  9
$DWGCODEPAGE
  3
ansi_1252
  9
$INSBASE
 10
-0.0603558447605614
 20
-0.0136897817533798
 30
0.0
  9
$EXTMIN
 10
-0.4764082018116237
 20
-0.0136897817533798
 30
0.0
  9
$EXTMAX
 10
1.771577855984835
 20
2.00651279621079
 30
0.0
  9
$LIMMIN
 10
0.0
 20
0.0
  9
$LIMMAX
 10
85.9813800657174
 20
62.12231005709265
  9
$ORTHOMODE
 70
     0
  9
$REGENMODE
 70
     1
  9
$FILLMODE
 70
     1
  9
$QTEXTMODE
 70
     0
  9
$MIRRTEXT
 70
     1
  9
$DRAGMODE
 70
     2
  9
$LTSCALE
 40
1.0
  9
$OSMODE
 70
    37
  9
$ATTMODE
 70
     1
  9
$TEXTSIZE
 40
0.2
  9
$TRACEWID
 40
0.05
  9
$TEXTSTYLE
  7
STANDARD
  9
$CLAYER
  8
0
  9
$CELTYPE
  6
BYLAYER
  9
$CECOLOR
 62
   256
  9
$DIMSCALE
 40
1.0
  9
$DIMASZ
 40
0.18
  9
$DIMEXO
 40
0.0625
  9
$DIMDLI
 40
0.38
  9
$DIMRND
 40
0.0
  9
$DIMDLE
 40
0.0
  9
$DIMEXE
 40
0.18
  9
$DIMTP
 40
0.0
  9
$DIMTM
 40
0.0
  9
$DIMTXT
 40
0.18
  9
$DIMCEN
 40
0.09
  9
$DIMTSZ
 40
0.0
  9
$DIMTOL
 70
     0
  9
$DIMLIM
 70
     0
  9
$DIMTIH
 70
     1
  9
$DIMTOH
 70
     1
  9
$DIMSE1
 70
     0
  9
$DIMSE2
 70
     0
  9
$DIMTAD
 70
     0
  9
$DIMZIN
 70
     0
  9
$DIMBLK
  1

  9
$DIMASO
 70
     1
  9
$DIMSHO
 70
     0
  9
$DIMPOST
  1

  9
$DIMAPOST
  1

  9
$DIMALT
 70
     0
  9
$DIMALTD
 70
     2
  9
$DIMALTF
 40
25.4
  9
$DIMLFAC
 40
1.0
  9
$DIMTOFL
 70
     0
  9
$DIMTVP
 40
0.0
  9
$DIMTIX
 70
     0
  9
$DIMSOXD
 70
     0
  9
$DIMSAH
 70
     0
  9
$DIMBLK1
  1

  9
$DIMBLK2
  1

  9
$DIMSTYLE
  2
STANDARD
  9
$DIMCLRD
 70
     0
  9
$DIMCLRE
 70
     0
  9
$DIMCLRT
 70
     0
  9
$DIMTFAC
 40
1.0
  9
$DIMGAP
 40
0.09
  9
$LUNITS
 70
     2
  9
$LUPREC
 70
     2
  9
$SKETCHINC
 40
0.1
  9
$FILLETRAD
 40
0.0
  9
$AUNITS
 70
     0
  9
$AUPREC
 70
     0
  9
$MENU
  1
acad
  9
$ELEVATION
 40
0.0
  9
$PELEVATION
 40
0.0
  9
$THICKNESS
 40
0.0
  9
$LIMCHECK
 70
     0
  9
$CHAMFERA
 40
0.0
  9
$CHAMFERB
 40
0.0
  9
$SKPOLY
 70
     0
  9
$TDCREATE
 40
2448285.699395949
  9
$TDUPDATE
 40
2457483.532997685
  9
$TDINDWG
 40
0.0021077083
  9
$TDUSRTIMER
 40
0.0021077083
  9
$USRTIMER
 70
     1
  9
$ANGBASE
 50
0.0
  9
$ANGDIR
 70
     0
  9
$PDMODE
 70
     0
  9
$PDSIZE
 40
0.0
  9
$PLINEWID
 40
0.0
  9
$COORDS
 70
     1
  9
$SPLFRAME
 70
     0
  9
$SPLINETYPE
 70
     6
  9
$SPLINESEGS
 70
     8
  9
$ATTDIA
 70
     0
  9
$ATTREQ
 70
     1
  9
$HANDLING
 70
     1
  9
$HANDSEED
  5
26D
  9
$SURFTAB1
 70
     6
  9
$SURFTAB2
 70
     6
  9
$SURFTYPE
 70
     6
  9
$SURFU
 70
     6
  9
$SURFV
 70
     6
  9
$UCSNAME
  2

  9
$UCSORG
 10
0.0
 20
0.0
 30
0.0
  9
$UCSXDIR
 10
1.0
 20
0.0
 30
0.0
  9
$UCSYDIR
 10
0.0
 20
1.0
 30
0.0
  9
$PUCSNAME
  2

  9
$PUCSORG
 10
0.0
 20
0.0
 30
0.0
  9
$PUCSXDIR
 10
1.0
 20
0.0
 30
0.0
  9
$PUCSYDIR
 10
0.0
 20
1.0
 30
0.0
  9
$USERI1
 70
     0
  9
$USERI2
 70
     0
  9
$USERI3
 70
     0
  9
$USERI4
 70
     0
  9
$USERI5
 70
     0
  9
$USERR1
 40
0.0
  9
$USERR2
 40
0.0
  9
$USERR3
 40
0.0
  9
$USERR4
 40
0.0
  9
$USERR5
 40
0.0
  9
$WORLDVIEW
 70
     1
  9
$SHADEDGE
 70
     3
  9
$SHADEDIF
 70
    70
  9
$TILEMODE
 70
     1
  9
$MAXACTVP
 70
    48
  9
$PLIMCHECK
 70
     0
  9
$PEXTMIN
 10
1.000000000000000E+20
 20
1.000000000000000E+20
 30
1.000000000000000E+20
  9
$PEXTMAX
 10
-1.000000000000000E+20
 20
-1.000000000000000E+20
 30
-1.000000000000000E+20
  9
$PLIMMIN
 10
0.0
 20
0.0
  9
$PLIMMAX
 10
12.0
 20
9.0
  9
$UNITMODE
 70
     0
  9
$VISRETAIN
 70
     0
  9
$PLINEGEN
 70
     0
  9
$PSLTSCALE
 70
     0
  0
ENDSEC
  0
SECTION
  2
TABLES
  0
TABLE
  2
VPORT
 70
     1
  0
VPORT
  2
*ACTIVE
 70
     0
 10
0.0
 20
0.0
 11
1.0
 21
1.0
 12
0.64630071301454
 22
1.219462313390787
 13
0.0
 23
0.0
 14
0.5
 24
0.5
 15
0.0
 25
0.0
 16
0.0
 26
0.0
 36
1.0
 17
0.0
 27
0.0
 37
0.0
 40
2.496883740209254
 41
1.503537735849057
 42
50.0
 43
0.0
 44
0.0
 50
0.0
 51
0.0
 71
     0
 72
   100
 73
     1
 74
     1
 75
     0
 76
     0
 77
     0
 78
     0
  0
ENDTAB
  0
TABLE
  2
LTYPE
 70
     1
  0
LTYPE
  2
CONTINUOUS
 70
     0
  3
Solid line
 72
    65
 73
     0
 40
0.0
  0
ENDTAB
  0
TABLE
  2
LAYER
 70
     1
  0
LAYER
  2
0
 70
     0
 62
     7
  6
CONTINUOUS
  0
ENDTAB
  0
TABLE
  2
STYLE
 70
     1
  0
STYLE
  2
STANDARD
 70
     0
 40
0.0
 41
1.0
 50
0.0
 71
     0
 42
0.2
  3
txt
  4

  0
ENDTAB
  0
TABLE
  2
VIEW
 70
     0
  0
ENDTAB
  0
TABLE
  2
UCS
 70
     0
  0
ENDTAB
  0
TABLE
  2
APPID
 70
     2
  0
APPID
  2
ACAD
 70
     0
  0
APPID
  2
DCO15
 70
     0
  0
ENDTAB
  0
TABLE
  2
DIMSTYLE
 70
     1
  0
DIMSTYLE
  2
STANDARD
 70
     0
  3

  4

  5

  6

  7

 40
1.0
 41
0.18
 42
0.0625
 43
0.38
 44
0.18
 45
0.0
 46
0.0
 47
0.0
 48
0.0
140
0.18
141
0.09
142
0.0
143
25.4
144
1.0
145
0.0
146
1.0
147
0.09
 71
     0
 72
     0
 73
     1
 74
     1
 75
     0
 76
     0
 77
     0
 78
     0
170
     0
171
     2
172
     0
173
     0
174
     0
175
     0
176
     0
177
     0
178
     0
  0
ENDTAB
  0
ENDSEC
  0
SECTION
  2
BLOCKS
  0
BLOCK
  8
0
  2
$MODEL_SPACE
 70
     0
 10
0.0
 20
0.0
 30
0.0
  3
$MODEL_SPACE
  1

  0
ENDBLK
  5
21
  8
0
  0
BLOCK
 67
     1
  8
0
  2
$PAPER_SPACE
 70
     0
 10
0.0
 20
0.0
 30
0.0
  3
$PAPER_SPACE
  1

  0
ENDBLK
  5
1F
 67
     1
  8
0
  0
ENDSEC
  0
SECTION
  2
ENTITIES
  0
POLYLINE
  5
24
  8
0
 66
     1
 10
0.0
 20
0.0
 30
0.0
  0
VERTEX
  5
1A7
  8
0
 10
1.213011472022782
 20
0.8609389130492788
 30
0.0
  0
VERTEX
  5
1A8
  8
0
 10
1.47628000417791
 20
0.8965157417188907
 30
0.0
  0
VERTEX
  5
1A9
  8
0
 10
1.533202930049288
 20
0.9249772046545806
 30
0.0
  0
VERTEX
  5
1AA
  8
0
 10
1.526087564315368
 20
0.9392079361224246
 30
0.0
  0
VERTEX
  5
1AB
  8
0
 10
1.447818541242221
 20
0.9534386675902704
 30
0.0
  0
VERTEX
  5
1AC
  8
0
 10
1.18455000908709
 20
0.9107464731867365
 30
0.0
  0
SEQEND
  5
247
  8
0
  0
POLYLINE
  5
2C
  8
0
 66
     1
 10
0.0
 20
0.0
 30
0.0
  0
VERTEX
  5
1AD
  8
0
 10
1.156088546151402
 20
0.832477450113589
 30
0.0
  0
VERTEX
  5
1AE
  8
0
 10
1.070704157344332
 20
0.7399776955725992
 30
0.0
  0
VERTEX
  5
1AF
  8
0
 10
1.028011962940798
 20
0.63324720956376
 30
0.0
  0
VERTEX
  5
1B0
  8
0
 10
0.9995505000051086
 20
0.5976703808941481
 30
0.0
  0
VERTEX
  5
1B1
  8
0
 10
0.9853197685372646
 20
0.6403625752976838
 30
0.0
  0
VERTEX
  5
1B2
  8
0
 10
1.056473425876487
 20
0.8111313529118211
 30
0.0
  0
VERTEX
  5
1B3
  8
0
 10
1.127627083215712
 20
0.8751696445171229
 30
0.0
  0
SEQEND
  5
248
  8
0
  0
POLYLINE
  5
35
  8
0
 66
     1
 10
0.0
 20
0.0
 30
0.0
  0
VERTEX
  5
1B4
  8
0
 10
0.764743430785666
 20
0.3272864830050954
 30
0.0
  0
VERTEX
  5
1B5
  8
0
 10
0.8928200139962712
 20
0.4553630662156989
 30
0.0
  0
VERTEX
  5
1B6
  8
0
 10
0.9212814769319628
 20
0.5265167235549244
 30
0.0
  0
VERTEX
  5
1B7
  8
0
 10
0.9070507454641152
 20
0.5834396494263041
 30
0.0
  0
SEQEND
  5
249
  8
0
  0
POLYLINE
  5
3B
  8
0
 66
     1
 10
0.0
 20
0.0
 30
0.0
  0
VERTEX
  5
1B8
  8
0
 10
0.27378319514502
 20
0.6119011123619922
 30
0.0
  0
VERTEX
  5
1B9
  8
0
 10
0.3733983154199354
 20
0.3913247746103972
 30
0.0
  0
VERTEX
  5
1BA
  8
0
 10
0.4445519727591574
 20
0.3415172144729413
 30
0.0
  0
VERTEX
  5
1BB
  8
0
 10
0.4943595328966151
 20
0.3201711172711716
 30
0.0
  0
VERTEX
  5
1BC
  8
0
 10
0.5370517273001489
 20
0.2632481913997937
 30
0.0
  0
VERTEX
  5
1BD
  8
0
 10
0.7220512363821339
 20
0.2632481913997937
 30
0.0
  0
SEQEND
  5
24A
  8
0
  0
POLYLINE
  5
43
  8
0
 66
     1
 10
0.0
 20
0.0
 30
0.0
  0
VERTEX
  5
1BE
  8
0
 10
0.5726285559697608
 20
0.2276713627301818
 30
0.0
  0
VERTEX
  5
1BF
  8
0
 10
0.4943595328966151
 20
0.2134406312623378
 30
0.0
  0
VERTEX
  5
1C0
  8
0
 10
0.4018597783556235
 20
0.2988250200694074
 30
0.0
  0
VERTEX
  5
1C1
  8
0
 10
0.3164753895485539
 20
0.3130557515372514
 30
0.0
  0
VERTEX
  5
1C2
  8
0
 10
0.1599373434022606
 20
0.4269016032800108
 30
0.0
  0
VERTEX
  5
1C3
  8
0
 10
-0.0108314342118785
 20
0.398440140344321
 30
0.0
  0
VERTEX
  5
1C4
  8
0
 10
0.0105146629898893
 20
0.4624784319496227
 30
0.0
  0
SEQEND
  5
24B
  8
0
  0
POLYLINE
  5
4C
  8
0
 66
     1
 10
0.0
 20
0.0
 30
0.0
  0
VERTEX
  5
1C5
  8
0
 10
0.6437822133089863
 20
0.4340169690139311
 30
0.0
  0
VERTEX
  5
1C6
  8
0
 10
0.4943595328966151
 20
0.4553630662156989
 30
0.0
  0
SEQEND
  5
24C
  8
0
  0
POLYLINE
  5
50
  8
0
 66
     1
 10
0.0
 20
0.0
 30
0.0
  0
VERTEX
  5
1C7
  8
0
 10
0.7291666021160541
 20
0.5407474550227702
 30
0.0
  0
VERTEX
  5
1C8
  8
0
 10
0.8003202594552796
 20
0.5051706263531566
 30
0.0
  0
SEQEND
  5
24D
  8
0
  0
POLYLINE
  5
54
  8
0
 66
     1
 10
0.0
 20
0.0
 30
0.0
  0
VERTEX
  5
1C9
  8
0
 10
0.7362819678499779
 20
0.6047857466280719
 30
0.0
  0
VERTEX
  5
1CA
  8
0
 10
0.8287817223909677
 20
0.619016478095916
 30
0.0
  0
SEQEND
  5
24E
  8
0
  0
POLYLINE
  5
58
  8
0
 66
     1
 10
0.0
 20
0.0
 30
0.0
  0
VERTEX
  5
1CB
  8
0
 10
0.764743430785666
 20
0.7257469641047516
 30
0.0
  0
VERTEX
  5
1CC
  8
0
 10
0.707820504914288
 20
0.4340169690139311
 30
0.0
  0
VERTEX
  5
1CD
  8
0
 10
0.693589773446444
 20
0.4269016032800108
 30
0.0
  0
SEQEND
  5
24F
  8
0
  0
POLYLINE
  5
5D
  8
0
 66
     1
 10
0.0
 20
0.0
 30
0.0
  0
VERTEX
  5
1CE
  8
0
 10
1.042242694408642
 20
0.9961308619938061
 30
0.0
  0
VERTEX
  5
1CF
  8
0
 10
1.0920502545461
 20
0.8965157417188907
 30
0.0
  0
SEQEND
  5
250
  8
0
  0
POLYLINE
  5
61
  8
0
 66
     1
 10
0.0
 20
0.0
 30
0.0
  0
VERTEX
  5
1D0
  8
0
 10
0.9426275741337271
 20
1.102861348002642
 30
0.0
  0
VERTEX
  5
1D1
  8
0
 10
0.9497429398676509
 20
1.138438176672254
 30
0.0
  0
VERTEX
  5
1D2
  8
0
 10
0.9568583056015729
 20
1.166899639607943
 30
0.0
  0
VERTEX
  5
1D3
  8
0
 10
1.03512732867472
 20
1.195361102543631
 30
0.0
  0
SEQEND
  5
251
  8
0
  0
POLYLINE
  5
67
  8
0
 66
     1
 10
0.0
 20
0.0
 30
0.0
  0
VERTEX
  5
1D4
  8
0
 10
1.006665865739031
 20
1.003246227727726
 30
0.0
  0
VERTEX
  5
1D5
  8
0
 10
1.013781231472953
 20
0.9320925703885043
 30
0.0
  0
VERTEX
  5
1D6
  8
0
 10
0.8501278195927373
 20
0.4838245291513887
 30
0.0
  0
VERTEX
  5
1D7
  8
0
 10
0.8003202594552796
 20
0.405555506078243
 30
0.0
  0
SEQEND
  5
252
  8
0
  0
POLYLINE
  5
6D
  8
0
 66
     1
 10
0.0
 20
0.0
 30
0.0
  0
VERTEX
  5
1D8
  8
0
 10
0.9426275741337271
 20
1.102861348002642
 30
0.0
  0
VERTEX
  5
1D9
  8
0
 10
1.134742448949634
 20
1.216707199745401
 30
0.0
  0
VERTEX
  5
1DA
  8
0
 10
1.134742448949634
 20
1.245168662681089
 30
0.0
  0
VERTEX
  5
1DB
  8
0
 10
1.106280986013944
 20
1.280745491350703
 30
0.0
  0
VERTEX
  5
1DC
  8
0
 10
1.042242694408642
 20
1.266514759882857
 30
0.0
  0
VERTEX
  5
1DD
  8
0
 10
1.020896597206875
 20
1.230937931213245
 30
0.0
  0
VERTEX
  5
1DE
  8
0
 10
1.333972689499461
 20
0.6047857466280719
 30
0.0
  0
VERTEX
  5
1DF
  8
0
 10
1.433587809774377
 20
0.3913247746103972
 30
0.0
  0
VERTEX
  5
1E0
  8
0
 10
1.447818541242221
 20
0.3344018487390192
 30
0.0
  0
VERTEX
  5
1E1
  8
0
 10
1.390895615370843
 20
0.3557479459407853
 30
0.0
  0
VERTEX
  5
1E2
  8
0
 10
1.028011962940798
 20
1.102861348002642
 30
0.0
  0
VERTEX
  5
1E3
  8
0
 10
1.113396351747868
 20
1.159784273874021
 30
0.0
  0
VERTEX
  5
1E4
  8
0
 10
1.213011472022782
 20
1.174015005341867
 30
0.0
  0
VERTEX
  5
1E5
  8
0
 10
1.205896106288858
 20
1.01036159346165
 30
0.0
  0
VERTEX
  5
1E6
  8
0
 10
1.141857814683556
 20
0.9961308619938061
 30
0.0
  0
SEQEND
  5
253
  8
0
  0
POLYLINE
  5
7E
  8
0
 66
     1
 10
0.0
 20
0.0
 30
0.0
  0
VERTEX
  5
1E7
  8
0
 10
0.914166111198039
 20
1.487091097634452
 30
0.0
  0
VERTEX
  5
1E8
  8
0
 10
0.8714739167945051
 20
1.444398903230918
 30
0.0
  0
VERTEX
  5
1E9
  8
0
 10
0.8501278195927373
 20
1.465745000432686
 30
0.0
  0
VERTEX
  5
1EA
  8
0
 10
0.8714739167945051
 20
1.544014023505833
 30
0.0
  0
VERTEX
  5
1EB
  8
0
 10
0.8999353797301932
 20
1.551129389239754
 30
0.0
  0
VERTEX
  5
1EC
  8
0
 10
0.9283968426658831
 20
1.465745000432686
 30
0.0
  0
VERTEX
  5
1ED
  8
0
 10
0.9497429398676509
 20
1.430168171763074
 30
0.0
  0
VERTEX
  5
1EE
  8
0
 10
0.9355122083998069
 20
1.323437685754237
 30
0.0
  0
VERTEX
  5
1EF
  8
0
 10
0.9639736713354949
 20
1.230937931213245
 30
0.0
  0
VERTEX
  5
1F0
  8
0
 10
0.8785892825284254
 20
1.216707199745401
 30
0.0
  0
SEQEND
  5
254
  8
0
  0
POLYLINE
  5
8A
  8
0
 66
     1
 10
0.0
 20
0.0
 30
0.0
  0
VERTEX
  5
1F1
  8
0
 10
0.0816683203291149
 20
1.216707199745401
 30
0.0
  0
VERTEX
  5
1F2
  8
0
 10
0.2951292923467861
 20
1.181130371075787
 30
0.0
  0
VERTEX
  5
1F3
  8
0
 10
0.3164753895485539
 20
1.159784273874021
 30
0.0
  0
VERTEX
  5
1F4
  8
0
 10
0.7433973335839017
 20
1.060169153599108
 30
0.0
  0
VERTEX
  5
1F5
  8
0
 10
0.9355122083998069
 20
1.088630616534798
 30
0.0
  0
SEQEND
  5
255
  8
0
  0
POLYLINE
  5
91
  8
0
 66
     1
 10
0.0
 20
0.0
 30
0.0
  0
VERTEX
  5
1F6
  8
0
 10
0.764743430785666
 20
1.067284519333028
 30
0.0
  0
VERTEX
  5
1F7
  8
0
 10
0.8003202594552796
 20
0.9747847647920382
 30
0.0
  0
VERTEX
  5
1F8
  8
0
 10
0.7860895279874356
 20
0.7613237927743635
 30
0.0
  0
VERTEX
  5
1F9
  8
0
 10
0.8358970881248915
 20
0.6688240382333737
 30
0.0
  0
VERTEX
  5
1FA
  8
0
 10
0.7932048937213594
 20
0.4980552606192328
 30
0.0
  0
VERTEX
  5
1FB
  8
0
 10
0.7576280650517457
 20
0.405555506078243
 30
0.0
  0
SEQEND
  5
256
  8
0
  0
POLYLINE
  5
99
  8
0
 66
     1
 10
0.0
 20
0.0
 30
0.0
  0
VERTEX
  5
1FC
  8
0
 10
0.3093600238146301
 20
1.472860366166608
 30
0.0
  0
VERTEX
  5
1FD
  8
0
 10
0.4232058755573895
 20
1.309206954286391
 30
0.0
  0
VERTEX
  5
1FE
  8
0
 10
0.5370517273001489
 20
1.273630125616779
 30
0.0
  0
VERTEX
  5
1FF
  8
0
 10
0.7220512363821339
 20
1.259399394148935
 30
0.0
  0
VERTEX
  5
200
  8
0
 10
0.8643585510605813
 20
1.302091588552471
 30
0.0
  0
VERTEX
  5
201
  8
0
 10
0.8785892825284254
 20
1.280745491350703
 30
0.0
  0
SEQEND
  5
257
  8
0
  0
POLYLINE
  5
A1
  8
0
 66
     1
 10
0.0
 20
0.0
 30
0.0
  0
VERTEX
  5
202
  8
0
 10
0.4658980699609252
 20
1.636513778046825
 30
0.0
  0
VERTEX
  5
203
  8
0
 10
0.4587827042270014
 20
1.558244754973678
 30
0.0
  0
VERTEX
  5
204
  8
0
 10
0.5157056300983829
 20
1.42305280602915
 30
0.0
  0
VERTEX
  5
205
  8
0
 10
0.7932048937213594
 20
1.359014514423849
 30
0.0
  0
VERTEX
  5
206
  8
0
 10
0.9355122083998069
 20
1.344783782956005
 30
0.0
  0
SEQEND
  5
258
  8
0
  0
POLYLINE
  5
A8
  8
0
 66
     1
 10
0.0
 20
0.0
 30
0.0
  0
VERTEX
  5
207
  8
0
 10
0.3093600238146301
 20
0.4411323347478548
 30
0.0
  0
VERTEX
  5
208
  8
0
 10
0.259552463677176
 20
0.5407474550227702
 30
0.0
  0
SEQEND
  5
259
  8
0
  0
POLYLINE
  5
AC
  8
0
 66
     1
 10
0.0
 20
0.0
 30
0.0
  0
VERTEX
  5
209
  8
0
 10
0.0745529545951911
 20
0.3699786774086293
 30
0.0
  0
VERTEX
  5
20A
  8
0
 10
0.1883988063379505
 20
0.405555506078243
 30
0.0
  0
SEQEND
  5
25A
  8
0
  0
POLYLINE
  5
B0
  8
0
 66
     1
 10
0.0
 20
0.0
 30
0.0
  0
VERTEX
  5
20B
  8
0
 10
0.0033992972559655
 20
0.2845942886015616
 30
0.0
  0
VERTEX
  5
20C
  8
0
 10
0.2382063664754082
 20
0.3628633116747091
 30
0.0
  0
SEQEND
  5
25B
  8
0
  0
POLYLINE
  5
B4
  8
0
 66
     1
 10
0.0
 20
0.0
 30
0.0
  0
VERTEX
  5
20D
  8
0
 10
-0.0179467999457987
 20
0.3059403858033276
 30
0.0
  0
VERTEX
  5
20E
  8
0
 10
0.2168602692736403
 20
0.3770940431425531
 30
0.0
  0
SEQEND
  5
25C
  8
0
  0
POLYLINE
  5
B8
  8
0
 66
     1
 10
0.0
 20
0.0
 30
0.0
  0
VERTEX
  5
20F
  8
0
 10
0.3805136811538556
 20
0.562093552224538
 30
0.0
  0
VERTEX
  5
210
  8
0
 10
0.4445519727591574
 20
0.419786237546087
 30
0.0
  0
VERTEX
  5
211
  8
0
 10
0.4303212412913133
 20
0.3486325802068633
 30
0.0
  0
SEQEND
  5
25D
  8
0
  0
POLYLINE
  5
BD
  8
0
 66
     1
 10
0.0
 20
0.0
 30
0.0
  0
VERTEX
  5
212
  8
0
 10
0.4160905098234693
 20
0.5407474550227702
 30
0.0
  0
VERTEX
  5
213
  8
0
 10
0.4516673384930812
 20
0.562093552224538
 30
0.0
  0
SEQEND
  5
25E
  8
0
  0
POLYLINE
  5
C1
  8
0
 66
     1
 10
0.0
 20
0.0
 30
0.0
  0
VERTEX
  5
214
  8
0
 10
0.3164753895485539
 20
0.5265167235549244
 30
0.0
  0
VERTEX
  5
215
  8
0
 10
0.3876290468877794
 20
0.5692089179584583
 30
0.0
  0
VERTEX
  5
216
  8
0
 10
0.480128801428771
 20
0.6759394039672939
 30
0.0
  0
VERTEX
  5
217
  8
0
 10
0.5228209958323049
 20
0.8965157417188907
 30
0.0
  0
SEQEND
  5
25F
  8
0
  0
POLYLINE
  5
C7
  8
0
 66
     1
 10
0.0
 20
0.0
 30
0.0
  0
VERTEX
  5
218
  8
0
 10
0.1599373434022606
 20
0.6119011123619922
 30
0.0
  0
VERTEX
  5
219
  8
0
 10
0.259552463677176
 20
0.4411323347478548
 30
0.0
  0
SEQEND
  5
260
  8
0
  0
POLYLINE
  5
CB
  8
0
 66
     1
 10
0.0
 20
0.0
 30
0.0
  0
VERTEX
  5
21A
  8
0
 10
-0.3808304523758448
 20
0.7542084270404432
 30
0.0
  0
VERTEX
  5
21B
  8
0
 10
-0.160254114624248
 20
0.832477450113589
 30
0.0
  0
VERTEX
  5
21C
  8
0
 10
-0.0037160684779547
 20
0.8467081815814348
 30
0.0
  0
VERTEX
  5
21D
  8
0
 10
0.046091491659503
 20
0.825362084379667
 30
0.0
  0
VERTEX
  5
21E
  8
0
 10
0.4658980699609252
 20
0.8111313529118211
 30
0.0
  0
VERTEX
  5
21F
  8
0
 10
0.5797439217036846
 20
0.7897852557100533
 30
0.0
  0
SEQEND
  5
261
  8
0
  0
POLYLINE
  5
D3
  8
0
 66
     1
 10
0.0
 20
0.0
 30
0.0
  0
VERTEX
  5
220
  8
0
 10
0.3022446580807099
 20
1.174015005341867
 30
0.0
  0
VERTEX
  5
221
  8
0
 10
0.4018597783556235
 20
1.337668417222083
 30
0.0
  0
SEQEND
  5
262
  8
0
  0
POLYLINE
  5
D7
  8
0
 66
     1
 10
0.0
 20
0.0
 30
0.0
  0
VERTEX
  5
222
  8
0
 10
0.0745529545951911
 20
0.9961308619938061
 30
0.0
  0
VERTEX
  5
223
  8
0
 10
0.0318607601916572
 20
1.117092079470486
 30
0.0
  0
VERTEX
  5
224
  8
0
 10
0.046091491659503
 20
1.373245245891693
 30
0.0
  0
VERTEX
  5
225
  8
0
 10
0.0745529545951911
 20
1.41593744029523
 30
0.0
  0
SEQEND
  5
263
  8
0
  0
POLYLINE
  5
DD
  8
0
 66
     1
 10
0.0
 20
0.0
 30
0.0
  0
VERTEX
  5
226
  8
0
 10
0.3378214867503218
 20
1.771705726991352
 30
0.0
  0
VERTEX
  5
227
  8
0
 10
0.4516673384930812
 20
1.657859875248593
 30
0.0
  0
SEQEND
  5
264
  8
0
  0
POLYLINE
  5
E1
  8
0
 66
     1
 10
0.0
 20
0.0
 30
0.0
  0
VERTEX
  5
228
  8
0
 10
0.6224361161072185
 20
1.864205481532342
 30
0.0
  0
VERTEX
  5
229
  8
0
 10
0.5939746531715286
 20
1.764590361257429
 30
0.0
  0
VERTEX
  5
22A
  8
0
 10
0.480128801428771
 20
1.679205972450357
 30
0.0
  0
SEQEND
  5
265
  8
0
  0
POLYLINE
  5
E6
  8
0
 66
     1
 10
0.0
 20
0.0
 30
0.0
  0
VERTEX
  5
22B
  8
0
 10
0.6366668475750625
 20
1.9140130416698
 30
0.0
  0
VERTEX
  5
22C
  8
0
 10
0.6295514818411423
 20
1.942474504605488
 30
0.0
  0
VERTEX
  5
22D
  8
0
 10
0.5299363615662269
 20
2.00651279621079
 30
0.0
  0
VERTEX
  5
22E
  8
0
 10
0.4089751440895455
 20
1.992282064742946
 30
0.0
  0
VERTEX
  5
22F
  8
0
 10
0.3805136811538556
 20
1.949589870339412
 30
0.0
  0
VERTEX
  5
230
  8
0
 10
0.3449368524842438
 20
1.778821092725273
 30
0.0
  0
VERTEX
  5
231
  8
0
 10
0.2168602692736403
 20
1.664975240982513
 30
0.0
  0
VERTEX
  5
232
  8
0
 10
0.0389761259255792
 20
1.359014514423849
 30
0.0
  0
SEQEND
  5
266
  8
0
  0
POLYLINE
  5
F0
  8
0
 66
     1
 10
0.0
 20
0.0
 30
0.0
  0
VERTEX
  5
233
  8
0
 10
0.5797439217036846
 20
1.88555157873411
 30
0.0
  0
VERTEX
  5
234
  8
0
 10
0.3947444126216997
 20
1.757474995523507
 30
0.0
  0
SEQEND
  5
267
  8
0
  0
POLYLINE
  5
F4
  8
0
 66
     1
 10
0.0
 20
0.0
 30
0.0
  0
VERTEX
  5
235
  8
0
 10
-0.0535236286154124
 20
0.3913247746103972
 30
0.0
  0
VERTEX
  5
236
  8
0
 10
0.0105146629898893
 20
0.6474779410316058
 30
0.0
  0
VERTEX
  5
237
  8
0
 10
0.0176300287238131
 20
0.7684391585082873
 30
0.0
  0
SEQEND
  5
268
  8
0
  0
POLYLINE
  5
F9
  8
0
 66
     1
 10
0.0
 20
0.0
 30
0.0
  0
VERTEX
  5
238
  8
0
 10
-0.0677543600832564
 20
0.5122859920870804
 30
0.0
  0
VERTEX
  5
239
  8
0
 10
0.131475880466569
 20
0.5194013578210006
 30
0.0
  0
SEQEND
  5
269
  8
0
  0
POLYLINE
  5
FD
  8
0
 66
     1
 10
0.0
 20
0.0
 30
0.0
  0
VERTEX
  5
23A
  8
0
 10
-0.1246772859546379
 20
0.5407474550227702
 30
0.0
  0
VERTEX
  5
23B
  8
0
 10
-0.0108314342118785
 20
0.5763242836923821
 30
0.0
  0
SEQEND
  5
26A
  8
0
  0
POLYLINE
  5
101
  8
0
 66
     1
 10
0.0
 20
0.0
 30
0.0
  0
VERTEX
  5
23C
  8
0
 10
-0.1389080174224819
 20
0.9178618389206568
 30
0.0
  0
VERTEX
  5
23D
  8
0
 10
-0.0606389943493362
 20
1.03882305639734
 30
0.0
  0
VERTEX
  5
23E
  8
0
 10
0.0887836860630369
 20
0.9961308619938061
 30
0.0
  0
VERTEX
  5
23F
  8
0
 10
0.1528219776683386
 20
0.9605540333241942
 30
0.0
  0
VERTEX
  5
240
  8
0
 10
0.6295514818411423
 20
0.8822850102510467
 30
0.0
  0
VERTEX
  5
241
  8
0
 10
0.5655131902358406
 20
0.7684391585082873
 30
0.0
  0
VERTEX
  5
242
  8
0
 10
0.4730134356948472
 20
0.4838245291513887
 30
0.0
  0
SEQEND
  5
26B
  8
0
  0
POLYLINE
  5
10A
  8
0
 66
     1
 10
0.0
 20
0.0
 30
0.0
  0
VERTEX
  5
243
  8
0
 10
-0.373715086641921
 20
0.7826698899761331
 30
0.0
  0
VERTEX
  5
244
  8
0
 10
-0.2242924062295497
 20
0.9036311074528127
 30
0.0
  0
VERTEX
  5
245
  8
0
 10
-0.1033311887528701
 20
0.9107464731867365
 30
0.0
  0
VERTEX
  5
246
  8
0
 10
0.1883988063379505
 20
0.832477450113589
 30
0.0
  0
SEQEND
  5
26C
  8
0
  0
LINE
  5
110
  8
0
 10
0.0048656086895456
 20
0.6780621334714683
 30
0.0
 11
0.1670971231536811
 21
0.6144391585082873
 31
0.0
  0
LINE
  5
111
  8
0
 10
0.1890203007839695
 20
0.7134082306732354
 30
0.0
 11
0.2810976468311814
 21
0.6073699390679339
 31
0.0
  0
LINE
  5
112
  8
0
 10
0.7277823910483061
 20
0.2680474059309672
 30
0.0
 11
0.7672441107828263
 21
0.3316703808941481
 31
0.0
  0
ARC
  5
113
  8
0
 10
1.416170168639361
 20
0.3740856975362687
 30
0.0
 40
0.2685317345680315
 50
122.6040318579306
 51
109.8905571942444
  0
ARC
  5
114
  8
0
 10
1.416170168639361
 20
0.3811549169766222
 30
0.0
 40
0.3554076873454736
 50
121.2082762610131
 51
112.2493030257168
  0
ARC
  5
115
  8
0
 10
1.416170168639361
 20
0.3811549169766222
 30
0.0
 40
0.0754834363352899
 50
139.0372564886264
 51
98.81413528117486
  0
ARC
  5
116
  8
0
 10
-0.0603558447605614
 20
0.4023625752976825
 30
0.0
 40
0.4160523570510622
 50
0.9735696074366136
 51
346.5847356746742
  0
ARC
  5
117
  8
0
 10
-0.055971209234503
 20
0.4094317947380359
 30
0.0
 40
0.3201798336876352
 50
10.17359918445297
 51
348.155242767729
  0
ARC
  5
118
  8
0
 10
-0.0515865737084464
 20
0.4094317947380359
 30
0.0
 40
0.095591233718744
 50
74.02537747424995
 51
295.5062845406642
  0
ENDSEC
  0
EOF
