  0
SECTION
  2
HEADER
  9
$ACADVER
  1
AC1009
  9
$DWGCODEPAGE
  3
ansi_1252
  9
$INSBASE
 10
0.0
 20
0.0
 30
0.0
  9
$EXTMIN
 10
-0.6907336556944301
 20
-0.3477316607578587
 30
-0.0009764879953309
  9
$EXTMAX
 10
0.0813604827055769
 20
0.3352513042456167
 30
0.8144531632010512
  9
$LIMMIN
 10
0.0
 20
0.0
  9
$LIMMAX
 10
480.0
 20
360.0
  9
$ORTHOMODE
 70
     0
  9
$REGENMODE
 70
     1
  9
$FILLMODE
 70
     0
  9
$QTEXTMODE
 70
     0
  9
$MIRRTEXT
 70
     1
  9
$DRAGMODE
 70
     2
  9
$LTSCALE
 40
2.0
  9
$OSMODE
 70
    37
  9
$ATTMODE
 70
     1
  9
$TEXTSIZE
 40
1.0
  9
$TRACEWID
 40
0.05
  9
$TEXTSTYLE
  7
ST
  9
$CLAYER
  8
0
  9
$CELTYPE
  6
BYLAYER
  9
$CECOLOR
 62
   256
  9
$DIMSCALE
 40
1.0
  9
$DIMASZ
 40
0.125
  9
$DIMEXO
 40
0.0625
  9
$DIMDLI
 40
0.3799999999999999
  9
$DIMRND
 40
0.0
  9
$DIMDLE
 40
0.0
  9
$DIMEXE
 40
0.18
  9
$DIMTP
 40
0.0
  9
$DIMTM
 40
0.0
  9
$DIMTXT
 40
0.11
  9
$DIMCEN
 40
0.09
  9
$DIMTSZ
 40
0.0
  9
$DIMTOL
 70
     0
  9
$DIMLIM
 70
     0
  9
$DIMTIH
 70
     0
  9
$DIMTOH
 70
     0
  9
$DIMSE1
 70
     0
  9
$DIMSE2
 70
     0
  9
$DIMTAD
 70
     1
  9
$DIMZIN
 70
     1
  9
$DIMBLK
  1

  9
$DIMASO
 70
     0
  9
$DIMSHO
 70
     0
  9
$DIMPOST
  1

  9
$DIMAPOST
  1

  9
$DIMALT
 70
     0
  9
$DIMALTD
 70
     2
  9
$DIMALTF
 40
25.4
  9
$DIMLFAC
 40
1.0
  9
$DIMTOFL
 70
     0
  9
$DIMTVP
 40
0.0
  9
$DIMTIX
 70
     0
  9
$DIMSOXD
 70
     0
  9
$DIMSAH
 70
     0
  9
$DIMBLK1
  1

  9
$DIMBLK2
  1

  9
$DIMSTYLE
  2
STANDARD
  9
$DIMCLRD
 70
     0
  9
$DIMCLRE
 70
     0
  9
$DIMCLRT
 70
     0
  9
$DIMTFAC
 40
1.0
  9
$DIMGAP
 40
0.09
  9
$LUNITS
 70
     2
  9
$LUPREC
 70
     4
  9
$SKETCHINC
 40
0.1
  9
$FILLETRAD
 40
0.0
  9
$AUNITS
 70
     0
  9
$AUPREC
 70
     4
  9
$MENU
  1
acad
  9
$ELEVATION
 40
0.0
  9
$PELEVATION
 40
0.0
  9
$THICKNESS
 40
0.0
  9
$LIMCHECK
 70
     0
  9
$CHAMFERA
 40
0.0
  9
$CHAMFERB
 40
0.0
  9
$SKPOLY
 70
     0
  9
$TDCREATE
 40
2449737.473306366
  9
$TDUPDATE
 40
2457521.808935185
  9
$TDINDWG
 40
0.0037640509
  9
$TDUSRTIMER
 40
0.0037640509
  9
$USRTIMER
 70
     1
  9
$ANGBASE
 50
0.0
  9
$ANGDIR
 70
     0
  9
$PDMODE
 70
     0
  9
$PDSIZE
 40
0.0
  9
$PLINEWID
 40
0.0
  9
$COORDS
 70
     1
  9
$SPLFRAME
 70
     0
  9
$SPLINETYPE
 70
     6
  9
$SPLINESEGS
 70
     8
  9
$ATTDIA
 70
     0
  9
$ATTREQ
 70
     1
  9
$HANDLING
 70
     1
  9
$HANDSEED
  5
1071
  9
$SURFTAB1
 70
     6
  9
$SURFTAB2
 70
     6
  9
$SURFTYPE
 70
     6
  9
$SURFU
 70
     6
  9
$SURFV
 70
     6
  9
$UCSNAME
  2

  9
$UCSORG
 10
0.0
 20
0.0
 30
0.0
  9
$UCSXDIR
 10
1.0
 20
0.0
 30
0.0
  9
$UCSYDIR
 10
0.0
 20
1.0
 30
0.0
  9
$PUCSNAME
  2

  9
$PUCSORG
 10
0.0
 20
0.0
 30
0.0
  9
$PUCSXDIR
 10
1.0
 20
0.0
 30
0.0
  9
$PUCSYDIR
 10
0.0
 20
1.0
 30
0.0
  9
$USERI1
 70
     0
  9
$USERI2
 70
     0
  9
$USERI3
 70
     0
  9
$USERI4
 70
     0
  9
$USERI5
 70
     0
  9
$USERR1
 40
0.0
  9
$USERR2
 40
0.0
  9
$USERR3
 40
0.0
  9
$USERR4
 40
0.0
  9
$USERR5
 40
1.0
  9
$WORLDVIEW
 70
     0
  9
$SHADEDGE
 70
     3
  9
$SHADEDIF
 70
    70
  9
$TILEMODE
 70
     1
  9
$MAXACTVP
 70
    16
  9
$PLIMCHECK
 70
     0
  9
$PEXTMIN
 10
1.000000000000000E+20
 20
1.000000000000000E+20
 30
1.000000000000000E+20
  9
$PEXTMAX
 10
-1.000000000000000E+20
 20
-1.000000000000000E+20
 30
-1.000000000000000E+20
  9
$PLIMMIN
 10
0.0
 20
0.0
  9
$PLIMMAX
 10
12.0
 20
9.0
  9
$UNITMODE
 70
     0
  9
$VISRETAIN
 70
     0
  9
$PLINEGEN
 70
     0
  9
$PSLTSCALE
 70
     0
  0
ENDSEC
  0
SECTION
  2
TABLES
  0
TABLE
  2
VPORT
 70
     1
  0
VPORT
  2
*ACTIVE
 70
     0
 10
0.0
 20
0.0
 11
1.0
 21
1.0
 12
-0.2374145757422153
 22
0.4486967428340232
 13
0.0
 23
0.0
 14
1.0
 24
1.0
 15
12.0
 25
12.0
 16
1.032271612955968
 26
-1.230213403273295
 36
0.6488376526466564
 17
0.0
 27
0.0
 37
0.0
 40
1.152037934560933
 41
1.56198347107438
 42
50.0
 43
0.0
 44
0.0
 50
0.0
 51
0.0
 71
     0
 72
  2000
 73
     1
 74
     0
 75
     0
 76
     0
 77
     0
 78
     0
  0
ENDTAB
  0
TABLE
  2
LTYPE
 70
     1
  0
LTYPE
  2
CONTINUOUS
 70
     0
  3
Solid line
 72
    65
 73
     0
 40
0.0
  0
ENDTAB
  0
TABLE
  2
LAYER
 70
     3
  0
LAYER
  2
0
 70
     0
 62
     7
  6
CONTINUOUS
  0
LAYER
  2
ASHADE
 70
     1
 62
     7
  6
CONTINUOUS
  0
LAYER
  2
_KTI_CONTROL
 70
     5
 62
     7
  6
CONTINUOUS
  0
ENDTAB
  0
TABLE
  2
STYLE
 70
     3
  0
STYLE
  2
ST
 70
     0
 40
0.0
 41
1.0
 50
0.0
 71
     0
 42
0.100000000000017
  3
SIMPLEX
  4

  0
STYLE
  2
ASHADE
 70
     0
 40
0.2
 41
1.0
 50
0.0
 71
     0
 42
1.0
  3
simplex
  4

  0
STYLE
  2
STANDARD
 70
     0
 40
0.0
 41
1.0
 50
0.0
 71
     0
 42
0.05
  3
txt
  4

  0
ENDTAB
  0
TABLE
  2
VIEW
 70
     0
  0
ENDTAB
  0
TABLE
  2
UCS
 70
     0
  0
ENDTAB
  0
TABLE
  2
APPID
 70
     6
  0
APPID
  2
ACAD
 70
     0
  0
APPID
  2
AVE_FINISH
 70
     0
  0
APPID
  2
AVE_ENTITY_MATERIAL
 70
     0
  0
APPID
  2
AVE_RENDER
 70
     0
  0
APPID
  2
AVE_MATERIAL
 70
     0
  0
APPID
  2
_KTI_ARCHT
 70
     0
  0
ENDTAB
  0
TABLE
  2
DIMSTYLE
 70
     1
  0
DIMSTYLE
  2
STANDARD
 70
     0
  3

  4

  5

  6

  7

 40
1.0
 41
0.18
 42
0.0625
 43
0.38
 44
0.18
 45
0.0
 46
0.0
 47
0.0
 48
0.0
140
0.18
141
0.09
142
0.0
143
25.4
144
1.0
145
0.0
146
1.0
147
0.09
 71
     0
 72
     0
 73
     1
 74
     1
 75
     0
 76
     0
 77
     0
 78
     0
170
     0
171
     2
172
     0
173
     0
174
     0
175
     0
176
     0
177
     0
178
     0
  0
ENDTAB
  0
ENDSEC
  0
SECTION
  2
BLOCKS
  0
BLOCK
  8
0
  2
$MODEL_SPACE
 70
     0
 10
0.0
 20
0.0
 30
0.0
  3
$MODEL_SPACE
  1

  0
ENDBLK
  5
FCE
  8
0
  0
BLOCK
 67
     1
  8
0
  2
$PAPER_SPACE
 70
     0
 10
0.0
 20
0.0
 30
0.0
  3
$PAPER_SPACE
  1

  0
ENDBLK
  5
FCC
 67
     1
  8
0
  0
BLOCK
  8
0
  2
AVE_RENDER
 70
     0
 10
0.0
 20
0.0
 30
0.0
  3
AVE_RENDER
  1
AVE_RENDER
  0
ENDBLK
  5
F25
  8
0
  0
BLOCK
  8
0
  2
AVE_GLOBAL
 70
     0
 10
0.0
 20
0.0
 30
0.0
  3
AVE_GLOBAL
  1
AVE_GLOBAL
  0
ENDBLK
  5
F2C
  8
0
  0
BLOCK
  8
0
  2
RM_SDB
 70
     2
 10
0.0
 20
0.0
 30
0.0
  3
RM_SDB
  1

  0
ATTDEF
  5
F2F
  8
ASHADE
  6
CONTINUOUS
 62
     1
 10
-0.3857142857142856
 20
-0.15
 30
0.0
 40
0.2
  1

  7
ASHADE
 72
     1
 11
0.0000000000000001
 21
-0.15
 31
0.0
  3
Name
  2
NAME
 70
     0
  0
ATTDEF
  5
F30
  8
ASHADE
  6
CONTINUOUS
 62
     1
 10
0.2300000000000001
 20
-0.4750000000000001
 30
0.0000000000000002
 40
0.1000000000000001
  1
-1
  7
ASHADE
  3
ACAD Color Index
  2
ACADCOLOR
 70
     0
  0
ATTDEF
  5
F31
  8
ASHADE
  6
CONTINUOUS
 62
     7
 10
-0.1499999999999999
 20
-0.19
 30
0.0
 40
0.01
  1
-1,-1,-1
  7
STANDARD
  3
RGB Color
  2
COLOR
 70
     1
  0
ATTDEF
  5
F32
  8
ASHADE
  6
CONTINUOUS
 62
     7
 10
-0.1499999999999999
 20
-0.205
 30
0.0
 40
0.01
  1
1,1,1
  7
STANDARD
  3
Opacity
  2
OPACITY
 70
     1
  0
ATTDEF
  5
F33
  8
ASHADE
  6
CONTINUOUS
 62
     7
 10
-0.1499999999999999
 20
-0.22
 30
0.0
 40
0.01
  1
("nullsurf" "")
  7
STANDARD
  3
Surface Shader
  2
SURFACE
 70
     1
  0
ATTDEF
  5
F34
  8
ASHADE
  6
CONTINUOUS
 62
     7
 10
-0.1499999999999999
 20
-0.235
 30
0.0
 40
0.01
  1

  7
STANDARD
  3
Surface Parameters 1
  2
SURF1
 70
     1
  0
ATTDEF
  5
F35
  8
ASHADE
  6
CONTINUOUS
 62
     7
 10
-0.1499999999999999
 20
-0.25
 30
0.0
 40
0.01
  1

  7
STANDARD
  3
Surface Parameters 2
  2
SURF2
 70
     1
  0
ATTDEF
  5
F36
  8
ASHADE
  6
CONTINUOUS
 62
     7
 10
-0.1499999999999999
 20
-0.265
 30
0.0
 40
0.01
  1

  7
STANDARD
  3
Surface Parameters 3
  2
SURF3
 70
     1
  0
ATTDEF
  5
F37
  8
ASHADE
  6
CONTINUOUS
 62
     7
 10
-0.1499999999999999
 20
-0.2799999999999999
 30
0.0
 40
0.01
  1

  7
STANDARD
  3
Surface Parameters 4
  2
SURF4
 70
     1
  0
ATTDEF
  5
F38
  8
ASHADE
  6
CONTINUOUS
 62
     7
 10
-0.1499999999999999
 20
-0.295
 30
0.0
 40
0.01
  1
-1
  7
STANDARD
  3
Shading Rate
  2
SHADINGRATE
 70
     1
  0
ATTDEF
  5
F39
  8
ASHADE
  6
CONTINUOUS
 62
     7
 10
-0.1499999999999999
 20
-0.31
 30
0.0
 40
0.01
  1
("nulldisp" "")
  7
STANDARD
  3
Displacement Shader
  2
DISPLACEMENT
 70
     1
  0
ATTDEF
  5
F3A
  8
ASHADE
  6
CONTINUOUS
 62
     7
 10
-0.1499999999999999
 20
-0.325
 30
0.0
 40
0.01
  1

  7
STANDARD
  3
Displacement Parameters 1
  2
DISP1
 70
     1
  0
ATTDEF
  5
F3B
  8
ASHADE
  6
CONTINUOUS
 62
     7
 10
-0.1499999999999999
 20
-0.34
 30
0.0
 40
0.01
  1

  7
STANDARD
  3
Displacement Parameters 2
  2
DISP2
 70
     1
  0
ATTDEF
  5
F3C
  8
ASHADE
  6
CONTINUOUS
 62
     7
 10
-0.1499999999999999
 20
-0.355
 30
0.0
 40
0.01
  1

  7
STANDARD
  3
Displacement Parameters 3
  2
DISP3
 70
     1
  0
ATTDEF
  5
F3D
  8
ASHADE
  6
CONTINUOUS
 62
     7
 10
-0.1499999999999999
 20
-0.3699999999999999
 30
0.0
 40
0.01
  1

  7
STANDARD
  3
Displacement Parameters 4
  2
DISP4
 70
     1
  0
ATTDEF
  5
F3E
  8
ASHADE
  6
CONTINUOUS
 62
     7
 10
-0.1499999999999999
 20
-0.3849999999999998
 30
0.0
 40
0.01
  1
0.0
  7
STANDARD
  3
Displacement Bounds
  2
DBOUND
 70
     1
  0
ATTDEF
  5
F3F
  8
ASHADE
  6
CONTINUOUS
 62
     7
 10
-0.1499999999999999
 20
-0.4
 30
0.0
 40
0.01
  1
0
  7
STANDARD
  3
Smooth Surface
  2
SMOOTH
 70
     1
  0
ATTDEF
  5
F40
  8
ASHADE
  6
CONTINUOUS
 62
     7
 10
-0.1499999999999999
 20
-0.415
 30
0.0
 40
0.01
  1
("" "")
  7
STANDARD
  3
Atmosphere Shader
  2
ATMOSPHERE
 70
     1
  0
ATTDEF
  5
F41
  8
ASHADE
  6
CONTINUOUS
 62
     7
 10
-0.15
 20
-0.4302404735808357
 30
0.0
 40
0.01
  1

  7
STANDARD
  3
Atmosphere Parameters 1
  2
ATMO1
 70
     1
  0
ATTDEF
  5
F42
  8
ASHADE
  6
CONTINUOUS
 62
     7
 10
-0.15
 20
-0.4452404735808357
 30
0.0
 40
0.01
  1

  7
STANDARD
  3
Atmosphere Parameters 2
  2
ATMO2
 70
     1
  0
ATTDEF
  5
F43
  8
ASHADE
  6
CONTINUOUS
 62
     7
 10
-0.15
 20
-0.4602404735808357
 30
0.0
 40
0.01
  1

  7
STANDARD
  3
Atmosphere Parameters 3
  2
ATMO3
 70
     1
  0
ATTDEF
  5
F44
  8
ASHADE
  6
CONTINUOUS
 62
     7
 10
-0.15
 20
-0.4752404735808357
 30
0.0
 40
0.01
  1

  7
STANDARD
  3
Atmosphere Parameters 4
  2
ATMO4
 70
     1
  0
ATTDEF
  5
F45
  8
ASHADE
  6
CONTINUOUS
 62
     7
 10
-0.1499999999999999
 20
-0.49
 30
0.0
 40
0.01
  1
0 0 1 0 0 1 1 1
  7
STANDARD
  3
Texture Map Coordinates
  2
TCOORD
 70
     1
  0
POLYLINE
  5
F46
  8
ASHADE
  6
CONTINUOUS
 62
     7
 66
     1
 10
0.0
 20
0.0
 30
0.0
  0
VERTEX
  5
1039
  8
ASHADE
  6
CONTINUOUS
 62
     7
 10
-0.3000000000000002
 20
-0.18
 30
0.0
  0
VERTEX
  5
103A
  8
ASHADE
  6
CONTINUOUS
 62
     7
 10
-0.2999999999999999
 20
-0.3250000000000001
 30
0.0
 42
0.1747045211890322
  0
VERTEX
  5
103B
  8
ASHADE
  6
CONTINUOUS
 62
     7
 10
-0.2816863194828013
 20
-0.3758135573372287
 30
0.0
 42
0.1042029417664262
  0
VERTEX
  5
103C
  8
ASHADE
  6
CONTINUOUS
 62
     7
 10
-0.2121320343559644
 20
-0.4310660171779823
 30
0.0
 42
0.0649481016502893
  0
VERTEX
  5
103D
  8
ASHADE
  6
CONTINUOUS
 62
     7
 10
-0.1213292385415812
 20
-0.4625678598959921
 30
0.0
 42
0.0510992989620776
  0
VERTEX
  5
103E
  8
ASHADE
  6
CONTINUOUS
 62
     7
 10
0.0
 20
-0.475
 30
0.0
 42
0.0325604591914346
  0
VERTEX
  5
103F
  8
ASHADE
  6
CONTINUOUS
 62
     7
 10
0.0776712930301476
 20
-0.4699366059390404
 30
0.0
  0
VERTEX
  5
1040
  8
ASHADE
  6
CONTINUOUS
 62
     7
 10
0.0776712930301476
 20
-0.18
 30
0.0
  0
SEQEND
  5
106C
  8
ASHADE
  6
CONTINUOUS
 62
     7
  0
POLYLINE
  5
F50
  8
ASHADE
  6
CONTINUOUS
 62
     7
 66
     1
 10
0.0
 20
0.0
 30
0.0
  0
VERTEX
  5
1041
  8
ASHADE
  6
CONTINUOUS
 62
     7
 10
0.0776712930301476
 20
-0.4173639511315807
 30
0.0
 42
0.0020561688178525
  0
VERTEX
  5
1042
  8
ASHADE
  6
CONTINUOUS
 62
     7
 10
0.0808861590277209
 20
-0.4167119065973279
 30
0.0
 42
0.0649481016502881
  0
VERTEX
  5
1043
  8
ASHADE
  6
CONTINUOUS
 62
     7
 10
0.1414213562373096
 20
-0.3957106781186547
 30
0.0
 42
0.104202941766426
  0
VERTEX
  5
1044
  8
ASHADE
  6
CONTINUOUS
 62
     7
 10
0.1877908796552008
 20
-0.3588757048914858
 30
0.0
 42
0.1747044792402826
  0
VERTEX
  5
1045
  8
ASHADE
  6
CONTINUOUS
 62
     7
 10
0.2000000000000001
 20
-0.3250000086461401
 30
0.0
  0
VERTEX
  5
1046
  8
ASHADE
  6
CONTINUOUS
 62
     7
 10
0.2000000000000001
 20
-0.18
 30
0.0
  0
SEQEND
  5
106D
  8
ASHADE
  6
CONTINUOUS
 62
     7
  0
POLYLINE
  5
F58
  8
ASHADE
  6
CONTINUOUS
 62
     7
 66
     1
 10
0.0
 20
0.0
 30
0.0
  0
VERTEX
  5
1047
  8
ASHADE
  6
CONTINUOUS
 62
     7
 10
0.289889668177379
 20
-0.18
 30
0.0
  0
VERTEX
  5
1048
  8
ASHADE
  6
CONTINUOUS
 62
     7
 10
0.2898896681773789
 20
-0.2861621487588727
 30
0.0
 42
0.0456559979864751
  0
VERTEX
  5
1049
  8
ASHADE
  6
CONTINUOUS
 62
     7
 10
0.2816863194828014
 20
-0.2741864426627713
 30
0.0
 42
0.1042029417664258
  0
VERTEX
  5
104A
  8
ASHADE
  6
CONTINUOUS
 62
     7
 10
0.2121320343559643
 20
-0.218933982822018
 30
0.0
 42
0.0090478215307507
  0
VERTEX
  5
104B
  8
ASHADE
  6
CONTINUOUS
 62
     7
 10
0.2000000000000001
 20
-0.2131399482633147
 30
0.0
 42
0.0510992989620778
  0
SEQEND
  5
106E
  8
ASHADE
  6
CONTINUOUS
 62
     7
  0
POLYLINE
  5
F5F
  8
ASHADE
  6
CONTINUOUS
 62
     7
 66
     1
 10
0.0
 20
0.0
 30
0.0
  0
VERTEX
  5
104C
  8
ASHADE
  6
CONTINUOUS
 62
     7
 10
0.0776712930301477
 20
0.08
 30
0.0
  0
VERTEX
  5
104D
  8
ASHADE
  6
CONTINUOUS
 62
     7
 10
0.0776712930301476
 20
0.1800633940609596
 30
0.0
 42
-0.0325604591914349
  0
VERTEX
  5
104E
  8
ASHADE
  6
CONTINUOUS
 62
     7
 10
0.0
 20
0.175
 30
0.0
 42
-0.0510992989620779
  0
VERTEX
  5
104F
  8
ASHADE
  6
CONTINUOUS
 62
     7
 10
-0.1213292385415814
 20
0.1874321401040082
 30
0.0
 42
-0.0649481016502892
  0
VERTEX
  5
1050
  8
ASHADE
  6
CONTINUOUS
 62
     7
 10
-0.2121320343559644
 20
0.2189339828220179
 30
0.0
 42
-0.1042029417664258
  0
VERTEX
  5
1051
  8
ASHADE
  6
CONTINUOUS
 62
     7
 10
-0.2816863194828013
 20
0.2741864426627713
 30
0.0
 42
-0.1747045211890322
  0
VERTEX
  5
1052
  8
ASHADE
  6
CONTINUOUS
 62
     7
 10
-0.2999999999999999
 20
0.3250000000000001
 30
0.0
 42
-0.1747045211890318
  0
VERTEX
  5
1053
  8
ASHADE
  6
CONTINUOUS
 62
     7
 10
-0.2816863194828013
 20
0.3758135573372287
 30
0.0
 42
-0.1042029417664262
  0
VERTEX
  5
1054
  8
ASHADE
  6
CONTINUOUS
 62
     7
 10
-0.2121320343559644
 20
0.4310660171779822
 30
0.0
 42
-0.0649481016502893
  0
VERTEX
  5
1055
  8
ASHADE
  6
CONTINUOUS
 62
     7
 10
-0.1213292385415813
 20
0.462567859895992
 30
0.0
 42
-0.051099298962078
  0
VERTEX
  5
1056
  8
ASHADE
  6
CONTINUOUS
 62
     7
 10
0.0
 20
0.475
 30
0.0
 42
-0.0510992989620779
  0
VERTEX
  5
1057
  8
ASHADE
  6
CONTINUOUS
 62
     7
 10
0.1213292385415813
 20
0.4625678598959919
 30
0.0
 42
-0.0649481016502889
  0
VERTEX
  5
1058
  8
ASHADE
  6
CONTINUOUS
 62
     7
 10
0.2121320343559643
 20
0.4310660171779821
 30
0.0
 42
-0.1042029417664259
  0
VERTEX
  5
1059
  8
ASHADE
  6
CONTINUOUS
 62
     7
 10
0.2816863194828012
 20
0.3758135573372288
 30
0.0
 42
-0.0456559979864758
  0
VERTEX
  5
105A
  8
ASHADE
  6
CONTINUOUS
 62
     7
 10
0.2898896681773789
 20
0.3638378512411275
 30
0.0
  0
VERTEX
  5
105B
  8
ASHADE
  6
CONTINUOUS
 62
     7
 10
0.289889668177379
 20
0.08
 30
0.0
  0
SEQEND
  5
106F
  8
ASHADE
  6
CONTINUOUS
 62
     7
  0
LINE
  5
F71
  8
ASHADE
  6
CONTINUOUS
 62
     7
 10
-0.3000000000000002
 20
0.325
 30
0.0000000000000002
 11
-0.3000000000000002
 21
0.08
 31
0.0000000000000002
  0
POLYLINE
  5
F72
  8
ASHADE
  6
CONTINUOUS
 62
     7
 66
     1
 10
0.0
 20
0.0
 30
0.0
 70
     1
  0
VERTEX
  5
105C
  8
ASHADE
  6
CONTINUOUS
 62
     7
 10
0.0
 20
0.425
 30
0.0
 42
0.051099298962078
  0
VERTEX
  5
105D
  8
ASHADE
  6
CONTINUOUS
 62
     7
 10
-0.0808861590277208
 20
0.416711906597328
 30
0.0
 42
0.064948101650289
  0
VERTEX
  5
105E
  8
ASHADE
  6
CONTINUOUS
 62
     7
 10
-0.1414213562373094
 20
0.3957106781186547
 30
0.0
 42
0.1042029417664259
  0
VERTEX
  5
105F
  8
ASHADE
  6
CONTINUOUS
 62
     7
 10
-0.1877908796552007
 20
0.3588757048914858
 30
0.0
 42
0.1747045211890328
  0
VERTEX
  5
1060
  8
ASHADE
  6
CONTINUOUS
 62
     7
 10
-0.1999999999999998
 20
0.325
 30
0.0
 42
0.1747045211890319
  0
VERTEX
  5
1061
  8
ASHADE
  6
CONTINUOUS
 62
     7
 10
-0.1877908796552009
 20
0.2911242951085143
 30
0.0
 42
0.1042029417664258
  0
VERTEX
  5
1062
  8
ASHADE
  6
CONTINUOUS
 62
     7
 10
-0.1414213562373094
 20
0.2542893218813453
 30
0.0
 42
0.0649481016502892
  0
VERTEX
  5
1063
  8
ASHADE
  6
CONTINUOUS
 62
     7
 10
-0.0808861590277208
 20
0.2332880934026721
 30
0.0
 42
0.051099298962078
  0
VERTEX
  5
1064
  8
ASHADE
  6
CONTINUOUS
 62
     7
 10
0.0
 20
0.225
 30
0.0
 42
0.0510992989620778
  0
VERTEX
  5
1065
  8
ASHADE
  6
CONTINUOUS
 62
     7
 10
0.0808861590277208
 20
0.233288093402672
 30
0.0
 42
0.064948101650289
  0
VERTEX
  5
1066
  8
ASHADE
  6
CONTINUOUS
 62
     7
 10
0.1414213562373094
 20
0.2542893218813452
 30
0.0
 42
0.1042029417664264
  0
VERTEX
  5
1067
  8
ASHADE
  6
CONTINUOUS
 62
     7
 10
0.1877908796552008
 20
0.2911242951085142
 30
0.0
 42
0.1747045211890327
  0
VERTEX
  5
1068
  8
ASHADE
  6
CONTINUOUS
 62
     7
 10
0.2
 20
0.325
 30
0.0
 42
0.174704521189033
  0
VERTEX
  5
1069
  8
ASHADE
  6
CONTINUOUS
 62
     7
 10
0.1877908796552007
 20
0.358875704891486
 30
0.0
 42
0.1042029417664256
  0
VERTEX
  5
106A
  8
ASHADE
  6
CONTINUOUS
 62
     7
 10
0.1414213562373094
 20
0.3957106781186547
 30
0.0
 42
0.0649481016502894
  0
VERTEX
  5
106B
  8
ASHADE
  6
CONTINUOUS
 62
     7
 10
0.0808861590277205
 20
0.4167119065973279
 30
0.0
 42
0.0510992989620781
  0
SEQEND
  5
1070
  8
ASHADE
  6
CONTINUOUS
 62
     7
  0
LINE
  5
F84
  8
ASHADE
  6
CONTINUOUS
 62
     7
 10
-0.2000000000000001
 20
0.2131399482633148
 30
0.0000000000000005
 11
-0.2000000000000001
 21
0.325
 31
0.0000000000000005
  0
LINE
  5
F85
  8
ASHADE
  6
CONTINUOUS
 62
     7
 10
0.2
 20
0.3250000000000001
 30
0.0
 11
0.2000000000000001
 21
0.08
 31
0.0
  0
ENDBLK
  5
F86
  8
0
  0
ENDSEC
  0
SECTION
  2
ENTITIES
  0
POLYLINE
  5
B4
  8
0
  6
BYBLOCK
 62
    33
 66
     1
 10
0.0
 20
0.0
 30
0.0
 70
    64
 71
    16
 72
     8
1001
AVE_FINISH
1002
{
1070
     0
1005
F87
1002
}
1001
AVE_ENTITY_MATERIAL
1002
{
1000

1002
{
1071
        0
1070
     0
1070
     0
1002
{
1070
     0
1070
     0
1070
     0
1040
0.0
1002
}
1070
     0
1070
     0
1002
{
1002
}
1002
}
1002
{
1002
{
1071
        0
1070
     4
1002
}
1002
}
1002
{
1002
{
1071
        0
1002
{
1002
{
1040
1.0
1040
0.0
1070
     0
1002
}
1002
{
1040
1.0
1040
0.0
1070
     0
1002
}
1040
0.0
1002
}
1002
{
1040
16.0
1040
0.0
1040
0.0
1040
5.5
1040
0.0
1040
12.0
1040
0.0
1040
-5.5
1040
0.0
1040
0.0
1040
-12.0
1040
27.0
1070
     1
1002
{
1002
}
1070
     0
1002
}
1002
}
1002
}
1011
-0.5206999999999999
1021
-0.1524
1031
0.6858
1021
-0.1524
1031
0.6858
1011
-0.1143
1021
-0.1524
1031
0.6858
1021
-0.1524
1031
0.6858
1011
-0.5206999999999999
1021
0.1524
1031
0.6858
1021
0.1524
1031
0.6858
1011
-0.5206999999999999
1021
-0.1524
1031
0.381
1021
-0.1524
1031
0.381
1002
}
  0
VERTEX
  5
B5
  8
0
 10
-0.5588
 20
-0.3302
 30
0.8128
 70
   192
  0
VERTEX
  5
B6
  8
0
 10
-0.5588
 20
-0.254
 30
0.8128
 70
   192
  0
VERTEX
  5
B7
  8
0
 10
-0.635
 20
-0.3302
 30
0.8128
 70
   192
  0
VERTEX
  5
B8
  8
0
 10
-0.635
 20
-0.254
 30
0.8128
 70
   192
  0
VERTEX
  5
B9
  8
0
 10
-0.5588
 20
0.254
 30
0.8128
 70
   192
  0
VERTEX
  5
BA
  8
0
 10
-0.5588
 20
0.3302
 30
0.8128
 70
   192
  0
VERTEX
  5
BB
  8
0
 10
-0.635
 20
0.254
 30
0.8128
 70
   192
  0
VERTEX
  5
BC
  8
0
 10
-0.635
 20
0.3302
 30
0.8128
 70
   192
  0
VERTEX
  5
BD
  8
0
 10
0.0
 20
-0.3302
 30
0.5588
 70
   192
  0
VERTEX
  5
BE
  8
0
 10
0.0
 20
-0.254
 30
0.5588
 70
   192
  0
VERTEX
  5
BF
  8
0
 10
-0.5461
 20
-0.3302
 30
0.5588
 70
   192
  0
VERTEX
  5
C0
  8
0
 10
-0.5461
 20
-0.254
 30
0.5588
 70
   192
  0
VERTEX
  5
C1
  8
0
 10
0.0
 20
0.254
 30
0.5588
 70
   192
  0
VERTEX
  5
C2
  8
0
 10
0.0
 20
0.3302
 30
0.5588
 70
   192
  0
VERTEX
  5
C3
  8
0
 10
-0.5461
 20
0.254
 30
0.5588
 70
   192
  0
VERTEX
  5
C4
  8
0
 10
-0.5461
 20
0.3302
 30
0.5588
 70
   192
  0
VERTEX
  5
C5
  8
0
  6
BYBLOCK
 62
    33
 10
0.0
 20
0.0
 30
0.0
 70
   128
 71
     1
 72
    -2
 73
     3
  0
VERTEX
  5
C6
  8
0
  6
BYBLOCK
 62
    33
 10
0.0
 20
0.0
 30
0.0
 70
   128
 71
     4
 72
    -3
 73
     2
  0
VERTEX
  5
C7
  8
0
  6
BYBLOCK
 62
    33
 10
0.0
 20
0.0
 30
0.0
 70
   128
 71
     5
 72
    -6
 73
     7
  0
VERTEX
  5
C8
  8
0
  6
BYBLOCK
 62
    33
 10
0.0
 20
0.0
 30
0.0
 70
   128
 71
     8
 72
    -7
 73
     6
  0
VERTEX
  5
C9
  8
0
  6
BYBLOCK
 62
    33
 10
0.0
 20
0.0
 30
0.0
 70
   128
 71
     9
 72
   -10
 73
    11
  0
VERTEX
  5
CA
  8
0
  6
BYBLOCK
 62
    33
 10
0.0
 20
0.0
 30
0.0
 70
   128
 71
    12
 72
   -11
 73
    10
  0
VERTEX
  5
CB
  8
0
  6
BYBLOCK
 62
    33
 10
0.0
 20
0.0
 30
0.0
 70
   128
 71
    13
 72
   -14
 73
    15
  0
VERTEX
  5
CC
  8
0
  6
BYBLOCK
 62
    33
 10
0.0
 20
0.0
 30
0.0
 70
   128
 71
    16
 72
   -15
 73
    14
  0
SEQEND
  5
CD
  8
0
  6
BYBLOCK
 62
    33
  0
POLYLINE
  5
140
  8
0
  6
BYBLOCK
 62
    33
 66
     1
 10
0.0
 20
0.0
 30
0.0
 70
    64
 71
    44
 72
    24
1001
AVE_FINISH
1002
{
1070
     0
1005
F87
1002
}
1001
AVE_ENTITY_MATERIAL
1002
{
1000

1002
{
1071
        0
1070
     0
1070
     0
1002
{
1070
     0
1070
     0
1070
     0
1040
0.0
1002
}
1070
     0
1070
     0
1002
{
1002
}
1002
}
1002
{
1002
{
1071
        0
1070
     4
1002
}
1002
}
1002
{
1002
{
1071
        0
1002
{
1002
{
1040
1.0
1040
0.0
1070
     0
1002
}
1002
{
1040
1.0
1040
0.0
1070
     0
1002
}
1040
0.0
1002
}
1002
{
1040
0.0
1040
0.0
1040
18.0
1040
13.5
1040
0.0
1040
18.0
1040
0.0
1040
-8.5
1040
24.0
1040
0.0
1040
0.0
1040
4.0
1070
     1
1002
{
1002
}
1070
     0
1002
}
1002
}
1002
}
1011
-0.3175
1021
-0.2286
1031
0.1016
1021
-0.2286
1031
0.1016
1011
-0.3175
1021
-0.2286
1031
0.7111999999999999
1021
-0.2286
1031
0.7111999999999999
1011
-0.3175
1021
0.2286
1031
0.1016
1021
0.2286
1031
0.1016
1011
0.1397
1021
-0.2286
1031
0.1016
1021
-0.2286
1031
0.1016
1002
}
  0
VERTEX
  5
141
  8
0
 10
-0.635
 20
-0.3302
 30
0.8128
 70
   192
  0
VERTEX
  5
142
  8
0
 10
-0.5461
 20
-0.3302
 30
0.5588
 70
   192
  0
VERTEX
  5
143
  8
0
 10
-0.635
 20
-0.254
 30
0.8128
 70
   192
  0
VERTEX
  5
144
  8
0
 10
-0.5461
 20
-0.254
 30
0.5588
 70
   192
  0
VERTEX
  5
145
  8
0
 10
-0.4699
 20
-0.3302
 30
0.5588
 70
   192
  0
VERTEX
  5
146
  8
0
 10
-0.4699
 20
-0.254
 30
0.5588
 70
   192
  0
VERTEX
  5
147
  8
0
 10
-0.5588
 20
-0.3302
 30
0.8128
 70
   192
  0
VERTEX
  5
148
  8
0
 10
-0.5588
 20
-0.254
 30
0.8128
 70
   192
  0
VERTEX
  5
149
  8
0
 10
-0.5461
 20
0.3302
 30
0.5588
 70
   192
  0
VERTEX
  5
14A
  8
0
 10
-0.635
 20
0.3302
 30
0.8128
 70
   192
  0
VERTEX
  5
14B
  8
0
 10
-0.5461
 20
0.254
 30
0.5588
 70
   192
  0
VERTEX
  5
14C
  8
0
 10
-0.635
 20
0.254
 30
0.8128
 70
   192
  0
VERTEX
  5
14D
  8
0
 10
-0.4699
 20
0.254
 30
0.5588
 70
   192
  0
VERTEX
  5
14E
  8
0
 10
-0.4699
 20
0.3302
 30
0.5588
 70
   192
  0
VERTEX
  5
14F
  8
0
 10
-0.5588
 20
0.254
 30
0.8128
 70
   192
  0
VERTEX
  5
150
  8
0
 10
-0.5588
 20
0.3302
 30
0.8128
 70
   192
  0
VERTEX
  5
151
  8
0
 10
-0.4699
 20
-0.254
 30
0.4826
 70
   192
  0
VERTEX
  5
152
  8
0
 10
-0.4699
 20
-0.3302
 30
0.4826
 70
   192
  0
VERTEX
  5
153
  8
0
 10
-0.4699
 20
-0.254
 30
0.0
 70
   192
  0
VERTEX
  5
154
  8
0
 10
-0.4699
 20
-0.3302
 30
0.0
 70
   192
  0
VERTEX
  5
155
  8
0
 10
-0.0762
 20
-0.3302
 30
0.0
 70
   192
  0
VERTEX
  5
156
  8
0
 10
-0.0762
 20
-0.254
 30
0.0
 70
   192
  0
VERTEX
  5
157
  8
0
 10
-0.0762
 20
-0.3302
 30
0.4826
 70
   192
  0
VERTEX
  5
158
  8
0
 10
-0.0762
 20
-0.254
 30
0.4826
 70
   192
  0
VERTEX
  5
159
  8
0
 10
-0.0762
 20
0.3302
 30
0.0
 70
   192
  0
VERTEX
  5
15A
  8
0
 10
-0.0762
 20
0.3302
 30
0.4826
 70
   192
  0
VERTEX
  5
15B
  8
0
 10
-0.0762
 20
0.254
 30
0.0
 70
   192
  0
VERTEX
  5
15C
  8
0
 10
-0.0762
 20
0.254
 30
0.4826
 70
   192
  0
VERTEX
  5
15D
  8
0
 10
-0.4699
 20
0.3302
 30
0.4826
 70
   192
  0
VERTEX
  5
15E
  8
0
 10
-0.4699
 20
0.254
 30
0.4826
 70
   192
  0
VERTEX
  5
15F
  8
0
 10
-0.4699
 20
0.3302
 30
0.0
 70
   192
  0
VERTEX
  5
160
  8
0
 10
-0.4699
 20
0.254
 30
0.0
 70
   192
  0
VERTEX
  5
161
  8
0
 10
-0.5461
 20
0.254
 30
0.0
 70
   192
  0
VERTEX
  5
162
  8
0
 10
-0.5461
 20
0.3302
 30
0.0
 70
   192
  0
VERTEX
  5
163
  8
0
 10
-0.5461
 20
-0.3302
 30
0.0
 70
   192
  0
VERTEX
  5
164
  8
0
 10
-0.5461
 20
-0.254
 30
0.0
 70
   192
  0
VERTEX
  5
165
  8
0
 10
0.0
 20
0.254
 30
0.5588
 70
   192
  0
VERTEX
  5
166
  8
0
 10
0.0
 20
0.254
 30
0.0
 70
   192
  0
VERTEX
  5
167
  8
0
 10
0.0
 20
0.3302
 30
0.5588
 70
   192
  0
VERTEX
  5
168
  8
0
 10
0.0
 20
0.3302
 30
0.0
 70
   192
  0
VERTEX
  5
169
  8
0
 10
0.0
 20
-0.3302
 30
0.5588
 70
   192
  0
VERTEX
  5
16A
  8
0
 10
0.0
 20
-0.3302
 30
0.0
 70
   192
  0
VERTEX
  5
16B
  8
0
 10
0.0
 20
-0.254
 30
0.5588
 70
   192
  0
VERTEX
  5
16C
  8
0
 10
0.0
 20
-0.254
 30
0.0
 70
   192
  0
VERTEX
  5
16D
  8
0
  6
BYBLOCK
 62
    33
 10
0.0
 20
0.0
 30
0.0
 70
   128
 71
     1
 72
    -2
 73
     3
  0
VERTEX
  5
16E
  8
0
  6
BYBLOCK
 62
    33
 10
0.0
 20
0.0
 30
0.0
 70
   128
 71
     4
 72
    -3
 73
     2
  0
VERTEX
  5
16F
  8
0
  6
BYBLOCK
 62
    33
 10
0.0
 20
0.0
 30
0.0
 70
   128
 71
     5
 72
    -6
 73
     7
  0
VERTEX
  5
170
  8
0
  6
BYBLOCK
 62
    33
 10
0.0
 20
0.0
 30
0.0
 70
   128
 71
     8
 72
    -7
 73
     6
  0
VERTEX
  5
171
  8
0
  6
BYBLOCK
 62
    33
 10
0.0
 20
0.0
 30
0.0
 70
   128
 71
     9
 72
   -10
 73
    11
  0
VERTEX
  5
172
  8
0
  6
BYBLOCK
 62
    33
 10
0.0
 20
0.0
 30
0.0
 70
   128
 71
    12
 72
   -11
 73
    10
  0
VERTEX
  5
173
  8
0
  6
BYBLOCK
 62
    33
 10
0.0
 20
0.0
 30
0.0
 70
   128
 71
    13
 72
   -14
 73
    15
  0
VERTEX
  5
174
  8
0
  6
BYBLOCK
 62
    33
 10
0.0
 20
0.0
 30
0.0
 70
   128
 71
    16
 72
   -15
 73
    14
  0
VERTEX
  5
175
  8
0
  6
BYBLOCK
 62
    33
 10
0.0
 20
0.0
 30
0.0
 70
   128
 71
    17
 72
   -18
 73
    19
  0
VERTEX
  5
176
  8
0
  6
BYBLOCK
 62
    33
 10
0.0
 20
0.0
 30
0.0
 70
   128
 71
    20
 72
   -19
 73
    18
  0
VERTEX
  5
177
  8
0
  6
BYBLOCK
 62
    33
 10
0.0
 20
0.0
 30
0.0
 70
   128
 71
    21
 72
   -22
 73
    23
  0
VERTEX
  5
178
  8
0
  6
BYBLOCK
 62
    33
 10
0.0
 20
0.0
 30
0.0
 70
   128
 71
    24
 72
   -23
 73
    22
  0
VERTEX
  5
179
  8
0
  6
BYBLOCK
 62
    33
 10
0.0
 20
0.0
 30
0.0
 70
   128
 71
    25
 72
   -26
 73
    27
  0
VERTEX
  5
17A
  8
0
  6
BYBLOCK
 62
    33
 10
0.0
 20
0.0
 30
0.0
 70
   128
 71
    28
 72
   -27
 73
    26
  0
VERTEX
  5
17B
  8
0
  6
BYBLOCK
 62
    33
 10
0.0
 20
0.0
 30
0.0
 70
   128
 71
    29
 72
   -30
 73
    31
  0
VERTEX
  5
17C
  8
0
  6
BYBLOCK
 62
    33
 10
0.0
 20
0.0
 30
0.0
 70
   128
 71
    32
 72
   -31
 73
    30
  0
VERTEX
  5
17D
  8
0
  6
BYBLOCK
 62
    33
 10
0.0
 20
0.0
 30
0.0
 70
   128
 71
    11
 72
   -33
 73
     9
  0
VERTEX
  5
17E
  8
0
  6
BYBLOCK
 62
    33
 10
0.0
 20
0.0
 30
0.0
 70
   128
 71
    34
 72
    -9
 73
    33
  0
VERTEX
  5
17F
  8
0
  6
BYBLOCK
 62
    33
 10
0.0
 20
0.0
 30
0.0
 70
   128
 71
     2
 72
   -35
 73
     4
  0
VERTEX
  5
180
  8
0
  6
BYBLOCK
 62
    33
 10
0.0
 20
0.0
 30
0.0
 70
   128
 71
    36
 72
    -4
 73
    35
  0
VERTEX
  5
181
  8
0
  6
BYBLOCK
 62
    33
 10
0.0
 20
0.0
 30
0.0
 70
   128
 71
    37
 72
   -38
 73
    39
  0
VERTEX
  5
182
  8
0
  6
BYBLOCK
 62
    33
 10
0.0
 20
0.0
 30
0.0
 70
   128
 71
    40
 72
   -39
 73
    38
  0
VERTEX
  5
183
  8
0
  6
BYBLOCK
 62
    33
 10
0.0
 20
0.0
 30
0.0
 70
   128
 71
    41
 72
   -42
 73
    43
  0
VERTEX
  5
184
  8
0
  6
BYBLOCK
 62
    33
 10
0.0
 20
0.0
 30
0.0
 70
   128
 71
    44
 72
   -43
 73
    42
  0
SEQEND
  5
185
  8
0
  6
BYBLOCK
 62
    33
  0
POLYLINE
  5
186
  8
0
  6
BYBLOCK
 62
    33
 66
     1
 10
0.0
 20
0.0
 30
0.0
 70
    64
 71
    44
 72
    32
1001
AVE_FINISH
1002
{
1070
     0
1005
F87
1002
}
1001
AVE_ENTITY_MATERIAL
1002
{
1000

1002
{
1071
        0
1070
     0
1070
     0
1002
{
1070
     0
1070
     0
1070
     0
1040
0.0
1002
}
1070
     0
1070
     0
1002
{
1002
}
1002
}
1002
{
1002
{
1071
        0
1070
     4
1002
}
1002
}
1002
{
1002
{
1071
        0
1002
{
1002
{
1040
1.0
1040
0.0
1070
     0
1002
}
1002
{
1040
1.0
1040
0.0
1070
     0
1002
}
1040
0.0
1002
}
1002
{
1040
0.0
1040
-12.0
1040
0.0
1040
19.5
1040
0.0
1040
0.0
1040
12.0
1040
0.5
1040
16.0
1040
0.0
1040
0.0
1040
8.0
1070
     1
1002
{
1002
}
1070
     0
1002
}
1002
}
1002
}
1011
-0.1651
1021
0.0
1031
0.2032
1021
0.0
1031
0.2032
1011
-0.1651
1021
0.0
1031
0.6095999999999999
1021
0.0
1031
0.6095999999999999
1011
-0.4699
1021
0.0
1031
0.2032
1021
0.0
1031
0.2032
1011
-0.1651
1021
0.3048
1031
0.2032
1021
0.3048
1031
0.2032
1002
}
  0
VERTEX
  5
187
  8
0
 10
-0.5588
 20
0.254
 30
0.8128
 70
   192
  0
VERTEX
  5
188
  8
0
 10
-0.4699
 20
0.254
 30
0.5588
 70
   192
  0
VERTEX
  5
189
  8
0
 10
-0.635
 20
0.254
 30
0.8128
 70
   192
  0
VERTEX
  5
18A
  8
0
 10
-0.5461
 20
0.254
 30
0.5588
 70
   192
  0
VERTEX
  5
18B
  8
0
 10
-0.5588
 20
-0.254
 30
0.8128
 70
   192
  0
VERTEX
  5
18C
  8
0
 10
-0.4699
 20
-0.254
 30
0.5588
 70
   192
  0
VERTEX
  5
18D
  8
0
 10
-0.635
 20
-0.254
 30
0.8128
 70
   192
  0
VERTEX
  5
18E
  8
0
 10
-0.5461
 20
-0.254
 30
0.5588
 70
   192
  0
VERTEX
  5
18F
  8
0
 10
0.0
 20
-0.254
 30
0.5588
 70
   192
  0
VERTEX
  5
190
  8
0
 10
-0.4699
 20
-0.254
 30
0.4826
 70
   192
  0
VERTEX
  5
191
  8
0
 10
-0.0762
 20
-0.254
 30
0.4826
 70
   192
  0
VERTEX
  5
192
  8
0
 10
-0.5461
 20
-0.254
 30
0.0
 70
   192
  0
VERTEX
  5
193
  8
0
 10
-0.4699
 20
-0.254
 30
0.0
 70
   192
  0
VERTEX
  5
194
  8
0
 10
-0.0762
 20
-0.254
 30
0.0
 70
   192
  0
VERTEX
  5
195
  8
0
 10
0.0
 20
-0.254
 30
0.0
 70
   192
  0
VERTEX
  5
196
  8
0
 10
-0.5588
 20
-0.3302
 30
0.8128
 70
   192
  0
VERTEX
  5
197
  8
0
 10
-0.4699
 20
-0.3302
 30
0.5588
 70
   192
  0
VERTEX
  5
198
  8
0
 10
-0.635
 20
-0.3302
 30
0.8128
 70
   192
  0
VERTEX
  5
199
  8
0
 10
-0.5461
 20
-0.3302
 30
0.5588
 70
   192
  0
VERTEX
  5
19A
  8
0
 10
-0.0762
 20
-0.3302
 30
0.0
 70
   192
  0
VERTEX
  5
19B
  8
0
 10
-0.0762
 20
-0.3302
 30
0.4826
 70
   192
  0
VERTEX
  5
19C
  8
0
 10
0.0
 20
-0.3302
 30
0.0
 70
   192
  0
VERTEX
  5
19D
  8
0
 10
0.0
 20
-0.3302
 30
0.5588
 70
   192
  0
VERTEX
  5
19E
  8
0
 10
-0.4699
 20
-0.3302
 30
0.4826
 70
   192
  0
VERTEX
  5
19F
  8
0
 10
-0.5461
 20
-0.3302
 30
0.0
 70
   192
  0
VERTEX
  5
1A0
  8
0
 10
-0.4699
 20
-0.3302
 30
0.0
 70
   192
  0
VERTEX
  5
1A1
  8
0
 10
0.0
 20
0.254
 30
0.5588
 70
   192
  0
VERTEX
  5
1A2
  8
0
 10
-0.4699
 20
0.254
 30
0.4826
 70
   192
  0
VERTEX
  5
1A3
  8
0
 10
-0.0762
 20
0.254
 30
0.4826
 70
   192
  0
VERTEX
  5
1A4
  8
0
 10
-0.5461
 20
0.254
 30
0.0
 70
   192
  0
VERTEX
  5
1A5
  8
0
 10
-0.4699
 20
0.254
 30
0.0
 70
   192
  0
VERTEX
  5
1A6
  8
0
 10
-0.0762
 20
0.254
 30
0.0
 70
   192
  0
VERTEX
  5
1A7
  8
0
 10
0.0
 20
0.254
 30
0.0
 70
   192
  0
VERTEX
  5
1A8
  8
0
 10
-0.5588
 20
0.3302
 30
0.8128
 70
   192
  0
VERTEX
  5
1A9
  8
0
 10
-0.4699
 20
0.3302
 30
0.5588
 70
   192
  0
VERTEX
  5
1AA
  8
0
 10
-0.635
 20
0.3302
 30
0.8128
 70
   192
  0
VERTEX
  5
1AB
  8
0
 10
-0.5461
 20
0.3302
 30
0.5588
 70
   192
  0
VERTEX
  5
1AC
  8
0
 10
-0.0762
 20
0.3302
 30
0.0
 70
   192
  0
VERTEX
  5
1AD
  8
0
 10
-0.0762
 20
0.3302
 30
0.4826
 70
   192
  0
VERTEX
  5
1AE
  8
0
 10
0.0
 20
0.3302
 30
0.0
 70
   192
  0
VERTEX
  5
1AF
  8
0
 10
0.0
 20
0.3302
 30
0.5588
 70
   192
  0
VERTEX
  5
1B0
  8
0
 10
-0.4699
 20
0.3302
 30
0.4826
 70
   192
  0
VERTEX
  5
1B1
  8
0
 10
-0.5461
 20
0.3302
 30
0.0
 70
   192
  0
VERTEX
  5
1B2
  8
0
 10
-0.4699
 20
0.3302
 30
0.0
 70
   192
  0
VERTEX
  5
1B3
  8
0
  6
BYBLOCK
 62
    33
 10
0.0
 20
0.0
 30
0.0
 70
   128
 71
     1
 72
    -2
 73
     3
  0
VERTEX
  5
1B4
  8
0
  6
BYBLOCK
 62
    33
 10
0.0
 20
0.0
 30
0.0
 70
   128
 71
     4
 72
    -3
 73
     2
  0
VERTEX
  5
1B5
  8
0
  6
BYBLOCK
 62
    33
 10
0.0
 20
0.0
 30
0.0
 70
   128
 71
     5
 72
    -6
 73
     7
  0
VERTEX
  5
1B6
  8
0
  6
BYBLOCK
 62
    33
 10
0.0
 20
0.0
 30
0.0
 70
   128
 71
     8
 72
    -7
 73
     6
  0
VERTEX
  5
1B7
  8
0
  6
BYBLOCK
 62
    33
 10
0.0
 20
0.0
 30
0.0
 70
   128
 71
     8
 72
    -9
 73
    10
  0
VERTEX
  5
1B8
  8
0
  6
BYBLOCK
 62
    33
 10
0.0
 20
0.0
 30
0.0
 70
   128
 71
    11
 72
   -10
 73
     9
  0
VERTEX
  5
1B9
  8
0
  6
BYBLOCK
 62
    33
 10
0.0
 20
0.0
 30
0.0
 70
   128
 71
     8
 72
   -10
 73
    12
  0
VERTEX
  5
1BA
  8
0
  6
BYBLOCK
 62
    33
 10
0.0
 20
0.0
 30
0.0
 70
   128
 71
    13
 72
   -12
 73
    10
  0
VERTEX
  5
1BB
  8
0
  6
BYBLOCK
 62
    33
 10
0.0
 20
0.0
 30
0.0
 70
   128
 71
    14
 72
   -11
 73
    15
  0
VERTEX
  5
1BC
  8
0
  6
BYBLOCK
 62
    33
 10
0.0
 20
0.0
 30
0.0
 70
   128
 71
     9
 72
   -15
 73
    11
  0
VERTEX
  5
1BD
  8
0
  6
BYBLOCK
 62
    33
 10
0.0
 20
0.0
 30
0.0
 70
   128
 71
    16
 72
   -17
 73
    18
  0
VERTEX
  5
1BE
  8
0
  6
BYBLOCK
 62
    33
 10
0.0
 20
0.0
 30
0.0
 70
   128
 71
    19
 72
   -18
 73
    17
  0
VERTEX
  5
1BF
  8
0
  6
BYBLOCK
 62
    33
 10
0.0
 20
0.0
 30
0.0
 70
   128
 71
    20
 72
   -21
 73
    22
  0
VERTEX
  5
1C0
  8
0
  6
BYBLOCK
 62
    33
 10
0.0
 20
0.0
 30
0.0
 70
   128
 71
    23
 72
   -22
 73
    21
  0
VERTEX
  5
1C1
  8
0
  6
BYBLOCK
 62
    33
 10
0.0
 20
0.0
 30
0.0
 70
   128
 71
    19
 72
   -24
 73
    25
  0
VERTEX
  5
1C2
  8
0
  6
BYBLOCK
 62
    33
 10
0.0
 20
0.0
 30
0.0
 70
   128
 71
    26
 72
   -25
 73
    24
  0
VERTEX
  5
1C3
  8
0
  6
BYBLOCK
 62
    33
 10
0.0
 20
0.0
 30
0.0
 70
   128
 71
    19
 72
   -23
 73
    24
  0
VERTEX
  5
1C4
  8
0
  6
BYBLOCK
 62
    33
 10
0.0
 20
0.0
 30
0.0
 70
   128
 71
    21
 72
   -24
 73
    23
  0
VERTEX
  5
1C5
  8
0
  6
BYBLOCK
 62
    33
 10
0.0
 20
0.0
 30
0.0
 70
   128
 71
     4
 72
   -27
 73
    28
  0
VERTEX
  5
1C6
  8
0
  6
BYBLOCK
 62
    33
 10
0.0
 20
0.0
 30
0.0
 70
   128
 71
    29
 72
   -28
 73
    27
  0
VERTEX
  5
1C7
  8
0
  6
BYBLOCK
 62
    33
 10
0.0
 20
0.0
 30
0.0
 70
   128
 71
     4
 72
   -28
 73
    30
  0
VERTEX
  5
1C8
  8
0
  6
BYBLOCK
 62
    33
 10
0.0
 20
0.0
 30
0.0
 70
   128
 71
    31
 72
   -30
 73
    28
  0
VERTEX
  5
1C9
  8
0
  6
BYBLOCK
 62
    33
 10
0.0
 20
0.0
 30
0.0
 70
   128
 71
    32
 72
   -29
 73
    33
  0
VERTEX
  5
1CA
  8
0
  6
BYBLOCK
 62
    33
 10
0.0
 20
0.0
 30
0.0
 70
   128
 71
    27
 72
   -33
 73
    29
  0
VERTEX
  5
1CB
  8
0
  6
BYBLOCK
 62
    33
 10
0.0
 20
0.0
 30
0.0
 70
   128
 71
    34
 72
   -35
 73
    36
  0
VERTEX
  5
1CC
  8
0
  6
BYBLOCK
 62
    33
 10
0.0
 20
0.0
 30
0.0
 70
   128
 71
    37
 72
   -36
 73
    35
  0
VERTEX
  5
1CD
  8
0
  6
BYBLOCK
 62
    33
 10
0.0
 20
0.0
 30
0.0
 70
   128
 71
    38
 72
   -39
 73
    40
  0
VERTEX
  5
1CE
  8
0
  6
BYBLOCK
 62
    33
 10
0.0
 20
0.0
 30
0.0
 70
   128
 71
    41
 72
   -40
 73
    39
  0
VERTEX
  5
1CF
  8
0
  6
BYBLOCK
 62
    33
 10
0.0
 20
0.0
 30
0.0
 70
   128
 71
    37
 72
   -42
 73
    43
  0
VERTEX
  5
1D0
  8
0
  6
BYBLOCK
 62
    33
 10
0.0
 20
0.0
 30
0.0
 70
   128
 71
    44
 72
   -43
 73
    42
  0
VERTEX
  5
1D1
  8
0
  6
BYBLOCK
 62
    33
 10
0.0
 20
0.0
 30
0.0
 70
   128
 71
    37
 72
   -41
 73
    42
  0
VERTEX
  5
1D2
  8
0
  6
BYBLOCK
 62
    33
 10
0.0
 20
0.0
 30
0.0
 70
   128
 71
    39
 72
   -42
 73
    41
  0
SEQEND
  5
1D3
  8
0
  6
BYBLOCK
 62
    33
  0
POLYLINE
  5
1D4
  8
0
  6
BYBLOCK
 62
     0
 66
     1
 10
0.0
 20
0.0
 30
0.0
 70
    64
 71
     8
 72
     4
1001
AVE_ENTITY_MATERIAL
1002
{
1000

1002
{
1071
        0
1070
     0
1070
     0
1002
{
1070
     0
1070
     0
1070
     0
1040
0.0
1002
}
1070
     0
1070
     0
1002
{
1002
}
1002
}
1002
{
1002
{
1071
        0
1070
     4
1002
}
1002
}
1002
{
1002
{
1071
        0
1002
{
1002
{
1040
1.0
1040
0.0
1070
     0
1002
}
1002
{
1040
1.0
1040
0.0
1070
     0
1002
}
1040
0.0
1002
}
1002
{
1040
16.0
1040
0.0
1040
0.0
1040
6.5
1040
0.0
1040
12.0
1040
0.0
1040
-5.5
1040
0.0
1040
0.0
1040
-12.0
1040
23.75
1070
     1
1002
{
1002
}
1070
     0
1002
}
1002
}
1002
}
1011
-0.4953
1021
-0.1524
1031
0.60325
1021
-0.1524
1031
0.60325
1011
-0.0889
1021
-0.1524
1031
0.60325
1021
-0.1524
1031
0.60325
1011
-0.4953
1021
0.1524
1031
0.60325
1021
0.1524
1031
0.60325
1011
-0.4953
1021
-0.1524
1031
0.29845
1021
-0.1524
1031
0.29845
1002
}
1001
AVE_FINISH
1002
{
1070
     0
1005
0
1002
}
  0
VERTEX
  5
1D5
  8
0
 10
-0.5841999999999999
 20
-0.254
 30
0.8128
 70
   192
  0
VERTEX
  5
1D6
  8
0
 10
-0.5841999999999999
 20
0.254
 30
0.8128
 70
   192
  0
VERTEX
  5
1D7
  8
0
 10
-0.6603999999999985
 20
-0.254
 30
0.8128
 70
   192
  0
VERTEX
  5
1D8
  8
0
 10
-0.6603999999999985
 20
0.254
 30
0.8128
 70
   192
  0
VERTEX
  5
1D9
  8
0
 10
-0.5461
 20
-0.254
 30
0.3937
 70
   192
  0
VERTEX
  5
1DA
  8
0
 10
0.0762
 20
-0.254
 30
0.3937
 70
   192
  0
VERTEX
  5
1DB
  8
0
 10
-0.5461
 20
0.254
 30
0.3937
 70
   192
  0
VERTEX
  5
1DC
  8
0
 10
0.0762
 20
0.254
 30
0.3937
 70
   192
  0
VERTEX
  5
1DD
  8
0
  6
BYBLOCK
 62
     0
 10
0.0
 20
0.0
 30
0.0
 70
   128
 71
     1
 72
    -2
 73
     3
  0
VERTEX
  5
1DE
  8
0
  6
BYBLOCK
 62
     0
 10
0.0
 20
0.0
 30
0.0
 70
   128
 71
     4
 72
    -3
 73
     2
  0
VERTEX
  5
1DF
  8
0
  6
BYBLOCK
 62
     0
 10
0.0
 20
0.0
 30
0.0
 70
   128
 71
     5
 72
    -6
 73
     7
  0
VERTEX
  5
1E0
  8
0
  6
BYBLOCK
 62
     0
 10
0.0
 20
0.0
 30
0.0
 70
   128
 71
     8
 72
    -7
 73
     6
  0
SEQEND
  5
1E1
  8
0
  6
BYBLOCK
 62
     0
  0
POLYLINE
  5
1FB
  8
0
  6
BYBLOCK
 62
     0
 66
     1
 10
0.0
 20
0.0
 30
0.0
 70
    64
 71
    16
 72
     8
1001
AVE_ENTITY_MATERIAL
1002
{
1000

1002
{
1071
        0
1070
     0
1070
     0
1002
{
1070
     0
1070
     0
1070
     0
1040
0.0
1002
}
1070
     0
1070
     0
1002
{
1002
}
1002
}
1002
{
1002
{
1071
        0
1070
     4
1002
}
1002
}
1002
{
1002
{
1071
        0
1002
{
1002
{
1040
1.0
1040
0.0
1070
     0
1002
}
1002
{
1040
1.0
1040
0.0
1070
     0
1002
}
1040
0.0
1002
}
1002
{
1040
0.0
1040
0.0
1040
12.0
1040
14.5
1040
0.0
1040
12.0
1040
0.0
1040
-5.5
1040
16.0
1040
0.0
1040
0.0
1040
14.25
1070
     1
1002
{
1002
}
1070
     0
1002
}
1002
}
1002
}
1011
-0.2921
1021
-0.1524
1031
0.36195
1021
-0.1524
1031
0.36195
1011
-0.2921
1021
-0.1524
1031
0.76835
1021
-0.1524
1031
0.76835
1011
-0.2921
1021
0.1524
1031
0.36195
1021
0.1524
1031
0.36195
1011
0.0127
1021
-0.1524
1031
0.36195
1021
-0.1524
1031
0.36195
1002
}
1001
AVE_FINISH
1002
{
1070
     0
1005
0
1002
}
  0
VERTEX
  5
1FC
  8
0
 10
-0.5715
 20
-0.254
 30
0.5588
 70
   192
  0
VERTEX
  5
1FD
  8
0
 10
-0.5715
 20
0.254
 30
0.5588
 70
   192
  0
VERTEX
  5
1FE
  8
0
 10
-0.6603999999999985
 20
-0.254
 30
0.8128
 70
   192
  0
VERTEX
  5
1FF
  8
0
 10
-0.6603999999999985
 20
0.254
 30
0.8128
 70
   192
  0
VERTEX
  5
200
  8
0
 10
-0.4953
 20
-0.254
 30
0.5588
 70
   192
  0
VERTEX
  5
201
  8
0
 10
-0.4953
 20
0.254
 30
0.5588
 70
   192
  0
VERTEX
  5
202
  8
0
 10
-0.5841999999999999
 20
-0.254
 30
0.8128
 70
   192
  0
VERTEX
  5
203
  8
0
 10
-0.5841999999999999
 20
0.254
 30
0.8128
 70
   192
  0
VERTEX
  5
204
  8
0
 10
-0.5461
 20
0.254
 30
0.3937
 70
   192
  0
VERTEX
  5
205
  8
0
 10
-0.5461
 20
-0.254
 30
0.3937
 70
   192
  0
VERTEX
  5
206
  8
0
 10
-0.5461
 20
0.254
 30
0.3175
 70
   192
  0
VERTEX
  5
207
  8
0
 10
-0.5461
 20
-0.254
 30
0.3175
 70
   192
  0
VERTEX
  5
208
  8
0
 10
0.0762
 20
0.254
 30
0.3937
 70
   192
  0
VERTEX
  5
209
  8
0
 10
0.0762
 20
-0.254
 30
0.3937
 70
   192
  0
VERTEX
  5
20A
  8
0
 10
0.0762
 20
0.254
 30
0.3175
 70
   192
  0
VERTEX
  5
20B
  8
0
 10
0.0762
 20
-0.254
 30
0.3175
 70
   192
  0
VERTEX
  5
20C
  8
0
  6
BYBLOCK
 62
     0
 10
0.0
 20
0.0
 30
0.0
 70
   128
 71
     1
 72
    -2
 73
     3
  0
VERTEX
  5
20D
  8
0
  6
BYBLOCK
 62
     0
 10
0.0
 20
0.0
 30
0.0
 70
   128
 71
     4
 72
    -3
 73
     2
  0
VERTEX
  5
20E
  8
0
  6
BYBLOCK
 62
     0
 10
0.0
 20
0.0
 30
0.0
 70
   128
 71
     5
 72
    -6
 73
     7
  0
VERTEX
  5
20F
  8
0
  6
BYBLOCK
 62
     0
 10
0.0
 20
0.0
 30
0.0
 70
   128
 71
     8
 72
    -7
 73
     6
  0
VERTEX
  5
210
  8
0
  6
BYBLOCK
 62
     0
 10
0.0
 20
0.0
 30
0.0
 70
   128
 71
     9
 72
   -10
 73
    11
  0
VERTEX
  5
211
  8
0
  6
BYBLOCK
 62
     0
 10
0.0
 20
0.0
 30
0.0
 70
   128
 71
    12
 72
   -11
 73
    10
  0
VERTEX
  5
212
  8
0
  6
BYBLOCK
 62
     0
 10
0.0
 20
0.0
 30
0.0
 70
   128
 71
    13
 72
   -14
 73
    15
  0
VERTEX
  5
213
  8
0
  6
BYBLOCK
 62
     0
 10
0.0
 20
0.0
 30
0.0
 70
   128
 71
    16
 72
   -15
 73
    14
  0
SEQEND
  5
214
  8
0
  6
BYBLOCK
 62
     0
  0
POLYLINE
  5
215
  8
0
  6
BYBLOCK
 62
     0
 66
     1
 10
0.0
 20
0.0
 30
0.0
 70
    64
 71
    16
 72
     8
1001
AVE_ENTITY_MATERIAL
1002
{
1000

1002
{
1071
        0
1070
     0
1070
     0
1002
{
1070
     0
1070
     0
1070
     0
1040
0.0
1002
}
1070
     0
1070
     0
1002
{
1002
}
1002
}
1002
{
1002
{
1071
        0
1070
     4
1002
}
1002
}
1002
{
1002
{
1071
        0
1002
{
1002
{
1040
1.0
1040
0.0
1070
     0
1002
}
1002
{
1040
1.0
1040
0.0
1070
     0
1002
}
1040
0.0
1002
}
1002
{
1040
16.0
1040
0.0
1040
0.0
1040
6.5
1040
0.0
1040
0.0
1040
12.0
1040
0.5
1040
0.0
1040
12.0
1040
0.0
1040
16.25
1070
     1
1002
{
1002
}
1070
     0
1002
}
1002
}
1002
}
1011
-0.4953
1021
0.0
1031
0.41275
1021
0.0
1031
0.41275
1011
-0.0889
1021
0.0
1031
0.41275
1021
0.0
1031
0.41275
1011
-0.4953
1021
0.0
1031
0.71755
1021
0.0
1031
0.71755
1011
-0.4953
1021
0.3048
1031
0.41275
1021
0.3048
1031
0.41275
1002
}
1001
AVE_FINISH
1002
{
1070
     0
1005
0
1002
}
  0
VERTEX
  5
216
  8
0
 10
-0.5841999999999999
 20
0.254
 30
0.8128
 70
   192
  0
VERTEX
  5
217
  8
0
 10
-0.4953
 20
0.254
 30
0.5588
 70
   192
  0
VERTEX
  5
218
  8
0
 10
-0.6603999999999985
 20
0.254
 30
0.8128
 70
   192
  0
VERTEX
  5
219
  8
0
 10
-0.5715
 20
0.254
 30
0.5588
 70
   192
  0
VERTEX
  5
21A
  8
0
 10
-0.5841999999999999
 20
-0.254
 30
0.8128
 70
   192
  0
VERTEX
  5
21B
  8
0
 10
-0.4953
 20
-0.254
 30
0.5588
 70
   192
  0
VERTEX
  5
21C
  8
0
 10
-0.6603999999999985
 20
-0.254
 30
0.8128
 70
   192
  0
VERTEX
  5
21D
  8
0
 10
-0.5715
 20
-0.254
 30
0.5588
 70
   192
  0
VERTEX
  5
21E
  8
0
 10
-0.5461
 20
-0.254
 30
0.3937
 70
   192
  0
VERTEX
  5
21F
  8
0
 10
0.0762
 20
-0.254
 30
0.3937
 70
   192
  0
VERTEX
  5
220
  8
0
 10
-0.5461
 20
-0.254
 30
0.3175
 70
   192
  0
VERTEX
  5
221
  8
0
 10
0.0762
 20
-0.254
 30
0.3175
 70
   192
  0
VERTEX
  5
222
  8
0
 10
-0.5461
 20
0.254
 30
0.3937
 70
   192
  0
VERTEX
  5
223
  8
0
 10
0.0762
 20
0.254
 30
0.3937
 70
   192
  0
VERTEX
  5
224
  8
0
 10
-0.5461
 20
0.254
 30
0.3175
 70
   192
  0
VERTEX
  5
225
  8
0
 10
0.0762
 20
0.254
 30
0.3175
 70
   192
  0
VERTEX
  5
226
  8
0
  6
BYBLOCK
 62
     0
 10
0.0
 20
0.0
 30
0.0
 70
   128
 71
     1
 72
    -2
 73
     3
  0
VERTEX
  5
227
  8
0
  6
BYBLOCK
 62
     0
 10
0.0
 20
0.0
 30
0.0
 70
   128
 71
     4
 72
    -3
 73
     2
  0
VERTEX
  5
228
  8
0
  6
BYBLOCK
 62
     0
 10
0.0
 20
0.0
 30
0.0
 70
   128
 71
     5
 72
    -6
 73
     7
  0
VERTEX
  5
229
  8
0
  6
BYBLOCK
 62
     0
 10
0.0
 20
0.0
 30
0.0
 70
   128
 71
     8
 72
    -7
 73
     6
  0
VERTEX
  5
22A
  8
0
  6
BYBLOCK
 62
     0
 10
0.0
 20
0.0
 30
0.0
 70
   128
 71
     9
 72
   -10
 73
    11
  0
VERTEX
  5
22B
  8
0
  6
BYBLOCK
 62
     0
 10
0.0
 20
0.0
 30
0.0
 70
   128
 71
    12
 72
   -11
 73
    10
  0
VERTEX
  5
22C
  8
0
  6
BYBLOCK
 62
     0
 10
0.0
 20
0.0
 30
0.0
 70
   128
 71
    13
 72
   -14
 73
    15
  0
VERTEX
  5
22D
  8
0
  6
BYBLOCK
 62
     0
 10
0.0
 20
0.0
 30
0.0
 70
   128
 71
    16
 72
   -15
 73
    14
  0
SEQEND
  5
22E
  8
0
  6
BYBLOCK
 62
     0
  0
INSERT
  5
F26
  8
0
  6
BYBLOCK
 62
     0
  2
AVE_RENDER
 10
-0.6604
 20
-0.0127
 30
0.0
 41
0.0254
 42
0.0254
 43
0.0254
1001
AVE_RENDER
1002
{
1070
     3
1000
Pref
1070
    50
1070
    20
1070
     1
1070
     0
1000

1070
    10
1070
     1
1070
    30
1040
1.0
1070
     1
1040
0.3
1040
0.7
1040
0.0
1040
10.0
1010
-1.0
1020
-1.0
1030
-1.0
1040
0.3
1070
    49
1070
     0
1070
     0
1002
}
  0
INSERT
  5
F27
  8
0
  6
BYBLOCK
 62
     0
  2
AVE_RENDER
 10
-0.6604
 20
-0.0127
 30
0.0
 41
0.0254
 42
0.0254
 43
0.0254
1001
AVE_RENDER
1002
{
1070
     0
1000
Full Opt
1070
     0
1070
     1
1070
     1
1070
     1
1070
     0
1070
     0
1070
     0
1070
     1
1070
     1
1040
0.0001
1040
0.0001
1002
}
  0
INSERT
  5
F28
  8
0
  6
BYBLOCK
 62
     0
  2
AVE_RENDER
 10
-0.6604
 20
-0.0127
 30
0.0
 41
0.0254
 42
0.0254
 43
0.0254
1001
AVE_RENDER
1002
{
1070
     0
1000
Quick Opt
1070
     0
1070
     1
1070
     1
1070
     1
1070
     0
1070
     0
1070
     1
1002
}
  0
INSERT
  5
F29
  8
0
  6
BYBLOCK
 62
     0
  2
AVE_RENDER
 10
-0.6604
 20
-0.0127
 30
0.0
 41
0.0254
 42
0.0254
 43
0.0254
1001
AVE_RENDER
1002
{
1070
     0
1000
Scanl Opt
1070
     2
1070
     0
1070
     2
1040
2.0
1040
4.0
1070
     0
1070
     1
1002
}
  0
INSERT
  5
F2A
  8
0
  6
BYBLOCK
 62
     0
  2
AVE_RENDER
 10
-0.6604
 20
-0.0127
 30
0.0
 41
0.0254
 42
0.0254
 43
0.0254
1001
AVE_RENDER
1002
{
1070
     1
1000
Raytr Opt
1070
     2
1070
     0
1070
     2
1040
2.0
1040
4.0
1070
     0
1070
     1
1070
     3
1002
}
  0
INSERT
  5
F2D
  8
0
  6
BYBLOCK
 62
     0
  2
AVE_GLOBAL
 10
-0.6604
 20
-0.0127
 30
0.0
 41
0.0254
 42
0.0254
 43
0.0254
1001
AVE_MATERIAL
1002
{
1000
*GLOBAL*
1000

1000
Global finish.
1002
{
1002
}
1002
{
1070
    63
1002
{
1002
{
1010
0.0
1020
0.0
1030
0.0
1002
}
1040
1.0
1000

1040
0.0
1002
{
1002
}
1040
0.0
1002
{
1002
}
1040
0.0
1002
}
1002
{
1002
{
1010
-1.0
1020
-1.0
1030
-1.0
1002
}
1040
1.0
1000

1040
0.0
1002
{
1002
}
1040
0.0
1002
{
1002
}
1040
0.0
1002
}
1002
{
1002
{
1010
1.0
1020
1.0
1030
1.0
1002
}
1040
1.0
1000

1040
0.0
1002
{
1002
}
1040
0.0
1002
{
1002
}
1040
0.0
1002
}
1002
{
1070
     0
1002
{
1070
     1
1002
{
1040
1.0
1040
1.0
1000

1040
0.0
1002
{
1002
}
1040
0.0
1002
{
1002
}
1040
0.0
1002
}
1002
}
1040
1.0
1040
0.0
1040
0.0
1002
}
1002
{
1040
1.0
1040
1.0
1000

1040
0.0
1002
{
1002
}
1040
0.0
1002
{
1002
}
1040
0.0
1002
}
1002
{
1040
0.5
1040
1.0
1000

1040
0.0
1002
{
1002
}
1040
0.0
1002
{
1002
}
1040
0.0
1002
}
1002
{
1070
     0
1040
0.0
1002
{
1002
}
1040
1.0
1002
{
1002
}
1040
0.0
1002
}
1002
{
1040
0.0
1002
{
1002
{
1010
0.0
1020
0.0
1030
0.0
1002
}
1040
1.0
1000

1040
0.0
1002
{
1002
}
1040
0.0
1002
{
1002
}
1040
0.0
1002
}
1002
}
1002
{
1002
{
1070
     1
1002
{
1040
0.0
1040
1.0
1000

1040
0.0
1002
{
1002
}
1040
0.0
1002
{
1002
}
1040
0.0
1002
}
1002
}
1040
0.0
1002
{
1002
}
1010
1.0
1020
0.0
1030
0.0
1010
0.0
1020
1.0
1030
0.0
1010
0.0
1020
0.0
1030
1.0
1070
     0
1002
}
1002
{
1002
{
1040
1.0
1040
1.0
1002
{
1070
     1
1002
{
1040
1.0
1040
1.0
1000

1040
0.0
1002
{
1002
}
1040
0.0
1002
{
1002
}
1040
0.0
1002
}
1002
}
1002
}
1070
     0
1040
0.0
1002
{
1002
}
1002
}
1002
{
1002
}
1002
}
1002
{
1071
        0
1070
     3
1070
     0
1002
{
1070
     2
1070
     0
1070
     0
1040
0.0
1002
}
1070
     0
1070
     2
1002
{
1002
}
1002
}
1002
}
  0
INSERT
  5
F87
  8
ASHADE
 66
     1
  2
RM_SDB
 10
0.0
 20
0.0
 30
0.0
1001
AVE_MATERIAL
1002
{
1000
WOOD - MED. ASH
1000
0.11
1000

1002
{
1002
}
1002
{
1070
    39
1002
{
1002
{
1010
0.0
1020
0.0
1030
0.0
1002
}
1040
1.0
1000

1040
0.0
1002
{
1002
}
1040
0.0
1002
{
1002
}
1040
0.0
1002
}
1002
{
1002
{
1010
0.0
1020
0.0
1030
0.0
1002
}
1040
1.0
1000

1040
0.0
1002
{
1002
{
1070
     1
1002
{
1002
{
1000
ASHSEN.TGA
1002
{
1002
}
1070
     3
1070
     0
1002
{
1002
}
1002
}
1002
{
1002
{
1040
1.0
1040
0.0
1070
     1
1002
}
1002
{
1040
1.0
1040
0.0
1070
     1
1002
}
1040
0.0
1002
}
1002
}
1002
}
1002
{
1002
}
1002
}
1040
1.0
1002
{
1002
}
1040
0.0
1002
}
1002
{
1002
{
1010
0.8235294222831726
1020
0.8156862854957581
1030
0.7843137383460999
1002
}
1040
1.0
1000

1040
0.0
1002
{
1002
}
1040
0.0
1002
{
1002
}
1040
0.0
1002
}
1002
{
1070
     0
1002
{
1070
     1
1002
{
1040
1.0
1040
1.0
1000

1040
0.0
1002
{
1002
}
1040
0.0
1002
{
1002
}
1040
0.0
1002
}
1002
}
1040
0.0
1040
0.0
1040
0.0
1002
}
1002
{
1040
0.0
1040
0.0
1000

1040
0.0
1002
{
1002
}
1040
0.0
1002
{
1002
}
1040
0.0
1002
}
1002
{
1040
0.8500000238418579
1040
1.0
1000

1040
0.0
1002
{
1002
}
1040
0.0
1002
{
1002
}
1040
0.0
1002
}
1002
{
1070
     0
1040
0.0
1002
{
1002
}
1040
0.0
1002
{
1002
}
1040
0.0
1002
}
1002
{
1040
0.0
1002
{
1002
{
1010
0.0
1020
0.0
1030
0.0
1002
}
1040
0.0
1000

1040
0.0
1002
{
1002
}
1040
0.0
1002
{
1002
}
1040
0.0
1002
}
1002
}
1002
{
1002
{
1070
     1
1002
{
1040
0.0
1040
1.0
1000

1040
0.0
1002
{
1002
}
1040
0.0
1002
{
1002
}
1040
0.0
1002
}
1002
}
1040
0.0
1002
{
1002
}
1010
0.0
1020
0.0
1030
0.0
1010
0.0
1020
0.0
1030
0.0
1010
0.0
1020
0.0
1030
0.0
1070
     0
1002
}
1002
{
1002
{
1040
0.0
1040
0.0
1002
{
1070
     0
1002
}
1002
}
1070
     0
1040
0.0
1002
{
1002
}
1002
}
1002
{
1002
}
1002
}
1002
{
1071
        0
1070
     3
1070
     0
1002
{
1070
     2
1070
     1
1070
     0
1040
0.0
1002
}
1070
     0
1070
     0
1002
{
1002
}
1002
}
1002
}
  0
ATTRIB
  5
F88
  8
ASHADE
  6
CONTINUOUS
 62
     1
 10
-1.438095238095238
 20
-0.15
 30
0.0
 40
0.2
  1
WOOD - MED. ASH
  7
ASHADE
 72
     1
 11
0.0000000000000001
 21
-0.15
 31
0.0
  2
NAME
 70
     0
  0
ATTRIB
  5
F89
  8
ASHADE
  6
CONTINUOUS
 62
     1
 10
0.2300000000000001
 20
-0.4750000000000001
 30
0.0000000000000002
 40
0.1000000000000001
  1
 
  7
ASHADE
  2
ACADCOLOR
 70
     0
  0
ATTRIB
  5
F8A
  8
ASHADE
  6
CONTINUOUS
 62
     7
 10
-0.1499999999999999
 20
-0.19
 30
0.0
 40
0.01
  1
0.0000,0.0000,0.0000
  7
STANDARD
  2
COLOR
 70
     1
  0
ATTRIB
  5
F8B
  8
ASHADE
  6
CONTINUOUS
 62
     7
 10
-0.1499999999999999
 20
-0.205
 30
0.0
 40
0.01
  1
1.0,1.0,1.0
  7
STANDARD
  2
OPACITY
 70
     1
  0
ATTRIB
  5
F8C
  8
ASHADE
  6
CONTINUOUS
 62
     7
 10
-0.1499999999999999
 20
-0.22
 30
0.0
 40
0.01
  1
("nullsurf" "")
  7
STANDARD
  2
SURFACE
 70
     1
  0
ATTRIB
  5
F8D
  8
ASHADE
  6
CONTINUOUS
 62
     7
 10
-0.1499999999999999
 20
-0.235
 30
0.0
 40
0.01
  1
(11 "Ka" "1")(11 "Kd" "1")(11 "Ks" "1")(11 "roughness" "0.85")
  7
STANDARD
  2
SURF1
 70
     1
  0
ATTRIB
  5
F8E
  8
ASHADE
  6
CONTINUOUS
 62
     7
 10
-0.1499999999999999
 20
-0.25
 30
0.0
 40
0.01
  1

  7
STANDARD
  2
SURF2
 70
     1
  0
ATTRIB
  5
F8F
  8
ASHADE
  6
CONTINUOUS
 62
     7
 10
-0.1499999999999999
 20
-0.265
 30
0.0
 40
0.01
  1

  7
STANDARD
  2
SURF3
 70
     1
  0
ATTRIB
  5
F90
  8
ASHADE
  6
CONTINUOUS
 62
     7
 10
-0.1499999999999999
 20
-0.2799999999999999
 30
0.0
 40
0.01
  1

  7
STANDARD
  2
SURF4
 70
     1
  0
ATTRIB
  5
F91
  8
ASHADE
  6
CONTINUOUS
 62
     7
 10
-0.1499999999999999
 20
-0.295
 30
0.0
 40
0.01
  1
-1.0
  7
STANDARD
  2
SHADINGRATE
 70
     1
  0
ATTRIB
  5
F92
  8
ASHADE
  6
CONTINUOUS
 62
     7
 10
-0.1499999999999999
 20
-0.31
 30
0.0
 40
0.01
  1
("nulldisp" "")
  7
STANDARD
  2
DISPLACEMENT
 70
     1
  0
ATTRIB
  5
F93
  8
ASHADE
  6
CONTINUOUS
 62
     7
 10
-0.1499999999999999
 20
-0.325
 30
0.0
 40
0.01
  1

  7
STANDARD
  2
DISP1
 70
     1
  0
ATTRIB
  5
F94
  8
ASHADE
  6
CONTINUOUS
 62
     7
 10
-0.1499999999999999
 20
-0.34
 30
0.0
 40
0.01
  1

  7
STANDARD
  2
DISP2
 70
     1
  0
ATTRIB
  5
F95
  8
ASHADE
  6
CONTINUOUS
 62
     7
 10
-0.1499999999999999
 20
-0.355
 30
0.0
 40
0.01
  1

  7
STANDARD
  2
DISP3
 70
     1
  0
ATTRIB
  5
F96
  8
ASHADE
  6
CONTINUOUS
 62
     7
 10
-0.1499999999999999
 20
-0.3699999999999999
 30
0.0
 40
0.01
  1

  7
STANDARD
  2
DISP4
 70
     1
  0
ATTRIB
  5
F97
  8
ASHADE
  6
CONTINUOUS
 62
     7
 10
-0.1499999999999999
 20
-0.3849999999999998
 30
0.0
 40
0.01
  1
0.0
  7
STANDARD
  2
DBOUND
 70
     1
  0
ATTRIB
  5
F98
  8
ASHADE
  6
CONTINUOUS
 62
     7
 10
-0.1499999999999999
 20
-0.4
 30
0.0
 40
0.01
  1
0
  7
STANDARD
  2
SMOOTH
 70
     1
  0
ATTRIB
  5
F99
  8
ASHADE
  6
CONTINUOUS
 62
     7
 10
-0.1499999999999999
 20
-0.415
 30
0.0
 40
0.01
  1
("" "")
  7
STANDARD
  2
ATMOSPHERE
 70
     1
  0
ATTRIB
  5
F9A
  8
ASHADE
  6
CONTINUOUS
 62
     7
 10
-0.15
 20
-0.4302404735808357
 30
0.0
 40
0.01
  1

  7
STANDARD
  2
ATMO1
 70
     1
  0
ATTRIB
  5
F9B
  8
ASHADE
  6
CONTINUOUS
 62
     7
 10
-0.15
 20
-0.4452404735808357
 30
0.0
 40
0.01
  1

  7
STANDARD
  2
ATMO2
 70
     1
  0
ATTRIB
  5
F9C
  8
ASHADE
  6
CONTINUOUS
 62
     7
 10
-0.15
 20
-0.4602404735808357
 30
0.0
 40
0.01
  1

  7
STANDARD
  2
ATMO3
 70
     1
  0
ATTRIB
  5
F9D
  8
ASHADE
  6
CONTINUOUS
 62
     7
 10
-0.15
 20
-0.4752404735808357
 30
0.0
 40
0.01
  1

  7
STANDARD
  2
ATMO4
 70
     1
  0
ATTRIB
  5
F9E
  8
ASHADE
  6
CONTINUOUS
 62
     7
 10
-0.1499999999999999
 20
-0.49
 30
0.0
 40
0.01
  1
0.0 0.0 1.0 0.0 0.0 1.0 1.0 1.0
  7
STANDARD
  2
TCOORD
 70
     1
  0
SEQEND
  5
F9F
  8
ASHADE
  0
POLYLINE
  5
FE2
  8
_KTI_CONTROL
 10
0.0
 20
0.0
 30
0.0
 66
     1
 70
     8
1001
_KTI_ARCHT
1070
 12000
1000
ENVIRONMENT
1070
 10003
1000
12zstg06
1070
 20000
1000
standard
1070
 20001
1000
c:\program files\ketiv\archt
1070
 20003
1000
d:\archt
1070
 20002
1000
c:\program files\ketiv\archt\tmp
1070
 20004
1002
{
1000
c:\program files\ketiv\archt\blks
1000
c:\program files\ketiv\archt\blks3d
1000
e:\archt\blks
1000
e:\archt\blks3d
1000
d:\archt\blks
1000
d:\archt\blks3d
1002
}
1070
 20005
1002
{
1000
c:\program files\ketiv\archt\slds
1002
}
1070
 20006
1002
{
1000
c:\program files\ketiv\archt\dclswin
1002
}
1070
 20007
1002
{
1000
c:\program files\ketiv\archt\docs
1000
e:\archt\docs
1000
d:\archt\docs
1002
}
1070
 20008
1002
{
1000
c:\program files\ketiv\archt\help
1002
}
  0
VERTEX
  5
FE3
  8
_KTI_CONTROL
 10
0.0
 20
0.0
 30
0.0
 70
    32
  0
VERTEX
  5
FE4
  8
_KTI_CONTROL
 10
0.0
 20
0.0
 30
0.0
 70
    32
  0
SEQEND
  5
FE5
  8
_KTI_CONTROL
  0
POLYLINE
  5
FE6
  8
_KTI_CONTROL
 10
0.0
 20
0.0
 30
0.0
 66
     1
 70
     8
1001
_KTI_ARCHT
1070
 12000
1000
ARCHTVARS
1070
 10003
1000
12zstg06
1070
 12030
1000
in
1070
 12020
1070
     1
1070
 12021
1070
     0
1070
 12070
1070
     0
1070
 12071
1070
     1
1070
 12907
1070
     0
1070
 12913
1070
     1
1070
 12914
1070
     1
1070
 12072
1070
     2
1070
 12073
1070
    48
1070
 12074
1070
     0
1070
 12080
1070
     1
1070
 12092
1070
     1
1070
 12096
1070
     0
1070
 12095
1070
     0
1070
 12081
1070
     1
1070
 12082
1070
     1
1070
 12083
1070
     1
1070
 12084
1070
     1
1070
 12085
1070
     0
1070
 12086
1070
     1
1070
 12087
1070
     0
1070
 12088
1070
     0
1070
 12097
1070
     1
1070
 12089
1070
     4
1070
 12090
1070
     6
1070
 12091
1070
     1
1070
 12045
1000
standard
1070
 12046
1000

1070
 12047
1000
standard
1070
 12048
1000

1070
 12049
1000

1070
 12093
1070
     1
1070
 12094
1070
     1
1070
 12908
1070
     0
1070
 12909
1070
     0
1070
 12911
1070
     0
1070
 12910
1070
     0
1070
 12912
1070
     0
1070
 12098
1070
   800
1070
 12060
1002
{
1000

1000

1000

1000

1002
}
1070
 12904
1002
{
1070
     0
1070
     0
1070
     0
1070
     0
1070
     0
1002
}
1070
 12905
1002
{
1040
0.0
1040
0.0
1040
0.0
1040
0.0
1040
0.0
1002
}
1070
 12906
1002
{
1000

1000

1000

1000

1000

1002
}
1070
 12040
1002
{
1002
}
  0
VERTEX
  5
FE7
  8
_KTI_CONTROL
 10
0.0
 20
0.0
 30
0.0
 70
    32
  0
VERTEX
  5
FE8
  8
_KTI_CONTROL
 10
0.0
 20
0.0
 30
0.0
 70
    32
  0
SEQEND
  5
FE9
  8
_KTI_CONTROL
  0
ENDSEC
  0
EOF
