  0
SECTION
  2
HEADER
  9
$ACADVER
  1
AC1009
  9
$DWGCODEPAGE
  3
ansi_1252
  9
$INSBASE
 10
0.0
 20
0.0
 30
0.0
  9
$EXTMIN
 10
-1.220129061708576
 20
-0.4459736882439529
 30
-0.0010538574994428
  9
$EXTMAX
 10
0.0268046969558782
 20
0.4450378841811471
 30
1.013964183520343
  9
$LIMMIN
 10
0.0
 20
0.0
  9
$LIMMAX
 10
480.0
 20
360.0
  9
$ORTHOMODE
 70
     1
  9
$REGENMODE
 70
     1
  9
$FILLMODE
 70
     0
  9
$QTEXTMODE
 70
     0
  9
$MIRRTEXT
 70
     1
  9
$DRAGMODE
 70
     2
  9
$LTSCALE
 40
2.0
  9
$OSMODE
 70
    37
  9
$ATTMODE
 70
     1
  9
$TEXTSIZE
 40
1.0
  9
$TRACEWID
 40
0.05
  9
$TEXTSTYLE
  7
ST
  9
$CLAYER
  8
0
  9
$CELTYPE
  6
BYLAYER
  9
$CECOLOR
 62
   256
  9
$DIMSCALE
 40
1.0
  9
$DIMASZ
 40
0.125
  9
$DIMEXO
 40
0.0625
  9
$DIMDLI
 40
0.3799999999999999
  9
$DIMRND
 40
0.0
  9
$DIMDLE
 40
0.0
  9
$DIMEXE
 40
0.18
  9
$DIMTP
 40
0.0
  9
$DIMTM
 40
0.0
  9
$DIMTXT
 40
0.11
  9
$DIMCEN
 40
0.09
  9
$DIMTSZ
 40
0.0
  9
$DIMTOL
 70
     0
  9
$DIMLIM
 70
     0
  9
$DIMTIH
 70
     0
  9
$DIMTOH
 70
     0
  9
$DIMSE1
 70
     0
  9
$DIMSE2
 70
     0
  9
$DIMTAD
 70
     1
  9
$DIMZIN
 70
     1
  9
$DIMBLK
  1

  9
$DIMASO
 70
     0
  9
$DIMSHO
 70
     0
  9
$DIMPOST
  1

  9
$DIMAPOST
  1

  9
$DIMALT
 70
     0
  9
$DIMALTD
 70
     2
  9
$DIMALTF
 40
25.4
  9
$DIMLFAC
 40
1.0
  9
$DIMTOFL
 70
     0
  9
$DIMTVP
 40
0.0
  9
$DIMTIX
 70
     0
  9
$DIMSOXD
 70
     0
  9
$DIMSAH
 70
     0
  9
$DIMBLK1
  1

  9
$DIMBLK2
  1

  9
$DIMSTYLE
  2
STANDARD
  9
$DIMCLRD
 70
     0
  9
$DIMCLRE
 70
     0
  9
$DIMCLRT
 70
     0
  9
$DIMTFAC
 40
1.0
  9
$DIMGAP
 40
0.09
  9
$LUNITS
 70
     2
  9
$LUPREC
 70
     4
  9
$SKETCHINC
 40
0.1
  9
$FILLETRAD
 40
0.0
  9
$AUNITS
 70
     0
  9
$AUPREC
 70
     4
  9
$MENU
  1
acad
  9
$ELEVATION
 40
0.0
  9
$PELEVATION
 40
0.0
  9
$THICKNESS
 40
0.0
  9
$LIMCHECK
 70
     0
  9
$CHAMFERA
 40
0.0
  9
$CHAMFERB
 40
0.0
  9
$SKPOLY
 70
     0
  9
$TDCREATE
 40
2449737.479982639
  9
$TDUPDATE
 40
2457521.808946759
  9
$TDINDWG
 40
0.0038613773
  9
$TDUSRTIMER
 40
0.0038613773
  9
$USRTIMER
 70
     1
  9
$ANGBASE
 50
0.0
  9
$ANGDIR
 70
     0
  9
$PDMODE
 70
     0
  9
$PDSIZE
 40
0.0
  9
$PLINEWID
 40
0.0
  9
$COORDS
 70
     1
  9
$SPLFRAME
 70
     0
  9
$SPLINETYPE
 70
     6
  9
$SPLINESEGS
 70
     8
  9
$ATTDIA
 70
     0
  9
$ATTREQ
 70
     1
  9
$HANDLING
 70
     1
  9
$HANDSEED
  5
9BC
  9
$SURFTAB1
 70
     6
  9
$SURFTAB2
 70
     6
  9
$SURFTYPE
 70
     6
  9
$SURFU
 70
     6
  9
$SURFV
 70
     6
  9
$UCSNAME
  2

  9
$UCSORG
 10
0.0
 20
0.0
 30
0.0
  9
$UCSXDIR
 10
1.0
 20
0.0
 30
0.0
  9
$UCSYDIR
 10
0.0
 20
1.0
 30
0.0
  9
$PUCSNAME
  2

  9
$PUCSORG
 10
0.0
 20
0.0
 30
0.0
  9
$PUCSXDIR
 10
1.0
 20
0.0
 30
0.0
  9
$PUCSYDIR
 10
0.0
 20
1.0
 30
0.0
  9
$USERI1
 70
     0
  9
$USERI2
 70
     0
  9
$USERI3
 70
     0
  9
$USERI4
 70
     0
  9
$USERI5
 70
     0
  9
$USERR1
 40
0.0
  9
$USERR2
 40
0.0
  9
$USERR3
 40
0.0
  9
$USERR4
 40
0.0
  9
$USERR5
 40
1.0
  9
$WORLDVIEW
 70
     0
  9
$SHADEDGE
 70
     3
  9
$SHADEDIF
 70
    70
  9
$TILEMODE
 70
     1
  9
$MAXACTVP
 70
    16
  9
$PLIMCHECK
 70
     0
  9
$PEXTMIN
 10
1.000000000000000E+20
 20
1.000000000000000E+20
 30
1.000000000000000E+20
  9
$PEXTMAX
 10
-1.000000000000000E+20
 20
-1.000000000000000E+20
 30
-1.000000000000000E+20
  9
$PLIMMIN
 10
0.0
 20
0.0
  9
$PLIMMAX
 10
12.0
 20
9.0
  9
$UNITMODE
 70
     0
  9
$VISRETAIN
 70
     0
  9
$PLINEGEN
 70
     0
  9
$PSLTSCALE
 70
     0
  0
ENDSEC
  0
SECTION
  2
TABLES
  0
TABLE
  2
VPORT
 70
     1
  0
VPORT
  2
*ACTIVE
 70
     0
 10
0.0
 20
0.0
 11
1.0
 21
1.0
 12
-0.4573705108569774
 22
0.6131145432390471
 13
0.0
 23
0.0
 14
1.0
 24
1.0
 15
12.0
 25
12.0
 16
1.032271612955968
 26
-1.230213403273295
 36
0.6488376526466564
 17
0.0
 27
0.0
 37
0.0
 40
1.51557021664779
 41
1.56198347107438
 42
50.0
 43
0.0
 44
0.0
 50
0.0
 51
0.0
 71
     0
 72
  2000
 73
     1
 74
     1
 75
     0
 76
     0
 77
     0
 78
     0
  0
ENDTAB
  0
TABLE
  2
LTYPE
 70
     1
  0
LTYPE
  2
CONTINUOUS
 70
     0
  3
Solid line
 72
    65
 73
     0
 40
0.0
  0
ENDTAB
  0
TABLE
  2
LAYER
 70
     3
  0
LAYER
  2
0
 70
     0
 62
     7
  6
CONTINUOUS
  0
LAYER
  2
ASHADE
 70
     1
 62
     7
  6
CONTINUOUS
  0
LAYER
  2
_KTI_CONTROL
 70
     5
 62
     7
  6
CONTINUOUS
  0
ENDTAB
  0
TABLE
  2
STYLE
 70
     3
  0
STYLE
  2
ST
 70
     0
 40
0.0
 41
1.0
 50
0.0
 71
     0
 42
0.100000000000017
  3
SIMPLEX
  4

  0
STYLE
  2
ASHADE
 70
     0
 40
0.2
 41
1.0
 50
0.0
 71
     0
 42
1.0
  3
simplex
  4

  0
STYLE
  2
STANDARD
 70
     0
 40
0.0
 41
1.0
 50
0.0
 71
     0
 42
0.05
  3
txt
  4

  0
ENDTAB
  0
TABLE
  2
VIEW
 70
     0
  0
ENDTAB
  0
TABLE
  2
UCS
 70
     0
  0
ENDTAB
  0
TABLE
  2
APPID
 70
     6
  0
APPID
  2
ACAD
 70
     0
  0
APPID
  2
AVE_FINISH
 70
     0
  0
APPID
  2
AVE_ENTITY_MATERIAL
 70
     0
  0
APPID
  2
AVE_RENDER
 70
     0
  0
APPID
  2
AVE_MATERIAL
 70
     0
  0
APPID
  2
_KTI_ARCHT
 70
     0
  0
ENDTAB
  0
TABLE
  2
DIMSTYLE
 70
     1
  0
DIMSTYLE
  2
STANDARD
 70
     0
  3

  4

  5

  6

  7

 40
1.0
 41
0.18
 42
0.0625
 43
0.38
 44
0.18
 45
0.0
 46
0.0
 47
0.0
 48
0.0
140
0.18
141
0.09
142
0.0
143
25.4
144
1.0
145
0.0
146
1.0
147
0.09
 71
     0
 72
     0
 73
     1
 74
     1
 75
     0
 76
     0
 77
     0
 78
     0
170
     0
171
     2
172
     0
173
     0
174
     0
175
     0
176
     0
177
     0
178
     0
  0
ENDTAB
  0
ENDSEC
  0
SECTION
  2
BLOCKS
  0
BLOCK
  8
0
  2
$MODEL_SPACE
 70
     0
 10
0.0
 20
0.0
 30
0.0
  3
$MODEL_SPACE
  1

  0
ENDBLK
  5
916
  8
0
  0
BLOCK
 67
     1
  8
0
  2
$PAPER_SPACE
 70
     0
 10
0.0
 20
0.0
 30
0.0
  3
$PAPER_SPACE
  1

  0
ENDBLK
  5
914
 67
     1
  8
0
  0
BLOCK
  8
0
  2
AVE_RENDER
 70
     0
 10
0.0
 20
0.0
 30
0.0
  3
AVE_RENDER
  1
AVE_RENDER
  0
ENDBLK
  5
86D
  8
0
  0
BLOCK
  8
0
  2
AVE_GLOBAL
 70
     0
 10
0.0
 20
0.0
 30
0.0
  3
AVE_GLOBAL
  1
AVE_GLOBAL
  0
ENDBLK
  5
874
  8
0
  0
BLOCK
  8
0
  2
RM_SDB
 70
     2
 10
0.0
 20
0.0
 30
0.0
  3
RM_SDB
  1

  0
ATTDEF
  5
877
  8
ASHADE
  6
CONTINUOUS
 62
     1
 10
-0.3857142857142856
 20
-0.15
 30
0.0
 40
0.2
  1

  7
ASHADE
 72
     1
 11
0.0000000000000001
 21
-0.15
 31
0.0
  3
Name
  2
NAME
 70
     0
  0
ATTDEF
  5
878
  8
ASHADE
  6
CONTINUOUS
 62
     1
 10
0.2300000000000001
 20
-0.4750000000000001
 30
0.0000000000000002
 40
0.1000000000000001
  1
-1
  7
ASHADE
  3
ACAD Color Index
  2
ACADCOLOR
 70
     0
  0
ATTDEF
  5
879
  8
ASHADE
  6
CONTINUOUS
 62
     7
 10
-0.1499999999999999
 20
-0.19
 30
0.0
 40
0.01
  1
-1,-1,-1
  7
STANDARD
  3
RGB Color
  2
COLOR
 70
     1
  0
ATTDEF
  5
87A
  8
ASHADE
  6
CONTINUOUS
 62
     7
 10
-0.1499999999999999
 20
-0.205
 30
0.0
 40
0.01
  1
1,1,1
  7
STANDARD
  3
Opacity
  2
OPACITY
 70
     1
  0
ATTDEF
  5
87B
  8
ASHADE
  6
CONTINUOUS
 62
     7
 10
-0.1499999999999999
 20
-0.22
 30
0.0
 40
0.01
  1
("nullsurf" "")
  7
STANDARD
  3
Surface Shader
  2
SURFACE
 70
     1
  0
ATTDEF
  5
87C
  8
ASHADE
  6
CONTINUOUS
 62
     7
 10
-0.1499999999999999
 20
-0.235
 30
0.0
 40
0.01
  1

  7
STANDARD
  3
Surface Parameters 1
  2
SURF1
 70
     1
  0
ATTDEF
  5
87D
  8
ASHADE
  6
CONTINUOUS
 62
     7
 10
-0.1499999999999999
 20
-0.25
 30
0.0
 40
0.01
  1

  7
STANDARD
  3
Surface Parameters 2
  2
SURF2
 70
     1
  0
ATTDEF
  5
87E
  8
ASHADE
  6
CONTINUOUS
 62
     7
 10
-0.1499999999999999
 20
-0.265
 30
0.0
 40
0.01
  1

  7
STANDARD
  3
Surface Parameters 3
  2
SURF3
 70
     1
  0
ATTDEF
  5
87F
  8
ASHADE
  6
CONTINUOUS
 62
     7
 10
-0.1499999999999999
 20
-0.2799999999999999
 30
0.0
 40
0.01
  1

  7
STANDARD
  3
Surface Parameters 4
  2
SURF4
 70
     1
  0
ATTDEF
  5
880
  8
ASHADE
  6
CONTINUOUS
 62
     7
 10
-0.1499999999999999
 20
-0.295
 30
0.0
 40
0.01
  1
-1
  7
STANDARD
  3
Shading Rate
  2
SHADINGRATE
 70
     1
  0
ATTDEF
  5
881
  8
ASHADE
  6
CONTINUOUS
 62
     7
 10
-0.1499999999999999
 20
-0.31
 30
0.0
 40
0.01
  1
("nulldisp" "")
  7
STANDARD
  3
Displacement Shader
  2
DISPLACEMENT
 70
     1
  0
ATTDEF
  5
882
  8
ASHADE
  6
CONTINUOUS
 62
     7
 10
-0.1499999999999999
 20
-0.325
 30
0.0
 40
0.01
  1

  7
STANDARD
  3
Displacement Parameters 1
  2
DISP1
 70
     1
  0
ATTDEF
  5
883
  8
ASHADE
  6
CONTINUOUS
 62
     7
 10
-0.1499999999999999
 20
-0.34
 30
0.0
 40
0.01
  1

  7
STANDARD
  3
Displacement Parameters 2
  2
DISP2
 70
     1
  0
ATTDEF
  5
884
  8
ASHADE
  6
CONTINUOUS
 62
     7
 10
-0.1499999999999999
 20
-0.355
 30
0.0
 40
0.01
  1

  7
STANDARD
  3
Displacement Parameters 3
  2
DISP3
 70
     1
  0
ATTDEF
  5
885
  8
ASHADE
  6
CONTINUOUS
 62
     7
 10
-0.1499999999999999
 20
-0.3699999999999999
 30
0.0
 40
0.01
  1

  7
STANDARD
  3
Displacement Parameters 4
  2
DISP4
 70
     1
  0
ATTDEF
  5
886
  8
ASHADE
  6
CONTINUOUS
 62
     7
 10
-0.1499999999999999
 20
-0.3849999999999998
 30
0.0
 40
0.01
  1
0.0
  7
STANDARD
  3
Displacement Bounds
  2
DBOUND
 70
     1
  0
ATTDEF
  5
887
  8
ASHADE
  6
CONTINUOUS
 62
     7
 10
-0.1499999999999999
 20
-0.4
 30
0.0
 40
0.01
  1
0
  7
STANDARD
  3
Smooth Surface
  2
SMOOTH
 70
     1
  0
ATTDEF
  5
888
  8
ASHADE
  6
CONTINUOUS
 62
     7
 10
-0.1499999999999999
 20
-0.415
 30
0.0
 40
0.01
  1
("" "")
  7
STANDARD
  3
Atmosphere Shader
  2
ATMOSPHERE
 70
     1
  0
ATTDEF
  5
889
  8
ASHADE
  6
CONTINUOUS
 62
     7
 10
-0.15
 20
-0.4302404735808357
 30
0.0
 40
0.01
  1

  7
STANDARD
  3
Atmosphere Parameters 1
  2
ATMO1
 70
     1
  0
ATTDEF
  5
88A
  8
ASHADE
  6
CONTINUOUS
 62
     7
 10
-0.15
 20
-0.4452404735808357
 30
0.0
 40
0.01
  1

  7
STANDARD
  3
Atmosphere Parameters 2
  2
ATMO2
 70
     1
  0
ATTDEF
  5
88B
  8
ASHADE
  6
CONTINUOUS
 62
     7
 10
-0.15
 20
-0.4602404735808357
 30
0.0
 40
0.01
  1

  7
STANDARD
  3
Atmosphere Parameters 3
  2
ATMO3
 70
     1
  0
ATTDEF
  5
88C
  8
ASHADE
  6
CONTINUOUS
 62
     7
 10
-0.15
 20
-0.4752404735808357
 30
0.0
 40
0.01
  1

  7
STANDARD
  3
Atmosphere Parameters 4
  2
ATMO4
 70
     1
  0
ATTDEF
  5
88D
  8
ASHADE
  6
CONTINUOUS
 62
     7
 10
-0.1499999999999999
 20
-0.49
 30
0.0
 40
0.01
  1
0 0 1 0 0 1 1 1
  7
STANDARD
  3
Texture Map Coordinates
  2
TCOORD
 70
     1
  0
POLYLINE
  5
88E
  8
ASHADE
  6
CONTINUOUS
 62
     7
 66
     1
 10
0.0
 20
0.0
 30
0.0
  0
VERTEX
  5
984
  8
ASHADE
  6
CONTINUOUS
 62
     7
 10
-0.3000000000000002
 20
-0.18
 30
0.0
  0
VERTEX
  5
985
  8
ASHADE
  6
CONTINUOUS
 62
     7
 10
-0.2999999999999999
 20
-0.3250000000000001
 30
0.0
 42
0.1747045211890322
  0
VERTEX
  5
986
  8
ASHADE
  6
CONTINUOUS
 62
     7
 10
-0.2816863194828013
 20
-0.3758135573372287
 30
0.0
 42
0.1042029417664262
  0
VERTEX
  5
987
  8
ASHADE
  6
CONTINUOUS
 62
     7
 10
-0.2121320343559644
 20
-0.4310660171779823
 30
0.0
 42
0.0649481016502893
  0
VERTEX
  5
988
  8
ASHADE
  6
CONTINUOUS
 62
     7
 10
-0.1213292385415812
 20
-0.4625678598959921
 30
0.0
 42
0.0510992989620776
  0
VERTEX
  5
989
  8
ASHADE
  6
CONTINUOUS
 62
     7
 10
0.0
 20
-0.475
 30
0.0
 42
0.0325604591914346
  0
VERTEX
  5
98A
  8
ASHADE
  6
CONTINUOUS
 62
     7
 10
0.0776712930301476
 20
-0.4699366059390404
 30
0.0
  0
VERTEX
  5
98B
  8
ASHADE
  6
CONTINUOUS
 62
     7
 10
0.0776712930301476
 20
-0.18
 30
0.0
  0
SEQEND
  5
9B7
  8
ASHADE
  6
CONTINUOUS
 62
     7
  0
POLYLINE
  5
898
  8
ASHADE
  6
CONTINUOUS
 62
     7
 66
     1
 10
0.0
 20
0.0
 30
0.0
  0
VERTEX
  5
98C
  8
ASHADE
  6
CONTINUOUS
 62
     7
 10
0.0776712930301476
 20
-0.4173639511315807
 30
0.0
 42
0.0020561688178525
  0
VERTEX
  5
98D
  8
ASHADE
  6
CONTINUOUS
 62
     7
 10
0.0808861590277209
 20
-0.4167119065973279
 30
0.0
 42
0.0649481016502881
  0
VERTEX
  5
98E
  8
ASHADE
  6
CONTINUOUS
 62
     7
 10
0.1414213562373096
 20
-0.3957106781186547
 30
0.0
 42
0.104202941766426
  0
VERTEX
  5
98F
  8
ASHADE
  6
CONTINUOUS
 62
     7
 10
0.1877908796552008
 20
-0.3588757048914858
 30
0.0
 42
0.1747044792402826
  0
VERTEX
  5
990
  8
ASHADE
  6
CONTINUOUS
 62
     7
 10
0.2000000000000001
 20
-0.3250000086461401
 30
0.0
  0
VERTEX
  5
991
  8
ASHADE
  6
CONTINUOUS
 62
     7
 10
0.2000000000000001
 20
-0.18
 30
0.0
  0
SEQEND
  5
9B8
  8
ASHADE
  6
CONTINUOUS
 62
     7
  0
POLYLINE
  5
8A0
  8
ASHADE
  6
CONTINUOUS
 62
     7
 66
     1
 10
0.0
 20
0.0
 30
0.0
  0
VERTEX
  5
992
  8
ASHADE
  6
CONTINUOUS
 62
     7
 10
0.289889668177379
 20
-0.18
 30
0.0
  0
VERTEX
  5
993
  8
ASHADE
  6
CONTINUOUS
 62
     7
 10
0.2898896681773789
 20
-0.2861621487588727
 30
0.0
 42
0.0456559979864751
  0
VERTEX
  5
994
  8
ASHADE
  6
CONTINUOUS
 62
     7
 10
0.2816863194828014
 20
-0.2741864426627713
 30
0.0
 42
0.1042029417664258
  0
VERTEX
  5
995
  8
ASHADE
  6
CONTINUOUS
 62
     7
 10
0.2121320343559643
 20
-0.218933982822018
 30
0.0
 42
0.0090478215307507
  0
VERTEX
  5
996
  8
ASHADE
  6
CONTINUOUS
 62
     7
 10
0.2000000000000001
 20
-0.2131399482633147
 30
0.0
 42
0.0510992989620778
  0
SEQEND
  5
9B9
  8
ASHADE
  6
CONTINUOUS
 62
     7
  0
POLYLINE
  5
8A7
  8
ASHADE
  6
CONTINUOUS
 62
     7
 66
     1
 10
0.0
 20
0.0
 30
0.0
  0
VERTEX
  5
997
  8
ASHADE
  6
CONTINUOUS
 62
     7
 10
0.0776712930301477
 20
0.08
 30
0.0
  0
VERTEX
  5
998
  8
ASHADE
  6
CONTINUOUS
 62
     7
 10
0.0776712930301476
 20
0.1800633940609596
 30
0.0
 42
-0.0325604591914349
  0
VERTEX
  5
999
  8
ASHADE
  6
CONTINUOUS
 62
     7
 10
0.0
 20
0.175
 30
0.0
 42
-0.0510992989620779
  0
VERTEX
  5
99A
  8
ASHADE
  6
CONTINUOUS
 62
     7
 10
-0.1213292385415814
 20
0.1874321401040082
 30
0.0
 42
-0.0649481016502892
  0
VERTEX
  5
99B
  8
ASHADE
  6
CONTINUOUS
 62
     7
 10
-0.2121320343559644
 20
0.2189339828220179
 30
0.0
 42
-0.1042029417664258
  0
VERTEX
  5
99C
  8
ASHADE
  6
CONTINUOUS
 62
     7
 10
-0.2816863194828013
 20
0.2741864426627713
 30
0.0
 42
-0.1747045211890322
  0
VERTEX
  5
99D
  8
ASHADE
  6
CONTINUOUS
 62
     7
 10
-0.2999999999999999
 20
0.3250000000000001
 30
0.0
 42
-0.1747045211890318
  0
VERTEX
  5
99E
  8
ASHADE
  6
CONTINUOUS
 62
     7
 10
-0.2816863194828013
 20
0.3758135573372287
 30
0.0
 42
-0.1042029417664262
  0
VERTEX
  5
99F
  8
ASHADE
  6
CONTINUOUS
 62
     7
 10
-0.2121320343559644
 20
0.4310660171779822
 30
0.0
 42
-0.0649481016502893
  0
VERTEX
  5
9A0
  8
ASHADE
  6
CONTINUOUS
 62
     7
 10
-0.1213292385415813
 20
0.462567859895992
 30
0.0
 42
-0.051099298962078
  0
VERTEX
  5
9A1
  8
ASHADE
  6
CONTINUOUS
 62
     7
 10
0.0
 20
0.475
 30
0.0
 42
-0.0510992989620779
  0
VERTEX
  5
9A2
  8
ASHADE
  6
CONTINUOUS
 62
     7
 10
0.1213292385415813
 20
0.4625678598959919
 30
0.0
 42
-0.0649481016502889
  0
VERTEX
  5
9A3
  8
ASHADE
  6
CONTINUOUS
 62
     7
 10
0.2121320343559643
 20
0.4310660171779821
 30
0.0
 42
-0.1042029417664259
  0
VERTEX
  5
9A4
  8
ASHADE
  6
CONTINUOUS
 62
     7
 10
0.2816863194828012
 20
0.3758135573372288
 30
0.0
 42
-0.0456559979864758
  0
VERTEX
  5
9A5
  8
ASHADE
  6
CONTINUOUS
 62
     7
 10
0.2898896681773789
 20
0.3638378512411275
 30
0.0
  0
VERTEX
  5
9A6
  8
ASHADE
  6
CONTINUOUS
 62
     7
 10
0.289889668177379
 20
0.08
 30
0.0
  0
SEQEND
  5
9BA
  8
ASHADE
  6
CONTINUOUS
 62
     7
  0
LINE
  5
8B9
  8
ASHADE
  6
CONTINUOUS
 62
     7
 10
-0.3000000000000002
 20
0.325
 30
0.0000000000000002
 11
-0.3000000000000002
 21
0.08
 31
0.0000000000000002
  0
POLYLINE
  5
8BA
  8
ASHADE
  6
CONTINUOUS
 62
     7
 66
     1
 10
0.0
 20
0.0
 30
0.0
 70
     1
  0
VERTEX
  5
9A7
  8
ASHADE
  6
CONTINUOUS
 62
     7
 10
0.0
 20
0.425
 30
0.0
 42
0.051099298962078
  0
VERTEX
  5
9A8
  8
ASHADE
  6
CONTINUOUS
 62
     7
 10
-0.0808861590277208
 20
0.416711906597328
 30
0.0
 42
0.064948101650289
  0
VERTEX
  5
9A9
  8
ASHADE
  6
CONTINUOUS
 62
     7
 10
-0.1414213562373094
 20
0.3957106781186547
 30
0.0
 42
0.1042029417664259
  0
VERTEX
  5
9AA
  8
ASHADE
  6
CONTINUOUS
 62
     7
 10
-0.1877908796552007
 20
0.3588757048914858
 30
0.0
 42
0.1747045211890328
  0
VERTEX
  5
9AB
  8
ASHADE
  6
CONTINUOUS
 62
     7
 10
-0.1999999999999998
 20
0.325
 30
0.0
 42
0.1747045211890319
  0
VERTEX
  5
9AC
  8
ASHADE
  6
CONTINUOUS
 62
     7
 10
-0.1877908796552009
 20
0.2911242951085143
 30
0.0
 42
0.1042029417664258
  0
VERTEX
  5
9AD
  8
ASHADE
  6
CONTINUOUS
 62
     7
 10
-0.1414213562373094
 20
0.2542893218813453
 30
0.0
 42
0.0649481016502892
  0
VERTEX
  5
9AE
  8
ASHADE
  6
CONTINUOUS
 62
     7
 10
-0.0808861590277208
 20
0.2332880934026721
 30
0.0
 42
0.051099298962078
  0
VERTEX
  5
9AF
  8
ASHADE
  6
CONTINUOUS
 62
     7
 10
0.0
 20
0.225
 30
0.0
 42
0.0510992989620778
  0
VERTEX
  5
9B0
  8
ASHADE
  6
CONTINUOUS
 62
     7
 10
0.0808861590277208
 20
0.233288093402672
 30
0.0
 42
0.064948101650289
  0
VERTEX
  5
9B1
  8
ASHADE
  6
CONTINUOUS
 62
     7
 10
0.1414213562373094
 20
0.2542893218813452
 30
0.0
 42
0.1042029417664264
  0
VERTEX
  5
9B2
  8
ASHADE
  6
CONTINUOUS
 62
     7
 10
0.1877908796552008
 20
0.2911242951085142
 30
0.0
 42
0.1747045211890327
  0
VERTEX
  5
9B3
  8
ASHADE
  6
CONTINUOUS
 62
     7
 10
0.2
 20
0.325
 30
0.0
 42
0.174704521189033
  0
VERTEX
  5
9B4
  8
ASHADE
  6
CONTINUOUS
 62
     7
 10
0.1877908796552007
 20
0.358875704891486
 30
0.0
 42
0.1042029417664256
  0
VERTEX
  5
9B5
  8
ASHADE
  6
CONTINUOUS
 62
     7
 10
0.1414213562373094
 20
0.3957106781186547
 30
0.0
 42
0.0649481016502894
  0
VERTEX
  5
9B6
  8
ASHADE
  6
CONTINUOUS
 62
     7
 10
0.0808861590277205
 20
0.4167119065973279
 30
0.0
 42
0.0510992989620781
  0
SEQEND
  5
9BB
  8
ASHADE
  6
CONTINUOUS
 62
     7
  0
LINE
  5
8CC
  8
ASHADE
  6
CONTINUOUS
 62
     7
 10
-0.2000000000000001
 20
0.2131399482633148
 30
0.0000000000000005
 11
-0.2000000000000001
 21
0.325
 31
0.0000000000000005
  0
LINE
  5
8CD
  8
ASHADE
  6
CONTINUOUS
 62
     7
 10
0.2
 20
0.3250000000000001
 30
0.0
 11
0.2000000000000001
 21
0.08
 31
0.0
  0
ENDBLK
  5
8CE
  8
0
  0
ENDSEC
  0
SECTION
  2
ENTITIES
  0
POLYLINE
  5
15C
  8
0
  6
BYBLOCK
 62
     0
 66
     1
 10
0.0
 20
0.0
 30
0.0
 70
    64
 71
   108
 72
   116
1001
AVE_ENTITY_MATERIAL
1002
{
1000

1002
{
1071
        0
1070
     0
1070
     0
1002
{
1070
     0
1070
     0
1070
     0
1040
0.0
1002
}
1070
     0
1070
     0
1002
{
1002
}
1002
}
1002
{
1002
{
1071
        0
1070
     4
1002
}
1002
}
1002
{
1002
{
1071
        0
1002
{
1002
{
1040
1.0
1040
0.0
1070
     0
1002
}
1002
{
1040
1.0
1040
0.0
1070
     0
1002
}
1040
0.0
1002
}
1002
{
1040
0.0
1040
-9.600000381469727
1040
0.0
1040
29.14667320251465
1040
12.80000019073486
1040
0.0
1040
0.0
1040
-6.400000095367432
1040
0.0
1040
0.0
1040
-9.600000381469727
1040
24.16461753845215
1070
     1
1002
{
1002
}
1070
     0
1002
}
1002
}
1002
}
1011
-0.4606379805156314
1021
-0.1625600024223328
1031
0.610584886816144
1021
-0.1625600024223328
1031
0.610584886816144
1011
-0.4606379805156314
1021
0.1625600024223328
1031
0.610584886816144
1021
0.1625600024223328
1031
0.610584886816144
1011
-0.7044779902049625
1021
-0.1625600024223328
1031
0.610584886816144
1021
-0.1625600024223328
1031
0.610584886816144
1011
-0.4606379805156314
1021
-0.1625600024223328
1031
0.3667448771268129
1021
-0.1625600024223328
1031
0.3667448771268129
1002
}
1001
AVE_FINISH
1002
{
1070
     0
1005
0
1002
}
  0
VERTEX
  5
15D
  8
0
 10
-0.4380718191691959
 20
-0.0754742872714996
 30
0.3842004250317812
 70
   192
  0
VERTEX
  5
15E
  8
0
 10
-0.4419798655101383
 20
-0.2090057260513306
 30
0.4188148093014956
 70
   192
  0
VERTEX
  5
15F
  8
0
 10
-0.3829644754954898
 20
-0.2090057260513306
 30
0.3762974674969912
 70
   192
  0
VERTEX
  5
160
  8
0
 10
-0.3790563807078922
 20
-0.0754742872714996
 30
0.3416831074506044
 70
   192
  0
VERTEX
  5
161
  8
0
 10
-0.5531238081523502
 20
-0.0754742872714996
 30
0.3876520796567202
 70
   192
  0
VERTEX
  5
162
  8
0
 10
-0.5570319029399479
 20
-0.2090057260513306
 30
0.4222664397031068
 70
   192
  0
VERTEX
  5
163
  8
0
 10
-0.6968162970134342
 20
-0.0754742872714996
 30
0.332465792158246
 70
   192
  0
VERTEX
  5
164
  8
0
 10
-0.7007243918010319
 20
-0.2090057260513306
 30
0.3670801522046327
 70
   192
  0
VERTEX
  5
165
  8
0
 10
-0.9007965788432681
 20
-0.0754742872714996
 30
0.298174983099103
 70
   192
  0
VERTEX
  5
166
  8
0
 10
-0.9047046494075381
 20
-0.2090057260513306
 30
0.3327893431454897
 70
   192
  0
VERTEX
  5
167
  8
0
 10
-1.154003364784392
 20
-0.0754742872714996
 30
0.9864690653592347
 70
   192
  0
VERTEX
  5
168
  8
0
 10
-1.155957403094443
 20
-0.2090057260513306
 30
1.003776245382428
 70
   192
  0
VERTEX
  5
169
  8
0
 10
-1.074920046956214
 20
-0.2090057260513306
 30
1.011594469717145
 70
   192
  0
VERTEX
  5
16A
  8
0
 10
-1.072966011674079
 20
-0.0754742872714996
 30
0.9942872896939515
 70
   192
  0
VERTEX
  5
16B
  8
0
 10
-1.152049329502257
 20
-0.2786742933273315
 30
0.9691618853360414
 70
   192
  0
VERTEX
  5
16C
  8
0
 10
-1.071011976391944
 20
-0.2786742933273315
 30
0.9769801096707582
 70
   192
  0
VERTEX
  5
16D
  8
0
 10
-0.9007965788432681
 20
-0.2786742933273315
 30
0.298174983099103
 70
   192
  0
VERTEX
  5
16E
  8
0
 10
-0.6968162970134342
 20
-0.2786742933273315
 30
0.332465792158246
 70
   192
  0
VERTEX
  5
16F
  8
0
 10
-0.5531238081523502
 20
-0.2786742933273315
 30
0.3876520796567202
 70
   192
  0
VERTEX
  5
170
  8
0
 10
-0.4380718191691959
 20
-0.2786742933273315
 30
0.3842004250317812
 70
   192
  0
VERTEX
  5
171
  8
0
 10
-0.3790563807078922
 20
-0.2786742933273315
 30
0.3416831074506044
 70
   192
  0
VERTEX
  5
172
  8
0
 10
-1.104854163367423
 20
-0.2840483354568482
 30
0.5644936110287905
 70
   192
  0
VERTEX
  5
173
  8
0
 10
-1.104854163367423
 20
-0.3158454498291016
 30
0.5909864706784487
 70
   192
  0
VERTEX
  5
174
  8
0
 10
-0.6100431051799381
 20
-0.3158454498291016
 30
0.5909864706784487
 70
   192
  0
VERTEX
  5
175
  8
0
 10
-0.6274602591106021
 20
-0.2840483354568482
 30
0.5644936110287905
 70
   192
  0
VERTEX
  5
176
  8
0
 10
-1.104854163367423
 20
-0.3728505216598511
 30
0.5904802031308413
 70
   192
  0
VERTEX
  5
177
  8
0
 10
-0.6100431051799381
 20
-0.3728505216598511
 30
0.5904802031308413
 70
   192
  0
VERTEX
  5
178
  8
0
 10
-1.104854163367423
 20
-0.4092398460388184
 30
0.5692644438534975
 70
   192
  0
VERTEX
  5
179
  8
0
 10
-0.6274602591106021
 20
-0.4092398460388184
 30
0.5692644438534975
 70
   192
  0
VERTEX
  5
17A
  8
0
 10
-1.104854163367423
 20
-0.4249769184112548
 30
0.5390490401059389
 70
   192
  0
VERTEX
  5
17B
  8
0
 10
-0.644877364594611
 20
-0.4249769184112548
 30
0.5390490401059389
 70
   192
  0
VERTEX
  5
17C
  8
0
 10
-0.5300884409495914
 20
-0.2819596548080444
 30
0.3438383053570986
 70
   192
  0
VERTEX
  5
17D
  8
0
 10
-0.5997570082255924
 20
-0.2819596548080444
 30
0.378672588995099
 70
   192
  0
VERTEX
  5
17E
  8
0
 10
-0.5997570082255924
 20
-0.3650313041687012
 30
0.3788228462964296
 70
   192
  0
VERTEX
  5
17F
  8
0
 10
-0.5300884409495914
 20
-0.3650313041687012
 30
0.3439885626584291
 70
   192
  0
VERTEX
  5
180
  8
0
 10
-0.5997570082255924
 20
0.2819596548080444
 30
0.378672588995099
 70
   192
  0
VERTEX
  5
181
  8
0
 10
-0.5300884409495914
 20
0.2819596548080444
 30
0.3438383053570986
 70
   192
  0
VERTEX
  5
182
  8
0
 10
-0.5997570082255924
 20
0.3650313041687012
 30
0.3788228462964296
 70
   192
  0
VERTEX
  5
183
  8
0
 10
-0.5300884409495914
 20
0.3650313041687012
 30
0.3439885626584291
 70
   192
  0
VERTEX
  5
184
  8
0
 10
-1.104854163367423
 20
0.4249769184112548
 30
0.5390490401059389
 70
   192
  0
VERTEX
  5
185
  8
0
 10
-1.104854163367423
 20
0.4092398460388184
 30
0.5692644438534975
 70
   192
  0
VERTEX
  5
186
  8
0
 10
-0.644877364594611
 20
0.4249769184112548
 30
0.5390490401059389
 70
   192
  0
VERTEX
  5
187
  8
0
 10
-0.6274602591106021
 20
0.4092398460388184
 30
0.5692644438534975
 70
   192
  0
VERTEX
  5
188
  8
0
 10
-1.104854163367423
 20
0.3728505216598511
 30
0.5904802031308413
 70
   192
  0
VERTEX
  5
189
  8
0
 10
-0.6100431051799381
 20
0.3728505216598511
 30
0.5904802031308413
 70
   192
  0
VERTEX
  5
18A
  8
0
 10
-1.104854163367423
 20
0.3158454498291016
 30
0.5909864706784487
 70
   192
  0
VERTEX
  5
18B
  8
0
 10
-0.6100431051799381
 20
0.3158454498291016
 30
0.5909864706784487
 70
   192
  0
VERTEX
  5
18C
  8
0
 10
-0.4380718191691959
 20
0.2786742933273315
 30
0.3842004250317812
 70
   192
  0
VERTEX
  5
18D
  8
0
 10
-0.4419798655101383
 20
0.2090057260513306
 30
0.4188148093014956
 70
   192
  0
VERTEX
  5
18E
  8
0
 10
-0.3790563807078922
 20
0.2786742933273315
 30
0.3416831074506044
 70
   192
  0
VERTEX
  5
18F
  8
0
 10
-0.3829644754954898
 20
0.2090057260513306
 30
0.3762974674969912
 70
   192
  0
VERTEX
  5
190
  8
0
 10
-0.5531238081523502
 20
0.2786742933273315
 30
0.3876520796567202
 70
   192
  0
VERTEX
  5
191
  8
0
 10
-0.5570319029399479
 20
0.2090057260513306
 30
0.4222664397031068
 70
   192
  0
VERTEX
  5
192
  8
0
 10
-0.6968162970134342
 20
0.2786742933273315
 30
0.332465792158246
 70
   192
  0
VERTEX
  5
193
  8
0
 10
-0.7007243918010319
 20
0.2090057260513306
 30
0.3670801522046327
 70
   192
  0
VERTEX
  5
194
  8
0
 10
-0.9007965788432681
 20
0.2786742933273315
 30
0.298174983099103
 70
   192
  0
VERTEX
  5
195
  8
0
 10
-0.9047046494075381
 20
0.2090057260513306
 30
0.3327893431454897
 70
   192
  0
VERTEX
  5
196
  8
0
 10
-1.152049329502257
 20
0.2786742933273315
 30
0.9691618853360414
 70
   192
  0
VERTEX
  5
197
  8
0
 10
-1.155957403094443
 20
0.2090057260513306
 30
1.003776245382428
 70
   192
  0
VERTEX
  5
198
  8
0
 10
-1.071011976391944
 20
0.2786742933273315
 30
0.9769801096707582
 70
   192
  0
VERTEX
  5
199
  8
0
 10
-1.074920046956214
 20
0.2090057260513306
 30
1.011594469717145
 70
   192
  0
VERTEX
  5
19A
  8
0
 10
-1.154003364784392
 20
0.0754742872714996
 30
0.9864690653592347
 70
   192
  0
VERTEX
  5
19B
  8
0
 10
-1.072966011674079
 20
0.0754742872714996
 30
0.9942872896939515
 70
   192
  0
VERTEX
  5
19C
  8
0
 10
-0.9007965788432681
 20
0.0754742872714996
 30
0.298174983099103
 70
   192
  0
VERTEX
  5
19D
  8
0
 10
-0.6968162970134342
 20
0.0754742872714996
 30
0.332465792158246
 70
   192
  0
VERTEX
  5
19E
  8
0
 10
-0.5531238081523502
 20
0.0754742872714996
 30
0.3876520796567202
 70
   192
  0
VERTEX
  5
19F
  8
0
 10
-0.4380718191691959
 20
0.0754742872714996
 30
0.3842004250317812
 70
   192
  0
VERTEX
  5
1A0
  8
0
 10
-0.3790563807078922
 20
0.0754742872714996
 30
0.3416831074506044
 70
   192
  0
VERTEX
  5
1A1
  8
0
 10
-0.2405690004893863
 20
-0.2032
 30
0.3854724888592958
 70
   192
  0
VERTEX
  5
1A2
  8
0
 10
-0.2965810854503239
 20
-0.2032
 30
0.3749461207181215
 70
   192
  0
VERTEX
  5
1A3
  8
0
 10
-0.247703836304816
 20
-0.254
 30
0.3610951493054628
 70
   192
  0
VERTEX
  5
1A4
  8
0
 10
-0.2915272272655094
 20
-0.254
 30
0.3470013632565737
 70
   192
  0
VERTEX
  5
1A5
  8
0
 10
-0.3001485033580387
 20
-0.0762
 30
0.362757450941205
 70
   192
  0
VERTEX
  5
1A6
  8
0
 10
-0.2441364183971012
 20
-0.0762
 30
0.3732838190823793
 70
   192
  0
VERTEX
  5
1A7
  8
0
 10
-0.3001485033580387
 20
0.0762
 30
0.362757450941205
 70
   192
  0
VERTEX
  5
1A8
  8
0
 10
-0.2441364183971012
 20
0.0762
 30
0.3732838190823793
 70
   192
  0
VERTEX
  5
1A9
  8
0
 10
-0.2965810854503239
 20
0.2032
 30
0.3749461207181215
 70
   192
  0
VERTEX
  5
1AA
  8
0
 10
-0.2405690004893863
 20
0.2032
 30
0.3854724888592958
 70
   192
  0
VERTEX
  5
1AB
  8
0
 10
-0.2915272272655094
 20
0.254
 30
0.3470013632565737
 70
   192
  0
VERTEX
  5
1AC
  8
0
 10
-0.247703836304816
 20
0.254
 30
0.3610951493054628
 70
   192
  0
VERTEX
  5
1AD
  8
0
 10
-0.1472915545054996
 20
0.254
 30
0.3424742655545473
 70
   192
  0
VERTEX
  5
1AE
  8
0
 10
-0.1401567186900699
 20
0.2032
 30
0.3668515808850527
 70
   192
  0
VERTEX
  5
1AF
  8
0
 10
-0.1437241365977848
 20
0.0762
 30
0.3546629111081361
 70
   192
  0
VERTEX
  5
1B0
  8
0
 10
-0.1437241365977848
 20
-0.0762
 30
0.3546629111081361
 70
   192
  0
VERTEX
  5
1B1
  8
0
 10
-0.1401567186900699
 20
-0.2032
 30
0.3668515808850527
 70
   192
  0
VERTEX
  5
1B2
  8
0
 10
-0.1472915545054996
 20
-0.254
 30
0.3424742655545473
 70
   192
  0
VERTEX
  5
1B3
  8
0
 10
-0.0462791155406559
 20
-0.2032
 30
0.3259041771680117
 70
   192
  0
VERTEX
  5
1B4
  8
0
 10
-0.053413854462775
 20
-0.254
 30
0.3015268376141786
 70
   192
  0
VERTEX
  5
1B5
  8
0
 10
-0.0498465334483707
 20
-0.0762
 30
0.3137155073910952
 70
   192
  0
VERTEX
  5
1B6
  8
0
 10
-0.0498465334483707
 20
0.0762
 30
0.3137155073910952
 70
   192
  0
VERTEX
  5
1B7
  8
0
 10
-0.0462791155406559
 20
0.2032
 30
0.3259041771680117
 70
   192
  0
VERTEX
  5
1B8
  8
0
 10
-0.053413854462775
 20
0.254
 30
0.3015268376141786
 70
   192
  0
VERTEX
  5
1B9
  8
0
 10
-0.0091585131236637
 20
-0.2032
 30
0.2902730671674013
 70
   192
  0
VERTEX
  5
1BA
  8
0
 10
-0.028481946046027
 20
-0.254
 30
0.2694631455212831
 70
   192
  0
VERTEX
  5
1BB
  8
0
 10
-0.0249145281383121
 20
-0.0762
 30
0.2816518152981997
 70
   192
  0
VERTEX
  5
1BC
  8
0
 10
-0.0249145281383121
 20
0.0762
 30
0.2816518152981997
 70
   192
  0
VERTEX
  5
1BD
  8
0
 10
-0.0091585131236637
 20
0.2032
 30
0.2902730671674013
 70
   192
  0
VERTEX
  5
1BE
  8
0
 10
-0.028481946046027
 20
0.254
 30
0.2694631455212831
 70
   192
  0
VERTEX
  5
1BF
  8
0
 10
-0.3203111292430484
 20
0.254
 30
0.2938682450085878
 70
   192
  0
VERTEX
  5
1C0
  8
0
 10
-0.3203111292430484
 20
-0.254
 30
0.2938682450085878
 70
   192
  0
VERTEX
  5
1C1
  8
0
 10
-0.271556547028693
 20
0.254
 30
0.2795985733777285
 70
   192
  0
VERTEX
  5
1C2
  8
0
 10
-0.271556547028693
 20
-0.254
 30
0.2795985733777285
 70
   192
  0
VERTEX
  5
1C3
  8
0
 10
-0.174047188813361
 20
0.254
 30
0.251059278562665
 70
   192
  0
VERTEX
  5
1C4
  8
0
 10
-0.174047188813361
 20
-0.254
 30
0.251059278562665
 70
   192
  0
VERTEX
  5
1C5
  8
0
 10
-0.0765378305980289
 20
0.254
 30
0.2225199595242739
 70
   192
  0
VERTEX
  5
1C6
  8
0
 10
-0.0765378305980289
 20
-0.254
 30
0.2225199595242739
 70
   192
  0
VERTEX
  5
1C7
  8
0
 10
-0.0323102976390445
 20
0.254
 30
0.209575303915143
 70
   192
  0
VERTEX
  5
1C8
  8
0
 10
-0.0323102976390445
 20
-0.254
 30
0.209575303915143
 70
   192
  0
VERTEX
  5
1C9
  8
0
  6
BYBLOCK
 62
     0
 10
0.0
 20
0.0
 30
0.0
 70
   128
 71
     1
 72
     2
 73
    -3
  0
VERTEX
  5
1CA
  8
0
  6
BYBLOCK
 62
     0
 10
0.0
 20
0.0
 30
0.0
 70
   128
 71
     3
 72
     4
 73
    -1
  0
VERTEX
  5
1CB
  8
0
  6
BYBLOCK
 62
     0
 10
0.0
 20
0.0
 30
0.0
 70
   128
 71
     5
 72
     6
 73
    -2
  0
VERTEX
  5
1CC
  8
0
  6
BYBLOCK
 62
     0
 10
0.0
 20
0.0
 30
0.0
 70
   128
 71
     2
 72
     1
 73
    -5
  0
VERTEX
  5
1CD
  8
0
  6
BYBLOCK
 62
     0
 10
0.0
 20
0.0
 30
0.0
 70
   128
 71
     7
 72
     8
 73
    -6
  0
VERTEX
  5
1CE
  8
0
  6
BYBLOCK
 62
     0
 10
0.0
 20
0.0
 30
0.0
 70
   128
 71
     6
 72
     5
 73
    -7
  0
VERTEX
  5
1CF
  8
0
  6
BYBLOCK
 62
     0
 10
0.0
 20
0.0
 30
0.0
 70
   128
 71
     9
 72
    10
 73
    -8
  0
VERTEX
  5
1D0
  8
0
  6
BYBLOCK
 62
     0
 10
0.0
 20
0.0
 30
0.0
 70
   128
 71
     8
 72
     7
 73
    -9
  0
VERTEX
  5
1D1
  8
0
  6
BYBLOCK
 62
     0
 10
0.0
 20
0.0
 30
0.0
 70
   128
 71
    11
 72
    12
 73
   -13
  0
VERTEX
  5
1D2
  8
0
  6
BYBLOCK
 62
     0
 10
0.0
 20
0.0
 30
0.0
 70
   128
 71
    13
 72
    14
 73
   -11
  0
VERTEX
  5
1D3
  8
0
  6
BYBLOCK
 62
     0
 10
0.0
 20
0.0
 30
0.0
 70
   128
 71
    12
 72
    15
 73
   -16
  0
VERTEX
  5
1D4
  8
0
  6
BYBLOCK
 62
     0
 10
0.0
 20
0.0
 30
0.0
 70
   128
 71
    16
 72
    13
 73
   -12
  0
VERTEX
  5
1D5
  8
0
  6
BYBLOCK
 62
     0
 10
0.0
 20
0.0
 30
0.0
 70
   128
 71
    10
 72
    17
 73
   -18
  0
VERTEX
  5
1D6
  8
0
  6
BYBLOCK
 62
     0
 10
0.0
 20
0.0
 30
0.0
 70
   128
 71
    18
 72
     8
 73
   -10
  0
VERTEX
  5
1D7
  8
0
  6
BYBLOCK
 62
     0
 10
0.0
 20
0.0
 30
0.0
 70
   128
 71
     8
 72
    18
 73
   -19
  0
VERTEX
  5
1D8
  8
0
  6
BYBLOCK
 62
     0
 10
0.0
 20
0.0
 30
0.0
 70
   128
 71
    19
 72
     6
 73
    -8
  0
VERTEX
  5
1D9
  8
0
  6
BYBLOCK
 62
     0
 10
0.0
 20
0.0
 30
0.0
 70
   128
 71
     6
 72
    19
 73
   -20
  0
VERTEX
  5
1DA
  8
0
  6
BYBLOCK
 62
     0
 10
0.0
 20
0.0
 30
0.0
 70
   128
 71
    20
 72
     2
 73
    -6
  0
VERTEX
  5
1DB
  8
0
  6
BYBLOCK
 62
     0
 10
0.0
 20
0.0
 30
0.0
 70
   128
 71
     2
 72
    20
 73
   -21
  0
VERTEX
  5
1DC
  8
0
  6
BYBLOCK
 62
     0
 10
0.0
 20
0.0
 30
0.0
 70
   128
 71
    21
 72
     3
 73
    -2
  0
VERTEX
  5
1DD
  8
0
  6
BYBLOCK
 62
     0
 10
0.0
 20
0.0
 30
0.0
 70
   128
 71
    22
 72
    23
 73
   -24
  0
VERTEX
  5
1DE
  8
0
  6
BYBLOCK
 62
     0
 10
0.0
 20
0.0
 30
0.0
 70
   128
 71
    24
 72
    25
 73
   -22
  0
VERTEX
  5
1DF
  8
0
  6
BYBLOCK
 62
     0
 10
0.0
 20
0.0
 30
0.0
 70
   128
 71
    23
 72
    26
 73
   -27
  0
VERTEX
  5
1E0
  8
0
  6
BYBLOCK
 62
     0
 10
0.0
 20
0.0
 30
0.0
 70
   128
 71
    27
 72
    24
 73
   -23
  0
VERTEX
  5
1E1
  8
0
  6
BYBLOCK
 62
     0
 10
0.0
 20
0.0
 30
0.0
 70
   128
 71
    26
 72
    28
 73
   -29
  0
VERTEX
  5
1E2
  8
0
  6
BYBLOCK
 62
     0
 10
0.0
 20
0.0
 30
0.0
 70
   128
 71
    29
 72
    27
 73
   -26
  0
VERTEX
  5
1E3
  8
0
  6
BYBLOCK
 62
     0
 10
0.0
 20
0.0
 30
0.0
 70
   128
 71
    28
 72
    30
 73
   -31
  0
VERTEX
  5
1E4
  8
0
  6
BYBLOCK
 62
     0
 10
0.0
 20
0.0
 30
0.0
 70
   128
 71
    31
 72
    29
 73
   -28
  0
VERTEX
  5
1E5
  8
0
  6
BYBLOCK
 62
     0
 10
0.0
 20
0.0
 30
0.0
 70
   128
 71
    32
 72
   -33
 73
   -34
  0
VERTEX
  5
1E6
  8
0
  6
BYBLOCK
 62
     0
 10
0.0
 20
0.0
 30
0.0
 70
   128
 71
    34
 72
    35
 73
   -32
  0
VERTEX
  5
1E7
  8
0
  6
BYBLOCK
 62
     0
 10
0.0
 20
0.0
 30
0.0
 70
   128
 71
    36
 72
   -37
 73
   -38
  0
VERTEX
  5
1E8
  8
0
  6
BYBLOCK
 62
     0
 10
0.0
 20
0.0
 30
0.0
 70
   128
 71
    39
 72
   -38
 73
    37
  0
VERTEX
  5
1E9
  8
0
  6
BYBLOCK
 62
     0
 10
0.0
 20
0.0
 30
0.0
 70
   128
 71
    40
 72
   -41
 73
    42
  0
VERTEX
  5
1EA
  8
0
  6
BYBLOCK
 62
     0
 10
0.0
 20
0.0
 30
0.0
 70
   128
 71
    43
 72
   -42
 73
    41
  0
VERTEX
  5
1EB
  8
0
  6
BYBLOCK
 62
     0
 10
0.0
 20
0.0
 30
0.0
 70
   128
 71
    41
 72
   -44
 73
    43
  0
VERTEX
  5
1EC
  8
0
  6
BYBLOCK
 62
     0
 10
0.0
 20
0.0
 30
0.0
 70
   128
 71
    45
 72
   -43
 73
    44
  0
VERTEX
  5
1ED
  8
0
  6
BYBLOCK
 62
     0
 10
0.0
 20
0.0
 30
0.0
 70
   128
 71
    44
 72
   -46
 73
    45
  0
VERTEX
  5
1EE
  8
0
  6
BYBLOCK
 62
     0
 10
0.0
 20
0.0
 30
0.0
 70
   128
 71
    47
 72
   -45
 73
    46
  0
VERTEX
  5
1EF
  8
0
  6
BYBLOCK
 62
     0
 10
0.0
 20
0.0
 30
0.0
 70
   128
 71
    48
 72
   -49
 73
    50
  0
VERTEX
  5
1F0
  8
0
  6
BYBLOCK
 62
     0
 10
0.0
 20
0.0
 30
0.0
 70
   128
 71
    51
 72
   -50
 73
    49
  0
VERTEX
  5
1F1
  8
0
  6
BYBLOCK
 62
     0
 10
0.0
 20
0.0
 30
0.0
 70
   128
 71
    52
 72
   -53
 73
    48
  0
VERTEX
  5
1F2
  8
0
  6
BYBLOCK
 62
     0
 10
0.0
 20
0.0
 30
0.0
 70
   128
 71
    49
 72
   -48
 73
    53
  0
VERTEX
  5
1F3
  8
0
  6
BYBLOCK
 62
     0
 10
0.0
 20
0.0
 30
0.0
 70
   128
 71
    54
 72
   -55
 73
    52
  0
VERTEX
  5
1F4
  8
0
  6
BYBLOCK
 62
     0
 10
0.0
 20
0.0
 30
0.0
 70
   128
 71
    53
 72
   -52
 73
    55
  0
VERTEX
  5
1F5
  8
0
  6
BYBLOCK
 62
     0
 10
0.0
 20
0.0
 30
0.0
 70
   128
 71
    56
 72
   -57
 73
    54
  0
VERTEX
  5
1F6
  8
0
  6
BYBLOCK
 62
     0
 10
0.0
 20
0.0
 30
0.0
 70
   128
 71
    55
 72
   -54
 73
    57
  0
VERTEX
  5
1F7
  8
0
  6
BYBLOCK
 62
     0
 10
0.0
 20
0.0
 30
0.0
 70
   128
 71
    58
 72
   -59
 73
    60
  0
VERTEX
  5
1F8
  8
0
  6
BYBLOCK
 62
     0
 10
0.0
 20
0.0
 30
0.0
 70
   128
 71
    61
 72
   -60
 73
    59
  0
VERTEX
  5
1F9
  8
0
  6
BYBLOCK
 62
     0
 10
0.0
 20
0.0
 30
0.0
 70
   128
 71
    59
 72
   -62
 73
    61
  0
VERTEX
  5
1FA
  8
0
  6
BYBLOCK
 62
     0
 10
0.0
 20
0.0
 30
0.0
 70
   128
 71
    63
 72
   -61
 73
    62
  0
VERTEX
  5
1FB
  8
0
  6
BYBLOCK
 62
     0
 10
0.0
 20
0.0
 30
0.0
 70
   128
 71
    57
 72
   -64
 73
    55
  0
VERTEX
  5
1FC
  8
0
  6
BYBLOCK
 62
     0
 10
0.0
 20
0.0
 30
0.0
 70
   128
 71
    65
 72
   -55
 73
    64
  0
VERTEX
  5
1FD
  8
0
  6
BYBLOCK
 62
     0
 10
0.0
 20
0.0
 30
0.0
 70
   128
 71
    55
 72
   -65
 73
    53
  0
VERTEX
  5
1FE
  8
0
  6
BYBLOCK
 62
     0
 10
0.0
 20
0.0
 30
0.0
 70
   128
 71
    66
 72
   -53
 73
    65
  0
VERTEX
  5
1FF
  8
0
  6
BYBLOCK
 62
     0
 10
0.0
 20
0.0
 30
0.0
 70
   128
 71
    53
 72
   -66
 73
    49
  0
VERTEX
  5
200
  8
0
  6
BYBLOCK
 62
     0
 10
0.0
 20
0.0
 30
0.0
 70
   128
 71
    67
 72
   -49
 73
    66
  0
VERTEX
  5
201
  8
0
  6
BYBLOCK
 62
     0
 10
0.0
 20
0.0
 30
0.0
 70
   128
 71
    49
 72
   -67
 73
    51
  0
VERTEX
  5
202
  8
0
  6
BYBLOCK
 62
     0
 10
0.0
 20
0.0
 30
0.0
 70
   128
 71
    68
 72
   -51
 73
    67
  0
VERTEX
  5
203
  8
0
  6
BYBLOCK
 62
     0
 10
0.0
 20
0.0
 30
0.0
 70
   128
 71
    67
 72
    -1
 73
    68
  0
VERTEX
  5
204
  8
0
  6
BYBLOCK
 62
     0
 10
0.0
 20
0.0
 30
0.0
 70
   128
 71
     4
 72
   -68
 73
     1
  0
VERTEX
  5
205
  8
0
  6
BYBLOCK
 62
     0
 10
0.0
 20
0.0
 30
0.0
 70
   128
 71
    66
 72
    -5
 73
    67
  0
VERTEX
  5
206
  8
0
  6
BYBLOCK
 62
     0
 10
0.0
 20
0.0
 30
0.0
 70
   128
 71
     1
 72
   -67
 73
     5
  0
VERTEX
  5
207
  8
0
  6
BYBLOCK
 62
     0
 10
0.0
 20
0.0
 30
0.0
 70
   128
 71
    65
 72
    -7
 73
    66
  0
VERTEX
  5
208
  8
0
  6
BYBLOCK
 62
     0
 10
0.0
 20
0.0
 30
0.0
 70
   128
 71
     5
 72
   -66
 73
     7
  0
VERTEX
  5
209
  8
0
  6
BYBLOCK
 62
     0
 10
0.0
 20
0.0
 30
0.0
 70
   128
 71
    64
 72
    -9
 73
    65
  0
VERTEX
  5
20A
  8
0
  6
BYBLOCK
 62
     0
 10
0.0
 20
0.0
 30
0.0
 70
   128
 71
     7
 72
   -65
 73
     9
  0
VERTEX
  5
20B
  8
0
  6
BYBLOCK
 62
     0
 10
0.0
 20
0.0
 30
0.0
 70
   128
 71
    62
 72
   -11
 73
    63
  0
VERTEX
  5
20C
  8
0
  6
BYBLOCK
 62
     0
 10
0.0
 20
0.0
 30
0.0
 70
   128
 71
    14
 72
   -63
 73
    11
  0
VERTEX
  5
20D
  8
0
  6
BYBLOCK
 62
     0
 10
0.0
 20
0.0
 30
0.0
 70
   128
 71
    69
 72
   -70
 73
    71
  0
VERTEX
  5
20E
  8
0
  6
BYBLOCK
 62
     0
 10
0.0
 20
0.0
 30
0.0
 70
   128
 71
   -71
 72
    70
 73
    72
  0
VERTEX
  5
20F
  8
0
  6
BYBLOCK
 62
     0
 10
0.0
 20
0.0
 30
0.0
 70
   128
 71
    73
 72
   -70
 73
    74
  0
VERTEX
  5
210
  8
0
  6
BYBLOCK
 62
     0
 10
0.0
 20
0.0
 30
0.0
 70
   128
 71
    69
 72
   -74
 73
    70
  0
VERTEX
  5
211
  8
0
  6
BYBLOCK
 62
     0
 10
0.0
 20
0.0
 30
0.0
 70
   128
 71
    75
 72
   -73
 73
    76
  0
VERTEX
  5
212
  8
0
  6
BYBLOCK
 62
     0
 10
0.0
 20
0.0
 30
0.0
 70
   128
 71
    74
 72
   -76
 73
    73
  0
VERTEX
  5
213
  8
0
  6
BYBLOCK
 62
     0
 10
0.0
 20
0.0
 30
0.0
 70
   128
 71
    77
 72
   -75
 73
    78
  0
VERTEX
  5
214
  8
0
  6
BYBLOCK
 62
     0
 10
0.0
 20
0.0
 30
0.0
 70
   128
 71
    76
 72
   -78
 73
    75
  0
VERTEX
  5
215
  8
0
  6
BYBLOCK
 62
     0
 10
0.0
 20
0.0
 30
0.0
 70
   128
 71
    79
 72
   -77
 73
    80
  0
VERTEX
  5
216
  8
0
  6
BYBLOCK
 62
     0
 10
0.0
 20
0.0
 30
0.0
 70
   128
 71
   -80
 72
    77
 73
    78
  0
VERTEX
  5
217
  8
0
  6
BYBLOCK
 62
     0
 10
0.0
 20
0.0
 30
0.0
 70
   128
 71
    80
 72
   -78
 73
    81
  0
VERTEX
  5
218
  8
0
  6
BYBLOCK
 62
     0
 10
0.0
 20
0.0
 30
0.0
 70
   128
 71
    82
 72
   -81
 73
    78
  0
VERTEX
  5
219
  8
0
  6
BYBLOCK
 62
     0
 10
0.0
 20
0.0
 30
0.0
 70
   128
 71
    78
 72
   -76
 73
    82
  0
VERTEX
  5
21A
  8
0
  6
BYBLOCK
 62
     0
 10
0.0
 20
0.0
 30
0.0
 70
   128
 71
    83
 72
   -82
 73
    76
  0
VERTEX
  5
21B
  8
0
  6
BYBLOCK
 62
     0
 10
0.0
 20
0.0
 30
0.0
 70
   128
 71
    76
 72
   -74
 73
    83
  0
VERTEX
  5
21C
  8
0
  6
BYBLOCK
 62
     0
 10
0.0
 20
0.0
 30
0.0
 70
   128
 71
    84
 72
   -83
 73
    74
  0
VERTEX
  5
21D
  8
0
  6
BYBLOCK
 62
     0
 10
0.0
 20
0.0
 30
0.0
 70
   128
 71
    74
 72
   -69
 73
    84
  0
VERTEX
  5
21E
  8
0
  6
BYBLOCK
 62
     0
 10
0.0
 20
0.0
 30
0.0
 70
   128
 71
    85
 72
   -84
 73
    69
  0
VERTEX
  5
21F
  8
0
  6
BYBLOCK
 62
     0
 10
0.0
 20
0.0
 30
0.0
 70
   128
 71
    69
 72
   -71
 73
    85
  0
VERTEX
  5
220
  8
0
  6
BYBLOCK
 62
     0
 10
0.0
 20
0.0
 30
0.0
 70
   128
 71
    86
 72
   -85
 73
    71
  0
VERTEX
  5
221
  8
0
  6
BYBLOCK
 62
     0
 10
0.0
 20
0.0
 30
0.0
 70
   128
 71
    85
 72
   -86
 73
    87
  0
VERTEX
  5
222
  8
0
  6
BYBLOCK
 62
     0
 10
0.0
 20
0.0
 30
0.0
 70
   128
 71
    88
 72
   -87
 73
    86
  0
VERTEX
  5
223
  8
0
  6
BYBLOCK
 62
     0
 10
0.0
 20
0.0
 30
0.0
 70
   128
 71
    84
 72
   -85
 73
    89
  0
VERTEX
  5
224
  8
0
  6
BYBLOCK
 62
     0
 10
0.0
 20
0.0
 30
0.0
 70
   128
 71
    87
 72
   -89
 73
    85
  0
VERTEX
  5
225
  8
0
  6
BYBLOCK
 62
     0
 10
0.0
 20
0.0
 30
0.0
 70
   128
 71
    83
 72
   -84
 73
    90
  0
VERTEX
  5
226
  8
0
  6
BYBLOCK
 62
     0
 10
0.0
 20
0.0
 30
0.0
 70
   128
 71
    89
 72
   -90
 73
    84
  0
VERTEX
  5
227
  8
0
  6
BYBLOCK
 62
     0
 10
0.0
 20
0.0
 30
0.0
 70
   128
 71
    82
 72
   -83
 73
    91
  0
VERTEX
  5
228
  8
0
  6
BYBLOCK
 62
     0
 10
0.0
 20
0.0
 30
0.0
 70
   128
 71
    90
 72
   -91
 73
    83
  0
VERTEX
  5
229
  8
0
  6
BYBLOCK
 62
     0
 10
0.0
 20
0.0
 30
0.0
 70
   128
 71
    81
 72
   -82
 73
    92
  0
VERTEX
  5
22A
  8
0
  6
BYBLOCK
 62
     0
 10
0.0
 20
0.0
 30
0.0
 70
   128
 71
    91
 72
   -92
 73
    82
  0
VERTEX
  5
22B
  8
0
  6
BYBLOCK
 62
     0
 10
0.0
 20
0.0
 30
0.0
 70
   128
 71
    87
 72
   -88
 73
    93
  0
VERTEX
  5
22C
  8
0
  6
BYBLOCK
 62
     0
 10
0.0
 20
0.0
 30
0.0
 70
   128
 71
   -93
 72
    88
 73
    94
  0
VERTEX
  5
22D
  8
0
  6
BYBLOCK
 62
     0
 10
0.0
 20
0.0
 30
0.0
 70
   128
 71
    95
 72
   -89
 73
    93
  0
VERTEX
  5
22E
  8
0
  6
BYBLOCK
 62
     0
 10
0.0
 20
0.0
 30
0.0
 70
   128
 71
   -93
 72
    89
 73
    87
  0
VERTEX
  5
22F
  8
0
  6
BYBLOCK
 62
     0
 10
0.0
 20
0.0
 30
0.0
 70
   128
 71
    90
 72
   -89
 73
    96
  0
VERTEX
  5
230
  8
0
  6
BYBLOCK
 62
     0
 10
0.0
 20
0.0
 30
0.0
 70
   128
 71
    95
 72
   -96
 73
    89
  0
VERTEX
  5
231
  8
0
  6
BYBLOCK
 62
     0
 10
0.0
 20
0.0
 30
0.0
 70
   128
 71
    91
 72
   -90
 73
    97
  0
VERTEX
  5
232
  8
0
  6
BYBLOCK
 62
     0
 10
0.0
 20
0.0
 30
0.0
 70
   128
 71
   -97
 72
    90
 73
    96
  0
VERTEX
  5
233
  8
0
  6
BYBLOCK
 62
     0
 10
0.0
 20
0.0
 30
0.0
 70
   128
 71
    98
 72
   -92
 73
    97
  0
VERTEX
  5
234
  8
0
  6
BYBLOCK
 62
     0
 10
0.0
 20
0.0
 30
0.0
 70
   128
 71
   -97
 72
    92
 73
    91
  0
VERTEX
  5
235
  8
0
  6
BYBLOCK
 62
     0
 10
0.0
 20
0.0
 30
0.0
 70
   128
 71
    99
 72
  -100
 73
   101
  0
VERTEX
  5
236
  8
0
  6
BYBLOCK
 62
     0
 10
0.0
 20
0.0
 30
0.0
 70
   128
 71
   102
 72
  -101
 73
   100
  0
VERTEX
  5
237
  8
0
  6
BYBLOCK
 62
     0
 10
0.0
 20
0.0
 30
0.0
 70
   128
 71
   101
 72
  -102
 73
   103
  0
VERTEX
  5
238
  8
0
  6
BYBLOCK
 62
     0
 10
0.0
 20
0.0
 30
0.0
 70
   128
 71
   104
 72
  -103
 73
   102
  0
VERTEX
  5
239
  8
0
  6
BYBLOCK
 62
     0
 10
0.0
 20
0.0
 30
0.0
 70
   128
 71
   103
 72
  -104
 73
   105
  0
VERTEX
  5
23A
  8
0
  6
BYBLOCK
 62
     0
 10
0.0
 20
0.0
 30
0.0
 70
   128
 71
   106
 72
  -105
 73
   104
  0
VERTEX
  5
23B
  8
0
  6
BYBLOCK
 62
     0
 10
0.0
 20
0.0
 30
0.0
 70
   128
 71
   105
 72
  -106
 73
   107
  0
VERTEX
  5
23C
  8
0
  6
BYBLOCK
 62
     0
 10
0.0
 20
0.0
 30
0.0
 70
   128
 71
   108
 72
  -107
 73
   106
  0
SEQEND
  5
23D
  8
0
  6
BYBLOCK
 62
     0
  0
POLYLINE
  5
2B0
  8
0
  6
BYBLOCK
 62
     0
 66
     1
 10
0.0
 20
0.0
 30
0.0
 70
    64
 71
   174
 72
   188
1001
AVE_ENTITY_MATERIAL
1002
{
1000

1002
{
1071
        0
1070
     0
1070
     0
1002
{
1070
     0
1070
     0
1070
     0
1040
0.0
1002
}
1070
     0
1070
     0
1002
{
1002
}
1002
}
1002
{
1002
{
1071
        0
1070
     4
1002
}
1002
}
1002
{
1002
{
1071
        0
1002
{
1002
{
1040
1.0
1040
0.0
1070
     0
1002
}
1002
{
1040
1.0
1040
0.0
1070
     0
1002
}
1040
0.0
1002
}
1002
{
1040
0.0
1040
0.0
1040
9.600000381469727
1040
23.67062187194824
1040
-12.80000019073486
1040
0.0
1040
0.0
1040
6.400000095367432
1040
0.0000000000000018
1040
9.600000381469727
1040
0.0
1040
15.23616123199463
1070
     1
1002
{
1002
}
1070
     0
1002
}
1002
}
1002
}
1011
-0.5997296843120181
1021
0.1625600024223328
1031
0.383802096632123
1021
0.1625600024223328
1031
0.383802096632123
1011
-0.5997296843120181
1021
-0.1625600024223328
1031
0.383802096632123
1021
-0.1625600024223328
1031
0.383802096632123
1011
-0.5997296843120181
1021
0.1625600024223328
1031
0.627642106321454
1021
0.1625600024223328
1031
0.627642106321454
1011
-0.3558896746226871
1021
0.1625600024223328
1031
0.383802096632123
1021
0.1625600024223328
1031
0.383802096632123
1002
}
1001
AVE_FINISH
1002
{
1070
     0
1005
0
1002
}
  0
VERTEX
  5
2B1
  8
0
 10
-1.093512964875373
 20
0.2819596548080444
 30
0.1351180148869753
 70
   192
  0
VERTEX
  5
2B2
  8
0
 10
-1.122823512274894
 20
0.2819596548080444
 30
0.3947257757931947
 70
   192
  0
VERTEX
  5
2B3
  8
0
 10
-1.122823512274894
 20
-0.2819596548080444
 30
0.3947257757931947
 70
   192
  0
VERTEX
  5
2B4
  8
0
 10
-1.093512964875373
 20
-0.2819596548080444
 30
0.1351180148869753
 70
   192
  0
VERTEX
  5
2B5
  8
0
 10
-1.155957403094443
 20
-0.2090057260513306
 30
1.003776245382428
 70
   192
  0
VERTEX
  5
2B6
  8
0
 10
-1.199386514736088
 20
-0.2090057260513306
 30
0.9528591982632875
 70
   192
  0
VERTEX
  5
2B7
  8
0
 10
-1.154003364784392
 20
-0.0754742872714996
 30
0.9864690653592347
 70
   192
  0
VERTEX
  5
2B8
  8
0
 10
-1.195478441143903
 20
-0.0754742872714996
 30
0.9182448382169008
 70
   192
  0
VERTEX
  5
2B9
  8
0
 10
-0.3661298441478336
 20
-0.0754742872714996
 30
0.2612232414990663
 70
   192
  0
VERTEX
  5
2BA
  8
0
 10
-0.3700378420421207
 20
-0.2090057260513306
 30
0.2958376257687807
 70
   192
  0
VERTEX
  5
2BB
  8
0
 10
-0.4181814150401676
 20
-0.2090057260513306
 30
0.2061660885602236
 70
   192
  0
VERTEX
  5
2BC
  8
0
 10
-0.4181814150401676
 20
-0.0754742872714996
 30
0.2061660885602236
 70
   192
  0
VERTEX
  5
2BD
  8
0
 10
-0.3790563807078922
 20
-0.0754742872714996
 30
0.3416831074506044
 70
   192
  0
VERTEX
  5
2BE
  8
0
 10
-0.3829644754954898
 20
-0.2090057260513306
 30
0.3762974674969912
 70
   192
  0
VERTEX
  5
2BF
  8
0
 10
-0.8883719980784976
 20
-0.0754742872714996
 30
0.4217911295682192
 70
   192
  0
VERTEX
  5
2C0
  8
0
 10
-0.8922800928660953
 20
-0.2090057260513306
 30
0.4564054896146059
 70
   192
  0
VERTEX
  5
2C1
  8
0
 10
-0.9047046494075381
 20
-0.2090057260513306
 30
0.3327893431454897
 70
   192
  0
VERTEX
  5
2C2
  8
0
 10
-0.9007965788432681
 20
-0.0754742872714996
 30
0.298174983099103
 70
   192
  0
VERTEX
  5
2C3
  8
0
 10
-0.9247225166865909
 20
-0.0754742872714996
 30
0.6204885943204165
 70
   192
  0
VERTEX
  5
2C4
  8
0
 10
-0.9286305872508609
 20
-0.2090057260513306
 30
0.6551030028134585
 70
   192
  0
VERTEX
  5
2C5
  8
0
 10
-1.018513400323066
 20
-0.0754742872714996
 30
0.7925538183957338
 70
   192
  0
VERTEX
  5
2C6
  8
0
 10
-1.022421470887336
 20
-0.2090057260513306
 30
0.8271682268887758
 70
   192
  0
VERTEX
  5
2C7
  8
0
 10
-0.9918899284907902
 20
-0.0754742872714996
 30
0.8573319865018129
 70
   192
  0
VERTEX
  5
2C8
  8
0
 10
-0.9957979990550602
 20
-0.2090057260513306
 30
0.8919463465481996
 70
   192
  0
VERTEX
  5
2C9
  8
0
 10
-1.003974232060584
 20
-0.0754742872714996
 30
0.9303317942410707
 70
   192
  0
VERTEX
  5
2CA
  8
0
 10
-1.007882314736518
 20
-0.2090057260513306
 30
0.9649461542874574
 70
   192
  0
VERTEX
  5
2CB
  8
0
 10
-1.072966011674079
 20
-0.0754742872714996
 30
0.9942872896939515
 70
   192
  0
VERTEX
  5
2CC
  8
0
 10
-1.074920046956214
 20
-0.2090057260513306
 30
1.011594469717145
 70
   192
  0
VERTEX
  5
2CD
  8
0
 10
-1.071011976391944
 20
-0.2786742933273315
 30
0.9769801096707582
 70
   192
  0
VERTEX
  5
2CE
  8
0
 10
-1.003974232060584
 20
-0.2786742933273315
 30
0.9303317942410707
 70
   192
  0
VERTEX
  5
2CF
  8
0
 10
-0.9918899284907902
 20
-0.2786742933273315
 30
0.8573319865018129
 70
   192
  0
VERTEX
  5
2D0
  8
0
 10
-1.018513400323066
 20
-0.2786742933273315
 30
0.7925538183957338
 70
   192
  0
VERTEX
  5
2D1
  8
0
 10
-0.9247225166865909
 20
-0.2786742933273315
 30
0.6204885943204165
 70
   192
  0
VERTEX
  5
2D2
  8
0
 10
-0.8883719980784976
 20
-0.2786742933273315
 30
0.4217911295682192
 70
   192
  0
VERTEX
  5
2D3
  8
0
 10
-0.9007965788432681
 20
-0.2786742933273315
 30
0.298174983099103
 70
   192
  0
VERTEX
  5
2D4
  8
0
 10
-0.3790563807078922
 20
-0.2786742933273315
 30
0.3416831074506044
 70
   192
  0
VERTEX
  5
2D5
  8
0
 10
-0.3661298441478336
 20
-0.2786742933273315
 30
0.2612232414990663
 70
   192
  0
VERTEX
  5
2D6
  8
0
 10
-0.4181814150401676
 20
-0.2786742933273315
 30
0.2061660885602236
 70
   192
  0
VERTEX
  5
2D7
  8
0
 10
-1.195478441143903
 20
-0.2786742933273315
 30
0.9182448382169008
 70
   192
  0
VERTEX
  5
2D8
  8
0
 10
-1.152049329502257
 20
-0.2786742933273315
 30
0.9691618853360414
 70
   192
  0
VERTEX
  5
2D9
  8
0
 10
-0.5997570082255924
 20
-0.2819596548080444
 30
0.378672588995099
 70
   192
  0
VERTEX
  5
2DA
  8
0
 10
-0.6320912748881901
 20
-0.2819596548080444
 30
0.4135068484097719
 70
   192
  0
VERTEX
  5
2DB
  8
0
 10
-0.6320912748881901
 20
-0.3650313041687012
 30
0.4136571299344301
 70
   192
  0
VERTEX
  5
2DC
  8
0
 10
-0.5997570082255924
 20
-0.3650313041687012
 30
0.3788228462964296
 70
   192
  0
VERTEX
  5
2DD
  8
0
 10
-0.6274602591106021
 20
-0.2840483354568482
 30
0.5644936110287905
 70
   192
  0
VERTEX
  5
2DE
  8
0
 10
-0.644877364594611
 20
-0.3752880666732788
 30
0.4770278258115053
 70
   192
  0
VERTEX
  5
2DF
  8
0
 10
-0.6100431051799381
 20
-0.3728505216598511
 30
0.5904802031308413
 70
   192
  0
VERTEX
  5
2E0
  8
0
 10
-0.6274602591106021
 20
-0.4092398460388184
 30
0.5692644438534975
 70
   192
  0
VERTEX
  5
2E1
  8
0
 10
-0.6100431051799381
 20
-0.3158454498291016
 30
0.5909864706784487
 70
   192
  0
VERTEX
  5
2E2
  8
0
 10
-0.644877364594611
 20
-0.4249769184112548
 30
0.5390490401059389
 70
   192
  0
VERTEX
  5
2E3
  8
0
 10
-0.644877364594611
 20
-0.4152511070251464
 30
0.4992918738156557
 70
   192
  0
VERTEX
  5
2E4
  8
0
 10
-0.5300884409495914
 20
-0.2819596548080444
 30
-0.0001502743333578
 70
   192
  0
VERTEX
  5
2E5
  8
0
 10
-0.5300884409495914
 20
-0.2819596548080444
 30
0.3438383053570986
 70
   192
  0
VERTEX
  5
2E6
  8
0
 10
-0.5300884409495914
 20
-0.3650313041687012
 30
0.3439885626584291
 70
   192
  0
VERTEX
  5
2E7
  8
0
 10
-0.5300884409495914
 20
-0.3650313041687012
 30
0.0
 70
   192
  0
VERTEX
  5
2E8
  8
0
 10
-1.187662293202552
 20
-0.2090057260513306
 30
0.8490160212308168
 70
   192
  0
VERTEX
  5
2E9
  8
0
 10
-1.187662293202552
 20
-0.0754742872714996
 30
0.8490160212308168
 70
   192
  0
VERTEX
  5
2EA
  8
0
 10
-1.187662293202552
 20
-0.2786742933273315
 30
0.8490160212308168
 70
   192
  0
VERTEX
  5
2EB
  8
0
 10
-1.104854163367423
 20
-0.3650313041687012
 30
0.4136571299344301
 70
   192
  0
VERTEX
  5
2EC
  8
0
 10
-1.104854163367423
 20
-0.3650313041687012
 30
0.0
 70
   192
  0
VERTEX
  5
2ED
  8
0
 10
-1.104854163367423
 20
-0.2819596548080444
 30
0.4135068484097719
 70
   192
  0
VERTEX
  5
2EE
  8
0
 10
-1.104854163367423
 20
-0.2819596548080444
 30
-0.0001502743333578
 70
   192
  0
VERTEX
  5
2EF
  8
0
 10
-1.195478441143903
 20
0.2786742933273315
 30
0.9182448382169008
 70
   192
  0
VERTEX
  5
2F0
  8
0
 10
-1.199386514736088
 20
0.2090057260513306
 30
0.9528591982632875
 70
   192
  0
VERTEX
  5
2F1
  8
0
 10
-1.187662293202552
 20
0.2786742933273315
 30
0.8490160212308168
 70
   192
  0
VERTEX
  5
2F2
  8
0
 10
-1.187662293202552
 20
0.2090057260513306
 30
0.8490160212308168
 70
   192
  0
VERTEX
  5
2F3
  8
0
 10
-1.195478441143903
 20
0.0754742872714996
 30
0.9182448382169008
 70
   192
  0
VERTEX
  5
2F4
  8
0
 10
-1.187662293202552
 20
0.0754742872714996
 30
0.8490160212308168
 70
   192
  0
VERTEX
  5
2F5
  8
0
 10
-0.5300884409495914
 20
0.2819596548080444
 30
0.3438383053570986
 70
   192
  0
VERTEX
  5
2F6
  8
0
 10
-0.5300884409495914
 20
0.2819596548080444
 30
-0.0001502743333578
 70
   192
  0
VERTEX
  5
2F7
  8
0
 10
-0.5300884409495914
 20
0.3650313041687012
 30
0.3439885626584291
 70
   192
  0
VERTEX
  5
2F8
  8
0
 10
-0.5300884409495914
 20
0.3650313041687012
 30
0.0
 70
   192
  0
VERTEX
  5
2F9
  8
0
 10
-0.644877364594611
 20
0.4152511070251464
 30
0.4992918738156557
 70
   192
  0
VERTEX
  5
2FA
  8
0
 10
-0.6274602591106021
 20
0.2840483354568482
 30
0.5644936110287905
 70
   192
  0
VERTEX
  5
2FB
  8
0
 10
-0.644877364594611
 20
0.3752880666732788
 30
0.4770278258115053
 70
   192
  0
VERTEX
  5
2FC
  8
0
 10
-0.644877364594611
 20
0.4249769184112548
 30
0.5390490401059389
 70
   192
  0
VERTEX
  5
2FD
  8
0
 10
-0.6274602591106021
 20
0.4092398460388184
 30
0.5692644438534975
 70
   192
  0
VERTEX
  5
2FE
  8
0
 10
-0.6100431051799381
 20
0.3728505216598511
 30
0.5904802031308413
 70
   192
  0
VERTEX
  5
2FF
  8
0
 10
-0.6100431051799381
 20
0.3158454498291016
 30
0.5909864706784487
 70
   192
  0
VERTEX
  5
300
  8
0
 10
-0.6320912748881901
 20
0.2819596548080444
 30
0.4135068484097719
 70
   192
  0
VERTEX
  5
301
  8
0
 10
-0.6320912748881901
 20
0.3650313041687012
 30
0.4136571299344301
 70
   192
  0
VERTEX
  5
302
  8
0
 10
-0.5997570082255924
 20
0.2819596548080444
 30
0.378672588995099
 70
   192
  0
VERTEX
  5
303
  8
0
 10
-0.5997570082255924
 20
0.3650313041687012
 30
0.3788228462964296
 70
   192
  0
VERTEX
  5
304
  8
0
 10
-1.152049329502257
 20
0.2786742933273315
 30
0.9691618853360414
 70
   192
  0
VERTEX
  5
305
  8
0
 10
-1.155957403094443
 20
0.2090057260513306
 30
1.003776245382428
 70
   192
  0
VERTEX
  5
306
  8
0
 10
-0.4181814150401676
 20
0.2786742933273315
 30
0.2061660885602236
 70
   192
  0
VERTEX
  5
307
  8
0
 10
-0.3661298441478336
 20
0.2786742933273315
 30
0.2612232414990663
 70
   192
  0
VERTEX
  5
308
  8
0
 10
-0.4181814150401676
 20
0.2090057260513306
 30
0.2061660885602236
 70
   192
  0
VERTEX
  5
309
  8
0
 10
-0.3700378420421207
 20
0.2090057260513306
 30
0.2958376257687807
 70
   192
  0
VERTEX
  5
30A
  8
0
 10
-0.3790563807078922
 20
0.2786742933273315
 30
0.3416831074506044
 70
   192
  0
VERTEX
  5
30B
  8
0
 10
-0.3829644754954898
 20
0.2090057260513306
 30
0.3762974674969912
 70
   192
  0
VERTEX
  5
30C
  8
0
 10
-0.8883719980784976
 20
0.2786742933273315
 30
0.4217911295682192
 70
   192
  0
VERTEX
  5
30D
  8
0
 10
-0.8922800928660953
 20
0.2090057260513306
 30
0.4564054896146059
 70
   192
  0
VERTEX
  5
30E
  8
0
 10
-0.9007965788432681
 20
0.2786742933273315
 30
0.298174983099103
 70
   192
  0
VERTEX
  5
30F
  8
0
 10
-0.9047046494075381
 20
0.2090057260513306
 30
0.3327893431454897
 70
   192
  0
VERTEX
  5
310
  8
0
 10
-0.9247225166865909
 20
0.2786742933273315
 30
0.6204885943204165
 70
   192
  0
VERTEX
  5
311
  8
0
 10
-0.9286305872508609
 20
0.2090057260513306
 30
0.6551030028134585
 70
   192
  0
VERTEX
  5
312
  8
0
 10
-1.018513400323066
 20
0.2786742933273315
 30
0.7925538183957338
 70
   192
  0
VERTEX
  5
313
  8
0
 10
-1.022421470887336
 20
0.2090057260513306
 30
0.8271682268887758
 70
   192
  0
VERTEX
  5
314
  8
0
 10
-0.9918899284907902
 20
0.2786742933273315
 30
0.8573319865018129
 70
   192
  0
VERTEX
  5
315
  8
0
 10
-0.9957979990550602
 20
0.2090057260513306
 30
0.8919463465481996
 70
   192
  0
VERTEX
  5
316
  8
0
 10
-1.003974232060584
 20
0.2786742933273315
 30
0.9303317942410707
 70
   192
  0
VERTEX
  5
317
  8
0
 10
-1.007882314736518
 20
0.2090057260513306
 30
0.9649461542874574
 70
   192
  0
VERTEX
  5
318
  8
0
 10
-1.071011976391944
 20
0.2786742933273315
 30
0.9769801096707582
 70
   192
  0
VERTEX
  5
319
  8
0
 10
-1.074920046956214
 20
0.2090057260513306
 30
1.011594469717145
 70
   192
  0
VERTEX
  5
31A
  8
0
 10
-1.072966011674079
 20
0.0754742872714996
 30
0.9942872896939515
 70
   192
  0
VERTEX
  5
31B
  8
0
 10
-1.003974232060584
 20
0.0754742872714996
 30
0.9303317942410707
 70
   192
  0
VERTEX
  5
31C
  8
0
 10
-0.9918899284907902
 20
0.0754742872714996
 30
0.8573319865018129
 70
   192
  0
VERTEX
  5
31D
  8
0
 10
-1.018513400323066
 20
0.0754742872714996
 30
0.7925538183957338
 70
   192
  0
VERTEX
  5
31E
  8
0
 10
-0.9247225166865909
 20
0.0754742872714996
 30
0.6204885943204165
 70
   192
  0
VERTEX
  5
31F
  8
0
 10
-0.8883719980784976
 20
0.0754742872714996
 30
0.4217911295682192
 70
   192
  0
VERTEX
  5
320
  8
0
 10
-0.9007965788432681
 20
0.0754742872714996
 30
0.298174983099103
 70
   192
  0
VERTEX
  5
321
  8
0
 10
-0.3790563807078922
 20
0.0754742872714996
 30
0.3416831074506044
 70
   192
  0
VERTEX
  5
322
  8
0
 10
-0.3661298441478336
 20
0.0754742872714996
 30
0.2612232414990663
 70
   192
  0
VERTEX
  5
323
  8
0
 10
-0.4181814150401676
 20
0.0754742872714996
 30
0.2061660885602236
 70
   192
  0
VERTEX
  5
324
  8
0
 10
-1.154003364784392
 20
0.0754742872714996
 30
0.9864690653592347
 70
   192
  0
VERTEX
  5
325
  8
0
 10
-0.321690017945441
 20
0.254
 30
0.3181412789136171
 70
   192
  0
VERTEX
  5
326
  8
0
 10
-0.3267437792369449
 20
0.2032
 30
0.346086036375165
 70
   192
  0
VERTEX
  5
327
  8
0
 10
-0.2915272272655094
 20
0.254
 30
0.3470013632565737
 70
   192
  0
VERTEX
  5
328
  8
0
 10
-0.2965810854503239
 20
0.2032
 30
0.3749461207181215
 70
   192
  0
VERTEX
  5
329
  8
0
 10
-0.3001485033580387
 20
0.0762
 30
0.362757450941205
 70
   192
  0
VERTEX
  5
32A
  8
0
 10
-0.3181226000377262
 20
0.0762
 30
0.3303299486905336
 70
   192
  0
VERTEX
  5
32B
  8
0
 10
-0.3181226000377262
 20
-0.0762
 30
0.3303299486905336
 70
   192
  0
VERTEX
  5
32C
  8
0
 10
-0.3001485033580387
 20
-0.0762
 30
0.362757450941205
 70
   192
  0
VERTEX
  5
32D
  8
0
 10
-0.3267437792369449
 20
-0.2032
 30
0.346086036375165
 70
   192
  0
VERTEX
  5
32E
  8
0
 10
-0.2965810854503239
 20
-0.2032
 30
0.3749461207181215
 70
   192
  0
VERTEX
  5
32F
  8
0
 10
-0.321690017945441
 20
-0.254
 30
0.3181412789136171
 70
   192
  0
VERTEX
  5
330
  8
0
 10
-0.2915272272655094
 20
-0.254
 30
0.3470013632565737
 70
   192
  0
VERTEX
  5
331
  8
0
 10
-0.028481946046027
 20
0.254
 30
0.2694631455212831
 70
   192
  0
VERTEX
  5
332
  8
0
 10
-0.0091585131236637
 20
0.2032
 30
0.2902730671674013
 70
   192
  0
VERTEX
  5
333
  8
0
 10
-0.019396357209357
 20
0.254
 30
0.2299875269681215
 70
   192
  0
VERTEX
  5
334
  8
0
 10
-0.0000728273936832
 20
0.2032
 30
0.2507974486142397
 70
   192
  0
VERTEX
  5
335
  8
0
 10
-0.0249145281383121
 20
0.0762
 30
0.2816518152981997
 70
   192
  0
VERTEX
  5
336
  8
0
 10
-0.0158289393016422
 20
0.0762
 30
0.242176196745038
 70
   192
  0
VERTEX
  5
337
  8
0
 10
-0.0249145281383121
 20
-0.0762
 30
0.2816518152981997
 70
   192
  0
VERTEX
  5
338
  8
0
 10
-0.0158289393016422
 20
-0.0762
 30
0.242176196745038
 70
   192
  0
VERTEX
  5
339
  8
0
 10
-0.0091585131236637
 20
-0.2032
 30
0.2902730671674013
 70
   192
  0
VERTEX
  5
33A
  8
0
 10
-0.0000728273936832
 20
-0.2032
 30
0.2507974486142397
 70
   192
  0
VERTEX
  5
33B
  8
0
 10
-0.028481946046027
 20
-0.254
 30
0.2694631455212831
 70
   192
  0
VERTEX
  5
33C
  8
0
 10
-0.019396357209357
 20
-0.254
 30
0.2299875269681215
 70
   192
  0
VERTEX
  5
33D
  8
0
 10
-0.0197614512034977
 20
-0.2032
 30
0.2070118460446596
 70
   192
  0
VERTEX
  5
33E
  8
0
 10
-0.0319501452037418
 20
-0.254
 30
0.2105792639523744
 70
   192
  0
VERTEX
  5
33F
  8
0
 10
-0.0319501452037418
 20
-0.0762
 30
0.2105792639523744
 70
   192
  0
VERTEX
  5
340
  8
0
 10
-0.0319501452037418
 20
0.0762
 30
0.2105792639523744
 70
   192
  0
VERTEX
  5
341
  8
0
 10
-0.0197614512034977
 20
0.2032
 30
0.2070118460446596
 70
   192
  0
VERTEX
  5
342
  8
0
 10
-0.0319501452037418
 20
0.254
 30
0.2105792639523744
 70
   192
  0
VERTEX
  5
343
  8
0
 10
-0.3325321856090153
 20
-0.2032
 30
0.2991476465970277
 70
   192
  0
VERTEX
  5
344
  8
0
 10
-0.3203434916087711
 20
-0.254
 30
0.2955802286893129
 70
   192
  0
VERTEX
  5
345
  8
0
 10
-0.3203434916087711
 20
-0.0762
 30
0.2955802286893129
 70
   192
  0
VERTEX
  5
346
  8
0
 10
-0.3203434916087711
 20
0.0762
 30
0.2955802286893129
 70
   192
  0
VERTEX
  5
347
  8
0
 10
-0.3325321856090153
 20
0.2032
 30
0.2991476465970277
 70
   192
  0
VERTEX
  5
348
  8
0
 10
-0.3203434916087711
 20
0.254
 30
0.2955802286893129
 70
   192
  0
VERTEX
  5
349
  8
0
 10
-1.16030577805725
 20
0.2786742933273315
 30
0.6067155009061098
 70
   192
  0
VERTEX
  5
34A
  8
0
 10
-1.16030577805725
 20
-0.2786742933273315
 30
0.6067155009061098
 70
   192
  0
VERTEX
  5
34B
  8
0
 10
-1.17984614601818
 20
0.2786742933273315
 30
0.7797873011380434
 70
   192
  0
VERTEX
  5
34C
  8
0
 10
-1.17984614601818
 20
-0.2786742933273315
 30
0.7797873011380434
 70
   192
  0
VERTEX
  5
34D
  8
0
 10
-1.104854163367423
 20
-0.2840483354568482
 30
0.5644936110287905
 70
   192
  0
VERTEX
  5
34E
  8
0
 10
-1.104854163367423
 20
-0.3752880666732788
 30
0.4770278258115053
 70
   192
  0
VERTEX
  5
34F
  8
0
 10
-1.104854163367423
 20
-0.4152511070251464
 30
0.4992918738156557
 70
   192
  0
VERTEX
  5
350
  8
0
 10
-1.104854163367423
 20
-0.4249769184112548
 30
0.5390490401059389
 70
   192
  0
VERTEX
  5
351
  8
0
 10
-1.104854163367423
 20
-0.4092398460388184
 30
0.5692644438534975
 70
   192
  0
VERTEX
  5
352
  8
0
 10
-1.104854163367423
 20
-0.3158454498291016
 30
0.5909864706784487
 70
   192
  0
VERTEX
  5
353
  8
0
 10
-1.104854163367423
 20
-0.3728505216598511
 30
0.5904802031308413
 70
   192
  0
VERTEX
  5
354
  8
0
 10
-1.104854163367423
 20
0.2840483354568482
 30
0.5644936110287905
 70
   192
  0
VERTEX
  5
355
  8
0
 10
-1.104854163367423
 20
0.2819596548080444
 30
0.4135068484097719
 70
   192
  0
VERTEX
  5
356
  8
0
 10
-1.104854163367423
 20
0.3650313041687012
 30
0.4136571299344301
 70
   192
  0
VERTEX
  5
357
  8
0
 10
-1.104854163367423
 20
0.3752880666732788
 30
0.4770278258115053
 70
   192
  0
VERTEX
  5
358
  8
0
 10
-1.104854163367423
 20
0.4152511070251464
 30
0.4992918738156557
 70
   192
  0
VERTEX
  5
359
  8
0
 10
-1.104854163367423
 20
0.4249769184112548
 30
0.5390490401059389
 70
   192
  0
VERTEX
  5
35A
  8
0
 10
-1.104854163367423
 20
0.4092398460388184
 30
0.5692644438534975
 70
   192
  0
VERTEX
  5
35B
  8
0
 10
-1.104854163367423
 20
0.3728505216598511
 30
0.5904802031308413
 70
   192
  0
VERTEX
  5
35C
  8
0
 10
-1.104854163367423
 20
0.3158454498291016
 30
0.5909864706784487
 70
   192
  0
VERTEX
  5
35D
  8
0
 10
-1.104854163367423
 20
0.3650313041687012
 30
0.0
 70
   192
  0
VERTEX
  5
35E
  8
0
 10
-1.104854163367423
 20
0.2819596548080444
 30
-0.0001502743333578
 70
   192
  0
VERTEX
  5
35F
  8
0
  6
BYBLOCK
 62
     0
 10
0.0
 20
0.0
 30
0.0
 70
   128
 71
     1
 72
    -2
 73
    -3
  0
VERTEX
  5
360
  8
0
  6
BYBLOCK
 62
     0
 10
0.0
 20
0.0
 30
0.0
 70
   128
 71
     3
 72
     4
 73
    -1
  0
VERTEX
  5
361
  8
0
  6
BYBLOCK
 62
     0
 10
0.0
 20
0.0
 30
0.0
 70
   128
 71
     5
 72
    -6
 73
     7
  0
VERTEX
  5
362
  8
0
  6
BYBLOCK
 62
     0
 10
0.0
 20
0.0
 30
0.0
 70
   128
 71
    -7
 72
     6
 73
     8
  0
VERTEX
  5
363
  8
0
  6
BYBLOCK
 62
     0
 10
0.0
 20
0.0
 30
0.0
 70
   128
 71
     9
 72
    10
 73
   -11
  0
VERTEX
  5
364
  8
0
  6
BYBLOCK
 62
     0
 10
0.0
 20
0.0
 30
0.0
 70
   128
 71
    -9
 72
    11
 73
    12
  0
VERTEX
  5
365
  8
0
  6
BYBLOCK
 62
     0
 10
0.0
 20
0.0
 30
0.0
 70
   128
 71
    13
 72
    14
 73
   -10
  0
VERTEX
  5
366
  8
0
  6
BYBLOCK
 62
     0
 10
0.0
 20
0.0
 30
0.0
 70
   128
 71
    10
 72
     9
 73
   -13
  0
VERTEX
  5
367
  8
0
  6
BYBLOCK
 62
     0
 10
0.0
 20
0.0
 30
0.0
 70
   128
 71
    15
 72
    16
 73
   -17
  0
VERTEX
  5
368
  8
0
  6
BYBLOCK
 62
     0
 10
0.0
 20
0.0
 30
0.0
 70
   128
 71
    17
 72
    18
 73
   -15
  0
VERTEX
  5
369
  8
0
  6
BYBLOCK
 62
     0
 10
0.0
 20
0.0
 30
0.0
 70
   128
 71
    19
 72
    20
 73
   -16
  0
VERTEX
  5
36A
  8
0
  6
BYBLOCK
 62
     0
 10
0.0
 20
0.0
 30
0.0
 70
   128
 71
    16
 72
    15
 73
   -19
  0
VERTEX
  5
36B
  8
0
  6
BYBLOCK
 62
     0
 10
0.0
 20
0.0
 30
0.0
 70
   128
 71
    21
 72
    22
 73
   -20
  0
VERTEX
  5
36C
  8
0
  6
BYBLOCK
 62
     0
 10
0.0
 20
0.0
 30
0.0
 70
   128
 71
    20
 72
    19
 73
   -21
  0
VERTEX
  5
36D
  8
0
  6
BYBLOCK
 62
     0
 10
0.0
 20
0.0
 30
0.0
 70
   128
 71
    23
 72
    24
 73
   -22
  0
VERTEX
  5
36E
  8
0
  6
BYBLOCK
 62
     0
 10
0.0
 20
0.0
 30
0.0
 70
   128
 71
    22
 72
    21
 73
   -23
  0
VERTEX
  5
36F
  8
0
  6
BYBLOCK
 62
     0
 10
0.0
 20
0.0
 30
0.0
 70
   128
 71
    25
 72
    26
 73
   -24
  0
VERTEX
  5
370
  8
0
  6
BYBLOCK
 62
     0
 10
0.0
 20
0.0
 30
0.0
 70
   128
 71
    24
 72
    23
 73
   -25
  0
VERTEX
  5
371
  8
0
  6
BYBLOCK
 62
     0
 10
0.0
 20
0.0
 30
0.0
 70
   128
 71
    27
 72
    28
 73
   -26
  0
VERTEX
  5
372
  8
0
  6
BYBLOCK
 62
     0
 10
0.0
 20
0.0
 30
0.0
 70
   128
 71
   -27
 72
    26
 73
    25
  0
VERTEX
  5
373
  8
0
  6
BYBLOCK
 62
     0
 10
0.0
 20
0.0
 30
0.0
 70
   128
 71
    28
 72
    29
 73
   -30
  0
VERTEX
  5
374
  8
0
  6
BYBLOCK
 62
     0
 10
0.0
 20
0.0
 30
0.0
 70
   128
 71
    30
 72
    26
 73
   -28
  0
VERTEX
  5
375
  8
0
  6
BYBLOCK
 62
     0
 10
0.0
 20
0.0
 30
0.0
 70
   128
 71
    26
 72
    30
 73
   -31
  0
VERTEX
  5
376
  8
0
  6
BYBLOCK
 62
     0
 10
0.0
 20
0.0
 30
0.0
 70
   128
 71
    31
 72
    24
 73
   -26
  0
VERTEX
  5
377
  8
0
  6
BYBLOCK
 62
     0
 10
0.0
 20
0.0
 30
0.0
 70
   128
 71
    24
 72
    31
 73
   -32
  0
VERTEX
  5
378
  8
0
  6
BYBLOCK
 62
     0
 10
0.0
 20
0.0
 30
0.0
 70
   128
 71
    32
 72
    22
 73
   -24
  0
VERTEX
  5
379
  8
0
  6
BYBLOCK
 62
     0
 10
0.0
 20
0.0
 30
0.0
 70
   128
 71
    22
 72
    32
 73
   -33
  0
VERTEX
  5
37A
  8
0
  6
BYBLOCK
 62
     0
 10
0.0
 20
0.0
 30
0.0
 70
   128
 71
    33
 72
    20
 73
   -22
  0
VERTEX
  5
37B
  8
0
  6
BYBLOCK
 62
     0
 10
0.0
 20
0.0
 30
0.0
 70
   128
 71
    20
 72
    33
 73
   -34
  0
VERTEX
  5
37C
  8
0
  6
BYBLOCK
 62
     0
 10
0.0
 20
0.0
 30
0.0
 70
   128
 71
    34
 72
    16
 73
   -20
  0
VERTEX
  5
37D
  8
0
  6
BYBLOCK
 62
     0
 10
0.0
 20
0.0
 30
0.0
 70
   128
 71
    16
 72
    34
 73
   -35
  0
VERTEX
  5
37E
  8
0
  6
BYBLOCK
 62
     0
 10
0.0
 20
0.0
 30
0.0
 70
   128
 71
    35
 72
    17
 73
   -16
  0
VERTEX
  5
37F
  8
0
  6
BYBLOCK
 62
     0
 10
0.0
 20
0.0
 30
0.0
 70
   128
 71
    14
 72
    36
 73
   -37
  0
VERTEX
  5
380
  8
0
  6
BYBLOCK
 62
     0
 10
0.0
 20
0.0
 30
0.0
 70
   128
 71
    37
 72
    10
 73
   -14
  0
VERTEX
  5
381
  8
0
  6
BYBLOCK
 62
     0
 10
0.0
 20
0.0
 30
0.0
 70
   128
 71
    37
 72
    38
 73
   -11
  0
VERTEX
  5
382
  8
0
  6
BYBLOCK
 62
     0
 10
0.0
 20
0.0
 30
0.0
 70
   128
 71
   -37
 72
    11
 73
    10
  0
VERTEX
  5
383
  8
0
  6
BYBLOCK
 62
     0
 10
0.0
 20
0.0
 30
0.0
 70
   128
 71
    39
 72
    -6
 73
    40
  0
VERTEX
  5
384
  8
0
  6
BYBLOCK
 62
     0
 10
0.0
 20
0.0
 30
0.0
 70
   128
 71
     5
 72
   -40
 73
     6
  0
VERTEX
  5
385
  8
0
  6
BYBLOCK
 62
     0
 10
0.0
 20
0.0
 30
0.0
 70
   128
 71
    41
 72
   -42
 73
   -43
  0
VERTEX
  5
386
  8
0
  6
BYBLOCK
 62
     0
 10
0.0
 20
0.0
 30
0.0
 70
   128
 71
    43
 72
   -44
 73
   -41
  0
VERTEX
  5
387
  8
0
  6
BYBLOCK
 62
     0
 10
0.0
 20
0.0
 30
0.0
 70
   128
 71
    42
 72
   -45
 73
   -46
  0
VERTEX
  5
388
  8
0
  6
BYBLOCK
 62
     0
 10
0.0
 20
0.0
 30
0.0
 70
   128
 71
   -42
 72
    46
 73
   -43
  0
VERTEX
  5
389
  8
0
  6
BYBLOCK
 62
     0
 10
0.0
 20
0.0
 30
0.0
 70
   128
 71
    47
 72
   -48
 73
   -45
  0
VERTEX
  5
38A
  8
0
  6
BYBLOCK
 62
     0
 10
0.0
 20
0.0
 30
0.0
 70
   128
 71
   -47
 72
    45
 73
    49
  0
VERTEX
  5
38B
  8
0
  6
BYBLOCK
 62
     0
 10
0.0
 20
0.0
 30
0.0
 70
   128
 71
   -45
 72
    48
 73
   -50
  0
VERTEX
  5
38C
  8
0
  6
BYBLOCK
 62
     0
 10
0.0
 20
0.0
 30
0.0
 70
   128
 71
   -45
 72
    50
 73
   -51
  0
VERTEX
  5
38D
  8
0
  6
BYBLOCK
 62
     0
 10
0.0
 20
0.0
 30
0.0
 70
   128
 71
   -45
 72
    51
 73
   -46
  0
VERTEX
  5
38E
  8
0
  6
BYBLOCK
 62
     0
 10
0.0
 20
0.0
 30
0.0
 70
   128
 71
    52
 72
    53
 73
   -54
  0
VERTEX
  5
38F
  8
0
  6
BYBLOCK
 62
     0
 10
0.0
 20
0.0
 30
0.0
 70
   128
 71
    54
 72
    55
 73
   -52
  0
VERTEX
  5
390
  8
0
  6
BYBLOCK
 62
     0
 10
0.0
 20
0.0
 30
0.0
 70
   128
 71
     8
 72
    -6
 73
   -56
  0
VERTEX
  5
391
  8
0
  6
BYBLOCK
 62
     0
 10
0.0
 20
0.0
 30
0.0
 70
   128
 71
   -56
 72
   -57
 73
    -8
  0
VERTEX
  5
392
  8
0
  6
BYBLOCK
 62
     0
 10
0.0
 20
0.0
 30
0.0
 70
   128
 71
     6
 72
    39
 73
   -58
  0
VERTEX
  5
393
  8
0
  6
BYBLOCK
 62
     0
 10
0.0
 20
0.0
 30
0.0
 70
   128
 71
   -58
 72
   -56
 73
    -6
  0
VERTEX
  5
394
  8
0
  6
BYBLOCK
 62
     0
 10
0.0
 20
0.0
 30
0.0
 70
   128
 71
    59
 72
   -60
 73
   -61
  0
VERTEX
  5
395
  8
0
  6
BYBLOCK
 62
     0
 10
0.0
 20
0.0
 30
0.0
 70
   128
 71
    62
 72
   -61
 73
    60
  0
VERTEX
  5
396
  8
0
  6
BYBLOCK
 62
     0
 10
0.0
 20
0.0
 30
0.0
 70
   128
 71
    63
 72
   -64
 73
    65
  0
VERTEX
  5
397
  8
0
  6
BYBLOCK
 62
     0
 10
0.0
 20
0.0
 30
0.0
 70
   128
 71
   -66
 72
   -65
 73
   -64
  0
VERTEX
  5
398
  8
0
  6
BYBLOCK
 62
     0
 10
0.0
 20
0.0
 30
0.0
 70
   128
 71
    64
 72
   -67
 73
   -66
  0
VERTEX
  5
399
  8
0
  6
BYBLOCK
 62
     0
 10
0.0
 20
0.0
 30
0.0
 70
   128
 71
   -68
 72
   -66
 73
   -67
  0
VERTEX
  5
39A
  8
0
  6
BYBLOCK
 62
     0
 10
0.0
 20
0.0
 30
0.0
 70
   128
 71
    67
 72
    -8
 73
   -68
  0
VERTEX
  5
39B
  8
0
  6
BYBLOCK
 62
     0
 10
0.0
 20
0.0
 30
0.0
 70
   128
 71
   -57
 72
   -68
 73
    -8
  0
VERTEX
  5
39C
  8
0
  6
BYBLOCK
 62
     0
 10
0.0
 20
0.0
 30
0.0
 70
   128
 71
    69
 72
   -70
 73
    71
  0
VERTEX
  5
39D
  8
0
  6
BYBLOCK
 62
     0
 10
0.0
 20
0.0
 30
0.0
 70
   128
 71
    72
 72
   -71
 73
    70
  0
VERTEX
  5
39E
  8
0
  6
BYBLOCK
 62
     0
 10
0.0
 20
0.0
 30
0.0
 70
   128
 71
   -73
 72
   -74
 73
    75
  0
VERTEX
  5
39F
  8
0
  6
BYBLOCK
 62
     0
 10
0.0
 20
0.0
 30
0.0
 70
   128
 71
   -76
 72
   -74
 73
    73
  0
VERTEX
  5
3A0
  8
0
  6
BYBLOCK
 62
     0
 10
0.0
 20
0.0
 30
0.0
 70
   128
 71
   -77
 72
   -74
 73
    76
  0
VERTEX
  5
3A1
  8
0
  6
BYBLOCK
 62
     0
 10
0.0
 20
0.0
 30
0.0
 70
   128
 71
    77
 72
   -78
 73
   -74
  0
VERTEX
  5
3A2
  8
0
  6
BYBLOCK
 62
     0
 10
0.0
 20
0.0
 30
0.0
 70
   128
 71
   -74
 72
    78
 73
    79
  0
VERTEX
  5
3A3
  8
0
  6
BYBLOCK
 62
     0
 10
0.0
 20
0.0
 30
0.0
 70
   128
 71
    74
 72
   -80
 73
   -75
  0
VERTEX
  5
3A4
  8
0
  6
BYBLOCK
 62
     0
 10
0.0
 20
0.0
 30
0.0
 70
   128
 71
   -75
 72
   -80
 73
    81
  0
VERTEX
  5
3A5
  8
0
  6
BYBLOCK
 62
     0
 10
0.0
 20
0.0
 30
0.0
 70
   128
 71
    80
 72
   -82
 73
   -81
  0
VERTEX
  5
3A6
  8
0
  6
BYBLOCK
 62
     0
 10
0.0
 20
0.0
 30
0.0
 70
   128
 71
    83
 72
   -81
 73
   -82
  0
VERTEX
  5
3A7
  8
0
  6
BYBLOCK
 62
     0
 10
0.0
 20
0.0
 30
0.0
 70
   128
 71
    64
 72
    63
 73
   -84
  0
VERTEX
  5
3A8
  8
0
  6
BYBLOCK
 62
     0
 10
0.0
 20
0.0
 30
0.0
 70
   128
 71
    84
 72
    85
 73
   -64
  0
VERTEX
  5
3A9
  8
0
  6
BYBLOCK
 62
     0
 10
0.0
 20
0.0
 30
0.0
 70
   128
 71
    86
 72
   -87
 73
    88
  0
VERTEX
  5
3AA
  8
0
  6
BYBLOCK
 62
     0
 10
0.0
 20
0.0
 30
0.0
 70
   128
 71
   -88
 72
    87
 73
    89
  0
VERTEX
  5
3AB
  8
0
  6
BYBLOCK
 62
     0
 10
0.0
 20
0.0
 30
0.0
 70
   128
 71
    90
 72
   -91
 73
    87
  0
VERTEX
  5
3AC
  8
0
  6
BYBLOCK
 62
     0
 10
0.0
 20
0.0
 30
0.0
 70
   128
 71
    89
 72
   -87
 73
    91
  0
VERTEX
  5
3AD
  8
0
  6
BYBLOCK
 62
     0
 10
0.0
 20
0.0
 30
0.0
 70
   128
 71
    92
 72
   -93
 73
    94
  0
VERTEX
  5
3AE
  8
0
  6
BYBLOCK
 62
     0
 10
0.0
 20
0.0
 30
0.0
 70
   128
 71
    95
 72
   -94
 73
    93
  0
VERTEX
  5
3AF
  8
0
  6
BYBLOCK
 62
     0
 10
0.0
 20
0.0
 30
0.0
 70
   128
 71
    96
 72
   -97
 73
    92
  0
VERTEX
  5
3B0
  8
0
  6
BYBLOCK
 62
     0
 10
0.0
 20
0.0
 30
0.0
 70
   128
 71
    93
 72
   -92
 73
    97
  0
VERTEX
  5
3B1
  8
0
  6
BYBLOCK
 62
     0
 10
0.0
 20
0.0
 30
0.0
 70
   128
 71
    98
 72
   -99
 73
    96
  0
VERTEX
  5
3B2
  8
0
  6
BYBLOCK
 62
     0
 10
0.0
 20
0.0
 30
0.0
 70
   128
 71
    97
 72
   -96
 73
    99
  0
VERTEX
  5
3B3
  8
0
  6
BYBLOCK
 62
     0
 10
0.0
 20
0.0
 30
0.0
 70
   128
 71
   100
 72
  -101
 73
    98
  0
VERTEX
  5
3B4
  8
0
  6
BYBLOCK
 62
     0
 10
0.0
 20
0.0
 30
0.0
 70
   128
 71
    99
 72
   -98
 73
   101
  0
VERTEX
  5
3B5
  8
0
  6
BYBLOCK
 62
     0
 10
0.0
 20
0.0
 30
0.0
 70
   128
 71
   102
 72
  -103
 73
   100
  0
VERTEX
  5
3B6
  8
0
  6
BYBLOCK
 62
     0
 10
0.0
 20
0.0
 30
0.0
 70
   128
 71
   101
 72
  -100
 73
   103
  0
VERTEX
  5
3B7
  8
0
  6
BYBLOCK
 62
     0
 10
0.0
 20
0.0
 30
0.0
 70
   128
 71
   104
 72
  -105
 73
   102
  0
VERTEX
  5
3B8
  8
0
  6
BYBLOCK
 62
     0
 10
0.0
 20
0.0
 30
0.0
 70
   128
 71
   103
 72
  -102
 73
   105
  0
VERTEX
  5
3B9
  8
0
  6
BYBLOCK
 62
     0
 10
0.0
 20
0.0
 30
0.0
 70
   128
 71
   105
 72
  -106
 73
   103
  0
VERTEX
  5
3BA
  8
0
  6
BYBLOCK
 62
     0
 10
0.0
 20
0.0
 30
0.0
 70
   128
 71
  -103
 72
   106
 73
   107
  0
VERTEX
  5
3BB
  8
0
  6
BYBLOCK
 62
     0
 10
0.0
 20
0.0
 30
0.0
 70
   128
 71
   103
 72
  -107
 73
   101
  0
VERTEX
  5
3BC
  8
0
  6
BYBLOCK
 62
     0
 10
0.0
 20
0.0
 30
0.0
 70
   128
 71
   108
 72
  -101
 73
   107
  0
VERTEX
  5
3BD
  8
0
  6
BYBLOCK
 62
     0
 10
0.0
 20
0.0
 30
0.0
 70
   128
 71
   101
 72
  -108
 73
    99
  0
VERTEX
  5
3BE
  8
0
  6
BYBLOCK
 62
     0
 10
0.0
 20
0.0
 30
0.0
 70
   128
 71
   109
 72
   -99
 73
   108
  0
VERTEX
  5
3BF
  8
0
  6
BYBLOCK
 62
     0
 10
0.0
 20
0.0
 30
0.0
 70
   128
 71
    99
 72
  -109
 73
    97
  0
VERTEX
  5
3C0
  8
0
  6
BYBLOCK
 62
     0
 10
0.0
 20
0.0
 30
0.0
 70
   128
 71
   110
 72
   -97
 73
   109
  0
VERTEX
  5
3C1
  8
0
  6
BYBLOCK
 62
     0
 10
0.0
 20
0.0
 30
0.0
 70
   128
 71
    97
 72
  -110
 73
    93
  0
VERTEX
  5
3C2
  8
0
  6
BYBLOCK
 62
     0
 10
0.0
 20
0.0
 30
0.0
 70
   128
 71
   111
 72
   -93
 73
   110
  0
VERTEX
  5
3C3
  8
0
  6
BYBLOCK
 62
     0
 10
0.0
 20
0.0
 30
0.0
 70
   128
 71
    93
 72
  -111
 73
    95
  0
VERTEX
  5
3C4
  8
0
  6
BYBLOCK
 62
     0
 10
0.0
 20
0.0
 30
0.0
 70
   128
 71
   112
 72
   -95
 73
   111
  0
VERTEX
  5
3C5
  8
0
  6
BYBLOCK
 62
     0
 10
0.0
 20
0.0
 30
0.0
 70
   128
 71
    91
 72
  -113
 73
    89
  0
VERTEX
  5
3C6
  8
0
  6
BYBLOCK
 62
     0
 10
0.0
 20
0.0
 30
0.0
 70
   128
 71
   114
 72
   -89
 73
   113
  0
VERTEX
  5
3C7
  8
0
  6
BYBLOCK
 62
     0
 10
0.0
 20
0.0
 30
0.0
 70
   128
 71
    89
 72
  -114
 73
    88
  0
VERTEX
  5
3C8
  8
0
  6
BYBLOCK
 62
     0
 10
0.0
 20
0.0
 30
0.0
 70
   128
 71
   -88
 72
   114
 73
   115
  0
VERTEX
  5
3C9
  8
0
  6
BYBLOCK
 62
     0
 10
0.0
 20
0.0
 30
0.0
 70
   128
 71
    64
 72
    85
 73
  -116
  0
VERTEX
  5
3CA
  8
0
  6
BYBLOCK
 62
     0
 10
0.0
 20
0.0
 30
0.0
 70
   128
 71
   -64
 72
   116
 73
    67
  0
VERTEX
  5
3CB
  8
0
  6
BYBLOCK
 62
     0
 10
0.0
 20
0.0
 30
0.0
 70
   128
 71
     8
 72
    67
 73
  -116
  0
VERTEX
  5
3CC
  8
0
  6
BYBLOCK
 62
     0
 10
0.0
 20
0.0
 30
0.0
 70
   128
 71
   116
 72
     7
 73
    -8
  0
VERTEX
  5
3CD
  8
0
  6
BYBLOCK
 62
     0
 10
0.0
 20
0.0
 30
0.0
 70
   128
 71
   114
 72
    -9
 73
   115
  0
VERTEX
  5
3CE
  8
0
  6
BYBLOCK
 62
     0
 10
0.0
 20
0.0
 30
0.0
 70
   128
 71
    12
 72
  -115
 73
     9
  0
VERTEX
  5
3CF
  8
0
  6
BYBLOCK
 62
     0
 10
0.0
 20
0.0
 30
0.0
 70
   128
 71
   113
 72
   -13
 73
   114
  0
VERTEX
  5
3D0
  8
0
  6
BYBLOCK
 62
     0
 10
0.0
 20
0.0
 30
0.0
 70
   128
 71
     9
 72
  -114
 73
    13
  0
VERTEX
  5
3D1
  8
0
  6
BYBLOCK
 62
     0
 10
0.0
 20
0.0
 30
0.0
 70
   128
 71
   111
 72
   -15
 73
   112
  0
VERTEX
  5
3D2
  8
0
  6
BYBLOCK
 62
     0
 10
0.0
 20
0.0
 30
0.0
 70
   128
 71
    18
 72
  -112
 73
    15
  0
VERTEX
  5
3D3
  8
0
  6
BYBLOCK
 62
     0
 10
0.0
 20
0.0
 30
0.0
 70
   128
 71
   110
 72
   -19
 73
   111
  0
VERTEX
  5
3D4
  8
0
  6
BYBLOCK
 62
     0
 10
0.0
 20
0.0
 30
0.0
 70
   128
 71
    15
 72
  -111
 73
    19
  0
VERTEX
  5
3D5
  8
0
  6
BYBLOCK
 62
     0
 10
0.0
 20
0.0
 30
0.0
 70
   128
 71
   109
 72
   -21
 73
   110
  0
VERTEX
  5
3D6
  8
0
  6
BYBLOCK
 62
     0
 10
0.0
 20
0.0
 30
0.0
 70
   128
 71
    19
 72
  -110
 73
    21
  0
VERTEX
  5
3D7
  8
0
  6
BYBLOCK
 62
     0
 10
0.0
 20
0.0
 30
0.0
 70
   128
 71
   108
 72
   -23
 73
   109
  0
VERTEX
  5
3D8
  8
0
  6
BYBLOCK
 62
     0
 10
0.0
 20
0.0
 30
0.0
 70
   128
 71
    21
 72
  -109
 73
    23
  0
VERTEX
  5
3D9
  8
0
  6
BYBLOCK
 62
     0
 10
0.0
 20
0.0
 30
0.0
 70
   128
 71
   107
 72
   -25
 73
   108
  0
VERTEX
  5
3DA
  8
0
  6
BYBLOCK
 62
     0
 10
0.0
 20
0.0
 30
0.0
 70
   128
 71
    23
 72
  -108
 73
    25
  0
VERTEX
  5
3DB
  8
0
  6
BYBLOCK
 62
     0
 10
0.0
 20
0.0
 30
0.0
 70
   128
 71
   106
 72
   -27
 73
   107
  0
VERTEX
  5
3DC
  8
0
  6
BYBLOCK
 62
     0
 10
0.0
 20
0.0
 30
0.0
 70
   128
 71
    25
 72
  -107
 73
    27
  0
VERTEX
  5
3DD
  8
0
  6
BYBLOCK
 62
     0
 10
0.0
 20
0.0
 30
0.0
 70
   128
 71
   117
 72
  -118
 73
   119
  0
VERTEX
  5
3DE
  8
0
  6
BYBLOCK
 62
     0
 10
0.0
 20
0.0
 30
0.0
 70
   128
 71
   120
 72
  -119
 73
   118
  0
VERTEX
  5
3DF
  8
0
  6
BYBLOCK
 62
     0
 10
0.0
 20
0.0
 30
0.0
 70
   128
 71
   120
 72
  -118
 73
   121
  0
VERTEX
  5
3E0
  8
0
  6
BYBLOCK
 62
     0
 10
0.0
 20
0.0
 30
0.0
 70
   128
 71
  -121
 72
   118
 73
   122
  0
VERTEX
  5
3E1
  8
0
  6
BYBLOCK
 62
     0
 10
0.0
 20
0.0
 30
0.0
 70
   128
 71
   122
 72
  -123
 73
   121
  0
VERTEX
  5
3E2
  8
0
  6
BYBLOCK
 62
     0
 10
0.0
 20
0.0
 30
0.0
 70
   128
 71
   124
 72
  -121
 73
   123
  0
VERTEX
  5
3E3
  8
0
  6
BYBLOCK
 62
     0
 10
0.0
 20
0.0
 30
0.0
 70
   128
 71
   123
 72
  -125
 73
   124
  0
VERTEX
  5
3E4
  8
0
  6
BYBLOCK
 62
     0
 10
0.0
 20
0.0
 30
0.0
 70
   128
 71
  -124
 72
   125
 73
   126
  0
VERTEX
  5
3E5
  8
0
  6
BYBLOCK
 62
     0
 10
0.0
 20
0.0
 30
0.0
 70
   128
 71
   125
 72
  -127
 73
   126
  0
VERTEX
  5
3E6
  8
0
  6
BYBLOCK
 62
     0
 10
0.0
 20
0.0
 30
0.0
 70
   128
 71
   128
 72
  -126
 73
   127
  0
VERTEX
  5
3E7
  8
0
  6
BYBLOCK
 62
     0
 10
0.0
 20
0.0
 30
0.0
 70
   128
 71
   129
 72
  -130
 73
   131
  0
VERTEX
  5
3E8
  8
0
  6
BYBLOCK
 62
     0
 10
0.0
 20
0.0
 30
0.0
 70
   128
 71
   132
 72
  -131
 73
   130
  0
VERTEX
  5
3E9
  8
0
  6
BYBLOCK
 62
     0
 10
0.0
 20
0.0
 30
0.0
 70
   128
 71
   130
 72
  -133
 73
   132
  0
VERTEX
  5
3EA
  8
0
  6
BYBLOCK
 62
     0
 10
0.0
 20
0.0
 30
0.0
 70
   128
 71
   134
 72
  -132
 73
   133
  0
VERTEX
  5
3EB
  8
0
  6
BYBLOCK
 62
     0
 10
0.0
 20
0.0
 30
0.0
 70
   128
 71
   133
 72
  -135
 73
   134
  0
VERTEX
  5
3EC
  8
0
  6
BYBLOCK
 62
     0
 10
0.0
 20
0.0
 30
0.0
 70
   128
 71
   136
 72
  -134
 73
   135
  0
VERTEX
  5
3ED
  8
0
  6
BYBLOCK
 62
     0
 10
0.0
 20
0.0
 30
0.0
 70
   128
 71
   135
 72
  -137
 73
   136
  0
VERTEX
  5
3EE
  8
0
  6
BYBLOCK
 62
     0
 10
0.0
 20
0.0
 30
0.0
 70
   128
 71
   138
 72
  -136
 73
   137
  0
VERTEX
  5
3EF
  8
0
  6
BYBLOCK
 62
     0
 10
0.0
 20
0.0
 30
0.0
 70
   128
 71
   137
 72
  -139
 73
   138
  0
VERTEX
  5
3F0
  8
0
  6
BYBLOCK
 62
     0
 10
0.0
 20
0.0
 30
0.0
 70
   128
 71
   140
 72
  -138
 73
   139
  0
VERTEX
  5
3F1
  8
0
  6
BYBLOCK
 62
     0
 10
0.0
 20
0.0
 30
0.0
 70
   128
 71
   138
 72
  -140
 73
   141
  0
VERTEX
  5
3F2
  8
0
  6
BYBLOCK
 62
     0
 10
0.0
 20
0.0
 30
0.0
 70
   128
 71
  -141
 72
   140
 73
   142
  0
VERTEX
  5
3F3
  8
0
  6
BYBLOCK
 62
     0
 10
0.0
 20
0.0
 30
0.0
 70
   128
 71
   143
 72
  -136
 73
   141
  0
VERTEX
  5
3F4
  8
0
  6
BYBLOCK
 62
     0
 10
0.0
 20
0.0
 30
0.0
 70
   128
 71
  -141
 72
   136
 73
   138
  0
VERTEX
  5
3F5
  8
0
  6
BYBLOCK
 62
     0
 10
0.0
 20
0.0
 30
0.0
 70
   128
 71
   134
 72
  -136
 73
   144
  0
VERTEX
  5
3F6
  8
0
  6
BYBLOCK
 62
     0
 10
0.0
 20
0.0
 30
0.0
 70
   128
 71
   143
 72
  -144
 73
   136
  0
VERTEX
  5
3F7
  8
0
  6
BYBLOCK
 62
     0
 10
0.0
 20
0.0
 30
0.0
 70
   128
 71
   132
 72
  -134
 73
   145
  0
VERTEX
  5
3F8
  8
0
  6
BYBLOCK
 62
     0
 10
0.0
 20
0.0
 30
0.0
 70
   128
 71
  -145
 72
   134
 73
   144
  0
VERTEX
  5
3F9
  8
0
  6
BYBLOCK
 62
     0
 10
0.0
 20
0.0
 30
0.0
 70
   128
 71
   146
 72
  -131
 73
   145
  0
VERTEX
  5
3FA
  8
0
  6
BYBLOCK
 62
     0
 10
0.0
 20
0.0
 30
0.0
 70
   128
 71
  -145
 72
   131
 73
   132
  0
VERTEX
  5
3FB
  8
0
  6
BYBLOCK
 62
     0
 10
0.0
 20
0.0
 30
0.0
 70
   128
 71
   125
 72
  -147
 73
   127
  0
VERTEX
  5
3FC
  8
0
  6
BYBLOCK
 62
     0
 10
0.0
 20
0.0
 30
0.0
 70
   128
 71
  -127
 72
   147
 73
   148
  0
VERTEX
  5
3FD
  8
0
  6
BYBLOCK
 62
     0
 10
0.0
 20
0.0
 30
0.0
 70
   128
 71
   149
 72
  -147
 73
   123
  0
VERTEX
  5
3FE
  8
0
  6
BYBLOCK
 62
     0
 10
0.0
 20
0.0
 30
0.0
 70
   128
 71
  -123
 72
   147
 73
   125
  0
VERTEX
  5
3FF
  8
0
  6
BYBLOCK
 62
     0
 10
0.0
 20
0.0
 30
0.0
 70
   128
 71
   150
 72
  -149
 73
   122
  0
VERTEX
  5
400
  8
0
  6
BYBLOCK
 62
     0
 10
0.0
 20
0.0
 30
0.0
 70
   128
 71
   123
 72
  -122
 73
   149
  0
VERTEX
  5
401
  8
0
  6
BYBLOCK
 62
     0
 10
0.0
 20
0.0
 30
0.0
 70
   128
 71
   118
 72
  -151
 73
   122
  0
VERTEX
  5
402
  8
0
  6
BYBLOCK
 62
     0
 10
0.0
 20
0.0
 30
0.0
 70
   128
 71
  -122
 72
   151
 73
   150
  0
VERTEX
  5
403
  8
0
  6
BYBLOCK
 62
     0
 10
0.0
 20
0.0
 30
0.0
 70
   128
 71
   152
 72
  -151
 73
   117
  0
VERTEX
  5
404
  8
0
  6
BYBLOCK
 62
     0
 10
0.0
 20
0.0
 30
0.0
 70
   128
 71
  -117
 72
   151
 73
   118
  0
VERTEX
  5
405
  8
0
  6
BYBLOCK
 62
     0
 10
0.0
 20
0.0
 30
0.0
 70
   128
 71
     2
 72
  -153
 73
  -154
  0
VERTEX
  5
406
  8
0
  6
BYBLOCK
 62
     0
 10
0.0
 20
0.0
 30
0.0
 70
   128
 71
   154
 72
    -3
 73
    -2
  0
VERTEX
  5
407
  8
0
  6
BYBLOCK
 62
     0
 10
0.0
 20
0.0
 30
0.0
 70
   128
 71
   153
 72
  -155
 73
  -156
  0
VERTEX
  5
408
  8
0
  6
BYBLOCK
 62
     0
 10
0.0
 20
0.0
 30
0.0
 70
   128
 71
   156
 72
  -154
 73
  -153
  0
VERTEX
  5
409
  8
0
  6
BYBLOCK
 62
     0
 10
0.0
 20
0.0
 30
0.0
 70
   128
 71
   155
 72
   -65
 73
   -58
  0
VERTEX
  5
40A
  8
0
  6
BYBLOCK
 62
     0
 10
0.0
 20
0.0
 30
0.0
 70
   128
 71
    58
 72
  -156
 73
  -155
  0
VERTEX
  5
40B
  8
0
  6
BYBLOCK
 62
     0
 10
0.0
 20
0.0
 30
0.0
 70
   128
 71
    61
 72
  -157
 73
  -158
  0
VERTEX
  5
40C
  8
0
  6
BYBLOCK
 62
     0
 10
0.0
 20
0.0
 30
0.0
 70
   128
 71
   158
 72
   -59
 73
   -61
  0
VERTEX
  5
40D
  8
0
  6
BYBLOCK
 62
     0
 10
0.0
 20
0.0
 30
0.0
 70
   128
 71
   159
 72
  -158
 73
  -157
  0
VERTEX
  5
40E
  8
0
  6
BYBLOCK
 62
     0
 10
0.0
 20
0.0
 30
0.0
 70
   128
 71
   160
 72
  -159
 73
  -157
  0
VERTEX
  5
40F
  8
0
  6
BYBLOCK
 62
     0
 10
0.0
 20
0.0
 30
0.0
 70
   128
 71
  -157
 72
  -161
 73
  -160
  0
VERTEX
  5
410
  8
0
  6
BYBLOCK
 62
     0
 10
0.0
 20
0.0
 30
0.0
 70
   128
 71
   157
 72
   162
 73
  -163
  0
VERTEX
  5
411
  8
0
  6
BYBLOCK
 62
     0
 10
0.0
 20
0.0
 30
0.0
 70
   128
 71
   163
 72
  -161
 73
  -157
  0
VERTEX
  5
412
  8
0
  6
BYBLOCK
 62
     0
 10
0.0
 20
0.0
 30
0.0
 70
   128
 71
   164
 72
  -165
 73
  -166
  0
VERTEX
  5
413
  8
0
  6
BYBLOCK
 62
     0
 10
0.0
 20
0.0
 30
0.0
 70
   128
 71
   166
 72
  -167
 73
  -164
  0
VERTEX
  5
414
  8
0
  6
BYBLOCK
 62
     0
 10
0.0
 20
0.0
 30
0.0
 70
   128
 71
   167
 72
  -168
 73
  -164
  0
VERTEX
  5
415
  8
0
  6
BYBLOCK
 62
     0
 10
0.0
 20
0.0
 30
0.0
 70
   128
 71
   168
 72
   169
 73
  -170
  0
VERTEX
  5
416
  8
0
  6
BYBLOCK
 62
     0
 10
0.0
 20
0.0
 30
0.0
 70
   128
 71
  -170
 72
  -164
 73
  -168
  0
VERTEX
  5
417
  8
0
  6
BYBLOCK
 62
     0
 10
0.0
 20
0.0
 30
0.0
 70
   128
 71
   170
 72
   171
 73
  -172
  0
VERTEX
  5
418
  8
0
  6
BYBLOCK
 62
     0
 10
0.0
 20
0.0
 30
0.0
 70
   128
 71
   172
 72
  -164
 73
  -170
  0
VERTEX
  5
419
  8
0
  6
BYBLOCK
 62
     0
 10
0.0
 20
0.0
 30
0.0
 70
   128
 71
   173
 72
  -166
 73
  -165
  0
VERTEX
  5
41A
  8
0
  6
BYBLOCK
 62
     0
 10
0.0
 20
0.0
 30
0.0
 70
   128
 71
   165
 72
   174
 73
  -173
  0
SEQEND
  5
41B
  8
0
  6
BYBLOCK
 62
     0
  0
POLYLINE
  5
41C
  8
0
  6
BYBLOCK
 62
     0
 66
     1
 10
0.0
 20
0.0
 30
0.0
 70
    64
 71
   119
 72
    98
1001
AVE_ENTITY_MATERIAL
1002
{
1000

1002
{
1071
        0
1070
     0
1070
     0
1002
{
1070
     0
1070
     0
1070
     0
1040
0.0
1002
}
1070
     0
1070
     0
1002
{
1002
}
1002
}
1002
{
1002
{
1071
        0
1070
     4
1002
}
1002
}
1002
{
1002
{
1071
        0
1002
{
1002
{
1040
1.0
1040
0.0
1070
     0
1002
}
1002
{
1040
1.0
1040
0.0
1070
     0
1002
}
1040
0.0
1002
}
1002
{
1040
12.80000019073486
1040
0.0
1040
0.0
1040
16.9671688079834
1040
0.0
1040
0.0
1040
9.600000381469727
1040
0.0
1040
0.0
1040
9.600000381469727
1040
0.0
1040
14.55773448944092
1070
     1
1002
{
1002
}
1070
     0
1002
}
1002
}
1002
}
1011
-0.7699973921367251
1021
0.0
1031
0.3665700573712587
1021
0.0
1031
0.3665700573712587
1011
-0.4448773872920597
1021
0.0
1031
0.3665700573712587
1021
0.0
1031
0.3665700573712587
1011
-0.7699973921367251
1021
0.0
1031
0.6104100670605898
1021
0.0
1031
0.6104100670605898
1011
-0.7699973921367251
1021
0.243840009689331
1031
0.3665700573712587
1021
0.243840009689331
1031
0.3665700573712587
1002
}
1001
AVE_FINISH
1002
{
1070
     0
1005
0
1002
}
  0
VERTEX
  5
41D
  8
0
 10
-1.104854163367423
 20
0.2819596548080444
 30
0.1522497211247683
 70
   192
  0
VERTEX
  5
41E
  8
0
 10
-1.122823512274894
 20
0.2819596548080444
 30
0.3947257757931947
 70
   192
  0
VERTEX
  5
41F
  8
0
 10
-0.9007965788432681
 20
0.2852450405120849
 30
0.298174983099103
 70
   192
  0
VERTEX
  5
420
  8
0
 10
-0.8883719980784976
 20
0.2852450405120849
 30
0.4217911295682192
 70
   192
  0
VERTEX
  5
421
  8
0
 10
-1.104854163367423
 20
-0.2819596548080444
 30
0.1522497211247683
 70
   192
  0
VERTEX
  5
422
  8
0
 10
-1.122823512274894
 20
-0.2819596548080444
 30
0.3947257757931947
 70
   192
  0
VERTEX
  5
423
  8
0
 10
-0.9007965788432681
 20
-0.2786742933273315
 30
0.298174983099103
 70
   192
  0
VERTEX
  5
424
  8
0
 10
-0.8883719980784976
 20
-0.2786742933273315
 30
0.4217911295682192
 70
   192
  0
VERTEX
  5
425
  8
0
 10
-0.6496687872478092
 20
0.2852450405120849
 30
0.3957600634366274
 70
   192
  0
VERTEX
  5
426
  8
0
 10
-0.5438703032085025
 20
0.2819596548080444
 30
0.3899802563458681
 70
   192
  0
VERTEX
  5
427
  8
0
 10
-0.6281744112559878
 20
0.2852450405120849
 30
0.2053810589581728
 70
   192
  0
VERTEX
  5
428
  8
0
 10
-0.5239798990794742
 20
0.2819596548080444
 30
0.2119459198743105
 70
   192
  0
VERTEX
  5
429
  8
0
 10
-0.5531238081523502
 20
-0.2786742933273315
 30
0.3876520796567202
 70
   192
  0
VERTEX
  5
42A
  8
0
 10
-0.5332334040233219
 20
-0.2786742933273315
 30
0.2096177674084902
 70
   192
  0
VERTEX
  5
42B
  8
0
 10
-0.6374279161998355
 20
-0.2819596548080444
 30
0.2030528822690248
 70
   192
  0
VERTEX
  5
42C
  8
0
 10
-0.6681758455821597
 20
-0.2786742933273315
 30
0.3911037585049867
 70
   192
  0
VERTEX
  5
42D
  8
0
 10
-1.104854163367423
 20
-0.2819596548080444
 30
0.4135068484097719
 70
   192
  0
VERTEX
  5
42E
  8
0
 10
-1.104854163367423
 20
-0.2840483354568482
 30
0.5644936110287905
 70
   192
  0
VERTEX
  5
42F
  8
0
 10
-0.6274602591106021
 20
-0.2840483354568482
 30
0.5644936110287905
 70
   192
  0
VERTEX
  5
430
  8
0
 10
-0.6320912748881901
 20
-0.2819596548080444
 30
0.4135068484097719
 70
   192
  0
VERTEX
  5
431
  8
0
 10
-1.104854163367423
 20
-0.4152511070251464
 30
0.4992918738156557
 70
   192
  0
VERTEX
  5
432
  8
0
 10
-1.104854163367423
 20
-0.4249769184112548
 30
0.5390490401059389
 70
   192
  0
VERTEX
  5
433
  8
0
 10
-0.644877364594611
 20
-0.4152511070251464
 30
0.4992918738156557
 70
   192
  0
VERTEX
  5
434
  8
0
 10
-0.644877364594611
 20
-0.4249769184112548
 30
0.5390490401059389
 70
   192
  0
VERTEX
  5
435
  8
0
 10
-1.104854163367423
 20
-0.3752880666732788
 30
0.4770278258115053
 70
   192
  0
VERTEX
  5
436
  8
0
 10
-0.644877364594611
 20
-0.3752880666732788
 30
0.4770278258115053
 70
   192
  0
VERTEX
  5
437
  8
0
 10
-1.104854163367423
 20
-0.3650313041687012
 30
0.3439885626584291
 70
   192
  0
VERTEX
  5
438
  8
0
 10
-0.5300884409495914
 20
-0.3650313041687012
 30
0.3439885626584291
 70
   192
  0
VERTEX
  5
439
  8
0
 10
-1.104854163367423
 20
-0.3650313041687012
 30
0.0
 70
   192
  0
VERTEX
  5
43A
  8
0
 10
-0.5300884409495914
 20
-0.3650313041687012
 30
0.0
 70
   192
  0
VERTEX
  5
43B
  8
0
 10
-1.104854163367423
 20
-0.2819596548080444
 30
0.3438383053570986
 70
   192
  0
VERTEX
  5
43C
  8
0
 10
-0.5300884409495914
 20
-0.2819596548080444
 30
0.3438383053570986
 70
   192
  0
VERTEX
  5
43D
  8
0
 10
-0.5300884409495914
 20
-0.2819596548080444
 30
0.1522497211247683
 70
   192
  0
VERTEX
  5
43E
  8
0
 10
-1.104854163367423
 20
-0.2819596548080444
 30
0.378672588995099
 70
   192
  0
VERTEX
  5
43F
  8
0
 10
-0.5997570082255924
 20
-0.2819596548080444
 30
0.378672588995099
 70
   192
  0
VERTEX
  5
440
  8
0
 10
-0.4380718191691959
 20
0.2786742933273315
 30
0.3842004250317812
 70
   192
  0
VERTEX
  5
441
  8
0
 10
-0.522375878770026
 20
0.2819596548080444
 30
0.1996012276440859
 70
   192
  0
VERTEX
  5
442
  8
0
 10
-0.4181814150401676
 20
0.2786742933273315
 30
0.2061660885602236
 70
   192
  0
VERTEX
  5
443
  8
0
 10
-0.6320912748881901
 20
0.2819596548080444
 30
0.4135068484097719
 70
   192
  0
VERTEX
  5
444
  8
0
 10
-1.104854163367423
 20
0.2819596548080444
 30
0.4135068484097719
 70
   192
  0
VERTEX
  5
445
  8
0
 10
-1.104854163367423
 20
0.2819596548080444
 30
0.378672588995099
 70
   192
  0
VERTEX
  5
446
  8
0
 10
-0.5997570082255924
 20
0.2819596548080444
 30
0.378672588995099
 70
   192
  0
VERTEX
  5
447
  8
0
 10
-1.104854163367423
 20
0.2819596548080444
 30
0.3438383053570986
 70
   192
  0
VERTEX
  5
448
  8
0
 10
-0.5300884409495914
 20
0.2819596548080444
 30
0.3438383053570986
 70
   192
  0
VERTEX
  5
449
  8
0
 10
-0.5300884409495914
 20
0.2819596548080444
 30
0.1522497211247683
 70
   192
  0
VERTEX
  5
44A
  8
0
 10
-1.104854163367423
 20
0.3650313041687012
 30
0.4136571299344301
 70
   192
  0
VERTEX
  5
44B
  8
0
 10
-1.104854163367423
 20
0.3752880666732788
 30
0.4770278258115053
 70
   192
  0
VERTEX
  5
44C
  8
0
 10
-0.6320912748881901
 20
0.3650313041687012
 30
0.4136571299344301
 70
   192
  0
VERTEX
  5
44D
  8
0
 10
-0.644877364594611
 20
0.3752880666732788
 30
0.4770278258115053
 70
   192
  0
VERTEX
  5
44E
  8
0
 10
-1.104854163367423
 20
0.4152511070251464
 30
0.4992918738156557
 70
   192
  0
VERTEX
  5
44F
  8
0
 10
-0.644877364594611
 20
0.4152511070251464
 30
0.4992918738156557
 70
   192
  0
VERTEX
  5
450
  8
0
 10
-1.104854163367423
 20
0.4249769184112548
 30
0.5390490401059389
 70
   192
  0
VERTEX
  5
451
  8
0
 10
-0.644877364594611
 20
0.4249769184112548
 30
0.5390490401059389
 70
   192
  0
VERTEX
  5
452
  8
0
 10
-1.104854163367423
 20
0.3158454498291016
 30
0.5909864706784487
 70
   192
  0
VERTEX
  5
453
  8
0
 10
-1.104854163367423
 20
0.2840483354568482
 30
0.5644936110287905
 70
   192
  0
VERTEX
  5
454
  8
0
 10
-0.6100431051799381
 20
0.3158454498291016
 30
0.5909864706784487
 70
   192
  0
VERTEX
  5
455
  8
0
 10
-0.6274602591106021
 20
0.2840483354568482
 30
0.5644936110287905
 70
   192
  0
VERTEX
  5
456
  8
0
 10
-1.16030577805725
 20
-0.2786742933273315
 30
0.6067155009061098
 70
   192
  0
VERTEX
  5
457
  8
0
 10
-1.17984614601818
 20
-0.2786742933273315
 30
0.7797873011380434
 70
   192
  0
VERTEX
  5
458
  8
0
 10
-1.018513400323066
 20
-0.2786742933273315
 30
0.7925538183957338
 70
   192
  0
VERTEX
  5
459
  8
0
 10
-0.9247225166865909
 20
-0.2786742933273315
 30
0.6204885943204165
 70
   192
  0
VERTEX
  5
45A
  8
0
 10
-1.187662293202552
 20
-0.2786742933273315
 30
0.8490160212308168
 70
   192
  0
VERTEX
  5
45B
  8
0
 10
-0.9918899284907902
 20
-0.2786742933273315
 30
0.8573319865018129
 70
   192
  0
VERTEX
  5
45C
  8
0
 10
-1.195478441143903
 20
-0.2786742933273315
 30
0.9182448382169008
 70
   192
  0
VERTEX
  5
45D
  8
0
 10
-1.003974232060584
 20
-0.2786742933273315
 30
0.9303317942410707
 70
   192
  0
VERTEX
  5
45E
  8
0
 10
-1.152049329502257
 20
-0.2786742933273315
 30
0.9691618853360414
 70
   192
  0
VERTEX
  5
45F
  8
0
 10
-1.071011976391944
 20
-0.2786742933273315
 30
0.9769801096707582
 70
   192
  0
VERTEX
  5
460
  8
0
 10
-1.104854163367423
 20
-0.3650313041687012
 30
0.3788228462964296
 70
   192
  0
VERTEX
  5
461
  8
0
 10
-0.5997570082255924
 20
-0.3650313041687012
 30
0.3788228462964296
 70
   192
  0
VERTEX
  5
462
  8
0
 10
-1.104854163367423
 20
-0.3650313041687012
 30
0.4136571299344301
 70
   192
  0
VERTEX
  5
463
  8
0
 10
-0.6320912748881901
 20
-0.3650313041687012
 30
0.4136571299344301
 70
   192
  0
VERTEX
  5
464
  8
0
 10
-0.5300884409495914
 20
0.3650313041687012
 30
0.3439885626584291
 70
   192
  0
VERTEX
  5
465
  8
0
 10
-0.5300884409495914
 20
0.3650313041687012
 30
0.0
 70
   192
  0
VERTEX
  5
466
  8
0
 10
-1.104854163367423
 20
0.3650313041687012
 30
0.3439885626584291
 70
   192
  0
VERTEX
  5
467
  8
0
 10
-1.104854163367423
 20
0.3650313041687012
 30
0.0
 70
   192
  0
VERTEX
  5
468
  8
0
 10
-0.5997570082255924
 20
0.3650313041687012
 30
0.3788228462964296
 70
   192
  0
VERTEX
  5
469
  8
0
 10
-1.104854163367423
 20
0.3650313041687012
 30
0.3788228462964296
 70
   192
  0
VERTEX
  5
46A
  8
0
 10
-1.018513400323066
 20
0.2786742933273315
 30
0.7925538183957338
 70
   192
  0
VERTEX
  5
46B
  8
0
 10
-0.9247225166865909
 20
0.2786742933273315
 30
0.6204885943204165
 70
   192
  0
VERTEX
  5
46C
  8
0
 10
-1.17984614601818
 20
0.2786742933273315
 30
0.7797873011380434
 70
   192
  0
VERTEX
  5
46D
  8
0
 10
-1.16030577805725
 20
0.2786742933273315
 30
0.6067155009061098
 70
   192
  0
VERTEX
  5
46E
  8
0
 10
-0.9918899284907902
 20
0.2786742933273315
 30
0.8573319865018129
 70
   192
  0
VERTEX
  5
46F
  8
0
 10
-1.187662293202552
 20
0.2786742933273315
 30
0.8490160212308168
 70
   192
  0
VERTEX
  5
470
  8
0
 10
-1.003974232060584
 20
0.2786742933273315
 30
0.9303317942410707
 70
   192
  0
VERTEX
  5
471
  8
0
 10
-1.195478441143903
 20
0.2786742933273315
 30
0.9182448382169008
 70
   192
  0
VERTEX
  5
472
  8
0
 10
-1.071011976391944
 20
0.2786742933273315
 30
0.9769801096707582
 70
   192
  0
VERTEX
  5
473
  8
0
 10
-1.152049329502257
 20
0.2786742933273315
 30
0.9691618853360414
 70
   192
  0
VERTEX
  5
474
  8
0
 10
-0.8883719980784976
 20
0.2786742933273315
 30
0.4217911295682192
 70
   192
  0
VERTEX
  5
475
  8
0
 10
-0.019396357209357
 20
0.254
 30
0.2299875269681215
 70
   192
  0
VERTEX
  5
476
  8
0
 10
-0.0319501452037418
 20
0.254
 30
0.2105792639523744
 70
   192
  0
VERTEX
  5
477
  8
0
 10
-0.028481946046027
 20
0.254
 30
0.2694631455212831
 70
   192
  0
VERTEX
  5
478
  8
0
 10
-0.0765378305980289
 20
0.254
 30
0.2225199595242739
 70
   192
  0
VERTEX
  5
479
  8
0
 10
-0.053413854462775
 20
0.254
 30
0.3015268376141786
 70
   192
  0
VERTEX
  5
47A
  8
0
 10
-0.1472915545054996
 20
0.254
 30
0.3424742655545473
 70
   192
  0
VERTEX
  5
47B
  8
0
 10
-0.174047188813361
 20
0.254
 30
0.251059278562665
 70
   192
  0
VERTEX
  5
47C
  8
0
 10
-0.247703836304816
 20
0.254
 30
0.3610951493054628
 70
   192
  0
VERTEX
  5
47D
  8
0
 10
-0.271556547028693
 20
0.254
 30
0.2795985733777285
 70
   192
  0
VERTEX
  5
47E
  8
0
 10
-0.2915272272655094
 20
0.254
 30
0.3470013632565737
 70
   192
  0
VERTEX
  5
47F
  8
0
 10
-0.321690017945441
 20
0.254
 30
0.3181412789136171
 70
   192
  0
VERTEX
  5
480
  8
0
 10
-0.3203111292430484
 20
0.254
 30
0.2938682450085878
 70
   192
  0
VERTEX
  5
481
  8
0
 10
-0.4380718191691959
 20
-0.2786742933273315
 30
0.3842004250317812
 70
   192
  0
VERTEX
  5
482
  8
0
 10
-0.3790563807078922
 20
-0.2786742933273315
 30
0.3416831074506044
 70
   192
  0
VERTEX
  5
483
  8
0
 10
-0.3661298441478336
 20
-0.2786742933273315
 30
0.2612232414990663
 70
   192
  0
VERTEX
  5
484
  8
0
 10
-0.4181814150401676
 20
-0.2786742933273315
 30
0.2061660885602236
 70
   192
  0
VERTEX
  5
485
  8
0
 10
-0.522375878770026
 20
-0.2819596548080444
 30
0.1996012276440859
 70
   192
  0
VERTEX
  5
486
  8
0
 10
-0.321690017945441
 20
-0.254
 30
0.3181412789136171
 70
   192
  0
VERTEX
  5
487
  8
0
 10
-0.2915272272655094
 20
-0.254
 30
0.3470013632565737
 70
   192
  0
VERTEX
  5
488
  8
0
 10
-0.271556547028693
 20
-0.254
 30
0.2795985733777285
 70
   192
  0
VERTEX
  5
489
  8
0
 10
-0.3203434916087711
 20
-0.254
 30
0.2955802286893129
 70
   192
  0
VERTEX
  5
48A
  8
0
 10
-0.247703836304816
 20
-0.254
 30
0.3610951493054628
 70
   192
  0
VERTEX
  5
48B
  8
0
 10
-0.1472915545054996
 20
-0.254
 30
0.3424742655545473
 70
   192
  0
VERTEX
  5
48C
  8
0
 10
-0.174047188813361
 20
-0.254
 30
0.251059278562665
 70
   192
  0
VERTEX
  5
48D
  8
0
 10
-0.053413854462775
 20
-0.254
 30
0.3015268376141786
 70
   192
  0
VERTEX
  5
48E
  8
0
 10
-0.0765378305980289
 20
-0.254
 30
0.2225199595242739
 70
   192
  0
VERTEX
  5
48F
  8
0
 10
-0.028481946046027
 20
-0.254
 30
0.2694631455212831
 70
   192
  0
VERTEX
  5
490
  8
0
 10
-0.019396357209357
 20
-0.254
 30
0.2299875269681215
 70
   192
  0
VERTEX
  5
491
  8
0
 10
-0.0319501452037418
 20
-0.254
 30
0.2105792639523744
 70
   192
  0
VERTEX
  5
492
  8
0
 10
-0.3661298441478336
 20
0.2786742933273315
 30
0.2612232414990663
 70
   192
  0
VERTEX
  5
493
  8
0
 10
-0.3790563807078922
 20
0.2786742933273315
 30
0.3416831074506044
 70
   192
  0
VERTEX
  5
494
  8
0
  6
BYBLOCK
 62
     0
 10
0.0
 20
0.0
 30
0.0
 70
   128
 71
     1
 72
    -2
 73
     3
  0
VERTEX
  5
495
  8
0
  6
BYBLOCK
 62
     0
 10
0.0
 20
0.0
 30
0.0
 70
   128
 71
    -3
 72
     2
 73
     4
  0
VERTEX
  5
496
  8
0
  6
BYBLOCK
 62
     0
 10
0.0
 20
0.0
 30
0.0
 70
   128
 71
     5
 72
    -6
 73
     7
  0
VERTEX
  5
497
  8
0
  6
BYBLOCK
 62
     0
 10
0.0
 20
0.0
 30
0.0
 70
   128
 71
    -7
 72
     6
 73
     8
  0
VERTEX
  5
498
  8
0
  6
BYBLOCK
 62
     0
 10
0.0
 20
0.0
 30
0.0
 70
   128
 71
     9
 72
   -10
 73
   -11
  0
VERTEX
  5
499
  8
0
  6
BYBLOCK
 62
     0
 10
0.0
 20
0.0
 30
0.0
 70
   128
 71
    12
 72
   -11
 73
   -10
  0
VERTEX
  5
49A
  8
0
  6
BYBLOCK
 62
     0
 10
0.0
 20
0.0
 30
0.0
 70
   128
 71
   -13
 72
    14
 73
   -15
  0
VERTEX
  5
49B
  8
0
  6
BYBLOCK
 62
     0
 10
0.0
 20
0.0
 30
0.0
 70
   128
 71
   -13
 72
   -15
 73
    16
  0
VERTEX
  5
49C
  8
0
  6
BYBLOCK
 62
     0
 10
0.0
 20
0.0
 30
0.0
 70
   128
 71
    17
 72
    18
 73
   -19
  0
VERTEX
  5
49D
  8
0
  6
BYBLOCK
 62
     0
 10
0.0
 20
0.0
 30
0.0
 70
   128
 71
    19
 72
    20
 73
   -17
  0
VERTEX
  5
49E
  8
0
  6
BYBLOCK
 62
     0
 10
0.0
 20
0.0
 30
0.0
 70
   128
 71
    21
 72
   -22
 73
    23
  0
VERTEX
  5
49F
  8
0
  6
BYBLOCK
 62
     0
 10
0.0
 20
0.0
 30
0.0
 70
   128
 71
    24
 72
   -23
 73
    22
  0
VERTEX
  5
4A0
  8
0
  6
BYBLOCK
 62
     0
 10
0.0
 20
0.0
 30
0.0
 70
   128
 71
    25
 72
   -21
 73
    26
  0
VERTEX
  5
4A1
  8
0
  6
BYBLOCK
 62
     0
 10
0.0
 20
0.0
 30
0.0
 70
   128
 71
    23
 72
   -26
 73
    21
  0
VERTEX
  5
4A2
  8
0
  6
BYBLOCK
 62
     0
 10
0.0
 20
0.0
 30
0.0
 70
   128
 71
   -27
 72
   -28
 73
    29
  0
VERTEX
  5
4A3
  8
0
  6
BYBLOCK
 62
     0
 10
0.0
 20
0.0
 30
0.0
 70
   128
 71
    30
 72
   -29
 73
    28
  0
VERTEX
  5
4A4
  8
0
  6
BYBLOCK
 62
     0
 10
0.0
 20
0.0
 30
0.0
 70
   128
 71
    31
 72
   -32
 73
     5
  0
VERTEX
  5
4A5
  8
0
  6
BYBLOCK
 62
     0
 10
0.0
 20
0.0
 30
0.0
 70
   128
 71
    33
 72
    -5
 73
    32
  0
VERTEX
  5
4A6
  8
0
  6
BYBLOCK
 62
     0
 10
0.0
 20
0.0
 30
0.0
 70
   128
 71
    34
 72
   -35
 73
    31
  0
VERTEX
  5
4A7
  8
0
  6
BYBLOCK
 62
     0
 10
0.0
 20
0.0
 30
0.0
 70
   128
 71
    32
 72
   -31
 73
    35
  0
VERTEX
  5
4A8
  8
0
  6
BYBLOCK
 62
     0
 10
0.0
 20
0.0
 30
0.0
 70
   128
 71
    17
 72
   -20
 73
    34
  0
VERTEX
  5
4A9
  8
0
  6
BYBLOCK
 62
     0
 10
0.0
 20
0.0
 30
0.0
 70
   128
 71
    35
 72
   -34
 73
    20
  0
VERTEX
  5
4AA
  8
0
  6
BYBLOCK
 62
     0
 10
0.0
 20
0.0
 30
0.0
 70
   128
 71
    10
 72
   -36
 73
   -37
  0
VERTEX
  5
4AB
  8
0
  6
BYBLOCK
 62
     0
 10
0.0
 20
0.0
 30
0.0
 70
   128
 71
    38
 72
   -37
 73
   -36
  0
VERTEX
  5
4AC
  8
0
  6
BYBLOCK
 62
     0
 10
0.0
 20
0.0
 30
0.0
 70
   128
 71
    39
 72
    40
 73
   -41
  0
VERTEX
  5
4AD
  8
0
  6
BYBLOCK
 62
     0
 10
0.0
 20
0.0
 30
0.0
 70
   128
 71
    41
 72
    42
 73
   -39
  0
VERTEX
  5
4AE
  8
0
  6
BYBLOCK
 62
     0
 10
0.0
 20
0.0
 30
0.0
 70
   128
 71
    42
 72
    41
 73
   -43
  0
VERTEX
  5
4AF
  8
0
  6
BYBLOCK
 62
     0
 10
0.0
 20
0.0
 30
0.0
 70
   128
 71
    43
 72
    44
 73
   -42
  0
VERTEX
  5
4B0
  8
0
  6
BYBLOCK
 62
     0
 10
0.0
 20
0.0
 30
0.0
 70
   128
 71
    44
 72
    43
 73
    -1
  0
VERTEX
  5
4B1
  8
0
  6
BYBLOCK
 62
     0
 10
0.0
 20
0.0
 30
0.0
 70
   128
 71
     1
 72
   -45
 73
   -44
  0
VERTEX
  5
4B2
  8
0
  6
BYBLOCK
 62
     0
 10
0.0
 20
0.0
 30
0.0
 70
   128
 71
    46
 72
   -47
 73
   -48
  0
VERTEX
  5
4B3
  8
0
  6
BYBLOCK
 62
     0
 10
0.0
 20
0.0
 30
0.0
 70
   128
 71
    49
 72
   -48
 73
    47
  0
VERTEX
  5
4B4
  8
0
  6
BYBLOCK
 62
     0
 10
0.0
 20
0.0
 30
0.0
 70
   128
 71
    47
 72
   -50
 73
    49
  0
VERTEX
  5
4B5
  8
0
  6
BYBLOCK
 62
     0
 10
0.0
 20
0.0
 30
0.0
 70
   128
 71
    51
 72
   -49
 73
    50
  0
VERTEX
  5
4B6
  8
0
  6
BYBLOCK
 62
     0
 10
0.0
 20
0.0
 30
0.0
 70
   128
 71
    50
 72
   -52
 73
    51
  0
VERTEX
  5
4B7
  8
0
  6
BYBLOCK
 62
     0
 10
0.0
 20
0.0
 30
0.0
 70
   128
 71
    53
 72
   -51
 73
    52
  0
VERTEX
  5
4B8
  8
0
  6
BYBLOCK
 62
     0
 10
0.0
 20
0.0
 30
0.0
 70
   128
 71
    54
 72
   -55
 73
    56
  0
VERTEX
  5
4B9
  8
0
  6
BYBLOCK
 62
     0
 10
0.0
 20
0.0
 30
0.0
 70
   128
 71
    57
 72
   -56
 73
    55
  0
VERTEX
  5
4BA
  8
0
  6
BYBLOCK
 62
     0
 10
0.0
 20
0.0
 30
0.0
 70
   128
 71
    55
 72
   -40
 73
    57
  0
VERTEX
  5
4BB
  8
0
  6
BYBLOCK
 62
     0
 10
0.0
 20
0.0
 30
0.0
 70
   128
 71
    39
 72
   -57
 73
    40
  0
VERTEX
  5
4BC
  8
0
  6
BYBLOCK
 62
     0
 10
0.0
 20
0.0
 30
0.0
 70
   128
 71
    58
 72
   -59
 73
   -60
  0
VERTEX
  5
4BD
  8
0
  6
BYBLOCK
 62
     0
 10
0.0
 20
0.0
 30
0.0
 70
   128
 71
    60
 72
   -61
 73
   -58
  0
VERTEX
  5
4BE
  8
0
  6
BYBLOCK
 62
     0
 10
0.0
 20
0.0
 30
0.0
 70
   128
 71
    59
 72
   -62
 73
   -63
  0
VERTEX
  5
4BF
  8
0
  6
BYBLOCK
 62
     0
 10
0.0
 20
0.0
 30
0.0
 70
   128
 71
    63
 72
   -60
 73
   -59
  0
VERTEX
  5
4C0
  8
0
  6
BYBLOCK
 62
     0
 10
0.0
 20
0.0
 30
0.0
 70
   128
 71
    62
 72
   -64
 73
   -65
  0
VERTEX
  5
4C1
  8
0
  6
BYBLOCK
 62
     0
 10
0.0
 20
0.0
 30
0.0
 70
   128
 71
    65
 72
   -63
 73
   -62
  0
VERTEX
  5
4C2
  8
0
  6
BYBLOCK
 62
     0
 10
0.0
 20
0.0
 30
0.0
 70
   128
 71
    64
 72
    66
 73
   -67
  0
VERTEX
  5
4C3
  8
0
  6
BYBLOCK
 62
     0
 10
0.0
 20
0.0
 30
0.0
 70
   128
 71
    67
 72
   -65
 73
   -64
  0
VERTEX
  5
4C4
  8
0
  6
BYBLOCK
 62
     0
 10
0.0
 20
0.0
 30
0.0
 70
   128
 71
     6
 72
   -58
 73
   -61
  0
VERTEX
  5
4C5
  8
0
  6
BYBLOCK
 62
     0
 10
0.0
 20
0.0
 30
0.0
 70
   128
 71
    -6
 72
    61
 73
    -8
  0
VERTEX
  5
4C6
  8
0
  6
BYBLOCK
 62
     0
 10
0.0
 20
0.0
 30
0.0
 70
   128
 71
    27
 72
   -68
 73
   -69
  0
VERTEX
  5
4C7
  8
0
  6
BYBLOCK
 62
     0
 10
0.0
 20
0.0
 30
0.0
 70
   128
 71
    69
 72
   -28
 73
   -27
  0
VERTEX
  5
4C8
  8
0
  6
BYBLOCK
 62
     0
 10
0.0
 20
0.0
 30
0.0
 70
   128
 71
    68
 72
   -70
 73
   -71
  0
VERTEX
  5
4C9
  8
0
  6
BYBLOCK
 62
     0
 10
0.0
 20
0.0
 30
0.0
 70
   128
 71
    71
 72
   -69
 73
   -68
  0
VERTEX
  5
4CA
  8
0
  6
BYBLOCK
 62
     0
 10
0.0
 20
0.0
 30
0.0
 70
   128
 71
    70
 72
    25
 73
   -26
  0
VERTEX
  5
4CB
  8
0
  6
BYBLOCK
 62
     0
 10
0.0
 20
0.0
 30
0.0
 70
   128
 71
    26
 72
   -71
 73
   -70
  0
VERTEX
  5
4CC
  8
0
  6
BYBLOCK
 62
     0
 10
0.0
 20
0.0
 30
0.0
 70
   128
 71
    72
 72
   -73
 73
   -74
  0
VERTEX
  5
4CD
  8
0
  6
BYBLOCK
 62
     0
 10
0.0
 20
0.0
 30
0.0
 70
   128
 71
    75
 72
   -74
 73
    73
  0
VERTEX
  5
4CE
  8
0
  6
BYBLOCK
 62
     0
 10
0.0
 20
0.0
 30
0.0
 70
   128
 71
    76
 72
   -72
 73
   -77
  0
VERTEX
  5
4CF
  8
0
  6
BYBLOCK
 62
     0
 10
0.0
 20
0.0
 30
0.0
 70
   128
 71
    74
 72
   -77
 73
   -72
  0
VERTEX
  5
4D0
  8
0
  6
BYBLOCK
 62
     0
 10
0.0
 20
0.0
 30
0.0
 70
   128
 71
    48
 72
   -76
 73
   -46
  0
VERTEX
  5
4D1
  8
0
  6
BYBLOCK
 62
     0
 10
0.0
 20
0.0
 30
0.0
 70
   128
 71
    77
 72
   -46
 73
   -76
  0
VERTEX
  5
4D2
  8
0
  6
BYBLOCK
 62
     0
 10
0.0
 20
0.0
 30
0.0
 70
   128
 71
    78
 72
   -79
 73
   -80
  0
VERTEX
  5
4D3
  8
0
  6
BYBLOCK
 62
     0
 10
0.0
 20
0.0
 30
0.0
 70
   128
 71
    81
 72
   -80
 73
   -79
  0
VERTEX
  5
4D4
  8
0
  6
BYBLOCK
 62
     0
 10
0.0
 20
0.0
 30
0.0
 70
   128
 71
    82
 72
   -78
 73
   -83
  0
VERTEX
  5
4D5
  8
0
  6
BYBLOCK
 62
     0
 10
0.0
 20
0.0
 30
0.0
 70
   128
 71
    80
 72
   -83
 73
   -78
  0
VERTEX
  5
4D6
  8
0
  6
BYBLOCK
 62
     0
 10
0.0
 20
0.0
 30
0.0
 70
   128
 71
    84
 72
   -82
 73
   -85
  0
VERTEX
  5
4D7
  8
0
  6
BYBLOCK
 62
     0
 10
0.0
 20
0.0
 30
0.0
 70
   128
 71
    83
 72
   -85
 73
   -82
  0
VERTEX
  5
4D8
  8
0
  6
BYBLOCK
 62
     0
 10
0.0
 20
0.0
 30
0.0
 70
   128
 71
    86
 72
   -84
 73
    87
  0
VERTEX
  5
4D9
  8
0
  6
BYBLOCK
 62
     0
 10
0.0
 20
0.0
 30
0.0
 70
   128
 71
    85
 72
   -87
 73
   -84
  0
VERTEX
  5
4DA
  8
0
  6
BYBLOCK
 62
     0
 10
0.0
 20
0.0
 30
0.0
 70
   128
 71
   -81
 72
   -79
 73
     2
  0
VERTEX
  5
4DB
  8
0
  6
BYBLOCK
 62
     0
 10
0.0
 20
0.0
 30
0.0
 70
   128
 71
    -2
 72
    79
 73
   -88
  0
VERTEX
  5
4DC
  8
0
  6
BYBLOCK
 62
     0
 10
0.0
 20
0.0
 30
0.0
 70
   128
 71
    89
 72
   -90
 73
    91
  0
VERTEX
  5
4DD
  8
0
  6
BYBLOCK
 62
     0
 10
0.0
 20
0.0
 30
0.0
 70
   128
 71
   -92
 72
   -91
 73
    90
  0
VERTEX
  5
4DE
  8
0
  6
BYBLOCK
 62
     0
 10
0.0
 20
0.0
 30
0.0
 70
   128
 71
    93
 72
   -91
 73
   -92
  0
VERTEX
  5
4DF
  8
0
  6
BYBLOCK
 62
     0
 10
0.0
 20
0.0
 30
0.0
 70
   128
 71
    94
 72
   -93
 73
   -95
  0
VERTEX
  5
4E0
  8
0
  6
BYBLOCK
 62
     0
 10
0.0
 20
0.0
 30
0.0
 70
   128
 71
    92
 72
   -95
 73
   -93
  0
VERTEX
  5
4E1
  8
0
  6
BYBLOCK
 62
     0
 10
0.0
 20
0.0
 30
0.0
 70
   128
 71
    96
 72
   -94
 73
   -97
  0
VERTEX
  5
4E2
  8
0
  6
BYBLOCK
 62
     0
 10
0.0
 20
0.0
 30
0.0
 70
   128
 71
    95
 72
   -97
 73
   -94
  0
VERTEX
  5
4E3
  8
0
  6
BYBLOCK
 62
     0
 10
0.0
 20
0.0
 30
0.0
 70
   128
 71
    98
 72
   -96
 73
   -97
  0
VERTEX
  5
4E4
  8
0
  6
BYBLOCK
 62
     0
 10
0.0
 20
0.0
 30
0.0
 70
   128
 71
    99
 72
   -98
 73
   100
  0
VERTEX
  5
4E5
  8
0
  6
BYBLOCK
 62
     0
 10
0.0
 20
0.0
 30
0.0
 70
   128
 71
    97
 72
  -100
 73
   -98
  0
VERTEX
  5
4E6
  8
0
  6
BYBLOCK
 62
     0
 10
0.0
 20
0.0
 30
0.0
 70
   128
 71
   101
 72
   102
 73
  -103
  0
VERTEX
  5
4E7
  8
0
  6
BYBLOCK
 62
     0
 10
0.0
 20
0.0
 30
0.0
 70
   128
 71
   103
 72
  -104
 73
  -101
  0
VERTEX
  5
4E8
  8
0
  6
BYBLOCK
 62
     0
 10
0.0
 20
0.0
 30
0.0
 70
   128
 71
  -101
 72
   104
 73
  -105
  0
VERTEX
  5
4E9
  8
0
  6
BYBLOCK
 62
     0
 10
0.0
 20
0.0
 30
0.0
 70
   128
 71
  -101
 72
  -105
 73
    13
  0
VERTEX
  5
4EA
  8
0
  6
BYBLOCK
 62
     0
 10
0.0
 20
0.0
 30
0.0
 70
   128
 71
   106
 72
  -107
 73
  -108
  0
VERTEX
  5
4EB
  8
0
  6
BYBLOCK
 62
     0
 10
0.0
 20
0.0
 30
0.0
 70
   128
 71
   108
 72
   109
 73
  -106
  0
VERTEX
  5
4EC
  8
0
  6
BYBLOCK
 62
     0
 10
0.0
 20
0.0
 30
0.0
 70
   128
 71
   107
 72
  -110
 73
  -108
  0
VERTEX
  5
4ED
  8
0
  6
BYBLOCK
 62
     0
 10
0.0
 20
0.0
 30
0.0
 70
   128
 71
   110
 72
  -111
 73
  -112
  0
VERTEX
  5
4EE
  8
0
  6
BYBLOCK
 62
     0
 10
0.0
 20
0.0
 30
0.0
 70
   128
 71
   112
 72
  -108
 73
  -110
  0
VERTEX
  5
4EF
  8
0
  6
BYBLOCK
 62
     0
 10
0.0
 20
0.0
 30
0.0
 70
   128
 71
   111
 72
  -113
 73
  -114
  0
VERTEX
  5
4F0
  8
0
  6
BYBLOCK
 62
     0
 10
0.0
 20
0.0
 30
0.0
 70
   128
 71
   114
 72
  -112
 73
  -111
  0
VERTEX
  5
4F1
  8
0
  6
BYBLOCK
 62
     0
 10
0.0
 20
0.0
 30
0.0
 70
   128
 71
   113
 72
  -115
 73
  -114
  0
VERTEX
  5
4F2
  8
0
  6
BYBLOCK
 62
     0
 10
0.0
 20
0.0
 30
0.0
 70
   128
 71
   115
 72
   116
 73
  -117
  0
VERTEX
  5
4F3
  8
0
  6
BYBLOCK
 62
     0
 10
0.0
 20
0.0
 30
0.0
 70
   128
 71
   117
 72
  -114
 73
  -115
  0
VERTEX
  5
4F4
  8
0
  6
BYBLOCK
 62
     0
 10
0.0
 20
0.0
 30
0.0
 70
   128
 71
   118
 72
   -38
 73
   119
  0
VERTEX
  5
4F5
  8
0
  6
BYBLOCK
 62
     0
 10
0.0
 20
0.0
 30
0.0
 70
   128
 71
    36
 72
  -119
 73
   -38
  0
SEQEND
  5
4F6
  8
0
  6
BYBLOCK
 62
     0
  0
POLYLINE
  5
4F7
  8
0
  6
BYBLOCK
 62
   251
 66
     1
 10
0.0
 20
0.0
 30
0.0
 70
    64
 71
    12
 72
     8
1001
AVE_FINISH
1002
{
1070
     0
1005
8CF
1002
}
1001
AVE_ENTITY_MATERIAL
1002
{
1000

1002
{
1071
        0
1070
     0
1070
     0
1002
{
1070
     0
1070
     0
1070
     0
1040
0.0
1002
}
1070
     0
1070
     0
1002
{
1002
}
1002
}
1002
{
1002
}
1002
{
1002
}
1011
-1.200963479859503
1021
0.0
1031
-0.0031963986605406
1021
0.0
1031
-0.0031963986605406
1011
-1.175563479859503
1021
0.0
1031
-0.0031963986605406
1021
0.0
1031
-0.0031963986605406
1011
-1.200963479859503
1021
0.0254
1031
-0.0031963986605406
1021
0.0254
1031
-0.0031963986605406
1011
-1.200963479859503
1021
0.0
1031
0.0222036013394594
1021
0.0
1031
0.0222036013394594
1002
}
  0
VERTEX
  5
4F8
  8
0
 10
-0.1722634798595035
 20
0.1397
 30
0.2571536013394594
 70
   192
  0
VERTEX
  5
4F9
  8
0
 10
-0.2738634798595035
 20
0.1397
 30
0.1301536013394594
 70
   192
  0
VERTEX
  5
4FA
  8
0
 10
-0.3119634798595035
 20
0.1397
 30
0.1936536013394594
 70
   192
  0
VERTEX
  5
4FB
  8
0
 10
-0.2484634798595035
 20
0.1397
 30
0.2698536013394594
 70
   192
  0
VERTEX
  5
4FC
  8
0
 10
-0.6167634798595035
 20
0.1397
 30
0.1936536013394594
 70
   192
  0
VERTEX
  5
4FD
  8
0
 10
-0.6167634798595035
 20
0.1397
 30
0.1301536013394594
 70
   192
  0
VERTEX
  5
4FE
  8
0
 10
-0.6167634798595035
 20
-0.1397
 30
0.1936536013394594
 70
   192
  0
VERTEX
  5
4FF
  8
0
 10
-0.3119634798595035
 20
-0.1397
 30
0.1936536013394594
 70
   192
  0
VERTEX
  5
500
  8
0
 10
-0.6167634798595035
 20
-0.1397
 30
0.1301536013394594
 70
   192
  0
VERTEX
  5
501
  8
0
 10
-0.2738634798595035
 20
-0.1397
 30
0.1301536013394594
 70
   192
  0
VERTEX
  5
502
  8
0
 10
-0.1722634798595035
 20
-0.1397
 30
0.2571536013394594
 70
   192
  0
VERTEX
  5
503
  8
0
 10
-0.2484634798595035
 20
-0.1397
 30
0.2698536013394594
 70
   192
  0
VERTEX
  5
504
  8
0
  6
BYBLOCK
 62
   251
 10
0.0
 20
0.0
 30
0.0
 70
   128
 71
     1
 72
     2
 73
    -3
  0
VERTEX
  5
505
  8
0
  6
BYBLOCK
 62
   251
 10
0.0
 20
0.0
 30
0.0
 70
   128
 71
     3
 72
     4
 73
    -1
  0
VERTEX
  5
506
  8
0
  6
BYBLOCK
 62
   251
 10
0.0
 20
0.0
 30
0.0
 70
   128
 71
     5
 72
    -3
 73
     6
  0
VERTEX
  5
507
  8
0
  6
BYBLOCK
 62
   251
 10
0.0
 20
0.0
 30
0.0
 70
   128
 71
     2
 72
    -6
 73
     3
  0
VERTEX
  5
508
  8
0
  6
BYBLOCK
 62
   251
 10
0.0
 20
0.0
 30
0.0
 70
   128
 71
     7
 72
    -8
 73
     9
  0
VERTEX
  5
509
  8
0
  6
BYBLOCK
 62
   251
 10
0.0
 20
0.0
 30
0.0
 70
   128
 71
    10
 72
    -9
 73
     8
  0
VERTEX
  5
50A
  8
0
  6
BYBLOCK
 62
   251
 10
0.0
 20
0.0
 30
0.0
 70
   128
 71
    11
 72
    10
 73
    -8
  0
VERTEX
  5
50B
  8
0
  6
BYBLOCK
 62
   251
 10
0.0
 20
0.0
 30
0.0
 70
   128
 71
     8
 72
    12
 73
   -11
  0
SEQEND
  5
50C
  8
0
  6
BYBLOCK
 62
   251
  0
INSERT
  5
86E
  8
0
  6
BYBLOCK
 62
     0
  2
AVE_RENDER
 10
-1.200963479859503
 20
0.0
 30
-0.0031963986605406
 41
0.0254
 42
0.0254
 43
0.0254
1001
AVE_RENDER
1002
{
1070
     3
1000
Pref
1070
    50
1070
    20
1070
     1
1070
     0
1000

1070
    10
1070
     1
1070
    30
1040
1.0
1070
     1
1040
0.3
1040
0.7
1040
0.0
1040
10.0
1010
-1.0
1020
-1.0
1030
-1.0
1040
0.3
1070
    49
1070
     0
1070
     0
1002
}
  0
INSERT
  5
86F
  8
0
  6
BYBLOCK
 62
     0
  2
AVE_RENDER
 10
-1.200963479859503
 20
0.0
 30
-0.0031963986605406
 41
0.0254
 42
0.0254
 43
0.0254
1001
AVE_RENDER
1002
{
1070
     0
1000
Full Opt
1070
     0
1070
     1
1070
     1
1070
     1
1070
     0
1070
     0
1070
     0
1070
     1
1070
     1
1040
0.0001
1040
0.0001
1002
}
  0
INSERT
  5
870
  8
0
  6
BYBLOCK
 62
     0
  2
AVE_RENDER
 10
-1.200963479859503
 20
0.0
 30
-0.0031963986605406
 41
0.0254
 42
0.0254
 43
0.0254
1001
AVE_RENDER
1002
{
1070
     0
1000
Quick Opt
1070
     0
1070
     1
1070
     1
1070
     1
1070
     0
1070
     0
1070
     1
1002
}
  0
INSERT
  5
871
  8
0
  6
BYBLOCK
 62
     0
  2
AVE_RENDER
 10
-1.200963479859503
 20
0.0
 30
-0.0031963986605406
 41
0.0254
 42
0.0254
 43
0.0254
1001
AVE_RENDER
1002
{
1070
     0
1000
Scanl Opt
1070
     2
1070
     0
1070
     2
1040
2.0
1040
4.0
1070
     0
1070
     1
1002
}
  0
INSERT
  5
872
  8
0
  6
BYBLOCK
 62
     0
  2
AVE_RENDER
 10
-1.200963479859503
 20
0.0
 30
-0.0031963986605406
 41
0.0254
 42
0.0254
 43
0.0254
1001
AVE_RENDER
1002
{
1070
     1
1000
Raytr Opt
1070
     2
1070
     0
1070
     2
1040
2.0
1040
4.0
1070
     0
1070
     1
1070
     3
1002
}
  0
INSERT
  5
875
  8
0
  6
BYBLOCK
 62
     0
  2
AVE_GLOBAL
 10
-1.200963479859503
 20
0.0
 30
-0.0031963986605406
 41
0.0254
 42
0.0254
 43
0.0254
1001
AVE_MATERIAL
1002
{
1000
*GLOBAL*
1000

1000
Global finish.
1002
{
1002
}
1002
{
1070
    63
1002
{
1002
{
1010
0.0
1020
0.0
1030
0.0
1002
}
1040
1.0
1000

1040
0.0
1002
{
1002
}
1040
0.0
1002
{
1002
}
1040
0.0
1002
}
1002
{
1002
{
1010
-1.0
1020
-1.0
1030
-1.0
1002
}
1040
1.0
1000

1040
0.0
1002
{
1002
}
1040
0.0
1002
{
1002
}
1040
0.0
1002
}
1002
{
1002
{
1010
1.0
1020
1.0
1030
1.0
1002
}
1040
1.0
1000

1040
0.0
1002
{
1002
}
1040
0.0
1002
{
1002
}
1040
0.0
1002
}
1002
{
1070
     0
1002
{
1070
     1
1002
{
1040
1.0
1040
1.0
1000

1040
0.0
1002
{
1002
}
1040
0.0
1002
{
1002
}
1040
0.0
1002
}
1002
}
1040
1.0
1040
0.0
1040
0.0
1002
}
1002
{
1040
1.0
1040
1.0
1000

1040
0.0
1002
{
1002
}
1040
0.0
1002
{
1002
}
1040
0.0
1002
}
1002
{
1040
0.5
1040
1.0
1000

1040
0.0
1002
{
1002
}
1040
0.0
1002
{
1002
}
1040
0.0
1002
}
1002
{
1070
     0
1040
0.0
1002
{
1002
}
1040
1.0
1002
{
1002
}
1040
0.0
1002
}
1002
{
1040
0.0
1002
{
1002
{
1010
0.0
1020
0.0
1030
0.0
1002
}
1040
1.0
1000

1040
0.0
1002
{
1002
}
1040
0.0
1002
{
1002
}
1040
0.0
1002
}
1002
}
1002
{
1002
{
1070
     1
1002
{
1040
0.0
1040
1.0
1000

1040
0.0
1002
{
1002
}
1040
0.0
1002
{
1002
}
1040
0.0
1002
}
1002
}
1040
0.0
1002
{
1002
}
1010
1.0
1020
0.0
1030
0.0
1010
0.0
1020
1.0
1030
0.0
1010
0.0
1020
0.0
1030
1.0
1070
     0
1002
}
1002
{
1002
{
1040
1.0
1040
1.0
1002
{
1070
     1
1002
{
1040
1.0
1040
1.0
1000

1040
0.0
1002
{
1002
}
1040
0.0
1002
{
1002
}
1040
0.0
1002
}
1002
}
1002
}
1070
     0
1040
0.0
1002
{
1002
}
1002
}
1002
{
1002
}
1002
}
1002
{
1071
        0
1070
     3
1070
     0
1002
{
1070
     2
1070
     0
1070
     0
1040
0.0
1002
}
1070
     0
1070
     2
1002
{
1002
}
1002
}
1002
}
  0
INSERT
  5
8CF
  8
ASHADE
 66
     1
  2
RM_SDB
 10
0.0
 20
0.0
 30
0.0
1001
AVE_MATERIAL
1002
{
1000
BLACK PLASTIC
1000
0.11
1000

1002
{
1002
}
1002
{
1070
    39
1002
{
1002
{
1010
0.0
1020
0.0
1030
0.0
1002
}
1040
1.0
1000

1040
0.0
1002
{
1002
}
1040
0.0
1002
{
1002
}
1040
0.0
1002
}
1002
{
1002
{
1010
0.0
1020
0.0
1030
0.0
1002
}
1040
1.0
1000

1040
0.0
1002
{
1002
}
1040
0.0
1002
{
1002
}
1040
0.0
1002
}
1002
{
1002
{
1010
1.0
1020
1.0
1030
1.0
1002
}
1040
1.0
1000

1040
0.0
1002
{
1002
}
1040
0.0
1002
{
1002
}
1040
0.0
1002
}
1002
{
1070
     0
1002
{
1070
     1
1002
{
1040
1.0
1040
1.0
1000

1040
0.0
1002
{
1002
}
1040
0.0
1002
{
1002
}
1040
0.0
1002
}
1002
}
1040
0.0
1040
0.0
1040
0.0
1002
}
1002
{
1040
0.0
1040
0.0
1000

1040
0.0
1002
{
1002
}
1040
0.0
1002
{
1002
}
1040
0.0
1002
}
1002
{
1040
0.3100000023841858
1040
1.0
1000

1040
0.0
1002
{
1002
}
1040
0.0
1002
{
1002
}
1040
0.0
1002
}
1002
{
1070
     0
1040
0.0
1002
{
1002
}
1040
0.0
1002
{
1002
}
1040
0.0
1002
}
1002
{
1040
0.0
1002
{
1002
{
1010
0.0
1020
0.0
1030
0.0
1002
}
1040
0.0
1000

1040
0.0
1002
{
1002
}
1040
0.0
1002
{
1002
}
1040
0.0
1002
}
1002
}
1002
{
1002
{
1070
     1
1002
{
1040
0.0
1040
1.0
1000

1040
0.0
1002
{
1002
}
1040
0.0
1002
{
1002
}
1040
0.0
1002
}
1002
}
1040
0.0
1002
{
1002
}
1010
0.0
1020
0.0
1030
0.0
1010
0.0
1020
0.0
1030
0.0
1010
0.0
1020
0.0
1030
0.0
1070
     0
1002
}
1002
{
1002
{
1040
0.0
1040
0.0
1002
{
1070
     0
1002
}
1002
}
1070
     0
1040
0.0
1002
{
1002
}
1002
}
1002
{
1002
}
1002
}
1002
{
1071
        0
1070
     3
1070
     0
1002
{
1070
     2
1070
     1
1070
     0
1040
0.0
1002
}
1070
     0
1070
     0
1002
{
1002
}
1002
}
1002
}
  0
ATTRIB
  5
8D0
  8
ASHADE
  6
CONTINUOUS
 62
     1
 10
-1.152380952380952
 20
-0.15
 30
0.0
 40
0.2
  1
BLACK PLASTIC
  7
ASHADE
 72
     1
 11
0.0000000000000001
 21
-0.15
 31
0.0
  2
NAME
 70
     0
  0
ATTRIB
  5
8D1
  8
ASHADE
  6
CONTINUOUS
 62
     1
 10
0.2300000000000001
 20
-0.4750000000000001
 30
0.0000000000000002
 40
0.1000000000000001
  1
 
  7
ASHADE
  2
ACADCOLOR
 70
     0
  0
ATTRIB
  5
8D2
  8
ASHADE
  6
CONTINUOUS
 62
     7
 10
-0.1499999999999999
 20
-0.19
 30
0.0
 40
0.01
  1
0.0000,0.0000,0.0000
  7
STANDARD
  2
COLOR
 70
     1
  0
ATTRIB
  5
8D3
  8
ASHADE
  6
CONTINUOUS
 62
     7
 10
-0.1499999999999999
 20
-0.205
 30
0.0
 40
0.01
  1
1.0,1.0,1.0
  7
STANDARD
  2
OPACITY
 70
     1
  0
ATTRIB
  5
8D4
  8
ASHADE
  6
CONTINUOUS
 62
     7
 10
-0.1499999999999999
 20
-0.22
 30
0.0
 40
0.01
  1
("nullsurf" "")
  7
STANDARD
  2
SURFACE
 70
     1
  0
ATTRIB
  5
8D5
  8
ASHADE
  6
CONTINUOUS
 62
     7
 10
-0.1499999999999999
 20
-0.235
 30
0.0
 40
0.01
  1
(11 "Ka" "1")(11 "Kd" "1")(11 "Ks" "1")(11 "roughness" "0.31")
  7
STANDARD
  2
SURF1
 70
     1
  0
ATTRIB
  5
8D6
  8
ASHADE
  6
CONTINUOUS
 62
     7
 10
-0.1499999999999999
 20
-0.25
 30
0.0
 40
0.01
  1

  7
STANDARD
  2
SURF2
 70
     1
  0
ATTRIB
  5
8D7
  8
ASHADE
  6
CONTINUOUS
 62
     7
 10
-0.1499999999999999
 20
-0.265
 30
0.0
 40
0.01
  1

  7
STANDARD
  2
SURF3
 70
     1
  0
ATTRIB
  5
8D8
  8
ASHADE
  6
CONTINUOUS
 62
     7
 10
-0.1499999999999999
 20
-0.2799999999999999
 30
0.0
 40
0.01
  1

  7
STANDARD
  2
SURF4
 70
     1
  0
ATTRIB
  5
8D9
  8
ASHADE
  6
CONTINUOUS
 62
     7
 10
-0.1499999999999999
 20
-0.295
 30
0.0
 40
0.01
  1
-1.0
  7
STANDARD
  2
SHADINGRATE
 70
     1
  0
ATTRIB
  5
8DA
  8
ASHADE
  6
CONTINUOUS
 62
     7
 10
-0.1499999999999999
 20
-0.31
 30
0.0
 40
0.01
  1
("nulldisp" "")
  7
STANDARD
  2
DISPLACEMENT
 70
     1
  0
ATTRIB
  5
8DB
  8
ASHADE
  6
CONTINUOUS
 62
     7
 10
-0.1499999999999999
 20
-0.325
 30
0.0
 40
0.01
  1

  7
STANDARD
  2
DISP1
 70
     1
  0
ATTRIB
  5
8DC
  8
ASHADE
  6
CONTINUOUS
 62
     7
 10
-0.1499999999999999
 20
-0.34
 30
0.0
 40
0.01
  1

  7
STANDARD
  2
DISP2
 70
     1
  0
ATTRIB
  5
8DD
  8
ASHADE
  6
CONTINUOUS
 62
     7
 10
-0.1499999999999999
 20
-0.355
 30
0.0
 40
0.01
  1

  7
STANDARD
  2
DISP3
 70
     1
  0
ATTRIB
  5
8DE
  8
ASHADE
  6
CONTINUOUS
 62
     7
 10
-0.1499999999999999
 20
-0.3699999999999999
 30
0.0
 40
0.01
  1

  7
STANDARD
  2
DISP4
 70
     1
  0
ATTRIB
  5
8DF
  8
ASHADE
  6
CONTINUOUS
 62
     7
 10
-0.1499999999999999
 20
-0.3849999999999998
 30
0.0
 40
0.01
  1
0.0
  7
STANDARD
  2
DBOUND
 70
     1
  0
ATTRIB
  5
8E0
  8
ASHADE
  6
CONTINUOUS
 62
     7
 10
-0.1499999999999999
 20
-0.4
 30
0.0
 40
0.01
  1
0
  7
STANDARD
  2
SMOOTH
 70
     1
  0
ATTRIB
  5
8E1
  8
ASHADE
  6
CONTINUOUS
 62
     7
 10
-0.1499999999999999
 20
-0.415
 30
0.0
 40
0.01
  1
("" "")
  7
STANDARD
  2
ATMOSPHERE
 70
     1
  0
ATTRIB
  5
8E2
  8
ASHADE
  6
CONTINUOUS
 62
     7
 10
-0.15
 20
-0.4302404735808357
 30
0.0
 40
0.01
  1

  7
STANDARD
  2
ATMO1
 70
     1
  0
ATTRIB
  5
8E3
  8
ASHADE
  6
CONTINUOUS
 62
     7
 10
-0.15
 20
-0.4452404735808357
 30
0.0
 40
0.01
  1

  7
STANDARD
  2
ATMO2
 70
     1
  0
ATTRIB
  5
8E4
  8
ASHADE
  6
CONTINUOUS
 62
     7
 10
-0.15
 20
-0.4602404735808357
 30
0.0
 40
0.01
  1

  7
STANDARD
  2
ATMO3
 70
     1
  0
ATTRIB
  5
8E5
  8
ASHADE
  6
CONTINUOUS
 62
     7
 10
-0.15
 20
-0.4752404735808357
 30
0.0
 40
0.01
  1

  7
STANDARD
  2
ATMO4
 70
     1
  0
ATTRIB
  5
8E6
  8
ASHADE
  6
CONTINUOUS
 62
     7
 10
-0.1499999999999999
 20
-0.49
 30
0.0
 40
0.01
  1
0.0 0.0 1.0 0.0 0.0 1.0 1.0 1.0
  7
STANDARD
  2
TCOORD
 70
     1
  0
SEQEND
  5
8E7
  8
ASHADE
  0
POLYLINE
  5
92D
  8
_KTI_CONTROL
 10
0.0
 20
0.0
 30
0.0
 66
     1
 70
     8
1001
_KTI_ARCHT
1070
 12000
1000
ENVIRONMENT
1070
 10003
1000
12zstg09
1070
 20000
1000
standard
1070
 20001
1000
c:\program files\ketiv\archt
1070
 20003
1000
d:\archt
1070
 20002
1000
c:\program files\ketiv\archt\tmp
1070
 20004
1002
{
1000
c:\program files\ketiv\archt\blks
1000
c:\program files\ketiv\archt\blks3d
1000
e:\archt\blks
1000
e:\archt\blks3d
1000
d:\archt\blks
1000
d:\archt\blks3d
1002
}
1070
 20005
1002
{
1000
c:\program files\ketiv\archt\slds
1002
}
1070
 20006
1002
{
1000
c:\program files\ketiv\archt\dclswin
1002
}
1070
 20007
1002
{
1000
c:\program files\ketiv\archt\docs
1000
e:\archt\docs
1000
d:\archt\docs
1002
}
1070
 20008
1002
{
1000
c:\program files\ketiv\archt\help
1002
}
  0
VERTEX
  5
92E
  8
_KTI_CONTROL
 10
0.0
 20
0.0
 30
0.0
 70
    32
  0
VERTEX
  5
92F
  8
_KTI_CONTROL
 10
0.0
 20
0.0
 30
0.0
 70
    32
  0
SEQEND
  5
930
  8
_KTI_CONTROL
  0
POLYLINE
  5
931
  8
_KTI_CONTROL
 10
0.0
 20
0.0
 30
0.0
 66
     1
 70
     8
1001
_KTI_ARCHT
1070
 12000
1000
ARCHTVARS
1070
 10003
1000
12zstg09
1070
 12030
1000
in
1070
 12020
1070
     1
1070
 12021
1070
     0
1070
 12070
1070
     0
1070
 12071
1070
     1
1070
 12907
1070
     0
1070
 12913
1070
     1
1070
 12914
1070
     1
1070
 12072
1070
     2
1070
 12073
1070
    48
1070
 12074
1070
     0
1070
 12080
1070
     1
1070
 12092
1070
     1
1070
 12096
1070
     0
1070
 12095
1070
     0
1070
 12081
1070
     1
1070
 12082
1070
     1
1070
 12083
1070
     1
1070
 12084
1070
     1
1070
 12085
1070
     0
1070
 12086
1070
     1
1070
 12087
1070
     0
1070
 12088
1070
     0
1070
 12097
1070
     1
1070
 12089
1070
     4
1070
 12090
1070
     6
1070
 12091
1070
     1
1070
 12045
1000
standard
1070
 12046
1000

1070
 12047
1000
standard
1070
 12048
1000

1070
 12049
1000

1070
 12093
1070
     1
1070
 12094
1070
     1
1070
 12908
1070
     0
1070
 12909
1070
     0
1070
 12911
1070
     0
1070
 12910
1070
     0
1070
 12912
1070
     0
1070
 12098
1070
   800
1070
 12060
1002
{
1000

1000

1000

1000

1002
}
1070
 12904
1002
{
1070
     0
1070
     0
1070
     0
1070
     0
1070
     0
1002
}
1070
 12905
1002
{
1040
0.0
1040
0.0
1040
0.0
1040
0.0
1040
0.0
1002
}
1070
 12906
1002
{
1000

1000

1000

1000

1000

1002
}
1070
 12040
1002
{
1002
}
  0
VERTEX
  5
932
  8
_KTI_CONTROL
 10
0.0
 20
0.0
 30
0.0
 70
    32
  0
VERTEX
  5
933
  8
_KTI_CONTROL
 10
0.0
 20
0.0
 30
0.0
 70
    32
  0
SEQEND
  5
934
  8
_KTI_CONTROL
  0
ENDSEC
  0
EOF
