  0
SECTION
  2
HEADER
  9
$ACADVER
  1
AC1009
  9
$DWGCODEPAGE
  3
ansi_1252
  9
$INSBASE
 10
0.0
 20
0.0
 30
0.0
  9
$EXTMIN
 10
-0.5422110960821556
 20
-0.2959129931351754
 30
-0.0013256177760042
  9
$EXTMAX
 10
0.0311547332629516
 20
0.2983727763188426
 30
1.105649630132277
  9
$LIMMIN
 10
0.0
 20
0.0
  9
$LIMMAX
 10
480.0
 20
360.0
  9
$ORTHOMODE
 70
     0
  9
$REGENMODE
 70
     1
  9
$FILLMODE
 70
     0
  9
$QTEXTMODE
 70
     0
  9
$MIRRTEXT
 70
     1
  9
$DRAGMODE
 70
     2
  9
$LTSCALE
 40
2.0
  9
$OSMODE
 70
    37
  9
$ATTMODE
 70
     1
  9
$TEXTSIZE
 40
1.0
  9
$TRACEWID
 40
0.05
  9
$TEXTSTYLE
  7
ST
  9
$CLAYER
  8
0
  9
$CELTYPE
  6
BYLAYER
  9
$CECOLOR
 62
   256
  9
$DIMSCALE
 40
1.0
  9
$DIMASZ
 40
0.125
  9
$DIMEXO
 40
0.0625
  9
$DIMDLI
 40
0.3799999999999999
  9
$DIMRND
 40
0.0
  9
$DIMDLE
 40
0.0
  9
$DIMEXE
 40
0.18
  9
$DIMTP
 40
0.0
  9
$DIMTM
 40
0.0
  9
$DIMTXT
 40
0.11
  9
$DIMCEN
 40
0.09
  9
$DIMTSZ
 40
0.0
  9
$DIMTOL
 70
     0
  9
$DIMLIM
 70
     0
  9
$DIMTIH
 70
     0
  9
$DIMTOH
 70
     0
  9
$DIMSE1
 70
     0
  9
$DIMSE2
 70
     0
  9
$DIMTAD
 70
     1
  9
$DIMZIN
 70
     1
  9
$DIMBLK
  1

  9
$DIMASO
 70
     0
  9
$DIMSHO
 70
     0
  9
$DIMPOST
  1

  9
$DIMAPOST
  1

  9
$DIMALT
 70
     0
  9
$DIMALTD
 70
     2
  9
$DIMALTF
 40
25.4
  9
$DIMLFAC
 40
1.0
  9
$DIMTOFL
 70
     0
  9
$DIMTVP
 40
0.0
  9
$DIMTIX
 70
     0
  9
$DIMSOXD
 70
     0
  9
$DIMSAH
 70
     0
  9
$DIMBLK1
  1

  9
$DIMBLK2
  1

  9
$DIMSTYLE
  2
STANDARD
  9
$DIMCLRD
 70
     0
  9
$DIMCLRE
 70
     0
  9
$DIMCLRT
 70
     0
  9
$DIMTFAC
 40
1.0
  9
$DIMGAP
 40
0.09
  9
$LUNITS
 70
     2
  9
$LUPREC
 70
     4
  9
$SKETCHINC
 40
0.1
  9
$FILLETRAD
 40
0.0
  9
$AUNITS
 70
     0
  9
$AUPREC
 70
     4
  9
$MENU
  1
acad
  9
$ELEVATION
 40
0.0
  9
$PELEVATION
 40
0.0
  9
$THICKNESS
 40
0.0
  9
$LIMCHECK
 70
     0
  9
$CHAMFERA
 40
0.0
  9
$CHAMFERB
 40
0.0
  9
$SKPOLY
 70
     0
  9
$TDCREATE
 40
2449737.483535648
  9
$TDUPDATE
 40
2457521.808946759
  9
$TDINDWG
 40
0.0034902199
  9
$TDUSRTIMER
 40
0.0034902199
  9
$USRTIMER
 70
     1
  9
$ANGBASE
 50
0.0
  9
$ANGDIR
 70
     0
  9
$PDMODE
 70
     0
  9
$PDSIZE
 40
0.0
  9
$PLINEWID
 40
0.0
  9
$COORDS
 70
     1
  9
$SPLFRAME
 70
     0
  9
$SPLINETYPE
 70
     6
  9
$SPLINESEGS
 70
     8
  9
$ATTDIA
 70
     0
  9
$ATTREQ
 70
     1
  9
$HANDLING
 70
     1
  9
$HANDSEED
  5
D59
  9
$SURFTAB1
 70
     6
  9
$SURFTAB2
 70
     6
  9
$SURFTYPE
 70
     6
  9
$SURFU
 70
     6
  9
$SURFV
 70
     6
  9
$UCSNAME
  2

  9
$UCSORG
 10
0.0
 20
0.0
 30
0.0
  9
$UCSXDIR
 10
1.0
 20
0.0
 30
0.0
  9
$UCSYDIR
 10
0.0
 20
1.0
 30
0.0
  9
$PUCSNAME
  2

  9
$PUCSORG
 10
0.0
 20
0.0
 30
0.0
  9
$PUCSXDIR
 10
1.0
 20
0.0
 30
0.0
  9
$PUCSYDIR
 10
0.0
 20
1.0
 30
0.0
  9
$USERI1
 70
     0
  9
$USERI2
 70
     0
  9
$USERI3
 70
     0
  9
$USERI4
 70
     0
  9
$USERI5
 70
     0
  9
$USERR1
 40
0.0
  9
$USERR2
 40
0.0
  9
$USERR3
 40
0.0
  9
$USERR4
 40
0.0
  9
$USERR5
 40
1.0
  9
$WORLDVIEW
 70
     0
  9
$SHADEDGE
 70
     3
  9
$SHADEDIF
 70
    70
  9
$TILEMODE
 70
     1
  9
$MAXACTVP
 70
    16
  9
$PLIMCHECK
 70
     0
  9
$PEXTMIN
 10
1.000000000000000E+20
 20
1.000000000000000E+20
 30
1.000000000000000E+20
  9
$PEXTMAX
 10
-1.000000000000000E+20
 20
-1.000000000000000E+20
 30
-1.000000000000000E+20
  9
$PLIMMIN
 10
0.0
 20
0.0
  9
$PLIMMAX
 10
12.0
 20
9.0
  9
$UNITMODE
 70
     0
  9
$VISRETAIN
 70
     0
  9
$PLINEGEN
 70
     0
  9
$PSLTSCALE
 70
     0
  0
ENDSEC
  0
SECTION
  2
TABLES
  0
TABLE
  2
VPORT
 70
     1
  0
VPORT
  2
*ACTIVE
 70
     0
 10
0.0
 20
0.0
 11
1.0
 21
1.0
 12
-0.1949553843526355
 22
0.5738378971244853
 13
0.0
 23
0.0
 14
1.0
 24
1.0
 15
12.0
 25
12.0
 16
1.032271612955968
 26
-1.230213403273295
 36
0.6488376526466564
 17
0.0
 27
0.0
 37
0.0
 40
1.351486256065499
 41
1.56198347107438
 42
50.0
 43
0.0
 44
0.0
 50
0.0
 51
0.0
 71
     0
 72
  2000
 73
     1
 74
     0
 75
     0
 76
     0
 77
     0
 78
     0
  0
ENDTAB
  0
TABLE
  2
LTYPE
 70
     1
  0
LTYPE
  2
CONTINUOUS
 70
     0
  3
Solid line
 72
    65
 73
     0
 40
0.0
  0
ENDTAB
  0
TABLE
  2
LAYER
 70
     3
  0
LAYER
  2
0
 70
     0
 62
     7
  6
CONTINUOUS
  0
LAYER
  2
ASHADE
 70
     1
 62
     7
  6
CONTINUOUS
  0
LAYER
  2
_KTI_CONTROL
 70
     5
 62
     7
  6
CONTINUOUS
  0
ENDTAB
  0
TABLE
  2
STYLE
 70
     3
  0
STYLE
  2
ST
 70
     0
 40
0.0
 41
1.0
 50
0.0
 71
     0
 42
0.100000000000017
  3
SIMPLEX
  4

  0
STYLE
  2
ASHADE
 70
     0
 40
0.2
 41
1.0
 50
0.0
 71
     0
 42
1.0
  3
simplex
  4

  0
STYLE
  2
STANDARD
 70
     0
 40
0.0
 41
1.0
 50
0.0
 71
     0
 42
0.05
  3
txt
  4

  0
ENDTAB
  0
TABLE
  2
VIEW
 70
     0
  0
ENDTAB
  0
TABLE
  2
UCS
 70
     0
  0
ENDTAB
  0
TABLE
  2
APPID
 70
     6
  0
APPID
  2
ACAD
 70
     0
  0
APPID
  2
AVE_FINISH
 70
     0
  0
APPID
  2
AVE_ENTITY_MATERIAL
 70
     0
  0
APPID
  2
AVE_RENDER
 70
     0
  0
APPID
  2
AVE_MATERIAL
 70
     0
  0
APPID
  2
_KTI_ARCHT
 70
     0
  0
ENDTAB
  0
TABLE
  2
DIMSTYLE
 70
     1
  0
DIMSTYLE
  2
STANDARD
 70
     0
  3

  4

  5

  6

  7

 40
1.0
 41
0.18
 42
0.0625
 43
0.38
 44
0.18
 45
0.0
 46
0.0
 47
0.0
 48
0.0
140
0.18
141
0.09
142
0.0
143
25.4
144
1.0
145
0.0
146
1.0
147
0.09
 71
     0
 72
     0
 73
     1
 74
     1
 75
     0
 76
     0
 77
     0
 78
     0
170
     0
171
     2
172
     0
173
     0
174
     0
175
     0
176
     0
177
     0
178
     0
  0
ENDTAB
  0
ENDSEC
  0
SECTION
  2
BLOCKS
  0
BLOCK
  8
0
  2
$MODEL_SPACE
 70
     0
 10
0.0
 20
0.0
 30
0.0
  3
$MODEL_SPACE
  1

  0
ENDBLK
  5
CB7
  8
0
  0
BLOCK
 67
     1
  8
0
  2
$PAPER_SPACE
 70
     0
 10
0.0
 20
0.0
 30
0.0
  3
$PAPER_SPACE
  1

  0
ENDBLK
  5
CB5
 67
     1
  8
0
  0
BLOCK
  8
0
  2
AVE_RENDER
 70
     0
 10
0.0
 20
0.0
 30
0.0
  3
AVE_RENDER
  1
AVE_RENDER
  0
ENDBLK
  5
BF2
  8
0
  0
BLOCK
  8
0
  2
AVE_GLOBAL
 70
     0
 10
0.0
 20
0.0
 30
0.0
  3
AVE_GLOBAL
  1
AVE_GLOBAL
  0
ENDBLK
  5
BF9
  8
0
  0
BLOCK
  8
0
  2
RM_SDB
 70
     2
 10
0.0
 20
0.0
 30
0.0
  3
RM_SDB
  1

  0
ATTDEF
  5
BFC
  8
ASHADE
  6
CONTINUOUS
 62
     1
 10
-0.3857142857142856
 20
-0.15
 30
0.0
 40
0.2
  1

  7
ASHADE
 72
     1
 11
0.0000000000000001
 21
-0.15
 31
0.0
  3
Name
  2
NAME
 70
     0
  0
ATTDEF
  5
BFD
  8
ASHADE
  6
CONTINUOUS
 62
     1
 10
0.2300000000000001
 20
-0.4750000000000001
 30
0.0000000000000002
 40
0.1000000000000001
  1
-1
  7
ASHADE
  3
ACAD Color Index
  2
ACADCOLOR
 70
     0
  0
ATTDEF
  5
BFE
  8
ASHADE
  6
CONTINUOUS
 62
     7
 10
-0.1499999999999999
 20
-0.19
 30
0.0
 40
0.01
  1
-1,-1,-1
  7
STANDARD
  3
RGB Color
  2
COLOR
 70
     1
  0
ATTDEF
  5
BFF
  8
ASHADE
  6
CONTINUOUS
 62
     7
 10
-0.1499999999999999
 20
-0.205
 30
0.0
 40
0.01
  1
1,1,1
  7
STANDARD
  3
Opacity
  2
OPACITY
 70
     1
  0
ATTDEF
  5
C00
  8
ASHADE
  6
CONTINUOUS
 62
     7
 10
-0.1499999999999999
 20
-0.22
 30
0.0
 40
0.01
  1
("nullsurf" "")
  7
STANDARD
  3
Surface Shader
  2
SURFACE
 70
     1
  0
ATTDEF
  5
C01
  8
ASHADE
  6
CONTINUOUS
 62
     7
 10
-0.1499999999999999
 20
-0.235
 30
0.0
 40
0.01
  1

  7
STANDARD
  3
Surface Parameters 1
  2
SURF1
 70
     1
  0
ATTDEF
  5
C02
  8
ASHADE
  6
CONTINUOUS
 62
     7
 10
-0.1499999999999999
 20
-0.25
 30
0.0
 40
0.01
  1

  7
STANDARD
  3
Surface Parameters 2
  2
SURF2
 70
     1
  0
ATTDEF
  5
C03
  8
ASHADE
  6
CONTINUOUS
 62
     7
 10
-0.1499999999999999
 20
-0.265
 30
0.0
 40
0.01
  1

  7
STANDARD
  3
Surface Parameters 3
  2
SURF3
 70
     1
  0
ATTDEF
  5
C04
  8
ASHADE
  6
CONTINUOUS
 62
     7
 10
-0.1499999999999999
 20
-0.2799999999999999
 30
0.0
 40
0.01
  1

  7
STANDARD
  3
Surface Parameters 4
  2
SURF4
 70
     1
  0
ATTDEF
  5
C05
  8
ASHADE
  6
CONTINUOUS
 62
     7
 10
-0.1499999999999999
 20
-0.295
 30
0.0
 40
0.01
  1
-1
  7
STANDARD
  3
Shading Rate
  2
SHADINGRATE
 70
     1
  0
ATTDEF
  5
C06
  8
ASHADE
  6
CONTINUOUS
 62
     7
 10
-0.1499999999999999
 20
-0.31
 30
0.0
 40
0.01
  1
("nulldisp" "")
  7
STANDARD
  3
Displacement Shader
  2
DISPLACEMENT
 70
     1
  0
ATTDEF
  5
C07
  8
ASHADE
  6
CONTINUOUS
 62
     7
 10
-0.1499999999999999
 20
-0.325
 30
0.0
 40
0.01
  1

  7
STANDARD
  3
Displacement Parameters 1
  2
DISP1
 70
     1
  0
ATTDEF
  5
C08
  8
ASHADE
  6
CONTINUOUS
 62
     7
 10
-0.1499999999999999
 20
-0.34
 30
0.0
 40
0.01
  1

  7
STANDARD
  3
Displacement Parameters 2
  2
DISP2
 70
     1
  0
ATTDEF
  5
C09
  8
ASHADE
  6
CONTINUOUS
 62
     7
 10
-0.1499999999999999
 20
-0.355
 30
0.0
 40
0.01
  1

  7
STANDARD
  3
Displacement Parameters 3
  2
DISP3
 70
     1
  0
ATTDEF
  5
C0A
  8
ASHADE
  6
CONTINUOUS
 62
     7
 10
-0.1499999999999999
 20
-0.3699999999999999
 30
0.0
 40
0.01
  1

  7
STANDARD
  3
Displacement Parameters 4
  2
DISP4
 70
     1
  0
ATTDEF
  5
C0B
  8
ASHADE
  6
CONTINUOUS
 62
     7
 10
-0.1499999999999999
 20
-0.3849999999999998
 30
0.0
 40
0.01
  1
0.0
  7
STANDARD
  3
Displacement Bounds
  2
DBOUND
 70
     1
  0
ATTDEF
  5
C0C
  8
ASHADE
  6
CONTINUOUS
 62
     7
 10
-0.1499999999999999
 20
-0.4
 30
0.0
 40
0.01
  1
0
  7
STANDARD
  3
Smooth Surface
  2
SMOOTH
 70
     1
  0
ATTDEF
  5
C0D
  8
ASHADE
  6
CONTINUOUS
 62
     7
 10
-0.1499999999999999
 20
-0.415
 30
0.0
 40
0.01
  1
("" "")
  7
STANDARD
  3
Atmosphere Shader
  2
ATMOSPHERE
 70
     1
  0
ATTDEF
  5
C0E
  8
ASHADE
  6
CONTINUOUS
 62
     7
 10
-0.15
 20
-0.4302404735808357
 30
0.0
 40
0.01
  1

  7
STANDARD
  3
Atmosphere Parameters 1
  2
ATMO1
 70
     1
  0
ATTDEF
  5
C0F
  8
ASHADE
  6
CONTINUOUS
 62
     7
 10
-0.15
 20
-0.4452404735808357
 30
0.0
 40
0.01
  1

  7
STANDARD
  3
Atmosphere Parameters 2
  2
ATMO2
 70
     1
  0
ATTDEF
  5
C10
  8
ASHADE
  6
CONTINUOUS
 62
     7
 10
-0.15
 20
-0.4602404735808357
 30
0.0
 40
0.01
  1

  7
STANDARD
  3
Atmosphere Parameters 3
  2
ATMO3
 70
     1
  0
ATTDEF
  5
C11
  8
ASHADE
  6
CONTINUOUS
 62
     7
 10
-0.15
 20
-0.4752404735808357
 30
0.0
 40
0.01
  1

  7
STANDARD
  3
Atmosphere Parameters 4
  2
ATMO4
 70
     1
  0
ATTDEF
  5
C12
  8
ASHADE
  6
CONTINUOUS
 62
     7
 10
-0.1499999999999999
 20
-0.49
 30
0.0
 40
0.01
  1
0 0 1 0 0 1 1 1
  7
STANDARD
  3
Texture Map Coordinates
  2
TCOORD
 70
     1
  0
POLYLINE
  5
C13
  8
ASHADE
  6
CONTINUOUS
 62
     7
 66
     1
 10
0.0
 20
0.0
 30
0.0
  0
VERTEX
  5
D21
  8
ASHADE
  6
CONTINUOUS
 62
     7
 10
-0.3000000000000002
 20
-0.18
 30
0.0
  0
VERTEX
  5
D22
  8
ASHADE
  6
CONTINUOUS
 62
     7
 10
-0.2999999999999999
 20
-0.3250000000000001
 30
0.0
 42
0.1747045211890322
  0
VERTEX
  5
D23
  8
ASHADE
  6
CONTINUOUS
 62
     7
 10
-0.2816863194828013
 20
-0.3758135573372287
 30
0.0
 42
0.1042029417664262
  0
VERTEX
  5
D24
  8
ASHADE
  6
CONTINUOUS
 62
     7
 10
-0.2121320343559644
 20
-0.4310660171779823
 30
0.0
 42
0.0649481016502893
  0
VERTEX
  5
D25
  8
ASHADE
  6
CONTINUOUS
 62
     7
 10
-0.1213292385415812
 20
-0.4625678598959921
 30
0.0
 42
0.0510992989620776
  0
VERTEX
  5
D26
  8
ASHADE
  6
CONTINUOUS
 62
     7
 10
0.0
 20
-0.475
 30
0.0
 42
0.0325604591914346
  0
VERTEX
  5
D27
  8
ASHADE
  6
CONTINUOUS
 62
     7
 10
0.0776712930301476
 20
-0.4699366059390404
 30
0.0
  0
VERTEX
  5
D28
  8
ASHADE
  6
CONTINUOUS
 62
     7
 10
0.0776712930301476
 20
-0.18
 30
0.0
  0
SEQEND
  5
D54
  8
ASHADE
  6
CONTINUOUS
 62
     7
  0
POLYLINE
  5
C1D
  8
ASHADE
  6
CONTINUOUS
 62
     7
 66
     1
 10
0.0
 20
0.0
 30
0.0
  0
VERTEX
  5
D29
  8
ASHADE
  6
CONTINUOUS
 62
     7
 10
0.0776712930301476
 20
-0.4173639511315807
 30
0.0
 42
0.0020561688178525
  0
VERTEX
  5
D2A
  8
ASHADE
  6
CONTINUOUS
 62
     7
 10
0.0808861590277209
 20
-0.4167119065973279
 30
0.0
 42
0.0649481016502881
  0
VERTEX
  5
D2B
  8
ASHADE
  6
CONTINUOUS
 62
     7
 10
0.1414213562373096
 20
-0.3957106781186547
 30
0.0
 42
0.104202941766426
  0
VERTEX
  5
D2C
  8
ASHADE
  6
CONTINUOUS
 62
     7
 10
0.1877908796552008
 20
-0.3588757048914858
 30
0.0
 42
0.1747044792402826
  0
VERTEX
  5
D2D
  8
ASHADE
  6
CONTINUOUS
 62
     7
 10
0.2000000000000001
 20
-0.3250000086461401
 30
0.0
  0
VERTEX
  5
D2E
  8
ASHADE
  6
CONTINUOUS
 62
     7
 10
0.2000000000000001
 20
-0.18
 30
0.0
  0
SEQEND
  5
D55
  8
ASHADE
  6
CONTINUOUS
 62
     7
  0
POLYLINE
  5
C25
  8
ASHADE
  6
CONTINUOUS
 62
     7
 66
     1
 10
0.0
 20
0.0
 30
0.0
  0
VERTEX
  5
D2F
  8
ASHADE
  6
CONTINUOUS
 62
     7
 10
0.289889668177379
 20
-0.18
 30
0.0
  0
VERTEX
  5
D30
  8
ASHADE
  6
CONTINUOUS
 62
     7
 10
0.2898896681773789
 20
-0.2861621487588727
 30
0.0
 42
0.0456559979864751
  0
VERTEX
  5
D31
  8
ASHADE
  6
CONTINUOUS
 62
     7
 10
0.2816863194828014
 20
-0.2741864426627713
 30
0.0
 42
0.1042029417664258
  0
VERTEX
  5
D32
  8
ASHADE
  6
CONTINUOUS
 62
     7
 10
0.2121320343559643
 20
-0.218933982822018
 30
0.0
 42
0.0090478215307507
  0
VERTEX
  5
D33
  8
ASHADE
  6
CONTINUOUS
 62
     7
 10
0.2000000000000001
 20
-0.2131399482633147
 30
0.0
 42
0.0510992989620778
  0
SEQEND
  5
D56
  8
ASHADE
  6
CONTINUOUS
 62
     7
  0
POLYLINE
  5
C2C
  8
ASHADE
  6
CONTINUOUS
 62
     7
 66
     1
 10
0.0
 20
0.0
 30
0.0
  0
VERTEX
  5
D34
  8
ASHADE
  6
CONTINUOUS
 62
     7
 10
0.0776712930301477
 20
0.08
 30
0.0
  0
VERTEX
  5
D35
  8
ASHADE
  6
CONTINUOUS
 62
     7
 10
0.0776712930301476
 20
0.1800633940609596
 30
0.0
 42
-0.0325604591914349
  0
VERTEX
  5
D36
  8
ASHADE
  6
CONTINUOUS
 62
     7
 10
0.0
 20
0.175
 30
0.0
 42
-0.0510992989620779
  0
VERTEX
  5
D37
  8
ASHADE
  6
CONTINUOUS
 62
     7
 10
-0.1213292385415814
 20
0.1874321401040082
 30
0.0
 42
-0.0649481016502892
  0
VERTEX
  5
D38
  8
ASHADE
  6
CONTINUOUS
 62
     7
 10
-0.2121320343559644
 20
0.2189339828220179
 30
0.0
 42
-0.1042029417664258
  0
VERTEX
  5
D39
  8
ASHADE
  6
CONTINUOUS
 62
     7
 10
-0.2816863194828013
 20
0.2741864426627713
 30
0.0
 42
-0.1747045211890322
  0
VERTEX
  5
D3A
  8
ASHADE
  6
CONTINUOUS
 62
     7
 10
-0.2999999999999999
 20
0.3250000000000001
 30
0.0
 42
-0.1747045211890318
  0
VERTEX
  5
D3B
  8
ASHADE
  6
CONTINUOUS
 62
     7
 10
-0.2816863194828013
 20
0.3758135573372287
 30
0.0
 42
-0.1042029417664262
  0
VERTEX
  5
D3C
  8
ASHADE
  6
CONTINUOUS
 62
     7
 10
-0.2121320343559644
 20
0.4310660171779822
 30
0.0
 42
-0.0649481016502893
  0
VERTEX
  5
D3D
  8
ASHADE
  6
CONTINUOUS
 62
     7
 10
-0.1213292385415813
 20
0.462567859895992
 30
0.0
 42
-0.051099298962078
  0
VERTEX
  5
D3E
  8
ASHADE
  6
CONTINUOUS
 62
     7
 10
0.0
 20
0.475
 30
0.0
 42
-0.0510992989620779
  0
VERTEX
  5
D3F
  8
ASHADE
  6
CONTINUOUS
 62
     7
 10
0.1213292385415813
 20
0.4625678598959919
 30
0.0
 42
-0.0649481016502889
  0
VERTEX
  5
D40
  8
ASHADE
  6
CONTINUOUS
 62
     7
 10
0.2121320343559643
 20
0.4310660171779821
 30
0.0
 42
-0.1042029417664259
  0
VERTEX
  5
D41
  8
ASHADE
  6
CONTINUOUS
 62
     7
 10
0.2816863194828012
 20
0.3758135573372288
 30
0.0
 42
-0.0456559979864758
  0
VERTEX
  5
D42
  8
ASHADE
  6
CONTINUOUS
 62
     7
 10
0.2898896681773789
 20
0.3638378512411275
 30
0.0
  0
VERTEX
  5
D43
  8
ASHADE
  6
CONTINUOUS
 62
     7
 10
0.289889668177379
 20
0.08
 30
0.0
  0
SEQEND
  5
D57
  8
ASHADE
  6
CONTINUOUS
 62
     7
  0
LINE
  5
C3E
  8
ASHADE
  6
CONTINUOUS
 62
     7
 10
-0.3000000000000002
 20
0.325
 30
0.0000000000000002
 11
-0.3000000000000002
 21
0.08
 31
0.0000000000000002
  0
POLYLINE
  5
C3F
  8
ASHADE
  6
CONTINUOUS
 62
     7
 66
     1
 10
0.0
 20
0.0
 30
0.0
 70
     1
  0
VERTEX
  5
D44
  8
ASHADE
  6
CONTINUOUS
 62
     7
 10
0.0
 20
0.425
 30
0.0
 42
0.051099298962078
  0
VERTEX
  5
D45
  8
ASHADE
  6
CONTINUOUS
 62
     7
 10
-0.0808861590277208
 20
0.416711906597328
 30
0.0
 42
0.064948101650289
  0
VERTEX
  5
D46
  8
ASHADE
  6
CONTINUOUS
 62
     7
 10
-0.1414213562373094
 20
0.3957106781186547
 30
0.0
 42
0.1042029417664259
  0
VERTEX
  5
D47
  8
ASHADE
  6
CONTINUOUS
 62
     7
 10
-0.1877908796552007
 20
0.3588757048914858
 30
0.0
 42
0.1747045211890328
  0
VERTEX
  5
D48
  8
ASHADE
  6
CONTINUOUS
 62
     7
 10
-0.1999999999999998
 20
0.325
 30
0.0
 42
0.1747045211890319
  0
VERTEX
  5
D49
  8
ASHADE
  6
CONTINUOUS
 62
     7
 10
-0.1877908796552009
 20
0.2911242951085143
 30
0.0
 42
0.1042029417664258
  0
VERTEX
  5
D4A
  8
ASHADE
  6
CONTINUOUS
 62
     7
 10
-0.1414213562373094
 20
0.2542893218813453
 30
0.0
 42
0.0649481016502892
  0
VERTEX
  5
D4B
  8
ASHADE
  6
CONTINUOUS
 62
     7
 10
-0.0808861590277208
 20
0.2332880934026721
 30
0.0
 42
0.051099298962078
  0
VERTEX
  5
D4C
  8
ASHADE
  6
CONTINUOUS
 62
     7
 10
0.0
 20
0.225
 30
0.0
 42
0.0510992989620778
  0
VERTEX
  5
D4D
  8
ASHADE
  6
CONTINUOUS
 62
     7
 10
0.0808861590277208
 20
0.233288093402672
 30
0.0
 42
0.064948101650289
  0
VERTEX
  5
D4E
  8
ASHADE
  6
CONTINUOUS
 62
     7
 10
0.1414213562373094
 20
0.2542893218813452
 30
0.0
 42
0.1042029417664264
  0
VERTEX
  5
D4F
  8
ASHADE
  6
CONTINUOUS
 62
     7
 10
0.1877908796552008
 20
0.2911242951085142
 30
0.0
 42
0.1747045211890327
  0
VERTEX
  5
D50
  8
ASHADE
  6
CONTINUOUS
 62
     7
 10
0.2
 20
0.325
 30
0.0
 42
0.174704521189033
  0
VERTEX
  5
D51
  8
ASHADE
  6
CONTINUOUS
 62
     7
 10
0.1877908796552007
 20
0.358875704891486
 30
0.0
 42
0.1042029417664256
  0
VERTEX
  5
D52
  8
ASHADE
  6
CONTINUOUS
 62
     7
 10
0.1414213562373094
 20
0.3957106781186547
 30
0.0
 42
0.0649481016502894
  0
VERTEX
  5
D53
  8
ASHADE
  6
CONTINUOUS
 62
     7
 10
0.0808861590277205
 20
0.4167119065973279
 30
0.0
 42
0.0510992989620781
  0
SEQEND
  5
D58
  8
ASHADE
  6
CONTINUOUS
 62
     7
  0
LINE
  5
C51
  8
ASHADE
  6
CONTINUOUS
 62
     7
 10
-0.2000000000000001
 20
0.2131399482633148
 30
0.0000000000000005
 11
-0.2000000000000001
 21
0.325
 31
0.0000000000000005
  0
LINE
  5
C52
  8
ASHADE
  6
CONTINUOUS
 62
     7
 10
0.2
 20
0.3250000000000001
 30
0.0
 11
0.2000000000000001
 21
0.08
 31
0.0
  0
ENDBLK
  5
C53
  8
0
  0
ENDSEC
  0
SECTION
  2
ENTITIES
  0
POLYLINE
  5
15F
  8
0
  6
BYBLOCK
 62
   251
 66
     1
 10
0.0
 20
0.0
 30
0.0
 70
    64
 71
   180
 72
   268
1001
AVE_FINISH
1002
{
1070
     0
1005
C6D
1002
}
1001
AVE_ENTITY_MATERIAL
1002
{
1000

1002
{
1071
        0
1070
     0
1070
     0
1002
{
1070
     0
1070
     0
1070
     0
1040
0.0
1002
}
1070
     0
1070
     0
1002
{
1002
}
1002
}
1002
{
1002
}
1002
{
1002
}
1011
-0.0582394865512848
1021
0.0
1031
-0.0010894877813756
1021
0.0
1031
-0.0010894877813756
1011
-0.0328394865512848
1021
0.0
1031
-0.0010894877813756
1021
0.0
1031
-0.0010894877813756
1011
-0.0582394865512848
1021
0.0254
1031
-0.0010894877813756
1021
0.0254
1031
-0.0010894877813756
1011
-0.0582394865512848
1021
0.0
1031
0.0243105122186244
1021
0.0
1031
0.0243105122186244
1002
}
  0
VERTEX
  5
160
  8
0
 10
-0.2614394865512848
 20
0.1905
 30
0.1894105122186243
 70
   192
  0
VERTEX
  5
161
  8
0
 10
-0.310744519662857
 20
0.1840088748931885
 30
0.1894105122186243
 70
   192
  0
VERTEX
  5
162
  8
0
 10
-0.2614394865512848
 20
0.1905
 30
0.2148105122186243
 70
   192
  0
VERTEX
  5
163
  8
0
 10
-0.310744519662857
 20
0.1840088748931885
 30
0.2148105122186243
 70
   192
  0
VERTEX
  5
164
  8
0
 10
-0.3566894865512848
 20
0.164977841758728
 30
0.1894105122186243
 70
   192
  0
VERTEX
  5
165
  8
0
 10
-0.3566894865512848
 20
0.164977841758728
 30
0.2148105122186243
 70
   192
  0
VERTEX
  5
166
  8
0
 10
-0.396143328332901
 20
0.1347038417816162
 30
0.1894105122186243
 70
   192
  0
VERTEX
  5
167
  8
0
 10
-0.396143328332901
 20
0.1347038417816162
 30
0.2148105122186243
 70
   192
  0
VERTEX
  5
168
  8
0
 10
-0.4264173283100128
 20
0.09525
 30
0.1894105122186243
 70
   192
  0
VERTEX
  5
169
  8
0
 10
-0.4264173283100128
 20
0.09525
 30
0.2148105122186243
 70
   192
  0
VERTEX
  5
16A
  8
0
 10
-0.4454483614444733
 20
0.0493050270557404
 30
0.1894105122186243
 70
   192
  0
VERTEX
  5
16B
  8
0
 10
-0.4454483614444733
 20
0.0493050270557404
 30
0.2148105122186243
 70
   192
  0
VERTEX
  5
16C
  8
0
 10
-0.4519394865512848
 20
0.0000000000000004
 30
0.1894105122186243
 70
   192
  0
VERTEX
  5
16D
  8
0
 10
-0.4519394865512848
 20
0.0000000000000004
 30
0.2148105122186243
 70
   192
  0
VERTEX
  5
16E
  8
0
 10
-0.4454483614444733
 20
-0.0493050270557404
 30
0.1894105122186243
 70
   192
  0
VERTEX
  5
16F
  8
0
 10
-0.4454483614444733
 20
-0.0493050270557404
 30
0.2148105122186243
 70
   192
  0
VERTEX
  5
170
  8
0
 10
-0.4264173283100128
 20
-0.09525
 30
0.1894105122186243
 70
   192
  0
VERTEX
  5
171
  8
0
 10
-0.4264173283100128
 20
-0.09525
 30
0.2148105122186243
 70
   192
  0
VERTEX
  5
172
  8
0
 10
-0.396143328332901
 20
-0.1347038417816162
 30
0.1894105122186243
 70
   192
  0
VERTEX
  5
173
  8
0
 10
-0.396143328332901
 20
-0.1347038417816162
 30
0.2148105122186243
 70
   192
  0
VERTEX
  5
174
  8
0
 10
-0.3566894865512848
 20
-0.164977841758728
 30
0.1894105122186243
 70
   192
  0
VERTEX
  5
175
  8
0
 10
-0.3566894865512848
 20
-0.164977841758728
 30
0.2148105122186243
 70
   192
  0
VERTEX
  5
176
  8
0
 10
-0.310744519662857
 20
-0.1840088748931885
 30
0.1894105122186243
 70
   192
  0
VERTEX
  5
177
  8
0
 10
-0.310744519662857
 20
-0.1840088748931885
 30
0.2148105122186243
 70
   192
  0
VERTEX
  5
178
  8
0
 10
-0.2614394865512848
 20
-0.1905
 30
0.1894105122186243
 70
   192
  0
VERTEX
  5
179
  8
0
 10
-0.2614394865512848
 20
-0.1905
 30
0.2148105122186243
 70
   192
  0
VERTEX
  5
17A
  8
0
 10
-0.2121344534397125
 20
-0.1840088748931885
 30
0.1894105122186243
 70
   192
  0
VERTEX
  5
17B
  8
0
 10
-0.2121344534397125
 20
-0.1840088748931885
 30
0.2148105122186243
 70
   192
  0
VERTEX
  5
17C
  8
0
 10
-0.1661894865512848
 20
-0.164977841758728
 30
0.1894105122186243
 70
   192
  0
VERTEX
  5
17D
  8
0
 10
-0.1661894865512848
 20
-0.164977841758728
 30
0.2148105122186243
 70
   192
  0
VERTEX
  5
17E
  8
0
 10
-0.1267356447696686
 20
-0.1347038417816162
 30
0.1894105122186243
 70
   192
  0
VERTEX
  5
17F
  8
0
 10
-0.1267356447696686
 20
-0.1347038417816162
 30
0.2148105122186243
 70
   192
  0
VERTEX
  5
180
  8
0
 10
-0.0964616478204727
 20
-0.09525
 30
0.1894105122186243
 70
   192
  0
VERTEX
  5
181
  8
0
 10
-0.0964616478204727
 20
-0.09525
 30
0.2148105122186243
 70
   192
  0
VERTEX
  5
182
  8
0
 10
-0.0774306161999702
 20
-0.0493050270557404
 30
0.1894105122186243
 70
   192
  0
VERTEX
  5
183
  8
0
 10
-0.0774306161999702
 20
-0.0493050270557404
 30
0.2148105122186243
 70
   192
  0
VERTEX
  5
184
  8
0
 10
-0.0709394865512848
 20
0.0000000000000014
 30
0.1894105122186243
 70
   192
  0
VERTEX
  5
185
  8
0
 10
-0.0709394865512848
 20
0.0000000000000014
 30
0.2148105122186243
 70
   192
  0
VERTEX
  5
186
  8
0
 10
-0.0774306161999702
 20
0.0493050270557404
 30
0.1894105122186243
 70
   192
  0
VERTEX
  5
187
  8
0
 10
-0.0774306161999702
 20
0.0493050270557404
 30
0.2148105122186243
 70
   192
  0
VERTEX
  5
188
  8
0
 10
-0.0964616478204727
 20
0.09525
 30
0.1894105122186243
 70
   192
  0
VERTEX
  5
189
  8
0
 10
-0.0964616478204727
 20
0.09525
 30
0.2148105122186243
 70
   192
  0
VERTEX
  5
18A
  8
0
 10
-0.1267356447696686
 20
0.1347038417816162
 30
0.1894105122186243
 70
   192
  0
VERTEX
  5
18B
  8
0
 10
-0.1267356447696686
 20
0.1347038417816162
 30
0.2148105122186243
 70
   192
  0
VERTEX
  5
18C
  8
0
 10
-0.1661894865512848
 20
0.164977841758728
 30
0.1894105122186243
 70
   192
  0
VERTEX
  5
18D
  8
0
 10
-0.1661894865512848
 20
0.164977841758728
 30
0.2148105122186243
 70
   192
  0
VERTEX
  5
18E
  8
0
 10
-0.2121344534397125
 20
0.1840088748931885
 30
0.1894105122186243
 70
   192
  0
VERTEX
  5
18F
  8
0
 10
-0.2121344534397125
 20
0.1840088748931885
 30
0.2148105122186243
 70
   192
  0
VERTEX
  5
190
  8
0
 10
-0.2360394865512848
 20
0.0
 30
0.3926105122186244
 70
   192
  0
VERTEX
  5
191
  8
0
 10
-0.2614394865512848
 20
0.0
 30
0.3926105122186244
 70
   192
  0
VERTEX
  5
192
  8
0
 10
-0.2369049739360809
 20
0.0065740037083626
 30
0.3926105122186244
 70
   192
  0
VERTEX
  5
193
  8
0
 10
-0.2614394865512848
 20
0.0
 30
0.6974105122186244
 70
   192
  0
VERTEX
  5
194
  8
0
 10
-0.2360394865512848
 20
-0.0000000000000001
 30
0.6974105122186244
 70
   192
  0
VERTEX
  5
195
  8
0
 10
-0.2369049739360809
 20
0.0065740037083626
 30
0.6974105122186244
 70
   192
  0
VERTEX
  5
196
  8
0
 10
-0.2394424401760101
 20
0.0127
 30
0.3926105122186244
 70
   192
  0
VERTEX
  5
197
  8
0
 10
-0.2394424401760101
 20
0.0127
 30
0.6974105122186244
 70
   192
  0
VERTEX
  5
198
  8
0
 10
-0.2434789791584015
 20
0.0179605119347572
 30
0.3926105122186244
 70
   192
  0
VERTEX
  5
199
  8
0
 10
-0.2434789791584015
 20
0.0179605119347572
 30
0.6974105122186244
 70
   192
  0
VERTEX
  5
19A
  8
0
 10
-0.2487394865512848
 20
0.0219970448613167
 30
0.3926105122186244
 70
   192
  0
VERTEX
  5
19B
  8
0
 10
-0.2487394865512848
 20
0.0219970448613167
 30
0.6974105122186244
 70
   192
  0
VERTEX
  5
19C
  8
0
 10
-0.2548654813289642
 20
0.0245345156431198
 30
0.3926105122186244
 70
   192
  0
VERTEX
  5
19D
  8
0
 10
-0.2548654813289642
 20
0.0245345156431198
 30
0.6974105122186244
 70
   192
  0
VERTEX
  5
19E
  8
0
 10
-0.2614394865512848
 20
0.0254
 30
0.3926105122186244
 70
   192
  0
VERTEX
  5
19F
  8
0
 10
-0.2614394865512848
 20
0.0254
 30
0.6974105122186244
 70
   192
  0
VERTEX
  5
1A0
  8
0
 10
-0.2680134796619415
 20
0.0245345156431198
 30
0.3926105122186244
 70
   192
  0
VERTEX
  5
1A1
  8
0
 10
-0.2680134796619415
 20
0.0245345156431198
 30
0.6974105122186244
 70
   192
  0
VERTEX
  5
1A2
  8
0
 10
-0.2741394865512848
 20
0.0219970448613167
 30
0.3926105122186244
 70
   192
  0
VERTEX
  5
1A3
  8
0
 10
-0.2741394865512848
 20
0.0219970448613167
 30
0.6974105122186244
 70
   192
  0
VERTEX
  5
1A4
  8
0
 10
-0.2793999939441681
 20
0.0179605119347572
 30
0.3926105122186244
 70
   192
  0
VERTEX
  5
1A5
  8
0
 10
-0.2793999939441681
 20
0.0179605119347572
 30
0.6974105122186244
 70
   192
  0
VERTEX
  5
1A6
  8
0
 10
-0.2834365208148956
 20
0.0127
 30
0.3926105122186244
 70
   192
  0
VERTEX
  5
1A7
  8
0
 10
-0.2834365208148956
 20
0.0127
 30
0.6974105122186244
 70
   192
  0
VERTEX
  5
1A8
  8
0
 10
-0.2859740112781525
 20
0.0065740037083626
 30
0.3926105122186244
 70
   192
  0
VERTEX
  5
1A9
  8
0
 10
-0.2859740112781525
 20
0.0065740037083626
 30
0.6974105122186244
 70
   192
  0
VERTEX
  5
1AA
  8
0
 10
-0.2868394865512848
 20
0.0
 30
0.3926105122186244
 70
   192
  0
VERTEX
  5
1AB
  8
0
 10
-0.2868394865512848
 20
0.0
 30
0.6974105122186244
 70
   192
  0
VERTEX
  5
1AC
  8
0
 10
-0.2859740112781525
 20
-0.0065740037083626
 30
0.3926105122186244
 70
   192
  0
VERTEX
  5
1AD
  8
0
 10
-0.2859740112781525
 20
-0.0065740037083626
 30
0.6974105122186244
 70
   192
  0
VERTEX
  5
1AE
  8
0
 10
-0.2834365208148956
 20
-0.0127
 30
0.3926105122186244
 70
   192
  0
VERTEX
  5
1AF
  8
0
 10
-0.2834365208148956
 20
-0.0127
 30
0.6974105122186244
 70
   192
  0
VERTEX
  5
1B0
  8
0
 10
-0.2793999939441681
 20
-0.0179605119347572
 30
0.3926105122186244
 70
   192
  0
VERTEX
  5
1B1
  8
0
 10
-0.2793999939441681
 20
-0.0179605119347572
 30
0.6974105122186244
 70
   192
  0
VERTEX
  5
1B2
  8
0
 10
-0.2741394865512848
 20
-0.0219970448613167
 30
0.3926105122186244
 70
   192
  0
VERTEX
  5
1B3
  8
0
 10
-0.2741394865512848
 20
-0.0219970448613167
 30
0.6974105122186244
 70
   192
  0
VERTEX
  5
1B4
  8
0
 10
-0.2680134796619415
 20
-0.0245345156431198
 30
0.3926105122186244
 70
   192
  0
VERTEX
  5
1B5
  8
0
 10
-0.2680134796619415
 20
-0.0245345156431198
 30
0.6974105122186244
 70
   192
  0
VERTEX
  5
1B6
  8
0
 10
-0.2614394865512848
 20
-0.0254
 30
0.3926105122186244
 70
   192
  0
VERTEX
  5
1B7
  8
0
 10
-0.2614394865512848
 20
-0.0254
 30
0.6974105122186244
 70
   192
  0
VERTEX
  5
1B8
  8
0
 10
-0.2548654813289642
 20
-0.0245345156431198
 30
0.3926105122186244
 70
   192
  0
VERTEX
  5
1B9
  8
0
 10
-0.2548654813289642
 20
-0.0245345156431198
 30
0.6974105122186244
 70
   192
  0
VERTEX
  5
1BA
  8
0
 10
-0.2487394865512848
 20
-0.0219970448613167
 30
0.3926105122186244
 70
   192
  0
VERTEX
  5
1BB
  8
0
 10
-0.2487394865512848
 20
-0.0219970448613167
 30
0.6974105122186244
 70
   192
  0
VERTEX
  5
1BC
  8
0
 10
-0.2434789791584015
 20
-0.0179605119347572
 30
0.3926105122186244
 70
   192
  0
VERTEX
  5
1BD
  8
0
 10
-0.2434789791584015
 20
-0.0179605119347572
 30
0.6974105122186244
 70
   192
  0
VERTEX
  5
1BE
  8
0
 10
-0.2394424401760101
 20
-0.0127
 30
0.3926105122186244
 70
   192
  0
VERTEX
  5
1BF
  8
0
 10
-0.2394424401760101
 20
-0.0127
 30
0.6974105122186244
 70
   192
  0
VERTEX
  5
1C0
  8
0
 10
-0.2369049739360809
 20
-0.0065740037083626
 30
0.3926105122186244
 70
   192
  0
VERTEX
  5
1C1
  8
0
 10
-0.2369049739360809
 20
-0.0065740037083626
 30
0.6974105122186244
 70
   192
  0
VERTEX
  5
1C2
  8
0
 10
-0.2233394865512848
 20
0.0
 30
0.0878105122186243
 70
   192
  0
VERTEX
  5
1C3
  8
0
 10
-0.2614394865512848
 20
0.0
 30
0.0878105122186243
 70
   192
  0
VERTEX
  5
1C4
  8
0
 10
-0.2246377115726471
 20
0.0098610055625439
 30
0.0878105122186243
 70
   192
  0
VERTEX
  5
1C5
  8
0
 10
-0.2233394865512848
 20
-0.0000000000000001
 30
0.3926105122186244
 70
   192
  0
VERTEX
  5
1C6
  8
0
 10
-0.2246377115726471
 20
0.0098610055625439
 30
0.3926105122186244
 70
   192
  0
VERTEX
  5
1C7
  8
0
 10
-0.2284439230442047
 20
0.01905
 30
0.0878105122186243
 70
   192
  0
VERTEX
  5
1C8
  8
0
 10
-0.2284439230442047
 20
0.01905
 30
0.3926105122186244
 70
   192
  0
VERTEX
  5
1C9
  8
0
 10
-0.234498713350296
 20
0.0269407671451569
 30
0.0878105122186243
 70
   192
  0
VERTEX
  5
1CA
  8
0
 10
-0.234498713350296
 20
0.0269407671451569
 30
0.3926105122186244
 70
   192
  0
VERTEX
  5
1CB
  8
0
 10
-0.2423894865512848
 20
0.032995566534996
 30
0.0878105122186243
 70
   192
  0
VERTEX
  5
1CC
  8
0
 10
-0.2423894865512848
 20
0.032995566534996
 30
0.3926105122186244
 70
   192
  0
VERTEX
  5
1CD
  8
0
 10
-0.2515784847736359
 20
0.0368017749786377
 30
0.0878105122186243
 70
   192
  0
VERTEX
  5
1CE
  8
0
 10
-0.2515784847736359
 20
0.0368017749786377
 30
0.3926105122186244
 70
   192
  0
VERTEX
  5
1CF
  8
0
 10
-0.2614394865512848
 20
0.0381
 30
0.0878105122186243
 70
   192
  0
VERTEX
  5
1D0
  8
0
 10
-0.2614394865512848
 20
0.0381
 30
0.3926105122186244
 70
   192
  0
VERTEX
  5
1D1
  8
0
 10
-0.2713004883289337
 20
0.0368017749786377
 30
0.0878105122186243
 70
   192
  0
VERTEX
  5
1D2
  8
0
 10
-0.2713004883289337
 20
0.0368017749786377
 30
0.3926105122186244
 70
   192
  0
VERTEX
  5
1D3
  8
0
 10
-0.2804894865512848
 20
0.032995566534996
 30
0.0878105122186243
 70
   192
  0
VERTEX
  5
1D4
  8
0
 10
-0.2804894865512848
 20
0.032995566534996
 30
0.3926105122186244
 70
   192
  0
VERTEX
  5
1D5
  8
0
 10
-0.2883802597522735
 20
0.0269407671451569
 30
0.0878105122186243
 70
   192
  0
VERTEX
  5
1D6
  8
0
 10
-0.2883802597522735
 20
0.0269407671451569
 30
0.3926105122186244
 70
   192
  0
VERTEX
  5
1D7
  8
0
 10
-0.2944350500583648
 20
0.01905
 30
0.0878105122186243
 70
   192
  0
VERTEX
  5
1D8
  8
0
 10
-0.2944350500583648
 20
0.01905
 30
0.3926105122186244
 70
   192
  0
VERTEX
  5
1D9
  8
0
 10
-0.2982412615299225
 20
0.0098610055625439
 30
0.0878105122186243
 70
   192
  0
VERTEX
  5
1DA
  8
0
 10
-0.2982412615299225
 20
0.0098610055625439
 30
0.3926105122186244
 70
   192
  0
VERTEX
  5
1DB
  8
0
 10
-0.2995394865512848
 20
0.0
 30
0.0878105122186243
 70
   192
  0
VERTEX
  5
1DC
  8
0
 10
-0.2995394865512848
 20
0.0
 30
0.3926105122186244
 70
   192
  0
VERTEX
  5
1DD
  8
0
 10
-0.2982412615299225
 20
-0.0098610055625439
 30
0.0878105122186243
 70
   192
  0
VERTEX
  5
1DE
  8
0
 10
-0.2982412615299225
 20
-0.0098610055625439
 30
0.3926105122186244
 70
   192
  0
VERTEX
  5
1DF
  8
0
 10
-0.2944350500583648
 20
-0.01905
 30
0.0878105122186243
 70
   192
  0
VERTEX
  5
1E0
  8
0
 10
-0.2944350500583648
 20
-0.01905
 30
0.3926105122186244
 70
   192
  0
VERTEX
  5
1E1
  8
0
 10
-0.2883802597522735
 20
-0.0269407671451569
 30
0.0878105122186243
 70
   192
  0
VERTEX
  5
1E2
  8
0
 10
-0.2883802597522735
 20
-0.0269407671451569
 30
0.3926105122186244
 70
   192
  0
VERTEX
  5
1E3
  8
0
 10
-0.2804894865512848
 20
-0.032995566534996
 30
0.0878105122186243
 70
   192
  0
VERTEX
  5
1E4
  8
0
 10
-0.2804894865512848
 20
-0.032995566534996
 30
0.3926105122186244
 70
   192
  0
VERTEX
  5
1E5
  8
0
 10
-0.2713004883289337
 20
-0.0368017749786377
 30
0.0878105122186243
 70
   192
  0
VERTEX
  5
1E6
  8
0
 10
-0.2713004883289337
 20
-0.0368017749786377
 30
0.3926105122186244
 70
   192
  0
VERTEX
  5
1E7
  8
0
 10
-0.2614394865512848
 20
-0.0381
 30
0.0878105122186243
 70
   192
  0
VERTEX
  5
1E8
  8
0
 10
-0.2614394865512848
 20
-0.0381
 30
0.3926105122186244
 70
   192
  0
VERTEX
  5
1E9
  8
0
 10
-0.2515784847736359
 20
-0.0368017749786377
 30
0.0878105122186243
 70
   192
  0
VERTEX
  5
1EA
  8
0
 10
-0.2515784847736359
 20
-0.0368017749786377
 30
0.3926105122186244
 70
   192
  0
VERTEX
  5
1EB
  8
0
 10
-0.2423894865512848
 20
-0.032995566534996
 30
0.0878105122186243
 70
   192
  0
VERTEX
  5
1EC
  8
0
 10
-0.2423894865512848
 20
-0.032995566534996
 30
0.3926105122186244
 70
   192
  0
VERTEX
  5
1ED
  8
0
 10
-0.234498713350296
 20
-0.0269407671451569
 30
0.0878105122186243
 70
   192
  0
VERTEX
  5
1EE
  8
0
 10
-0.234498713350296
 20
-0.0269407671451569
 30
0.3926105122186244
 70
   192
  0
VERTEX
  5
1EF
  8
0
 10
-0.2284439230442047
 20
-0.01905
 30
0.0878105122186243
 70
   192
  0
VERTEX
  5
1F0
  8
0
 10
-0.2284439230442047
 20
-0.01905
 30
0.3926105122186244
 70
   192
  0
VERTEX
  5
1F1
  8
0
 10
-0.2246377115726471
 20
-0.0098610055625439
 30
0.0878105122186243
 70
   192
  0
VERTEX
  5
1F2
  8
0
 10
-0.2246377115726471
 20
-0.0098610055625439
 30
0.3926105122186244
 70
   192
  0
VERTEX
  5
1F3
  8
0
 10
0.0052605134487152
 20
0.0
 30
0.0751105122186243
 70
   192
  0
VERTEX
  5
1F4
  8
0
 10
0.0052605134487152
 20
0.0
 30
0.1132105122186244
 70
   192
  0
VERTEX
  5
1F5
  8
0
 10
-0.2360394865512848
 20
-0.0254
 30
0.0878105122186243
 70
   192
  0
VERTEX
  5
1F6
  8
0
 10
-0.2360394865512848
 20
0.0
 30
0.1513105122186243
 70
   192
  0
VERTEX
  5
1F7
  8
0
 10
-0.2360394865512848
 20
0.0254
 30
0.0878105122186243
 70
   192
  0
VERTEX
  5
1F8
  8
0
 10
-0.1790246527194977
 20
0.2536467754364014
 30
0.1132105122186244
 70
   192
  0
VERTEX
  5
1F9
  8
0
 10
-0.1790246527194977
 20
0.2536467754364014
 30
0.0751105122186243
 70
   192
  0
VERTEX
  5
1FA
  8
0
 10
-0.2777472847461701
 20
0.0320058679819107
 30
0.0878105122186243
 70
   192
  0
VERTEX
  5
1FB
  8
0
 10
-0.2535904501438141
 20
0.0241568361163139
 30
0.1513105122186243
 70
   192
  0
VERTEX
  5
1FC
  8
0
 10
-0.2294336155414581
 20
0.0163078042507172
 30
0.0878105122186243
 70
   192
  0
VERTEX
  5
1FD
  8
0
 10
-0.4772043203830719
 20
0.1567623306274414
 30
0.1132105122186244
 70
   192
  0
VERTEX
  5
1FE
  8
0
 10
-0.4772043203830719
 20
0.1567623306274414
 30
0.0751105122186243
 70
   192
  0
VERTEX
  5
1FF
  8
0
 10
-0.2969182560443878
 20
-0.0056192862898111
 30
0.0878105122186243
 70
   192
  0
VERTEX
  5
200
  8
0
 10
-0.2819885229587555
 20
0.0149297451972961
 30
0.1513105122186243
 70
   192
  0
VERTEX
  5
201
  8
0
 10
-0.2670587656497955
 20
0.0354787785768509
 30
0.0878105122186243
 70
   192
  0
VERTEX
  5
202
  8
0
 10
-0.4772043203830719
 20
-0.1567623306274414
 30
0.1132105122186244
 70
   192
  0
VERTEX
  5
203
  8
0
 10
-0.4772043203830719
 20
-0.1567623306274414
 30
0.0751105122186243
 70
   192
  0
VERTEX
  5
204
  8
0
 10
-0.2670587656497955
 20
-0.0354787785768509
 30
0.0878105122186243
 70
   192
  0
VERTEX
  5
205
  8
0
 10
-0.2819885229587555
 20
-0.0149297451972961
 30
0.1513105122186243
 70
   192
  0
VERTEX
  5
206
  8
0
 10
-0.2969182560443878
 20
0.0056192862898111
 30
0.0878105122186243
 70
   192
  0
VERTEX
  5
207
  8
0
 10
-0.1790246527194977
 20
-0.2536467754364014
 30
0.1132105122186244
 70
   192
  0
VERTEX
  5
208
  8
0
 10
-0.1790246527194977
 20
-0.2536467754364014
 30
0.0751105122186243
 70
   192
  0
VERTEX
  5
209
  8
0
 10
-0.2294336155414581
 20
-0.0163078042507172
 30
0.0878105122186243
 70
   192
  0
VERTEX
  5
20A
  8
0
 10
-0.2535904501438141
 20
-0.0241568361163139
 30
0.1513105122186243
 70
   192
  0
VERTEX
  5
20B
  8
0
 10
-0.2777472847461701
 20
-0.0320058679819107
 30
0.0878105122186243
 70
   192
  0
VERTEX
  5
20C
  8
0
 10
-0.2614394865512848
 20
0.0381
 30
0.2148105122186243
 70
   192
  0
VERTEX
  5
20D
  8
0
 10
-0.2614394865512848
 20
0.0381
 30
0.1894105122186243
 70
   192
  0
VERTEX
  5
20E
  8
0
 10
-0.2995394865512848
 20
-0.0000000000000014
 30
0.2148105122186243
 70
   192
  0
VERTEX
  5
20F
  8
0
 10
-0.2995394865512848
 20
-0.0000000000000014
 30
0.1894105122186243
 70
   192
  0
VERTEX
  5
210
  8
0
 10
-0.2614394865512848
 20
-0.0381
 30
0.2148105122186243
 70
   192
  0
VERTEX
  5
211
  8
0
 10
-0.2614394865512848
 20
-0.0381
 30
0.1894105122186243
 70
   192
  0
VERTEX
  5
212
  8
0
 10
-0.2233394865512848
 20
0.0000000000000014
 30
0.2148105122186243
 70
   192
  0
VERTEX
  5
213
  8
0
 10
-0.2233394865512848
 20
0.0000000000000014
 30
0.1894105122186243
 70
   192
  0
VERTEX
  5
214
  8
0
  6
BYBLOCK
 62
   251
 10
0.0
 20
0.0
 30
0.0
 70
   128
 71
     1
 72
    -2
 73
     3
  0
VERTEX
  5
215
  8
0
  6
BYBLOCK
 62
   251
 10
0.0
 20
0.0
 30
0.0
 70
   128
 71
     2
 72
     4
 73
    -3
  0
VERTEX
  5
216
  8
0
  6
BYBLOCK
 62
   251
 10
0.0
 20
0.0
 30
0.0
 70
   128
 71
     2
 72
    -5
 73
     4
  0
VERTEX
  5
217
  8
0
  6
BYBLOCK
 62
   251
 10
0.0
 20
0.0
 30
0.0
 70
   128
 71
     5
 72
     6
 73
    -4
  0
VERTEX
  5
218
  8
0
  6
BYBLOCK
 62
   251
 10
0.0
 20
0.0
 30
0.0
 70
   128
 71
     5
 72
    -7
 73
     6
  0
VERTEX
  5
219
  8
0
  6
BYBLOCK
 62
   251
 10
0.0
 20
0.0
 30
0.0
 70
   128
 71
     7
 72
     8
 73
    -6
  0
VERTEX
  5
21A
  8
0
  6
BYBLOCK
 62
   251
 10
0.0
 20
0.0
 30
0.0
 70
   128
 71
     7
 72
    -9
 73
     8
  0
VERTEX
  5
21B
  8
0
  6
BYBLOCK
 62
   251
 10
0.0
 20
0.0
 30
0.0
 70
   128
 71
     9
 72
    10
 73
    -8
  0
VERTEX
  5
21C
  8
0
  6
BYBLOCK
 62
   251
 10
0.0
 20
0.0
 30
0.0
 70
   128
 71
     9
 72
   -11
 73
    10
  0
VERTEX
  5
21D
  8
0
  6
BYBLOCK
 62
   251
 10
0.0
 20
0.0
 30
0.0
 70
   128
 71
    11
 72
    12
 73
   -10
  0
VERTEX
  5
21E
  8
0
  6
BYBLOCK
 62
   251
 10
0.0
 20
0.0
 30
0.0
 70
   128
 71
    11
 72
   -13
 73
    12
  0
VERTEX
  5
21F
  8
0
  6
BYBLOCK
 62
   251
 10
0.0
 20
0.0
 30
0.0
 70
   128
 71
    13
 72
    14
 73
   -12
  0
VERTEX
  5
220
  8
0
  6
BYBLOCK
 62
   251
 10
0.0
 20
0.0
 30
0.0
 70
   128
 71
    13
 72
   -15
 73
    14
  0
VERTEX
  5
221
  8
0
  6
BYBLOCK
 62
   251
 10
0.0
 20
0.0
 30
0.0
 70
   128
 71
    15
 72
    16
 73
   -14
  0
VERTEX
  5
222
  8
0
  6
BYBLOCK
 62
   251
 10
0.0
 20
0.0
 30
0.0
 70
   128
 71
    15
 72
   -17
 73
    16
  0
VERTEX
  5
223
  8
0
  6
BYBLOCK
 62
   251
 10
0.0
 20
0.0
 30
0.0
 70
   128
 71
    17
 72
    18
 73
   -16
  0
VERTEX
  5
224
  8
0
  6
BYBLOCK
 62
   251
 10
0.0
 20
0.0
 30
0.0
 70
   128
 71
    17
 72
   -19
 73
    18
  0
VERTEX
  5
225
  8
0
  6
BYBLOCK
 62
   251
 10
0.0
 20
0.0
 30
0.0
 70
   128
 71
    19
 72
    20
 73
   -18
  0
VERTEX
  5
226
  8
0
  6
BYBLOCK
 62
   251
 10
0.0
 20
0.0
 30
0.0
 70
   128
 71
    19
 72
   -21
 73
    20
  0
VERTEX
  5
227
  8
0
  6
BYBLOCK
 62
   251
 10
0.0
 20
0.0
 30
0.0
 70
   128
 71
    21
 72
    22
 73
   -20
  0
VERTEX
  5
228
  8
0
  6
BYBLOCK
 62
   251
 10
0.0
 20
0.0
 30
0.0
 70
   128
 71
    21
 72
   -23
 73
    22
  0
VERTEX
  5
229
  8
0
  6
BYBLOCK
 62
   251
 10
0.0
 20
0.0
 30
0.0
 70
   128
 71
    23
 72
    24
 73
   -22
  0
VERTEX
  5
22A
  8
0
  6
BYBLOCK
 62
   251
 10
0.0
 20
0.0
 30
0.0
 70
   128
 71
    23
 72
   -25
 73
    24
  0
VERTEX
  5
22B
  8
0
  6
BYBLOCK
 62
   251
 10
0.0
 20
0.0
 30
0.0
 70
   128
 71
    25
 72
    26
 73
   -24
  0
VERTEX
  5
22C
  8
0
  6
BYBLOCK
 62
   251
 10
0.0
 20
0.0
 30
0.0
 70
   128
 71
    25
 72
   -27
 73
    26
  0
VERTEX
  5
22D
  8
0
  6
BYBLOCK
 62
   251
 10
0.0
 20
0.0
 30
0.0
 70
   128
 71
    27
 72
    28
 73
   -26
  0
VERTEX
  5
22E
  8
0
  6
BYBLOCK
 62
   251
 10
0.0
 20
0.0
 30
0.0
 70
   128
 71
    27
 72
   -29
 73
    28
  0
VERTEX
  5
22F
  8
0
  6
BYBLOCK
 62
   251
 10
0.0
 20
0.0
 30
0.0
 70
   128
 71
    29
 72
    30
 73
   -28
  0
VERTEX
  5
230
  8
0
  6
BYBLOCK
 62
   251
 10
0.0
 20
0.0
 30
0.0
 70
   128
 71
    29
 72
   -31
 73
    30
  0
VERTEX
  5
231
  8
0
  6
BYBLOCK
 62
   251
 10
0.0
 20
0.0
 30
0.0
 70
   128
 71
    31
 72
    32
 73
   -30
  0
VERTEX
  5
232
  8
0
  6
BYBLOCK
 62
   251
 10
0.0
 20
0.0
 30
0.0
 70
   128
 71
    31
 72
   -33
 73
    32
  0
VERTEX
  5
233
  8
0
  6
BYBLOCK
 62
   251
 10
0.0
 20
0.0
 30
0.0
 70
   128
 71
    33
 72
    34
 73
   -32
  0
VERTEX
  5
234
  8
0
  6
BYBLOCK
 62
   251
 10
0.0
 20
0.0
 30
0.0
 70
   128
 71
    33
 72
   -35
 73
    34
  0
VERTEX
  5
235
  8
0
  6
BYBLOCK
 62
   251
 10
0.0
 20
0.0
 30
0.0
 70
   128
 71
    35
 72
    36
 73
   -34
  0
VERTEX
  5
236
  8
0
  6
BYBLOCK
 62
   251
 10
0.0
 20
0.0
 30
0.0
 70
   128
 71
    35
 72
   -37
 73
    36
  0
VERTEX
  5
237
  8
0
  6
BYBLOCK
 62
   251
 10
0.0
 20
0.0
 30
0.0
 70
   128
 71
    37
 72
    38
 73
   -36
  0
VERTEX
  5
238
  8
0
  6
BYBLOCK
 62
   251
 10
0.0
 20
0.0
 30
0.0
 70
   128
 71
    37
 72
   -39
 73
    38
  0
VERTEX
  5
239
  8
0
  6
BYBLOCK
 62
   251
 10
0.0
 20
0.0
 30
0.0
 70
   128
 71
    39
 72
    40
 73
   -38
  0
VERTEX
  5
23A
  8
0
  6
BYBLOCK
 62
   251
 10
0.0
 20
0.0
 30
0.0
 70
   128
 71
    39
 72
   -41
 73
    40
  0
VERTEX
  5
23B
  8
0
  6
BYBLOCK
 62
   251
 10
0.0
 20
0.0
 30
0.0
 70
   128
 71
    41
 72
    42
 73
   -40
  0
VERTEX
  5
23C
  8
0
  6
BYBLOCK
 62
   251
 10
0.0
 20
0.0
 30
0.0
 70
   128
 71
    41
 72
   -43
 73
    42
  0
VERTEX
  5
23D
  8
0
  6
BYBLOCK
 62
   251
 10
0.0
 20
0.0
 30
0.0
 70
   128
 71
    43
 72
    44
 73
   -42
  0
VERTEX
  5
23E
  8
0
  6
BYBLOCK
 62
   251
 10
0.0
 20
0.0
 30
0.0
 70
   128
 71
    43
 72
   -45
 73
    44
  0
VERTEX
  5
23F
  8
0
  6
BYBLOCK
 62
   251
 10
0.0
 20
0.0
 30
0.0
 70
   128
 71
    45
 72
    46
 73
   -44
  0
VERTEX
  5
240
  8
0
  6
BYBLOCK
 62
   251
 10
0.0
 20
0.0
 30
0.0
 70
   128
 71
    45
 72
   -47
 73
    46
  0
VERTEX
  5
241
  8
0
  6
BYBLOCK
 62
   251
 10
0.0
 20
0.0
 30
0.0
 70
   128
 71
    47
 72
    48
 73
   -46
  0
VERTEX
  5
242
  8
0
  6
BYBLOCK
 62
   251
 10
0.0
 20
0.0
 30
0.0
 70
   128
 71
    47
 72
    -1
 73
    48
  0
VERTEX
  5
243
  8
0
  6
BYBLOCK
 62
   251
 10
0.0
 20
0.0
 30
0.0
 70
   128
 71
     1
 72
     3
 73
   -48
  0
VERTEX
  5
244
  8
0
  6
BYBLOCK
 62
   251
 10
0.0
 20
0.0
 30
0.0
 70
   128
 71
   -49
 72
   -50
 73
    51
  0
VERTEX
  5
245
  8
0
  6
BYBLOCK
 62
   251
 10
0.0
 20
0.0
 30
0.0
 70
   128
 71
   -52
 72
    53
 73
   -54
  0
VERTEX
  5
246
  8
0
  6
BYBLOCK
 62
   251
 10
0.0
 20
0.0
 30
0.0
 70
   128
 71
    49
 72
   -51
 73
    53
  0
VERTEX
  5
247
  8
0
  6
BYBLOCK
 62
   251
 10
0.0
 20
0.0
 30
0.0
 70
   128
 71
    51
 72
    54
 73
   -53
  0
VERTEX
  5
248
  8
0
  6
BYBLOCK
 62
   251
 10
0.0
 20
0.0
 30
0.0
 70
   128
 71
   -51
 72
   -50
 73
    55
  0
VERTEX
  5
249
  8
0
  6
BYBLOCK
 62
   251
 10
0.0
 20
0.0
 30
0.0
 70
   128
 71
   -52
 72
    54
 73
   -56
  0
VERTEX
  5
24A
  8
0
  6
BYBLOCK
 62
   251
 10
0.0
 20
0.0
 30
0.0
 70
   128
 71
    51
 72
   -55
 73
    54
  0
VERTEX
  5
24B
  8
0
  6
BYBLOCK
 62
   251
 10
0.0
 20
0.0
 30
0.0
 70
   128
 71
    55
 72
    56
 73
   -54
  0
VERTEX
  5
24C
  8
0
  6
BYBLOCK
 62
   251
 10
0.0
 20
0.0
 30
0.0
 70
   128
 71
   -55
 72
   -50
 73
    57
  0
VERTEX
  5
24D
  8
0
  6
BYBLOCK
 62
   251
 10
0.0
 20
0.0
 30
0.0
 70
   128
 71
   -52
 72
    56
 73
   -58
  0
VERTEX
  5
24E
  8
0
  6
BYBLOCK
 62
   251
 10
0.0
 20
0.0
 30
0.0
 70
   128
 71
    55
 72
   -57
 73
    56
  0
VERTEX
  5
24F
  8
0
  6
BYBLOCK
 62
   251
 10
0.0
 20
0.0
 30
0.0
 70
   128
 71
    57
 72
    58
 73
   -56
  0
VERTEX
  5
250
  8
0
  6
BYBLOCK
 62
   251
 10
0.0
 20
0.0
 30
0.0
 70
   128
 71
   -57
 72
   -50
 73
    59
  0
VERTEX
  5
251
  8
0
  6
BYBLOCK
 62
   251
 10
0.0
 20
0.0
 30
0.0
 70
   128
 71
   -52
 72
    58
 73
   -60
  0
VERTEX
  5
252
  8
0
  6
BYBLOCK
 62
   251
 10
0.0
 20
0.0
 30
0.0
 70
   128
 71
    57
 72
   -59
 73
    58
  0
VERTEX
  5
253
  8
0
  6
BYBLOCK
 62
   251
 10
0.0
 20
0.0
 30
0.0
 70
   128
 71
    59
 72
    60
 73
   -58
  0
VERTEX
  5
254
  8
0
  6
BYBLOCK
 62
   251
 10
0.0
 20
0.0
 30
0.0
 70
   128
 71
   -59
 72
   -50
 73
    61
  0
VERTEX
  5
255
  8
0
  6
BYBLOCK
 62
   251
 10
0.0
 20
0.0
 30
0.0
 70
   128
 71
   -52
 72
    60
 73
   -62
  0
VERTEX
  5
256
  8
0
  6
BYBLOCK
 62
   251
 10
0.0
 20
0.0
 30
0.0
 70
   128
 71
    59
 72
   -61
 73
    60
  0
VERTEX
  5
257
  8
0
  6
BYBLOCK
 62
   251
 10
0.0
 20
0.0
 30
0.0
 70
   128
 71
    61
 72
    62
 73
   -60
  0
VERTEX
  5
258
  8
0
  6
BYBLOCK
 62
   251
 10
0.0
 20
0.0
 30
0.0
 70
   128
 71
   -61
 72
   -50
 73
    63
  0
VERTEX
  5
259
  8
0
  6
BYBLOCK
 62
   251
 10
0.0
 20
0.0
 30
0.0
 70
   128
 71
   -52
 72
    62
 73
   -64
  0
VERTEX
  5
25A
  8
0
  6
BYBLOCK
 62
   251
 10
0.0
 20
0.0
 30
0.0
 70
   128
 71
    61
 72
   -63
 73
    62
  0
VERTEX
  5
25B
  8
0
  6
BYBLOCK
 62
   251
 10
0.0
 20
0.0
 30
0.0
 70
   128
 71
    63
 72
    64
 73
   -62
  0
VERTEX
  5
25C
  8
0
  6
BYBLOCK
 62
   251
 10
0.0
 20
0.0
 30
0.0
 70
   128
 71
   -63
 72
   -50
 73
    65
  0
VERTEX
  5
25D
  8
0
  6
BYBLOCK
 62
   251
 10
0.0
 20
0.0
 30
0.0
 70
   128
 71
   -52
 72
    64
 73
   -66
  0
VERTEX
  5
25E
  8
0
  6
BYBLOCK
 62
   251
 10
0.0
 20
0.0
 30
0.0
 70
   128
 71
    63
 72
   -65
 73
    64
  0
VERTEX
  5
25F
  8
0
  6
BYBLOCK
 62
   251
 10
0.0
 20
0.0
 30
0.0
 70
   128
 71
    65
 72
    66
 73
   -64
  0
VERTEX
  5
260
  8
0
  6
BYBLOCK
 62
   251
 10
0.0
 20
0.0
 30
0.0
 70
   128
 71
   -65
 72
   -50
 73
    67
  0
VERTEX
  5
261
  8
0
  6
BYBLOCK
 62
   251
 10
0.0
 20
0.0
 30
0.0
 70
   128
 71
   -52
 72
    66
 73
   -68
  0
VERTEX
  5
262
  8
0
  6
BYBLOCK
 62
   251
 10
0.0
 20
0.0
 30
0.0
 70
   128
 71
    65
 72
   -67
 73
    66
  0
VERTEX
  5
263
  8
0
  6
BYBLOCK
 62
   251
 10
0.0
 20
0.0
 30
0.0
 70
   128
 71
    67
 72
    68
 73
   -66
  0
VERTEX
  5
264
  8
0
  6
BYBLOCK
 62
   251
 10
0.0
 20
0.0
 30
0.0
 70
   128
 71
   -67
 72
   -50
 73
    69
  0
VERTEX
  5
265
  8
0
  6
BYBLOCK
 62
   251
 10
0.0
 20
0.0
 30
0.0
 70
   128
 71
   -52
 72
    68
 73
   -70
  0
VERTEX
  5
266
  8
0
  6
BYBLOCK
 62
   251
 10
0.0
 20
0.0
 30
0.0
 70
   128
 71
    67
 72
   -69
 73
    68
  0
VERTEX
  5
267
  8
0
  6
BYBLOCK
 62
   251
 10
0.0
 20
0.0
 30
0.0
 70
   128
 71
    69
 72
    70
 73
   -68
  0
VERTEX
  5
268
  8
0
  6
BYBLOCK
 62
   251
 10
0.0
 20
0.0
 30
0.0
 70
   128
 71
   -69
 72
   -50
 73
    71
  0
VERTEX
  5
269
  8
0
  6
BYBLOCK
 62
   251
 10
0.0
 20
0.0
 30
0.0
 70
   128
 71
   -52
 72
    70
 73
   -72
  0
VERTEX
  5
26A
  8
0
  6
BYBLOCK
 62
   251
 10
0.0
 20
0.0
 30
0.0
 70
   128
 71
    69
 72
   -71
 73
    70
  0
VERTEX
  5
26B
  8
0
  6
BYBLOCK
 62
   251
 10
0.0
 20
0.0
 30
0.0
 70
   128
 71
    71
 72
    72
 73
   -70
  0
VERTEX
  5
26C
  8
0
  6
BYBLOCK
 62
   251
 10
0.0
 20
0.0
 30
0.0
 70
   128
 71
   -71
 72
   -50
 73
    73
  0
VERTEX
  5
26D
  8
0
  6
BYBLOCK
 62
   251
 10
0.0
 20
0.0
 30
0.0
 70
   128
 71
   -52
 72
    72
 73
   -74
  0
VERTEX
  5
26E
  8
0
  6
BYBLOCK
 62
   251
 10
0.0
 20
0.0
 30
0.0
 70
   128
 71
    71
 72
   -73
 73
    72
  0
VERTEX
  5
26F
  8
0
  6
BYBLOCK
 62
   251
 10
0.0
 20
0.0
 30
0.0
 70
   128
 71
    73
 72
    74
 73
   -72
  0
VERTEX
  5
270
  8
0
  6
BYBLOCK
 62
   251
 10
0.0
 20
0.0
 30
0.0
 70
   128
 71
   -73
 72
   -50
 73
    75
  0
VERTEX
  5
271
  8
0
  6
BYBLOCK
 62
   251
 10
0.0
 20
0.0
 30
0.0
 70
   128
 71
   -52
 72
    74
 73
   -76
  0
VERTEX
  5
272
  8
0
  6
BYBLOCK
 62
   251
 10
0.0
 20
0.0
 30
0.0
 70
   128
 71
    73
 72
   -75
 73
    74
  0
VERTEX
  5
273
  8
0
  6
BYBLOCK
 62
   251
 10
0.0
 20
0.0
 30
0.0
 70
   128
 71
    75
 72
    76
 73
   -74
  0
VERTEX
  5
274
  8
0
  6
BYBLOCK
 62
   251
 10
0.0
 20
0.0
 30
0.0
 70
   128
 71
   -75
 72
   -50
 73
    77
  0
VERTEX
  5
275
  8
0
  6
BYBLOCK
 62
   251
 10
0.0
 20
0.0
 30
0.0
 70
   128
 71
   -52
 72
    76
 73
   -78
  0
VERTEX
  5
276
  8
0
  6
BYBLOCK
 62
   251
 10
0.0
 20
0.0
 30
0.0
 70
   128
 71
    75
 72
   -77
 73
    76
  0
VERTEX
  5
277
  8
0
  6
BYBLOCK
 62
   251
 10
0.0
 20
0.0
 30
0.0
 70
   128
 71
    77
 72
    78
 73
   -76
  0
VERTEX
  5
278
  8
0
  6
BYBLOCK
 62
   251
 10
0.0
 20
0.0
 30
0.0
 70
   128
 71
   -77
 72
   -50
 73
    79
  0
VERTEX
  5
279
  8
0
  6
BYBLOCK
 62
   251
 10
0.0
 20
0.0
 30
0.0
 70
   128
 71
   -52
 72
    78
 73
   -80
  0
VERTEX
  5
27A
  8
0
  6
BYBLOCK
 62
   251
 10
0.0
 20
0.0
 30
0.0
 70
   128
 71
    77
 72
   -79
 73
    78
  0
VERTEX
  5
27B
  8
0
  6
BYBLOCK
 62
   251
 10
0.0
 20
0.0
 30
0.0
 70
   128
 71
    79
 72
    80
 73
   -78
  0
VERTEX
  5
27C
  8
0
  6
BYBLOCK
 62
   251
 10
0.0
 20
0.0
 30
0.0
 70
   128
 71
   -79
 72
   -50
 73
    81
  0
VERTEX
  5
27D
  8
0
  6
BYBLOCK
 62
   251
 10
0.0
 20
0.0
 30
0.0
 70
   128
 71
   -52
 72
    80
 73
   -82
  0
VERTEX
  5
27E
  8
0
  6
BYBLOCK
 62
   251
 10
0.0
 20
0.0
 30
0.0
 70
   128
 71
    79
 72
   -81
 73
    80
  0
VERTEX
  5
27F
  8
0
  6
BYBLOCK
 62
   251
 10
0.0
 20
0.0
 30
0.0
 70
   128
 71
    81
 72
    82
 73
   -80
  0
VERTEX
  5
280
  8
0
  6
BYBLOCK
 62
   251
 10
0.0
 20
0.0
 30
0.0
 70
   128
 71
   -81
 72
   -50
 73
    83
  0
VERTEX
  5
281
  8
0
  6
BYBLOCK
 62
   251
 10
0.0
 20
0.0
 30
0.0
 70
   128
 71
   -52
 72
    82
 73
   -84
  0
VERTEX
  5
282
  8
0
  6
BYBLOCK
 62
   251
 10
0.0
 20
0.0
 30
0.0
 70
   128
 71
    81
 72
   -83
 73
    82
  0
VERTEX
  5
283
  8
0
  6
BYBLOCK
 62
   251
 10
0.0
 20
0.0
 30
0.0
 70
   128
 71
    83
 72
    84
 73
   -82
  0
VERTEX
  5
284
  8
0
  6
BYBLOCK
 62
   251
 10
0.0
 20
0.0
 30
0.0
 70
   128
 71
   -83
 72
   -50
 73
    85
  0
VERTEX
  5
285
  8
0
  6
BYBLOCK
 62
   251
 10
0.0
 20
0.0
 30
0.0
 70
   128
 71
   -52
 72
    84
 73
   -86
  0
VERTEX
  5
286
  8
0
  6
BYBLOCK
 62
   251
 10
0.0
 20
0.0
 30
0.0
 70
   128
 71
    83
 72
   -85
 73
    84
  0
VERTEX
  5
287
  8
0
  6
BYBLOCK
 62
   251
 10
0.0
 20
0.0
 30
0.0
 70
   128
 71
    85
 72
    86
 73
   -84
  0
VERTEX
  5
288
  8
0
  6
BYBLOCK
 62
   251
 10
0.0
 20
0.0
 30
0.0
 70
   128
 71
   -85
 72
   -50
 73
    87
  0
VERTEX
  5
289
  8
0
  6
BYBLOCK
 62
   251
 10
0.0
 20
0.0
 30
0.0
 70
   128
 71
   -52
 72
    86
 73
   -88
  0
VERTEX
  5
28A
  8
0
  6
BYBLOCK
 62
   251
 10
0.0
 20
0.0
 30
0.0
 70
   128
 71
    85
 72
   -87
 73
    86
  0
VERTEX
  5
28B
  8
0
  6
BYBLOCK
 62
   251
 10
0.0
 20
0.0
 30
0.0
 70
   128
 71
    87
 72
    88
 73
   -86
  0
VERTEX
  5
28C
  8
0
  6
BYBLOCK
 62
   251
 10
0.0
 20
0.0
 30
0.0
 70
   128
 71
   -87
 72
   -50
 73
    89
  0
VERTEX
  5
28D
  8
0
  6
BYBLOCK
 62
   251
 10
0.0
 20
0.0
 30
0.0
 70
   128
 71
   -52
 72
    88
 73
   -90
  0
VERTEX
  5
28E
  8
0
  6
BYBLOCK
 62
   251
 10
0.0
 20
0.0
 30
0.0
 70
   128
 71
    87
 72
   -89
 73
    88
  0
VERTEX
  5
28F
  8
0
  6
BYBLOCK
 62
   251
 10
0.0
 20
0.0
 30
0.0
 70
   128
 71
    89
 72
    90
 73
   -88
  0
VERTEX
  5
290
  8
0
  6
BYBLOCK
 62
   251
 10
0.0
 20
0.0
 30
0.0
 70
   128
 71
   -89
 72
   -50
 73
    91
  0
VERTEX
  5
291
  8
0
  6
BYBLOCK
 62
   251
 10
0.0
 20
0.0
 30
0.0
 70
   128
 71
   -52
 72
    90
 73
   -92
  0
VERTEX
  5
292
  8
0
  6
BYBLOCK
 62
   251
 10
0.0
 20
0.0
 30
0.0
 70
   128
 71
    89
 72
   -91
 73
    90
  0
VERTEX
  5
293
  8
0
  6
BYBLOCK
 62
   251
 10
0.0
 20
0.0
 30
0.0
 70
   128
 71
    91
 72
    92
 73
   -90
  0
VERTEX
  5
294
  8
0
  6
BYBLOCK
 62
   251
 10
0.0
 20
0.0
 30
0.0
 70
   128
 71
   -91
 72
   -50
 73
    93
  0
VERTEX
  5
295
  8
0
  6
BYBLOCK
 62
   251
 10
0.0
 20
0.0
 30
0.0
 70
   128
 71
   -52
 72
    92
 73
   -94
  0
VERTEX
  5
296
  8
0
  6
BYBLOCK
 62
   251
 10
0.0
 20
0.0
 30
0.0
 70
   128
 71
    91
 72
   -93
 73
    92
  0
VERTEX
  5
297
  8
0
  6
BYBLOCK
 62
   251
 10
0.0
 20
0.0
 30
0.0
 70
   128
 71
    93
 72
    94
 73
   -92
  0
VERTEX
  5
298
  8
0
  6
BYBLOCK
 62
   251
 10
0.0
 20
0.0
 30
0.0
 70
   128
 71
   -93
 72
   -50
 73
    95
  0
VERTEX
  5
299
  8
0
  6
BYBLOCK
 62
   251
 10
0.0
 20
0.0
 30
0.0
 70
   128
 71
   -52
 72
    94
 73
   -96
  0
VERTEX
  5
29A
  8
0
  6
BYBLOCK
 62
   251
 10
0.0
 20
0.0
 30
0.0
 70
   128
 71
    93
 72
   -95
 73
    94
  0
VERTEX
  5
29B
  8
0
  6
BYBLOCK
 62
   251
 10
0.0
 20
0.0
 30
0.0
 70
   128
 71
    95
 72
    96
 73
   -94
  0
VERTEX
  5
29C
  8
0
  6
BYBLOCK
 62
   251
 10
0.0
 20
0.0
 30
0.0
 70
   128
 71
   -95
 72
   -50
 73
    97
  0
VERTEX
  5
29D
  8
0
  6
BYBLOCK
 62
   251
 10
0.0
 20
0.0
 30
0.0
 70
   128
 71
   -52
 72
    96
 73
   -98
  0
VERTEX
  5
29E
  8
0
  6
BYBLOCK
 62
   251
 10
0.0
 20
0.0
 30
0.0
 70
   128
 71
    95
 72
   -97
 73
    96
  0
VERTEX
  5
29F
  8
0
  6
BYBLOCK
 62
   251
 10
0.0
 20
0.0
 30
0.0
 70
   128
 71
    97
 72
    98
 73
   -96
  0
VERTEX
  5
2A0
  8
0
  6
BYBLOCK
 62
   251
 10
0.0
 20
0.0
 30
0.0
 70
   128
 71
   -97
 72
   -50
 73
    49
  0
VERTEX
  5
2A1
  8
0
  6
BYBLOCK
 62
   251
 10
0.0
 20
0.0
 30
0.0
 70
   128
 71
   -52
 72
    98
 73
   -53
  0
VERTEX
  5
2A2
  8
0
  6
BYBLOCK
 62
   251
 10
0.0
 20
0.0
 30
0.0
 70
   128
 71
    97
 72
   -49
 73
    98
  0
VERTEX
  5
2A3
  8
0
  6
BYBLOCK
 62
   251
 10
0.0
 20
0.0
 30
0.0
 70
   128
 71
    49
 72
    53
 73
   -98
  0
VERTEX
  5
2A4
  8
0
  6
BYBLOCK
 62
   251
 10
0.0
 20
0.0
 30
0.0
 70
   128
 71
   -99
 72
  -100
 73
   101
  0
VERTEX
  5
2A5
  8
0
  6
BYBLOCK
 62
   251
 10
0.0
 20
0.0
 30
0.0
 70
   128
 71
   -50
 72
   102
 73
  -103
  0
VERTEX
  5
2A6
  8
0
  6
BYBLOCK
 62
   251
 10
0.0
 20
0.0
 30
0.0
 70
   128
 71
    99
 72
  -101
 73
   102
  0
VERTEX
  5
2A7
  8
0
  6
BYBLOCK
 62
   251
 10
0.0
 20
0.0
 30
0.0
 70
   128
 71
   101
 72
   103
 73
  -102
  0
VERTEX
  5
2A8
  8
0
  6
BYBLOCK
 62
   251
 10
0.0
 20
0.0
 30
0.0
 70
   128
 71
  -101
 72
  -100
 73
   104
  0
VERTEX
  5
2A9
  8
0
  6
BYBLOCK
 62
   251
 10
0.0
 20
0.0
 30
0.0
 70
   128
 71
   -50
 72
   103
 73
  -105
  0
VERTEX
  5
2AA
  8
0
  6
BYBLOCK
 62
   251
 10
0.0
 20
0.0
 30
0.0
 70
   128
 71
   101
 72
  -104
 73
   103
  0
VERTEX
  5
2AB
  8
0
  6
BYBLOCK
 62
   251
 10
0.0
 20
0.0
 30
0.0
 70
   128
 71
   104
 72
   105
 73
  -103
  0
VERTEX
  5
2AC
  8
0
  6
BYBLOCK
 62
   251
 10
0.0
 20
0.0
 30
0.0
 70
   128
 71
  -104
 72
  -100
 73
   106
  0
VERTEX
  5
2AD
  8
0
  6
BYBLOCK
 62
   251
 10
0.0
 20
0.0
 30
0.0
 70
   128
 71
   -50
 72
   105
 73
  -107
  0
VERTEX
  5
2AE
  8
0
  6
BYBLOCK
 62
   251
 10
0.0
 20
0.0
 30
0.0
 70
   128
 71
   104
 72
  -106
 73
   105
  0
VERTEX
  5
2AF
  8
0
  6
BYBLOCK
 62
   251
 10
0.0
 20
0.0
 30
0.0
 70
   128
 71
   106
 72
   107
 73
  -105
  0
VERTEX
  5
2B0
  8
0
  6
BYBLOCK
 62
   251
 10
0.0
 20
0.0
 30
0.0
 70
   128
 71
  -106
 72
  -100
 73
   108
  0
VERTEX
  5
2B1
  8
0
  6
BYBLOCK
 62
   251
 10
0.0
 20
0.0
 30
0.0
 70
   128
 71
   -50
 72
   107
 73
  -109
  0
VERTEX
  5
2B2
  8
0
  6
BYBLOCK
 62
   251
 10
0.0
 20
0.0
 30
0.0
 70
   128
 71
   106
 72
  -108
 73
   107
  0
VERTEX
  5
2B3
  8
0
  6
BYBLOCK
 62
   251
 10
0.0
 20
0.0
 30
0.0
 70
   128
 71
   108
 72
   109
 73
  -107
  0
VERTEX
  5
2B4
  8
0
  6
BYBLOCK
 62
   251
 10
0.0
 20
0.0
 30
0.0
 70
   128
 71
  -108
 72
  -100
 73
   110
  0
VERTEX
  5
2B5
  8
0
  6
BYBLOCK
 62
   251
 10
0.0
 20
0.0
 30
0.0
 70
   128
 71
   -50
 72
   109
 73
  -111
  0
VERTEX
  5
2B6
  8
0
  6
BYBLOCK
 62
   251
 10
0.0
 20
0.0
 30
0.0
 70
   128
 71
   108
 72
  -110
 73
   109
  0
VERTEX
  5
2B7
  8
0
  6
BYBLOCK
 62
   251
 10
0.0
 20
0.0
 30
0.0
 70
   128
 71
   110
 72
   111
 73
  -109
  0
VERTEX
  5
2B8
  8
0
  6
BYBLOCK
 62
   251
 10
0.0
 20
0.0
 30
0.0
 70
   128
 71
  -110
 72
  -100
 73
   112
  0
VERTEX
  5
2B9
  8
0
  6
BYBLOCK
 62
   251
 10
0.0
 20
0.0
 30
0.0
 70
   128
 71
   -50
 72
   111
 73
  -113
  0
VERTEX
  5
2BA
  8
0
  6
BYBLOCK
 62
   251
 10
0.0
 20
0.0
 30
0.0
 70
   128
 71
   110
 72
  -112
 73
   111
  0
VERTEX
  5
2BB
  8
0
  6
BYBLOCK
 62
   251
 10
0.0
 20
0.0
 30
0.0
 70
   128
 71
   112
 72
   113
 73
  -111
  0
VERTEX
  5
2BC
  8
0
  6
BYBLOCK
 62
   251
 10
0.0
 20
0.0
 30
0.0
 70
   128
 71
  -112
 72
  -100
 73
   114
  0
VERTEX
  5
2BD
  8
0
  6
BYBLOCK
 62
   251
 10
0.0
 20
0.0
 30
0.0
 70
   128
 71
   -50
 72
   113
 73
  -115
  0
VERTEX
  5
2BE
  8
0
  6
BYBLOCK
 62
   251
 10
0.0
 20
0.0
 30
0.0
 70
   128
 71
   112
 72
  -114
 73
   113
  0
VERTEX
  5
2BF
  8
0
  6
BYBLOCK
 62
   251
 10
0.0
 20
0.0
 30
0.0
 70
   128
 71
   114
 72
   115
 73
  -113
  0
VERTEX
  5
2C0
  8
0
  6
BYBLOCK
 62
   251
 10
0.0
 20
0.0
 30
0.0
 70
   128
 71
  -114
 72
  -100
 73
   116
  0
VERTEX
  5
2C1
  8
0
  6
BYBLOCK
 62
   251
 10
0.0
 20
0.0
 30
0.0
 70
   128
 71
   -50
 72
   115
 73
  -117
  0
VERTEX
  5
2C2
  8
0
  6
BYBLOCK
 62
   251
 10
0.0
 20
0.0
 30
0.0
 70
   128
 71
   114
 72
  -116
 73
   115
  0
VERTEX
  5
2C3
  8
0
  6
BYBLOCK
 62
   251
 10
0.0
 20
0.0
 30
0.0
 70
   128
 71
   116
 72
   117
 73
  -115
  0
VERTEX
  5
2C4
  8
0
  6
BYBLOCK
 62
   251
 10
0.0
 20
0.0
 30
0.0
 70
   128
 71
  -116
 72
  -100
 73
   118
  0
VERTEX
  5
2C5
  8
0
  6
BYBLOCK
 62
   251
 10
0.0
 20
0.0
 30
0.0
 70
   128
 71
   -50
 72
   117
 73
  -119
  0
VERTEX
  5
2C6
  8
0
  6
BYBLOCK
 62
   251
 10
0.0
 20
0.0
 30
0.0
 70
   128
 71
   116
 72
  -118
 73
   117
  0
VERTEX
  5
2C7
  8
0
  6
BYBLOCK
 62
   251
 10
0.0
 20
0.0
 30
0.0
 70
   128
 71
   118
 72
   119
 73
  -117
  0
VERTEX
  5
2C8
  8
0
  6
BYBLOCK
 62
   251
 10
0.0
 20
0.0
 30
0.0
 70
   128
 71
  -118
 72
  -100
 73
   120
  0
VERTEX
  5
2C9
  8
0
  6
BYBLOCK
 62
   251
 10
0.0
 20
0.0
 30
0.0
 70
   128
 71
   -50
 72
   119
 73
  -121
  0
VERTEX
  5
2CA
  8
0
  6
BYBLOCK
 62
   251
 10
0.0
 20
0.0
 30
0.0
 70
   128
 71
   118
 72
  -120
 73
   119
  0
VERTEX
  5
2CB
  8
0
  6
BYBLOCK
 62
   251
 10
0.0
 20
0.0
 30
0.0
 70
   128
 71
   120
 72
   121
 73
  -119
  0
VERTEX
  5
2CC
  8
0
  6
BYBLOCK
 62
   251
 10
0.0
 20
0.0
 30
0.0
 70
   128
 71
  -120
 72
  -100
 73
   122
  0
VERTEX
  5
2CD
  8
0
  6
BYBLOCK
 62
   251
 10
0.0
 20
0.0
 30
0.0
 70
   128
 71
   -50
 72
   121
 73
  -123
  0
VERTEX
  5
2CE
  8
0
  6
BYBLOCK
 62
   251
 10
0.0
 20
0.0
 30
0.0
 70
   128
 71
   120
 72
  -122
 73
   121
  0
VERTEX
  5
2CF
  8
0
  6
BYBLOCK
 62
   251
 10
0.0
 20
0.0
 30
0.0
 70
   128
 71
   122
 72
   123
 73
  -121
  0
VERTEX
  5
2D0
  8
0
  6
BYBLOCK
 62
   251
 10
0.0
 20
0.0
 30
0.0
 70
   128
 71
  -122
 72
  -100
 73
   124
  0
VERTEX
  5
2D1
  8
0
  6
BYBLOCK
 62
   251
 10
0.0
 20
0.0
 30
0.0
 70
   128
 71
   -50
 72
   123
 73
  -125
  0
VERTEX
  5
2D2
  8
0
  6
BYBLOCK
 62
   251
 10
0.0
 20
0.0
 30
0.0
 70
   128
 71
   122
 72
  -124
 73
   123
  0
VERTEX
  5
2D3
  8
0
  6
BYBLOCK
 62
   251
 10
0.0
 20
0.0
 30
0.0
 70
   128
 71
   124
 72
   125
 73
  -123
  0
VERTEX
  5
2D4
  8
0
  6
BYBLOCK
 62
   251
 10
0.0
 20
0.0
 30
0.0
 70
   128
 71
  -124
 72
  -100
 73
   126
  0
VERTEX
  5
2D5
  8
0
  6
BYBLOCK
 62
   251
 10
0.0
 20
0.0
 30
0.0
 70
   128
 71
   -50
 72
   125
 73
  -127
  0
VERTEX
  5
2D6
  8
0
  6
BYBLOCK
 62
   251
 10
0.0
 20
0.0
 30
0.0
 70
   128
 71
   124
 72
  -126
 73
   125
  0
VERTEX
  5
2D7
  8
0
  6
BYBLOCK
 62
   251
 10
0.0
 20
0.0
 30
0.0
 70
   128
 71
   126
 72
   127
 73
  -125
  0
VERTEX
  5
2D8
  8
0
  6
BYBLOCK
 62
   251
 10
0.0
 20
0.0
 30
0.0
 70
   128
 71
  -126
 72
  -100
 73
   128
  0
VERTEX
  5
2D9
  8
0
  6
BYBLOCK
 62
   251
 10
0.0
 20
0.0
 30
0.0
 70
   128
 71
   -50
 72
   127
 73
  -129
  0
VERTEX
  5
2DA
  8
0
  6
BYBLOCK
 62
   251
 10
0.0
 20
0.0
 30
0.0
 70
   128
 71
   126
 72
  -128
 73
   127
  0
VERTEX
  5
2DB
  8
0
  6
BYBLOCK
 62
   251
 10
0.0
 20
0.0
 30
0.0
 70
   128
 71
   128
 72
   129
 73
  -127
  0
VERTEX
  5
2DC
  8
0
  6
BYBLOCK
 62
   251
 10
0.0
 20
0.0
 30
0.0
 70
   128
 71
  -128
 72
  -100
 73
   130
  0
VERTEX
  5
2DD
  8
0
  6
BYBLOCK
 62
   251
 10
0.0
 20
0.0
 30
0.0
 70
   128
 71
   -50
 72
   129
 73
  -131
  0
VERTEX
  5
2DE
  8
0
  6
BYBLOCK
 62
   251
 10
0.0
 20
0.0
 30
0.0
 70
   128
 71
   128
 72
  -130
 73
   129
  0
VERTEX
  5
2DF
  8
0
  6
BYBLOCK
 62
   251
 10
0.0
 20
0.0
 30
0.0
 70
   128
 71
   130
 72
   131
 73
  -129
  0
VERTEX
  5
2E0
  8
0
  6
BYBLOCK
 62
   251
 10
0.0
 20
0.0
 30
0.0
 70
   128
 71
  -130
 72
  -100
 73
   132
  0
VERTEX
  5
2E1
  8
0
  6
BYBLOCK
 62
   251
 10
0.0
 20
0.0
 30
0.0
 70
   128
 71
   -50
 72
   131
 73
  -133
  0
VERTEX
  5
2E2
  8
0
  6
BYBLOCK
 62
   251
 10
0.0
 20
0.0
 30
0.0
 70
   128
 71
   130
 72
  -132
 73
   131
  0
VERTEX
  5
2E3
  8
0
  6
BYBLOCK
 62
   251
 10
0.0
 20
0.0
 30
0.0
 70
   128
 71
   132
 72
   133
 73
  -131
  0
VERTEX
  5
2E4
  8
0
  6
BYBLOCK
 62
   251
 10
0.0
 20
0.0
 30
0.0
 70
   128
 71
  -132
 72
  -100
 73
   134
  0
VERTEX
  5
2E5
  8
0
  6
BYBLOCK
 62
   251
 10
0.0
 20
0.0
 30
0.0
 70
   128
 71
   -50
 72
   133
 73
  -135
  0
VERTEX
  5
2E6
  8
0
  6
BYBLOCK
 62
   251
 10
0.0
 20
0.0
 30
0.0
 70
   128
 71
   132
 72
  -134
 73
   133
  0
VERTEX
  5
2E7
  8
0
  6
BYBLOCK
 62
   251
 10
0.0
 20
0.0
 30
0.0
 70
   128
 71
   134
 72
   135
 73
  -133
  0
VERTEX
  5
2E8
  8
0
  6
BYBLOCK
 62
   251
 10
0.0
 20
0.0
 30
0.0
 70
   128
 71
  -134
 72
  -100
 73
   136
  0
VERTEX
  5
2E9
  8
0
  6
BYBLOCK
 62
   251
 10
0.0
 20
0.0
 30
0.0
 70
   128
 71
   -50
 72
   135
 73
  -137
  0
VERTEX
  5
2EA
  8
0
  6
BYBLOCK
 62
   251
 10
0.0
 20
0.0
 30
0.0
 70
   128
 71
   134
 72
  -136
 73
   135
  0
VERTEX
  5
2EB
  8
0
  6
BYBLOCK
 62
   251
 10
0.0
 20
0.0
 30
0.0
 70
   128
 71
   136
 72
   137
 73
  -135
  0
VERTEX
  5
2EC
  8
0
  6
BYBLOCK
 62
   251
 10
0.0
 20
0.0
 30
0.0
 70
   128
 71
  -136
 72
  -100
 73
   138
  0
VERTEX
  5
2ED
  8
0
  6
BYBLOCK
 62
   251
 10
0.0
 20
0.0
 30
0.0
 70
   128
 71
   -50
 72
   137
 73
  -139
  0
VERTEX
  5
2EE
  8
0
  6
BYBLOCK
 62
   251
 10
0.0
 20
0.0
 30
0.0
 70
   128
 71
   136
 72
  -138
 73
   137
  0
VERTEX
  5
2EF
  8
0
  6
BYBLOCK
 62
   251
 10
0.0
 20
0.0
 30
0.0
 70
   128
 71
   138
 72
   139
 73
  -137
  0
VERTEX
  5
2F0
  8
0
  6
BYBLOCK
 62
   251
 10
0.0
 20
0.0
 30
0.0
 70
   128
 71
  -138
 72
  -100
 73
   140
  0
VERTEX
  5
2F1
  8
0
  6
BYBLOCK
 62
   251
 10
0.0
 20
0.0
 30
0.0
 70
   128
 71
   -50
 72
   139
 73
  -141
  0
VERTEX
  5
2F2
  8
0
  6
BYBLOCK
 62
   251
 10
0.0
 20
0.0
 30
0.0
 70
   128
 71
   138
 72
  -140
 73
   139
  0
VERTEX
  5
2F3
  8
0
  6
BYBLOCK
 62
   251
 10
0.0
 20
0.0
 30
0.0
 70
   128
 71
   140
 72
   141
 73
  -139
  0
VERTEX
  5
2F4
  8
0
  6
BYBLOCK
 62
   251
 10
0.0
 20
0.0
 30
0.0
 70
   128
 71
  -140
 72
  -100
 73
   142
  0
VERTEX
  5
2F5
  8
0
  6
BYBLOCK
 62
   251
 10
0.0
 20
0.0
 30
0.0
 70
   128
 71
   -50
 72
   141
 73
  -143
  0
VERTEX
  5
2F6
  8
0
  6
BYBLOCK
 62
   251
 10
0.0
 20
0.0
 30
0.0
 70
   128
 71
   140
 72
  -142
 73
   141
  0
VERTEX
  5
2F7
  8
0
  6
BYBLOCK
 62
   251
 10
0.0
 20
0.0
 30
0.0
 70
   128
 71
   142
 72
   143
 73
  -141
  0
VERTEX
  5
2F8
  8
0
  6
BYBLOCK
 62
   251
 10
0.0
 20
0.0
 30
0.0
 70
   128
 71
  -142
 72
  -100
 73
   144
  0
VERTEX
  5
2F9
  8
0
  6
BYBLOCK
 62
   251
 10
0.0
 20
0.0
 30
0.0
 70
   128
 71
   -50
 72
   143
 73
  -145
  0
VERTEX
  5
2FA
  8
0
  6
BYBLOCK
 62
   251
 10
0.0
 20
0.0
 30
0.0
 70
   128
 71
   142
 72
  -144
 73
   143
  0
VERTEX
  5
2FB
  8
0
  6
BYBLOCK
 62
   251
 10
0.0
 20
0.0
 30
0.0
 70
   128
 71
   144
 72
   145
 73
  -143
  0
VERTEX
  5
2FC
  8
0
  6
BYBLOCK
 62
   251
 10
0.0
 20
0.0
 30
0.0
 70
   128
 71
  -144
 72
  -100
 73
   146
  0
VERTEX
  5
2FD
  8
0
  6
BYBLOCK
 62
   251
 10
0.0
 20
0.0
 30
0.0
 70
   128
 71
   -50
 72
   145
 73
  -147
  0
VERTEX
  5
2FE
  8
0
  6
BYBLOCK
 62
   251
 10
0.0
 20
0.0
 30
0.0
 70
   128
 71
   144
 72
  -146
 73
   145
  0
VERTEX
  5
2FF
  8
0
  6
BYBLOCK
 62
   251
 10
0.0
 20
0.0
 30
0.0
 70
   128
 71
   146
 72
   147
 73
  -145
  0
VERTEX
  5
300
  8
0
  6
BYBLOCK
 62
   251
 10
0.0
 20
0.0
 30
0.0
 70
   128
 71
  -146
 72
  -100
 73
    99
  0
VERTEX
  5
301
  8
0
  6
BYBLOCK
 62
   251
 10
0.0
 20
0.0
 30
0.0
 70
   128
 71
   -50
 72
   147
 73
  -102
  0
VERTEX
  5
302
  8
0
  6
BYBLOCK
 62
   251
 10
0.0
 20
0.0
 30
0.0
 70
   128
 71
   146
 72
   -99
 73
   147
  0
VERTEX
  5
303
  8
0
  6
BYBLOCK
 62
   251
 10
0.0
 20
0.0
 30
0.0
 70
   128
 71
    99
 72
   102
 73
  -147
  0
VERTEX
  5
304
  8
0
  6
BYBLOCK
 62
   251
 10
0.0
 20
0.0
 30
0.0
 70
   128
 71
   148
 72
  -149
 73
   150
  0
VERTEX
  5
305
  8
0
  6
BYBLOCK
 62
   251
 10
0.0
 20
0.0
 30
0.0
 70
   128
 71
  -150
 72
   149
 73
   151
  0
VERTEX
  5
306
  8
0
  6
BYBLOCK
 62
   251
 10
0.0
 20
0.0
 30
0.0
 70
   128
 71
   149
 72
   148
 73
  -152
  0
VERTEX
  5
307
  8
0
  6
BYBLOCK
 62
   251
 10
0.0
 20
0.0
 30
0.0
 70
   128
 71
  -149
 72
   152
 73
   151
  0
VERTEX
  5
308
  8
0
  6
BYBLOCK
 62
   251
 10
0.0
 20
0.0
 30
0.0
 70
   128
 71
   153
 72
   154
 73
  -155
  0
VERTEX
  5
309
  8
0
  6
BYBLOCK
 62
   251
 10
0.0
 20
0.0
 30
0.0
 70
   128
 71
  -153
 72
   155
 73
   156
  0
VERTEX
  5
30A
  8
0
  6
BYBLOCK
 62
   251
 10
0.0
 20
0.0
 30
0.0
 70
   128
 71
   154
 72
  -153
 73
   157
  0
VERTEX
  5
30B
  8
0
  6
BYBLOCK
 62
   251
 10
0.0
 20
0.0
 30
0.0
 70
   128
 71
  -157
 72
   153
 73
   156
  0
VERTEX
  5
30C
  8
0
  6
BYBLOCK
 62
   251
 10
0.0
 20
0.0
 30
0.0
 70
   128
 71
   158
 72
   159
 73
  -160
  0
VERTEX
  5
30D
  8
0
  6
BYBLOCK
 62
   251
 10
0.0
 20
0.0
 30
0.0
 70
   128
 71
  -158
 72
   160
 73
   161
  0
VERTEX
  5
30E
  8
0
  6
BYBLOCK
 62
   251
 10
0.0
 20
0.0
 30
0.0
 70
   128
 71
   159
 72
  -158
 73
   162
  0
VERTEX
  5
30F
  8
0
  6
BYBLOCK
 62
   251
 10
0.0
 20
0.0
 30
0.0
 70
   128
 71
  -162
 72
   158
 73
   161
  0
VERTEX
  5
310
  8
0
  6
BYBLOCK
 62
   251
 10
0.0
 20
0.0
 30
0.0
 70
   128
 71
   163
 72
   164
 73
  -165
  0
VERTEX
  5
311
  8
0
  6
BYBLOCK
 62
   251
 10
0.0
 20
0.0
 30
0.0
 70
   128
 71
  -163
 72
   165
 73
   166
  0
VERTEX
  5
312
  8
0
  6
BYBLOCK
 62
   251
 10
0.0
 20
0.0
 30
0.0
 70
   128
 71
   164
 72
  -163
 73
   167
  0
VERTEX
  5
313
  8
0
  6
BYBLOCK
 62
   251
 10
0.0
 20
0.0
 30
0.0
 70
   128
 71
  -167
 72
   163
 73
   166
  0
VERTEX
  5
314
  8
0
  6
BYBLOCK
 62
   251
 10
0.0
 20
0.0
 30
0.0
 70
   128
 71
   168
 72
   169
 73
  -170
  0
VERTEX
  5
315
  8
0
  6
BYBLOCK
 62
   251
 10
0.0
 20
0.0
 30
0.0
 70
   128
 71
  -168
 72
   170
 73
   171
  0
VERTEX
  5
316
  8
0
  6
BYBLOCK
 62
   251
 10
0.0
 20
0.0
 30
0.0
 70
   128
 71
   169
 72
  -168
 73
   172
  0
VERTEX
  5
317
  8
0
  6
BYBLOCK
 62
   251
 10
0.0
 20
0.0
 30
0.0
 70
   128
 71
  -172
 72
   168
 73
   171
  0
VERTEX
  5
318
  8
0
  6
BYBLOCK
 62
   251
 10
0.0
 20
0.0
 30
0.0
 70
   128
 71
   173
 72
  -174
 73
     3
  0
VERTEX
  5
319
  8
0
  6
BYBLOCK
 62
   251
 10
0.0
 20
0.0
 30
0.0
 70
   128
 71
     1
 72
    -3
 73
   174
  0
VERTEX
  5
31A
  8
0
  6
BYBLOCK
 62
   251
 10
0.0
 20
0.0
 30
0.0
 70
   128
 71
   175
 72
  -176
 73
    14
  0
VERTEX
  5
31B
  8
0
  6
BYBLOCK
 62
   251
 10
0.0
 20
0.0
 30
0.0
 70
   128
 71
    13
 72
   -14
 73
   176
  0
VERTEX
  5
31C
  8
0
  6
BYBLOCK
 62
   251
 10
0.0
 20
0.0
 30
0.0
 70
   128
 71
   177
 72
  -178
 73
    26
  0
VERTEX
  5
31D
  8
0
  6
BYBLOCK
 62
   251
 10
0.0
 20
0.0
 30
0.0
 70
   128
 71
    25
 72
   -26
 73
   178
  0
VERTEX
  5
31E
  8
0
  6
BYBLOCK
 62
   251
 10
0.0
 20
0.0
 30
0.0
 70
   128
 71
   179
 72
  -180
 73
    38
  0
VERTEX
  5
31F
  8
0
  6
BYBLOCK
 62
   251
 10
0.0
 20
0.0
 30
0.0
 70
   128
 71
    37
 72
   -38
 73
   180
  0
SEQEND
  5
320
  8
0
  6
BYBLOCK
 62
   251
  0
POLYLINE
  5
393
  8
0
  6
BYBLOCK
 62
     0
 66
     1
 10
0.0
 20
0.0
 30
0.0
 70
    64
 71
    50
 72
    62
1001
AVE_ENTITY_MATERIAL
1002
{
1000

1002
{
1071
        0
1070
     0
1070
     0
1002
{
1070
     0
1070
     0
1070
     0
1040
0.0
1002
}
1070
     0
1070
     0
1002
{
1002
}
1002
}
1002
{
1002
{
1071
        0
1070
     4
1002
}
1002
}
1002
{
1002
{
1071
        0
1002
{
1002
{
1040
1.0
1040
0.0
1070
     0
1002
}
1002
{
1040
1.0
1040
0.0
1070
     0
1002
}
1040
0.0
1002
}
1002
{
1040
0.0000000000000009
1040
-12.0
1040
0.0
1040
-2.636041641235352
1040
16.0
1040
0.0
1040
0.0
1040
-8.0
1040
0.0
1040
0.0
1040
-12.0
1040
35.74874877929688
1070
     1
1002
{
1002
}
1070
     0
1002
}
1002
}
1002
}
1011
-0.1251949442386627
1021
-0.2032
1031
0.906928731212765
1021
-0.2032
1031
0.906928731212765
1011
-0.1251949442386627
1021
0.2032
1031
0.906928731212765
1021
0.2032
1031
0.906928731212765
1011
-0.4299949442386627
1021
-0.2032
1031
0.906928731212765
1021
-0.2032
1031
0.906928731212765
1011
-0.1251949442386627
1021
-0.2032
1031
0.602128731212765
1021
-0.2032
1031
0.602128731212765
1002
}
1001
AVE_FINISH
1002
{
1070
     0
1005
0
1002
}
  0
VERTEX
  5
394
  8
0
 10
-0.4681696489810944
 20
-0.1662049955368042
 30
1.089558475170284
 70
   192
  0
VERTEX
  5
395
  8
0
 10
-0.5020752344608307
 20
-0.1661928596496582
 30
1.089543747387081
 70
   192
  0
VERTEX
  5
396
  8
0
 10
-0.4851830969333649
 20
-0.1881412292480469
 30
1.076756252727658
 70
   192
  0
VERTEX
  5
397
  8
0
 10
-0.5032159109592438
 20
-0.1897160846710205
 30
1.076741621837765
 70
   192
  0
VERTEX
  5
398
  8
0
 10
-0.5030815199375153
 20
0.1876376868247986
 30
1.078369817028195
 70
   192
  0
VERTEX
  5
399
  8
0
 10
-0.5019576059818268
 20
0.1640040518760681
 30
1.090968466625363
 70
   192
  0
VERTEX
  5
39A
  8
0
 10
-0.4850498201847076
 20
0.1860499203681946
 30
1.078370882854611
 70
   192
  0
VERTEX
  5
39B
  8
0
 10
-0.4680520205020904
 20
0.1639919038772583
 30
1.090983291301876
 70
   192
  0
VERTEX
  5
39C
  8
0
 10
-0.5019858019351959
 20
0.1004498461246491
 30
1.103394355449826
 70
   192
  0
VERTEX
  5
39D
  8
0
 10
-0.4765858019351959
 20
0.1004407502651215
 30
1.103405401287228
 70
   192
  0
VERTEX
  5
39E
  8
0
 10
-0.5020219431400299
 20
-0.0011492007441819
 30
1.102956010112911
 70
   192
  0
VERTEX
  5
39F
  8
0
 10
-0.4766219915866852
 20
-0.0011582949951291
 30
1.102967055950314
 70
   192
  0
VERTEX
  5
3A0
  8
0
 10
-0.5020581327915191
 20
-0.1027482462882996
 30
1.102517567882687
 70
   192
  0
VERTEX
  5
3A1
  8
0
 10
-0.4766581327915191
 20
-0.1027573421478271
 30
1.1025287106134
 70
   192
  0
VERTEX
  5
3A2
  8
0
 10
-0.0646739797890186
 20
-0.1905
 30
0.735852061138302
 70
   192
  0
VERTEX
  5
3A3
  8
0
 10
-0.1217394865512848
 20
-0.1905
 30
0.7609105122186243
 70
   192
  0
VERTEX
  5
3A4
  8
0
 10
-0.0773739805459976
 20
-0.2286
 30
0.7104520611383021
 70
   192
  0
VERTEX
  5
3A5
  8
0
 10
-0.1217394865512848
 20
-0.2413
 30
0.7355105122186243
 70
   192
  0
VERTEX
  5
3A6
  8
0
 10
-0.1090394865512848
 20
-0.0762
 30
0.7482105122186243
 70
   192
  0
VERTEX
  5
3A7
  8
0
 10
-0.0519739801675081
 20
-0.0762
 30
0.7231520611383021
 70
   192
  0
VERTEX
  5
3A8
  8
0
 10
-0.1090394865512848
 20
0.0762
 30
0.7482105122186243
 70
   192
  0
VERTEX
  5
3A9
  8
0
 10
-0.0519739801675081
 20
0.0762
 30
0.7231520611383021
 70
   192
  0
VERTEX
  5
3AA
  8
0
 10
-0.1217394865512848
 20
0.1905
 30
0.7609105122186243
 70
   192
  0
VERTEX
  5
3AB
  8
0
 10
-0.0646739797890186
 20
0.1905
 30
0.735852061138302
 70
   192
  0
VERTEX
  5
3AC
  8
0
 10
-0.1217394865512848
 20
0.2413
 30
0.7355105122186243
 70
   192
  0
VERTEX
  5
3AD
  8
0
 10
-0.0773739805459976
 20
0.2286
 30
0.7104520611383021
 70
   192
  0
VERTEX
  5
3AE
  8
0
 10
-0.2256766985416412
 20
-0.2032
 30
0.7483812866784632
 70
   192
  0
VERTEX
  5
3AF
  8
0
 10
-0.2256766985416412
 20
-0.254
 30
0.7229812866784632
 70
   192
  0
VERTEX
  5
3B0
  8
0
 10
-0.2256766985416412
 20
-0.0762
 30
0.7356812866784632
 70
   192
  0
VERTEX
  5
3B1
  8
0
 10
-0.2256766985416412
 20
0.0762
 30
0.7356812866784632
 70
   192
  0
VERTEX
  5
3B2
  8
0
 10
-0.2256766985416412
 20
0.2032
 30
0.7483812866784632
 70
   192
  0
VERTEX
  5
3B3
  8
0
 10
-0.2256766985416412
 20
0.254
 30
0.7229812866784632
 70
   192
  0
VERTEX
  5
3B4
  8
0
 10
-0.3272766985416412
 20
0.2413
 30
0.7229812866784632
 70
   192
  0
VERTEX
  5
3B5
  8
0
 10
-0.3272766985416412
 20
0.1905
 30
0.7483812866784632
 70
   192
  0
VERTEX
  5
3B6
  8
0
 10
-0.3272766985416412
 20
0.0762
 30
0.7356812866784632
 70
   192
  0
VERTEX
  5
3B7
  8
0
 10
-0.3272766985416412
 20
-0.0762
 30
0.7356812866784632
 70
   192
  0
VERTEX
  5
3B8
  8
0
 10
-0.3272766985416412
 20
-0.1905
 30
0.7483812866784632
 70
   192
  0
VERTEX
  5
3B9
  8
0
 10
-0.3272766985416412
 20
-0.2413
 30
0.7229812866784632
 70
   192
  0
VERTEX
  5
3BA
  8
0
 10
-0.3936208805561066
 20
-0.1778
 30
0.7533929962731898
 70
   192
  0
VERTEX
  5
3BB
  8
0
 10
-0.3936208805561066
 20
-0.2286
 30
0.7279929962731898
 70
   192
  0
VERTEX
  5
3BC
  8
0
 10
-0.4063208805561065
 20
-0.0635
 30
0.7406929962731897
 70
   192
  0
VERTEX
  5
3BD
  8
0
 10
-0.4063208805561065
 20
0.0635
 30
0.7406929962731897
 70
   192
  0
VERTEX
  5
3BE
  8
0
 10
-0.3936208805561066
 20
0.1778
 30
0.7533929962731898
 70
   192
  0
VERTEX
  5
3BF
  8
0
 10
-0.3936208805561066
 20
0.2286
 30
0.7279929962731898
 70
   192
  0
VERTEX
  5
3C0
  8
0
 10
-0.4304677835941315
 20
0.2159
 30
0.7104520611383021
 70
   192
  0
VERTEX
  5
3C1
  8
0
 10
-0.4431677835941314
 20
0.1778
 30
0.735852061138302
 70
   192
  0
VERTEX
  5
3C2
  8
0
 10
-0.4558677835941314
 20
0.0635
 30
0.7231520611383021
 70
   192
  0
VERTEX
  5
3C3
  8
0
 10
-0.4558677835941314
 20
-0.0635
 30
0.7231520611383021
 70
   192
  0
VERTEX
  5
3C4
  8
0
 10
-0.4431677835941314
 20
-0.1778
 30
0.735852061138302
 70
   192
  0
VERTEX
  5
3C5
  8
0
 10
-0.4304677835941315
 20
-0.2159
 30
0.7104520611383021
 70
   192
  0
VERTEX
  5
3C6
  8
0
  6
BYBLOCK
 62
     0
 10
0.0
 20
0.0
 30
0.0
 70
   128
 71
     1
 72
    -2
 73
     3
  0
VERTEX
  5
3C7
  8
0
  6
BYBLOCK
 62
     0
 10
0.0
 20
0.0
 30
0.0
 70
   128
 71
    -3
 72
     2
 73
     4
  0
VERTEX
  5
3C8
  8
0
  6
BYBLOCK
 62
     0
 10
0.0
 20
0.0
 30
0.0
 70
   128
 71
     5
 72
    -6
 73
     7
  0
VERTEX
  5
3C9
  8
0
  6
BYBLOCK
 62
     0
 10
0.0
 20
0.0
 30
0.0
 70
   128
 71
    -7
 72
     6
 73
     8
  0
VERTEX
  5
3CA
  8
0
  6
BYBLOCK
 62
     0
 10
0.0
 20
0.0
 30
0.0
 70
   128
 71
     9
 72
   -10
 73
     6
  0
VERTEX
  5
3CB
  8
0
  6
BYBLOCK
 62
     0
 10
0.0
 20
0.0
 30
0.0
 70
   128
 71
     8
 72
    -6
 73
    10
  0
VERTEX
  5
3CC
  8
0
  6
BYBLOCK
 62
     0
 10
0.0
 20
0.0
 30
0.0
 70
   128
 71
    11
 72
   -12
 73
     9
  0
VERTEX
  5
3CD
  8
0
  6
BYBLOCK
 62
     0
 10
0.0
 20
0.0
 30
0.0
 70
   128
 71
    10
 72
    -9
 73
    12
  0
VERTEX
  5
3CE
  8
0
  6
BYBLOCK
 62
     0
 10
0.0
 20
0.0
 30
0.0
 70
   128
 71
    13
 72
   -14
 73
    11
  0
VERTEX
  5
3CF
  8
0
  6
BYBLOCK
 62
     0
 10
0.0
 20
0.0
 30
0.0
 70
   128
 71
    12
 72
   -11
 73
    14
  0
VERTEX
  5
3D0
  8
0
  6
BYBLOCK
 62
     0
 10
0.0
 20
0.0
 30
0.0
 70
   128
 71
     2
 72
    -1
 73
    13
  0
VERTEX
  5
3D1
  8
0
  6
BYBLOCK
 62
     0
 10
0.0
 20
0.0
 30
0.0
 70
   128
 71
    14
 72
   -13
 73
     1
  0
VERTEX
  5
3D2
  8
0
  6
BYBLOCK
 62
     0
 10
0.0
 20
0.0
 30
0.0
 70
   128
 71
    15
 72
   -16
 73
    17
  0
VERTEX
  5
3D3
  8
0
  6
BYBLOCK
 62
     0
 10
0.0
 20
0.0
 30
0.0
 70
   128
 71
   -17
 72
    16
 73
    18
  0
VERTEX
  5
3D4
  8
0
  6
BYBLOCK
 62
     0
 10
0.0
 20
0.0
 30
0.0
 70
   128
 71
    19
 72
   -16
 73
    20
  0
VERTEX
  5
3D5
  8
0
  6
BYBLOCK
 62
     0
 10
0.0
 20
0.0
 30
0.0
 70
   128
 71
    15
 72
   -20
 73
    16
  0
VERTEX
  5
3D6
  8
0
  6
BYBLOCK
 62
     0
 10
0.0
 20
0.0
 30
0.0
 70
   128
 71
    21
 72
   -19
 73
    22
  0
VERTEX
  5
3D7
  8
0
  6
BYBLOCK
 62
     0
 10
0.0
 20
0.0
 30
0.0
 70
   128
 71
    20
 72
   -22
 73
    19
  0
VERTEX
  5
3D8
  8
0
  6
BYBLOCK
 62
     0
 10
0.0
 20
0.0
 30
0.0
 70
   128
 71
    23
 72
   -21
 73
    24
  0
VERTEX
  5
3D9
  8
0
  6
BYBLOCK
 62
     0
 10
0.0
 20
0.0
 30
0.0
 70
   128
 71
    22
 72
   -24
 73
    21
  0
VERTEX
  5
3DA
  8
0
  6
BYBLOCK
 62
     0
 10
0.0
 20
0.0
 30
0.0
 70
   128
 71
    25
 72
   -23
 73
    26
  0
VERTEX
  5
3DB
  8
0
  6
BYBLOCK
 62
     0
 10
0.0
 20
0.0
 30
0.0
 70
   128
 71
   -26
 72
    23
 73
    24
  0
VERTEX
  5
3DC
  8
0
  6
BYBLOCK
 62
     0
 10
0.0
 20
0.0
 30
0.0
 70
   128
 71
    27
 72
   -28
 73
    16
  0
VERTEX
  5
3DD
  8
0
  6
BYBLOCK
 62
     0
 10
0.0
 20
0.0
 30
0.0
 70
   128
 71
    18
 72
   -16
 73
    28
  0
VERTEX
  5
3DE
  8
0
  6
BYBLOCK
 62
     0
 10
0.0
 20
0.0
 30
0.0
 70
   128
 71
    19
 72
   -29
 73
    16
  0
VERTEX
  5
3DF
  8
0
  6
BYBLOCK
 62
     0
 10
0.0
 20
0.0
 30
0.0
 70
   128
 71
   -16
 72
    29
 73
    27
  0
VERTEX
  5
3E0
  8
0
  6
BYBLOCK
 62
     0
 10
0.0
 20
0.0
 30
0.0
 70
   128
 71
    30
 72
   -29
 73
    21
  0
VERTEX
  5
3E1
  8
0
  6
BYBLOCK
 62
     0
 10
0.0
 20
0.0
 30
0.0
 70
   128
 71
    19
 72
   -21
 73
    29
  0
VERTEX
  5
3E2
  8
0
  6
BYBLOCK
 62
     0
 10
0.0
 20
0.0
 30
0.0
 70
   128
 71
    31
 72
   -30
 73
    23
  0
VERTEX
  5
3E3
  8
0
  6
BYBLOCK
 62
     0
 10
0.0
 20
0.0
 30
0.0
 70
   128
 71
   -23
 72
    30
 73
    21
  0
VERTEX
  5
3E4
  8
0
  6
BYBLOCK
 62
     0
 10
0.0
 20
0.0
 30
0.0
 70
   128
 71
    32
 72
   -31
 73
    25
  0
VERTEX
  5
3E5
  8
0
  6
BYBLOCK
 62
     0
 10
0.0
 20
0.0
 30
0.0
 70
   128
 71
    23
 72
   -25
 73
    31
  0
VERTEX
  5
3E6
  8
0
  6
BYBLOCK
 62
     0
 10
0.0
 20
0.0
 30
0.0
 70
   128
 71
    33
 72
   -34
 73
    32
  0
VERTEX
  5
3E7
  8
0
  6
BYBLOCK
 62
     0
 10
0.0
 20
0.0
 30
0.0
 70
   128
 71
    31
 72
   -32
 73
    34
  0
VERTEX
  5
3E8
  8
0
  6
BYBLOCK
 62
     0
 10
0.0
 20
0.0
 30
0.0
 70
   128
 71
    31
 72
   -34
 73
    30
  0
VERTEX
  5
3E9
  8
0
  6
BYBLOCK
 62
     0
 10
0.0
 20
0.0
 30
0.0
 70
   128
 71
   -30
 72
    34
 73
    35
  0
VERTEX
  5
3EA
  8
0
  6
BYBLOCK
 62
     0
 10
0.0
 20
0.0
 30
0.0
 70
   128
 71
    35
 72
   -36
 73
    30
  0
VERTEX
  5
3EB
  8
0
  6
BYBLOCK
 62
     0
 10
0.0
 20
0.0
 30
0.0
 70
   128
 71
    29
 72
   -30
 73
    36
  0
VERTEX
  5
3EC
  8
0
  6
BYBLOCK
 62
     0
 10
0.0
 20
0.0
 30
0.0
 70
   128
 71
    36
 72
   -37
 73
    29
  0
VERTEX
  5
3ED
  8
0
  6
BYBLOCK
 62
     0
 10
0.0
 20
0.0
 30
0.0
 70
   128
 71
   -29
 72
    37
 73
    27
  0
VERTEX
  5
3EE
  8
0
  6
BYBLOCK
 62
     0
 10
0.0
 20
0.0
 30
0.0
 70
   128
 71
    37
 72
   -38
 73
    27
  0
VERTEX
  5
3EF
  8
0
  6
BYBLOCK
 62
     0
 10
0.0
 20
0.0
 30
0.0
 70
   128
 71
    28
 72
   -27
 73
    38
  0
VERTEX
  5
3F0
  8
0
  6
BYBLOCK
 62
     0
 10
0.0
 20
0.0
 30
0.0
 70
   128
 71
    39
 72
   -40
 73
    37
  0
VERTEX
  5
3F1
  8
0
  6
BYBLOCK
 62
     0
 10
0.0
 20
0.0
 30
0.0
 70
   128
 71
    38
 72
   -37
 73
    40
  0
VERTEX
  5
3F2
  8
0
  6
BYBLOCK
 62
     0
 10
0.0
 20
0.0
 30
0.0
 70
   128
 71
    41
 72
   -39
 73
    36
  0
VERTEX
  5
3F3
  8
0
  6
BYBLOCK
 62
     0
 10
0.0
 20
0.0
 30
0.0
 70
   128
 71
   -36
 72
    39
 73
    37
  0
VERTEX
  5
3F4
  8
0
  6
BYBLOCK
 62
     0
 10
0.0
 20
0.0
 30
0.0
 70
   128
 71
    42
 72
   -41
 73
    35
  0
VERTEX
  5
3F5
  8
0
  6
BYBLOCK
 62
     0
 10
0.0
 20
0.0
 30
0.0
 70
   128
 71
    36
 72
   -35
 73
    41
  0
VERTEX
  5
3F6
  8
0
  6
BYBLOCK
 62
     0
 10
0.0
 20
0.0
 30
0.0
 70
   128
 71
    34
 72
   -43
 73
    35
  0
VERTEX
  5
3F7
  8
0
  6
BYBLOCK
 62
     0
 10
0.0
 20
0.0
 30
0.0
 70
   128
 71
   -35
 72
    43
 73
    42
  0
VERTEX
  5
3F8
  8
0
  6
BYBLOCK
 62
     0
 10
0.0
 20
0.0
 30
0.0
 70
   128
 71
    44
 72
   -43
 73
    33
  0
VERTEX
  5
3F9
  8
0
  6
BYBLOCK
 62
     0
 10
0.0
 20
0.0
 30
0.0
 70
   128
 71
    34
 72
   -33
 73
    43
  0
VERTEX
  5
3FA
  8
0
  6
BYBLOCK
 62
     0
 10
0.0
 20
0.0
 30
0.0
 70
   128
 71
    44
 72
   -45
 73
    43
  0
VERTEX
  5
3FB
  8
0
  6
BYBLOCK
 62
     0
 10
0.0
 20
0.0
 30
0.0
 70
   128
 71
   -43
 72
    45
 73
    46
  0
VERTEX
  5
3FC
  8
0
  6
BYBLOCK
 62
     0
 10
0.0
 20
0.0
 30
0.0
 70
   128
 71
    46
 72
   -47
 73
    43
  0
VERTEX
  5
3FD
  8
0
  6
BYBLOCK
 62
     0
 10
0.0
 20
0.0
 30
0.0
 70
   128
 71
    42
 72
   -43
 73
    47
  0
VERTEX
  5
3FE
  8
0
  6
BYBLOCK
 62
     0
 10
0.0
 20
0.0
 30
0.0
 70
   128
 71
    47
 72
   -48
 73
    42
  0
VERTEX
  5
3FF
  8
0
  6
BYBLOCK
 62
     0
 10
0.0
 20
0.0
 30
0.0
 70
   128
 71
    41
 72
   -42
 73
    48
  0
VERTEX
  5
400
  8
0
  6
BYBLOCK
 62
     0
 10
0.0
 20
0.0
 30
0.0
 70
   128
 71
    48
 72
   -49
 73
    41
  0
VERTEX
  5
401
  8
0
  6
BYBLOCK
 62
     0
 10
0.0
 20
0.0
 30
0.0
 70
   128
 71
    39
 72
   -41
 73
    49
  0
VERTEX
  5
402
  8
0
  6
BYBLOCK
 62
     0
 10
0.0
 20
0.0
 30
0.0
 70
   128
 71
    49
 72
   -50
 73
    39
  0
VERTEX
  5
403
  8
0
  6
BYBLOCK
 62
     0
 10
0.0
 20
0.0
 30
0.0
 70
   128
 71
   -39
 72
    50
 73
    40
  0
SEQEND
  5
404
  8
0
  6
BYBLOCK
 62
     0
  0
POLYLINE
  5
41E
  8
0
  6
BYBLOCK
 62
     0
 66
     1
 10
0.0
 20
0.0
 30
0.0
 70
    64
 71
   100
 72
   122
1001
AVE_ENTITY_MATERIAL
1002
{
1000

1002
{
1071
        0
1070
     0
1070
     0
1002
{
1070
     0
1070
     0
1070
     0
1040
0.0
1002
}
1070
     0
1070
     0
1002
{
1002
}
1002
}
1002
{
1002
{
1071
        0
1070
     4
1002
}
1002
}
1002
{
1002
{
1071
        0
1002
{
1002
{
1040
1.0
1040
0.0
1070
     0
1002
}
1002
{
1040
1.0
1040
0.0
1070
     0
1002
}
1040
0.0
1002
}
1002
{
1040
0.0
1040
0.0
1040
12.0
1040
-8.636041641235352
1040
-16.0
1040
0.0
1040
0.0
1040
8.0
1040
0.0
1040
12.0
1040
0.0
1040
29.53349685668945
1070
     1
1002
{
1002
}
1070
     0
1002
}
1002
}
1002
}
1011
-0.2775949442386627
1021
0.2032
1031
0.7490613323785364
1021
0.2032
1031
0.7490613323785364
1011
-0.2775949442386627
1021
-0.2032
1031
0.7490613323785364
1021
-0.2032
1031
0.7490613323785364
1011
-0.2775949442386627
1021
0.2032
1031
1.053861332378536
1021
0.2032
1031
1.053861332378536
1011
0.0272050557613373
1021
0.2032
1031
0.7490613323785364
1021
0.2032
1031
0.7490613323785364
1002
}
1001
AVE_FINISH
1002
{
1070
     0
1005
0
1002
}
  0
VERTEX
  5
41F
  8
0
 10
-0.5029761000156402
 20
0.1886788175582886
 30
0.8370721424676477
 70
   192
  0
VERTEX
  5
420
  8
0
 10
-0.502977117395401
 20
0.2013239032745361
 30
0.8498267902947962
 70
   192
  0
VERTEX
  5
421
  8
0
 10
-0.5031205679416656
 20
-0.2014296259880066
 30
0.848089008770138
 70
   192
  0
VERTEX
  5
422
  8
0
 10
-0.5031104910373687
 20
-0.1886749418258667
 30
0.8354438503839076
 70
   192
  0
VERTEX
  5
423
  8
0
 10
-0.5029837061405181
 20
0.2139141958236694
 30
0.8752813412286341
 70
   192
  0
VERTEX
  5
424
  8
0
 10
-0.503136216211319
 20
-0.2142391033172607
 30
0.8734339733697474
 70
   192
  0
VERTEX
  5
425
  8
0
 10
-0.503001389169693
 20
0.2263948778152466
 30
0.9261356983758509
 70
   192
  0
VERTEX
  5
426
  8
0
 10
-0.5031629103183746
 20
-0.2271581548690796
 30
0.9241786472894251
 70
   192
  0
VERTEX
  5
427
  8
0
 10
-0.5019576059818268
 20
0.1640040518760681
 30
1.090968466625363
 70
   192
  0
VERTEX
  5
428
  8
0
 10
-0.5019858019351959
 20
0.1004498461246491
 30
1.103394355449826
 70
   192
  0
VERTEX
  5
429
  8
0
 10
-0.5020581327915191
 20
-0.1027482462882996
 30
1.102517567882687
 70
   192
  0
VERTEX
  5
42A
  8
0
 10
-0.5020752344608307
 20
-0.1661928596496582
 30
1.089543747387081
 70
   192
  0
VERTEX
  5
42B
  8
0
 10
-0.5030815199375153
 20
0.1876376868247986
 30
1.078369817028195
 70
   192
  0
VERTEX
  5
42C
  8
0
 10
-0.5032159109592438
 20
-0.1897160846710205
 30
1.076741621837765
 70
   192
  0
VERTEX
  5
42D
  8
0
 10
-0.5030714430332184
 20
0.2003923588752747
 30
1.065724755535275
 70
   192
  0
VERTEX
  5
42E
  8
0
 10
-0.503214893579483
 20
-0.2023611703872681
 30
1.063986974010616
 70
   192
  0
VERTEX
  5
42F
  8
0
 10
-0.503055794763565
 20
0.2132018362045288
 30
1.040379790935665
 70
   192
  0
VERTEX
  5
430
  8
0
 10
-0.5032083048343658
 20
-0.2149514629364014
 30
1.038532423076779
 70
   192
  0
VERTEX
  5
431
  8
0
 10
-0.5030346720218658
 20
0.2260660945892334
 30
1.002335020122677
 70
   192
  0
VERTEX
  5
432
  8
0
 10
-0.5031961931705474
 20
-0.2274869380950928
 30
1.000377969036251
 70
   192
  0
VERTEX
  5
433
  8
0
 10
-0.4690496824741363
 20
0.1987988757133484
 30
1.06573279768005
 70
   192
  0
VERTEX
  5
434
  8
0
 10
-0.4520508896350861
 20
0.1640957735061646
 30
1.065590461406857
 70
   192
  0
VERTEX
  5
435
  8
0
 10
-0.4449286015033722
 20
0.1769027073860168
 30
1.040248597393185
 70
   192
  0
VERTEX
  5
436
  8
0
 10
-0.4619273943424225
 20
0.2116058095932007
 30
1.040390933666378
 70
   192
  0
VERTEX
  5
437
  8
0
 10
-0.4605846468448639
 20
0.1005446198940277
 30
1.078012668285519
 70
   192
  0
VERTEX
  5
438
  8
0
 10
-0.4534668642520904
 20
0.1006516688346863
 30
1.052615962658077
 70
   192
  0
VERTEX
  5
439
  8
0
 10
-0.4606208364963531
 20
-0.0010544268801808
 30
1.077574226055294
 70
   192
  0
VERTEX
  5
43A
  8
0
 10
-0.4535030539035797
 20
-0.0009473782233894
 30
1.052177617321163
 70
   192
  0
VERTEX
  5
43B
  8
0
 10
-0.4463741770267486
 20
-0.0007307363249362
 30
1.001381202373654
 70
   192
  0
VERTEX
  5
43C
  8
0
 10
-0.4463334576129913
 20
0.1135681890487671
 30
1.001874389324337
 70
   192
  0
VERTEX
  5
43D
  8
0
 10
-0.4378007420063019
 20
0.1897644344329834
 30
1.002206830272824
 70
   192
  0
VERTEX
  5
43E
  8
0
 10
-0.4547995348453521
 20
0.2244675245285034
 30
1.002349166546017
 70
   192
  0
VERTEX
  5
43F
  8
0
 10
-0.437767459154129
 20
0.1900932176589966
 30
0.9260075085259973
 70
   192
  0
VERTEX
  5
440
  8
0
 10
-0.4547662519931793
 20
0.2247963077545166
 30
0.9261498447991907
 70
   192
  0
VERTEX
  5
441
  8
0
 10
-0.4463001747608185
 20
0.1138969722747803
 30
0.9256750675775111
 70
   192
  0
VERTEX
  5
442
  8
0
 10
-0.4463408941745758
 20
-0.0004019567891955
 30
0.9251818806268275
 70
   192
  0
VERTEX
  5
443
  8
0
 10
-0.4534253939151764
 20
-0.0001802259220742
 30
0.8743792645074426
 70
   192
  0
VERTEX
  5
444
  8
0
 10
-0.4533846745014191
 20
0.114118700504303
 30
0.8748724514581263
 70
   192
  0
VERTEX
  5
445
  8
0
 10
-0.4448564886569977
 20
0.1776150670051575
 30
0.8751501476861536
 70
   192
  0
VERTEX
  5
446
  8
0
 10
-0.4618552814960479
 20
0.2123181692123413
 30
0.875292483959347
 70
   192
  0
VERTEX
  5
447
  8
0
 10
-0.4765858019351959
 20
0.1004407502651215
 30
1.103405401287228
 70
   192
  0
VERTEX
  5
448
  8
0
 10
-0.4766219915866852
 20
-0.0011582949951291
 30
1.102967055950314
 70
   192
  0
VERTEX
  5
449
  8
0
 10
-0.4680520205020904
 20
0.1639919038772583
 30
1.090983291301876
 70
   192
  0
VERTEX
  5
44A
  8
0
 10
-0.4850498201847076
 20
0.1860499203681946
 30
1.078370882854611
 70
   192
  0
VERTEX
  5
44B
  8
0
 10
-0.4519565882205963
 20
0.165027317905426
 30
0.8496924961663782
 70
   192
  0
VERTEX
  5
44C
  8
0
 10
-0.4689554052829742
 20
0.1997304201126099
 30
0.8498348324395716
 70
   192
  0
VERTEX
  5
44D
  8
0
 10
-0.4604802685260773
 20
0.1142308423995972
 30
0.8494695446588099
 70
   192
  0
VERTEX
  5
44E
  8
0
 10
-0.4605209879398346
 20
-0.0000680882433895
 30
0.8489763577081263
 70
   192
  0
VERTEX
  5
44F
  8
0
 10
-0.4818299585819244
 20
0.000049138418748
 30
0.8235673466302454
 70
   192
  0
VERTEX
  5
450
  8
0
 10
-0.4817892149448395
 20
0.1143480711936951
 30
0.824060533580929
 70
   192
  0
VERTEX
  5
451
  8
0
 10
-0.4732655588626861
 20
0.1651445466995239
 30
0.8242834850884974
 70
   192
  0
VERTEX
  5
452
  8
0
 10
-0.4902744528293609
 20
0.1870929647445679
 30
0.8370708828546106
 70
   192
  0
VERTEX
  5
453
  8
0
 10
-0.4520741924762726
 20
-0.1651695815086365
 30
0.8482676800347865
 70
   192
  0
VERTEX
  5
454
  8
0
 10
-0.4690976931095123
 20
-0.199860499382019
 30
0.84811061597839
 70
   192
  0
VERTEX
  5
455
  8
0
 10
-0.47338318734169
 20
-0.1650523648262024
 30
0.8228586689569055
 70
   192
  0
VERTEX
  5
456
  8
0
 10
-0.4904077295780181
 20
-0.1870981848716736
 30
0.8354562527276576
 70
   192
  0
VERTEX
  5
457
  8
0
 10
-0.4605616831302642
 20
-0.114367013835907
 30
0.8484831707574427
 70
   192
  0
VERTEX
  5
458
  8
0
 10
-0.4818706537723541
 20
-0.1142497850418091
 30
0.8230741596795618
 70
   192
  0
VERTEX
  5
459
  8
0
 10
-0.453466089105606
 20
-0.1144791557312012
 30
0.8738860775567591
 70
   192
  0
VERTEX
  5
45A
  8
0
 10
-0.4449831282138824
 20
-0.1779816022872925
 30
0.8736157452203333
 70
   192
  0
VERTEX
  5
45B
  8
0
 10
-0.4620066530704498
 20
-0.2126725322723389
 30
0.8734586811639368
 70
   192
  0
VERTEX
  5
45C
  8
0
 10
-0.4681696489810944
 20
-0.1662049955368042
 30
1.089558475170284
 70
   192
  0
VERTEX
  5
45D
  8
0
 10
-0.4851830969333649
 20
-0.1881412292480469
 30
1.076756252727658
 70
   192
  0
VERTEX
  5
45E
  8
0
 10
-0.4521684938907623
 20
-0.1661011259078979
 30
1.064165645275265
 70
   192
  0
VERTEX
  5
45F
  8
0
 10
-0.4691920187473297
 20
-0.2007920437812805
 30
1.064008581218868
 70
   192
  0
VERTEX
  5
460
  8
0
 10
-0.4766581327915191
 20
-0.1027573421478271
 30
1.1025287106134
 70
   192
  0
VERTEX
  5
461
  8
0
 10
-0.4606570019245148
 20
-0.1026534725189209
 30
1.07713588071838
 70
   192
  0
VERTEX
  5
462
  8
0
 10
-0.4379031582355499
 20
-0.1909032215118408
 30
0.924363616619259
 70
   192
  0
VERTEX
  5
463
  8
0
 10
-0.4549266588687896
 20
-0.2255941272735596
 30
0.9242064556695521
 70
   192
  0
VERTEX
  5
464
  8
0
 10
-0.4463815893650055
 20
-0.1147008839607239
 30
0.9246886936761438
 70
   192
  0
VERTEX
  5
465
  8
0
 10
-0.4464148722171783
 20
-0.1150296671867371
 30
1.00088801542297
 70
   192
  0
VERTEX
  5
466
  8
0
 10
-0.4379364410877228
 20
-0.1912319926261902
 30
1.000562841472775
 70
   192
  0
VERTEX
  5
467
  8
0
 10
-0.4549599417209625
 20
-0.2259229104995727
 30
1.000405777416378
 70
   192
  0
VERTEX
  5
468
  8
0
 10
-0.445055241060257
 20
-0.1786939619064331
 30
1.038714194927365
 70
   192
  0
VERTEX
  5
469
  8
0
 10
-0.4620787659168243
 20
-0.2133848676681518
 30
1.038557130870968
 70
   192
  0
VERTEX
  5
46A
  8
0
 10
-0.4535392193317413
 20
-0.1025464296340942
 30
1.051739175090939
 70
   192
  0
VERTEX
  5
46B
  8
0
 10
-0.4425906143665314
 20
-0.1778
 30
0.7020231667138636
 70
   192
  0
VERTEX
  5
46C
  8
0
 10
-0.4431677835941314
 20
-0.1778
 30
0.735852061138302
 70
   192
  0
VERTEX
  5
46D
  8
0
 10
-0.4304677835941315
 20
-0.2159
 30
0.7104520611383021
 70
   192
  0
VERTEX
  5
46E
  8
0
 10
-0.4298906143665314
 20
-0.2159
 30
0.7020231667138636
 70
   192
  0
VERTEX
  5
46F
  8
0
 10
-0.4552906143665313
 20
-0.0635
 30
0.7020231667138636
 70
   192
  0
VERTEX
  5
470
  8
0
 10
-0.4558677835941314
 20
-0.0635
 30
0.7231520611383021
 70
   192
  0
VERTEX
  5
471
  8
0
 10
-0.4552906143665313
 20
0.0635
 30
0.7020231667138636
 70
   192
  0
VERTEX
  5
472
  8
0
 10
-0.4558677835941314
 20
0.0635
 30
0.7231520611383021
 70
   192
  0
VERTEX
  5
473
  8
0
 10
-0.4425906143665314
 20
0.1778
 30
0.7020231667138636
 70
   192
  0
VERTEX
  5
474
  8
0
 10
-0.4431677835941314
 20
0.1778
 30
0.735852061138302
 70
   192
  0
VERTEX
  5
475
  8
0
 10
-0.4298906143665314
 20
0.2159
 30
0.7020231667138636
 70
   192
  0
VERTEX
  5
476
  8
0
 10
-0.4304677835941315
 20
0.2159
 30
0.7104520611383021
 70
   192
  0
VERTEX
  5
477
  8
0
 10
-0.07795113312006
 20
0.2286
 30
0.6995173119165004
 70
   192
  0
VERTEX
  5
478
  8
0
 10
-0.0773739805459976
 20
0.2286
 30
0.7104520611383021
 70
   192
  0
VERTEX
  5
479
  8
0
 10
-0.065251133877039
 20
0.1905
 30
0.6995173119165004
 70
   192
  0
VERTEX
  5
47A
  8
0
 10
-0.0646739797890186
 20
0.1905
 30
0.735852061138302
 70
   192
  0
VERTEX
  5
47B
  8
0
 10
-0.0519739801675081
 20
0.0762
 30
0.7231520611383021
 70
   192
  0
VERTEX
  5
47C
  8
0
 10
-0.0525511334985495
 20
0.0762
 30
0.6995173119165004
 70
   192
  0
VERTEX
  5
47D
  8
0
 10
-0.0519739801675081
 20
-0.0762
 30
0.7231520611383021
 70
   192
  0
VERTEX
  5
47E
  8
0
 10
-0.0525511334985495
 20
-0.0762
 30
0.6995173119165004
 70
   192
  0
VERTEX
  5
47F
  8
0
 10
-0.065251133877039
 20
-0.1905
 30
0.6995173119165004
 70
   192
  0
VERTEX
  5
480
  8
0
 10
-0.0646739797890186
 20
-0.1905
 30
0.735852061138302
 70
   192
  0
VERTEX
  5
481
  8
0
 10
-0.0773739805459976
 20
-0.2286
 30
0.7104520611383021
 70
   192
  0
VERTEX
  5
482
  8
0
 10
-0.07795113312006
 20
-0.2286
 30
0.6995173119165004
 70
   192
  0
VERTEX
  5
483
  8
0
  6
BYBLOCK
 62
     0
 10
0.0
 20
0.0
 30
0.0
 70
   128
 71
     1
 72
    -2
 73
    -3
  0
VERTEX
  5
484
  8
0
  6
BYBLOCK
 62
     0
 10
0.0
 20
0.0
 30
0.0
 70
   128
 71
     3
 72
     4
 73
    -1
  0
VERTEX
  5
485
  8
0
  6
BYBLOCK
 62
     0
 10
0.0
 20
0.0
 30
0.0
 70
   128
 71
    -5
 72
     6
 73
    -3
  0
VERTEX
  5
486
  8
0
  6
BYBLOCK
 62
     0
 10
0.0
 20
0.0
 30
0.0
 70
   128
 71
    -3
 72
     2
 73
    -5
  0
VERTEX
  5
487
  8
0
  6
BYBLOCK
 62
     0
 10
0.0
 20
0.0
 30
0.0
 70
   128
 71
    -7
 72
     8
 73
    -6
  0
VERTEX
  5
488
  8
0
  6
BYBLOCK
 62
     0
 10
0.0
 20
0.0
 30
0.0
 70
   128
 71
    -6
 72
     5
 73
    -7
  0
VERTEX
  5
489
  8
0
  6
BYBLOCK
 62
     0
 10
0.0
 20
0.0
 30
0.0
 70
   128
 71
     9
 72
    10
 73
   -11
  0
VERTEX
  5
48A
  8
0
  6
BYBLOCK
 62
     0
 10
0.0
 20
0.0
 30
0.0
 70
   128
 71
    11
 72
   -12
 73
    -9
  0
VERTEX
  5
48B
  8
0
  6
BYBLOCK
 62
     0
 10
0.0
 20
0.0
 30
0.0
 70
   128
 71
    13
 72
    -9
 73
   -12
  0
VERTEX
  5
48C
  8
0
  6
BYBLOCK
 62
     0
 10
0.0
 20
0.0
 30
0.0
 70
   128
 71
    12
 72
   -14
 73
   -13
  0
VERTEX
  5
48D
  8
0
  6
BYBLOCK
 62
     0
 10
0.0
 20
0.0
 30
0.0
 70
   128
 71
    15
 72
   -13
 73
   -14
  0
VERTEX
  5
48E
  8
0
  6
BYBLOCK
 62
     0
 10
0.0
 20
0.0
 30
0.0
 70
   128
 71
    14
 72
   -16
 73
   -15
  0
VERTEX
  5
48F
  8
0
  6
BYBLOCK
 62
     0
 10
0.0
 20
0.0
 30
0.0
 70
   128
 71
    17
 72
   -15
 73
   -16
  0
VERTEX
  5
490
  8
0
  6
BYBLOCK
 62
     0
 10
0.0
 20
0.0
 30
0.0
 70
   128
 71
    16
 72
   -18
 73
   -17
  0
VERTEX
  5
491
  8
0
  6
BYBLOCK
 62
     0
 10
0.0
 20
0.0
 30
0.0
 70
   128
 71
    19
 72
   -17
 73
   -18
  0
VERTEX
  5
492
  8
0
  6
BYBLOCK
 62
     0
 10
0.0
 20
0.0
 30
0.0
 70
   128
 71
    18
 72
   -20
 73
   -19
  0
VERTEX
  5
493
  8
0
  6
BYBLOCK
 62
     0
 10
0.0
 20
0.0
 30
0.0
 70
   128
 71
     7
 72
   -19
 73
   -20
  0
VERTEX
  5
494
  8
0
  6
BYBLOCK
 62
     0
 10
0.0
 20
0.0
 30
0.0
 70
   128
 71
    20
 72
    -8
 73
    -7
  0
VERTEX
  5
495
  8
0
  6
BYBLOCK
 62
     0
 10
0.0
 20
0.0
 30
0.0
 70
   128
 71
    21
 72
    22
 73
   -23
  0
VERTEX
  5
496
  8
0
  6
BYBLOCK
 62
     0
 10
0.0
 20
0.0
 30
0.0
 70
   128
 71
    23
 72
    24
 73
   -21
  0
VERTEX
  5
497
  8
0
  6
BYBLOCK
 62
     0
 10
0.0
 20
0.0
 30
0.0
 70
   128
 71
    22
 72
    25
 73
   -26
  0
VERTEX
  5
498
  8
0
  6
BYBLOCK
 62
     0
 10
0.0
 20
0.0
 30
0.0
 70
   128
 71
   -22
 72
    26
 73
    23
  0
VERTEX
  5
499
  8
0
  6
BYBLOCK
 62
     0
 10
0.0
 20
0.0
 30
0.0
 70
   128
 71
    25
 72
    27
 73
   -28
  0
VERTEX
  5
49A
  8
0
  6
BYBLOCK
 62
     0
 10
0.0
 20
0.0
 30
0.0
 70
   128
 71
    28
 72
    26
 73
   -25
  0
VERTEX
  5
49B
  8
0
  6
BYBLOCK
 62
     0
 10
0.0
 20
0.0
 30
0.0
 70
   128
 71
    26
 72
    28
 73
   -29
  0
VERTEX
  5
49C
  8
0
  6
BYBLOCK
 62
     0
 10
0.0
 20
0.0
 30
0.0
 70
   128
 71
    29
 72
    30
 73
   -26
  0
VERTEX
  5
49D
  8
0
  6
BYBLOCK
 62
     0
 10
0.0
 20
0.0
 30
0.0
 70
   128
 71
    23
 72
    26
 73
   -30
  0
VERTEX
  5
49E
  8
0
  6
BYBLOCK
 62
     0
 10
0.0
 20
0.0
 30
0.0
 70
   128
 71
   -23
 72
    30
 73
    31
  0
VERTEX
  5
49F
  8
0
  6
BYBLOCK
 62
     0
 10
0.0
 20
0.0
 30
0.0
 70
   128
 71
    24
 72
    23
 73
   -31
  0
VERTEX
  5
4A0
  8
0
  6
BYBLOCK
 62
     0
 10
0.0
 20
0.0
 30
0.0
 70
   128
 71
    31
 72
    32
 73
   -24
  0
VERTEX
  5
4A1
  8
0
  6
BYBLOCK
 62
     0
 10
0.0
 20
0.0
 30
0.0
 70
   128
 71
    32
 72
    31
 73
   -33
  0
VERTEX
  5
4A2
  8
0
  6
BYBLOCK
 62
     0
 10
0.0
 20
0.0
 30
0.0
 70
   128
 71
    33
 72
    34
 73
   -32
  0
VERTEX
  5
4A3
  8
0
  6
BYBLOCK
 62
     0
 10
0.0
 20
0.0
 30
0.0
 70
   128
 71
    31
 72
    30
 73
   -35
  0
VERTEX
  5
4A4
  8
0
  6
BYBLOCK
 62
     0
 10
0.0
 20
0.0
 30
0.0
 70
   128
 71
    35
 72
    33
 73
   -31
  0
VERTEX
  5
4A5
  8
0
  6
BYBLOCK
 62
     0
 10
0.0
 20
0.0
 30
0.0
 70
   128
 71
    30
 72
    29
 73
   -36
  0
VERTEX
  5
4A6
  8
0
  6
BYBLOCK
 62
     0
 10
0.0
 20
0.0
 30
0.0
 70
   128
 71
    36
 72
    35
 73
   -30
  0
VERTEX
  5
4A7
  8
0
  6
BYBLOCK
 62
     0
 10
0.0
 20
0.0
 30
0.0
 70
   128
 71
    35
 72
    36
 73
   -37
  0
VERTEX
  5
4A8
  8
0
  6
BYBLOCK
 62
     0
 10
0.0
 20
0.0
 30
0.0
 70
   128
 71
    37
 72
    38
 73
   -35
  0
VERTEX
  5
4A9
  8
0
  6
BYBLOCK
 62
     0
 10
0.0
 20
0.0
 30
0.0
 70
   128
 71
    35
 72
    38
 73
   -39
  0
VERTEX
  5
4AA
  8
0
  6
BYBLOCK
 62
     0
 10
0.0
 20
0.0
 30
0.0
 70
   128
 71
   -35
 72
    39
 73
    33
  0
VERTEX
  5
4AB
  8
0
  6
BYBLOCK
 62
     0
 10
0.0
 20
0.0
 30
0.0
 70
   128
 71
    34
 72
    33
 73
   -39
  0
VERTEX
  5
4AC
  8
0
  6
BYBLOCK
 62
     0
 10
0.0
 20
0.0
 30
0.0
 70
   128
 71
    39
 72
    40
 73
   -34
  0
VERTEX
  5
4AD
  8
0
  6
BYBLOCK
 62
     0
 10
0.0
 20
0.0
 30
0.0
 70
   128
 71
    41
 72
    42
 73
   -27
  0
VERTEX
  5
4AE
  8
0
  6
BYBLOCK
 62
     0
 10
0.0
 20
0.0
 30
0.0
 70
   128
 71
    27
 72
    25
 73
   -41
  0
VERTEX
  5
4AF
  8
0
  6
BYBLOCK
 62
     0
 10
0.0
 20
0.0
 30
0.0
 70
   128
 71
    43
 72
    41
 73
   -25
  0
VERTEX
  5
4B0
  8
0
  6
BYBLOCK
 62
     0
 10
0.0
 20
0.0
 30
0.0
 70
   128
 71
    25
 72
    22
 73
   -43
  0
VERTEX
  5
4B1
  8
0
  6
BYBLOCK
 62
     0
 10
0.0
 20
0.0
 30
0.0
 70
   128
 71
    44
 72
    43
 73
   -22
  0
VERTEX
  5
4B2
  8
0
  6
BYBLOCK
 62
     0
 10
0.0
 20
0.0
 30
0.0
 70
   128
 71
   -44
 72
    22
 73
    21
  0
VERTEX
  5
4B3
  8
0
  6
BYBLOCK
 62
     0
 10
0.0
 20
0.0
 30
0.0
 70
   128
 71
    40
 72
    39
 73
   -45
  0
VERTEX
  5
4B4
  8
0
  6
BYBLOCK
 62
     0
 10
0.0
 20
0.0
 30
0.0
 70
   128
 71
    45
 72
    46
 73
   -40
  0
VERTEX
  5
4B5
  8
0
  6
BYBLOCK
 62
     0
 10
0.0
 20
0.0
 30
0.0
 70
   128
 71
    38
 72
    47
 73
   -45
  0
VERTEX
  5
4B6
  8
0
  6
BYBLOCK
 62
     0
 10
0.0
 20
0.0
 30
0.0
 70
   128
 71
   -38
 72
    45
 73
    39
  0
VERTEX
  5
4B7
  8
0
  6
BYBLOCK
 62
     0
 10
0.0
 20
0.0
 30
0.0
 70
   128
 71
    38
 72
    37
 73
   -48
  0
VERTEX
  5
4B8
  8
0
  6
BYBLOCK
 62
     0
 10
0.0
 20
0.0
 30
0.0
 70
   128
 71
    48
 72
    47
 73
   -38
  0
VERTEX
  5
4B9
  8
0
  6
BYBLOCK
 62
     0
 10
0.0
 20
0.0
 30
0.0
 70
   128
 71
    47
 72
    48
 73
   -49
  0
VERTEX
  5
4BA
  8
0
  6
BYBLOCK
 62
     0
 10
0.0
 20
0.0
 30
0.0
 70
   128
 71
    49
 72
    50
 73
   -47
  0
VERTEX
  5
4BB
  8
0
  6
BYBLOCK
 62
     0
 10
0.0
 20
0.0
 30
0.0
 70
   128
 71
    45
 72
    47
 73
   -50
  0
VERTEX
  5
4BC
  8
0
  6
BYBLOCK
 62
     0
 10
0.0
 20
0.0
 30
0.0
 70
   128
 71
    50
 72
    51
 73
   -45
  0
VERTEX
  5
4BD
  8
0
  6
BYBLOCK
 62
     0
 10
0.0
 20
0.0
 30
0.0
 70
   128
 71
    46
 72
    45
 73
   -51
  0
VERTEX
  5
4BE
  8
0
  6
BYBLOCK
 62
     0
 10
0.0
 20
0.0
 30
0.0
 70
   128
 71
   -46
 72
    51
 73
    52
  0
VERTEX
  5
4BF
  8
0
  6
BYBLOCK
 62
     0
 10
0.0
 20
0.0
 30
0.0
 70
   128
 71
    53
 72
   -54
 73
    55
  0
VERTEX
  5
4C0
  8
0
  6
BYBLOCK
 62
     0
 10
0.0
 20
0.0
 30
0.0
 70
   128
 71
   -55
 72
    54
 73
    56
  0
VERTEX
  5
4C1
  8
0
  6
BYBLOCK
 62
     0
 10
0.0
 20
0.0
 30
0.0
 70
   128
 71
    57
 72
   -53
 73
    58
  0
VERTEX
  5
4C2
  8
0
  6
BYBLOCK
 62
     0
 10
0.0
 20
0.0
 30
0.0
 70
   128
 71
    55
 72
   -58
 73
    53
  0
VERTEX
  5
4C3
  8
0
  6
BYBLOCK
 62
     0
 10
0.0
 20
0.0
 30
0.0
 70
   128
 71
    48
 72
   -57
 73
    49
  0
VERTEX
  5
4C4
  8
0
  6
BYBLOCK
 62
     0
 10
0.0
 20
0.0
 30
0.0
 70
   128
 71
    58
 72
   -49
 73
    57
  0
VERTEX
  5
4C5
  8
0
  6
BYBLOCK
 62
     0
 10
0.0
 20
0.0
 30
0.0
 70
   128
 71
    37
 72
   -59
 73
    48
  0
VERTEX
  5
4C6
  8
0
  6
BYBLOCK
 62
     0
 10
0.0
 20
0.0
 30
0.0
 70
   128
 71
    57
 72
   -48
 73
    59
  0
VERTEX
  5
4C7
  8
0
  6
BYBLOCK
 62
     0
 10
0.0
 20
0.0
 30
0.0
 70
   128
 71
    57
 72
   -59
 73
    53
  0
VERTEX
  5
4C8
  8
0
  6
BYBLOCK
 62
     0
 10
0.0
 20
0.0
 30
0.0
 70
   128
 71
   -53
 72
    59
 73
    60
  0
VERTEX
  5
4C9
  8
0
  6
BYBLOCK
 62
     0
 10
0.0
 20
0.0
 30
0.0
 70
   128
 71
    60
 72
   -61
 73
    53
  0
VERTEX
  5
4CA
  8
0
  6
BYBLOCK
 62
     0
 10
0.0
 20
0.0
 30
0.0
 70
   128
 71
    54
 72
   -53
 73
    61
  0
VERTEX
  5
4CB
  8
0
  6
BYBLOCK
 62
     0
 10
0.0
 20
0.0
 30
0.0
 70
   128
 71
    62
 72
   -63
 73
    64
  0
VERTEX
  5
4CC
  8
0
  6
BYBLOCK
 62
     0
 10
0.0
 20
0.0
 30
0.0
 70
   128
 71
   -64
 72
    63
 73
    65
  0
VERTEX
  5
4CD
  8
0
  6
BYBLOCK
 62
     0
 10
0.0
 20
0.0
 30
0.0
 70
   128
 71
    66
 72
   -62
 73
    67
  0
VERTEX
  5
4CE
  8
0
  6
BYBLOCK
 62
     0
 10
0.0
 20
0.0
 30
0.0
 70
   128
 71
    64
 72
   -67
 73
    62
  0
VERTEX
  5
4CF
  8
0
  6
BYBLOCK
 62
     0
 10
0.0
 20
0.0
 30
0.0
 70
   128
 71
    42
 72
   -66
 73
    27
  0
VERTEX
  5
4D0
  8
0
  6
BYBLOCK
 62
     0
 10
0.0
 20
0.0
 30
0.0
 70
   128
 71
    67
 72
   -27
 73
    66
  0
VERTEX
  5
4D1
  8
0
  6
BYBLOCK
 62
     0
 10
0.0
 20
0.0
 30
0.0
 70
   128
 71
    68
 72
   -69
 73
    60
  0
VERTEX
  5
4D2
  8
0
  6
BYBLOCK
 62
     0
 10
0.0
 20
0.0
 30
0.0
 70
   128
 71
    61
 72
   -60
 73
    69
  0
VERTEX
  5
4D3
  8
0
  6
BYBLOCK
 62
     0
 10
0.0
 20
0.0
 30
0.0
 70
   128
 71
    59
 72
   -70
 73
    60
  0
VERTEX
  5
4D4
  8
0
  6
BYBLOCK
 62
     0
 10
0.0
 20
0.0
 30
0.0
 70
   128
 71
   -60
 72
    70
 73
    68
  0
VERTEX
  5
4D5
  8
0
  6
BYBLOCK
 62
     0
 10
0.0
 20
0.0
 30
0.0
 70
   128
 71
    36
 72
   -70
 73
    37
  0
VERTEX
  5
4D6
  8
0
  6
BYBLOCK
 62
     0
 10
0.0
 20
0.0
 30
0.0
 70
   128
 71
    59
 72
   -37
 73
    70
  0
VERTEX
  5
4D7
  8
0
  6
BYBLOCK
 62
     0
 10
0.0
 20
0.0
 30
0.0
 70
   128
 71
    29
 72
   -71
 73
    36
  0
VERTEX
  5
4D8
  8
0
  6
BYBLOCK
 62
     0
 10
0.0
 20
0.0
 30
0.0
 70
   128
 71
    70
 72
   -36
 73
    71
  0
VERTEX
  5
4D9
  8
0
  6
BYBLOCK
 62
     0
 10
0.0
 20
0.0
 30
0.0
 70
   128
 71
    71
 72
   -72
 73
    70
  0
VERTEX
  5
4DA
  8
0
  6
BYBLOCK
 62
     0
 10
0.0
 20
0.0
 30
0.0
 70
   128
 71
    68
 72
   -70
 73
    72
  0
VERTEX
  5
4DB
  8
0
  6
BYBLOCK
 62
     0
 10
0.0
 20
0.0
 30
0.0
 70
   128
 71
    72
 72
   -73
 73
    68
  0
VERTEX
  5
4DC
  8
0
  6
BYBLOCK
 62
     0
 10
0.0
 20
0.0
 30
0.0
 70
   128
 71
    69
 72
   -68
 73
    73
  0
VERTEX
  5
4DD
  8
0
  6
BYBLOCK
 62
     0
 10
0.0
 20
0.0
 30
0.0
 70
   128
 71
    74
 72
   -75
 73
    72
  0
VERTEX
  5
4DE
  8
0
  6
BYBLOCK
 62
     0
 10
0.0
 20
0.0
 30
0.0
 70
   128
 71
    73
 72
   -72
 73
    75
  0
VERTEX
  5
4DF
  8
0
  6
BYBLOCK
 62
     0
 10
0.0
 20
0.0
 30
0.0
 70
   128
 71
    76
 72
   -74
 73
    71
  0
VERTEX
  5
4E0
  8
0
  6
BYBLOCK
 62
     0
 10
0.0
 20
0.0
 30
0.0
 70
   128
 71
   -71
 72
    74
 73
    72
  0
VERTEX
  5
4E1
  8
0
  6
BYBLOCK
 62
     0
 10
0.0
 20
0.0
 30
0.0
 70
   128
 71
    28
 72
   -76
 73
    29
  0
VERTEX
  5
4E2
  8
0
  6
BYBLOCK
 62
     0
 10
0.0
 20
0.0
 30
0.0
 70
   128
 71
    71
 72
   -29
 73
    76
  0
VERTEX
  5
4E3
  8
0
  6
BYBLOCK
 62
     0
 10
0.0
 20
0.0
 30
0.0
 70
   128
 71
    27
 72
   -67
 73
    28
  0
VERTEX
  5
4E4
  8
0
  6
BYBLOCK
 62
     0
 10
0.0
 20
0.0
 30
0.0
 70
   128
 71
    76
 72
   -28
 73
    67
  0
VERTEX
  5
4E5
  8
0
  6
BYBLOCK
 62
     0
 10
0.0
 20
0.0
 30
0.0
 70
   128
 71
    67
 72
   -64
 73
    76
  0
VERTEX
  5
4E6
  8
0
  6
BYBLOCK
 62
     0
 10
0.0
 20
0.0
 30
0.0
 70
   128
 71
   -76
 72
    64
 73
    74
  0
VERTEX
  5
4E7
  8
0
  6
BYBLOCK
 62
     0
 10
0.0
 20
0.0
 30
0.0
 70
   128
 71
    64
 72
   -65
 73
    74
  0
VERTEX
  5
4E8
  8
0
  6
BYBLOCK
 62
     0
 10
0.0
 20
0.0
 30
0.0
 70
   128
 71
    75
 72
   -74
 73
    65
  0
VERTEX
  5
4E9
  8
0
  6
BYBLOCK
 62
     0
 10
0.0
 20
0.0
 30
0.0
 70
   128
 71
    77
 72
    78
 73
   -79
  0
VERTEX
  5
4EA
  8
0
  6
BYBLOCK
 62
     0
 10
0.0
 20
0.0
 30
0.0
 70
   128
 71
   -77
 72
    79
 73
    80
  0
VERTEX
  5
4EB
  8
0
  6
BYBLOCK
 62
     0
 10
0.0
 20
0.0
 30
0.0
 70
   128
 71
    77
 72
    81
 73
   -82
  0
VERTEX
  5
4EC
  8
0
  6
BYBLOCK
 62
     0
 10
0.0
 20
0.0
 30
0.0
 70
   128
 71
   -77
 72
    82
 73
    78
  0
VERTEX
  5
4ED
  8
0
  6
BYBLOCK
 62
     0
 10
0.0
 20
0.0
 30
0.0
 70
   128
 71
    81
 72
    83
 73
   -84
  0
VERTEX
  5
4EE
  8
0
  6
BYBLOCK
 62
     0
 10
0.0
 20
0.0
 30
0.0
 70
   128
 71
    84
 72
    82
 73
   -81
  0
VERTEX
  5
4EF
  8
0
  6
BYBLOCK
 62
     0
 10
0.0
 20
0.0
 30
0.0
 70
   128
 71
    85
 72
    86
 73
   -84
  0
VERTEX
  5
4F0
  8
0
  6
BYBLOCK
 62
     0
 10
0.0
 20
0.0
 30
0.0
 70
   128
 71
   -85
 72
    84
 73
    83
  0
VERTEX
  5
4F1
  8
0
  6
BYBLOCK
 62
     0
 10
0.0
 20
0.0
 30
0.0
 70
   128
 71
    85
 72
    87
 73
   -88
  0
VERTEX
  5
4F2
  8
0
  6
BYBLOCK
 62
     0
 10
0.0
 20
0.0
 30
0.0
 70
   128
 71
   -85
 72
    88
 73
    86
  0
VERTEX
  5
4F3
  8
0
  6
BYBLOCK
 62
     0
 10
0.0
 20
0.0
 30
0.0
 70
   128
 71
    89
 72
   -90
 73
    91
  0
VERTEX
  5
4F4
  8
0
  6
BYBLOCK
 62
     0
 10
0.0
 20
0.0
 30
0.0
 70
   128
 71
   -91
 72
    90
 73
    92
  0
VERTEX
  5
4F5
  8
0
  6
BYBLOCK
 62
     0
 10
0.0
 20
0.0
 30
0.0
 70
   128
 71
    92
 72
   -93
 73
    91
  0
VERTEX
  5
4F6
  8
0
  6
BYBLOCK
 62
     0
 10
0.0
 20
0.0
 30
0.0
 70
   128
 71
   -91
 72
    93
 73
    94
  0
VERTEX
  5
4F7
  8
0
  6
BYBLOCK
 62
     0
 10
0.0
 20
0.0
 30
0.0
 70
   128
 71
    93
 72
   -95
 73
    94
  0
VERTEX
  5
4F8
  8
0
  6
BYBLOCK
 62
     0
 10
0.0
 20
0.0
 30
0.0
 70
   128
 71
    96
 72
   -94
 73
    95
  0
VERTEX
  5
4F9
  8
0
  6
BYBLOCK
 62
     0
 10
0.0
 20
0.0
 30
0.0
 70
   128
 71
    96
 72
   -95
 73
    97
  0
VERTEX
  5
4FA
  8
0
  6
BYBLOCK
 62
     0
 10
0.0
 20
0.0
 30
0.0
 70
   128
 71
   -97
 72
    95
 73
    98
  0
VERTEX
  5
4FB
  8
0
  6
BYBLOCK
 62
     0
 10
0.0
 20
0.0
 30
0.0
 70
   128
 71
    98
 72
   -99
 73
    97
  0
VERTEX
  5
4FC
  8
0
  6
BYBLOCK
 62
     0
 10
0.0
 20
0.0
 30
0.0
 70
   128
 71
   -97
 72
    99
 73
   100
  0
SEQEND
  5
4FD
  8
0
  6
BYBLOCK
 62
     0
  0
POLYLINE
  5
4FE
  8
0
  6
BYBLOCK
 62
     0
 66
     1
 10
0.0
 20
0.0
 30
0.0
 70
    64
 71
    48
 72
    40
1001
AVE_ENTITY_MATERIAL
1002
{
1000

1002
{
1071
        0
1070
     0
1070
     0
1002
{
1070
     0
1070
     0
1070
     0
1040
0.0
1002
}
1070
     0
1070
     0
1002
{
1002
}
1002
}
1002
{
1002
{
1071
        0
1070
     4
1002
}
1002
}
1002
{
1002
{
1071
        0
1002
{
1002
{
1040
1.0
1040
0.0
1070
     0
1002
}
1002
{
1040
1.0
1040
0.0
1070
     0
1002
}
1040
0.0
1002
}
1002
{
1040
16.0
1040
0.0
1040
0.0
1040
-17.13604164123535
1040
0.0
1040
0.0
1040
12.0
1040
0.0
1040
0.0
1040
12.0
1040
0.0
1040
29.04069137573242
1070
     1
1002
{
1002
}
1070
     0
1002
}
1002
}
1002
}
1011
-0.4934949442386627
1021
0.0
1031
0.7365440731622278
1021
0.0
1031
0.7365440731622278
1011
-0.0870949442386627
1021
0.0
1031
0.7365440731622278
1021
0.0
1031
0.7365440731622278
1011
-0.4934949442386627
1021
0.0
1031
1.041344073162228
1021
0.0
1031
1.041344073162228
1011
-0.4934949442386627
1021
0.3048
1031
0.7365440731622278
1021
0.3048
1031
0.7365440731622278
1002
}
1001
AVE_FINISH
1002
{
1070
     0
1005
0
1002
}
  0
VERTEX
  5
4FF
  8
0
 10
-0.2256766985416412
 20
-0.254
 30
0.7229812866784632
 70
   192
  0
VERTEX
  5
500
  8
0
 10
-0.07795113312006
 20
-0.2286
 30
0.6995173119165004
 70
   192
  0
VERTEX
  5
501
  8
0
 10
-0.3272766985416412
 20
-0.2413
 30
0.7229812866784632
 70
   192
  0
VERTEX
  5
502
  8
0
 10
-0.4298906143665314
 20
-0.2159
 30
0.7020231667138636
 70
   192
  0
VERTEX
  5
503
  8
0
 10
-0.2256766985416412
 20
0.254
 30
0.7229812866784632
 70
   192
  0
VERTEX
  5
504
  8
0
 10
-0.07795113312006
 20
0.2286
 30
0.6995173119165004
 70
   192
  0
VERTEX
  5
505
  8
0
 10
-0.3272766985416412
 20
0.2413
 30
0.7229812866784632
 70
   192
  0
VERTEX
  5
506
  8
0
 10
-0.4298906143665314
 20
0.2159
 30
0.7020231667138636
 70
   192
  0
VERTEX
  5
507
  8
0
 10
-0.4619273943424225
 20
0.2116058095932007
 30
1.040390933666378
 70
   192
  0
VERTEX
  5
508
  8
0
 10
-0.503055794763565
 20
0.2132018362045288
 30
1.040379790935665
 70
   192
  0
VERTEX
  5
509
  8
0
 10
-0.4690496824741363
 20
0.1987988757133484
 30
1.06573279768005
 70
   192
  0
VERTEX
  5
50A
  8
0
 10
-0.5030714430332184
 20
0.2003923588752747
 30
1.065724755535275
 70
   192
  0
VERTEX
  5
50B
  8
0
 10
-0.4547995348453521
 20
0.2244675245285034
 30
1.002349166546017
 70
   192
  0
VERTEX
  5
50C
  8
0
 10
-0.5030346720218658
 20
0.2260660945892334
 30
1.002335020122677
 70
   192
  0
VERTEX
  5
50D
  8
0
 10
-0.503001389169693
 20
0.2263948778152466
 30
0.9261356983758509
 70
   192
  0
VERTEX
  5
50E
  8
0
 10
-0.4547662519931793
 20
0.2247963077545166
 30
0.9261498447991907
 70
   192
  0
VERTEX
  5
50F
  8
0
 10
-0.5029837061405181
 20
0.2139141958236694
 30
0.8752813412286341
 70
   192
  0
VERTEX
  5
510
  8
0
 10
-0.4618552814960479
 20
0.2123181692123413
 30
0.875292483959347
 70
   192
  0
VERTEX
  5
511
  8
0
 10
-0.4850498201847076
 20
0.1860499203681946
 30
1.078370882854611
 70
   192
  0
VERTEX
  5
512
  8
0
 10
-0.5030815199375153
 20
0.1876376868247986
 30
1.078369817028195
 70
   192
  0
VERTEX
  5
513
  8
0
 10
-0.502977117395401
 20
0.2013239032745361
 30
0.8498267902947962
 70
   192
  0
VERTEX
  5
514
  8
0
 10
-0.4689554052829742
 20
0.1997304201126099
 30
0.8498348324395716
 70
   192
  0
VERTEX
  5
515
  8
0
 10
-0.5029761000156402
 20
0.1886788175582886
 30
0.8370721424676477
 70
   192
  0
VERTEX
  5
516
  8
0
 10
-0.4902744528293609
 20
0.1870929647445679
 30
0.8370708828546106
 70
   192
  0
VERTEX
  5
517
  8
0
 10
-0.5031104910373687
 20
-0.1886749418258667
 30
0.8354438503839076
 70
   192
  0
VERTEX
  5
518
  8
0
 10
-0.5031205679416656
 20
-0.2014296259880066
 30
0.848089008770138
 70
   192
  0
VERTEX
  5
519
  8
0
 10
-0.4904077295780181
 20
-0.1870981848716736
 30
0.8354562527276576
 70
   192
  0
VERTEX
  5
51A
  8
0
 10
-0.4690976931095123
 20
-0.199860499382019
 30
0.84811061597839
 70
   192
  0
VERTEX
  5
51B
  8
0
 10
-0.503136216211319
 20
-0.2142391033172607
 30
0.8734339733697474
 70
   192
  0
VERTEX
  5
51C
  8
0
 10
-0.4620066530704498
 20
-0.2126725322723389
 30
0.8734586811639368
 70
   192
  0
VERTEX
  5
51D
  8
0
 10
-0.4691920187473297
 20
-0.2007920437812805
 30
1.064008581218868
 70
   192
  0
VERTEX
  5
51E
  8
0
 10
-0.503214893579483
 20
-0.2023611703872681
 30
1.063986974010616
 70
   192
  0
VERTEX
  5
51F
  8
0
 10
-0.4851830969333649
 20
-0.1881412292480469
 30
1.076756252727658
 70
   192
  0
VERTEX
  5
520
  8
0
 10
-0.5032159109592438
 20
-0.1897160846710205
 30
1.076741621837765
 70
   192
  0
VERTEX
  5
521
  8
0
 10
-0.5031629103183746
 20
-0.2271581548690796
 30
0.9241786472894251
 70
   192
  0
VERTEX
  5
522
  8
0
 10
-0.4549266588687896
 20
-0.2255941272735596
 30
0.9242064556695521
 70
   192
  0
VERTEX
  5
523
  8
0
 10
-0.5031961931705474
 20
-0.2274869380950928
 30
1.000377969036251
 70
   192
  0
VERTEX
  5
524
  8
0
 10
-0.4549599417209625
 20
-0.2259229104995727
 30
1.000405777416378
 70
   192
  0
VERTEX
  5
525
  8
0
 10
-0.4620787659168243
 20
-0.2133848676681518
 30
1.038557130870968
 70
   192
  0
VERTEX
  5
526
  8
0
 10
-0.5032083048343658
 20
-0.2149514629364014
 30
1.038532423076779
 70
   192
  0
VERTEX
  5
527
  8
0
 10
-0.0773739805459976
 20
-0.2286
 30
0.7104520611383021
 70
   192
  0
VERTEX
  5
528
  8
0
 10
-0.1217394865512848
 20
-0.2413
 30
0.7355105122186243
 70
   192
  0
VERTEX
  5
529
  8
0
 10
-0.4304677835941315
 20
-0.2159
 30
0.7104520611383021
 70
   192
  0
VERTEX
  5
52A
  8
0
 10
-0.3936208805561066
 20
-0.2286
 30
0.7279929962731898
 70
   192
  0
VERTEX
  5
52B
  8
0
 10
-0.4304677835941315
 20
0.2159
 30
0.7104520611383021
 70
   192
  0
VERTEX
  5
52C
  8
0
 10
-0.3936208805561066
 20
0.2286
 30
0.7279929962731898
 70
   192
  0
VERTEX
  5
52D
  8
0
 10
-0.0773739805459976
 20
0.2286
 30
0.7104520611383021
 70
   192
  0
VERTEX
  5
52E
  8
0
 10
-0.1217394865512848
 20
0.2413
 30
0.7355105122186243
 70
   192
  0
VERTEX
  5
52F
  8
0
  6
BYBLOCK
 62
     0
 10
0.0
 20
0.0
 30
0.0
 70
   128
 71
     1
 72
    -2
 73
     3
  0
VERTEX
  5
530
  8
0
  6
BYBLOCK
 62
     0
 10
0.0
 20
0.0
 30
0.0
 70
   128
 71
    -3
 72
     2
 73
     4
  0
VERTEX
  5
531
  8
0
  6
BYBLOCK
 62
     0
 10
0.0
 20
0.0
 30
0.0
 70
   128
 71
     5
 72
    -6
 73
     7
  0
VERTEX
  5
532
  8
0
  6
BYBLOCK
 62
     0
 10
0.0
 20
0.0
 30
0.0
 70
   128
 71
    -7
 72
     6
 73
     8
  0
VERTEX
  5
533
  8
0
  6
BYBLOCK
 62
     0
 10
0.0
 20
0.0
 30
0.0
 70
   128
 71
     9
 72
   -10
 73
    11
  0
VERTEX
  5
534
  8
0
  6
BYBLOCK
 62
     0
 10
0.0
 20
0.0
 30
0.0
 70
   128
 71
   -11
 72
    10
 73
    12
  0
VERTEX
  5
535
  8
0
  6
BYBLOCK
 62
     0
 10
0.0
 20
0.0
 30
0.0
 70
   128
 71
    13
 72
   -14
 73
     9
  0
VERTEX
  5
536
  8
0
  6
BYBLOCK
 62
     0
 10
0.0
 20
0.0
 30
0.0
 70
   128
 71
    -9
 72
    14
 73
    10
  0
VERTEX
  5
537
  8
0
  6
BYBLOCK
 62
     0
 10
0.0
 20
0.0
 30
0.0
 70
   128
 71
    15
 72
   -14
 73
    16
  0
VERTEX
  5
538
  8
0
  6
BYBLOCK
 62
     0
 10
0.0
 20
0.0
 30
0.0
 70
   128
 71
    13
 72
   -16
 73
    14
  0
VERTEX
  5
539
  8
0
  6
BYBLOCK
 62
     0
 10
0.0
 20
0.0
 30
0.0
 70
   128
 71
    17
 72
   -15
 73
    18
  0
VERTEX
  5
53A
  8
0
  6
BYBLOCK
 62
     0
 10
0.0
 20
0.0
 30
0.0
 70
   128
 71
   -18
 72
    15
 73
    16
  0
VERTEX
  5
53B
  8
0
  6
BYBLOCK
 62
     0
 10
0.0
 20
0.0
 30
0.0
 70
   128
 71
    11
 72
   -12
 73
    19
  0
VERTEX
  5
53C
  8
0
  6
BYBLOCK
 62
     0
 10
0.0
 20
0.0
 30
0.0
 70
   128
 71
   -19
 72
    12
 73
    20
  0
VERTEX
  5
53D
  8
0
  6
BYBLOCK
 62
     0
 10
0.0
 20
0.0
 30
0.0
 70
   128
 71
    21
 72
   -17
 73
    22
  0
VERTEX
  5
53E
  8
0
  6
BYBLOCK
 62
     0
 10
0.0
 20
0.0
 30
0.0
 70
   128
 71
   -22
 72
    17
 73
    18
  0
VERTEX
  5
53F
  8
0
  6
BYBLOCK
 62
     0
 10
0.0
 20
0.0
 30
0.0
 70
   128
 71
    23
 72
   -21
 73
    24
  0
VERTEX
  5
540
  8
0
  6
BYBLOCK
 62
     0
 10
0.0
 20
0.0
 30
0.0
 70
   128
 71
   -24
 72
    21
 73
    22
  0
VERTEX
  5
541
  8
0
  6
BYBLOCK
 62
     0
 10
0.0
 20
0.0
 30
0.0
 70
   128
 71
    25
 72
   -26
 73
    27
  0
VERTEX
  5
542
  8
0
  6
BYBLOCK
 62
     0
 10
0.0
 20
0.0
 30
0.0
 70
   128
 71
   -27
 72
    26
 73
    28
  0
VERTEX
  5
543
  8
0
  6
BYBLOCK
 62
     0
 10
0.0
 20
0.0
 30
0.0
 70
   128
 71
    26
 72
   -29
 73
    28
  0
VERTEX
  5
544
  8
0
  6
BYBLOCK
 62
     0
 10
0.0
 20
0.0
 30
0.0
 70
   128
 71
   -28
 72
    29
 73
    30
  0
VERTEX
  5
545
  8
0
  6
BYBLOCK
 62
     0
 10
0.0
 20
0.0
 30
0.0
 70
   128
 71
    31
 72
   -32
 73
    33
  0
VERTEX
  5
546
  8
0
  6
BYBLOCK
 62
     0
 10
0.0
 20
0.0
 30
0.0
 70
   128
 71
   -33
 72
    32
 73
    34
  0
VERTEX
  5
547
  8
0
  6
BYBLOCK
 62
     0
 10
0.0
 20
0.0
 30
0.0
 70
   128
 71
    29
 72
   -35
 73
    30
  0
VERTEX
  5
548
  8
0
  6
BYBLOCK
 62
     0
 10
0.0
 20
0.0
 30
0.0
 70
   128
 71
   -30
 72
    35
 73
    36
  0
VERTEX
  5
549
  8
0
  6
BYBLOCK
 62
     0
 10
0.0
 20
0.0
 30
0.0
 70
   128
 71
    35
 72
   -37
 73
    36
  0
VERTEX
  5
54A
  8
0
  6
BYBLOCK
 62
     0
 10
0.0
 20
0.0
 30
0.0
 70
   128
 71
    38
 72
   -36
 73
    37
  0
VERTEX
  5
54B
  8
0
  6
BYBLOCK
 62
     0
 10
0.0
 20
0.0
 30
0.0
 70
   128
 71
    38
 72
   -37
 73
    39
  0
VERTEX
  5
54C
  8
0
  6
BYBLOCK
 62
     0
 10
0.0
 20
0.0
 30
0.0
 70
   128
 71
   -39
 72
    37
 73
    40
  0
VERTEX
  5
54D
  8
0
  6
BYBLOCK
 62
     0
 10
0.0
 20
0.0
 30
0.0
 70
   128
 71
    39
 72
   -40
 73
    31
  0
VERTEX
  5
54E
  8
0
  6
BYBLOCK
 62
     0
 10
0.0
 20
0.0
 30
0.0
 70
   128
 71
   -31
 72
    40
 73
    32
  0
VERTEX
  5
54F
  8
0
  6
BYBLOCK
 62
     0
 10
0.0
 20
0.0
 30
0.0
 70
   128
 71
    41
 72
    -2
 73
    42
  0
VERTEX
  5
550
  8
0
  6
BYBLOCK
 62
     0
 10
0.0
 20
0.0
 30
0.0
 70
   128
 71
   -42
 72
     2
 73
     1
  0
VERTEX
  5
551
  8
0
  6
BYBLOCK
 62
     0
 10
0.0
 20
0.0
 30
0.0
 70
   128
 71
    43
 72
   -44
 73
     4
  0
VERTEX
  5
552
  8
0
  6
BYBLOCK
 62
     0
 10
0.0
 20
0.0
 30
0.0
 70
   128
 71
    -4
 72
    44
 73
     3
  0
VERTEX
  5
553
  8
0
  6
BYBLOCK
 62
     0
 10
0.0
 20
0.0
 30
0.0
 70
   128
 71
    45
 72
   -46
 73
     8
  0
VERTEX
  5
554
  8
0
  6
BYBLOCK
 62
     0
 10
0.0
 20
0.0
 30
0.0
 70
   128
 71
    -8
 72
    46
 73
     7
  0
VERTEX
  5
555
  8
0
  6
BYBLOCK
 62
     0
 10
0.0
 20
0.0
 30
0.0
 70
   128
 71
    47
 72
    -6
 73
    48
  0
VERTEX
  5
556
  8
0
  6
BYBLOCK
 62
     0
 10
0.0
 20
0.0
 30
0.0
 70
   128
 71
   -48
 72
     6
 73
     5
  0
SEQEND
  5
557
  8
0
  6
BYBLOCK
 62
     0
  0
POLYLINE
  5
558
  8
0
  6
BYBLOCK
 62
   251
 66
     1
 10
0.0
 20
0.0
 30
0.0
 70
    64
 71
    20
 72
    22
1001
AVE_FINISH
1002
{
1070
     0
1005
C6D
1002
}
1001
AVE_ENTITY_MATERIAL
1002
{
1000

1002
{
1071
        0
1070
     0
1070
     0
1002
{
1070
     0
1070
     0
1070
     0
1040
0.0
1002
}
1070
     0
1070
     0
1002
{
1002
}
1002
}
1002
{
1002
}
1002
{
1002
}
1011
-0.0582394865512848
1021
0.0
1031
-0.0010894877813756
1021
0.0
1031
-0.0010894877813756
1011
-0.0328394865512848
1021
0.0
1031
-0.0010894877813756
1021
0.0
1031
-0.0010894877813756
1011
-0.0582394865512848
1021
0.0254
1031
-0.0010894877813756
1021
0.0254
1031
-0.0010894877813756
1011
-0.0582394865512848
1021
0.0
1031
0.0243105122186244
1021
0.0
1031
0.0243105122186244
1002
}
  0
VERTEX
  5
559
  8
0
 10
-0.2995394865512848
 20
-0.0381
 30
0.6847105122186243
 70
   192
  0
VERTEX
  5
55A
  8
0
 10
-0.4900394865512848
 20
-0.0381
 30
0.6847105122186243
 70
   192
  0
VERTEX
  5
55B
  8
0
 10
-0.4900394865512848
 20
0.0381
 30
0.6847105122186243
 70
   192
  0
VERTEX
  5
55C
  8
0
 10
-0.2995394865512848
 20
0.0381
 30
0.6847105122186243
 70
   192
  0
VERTEX
  5
55D
  8
0
 10
-0.5027394865512848
 20
-0.0381
 30
0.686635297832638
 70
   192
  0
VERTEX
  5
55E
  8
0
 10
-0.5027394865512848
 20
0.0381
 30
0.686635297832638
 70
   192
  0
VERTEX
  5
55F
  8
0
 10
-0.5154394865512848
 20
-0.0381
 30
0.6936928612329065
 70
   192
  0
VERTEX
  5
560
  8
0
 10
-0.5154394865512848
 20
0.0381
 30
0.6936928612329065
 70
   192
  0
VERTEX
  5
561
  8
0
 10
-0.5281394865512847
 20
-0.0381
 30
0.70588320241943
 70
   192
  0
VERTEX
  5
562
  8
0
 10
-0.5281394865512847
 20
0.0381
 30
0.70588320241943
 70
   192
  0
VERTEX
  5
563
  8
0
 10
-0.5337864771366119
 20
-0.0381
 30
0.7238479488946498
 70
   192
  0
VERTEX
  5
564
  8
0
 10
-0.5337864771366119
 20
0.0381
 30
0.7238479488946498
 70
   192
  0
VERTEX
  5
565
  8
0
 10
-0.5337864771366119
 20
-0.0381
 30
0.9270479488946497
 70
   192
  0
VERTEX
  5
566
  8
0
 10
-0.5337864771366119
 20
0.0381
 30
0.9270479488946497
 70
   192
  0
VERTEX
  5
567
  8
0
 10
-0.5337864771366119
 20
-0.0381
 30
0.9905479488946497
 70
   192
  0
VERTEX
  5
568
  8
0
 10
-0.5337864771366119
 20
0.0381
 30
0.9905479488946497
 70
   192
  0
VERTEX
  5
569
  8
0
 10
-0.5083864771366119
 20
-0.0381
 30
0.9905479488946497
 70
   192
  0
VERTEX
  5
56A
  8
0
 10
-0.5083864771366119
 20
-0.0381
 30
0.9270479488946497
 70
   192
  0
VERTEX
  5
56B
  8
0
 10
-0.5083864771366119
 20
0.0381
 30
0.9905479488946497
 70
   192
  0
VERTEX
  5
56C
  8
0
 10
-0.5083864771366119
 20
0.0381
 30
0.9270479488946497
 70
   192
  0
VERTEX
  5
56D
  8
0
  6
BYBLOCK
 62
   251
 10
0.0
 20
0.0
 30
0.0
 70
   128
 71
     1
 72
     2
 73
    -3
  0
VERTEX
  5
56E
  8
0
  6
BYBLOCK
 62
   251
 10
0.0
 20
0.0
 30
0.0
 70
   128
 71
     3
 72
     4
 73
    -1
  0
VERTEX
  5
56F
  8
0
  6
BYBLOCK
 62
   251
 10
0.0
 20
0.0
 30
0.0
 70
   128
 71
     2
 72
     5
 73
    -6
  0
VERTEX
  5
570
  8
0
  6
BYBLOCK
 62
   251
 10
0.0
 20
0.0
 30
0.0
 70
   128
 71
     6
 72
     3
 73
    -2
  0
VERTEX
  5
571
  8
0
  6
BYBLOCK
 62
   251
 10
0.0
 20
0.0
 30
0.0
 70
   128
 71
     5
 72
     7
 73
    -8
  0
VERTEX
  5
572
  8
0
  6
BYBLOCK
 62
   251
 10
0.0
 20
0.0
 30
0.0
 70
   128
 71
     8
 72
     6
 73
    -5
  0
VERTEX
  5
573
  8
0
  6
BYBLOCK
 62
   251
 10
0.0
 20
0.0
 30
0.0
 70
   128
 71
     7
 72
     9
 73
   -10
  0
VERTEX
  5
574
  8
0
  6
BYBLOCK
 62
   251
 10
0.0
 20
0.0
 30
0.0
 70
   128
 71
    10
 72
     8
 73
    -7
  0
VERTEX
  5
575
  8
0
  6
BYBLOCK
 62
   251
 10
0.0
 20
0.0
 30
0.0
 70
   128
 71
     9
 72
    11
 73
   -12
  0
VERTEX
  5
576
  8
0
  6
BYBLOCK
 62
   251
 10
0.0
 20
0.0
 30
0.0
 70
   128
 71
    12
 72
    10
 73
    -9
  0
VERTEX
  5
577
  8
0
  6
BYBLOCK
 62
   251
 10
0.0
 20
0.0
 30
0.0
 70
   128
 71
    11
 72
    13
 73
   -14
  0
VERTEX
  5
578
  8
0
  6
BYBLOCK
 62
   251
 10
0.0
 20
0.0
 30
0.0
 70
   128
 71
    14
 72
    12
 73
   -11
  0
VERTEX
  5
579
  8
0
  6
BYBLOCK
 62
   251
 10
0.0
 20
0.0
 30
0.0
 70
   128
 71
    13
 72
    15
 73
   -16
  0
VERTEX
  5
57A
  8
0
  6
BYBLOCK
 62
   251
 10
0.0
 20
0.0
 30
0.0
 70
   128
 71
    16
 72
    14
 73
   -13
  0
VERTEX
  5
57B
  8
0
  6
BYBLOCK
 62
   251
 10
0.0
 20
0.0
 30
0.0
 70
   128
 71
    17
 72
   -18
 73
    19
  0
VERTEX
  5
57C
  8
0
  6
BYBLOCK
 62
   251
 10
0.0
 20
0.0
 30
0.0
 70
   128
 71
    20
 72
   -19
 73
    18
  0
VERTEX
  5
57D
  8
0
  6
BYBLOCK
 62
   251
 10
0.0
 20
0.0
 30
0.0
 70
   128
 71
    20
 72
   -14
 73
    19
  0
VERTEX
  5
57E
  8
0
  6
BYBLOCK
 62
   251
 10
0.0
 20
0.0
 30
0.0
 70
   128
 71
    16
 72
   -19
 73
    14
  0
VERTEX
  5
57F
  8
0
  6
BYBLOCK
 62
   251
 10
0.0
 20
0.0
 30
0.0
 70
   128
 71
    19
 72
    16
 73
   -15
  0
VERTEX
  5
580
  8
0
  6
BYBLOCK
 62
   251
 10
0.0
 20
0.0
 30
0.0
 70
   128
 71
    15
 72
    17
 73
   -19
  0
VERTEX
  5
581
  8
0
  6
BYBLOCK
 62
   251
 10
0.0
 20
0.0
 30
0.0
 70
   128
 71
    17
 72
   -15
 73
    18
  0
VERTEX
  5
582
  8
0
  6
BYBLOCK
 62
   251
 10
0.0
 20
0.0
 30
0.0
 70
   128
 71
    13
 72
   -18
 73
    15
  0
SEQEND
  5
583
  8
0
  6
BYBLOCK
 62
   251
  0
POLYLINE
  5
59D
  8
0
  6
BYBLOCK
 62
   251
 66
     1
 10
0.0
 20
0.0
 30
0.0
 70
    64
 71
    80
 72
   140
1001
AVE_FINISH
1002
{
1070
     0
1005
C54
1002
}
1001
AVE_ENTITY_MATERIAL
1002
{
1000

1002
{
1071
        0
1070
     0
1070
     0
1002
{
1070
     0
1070
     0
1070
     0
1040
0.0
1002
}
1070
     0
1070
     0
1002
{
1002
}
1002
}
1002
{
1002
}
1002
{
1002
}
1011
-0.0582394865512848
1021
0.0
1031
-0.0010894877813756
1021
0.0
1031
-0.0010894877813756
1011
-0.0328394865512848
1021
0.0
1031
-0.0010894877813756
1021
0.0
1031
-0.0010894877813756
1011
-0.0582394865512848
1021
0.0254
1031
-0.0010894877813756
1021
0.0254
1031
-0.0010894877813756
1011
-0.0582394865512848
1021
0.0
1031
0.0243105122186244
1021
0.0
1031
0.0243105122186244
1002
}
  0
VERTEX
  5
59E
  8
0
 10
-0.2113353864192963
 20
-0.2774987352371216
 30
0.0179605122186244
 70
   192
  0
VERTEX
  5
59F
  8
0
 10
-0.1388648826122284
 20
-0.2539516502380371
 30
0.0179605122186244
 70
   192
  0
VERTEX
  5
5A0
  8
0
 10
-0.2113353864192963
 20
-0.2774987352371216
 30
0.0560605122186244
 70
   192
  0
VERTEX
  5
5A1
  8
0
 10
-0.1388648826122284
 20
-0.2539516502380371
 30
0.0560605122186244
 70
   192
  0
VERTEX
  5
5A2
  8
0
 10
-0.1927286612033844
 20
-0.2525682559967041
 30
0.0740210256673396
 70
   192
  0
VERTEX
  5
5A3
  8
0
 10
-0.1685718266010284
 20
-0.2447192195892334
 30
0.0740210256673396
 70
   192
  0
VERTEX
  5
5A4
  8
0
 10
-0.1685718266010284
 20
-0.2447192195892334
 30
0.0
 70
   192
  0
VERTEX
  5
5A5
  8
0
 10
-0.1927286612033844
 20
-0.2525682559967041
 30
0.0
 70
   192
  0
VERTEX
  5
5A6
  8
0
 10
-0.2348824835300445
 20
-0.2050282314300537
 30
0.0179605122186244
 70
   192
  0
VERTEX
  5
5A7
  8
0
 10
-0.1624119797229767
 20
-0.1814811343193054
 30
0.0179605122186244
 70
   192
  0
VERTEX
  5
5A8
  8
0
 10
-0.1810187170505524
 20
-0.2064116256713867
 30
0.0
 70
   192
  0
VERTEX
  5
5A9
  8
0
 10
-0.2051755516529083
 20
-0.2142606620788574
 30
0.0
 70
   192
  0
VERTEX
  5
5AA
  8
0
 10
-0.2348824835300445
 20
-0.2050282314300537
 30
0.0560605122186244
 70
   192
  0
VERTEX
  5
5AB
  8
0
 10
-0.2051755516529083
 20
-0.2142606620788574
 30
0.0740210256673396
 70
   192
  0
VERTEX
  5
5AC
  8
0
 10
-0.1810187170505524
 20
-0.2064116256713867
 30
0.0740210256673396
 70
   192
  0
VERTEX
  5
5AD
  8
0
 10
-0.1624119797229767
 20
-0.1814811343193054
 30
0.0560605122186244
 70
   192
  0
VERTEX
  5
5AE
  8
0
 10
0.0179605134487152
 20
-0.0381
 30
0.0179605122186244
 70
   192
  0
VERTEX
  5
5AF
  8
0
 10
0.0179605134487152
 20
0.0381
 30
0.0179605122186244
 70
   192
  0
VERTEX
  5
5B0
  8
0
 10
0.0179605134487152
 20
-0.0381
 30
0.0560605122186244
 70
   192
  0
VERTEX
  5
5B1
  8
0
 10
0.0179605134487152
 20
0.0381
 30
0.0560605122186244
 70
   192
  0
VERTEX
  5
5B2
  8
0
 10
0.0
 20
-0.0127
 30
0.0740210256673396
 70
   192
  0
VERTEX
  5
5B3
  8
0
 10
0.0
 20
0.0127
 30
0.0740210256673396
 70
   192
  0
VERTEX
  5
5B4
  8
0
 10
0.0
 20
0.0127
 30
0.0
 70
   192
  0
VERTEX
  5
5B5
  8
0
 10
0.0
 20
-0.0127
 30
0.0
 70
   192
  0
VERTEX
  5
5B6
  8
0
 10
-0.0582394865512826
 20
-0.0381
 30
0.0179605122186244
 70
   192
  0
VERTEX
  5
5B7
  8
0
 10
-0.0582394865512822
 20
0.0381
 30
0.0179605122186244
 70
   192
  0
VERTEX
  5
5B8
  8
0
 10
-0.0402789746165276
 20
0.0127
 30
0.0
 70
   192
  0
VERTEX
  5
5B9
  8
0
 10
-0.0402789746165276
 20
-0.0127
 30
0.0
 70
   192
  0
VERTEX
  5
5BA
  8
0
 10
-0.0582394865512823
 20
-0.0381
 30
0.0560605122186244
 70
   192
  0
VERTEX
  5
5BB
  8
0
 10
-0.0402789746165276
 20
-0.0127
 30
0.0740210256673396
 70
   192
  0
VERTEX
  5
5BC
  8
0
 10
-0.0402789746165276
 20
0.0127
 30
0.0740210256673396
 70
   192
  0
VERTEX
  5
5BD
  8
0
 10
-0.0582394865512822
 20
0.0381
 30
0.0560605122186244
 70
   192
  0
VERTEX
  5
5BE
  8
0
 10
-0.1388648826122284
 20
0.2539516502380371
 30
0.0179605122186244
 70
   192
  0
VERTEX
  5
5BF
  8
0
 10
-0.2113353864192963
 20
0.2774987352371216
 30
0.0179605122186244
 70
   192
  0
VERTEX
  5
5C0
  8
0
 10
-0.1388648826122284
 20
0.2539516502380371
 30
0.0560605122186244
 70
   192
  0
VERTEX
  5
5C1
  8
0
 10
-0.2113353864192963
 20
0.2774987352371216
 30
0.0560605122186244
 70
   192
  0
VERTEX
  5
5C2
  8
0
 10
-0.1685718266010284
 20
0.2447192195892334
 30
0.0740210256673396
 70
   192
  0
VERTEX
  5
5C3
  8
0
 10
-0.1927286612033844
 20
0.2525682559967041
 30
0.0740210256673396
 70
   192
  0
VERTEX
  5
5C4
  8
0
 10
-0.1927286612033844
 20
0.2525682559967041
 30
0.0
 70
   192
  0
VERTEX
  5
5C5
  8
0
 10
-0.1685718266010284
 20
0.2447192195892334
 30
0.0
 70
   192
  0
VERTEX
  5
5C6
  8
0
 10
-0.1624119797229767
 20
0.1814811343193054
 30
0.0179605122186244
 70
   192
  0
VERTEX
  5
5C7
  8
0
 10
-0.2348824835300445
 20
0.2050282314300537
 30
0.0179605122186244
 70
   192
  0
VERTEX
  5
5C8
  8
0
 10
-0.2051755516529083
 20
0.2142606620788574
 30
0.0
 70
   192
  0
VERTEX
  5
5C9
  8
0
 10
-0.1810187170505524
 20
0.2064116256713867
 30
0.0
 70
   192
  0
VERTEX
  5
5CA
  8
0
 10
-0.1624119797229767
 20
0.1814811343193054
 30
0.0560605122186244
 70
   192
  0
VERTEX
  5
5CB
  8
0
 10
-0.1810187170505524
 20
0.2064116256713867
 30
0.0740210256673396
 70
   192
  0
VERTEX
  5
5CC
  8
0
 10
-0.2051755516529083
 20
0.2142606620788574
 30
0.0740210256673396
 70
   192
  0
VERTEX
  5
5CD
  8
0
 10
-0.2348824835300445
 20
0.2050282314300537
 30
0.0560605122186244
 70
   192
  0
VERTEX
  5
5CE
  8
0
 10
-0.5098734503269196
 20
-0.1334036546707153
 30
0.0179605122186244
 70
   192
  0
VERTEX
  5
5CF
  8
0
 10
-0.4650842268466949
 20
-0.1950507517814636
 30
0.0179605122186244
 70
   192
  0
VERTEX
  5
5D0
  8
0
 10
-0.5098734503269196
 20
-0.1334036546707153
 30
0.0560605122186244
 70
   192
  0
VERTEX
  5
5D1
  8
0
 10
-0.4650842268466949
 20
-0.1950507517814636
 30
0.0560605122186244
 70
   192
  0
VERTEX
  5
5D2
  8
0
 10
-0.4804133299350739
 20
-0.143395765209198
 30
0.0740210256673396
 70
   192
  0
VERTEX
  5
5D3
  8
0
 10
-0.4654836210727691
 20
-0.1639447895050049
 30
0.0740210256673396
 70
   192
  0
VERTEX
  5
5D4
  8
0
 10
-0.4654836210727691
 20
-0.1639447895050049
 30
0.0
 70
   192
  0
VERTEX
  5
5D5
  8
0
 10
-0.4804133299350739
 20
-0.143395765209198
 30
0.0
 70
   192
  0
VERTEX
  5
5D6
  8
0
 10
-0.4482263653278351
 20
-0.088614413022995
 30
0.0179605122186244
 70
   192
  0
VERTEX
  5
5D7
  8
0
 10
-0.4034371176242828
 20
-0.1502615161895752
 30
0.0179605122186244
 70
   192
  0
VERTEX
  5
5D8
  8
0
 10
-0.4328972380161285
 20
-0.1402694056510925
 30
0.0
 70
   192
  0
VERTEX
  5
5D9
  8
0
 10
-0.4478269711017608
 20
-0.1197203692436218
 30
0.0
 70
   192
  0
VERTEX
  5
5DA
  8
0
 10
-0.4482263653278351
 20
-0.088614413022995
 30
0.0560605122186244
 70
   192
  0
VERTEX
  5
5DB
  8
0
 10
-0.4478269711017608
 20
-0.1197203692436218
 30
0.0740210256673396
 70
   192
  0
VERTEX
  5
5DC
  8
0
 10
-0.4328972380161285
 20
-0.1402694056510925
 30
0.0740210256673396
 70
   192
  0
VERTEX
  5
5DD
  8
0
 10
-0.4034371176242828
 20
-0.1502615161895752
 30
0.0560605122186244
 70
   192
  0
VERTEX
  5
5DE
  8
0
 10
-0.4650842268466949
 20
0.1950507517814636
 30
0.0179605122186244
 70
   192
  0
VERTEX
  5
5DF
  8
0
 10
-0.5098734503269196
 20
0.1334036546707153
 30
0.0179605122186244
 70
   192
  0
VERTEX
  5
5E0
  8
0
 10
-0.4650842268466949
 20
0.1950507517814636
 30
0.0560605122186244
 70
   192
  0
VERTEX
  5
5E1
  8
0
 10
-0.5098734503269196
 20
0.1334036546707153
 30
0.0560605122186244
 70
   192
  0
VERTEX
  5
5E2
  8
0
 10
-0.4654836210727691
 20
0.1639447895050049
 30
0.0740210256673396
 70
   192
  0
VERTEX
  5
5E3
  8
0
 10
-0.4804133299350739
 20
0.143395765209198
 30
0.0740210256673396
 70
   192
  0
VERTEX
  5
5E4
  8
0
 10
-0.4804133299350739
 20
0.143395765209198
 30
0.0
 70
   192
  0
VERTEX
  5
5E5
  8
0
 10
-0.4654836210727691
 20
0.1639447895050049
 30
0.0
 70
   192
  0
VERTEX
  5
5E6
  8
0
 10
-0.4034371176242828
 20
0.1502615161895752
 30
0.0179605122186244
 70
   192
  0
VERTEX
  5
5E7
  8
0
 10
-0.4482263653278351
 20
0.088614413022995
 30
0.0179605122186244
 70
   192
  0
VERTEX
  5
5E8
  8
0
 10
-0.4478269711017608
 20
0.1197203692436218
 30
0.0
 70
   192
  0
VERTEX
  5
5E9
  8
0
 10
-0.4328972380161285
 20
0.1402694056510925
 30
0.0
 70
   192
  0
VERTEX
  5
5EA
  8
0
 10
-0.4034371176242828
 20
0.1502615161895752
 30
0.0560605122186244
 70
   192
  0
VERTEX
  5
5EB
  8
0
 10
-0.4328972380161285
 20
0.1402694056510925
 30
0.0740210256673396
 70
   192
  0
VERTEX
  5
5EC
  8
0
 10
-0.4478269711017608
 20
0.1197203692436218
 30
0.0740210256673396
 70
   192
  0
VERTEX
  5
5ED
  8
0
 10
-0.4482263653278351
 20
0.088614413022995
 30
0.0560605122186244
 70
   192
  0
VERTEX
  5
5EE
  8
0
  6
BYBLOCK
 62
   251
 10
0.0
 20
0.0
 30
0.0
 70
   128
 71
     1
 72
    -2
 73
     3
  0
VERTEX
  5
5EF
  8
0
  6
BYBLOCK
 62
   251
 10
0.0
 20
0.0
 30
0.0
 70
   128
 71
     4
 72
    -3
 73
     2
  0
VERTEX
  5
5F0
  8
0
  6
BYBLOCK
 62
   251
 10
0.0
 20
0.0
 30
0.0
 70
   128
 71
     5
 72
    -3
 73
     6
  0
VERTEX
  5
5F1
  8
0
  6
BYBLOCK
 62
   251
 10
0.0
 20
0.0
 30
0.0
 70
   128
 71
     4
 72
    -6
 73
     3
  0
VERTEX
  5
5F2
  8
0
  6
BYBLOCK
 62
   251
 10
0.0
 20
0.0
 30
0.0
 70
   128
 71
     2
 72
    -1
 73
     7
  0
VERTEX
  5
5F3
  8
0
  6
BYBLOCK
 62
   251
 10
0.0
 20
0.0
 30
0.0
 70
   128
 71
     8
 72
    -7
 73
     1
  0
VERTEX
  5
5F4
  8
0
  6
BYBLOCK
 62
   251
 10
0.0
 20
0.0
 30
0.0
 70
   128
 71
     9
 72
    10
 73
   -11
  0
VERTEX
  5
5F5
  8
0
  6
BYBLOCK
 62
   251
 10
0.0
 20
0.0
 30
0.0
 70
   128
 71
    11
 72
    12
 73
    -9
  0
VERTEX
  5
5F6
  8
0
  6
BYBLOCK
 62
   251
 10
0.0
 20
0.0
 30
0.0
 70
   128
 71
    13
 72
    14
 73
   -15
  0
VERTEX
  5
5F7
  8
0
  6
BYBLOCK
 62
   251
 10
0.0
 20
0.0
 30
0.0
 70
   128
 71
    15
 72
    16
 73
   -13
  0
VERTEX
  5
5F8
  8
0
  6
BYBLOCK
 62
   251
 10
0.0
 20
0.0
 30
0.0
 70
   128
 71
    10
 72
     9
 73
   -13
  0
VERTEX
  5
5F9
  8
0
  6
BYBLOCK
 62
   251
 10
0.0
 20
0.0
 30
0.0
 70
   128
 71
    13
 72
    16
 73
   -10
  0
VERTEX
  5
5FA
  8
0
  6
BYBLOCK
 62
   251
 10
0.0
 20
0.0
 30
0.0
 70
   128
 71
    13
 72
    -3
 73
    14
  0
VERTEX
  5
5FB
  8
0
  6
BYBLOCK
 62
   251
 10
0.0
 20
0.0
 30
0.0
 70
   128
 71
     5
 72
   -14
 73
     3
  0
VERTEX
  5
5FC
  8
0
  6
BYBLOCK
 62
   251
 10
0.0
 20
0.0
 30
0.0
 70
   128
 71
    14
 72
    -5
 73
    15
  0
VERTEX
  5
5FD
  8
0
  6
BYBLOCK
 62
   251
 10
0.0
 20
0.0
 30
0.0
 70
   128
 71
     6
 72
   -15
 73
     5
  0
VERTEX
  5
5FE
  8
0
  6
BYBLOCK
 62
   251
 10
0.0
 20
0.0
 30
0.0
 70
   128
 71
    16
 72
   -15
 73
     4
  0
VERTEX
  5
5FF
  8
0
  6
BYBLOCK
 62
   251
 10
0.0
 20
0.0
 30
0.0
 70
   128
 71
     6
 72
    -4
 73
    15
  0
VERTEX
  5
600
  8
0
  6
BYBLOCK
 62
   251
 10
0.0
 20
0.0
 30
0.0
 70
   128
 71
     3
 72
    13
 73
    -9
  0
VERTEX
  5
601
  8
0
  6
BYBLOCK
 62
   251
 10
0.0
 20
0.0
 30
0.0
 70
   128
 71
     9
 72
     1
 73
    -3
  0
VERTEX
  5
602
  8
0
  6
BYBLOCK
 62
   251
 10
0.0
 20
0.0
 30
0.0
 70
   128
 71
     1
 72
     9
 73
   -12
  0
VERTEX
  5
603
  8
0
  6
BYBLOCK
 62
   251
 10
0.0
 20
0.0
 30
0.0
 70
   128
 71
    12
 72
     8
 73
    -1
  0
VERTEX
  5
604
  8
0
  6
BYBLOCK
 62
   251
 10
0.0
 20
0.0
 30
0.0
 70
   128
 71
     8
 72
    12
 73
   -11
  0
VERTEX
  5
605
  8
0
  6
BYBLOCK
 62
   251
 10
0.0
 20
0.0
 30
0.0
 70
   128
 71
    11
 72
     7
 73
    -8
  0
VERTEX
  5
606
  8
0
  6
BYBLOCK
 62
   251
 10
0.0
 20
0.0
 30
0.0
 70
   128
 71
     7
 72
    11
 73
   -10
  0
VERTEX
  5
607
  8
0
  6
BYBLOCK
 62
   251
 10
0.0
 20
0.0
 30
0.0
 70
   128
 71
    10
 72
     2
 73
    -7
  0
VERTEX
  5
608
  8
0
  6
BYBLOCK
 62
   251
 10
0.0
 20
0.0
 30
0.0
 70
   128
 71
     2
 72
    10
 73
   -16
  0
VERTEX
  5
609
  8
0
  6
BYBLOCK
 62
   251
 10
0.0
 20
0.0
 30
0.0
 70
   128
 71
    16
 72
     4
 73
    -2
  0
VERTEX
  5
60A
  8
0
  6
BYBLOCK
 62
   251
 10
0.0
 20
0.0
 30
0.0
 70
   128
 71
    17
 72
   -18
 73
    19
  0
VERTEX
  5
60B
  8
0
  6
BYBLOCK
 62
   251
 10
0.0
 20
0.0
 30
0.0
 70
   128
 71
    20
 72
   -19
 73
    18
  0
VERTEX
  5
60C
  8
0
  6
BYBLOCK
 62
   251
 10
0.0
 20
0.0
 30
0.0
 70
   128
 71
    21
 72
   -19
 73
    22
  0
VERTEX
  5
60D
  8
0
  6
BYBLOCK
 62
   251
 10
0.0
 20
0.0
 30
0.0
 70
   128
 71
    20
 72
   -22
 73
    19
  0
VERTEX
  5
60E
  8
0
  6
BYBLOCK
 62
   251
 10
0.0
 20
0.0
 30
0.0
 70
   128
 71
    18
 72
   -17
 73
    23
  0
VERTEX
  5
60F
  8
0
  6
BYBLOCK
 62
   251
 10
0.0
 20
0.0
 30
0.0
 70
   128
 71
    24
 72
   -23
 73
    17
  0
VERTEX
  5
610
  8
0
  6
BYBLOCK
 62
   251
 10
0.0
 20
0.0
 30
0.0
 70
   128
 71
    25
 72
    26
 73
   -27
  0
VERTEX
  5
611
  8
0
  6
BYBLOCK
 62
   251
 10
0.0
 20
0.0
 30
0.0
 70
   128
 71
    27
 72
    28
 73
   -25
  0
VERTEX
  5
612
  8
0
  6
BYBLOCK
 62
   251
 10
0.0
 20
0.0
 30
0.0
 70
   128
 71
    29
 72
    30
 73
   -31
  0
VERTEX
  5
613
  8
0
  6
BYBLOCK
 62
   251
 10
0.0
 20
0.0
 30
0.0
 70
   128
 71
    31
 72
    32
 73
   -29
  0
VERTEX
  5
614
  8
0
  6
BYBLOCK
 62
   251
 10
0.0
 20
0.0
 30
0.0
 70
   128
 71
    26
 72
    25
 73
   -29
  0
VERTEX
  5
615
  8
0
  6
BYBLOCK
 62
   251
 10
0.0
 20
0.0
 30
0.0
 70
   128
 71
    29
 72
    32
 73
   -26
  0
VERTEX
  5
616
  8
0
  6
BYBLOCK
 62
   251
 10
0.0
 20
0.0
 30
0.0
 70
   128
 71
    29
 72
   -19
 73
    30
  0
VERTEX
  5
617
  8
0
  6
BYBLOCK
 62
   251
 10
0.0
 20
0.0
 30
0.0
 70
   128
 71
    21
 72
   -30
 73
    19
  0
VERTEX
  5
618
  8
0
  6
BYBLOCK
 62
   251
 10
0.0
 20
0.0
 30
0.0
 70
   128
 71
    30
 72
   -21
 73
    31
  0
VERTEX
  5
619
  8
0
  6
BYBLOCK
 62
   251
 10
0.0
 20
0.0
 30
0.0
 70
   128
 71
    22
 72
   -31
 73
    21
  0
VERTEX
  5
61A
  8
0
  6
BYBLOCK
 62
   251
 10
0.0
 20
0.0
 30
0.0
 70
   128
 71
    32
 72
   -31
 73
    20
  0
VERTEX
  5
61B
  8
0
  6
BYBLOCK
 62
   251
 10
0.0
 20
0.0
 30
0.0
 70
   128
 71
    22
 72
   -20
 73
    31
  0
VERTEX
  5
61C
  8
0
  6
BYBLOCK
 62
   251
 10
0.0
 20
0.0
 30
0.0
 70
   128
 71
    19
 72
    29
 73
   -25
  0
VERTEX
  5
61D
  8
0
  6
BYBLOCK
 62
   251
 10
0.0
 20
0.0
 30
0.0
 70
   128
 71
    25
 72
    17
 73
   -19
  0
VERTEX
  5
61E
  8
0
  6
BYBLOCK
 62
   251
 10
0.0
 20
0.0
 30
0.0
 70
   128
 71
    17
 72
    25
 73
   -28
  0
VERTEX
  5
61F
  8
0
  6
BYBLOCK
 62
   251
 10
0.0
 20
0.0
 30
0.0
 70
   128
 71
    28
 72
    24
 73
   -17
  0
VERTEX
  5
620
  8
0
  6
BYBLOCK
 62
   251
 10
0.0
 20
0.0
 30
0.0
 70
   128
 71
    24
 72
    28
 73
   -27
  0
VERTEX
  5
621
  8
0
  6
BYBLOCK
 62
   251
 10
0.0
 20
0.0
 30
0.0
 70
   128
 71
    27
 72
    23
 73
   -24
  0
VERTEX
  5
622
  8
0
  6
BYBLOCK
 62
   251
 10
0.0
 20
0.0
 30
0.0
 70
   128
 71
    23
 72
    27
 73
   -26
  0
VERTEX
  5
623
  8
0
  6
BYBLOCK
 62
   251
 10
0.0
 20
0.0
 30
0.0
 70
   128
 71
    26
 72
    18
 73
   -23
  0
VERTEX
  5
624
  8
0
  6
BYBLOCK
 62
   251
 10
0.0
 20
0.0
 30
0.0
 70
   128
 71
    18
 72
    26
 73
   -32
  0
VERTEX
  5
625
  8
0
  6
BYBLOCK
 62
   251
 10
0.0
 20
0.0
 30
0.0
 70
   128
 71
    32
 72
    20
 73
   -18
  0
VERTEX
  5
626
  8
0
  6
BYBLOCK
 62
   251
 10
0.0
 20
0.0
 30
0.0
 70
   128
 71
    33
 72
   -34
 73
    35
  0
VERTEX
  5
627
  8
0
  6
BYBLOCK
 62
   251
 10
0.0
 20
0.0
 30
0.0
 70
   128
 71
    36
 72
   -35
 73
    34
  0
VERTEX
  5
628
  8
0
  6
BYBLOCK
 62
   251
 10
0.0
 20
0.0
 30
0.0
 70
   128
 71
    37
 72
   -35
 73
    38
  0
VERTEX
  5
629
  8
0
  6
BYBLOCK
 62
   251
 10
0.0
 20
0.0
 30
0.0
 70
   128
 71
    36
 72
   -38
 73
    35
  0
VERTEX
  5
62A
  8
0
  6
BYBLOCK
 62
   251
 10
0.0
 20
0.0
 30
0.0
 70
   128
 71
    34
 72
   -33
 73
    39
  0
VERTEX
  5
62B
  8
0
  6
BYBLOCK
 62
   251
 10
0.0
 20
0.0
 30
0.0
 70
   128
 71
    40
 72
   -39
 73
    33
  0
VERTEX
  5
62C
  8
0
  6
BYBLOCK
 62
   251
 10
0.0
 20
0.0
 30
0.0
 70
   128
 71
    41
 72
    42
 73
   -43
  0
VERTEX
  5
62D
  8
0
  6
BYBLOCK
 62
   251
 10
0.0
 20
0.0
 30
0.0
 70
   128
 71
    43
 72
    44
 73
   -41
  0
VERTEX
  5
62E
  8
0
  6
BYBLOCK
 62
   251
 10
0.0
 20
0.0
 30
0.0
 70
   128
 71
    45
 72
    46
 73
   -47
  0
VERTEX
  5
62F
  8
0
  6
BYBLOCK
 62
   251
 10
0.0
 20
0.0
 30
0.0
 70
   128
 71
    47
 72
    48
 73
   -45
  0
VERTEX
  5
630
  8
0
  6
BYBLOCK
 62
   251
 10
0.0
 20
0.0
 30
0.0
 70
   128
 71
    42
 72
    41
 73
   -45
  0
VERTEX
  5
631
  8
0
  6
BYBLOCK
 62
   251
 10
0.0
 20
0.0
 30
0.0
 70
   128
 71
    45
 72
    48
 73
   -42
  0
VERTEX
  5
632
  8
0
  6
BYBLOCK
 62
   251
 10
0.0
 20
0.0
 30
0.0
 70
   128
 71
    45
 72
   -35
 73
    46
  0
VERTEX
  5
633
  8
0
  6
BYBLOCK
 62
   251
 10
0.0
 20
0.0
 30
0.0
 70
   128
 71
    37
 72
   -46
 73
    35
  0
VERTEX
  5
634
  8
0
  6
BYBLOCK
 62
   251
 10
0.0
 20
0.0
 30
0.0
 70
   128
 71
    46
 72
   -37
 73
    47
  0
VERTEX
  5
635
  8
0
  6
BYBLOCK
 62
   251
 10
0.0
 20
0.0
 30
0.0
 70
   128
 71
    38
 72
   -47
 73
    37
  0
VERTEX
  5
636
  8
0
  6
BYBLOCK
 62
   251
 10
0.0
 20
0.0
 30
0.0
 70
   128
 71
    48
 72
   -47
 73
    36
  0
VERTEX
  5
637
  8
0
  6
BYBLOCK
 62
   251
 10
0.0
 20
0.0
 30
0.0
 70
   128
 71
    38
 72
   -36
 73
    47
  0
VERTEX
  5
638
  8
0
  6
BYBLOCK
 62
   251
 10
0.0
 20
0.0
 30
0.0
 70
   128
 71
    35
 72
    45
 73
   -41
  0
VERTEX
  5
639
  8
0
  6
BYBLOCK
 62
   251
 10
0.0
 20
0.0
 30
0.0
 70
   128
 71
    41
 72
    33
 73
   -35
  0
VERTEX
  5
63A
  8
0
  6
BYBLOCK
 62
   251
 10
0.0
 20
0.0
 30
0.0
 70
   128
 71
    33
 72
    41
 73
   -44
  0
VERTEX
  5
63B
  8
0
  6
BYBLOCK
 62
   251
 10
0.0
 20
0.0
 30
0.0
 70
   128
 71
    44
 72
    40
 73
   -33
  0
VERTEX
  5
63C
  8
0
  6
BYBLOCK
 62
   251
 10
0.0
 20
0.0
 30
0.0
 70
   128
 71
    40
 72
    44
 73
   -43
  0
VERTEX
  5
63D
  8
0
  6
BYBLOCK
 62
   251
 10
0.0
 20
0.0
 30
0.0
 70
   128
 71
    43
 72
    39
 73
   -40
  0
VERTEX
  5
63E
  8
0
  6
BYBLOCK
 62
   251
 10
0.0
 20
0.0
 30
0.0
 70
   128
 71
    39
 72
    43
 73
   -42
  0
VERTEX
  5
63F
  8
0
  6
BYBLOCK
 62
   251
 10
0.0
 20
0.0
 30
0.0
 70
   128
 71
    42
 72
    34
 73
   -39
  0
VERTEX
  5
640
  8
0
  6
BYBLOCK
 62
   251
 10
0.0
 20
0.0
 30
0.0
 70
   128
 71
    34
 72
    42
 73
   -48
  0
VERTEX
  5
641
  8
0
  6
BYBLOCK
 62
   251
 10
0.0
 20
0.0
 30
0.0
 70
   128
 71
    48
 72
    36
 73
   -34
  0
VERTEX
  5
642
  8
0
  6
BYBLOCK
 62
   251
 10
0.0
 20
0.0
 30
0.0
 70
   128
 71
    49
 72
   -50
 73
    51
  0
VERTEX
  5
643
  8
0
  6
BYBLOCK
 62
   251
 10
0.0
 20
0.0
 30
0.0
 70
   128
 71
    52
 72
   -51
 73
    50
  0
VERTEX
  5
644
  8
0
  6
BYBLOCK
 62
   251
 10
0.0
 20
0.0
 30
0.0
 70
   128
 71
    53
 72
   -51
 73
    54
  0
VERTEX
  5
645
  8
0
  6
BYBLOCK
 62
   251
 10
0.0
 20
0.0
 30
0.0
 70
   128
 71
    52
 72
   -54
 73
    51
  0
VERTEX
  5
646
  8
0
  6
BYBLOCK
 62
   251
 10
0.0
 20
0.0
 30
0.0
 70
   128
 71
    50
 72
   -49
 73
    55
  0
VERTEX
  5
647
  8
0
  6
BYBLOCK
 62
   251
 10
0.0
 20
0.0
 30
0.0
 70
   128
 71
    56
 72
   -55
 73
    49
  0
VERTEX
  5
648
  8
0
  6
BYBLOCK
 62
   251
 10
0.0
 20
0.0
 30
0.0
 70
   128
 71
    57
 72
    58
 73
   -59
  0
VERTEX
  5
649
  8
0
  6
BYBLOCK
 62
   251
 10
0.0
 20
0.0
 30
0.0
 70
   128
 71
    59
 72
    60
 73
   -57
  0
VERTEX
  5
64A
  8
0
  6
BYBLOCK
 62
   251
 10
0.0
 20
0.0
 30
0.0
 70
   128
 71
    61
 72
    62
 73
   -63
  0
VERTEX
  5
64B
  8
0
  6
BYBLOCK
 62
   251
 10
0.0
 20
0.0
 30
0.0
 70
   128
 71
    63
 72
    64
 73
   -61
  0
VERTEX
  5
64C
  8
0
  6
BYBLOCK
 62
   251
 10
0.0
 20
0.0
 30
0.0
 70
   128
 71
    58
 72
    57
 73
   -61
  0
VERTEX
  5
64D
  8
0
  6
BYBLOCK
 62
   251
 10
0.0
 20
0.0
 30
0.0
 70
   128
 71
    61
 72
    64
 73
   -58
  0
VERTEX
  5
64E
  8
0
  6
BYBLOCK
 62
   251
 10
0.0
 20
0.0
 30
0.0
 70
   128
 71
    61
 72
   -51
 73
    62
  0
VERTEX
  5
64F
  8
0
  6
BYBLOCK
 62
   251
 10
0.0
 20
0.0
 30
0.0
 70
   128
 71
    53
 72
   -62
 73
    51
  0
VERTEX
  5
650
  8
0
  6
BYBLOCK
 62
   251
 10
0.0
 20
0.0
 30
0.0
 70
   128
 71
    62
 72
   -53
 73
    63
  0
VERTEX
  5
651
  8
0
  6
BYBLOCK
 62
   251
 10
0.0
 20
0.0
 30
0.0
 70
   128
 71
    54
 72
   -63
 73
    53
  0
VERTEX
  5
652
  8
0
  6
BYBLOCK
 62
   251
 10
0.0
 20
0.0
 30
0.0
 70
   128
 71
    64
 72
   -63
 73
    52
  0
VERTEX
  5
653
  8
0
  6
BYBLOCK
 62
   251
 10
0.0
 20
0.0
 30
0.0
 70
   128
 71
    54
 72
   -52
 73
    63
  0
VERTEX
  5
654
  8
0
  6
BYBLOCK
 62
   251
 10
0.0
 20
0.0
 30
0.0
 70
   128
 71
    51
 72
    61
 73
   -57
  0
VERTEX
  5
655
  8
0
  6
BYBLOCK
 62
   251
 10
0.0
 20
0.0
 30
0.0
 70
   128
 71
    57
 72
    49
 73
   -51
  0
VERTEX
  5
656
  8
0
  6
BYBLOCK
 62
   251
 10
0.0
 20
0.0
 30
0.0
 70
   128
 71
    49
 72
    57
 73
   -60
  0
VERTEX
  5
657
  8
0
  6
BYBLOCK
 62
   251
 10
0.0
 20
0.0
 30
0.0
 70
   128
 71
    60
 72
    56
 73
   -49
  0
VERTEX
  5
658
  8
0
  6
BYBLOCK
 62
   251
 10
0.0
 20
0.0
 30
0.0
 70
   128
 71
    56
 72
    60
 73
   -59
  0
VERTEX
  5
659
  8
0
  6
BYBLOCK
 62
   251
 10
0.0
 20
0.0
 30
0.0
 70
   128
 71
    59
 72
    55
 73
   -56
  0
VERTEX
  5
65A
  8
0
  6
BYBLOCK
 62
   251
 10
0.0
 20
0.0
 30
0.0
 70
   128
 71
    55
 72
    59
 73
   -58
  0
VERTEX
  5
65B
  8
0
  6
BYBLOCK
 62
   251
 10
0.0
 20
0.0
 30
0.0
 70
   128
 71
    58
 72
    50
 73
   -55
  0
VERTEX
  5
65C
  8
0
  6
BYBLOCK
 62
   251
 10
0.0
 20
0.0
 30
0.0
 70
   128
 71
    50
 72
    58
 73
   -64
  0
VERTEX
  5
65D
  8
0
  6
BYBLOCK
 62
   251
 10
0.0
 20
0.0
 30
0.0
 70
   128
 71
    64
 72
    52
 73
   -50
  0
VERTEX
  5
65E
  8
0
  6
BYBLOCK
 62
   251
 10
0.0
 20
0.0
 30
0.0
 70
   128
 71
    65
 72
   -66
 73
    67
  0
VERTEX
  5
65F
  8
0
  6
BYBLOCK
 62
   251
 10
0.0
 20
0.0
 30
0.0
 70
   128
 71
    68
 72
   -67
 73
    66
  0
VERTEX
  5
660
  8
0
  6
BYBLOCK
 62
   251
 10
0.0
 20
0.0
 30
0.0
 70
   128
 71
    69
 72
   -67
 73
    70
  0
VERTEX
  5
661
  8
0
  6
BYBLOCK
 62
   251
 10
0.0
 20
0.0
 30
0.0
 70
   128
 71
    68
 72
   -70
 73
    67
  0
VERTEX
  5
662
  8
0
  6
BYBLOCK
 62
   251
 10
0.0
 20
0.0
 30
0.0
 70
   128
 71
    66
 72
   -65
 73
    71
  0
VERTEX
  5
663
  8
0
  6
BYBLOCK
 62
   251
 10
0.0
 20
0.0
 30
0.0
 70
   128
 71
    72
 72
   -71
 73
    65
  0
VERTEX
  5
664
  8
0
  6
BYBLOCK
 62
   251
 10
0.0
 20
0.0
 30
0.0
 70
   128
 71
    73
 72
    74
 73
   -75
  0
VERTEX
  5
665
  8
0
  6
BYBLOCK
 62
   251
 10
0.0
 20
0.0
 30
0.0
 70
   128
 71
    75
 72
    76
 73
   -73
  0
VERTEX
  5
666
  8
0
  6
BYBLOCK
 62
   251
 10
0.0
 20
0.0
 30
0.0
 70
   128
 71
    77
 72
    78
 73
   -79
  0
VERTEX
  5
667
  8
0
  6
BYBLOCK
 62
   251
 10
0.0
 20
0.0
 30
0.0
 70
   128
 71
    79
 72
    80
 73
   -77
  0
VERTEX
  5
668
  8
0
  6
BYBLOCK
 62
   251
 10
0.0
 20
0.0
 30
0.0
 70
   128
 71
    74
 72
    73
 73
   -77
  0
VERTEX
  5
669
  8
0
  6
BYBLOCK
 62
   251
 10
0.0
 20
0.0
 30
0.0
 70
   128
 71
    77
 72
    80
 73
   -74
  0
VERTEX
  5
66A
  8
0
  6
BYBLOCK
 62
   251
 10
0.0
 20
0.0
 30
0.0
 70
   128
 71
    77
 72
   -67
 73
    78
  0
VERTEX
  5
66B
  8
0
  6
BYBLOCK
 62
   251
 10
0.0
 20
0.0
 30
0.0
 70
   128
 71
    69
 72
   -78
 73
    67
  0
VERTEX
  5
66C
  8
0
  6
BYBLOCK
 62
   251
 10
0.0
 20
0.0
 30
0.0
 70
   128
 71
    78
 72
   -69
 73
    79
  0
VERTEX
  5
66D
  8
0
  6
BYBLOCK
 62
   251
 10
0.0
 20
0.0
 30
0.0
 70
   128
 71
    70
 72
   -79
 73
    69
  0
VERTEX
  5
66E
  8
0
  6
BYBLOCK
 62
   251
 10
0.0
 20
0.0
 30
0.0
 70
   128
 71
    80
 72
   -79
 73
    68
  0
VERTEX
  5
66F
  8
0
  6
BYBLOCK
 62
   251
 10
0.0
 20
0.0
 30
0.0
 70
   128
 71
    70
 72
   -68
 73
    79
  0
VERTEX
  5
670
  8
0
  6
BYBLOCK
 62
   251
 10
0.0
 20
0.0
 30
0.0
 70
   128
 71
    67
 72
    77
 73
   -73
  0
VERTEX
  5
671
  8
0
  6
BYBLOCK
 62
   251
 10
0.0
 20
0.0
 30
0.0
 70
   128
 71
    73
 72
    65
 73
   -67
  0
VERTEX
  5
672
  8
0
  6
BYBLOCK
 62
   251
 10
0.0
 20
0.0
 30
0.0
 70
   128
 71
    65
 72
    73
 73
   -76
  0
VERTEX
  5
673
  8
0
  6
BYBLOCK
 62
   251
 10
0.0
 20
0.0
 30
0.0
 70
   128
 71
    76
 72
    72
 73
   -65
  0
VERTEX
  5
674
  8
0
  6
BYBLOCK
 62
   251
 10
0.0
 20
0.0
 30
0.0
 70
   128
 71
    72
 72
    76
 73
   -75
  0
VERTEX
  5
675
  8
0
  6
BYBLOCK
 62
   251
 10
0.0
 20
0.0
 30
0.0
 70
   128
 71
    75
 72
    71
 73
   -72
  0
VERTEX
  5
676
  8
0
  6
BYBLOCK
 62
   251
 10
0.0
 20
0.0
 30
0.0
 70
   128
 71
    71
 72
    75
 73
   -74
  0
VERTEX
  5
677
  8
0
  6
BYBLOCK
 62
   251
 10
0.0
 20
0.0
 30
0.0
 70
   128
 71
    74
 72
    66
 73
   -71
  0
VERTEX
  5
678
  8
0
  6
BYBLOCK
 62
   251
 10
0.0
 20
0.0
 30
0.0
 70
   128
 71
    66
 72
    74
 73
   -80
  0
VERTEX
  5
679
  8
0
  6
BYBLOCK
 62
   251
 10
0.0
 20
0.0
 30
0.0
 70
   128
 71
    80
 72
    68
 73
   -66
  0
SEQEND
  5
67A
  8
0
  6
BYBLOCK
 62
   251
  0
INSERT
  5
BF3
  8
ASHADE
 62
     1
  2
AVE_RENDER
 10
0.0
 20
0.0
 30
0.0
1001
AVE_RENDER
1002
{
1070
     3
1000
Pref
1070
    50
1070
    20
1070
     1
1070
     0
1000

1070
    10
1070
     1
1070
    30
1040
1.0
1070
     1
1040
0.3
1040
0.7
1040
0.0
1040
10.0
1010
-1.0
1020
-1.0
1030
-1.0
1040
0.3
1070
    49
1070
     0
1070
     0
1002
}
  0
INSERT
  5
BF4
  8
ASHADE
 62
     3
  2
AVE_RENDER
 10
0.0
 20
0.0
 30
0.0
1001
AVE_RENDER
1002
{
1070
     0
1000
Full Opt
1070
     0
1070
     1
1070
     1
1070
     1
1070
     0
1070
     0
1070
     0
1070
     1
1070
     1
1040
0.0001
1040
0.0001
1002
}
  0
INSERT
  5
BF5
  8
ASHADE
 62
     4
  2
AVE_RENDER
 10
0.0
 20
0.0
 30
0.0
1001
AVE_RENDER
1002
{
1070
     0
1000
Quick Opt
1070
     0
1070
     1
1070
     1
1070
     1
1070
     0
1070
     0
1070
     1
1002
}
  0
INSERT
  5
BF6
  8
ASHADE
 62
     5
  2
AVE_RENDER
 10
0.0
 20
0.0
 30
0.0
1001
AVE_RENDER
1002
{
1070
     0
1000
Scanl Opt
1070
     2
1070
     0
1070
     2
1040
2.0
1040
4.0
1070
     0
1070
     1
1002
}
  0
INSERT
  5
BF7
  8
ASHADE
 62
     6
  2
AVE_RENDER
 10
0.0
 20
0.0
 30
0.0
1001
AVE_RENDER
1002
{
1070
     1
1000
Raytr Opt
1070
     2
1070
     0
1070
     2
1040
2.0
1040
4.0
1070
     0
1070
     1
1070
     3
1002
}
  0
INSERT
  5
BFA
  8
ASHADE
 62
     1
  2
AVE_GLOBAL
 10
0.0
 20
0.0
 30
0.0
1001
AVE_MATERIAL
1002
{
1000
*GLOBAL*
1000

1000
Global finish.
1002
{
1002
}
1002
{
1070
    63
1002
{
1002
{
1010
0.0
1020
0.0
1030
0.0
1002
}
1040
1.0
1000

1040
0.0
1002
{
1002
}
1040
0.0
1002
{
1002
}
1040
0.0
1002
}
1002
{
1002
{
1010
-1.0
1020
-1.0
1030
-1.0
1002
}
1040
1.0
1000

1040
0.0
1002
{
1002
}
1040
0.0
1002
{
1002
}
1040
0.0
1002
}
1002
{
1002
{
1010
1.0
1020
1.0
1030
1.0
1002
}
1040
1.0
1000

1040
0.0
1002
{
1002
}
1040
0.0
1002
{
1002
}
1040
0.0
1002
}
1002
{
1070
     0
1002
{
1070
     1
1002
{
1040
1.0
1040
1.0
1000

1040
0.0
1002
{
1002
}
1040
0.0
1002
{
1002
}
1040
0.0
1002
}
1002
}
1040
1.0
1040
0.0
1040
0.0
1002
}
1002
{
1040
1.0
1040
1.0
1000

1040
0.0
1002
{
1002
}
1040
0.0
1002
{
1002
}
1040
0.0
1002
}
1002
{
1040
0.5
1040
1.0
1000

1040
0.0
1002
{
1002
}
1040
0.0
1002
{
1002
}
1040
0.0
1002
}
1002
{
1070
     0
1040
0.0
1002
{
1002
}
1040
1.0
1002
{
1002
}
1040
0.0
1002
}
1002
{
1040
0.0
1002
{
1002
{
1010
0.0
1020
0.0
1030
0.0
1002
}
1040
1.0
1000

1040
0.0
1002
{
1002
}
1040
0.0
1002
{
1002
}
1040
0.0
1002
}
1002
}
1002
{
1002
{
1070
     1
1002
{
1040
0.0
1040
1.0
1000

1040
0.0
1002
{
1002
}
1040
0.0
1002
{
1002
}
1040
0.0
1002
}
1002
}
1040
0.0
1002
{
1002
}
1010
1.0
1020
0.0
1030
0.0
1010
0.0
1020
1.0
1030
0.0
1010
0.0
1020
0.0
1030
1.0
1070
     0
1002
}
1002
{
1002
{
1040
1.0
1040
1.0
1002
{
1070
     1
1002
{
1040
1.0
1040
1.0
1000

1040
0.0
1002
{
1002
}
1040
0.0
1002
{
1002
}
1040
0.0
1002
}
1002
}
1002
}
1070
     0
1040
0.0
1002
{
1002
}
1002
}
1002
{
1002
}
1002
}
1002
{
1071
        0
1070
     3
1070
     0
1002
{
1070
     2
1070
     0
1070
     0
1040
0.0
1002
}
1070
     0
1070
     2
1002
{
1002
}
1002
}
1002
}
  0
INSERT
  5
C54
  8
ASHADE
 66
     1
  2
RM_SDB
 10
0.0
 20
0.0
 30
0.0
1001
AVE_MATERIAL
1002
{
1000
BLACK MATTE
1000
0.11
1000

1002
{
1002
}
1002
{
1070
    39
1002
{
1002
{
1010
0.0666666701436043
1020
0.0666666701436043
1030
0.0666666701436043
1002
}
1040
1.0
1000

1040
0.0
1002
{
1002
}
1040
0.0
1002
{
1002
}
1040
0.0
1002
}
1002
{
1002
{
1010
0.0666666701436043
1020
0.0666666701436043
1030
0.0666666701436043
1002
}
1040
1.0
1000

1040
0.0
1002
{
1002
}
1040
0.0
1002
{
1002
}
1040
0.0
1002
}
1002
{
1002
{
1010
0.6117647290229797
1020
0.6117647290229797
1030
0.6117647290229797
1002
}
1040
1.0
1000

1040
0.0
1002
{
1002
}
1040
0.0
1002
{
1002
}
1040
0.0
1002
}
1002
{
1070
     0
1002
{
1070
     1
1002
{
1040
1.0
1040
1.0
1000

1040
0.0
1002
{
1002
}
1040
0.0
1002
{
1002
}
1040
0.0
1002
}
1002
}
1040
0.0
1040
0.0
1040
0.0
1002
}
1002
{
1040
0.0
1040
0.0
1000

1040
0.0
1002
{
1002
}
1040
0.0
1002
{
1002
}
1040
0.0
1002
}
1002
{
1040
0.9100000262260437
1040
1.0
1000

1040
0.0
1002
{
1002
}
1040
0.0
1002
{
1002
}
1040
0.0
1002
}
1002
{
1070
     0
1040
0.0
1002
{
1002
}
1040
0.0
1002
{
1002
}
1040
0.0
1002
}
1002
{
1040
0.0
1002
{
1002
{
1010
0.0
1020
0.0
1030
0.0
1002
}
1040
0.0
1000

1040
0.0
1002
{
1002
}
1040
0.0
1002
{
1002
}
1040
0.0
1002
}
1002
}
1002
{
1002
{
1070
     1
1002
{
1040
0.0
1040
1.0
1000

1040
0.0
1002
{
1002
}
1040
0.0
1002
{
1002
}
1040
0.0
1002
}
1002
}
1040
0.0
1002
{
1002
}
1010
0.0
1020
0.0
1030
0.0
1010
0.0
1020
0.0
1030
0.0
1010
0.0
1020
0.0
1030
0.0
1070
     0
1002
}
1002
{
1002
{
1040
0.0
1040
0.0
1002
{
1070
     0
1002
}
1002
}
1070
     0
1040
0.0
1002
{
1002
}
1002
}
1002
{
1002
}
1002
}
1002
{
1071
        0
1070
     3
1070
     0
1002
{
1070
     2
1070
     1
1070
     0
1040
0.0
1002
}
1070
     0
1070
     0
1002
{
1002
}
1002
}
1002
}
  0
ATTRIB
  5
C55
  8
ASHADE
  6
CONTINUOUS
 62
     1
 10
-1.028571428571428
 20
-0.15
 30
0.0
 40
0.2
  1
BLACK MATTE
  7
ASHADE
 72
     1
 11
0.0000000000000001
 21
-0.15
 31
0.0
  2
NAME
 70
     0
  0
ATTRIB
  5
C56
  8
ASHADE
  6
CONTINUOUS
 62
     1
 10
0.2300000000000001
 20
-0.4750000000000001
 30
0.0000000000000002
 40
0.1000000000000001
  1
 
  7
ASHADE
  2
ACADCOLOR
 70
     0
  0
ATTRIB
  5
C57
  8
ASHADE
  6
CONTINUOUS
 62
     7
 10
-0.1499999999999999
 20
-0.19
 30
0.0
 40
0.01
  1
0.0667,0.0667,0.0667
  7
STANDARD
  2
COLOR
 70
     1
  0
ATTRIB
  5
C58
  8
ASHADE
  6
CONTINUOUS
 62
     7
 10
-0.1499999999999999
 20
-0.205
 30
0.0
 40
0.01
  1
1.0,1.0,1.0
  7
STANDARD
  2
OPACITY
 70
     1
  0
ATTRIB
  5
C59
  8
ASHADE
  6
CONTINUOUS
 62
     7
 10
-0.1499999999999999
 20
-0.22
 30
0.0
 40
0.01
  1
("nullsurf" "")
  7
STANDARD
  2
SURFACE
 70
     1
  0
ATTRIB
  5
C5A
  8
ASHADE
  6
CONTINUOUS
 62
     7
 10
-0.1499999999999999
 20
-0.235
 30
0.0
 40
0.01
  1
(11 "Ka" "1")(11 "Kd" "1")(11 "Ks" "1")(11 "roughness" "0.91")
  7
STANDARD
  2
SURF1
 70
     1
  0
ATTRIB
  5
C5B
  8
ASHADE
  6
CONTINUOUS
 62
     7
 10
-0.1499999999999999
 20
-0.25
 30
0.0
 40
0.01
  1

  7
STANDARD
  2
SURF2
 70
     1
  0
ATTRIB
  5
C5C
  8
ASHADE
  6
CONTINUOUS
 62
     7
 10
-0.1499999999999999
 20
-0.265
 30
0.0
 40
0.01
  1

  7
STANDARD
  2
SURF3
 70
     1
  0
ATTRIB
  5
C5D
  8
ASHADE
  6
CONTINUOUS
 62
     7
 10
-0.1499999999999999
 20
-0.2799999999999999
 30
0.0
 40
0.01
  1

  7
STANDARD
  2
SURF4
 70
     1
  0
ATTRIB
  5
C5E
  8
ASHADE
  6
CONTINUOUS
 62
     7
 10
-0.1499999999999999
 20
-0.295
 30
0.0
 40
0.01
  1
-1.0
  7
STANDARD
  2
SHADINGRATE
 70
     1
  0
ATTRIB
  5
C5F
  8
ASHADE
  6
CONTINUOUS
 62
     7
 10
-0.1499999999999999
 20
-0.31
 30
0.0
 40
0.01
  1
("nulldisp" "")
  7
STANDARD
  2
DISPLACEMENT
 70
     1
  0
ATTRIB
  5
C60
  8
ASHADE
  6
CONTINUOUS
 62
     7
 10
-0.1499999999999999
 20
-0.325
 30
0.0
 40
0.01
  1

  7
STANDARD
  2
DISP1
 70
     1
  0
ATTRIB
  5
C61
  8
ASHADE
  6
CONTINUOUS
 62
     7
 10
-0.1499999999999999
 20
-0.34
 30
0.0
 40
0.01
  1

  7
STANDARD
  2
DISP2
 70
     1
  0
ATTRIB
  5
C62
  8
ASHADE
  6
CONTINUOUS
 62
     7
 10
-0.1499999999999999
 20
-0.355
 30
0.0
 40
0.01
  1

  7
STANDARD
  2
DISP3
 70
     1
  0
ATTRIB
  5
C63
  8
ASHADE
  6
CONTINUOUS
 62
     7
 10
-0.1499999999999999
 20
-0.3699999999999999
 30
0.0
 40
0.01
  1

  7
STANDARD
  2
DISP4
 70
     1
  0
ATTRIB
  5
C64
  8
ASHADE
  6
CONTINUOUS
 62
     7
 10
-0.1499999999999999
 20
-0.3849999999999998
 30
0.0
 40
0.01
  1
0.0
  7
STANDARD
  2
DBOUND
 70
     1
  0
ATTRIB
  5
C65
  8
ASHADE
  6
CONTINUOUS
 62
     7
 10
-0.1499999999999999
 20
-0.4
 30
0.0
 40
0.01
  1
0
  7
STANDARD
  2
SMOOTH
 70
     1
  0
ATTRIB
  5
C66
  8
ASHADE
  6
CONTINUOUS
 62
     7
 10
-0.1499999999999999
 20
-0.415
 30
0.0
 40
0.01
  1
("" "")
  7
STANDARD
  2
ATMOSPHERE
 70
     1
  0
ATTRIB
  5
C67
  8
ASHADE
  6
CONTINUOUS
 62
     7
 10
-0.15
 20
-0.4302404735808357
 30
0.0
 40
0.01
  1

  7
STANDARD
  2
ATMO1
 70
     1
  0
ATTRIB
  5
C68
  8
ASHADE
  6
CONTINUOUS
 62
     7
 10
-0.15
 20
-0.4452404735808357
 30
0.0
 40
0.01
  1

  7
STANDARD
  2
ATMO2
 70
     1
  0
ATTRIB
  5
C69
  8
ASHADE
  6
CONTINUOUS
 62
     7
 10
-0.15
 20
-0.4602404735808357
 30
0.0
 40
0.01
  1

  7
STANDARD
  2
ATMO3
 70
     1
  0
ATTRIB
  5
C6A
  8
ASHADE
  6
CONTINUOUS
 62
     7
 10
-0.15
 20
-0.4752404735808357
 30
0.0
 40
0.01
  1

  7
STANDARD
  2
ATMO4
 70
     1
  0
ATTRIB
  5
C6B
  8
ASHADE
  6
CONTINUOUS
 62
     7
 10
-0.1499999999999999
 20
-0.49
 30
0.0
 40
0.01
  1
0.0 0.0 1.0 0.0 0.0 1.0 1.0 1.0
  7
STANDARD
  2
TCOORD
 70
     1
  0
SEQEND
  5
C6C
  8
ASHADE
  0
INSERT
  5
C6D
  8
ASHADE
 66
     1
  2
RM_SDB
 10
0.0
 20
0.0
 30
0.0
1001
AVE_MATERIAL
1002
{
1000
BLACK PLASTIC
1000
0.11
1000

1002
{
1002
}
1002
{
1070
    39
1002
{
1002
{
1010
0.0
1020
0.0
1030
0.0
1002
}
1040
1.0
1000

1040
0.0
1002
{
1002
}
1040
0.0
1002
{
1002
}
1040
0.0
1002
}
1002
{
1002
{
1010
0.0
1020
0.0
1030
0.0
1002
}
1040
1.0
1000

1040
0.0
1002
{
1002
}
1040
0.0
1002
{
1002
}
1040
0.0
1002
}
1002
{
1002
{
1010
1.0
1020
1.0
1030
1.0
1002
}
1040
1.0
1000

1040
0.0
1002
{
1002
}
1040
0.0
1002
{
1002
}
1040
0.0
1002
}
1002
{
1070
     0
1002
{
1070
     1
1002
{
1040
1.0
1040
1.0
1000

1040
0.0
1002
{
1002
}
1040
0.0
1002
{
1002
}
1040
0.0
1002
}
1002
}
1040
0.0
1040
0.0
1040
0.0
1002
}
1002
{
1040
0.0
1040
0.0
1000

1040
0.0
1002
{
1002
}
1040
0.0
1002
{
1002
}
1040
0.0
1002
}
1002
{
1040
0.3100000023841858
1040
1.0
1000

1040
0.0
1002
{
1002
}
1040
0.0
1002
{
1002
}
1040
0.0
1002
}
1002
{
1070
     0
1040
0.0
1002
{
1002
}
1040
0.0
1002
{
1002
}
1040
0.0
1002
}
1002
{
1040
0.0
1002
{
1002
{
1010
0.0
1020
0.0
1030
0.0
1002
}
1040
0.0
1000

1040
0.0
1002
{
1002
}
1040
0.0
1002
{
1002
}
1040
0.0
1002
}
1002
}
1002
{
1002
{
1070
     1
1002
{
1040
0.0
1040
1.0
1000

1040
0.0
1002
{
1002
}
1040
0.0
1002
{
1002
}
1040
0.0
1002
}
1002
}
1040
0.0
1002
{
1002
}
1010
0.0
1020
0.0
1030
0.0
1010
0.0
1020
0.0
1030
0.0
1010
0.0
1020
0.0
1030
0.0
1070
     0
1002
}
1002
{
1002
{
1040
0.0
1040
0.0
1002
{
1070
     0
1002
}
1002
}
1070
     0
1040
0.0
1002
{
1002
}
1002
}
1002
{
1002
}
1002
}
1002
{
1071
        0
1070
     3
1070
     0
1002
{
1070
     2
1070
     1
1070
     0
1040
0.0
1002
}
1070
     0
1070
     0
1002
{
1002
}
1002
}
1002
}
  0
ATTRIB
  5
C6E
  8
ASHADE
  6
CONTINUOUS
 62
     1
 10
-1.152380952380952
 20
-0.15
 30
0.0
 40
0.2
  1
BLACK PLASTIC
  7
ASHADE
 72
     1
 11
0.0000000000000001
 21
-0.15
 31
0.0
  2
NAME
 70
     0
  0
ATTRIB
  5
C6F
  8
ASHADE
  6
CONTINUOUS
 62
     1
 10
0.2300000000000001
 20
-0.4750000000000001
 30
0.0000000000000002
 40
0.1000000000000001
  1
 
  7
ASHADE
  2
ACADCOLOR
 70
     0
  0
ATTRIB
  5
C70
  8
ASHADE
  6
CONTINUOUS
 62
     7
 10
-0.1499999999999999
 20
-0.19
 30
0.0
 40
0.01
  1
0.0000,0.0000,0.0000
  7
STANDARD
  2
COLOR
 70
     1
  0
ATTRIB
  5
C71
  8
ASHADE
  6
CONTINUOUS
 62
     7
 10
-0.1499999999999999
 20
-0.205
 30
0.0
 40
0.01
  1
1.0,1.0,1.0
  7
STANDARD
  2
OPACITY
 70
     1
  0
ATTRIB
  5
C72
  8
ASHADE
  6
CONTINUOUS
 62
     7
 10
-0.1499999999999999
 20
-0.22
 30
0.0
 40
0.01
  1
("nullsurf" "")
  7
STANDARD
  2
SURFACE
 70
     1
  0
ATTRIB
  5
C73
  8
ASHADE
  6
CONTINUOUS
 62
     7
 10
-0.1499999999999999
 20
-0.235
 30
0.0
 40
0.01
  1
(11 "Ka" "1")(11 "Kd" "1")(11 "Ks" "1")(11 "roughness" "0.31")
  7
STANDARD
  2
SURF1
 70
     1
  0
ATTRIB
  5
C74
  8
ASHADE
  6
CONTINUOUS
 62
     7
 10
-0.1499999999999999
 20
-0.25
 30
0.0
 40
0.01
  1

  7
STANDARD
  2
SURF2
 70
     1
  0
ATTRIB
  5
C75
  8
ASHADE
  6
CONTINUOUS
 62
     7
 10
-0.1499999999999999
 20
-0.265
 30
0.0
 40
0.01
  1

  7
STANDARD
  2
SURF3
 70
     1
  0
ATTRIB
  5
C76
  8
ASHADE
  6
CONTINUOUS
 62
     7
 10
-0.1499999999999999
 20
-0.2799999999999999
 30
0.0
 40
0.01
  1

  7
STANDARD
  2
SURF4
 70
     1
  0
ATTRIB
  5
C77
  8
ASHADE
  6
CONTINUOUS
 62
     7
 10
-0.1499999999999999
 20
-0.295
 30
0.0
 40
0.01
  1
-1.0
  7
STANDARD
  2
SHADINGRATE
 70
     1
  0
ATTRIB
  5
C78
  8
ASHADE
  6
CONTINUOUS
 62
     7
 10
-0.1499999999999999
 20
-0.31
 30
0.0
 40
0.01
  1
("nulldisp" "")
  7
STANDARD
  2
DISPLACEMENT
 70
     1
  0
ATTRIB
  5
C79
  8
ASHADE
  6
CONTINUOUS
 62
     7
 10
-0.1499999999999999
 20
-0.325
 30
0.0
 40
0.01
  1

  7
STANDARD
  2
DISP1
 70
     1
  0
ATTRIB
  5
C7A
  8
ASHADE
  6
CONTINUOUS
 62
     7
 10
-0.1499999999999999
 20
-0.34
 30
0.0
 40
0.01
  1

  7
STANDARD
  2
DISP2
 70
     1
  0
ATTRIB
  5
C7B
  8
ASHADE
  6
CONTINUOUS
 62
     7
 10
-0.1499999999999999
 20
-0.355
 30
0.0
 40
0.01
  1

  7
STANDARD
  2
DISP3
 70
     1
  0
ATTRIB
  5
C7C
  8
ASHADE
  6
CONTINUOUS
 62
     7
 10
-0.1499999999999999
 20
-0.3699999999999999
 30
0.0
 40
0.01
  1

  7
STANDARD
  2
DISP4
 70
     1
  0
ATTRIB
  5
C7D
  8
ASHADE
  6
CONTINUOUS
 62
     7
 10
-0.1499999999999999
 20
-0.3849999999999998
 30
0.0
 40
0.01
  1
0.0
  7
STANDARD
  2
DBOUND
 70
     1
  0
ATTRIB
  5
C7E
  8
ASHADE
  6
CONTINUOUS
 62
     7
 10
-0.1499999999999999
 20
-0.4
 30
0.0
 40
0.01
  1
0
  7
STANDARD
  2
SMOOTH
 70
     1
  0
ATTRIB
  5
C7F
  8
ASHADE
  6
CONTINUOUS
 62
     7
 10
-0.1499999999999999
 20
-0.415
 30
0.0
 40
0.01
  1
("" "")
  7
STANDARD
  2
ATMOSPHERE
 70
     1
  0
ATTRIB
  5
C80
  8
ASHADE
  6
CONTINUOUS
 62
     7
 10
-0.15
 20
-0.4302404735808357
 30
0.0
 40
0.01
  1

  7
STANDARD
  2
ATMO1
 70
     1
  0
ATTRIB
  5
C81
  8
ASHADE
  6
CONTINUOUS
 62
     7
 10
-0.15
 20
-0.4452404735808357
 30
0.0
 40
0.01
  1

  7
STANDARD
  2
ATMO2
 70
     1
  0
ATTRIB
  5
C82
  8
ASHADE
  6
CONTINUOUS
 62
     7
 10
-0.15
 20
-0.4602404735808357
 30
0.0
 40
0.01
  1

  7
STANDARD
  2
ATMO3
 70
     1
  0
ATTRIB
  5
C83
  8
ASHADE
  6
CONTINUOUS
 62
     7
 10
-0.15
 20
-0.4752404735808357
 30
0.0
 40
0.01
  1

  7
STANDARD
  2
ATMO4
 70
     1
  0
ATTRIB
  5
C84
  8
ASHADE
  6
CONTINUOUS
 62
     7
 10
-0.1499999999999999
 20
-0.49
 30
0.0
 40
0.01
  1
0.0 0.0 1.0 0.0 0.0 1.0 1.0 1.0
  7
STANDARD
  2
TCOORD
 70
     1
  0
SEQEND
  5
C85
  8
ASHADE
  0
POLYLINE
  5
CCA
  8
_KTI_CONTROL
 10
0.0
 20
0.0
 30
0.0
 66
     1
 70
     8
1001
_KTI_ARCHT
1070
 12000
1000
ENVIRONMENT
1070
 10003
1000
12zstg11
1070
 20000
1000
standard
1070
 20001
1000
c:\program files\ketiv\archt
1070
 20003
1000
d:\archt
1070
 20002
1000
c:\program files\ketiv\archt\tmp
1070
 20004
1002
{
1000
c:\program files\ketiv\archt\blks
1000
c:\program files\ketiv\archt\blks3d
1000
e:\archt\blks
1000
e:\archt\blks3d
1000
d:\archt\blks
1000
d:\archt\blks3d
1002
}
1070
 20005
1002
{
1000
c:\program files\ketiv\archt\slds
1002
}
1070
 20006
1002
{
1000
c:\program files\ketiv\archt\dclswin
1002
}
1070
 20007
1002
{
1000
c:\program files\ketiv\archt\docs
1000
e:\archt\docs
1000
d:\archt\docs
1002
}
1070
 20008
1002
{
1000
c:\program files\ketiv\archt\help
1002
}
  0
VERTEX
  5
CCB
  8
_KTI_CONTROL
 10
0.0
 20
0.0
 30
0.0
 70
    32
  0
VERTEX
  5
CCC
  8
_KTI_CONTROL
 10
0.0
 20
0.0
 30
0.0
 70
    32
  0
SEQEND
  5
CCD
  8
_KTI_CONTROL
  0
POLYLINE
  5
CCE
  8
_KTI_CONTROL
 10
0.0
 20
0.0
 30
0.0
 66
     1
 70
     8
1001
_KTI_ARCHT
1070
 12000
1000
ARCHTVARS
1070
 10003
1000
12zstg11
1070
 12030
1000
in
1070
 12020
1070
     1
1070
 12021
1070
     0
1070
 12070
1070
     0
1070
 12071
1070
     1
1070
 12907
1070
     0
1070
 12913
1070
     1
1070
 12914
1070
     1
1070
 12072
1070
     2
1070
 12073
1070
    48
1070
 12074
1070
     0
1070
 12080
1070
     1
1070
 12092
1070
     1
1070
 12096
1070
     0
1070
 12095
1070
     0
1070
 12081
1070
     1
1070
 12082
1070
     1
1070
 12083
1070
     1
1070
 12084
1070
     1
1070
 12085
1070
     0
1070
 12086
1070
     1
1070
 12087
1070
     0
1070
 12088
1070
     0
1070
 12097
1070
     1
1070
 12089
1070
     4
1070
 12090
1070
     6
1070
 12091
1070
     1
1070
 12045
1000
standard
1070
 12046
1000

1070
 12047
1000
standard
1070
 12048
1000

1070
 12049
1000

1070
 12093
1070
     1
1070
 12094
1070
     1
1070
 12908
1070
     0
1070
 12909
1070
     0
1070
 12911
1070
     0
1070
 12910
1070
     0
1070
 12912
1070
     0
1070
 12098
1070
   800
1070
 12060
1002
{
1000

1000

1000

1000

1002
}
1070
 12904
1002
{
1070
     0
1070
     0
1070
     0
1070
     0
1070
     0
1002
}
1070
 12905
1002
{
1040
0.0
1040
0.0
1040
0.0
1040
0.0
1040
0.0
1002
}
1070
 12906
1002
{
1000

1000

1000

1000

1000

1002
}
1070
 12040
1002
{
1002
}
  0
VERTEX
  5
CCF
  8
_KTI_CONTROL
 10
0.0
 20
0.0
 30
0.0
 70
    32
  0
VERTEX
  5
CD0
  8
_KTI_CONTROL
 10
0.0
 20
0.0
 30
0.0
 70
    32
  0
SEQEND
  5
CD1
  8
_KTI_CONTROL
  0
ENDSEC
  0
EOF
