  0
SECTION
  2
HEADER
  9
$ACADVER
  1
AC1009
  9
$DWGCODEPAGE
  3
ansi_1252
  9
$INSBASE
 10
0.0
 20
0.0
 30
0.0
  9
$EXTMIN
 10
-0.0003661829982491
 20
-0.3050839382968427
 30
-0.0000279031444665
  9
$EXTMAX
 10
0.6102905420240603
 20
0.3054299675972985
 30
0.9144279074024737
  9
$LIMMIN
 10
0.0
 20
0.0
  9
$LIMMAX
 10
12.0
 20
9.0
  9
$ORTHOMODE
 70
     0
  9
$REGENMODE
 70
     1
  9
$FILLMODE
 70
     1
  9
$QTEXTMODE
 70
     0
  9
$MIRRTEXT
 70
     1
  9
$DRAGMODE
 70
     2
  9
$LTSCALE
 40
1.0
  9
$OSMODE
 70
    37
  9
$ATTMODE
 70
     1
  9
$TEXTSIZE
 40
0.2
  9
$TRACEWID
 40
0.05
  9
$TEXTSTYLE
  7
STANDARD
  9
$CLAYER
  8
0
  9
$CELTYPE
  6
BYLAYER
  9
$CECOLOR
 62
   256
  9
$DIMSCALE
 40
1.0
  9
$DIMASZ
 40
0.18
  9
$DIMEXO
 40
0.0625
  9
$DIMDLI
 40
0.38
  9
$DIMRND
 40
0.0
  9
$DIMDLE
 40
0.0
  9
$DIMEXE
 40
0.18
  9
$DIMTP
 40
0.0
  9
$DIMTM
 40
0.0
  9
$DIMTXT
 40
0.18
  9
$DIMCEN
 40
0.09
  9
$DIMTSZ
 40
0.0
  9
$DIMTOL
 70
     0
  9
$DIMLIM
 70
     0
  9
$DIMTIH
 70
     1
  9
$DIMTOH
 70
     1
  9
$DIMSE1
 70
     0
  9
$DIMSE2
 70
     0
  9
$DIMTAD
 70
     0
  9
$DIMZIN
 70
     0
  9
$DIMBLK
  1

  9
$DIMASO
 70
     1
  9
$DIMSHO
 70
     0
  9
$DIMPOST
  1

  9
$DIMAPOST
  1

  9
$DIMALT
 70
     0
  9
$DIMALTD
 70
     2
  9
$DIMALTF
 40
25.4
  9
$DIMLFAC
 40
1.0
  9
$DIMTOFL
 70
     0
  9
$DIMTVP
 40
0.0
  9
$DIMTIX
 70
     0
  9
$DIMSOXD
 70
     0
  9
$DIMSAH
 70
     0
  9
$DIMBLK1
  1

  9
$DIMBLK2
  1

  9
$DIMSTYLE
  2
STANDARD
  9
$DIMCLRD
 70
     0
  9
$DIMCLRE
 70
     0
  9
$DIMCLRT
 70
     0
  9
$DIMTFAC
 40
1.0
  9
$DIMGAP
 40
0.09
  9
$LUNITS
 70
     2
  9
$LUPREC
 70
     4
  9
$SKETCHINC
 40
0.1
  9
$FILLETRAD
 40
0.0
  9
$AUNITS
 70
     0
  9
$AUPREC
 70
     0
  9
$MENU
  1
acad
  9
$ELEVATION
 40
0.0
  9
$PELEVATION
 40
0.0
  9
$THICKNESS
 40
0.0
  9
$LIMCHECK
 70
     0
  9
$CHAMFERA
 40
0.0
  9
$CHAMFERB
 40
0.0
  9
$SKPOLY
 70
     0
  9
$TDCREATE
 40
2447677.594191204
  9
$TDUPDATE
 40
2457521.808981481
  9
$TDINDWG
 40
0.0102727778
  9
$TDUSRTIMER
 40
0.0102727778
  9
$USRTIMER
 70
     1
  9
$ANGBASE
 50
0.0
  9
$ANGDIR
 70
     0
  9
$PDMODE
 70
     0
  9
$PDSIZE
 40
0.0
  9
$PLINEWID
 40
0.0
  9
$COORDS
 70
     1
  9
$SPLFRAME
 70
     0
  9
$SPLINETYPE
 70
     6
  9
$SPLINESEGS
 70
     8
  9
$ATTDIA
 70
     0
  9
$ATTREQ
 70
     1
  9
$HANDLING
 70
     1
  9
$HANDSEED
  5
10B
  9
$SURFTAB1
 70
     6
  9
$SURFTAB2
 70
     6
  9
$SURFTYPE
 70
     6
  9
$SURFU
 70
     6
  9
$SURFV
 70
     6
  9
$UCSNAME
  2

  9
$UCSORG
 10
0.0
 20
0.0
 30
0.0
  9
$UCSXDIR
 10
1.0
 20
0.0
 30
0.0
  9
$UCSYDIR
 10
0.0
 20
1.0
 30
0.0
  9
$PUCSNAME
  2

  9
$PUCSORG
 10
0.0
 20
0.0
 30
0.0
  9
$PUCSXDIR
 10
1.0
 20
0.0
 30
0.0
  9
$PUCSYDIR
 10
0.0
 20
1.0
 30
0.0
  9
$USERI1
 70
     0
  9
$USERI2
 70
     0
  9
$USERI3
 70
     0
  9
$USERI4
 70
     0
  9
$USERI5
 70
     0
  9
$USERR1
 40
0.0
  9
$USERR2
 40
0.0
  9
$USERR3
 40
0.0
  9
$USERR4
 40
0.0
  9
$USERR5
 40
0.0
  9
$WORLDVIEW
 70
     1
  9
$SHADEDGE
 70
     3
  9
$SHADEDIF
 70
    70
  9
$TILEMODE
 70
     1
  9
$MAXACTVP
 70
    48
  9
$PLIMCHECK
 70
     0
  9
$PEXTMIN
 10
1.000000000000000E+20
 20
1.000000000000000E+20
 30
1.000000000000000E+20
  9
$PEXTMAX
 10
-1.000000000000000E+20
 20
-1.000000000000000E+20
 30
-1.000000000000000E+20
  9
$PLIMMIN
 10
0.0
 20
0.0
  9
$PLIMMAX
 10
12.0
 20
9.0
  9
$UNITMODE
 70
     0
  9
$VISRETAIN
 70
     0
  9
$PLINEGEN
 70
     0
  9
$PSLTSCALE
 70
     0
  0
ENDSEC
  0
SECTION
  2
TABLES
  0
TABLE
  2
VPORT
 70
     1
  0
VPORT
  2
*ACTIVE
 70
     0
 10
0.0
 20
0.0
 11
1.0
 21
1.0
 12
0.2155184853065841
 22
0.4978731599159386
 13
0.0
 23
0.0
 14
1.0
 24
1.0
 15
0.0
 25
0.0
 16
-1.0
 26
-1.0
 36
1.0
 17
0.0
 27
0.0
 37
0.0
 40
1.25816160333611
 41
1.365217391304348
 42
50.0
 43
0.0
 44
0.0
 50
0.0
 51
0.0
 71
     0
 72
   100
 73
     1
 74
     1
 75
     0
 76
     0
 77
     0
 78
     0
  0
ENDTAB
  0
TABLE
  2
LTYPE
 70
     1
  0
LTYPE
  2
CONTINUOUS
 70
     0
  3
Solid line
 72
    65
 73
     0
 40
0.0
  0
ENDTAB
  0
TABLE
  2
LAYER
 70
     1
  0
LAYER
  2
0
 70
     0
 62
     7
  6
CONTINUOUS
  0
ENDTAB
  0
TABLE
  2
STYLE
 70
     1
  0
STYLE
  2
STANDARD
 70
     0
 40
0.0
 41
1.0
 50
0.0
 71
     0
 42
0.2
  3
txt
  4

  0
ENDTAB
  0
TABLE
  2
VIEW
 70
     0
  0
ENDTAB
  0
TABLE
  2
UCS
 70
     0
  0
ENDTAB
  0
TABLE
  2
APPID
 70
     1
  0
APPID
  2
ACAD
 70
     0
  0
ENDTAB
  0
TABLE
  2
DIMSTYLE
 70
     1
  0
DIMSTYLE
  2
STANDARD
 70
     0
  3

  4

  5

  6

  7

 40
1.0
 41
0.18
 42
0.0625
 43
0.38
 44
0.18
 45
0.0
 46
0.0
 47
0.0
 48
0.0
140
0.18
141
0.09
142
0.0
143
25.4
144
1.0
145
0.0
146
1.0
147
0.09
 71
     0
 72
     0
 73
     1
 74
     1
 75
     0
 76
     0
 77
     0
 78
     0
170
     0
171
     2
172
     0
173
     0
174
     0
175
     0
176
     0
177
     0
178
     0
  0
ENDTAB
  0
ENDSEC
  0
SECTION
  2
BLOCKS
  0
BLOCK
  8
0
  2
$MODEL_SPACE
 70
     0
 10
0.0
 20
0.0
 30
0.0
  3
$MODEL_SPACE
  1

  0
ENDBLK
  5
1F
  8
0
  0
BLOCK
 67
     1
  8
0
  2
$PAPER_SPACE
 70
     0
 10
0.0
 20
0.0
 30
0.0
  3
$PAPER_SPACE
  1

  0
ENDBLK
  5
1D
 67
     1
  8
0
  0
ENDSEC
  0
SECTION
  2
ENTITIES
  0
CIRCLE
  5
23
  8
0
 62
     0
 39
0.3302
 10
0.307975
 20
0.0
 30
0.0762
 40
0.0381
  0
CIRCLE
  5
24
  8
0
 62
     0
 10
0.307975
 20
0.0
 30
0.0
 40
0.2286
  0
POLYLINE
  5
25
  8
0
 62
     0
 66
     1
 10
0.0
 20
0.0
 30
0.0
 70
    48
 71
     2
 72
    12
  0
VERTEX
  5
26
  8
0
 62
     0
 10
0.346075
 20
0.0
 30
0.0762
 70
    64
  0
VERTEX
  5
27
  8
0
 62
     0
 10
0.3409705678841871
 20
0.01905
 30
0.0762
 70
    64
  0
VERTEX
  5
28
  8
0
 62
     0
 10
0.327025
 20
0.0329955678841871
 30
0.0762
 70
    64
  0
VERTEX
  5
29
  8
0
 62
     0
 10
0.307975
 20
0.0381
 30
0.0762
 70
    64
  0
VERTEX
  5
2A
  8
0
 62
     0
 10
0.288925
 20
0.0329955678841871
 30
0.0762
 70
    64
  0
VERTEX
  5
2B
  8
0
 62
     0
 10
0.2749794321158129
 20
0.01905
 30
0.0762
 70
    64
  0
VERTEX
  5
2C
  8
0
 62
     0
 10
0.269875
 20
0.0
 30
0.0762
 70
    64
  0
VERTEX
  5
2D
  8
0
 62
     0
 10
0.2749794321158129
 20
-0.01905
 30
0.0762
 70
    64
  0
VERTEX
  5
2E
  8
0
 62
     0
 10
0.288925
 20
-0.0329955678841871
 30
0.0762
 70
    64
  0
VERTEX
  5
2F
  8
0
 62
     0
 10
0.307975
 20
-0.0381
 30
0.0762
 70
    64
  0
VERTEX
  5
30
  8
0
 62
     0
 10
0.327025
 20
-0.0329955678841871
 30
0.0762
 70
    64
  0
VERTEX
  5
31
  8
0
 62
     0
 10
0.3409705678841871
 20
-0.01905
 30
0.0762
 70
    64
  0
VERTEX
  5
32
  8
0
 62
     0
 10
0.536575
 20
0.0
 30
0.0
 70
    64
  0
VERTEX
  5
33
  8
0
 62
     0
 10
0.5059484073051227
 20
0.1143
 30
0.0
 70
    64
  0
VERTEX
  5
34
  8
0
 62
     0
 10
0.422275
 20
0.1979734073051227
 30
0.0
 70
    64
  0
VERTEX
  5
35
  8
0
 62
     0
 10
0.307975
 20
0.2286
 30
0.0
 70
    64
  0
VERTEX
  5
36
  8
0
 62
     0
 10
0.193675
 20
0.1979734073051227
 30
0.0
 70
    64
  0
VERTEX
  5
37
  8
0
 62
     0
 10
0.1100015926948774
 20
0.1143000000000001
 30
0.0
 70
    64
  0
VERTEX
  5
38
  8
0
 62
     0
 10
0.079375
 20
0.0000000000000001
 30
0.0
 70
    64
  0
VERTEX
  5
39
  8
0
 62
     0
 10
0.1100015926948772
 20
-0.1142999999999998
 30
0.0
 70
    64
  0
VERTEX
  5
3A
  8
0
 62
     0
 10
0.1936749999999999
 20
-0.1979734073051226
 30
0.0
 70
    64
  0
VERTEX
  5
3B
  8
0
 62
     0
 10
0.3079749999999999
 20
-0.2286
 30
0.0
 70
    64
  0
VERTEX
  5
3C
  8
0
 62
     0
 10
0.422275
 20
-0.1979734073051226
 30
0.0
 70
    64
  0
VERTEX
  5
3D
  8
0
 62
     0
 10
0.5059484073051227
 20
-0.1142999999999999
 30
0.0
 70
    64
  0
SEQEND
  5
3E
  8
0
 62
     0
  0
POLYLINE
  5
3F
  8
0
 62
     0
 66
     1
 10
0.0
 20
0.0
 30
0.4064
 39
0.2032
 40
0.0508
 41
0.0508
  0
VERTEX
  5
F6
  8
0
 62
     0
 10
0.0762
 20
-0.2794
 30
0.4064
  0
VERTEX
  5
F7
  8
0
 62
     0
 10
0.4064
 20
-0.2794
 30
0.4064
  0
SEQEND
  5
104
  8
0
 62
     0
  0
POLYLINE
  5
43
  8
0
 62
     0
 66
     1
 10
0.0
 20
0.0
 30
0.4064
 39
0.127
 40
0.0508
 41
0.0508
  0
VERTEX
  5
F8
  8
0
 62
     0
 10
0.0
 20
-0.2794
 30
0.4064
  0
VERTEX
  5
F9
  8
0
 62
     0
 10
0.0762
 20
-0.2794
 30
0.4064
  0
SEQEND
  5
105
  8
0
 62
     0
  0
POLYLINE
  5
47
  8
0
 62
     0
 66
     1
 10
0.0
 20
0.0
 30
0.4064
 39
0.127
 40
0.0508
 41
0.0508
  0
VERTEX
  5
FA
  8
0
 62
     0
 10
0.0
 20
0.2794
 30
0.4064
  0
VERTEX
  5
FB
  8
0
 62
     0
 10
0.0762
 20
0.2794
 30
0.4064
  0
SEQEND
  5
106
  8
0
 62
     0
  0
POLYLINE
  5
4B
  8
0
 62
     0
 66
     1
 10
0.0
 20
0.0
 30
0.4064
 39
0.2032
 40
0.0508
 41
0.0508
  0
VERTEX
  5
FC
  8
0
 62
     0
 10
0.0762
 20
0.2794
 30
0.4064
  0
VERTEX
  5
FD
  8
0
 62
     0
 10
0.4064
 20
0.2794
 30
0.4064
  0
SEQEND
  5
107
  8
0
 62
     0
  0
POLYLINE
  5
4F
  8
0
 62
     0
 66
     1
 10
0.0
 20
0.0
 30
0.254
 39
0.0508
 40
0.0762
 41
0.0762
210
0.0
220
-1.0
230
-1.837722682362930E-16
  0
VERTEX
  5
FE
  8
0
 62
     0
 10
0.0762
 20
0.5715
 30
0.254
 42
0.414213562373095
  0
VERTEX
  5
FF
  8
0
 62
     0
 10
0.0381
 20
0.5334
 30
0.254
 42
0.6180339887498946
  0
SEQEND
  5
108
  8
0
 62
     0
  0
POLYLINE
  5
53
  8
0
 62
     0
 66
     1
 10
0.0
 20
0.0
 30
-0.3048
 39
0.0508
 40
0.0762
 41
0.0762
210
0.0
220
-1.0
230
-1.837722682362930E-16
  0
VERTEX
  5
100
  8
0
 62
     0
 10
0.0762
 20
0.5714999999999999
 30
-0.3048
 42
0.414213562373095
  0
VERTEX
  5
101
  8
0
 62
     0
 10
0.0381
 20
0.5333999999999999
 30
-0.3048
 42
0.6180339887498946
  0
SEQEND
  5
109
  8
0
 62
     0
  0
3DFACE
  5
57
  8
0
 62
     0
 10
0.4064
 20
-0.3048
 30
0.4064
 11
0.4064
 21
-0.3048
 31
0.6095999999999999
 12
0.4444999999999997
 22
-0.3016250000000002
 32
0.6349999999999996
 13
0.4444999999999997
 23
-0.3016250000000002
 33
0.4064
  0
3DFACE
  5
58
  8
0
 62
     0
 10
0.4444999999999996
 20
-0.3016250000000002
 30
0.4064
 11
0.4444999999999996
 21
-0.3016250000000002
 31
0.6349999999999996
 12
0.4667249999999999
 22
-0.2984500000000002
 32
0.676275
 13
0.4667249999999999
 23
-0.2984500000000002
 33
0.4064
  0
3DFACE
  5
59
  8
0
 62
     0
 10
0.4667249999999999
 20
-0.2984500000000002
 30
0.4064
 11
0.4667249999999999
 21
-0.2984500000000002
 31
0.676275
 12
0.5143499999999999
 22
-0.2698750000000003
 32
0.7683499999999999
 13
0.5143499999999999
 23
-0.2698750000000003
 33
0.4064
  0
3DFACE
  5
5A
  8
0
 62
     0
 10
0.5143499999999999
 20
-0.2698750000000003
 30
0.4064
 11
0.5143499999999999
 21
-0.2698750000000003
 31
0.7683499999999999
 12
0.555625
 22
-0.2159000000000002
 32
0.847725
 13
0.555625
 23
-0.2159000000000002
 33
0.4064
  0
3DFACE
  5
5B
  8
0
 62
     0
 10
0.5556249999999999
 20
-0.2159000000000003
 30
0.4064
 11
0.555625
 21
-0.2159000000000002
 31
0.847725
 12
0.5842
 22
-0.1555750000000002
 32
0.89535
 13
0.5842
 23
-0.1555750000000002
 33
0.4064
  0
3DFACE
  5
5C
  8
0
 62
     0
 10
0.5842
 20
-0.1555750000000002
 30
0.4064
 11
0.5841999999999999
 21
-0.1555750000000003
 31
0.89535
 12
0.606425
 22
-0.0762000000000003
 32
0.9144
 13
0.606425
 23
-0.0762000000000003
 33
0.4064
  0
3DFACE
  5
5D
  8
0
 62
     0
 10
0.606425
 20
-0.0762000000000003
 30
0.4064
 11
0.606425
 21
-0.0762000000000005
 31
0.9144
 12
0.6095999999999999
 22
-0.0000000000000003
 32
0.9144
 13
0.6095999999999999
 23
-0.0000000000000003
 33
0.4064
  0
3DFACE
  5
5E
  8
0
 62
     0
 10
0.606425
 20
0.0761999999999999
 30
0.4064
 11
0.606425
 21
0.0761999999999999
 31
0.9144
 12
0.6095999999999999
 22
-0.0000000000000003
 32
0.9144
 13
0.6095999999999999
 23
-0.0000000000000001
 33
0.4064
  0
3DFACE
  5
5F
  8
0
 62
     0
 10
0.5842
 20
0.1555749999999998
 30
0.4064000000000001
 11
0.5841999999999999
 21
0.1555749999999997
 31
0.89535
 12
0.606425
 22
0.0761999999999997
 32
0.9144
 13
0.606425
 23
0.0761999999999999
 33
0.4064
  0
3DFACE
  5
60
  8
0
 62
     0
 10
0.5556249999999999
 20
0.2159
 30
0.4064000000000001
 11
0.555625
 21
0.2158999999999997
 31
0.847725
 12
0.5842
 22
0.1555749999999997
 32
0.89535
 13
0.5842
 23
0.1555749999999998
 33
0.4064000000000001
  0
3DFACE
  5
61
  8
0
 62
     0
 10
0.5143499999999999
 20
0.2698749999999999
 30
0.4064000000000001
 11
0.5143499999999999
 21
0.2698749999999998
 31
0.76835
 12
0.555625
 22
0.2158999999999997
 32
0.847725
 13
0.555625
 23
0.2158999999999998
 33
0.4064000000000001
  0
3DFACE
  5
62
  8
0
 62
     0
 10
0.4667250000000001
 20
0.2984499999999999
 30
0.4064000000000001
 11
0.4667250000000001
 21
0.2984499999999998
 31
0.6762750000000001
 12
0.5143499999999999
 22
0.2698749999999998
 32
0.76835
 13
0.5143499999999999
 23
0.2698749999999999
 33
0.4064000000000001
  0
3DFACE
  5
63
  8
0
 62
     0
 10
0.4444999999999998
 20
0.3016249999999999
 30
0.4064000000000001
 11
0.4444999999999998
 21
0.3016249999999998
 31
0.6349999999999996
 12
0.4667250000000001
 22
0.2984499999999998
 32
0.6762750000000001
 13
0.4667250000000001
 23
0.2984499999999999
 33
0.4064000000000001
  0
3DFACE
  5
64
  8
0
 62
     0
 10
0.4064000000000002
 20
0.3047999999999997
 30
0.4064000000000001
 11
0.4064000000000002
 21
0.3047999999999997
 31
0.6096
 12
0.4444999999999999
 22
0.3016249999999998
 32
0.6349999999999997
 13
0.4444999999999999
 23
0.3016249999999999
 33
0.4064000000000001
  0
POLYLINE
  5
65
  8
0
 62
     0
 66
     1
 10
0.0
 20
0.0
 30
0.4064
 39
0.1016
 40
0.5016499999999999
 41
0.5016499999999999
  0
VERTEX
  5
102
  8
0
 62
     0
 10
0.4064
 20
0.0
 30
0.4064
  0
VERTEX
  5
103
  8
0
 62
     0
 10
0.0
 20
0.0
 30
0.4064
  0
SEQEND
  5
10A
  8
0
 62
     0
  0
3DFACE
  5
69
  8
0
 62
     0
 10
0.4064000000000001
 20
-0.2540000000000001
 30
0.6095999999999999
 11
0.4064
 21
-0.3048
 31
0.6095999999999999
 12
0.4444999999999996
 22
-0.3016250000000002
 32
0.6349999999999996
 13
0.4373157951031441
 23
-0.2515454692497522
 33
0.6349999999999996
  0
3DFACE
  5
6A
  8
0
 62
     0
 10
0.4496829082820586
 20
-0.2508250000000002
 30
0.6762749999999998
 11
0.4667249999999999
 21
-0.2984500000000002
 31
0.676275
 12
0.4444999999999996
 22
-0.3016250000000002
 32
0.6349999999999996
 13
0.4373157951031441
 23
-0.2515454692497522
 33
0.6349999999999996
  0
3DFACE
  5
6B
  8
0
 62
     0
 10
0.4496829082820586
 20
-0.2508250000000002
 30
0.6762749999999998
 11
0.4801434633814325
 21
-0.2317750000000003
 31
0.7683499999999999
 12
0.5143499999999999
 22
-0.2698750000000003
 32
0.7683499999999999
 13
0.4667249999999999
 23
-0.2984500000000002
 33
0.676275
  0
3DFACE
  5
6C
  8
0
 62
     0
 10
0.5117660562429871
 20
-0.1873250000000002
 30
0.847725
 11
0.555625
 21
-0.2159000000000002
 31
0.847725
 12
0.5143499999999999
 22
-0.2698750000000003
 32
0.7683499999999999
 13
0.4801434633814324
 23
-0.2317750000000002
 33
0.7683499999999999
  0
3DFACE
  5
6D
  8
0
 62
     0
 10
0.5354027132270439
 20
-0.1365250000000002
 30
0.89535
 11
0.5841999999999999
 21
-0.1555749999999999
 31
0.8953499999999998
 12
0.5556249999999999
 22
-0.2159
 32
0.847725
 13
0.5117660562429871
 23
-0.1873250000000002
 33
0.847725
  0
3DFACE
  5
6E
  8
0
 62
     0
 10
0.5543889118089156
 20
-0.0698500000000001
 30
0.9144
 11
0.5354027132270439
 21
-0.1365250000000001
 31
0.89535
 12
0.5842
 22
-0.1555750000000002
 32
0.89535
 13
0.606425
 23
-0.0762000000000003
 33
0.9144
  0
3DFACE
  5
6F
  8
0
 62
     0
 10
0.5588
 20
0.0
 30
0.9144
 11
0.6095999999999999
 21
0.0
 31
0.9144
 12
0.6064249999999999
 22
-0.0762000000000003
 32
0.9144
 13
0.5543889118089156
 23
-0.0698500000000001
 33
0.9144
  0
3DFACE
  5
70
  8
0
 62
     0
 10
0.4496829082820586
 20
0.2508250000000002
 30
0.6762749999999998
 11
0.4667249999999999
 21
0.2984500000000002
 31
0.676275
 12
0.4444999999999996
 22
0.3016250000000002
 32
0.6349999999999996
 13
0.4373157951031441
 23
0.2515454692497522
 33
0.6349999999999996
  0
3DFACE
  5
71
  8
0
 62
     0
 10
0.4064000000000001
 20
0.2540000000000001
 30
0.6095999999999999
 11
0.4064
 21
0.3048
 31
0.6095999999999999
 12
0.4444999999999996
 22
0.3016250000000002
 32
0.6349999999999996
 13
0.4373157951031441
 23
0.2515454692497522
 33
0.6349999999999996
  0
3DFACE
  5
72
  8
0
 62
     0
 10
0.5117660562429871
 20
0.1873250000000002
 30
0.847725
 11
0.555625
 21
0.2159000000000002
 31
0.847725
 12
0.5143499999999999
 22
0.2698750000000003
 32
0.7683499999999999
 13
0.4801434633814324
 23
0.2317750000000002
 33
0.7683499999999999
  0
3DFACE
  5
73
  8
0
 62
     0
 10
0.4496829082820586
 20
0.2508250000000002
 30
0.6762749999999998
 11
0.4801434633814325
 21
0.2317750000000003
 31
0.7683499999999999
 12
0.5143499999999999
 22
0.2698750000000003
 32
0.7683499999999999
 13
0.4667249999999999
 23
0.2984500000000002
 33
0.676275
  0
3DFACE
  5
74
  8
0
 62
     0
 10
0.5543889118089156
 20
0.0698500000000001
 30
0.9144
 11
0.5354027132270439
 21
0.1365250000000001
 31
0.89535
 12
0.5842
 22
0.1555750000000002
 32
0.89535
 13
0.606425
 23
0.0762000000000003
 33
0.9144
  0
3DFACE
  5
75
  8
0
 62
     0
 10
0.5354027132270439
 20
0.1365250000000002
 30
0.89535
 11
0.5841999999999999
 21
0.1555749999999999
 31
0.8953499999999998
 12
0.5556249999999999
 22
0.2159
 32
0.847725
 13
0.5117660562429871
 23
0.1873250000000002
 33
0.847725
  0
3DFACE
  5
76
  8
0
 62
     0
 10
0.5588
 20
0.0
 30
0.9144
 11
0.6095999999999999
 21
0.0
 31
0.9144
 12
0.6064249999999999
 22
0.0762000000000003
 32
0.9144
 13
0.5543889118089156
 23
0.0698500000000001
 33
0.9144
  0
3DFACE
  5
77
  8
0
 62
     0
 10
0.5588
 20
0.0
 30
0.9144
 11
0.5543889118089156
 21
-0.0698500000000003
 31
0.9144
 12
0.5543889118089156
 22
-0.06985
 32
0.4064
 13
0.5588000000000001
 23
0.0
 33
0.4064
  0
3DFACE
  5
78
  8
0
 62
     0
 10
0.5543889118089156
 20
-0.0698500000000004
 30
0.9144
 11
0.535402713227044
 21
-0.1365250000000001
 31
0.89535
 12
0.535402713227044
 22
-0.1365250000000002
 32
0.4064
 13
0.5543889118089155
 23
-0.0698500000000002
 33
0.4064
  0
3DFACE
  5
79
  8
0
 62
     0
 10
0.535402713227044
 20
-0.1365250000000001
 30
0.89535
 11
0.5117660562429871
 21
-0.1873250000000002
 31
0.847725
 12
0.5117660562429871
 22
-0.1873250000000002
 32
0.4064
 13
0.535402713227044
 23
-0.1365250000000002
 33
0.4064
  0
3DFACE
  5
7A
  8
0
 62
     0
 10
0.5117660562429871
 20
-0.1873250000000002
 30
0.8477249999999998
 11
0.4801434633814327
 21
-0.231775
 31
0.7683500000000004
 12
0.4801434633814324
 22
-0.2317750000000003
 32
0.4063999999999999
 13
0.5117660562429873
 23
-0.187325
 33
0.4064
  0
3DFACE
  5
7B
  8
0
 62
     0
 10
0.4801434633814325
 20
-0.2317750000000002
 30
0.7683500000000001
 11
0.4496829082820584
 21
-0.2508250000000002
 31
0.6762749999999995
 12
0.4496829082820586
 22
-0.2508250000000002
 32
0.4064
 13
0.4801434633814324
 23
-0.2317750000000003
 33
0.4063999999999999
  0
3DFACE
  5
7C
  8
0
 62
     0
 10
0.4496829082820586
 20
-0.2508250000000002
 30
0.4064
 11
0.4496829082820586
 21
-0.2508250000000002
 31
0.6762749999999998
 12
0.4373157951031441
 22
-0.2515454692497522
 32
0.6349999999999996
 13
0.4373157951031442
 23
-0.2515454692497522
 33
0.4064
  0
3DFACE
  5
7D
  8
0
 62
     0
 10
0.4373157951031442
 20
-0.2515454692497522
 30
0.4064
 11
0.4064000000000001
 21
-0.2540000000000001
 31
0.4064
 12
0.4064000000000001
 22
-0.2540000000000001
 32
0.6095999999999999
 13
0.4373157951031441
 23
-0.2515454692497522
 33
0.6349999999999996
  0
3DFACE
  5
7E
  8
0
 62
     0
 10
0.4373157951031442
 20
0.2515454692497522
 30
0.4064
 11
0.4064000000000001
 21
0.2540000000000001
 31
0.4064
 12
0.4064000000000001
 22
0.2540000000000001
 32
0.6095999999999999
 13
0.4373157951031441
 23
0.2515454692497522
 33
0.6349999999999996
  0
3DFACE
  5
7F
  8
0
 62
     0
 10
0.4496829082820586
 20
0.2508250000000002
 30
0.4064
 11
0.4496829082820586
 21
0.2508250000000002
 31
0.6762749999999998
 12
0.4373157951031441
 22
0.2515454692497522
 32
0.6349999999999996
 13
0.4373157951031442
 23
0.2515454692497522
 33
0.4064
  0
3DFACE
  5
80
  8
0
 62
     0
 10
0.4801434633814325
 20
0.2317750000000002
 30
0.7683500000000001
 11
0.4496829082820584
 21
0.2508250000000002
 31
0.6762749999999995
 12
0.4496829082820586
 22
0.2508250000000002
 32
0.4064
 13
0.4801434633814324
 23
0.2317750000000003
 33
0.4063999999999999
  0
3DFACE
  5
81
  8
0
 62
     0
 10
0.5117660562429871
 20
0.1873250000000002
 30
0.8477249999999998
 11
0.4801434633814327
 21
0.231775
 31
0.7683500000000004
 12
0.4801434633814324
 22
0.2317750000000003
 32
0.4063999999999999
 13
0.5117660562429873
 23
0.187325
 33
0.4064
  0
3DFACE
  5
82
  8
0
 62
     0
 10
0.535402713227044
 20
0.1365250000000001
 30
0.89535
 11
0.5117660562429871
 21
0.1873250000000002
 31
0.847725
 12
0.5117660562429871
 22
0.1873250000000002
 32
0.4064
 13
0.535402713227044
 23
0.1365250000000002
 33
0.4064
  0
3DFACE
  5
83
  8
0
 62
     0
 10
0.5543889118089156
 20
0.0698500000000004
 30
0.9144
 11
0.535402713227044
 21
0.1365250000000001
 31
0.89535
 12
0.535402713227044
 22
0.1365250000000002
 32
0.4064
 13
0.5543889118089155
 23
0.0698500000000002
 33
0.4064
  0
3DFACE
  5
84
  8
0
 62
     0
 10
0.5588
 20
0.0
 30
0.9144
 11
0.5543889118089156
 21
0.0698500000000003
 31
0.9144
 12
0.5543889118089156
 22
0.06985
 32
0.4064
 13
0.5588000000000001
 23
0.0
 33
0.4064
  0
3DFACE
  5
85
  8
0
 62
     0
 10
0.4064
 20
0.0
 30
0.508
 11
0.4063999999999999
 21
-0.254
 31
0.508
 12
0.4373157951031442
 22
-0.2515454692497522
 32
0.508
 13
0.4373157951031442
 23
-0.2515454692497522
 33
0.508
  0
3DFACE
  5
86
  8
0
 62
     0
 10
0.4064
 20
0.0
 30
0.508
 11
0.4373157951031438
 21
-0.2515454692497522
 31
0.508
 12
0.4496829082820585
 22
-0.2508250000000002
 32
0.508
 13
0.4496829082820585
 23
-0.2508250000000002
 33
0.508
  0
3DFACE
  5
87
  8
0
 62
     0
 10
0.4064
 20
0.0
 30
0.508
 11
0.4496829082820586
 21
-0.2508250000000002
 31
0.508
 12
0.4801434633814324
 22
-0.2317750000000003
 32
0.508
 13
0.4801434633814324
 23
-0.2317750000000003
 33
0.508
  0
3DFACE
  5
88
  8
0
 62
     0
 10
0.4064
 20
0.0
 30
0.508
 11
0.4801434633814325
 21
-0.2317750000000002
 31
0.508
 12
0.5117660562429874
 22
-0.1873250000000001
 32
0.508
 13
0.5117660562429874
 23
-0.1873250000000001
 33
0.508
  0
3DFACE
  5
89
  8
0
 62
     0
 10
0.4063999999999999
 20
0.0
 30
0.508
 11
0.5117660562429871
 21
-0.1873250000000005
 31
0.508
 12
0.5354027132270439
 22
-0.1365250000000001
 32
0.508
 13
0.5354027132270439
 23
-0.1365250000000001
 33
0.508
  0
3DFACE
  5
8A
  8
0
 62
     0
 10
0.4064000000000001
 20
-0.0000000000000002
 30
0.508
 11
0.5354027132270439
 21
-0.1365250000000001
 31
0.508
 12
0.5543889118089155
 22
-0.0698500000000001
 32
0.508
 13
0.5543889118089155
 23
-0.0698500000000001
 33
0.508
  0
3DFACE
  5
8B
  8
0
 62
     0
 10
0.4064
 20
-0.0000000000000002
 30
0.508
 11
0.5543889118089155
 21
-0.0698500000000001
 31
0.508
 12
0.5588
 22
0.0
 32
0.508
 13
0.5588
 23
0.0
 33
0.508
  0
3DFACE
  5
8C
  8
0
 62
     0
 10
0.4064
 20
0.0000000000000002
 30
0.508
 11
0.5543889118089155
 21
0.0698500000000001
 31
0.508
 12
0.5588
 22
0.0
 32
0.508
 13
0.5588
 23
0.0
 33
0.508
  0
3DFACE
  5
8D
  8
0
 62
     0
 10
0.4064000000000001
 20
0.0000000000000002
 30
0.508
 11
0.5354027132270439
 21
0.1365250000000001
 31
0.508
 12
0.5543889118089155
 22
0.0698500000000001
 32
0.508
 13
0.5543889118089155
 23
0.0698500000000001
 33
0.508
  0
3DFACE
  5
8E
  8
0
 62
     0
 10
0.4063999999999999
 20
0.0
 30
0.508
 11
0.5117660562429871
 21
0.1873250000000005
 31
0.508
 12
0.5354027132270439
 22
0.1365250000000001
 32
0.508
 13
0.5354027132270439
 23
0.1365250000000001
 33
0.508
  0
3DFACE
  5
8F
  8
0
 62
     0
 10
0.4064
 20
0.0
 30
0.508
 11
0.4801434633814325
 21
0.2317750000000002
 31
0.508
 12
0.5117660562429874
 22
0.1873250000000001
 32
0.508
 13
0.5117660562429874
 23
0.1873250000000001
 33
0.508
  0
3DFACE
  5
90
  8
0
 62
     0
 10
0.4064
 20
0.0
 30
0.508
 11
0.4496829082820586
 21
0.2508250000000002
 31
0.508
 12
0.4801434633814324
 22
0.2317750000000003
 32
0.508
 13
0.4801434633814324
 23
0.2317750000000003
 33
0.508
  0
3DFACE
  5
91
  8
0
 62
     0
 10
0.4064
 20
0.0
 30
0.508
 11
0.4373157951031438
 21
0.2515454692497522
 31
0.508
 12
0.4496829082820585
 22
0.2508250000000002
 32
0.508
 13
0.4496829082820585
 23
0.2508250000000002
 33
0.508
  0
3DFACE
  5
92
  8
0
 62
     0
 10
0.4064
 20
0.0
 30
0.508
 11
0.4064
 21
0.254
 31
0.508
 12
0.4373157951031442
 22
0.2515454692497522
 32
0.508
 13
0.4373157951031442
 23
0.2515454692497522
 33
0.508
  0
ENDSEC
  0
EOF
