  0
SECTION
  2
HEADER
  9
$ACADVER
  1
AC1009
  9
$DWGCODEPAGE
  3
ansi_1252
  9
$INSBASE
 10
0.0
 20
0.0
 30
0.0
  9
$EXTMIN
 10
1.710978199025321
 20
1.661628527400278
 30
0.0
  9
$EXTMAX
 10
3.003641712318288
 20
3.600786923566164
 30
0.0
  9
$LIMMIN
 10
0.0
 20
0.0
  9
$LIMMAX
 10
12.0
 20
9.0
  9
$ORTHOMODE
 70
     0
  9
$REGENMODE
 70
     1
  9
$FILLMODE
 70
     1
  9
$QTEXTMODE
 70
     0
  9
$MIRRTEXT
 70
     1
  9
$DRAGMODE
 70
     2
  9
$LTSCALE
 40
1.0
  9
$OSMODE
 70
    37
  9
$ATTMODE
 70
     1
  9
$TEXTSIZE
 40
0.2
  9
$TRACEWID
 40
0.05
  9
$TEXTSTYLE
  7
STANDARD
  9
$CLAYER
  8
LAYOUT
  9
$CELTYPE
  6
BYLAYER
  9
$CECOLOR
 62
   256
  9
$DIMSCALE
 40
0.6
  9
$DIMASZ
 40
0.18
  9
$DIMEXO
 40
0.2
  9
$DIMDLI
 40
0.38
  9
$DIMRND
 40
0.0
  9
$DIMDLE
 40
0.0
  9
$DIMEXE
 40
0.18
  9
$DIMTP
 40
0.0
  9
$DIMTM
 40
0.0
  9
$DIMTXT
 40
0.17
  9
$DIMCEN
 40
0.09
  9
$DIMTSZ
 40
0.0
  9
$DIMTOL
 70
     0
  9
$DIMLIM
 70
     0
  9
$DIMTIH
 70
     0
  9
$DIMTOH
 70
     0
  9
$DIMSE1
 70
     0
  9
$DIMSE2
 70
     0
  9
$DIMTAD
 70
     1
  9
$DIMZIN
 70
     0
  9
$DIMBLK
  1
DOT
  9
$DIMASO
 70
     1
  9
$DIMSHO
 70
     1
  9
$DIMPOST
  1

  9
$DIMAPOST
  1

  9
$DIMALT
 70
     0
  9
$DIMALTD
 70
     2
  9
$DIMALTF
 40
25.4
  9
$DIMLFAC
 40
1.0
  9
$DIMTOFL
 70
     1
  9
$DIMTVP
 40
0.0
  9
$DIMTIX
 70
     1
  9
$DIMSOXD
 70
     0
  9
$DIMSAH
 70
     0
  9
$DIMBLK1
  1

  9
$DIMBLK2
  1

  9
$DIMSTYLE
  2
STANDARD
  9
$DIMCLRD
 70
     1
  9
$DIMCLRE
 70
     1
  9
$DIMCLRT
 70
     2
  9
$DIMTFAC
 40
1.0
  9
$DIMGAP
 40
0.09
  9
$LUNITS
 70
     2
  9
$LUPREC
 70
     2
  9
$SKETCHINC
 40
0.1
  9
$FILLETRAD
 40
0.01
  9
$AUNITS
 70
     0
  9
$AUPREC
 70
     0
  9
$MENU
  1
acad
  9
$ELEVATION
 40
0.0
  9
$PELEVATION
 40
0.0
  9
$THICKNESS
 40
0.0
  9
$LIMCHECK
 70
     0
  9
$CHAMFERA
 40
0.0
  9
$CHAMFERB
 40
0.0
  9
$SKPOLY
 70
     0
  9
$TDCREATE
 40
2450438.388286921
  9
$TDUPDATE
 40
2457521.8090625
  9
$TDINDWG
 40
0.0664556019
  9
$TDUSRTIMER
 40
0.0664556019
  9
$USRTIMER
 70
     1
  9
$ANGBASE
 50
0.0
  9
$ANGDIR
 70
     0
  9
$PDMODE
 70
     0
  9
$PDSIZE
 40
0.0
  9
$PLINEWID
 40
0.0
  9
$COORDS
 70
     1
  9
$SPLFRAME
 70
     0
  9
$SPLINETYPE
 70
     6
  9
$SPLINESEGS
 70
     8
  9
$ATTDIA
 70
     0
  9
$ATTREQ
 70
     1
  9
$HANDLING
 70
     1
  9
$HANDSEED
  5
154
  9
$SURFTAB1
 70
     6
  9
$SURFTAB2
 70
     6
  9
$SURFTYPE
 70
     6
  9
$SURFU
 70
     6
  9
$SURFV
 70
     6
  9
$UCSNAME
  2

  9
$UCSORG
 10
0.0
 20
0.0
 30
0.0
  9
$UCSXDIR
 10
1.0
 20
0.0
 30
0.0
  9
$UCSYDIR
 10
0.0
 20
1.0
 30
0.0
  9
$PUCSNAME
  2

  9
$PUCSORG
 10
0.0
 20
0.0
 30
0.0
  9
$PUCSXDIR
 10
1.0
 20
0.0
 30
0.0
  9
$PUCSYDIR
 10
0.0
 20
1.0
 30
0.0
  9
$USERI1
 70
     0
  9
$USERI2
 70
     0
  9
$USERI3
 70
     0
  9
$USERI4
 70
     0
  9
$USERI5
 70
     0
  9
$USERR1
 40
0.0
  9
$USERR2
 40
0.0
  9
$USERR3
 40
0.0
  9
$USERR4
 40
0.0
  9
$USERR5
 40
0.0
  9
$WORLDVIEW
 70
     1
  9
$SHADEDGE
 70
     3
  9
$SHADEDIF
 70
    70
  9
$TILEMODE
 70
     1
  9
$MAXACTVP
 70
    16
  9
$PLIMCHECK
 70
     0
  9
$PEXTMIN
 10
1.000000000000000E+20
 20
1.000000000000000E+20
 30
1.000000000000000E+20
  9
$PEXTMAX
 10
-1.000000000000000E+20
 20
-1.000000000000000E+20
 30
-1.000000000000000E+20
  9
$PLIMMIN
 10
0.0
 20
0.0
  9
$PLIMMAX
 10
12.0
 20
9.0
  9
$UNITMODE
 70
     0
  9
$VISRETAIN
 70
     0
  9
$PLINEGEN
 70
     0
  9
$PSLTSCALE
 70
     1
  0
ENDSEC
  0
SECTION
  2
TABLES
  0
TABLE
  2
VPORT
 70
     1
  0
VPORT
  2
*ACTIVE
 70
     0
 10
0.0
 20
0.0
 11
1.0
 21
1.0
 12
3.419198786226041
 22
2.879996001629008
 13
0.0
 23
0.0
 14
1.0
 24
1.0
 15
0.0
 25
0.0
 16
0.0
 26
0.0
 36
1.0
 17
0.0
 27
0.0
 37
0.0
 40
2.77415881581017
 41
1.503537735849057
 42
50.0
 43
0.0
 44
0.0
 50
0.0
 51
0.0
 71
     0
 72
   100
 73
     1
 74
     1
 75
     0
 76
     0
 77
     0
 78
     0
  0
ENDTAB
  0
TABLE
  2
LTYPE
 70
     1
  0
LTYPE
  2
CONTINUOUS
 70
     0
  3
Solid line
 72
    65
 73
     0
 40
0.0
  0
ENDTAB
  0
TABLE
  2
LAYER
 70
     2
  0
LAYER
  2
0
 70
     0
 62
     7
  6
CONTINUOUS
  0
LAYER
  2
LAYOUT
 70
     0
 62
     4
  6
CONTINUOUS
  0
ENDTAB
  0
TABLE
  2
STYLE
 70
     1
  0
STYLE
  2
STANDARD
 70
     0
 40
0.0
 41
1.0
 50
0.0
 71
     0
 42
0.2
  3
txt
  4

  0
ENDTAB
  0
TABLE
  2
VIEW
 70
     0
  0
ENDTAB
  0
TABLE
  2
UCS
 70
     0
  0
ENDTAB
  0
TABLE
  2
APPID
 70
     2
  0
APPID
  2
ACAD
 70
     0
  0
APPID
  2
DCO15
 70
     0
  0
ENDTAB
  0
TABLE
  2
DIMSTYLE
 70
     1
  0
DIMSTYLE
  2
STANDARD
 70
     0
  3

  4

  5

  6

  7

 40
1.0
 41
0.18
 42
0.0625
 43
0.38
 44
0.18
 45
0.0
 46
0.0
 47
0.0
 48
0.0
140
0.18
141
0.09
142
0.0
143
25.4
144
1.0
145
0.0
146
1.0
147
0.09
 71
     0
 72
     0
 73
     1
 74
     1
 75
     0
 76
     0
 77
     0
 78
     0
170
     0
171
     2
172
     0
173
     0
174
     0
175
     0
176
     0
177
     0
178
     0
  0
ENDTAB
  0
ENDSEC
  0
SECTION
  2
BLOCKS
  0
BLOCK
  8
0
  2
$MODEL_SPACE
 70
     0
 10
0.0
 20
0.0
 30
0.0
  3
$MODEL_SPACE
  1

  0
ENDBLK
  5
28
  8
0
  0
BLOCK
 67
     1
  8
0
  2
$PAPER_SPACE
 70
     0
 10
0.0
 20
0.0
 30
0.0
  3
$PAPER_SPACE
  1

  0
ENDBLK
  5
26
 67
     1
  8
0
  0
BLOCK
  8
0
  2
DOT
 70
     0
 10
0.0
 20
0.0
 30
0.0
  3
DOT
  1

  0
CIRCLE
  5
2A
  8
0
 10
0.0
 20
0.0
 30
0.0
 40
0.25
  0
LINE
  5
2B
  8
0
 10
-1.0
 20
0.0
 30
0.0
 11
1.0
 21
0.0
 31
0.0
  0
LINE
  5
2C
  8
0
 10
0.0
 20
1.0
 30
0.0
 11
0.0
 21
-1.0
 31
0.0
  0
ENDBLK
  5
2D
  8
0
  0
ENDSEC
  0
SECTION
  2
ENTITIES
  0
LINE
  5
2E
  8
0
 62
     0
 10
2.28398930820501
 20
1.662096763263264
 30
0.0
 11
2.541497096669358
 21
1.662096763263264
 31
0.0
  0
LINE
  5
2F
  8
0
 62
     0
 10
2.187743202437185
 20
2.812096763263265
 30
0.0
 11
2.187743202437185
 21
2.302096763263265
 31
0.0
  0
LINE
  5
30
  8
0
 62
     0
 10
2.637743202437183
 20
2.812096763263265
 30
0.0
 11
2.637743202437183
 21
2.362851734459845
 31
0.0
  0
LINE
  5
31
  8
0
 62
     0
 10
2.293211952437185
 20
2.302096763263264
 30
0.0
 11
2.352743202437185
 21
2.302096763263265
 31
0.0
  0
LINE
  5
32
  8
0
 62
     0
 10
2.157743202437184
 20
2.842096763263264
 30
0.0
 11
2.157743202437185
 21
2.842096763263264
 31
0.0
  0
LINE
  5
33
  8
0
 62
     0
 10
2.157016174416601
 20
2.542096763263265
 30
0.0
 11
2.158470230457768
 21
2.542096763263265
 31
0.0
  0
LINE
  5
34
  8
0
 62
     0
 10
2.217743202437185
 20
2.842096763263264
 30
0.0
 11
2.337274272211182
 21
2.842096763263264
 31
0.0
  0
ARC
  5
35
  8
0
 62
     0
 10
2.157743202437184
 20
2.812096763263265
 30
0.0
 40
0.03
 50
90.0
 51
180.0
  0
ARC
  5
36
  8
0
 62
     0
 10
2.157743202437185
 20
2.812096763263265
 30
0.0
 40
0.03
 50
0.0
 51
90.0
  0
LINE
  5
37
  8
0
 62
     0
 10
2.127743202437184
 20
2.812096763263265
 30
0.0
 11
2.137029877741266
 21
2.561356530053067
 31
0.0
  0
LINE
  5
38
  8
0
 62
     0
 10
2.187743202437185
 20
2.812096763263265
 30
0.0
 11
2.178456527133103
 21
2.561356530053067
 31
0.0
  0
ARC
  5
39
  8
0
 62
     0
 10
2.157016174416601
 20
2.562096763263265
 30
0.0
 40
0.02
 50
182.1210963966614
 51
270.0
  0
ARC
  5
3A
  8
0
 62
     0
 10
2.158470230457768
 20
2.562096763263265
 30
0.0
 40
0.02
 50
270.0
 51
357.8789036033386
  0
LINE
  5
3B
  8
0
 62
     0
 10
2.697743202437184
 20
2.812096763263265
 30
0.0
 11
2.688456527133102
 21
2.561356530053067
 31
0.0
  0
LINE
  5
3C
  8
0
 62
     0
 10
2.637743202437183
 20
2.812096763263265
 30
0.0
 11
2.647029877741265
 21
2.561356530053067
 31
0.0
  0
ARC
  5
3D
  8
0
 62
     0
 10
2.668470230457767
 20
2.562096763263265
 30
0.0
 40
0.02
 50
270.0
 51
357.8789036033386
  0
LINE
  5
3E
  8
0
 62
     0
 10
2.6670161744166
 20
2.542096763263265
 30
0.0
 11
2.668470230457767
 21
2.542096763263265
 31
0.0
  0
ARC
  5
3F
  8
0
 62
     0
 10
2.6670161744166
 20
2.562096763263265
 30
0.0
 40
0.02
 50
182.1210963966614
 51
270.0
  0
ARC
  5
40
  8
0
 62
     0
 10
2.667743202437183
 20
2.812096763263265
 30
0.0
 40
0.03
 50
90.0
 51
180.0
  0
ARC
  5
41
  8
0
 62
     0
 10
2.667743202437184
 20
2.812096763263265
 30
0.0
 40
0.03
 50
0.0
 51
90.0
  0
LINE
  5
42
  8
0
 62
     0
 10
2.667743202437183
 20
2.842096763263264
 30
0.0
 11
2.667743202437184
 21
2.842096763263264
 31
0.0
  0
ARC
  5
43
  8
0
 62
     0
 10
2.217743202437185
 20
2.812096763263265
 30
0.0
 40
0.03
 50
90.0
 51
180.0
  0
ARC
  5
44
  8
0
 62
     0
 10
2.607743202437184
 20
2.812096763263265
 30
0.0
 40
0.03
 50
0.0
 51
90.0
  0
LINE
  5
45
  8
0
 62
     0
 10
2.187743202437185
 20
2.302096763263264
 30
0.0
 11
2.234141201137547
 21
1.708202379898619
 31
0.0
  0
LINE
  5
46
  8
0
 62
     0
 10
2.637743202437183
 20
2.302096763263264
 30
0.0
 11
2.591345203736821
 21
1.708202379898619
 31
0.0
  0
ARC
  5
47
  8
0
 62
     0
 10
2.28398930820501
 20
1.712096763263264
 30
0.0
 40
0.05
 50
184.4671590613892
 51
270.0
  0
ARC
  5
48
  8
0
 62
     0
 10
2.541497096669358
 20
1.712096763263264
 30
0.0
 40
0.05
 50
270.0
 51
355.5328409386108
  0
LINE
  5
49
  8
0
 62
     0
 10
2.328041473289096
 20
3.312096763263265
 30
0.0
 11
2.497444931585271
 21
3.312096763263265
 31
0.0
  0
LINE
  5
4A
  8
0
 62
     0
 10
2.249780603723878
 20
2.852096763263264
 30
0.0
 11
2.339906147149832
 21
2.852096763263264
 31
0.0
  0
LINE
  5
4B
  8
0
 62
     0
 10
2.624564619346629
 20
2.912718245479816
 30
0.0
 11
2.546303749781411
 21
3.272718245479818
 31
0.0
  0
LINE
  5
4C
  8
0
 62
     0
 10
2.200921785527738
 20
2.912718245479816
 30
0.0
 11
2.279182655092956
 21
3.272718245479817
 31
0.0
  0
ARC
  5
4D
  8
0
 62
     0
 10
2.249780603723878
 20
2.902096763263264
 30
0.0
 40
0.05
 50
167.7352262721076
 51
270.0
  0
ARC
  5
4E
  8
0
 62
     0
 10
2.575705801150489
 20
2.902096763263264
 30
0.0
 40
0.05
 50
270.0000000000001
 51
12.26477372789248
  0
ARC
  5
4F
  8
0
 62
     0
 10
2.328041473289096
 20
3.262096763263265
 30
0.0
 40
0.05
 50
90.0000000000001
 51
167.7352262721076
  0
ARC
  5
50
  8
0
 62
     0
 10
2.497444931585271
 20
3.262096763263266
 30
0.0
 40
0.05
 50
12.26477372789245
 51
90.0
  0
LINE
  5
51
  8
0
 62
     0
 10
2.349330497716447
 20
3.322096763263265
 30
0.0
 11
2.476155907157919
 21
3.322096763263265
 31
0.0
  0
LINE
  5
52
  8
0
 62
     0
 10
2.32936944614679
 20
3.343344328986369
 30
0.0
 11
2.341869446146789
 21
3.543344328986367
 31
0.0
  0
LINE
  5
53
  8
0
 62
     0
 10
2.496116958727577
 20
3.343344328986369
 30
0.0
 11
2.483616958727577
 21
3.543344328986367
 31
0.0
  0
LINE
  5
54
  8
0
 62
     0
 10
2.361830497716447
 20
3.562096763263264
 30
0.0
 11
2.463655907157919
 21
3.562096763263264
 31
0.0
  0
ARC
  5
55
  8
0
 62
     0
 10
2.361830497716447
 20
3.542096763263264
 30
0.0
 40
0.02
 50
90.0
 51
176.4236656250028
  0
ARC
  5
56
  8
0
 62
     0
 10
2.463655907157919
 20
3.542096763263264
 30
0.0
 40
0.02
 50
3.576334374997513
 51
90.0
  0
ARC
  5
57
  8
0
 62
     0
 10
2.349330497716447
 20
3.342096763263265
 30
0.0
 40
0.02
 50
176.4236656250028
 51
270.0
  0
ARC
  5
58
  8
0
 62
     0
 10
2.476155907157919
 20
3.342096763263265
 30
0.0
 40
0.02
 50
270.0
 51
3.576334374997322
  0
LINE
  5
59
  8
0
 62
     0
 10
2.462743202437184
 20
1.662096763263264
 30
0.0
 11
2.462743202437184
 21
2.292096763263265
 31
0.0
  0
LINE
  5
5A
  8
0
 62
     0
 10
2.362743202437184
 20
1.662096763263264
 30
0.0
 11
2.362743202437184
 21
2.292096763263265
 31
0.0
  0
LINE
  5
5B
  8
0
 62
     0
 10
2.542541105059159
 20
2.297551106136842
 30
0.0
 11
2.512732234180882
 21
1.661628527400278
 31
0.0
  0
LINE
  5
5C
  8
0
 62
     0
 10
2.282942486567365
 20
2.297611122090881
 30
0.0
 11
2.312754170693486
 21
1.661628527400278
 31
0.0
  0
ARC
  5
5D
  8
0
 62
     0
 10
2.235014568633842
 20
2.25435716120362
 30
0.0
 40
0.067183715786727
 50
48.43600815258215
 51
134.7176355312736
  0
ARC
  5
5E
  8
0
 62
     0
 10
2.59000360037754
 20
2.253888925340634
 30
0.0
 40
0.067183715786727
 50
44.71763553127362
 51
130.9436942564041
  0
LINE
  5
5F
  8
0
 62
     0
 10
2.636797360963083
 20
2.302096763263265
 30
0.0
 11
2.637743202437183
 21
2.302096763263264
 31
0.0
  0
LINE
  5
60
  8
0
 62
     0
 10
2.472743202437184
 20
2.302096763263264
 30
0.0
 11
2.532274452437184
 21
2.302096763263264
 31
0.0
  0
LINE
  5
61
  8
0
 62
     0
 10
2.372743202437184
 20
2.302096763263264
 30
0.0
 11
2.452743202437184
 21
2.302096763263264
 31
0.0
  0
ARC
  5
62
  8
0
 62
     0
 10
2.293211952437185
 20
2.292096763263265
 30
0.0
 40
0.01
 50
90.00000000000031
 51
182.683775159469
  0
ARC
  5
63
  8
0
 62
     0
 10
2.352743202437185
 20
2.292096763263265
 30
0.0
 40
0.01
 50
0.0
 51
90.00000000000071
  0
ARC
  5
64
  8
0
 62
     0
 10
2.372743202437184
 20
2.292096763263265
 30
0.0
 40
0.01
 50
90.00000000000051
 51
180.0
  0
ARC
  5
65
  8
0
 62
     0
 10
2.452743202437184
 20
2.292096763263265
 30
0.0
 40
0.01
 50
0.0
 51
90.00000000000055
  0
ARC
  5
66
  8
0
 62
     0
 10
2.472743202437184
 20
2.292096763263265
 30
0.0
 40
0.01
 50
89.99999999999969
 51
180.0
  0
ARC
  5
67
  8
0
 62
     0
 10
2.532274452437184
 20
2.292096763263265
 30
0.0
 40
0.01
 50
357.316224840531
 51
90.00000000000036
  0
ARC
  5
68
  8
0
 62
     0
 10
2.552530136802857
 20
2.297082870273856
 30
0.0
 40
0.01
 50
130.9436942564045
 51
177.3162248405319
  0
ARC
  5
69
  8
0
 62
     0
 10
2.272953454823667
 20
2.297142886227895
 30
0.0
 40
0.01
 50
2.683775159470732
 51
48.4360081525812
  0
LINE
  5
6A
  8
0
 62
     0
 10
2.283222920693487
 20
2.291628527400281
 30
0.0
 11
2.283222920693486
 21
2.42513541919722
 31
0.0
  0
LINE
  5
6B
  8
0
 62
     0
 10
2.542274452437184
 20
2.29186251686804
 30
0.0
 11
2.542274452437184
 21
2.356956295775716
 31
0.0
  0
ARC
  5
6C
  8
0
 62
     0
 10
2.235014568633843
 20
2.454357161203621
 30
0.0
 40
0.067183715786727
 50
48.43600815258215
 51
48.53804426011353
  0
LINE
  5
6D
  8
0
 62
     0
 10
2.472743202437184
 20
2.502096763263264
 30
0.0
 11
2.532274452437184
 21
2.502096763263264
 31
0.0
  0
ARC
  5
6E
  8
0
 62
     0
 10
2.372743202437185
 20
2.492096763263265
 30
0.0
 40
0.01
 50
90.0000000000005
 51
180.0
  0
ARC
  5
6F
  8
0
 62
     0
 10
2.272953454823667
 20
2.497142886227895
 30
0.0
 40
0.01
 50
2.683775159470732
 51
48.4360081525812
  0
ARC
  5
70
  8
0
 62
     0
 10
2.352743202437185
 20
2.492096763263266
 30
0.0
 40
0.01
 50
0.0
 51
90.00000000000072
  0
LINE
  5
71
  8
0
 62
     0
 10
2.293222920693486
 20
2.502096763263265
 30
0.0
 11
2.352743202437185
 21
2.502096763263265
 31
0.0
  0
ARC
  5
72
  8
0
 62
     0
 10
2.472743202437184
 20
2.492096763263265
 30
0.0
 40
0.01
 50
89.99999999999969
 51
180.0
  0
ARC
  5
73
  8
0
 62
     0
 10
2.452743202437185
 20
2.492096763263265
 30
0.0
 40
0.01
 50
0.0
 51
90.00000000000055
  0
LINE
  5
74
  8
0
 62
     0
 10
2.372743202437185
 20
2.502096763263264
 30
0.0
 11
2.452743202437185
 21
2.502096763263264
 31
0.0
  0
ARC
  5
75
  8
0
 62
     0
 10
2.59000360037754
 20
2.453888925340634
 30
0.0
 40
0.067183715786727
 50
44.71763553127362
 51
130.9436942564041
  0
ARC
  5
76
  8
0
 62
     0
 10
2.552530136802858
 20
2.497082870273856
 30
0.0
 40
0.01
 50
130.9436942564045
 51
177.3162248405319
  0
ARC
  5
77
  8
0
 62
     0
 10
2.532274452437184
 20
2.492096763263265
 30
0.0
 40
0.01
 50
357.316224840531
 51
90.00000000000036
  0
LINE
  5
78
  8
0
 62
     0
 10
2.636797360963083
 20
2.502096763263265
 30
0.0
 11
2.637743202437184
 21
2.502096763263264
 31
0.0
  0
LINE
  5
79
  8
0
 62
     0
 10
2.362743202437184
 20
2.492096763263266
 30
0.0
 11
2.362743202437184
 21
2.820998916129626
 31
0.0
  0
LINE
  5
7A
  8
0
 62
     0
 10
2.462743202437184
 20
2.492096763263265
 30
0.0
 11
2.462743202437184
 21
2.842096763263264
 31
0.0
  0
LINE
  5
7B
  8
0
 62
     0
 10
2.362743202437184
 20
2.93886781363494
 30
0.0
 11
2.362743202437184
 21
3.062096763263264
 31
0.0
  0
LINE
  5
7C
  8
0
 62
     0
 10
2.462743202437184
 20
2.852096763263264
 30
0.0
 11
2.462743202437184
 21
3.062096763263265
 31
0.0
  0
LINE
  5
7D
  8
0
 62
     0
 10
2.283222920693487
 20
2.852096763263264
 30
0.0
 11
2.322743202437184
 21
3.311815254048684
 31
0.0
  0
LINE
  5
7E
  8
0
 62
     0
 10
2.542274452437183
 20
2.852096763263264
 30
0.0
 11
2.502743202437184
 21
3.311815254048684
 31
0.0
  0
LINE
  5
7F
  8
0
 62
     0
 10
2.170251090069037
 20
2.865067532863437
 30
0.0
 11
2.248511959634255
 21
3.225067532863438
 31
0.0
  0
LINE
  5
80
  8
0
 62
     0
 10
1.710978199025321
 20
2.964909465699028
 30
0.0
 11
1.789239068590538
 21
3.324909465699029
 31
0.0
  0
LINE
  5
81
  8
0
 62
     0
 10
2.170251090069037
 20
2.865067532863437
 30
0.0
 11
1.710978199025321
 21
2.964909465699028
 31
0.0
  0
LINE
  5
82
  8
0
 62
     0
 10
2.248850058471523
 20
3.226622787514874
 30
0.0
 11
1.789577167427807
 21
3.326464720350464
 31
0.0
  0
LINE
  5
83
  8
0
 62
     0
 10
2.20126581814137
 20
3.196032918731202
 30
0.0
 11
1.820167036211477
 21
3.278880480020311
 31
0.0
  0
LINE
  5
84
  8
0
 62
     0
 10
2.139661221285366
 20
2.912651773193591
 30
0.0
 11
2.20126581814137
 21
3.196032918731202
 31
0.0
  0
LINE
  5
85
  8
0
 62
     0
 10
2.139661221285366
 20
2.912651773193591
 30
0.0
 11
1.758562439355474
 21
2.995499334482699
 31
0.0
  0
LINE
  5
86
  8
0
 62
     0
 10
1.758562439355474
 20
2.995499334482699
 30
0.0
 11
1.820167036211477
 21
3.278880480020311
 31
0.0
  0
LINE
  5
87
  8
0
 62
     0
 10
1.770458499438013
 20
3.003146801678615
 30
0.0
 11
1.827814503407395
 21
3.266984419937772
 31
0.0
  0
LINE
  5
88
  8
0
 62
     0
 10
2.18936975805883
 20
3.188385451535285
 30
0.0
 11
1.827814503407395
 21
3.266984419937772
 31
0.0
  0
LINE
  5
89
  8
0
 62
     0
 10
2.132013754089449
 20
2.92454783327613
 30
0.0
 11
1.770458499438013
 21
3.003146801678615
 31
0.0
  0
LINE
  5
8A
  8
0
 62
     0
 10
2.132013754089449
 20
2.92454783327613
 30
0.0
 11
2.18936975805883
 21
3.188385451535285
 31
0.0
  0
CIRCLE
  5
8B
  8
0
 62
     0
 10
2.14150992805855
 20
3.444556669300338
 30
0.0
 40
0.1562302542658256
  0
ARC
  5
8C
  8
0
 62
     0
 10
2.14150992805855
 20
3.444556669300338
 30
0.0
 40
0.1862302542658256
 50
133.9295978437913
 51
226.0704021562088
  0
LINE
  5
8D
  8
0
 62
     0
 10
2.047446162146513
 20
3.569295998665259
 30
0.0
 11
2.042152358792852
 21
3.576316188360226
 31
0.0
  0
LINE
  5
8E
  8
0
 62
     0
 10
2.047446162146513
 20
3.319817339935418
 30
0.0
 11
2.042152358792852
 21
3.312797150240451
 31
0.0
  0
ARC
  5
8F
  8
0
 62
     0
 10
2.026183706632473
 20
3.564274504583409
 30
0.0
 40
0.02
 50
37.01931296184194
 51
133.9295978437915
  0
ARC
  5
90
  8
0
 62
     0
 10
2.026183706632474
 20
3.324838834017267
 30
0.0
 40
0.02
 50
226.0704021562085
 51
322.9806870381583
  0
LINE
  5
91
  8
0
 62
     0
 10
2.727743202437183
 20
2.152096763263265
 30
0.0
 11
2.917743202437184
 21
2.152096763263265
 31
0.0
  0
LINE
  5
92
  8
0
 62
     0
 10
2.697743202437183
 20
2.122096763263265
 30
0.0
 11
2.697743202437183
 21
1.832096763263265
 31
0.0
  0
LINE
  5
93
  8
0
 62
     0
 10
2.727743202437183
 20
1.802096763263265
 30
0.0
 11
2.917743202437184
 21
1.802096763263265
 31
0.0
  0
LINE
  5
94
  8
0
 62
     0
 10
2.947743202437184
 20
2.122096763263265
 30
0.0
 11
2.947743202437183
 21
1.832096763263265
 31
0.0
  0
ARC
  5
95
  8
0
 62
     0
 10
2.727743202437183
 20
2.122096763263265
 30
0.0
 40
0.03
 50
90.0
 51
180.0
  0
ARC
  5
96
  8
0
 62
     0
 10
2.917743202437184
 20
2.122096763263265
 30
0.0
 40
0.03
 50
0.0
 51
90.0
  0
ARC
  5
97
  8
0
 62
     0
 10
2.727743202437183
 20
1.832096763263265
 30
0.0
 40
0.03
 50
180.0000000000001
 51
270.0
  0
ARC
  5
98
  8
0
 62
     0
 10
2.917743202437184
 20
1.832096763263265
 30
0.0
 40
0.03
 50
270.0
 51
0.0
  0
LINE
  5
99
  8
0
 62
     0
 10
2.697743202437183
 20
2.002096763263265
 30
0.0
 11
2.947743202437184
 21
2.002096763263265
 31
0.0
  0
CIRCLE
  5
9A
  8
0
 62
     0
 10
2.753480495989219
 20
2.072307034425414
 30
0.0
 40
0.035
  0
CIRCLE
  5
9B
  8
0
 62
     0
 10
2.844636642673759
 20
2.072307034425414
 30
0.0
 40
0.035
  0
CIRCLE
  5
9C
  8
0
 62
     0
 10
2.910798431140311
 20
2.070837537410927
 30
0.0
 40
0.015
  0
LINE
  5
9D
  8
0
 62
     0
 10
2.917743202437184
 20
2.152096763263265
 30
0.0
 11
2.917743202437184
 21
2.172096763263266
 31
0.0
  0
LINE
  5
9E
  8
0
 62
     0
 10
2.857743202437184
 20
2.152096763263265
 30
0.0
 11
2.857743202437184
 21
2.172096763263265
 31
0.0
  0
LINE
  5
9F
  8
0
 62
     0
 10
2.867743202437184
 20
2.182096763263265
 30
0.0
 11
2.907743202437184
 21
2.182096763263266
 31
0.0
  0
ARC
  5
A0
  8
0
 62
     0
 10
2.867743202437184
 20
2.172096763263265
 30
0.0
 40
0.01
 50
90.0
 51
180.0
  0
ARC
  5
A1
  8
0
 62
     0
 10
2.907743202437184
 20
2.172096763263266
 30
0.0
 40
0.01
 50
0.0
 51
90.0
  0
LINE
  5
A2
  8
0
 62
     0
 10
2.862743202437184
 20
2.152096763263265
 30
0.0
 11
2.862743202437183
 21
2.180757017301096
 31
0.0
  0
LINE
  5
A3
  8
0
 62
     0
 10
2.912743202437184
 20
2.152096763263265
 30
0.0
 11
2.912743202437184
 21
2.180757017301097
 31
0.0
  0
LINE
  5
A4
  8
0
 62
     0
 10
2.872743202437184
 20
2.152096763263265
 30
0.0
 11
2.872743202437184
 21
2.182096763263265
 31
0.0
  0
LINE
  5
A5
  8
0
 62
     0
 10
2.902743202437184
 20
2.152096763263265
 30
0.0
 11
2.902743202437184
 21
2.182096763263265
 31
0.0
  0
LINE
  5
A6
  8
0
 62
     0
 10
2.692160230836807
 20
2.661356530053067
 30
0.0
 11
2.743641712318287
 21
2.661356530053067
 31
0.0
  0
LINE
  5
A7
  8
0
 62
     0
 10
2.693641712318288
 20
2.701356530053068
 30
0.0
 11
2.743641712318287
 21
2.701356530053068
 31
0.0
  0
LINE
  5
A8
  8
0
 62
     0
 10
2.907743202437184
 20
2.182096763263266
 30
0.0
 11
2.907743202437185
 21
2.542096763263265
 31
0.0
  0
LINE
  5
A9
  8
0
 62
     0
 10
2.867743202437184
 20
2.182096763263265
 30
0.0
 11
2.867743202437184
 21
2.542096763263265
 31
0.0
  0
LINE
  5
AA
  8
0
 62
     0
 10
2.814399711372482
 20
2.542096763263265
 30
0.0
 11
2.932883713264089
 21
2.542096763263265
 31
0.0
  0
LINE
  5
AB
  8
0
 62
     0
 10
2.743641712318288
 20
2.701356530053068
 30
0.0
 11
2.743641712318288
 21
2.661356530053067
 31
0.0
  0
LINE
  5
AC
  8
0
 62
     0
 10
2.863641712318288
 20
2.942096763263266
 30
0.0
 11
2.883641712318288
 21
2.942096763263266
 31
0.0
  0
LINE
  5
AD
  8
0
 62
     0
 10
2.815571716999934
 20
2.882096763263266
 30
0.0
 11
2.863641712318288
 21
2.882096763263266
 31
0.0
  0
LINE
  5
AE
  8
0
 62
     0
 10
2.789496797529445
 20
2.842096763263265
 30
0.0
 11
2.95778662710713
 21
2.842096763263265
 31
0.0
  0
LINE
  5
AF
  8
0
 62
     0
 10
2.863641712318288
 20
2.862096763263266
 30
0.0
 11
2.863641712318288
 21
2.942096763263266
 31
0.0
  0
LINE
  5
B0
  8
0
 62
     0
 10
2.883641712318288
 20
2.862096763263266
 30
0.0
 11
2.883641712318288
 21
2.942096763263266
 31
0.0
  0
LINE
  5
B1
  8
0
 62
     0
 10
2.863641712318288
 20
2.862096763263266
 30
0.0
 11
2.883641712318288
 21
2.862096763263266
 31
0.0
  0
LINE
  5
B2
  8
0
 62
     0
 10
2.883641712318288
 20
2.882096763263266
 30
0.0
 11
2.931711707636642
 21
2.882096763263265
 31
0.0
  0
LINE
  5
B3
  8
0
 62
     0
 10
2.783641712318288
 20
2.840203425780607
 30
0.0
 11
2.783641712318288
 21
2.777096763263265
 31
0.0
  0
LINE
  5
B4
  8
0
 62
     0
 10
2.963641712318288
 20
2.842096763263266
 30
0.0
 11
2.963641712318288
 21
2.777096763263265
 31
0.0
  0
LINE
  5
B5
  8
0
 62
     0
 10
2.806208425224244
 20
2.87560799767915
 30
0.0
 11
2.793641712318288
 21
2.842096763263265
 31
0.0
  0
ARC
  5
B6
  8
0
 62
     0
 10
3.044891712318269
 20
2.692096763263263
 30
0.0
 40
0.3012499999999847
 50
151.2697392282781
 51
203.4538296686076
  0
ARC
  5
B7
  8
0
 62
     0
 10
2.702391712318297
 20
2.692096763263267
 30
0.0
 40
0.301249999999991
 50
336.546170331392
 51
28.73026077172052
  0
LINE
  5
B8
  8
0
 62
     0
 10
2.788641712318288
 20
2.772096763263265
 30
0.0
 11
2.958641712318288
 21
2.772096763263265
 31
0.0
  0
ARC
  5
B9
  8
0
 62
     0
 10
2.977081311157274
 20
2.657096763263262
 30
0.0
 40
0.2250419480874368
 50
148.7178635104438
 51
202.8756164947998
  0
ARC
  5
BA
  8
0
 62
     0
 10
2.770202113479302
 20
2.657096763263262
 30
0.0
 40
0.2250419480874368
 50
338.2017448351403
 51
31.28213648955633
  0
LINE
  5
BB
  8
0
 62
     0
 10
2.941074999412332
 20
2.875607997679149
 30
0.0
 11
2.953641712318288
 21
2.842096763263265
 31
0.0
  0
ARC
  5
BC
  8
0
 62
     0
 10
2.815571716999934
 20
2.872096763263266
 30
0.0
 40
0.01
 50
90.0
 51
159.4439547804166
  0
ARC
  5
BD
  8
0
 62
     0
 10
2.931711707636642
 20
2.872096763263265
 30
0.0
 40
0.01
 50
20.55604521958341
 51
89.99999999999909
  0
ARC
  5
BE
  8
0
 62
     0
 10
2.789496797529445
 20
2.832096763263265
 30
0.0
 40
0.01
 50
90.0
 51
151.2697392282793
  0
ARC
  5
BF
  8
0
 62
     0
 10
2.95778662710713
 20
2.832096763263265
 30
0.0
 40
0.01
 50
28.73026077172071
 51
90.0
  0
ARC
  5
C0
  8
0
 62
     0
 10
2.788641712318288
 20
2.777096763263265
 30
0.0
 40
0.005
 50
180.0000000000001
 51
270.0000000000002
  0
ARC
  5
C1
  8
0
 62
     0
 10
2.958641712318288
 20
2.777096763263265
 30
0.0
 40
0.005
 50
270.0000000000002
 51
359.9999999999999
  0
CIRCLE
  5
C2
  8
0
 62
     0
 10
2.873641712318288
 20
2.652096763263265
 30
0.0
 40
0.09
  0
CIRCLE
  5
C3
  8
0
 62
     0
 10
2.873641712318288
 20
2.652096763263265
 30
0.0
 40
0.1
  0
CIRCLE
  5
C4
  8
0
 62
     0
 10
2.873641712318288
 20
2.652096763263265
 30
0.0
 40
0.01
  0
CIRCLE
  5
C5
  8
0
 62
     0
 10
2.817040103378182
 20
2.804178675757742
 30
0.0
 40
0.015
  0
ARC
  5
C6
  8
0
 62
     0
 10
2.817040103378182
 20
2.801217371605817
 30
0.0
 40
0.015
 50
174.335100644283
 51
5.664899355717017
  0
ARC
  5
C7
  8
0
 62
     0
 10
2.930243321258394
 20
2.801217371605817
 30
0.0
 40
0.015
 50
174.335100644283
 51
5.664899355717014
  0
CIRCLE
  5
C8
  8
0
 62
     0
 10
2.930243321258394
 20
2.804178675757742
 30
0.0
 40
0.015
  0
ARC
  5
C9
  8
0
 62
     0
 10
2.814399711372482
 20
2.592096763263266
 30
0.0
 40
0.05
 50
203.4538296686037
 51
269.9999999999995
  0
ARC
  5
CA
  8
0
 62
     0
 10
2.932728060916149
 20
2.592096763263265
 30
0.0
 40
0.05
 50
269.9999999999995
 51
338.2017448351409
  0
ARC
  5
CB
  8
0
 62
     0
 10
2.932883713264089
 20
2.592096763263265
 30
0.0
 40
0.05
 50
270.0
 51
336.5461703313959
  0
LINE
  5
CC
  8
0
 62
     0
 10
2.717523406984639
 20
2.341854582364966
 30
0.0
 11
2.267790360412709
 21
2.460218695800488
 31
0.0
  0
LINE
  5
CD
  8
0
 62
     0
 10
2.709887804895806
 20
2.312842557603826
 30
0.0
 11
2.231142733562736
 21
2.43884227312818
 31
0.0
  0
LINE
  5
CE
  8
0
 62
     0
 10
2.430683204974475
 20
3.079141890704812
 30
0.0
 11
2.401671180213334
 21
3.086777492793645
 31
0.0
  0
LINE
  5
CF
  8
0
 62
     0
 10
2.260154758323876
 20
2.431206671039347
 30
0.0
 11
2.430683204974474
 21
3.079141890704813
 31
0.0
  0
LINE
  5
D0
  8
0
 62
     0
 10
2.283222920693487
 20
2.492096763263266
 30
0.0
 11
2.283222920693487
 21
2.518855829556912
 31
0.0
  0
LINE
  5
D1
  8
0
 62
     0
 10
2.231142733562736
 20
2.43884227312818
 30
0.0
 11
2.401671180213335
 21
3.086777492793645
 31
0.0
  0
LINE
  5
D2
  8
0
 62
     0
 10
2.80404935340333
 20
2.27771987572067
 30
0.0
 11
2.816775356884717
 21
2.326073250322571
 31
0.0
  0
LINE
  5
D3
  8
0
 62
     0
 10
2.707342604199529
 20
2.303171882683446
 30
0.0
 11
2.720068607680917
 21
2.351525257285346
 31
0.0
  0
LINE
  5
D4
  8
0
 62
     0
 10
2.816775356884717
 20
2.32607325032257
 30
0.0
 11
2.720068607680917
 21
2.351525257285346
 31
0.0
  0
LINE
  5
D5
  8
0
 62
     0
 10
2.804049353403329
 20
2.27771987572067
 30
0.0
 11
2.707342604199529
 21
2.303171882683446
 31
0.0
  0
ARC
  5
D6
  8
0
 62
     0
 10
2.293222920693486
 20
2.492096763263266
 30
0.0
 40
0.01
 50
90.0
 51
179.9999999999999
  0
LINE
  5
D7
  8
0
 62
     0
 10
2.362743202437184
 20
3.242096763263265
 30
0.0
 11
2.462743202437184
 21
3.242096763263265
 31
0.0
  0
LINE
  5
D8
  8
0
 62
     0
 10
2.362743202437184
 20
3.062096763263265
 30
0.0
 11
2.395175520861475
 21
3.062096763263265
 31
0.0
  0
LINE
  5
D9
  8
0
 62
     0
 10
2.362743202437184
 20
3.062096763263265
 30
0.0
 11
2.328041473289097
 21
3.122096763263265
 31
0.0
  0
LINE
  5
DA
  8
0
 62
     0
 10
2.328041473289097
 20
3.122096763263265
 30
0.0
 11
2.362743202437184
 21
3.242096763263265
 31
0.0
  0
LINE
  5
DB
  8
0
 62
     0
 10
2.462743202437184
 20
3.242096763263266
 30
0.0
 11
2.497444931585271
 21
3.122096763263265
 31
0.0
  0
LINE
  5
DC
  8
0
 62
     0
 10
2.497444931585271
 20
3.122096763263265
 30
0.0
 11
2.462743202437184
 21
3.062096763263265
 31
0.0
  0
LINE
  5
DD
  8
0
 62
     0
 10
2.462743202437184
 20
3.242096763263265
 30
0.0
 11
2.462743202437184
 21
3.312096763263266
 31
0.0
  0
LINE
  5
DE
  8
0
 62
     0
 10
2.362743202437184
 20
3.242096763263265
 30
0.0
 11
2.362743202437184
 21
3.312096763263266
 31
0.0
  0
LINE
  5
DF
  8
0
 62
     0
 10
2.426197140600524
 20
3.062096763263265
 30
0.0
 11
2.462743202437184
 21
3.062096763263265
 31
0.0
  0
LINE
  5
E0
  8
0
 62
     0
 10
2.370927766888882
 20
2.852096763263264
 30
0.0
 11
2.575705801150489
 21
2.852096763263264
 31
0.0
  0
LINE
  5
E1
  8
0
 62
     0
 10
2.368295891950232
 20
2.842096763263264
 30
0.0
 11
2.607743202437184
 21
2.842096763263265
 31
0.0
  0
LINE
  5
E2
  8
0
 62
     0
 10
2.283222920693487
 20
2.636724727062225
 30
0.0
 11
2.283222920693487
 21
2.842096763263265
 31
0.0
  0
ARC
  5
E3
  8
0
 62
     0
 10
2.235014568633843
 20
2.454357161203621
 30
0.0
 40
0.067183715786727
 50
75.08042770622743
 51
134.7176355312736
  0
LINE
  5
E4
  8
0
 62
     0
 10
2.283222920693487
 20
2.45615703893627
 30
0.0
 11
2.283222920693487
 21
2.492096763263266
 31
0.0
  0
LINE
  5
E5
  8
0
 62
     0
 10
2.542274452437184
 20
2.387977915514766
 30
0.0
 11
2.542274452437184
 21
2.842096763263265
 31
0.0
  0
LINE
  5
E6
  8
0
 62
     0
 10
2.637743202437183
 20
2.331830114720795
 30
0.0
 11
2.637743202437183
 21
2.302096763263265
 31
0.0
  0
LINE
  5
E7
  8
0
 62
     0
 10
2.266090071960463
 20
2.416332633900121
 30
0.0
 11
2.266090071960463
 21
2.349134372843528
 31
0.0
  0
LINE
  5
E8
  8
0
 62
     0
 10
2.253160458758853
 20
2.409871251903549
 30
0.0
 11
2.253160458758853
 21
2.382733513715133
 31
0.0
  0
LINE
  5
E9
  8
0
 62
     0
 10
2.555713284292064
 20
2.434424466254605
 30
0.0
 11
2.555713284292065
 21
2.384440983038407
 31
0.0
  0
LINE
  5
EA
  8
0
 62
     0
 10
2.569935874236894
 20
2.439593555302567
 30
0.0
 11
2.569935874236894
 21
2.393071691811057
 31
0.0
  0
ENDSEC
  0
EOF
