  0
SECTION
  2
HEADER
  9
$ACADVER
  1
AC1009
  9
$DWGCODEPAGE
  3
ansi_1252
  9
$INSBASE
 10
-5980.706731972538
 20
-5957.415693450394
 30
0.0
  9
$EXTMIN
 10
-5980.706731972538
 20
-5957.415693450394
 30
0.0
  9
$EXTMAX
 10
-5978.762231972538
 20
-5956.825693450394
 30
0.0
  9
$LIMMIN
 10
0.0
 20
0.0
  9
$LIMMAX
 10
900.0
 20
600.0
  9
$ORTHOMODE
 70
     0
  9
$REGENMODE
 70
     1
  9
$FILLMODE
 70
     1
  9
$QTEXTMODE
 70
     0
  9
$MIRRTEXT
 70
     1
  9
$DRAGMODE
 70
     2
  9
$LTSCALE
 40
1.0
  9
$OSMODE
 70
    37
  9
$ATTMODE
 70
     1
  9
$TEXTSIZE
 40
0.2
  9
$TRACEWID
 40
0.05
  9
$TEXTSTYLE
  7
STANDARD
  9
$CLAYER
  8
HID
  9
$CELTYPE
  6
BYLAYER
  9
$CECOLOR
 62
   256
  9
$DIMSCALE
 40
1.0
  9
$DIMASZ
 40
2.0
  9
$DIMEXO
 40
2.0
  9
$DIMDLI
 40
0.38
  9
$DIMRND
 40
0.0
  9
$DIMDLE
 40
0.0
  9
$DIMEXE
 40
2.0
  9
$DIMTP
 40
0.0
  9
$DIMTM
 40
0.0
  9
$DIMTXT
 40
2.0
  9
$DIMCEN
 40
0.09
  9
$DIMTSZ
 40
0.0
  9
$DIMTOL
 70
     0
  9
$DIMLIM
 70
     0
  9
$DIMTIH
 70
     0
  9
$DIMTOH
 70
     0
  9
$DIMSE1
 70
     0
  9
$DIMSE2
 70
     0
  9
$DIMTAD
 70
     0
  9
$DIMZIN
 70
     0
  9
$DIMBLK
  1

  9
$DIMASO
 70
     1
  9
$DIMSHO
 70
     0
  9
$DIMPOST
  1

  9
$DIMAPOST
  1

  9
$DIMALT
 70
     0
  9
$DIMALTD
 70
     2
  9
$DIMALTF
 40
25.4
  9
$DIMLFAC
 40
1.0
  9
$DIMTOFL
 70
     0
  9
$DIMTVP
 40
0.0
  9
$DIMTIX
 70
     0
  9
$DIMSOXD
 70
     0
  9
$DIMSAH
 70
     0
  9
$DIMBLK1
  1

  9
$DIMBLK2
  1

  9
$DIMSTYLE
  2
STANDARD
  9
$DIMCLRD
 70
     0
  9
$DIMCLRE
 70
     0
  9
$DIMCLRT
 70
     0
  9
$DIMTFAC
 40
1.0
  9
$DIMGAP
 40
0.09
  9
$LUNITS
 70
     2
  9
$LUPREC
 70
     2
  9
$SKETCHINC
 40
0.1
  9
$FILLETRAD
 40
0.0
  9
$AUNITS
 70
     0
  9
$AUPREC
 70
     1
  9
$MENU
  1
acad
  9
$ELEVATION
 40
0.0
  9
$PELEVATION
 40
0.0
  9
$THICKNESS
 40
0.0
  9
$LIMCHECK
 70
     0
  9
$CHAMFERA
 40
0.0
  9
$CHAMFERB
 40
0.0
  9
$SKPOLY
 70
     0
  9
$TDCREATE
 40
2449436.638540625
  9
$TDUPDATE
 40
2457778.704953704
  9
$TDINDWG
 40
0.0790954051
  9
$TDUSRTIMER
 40
0.0790954051
  9
$USRTIMER
 70
     1
  9
$ANGBASE
 50
0.0
  9
$ANGDIR
 70
     0
  9
$PDMODE
 70
     0
  9
$PDSIZE
 40
0.0
  9
$PLINEWID
 40
0.0
  9
$COORDS
 70
     1
  9
$SPLFRAME
 70
     0
  9
$SPLINETYPE
 70
     6
  9
$SPLINESEGS
 70
     8
  9
$ATTDIA
 70
     0
  9
$ATTREQ
 70
     1
  9
$HANDLING
 70
     1
  9
$HANDSEED
  5
EF
  9
$SURFTAB1
 70
     6
  9
$SURFTAB2
 70
     6
  9
$SURFTYPE
 70
     6
  9
$SURFU
 70
     6
  9
$SURFV
 70
     6
  9
$UCSNAME
  2

  9
$UCSORG
 10
0.0
 20
0.0
 30
0.0
  9
$UCSXDIR
 10
1.0
 20
0.0
 30
0.0
  9
$UCSYDIR
 10
0.0
 20
1.0
 30
0.0
  9
$PUCSNAME
  2

  9
$PUCSORG
 10
0.0
 20
0.0
 30
0.0
  9
$PUCSXDIR
 10
1.0
 20
0.0
 30
0.0
  9
$PUCSYDIR
 10
0.0
 20
1.0
 30
0.0
  9
$USERI1
 70
     0
  9
$USERI2
 70
     0
  9
$USERI3
 70
     0
  9
$USERI4
 70
     0
  9
$USERI5
 70
     0
  9
$USERR1
 40
0.0
  9
$USERR2
 40
0.0
  9
$USERR3
 40
0.0
  9
$USERR4
 40
0.0
  9
$USERR5
 40
0.0
  9
$WORLDVIEW
 70
     1
  9
$SHADEDGE
 70
     3
  9
$SHADEDIF
 70
    70
  9
$TILEMODE
 70
     1
  9
$MAXACTVP
 70
    16
  9
$PLIMCHECK
 70
     0
  9
$PEXTMIN
 10
1.000000000000000E+20
 20
1.000000000000000E+20
 30
1.000000000000000E+20
  9
$PEXTMAX
 10
-1.000000000000000E+20
 20
-1.000000000000000E+20
 30
-1.000000000000000E+20
  9
$PLIMMIN
 10
0.0
 20
0.0
  9
$PLIMMAX
 10
12.0
 20
9.0
  9
$UNITMODE
 70
     0
  9
$VISRETAIN
 70
     0
  9
$PLINEGEN
 70
     0
  9
$PSLTSCALE
 70
     0
  0
ENDSEC
  0
SECTION
  2
TABLES
  0
TABLE
  2
VPORT
 70
     1
  0
VPORT
  2
*ACTIVE
 70
     0
 10
0.0
 20
0.0
 11
1.0
 21
1.0
 12
-5979.578901642716
 22
-5956.936864319362
 13
0.0
 23
0.0
 14
1.0
 24
1.0
 15
0.0
 25
0.0
 16
0.0
 26
0.0
 36
1.0
 17
0.0
 27
0.0
 37
0.0
 40
1.656432112800675
 41
1.503537735849057
 42
50.0
 43
0.0
 44
0.0
 50
0.0
 51
0.0
 71
     0
 72
   100
 73
     1
 74
     0
 75
     0
 76
     0
 77
     0
 78
     0
  0
ENDTAB
  0
TABLE
  2
LTYPE
 70
     1
  0
LTYPE
  2
CONTINUOUS
 70
     0
  3
Solid line
 72
    65
 73
     0
 40
0.0
  0
ENDTAB
  0
TABLE
  2
LAYER
 70
     2
  0
LAYER
  2
0
 70
     0
 62
     7
  6
CONTINUOUS
  0
LAYER
  2
HID
 70
     0
 62
     3
  6
CONTINUOUS
  0
ENDTAB
  0
TABLE
  2
STYLE
 70
     1
  0
STYLE
  2
STANDARD
 70
     0
 40
0.0
 41
1.0
 50
0.0
 71
     0
 42
0.2
  3
txt
  4

  0
ENDTAB
  0
TABLE
  2
VIEW
 70
     0
  0
ENDTAB
  0
TABLE
  2
UCS
 70
     0
  0
ENDTAB
  0
TABLE
  2
APPID
 70
     2
  0
APPID
  2
ACAD
 70
     0
  0
APPID
  2
DCO15
 70
     0
  0
ENDTAB
  0
TABLE
  2
DIMSTYLE
 70
     1
  0
DIMSTYLE
  2
STANDARD
 70
     0
  3

  4

  5

  6

  7

 40
1.0
 41
0.18
 42
0.0625
 43
0.38
 44
0.18
 45
0.0
 46
0.0
 47
0.0
 48
0.0
140
0.18
141
0.09
142
0.0
143
25.4
144
1.0
145
0.0
146
1.0
147
0.09
 71
     0
 72
     0
 73
     1
 74
     1
 75
     0
 76
     0
 77
     0
 78
     0
170
     0
171
     2
172
     0
173
     0
174
     0
175
     0
176
     0
177
     0
178
     0
  0
ENDTAB
  0
ENDSEC
  0
SECTION
  2
BLOCKS
  0
BLOCK
  8
0
  2
$MODEL_SPACE
 70
     0
 10
0.0
 20
0.0
 30
0.0
  3
$MODEL_SPACE
  1

  0
ENDBLK
  5
6
  8
0
  0
BLOCK
 67
     1
  8
0
  2
$PAPER_SPACE
 70
     0
 10
0.0
 20
0.0
 30
0.0
  3
$PAPER_SPACE
  1

  0
ENDBLK
  5
9
 67
     1
  8
0
  0
BLOCK
  8
0
  2
*X0
 70
     1
 10
0.0
 20
0.0
 30
0.0
  3
*X0
  1

  0
LINE
  5
4A
  8
0
 62
     0
 10
705.4727444454878
 20
-1.634036741059617
 30
0.0
 11
711.0479046624368
 21
3.941123475889451
 31
0.0
  0
LINE
  5
4B
  8
0
 62
     0
 10
661.2785706213285
 20
-1.634036741059617
 30
0.0
 11
711.0479046624368
 21
48.13529730004868
 31
0.0
  0
LINE
  5
4C
  8
0
 62
     0
 10
617.0843967971693
 20
-1.634036741059617
 30
0.0
 11
711.0479046624368
 21
92.3294711242079
 31
0.0
  0
LINE
  5
4D
  8
0
 62
     0
 10
611.047904662437
 20
36.52364494836721
 30
0.0
 11
702.8902229730102
 21
128.3659632589404
 31
0.0
  0
LINE
  5
4E
  8
0
 62
     0
 10
611.0479046624368
 20
80.7178187725263
 30
0.0
 11
658.6960491488511
 21
128.3659632589404
 31
0.0
  0
LINE
  5
4F
  8
0
 62
     0
 10
611.0479046624368
 20
124.9119925966855
 30
0.0
 11
614.5018753246918
 21
128.3659632589404
 31
0.0
  0
LINE
  5
50
  8
0
 62
     0
 10
1361.047904662437
 20
123.6110375859789
 30
0.0
 11
1365.802830335399
 21
128.3659632589404
 31
0.0
  0
LINE
  5
51
  8
0
 62
     0
 10
1361.047904662437
 20
79.4168637618197
 30
0.0
 11
1409.997004159558
 21
128.3659632589404
 31
0.0
  0
LINE
  5
52
  8
0
 62
     0
 10
1361.047904662437
 20
35.22268993766048
 30
0.0
 11
1454.191177983717
 21
128.3659632589404
 31
0.0
  0
LINE
  5
53
  8
0
 62
     0
 10
1368.385351807876
 20
-1.634036741059617
 30
0.0
 11
1461.047904662437
 21
91.02851611350125
 31
0.0
  0
LINE
  5
54
  8
0
 62
     0
 10
1412.579525632035
 20
-1.634036741059617
 30
0.0
 11
1461.047904662437
 21
46.83434228934203
 31
0.0
  0
LINE
  5
55
  8
0
 62
     0
 10
1456.773699456195
 20
-1.634036741059617
 30
0.0
 11
1461.047904662437
 21
2.6401684651828
 31
0.0
  0
ENDBLK
  5
57
  8
0
  0
ENDSEC
  0
SECTION
  2
ENTITIES
  0
ARC
  5
1E
  8
0
 62
     0
 10
-5978.792231972539
 20
-5956.855693450394
 30
0.0
 40
0.03
 50
0.0000000000000041
 51
90.0
  0
ARC
  5
1F
  8
0
 62
     0
 10
-5978.767231972538
 20
-5956.905693450394
 30
0.0
 40
0.005
 50
270.0
 51
0.0000000000000041
  0
ARC
  5
20
  8
0
 62
     0
 10
-5978.767231972538
 20
-5956.905693450394
 30
0.0
 40
0.005
 50
270.0
 51
0.0000000000000041
  0
LINE
  5
21
  8
0
 62
     0
 10
-5978.762231972539
 20
-5956.855693450394
 30
0.0
 11
-5978.762231972539
 21
-5956.905693450394
 31
0.0
  0
ARC
  5
22
  8
0
  6
CONTINUOUS
 62
     0
 10
-5979.031910066588
 20
-5956.921380967954
 30
0.0
 40
0.002
 50
343.0645679531805
 51
73.06456795317898
  0
LINE
  5
23
  8
0
  6
CONTINUOUS
 62
     0
 10
-5979.031327478914
 20
-5956.919467700695
 30
0.0
 11
-5979.036685191044
 21
-5956.917880178412
 31
0.0
  0
ARC
  5
24
  8
0
  6
CONTINUOUS
 62
     0
 10
-5979.028706074726
 20
-5956.93283995862
 30
0.0
 40
0.002
 50
343.0645679531789
 51
73.06456795317894
  0
LINE
  5
25
  8
0
  6
CONTINUOUS
 62
     0
 10
-5979.028123487052
 20
-5956.930926691362
 30
0.0
 11
-5979.030413882769
 21
-5956.930199212336
 31
0.0
  0
ARC
  5
26
  8
0
  6
CONTINUOUS
 62
     0
 10
-5979.029831295094
 20
-5956.928285945078
 30
0.0
 40
0.002
 50
163.0645679531805
 51
253.0645679531791
  0
LINE
  5
27
  8
0
  6
CONTINUOUS
 62
     0
 10
-5979.026792807467
 20
-5956.933422546294
 30
0.0
 11
-5979.031431159204
 21
-5956.948527485997
 31
0.0
  0
ARC
  5
28
  8
0
  6
CONTINUOUS
 62
     0
 10
-5979.036799997529
 20
-5956.951043953813
 30
0.0
 40
0.002
 50
73.06456795317894
 51
163.0645679531818
  0
LINE
  5
29
  8
0
  6
CONTINUOUS
 62
     0
 10
-5979.033927014137
 20
-5956.949858165582
 30
0.0
 11
-5979.036217409855
 21
-5956.949130686555
 31
0.0
  0
ARC
  5
2A
  8
0
  6
CONTINUOUS
 62
     0
 10
-5979.033344426462
 20
-5956.947944898323
 30
0.0
 40
0.002
 50
253.0645679531791
 51
343.0645679531789
  0
LINE
  5
2B
  8
0
  6
CONTINUOUS
 62
     0
 10
-5979.042956882742
 20
-5956.957531847498
 30
0.0
 11
-5979.048296729514
 21
-5956.955949765195
 31
0.0
  0
ARC
  5
2C
  8
0
  6
CONTINUOUS
 62
     0
 10
-5979.042374295068
 20
-5956.95561858024
 30
0.0
 40
0.002
 50
253.0645679531794
 51
343.0645679531797
  0
LINE
  5
2D
  8
0
  6
CONTINUOUS
 62
     0
 10
-5979.029996799331
 20
-5956.921963555628
 30
0.0
 11
-5979.040461027809
 21
-5956.956201167915
 31
0.0
  0
ARC
  5
2E
  8
0
  6
CONTINUOUS
 62
     0
 10
-5979.222752382146
 20
-5957.185693450394
 30
0.0
 40
0.1
 50
270.0
 51
343.0645679531789
  0
LINE
  5
2F
  8
0
  6
CONTINUOUS
 62
     0
 10
-5979.304481972538
 20
-5957.415693450394
 30
0.0
 11
-5979.404481972539
 21
-5957.415693450394
 31
0.0
  0
LINE
  5
30
  8
0
  6
CONTINUOUS
 62
     0
 10
-5979.404481972539
 20
-5957.415693450394
 30
0.0
 11
-5979.404481972539
 21
-5957.285693450394
 31
0.0
  0
LINE
  5
31
  8
0
  6
CONTINUOUS
 62
     0
 10
-5979.304481972538
 20
-5957.415693450394
 30
0.0
 11
-5979.304481972538
 21
-5957.285693450394
 31
0.0
  0
LINE
  5
32
  8
0
  6
CONTINUOUS
 62
     0
 10
-5979.574481972539
 20
-5957.316412852213
 30
0.0
 11
-5979.574481972539
 21
-5957.306803520996
 31
0.0
  0
ARC
  5
33
  8
0
  6
CONTINUOUS
 62
     0
 10
-5979.576481972538
 20
-5957.316412852213
 30
0.0
 40
0.002
 50
270.0
 51
0.0000000000000041
  0
ARC
  5
34
  8
0
  6
CONTINUOUS
 62
     0
 10
-5979.572481972538
 20
-5957.306803520996
 30
0.0
 40
0.002
 50
146.3099324740202
 51
180.0
  0
LINE
  5
35
  8
0
  6
CONTINUOUS
 62
     0
 10
-5979.634481972538
 20
-5957.316412852213
 30
0.0
 11
-5979.634481972538
 21
-5957.306803520996
 31
0.0
  0
ARC
  5
36
  8
0
  6
CONTINUOUS
 62
     0
 10
-5979.632481972539
 20
-5957.316412852213
 30
0.0
 40
0.002
 50
180.0
 51
270.0
  0
ARC
  5
37
  8
0
  6
CONTINUOUS
 62
     0
 10
-5979.636481972539
 20
-5957.306803520996
 30
0.0
 40
0.002
 50
0.0000000000000041
 51
33.69006752597978
  0
LINE
  5
38
  8
0
  6
CONTINUOUS
 62
     0
 10
-5979.574388096263
 20
-5957.306197969721
 30
0.0
 11
-5979.634575848814
 21
-5957.306197969721
 31
0.0
  0
LINE
  5
39
  8
0
  6
CONTINUOUS
 62
     0
 10
-5979.576481972538
 20
-5957.318412852213
 30
0.0
 11
-5979.632481972539
 21
-5957.318412852213
 31
0.0
  0
LINE
  5
3A
  8
0
  6
CONTINUOUS
 62
     0
 10
-5979.654481972539
 20
-5957.285693450394
 30
0.0
 11
-5979.63481787195
 21
-5957.305694120604
 31
0.0
  0
LINE
  5
3B
  8
0
  6
CONTINUOUS
 62
     0
 10
-5979.574146073127
 20
-5957.305694120604
 30
0.0
 11
-5979.554481972538
 21
-5957.285693450394
 31
0.0
  0
LINE
  5
3C
  8
0
  6
CONTINUOUS
 62
     0
 10
-5979.034481972539
 20
-5956.910693450394
 30
0.0
 11
-5979.127089019229
 21
-5957.214822834107
 31
0.0
  0
ARC
  5
3D
  8
0
 62
     0
 10
-5980.676731972539
 20
-5956.855693450394
 30
0.0
 40
0.03
 50
90.0
 51
180.0
  0
POINT
  5
3E
  8
0
 62
     0
 10
-5980.706731972538
 20
-5956.910693450394
 30
0.0
  0
ARC
  5
3F
  8
0
 62
     0
 10
-5980.701731972538
 20
-5956.905693450394
 30
0.0
 40
0.005
 50
180.0
 51
270.0
  0
LINE
  5
40
  8
0
 62
     0
 10
-5980.706731972538
 20
-5956.905693450394
 30
0.0
 11
-5980.706731972538
 21
-5956.855693450394
 31
0.0
  0
LINE
  5
41
  8
0
  6
CONTINUOUS
 62
     0
 10
-5980.054481972538
 20
-5957.415693450394
 30
0.0
 11
-5980.154481972539
 21
-5957.415693450394
 31
0.0
  0
LINE
  5
42
  8
0
  6
CONTINUOUS
 62
     0
 10
-5980.154481972539
 20
-5957.415693450394
 30
0.0
 11
-5980.154481972539
 21
-5957.285693450394
 31
0.0
  0
LINE
  5
43
  8
0
  6
CONTINUOUS
 62
     0
 10
-5980.054481972538
 20
-5957.415693450394
 30
0.0
 11
-5980.054481972538
 21
-5957.285693450394
 31
0.0
  0
ARC
  5
44
  8
0
  6
CONTINUOUS
 62
     0
 10
-5980.125174483389
 20
-5957.185693450394
 30
0.0
 40
0.1
 50
214.3782960906639
 51
270.0
  0
LINE
  5
45
  8
0
  6
CONTINUOUS
 62
     0
 10
-5980.434481972538
 20
-5956.910693450394
 30
0.0
 11
-5980.207707228511
 21
-5957.242158890998
 31
0.0
  0
LINE
  5
46
  8
0
 62
     0
 10
-5980.676731972539
 20
-5956.825693450394
 30
0.0
 11
-5978.792231972539
 21
-5956.825693450394
 31
0.0
  0
LINE
  5
47
  8
0
 62
     0
 10
-5980.701731972538
 20
-5956.910693450394
 30
0.0
 11
-5978.767231972538
 21
-5956.910693450394
 31
0.0
  0
INSERT
  5
48
  8
0
  6
CONTINUOUS
 62
     0
  2
*X0
 10
-5980.765529877201
 20
-5957.414059413653
 30
0.0
 41
0.001
 42
0.001
 43
0.001
 50
0.0000000000000041
1001
ACAD
1000
HATCH
1002
{
1070
    16
1000
ANSI31
1040
250.0
1040
0.0
1002
}
  0
LINE
  5
58
  8
0
  6
CONTINUOUS
 62
     0
 10
-5979.222752382146
 20
-5957.285693450394
 30
0.0
 11
-5980.125174483389
 21
-5957.285693450394
 31
0.0
  0
ENDSEC
  0
EOF
