  0
SECTION
  2
HEADER
  9
$ACADVER
  1
AC1009
  9
$DWGCODEPAGE
  3
ansi_1252
  9
$INSBASE
 10
-5980.63393618812
 20
-5955.130690807425
 30
0.0
  9
$EXTMIN
 10
-5980.63393618812
 20
-5956.495690807425
 30
0.0
  9
$EXTMAX
 10
-5979.25893618812
 20
-5955.120690807425
 30
0.0
  9
$LIMMIN
 10
0.0
 20
0.0
  9
$LIMMAX
 10
900.0
 20
600.0
  9
$ORTHOMODE
 70
     0
  9
$REGENMODE
 70
     1
  9
$FILLMODE
 70
     1
  9
$QTEXTMODE
 70
     0
  9
$MIRRTEXT
 70
     1
  9
$DRAGMODE
 70
     2
  9
$LTSCALE
 40
30.0
  9
$OSMODE
 70
    37
  9
$ATTMODE
 70
     1
  9
$TEXTSIZE
 40
0.2
  9
$TRACEWID
 40
0.05
  9
$TEXTSTYLE
  7
STANDARD
  9
$CLAYER
  8
HID
  9
$CELTYPE
  6
BYLAYER
  9
$CECOLOR
 62
   256
  9
$DIMSCALE
 40
1.0
  9
$DIMASZ
 40
2.0
  9
$DIMEXO
 40
2.0
  9
$DIMDLI
 40
0.38
  9
$DIMRND
 40
0.0
  9
$DIMDLE
 40
0.0
  9
$DIMEXE
 40
2.0
  9
$DIMTP
 40
0.0
  9
$DIMTM
 40
0.0
  9
$DIMTXT
 40
2.0
  9
$DIMCEN
 40
0.09
  9
$DIMTSZ
 40
0.0
  9
$DIMTOL
 70
     0
  9
$DIMLIM
 70
     0
  9
$DIMTIH
 70
     0
  9
$DIMTOH
 70
     0
  9
$DIMSE1
 70
     0
  9
$DIMSE2
 70
     0
  9
$DIMTAD
 70
     0
  9
$DIMZIN
 70
     0
  9
$DIMBLK
  1

  9
$DIMASO
 70
     1
  9
$DIMSHO
 70
     0
  9
$DIMPOST
  1

  9
$DIMAPOST
  1

  9
$DIMALT
 70
     0
  9
$DIMALTD
 70
     2
  9
$DIMALTF
 40
25.4
  9
$DIMLFAC
 40
1.0
  9
$DIMTOFL
 70
     0
  9
$DIMTVP
 40
0.0
  9
$DIMTIX
 70
     0
  9
$DIMSOXD
 70
     0
  9
$DIMSAH
 70
     0
  9
$DIMBLK1
  1

  9
$DIMBLK2
  1

  9
$DIMSTYLE
  2
STANDARD
  9
$DIMCLRD
 70
     0
  9
$DIMCLRE
 70
     0
  9
$DIMCLRT
 70
     0
  9
$DIMTFAC
 40
1.0
  9
$DIMGAP
 40
0.09
  9
$LUNITS
 70
     2
  9
$LUPREC
 70
     2
  9
$SKETCHINC
 40
0.1
  9
$FILLETRAD
 40
0.0
  9
$AUNITS
 70
     0
  9
$AUPREC
 70
     1
  9
$MENU
  1
acad
  9
$ELEVATION
 40
0.0
  9
$PELEVATION
 40
0.0
  9
$THICKNESS
 40
0.0
  9
$LIMCHECK
 70
     0
  9
$CHAMFERA
 40
0.0
  9
$CHAMFERB
 40
0.0
  9
$SKPOLY
 70
     0
  9
$TDCREATE
 40
2449436.638540625
  9
$TDUPDATE
 40
2457778.704953704
  9
$TDINDWG
 40
0.0783131019
  9
$TDUSRTIMER
 40
0.0783131019
  9
$USRTIMER
 70
     1
  9
$ANGBASE
 50
0.0
  9
$ANGDIR
 70
     0
  9
$PDMODE
 70
     0
  9
$PDSIZE
 40
0.0
  9
$PLINEWID
 40
0.0
  9
$COORDS
 70
     1
  9
$SPLFRAME
 70
     0
  9
$SPLINETYPE
 70
     6
  9
$SPLINESEGS
 70
     8
  9
$ATTDIA
 70
     0
  9
$ATTREQ
 70
     1
  9
$HANDLING
 70
     1
  9
$HANDSEED
  5
DF
  9
$SURFTAB1
 70
     6
  9
$SURFTAB2
 70
     6
  9
$SURFTYPE
 70
     6
  9
$SURFU
 70
     6
  9
$SURFV
 70
     6
  9
$UCSNAME
  2

  9
$UCSORG
 10
0.0
 20
0.0
 30
0.0
  9
$UCSXDIR
 10
1.0
 20
0.0
 30
0.0
  9
$UCSYDIR
 10
0.0
 20
1.0
 30
0.0
  9
$PUCSNAME
  2

  9
$PUCSORG
 10
0.0
 20
0.0
 30
0.0
  9
$PUCSXDIR
 10
1.0
 20
0.0
 30
0.0
  9
$PUCSYDIR
 10
0.0
 20
1.0
 30
0.0
  9
$USERI1
 70
     0
  9
$USERI2
 70
     0
  9
$USERI3
 70
     0
  9
$USERI4
 70
     0
  9
$USERI5
 70
     0
  9
$USERR1
 40
0.0
  9
$USERR2
 40
0.0
  9
$USERR3
 40
0.0
  9
$USERR4
 40
0.0
  9
$USERR5
 40
0.0
  9
$WORLDVIEW
 70
     1
  9
$SHADEDGE
 70
     3
  9
$SHADEDIF
 70
    70
  9
$TILEMODE
 70
     1
  9
$MAXACTVP
 70
    16
  9
$PLIMCHECK
 70
     0
  9
$PEXTMIN
 10
1.000000000000000E+20
 20
1.000000000000000E+20
 30
1.000000000000000E+20
  9
$PEXTMAX
 10
-1.000000000000000E+20
 20
-1.000000000000000E+20
 30
-1.000000000000000E+20
  9
$PLIMMIN
 10
0.0
 20
0.0
  9
$PLIMMAX
 10
12.0
 20
9.0
  9
$UNITMODE
 70
     0
  9
$VISRETAIN
 70
     0
  9
$PLINEGEN
 70
     0
  9
$PSLTSCALE
 70
     0
  0
ENDSEC
  0
SECTION
  2
TABLES
  0
TABLE
  2
VPORT
 70
     1
  0
VPORT
  2
*ACTIVE
 70
     0
 10
0.0
 20
0.0
 11
1.0
 21
1.0
 12
-5979.759333332275
 22
-5955.58710056957
 13
0.0
 23
0.0
 14
1.0
 24
1.0
 15
0.0
 25
0.0
 16
0.0
 26
0.0
 36
1.0
 17
0.0
 27
0.0
 37
0.0
 40
1.991822594816227
 41
1.503537735849057
 42
50.0
 43
0.0
 44
0.0
 50
0.0
 51
0.0
 71
     0
 72
   100
 73
     1
 74
     0
 75
     0
 76
     1
 77
     0
 78
     0
  0
ENDTAB
  0
TABLE
  2
LTYPE
 70
     1
  0
LTYPE
  2
CONTINUOUS
 70
     0
  3
Solid line
 72
    65
 73
     0
 40
0.0
  0
ENDTAB
  0
TABLE
  2
LAYER
 70
     2
  0
LAYER
  2
0
 70
     0
 62
     7
  6
CONTINUOUS
  0
LAYER
  2
HID
 70
     0
 62
     3
  6
CONTINUOUS
  0
ENDTAB
  0
TABLE
  2
STYLE
 70
     1
  0
STYLE
  2
STANDARD
 70
     0
 40
0.0
 41
1.0
 50
0.0
 71
     0
 42
0.2
  3
txt
  4

  0
ENDTAB
  0
TABLE
  2
VIEW
 70
     0
  0
ENDTAB
  0
TABLE
  2
UCS
 70
     0
  0
ENDTAB
  0
TABLE
  2
APPID
 70
     2
  0
APPID
  2
ACAD
 70
     0
  0
APPID
  2
DCO15
 70
     0
  0
ENDTAB
  0
TABLE
  2
DIMSTYLE
 70
     1
  0
DIMSTYLE
  2
STANDARD
 70
     0
  3

  4

  5

  6

  7

 40
1.0
 41
0.18
 42
0.0625
 43
0.38
 44
0.18
 45
0.0
 46
0.0
 47
0.0
 48
0.0
140
0.18
141
0.09
142
0.0
143
25.4
144
1.0
145
0.0
146
1.0
147
0.09
 71
     0
 72
     0
 73
     1
 74
     1
 75
     0
 76
     0
 77
     0
 78
     0
170
     0
171
     2
172
     0
173
     0
174
     0
175
     0
176
     0
177
     0
178
     0
  0
ENDTAB
  0
ENDSEC
  0
SECTION
  2
BLOCKS
  0
BLOCK
  8
0
  2
$MODEL_SPACE
 70
     0
 10
0.0
 20
0.0
 30
0.0
  3
$MODEL_SPACE
  1

  0
ENDBLK
  5
6
  8
0
  0
BLOCK
 67
     1
  8
0
  2
$PAPER_SPACE
 70
     0
 10
0.0
 20
0.0
 30
0.0
  3
$PAPER_SPACE
  1

  0
ENDBLK
  5
9
 67
     1
  8
0
  0
ENDSEC
  0
SECTION
  2
ENTITIES
  0
POLYLINE
  5
1E
  8
0
 62
     0
 66
     1
 10
0.0
 20
0.0
 30
0.0
  0
VERTEX
  5
B4
  8
0
 62
     0
 10
-5980.11980275172
 20
-5956.37944038229
 30
0.0
 42
0.0434676373034342
  0
VERTEX
  5
B5
  8
0
 62
     0
 10
-5980.086925847105
 20
-5956.368314232038
 30
0.0
 42
0.0933188410671887
  0
VERTEX
  5
B6
  8
0
 62
     0
 10
-5979.670664543457
 20
-5956.083962452088
 30
0.0
 42
0.0933188410671884
  0
VERTEX
  5
B7
  8
0
 62
     0
 10
-5979.386312763507
 20
-5955.66770114844
 30
0.0
 42
0.1511699937082592
  0
VERTEX
  5
B8
  8
0
 62
     0
 10
-5979.372965137343
 20
-5955.550222914711
 30
0.0
 42
0.1507421844582769
  0
VERTEX
  5
B9
  8
0
 62
     0
 10
-5979.482051245598
 20
-5955.343805864903
 30
0.0
 42
0.1507421844582769
  0
VERTEX
  5
BA
  8
0
 62
     0
 10
-5979.688468295406
 20
-5955.234719756647
 30
0.0
 42
0.1511699937082634
  0
VERTEX
  5
BB
  8
0
 62
     0
 10
-5979.805946529135
 20
-5955.248067382811
 30
0.0
 42
0.0933188410671841
  0
VERTEX
  5
BC
  8
0
 62
     0
 10
-5980.222207832783
 20
-5955.532419162761
 30
0.0
 42
0.0933188410671886
  0
VERTEX
  5
BD
  8
0
 62
     0
 10
-5980.506559612733
 20
-5955.948680466409
 30
0.0
 42
0.0434676373034342
  0
VERTEX
  5
BE
  8
0
 62
     0
 10
-5980.517685762986
 20
-5955.981557371025
 30
0.0
  0
SEQEND
  5
DB
  8
0
 62
     0
  0
POLYLINE
  5
1F
  8
0
 62
     0
 66
     1
 10
0.0
 20
0.0
 30
0.0
 70
     1
  0
VERTEX
  5
BF
  8
0
 62
     0
 10
-5979.551959925516
 20
-5955.41371454482
 30
0.0
 42
0.156877911582399
  0
VERTEX
  5
C0
  8
0
 62
     0
 10
-5979.713857364918
 20
-5955.330623226829
 30
0.0
 42
0.1457653463837294
  0
VERTEX
  5
C1
  8
0
 62
     0
 10
-5979.770493984939
 20
-5955.337828075483
 30
0.0
 42
0.0939020360997642
  0
VERTEX
  5
C2
  8
0
 62
     0
 10
-5980.15271484455
 20
-5955.600304805673
 30
0.0
 42
1.003262439603641
  0
VERTEX
  5
C3
  8
0
 62
     0
 10
-5979.738484758631
 20
-5956.014924998194
 30
0.0
 42
0.0931600586540937
  0
VERTEX
  5
C4
  8
0
 62
     0
 10
-5979.47607345618
 20
-5955.632248604243
 30
0.0
 42
0.1457653463837293
  0
VERTEX
  5
C5
  8
0
 62
     0
 10
-5979.468868607524
 20
-5955.575611984223
 30
0.0
 42
0.1568779115823989
  0
SEQEND
  5
DC
  8
0
 62
     0
  0
POLYLINE
  5
20
  8
0
 62
     0
 66
     1
 10
0.0
 20
0.0
 30
0.0
  0
VERTEX
  5
C6
  8
0
 62
     0
 10
-5979.387103418487
 20
-5955.880301263229
 30
0.0
 42
0.3465074231755128
  0
VERTEX
  5
C7
  8
0
 62
     0
 10
-5979.446695906538
 20
-5955.308450525843
 30
0.0
 42
0.361238332533675
  0
VERTEX
  5
C8
  8
0
 62
     0
 10
-5980.014337298091
 20
-5955.256025091284
 30
0.0
 42
-0.3152829856332187
  0
VERTEX
  5
C9
  8
0
 62
     0
 10
-5980.132035783203
 20
-5955.253806591025
 30
0.0
 42
0.3537163877222487
  0
VERTEX
  5
CA
  8
0
 62
     0
 10
-5980.38546657725
 20
-5955.249602425965
 30
0.0
 42
0.0298274692789038
  0
VERTEX
  5
CB
  8
0
 62
     0
 10
-5980.448814861275
 20
-5955.30581213427
 30
0.0
 42
0.0298274692789038
  0
VERTEX
  5
CC
  8
0
 62
     0
 10
-5980.505024569579
 20
-5955.369160418295
 30
0.0
 42
0.3534155060625365
  0
VERTEX
  5
CD
  8
0
 62
     0
 10
-5980.500917095096
 20
-5955.622410557105
 30
0.0
 42
-0.3155558508179093
  0
VERTEX
  5
CE
  8
0
 62
     0
 10
-5980.498601904262
 20
-5955.740289697455
 30
0.0
 42
0.361238332533675
  0
VERTEX
  5
CF
  8
0
 62
     0
 10
-5980.446176469702
 20
-5956.307931089006
 30
0.0
 42
0.347089736315185
  0
VERTEX
  5
D0
  8
0
 62
     0
 10
-5979.873458962526
 20
-5956.366995099864
 30
0.0
  0
SEQEND
  5
DD
  8
0
 62
     0
  0
CIRCLE
  5
21
  8
0
 62
     0
 10
-5979.840370170942
 20
-5955.730409061494
 30
0.0
 40
0.03
  0
CIRCLE
  5
22
  8
0
 62
     0
 10
-5979.840370170942
 20
-5955.730409061494
 30
0.0
 40
0.05
  0
POINT
  5
23
  8
0
 62
     0
 10
-5980.63393618812
 20
-5955.120690807425
 30
0.0
  0
POLYLINE
  5
24
  8
0
 62
     0
 66
     1
 10
0.0
 20
0.0
 30
0.0
 70
     1
  0
VERTEX
  5
D1
  8
0
 62
     0
 10
-5980.62393618812
 20
-5956.495690807425
 30
0.0
  0
VERTEX
  5
D2
  8
0
 62
     0
 10
-5980.218033555284
 20
-5956.495690807425
 30
0.0
 42
0.101142031761438
  0
VERTEX
  5
D3
  8
0
 62
     0
 10
-5980.061089165534
 20
-5956.463615335727
 30
0.0
 42
0.1934613711884553
  0
VERTEX
  5
D4
  8
0
 62
     0
 10
-5979.291011659818
 20
-5955.69353783001
 30
0.0
 42
0.1011420317614267
  0
VERTEX
  5
D5
  8
0
 62
     0
 10
-5979.25893618812
 20
-5955.536593440261
 30
0.0
  0
VERTEX
  5
D6
  8
0
 62
     0
 10
-5979.25893618812
 20
-5955.130690807425
 30
0.0
 42
0.414213562373095
  0
VERTEX
  5
D7
  8
0
 62
     0
 10
-5979.26893618812
 20
-5955.120690807425
 30
0.0
  0
VERTEX
  5
D8
  8
0
 62
     0
 10
-5980.62393618812
 20
-5955.120690807425
 30
0.0
 42
0.414213562373095
  0
VERTEX
  5
D9
  8
0
 62
     0
 10
-5980.63393618812
 20
-5955.130690807425
 30
0.0
  0
VERTEX
  5
DA
  8
0
 62
     0
 10
-5980.63393618812
 20
-5956.485690807424
 30
0.0
 42
0.414213562373095
  0
SEQEND
  5
DE
  8
0
 62
     0
  0
ENDSEC
  0
EOF
