  0
SECTION
  2
HEADER
  9
$ACADVER
  1
AC1009
  9
$DWGCODEPAGE
  3
ansi_1252
  9
$INSBASE
 10
0.0
 20
0.0
 30
0.0
  9
$EXTMIN
 10
-5.368875908810651
 20
-0.0019836186522753
 30
-0.0015258207003583
  9
$EXTMAX
 10
0.0089065410536477
 20
1.65446425727373
 30
0.0000000349246037
  9
$LIMMIN
 10
0.0
 20
0.0
  9
$LIMMAX
 10
12.0
 20
9.0
  9
$ORTHOMODE
 70
     1
  9
$REGENMODE
 70
     1
  9
$FILLMODE
 70
     1
  9
$QTEXTMODE
 70
     0
  9
$MIRRTEXT
 70
     1
  9
$DRAGMODE
 70
     2
  9
$LTSCALE
 40
1.0
  9
$OSMODE
 70
    37
  9
$ATTMODE
 70
     1
  9
$TEXTSIZE
 40
0.2
  9
$TRACEWID
 40
0.05
  9
$TEXTSTYLE
  7
STANDARD
  9
$CLAYER
  8
0
  9
$CELTYPE
  6
CONTINUOUS
  9
$CECOLOR
 62
     0
  9
$DIMSCALE
 40
1.0
  9
$DIMASZ
 40
0.18
  9
$DIMEXO
 40
0.0625
  9
$DIMDLI
 40
0.38
  9
$DIMRND
 40
0.0
  9
$DIMDLE
 40
0.0
  9
$DIMEXE
 40
0.18
  9
$DIMTP
 40
0.0
  9
$DIMTM
 40
0.0
  9
$DIMTXT
 40
0.18
  9
$DIMCEN
 40
0.09
  9
$DIMTSZ
 40
0.0
  9
$DIMTOL
 70
     0
  9
$DIMLIM
 70
     0
  9
$DIMTIH
 70
     1
  9
$DIMTOH
 70
     1
  9
$DIMSE1
 70
     0
  9
$DIMSE2
 70
     0
  9
$DIMTAD
 70
     0
  9
$DIMZIN
 70
     0
  9
$DIMBLK
  1

  9
$DIMASO
 70
     1
  9
$DIMSHO
 70
     0
  9
$DIMPOST
  1

  9
$DIMAPOST
  1

  9
$DIMALT
 70
     0
  9
$DIMALTD
 70
     2
  9
$DIMALTF
 40
25.4
  9
$DIMLFAC
 40
1.0
  9
$DIMTOFL
 70
     0
  9
$DIMTVP
 40
0.0
  9
$DIMTIX
 70
     0
  9
$DIMSOXD
 70
     0
  9
$DIMSAH
 70
     0
  9
$DIMBLK1
  1

  9
$DIMBLK2
  1

  9
$DIMSTYLE
  2
STANDARD
  9
$DIMCLRD
 70
     0
  9
$DIMCLRE
 70
     0
  9
$DIMCLRT
 70
     0
  9
$DIMTFAC
 40
1.0
  9
$DIMGAP
 40
0.09
  9
$LUNITS
 70
     2
  9
$LUPREC
 70
     4
  9
$SKETCHINC
 40
0.1
  9
$FILLETRAD
 40
0.0
  9
$AUNITS
 70
     0
  9
$AUPREC
 70
     2
  9
$MENU
  1
acad
  9
$ELEVATION
 40
0.0
  9
$PELEVATION
 40
0.0
  9
$THICKNESS
 40
0.0
  9
$LIMCHECK
 70
     0
  9
$CHAMFERA
 40
0.0
  9
$CHAMFERB
 40
0.0
  9
$SKPOLY
 70
     0
  9
$TDCREATE
 40
2449162.505135185
  9
$TDUPDATE
 40
2458028.720625
  9
$TDINDWG
 40
0.0000489583
  9
$TDUSRTIMER
 40
0.0000489583
  9
$USRTIMER
 70
     1
  9
$ANGBASE
 50
0.0
  9
$ANGDIR
 70
     0
  9
$PDMODE
 70
    35
  9
$PDSIZE
 40
21.20149804891266
  9
$PLINEWID
 40
0.0
  9
$COORDS
 70
     1
  9
$SPLFRAME
 70
     0
  9
$SPLINETYPE
 70
     6
  9
$SPLINESEGS
 70
     8
  9
$ATTDIA
 70
     0
  9
$ATTREQ
 70
     1
  9
$HANDLING
 70
     1
  9
$HANDSEED
  5
10D
  9
$SURFTAB1
 70
     6
  9
$SURFTAB2
 70
     6
  9
$SURFTYPE
 70
     6
  9
$SURFU
 70
     6
  9
$SURFV
 70
     6
  9
$UCSNAME
  2

  9
$UCSORG
 10
0.0
 20
0.0
 30
0.0
  9
$UCSXDIR
 10
1.0
 20
0.0
 30
0.0
  9
$UCSYDIR
 10
0.0
 20
1.0
 30
0.0
  9
$PUCSNAME
  2

  9
$PUCSORG
 10
0.0
 20
0.0
 30
0.0
  9
$PUCSXDIR
 10
1.0
 20
0.0
 30
0.0
  9
$PUCSYDIR
 10
0.0
 20
1.0
 30
0.0
  9
$USERI1
 70
     0
  9
$USERI2
 70
     0
  9
$USERI3
 70
     0
  9
$USERI4
 70
     0
  9
$USERI5
 70
     0
  9
$USERR1
 40
0.0
  9
$USERR2
 40
0.0
  9
$USERR3
 40
0.0
  9
$USERR4
 40
0.0
  9
$USERR5
 40
0.0
  9
$WORLDVIEW
 70
     1
  9
$SHADEDGE
 70
     3
  9
$SHADEDIF
 70
    70
  9
$TILEMODE
 70
     1
  9
$MAXACTVP
 70
    16
  9
$PLIMCHECK
 70
     0
  9
$PEXTMIN
 10
1.000000000000000E+20
 20
1.000000000000000E+20
 30
1.000000000000000E+20
  9
$PEXTMAX
 10
-1.000000000000000E+20
 20
-1.000000000000000E+20
 30
-1.000000000000000E+20
  9
$PLIMMIN
 10
0.0
 20
0.0
  9
$PLIMMAX
 10
12.0
 20
9.0
  9
$UNITMODE
 70
     0
  9
$VISRETAIN
 70
     0
  9
$PLINEGEN
 70
     1
  9
$PSLTSCALE
 70
     0
  0
ENDSEC
  0
SECTION
  2
TABLES
  0
TABLE
  2
VPORT
 70
     1
  0
VPORT
  2
*ACTIVE
 70
     0
 10
0.0
 20
0.0
 11
1.0
 21
1.0
 12
-2.679984683878502
 22
0.8262403193107275
 13
0.0
 23
0.0
 14
0.1
 24
0.1
 15
1.0
 25
1.0
 16
0.0
 26
0.0
 36
1.0
 17
0.0
 27
0.0
 37
0.0
 40
3.855763707319925
 41
1.56198347107438
 42
50.0
 43
0.0
 44
0.0
 50
0.0
 51
0.0
 71
     0
 72
   100
 73
     1
 74
     1
 75
     0
 76
     0
 77
     0
 78
     0
  0
ENDTAB
  0
TABLE
  2
LTYPE
 70
     1
  0
LTYPE
  2
CONTINUOUS
 70
     0
  3
Solid line
 72
    65
 73
     0
 40
0.0
  0
ENDTAB
  0
TABLE
  2
LAYER
 70
     3
  0
LAYER
  2
0
 70
     0
 62
     7
  6
CONTINUOUS
  0
LAYER
  2
CAR_DTL
 70
     0
 62
     7
  6
CONTINUOUS
  0
LAYER
  2
_KTI_CONTROL
 70
     5
 62
     7
  6
CONTINUOUS
  0
ENDTAB
  0
TABLE
  2
STYLE
 70
     1
  0
STYLE
  2
STANDARD
 70
     0
 40
0.0
 41
1.0
 50
0.0
 71
     0
 42
0.2
  3
txt
  4

  0
ENDTAB
  0
TABLE
  2
VIEW
 70
     0
  0
ENDTAB
  0
TABLE
  2
UCS
 70
     0
  0
ENDTAB
  0
TABLE
  2
APPID
 70
     2
  0
APPID
  2
ACAD
 70
     0
  0
APPID
  2
_KTI_ARCHT
 70
     0
  0
ENDTAB
  0
TABLE
  2
DIMSTYLE
 70
     1
  0
DIMSTYLE
  2
STANDARD
 70
     0
  3

  4

  5

  6

  7

 40
1.0
 41
0.18
 42
0.0625
 43
0.38
 44
0.18
 45
0.0
 46
0.0
 47
0.0
 48
0.0
140
0.18
141
0.09
142
0.0
143
25.4
144
1.0
145
0.0
146
1.0
147
0.09
 71
     0
 72
     0
 73
     1
 74
     1
 75
     0
 76
     0
 77
     0
 78
     0
170
     0
171
     2
172
     0
173
     0
174
     0
175
     0
176
     0
177
     0
178
     0
  0
ENDTAB
  0
ENDSEC
  0
SECTION
  2
BLOCKS
  0
BLOCK
  8
0
  2
$MODEL_SPACE
 70
     0
 10
0.0
 20
0.0
 30
0.0
  3
$MODEL_SPACE
  1

  0
ENDBLK
  5
21
  8
0
 62
     0
  0
BLOCK
 67
     1
  8
0
  2
$PAPER_SPACE
 70
     0
 10
0.0
 20
0.0
 30
0.0
  3
$PAPER_SPACE
  1

  0
ENDBLK
  5
1F
 67
     1
  8
0
 62
     0
  0
ENDSEC
  0
SECTION
  2
ENTITIES
  0
LINE
  5
24
  8
CAR_DTL
 10
-2.7178
 20
0.9905999999999999
 30
0.0
 11
-2.7178
 21
1.0414
 31
0.0
  0
LINE
  5
25
  8
CAR_DTL
 10
-2.7178
 20
1.0414
 30
0.0
 11
-2.5654
 21
1.0414
 31
0.0
  0
LINE
  5
26
  8
CAR_DTL
 10
-2.5654
 20
1.0414
 30
0.0
 11
-2.5654
 21
1.016
 31
0.0
  0
LINE
  5
27
  8
CAR_DTL
 10
-2.5654
 20
1.016
 30
0.0
 11
-2.7178
 21
1.016
 31
0.0
  0
LINE
  5
28
  8
CAR_DTL
 10
-2.6924
 20
1.016
 30
0.0
 11
-2.6924
 21
0.9905999999999999
 31
0.0
  0
LINE
  5
29
  8
CAR_DTL
 10
-2.6924
 20
0.9905999999999999
 30
0.0
 11
-2.7178
 21
0.9905999999999999
 31
0.0
  0
LINE
  5
2A
  8
CAR_DTL
 10
-3.6576
 20
0.9905999999999999
 30
0.0
 11
-3.683
 21
0.9905999999999999
 31
0.0
  0
LINE
  5
2B
  8
CAR_DTL
 10
-3.6576
 20
1.016
 30
0.0
 11
-3.6576
 21
0.9905999999999999
 31
0.0
  0
LINE
  5
2C
  8
CAR_DTL
 10
-3.5306
 20
1.016
 30
0.0
 11
-3.683
 21
1.016
 31
0.0
  0
LINE
  5
2D
  8
CAR_DTL
 10
-3.5306
 20
1.0414
 30
0.0
 11
-3.5306
 21
1.016
 31
0.0
  0
LINE
  5
2E
  8
CAR_DTL
 10
-3.683
 20
1.0414
 30
0.0
 11
-3.5306
 21
1.0414
 31
0.0
  0
LINE
  5
2F
  8
CAR_DTL
 10
-3.683
 20
0.9905999999999999
 30
0.0
 11
-3.683
 21
1.0414
 31
0.0
  0
LINE
  5
30
  8
CAR_DTL
 10
-5.0038
 20
0.9144
 30
0.0
 11
-5.1308
 21
0.9398
 31
0.0
  0
CIRCLE
  5
31
  8
0
  6
BYBLOCK
 62
     0
 10
-4.064
 20
0.3302
 30
0.0
 40
0.1796051224213831
  0
CIRCLE
  5
32
  8
CAR_DTL
 10
-4.064
 20
0.3302
 30
0.0
 40
0.2286
  0
CIRCLE
  5
33
  8
CAR_DTL
 10
-4.064
 20
0.3302
 30
0.0
 40
0.1047268828906886
  0
CIRCLE
  5
34
  8
0
  6
BYBLOCK
 62
     0
 10
-4.064
 20
0.3302
 30
0.0
 40
0.0567961266284947
  0
CIRCLE
  5
35
  8
0
  6
BYBLOCK
 62
     0
 10
-0.7874
 20
0.3302
 30
0.0
 40
0.0567961266284947
  0
CIRCLE
  5
36
  8
CAR_DTL
 10
-0.7874
 20
0.3302
 30
0.0
 40
0.1047268828906886
  0
LINE
  5
37
  8
0
  6
BYBLOCK
 62
     0
 10
-5.2832
 20
0.889
 30
0.0
 11
-5.179065062624087
 21
0.8733589144599737
 31
0.0
  0
ARC
  5
38
  8
CAR_DTL
 10
-5.203005536799917
 20
0.8102520565595309
 30
0.0
 40
0.0651035756897756
 50
282.7431097942123
 51
77.25689020578767
  0
LINE
  5
39
  8
CAR_DTL
 10
-0.3496643263338026
 20
0.5841999999999999
 30
0.0
 11
-0.3048
 21
0.5841999999999999
 31
0.0
  0
LINE
  5
3A
  8
CAR_DTL
 10
-4.9022
 20
0.5294923076923075
 30
0.0
 11
-4.497787101905332
 21
0.5294923076923075
 31
0.0
  0
LINE
  5
3B
  8
CAR_DTL
 10
-3.630212898094673
 20
0.5294923076923075
 30
0.0
 11
-1.246587101905326
 21
0.5294923076923075
 31
0.0
  0
ARC
  5
3C
  8
CAR_DTL
 10
-0.7874
 20
0.381
 30
0.0
 40
0.4826
 50
24.90106237036698
 51
162.0797868606077
  0
LINE
  5
3D
  8
CAR_DTL
 10
-1.0668
 20
0.9144
 30
0.0
 11
-0.3556
 21
0.9398
 31
0.0
  0
LINE
  5
3E
  8
CAR_DTL
 10
-1.0668
 20
0.9144
 30
0.0
 11
-5.0038
 21
0.9144
 31
0.0
  0
ARC
  5
3F
  8
0
  6
BYBLOCK
 62
     0
 10
-4.39752456091001
 20
-5.65508946184024
 30
0.0
 40
6.798125304537593
 50
85.04205598158553
 51
95.97693134215616
  0
ARC
  5
40
  8
CAR_DTL
 10
-4.352780648672065
 20
0.4826
 30
0.0
 40
0.1524
 50
90.0
 51
162.0797868606078
  0
ARC
  5
41
  8
CAR_DTL
 10
-3.775219351327935
 20
0.4826
 30
0.0
 40
0.1524
 50
17.92021313939219
 51
90.0
  0
LINE
  5
42
  8
CAR_DTL
 10
-4.352780648672065
 20
0.635
 30
0.0
 11
-3.775219351327935
 21
0.635
 31
0.0
  0
LINE
  5
43
  8
0
  6
BYBLOCK
 62
     0
 10
-2.1336
 20
1.524
 30
0.0
 11
-2.1336
 21
1.1684
 31
0.0
  0
LINE
  5
44
  8
CAR_DTL
 10
-2.1082
 20
1.524
 30
0.0
 11
-2.1082
 21
1.1684
 31
0.0
  0
ARC
  5
45
  8
0
  6
BYBLOCK
 62
     0
 10
-3.829975927885521
 20
1.496509147319002
 30
0.0
 40
0.0508
 50
308.6073202220292
 51
78.69006752597939
  0
ARC
  5
46
  8
0
  6
BYBLOCK
 62
     0
 10
-4.107640121372872
 20
1.299786254610827
 30
0.0
 40
0.1016
 50
264.805571092265
 51
319.1253196119053
  0
LINE
  5
47
  8
0
  6
BYBLOCK
 62
     0
 10
-0.127
 20
0.9652
 30
0.0
 11
-0.2032
 21
0.9398
 31
0.0
  0
ARC
  5
48
  8
0
  6
BYBLOCK
 62
     0
 10
-3.775219351327935
 20
0.4826
 30
0.0
 40
0.1016
 50
17.92021313939219
 51
90.0
  0
ARC
  5
49
  8
0
  6
BYBLOCK
 62
     0
 10
-4.352780648672065
 20
0.4826
 30
0.0
 40
0.1016
 50
90.0
 51
162.0797868606078
  0
ARC
  5
4A
  8
0
  6
BYBLOCK
 62
     0
 10
-4.0386
 20
0.381
 30
0.0
 40
0.4318
 50
162.0797868606077
 51
180.0
  0
LINE
  5
4B
  8
0
  6
BYBLOCK
 62
     0
 10
-4.352780648672065
 20
0.5841999999999999
 30
0.0
 11
-3.775219351327935
 21
0.5841999999999999
 31
0.0
  0
ARC
  5
4C
  8
CAR_DTL
 10
-3.425790043053127
 20
1.484719443350282
 30
0.0
 40
0.0762
 50
90.0
 51
127.7159627933078
  0
ARC
  5
4D
  8
0
  6
BYBLOCK
 62
     0
 10
-1.649051349036393
 20
1.190818167440288
 30
0.0
 40
0.0254
 50
217.0515409609482
 51
291.8014094863518
  0
ARC
  5
4E
  8
0
  6
BYBLOCK
 62
     0
 10
-4.567512619784455
 20
1.837803248319176
 30
0.0
 40
1.536076111486193
 50
251.5124570872973
 51
273.6247269703577
  0
ARC
  5
4F
  8
0
  6
BYBLOCK
 62
     0
 10
-5.004999195167403
 20
0.7039630720707957
 30
0.0
 40
0.2133800311635454
 50
168.432077321871
 51
214.1434328392539
  0
CIRCLE
  5
50
  8
CAR_DTL
 10
-0.7874
 20
0.3302
 30
0.0
 40
0.2286
  0
CIRCLE
  5
51
  8
0
  6
BYBLOCK
 62
     0
 10
-0.7874
 20
0.3302
 30
0.0
 40
0.1796051224213831
  0
LINE
  5
52
  8
CAR_DTL
 10
-0.4572
 20
0.3302
 30
0.0
 11
-0.3273211875796109
 21
0.3734929374734632
 31
0.0
  0
LINE
  5
53
  8
CAR_DTL
 10
-1.1938
 20
0.3048
 30
0.0
 11
-1.1176
 21
0.3048
 31
0.0
  0
LINE
  5
54
  8
CAR_DTL
 10
-3.734778372520882
 20
0.3048
 30
0.0
 11
-3.6576
 21
0.3048
 31
0.0
  0
LINE
  5
55
  8
CAR_DTL
 10
-4.4704
 20
0.3302
 30
0.0
 11
-4.3942
 21
0.3302
 31
0.0
  0
LINE
  5
56
  8
0
  6
BYBLOCK
 62
     0
 10
-5.239444980835946
 20
0.7467520565595309
 30
0.0
 11
-5.238865438207289
 21
0.8710172829780284
 31
0.0
  0
LINE
  5
57
  8
0
  6
BYBLOCK
 62
     0
 10
-5.188644980835946
 20
0.7467520565595309
 30
0.0
 11
-5.239444980835946
 21
0.7467520565595309
 31
0.0
  0
LINE
  5
58
  8
0
  6
BYBLOCK
 62
     0
 10
-5.188644980835946
 20
0.8737520565595309
 30
0.0
 11
-5.238865438207289
 21
0.8710172829780284
 31
0.0
  0
ARC
  5
59
  8
0
  6
BYBLOCK
 62
     0
 10
-5.301560294318744
 20
0.4318
 30
0.0
 40
0.0508
 50
199.2633184198276
 51
270.0
  0
ARC
  5
5A
  8
0
  6
BYBLOCK
 62
     0
 10
-5.301560294318744
 20
0.5334
 30
0.0
 40
0.0508
 50
90.0
 51
160.7366815801732
  0
ARC
  5
5B
  8
CAR_DTL
 10
-2.046989582512713
 20
1.484719443350282
 30
0.0
 40
0.0762
 50
36.86989764584407
 51
90.0
  0
ARC
  5
5C
  8
CAR_DTL
 10
-1.7018
 20
0.9821333333333337
 30
0.0
 40
0.1016
 50
0.0
 51
36.86989764584404
  0
LINE
  5
5D
  8
CAR_DTL
 10
-1.986029582512713
 20
1.530439443350283
 30
0.0
 11
-1.62052
 21
1.043093333333334
 31
0.0
  0
ARC
  5
5E
  8
CAR_DTL
 10
-2.681219288879173
 20
1.484719443350282
 30
0.0
 40
0.0762
 50
90.0
 51
187.1250163489017
  0
ARC
  5
5F
  8
CAR_DTL
 10
-2.83480529898426
 20
1.484719443350282
 30
0.0
 40
0.0762
 50
7.125016348901812
 51
90.0
  0
LINE
  5
60
  8
CAR_DTL
 10
-3.757044853930904
 20
0.7666812701461764
 30
0.0
 11
-3.757044853930904
 21
1.171171875417627
 31
0.0
  0
LINE
  5
61
  8
CAR_DTL
 10
-3.5814
 20
0.5706860482998257
 30
0.0
 11
-3.5814
 21
0.3556
 31
0.0
  0
LINE
  5
62
  8
CAR_DTL
 10
-1.6002
 20
0.9821333333333337
 30
0.0
 11
-1.6002
 21
0.3556
 31
0.0
  0
LINE
  5
63
  8
CAR_DTL
 10
-2.7686
 20
1.163021091896549
 30
0.0
 11
-2.7686
 21
0.3556
 31
0.0
  0
LINE
  5
64
  8
CAR_DTL
 10
-2.681219288879173
 20
1.560919443350282
 30
0.0
 11
-2.046989582512713
 21
1.560919443350282
 31
0.0
  0
LINE
  5
65
  8
CAR_DTL
 10
-3.425790043053127
 20
1.560919443350282
 30
0.0
 11
-2.83480529898426
 21
1.560919443350282
 31
0.0
  0
ARC
  5
66
  8
CAR_DTL
 10
-2.815723104749247
 20
0.695839396163251
 30
0.0
 40
1.073452925822374
 50
127.715962793308
 51
148.9306568376752
  0
LINE
  5
67
  8
CAR_DTL
 10
-2.7686
 20
1.163021091896549
 30
0.0
 11
-2.756830863084754
 21
1.475267996574585
 31
0.0
  0
LINE
  5
68
  8
CAR_DTL
 10
-0.2582938218709287
 20
0.6095999999999999
 30
0.0
 11
-0.127
 21
0.6095999999999999
 31
0.0
  0
LINE
  5
69
  8
0
  6
BYBLOCK
 62
     0
 10
-0.127
 20
0.6095999999999999
 30
0.0
 11
-0.127
 21
0.5841999999999999
 31
0.0
  0
LINE
  5
6A
  8
CAR_DTL
 10
-0.127
 20
0.635
 30
0.0
 11
-0.2267948775786169
 21
0.635
 31
0.0
  0
LINE
  5
6B
  8
0
  6
BYBLOCK
 62
     0
 10
-0.127
 20
0.6604
 30
0.0
 11
-0.127
 21
0.635
 31
0.0
  0
LINE
  5
6C
  8
CAR_DTL
 10
-0.2032
 20
0.6604
 30
0.0
 11
-0.127
 21
0.6604
 31
0.0
  0
LINE
  5
6D
  8
CAR_DTL
 10
-0.1708500902144086
 20
0.7111999999999999
 30
0.0
 11
-0.127
 21
0.7111999999999999
 31
0.0
  0
LINE
  5
6E
  8
0
  6
BYBLOCK
 62
     0
 10
-0.127
 20
0.7111999999999999
 30
0.0
 11
-0.127
 21
0.6858
 31
0.0
  0
LINE
  5
6F
  8
CAR_DTL
 10
-0.127
 20
0.6858
 30
0.0
 11
-0.1849679336681334
 21
0.6858
 31
0.0
  0
LINE
  5
70
  8
CAR_DTL
 10
-0.127
 20
0.7365999999999999
 30
0.0
 11
-0.1601378632432507
 21
0.7365999999999999
 31
0.0
  0
LINE
  5
71
  8
0
  6
BYBLOCK
 62
     0
 10
-0.127
 20
0.762
 30
0.0
 11
-0.127
 21
0.7365999999999999
 31
0.0
  0
LINE
  5
72
  8
0
  6
BYBLOCK
 62
     0
 10
-0.1524
 20
0.762
 30
0.0
 11
-0.127
 21
0.762
 31
0.0
  0
ARC
  5
73
  8
0
  6
BYBLOCK
 62
     0
 10
-0.0578397056812489
 20
0.5334
 30
0.0
 40
0.0508
 50
19.26331841982598
 51
90.0
  0
ARC
  5
74
  8
0
  6
BYBLOCK
 62
     0
 10
-0.1826846153846151
 20
0.4171461538461541
 30
0.0
 40
0.1732489828517666
 50
105.3684633217962
 51
179.0385006358397
  0
ARC
  5
75
  8
0
  6
BYBLOCK
 62
     0
 10
-0.2582216812482254
 20
0.4479766150462226
 30
0.0
 40
0.1016
 50
195.9521893214466
 51
278.7461622625556
  0
ARC
  5
76
  8
0
  6
BYBLOCK
 62
     0
 10
-0.2032
 20
0.4826
 30
0.0
 40
0.2047813468067831
 50
330.2551187030578
 51
19.26331841982613
  0
ARC
  5
77
  8
CAR_DTL
 10
-0.4064
 20
0.8255
 30
0.0
 40
0.2618172072267215
 50
292.8336541779176
 51
345.9637565320735
  0
ARC
  5
78
  8
0
  6
BYBLOCK
 62
     0
 10
-0.254
 20
0.8635999999999999
 30
0.0
 40
0.127
 50
323.130102354156
 51
36.86989764584401
  0
LINE
  5
79
  8
0
  6
BYBLOCK
 62
     0
 10
-4.952999999999999
 20
0.5334
 30
0.0
 11
-5.1308
 21
0.5841999999999999
 31
0.0
  0
ARC
  5
7A
  8
0
  6
BYBLOCK
 62
     0
 10
-4.98475
 20
0.4572
 30
0.0
 40
0.08255
 50
292.6198649480405
 51
67.38013505195956
  0
ARC
  5
7B
  8
0
  6
BYBLOCK
 62
     0
 10
-5.1562
 20
0.4826
 30
0.0
 40
0.2047813468067831
 50
160.736681580173
 51
199.2633184198272
  0
ARC
  5
7C
  8
0
  6
BYBLOCK
 62
     0
 10
-2.0574
 20
1.4732
 30
0.0
 40
0.0508
 50
36.86989764584401
 51
90.0
  0
ARC
  5
7D
  8
0
  6
BYBLOCK
 62
     0
 10
-2.660254663298304
 20
1.4732
 30
0.0
 40
0.0508
 50
90.0
 51
187.1250163489017
  0
ARC
  5
7E
  8
0
  6
BYBLOCK
 62
     0
 10
-2.864245336701695
 20
1.4732
 30
0.0
 40
0.0508
 50
7.125016348901812
 51
90.0
  0
ARC
  5
7F
  8
0
  6
BYBLOCK
 62
     0
 10
-3.414457504624342
 20
1.4732
 30
0.0
 40
0.0508
 50
90.0
 51
122.594966095163
  0
ARC
  5
80
  8
0
  6
BYBLOCK
 62
     0
 10
-5.056066546251343
 20
0.8843200597302926
 30
0.0
 40
0.2271816622280967
 50
102.5419406645448
 51
178.8196239453888
  0
ARC
  5
81
  8
0
  6
BYBLOCK
 62
     0
 10
-2.738966666666667
 20
-0.1566333333333335
 30
0.0
 40
2.022674085352249
 50
121.1282809313158
 51
140.0494677493258
  0
LINE
  5
82
  8
0
  6
BYBLOCK
 62
     0
 10
-3.820013228220501
 20
1.5463226456441
 30
0.0
 11
-3.827900268095238
 21
1.547900053619048
 31
0.0
  0
LINE
  5
83
  8
CAR_DTL
 10
-3.6576
 20
0.3556
 30
0.0
 11
-1.1938
 21
0.3556
 31
0.0
  0
ARC
  5
84
  8
0
  6
BYBLOCK
 62
     0
 10
-3.634725140772579
 20
1.38426285193145
 30
0.0
 40
0.2424188074851777
 50
95.41453740365134
 51
128.1882815690524
  0
ARC
  5
85
  8
0
  6
BYBLOCK
 62
     0
 10
-2.700400417447779
 20
0.0818850649437618
 30
0.0
 40
1.759476809832318
 50
128.6073202220286
 51
139.1253196119051
  0
ARC
  5
86
  8
0
  6
BYBLOCK
 62
     0
 10
-3.0734
 20
0.9398
 30
0.0
 40
0.683915930506082
 50
122.5949660951631
 51
150.8963381849254
  0
ARC
  5
87
  8
0
  6
BYBLOCK
 62
     0
 10
-3.514271428571428
 20
1.453242857142857
 30
0.0
 40
0.2849872700343521
 50
241.3430081112319
 51
271.8240898323762
  0
LINE
  5
88
  8
0
  6
BYBLOCK
 62
     0
 10
-4.116838553170792
 20
1.198603504833708
 30
0.0
 11
-4.231044006163588
 21
1.208985818742144
 31
0.0
  0
ARC
  5
89
  8
0
  6
BYBLOCK
 62
     0
 10
-2.8702
 20
-10.5156
 30
0.0
 40
12.16670605381752
 50
86.28936140018966
 51
93.71063859981041
  0
ARC
  5
8A
  8
0
  6
BYBLOCK
 62
     0
 10
-2.097599394209247
 20
1.200201817372261
 30
0.0
 40
0.4256555366161044
 50
55.12259084878855
 51
88.0075115053673
  0
LINE
  5
8B
  8
0
  6
BYBLOCK
 62
     0
 10
-0.1524
 20
0.9526673483235437
 30
0.0
 11
-0.1524
 21
0.762
 31
0.0
  0
ARC
  5
8C
  8
0
  6
BYBLOCK
 62
     0
 10
-0.2842023179728854
 20
0.894496523040672
 30
0.0
 40
0.1723703873354887
 50
24.21635819855107
 51
88.40350674948935
  0
LINE
  5
8D
  8
0
  6
BYBLOCK
 62
     0
 10
-2.813837620564641
 20
1.479500964517131
 30
0.0
 11
-2.824771612072495
 21
1.217085168328621
 31
0.0
  0
LINE
  5
8E
  8
0
  6
BYBLOCK
 62
     0
 10
-3.414457504624342
 20
1.524
 30
0.0
 11
-2.864245336701695
 21
1.524
 31
0.0
  0
LINE
  5
8F
  8
0
  6
BYBLOCK
 62
     0
 10
-2.875527572185586
 20
1.1684
 30
0.0
 11
-3.5052
 21
1.1684
 31
0.0
  0
LINE
  5
90
  8
0
  6
BYBLOCK
 62
     0
 10
-2.660254663298304
 20
1.524
 30
0.0
 11
-2.0574
 21
1.524
 31
0.0
  0
LINE
  5
91
  8
0
  6
BYBLOCK
 62
     0
 10
-2.720895054594171
 20
1.221314831671378
 30
0.0
 11
-2.710662379435359
 21
1.466899035482868
 31
0.0
  0
LINE
  5
92
  8
0
  6
BYBLOCK
 62
     0
 10
-1.8669
 20
1.1684
 30
0.0
 11
-2.67013909448108
 21
1.1684
 31
0.0
  0
LINE
  5
93
  8
0
  6
BYBLOCK
 62
     0
 10
-2.01676
 20
1.50368
 30
0.0
 11
-1.82626
 21
1.24968
 31
0.0
  0
LINE
  5
94
  8
0
  6
BYBLOCK
 62
     0
 10
-1.931250950504831
 20
1.522454262582386
 30
0.0
 11
-1.868423402704258
 21
1.55889528088903
 31
0.0
  0
LINE
  5
95
  8
0
  6
BYBLOCK
 62
     0
 10
-1.669322932028511
 20
1.175513824168077
 30
0.0
 11
-1.931250950504831
 21
1.522454262582386
 31
0.0
  0
LINE
  5
96
  8
0
  6
BYBLOCK
 62
     0
 10
-1.555477916915704
 20
1.200890903068321
 30
0.0
 11
-1.639618025856998
 21
1.167234859491803
 31
0.0
  0
LINE
  5
97
  8
0
  6
BYBLOCK
 62
     0
 10
-1.5494
 20
1.1938
 30
0.0
 11
-1.8542
 21
1.5494
 31
0.0
  0
LINE
  5
98
  8
0
  6
BYBLOCK
 62
     0
 10
-1.4986
 20
1.1684
 30
0.0
 11
-1.5494
 21
1.1938
 31
0.0
  0
LINE
  5
99
  8
0
  6
BYBLOCK
 62
     0
 10
-5.301560294318744
 20
0.381
 30
0.0
 11
-4.952999999999999
 21
0.381
 31
0.0
  0
LINE
  5
9A
  8
0
  6
BYBLOCK
 62
     0
 10
-5.1308
 20
0.5841999999999999
 30
0.0
 11
-5.301560294318744
 21
0.5841999999999999
 31
0.0
  0
LINE
  5
9B
  8
CAR_DTL
 10
-0.3556
 20
0.9398
 30
0.0
 11
-5.1308
 21
0.9398
 31
0.0
  0
LINE
  5
9C
  8
0
  6
BYBLOCK
 62
     0
 10
-0.0578397056812489
 20
0.5841999999999999
 30
0.0
 11
-0.2286
 21
0.5841999999999999
 31
0.0
  0
LINE
  5
9D
  8
0
  6
BYBLOCK
 62
     0
 10
-0.2427726713280243
 20
0.3475580505649196
 30
0.0
 11
-0.0254
 21
0.381
 31
0.0
  0
LINE
  5
9E
  8
0
  6
BYBLOCK
 62
     0
 10
-3.6576
 20
0.254
 30
0.0
 11
-1.1938
 21
0.254
 31
0.0
  0
ARC
  5
9F
  8
0
  6
BYBLOCK
 62
     0
 10
-4.089399999999999
 20
0.381
 30
0.0
 40
0.4318
 50
0.0
 51
17.92021313939227
  0
LINE
  5
A0
  8
0
  6
BYBLOCK
 62
     0
 10
-3.6576
 20
0.381
 30
0.0
 11
-3.6576
 21
0.254
 31
0.0
  0
LINE
  5
A1
  8
0
  6
BYBLOCK
 62
     0
 10
-4.4704
 20
0.381
 30
0.0
 11
-4.4704
 21
0.3048
 31
0.0
  0
ARC
  5
A2
  8
0
  6
BYBLOCK
 62
     0
 10
-4.064
 20
0.3302
 30
0.0
 40
0.3302
 50
129.7151372318262
 51
50.28486276817381
  0
CIRCLE
  5
A3
  8
0
  6
BYBLOCK
 62
     0
 10
-0.7874
 20
0.3302
 30
0.0
 40
0.3302
  0
ARC
  5
A4
  8
0
  6
BYBLOCK
 62
     0
 10
-0.7874
 20
0.381
 30
0.0
 40
0.4064
 50
7.213411402871121
 51
180.0
  0
LINE
  5
A5
  8
0
  6
BYBLOCK
 62
     0
 10
-1.1938
 20
0.381
 30
0.0
 11
-1.1938
 21
0.254
 31
0.0
  0
LINE
  5
A6
  8
0
  6
BYBLOCK
 62
     0
 10
-0.38421651904627
 20
0.4320298019399789
 30
0.0
 11
-0.3552930945465303
 21
0.4320298019399789
 31
0.0
  0
ARC
  5
A7
  8
CAR_DTL
 10
-3.775219351327935
 20
0.4826
 30
0.0
 40
0.2231471459807296
 50
36.82982601816746
 51
71.6230223945758
  0
ARC
  5
A8
  8
CAR_DTL
 10
-3.680844853930904
 20
0.7666812701461764
 30
0.0
 40
0.0762
 50
180.0
 51
251.6230223945759
  0
ARC
  5
A9
  8
CAR_DTL
 10
-3.6576
 20
0.5706860482998257
 30
0.0
 40
0.0762
 50
0.0
 51
36.82982601816751
  0
ARC
  5
AA
  8
0
  6
BYBLOCK
 62
     0
 10
-1.056983455504703
 20
-6.529389319729894
 30
0.0
 40
7.635884245550947
 50
84.15527909098007
 51
93.50644225320494
  0
LINE
  5
AB
  8
0
  6
BYBLOCK
 62
     0
 10
-1.498599999999998
 20
1.1684
 30
0.0
 11
-0.5631579462810056
 21
1.151238173193315
 31
0.0
  0
ARC
  5
AC
  8
0
  6
BYBLOCK
 62
     0
 10
-0.57714361605434
 20
0.5852295575432875
 30
0.0
 40
0.5661813772538513
 50
58.27247841963293
 51
88.58455011533859
  0
ARC
  5
AD
  8
0
  6
BYBLOCK
 62
     0
 10
-3.6265794343673
 20
1.247742031645009
 30
0.0
 40
0.0508
 50
150.896338184925
 51
241.3430081112317
  0
ARC
  5
AE
  8
0
  6
BYBLOCK
 62
     0
 10
-2.875527572185586
 20
1.2192
 30
0.0
 40
0.0508
 50
270.0
 51
357.6140559696112
  0
ARC
  5
AF
  8
0
  6
BYBLOCK
 62
     0
 10
-2.67013909448108
 20
1.2192
 30
0.0
 40
0.0508
 50
177.6140559696112
 51
270.0
  0
ARC
  5
B0
  8
0
  6
BYBLOCK
 62
     0
 10
-1.8669
 20
1.2192
 30
0.0
 40
0.0508
 50
270.0
 51
36.86989764584401
  0
ARC
  5
B1
  8
CAR_DTL
 10
-3.604644853930904
 20
1.171171875417627
 30
0.0
 40
0.1524
 50
148.9306568376752
 51
180.0
  0
POLYLINE
  5
B7
  8
_KTI_CONTROL
 10
0.0
 20
0.0
 30
0.0
 66
     1
 70
     8
1001
_KTI_ARCHT
1070
 12000
1000
ENVIRONMENT
1070
 10003
1000
02ecar04
1070
 20000
1000
standard
1070
 20001
1000
c:\program files\ketiv\archt
1070
 20003
1000
d:\archt
1070
 20002
1000
c:\program files\ketiv\archt\tmp
1070
 20004
1002
{
1000
c:\program files\ketiv\archt\blks
1000
c:\program files\ketiv\archt\blks3d
1000
e:\archt\blks
1000
e:\archt\blks3d
1000
d:\archt\blks
1000
d:\archt\blks3d
1002
}
1070
 20005
1002
{
1000
c:\program files\ketiv\archt\slds
1002
}
1070
 20006
1002
{
1000
c:\program files\ketiv\archt\dclswin
1002
}
1070
 20007
1002
{
1000
c:\program files\ketiv\archt\docs
1000
e:\archt\docs
1000
d:\archt\docs
1002
}
1070
 20008
1002
{
1000
c:\program files\ketiv\archt\help
1002
}
  0
VERTEX
  5
B8
  8
_KTI_CONTROL
 10
0.0
 20
0.0
 30
0.0
 70
    32
  0
VERTEX
  5
B9
  8
_KTI_CONTROL
 10
0.0
 20
0.0
 30
0.0
 70
    32
  0
SEQEND
  5
BA
  8
_KTI_CONTROL
  0
POLYLINE
  5
BB
  8
_KTI_CONTROL
 10
0.0
 20
0.0
 30
0.0
 66
     1
 70
     8
1001
_KTI_ARCHT
1070
 12000
1000
ARCHTVARS
1070
 10003
1000
02ecar04
1070
 12030
1000
m
1070
 12020
1070
     1
1070
 12021
1070
     0
1070
 12070
1070
     0
1070
 12071
1070
     1
1070
 12907
1070
     0
1070
 12913
1070
     1
1070
 12914
1070
     1
1070
 12072
1070
     2
1070
 12073
1070
    48
1070
 12074
1070
     0
1070
 12080
1070
     1
1070
 12092
1070
     1
1070
 12096
1070
     0
1070
 12095
1070
     0
1070
 12081
1070
     1
1070
 12082
1070
     1
1070
 12083
1070
     1
1070
 12084
1070
     1
1070
 12085
1070
     0
1070
 12086
1070
     1
1070
 12087
1070
     0
1070
 12088
1070
     0
1070
 12097
1070
     1
1070
 12089
1070
     4
1070
 12090
1070
     6
1070
 12091
1070
     1
1070
 12045
1000

1070
 12046
1000

1070
 12047
1000
standard
1070
 12048
1000

1070
 12049
1000

1070
 12093
1070
     1
1070
 12094
1070
     1
1070
 12908
1070
     0
1070
 12909
1070
     0
1070
 12911
1070
     0
1070
 12910
1070
     0
1070
 12912
1070
     0
1070
 12098
1070
   800
1070
 12060
1002
{
1000

1000

1000

1000

1002
}
1070
 12904
1002
{
1070
     0
1070
     0
1070
     0
1070
     0
1070
     0
1002
}
1070
 12905
1002
{
1040
0.0
1040
0.0
1040
0.0
1040
0.0
1040
0.0
1002
}
1070
 12906
1002
{
1000

1000

1000

1000

1000

1002
}
1070
 12040
1002
{
1002
}
  0
VERTEX
  5
BC
  8
_KTI_CONTROL
 10
0.0
 20
0.0
 30
0.0
 70
    32
  0
VERTEX
  5
BD
  8
_KTI_CONTROL
 10
0.0
 20
0.0
 30
0.0
 70
    32
  0
SEQEND
  5
BE
  8
_KTI_CONTROL
  0
ENDSEC
  0
EOF
