  0
SECTION
  2
HEADER
  9
$ACADVER
  1
AC1009
  9
$DWGCODEPAGE
  3
ansi_1252
  9
$INSBASE
 10
0.0
 20
0.0
 30
0.0
  9
$EXTMIN
 10
-3.986131097785176
 20
-0.8855054750287934
 30
-0.0015258207003583
  9
$EXTMAX
 10
-0.0108257322116287
 20
0.8855057986633597
 30
0.0000000349246037
  9
$LIMMIN
 10
0.0
 20
0.0
  9
$LIMMAX
 10
12.0
 20
9.0
  9
$ORTHOMODE
 70
     1
  9
$REGENMODE
 70
     1
  9
$FILLMODE
 70
     1
  9
$QTEXTMODE
 70
     0
  9
$MIRRTEXT
 70
     1
  9
$DRAGMODE
 70
     2
  9
$LTSCALE
 40
1.0
  9
$OSMODE
 70
    37
  9
$ATTMODE
 70
     1
  9
$TEXTSIZE
 40
0.2
  9
$TRACEWID
 40
0.05
  9
$TEXTSTYLE
  7
STANDARD
  9
$CLAYER
  8
0
  9
$CELTYPE
  6
CONTINUOUS
  9
$CECOLOR
 62
     0
  9
$DIMSCALE
 40
1.0
  9
$DIMASZ
 40
0.18
  9
$DIMEXO
 40
0.0625
  9
$DIMDLI
 40
0.38
  9
$DIMRND
 40
0.0
  9
$DIMDLE
 40
0.0
  9
$DIMEXE
 40
0.18
  9
$DIMTP
 40
0.0
  9
$DIMTM
 40
0.0
  9
$DIMTXT
 40
0.18
  9
$DIMCEN
 40
0.09
  9
$DIMTSZ
 40
0.0
  9
$DIMTOL
 70
     0
  9
$DIMLIM
 70
     0
  9
$DIMTIH
 70
     1
  9
$DIMTOH
 70
     1
  9
$DIMSE1
 70
     0
  9
$DIMSE2
 70
     0
  9
$DIMTAD
 70
     0
  9
$DIMZIN
 70
     0
  9
$DIMBLK
  1

  9
$DIMASO
 70
     1
  9
$DIMSHO
 70
     0
  9
$DIMPOST
  1

  9
$DIMAPOST
  1

  9
$DIMALT
 70
     0
  9
$DIMALTD
 70
     2
  9
$DIMALTF
 40
25.4
  9
$DIMLFAC
 40
1.0
  9
$DIMTOFL
 70
     0
  9
$DIMTVP
 40
0.0
  9
$DIMTIX
 70
     0
  9
$DIMSOXD
 70
     0
  9
$DIMSAH
 70
     0
  9
$DIMBLK1
  1

  9
$DIMBLK2
  1

  9
$DIMSTYLE
  2
STANDARD
  9
$DIMCLRD
 70
     0
  9
$DIMCLRE
 70
     0
  9
$DIMCLRT
 70
     0
  9
$DIMTFAC
 40
1.0
  9
$DIMGAP
 40
0.09
  9
$LUNITS
 70
     2
  9
$LUPREC
 70
     4
  9
$SKETCHINC
 40
0.1
  9
$FILLETRAD
 40
0.0
  9
$AUNITS
 70
     0
  9
$AUPREC
 70
     2
  9
$MENU
  1
acad
  9
$ELEVATION
 40
0.0
  9
$PELEVATION
 40
0.0
  9
$THICKNESS
 40
0.0
  9
$LIMCHECK
 70
     0
  9
$CHAMFERA
 40
0.0
  9
$CHAMFERB
 40
0.0
  9
$SKPOLY
 70
     0
  9
$TDCREATE
 40
2449162.577350116
  9
$TDUPDATE
 40
2458028.720659722
  9
$TDINDWG
 40
0.0000241898
  9
$TDUSRTIMER
 40
0.0000241898
  9
$USRTIMER
 70
     1
  9
$ANGBASE
 50
0.0
  9
$ANGDIR
 70
     0
  9
$PDMODE
 70
     0
  9
$PDSIZE
 40
0.0
  9
$PLINEWID
 40
0.0
  9
$COORDS
 70
     1
  9
$SPLFRAME
 70
     0
  9
$SPLINETYPE
 70
     6
  9
$SPLINESEGS
 70
     8
  9
$ATTDIA
 70
     0
  9
$ATTREQ
 70
     1
  9
$HANDLING
 70
     1
  9
$HANDSEED
  5
48A
  9
$SURFTAB1
 70
     7
  9
$SURFTAB2
 70
     6
  9
$SURFTYPE
 70
     6
  9
$SURFU
 70
     6
  9
$SURFV
 70
     6
  9
$UCSNAME
  2

  9
$UCSORG
 10
0.0
 20
0.0
 30
0.0
  9
$UCSXDIR
 10
1.0
 20
0.0
 30
0.0
  9
$UCSYDIR
 10
0.0
 20
1.0
 30
0.0
  9
$PUCSNAME
  2

  9
$PUCSORG
 10
0.0
 20
0.0
 30
0.0
  9
$PUCSXDIR
 10
1.0
 20
0.0
 30
0.0
  9
$PUCSYDIR
 10
0.0
 20
1.0
 30
0.0
  9
$USERI1
 70
     0
  9
$USERI2
 70
     0
  9
$USERI3
 70
     0
  9
$USERI4
 70
     0
  9
$USERI5
 70
     0
  9
$USERR1
 40
0.0
  9
$USERR2
 40
0.0
  9
$USERR3
 40
0.0
  9
$USERR4
 40
0.0
  9
$USERR5
 40
0.0
  9
$WORLDVIEW
 70
     1
  9
$SHADEDGE
 70
     1
  9
$SHADEDIF
 70
    70
  9
$TILEMODE
 70
     1
  9
$MAXACTVP
 70
    16
  9
$PLIMCHECK
 70
     0
  9
$PEXTMIN
 10
1.000000000000000E+20
 20
1.000000000000000E+20
 30
1.000000000000000E+20
  9
$PEXTMAX
 10
-1.000000000000000E+20
 20
-1.000000000000000E+20
 30
-1.000000000000000E+20
  9
$PLIMMIN
 10
0.0
 20
0.0
  9
$PLIMMAX
 10
12.0
 20
9.0
  9
$UNITMODE
 70
     0
  9
$VISRETAIN
 70
     0
  9
$PLINEGEN
 70
     0
  9
$PSLTSCALE
 70
     0
  0
ENDSEC
  0
SECTION
  2
TABLES
  0
TABLE
  2
VPORT
 70
     1
  0
VPORT
  2
*ACTIVE
 70
     0
 10
0.0
 20
0.0
 11
1.0
 21
1.0
 12
72.57639626934129
 22
-45.56627265517012
 13
0.0
 23
0.0
 14
0.1
 24
0.1
 15
1.0
 25
1.0
 16
0.0
 26
0.0
 36
1.0
 17
-74.57487468433969
 27
45.56627281698741
 37
13.64446045803251
 40
2.850215362371059
 41
1.56198347107438
 42
50.0
 43
0.0
 44
0.0
 50
0.0
 51
0.0
 71
     8
 72
   100
 73
     1
 74
     0
 75
     1
 76
     0
 77
     0
 78
     0
  0
ENDTAB
  0
TABLE
  2
LTYPE
 70
     1
  0
LTYPE
  2
CONTINUOUS
 70
     0
  3
Solid line
 72
    65
 73
     0
 40
0.0
  0
ENDTAB
  0
TABLE
  2
LAYER
 70
     2
  0
LAYER
  2
0
 70
     0
 62
     7
  6
CONTINUOUS
  0
LAYER
  2
_KTI_CONTROL
 70
     5
 62
     7
  6
CONTINUOUS
  0
ENDTAB
  0
TABLE
  2
STYLE
 70
     1
  0
STYLE
  2
STANDARD
 70
     0
 40
0.0
 41
1.0
 50
0.0
 71
     0
 42
0.2
  3
txt
  4

  0
ENDTAB
  0
TABLE
  2
VIEW
 70
     0
  0
ENDTAB
  0
TABLE
  2
UCS
 70
     0
  0
ENDTAB
  0
TABLE
  2
APPID
 70
     2
  0
APPID
  2
ACAD
 70
     0
  0
APPID
  2
_KTI_ARCHT
 70
     0
  0
ENDTAB
  0
TABLE
  2
DIMSTYLE
 70
     1
  0
DIMSTYLE
  2
STANDARD
 70
     0
  3

  4

  5

  6

  7

 40
1.0
 41
0.18
 42
0.0625
 43
0.38
 44
0.18
 45
0.0
 46
0.0
 47
0.0
 48
0.0
140
0.18
141
0.09
142
0.0
143
25.4
144
1.0
145
0.0
146
1.0
147
0.09
 71
     0
 72
     0
 73
     1
 74
     1
 75
     0
 76
     0
 77
     0
 78
     0
170
     0
171
     2
172
     0
173
     0
174
     0
175
     0
176
     0
177
     0
178
     0
  0
ENDTAB
  0
ENDSEC
  0
SECTION
  2
BLOCKS
  0
BLOCK
  8
0
  2
$MODEL_SPACE
 70
     0
 10
0.0
 20
0.0
 30
0.0
  3
$MODEL_SPACE
  1

  0
ENDBLK
  5
21
  8
0
 62
     0
  0
BLOCK
 67
     1
  8
0
  2
$PAPER_SPACE
 70
     0
 10
0.0
 20
0.0
 30
0.0
  3
$PAPER_SPACE
  1

  0
ENDBLK
  5
1F
 67
     1
  8
0
 62
     0
  0
ENDSEC
  0
SECTION
  2
ENTITIES
  0
POLYLINE
  5
24
  8
0
  6
BYBLOCK
 62
     0
 66
     1
 10
0.0
 20
0.0
 30
0.0
  0
VERTEX
  5
2BC
  8
0
  6
BYBLOCK
 62
     0
 10
-0.295275
 20
0.7651749999999999
 30
0.0
  0
VERTEX
  5
2BD
  8
0
  6
BYBLOCK
 62
     0
 10
-0.339725
 20
0.8000999999999999
 30
0.0
  0
VERTEX
  5
2BE
  8
0
  6
BYBLOCK
 62
     0
 10
-0.4064
 20
0.8286749999999999
 30
0.0
  0
VERTEX
  5
2BF
  8
0
  6
BYBLOCK
 62
     0
 10
-0.71755
 20
0.841375
 30
0.0
  0
VERTEX
  5
2C0
  8
0
  6
BYBLOCK
 62
     0
 10
-1.012825
 20
0.8255
 30
0.0
  0
VERTEX
  5
2C1
  8
0
  6
BYBLOCK
 62
     0
 10
-1.069975
 20
0.8096249999999999
 30
0.0
  0
VERTEX
  5
2C2
  8
0
  6
BYBLOCK
 62
     0
 10
-1.114425
 20
0.7874
 30
0.0
  0
VERTEX
  5
2C3
  8
0
  6
BYBLOCK
 62
     0
 10
-1.133475
 20
0.771525
 30
0.0
  0
SEQEND
  5
460
  8
0
  6
BYBLOCK
 62
     0
  0
POLYLINE
  5
2E
  8
0
  6
BYBLOCK
 62
     0
 66
     1
 10
0.0
 20
0.0
 30
0.0
  0
VERTEX
  5
2C4
  8
0
  6
BYBLOCK
 62
     0
 10
-1.651
 20
0.53975
 30
0.0
  0
VERTEX
  5
2C5
  8
0
  6
BYBLOCK
 62
     0
 10
-1.381125
 20
0.48895
 30
0.0
  0
VERTEX
  5
2C6
  8
0
  6
BYBLOCK
 62
     0
 10
-1.1049
 20
0.447675
 30
0.0
  0
VERTEX
  5
2C7
  8
0
  6
BYBLOCK
 62
     0
 10
-0.8445499999999999
 20
0.4191
 30
0.0
  0
VERTEX
  5
2C8
  8
0
  6
BYBLOCK
 62
     0
 10
-0.5334
 20
0.40005
 30
0.0
  0
VERTEX
  5
2C9
  8
0
  6
BYBLOCK
 62
     0
 10
-0.3937
 20
0.409575
 30
0.0
  0
SEQEND
  5
461
  8
0
  6
BYBLOCK
 62
     0
  0
POLYLINE
  5
36
  8
0
  6
BYBLOCK
 62
     0
 66
     1
 10
0.0
 20
0.0
 30
0.0
  0
VERTEX
  5
2CA
  8
0
  6
BYBLOCK
 62
     0
 10
-1.651
 20
0.0
 30
0.0
  0
VERTEX
  5
2CB
  8
0
  6
BYBLOCK
 62
     0
 10
-1.651
 20
0.4064
 30
0.0
  0
VERTEX
  5
2CC
  8
0
  6
BYBLOCK
 62
     0
 10
-1.63195
 20
0.4572
 30
0.0
  0
VERTEX
  5
2CD
  8
0
  6
BYBLOCK
 62
     0
 10
-1.609725
 20
0.47625
 30
0.0
  0
VERTEX
  5
2CE
  8
0
  6
BYBLOCK
 62
     0
 10
-1.527175
 20
0.47625
 30
0.0
  0
VERTEX
  5
2CF
  8
0
  6
BYBLOCK
 62
     0
 10
-0.752475
 20
0.3683
 30
0.0
  0
VERTEX
  5
2D0
  8
0
  6
BYBLOCK
 62
     0
 10
-0.6730999999999999
 20
0.352425
 30
0.0
  0
VERTEX
  5
2D1
  8
0
  6
BYBLOCK
 62
     0
 10
-0.6476999999999999
 20
0.333375
 30
0.0
  0
VERTEX
  5
2D2
  8
0
  6
BYBLOCK
 62
     0
 10
-0.64135
 20
0.301625
 30
0.0
  0
VERTEX
  5
2D3
  8
0
  6
BYBLOCK
 62
     0
 10
-0.64135
 20
0.0
 30
0.0
  0
SEQEND
  5
462
  8
0
  6
BYBLOCK
 62
     0
  0
POLYLINE
  5
42
  8
0
  6
BYBLOCK
 62
     0
 66
     1
 10
0.0
 20
0.0
 30
0.0
  0
VERTEX
  5
2D4
  8
0
  6
BYBLOCK
 62
     0
 10
-1.651
 20
0.0
 30
0.0
  0
VERTEX
  5
2D5
  8
0
  6
BYBLOCK
 62
     0
 10
-1.651
 20
-0.4064
 30
0.0
  0
VERTEX
  5
2D6
  8
0
  6
BYBLOCK
 62
     0
 10
-1.63195
 20
-0.4572
 30
0.0
  0
VERTEX
  5
2D7
  8
0
  6
BYBLOCK
 62
     0
 10
-1.609725
 20
-0.47625
 30
0.0
  0
VERTEX
  5
2D8
  8
0
  6
BYBLOCK
 62
     0
 10
-1.527175
 20
-0.47625
 30
0.0
  0
VERTEX
  5
2D9
  8
0
  6
BYBLOCK
 62
     0
 10
-0.752475
 20
-0.3683
 30
0.0
  0
VERTEX
  5
2DA
  8
0
  6
BYBLOCK
 62
     0
 10
-0.6730999999999999
 20
-0.352425
 30
0.0
  0
VERTEX
  5
2DB
  8
0
  6
BYBLOCK
 62
     0
 10
-0.6476999999999999
 20
-0.333375
 30
0.0
  0
VERTEX
  5
2DC
  8
0
  6
BYBLOCK
 62
     0
 10
-0.64135
 20
-0.301625
 30
0.0
  0
VERTEX
  5
2DD
  8
0
  6
BYBLOCK
 62
     0
 10
-0.64135
 20
0.0
 30
0.0
  0
SEQEND
  5
463
  8
0
  6
BYBLOCK
 62
     0
  0
POLYLINE
  5
4E
  8
0
  6
BYBLOCK
 62
     0
 66
     1
 10
0.0
 20
0.0
 30
0.0
  0
VERTEX
  5
2DE
  8
0
  6
BYBLOCK
 62
     0
 10
-1.651
 20
-0.53975
 30
0.0
  0
VERTEX
  5
2DF
  8
0
  6
BYBLOCK
 62
     0
 10
-1.381125
 20
-0.48895
 30
0.0
  0
VERTEX
  5
2E0
  8
0
  6
BYBLOCK
 62
     0
 10
-1.1049
 20
-0.447675
 30
0.0
  0
VERTEX
  5
2E1
  8
0
  6
BYBLOCK
 62
     0
 10
-0.8445499999999999
 20
-0.4191
 30
0.0
  0
VERTEX
  5
2E2
  8
0
  6
BYBLOCK
 62
     0
 10
-0.5334
 20
-0.40005
 30
0.0
  0
VERTEX
  5
2E3
  8
0
  6
BYBLOCK
 62
     0
 10
-0.3937
 20
-0.409575
 30
0.0
  0
SEQEND
  5
464
  8
0
  6
BYBLOCK
 62
     0
  0
POLYLINE
  5
56
  8
0
  6
BYBLOCK
 62
     0
 66
     1
 10
0.0
 20
0.0
 30
0.0
  0
VERTEX
  5
2E4
  8
0
  6
BYBLOCK
 62
     0
 10
-0.295275
 20
-0.7651749999999999
 30
0.0
  0
VERTEX
  5
2E5
  8
0
  6
BYBLOCK
 62
     0
 10
-0.339725
 20
-0.8000999999999999
 30
0.0
  0
VERTEX
  5
2E6
  8
0
  6
BYBLOCK
 62
     0
 10
-0.4064
 20
-0.8286749999999999
 30
0.0
  0
VERTEX
  5
2E7
  8
0
  6
BYBLOCK
 62
     0
 10
-0.71755
 20
-0.841375
 30
0.0
  0
VERTEX
  5
2E8
  8
0
  6
BYBLOCK
 62
     0
 10
-1.012825
 20
-0.8255
 30
0.0
  0
VERTEX
  5
2E9
  8
0
  6
BYBLOCK
 62
     0
 10
-1.069975
 20
-0.8096249999999999
 30
0.0
  0
VERTEX
  5
2EA
  8
0
  6
BYBLOCK
 62
     0
 10
-1.114425
 20
-0.7874
 30
0.0
  0
VERTEX
  5
2EB
  8
0
  6
BYBLOCK
 62
     0
 10
-1.133475
 20
-0.771525
 30
0.0
  0
SEQEND
  5
465
  8
0
  6
BYBLOCK
 62
     0
  0
POLYLINE
  5
60
  8
0
  6
BYBLOCK
 62
     0
 66
     1
 10
0.0
 20
0.0
 30
0.0
  0
VERTEX
  5
2EC
  8
0
  6
BYBLOCK
 62
     0
 10
-2.581275
 20
0.7746999999999999
 30
0.0
  0
VERTEX
  5
2ED
  8
0
  6
BYBLOCK
 62
     0
 10
-2.5908
 20
0.803275
 30
0.0
  0
VERTEX
  5
2EE
  8
0
  6
BYBLOCK
 62
     0
 10
-2.619375
 20
0.83185
 30
0.0
  0
VERTEX
  5
2EF
  8
0
  6
BYBLOCK
 62
     0
 10
-2.64795
 20
0.8540749999999999
 30
0.0
  0
VERTEX
  5
2F0
  8
0
  6
BYBLOCK
 62
     0
 10
-2.71145
 20
0.8763
 30
0.0
  0
VERTEX
  5
2F1
  8
0
  6
BYBLOCK
 62
     0
 10
-2.924175
 20
0.8826499999999999
 30
0.0
  0
VERTEX
  5
2F2
  8
0
  6
BYBLOCK
 62
     0
 10
-3.121025
 20
0.8763
 30
0.0
  0
VERTEX
  5
2F3
  8
0
  6
BYBLOCK
 62
     0
 10
-3.324225
 20
0.8445499999999999
 30
0.0
  0
VERTEX
  5
2F4
  8
0
  6
BYBLOCK
 62
     0
 10
-3.514725
 20
0.8000999999999999
 30
0.0
  0
VERTEX
  5
2F5
  8
0
  6
BYBLOCK
 62
     0
 10
-3.698875
 20
0.733425
 30
0.0
  0
VERTEX
  5
2F6
  8
0
  6
BYBLOCK
 62
     0
 10
-3.787775
 20
0.695325
 30
0.0
  0
VERTEX
  5
2F7
  8
0
  6
BYBLOCK
 62
     0
 10
-3.8735
 20
0.6381749999999999
 30
0.0
  0
VERTEX
  5
2F8
  8
0
  6
BYBLOCK
 62
     0
 10
-3.908425
 20
0.59055
 30
0.0
  0
VERTEX
  5
2F9
  8
0
  6
BYBLOCK
 62
     0
 10
-3.91795
 20
0.5715
 30
0.0
  0
VERTEX
  5
2FA
  8
0
  6
BYBLOCK
 62
     0
 10
-3.95605
 20
0.5556249999999999
 30
0.0
  0
VERTEX
  5
2FB
  8
0
  6
BYBLOCK
 62
     0
 10
-3.959225
 20
0.52705
 30
0.0
  0
VERTEX
  5
2FC
  8
0
  6
BYBLOCK
 62
     0
 10
-3.927475
 20
0.504825
 30
0.0
  0
VERTEX
  5
2FD
  8
0
  6
BYBLOCK
 62
     0
 10
-3.908425
 20
0.5016499999999999
 30
0.0
  0
VERTEX
  5
2FE
  8
0
  6
BYBLOCK
 62
     0
 10
-3.895725
 20
0.485775
 30
0.0
  0
VERTEX
  5
2FF
  8
0
  6
BYBLOCK
 62
     0
 10
-3.8862
 20
0.46355
 30
0.0
  0
VERTEX
  5
300
  8
0
  6
BYBLOCK
 62
     0
 10
-3.8862
 20
0.428625
 30
0.0
  0
VERTEX
  5
301
  8
0
  6
BYBLOCK
 62
     0
 10
-3.8989
 20
0.352425
 30
0.0
  0
VERTEX
  5
302
  8
0
  6
BYBLOCK
 62
     0
 10
-3.908425
 20
0.244475
 30
0.0
  0
VERTEX
  5
303
  8
0
  6
BYBLOCK
 62
     0
 10
-3.9116
 20
0.098425
 30
0.0
  0
SEQEND
  5
466
  8
0
  6
BYBLOCK
 62
     0
  0
POLYLINE
  5
7A
  8
0
  6
BYBLOCK
 62
     0
 66
     1
 10
0.0
 20
0.0
 30
0.0
  0
VERTEX
  5
304
  8
0
  6
BYBLOCK
 62
     0
 10
-2.581275
 20
-0.7746999999999999
 30
0.0
  0
VERTEX
  5
305
  8
0
  6
BYBLOCK
 62
     0
 10
-2.5908
 20
-0.803275
 30
0.0
  0
VERTEX
  5
306
  8
0
  6
BYBLOCK
 62
     0
 10
-2.619375
 20
-0.83185
 30
0.0
  0
VERTEX
  5
307
  8
0
  6
BYBLOCK
 62
     0
 10
-2.64795
 20
-0.8540749999999999
 30
0.0
  0
VERTEX
  5
308
  8
0
  6
BYBLOCK
 62
     0
 10
-2.71145
 20
-0.8763
 30
0.0
  0
VERTEX
  5
309
  8
0
  6
BYBLOCK
 62
     0
 10
-2.924175
 20
-0.8826499999999999
 30
0.0
  0
VERTEX
  5
30A
  8
0
  6
BYBLOCK
 62
     0
 10
-3.121025
 20
-0.8763
 30
0.0
  0
VERTEX
  5
30B
  8
0
  6
BYBLOCK
 62
     0
 10
-3.324225
 20
-0.8445499999999999
 30
0.0
  0
VERTEX
  5
30C
  8
0
  6
BYBLOCK
 62
     0
 10
-3.514725
 20
-0.8000999999999999
 30
0.0
  0
VERTEX
  5
30D
  8
0
  6
BYBLOCK
 62
     0
 10
-3.698875
 20
-0.733425
 30
0.0
  0
VERTEX
  5
30E
  8
0
  6
BYBLOCK
 62
     0
 10
-3.787775
 20
-0.695325
 30
0.0
  0
VERTEX
  5
30F
  8
0
  6
BYBLOCK
 62
     0
 10
-3.8735
 20
-0.6381749999999999
 30
0.0
  0
VERTEX
  5
310
  8
0
  6
BYBLOCK
 62
     0
 10
-3.908425
 20
-0.59055
 30
0.0
  0
VERTEX
  5
311
  8
0
  6
BYBLOCK
 62
     0
 10
-3.91795
 20
-0.5715
 30
0.0
  0
VERTEX
  5
312
  8
0
  6
BYBLOCK
 62
     0
 10
-3.95605
 20
-0.5556249999999999
 30
0.0
  0
VERTEX
  5
313
  8
0
  6
BYBLOCK
 62
     0
 10
-3.959225
 20
-0.52705
 30
0.0
  0
VERTEX
  5
314
  8
0
  6
BYBLOCK
 62
     0
 10
-3.927475
 20
-0.504825
 30
0.0
  0
VERTEX
  5
315
  8
0
  6
BYBLOCK
 62
     0
 10
-3.908425
 20
-0.5016499999999999
 30
0.0
  0
VERTEX
  5
316
  8
0
  6
BYBLOCK
 62
     0
 10
-3.895725
 20
-0.485775
 30
0.0
  0
VERTEX
  5
317
  8
0
  6
BYBLOCK
 62
     0
 10
-3.8862
 20
-0.46355
 30
0.0
  0
VERTEX
  5
318
  8
0
  6
BYBLOCK
 62
     0
 10
-3.8862
 20
-0.428625
 30
0.0
  0
VERTEX
  5
319
  8
0
  6
BYBLOCK
 62
     0
 10
-3.8989
 20
-0.352425
 30
0.0
  0
VERTEX
  5
31A
  8
0
  6
BYBLOCK
 62
     0
 10
-3.908425
 20
-0.244475
 30
0.0
  0
VERTEX
  5
31B
  8
0
  6
BYBLOCK
 62
     0
 10
-3.9116
 20
-0.098425
 30
0.0
  0
SEQEND
  5
467
  8
0
  6
BYBLOCK
 62
     0
  0
POLYLINE
  5
94
  8
0
  6
BYBLOCK
 62
     0
 66
     1
 10
0.0
 20
0.0
 30
0.0
  0
VERTEX
  5
31C
  8
0
  6
BYBLOCK
 62
     0
 10
-3.629025
 20
-0.4826
 30
0.0
  0
VERTEX
  5
31D
  8
0
  6
BYBLOCK
 62
     0
 10
-3.7592
 20
-0.473075
 30
0.0
  0
VERTEX
  5
31E
  8
0
  6
BYBLOCK
 62
     0
 10
-3.838575
 20
-0.479425
 30
0.0
  0
SEQEND
  5
468
  8
0
  6
BYBLOCK
 62
     0
  0
POLYLINE
  5
99
  8
0
  6
BYBLOCK
 62
     0
 66
     1
 10
0.0
 20
0.0
 30
0.0
 70
     1
  0
VERTEX
  5
31F
  8
0
  6
BYBLOCK
 62
     0
 10
-3.9116
 20
-0.358775
 30
0.0
  0
VERTEX
  5
320
  8
0
  6
BYBLOCK
 62
     0
 10
-3.96875
 20
-0.37465
 30
0.0
  0
VERTEX
  5
321
  8
0
  6
BYBLOCK
 62
     0
 10
-3.978275
 20
-0.4064
 30
0.0
  0
VERTEX
  5
322
  8
0
  6
BYBLOCK
 62
     0
 10
-3.959225
 20
-0.43815
 30
0.0
  0
VERTEX
  5
323
  8
0
  6
BYBLOCK
 62
     0
 10
-3.908425
 20
-0.45085
 30
0.0
  0
VERTEX
  5
324
  8
0
  6
BYBLOCK
 62
     0
 10
-3.895725
 20
-0.434975
 30
0.0
  0
VERTEX
  5
325
  8
0
  6
BYBLOCK
 62
     0
 10
-3.8989
 20
-0.390525
 30
0.0
  0
SEQEND
  5
469
  8
0
  6
BYBLOCK
 62
     0
  0
LINE
  5
A2
  8
0
  6
BYBLOCK
 62
     0
 10
-3.921125
 20
-0.561975
 30
0.0
 11
-3.921125
 21
-0.5111749999999999
 31
0.0
  0
POLYLINE
  5
A3
  8
0
  6
BYBLOCK
 62
     0
 66
     1
 10
0.0
 20
0.0
 30
0.0
  0
VERTEX
  5
326
  8
0
  6
BYBLOCK
 62
     0
 10
-3.933825
 20
0.0
 30
0.0
  0
VERTEX
  5
327
  8
0
  6
BYBLOCK
 62
     0
 10
-3.93065
 20
-0.060325
 30
0.0
  0
VERTEX
  5
328
  8
0
  6
BYBLOCK
 62
     0
 10
-3.9116
 20
-0.098425
 30
0.0
  0
VERTEX
  5
329
  8
0
  6
BYBLOCK
 62
     0
 10
-3.8862
 20
-0.104775
 30
0.0
  0
VERTEX
  5
32A
  8
0
  6
BYBLOCK
 62
     0
 10
-3.86715
 20
-0.0889
 30
0.0
  0
VERTEX
  5
32B
  8
0
  6
BYBLOCK
 62
     0
 10
-3.86715
 20
0.0
 30
0.0
  0
SEQEND
  5
46A
  8
0
  6
BYBLOCK
 62
     0
  0
POLYLINE
  5
AB
  8
0
  6
BYBLOCK
 62
     0
 66
     1
 10
0.0
 20
0.0
 30
0.0
  0
VERTEX
  5
32C
  8
0
  6
BYBLOCK
 62
     0
 10
-3.933825
 20
0.0
 30
0.0
  0
VERTEX
  5
32D
  8
0
  6
BYBLOCK
 62
     0
 10
-3.93065
 20
0.060325
 30
0.0
  0
VERTEX
  5
32E
  8
0
  6
BYBLOCK
 62
     0
 10
-3.9116
 20
0.098425
 30
0.0
  0
VERTEX
  5
32F
  8
0
  6
BYBLOCK
 62
     0
 10
-3.8862
 20
0.104775
 30
0.0
  0
VERTEX
  5
330
  8
0
  6
BYBLOCK
 62
     0
 10
-3.86715
 20
0.0889
 30
0.0
  0
VERTEX
  5
331
  8
0
  6
BYBLOCK
 62
     0
 10
-3.86715
 20
0.0
 30
0.0
  0
SEQEND
  5
46B
  8
0
  6
BYBLOCK
 62
     0
  0
POLYLINE
  5
B3
  8
0
  6
BYBLOCK
 62
     0
 66
     1
 10
0.0
 20
0.0
 30
0.0
  0
VERTEX
  5
332
  8
0
  6
BYBLOCK
 62
     0
 10
-3.629025
 20
0.4826
 30
0.0
  0
VERTEX
  5
333
  8
0
  6
BYBLOCK
 62
     0
 10
-3.7592
 20
0.473075
 30
0.0
  0
VERTEX
  5
334
  8
0
  6
BYBLOCK
 62
     0
 10
-3.838575
 20
0.479425
 30
0.0
  0
SEQEND
  5
46C
  8
0
  6
BYBLOCK
 62
     0
  0
POLYLINE
  5
B8
  8
0
  6
BYBLOCK
 62
     0
 66
     1
 10
0.0
 20
0.0
 30
0.0
 70
     1
  0
VERTEX
  5
335
  8
0
  6
BYBLOCK
 62
     0
 10
-3.9116
 20
0.358775
 30
0.0
  0
VERTEX
  5
336
  8
0
  6
BYBLOCK
 62
     0
 10
-3.96875
 20
0.37465
 30
0.0
  0
VERTEX
  5
337
  8
0
  6
BYBLOCK
 62
     0
 10
-3.978275
 20
0.4064
 30
0.0
  0
VERTEX
  5
338
  8
0
  6
BYBLOCK
 62
     0
 10
-3.959225
 20
0.43815
 30
0.0
  0
VERTEX
  5
339
  8
0
  6
BYBLOCK
 62
     0
 10
-3.908425
 20
0.45085
 30
0.0
  0
VERTEX
  5
33A
  8
0
  6
BYBLOCK
 62
     0
 10
-3.895725
 20
0.434975
 30
0.0
  0
VERTEX
  5
33B
  8
0
  6
BYBLOCK
 62
     0
 10
-3.8989
 20
0.390525
 30
0.0
  0
SEQEND
  5
46D
  8
0
  6
BYBLOCK
 62
     0
  0
LINE
  5
C1
  8
0
  6
BYBLOCK
 62
     0
 10
-3.921125
 20
0.51435
 30
0.0
 11
-3.921125
 21
0.5651499999999999
 31
0.0
  0
LINE
  5
C2
  8
0
  6
BYBLOCK
 62
     0
 10
-2.619375
 20
-0.6095999999999999
 30
0.0
 11
-2.619375
 21
-0.59055
 31
0.0
  0
POLYLINE
  5
C3
  8
0
  6
BYBLOCK
 62
     0
 66
     1
 10
0.0
 20
0.0
 30
0.0
  0
VERTEX
  5
33C
  8
0
  6
BYBLOCK
 62
     0
 10
-2.2733
 20
-0.6095999999999999
 30
0.0
  0
VERTEX
  5
33D
  8
0
  6
BYBLOCK
 62
     0
 10
-2.276475
 20
-0.57785
 30
0.0
  0
VERTEX
  5
33E
  8
0
  6
BYBLOCK
 62
     0
 10
-2.3368
 20
-0.5556249999999999
 30
0.0
  0
VERTEX
  5
33F
  8
0
  6
BYBLOCK
 62
     0
 10
-2.3749
 20
-0.5334
 30
0.0
  0
VERTEX
  5
340
  8
0
  6
BYBLOCK
 62
     0
 10
-2.397125
 20
-0.441325
 30
0.0
  0
VERTEX
  5
341
  8
0
  6
BYBLOCK
 62
     0
 10
-2.390775
 20
-0.381
 30
0.0
  0
VERTEX
  5
342
  8
0
  6
BYBLOCK
 62
     0
 10
-2.384425
 20
-0.288925
 30
0.0
  0
VERTEX
  5
343
  8
0
  6
BYBLOCK
 62
     0
 10
-2.365375
 20
-0.2413
 30
0.0
  0
VERTEX
  5
344
  8
0
  6
BYBLOCK
 62
     0
 10
-2.282825
 20
-0.20955
 30
0.0
  0
VERTEX
  5
345
  8
0
  6
BYBLOCK
 62
     0
 10
-2.26695
 20
-0.19685
 30
0.0
  0
VERTEX
  5
346
  8
0
  6
BYBLOCK
 62
     0
 10
-2.257425
 20
-0.1778
 30
0.0
  0
SEQEND
  5
46E
  8
0
  6
BYBLOCK
 62
     0
  0
POLYLINE
  5
D0
  8
0
  6
BYBLOCK
 62
     0
 66
     1
 10
0.0
 20
0.0
 30
0.0
  0
VERTEX
  5
347
  8
0
  6
BYBLOCK
 62
     0
 10
-2.035175
 20
-0.219075
 30
0.0
  0
VERTEX
  5
348
  8
0
  6
BYBLOCK
 62
     0
 10
-2.10185
 20
-0.180975
 30
0.0
  0
VERTEX
  5
349
  8
0
  6
BYBLOCK
 62
     0
 10
-2.270125
 20
-0.1778
 30
0.0
  0
VERTEX
  5
34A
  8
0
  6
BYBLOCK
 62
     0
 10
-2.454275
 20
-0.1778
 30
0.0
  0
VERTEX
  5
34B
  8
0
  6
BYBLOCK
 62
     0
 10
-2.555875
 20
-0.18415
 30
0.0
  0
VERTEX
  5
34C
  8
0
  6
BYBLOCK
 62
     0
 10
-2.67335
 20
-0.20955
 30
0.0
  0
VERTEX
  5
34D
  8
0
  6
BYBLOCK
 62
     0
 10
-2.714625
 20
-0.269875
 30
0.0
  0
VERTEX
  5
34E
  8
0
  6
BYBLOCK
 62
     0
 10
-2.733675
 20
-0.346075
 30
0.0
  0
VERTEX
  5
34F
  8
0
  6
BYBLOCK
 62
     0
 10
-2.7305
 20
-0.43815
 30
0.0
  0
VERTEX
  5
350
  8
0
  6
BYBLOCK
 62
     0
 10
-2.708275
 20
-0.5206999999999999
 30
0.0
  0
VERTEX
  5
351
  8
0
  6
BYBLOCK
 62
     0
 10
-2.6543
 20
-0.5746749999999999
 30
0.0
  0
VERTEX
  5
352
  8
0
  6
BYBLOCK
 62
     0
 10
-2.5146
 20
-0.6095999999999999
 30
0.0
  0
VERTEX
  5
353
  8
0
  6
BYBLOCK
 62
     0
 10
-2.333625
 20
-0.61595
 30
0.0
  0
VERTEX
  5
354
  8
0
  6
BYBLOCK
 62
     0
 10
-2.21615
 20
-0.606425
 30
0.0
  0
VERTEX
  5
355
  8
0
  6
BYBLOCK
 62
     0
 10
-2.16535
 20
-0.60325
 30
0.0
  0
SEQEND
  5
46F
  8
0
  6
BYBLOCK
 62
     0
  0
POLYLINE
  5
E1
  8
0
  6
BYBLOCK
 62
     0
 66
     1
 10
0.0
 20
0.0
 30
0.0
  0
VERTEX
  5
356
  8
0
  6
BYBLOCK
 62
     0
 10
-1.692275
 20
0.0
 30
0.0
  0
VERTEX
  5
357
  8
0
  6
BYBLOCK
 62
     0
 10
-1.692275
 20
-0.18415
 30
0.0
  0
VERTEX
  5
358
  8
0
  6
BYBLOCK
 62
     0
 10
-1.6891
 20
-0.320675
 30
0.0
  0
VERTEX
  5
359
  8
0
  6
BYBLOCK
 62
     0
 10
-1.704975
 20
-0.434975
 30
0.0
  0
VERTEX
  5
35A
  8
0
  6
BYBLOCK
 62
     0
 10
-1.730375
 20
-0.504825
 30
0.0
  0
VERTEX
  5
35B
  8
0
  6
BYBLOCK
 62
     0
 10
-1.75895
 20
-0.581025
 30
0.0
  0
VERTEX
  5
35C
  8
0
  6
BYBLOCK
 62
     0
 10
-1.8034
 20
-0.6381749999999999
 30
0.0
  0
SEQEND
  5
470
  8
0
  6
BYBLOCK
 62
     0
  0
POLYLINE
  5
EA
  8
0
  6
BYBLOCK
 62
     0
 66
     1
 10
0.0
 20
0.0
 30
0.0
  0
VERTEX
  5
35D
  8
0
  6
BYBLOCK
 62
     0
 10
-1.9939
 20
0.0
 30
0.0
  0
VERTEX
  5
35E
  8
0
  6
BYBLOCK
 62
     0
 10
-1.9939
 20
-0.1524
 30
0.0
  0
VERTEX
  5
35F
  8
0
  6
BYBLOCK
 62
     0
 10
-2.00025
 20
-0.320675
 30
0.0
  0
VERTEX
  5
360
  8
0
  6
BYBLOCK
 62
     0
 10
-2.016125
 20
-0.428625
 30
0.0
  0
VERTEX
  5
361
  8
0
  6
BYBLOCK
 62
     0
 10
-2.041525
 20
-0.5206999999999999
 30
0.0
  0
VERTEX
  5
362
  8
0
  6
BYBLOCK
 62
     0
 10
-2.0447
 20
-0.53975
 30
0.0
  0
VERTEX
  5
363
  8
0
  6
BYBLOCK
 62
     0
 10
-1.8034
 20
-0.606425
 30
0.0
  0
VERTEX
  5
364
  8
0
  6
BYBLOCK
 62
     0
 10
-1.774825
 20
-0.5651499999999999
 30
0.0
  0
VERTEX
  5
365
  8
0
  6
BYBLOCK
 62
     0
 10
-1.74625
 20
-0.4953
 30
0.0
  0
VERTEX
  5
366
  8
0
  6
BYBLOCK
 62
     0
 10
-1.730375
 20
-0.41275
 30
0.0
  0
VERTEX
  5
367
  8
0
  6
BYBLOCK
 62
     0
 10
-1.72085
 20
-0.3175
 30
0.0
  0
VERTEX
  5
368
  8
0
  6
BYBLOCK
 62
     0
 10
-1.7145
 20
-0.18415
 30
0.0
  0
VERTEX
  5
369
  8
0
  6
BYBLOCK
 62
     0
 10
-1.7145
 20
0.0
 30
0.0
  0
SEQEND
  5
471
  8
0
  6
BYBLOCK
 62
     0
  0
POLYLINE
  5
F9
  8
0
  6
BYBLOCK
 62
     0
 66
     1
 10
0.0
 20
0.0
 30
0.0
  0
VERTEX
  5
36A
  8
0
  6
BYBLOCK
 62
     0
 10
-1.812925
 20
-0.635
 30
0.0
  0
VERTEX
  5
36B
  8
0
  6
BYBLOCK
 62
     0
 10
-2.10185
 20
-0.561975
 30
0.0
  0
VERTEX
  5
36C
  8
0
  6
BYBLOCK
 62
     0
 10
-2.105025
 20
-0.549275
 30
0.0
  0
VERTEX
  5
36D
  8
0
  6
BYBLOCK
 62
     0
 10
-2.079625
 20
-0.517525
 30
0.0
  0
VERTEX
  5
36E
  8
0
  6
BYBLOCK
 62
     0
 10
-2.0574
 20
-0.428625
 30
0.0
  0
VERTEX
  5
36F
  8
0
  6
BYBLOCK
 62
     0
 10
-2.041525
 20
-0.3175
 30
0.0
  0
VERTEX
  5
370
  8
0
  6
BYBLOCK
 62
     0
 10
-2.035175
 20
-0.1524
 30
0.0
  0
VERTEX
  5
371
  8
0
  6
BYBLOCK
 62
     0
 10
-2.035175
 20
0.0
 30
0.0
  0
SEQEND
  5
472
  8
0
  6
BYBLOCK
 62
     0
  0
POLYLINE
  5
103
  8
0
  6
BYBLOCK
 62
     0
 66
     1
 10
0.0
 20
0.0
 30
0.0
  0
VERTEX
  5
372
  8
0
  6
BYBLOCK
 62
     0
 10
-1.851025
 20
-0.631825
 30
0.0
  0
VERTEX
  5
373
  8
0
  6
BYBLOCK
 62
     0
 10
-2.060575
 20
-0.657225
 30
0.0
  0
VERTEX
  5
374
  8
0
  6
BYBLOCK
 62
     0
 10
-2.1717
 20
-0.587375
 30
0.0
  0
VERTEX
  5
375
  8
0
  6
BYBLOCK
 62
     0
 10
-2.1082
 20
-0.561975
 30
0.0
  0
SEQEND
  5
473
  8
0
  6
BYBLOCK
 62
     0
  0
POLYLINE
  5
109
  8
0
  6
BYBLOCK
 62
     0
 66
     1
 10
0.0
 20
0.0
 30
0.0
  0
VERTEX
  5
376
  8
0
  6
BYBLOCK
 62
     0
 10
-2.13995
 20
-0.6191249999999999
 30
0.0
  0
VERTEX
  5
377
  8
0
  6
BYBLOCK
 62
     0
 10
-2.2606
 20
-0.631825
 30
0.0
  0
VERTEX
  5
378
  8
0
  6
BYBLOCK
 62
     0
 10
-2.41935
 20
-0.635
 30
0.0
  0
VERTEX
  5
379
  8
0
  6
BYBLOCK
 62
     0
 10
-2.6416
 20
-0.6191249999999999
 30
0.0
  0
VERTEX
  5
37A
  8
0
  6
BYBLOCK
 62
     0
 10
-2.6924
 20
-0.6095999999999999
 30
0.0
  0
VERTEX
  5
37B
  8
0
  6
BYBLOCK
 62
     0
 10
-2.727325
 20
-0.587375
 30
0.0
  0
VERTEX
  5
37C
  8
0
  6
BYBLOCK
 62
     0
 10
-2.759075
 20
-0.5334
 30
0.0
  0
VERTEX
  5
37D
  8
0
  6
BYBLOCK
 62
     0
 10
-2.778125
 20
-0.441325
 30
0.0
  0
VERTEX
  5
37E
  8
0
  6
BYBLOCK
 62
     0
 10
-2.778125
 20
0.0
 30
0.0
  0
SEQEND
  5
474
  8
0
  6
BYBLOCK
 62
     0
  0
POLYLINE
  5
114
  8
0
  6
BYBLOCK
 62
     0
 66
     1
 10
0.0
 20
0.0
 30
0.0
  0
VERTEX
  5
37F
  8
0
  6
BYBLOCK
 62
     0
 10
-2.64795
 20
-0.771525
 30
0.0
  0
VERTEX
  5
380
  8
0
  6
BYBLOCK
 62
     0
 10
-2.6797
 20
-0.76835
 30
0.0
  0
VERTEX
  5
381
  8
0
  6
BYBLOCK
 62
     0
 10
-2.708275
 20
-0.7493
 30
0.0
  0
VERTEX
  5
382
  8
0
  6
BYBLOCK
 62
     0
 10
-2.7305
 20
-0.6985
 30
0.0
  0
VERTEX
  5
383
  8
0
  6
BYBLOCK
 62
     0
 10
-2.76225
 20
-0.657225
 30
0.0
  0
VERTEX
  5
384
  8
0
  6
BYBLOCK
 62
     0
 10
-2.847975
 20
-0.606425
 30
0.0
  0
VERTEX
  5
385
  8
0
  6
BYBLOCK
 62
     0
 10
-3.0353
 20
-0.542925
 30
0.0
  0
VERTEX
  5
386
  8
0
  6
BYBLOCK
 62
     0
 10
-3.27025
 20
-0.5016499999999999
 30
0.0
  0
SEQEND
  5
475
  8
0
  6
BYBLOCK
 62
     0
  0
LINE
  5
11E
  8
0
  6
BYBLOCK
 62
     0
 10
-1.84785
 20
-0.771525
 30
0.0
 11
-2.5908
 21
-0.771525
 31
0.0
  0
LINE
  5
11F
  8
0
  6
BYBLOCK
 62
     0
 10
-1.146175
 20
-0.771525
 30
0.0
 11
-1.882775
 21
-0.771525
 31
0.0
  0
LINE
  5
120
  8
0
  6
BYBLOCK
 62
     0
 10
-1.114425
 20
-0.762
 30
0.0
 11
-1.146175
 21
-0.771525
 31
0.0
  0
LINE
  5
121
  8
0
  6
BYBLOCK
 62
     0
 10
-2.384425
 20
0.288925
 30
0.0
 11
-2.166197148087154
 21
0.2565949478647636
 31
0.0
  0
LINE
  5
122
  8
0
  6
BYBLOCK
 62
     0
 10
-2.3749
 20
0.352425
 30
0.0
 11
-2.169706838588366
 21
0.3575548290352908
 31
0.0
  0
LINE
  5
123
  8
0
  6
BYBLOCK
 62
     0
 10
-2.3876
 20
0.4191
 30
0.0
 11
-2.168017859647648
 21
0.4275454669366289
 31
0.0
  0
LINE
  5
124
  8
0
  6
BYBLOCK
 62
     0
 10
-2.371725
 20
0.5016499999999999
 30
0.0
 11
-2.152621492483516
 21
0.5205848710199431
 31
0.0
  0
LINE
  5
125
  8
0
  6
BYBLOCK
 62
     0
 10
-2.371725
 20
-0.5016499999999999
 30
0.0
 11
-2.11455
 21
-0.523875
 31
0.0
  0
LINE
  5
126
  8
0
  6
BYBLOCK
 62
     0
 10
-2.3876
 20
-0.4191
 30
0.0
 11
-2.13995
 21
-0.428625
 31
0.0
  0
LINE
  5
127
  8
0
  6
BYBLOCK
 62
     0
 10
-2.3749
 20
-0.352425
 30
0.0
 11
-2.1209
 21
-0.358775
 31
0.0
  0
LINE
  5
128
  8
0
  6
BYBLOCK
 62
     0
 10
-2.384425
 20
-0.288925
 30
0.0
 11
-2.12725
 21
-0.250825
 31
0.0
  0
LINE
  5
129
  8
0
  6
BYBLOCK
 62
     0
 10
-2.188896430196529
 20
-0.00635
 30
0.0
 11
-2.27965
 21
-0.00635
 31
0.0
  0
LINE
  5
12A
  8
0
  6
BYBLOCK
 62
     0
 10
-2.188896430196529
 20
0.0127
 30
0.0
 11
-2.27965
 21
0.0127
 31
0.0
  0
ARC
  5
12B
  8
0
  6
BYBLOCK
 62
     0
 10
-2.276475
 20
0.00635
 30
0.0
 40
0.08255
 50
4.411725785770179
 51
351.150116901571
  0
POLYLINE
  5
12C
  8
0
  6
BYBLOCK
 62
     0
 66
     1
 10
0.0
 20
0.0
 30
0.0
  0
VERTEX
  5
387
  8
0
  6
BYBLOCK
 62
     0
 10
-2.097702112001644
 20
0.1833452217133461
 30
0.0
  0
VERTEX
  5
388
  8
0
  6
BYBLOCK
 62
     0
 10
-2.10185
 20
0.180975
 30
0.0
  0
VERTEX
  5
389
  8
0
  6
BYBLOCK
 62
     0
 10
-2.270125
 20
0.1778
 30
0.0
  0
VERTEX
  5
38A
  8
0
  6
BYBLOCK
 62
     0
 10
-2.454275
 20
0.1778
 30
0.0
  0
VERTEX
  5
38B
  8
0
  6
BYBLOCK
 62
     0
 10
-2.555875
 20
0.18415
 30
0.0
  0
VERTEX
  5
38C
  8
0
  6
BYBLOCK
 62
     0
 10
-2.67335
 20
0.20955
 30
0.0
  0
VERTEX
  5
38D
  8
0
  6
BYBLOCK
 62
     0
 10
-2.714625
 20
0.269875
 30
0.0
  0
VERTEX
  5
38E
  8
0
  6
BYBLOCK
 62
     0
 10
-2.733675
 20
0.346075
 30
0.0
  0
VERTEX
  5
38F
  8
0
  6
BYBLOCK
 62
     0
 10
-2.7305
 20
0.43815
 30
0.0
  0
VERTEX
  5
390
  8
0
  6
BYBLOCK
 62
     0
 10
-2.708275
 20
0.5206999999999999
 30
0.0
  0
VERTEX
  5
391
  8
0
  6
BYBLOCK
 62
     0
 10
-2.6543
 20
0.5746749999999999
 30
0.0
  0
VERTEX
  5
392
  8
0
  6
BYBLOCK
 62
     0
 10
-2.5146
 20
0.6095999999999999
 30
0.0
  0
VERTEX
  5
393
  8
0
  6
BYBLOCK
 62
     0
 10
-2.333625
 20
0.61595
 30
0.0
  0
VERTEX
  5
394
  8
0
  6
BYBLOCK
 62
     0
 10
-2.21615
 20
0.606425
 30
0.0
  0
VERTEX
  5
395
  8
0
  6
BYBLOCK
 62
     0
 10
-2.16535
 20
0.60325
 30
0.0
  0
SEQEND
  5
476
  8
0
  6
BYBLOCK
 62
     0
  0
LINE
  5
13D
  8
0
  6
BYBLOCK
 62
     0
 10
-1.84785
 20
0.771525
 30
0.0
 11
-2.5908
 21
0.771525
 31
0.0
  0
LINE
  5
13E
  8
0
  6
BYBLOCK
 62
     0
 10
-2.57175
 20
0.161925
 30
0.0
 11
-2.041525
 21
0.161925
 31
0.0
  0
LINE
  5
13F
  8
0
  6
BYBLOCK
 62
     0
 10
-2.041525
 20
0.12065
 30
0.0
 11
-2.67335
 21
0.104775
 31
0.0
  0
POLYLINE
  5
140
  8
0
  6
BYBLOCK
 62
     0
 66
     1
 10
0.0
 20
0.0
 30
0.0
  0
VERTEX
  5
396
  8
0
  6
BYBLOCK
 62
     0
 10
-2.13995
 20
0.6191249999999999
 30
0.0
  0
VERTEX
  5
397
  8
0
  6
BYBLOCK
 62
     0
 10
-2.2606
 20
0.631825
 30
0.0
  0
VERTEX
  5
398
  8
0
  6
BYBLOCK
 62
     0
 10
-2.41935
 20
0.635
 30
0.0
  0
VERTEX
  5
399
  8
0
  6
BYBLOCK
 62
     0
 10
-2.6416
 20
0.6191249999999999
 30
0.0
  0
VERTEX
  5
39A
  8
0
  6
BYBLOCK
 62
     0
 10
-2.6924
 20
0.6095999999999999
 30
0.0
  0
VERTEX
  5
39B
  8
0
  6
BYBLOCK
 62
     0
 10
-2.727325
 20
0.587375
 30
0.0
  0
VERTEX
  5
39C
  8
0
  6
BYBLOCK
 62
     0
 10
-2.759075
 20
0.5334
 30
0.0
  0
VERTEX
  5
39D
  8
0
  6
BYBLOCK
 62
     0
 10
-2.778125
 20
0.441325
 30
0.0
  0
VERTEX
  5
39E
  8
0
  6
BYBLOCK
 62
     0
 10
-2.778125
 20
0.0
 30
0.0
  0
SEQEND
  5
477
  8
0
  6
BYBLOCK
 62
     0
  0
LINE
  5
14B
  8
0
  6
BYBLOCK
 62
     0
 10
-2.041525
 20
-0.12065
 30
0.0
 11
-2.67335
 21
-0.104775
 31
0.0
  0
LINE
  5
14C
  8
0
  6
BYBLOCK
 62
     0
 10
-2.57175
 20
-0.161925
 30
0.0
 11
-2.041525
 21
-0.161925
 31
0.0
  0
LINE
  5
14D
  8
0
  6
BYBLOCK
 62
     0
 10
-2.67335
 20
0.104775
 30
0.0
 11
-2.67335
 21
0.19685
 31
0.0
  0
LINE
  5
14E
  8
0
  6
BYBLOCK
 62
     0
 10
-2.7432
 20
0.5461
 30
0.0
 11
-2.7432
 21
0.0
 31
0.0
  0
CIRCLE
  5
14F
  8
0
  6
BYBLOCK
 62
     0
 10
-3.0353
 20
0.003175
 30
0.0
 40
0.0635
  0
LINE
  5
150
  8
0
  6
BYBLOCK
 62
     0
 10
-3.0226
 20
-0.08255
 30
0.0
 11
-3.0226
 21
-0.05715
 31
0.0
  0
LINE
  5
151
  8
0
  6
BYBLOCK
 62
     0
 10
-3.044825
 20
-0.08255
 30
0.0
 11
-3.0226
 21
-0.08255
 31
0.0
  0
LINE
  5
152
  8
0
  6
BYBLOCK
 62
     0
 10
-3.044825
 20
-0.05715
 30
0.0
 11
-3.044825
 21
-0.08255
 31
0.0
  0
LINE
  5
153
  8
0
  6
BYBLOCK
 62
     0
 10
-3.006725
 20
0.0889
 30
0.0
 11
-3.006725
 21
0.060325
 31
0.0
  0
LINE
  5
154
  8
0
  6
BYBLOCK
 62
     0
 10
-3.0607
 20
0.0889
 30
0.0
 11
-3.006725
 21
0.0889
 31
0.0
  0
LINE
  5
155
  8
0
  6
BYBLOCK
 62
     0
 10
-3.0607
 20
0.060325
 30
0.0
 11
-3.0607
 21
0.0889
 31
0.0
  0
LINE
  5
156
  8
0
  6
BYBLOCK
 62
     0
 10
-2.384425
 20
-0.263525
 30
0.0
 11
-2.574925
 21
-0.23495
 31
0.0
  0
LINE
  5
157
  8
0
  6
BYBLOCK
 62
     0
 10
-2.7432
 20
-0.5461
 30
0.0
 11
-2.7432
 21
0.0
 31
0.0
  0
LINE
  5
158
  8
0
  6
BYBLOCK
 62
     0
 10
-2.39395
 20
-0.466725
 30
0.0
 11
-2.66065
 21
-0.48895
 31
0.0
  0
LINE
  5
159
  8
0
  6
BYBLOCK
 62
     0
 10
-2.397125
 20
-0.390525
 30
0.0
 11
-2.689225
 21
-0.390525
 31
0.0
  0
LINE
  5
15A
  8
0
  6
BYBLOCK
 62
     0
 10
-2.3876
 20
-0.32385
 30
0.0
 11
-2.667
 21
-0.3048
 31
0.0
  0
LINE
  5
15B
  8
0
  6
BYBLOCK
 62
     0
 10
-2.390775
 20
-0.536575
 30
0.0
 11
-2.517775
 21
-0.5651499999999999
 31
0.0
  0
LINE
  5
15C
  8
0
  6
BYBLOCK
 62
     0
 10
-2.67335
 20
-0.104775
 30
0.0
 11
-2.67335
 21
-0.19685
 31
0.0
  0
LINE
  5
15D
  8
0
  6
BYBLOCK
 62
     0
 10
-2.606675
 20
-0.168275
 30
0.0
 11
-2.57175
 21
-0.161925
 31
0.0
  0
LINE
  5
15E
  8
0
  6
BYBLOCK
 62
     0
 10
-2.606675
 20
-0.180975
 30
0.0
 11
-2.606675
 21
-0.168275
 31
0.0
  0
ARC
  5
15F
  8
0
  6
BYBLOCK
 62
     0
 10
-2.2733
 20
0.003175
 30
0.0
 40
0.0635
 50
8.626926558678562
 51
351.3730734413214
  0
ARC
  5
160
  8
0
  6
BYBLOCK
 62
     0
 10
-2.2733
 20
0.003175
 30
0.0
 40
0.04445
 50
12.3736251161884
 51
347.6263748838116
  0
ARC
  5
161
  8
0
  6
BYBLOCK
 62
     0
 10
-2.2733
 20
0.003175
 30
0.0
 40
0.028575
 50
19.4712206344906
 51
340.5287793655094
  0
ARC
  5
162
  8
0
  6
BYBLOCK
 62
     0
 10
-2.27965
 20
0.003175
 30
0.0
 40
0.009525
 50
90.0
 51
270.0
  0
POLYLINE
  5
163
  8
0
  6
BYBLOCK
 62
     0
 66
     1
 10
0.0
 20
0.0
 30
0.0
  0
VERTEX
  5
39F
  8
0
  6
BYBLOCK
 62
     0
 10
-2.64795
 20
0.771525
 30
0.0
  0
VERTEX
  5
3A0
  8
0
  6
BYBLOCK
 62
     0
 10
-2.6797
 20
0.76835
 30
0.0
  0
VERTEX
  5
3A1
  8
0
  6
BYBLOCK
 62
     0
 10
-2.708275
 20
0.7493
 30
0.0
  0
VERTEX
  5
3A2
  8
0
  6
BYBLOCK
 62
     0
 10
-2.7305
 20
0.6985
 30
0.0
  0
VERTEX
  5
3A3
  8
0
  6
BYBLOCK
 62
     0
 10
-2.76225
 20
0.657225
 30
0.0
  0
VERTEX
  5
3A4
  8
0
  6
BYBLOCK
 62
     0
 10
-2.847975
 20
0.606425
 30
0.0
  0
VERTEX
  5
3A5
  8
0
  6
BYBLOCK
 62
     0
 10
-3.0353
 20
0.542925
 30
0.0
  0
VERTEX
  5
3A6
  8
0
  6
BYBLOCK
 62
     0
 10
-3.27025
 20
0.5016499999999999
 30
0.0
  0
SEQEND
  5
478
  8
0
  6
BYBLOCK
 62
     0
  0
POLYLINE
  5
16D
  8
0
  6
BYBLOCK
 62
     0
 66
     1
 10
0.0
 20
0.0
 30
0.0
 70
     1
  0
VERTEX
  5
3A7
  8
0
  6
BYBLOCK
 62
     0
 10
-3.019425
 20
0.200025
 30
0.0
  0
VERTEX
  5
3A8
  8
0
  6
BYBLOCK
 62
     0
 10
-2.905125
 20
0.2032
 30
0.0
  0
VERTEX
  5
3A9
  8
0
  6
BYBLOCK
 62
     0
 10
-2.8829
 20
0.19685
 30
0.0
  0
VERTEX
  5
3AA
  8
0
  6
BYBLOCK
 62
     0
 10
-2.860675
 20
0.200025
 30
0.0
  0
VERTEX
  5
3AB
  8
0
  6
BYBLOCK
 62
     0
 10
-2.847975
 20
0.22225
 30
0.0
  0
VERTEX
  5
3AC
  8
0
  6
BYBLOCK
 62
     0
 10
-2.847975
 20
0.5016499999999999
 30
0.0
  0
VERTEX
  5
3AD
  8
0
  6
BYBLOCK
 62
     0
 10
-2.86385
 20
0.523875
 30
0.0
  0
VERTEX
  5
3AE
  8
0
  6
BYBLOCK
 62
     0
 10
-2.886075
 20
0.52705
 30
0.0
  0
VERTEX
  5
3AF
  8
0
  6
BYBLOCK
 62
     0
 10
-2.905125
 20
0.5111749999999999
 30
0.0
  0
VERTEX
  5
3B0
  8
0
  6
BYBLOCK
 62
     0
 10
-2.905125
 20
0.257175
 30
0.0
  0
VERTEX
  5
3B1
  8
0
  6
BYBLOCK
 62
     0
 10
-3.019425
 20
0.257175
 30
0.0
  0
VERTEX
  5
3B2
  8
0
  6
BYBLOCK
 62
     0
 10
-3.057525
 20
0.238125
 30
0.0
  0
VERTEX
  5
3B3
  8
0
  6
BYBLOCK
 62
     0
 10
-3.057525
 20
0.2159
 30
0.0
  0
SEQEND
  5
479
  8
0
  6
BYBLOCK
 62
     0
  0
LINE
  5
17C
  8
0
  6
BYBLOCK
 62
     0
 10
-2.905125
 20
0.2032
 30
0.0
 11
-2.897275508821852
 21
0.2145795430112784
 31
0.0
  0
LINE
  5
17D
  8
0
  6
BYBLOCK
 62
     0
 10
-2.905125
 20
0.257175
 30
0.0
 11
-2.893614686940152
 21
0.2365257172015111
 31
0.0
  0
LINE
  5
17E
  8
0
  6
BYBLOCK
 62
     0
 10
-2.39395
 20
0.466725
 30
0.0
 11
-2.66065
 21
0.48895
 31
0.0
  0
POLYLINE
  5
17F
  8
0
  6
BYBLOCK
 62
     0
 66
     1
 10
0.0
 20
0.0
 30
0.0
  0
VERTEX
  5
3B4
  8
0
  6
BYBLOCK
 62
     0
 10
-2.2733
 20
0.6095999999999999
 30
0.0
  0
VERTEX
  5
3B5
  8
0
  6
BYBLOCK
 62
     0
 10
-2.276475
 20
0.57785
 30
0.0
  0
VERTEX
  5
3B6
  8
0
  6
BYBLOCK
 62
     0
 10
-2.3368
 20
0.5556249999999999
 30
0.0
  0
VERTEX
  5
3B7
  8
0
  6
BYBLOCK
 62
     0
 10
-2.3749
 20
0.5334
 30
0.0
  0
VERTEX
  5
3B8
  8
0
  6
BYBLOCK
 62
     0
 10
-2.397125
 20
0.441325
 30
0.0
  0
VERTEX
  5
3B9
  8
0
  6
BYBLOCK
 62
     0
 10
-2.390775
 20
0.381
 30
0.0
  0
VERTEX
  5
3BA
  8
0
  6
BYBLOCK
 62
     0
 10
-2.384425
 20
0.288925
 30
0.0
  0
VERTEX
  5
3BB
  8
0
  6
BYBLOCK
 62
     0
 10
-2.365375
 20
0.2413
 30
0.0
  0
VERTEX
  5
3BC
  8
0
  6
BYBLOCK
 62
     0
 10
-2.282825
 20
0.20955
 30
0.0
  0
VERTEX
  5
3BD
  8
0
  6
BYBLOCK
 62
     0
 10
-2.26695
 20
0.19685
 30
0.0
  0
VERTEX
  5
3BE
  8
0
  6
BYBLOCK
 62
     0
 10
-2.257425
 20
0.1778
 30
0.0
  0
SEQEND
  5
47A
  8
0
  6
BYBLOCK
 62
     0
  0
LINE
  5
18C
  8
0
  6
BYBLOCK
 62
     0
 10
-2.3876
 20
0.32385
 30
0.0
 11
-2.667
 21
0.3048
 31
0.0
  0
LINE
  5
18D
  8
0
  6
BYBLOCK
 62
     0
 10
-2.397125
 20
0.390525
 30
0.0
 11
-2.689225
 21
0.390525
 31
0.0
  0
LINE
  5
18E
  8
0
  6
BYBLOCK
 62
     0
 10
-2.384425
 20
0.263525
 30
0.0
 11
-2.574925
 21
0.23495
 31
0.0
  0
LINE
  5
18F
  8
0
  6
BYBLOCK
 62
     0
 10
-2.606675
 20
0.180975
 30
0.0
 11
-2.606675
 21
0.168275
 31
0.0
  0
LINE
  5
190
  8
0
  6
BYBLOCK
 62
     0
 10
-2.606675
 20
0.168275
 30
0.0
 11
-2.57175
 21
0.161925
 31
0.0
  0
LINE
  5
191
  8
0
  6
BYBLOCK
 62
     0
 10
-2.619375
 20
0.6095999999999999
 30
0.0
 11
-2.619375
 21
0.59055
 31
0.0
  0
LINE
  5
192
  8
0
  6
BYBLOCK
 62
     0
 10
-2.390775
 20
0.536575
 30
0.0
 11
-2.517775
 21
0.5651499999999999
 31
0.0
  0
POLYLINE
  5
193
  8
0
  6
BYBLOCK
 62
     0
 66
     1
 10
0.0
 20
0.0
 30
0.0
  0
VERTEX
  5
3BF
  8
0
  6
BYBLOCK
 62
     0
 10
-1.45415
 20
0.0
 30
0.0
  0
VERTEX
  5
3C0
  8
0
  6
BYBLOCK
 62
     0
 10
-1.4351
 20
0.079375
 30
0.0
  0
VERTEX
  5
3C1
  8
0
  6
BYBLOCK
 62
     0
 10
-1.393825
 20
0.117475
 30
0.0
  0
VERTEX
  5
3C2
  8
0
  6
BYBLOCK
 62
     0
 10
-1.323975
 20
0.1397
 30
0.0
  0
VERTEX
  5
3C3
  8
0
  6
BYBLOCK
 62
     0
 10
-1.171575
 20
0.155575
 30
0.0
  0
VERTEX
  5
3C4
  8
0
  6
BYBLOCK
 62
     0
 10
-1.0541
 20
0.155575
 30
0.0
  0
VERTEX
  5
3C5
  8
0
  6
BYBLOCK
 62
     0
 10
-1.07315
 20
0.130175
 30
0.0
  0
VERTEX
  5
3C6
  8
0
  6
BYBLOCK
 62
     0
 10
-1.07315
 20
0.0
 30
0.0
  0
SEQEND
  5
47B
  8
0
  6
BYBLOCK
 62
     0
  0
POLYLINE
  5
19D
  8
0
  6
BYBLOCK
 62
     0
 66
     1
 10
0.0
 20
0.0
 30
0.0
  0
VERTEX
  5
3C7
  8
0
  6
BYBLOCK
 62
     0
 10
-1.812925
 20
0.635
 30
0.0
  0
VERTEX
  5
3C8
  8
0
  6
BYBLOCK
 62
     0
 10
-2.10185
 20
0.561975
 30
0.0
  0
VERTEX
  5
3C9
  8
0
  6
BYBLOCK
 62
     0
 10
-2.105025
 20
0.549275
 30
0.0
  0
VERTEX
  5
3CA
  8
0
  6
BYBLOCK
 62
     0
 10
-2.079625
 20
0.517525
 30
0.0
  0
VERTEX
  5
3CB
  8
0
  6
BYBLOCK
 62
     0
 10
-2.0574
 20
0.428625
 30
0.0
  0
VERTEX
  5
3CC
  8
0
  6
BYBLOCK
 62
     0
 10
-2.041525
 20
0.3175
 30
0.0
  0
VERTEX
  5
3CD
  8
0
  6
BYBLOCK
 62
     0
 10
-2.035175
 20
0.1524
 30
0.0
  0
VERTEX
  5
3CE
  8
0
  6
BYBLOCK
 62
     0
 10
-2.035175
 20
0.0
 30
0.0
  0
SEQEND
  5
47C
  8
0
  6
BYBLOCK
 62
     0
  0
POLYLINE
  5
1A7
  8
0
  6
BYBLOCK
 62
     0
 66
     1
 10
0.0
 20
0.0
 30
0.0
  0
VERTEX
  5
3CF
  8
0
  6
BYBLOCK
 62
     0
 10
-1.9939
 20
0.0
 30
0.0
  0
VERTEX
  5
3D0
  8
0
  6
BYBLOCK
 62
     0
 10
-1.9939
 20
0.1524
 30
0.0
  0
VERTEX
  5
3D1
  8
0
  6
BYBLOCK
 62
     0
 10
-2.00025
 20
0.320675
 30
0.0
  0
VERTEX
  5
3D2
  8
0
  6
BYBLOCK
 62
     0
 10
-2.016125
 20
0.428625
 30
0.0
  0
VERTEX
  5
3D3
  8
0
  6
BYBLOCK
 62
     0
 10
-2.041525
 20
0.5206999999999999
 30
0.0
  0
VERTEX
  5
3D4
  8
0
  6
BYBLOCK
 62
     0
 10
-2.0447
 20
0.53975
 30
0.0
  0
VERTEX
  5
3D5
  8
0
  6
BYBLOCK
 62
     0
 10
-1.8034
 20
0.606425
 30
0.0
  0
VERTEX
  5
3D6
  8
0
  6
BYBLOCK
 62
     0
 10
-1.774825
 20
0.5651499999999999
 30
0.0
  0
VERTEX
  5
3D7
  8
0
  6
BYBLOCK
 62
     0
 10
-1.74625
 20
0.4953
 30
0.0
  0
VERTEX
  5
3D8
  8
0
  6
BYBLOCK
 62
     0
 10
-1.730375
 20
0.41275
 30
0.0
  0
VERTEX
  5
3D9
  8
0
  6
BYBLOCK
 62
     0
 10
-1.72085
 20
0.3175
 30
0.0
  0
VERTEX
  5
3DA
  8
0
  6
BYBLOCK
 62
     0
 10
-1.7145
 20
0.18415
 30
0.0
  0
VERTEX
  5
3DB
  8
0
  6
BYBLOCK
 62
     0
 10
-1.7145
 20
0.0
 30
0.0
  0
SEQEND
  5
47D
  8
0
  6
BYBLOCK
 62
     0
  0
POLYLINE
  5
1B6
  8
0
  6
BYBLOCK
 62
     0
 66
     1
 10
0.0
 20
0.0
 30
0.0
  0
VERTEX
  5
3DC
  8
0
  6
BYBLOCK
 62
     0
 10
-1.692275
 20
0.0
 30
0.0
  0
VERTEX
  5
3DD
  8
0
  6
BYBLOCK
 62
     0
 10
-1.692275
 20
0.18415
 30
0.0
  0
VERTEX
  5
3DE
  8
0
  6
BYBLOCK
 62
     0
 10
-1.6891
 20
0.320675
 30
0.0
  0
VERTEX
  5
3DF
  8
0
  6
BYBLOCK
 62
     0
 10
-1.704975
 20
0.434975
 30
0.0
  0
VERTEX
  5
3E0
  8
0
  6
BYBLOCK
 62
     0
 10
-1.730375
 20
0.504825
 30
0.0
  0
VERTEX
  5
3E1
  8
0
  6
BYBLOCK
 62
     0
 10
-1.75895
 20
0.581025
 30
0.0
  0
VERTEX
  5
3E2
  8
0
  6
BYBLOCK
 62
     0
 10
-1.8034
 20
0.6381749999999999
 30
0.0
  0
SEQEND
  5
47E
  8
0
  6
BYBLOCK
 62
     0
  0
CIRCLE
  5
1BF
  8
0
  6
BYBLOCK
 62
     0
 10
-2.16535
 20
0.003175
 30
0.0
 40
0.0254
  0
POLYLINE
  5
1C0
  8
0
  6
BYBLOCK
 62
     0
 66
     1
 10
0.0
 20
0.0
 30
0.0
  0
VERTEX
  5
3E3
  8
0
  6
BYBLOCK
 62
     0
 10
-1.45415
 20
0.0
 30
0.0
  0
VERTEX
  5
3E4
  8
0
  6
BYBLOCK
 62
     0
 10
-1.4351
 20
-0.079375
 30
0.0
  0
VERTEX
  5
3E5
  8
0
  6
BYBLOCK
 62
     0
 10
-1.393825
 20
-0.117475
 30
0.0
  0
VERTEX
  5
3E6
  8
0
  6
BYBLOCK
 62
     0
 10
-1.323975
 20
-0.1397
 30
0.0
  0
VERTEX
  5
3E7
  8
0
  6
BYBLOCK
 62
     0
 10
-1.171575
 20
-0.155575
 30
0.0
  0
VERTEX
  5
3E8
  8
0
  6
BYBLOCK
 62
     0
 10
-1.0541
 20
-0.155575
 30
0.0
  0
VERTEX
  5
3E9
  8
0
  6
BYBLOCK
 62
     0
 10
-1.07315
 20
-0.130175
 30
0.0
  0
VERTEX
  5
3EA
  8
0
  6
BYBLOCK
 62
     0
 10
-1.07315
 20
0.0
 30
0.0
  0
SEQEND
  5
47F
  8
0
  6
BYBLOCK
 62
     0
  0
LINE
  5
1CA
  8
0
  6
BYBLOCK
 62
     0
 10
-1.146175
 20
0.771525
 30
0.0
 11
-1.882775
 21
0.771525
 31
0.0
  0
POLYLINE
  5
1CB
  8
0
  6
BYBLOCK
 62
     0
 66
     1
 10
0.0
 20
0.0
 30
0.0
  0
VERTEX
  5
3EB
  8
0
  6
BYBLOCK
 62
     0
 10
-2.041525
 20
0.19685
 30
0.0
  0
VERTEX
  5
3EC
  8
0
  6
BYBLOCK
 62
     0
 10
-2.054225
 20
0.1897330968592035
 30
0.0
  0
VERTEX
  5
3ED
  8
0
  6
BYBLOCK
 62
     0
 10
-2.072822605516597
 20
0.1870182387436815
 30
0.0
  0
VERTEX
  5
3EE
  8
0
  6
BYBLOCK
 62
     0
 10
-2.10185
 20
0.1905
 30
0.0
  0
VERTEX
  5
3EF
  8
0
  6
BYBLOCK
 62
     0
 10
-2.1336
 20
0.2159
 30
0.0
  0
VERTEX
  5
3F0
  8
0
  6
BYBLOCK
 62
     0
 10
-2.15265
 20
0.288925
 30
0.0
  0
VERTEX
  5
3F1
  8
0
  6
BYBLOCK
 62
     0
 10
-2.155825
 20
0.37465
 30
0.0
  0
VERTEX
  5
3F2
  8
0
  6
BYBLOCK
 62
     0
 10
-2.149475
 20
0.47625
 30
0.0
  0
VERTEX
  5
3F3
  8
0
  6
BYBLOCK
 62
     0
 10
-2.130425
 20
0.523875
 30
0.0
  0
VERTEX
  5
3F4
  8
0
  6
BYBLOCK
 62
     0
 10
-2.103663702374409
 20
0.5399033806281592
 30
0.0
  0
SEQEND
  5
480
  8
0
  6
BYBLOCK
 62
     0
  0
POLYLINE
  5
1D7
  8
0
  6
BYBLOCK
 62
     0
 66
     1
 10
0.0
 20
0.0
 30
0.0
  0
VERTEX
  5
3F5
  8
0
  6
BYBLOCK
 62
     0
 10
-2.073275
 20
0.4953
 30
0.0
  0
VERTEX
  5
3F6
  8
0
  6
BYBLOCK
 62
     0
 10
-2.08915
 20
0.5016499999999999
 30
0.0
  0
VERTEX
  5
3F7
  8
0
  6
BYBLOCK
 62
     0
 10
-2.108501596322268
 20
0.4900006678014424
 30
0.0
  0
VERTEX
  5
3F8
  8
0
  6
BYBLOCK
 62
     0
 10
-2.1209
 20
0.4191
 30
0.0
  0
VERTEX
  5
3F9
  8
0
  6
BYBLOCK
 62
     0
 10
-2.1209
 20
0.34925
 30
0.0
  0
VERTEX
  5
3FA
  8
0
  6
BYBLOCK
 62
     0
 10
-2.112736297625591
 20
0.2783493388333256
 30
0.0
  0
VERTEX
  5
3FB
  8
0
  6
BYBLOCK
 62
     0
 10
-2.09686129762559
 20
0.2289067612563185
 30
0.0
  0
VERTEX
  5
3FC
  8
0
  6
BYBLOCK
 62
     0
 10
-2.07645
 20
0.22225
 30
0.0
  0
VERTEX
  5
3FD
  8
0
  6
BYBLOCK
 62
     0
 10
-2.054978990805671
 20
0.231775
 30
0.0
  0
VERTEX
  5
3FE
  8
0
  6
BYBLOCK
 62
     0
 10
-2.044850798161134
 20
0.2568912419741222
 30
0.0
  0
SEQEND
  5
481
  8
0
  6
BYBLOCK
 62
     0
  0
POLYLINE
  5
1E3
  8
0
  6
BYBLOCK
 62
     0
 66
     1
 10
0.0
 20
0.0
 30
0.0
  0
VERTEX
  5
3FF
  8
0
  6
BYBLOCK
 62
     0
 10
-2.054225
 20
0.4064
 30
0.0
  0
VERTEX
  5
400
  8
0
  6
BYBLOCK
 62
     0
 10
-2.066925
 20
0.40005
 30
0.0
  0
VERTEX
  5
401
  8
0
  6
BYBLOCK
 62
     0
 10
-2.073275
 20
0.377825
 30
0.0
  0
VERTEX
  5
402
  8
0
  6
BYBLOCK
 62
     0
 10
-2.073275
 20
0.346075
 30
0.0
  0
VERTEX
  5
403
  8
0
  6
BYBLOCK
 62
     0
 10
-2.06375
 20
0.32385
 30
0.0
  0
VERTEX
  5
404
  8
0
  6
BYBLOCK
 62
     0
 10
-2.047875
 20
0.3175
 30
0.0
  0
VERTEX
  5
405
  8
0
  6
BYBLOCK
 62
     0
 10
-2.041525
 20
0.3175
 30
0.0
  0
SEQEND
  5
482
  8
0
  6
BYBLOCK
 62
     0
  0
POLYLINE
  5
1EC
  8
0
  6
BYBLOCK
 62
     0
 66
     1
 10
0.0
 20
0.0
 30
0.0
  0
VERTEX
  5
406
  8
0
  6
BYBLOCK
 62
     0
 10
-1.851025
 20
0.631825
 30
0.0
  0
VERTEX
  5
407
  8
0
  6
BYBLOCK
 62
     0
 10
-2.060575
 20
0.657225
 30
0.0
  0
VERTEX
  5
408
  8
0
  6
BYBLOCK
 62
     0
 10
-2.1717
 20
0.587375
 30
0.0
  0
VERTEX
  5
409
  8
0
  6
BYBLOCK
 62
     0
 10
-2.1082
 20
0.561975
 30
0.0
  0
SEQEND
  5
483
  8
0
  6
BYBLOCK
 62
     0
  0
LINE
  5
1F2
  8
0
  6
BYBLOCK
 62
     0
 10
-1.114425
 20
0.762
 30
0.0
 11
-1.146175
 21
0.771525
 31
0.0
  0
LINE
  5
1F3
  8
0
  6
BYBLOCK
 62
     0
 10
-0.149225
 20
-0.67945
 30
0.0
 11
-0.149225
 21
-0.47625
 31
0.0
  0
LINE
  5
1F4
  8
0
  6
BYBLOCK
 62
     0
 10
-0.123825
 20
-0.6604
 30
0.0
 11
-0.123825
 21
-0.492125
 31
0.0
  0
POLYLINE
  5
1F5
  8
0
  6
BYBLOCK
 62
     0
 66
     1
 10
0.0
 20
0.0
 30
0.0
  0
VERTEX
  5
40A
  8
0
  6
BYBLOCK
 62
     0
 10
-0.060325
 20
0.0
 30
0.0
  0
VERTEX
  5
40B
  8
0
  6
BYBLOCK
 62
     0
 10
-0.060325
 20
-0.0889
 30
0.0
  0
VERTEX
  5
40C
  8
0
  6
BYBLOCK
 62
     0
 10
-0.0635
 20
-0.15875
 30
0.0
  0
VERTEX
  5
40D
  8
0
  6
BYBLOCK
 62
     0
 10
-0.066675
 20
-0.24765
 30
0.0
  0
VERTEX
  5
40E
  8
0
  6
BYBLOCK
 62
     0
 10
-0.0762
 20
-0.295275
 30
0.0
  0
VERTEX
  5
40F
  8
0
  6
BYBLOCK
 62
     0
 10
-0.092075
 20
-0.346075
 30
0.0
  0
VERTEX
  5
410
  8
0
  6
BYBLOCK
 62
     0
 10
-0.12065
 20
-0.377825
 30
0.0
  0
VERTEX
  5
411
  8
0
  6
BYBLOCK
 62
     0
 10
-0.1778
 20
-0.396875
 30
0.0
  0
VERTEX
  5
412
  8
0
  6
BYBLOCK
 62
     0
 10
-0.200025
 20
-0.41275
 30
0.0
  0
VERTEX
  5
413
  8
0
  6
BYBLOCK
 62
     0
 10
-0.2032
 20
-0.4318
 30
0.0
  0
VERTEX
  5
414
  8
0
  6
BYBLOCK
 62
     0
 10
-0.17145
 20
-0.45085
 30
0.0
  0
VERTEX
  5
415
  8
0
  6
BYBLOCK
 62
     0
 10
-0.149225
 20
-0.466725
 30
0.0
  0
VERTEX
  5
416
  8
0
  6
BYBLOCK
 62
     0
 10
-0.12065
 20
-0.479425
 30
0.0
  0
VERTEX
  5
417
  8
0
  6
BYBLOCK
 62
     0
 10
-0.104775
 20
-0.5746749999999999
 30
0.0
  0
VERTEX
  5
418
  8
0
  6
BYBLOCK
 62
     0
 10
-0.117475
 20
-0.66675
 30
0.0
  0
VERTEX
  5
419
  8
0
  6
BYBLOCK
 62
     0
 10
-0.14605
 20
-0.6858
 30
0.0
  0
VERTEX
  5
41A
  8
0
  6
BYBLOCK
 62
     0
 10
-0.168275
 20
-0.70485
 30
0.0
  0
VERTEX
  5
41B
  8
0
  6
BYBLOCK
 62
     0
 10
-0.2286
 20
-0.739775
 30
0.0
  0
VERTEX
  5
41C
  8
0
  6
BYBLOCK
 62
     0
 10
-0.295275
 20
-0.762
 30
0.0
  0
VERTEX
  5
41D
  8
0
  6
BYBLOCK
 62
     0
 10
-0.346075
 20
-0.771525
 30
0.0
  0
SEQEND
  5
484
  8
0
  6
BYBLOCK
 62
     0
  0
POLYLINE
  5
20B
  8
0
  6
BYBLOCK
 62
     0
 66
     1
 10
0.0
 20
0.0
 30
0.0
  0
VERTEX
  5
41E
  8
0
  6
BYBLOCK
 62
     0
 10
-0.0127
 20
0.0
 30
0.0
  0
VERTEX
  5
41F
  8
0
  6
BYBLOCK
 62
     0
 10
-0.0127
 20
0.098425
 30
0.0
  0
VERTEX
  5
420
  8
0
  6
BYBLOCK
 62
     0
 10
-0.0127
 20
0.1778
 30
0.0
  0
VERTEX
  5
421
  8
0
  6
BYBLOCK
 62
     0
 10
-0.0127
 20
0.2159
 30
0.0
  0
VERTEX
  5
422
  8
0
  6
BYBLOCK
 62
     0
 10
-0.01905
 20
0.276225
 30
0.0
  0
VERTEX
  5
423
  8
0
  6
BYBLOCK
 62
     0
 10
-0.028575
 20
0.327025
 30
0.0
  0
VERTEX
  5
424
  8
0
  6
BYBLOCK
 62
     0
 10
-0.053975
 20
0.3556
 30
0.0
  0
VERTEX
  5
425
  8
0
  6
BYBLOCK
 62
     0
 10
-0.028575
 20
0.3683
 30
0.0
  0
VERTEX
  5
426
  8
0
  6
BYBLOCK
 62
     0
 10
-0.0127
 20
0.381
 30
0.0
  0
VERTEX
  5
427
  8
0
  6
BYBLOCK
 62
     0
 10
-0.015875
 20
0.3937
 30
0.0
  0
VERTEX
  5
428
  8
0
  6
BYBLOCK
 62
     0
 10
-0.028575
 20
0.41275
 30
0.0
  0
VERTEX
  5
429
  8
0
  6
BYBLOCK
 62
     0
 10
-0.06985
 20
0.422275
 30
0.0
  0
VERTEX
  5
42A
  8
0
  6
BYBLOCK
 62
     0
 10
-0.104775
 20
0.42545
 30
0.0
  0
VERTEX
  5
42B
  8
0
  6
BYBLOCK
 62
     0
 10
-0.1143
 20
0.41275
 30
0.0
  0
VERTEX
  5
42C
  8
0
  6
BYBLOCK
 62
     0
 10
-0.117475
 20
0.40005
 30
0.0
  0
SEQEND
  5
485
  8
0
  6
BYBLOCK
 62
     0
  0
POLYLINE
  5
21C
  8
0
  6
BYBLOCK
 62
     0
 66
     1
 10
0.0
 20
0.0
 30
0.0
  0
VERTEX
  5
42D
  8
0
  6
BYBLOCK
 62
     0
 10
-0.0381
 20
0.0
 30
0.0
  0
VERTEX
  5
42E
  8
0
  6
BYBLOCK
 62
     0
 10
-0.0381
 20
0.098425
 30
0.0
  0
VERTEX
  5
42F
  8
0
  6
BYBLOCK
 62
     0
 10
-0.0381
 20
0.174625
 30
0.0
  0
VERTEX
  5
430
  8
0
  6
BYBLOCK
 62
     0
 10
-0.034925
 20
0.20955
 30
0.0
  0
VERTEX
  5
431
  8
0
  6
BYBLOCK
 62
     0
 10
-0.041275
 20
0.250825
 30
0.0
  0
VERTEX
  5
432
  8
0
  6
BYBLOCK
 62
     0
 10
-0.0508
 20
0.28575
 30
0.0
  0
VERTEX
  5
433
  8
0
  6
BYBLOCK
 62
     0
 10
-0.05715
 20
0.32385
 30
0.0
  0
VERTEX
  5
434
  8
0
  6
BYBLOCK
 62
     0
 10
-0.073025
 20
0.33655
 30
0.0
  0
SEQEND
  5
486
  8
0
  6
BYBLOCK
 62
     0
  0
POLYLINE
  5
226
  8
0
  6
BYBLOCK
 62
     0
 66
     1
 10
0.0
 20
0.0
 30
0.0
  0
VERTEX
  5
435
  8
0
  6
BYBLOCK
 62
     0
 10
-0.060325
 20
0.0
 30
0.0
  0
VERTEX
  5
436
  8
0
  6
BYBLOCK
 62
     0
 10
-0.060325
 20
0.0889
 30
0.0
  0
VERTEX
  5
437
  8
0
  6
BYBLOCK
 62
     0
 10
-0.0635
 20
0.15875
 30
0.0
  0
VERTEX
  5
438
  8
0
  6
BYBLOCK
 62
     0
 10
-0.066675
 20
0.24765
 30
0.0
  0
VERTEX
  5
439
  8
0
  6
BYBLOCK
 62
     0
 10
-0.0762
 20
0.295275
 30
0.0
  0
VERTEX
  5
43A
  8
0
  6
BYBLOCK
 62
     0
 10
-0.092075
 20
0.346075
 30
0.0
  0
VERTEX
  5
43B
  8
0
  6
BYBLOCK
 62
     0
 10
-0.12065
 20
0.377825
 30
0.0
  0
VERTEX
  5
43C
  8
0
  6
BYBLOCK
 62
     0
 10
-0.1778
 20
0.396875
 30
0.0
  0
VERTEX
  5
43D
  8
0
  6
BYBLOCK
 62
     0
 10
-0.200025
 20
0.41275
 30
0.0
  0
VERTEX
  5
43E
  8
0
  6
BYBLOCK
 62
     0
 10
-0.2032
 20
0.4318
 30
0.0
  0
VERTEX
  5
43F
  8
0
  6
BYBLOCK
 62
     0
 10
-0.17145
 20
0.45085
 30
0.0
  0
VERTEX
  5
440
  8
0
  6
BYBLOCK
 62
     0
 10
-0.149225
 20
0.466725
 30
0.0
  0
VERTEX
  5
441
  8
0
  6
BYBLOCK
 62
     0
 10
-0.12065
 20
0.479425
 30
0.0
  0
VERTEX
  5
442
  8
0
  6
BYBLOCK
 62
     0
 10
-0.104775
 20
0.5746749999999999
 30
0.0
  0
VERTEX
  5
443
  8
0
  6
BYBLOCK
 62
     0
 10
-0.117475
 20
0.66675
 30
0.0
  0
VERTEX
  5
444
  8
0
  6
BYBLOCK
 62
     0
 10
-0.14605
 20
0.6858
 30
0.0
  0
VERTEX
  5
445
  8
0
  6
BYBLOCK
 62
     0
 10
-0.168275
 20
0.70485
 30
0.0
  0
VERTEX
  5
446
  8
0
  6
BYBLOCK
 62
     0
 10
-0.2286
 20
0.739775
 30
0.0
  0
VERTEX
  5
447
  8
0
  6
BYBLOCK
 62
     0
 10
-0.295275
 20
0.762
 30
0.0
  0
VERTEX
  5
448
  8
0
  6
BYBLOCK
 62
     0
 10
-0.346075
 20
0.771525
 30
0.0
  0
SEQEND
  5
487
  8
0
  6
BYBLOCK
 62
     0
  0
POLYLINE
  5
23C
  8
0
  6
BYBLOCK
 62
     0
 66
     1
 10
0.0
 20
0.0
 30
0.0
  0
VERTEX
  5
449
  8
0
  6
BYBLOCK
 62
     0
 10
-0.0381
 20
0.0
 30
0.0
  0
VERTEX
  5
44A
  8
0
  6
BYBLOCK
 62
     0
 10
-0.0381
 20
-0.098425
 30
0.0
  0
VERTEX
  5
44B
  8
0
  6
BYBLOCK
 62
     0
 10
-0.0381
 20
-0.174625
 30
0.0
  0
VERTEX
  5
44C
  8
0
  6
BYBLOCK
 62
     0
 10
-0.034925
 20
-0.20955
 30
0.0
  0
VERTEX
  5
44D
  8
0
  6
BYBLOCK
 62
     0
 10
-0.041275
 20
-0.250825
 30
0.0
  0
VERTEX
  5
44E
  8
0
  6
BYBLOCK
 62
     0
 10
-0.0508
 20
-0.28575
 30
0.0
  0
VERTEX
  5
44F
  8
0
  6
BYBLOCK
 62
     0
 10
-0.05715
 20
-0.32385
 30
0.0
  0
VERTEX
  5
450
  8
0
  6
BYBLOCK
 62
     0
 10
-0.073025
 20
-0.33655
 30
0.0
  0
SEQEND
  5
488
  8
0
  6
BYBLOCK
 62
     0
  0
POLYLINE
  5
246
  8
0
  6
BYBLOCK
 62
     0
 66
     1
 10
0.0
 20
0.0
 30
0.0
  0
VERTEX
  5
451
  8
0
  6
BYBLOCK
 62
     0
 10
-0.0127
 20
0.0
 30
0.0
  0
VERTEX
  5
452
  8
0
  6
BYBLOCK
 62
     0
 10
-0.0127
 20
-0.098425
 30
0.0
  0
VERTEX
  5
453
  8
0
  6
BYBLOCK
 62
     0
 10
-0.0127
 20
-0.1778
 30
0.0
  0
VERTEX
  5
454
  8
0
  6
BYBLOCK
 62
     0
 10
-0.0127
 20
-0.2159
 30
0.0
  0
VERTEX
  5
455
  8
0
  6
BYBLOCK
 62
     0
 10
-0.01905
 20
-0.276225
 30
0.0
  0
VERTEX
  5
456
  8
0
  6
BYBLOCK
 62
     0
 10
-0.028575
 20
-0.327025
 30
0.0
  0
VERTEX
  5
457
  8
0
  6
BYBLOCK
 62
     0
 10
-0.053975
 20
-0.3556
 30
0.0
  0
VERTEX
  5
458
  8
0
  6
BYBLOCK
 62
     0
 10
-0.028575
 20
-0.3683
 30
0.0
  0
VERTEX
  5
459
  8
0
  6
BYBLOCK
 62
     0
 10
-0.0127
 20
-0.381
 30
0.0
  0
VERTEX
  5
45A
  8
0
  6
BYBLOCK
 62
     0
 10
-0.015875
 20
-0.3937
 30
0.0
  0
VERTEX
  5
45B
  8
0
  6
BYBLOCK
 62
     0
 10
-0.028575
 20
-0.41275
 30
0.0
  0
VERTEX
  5
45C
  8
0
  6
BYBLOCK
 62
     0
 10
-0.06985
 20
-0.422275
 30
0.0
  0
VERTEX
  5
45D
  8
0
  6
BYBLOCK
 62
     0
 10
-0.104775
 20
-0.42545
 30
0.0
  0
VERTEX
  5
45E
  8
0
  6
BYBLOCK
 62
     0
 10
-0.1143
 20
-0.41275
 30
0.0
  0
VERTEX
  5
45F
  8
0
  6
BYBLOCK
 62
     0
 10
-0.117475
 20
-0.40005
 30
0.0
  0
SEQEND
  5
489
  8
0
  6
BYBLOCK
 62
     0
  0
LINE
  5
257
  8
0
  6
BYBLOCK
 62
     0
 10
-0.1778
 20
-0.396875
 30
0.0
 11
-0.0635
 21
-0.396875
 31
0.0
  0
LINE
  5
258
  8
0
  6
BYBLOCK
 62
     0
 10
-0.060325
 20
-0.3175
 30
0.0
 11
-0.06985
 21
-0.301625
 31
0.0
  0
LINE
  5
259
  8
0
  6
BYBLOCK
 62
     0
 10
-0.0635
 20
-0.381
 30
0.0
 11
-0.127
 21
-0.381
 31
0.0
  0
LINE
  5
25A
  8
0
  6
BYBLOCK
 62
     0
 10
-0.0635
 20
-0.396875
 30
0.0
 11
-0.0635
 21
-0.381
 31
0.0
  0
LINE
  5
25B
  8
0
  6
BYBLOCK
 62
     0
 10
-0.149225
 20
0.67945
 30
0.0
 11
-0.149225
 21
0.47625
 31
0.0
  0
LINE
  5
25C
  8
0
  6
BYBLOCK
 62
     0
 10
-0.060325
 20
0.3175
 30
0.0
 11
-0.06985
 21
0.301625
 31
0.0
  0
LINE
  5
25D
  8
0
  6
BYBLOCK
 62
     0
 10
-0.1778
 20
0.396875
 30
0.0
 11
-0.0635
 21
0.396875
 31
0.0
  0
LINE
  5
25E
  8
0
  6
BYBLOCK
 62
     0
 10
-0.0635
 20
0.396875
 30
0.0
 11
-0.0635
 21
0.381
 31
0.0
  0
LINE
  5
25F
  8
0
  6
BYBLOCK
 62
     0
 10
-0.0635
 20
0.381
 30
0.0
 11
-0.127
 21
0.381
 31
0.0
  0
LINE
  5
260
  8
0
  6
BYBLOCK
 62
     0
 10
-0.123825
 20
0.6604
 30
0.0
 11
-0.123825
 21
0.492125
 31
0.0
  0
POLYLINE
  5
266
  8
_KTI_CONTROL
 10
0.0
 20
0.0
 30
0.0
 66
     1
 70
     8
1001
_KTI_ARCHT
1070
 12000
1000
ENVIRONMENT
1070
 10003
1000
02pcar11
1070
 20000
1000
standard
1070
 20001
1000
c:\program files\ketiv\archt
1070
 20003
1000
d:\archt
1070
 20002
1000
c:\program files\ketiv\archt\tmp
1070
 20004
1002
{
1000
c:\program files\ketiv\archt\blks
1000
c:\program files\ketiv\archt\blks3d
1000
e:\archt\blks
1000
e:\archt\blks3d
1000
d:\archt\blks
1000
d:\archt\blks3d
1002
}
1070
 20005
1002
{
1000
c:\program files\ketiv\archt\slds
1002
}
1070
 20006
1002
{
1000
c:\program files\ketiv\archt\dclswin
1002
}
1070
 20007
1002
{
1000
c:\program files\ketiv\archt\docs
1000
e:\archt\docs
1000
d:\archt\docs
1002
}
1070
 20008
1002
{
1000
c:\program files\ketiv\archt\help
1002
}
  0
VERTEX
  5
267
  8
_KTI_CONTROL
 10
0.0
 20
0.0
 30
0.0
 70
    32
  0
VERTEX
  5
268
  8
_KTI_CONTROL
 10
0.0
 20
0.0
 30
0.0
 70
    32
  0
SEQEND
  5
269
  8
_KTI_CONTROL
  0
POLYLINE
  5
26A
  8
_KTI_CONTROL
 10
0.0
 20
0.0
 30
0.0
 66
     1
 70
     8
1001
_KTI_ARCHT
1070
 12000
1000
ARCHTVARS
1070
 10003
1000
02pcar11
1070
 12030
1000
m
1070
 12020
1070
     1
1070
 12021
1070
     0
1070
 12070
1070
     0
1070
 12071
1070
     1
1070
 12907
1070
     0
1070
 12913
1070
     1
1070
 12914
1070
     1
1070
 12072
1070
     2
1070
 12073
1070
    48
1070
 12074
1070
     0
1070
 12080
1070
     1
1070
 12092
1070
     1
1070
 12096
1070
     0
1070
 12095
1070
     0
1070
 12081
1070
     1
1070
 12082
1070
     1
1070
 12083
1070
     1
1070
 12084
1070
     1
1070
 12085
1070
     0
1070
 12086
1070
     1
1070
 12087
1070
     0
1070
 12088
1070
     0
1070
 12097
1070
     1
1070
 12089
1070
     4
1070
 12090
1070
     6
1070
 12091
1070
     1
1070
 12045
1000

1070
 12046
1000

1070
 12047
1000
standard
1070
 12048
1000

1070
 12049
1000

1070
 12093
1070
     1
1070
 12094
1070
     1
1070
 12908
1070
     0
1070
 12909
1070
     0
1070
 12911
1070
     0
1070
 12910
1070
     0
1070
 12912
1070
     0
1070
 12098
1070
   800
1070
 12060
1002
{
1000

1000

1000

1000

1002
}
1070
 12904
1002
{
1070
     0
1070
     0
1070
     0
1070
     0
1070
     0
1002
}
1070
 12905
1002
{
1040
0.0
1040
0.0
1040
0.0
1040
0.0
1040
0.0
1002
}
1070
 12906
1002
{
1000

1000

1000

1000

1000

1002
}
1070
 12040
1002
{
1002
}
  0
VERTEX
  5
26B
  8
_KTI_CONTROL
 10
0.0
 20
0.0
 30
0.0
 70
    32
  0
VERTEX
  5
26C
  8
_KTI_CONTROL
 10
0.0
 20
0.0
 30
0.0
 70
    32
  0
SEQEND
  5
26D
  8
_KTI_CONTROL
  0
ENDSEC
  0
EOF
