  0
SECTION
  2
HEADER
  9
$ACADVER
  1
AC1009
  9
$DWGCODEPAGE
  3
ansi_1252
  9
$INSBASE
 10
0.0
 20
0.0
 30
0.0
  9
$EXTMIN
 10
-3.97149817327545
 20
-0.8670788258779112
 30
-0.0015258207003583
  9
$EXTMAX
 10
0.0500491053876431
 20
0.8426794625654566
 30
0.0000000349246037
  9
$LIMMIN
 10
0.0
 20
0.0
  9
$LIMMAX
 10
480.0
 20
360.0
  9
$ORTHOMODE
 70
     0
  9
$REGENMODE
 70
     1
  9
$FILLMODE
 70
     1
  9
$QTEXTMODE
 70
     0
  9
$MIRRTEXT
 70
     1
  9
$DRAGMODE
 70
     2
  9
$LTSCALE
 40
1.0
  9
$OSMODE
 70
    37
  9
$ATTMODE
 70
     1
  9
$TEXTSIZE
 40
4.0
  9
$TRACEWID
 40
0.05
  9
$TEXTSTYLE
  7
STANDARD
  9
$CLAYER
  8
0
  9
$CELTYPE
  6
BYLAYER
  9
$CECOLOR
 62
   256
  9
$DIMSCALE
 40
1.0
  9
$DIMASZ
 40
0.18
  9
$DIMEXO
 40
0.0625
  9
$DIMDLI
 40
0.38
  9
$DIMRND
 40
0.0
  9
$DIMDLE
 40
0.0
  9
$DIMEXE
 40
0.18
  9
$DIMTP
 40
0.0
  9
$DIMTM
 40
0.0
  9
$DIMTXT
 40
0.18
  9
$DIMCEN
 40
0.09
  9
$DIMTSZ
 40
0.0
  9
$DIMTOL
 70
     0
  9
$DIMLIM
 70
     0
  9
$DIMTIH
 70
     1
  9
$DIMTOH
 70
     1
  9
$DIMSE1
 70
     0
  9
$DIMSE2
 70
     0
  9
$DIMTAD
 70
     0
  9
$DIMZIN
 70
     0
  9
$DIMBLK
  1

  9
$DIMASO
 70
     1
  9
$DIMSHO
 70
     0
  9
$DIMPOST
  1

  9
$DIMAPOST
  1

  9
$DIMALT
 70
     0
  9
$DIMALTD
 70
     2
  9
$DIMALTF
 40
25.4
  9
$DIMLFAC
 40
1.0
  9
$DIMTOFL
 70
     0
  9
$DIMTVP
 40
0.0
  9
$DIMTIX
 70
     0
  9
$DIMSOXD
 70
     0
  9
$DIMSAH
 70
     0
  9
$DIMBLK1
  1

  9
$DIMBLK2
  1

  9
$DIMSTYLE
  2
STANDARD
  9
$DIMCLRD
 70
     0
  9
$DIMCLRE
 70
     0
  9
$DIMCLRT
 70
     0
  9
$DIMTFAC
 40
1.0
  9
$DIMGAP
 40
0.09
  9
$LUNITS
 70
     2
  9
$LUPREC
 70
     4
  9
$SKETCHINC
 40
0.1
  9
$FILLETRAD
 40
0.0
  9
$AUNITS
 70
     0
  9
$AUPREC
 70
     3
  9
$MENU
  1
acad
  9
$ELEVATION
 40
0.0
  9
$PELEVATION
 40
0.0
  9
$THICKNESS
 40
0.0
  9
$LIMCHECK
 70
     0
  9
$CHAMFERA
 40
0.0
  9
$CHAMFERB
 40
0.0
  9
$SKPOLY
 70
     0
  9
$TDCREATE
 40
2450066.255591088
  9
$TDUPDATE
 40
2458028.720659722
  9
$TDINDWG
 40
0.2357924769
  9
$TDUSRTIMER
 40
0.2357924769
  9
$USRTIMER
 70
     1
  9
$ANGBASE
 50
0.0
  9
$ANGDIR
 70
     0
  9
$PDMODE
 70
     0
  9
$PDSIZE
 40
0.0
  9
$PLINEWID
 40
0.0
  9
$COORDS
 70
     1
  9
$SPLFRAME
 70
     1
  9
$SPLINETYPE
 70
     6
  9
$SPLINESEGS
 70
     8
  9
$ATTDIA
 70
     0
  9
$ATTREQ
 70
     1
  9
$HANDLING
 70
     1
  9
$HANDSEED
  5
21F
  9
$SURFTAB1
 70
     5
  9
$SURFTAB2
 70
     2
  9
$SURFTYPE
 70
     6
  9
$SURFU
 70
     6
  9
$SURFV
 70
     6
  9
$UCSNAME
  2

  9
$UCSORG
 10
0.0
 20
0.0
 30
0.0
  9
$UCSXDIR
 10
1.0
 20
0.0
 30
0.0
  9
$UCSYDIR
 10
0.0
 20
1.0
 30
0.0
  9
$PUCSNAME
  2

  9
$PUCSORG
 10
0.0
 20
0.0
 30
0.0
  9
$PUCSXDIR
 10
1.0
 20
0.0
 30
0.0
  9
$PUCSYDIR
 10
0.0
 20
1.0
 30
0.0
  9
$USERI1
 70
     0
  9
$USERI2
 70
     0
  9
$USERI3
 70
     0
  9
$USERI4
 70
     0
  9
$USERI5
 70
     0
  9
$USERR1
 40
0.0
  9
$USERR2
 40
0.0
  9
$USERR3
 40
0.0
  9
$USERR4
 40
0.0
  9
$USERR5
 40
0.0
  9
$WORLDVIEW
 70
     1
  9
$SHADEDGE
 70
     1
  9
$SHADEDIF
 70
    70
  9
$TILEMODE
 70
     1
  9
$MAXACTVP
 70
    16
  9
$PLIMCHECK
 70
     0
  9
$PEXTMIN
 10
1.000000000000000E+20
 20
1.000000000000000E+20
 30
1.000000000000000E+20
  9
$PEXTMAX
 10
-1.000000000000000E+20
 20
-1.000000000000000E+20
 30
-1.000000000000000E+20
  9
$PLIMMIN
 10
0.0
 20
0.0
  9
$PLIMMAX
 10
12.0
 20
9.0
  9
$UNITMODE
 70
     0
  9
$VISRETAIN
 70
     0
  9
$PLINEGEN
 70
     0
  9
$PSLTSCALE
 70
     0
  0
ENDSEC
  0
SECTION
  2
TABLES
  0
TABLE
  2
VPORT
 70
     1
  0
VPORT
  2
*ACTIVE
 70
     0
 10
0.0
 20
0.0
 11
1.0
 21
1.0
 12
-1.960724533943903
 22
-0.0121996816562273
 13
0.0
 23
0.0
 14
0.0625
 24
0.0625
 15
60.0
 25
60.0
 16
0.0
 26
0.0
 36
1.0
 17
0.0
 27
0.0
 37
0.0
 40
2.883369899935547
 41
1.56198347107438
 42
50.0
 43
0.0
 44
0.0
 50
0.0
 51
0.0
 71
     8
 72
   100
 73
     1
 74
     0
 75
     1
 76
     0
 77
     0
 78
     0
  0
ENDTAB
  0
TABLE
  2
LTYPE
 70
     1
  0
LTYPE
  2
CONTINUOUS
 70
     0
  3
Solid line
 72
    65
 73
     0
 40
0.0
  0
ENDTAB
  0
TABLE
  2
LAYER
 70
     2
  0
LAYER
  2
0
 70
     0
 62
     7
  6
CONTINUOUS
  0
LAYER
  2
_KTI_CONTROL
 70
     5
 62
     7
  6
CONTINUOUS
  0
ENDTAB
  0
TABLE
  2
STYLE
 70
     1
  0
STYLE
  2
STANDARD
 70
     0
 40
0.0
 41
1.0
 50
0.0
 71
     0
 42
4.0
  3
txt
  4

  0
ENDTAB
  0
TABLE
  2
VIEW
 70
     0
  0
ENDTAB
  0
TABLE
  2
UCS
 70
     0
  0
ENDTAB
  0
TABLE
  2
APPID
 70
     2
  0
APPID
  2
ACAD
 70
     0
  0
APPID
  2
_KTI_ARCHT
 70
     0
  0
ENDTAB
  0
TABLE
  2
DIMSTYLE
 70
     1
  0
DIMSTYLE
  2
STANDARD
 70
     0
  3

  4

  5

  6

  7

 40
1.0
 41
0.18
 42
0.0625
 43
0.38
 44
0.18
 45
0.0
 46
0.0
 47
0.0
 48
0.0
140
0.18
141
0.09
142
0.0
143
25.4
144
1.0
145
0.0
146
1.0
147
0.09
 71
     0
 72
     0
 73
     1
 74
     1
 75
     0
 76
     0
 77
     0
 78
     0
170
     0
171
     2
172
     0
173
     0
174
     0
175
     0
176
     0
177
     0
178
     0
  0
ENDTAB
  0
ENDSEC
  0
SECTION
  2
BLOCKS
  0
BLOCK
  8
0
  2
$MODEL_SPACE
 70
     0
 10
0.0
 20
0.0
 30
0.0
  3
$MODEL_SPACE
  1

  0
ENDBLK
  5
21
  8
0
  0
BLOCK
 67
     1
  8
0
  2
$PAPER_SPACE
 70
     0
 10
0.0
 20
0.0
 30
0.0
  3
$PAPER_SPACE
  1

  0
ENDBLK
  5
1F
 67
     1
  8
0
  0
ENDSEC
  0
SECTION
  2
ENTITIES
  0
LINE
  5
24
  8
0
  6
BYBLOCK
 62
     0
 10
-0.1443998990560308
 20
-0.8422772843558364
 30
0.0
 11
-3.708322866127115
 21
-0.8422772843558364
 31
0.0
  0
LINE
  5
25
  8
0
  6
BYBLOCK
 62
     0
 10
-0.1443998990560308
 20
0.8404948673160824
 30
0.0
 11
-3.708322866127113
 21
0.8404948673160824
 31
0.0
  0
LINE
  5
26
  8
0
  6
BYBLOCK
 62
     0
 10
0.0155952513358464
 20
0.6662498531702885
 30
0.0
 11
0.0053391356703422
 21
0.7523474114983137
 31
0.0
  0
LINE
  5
27
  8
0
  6
BYBLOCK
 62
     0
 10
-0.0151730448626686
 20
0.8035959331106565
 30
0.0
 11
-0.0561974567266876
 21
0.830245176548223
 31
0.0
  0
LINE
  5
28
  8
0
  6
BYBLOCK
 62
     0
 10
0.0053391356703422
 20
0.7523474114983137
 30
0.0
 11
-0.0151730448626686
 21
0.8035959331106565
 31
0.0
  0
LINE
  5
29
  8
0
  6
BYBLOCK
 62
     0
 10
-0.0561974567266876
 20
0.830245176548223
 30
0.0
 11
-0.1443998990560308
 21
0.8404948673160824
 31
0.0
  0
LINE
  5
2A
  8
0
  6
BYBLOCK
 62
     0
 10
-0.005837639836891
 20
-0.0184294470790368
 30
0.0
 11
-0.0254291605281727
 21
-0.0837990153924608
 31
0.0
  0
LINE
  5
2B
  8
0
  6
BYBLOCK
 62
     0
 10
-0.0890169760583033
 20
0.2849607873123339
 30
0.0
 11
-0.0787608603927992
 21
0.3731082770166261
 31
0.0
  0
LINE
  5
2C
  8
0
  6
BYBLOCK
 62
     0
 10
-0.0356852253956795
 20
0.4961047356635531
 30
0.0
 11
0.0053391356703422
 21
0.6027016755272963
 31
0.0
  0
LINE
  5
2D
  8
0
  6
BYBLOCK
 62
     0
 10
0.0053391356703422
 20
0.6027016755272963
 30
0.0
 11
0.0155952513358464
 21
0.6662498531702885
 31
0.0
  0
LINE
  5
2E
  8
0
  6
BYBLOCK
 62
     0
 10
-0.0787608603927992
 20
0.3731082770166261
 30
0.0
 11
-0.0356852253956795
 21
0.4961047356635531
 31
0.0
  0
LINE
  5
2F
  8
0
  6
BYBLOCK
 62
     0
 10
-0.0254291605281727
 20
0.0820165983527064
 30
0.0
 11
-0.070555967860396
 21
0.1742639508095329
 31
0.0
  0
LINE
  5
30
  8
0
  6
BYBLOCK
 62
     0
 10
-0.070555967860396
 20
0.1742639508095329
 30
0.0
 11
-0.0890169760583033
 21
0.2849607873123339
 31
0.0
  0
LINE
  5
31
  8
0
  6
BYBLOCK
 62
     0
 10
-0.0042270329196177
 20
-0.0008912085198772
 30
0.0
 11
-0.005837639836891
 21
-0.0184294470790368
 31
0.0
  0
LINE
  5
32
  8
0
  6
BYBLOCK
 62
     0
 10
-0.005837639836891
 20
0.0166470300392824
 30
0.0
 11
-0.0254291605281727
 21
0.0820165983527064
 31
0.0
  0
LINE
  5
33
  8
0
  6
BYBLOCK
 62
     0
 10
-0.0042270329196177
 20
-0.0008912085198772
 30
0.0
 11
-0.005837639836891
 21
0.0166470300392824
 31
0.0
  0
LINE
  5
34
  8
0
  6
BYBLOCK
 62
     0
 10
-0.0787608603927992
 20
-0.3748906940563804
 30
0.0
 11
-0.0356852253956795
 21
-0.4978871527033074
 31
0.0
  0
LINE
  5
35
  8
0
  6
BYBLOCK
 62
     0
 10
-0.070555967860396
 20
-0.1760463678492872
 30
0.0
 11
-0.0890169760583033
 21
-0.2867432043520879
 31
0.0
  0
LINE
  5
36
  8
0
  6
BYBLOCK
 62
     0
 10
-0.0254291605281727
 20
-0.0837990153924608
 30
0.0
 11
-0.070555967860396
 21
-0.1760463678492872
 31
0.0
  0
LINE
  5
37
  8
0
  6
BYBLOCK
 62
     0
 10
-0.0890169760583033
 20
-0.2867432043520879
 30
0.0
 11
-0.0787608603927992
 21
-0.3748906940563804
 31
0.0
  0
LINE
  5
38
  8
0
  6
BYBLOCK
 62
     0
 10
0.0053391356703422
 20
-0.604484092567051
 30
0.0
 11
0.0155952513358464
 21
-0.6680322702100429
 31
0.0
  0
LINE
  5
39
  8
0
  6
BYBLOCK
 62
     0
 10
-0.0356852253956795
 20
-0.4978871527033074
 30
0.0
 11
0.0053391356703422
 21
-0.604484092567051
 31
0.0
  0
LINE
  5
3A
  8
0
  6
BYBLOCK
 62
     0
 10
-0.0151730448626686
 20
-0.8053783501504108
 30
0.0
 11
-0.0561974567266876
 21
-0.8320275935879777
 31
0.0
  0
LINE
  5
3B
  8
0
  6
BYBLOCK
 62
     0
 10
0.0155952513358464
 20
-0.6680322702100429
 30
0.0
 11
0.0053391356703422
 21
-0.7541298285380681
 31
0.0
  0
LINE
  5
3C
  8
0
  6
BYBLOCK
 62
     0
 10
0.0053391356703422
 20
-0.7541298285380681
 30
0.0
 11
-0.0151730448626686
 21
-0.8053783501504108
 31
0.0
  0
LINE
  5
3D
  8
0
  6
BYBLOCK
 62
     0
 10
-0.0561974567266876
 20
-0.8320275935879777
 30
0.0
 11
-0.1443998990560308
 21
-0.8422772843558364
 31
0.0
  0
LINE
  5
3E
  8
0
  6
BYBLOCK
 62
     0
 10
-2.675045285935831
 20
0.7500984645672347
 30
0.0
 11
-2.675045285935831
 21
0.6604393628083041
 31
0.0
  0
LINE
  5
3F
  8
0
  6
BYBLOCK
 62
     0
 10
-3.865406492238338
 20
0.728257413891097
 30
0.0
 11
-3.876714380439029
 21
0.6849374917061699
 31
0.0
  0
LINE
  5
40
  8
0
  6
BYBLOCK
 62
     0
 10
-3.83525208983783
 20
0.7678103745341959
 30
0.0
 11
-3.865406492238338
 21
0.728257413891097
 31
0.0
  0
LINE
  5
41
  8
0
  6
BYBLOCK
 62
     0
 10
-2.687053881712005
 20
0.8049606789738459
 30
0.0
 11
-2.675045285935831
 21
0.7500984645672347
 31
0.0
  0
LINE
  5
42
  8
0
  6
BYBLOCK
 62
     0
 10
-2.70249352662337
 20
0.8203907043085059
 30
0.0
 11
-2.687053881712005
 21
0.8049606789738459
 31
0.0
  0
LINE
  5
43
  8
0
  6
BYBLOCK
 62
     0
 10
-2.737911141263536
 20
0.8404948673160824
 30
0.0
 11
-2.70249352662337
 21
0.8203907043085059
 31
0.0
  0
LINE
  5
44
  8
0
  6
BYBLOCK
 62
     0
 10
-3.708322866127113
 20
0.8404948673160824
 30
0.0
 11
-3.786251224035503
 21
0.8054798544063808
 31
0.0
  0
LINE
  5
45
  8
0
  6
BYBLOCK
 62
     0
 10
-3.786251224035503
 20
0.8054798544063808
 30
0.0
 11
-3.83525208983783
 21
0.7678103745341959
 31
0.0
  0
LINE
  5
46
  8
0
  6
BYBLOCK
 62
     0
 10
-3.83525208983783
 20
-0.7695927915739506
 30
0.0
 11
-3.865406492238338
 21
-0.7300398309308513
 31
0.0
  0
LINE
  5
47
  8
0
  6
BYBLOCK
 62
     0
 10
-2.675045285935831
 20
-0.7518808816069891
 30
0.0
 11
-2.675045285935831
 21
-0.6604393628083041
 31
0.0
  0
LINE
  5
48
  8
0
  6
BYBLOCK
 62
     0
 10
-2.70249352662337
 20
-0.8221731213482607
 30
0.0
 11
-2.687053881712005
 21
-0.8067430960136
 31
0.0
  0
LINE
  5
49
  8
0
  6
BYBLOCK
 62
     0
 10
-2.737911141263536
 20
-0.8422772843558364
 30
0.0
 11
-2.70249352662337
 21
-0.8221731213482607
 31
0.0
  0
LINE
  5
4A
  8
0
  6
BYBLOCK
 62
     0
 10
-2.687053881712005
 20
-0.8067430960136
 30
0.0
 11
-2.675045285935831
 21
-0.7518808816069891
 31
0.0
  0
LINE
  5
4B
  8
0
  6
BYBLOCK
 62
     0
 10
-3.708322866127115
 20
-0.8422772843558364
 30
0.0
 11
-3.786251224035503
 21
-0.8072622714461359
 31
0.0
  0
LINE
  5
4C
  8
0
  6
BYBLOCK
 62
     0
 10
-3.786251224035503
 20
-0.8072622714461359
 30
0.0
 11
-3.83525208983783
 21
-0.7695927915739506
 31
0.0
  0
LINE
  5
4D
  8
0
  6
BYBLOCK
 62
     0
 10
-3.938907790941829
 20
-0.1913662619813017
 30
0.0
 11
-3.938907790941829
 21
-0.0008912085198772
 31
0.0
  0
LINE
  5
4E
  8
0
  6
BYBLOCK
 62
     0
 10
-3.918176671040229
 20
0.3892320950414323
 30
0.0
 11
-3.938907790941829
 21
0.189583844941547
 31
0.0
  0
LINE
  5
4F
  8
0
  6
BYBLOCK
 62
     0
 10
-3.889906925139502
 20
0.52295872147847
 30
0.0
 11
-3.918176671040229
 21
0.3892320950414323
 31
0.0
  0
LINE
  5
50
  8
0
  6
BYBLOCK
 62
     0
 10
-3.855983260537428
 20
0.5832299028285752
 30
0.0
 11
-3.889906925139502
 21
0.52295872147847
 31
0.0
  0
LINE
  5
51
  8
0
  6
BYBLOCK
 62
     0
 10
-3.871060461737683
 20
0.6340837142106344
 30
0.0
 11
-3.855983260537428
 21
0.5832299028285752
 31
0.0
  0
LINE
  5
52
  8
0
  6
BYBLOCK
 62
     0
 10
-3.876714380439029
 20
0.6849374917061699
 30
0.0
 11
-3.871060461737683
 21
0.6340837142106344
 31
0.0
  0
LINE
  5
53
  8
0
  6
BYBLOCK
 62
     0
 10
-3.938907790941829
 20
0.189583844941547
 30
0.0
 11
-3.938907790941829
 21
-0.0008912085198772
 31
0.0
  0
LINE
  5
54
  8
0
  6
BYBLOCK
 62
     0
 10
-3.889906925139502
 20
-0.5247411385182243
 30
0.0
 11
-3.918176671040229
 21
-0.3910145120811866
 31
0.0
  0
LINE
  5
55
  8
0
  6
BYBLOCK
 62
     0
 10
-3.918176671040229
 20
-0.3910145120811866
 30
0.0
 11
-3.938907790941829
 21
-0.1913662619813017
 31
0.0
  0
LINE
  5
56
  8
0
  6
BYBLOCK
 62
     0
 10
-3.876714380439029
 20
-0.6867199087459243
 30
0.0
 11
-3.871060461737683
 21
-0.6358661312503887
 31
0.0
  0
LINE
  5
57
  8
0
  6
BYBLOCK
 62
     0
 10
-3.871060461737683
 20
-0.6358661312503887
 30
0.0
 11
-3.855983260537428
 21
-0.5850123198683292
 31
0.0
  0
LINE
  5
58
  8
0
  6
BYBLOCK
 62
     0
 10
-3.855983260537428
 20
-0.5850123198683292
 30
0.0
 11
-3.889906925139502
 21
-0.5247411385182243
 31
0.0
  0
LINE
  5
59
  8
0
  6
BYBLOCK
 62
     0
 10
-3.865406492238338
 20
-0.7300398309308513
 30
0.0
 11
-3.876714380439029
 21
-0.6867199087459243
 31
0.0
  0
POLYLINE
  5
5A
  8
0
  6
BYBLOCK
 62
     0
 66
     1
 10
0.0
 20
0.0
 30
0.0
  0
VERTEX
  5
17D
  8
0
  6
BYBLOCK
 62
     0
 10
-0.24765
 20
0.0079375
 30
0.0
  0
VERTEX
  5
17E
  8
0
  6
BYBLOCK
 62
     0
 10
-0.34925
 20
0.2047875
 30
0.0
 42
-0.6837308045124078
  0
VERTEX
  5
17F
  8
0
  6
BYBLOCK
 62
     0
 10
-0.3254375
 20
0.231775
 30
0.0
 42
-0.1025558860650749
  0
VERTEX
  5
180
  8
0
  6
BYBLOCK
 62
     0
 10
-0.1031875
 20
0.0936625
 30
0.0
 42
-0.4289198313003345
  0
SEQEND
  5
20B
  8
0
  6
BYBLOCK
 62
     0
  0
POLYLINE
  5
60
  8
0
  6
BYBLOCK
 62
     0
 66
     1
 10
0.0
 20
0.0
 30
0.0
  0
VERTEX
  5
181
  8
0
  6
BYBLOCK
 62
     0
 10
-0.24765
 20
-0.0079375
 30
0.0
  0
VERTEX
  5
182
  8
0
  6
BYBLOCK
 62
     0
 10
-0.34925
 20
-0.2047875
 30
0.0
 42
0.6837308045124078
  0
VERTEX
  5
183
  8
0
  6
BYBLOCK
 62
     0
 10
-0.3254375
 20
-0.231775
 30
0.0
 42
0.1025558860650749
  0
VERTEX
  5
184
  8
0
  6
BYBLOCK
 62
     0
 10
-0.1031875
 20
-0.0936625
 30
0.0
 42
0.4289198313003345
  0
SEQEND
  5
20C
  8
0
  6
BYBLOCK
 62
     0
  0
POLYLINE
  5
66
  8
0
  6
BYBLOCK
 62
     0
 66
     1
 10
0.0
 20
0.0
 30
0.0
  0
VERTEX
  5
185
  8
0
  6
BYBLOCK
 62
     0
 10
-0.3000375
 20
0.1793875
 30
0.0
 42
-0.0667134653044351
  0
VERTEX
  5
186
  8
0
  6
BYBLOCK
 62
     0
 10
-0.1285875
 20
0.0841375
 30
0.0
 42
-0.196096474452761
  0
VERTEX
  5
187
  8
0
  6
BYBLOCK
 62
     0
 10
-0.0777875
 20
0.0
 30
0.0
 42
-0.0022677023019448
  0
SEQEND
  5
20D
  8
0
  6
BYBLOCK
 62
     0
  0
POLYLINE
  5
6B
  8
0
  6
BYBLOCK
 62
     0
 66
     1
 10
0.0
 20
0.0
 30
0.0
  0
VERTEX
  5
188
  8
0
  6
BYBLOCK
 62
     0
 10
-0.3302
 20
0.2333625
 30
0.0
  0
VERTEX
  5
189
  8
0
  6
BYBLOCK
 62
     0
 10
-1.362075
 20
0.5476875
 30
0.0
 42
0.0854952479805783
  0
VERTEX
  5
18A
  8
0
  6
BYBLOCK
 62
     0
 10
-2.397125
 20
0.6778624999999999
 30
0.0
  0
VERTEX
  5
18B
  8
0
  6
BYBLOCK
 62
     0
 10
-3.43535
 20
0.612775
 30
0.0
 42
0.3397448764871805
  0
VERTEX
  5
18C
  8
0
  6
BYBLOCK
 62
     0
 10
-3.622675
 20
0.4492625
 30
0.0
 42
0.0568334256486096
  0
VERTEX
  5
18D
  8
0
  6
BYBLOCK
 62
     0
 10
-3.660775
 20
0.0
 30
0.0
 42
2.583593614346328
  0
SEQEND
  5
20E
  8
0
  6
BYBLOCK
 62
     0
  0
POLYLINE
  5
73
  8
0
  6
BYBLOCK
 62
     0
 66
     1
 10
0.0
 20
0.0
 30
0.0
  0
VERTEX
  5
18E
  8
0
  6
BYBLOCK
 62
     0
 10
-0.3302
 20
-0.2333625
 30
0.0
  0
VERTEX
  5
18F
  8
0
  6
BYBLOCK
 62
     0
 10
-1.362075
 20
-0.5476875
 30
0.0
 42
-0.0854952479805783
  0
VERTEX
  5
190
  8
0
  6
BYBLOCK
 62
     0
 10
-2.397125
 20
-0.6778624999999999
 30
0.0
  0
VERTEX
  5
191
  8
0
  6
BYBLOCK
 62
     0
 10
-3.43535
 20
-0.612775
 30
0.0
 42
-0.3397448764871805
  0
VERTEX
  5
192
  8
0
  6
BYBLOCK
 62
     0
 10
-3.622675
 20
-0.4492625
 30
0.0
 42
-0.0568334256486096
  0
VERTEX
  5
193
  8
0
  6
BYBLOCK
 62
     0
 10
-3.660775
 20
0.0
 30
0.0
 42
-2.583593614346328
  0
SEQEND
  5
20F
  8
0
  6
BYBLOCK
 62
     0
  0
ARC
  5
7B
  8
0
  6
BYBLOCK
 62
     0
 10
-1.020211734693877
 20
-0.2337512755102041
 30
0.0
 40
0.8302617515861989
 50
16.80931586256657
 51
29.84138589938517
  0
POLYLINE
  5
7C
  8
0
  6
BYBLOCK
 62
     0
 66
     1
 10
0.0
 20
0.0
 30
0.0
 70
     1
  0
VERTEX
  5
194
  8
0
  6
BYBLOCK
 62
     0
 10
-0.4365625
 20
-0.3952875
 30
0.0
 42
0.182261915305499
  0
VERTEX
  5
195
  8
0
  6
BYBLOCK
 62
     0
 10
-0.4048125
 20
-0.454025
 30
0.0
 42
0.1821860933450972
  0
VERTEX
  5
196
  8
0
  6
BYBLOCK
 62
     0
 10
-0.288925
 20
-0.4968875
 30
0.0
 42
0.0733760231870365
  0
VERTEX
  5
197
  8
0
  6
BYBLOCK
 62
     0
 10
-0.2682875
 20
-0.4937125
 30
0.0
 42
0.2480363365016312
  0
VERTEX
  5
198
  8
0
  6
BYBLOCK
 62
     0
 10
-0.257175
 20
-0.4826
 30
0.0
  0
VERTEX
  5
199
  8
0
  6
BYBLOCK
 62
     0
 10
-0.257175
 20
-0.3952875
 30
0.0
  0
VERTEX
  5
19A
  8
0
  6
BYBLOCK
 62
     0
 10
-0.257175
 20
-0.307975
 30
0.0
 42
0.2480363365016312
  0
VERTEX
  5
19B
  8
0
  6
BYBLOCK
 62
     0
 10
-0.2682875
 20
-0.2968625
 30
0.0
 42
0.0733760231870365
  0
VERTEX
  5
19C
  8
0
  6
BYBLOCK
 62
     0
 10
-0.288925
 20
-0.2936875
 30
0.0
 42
0.1821860933450972
  0
VERTEX
  5
19D
  8
0
  6
BYBLOCK
 62
     0
 10
-0.4048125
 20
-0.33655
 30
0.0
 42
0.182261915305499
  0
SEQEND
  5
210
  8
0
  6
BYBLOCK
 62
     0
  0
ARC
  5
88
  8
0
  6
BYBLOCK
 62
     0
 10
-0.523875
 20
-0.3952875
 30
0.0
 40
0.2778125
 50
343.739795291688
 51
16.26020470831194
  0
LINE
  5
89
  8
0
  6
BYBLOCK
 62
     0
 10
-0.2905125
 20
-0.2936875
 30
0.0
 11
-0.2905125
 21
-0.4968875
 31
0.0
  0
POLYLINE
  5
8A
  8
0
  6
BYBLOCK
 62
     0
 66
     1
 10
0.0
 20
0.0
 30
0.0
 70
     1
  0
VERTEX
  5
19E
  8
0
  6
BYBLOCK
 62
     0
 10
-0.4365625
 20
0.3952875
 30
0.0
 42
-0.182261915305499
  0
VERTEX
  5
19F
  8
0
  6
BYBLOCK
 62
     0
 10
-0.4048125
 20
0.454025
 30
0.0
 42
-0.1821860933450972
  0
VERTEX
  5
1A0
  8
0
  6
BYBLOCK
 62
     0
 10
-0.288925
 20
0.4968875
 30
0.0
 42
-0.0733760231870365
  0
VERTEX
  5
1A1
  8
0
  6
BYBLOCK
 62
     0
 10
-0.2682875
 20
0.4937125
 30
0.0
 42
-0.2480363365016312
  0
VERTEX
  5
1A2
  8
0
  6
BYBLOCK
 62
     0
 10
-0.257175
 20
0.4826
 30
0.0
  0
VERTEX
  5
1A3
  8
0
  6
BYBLOCK
 62
     0
 10
-0.257175
 20
0.3952875
 30
0.0
  0
VERTEX
  5
1A4
  8
0
  6
BYBLOCK
 62
     0
 10
-0.257175
 20
0.307975
 30
0.0
 42
-0.2480363365016312
  0
VERTEX
  5
1A5
  8
0
  6
BYBLOCK
 62
     0
 10
-0.2682875
 20
0.2968625
 30
0.0
 42
-0.0733760231870365
  0
VERTEX
  5
1A6
  8
0
  6
BYBLOCK
 62
     0
 10
-0.288925
 20
0.2936875
 30
0.0
 42
-0.1821860933450972
  0
VERTEX
  5
1A7
  8
0
  6
BYBLOCK
 62
     0
 10
-0.4048125
 20
0.33655
 30
0.0
 42
-0.182261915305499
  0
SEQEND
  5
211
  8
0
  6
BYBLOCK
 62
     0
  0
LINE
  5
96
  8
0
  6
BYBLOCK
 62
     0
 10
-0.2905125
 20
0.2936875
 30
0.0
 11
-0.2905125
 21
0.4968875
 31
0.0
  0
ARC
  5
97
  8
0
  6
BYBLOCK
 62
     0
 10
-0.523875
 20
0.3952875
 30
0.0
 40
0.2778125
 50
343.739795291688
 51
16.26020470831197
  0
POLYLINE
  5
98
  8
0
  6
BYBLOCK
 62
     0
 66
     1
 10
0.0
 20
0.0
 30
0.0
  0
VERTEX
  5
1A8
  8
0
  6
BYBLOCK
 62
     0
 10
-0.1031875
 20
-0.0936625
 30
0.0
 42
0.1459464371677768
  0
VERTEX
  5
1A9
  8
0
  6
BYBLOCK
 62
     0
 10
-0.047625
 20
0.0
 30
0.0
 42
0.1234073350944576
  0
SEQEND
  5
212
  8
0
  6
BYBLOCK
 62
     0
  0
POLYLINE
  5
9C
  8
0
  6
BYBLOCK
 62
     0
 66
     1
 10
0.0
 20
0.0
 30
0.0
  0
VERTEX
  5
1AA
  8
0
  6
BYBLOCK
 62
     0
 10
-0.1031875
 20
0.0936625
 30
0.0
 42
-0.1459464371677768
  0
VERTEX
  5
1AB
  8
0
  6
BYBLOCK
 62
     0
 10
-0.047625
 20
0.0
 30
0.0
 42
-0.1234073350944576
  0
SEQEND
  5
213
  8
0
  6
BYBLOCK
 62
     0
  0
POLYLINE
  5
A0
  8
0
  6
BYBLOCK
 62
     0
 66
     1
 10
0.0
 20
0.0
 30
0.0
  0
VERTEX
  5
1AC
  8
0
  6
BYBLOCK
 62
     0
 10
-0.3000375
 20
-0.1793875
 30
0.0
 42
0.0667134653044351
  0
VERTEX
  5
1AD
  8
0
  6
BYBLOCK
 62
     0
 10
-0.1285875
 20
-0.0841375
 30
0.0
 42
0.196096474452761
  0
VERTEX
  5
1AE
  8
0
  6
BYBLOCK
 62
     0
 10
-0.0777875
 20
0.0
 30
0.0
 42
0.0022677023019448
  0
SEQEND
  5
214
  8
0
  6
BYBLOCK
 62
     0
  0
ARC
  5
A5
  8
0
  6
BYBLOCK
 62
     0
 10
-1.020211734693877
 20
0.2337512755102041
 30
0.0
 40
0.8302617515861989
 50
330.1586141006148
 51
343.1906841374334
  0
ARC
  5
A6
  8
0
  6
BYBLOCK
 62
     0
 10
-0.2397125
 20
0.0
 30
0.0
 40
0.0156350617603513
 50
336.0375110254231
 51
23.96248897457689
  0
ARC
  5
A7
  8
0
  6
BYBLOCK
 62
     0
 10
-0.2619375
 20
0.0
 30
0.0
 40
0.0163443128488169
 50
330.9453959009228
 51
29.05460409907714
  0
POLYLINE
  5
A8
  8
0
  6
BYBLOCK
 62
     0
 66
     1
 10
0.0
 20
0.0
 30
0.0
  0
VERTEX
  5
1AF
  8
0
  6
BYBLOCK
 62
     0
 10
-2.513054487339222
 20
0.6705947492646664
 30
0.0
 42
0.4050988160620906
  0
VERTEX
  5
1B0
  8
0
  6
BYBLOCK
 62
     0
 10
-2.7543125
 20
0.403225
 30
0.0
 42
-0.0024234908160989
  0
VERTEX
  5
1B1
  8
0
  6
BYBLOCK
 62
     0
 10
-2.7638375
 20
0.0
 30
0.0
 42
0.761642649762913
  0
SEQEND
  5
215
  8
0
  6
BYBLOCK
 62
     0
  0
POLYLINE
  5
AD
  8
0
  6
BYBLOCK
 62
     0
 66
     1
 10
0.0
 20
0.0
 30
0.0
  0
VERTEX
  5
1B2
  8
0
  6
BYBLOCK
 62
     0
 10
-0.2492375
 20
0.0
 30
0.0
  0
VERTEX
  5
1B3
  8
0
  6
BYBLOCK
 62
     0
 10
-0.339725
 20
0.0127
 30
0.0
  0
VERTEX
  5
1B4
  8
0
  6
BYBLOCK
 62
     0
 10
-1.2779375
 20
0.0127
 30
0.0
  0
VERTEX
  5
1B5
  8
0
  6
BYBLOCK
 62
     0
 10
-1.425575
 20
0.0
 30
0.0
  0
SEQEND
  5
216
  8
0
  6
BYBLOCK
 62
     0
  0
POLYLINE
  5
B3
  8
0
  6
BYBLOCK
 62
     0
 66
     1
 10
0.0
 20
0.0
 30
0.0
  0
VERTEX
  5
1B6
  8
0
  6
BYBLOCK
 62
     0
 10
-0.2492375
 20
0.0
 30
0.0
  0
VERTEX
  5
1B7
  8
0
  6
BYBLOCK
 62
     0
 10
-0.339725
 20
-0.0127
 30
0.0
  0
VERTEX
  5
1B8
  8
0
  6
BYBLOCK
 62
     0
 10
-1.2779375
 20
-0.0127
 30
0.0
  0
VERTEX
  5
1B9
  8
0
  6
BYBLOCK
 62
     0
 10
-1.425575
 20
0.0
 30
0.0
  0
SEQEND
  5
217
  8
0
  6
BYBLOCK
 62
     0
  0
POLYLINE
  5
B9
  8
0
  6
BYBLOCK
 62
     0
 66
     1
 10
0.0
 20
0.0
 30
0.0
  0
VERTEX
  5
1BA
  8
0
  6
BYBLOCK
 62
     0
 10
-2.513054487339222
 20
-0.6705947492646664
 30
0.0
 42
-0.4050988160620906
  0
VERTEX
  5
1BB
  8
0
  6
BYBLOCK
 62
     0
 10
-2.7543125
 20
-0.403225
 30
0.0
 42
0.0024234908160989
  0
VERTEX
  5
1BC
  8
0
  6
BYBLOCK
 62
     0
 10
-2.7638375
 20
0.0
 30
0.0
 42
-0.761642649762913
  0
SEQEND
  5
218
  8
0
  6
BYBLOCK
 62
     0
  0
POLYLINE
  5
BE
  8
0
  6
BYBLOCK
 62
     0
 66
     1
 10
0.0
 20
0.0
 30
0.0
 70
     1
  0
VERTEX
  5
1BD
  8
0
  6
BYBLOCK
 62
     0
 10
-3.6814125
 20
-0.6842125
 30
0.0
 42
0.0680662106004212
  0
VERTEX
  5
1BE
  8
0
  6
BYBLOCK
 62
     0
 10
-3.679167515413182
 20
-0.7006272785902405
 30
0.0
 42
0.0802959478297198
  0
VERTEX
  5
1BF
  8
0
  6
BYBLOCK
 62
     0
 10
-3.673275560264838
 20
-0.7134037286831378
 30
0.0
 42
0.1070824398140568
  0
VERTEX
  5
1C0
  8
0
  6
BYBLOCK
 62
     0
 10
-3.663631414696598
 20
-0.722664145249004
 30
0.0
 42
0.1388192598987495
  0
VERTEX
  5
1C1
  8
0
  6
BYBLOCK
 62
     0
 10
-3.65363125
 20
-0.725495131506028
 30
0.0
 42
0.1388192598987538
  0
VERTEX
  5
1C2
  8
0
  6
BYBLOCK
 62
     0
 10
-3.643631085303402
 20
-0.7226641452490039
 30
0.0
 42
0.1070824398140594
  0
VERTEX
  5
1C3
  8
0
  6
BYBLOCK
 62
     0
 10
-3.633986939735161
 20
-0.7134037286831378
 30
0.0
 42
0.0802959478296989
  0
VERTEX
  5
1C4
  8
0
  6
BYBLOCK
 62
     0
 10
-3.628094984586817
 20
-0.7006272785902403
 30
0.0
 42
0.0680662106004003
  0
VERTEX
  5
1C5
  8
0
  6
BYBLOCK
 62
     0
 10
-3.62585
 20
-0.6842125
 30
0.0
 42
0.0680662106004186
  0
VERTEX
  5
1C6
  8
0
  6
BYBLOCK
 62
     0
 10
-3.628094984586818
 20
-0.6677977214097588
 30
0.0
 42
0.0802959478297106
  0
VERTEX
  5
1C7
  8
0
  6
BYBLOCK
 62
     0
 10
-3.633986939735161
 20
-0.655021271316862
 30
0.0
 42
0.1070824398140803
  0
VERTEX
  5
1C8
  8
0
  6
BYBLOCK
 62
     0
 10
-3.643631085303402
 20
-0.6457608547509961
 30
0.0
 42
0.1388192598987677
  0
VERTEX
  5
1C9
  8
0
  6
BYBLOCK
 62
     0
 10
-3.65363125
 20
-0.6429298684939719
 30
0.0
 42
0.138819259898758
  0
VERTEX
  5
1CA
  8
0
  6
BYBLOCK
 62
     0
 10
-3.663631414696598
 20
-0.6457608547509961
 30
0.0
 42
0.1070824398140617
  0
VERTEX
  5
1CB
  8
0
  6
BYBLOCK
 62
     0
 10
-3.673275560264838
 20
-0.655021271316862
 30
0.0
 42
0.0802959478297311
  0
VERTEX
  5
1CC
  8
0
  6
BYBLOCK
 62
     0
 10
-3.679167515413181
 20
-0.6677977214097587
 30
0.0
 42
0.0680662106004396
  0
SEQEND
  5
219
  8
0
  6
BYBLOCK
 62
     0
  0
POLYLINE
  5
D0
  8
0
  6
BYBLOCK
 62
     0
 66
     1
 10
0.0
 20
0.0
 30
0.0
  0
VERTEX
  5
1CD
  8
0
  6
BYBLOCK
 62
     0
 10
-3.651716381251278
 20
-0.7253987888694134
 30
0.0
 42
0.0276061131388279
  0
VERTEX
  5
1CE
  8
0
  6
BYBLOCK
 62
     0
 10
-3.64886875
 20
-0.7255561328418596
 30
0.0
 42
0.1216957382383025
  0
VERTEX
  5
1CF
  8
0
  6
BYBLOCK
 62
     0
 10
-3.636832329145959
 20
-0.722582532008352
 30
0.0
 42
0.1052706400478618
  0
VERTEX
  5
1D0
  8
0
  6
BYBLOCK
 62
     0
 10
-3.62585684368976
 20
-0.7134468631413657
 30
0.0
 42
0.0881465572026284
  0
VERTEX
  5
1D1
  8
0
  6
BYBLOCK
 62
     0
 10
-3.618904348250394
 20
-0.7004442086757103
 30
0.0
 42
0.0789586432083844
  0
VERTEX
  5
1D2
  8
0
  6
BYBLOCK
 62
     0
 10
-3.616325
 20
-0.6842125
 30
0.0
 42
0.0789586432083857
  0
VERTEX
  5
1D3
  8
0
  6
BYBLOCK
 62
     0
 10
-3.618904348250394
 20
-0.6679807913242899
 30
0.0
 42
0.088146557202633
  0
VERTEX
  5
1D4
  8
0
  6
BYBLOCK
 62
     0
 10
-3.62585684368976
 20
-0.6549781368586342
 30
0.0
 42
0.1052706400478477
  0
VERTEX
  5
1D5
  8
0
  6
BYBLOCK
 62
     0
 10
-3.636832329145958
 20
-0.645842467991648
 30
0.0
 42
0.1216957382382991
  0
VERTEX
  5
1D6
  8
0
  6
BYBLOCK
 62
     0
 10
-3.64886875
 20
-0.6428688671581403
 30
0.0
 42
0.027606113138824
  0
VERTEX
  5
1D7
  8
0
  6
BYBLOCK
 62
     0
 10
-3.651716381251278
 20
-0.6430262111305866
 30
0.0
 42
0.1052706400478514
  0
SEQEND
  5
21A
  8
0
  6
BYBLOCK
 62
     0
  0
LINE
  5
DD
  8
0
  6
BYBLOCK
 62
     0
 10
-3.855983260537428
 20
-0.5850123198683292
 30
0.0
 11
-3.526031718882762
 21
-0.5850123198683292
 31
0.0
  0
LINE
  5
DE
  8
0
  6
BYBLOCK
 62
     0
 10
-3.855983260537428
 20
0.5832299028285752
 30
0.0
 11
-3.529004757495962
 21
0.5832299028285752
 31
0.0
  0
LINE
  5
DF
  8
0
  6
BYBLOCK
 62
     0
 10
-2.67335
 20
0.4064
 30
0.0
 11
-2.67335
 21
-0.4064
 31
0.0
  0
LINE
  5
E0
  8
0
  6
BYBLOCK
 62
     0
 10
-2.6162
 20
0.377825
 30
0.0
 11
-2.67335
 21
0.4064
 31
0.0
  0
LINE
  5
E1
  8
0
  6
BYBLOCK
 62
     0
 10
-2.6162
 20
-0.377825
 30
0.0
 11
-2.67335
 21
-0.4064
 31
0.0
  0
ARC
  5
E2
  8
0
  6
BYBLOCK
 62
     0
 10
-5.5679578125
 20
0.0
 30
0.0
 40
2.975840371101881
 50
352.7058036914592
 51
7.29419630854087
  0
POLYLINE
  5
E3
  8
0
  6
BYBLOCK
 62
     0
 66
     1
 10
0.0
 20
0.0
 30
0.0
 70
     1
  0
VERTEX
  5
1D8
  8
0
  6
BYBLOCK
 62
     0
 10
-3.64196161471038
 20
-0.6252687136983632
 30
0.0
 42
0.2619935751267817
  0
VERTEX
  5
1D9
  8
0
  6
BYBLOCK
 62
     0
 10
-3.698875
 20
-0.6842125000000001
 30
0.0
 42
0.2619935751267911
  0
VERTEX
  5
1DA
  8
0
  6
BYBLOCK
 62
     0
 10
-3.641961614710378
 20
-0.7431562863016372
 30
0.0
 42
0.1011537581673551
  0
VERTEX
  5
1DB
  8
0
  6
BYBLOCK
 62
     0
 10
-3.6274375
 20
-0.7461249999999999
 30
0.0
 42
0.1241200220413104
  0
VERTEX
  5
1DC
  8
0
  6
BYBLOCK
 62
     0
 10
-3.609889143353676
 20
-0.7417006343695655
 30
0.0
 42
0.1056774915673999
  0
VERTEX
  5
1DD
  8
0
  6
BYBLOCK
 62
     0
 10
-3.593761539545991
 20
-0.7279912485902121
 30
0.0
 42
0.0870286537998935
  0
VERTEX
  5
1DE
  8
0
  6
BYBLOCK
 62
     0
 10
-3.583599114495755
 20
-0.7085695864867797
 30
0.0
 42
0.077267196499674
  0
VERTEX
  5
1DF
  8
0
  6
BYBLOCK
 62
     0
 10
-3.5798125
 20
-0.6842125
 30
0.0
 42
0.0772671964996751
  0
VERTEX
  5
1E0
  8
0
  6
BYBLOCK
 62
     0
 10
-3.583599114495755
 20
-0.6598554135132206
 30
0.0
 42
0.0870286537998973
  0
VERTEX
  5
1E1
  8
0
  6
BYBLOCK
 62
     0
 10
-3.593761539545991
 20
-0.6404337514097879
 30
0.0
 42
0.1056774915673936
  0
VERTEX
  5
1E2
  8
0
  6
BYBLOCK
 62
     0
 10
-3.609889143353676
 20
-0.6267243656304348
 30
0.0
 42
0.1241200220413128
  0
VERTEX
  5
1E3
  8
0
  6
BYBLOCK
 62
     0
 10
-3.6274375
 20
-0.6223
 30
0.0
 42
0.1011537581673627
  0
SEQEND
  5
21B
  8
0
  6
BYBLOCK
 62
     0
  0
POLYLINE
  5
F1
  8
0
  6
BYBLOCK
 62
     0
 66
     1
 10
0.0
 20
0.0
 30
0.0
 70
     1
  0
VERTEX
  5
1E4
  8
0
  6
BYBLOCK
 62
     0
 10
-3.64196161471038
 20
0.6252687136983632
 30
0.0
 42
-0.2619935751267817
  0
VERTEX
  5
1E5
  8
0
  6
BYBLOCK
 62
     0
 10
-3.698875
 20
0.6842125000000001
 30
0.0
 42
-0.2619935751267911
  0
VERTEX
  5
1E6
  8
0
  6
BYBLOCK
 62
     0
 10
-3.641961614710378
 20
0.7431562863016372
 30
0.0
 42
-0.1011537581673551
  0
VERTEX
  5
1E7
  8
0
  6
BYBLOCK
 62
     0
 10
-3.6274375
 20
0.7461249999999999
 30
0.0
 42
-0.1241200220413104
  0
VERTEX
  5
1E8
  8
0
  6
BYBLOCK
 62
     0
 10
-3.609889143353676
 20
0.7417006343695655
 30
0.0
 42
-0.1056774915673999
  0
VERTEX
  5
1E9
  8
0
  6
BYBLOCK
 62
     0
 10
-3.593761539545991
 20
0.7279912485902121
 30
0.0
 42
-0.0870286537998935
  0
VERTEX
  5
1EA
  8
0
  6
BYBLOCK
 62
     0
 10
-3.583599114495755
 20
0.7085695864867797
 30
0.0
 42
-0.077267196499674
  0
VERTEX
  5
1EB
  8
0
  6
BYBLOCK
 62
     0
 10
-3.5798125
 20
0.6842125
 30
0.0
 42
-0.0772671964996751
  0
VERTEX
  5
1EC
  8
0
  6
BYBLOCK
 62
     0
 10
-3.583599114495755
 20
0.6598554135132206
 30
0.0
 42
-0.0870286537998973
  0
VERTEX
  5
1ED
  8
0
  6
BYBLOCK
 62
     0
 10
-3.593761539545991
 20
0.6404337514097879
 30
0.0
 42
-0.1056774915673936
  0
VERTEX
  5
1EE
  8
0
  6
BYBLOCK
 62
     0
 10
-3.609889143353676
 20
0.6267243656304348
 30
0.0
 42
-0.1241200220413128
  0
VERTEX
  5
1EF
  8
0
  6
BYBLOCK
 62
     0
 10
-3.6274375
 20
0.6223
 30
0.0
 42
-0.1011537581673627
  0
SEQEND
  5
21C
  8
0
  6
BYBLOCK
 62
     0
  0
POLYLINE
  5
FF
  8
0
  6
BYBLOCK
 62
     0
 66
     1
 10
0.0
 20
0.0
 30
0.0
  0
VERTEX
  5
1F0
  8
0
  6
BYBLOCK
 62
     0
 10
-3.651716381251278
 20
0.7253987888694134
 30
0.0
 42
-0.0276061131388279
  0
VERTEX
  5
1F1
  8
0
  6
BYBLOCK
 62
     0
 10
-3.64886875
 20
0.7255561328418596
 30
0.0
 42
-0.1216957382383025
  0
VERTEX
  5
1F2
  8
0
  6
BYBLOCK
 62
     0
 10
-3.636832329145959
 20
0.722582532008352
 30
0.0
 42
-0.1052706400478618
  0
VERTEX
  5
1F3
  8
0
  6
BYBLOCK
 62
     0
 10
-3.62585684368976
 20
0.7134468631413657
 30
0.0
 42
-0.0881465572026284
  0
VERTEX
  5
1F4
  8
0
  6
BYBLOCK
 62
     0
 10
-3.618904348250394
 20
0.7004442086757103
 30
0.0
 42
-0.0789586432083844
  0
VERTEX
  5
1F5
  8
0
  6
BYBLOCK
 62
     0
 10
-3.616325
 20
0.6842125
 30
0.0
 42
-0.0789586432083857
  0
VERTEX
  5
1F6
  8
0
  6
BYBLOCK
 62
     0
 10
-3.618904348250394
 20
0.6679807913242899
 30
0.0
 42
-0.088146557202633
  0
VERTEX
  5
1F7
  8
0
  6
BYBLOCK
 62
     0
 10
-3.62585684368976
 20
0.6549781368586342
 30
0.0
 42
-0.1052706400478477
  0
VERTEX
  5
1F8
  8
0
  6
BYBLOCK
 62
     0
 10
-3.636832329145958
 20
0.645842467991648
 30
0.0
 42
-0.1216957382382991
  0
VERTEX
  5
1F9
  8
0
  6
BYBLOCK
 62
     0
 10
-3.64886875
 20
0.6428688671581403
 30
0.0
 42
-0.027606113138824
  0
VERTEX
  5
1FA
  8
0
  6
BYBLOCK
 62
     0
 10
-3.651716381251278
 20
0.6430262111305866
 30
0.0
 42
-0.1052706400478514
  0
SEQEND
  5
21D
  8
0
  6
BYBLOCK
 62
     0
  0
POLYLINE
  5
10C
  8
0
  6
BYBLOCK
 62
     0
 66
     1
 10
0.0
 20
0.0
 30
0.0
 70
     1
  0
VERTEX
  5
1FB
  8
0
  6
BYBLOCK
 62
     0
 10
-3.6814125
 20
0.6842125
 30
0.0
 42
-0.0680662106004212
  0
VERTEX
  5
1FC
  8
0
  6
BYBLOCK
 62
     0
 10
-3.679167515413182
 20
0.7006272785902405
 30
0.0
 42
-0.0802959478297198
  0
VERTEX
  5
1FD
  8
0
  6
BYBLOCK
 62
     0
 10
-3.673275560264838
 20
0.7134037286831378
 30
0.0
 42
-0.1070824398140568
  0
VERTEX
  5
1FE
  8
0
  6
BYBLOCK
 62
     0
 10
-3.663631414696598
 20
0.722664145249004
 30
0.0
 42
-0.1388192598987495
  0
VERTEX
  5
1FF
  8
0
  6
BYBLOCK
 62
     0
 10
-3.65363125
 20
0.725495131506028
 30
0.0
 42
-0.1388192598987538
  0
VERTEX
  5
200
  8
0
  6
BYBLOCK
 62
     0
 10
-3.643631085303402
 20
0.7226641452490039
 30
0.0
 42
-0.1070824398140594
  0
VERTEX
  5
201
  8
0
  6
BYBLOCK
 62
     0
 10
-3.633986939735161
 20
0.7134037286831378
 30
0.0
 42
-0.0802959478296989
  0
VERTEX
  5
202
  8
0
  6
BYBLOCK
 62
     0
 10
-3.628094984586817
 20
0.7006272785902403
 30
0.0
 42
-0.0680662106004003
  0
VERTEX
  5
203
  8
0
  6
BYBLOCK
 62
     0
 10
-3.62585
 20
0.6842125
 30
0.0
 42
-0.0680662106004186
  0
VERTEX
  5
204
  8
0
  6
BYBLOCK
 62
     0
 10
-3.628094984586818
 20
0.6677977214097588
 30
0.0
 42
-0.0802959478297106
  0
VERTEX
  5
205
  8
0
  6
BYBLOCK
 62
     0
 10
-3.633986939735161
 20
0.655021271316862
 30
0.0
 42
-0.1070824398140803
  0
VERTEX
  5
206
  8
0
  6
BYBLOCK
 62
     0
 10
-3.643631085303402
 20
0.6457608547509961
 30
0.0
 42
-0.1388192598987677
  0
VERTEX
  5
207
  8
0
  6
BYBLOCK
 62
     0
 10
-3.65363125
 20
0.6429298684939719
 30
0.0
 42
-0.138819259898758
  0
VERTEX
  5
208
  8
0
  6
BYBLOCK
 62
     0
 10
-3.663631414696598
 20
0.6457608547509961
 30
0.0
 42
-0.1070824398140617
  0
VERTEX
  5
209
  8
0
  6
BYBLOCK
 62
     0
 10
-3.673275560264838
 20
0.655021271316862
 30
0.0
 42
-0.0802959478297311
  0
VERTEX
  5
20A
  8
0
  6
BYBLOCK
 62
     0
 10
-3.679167515413181
 20
0.6677977214097587
 30
0.0
 42
-0.0680662106004396
  0
SEQEND
  5
21E
  8
0
  6
BYBLOCK
 62
     0
  0
LINE
  5
11E
  8
0
  6
BYBLOCK
 62
     0
 10
-1.4366875
 20
0.5445125
 30
0.0
 11
-1.4366875
 21
-0.5445125
 31
0.0
  0
LINE
  5
11F
  8
0
  6
BYBLOCK
 62
     0
 10
-1.4366875
 20
-0.5445125
 30
0.0
 11
-1.5128875
 21
-0.498475
 31
0.0
  0
LINE
  5
120
  8
0
  6
BYBLOCK
 62
     0
 10
-1.5128875
 20
-0.498475
 30
0.0
 11
-1.5128875
 21
0.498475
 31
0.0
  0
LINE
  5
121
  8
0
  6
BYBLOCK
 62
     0
 10
-1.4366875
 20
0.5445125
 30
0.0
 11
-1.5128875
 21
0.498475
 31
0.0
  0
POLYLINE
  5
127
  8
_KTI_CONTROL
 10
0.0
 20
0.0
 30
0.0
 66
     1
 70
     8
1001
_KTI_ARCHT
1070
 12000
1000
ENVIRONMENT
1070
 10003
1000
02pcar14
1070
 20000
1000
standard
1070
 20001
1000
c:\program files\ketiv\archt
1070
 20003
1000
d:\archt
1070
 20002
1000
c:\program files\ketiv\archt\tmp
1070
 20004
1002
{
1000
c:\program files\ketiv\archt\blks
1000
c:\program files\ketiv\archt\blks3d
1000
e:\archt\blks
1000
e:\archt\blks3d
1000
d:\archt\blks
1000
d:\archt\blks3d
1002
}
1070
 20005
1002
{
1000
c:\program files\ketiv\archt\slds
1002
}
1070
 20006
1002
{
1000
c:\program files\ketiv\archt\dclswin
1002
}
1070
 20007
1002
{
1000
c:\program files\ketiv\archt\docs
1000
e:\archt\docs
1000
d:\archt\docs
1002
}
1070
 20008
1002
{
1000
c:\program files\ketiv\archt\help
1002
}
  0
VERTEX
  5
128
  8
_KTI_CONTROL
 10
0.0
 20
0.0
 30
0.0
 70
    32
  0
VERTEX
  5
129
  8
_KTI_CONTROL
 10
0.0
 20
0.0
 30
0.0
 70
    32
  0
SEQEND
  5
12A
  8
_KTI_CONTROL
  0
POLYLINE
  5
12B
  8
_KTI_CONTROL
 10
0.0
 20
0.0
 30
0.0
 66
     1
 70
     8
1001
_KTI_ARCHT
1070
 12000
1000
ARCHTVARS
1070
 10003
1000
02pcar14
1070
 12030
1000
m
1070
 12020
1070
     1
1070
 12021
1070
     0
1070
 12070
1070
     0
1070
 12071
1070
     1
1070
 12907
1070
     0
1070
 12913
1070
     1
1070
 12914
1070
     1
1070
 12072
1070
     2
1070
 12073
1070
    48
1070
 12074
1070
     0
1070
 12080
1070
     1
1070
 12092
1070
     1
1070
 12096
1070
     0
1070
 12095
1070
     0
1070
 12081
1070
     1
1070
 12082
1070
     1
1070
 12083
1070
     1
1070
 12084
1070
     1
1070
 12085
1070
     0
1070
 12086
1070
     1
1070
 12087
1070
     0
1070
 12088
1070
     0
1070
 12097
1070
     1
1070
 12089
1070
     4
1070
 12090
1070
     6
1070
 12091
1070
     1
1070
 12045
1000

1070
 12046
1000

1070
 12047
1000
standard
1070
 12048
1000

1070
 12049
1000

1070
 12093
1070
     1
1070
 12094
1070
     1
1070
 12908
1070
     0
1070
 12909
1070
     0
1070
 12911
1070
     0
1070
 12910
1070
     0
1070
 12912
1070
     0
1070
 12098
1070
   800
1070
 12060
1002
{
1000

1000

1000

1000

1002
}
1070
 12904
1002
{
1070
     0
1070
     0
1070
     0
1070
     0
1070
     0
1002
}
1070
 12905
1002
{
1040
0.0
1040
0.0
1040
0.0
1040
0.0
1040
0.0
1002
}
1070
 12906
1002
{
1000

1000

1000

1000

1000

1002
}
1070
 12040
1002
{
1002
}
  0
VERTEX
  5
12C
  8
_KTI_CONTROL
 10
0.0
 20
0.0
 30
0.0
 70
    32
  0
VERTEX
  5
12D
  8
_KTI_CONTROL
 10
0.0
 20
0.0
 30
0.0
 70
    32
  0
SEQEND
  5
12E
  8
_KTI_CONTROL
  0
ENDSEC
  0
EOF
