  0
SECTION
  2
HEADER
  9
$ACADVER
  1
AC1009
  9
$DWGCODEPAGE
  3
ansi_1252
  9
$INSBASE
 10
0.0
 20
0.0
 30
0.0
  9
$EXTMIN
 10
-0.8886907465216893
 20
-0.0014685463992237
 30
-0.0000457728747811
  9
$EXTMAX
 10
0.8886910713204372
 20
1.224861202470336
 30
0.0381774920250493
  9
$LIMMIN
 10
0.0
 20
0.0
  9
$LIMMAX
 10
12.0
 20
9.0
  9
$ORTHOMODE
 70
     1
  9
$REGENMODE
 70
     1
  9
$FILLMODE
 70
     1
  9
$QTEXTMODE
 70
     0
  9
$MIRRTEXT
 70
     1
  9
$DRAGMODE
 70
     2
  9
$LTSCALE
 40
1.0
  9
$OSMODE
 70
    37
  9
$ATTMODE
 70
     1
  9
$TEXTSIZE
 40
0.2
  9
$TRACEWID
 40
0.05
  9
$TEXTSTYLE
  7
STANDARD
  9
$CLAYER
  8
0
  9
$CELTYPE
  6
CONTINUOUS
  9
$CECOLOR
 62
     0
  9
$DIMSCALE
 40
1.0
  9
$DIMASZ
 40
0.18
  9
$DIMEXO
 40
0.0625
  9
$DIMDLI
 40
0.38
  9
$DIMRND
 40
0.0
  9
$DIMDLE
 40
0.0
  9
$DIMEXE
 40
0.18
  9
$DIMTP
 40
0.0
  9
$DIMTM
 40
0.0
  9
$DIMTXT
 40
0.18
  9
$DIMCEN
 40
0.09
  9
$DIMTSZ
 40
0.0
  9
$DIMTOL
 70
     0
  9
$DIMLIM
 70
     0
  9
$DIMTIH
 70
     1
  9
$DIMTOH
 70
     1
  9
$DIMSE1
 70
     0
  9
$DIMSE2
 70
     0
  9
$DIMTAD
 70
     0
  9
$DIMZIN
 70
     0
  9
$DIMBLK
  1

  9
$DIMASO
 70
     1
  9
$DIMSHO
 70
     0
  9
$DIMPOST
  1

  9
$DIMAPOST
  1

  9
$DIMALT
 70
     0
  9
$DIMALTD
 70
     2
  9
$DIMALTF
 40
25.4
  9
$DIMLFAC
 40
1.0
  9
$DIMTOFL
 70
     0
  9
$DIMTVP
 40
0.0
  9
$DIMTIX
 70
     0
  9
$DIMSOXD
 70
     0
  9
$DIMSAH
 70
     0
  9
$DIMBLK1
  1

  9
$DIMBLK2
  1

  9
$DIMSTYLE
  2
STANDARD
  9
$DIMCLRD
 70
     0
  9
$DIMCLRE
 70
     0
  9
$DIMCLRT
 70
     0
  9
$DIMTFAC
 40
1.0
  9
$DIMGAP
 40
0.09
  9
$LUNITS
 70
     2
  9
$LUPREC
 70
     4
  9
$SKETCHINC
 40
0.1
  9
$FILLETRAD
 40
0.0
  9
$AUNITS
 70
     0
  9
$AUPREC
 70
     2
  9
$MENU
  1
acad
  9
$ELEVATION
 40
0.0
  9
$PELEVATION
 40
0.0
  9
$THICKNESS
 40
0.0
  9
$LIMCHECK
 70
     0
  9
$CHAMFERA
 40
0.0
  9
$CHAMFERB
 40
0.0
  9
$SKPOLY
 70
     0
  9
$TDCREATE
 40
2449162.575722685
  9
$TDUPDATE
 40
2458028.720682871
  9
$TDINDWG
 40
0.0000185185
  9
$TDUSRTIMER
 40
0.0000185185
  9
$USRTIMER
 70
     1
  9
$ANGBASE
 50
0.0
  9
$ANGDIR
 70
     0
  9
$PDMODE
 70
     0
  9
$PDSIZE
 40
0.0
  9
$PLINEWID
 40
0.0
  9
$COORDS
 70
     1
  9
$SPLFRAME
 70
     0
  9
$SPLINETYPE
 70
     6
  9
$SPLINESEGS
 70
     8
  9
$ATTDIA
 70
     0
  9
$ATTREQ
 70
     1
  9
$HANDLING
 70
     1
  9
$HANDSEED
  5
2DA
  9
$SURFTAB1
 70
     7
  9
$SURFTAB2
 70
     6
  9
$SURFTYPE
 70
     6
  9
$SURFU
 70
     6
  9
$SURFV
 70
     6
  9
$UCSNAME
  2

  9
$UCSORG
 10
0.0
 20
0.0
 30
0.0
  9
$UCSXDIR
 10
1.0
 20
0.0
 30
0.0
  9
$UCSYDIR
 10
0.0
 20
1.0
 30
0.0
  9
$PUCSNAME
  2

  9
$PUCSORG
 10
0.0
 20
0.0
 30
0.0
  9
$PUCSXDIR
 10
1.0
 20
0.0
 30
0.0
  9
$PUCSYDIR
 10
0.0
 20
1.0
 30
0.0
  9
$USERI1
 70
     0
  9
$USERI2
 70
     0
  9
$USERI3
 70
     0
  9
$USERI4
 70
     0
  9
$USERI5
 70
     0
  9
$USERR1
 40
0.0
  9
$USERR2
 40
0.0
  9
$USERR3
 40
0.0
  9
$USERR4
 40
0.0
  9
$USERR5
 40
0.0
  9
$WORLDVIEW
 70
     1
  9
$SHADEDGE
 70
     1
  9
$SHADEDIF
 70
    70
  9
$TILEMODE
 70
     1
  9
$MAXACTVP
 70
    16
  9
$PLIMCHECK
 70
     0
  9
$PEXTMIN
 10
1.000000000000000E+20
 20
1.000000000000000E+20
 30
1.000000000000000E+20
  9
$PEXTMAX
 10
-1.000000000000000E+20
 20
-1.000000000000000E+20
 30
-1.000000000000000E+20
  9
$PLIMMIN
 10
-9.0
 20
0.0
  9
$PLIMMAX
 10
0.0
 20
0.0
  9
$UNITMODE
 70
     0
  9
$VISRETAIN
 70
     0
  9
$PLINEGEN
 70
     0
  9
$PSLTSCALE
 70
     0
  0
ENDSEC
  0
SECTION
  2
TABLES
  0
TABLE
  2
VPORT
 70
     1
  0
VPORT
  2
*ACTIVE
 70
     0
 10
0.0
 20
0.0
 11
1.0
 21
1.0
 12
45.56627297938678
 22
-13.03276412999695
 13
0.0
 23
0.0
 14
0.1
 24
0.1
 15
1.0
 25
1.0
 16
0.0
 26
0.0
 36
1.0
 17
-45.56627281698741
 27
13.64446045803251
 37
74.57487468433969
 40
1.379445376162553
 41
1.56198347107438
 42
50.0
 43
0.0
 44
0.0
 50
0.0
 51
0.0
 71
     8
 72
   100
 73
     1
 74
     0
 75
     1
 76
     0
 77
     0
 78
     0
  0
ENDTAB
  0
TABLE
  2
LTYPE
 70
     1
  0
LTYPE
  2
CONTINUOUS
 70
     0
  3
Solid line
 72
    65
 73
     0
 40
0.0
  0
ENDTAB
  0
TABLE
  2
LAYER
 70
     2
  0
LAYER
  2
0
 70
     0
 62
     7
  6
CONTINUOUS
  0
LAYER
  2
_KTI_CONTROL
 70
     5
 62
     7
  6
CONTINUOUS
  0
ENDTAB
  0
TABLE
  2
STYLE
 70
     1
  0
STYLE
  2
STANDARD
 70
     0
 40
0.0
 41
1.0
 50
0.0
 71
     0
 42
0.2
  3
txt
  4

  0
ENDTAB
  0
TABLE
  2
VIEW
 70
     0
  0
ENDTAB
  0
TABLE
  2
UCS
 70
     0
  0
ENDTAB
  0
TABLE
  2
APPID
 70
     2
  0
APPID
  2
ACAD
 70
     0
  0
APPID
  2
_KTI_ARCHT
 70
     0
  0
ENDTAB
  0
TABLE
  2
DIMSTYLE
 70
     1
  0
DIMSTYLE
  2
STANDARD
 70
     0
  3

  4

  5

  6

  7

 40
1.0
 41
0.18
 42
0.0625
 43
0.38
 44
0.18
 45
0.0
 46
0.0
 47
0.0
 48
0.0
140
0.18
141
0.09
142
0.0
143
25.4
144
1.0
145
0.0
146
1.0
147
0.09
 71
     0
 72
     0
 73
     1
 74
     1
 75
     0
 76
     0
 77
     0
 78
     0
170
     0
171
     2
172
     0
173
     0
174
     0
175
     0
176
     0
177
     0
178
     0
  0
ENDTAB
  0
ENDSEC
  0
SECTION
  2
BLOCKS
  0
BLOCK
  8
0
  2
$MODEL_SPACE
 70
     0
 10
0.0
 20
0.0
 30
0.0
  3
$MODEL_SPACE
  1

  0
ENDBLK
  5
21
  8
0
 62
     0
  0
BLOCK
 67
     1
  8
0
  2
$PAPER_SPACE
 70
     0
 10
0.0
 20
0.0
 30
0.0
  3
$PAPER_SPACE
  1

  0
ENDBLK
  5
1F
 67
     1
  8
0
 62
     0
  0
ENDSEC
  0
SECTION
  2
ENTITIES
  0
POLYLINE
  5
24
  8
0
  6
BYBLOCK
 62
     0
 66
     1
 10
0.0
 20
0.0
 30
0.0381
  0
VERTEX
  5
1C3
  8
0
  6
BYBLOCK
 62
     0
 10
0.8731249999999999
 20
0.669925
 30
0.0381
  0
VERTEX
  5
1C4
  8
0
  6
BYBLOCK
 62
     0
 10
0.8731249999999999
 20
0.04445
 30
0.0381
  0
VERTEX
  5
1C5
  8
0
  6
BYBLOCK
 62
     0
 10
0.8540749999999999
 20
0.0127
 30
0.0381
  0
VERTEX
  5
1C6
  8
0
  6
BYBLOCK
 62
     0
 10
0.822325
 20
0.0
 30
0.0381
  0
VERTEX
  5
1C7
  8
0
  6
BYBLOCK
 62
     0
 10
0.593725
 20
0.0
 30
0.0381
  0
VERTEX
  5
1C8
  8
0
  6
BYBLOCK
 62
     0
 10
0.5651499999999999
 20
0.009525
 30
0.0381
  0
VERTEX
  5
1C9
  8
0
  6
BYBLOCK
 62
     0
 10
0.55245
 20
0.0381
 30
0.0381
  0
VERTEX
  5
1CA
  8
0
  6
BYBLOCK
 62
     0
 10
0.55245
 20
0.28575
 30
0.0381
  0
SEQEND
  5
2BC
  8
0
  6
BYBLOCK
 62
     0
  0
POLYLINE
  5
2E
  8
0
  6
BYBLOCK
 62
     0
 66
     1
 10
0.0
 20
0.0
 30
0.0381
  0
VERTEX
  5
1CB
  8
0
  6
BYBLOCK
 62
     0
 10
-0.8731249999999999
 20
0.669925
 30
0.0381
  0
VERTEX
  5
1CC
  8
0
  6
BYBLOCK
 62
     0
 10
-0.8731249999999999
 20
0.04445
 30
0.0381
  0
VERTEX
  5
1CD
  8
0
  6
BYBLOCK
 62
     0
 10
-0.8540749999999999
 20
0.0127
 30
0.0381
  0
VERTEX
  5
1CE
  8
0
  6
BYBLOCK
 62
     0
 10
-0.822325
 20
0.0
 30
0.0381
  0
VERTEX
  5
1CF
  8
0
  6
BYBLOCK
 62
     0
 10
-0.593725
 20
0.0
 30
0.0381
  0
VERTEX
  5
1D0
  8
0
  6
BYBLOCK
 62
     0
 10
-0.5651499999999999
 20
0.009525
 30
0.0381
  0
VERTEX
  5
1D1
  8
0
  6
BYBLOCK
 62
     0
 10
-0.55245
 20
0.0381
 30
0.0381
  0
VERTEX
  5
1D2
  8
0
  6
BYBLOCK
 62
     0
 10
-0.55245
 20
0.28575
 30
0.0381
  0
SEQEND
  5
2BD
  8
0
  6
BYBLOCK
 62
     0
  0
POLYLINE
  5
38
  8
0
  6
BYBLOCK
 62
     0
 66
     1
 10
0.0
 20
0.0
 30
0.0381
 70
     1
  0
VERTEX
  5
1D3
  8
0
  6
BYBLOCK
 62
     0
 10
0.508
 20
0.5651499999999999
 30
0.0381
  0
VERTEX
  5
1D4
  8
0
  6
BYBLOCK
 62
     0
 10
0.508
 20
0.635
 30
0.0381
  0
VERTEX
  5
1D5
  8
0
  6
BYBLOCK
 62
     0
 10
0.530225
 20
0.6604
 30
0.0381
  0
VERTEX
  5
1D6
  8
0
  6
BYBLOCK
 62
     0
 10
0.5461
 20
0.6604
 30
0.0381
  0
VERTEX
  5
1D7
  8
0
  6
BYBLOCK
 62
     0
 10
0.5715
 20
0.6381749999999999
 30
0.0381
  0
VERTEX
  5
1D8
  8
0
  6
BYBLOCK
 62
     0
 10
0.568325
 20
0.523875
 30
0.0381
  0
VERTEX
  5
1D9
  8
0
  6
BYBLOCK
 62
     0
 10
0.568325
 20
0.508
 30
0.0381
  0
VERTEX
  5
1DA
  8
0
  6
BYBLOCK
 62
     0
 10
0.530225
 20
0.508
 30
0.0381
  0
VERTEX
  5
1DB
  8
0
  6
BYBLOCK
 62
     0
 10
0.508
 20
0.508
 30
0.0381
  0
SEQEND
  5
2BE
  8
0
  6
BYBLOCK
 62
     0
  0
POLYLINE
  5
43
  8
0
  6
BYBLOCK
 62
     0
 66
     1
 10
0.0
 20
0.0
 30
0.0381
 70
     1
  0
VERTEX
  5
1DC
  8
0
  6
BYBLOCK
 62
     0
 10
0.422275
 20
0.644525
 30
0.0381
  0
VERTEX
  5
1DD
  8
0
  6
BYBLOCK
 62
     0
 10
0.390525
 20
0.644525
 30
0.0381
  0
VERTEX
  5
1DE
  8
0
  6
BYBLOCK
 62
     0
 10
0.365125
 20
0.61595
 30
0.0381
  0
VERTEX
  5
1DF
  8
0
  6
BYBLOCK
 62
     0
 10
0.365125
 20
0.4572
 30
0.0381
  0
VERTEX
  5
1E0
  8
0
  6
BYBLOCK
 62
     0
 10
0.3683
 20
0.381
 30
0.0381
  0
VERTEX
  5
1E1
  8
0
  6
BYBLOCK
 62
     0
 10
0.403225
 20
0.3556
 30
0.0381
  0
VERTEX
  5
1E2
  8
0
  6
BYBLOCK
 62
     0
 10
0.41275
 20
0.352425
 30
0.0381
  0
VERTEX
  5
1E3
  8
0
  6
BYBLOCK
 62
     0
 10
0.441325
 20
0.37465
 30
0.0381
  0
VERTEX
  5
1E4
  8
0
  6
BYBLOCK
 62
     0
 10
0.45085
 20
0.454025
 30
0.0381
  0
VERTEX
  5
1E5
  8
0
  6
BYBLOCK
 62
     0
 10
0.4445
 20
0.61595
 30
0.0381
  0
SEQEND
  5
2BF
  8
0
  6
BYBLOCK
 62
     0
  0
POLYLINE
  5
4F
  8
0
  6
BYBLOCK
 62
     0
 66
     1
 10
0.0
 20
0.0
 30
0.0381
  0
VERTEX
  5
1E6
  8
0
  6
BYBLOCK
 62
     0
 10
-0.879475
 20
0.67945
 30
0.0381
  0
VERTEX
  5
1E7
  8
0
  6
BYBLOCK
 62
     0
 10
-0.8731249999999999
 20
0.6985
 30
0.0381
  0
VERTEX
  5
1E8
  8
0
  6
BYBLOCK
 62
     0
 10
-0.8635999999999999
 20
0.6826249999999999
 30
0.0381
  0
VERTEX
  5
1E9
  8
0
  6
BYBLOCK
 62
     0
 10
-0.8540749999999999
 20
0.6095999999999999
 30
0.0381
  0
VERTEX
  5
1EA
  8
0
  6
BYBLOCK
 62
     0
 10
-0.8255
 20
0.51435
 30
0.0381
  0
VERTEX
  5
1EB
  8
0
  6
BYBLOCK
 62
     0
 10
-0.796925
 20
0.390525
 30
0.0381
  0
VERTEX
  5
1EC
  8
0
  6
BYBLOCK
 62
     0
 10
-0.771525
 20
0.3302
 30
0.0381
  0
VERTEX
  5
1ED
  8
0
  6
BYBLOCK
 62
     0
 10
-0.739775
 20
0.2921
 30
0.0381
  0
VERTEX
  5
1EE
  8
0
  6
BYBLOCK
 62
     0
 10
-0.714375
 20
0.2794
 30
0.0381
  0
VERTEX
  5
1EF
  8
0
  6
BYBLOCK
 62
     0
 10
-0.669925
 20
0.27305
 30
0.0381
  0
VERTEX
  5
1F0
  8
0
  6
BYBLOCK
 62
     0
 10
-0.6286499999999999
 20
0.276225
 30
0.0381
  0
VERTEX
  5
1F1
  8
0
  6
BYBLOCK
 62
     0
 10
-0.59055
 20
0.282575
 30
0.0381
  0
VERTEX
  5
1F2
  8
0
  6
BYBLOCK
 62
     0
 10
-0.5588
 20
0.295275
 30
0.0381
  0
VERTEX
  5
1F3
  8
0
  6
BYBLOCK
 62
     0
 10
-0.542925
 20
0.320675
 30
0.0381
  0
SEQEND
  5
2C0
  8
0
  6
BYBLOCK
 62
     0
  0
POLYLINE
  5
5F
  8
0
  6
BYBLOCK
 62
     0
 66
     1
 10
0.0
 20
0.0
 30
0.0381
  0
VERTEX
  5
1F4
  8
0
  6
BYBLOCK
 62
     0
 10
0.879475
 20
0.67945
 30
0.0381
  0
VERTEX
  5
1F5
  8
0
  6
BYBLOCK
 62
     0
 10
0.8731249999999999
 20
0.6985
 30
0.0381
  0
VERTEX
  5
1F6
  8
0
  6
BYBLOCK
 62
     0
 10
0.8635999999999999
 20
0.6826249999999999
 30
0.0381
  0
VERTEX
  5
1F7
  8
0
  6
BYBLOCK
 62
     0
 10
0.8540749999999999
 20
0.6095999999999999
 30
0.0381
  0
VERTEX
  5
1F8
  8
0
  6
BYBLOCK
 62
     0
 10
0.8255
 20
0.51435
 30
0.0381
  0
VERTEX
  5
1F9
  8
0
  6
BYBLOCK
 62
     0
 10
0.796925
 20
0.390525
 30
0.0381
  0
VERTEX
  5
1FA
  8
0
  6
BYBLOCK
 62
     0
 10
0.771525
 20
0.3302
 30
0.0381
  0
VERTEX
  5
1FB
  8
0
  6
BYBLOCK
 62
     0
 10
0.739775
 20
0.2921
 30
0.0381
  0
VERTEX
  5
1FC
  8
0
  6
BYBLOCK
 62
     0
 10
0.714375
 20
0.2794
 30
0.0381
  0
VERTEX
  5
1FD
  8
0
  6
BYBLOCK
 62
     0
 10
0.669925
 20
0.27305
 30
0.0381
  0
VERTEX
  5
1FE
  8
0
  6
BYBLOCK
 62
     0
 10
0.6286499999999999
 20
0.276225
 30
0.0381
  0
VERTEX
  5
1FF
  8
0
  6
BYBLOCK
 62
     0
 10
0.59055
 20
0.282575
 30
0.0381
  0
VERTEX
  5
200
  8
0
  6
BYBLOCK
 62
     0
 10
0.5588
 20
0.295275
 30
0.0381
  0
VERTEX
  5
201
  8
0
  6
BYBLOCK
 62
     0
 10
0.542925
 20
0.320675
 30
0.0381
  0
SEQEND
  5
2C1
  8
0
  6
BYBLOCK
 62
     0
  0
POLYLINE
  5
6F
  8
0
  6
BYBLOCK
 62
     0
 66
     1
 10
0.0
 20
0.0
 30
0.0381
 70
     1
  0
VERTEX
  5
202
  8
0
  6
BYBLOCK
 62
     0
 10
-0.422275
 20
0.644525
 30
0.0381
  0
VERTEX
  5
203
  8
0
  6
BYBLOCK
 62
     0
 10
-0.390525
 20
0.644525
 30
0.0381
  0
VERTEX
  5
204
  8
0
  6
BYBLOCK
 62
     0
 10
-0.365125
 20
0.61595
 30
0.0381
  0
VERTEX
  5
205
  8
0
  6
BYBLOCK
 62
     0
 10
-0.365125
 20
0.4572
 30
0.0381
  0
VERTEX
  5
206
  8
0
  6
BYBLOCK
 62
     0
 10
-0.3683
 20
0.381
 30
0.0381
  0
VERTEX
  5
207
  8
0
  6
BYBLOCK
 62
     0
 10
-0.403225
 20
0.3556
 30
0.0381
  0
VERTEX
  5
208
  8
0
  6
BYBLOCK
 62
     0
 10
-0.41275
 20
0.352425
 30
0.0381
  0
VERTEX
  5
209
  8
0
  6
BYBLOCK
 62
     0
 10
-0.441325
 20
0.37465
 30
0.0381
  0
VERTEX
  5
20A
  8
0
  6
BYBLOCK
 62
     0
 10
-0.45085
 20
0.454025
 30
0.0381
  0
VERTEX
  5
20B
  8
0
  6
BYBLOCK
 62
     0
 10
-0.4445
 20
0.61595
 30
0.0381
  0
SEQEND
  5
2C2
  8
0
  6
BYBLOCK
 62
     0
  0
POLYLINE
  5
7B
  8
0
  6
BYBLOCK
 62
     0
 66
     1
 10
0.0
 20
0.0
 30
0.0381
 70
     1
  0
VERTEX
  5
20C
  8
0
  6
BYBLOCK
 62
     0
 10
-0.508
 20
0.5651499999999999
 30
0.0381
  0
VERTEX
  5
20D
  8
0
  6
BYBLOCK
 62
     0
 10
-0.508
 20
0.635
 30
0.0381
  0
VERTEX
  5
20E
  8
0
  6
BYBLOCK
 62
     0
 10
-0.530225
 20
0.6604
 30
0.0381
  0
VERTEX
  5
20F
  8
0
  6
BYBLOCK
 62
     0
 10
-0.5461
 20
0.6604
 30
0.0381
  0
VERTEX
  5
210
  8
0
  6
BYBLOCK
 62
     0
 10
-0.5715
 20
0.6381749999999999
 30
0.0381
  0
VERTEX
  5
211
  8
0
  6
BYBLOCK
 62
     0
 10
-0.568325
 20
0.523875
 30
0.0381
  0
VERTEX
  5
212
  8
0
  6
BYBLOCK
 62
     0
 10
-0.568325
 20
0.508
 30
0.0381
  0
VERTEX
  5
213
  8
0
  6
BYBLOCK
 62
     0
 10
-0.530225
 20
0.508
 30
0.0381
  0
VERTEX
  5
214
  8
0
  6
BYBLOCK
 62
     0
 10
-0.508
 20
0.508
 30
0.0381
  0
SEQEND
  5
2C3
  8
0
  6
BYBLOCK
 62
     0
  0
POLYLINE
  5
86
  8
0
  6
BYBLOCK
 62
     0
 66
     1
 10
0.0
 20
0.0
 30
0.0381
  0
VERTEX
  5
215
  8
0
  6
BYBLOCK
 62
     0
 10
-0.5556249999999999
 20
0.1651
 30
0.0381
  0
VERTEX
  5
216
  8
0
  6
BYBLOCK
 62
     0
 10
-0.2032
 20
0.219075
 30
0.0381
  0
VERTEX
  5
217
  8
0
  6
BYBLOCK
 62
     0
 10
-0.174625
 20
0.1905
 30
0.0381
  0
VERTEX
  5
218
  8
0
  6
BYBLOCK
 62
     0
 10
-0.098425
 20
0.18415
 30
0.0381
  0
VERTEX
  5
219
  8
0
  6
BYBLOCK
 62
     0
 10
-0.0635
 20
0.14605
 30
0.0381
  0
VERTEX
  5
21A
  8
0
  6
BYBLOCK
 62
     0
 10
-0.003175
 20
0.136525
 30
0.0381
  0
SEQEND
  5
2C4
  8
0
  6
BYBLOCK
 62
     0
  0
POLYLINE
  5
8E
  8
0
  6
BYBLOCK
 62
     0
 66
     1
 10
0.0
 20
0.0
 30
0.0381
  0
VERTEX
  5
21B
  8
0
  6
BYBLOCK
 62
     0
 10
0.5556249999999999
 20
0.1651
 30
0.0381
  0
VERTEX
  5
21C
  8
0
  6
BYBLOCK
 62
     0
 10
0.2032
 20
0.219075
 30
0.0381
  0
VERTEX
  5
21D
  8
0
  6
BYBLOCK
 62
     0
 10
0.174625
 20
0.1905
 30
0.0381
  0
VERTEX
  5
21E
  8
0
  6
BYBLOCK
 62
     0
 10
0.098425
 20
0.18415
 30
0.0381
  0
VERTEX
  5
21F
  8
0
  6
BYBLOCK
 62
     0
 10
0.0635
 20
0.14605
 30
0.0381
  0
VERTEX
  5
220
  8
0
  6
BYBLOCK
 62
     0
 10
0.003175
 20
0.136525
 30
0.0381
  0
SEQEND
  5
2C5
  8
0
  6
BYBLOCK
 62
     0
  0
LINE
  5
96
  8
0
  6
BYBLOCK
 62
     0
 10
-0.003175
 20
0.136525
 30
0.0381
 11
0.003175
 21
0.136525
 31
0.0381
  0
ARC
  5
97
  8
0
  6
BYBLOCK
 62
     0
 10
0.0
 20
3.332284615384615
 30
0.0
 40
3.030659615384615
 50
260.5331233388491
 51
279.4668766611509
  0
POLYLINE
  5
98
  8
0
  6
BYBLOCK
 62
     0
 66
     1
 10
0.0
 20
0.0
 30
0.0381
  0
VERTEX
  5
221
  8
0
  6
BYBLOCK
 62
     0
 10
-0.365125
 20
0.3048
 30
0.0381
  0
VERTEX
  5
222
  8
0
  6
BYBLOCK
 62
     0
 10
-0.33655
 20
0.2413
 30
0.0381
  0
VERTEX
  5
223
  8
0
  6
BYBLOCK
 62
     0
 10
0.3302
 20
0.2413
 30
0.0381
  0
VERTEX
  5
224
  8
0
  6
BYBLOCK
 62
     0
 10
0.381
 20
0.301625
 30
0.0381
  0
SEQEND
  5
2C6
  8
0
  6
BYBLOCK
 62
     0
  0
LINE
  5
9E
  8
0
  6
BYBLOCK
 62
     0
 10
0.542925
 20
0.320675
 30
0.0381
 11
0.381
 21
0.301625
 31
0.0381
  0
LINE
  5
9F
  8
0
  6
BYBLOCK
 62
     0
 10
-0.542925
 20
0.320675
 30
0.0381
 11
-0.365125
 21
0.3048
 31
0.0381
  0
LINE
  5
A0
  8
0
  6
BYBLOCK
 62
     0
 10
0.568325
 20
0.5556249999999999
 30
0.0381
 11
0.51435
 21
0.5556249999999999
 31
0.0381
  0
LINE
  5
A1
  8
0
  6
BYBLOCK
 62
     0
 10
0.568325
 20
0.593725
 30
0.0381
 11
0.51435
 21
0.593725
 31
0.0381
  0
LINE
  5
A2
  8
0
  6
BYBLOCK
 62
     0
 10
-0.568325
 20
0.5556249999999999
 30
0.0381
 11
-0.51435
 21
0.5556249999999999
 31
0.0381
  0
LINE
  5
A3
  8
0
  6
BYBLOCK
 62
     0
 10
-0.568325
 20
0.593725
 30
0.0381
 11
-0.51435
 21
0.593725
 31
0.0381
  0
POLYLINE
  5
A4
  8
0
  6
BYBLOCK
 62
     0
 66
     1
 10
0.0
 20
0.0
 30
0.0381
  0
VERTEX
  5
225
  8
0
  6
BYBLOCK
 62
     0
 10
-0.4953
 20
0.796925
 30
0.0381
  0
VERTEX
  5
226
  8
0
  6
BYBLOCK
 62
     0
 10
-0.517525
 20
0.8286749999999999
 30
0.0381
  0
VERTEX
  5
227
  8
0
  6
BYBLOCK
 62
     0
 10
-0.561975
 20
0.8509
 30
0.0381
  0
VERTEX
  5
228
  8
0
  6
BYBLOCK
 62
     0
 10
-0.6286499999999999
 20
0.8826499999999999
 30
0.0381
  0
VERTEX
  5
229
  8
0
  6
BYBLOCK
 62
     0
 10
-0.688975
 20
0.8921749999999999
 30
0.0381
  0
VERTEX
  5
22A
  8
0
  6
BYBLOCK
 62
     0
 10
-0.771525
 20
0.885825
 30
0.0381
  0
VERTEX
  5
22B
  8
0
  6
BYBLOCK
 62
     0
 10
-0.8445499999999999
 20
0.847725
 30
0.0381
  0
VERTEX
  5
22C
  8
0
  6
BYBLOCK
 62
     0
 10
-0.866775
 20
0.815975
 30
0.0381
  0
VERTEX
  5
22D
  8
0
  6
BYBLOCK
 62
     0
 10
-0.8826499999999999
 20
0.7461249999999999
 30
0.0381
  0
VERTEX
  5
22E
  8
0
  6
BYBLOCK
 62
     0
 10
-0.885825
 20
0.708025
 30
0.0381
  0
VERTEX
  5
22F
  8
0
  6
BYBLOCK
 62
     0
 10
-0.879475
 20
0.657225
 30
0.0381
  0
SEQEND
  5
2C7
  8
0
  6
BYBLOCK
 62
     0
  0
POLYLINE
  5
B1
  8
0
  6
BYBLOCK
 62
     0
 66
     1
 10
0.0
 20
0.0
 30
0.0381
  0
VERTEX
  5
230
  8
0
  6
BYBLOCK
 62
     0
 10
-0.5715
 20
1.120775
 30
0.0381
  0
VERTEX
  5
231
  8
0
  6
BYBLOCK
 62
     0
 10
-0.587375
 20
1.11125
 30
0.0381
  0
VERTEX
  5
232
  8
0
  6
BYBLOCK
 62
     0
 10
-0.657225
 20
0.89535
 30
0.0381
  0
SEQEND
  5
2C8
  8
0
  6
BYBLOCK
 62
     0
  0
POLYLINE
  5
B6
  8
0
  6
BYBLOCK
 62
     0
 66
     1
 10
0.0
 20
0.0
 30
0.0381
  0
VERTEX
  5
233
  8
0
  6
BYBLOCK
 62
     0
 10
0.568325
 20
1.12395
 30
0.0381
  0
VERTEX
  5
234
  8
0
  6
BYBLOCK
 62
     0
 10
0.59055
 20
1.11125
 30
0.0381
  0
VERTEX
  5
235
  8
0
  6
BYBLOCK
 62
     0
 10
0.657225
 20
0.8921749999999999
 30
0.0381
  0
SEQEND
  5
2C9
  8
0
  6
BYBLOCK
 62
     0
  0
POLYLINE
  5
BB
  8
0
  6
BYBLOCK
 62
     0
 66
     1
 10
0.0
 20
0.0
 30
0.0381
 70
     1
  0
VERTEX
  5
236
  8
0
  6
BYBLOCK
 62
     0
 10
-0.200025
 20
0.889
 30
0.0381
  0
VERTEX
  5
237
  8
0
  6
BYBLOCK
 62
     0
 10
-0.200025
 20
1.0414
 30
0.0381
  0
VERTEX
  5
238
  8
0
  6
BYBLOCK
 62
     0
 10
-0.20955
 20
1.0922
 30
0.0381
  0
VERTEX
  5
239
  8
0
  6
BYBLOCK
 62
     0
 10
-0.231775
 20
1.143
 30
0.0381
  0
VERTEX
  5
23A
  8
0
  6
BYBLOCK
 62
     0
 10
-0.276225
 20
1.1811
 30
0.0381
  0
VERTEX
  5
23B
  8
0
  6
BYBLOCK
 62
     0
 10
-0.31115
 20
1.20015
 30
0.0381
  0
VERTEX
  5
23C
  8
0
  6
BYBLOCK
 62
     0
 10
-0.36195
 20
1.2065
 30
0.0381
  0
VERTEX
  5
23D
  8
0
  6
BYBLOCK
 62
     0
 10
-0.415925
 20
1.20015
 30
0.0381
  0
VERTEX
  5
23E
  8
0
  6
BYBLOCK
 62
     0
 10
-0.4572
 20
1.17475
 30
0.0381
  0
VERTEX
  5
23F
  8
0
  6
BYBLOCK
 62
     0
 10
-0.498475
 20
1.13665
 30
0.0381
  0
VERTEX
  5
240
  8
0
  6
BYBLOCK
 62
     0
 10
-0.523875
 20
1.0922
 30
0.0381
  0
VERTEX
  5
241
  8
0
  6
BYBLOCK
 62
     0
 10
-0.52705
 20
1.0414
 30
0.0381
  0
VERTEX
  5
242
  8
0
  6
BYBLOCK
 62
     0
 10
-0.52705
 20
0.8509
 30
0.0381
  0
VERTEX
  5
243
  8
0
  6
BYBLOCK
 62
     0
 10
-0.5016499999999999
 20
0.841375
 30
0.0381
  0
VERTEX
  5
244
  8
0
  6
BYBLOCK
 62
     0
 10
-0.4826
 20
0.847725
 30
0.0381
  0
VERTEX
  5
245
  8
0
  6
BYBLOCK
 62
     0
 10
-0.47625
 20
0.85725
 30
0.0381
  0
VERTEX
  5
246
  8
0
  6
BYBLOCK
 62
     0
 10
-0.47625
 20
1.0414
 30
0.0381
  0
VERTEX
  5
247
  8
0
  6
BYBLOCK
 62
     0
 10
-0.46355
 20
1.082675
 30
0.0381
  0
VERTEX
  5
248
  8
0
  6
BYBLOCK
 62
     0
 10
-0.447675
 20
1.108075
 30
0.0381
  0
VERTEX
  5
249
  8
0
  6
BYBLOCK
 62
     0
 10
-0.428625
 20
1.1303
 30
0.0381
  0
VERTEX
  5
24A
  8
0
  6
BYBLOCK
 62
     0
 10
-0.396875
 20
1.14935
 30
0.0381
  0
VERTEX
  5
24B
  8
0
  6
BYBLOCK
 62
     0
 10
-0.36195
 20
1.152525
 30
0.0381
  0
VERTEX
  5
24C
  8
0
  6
BYBLOCK
 62
     0
 10
-0.3302
 20
1.146175
 30
0.0381
  0
VERTEX
  5
24D
  8
0
  6
BYBLOCK
 62
     0
 10
-0.2921
 20
1.1303
 30
0.0381
  0
VERTEX
  5
24E
  8
0
  6
BYBLOCK
 62
     0
 10
-0.27305
 20
1.108075
 30
0.0381
  0
VERTEX
  5
24F
  8
0
  6
BYBLOCK
 62
     0
 10
-0.257175
 20
1.076325
 30
0.0381
  0
VERTEX
  5
250
  8
0
  6
BYBLOCK
 62
     0
 10
-0.254
 20
1.0414
 30
0.0381
  0
VERTEX
  5
251
  8
0
  6
BYBLOCK
 62
     0
 10
-0.254
 20
0.8826499999999999
 30
0.0381
  0
VERTEX
  5
252
  8
0
  6
BYBLOCK
 62
     0
 10
-0.231775
 20
0.8731249999999999
 30
0.0381
  0
VERTEX
  5
253
  8
0
  6
BYBLOCK
 62
     0
 10
-0.20955
 20
0.8763
 30
0.0381
  0
SEQEND
  5
2CA
  8
0
  6
BYBLOCK
 62
     0
  0
POLYLINE
  5
DB
  8
0
  6
BYBLOCK
 62
     0
 66
     1
 10
0.0
 20
0.0
 30
0.0381
  0
VERTEX
  5
254
  8
0
  6
BYBLOCK
 62
     0
 10
0.6191249999999999
 20
0.879475
 30
0.0381
  0
VERTEX
  5
255
  8
0
  6
BYBLOCK
 62
     0
 10
0.561975
 20
1.139825
 30
0.0381
  0
VERTEX
  5
256
  8
0
  6
BYBLOCK
 62
     0
 10
0.549275
 20
1.1684
 30
0.0381
  0
VERTEX
  5
257
  8
0
  6
BYBLOCK
 62
     0
 10
0.523875
 20
1.1811
 30
0.0381
  0
VERTEX
  5
258
  8
0
  6
BYBLOCK
 62
     0
 10
0.428625
 20
1.196975
 30
0.0381
  0
VERTEX
  5
259
  8
0
  6
BYBLOCK
 62
     0
 10
0.314325
 20
1.21285
 30
0.0381
  0
VERTEX
  5
25A
  8
0
  6
BYBLOCK
 62
     0
 10
0.1524
 20
1.2192
 30
0.0381
  0
VERTEX
  5
25B
  8
0
  6
BYBLOCK
 62
     0
 10
0.0
 20
1.222375
 30
0.0381
  0
SEQEND
  5
2CB
  8
0
  6
BYBLOCK
 62
     0
  0
POLYLINE
  5
E5
  8
0
  6
BYBLOCK
 62
     0
 66
     1
 10
0.0
 20
0.0
 30
0.0381
  0
VERTEX
  5
25C
  8
0
  6
BYBLOCK
 62
     0
 10
-0.2794
 20
1.190625
 30
0.0381
  0
VERTEX
  5
25D
  8
0
  6
BYBLOCK
 62
     0
 10
-0.155575
 20
1.1938
 30
0.0381
  0
VERTEX
  5
25E
  8
0
  6
BYBLOCK
 62
     0
 10
0.155575
 20
1.1938
 30
0.0381
  0
VERTEX
  5
25F
  8
0
  6
BYBLOCK
 62
     0
 10
0.3175
 20
1.184275
 30
0.0381
  0
VERTEX
  5
260
  8
0
  6
BYBLOCK
 62
     0
 10
0.428625
 20
1.17475
 30
0.0381
  0
VERTEX
  5
261
  8
0
  6
BYBLOCK
 62
     0
 10
0.52705
 20
1.152525
 30
0.0381
  0
VERTEX
  5
262
  8
0
  6
BYBLOCK
 62
     0
 10
0.5461
 20
1.139825
 30
0.0381
  0
VERTEX
  5
263
  8
0
  6
BYBLOCK
 62
     0
 10
0.587375
 20
0.86995
 30
0.0381
  0
SEQEND
  5
2CC
  8
0
  6
BYBLOCK
 62
     0
  0
POLYLINE
  5
EF
  8
0
  6
BYBLOCK
 62
     0
 66
     1
 10
0.0
 20
0.0
 30
0.0381
  0
VERTEX
  5
264
  8
0
  6
BYBLOCK
 62
     0
 10
-0.587375
 20
0.86995
 30
0.0381
  0
VERTEX
  5
265
  8
0
  6
BYBLOCK
 62
     0
 10
-0.542925
 20
1.139825
 30
0.0381
  0
VERTEX
  5
266
  8
0
  6
BYBLOCK
 62
     0
 10
-0.517525
 20
1.158875
 30
0.0381
  0
VERTEX
  5
267
  8
0
  6
BYBLOCK
 62
     0
 10
-0.47625
 20
1.1684
 30
0.0381
  0
SEQEND
  5
2CD
  8
0
  6
BYBLOCK
 62
     0
  0
POLYLINE
  5
F5
  8
0
  6
BYBLOCK
 62
     0
 66
     1
 10
0.0
 20
0.0
 30
0.0381
  0
VERTEX
  5
268
  8
0
  6
BYBLOCK
 62
     0
 10
-0.00635
 20
1.222375
 30
0.0381
  0
VERTEX
  5
269
  8
0
  6
BYBLOCK
 62
     0
 10
-0.1651
 20
1.2192
 30
0.0381
  0
VERTEX
  5
26A
  8
0
  6
BYBLOCK
 62
     0
 10
-0.32385
 20
1.209675
 30
0.0381
  0
VERTEX
  5
26B
  8
0
  6
BYBLOCK
 62
     0
 10
-0.4191
 20
1.20015
 30
0.0381
  0
VERTEX
  5
26C
  8
0
  6
BYBLOCK
 62
     0
 10
-0.52705
 20
1.1811
 30
0.0381
  0
VERTEX
  5
26D
  8
0
  6
BYBLOCK
 62
     0
 10
-0.5588
 20
1.158875
 30
0.0381
  0
VERTEX
  5
26E
  8
0
  6
BYBLOCK
 62
     0
 10
-0.5715
 20
1.1303
 30
0.0381
  0
VERTEX
  5
26F
  8
0
  6
BYBLOCK
 62
     0
 10
-0.6191249999999999
 20
0.8763
 30
0.0381
  0
SEQEND
  5
2CE
  8
0
  6
BYBLOCK
 62
     0
  0
POLYLINE
  5
FF
  8
0
  6
BYBLOCK
 62
     0
 66
     1
 10
0.0
 20
0.0
 30
0.0381
  0
VERTEX
  5
270
  8
0
  6
BYBLOCK
 62
     0
 10
0.4953
 20
0.796925
 30
0.0381
  0
VERTEX
  5
271
  8
0
  6
BYBLOCK
 62
     0
 10
0.517525
 20
0.8286749999999999
 30
0.0381
  0
VERTEX
  5
272
  8
0
  6
BYBLOCK
 62
     0
 10
0.561975
 20
0.8509
 30
0.0381
  0
VERTEX
  5
273
  8
0
  6
BYBLOCK
 62
     0
 10
0.6286499999999999
 20
0.8826499999999999
 30
0.0381
  0
VERTEX
  5
274
  8
0
  6
BYBLOCK
 62
     0
 10
0.688975
 20
0.8921749999999999
 30
0.0381
  0
VERTEX
  5
275
  8
0
  6
BYBLOCK
 62
     0
 10
0.771525
 20
0.885825
 30
0.0381
  0
VERTEX
  5
276
  8
0
  6
BYBLOCK
 62
     0
 10
0.8445499999999999
 20
0.847725
 30
0.0381
  0
VERTEX
  5
277
  8
0
  6
BYBLOCK
 62
     0
 10
0.866775
 20
0.815975
 30
0.0381
  0
VERTEX
  5
278
  8
0
  6
BYBLOCK
 62
     0
 10
0.8826499999999999
 20
0.7461249999999999
 30
0.0381
  0
VERTEX
  5
279
  8
0
  6
BYBLOCK
 62
     0
 10
0.885825
 20
0.708025
 30
0.0381
  0
VERTEX
  5
27A
  8
0
  6
BYBLOCK
 62
     0
 10
0.879475
 20
0.657225
 30
0.0381
  0
SEQEND
  5
2CF
  8
0
  6
BYBLOCK
 62
     0
  0
POLYLINE
  5
10C
  8
0
  6
BYBLOCK
 62
     0
 66
     1
 10
0.0
 20
0.0
 30
0.0381
  0
VERTEX
  5
27B
  8
0
  6
BYBLOCK
 62
     0
 10
0.111125
 20
0.6730999999999999
 30
0.0381
  0
VERTEX
  5
27C
  8
0
  6
BYBLOCK
 62
     0
 10
0.1016
 20
0.7016749999999999
 30
0.0381
  0
VERTEX
  5
27D
  8
0
  6
BYBLOCK
 62
     0
 10
0.079375
 20
0.71755
 30
0.0381
  0
VERTEX
  5
27E
  8
0
  6
BYBLOCK
 62
     0
 10
0.0
 20
0.71755
 30
0.0381
  0
SEQEND
  5
2D0
  8
0
  6
BYBLOCK
 62
     0
  0
POLYLINE
  5
112
  8
0
  6
BYBLOCK
 62
     0
 66
     1
 10
0.0
 20
0.0
 30
0.0381
  0
VERTEX
  5
27F
  8
0
  6
BYBLOCK
 62
     0
 10
-0.111125
 20
0.6730999999999999
 30
0.0381
  0
VERTEX
  5
280
  8
0
  6
BYBLOCK
 62
     0
 10
-0.1016
 20
0.7016749999999999
 30
0.0381
  0
VERTEX
  5
281
  8
0
  6
BYBLOCK
 62
     0
 10
-0.079375
 20
0.71755
 30
0.0381
  0
VERTEX
  5
282
  8
0
  6
BYBLOCK
 62
     0
 10
0.0
 20
0.71755
 30
0.0381
  0
SEQEND
  5
2D1
  8
0
  6
BYBLOCK
 62
     0
  0
LINE
  5
118
  8
0
  6
BYBLOCK
 62
     0
 10
0.111125
 20
0.6730999999999999
 30
0.0381
 11
0.0
 21
0.6730999999999999
 31
0.0381
  0
LINE
  5
119
  8
0
  6
BYBLOCK
 62
     0
 10
-0.111125
 20
0.6730999999999999
 30
0.0381
 11
0.0
 21
0.6730999999999999
 31
0.0381
  0
LINE
  5
11A
  8
0
  6
BYBLOCK
 62
     0
 10
-0.18415
 20
0.898525
 30
0.0381
 11
-0.079375
 21
0.904875
 31
0.0381
  0
POLYLINE
  5
11B
  8
0
  6
BYBLOCK
 62
     0
 66
     1
 10
0.0
 20
0.0
 30
0.0381
  0
VERTEX
  5
283
  8
0
  6
BYBLOCK
 62
     0
 10
-0.1905
 20
0.949325
 30
0.0381
  0
VERTEX
  5
284
  8
0
  6
BYBLOCK
 62
     0
 10
-0.0508
 20
0.9620249999999999
 30
0.0381
  0
VERTEX
  5
285
  8
0
  6
BYBLOCK
 62
     0
 10
0.066675
 20
0.9620249999999999
 30
0.0381
  0
VERTEX
  5
286
  8
0
  6
BYBLOCK
 62
     0
 10
0.1905
 20
0.949325
 30
0.0381
  0
VERTEX
  5
287
  8
0
  6
BYBLOCK
 62
     0
 10
0.3175
 20
0.9270999999999999
 30
0.0381
  0
VERTEX
  5
288
  8
0
  6
BYBLOCK
 62
     0
 10
0.3683
 20
0.9175749999999999
 30
0.0381
  0
SEQEND
  5
2D2
  8
0
  6
BYBLOCK
 62
     0
  0
POLYLINE
  5
123
  8
0
  6
BYBLOCK
 62
     0
 66
     1
 10
0.0
 20
0.0
 30
0.0381
 70
     1
  0
VERTEX
  5
289
  8
0
  6
BYBLOCK
 62
     0
 10
-0.053975
 20
0.8921749999999999
 30
0.0381
  0
VERTEX
  5
28A
  8
0
  6
BYBLOCK
 62
     0
 10
-0.060325
 20
0.9080499999999999
 30
0.0381
  0
VERTEX
  5
28B
  8
0
  6
BYBLOCK
 62
     0
 10
-0.0762
 20
0.9144
 30
0.0381
  0
VERTEX
  5
28C
  8
0
  6
BYBLOCK
 62
     0
 10
-0.09525
 20
0.9175749999999999
 30
0.0381
  0
VERTEX
  5
28D
  8
0
  6
BYBLOCK
 62
     0
 10
-0.09525
 20
0.9366249999999999
 30
0.0381
  0
VERTEX
  5
28E
  8
0
  6
BYBLOCK
 62
     0
 10
-0.073025
 20
0.9366249999999999
 30
0.0381
  0
VERTEX
  5
28F
  8
0
  6
BYBLOCK
 62
     0
 10
-0.066675
 20
0.930275
 30
0.0381
  0
VERTEX
  5
290
  8
0
  6
BYBLOCK
 62
     0
 10
-0.0635
 20
0.930275
 30
0.0381
  0
VERTEX
  5
291
  8
0
  6
BYBLOCK
 62
     0
 10
-0.041275
 20
0.9398
 30
0.0381
  0
VERTEX
  5
292
  8
0
  6
BYBLOCK
 62
     0
 10
0.034925
 20
0.9398
 30
0.0381
  0
VERTEX
  5
293
  8
0
  6
BYBLOCK
 62
     0
 10
0.060325
 20
0.93345
 30
0.0381
  0
VERTEX
  5
294
  8
0
  6
BYBLOCK
 62
     0
 10
0.08255
 20
0.942975
 30
0.0381
  0
VERTEX
  5
295
  8
0
  6
BYBLOCK
 62
     0
 10
0.0889
 20
0.9366249999999999
 30
0.0381
  0
VERTEX
  5
296
  8
0
  6
BYBLOCK
 62
     0
 10
0.066675
 20
0.92075
 30
0.0381
  0
VERTEX
  5
297
  8
0
  6
BYBLOCK
 62
     0
 10
0.066675
 20
0.9080499999999999
 30
0.0381
  0
VERTEX
  5
298
  8
0
  6
BYBLOCK
 62
     0
 10
0.05715
 20
0.8921749999999999
 30
0.0381
  0
VERTEX
  5
299
  8
0
  6
BYBLOCK
 62
     0
 10
0.0
 20
0.8826499999999999
 30
0.0381
  0
SEQEND
  5
2D3
  8
0
  6
BYBLOCK
 62
     0
  0
POLYLINE
  5
136
  8
0
  6
BYBLOCK
 62
     0
 66
     1
 10
0.0
 20
0.0
 30
0.0381
  0
VERTEX
  5
29A
  8
0
  6
BYBLOCK
 62
     0
 10
0.073025
 20
0.904875
 30
0.0381
  0
VERTEX
  5
29B
  8
0
  6
BYBLOCK
 62
     0
 10
0.200025
 20
0.898525
 30
0.0381
  0
VERTEX
  5
29C
  8
0
  6
BYBLOCK
 62
     0
 10
0.3175
 20
0.885825
 30
0.0381
  0
VERTEX
  5
29D
  8
0
  6
BYBLOCK
 62
     0
 10
0.4318
 20
0.86995
 30
0.0381
  0
VERTEX
  5
29E
  8
0
  6
BYBLOCK
 62
     0
 10
0.5111749999999999
 20
0.8509
 30
0.0381
  0
VERTEX
  5
29F
  8
0
  6
BYBLOCK
 62
     0
 10
0.53975
 20
0.841375
 30
0.0381
  0
SEQEND
  5
2D4
  8
0
  6
BYBLOCK
 62
     0
  0
POLYLINE
  5
13E
  8
0
  6
BYBLOCK
 62
     0
 66
     1
 10
0.0
 20
0.0
 30
0.0381
  0
VERTEX
  5
2A0
  8
0
  6
BYBLOCK
 62
     0
 10
0.269875
 20
0.8921749999999999
 30
0.0381
  0
VERTEX
  5
2A1
  8
0
  6
BYBLOCK
 62
     0
 10
0.2921
 20
0.904875
 30
0.0381
  0
VERTEX
  5
2A2
  8
0
  6
BYBLOCK
 62
     0
 10
0.3429
 20
0.911225
 30
0.0381
  0
VERTEX
  5
2A3
  8
0
  6
BYBLOCK
 62
     0
 10
0.38735
 20
0.9144
 30
0.0381
  0
VERTEX
  5
2A4
  8
0
  6
BYBLOCK
 62
     0
 10
0.447675
 20
0.9144
 30
0.0381
  0
VERTEX
  5
2A5
  8
0
  6
BYBLOCK
 62
     0
 10
0.4953
 20
0.9017
 30
0.0381
  0
VERTEX
  5
2A6
  8
0
  6
BYBLOCK
 62
     0
 10
0.530225
 20
0.885825
 30
0.0381
  0
VERTEX
  5
2A7
  8
0
  6
BYBLOCK
 62
     0
 10
0.5588
 20
0.85725
 30
0.0381
  0
SEQEND
  5
2D5
  8
0
  6
BYBLOCK
 62
     0
  0
LINE
  5
148
  8
0
  6
BYBLOCK
 62
     0
 10
-0.05715
 20
0.911225
 30
0.0381
 11
0.060325
 21
0.911225
 31
0.0381
  0
LINE
  5
149
  8
0
  6
BYBLOCK
 62
     0
 10
-0.05715
 20
0.9270999999999999
 30
0.0381
 11
0.060325
 21
0.9270999999999999
 31
0.0381
  0
POLYLINE
  5
14A
  8
0
  6
BYBLOCK
 62
     0
 66
     1
 10
0.0
 20
0.0
 30
0.0381
  0
VERTEX
  5
2A8
  8
0
  6
BYBLOCK
 62
     0
 10
-0.46355
 20
0.8826499999999999
 30
0.0381
  0
VERTEX
  5
2A9
  8
0
  6
BYBLOCK
 62
     0
 10
-0.428625
 20
0.898525
 30
0.0381
  0
VERTEX
  5
2AA
  8
0
  6
BYBLOCK
 62
     0
 10
-0.3556
 20
0.898525
 30
0.0381
  0
VERTEX
  5
2AB
  8
0
  6
BYBLOCK
 62
     0
 10
-0.314325
 20
0.8826499999999999
 30
0.0381
  0
SEQEND
  5
2D6
  8
0
  6
BYBLOCK
 62
     0
  0
POLYLINE
  5
150
  8
0
  6
BYBLOCK
 62
     0
 66
     1
 10
0.0
 20
0.0
 30
0.0381
  0
VERTEX
  5
2AC
  8
0
  6
BYBLOCK
 62
     0
 10
-0.466725
 20
0.9017
 30
0.0381
  0
VERTEX
  5
2AD
  8
0
  6
BYBLOCK
 62
     0
 10
-0.409575
 20
0.923925
 30
0.0381
  0
VERTEX
  5
2AE
  8
0
  6
BYBLOCK
 62
     0
 10
-0.365125
 20
0.9270999999999999
 30
0.0381
  0
VERTEX
  5
2AF
  8
0
  6
BYBLOCK
 62
     0
 10
-0.320675
 20
0.92075
 30
0.0381
  0
VERTEX
  5
2B0
  8
0
  6
BYBLOCK
 62
     0
 10
-0.28575
 20
0.9080499999999999
 30
0.0381
  0
VERTEX
  5
2B1
  8
0
  6
BYBLOCK
 62
     0
 10
-0.2667
 20
0.889
 30
0.0381
  0
SEQEND
  5
2D7
  8
0
  6
BYBLOCK
 62
     0
  0
POLYLINE
  5
158
  8
0
  6
BYBLOCK
 62
     0
 66
     1
 10
0.0
 20
0.0
 30
0.0381
  0
VERTEX
  5
2B2
  8
0
  6
BYBLOCK
 62
     0
 10
-0.46355
 20
0.860425
 30
0.0381
  0
VERTEX
  5
2B3
  8
0
  6
BYBLOCK
 62
     0
 10
-0.42545
 20
0.866775
 30
0.0381
  0
VERTEX
  5
2B4
  8
0
  6
BYBLOCK
 62
     0
 10
-0.320675
 20
0.8763
 30
0.0381
  0
VERTEX
  5
2B5
  8
0
  6
BYBLOCK
 62
     0
 10
-0.257175
 20
0.879475
 30
0.0381
  0
SEQEND
  5
2D8
  8
0
  6
BYBLOCK
 62
     0
  0
LINE
  5
15E
  8
0
  6
BYBLOCK
 62
     0
 10
-0.549275
 20
0.8445499999999999
 30
0.0381
 11
-0.5334
 21
0.8635999999999999
 31
0.0381
  0
LINE
  5
15F
  8
0
  6
BYBLOCK
 62
     0
 10
-0.5588
 20
0.860425
 30
0.0381
 11
-0.530225
 21
0.889
 31
0.0381
  0
POLYLINE
  5
160
  8
0
  6
BYBLOCK
 62
     0
 66
     1
 10
0.0
 20
0.0
 30
0.0381
  0
VERTEX
  5
2B6
  8
0
  6
BYBLOCK
 62
     0
 10
-0.4699
 20
0.9398
 30
0.0381
  0
VERTEX
  5
2B7
  8
0
  6
BYBLOCK
 62
     0
 10
-0.428625
 20
0.9525
 30
0.0381
  0
VERTEX
  5
2B8
  8
0
  6
BYBLOCK
 62
     0
 10
-0.365125
 20
0.9652
 30
0.0381
  0
VERTEX
  5
2B9
  8
0
  6
BYBLOCK
 62
     0
 10
-0.307975
 20
0.9525
 30
0.0381
  0
VERTEX
  5
2BA
  8
0
  6
BYBLOCK
 62
     0
 10
-0.2667
 20
0.93345
 30
0.0381
  0
VERTEX
  5
2BB
  8
0
  6
BYBLOCK
 62
     0
 10
-0.254
 20
0.923925
 30
0.0381
  0
SEQEND
  5
2D9
  8
0
  6
BYBLOCK
 62
     0
  0
POLYLINE
  5
16D
  8
_KTI_CONTROL
 10
0.0
 20
0.0
 30
0.0
 66
     1
 70
     8
1001
_KTI_ARCHT
1070
 12000
1000
ENVIRONMENT
1070
 10003
1000
02rcar11
1070
 20000
1000
standard
1070
 20001
1000
c:\program files\ketiv\archt
1070
 20003
1000
d:\archt
1070
 20002
1000
c:\program files\ketiv\archt\tmp
1070
 20004
1002
{
1000
c:\program files\ketiv\archt\blks
1000
c:\program files\ketiv\archt\blks3d
1000
e:\archt\blks
1000
e:\archt\blks3d
1000
d:\archt\blks
1000
d:\archt\blks3d
1002
}
1070
 20005
1002
{
1000
c:\program files\ketiv\archt\slds
1002
}
1070
 20006
1002
{
1000
c:\program files\ketiv\archt\dclswin
1002
}
1070
 20007
1002
{
1000
c:\program files\ketiv\archt\docs
1000
e:\archt\docs
1000
d:\archt\docs
1002
}
1070
 20008
1002
{
1000
c:\program files\ketiv\archt\help
1002
}
  0
VERTEX
  5
16E
  8
_KTI_CONTROL
 10
0.0
 20
0.0
 30
0.0
 70
    32
  0
VERTEX
  5
16F
  8
_KTI_CONTROL
 10
0.0
 20
0.0
 30
0.0
 70
    32
  0
SEQEND
  5
170
  8
_KTI_CONTROL
  0
POLYLINE
  5
171
  8
_KTI_CONTROL
 10
0.0
 20
0.0
 30
0.0
 66
     1
 70
     8
1001
_KTI_ARCHT
1070
 12000
1000
ARCHTVARS
1070
 10003
1000
02rcar11
1070
 12030
1000
m
1070
 12020
1070
     1
1070
 12021
1070
     0
1070
 12070
1070
     0
1070
 12071
1070
     1
1070
 12907
1070
     0
1070
 12913
1070
     1
1070
 12914
1070
     1
1070
 12072
1070
     2
1070
 12073
1070
    48
1070
 12074
1070
     0
1070
 12080
1070
     1
1070
 12092
1070
     1
1070
 12096
1070
     0
1070
 12095
1070
     0
1070
 12081
1070
     1
1070
 12082
1070
     1
1070
 12083
1070
     1
1070
 12084
1070
     1
1070
 12085
1070
     0
1070
 12086
1070
     1
1070
 12087
1070
     0
1070
 12088
1070
     0
1070
 12097
1070
     1
1070
 12089
1070
     4
1070
 12090
1070
     6
1070
 12091
1070
     1
1070
 12045
1000

1070
 12046
1000

1070
 12047
1000
standard
1070
 12048
1000

1070
 12049
1000

1070
 12093
1070
     1
1070
 12094
1070
     1
1070
 12908
1070
     0
1070
 12909
1070
     0
1070
 12911
1070
     0
1070
 12910
1070
     0
1070
 12912
1070
     0
1070
 12098
1070
   800
1070
 12060
1002
{
1000

1000

1000

1000

1002
}
1070
 12904
1002
{
1070
     0
1070
     0
1070
     0
1070
     0
1070
     0
1002
}
1070
 12905
1002
{
1040
0.0
1040
0.0
1040
0.0
1040
0.0
1040
0.0
1002
}
1070
 12906
1002
{
1000

1000

1000

1000

1000

1002
}
1070
 12040
1002
{
1002
}
  0
VERTEX
  5
172
  8
_KTI_CONTROL
 10
0.0
 20
0.0
 30
0.0
 70
    32
  0
VERTEX
  5
173
  8
_KTI_CONTROL
 10
0.0
 20
0.0
 30
0.0
 70
    32
  0
SEQEND
  5
174
  8
_KTI_CONTROL
  0
ENDSEC
  0
EOF
