  0
SECTION
  2
HEADER
  9
$ACADVER
  1
AC1009
  9
$DWGCODEPAGE
  3
ansi_1252
  9
$INSBASE
 10
3.888680161415766
 20
0.0043519346447906
 30
0.0
  9
$EXTMIN
 10
0.2875467752370806
 20
0.0043519346447906
 30
0.0
  9
$EXTMAX
 10
4.731194163618841
 20
1.202396852214463
 30
0.0
  9
$LIMMIN
 10
-16.1
 20
-11.9
  9
$LIMMAX
 10
44.90000000000001
 20
28.9
  9
$ORTHOMODE
 70
     0
  9
$REGENMODE
 70
     0
  9
$FILLMODE
 70
     1
  9
$QTEXTMODE
 70
     0
  9
$MIRRTEXT
 70
     1
  9
$DRAGMODE
 70
     2
  9
$LTSCALE
 40
1.2
  9
$OSMODE
 70
    37
  9
$ATTMODE
 70
     1
  9
$TEXTSIZE
 40
0.2
  9
$TRACEWID
 40
0.05
  9
$TEXTSTYLE
  7
STANDARD
  9
$CLAYER
  8
0
  9
$CELTYPE
  6
BYLAYER
  9
$CECOLOR
 62
   256
  9
$DIMSCALE
 40
1.2
  9
$DIMASZ
 40
0.18
  9
$DIMEXO
 40
0.08
  9
$DIMDLI
 40
0.38
  9
$DIMRND
 40
0.0
  9
$DIMDLE
 40
0.0
  9
$DIMEXE
 40
0.1
  9
$DIMTP
 40
0.0
  9
$DIMTM
 40
0.0
  9
$DIMTXT
 40
0.18
  9
$DIMCEN
 40
0.09
  9
$DIMTSZ
 40
0.07
  9
$DIMTOL
 70
     0
  9
$DIMLIM
 70
     0
  9
$DIMTIH
 70
     0
  9
$DIMTOH
 70
     1
  9
$DIMSE1
 70
     0
  9
$DIMSE2
 70
     0
  9
$DIMTAD
 70
     0
  9
$DIMZIN
 70
     0
  9
$DIMBLK
  1

  9
$DIMASO
 70
     1
  9
$DIMSHO
 70
     1
  9
$DIMPOST
  1

  9
$DIMAPOST
  1

  9
$DIMALT
 70
     0
  9
$DIMALTD
 70
     2
  9
$DIMALTF
 40
25.4
  9
$DIMLFAC
 40
1.0
  9
$DIMTOFL
 70
     0
  9
$DIMTVP
 40
0.0
  9
$DIMTIX
 70
     0
  9
$DIMSOXD
 70
     0
  9
$DIMSAH
 70
     0
  9
$DIMBLK1
  1

  9
$DIMBLK2
  1

  9
$DIMSTYLE
  2
STANDARD
  9
$DIMCLRD
 70
     0
  9
$DIMCLRE
 70
     0
  9
$DIMCLRT
 70
     0
  9
$DIMTFAC
 40
1.0
  9
$DIMGAP
 40
0.09
  9
$LUNITS
 70
     2
  9
$LUPREC
 70
     3
  9
$SKETCHINC
 40
0.1
  9
$FILLETRAD
 40
0.0
  9
$AUNITS
 70
     0
  9
$AUPREC
 70
     2
  9
$MENU
  1
RM
  9
$ELEVATION
 40
0.0
  9
$PELEVATION
 40
0.0
  9
$THICKNESS
 40
0.0
  9
$LIMCHECK
 70
     0
  9
$CHAMFERA
 40
0.0
  9
$CHAMFERB
 40
0.0
  9
$SKPOLY
 70
     0
  9
$TDCREATE
 40
2449215.88421713
  9
$TDUPDATE
 40
2458028.720856482
  9
$TDINDWG
 40
0.0136069213
  9
$TDUSRTIMER
 40
0.0136069213
  9
$USRTIMER
 70
     1
  9
$ANGBASE
 50
0.0
  9
$ANGDIR
 70
     0
  9
$PDMODE
 70
     0
  9
$PDSIZE
 40
0.0
  9
$PLINEWID
 40
0.0
  9
$COORDS
 70
     1
  9
$SPLFRAME
 70
     0
  9
$SPLINETYPE
 70
     6
  9
$SPLINESEGS
 70
     8
  9
$ATTDIA
 70
     0
  9
$ATTREQ
 70
     1
  9
$HANDLING
 70
     1
  9
$HANDSEED
  5
C4
  9
$SURFTAB1
 70
     6
  9
$SURFTAB2
 70
     6
  9
$SURFTYPE
 70
     6
  9
$SURFU
 70
     6
  9
$SURFV
 70
     6
  9
$UCSNAME
  2

  9
$UCSORG
 10
0.0
 20
0.0
 30
0.0
  9
$UCSXDIR
 10
1.0
 20
0.0
 30
0.0
  9
$UCSYDIR
 10
0.0
 20
1.0
 30
0.0
  9
$PUCSNAME
  2

  9
$PUCSORG
 10
0.0
 20
0.0
 30
0.0
  9
$PUCSXDIR
 10
1.0
 20
0.0
 30
0.0
  9
$PUCSYDIR
 10
0.0
 20
1.0
 30
0.0
  9
$USERI1
 70
     0
  9
$USERI2
 70
     0
  9
$USERI3
 70
     0
  9
$USERI4
 70
     0
  9
$USERI5
 70
     0
  9
$USERR1
 40
100.0
  9
$USERR2
 40
0.0
  9
$USERR3
 40
0.0
  9
$USERR4
 40
0.0
  9
$USERR5
 40
0.0
  9
$WORLDVIEW
 70
     1
  9
$SHADEDGE
 70
     3
  9
$SHADEDIF
 70
    70
  9
$TILEMODE
 70
     1
  9
$MAXACTVP
 70
    16
  9
$PLIMCHECK
 70
     0
  9
$PEXTMIN
 10
1.000000000000000E+20
 20
1.000000000000000E+20
 30
1.000000000000000E+20
  9
$PEXTMAX
 10
-1.000000000000000E+20
 20
-1.000000000000000E+20
 30
-1.000000000000000E+20
  9
$PLIMMIN
 10
0.0
 20
0.0
  9
$PLIMMAX
 10
12.0
 20
9.0
  9
$UNITMODE
 70
     0
  9
$VISRETAIN
 70
     0
  9
$PLINEGEN
 70
     0
  9
$PSLTSCALE
 70
     0
  0
ENDSEC
  0
SECTION
  2
TABLES
  0
TABLE
  2
VPORT
 70
     1
  0
VPORT
  2
*ACTIVE
 70
     0
 10
0.0
 20
0.0
 11
1.0
 21
1.0
 12
2.509207281504303
 22
0.9548647482223409
 13
0.0
 23
0.0
 14
0.05
 24
0.05
 15
1.0
 25
1.0
 16
0.0
 26
0.0
 36
1.0
 17
0.0
 27
0.0
 37
0.0
 40
2.979320492058978
 41
1.503537735849057
 42
50.0
 43
0.0
 44
0.0
 50
0.0
 51
0.0
 71
     0
 72
   100
 73
     1
 74
     1
 75
     0
 76
     0
 77
     0
 78
     0
  0
ENDTAB
  0
TABLE
  2
LTYPE
 70
     1
  0
LTYPE
  2
CONTINUOUS
 70
     0
  3
Solid line
 72
    65
 73
     0
 40
0.0
  0
ENDTAB
  0
TABLE
  2
LAYER
 70
     2
  0
LAYER
  2
0
 70
     0
 62
     7
  6
CONTINUOUS
  0
LAYER
  2
ARQ-VEI
 70
     0
 62
     9
  6
CONTINUOUS
  0
ENDTAB
  0
TABLE
  2
STYLE
 70
     1
  0
STYLE
  2
STANDARD
 70
     0
 40
0.0
 41
1.0
 50
0.0
 71
     0
 42
0.2
  3
TXT
  4

  0
ENDTAB
  0
TABLE
  2
VIEW
 70
     0
  0
ENDTAB
  0
TABLE
  2
UCS
 70
     0
  0
ENDTAB
  0
TABLE
  2
APPID
 70
     2
  0
APPID
  2
ACAD
 70
     0
  0
APPID
  2
DCO15
 70
     0
  0
ENDTAB
  0
TABLE
  2
DIMSTYLE
 70
     1
  0
DIMSTYLE
  2
STANDARD
 70
     0
  3

  4

  5

  6

  7

 40
1.0
 41
0.18
 42
0.0625
 43
0.38
 44
0.18
 45
0.0
 46
0.0
 47
0.0
 48
0.0
140
0.18
141
0.09
142
0.0
143
25.4
144
1.0
145
0.0
146
1.0
147
0.09
 71
     0
 72
     0
 73
     1
 74
     1
 75
     0
 76
     0
 77
     0
 78
     0
170
     0
171
     2
172
     0
173
     0
174
     0
175
     0
176
     0
177
     0
178
     0
  0
ENDTAB
  0
ENDSEC
  0
SECTION
  2
BLOCKS
  0
BLOCK
  8
0
  2
$MODEL_SPACE
 70
     0
 10
0.0
 20
0.0
 30
0.0
  3
$MODEL_SPACE
  1

  0
ENDBLK
  5
2A
  8
0
  0
BLOCK
 67
     1
  8
0
  2
$PAPER_SPACE
 70
     0
 10
0.0
 20
0.0
 30
0.0
  3
$PAPER_SPACE
  1

  0
ENDBLK
  5
28
 67
     1
  8
0
  0
ENDSEC
  0
SECTION
  2
ENTITIES
  0
LINE
  5
2B
  8
0
 62
     0
 10
2.3329931080808
 20
0.6786676590487648
 30
0.0
 11
2.3329931080808
 21
0.696201900011407
 31
0.0
  0
LINE
  5
2C
  8
0
 62
     0
 10
2.473267035781945
 20
0.6786676590487648
 30
0.0
 11
2.3329931080808
 21
0.6786676590487648
 31
0.0
  0
LINE
  5
2D
  8
0
 62
     0
 10
2.473267035781945
 20
0.696201900011407
 30
0.0
 11
2.473267035781945
 21
0.6786676590487648
 31
0.0
  0
LINE
  5
2E
  8
0
 62
     0
 10
2.3329931080808
 20
0.696201900011407
 30
0.0
 11
2.473267035781945
 21
0.696201900011407
 31
0.0
  0
ARC
  5
2F
  8
0
 62
     0
 10
2.646930565385496
 20
0.4543076914359436
 30
0.0
 40
0.7471440220992075
 50
340.9507584206497
 51
26.87056419294449
  0
LINE
  5
30
  8
0
 62
     0
 10
2.248828751460115
 20
0.5068320976148617
 30
0.0
 11
2.278841688119496
 21
0.21045434810349
 31
0.0
  0
ARC
  5
31
  8
0
 62
     0
 10
2.948611958640618
 20
0.5905789723078687
 30
0.0
 40
0.7047766143060352
 50
164.3781475931219
 51
186.8244416968876
  0
LINE
  5
32
  8
0
 62
     0
 10
2.191538643770193
 20
1.135514307503157
 30
0.0
 11
1.657074387924883
 21
1.138113891862416
 31
0.0
  0
LINE
  5
33
  8
0
 62
     0
 10
2.849402539878475
 20
1.137373194922228
 30
0.0
 11
3.20795025501951
 21
0.7949104686077701
 31
0.0
  0
LINE
  5
34
  8
0
 62
     0
 10
2.284295018533945
 20
1.137462579822548
 30
0.0
 11
2.849402539878475
 21
1.137373194922228
 31
0.0
  0
LINE
  5
35
  8
0
 62
     0
 10
2.314689823076109
 20
0.7911557283188952
 30
0.0
 11
2.284295018533945
 21
1.137462579822548
 31
0.0
  0
LINE
  5
36
  8
0
 62
     0
 10
2.221769191044941
 20
0.7910789408790708
 30
0.0
 11
2.191538643770193
 21
1.135514307503157
 31
0.0
  0
CIRCLE
  5
37
  8
0
 62
     0
 10
1.151581906999107
 20
0.2688748835843695
 30
0.0
 40
0.0328649941439948
  0
CIRCLE
  5
38
  8
0
 62
     0
 10
1.151581906999107
 20
0.2688748835843695
 30
0.0
 40
0.1412063477549073
  0
LINE
  5
39
  8
0
 62
     0
 10
4.647132493569588
 20
0.6295517024102866
 30
0.0
 11
4.630100189162311
 21
0.7364703488703634
 31
0.0
  0
ARC
  5
3A
  8
0
 62
     0
 10
4.647125370932362
 20
0.2843781400767194
 30
0.0
 40
0.02286
 50
271.2776408318863
 51
345.2059565566242
  0
ARC
  5
3B
  8
0
 62
     0
 10
3.358740990267046
 20
-7.738120673743002
 30
0.0
 40
8.569425139014557
 50
81.46810672646279
 51
90.03372546834323
  0
LINE
  5
3C
  8
0
 62
     0
 10
4.730372201302774
 20
0.4413983085537989
 30
0.0
 11
4.731194163618841
 21
0.3523132459355462
 31
0.0
  0
LINE
  5
3D
  8
0
 62
     0
 10
4.462573031491486
 20
0.3523132459355462
 30
0.0
 11
4.731194163618841
 21
0.3523132459355462
 31
0.0
  0
LINE
  5
3E
  8
0
 62
     0
 10
4.462573031491486
 20
0.4413983085537989
 30
0.0
 11
4.462573031491486
 21
0.3523132459355462
 31
0.0
  0
LINE
  5
3F
  8
0
 62
     0
 10
4.730372201302774
 20
0.4413983085537989
 30
0.0
 11
4.462573031491486
 21
0.4413983085537989
 31
0.0
  0
CIRCLE
  5
40
  8
0
 62
     0
 10
3.888680161415766
 20
0.2688748835843695
 30
0.0
 40
0.1412063477549073
  0
CIRCLE
  5
41
  8
0
 62
     0
 10
3.888680161415766
 20
0.2688748835843695
 30
0.0
 40
0.0328649941439948
  0
LINE
  5
42
  8
0
 62
     0
 10
0.5280502872883766
 20
0.7901291742738015
 30
0.0
 11
1.357720082685063
 21
0.7906862027295918
 31
0.0
  0
LINE
  5
43
  8
0
 62
     0
 10
0.4927698456706784
 20
0.3627866286550803
 30
0.0
 11
0.2875467752370806
 21
0.3648158145621476
 31
0.0
  0
LINE
  5
44
  8
0
 62
     0
 10
0.4927698456706784
 20
0.4535126531167708
 30
0.0
 11
0.4927698456706784
 21
0.3627866286550803
 31
0.0
  0
LINE
  5
45
  8
0
 62
     0
 10
0.2975863991355503
 20
0.4535126531167708
 30
0.0
 11
0.4927698456706784
 21
0.4535126531167708
 31
0.0
  0
ARC
  5
46
  8
0
 62
     0
 10
3.888680161415766
 20
0.2688748835843695
 30
0.0
 40
0.3152782090433633
 50
357.1514012433172
 51
191.2337362046309
  0
ARC
  5
47
  8
0
 62
     0
 10
1.151581906999107
 20
0.2688748835843695
 30
0.0
 40
0.3152782090433636
 50
349.3214719979101
 51
182.6942039877343
  0
LINE
  5
48
  8
0
 62
     0
 10
4.647635084723153
 20
0.2615238233761206
 30
0.0
 11
4.210111180094353
 21
0.2528809800552532
 31
0.0
  0
LINE
  5
49
  8
0
 62
     0
 10
4.689119557629454
 20
0.353860839649641
 30
0.0
 11
4.669227560558713
 21
0.2785409477961078
 31
0.0
  0
LINE
  5
4A
  8
0
 62
     0
 10
4.647132493569588
 20
0.6295517024102866
 30
0.0
 11
4.649959288318668
 21
0.4413983085537989
 31
0.0
  0
LINE
  5
4B
  8
0
 62
     0
 10
2.920181438558747
 20
1.202396852214463
 30
0.0
 11
3.356050988744274
 21
0.829287813891761
 31
0.0
  0
LINE
  5
4C
  8
0
 62
     0
 10
0.3868331060133663
 20
0.4535126531167708
 30
0.0
 11
0.5179461003848411
 21
1.202396852214463
 31
0.0
  0
LINE
  5
4D
  8
0
 62
     0
 10
0.2875467752370806
 20
0.3648158145621476
 30
0.0
 11
0.2975863991355503
 21
0.4535126531167708
 31
0.0
  0
LINE
  5
4E
  8
0
 62
     0
 10
0.3558472542184052
 20
0.2896490784656764
 30
0.0
 11
0.3269664678626203
 21
0.3598061232015208
 31
0.0
  0
LINE
  5
4F
  8
0
 62
     0
 10
0.8366521954167387
 20
0.2540551042257437
 30
0.0
 11
0.3558472542184052
 21
0.2896490784656764
 31
0.0
  0
LINE
  5
50
  8
0
 62
     0
 10
3.579442487826732
 20
0.21045434810349
 30
0.0
 11
1.461400224939992
 21
0.21045434810349
 31
0.0
  0
CIRCLE
  5
51
  8
0
 62
     0
 10
1.151581906999107
 20
0.2688748835843695
 30
0.0
 40
0.264522948939579
  0
CIRCLE
  5
52
  8
0
 62
     0
 10
3.888680161415766
 20
0.2688748835843695
 30
0.0
 40
0.264522948939579
  0
LINE
  5
53
  8
0
 62
     0
 10
2.920181438558747
 20
1.202396852214463
 30
0.0
 11
0.5179461003848411
 21
1.202396852214463
 31
0.0
  0
LINE
  5
54
  8
0
 62
     0
 10
0.5280502872883766
 20
0.7901291742738015
 30
0.0
 11
0.589883463708138
 21
1.143304609117302
 31
0.0
  0
LINE
  5
55
  8
0
 62
     0
 10
1.657074387924883
 20
1.138113891862416
 30
0.0
 11
1.450325578913671
 21
0.7907483767376702
 31
0.0
  0
LINE
  5
56
  8
0
 62
     0
 10
1.564773105007947
 20
1.13856283670538
 30
0.0
 11
1.357720082685063
 21
0.7906862027295918
 31
0.0
  0
LINE
  5
57
  8
0
 62
     0
 10
1.564773105007947
 20
1.13856283670538
 30
0.0
 11
0.589883463708138
 21
1.143304609117302
 31
0.0
  0
LINE
  5
58
  8
0
 62
     0
 10
1.450325578913671
 20
0.7907483767376702
 30
0.0
 11
3.313405336115304
 21
0.7919992218882661
 31
0.0
  0
ENDSEC
  0
EOF
