  0
SECTION
  2
HEADER
  9
$ACADVER
  1
AC1009
  9
$DWGCODEPAGE
  3
ansi_1252
  9
$INSBASE
 10
0.0
 20
0.0
 30
0.0
  9
$EXTMIN
 10
-355.942741394043
 20
-0.0000019073486328
 30
0.0
  9
$EXTMAX
 10
0.0000152587890483
 20
62.31254148483276
 30
0.0
  9
$LIMMIN
 10
0.0
 20
0.0
  9
$LIMMAX
 10
12.0
 20
9.0
  9
$ORTHOMODE
 70
     0
  9
$REGENMODE
 70
     1
  9
$FILLMODE
 70
     1
  9
$QTEXTMODE
 70
     0
  9
$MIRRTEXT
 70
     1
  9
$DRAGMODE
 70
     2
  9
$LTSCALE
 40
1.0
  9
$OSMODE
 70
    37
  9
$ATTMODE
 70
     1
  9
$TEXTSIZE
 40
0.7
  9
$TRACEWID
 40
0.05
  9
$TEXTSTYLE
  7
ATTR
  9
$CLAYER
  8
0
  9
$CELTYPE
  6
BYLAYER
  9
$CECOLOR
 62
   256
  9
$DIMSCALE
 40
1.0
  9
$DIMASZ
 40
0.18
  9
$DIMEXO
 40
0.0625
  9
$DIMDLI
 40
0.38
  9
$DIMRND
 40
0.0
  9
$DIMDLE
 40
0.0
  9
$DIMEXE
 40
0.18
  9
$DIMTP
 40
0.0
  9
$DIMTM
 40
0.0
  9
$DIMTXT
 40
0.18
  9
$DIMCEN
 40
0.09
  9
$DIMTSZ
 40
0.0
  9
$DIMTOL
 70
     0
  9
$DIMLIM
 70
     0
  9
$DIMTIH
 70
     1
  9
$DIMTOH
 70
     1
  9
$DIMSE1
 70
     0
  9
$DIMSE2
 70
     0
  9
$DIMTAD
 70
     0
  9
$DIMZIN
 70
     0
  9
$DIMBLK
  1

  9
$DIMASO
 70
     1
  9
$DIMSHO
 70
     1
  9
$DIMPOST
  1

  9
$DIMAPOST
  1

  9
$DIMALT
 70
     0
  9
$DIMALTD
 70
     2
  9
$DIMALTF
 40
25.4
  9
$DIMLFAC
 40
1.0
  9
$DIMTOFL
 70
     0
  9
$DIMTVP
 40
0.0
  9
$DIMTIX
 70
     0
  9
$DIMSOXD
 70
     0
  9
$DIMSAH
 70
     0
  9
$DIMBLK1
  1

  9
$DIMBLK2
  1

  9
$DIMSTYLE
  2
STANDARD
  9
$DIMCLRD
 70
     0
  9
$DIMCLRE
 70
     0
  9
$DIMCLRT
 70
     0
  9
$DIMTFAC
 40
1.0
  9
$DIMGAP
 40
0.09
  9
$LUNITS
 70
     2
  9
$LUPREC
 70
     4
  9
$SKETCHINC
 40
0.1
  9
$FILLETRAD
 40
0.0
  9
$AUNITS
 70
     0
  9
$AUPREC
 70
     0
  9
$MENU
  1
acad
  9
$ELEVATION
 40
0.0
  9
$PELEVATION
 40
0.0
  9
$THICKNESS
 40
0.0
  9
$LIMCHECK
 70
     0
  9
$CHAMFERA
 40
0.0
  9
$CHAMFERB
 40
0.0
  9
$SKPOLY
 70
     0
  9
$TDCREATE
 40
2450138.643547454
  9
$TDUPDATE
 40
2458028.720925926
  9
$TDINDWG
 40
0.0015764005
  9
$TDUSRTIMER
 40
0.0015764005
  9
$USRTIMER
 70
     1
  9
$ANGBASE
 50
0.0
  9
$ANGDIR
 70
     0
  9
$PDMODE
 70
     0
  9
$PDSIZE
 40
0.0
  9
$PLINEWID
 40
0.0
  9
$COORDS
 70
     1
  9
$SPLFRAME
 70
     0
  9
$SPLINETYPE
 70
     6
  9
$SPLINESEGS
 70
     8
  9
$ATTDIA
 70
     0
  9
$ATTREQ
 70
     1
  9
$HANDLING
 70
     1
  9
$HANDSEED
  5
11C
  9
$SURFTAB1
 70
     6
  9
$SURFTAB2
 70
     6
  9
$SURFTYPE
 70
     6
  9
$SURFU
 70
     6
  9
$SURFV
 70
     6
  9
$UCSNAME
  2

  9
$UCSORG
 10
0.0
 20
0.0
 30
0.0
  9
$UCSXDIR
 10
1.0
 20
0.0
 30
0.0
  9
$UCSYDIR
 10
0.0
 20
1.0
 30
0.0
  9
$PUCSNAME
  2

  9
$PUCSORG
 10
0.0
 20
0.0
 30
0.0
  9
$PUCSXDIR
 10
1.0
 20
0.0
 30
0.0
  9
$PUCSYDIR
 10
0.0
 20
1.0
 30
0.0
  9
$USERI1
 70
     0
  9
$USERI2
 70
     0
  9
$USERI3
 70
     0
  9
$USERI4
 70
     0
  9
$USERI5
 70
     0
  9
$USERR1
 40
0.0
  9
$USERR2
 40
0.0
  9
$USERR3
 40
0.0
  9
$USERR4
 40
0.0
  9
$USERR5
 40
0.0
  9
$WORLDVIEW
 70
     1
  9
$SHADEDGE
 70
     3
  9
$SHADEDIF
 70
    70
  9
$TILEMODE
 70
     1
  9
$MAXACTVP
 70
    16
  9
$PLIMCHECK
 70
     0
  9
$PEXTMIN
 10
1.000000000000000E+20
 20
1.000000000000000E+20
 30
1.000000000000000E+20
  9
$PEXTMAX
 10
-1.000000000000000E+20
 20
-1.000000000000000E+20
 30
-1.000000000000000E+20
  9
$PLIMMIN
 10
0.0
 20
0.0
  9
$PLIMMAX
 10
12.0
 20
9.0
  9
$UNITMODE
 70
     0
  9
$VISRETAIN
 70
     0
  9
$PLINEGEN
 70
     0
  9
$PSLTSCALE
 70
     1
  0
ENDSEC
  0
SECTION
  2
TABLES
  0
TABLE
  2
VPORT
 70
     1
  0
VPORT
  2
*ACTIVE
 70
     0
 10
0.0
 20
0.0
 11
1.0
 21
1.0
 12
-178.5933440879866
 22
53.041731433495
 13
0.0
 23
0.0
 14
1.0
 24
1.0
 15
0.0
 25
0.0
 16
0.0
 26
0.0
 36
1.0
 17
0.0
 27
0.0
 37
0.0
 40
239.6924968307231
 41
1.503537735849057
 42
50.0
 43
0.0
 44
0.0
 50
0.0
 51
0.0
 71
     0
 72
   100
 73
     1
 74
     1
 75
     0
 76
     0
 77
     0
 78
     0
  0
ENDTAB
  0
TABLE
  2
LTYPE
 70
     1
  0
LTYPE
  2
CONTINUOUS
 70
     0
  3
Solid line
 72
    65
 73
     0
 40
0.0
  0
ENDTAB
  0
TABLE
  2
LAYER
 70
     2
  0
LAYER
  2
0
 70
     0
 62
     7
  6
CONTINUOUS
  0
LAYER
  2
LAYER01
 70
     0
 62
     7
  6
CONTINUOUS
  0
ENDTAB
  0
TABLE
  2
STYLE
 70
     2
  0
STYLE
  2
STANDARD
 70
     0
 40
0.0
 41
1.0
 50
0.0
 71
     0
 42
0.2
  3
txt
  4

  0
STYLE
  2
ATTR
 70
     0
 40
0.7
 41
0.8
 50
0.0
 71
     0
 42
0.7
  3
romans.shx
  4

  0
ENDTAB
  0
TABLE
  2
VIEW
 70
     0
  0
ENDTAB
  0
TABLE
  2
UCS
 70
     0
  0
ENDTAB
  0
TABLE
  2
APPID
 70
     2
  0
APPID
  2
ACAD
 70
     0
  0
APPID
  2
DCO15
 70
     0
  0
ENDTAB
  0
TABLE
  2
DIMSTYLE
 70
     1
  0
DIMSTYLE
  2
STANDARD
 70
     0
  3

  4

  5

  6

  7

 40
1.0
 41
0.18
 42
0.0625
 43
0.38
 44
0.18
 45
0.0
 46
0.0
 47
0.0
 48
0.0
140
0.18
141
0.09
142
0.0
143
25.4
144
1.0
145
0.0
146
1.0
147
0.09
 71
     0
 72
     0
 73
     1
 74
     1
 75
     0
 76
     0
 77
     0
 78
     0
170
     0
171
     2
172
     0
173
     0
174
     0
175
     0
176
     0
177
     0
178
     0
  0
ENDTAB
  0
ENDSEC
  0
SECTION
  2
BLOCKS
  0
BLOCK
  8
0
  2
$MODEL_SPACE
 70
     0
 10
0.0
 20
0.0
 30
0.0
  3
$MODEL_SPACE
  1

  0
ENDBLK
  5
21
  8
0
  0
BLOCK
 67
     1
  8
0
  2
$PAPER_SPACE
 70
     0
 10
0.0
 20
0.0
 30
0.0
  3
$PAPER_SPACE
  1

  0
ENDBLK
  5
1F
 67
     1
  8
0
  0
ENDSEC
  0
SECTION
  2
ENTITIES
  0
LINE
  5
24
  8
LAYER01
  6
CONTINUOUS
 62
     7
 10
-113.9592590332031
 20
56.44976997375488
 30
0.0
 11
-134.4671096801758
 21
56.44976997375488
 31
0.0
  0
LINE
  5
25
  8
LAYER01
  6
CONTINUOUS
 62
     7
 10
-137.3459701538086
 20
62.31254005432106
 30
0.0
 11
-92.33303833007812
 21
62.31254005432106
 31
0.0
  0
LINE
  5
26
  8
LAYER01
  6
CONTINUOUS
 62
     7
 10
-153.6501922607422
 20
41.51961708068825
 30
0.0
 11
-91.74247741699219
 21
41.51961708068825
 31
0.0
  0
LINE
  5
27
  8
LAYER01
  6
CONTINUOUS
 62
     7
 10
-131.5613708496094
 20
8.351068496704102
 30
0.0
 11
-61.92813110351564
 21
8.351068496704102
 31
0.0
  0
LINE
  5
28
  8
LAYER01
  6
CONTINUOUS
 62
     7
 10
-140.3927230834961
 20
20.84321784973122
 30
0.0
 11
-50.46638488769531
 21
20.84321784973122
 31
0.0
  0
LINE
  5
29
  8
LAYER01
  6
CONTINUOUS
 62
     7
 10
-138.5009307861328
 20
13.36322212219238
 30
0.0
 11
-55.090087890625
 21
13.36322212219238
 31
0.0
  0
ARC
  5
2A
  8
LAYER01
  6
CONTINUOUS
 62
     7
 10
-260.5858068466187
 20
219.7239398956297
 30
0.0
 40
211.6927490234375
 50
270.1740339032972
 51
285.5585705558874
  0
ARC
  5
2B
  8
LAYER01
  6
CONTINUOUS
 62
     7
 10
-260.5858068466187
 20
219.7239398956297
 30
0.0
 40
208.1927490234375
 50
270.1769845450187
 51
285.186980944282
  0
LINE
  5
2C
  8
LAYER01
  6
CONTINUOUS
 62
     7
 10
-259.9427528381348
 20
8.032159805297852
 30
0.0
 11
-259.9427528381348
 21
47.70155143737793
 31
0.0
  0
LINE
  5
2D
  8
LAYER01
  6
CONTINUOUS
 62
     7
 10
-268.2733306884766
 20
56.03212928771973
 30
0.0
 11
-268.2733306884766
 21
8.032159805297852
 31
0.0
  0
CIRCLE
  5
2E
  8
LAYER01
  6
CONTINUOUS
 62
     7
 10
-311.1293334960938
 20
10.0630054473877
 30
0.0
 40
4.045617580413818
  0
LINE
  5
2F
  8
LAYER01
  6
CONTINUOUS
 62
     7
 10
-295.6483993530273
 20
8.032159805297852
 30
0.0
 11
-303.9173240661621
 21
22.63720893859863
 31
0.0
  0
LINE
  5
30
  8
LAYER01
  6
CONTINUOUS
 62
     7
 10
-326.4459915161133
 20
8.032159805297852
 30
0.0
 11
-318.1770629882812
 21
22.63720893859863
 31
0.0
  0
CIRCLE
  5
31
  8
LAYER01
  6
CONTINUOUS
 62
     7
 10
-311.1293334960938
 20
10.0630054473877
 30
0.0
 40
10.06300735473633
  0
LINE
  5
32
  8
LAYER01
  6
CONTINUOUS
 62
     7
 10
-355.942741394043
 20
47.70155143737793
 30
0.0
 11
-355.942741394043
 21
8.032159805297852
 31
0.0
  0
LINE
  5
33
  8
LAYER01
  6
CONTINUOUS
 62
     7
 10
-347.6121597290039
 20
56.03212928771973
 30
0.0
 11
-347.6121597290039
 21
8.032159805297852
 31
0.0
  0
LINE
  5
34
  8
LAYER01
  6
CONTINUOUS
 62
     7
 10
-326.4459915161133
 20
8.032159805297852
 30
0.0
 11
-355.942741394043
 21
8.032159805297852
 31
0.0
  0
LINE
  5
35
  8
LAYER01
  6
CONTINUOUS
 62
     7
 10
-295.6483993530273
 20
8.032159805297852
 30
0.0
 11
-259.9427528381348
 21
8.032159805297852
 31
0.0
  0
LINE
  5
36
  8
LAYER01
  6
CONTINUOUS
 62
     7
 10
-268.2733306884766
 20
56.03212928771973
 30
0.0
 11
-347.6121597290039
 21
56.03212928771973
 31
0.0
  0
LINE
  5
37
  8
LAYER01
  6
CONTINUOUS
 62
     7
 10
-259.9427528381348
 20
47.70155143737793
 30
0.0
 11
-355.942741394043
 21
47.70155143737793
 31
0.0
  0
ARC
  5
38
  8
LAYER01
  6
CONTINUOUS
 62
     7
 10
-347.6121597290039
 20
47.70155143737793
 30
0.0
 40
8.330577850341797
 50
90.00000250447816
 51
180.0000050089563
  0
ARC
  5
39
  8
LAYER01
  6
CONTINUOUS
 62
     7
 10
-268.2733306884766
 20
47.70155143737793
 30
0.0
 40
8.330577850341797
 50
0.0
 51
90.00000250447816
  0
LINE
  5
3A
  8
LAYER01
  6
CONTINUOUS
 62
     7
 10
-318.1770629882812
 20
22.63720893859863
 30
0.0
 11
-303.9173240661621
 21
22.63720893859863
 31
0.0
  0
CIRCLE
  5
3B
  8
LAYER01
  6
CONTINUOUS
 62
     7
 10
-153.1217346191406
 20
13.12626838684082
 30
0.0
 40
4.739828109741211
  0
CIRCLE
  5
3C
  8
LAYER01
  6
CONTINUOUS
 62
     7
 10
-153.1217346191406
 20
13.12626838684082
 30
0.0
 40
8.795607566833496
  0
CIRCLE
  5
3D
  8
LAYER01
  6
CONTINUOUS
 62
     7
 10
-153.1217346191406
 20
13.12626838684082
 30
0.0
 40
13.12626838684082
  0
ARC
  5
3E
  8
LAYER01
  6
CONTINUOUS
 62
     7
 10
-131.5613708496094
 20
15.66121864318848
 30
0.0
 40
7.310153007507324
 50
194.0418357537487
 51
270.0000006832453
  0
ARC
  5
3F
  8
LAYER01
  6
CONTINUOUS
 62
     7
 10
-554.039825439453
 20
10823.40568733215
 30
0.0
 40
10789.3251953125
 50
271.8728658744195
 51
272.1288886852683
  0
LINE
  5
40
  8
LAYER01
  6
CONTINUOUS
 62
     7
 10
-165.1893920898438
 20
22.25227546691895
 30
0.0
 11
-206.1390533447266
 21
22.25227546691895
 31
0.0
  0
LINE
  5
41
  8
LAYER01
  6
CONTINUOUS
 62
     7
 10
-201.7844314575195
 20
15.24920845031738
 30
0.0
 11
-173.6499481201172
 21
14.56698799133301
 31
0.0
  0
ARC
  5
42
  8
LAYER01
  6
CONTINUOUS
 62
     7
 10
-118.6957931518555
 20
-585.3003673553471
 30
0.0
 40
633.9495849609375
 50
94.26426035804637
 51
97.05107999224913
  0
ARC
  5
43
  8
LAYER01
  6
CONTINUOUS
 62
     7
 10
-204.6514511108398
 20
27.36689186096191
 30
0.0
 40
1.487603306770325
 50
90.00000250447816
 51
180.0000050089563
  0
LINE
  5
44
  8
LAYER01
  6
CONTINUOUS
 62
     7
 10
-206.1390533447266
 20
19.7107105255127
 30
0.0
 11
-206.1390533447266
 21
27.36689186096191
 31
0.0
  0
ARC
  5
45
  8
LAYER01
  6
CONTINUOUS
 62
     7
 10
-203.2233581542968
 20
30.34209632873535
 30
0.0
 40
1.487603306770325
 50
270.0000006832453
 51
0.0
  0
LINE
  5
46
  8
LAYER01
  6
CONTINUOUS
 62
     7
 10
-201.7357521057129
 20
30.34209632873535
 30
0.0
 11
-201.7357521057129
 21
37.94935035705566
 31
0.0
  0
ARC
  5
47
  8
LAYER01
  6
CONTINUOUS
 62
     7
 10
-195.7853393554688
 20
37.94935035705566
 30
0.0
 40
5.950413227081299
 50
97.05107999224913
 51
180.0000050089563
  0
LINE
  5
48
  8
LAYER01
  6
CONTINUOUS
 62
     7
 10
-204.6514511108398
 20
28.85449409484863
 30
0.0
 11
-195.594310760498
 21
28.85449409484863
 31
0.0
  0
ARC
  5
49
  8
LAYER01
  6
CONTINUOUS
 62
     7
 10
-201.6762466430664
 20
19.7107105255127
 30
0.0
 40
4.462809562683105
 50
180.0000050089563
 51
268.6109314513615
  0
LINE
  5
4A
  8
LAYER01
  6
CONTINUOUS
 62
     7
 10
-195.594310760498
 20
15.09910774230957
 30
0.0
 11
-195.594310760498
 21
28.85449409484863
 31
0.0
  0
ARC
  5
4B
  8
LAYER01
  6
CONTINUOUS
 62
     7
 10
-110.27783203125
 20
-11.05385398864769
 30
0.0
 40
78.7067642211914
 50
112.3215251649434
 51
130.6425855379647
  0
LINE
  5
4C
  8
LAYER01
  6
CONTINUOUS
 62
     7
 10
-160.6762619018555
 20
44.06275367736794
 30
0.0
 11
-137.3459701538086
 21
62.31254005432106
 31
0.0
  0
LINE
  5
4D
  8
LAYER01
  6
CONTINUOUS
 62
     7
 10
-142.0955429077148
 20
41.51961708068825
 30
0.0
 11
-134.4671096801758
 21
56.44976997375488
 31
0.0
  0
ARC
  5
4E
  8
LAYER01
  6
CONTINUOUS
 62
     7
 10
-166.3872375488281
 20
54.31173133850098
 30
0.0
 40
7.438016414642334
 50
274.2642517066243
 51
310.6425768865427
  0
ARC
  5
4F
  8
LAYER01
  6
CONTINUOUS
 62
     7
 10
-153.6501922607422
 20
52.49683952331543
 30
0.0
 40
10.97722434997559
 50
207.128792392195
 51
270.0000006832453
  0
ARC
  5
50
  8
LAYER01
  6
CONTINUOUS
 62
     7
 10
-158.8980331420898
 20
22.16131782531738
 30
0.0
 40
5.715052604675293
 50
90.00000250447816
 51
154.443540833033
  0
LINE
  5
51
  8
LAYER01
  6
CONTINUOUS
 62
     7
 10
-166.8778076171875
 20
18.72138404846169
 30
0.0
 11
-164.0539321899414
 21
24.62679481506348
 31
0.0
  0
ARC
  5
52
  8
LAYER01
  6
CONTINUOUS
 62
     7
 10
-173.4727401733398
 20
21.87498664855957
 30
0.0
 40
7.310153007507324
 50
268.6109314513615
 51
334.4435458419893
  0
LINE
  5
53
  8
LAYER01
  6
CONTINUOUS
 62
     7
 10
-142.0955429077148
 20
41.51961708068825
 30
0.0
 11
-142.0955429077148
 21
36.28646278381348
 31
0.0
  0
ARC
  5
54
  8
LAYER01
  6
CONTINUOUS
 62
     7
 10
-141.8576889038086
 20
25.80286598205566
 30
0.0
 40
5.950413227081299
 50
6.927922346846463
 51
56.83235800808613
  0
LINE
  5
55
  8
LAYER01
  6
CONTINUOUS
 62
     7
 10
-134.278564453125
 20
12.75888252258278
 30
0.0
 11
-135.9507217407227
 21
26.52060890197731
 31
0.0
  0
ARC
  5
56
  8
LAYER01
  6
CONTINUOUS
 62
     7
 10
-146.6134643554688
 20
22.16131782531738
 30
0.0
 40
5.715052604675293
 50
14.04183159856602
 51
90.00000250447816
  0
LINE
  5
57
  8
LAYER01
  6
CONTINUOUS
 62
     7
 10
-158.8980331420898
 20
27.87636756896973
 30
0.0
 11
-146.6134643554688
 21
27.87636756896973
 31
0.0
  0
LINE
  5
58
  8
LAYER01
  6
CONTINUOUS
 62
     7
 10
-138.6530838012695
 20
13.88755989074707
 30
0.0
 11
-141.0691833496094
 21
23.54796028137207
 31
0.0
  0
LINE
  5
59
  8
LAYER01
  6
CONTINUOUS
 62
     7
 10
-139.4005432128906
 20
31.30552864074707
 30
0.0
 11
-138.6022796630859
 21
30.78380012512207
 31
0.0
  0
ARC
  5
5A
  8
LAYER01
  6
CONTINUOUS
 62
     7
 10
-136.145133972168
 20
36.28646278381348
 30
0.0
 40
5.950413227081299
 50
180.0000050089563
 51
236.8323561868533
  0
ARC
  5
5B
  8
LAYER01
  6
CONTINUOUS
 62
     7
 10
-137.3459701538086
 20
54.87452507019043
 30
0.0
 40
7.438016414642334
 50
90.00000250447816
 51
112.3215251649434
  0
LINE
  5
5C
  8
LAYER01
  6
CONTINUOUS
 62
     7
 10
-10.61732482910158
 20
25.71135902404785
 30
0.0
 11
-2.380157470703132
 21
25.71135902404785
 31
0.0
  0
ARC
  5
5D
  8
LAYER01
  6
CONTINUOUS
 62
     7
 10
-3.932983398437504
 20
28.09152412414551
 30
0.0
 40
2.380165100097656
 50
180.0000050089563
 51
270.0000006832453
  0
LINE
  5
5E
  8
LAYER01
  6
CONTINUOUS
 62
     7
 10
-19.22402954101562
 20
12.4834156036377
 30
0.0
 11
-2.115417480468757
 21
14.39824104309082
 31
0.0
  0
LINE
  5
5F
  8
LAYER01
  6
CONTINUOUS
 62
     7
 10
-26.5716552734375
 20
20.84321784973122
 30
0.0
 11
0.0000152587890483
 21
20.84321784973122
 31
0.0
  0
CIRCLE
  5
60
  8
LAYER01
  6
CONTINUOUS
 62
     7
 10
-38.90232849121094
 20
13.12626838684082
 30
0.0
 40
4.739828109741211
  0
ARC
  5
61
  8
LAYER01
  6
CONTINUOUS
 62
     7
 10
-61.92813110351564
 20
15.05945014953613
 30
0.0
 40
6.708383560180663
 50
270.0000006832453
 51
328.2780433612455
  0
CIRCLE
  5
62
  8
LAYER01
  6
CONTINUOUS
 62
     7
 10
-38.90232849121094
 20
13.12626838684082
 30
0.0
 40
13.12626838684082
  0
CIRCLE
  5
63
  8
LAYER01
  6
CONTINUOUS
 62
     7
 10
-38.90232849121094
 20
13.12626838684082
 30
0.0
 40
8.795607566833496
  0
ARC
  5
64
  8
LAYER01
  6
CONTINUOUS
 62
     7
 10
-564.2409362792968
 20
-592.7467174530029
 30
0.0
 40
807.2010498046875
 50
51.72384096178015
 51
53.73130869092778
  0
LINE
  5
65
  8
LAYER01
  6
CONTINUOUS
 62
     7
 10
-84.93243408203126
 20
59.73162651061989
 30
0.0
 11
-65.32344055175783
 21
44.16083717346191
 31
0.0
  0
ARC
  5
66
  8
LAYER01
  6
CONTINUOUS
 62
     7
 10
-91.74247741699219
 20
-605.2492198944092
 30
0.0
 40
646.7688598632812
 50
82.57013638571664
 51
90.00000250447816
  0
LINE
  5
67
  8
LAYER01
  6
CONTINUOUS
 62
     7
 10
-74.55583190917967
 20
41.29122352600075
 30
0.0
 11
-90.58497619628906
 21
56.44976997375488
 31
0.0
  0
LINE
  5
68
  8
LAYER01
  6
CONTINUOUS
 62
     7
 10
-111.12548828125
 20
41.51961708068825
 30
0.0
 11
-113.9592590332031
 21
56.44976997375488
 31
0.0
  0
LINE
  5
69
  8
LAYER01
  6
CONTINUOUS
 62
     7
 10
-108.1574401855469
 20
56.44976997375488
 30
0.0
 11
-106.5996246337891
 21
41.51961708068825
 31
0.0
  0
LINE
  5
6A
  8
LAYER01
  6
CONTINUOUS
 62
     7
 10
-106.5996246337891
 20
41.51961708068825
 30
0.0
 11
-106.5724334716797
 21
41.38329887390114
 31
0.0
  0
LINE
  5
6B
  8
LAYER01
  6
CONTINUOUS
 62
     7
 10
-109.2979278564453
 20
13.36322212219238
 30
0.0
 11
-106.4055786132812
 21
30.65757942199707
 31
0.0
  0
ARC
  5
6C
  8
LAYER01
  6
CONTINUOUS
 62
     7
 10
-135.7500915527344
 20
35.56523323059082
 30
0.0
 40
29.75206565856934
 50
350.5055826187314
 51
11.27695821594017
  0
LINE
  5
6D
  8
LAYER01
  6
CONTINUOUS
 62
     7
 10
-90.58497619628906
 20
56.44976997375488
 30
0.0
 11
-108.1574401855469
 21
56.44976997375488
 31
0.0
  0
ARC
  5
6E
  8
LAYER01
  6
CONTINUOUS
 62
     7
 10
-76.49734497070312
 20
56.62772178649902
 30
0.0
 40
10.32536315917969
 50
157.8274214535324
 51
172.0239833037822
  0
ARC
  5
6F
  8
LAYER01
  6
CONTINUOUS
 62
     7
 10
-92.33303833007812
 20
50.41171455383301
 30
0.0
 40
11.9008264541626
 50
51.54819923217869
 51
90.00000250447816
  0
LINE
  5
70
  8
LAYER01
  6
CONTINUOUS
 62
     7
 10
-43.21600341796875
 20
27.41668128967285
 30
0.0
 11
-32.93684387207031
 21
27.41668128967285
 31
0.0
  0
ARC
  5
71
  8
LAYER01
  6
CONTINUOUS
 62
     7
 10
-57.89048767089844
 20
-153.1188640594482
 30
0.0
 40
196.1954498291016
 50
75.94733224947298
 51
91.19451379785419
  0
ARC
  5
72
  8
LAYER01
  6
CONTINUOUS
 62
     7
 10
-67.55787658691409
 20
43.99158668518066
 30
0.0
 40
4.528108596801758
 50
317.5213696826892
 51
349.08744410174
  0
ARC
  5
73
  8
LAYER01
  6
CONTINUOUS
 62
     7
 10
-62.08894348144531
 20
48.23417854309059
 30
0.0
 40
5.201350212097168
 50
231.5481939958513
 51
271.1945188068105
  0
LINE
  5
74
  8
LAYER01
  6
CONTINUOUS
 62
     7
 10
-64.02583312988283
 20
39.6457347869873
 30
0.0
 11
-64.21826171875
 21
40.93368339538551
 31
0.0
  0
ARC
  5
75
  8
LAYER01
  6
CONTINUOUS
 62
     7
 10
-43.21600341796875
 20
21.6998462677002
 30
0.0
 40
5.716837882995606
 50
90.00000250447816
 51
148.2780383522892
  0
LINE
  5
76
  8
LAYER01
  6
CONTINUOUS
 62
     7
 10
-66.33636474609375
 20
13.36322212219238
 30
0.0
 11
-63.95640563964844
 21
31.34554481506348
 31
0.0
  0
LINE
  5
77
  8
LAYER01
  6
CONTINUOUS
 62
     7
 10
-56.22192382812501
 20
11.53219795227051
 30
0.0
 11
-48.07879638671875
 21
24.70574378967285
 31
0.0
  0
ARC
  5
78
  8
LAYER01
  6
CONTINUOUS
 62
     7
 10
-93.45126342773438
 20
35.24920845031716
 30
0.0
 40
29.75206565856934
 50
352.4606832875125
 51
8.49784218134754
  0
LINE
  5
79
  8
LAYER01
  6
CONTINUOUS
 62
     7
 10
-6.313156127929691
 20
28.09152412414551
 30
0.0
 11
-6.313156127929691
 21
32.15935707092285
 31
0.0
  0
LINE
  5
7A
  8
LAYER01
  6
CONTINUOUS
 62
     7
 10
-10.61732482910158
 20
20.84321784973122
 30
0.0
 11
-10.61732482910158
 21
25.71135902404785
 31
0.0
  0
LINE
  5
7B
  8
LAYER01
  6
CONTINUOUS
 62
     7
 10
-11.91949462890624
 20
13.30095100402809
 30
0.0
 11
-11.91949462890624
 21
20.84321784973122
 31
0.0
  0
ARC
  5
7C
  8
LAYER01
  6
CONTINUOUS
 62
     7
 10
-11.51451110839845
 20
32.15935707092285
 30
0.0
 40
5.201350212097168
 50
0.0
 51
75.94733224947298
  0
ARC
  5
7D
  8
LAYER01
  6
CONTINUOUS
 62
     7
 10
-19.81968688964844
 20
17.8055591583252
 30
0.0
 40
5.355371475219727
 50
199.4474933497069
 51
276.3860636326672
  0
LINE
  5
7E
  8
LAYER01
  6
CONTINUOUS
 62
     7
 10
-24.86952209472658
 20
16.02252388000488
 30
0.0
 11
-27.54617309570314
 21
23.60322761535622
 31
0.0
  0
ARC
  5
7F
  8
LAYER01
  6
CONTINUOUS
 62
     7
 10
-32.93684387207031
 20
21.6998462677002
 30
0.0
 40
5.716837882995606
 50
19.44748663320329
 51
90.00000250447816
  0
ARC
  5
80
  8
LAYER01
  6
CONTINUOUS
 62
     7
 10
-2.380157470703132
 20
23.33119392394997
 30
0.0
 40
2.380165100097656
 50
0.0
 51
90.00000250447816
  0
ARC
  5
81
  8
LAYER01
  6
CONTINUOUS
 62
     7
 10
-2.380157470703132
 20
16.76363563537598
 30
0.0
 40
2.380165100097656
 50
276.3860636326672
 51
0.0
  0
LINE
  5
82
  8
LAYER01
  6
CONTINUOUS
 62
     7
 10
0.0000152587890483
 20
16.76363563537598
 30
0.0
 11
0.0000152587890483
 21
23.33119392394997
 31
0.0
  0
ENDSEC
  0
EOF
