  0
SECTION
  2
HEADER
  9
$ACADVER
  1
AC1009
  9
$DWGCODEPAGE
  3
ansi_1252
  9
$INSBASE
 10
0.0
 20
0.0
 30
0.0
  9
$EXTMIN
 10
-402.2558975219727
 20
0.0
 30
0.0
  9
$EXTMAX
 10
0.000007629394517
 20
86.60816669464089
 30
0.0
  9
$LIMMIN
 10
0.0
 20
0.0
  9
$LIMMAX
 10
12.0
 20
9.0
  9
$ORTHOMODE
 70
     0
  9
$REGENMODE
 70
     1
  9
$FILLMODE
 70
     1
  9
$QTEXTMODE
 70
     0
  9
$MIRRTEXT
 70
     1
  9
$DRAGMODE
 70
     2
  9
$LTSCALE
 40
1.0
  9
$OSMODE
 70
    37
  9
$ATTMODE
 70
     1
  9
$TEXTSIZE
 40
0.7
  9
$TRACEWID
 40
0.05
  9
$TEXTSTYLE
  7
ATTR
  9
$CLAYER
  8
0
  9
$CELTYPE
  6
BYLAYER
  9
$CECOLOR
 62
   256
  9
$DIMSCALE
 40
1.0
  9
$DIMASZ
 40
0.18
  9
$DIMEXO
 40
0.0625
  9
$DIMDLI
 40
0.38
  9
$DIMRND
 40
0.0
  9
$DIMDLE
 40
0.0
  9
$DIMEXE
 40
0.18
  9
$DIMTP
 40
0.0
  9
$DIMTM
 40
0.0
  9
$DIMTXT
 40
0.18
  9
$DIMCEN
 40
0.09
  9
$DIMTSZ
 40
0.0
  9
$DIMTOL
 70
     0
  9
$DIMLIM
 70
     0
  9
$DIMTIH
 70
     1
  9
$DIMTOH
 70
     1
  9
$DIMSE1
 70
     0
  9
$DIMSE2
 70
     0
  9
$DIMTAD
 70
     0
  9
$DIMZIN
 70
     0
  9
$DIMBLK
  1

  9
$DIMASO
 70
     1
  9
$DIMSHO
 70
     1
  9
$DIMPOST
  1

  9
$DIMAPOST
  1

  9
$DIMALT
 70
     0
  9
$DIMALTD
 70
     2
  9
$DIMALTF
 40
25.4
  9
$DIMLFAC
 40
1.0
  9
$DIMTOFL
 70
     0
  9
$DIMTVP
 40
0.0
  9
$DIMTIX
 70
     0
  9
$DIMSOXD
 70
     0
  9
$DIMSAH
 70
     0
  9
$DIMBLK1
  1

  9
$DIMBLK2
  1

  9
$DIMSTYLE
  2
STANDARD
  9
$DIMCLRD
 70
     0
  9
$DIMCLRE
 70
     0
  9
$DIMCLRT
 70
     0
  9
$DIMTFAC
 40
1.0
  9
$DIMGAP
 40
0.09
  9
$LUNITS
 70
     2
  9
$LUPREC
 70
     4
  9
$SKETCHINC
 40
0.1
  9
$FILLETRAD
 40
0.0
  9
$AUNITS
 70
     0
  9
$AUPREC
 70
     0
  9
$MENU
  1
acad
  9
$ELEVATION
 40
0.0
  9
$PELEVATION
 40
0.0
  9
$THICKNESS
 40
0.0
  9
$LIMCHECK
 70
     0
  9
$CHAMFERA
 40
0.0
  9
$CHAMFERB
 40
0.0
  9
$SKPOLY
 70
     0
  9
$TDCREATE
 40
2450138.643631944
  9
$TDUPDATE
 40
2458028.7209375
  9
$TDINDWG
 40
0.0012905903
  9
$TDUSRTIMER
 40
0.0012905903
  9
$USRTIMER
 70
     1
  9
$ANGBASE
 50
0.0
  9
$ANGDIR
 70
     0
  9
$PDMODE
 70
     0
  9
$PDSIZE
 40
0.0
  9
$PLINEWID
 40
0.0
  9
$COORDS
 70
     1
  9
$SPLFRAME
 70
     0
  9
$SPLINETYPE
 70
     6
  9
$SPLINESEGS
 70
     8
  9
$ATTDIA
 70
     0
  9
$ATTREQ
 70
     1
  9
$HANDLING
 70
     1
  9
$HANDSEED
  5
12E
  9
$SURFTAB1
 70
     6
  9
$SURFTAB2
 70
     6
  9
$SURFTYPE
 70
     6
  9
$SURFU
 70
     6
  9
$SURFV
 70
     6
  9
$UCSNAME
  2

  9
$UCSORG
 10
0.0
 20
0.0
 30
0.0
  9
$UCSXDIR
 10
1.0
 20
0.0
 30
0.0
  9
$UCSYDIR
 10
0.0
 20
1.0
 30
0.0
  9
$PUCSNAME
  2

  9
$PUCSORG
 10
0.0
 20
0.0
 30
0.0
  9
$PUCSXDIR
 10
1.0
 20
0.0
 30
0.0
  9
$PUCSYDIR
 10
0.0
 20
1.0
 30
0.0
  9
$USERI1
 70
     0
  9
$USERI2
 70
     0
  9
$USERI3
 70
     0
  9
$USERI4
 70
     0
  9
$USERI5
 70
     0
  9
$USERR1
 40
0.0
  9
$USERR2
 40
0.0
  9
$USERR3
 40
0.0
  9
$USERR4
 40
0.0
  9
$USERR5
 40
0.0
  9
$WORLDVIEW
 70
     1
  9
$SHADEDGE
 70
     3
  9
$SHADEDIF
 70
    70
  9
$TILEMODE
 70
     1
  9
$MAXACTVP
 70
    16
  9
$PLIMCHECK
 70
     0
  9
$PEXTMIN
 10
1.000000000000000E+20
 20
1.000000000000000E+20
 30
1.000000000000000E+20
  9
$PEXTMAX
 10
-1.000000000000000E+20
 20
-1.000000000000000E+20
 30
-1.000000000000000E+20
  9
$PLIMMIN
 10
0.0
 20
0.0
  9
$PLIMMAX
 10
12.0
 20
9.0
  9
$UNITMODE
 70
     0
  9
$VISRETAIN
 70
     0
  9
$PLINEGEN
 70
     0
  9
$PSLTSCALE
 70
     1
  0
ENDSEC
  0
SECTION
  2
TABLES
  0
TABLE
  2
VPORT
 70
     1
  0
VPORT
  2
*ACTIVE
 70
     0
 10
0.0
 20
0.0
 11
1.0
 21
1.0
 12
-201.7414972258177
 22
68.12886850154601
 13
0.0
 23
0.0
 14
1.0
 24
1.0
 15
0.0
 25
0.0
 16
0.0
 26
0.0
 36
1.0
 17
0.0
 27
0.0
 37
0.0
 40
270.7170492240561
 41
1.503537735849057
 42
50.0
 43
0.0
 44
0.0
 50
0.0
 51
0.0
 71
     0
 72
   100
 73
     1
 74
     1
 75
     0
 76
     0
 77
     0
 78
     0
  0
ENDTAB
  0
TABLE
  2
LTYPE
 70
     1
  0
LTYPE
  2
CONTINUOUS
 70
     0
  3
Solid line
 72
    65
 73
     0
 40
0.0
  0
ENDTAB
  0
TABLE
  2
LAYER
 70
     2
  0
LAYER
  2
0
 70
     0
 62
     7
  6
CONTINUOUS
  0
LAYER
  2
LAYER01
 70
     0
 62
     7
  6
CONTINUOUS
  0
ENDTAB
  0
TABLE
  2
STYLE
 70
     2
  0
STYLE
  2
STANDARD
 70
     0
 40
0.0
 41
1.0
 50
0.0
 71
     0
 42
0.2
  3
txt
  4

  0
STYLE
  2
ATTR
 70
     0
 40
0.7
 41
0.8
 50
0.0
 71
     0
 42
0.7
  3
romans.shx
  4

  0
ENDTAB
  0
TABLE
  2
VIEW
 70
     0
  0
ENDTAB
  0
TABLE
  2
UCS
 70
     0
  0
ENDTAB
  0
TABLE
  2
APPID
 70
     2
  0
APPID
  2
ACAD
 70
     0
  0
APPID
  2
DCO15
 70
     0
  0
ENDTAB
  0
TABLE
  2
DIMSTYLE
 70
     1
  0
DIMSTYLE
  2
STANDARD
 70
     0
  3

  4

  5

  6

  7

 40
1.0
 41
0.18
 42
0.0625
 43
0.38
 44
0.18
 45
0.0
 46
0.0
 47
0.0
 48
0.0
140
0.18
141
0.09
142
0.0
143
25.4
144
1.0
145
0.0
146
1.0
147
0.09
 71
     0
 72
     0
 73
     1
 74
     1
 75
     0
 76
     0
 77
     0
 78
     0
170
     0
171
     2
172
     0
173
     0
174
     0
175
     0
176
     0
177
     0
178
     0
  0
ENDTAB
  0
ENDSEC
  0
SECTION
  2
BLOCKS
  0
BLOCK
  8
0
  2
$MODEL_SPACE
 70
     0
 10
0.0
 20
0.0
 30
0.0
  3
$MODEL_SPACE
  1

  0
ENDBLK
  5
21
  8
0
  0
BLOCK
 67
     1
  8
0
  2
$PAPER_SPACE
 70
     0
 10
0.0
 20
0.0
 30
0.0
  3
$PAPER_SPACE
  1

  0
ENDBLK
  5
1F
 67
     1
  8
0
  0
ENDSEC
  0
SECTION
  2
ENTITIES
  0
LINE
  5
24
  8
LAYER01
  6
CONTINUOUS
 62
     7
 10
-11.91949462890629
 20
13.30095100402809
 30
0.0
 11
-11.91949462890629
 21
20.84323310852051
 31
0.0
  0
ARC
  5
25
  8
LAYER01
  6
CONTINUOUS
 62
     7
 10
-19.81970214843754
 20
17.80555915832497
 30
0.0
 40
5.355371475219727
 50
199.4474933497069
 51
276.3860636326672
  0
LINE
  5
26
  8
LAYER01
  6
CONTINUOUS
 62
     7
 10
-19.22402954101565
 20
12.48341560363747
 30
0.0
 11
-2.115417480468764
 21
14.39824104309082
 31
0.0
  0
CIRCLE
  5
27
  8
LAYER01
  6
CONTINUOUS
 62
     7
 10
-38.90232849121095
 20
13.12626838684082
 30
0.0
 40
4.739828109741211
  0
CIRCLE
  5
28
  8
LAYER01
  6
CONTINUOUS
 62
     7
 10
-38.90232849121095
 20
13.12626838684082
 30
0.0
 40
8.795607566833496
  0
CIRCLE
  5
29
  8
LAYER01
  6
CONTINUOUS
 62
     7
 10
-38.90232849121095
 20
13.12626838684082
 30
0.0
 40
13.12626838684082
  0
LINE
  5
2A
  8
LAYER01
  6
CONTINUOUS
 62
     7
 10
-66.33638000488284
 20
13.36323738098122
 30
0.0
 11
-63.95640563964845
 21
31.34555244445778
 31
0.0
  0
LINE
  5
2B
  8
LAYER01
  6
CONTINUOUS
 62
     7
 10
-56.22192382812503
 20
11.53219795227051
 30
0.0
 11
-48.07879638671876
 21
24.70575141906738
 31
0.0
  0
ARC
  5
2C
  8
LAYER01
  6
CONTINUOUS
 62
     7
 10
-131.5613708496094
 20
15.66122627258278
 30
0.0
 40
7.310153007507324
 50
194.0418357537487
 51
270.0000006832453
  0
CIRCLE
  5
2D
  8
LAYER01
  6
CONTINUOUS
 62
     7
 10
-153.1217346191407
 20
13.12626838684082
 30
0.0
 40
4.739828109741211
  0
LINE
  5
2E
  8
LAYER01
  6
CONTINUOUS
 62
     7
 10
-134.2785797119141
 20
12.75888252258278
 30
0.0
 11
-135.9507293701172
 21
26.52061653137184
 31
0.0
  0
ARC
  5
2F
  8
LAYER01
  6
CONTINUOUS
 62
     7
 10
-173.4727478027344
 20
21.87500190734863
 30
0.0
 40
7.310153007507324
 50
268.6109314513615
 51
334.4435458419893
  0
CIRCLE
  5
30
  8
LAYER01
  6
CONTINUOUS
 62
     7
 10
-153.1217346191407
 20
13.12626838684082
 30
0.0
 40
8.795607566833496
  0
CIRCLE
  5
31
  8
LAYER01
  6
CONTINUOUS
 62
     7
 10
-153.1217346191407
 20
13.12626838684082
 30
0.0
 40
13.12626838684082
  0
LINE
  5
32
  8
LAYER01
  6
CONTINUOUS
 62
     7
 10
-109.2979431152344
 20
13.36323738098122
 30
0.0
 11
-106.4055938720703
 21
30.65757942199707
 31
0.0
  0
LINE
  5
33
  8
LAYER01
  6
CONTINUOUS
 62
     7
 10
-258.2558994293213
 20
8.032167434692383
 30
0.0
 11
-258.2558994293213
 21
71.70155525207497
 31
0.0
  0
LINE
  5
34
  8
LAYER01
  6
CONTINUOUS
 62
     7
 10
-298.3753805160522
 20
8.032167434692383
 30
0.0
 11
-310.9164638519287
 21
30.18295478820778
 31
0.0
  0
LINE
  5
35
  8
LAYER01
  6
CONTINUOUS
 62
     7
 10
-266.5864791870117
 20
80.03213691711403
 30
0.0
 11
-266.5864791870117
 21
8.032167434692383
 31
0.0
  0
CIRCLE
  5
36
  8
LAYER01
  6
CONTINUOUS
 62
     7
 10
-349.9895172119141
 20
13.41734504699707
 30
0.0
 40
5.39415693283081
  0
LINE
  5
37
  8
LAYER01
  6
CONTINUOUS
 62
     7
 10
-372.1466217041016
 20
8.032167434692383
 30
0.0
 11
-359.6055374145508
 21
30.18295478820778
 31
0.0
  0
CIRCLE
  5
38
  8
LAYER01
  6
CONTINUOUS
 62
     7
 10
-349.9895172119141
 20
13.41734504699707
 30
0.0
 40
13.41734313964844
  0
LINE
  5
39
  8
LAYER01
  6
CONTINUOUS
 62
     7
 10
-402.2558975219727
 20
71.70155525207497
 30
0.0
 11
-402.2558975219727
 21
8.032167434692383
 31
0.0
  0
LINE
  5
3A
  8
LAYER01
  6
CONTINUOUS
 62
     7
 10
-393.9253158569336
 20
80.03213691711403
 30
0.0
 11
-393.9253158569336
 21
8.032167434692383
 31
0.0
  0
CIRCLE
  5
3B
  8
LAYER01
  6
CONTINUOUS
 62
     7
 10
-320.5324821472168
 20
13.41734504699707
 30
0.0
 40
13.41734313964844
  0
CIRCLE
  5
3C
  8
LAYER01
  6
CONTINUOUS
 62
     7
 10
-320.5324821472168
 20
13.41734504699707
 30
0.0
 40
5.39415693283081
  0
ARC
  5
3D
  8
LAYER01
  6
CONTINUOUS
 62
     7
 10
-266.8010692596436
 20
275.4187488555906
 30
0.0
 40
267.5231018066406
 50
271.8304367392954
 51
283.7354837833843
  0
ARC
  5
3E
  8
LAYER01
  6
CONTINUOUS
 62
     7
 10
-266.8010692596436
 20
275.4187488555906
 30
0.0
 40
264.0230407714844
 50
271.8547248919839
 51
283.3203722063876
  0
LINE
  5
3F
  8
LAYER01
  6
CONTINUOUS
 62
     7
 10
-372.1466217041016
 20
8.032167434692383
 30
0.0
 11
-402.2558975219727
 21
8.032167434692383
 31
0.0
  0
LINE
  5
40
  8
LAYER01
  6
CONTINUOUS
 62
     7
 10
-298.3753805160522
 20
8.032167434692383
 30
0.0
 11
-258.2558994293213
 21
8.032167434692383
 31
0.0
  0
LINE
  5
41
  8
LAYER01
  6
CONTINUOUS
 62
     7
 10
-131.5613708496094
 20
8.351076126098405
 30
0.0
 11
-61.9281463623047
 21
8.351076126098405
 31
0.0
  0
LINE
  5
42
  8
LAYER01
  6
CONTINUOUS
 62
     7
 10
-138.5009307861328
 20
13.36323738098122
 30
0.0
 11
-55.09008789062501
 21
13.36323738098122
 31
0.0
  0
ARC
  5
43
  8
LAYER01
  6
CONTINUOUS
 62
     7
 10
-61.9281463623047
 20
15.05946540832497
 30
0.0
 40
6.708383560180663
 50
270.0000006832453
 51
328.2780433612455
  0
LINE
  5
44
  8
LAYER01
  6
CONTINUOUS
 62
     7
 10
-266.5864791870117
 20
80.03213691711403
 30
0.0
 11
-393.9253158569336
 21
80.03213691711403
 31
0.0
  0
LINE
  5
45
  8
LAYER01
  6
CONTINUOUS
 62
     7
 10
-258.2558994293213
 20
71.70155525207497
 30
0.0
 11
-402.2558975219727
 21
71.70155525207497
 31
0.0
  0
LINE
  5
46
  8
LAYER01
  6
CONTINUOUS
 62
     7
 10
-359.6055374145508
 20
30.18295478820778
 30
0.0
 11
-310.9164638519287
 21
30.18295478820778
 31
0.0
  0
ARC
  5
47
  8
LAYER01
  6
CONTINUOUS
 62
     7
 10
-393.9253158569336
 20
71.70155525207497
 30
0.0
 40
8.330577850341797
 50
90.00000250447816
 51
180.0000050089563
  0
ARC
  5
48
  8
LAYER01
  6
CONTINUOUS
 62
     7
 10
-266.5864791870117
 20
71.70155525207497
 30
0.0
 40
8.330577850341797
 50
0.0
 51
90.00000250447816
  0
ARC
  5
49
  8
LAYER01
  6
CONTINUOUS
 62
     7
 10
-92.33303833007815
 20
50.41171455383301
 30
0.0
 40
11.9008264541626
 50
51.54819923217869
 51
90.00000250447816
  0
LINE
  5
4A
  8
LAYER01
  6
CONTINUOUS
 62
     7
 10
-74.55583190917972
 20
41.29123115539528
 30
0.0
 11
-90.58497619628909
 21
56.44976997375488
 31
0.0
  0
ARC
  5
4B
  8
LAYER01
  6
CONTINUOUS
 62
     7
 10
-91.74249267578128
 20
-605.2492198944096
 30
0.0
 40
646.7688598632812
 50
82.57013638571664
 51
90.00000250447816
  0
LINE
  5
4C
  8
LAYER01
  6
CONTINUOUS
 62
     7
 10
-140.3927307128907
 20
20.84323310852051
 30
0.0
 11
-50.46638488769533
 21
20.84323310852051
 31
0.0
  0
LINE
  5
4D
  8
LAYER01
  6
CONTINUOUS
 62
     7
 10
-158.8980407714844
 20
27.87637519836403
 30
0.0
 11
-146.6134796142578
 21
27.87637519836403
 31
0.0
  0
LINE
  5
4E
  8
LAYER01
  6
CONTINUOUS
 62
     7
 10
-160.67626953125
 20
44.06276130676247
 30
0.0
 11
-137.3459777832032
 21
62.31254768371559
 31
0.0
  0
ARC
  5
4F
  8
LAYER01
  6
CONTINUOUS
 62
     7
 10
-110.2778472900391
 20
-11.05384635925316
 30
0.0
 40
78.7067642211914
 50
112.3215251649434
 51
130.6425855379647
  0
LINE
  5
50
  8
LAYER01
  6
CONTINUOUS
 62
     7
 10
-153.6502075195313
 20
41.51962471008278
 30
0.0
 11
-91.74249267578128
 21
41.51962471008278
 31
0.0
  0
ARC
  5
51
  8
LAYER01
  6
CONTINUOUS
 62
     7
 10
-118.69580078125
 20
-585.3003368377686
 30
0.0
 40
633.9495849609375
 50
94.26426035804637
 51
97.05107999224913
  0
LINE
  5
52
  8
LAYER01
  6
CONTINUOUS
 62
     7
 10
-165.1893920898438
 20
22.25229072570778
 30
0.0
 11
-206.1390609741211
 21
22.25229072570778
 31
0.0
  0
LINE
  5
53
  8
LAYER01
  6
CONTINUOUS
 62
     7
 10
-201.7844390869141
 20
15.24920845031716
 30
0.0
 11
-173.6499557495117
 21
14.56698799133301
 31
0.0
  0
ARC
  5
54
  8
LAYER01
  6
CONTINUOUS
 62
     7
 10
-554.0398559570312
 20
10823.40526008606
 30
0.0
 40
10789.3251953125
 50
271.8728658744195
 51
272.1288886852683
  0
LINE
  5
55
  8
LAYER01
  6
CONTINUOUS
 62
     7
 10
-201.7357635498047
 20
30.34210395812988
 30
0.0
 11
-201.7357635498047
 21
37.94935798644997
 31
0.0
  0
ARC
  5
56
  8
LAYER01
  6
CONTINUOUS
 62
     7
 10
-203.2233657836914
 20
30.34210395812988
 30
0.0
 40
1.487603306770325
 50
270.0000006832453
 51
0.0
  0
ARC
  5
57
  8
LAYER01
  6
CONTINUOUS
 62
     7
 10
-204.6514587402344
 20
27.36689949035622
 30
0.0
 40
1.487603306770325
 50
90.00000250447816
 51
180.0000050089563
  0
LINE
  5
58
  8
LAYER01
  6
CONTINUOUS
 62
     7
 10
-204.6514587402344
 20
28.85449409484841
 30
0.0
 11
-195.5943145751953
 21
28.85449409484841
 31
0.0
  0
ARC
  5
59
  8
LAYER01
  6
CONTINUOUS
 62
     7
 10
-195.7853469848633
 20
37.94935798644997
 30
0.0
 40
5.950413227081299
 50
97.05107999224913
 51
180.0000050089563
  0
ARC
  5
5A
  8
LAYER01
  6
CONTINUOUS
 62
     7
 10
-201.676254272461
 20
19.71071052551247
 30
0.0
 40
4.462809562683105
 50
180.0000050089563
 51
268.6109314513615
  0
LINE
  5
5B
  8
LAYER01
  6
CONTINUOUS
 62
     7
 10
-206.1390609741211
 20
19.71071052551247
 30
0.0
 11
-206.1390609741211
 21
27.36689949035622
 31
0.0
  0
LINE
  5
5C
  8
LAYER01
  6
CONTINUOUS
 62
     7
 10
-195.5943145751953
 20
15.09910774230934
 30
0.0
 11
-195.5943145751953
 21
28.85449409484841
 31
0.0
  0
ARC
  5
5D
  8
LAYER01
  6
CONTINUOUS
 62
     7
 10
-166.3872375488282
 20
54.31173896789551
 30
0.0
 40
7.438016414642334
 50
274.2642517066243
 51
310.6425768865427
  0
LINE
  5
5E
  8
LAYER01
  6
CONTINUOUS
 62
     7
 10
-166.8778152465821
 20
18.72139167785622
 30
0.0
 11
-164.0539321899414
 21
24.62680244445778
 31
0.0
  0
ARC
  5
5F
  8
LAYER01
  6
CONTINUOUS
 62
     7
 10
-153.6502075195313
 20
52.49684333801247
 30
0.0
 40
10.97722434997559
 50
207.128792392195
 51
270.0000006832453
  0
ARC
  5
60
  8
LAYER01
  6
CONTINUOUS
 62
     7
 10
-158.8980407714844
 20
22.16131782531716
 30
0.0
 40
5.715052604675293
 50
90.00000250447816
 51
154.443540833033
  0
LINE
  5
61
  8
LAYER01
  6
CONTINUOUS
 62
     7
 10
-111.12548828125
 20
41.51962471008278
 30
0.0
 11
-113.9592590332032
 21
56.44976997375488
 31
0.0
  0
LINE
  5
62
  8
LAYER01
  6
CONTINUOUS
 62
     7
 10
-142.0955505371094
 20
41.51962471008278
 30
0.0
 11
-134.4671173095703
 21
56.44976997375488
 31
0.0
  0
LINE
  5
63
  8
LAYER01
  6
CONTINUOUS
 62
     7
 10
-108.1574401855469
 20
56.44976997375488
 30
0.0
 11
-106.5996246337891
 21
41.51962471008278
 31
0.0
  0
ARC
  5
64
  8
LAYER01
  6
CONTINUOUS
 62
     7
 10
-141.8576965332032
 20
25.80287361144997
 30
0.0
 40
5.950413227081299
 50
6.927922346846463
 51
56.83235800808613
  0
LINE
  5
65
  8
LAYER01
  6
CONTINUOUS
 62
     7
 10
-139.4005584716797
 20
31.30554389953613
 30
0.0
 11
-138.602279663086
 21
30.78381538391091
 31
0.0
  0
LINE
  5
66
  8
LAYER01
  6
CONTINUOUS
 62
     7
 10
-142.0955505371094
 20
41.51962471008278
 30
0.0
 11
-142.0955505371094
 21
36.28647041320778
 31
0.0
  0
ARC
  5
67
  8
LAYER01
  6
CONTINUOUS
 62
     7
 10
-136.1451416015625
 20
36.28647041320778
 30
0.0
 40
5.950413227081299
 50
180.0000050089563
 51
236.8323561868533
  0
LINE
  5
68
  8
LAYER01
  6
CONTINUOUS
 62
     7
 10
-138.6530914306641
 20
13.88755989074684
 30
0.0
 11
-141.0691986083985
 21
23.54797554016091
 31
0.0
  0
ARC
  5
69
  8
LAYER01
  6
CONTINUOUS
 62
     7
 10
-146.6134796142578
 20
22.16131782531716
 30
0.0
 40
5.715052604675293
 50
14.04183159856602
 51
90.00000250447816
  0
LINE
  5
6A
  8
LAYER01
  6
CONTINUOUS
 62
     7
 10
-106.5996246337891
 20
41.51962471008278
 30
0.0
 11
-106.5724487304688
 21
41.38330268859841
 31
0.0
  0
ARC
  5
6B
  8
LAYER01
  6
CONTINUOUS
 62
     7
 10
-135.7500915527344
 20
35.56523323059082
 30
0.0
 40
29.75206565856934
 50
350.5055826187314
 51
11.27695821594017
  0
LINE
  5
6C
  8
LAYER01
  6
CONTINUOUS
 62
     7
 10
-113.9592590332032
 20
56.44976997375488
 30
0.0
 11
-134.4671173095703
 21
56.44976997375488
 31
0.0
  0
LINE
  5
6D
  8
LAYER01
  6
CONTINUOUS
 62
     7
 10
-137.9959716796875
 20
70.72455024719216
 30
0.0
 11
-92.29212951660159
 21
70.72455024719216
 31
0.0
  0
LINE
  5
6E
  8
LAYER01
  6
CONTINUOUS
 62
     7
 10
-133.5331726074219
 20
66.2617359161377
 30
0.0
 11
-96.75492858886722
 21
66.2617359161377
 31
0.0
  0
LINE
  5
6F
  8
LAYER01
  6
CONTINUOUS
 62
     7
 10
-137.3459777832032
 20
62.31254768371559
 30
0.0
 11
-92.33303833007815
 21
62.31254768371559
 31
0.0
  0
LINE
  5
70
  8
LAYER01
  6
CONTINUOUS
 62
     7
 10
-92.29212951660159
 20
82.14535713195778
 30
0.0
 11
-137.9959716796875
 21
82.14535713195778
 31
0.0
  0
LINE
  5
71
  8
LAYER01
  6
CONTINUOUS
 62
     7
 10
-133.5331726074219
 20
86.6081562042234
 30
0.0
 11
-96.75492858886722
 21
86.6081562042234
 31
0.0
  0
LINE
  5
72
  8
LAYER01
  6
CONTINUOUS
 62
     7
 10
-137.9959716796875
 20
70.72455024719216
 30
0.0
 11
-137.9959716796875
 21
82.14535713195778
 31
0.0
  0
LINE
  5
73
  8
LAYER01
  6
CONTINUOUS
 62
     7
 10
-125.7376556396485
 20
62.31254768371559
 30
0.0
 11
-125.7376556396485
 21
66.2617359161377
 31
0.0
  0
LINE
  5
74
  8
LAYER01
  6
CONTINUOUS
 62
     7
 10
-123.6946105957032
 20
62.31254768371559
 30
0.0
 11
-123.6946105957032
 21
66.2617359161377
 31
0.0
  0
ARC
  5
75
  8
LAYER01
  6
CONTINUOUS
 62
     7
 10
-137.3459777832032
 20
54.87452888488747
 30
0.0
 40
7.438016414642334
 50
90.00000250447816
 51
112.3215251649434
  0
ARC
  5
76
  8
LAYER01
  6
CONTINUOUS
 62
     7
 10
-133.5331726074219
 20
70.72455024719216
 30
0.0
 40
4.462809562683105
 50
180.0000050089563
 51
270.0000006832453
  0
LINE
  5
77
  8
LAYER01
  6
CONTINUOUS
 62
     7
 10
-133.5331726074219
 20
86.6081562042234
 30
0.0
 11
-133.5331726074219
 21
66.2617359161377
 31
0.0
  0
ARC
  5
78
  8
LAYER01
  6
CONTINUOUS
 62
     7
 10
-133.5331726074219
 20
82.14535713195778
 30
0.0
 40
4.462809562683105
 50
90.00000250447816
 51
180.0000050089563
  0
LINE
  5
79
  8
LAYER01
  6
CONTINUOUS
 62
     7
 10
-92.29212951660159
 20
70.72455024719216
 30
0.0
 11
-92.29212951660159
 21
82.14535713195778
 31
0.0
  0
LINE
  5
7A
  8
LAYER01
  6
CONTINUOUS
 62
     7
 10
-104.0207672119141
 20
62.31254768371559
 30
0.0
 11
-104.0207672119141
 21
66.2617359161377
 31
0.0
  0
LINE
  5
7B
  8
LAYER01
  6
CONTINUOUS
 62
     7
 10
-101.9777069091797
 20
62.31254768371559
 30
0.0
 11
-101.9777069091797
 21
66.2617359161377
 31
0.0
  0
ARC
  5
7C
  8
LAYER01
  6
CONTINUOUS
 62
     7
 10
-96.75492858886722
 20
70.72455024719216
 30
0.0
 40
4.462809562683105
 50
270.0000006832453
 51
0.0
  0
LINE
  5
7D
  8
LAYER01
  6
CONTINUOUS
 62
     7
 10
-96.75492858886722
 20
66.2617359161377
 30
0.0
 11
-96.75492858886722
 21
86.6081562042234
 31
0.0
  0
LINE
  5
7E
  8
LAYER01
  6
CONTINUOUS
 62
     7
 10
-90.58497619628909
 20
56.44976997375488
 30
0.0
 11
-108.1574401855469
 21
56.44976997375488
 31
0.0
  0
ARC
  5
7F
  8
LAYER01
  6
CONTINUOUS
 62
     7
 10
-96.75492858886722
 20
82.14535713195778
 30
0.0
 40
4.462809562683105
 50
0.0
 51
90.00000250447816
  0
LINE
  5
80
  8
LAYER01
  6
CONTINUOUS
 62
     7
 10
-24.86953735351564
 20
16.02253913879372
 30
0.0
 11
-27.54617309570314
 21
23.60322761535622
 31
0.0
  0
LINE
  5
81
  8
LAYER01
  6
CONTINUOUS
 62
     7
 10
-26.57165527343751
 20
20.84323310852051
 30
0.0
 11
-0.0000000000000142
 21
20.84323310852051
 31
0.0
  0
ARC
  5
82
  8
LAYER01
  6
CONTINUOUS
 62
     7
 10
-57.89050292968754
 20
-153.1188497543337
 30
0.0
 40
196.1954498291016
 50
75.94733224947298
 51
91.19451379785419
  0
ARC
  5
83
  8
LAYER01
  6
CONTINUOUS
 62
     7
 10
-564.2409362792969
 20
-592.7467174530029
 30
0.0
 40
807.2010498046875
 50
51.72384096178015
 51
53.73130869092778
  0
LINE
  5
84
  8
LAYER01
  6
CONTINUOUS
 62
     7
 10
-84.93244934082033
 20
59.73163032531716
 30
0.0
 11
-65.32344055175784
 21
44.16084480285645
 31
0.0
  0
ARC
  5
85
  8
LAYER01
  6
CONTINUOUS
 62
     7
 10
-67.55789184570314
 20
43.99159431457497
 30
0.0
 40
4.528108596801758
 50
317.5213696826892
 51
349.08744410174
  0
ARC
  5
86
  8
LAYER01
  6
CONTINUOUS
 62
     7
 10
-62.08894348144532
 20
48.23417854309059
 30
0.0
 40
5.201350212097168
 50
231.5481939958513
 51
271.1945188068105
  0
ARC
  5
87
  8
LAYER01
  6
CONTINUOUS
 62
     7
 10
-93.45126342773439
 20
35.24920845031716
 30
0.0
 40
29.75206565856934
 50
352.4606832875125
 51
8.49784218134754
  0
LINE
  5
88
  8
LAYER01
  6
CONTINUOUS
 62
     7
 10
-64.02583312988284
 20
39.64573860168434
 30
0.0
 11
-64.21827697753909
 21
40.93368721008278
 31
0.0
  0
LINE
  5
89
  8
LAYER01
  6
CONTINUOUS
 62
     7
 10
-43.21600341796876
 20
27.41668891906716
 30
0.0
 11
-32.93685913085942
 21
27.41668891906716
 31
0.0
  0
ARC
  5
8A
  8
LAYER01
  6
CONTINUOUS
 62
     7
 10
-32.93685913085942
 20
21.6998462677002
 30
0.0
 40
5.716837882995606
 50
19.44748663320329
 51
90.00000250447816
  0
ARC
  5
8B
  8
LAYER01
  6
CONTINUOUS
 62
     7
 10
-43.21600341796876
 20
21.6998462677002
 30
0.0
 40
5.716837882995606
 50
90.00000250447816
 51
148.2780383522892
  0
ARC
  5
8C
  8
LAYER01
  6
CONTINUOUS
 62
     7
 10
-76.49736022949222
 20
56.62773323059059
 30
0.0
 40
10.32536315917969
 50
157.8274214535324
 51
172.0239833037822
  0
LINE
  5
8D
  8
LAYER01
  6
CONTINUOUS
 62
     7
 10
-6.313171386718793
 20
28.09152412414551
 30
0.0
 11
-6.313171386718793
 21
32.15936470031738
 31
0.0
  0
ARC
  5
8E
  8
LAYER01
  6
CONTINUOUS
 62
     7
 10
-11.51452636718751
 20
32.15936470031738
 30
0.0
 40
5.201350212097168
 50
0.0
 51
75.94733224947298
  0
LINE
  5
8F
  8
LAYER01
  6
CONTINUOUS
 62
     7
 10
-10.61734008789064
 20
25.71136665344238
 30
0.0
 11
-2.380157470703139
 21
25.71136665344238
 31
0.0
  0
ARC
  5
90
  8
LAYER01
  6
CONTINUOUS
 62
     7
 10
-3.932983398437514
 20
28.09152412414551
 30
0.0
 40
2.380165100097656
 50
180.0000050089563
 51
270.0000006832453
  0
LINE
  5
91
  8
LAYER01
  6
CONTINUOUS
 62
     7
 10
-0.0000000000000142
 20
16.76364326477028
 30
0.0
 11
-0.0000000000000142
 21
23.33119392394997
 31
0.0
  0
ARC
  5
92
  8
LAYER01
  6
CONTINUOUS
 62
     7
 10
-2.380157470703139
 20
16.76364326477028
 30
0.0
 40
2.380165100097656
 50
276.3860636326672
 51
0.0
  0
LINE
  5
93
  8
LAYER01
  6
CONTINUOUS
 62
     7
 10
-10.61734008789064
 20
20.84323310852051
 30
0.0
 11
-10.61734008789064
 21
25.71136665344238
 31
0.0
  0
ARC
  5
94
  8
LAYER01
  6
CONTINUOUS
 62
     7
 10
-2.380157470703139
 20
23.33119392394997
 30
0.0
 40
2.380165100097656
 50
0.0
 51
90.00000250447816
  0
ENDSEC
  0
EOF
