  0
SECTION
  2
HEADER
  9
$ACADVER
  1
AC1009
  9
$DWGCODEPAGE
  3
ansi_1252
  9
$INSBASE
 10
0.0
 20
0.0
 30
0.0
  9
$EXTMIN
 10
-348.1078681945801
 20
0.0
 30
0.0
  9
$EXTMAX
 10
0.000007629394517
 20
68.03213500976585
 30
0.0
  9
$LIMMIN
 10
0.0
 20
0.0
  9
$LIMMAX
 10
12.0
 20
9.0
  9
$ORTHOMODE
 70
     0
  9
$REGENMODE
 70
     1
  9
$FILLMODE
 70
     1
  9
$QTEXTMODE
 70
     0
  9
$MIRRTEXT
 70
     1
  9
$DRAGMODE
 70
     2
  9
$LTSCALE
 40
1.0
  9
$OSMODE
 70
    37
  9
$ATTMODE
 70
     1
  9
$TEXTSIZE
 40
0.7
  9
$TRACEWID
 40
0.05
  9
$TEXTSTYLE
  7
ATTR
  9
$CLAYER
  8
0
  9
$CELTYPE
  6
BYLAYER
  9
$CECOLOR
 62
   256
  9
$DIMSCALE
 40
1.0
  9
$DIMASZ
 40
0.18
  9
$DIMEXO
 40
0.0625
  9
$DIMDLI
 40
0.38
  9
$DIMRND
 40
0.0
  9
$DIMDLE
 40
0.0
  9
$DIMEXE
 40
0.18
  9
$DIMTP
 40
0.0
  9
$DIMTM
 40
0.0
  9
$DIMTXT
 40
0.18
  9
$DIMCEN
 40
0.09
  9
$DIMTSZ
 40
0.0
  9
$DIMTOL
 70
     0
  9
$DIMLIM
 70
     0
  9
$DIMTIH
 70
     1
  9
$DIMTOH
 70
     1
  9
$DIMSE1
 70
     0
  9
$DIMSE2
 70
     0
  9
$DIMTAD
 70
     0
  9
$DIMZIN
 70
     0
  9
$DIMBLK
  1

  9
$DIMASO
 70
     1
  9
$DIMSHO
 70
     1
  9
$DIMPOST
  1

  9
$DIMAPOST
  1

  9
$DIMALT
 70
     0
  9
$DIMALTD
 70
     2
  9
$DIMALTF
 40
25.4
  9
$DIMLFAC
 40
1.0
  9
$DIMTOFL
 70
     0
  9
$DIMTVP
 40
0.0
  9
$DIMTIX
 70
     0
  9
$DIMSOXD
 70
     0
  9
$DIMSAH
 70
     0
  9
$DIMBLK1
  1

  9
$DIMBLK2
  1

  9
$DIMSTYLE
  2
STANDARD
  9
$DIMCLRD
 70
     0
  9
$DIMCLRE
 70
     0
  9
$DIMCLRT
 70
     0
  9
$DIMTFAC
 40
1.0
  9
$DIMGAP
 40
0.09
  9
$LUNITS
 70
     2
  9
$LUPREC
 70
     4
  9
$SKETCHINC
 40
0.1
  9
$FILLETRAD
 40
0.0
  9
$AUNITS
 70
     0
  9
$AUPREC
 70
     0
  9
$MENU
  1
acad
  9
$ELEVATION
 40
0.0
  9
$PELEVATION
 40
0.0
  9
$THICKNESS
 40
0.0
  9
$LIMCHECK
 70
     0
  9
$CHAMFERA
 40
0.0
  9
$CHAMFERB
 40
0.0
  9
$SKPOLY
 70
     0
  9
$TDCREATE
 40
2450138.643590625
  9
$TDUPDATE
 40
2458028.7209375
  9
$TDINDWG
 40
0.0013567245
  9
$TDUSRTIMER
 40
0.0013567245
  9
$USRTIMER
 70
     1
  9
$ANGBASE
 50
0.0
  9
$ANGDIR
 70
     0
  9
$PDMODE
 70
     0
  9
$PDSIZE
 40
0.0
  9
$PLINEWID
 40
0.0
  9
$COORDS
 70
     1
  9
$SPLFRAME
 70
     0
  9
$SPLINETYPE
 70
     6
  9
$SPLINESEGS
 70
     8
  9
$ATTDIA
 70
     0
  9
$ATTREQ
 70
     1
  9
$HANDLING
 70
     1
  9
$HANDSEED
  5
11C
  9
$SURFTAB1
 70
     6
  9
$SURFTAB2
 70
     6
  9
$SURFTYPE
 70
     6
  9
$SURFU
 70
     6
  9
$SURFV
 70
     6
  9
$UCSNAME
  2

  9
$UCSORG
 10
0.0
 20
0.0
 30
0.0
  9
$UCSXDIR
 10
1.0
 20
0.0
 30
0.0
  9
$UCSYDIR
 10
0.0
 20
1.0
 30
0.0
  9
$PUCSNAME
  2

  9
$PUCSORG
 10
0.0
 20
0.0
 30
0.0
  9
$PUCSXDIR
 10
1.0
 20
0.0
 30
0.0
  9
$PUCSYDIR
 10
0.0
 20
1.0
 30
0.0
  9
$USERI1
 70
     0
  9
$USERI2
 70
     0
  9
$USERI3
 70
     0
  9
$USERI4
 70
     0
  9
$USERI5
 70
     0
  9
$USERR1
 40
0.0
  9
$USERR2
 40
0.0
  9
$USERR3
 40
0.0
  9
$USERR4
 40
0.0
  9
$USERR5
 40
0.0
  9
$WORLDVIEW
 70
     1
  9
$SHADEDGE
 70
     3
  9
$SHADEDIF
 70
    70
  9
$TILEMODE
 70
     1
  9
$MAXACTVP
 70
    16
  9
$PLIMCHECK
 70
     0
  9
$PEXTMIN
 10
1.000000000000000E+20
 20
1.000000000000000E+20
 30
1.000000000000000E+20
  9
$PEXTMAX
 10
-1.000000000000000E+20
 20
-1.000000000000000E+20
 30
-1.000000000000000E+20
  9
$PLIMMIN
 10
0.0
 20
0.0
  9
$PLIMMAX
 10
12.0
 20
9.0
  9
$UNITMODE
 70
     0
  9
$VISRETAIN
 70
     0
  9
$PLINEGEN
 70
     0
  9
$PSLTSCALE
 70
     1
  0
ENDSEC
  0
SECTION
  2
TABLES
  0
TABLE
  2
VPORT
 70
     1
  0
VPORT
  2
*ACTIVE
 70
     0
 10
0.0
 20
0.0
 11
1.0
 21
1.0
 12
-174.678073876794
 22
55.97865966391587
 13
0.0
 23
0.0
 14
1.0
 24
1.0
 15
0.0
 25
0.0
 16
0.0
 26
0.0
 36
1.0
 17
0.0
 27
0.0
 37
0.0
 40
234.4536378954963
 41
1.503537735849057
 42
50.0
 43
0.0
 44
0.0
 50
0.0
 51
0.0
 71
     0
 72
   100
 73
     1
 74
     1
 75
     0
 76
     0
 77
     0
 78
     0
  0
ENDTAB
  0
TABLE
  2
LTYPE
 70
     1
  0
LTYPE
  2
CONTINUOUS
 70
     0
  3
Solid line
 72
    65
 73
     0
 40
0.0
  0
ENDTAB
  0
TABLE
  2
LAYER
 70
     2
  0
LAYER
  2
0
 70
     0
 62
     7
  6
CONTINUOUS
  0
LAYER
  2
LAYER01
 70
     0
 62
     7
  6
CONTINUOUS
  0
ENDTAB
  0
TABLE
  2
STYLE
 70
     2
  0
STYLE
  2
STANDARD
 70
     0
 40
0.0
 41
1.0
 50
0.0
 71
     0
 42
0.2
  3
txt
  4

  0
STYLE
  2
ATTR
 70
     0
 40
0.7
 41
0.8
 50
0.0
 71
     0
 42
0.7
  3
romans.shx
  4

  0
ENDTAB
  0
TABLE
  2
VIEW
 70
     0
  0
ENDTAB
  0
TABLE
  2
UCS
 70
     0
  0
ENDTAB
  0
TABLE
  2
APPID
 70
     2
  0
APPID
  2
ACAD
 70
     0
  0
APPID
  2
DCO15
 70
     0
  0
ENDTAB
  0
TABLE
  2
DIMSTYLE
 70
     1
  0
DIMSTYLE
  2
STANDARD
 70
     0
  3

  4

  5

  6

  7

 40
1.0
 41
0.18
 42
0.0625
 43
0.38
 44
0.18
 45
0.0
 46
0.0
 47
0.0
 48
0.0
140
0.18
141
0.09
142
0.0
143
25.4
144
1.0
145
0.0
146
1.0
147
0.09
 71
     0
 72
     0
 73
     1
 74
     1
 75
     0
 76
     0
 77
     0
 78
     0
170
     0
171
     2
172
     0
173
     0
174
     0
175
     0
176
     0
177
     0
178
     0
  0
ENDTAB
  0
ENDSEC
  0
SECTION
  2
BLOCKS
  0
BLOCK
  8
0
  2
$MODEL_SPACE
 70
     0
 10
0.0
 20
0.0
 30
0.0
  3
$MODEL_SPACE
  1

  0
ENDBLK
  5
21
  8
0
  0
BLOCK
 67
     1
  8
0
  2
$PAPER_SPACE
 70
     0
 10
0.0
 20
0.0
 30
0.0
  3
$PAPER_SPACE
  1

  0
ENDBLK
  5
1F
 67
     1
  8
0
  0
ENDSEC
  0
SECTION
  2
ENTITIES
  0
LINE
  5
24
  8
LAYER01
  6
CONTINUOUS
 62
     7
 10
-153.6501998901367
 20
41.51961898803711
 30
0.0
 11
-91.74249267578125
 21
41.51961898803711
 31
0.0
  0
LINE
  5
25
  8
LAYER01
  6
CONTINUOUS
 62
     7
 10
-160.67626953125
 20
44.06275558471702
 30
0.0
 11
-137.3459777832031
 21
62.31254196167015
 31
0.0
  0
CIRCLE
  5
26
  8
LAYER01
  6
CONTINUOUS
 62
     7
 10
-153.1217422485352
 20
13.12626838684082
 30
0.0
 40
13.12626838684082
  0
LINE
  5
27
  8
LAYER01
  6
CONTINUOUS
 62
     7
 10
-158.8980407714844
 20
27.87637329101562
 30
0.0
 11
-146.6134719848633
 21
27.87637329101562
 31
0.0
  0
CIRCLE
  5
28
  8
LAYER01
  6
CONTINUOUS
 62
     7
 10
-153.1217422485352
 20
13.12626838684082
 30
0.0
 40
4.739828109741211
  0
CIRCLE
  5
29
  8
LAYER01
  6
CONTINUOUS
 62
     7
 10
-153.1217422485352
 20
13.12626838684082
 30
0.0
 40
8.795607566833496
  0
ARC
  5
2A
  8
LAYER01
  6
CONTINUOUS
 62
     7
 10
-110.2778472900391
 20
-11.0538501739502
 30
0.0
 40
78.7067642211914
 50
112.3215251649434
 51
130.6425855379647
  0
LINE
  5
2B
  8
LAYER01
  6
CONTINUOUS
 62
     7
 10
-252.1078796386719
 20
8.032161712646484
 30
0.0
 11
-252.1078796386719
 21
59.70155715942406
 31
0.0
  0
LINE
  5
2C
  8
LAYER01
  6
CONTINUOUS
 62
     7
 10
-260.4384574890137
 20
68.03213119506813
 30
0.0
 11
-260.4384574890137
 21
8.032161712646484
 31
0.0
  0
LINE
  5
2D
  8
LAYER01
  6
CONTINUOUS
 62
     7
 10
-348.1078643798828
 20
59.70155715942406
 30
0.0
 11
-348.1078643798828
 21
8.032161712646484
 31
0.0
  0
LINE
  5
2E
  8
LAYER01
  6
CONTINUOUS
 62
     7
 10
-339.7772903442383
 20
68.03213119506813
 30
0.0
 11
-339.7772903442383
 21
8.032161712646484
 31
0.0
  0
ARC
  5
2F
  8
LAYER01
  6
CONTINUOUS
 62
     7
 10
-195.7853469848633
 20
37.94935607910179
 30
0.0
 40
5.950413227081299
 50
97.05107999224913
 51
180.0000050089563
  0
ARC
  5
30
  8
LAYER01
  6
CONTINUOUS
 62
     7
 10
-554.0398406982421
 20
10823.40534591675
 30
0.0
 40
10789.3251953125
 50
271.8728658744195
 51
272.1288886852683
  0
ARC
  5
31
  8
LAYER01
  6
CONTINUOUS
 62
     7
 10
-153.6501998901367
 20
52.4968452453611
 30
0.0
 40
10.97722434997559
 50
207.128792392195
 51
270.0000006832453
  0
LINE
  5
32
  8
LAYER01
  6
CONTINUOUS
 62
     7
 10
-281.1373596191406
 20
8.032161712646484
 30
0.0
 11
-252.1078796386719
 21
8.032161712646484
 31
0.0
  0
LINE
  5
33
  8
LAYER01
  6
CONTINUOUS
 62
     7
 10
-325.2325210571289
 20
8.032161712646484
 30
0.0
 11
-348.1078643798828
 21
8.032161712646484
 31
0.0
  0
CIRCLE
  5
34
  8
LAYER01
  6
CONTINUOUS
 62
     7
 10
-303.2944641113281
 20
13.41734313964844
 30
0.0
 40
5.39415693283081
  0
LINE
  5
35
  8
LAYER01
  6
CONTINUOUS
 62
     7
 10
-312.6914367675781
 20
30.1829528808596
 30
0.0
 11
-293.6784439086914
 21
30.1829528808596
 31
0.0
  0
CIRCLE
  5
36
  8
LAYER01
  6
CONTINUOUS
 62
     7
 10
-303.2944641113281
 20
13.41734313964844
 30
0.0
 40
13.41734313964844
  0
LINE
  5
37
  8
LAYER01
  6
CONTINUOUS
 62
     7
 10
-325.2325210571289
 20
8.032161712646484
 30
0.0
 11
-312.6914367675781
 21
30.1829528808596
 31
0.0
  0
LINE
  5
38
  8
LAYER01
  6
CONTINUOUS
 62
     7
 10
-281.1373596191406
 20
8.032161712646484
 30
0.0
 11
-293.6784439086914
 21
30.1829528808596
 31
0.0
  0
ARC
  5
39
  8
LAYER01
  6
CONTINUOUS
 62
     7
 10
-249.0294971466064
 20
161.3073692321777
 30
0.0
 40
153.3061065673828
 50
268.8494143364217
 51
287.7426191656474
  0
ARC
  5
3A
  8
LAYER01
  6
CONTINUOUS
 62
     7
 10
-249.0294971466064
 20
161.3073692321777
 30
0.0
 40
149.8061065673828
 50
268.8225307118485
 51
286.7921573615051
  0
LINE
  5
3B
  8
LAYER01
  6
CONTINUOUS
 62
     7
 10
-165.189395904541
 20
22.25228118896484
 30
0.0
 11
-206.1390609741211
 21
22.25228118896484
 31
0.0
  0
LINE
  5
3C
  8
LAYER01
  6
CONTINUOUS
 62
     7
 10
-201.7844371795654
 20
15.24921035766602
 30
0.0
 11
-173.649959564209
 21
14.56698608398438
 31
0.0
  0
ARC
  5
3D
  8
LAYER01
  6
CONTINUOUS
 62
     7
 10
-203.2233638763428
 20
30.34209823608398
 30
0.0
 40
1.487603306770325
 50
270.0000006832453
 51
0.0
  0
ARC
  5
3E
  8
LAYER01
  6
CONTINUOUS
 62
     7
 10
-204.6514587402344
 20
27.36688995361328
 30
0.0
 40
1.487603306770325
 50
90.00000250447816
 51
180.0000050089563
  0
LINE
  5
3F
  8
LAYER01
  6
CONTINUOUS
 62
     7
 10
-206.1390609741211
 20
19.71070861816406
 30
0.0
 11
-206.1390609741211
 21
27.36688995361328
 31
0.0
  0
LINE
  5
40
  8
LAYER01
  6
CONTINUOUS
 62
     7
 10
-204.6514587402344
 20
28.8544921875
 30
0.0
 11
-195.5943164825439
 21
28.8544921875
 31
0.0
  0
ARC
  5
41
  8
LAYER01
  6
CONTINUOUS
 62
     7
 10
-201.6762523651123
 20
19.71070861816406
 30
0.0
 40
4.462809562683105
 50
180.0000050089563
 51
268.6109314513615
  0
LINE
  5
42
  8
LAYER01
  6
CONTINUOUS
 62
     7
 10
-195.5943164825439
 20
15.09910774230957
 30
0.0
 11
-195.5943164825439
 21
28.8544921875
 31
0.0
  0
LINE
  5
43
  8
LAYER01
  6
CONTINUOUS
 62
     7
 10
-201.7357616424561
 20
30.34209823608398
 30
0.0
 11
-201.7357616424561
 21
37.94935607910179
 31
0.0
  0
LINE
  5
44
  8
LAYER01
  6
CONTINUOUS
 62
     7
 10
-166.877815246582
 20
18.72138977050781
 30
0.0
 11
-164.0539360046387
 21
24.62679672241211
 31
0.0
  0
ARC
  5
45
  8
LAYER01
  6
CONTINUOUS
 62
     7
 10
-158.8980407714844
 20
22.16131973266602
 30
0.0
 40
5.715052604675293
 50
90.00000250447816
 51
154.443540833033
  0
ARC
  5
46
  8
LAYER01
  6
CONTINUOUS
 62
     7
 10
-173.4727478027344
 20
21.87499237060547
 30
0.0
 40
7.310153007507324
 50
268.6109314513615
 51
334.4435458419893
  0
LINE
  5
47
  8
LAYER01
  6
CONTINUOUS
 62
     7
 10
-260.4384574890137
 20
68.03213119506813
 30
0.0
 11
-339.7772903442383
 21
68.03213119506813
 31
0.0
  0
LINE
  5
48
  8
LAYER01
  6
CONTINUOUS
 62
     7
 10
-252.1078796386719
 20
59.70155715942406
 30
0.0
 11
-348.1078643798828
 21
59.70155715942406
 31
0.0
  0
ARC
  5
49
  8
LAYER01
  6
CONTINUOUS
 62
     7
 10
-339.7772903442383
 20
59.70155715942406
 30
0.0
 40
8.330577850341797
 50
90.00000250447816
 51
180.0000050089563
  0
ARC
  5
4A
  8
LAYER01
  6
CONTINUOUS
 62
     7
 10
-260.4384574890137
 20
59.70155715942406
 30
0.0
 40
8.330577850341797
 50
0.0
 51
90.00000250447816
  0
ARC
  5
4B
  8
LAYER01
  6
CONTINUOUS
 62
     7
 10
-118.69580078125
 20
-585.3003425598145
 30
0.0
 40
633.9495849609375
 50
94.26426035804637
 51
97.05107999224913
  0
ARC
  5
4C
  8
LAYER01
  6
CONTINUOUS
 62
     7
 10
-166.3872413635254
 20
54.31173324584961
 30
0.0
 40
7.438016414642334
 50
274.2642517066243
 51
310.6425768865427
  0
ARC
  5
4D
  8
LAYER01
  6
CONTINUOUS
 62
     7
 10
-67.55789184570314
 20
43.9915885925293
 30
0.0
 40
4.528108596801758
 50
317.5213696826892
 51
349.08744410174
  0
ARC
  5
4E
  8
LAYER01
  6
CONTINUOUS
 62
     7
 10
-564.2409515380859
 20
-592.746753692627
 30
0.0
 40
807.2010498046875
 50
51.72384096178015
 51
53.73130869092778
  0
LINE
  5
4F
  8
LAYER01
  6
CONTINUOUS
 62
     7
 10
-142.0955505371094
 20
41.51961898803711
 30
0.0
 11
-142.0955505371094
 21
36.28646469116188
 31
0.0
  0
ARC
  5
50
  8
LAYER01
  6
CONTINUOUS
 62
     7
 10
-135.7500991821289
 20
35.56523132324219
 30
0.0
 40
29.75206565856934
 50
350.5055826187314
 51
11.27695821594017
  0
ARC
  5
51
  8
LAYER01
  6
CONTINUOUS
 62
     7
 10
-91.74249267578125
 20
-605.249195098877
 30
0.0
 40
646.7688598632812
 50
82.57013638571664
 51
90.00000250447816
  0
ARC
  5
52
  8
LAYER01
  6
CONTINUOUS
 62
     7
 10
-57.89050292968749
 20
-153.1188545227053
 30
0.0
 40
196.1954498291016
 50
75.94733224947298
 51
91.19451379785419
  0
ARC
  5
53
  8
LAYER01
  6
CONTINUOUS
 62
     7
 10
-19.8197021484375
 20
17.80556106567383
 30
0.0
 40
5.355371475219727
 50
199.4474933497069
 51
276.3860636326672
  0
LINE
  5
54
  8
LAYER01
  6
CONTINUOUS
 62
     7
 10
-26.5716552734375
 20
20.84322357177734
 30
0.0
 11
-0.0000000000000071
 21
20.84322357177734
 31
0.0
  0
LINE
  5
55
  8
LAYER01
  6
CONTINUOUS
 62
     7
 10
-140.3927307128906
 20
20.84322357177734
 30
0.0
 11
-50.46638488769532
 21
20.84322357177734
 31
0.0
  0
LINE
  5
56
  8
LAYER01
  6
CONTINUOUS
 62
     7
 10
-131.5613708496094
 20
8.351070404052734
 30
0.0
 11
-61.92814636230469
 21
8.351070404052734
 31
0.0
  0
LINE
  5
57
  8
LAYER01
  6
CONTINUOUS
 62
     7
 10
-138.5009384155273
 20
13.36322593688942
 30
0.0
 11
-55.09008789062501
 21
13.36322593688942
 31
0.0
  0
LINE
  5
58
  8
LAYER01
  6
CONTINUOUS
 62
     7
 10
-134.2785720825195
 20
12.75888442993164
 30
0.0
 11
-135.9507293701172
 21
26.52061462402344
 31
0.0
  0
LINE
  5
59
  8
LAYER01
  6
CONTINUOUS
 62
     7
 10
-139.4005508422852
 20
31.30553054809548
 30
0.0
 11
-138.6022872924805
 21
30.78380584716797
 31
0.0
  0
ARC
  5
5A
  8
LAYER01
  6
CONTINUOUS
 62
     7
 10
-146.6134719848633
 20
22.16131973266602
 30
0.0
 40
5.715052604675293
 50
14.04183159856602
 51
90.00000250447816
  0
LINE
  5
5B
  8
LAYER01
  6
CONTINUOUS
 62
     7
 10
-138.6530914306641
 20
13.88755989074684
 30
0.0
 11
-141.0691909790039
 21
23.54796600341797
 31
0.0
  0
ARC
  5
5C
  8
LAYER01
  6
CONTINUOUS
 62
     7
 10
-131.5613708496094
 20
15.6612243652346
 30
0.0
 40
7.310153007507324
 50
194.0418357537487
 51
270.0000006832453
  0
ARC
  5
5D
  8
LAYER01
  6
CONTINUOUS
 62
     7
 10
-141.8576965332031
 20
25.80287170410156
 30
0.0
 40
5.950413227081299
 50
6.927922346846463
 51
56.83235800808613
  0
ARC
  5
5E
  8
LAYER01
  6
CONTINUOUS
 62
     7
 10
-136.145133972168
 20
36.28646469116188
 30
0.0
 40
5.950413227081299
 50
180.0000050089563
 51
236.8323561868533
  0
LINE
  5
5F
  8
LAYER01
  6
CONTINUOUS
 62
     7
 10
-109.2979354858398
 20
13.36322593688942
 30
0.0
 11
-106.4055862426758
 21
30.6575813293457
 31
0.0
  0
LINE
  5
60
  8
LAYER01
  6
CONTINUOUS
 62
     7
 10
-56.22192382812502
 20
11.53219985961914
 30
0.0
 11
-48.07879638671876
 21
24.70574951171875
 31
0.0
  0
LINE
  5
61
  8
LAYER01
  6
CONTINUOUS
 62
     7
 10
-64.02583312988283
 20
39.64573669433571
 30
0.0
 11
-64.21827697753905
 21
40.9336853027346
 31
0.0
  0
ARC
  5
62
  8
LAYER01
  6
CONTINUOUS
 62
     7
 10
-61.92814636230469
 20
15.0594539642334
 30
0.0
 40
6.708383560180663
 50
270.0000006832453
 51
328.2780433612455
  0
LINE
  5
63
  8
LAYER01
  6
CONTINUOUS
 62
     7
 10
-66.33638000488281
 20
13.36322593688942
 30
0.0
 11
-63.95640563964845
 21
31.34555053710938
 31
0.0
  0
ARC
  5
64
  8
LAYER01
  6
CONTINUOUS
 62
     7
 10
-93.45126342773438
 20
35.24921035766602
 30
0.0
 40
29.75206565856934
 50
352.4606832875125
 51
8.49784218134754
  0
LINE
  5
65
  8
LAYER01
  6
CONTINUOUS
 62
     7
 10
-24.86953735351563
 20
16.02252769470215
 30
0.0
 11
-27.54618835449219
 21
23.60322952270508
 31
0.0
  0
LINE
  5
66
  8
LAYER01
  6
CONTINUOUS
 62
     7
 10
-43.21600341796876
 20
27.41668701171875
 30
0.0
 11
-32.93685913085938
 21
27.41668701171875
 31
0.0
  0
CIRCLE
  5
67
  8
LAYER01
  6
CONTINUOUS
 62
     7
 10
-38.90232849121094
 20
13.12626838684082
 30
0.0
 40
4.739828109741211
  0
ARC
  5
68
  8
LAYER01
  6
CONTINUOUS
 62
     7
 10
-32.93685913085938
 20
21.69984817504883
 30
0.0
 40
5.716837882995606
 50
19.44748663320329
 51
90.00000250447816
  0
CIRCLE
  5
69
  8
LAYER01
  6
CONTINUOUS
 62
     7
 10
-38.90232849121094
 20
13.12626838684082
 30
0.0
 40
8.795607566833496
  0
ARC
  5
6A
  8
LAYER01
  6
CONTINUOUS
 62
     7
 10
-43.21600341796876
 20
21.69984817504883
 30
0.0
 40
5.716837882995606
 50
90.00000250447816
 51
148.2780383522892
  0
CIRCLE
  5
6B
  8
LAYER01
  6
CONTINUOUS
 62
     7
 10
-38.90232849121094
 20
13.12626838684082
 30
0.0
 40
13.12626838684082
  0
ARC
  5
6C
  8
LAYER01
  6
CONTINUOUS
 62
     7
 10
-11.51451110839845
 20
32.15935516357422
 30
0.0
 40
5.201350212097168
 50
0.0
 51
75.94733224947298
  0
ARC
  5
6D
  8
LAYER01
  6
CONTINUOUS
 62
     7
 10
-2.380157470703139
 20
23.33119583129906
 30
0.0
 40
2.380165100097656
 50
0.0
 51
90.00000250447816
  0
ARC
  5
6E
  8
LAYER01
  6
CONTINUOUS
 62
     7
 10
-3.932998657226562
 20
28.09152603149414
 30
0.0
 40
2.380165100097656
 50
180.0000050089563
 51
270.0000006832453
  0
LINE
  5
6F
  8
LAYER01
  6
CONTINUOUS
 62
     7
 10
-10.61734008789064
 20
20.84322357177734
 30
0.0
 11
-10.61734008789064
 21
25.71136093139648
 31
0.0
  0
LINE
  5
70
  8
LAYER01
  6
CONTINUOUS
 62
     7
 10
-10.61734008789064
 20
25.71136093139648
 30
0.0
 11
-2.380157470703139
 21
25.71136093139648
 31
0.0
  0
ARC
  5
71
  8
LAYER01
  6
CONTINUOUS
 62
     7
 10
-2.380157470703139
 20
16.76363754272461
 30
0.0
 40
2.380165100097656
 50
276.3860636326672
 51
0.0
  0
LINE
  5
72
  8
LAYER01
  6
CONTINUOUS
 62
     7
 10
-0.0000000000000071
 20
16.76363754272461
 30
0.0
 11
-0.0000000000000071
 21
23.33119583129906
 31
0.0
  0
LINE
  5
73
  8
LAYER01
  6
CONTINUOUS
 62
     7
 10
-6.313156127929695
 20
28.09152603149414
 30
0.0
 11
-6.313156127929695
 21
32.15935516357422
 31
0.0
  0
LINE
  5
74
  8
LAYER01
  6
CONTINUOUS
 62
     7
 10
-11.91950988769533
 20
13.30095291137695
 30
0.0
 11
-11.91950988769533
 21
20.84322357177734
 31
0.0
  0
LINE
  5
75
  8
LAYER01
  6
CONTINUOUS
 62
     7
 10
-19.22404479980471
 20
12.48341751098633
 30
0.0
 11
-2.115417480468764
 21
14.39824104309105
 31
0.0
  0
ARC
  5
76
  8
LAYER01
  6
CONTINUOUS
 62
     7
 10
-76.4973602294922
 20
56.62772750854492
 30
0.0
 40
10.32536315917969
 50
157.8274214535324
 51
172.0239833037822
  0
ARC
  5
77
  8
LAYER01
  6
CONTINUOUS
 62
     7
 10
-92.33303833007812
 20
50.41171646118164
 30
0.0
 40
11.9008264541626
 50
51.54819923217869
 51
90.00000250447816
  0
LINE
  5
78
  8
LAYER01
  6
CONTINUOUS
 62
     7
 10
-74.55583190917969
 20
41.29122543334961
 30
0.0
 11
-90.58497619628906
 21
56.44977188110352
 31
0.0
  0
LINE
  5
79
  8
LAYER01
  6
CONTINUOUS
 62
     7
 10
-113.9592590332031
 20
56.44977188110352
 30
0.0
 11
-134.4671173095703
 21
56.44977188110352
 31
0.0
  0
LINE
  5
7A
  8
LAYER01
  6
CONTINUOUS
 62
     7
 10
-137.3459777832031
 20
62.31254196167015
 30
0.0
 11
-92.33303833007812
 21
62.31254196167015
 31
0.0
  0
ARC
  5
7B
  8
LAYER01
  6
CONTINUOUS
 62
     7
 10
-137.3459777832031
 20
54.87453079223633
 30
0.0
 40
7.438016414642334
 50
90.00000250447816
 51
112.3215251649434
  0
LINE
  5
7C
  8
LAYER01
  6
CONTINUOUS
 62
     7
 10
-142.0955505371094
 20
41.51961898803711
 30
0.0
 11
-134.4671173095703
 21
56.44977188110352
 31
0.0
  0
LINE
  5
7D
  8
LAYER01
  6
CONTINUOUS
 62
     7
 10
-106.5996246337891
 20
41.51961898803711
 30
0.0
 11
-106.5724487304688
 21
41.38330078125023
 31
0.0
  0
LINE
  5
7E
  8
LAYER01
  6
CONTINUOUS
 62
     7
 10
-111.12548828125
 20
41.51961898803711
 30
0.0
 11
-113.9592590332031
 21
56.44977188110352
 31
0.0
  0
LINE
  5
7F
  8
LAYER01
  6
CONTINUOUS
 62
     7
 10
-108.1574478149414
 20
56.44977188110352
 30
0.0
 11
-106.5996246337891
 21
41.51961898803711
 31
0.0
  0
LINE
  5
80
  8
LAYER01
  6
CONTINUOUS
 62
     7
 10
-90.58497619628906
 20
56.44977188110352
 30
0.0
 11
-108.1574478149414
 21
56.44977188110352
 31
0.0
  0
ARC
  5
81
  8
LAYER01
  6
CONTINUOUS
 62
     7
 10
-62.08895874023437
 20
48.23418045043945
 30
0.0
 40
5.201350212097168
 50
231.5481939958513
 51
271.1945188068105
  0
LINE
  5
82
  8
LAYER01
  6
CONTINUOUS
 62
     7
 10
-84.93244934082031
 20
59.73163223266602
 30
0.0
 11
-65.32344055175783
 21
44.16083908081055
 31
0.0
  0
ENDSEC
  0
EOF
