  0
SECTION
  2
HEADER
  9
$ACADVER
  1
AC1009
  9
$DWGCODEPAGE
  3
ansi_1252
  9
$INSBASE
 10
0.0
 20
0.0
 30
0.0
  9
$EXTMIN
 10
-1.226296134134827
 20
-1.227171847162822
 30
-0.0009154574956298
  9
$EXTMAX
 10
1.227584864442633
 20
1.231934126038027
 30
0.7635498405009784
  9
$LIMMIN
 10
0.0
 20
0.0
  9
$LIMMAX
 10
480.0
 20
360.0
  9
$ORTHOMODE
 70
     0
  9
$REGENMODE
 70
     1
  9
$FILLMODE
 70
     0
  9
$QTEXTMODE
 70
     0
  9
$MIRRTEXT
 70
     1
  9
$DRAGMODE
 70
     2
  9
$LTSCALE
 40
2.0
  9
$OSMODE
 70
    37
  9
$ATTMODE
 70
     1
  9
$TEXTSIZE
 40
1.0
  9
$TRACEWID
 40
0.05
  9
$TEXTSTYLE
  7
ST
  9
$CLAYER
  8
0
  9
$CELTYPE
  6
BYLAYER
  9
$CECOLOR
 62
   256
  9
$DIMSCALE
 40
1.0
  9
$DIMASZ
 40
0.125
  9
$DIMEXO
 40
0.0625
  9
$DIMDLI
 40
0.3799999999999999
  9
$DIMRND
 40
0.0
  9
$DIMDLE
 40
0.0
  9
$DIMEXE
 40
0.18
  9
$DIMTP
 40
0.0
  9
$DIMTM
 40
0.0
  9
$DIMTXT
 40
0.11
  9
$DIMCEN
 40
0.09
  9
$DIMTSZ
 40
0.0
  9
$DIMTOL
 70
     0
  9
$DIMLIM
 70
     0
  9
$DIMTIH
 70
     0
  9
$DIMTOH
 70
     0
  9
$DIMSE1
 70
     0
  9
$DIMSE2
 70
     0
  9
$DIMTAD
 70
     1
  9
$DIMZIN
 70
     1
  9
$DIMBLK
  1

  9
$DIMASO
 70
     0
  9
$DIMSHO
 70
     0
  9
$DIMPOST
  1

  9
$DIMAPOST
  1

  9
$DIMALT
 70
     0
  9
$DIMALTD
 70
     2
  9
$DIMALTF
 40
25.4
  9
$DIMLFAC
 40
1.0
  9
$DIMTOFL
 70
     0
  9
$DIMTVP
 40
0.0
  9
$DIMTIX
 70
     0
  9
$DIMSOXD
 70
     0
  9
$DIMSAH
 70
     0
  9
$DIMBLK1
  1

  9
$DIMBLK2
  1

  9
$DIMSTYLE
  2
STANDARD
  9
$DIMCLRD
 70
     0
  9
$DIMCLRE
 70
     0
  9
$DIMCLRT
 70
     0
  9
$DIMTFAC
 40
1.0
  9
$DIMGAP
 40
0.09
  9
$LUNITS
 70
     2
  9
$LUPREC
 70
     4
  9
$SKETCHINC
 40
0.1
  9
$FILLETRAD
 40
0.0
  9
$AUNITS
 70
     0
  9
$AUPREC
 70
     4
  9
$MENU
  1
acad
  9
$ELEVATION
 40
0.0
  9
$PELEVATION
 40
0.0
  9
$THICKNESS
 40
0.0
  9
$LIMCHECK
 70
     0
  9
$CHAMFERA
 40
0.0
  9
$CHAMFERB
 40
0.0
  9
$SKPOLY
 70
     0
  9
$TDCREATE
 40
2449783.469256944
  9
$TDUPDATE
 40
2458028.605543981
  9
$TDINDWG
 40
0.0036128472
  9
$TDUSRTIMER
 40
0.0036128472
  9
$USRTIMER
 70
     1
  9
$ANGBASE
 50
0.0
  9
$ANGDIR
 70
     0
  9
$PDMODE
 70
     0
  9
$PDSIZE
 40
0.0
  9
$PLINEWID
 40
0.0
  9
$COORDS
 70
     1
  9
$SPLFRAME
 70
     0
  9
$SPLINETYPE
 70
     6
  9
$SPLINESEGS
 70
     8
  9
$ATTDIA
 70
     0
  9
$ATTREQ
 70
     1
  9
$HANDLING
 70
     1
  9
$HANDSEED
  5
468
  9
$SURFTAB1
 70
     6
  9
$SURFTAB2
 70
     6
  9
$SURFTYPE
 70
     6
  9
$SURFU
 70
     6
  9
$SURFV
 70
     6
  9
$UCSNAME
  2

  9
$UCSORG
 10
0.0
 20
0.0
 30
0.0
  9
$UCSXDIR
 10
1.0
 20
0.0
 30
0.0
  9
$UCSYDIR
 10
0.0
 20
1.0
 30
0.0
  9
$PUCSNAME
  2

  9
$PUCSORG
 10
0.0
 20
0.0
 30
0.0
  9
$PUCSXDIR
 10
1.0
 20
0.0
 30
0.0
  9
$PUCSYDIR
 10
0.0
 20
1.0
 30
0.0
  9
$USERI1
 70
     0
  9
$USERI2
 70
     0
  9
$USERI3
 70
     0
  9
$USERI4
 70
     0
  9
$USERI5
 70
     0
  9
$USERR1
 40
0.0
  9
$USERR2
 40
0.0
  9
$USERR3
 40
0.0
  9
$USERR4
 40
0.0
  9
$USERR5
 40
1.0
  9
$WORLDVIEW
 70
     0
  9
$SHADEDGE
 70
     3
  9
$SHADEDIF
 70
    70
  9
$TILEMODE
 70
     1
  9
$MAXACTVP
 70
    16
  9
$PLIMCHECK
 70
     0
  9
$PEXTMIN
 10
1.000000000000000E+20
 20
1.000000000000000E+20
 30
1.000000000000000E+20
  9
$PEXTMAX
 10
-1.000000000000000E+20
 20
-1.000000000000000E+20
 30
-1.000000000000000E+20
  9
$PLIMMIN
 10
0.0
 20
0.0
  9
$PLIMMAX
 10
12.0
 20
9.0
  9
$UNITMODE
 70
     0
  9
$VISRETAIN
 70
     0
  9
$PLINEGEN
 70
     0
  9
$PSLTSCALE
 70
     0
  0
ENDSEC
  0
SECTION
  2
TABLES
  0
TABLE
  2
VPORT
 70
     1
  0
VPORT
  2
*ACTIVE
 70
     0
 10
0.0
 20
0.0
 11
1.0
 21
1.0
 12
0.0020241792729137
 22
0.3540792895399372
 13
0.0
 23
0.0
 14
1.0
 24
1.0
 15
12.0
 25
12.0
 16
1.032271612955968
 26
-1.230213403273295
 36
0.6488376526466564
 17
0.0
 27
0.0
 37
0.0
 40
2.232976338910896
 41
1.56198347107438
 42
50.0
 43
0.0
 44
0.0
 50
0.0
 51
0.0
 71
     0
 72
  2000
 73
     1
 74
     0
 75
     0
 76
     0
 77
     0
 78
     0
  0
ENDTAB
  0
TABLE
  2
LTYPE
 70
     1
  0
LTYPE
  2
CONTINUOUS
 70
     0
  3
Solid line
 72
    65
 73
     0
 40
0.0
  0
ENDTAB
  0
TABLE
  2
LAYER
 70
     3
  0
LAYER
  2
0
 70
     0
 62
     7
  6
CONTINUOUS
  0
LAYER
  2
ASHADE
 70
     1
 62
     7
  6
CONTINUOUS
  0
LAYER
  2
_KTI_CONTROL
 70
     5
 62
     7
  6
CONTINUOUS
  0
ENDTAB
  0
TABLE
  2
STYLE
 70
     3
  0
STYLE
  2
ST
 70
     0
 40
0.0
 41
1.0
 50
0.0
 71
     0
 42
0.100000000000017
  3
SIMPLEX
  4

  0
STYLE
  2
ASHADE
 70
     0
 40
0.2
 41
1.0
 50
0.0
 71
     0
 42
1.0
  3
simplex
  4

  0
STYLE
  2
STANDARD
 70
     0
 40
0.0
 41
1.0
 50
0.0
 71
     0
 42
0.05
  3
txt
  4

  0
ENDTAB
  0
TABLE
  2
VIEW
 70
     0
  0
ENDTAB
  0
TABLE
  2
UCS
 70
     0
  0
ENDTAB
  0
TABLE
  2
APPID
 70
     6
  0
APPID
  2
ACAD
 70
     0
  0
APPID
  2
AVE_FINISH
 70
     0
  0
APPID
  2
AVE_ENTITY_MATERIAL
 70
     0
  0
APPID
  2
AVE_RENDER
 70
     0
  0
APPID
  2
AVE_MATERIAL
 70
     0
  0
APPID
  2
_KTI_ARCHT
 70
     0
  0
ENDTAB
  0
TABLE
  2
DIMSTYLE
 70
     1
  0
DIMSTYLE
  2
STANDARD
 70
     0
  3

  4

  5

  6

  7

 40
1.0
 41
0.18
 42
0.0625
 43
0.38
 44
0.18
 45
0.0
 46
0.0
 47
0.0
 48
0.0
140
0.18
141
0.09
142
0.0
143
25.4
144
1.0
145
0.0
146
1.0
147
0.09
 71
     0
 72
     0
 73
     1
 74
     1
 75
     0
 76
     0
 77
     0
 78
     0
170
     0
171
     2
172
     0
173
     0
174
     0
175
     0
176
     0
177
     0
178
     0
  0
ENDTAB
  0
ENDSEC
  0
SECTION
  2
BLOCKS
  0
BLOCK
  8
0
  2
$MODEL_SPACE
 70
     0
 10
0.0
 20
0.0
 30
0.0
  3
$MODEL_SPACE
  1

  0
ENDBLK
  5
3D3
  8
0
  0
BLOCK
 67
     1
  8
0
  2
$PAPER_SPACE
 70
     0
 10
0.0
 20
0.0
 30
0.0
  3
$PAPER_SPACE
  1

  0
ENDBLK
  5
3D1
 67
     1
  8
0
  0
BLOCK
  8
0
  2
AVE_RENDER
 70
     0
 10
0.0
 20
0.0
 30
0.0
  3
AVE_RENDER
  1
AVE_RENDER
  0
ENDBLK
  5
32A
  8
0
  0
BLOCK
  8
0
  2
AVE_GLOBAL
 70
     0
 10
0.0
 20
0.0
 30
0.0
  3
AVE_GLOBAL
  1
AVE_GLOBAL
  0
ENDBLK
  5
331
  8
0
  0
BLOCK
  8
0
  2
RM_SDB
 70
     2
 10
0.0
 20
0.0
 30
0.0
  3
RM_SDB
  1

  0
ATTDEF
  5
334
  8
ASHADE
  6
CONTINUOUS
 62
     1
 10
0.0000000000000001
 20
-0.15
 30
0.0
 40
0.2
  1

  7
ASHADE
 72
     1
 11
0.0000000000000001
 21
-0.15
 31
0.0
  3
Name
  2
NAME
 70
     0
  0
ATTDEF
  5
335
  8
ASHADE
  6
CONTINUOUS
 62
     1
 10
0.2300000000000001
 20
-0.4750000000000001
 30
0.0000000000000002
 40
0.1000000000000001
  1
-1
  7
ASHADE
  3
ACAD Color Index
  2
ACADCOLOR
 70
     0
  0
ATTDEF
  5
336
  8
ASHADE
  6
CONTINUOUS
 62
     7
 10
-0.1499999999999999
 20
-0.19
 30
0.0
 40
0.01
  1
-1,-1,-1
  7
STANDARD
  3
RGB Color
  2
COLOR
 70
     1
  0
ATTDEF
  5
337
  8
ASHADE
  6
CONTINUOUS
 62
     7
 10
-0.1499999999999999
 20
-0.205
 30
0.0
 40
0.01
  1
1,1,1
  7
STANDARD
  3
Opacity
  2
OPACITY
 70
     1
  0
ATTDEF
  5
338
  8
ASHADE
  6
CONTINUOUS
 62
     7
 10
-0.1499999999999999
 20
-0.22
 30
0.0
 40
0.01
  1
("nullsurf" "")
  7
STANDARD
  3
Surface Shader
  2
SURFACE
 70
     1
  0
ATTDEF
  5
339
  8
ASHADE
  6
CONTINUOUS
 62
     7
 10
-0.1499999999999999
 20
-0.235
 30
0.0
 40
0.01
  1

  7
STANDARD
  3
Surface Parameters 1
  2
SURF1
 70
     1
  0
ATTDEF
  5
33A
  8
ASHADE
  6
CONTINUOUS
 62
     7
 10
-0.1499999999999999
 20
-0.25
 30
0.0
 40
0.01
  1

  7
STANDARD
  3
Surface Parameters 2
  2
SURF2
 70
     1
  0
ATTDEF
  5
33B
  8
ASHADE
  6
CONTINUOUS
 62
     7
 10
-0.1499999999999999
 20
-0.265
 30
0.0
 40
0.01
  1

  7
STANDARD
  3
Surface Parameters 3
  2
SURF3
 70
     1
  0
ATTDEF
  5
33C
  8
ASHADE
  6
CONTINUOUS
 62
     7
 10
-0.1499999999999999
 20
-0.2799999999999999
 30
0.0
 40
0.01
  1

  7
STANDARD
  3
Surface Parameters 4
  2
SURF4
 70
     1
  0
ATTDEF
  5
33D
  8
ASHADE
  6
CONTINUOUS
 62
     7
 10
-0.1499999999999999
 20
-0.295
 30
0.0
 40
0.01
  1
-1
  7
STANDARD
  3
Shading Rate
  2
SHADINGRATE
 70
     1
  0
ATTDEF
  5
33E
  8
ASHADE
  6
CONTINUOUS
 62
     7
 10
-0.1499999999999999
 20
-0.31
 30
0.0
 40
0.01
  1
("nulldisp" "")
  7
STANDARD
  3
Displacement Shader
  2
DISPLACEMENT
 70
     1
  0
ATTDEF
  5
33F
  8
ASHADE
  6
CONTINUOUS
 62
     7
 10
-0.1499999999999999
 20
-0.325
 30
0.0
 40
0.01
  1

  7
STANDARD
  3
Displacement Parameters 1
  2
DISP1
 70
     1
  0
ATTDEF
  5
340
  8
ASHADE
  6
CONTINUOUS
 62
     7
 10
-0.1499999999999999
 20
-0.34
 30
0.0
 40
0.01
  1

  7
STANDARD
  3
Displacement Parameters 2
  2
DISP2
 70
     1
  0
ATTDEF
  5
341
  8
ASHADE
  6
CONTINUOUS
 62
     7
 10
-0.1499999999999999
 20
-0.355
 30
0.0
 40
0.01
  1

  7
STANDARD
  3
Displacement Parameters 3
  2
DISP3
 70
     1
  0
ATTDEF
  5
342
  8
ASHADE
  6
CONTINUOUS
 62
     7
 10
-0.1499999999999999
 20
-0.3699999999999999
 30
0.0
 40
0.01
  1

  7
STANDARD
  3
Displacement Parameters 4
  2
DISP4
 70
     1
  0
ATTDEF
  5
343
  8
ASHADE
  6
CONTINUOUS
 62
     7
 10
-0.1499999999999999
 20
-0.3849999999999998
 30
0.0
 40
0.01
  1
0.0
  7
STANDARD
  3
Displacement Bounds
  2
DBOUND
 70
     1
  0
ATTDEF
  5
344
  8
ASHADE
  6
CONTINUOUS
 62
     7
 10
-0.1499999999999999
 20
-0.4
 30
0.0
 40
0.01
  1
0
  7
STANDARD
  3
Smooth Surface
  2
SMOOTH
 70
     1
  0
ATTDEF
  5
345
  8
ASHADE
  6
CONTINUOUS
 62
     7
 10
-0.1499999999999999
 20
-0.415
 30
0.0
 40
0.01
  1
("" "")
  7
STANDARD
  3
Atmosphere Shader
  2
ATMOSPHERE
 70
     1
  0
ATTDEF
  5
346
  8
ASHADE
  6
CONTINUOUS
 62
     7
 10
-0.15
 20
-0.4302404735808357
 30
0.0
 40
0.01
  1

  7
STANDARD
  3
Atmosphere Parameters 1
  2
ATMO1
 70
     1
  0
ATTDEF
  5
347
  8
ASHADE
  6
CONTINUOUS
 62
     7
 10
-0.15
 20
-0.4452404735808357
 30
0.0
 40
0.01
  1

  7
STANDARD
  3
Atmosphere Parameters 2
  2
ATMO2
 70
     1
  0
ATTDEF
  5
348
  8
ASHADE
  6
CONTINUOUS
 62
     7
 10
-0.15
 20
-0.4602404735808357
 30
0.0
 40
0.01
  1

  7
STANDARD
  3
Atmosphere Parameters 3
  2
ATMO3
 70
     1
  0
ATTDEF
  5
349
  8
ASHADE
  6
CONTINUOUS
 62
     7
 10
-0.15
 20
-0.4752404735808357
 30
0.0
 40
0.01
  1

  7
STANDARD
  3
Atmosphere Parameters 4
  2
ATMO4
 70
     1
  0
ATTDEF
  5
34A
  8
ASHADE
  6
CONTINUOUS
 62
     7
 10
-0.1499999999999999
 20
-0.49
 30
0.0
 40
0.01
  1
0 0 1 0 0 1 1 1
  7
STANDARD
  3
Texture Map Coordinates
  2
TCOORD
 70
     1
  0
POLYLINE
  5
34B
  8
ASHADE
  6
CONTINUOUS
 62
     7
 66
     1
 10
0.0
 20
0.0
 30
0.0
  0
VERTEX
  5
430
  8
ASHADE
  6
CONTINUOUS
 62
     7
 10
-0.3000000000000002
 20
-0.18
 30
0.0
  0
VERTEX
  5
431
  8
ASHADE
  6
CONTINUOUS
 62
     7
 10
-0.2999999999999999
 20
-0.3250000000000001
 30
0.0
 42
0.1747045211890322
  0
VERTEX
  5
432
  8
ASHADE
  6
CONTINUOUS
 62
     7
 10
-0.2816863194828013
 20
-0.3758135573372287
 30
0.0
 42
0.1042029417664262
  0
VERTEX
  5
433
  8
ASHADE
  6
CONTINUOUS
 62
     7
 10
-0.2121320343559644
 20
-0.4310660171779823
 30
0.0
 42
0.0649481016502893
  0
VERTEX
  5
434
  8
ASHADE
  6
CONTINUOUS
 62
     7
 10
-0.1213292385415812
 20
-0.4625678598959921
 30
0.0
 42
0.0510992989620776
  0
VERTEX
  5
435
  8
ASHADE
  6
CONTINUOUS
 62
     7
 10
0.0
 20
-0.475
 30
0.0
 42
0.0325604591914346
  0
VERTEX
  5
436
  8
ASHADE
  6
CONTINUOUS
 62
     7
 10
0.0776712930301476
 20
-0.4699366059390404
 30
0.0
  0
VERTEX
  5
437
  8
ASHADE
  6
CONTINUOUS
 62
     7
 10
0.0776712930301476
 20
-0.18
 30
0.0
  0
SEQEND
  5
463
  8
ASHADE
  6
CONTINUOUS
 62
     7
  0
POLYLINE
  5
355
  8
ASHADE
  6
CONTINUOUS
 62
     7
 66
     1
 10
0.0
 20
0.0
 30
0.0
  0
VERTEX
  5
438
  8
ASHADE
  6
CONTINUOUS
 62
     7
 10
0.0776712930301476
 20
-0.4173639511315807
 30
0.0
 42
0.0020561688178525
  0
VERTEX
  5
439
  8
ASHADE
  6
CONTINUOUS
 62
     7
 10
0.0808861590277209
 20
-0.4167119065973279
 30
0.0
 42
0.0649481016502881
  0
VERTEX
  5
43A
  8
ASHADE
  6
CONTINUOUS
 62
     7
 10
0.1414213562373096
 20
-0.3957106781186547
 30
0.0
 42
0.104202941766426
  0
VERTEX
  5
43B
  8
ASHADE
  6
CONTINUOUS
 62
     7
 10
0.1877908796552008
 20
-0.3588757048914858
 30
0.0
 42
0.1747044792402826
  0
VERTEX
  5
43C
  8
ASHADE
  6
CONTINUOUS
 62
     7
 10
0.2000000000000001
 20
-0.3250000086461401
 30
0.0
  0
VERTEX
  5
43D
  8
ASHADE
  6
CONTINUOUS
 62
     7
 10
0.2000000000000001
 20
-0.18
 30
0.0
  0
SEQEND
  5
464
  8
ASHADE
  6
CONTINUOUS
 62
     7
  0
POLYLINE
  5
35D
  8
ASHADE
  6
CONTINUOUS
 62
     7
 66
     1
 10
0.0
 20
0.0
 30
0.0
  0
VERTEX
  5
43E
  8
ASHADE
  6
CONTINUOUS
 62
     7
 10
0.289889668177379
 20
-0.18
 30
0.0
  0
VERTEX
  5
43F
  8
ASHADE
  6
CONTINUOUS
 62
     7
 10
0.2898896681773789
 20
-0.2861621487588727
 30
0.0
 42
0.0456559979864751
  0
VERTEX
  5
440
  8
ASHADE
  6
CONTINUOUS
 62
     7
 10
0.2816863194828014
 20
-0.2741864426627713
 30
0.0
 42
0.1042029417664258
  0
VERTEX
  5
441
  8
ASHADE
  6
CONTINUOUS
 62
     7
 10
0.2121320343559643
 20
-0.218933982822018
 30
0.0
 42
0.0090478215307507
  0
VERTEX
  5
442
  8
ASHADE
  6
CONTINUOUS
 62
     7
 10
0.2000000000000001
 20
-0.2131399482633147
 30
0.0
 42
0.0510992989620778
  0
SEQEND
  5
465
  8
ASHADE
  6
CONTINUOUS
 62
     7
  0
POLYLINE
  5
364
  8
ASHADE
  6
CONTINUOUS
 62
     7
 66
     1
 10
0.0
 20
0.0
 30
0.0
  0
VERTEX
  5
443
  8
ASHADE
  6
CONTINUOUS
 62
     7
 10
0.0776712930301477
 20
0.08
 30
0.0
  0
VERTEX
  5
444
  8
ASHADE
  6
CONTINUOUS
 62
     7
 10
0.0776712930301476
 20
0.1800633940609596
 30
0.0
 42
-0.0325604591914349
  0
VERTEX
  5
445
  8
ASHADE
  6
CONTINUOUS
 62
     7
 10
0.0
 20
0.175
 30
0.0
 42
-0.0510992989620779
  0
VERTEX
  5
446
  8
ASHADE
  6
CONTINUOUS
 62
     7
 10
-0.1213292385415814
 20
0.1874321401040082
 30
0.0
 42
-0.0649481016502892
  0
VERTEX
  5
447
  8
ASHADE
  6
CONTINUOUS
 62
     7
 10
-0.2121320343559644
 20
0.2189339828220179
 30
0.0
 42
-0.1042029417664258
  0
VERTEX
  5
448
  8
ASHADE
  6
CONTINUOUS
 62
     7
 10
-0.2816863194828013
 20
0.2741864426627713
 30
0.0
 42
-0.1747045211890322
  0
VERTEX
  5
449
  8
ASHADE
  6
CONTINUOUS
 62
     7
 10
-0.2999999999999999
 20
0.3250000000000001
 30
0.0
 42
-0.1747045211890318
  0
VERTEX
  5
44A
  8
ASHADE
  6
CONTINUOUS
 62
     7
 10
-0.2816863194828013
 20
0.3758135573372287
 30
0.0
 42
-0.1042029417664262
  0
VERTEX
  5
44B
  8
ASHADE
  6
CONTINUOUS
 62
     7
 10
-0.2121320343559644
 20
0.4310660171779822
 30
0.0
 42
-0.0649481016502893
  0
VERTEX
  5
44C
  8
ASHADE
  6
CONTINUOUS
 62
     7
 10
-0.1213292385415813
 20
0.462567859895992
 30
0.0
 42
-0.051099298962078
  0
VERTEX
  5
44D
  8
ASHADE
  6
CONTINUOUS
 62
     7
 10
0.0
 20
0.475
 30
0.0
 42
-0.0510992989620779
  0
VERTEX
  5
44E
  8
ASHADE
  6
CONTINUOUS
 62
     7
 10
0.1213292385415813
 20
0.4625678598959919
 30
0.0
 42
-0.0649481016502889
  0
VERTEX
  5
44F
  8
ASHADE
  6
CONTINUOUS
 62
     7
 10
0.2121320343559643
 20
0.4310660171779821
 30
0.0
 42
-0.1042029417664259
  0
VERTEX
  5
450
  8
ASHADE
  6
CONTINUOUS
 62
     7
 10
0.2816863194828012
 20
0.3758135573372288
 30
0.0
 42
-0.0456559979864758
  0
VERTEX
  5
451
  8
ASHADE
  6
CONTINUOUS
 62
     7
 10
0.2898896681773789
 20
0.3638378512411275
 30
0.0
  0
VERTEX
  5
452
  8
ASHADE
  6
CONTINUOUS
 62
     7
 10
0.289889668177379
 20
0.08
 30
0.0
  0
SEQEND
  5
466
  8
ASHADE
  6
CONTINUOUS
 62
     7
  0
LINE
  5
376
  8
ASHADE
  6
CONTINUOUS
 62
     7
 10
-0.3000000000000002
 20
0.325
 30
0.0000000000000002
 11
-0.3000000000000002
 21
0.08
 31
0.0000000000000002
  0
POLYLINE
  5
377
  8
ASHADE
  6
CONTINUOUS
 62
     7
 66
     1
 10
0.0
 20
0.0
 30
0.0
 70
     1
  0
VERTEX
  5
453
  8
ASHADE
  6
CONTINUOUS
 62
     7
 10
0.0
 20
0.425
 30
0.0
 42
0.051099298962078
  0
VERTEX
  5
454
  8
ASHADE
  6
CONTINUOUS
 62
     7
 10
-0.0808861590277208
 20
0.416711906597328
 30
0.0
 42
0.064948101650289
  0
VERTEX
  5
455
  8
ASHADE
  6
CONTINUOUS
 62
     7
 10
-0.1414213562373094
 20
0.3957106781186547
 30
0.0
 42
0.1042029417664259
  0
VERTEX
  5
456
  8
ASHADE
  6
CONTINUOUS
 62
     7
 10
-0.1877908796552007
 20
0.3588757048914858
 30
0.0
 42
0.1747045211890328
  0
VERTEX
  5
457
  8
ASHADE
  6
CONTINUOUS
 62
     7
 10
-0.1999999999999998
 20
0.325
 30
0.0
 42
0.1747045211890319
  0
VERTEX
  5
458
  8
ASHADE
  6
CONTINUOUS
 62
     7
 10
-0.1877908796552009
 20
0.2911242951085143
 30
0.0
 42
0.1042029417664258
  0
VERTEX
  5
459
  8
ASHADE
  6
CONTINUOUS
 62
     7
 10
-0.1414213562373094
 20
0.2542893218813453
 30
0.0
 42
0.0649481016502892
  0
VERTEX
  5
45A
  8
ASHADE
  6
CONTINUOUS
 62
     7
 10
-0.0808861590277208
 20
0.2332880934026721
 30
0.0
 42
0.051099298962078
  0
VERTEX
  5
45B
  8
ASHADE
  6
CONTINUOUS
 62
     7
 10
0.0
 20
0.225
 30
0.0
 42
0.0510992989620778
  0
VERTEX
  5
45C
  8
ASHADE
  6
CONTINUOUS
 62
     7
 10
0.0808861590277208
 20
0.233288093402672
 30
0.0
 42
0.064948101650289
  0
VERTEX
  5
45D
  8
ASHADE
  6
CONTINUOUS
 62
     7
 10
0.1414213562373094
 20
0.2542893218813452
 30
0.0
 42
0.1042029417664264
  0
VERTEX
  5
45E
  8
ASHADE
  6
CONTINUOUS
 62
     7
 10
0.1877908796552008
 20
0.2911242951085142
 30
0.0
 42
0.1747045211890327
  0
VERTEX
  5
45F
  8
ASHADE
  6
CONTINUOUS
 62
     7
 10
0.2
 20
0.325
 30
0.0
 42
0.174704521189033
  0
VERTEX
  5
460
  8
ASHADE
  6
CONTINUOUS
 62
     7
 10
0.1877908796552007
 20
0.358875704891486
 30
0.0
 42
0.1042029417664256
  0
VERTEX
  5
461
  8
ASHADE
  6
CONTINUOUS
 62
     7
 10
0.1414213562373094
 20
0.3957106781186547
 30
0.0
 42
0.0649481016502894
  0
VERTEX
  5
462
  8
ASHADE
  6
CONTINUOUS
 62
     7
 10
0.0808861590277205
 20
0.4167119065973279
 30
0.0
 42
0.0510992989620781
  0
SEQEND
  5
467
  8
ASHADE
  6
CONTINUOUS
 62
     7
  0
LINE
  5
389
  8
ASHADE
  6
CONTINUOUS
 62
     7
 10
-0.2000000000000001
 20
0.2131399482633148
 30
0.0000000000000005
 11
-0.2000000000000001
 21
0.325
 31
0.0000000000000005
  0
LINE
  5
38A
  8
ASHADE
  6
CONTINUOUS
 62
     7
 10
0.2
 20
0.3250000000000001
 30
0.0
 11
0.2000000000000001
 21
0.08
 31
0.0
  0
ENDBLK
  5
38B
  8
0
  0
ENDSEC
  0
SECTION
  2
ENTITIES
  0
POLYLINE
  5
110
  8
0
  6
BYBLOCK
 62
    43
 66
     1
 10
0.0
 20
0.0
 30
0.0
 70
    64
 71
    25
 72
    24
1001
AVE_FINISH
1002
{
1070
     0
1005
38C
1002
}
1001
AVE_ENTITY_MATERIAL
1002
{
1000

1002
{
1071
        0
1070
     0
1070
     0
1002
{
1070
     0
1070
     0
1070
     0
1040
0.0
1002
}
1070
     0
1070
     0
1002
{
1002
}
1002
}
1002
{
1002
{
1071
        0
1070
     4
1002
}
1002
}
1002
{
1002
{
1071
        0
1002
{
1002
{
1040
1.0
1040
0.0
1070
     1
1002
}
1002
{
1040
1.0
1040
0.0
1070
     1
1002
}
1040
0.0
1002
}
1002
{
1040
16.0
1040
0.0
1040
0.0
1040
-8.0
1040
0.0
1040
12.0
1040
0.0
1040
-6.0
1040
0.0
1040
0.0
1040
-8.0
1040
22.0
1070
     1
1002
{
1002
}
1070
     0
1002
}
1002
}
1002
}
1011
-0.2032
1021
-0.1524
1031
0.5588
1021
-0.1524
1031
0.5588
1011
0.2032
1021
-0.1524
1031
0.5588
1021
-0.1524
1031
0.5588
1011
-0.2032
1021
0.1524
1031
0.5588
1021
0.1524
1031
0.5588
1011
-0.2032
1021
-0.1524
1031
0.3556
1021
-0.1524
1031
0.3556
1002
}
  0
VERTEX
  5
111
  8
0
 10
0.0
 20
0.0
 30
0.5588
 70
   192
  0
VERTEX
  5
112
  8
0
 10
0.6378974006652832
 20
-0.170924099445343
 30
0.5588
 70
   192
  0
VERTEX
  5
113
  8
0
 10
0.6604
 20
0.0
 30
0.5588
 70
   192
  0
VERTEX
  5
114
  8
0
 10
0.5719231815338135
 20
-0.3302
 30
0.5588
 70
   192
  0
VERTEX
  5
115
  8
0
 10
0.4669733375549316
 20
-0.4669733375549316
 30
0.5588
 70
   192
  0
VERTEX
  5
116
  8
0
 10
0.3302
 20
-0.5719231815338135
 30
0.5588
 70
   192
  0
VERTEX
  5
117
  8
0
 10
0.170924099445343
 20
-0.6378974006652832
 30
0.5588
 70
   192
  0
VERTEX
  5
118
  8
0
 10
-0.0000000000000001
 20
-0.6604
 30
0.5588
 70
   192
  0
VERTEX
  5
119
  8
0
 10
-0.170924099445343
 20
-0.6378974006652832
 30
0.5588
 70
   192
  0
VERTEX
  5
11A
  8
0
 10
-0.3302
 20
-0.5719231815338135
 30
0.5588
 70
   192
  0
VERTEX
  5
11B
  8
0
 10
-0.4669733375549316
 20
-0.4669733375549316
 30
0.5588
 70
   192
  0
VERTEX
  5
11C
  8
0
 10
-0.5719231815338135
 20
-0.3302
 30
0.5588
 70
   192
  0
VERTEX
  5
11D
  8
0
 10
-0.6378974006652832
 20
-0.170924099445343
 30
0.5588
 70
   192
  0
VERTEX
  5
11E
  8
0
 10
-0.6604
 20
-0.0000000000000002
 30
0.5588
 70
   192
  0
VERTEX
  5
11F
  8
0
 10
-0.6378974006652832
 20
0.170924099445343
 30
0.5588
 70
   192
  0
VERTEX
  5
120
  8
0
 10
-0.5719231815338135
 20
0.3302
 30
0.5588
 70
   192
  0
VERTEX
  5
121
  8
0
 10
-0.4669733375549316
 20
0.4669733375549316
 30
0.5588
 70
   192
  0
VERTEX
  5
122
  8
0
 10
-0.3302
 20
0.5719231815338135
 30
0.5588
 70
   192
  0
VERTEX
  5
123
  8
0
 10
-0.170924099445343
 20
0.6378974006652832
 30
0.5588
 70
   192
  0
VERTEX
  5
124
  8
0
 10
0.0000000000000002
 20
0.6604
 30
0.5588
 70
   192
  0
VERTEX
  5
125
  8
0
 10
0.170924099445343
 20
0.6378974006652832
 30
0.5588
 70
   192
  0
VERTEX
  5
126
  8
0
 10
0.3302
 20
0.5719231815338135
 30
0.5588
 70
   192
  0
VERTEX
  5
127
  8
0
 10
0.4669733375549316
 20
0.4669733375549316
 30
0.5588
 70
   192
  0
VERTEX
  5
128
  8
0
 10
0.5719231815338135
 20
0.3302
 30
0.5588
 70
   192
  0
VERTEX
  5
129
  8
0
 10
0.6378974006652832
 20
0.170924099445343
 30
0.5588
 70
   192
  0
VERTEX
  5
12A
  8
0
  6
BYBLOCK
 62
    43
 10
0.0
 20
0.0
 30
0.0
 70
   128
 71
    -1
 72
     2
 73
    -3
  0
VERTEX
  5
12B
  8
0
  6
BYBLOCK
 62
    43
 10
0.0
 20
0.0
 30
0.0
 70
   128
 71
    -1
 72
     4
 73
    -2
  0
VERTEX
  5
12C
  8
0
  6
BYBLOCK
 62
    43
 10
0.0
 20
0.0
 30
0.0
 70
   128
 71
    -1
 72
     5
 73
    -4
  0
VERTEX
  5
12D
  8
0
  6
BYBLOCK
 62
    43
 10
0.0
 20
0.0
 30
0.0
 70
   128
 71
    -1
 72
     6
 73
    -5
  0
VERTEX
  5
12E
  8
0
  6
BYBLOCK
 62
    43
 10
0.0
 20
0.0
 30
0.0
 70
   128
 71
    -1
 72
     7
 73
    -6
  0
VERTEX
  5
12F
  8
0
  6
BYBLOCK
 62
    43
 10
0.0
 20
0.0
 30
0.0
 70
   128
 71
    -1
 72
     8
 73
    -7
  0
VERTEX
  5
130
  8
0
  6
BYBLOCK
 62
    43
 10
0.0
 20
0.0
 30
0.0
 70
   128
 71
    -1
 72
     9
 73
    -8
  0
VERTEX
  5
131
  8
0
  6
BYBLOCK
 62
    43
 10
0.0
 20
0.0
 30
0.0
 70
   128
 71
    -1
 72
    10
 73
    -9
  0
VERTEX
  5
132
  8
0
  6
BYBLOCK
 62
    43
 10
0.0
 20
0.0
 30
0.0
 70
   128
 71
    -1
 72
    11
 73
   -10
  0
VERTEX
  5
133
  8
0
  6
BYBLOCK
 62
    43
 10
0.0
 20
0.0
 30
0.0
 70
   128
 71
    -1
 72
    12
 73
   -11
  0
VERTEX
  5
134
  8
0
  6
BYBLOCK
 62
    43
 10
0.0
 20
0.0
 30
0.0
 70
   128
 71
    -1
 72
    13
 73
   -12
  0
VERTEX
  5
135
  8
0
  6
BYBLOCK
 62
    43
 10
0.0
 20
0.0
 30
0.0
 70
   128
 71
    -1
 72
    14
 73
   -13
  0
VERTEX
  5
136
  8
0
  6
BYBLOCK
 62
    43
 10
0.0
 20
0.0
 30
0.0
 70
   128
 71
    -1
 72
    15
 73
   -14
  0
VERTEX
  5
137
  8
0
  6
BYBLOCK
 62
    43
 10
0.0
 20
0.0
 30
0.0
 70
   128
 71
    -1
 72
    16
 73
   -15
  0
VERTEX
  5
138
  8
0
  6
BYBLOCK
 62
    43
 10
0.0
 20
0.0
 30
0.0
 70
   128
 71
    -1
 72
    17
 73
   -16
  0
VERTEX
  5
139
  8
0
  6
BYBLOCK
 62
    43
 10
0.0
 20
0.0
 30
0.0
 70
   128
 71
    -1
 72
    18
 73
   -17
  0
VERTEX
  5
13A
  8
0
  6
BYBLOCK
 62
    43
 10
0.0
 20
0.0
 30
0.0
 70
   128
 71
    -1
 72
    19
 73
   -18
  0
VERTEX
  5
13B
  8
0
  6
BYBLOCK
 62
    43
 10
0.0
 20
0.0
 30
0.0
 70
   128
 71
    -1
 72
    20
 73
   -19
  0
VERTEX
  5
13C
  8
0
  6
BYBLOCK
 62
    43
 10
0.0
 20
0.0
 30
0.0
 70
   128
 71
    -1
 72
    21
 73
   -20
  0
VERTEX
  5
13D
  8
0
  6
BYBLOCK
 62
    43
 10
0.0
 20
0.0
 30
0.0
 70
   128
 71
    -1
 72
    22
 73
   -21
  0
VERTEX
  5
13E
  8
0
  6
BYBLOCK
 62
    43
 10
0.0
 20
0.0
 30
0.0
 70
   128
 71
    -1
 72
    23
 73
   -22
  0
VERTEX
  5
13F
  8
0
  6
BYBLOCK
 62
    43
 10
0.0
 20
0.0
 30
0.0
 70
   128
 71
    -1
 72
    24
 73
   -23
  0
VERTEX
  5
140
  8
0
  6
BYBLOCK
 62
    43
 10
0.0
 20
0.0
 30
0.0
 70
   128
 71
    -1
 72
    25
 73
   -24
  0
VERTEX
  5
141
  8
0
  6
BYBLOCK
 62
    43
 10
0.0
 20
0.0
 30
0.0
 70
   128
 71
    -1
 72
     3
 73
   -25
  0
SEQEND
  5
142
  8
0
  6
BYBLOCK
 62
    43
  0
POLYLINE
  5
15C
  8
0
  6
BYBLOCK
 62
     0
 66
     1
 10
0.0
 20
0.0
 30
0.0
 70
    64
 71
    72
 72
    72
1001
AVE_ENTITY_MATERIAL
1002
{
1000

1002
{
1071
        0
1070
     0
1070
     0
1002
{
1070
     0
1070
     0
1070
     0
1040
0.0
1002
}
1070
     0
1070
     0
1002
{
1002
}
1002
}
1002
{
1002
}
1002
{
1002
}
1011
0.0
1021
0.0
1031
0.0
1021
0.0
1031
0.0
1011
0.0254
1021
0.0
1031
0.0
1021
0.0
1031
0.0
1011
0.0
1021
0.0254
1031
0.0
1021
0.0254
1031
0.0
1011
0.0
1021
0.0
1031
0.0254
1021
0.0
1031
0.0254
1002
}
1001
AVE_FINISH
1002
{
1070
     0
1005
0
1002
}
  0
VERTEX
  5
15D
  8
0
 10
0.0000000000000014
 20
0.762
 30
0.762
 70
   192
  0
VERTEX
  5
15E
  8
0
 10
0.0
 20
0.6604
 30
0.762
 70
   192
  0
VERTEX
  5
15F
  8
0
 10
0.2606193391799927
 20
0.7160457798004151
 30
0.762
 70
   192
  0
VERTEX
  5
160
  8
0
 10
0.2258701036453247
 20
0.6205730220794677
 30
0.762
 70
   192
  0
VERTEX
  5
161
  8
0
 10
0.2606193391799927
 20
0.7160457798004151
 30
0.4064
 70
   192
  0
VERTEX
  5
162
  8
0
 10
0.4169909717559814
 20
1.145673286437988
 30
0.4064
 70
   192
  0
VERTEX
  5
163
  8
0
 10
0.0000000000000043
 20
1.2192
 30
0.4064
 70
   192
  0
VERTEX
  5
164
  8
0
 10
0.0
 20
0.762
 30
0.4064
 70
   192
  0
VERTEX
  5
165
  8
0
 10
-0.4169909717559814
 20
1.145673286437988
 30
0.4064
 70
   192
  0
VERTEX
  5
166
  8
0
 10
-0.2606193391799927
 20
0.7160457798004151
 30
0.4064
 70
   192
  0
VERTEX
  5
167
  8
0
 10
-0.2606193391799927
 20
0.7160457798004151
 30
0.762
 70
   192
  0
VERTEX
  5
168
  8
0
 10
-0.2258701036453247
 20
0.6205730220794677
 30
0.762
 70
   192
  0
VERTEX
  5
169
  8
0
 10
-0.7836866607666015
 20
0.9339614028930664
 30
0.4064
 70
   192
  0
VERTEX
  5
16A
  8
0
 10
-0.4898041629791259
 20
0.5837258525848389
 30
0.4064
 70
   192
  0
VERTEX
  5
16B
  8
0
 10
-0.4898041629791259
 20
0.5837258525848389
 30
0.762
 70
   192
  0
VERTEX
  5
16C
  8
0
 10
-0.4244969573974609
 20
0.5058957679748535
 30
0.762
 70
   192
  0
VERTEX
  5
16D
  8
0
 10
-1.055858129119873
 20
0.6095999999999999
 30
0.4064
 70
   192
  0
VERTEX
  5
16E
  8
0
 10
-0.659911367034912
 20
0.381
 30
0.4064
 70
   192
  0
VERTEX
  5
16F
  8
0
 10
-0.659911367034912
 20
0.381
 30
0.762
 70
   192
  0
VERTEX
  5
170
  8
0
 10
-0.5719231815338135
 20
0.3302
 30
0.762
 70
   192
  0
VERTEX
  5
171
  8
0
 10
-1.200677584075928
 20
0.2117118593215942
 30
0.4064
 70
   192
  0
VERTEX
  5
172
  8
0
 10
-0.7504235263824462
 20
0.1323199151039124
 30
0.4064
 70
   192
  0
VERTEX
  5
173
  8
0
 10
-0.7504235263824462
 20
0.1323199151039124
 30
0.762
 70
   192
  0
VERTEX
  5
174
  8
0
 10
-0.650367036819458
 20
0.1146772541046143
 30
0.762
 70
   192
  0
VERTEX
  5
175
  8
0
 10
-1.200677584075928
 20
-0.2117118593215942
 30
0.4064
 70
   192
  0
VERTEX
  5
176
  8
0
 10
-0.7504235263824462
 20
-0.1323199151039124
 30
0.4064
 70
   192
  0
VERTEX
  5
177
  8
0
 10
-0.7504235263824462
 20
-0.1323199151039124
 30
0.762
 70
   192
  0
VERTEX
  5
178
  8
0
 10
-0.650367036819458
 20
-0.1146772541046143
 30
0.762
 70
   192
  0
VERTEX
  5
179
  8
0
 10
-1.055858129119873
 20
-0.6095999999999999
 30
0.4064
 70
   192
  0
VERTEX
  5
17A
  8
0
 10
-0.659911367034912
 20
-0.381
 30
0.4064
 70
   192
  0
VERTEX
  5
17B
  8
0
 10
-0.659911367034912
 20
-0.381
 30
0.762
 70
   192
  0
VERTEX
  5
17C
  8
0
 10
-0.5719231815338135
 20
-0.3302
 30
0.762
 70
   192
  0
VERTEX
  5
17D
  8
0
 10
-0.7836866607666015
 20
-0.9339614028930664
 30
0.4064
 70
   192
  0
VERTEX
  5
17E
  8
0
 10
-0.4898041629791259
 20
-0.5837258525848389
 30
0.4064
 70
   192
  0
VERTEX
  5
17F
  8
0
 10
-0.4898041629791259
 20
-0.5837258525848389
 30
0.762
 70
   192
  0
VERTEX
  5
180
  8
0
 10
-0.4244969573974609
 20
-0.5058957679748535
 30
0.762
 70
   192
  0
VERTEX
  5
181
  8
0
 10
-0.4169909717559814
 20
-1.145673286437988
 30
0.4064
 70
   192
  0
VERTEX
  5
182
  8
0
 10
-0.2606193391799927
 20
-0.7160457798004151
 30
0.4064
 70
   192
  0
VERTEX
  5
183
  8
0
 10
-0.2606193391799927
 20
-0.7160457798004151
 30
0.762
 70
   192
  0
VERTEX
  5
184
  8
0
 10
-0.2258701036453247
 20
-0.6205730220794677
 30
0.762
 70
   192
  0
VERTEX
  5
185
  8
0
 10
-0.0000000000000014
 20
-1.2192
 30
0.4064
 70
   192
  0
VERTEX
  5
186
  8
0
 10
-0.0000000000000014
 20
-0.762
 30
0.4064
 70
   192
  0
VERTEX
  5
187
  8
0
 10
-0.0000000000000014
 20
-0.762
 30
0.762
 70
   192
  0
VERTEX
  5
188
  8
0
 10
-0.0000000000000058
 20
-0.6604
 30
0.762
 70
   192
  0
VERTEX
  5
189
  8
0
 10
0.4169909717559814
 20
-1.145673286437988
 30
0.4064
 70
   192
  0
VERTEX
  5
18A
  8
0
 10
0.2606193391799927
 20
-0.7160457798004151
 30
0.4064
 70
   192
  0
VERTEX
  5
18B
  8
0
 10
0.2606193391799927
 20
-0.7160457798004151
 30
0.762
 70
   192
  0
VERTEX
  5
18C
  8
0
 10
0.2258701036453247
 20
-0.6205730220794677
 30
0.762
 70
   192
  0
VERTEX
  5
18D
  8
0
 10
0.7836866607666015
 20
-0.9339614028930664
 30
0.4064
 70
   192
  0
VERTEX
  5
18E
  8
0
 10
0.4898041629791259
 20
-0.5837258525848389
 30
0.4064
 70
   192
  0
VERTEX
  5
18F
  8
0
 10
0.4898041629791259
 20
-0.5837258525848389
 30
0.762
 70
   192
  0
VERTEX
  5
190
  8
0
 10
0.4244969573974609
 20
-0.5058957679748535
 30
0.762
 70
   192
  0
VERTEX
  5
191
  8
0
 10
1.055858129119873
 20
-0.6095999999999999
 30
0.4064
 70
   192
  0
VERTEX
  5
192
  8
0
 10
0.659911367034912
 20
-0.381
 30
0.4064
 70
   192
  0
VERTEX
  5
193
  8
0
 10
0.659911367034912
 20
-0.381
 30
0.762
 70
   192
  0
VERTEX
  5
194
  8
0
 10
0.5719231815338135
 20
-0.3302
 30
0.762
 70
   192
  0
VERTEX
  5
195
  8
0
 10
1.200677584075928
 20
-0.2117118593215942
 30
0.4064
 70
   192
  0
VERTEX
  5
196
  8
0
 10
0.7504235263824462
 20
-0.1323199151039124
 30
0.4064
 70
   192
  0
VERTEX
  5
197
  8
0
 10
0.7504235263824462
 20
-0.1323199151039124
 30
0.762
 70
   192
  0
VERTEX
  5
198
  8
0
 10
0.650367036819458
 20
-0.1146772541046143
 30
0.762
 70
   192
  0
VERTEX
  5
199
  8
0
 10
1.200677584075928
 20
0.2117118593215942
 30
0.4064
 70
   192
  0
VERTEX
  5
19A
  8
0
 10
0.7504235263824462
 20
0.1323199151039124
 30
0.4064
 70
   192
  0
VERTEX
  5
19B
  8
0
 10
0.7504235263824462
 20
0.1323199151039124
 30
0.762
 70
   192
  0
VERTEX
  5
19C
  8
0
 10
0.650367036819458
 20
0.1146772541046143
 30
0.762
 70
   192
  0
VERTEX
  5
19D
  8
0
 10
1.055858129119873
 20
0.6095999999999999
 30
0.4064
 70
   192
  0
VERTEX
  5
19E
  8
0
 10
0.659911367034912
 20
0.381
 30
0.4064
 70
   192
  0
VERTEX
  5
19F
  8
0
 10
0.659911367034912
 20
0.381
 30
0.762
 70
   192
  0
VERTEX
  5
1A0
  8
0
 10
0.5719231815338135
 20
0.3302
 30
0.762
 70
   192
  0
VERTEX
  5
1A1
  8
0
 10
0.7836866607666015
 20
0.9339614028930664
 30
0.4064
 70
   192
  0
VERTEX
  5
1A2
  8
0
 10
0.4898041629791259
 20
0.5837258525848389
 30
0.4064
 70
   192
  0
VERTEX
  5
1A3
  8
0
 10
0.4898041629791259
 20
0.5837258525848389
 30
0.762
 70
   192
  0
VERTEX
  5
1A4
  8
0
 10
0.4244969573974609
 20
0.5058957679748535
 30
0.762
 70
   192
  0
VERTEX
  5
1A5
  8
0
  6
BYBLOCK
 62
     0
 10
0.0
 20
0.0
 30
0.0
 70
   128
 71
    -1
 72
    -2
 73
     3
  0
VERTEX
  5
1A6
  8
0
  6
BYBLOCK
 62
     0
 10
0.0
 20
0.0
 30
0.0
 70
   128
 71
    -4
 72
    -3
 73
     2
  0
VERTEX
  5
1A7
  8
0
  6
BYBLOCK
 62
     0
 10
0.0
 20
0.0
 30
0.0
 70
   128
 71
    -5
 72
     6
 73
    -7
  0
VERTEX
  5
1A8
  8
0
  6
BYBLOCK
 62
     0
 10
0.0
 20
0.0
 30
0.0
 70
   128
 71
    -7
 72
     8
 73
    -5
  0
VERTEX
  5
1A9
  8
0
  6
BYBLOCK
 62
     0
 10
0.0
 20
0.0
 30
0.0
 70
   128
 71
    -8
 72
     7
 73
    -9
  0
VERTEX
  5
1AA
  8
0
  6
BYBLOCK
 62
     0
 10
0.0
 20
0.0
 30
0.0
 70
   128
 71
    -9
 72
    10
 73
    -8
  0
VERTEX
  5
1AB
  8
0
  6
BYBLOCK
 62
     0
 10
0.0
 20
0.0
 30
0.0
 70
   128
 71
   -11
 72
   -12
 73
     1
  0
VERTEX
  5
1AC
  8
0
  6
BYBLOCK
 62
     0
 10
0.0
 20
0.0
 30
0.0
 70
   128
 71
    -2
 72
    -1
 73
    12
  0
VERTEX
  5
1AD
  8
0
  6
BYBLOCK
 62
     0
 10
0.0
 20
0.0
 30
0.0
 70
   128
 71
   -10
 72
     9
 73
   -13
  0
VERTEX
  5
1AE
  8
0
  6
BYBLOCK
 62
     0
 10
0.0
 20
0.0
 30
0.0
 70
   128
 71
   -13
 72
    14
 73
   -10
  0
VERTEX
  5
1AF
  8
0
  6
BYBLOCK
 62
     0
 10
0.0
 20
0.0
 30
0.0
 70
   128
 71
   -15
 72
   -16
 73
    11
  0
VERTEX
  5
1B0
  8
0
  6
BYBLOCK
 62
     0
 10
0.0
 20
0.0
 30
0.0
 70
   128
 71
   -12
 72
   -11
 73
    16
  0
VERTEX
  5
1B1
  8
0
  6
BYBLOCK
 62
     0
 10
0.0
 20
0.0
 30
0.0
 70
   128
 71
   -14
 72
    13
 73
   -17
  0
VERTEX
  5
1B2
  8
0
  6
BYBLOCK
 62
     0
 10
0.0
 20
0.0
 30
0.0
 70
   128
 71
   -17
 72
    18
 73
   -14
  0
VERTEX
  5
1B3
  8
0
  6
BYBLOCK
 62
     0
 10
0.0
 20
0.0
 30
0.0
 70
   128
 71
   -19
 72
   -20
 73
    15
  0
VERTEX
  5
1B4
  8
0
  6
BYBLOCK
 62
     0
 10
0.0
 20
0.0
 30
0.0
 70
   128
 71
   -16
 72
   -15
 73
    20
  0
VERTEX
  5
1B5
  8
0
  6
BYBLOCK
 62
     0
 10
0.0
 20
0.0
 30
0.0
 70
   128
 71
   -18
 72
    17
 73
   -21
  0
VERTEX
  5
1B6
  8
0
  6
BYBLOCK
 62
     0
 10
0.0
 20
0.0
 30
0.0
 70
   128
 71
   -21
 72
    22
 73
   -18
  0
VERTEX
  5
1B7
  8
0
  6
BYBLOCK
 62
     0
 10
0.0
 20
0.0
 30
0.0
 70
   128
 71
   -23
 72
   -24
 73
    19
  0
VERTEX
  5
1B8
  8
0
  6
BYBLOCK
 62
     0
 10
0.0
 20
0.0
 30
0.0
 70
   128
 71
   -20
 72
   -19
 73
    24
  0
VERTEX
  5
1B9
  8
0
  6
BYBLOCK
 62
     0
 10
0.0
 20
0.0
 30
0.0
 70
   128
 71
   -22
 72
    21
 73
   -25
  0
VERTEX
  5
1BA
  8
0
  6
BYBLOCK
 62
     0
 10
0.0
 20
0.0
 30
0.0
 70
   128
 71
   -25
 72
    26
 73
   -22
  0
VERTEX
  5
1BB
  8
0
  6
BYBLOCK
 62
     0
 10
0.0
 20
0.0
 30
0.0
 70
   128
 71
   -27
 72
   -28
 73
    23
  0
VERTEX
  5
1BC
  8
0
  6
BYBLOCK
 62
     0
 10
0.0
 20
0.0
 30
0.0
 70
   128
 71
   -24
 72
   -23
 73
    28
  0
VERTEX
  5
1BD
  8
0
  6
BYBLOCK
 62
     0
 10
0.0
 20
0.0
 30
0.0
 70
   128
 71
   -26
 72
    25
 73
   -29
  0
VERTEX
  5
1BE
  8
0
  6
BYBLOCK
 62
     0
 10
0.0
 20
0.0
 30
0.0
 70
   128
 71
   -29
 72
    30
 73
   -26
  0
VERTEX
  5
1BF
  8
0
  6
BYBLOCK
 62
     0
 10
0.0
 20
0.0
 30
0.0
 70
   128
 71
   -31
 72
   -32
 73
    27
  0
VERTEX
  5
1C0
  8
0
  6
BYBLOCK
 62
     0
 10
0.0
 20
0.0
 30
0.0
 70
   128
 71
   -28
 72
   -27
 73
    32
  0
VERTEX
  5
1C1
  8
0
  6
BYBLOCK
 62
     0
 10
0.0
 20
0.0
 30
0.0
 70
   128
 71
   -30
 72
    29
 73
   -33
  0
VERTEX
  5
1C2
  8
0
  6
BYBLOCK
 62
     0
 10
0.0
 20
0.0
 30
0.0
 70
   128
 71
   -33
 72
    34
 73
   -30
  0
VERTEX
  5
1C3
  8
0
  6
BYBLOCK
 62
     0
 10
0.0
 20
0.0
 30
0.0
 70
   128
 71
   -35
 72
   -36
 73
    31
  0
VERTEX
  5
1C4
  8
0
  6
BYBLOCK
 62
     0
 10
0.0
 20
0.0
 30
0.0
 70
   128
 71
   -32
 72
   -31
 73
    36
  0
VERTEX
  5
1C5
  8
0
  6
BYBLOCK
 62
     0
 10
0.0
 20
0.0
 30
0.0
 70
   128
 71
   -34
 72
    33
 73
   -37
  0
VERTEX
  5
1C6
  8
0
  6
BYBLOCK
 62
     0
 10
0.0
 20
0.0
 30
0.0
 70
   128
 71
   -37
 72
    38
 73
   -34
  0
VERTEX
  5
1C7
  8
0
  6
BYBLOCK
 62
     0
 10
0.0
 20
0.0
 30
0.0
 70
   128
 71
   -39
 72
   -40
 73
    35
  0
VERTEX
  5
1C8
  8
0
  6
BYBLOCK
 62
     0
 10
0.0
 20
0.0
 30
0.0
 70
   128
 71
   -36
 72
   -35
 73
    40
  0
VERTEX
  5
1C9
  8
0
  6
BYBLOCK
 62
     0
 10
0.0
 20
0.0
 30
0.0
 70
   128
 71
   -38
 72
    37
 73
   -41
  0
VERTEX
  5
1CA
  8
0
  6
BYBLOCK
 62
     0
 10
0.0
 20
0.0
 30
0.0
 70
   128
 71
   -41
 72
    42
 73
   -38
  0
VERTEX
  5
1CB
  8
0
  6
BYBLOCK
 62
     0
 10
0.0
 20
0.0
 30
0.0
 70
   128
 71
   -43
 72
   -44
 73
    39
  0
VERTEX
  5
1CC
  8
0
  6
BYBLOCK
 62
     0
 10
0.0
 20
0.0
 30
0.0
 70
   128
 71
   -40
 72
   -39
 73
    44
  0
VERTEX
  5
1CD
  8
0
  6
BYBLOCK
 62
     0
 10
0.0
 20
0.0
 30
0.0
 70
   128
 71
   -42
 72
    41
 73
   -45
  0
VERTEX
  5
1CE
  8
0
  6
BYBLOCK
 62
     0
 10
0.0
 20
0.0
 30
0.0
 70
   128
 71
   -45
 72
    46
 73
   -42
  0
VERTEX
  5
1CF
  8
0
  6
BYBLOCK
 62
     0
 10
0.0
 20
0.0
 30
0.0
 70
   128
 71
   -47
 72
   -48
 73
    43
  0
VERTEX
  5
1D0
  8
0
  6
BYBLOCK
 62
     0
 10
0.0
 20
0.0
 30
0.0
 70
   128
 71
   -44
 72
   -43
 73
    48
  0
VERTEX
  5
1D1
  8
0
  6
BYBLOCK
 62
     0
 10
0.0
 20
0.0
 30
0.0
 70
   128
 71
   -46
 72
    45
 73
   -49
  0
VERTEX
  5
1D2
  8
0
  6
BYBLOCK
 62
     0
 10
0.0
 20
0.0
 30
0.0
 70
   128
 71
   -49
 72
    50
 73
   -46
  0
VERTEX
  5
1D3
  8
0
  6
BYBLOCK
 62
     0
 10
0.0
 20
0.0
 30
0.0
 70
   128
 71
   -51
 72
   -52
 73
    47
  0
VERTEX
  5
1D4
  8
0
  6
BYBLOCK
 62
     0
 10
0.0
 20
0.0
 30
0.0
 70
   128
 71
   -48
 72
   -47
 73
    52
  0
VERTEX
  5
1D5
  8
0
  6
BYBLOCK
 62
     0
 10
0.0
 20
0.0
 30
0.0
 70
   128
 71
   -50
 72
    49
 73
   -53
  0
VERTEX
  5
1D6
  8
0
  6
BYBLOCK
 62
     0
 10
0.0
 20
0.0
 30
0.0
 70
   128
 71
   -53
 72
    54
 73
   -50
  0
VERTEX
  5
1D7
  8
0
  6
BYBLOCK
 62
     0
 10
0.0
 20
0.0
 30
0.0
 70
   128
 71
   -55
 72
   -56
 73
    51
  0
VERTEX
  5
1D8
  8
0
  6
BYBLOCK
 62
     0
 10
0.0
 20
0.0
 30
0.0
 70
   128
 71
   -52
 72
   -51
 73
    56
  0
VERTEX
  5
1D9
  8
0
  6
BYBLOCK
 62
     0
 10
0.0
 20
0.0
 30
0.0
 70
   128
 71
   -54
 72
    53
 73
   -57
  0
VERTEX
  5
1DA
  8
0
  6
BYBLOCK
 62
     0
 10
0.0
 20
0.0
 30
0.0
 70
   128
 71
   -57
 72
    58
 73
   -54
  0
VERTEX
  5
1DB
  8
0
  6
BYBLOCK
 62
     0
 10
0.0
 20
0.0
 30
0.0
 70
   128
 71
   -59
 72
   -60
 73
    55
  0
VERTEX
  5
1DC
  8
0
  6
BYBLOCK
 62
     0
 10
0.0
 20
0.0
 30
0.0
 70
   128
 71
   -56
 72
   -55
 73
    60
  0
VERTEX
  5
1DD
  8
0
  6
BYBLOCK
 62
     0
 10
0.0
 20
0.0
 30
0.0
 70
   128
 71
   -58
 72
    57
 73
   -61
  0
VERTEX
  5
1DE
  8
0
  6
BYBLOCK
 62
     0
 10
0.0
 20
0.0
 30
0.0
 70
   128
 71
   -61
 72
    62
 73
   -58
  0
VERTEX
  5
1DF
  8
0
  6
BYBLOCK
 62
     0
 10
0.0
 20
0.0
 30
0.0
 70
   128
 71
   -63
 72
   -64
 73
    59
  0
VERTEX
  5
1E0
  8
0
  6
BYBLOCK
 62
     0
 10
0.0
 20
0.0
 30
0.0
 70
   128
 71
   -60
 72
   -59
 73
    64
  0
VERTEX
  5
1E1
  8
0
  6
BYBLOCK
 62
     0
 10
0.0
 20
0.0
 30
0.0
 70
   128
 71
   -62
 72
    61
 73
   -65
  0
VERTEX
  5
1E2
  8
0
  6
BYBLOCK
 62
     0
 10
0.0
 20
0.0
 30
0.0
 70
   128
 71
   -65
 72
    66
 73
   -62
  0
VERTEX
  5
1E3
  8
0
  6
BYBLOCK
 62
     0
 10
0.0
 20
0.0
 30
0.0
 70
   128
 71
   -67
 72
   -68
 73
    63
  0
VERTEX
  5
1E4
  8
0
  6
BYBLOCK
 62
     0
 10
0.0
 20
0.0
 30
0.0
 70
   128
 71
   -64
 72
   -63
 73
    68
  0
VERTEX
  5
1E5
  8
0
  6
BYBLOCK
 62
     0
 10
0.0
 20
0.0
 30
0.0
 70
   128
 71
   -66
 72
    65
 73
   -69
  0
VERTEX
  5
1E6
  8
0
  6
BYBLOCK
 62
     0
 10
0.0
 20
0.0
 30
0.0
 70
   128
 71
   -69
 72
    70
 73
   -66
  0
VERTEX
  5
1E7
  8
0
  6
BYBLOCK
 62
     0
 10
0.0
 20
0.0
 30
0.0
 70
   128
 71
   -71
 72
   -72
 73
    67
  0
VERTEX
  5
1E8
  8
0
  6
BYBLOCK
 62
     0
 10
0.0
 20
0.0
 30
0.0
 70
   128
 71
   -68
 72
   -67
 73
    72
  0
VERTEX
  5
1E9
  8
0
  6
BYBLOCK
 62
     0
 10
0.0
 20
0.0
 30
0.0
 70
   128
 71
   -70
 72
    69
 73
    -6
  0
VERTEX
  5
1EA
  8
0
  6
BYBLOCK
 62
     0
 10
0.0
 20
0.0
 30
0.0
 70
   128
 71
    -6
 72
     5
 73
   -70
  0
VERTEX
  5
1EB
  8
0
  6
BYBLOCK
 62
     0
 10
0.0
 20
0.0
 30
0.0
 70
   128
 71
    -3
 72
    -4
 73
    71
  0
VERTEX
  5
1EC
  8
0
  6
BYBLOCK
 62
     0
 10
0.0
 20
0.0
 30
0.0
 70
   128
 71
   -72
 72
   -71
 73
     4
  0
SEQEND
  5
1ED
  8
0
  6
BYBLOCK
 62
     0
  0
POLYLINE
  5
207
  8
0
  6
BYBLOCK
 62
     0
 66
     1
 10
0.0
 20
0.0
 30
0.0
 70
    64
 71
   144
 72
   144
1001
AVE_ENTITY_MATERIAL
1002
{
1000

1002
{
1071
        0
1070
     0
1070
     0
1002
{
1070
     0
1070
     0
1070
     0
1040
0.0
1002
}
1070
     0
1070
     0
1002
{
1002
}
1002
}
1002
{
1002
}
1002
{
1002
}
1011
0.0
1021
0.0
1031
0.0
1021
0.0
1031
0.0
1011
0.0254
1021
0.0
1031
0.0
1021
0.0
1031
0.0
1011
0.0
1021
0.0254
1031
0.0
1021
0.0254
1031
0.0
1011
0.0
1021
0.0
1031
0.0254
1021
0.0
1031
0.0254
1002
}
1001
AVE_FINISH
1002
{
1070
     0
1005
0
1002
}
  0
VERTEX
  5
208
  8
0
 10
0.2606193391799927
 20
0.7160457798004151
 30
0.762
 70
   192
  0
VERTEX
  5
209
  8
0
 10
0.4898041629791259
 20
0.5837258525848389
 30
0.762
 70
   192
  0
VERTEX
  5
20A
  8
0
 10
0.2606193391799927
 20
0.7160457798004151
 30
0.4064
 70
   192
  0
VERTEX
  5
20B
  8
0
 10
0.4898041629791259
 20
0.5837258525848389
 30
0.4064
 70
   192
  0
VERTEX
  5
20C
  8
0
 10
0.4169909717559814
 20
1.145673286437988
 30
0.4064
 70
   192
  0
VERTEX
  5
20D
  8
0
 10
0.7836866607666015
 20
0.9339614028930664
 30
0.4064
 70
   192
  0
VERTEX
  5
20E
  8
0
 10
0.4169909717559814
 20
1.145673286437988
 30
0.3302
 70
   192
  0
VERTEX
  5
20F
  8
0
 10
0.7836866607666015
 20
0.9339614028930664
 30
0.3302
 70
   192
  0
VERTEX
  5
210
  8
0
 10
0.4244969573974609
 20
0.5058957679748535
 30
0.762
 70
   192
  0
VERTEX
  5
211
  8
0
 10
0.4244969573974609
 20
0.5058957679748535
 30
-0.0000000000000001
 70
   192
  0
VERTEX
  5
212
  8
0
 10
0.2258701036453247
 20
0.6205730220794677
 30
0.762
 70
   192
  0
VERTEX
  5
213
  8
0
 10
0.2258701036453247
 20
0.6205730220794677
 30
-0.0000000000000001
 70
   192
  0
VERTEX
  5
214
  8
0
 10
0.0000000000000058
 20
1.2192
 30
0.4064
 70
   192
  0
VERTEX
  5
215
  8
0
 10
0.0000000000000058
 20
1.2192
 30
0.3302
 70
   192
  0
VERTEX
  5
216
  8
0
 10
0.0000000000000043
 20
0.762
 30
0.762
 70
   192
  0
VERTEX
  5
217
  8
0
 10
0.0000000000000029
 20
0.762
 30
0.4064
 70
   192
  0
VERTEX
  5
218
  8
0
 10
0.0000000000000029
 20
0.6604
 30
0.762
 70
   192
  0
VERTEX
  5
219
  8
0
 10
0.0000000000000029
 20
0.6604
 30
-0.0000000000000001
 70
   192
  0
VERTEX
  5
21A
  8
0
 10
-0.4169909717559814
 20
1.145673286437988
 30
0.4064
 70
   192
  0
VERTEX
  5
21B
  8
0
 10
-0.4169909717559814
 20
1.145673286437988
 30
0.3302
 70
   192
  0
VERTEX
  5
21C
  8
0
 10
-0.2606193391799927
 20
0.7160457798004151
 30
0.762
 70
   192
  0
VERTEX
  5
21D
  8
0
 10
-0.2606193391799927
 20
0.7160457798004151
 30
0.4064
 70
   192
  0
VERTEX
  5
21E
  8
0
 10
-0.2258701036453247
 20
0.6205730220794677
 30
0.762
 70
   192
  0
VERTEX
  5
21F
  8
0
 10
-0.2258701036453247
 20
0.6205730220794677
 30
-0.0000000000000001
 70
   192
  0
VERTEX
  5
220
  8
0
 10
-0.7836866607666015
 20
0.9339614028930664
 30
0.4064
 70
   192
  0
VERTEX
  5
221
  8
0
 10
-0.7836866607666015
 20
0.9339614028930664
 30
0.3302
 70
   192
  0
VERTEX
  5
222
  8
0
 10
-0.4898041629791259
 20
0.5837258525848389
 30
0.762
 70
   192
  0
VERTEX
  5
223
  8
0
 10
-0.4898041629791259
 20
0.5837258525848389
 30
0.4064
 70
   192
  0
VERTEX
  5
224
  8
0
 10
-0.4244969573974609
 20
0.5058957679748535
 30
0.762
 70
   192
  0
VERTEX
  5
225
  8
0
 10
-0.4244969573974609
 20
0.5058957679748535
 30
-0.0000000000000001
 70
   192
  0
VERTEX
  5
226
  8
0
 10
-1.055858129119873
 20
0.6095999999999999
 30
0.4064
 70
   192
  0
VERTEX
  5
227
  8
0
 10
-1.055858129119873
 20
0.6095999999999999
 30
0.3302
 70
   192
  0
VERTEX
  5
228
  8
0
 10
-0.659911367034912
 20
0.381
 30
0.762
 70
   192
  0
VERTEX
  5
229
  8
0
 10
-0.659911367034912
 20
0.381
 30
0.4064
 70
   192
  0
VERTEX
  5
22A
  8
0
 10
-0.5719231815338135
 20
0.3302
 30
0.762
 70
   192
  0
VERTEX
  5
22B
  8
0
 10
-0.5719231815338135
 20
0.3302
 30
0.0
 70
   192
  0
VERTEX
  5
22C
  8
0
 10
-1.200677584075928
 20
0.2117118593215942
 30
0.4064
 70
   192
  0
VERTEX
  5
22D
  8
0
 10
-1.200677584075928
 20
0.2117118593215942
 30
0.3302
 70
   192
  0
VERTEX
  5
22E
  8
0
 10
-0.7504235263824462
 20
0.1323199151039124
 30
0.762
 70
   192
  0
VERTEX
  5
22F
  8
0
 10
-0.7504235263824462
 20
0.1323199151039124
 30
0.4064
 70
   192
  0
VERTEX
  5
230
  8
0
 10
-0.650367036819458
 20
0.1146772541046143
 30
0.762
 70
   192
  0
VERTEX
  5
231
  8
0
 10
-0.650367036819458
 20
0.1146772541046143
 30
0.0
 70
   192
  0
VERTEX
  5
232
  8
0
 10
-1.200677584075928
 20
-0.2117118593215942
 30
0.4064
 70
   192
  0
VERTEX
  5
233
  8
0
 10
-1.200677584075928
 20
-0.2117118593215942
 30
0.3302
 70
   192
  0
VERTEX
  5
234
  8
0
 10
-0.7504235263824462
 20
-0.1323199151039124
 30
0.762
 70
   192
  0
VERTEX
  5
235
  8
0
 10
-0.7504235263824462
 20
-0.1323199151039124
 30
0.4064
 70
   192
  0
VERTEX
  5
236
  8
0
 10
-0.650367036819458
 20
-0.1146772541046143
 30
0.762
 70
   192
  0
VERTEX
  5
237
  8
0
 10
-0.650367036819458
 20
-0.1146772541046143
 30
0.0
 70
   192
  0
VERTEX
  5
238
  8
0
 10
-1.055858129119873
 20
-0.6095999999999999
 30
0.4064
 70
   192
  0
VERTEX
  5
239
  8
0
 10
-1.055858129119873
 20
-0.6095999999999999
 30
0.3302
 70
   192
  0
VERTEX
  5
23A
  8
0
 10
-0.659911367034912
 20
-0.381
 30
0.762
 70
   192
  0
VERTEX
  5
23B
  8
0
 10
-0.659911367034912
 20
-0.381
 30
0.4064
 70
   192
  0
VERTEX
  5
23C
  8
0
 10
-0.5719231815338135
 20
-0.3302
 30
0.762
 70
   192
  0
VERTEX
  5
23D
  8
0
 10
-0.5719231815338135
 20
-0.3302
 30
0.0
 70
   192
  0
VERTEX
  5
23E
  8
0
 10
-0.7836866607666015
 20
-0.9339614028930664
 30
0.4064
 70
   192
  0
VERTEX
  5
23F
  8
0
 10
-0.7836866607666015
 20
-0.9339614028930664
 30
0.3302
 70
   192
  0
VERTEX
  5
240
  8
0
 10
-0.4898041629791259
 20
-0.5837258525848389
 30
0.762
 70
   192
  0
VERTEX
  5
241
  8
0
 10
-0.4898041629791259
 20
-0.5837258525848389
 30
0.4064
 70
   192
  0
VERTEX
  5
242
  8
0
 10
-0.4244969573974609
 20
-0.5058957679748535
 30
0.762
 70
   192
  0
VERTEX
  5
243
  8
0
 10
-0.4244969573974609
 20
-0.5058957679748535
 30
0.0000000000000001
 70
   192
  0
VERTEX
  5
244
  8
0
 10
-0.4169909717559814
 20
-1.145673286437988
 30
0.4064
 70
   192
  0
VERTEX
  5
245
  8
0
 10
-0.4169909717559814
 20
-1.145673286437988
 30
0.3302
 70
   192
  0
VERTEX
  5
246
  8
0
 10
-0.2606193391799927
 20
-0.7160457798004151
 30
0.762
 70
   192
  0
VERTEX
  5
247
  8
0
 10
-0.2606193391799927
 20
-0.7160457798004151
 30
0.4064
 70
   192
  0
VERTEX
  5
248
  8
0
 10
-0.2258701036453247
 20
-0.6205730220794677
 30
0.762
 70
   192
  0
VERTEX
  5
249
  8
0
 10
-0.2258701036453247
 20
-0.6205730220794677
 30
0.0000000000000001
 70
   192
  0
VERTEX
  5
24A
  8
0
 10
-0.0000000000000058
 20
-1.2192
 30
0.4064
 70
   192
  0
VERTEX
  5
24B
  8
0
 10
-0.0000000000000087
 20
-1.2192
 30
0.3302
 70
   192
  0
VERTEX
  5
24C
  8
0
 10
-0.0000000000000029
 20
-0.762
 30
0.762
 70
   192
  0
VERTEX
  5
24D
  8
0
 10
-0.0000000000000043
 20
-0.762
 30
0.4064
 70
   192
  0
VERTEX
  5
24E
  8
0
 10
-0.0000000000000029
 20
-0.6604
 30
0.762
 70
   192
  0
VERTEX
  5
24F
  8
0
 10
-0.0000000000000029
 20
-0.6604
 30
0.0000000000000001
 70
   192
  0
VERTEX
  5
250
  8
0
 10
0.4169909717559814
 20
-1.145673286437988
 30
0.4064
 70
   192
  0
VERTEX
  5
251
  8
0
 10
0.4169909717559814
 20
-1.145673286437988
 30
0.3302
 70
   192
  0
VERTEX
  5
252
  8
0
 10
0.2606193391799927
 20
-0.7160457798004151
 30
0.762
 70
   192
  0
VERTEX
  5
253
  8
0
 10
0.2606193391799927
 20
-0.7160457798004151
 30
0.4064
 70
   192
  0
VERTEX
  5
254
  8
0
 10
0.2258701036453247
 20
-0.6205730220794677
 30
0.762
 70
   192
  0
VERTEX
  5
255
  8
0
 10
0.2258701036453247
 20
-0.6205730220794677
 30
0.0000000000000001
 70
   192
  0
VERTEX
  5
256
  8
0
 10
0.7836866607666015
 20
-0.9339614028930664
 30
0.4064
 70
   192
  0
VERTEX
  5
257
  8
0
 10
0.7836866607666015
 20
-0.9339614028930664
 30
0.3302
 70
   192
  0
VERTEX
  5
258
  8
0
 10
0.4898041629791259
 20
-0.5837258525848389
 30
0.762
 70
   192
  0
VERTEX
  5
259
  8
0
 10
0.4898041629791259
 20
-0.5837258525848389
 30
0.4064
 70
   192
  0
VERTEX
  5
25A
  8
0
 10
0.4244969573974609
 20
-0.5058957679748535
 30
0.762
 70
   192
  0
VERTEX
  5
25B
  8
0
 10
0.4244969573974609
 20
-0.5058957679748535
 30
0.0000000000000001
 70
   192
  0
VERTEX
  5
25C
  8
0
 10
1.055858129119873
 20
-0.6095999999999999
 30
0.4064
 70
   192
  0
VERTEX
  5
25D
  8
0
 10
1.055858129119873
 20
-0.6095999999999999
 30
0.3302
 70
   192
  0
VERTEX
  5
25E
  8
0
 10
0.659911367034912
 20
-0.381
 30
0.762
 70
   192
  0
VERTEX
  5
25F
  8
0
 10
0.659911367034912
 20
-0.381
 30
0.4064
 70
   192
  0
VERTEX
  5
260
  8
0
 10
0.5719231815338135
 20
-0.3302
 30
0.762
 70
   192
  0
VERTEX
  5
261
  8
0
 10
0.5719231815338135
 20
-0.3302
 30
0.0
 70
   192
  0
VERTEX
  5
262
  8
0
 10
1.200677584075928
 20
-0.2117118593215942
 30
0.4064
 70
   192
  0
VERTEX
  5
263
  8
0
 10
1.200677584075928
 20
-0.2117118593215942
 30
0.3302
 70
   192
  0
VERTEX
  5
264
  8
0
 10
0.7504235263824462
 20
-0.1323199151039124
 30
0.762
 70
   192
  0
VERTEX
  5
265
  8
0
 10
0.7504235263824462
 20
-0.1323199151039124
 30
0.4064
 70
   192
  0
VERTEX
  5
266
  8
0
 10
0.650367036819458
 20
-0.1146772541046143
 30
0.762
 70
   192
  0
VERTEX
  5
267
  8
0
 10
0.650367036819458
 20
-0.1146772541046143
 30
0.0
 70
   192
  0
VERTEX
  5
268
  8
0
 10
1.200677584075928
 20
0.2117118593215942
 30
0.4064
 70
   192
  0
VERTEX
  5
269
  8
0
 10
1.200677584075928
 20
0.2117118593215942
 30
0.3302
 70
   192
  0
VERTEX
  5
26A
  8
0
 10
0.7504235263824462
 20
0.1323199151039124
 30
0.762
 70
   192
  0
VERTEX
  5
26B
  8
0
 10
0.7504235263824462
 20
0.1323199151039124
 30
0.4064
 70
   192
  0
VERTEX
  5
26C
  8
0
 10
0.650367036819458
 20
0.1146772541046143
 30
0.762
 70
   192
  0
VERTEX
  5
26D
  8
0
 10
0.650367036819458
 20
0.1146772541046143
 30
0.0
 70
   192
  0
VERTEX
  5
26E
  8
0
 10
1.055858129119873
 20
0.6095999999999999
 30
0.4064
 70
   192
  0
VERTEX
  5
26F
  8
0
 10
1.055858129119873
 20
0.6095999999999999
 30
0.3302
 70
   192
  0
VERTEX
  5
270
  8
0
 10
0.659911367034912
 20
0.381
 30
0.762
 70
   192
  0
VERTEX
  5
271
  8
0
 10
0.659911367034912
 20
0.381
 30
0.4064
 70
   192
  0
VERTEX
  5
272
  8
0
 10
0.5719231815338135
 20
0.3302
 30
0.762
 70
   192
  0
VERTEX
  5
273
  8
0
 10
0.5719231815338135
 20
0.3302
 30
0.0
 70
   192
  0
VERTEX
  5
274
  8
0
 10
0.4898041629791259
 20
0.5837258525848389
 30
0.3302
 70
   192
  0
VERTEX
  5
275
  8
0
 10
0.659911367034912
 20
0.381
 30
0.3302
 70
   192
  0
VERTEX
  5
276
  8
0
 10
0.4898041629791259
 20
0.5837258525848389
 30
-0.0000000000000001
 70
   192
  0
VERTEX
  5
277
  8
0
 10
0.659911367034912
 20
0.381
 30
0.0
 70
   192
  0
VERTEX
  5
278
  8
0
 10
0.7504235263824462
 20
0.1323199151039124
 30
0.3302
 70
   192
  0
VERTEX
  5
279
  8
0
 10
0.7504235263824462
 20
0.1323199151039124
 30
0.0
 70
   192
  0
VERTEX
  5
27A
  8
0
 10
0.7504235263824462
 20
-0.1323199151039124
 30
0.3302
 70
   192
  0
VERTEX
  5
27B
  8
0
 10
0.7504235263824462
 20
-0.1323199151039124
 30
0.0
 70
   192
  0
VERTEX
  5
27C
  8
0
 10
0.659911367034912
 20
-0.381
 30
0.3302
 70
   192
  0
VERTEX
  5
27D
  8
0
 10
0.659911367034912
 20
-0.381
 30
0.0
 70
   192
  0
VERTEX
  5
27E
  8
0
 10
0.4898041629791259
 20
-0.5837258525848389
 30
0.3302
 70
   192
  0
VERTEX
  5
27F
  8
0
 10
0.4898041629791259
 20
-0.5837258525848389
 30
0.0000000000000001
 70
   192
  0
VERTEX
  5
280
  8
0
 10
0.2606193391799927
 20
-0.7160457798004151
 30
0.3302
 70
   192
  0
VERTEX
  5
281
  8
0
 10
0.2606193391799927
 20
-0.7160457798004151
 30
0.0000000000000001
 70
   192
  0
VERTEX
  5
282
  8
0
 10
-0.0000000000000043
 20
-0.762
 30
0.3302
 70
   192
  0
VERTEX
  5
283
  8
0
 10
-0.0000000000000029
 20
-0.762
 30
0.0000000000000001
 70
   192
  0
VERTEX
  5
284
  8
0
 10
-0.2606193391799927
 20
-0.7160457798004151
 30
0.3302
 70
   192
  0
VERTEX
  5
285
  8
0
 10
-0.2606193391799927
 20
-0.7160457798004151
 30
0.0000000000000001
 70
   192
  0
VERTEX
  5
286
  8
0
 10
-0.4898041629791259
 20
-0.5837258525848389
 30
0.3302
 70
   192
  0
VERTEX
  5
287
  8
0
 10
-0.4898041629791259
 20
-0.5837258525848389
 30
0.0000000000000001
 70
   192
  0
VERTEX
  5
288
  8
0
 10
-0.659911367034912
 20
-0.381
 30
0.3302
 70
   192
  0
VERTEX
  5
289
  8
0
 10
-0.659911367034912
 20
-0.381
 30
0.0
 70
   192
  0
VERTEX
  5
28A
  8
0
 10
-0.7504235263824462
 20
-0.1323199151039124
 30
0.3302
 70
   192
  0
VERTEX
  5
28B
  8
0
 10
-0.7504235263824462
 20
-0.1323199151039124
 30
0.0
 70
   192
  0
VERTEX
  5
28C
  8
0
 10
-0.7504235263824462
 20
0.1323199151039124
 30
0.3302
 70
   192
  0
VERTEX
  5
28D
  8
0
 10
-0.7504235263824462
 20
0.1323199151039124
 30
0.0
 70
   192
  0
VERTEX
  5
28E
  8
0
 10
-0.659911367034912
 20
0.381
 30
0.3302
 70
   192
  0
VERTEX
  5
28F
  8
0
 10
-0.659911367034912
 20
0.381
 30
0.0
 70
   192
  0
VERTEX
  5
290
  8
0
 10
-0.4898041629791259
 20
0.5837258525848389
 30
0.3302
 70
   192
  0
VERTEX
  5
291
  8
0
 10
-0.4898041629791259
 20
0.5837258525848389
 30
-0.0000000000000001
 70
   192
  0
VERTEX
  5
292
  8
0
 10
-0.2606193391799927
 20
0.7160457798004151
 30
0.3302
 70
   192
  0
VERTEX
  5
293
  8
0
 10
-0.2606193391799927
 20
0.7160457798004151
 30
-0.0000000000000001
 70
   192
  0
VERTEX
  5
294
  8
0
 10
0.0000000000000043
 20
0.762
 30
0.3302
 70
   192
  0
VERTEX
  5
295
  8
0
 10
0.0000000000000043
 20
0.762
 30
-0.0000000000000001
 70
   192
  0
VERTEX
  5
296
  8
0
 10
0.2606193391799927
 20
0.7160457798004151
 30
0.3302
 70
   192
  0
VERTEX
  5
297
  8
0
 10
0.2606193391799927
 20
0.7160457798004151
 30
-0.0000000000000001
 70
   192
  0
VERTEX
  5
298
  8
0
  6
BYBLOCK
 62
     0
 10
0.0
 20
0.0
 30
0.0
 70
   128
 71
     1
 72
    -2
 73
     3
  0
VERTEX
  5
299
  8
0
  6
BYBLOCK
 62
     0
 10
0.0
 20
0.0
 30
0.0
 70
   128
 71
     4
 72
    -3
 73
     2
  0
VERTEX
  5
29A
  8
0
  6
BYBLOCK
 62
     0
 10
0.0
 20
0.0
 30
0.0
 70
   128
 71
     5
 72
    -6
 73
     7
  0
VERTEX
  5
29B
  8
0
  6
BYBLOCK
 62
     0
 10
0.0
 20
0.0
 30
0.0
 70
   128
 71
     8
 72
    -7
 73
     6
  0
VERTEX
  5
29C
  8
0
  6
BYBLOCK
 62
     0
 10
0.0
 20
0.0
 30
0.0
 70
   128
 71
    -9
 72
   -10
 73
    11
  0
VERTEX
  5
29D
  8
0
  6
BYBLOCK
 62
     0
 10
0.0
 20
0.0
 30
0.0
 70
   128
 71
   -12
 72
   -11
 73
    10
  0
VERTEX
  5
29E
  8
0
  6
BYBLOCK
 62
     0
 10
0.0
 20
0.0
 30
0.0
 70
   128
 71
    13
 72
    -5
 73
    14
  0
VERTEX
  5
29F
  8
0
  6
BYBLOCK
 62
     0
 10
0.0
 20
0.0
 30
0.0
 70
   128
 71
     7
 72
   -14
 73
     5
  0
VERTEX
  5
2A0
  8
0
  6
BYBLOCK
 62
     0
 10
0.0
 20
0.0
 30
0.0
 70
   128
 71
    15
 72
    -1
 73
    16
  0
VERTEX
  5
2A1
  8
0
  6
BYBLOCK
 62
     0
 10
0.0
 20
0.0
 30
0.0
 70
   128
 71
     3
 72
   -16
 73
     1
  0
VERTEX
  5
2A2
  8
0
  6
BYBLOCK
 62
     0
 10
0.0
 20
0.0
 30
0.0
 70
   128
 71
   -11
 72
   -12
 73
    17
  0
VERTEX
  5
2A3
  8
0
  6
BYBLOCK
 62
     0
 10
0.0
 20
0.0
 30
0.0
 70
   128
 71
   -18
 72
   -17
 73
    12
  0
VERTEX
  5
2A4
  8
0
  6
BYBLOCK
 62
     0
 10
0.0
 20
0.0
 30
0.0
 70
   128
 71
    19
 72
   -13
 73
    20
  0
VERTEX
  5
2A5
  8
0
  6
BYBLOCK
 62
     0
 10
0.0
 20
0.0
 30
0.0
 70
   128
 71
    14
 72
   -20
 73
    13
  0
VERTEX
  5
2A6
  8
0
  6
BYBLOCK
 62
     0
 10
0.0
 20
0.0
 30
0.0
 70
   128
 71
    21
 72
   -15
 73
    22
  0
VERTEX
  5
2A7
  8
0
  6
BYBLOCK
 62
     0
 10
0.0
 20
0.0
 30
0.0
 70
   128
 71
    16
 72
   -22
 73
    15
  0
VERTEX
  5
2A8
  8
0
  6
BYBLOCK
 62
     0
 10
0.0
 20
0.0
 30
0.0
 70
   128
 71
   -17
 72
   -18
 73
    23
  0
VERTEX
  5
2A9
  8
0
  6
BYBLOCK
 62
     0
 10
0.0
 20
0.0
 30
0.0
 70
   128
 71
   -24
 72
   -23
 73
    18
  0
VERTEX
  5
2AA
  8
0
  6
BYBLOCK
 62
     0
 10
0.0
 20
0.0
 30
0.0
 70
   128
 71
    25
 72
   -19
 73
    26
  0
VERTEX
  5
2AB
  8
0
  6
BYBLOCK
 62
     0
 10
0.0
 20
0.0
 30
0.0
 70
   128
 71
    20
 72
   -26
 73
    19
  0
VERTEX
  5
2AC
  8
0
  6
BYBLOCK
 62
     0
 10
0.0
 20
0.0
 30
0.0
 70
   128
 71
    27
 72
   -21
 73
    28
  0
VERTEX
  5
2AD
  8
0
  6
BYBLOCK
 62
     0
 10
0.0
 20
0.0
 30
0.0
 70
   128
 71
    22
 72
   -28
 73
    21
  0
VERTEX
  5
2AE
  8
0
  6
BYBLOCK
 62
     0
 10
0.0
 20
0.0
 30
0.0
 70
   128
 71
   -23
 72
   -24
 73
    29
  0
VERTEX
  5
2AF
  8
0
  6
BYBLOCK
 62
     0
 10
0.0
 20
0.0
 30
0.0
 70
   128
 71
   -30
 72
   -29
 73
    24
  0
VERTEX
  5
2B0
  8
0
  6
BYBLOCK
 62
     0
 10
0.0
 20
0.0
 30
0.0
 70
   128
 71
    31
 72
   -25
 73
    32
  0
VERTEX
  5
2B1
  8
0
  6
BYBLOCK
 62
     0
 10
0.0
 20
0.0
 30
0.0
 70
   128
 71
    26
 72
   -32
 73
    25
  0
VERTEX
  5
2B2
  8
0
  6
BYBLOCK
 62
     0
 10
0.0
 20
0.0
 30
0.0
 70
   128
 71
    33
 72
   -27
 73
    34
  0
VERTEX
  5
2B3
  8
0
  6
BYBLOCK
 62
     0
 10
0.0
 20
0.0
 30
0.0
 70
   128
 71
    28
 72
   -34
 73
    27
  0
VERTEX
  5
2B4
  8
0
  6
BYBLOCK
 62
     0
 10
0.0
 20
0.0
 30
0.0
 70
   128
 71
   -29
 72
   -30
 73
    35
  0
VERTEX
  5
2B5
  8
0
  6
BYBLOCK
 62
     0
 10
0.0
 20
0.0
 30
0.0
 70
   128
 71
   -36
 72
   -35
 73
    30
  0
VERTEX
  5
2B6
  8
0
  6
BYBLOCK
 62
     0
 10
0.0
 20
0.0
 30
0.0
 70
   128
 71
    37
 72
   -31
 73
    38
  0
VERTEX
  5
2B7
  8
0
  6
BYBLOCK
 62
     0
 10
0.0
 20
0.0
 30
0.0
 70
   128
 71
    32
 72
   -38
 73
    31
  0
VERTEX
  5
2B8
  8
0
  6
BYBLOCK
 62
     0
 10
0.0
 20
0.0
 30
0.0
 70
   128
 71
    39
 72
   -33
 73
    40
  0
VERTEX
  5
2B9
  8
0
  6
BYBLOCK
 62
     0
 10
0.0
 20
0.0
 30
0.0
 70
   128
 71
    34
 72
   -40
 73
    33
  0
VERTEX
  5
2BA
  8
0
  6
BYBLOCK
 62
     0
 10
0.0
 20
0.0
 30
0.0
 70
   128
 71
   -35
 72
   -36
 73
    41
  0
VERTEX
  5
2BB
  8
0
  6
BYBLOCK
 62
     0
 10
0.0
 20
0.0
 30
0.0
 70
   128
 71
   -42
 72
   -41
 73
    36
  0
VERTEX
  5
2BC
  8
0
  6
BYBLOCK
 62
     0
 10
0.0
 20
0.0
 30
0.0
 70
   128
 71
    43
 72
   -37
 73
    44
  0
VERTEX
  5
2BD
  8
0
  6
BYBLOCK
 62
     0
 10
0.0
 20
0.0
 30
0.0
 70
   128
 71
    38
 72
   -44
 73
    37
  0
VERTEX
  5
2BE
  8
0
  6
BYBLOCK
 62
     0
 10
0.0
 20
0.0
 30
0.0
 70
   128
 71
    45
 72
   -39
 73
    46
  0
VERTEX
  5
2BF
  8
0
  6
BYBLOCK
 62
     0
 10
0.0
 20
0.0
 30
0.0
 70
   128
 71
    40
 72
   -46
 73
    39
  0
VERTEX
  5
2C0
  8
0
  6
BYBLOCK
 62
     0
 10
0.0
 20
0.0
 30
0.0
 70
   128
 71
   -41
 72
   -42
 73
    47
  0
VERTEX
  5
2C1
  8
0
  6
BYBLOCK
 62
     0
 10
0.0
 20
0.0
 30
0.0
 70
   128
 71
   -48
 72
   -47
 73
    42
  0
VERTEX
  5
2C2
  8
0
  6
BYBLOCK
 62
     0
 10
0.0
 20
0.0
 30
0.0
 70
   128
 71
    49
 72
   -43
 73
    50
  0
VERTEX
  5
2C3
  8
0
  6
BYBLOCK
 62
     0
 10
0.0
 20
0.0
 30
0.0
 70
   128
 71
    44
 72
   -50
 73
    43
  0
VERTEX
  5
2C4
  8
0
  6
BYBLOCK
 62
     0
 10
0.0
 20
0.0
 30
0.0
 70
   128
 71
    51
 72
   -45
 73
    52
  0
VERTEX
  5
2C5
  8
0
  6
BYBLOCK
 62
     0
 10
0.0
 20
0.0
 30
0.0
 70
   128
 71
    46
 72
   -52
 73
    45
  0
VERTEX
  5
2C6
  8
0
  6
BYBLOCK
 62
     0
 10
0.0
 20
0.0
 30
0.0
 70
   128
 71
   -47
 72
   -48
 73
    53
  0
VERTEX
  5
2C7
  8
0
  6
BYBLOCK
 62
     0
 10
0.0
 20
0.0
 30
0.0
 70
   128
 71
   -54
 72
   -53
 73
    48
  0
VERTEX
  5
2C8
  8
0
  6
BYBLOCK
 62
     0
 10
0.0
 20
0.0
 30
0.0
 70
   128
 71
    55
 72
   -49
 73
    56
  0
VERTEX
  5
2C9
  8
0
  6
BYBLOCK
 62
     0
 10
0.0
 20
0.0
 30
0.0
 70
   128
 71
    50
 72
   -56
 73
    49
  0
VERTEX
  5
2CA
  8
0
  6
BYBLOCK
 62
     0
 10
0.0
 20
0.0
 30
0.0
 70
   128
 71
    57
 72
   -51
 73
    58
  0
VERTEX
  5
2CB
  8
0
  6
BYBLOCK
 62
     0
 10
0.0
 20
0.0
 30
0.0
 70
   128
 71
    52
 72
   -58
 73
    51
  0
VERTEX
  5
2CC
  8
0
  6
BYBLOCK
 62
     0
 10
0.0
 20
0.0
 30
0.0
 70
   128
 71
   -53
 72
   -54
 73
    59
  0
VERTEX
  5
2CD
  8
0
  6
BYBLOCK
 62
     0
 10
0.0
 20
0.0
 30
0.0
 70
   128
 71
   -60
 72
   -59
 73
    54
  0
VERTEX
  5
2CE
  8
0
  6
BYBLOCK
 62
     0
 10
0.0
 20
0.0
 30
0.0
 70
   128
 71
    61
 72
   -55
 73
    62
  0
VERTEX
  5
2CF
  8
0
  6
BYBLOCK
 62
     0
 10
0.0
 20
0.0
 30
0.0
 70
   128
 71
    56
 72
   -62
 73
    55
  0
VERTEX
  5
2D0
  8
0
  6
BYBLOCK
 62
     0
 10
0.0
 20
0.0
 30
0.0
 70
   128
 71
    63
 72
   -57
 73
    64
  0
VERTEX
  5
2D1
  8
0
  6
BYBLOCK
 62
     0
 10
0.0
 20
0.0
 30
0.0
 70
   128
 71
    58
 72
   -64
 73
    57
  0
VERTEX
  5
2D2
  8
0
  6
BYBLOCK
 62
     0
 10
0.0
 20
0.0
 30
0.0
 70
   128
 71
   -59
 72
   -60
 73
    65
  0
VERTEX
  5
2D3
  8
0
  6
BYBLOCK
 62
     0
 10
0.0
 20
0.0
 30
0.0
 70
   128
 71
   -66
 72
   -65
 73
    60
  0
VERTEX
  5
2D4
  8
0
  6
BYBLOCK
 62
     0
 10
0.0
 20
0.0
 30
0.0
 70
   128
 71
    67
 72
   -61
 73
    68
  0
VERTEX
  5
2D5
  8
0
  6
BYBLOCK
 62
     0
 10
0.0
 20
0.0
 30
0.0
 70
   128
 71
    62
 72
   -68
 73
    61
  0
VERTEX
  5
2D6
  8
0
  6
BYBLOCK
 62
     0
 10
0.0
 20
0.0
 30
0.0
 70
   128
 71
    69
 72
   -63
 73
    70
  0
VERTEX
  5
2D7
  8
0
  6
BYBLOCK
 62
     0
 10
0.0
 20
0.0
 30
0.0
 70
   128
 71
    64
 72
   -70
 73
    63
  0
VERTEX
  5
2D8
  8
0
  6
BYBLOCK
 62
     0
 10
0.0
 20
0.0
 30
0.0
 70
   128
 71
   -65
 72
   -66
 73
    71
  0
VERTEX
  5
2D9
  8
0
  6
BYBLOCK
 62
     0
 10
0.0
 20
0.0
 30
0.0
 70
   128
 71
   -72
 72
   -71
 73
    66
  0
VERTEX
  5
2DA
  8
0
  6
BYBLOCK
 62
     0
 10
0.0
 20
0.0
 30
0.0
 70
   128
 71
    73
 72
   -67
 73
    74
  0
VERTEX
  5
2DB
  8
0
  6
BYBLOCK
 62
     0
 10
0.0
 20
0.0
 30
0.0
 70
   128
 71
    68
 72
   -74
 73
    67
  0
VERTEX
  5
2DC
  8
0
  6
BYBLOCK
 62
     0
 10
0.0
 20
0.0
 30
0.0
 70
   128
 71
    75
 72
   -69
 73
    76
  0
VERTEX
  5
2DD
  8
0
  6
BYBLOCK
 62
     0
 10
0.0
 20
0.0
 30
0.0
 70
   128
 71
    70
 72
   -76
 73
    69
  0
VERTEX
  5
2DE
  8
0
  6
BYBLOCK
 62
     0
 10
0.0
 20
0.0
 30
0.0
 70
   128
 71
   -71
 72
   -72
 73
    77
  0
VERTEX
  5
2DF
  8
0
  6
BYBLOCK
 62
     0
 10
0.0
 20
0.0
 30
0.0
 70
   128
 71
   -78
 72
   -77
 73
    72
  0
VERTEX
  5
2E0
  8
0
  6
BYBLOCK
 62
     0
 10
0.0
 20
0.0
 30
0.0
 70
   128
 71
    79
 72
   -73
 73
    80
  0
VERTEX
  5
2E1
  8
0
  6
BYBLOCK
 62
     0
 10
0.0
 20
0.0
 30
0.0
 70
   128
 71
    74
 72
   -80
 73
    73
  0
VERTEX
  5
2E2
  8
0
  6
BYBLOCK
 62
     0
 10
0.0
 20
0.0
 30
0.0
 70
   128
 71
    81
 72
   -75
 73
    82
  0
VERTEX
  5
2E3
  8
0
  6
BYBLOCK
 62
     0
 10
0.0
 20
0.0
 30
0.0
 70
   128
 71
    76
 72
   -82
 73
    75
  0
VERTEX
  5
2E4
  8
0
  6
BYBLOCK
 62
     0
 10
0.0
 20
0.0
 30
0.0
 70
   128
 71
   -77
 72
   -78
 73
    83
  0
VERTEX
  5
2E5
  8
0
  6
BYBLOCK
 62
     0
 10
0.0
 20
0.0
 30
0.0
 70
   128
 71
   -84
 72
   -83
 73
    78
  0
VERTEX
  5
2E6
  8
0
  6
BYBLOCK
 62
     0
 10
0.0
 20
0.0
 30
0.0
 70
   128
 71
    85
 72
   -79
 73
    86
  0
VERTEX
  5
2E7
  8
0
  6
BYBLOCK
 62
     0
 10
0.0
 20
0.0
 30
0.0
 70
   128
 71
    80
 72
   -86
 73
    79
  0
VERTEX
  5
2E8
  8
0
  6
BYBLOCK
 62
     0
 10
0.0
 20
0.0
 30
0.0
 70
   128
 71
    87
 72
   -81
 73
    88
  0
VERTEX
  5
2E9
  8
0
  6
BYBLOCK
 62
     0
 10
0.0
 20
0.0
 30
0.0
 70
   128
 71
    82
 72
   -88
 73
    81
  0
VERTEX
  5
2EA
  8
0
  6
BYBLOCK
 62
     0
 10
0.0
 20
0.0
 30
0.0
 70
   128
 71
   -83
 72
   -84
 73
    89
  0
VERTEX
  5
2EB
  8
0
  6
BYBLOCK
 62
     0
 10
0.0
 20
0.0
 30
0.0
 70
   128
 71
   -90
 72
   -89
 73
    84
  0
VERTEX
  5
2EC
  8
0
  6
BYBLOCK
 62
     0
 10
0.0
 20
0.0
 30
0.0
 70
   128
 71
    91
 72
   -85
 73
    92
  0
VERTEX
  5
2ED
  8
0
  6
BYBLOCK
 62
     0
 10
0.0
 20
0.0
 30
0.0
 70
   128
 71
    86
 72
   -92
 73
    85
  0
VERTEX
  5
2EE
  8
0
  6
BYBLOCK
 62
     0
 10
0.0
 20
0.0
 30
0.0
 70
   128
 71
    93
 72
   -87
 73
    94
  0
VERTEX
  5
2EF
  8
0
  6
BYBLOCK
 62
     0
 10
0.0
 20
0.0
 30
0.0
 70
   128
 71
    88
 72
   -94
 73
    87
  0
VERTEX
  5
2F0
  8
0
  6
BYBLOCK
 62
     0
 10
0.0
 20
0.0
 30
0.0
 70
   128
 71
   -89
 72
   -90
 73
    95
  0
VERTEX
  5
2F1
  8
0
  6
BYBLOCK
 62
     0
 10
0.0
 20
0.0
 30
0.0
 70
   128
 71
   -96
 72
   -95
 73
    90
  0
VERTEX
  5
2F2
  8
0
  6
BYBLOCK
 62
     0
 10
0.0
 20
0.0
 30
0.0
 70
   128
 71
    97
 72
   -91
 73
    98
  0
VERTEX
  5
2F3
  8
0
  6
BYBLOCK
 62
     0
 10
0.0
 20
0.0
 30
0.0
 70
   128
 71
    92
 72
   -98
 73
    91
  0
VERTEX
  5
2F4
  8
0
  6
BYBLOCK
 62
     0
 10
0.0
 20
0.0
 30
0.0
 70
   128
 71
    99
 72
   -93
 73
   100
  0
VERTEX
  5
2F5
  8
0
  6
BYBLOCK
 62
     0
 10
0.0
 20
0.0
 30
0.0
 70
   128
 71
    94
 72
  -100
 73
    93
  0
VERTEX
  5
2F6
  8
0
  6
BYBLOCK
 62
     0
 10
0.0
 20
0.0
 30
0.0
 70
   128
 71
   -95
 72
   -96
 73
   101
  0
VERTEX
  5
2F7
  8
0
  6
BYBLOCK
 62
     0
 10
0.0
 20
0.0
 30
0.0
 70
   128
 71
  -102
 72
  -101
 73
    96
  0
VERTEX
  5
2F8
  8
0
  6
BYBLOCK
 62
     0
 10
0.0
 20
0.0
 30
0.0
 70
   128
 71
   103
 72
   -97
 73
   104
  0
VERTEX
  5
2F9
  8
0
  6
BYBLOCK
 62
     0
 10
0.0
 20
0.0
 30
0.0
 70
   128
 71
    98
 72
  -104
 73
    97
  0
VERTEX
  5
2FA
  8
0
  6
BYBLOCK
 62
     0
 10
0.0
 20
0.0
 30
0.0
 70
   128
 71
   105
 72
   -99
 73
   106
  0
VERTEX
  5
2FB
  8
0
  6
BYBLOCK
 62
     0
 10
0.0
 20
0.0
 30
0.0
 70
   128
 71
   100
 72
  -106
 73
    99
  0
VERTEX
  5
2FC
  8
0
  6
BYBLOCK
 62
     0
 10
0.0
 20
0.0
 30
0.0
 70
   128
 71
  -101
 72
  -102
 73
   107
  0
VERTEX
  5
2FD
  8
0
  6
BYBLOCK
 62
     0
 10
0.0
 20
0.0
 30
0.0
 70
   128
 71
  -108
 72
  -107
 73
   102
  0
VERTEX
  5
2FE
  8
0
  6
BYBLOCK
 62
     0
 10
0.0
 20
0.0
 30
0.0
 70
   128
 71
     6
 72
  -103
 73
     8
  0
VERTEX
  5
2FF
  8
0
  6
BYBLOCK
 62
     0
 10
0.0
 20
0.0
 30
0.0
 70
   128
 71
   104
 72
    -8
 73
   103
  0
VERTEX
  5
300
  8
0
  6
BYBLOCK
 62
     0
 10
0.0
 20
0.0
 30
0.0
 70
   128
 71
     2
 72
  -105
 73
     4
  0
VERTEX
  5
301
  8
0
  6
BYBLOCK
 62
     0
 10
0.0
 20
0.0
 30
0.0
 70
   128
 71
   106
 72
    -4
 73
   105
  0
VERTEX
  5
302
  8
0
  6
BYBLOCK
 62
     0
 10
0.0
 20
0.0
 30
0.0
 70
   128
 71
  -107
 72
  -108
 73
     9
  0
VERTEX
  5
303
  8
0
  6
BYBLOCK
 62
     0
 10
0.0
 20
0.0
 30
0.0
 70
   128
 71
   -10
 72
    -9
 73
   108
  0
VERTEX
  5
304
  8
0
  6
BYBLOCK
 62
     0
 10
0.0
 20
0.0
 30
0.0
 70
   128
 71
   109
 72
  -110
 73
   111
  0
VERTEX
  5
305
  8
0
  6
BYBLOCK
 62
     0
 10
0.0
 20
0.0
 30
0.0
 70
   128
 71
   112
 72
  -111
 73
   110
  0
VERTEX
  5
306
  8
0
  6
BYBLOCK
 62
     0
 10
0.0
 20
0.0
 30
0.0
 70
   128
 71
   110
 72
  -113
 73
   112
  0
VERTEX
  5
307
  8
0
  6
BYBLOCK
 62
     0
 10
0.0
 20
0.0
 30
0.0
 70
   128
 71
   114
 72
  -112
 73
   113
  0
VERTEX
  5
308
  8
0
  6
BYBLOCK
 62
     0
 10
0.0
 20
0.0
 30
0.0
 70
   128
 71
   113
 72
  -115
 73
   114
  0
VERTEX
  5
309
  8
0
  6
BYBLOCK
 62
     0
 10
0.0
 20
0.0
 30
0.0
 70
   128
 71
   116
 72
  -114
 73
   115
  0
VERTEX
  5
30A
  8
0
  6
BYBLOCK
 62
     0
 10
0.0
 20
0.0
 30
0.0
 70
   128
 71
   115
 72
  -117
 73
   116
  0
VERTEX
  5
30B
  8
0
  6
BYBLOCK
 62
     0
 10
0.0
 20
0.0
 30
0.0
 70
   128
 71
   118
 72
  -116
 73
   117
  0
VERTEX
  5
30C
  8
0
  6
BYBLOCK
 62
     0
 10
0.0
 20
0.0
 30
0.0
 70
   128
 71
   117
 72
  -119
 73
   118
  0
VERTEX
  5
30D
  8
0
  6
BYBLOCK
 62
     0
 10
0.0
 20
0.0
 30
0.0
 70
   128
 71
   120
 72
  -118
 73
   119
  0
VERTEX
  5
30E
  8
0
  6
BYBLOCK
 62
     0
 10
0.0
 20
0.0
 30
0.0
 70
   128
 71
   119
 72
  -121
 73
   120
  0
VERTEX
  5
30F
  8
0
  6
BYBLOCK
 62
     0
 10
0.0
 20
0.0
 30
0.0
 70
   128
 71
   122
 72
  -120
 73
   121
  0
VERTEX
  5
310
  8
0
  6
BYBLOCK
 62
     0
 10
0.0
 20
0.0
 30
0.0
 70
   128
 71
   121
 72
  -123
 73
   122
  0
VERTEX
  5
311
  8
0
  6
BYBLOCK
 62
     0
 10
0.0
 20
0.0
 30
0.0
 70
   128
 71
   124
 72
  -122
 73
   123
  0
VERTEX
  5
312
  8
0
  6
BYBLOCK
 62
     0
 10
0.0
 20
0.0
 30
0.0
 70
   128
 71
   123
 72
  -125
 73
   124
  0
VERTEX
  5
313
  8
0
  6
BYBLOCK
 62
     0
 10
0.0
 20
0.0
 30
0.0
 70
   128
 71
   126
 72
  -124
 73
   125
  0
VERTEX
  5
314
  8
0
  6
BYBLOCK
 62
     0
 10
0.0
 20
0.0
 30
0.0
 70
   128
 71
   125
 72
  -127
 73
   126
  0
VERTEX
  5
315
  8
0
  6
BYBLOCK
 62
     0
 10
0.0
 20
0.0
 30
0.0
 70
   128
 71
   128
 72
  -126
 73
   127
  0
VERTEX
  5
316
  8
0
  6
BYBLOCK
 62
     0
 10
0.0
 20
0.0
 30
0.0
 70
   128
 71
   127
 72
  -129
 73
   128
  0
VERTEX
  5
317
  8
0
  6
BYBLOCK
 62
     0
 10
0.0
 20
0.0
 30
0.0
 70
   128
 71
   130
 72
  -128
 73
   129
  0
VERTEX
  5
318
  8
0
  6
BYBLOCK
 62
     0
 10
0.0
 20
0.0
 30
0.0
 70
   128
 71
   129
 72
  -131
 73
   130
  0
VERTEX
  5
319
  8
0
  6
BYBLOCK
 62
     0
 10
0.0
 20
0.0
 30
0.0
 70
   128
 71
   132
 72
  -130
 73
   131
  0
VERTEX
  5
31A
  8
0
  6
BYBLOCK
 62
     0
 10
0.0
 20
0.0
 30
0.0
 70
   128
 71
   131
 72
  -133
 73
   132
  0
VERTEX
  5
31B
  8
0
  6
BYBLOCK
 62
     0
 10
0.0
 20
0.0
 30
0.0
 70
   128
 71
   134
 72
  -132
 73
   133
  0
VERTEX
  5
31C
  8
0
  6
BYBLOCK
 62
     0
 10
0.0
 20
0.0
 30
0.0
 70
   128
 71
   133
 72
  -135
 73
   134
  0
VERTEX
  5
31D
  8
0
  6
BYBLOCK
 62
     0
 10
0.0
 20
0.0
 30
0.0
 70
   128
 71
   136
 72
  -134
 73
   135
  0
VERTEX
  5
31E
  8
0
  6
BYBLOCK
 62
     0
 10
0.0
 20
0.0
 30
0.0
 70
   128
 71
   135
 72
  -137
 73
   136
  0
VERTEX
  5
31F
  8
0
  6
BYBLOCK
 62
     0
 10
0.0
 20
0.0
 30
0.0
 70
   128
 71
   138
 72
  -136
 73
   137
  0
VERTEX
  5
320
  8
0
  6
BYBLOCK
 62
     0
 10
0.0
 20
0.0
 30
0.0
 70
   128
 71
   137
 72
  -139
 73
   138
  0
VERTEX
  5
321
  8
0
  6
BYBLOCK
 62
     0
 10
0.0
 20
0.0
 30
0.0
 70
   128
 71
   140
 72
  -138
 73
   139
  0
VERTEX
  5
322
  8
0
  6
BYBLOCK
 62
     0
 10
0.0
 20
0.0
 30
0.0
 70
   128
 71
   139
 72
  -141
 73
   140
  0
VERTEX
  5
323
  8
0
  6
BYBLOCK
 62
     0
 10
0.0
 20
0.0
 30
0.0
 70
   128
 71
   142
 72
  -140
 73
   141
  0
VERTEX
  5
324
  8
0
  6
BYBLOCK
 62
     0
 10
0.0
 20
0.0
 30
0.0
 70
   128
 71
   141
 72
  -143
 73
   142
  0
VERTEX
  5
325
  8
0
  6
BYBLOCK
 62
     0
 10
0.0
 20
0.0
 30
0.0
 70
   128
 71
   144
 72
  -142
 73
   143
  0
VERTEX
  5
326
  8
0
  6
BYBLOCK
 62
     0
 10
0.0
 20
0.0
 30
0.0
 70
   128
 71
   143
 72
  -109
 73
   144
  0
VERTEX
  5
327
  8
0
  6
BYBLOCK
 62
     0
 10
0.0
 20
0.0
 30
0.0
 70
   128
 71
   111
 72
  -144
 73
   109
  0
SEQEND
  5
328
  8
0
  6
BYBLOCK
 62
     0
  0
INSERT
  5
32B
  8
ASHADE
 62
     1
  2
AVE_RENDER
 10
0.0
 20
0.0
 30
0.0
1001
AVE_RENDER
1002
{
1070
     3
1000
Pref
1070
    50
1070
    20
1070
     1
1070
     0
1000

1070
    10
1070
     1
1070
    30
1040
1.0
1070
     1
1040
0.3
1040
0.7
1040
0.0
1040
10.0
1010
-1.0
1020
-1.0
1030
-1.0
1040
0.3
1070
    49
1070
     0
1070
     0
1002
}
  0
INSERT
  5
32C
  8
ASHADE
 62
     3
  2
AVE_RENDER
 10
0.0
 20
0.0
 30
0.0
1001
AVE_RENDER
1002
{
1070
     0
1000
Full Opt
1070
     0
1070
     1
1070
     1
1070
     1
1070
     0
1070
     0
1070
     0
1070
     1
1070
     1
1040
0.0001
1040
0.0001
1002
}
  0
INSERT
  5
32D
  8
ASHADE
 62
     4
  2
AVE_RENDER
 10
0.0
 20
0.0
 30
0.0
1001
AVE_RENDER
1002
{
1070
     0
1000
Quick Opt
1070
     0
1070
     1
1070
     1
1070
     1
1070
     0
1070
     0
1070
     1
1002
}
  0
INSERT
  5
32E
  8
ASHADE
 62
     5
  2
AVE_RENDER
 10
0.0
 20
0.0
 30
0.0
1001
AVE_RENDER
1002
{
1070
     0
1000
Scanl Opt
1070
     2
1070
     0
1070
     2
1040
2.0
1040
4.0
1070
     0
1070
     1
1002
}
  0
INSERT
  5
32F
  8
ASHADE
 62
     6
  2
AVE_RENDER
 10
0.0
 20
0.0
 30
0.0
1001
AVE_RENDER
1002
{
1070
     1
1000
Raytr Opt
1070
     2
1070
     0
1070
     2
1040
2.0
1040
4.0
1070
     0
1070
     1
1070
     3
1002
}
  0
INSERT
  5
332
  8
ASHADE
 62
     1
  2
AVE_GLOBAL
 10
0.0
 20
0.0
 30
0.0
1001
AVE_MATERIAL
1002
{
1000
*GLOBAL*
1000

1000
Global finish.
1002
{
1002
}
1002
{
1070
    63
1002
{
1002
{
1010
0.0
1020
0.0
1030
0.0
1002
}
1040
1.0
1000

1040
0.0
1002
{
1002
}
1040
0.0
1002
{
1002
}
1040
0.0
1002
}
1002
{
1002
{
1010
-1.0
1020
-1.0
1030
-1.0
1002
}
1040
1.0
1000

1040
0.0
1002
{
1002
}
1040
0.0
1002
{
1002
}
1040
0.0
1002
}
1002
{
1002
{
1010
1.0
1020
1.0
1030
1.0
1002
}
1040
1.0
1000

1040
0.0
1002
{
1002
}
1040
0.0
1002
{
1002
}
1040
0.0
1002
}
1002
{
1070
     0
1002
{
1070
     1
1002
{
1040
1.0
1040
1.0
1000

1040
0.0
1002
{
1002
}
1040
0.0
1002
{
1002
}
1040
0.0
1002
}
1002
}
1040
1.0
1040
0.0
1040
0.0
1002
}
1002
{
1040
1.0
1040
1.0
1000

1040
0.0
1002
{
1002
}
1040
0.0
1002
{
1002
}
1040
0.0
1002
}
1002
{
1040
0.5
1040
1.0
1000

1040
0.0
1002
{
1002
}
1040
0.0
1002
{
1002
}
1040
0.0
1002
}
1002
{
1070
     0
1040
0.0
1002
{
1002
}
1040
1.0
1002
{
1002
}
1040
0.0
1002
}
1002
{
1040
0.0
1002
{
1002
{
1010
0.0
1020
0.0
1030
0.0
1002
}
1040
1.0
1000

1040
0.0
1002
{
1002
}
1040
0.0
1002
{
1002
}
1040
0.0
1002
}
1002
}
1002
{
1002
{
1070
     1
1002
{
1040
0.0
1040
1.0
1000

1040
0.0
1002
{
1002
}
1040
0.0
1002
{
1002
}
1040
0.0
1002
}
1002
}
1040
0.0
1002
{
1002
}
1010
1.0
1020
0.0
1030
0.0
1010
0.0
1020
1.0
1030
0.0
1010
0.0
1020
0.0
1030
1.0
1070
     0
1002
}
1002
{
1002
{
1040
1.0
1040
1.0
1002
{
1070
     1
1002
{
1040
1.0
1040
1.0
1000

1040
0.0
1002
{
1002
}
1040
0.0
1002
{
1002
}
1040
0.0
1002
}
1002
}
1002
}
1070
     0
1040
0.0
1002
{
1002
}
1002
}
1002
{
1002
}
1002
}
1002
{
1071
        0
1070
     3
1070
     0
1002
{
1070
     2
1070
     0
1070
     0
1040
0.0
1002
}
1070
     0
1070
     2
1002
{
1002
}
1002
}
1002
}
  0
INSERT
  5
38C
  8
ASHADE
 66
     1
  2
RM_SDB
 10
0.0
 20
0.0
 30
0.0
1001
AVE_MATERIAL
1002
{
1000
DIRT
1000
0.11
1000

1002
{
1002
}
1002
{
1070
    39
1002
{
1002
{
1010
0.2980392277240753
1020
0.1098039224743843
1030
0.0431372560560703
1002
}
1040
1.0
1000

1040
0.0
1002
{
1002
}
1040
0.0
1002
{
1002
}
1040
0.0
1002
}
1002
{
1002
{
1010
0.2980392277240753
1020
0.1098039224743843
1030
0.0431372560560703
1002
}
1040
1.0
1000

1040
0.0
1002
{
1002
}
1040
0.0
1002
{
1002
}
1040
0.0
1002
}
1002
{
1002
{
1010
0.2980392277240753
1020
0.1098039224743843
1030
0.0431372560560703
1002
}
1040
1.0
1000

1040
0.0
1002
{
1002
}
1040
0.0
1002
{
1002
}
1040
0.0
1002
}
1002
{
1070
     0
1002
{
1070
     1
1002
{
1040
1.0
1040
1.0
1000

1040
0.0
1002
{
1002
}
1040
0.0
1002
{
1002
}
1040
0.0
1002
}
1002
}
1040
0.0
1040
0.0
1040
0.0
1002
}
1002
{
1040
0.0
1040
0.0
1000

1040
0.0
1002
{
1002
}
1040
0.0
1002
{
1002
}
1040
0.0
1002
}
1002
{
1040
1.0
1040
1.0
1000

1040
0.0
1002
{
1002
}
1040
0.0
1002
{
1002
}
1040
0.0
1002
}
1002
{
1070
     0
1040
0.0
1002
{
1002
}
1040
0.0
1002
{
1002
}
1040
0.0
1002
}
1002
{
1040
0.0
1002
{
1002
{
1010
0.0
1020
0.0
1030
0.0
1002
}
1040
0.0
1000

1040
0.0
1002
{
1002
}
1040
0.0
1002
{
1002
}
1040
0.0
1002
}
1002
}
1002
{
1002
{
1070
     1
1002
{
1040
1.0
1040
1.0
1000

1040
0.0
1002
{
1002
}
1040
0.0
1002
{
1002
}
1040
0.0
1002
}
1002
}
1040
0.0
1002
{
1002
}
1010
0.0
1020
0.0
1030
0.0
1010
0.0
1020
0.0
1030
0.0
1010
0.0
1020
0.0
1030
0.0
1070
     0
1002
}
1002
{
1002
{
1040
0.0
1040
0.0
1002
{
1070
     0
1002
}
1002
}
1070
     0
1040
0.0
1002
{
1002
}
1002
}
1002
{
1002
}
1002
}
1002
{
1071
        0
1070
     3
1070
     0
1002
{
1070
     2
1070
     1
1070
     0
1040
0.0
1002
}
1070
     0
1070
     0
1002
{
1002
}
1002
}
1002
}
  0
ATTRIB
  5
38D
  8
ASHADE
  6
CONTINUOUS
 62
     1
 10
-0.3047619047619046
 20
-0.15
 30
0.0
 40
0.2
  1
DIRT
  7
ASHADE
 72
     1
 11
0.0000000000000001
 21
-0.15
 31
0.0
  2
NAME
 70
     0
  0
ATTRIB
  5
38E
  8
ASHADE
  6
CONTINUOUS
 62
     1
 10
0.2300000000000001
 20
-0.4750000000000001
 30
0.0000000000000002
 40
0.1000000000000001
  1

  7
ASHADE
  2
ACADCOLOR
 70
     0
  0
ATTRIB
  5
38F
  8
ASHADE
  6
CONTINUOUS
 62
     7
 10
-0.1499999999999999
 20
-0.19
 30
0.0
 40
0.01
  1
0.2980,0.1098,0.0431
  7
STANDARD
  2
COLOR
 70
     1
  0
ATTRIB
  5
390
  8
ASHADE
  6
CONTINUOUS
 62
     7
 10
-0.1499999999999999
 20
-0.205
 30
0.0
 40
0.01
  1
1.0,1.0,1.0
  7
STANDARD
  2
OPACITY
 70
     1
  0
ATTRIB
  5
391
  8
ASHADE
  6
CONTINUOUS
 62
     7
 10
-0.1499999999999999
 20
-0.22
 30
0.0
 40
0.01
  1
("nullsurf" "")
  7
STANDARD
  2
SURFACE
 70
     1
  0
ATTRIB
  5
392
  8
ASHADE
  6
CONTINUOUS
 62
     7
 10
-0.1499999999999999
 20
-0.235
 30
0.0
 40
0.01
  1
(11 "Ka" "1")(11 "Kd" "1")(11 "Ks" "1")(11 "roughness" "1")
  7
STANDARD
  2
SURF1
 70
     1
  0
ATTRIB
  5
393
  8
ASHADE
  6
CONTINUOUS
 62
     7
 10
-0.1499999999999999
 20
-0.25
 30
0.0
 40
0.01
  1

  7
STANDARD
  2
SURF2
 70
     1
  0
ATTRIB
  5
394
  8
ASHADE
  6
CONTINUOUS
 62
     7
 10
-0.1499999999999999
 20
-0.265
 30
0.0
 40
0.01
  1

  7
STANDARD
  2
SURF3
 70
     1
  0
ATTRIB
  5
395
  8
ASHADE
  6
CONTINUOUS
 62
     7
 10
-0.1499999999999999
 20
-0.2799999999999999
 30
0.0
 40
0.01
  1

  7
STANDARD
  2
SURF4
 70
     1
  0
ATTRIB
  5
396
  8
ASHADE
  6
CONTINUOUS
 62
     7
 10
-0.1499999999999999
 20
-0.295
 30
0.0
 40
0.01
  1
-1.0
  7
STANDARD
  2
SHADINGRATE
 70
     1
  0
ATTRIB
  5
397
  8
ASHADE
  6
CONTINUOUS
 62
     7
 10
-0.1499999999999999
 20
-0.31
 30
0.0
 40
0.01
  1
("nulldisp" "")
  7
STANDARD
  2
DISPLACEMENT
 70
     1
  0
ATTRIB
  5
398
  8
ASHADE
  6
CONTINUOUS
 62
     7
 10
-0.1499999999999999
 20
-0.325
 30
0.0
 40
0.01
  1

  7
STANDARD
  2
DISP1
 70
     1
  0
ATTRIB
  5
399
  8
ASHADE
  6
CONTINUOUS
 62
     7
 10
-0.1499999999999999
 20
-0.34
 30
0.0
 40
0.01
  1

  7
STANDARD
  2
DISP2
 70
     1
  0
ATTRIB
  5
39A
  8
ASHADE
  6
CONTINUOUS
 62
     7
 10
-0.1499999999999999
 20
-0.355
 30
0.0
 40
0.01
  1

  7
STANDARD
  2
DISP3
 70
     1
  0
ATTRIB
  5
39B
  8
ASHADE
  6
CONTINUOUS
 62
     7
 10
-0.1499999999999999
 20
-0.3699999999999999
 30
0.0
 40
0.01
  1

  7
STANDARD
  2
DISP4
 70
     1
  0
ATTRIB
  5
39C
  8
ASHADE
  6
CONTINUOUS
 62
     7
 10
-0.1499999999999999
 20
-0.3849999999999998
 30
0.0
 40
0.01
  1
0.0
  7
STANDARD
  2
DBOUND
 70
     1
  0
ATTRIB
  5
39D
  8
ASHADE
  6
CONTINUOUS
 62
     7
 10
-0.1499999999999999
 20
-0.4
 30
0.0
 40
0.01
  1
0
  7
STANDARD
  2
SMOOTH
 70
     1
  0
ATTRIB
  5
39E
  8
ASHADE
  6
CONTINUOUS
 62
     7
 10
-0.1499999999999999
 20
-0.415
 30
0.0
 40
0.01
  1
("" "")
  7
STANDARD
  2
ATMOSPHERE
 70
     1
  0
ATTRIB
  5
39F
  8
ASHADE
  6
CONTINUOUS
 62
     7
 10
-0.15
 20
-0.4302404735808357
 30
0.0
 40
0.01
  1

  7
STANDARD
  2
ATMO1
 70
     1
  0
ATTRIB
  5
3A0
  8
ASHADE
  6
CONTINUOUS
 62
     7
 10
-0.15
 20
-0.4452404735808357
 30
0.0
 40
0.01
  1

  7
STANDARD
  2
ATMO2
 70
     1
  0
ATTRIB
  5
3A1
  8
ASHADE
  6
CONTINUOUS
 62
     7
 10
-0.15
 20
-0.4602404735808357
 30
0.0
 40
0.01
  1

  7
STANDARD
  2
ATMO3
 70
     1
  0
ATTRIB
  5
3A2
  8
ASHADE
  6
CONTINUOUS
 62
     7
 10
-0.15
 20
-0.4752404735808357
 30
0.0
 40
0.01
  1

  7
STANDARD
  2
ATMO4
 70
     1
  0
ATTRIB
  5
3A3
  8
ASHADE
  6
CONTINUOUS
 62
     7
 10
-0.1499999999999999
 20
-0.49
 30
0.0
 40
0.01
  1
0.0 0.0 1.0 0.0 0.0 1.0 1.0 1.0
  7
STANDARD
  2
TCOORD
 70
     1
  0
SEQEND
  5
3A4
  8
ASHADE
  0
POLYLINE
  5
3D9
  8
_KTI_CONTROL
 10
0.0
 20
0.0
 30
0.0
 66
     1
 70
     8
1001
_KTI_ARCHT
1070
 12000
1000
ENVIRONMENT
1070
 10003
1000
02zptr01
1070
 20000
1000
standard
1070
 20001
1000
c:\program files\ketiv\archt
1070
 20003
1000
d:\archt
1070
 20002
1000
c:\program files\ketiv\archt\tmp
1070
 20004
1002
{
1000
c:\program files\ketiv\archt\blks
1000
c:\program files\ketiv\archt\blks3d
1000
e:\archt\blks
1000
e:\archt\blks3d
1000
d:\archt\blks
1000
d:\archt\blks3d
1002
}
1070
 20005
1002
{
1000
c:\program files\ketiv\archt\slds
1002
}
1070
 20006
1002
{
1000
c:\program files\ketiv\archt\dclswin
1002
}
1070
 20007
1002
{
1000
c:\program files\ketiv\archt\docs
1000
e:\archt\docs
1000
d:\archt\docs
1002
}
1070
 20008
1002
{
1000
c:\program files\ketiv\archt\help
1002
}
  0
VERTEX
  5
3DA
  8
_KTI_CONTROL
 10
0.0
 20
0.0
 30
0.0
 70
    32
  0
VERTEX
  5
3DB
  8
_KTI_CONTROL
 10
0.0
 20
0.0
 30
0.0
 70
    32
  0
SEQEND
  5
3DC
  8
_KTI_CONTROL
  0
POLYLINE
  5
3DD
  8
_KTI_CONTROL
 10
0.0
 20
0.0
 30
0.0
 66
     1
 70
     8
1001
_KTI_ARCHT
1070
 12000
1000
ARCHTVARS
1070
 10003
1000
02zptr01
1070
 12030
1000
m
1070
 12020
1070
     1
1070
 12021
1070
     0
1070
 12070
1070
     0
1070
 12071
1070
     1
1070
 12907
1070
     0
1070
 12913
1070
     1
1070
 12914
1070
     1
1070
 12072
1070
     2
1070
 12073
1070
    48
1070
 12074
1070
     0
1070
 12080
1070
     1
1070
 12092
1070
     1
1070
 12096
1070
     0
1070
 12095
1070
     0
1070
 12081
1070
     1
1070
 12082
1070
     1
1070
 12083
1070
     1
1070
 12084
1070
     1
1070
 12085
1070
     0
1070
 12086
1070
     1
1070
 12087
1070
     0
1070
 12088
1070
     0
1070
 12097
1070
     1
1070
 12089
1070
     4
1070
 12090
1070
     6
1070
 12091
1070
     1
1070
 12045
1000

1070
 12046
1000

1070
 12047
1000
standard
1070
 12048
1000

1070
 12049
1000

1070
 12093
1070
     1
1070
 12094
1070
     1
1070
 12908
1070
     0
1070
 12909
1070
     0
1070
 12911
1070
     0
1070
 12910
1070
     0
1070
 12912
1070
     0
1070
 12098
1070
   800
1070
 12060
1002
{
1000

1000

1000

1000

1002
}
1070
 12904
1002
{
1070
     0
1070
     0
1070
     0
1070
     0
1070
     0
1002
}
1070
 12905
1002
{
1040
0.0
1040
0.0
1040
0.0
1040
0.0
1040
0.0
1002
}
1070
 12906
1002
{
1000

1000

1000

1000

1000

1002
}
1070
 12040
1002
{
1002
}
  0
VERTEX
  5
3DE
  8
_KTI_CONTROL
 10
0.0
 20
0.0
 30
0.0
 70
    32
  0
VERTEX
  5
3DF
  8
_KTI_CONTROL
 10
0.0
 20
0.0
 30
0.0
 70
    32
  0
SEQEND
  5
3E0
  8
_KTI_CONTROL
  0
ENDSEC
  0
EOF
