  0
SECTION
  2
HEADER
  9
$ACADVER
  1
AC1009
  9
$DWGCODEPAGE
  3
ansi_1252
  9
$INSBASE
 10
0.0
 20
0.0
 30
0.0
  9
$EXTMIN
 10
0.6327572785327809
 20
0.5769592488408684
 30
0.0
  9
$EXTMAX
 10
11.01013162985058
 20
5.690732302850819
 30
0.0
  9
$LIMMIN
 10
0.0
 20
0.0
  9
$LIMMAX
 10
4.0
 20
3.0
  9
$ORTHOMODE
 70
     0
  9
$REGENMODE
 70
     1
  9
$FILLMODE
 70
     1
  9
$QTEXTMODE
 70
     0
  9
$MIRRTEXT
 70
     1
  9
$DRAGMODE
 70
     2
  9
$LTSCALE
 40
1.0
  9
$OSMODE
 70
    37
  9
$ATTMODE
 70
     1
  9
$TEXTSIZE
 40
0.2
  9
$TRACEWID
 40
0.05
  9
$TEXTSTYLE
  7
STANDARD
  9
$CLAYER
  8
LAYOUT
  9
$CELTYPE
  6
BYLAYER
  9
$CECOLOR
 62
   256
  9
$DIMSCALE
 40
1.0
  9
$DIMASZ
 40
0.18
  9
$DIMEXO
 40
0.0625
  9
$DIMDLI
 40
0.38
  9
$DIMRND
 40
0.0
  9
$DIMDLE
 40
0.0
  9
$DIMEXE
 40
0.18
  9
$DIMTP
 40
0.0
  9
$DIMTM
 40
0.0
  9
$DIMTXT
 40
0.18
  9
$DIMCEN
 40
0.09
  9
$DIMTSZ
 40
0.0
  9
$DIMTOL
 70
     0
  9
$DIMLIM
 70
     0
  9
$DIMTIH
 70
     1
  9
$DIMTOH
 70
     1
  9
$DIMSE1
 70
     0
  9
$DIMSE2
 70
     0
  9
$DIMTAD
 70
     0
  9
$DIMZIN
 70
     0
  9
$DIMBLK
  1

  9
$DIMASO
 70
     1
  9
$DIMSHO
 70
     1
  9
$DIMPOST
  1

  9
$DIMAPOST
  1

  9
$DIMALT
 70
     0
  9
$DIMALTD
 70
     2
  9
$DIMALTF
 40
25.4
  9
$DIMLFAC
 40
1.0
  9
$DIMTOFL
 70
     0
  9
$DIMTVP
 40
0.0
  9
$DIMTIX
 70
     0
  9
$DIMSOXD
 70
     0
  9
$DIMSAH
 70
     0
  9
$DIMBLK1
  1

  9
$DIMBLK2
  1

  9
$DIMSTYLE
  2
STANDARD
  9
$DIMCLRD
 70
     0
  9
$DIMCLRE
 70
     0
  9
$DIMCLRT
 70
     0
  9
$DIMTFAC
 40
1.0
  9
$DIMGAP
 40
0.09
  9
$LUNITS
 70
     2
  9
$LUPREC
 70
     4
  9
$SKETCHINC
 40
0.1
  9
$FILLETRAD
 40
0.0
  9
$AUNITS
 70
     0
  9
$AUPREC
 70
     0
  9
$MENU
  1
.
  9
$ELEVATION
 40
0.0
  9
$PELEVATION
 40
0.0
  9
$THICKNESS
 40
0.0
  9
$LIMCHECK
 70
     0
  9
$CHAMFERA
 40
0.0
  9
$CHAMFERB
 40
0.0
  9
$SKPOLY
 70
     0
  9
$TDCREATE
 40
2450256.426998611
  9
$TDUPDATE
 40
2458028.605706018
  9
$TDINDWG
 40
0.0006198958
  9
$TDUSRTIMER
 40
0.0006198958
  9
$USRTIMER
 70
     1
  9
$ANGBASE
 50
0.0
  9
$ANGDIR
 70
     0
  9
$PDMODE
 70
     0
  9
$PDSIZE
 40
0.0
  9
$PLINEWID
 40
0.0
  9
$COORDS
 70
     1
  9
$SPLFRAME
 70
     0
  9
$SPLINETYPE
 70
     6
  9
$SPLINESEGS
 70
     8
  9
$ATTDIA
 70
     0
  9
$ATTREQ
 70
     1
  9
$HANDLING
 70
     1
  9
$HANDSEED
  5
290
  9
$SURFTAB1
 70
     6
  9
$SURFTAB2
 70
     6
  9
$SURFTYPE
 70
     6
  9
$SURFU
 70
     6
  9
$SURFV
 70
     6
  9
$UCSNAME
  2

  9
$UCSORG
 10
0.0
 20
0.0
 30
0.0
  9
$UCSXDIR
 10
1.0
 20
0.0
 30
0.0
  9
$UCSYDIR
 10
0.0
 20
1.0
 30
0.0
  9
$PUCSNAME
  2

  9
$PUCSORG
 10
0.0
 20
0.0
 30
0.0
  9
$PUCSXDIR
 10
1.0
 20
0.0
 30
0.0
  9
$PUCSYDIR
 10
0.0
 20
1.0
 30
0.0
  9
$USERI1
 70
     0
  9
$USERI2
 70
     0
  9
$USERI3
 70
     0
  9
$USERI4
 70
     0
  9
$USERI5
 70
     0
  9
$USERR1
 40
0.0
  9
$USERR2
 40
0.0
  9
$USERR3
 40
0.0
  9
$USERR4
 40
0.0
  9
$USERR5
 40
0.0
  9
$WORLDVIEW
 70
     1
  9
$SHADEDGE
 70
     3
  9
$SHADEDIF
 70
    70
  9
$TILEMODE
 70
     1
  9
$MAXACTVP
 70
    16
  9
$PLIMCHECK
 70
     0
  9
$PEXTMIN
 10
1.000000000000000E+20
 20
1.000000000000000E+20
 30
1.000000000000000E+20
  9
$PEXTMAX
 10
-1.000000000000000E+20
 20
-1.000000000000000E+20
 30
-1.000000000000000E+20
  9
$PLIMMIN
 10
0.0
 20
0.0
  9
$PLIMMAX
 10
12.0
 20
9.0
  9
$UNITMODE
 70
     0
  9
$VISRETAIN
 70
     0
  9
$PLINEGEN
 70
     0
  9
$PSLTSCALE
 70
     1
  0
ENDSEC
  0
SECTION
  2
TABLES
  0
TABLE
  2
VPORT
 70
     1
  0
VPORT
  2
*ACTIVE
 70
     0
 10
0.0
 20
0.0
 11
1.0
 21
1.0
 12
2.750457038391226
 22
1.829323583180988
 13
0.0
 23
0.0
 14
1.0
 24
1.0
 15
0.0
 25
0.0
 16
0.0
 26
0.0
 36
1.0
 17
0.0
 27
0.0
 37
0.0
 40
3.65889070448041
 41
1.503537735849057
 42
50.0
 43
0.0
 44
0.0
 50
0.0
 51
0.0
 71
     0
 72
   100
 73
     1
 74
     1
 75
     0
 76
     0
 77
     0
 78
     0
  0
ENDTAB
  0
TABLE
  2
LTYPE
 70
     1
  0
LTYPE
  2
CONTINUOUS
 70
     0
  3
Solid line
 72
    65
 73
     0
 40
0.0
  0
ENDTAB
  0
TABLE
  2
LAYER
 70
     2
  0
LAYER
  2
0
 70
     0
 62
     7
  6
CONTINUOUS
  0
LAYER
  2
LAYOUT
 70
     0
 62
     4
  6
CONTINUOUS
  0
ENDTAB
  0
TABLE
  2
STYLE
 70
     1
  0
STYLE
  2
STANDARD
 70
     0
 40
0.0
 41
1.0
 50
0.0
 71
     0
 42
0.2
  3
txt
  4

  0
ENDTAB
  0
TABLE
  2
VIEW
 70
     0
  0
ENDTAB
  0
TABLE
  2
UCS
 70
     0
  0
ENDTAB
  0
TABLE
  2
APPID
 70
     2
  0
APPID
  2
ACAD
 70
     0
  0
APPID
  2
DCO15
 70
     0
  0
ENDTAB
  0
TABLE
  2
DIMSTYLE
 70
     1
  0
DIMSTYLE
  2
STANDARD
 70
     0
  3

  4

  5

  6

  7

 40
1.0
 41
0.18
 42
0.0625
 43
0.38
 44
0.18
 45
0.0
 46
0.0
 47
0.0
 48
0.0
140
0.18
141
0.09
142
0.0
143
25.4
144
1.0
145
0.0
146
1.0
147
0.09
 71
     0
 72
     0
 73
     1
 74
     1
 75
     0
 76
     0
 77
     0
 78
     0
170
     0
171
     2
172
     0
173
     0
174
     0
175
     0
176
     0
177
     0
178
     0
  0
ENDTAB
  0
ENDSEC
  0
SECTION
  2
BLOCKS
  0
BLOCK
  8
0
  2
$MODEL_SPACE
 70
     0
 10
0.0
 20
0.0
 30
0.0
  3
$MODEL_SPACE
  1

  0
ENDBLK
  5
1C
  8
0
  0
BLOCK
 67
     1
  8
0
  2
$PAPER_SPACE
 70
     0
 10
0.0
 20
0.0
 30
0.0
  3
$PAPER_SPACE
  1

  0
ENDBLK
  5
19
 67
     1
  8
0
  0
ENDSEC
  0
SECTION
  2
ENTITIES
  0
POLYLINE
  5
40
  8
0
 62
     0
 66
     1
 10
0.0
 20
0.0
 30
0.0
  0
VERTEX
  5
281
  8
0
 62
     0
 10
8.779621745599911
 20
5.668232302850819
 30
0.0
  0
VERTEX
  5
282
  8
0
 62
     0
 10
8.779621745599911
 20
5.668232302850819
 30
0.0
  0
SEQEND
  5
28B
  8
0
 62
     0
  0
POLYLINE
  5
4B
  8
0
 62
     0
 66
     1
 10
0.0
 20
0.0
 30
0.0
  0
VERTEX
  5
283
  8
0
 62
     0
 10
9.80358603551229
 20
5.668232302850819
 30
0.0
  0
VERTEX
  5
284
  8
0
 62
     0
 10
9.80358603551229
 20
5.668232302850819
 30
0.0
  0
SEQEND
  5
28C
  8
0
 62
     0
  0
POLYLINE
  5
4E
  8
0
 62
     0
 66
     1
 10
0.0
 20
0.0
 30
0.0
  0
VERTEX
  5
285
  8
0
 62
     0
 10
10.93936250920003
 20
5.690732302850819
 30
0.0
  0
VERTEX
  5
286
  8
0
 62
     0
 10
10.93936250920003
 20
5.690732302850819
 30
0.0
  0
SEQEND
  5
28D
  8
0
 62
     0
  0
POLYLINE
  5
5F
  8
0
 62
     0
 66
     1
 10
0.0
 20
0.0
 30
0.0
  0
VERTEX
  5
287
  8
0
 62
     0
 10
9.338481531545176
 20
3.486493280542335
 30
0.0
  0
VERTEX
  5
288
  8
0
 62
     0
 10
9.338481531545176
 20
3.486493280542335
 30
0.0
  0
SEQEND
  5
28E
  8
0
 62
     0
  0
POLYLINE
  5
72
  8
0
 62
     0
 66
     1
 10
0.0
 20
0.0
 30
0.0
  0
VERTEX
  5
289
  8
0
 62
     0
 10
11.01013162985058
 20
3.486493280542335
 30
0.0
  0
VERTEX
  5
28A
  8
0
 62
     0
 10
11.01013162985058
 20
3.486493280542335
 30
0.0
  0
SEQEND
  5
28F
  8
0
 62
     0
  0
LINE
  5
D8
  8
0
 62
     0
 10
3.12431540053638
 20
0.8677743142648882
 30
0.0
 11
3.12431540053638
 21
1.967774245514888
 31
0.0
  0
LINE
  5
D9
  8
0
 62
     0
 10
0.9243155380363828
 20
0.8677743142648882
 30
0.0
 11
0.9243155380363808
 21
1.967774245514888
 31
0.0
  0
LINE
  5
DA
  8
0
 62
     0
 10
3.12431540053638
 20
0.8677743142648882
 30
0.0
 11
0.9243155380363828
 21
0.8677743142648882
 31
0.0
  0
LINE
  5
DB
  8
0
 62
     0
 10
3.12431540053638
 20
1.967774245514888
 30
0.0
 11
0.9243155380363808
 21
1.967774245514888
 31
0.0
  0
LINE
  5
128
  8
0
 62
     0
 10
3.254115355202334
 20
1.21457169037125
 30
0.0
 11
2.999115371139833
 21
1.21457169037125
 31
0.0
  0
LINE
  5
129
  8
0
 62
     0
 10
3.254115355202334
 20
1.62457166474625
 30
0.0
 11
2.999115371139833
 21
1.62457166474625
 31
0.0
  0
ARC
  5
12A
  8
0
 62
     0
 10
2.999115371139833
 20
1.234571689121251
 30
0.0
 40
0.01999999875
 50
180.0
 51
270.0
  0
ARC
  5
12B
  8
0
 62
     0
 10
2.999115371139833
 20
1.604571665996252
 30
0.0
 40
0.01999999875
 50
90.0
 51
180.0
  0
LINE
  5
12C
  8
0
 62
     0
 10
2.979115372389834
 20
1.604571665996252
 30
0.0
 11
2.979115372389834
 21
1.234571689121251
 31
0.0
  0
ARC
  5
12D
  8
0
 62
     0
 10
3.254115355202334
 20
1.419571677558749
 30
0.0
 40
0.2049999871875001
 50
270.0
 51
90.0
  0
ARC
  5
12E
  8
0
 62
     0
 10
3.254115355202334
 20
1.419571677558749
 30
0.0
 40
0.2249999859375001
 50
270.0
 51
90.0
  0
LINE
  5
12F
  8
0
 62
     0
 10
3.254115355202334
 20
1.64457166349625
 30
0.0
 11
3.254115355202334
 21
1.62457166474625
 31
0.0
  0
LINE
  5
130
  8
0
 62
     0
 10
3.254115355202334
 20
1.21457169037125
 30
0.0
 11
3.254115355202334
 21
1.194571691621253
 31
0.0
  0
LINE
  5
131
  8
0
 62
     0
 10
0.8577572644702809
 20
1.622774267077387
 30
0.0
 11
1.112757248532782
 21
1.622774267077387
 31
0.0
  0
LINE
  5
132
  8
0
 62
     0
 10
0.8577572644702809
 20
1.212774292702389
 30
0.0
 11
1.112757248532782
 21
1.212774292702389
 31
0.0
  0
ARC
  5
133
  8
0
 62
     0
 10
1.112757248532782
 20
1.602774268327389
 30
0.0
 40
0.01999999875
 50
0.0
 51
90.0
  0
ARC
  5
134
  8
0
 62
     0
 10
1.112757248532782
 20
1.232774291452386
 30
0.0
 40
0.01999999875
 50
270.0
 51
0.0
  0
LINE
  5
135
  8
0
 62
     0
 10
1.132757247282781
 20
1.232774291452386
 30
0.0
 11
1.132757247282781
 21
1.602774268327389
 31
0.0
  0
ARC
  5
136
  8
0
 62
     0
 10
0.8577572644702809
 20
1.417774279889888
 30
0.0
 40
0.2049999871875001
 50
90.0
 51
270.0
  0
ARC
  5
137
  8
0
 62
     0
 10
0.8577572644702809
 20
1.417774279889888
 30
0.0
 40
0.2249999859375001
 50
90.0
 51
270.0
  0
LINE
  5
138
  8
0
 62
     0
 10
0.8577572644702809
 20
1.192774293952388
 30
0.0
 11
0.8577572644702809
 21
1.212774292702389
 31
0.0
  0
LINE
  5
139
  8
0
 62
     0
 10
1.583164721835768
 20
2.084611137014825
 30
0.0
 11
1.583164721835768
 21
1.829611152952324
 31
0.0
  0
LINE
  5
13A
  8
0
 62
     0
 10
1.173164747460766
 20
2.084611137014825
 30
0.0
 11
1.173164747460766
 21
1.829611152952324
 31
0.0
  0
ARC
  5
13B
  8
0
 62
     0
 10
1.563164723085769
 20
1.829611152952324
 30
0.0
 40
0.01999999875
 50
270.0
 51
0.0
  0
ARC
  5
13C
  8
0
 62
     0
 10
1.193164746210767
 20
1.829611152952324
 30
0.0
 40
0.01999999875
 50
180.0
 51
270.0
  0
LINE
  5
13D
  8
0
 62
     0
 10
1.193164746210767
 20
1.809611154202325
 30
0.0
 11
1.563164723085769
 21
1.809611154202325
 31
0.0
  0
ARC
  5
13E
  8
0
 62
     0
 10
1.378164734648267
 20
2.084611137014825
 30
0.0
 40
0.2049999871875001
 50
0.0
 51
180.0
  0
ARC
  5
13F
  8
0
 62
     0
 10
1.378164734648267
 20
2.084611137014825
 30
0.0
 40
0.2249999859375001
 50
0.0
 51
180.0
  0
LINE
  5
140
  8
0
 62
     0
 10
1.153164748710767
 20
2.084611137014825
 30
0.0
 11
1.173164747460766
 21
2.084611137014825
 31
0.0
  0
LINE
  5
141
  8
0
 62
     0
 10
1.583164721835768
 20
2.084611137014825
 30
0.0
 11
1.603164720585767
 21
2.084611137014825
 31
0.0
  0
LINE
  5
142
  8
0
 62
     0
 10
2.229315456473878
 20
2.084611137014825
 30
0.0
 11
2.229315456473878
 21
1.829611152952324
 31
0.0
  0
LINE
  5
143
  8
0
 62
     0
 10
1.819315482098879
 20
2.084611137014825
 30
0.0
 11
1.819315482098882
 21
1.829611152952324
 31
0.0
  0
ARC
  5
144
  8
0
 62
     0
 10
2.209315457723879
 20
1.829611152952324
 30
0.0
 40
0.01999999875
 50
270.0
 51
0.0
  0
ARC
  5
145
  8
0
 62
     0
 10
1.839315480848881
 20
1.829611152952324
 30
0.0
 40
0.01999999875
 50
180.0
 51
270.0
  0
LINE
  5
146
  8
0
 62
     0
 10
1.839315480848881
 20
1.809611154202325
 30
0.0
 11
2.209315457723879
 21
1.809611154202325
 31
0.0
  0
ARC
  5
147
  8
0
 62
     0
 10
2.02431546928638
 20
2.084611137014825
 30
0.0
 40
0.2049999871875001
 50
0.0
 51
180.0
  0
ARC
  5
148
  8
0
 62
     0
 10
2.02431546928638
 20
2.084611137014825
 30
0.0
 40
0.2249999859375001
 50
0.0
 51
180.0
  0
LINE
  5
149
  8
0
 62
     0
 10
1.79931548334888
 20
2.084611137014825
 30
0.0
 11
1.819315482098879
 21
2.084611137014825
 31
0.0
  0
LINE
  5
14A
  8
0
 62
     0
 10
2.229315456473878
 20
2.084611137014825
 30
0.0
 11
2.24931545522388
 21
2.084611137014825
 31
0.0
  0
LINE
  5
14B
  8
0
 62
     0
 10
2.873410027812539
 20
2.087416456431846
 30
0.0
 11
2.873410027812539
 21
1.832416472369349
 31
0.0
  0
LINE
  5
14C
  8
0
 62
     0
 10
2.463410053437539
 20
2.087416456431846
 30
0.0
 11
2.463410053437542
 21
1.832416472369349
 31
0.0
  0
ARC
  5
14D
  8
0
 62
     0
 10
2.85341002906254
 20
1.832416472369349
 30
0.0
 40
0.01999999875
 50
270.0
 51
0.0
  0
ARC
  5
14E
  8
0
 62
     0
 10
2.483410052187541
 20
1.832416472369349
 30
0.0
 40
0.01999999875
 50
180.0
 51
270.0
  0
LINE
  5
14F
  8
0
 62
     0
 10
2.483410052187541
 20
1.812416473619347
 30
0.0
 11
2.85341002906254
 21
1.812416473619347
 31
0.0
  0
ARC
  5
150
  8
0
 62
     0
 10
2.668410040625037
 20
2.087416456431846
 30
0.0
 40
0.2049999871875001
 50
0.0
 51
180.0
  0
ARC
  5
151
  8
0
 62
     0
 10
2.668410040625037
 20
2.087416456431846
 30
0.0
 40
0.2249999859375001
 50
0.0
 51
180.0
  0
LINE
  5
152
  8
0
 62
     0
 10
2.44341005468754
 20
2.087416456431846
 30
0.0
 11
2.463410053437539
 21
2.087416456431846
 31
0.0
  0
LINE
  5
153
  8
0
 62
     0
 10
2.873410027812539
 20
2.087416456431846
 30
0.0
 11
2.89341002656254
 21
2.087416456431846
 31
0.0
  0
LINE
  5
154
  8
0
 62
     0
 10
1.175153808640284
 20
0.8188548935449852
 30
0.0
 11
1.175153808640284
 21
1.073854877607485
 31
0.0
  0
LINE
  5
155
  8
0
 62
     0
 10
1.585153783015283
 20
0.8188548935449852
 30
0.0
 11
1.585153783015283
 21
1.073854877607485
 31
0.0
  0
ARC
  5
156
  8
0
 62
     0
 10
1.195153807390283
 20
1.073854877607485
 30
0.0
 40
0.01999999875
 50
90.0
 51
180.0
  0
ARC
  5
157
  8
0
 62
     0
 10
1.565153784265281
 20
1.073854877607485
 30
0.0
 40
0.01999999875
 50
0.0
 51
90.0
  0
LINE
  5
158
  8
0
 62
     0
 10
1.565153784265281
 20
1.093854876357485
 30
0.0
 11
1.195153807390283
 21
1.093854876357485
 31
0.0
  0
ARC
  5
159
  8
0
 62
     0
 10
1.380153795827782
 20
0.8188548935449852
 30
0.0
 40
0.2049999871875001
 50
180.0
 51
0.0
  0
ARC
  5
15A
  8
0
 62
     0
 10
1.380153795827782
 20
0.8188548935449852
 30
0.0
 40
0.2249999859375001
 50
180.0
 51
0.0
  0
LINE
  5
15B
  8
0
 62
     0
 10
1.605153781765282
 20
0.8188548935449852
 30
0.0
 11
1.585153783015283
 21
0.8188548935449852
 31
0.0
  0
LINE
  5
15C
  8
0
 62
     0
 10
1.175153808640284
 20
0.8188548935449852
 30
0.0
 11
1.155153809890282
 21
0.8188548935449852
 31
0.0
  0
LINE
  5
15D
  8
0
 62
     0
 10
1.819315482098882
 20
0.8019592347783684
 30
0.0
 11
1.819315482098882
 21
1.056959218840869
 31
0.0
  0
LINE
  5
15E
  8
0
 62
     0
 10
2.229315456473881
 20
0.8019592347783684
 30
0.0
 11
2.229315456473878
 21
1.056959218840869
 31
0.0
  0
ARC
  5
15F
  8
0
 62
     0
 10
1.839315480848881
 20
1.056959218840869
 30
0.0
 40
0.01999999875
 50
90.0
 51
180.0
  0
ARC
  5
160
  8
0
 62
     0
 10
2.209315457723879
 20
1.056959218840869
 30
0.0
 40
0.01999999875
 50
0.0
 51
90.0
  0
LINE
  5
161
  8
0
 62
     0
 10
2.209315457723879
 20
1.076959217590868
 30
0.0
 11
1.839315480848881
 21
1.076959217590868
 31
0.0
  0
ARC
  5
162
  8
0
 62
     0
 10
2.024315469286383
 20
0.8019592347783684
 30
0.0
 40
0.2049999871875001
 50
180.0
 51
0.0
  0
ARC
  5
163
  8
0
 62
     0
 10
2.024315469286383
 20
0.8019592347783684
 30
0.0
 40
0.2249999859375001
 50
180.0
 51
0.0
  0
LINE
  5
164
  8
0
 62
     0
 10
2.24931545522388
 20
0.8019592347783684
 30
0.0
 11
2.229315456473881
 21
0.8019592347783684
 31
0.0
  0
LINE
  5
165
  8
0
 62
     0
 10
1.819315482098882
 20
0.8019592347783684
 30
0.0
 11
1.79931548334888
 21
0.8019592347783684
 31
0.0
  0
LINE
  5
166
  8
0
 62
     0
 10
2.464265543020291
 20
0.8188548935449852
 30
0.0
 11
2.464265543020291
 21
1.073854877607485
 31
0.0
  0
LINE
  5
167
  8
0
 62
     0
 10
2.87426551739529
 20
0.8188548935449852
 30
0.0
 11
2.874265517395287
 21
1.073854877607485
 31
0.0
  0
ARC
  5
168
  8
0
 62
     0
 10
2.48426554177029
 20
1.073854877607485
 30
0.0
 40
0.01999999875
 50
90.0
 51
180.0
  0
ARC
  5
169
  8
0
 62
     0
 10
2.854265518645289
 20
1.073854877607485
 30
0.0
 40
0.01999999875
 50
0.0
 51
90.0
  0
LINE
  5
16A
  8
0
 62
     0
 10
2.854265518645289
 20
1.093854876357485
 30
0.0
 11
2.48426554177029
 21
1.093854876357485
 31
0.0
  0
ARC
  5
16B
  8
0
 62
     0
 10
2.669265530207792
 20
0.8188548935449852
 30
0.0
 40
0.2049999871875001
 50
180.0
 51
0.0
  0
ARC
  5
16C
  8
0
 62
     0
 10
2.669265530207792
 20
0.8188548935449852
 30
0.0
 40
0.2249999859375001
 50
180.0
 51
0.0
  0
LINE
  5
16D
  8
0
 62
     0
 10
2.894265516145289
 20
0.8188548935449852
 30
0.0
 11
2.87426551739529
 21
0.8188548935449852
 31
0.0
  0
LINE
  5
16E
  8
0
 62
     0
 10
2.464265543020291
 20
0.8188548935449852
 30
0.0
 11
2.444265544270289
 21
0.8188548935449852
 31
0.0
  0
LINE
  5
175
  8
0
 62
     0
 10
0.8577572644702809
 20
1.642774265827388
 30
0.0
 11
0.8577572644702809
 21
1.622774267077387
 31
0.0
  0
ENDSEC
  0
EOF
