  0
SECTION
  2
HEADER
  9
$ACADVER
  1
AC1009
  9
$DWGCODEPAGE
  3
ansi_1252
  9
$INSBASE
 10
2.469521301394272
 20
4.531728914655844
 30
0.0
  9
$EXTMIN
 10
2.147129683102635
 20
4.229898922782713
 30
0.0
  9
$EXTMAX
 10
2.705717110540089
 20
4.829898922782714
 30
0.0
  9
$LIMMIN
 10
0.0
 20
0.0
  9
$LIMMAX
 10
12.0
 20
9.0
  9
$ORTHOMODE
 70
     0
  9
$REGENMODE
 70
     1
  9
$FILLMODE
 70
     1
  9
$QTEXTMODE
 70
     0
  9
$MIRRTEXT
 70
     1
  9
$DRAGMODE
 70
     2
  9
$LTSCALE
 40
1.0
  9
$OSMODE
 70
    37
  9
$ATTMODE
 70
     1
  9
$TEXTSIZE
 40
0.2
  9
$TRACEWID
 40
0.05
  9
$TEXTSTYLE
  7
STANDARD
  9
$CLAYER
  8
0
  9
$CELTYPE
  6
BYLAYER
  9
$CECOLOR
 62
   256
  9
$DIMSCALE
 40
1.0
  9
$DIMASZ
 40
0.09
  9
$DIMEXO
 40
0.0625
  9
$DIMDLI
 40
0.38
  9
$DIMRND
 40
0.0
  9
$DIMDLE
 40
0.0
  9
$DIMEXE
 40
0.18
  9
$DIMTP
 40
0.0
  9
$DIMTM
 40
0.0
  9
$DIMTXT
 40
0.2
  9
$DIMCEN
 40
0.09
  9
$DIMTSZ
 40
0.0
  9
$DIMTOL
 70
     0
  9
$DIMLIM
 70
     0
  9
$DIMTIH
 70
     0
  9
$DIMTOH
 70
     0
  9
$DIMSE1
 70
     0
  9
$DIMSE2
 70
     0
  9
$DIMTAD
 70
     1
  9
$DIMZIN
 70
     4
  9
$DIMBLK
  1

  9
$DIMASO
 70
     1
  9
$DIMSHO
 70
     1
  9
$DIMPOST
  1

  9
$DIMAPOST
  1

  9
$DIMALT
 70
     0
  9
$DIMALTD
 70
     2
  9
$DIMALTF
 40
25.4
  9
$DIMLFAC
 40
1.0
  9
$DIMTOFL
 70
     1
  9
$DIMTVP
 40
0.0
  9
$DIMTIX
 70
     0
  9
$DIMSOXD
 70
     0
  9
$DIMSAH
 70
     1
  9
$DIMBLK1
  1

  9
$DIMBLK2
  1

  9
$DIMSTYLE
  2
STANDARD
  9
$DIMCLRD
 70
     0
  9
$DIMCLRE
 70
     0
  9
$DIMCLRT
 70
     0
  9
$DIMTFAC
 40
1.0
  9
$DIMGAP
 40
0.09
  9
$LUNITS
 70
     2
  9
$LUPREC
 70
     4
  9
$SKETCHINC
 40
0.1
  9
$FILLETRAD
 40
0.0
  9
$AUNITS
 70
     0
  9
$AUPREC
 70
     0
  9
$MENU
  1
acad
  9
$ELEVATION
 40
0.0
  9
$PELEVATION
 40
0.0
  9
$THICKNESS
 40
0.0
  9
$LIMCHECK
 70
     0
  9
$CHAMFERA
 40
0.005
  9
$CHAMFERB
 40
0.005
  9
$SKPOLY
 70
     0
  9
$TDCREATE
 40
2450127.414374653
  9
$TDUPDATE
 40
2458028.605706018
  9
$TDINDWG
 40
0.0014597338
  9
$TDUSRTIMER
 40
0.0014597338
  9
$USRTIMER
 70
     1
  9
$ANGBASE
 50
0.0
  9
$ANGDIR
 70
     0
  9
$PDMODE
 70
    35
  9
$PDSIZE
 40
0.0
  9
$PLINEWID
 40
0.0
  9
$COORDS
 70
     1
  9
$SPLFRAME
 70
     0
  9
$SPLINETYPE
 70
     6
  9
$SPLINESEGS
 70
     8
  9
$ATTDIA
 70
     0
  9
$ATTREQ
 70
     1
  9
$HANDLING
 70
     1
  9
$HANDSEED
  5
71B0
  9
$SURFTAB1
 70
     6
  9
$SURFTAB2
 70
     6
  9
$SURFTYPE
 70
     6
  9
$SURFU
 70
     6
  9
$SURFV
 70
     6
  9
$UCSNAME
  2

  9
$UCSORG
 10
0.0
 20
0.0
 30
0.0
  9
$UCSXDIR
 10
1.0
 20
0.0
 30
0.0
  9
$UCSYDIR
 10
0.0
 20
1.0
 30
0.0
  9
$PUCSNAME
  2

  9
$PUCSORG
 10
0.0
 20
0.0
 30
0.0
  9
$PUCSXDIR
 10
1.0
 20
0.0
 30
0.0
  9
$PUCSYDIR
 10
0.0
 20
1.0
 30
0.0
  9
$USERI1
 70
     0
  9
$USERI2
 70
     0
  9
$USERI3
 70
     0
  9
$USERI4
 70
     0
  9
$USERI5
 70
     0
  9
$USERR1
 40
0.0
  9
$USERR2
 40
0.0
  9
$USERR3
 40
0.0
  9
$USERR4
 40
0.0
  9
$USERR5
 40
0.0
  9
$WORLDVIEW
 70
     1
  9
$SHADEDGE
 70
     3
  9
$SHADEDIF
 70
    70
  9
$TILEMODE
 70
     1
  9
$MAXACTVP
 70
    16
  9
$PLIMCHECK
 70
     0
  9
$PEXTMIN
 10
1.000000000000000E+20
 20
1.000000000000000E+20
 30
1.000000000000000E+20
  9
$PEXTMAX
 10
-1.000000000000000E+20
 20
-1.000000000000000E+20
 30
-1.000000000000000E+20
  9
$PLIMMIN
 10
0.0
 20
0.0
  9
$PLIMMAX
 10
12.0
 20
9.0
  9
$UNITMODE
 70
     0
  9
$VISRETAIN
 70
     0
  9
$PLINEGEN
 70
     0
  9
$PSLTSCALE
 70
     1
  0
ENDSEC
  0
SECTION
  2
TABLES
  0
TABLE
  2
VPORT
 70
     1
  0
VPORT
  2
*ACTIVE
 70
     0
 10
0.0
 20
0.0
 11
1.0
 21
1.0
 12
2.653863208860796
 22
4.54672049656429
 13
0.0
 23
0.0
 14
1.0
 24
1.0
 15
0.0
 25
0.0
 16
0.0
 26
0.0
 36
1.0
 17
0.0
 27
0.0
 37
0.0
 40
0.7296766669434458
 41
1.503537735849056
 42
50.0
 43
0.0
 44
0.0
 50
0.0
 51
0.0
 71
     0
 72
   100
 73
     1
 74
     1
 75
     0
 76
     0
 77
     0
 78
     0
  0
ENDTAB
  0
TABLE
  2
LTYPE
 70
     1
  0
LTYPE
  2
CONTINUOUS
 70
     0
  3
Solid line
 72
    65
 73
     0
 40
0.0
  0
ENDTAB
  0
TABLE
  2
LAYER
 70
     3
  0
LAYER
  2
0
 70
     0
 62
     7
  6
CONTINUOUS
  0
LAYER
  2
LAYOUT
 70
     0
 62
     4
  6
CONTINUOUS
  0
LAYER
  2
MOBIL-I
 70
     0
 62
   251
  6
CONTINUOUS
  0
ENDTAB
  0
TABLE
  2
STYLE
 70
     1
  0
STYLE
  2
STANDARD
 70
     0
 40
0.0
 41
1.0
 50
0.0
 71
     0
 42
0.2
  3
txt
  4

  0
ENDTAB
  0
TABLE
  2
VIEW
 70
     0
  0
ENDTAB
  0
TABLE
  2
UCS
 70
     0
  0
ENDTAB
  0
TABLE
  2
APPID
 70
     2
  0
APPID
  2
ACAD
 70
     0
  0
APPID
  2
DCO15
 70
     0
  0
ENDTAB
  0
TABLE
  2
DIMSTYLE
 70
     1
  0
DIMSTYLE
  2
STANDARD
 70
     0
  3

  4

  5

  6

  7

 40
1.0
 41
0.18
 42
0.0625
 43
0.38
 44
0.18
 45
0.0
 46
0.0
 47
0.0
 48
0.0
140
0.18
141
0.09
142
0.0
143
25.4
144
1.0
145
0.0
146
1.0
147
0.09
 71
     0
 72
     0
 73
     1
 74
     1
 75
     0
 76
     0
 77
     0
 78
     0
170
     0
171
     2
172
     0
173
     0
174
     0
175
     0
176
     0
177
     0
178
     0
  0
ENDTAB
  0
ENDSEC
  0
SECTION
  2
BLOCKS
  0
BLOCK
  8
0
  2
$MODEL_SPACE
 70
     0
 10
0.0
 20
0.0
 30
0.0
  3
$MODEL_SPACE
  1

  0
ENDBLK
  5
70D4
  8
0
  0
BLOCK
 67
     1
  8
0
  2
$PAPER_SPACE
 70
     0
 10
0.0
 20
0.0
 30
0.0
  3
$PAPER_SPACE
  1

  0
ENDBLK
  5
70D2
 67
     1
  8
0
  0
ENDSEC
  0
SECTION
  2
ENTITIES
  0
POLYLINE
  5
686D
  8
0
 62
     0
 66
     1
 10
0.0
 20
0.0
 30
0.0
  0
VERTEX
  5
713C
  8
0
 62
     0
 10
2.68813450389966
 20
4.593085877763035
 30
0.0
 42
0.407860058184787
  0
VERTEX
  5
713D
  8
0
 62
     0
 10
2.677040364191796
 20
4.591623873848279
 30
0.0
 42
0.407860058184787
  0
SEQEND
  5
719F
  8
0
 62
     0
  0
POLYLINE
  5
6862
  8
0
 62
     0
 66
     1
 10
0.0
 20
0.0
 30
0.0
  0
VERTEX
  5
713E
  8
0
 62
     0
 10
2.420069593626617
 20
4.744020426946466
 30
0.0
 42
0.4078600581846547
  0
VERTEX
  5
713F
  8
0
 62
     0
 10
2.416031627184504
 20
4.754456528628448
 30
0.0
  0
VERTEX
  5
7140
  8
0
 62
     0
 10
2.412390021156345
 20
4.756113819967844
 30
0.0
 42
0.4208865776525381
  0
VERTEX
  5
7141
  8
0
 62
     0
 10
2.401721412737994
 20
4.751979828515881
 30
0.0
 42
-0.3407557293213492
  0
VERTEX
  5
7142
  8
0
 62
     0
 10
2.316437571331215
 20
4.704319468060239
 30
0.0
 42
0.4208865776525275
  0
VERTEX
  5
7143
  8
0
 62
     0
 10
2.307325947313536
 20
4.697399395902417
 30
0.0
  0
VERTEX
  5
7144
  8
0
 62
     0
 10
2.306829132038852
 20
4.69342937277518
 30
0.0
 42
0.407860058184753
  0
VERTEX
  5
7145
  8
0
 62
     0
 10
2.313601499224124
 20
4.684521374458375
 30
0.0
 42
0.407860058184753
  0
SEQEND
  5
71A0
  8
0
 62
     0
  0
POLYLINE
  5
6855
  8
0
 62
     0
 66
     1
 10
0.0
 20
0.0
 30
0.0
  0
VERTEX
  5
7146
  8
0
 62
     0
 10
2.69133529470674
 20
4.590685284657725
 30
0.0
 42
-0.4208865776525192
  0
VERTEX
  5
7147
  8
0
 62
     0
 10
2.692824550691586
 20
4.579341069941817
 30
0.0
 42
0.3460092478679352
  0
VERTEX
  5
7148
  8
0
 62
     0
 10
2.692824550691586
 20
4.480456775623609
 30
0.0
 42
-0.4208865776525493
  0
VERTEX
  5
7149
  8
0
 62
     0
 10
2.69133529470674
 20
4.469112560907702
 30
0.0
  0
VERTEX
  5
714A
  8
0
 62
     0
 10
2.68813450389966
 20
4.466711967802391
 30
0.0
 42
-0.4078600581847416
  0
VERTEX
  5
714B
  8
0
 62
     0
 10
2.677040364191797
 20
4.468173971717146
 30
0.0
  0
SEQEND
  5
71A1
  8
0
 62
     0
  0
POLYLINE
  5
684B
  8
0
 62
     0
 66
     1
 10
0.0
 20
0.0
 30
0.0
  0
VERTEX
  5
714C
  8
0
 62
     0
 10
2.310910849607577
 20
4.3859837592978
 30
0.0
 42
0.4078600581847696
  0
VERTEX
  5
714D
  8
0
 62
     0
 10
2.303979024207488
 20
4.377199273659647
 30
0.0
  0
VERTEX
  5
714E
  8
0
 62
     0
 10
2.304404202811095
 20
4.37322094081749
 30
0.0
 42
0.4208865776525084
  0
VERTEX
  5
714F
  8
0
 62
     0
 10
2.313389618827402
 20
4.366137764275641
 30
0.0
 42
-0.3484448012785762
  0
VERTEX
  5
7150
  8
0
 62
     0
 10
2.398601158463235
 20
4.314899618818352
 30
0.0
 42
0.4208865776525221
  0
VERTEX
  5
7151
  8
0
 62
     0
 10
2.409070616913714
 20
4.310284477361926
 30
0.0
  0
VERTEX
  5
7152
  8
0
 62
     0
 10
2.412783859612949
 20
4.311774355781306
 30
0.0
 42
0.4078600581847415
  0
VERTEX
  5
7153
  8
0
 62
     0
 10
2.417292496240459
 20
4.322015917530633
 30
0.0
  0
SEQEND
  5
71A2
  8
0
 62
     0
  0
POLYLINE
  5
6841
  8
0
 62
     0
 66
     1
 10
0.0
 20
0.0
 30
0.0
  0
VERTEX
  5
7154
  8
0
 62
     0
 10
2.315755652919256
 20
4.68422798348526
 30
0.0
 42
0.3341511027332835
  0
VERTEX
  5
7155
  8
0
 62
     0
 10
2.420069593626617
 20
4.744020426946467
 30
0.0
 42
0.3341511027332835
  0
SEQEND
  5
71A3
  8
0
 62
     0
  0
POLYLINE
  5
683A
  8
0
 62
     0
 66
     1
 10
0.0
 20
0.0
 30
0.0
 70
     1
  0
VERTEX
  5
7156
  8
0
 62
     0
 10
2.416064781208021
 20
4.363985817739145
 30
0.0
 42
0.393426460351544
  0
VERTEX
  5
7157
  8
0
 62
     0
 10
2.411491174942207
 20
4.357207966414244
 30
0.0
 42
1.403319826737723
  0
VERTEX
  5
7158
  8
0
 62
     0
 10
2.655201358757552
 20
4.486758102812343
 30
0.0
 42
0.9999999999896564
  0
VERTEX
  5
7159
  8
0
 62
     0
 10
2.647024571232742
 20
4.477975156508625
 30
0.0
 42
-1.403319826738331
  0
VERTEX
  5
715A
  8
0
 62
     0
 10
2.423345361429704
 20
4.359072976526722
 30
0.0
 42
0.4353107658767003
  0
SEQEND
  5
71A4
  8
0
 62
     0
  0
POLYLINE
  5
6836
  8
0
 62
     0
 66
     1
 10
0.0
 20
0.0
 30
0.0
  0
VERTEX
  5
715B
  8
0
 62
     0
 10
2.315755652919257
 20
4.684227983485263
 30
0.0
 42
1.114548265555396
  0
VERTEX
  5
715C
  8
0
 62
     0
 10
2.310907232360984
 20
4.386022974790212
 30
0.0
 42
1.114548265555396
  0
SEQEND
  5
71A5
  8
0
 62
     0
  0
POLYLINE
  5
682D
  8
0
 62
     0
 66
     1
 10
0.0
 20
0.0
 30
0.0
  0
VERTEX
  5
715D
  8
0
 62
     0
 10
2.345202864739699
 20
4.402096460622631
 30
0.0
 42
-0.3788520160558613
  0
VERTEX
  5
715E
  8
0
 62
     0
 10
2.341822366313289
 20
4.396397661025669
 30
0.0
 42
-1.412825989027463
  0
VERTEX
  5
715F
  8
0
 62
     0
 10
2.349477941079545
 20
4.671681450974813
 30
0.0
 42
-0.6300644417406042
  0
VERTEX
  5
7160
  8
0
 62
     0
 10
2.350338837870698
 20
4.660891294677991
 30
0.0
 42
-0.2269453579789096
  0
VERTEX
  5
7161
  8
0
 62
     0
 10
2.345175344533491
 20
4.660479323366095
 30
0.0
 42
1.408000060451597
  0
VERTEX
  5
7162
  8
0
 62
     0
 10
2.337324355919458
 20
4.407559370212609
 30
0.0
 42
-0.4353107658766511
  0
VERTEX
  5
7163
  8
0
 62
     0
 10
2.344961762023633
 20
4.403221987921093
 30
0.0
  0
SEQEND
  5
71A6
  8
0
 62
     0
  0
POLYLINE
  5
6822
  8
0
 62
     0
 66
     1
 10
0.0
 20
0.0
 30
0.0
  0
VERTEX
  5
7164
  8
0
 62
     0
 10
2.419190623894235
 20
4.742031993237501
 30
0.0
 42
0.0574794883608771
  0
VERTEX
  5
7165
  8
0
 62
     0
 10
2.408630755533626
 20
4.709320074543189
 30
0.0
 42
0.6459759250772757
  0
VERTEX
  5
7166
  8
0
 62
     0
 10
2.423456837641019
 20
4.698710176938386
 30
0.0
 42
0.2150846008917786
  0
VERTEX
  5
7167
  8
0
 62
     0
 10
2.428242269534488
 20
4.705397254308459
 30
0.0
 42
-1.403596404628005
  0
VERTEX
  5
7168
  8
0
 62
     0
 10
2.640251139199722
 20
4.581136591914244
 30
0.0
 42
0.4353107658767087
  0
VERTEX
  5
7169
  8
0
 62
     0
 10
2.639640532245684
 20
4.566510831303821
 30
0.0
 42
0.3934264603515097
  0
VERTEX
  5
716A
  8
0
 62
     0
 10
2.653256374378125
 20
4.565942387165252
 30
0.0
 42
0.0548966169525966
  0
VERTEX
  5
716B
  8
0
 62
     0
 10
2.675717110540089
 20
4.589898922782714
 30
0.0
  0
SEQEND
  5
71A7
  8
0
 62
     0
  0
POLYLINE
  5
6808
  8
0
 62
     0
 66
     1
 10
0.0
 20
0.0
 30
0.0
  0
VERTEX
  5
716C
  8
0
 62
     0
 10
2.310907232360984
 20
4.386022974790212
 30
0.0
 42
0.0563683513209909
  0
VERTEX
  5
716D
  8
0
 62
     0
 10
2.343917945031797
 20
4.392872728983865
 30
0.0
 42
0.3656706127444574
  0
VERTEX
  5
716E
  8
0
 62
     0
 10
2.349334305288639
 20
4.401658691150685
 30
0.0
 42
0.0211223474221335
  0
VERTEX
  5
716F
  8
0
 62
     0
 10
2.348853525113478
 20
4.404146206538369
 30
0.0
  0
VERTEX
  5
7170
  8
0
 62
     0
 10
2.348853525113476
 20
4.404146206538377
 30
0.0
 42
0.4353107658766148
  0
VERTEX
  5
7171
  8
0
 62
     0
 10
2.336124514939851
 20
4.411375177024236
 30
0.0
 42
-1.408000060451638
  0
VERTEX
  5
7172
  8
0
 62
     0
 10
2.343741145684814
 20
4.656745280829854
 30
0.0
 42
0.2269453579787718
  0
VERTEX
  5
7173
  8
0
 62
     0
 10
2.352346967913486
 20
4.657431899683017
 30
0.0
 42
0.6300644417406946
  0
VERTEX
  5
7174
  8
0
 62
     0
 10
2.350912139928227
 20
4.675415493511052
 30
0.0
 42
0.060628968188725
  0
VERTEX
  5
7175
  8
0
 62
     0
 10
2.315755652919257
 20
4.684227983485263
 30
0.0
  0
SEQEND
  5
71A8
  8
0
 62
     0
  0
POLYLINE
  5
67E4
  8
0
 62
     0
 66
     1
 10
0.0
 20
0.0
 30
0.0
  0
VERTEX
  5
7176
  8
0
 62
     0
 10
2.417292496240459
 20
4.322015917530633
 30
0.0
 42
0.3478907014444009
  0
VERTEX
  5
7177
  8
0
 62
     0
 10
2.310910849607577
 20
4.3859837592978
 30
0.0
 42
0.3478907014444009
  0
SEQEND
  5
71A9
  8
0
 62
     0
  0
POLYLINE
  5
67DA
  8
0
 62
     0
 66
     1
 10
0.0
 20
0.0
 30
0.0
  0
VERTEX
  5
7178
  8
0
 62
     0
 10
2.675717110540089
 20
4.469898922782713
 30
0.0
 42
0.0444349360605671
  0
VERTEX
  5
7179
  8
0
 62
     0
 10
2.657926954599029
 20
4.489685751580375
 30
0.0
 42
0.9999999999999837
  0
VERTEX
  5
717A
  8
0
 62
     0
 10
2.64429897539117
 20
4.475047507740688
 30
0.0
 42
-1.403319826738338
  0
VERTEX
  5
717B
  8
0
 62
     0
 10
2.427296756925536
 20
4.359694646564214
 30
0.0
 42
0.4353107658766847
  0
VERTEX
  5
717C
  8
0
 62
     0
 10
2.415162456556065
 20
4.367882715251587
 30
0.0
 42
0.3934264603515665
  0
VERTEX
  5
717D
  8
0
 62
     0
 10
2.407539779446375
 20
4.356586296376752
 30
0.0
 42
0.0564396758313422
  0
VERTEX
  5
717E
  8
0
 62
     0
 10
2.416504912441253
 20
4.324042285751018
 30
0.0
  0
SEQEND
  5
71AA
  8
0
 62
     0
  0
ARC
  5
67C7
  8
0
 62
     0
 10
2.555717110540089
 20
4.379898922782713
 30
0.0
 40
0.1500000000000003
 50
201.8623237374819
 51
36.86989764584407
  0
ARC
  5
67BE
  8
0
 62
     0
 10
2.555717110540089
 20
4.679898922782714
 30
0.0
 40
0.1499999999999999
 50
323.130102354156
 51
155.5297646626651
  0
ARC
  5
67BC
  8
0
 62
     0
 10
2.755717110540088
 20
4.529898922782714
 30
0.0
 40
0.1000000000000001
 50
143.1301023541556
 51
218.1155561974355
  0
LINE
  5
67BA
  8
0
 62
     0
 10
2.644299251724072
 20
4.489686008832308
 30
0.0
 11
2.644299251724073
 21
4.489686008832308
 31
0.0
  0
ARC
  5
67B3
  8
0
 62
     0
 10
2.755717110540088
 20
4.529898922782714
 30
0.0
 40
0.1000000000000001
 50
141.8844438025656
 51
143.1301023541556
  0
LINE
  5
67AD
  8
0
 62
     0
 10
2.68813450389966
 20
4.593085877763035
 30
0.0
 11
2.69133529470674
 21
4.590685284657725
 31
0.0
  0
LINE
  5
67A9
  8
0
 62
     0
 10
2.423456837641019
 20
4.698710176938386
 30
0.0
 11
2.423456837641019
 21
4.698710176938386
 31
0.0
  0
ARC
  5
67A3
  8
0
 62
     0
 10
2.328172966130336
 20
4.783454040207366
 30
0.0
 40
0.1000000000000028
 50
262.8669922776954
 51
262.8669922776954
  0
POLYLINE
  5
6798
  8
0
 62
     0
 66
     1
 10
0.0
 20
0.0
 30
0.0
  0
VERTEX
  5
717F
  8
0
 62
     0
 10
2.315755652919256
 20
4.68422798348526
 30
0.0
 42
-0.0054352642923086
  0
VERTEX
  5
7180
  8
0
 62
     0
 10
2.313601499224124
 20
4.684521374458375
 30
0.0
 42
-0.4078600581847547
  0
SEQEND
  5
71AB
  8
0
 62
     0
  0
POLYLINE
  5
6781
  8
0
 62
     0
 66
     1
 10
0.0
 20
0.0
 30
0.0
 70
     1
  0
VERTEX
  5
7181
  8
0
 62
     0
 10
2.314330072569434
 20
4.689468007745823
 30
0.0
 42
-0.4078600581848771
  0
VERTEX
  5
7182
  8
0
 62
     0
 10
2.311790434874958
 20
4.692808507114626
 30
0.0
  0
VERTEX
  5
7183
  8
0
 62
     0
 10
2.312287250149641
 20
4.696778530241861
 30
0.0
 42
-0.4208865776525891
  0
VERTEX
  5
7184
  8
0
 62
     0
 10
2.315704109156268
 20
4.699373557301044
 30
0.0
 42
0.3407557293213542
  0
VERTEX
  5
7185
  8
0
 62
     0
 10
2.406318190650973
 20
4.750012690285163
 30
0.0
 42
-0.4208865776526542
  0
VERTEX
  5
7186
  8
0
 62
     0
 10
2.410318918807853
 20
4.751562937079648
 30
0.0
  0
VERTEX
  5
7187
  8
0
 62
     0
 10
2.413960524836011
 20
4.749905645740253
 30
0.0
 42
-0.4078600581846837
  0
VERTEX
  5
7188
  8
0
 62
     0
 10
2.415474762251803
 20
4.74599210760951
 30
0.0
 42
-0.3402042458261206
  0
SEQEND
  5
71AC
  8
0
 62
     0
  0
POLYLINE
  5
676D
  8
0
 62
     0
 66
     1
 10
0.0
 20
0.0
 30
0.0
 70
     1
  0
VERTEX
  5
7189
  8
0
 62
     0
 10
2.68513450389966
 20
4.589085877763035
 30
0.0
  0
VERTEX
  5
718A
  8
0
 62
     0
 10
2.688335294706738
 20
4.586685284657727
 30
0.0
 42
-0.4208865776526362
  0
VERTEX
  5
718B
  8
0
 62
     0
 10
2.688893765701056
 20
4.582431204139263
 30
0.0
 42
0.3460092478679549
  0
VERTEX
  5
718C
  8
0
 62
     0
 10
2.688893765701057
 20
4.477366641426163
 30
0.0
 42
-0.4208865776525814
  0
VERTEX
  5
718D
  8
0
 62
     0
 10
2.688335294706739
 20
4.4731125609077
 30
0.0
  0
VERTEX
  5
718E
  8
0
 62
     0
 10
2.68513450389966
 20
4.470711967802391
 30
0.0
 42
-0.4078600581847705
  0
VERTEX
  5
718F
  8
0
 62
     0
 10
2.680974201509212
 20
4.471260219270425
 30
0.0
 42
-0.3454559830927725
  0
VERTEX
  5
7190
  8
0
 62
     0
 10
2.680974201509211
 20
4.588537626295002
 30
0.0
 42
-0.4078600581848363
  0
SEQEND
  5
71AD
  8
0
 62
     0
  0
POLYLINE
  5
6759
  8
0
 62
     0
 66
     1
 10
0.0
 20
0.0
 30
0.0
 70
     1
  0
VERTEX
  5
7191
  8
0
 62
     0
 10
2.410921971711889
 20
4.316414762384598
 30
0.0
 42
0.4078600581847553
  0
VERTEX
  5
7192
  8
0
 62
     0
 10
2.412612710447205
 20
4.320255348040592
 30
0.0
 42
0.3478907014444206
  0
VERTEX
  5
7193
  8
0
 62
     0
 10
2.311550146145963
 20
4.381024797719403
 30
0.0
 42
0.4078600581847053
  0
VERTEX
  5
7194
  8
0
 62
     0
 10
2.308950711620933
 20
4.377730615605098
 30
0.0
  0
VERTEX
  5
7195
  8
0
 62
     0
 10
2.30937589022454
 20
4.373752282762944
 30
0.0
 42
0.4208865776525932
  0
VERTEX
  5
7196
  8
0
 62
     0
 10
2.312745421230655
 20
4.371096091559751
 30
0.0
 42
-0.3484448012785751
  0
VERTEX
  5
7197
  8
0
 62
     0
 10
2.403282682093727
 20
4.31665556201138
 30
0.0
 42
0.4208865776525279
  0
VERTEX
  5
7198
  8
0
 62
     0
 10
2.407208729012658
 20
4.314924883965221
 30
0.0
  0
SEQEND
  5
71AE
  8
0
 62
     0
  0
ARC
  5
6725
  8
0
 62
     0
 10
2.319665301939656
 20
4.397214566908755
 30
0.0
 40
0.0259999999999937
 50
10.82238913244504
 51
13.35917159870698
  0
POLYLINE
  5
6621
  8
0
 62
     0
 66
     1
 10
0.0
 20
0.0
 30
0.0
 70
     1
  0
VERTEX
  5
7199
  8
0
 62
     0
 10
2.642852186235402
 20
4.578097750964445
 30
0.0
 42
0.435310765876699
  0
VERTEX
  5
719A
  8
0
 62
     0
 10
2.642485822062979
 20
4.569322294598192
 30
0.0
 42
0.3934264603514609
  0
VERTEX
  5
719B
  8
0
 62
     0
 10
2.650655327342443
 20
4.568981228115049
 30
0.0
 42
1.403596404628009
  0
VERTEX
  5
719C
  8
0
 62
     0
 10
2.412553058333799
 20
4.708535510496243
 30
0.0
 42
0.6459759250772809
  0
VERTEX
  5
719D
  8
0
 62
     0
 10
2.421448707598234
 20
4.702169571933362
 30
0.0
 42
0.215084600891851
  0
VERTEX
  5
719E
  8
0
 62
     0
 10
2.424319966734316
 20
4.706181818355407
 30
0.0
 42
-1.403596404627998
  0
SEQEND
  5
71AF
  8
0
 62
     0
  0
LINE
  5
65C3
  8
0
 62
     0
 10
2.352346967913486
 20
4.657431899683017
 30
0.0
 11
2.352346967913486
 21
4.657431899683017
 31
0.0
  0
ARC
  5
6595
  8
0
 62
     0
 10
2.421929891445738
 20
4.338655983908277
 30
0.0
 40
0.03
 50
103.0370549807131
 51
103.0370549807159
  0
ARC
  5
6594
  8
0
 62
     0
 10
2.421929891445738
 20
4.338655983908276
 30
0.0
 40
0.03
 50
103.0370549807129
 51
103.0370549807129
  0
LINE
  5
658B
  8
0
 62
     0
 10
2.639640532245684
 20
4.566510831303821
 30
0.0
 11
2.639640532245683
 21
4.566510831303821
 31
0.0
  0
LINE
  5
6580
  8
0
 62
     0
 10
2.692481259680005
 20
4.470453945544087
 30
0.0
 11
2.692481259680006
 21
4.470453945544087
 31
0.0
  0
ENDSEC
  0
EOF
