  0
SECTION
  2
HEADER
  9
$ACADVER
  1
AC1009
  9
$DWGCODEPAGE
  3
ansi_1252
  9
$INSBASE
 10
0.0
 20
0.0
 30
0.0
  9
$EXTMIN
 10
-0.1157226284450417
 20
5.470230129862006
 30
-0.0015258207003583
  9
$EXTMAX
 10
2.485290544206848
 20
7.070800799958874
 30
0.0000000349246037
  9
$LIMMIN
 10
0.0
 20
0.0
  9
$LIMMAX
 10
12.0
 20
9.0
  9
$ORTHOMODE
 70
     0
  9
$REGENMODE
 70
     1
  9
$FILLMODE
 70
     1
  9
$QTEXTMODE
 70
     0
  9
$MIRRTEXT
 70
     1
  9
$DRAGMODE
 70
     2
  9
$LTSCALE
 40
1.0
  9
$OSMODE
 70
    37
  9
$ATTMODE
 70
     1
  9
$TEXTSIZE
 40
0.2
  9
$TRACEWID
 40
0.05
  9
$TEXTSTYLE
  7
STANDARD
  9
$CLAYER
  8
MESA6
  9
$CELTYPE
  6
BYLAYER
  9
$CECOLOR
 62
     1
  9
$DIMSCALE
 40
1.0
  9
$DIMASZ
 40
0.18
  9
$DIMEXO
 40
0.0625
  9
$DIMDLI
 40
0.38
  9
$DIMRND
 40
0.0
  9
$DIMDLE
 40
0.0
  9
$DIMEXE
 40
0.18
  9
$DIMTP
 40
0.0
  9
$DIMTM
 40
0.0
  9
$DIMTXT
 40
0.18
  9
$DIMCEN
 40
0.09
  9
$DIMTSZ
 40
0.0
  9
$DIMTOL
 70
     0
  9
$DIMLIM
 70
     0
  9
$DIMTIH
 70
     1
  9
$DIMTOH
 70
     1
  9
$DIMSE1
 70
     0
  9
$DIMSE2
 70
     0
  9
$DIMTAD
 70
     0
  9
$DIMZIN
 70
     0
  9
$DIMBLK
  1

  9
$DIMASO
 70
     1
  9
$DIMSHO
 70
     1
  9
$DIMPOST
  1

  9
$DIMAPOST
  1

  9
$DIMALT
 70
     0
  9
$DIMALTD
 70
     2
  9
$DIMALTF
 40
25.4
  9
$DIMLFAC
 40
1.0
  9
$DIMTOFL
 70
     0
  9
$DIMTVP
 40
0.0
  9
$DIMTIX
 70
     0
  9
$DIMSOXD
 70
     0
  9
$DIMSAH
 70
     0
  9
$DIMBLK1
  1

  9
$DIMBLK2
  1

  9
$DIMSTYLE
  2
STANDARD
  9
$DIMCLRD
 70
     0
  9
$DIMCLRE
 70
     0
  9
$DIMCLRT
 70
     0
  9
$DIMTFAC
 40
1.0
  9
$DIMGAP
 40
0.09
  9
$LUNITS
 70
     2
  9
$LUPREC
 70
     4
  9
$SKETCHINC
 40
0.1
  9
$FILLETRAD
 40
0.04
  9
$AUNITS
 70
     0
  9
$AUPREC
 70
     0
  9
$MENU
  1
acad
  9
$ELEVATION
 40
0.0
  9
$PELEVATION
 40
0.0
  9
$THICKNESS
 40
0.0
  9
$LIMCHECK
 70
     0
  9
$CHAMFERA
 40
0.0
  9
$CHAMFERB
 40
0.0
  9
$SKPOLY
 70
     0
  9
$TDCREATE
 40
2450170.510993056
  9
$TDUPDATE
 40
2458028.605763889
  9
$TDINDWG
 40
0.2670923727
  9
$TDUSRTIMER
 40
0.2670923727
  9
$USRTIMER
 70
     1
  9
$ANGBASE
 50
0.0
  9
$ANGDIR
 70
     0
  9
$PDMODE
 70
     0
  9
$PDSIZE
 40
0.0
  9
$PLINEWID
 40
0.0
  9
$COORDS
 70
     1
  9
$SPLFRAME
 70
     0
  9
$SPLINETYPE
 70
     6
  9
$SPLINESEGS
 70
     8
  9
$ATTDIA
 70
     0
  9
$ATTREQ
 70
     1
  9
$HANDLING
 70
     1
  9
$HANDSEED
  5
4C4
  9
$SURFTAB1
 70
     6
  9
$SURFTAB2
 70
     6
  9
$SURFTYPE
 70
     6
  9
$SURFU
 70
     6
  9
$SURFV
 70
     6
  9
$UCSNAME
  2

  9
$UCSORG
 10
0.0
 20
0.0
 30
0.0
  9
$UCSXDIR
 10
1.0
 20
0.0
 30
0.0
  9
$UCSYDIR
 10
0.0
 20
1.0
 30
0.0
  9
$PUCSNAME
  2

  9
$PUCSORG
 10
0.0
 20
0.0
 30
0.0
  9
$PUCSXDIR
 10
1.0
 20
0.0
 30
0.0
  9
$PUCSYDIR
 10
0.0
 20
1.0
 30
0.0
  9
$USERI1
 70
     0
  9
$USERI2
 70
     0
  9
$USERI3
 70
     0
  9
$USERI4
 70
     0
  9
$USERI5
 70
     0
  9
$USERR1
 40
0.0
  9
$USERR2
 40
0.0
  9
$USERR3
 40
0.0
  9
$USERR4
 40
0.0
  9
$USERR5
 40
0.0
  9
$WORLDVIEW
 70
     1
  9
$SHADEDGE
 70
     3
  9
$SHADEDIF
 70
    70
  9
$TILEMODE
 70
     1
  9
$MAXACTVP
 70
    16
  9
$PLIMCHECK
 70
     0
  9
$PEXTMIN
 10
1.000000000000000E+20
 20
1.000000000000000E+20
 30
1.000000000000000E+20
  9
$PEXTMAX
 10
-1.000000000000000E+20
 20
-1.000000000000000E+20
 30
-1.000000000000000E+20
  9
$PLIMMIN
 10
0.0
 20
0.0
  9
$PLIMMAX
 10
12.0
 20
9.0
  9
$UNITMODE
 70
     0
  9
$VISRETAIN
 70
     0
  9
$PLINEGEN
 70
     0
  9
$PSLTSCALE
 70
     1
  0
ENDSEC
  0
SECTION
  2
TABLES
  0
TABLE
  2
VPORT
 70
     1
  0
VPORT
  2
*ACTIVE
 70
     0
 10
0.0
 20
0.0
 11
1.0
 21
1.0
 12
1.184783957880903
 22
6.27051546491044
 13
0.0
 23
0.0
 14
1.0
 24
1.0
 15
0.0
 25
0.0
 16
0.0
 26
0.0
 36
1.0
 17
0.0
 27
0.0
 37
0.0
 40
1.91973749404235
 41
1.365217391304348
 42
50.0
 43
0.0
 44
0.0
 50
0.0
 51
0.0
 71
     0
 72
   100
 73
     1
 74
     1
 75
     0
 76
     0
 77
     0
 78
     0
  0
ENDTAB
  0
TABLE
  2
LTYPE
 70
     1
  0
LTYPE
  2
CONTINUOUS
 70
     0
  3
Solid line
 72
    65
 73
     0
 40
0.0
  0
ENDTAB
  0
TABLE
  2
LAYER
 70
     5
  0
LAYER
  2
0
 70
     0
 62
     7
  6
CONTINUOUS
  0
LAYER
  2
ASHADE
 70
     0
 62
     7
  6
CONTINUOUS
  0
LAYER
  2
SANITARIO
 70
     0
 62
     2
  6
CONTINUOUS
  0
LAYER
  2
MOBILIARIO
 70
     0
 62
     5
  6
CONTINUOUS
  0
LAYER
  2
MESA6
 70
     0
 62
     1
  6
CONTINUOUS
  0
ENDTAB
  0
TABLE
  2
STYLE
 70
     2
  0
STYLE
  2
STANDARD
 70
     0
 40
0.0
 41
1.0
 50
0.0
 71
     0
 42
0.2
  3
txt
  4

  0
STYLE
  2
ASHADE
 70
     0
 40
0.2
 41
1.0
 50
0.0
 71
     0
 42
0.2
  3
simplex
  4

  0
ENDTAB
  0
TABLE
  2
VIEW
 70
     0
  0
ENDTAB
  0
TABLE
  2
UCS
 70
     0
  0
ENDTAB
  0
TABLE
  2
APPID
 70
     3
  0
APPID
  2
ACAD
 70
     0
  0
APPID
  2
AVE_RENDER
 70
     0
  0
APPID
  2
AVE_FINISH
 70
     0
  0
ENDTAB
  0
TABLE
  2
DIMSTYLE
 70
     1
  0
DIMSTYLE
  2
STANDARD
 70
     0
  3

  4

  5

  6

  7

 40
1.0
 41
0.18
 42
0.0625
 43
0.38
 44
0.18
 45
0.0
 46
0.0
 47
0.0
 48
0.0
140
0.18
141
0.09
142
0.0
143
25.4
144
1.0
145
0.0
146
1.0
147
0.09
 71
     0
 72
     0
 73
     1
 74
     1
 75
     0
 76
     0
 77
     0
 78
     0
170
     0
171
     2
172
     0
173
     0
174
     0
175
     0
176
     0
177
     0
178
     0
  0
ENDTAB
  0
ENDSEC
  0
SECTION
  2
BLOCKS
  0
BLOCK
  8
0
  2
$MODEL_SPACE
 70
     0
 10
0.0
 20
0.0
 30
0.0
  3
$MODEL_SPACE
  1

  0
ENDBLK
  5
40F
  8
0
  0
BLOCK
 67
     1
  8
0
  2
$PAPER_SPACE
 70
     0
 10
0.0
 20
0.0
 30
0.0
  3
$PAPER_SPACE
  1

  0
ENDBLK
  5
40D
 67
     1
  8
0
  0
BLOCK
  8
0
  2
AVE_RENDER
 70
     0
 10
0.0
 20
0.0
 30
0.0
  3
AVE_RENDER
  1
AVE_RENDER
  0
ENDBLK
  5
AF
  8
0
  0
BLOCK
  8
0
  2
FOGAO
 70
     0
 10
0.0
 20
0.0
 30
0.0
  3
FOGAO
  1

  0
LINE
  5
30C
  8
0
 10
0.0
 20
0.0
 30
0.0
 11
0.6500000000000004
 21
0.0
 31
0.0
  0
LINE
  5
30D
  8
0
 10
0.0
 20
-0.0300000000000002
 30
0.0
 11
0.6500000000000004
 21
-0.0300000000000002
 31
0.0
  0
LINE
  5
30E
  8
0
 10
0.0500000000000007
 20
-0.0600000000000005
 30
0.0
 11
0.5999999999999996
 21
-0.0600000000000005
 31
0.0
  0
LINE
  5
30F
  8
0
 10
0.4875000000000007
 20
-0.2000000000000002
 30
0.0
 11
0.5649999999999977
 21
-0.2000000000000002
 31
0.0
  0
CIRCLE
  5
310
  8
0
 10
0.4625000000000004
 20
-0.2000000000000002
 30
0.0
 40
0.05
  0
LINE
  5
311
  8
0
 10
0.5649999999999995
 20
-0.4625000000000004
 30
0.0
 11
0.4875000000000007
 21
-0.4625000000000004
 31
0.0
  0
CIRCLE
  5
312
  8
0
 10
0.4625000000000004
 20
-0.4624999999999995
 30
0.0
 40
0.05
  0
LINE
  5
313
  8
0
 10
0.6500000000000004
 20
-0.6799999999999997
 30
0.0
 11
0.0
 21
-0.6799999999999997
 31
0.0
  0
LINE
  5
314
  8
0
 10
0.6500000000000004
 20
-0.6499999999999995
 30
0.0
 11
0.0
 21
-0.6499999999999995
 31
0.0
  0
LINE
  5
315
  8
0
 10
0.6500000000000004
 20
-0.6199999999999992
 30
0.0
 11
0.0
 21
-0.6199999999999992
 31
0.0
  0
LINE
  5
316
  8
0
 10
0.5999999999999996
 20
-0.5849999999999991
 30
0.0
 11
0.0500000000000007
 21
-0.5849999999999991
 31
0.0
  0
LINE
  5
317
  8
0
 10
0.0500000000000007
 20
-0.3399999999999999
 30
0.0
 11
0.5999999999999996
 21
-0.3399999999999999
 31
0.0
  0
LINE
  5
318
  8
0
 10
0.0
 20
-0.6799999999999997
 30
0.0
 11
0.0
 21
0.0
 31
0.0
  0
LINE
  5
319
  8
0
 10
0.3249999999999993
 20
-0.0600000000000005
 30
0.0
 11
0.3249999999999993
 21
-0.5849999999999991
 31
0.0
  0
LINE
  5
31A
  8
0
 10
0.0500000000000007
 20
-0.5849999999999991
 30
0.0
 11
0.0500000000000007
 21
-0.0599999999999996
 31
0.0
  0
LINE
  5
31B
  8
0
 10
0.2899999999999991
 20
-0.4624999999999995
 30
0.0
 11
0.2125000000000004
 21
-0.4624999999999995
 31
0.0
  0
LINE
  5
31C
  8
0
 10
0.1875
 20
-0.5499999999999989
 30
0.0
 11
0.1875
 21
-0.4874999999999998
 31
0.0
  0
CIRCLE
  5
31D
  8
0
 10
0.1875
 20
-0.4624999999999995
 30
0.0
 40
0.05
  0
LINE
  5
31E
  8
0
 10
0.1624999999999996
 20
-0.4624999999999995
 30
0.0
 11
0.0850000000000009
 21
-0.4624999999999995
 31
0.0
  0
LINE
  5
31F
  8
0
 10
0.1875
 20
-0.4374999999999991
 30
0.0
 11
0.1875
 21
-0.375
 31
0.0
  0
LINE
  5
320
  8
0
 10
0.4625000000000004
 20
-0.4874999999999998
 30
0.0
 11
0.4625000000000004
 21
-0.5499999999999989
 31
0.0
  0
LINE
  5
321
  8
0
 10
0.4375
 20
-0.4625000000000004
 30
0.0
 11
0.3599999999999994
 21
-0.4624999999999995
 31
0.0
  0
LINE
  5
322
  8
0
 10
0.4625000000000004
 20
-0.375
 30
0.0
 11
0.4625000000000004
 21
-0.4374999999999991
 31
0.0
  0
LINE
  5
323
  8
0
 10
0.2125000000000004
 20
-0.2000000000000002
 30
0.0
 11
0.2899999999999991
 21
-0.2000000000000002
 31
0.0
  0
CIRCLE
  5
324
  8
0
 10
0.1875
 20
-0.2000000000000002
 30
0.0
 40
0.05
  0
LINE
  5
325
  8
0
 10
0.0850000000000009
 20
-0.2000000000000002
 30
0.0
 11
0.1624999999999996
 21
-0.2000000000000002
 31
0.0
  0
LINE
  5
326
  8
0
 10
0.1875
 20
-0.3049999999999997
 30
0.0
 11
0.1875
 21
-0.2250000000000005
 31
0.0
  0
LINE
  5
327
  8
0
 10
0.1875
 20
-0.1749999999999998
 30
0.0
 11
0.1874999999999982
 21
-0.0950000000000015
 31
0.0
  0
LINE
  5
328
  8
0
 10
0.3599999999999994
 20
-0.2000000000000002
 30
0.0
 11
0.4375
 21
-0.2000000000000002
 31
0.0
  0
LINE
  5
329
  8
0
 10
0.4625000000000004
 20
-0.2250000000000005
 30
0.0
 11
0.4625000000000004
 21
-0.3050000000000006
 31
0.0
  0
LINE
  5
32A
  8
0
 10
0.4625000000000004
 20
-0.0950000000000015
 30
0.0
 11
0.4625000000000004
 21
-0.1749999999999998
 31
0.0
  0
LINE
  5
32B
  8
0
 10
0.6500000000000004
 20
0.0
 30
0.0
 11
0.6500000000000004
 21
-0.6799999999999997
 31
0.0
  0
LINE
  5
32C
  8
0
 10
0.5999999999999996
 20
-0.0599999999999996
 30
0.0
 11
0.5999999999999996
 21
-0.5849999999999991
 31
0.0
  0
ENDBLK
  5
32D
  8
0
  0
BLOCK
  8
0
  2
GELADEIR
 70
     0
 10
0.0
 20
0.0
 30
0.0
  3
GELADEIR
  1

  0
LINE
  5
32F
  8
0
 10
0.6500000000000004
 20
0.7199999999999998
 30
0.0
 11
0.6500000000000004
 21
0.0
 31
0.0
  0
LINE
  5
330
  8
0
 10
0.0
 20
0.0
 30
0.0
 11
0.0
 21
0.7199999999999998
 31
0.0
  0
LINE
  5
331
  8
0
 10
0.6500000000000004
 20
0.0
 30
0.0
 11
0.0
 21
0.0
 31
0.0
  0
LINE
  5
332
  8
0
 10
0.6500000000000004
 20
0.0199999999999996
 30
0.0
 11
0.0
 21
0.0199999999999996
 31
0.0
  0
LINE
  5
333
  8
0
 10
0.6500000000000004
 20
0.0399999999999991
 30
0.0
 11
0.0
 21
0.0399999999999991
 31
0.0
  0
LINE
  5
334
  8
0
 10
0.0199999999999996
 20
0.0199999999999996
 30
0.0
 11
0.0199999999999996
 21
0.0399999999999991
 31
0.0
  0
LINE
  5
335
  8
0
 10
0.6300000000000008
 20
0.0399999999999991
 30
0.0
 11
0.6300000000000008
 21
0.0199999999999996
 31
0.0
  0
LINE
  5
336
  8
0
 10
0.0
 20
0.7199999999999998
 30
0.0
 11
0.6500000000000004
 21
0.7199999999999998
 31
0.0
  0
LINE
  5
337
  8
0
 10
0.0
 20
0.7399999999999993
 30
0.0
 11
0.6500000000000004
 21
0.7399999999999993
 31
0.0
  0
LINE
  5
338
  8
0
 10
0.0
 20
0.7799999999999994
 30
0.0
 11
0.6500000000000004
 21
0.7799999999999994
 31
0.0
  0
ENDBLK
  5
339
  8
0
  0
BLOCK
  8
0
  2
PIACOZ
 70
     0
 10
0.0
 20
0.0
 30
0.0
  3
PIACOZ
  1

  0
LINE
  5
33B
  8
0
 10
1.199999999999999
 20
0.5999999999999996
 30
0.0
 11
1.199999999999999
 21
0.0
 31
0.0
  0
LINE
  5
33C
  8
0
 10
0.0
 20
0.0
 30
0.0
 11
0.0
 21
0.5999999999999996
 31
0.0
  0
POLYLINE
  5
33D
  8
0
 66
     1
 10
0.0
 20
0.0
 30
0.0
 70
     1
  0
VERTEX
  5
4BF
  8
0
 10
0.8194908257042801
 20
0.5005461203870789
 30
0.0
  0
VERTEX
  5
4C0
  8
0
 10
0.8194908257042801
 20
0.1073513984748624
 30
0.0
  0
VERTEX
  5
4C1
  8
0
 10
1.13896405307516
 20
0.1073513984748624
 30
0.0
  0
VERTEX
  5
4C2
  8
0
 10
1.13896405307516
 20
0.5005461203870789
 30
0.0
  0
SEQEND
  5
4C3
  8
0
  0
LINE
  5
343
  8
0
 10
1.199999999999999
 20
0.0
 30
0.0
 11
0.0
 21
0.0
 31
0.0
  0
LINE
  5
344
  8
0
 10
0.7394682373008159
 20
0.0999999999999988
 30
0.0
 11
0.0499999999999989
 21
0.0999999999999996
 31
0.0
  0
LINE
  5
345
  8
0
 10
0.7394682373008159
 20
0.1249999999999991
 30
0.0
 11
0.0499999999999989
 21
0.1249999999999991
 31
0.0
  0
LINE
  5
346
  8
0
 10
0.7394682373008159
 20
0.1750000000000007
 30
0.0
 11
0.0499999999999989
 21
0.1749999999999998
 31
0.0
  0
LINE
  5
347
  8
0
 10
0.0
 20
0.5999999999999996
 30
0.0
 11
1.199999999999999
 21
0.5999999999999996
 31
0.0
  0
LINE
  5
348
  8
0
 10
0.0499999999999989
 20
0.4999999999999991
 30
0.0
 11
0.7394682373008159
 21
0.4999999999999982
 31
0.0
  0
LINE
  5
349
  8
0
 10
0.0499999999999989
 20
0.4749999999999996
 30
0.0
 11
0.7394682373008159
 21
0.4749999999999996
 31
0.0
  0
LINE
  5
34A
  8
0
 10
0.0499999999999989
 20
0.4249999999999989
 30
0.0
 11
0.7394682373008159
 21
0.4249999999999998
 31
0.0
  0
LINE
  5
34B
  8
0
 10
0.0499999999999989
 20
0.3999999999999995
 30
0.0
 11
0.7394682373008159
 21
0.3999999999999986
 31
0.0
  0
LINE
  5
34C
  8
0
 10
0.7394682373008159
 20
0.1999999999999993
 30
0.0
 11
0.0499999999999989
 21
0.1999999999999993
 31
0.0
  0
LINE
  5
34D
  8
0
 10
0.0499999999999989
 20
0.3499999999999988
 30
0.0
 11
0.7394682373008159
 21
0.3499999999999996
 31
0.0
  0
LINE
  5
34E
  8
0
 10
0.7394682373008159
 20
0.25
 30
0.0
 11
0.0499999999999989
 21
0.25
 31
0.0
  0
LINE
  5
34F
  8
0
 10
0.0499999999999989
 20
0.3249999999999984
 30
0.0
 11
0.7394682373008159
 21
0.3249999999999984
 31
0.0
  0
LINE
  5
350
  8
0
 10
0.7394682373008159
 20
0.2750000000000004
 30
0.0
 11
0.0499999999999989
 21
0.2750000000000004
 31
0.0
  0
CIRCLE
  5
351
  8
0
 10
0.984271757768088
 20
0.5475950630824968
 30
0.0
 40
0.0300744912605271
  0
CIRCLE
  5
352
  8
0
 10
0.9001998619169314
 20
0.5475950630824968
 30
0.0
 40
0.0204552225252367
  0
CIRCLE
  5
353
  8
0
 10
1.058255016862509
 20
0.5475950630824968
 30
0.0
 40
0.0204551974403096
  0
CIRCLE
  5
354
  8
0
 10
0.8870898890080579
 20
0.3215658540106983
 30
0.0
 40
0.0254075153150147
  0
ENDBLK
  5
355
  8
0
  0
BLOCK
  8
0
  2
CAMASOLT
 70
     0
 10
0.0
 20
0.0
 30
0.0
  3
CAMASOLT
  1

  0
LINE
  5
2FD
  8
0
 10
0.0
 20
1.899999999999999
 30
0.0
 11
0.9000000000000004
 21
1.899999999999999
 31
0.0
  0
LINE
  5
2FE
  8
0
 10
0.2000000000000002
 20
1.699999999999999
 30
0.0
 11
0.6999999999999993
 21
1.699999999999998
 31
0.0
  0
LINE
  5
2FF
  8
0
 10
0.0
 20
1.149999999999999
 30
0.0
 11
0.4630307013806645
 21
1.149999999999999
 31
0.0
  0
LINE
  5
300
  8
0
 10
0.2000000000000002
 20
1.399999999999999
 30
0.0
 11
0.6999999999999993
 21
1.399999999999999
 31
0.0
  0
LINE
  5
301
  8
0
 10
0.0022594226752739
 20
1.420636400692755
 30
0.0
 11
0.9013032988801619
 21
1.067454307123507
 31
0.0
  0
LINE
  5
302
  8
0
 10
0.0003724106981062
 20
1.420097611956387
 30
0.0
 11
0.8246462661723788
 21
0.9388906295131791
 31
0.0
  0
LINE
  5
303
  8
0
 10
0.9000000000000004
 20
0.0
 30
0.0
 11
0.0
 21
0.0
 31
0.0
  0
LINE
  5
304
  8
0
 10
0.0
 20
0.0
 30
0.0
 11
0.0
 21
1.899999999999999
 31
0.0
  0
LINE
  5
305
  8
0
 10
0.2000000000000002
 20
1.399999999999999
 30
0.0
 11
0.2000000000000002
 21
1.699999999999999
 31
0.0
  0
LINE
  5
306
  8
0
 10
0.0
 20
1.249999999999999
 30
0.0
 11
0.2917377057368302
 21
1.249999999999999
 31
0.0
  0
LINE
  5
307
  8
0
 10
0.9000000000000004
 20
1.899999999999999
 30
0.0
 11
0.9000000000000004
 21
0.0
 31
0.0
  0
LINE
  5
308
  8
0
 10
0.6999999999999993
 20
1.699999999999998
 30
0.0
 11
0.6999999999999993
 21
1.399999999999999
 31
0.0
  0
LINE
  5
309
  8
0
 10
0.9000000000000004
 20
1.067966297515994
 30
0.0
 11
0.8246462661723788
 21
0.9388906295131791
 31
0.0
  0
ENDBLK
  5
30A
  8
0
  0
BLOCK
  8
0
  2
CAMACASA
 70
     0
 10
0.0
 20
0.0
 30
0.0
  3
CAMACASA
  1

  0
LINE
  5
2EA
  8
0
 10
1.6
 20
0.0
 30
0.0
 11
0.0
 21
0.0
 31
0.0
  0
LINE
  5
2EB
  8
0
 10
0.2000000000000006
 20
1.8
 30
0.0
 11
0.7000000000000006
 21
1.800000000000001
 31
0.0
  0
LINE
  5
2EC
  8
0
 10
0.0000000000000004
 20
2.0
 30
0.0
 11
1.6
 21
2.0
 31
0.0
  0
LINE
  5
2ED
  8
0
 10
0.2000000000000006
 20
1.5
 30
0.0
 11
0.7000000000000006
 21
1.500000000000001
 31
0.0
  0
LINE
  5
2EE
  8
0
 10
-0.0018653215194853
 20
1.367176012012338
 30
0.0
 11
1.600334866416504
 21
1.024075818270513
 31
0.0
  0
LINE
  5
2EF
  8
0
 10
0.0000000000000004
 20
1.366776566188062
 30
0.0
 11
1.505568370871952
 21
0.7813099751442403
 31
0.0
  0
LINE
  5
2F0
  8
0
 10
0.0
 20
0.0
 30
0.0
 11
0.0000000000000004
 21
2.0
 31
0.0
  0
LINE
  5
2F1
  8
0
 10
0.2000000000000006
 20
1.5
 30
0.0
 11
0.2000000000000006
 21
1.8
 31
0.0
  0
LINE
  5
2F2
  8
0
 10
0.0000000000000004
 20
1.1
 30
0.0
 11
0.6860346367953745
 21
1.099999999999999
 31
0.0
  0
LINE
  5
2F3
  8
0
 10
0.0000000000000004
 20
1.25
 30
0.0
 11
0.3002991241538155
 21
1.25
 31
0.0
  0
LINE
  5
2F4
  8
0
 10
1.6
 20
1.024147527619472
 30
0.0
 11
1.505568370871952
 21
0.7813099751442403
 31
0.0
  0
LINE
  5
2F5
  8
0
 10
1.6
 20
2.0
 30
0.0
 11
1.6
 21
0.0
 31
0.0
  0
LINE
  5
2F6
  8
0
 10
1.4
 20
1.8
 30
0.0
 11
1.400000000000001
 21
1.500000000000001
 31
0.0
  0
LINE
  5
2F7
  8
0
 10
0.7000000000000006
 20
1.500000000000001
 30
0.0
 11
0.7000000000000006
 21
1.8
 31
0.0
  0
LINE
  5
2F8
  8
0
 10
0.8999999999999999
 20
1.8
 30
0.0
 11
0.8999999999999999
 21
1.500000000000001
 31
0.0
  0
LINE
  5
2F9
  8
0
 10
0.8999999999999999
 20
1.500000000000001
 30
0.0
 11
1.400000000000001
 21
1.500000000000001
 31
0.0
  0
LINE
  5
2FA
  8
0
 10
0.8999999999999999
 20
1.800000000000001
 30
0.0
 11
1.4
 21
1.8
 31
0.0
  0
ENDBLK
  5
2FB
  8
0
  0
BLOCK
  8
0
  2
SOFA
 70
     0
 10
0.0
 20
0.0
 30
0.0
  3
SOFA
  1

  0
LINE
  5
357
  8
MOBILIARIO
 10
1.6
 20
-0.2000000000000006
 30
0.0
 11
1.4
 21
-0.2000000000000002
 31
0.0
  0
LINE
  5
358
  8
MOBILIARIO
 10
1.55
 20
-0.8500000000000005
 30
0.0
 11
1.399999999999999
 21
-0.8500000000000005
 31
0.0
  0
LINE
  5
359
  8
MOBILIARIO
 10
1.55
 20
0.0499999999999994
 30
0.0
 11
0.0499999999999989
 21
0.0499999999999998
 31
0.0
  0
LINE
  5
35A
  8
MOBILIARIO
 10
1.55
 20
-0.2000000000000006
 30
0.0
 11
0.0499999999999989
 21
-0.2000000000000002
 31
0.0
  0
LINE
  5
35B
  8
MOBILIARIO
 10
1.35
 20
-0.8000000000000007
 30
0.0
 11
1.35
 21
-0.25
 31
0.0
  0
LINE
  5
35C
  8
MOBILIARIO
 10
0.7999999999999989
 20
-0.8000000000000007
 30
0.0
 11
0.7999999999999998
 21
-0.4000000000000004
 31
0.0
  0
LINE
  5
35D
  8
MOBILIARIO
 10
0.25
 20
-0.2000000000000006
 30
0.0
 11
0.25
 21
-0.8000000000000007
 31
0.0
  0
LINE
  5
35E
  8
MOBILIARIO
 10
0.0
 20
0.0
 30
0.0
 11
0.0
 21
-0.8000000000000007
 31
0.0
  0
LINE
  5
35F
  8
MOBILIARIO
 10
0.75
 20
-0.8500000000000005
 30
0.0
 11
0.2999999999999989
 21
-0.8500000000000005
 31
0.0
  0
ARC
  5
360
  8
MOBILIARIO
 10
0.0499999999999989
 20
-0.8000000000000007
 30
0.0
 40
0.05
 50
180.0
 51
270.0
  0
ARC
  5
361
  8
MOBILIARIO
 10
0.2999999999999989
 20
-0.8000000000000007
 30
0.0
 40
0.05
 50
180.0
 51
270.0
  0
LINE
  5
362
  8
MOBILIARIO
 10
0.1999999999999993
 20
-0.8500000000000001
 30
0.0
 11
0.0499999999999989
 21
-0.8500000000000001
 31
0.0
  0
ARC
  5
363
  8
MOBILIARIO
 10
0.1999999999999993
 20
-0.8000000000000003
 30
0.0
 40
0.05
 50
270.0
 51
0.0
  0
LINE
  5
364
  8
MOBILIARIO
 10
0.8499999999999996
 20
-0.8500000000000005
 30
0.0
 11
1.3
 21
-0.8500000000000001
 31
0.0
  0
ARC
  5
365
  8
MOBILIARIO
 10
0.75
 20
-0.8000000000000007
 30
0.0
 40
0.05
 50
270.0
 51
0.0000000000000636
  0
ARC
  5
366
  8
MOBILIARIO
 10
0.8499999999999996
 20
-0.8000000000000007
 30
0.0
 40
0.05
 50
180.0
 51
270.0
  0
ARC
  5
367
  8
MOBILIARIO
 10
1.3
 20
-0.8000000000000003
 30
0.0
 40
0.05
 50
270.0
 51
0.0
  0
ARC
  5
368
  8
MOBILIARIO
 10
1.399999999999999
 20
-0.8000000000000007
 30
0.0
 40
0.05
 50
180.0
 51
270.0
  0
LINE
  5
369
  8
MOBILIARIO
 10
0.75
 20
-0.2000000000000006
 30
0.0
 11
0.0
 21
-0.2000000000000006
 31
0.0
  0
LINE
  5
36A
  8
MOBILIARIO
 10
0.75
 20
-0.3500000000000005
 30
0.0
 11
0.2999999999999998
 21
-0.3500000000000005
 31
0.0
  0
ARC
  5
36B
  8
MOBILIARIO
 10
0.0499999999999989
 20
0.0
 30
0.0
 40
0.05
 50
90.0
 51
180.0
  0
ARC
  5
36C
  8
MOBILIARIO
 10
0.1999999999999993
 20
-0.25
 30
0.0
 40
0.05
 50
0.0
 51
89.99999999999997
  0
ARC
  5
36D
  8
MOBILIARIO
 10
0.2999999999999998
 20
-0.3000000000000007
 30
0.0
 40
0.05
 50
180.0
 51
270.0
  0
LINE
  5
36E
  8
MOBILIARIO
 10
0.25
 20
-0.25
 30
0.0
 11
0.25
 21
-0.3000000000000007
 31
0.0
  0
LINE
  5
36F
  8
MOBILIARIO
 10
0.1999999999999993
 20
-0.2000000000000002
 30
0.0
 11
0.0499999999999989
 21
-0.2000000000000002
 31
0.0
  0
LINE
  5
370
  8
MOBILIARIO
 10
1.3
 20
-0.3500000000000005
 30
0.0
 11
0.8499999999999996
 21
-0.3500000000000005
 31
0.0
  0
ARC
  5
371
  8
MOBILIARIO
 10
0.75
 20
-0.4000000000000004
 30
0.0
 40
0.05
 50
0.0
 51
90.0
  0
ARC
  5
372
  8
MOBILIARIO
 10
0.8499999999999996
 20
-0.4000000000000004
 30
0.0
 40
0.05
 50
90.00000000000003
 51
180.0
  0
LINE
  5
373
  8
MOBILIARIO
 10
0.7999999999999989
 20
-0.1500000000000008
 30
0.0
 11
0.7999999999999998
 21
0.0475267744600121
 31
0.0
  0
ARC
  5
374
  8
MOBILIARIO
 10
0.75
 20
-0.1500000000000008
 30
0.0
 40
0.05
 50
270.0
 51
0.0
  0
ARC
  5
375
  8
MOBILIARIO
 10
0.75
 20
-0.1500000000000008
 30
0.0
 40
0.05
 50
270.0
 51
0.0
  0
ARC
  5
376
  8
MOBILIARIO
 10
0.8499999999999996
 20
-0.1500000000000008
 30
0.0
 40
0.05
 50
180.0
 51
270.0
  0
ARC
  5
377
  8
MOBILIARIO
 10
1.4
 20
-0.25
 30
0.0
 40
0.05
 50
90.0
 51
179.9999999999999
  0
LINE
  5
378
  8
MOBILIARIO
 10
1.35
 20
-0.3000000000000007
 30
0.0
 11
1.35
 21
-0.2000000000000006
 31
0.0
  0
ARC
  5
379
  8
MOBILIARIO
 10
1.3
 20
-0.3000000000000007
 30
0.0
 40
0.05
 50
270.0
 51
0.0
  0
LINE
  5
37A
  8
MOBILIARIO
 10
1.6
 20
-0.8000000000000007
 30
0.0
 11
1.6
 21
-0.0000000000000004
 31
0.0
  0
ARC
  5
37B
  8
MOBILIARIO
 10
1.55
 20
-0.8000000000000007
 30
0.0
 40
0.05
 50
270.0
 51
0.0
  0
ARC
  5
37C
  8
MOBILIARIO
 10
1.55
 20
-0.0000000000000004
 30
0.0
 40
0.05
 50
0.0
 51
90.0
  0
ENDBLK
  5
37D
  8
0
  0
BLOCK
  8
0
  2
VSANPL
 70
     0
 10
0.0
 20
0.0
 30
0.0
  3
VSANPL
  1

  0
LINE
  5
16A
  8
SANITARIO
 10
-0.1999999999999993
 20
-0.3999999999999999
 30
0.0
 11
-0.1999999999999993
 21
-0.1000000000000001
 31
0.0
  0
LINE
  5
16B
  8
SANITARIO
 10
0.2000000000000011
 20
-0.1000000000000001
 30
0.0
 11
0.2000000000000011
 21
-0.3999999999999999
 31
0.0
  0
LINE
  5
16C
  8
SANITARIO
 10
-0.1499999999999986
 20
-0.3999999999999999
 30
0.0
 11
-0.1499999999999986
 21
-0.2000000000000002
 31
0.0
  0
LINE
  5
16D
  8
SANITARIO
 10
0.1500000000000004
 20
-0.2000000000000002
 30
0.0
 11
0.1500000000000004
 21
-0.3999999999999999
 31
0.0
  0
ARC
  5
16E
  8
SANITARIO
 10
0.0
 20
-0.3999999999999999
 30
0.0
 40
0.1999999999999993
 50
180.0
 51
0.0
  0
ARC
  5
16F
  8
SANITARIO
 10
0.0
 20
-0.3999999999999999
 30
0.0
 40
0.1499999999999993
 50
180.0
 51
0.0
  0
LINE
  5
170
  8
SANITARIO
 10
-0.1999999999999993
 20
-0.1000000000000001
 30
0.0
 11
0.2000000000000011
 21
-0.1000000000000001
 31
0.0
  0
LINE
  5
171
  8
SANITARIO
 10
-0.1499999999999986
 20
-0.2000000000000002
 30
0.0
 11
0.1500000000000004
 21
-0.2000000000000002
 31
0.0
  0
LINE
  5
172
  8
SANITARIO
 10
-0.0499999999999989
 20
0.0
 30
0.0
 11
0.0500000000000007
 21
0.0
 31
0.0
  0
LINE
  5
173
  8
SANITARIO
 10
-0.0499999999999989
 20
-0.1000000000000001
 30
0.0
 11
-0.0499999999999989
 21
0.0
 31
0.0
  0
LINE
  5
174
  8
SANITARIO
 10
0.0500000000000007
 20
0.0
 30
0.0
 11
0.0500000000000007
 21
-0.1000000000000001
 31
0.0
  0
ENDBLK
  5
175
  8
0
  0
BLOCK
  8
0
  2
MESARETP
 70
     0
 10
0.0
 20
0.0
 30
0.0
  3
MESARETP
  1

  0
ARC
  5
178
  8
MOBILIARIO
 10
0.3399999999999999
 20
-0.2399999999999998
 30
0.0
 40
0.06
 50
180.0
 51
270.0
  0
LINE
  5
179
  8
MOBILIARIO
 10
0.2799999999999994
 20
-0.1634571563472464
 30
0.0
 11
0.7296075884715059
 21
-0.164536938245162
 31
0.0
  0
ARC
  5
17A
  8
MOBILIARIO
 10
0.3399999999999999
 20
-0.2399999999999998
 30
0.0
 40
0.04
 50
180.0
 51
270.0
  0
ARC
  5
17B
  8
MOBILIARIO
 10
0.3399999999999999
 20
2.24
 30
0.0
 40
0.04
 50
90.0
 51
180.0
  0
LINE
  5
17C
  8
MOBILIARIO
 10
0.2799999999999994
 20
2.163457156347246
 30
0.0
 11
0.7296075884715059
 21
2.164536938245162
 31
0.0
  0
ARC
  5
17D
  8
MOBILIARIO
 10
0.3399999999999999
 20
2.24
 30
0.0
 40
0.06
 50
90.0
 51
180.0
  0
LINE
  5
17E
  8
MOBILIARIO
 10
1.0
 20
2.0
 30
0.0
 11
0.0
 21
2.0
 31
0.0
  0
LINE
  5
17F
  8
MOBILIARIO
 10
0.0
 20
0.0
 30
0.0
 11
1.0
 21
0.0
 31
0.0
  0
LINE
  5
180
  8
MOBILIARIO
 10
0.0
 20
2.0
 30
0.0
 11
0.0
 21
0.0
 31
0.0
  0
LINE
  5
181
  8
MOBILIARIO
 10
0.2799999999999994
 20
0.0
 30
0.0
 11
0.2799999999999994
 21
-0.2399999999999998
 31
0.0
  0
LINE
  5
182
  8
MOBILIARIO
 10
-0.2399999999999984
 20
0.3999999999999999
 30
0.0
 11
0.0
 21
0.3999999999999999
 31
0.0
  0
LINE
  5
183
  8
MOBILIARIO
 10
-0.2399999999999984
 20
0.4199999999999995
 30
0.0
 11
-0.1644898484725772
 21
0.4199999999999995
 31
0.0
  0
LINE
  5
184
  8
MOBILIARIO
 10
0.0
 20
0.8499999999999992
 30
0.0
 11
-0.2399999999999984
 21
0.8499999999999992
 31
0.0
  0
LINE
  5
185
  8
MOBILIARIO
 10
-0.163505188539121
 20
0.8300000000000014
 30
0.0
 11
-0.2399999999999984
 21
0.8299999999999996
 31
0.0
  0
LINE
  5
186
  8
MOBILIARIO
 10
-0.2999999999999989
 20
0.7899999999999987
 30
0.0
 11
-0.2999999999999989
 21
0.4600000000000004
 31
0.0
  0
LINE
  5
187
  8
MOBILIARIO
 10
-0.2799999999999994
 20
0.7899999999999987
 30
0.0
 11
-0.2799999999999994
 21
0.4600000000000004
 31
0.0
  0
ARC
  5
188
  8
MOBILIARIO
 10
-0.2399999999999984
 20
0.4600000000000004
 30
0.0
 40
0.06
 50
180.0
 51
270.0
  0
ARC
  5
189
  8
MOBILIARIO
 10
-0.2399999999999984
 20
0.4600000000000004
 30
0.0
 40
0.04
 50
180.0
 51
270.0
  0
ARC
  5
18A
  8
MOBILIARIO
 10
-0.2399999999999984
 20
0.7899999999999987
 30
0.0
 40
0.06
 50
90.0
 51
180.0
  0
ARC
  5
18B
  8
MOBILIARIO
 10
-0.2399999999999984
 20
0.7899999999999987
 30
0.0
 40
0.04
 50
90.0
 51
180.0
  0
LINE
  5
18C
  8
MOBILIARIO
 10
-0.1634571563472456
 20
0.8499999999999992
 30
0.0
 11
-0.1645369382451616
 21
0.4003924115284927
 31
0.0
  0
LINE
  5
18D
  8
MOBILIARIO
 10
0.2799999999999994
 20
2.0
 30
0.0
 11
0.2799999999999994
 21
2.24
 31
0.0
  0
LINE
  5
18E
  8
MOBILIARIO
 10
-0.2399999999999984
 20
1.580000000000001
 30
0.0
 11
-0.1644898484725772
 21
1.580000000000001
 31
0.0
  0
LINE
  5
18F
  8
MOBILIARIO
 10
-0.163505188539121
 20
1.169999999999999
 30
0.0
 11
-0.2399999999999984
 21
1.17
 31
0.0
  0
LINE
  5
190
  8
MOBILIARIO
 10
-0.2399999999999984
 20
1.6
 30
0.0
 11
0.0
 21
1.6
 31
0.0
  0
LINE
  5
191
  8
MOBILIARIO
 10
0.0
 20
1.150000000000001
 30
0.0
 11
-0.2399999999999984
 21
1.150000000000001
 31
0.0
  0
ARC
  5
192
  8
MOBILIARIO
 10
-0.2399999999999984
 20
1.54
 30
0.0
 40
0.06
 50
90.0
 51
180.0
  0
ARC
  5
193
  8
MOBILIARIO
 10
-0.2399999999999984
 20
1.54
 30
0.0
 40
0.04
 50
90.0
 51
180.0
  0
LINE
  5
194
  8
MOBILIARIO
 10
-0.2999999999999989
 20
1.210000000000001
 30
0.0
 11
-0.2999999999999989
 21
1.54
 31
0.0
  0
LINE
  5
195
  8
MOBILIARIO
 10
-0.2799999999999994
 20
1.210000000000001
 30
0.0
 11
-0.2799999999999994
 21
1.54
 31
0.0
  0
ARC
  5
196
  8
MOBILIARIO
 10
-0.2399999999999984
 20
1.210000000000001
 30
0.0
 40
0.06
 50
180.0
 51
270.0
  0
ARC
  5
197
  8
MOBILIARIO
 10
-0.2399999999999984
 20
1.210000000000001
 30
0.0
 40
0.04
 50
180.0
 51
270.0
  0
LINE
  5
198
  8
MOBILIARIO
 10
-0.1634571563472456
 20
1.150000000000001
 30
0.0
 11
-0.1645369382451616
 21
1.599607588471507
 31
0.0
  0
LINE
  5
199
  8
MOBILIARIO
 10
1.0
 20
0.0
 30
0.0
 11
1.0
 21
2.0
 31
0.0
  0
ARC
  5
19A
  8
MOBILIARIO
 10
1.239999999999998
 20
0.7899999999999987
 30
0.0
 40
0.04
 50
0.0
 51
90.0
  0
ARC
  5
19B
  8
MOBILIARIO
 10
1.239999999999998
 20
0.7899999999999987
 30
0.0
 40
0.06
 50
0.0
 51
90.0
  0
ARC
  5
19C
  8
MOBILIARIO
 10
1.239999999999998
 20
0.4600000000000004
 30
0.0
 40
0.04
 50
270.0
 51
0.0
  0
ARC
  5
19D
  8
MOBILIARIO
 10
1.239999999999998
 20
0.4600000000000004
 30
0.0
 40
0.06
 50
270.0
 51
0.0
  0
LINE
  5
19E
  8
MOBILIARIO
 10
0.7099999999999991
 20
-0.2399999999999998
 30
0.0
 11
0.7099999999999991
 21
-0.1644898484725776
 31
0.0
  0
LINE
  5
19F
  8
MOBILIARIO
 10
0.2999999999999972
 20
-0.1635051885391223
 30
0.0
 11
0.2999999999999989
 21
-0.2399999999999998
 31
0.0
  0
LINE
  5
1A0
  8
MOBILIARIO
 10
0.7299999999999986
 20
-0.2399999999999998
 30
0.0
 11
0.7299999999999986
 21
0.0
 31
0.0
  0
LINE
  5
1A1
  8
MOBILIARIO
 10
0.3399999999999999
 20
-0.2999999999999998
 30
0.0
 11
0.6699999999999982
 21
-0.2999999999999998
 31
0.0
  0
LINE
  5
1A2
  8
MOBILIARIO
 10
0.3399999999999999
 20
-0.2799999999999998
 30
0.0
 11
0.6699999999999982
 21
-0.2799999999999998
 31
0.0
  0
ARC
  5
1A3
  8
MOBILIARIO
 10
0.6699999999999982
 20
-0.2399999999999998
 30
0.0
 40
0.06
 50
270.0
 51
0.0
  0
ARC
  5
1A4
  8
MOBILIARIO
 10
0.6699999999999982
 20
-0.2399999999999998
 30
0.0
 40
0.04
 50
270.0
 51
0.0
  0
LINE
  5
1A5
  8
MOBILIARIO
 10
1.163457156347246
 20
0.8499999999999992
 30
0.0
 11
1.164536938245162
 21
0.4003924115284927
 31
0.0
  0
LINE
  5
1A6
  8
MOBILIARIO
 10
1.279999999999999
 20
0.7899999999999987
 30
0.0
 11
1.279999999999999
 21
0.4600000000000004
 31
0.0
  0
LINE
  5
1A7
  8
MOBILIARIO
 10
1.239999999999998
 20
0.3999999999999999
 30
0.0
 11
1.0
 21
0.3999999999999999
 31
0.0
  0
LINE
  5
1A8
  8
MOBILIARIO
 10
1.239999999999998
 20
0.4199999999999995
 30
0.0
 11
1.164489848472577
 21
0.4199999999999995
 31
0.0
  0
LINE
  5
1A9
  8
MOBILIARIO
 10
1.0
 20
0.8499999999999992
 30
0.0
 11
1.239999999999998
 21
0.8499999999999992
 31
0.0
  0
LINE
  5
1AA
  8
MOBILIARIO
 10
1.163505188539121
 20
0.8300000000000014
 30
0.0
 11
1.239999999999998
 21
0.8299999999999996
 31
0.0
  0
LINE
  5
1AB
  8
MOBILIARIO
 10
1.299999999999999
 20
0.7899999999999987
 30
0.0
 11
1.299999999999999
 21
0.4600000000000004
 31
0.0
  0
ARC
  5
1AC
  8
MOBILIARIO
 10
1.239999999999998
 20
1.54
 30
0.0
 40
0.06
 50
0.0
 51
90.0
  0
ARC
  5
1AD
  8
MOBILIARIO
 10
1.239999999999998
 20
1.54
 30
0.0
 40
0.04
 50
0.0
 51
90.0
  0
ARC
  5
1AE
  8
MOBILIARIO
 10
1.239999999999998
 20
1.210000000000001
 30
0.0
 40
0.06
 50
270.0
 51
0.0
  0
ARC
  5
1AF
  8
MOBILIARIO
 10
1.239999999999998
 20
1.210000000000001
 30
0.0
 40
0.04
 50
270.0
 51
0.0
  0
LINE
  5
1B0
  8
MOBILIARIO
 10
0.7299999999999986
 20
2.24
 30
0.0
 11
0.7299999999999986
 21
2.0
 31
0.0
  0
LINE
  5
1B1
  8
MOBILIARIO
 10
1.163457156347246
 20
1.150000000000001
 30
0.0
 11
1.164536938245162
 21
1.599607588471507
 31
0.0
  0
LINE
  5
1B2
  8
MOBILIARIO
 10
1.0
 20
1.150000000000001
 30
0.0
 11
1.239999999999998
 21
1.150000000000001
 31
0.0
  0
LINE
  5
1B3
  8
MOBILIARIO
 10
1.279999999999999
 20
1.210000000000001
 30
0.0
 11
1.279999999999999
 21
1.54
 31
0.0
  0
LINE
  5
1B4
  8
MOBILIARIO
 10
1.163505188539121
 20
1.169999999999999
 30
0.0
 11
1.239999999999998
 21
1.17
 31
0.0
  0
LINE
  5
1B5
  8
MOBILIARIO
 10
1.239999999999998
 20
1.6
 30
0.0
 11
1.0
 21
1.6
 31
0.0
  0
LINE
  5
1B6
  8
MOBILIARIO
 10
1.239999999999998
 20
1.580000000000001
 30
0.0
 11
1.164489848472577
 21
1.580000000000001
 31
0.0
  0
LINE
  5
1B7
  8
MOBILIARIO
 10
0.3399999999999999
 20
2.28
 30
0.0
 11
0.6699999999999982
 21
2.28
 31
0.0
  0
LINE
  5
1B8
  8
MOBILIARIO
 10
0.3399999999999999
 20
2.3
 30
0.0
 11
0.6699999999999982
 21
2.3
 31
0.0
  0
LINE
  5
1B9
  8
MOBILIARIO
 10
0.2999999999999972
 20
2.163505188539122
 30
0.0
 11
0.2999999999999989
 21
2.24
 31
0.0
  0
LINE
  5
1BA
  8
MOBILIARIO
 10
0.7099999999999991
 20
2.24
 30
0.0
 11
0.7099999999999991
 21
2.164489848472578
 31
0.0
  0
ARC
  5
1BB
  8
MOBILIARIO
 10
0.6699999999999982
 20
2.24
 30
0.0
 40
0.04
 50
0.0
 51
90.0
  0
ARC
  5
1BC
  8
MOBILIARIO
 10
0.6699999999999982
 20
2.24
 30
0.0
 40
0.06
 50
0.0
 51
90.0
  0
LINE
  5
1BD
  8
MOBILIARIO
 10
1.299999999999999
 20
1.210000000000001
 30
0.0
 11
1.299999999999999
 21
1.54
 31
0.0
  0
ENDBLK
  5
1BE
  8
0
  0
BLOCK
  8
0
  2
SOFA2LUG
 70
     0
 10
0.0
 20
0.0
 30
0.0
  3
SOFA2LUG
  1

  0
LINE
  5
1C1
  8
MOBILIARIO
 10
0.75
 20
-0.25
 30
0.0
 11
-0.7500000000000004
 21
-0.2499999999999996
 31
0.0
  0
ARC
  5
1C2
  8
MOBILIARIO
 10
0.5
 20
-0.8499999999999996
 30
0.0
 40
0.05
 50
270.0
 51
0.0
  0
ARC
  5
1C3
  8
MOBILIARIO
 10
0.5
 20
-0.3500000000000001
 30
0.0
 40
0.05
 50
270.0
 51
0.0
  0
LINE
  5
1C4
  8
MOBILIARIO
 10
0.75
 20
0.0
 30
0.0
 11
-0.7500000000000004
 21
0.0000000000000004
 31
0.0
  0
LINE
  5
1C5
  8
MOBILIARIO
 10
-0.0499999999999998
 20
-0.3999999999999999
 30
0.0
 11
-0.5
 21
-0.3999999999999999
 31
0.0
  0
LINE
  5
1C6
  8
MOBILIARIO
 10
-0.0500000000000003
 20
-0.8999999999999999
 30
0.0
 11
-0.5000000000000004
 21
-0.8999999999999999
 31
0.0
  0
LINE
  5
1C7
  8
MOBILIARIO
 10
-0.0499999999999998
 20
-0.25
 30
0.0
 11
-0.8000000000000003
 21
-0.25
 31
0.0
  0
LINE
  5
1C8
  8
MOBILIARIO
 10
-0.8000000000000003
 20
-0.0499999999999994
 30
0.0
 11
-0.8000000000000003
 21
-0.8500000000000001
 31
0.0
  0
LINE
  5
1C9
  8
MOBILIARIO
 10
-0.5500000000000003
 20
-0.25
 30
0.0
 11
-0.5500000000000003
 21
-0.8500000000000001
 31
0.0
  0
LINE
  5
1CA
  8
MOBILIARIO
 10
-0.6000000000000001
 20
-0.8999999999999995
 30
0.0
 11
-0.7500000000000004
 21
-0.8999999999999995
 31
0.0
  0
ARC
  5
1CB
  8
MOBILIARIO
 10
-0.7500000000000004
 20
-0.8500000000000001
 30
0.0
 40
0.05
 50
180.0
 51
270.0
  0
ARC
  5
1CC
  8
MOBILIARIO
 10
-0.6000000000000001
 20
-0.8499999999999996
 30
0.0
 40
0.05
 50
270.0
 51
0.0
  0
ARC
  5
1CD
  8
MOBILIARIO
 10
-0.5000000000000004
 20
-0.8500000000000001
 30
0.0
 40
0.05
 50
180.0
 51
270.0
  0
LINE
  5
1CE
  8
MOBILIARIO
 10
-0.6000000000000001
 20
-0.2499999999999996
 30
0.0
 11
-0.7500000000000004
 21
-0.2499999999999996
 31
0.0
  0
LINE
  5
1CF
  8
MOBILIARIO
 10
-0.5500000000000003
 20
-0.2999999999999994
 30
0.0
 11
-0.5499999999999998
 21
-0.3500000000000001
 31
0.0
  0
ARC
  5
1D0
  8
MOBILIARIO
 10
-0.5
 20
-0.3500000000000001
 30
0.0
 40
0.05
 50
180.0
 51
270.0
  0
ARC
  5
1D1
  8
MOBILIARIO
 10
-0.6000000000000001
 20
-0.2999999999999994
 30
0.0
 40
0.05
 50
0.0
 51
89.99999999999997
  0
ARC
  5
1D2
  8
MOBILIARIO
 10
-0.7500000000000004
 20
-0.0499999999999994
 30
0.0
 40
0.05
 50
90.0
 51
180.0
  0
LINE
  5
1D3
  8
MOBILIARIO
 10
-0.0000000000000004
 20
-0.2000000000000002
 30
0.0
 11
0.0
 21
-0.0024732255399873
 31
0.0
  0
ARC
  5
1D4
  8
MOBILIARIO
 10
0.0499999999999994
 20
-0.4499999999999997
 30
0.0
 40
0.05
 50
90.00000000000003
 51
180.0
  0
ARC
  5
1D5
  8
MOBILIARIO
 10
0.0499999999999998
 20
-0.8500000000000001
 30
0.0
 40
0.05
 50
180.0
 51
270.0
  0
ARC
  5
1D6
  8
MOBILIARIO
 10
0.0499999999999998
 20
-0.2000000000000002
 30
0.0
 40
0.05
 50
180.0
 51
270.0
  0
LINE
  5
1D7
  8
MOBILIARIO
 10
-0.0000000000000004
 20
-0.8500000000000001
 30
0.0
 11
0.0
 21
-0.4499999999999997
 31
0.0
  0
ARC
  5
1D8
  8
MOBILIARIO
 10
-0.0500000000000003
 20
-0.8500000000000001
 30
0.0
 40
0.05
 50
270.0
 51
0.0000000000000636
  0
ARC
  5
1D9
  8
MOBILIARIO
 10
-0.0499999999999998
 20
-0.4499999999999997
 30
0.0
 40
0.05
 50
0.0
 51
90.0
  0
ARC
  5
1DA
  8
MOBILIARIO
 10
-0.0500000000000003
 20
-0.2000000000000002
 30
0.0
 40
0.05
 50
270.0
 51
0.0
  0
ARC
  5
1DB
  8
MOBILIARIO
 10
-0.0499999999999998
 20
-0.2000000000000002
 30
0.0
 40
0.05
 50
270.0
 51
0.0
  0
LINE
  5
1DC
  8
MOBILIARIO
 10
0.0499999999999998
 20
-0.8999999999999999
 30
0.0
 11
0.5
 21
-0.8999999999999995
 31
0.0
  0
LINE
  5
1DD
  8
MOBILIARIO
 10
0.5
 20
-0.3999999999999999
 30
0.0
 11
0.0499999999999994
 21
-0.3999999999999999
 31
0.0
  0
LINE
  5
1DE
  8
MOBILIARIO
 10
0.7999999999999998
 20
-0.8500000000000001
 30
0.0
 11
0.7999999999999998
 21
-0.0499999999999998
 31
0.0
  0
LINE
  5
1DF
  8
MOBILIARIO
 10
0.5499999999999994
 20
-0.8500000000000001
 30
0.0
 11
0.5500000000000003
 21
-0.2999999999999994
 31
0.0
  0
ARC
  5
1E0
  8
MOBILIARIO
 10
0.75
 20
-0.8500000000000001
 30
0.0
 40
0.05
 50
270.0
 51
0.0
  0
LINE
  5
1E1
  8
MOBILIARIO
 10
0.75
 20
-0.8999999999999999
 30
0.0
 11
0.5999999999999992
 21
-0.8999999999999999
 31
0.0
  0
ARC
  5
1E2
  8
MOBILIARIO
 10
0.5999999999999992
 20
-0.8500000000000001
 30
0.0
 40
0.05
 50
180.0
 51
270.0
  0
LINE
  5
1E3
  8
MOBILIARIO
 10
0.7999999999999998
 20
-0.25
 30
0.0
 11
0.6000000000000001
 21
-0.2499999999999996
 31
0.0
  0
LINE
  5
1E4
  8
MOBILIARIO
 10
0.5499999999999998
 20
-0.3500000000000001
 30
0.0
 11
0.5499999999999998
 21
-0.25
 31
0.0
  0
ARC
  5
1E5
  8
MOBILIARIO
 10
0.6000000000000001
 20
-0.2999999999999994
 30
0.0
 40
0.05
 50
90.0
 51
179.9999999999999
  0
ARC
  5
1E6
  8
MOBILIARIO
 10
0.75
 20
-0.0499999999999998
 30
0.0
 40
0.05
 50
0.0
 51
90.0
  0
ENDBLK
  5
1E7
  8
0
  0
BLOCK
  8
0
  2
MESA6
 70
     0
 10
0.0
 20
0.0
 30
0.0
  3
MESA6
  1

  0
LINE
  5
37F
  8
MOBILIARIO
 10
0.0
 20
0.0
 30
0.0
 11
1.0
 21
0.0
 31
0.0
  0
LINE
  5
380
  8
MOBILIARIO
 10
1.0
 20
2.0
 30
0.0
 11
0.0
 21
2.0
 31
0.0
  0
LINE
  5
381
  8
MOBILIARIO
 10
0.7299999999999986
 20
2.24
 30
0.0
 11
0.7299999999999986
 21
2.0
 31
0.0
  0
LINE
  5
382
  8
MOBILIARIO
 10
0.2799999999999994
 20
2.0
 30
0.0
 11
0.2799999999999994
 21
2.24
 31
0.0
  0
LINE
  5
383
  8
MOBILIARIO
 10
-0.1634571563472456
 20
0.8499999999999996
 30
0.0
 11
-0.1645369382451616
 21
0.4003924115284931
 31
0.0
  0
LINE
  5
384
  8
MOBILIARIO
 10
-0.2799999999999994
 20
0.7899999999999991
 30
0.0
 11
-0.2799999999999994
 21
0.4600000000000009
 31
0.0
  0
LINE
  5
385
  8
MOBILIARIO
 10
-0.2999999999999989
 20
0.7899999999999991
 30
0.0
 11
-0.2999999999999989
 21
0.4600000000000009
 31
0.0
  0
LINE
  5
386
  8
MOBILIARIO
 10
0.0
 20
2.0
 30
0.0
 11
0.0
 21
0.0
 31
0.0
  0
LINE
  5
387
  8
MOBILIARIO
 10
-0.2399999999999984
 20
0.4199999999999999
 30
0.0
 11
-0.1644898484725772
 21
0.4199999999999999
 31
0.0
  0
LINE
  5
388
  8
MOBILIARIO
 10
-0.2399999999999984
 20
0.4000000000000004
 30
0.0
 11
0.0
 21
0.4000000000000004
 31
0.0
  0
ARC
  5
389
  8
MOBILIARIO
 10
-0.2399999999999984
 20
0.4600000000000009
 30
0.0
 40
0.04
 50
180.0
 51
270.0
  0
ARC
  5
38A
  8
MOBILIARIO
 10
-0.2399999999999984
 20
0.4600000000000009
 30
0.0
 40
0.06
 50
180.0
 51
270.0
  0
LINE
  5
38B
  8
MOBILIARIO
 10
0.7299999999999986
 20
-0.2400000000000002
 30
0.0
 11
0.7299999999999986
 21
0.0
 31
0.0
  0
LINE
  5
38C
  8
MOBILIARIO
 10
0.2799999999999994
 20
0.0
 30
0.0
 11
0.2799999999999994
 21
-0.2400000000000002
 31
0.0
  0
LINE
  5
38D
  8
MOBILIARIO
 10
0.2799999999999994
 20
-0.1634571563472464
 30
0.0
 11
0.7296075884715059
 21
-0.1645369382451616
 31
0.0
  0
ARC
  5
38E
  8
MOBILIARIO
 10
0.3399999999999999
 20
-0.2400000000000002
 30
0.0
 40
0.06
 50
180.0
 51
270.0
  0
LINE
  5
38F
  8
MOBILIARIO
 10
0.3399999999999999
 20
-0.2799999999999994
 30
0.0
 11
0.6699999999999982
 21
-0.2799999999999994
 31
0.0
  0
LINE
  5
390
  8
MOBILIARIO
 10
0.3399999999999999
 20
-0.2999999999999998
 30
0.0
 11
0.6699999999999982
 21
-0.2999999999999998
 31
0.0
  0
ARC
  5
391
  8
MOBILIARIO
 10
0.3399999999999999
 20
-0.2400000000000002
 30
0.0
 40
0.04
 50
180.0
 51
270.0
  0
LINE
  5
392
  8
MOBILIARIO
 10
0.2999999999999972
 20
-0.1635051885391228
 30
0.0
 11
0.2999999999999989
 21
-0.2400000000000002
 31
0.0
  0
ARC
  5
393
  8
MOBILIARIO
 10
0.6699999999999982
 20
-0.2400000000000002
 30
0.0
 40
0.04
 50
270.0
 51
0.0
  0
ARC
  5
394
  8
MOBILIARIO
 10
0.6699999999999982
 20
-0.2400000000000002
 30
0.0
 40
0.06
 50
270.0
 51
0.0
  0
LINE
  5
395
  8
MOBILIARIO
 10
0.7099999999999991
 20
-0.2400000000000002
 30
0.0
 11
0.7099999999999991
 21
-0.1644898484725772
 31
0.0
  0
LINE
  5
396
  8
MOBILIARIO
 10
0.0
 20
1.15
 30
0.0
 11
-0.2399999999999984
 21
1.15
 31
0.0
  0
LINE
  5
397
  8
MOBILIARIO
 10
-0.2399999999999984
 20
1.6
 30
0.0
 11
0.0
 21
1.6
 31
0.0
  0
LINE
  5
398
  8
MOBILIARIO
 10
-0.163505188539121
 20
1.169999999999998
 30
0.0
 11
-0.2399999999999984
 21
1.17
 31
0.0
  0
LINE
  5
399
  8
MOBILIARIO
 10
-0.2399999999999984
 20
1.58
 30
0.0
 11
-0.1644898484725772
 21
1.58
 31
0.0
  0
LINE
  5
39A
  8
MOBILIARIO
 10
-0.163505188539121
 20
0.8300000000000018
 30
0.0
 11
-0.2399999999999984
 21
0.8300000000000001
 31
0.0
  0
LINE
  5
39B
  8
MOBILIARIO
 10
0.0
 20
0.8499999999999996
 30
0.0
 11
-0.2399999999999984
 21
0.8499999999999996
 31
0.0
  0
LINE
  5
39C
  8
MOBILIARIO
 10
-0.2799999999999994
 20
1.210000000000001
 30
0.0
 11
-0.2799999999999994
 21
1.539999999999999
 31
0.0
  0
LINE
  5
39D
  8
MOBILIARIO
 10
-0.2999999999999989
 20
1.210000000000001
 30
0.0
 11
-0.2999999999999989
 21
1.539999999999999
 31
0.0
  0
ARC
  5
39E
  8
MOBILIARIO
 10
-0.2399999999999984
 20
0.7899999999999991
 30
0.0
 40
0.04
 50
90.0
 51
180.0
  0
ARC
  5
39F
  8
MOBILIARIO
 10
-0.2399999999999984
 20
0.7899999999999991
 30
0.0
 40
0.06
 50
90.0
 51
180.0
  0
ARC
  5
3A0
  8
MOBILIARIO
 10
-0.2399999999999984
 20
1.210000000000001
 30
0.0
 40
0.06
 50
180.0
 51
270.0
  0
ARC
  5
3A1
  8
MOBILIARIO
 10
-0.2399999999999984
 20
1.210000000000001
 30
0.0
 40
0.04
 50
180.0
 51
270.0
  0
ARC
  5
3A2
  8
MOBILIARIO
 10
-0.2399999999999984
 20
1.539999999999999
 30
0.0
 40
0.06
 50
90.0
 51
180.0
  0
ARC
  5
3A3
  8
MOBILIARIO
 10
-0.2399999999999984
 20
1.539999999999999
 30
0.0
 40
0.04
 50
90.0
 51
180.0
  0
LINE
  5
3A4
  8
MOBILIARIO
 10
-0.1634571563472456
 20
1.15
 30
0.0
 11
-0.1645369382451616
 21
1.599607588471507
 31
0.0
  0
ARC
  5
3A5
  8
MOBILIARIO
 10
0.3399999999999999
 20
2.24
 30
0.0
 40
0.06
 50
90.0
 51
180.0
  0
LINE
  5
3A6
  8
MOBILIARIO
 10
0.2799999999999994
 20
2.163457156347246
 30
0.0
 11
0.7296075884715059
 21
2.164536938245162
 31
0.0
  0
LINE
  5
3A7
  8
MOBILIARIO
 10
0.3399999999999999
 20
2.3
 30
0.0
 11
0.6699999999999982
 21
2.3
 31
0.0
  0
LINE
  5
3A8
  8
MOBILIARIO
 10
0.3399999999999999
 20
2.279999999999999
 30
0.0
 11
0.6699999999999982
 21
2.279999999999999
 31
0.0
  0
LINE
  5
3A9
  8
MOBILIARIO
 10
0.2999999999999972
 20
2.163505188539123
 30
0.0
 11
0.2999999999999989
 21
2.24
 31
0.0
  0
ARC
  5
3AA
  8
MOBILIARIO
 10
0.3399999999999999
 20
2.24
 30
0.0
 40
0.04
 50
90.0
 51
180.0
  0
LINE
  5
3AB
  8
MOBILIARIO
 10
0.7099999999999991
 20
2.24
 30
0.0
 11
0.7099999999999991
 21
2.164489848472577
 31
0.0
  0
ARC
  5
3AC
  8
MOBILIARIO
 10
0.6699999999999982
 20
2.24
 30
0.0
 40
0.06
 50
0.0
 51
90.0
  0
ARC
  5
3AD
  8
MOBILIARIO
 10
0.6699999999999982
 20
2.24
 30
0.0
 40
0.04
 50
0.0
 51
90.0
  0
LINE
  5
3AE
  8
MOBILIARIO
 10
1.299999999999999
 20
0.7899999999999991
 30
0.0
 11
1.299999999999999
 21
0.4600000000000009
 31
0.0
  0
LINE
  5
3AF
  8
MOBILIARIO
 10
1.279999999999999
 20
0.7899999999999991
 30
0.0
 11
1.279999999999999
 21
0.4600000000000009
 31
0.0
  0
LINE
  5
3B0
  8
MOBILIARIO
 10
1.163457156347246
 20
0.8499999999999996
 30
0.0
 11
1.164536938245162
 21
0.4003924115284931
 31
0.0
  0
LINE
  5
3B1
  8
MOBILIARIO
 10
1.0
 20
0.0
 30
0.0
 11
1.0
 21
2.0
 31
0.0
  0
LINE
  5
3B2
  8
MOBILIARIO
 10
1.239999999999998
 20
0.4199999999999999
 30
0.0
 11
1.164489848472577
 21
0.4199999999999999
 31
0.0
  0
LINE
  5
3B3
  8
MOBILIARIO
 10
1.239999999999998
 20
0.4000000000000004
 30
0.0
 11
1.0
 21
0.4000000000000004
 31
0.0
  0
ARC
  5
3B4
  8
MOBILIARIO
 10
1.239999999999998
 20
0.4600000000000009
 30
0.0
 40
0.06
 50
270.0
 51
0.0
  0
ARC
  5
3B5
  8
MOBILIARIO
 10
1.239999999999998
 20
0.4600000000000009
 30
0.0
 40
0.04
 50
270.0
 51
0.0
  0
LINE
  5
3B6
  8
MOBILIARIO
 10
1.299999999999999
 20
1.210000000000001
 30
0.0
 11
1.299999999999999
 21
1.539999999999999
 31
0.0
  0
LINE
  5
3B7
  8
MOBILIARIO
 10
1.279999999999999
 20
1.210000000000001
 30
0.0
 11
1.279999999999999
 21
1.539999999999999
 31
0.0
  0
LINE
  5
3B8
  8
MOBILIARIO
 10
1.163457156347246
 20
1.15
 30
0.0
 11
1.164536938245162
 21
1.599607588471507
 31
0.0
  0
LINE
  5
3B9
  8
MOBILIARIO
 10
1.163505188539121
 20
1.169999999999998
 30
0.0
 11
1.239999999999998
 21
1.17
 31
0.0
  0
LINE
  5
3BA
  8
MOBILIARIO
 10
1.0
 20
1.15
 30
0.0
 11
1.239999999999998
 21
1.15
 31
0.0
  0
LINE
  5
3BB
  8
MOBILIARIO
 10
1.163505188539121
 20
0.8300000000000018
 30
0.0
 11
1.239999999999998
 21
0.8300000000000001
 31
0.0
  0
LINE
  5
3BC
  8
MOBILIARIO
 10
1.0
 20
0.8499999999999996
 30
0.0
 11
1.239999999999998
 21
0.8499999999999996
 31
0.0
  0
ARC
  5
3BD
  8
MOBILIARIO
 10
1.239999999999998
 20
0.7899999999999991
 30
0.0
 40
0.06
 50
0.0
 51
90.0
  0
ARC
  5
3BE
  8
MOBILIARIO
 10
1.239999999999998
 20
0.7899999999999991
 30
0.0
 40
0.04
 50
0.0
 51
90.0
  0
ARC
  5
3BF
  8
MOBILIARIO
 10
1.239999999999998
 20
1.210000000000001
 30
0.0
 40
0.06
 50
270.0
 51
0.0
  0
ARC
  5
3C0
  8
MOBILIARIO
 10
1.239999999999998
 20
1.210000000000001
 30
0.0
 40
0.04
 50
270.0
 51
0.0
  0
LINE
  5
3C1
  8
MOBILIARIO
 10
1.239999999999998
 20
1.58
 30
0.0
 11
1.164489848472577
 21
1.58
 31
0.0
  0
LINE
  5
3C2
  8
MOBILIARIO
 10
1.239999999999998
 20
1.6
 30
0.0
 11
1.0
 21
1.6
 31
0.0
  0
ARC
  5
3C3
  8
MOBILIARIO
 10
1.239999999999998
 20
1.539999999999999
 30
0.0
 40
0.04
 50
0.0
 51
90.0
  0
ARC
  5
3C4
  8
MOBILIARIO
 10
1.239999999999998
 20
1.539999999999999
 30
0.0
 40
0.06
 50
0.0
 51
90.0
  0
ENDBLK
  5
3C5
  8
0
  0
BLOCK
  8
0
  2
VASOSAN
 70
     0
 10
0.0
 20
0.0
 30
0.0
  3
VASOSAN
  1

  0
LINE
  5
3C7
  8
SANITARIO
 10
0.1499999999999986
 20
-0.2000000000000002
 30
0.0
 11
0.1499999999999986
 21
-0.3999999999999999
 31
0.0
  0
LINE
  5
3C8
  8
SANITARIO
 10
-0.1500000000000004
 20
-0.3999999999999999
 30
0.0
 11
-0.1500000000000004
 21
-0.2000000000000002
 31
0.0
  0
LINE
  5
3C9
  8
SANITARIO
 10
0.1999999999999993
 20
-0.1000000000000001
 30
0.0
 11
0.1999999999999993
 21
-0.3999999999999999
 31
0.0
  0
LINE
  5
3CA
  8
SANITARIO
 10
-0.2000000000000011
 20
-0.3999999999999999
 30
0.0
 11
-0.2000000000000011
 21
-0.1000000000000001
 31
0.0
  0
ARC
  5
3CB
  8
SANITARIO
 10
-0.0000000000000018
 20
-0.3999999999999999
 30
0.0
 40
0.1499999999999993
 50
180.0
 51
0.0
  0
ARC
  5
3CC
  8
SANITARIO
 10
-0.0000000000000018
 20
-0.3999999999999999
 30
0.0
 40
0.1999999999999993
 50
180.0
 51
0.0
  0
LINE
  5
3CD
  8
SANITARIO
 10
-0.0500000000000007
 20
0.0
 30
0.0
 11
0.0499999999999989
 21
0.0
 31
0.0
  0
LINE
  5
3CE
  8
SANITARIO
 10
-0.1500000000000004
 20
-0.2000000000000002
 30
0.0
 11
0.1499999999999986
 21
-0.2000000000000002
 31
0.0
  0
LINE
  5
3CF
  8
SANITARIO
 10
-0.2000000000000011
 20
-0.1000000000000001
 30
0.0
 11
0.1999999999999993
 21
-0.1000000000000001
 31
0.0
  0
LINE
  5
3D0
  8
SANITARIO
 10
-0.0500000000000007
 20
-0.1000000000000001
 30
0.0
 11
-0.0500000000000007
 21
0.0
 31
0.0
  0
LINE
  5
3D1
  8
SANITARIO
 10
0.0499999999999989
 20
0.0
 30
0.0
 11
0.0499999999999989
 21
-0.1000000000000001
 31
0.0
  0
ENDBLK
  5
3D2
  8
0
  0
ENDSEC
  0
SECTION
  2
ENTITIES
  0
INSERT
  5
B0
  8
ASHADE
 62
     1
  2
AVE_RENDER
 10
0.0
 20
0.0
 30
0.0
1001
AVE_RENDER
1002
{
1070
     2
1000
Pref
1070
    30
1070
    20
1070
     0
1070
     0
1000

1070
    10
1070
     0
1070
    30
1040
1.0
1070
     1
1040
0.3
1040
0.7
1040
0.0
1040
10.0
1010
-1.0
1020
-1.0
1030
-1.0
1040
0.3
1070
    49
1002
}
  0
INSERT
  5
B1
  8
ASHADE
 62
     3
  2
AVE_RENDER
 10
0.0
 20
0.0
 30
0.0
1001
AVE_RENDER
1002
{
1070
     0
1000
Full Opt
1070
     0
1070
     1
1070
     1
1070
     1
1070
     0
1070
     0
1070
     0
1070
     1
1070
     1
1040
0.0001
1040
0.0001
1002
}
  0
INSERT
  5
B2
  8
ASHADE
 62
     4
  2
AVE_RENDER
 10
0.0
 20
0.0
 30
0.0
1001
AVE_RENDER
1002
{
1070
     0
1000
Quick Opt
1070
     0
1070
     1
1070
     1
1070
     1
1070
     0
1070
     0
1070
     1
1002
}
  0
LINE
  5
416
  8
0
 62
     0
 10
2.184534271500858
 20
5.770474470522922
 30
0.0
 11
2.184534271500858
 21
6.770474470522922
 31
0.0
  0
LINE
  5
417
  8
0
 62
     0
 10
0.1845342715008584
 20
6.770474470522922
 30
0.0
 11
0.1845342715008584
 21
5.770474470522922
 31
0.0
  0
LINE
  5
418
  8
0
 62
     0
 10
-0.0554657284991418
 20
6.500474470522921
 30
0.0
 11
0.1845342715008584
 21
6.500474470522921
 31
0.0
  0
LINE
  5
419
  8
0
 62
     0
 10
0.1845342715008584
 20
6.050474470522921
 30
0.0
 11
-0.0554657284991418
 21
6.050474470522921
 31
0.0
  0
LINE
  5
41A
  8
0
 62
     0
 10
1.334534271500859
 20
5.607017314175677
 30
0.0
 11
1.784141859972365
 21
5.60593753227776
 31
0.0
  0
LINE
  5
41B
  8
0
 62
     0
 10
1.394534271500859
 20
5.490474470522923
 30
0.0
 11
1.724534271500858
 21
5.490474470522923
 31
0.0
  0
LINE
  5
41C
  8
0
 62
     0
 10
1.394534271500859
 20
5.470474470522923
 30
0.0
 11
1.724534271500858
 21
5.470474470522923
 31
0.0
  0
LINE
  5
41D
  8
0
 62
     0
 10
0.1845342715008584
 20
5.770474470522922
 30
0.0
 11
2.184534271500858
 21
5.770474470522922
 31
0.0
  0
LINE
  5
41E
  8
0
 62
     0
 10
1.764534271500859
 20
5.530474470522924
 30
0.0
 11
1.764534271500859
 21
5.605984622050345
 31
0.0
  0
LINE
  5
41F
  8
0
 62
     0
 10
1.784534271500858
 20
5.530474470522924
 30
0.0
 11
1.784534271500858
 21
5.770474470522922
 31
0.0
  0
ARC
  5
420
  8
0
 62
     0
 10
1.724534271500858
 20
5.530474470522924
 30
0.0
 40
0.04
 50
270.0
 51
0.0
  0
ARC
  5
421
  8
0
 62
     0
 10
1.724534271500858
 20
5.530474470522924
 30
0.0
 40
0.06
 50
270.0
 51
0.0
  0
LINE
  5
422
  8
0
 62
     0
 10
2.424534271500859
 20
6.500474470522921
 30
0.0
 11
2.184534271500858
 21
6.500474470522921
 31
0.0
  0
LINE
  5
423
  8
0
 62
     0
 10
2.184534271500858
 20
6.050474470522921
 30
0.0
 11
2.424534271500859
 21
6.050474470522921
 31
0.0
  0
LINE
  5
424
  8
0
 62
     0
 10
2.347991427848105
 20
6.050474470522921
 30
0.0
 11
2.34907120974602
 21
6.500082058994428
 31
0.0
  0
ARC
  5
425
  8
0
 62
     0
 10
2.424534271500859
 20
6.110474470522922
 30
0.0
 40
0.06
 50
270.0
 51
0.0
  0
LINE
  5
426
  8
0
 62
     0
 10
2.464534271500858
 20
6.110474470522922
 30
0.0
 11
2.464534271500858
 21
6.44047447052292
 31
0.0
  0
LINE
  5
427
  8
0
 62
     0
 10
2.484534271500858
 20
6.110474470522922
 30
0.0
 11
2.484534271500858
 21
6.44047447052292
 31
0.0
  0
ARC
  5
428
  8
0
 62
     0
 10
2.424534271500859
 20
6.110474470522922
 30
0.0
 40
0.04
 50
270.0
 51
0.0
  0
LINE
  5
429
  8
0
 62
     0
 10
2.348039460039981
 20
6.070474470522919
 30
0.0
 11
2.424534271500859
 21
6.070474470522921
 31
0.0
  0
ARC
  5
42A
  8
0
 62
     0
 10
2.424534271500859
 20
6.44047447052292
 30
0.0
 40
0.04
 50
0.0
 51
90.0
  0
ARC
  5
42B
  8
0
 62
     0
 10
2.424534271500859
 20
6.44047447052292
 30
0.0
 40
0.06
 50
0.0
 51
90.0
  0
LINE
  5
42C
  8
0
 62
     0
 10
2.424534271500859
 20
6.480474470522921
 30
0.0
 11
2.349024119973436
 21
6.480474470522921
 31
0.0
  0
LINE
  5
42D
  8
0
 62
     0
 10
1.034534271500858
 20
5.770474470522922
 30
0.0
 11
1.034534271500858
 21
5.530474470522924
 31
0.0
  0
LINE
  5
42E
  8
0
 62
     0
 10
0.5845342715008588
 20
5.530474470522924
 30
0.0
 11
0.5845342715008588
 21
5.770474470522922
 31
0.0
  0
LINE
  5
42F
  8
0
 62
     0
 10
1.01453427150086
 20
5.606969281983801
 30
0.0
 11
1.014534271500859
 21
5.530474470522924
 31
0.0
  0
LINE
  5
430
  8
0
 62
     0
 10
0.6045342715008584
 20
5.530474470522924
 30
0.0
 11
0.6045342715008584
 21
5.605984622050345
 31
0.0
  0
LINE
  5
431
  8
0
 62
     0
 10
1.354534271500857
 20
5.606969281983801
 30
0.0
 11
1.354534271500858
 21
5.530474470522924
 31
0.0
  0
LINE
  5
432
  8
0
 62
     0
 10
1.334534271500859
 20
5.770474470522922
 30
0.0
 11
1.334534271500859
 21
5.530474470522924
 31
0.0
  0
LINE
  5
433
  8
0
 62
     0
 10
0.9745342715008576
 20
5.490474470522923
 30
0.0
 11
0.6445342715008593
 21
5.490474470522923
 31
0.0
  0
LINE
  5
434
  8
0
 62
     0
 10
0.9745342715008576
 20
5.470474470522923
 30
0.0
 11
0.6445342715008593
 21
5.470474470522923
 31
0.0
  0
ARC
  5
435
  8
0
 62
     0
 10
1.394534271500859
 20
5.530474470522924
 30
0.0
 40
0.04
 50
180.0
 51
270.0
  0
ARC
  5
436
  8
0
 62
     0
 10
1.394534271500859
 20
5.530474470522924
 30
0.0
 40
0.06
 50
180.0
 51
270.0
  0
ARC
  5
437
  8
0
 62
     0
 10
0.9745342715008576
 20
5.530474470522924
 30
0.0
 40
0.06
 50
270.0
 51
0.0
  0
ARC
  5
438
  8
0
 62
     0
 10
0.9745342715008576
 20
5.530474470522924
 30
0.0
 40
0.04
 50
270.0
 51
0.0
  0
ARC
  5
439
  8
0
 62
     0
 10
0.6445342715008593
 20
5.530474470522924
 30
0.0
 40
0.06
 50
180.0
 51
270.0
  0
ARC
  5
43A
  8
0
 62
     0
 10
0.6445342715008593
 20
5.530474470522924
 30
0.0
 40
0.04
 50
180.0
 51
270.0
  0
LINE
  5
43B
  8
0
 62
     0
 10
1.034534271500858
 20
5.607017314175677
 30
0.0
 11
0.5849266830293516
 21
5.60593753227776
 31
0.0
  0
ARC
  5
43C
  8
0
 62
     0
 10
-0.0554657284991418
 20
6.110474470522922
 30
0.0
 40
0.06
 50
180.0
 51
270.0
  0
LINE
  5
43D
  8
0
 62
     0
 10
0.021077115153612
 20
6.050474470522921
 30
0.0
 11
0.0199973332556969
 21
6.500082058994428
 31
0.0
  0
LINE
  5
43E
  8
0
 62
     0
 10
-0.1154657284991414
 20
6.110474470522922
 30
0.0
 11
-0.1154657284991414
 21
6.44047447052292
 31
0.0
  0
LINE
  5
43F
  8
0
 62
     0
 10
-0.0954657284991409
 20
6.110474470522922
 30
0.0
 11
-0.0954657284991409
 21
6.44047447052292
 31
0.0
  0
LINE
  5
440
  8
0
 62
     0
 10
0.0210290829617357
 20
6.070474470522919
 30
0.0
 11
-0.0554657284991418
 21
6.070474470522921
 31
0.0
  0
ARC
  5
441
  8
0
 62
     0
 10
-0.0554657284991418
 20
6.110474470522922
 30
0.0
 40
0.04
 50
180.0
 51
270.0
  0
LINE
  5
442
  8
0
 62
     0
 10
-0.0554657284991418
 20
6.480474470522921
 30
0.0
 11
0.0200444230282812
 21
6.480474470522921
 31
0.0
  0
ARC
  5
443
  8
0
 62
     0
 10
-0.0554657284991418
 20
6.44047447052292
 30
0.0
 40
0.06
 50
90.0
 51
180.0
  0
ARC
  5
444
  8
0
 62
     0
 10
-0.0554657284991418
 20
6.44047447052292
 30
0.0
 40
0.04
 50
90.0
 51
180.0
  0
LINE
  5
445
  8
0
 62
     0
 10
1.394534271500859
 20
7.070474470522921
 30
0.0
 11
1.724534271500858
 21
7.070474470522921
 31
0.0
  0
LINE
  5
446
  8
0
 62
     0
 10
1.394534271500859
 20
7.050474470522921
 30
0.0
 11
1.724534271500858
 21
7.050474470522921
 31
0.0
  0
LINE
  5
447
  8
0
 62
     0
 10
1.334534271500859
 20
6.933931626870168
 30
0.0
 11
1.784141859972365
 21
6.935011408768084
 31
0.0
  0
LINE
  5
448
  8
0
 62
     0
 10
2.184534271500858
 20
6.770474470522922
 30
0.0
 11
0.1845342715008584
 21
6.770474470522922
 31
0.0
  0
LINE
  5
449
  8
0
 62
     0
 10
1.764534271500859
 20
7.01047447052292
 30
0.0
 11
1.764534271500859
 21
6.934964318995499
 31
0.0
  0
LINE
  5
44A
  8
0
 62
     0
 10
1.784534271500858
 20
7.01047447052292
 30
0.0
 11
1.784534271500858
 21
6.770474470522922
 31
0.0
  0
ARC
  5
44B
  8
0
 62
     0
 10
1.724534271500858
 20
7.01047447052292
 30
0.0
 40
0.06
 50
0.0
 51
90.0
  0
ARC
  5
44C
  8
0
 62
     0
 10
1.724534271500858
 20
7.01047447052292
 30
0.0
 40
0.04
 50
0.0
 51
90.0
  0
LINE
  5
44D
  8
0
 62
     0
 10
0.9745342715008576
 20
7.070474470522921
 30
0.0
 11
0.6445342715008593
 21
7.070474470522921
 31
0.0
  0
LINE
  5
44E
  8
0
 62
     0
 10
0.9745342715008576
 20
7.050474470522921
 30
0.0
 11
0.6445342715008593
 21
7.050474470522921
 31
0.0
  0
LINE
  5
44F
  8
0
 62
     0
 10
1.034534271500858
 20
6.933931626870168
 30
0.0
 11
0.5849266830293516
 21
6.935011408768084
 31
0.0
  0
LINE
  5
450
  8
0
 62
     0
 10
1.01453427150086
 20
6.933979659062043
 30
0.0
 11
1.014534271500859
 21
7.01047447052292
 31
0.0
  0
LINE
  5
451
  8
0
 62
     0
 10
1.034534271500858
 20
6.770474470522922
 30
0.0
 11
1.034534271500858
 21
7.01047447052292
 31
0.0
  0
LINE
  5
452
  8
0
 62
     0
 10
1.354534271500857
 20
6.933979659062043
 30
0.0
 11
1.354534271500858
 21
7.01047447052292
 31
0.0
  0
LINE
  5
453
  8
0
 62
     0
 10
1.334534271500859
 20
6.770474470522922
 30
0.0
 11
1.334534271500859
 21
7.01047447052292
 31
0.0
  0
ARC
  5
454
  8
0
 62
     0
 10
1.394534271500859
 20
7.01047447052292
 30
0.0
 40
0.06
 50
90.0
 51
180.0
  0
ARC
  5
455
  8
0
 62
     0
 10
1.394534271500859
 20
7.01047447052292
 30
0.0
 40
0.04
 50
90.0
 51
180.0
  0
ARC
  5
456
  8
0
 62
     0
 10
0.9745342715008576
 20
7.01047447052292
 30
0.0
 40
0.06
 50
0.0
 51
90.0
  0
ARC
  5
457
  8
0
 62
     0
 10
0.9745342715008576
 20
7.01047447052292
 30
0.0
 40
0.04
 50
0.0
 51
90.0
  0
LINE
  5
458
  8
0
 62
     0
 10
0.6045342715008584
 20
7.01047447052292
 30
0.0
 11
0.6045342715008584
 21
6.934964318995499
 31
0.0
  0
LINE
  5
459
  8
0
 62
     0
 10
0.5845342715008588
 20
7.01047447052292
 30
0.0
 11
0.5845342715008588
 21
6.770474470522922
 31
0.0
  0
ARC
  5
45A
  8
0
 62
     0
 10
0.6445342715008593
 20
7.01047447052292
 30
0.0
 40
0.04
 50
90.0
 51
180.0
  0
ARC
  5
45B
  8
0
 62
     0
 10
0.6445342715008593
 20
7.01047447052292
 30
0.0
 40
0.06
 50
90.0
 51
180.0
  0
ENDSEC
  0
EOF
