  0
SECTION
  2
HEADER
  9
$ACADVER
  1
AC1009
  9
$DWGCODEPAGE
  3
ansi_1252
  9
$INSBASE
 10
2.1628903996705
 20
4.098817831339723
 30
0.0
  9
$EXTMIN
 10
2.1628903996705
 20
3.598817831339722
 30
0.0
  9
$EXTMAX
 10
4.062890399670501
 20
4.598817831339723
 30
0.0
  9
$LIMMIN
 10
0.0
 20
0.0
  9
$LIMMAX
 10
12.0
 20
9.0
  9
$ORTHOMODE
 70
     0
  9
$REGENMODE
 70
     1
  9
$FILLMODE
 70
     1
  9
$QTEXTMODE
 70
     0
  9
$MIRRTEXT
 70
     1
  9
$DRAGMODE
 70
     2
  9
$LTSCALE
 40
1.0
  9
$OSMODE
 70
    37
  9
$ATTMODE
 70
     1
  9
$TEXTSIZE
 40
0.04
  9
$TRACEWID
 40
0.05
  9
$TEXTSTYLE
  7
STANDARD
  9
$CLAYER
  8
0
  9
$CELTYPE
  6
BYLAYER
  9
$CECOLOR
 62
   256
  9
$DIMSCALE
 40
1.0
  9
$DIMASZ
 40
0.18
  9
$DIMEXO
 40
0.0625
  9
$DIMDLI
 40
0.38
  9
$DIMRND
 40
0.0
  9
$DIMDLE
 40
0.0
  9
$DIMEXE
 40
0.18
  9
$DIMTP
 40
0.0
  9
$DIMTM
 40
0.0
  9
$DIMTXT
 40
0.18
  9
$DIMCEN
 40
0.09
  9
$DIMTSZ
 40
0.0
  9
$DIMTOL
 70
     0
  9
$DIMLIM
 70
     0
  9
$DIMTIH
 70
     1
  9
$DIMTOH
 70
     1
  9
$DIMSE1
 70
     0
  9
$DIMSE2
 70
     0
  9
$DIMTAD
 70
     0
  9
$DIMZIN
 70
     0
  9
$DIMBLK
  1

  9
$DIMASO
 70
     1
  9
$DIMSHO
 70
     1
  9
$DIMPOST
  1

  9
$DIMAPOST
  1

  9
$DIMALT
 70
     0
  9
$DIMALTD
 70
     2
  9
$DIMALTF
 40
25.4
  9
$DIMLFAC
 40
1.0
  9
$DIMTOFL
 70
     0
  9
$DIMTVP
 40
0.0
  9
$DIMTIX
 70
     0
  9
$DIMSOXD
 70
     0
  9
$DIMSAH
 70
     0
  9
$DIMBLK1
  1

  9
$DIMBLK2
  1

  9
$DIMSTYLE
  2
STANDARD
  9
$DIMCLRD
 70
     0
  9
$DIMCLRE
 70
     0
  9
$DIMCLRT
 70
     0
  9
$DIMTFAC
 40
1.0
  9
$DIMGAP
 40
0.09
  9
$LUNITS
 70
     2
  9
$LUPREC
 70
     4
  9
$SKETCHINC
 40
0.1
  9
$FILLETRAD
 40
0.0
  9
$AUNITS
 70
     0
  9
$AUPREC
 70
     0
  9
$MENU
  1
acad
  9
$ELEVATION
 40
0.0
  9
$PELEVATION
 40
0.0
  9
$THICKNESS
 40
0.0
  9
$LIMCHECK
 70
     0
  9
$CHAMFERA
 40
0.0
  9
$CHAMFERB
 40
0.0
  9
$SKPOLY
 70
     0
  9
$TDCREATE
 40
2450189.667098032
  9
$TDUPDATE
 40
2458028.605775463
  9
$TDINDWG
 40
0.0263427199
  9
$TDUSRTIMER
 40
0.0263427199
  9
$USRTIMER
 70
     1
  9
$ANGBASE
 50
0.0
  9
$ANGDIR
 70
     0
  9
$PDMODE
 70
     3
  9
$PDSIZE
 40
0.0
  9
$PLINEWID
 40
0.0
  9
$COORDS
 70
     1
  9
$SPLFRAME
 70
     0
  9
$SPLINETYPE
 70
     6
  9
$SPLINESEGS
 70
     8
  9
$ATTDIA
 70
     0
  9
$ATTREQ
 70
     1
  9
$HANDLING
 70
     1
  9
$HANDSEED
  5
497
  9
$SURFTAB1
 70
     6
  9
$SURFTAB2
 70
     6
  9
$SURFTYPE
 70
     6
  9
$SURFU
 70
     6
  9
$SURFV
 70
     6
  9
$UCSNAME
  2

  9
$UCSORG
 10
0.0
 20
0.0
 30
0.0
  9
$UCSXDIR
 10
1.0
 20
0.0
 30
0.0
  9
$UCSYDIR
 10
0.0
 20
1.0
 30
0.0
  9
$PUCSNAME
  2

  9
$PUCSORG
 10
0.0
 20
0.0
 30
0.0
  9
$PUCSXDIR
 10
1.0
 20
0.0
 30
0.0
  9
$PUCSYDIR
 10
0.0
 20
1.0
 30
0.0
  9
$USERI1
 70
     0
  9
$USERI2
 70
     0
  9
$USERI3
 70
     0
  9
$USERI4
 70
     0
  9
$USERI5
 70
     0
  9
$USERR1
 40
0.0
  9
$USERR2
 40
0.0
  9
$USERR3
 40
0.0
  9
$USERR4
 40
0.0
  9
$USERR5
 40
0.0
  9
$WORLDVIEW
 70
     1
  9
$SHADEDGE
 70
     3
  9
$SHADEDIF
 70
    70
  9
$TILEMODE
 70
     1
  9
$MAXACTVP
 70
    16
  9
$PLIMCHECK
 70
     0
  9
$PEXTMIN
 10
1.000000000000000E+20
 20
1.000000000000000E+20
 30
1.000000000000000E+20
  9
$PEXTMAX
 10
-1.000000000000000E+20
 20
-1.000000000000000E+20
 30
-1.000000000000000E+20
  9
$PLIMMIN
 10
0.0
 20
0.0
  9
$PLIMMAX
 10
12.0
 20
9.0
  9
$UNITMODE
 70
     0
  9
$VISRETAIN
 70
     0
  9
$PLINEGEN
 70
     0
  9
$PSLTSCALE
 70
     1
  0
ENDSEC
  0
SECTION
  2
TABLES
  0
TABLE
  2
VPORT
 70
     1
  0
VPORT
  2
*ACTIVE
 70
     0
 10
0.0
 20
0.0
 11
1.0
 21
1.0
 12
3.115418682253826
 22
4.09062971364077
 13
0.0
 23
0.0
 14
1.0
 24
1.0
 15
0.0
 25
0.0
 16
0.0
 26
0.0
 36
1.0
 17
0.0
 27
0.0
 37
0.0
 40
1.456289169393018
 41
1.503537735849057
 42
50.0
 43
0.0
 44
0.0
 50
0.0
 51
0.0
 71
     0
 72
   100
 73
     1
 74
     1
 75
     0
 76
     0
 77
     0
 78
     0
  0
ENDTAB
  0
TABLE
  2
LTYPE
 70
     1
  0
LTYPE
  2
CONTINUOUS
 70
     0
  3
Solid line
 72
    65
 73
     0
 40
0.0
  0
ENDTAB
  0
TABLE
  2
LAYER
 70
     3
  0
LAYER
  2
0
 70
     0
 62
     7
  6
CONTINUOUS
  0
LAYER
  2
DEFPOINTS
 70
     0
 62
     7
  6
CONTINUOUS
  0
LAYER
  2
ARQ-MOB
 70
     0
 62
     2
  6
CONTINUOUS
  0
ENDTAB
  0
TABLE
  2
STYLE
 70
     1
  0
STYLE
  2
STANDARD
 70
     0
 40
0.0
 41
1.0
 50
0.0
 71
     0
 42
0.04
  3
txt
  4

  0
ENDTAB
  0
TABLE
  2
VIEW
 70
     0
  0
ENDTAB
  0
TABLE
  2
UCS
 70
     0
  0
ENDTAB
  0
TABLE
  2
APPID
 70
     2
  0
APPID
  2
ACAD
 70
     0
  0
APPID
  2
DCO15
 70
     0
  0
ENDTAB
  0
TABLE
  2
DIMSTYLE
 70
     1
  0
DIMSTYLE
  2
STANDARD
 70
     0
  3

  4

  5

  6

  7

 40
1.0
 41
0.18
 42
0.0625
 43
0.38
 44
0.18
 45
0.0
 46
0.0
 47
0.0
 48
0.0
140
0.18
141
0.09
142
0.0
143
25.4
144
1.0
145
0.0
146
1.0
147
0.09
 71
     0
 72
     0
 73
     1
 74
     1
 75
     0
 76
     0
 77
     0
 78
     0
170
     0
171
     2
172
     0
173
     0
174
     0
175
     0
176
     0
177
     0
178
     0
  0
ENDTAB
  0
ENDSEC
  0
SECTION
  2
BLOCKS
  0
BLOCK
  8
0
  2
$MODEL_SPACE
 70
     0
 10
0.0
 20
0.0
 30
0.0
  3
$MODEL_SPACE
  1

  0
ENDBLK
  5
9
  8
0
  0
BLOCK
 67
     1
  8
0
  2
$PAPER_SPACE
 70
     0
 10
0.0
 20
0.0
 30
0.0
  3
$PAPER_SPACE
  1

  0
ENDBLK
  5
E
 67
     1
  8
0
  0
ENDSEC
  0
SECTION
  2
ENTITIES
  0
LINE
  5
24
  8
0
 62
     0
 10
3.9628903996705
 20
4.448817831339723
 30
0.0
 11
2.267890399670499
 21
4.448817831339723
 31
0.0
  0
LINE
  5
26
  8
0
 62
     0
 10
3.9628903996705
 20
3.748817831339722
 30
0.0
 11
2.2628903996705
 21
3.748817831339722
 31
0.0
  0
LINE
  5
27
  8
0
 62
     0
 10
2.267890399670499
 20
3.658817831339722
 30
0.0
 11
2.2928903996705
 21
3.658817831339722
 31
0.0
  0
LINE
  5
29
  8
0
 62
     0
 10
2.7328903996705
 20
3.658817831339721
 30
0.0
 11
2.7578903996705
 21
3.658817831339721
 31
0.0
  0
LINE
  5
2A
  8
0
 62
     0
 10
2.6128903996705
 20
3.640977499805536
 30
0.0
 11
2.6128903996705
 21
3.61094986022564
 31
0.0
  0
LINE
  5
2B
  8
0
 62
     0
 10
2.4128903996705
 20
3.640977499805536
 30
0.0
 11
2.4128903996705
 21
3.61094986022564
 31
0.0
  0
CIRCLE
  5
2C
  8
0
 62
     0
 10
2.503162663631028
 20
3.88545274616325
 30
0.0
 40
0.09
  0
CIRCLE
  5
2D
  8
0
 62
     0
 10
2.503162663631028
 20
3.88545274616325
 30
0.0
 40
0.065
  0
CIRCLE
  5
2E
  8
0
 62
     0
 10
2.503162663631028
 20
3.88545274616325
 30
0.0
 40
0.115
  0
LINE
  5
2F
  8
0
 62
     0
 10
2.650309372384504
 20
3.879755316445398
 30
0.0
 11
2.664309372384504
 21
3.879755316445397
 31
0.0
  0
LINE
  5
30
  8
0
 62
     0
 10
2.356015954877552
 20
3.879755316445398
 30
0.0
 11
2.342015954877552
 21
3.879755316445397
 31
0.0
  0
CIRCLE
  5
31
  8
0
 62
     0
 10
2.625220433355018
 20
4.007843215293109
 30
0.0
 40
0.035
  0
CIRCLE
  5
32
  8
0
 62
     0
 10
2.625220433355018
 20
4.007843215293109
 30
0.0
 40
0.025
  0
CIRCLE
  5
33
  8
0
 62
     0
 10
2.549047698506976
 20
4.040766125523221
 30
0.0
 40
0.02
  0
CIRCLE
  5
34
  8
0
 62
     0
 10
2.549047698506976
 20
4.040766125523221
 30
0.0
 40
0.03
  0
CIRCLE
  5
35
  8
0
 62
     0
 10
3.163775434546448
 20
4.038655028523949
 30
0.0
 40
0.03
  0
CIRCLE
  5
36
  8
0
 62
     0
 10
3.163775434546448
 20
4.038655028523949
 30
0.0
 40
0.02
  0
CIRCLE
  5
37
  8
0
 62
     0
 10
3.239948169394491
 20
4.005732118293837
 30
0.0
 40
0.025
  0
CIRCLE
  5
38
  8
0
 62
     0
 10
3.239948169394491
 20
4.005732118293837
 30
0.0
 40
0.035
  0
CIRCLE
  5
39
  8
0
 62
     0
 10
3.1178903996705
 20
3.88545274616325
 30
0.0
 40
0.115
  0
CIRCLE
  5
3A
  8
0
 62
     0
 10
3.1178903996705
 20
3.88545274616325
 30
0.0
 40
0.065
  0
CIRCLE
  5
3B
  8
0
 62
     0
 10
3.1178903996705
 20
3.88545274616325
 30
0.0
 40
0.09
  0
CIRCLE
  5
3C
  8
0
 62
     0
 10
3.7178903996705
 20
3.88545274616325
 30
0.0
 40
0.09
  0
CIRCLE
  5
3D
  8
0
 62
     0
 10
3.7178903996705
 20
3.88545274616325
 30
0.0
 40
0.065
  0
CIRCLE
  5
3E
  8
0
 62
     0
 10
3.7178903996705
 20
3.88545274616325
 30
0.0
 40
0.115
  0
CIRCLE
  5
3F
  8
0
 62
     0
 10
3.839948169394491
 20
4.005732128397777
 30
0.0
 40
0.035
  0
CIRCLE
  5
40
  8
0
 62
     0
 10
3.839948169394491
 20
4.005732128397777
 30
0.0
 40
0.025
  0
CIRCLE
  5
41
  8
0
 62
     0
 10
3.763775434546448
 20
4.038655038627889
 30
0.0
 40
0.02
  0
CIRCLE
  5
42
  8
0
 62
     0
 10
3.763775434546448
 20
4.038655038627889
 30
0.0
 40
0.03
  0
LINE
  5
43
  8
0
 62
     0
 10
2.672363874804004
 20
4.317880346234048
 30
0.0
 11
2.658363874804004
 21
4.317880346234048
 31
0.0
  0
CIRCLE
  5
44
  8
0
 62
     0
 10
2.5128903996705
 20
4.312182916516196
 30
0.0
 40
0.115
  0
CIRCLE
  5
45
  8
0
 62
     0
 10
2.5128903996705
 20
4.312182916516196
 30
0.0
 40
0.065
  0
CIRCLE
  5
46
  8
0
 62
     0
 10
2.5128903996705
 20
4.312182916516196
 30
0.0
 40
0.09
  0
CIRCLE
  5
47
  8
0
 62
     0
 10
2.39083262994651
 20
4.189792447386337
 30
0.0
 40
0.035
  0
CIRCLE
  5
48
  8
0
 62
     0
 10
2.39083262994651
 20
4.189792447386337
 30
0.0
 40
0.025
  0
CIRCLE
  5
49
  8
0
 62
     0
 10
2.467005364794553
 20
4.156869537156226
 30
0.0
 40
0.02
  0
CIRCLE
  5
4A
  8
0
 62
     0
 10
2.467005364794553
 20
4.156869537156226
 30
0.0
 40
0.03
  0
LINE
  5
4B
  8
0
 62
     0
 10
2.365743690917024
 20
4.317880346234048
 30
0.0
 11
2.351743690917024
 21
4.317880346234048
 31
0.0
  0
LINE
  5
4C
  8
0
 62
     0
 10
2.365743690917024
 20
4.320880346234048
 30
0.0
 11
2.351743690917023
 21
4.320880346234048
 31
0.0
  0
LINE
  5
4D
  8
0
 62
     0
 10
2.332458520797571
 20
4.246685661775373
 30
0.0
 11
2.332458520797571
 21
4.382886923473308
 31
0.0
  0
LINE
  5
4E
  8
0
 62
     0
 10
2.332458520797571
 20
4.382886923473308
 30
0.0
 11
2.256621229172222
 21
4.318931550172354
 31
0.0
  0
LINE
  5
4F
  8
0
 62
     0
 10
2.256621229172222
 20
4.318931550172354
 30
0.0
 11
2.332458520797571
 21
4.246685661775373
 31
0.0
  0
CIRCLE
  5
50
  8
0
 62
     0
 10
3.072005364794553
 20
4.156869537156226
 30
0.0
 40
0.03
  0
CIRCLE
  5
51
  8
0
 62
     0
 10
3.072005364794553
 20
4.156869537156226
 30
0.0
 40
0.02
  0
CIRCLE
  5
52
  8
0
 62
     0
 10
2.99583262994651
 20
4.189792447386337
 30
0.0
 40
0.025
  0
CIRCLE
  5
53
  8
0
 62
     0
 10
2.99583262994651
 20
4.189792447386337
 30
0.0
 40
0.035
  0
CIRCLE
  5
54
  8
0
 62
     0
 10
3.1178903996705
 20
4.312182916516196
 30
0.0
 40
0.09
  0
CIRCLE
  5
55
  8
0
 62
     0
 10
3.1178903996705
 20
4.312182916516196
 30
0.0
 40
0.065
  0
CIRCLE
  5
56
  8
0
 62
     0
 10
3.1178903996705
 20
4.312182916516196
 30
0.0
 40
0.115
  0
CIRCLE
  5
57
  8
0
 62
     0
 10
3.7178903996705
 20
4.312182916516196
 30
0.0
 40
0.065
  0
CIRCLE
  5
58
  8
0
 62
     0
 10
3.7178903996705
 20
4.312182916516196
 30
0.0
 40
0.09
  0
CIRCLE
  5
59
  8
0
 62
     0
 10
3.59583262994651
 20
4.189792447386337
 30
0.0
 40
0.035
  0
CIRCLE
  5
5A
  8
0
 62
     0
 10
3.59583262994651
 20
4.189792447386337
 30
0.0
 40
0.025
  0
CIRCLE
  5
5B
  8
0
 62
     0
 10
3.672005364794553
 20
4.156869537156226
 30
0.0
 40
0.02
  0
CIRCLE
  5
5C
  8
0
 62
     0
 10
3.672005364794553
 20
4.156869537156226
 30
0.0
 40
0.03
  0
CIRCLE
  5
5D
  8
0
 62
     0
 10
3.7178903996705
 20
4.312182916516196
 30
0.0
 40
0.115
  0
CIRCLE
  5
5E
  8
0
 62
     0
 10
2.822504362542622
 20
4.135122415130237
 30
0.0
 40
0.045
  0
CIRCLE
  5
5F
  8
0
 62
     0
 10
2.822504362542622
 20
4.135122415130237
 30
0.0
 40
0.0075
  0
ARC
  5
60
  8
0
 62
     0
 10
2.81891536016904
 20
4.149927515049358
 30
0.0
 40
0.0133853683040066
 50
134.4227966434752
 51
254.1377152069309
  0
ARC
  5
61
  8
0
 62
     0
 10
2.668979736811545
 20
3.980941504279881
 30
0.0
 40
0.2272389703789897
 50
49.29636974838056
 51
51.78713921097732
  0
ARC
  5
62
  8
0
 62
     0
 10
2.816556390984926
 20
4.124415624845435
 30
0.0
 40
0.0195716657534178
 50
115.643064402024
 51
179.7158947081999
  0
ARC
  5
63
  8
0
 62
     0
 10
2.802219554236665
 20
4.109761399438137
 30
0.0
 40
0.0156525064186993
 50
76.18435037943632
 51
109.5375721677334
  0
ARC
  5
64
  8
0
 62
     0
 10
2.809361602441844
 20
4.135804010076852
 30
0.0
 40
0.0113647870258858
 50
252.5698031582693
 51
322.3906808294901
  0
ARC
  5
65
  8
0
 62
     0
 10
2.830744314360111
 20
4.147551944300105
 30
0.0
 40
0.0128035227625981
 50
75.28733807561511
 51
166.4123680570854
  0
ARC
  5
66
  8
0
 62
     0
 10
2.834534412624062
 20
4.177215783194934
 30
0.0
 40
0.0172885069267911
 50
268.2155151308605
 51
283.1999382022621
  0
ARC
  5
67
  8
0
 62
     0
 10
2.840287041514809
 20
4.138668016799178
 30
0.0
 40
0.0111808671203571
 50
53.0632165660594
 51
130.4744423424351
  0
ARC
  5
68
  8
0
 62
     0
 10
2.854495463708825
 20
4.138230462741704
 30
0.0
 40
0.0119988186574857
 50
128.6222838200798
 51
168.3432681842454
  0
ARC
  5
69
  8
0
 62
     0
 10
2.832091570553924
 20
4.145078447794043
 30
0.0
 40
0.0115345280840491
 50
258.9420267299649
 51
337.4484940396716
  0
ARC
  5
6A
  8
0
 62
     0
 10
2.811599227362612
 20
4.163749368537633
 30
0.0
 40
0.0270928351900844
 50
304.0319612523783
 51
352.8646201388394
  0
ARC
  5
6B
  8
0
 62
     0
 10
2.793448844390749
 20
4.141561702239561
 30
0.0
 40
0.0264292423031173
 50
1.264954963038472
 51
26.15027142437419
  0
ARC
  5
6C
  8
0
 62
     0
 10
2.823006434141734
 20
4.124231206522112
 30
0.0
 40
0.0034350410046535
 50
283.8090162714494
 51
86.12951801390025
  0
ARC
  5
6D
  8
0
 62
     0
 10
2.81654046157917
 20
4.124635131728345
 30
0.0
 40
0.0038391642898135
 50
294.3808100962469
 51
70.0896838115215
  0
ARC
  5
6E
  8
0
 62
     0
 10
2.828866214857348
 20
4.127058642549984
 30
0.0
 40
0.0034350410046535
 50
281.5036352496554
 51
54.71925311828707
  0
ARC
  5
6F
  8
0
 62
     0
 10
2.827647769936902
 20
4.121590258913368
 30
0.0
 40
0.0028360451344294
 50
185.5291995501031
 51
207.6335910898311
  0
ARC
  5
70
  8
0
 62
     0
 10
2.831429158836669
 20
4.132282238034126
 30
0.0
 40
0.0024877598609669
 50
198.4359605943321
 51
32.87273620834495
  0
ARC
  5
71
  8
0
 62
     0
 10
2.834314966917831
 20
4.128850859205341
 30
0.0
 40
0.0030350692445267
 50
227.6767415765617
 51
342.613260536829
  0
ARC
  5
72
  8
0
 62
     0
 10
2.836106156231874
 20
4.132630349076234
 30
0.0
 40
0.002935557189478
 50
211.7564157659111
 51
55.27786738508051
  0
ARC
  5
73
  8
0
 62
     0
 10
2.832275004385374
 20
4.124126499392708
 30
0.0
 40
0.0026867839710647
 50
188.9702740691996
 51
191.0736534418333
  0
CIRCLE
  5
74
  8
0
 62
     0
 10
2.821328858229436
 20
4.120446472706401
 30
0.0
 40
0.002537508969283
  0
ARC
  5
75
  8
0
 62
     0
 10
2.832275004385374
 20
4.124126499392708
 30
0.0
 40
0.0026867839710647
 50
226.3816560350803
 51
227.0179978283142
  0
ARC
  5
76
  8
0
 62
     0
 10
2.823006434141734
 20
4.124231206522112
 30
0.0
 40
0.0034350410046535
 50
205.1469873092541
 51
208.3805386853541
  0
ARC
  5
77
  8
0
 62
     0
 10
2.828866214857348
 20
4.127058642549984
 30
0.0
 40
0.0034350410046535
 50
224.4879775037618
 51
233.3738865567532
  0
ARC
  5
78
  8
0
 62
     0
 10
2.828866214857348
 20
4.127058642549984
 30
0.0
 40
0.0034350410046535
 50
158.3737476307492
 51
187.0280976214423
  0
ARC
  5
79
  8
0
 62
     0
 10
2.828866214857348
 20
4.127058642549984
 30
0.0
 40
0.0034350410046535
 50
73.01122339380933
 51
98.1690660120147
  0
ARC
  5
7A
  8
0
 62
     0
 10
2.834314966917831
 20
4.128850859205341
 30
0.0
 40
0.0030350692445267
 50
161.8862010515551
 51
168.7376465032943
  0
ARC
  5
7B
  8
0
 62
     0
 10
2.822504362542622
 20
4.135122415130237
 30
0.0
 40
0.016
 50
357.2309956125052
 51
1.309580007518328
  0
ARC
  5
7C
  8
0
 62
     0
 10
2.823006434141734
 20
4.124231206522112
 30
0.0
 40
0.0034350410046535
 50
99.14927763509326
 51
147.7038406918261
  0
POLYLINE
  5
7D
  8
0
 62
     0
 66
     1
 10
0.0
 20
0.0
 30
0.0
 70
     1
  0
VERTEX
  5
1B3
  8
0
 62
     0
 10
2.823652604814116
 20
4.134842887776811
 30
0.0
 42
0.3220365862824994
  0
VERTEX
  5
1B4
  8
0
 62
     0
 10
2.824549920952068
 20
4.135819073424776
 30
0.0
 42
-1.550848628791091
  0
VERTEX
  5
1B5
  8
0
 62
     0
 10
2.824629555884012
 20
4.13582660922305
 30
0.0
 42
-0.6370747365669597
  0
VERTEX
  5
1B6
  8
0
 62
     0
 10
2.822504362542622
 20
4.135122415130237
 30
0.0
 42
0.1721566532097053
  0
SEQEND
  5
451
  8
0
 62
     0
  0
CIRCLE
  5
7E
  8
0
 62
     0
 10
2.822504362542622
 20
4.135122415130237
 30
0.0
 40
0.0065
  0
ARC
  5
7F
  8
0
 62
     0
 10
2.816715568155001
 20
4.119376925295122
 30
0.0
 40
0.0022560625842703
 50
22.51304014425022
 51
3.592716013558479
  0
ARC
  5
80
  8
0
 62
     0
 10
2.824713499498129
 20
4.11908729338511
 30
0.0
 40
0.0012602230526155
 50
181.2764580412288
 51
134.9654529858509
  0
ARC
  5
81
  8
0
 62
     0
 10
2.831204534243897
 20
4.120709232081177
 30
0.0
 40
0.0016392100697092
 50
213.8793889865474
 51
118.2958198281139
  0
ARC
  5
82
  8
0
 62
     0
 10
2.836536469119967
 20
4.125401290218533
 30
0.0
 40
0.0020416517128414
 50
168.0487234443964
 51
77.5138721214224
  0
ARC
  5
83
  8
0
 62
     0
 10
2.838043336688304
 20
4.129108599861848
 30
0.0
 40
0.0014313142281004
 50
152.3867492714847
 51
85.24029371871215
  0
ARC
  5
84
  8
0
 62
     0
 10
2.827647769936902
 20
4.121590258913368
 30
0.0
 40
0.0028360451344294
 50
233.2955081854586
 51
115.1905343555577
  0
ARC
  5
85
  8
0
 62
     0
 10
2.832275004385374
 20
4.124126499392708
 30
0.0
 40
0.0026867839710647
 50
278.1953315196647
 51
359.475794369619
  0
ARC
  5
86
  8
0
 62
     0
 10
2.832275004385374
 20
4.124126499392708
 30
0.0
 40
0.0026867839710647
 50
33.8326624711701
 51
38.96812754168996
  0
ARC
  5
87
  8
0
 62
     0
 10
2.813672223414602
 20
4.123273083845734
 30
0.0
 40
0.0022525383111994
 50
139.3273369801509
 51
241.0699175724172
  0
ARC
  5
88
  8
0
 62
     0
 10
2.814263834908615
 20
4.120725891479732
 30
0.0
 40
0.0017771087696834
 50
24.80209578855163
 51
277.5579134448715
  0
ARC
  5
89
  8
0
 62
     0
 10
2.813672223414602
 20
4.123273083845734
 30
0.0
 40
0.0022525383111994
 50
325.0814804650144
 51
78.63895280704065
  0
ARC
  5
8A
  8
0
 62
     0
 10
2.82621821419124
 20
4.148652483702885
 30
0.0
 40
0.0119196487257213
 50
286.9630886039998
 51
337.7813144761846
  0
ARC
  5
8B
  8
0
 62
     0
 10
2.842285921522784
 20
4.139998416079741
 30
0.0
 40
0.0065213334162833
 50
87.2142261255899
 51
140.5152429520805
  0
ARC
  5
8C
  8
0
 62
     0
 10
2.829447549550711
 20
4.152186824824829
 30
0.0
 40
0.017033770232836
 50
194.5253214070617
 51
223.8461279222906
  0
ARC
  5
8D
  8
0
 62
     0
 10
2.843581884377384
 20
4.139133331211446
 30
0.0
 40
0.0201983778396761
 50
132.0214607173732
 51
170.3157508030756
  0
ARC
  5
8E
  8
0
 62
     0
 10
2.804492582230495
 20
4.142837038222609
 30
0.0
 40
0.0122203378013354
 50
273.9190190642376
 51
331.7443065942513
  0
CIRCLE
  5
8F
  8
0
 62
     0
 10
2.822504362542622
 20
4.135122415130237
 30
0.0
 40
0.036
  0
CIRCLE
  5
90
  8
0
 62
     0
 10
2.822504362542622
 20
4.003978154334499
 30
0.0
 40
0.036
  0
ARC
  5
91
  8
0
 62
     0
 10
2.804492582230495
 20
4.011692777426871
 30
0.0
 40
0.0122203378013354
 50
273.9190190642376
 51
331.7443065942513
  0
ARC
  5
92
  8
0
 62
     0
 10
2.843581884377384
 20
4.007989070415708
 30
0.0
 40
0.0201983778396761
 50
132.0214607173732
 51
170.3157508030756
  0
ARC
  5
93
  8
0
 62
     0
 10
2.829447549550711
 20
4.021042564029091
 30
0.0
 40
0.017033770232836
 50
194.5253214070617
 51
223.8461279222906
  0
ARC
  5
94
  8
0
 62
     0
 10
2.842285921522784
 20
4.008854155284003
 30
0.0
 40
0.0065213334162833
 50
87.2142261255899
 51
140.5152429520805
  0
ARC
  5
95
  8
0
 62
     0
 10
2.82621821419124
 20
4.017508222907147
 30
0.0
 40
0.0119196487257213
 50
286.9630886039998
 51
337.7813144761846
  0
ARC
  5
96
  8
0
 62
     0
 10
2.813672223414602
 20
3.992128823049996
 30
0.0
 40
0.0022525383111994
 50
325.0814804650144
 51
78.63895280704065
  0
ARC
  5
97
  8
0
 62
     0
 10
2.814263834908615
 20
3.989581630683994
 30
0.0
 40
0.0017771087696834
 50
24.80209578855163
 51
277.5579134448715
  0
ARC
  5
98
  8
0
 62
     0
 10
2.813672223414602
 20
3.992128823049996
 30
0.0
 40
0.0022525383111994
 50
139.3273369801509
 51
241.0699175724172
  0
ARC
  5
99
  8
0
 62
     0
 10
2.832275004385374
 20
3.99298223859697
 30
0.0
 40
0.0026867839710647
 50
33.8326624711701
 51
38.96812754168996
  0
ARC
  5
9A
  8
0
 62
     0
 10
2.832275004385374
 20
3.99298223859697
 30
0.0
 40
0.0026867839710647
 50
278.1953315196647
 51
359.475794369619
  0
ARC
  5
9B
  8
0
 62
     0
 10
2.827647769936902
 20
3.990445998117631
 30
0.0
 40
0.0028360451344294
 50
233.2955081854586
 51
115.1905343555577
  0
ARC
  5
9C
  8
0
 62
     0
 10
2.838043336688304
 20
3.99796433906611
 30
0.0
 40
0.0014313142281004
 50
152.3867492714847
 51
85.24029371871215
  0
ARC
  5
9D
  8
0
 62
     0
 10
2.836536469119967
 20
3.994257029422795
 30
0.0
 40
0.0020416517128414
 50
168.0487234443964
 51
77.5138721214224
  0
ARC
  5
9E
  8
0
 62
     0
 10
2.831204534243897
 20
3.989564971285439
 30
0.0
 40
0.0016392100697092
 50
213.8793889865474
 51
118.2958198281139
  0
ARC
  5
9F
  8
0
 62
     0
 10
2.824713499498129
 20
3.987943032589373
 30
0.0
 40
0.0012602230526155
 50
181.2764580412288
 51
134.9654529858509
  0
ARC
  5
A0
  8
0
 62
     0
 10
2.816715568155001
 20
3.988232664499384
 30
0.0
 40
0.0022560625842703
 50
22.51304014425022
 51
3.592716013558479
  0
CIRCLE
  5
A1
  8
0
 62
     0
 10
2.822504362542622
 20
4.003978154334499
 30
0.0
 40
0.0065
  0
POLYLINE
  5
A2
  8
0
 62
     0
 66
     1
 10
0.0
 20
0.0
 30
0.0
 70
     1
  0
VERTEX
  5
1B7
  8
0
 62
     0
 10
2.823652604814116
 20
4.003698626981073
 30
0.0
 42
0.3220365862824994
  0
VERTEX
  5
1B8
  8
0
 62
     0
 10
2.824549920952068
 20
4.004674812629038
 30
0.0
 42
-1.550848628791091
  0
VERTEX
  5
1B9
  8
0
 62
     0
 10
2.824629555884012
 20
4.004682348427313
 30
0.0
 42
-0.6370747365669597
  0
VERTEX
  5
1BA
  8
0
 62
     0
 10
2.822504362542622
 20
4.003978154334499
 30
0.0
 42
0.1721566532097053
  0
SEQEND
  5
452
  8
0
 62
     0
  0
ARC
  5
A3
  8
0
 62
     0
 10
2.823006434141734
 20
3.993086945726374
 30
0.0
 40
0.0034350410046535
 50
99.14927763509326
 51
147.7038406918261
  0
ARC
  5
A4
  8
0
 62
     0
 10
2.822504362542622
 20
4.003978154334499
 30
0.0
 40
0.016
 50
357.2309956125052
 51
1.309580007518328
  0
ARC
  5
A5
  8
0
 62
     0
 10
2.834314966917831
 20
3.997706598409603
 30
0.0
 40
0.0030350692445267
 50
161.8862010515551
 51
168.7376465032943
  0
ARC
  5
A6
  8
0
 62
     0
 10
2.828866214857348
 20
3.995914381754246
 30
0.0
 40
0.0034350410046535
 50
73.01122339380933
 51
98.1690660120147
  0
ARC
  5
A7
  8
0
 62
     0
 10
2.828866214857348
 20
3.995914381754246
 30
0.0
 40
0.0034350410046535
 50
158.3737476307492
 51
187.0280976214423
  0
ARC
  5
A8
  8
0
 62
     0
 10
2.828866214857348
 20
3.995914381754246
 30
0.0
 40
0.0034350410046535
 50
224.4879775037618
 51
233.3738865567532
  0
ARC
  5
A9
  8
0
 62
     0
 10
2.823006434141734
 20
3.993086945726374
 30
0.0
 40
0.0034350410046535
 50
205.1469873092541
 51
208.3805386853541
  0
ARC
  5
AA
  8
0
 62
     0
 10
2.832275004385374
 20
3.99298223859697
 30
0.0
 40
0.0026867839710647
 50
226.3816560350803
 51
227.0179978283142
  0
CIRCLE
  5
AB
  8
0
 62
     0
 10
2.821328858229436
 20
3.989302211910663
 30
0.0
 40
0.002537508969283
  0
ARC
  5
AC
  8
0
 62
     0
 10
2.832275004385374
 20
3.99298223859697
 30
0.0
 40
0.0026867839710647
 50
188.9702740691996
 51
191.0736534418333
  0
ARC
  5
AD
  8
0
 62
     0
 10
2.836106156231874
 20
4.001486088280496
 30
0.0
 40
0.002935557189478
 50
211.7564157659111
 51
55.27786738508051
  0
ARC
  5
AE
  8
0
 62
     0
 10
2.834314966917831
 20
3.997706598409603
 30
0.0
 40
0.0030350692445267
 50
227.6767415765617
 51
342.613260536829
  0
ARC
  5
AF
  8
0
 62
     0
 10
2.831429158836669
 20
4.001137977238388
 30
0.0
 40
0.0024877598609669
 50
198.4359605943321
 51
32.87273620834495
  0
ARC
  5
B0
  8
0
 62
     0
 10
2.827647769936902
 20
3.990445998117631
 30
0.0
 40
0.0028360451344294
 50
185.5291995501031
 51
207.6335910898311
  0
ARC
  5
B1
  8
0
 62
     0
 10
2.828866214857348
 20
3.995914381754246
 30
0.0
 40
0.0034350410046535
 50
281.5036352496554
 51
54.71925311828707
  0
ARC
  5
B2
  8
0
 62
     0
 10
2.81654046157917
 20
3.993490870932607
 30
0.0
 40
0.0038391642898135
 50
294.3808100962469
 51
70.0896838115215
  0
ARC
  5
B3
  8
0
 62
     0
 10
2.823006434141734
 20
3.993086945726374
 30
0.0
 40
0.0034350410046535
 50
283.8090162714494
 51
86.12951801390025
  0
ARC
  5
B4
  8
0
 62
     0
 10
2.793448844390749
 20
4.010417441443823
 30
0.0
 40
0.0264292423031173
 50
1.264954963038472
 51
26.15027142437419
  0
ARC
  5
B5
  8
0
 62
     0
 10
2.811599227362612
 20
4.032605107741896
 30
0.0
 40
0.0270928351900844
 50
304.0319612523783
 51
352.8646201388394
  0
ARC
  5
B6
  8
0
 62
     0
 10
2.832091570553924
 20
4.013934186998306
 30
0.0
 40
0.0115345280840491
 50
258.9420267299649
 51
337.4484940396716
  0
ARC
  5
B7
  8
0
 62
     0
 10
2.854495463708825
 20
4.007086201945966
 30
0.0
 40
0.0119988186574857
 50
128.6222838200798
 51
168.3432681842454
  0
ARC
  5
B8
  8
0
 62
     0
 10
2.840287041514809
 20
4.00752375600344
 30
0.0
 40
0.0111808671203571
 50
53.0632165660594
 51
130.4744423424351
  0
ARC
  5
B9
  8
0
 62
     0
 10
2.834534412624062
 20
4.046071522399196
 30
0.0
 40
0.0172885069267911
 50
268.2155151308605
 51
283.1999382022621
  0
ARC
  5
BA
  8
0
 62
     0
 10
2.830744314360111
 20
4.016407683504367
 30
0.0
 40
0.0128035227625981
 50
75.28733807561511
 51
166.4123680570854
  0
ARC
  5
BB
  8
0
 62
     0
 10
2.809361602441844
 20
4.004659749281114
 30
0.0
 40
0.0113647870258858
 50
252.5698031582693
 51
322.3906808294901
  0
ARC
  5
BC
  8
0
 62
     0
 10
2.802219554236665
 20
3.978617138642399
 30
0.0
 40
0.0156525064186993
 50
76.18435037943632
 51
109.5375721677334
  0
ARC
  5
BD
  8
0
 62
     0
 10
2.816556390984926
 20
3.993271364049697
 30
0.0
 40
0.0195716657534178
 50
115.643064402024
 51
179.7158947081999
  0
ARC
  5
BE
  8
0
 62
     0
 10
2.668979736811545
 20
3.849797243484144
 30
0.0
 40
0.2272389703789897
 50
49.29636974838056
 51
51.78713921097732
  0
ARC
  5
BF
  8
0
 62
     0
 10
2.81891536016904
 20
4.01878325425362
 30
0.0
 40
0.0133853683040066
 50
134.4227966434752
 51
254.1377152069309
  0
CIRCLE
  5
C0
  8
0
 62
     0
 10
2.822504362542622
 20
4.003978154334499
 30
0.0
 40
0.0075
  0
CIRCLE
  5
C1
  8
0
 62
     0
 10
2.822504362542622
 20
4.003978154334499
 30
0.0
 40
0.045
  0
POLYLINE
  5
C2
  8
0
 62
     0
 66
     1
 10
0.0
 20
0.0
 30
0.0
  0
VERTEX
  5
1BB
  8
0
 62
     0
 10
3.297359423354766
 20
4.06894960525588
 30
0.0
 42
-0.0127002604749244
  0
VERTEX
  5
1BC
  8
0
 62
     0
 10
3.288671059031595
 20
4.066712374011857
 30
0.0
 42
-0.0808934370418852
  0
VERTEX
  5
1BD
  8
0
 62
     0
 10
3.276531226345595
 20
4.065731767254758
 30
0.0
  0
VERTEX
  5
1BE
  8
0
 62
     0
 10
3.276531226345595
 20
4.10752950138556
 30
0.0
 42
-0.080893437041901
  0
VERTEX
  5
1BF
  8
0
 62
     0
 10
3.288671059031596
 20
4.106548894628474
 30
0.0
 42
-0.012700260474922
  0
VERTEX
  5
1C0
  8
0
 62
     0
 10
3.297359423354766
 20
4.104311663384452
 30
0.0
 42
-0.0287894212368407
  0
SEQEND
  5
453
  8
0
 62
     0
  0
POLYLINE
  5
C3
  8
0
 62
     0
 66
     1
 10
0.0
 20
0.0
 30
0.0
  0
VERTEX
  5
1C1
  8
0
 62
     0
 10
3.298040848318903
 20
4.058758803737457
 30
0.0
 42
-0.0097404735152952
  0
VERTEX
  5
1C2
  8
0
 62
     0
 10
3.2909896748573
 20
4.056984622490295
 30
0.0
 42
-0.1077638159534905
  0
VERTEX
  5
1C3
  8
0
 62
     0
 10
3.270591630039465
 20
4.056461178413
 30
0.0
 42
-0.3598674949421655
  0
VERTEX
  5
1C4
  8
0
 62
     0
 10
3.266531226345595
 20
4.061372100809201
 30
0.0
  0
VERTEX
  5
1C5
  8
0
 62
     0
 10
3.266531226345595
 20
4.111889167831109
 30
0.0
 42
-0.3598674949421266
  0
VERTEX
  5
1C6
  8
0
 62
     0
 10
3.270591630039463
 20
4.116800090227317
 30
0.0
 42
-0.1077638159535144
  0
VERTEX
  5
1C7
  8
0
 62
     0
 10
3.2909896748573
 20
4.116276646150036
 30
0.0
 42
-0.0087948313902629
  0
VERTEX
  5
1C8
  8
0
 62
     0
 10
3.297359423354766
 20
4.114686724192796
 30
0.0
  0
SEQEND
  5
454
  8
0
 62
     0
  0
POLYLINE
  5
C4
  8
0
 62
     0
 66
     1
 10
0.0
 20
0.0
 30
0.0
  0
VERTEX
  5
1C9
  8
0
 62
     0
 10
3.536319139710417
 20
4.057423152333561
 30
0.0
  0
VERTEX
  5
1CA
  8
0
 62
     0
 10
3.537736005479989
 20
4.115838116306771
 30
0.0
 42
0.1190459773633077
  0
VERTEX
  5
1CB
  8
0
 62
     0
 10
3.529833690849034
 20
4.142004124642218
 30
0.0
 42
0.2661614671123206
  0
VERTEX
  5
1CC
  8
0
 62
     0
 10
3.486700255502115
 20
4.166715653846752
 30
0.0
  0
VERTEX
  5
1CD
  8
0
 62
     0
 10
3.350140850230807
 20
4.166715653846752
 30
0.0
 42
0.2133643085468333
  0
VERTEX
  5
1CE
  8
0
 62
     0
 10
3.3128803787468
 20
4.150057178478799
 30
0.0
 42
0.1532447134559325
  0
VERTEX
  5
1CF
  8
0
 62
     0
 10
3.297359423354766
 20
4.115838116306771
 30
0.0
  0
VERTEX
  5
1D0
  8
0
 62
     0
 10
3.297359423354766
 20
4.063076183208059
 30
0.0
 42
0.1532447134559325
  0
VERTEX
  5
1D1
  8
0
 62
     0
 10
3.312880378746751
 20
4.028857121035988
 30
0.0
 42
0.2133643085468333
  0
VERTEX
  5
1D2
  8
0
 62
     0
 10
3.350140850230807
 20
4.012198645668079
 30
0.0
  0
VERTEX
  5
1D3
  8
0
 62
     0
 10
3.486700255502115
 20
4.012198645668079
 30
0.0
 42
0.3871156496695385
  0
VERTEX
  5
1D4
  8
0
 62
     0
 10
3.536319139710417
 20
4.057423152333561
 30
0.0
  0
SEQEND
  5
455
  8
0
 62
     0
  0
CIRCLE
  5
C5
  8
0
 62
     0
 10
3.418420552866462
 20
4.086483159388875
 30
0.0
 40
0.0137070909367787
  0
ARC
  5
C6
  8
0
 62
     0
 10
3.763966018168461
 20
3.380879541350723
 30
0.0
 40
0.7993767466449933
 50
109.9919799744138
 51
116.0807382815231
  0
ARC
  5
C7
  8
0
 62
     0
 10
3.468584541976791
 20
4.187197429584614
 30
0.0
 40
0.0593711427377064
 50
291.8365304325327
 51
317.7336105056687
  0
ARC
  5
C8
  8
0
 62
     0
 10
3.763966018168461
 20
4.792086777427027
 30
0.0
 40
0.7993767466449933
 50
243.9192617184769
 51
250.0080200255862
  0
ARC
  5
C9
  8
0
 62
     0
 10
3.468584541976791
 20
3.985768889193135
 30
0.0
 40
0.0593711427377064
 50
46.87874183494561
 51
68.16346956746727
  0
POLYLINE
  5
CA
  8
0
 62
     0
 66
     1
 10
0.0
 20
0.0
 30
0.0
  0
VERTEX
  5
1D5
  8
0
 62
     0
 10
3.53660624278728
 20
4.069259923502477
 30
0.0
 42
0.0121778252332401
  0
VERTEX
  5
1D6
  8
0
 62
     0
 10
3.548170046701328
 20
4.066712374011857
 30
0.0
 42
0.0808934370418852
  0
VERTEX
  5
1D7
  8
0
 62
     0
 10
3.560309879387328
 20
4.065731767254758
 30
0.0
  0
VERTEX
  5
1D8
  8
0
 62
     0
 10
3.560309879387328
 20
4.10752950138556
 30
0.0
 42
0.080893437041901
  0
VERTEX
  5
1D9
  8
0
 62
     0
 10
3.548170046701326
 20
4.106548894628474
 30
0.0
 42
0.0152735493506935
  0
VERTEX
  5
1DA
  8
0
 62
     0
 10
3.537736005479989
 20
4.103804830736843
 30
0.0
 42
0.0287444134443671
  0
SEQEND
  5
456
  8
0
 62
     0
  0
POLYLINE
  5
CB
  8
0
 62
     0
 66
     1
 10
0.0
 20
0.0
 30
0.0
  0
VERTEX
  5
1DB
  8
0
 62
     0
 10
3.536355701344559
 20
4.058930526276129
 30
0.0
 42
0.0086701430091425
  0
VERTEX
  5
1DC
  8
0
 62
     0
 10
3.545851430875623
 20
4.056984622490295
 30
0.0
 42
0.1077638159534905
  0
VERTEX
  5
1DD
  8
0
 62
     0
 10
3.566249475693458
 20
4.056461178413
 30
0.0
 42
0.3598674949421655
  0
VERTEX
  5
1DE
  8
0
 62
     0
 10
3.570309879387327
 20
4.061372100809201
 30
0.0
  0
VERTEX
  5
1DF
  8
0
 62
     0
 10
3.570309879387327
 20
4.111889167831109
 30
0.0
 42
0.3598674949421266
  0
VERTEX
  5
1E0
  8
0
 62
     0
 10
3.56624947569346
 20
4.116800090227317
 30
0.0
 42
0.1077638159535144
  0
VERTEX
  5
1E1
  8
0
 62
     0
 10
3.545851430875623
 20
4.116276646150036
 30
0.0
 42
0.01121937386139
  0
VERTEX
  5
1E2
  8
0
 62
     0
 10
3.537736005479989
 20
4.114209143349454
 30
0.0
  0
SEQEND
  5
457
  8
0
 62
     0
  0
LINE
  5
CC
  8
0
 62
     0
 10
3.526421761750894
 20
4.057486752064835
 30
0.0
 11
3.527736005479989
 21
4.11554316644419
 31
0.0
  0
ARC
  5
CD
  8
0
 62
     0
 10
3.47961421240906
 20
4.112561215592881
 30
0.0
 40
0.0482140954414886
 50
3.545898956591873
 51
30.38244123554119
  0
ARC
  5
CE
  8
0
 62
     0
 10
3.486700255502117
 20
4.116715653846752
 30
0.0
 40
0.0399999999999999
 50
30.38244123549586
 51
90.00000000000128
  0
LINE
  5
CF
  8
0
 62
     0
 10
3.486700255502116
 20
4.156715653846752
 30
0.0
 11
3.350140850230808
 21
4.156715653846752
 31
0.0
  0
ARC
  5
D0
  8
0
 62
     0
 10
3.350140850230807
 20
4.116715653846752
 30
0.0
 40
0.04
 50
89.99999999999936
 51
138.1770905047878
  0
ARC
  5
D1
  8
0
 62
     0
 10
3.359633141573393
 20
4.108221733801901
 30
0.0
 40
0.052737749905727
 50
138.1770905047875
 51
172.3937673122314
  0
LINE
  5
D2
  8
0
 62
     0
 10
3.307359423354766
 20
4.115202324659313
 30
0.0
 11
3.307359423354766
 21
4.063711974855575
 31
0.0
  0
ARC
  5
D3
  8
0
 62
     0
 10
3.359633141573447
 20
4.070692565712819
 30
0.0
 40
0.0527377499057581
 50
187.6062326875801
 51
221.8229094944043
  0
ARC
  5
D4
  8
0
 62
     0
 10
3.350140850230735
 20
4.062198645668111
 30
0.0
 40
0.0400000000000327
 50
221.8229094944192
 51
269.9999999999994
  0
LINE
  5
D5
  8
0
 62
     0
 10
3.350140850230735
 20
4.022198645668078
 30
0.0
 11
3.486700255502115
 21
4.022198645668078
 31
0.0
  0
ARC
  5
D6
  8
0
 62
     0
 10
3.486700255502115
 20
4.062198645668079
 30
0.0
 40
0.04
 50
270.0
 51
353.2350021959641
  0
ARC
  5
D7
  8
0
 62
     0
 10
3.061094435782917
 20
4.792086777426107
 30
0.0
 40
0.7993767466449933
 50
289.9919799745639
 51
296.0807382816732
  0
ARC
  5
D8
  8
0
 62
     0
 10
3.061094435786613
 20
3.380879541349803
 30
0.0
 40
0.7993767466449933
 50
63.91926171862699
 51
70.00802002573624
  0
ARC
  5
D9
  8
0
 62
     0
 10
3.356475911976172
 20
4.187197429584468
 30
0.0
 40
0.0593711427377064
 50
230.4372717685032
 51
248.1634695676173
  0
ARC
  5
DA
  8
0
 62
     0
 10
3.356475911976699
 20
3.985768889192989
 30
0.0
 40
0.0593711427377064
 50
111.8365304326828
 51
125.7294379568245
  0
POLYLINE
  5
DB
  8
0
 62
     0
 66
     1
 10
0.0
 20
0.0
 30
0.0
  0
VERTEX
  5
1E3
  8
0
 62
     0
 10
2.267890399670499
 20
4.448817831339722
 30
0.0
  0
VERTEX
  5
1E4
  8
0
 62
     0
 10
2.2628903996705
 20
4.448817831339722
 30
0.0
 42
0.4142135623730951
  0
VERTEX
  5
1E5
  8
0
 62
     0
 10
2.1628903996705
 20
4.348817831339723
 30
0.0
  0
VERTEX
  5
1E6
  8
0
 62
     0
 10
2.1628903996705
 20
3.848817831339722
 30
0.0
 42
0.4142135623730951
  0
VERTEX
  5
1E7
  8
0
 62
     0
 10
2.2628903996705
 20
3.748817831339722
 30
0.0
  0
VERTEX
  5
1E8
  8
0
 62
     0
 10
2.267890399670499
 20
3.748817831339722
 30
0.0
  0
SEQEND
  5
458
  8
0
 62
     0
  0
POLYLINE
  5
DC
  8
0
 62
     0
 66
     1
 10
0.0
 20
0.0
 30
0.0
  0
VERTEX
  5
1E9
  8
0
 62
     0
 10
3.9628903996705
 20
3.748817831339722
 30
0.0
 42
0.4142135623730951
  0
VERTEX
  5
1EA
  8
0
 62
     0
 10
4.0628903996705
 20
3.848817831339722
 30
0.0
  0
VERTEX
  5
1EB
  8
0
 62
     0
 10
4.0628903996705
 20
4.348817831339723
 30
0.0
 42
0.4142135623730951
  0
VERTEX
  5
1EC
  8
0
 62
     0
 10
3.9628903996705
 20
4.448817831339722
 30
0.0
 42
0.4142135623730951
  0
SEQEND
  5
459
  8
0
 62
     0
  0
LINE
  5
DD
  8
0
 62
     0
 10
2.2978903996705
 20
3.648817831339723
 30
0.0
 11
2.2978903996705
 21
3.618689423953624
 31
0.0
  0
LINE
  5
DE
  8
0
 62
     0
 10
2.7278903996705
 20
3.618689423953624
 30
0.0
 11
2.7278903996705
 21
3.648817831339722
 31
0.0
  0
POLYLINE
  5
DF
  8
0
 62
     0
 66
     1
 10
0.0
 20
0.0
 30
0.0
  0
VERTEX
  5
1ED
  8
0
 62
     0
 10
2.2928903996705
 20
3.748817831339722
 30
0.0
  0
VERTEX
  5
1EE
  8
0
 62
     0
 10
2.2928903996705
 20
3.658817831339722
 30
0.0
 42
-0.4142135623730951
  0
VERTEX
  5
1EF
  8
0
 62
     0
 10
2.2978903996705
 20
3.653817831339722
 30
0.0
  0
VERTEX
  5
1F0
  8
0
 62
     0
 10
2.297890399670499
 20
3.648817831339723
 30
0.0
 42
0.0465116279069779
  0
VERTEX
  5
1F1
  8
0
 62
     0
 10
2.7278903996705
 20
3.648817831339722
 30
0.0
  0
VERTEX
  5
1F2
  8
0
 62
     0
 10
2.7278903996705
 20
3.653817831339722
 30
0.0
 42
-0.4142135623730951
  0
VERTEX
  5
1F3
  8
0
 62
     0
 10
2.7328903996705
 20
3.658817831339722
 30
0.0
  0
VERTEX
  5
1F4
  8
0
 62
     0
 10
2.7328903996705
 20
3.748817831339722
 30
0.0
  0
SEQEND
  5
45A
  8
0
 62
     0
  0
POLYLINE
  5
E0
  8
0
 62
     0
 66
     1
 10
0.0
 20
0.0
 30
0.0
  0
VERTEX
  5
1F5
  8
0
 62
     0
 10
2.267890399670499
 20
3.748817831339722
 30
0.0
  0
VERTEX
  5
1F6
  8
0
 62
     0
 10
2.267890399670499
 20
3.658817831339722
 30
0.0
 42
0.4142135623730951
  0
VERTEX
  5
1F7
  8
0
 62
     0
 10
2.262890399670499
 20
3.653817831339722
 30
0.0
  0
VERTEX
  5
1F8
  8
0
 62
     0
 10
2.262890399670499
 20
3.603817831339722
 30
0.0
 42
0.4142135623730951
  0
VERTEX
  5
1F9
  8
0
 62
     0
 10
2.267890399670499
 20
3.598817831339722
 30
0.0
  0
VERTEX
  5
1FA
  8
0
 62
     0
 10
2.2928903996705
 20
3.598817831339722
 30
0.0
 42
0.4142135623730927
  0
VERTEX
  5
1FB
  8
0
 62
     0
 10
2.2978903996705
 20
3.603817831339722
 30
0.0
  0
VERTEX
  5
1FC
  8
0
 62
     0
 10
2.297890399670499
 20
3.618689423953625
 30
0.0
 42
0.0459143842507079
  0
VERTEX
  5
1FD
  8
0
 62
     0
 10
2.7278903996705
 20
3.618689423953624
 30
0.0
  0
VERTEX
  5
1FE
  8
0
 62
     0
 10
2.7278903996705
 20
3.603817831339722
 30
0.0
 42
0.4142135623730951
  0
VERTEX
  5
1FF
  8
0
 62
     0
 10
2.7328903996705
 20
3.598817831339722
 30
0.0
  0
VERTEX
  5
200
  8
0
 62
     0
 10
2.7578903996705
 20
3.598817831339722
 30
0.0
 42
0.4142135623730974
  0
VERTEX
  5
201
  8
0
 62
     0
 10
2.7628903996705
 20
3.603817831339722
 30
0.0
  0
VERTEX
  5
202
  8
0
 62
     0
 10
2.762890399670499
 20
3.653817831339722
 30
0.0
 42
0.4142135623730951
  0
VERTEX
  5
203
  8
0
 62
     0
 10
2.7578903996705
 20
3.658817831339721
 30
0.0
  0
VERTEX
  5
204
  8
0
 62
     0
 10
2.7578903996705
 20
3.748817831339722
 30
0.0
  0
SEQEND
  5
45B
  8
0
 62
     0
  0
POLYLINE
  5
E1
  8
0
 62
     0
 66
     1
 10
0.0
 20
0.0
 30
0.0
  0
VERTEX
  5
205
  8
0
 62
     0
 10
2.872890399670499
 20
3.748817831339723
 30
0.0
  0
VERTEX
  5
206
  8
0
 62
     0
 10
2.872890399670499
 20
3.658817831339723
 30
0.0
 42
0.4142135623730951
  0
VERTEX
  5
207
  8
0
 62
     0
 10
2.867890399670499
 20
3.653817831339723
 30
0.0
  0
VERTEX
  5
208
  8
0
 62
     0
 10
2.867890399670499
 20
3.603817831339723
 30
0.0
 42
0.4142135623730951
  0
VERTEX
  5
209
  8
0
 62
     0
 10
2.872890399670499
 20
3.598817831339723
 30
0.0
  0
VERTEX
  5
20A
  8
0
 62
     0
 10
2.8978903996705
 20
3.598817831339723
 30
0.0
 42
0.4142135623730927
  0
VERTEX
  5
20B
  8
0
 62
     0
 10
2.9028903996705
 20
3.603817831339723
 30
0.0
  0
VERTEX
  5
20C
  8
0
 62
     0
 10
2.902890399670499
 20
3.618689423953625
 30
0.0
 42
0.0459143842507079
  0
VERTEX
  5
20D
  8
0
 62
     0
 10
3.3328903996705
 20
3.618689423953624
 30
0.0
  0
VERTEX
  5
20E
  8
0
 62
     0
 10
3.3328903996705
 20
3.603817831339723
 30
0.0
 42
0.4142135623730951
  0
VERTEX
  5
20F
  8
0
 62
     0
 10
3.3378903996705
 20
3.598817831339723
 30
0.0
  0
VERTEX
  5
210
  8
0
 62
     0
 10
3.3628903996705
 20
3.598817831339723
 30
0.0
 42
0.4142135623730974
  0
VERTEX
  5
211
  8
0
 62
     0
 10
3.3678903996705
 20
3.603817831339723
 30
0.0
  0
VERTEX
  5
212
  8
0
 62
     0
 10
3.367890399670499
 20
3.653817831339722
 30
0.0
 42
0.4142135623730951
  0
VERTEX
  5
213
  8
0
 62
     0
 10
3.3628903996705
 20
3.658817831339722
 30
0.0
  0
VERTEX
  5
214
  8
0
 62
     0
 10
3.3628903996705
 20
3.748817831339723
 30
0.0
  0
SEQEND
  5
45C
  8
0
 62
     0
  0
POLYLINE
  5
E2
  8
0
 62
     0
 66
     1
 10
0.0
 20
0.0
 30
0.0
  0
VERTEX
  5
215
  8
0
 62
     0
 10
2.8978903996705
 20
3.748817831339723
 30
0.0
  0
VERTEX
  5
216
  8
0
 62
     0
 10
2.8978903996705
 20
3.658817831339722
 30
0.0
 42
-0.4142135623730951
  0
VERTEX
  5
217
  8
0
 62
     0
 10
2.9028903996705
 20
3.653817831339722
 30
0.0
  0
VERTEX
  5
218
  8
0
 62
     0
 10
2.902890399670499
 20
3.648817831339723
 30
0.0
 42
0.0465116279069779
  0
VERTEX
  5
219
  8
0
 62
     0
 10
3.3328903996705
 20
3.648817831339722
 30
0.0
  0
VERTEX
  5
21A
  8
0
 62
     0
 10
3.3328903996705
 20
3.653817831339722
 30
0.0
 42
-0.4142135623730951
  0
VERTEX
  5
21B
  8
0
 62
     0
 10
3.3378903996705
 20
3.658817831339722
 30
0.0
  0
VERTEX
  5
21C
  8
0
 62
     0
 10
3.3378903996705
 20
3.748817831339723
 30
0.0
  0
SEQEND
  5
45D
  8
0
 62
     0
  0
LINE
  5
E3
  8
0
 62
     0
 10
3.3328903996705
 20
3.618689423953624
 30
0.0
 11
3.3328903996705
 21
3.648817831339722
 31
0.0
  0
LINE
  5
E4
  8
0
 62
     0
 10
3.3378903996705
 20
3.658817831339722
 30
0.0
 11
3.3628903996705
 21
3.658817831339722
 31
0.0
  0
LINE
  5
E5
  8
0
 62
     0
 10
3.2178903996705
 20
3.640977499805536
 30
0.0
 11
3.2178903996705
 21
3.61094986022564
 31
0.0
  0
LINE
  5
E6
  8
0
 62
     0
 10
3.0178903996705
 20
3.640977499805536
 30
0.0
 11
3.0178903996705
 21
3.610949860225641
 31
0.0
  0
LINE
  5
E7
  8
0
 62
     0
 10
2.9028903996705
 20
3.648817831339723
 30
0.0
 11
2.9028903996705
 21
3.618689423953625
 31
0.0
  0
LINE
  5
E8
  8
0
 62
     0
 10
2.872890399670499
 20
3.658817831339723
 30
0.0
 11
2.8978903996705
 21
3.658817831339722
 31
0.0
  0
LINE
  5
E9
  8
0
 62
     0
 10
3.9378903996705
 20
3.658817831339721
 30
0.0
 11
3.9628903996705
 21
3.658817831339721
 31
0.0
  0
LINE
  5
EA
  8
0
 62
     0
 10
3.9328903996705
 20
3.618689423953624
 30
0.0
 11
3.9328903996705
 21
3.648817831339722
 31
0.0
  0
POLYLINE
  5
EB
  8
0
 62
     0
 66
     1
 10
0.0
 20
0.0
 30
0.0
  0
VERTEX
  5
21D
  8
0
 62
     0
 10
3.4978903996705
 20
3.748817831339722
 30
0.0
  0
VERTEX
  5
21E
  8
0
 62
     0
 10
3.4978903996705
 20
3.658817831339722
 30
0.0
 42
-0.4142135623730951
  0
VERTEX
  5
21F
  8
0
 62
     0
 10
3.5028903996705
 20
3.653817831339722
 30
0.0
  0
VERTEX
  5
220
  8
0
 62
     0
 10
3.502890399670499
 20
3.648817831339723
 30
0.0
 42
0.0465116279069779
  0
VERTEX
  5
221
  8
0
 62
     0
 10
3.9328903996705
 20
3.648817831339722
 30
0.0
  0
VERTEX
  5
222
  8
0
 62
     0
 10
3.9328903996705
 20
3.653817831339722
 30
0.0
 42
-0.4142135623730951
  0
VERTEX
  5
223
  8
0
 62
     0
 10
3.9378903996705
 20
3.658817831339722
 30
0.0
  0
VERTEX
  5
224
  8
0
 62
     0
 10
3.9378903996705
 20
3.748817831339722
 30
0.0
  0
SEQEND
  5
45E
  8
0
 62
     0
  0
POLYLINE
  5
EC
  8
0
 62
     0
 66
     1
 10
0.0
 20
0.0
 30
0.0
  0
VERTEX
  5
225
  8
0
 62
     0
 10
3.472890399670499
 20
3.748817831339722
 30
0.0
  0
VERTEX
  5
226
  8
0
 62
     0
 10
3.472890399670499
 20
3.658817831339722
 30
0.0
 42
0.4142135623730951
  0
VERTEX
  5
227
  8
0
 62
     0
 10
3.4678903996705
 20
3.653817831339722
 30
0.0
  0
VERTEX
  5
228
  8
0
 62
     0
 10
3.4678903996705
 20
3.603817831339722
 30
0.0
 42
0.4142135623730951
  0
VERTEX
  5
229
  8
0
 62
     0
 10
3.472890399670499
 20
3.598817831339722
 30
0.0
  0
VERTEX
  5
22A
  8
0
 62
     0
 10
3.4978903996705
 20
3.598817831339722
 30
0.0
 42
0.4142135623730927
  0
VERTEX
  5
22B
  8
0
 62
     0
 10
3.5028903996705
 20
3.603817831339722
 30
0.0
  0
VERTEX
  5
22C
  8
0
 62
     0
 10
3.502890399670499
 20
3.618689423953625
 30
0.0
 42
0.0459143842507079
  0
VERTEX
  5
22D
  8
0
 62
     0
 10
3.9328903996705
 20
3.618689423953624
 30
0.0
  0
VERTEX
  5
22E
  8
0
 62
     0
 10
3.9328903996705
 20
3.603817831339722
 30
0.0
 42
0.4142135623730951
  0
VERTEX
  5
22F
  8
0
 62
     0
 10
3.9378903996705
 20
3.598817831339722
 30
0.0
  0
VERTEX
  5
230
  8
0
 62
     0
 10
3.9628903996705
 20
3.598817831339722
 30
0.0
 42
0.4142135623730974
  0
VERTEX
  5
231
  8
0
 62
     0
 10
3.9678903996705
 20
3.603817831339722
 30
0.0
  0
VERTEX
  5
232
  8
0
 62
     0
 10
3.9678903996705
 20
3.653817831339722
 30
0.0
 42
0.4142135623730951
  0
VERTEX
  5
233
  8
0
 62
     0
 10
3.9628903996705
 20
3.658817831339721
 30
0.0
  0
VERTEX
  5
234
  8
0
 62
     0
 10
3.9628903996705
 20
3.748817831339722
 30
0.0
  0
SEQEND
  5
45F
  8
0
 62
     0
  0
LINE
  5
ED
  8
0
 62
     0
 10
3.6178903996705
 20
3.640977499805536
 30
0.0
 11
3.6178903996705
 21
3.61094986022564
 31
0.0
  0
LINE
  5
EE
  8
0
 62
     0
 10
3.8178903996705
 20
3.640977499805536
 30
0.0
 11
3.8178903996705
 21
3.61094986022564
 31
0.0
  0
LINE
  5
EF
  8
0
 62
     0
 10
3.472890399670499
 20
3.658817831339722
 30
0.0
 11
3.4978903996705
 21
3.658817831339722
 31
0.0
  0
LINE
  5
F0
  8
0
 62
     0
 10
3.5028903996705
 20
3.648817831339723
 30
0.0
 11
3.5028903996705
 21
3.618689423953624
 31
0.0
  0
LINE
  5
F1
  8
0
 62
     0
 10
3.5028903996705
 20
4.548817831339723
 30
0.0
 11
3.5028903996705
 21
4.578946238725822
 31
0.0
  0
LINE
  5
F2
  8
0
 62
     0
 10
3.472890399670499
 20
4.538817831339723
 30
0.0
 11
3.4978903996705
 21
4.538817831339724
 31
0.0
  0
LINE
  5
F3
  8
0
 62
     0
 10
3.8178903996705
 20
4.55665816287391
 30
0.0
 11
3.8178903996705
 21
4.586685802453806
 31
0.0
  0
LINE
  5
F4
  8
0
 62
     0
 10
3.6178903996705
 20
4.55665816287391
 30
0.0
 11
3.6178903996705
 21
4.586685802453806
 31
0.0
  0
POLYLINE
  5
F5
  8
0
 62
     0
 66
     1
 10
0.0
 20
0.0
 30
0.0
  0
VERTEX
  5
235
  8
0
 62
     0
 10
3.472890399670499
 20
4.448817831339723
 30
0.0
  0
VERTEX
  5
236
  8
0
 62
     0
 10
3.472890399670499
 20
4.538817831339723
 30
0.0
 42
-0.4142135623730951
  0
VERTEX
  5
237
  8
0
 62
     0
 10
3.4678903996705
 20
4.543817831339723
 30
0.0
  0
VERTEX
  5
238
  8
0
 62
     0
 10
3.4678903996705
 20
4.593817831339724
 30
0.0
 42
-0.4142135623730951
  0
VERTEX
  5
239
  8
0
 62
     0
 10
3.472890399670499
 20
4.598817831339723
 30
0.0
  0
VERTEX
  5
23A
  8
0
 62
     0
 10
3.4978903996705
 20
4.598817831339723
 30
0.0
 42
-0.4142135623730927
  0
VERTEX
  5
23B
  8
0
 62
     0
 10
3.5028903996705
 20
4.593817831339724
 30
0.0
  0
VERTEX
  5
23C
  8
0
 62
     0
 10
3.502890399670499
 20
4.578946238725821
 30
0.0
 42
-0.0459143842507079
  0
VERTEX
  5
23D
  8
0
 62
     0
 10
3.9328903996705
 20
4.578946238725822
 30
0.0
  0
VERTEX
  5
23E
  8
0
 62
     0
 10
3.9328903996705
 20
4.593817831339724
 30
0.0
 42
-0.4142135623730951
  0
VERTEX
  5
23F
  8
0
 62
     0
 10
3.9378903996705
 20
4.598817831339723
 30
0.0
  0
VERTEX
  5
240
  8
0
 62
     0
 10
3.9628903996705
 20
4.598817831339723
 30
0.0
 42
-0.4142135623730974
  0
VERTEX
  5
241
  8
0
 62
     0
 10
3.9678903996705
 20
4.593817831339724
 30
0.0
  0
VERTEX
  5
242
  8
0
 62
     0
 10
3.9678903996705
 20
4.543817831339724
 30
0.0
 42
-0.4142135623730951
  0
VERTEX
  5
243
  8
0
 62
     0
 10
3.9628903996705
 20
4.538817831339724
 30
0.0
  0
VERTEX
  5
244
  8
0
 62
     0
 10
3.9628903996705
 20
4.448817831339723
 30
0.0
  0
SEQEND
  5
460
  8
0
 62
     0
  0
POLYLINE
  5
F6
  8
0
 62
     0
 66
     1
 10
0.0
 20
0.0
 30
0.0
  0
VERTEX
  5
245
  8
0
 62
     0
 10
3.4978903996705
 20
4.448817831339723
 30
0.0
  0
VERTEX
  5
246
  8
0
 62
     0
 10
3.4978903996705
 20
4.538817831339724
 30
0.0
 42
0.4142135623730951
  0
VERTEX
  5
247
  8
0
 62
     0
 10
3.5028903996705
 20
4.543817831339723
 30
0.0
  0
VERTEX
  5
248
  8
0
 62
     0
 10
3.502890399670499
 20
4.548817831339723
 30
0.0
 42
-0.0465116279069779
  0
VERTEX
  5
249
  8
0
 62
     0
 10
3.9328903996705
 20
4.548817831339724
 30
0.0
  0
VERTEX
  5
24A
  8
0
 62
     0
 10
3.9328903996705
 20
4.543817831339724
 30
0.0
 42
0.4142135623730951
  0
VERTEX
  5
24B
  8
0
 62
     0
 10
3.9378903996705
 20
4.538817831339724
 30
0.0
  0
VERTEX
  5
24C
  8
0
 62
     0
 10
3.9378903996705
 20
4.448817831339723
 30
0.0
  0
SEQEND
  5
461
  8
0
 62
     0
  0
LINE
  5
F7
  8
0
 62
     0
 10
3.9328903996705
 20
4.578946238725822
 30
0.0
 11
3.9328903996705
 21
4.548817831339724
 31
0.0
  0
LINE
  5
F8
  8
0
 62
     0
 10
3.9378903996705
 20
4.538817831339724
 30
0.0
 11
3.9628903996705
 21
4.538817831339724
 31
0.0
  0
LINE
  5
F9
  8
0
 62
     0
 10
2.872890399670499
 20
4.538817831339722
 30
0.0
 11
2.8978903996705
 21
4.538817831339723
 31
0.0
  0
LINE
  5
FA
  8
0
 62
     0
 10
2.9028903996705
 20
4.548817831339722
 30
0.0
 11
2.9028903996705
 21
4.578946238725821
 31
0.0
  0
LINE
  5
FB
  8
0
 62
     0
 10
3.0178903996705
 20
4.556658162873909
 30
0.0
 11
3.0178903996705
 21
4.586685802453805
 31
0.0
  0
LINE
  5
FC
  8
0
 62
     0
 10
3.2178903996705
 20
4.55665816287391
 30
0.0
 11
3.2178903996705
 21
4.586685802453806
 31
0.0
  0
LINE
  5
FD
  8
0
 62
     0
 10
3.3378903996705
 20
4.538817831339724
 30
0.0
 11
3.3628903996705
 21
4.538817831339724
 31
0.0
  0
LINE
  5
FE
  8
0
 62
     0
 10
3.3328903996705
 20
4.578946238725822
 30
0.0
 11
3.3328903996705
 21
4.548817831339724
 31
0.0
  0
POLYLINE
  5
FF
  8
0
 62
     0
 66
     1
 10
0.0
 20
0.0
 30
0.0
  0
VERTEX
  5
24D
  8
0
 62
     0
 10
2.8978903996705
 20
4.448817831339722
 30
0.0
  0
VERTEX
  5
24E
  8
0
 62
     0
 10
2.8978903996705
 20
4.538817831339723
 30
0.0
 42
0.4142135623730951
  0
VERTEX
  5
24F
  8
0
 62
     0
 10
2.9028903996705
 20
4.543817831339723
 30
0.0
  0
VERTEX
  5
250
  8
0
 62
     0
 10
2.902890399670499
 20
4.548817831339722
 30
0.0
 42
-0.0465116279069779
  0
VERTEX
  5
251
  8
0
 62
     0
 10
3.3328903996705
 20
4.548817831339724
 30
0.0
  0
VERTEX
  5
252
  8
0
 62
     0
 10
3.3328903996705
 20
4.543817831339723
 30
0.0
 42
0.4142135623730951
  0
VERTEX
  5
253
  8
0
 62
     0
 10
3.3378903996705
 20
4.538817831339723
 30
0.0
  0
VERTEX
  5
254
  8
0
 62
     0
 10
3.3378903996705
 20
4.448817831339722
 30
0.0
  0
SEQEND
  5
462
  8
0
 62
     0
  0
POLYLINE
  5
100
  8
0
 62
     0
 66
     1
 10
0.0
 20
0.0
 30
0.0
  0
VERTEX
  5
255
  8
0
 62
     0
 10
2.872890399670499
 20
4.448817831339722
 30
0.0
  0
VERTEX
  5
256
  8
0
 62
     0
 10
2.872890399670499
 20
4.538817831339722
 30
0.0
 42
-0.4142135623730951
  0
VERTEX
  5
257
  8
0
 62
     0
 10
2.867890399670499
 20
4.543817831339723
 30
0.0
  0
VERTEX
  5
258
  8
0
 62
     0
 10
2.867890399670499
 20
4.593817831339723
 30
0.0
 42
-0.4142135623730951
  0
VERTEX
  5
259
  8
0
 62
     0
 10
2.872890399670499
 20
4.598817831339723
 30
0.0
  0
VERTEX
  5
25A
  8
0
 62
     0
 10
2.8978903996705
 20
4.598817831339723
 30
0.0
 42
-0.4142135623730927
  0
VERTEX
  5
25B
  8
0
 62
     0
 10
2.9028903996705
 20
4.593817831339723
 30
0.0
  0
VERTEX
  5
25C
  8
0
 62
     0
 10
2.902890399670499
 20
4.57894623872582
 30
0.0
 42
-0.0459143842507079
  0
VERTEX
  5
25D
  8
0
 62
     0
 10
3.3328903996705
 20
4.578946238725822
 30
0.0
  0
VERTEX
  5
25E
  8
0
 62
     0
 10
3.3328903996705
 20
4.593817831339723
 30
0.0
 42
-0.4142135623730951
  0
VERTEX
  5
25F
  8
0
 62
     0
 10
3.3378903996705
 20
4.598817831339723
 30
0.0
  0
VERTEX
  5
260
  8
0
 62
     0
 10
3.3628903996705
 20
4.598817831339723
 30
0.0
 42
-0.4142135623730974
  0
VERTEX
  5
261
  8
0
 62
     0
 10
3.3678903996705
 20
4.593817831339723
 30
0.0
  0
VERTEX
  5
262
  8
0
 62
     0
 10
3.367890399670499
 20
4.543817831339723
 30
0.0
 42
-0.4142135623730951
  0
VERTEX
  5
263
  8
0
 62
     0
 10
3.3628903996705
 20
4.538817831339724
 30
0.0
  0
VERTEX
  5
264
  8
0
 62
     0
 10
3.3628903996705
 20
4.448817831339722
 30
0.0
  0
SEQEND
  5
463
  8
0
 62
     0
  0
POLYLINE
  5
101
  8
0
 62
     0
 66
     1
 10
0.0
 20
0.0
 30
0.0
  0
VERTEX
  5
265
  8
0
 62
     0
 10
2.267890399670499
 20
4.448817831339723
 30
0.0
  0
VERTEX
  5
266
  8
0
 62
     0
 10
2.267890399670499
 20
4.538817831339723
 30
0.0
 42
-0.4142135623730951
  0
VERTEX
  5
267
  8
0
 62
     0
 10
2.262890399670499
 20
4.543817831339723
 30
0.0
  0
VERTEX
  5
268
  8
0
 62
     0
 10
2.262890399670499
 20
4.593817831339724
 30
0.0
 42
-0.4142135623730951
  0
VERTEX
  5
269
  8
0
 62
     0
 10
2.267890399670499
 20
4.598817831339723
 30
0.0
  0
VERTEX
  5
26A
  8
0
 62
     0
 10
2.2928903996705
 20
4.598817831339723
 30
0.0
 42
-0.4142135623730927
  0
VERTEX
  5
26B
  8
0
 62
     0
 10
2.2978903996705
 20
4.593817831339724
 30
0.0
  0
VERTEX
  5
26C
  8
0
 62
     0
 10
2.297890399670499
 20
4.578946238725821
 30
0.0
 42
-0.0459143842507079
  0
VERTEX
  5
26D
  8
0
 62
     0
 10
2.7278903996705
 20
4.578946238725822
 30
0.0
  0
VERTEX
  5
26E
  8
0
 62
     0
 10
2.7278903996705
 20
4.593817831339724
 30
0.0
 42
-0.4142135623730951
  0
VERTEX
  5
26F
  8
0
 62
     0
 10
2.7328903996705
 20
4.598817831339723
 30
0.0
  0
VERTEX
  5
270
  8
0
 62
     0
 10
2.7578903996705
 20
4.598817831339723
 30
0.0
 42
-0.4142135623730974
  0
VERTEX
  5
271
  8
0
 62
     0
 10
2.7628903996705
 20
4.593817831339724
 30
0.0
  0
VERTEX
  5
272
  8
0
 62
     0
 10
2.762890399670499
 20
4.543817831339724
 30
0.0
 42
-0.4142135623730951
  0
VERTEX
  5
273
  8
0
 62
     0
 10
2.7578903996705
 20
4.538817831339724
 30
0.0
  0
VERTEX
  5
274
  8
0
 62
     0
 10
2.7578903996705
 20
4.448817831339723
 30
0.0
  0
SEQEND
  5
464
  8
0
 62
     0
  0
POLYLINE
  5
102
  8
0
 62
     0
 66
     1
 10
0.0
 20
0.0
 30
0.0
  0
VERTEX
  5
275
  8
0
 62
     0
 10
2.2928903996705
 20
4.448817831339723
 30
0.0
  0
VERTEX
  5
276
  8
0
 62
     0
 10
2.2928903996705
 20
4.538817831339724
 30
0.0
 42
0.4142135623730951
  0
VERTEX
  5
277
  8
0
 62
     0
 10
2.2978903996705
 20
4.543817831339723
 30
0.0
  0
VERTEX
  5
278
  8
0
 62
     0
 10
2.297890399670499
 20
4.548817831339723
 30
0.0
 42
-0.0465116279069779
  0
VERTEX
  5
279
  8
0
 62
     0
 10
2.7278903996705
 20
4.548817831339724
 30
0.0
  0
VERTEX
  5
27A
  8
0
 62
     0
 10
2.7278903996705
 20
4.543817831339724
 30
0.0
 42
0.4142135623730951
  0
VERTEX
  5
27B
  8
0
 62
     0
 10
2.7328903996705
 20
4.538817831339724
 30
0.0
  0
VERTEX
  5
27C
  8
0
 62
     0
 10
2.7328903996705
 20
4.448817831339723
 30
0.0
  0
SEQEND
  5
465
  8
0
 62
     0
  0
LINE
  5
103
  8
0
 62
     0
 10
2.7278903996705
 20
4.578946238725822
 30
0.0
 11
2.7278903996705
 21
4.548817831339724
 31
0.0
  0
LINE
  5
104
  8
0
 62
     0
 10
2.2978903996705
 20
4.548817831339723
 30
0.0
 11
2.2978903996705
 21
4.578946238725822
 31
0.0
  0
LINE
  5
105
  8
0
 62
     0
 10
2.4128903996705
 20
4.55665816287391
 30
0.0
 11
2.4128903996705
 21
4.586685802453806
 31
0.0
  0
LINE
  5
106
  8
0
 62
     0
 10
2.6128903996705
 20
4.55665816287391
 30
0.0
 11
2.6128903996705
 21
4.586685802453806
 31
0.0
  0
LINE
  5
107
  8
0
 62
     0
 10
2.7328903996705
 20
4.538817831339724
 30
0.0
 11
2.7578903996705
 21
4.538817831339724
 31
0.0
  0
LINE
  5
108
  8
0
 62
     0
 10
2.267890399670499
 20
4.538817831339723
 30
0.0
 11
2.2928903996705
 21
4.538817831339724
 31
0.0
  0
CIRCLE
  5
109
  8
0
 62
     0
 10
2.5128903996705
 20
4.312182916516196
 30
0.0
 40
0.085
  0
CIRCLE
  5
10A
  8
0
 62
     0
 10
2.5128903996705
 20
4.312182916516196
 30
0.0
 40
0.11
  0
CIRCLE
  5
10B
  8
0
 62
     0
 10
2.503162663631028
 20
3.88545274616325
 30
0.0
 40
0.11
  0
CIRCLE
  5
10C
  8
0
 62
     0
 10
2.503162663631028
 20
3.88545274616325
 30
0.0
 40
0.085
  0
CIRCLE
  5
10D
  8
0
 62
     0
 10
3.1178903996705
 20
4.312182916516196
 30
0.0
 40
0.11
  0
CIRCLE
  5
10E
  8
0
 62
     0
 10
3.1178903996705
 20
4.312182916516196
 30
0.0
 40
0.085
  0
CIRCLE
  5
10F
  8
0
 62
     0
 10
3.1178903996705
 20
3.88545274616325
 30
0.0
 40
0.11
  0
CIRCLE
  5
110
  8
0
 62
     0
 10
3.1178903996705
 20
3.88545274616325
 30
0.0
 40
0.085
  0
CIRCLE
  5
111
  8
0
 62
     0
 10
3.7178903996705
 20
4.312182916516196
 30
0.0
 40
0.11
  0
CIRCLE
  5
112
  8
0
 62
     0
 10
3.7178903996705
 20
4.312182916516196
 30
0.0
 40
0.085
  0
CIRCLE
  5
113
  8
0
 62
     0
 10
3.7178903996705
 20
3.88545274616325
 30
0.0
 40
0.11
  0
CIRCLE
  5
114
  8
0
 62
     0
 10
3.7178903996705
 20
3.88545274616325
 30
0.0
 40
0.085
  0
POLYLINE
  5
115
  8
0
 62
     0
 66
     1
 10
0.0
 20
0.0
 30
0.0
  0
VERTEX
  5
27D
  8
0
 62
     0
 10
2.351743690917023
 20
4.320880346234048
 30
0.0
 42
0.2360679777575331
  0
VERTEX
  5
27E
  8
0
 62
     0
 10
2.350943690916437
 20
4.320480346233267
 30
0.0
  0
SEQEND
  5
466
  8
0
 62
     0
  0
POLYLINE
  5
116
  8
0
 62
     0
 66
     1
 10
0.0
 20
0.0
 30
0.0
  0
VERTEX
  5
27F
  8
0
 62
     0
 10
2.673163874804004
 20
4.320480346234136
 30
0.0
 42
0.2360679774812706
  0
VERTEX
  5
280
  8
0
 62
     0
 10
2.672363874804004
 20
4.320880346234048
 30
0.0
  0
VERTEX
  5
281
  8
0
 62
     0
 10
2.658363874804003
 20
4.320880346234048
 30
0.0
 42
0.2360679777575331
  0
VERTEX
  5
282
  8
0
 62
     0
 10
2.657563874803418
 20
4.320480346233267
 30
0.0
  0
SEQEND
  5
467
  8
0
 62
     0
  0
POLYLINE
  5
117
  8
0
 62
     0
 66
     1
 10
0.0
 20
0.0
 30
0.0
  0
VERTEX
  5
283
  8
0
 62
     0
 10
3.278163874804004
 20
4.325480346234136
 30
0.0
 42
0.2360679774812706
  0
VERTEX
  5
284
  8
0
 62
     0
 10
3.277363874804004
 20
4.325880346234048
 30
0.0
  0
VERTEX
  5
285
  8
0
 62
     0
 10
3.263363874804003
 20
4.325880346234048
 30
0.0
 42
0.2360679777575331
  0
VERTEX
  5
286
  8
0
 62
     0
 10
3.262563874803418
 20
4.325480346233267
 30
0.0
  0
SEQEND
  5
468
  8
0
 62
     0
  0
LINE
  5
118
  8
0
 62
     0
 10
3.277363874804004
 20
4.322880346234048
 30
0.0
 11
3.263363874804004
 21
4.322880346234048
 31
0.0
  0
POLYLINE
  5
119
  8
0
 62
     0
 66
     1
 10
0.0
 20
0.0
 30
0.0
  0
VERTEX
  5
287
  8
0
 62
     0
 10
2.956743690917023
 20
4.325880346234048
 30
0.0
 42
0.2360679777575331
  0
VERTEX
  5
288
  8
0
 62
     0
 10
2.955943690916437
 20
4.325480346233267
 30
0.0
  0
SEQEND
  5
469
  8
0
 62
     0
  0
LINE
  5
11A
  8
0
 62
     0
 10
2.970743690917024
 20
4.325880346234048
 30
0.0
 11
2.956743690917023
 21
4.325880346234048
 31
0.0
  0
LINE
  5
11B
  8
0
 62
     0
 10
2.970743690917024
 20
4.322880346234048
 30
0.0
 11
2.956743690917023
 21
4.322880346234048
 31
0.0
  0
LINE
  5
11C
  8
0
 62
     0
 10
3.877363874804004
 20
4.327880346234048
 30
0.0
 11
3.863363874804004
 21
4.327880346234048
 31
0.0
  0
POLYLINE
  5
11D
  8
0
 62
     0
 66
     1
 10
0.0
 20
0.0
 30
0.0
  0
VERTEX
  5
289
  8
0
 62
     0
 10
3.878163874804004
 20
4.330480346234136
 30
0.0
 42
0.2360679774812706
  0
VERTEX
  5
28A
  8
0
 62
     0
 10
3.877363874804004
 20
4.330880346234048
 30
0.0
  0
VERTEX
  5
28B
  8
0
 62
     0
 10
3.863363874804004
 20
4.330880346234048
 30
0.0
 42
0.2360679777575331
  0
VERTEX
  5
28C
  8
0
 62
     0
 10
3.862563874803418
 20
4.330480346233267
 30
0.0
  0
SEQEND
  5
46A
  8
0
 62
     0
  0
LINE
  5
11E
  8
0
 62
     0
 10
3.570743690917024
 20
4.327880346234048
 30
0.0
 11
3.556743690917024
 21
4.327880346234048
 31
0.0
  0
LINE
  5
11F
  8
0
 62
     0
 10
3.570743690917024
 20
4.330880346234048
 30
0.0
 11
3.556743690917023
 21
4.330880346234048
 31
0.0
  0
POLYLINE
  5
120
  8
0
 62
     0
 66
     1
 10
0.0
 20
0.0
 30
0.0
  0
VERTEX
  5
28D
  8
0
 62
     0
 10
3.556743690917023
 20
4.330880346234048
 30
0.0
 42
0.2360679777575331
  0
VERTEX
  5
28E
  8
0
 62
     0
 10
3.555943690916437
 20
4.330480346233267
 30
0.0
  0
SEQEND
  5
46B
  8
0
 62
     0
  0
POLYLINE
  5
121
  8
0
 62
     0
 66
     1
 10
0.0
 20
0.0
 30
0.0
  0
VERTEX
  5
28F
  8
0
 62
     0
 10
2.35681595487751
 20
3.877155316445342
 30
0.0
 42
-0.2360679774812238
  0
VERTEX
  5
290
  8
0
 62
     0
 10
2.356015954877552
 20
3.876755316445398
 30
0.0
  0
VERTEX
  5
291
  8
0
 62
     0
 10
2.342015954877551
 20
3.876755316445398
 30
0.0
 42
-0.2360679777575873
  0
VERTEX
  5
292
  8
0
 62
     0
 10
2.341215954876965
 20
3.877155316446179
 30
0.0
  0
SEQEND
  5
46C
  8
0
 62
     0
  0
POLYLINE
  5
122
  8
0
 62
     0
 66
     1
 10
0.0
 20
0.0
 30
0.0
  0
VERTEX
  5
293
  8
0
 62
     0
 10
2.649509372384546
 20
3.877155316445342
 30
0.0
 42
0.2360679774812238
  0
VERTEX
  5
294
  8
0
 62
     0
 10
2.650309372384504
 20
3.876755316445398
 30
0.0
  0
VERTEX
  5
295
  8
0
 62
     0
 10
2.664309372384504
 20
3.876755316445398
 30
0.0
 42
0.2360679777575873
  0
VERTEX
  5
296
  8
0
 62
     0
 10
2.66510937238509
 20
3.877155316446179
 30
0.0
  0
SEQEND
  5
46D
  8
0
 62
     0
  0
POLYLINE
  5
123
  8
0
 62
     0
 66
     1
 10
0.0
 20
0.0
 30
0.0
 70
     1
  0
VERTEX
  5
297
  8
0
 62
     0
 10
2.759431834129306
 20
3.878704112507092
 30
0.0
  0
VERTEX
  5
298
  8
0
 62
     0
 10
2.683594542503956
 20
3.950950000904073
 30
0.0
  0
VERTEX
  5
299
  8
0
 62
     0
 10
2.683594542503956
 20
3.814748739206138
 30
0.0
  0
SEQEND
  5
46E
  8
0
 62
     0
  0
POLYLINE
  5
124
  8
0
 62
     0
 66
     1
 10
0.0
 20
0.0
 30
0.0
  0
VERTEX
  5
29A
  8
0
 62
     0
 10
2.971543690916982
 20
3.877155316445342
 30
0.0
 42
-0.2360679774812238
  0
VERTEX
  5
29B
  8
0
 62
     0
 10
2.970743690917025
 20
3.876755316445398
 30
0.0
  0
VERTEX
  5
29C
  8
0
 62
     0
 10
2.956743690917024
 20
3.876755316445398
 30
0.0
 42
-0.2360679777575873
  0
VERTEX
  5
29D
  8
0
 62
     0
 10
2.955943690916438
 20
3.877155316446179
 30
0.0
  0
SEQEND
  5
46F
  8
0
 62
     0
  0
LINE
  5
125
  8
0
 62
     0
 10
2.970743690917025
 20
3.879755316445398
 30
0.0
 11
2.956743690917024
 21
3.879755316445397
 31
0.0
  0
POLYLINE
  5
126
  8
0
 62
     0
 66
     1
 10
0.0
 20
0.0
 30
0.0
  0
VERTEX
  5
29E
  8
0
 62
     0
 10
3.264237108424019
 20
3.877155316445342
 30
0.0
 42
0.2360679774812238
  0
VERTEX
  5
29F
  8
0
 62
     0
 10
3.265037108423976
 20
3.876755316445398
 30
0.0
  0
VERTEX
  5
2A0
  8
0
 62
     0
 10
3.279037108423977
 20
3.876755316445398
 30
0.0
 42
0.2360679777575873
  0
VERTEX
  5
2A1
  8
0
 62
     0
 10
3.279837108424563
 20
3.877155316446179
 30
0.0
  0
SEQEND
  5
470
  8
0
 62
     0
  0
ARC
  5
127
  8
0
 62
     0
 10
3.260237108423977
 20
3.899548692158183
 30
0.0
 40
0.0002
 50
180.0
 51
189.5197859859259
  0
LINE
  5
128
  8
0
 62
     0
 10
3.265037108423976
 20
3.879755316445398
 30
0.0
 11
3.279037108423977
 21
3.879755316445397
 31
0.0
  0
POLYLINE
  5
129
  8
0
 62
     0
 66
     1
 10
0.0
 20
0.0
 30
0.0
 70
     1
  0
VERTEX
  5
2A2
  8
0
 62
     0
 10
3.374159570168779
 20
3.878704112507092
 30
0.0
  0
VERTEX
  5
2A3
  8
0
 62
     0
 10
3.298322278543429
 20
3.950950000904073
 30
0.0
  0
VERTEX
  5
2A4
  8
0
 62
     0
 10
3.298322278543429
 20
3.814748739206138
 30
0.0
  0
SEQEND
  5
471
  8
0
 62
     0
  0
LINE
  5
12A
  8
0
 62
     0
 10
3.570743690917025
 20
3.879755316445398
 30
0.0
 11
3.556743690917024
 21
3.879755316445397
 31
0.0
  0
POLYLINE
  5
12B
  8
0
 62
     0
 66
     1
 10
0.0
 20
0.0
 30
0.0
  0
VERTEX
  5
2A5
  8
0
 62
     0
 10
3.571543690916982
 20
3.877155316445342
 30
0.0
 42
-0.2360679774812238
  0
VERTEX
  5
2A6
  8
0
 62
     0
 10
3.570743690917025
 20
3.876755316445398
 30
0.0
  0
VERTEX
  5
2A7
  8
0
 62
     0
 10
3.556743690917024
 20
3.876755316445398
 30
0.0
 42
-0.2360679777575873
  0
VERTEX
  5
2A8
  8
0
 62
     0
 10
3.555943690916438
 20
3.877155316446179
 30
0.0
  0
SEQEND
  5
472
  8
0
 62
     0
  0
POLYLINE
  5
12C
  8
0
 62
     0
 66
     1
 10
0.0
 20
0.0
 30
0.0
 70
     1
  0
VERTEX
  5
2A9
  8
0
 62
     0
 10
3.974159570168779
 20
3.878704112507092
 30
0.0
  0
VERTEX
  5
2AA
  8
0
 62
     0
 10
3.898322278543429
 20
3.950950000904073
 30
0.0
  0
VERTEX
  5
2AB
  8
0
 62
     0
 10
3.898322278543429
 20
3.814748739206138
 30
0.0
  0
SEQEND
  5
473
  8
0
 62
     0
  0
LINE
  5
12D
  8
0
 62
     0
 10
3.865037108423977
 20
3.879755316445398
 30
0.0
 11
3.879037108423977
 21
3.879755316445397
 31
0.0
  0
ARC
  5
12E
  8
0
 62
     0
 10
3.860237108423977
 20
3.899548692158183
 30
0.0
 40
0.0002
 50
180.0
 51
189.5197859859259
  0
POLYLINE
  5
12F
  8
0
 62
     0
 66
     1
 10
0.0
 20
0.0
 30
0.0
  0
VERTEX
  5
2AC
  8
0
 62
     0
 10
3.864237108424019
 20
3.877155316445342
 30
0.0
 42
0.2360679774812238
  0
VERTEX
  5
2AD
  8
0
 62
     0
 10
3.865037108423977
 20
3.876755316445398
 30
0.0
  0
VERTEX
  5
2AE
  8
0
 62
     0
 10
3.879037108423977
 20
3.876755316445398
 30
0.0
 42
0.2360679777575873
  0
VERTEX
  5
2AF
  8
0
 62
     0
 10
3.879837108424563
 20
3.877155316446179
 30
0.0
  0
SEQEND
  5
474
  8
0
 62
     0
  0
POLYLINE
  5
130
  8
0
 62
     0
 66
     1
 10
0.0
 20
0.0
 30
0.0
 70
     1
  0
VERTEX
  5
2B0
  8
0
 62
     0
 10
2.937458520797571
 20
4.387886923473308
 30
0.0
  0
VERTEX
  5
2B1
  8
0
 62
     0
 10
2.861621229172222
 20
4.323931550172354
 30
0.0
  0
VERTEX
  5
2B2
  8
0
 62
     0
 10
2.937458520797571
 20
4.251685661775373
 30
0.0
  0
SEQEND
  5
475
  8
0
 62
     0
  0
POLYLINE
  5
131
  8
0
 62
     0
 66
     1
 10
0.0
 20
0.0
 30
0.0
 70
     1
  0
VERTEX
  5
2B3
  8
0
 62
     0
 10
3.537458520797571
 20
4.392886923473307
 30
0.0
  0
VERTEX
  5
2B4
  8
0
 62
     0
 10
3.461621229172222
 20
4.328931550172354
 30
0.0
  0
VERTEX
  5
2B5
  8
0
 62
     0
 10
3.537458520797571
 20
4.256685661775373
 30
0.0
  0
SEQEND
  5
476
  8
0
 62
     0
  0
POLYLINE
  5
132
  8
0
 62
     0
 66
     1
 10
0.0
 20
0.0
 30
0.0
  0
VERTEX
  5
2B6
  8
0
 62
     0
 10
2.365743690917024
 20
4.317880346234048
 30
0.0
 42
0.4142135623730951
  0
VERTEX
  5
2B7
  8
0
 62
     0
 10
2.366743690917023
 20
4.318880346234048
 30
0.0
  0
VERTEX
  5
2B8
  8
0
 62
     0
 10
2.366743690917024
 20
4.319880346234048
 30
0.0
 42
0.1622776601684705
  0
VERTEX
  5
2B9
  8
0
 62
     0
 10
2.366543690917024
 20
4.320480346234048
 30
0.0
  0
SEQEND
  5
477
  8
0
 62
     0
  0
POLYLINE
  5
133
  8
0
 62
     0
 66
     1
 10
0.0
 20
0.0
 30
0.0
  0
VERTEX
  5
2BA
  8
0
 62
     0
 10
2.365743690917024
 20
4.320880346234048
 30
0.0
 42
-0.2360679774996959
  0
VERTEX
  5
2BB
  8
0
 62
     0
 10
2.366543690917024
 20
4.320480346234136
 30
0.0
  0
VERTEX
  5
2BC
  8
0
 62
     0
 10
2.366543690917024
 20
4.389622408238235
 30
0.0
 42
0.3431077501416327
  0
VERTEX
  5
2BD
  8
0
 62
     0
 10
2.360243690917024
 20
4.394522408238235
 30
0.0
  0
VERTEX
  5
2BE
  8
0
 62
     0
 10
2.355743690917024
 20
4.394522408238235
 30
0.0
 42
0.3333333333309509
  0
VERTEX
  5
2BF
  8
0
 62
     0
 10
2.350943690917036
 20
4.39092240823822
 30
0.0
  0
VERTEX
  5
2C0
  8
0
 62
     0
 10
2.350943690916437
 20
4.320480346233267
 30
0.0
 42
0.162277659917721
  0
VERTEX
  5
2C1
  8
0
 62
     0
 10
2.350743690917023
 20
4.319880346234048
 30
0.0
  0
VERTEX
  5
2C2
  8
0
 62
     0
 10
2.350743690917024
 20
4.318880346234049
 30
0.0
 42
0.414213562373095
  0
VERTEX
  5
2C3
  8
0
 62
     0
 10
2.351743690917024
 20
4.317880346234048
 30
0.0
  0
SEQEND
  5
478
  8
0
 62
     0
  0
POLYLINE
  5
134
  8
0
 62
     0
 66
     1
 10
0.0
 20
0.0
 30
0.0
  0
VERTEX
  5
2C4
  8
0
 62
     0
 10
2.351743690917024
 20
4.317880346234048
 30
0.0
  0
VERTEX
  5
2C5
  8
0
 62
     0
 10
2.351743690917024
 20
4.241312138633063
 30
0.0
 42
0.414213562373069
  0
VERTEX
  5
2C6
  8
0
 62
     0
 10
2.356743690917023
 20
4.236312138633062
 30
0.0
 42
0.2890490536833267
  0
VERTEX
  5
2C7
  8
0
 62
     0
 10
2.370740433495609
 20
4.251534125566779
 30
0.0
 42
0.0452130567544548
  0
VERTEX
  5
2C8
  8
0
 62
     0
 10
2.370743690917024
 20
4.251570074944679
 30
0.0
  0
VERTEX
  5
2C9
  8
0
 62
     0
 10
2.370743690917024
 20
4.298103617304694
 30
0.0
 42
0.0408300771161408
  0
VERTEX
  5
2CA
  8
0
 62
     0
 10
2.365743690917024
 20
4.317880346234048
 30
0.0
 42
0.4142135623730951
  0
SEQEND
  5
479
  8
0
 62
     0
  0
POLYLINE
  5
135
  8
0
 62
     0
 66
     1
 10
0.0
 20
0.0
 30
0.0
  0
VERTEX
  5
2CB
  8
0
 62
     0
 10
2.672363874804004
 20
4.317880346234048
 30
0.0
 42
0.4142135623730932
  0
VERTEX
  5
2CC
  8
0
 62
     0
 10
2.673363874804004
 20
4.318880346234048
 30
0.0
  0
VERTEX
  5
2CD
  8
0
 62
     0
 10
2.673363874804004
 20
4.319880346234048
 30
0.0
 42
0.1622776601863828
  0
VERTEX
  5
2CE
  8
0
 62
     0
 10
2.673163874804004
 20
4.320480346234136
 30
0.0
  0
VERTEX
  5
2CF
  8
0
 62
     0
 10
2.673163874804005
 20
4.389622408238097
 30
0.0
 42
0.3431077501415751
  0
VERTEX
  5
2D0
  8
0
 62
     0
 10
2.666863874804005
 20
4.394522408238235
 30
0.0
  0
SEQEND
  5
47A
  8
0
 62
     0
  0
POLYLINE
  5
136
  8
0
 62
     0
 66
     1
 10
0.0
 20
0.0
 30
0.0
  0
VERTEX
  5
2D1
  8
0
 62
     0
 10
2.666863874804005
 20
4.394522408238235
 30
0.0
  0
VERTEX
  5
2D2
  8
0
 62
     0
 10
2.662363874804004
 20
4.394522408238235
 30
0.0
 42
0.33333333333328
  0
VERTEX
  5
2D3
  8
0
 62
     0
 10
2.657563874804005
 20
4.390922408238237
 30
0.0
  0
VERTEX
  5
2D4
  8
0
 62
     0
 10
2.657563874803418
 20
4.320480346233267
 30
0.0
 42
0.1622776599178501
  0
VERTEX
  5
2D5
  8
0
 62
     0
 10
2.657363874804004
 20
4.319880346234048
 30
0.0
  0
VERTEX
  5
2D6
  8
0
 62
     0
 10
2.657363874804004
 20
4.318880346234049
 30
0.0
 42
0.4142135623732252
  0
VERTEX
  5
2D7
  8
0
 62
     0
 10
2.658363874804004
 20
4.317880346234048
 30
0.0
 42
-0.321708988299323
  0
SEQEND
  5
47B
  8
0
 62
     0
  0
POLYLINE
  5
137
  8
0
 62
     0
 66
     1
 10
0.0
 20
0.0
 30
0.0
  0
VERTEX
  5
2D8
  8
0
 62
     0
 10
2.658363874804003
 20
4.317880346234048
 30
0.0
 42
-0.321708988299323
  0
VERTEX
  5
2D9
  8
0
 62
     0
 10
2.656076570789879
 20
4.293125134643841
 30
0.0
 42
0.1805855218398166
  0
VERTEX
  5
2DA
  8
0
 62
     0
 10
2.654363874804004
 20
4.288537715297169
 30
0.0
  0
VERTEX
  5
2DB
  8
0
 62
     0
 10
2.654363874804003
 20
4.281312138633063
 30
0.0
 42
0.0361215117632298
  0
VERTEX
  5
2DC
  8
0
 62
     0
 10
2.656208200853487
 20
4.237640884990755
 30
0.0
 42
0.3810846244233958
  0
VERTEX
  5
2DD
  8
0
 62
     0
 10
2.657698392851186
 20
4.236312138633064
 30
0.0
  0
VERTEX
  5
2DE
  8
0
 62
     0
 10
2.657435303375434
 20
4.236312138633063
 30
0.0
 42
0.4142135623729047
  0
VERTEX
  5
2DF
  8
0
 62
     0
 10
2.658935303375433
 20
4.237812138633063
 30
0.0
  0
VERTEX
  5
2E0
  8
0
 62
     0
 10
2.658935303375433
 20
4.280312138633063
 30
0.0
 42
-0.4142135623730951
  0
VERTEX
  5
2E1
  8
0
 62
     0
 10
2.659935303375433
 20
4.281312138633062
 30
0.0
  0
VERTEX
  5
2E2
  8
0
 62
     0
 10
2.660506731946861
 20
4.281312138633063
 30
0.0
 42
-0.4142135623731749
  0
VERTEX
  5
2E3
  8
0
 62
     0
 10
2.661506731946861
 20
4.280312138633063
 30
0.0
  0
VERTEX
  5
2E4
  8
0
 62
     0
 10
2.661506731946861
 20
4.237512138633063
 30
0.0
 42
0.4142135623727418
  0
VERTEX
  5
2E5
  8
0
 62
     0
 10
2.66270673194686
 20
4.236312138633063
 30
0.0
  0
VERTEX
  5
2E6
  8
0
 62
     0
 10
2.66287816051829
 20
4.236312138633062
 30
0.0
 42
0.4142135623730951
  0
VERTEX
  5
2E7
  8
0
 62
     0
 10
2.66407816051829
 20
4.237512138633062
 30
0.0
  0
VERTEX
  5
2E8
  8
0
 62
     0
 10
2.66407816051829
 20
4.280312138633063
 30
0.0
 42
-0.4142135623730979
  0
VERTEX
  5
2E9
  8
0
 62
     0
 10
2.66507816051829
 20
4.281312138633063
 30
0.0
  0
VERTEX
  5
2EA
  8
0
 62
     0
 10
2.665649589089718
 20
4.281312138633063
 30
0.0
 42
-0.4142135623730951
  0
VERTEX
  5
2EB
  8
0
 62
     0
 10
2.666649589089718
 20
4.280312138633063
 30
0.0
  0
VERTEX
  5
2EC
  8
0
 62
     0
 10
2.666649589089718
 20
4.237512138633063
 30
0.0
 42
0.4142135623727448
  0
VERTEX
  5
2ED
  8
0
 62
     0
 10
2.667849589089717
 20
4.236312138633064
 30
0.0
  0
VERTEX
  5
2EE
  8
0
 62
     0
 10
2.668021017661146
 20
4.236312138633063
 30
0.0
 42
0.4142135623733226
  0
VERTEX
  5
2EF
  8
0
 62
     0
 10
2.669221017661147
 20
4.237512138633063
 30
0.0
  0
VERTEX
  5
2F0
  8
0
 62
     0
 10
2.669221017661147
 20
4.280312138633063
 30
0.0
 42
-0.4142135623730446
  0
VERTEX
  5
2F1
  8
0
 62
     0
 10
2.670221017661147
 20
4.281312138633062
 30
0.0
  0
VERTEX
  5
2F2
  8
0
 62
     0
 10
2.670792446232575
 20
4.281312138633063
 30
0.0
 42
-0.4142135623732606
  0
VERTEX
  5
2F3
  8
0
 62
     0
 10
2.671792446232575
 20
4.280312138633063
 30
0.0
  0
VERTEX
  5
2F4
  8
0
 62
     0
 10
2.671792446232575
 20
4.237512138633063
 30
0.0
 42
0.4142135623729044
  0
VERTEX
  5
2F5
  8
0
 62
     0
 10
2.672992446232574
 20
4.236312138633064
 30
0.0
  0
VERTEX
  5
2F6
  8
0
 62
     0
 10
2.67329673573824
 20
4.236312138633063
 30
0.0
 42
0.3808307970081749
  0
VERTEX
  5
2F7
  8
0
 62
     0
 10
2.674488767396438
 20
4.237374078769762
 30
0.0
 42
0.0363434611571242
  0
VERTEX
  5
2F8
  8
0
 62
     0
 10
2.676363874804005
 20
4.281312138633062
 30
0.0
  0
VERTEX
  5
2F9
  8
0
 62
     0
 10
2.676363874804005
 20
4.288537715297144
 30
0.0
 42
0.1805855218399959
  0
VERTEX
  5
2FA
  8
0
 62
     0
 10
2.674651178818126
 20
4.29312513464382
 30
0.0
 42
-0.3217089882995043
  0
VERTEX
  5
2FB
  8
0
 62
     0
 10
2.672363874804004
 20
4.317880346234048
 30
0.0
 42
0.4142135623730932
  0
SEQEND
  5
47C
  8
0
 62
     0
  0
POLYLINE
  5
138
  8
0
 62
     0
 66
     1
 10
0.0
 20
0.0
 30
0.0
  0
VERTEX
  5
2FC
  8
0
 62
     0
 10
2.970743690917024
 20
4.322880346234048
 30
0.0
 42
0.4142135623730951
  0
VERTEX
  5
2FD
  8
0
 62
     0
 10
2.971743690917023
 20
4.323880346234048
 30
0.0
  0
VERTEX
  5
2FE
  8
0
 62
     0
 10
2.971743690917024
 20
4.324880346234048
 30
0.0
 42
0.1622776601684705
  0
VERTEX
  5
2FF
  8
0
 62
     0
 10
2.971543690917024
 20
4.325480346234048
 30
0.0
  0
SEQEND
  5
47D
  8
0
 62
     0
  0
POLYLINE
  5
139
  8
0
 62
     0
 66
     1
 10
0.0
 20
0.0
 30
0.0
  0
VERTEX
  5
300
  8
0
 62
     0
 10
2.970743690917024
 20
4.325880346234048
 30
0.0
 42
-0.2360679774996959
  0
VERTEX
  5
301
  8
0
 62
     0
 10
2.971543690917024
 20
4.325480346234136
 30
0.0
  0
VERTEX
  5
302
  8
0
 62
     0
 10
2.971543690917024
 20
4.394622408238235
 30
0.0
 42
0.3431077501416327
  0
VERTEX
  5
303
  8
0
 62
     0
 10
2.965243690917024
 20
4.399522408238234
 30
0.0
  0
VERTEX
  5
304
  8
0
 62
     0
 10
2.960743690917024
 20
4.399522408238234
 30
0.0
 42
0.3333333333309509
  0
VERTEX
  5
305
  8
0
 62
     0
 10
2.955943690917036
 20
4.39592240823822
 30
0.0
  0
VERTEX
  5
306
  8
0
 62
     0
 10
2.955943690916437
 20
4.325480346233267
 30
0.0
 42
0.162277659917721
  0
VERTEX
  5
307
  8
0
 62
     0
 10
2.955743690917023
 20
4.324880346234048
 30
0.0
  0
VERTEX
  5
308
  8
0
 62
     0
 10
2.955743690917024
 20
4.323880346234048
 30
0.0
 42
0.4142135623732252
  0
VERTEX
  5
309
  8
0
 62
     0
 10
2.956743690917023
 20
4.322880346234048
 30
0.0
  0
SEQEND
  5
47E
  8
0
 62
     0
  0
POLYLINE
  5
13A
  8
0
 62
     0
 66
     1
 10
0.0
 20
0.0
 30
0.0
  0
VERTEX
  5
30A
  8
0
 62
     0
 10
2.956743690917023
 20
4.322880346234048
 30
0.0
  0
VERTEX
  5
30B
  8
0
 62
     0
 10
2.956743690917023
 20
4.246312138633063
 30
0.0
 42
0.414213562373069
  0
VERTEX
  5
30C
  8
0
 62
     0
 10
2.961743690917023
 20
4.241312138633062
 30
0.0
 42
0.2890490536833267
  0
VERTEX
  5
30D
  8
0
 62
     0
 10
2.975740433495609
 20
4.256534125566779
 30
0.0
 42
0.0452130567544548
  0
VERTEX
  5
30E
  8
0
 62
     0
 10
2.975743690917024
 20
4.256570074944679
 30
0.0
  0
VERTEX
  5
30F
  8
0
 62
     0
 10
2.975743690917024
 20
4.303103617304694
 30
0.0
 42
0.0408300771161408
  0
VERTEX
  5
310
  8
0
 62
     0
 10
2.970743690917024
 20
4.322880346234048
 30
0.0
 42
0.4142135623730951
  0
SEQEND
  5
47F
  8
0
 62
     0
  0
POLYLINE
  5
13B
  8
0
 62
     0
 66
     1
 10
0.0
 20
0.0
 30
0.0
  0
VERTEX
  5
311
  8
0
 62
     0
 10
3.277363874804004
 20
4.322880346234048
 30
0.0
 42
0.4142135623730932
  0
VERTEX
  5
312
  8
0
 62
     0
 10
3.278363874804004
 20
4.323880346234048
 30
0.0
  0
VERTEX
  5
313
  8
0
 62
     0
 10
3.278363874804004
 20
4.324880346234048
 30
0.0
 42
0.1622776601863828
  0
VERTEX
  5
314
  8
0
 62
     0
 10
3.278163874804004
 20
4.325480346234136
 30
0.0
  0
VERTEX
  5
315
  8
0
 62
     0
 10
3.278163874804005
 20
4.394622408238097
 30
0.0
 42
0.3431077501415751
  0
VERTEX
  5
316
  8
0
 62
     0
 10
3.271863874804005
 20
4.399522408238235
 30
0.0
  0
SEQEND
  5
480
  8
0
 62
     0
  0
POLYLINE
  5
13C
  8
0
 62
     0
 66
     1
 10
0.0
 20
0.0
 30
0.0
  0
VERTEX
  5
317
  8
0
 62
     0
 10
3.271863874804005
 20
4.399522408238235
 30
0.0
  0
VERTEX
  5
318
  8
0
 62
     0
 10
3.267363874804004
 20
4.399522408238234
 30
0.0
 42
0.33333333333328
  0
VERTEX
  5
319
  8
0
 62
     0
 10
3.262563874804005
 20
4.395922408238237
 30
0.0
  0
VERTEX
  5
31A
  8
0
 62
     0
 10
3.262563874803418
 20
4.325480346233267
 30
0.0
 42
0.1622776599178501
  0
VERTEX
  5
31B
  8
0
 62
     0
 10
3.262363874804004
 20
4.324880346234048
 30
0.0
  0
VERTEX
  5
31C
  8
0
 62
     0
 10
3.262363874804004
 20
4.323880346234048
 30
0.0
 42
0.4142135623730951
  0
VERTEX
  5
31D
  8
0
 62
     0
 10
3.263363874804003
 20
4.322880346234048
 30
0.0
 42
-0.321708988299323
  0
SEQEND
  5
481
  8
0
 62
     0
  0
POLYLINE
  5
13D
  8
0
 62
     0
 66
     1
 10
0.0
 20
0.0
 30
0.0
  0
VERTEX
  5
31E
  8
0
 62
     0
 10
3.263363874804003
 20
4.322880346234048
 30
0.0
 42
-0.321708988299323
  0
VERTEX
  5
31F
  8
0
 62
     0
 10
3.261076570789879
 20
4.298125134643841
 30
0.0
 42
0.1805855218398166
  0
VERTEX
  5
320
  8
0
 62
     0
 10
3.259363874804004
 20
4.293537715297169
 30
0.0
  0
VERTEX
  5
321
  8
0
 62
     0
 10
3.259363874804003
 20
4.286312138633063
 30
0.0
 42
0.0361215117632298
  0
VERTEX
  5
322
  8
0
 62
     0
 10
3.261208200853487
 20
4.242640884990755
 30
0.0
 42
0.3810846244233958
  0
VERTEX
  5
323
  8
0
 62
     0
 10
3.262698392851186
 20
4.241312138633064
 30
0.0
  0
VERTEX
  5
324
  8
0
 62
     0
 10
3.262435303375434
 20
4.241312138633063
 30
0.0
 42
0.4142135623729047
  0
VERTEX
  5
325
  8
0
 62
     0
 10
3.263935303375433
 20
4.242812138633063
 30
0.0
  0
VERTEX
  5
326
  8
0
 62
     0
 10
3.263935303375433
 20
4.285312138633063
 30
0.0
 42
-0.4142135623730951
  0
VERTEX
  5
327
  8
0
 62
     0
 10
3.264935303375433
 20
4.286312138633062
 30
0.0
  0
VERTEX
  5
328
  8
0
 62
     0
 10
3.265506731946861
 20
4.286312138633063
 30
0.0
 42
-0.4142135623731749
  0
VERTEX
  5
329
  8
0
 62
     0
 10
3.266506731946861
 20
4.285312138633063
 30
0.0
  0
VERTEX
  5
32A
  8
0
 62
     0
 10
3.266506731946861
 20
4.242512138633063
 30
0.0
 42
0.4142135623727418
  0
VERTEX
  5
32B
  8
0
 62
     0
 10
3.26770673194686
 20
4.241312138633063
 30
0.0
  0
VERTEX
  5
32C
  8
0
 62
     0
 10
3.26787816051829
 20
4.241312138633062
 30
0.0
 42
0.4142135623730951
  0
VERTEX
  5
32D
  8
0
 62
     0
 10
3.26907816051829
 20
4.242512138633062
 30
0.0
  0
VERTEX
  5
32E
  8
0
 62
     0
 10
3.26907816051829
 20
4.285312138633063
 30
0.0
 42
-0.4142135623730979
  0
VERTEX
  5
32F
  8
0
 62
     0
 10
3.27007816051829
 20
4.286312138633063
 30
0.0
  0
VERTEX
  5
330
  8
0
 62
     0
 10
3.270649589089718
 20
4.286312138633063
 30
0.0
 42
-0.4142135623730951
  0
VERTEX
  5
331
  8
0
 62
     0
 10
3.271649589089718
 20
4.285312138633063
 30
0.0
  0
VERTEX
  5
332
  8
0
 62
     0
 10
3.271649589089718
 20
4.242512138633063
 30
0.0
 42
0.4142135623727448
  0
VERTEX
  5
333
  8
0
 62
     0
 10
3.272849589089717
 20
4.241312138633064
 30
0.0
  0
VERTEX
  5
334
  8
0
 62
     0
 10
3.273021017661146
 20
4.241312138633063
 30
0.0
 42
0.4142135623733226
  0
VERTEX
  5
335
  8
0
 62
     0
 10
3.274221017661147
 20
4.242512138633063
 30
0.0
  0
VERTEX
  5
336
  8
0
 62
     0
 10
3.274221017661147
 20
4.285312138633063
 30
0.0
 42
-0.4142135623730446
  0
VERTEX
  5
337
  8
0
 62
     0
 10
3.275221017661147
 20
4.286312138633062
 30
0.0
  0
VERTEX
  5
338
  8
0
 62
     0
 10
3.275792446232575
 20
4.286312138633063
 30
0.0
 42
-0.4142135623732606
  0
VERTEX
  5
339
  8
0
 62
     0
 10
3.276792446232575
 20
4.285312138633063
 30
0.0
  0
VERTEX
  5
33A
  8
0
 62
     0
 10
3.276792446232575
 20
4.242512138633063
 30
0.0
 42
0.4142135623729044
  0
VERTEX
  5
33B
  8
0
 62
     0
 10
3.277992446232574
 20
4.241312138633064
 30
0.0
  0
VERTEX
  5
33C
  8
0
 62
     0
 10
3.27829673573824
 20
4.241312138633063
 30
0.0
 42
0.3808307970081749
  0
VERTEX
  5
33D
  8
0
 62
     0
 10
3.279488767396438
 20
4.242374078769762
 30
0.0
 42
0.0363434611571242
  0
VERTEX
  5
33E
  8
0
 62
     0
 10
3.281363874804005
 20
4.286312138633062
 30
0.0
  0
VERTEX
  5
33F
  8
0
 62
     0
 10
3.281363874804005
 20
4.293537715297144
 30
0.0
 42
0.1805855218399959
  0
VERTEX
  5
340
  8
0
 62
     0
 10
3.279651178818126
 20
4.298125134643819
 30
0.0
 42
-0.3217089882995043
  0
VERTEX
  5
341
  8
0
 62
     0
 10
3.277363874804004
 20
4.322880346234048
 30
0.0
 42
0.4142135623730932
  0
SEQEND
  5
482
  8
0
 62
     0
  0
POLYLINE
  5
13E
  8
0
 62
     0
 66
     1
 10
0.0
 20
0.0
 30
0.0
  0
VERTEX
  5
342
  8
0
 62
     0
 10
3.570743690917024
 20
4.327880346234048
 30
0.0
 42
0.4142135623730951
  0
VERTEX
  5
343
  8
0
 62
     0
 10
3.571743690917023
 20
4.328880346234047
 30
0.0
  0
VERTEX
  5
344
  8
0
 62
     0
 10
3.571743690917024
 20
4.329880346234048
 30
0.0
 42
0.1622776601684705
  0
VERTEX
  5
345
  8
0
 62
     0
 10
3.571543690917024
 20
4.330480346234048
 30
0.0
  0
SEQEND
  5
483
  8
0
 62
     0
  0
POLYLINE
  5
13F
  8
0
 62
     0
 66
     1
 10
0.0
 20
0.0
 30
0.0
  0
VERTEX
  5
346
  8
0
 62
     0
 10
3.570743690917024
 20
4.330880346234048
 30
0.0
 42
-0.2360679774996959
  0
VERTEX
  5
347
  8
0
 62
     0
 10
3.571543690917024
 20
4.330480346234136
 30
0.0
  0
VERTEX
  5
348
  8
0
 62
     0
 10
3.571543690917024
 20
4.399622408238235
 30
0.0
 42
0.3431077501416327
  0
VERTEX
  5
349
  8
0
 62
     0
 10
3.565243690917024
 20
4.404522408238234
 30
0.0
  0
VERTEX
  5
34A
  8
0
 62
     0
 10
3.560743690917024
 20
4.404522408238234
 30
0.0
 42
0.3333333333309509
  0
VERTEX
  5
34B
  8
0
 62
     0
 10
3.555943690917036
 20
4.40092240823822
 30
0.0
  0
VERTEX
  5
34C
  8
0
 62
     0
 10
3.555943690916437
 20
4.330480346233267
 30
0.0
 42
0.162277659917721
  0
VERTEX
  5
34D
  8
0
 62
     0
 10
3.555743690917023
 20
4.329880346234048
 30
0.0
  0
VERTEX
  5
34E
  8
0
 62
     0
 10
3.555743690917024
 20
4.328880346234048
 30
0.0
 42
0.414213562373095
  0
VERTEX
  5
34F
  8
0
 62
     0
 10
3.556743690917024
 20
4.327880346234048
 30
0.0
  0
SEQEND
  5
484
  8
0
 62
     0
  0
POLYLINE
  5
140
  8
0
 62
     0
 66
     1
 10
0.0
 20
0.0
 30
0.0
  0
VERTEX
  5
350
  8
0
 62
     0
 10
3.556743690917024
 20
4.327880346234048
 30
0.0
  0
VERTEX
  5
351
  8
0
 62
     0
 10
3.556743690917024
 20
4.251312138633063
 30
0.0
 42
0.414213562373069
  0
VERTEX
  5
352
  8
0
 62
     0
 10
3.561743690917023
 20
4.246312138633062
 30
0.0
 42
0.2890490536833267
  0
VERTEX
  5
353
  8
0
 62
     0
 10
3.575740433495609
 20
4.261534125566778
 30
0.0
 42
0.0452130567544548
  0
VERTEX
  5
354
  8
0
 62
     0
 10
3.575743690917024
 20
4.261570074944679
 30
0.0
  0
VERTEX
  5
355
  8
0
 62
     0
 10
3.575743690917024
 20
4.308103617304694
 30
0.0
 42
0.0408300771161408
  0
VERTEX
  5
356
  8
0
 62
     0
 10
3.570743690917024
 20
4.327880346234048
 30
0.0
 42
0.4142135623730951
  0
SEQEND
  5
485
  8
0
 62
     0
  0
POLYLINE
  5
141
  8
0
 62
     0
 66
     1
 10
0.0
 20
0.0
 30
0.0
  0
VERTEX
  5
357
  8
0
 62
     0
 10
3.877363874804004
 20
4.327880346234048
 30
0.0
 42
0.4142135623730932
  0
VERTEX
  5
358
  8
0
 62
     0
 10
3.878363874804004
 20
4.328880346234047
 30
0.0
  0
VERTEX
  5
359
  8
0
 62
     0
 10
3.878363874804004
 20
4.329880346234048
 30
0.0
 42
0.1622776601863828
  0
VERTEX
  5
35A
  8
0
 62
     0
 10
3.878163874804004
 20
4.330480346234136
 30
0.0
  0
VERTEX
  5
35B
  8
0
 62
     0
 10
3.878163874804005
 20
4.399622408238097
 30
0.0
 42
0.3431077501415751
  0
VERTEX
  5
35C
  8
0
 62
     0
 10
3.871863874804005
 20
4.404522408238235
 30
0.0
  0
SEQEND
  5
486
  8
0
 62
     0
  0
POLYLINE
  5
142
  8
0
 62
     0
 66
     1
 10
0.0
 20
0.0
 30
0.0
  0
VERTEX
  5
35D
  8
0
 62
     0
 10
3.871863874804005
 20
4.404522408238235
 30
0.0
  0
VERTEX
  5
35E
  8
0
 62
     0
 10
3.867363874804004
 20
4.404522408238234
 30
0.0
 42
0.33333333333328
  0
VERTEX
  5
35F
  8
0
 62
     0
 10
3.862563874804005
 20
4.400922408238237
 30
0.0
  0
VERTEX
  5
360
  8
0
 62
     0
 10
3.862563874803418
 20
4.330480346233267
 30
0.0
 42
0.1622776599178501
  0
VERTEX
  5
361
  8
0
 62
     0
 10
3.862363874804004
 20
4.329880346234048
 30
0.0
  0
VERTEX
  5
362
  8
0
 62
     0
 10
3.862363874804004
 20
4.328880346234048
 30
0.0
 42
0.4142135623732252
  0
VERTEX
  5
363
  8
0
 62
     0
 10
3.863363874804004
 20
4.327880346234048
 30
0.0
 42
-0.321708988299323
  0
SEQEND
  5
487
  8
0
 62
     0
  0
POLYLINE
  5
143
  8
0
 62
     0
 66
     1
 10
0.0
 20
0.0
 30
0.0
  0
VERTEX
  5
364
  8
0
 62
     0
 10
3.863363874804004
 20
4.327880346234048
 30
0.0
 42
-0.321708988299323
  0
VERTEX
  5
365
  8
0
 62
     0
 10
3.86107657078988
 20
4.303125134643841
 30
0.0
 42
0.1805855218398166
  0
VERTEX
  5
366
  8
0
 62
     0
 10
3.859363874804004
 20
4.298537715297169
 30
0.0
  0
VERTEX
  5
367
  8
0
 62
     0
 10
3.859363874804004
 20
4.291312138633063
 30
0.0
 42
0.0361215117632298
  0
VERTEX
  5
368
  8
0
 62
     0
 10
3.861208200853487
 20
4.247640884990755
 30
0.0
 42
0.3810846244233958
  0
VERTEX
  5
369
  8
0
 62
     0
 10
3.862698392851186
 20
4.246312138633064
 30
0.0
  0
VERTEX
  5
36A
  8
0
 62
     0
 10
3.862435303375434
 20
4.246312138633063
 30
0.0
 42
0.4142135623729047
  0
VERTEX
  5
36B
  8
0
 62
     0
 10
3.863935303375433
 20
4.247812138633063
 30
0.0
  0
VERTEX
  5
36C
  8
0
 62
     0
 10
3.863935303375433
 20
4.290312138633062
 30
0.0
 42
-0.4142135623730951
  0
VERTEX
  5
36D
  8
0
 62
     0
 10
3.864935303375433
 20
4.291312138633062
 30
0.0
  0
VERTEX
  5
36E
  8
0
 62
     0
 10
3.865506731946861
 20
4.291312138633063
 30
0.0
 42
-0.4142135623731749
  0
VERTEX
  5
36F
  8
0
 62
     0
 10
3.866506731946861
 20
4.290312138633062
 30
0.0
  0
VERTEX
  5
370
  8
0
 62
     0
 10
3.866506731946862
 20
4.247512138633063
 30
0.0
 42
0.4142135623727418
  0
VERTEX
  5
371
  8
0
 62
     0
 10
3.86770673194686
 20
4.246312138633063
 30
0.0
  0
VERTEX
  5
372
  8
0
 62
     0
 10
3.86787816051829
 20
4.246312138633062
 30
0.0
 42
0.4142135623730951
  0
VERTEX
  5
373
  8
0
 62
     0
 10
3.86907816051829
 20
4.247512138633062
 30
0.0
  0
VERTEX
  5
374
  8
0
 62
     0
 10
3.86907816051829
 20
4.290312138633062
 30
0.0
 42
-0.4142135623730979
  0
VERTEX
  5
375
  8
0
 62
     0
 10
3.87007816051829
 20
4.291312138633063
 30
0.0
  0
VERTEX
  5
376
  8
0
 62
     0
 10
3.870649589089719
 20
4.291312138633063
 30
0.0
 42
-0.4142135623730951
  0
VERTEX
  5
377
  8
0
 62
     0
 10
3.871649589089718
 20
4.290312138633062
 30
0.0
  0
VERTEX
  5
378
  8
0
 62
     0
 10
3.871649589089718
 20
4.247512138633063
 30
0.0
 42
0.4142135623727448
  0
VERTEX
  5
379
  8
0
 62
     0
 10
3.872849589089717
 20
4.246312138633064
 30
0.0
  0
VERTEX
  5
37A
  8
0
 62
     0
 10
3.873021017661146
 20
4.246312138633063
 30
0.0
 42
0.4142135623733226
  0
VERTEX
  5
37B
  8
0
 62
     0
 10
3.874221017661147
 20
4.247512138633063
 30
0.0
  0
VERTEX
  5
37C
  8
0
 62
     0
 10
3.874221017661147
 20
4.290312138633062
 30
0.0
 42
-0.4142135623730446
  0
VERTEX
  5
37D
  8
0
 62
     0
 10
3.875221017661147
 20
4.291312138633062
 30
0.0
  0
VERTEX
  5
37E
  8
0
 62
     0
 10
3.875792446232575
 20
4.291312138633063
 30
0.0
 42
-0.4142135623732606
  0
VERTEX
  5
37F
  8
0
 62
     0
 10
3.876792446232575
 20
4.290312138633062
 30
0.0
  0
VERTEX
  5
380
  8
0
 62
     0
 10
3.876792446232575
 20
4.247512138633063
 30
0.0
 42
0.4142135623729044
  0
VERTEX
  5
381
  8
0
 62
     0
 10
3.877992446232574
 20
4.246312138633064
 30
0.0
  0
VERTEX
  5
382
  8
0
 62
     0
 10
3.87829673573824
 20
4.246312138633063
 30
0.0
 42
0.3808307970081749
  0
VERTEX
  5
383
  8
0
 62
     0
 10
3.879488767396438
 20
4.247374078769762
 30
0.0
 42
0.0363434611571242
  0
VERTEX
  5
384
  8
0
 62
     0
 10
3.881363874804005
 20
4.291312138633062
 30
0.0
  0
VERTEX
  5
385
  8
0
 62
     0
 10
3.881363874804005
 20
4.298537715297144
 30
0.0
 42
0.1805855218399959
  0
VERTEX
  5
386
  8
0
 62
     0
 10
3.879651178818126
 20
4.303125134643819
 30
0.0
 42
-0.3217089882995043
  0
VERTEX
  5
387
  8
0
 62
     0
 10
3.877363874804004
 20
4.327880346234048
 30
0.0
 42
0.4142135623730932
  0
SEQEND
  5
488
  8
0
 62
     0
  0
POLYLINE
  5
144
  8
0
 62
     0
 66
     1
 10
0.0
 20
0.0
 30
0.0
  0
VERTEX
  5
388
  8
0
 62
     0
 10
2.356015954877552
 20
3.879755316445398
 30
0.0
 42
-0.4142135623730932
  0
VERTEX
  5
389
  8
0
 62
     0
 10
2.357015954877552
 20
3.878755316445398
 30
0.0
  0
VERTEX
  5
38A
  8
0
 62
     0
 10
2.357015954877552
 20
3.877755316445398
 30
0.0
 42
-0.1622776601864284
  0
VERTEX
  5
38B
  8
0
 62
     0
 10
2.356815954877552
 20
3.87715531644531
 30
0.0
  0
VERTEX
  5
38C
  8
0
 62
     0
 10
2.356815954877552
 20
3.808013254440791
 30
0.0
 42
-0.3431077501415958
  0
VERTEX
  5
38D
  8
0
 62
     0
 10
2.350515954877552
 20
3.803113254441211
 30
0.0
  0
VERTEX
  5
38E
  8
0
 62
     0
 10
2.346015954877552
 20
3.803113254441211
 30
0.0
 42
-0.3333333333333165
  0
VERTEX
  5
38F
  8
0
 62
     0
 10
2.341215954877552
 20
3.806713254441211
 30
0.0
  0
VERTEX
  5
390
  8
0
 62
     0
 10
2.341215954877552
 20
3.877155316446619
 30
0.0
 42
-0.1622776599177665
  0
VERTEX
  5
391
  8
0
 62
     0
 10
2.341015954877551
 20
3.877755316445398
 30
0.0
  0
VERTEX
  5
392
  8
0
 62
     0
 10
2.341015954877552
 20
3.878755316445397
 30
0.0
 42
-0.4142135623730951
  0
VERTEX
  5
393
  8
0
 62
     0
 10
2.342015954877552
 20
3.879755316445397
 30
0.0
 42
0.3217089882993232
  0
SEQEND
  5
489
  8
0
 62
     0
  0
POLYLINE
  5
145
  8
0
 62
     0
 66
     1
 10
0.0
 20
0.0
 30
0.0
  0
VERTEX
  5
394
  8
0
 62
     0
 10
2.342015954877552
 20
3.879755316445397
 30
0.0
 42
0.3217089882993232
  0
VERTEX
  5
395
  8
0
 62
     0
 10
2.339728650863438
 20
3.904510528035615
 30
0.0
 42
-0.1805855218398166
  0
VERTEX
  5
396
  8
0
 62
     0
 10
2.338015954877552
 20
3.909097947382278
 30
0.0
  0
VERTEX
  5
397
  8
0
 62
     0
 10
2.338015954877552
 20
3.916323524046383
 30
0.0
 42
-0.0361215117632298
  0
VERTEX
  5
398
  8
0
 62
     0
 10
2.339860280927037
 20
3.95999477768869
 30
0.0
 42
-0.3810846244233958
  0
VERTEX
  5
399
  8
0
 62
     0
 10
2.341350472924734
 20
3.961323524046382
 30
0.0
  0
VERTEX
  5
39A
  8
0
 62
     0
 10
2.341087383448981
 20
3.961323524046383
 30
0.0
 42
-0.4142135623729045
  0
VERTEX
  5
39B
  8
0
 62
     0
 10
2.342587383448981
 20
3.959823524046383
 30
0.0
  0
VERTEX
  5
39C
  8
0
 62
     0
 10
2.342587383448981
 20
3.917323524046383
 30
0.0
 42
0.4142135623730951
  0
VERTEX
  5
39D
  8
0
 62
     0
 10
2.34358738344898
 20
3.916323524046383
 30
0.0
  0
VERTEX
  5
39E
  8
0
 62
     0
 10
2.344158812020408
 20
3.916323524046383
 30
0.0
 42
0.4142135623731749
  0
VERTEX
  5
39F
  8
0
 62
     0
 10
2.345158812020409
 20
3.917323524046383
 30
0.0
  0
VERTEX
  5
3A0
  8
0
 62
     0
 10
2.345158812020409
 20
3.960123524046383
 30
0.0
 42
-0.4142135623727418
  0
VERTEX
  5
3A1
  8
0
 62
     0
 10
2.346358812020408
 20
3.961323524046383
 30
0.0
  0
VERTEX
  5
3A2
  8
0
 62
     0
 10
2.346530240591838
 20
3.961323524046384
 30
0.0
 42
-0.4142135623730951
  0
VERTEX
  5
3A3
  8
0
 62
     0
 10
2.347730240591838
 20
3.960123524046384
 30
0.0
  0
VERTEX
  5
3A4
  8
0
 62
     0
 10
2.347730240591838
 20
3.917323524046383
 30
0.0
 42
0.4142135623730979
  0
VERTEX
  5
3A5
  8
0
 62
     0
 10
2.348730240591838
 20
3.916323524046383
 30
0.0
  0
VERTEX
  5
3A6
  8
0
 62
     0
 10
2.349301669163266
 20
3.916323524046383
 30
0.0
 42
0.4142135623730951
  0
VERTEX
  5
3A7
  8
0
 62
     0
 10
2.350301669163266
 20
3.917323524046383
 30
0.0
  0
VERTEX
  5
3A8
  8
0
 62
     0
 10
2.350301669163266
 20
3.960123524046383
 30
0.0
 42
-0.4142135623727448
  0
VERTEX
  5
3A9
  8
0
 62
     0
 10
2.351501669163265
 20
3.961323524046382
 30
0.0
  0
VERTEX
  5
3AA
  8
0
 62
     0
 10
2.351673097734694
 20
3.961323524046383
 30
0.0
 42
-0.4142135623733226
  0
VERTEX
  5
3AB
  8
0
 62
     0
 10
2.352873097734695
 20
3.960123524046383
 30
0.0
  0
VERTEX
  5
3AC
  8
0
 62
     0
 10
2.352873097734695
 20
3.917323524046384
 30
0.0
 42
0.4142135623730446
  0
VERTEX
  5
3AD
  8
0
 62
     0
 10
2.353873097734695
 20
3.916323524046384
 30
0.0
  0
VERTEX
  5
3AE
  8
0
 62
     0
 10
2.354444526306123
 20
3.916323524046383
 30
0.0
 42
0.4142135623732606
  0
VERTEX
  5
3AF
  8
0
 62
     0
 10
2.355444526306123
 20
3.917323524046383
 30
0.0
  0
VERTEX
  5
3B0
  8
0
 62
     0
 10
2.355444526306123
 20
3.960123524046383
 30
0.0
 42
-0.4142135623729044
  0
VERTEX
  5
3B1
  8
0
 62
     0
 10
2.356644526306122
 20
3.961323524046382
 30
0.0
  0
VERTEX
  5
3B2
  8
0
 62
     0
 10
2.356948815811788
 20
3.961323524046383
 30
0.0
 42
-0.3808307970081751
  0
VERTEX
  5
3B3
  8
0
 62
     0
 10
2.358140847469986
 20
3.960261583909684
 30
0.0
 42
-0.0363434611571242
  0
VERTEX
  5
3B4
  8
0
 62
     0
 10
2.360015954877552
 20
3.916323524046383
 30
0.0
  0
VERTEX
  5
3B5
  8
0
 62
     0
 10
2.360015954877552
 20
3.909097947382302
 30
0.0
 42
-0.1805855218399959
  0
VERTEX
  5
3B6
  8
0
 62
     0
 10
2.358303258891674
 20
3.904510528035626
 30
0.0
 42
0.3217089882995089
  0
VERTEX
  5
3B7
  8
0
 62
     0
 10
2.356015954877552
 20
3.879755316445398
 30
0.0
 42
-0.4142135623730932
  0
SEQEND
  5
48A
  8
0
 62
     0
  0
POLYLINE
  5
146
  8
0
 62
     0
 66
     1
 10
0.0
 20
0.0
 30
0.0
  0
VERTEX
  5
3B8
  8
0
 62
     0
 10
2.650309372384504
 20
3.879755316445398
 30
0.0
 42
0.4142135623730932
  0
VERTEX
  5
3B9
  8
0
 62
     0
 10
2.649309372384504
 20
3.878755316445398
 30
0.0
  0
VERTEX
  5
3BA
  8
0
 62
     0
 10
2.649309372384504
 20
3.877755316445398
 30
0.0
 42
0.1622776601684705
  0
VERTEX
  5
3BB
  8
0
 62
     0
 10
2.649509372384504
 20
3.87715531644531
 30
0.0
  0
VERTEX
  5
3BC
  8
0
 62
     0
 10
2.649509372384503
 20
3.80801325444121
 30
0.0
 42
0.3431077501415958
  0
VERTEX
  5
3BD
  8
0
 62
     0
 10
2.655809372384503
 20
3.803113254441211
 30
0.0
  0
VERTEX
  5
3BE
  8
0
 62
     0
 10
2.660309372384503
 20
3.803113254441211
 30
0.0
 42
0.3333333333332691
  0
VERTEX
  5
3BF
  8
0
 62
     0
 10
2.665109372384503
 20
3.806713254441751
 30
0.0
  0
VERTEX
  5
3C0
  8
0
 62
     0
 10
2.665109372384504
 20
3.877155316446619
 30
0.0
 42
0.1622776599177665
  0
VERTEX
  5
3C1
  8
0
 62
     0
 10
2.665309372384504
 20
3.877755316445398
 30
0.0
  0
VERTEX
  5
3C2
  8
0
 62
     0
 10
2.665309372384504
 20
3.878755316445397
 30
0.0
 42
0.4142135623730951
  0
VERTEX
  5
3C3
  8
0
 62
     0
 10
2.664309372384504
 20
3.879755316445397
 30
0.0
  0
SEQEND
  5
48B
  8
0
 62
     0
  0
POLYLINE
  5
147
  8
0
 62
     0
 66
     1
 10
0.0
 20
0.0
 30
0.0
  0
VERTEX
  5
3C4
  8
0
 62
     0
 10
2.664309372384504
 20
3.879755316445397
 30
0.0
  0
VERTEX
  5
3C5
  8
0
 62
     0
 10
2.664309372384504
 20
3.956323524046383
 30
0.0
 42
0.4142135623730886
  0
VERTEX
  5
3C6
  8
0
 62
     0
 10
2.659309372384504
 20
3.961323524046383
 30
0.0
 42
0.2893030347620101
  0
VERTEX
  5
3C7
  8
0
 62
     0
 10
2.645309372384504
 20
3.946083662620723
 30
0.0
  0
VERTEX
  5
3C8
  8
0
 62
     0
 10
2.645309372384504
 20
3.899548692158183
 30
0.0
 42
0.0415618086795364
  0
VERTEX
  5
3C9
  8
0
 62
     0
 10
2.645312126675155
 20
3.899515614520061
 30
0.0
 42
0.0407967307456462
  0
VERTEX
  5
3CA
  8
0
 62
     0
 10
2.650309372384504
 20
3.879755316445398
 30
0.0
 42
0.0407967307456462
  0
SEQEND
  5
48C
  8
0
 62
     0
  0
POLYLINE
  5
148
  8
0
 62
     0
 66
     1
 10
0.0
 20
0.0
 30
0.0
  0
VERTEX
  5
3CB
  8
0
 62
     0
 10
3.279037108423977
 20
3.879755316445397
 30
0.0
  0
VERTEX
  5
3CC
  8
0
 62
     0
 10
3.279037108423977
 20
3.956323524046383
 30
0.0
 42
0.4142135623730886
  0
VERTEX
  5
3CD
  8
0
 62
     0
 10
3.274037108423977
 20
3.961323524046383
 30
0.0
 42
0.2893030347620101
  0
VERTEX
  5
3CE
  8
0
 62
     0
 10
3.260037108423977
 20
3.946083662620723
 30
0.0
  0
VERTEX
  5
3CF
  8
0
 62
     0
 10
3.260037108423977
 20
3.899548692158183
 30
0.0
  0
SEQEND
  5
48D
  8
0
 62
     0
  0
POLYLINE
  5
149
  8
0
 62
     0
 66
     1
 10
0.0
 20
0.0
 30
0.0
  0
VERTEX
  5
3D0
  8
0
 62
     0
 10
3.260039862714628
 20
3.899515614520061
 30
0.0
 42
0.0407967307456462
  0
VERTEX
  5
3D1
  8
0
 62
     0
 10
3.265037108423976
 20
3.879755316445398
 30
0.0
 42
0.4142135623730932
  0
SEQEND
  5
48E
  8
0
 62
     0
  0
POLYLINE
  5
14A
  8
0
 62
     0
 66
     1
 10
0.0
 20
0.0
 30
0.0
  0
VERTEX
  5
3D2
  8
0
 62
     0
 10
3.265037108423976
 20
3.879755316445398
 30
0.0
 42
0.4142135623730932
  0
VERTEX
  5
3D3
  8
0
 62
     0
 10
3.264037108423977
 20
3.878755316445398
 30
0.0
  0
VERTEX
  5
3D4
  8
0
 62
     0
 10
3.264037108423977
 20
3.877755316445398
 30
0.0
 42
0.1622776601684705
  0
VERTEX
  5
3D5
  8
0
 62
     0
 10
3.264237108423977
 20
3.87715531644531
 30
0.0
  0
VERTEX
  5
3D6
  8
0
 62
     0
 10
3.264237108423976
 20
3.80801325444121
 30
0.0
 42
0.3431077501415958
  0
VERTEX
  5
3D7
  8
0
 62
     0
 10
3.270537108423976
 20
3.803113254441211
 30
0.0
  0
VERTEX
  5
3D8
  8
0
 62
     0
 10
3.275037108423976
 20
3.803113254441211
 30
0.0
 42
0.3333333333332691
  0
VERTEX
  5
3D9
  8
0
 62
     0
 10
3.279837108423976
 20
3.806713254441751
 30
0.0
  0
VERTEX
  5
3DA
  8
0
 62
     0
 10
3.279837108423977
 20
3.877155316446619
 30
0.0
 42
0.1622776599177665
  0
VERTEX
  5
3DB
  8
0
 62
     0
 10
3.280037108423977
 20
3.877755316445398
 30
0.0
  0
VERTEX
  5
3DC
  8
0
 62
     0
 10
3.280037108423977
 20
3.878755316445397
 30
0.0
 42
0.4142135623730951
  0
VERTEX
  5
3DD
  8
0
 62
     0
 10
3.279037108423977
 20
3.879755316445397
 30
0.0
  0
SEQEND
  5
48F
  8
0
 62
     0
  0
POLYLINE
  5
14B
  8
0
 62
     0
 66
     1
 10
0.0
 20
0.0
 30
0.0
  0
VERTEX
  5
3DE
  8
0
 62
     0
 10
2.970743690917025
 20
3.879755316445398
 30
0.0
 42
-0.4142135623730932
  0
VERTEX
  5
3DF
  8
0
 62
     0
 10
2.971743690917025
 20
3.878755316445398
 30
0.0
  0
VERTEX
  5
3E0
  8
0
 62
     0
 10
2.971743690917025
 20
3.877755316445398
 30
0.0
 42
-0.1622776601864284
  0
VERTEX
  5
3E1
  8
0
 62
     0
 10
2.971543690917025
 20
3.87715531644531
 30
0.0
  0
VERTEX
  5
3E2
  8
0
 62
     0
 10
2.971543690917025
 20
3.808013254440791
 30
0.0
 42
-0.3431077501415958
  0
VERTEX
  5
3E3
  8
0
 62
     0
 10
2.965243690917025
 20
3.803113254441211
 30
0.0
  0
VERTEX
  5
3E4
  8
0
 62
     0
 10
2.960743690917025
 20
3.803113254441211
 30
0.0
 42
-0.3333333333333165
  0
VERTEX
  5
3E5
  8
0
 62
     0
 10
2.955943690917025
 20
3.806713254441211
 30
0.0
  0
VERTEX
  5
3E6
  8
0
 62
     0
 10
2.955943690917024
 20
3.877155316446619
 30
0.0
 42
-0.1622776599177665
  0
VERTEX
  5
3E7
  8
0
 62
     0
 10
2.955743690917024
 20
3.877755316445398
 30
0.0
  0
VERTEX
  5
3E8
  8
0
 62
     0
 10
2.955743690917024
 20
3.878755316445397
 30
0.0
 42
-0.4142135623730951
  0
VERTEX
  5
3E9
  8
0
 62
     0
 10
2.956743690917024
 20
3.879755316445397
 30
0.0
 42
0.3217089882993232
  0
SEQEND
  5
490
  8
0
 62
     0
  0
POLYLINE
  5
14C
  8
0
 62
     0
 66
     1
 10
0.0
 20
0.0
 30
0.0
  0
VERTEX
  5
3EA
  8
0
 62
     0
 10
2.956743690917024
 20
3.879755316445397
 30
0.0
 42
0.3217089882993232
  0
VERTEX
  5
3EB
  8
0
 62
     0
 10
2.954456386902911
 20
3.904510528035615
 30
0.0
 42
-0.1805855218398166
  0
VERTEX
  5
3EC
  8
0
 62
     0
 10
2.952743690917024
 20
3.909097947382278
 30
0.0
  0
VERTEX
  5
3ED
  8
0
 62
     0
 10
2.952743690917024
 20
3.916323524046383
 30
0.0
 42
-0.0361215117632298
  0
VERTEX
  5
3EE
  8
0
 62
     0
 10
2.95458801696651
 20
3.95999477768869
 30
0.0
 42
-0.3810846244233958
  0
VERTEX
  5
3EF
  8
0
 62
     0
 10
2.956078208964207
 20
3.961323524046382
 30
0.0
  0
VERTEX
  5
3F0
  8
0
 62
     0
 10
2.955815119488454
 20
3.961323524046383
 30
0.0
 42
-0.4142135623729045
  0
VERTEX
  5
3F1
  8
0
 62
     0
 10
2.957315119488453
 20
3.959823524046383
 30
0.0
  0
VERTEX
  5
3F2
  8
0
 62
     0
 10
2.957315119488453
 20
3.917323524046383
 30
0.0
 42
0.4142135623730951
  0
VERTEX
  5
3F3
  8
0
 62
     0
 10
2.958315119488453
 20
3.916323524046383
 30
0.0
  0
VERTEX
  5
3F4
  8
0
 62
     0
 10
2.958886548059881
 20
3.916323524046383
 30
0.0
 42
0.4142135623731749
  0
VERTEX
  5
3F5
  8
0
 62
     0
 10
2.959886548059881
 20
3.917323524046383
 30
0.0
  0
VERTEX
  5
3F6
  8
0
 62
     0
 10
2.959886548059882
 20
3.960123524046383
 30
0.0
 42
-0.4142135623727418
  0
VERTEX
  5
3F7
  8
0
 62
     0
 10
2.96108654805988
 20
3.961323524046383
 30
0.0
  0
VERTEX
  5
3F8
  8
0
 62
     0
 10
2.961257976631311
 20
3.961323524046384
 30
0.0
 42
-0.4142135623730951
  0
VERTEX
  5
3F9
  8
0
 62
     0
 10
2.962457976631311
 20
3.960123524046384
 30
0.0
  0
VERTEX
  5
3FA
  8
0
 62
     0
 10
2.962457976631311
 20
3.917323524046383
 30
0.0
 42
0.4142135623730979
  0
VERTEX
  5
3FB
  8
0
 62
     0
 10
2.96345797663131
 20
3.916323524046383
 30
0.0
  0
VERTEX
  5
3FC
  8
0
 62
     0
 10
2.964029405202739
 20
3.916323524046383
 30
0.0
 42
0.4142135623730951
  0
VERTEX
  5
3FD
  8
0
 62
     0
 10
2.965029405202739
 20
3.917323524046383
 30
0.0
  0
VERTEX
  5
3FE
  8
0
 62
     0
 10
2.965029405202739
 20
3.960123524046383
 30
0.0
 42
-0.4142135623727448
  0
VERTEX
  5
3FF
  8
0
 62
     0
 10
2.966229405202737
 20
3.961323524046382
 30
0.0
  0
VERTEX
  5
400
  8
0
 62
     0
 10
2.966400833774167
 20
3.961323524046383
 30
0.0
 42
-0.4142135623733226
  0
VERTEX
  5
401
  8
0
 62
     0
 10
2.967600833774168
 20
3.960123524046383
 30
0.0
  0
VERTEX
  5
402
  8
0
 62
     0
 10
2.967600833774168
 20
3.917323524046384
 30
0.0
 42
0.4142135623730446
  0
VERTEX
  5
403
  8
0
 62
     0
 10
2.968600833774167
 20
3.916323524046384
 30
0.0
  0
VERTEX
  5
404
  8
0
 62
     0
 10
2.969172262345595
 20
3.916323524046383
 30
0.0
 42
0.4142135623732606
  0
VERTEX
  5
405
  8
0
 62
     0
 10
2.970172262345596
 20
3.917323524046383
 30
0.0
  0
VERTEX
  5
406
  8
0
 62
     0
 10
2.970172262345596
 20
3.960123524046383
 30
0.0
 42
-0.4142135623729044
  0
VERTEX
  5
407
  8
0
 62
     0
 10
2.971372262345595
 20
3.961323524046382
 30
0.0
  0
VERTEX
  5
408
  8
0
 62
     0
 10
2.971676551851261
 20
3.961323524046383
 30
0.0
 42
-0.3808307970081751
  0
VERTEX
  5
409
  8
0
 62
     0
 10
2.972868583509459
 20
3.960261583909684
 30
0.0
 42
-0.0363434611571242
  0
VERTEX
  5
40A
  8
0
 62
     0
 10
2.974743690917025
 20
3.916323524046383
 30
0.0
  0
VERTEX
  5
40B
  8
0
 62
     0
 10
2.974743690917025
 20
3.909097947382302
 30
0.0
 42
-0.1805855218399959
  0
VERTEX
  5
40C
  8
0
 62
     0
 10
2.973030994931147
 20
3.904510528035626
 30
0.0
 42
0.3217089882995083
  0
VERTEX
  5
40D
  8
0
 62
     0
 10
2.970743690917025
 20
3.879755316445398
 30
0.0
 42
-0.4142135623730932
  0
SEQEND
  5
491
  8
0
 62
     0
  0
POLYLINE
  5
14D
  8
0
 62
     0
 66
     1
 10
0.0
 20
0.0
 30
0.0
  0
VERTEX
  5
40E
  8
0
 62
     0
 10
3.570743690917025
 20
3.879755316445398
 30
0.0
 42
-0.4142135623730932
  0
VERTEX
  5
40F
  8
0
 62
     0
 10
3.571743690917025
 20
3.878755316445398
 30
0.0
  0
VERTEX
  5
410
  8
0
 62
     0
 10
3.571743690917025
 20
3.877755316445398
 30
0.0
 42
-0.1622776601864284
  0
VERTEX
  5
411
  8
0
 62
     0
 10
3.571543690917025
 20
3.87715531644531
 30
0.0
  0
VERTEX
  5
412
  8
0
 62
     0
 10
3.571543690917025
 20
3.808013254440791
 30
0.0
 42
-0.3431077501415958
  0
VERTEX
  5
413
  8
0
 62
     0
 10
3.565243690917025
 20
3.803113254441211
 30
0.0
  0
VERTEX
  5
414
  8
0
 62
     0
 10
3.560743690917025
 20
3.803113254441211
 30
0.0
 42
-0.3333333333333165
  0
VERTEX
  5
415
  8
0
 62
     0
 10
3.555943690917025
 20
3.806713254441211
 30
0.0
  0
VERTEX
  5
416
  8
0
 62
     0
 10
3.555943690917025
 20
3.877155316446619
 30
0.0
 42
-0.1622776599177665
  0
VERTEX
  5
417
  8
0
 62
     0
 10
3.555743690917024
 20
3.877755316445398
 30
0.0
  0
VERTEX
  5
418
  8
0
 62
     0
 10
3.555743690917025
 20
3.878755316445397
 30
0.0
 42
-0.4142135623730951
  0
VERTEX
  5
419
  8
0
 62
     0
 10
3.556743690917024
 20
3.879755316445397
 30
0.0
 42
0.3217089882993232
  0
SEQEND
  5
492
  8
0
 62
     0
  0
POLYLINE
  5
14E
  8
0
 62
     0
 66
     1
 10
0.0
 20
0.0
 30
0.0
  0
VERTEX
  5
41A
  8
0
 62
     0
 10
3.556743690917024
 20
3.879755316445397
 30
0.0
 42
0.3217089882993232
  0
VERTEX
  5
41B
  8
0
 62
     0
 10
3.554456386902911
 20
3.904510528035615
 30
0.0
 42
-0.1805855218398166
  0
VERTEX
  5
41C
  8
0
 62
     0
 10
3.552743690917024
 20
3.909097947382278
 30
0.0
  0
VERTEX
  5
41D
  8
0
 62
     0
 10
3.552743690917024
 20
3.916323524046383
 30
0.0
 42
-0.0361215117632298
  0
VERTEX
  5
41E
  8
0
 62
     0
 10
3.55458801696651
 20
3.95999477768869
 30
0.0
 42
-0.3810846244233958
  0
VERTEX
  5
41F
  8
0
 62
     0
 10
3.556078208964207
 20
3.961323524046382
 30
0.0
  0
VERTEX
  5
420
  8
0
 62
     0
 10
3.555815119488454
 20
3.961323524046383
 30
0.0
 42
-0.4142135623729045
  0
VERTEX
  5
421
  8
0
 62
     0
 10
3.557315119488453
 20
3.959823524046383
 30
0.0
  0
VERTEX
  5
422
  8
0
 62
     0
 10
3.557315119488453
 20
3.917323524046383
 30
0.0
 42
0.4142135623730951
  0
VERTEX
  5
423
  8
0
 62
     0
 10
3.558315119488453
 20
3.916323524046383
 30
0.0
  0
VERTEX
  5
424
  8
0
 62
     0
 10
3.558886548059881
 20
3.916323524046383
 30
0.0
 42
0.4142135623731749
  0
VERTEX
  5
425
  8
0
 62
     0
 10
3.559886548059882
 20
3.917323524046383
 30
0.0
  0
VERTEX
  5
426
  8
0
 62
     0
 10
3.559886548059882
 20
3.960123524046383
 30
0.0
 42
-0.4142135623727418
  0
VERTEX
  5
427
  8
0
 62
     0
 10
3.561086548059881
 20
3.961323524046383
 30
0.0
  0
VERTEX
  5
428
  8
0
 62
     0
 10
3.561257976631311
 20
3.961323524046384
 30
0.0
 42
-0.4142135623730951
  0
VERTEX
  5
429
  8
0
 62
     0
 10
3.562457976631311
 20
3.960123524046384
 30
0.0
  0
VERTEX
  5
42A
  8
0
 62
     0
 10
3.562457976631311
 20
3.917323524046383
 30
0.0
 42
0.4142135623730979
  0
VERTEX
  5
42B
  8
0
 62
     0
 10
3.563457976631311
 20
3.916323524046383
 30
0.0
  0
VERTEX
  5
42C
  8
0
 62
     0
 10
3.564029405202739
 20
3.916323524046383
 30
0.0
 42
0.4142135623730951
  0
VERTEX
  5
42D
  8
0
 62
     0
 10
3.565029405202739
 20
3.917323524046383
 30
0.0
  0
VERTEX
  5
42E
  8
0
 62
     0
 10
3.565029405202739
 20
3.960123524046383
 30
0.0
 42
-0.4142135623727448
  0
VERTEX
  5
42F
  8
0
 62
     0
 10
3.566229405202737
 20
3.961323524046382
 30
0.0
  0
VERTEX
  5
430
  8
0
 62
     0
 10
3.566400833774167
 20
3.961323524046383
 30
0.0
 42
-0.4142135623733226
  0
VERTEX
  5
431
  8
0
 62
     0
 10
3.567600833774168
 20
3.960123524046383
 30
0.0
  0
VERTEX
  5
432
  8
0
 62
     0
 10
3.567600833774168
 20
3.917323524046384
 30
0.0
 42
0.4142135623730446
  0
VERTEX
  5
433
  8
0
 62
     0
 10
3.568600833774167
 20
3.916323524046384
 30
0.0
  0
VERTEX
  5
434
  8
0
 62
     0
 10
3.569172262345595
 20
3.916323524046383
 30
0.0
 42
0.4142135623732606
  0
VERTEX
  5
435
  8
0
 62
     0
 10
3.570172262345596
 20
3.917323524046383
 30
0.0
  0
VERTEX
  5
436
  8
0
 62
     0
 10
3.570172262345596
 20
3.960123524046383
 30
0.0
 42
-0.4142135623729044
  0
VERTEX
  5
437
  8
0
 62
     0
 10
3.571372262345595
 20
3.961323524046382
 30
0.0
  0
VERTEX
  5
438
  8
0
 62
     0
 10
3.571676551851261
 20
3.961323524046383
 30
0.0
 42
-0.3808307970081751
  0
VERTEX
  5
439
  8
0
 62
     0
 10
3.572868583509459
 20
3.960261583909684
 30
0.0
 42
-0.0363434611571242
  0
VERTEX
  5
43A
  8
0
 62
     0
 10
3.574743690917025
 20
3.916323524046383
 30
0.0
  0
VERTEX
  5
43B
  8
0
 62
     0
 10
3.574743690917025
 20
3.909097947382302
 30
0.0
 42
-0.1805855218399959
  0
VERTEX
  5
43C
  8
0
 62
     0
 10
3.573030994931147
 20
3.904510528035626
 30
0.0
 42
0.3217089882995089
  0
VERTEX
  5
43D
  8
0
 62
     0
 10
3.570743690917025
 20
3.879755316445398
 30
0.0
 42
-0.4142135623730932
  0
SEQEND
  5
493
  8
0
 62
     0
  0
POLYLINE
  5
14F
  8
0
 62
     0
 66
     1
 10
0.0
 20
0.0
 30
0.0
  0
VERTEX
  5
43E
  8
0
 62
     0
 10
3.879037108423977
 20
3.879755316445397
 30
0.0
  0
VERTEX
  5
43F
  8
0
 62
     0
 10
3.879037108423977
 20
3.956323524046383
 30
0.0
 42
0.4142135623730886
  0
VERTEX
  5
440
  8
0
 62
     0
 10
3.874037108423977
 20
3.961323524046383
 30
0.0
 42
0.2893030347620101
  0
VERTEX
  5
441
  8
0
 62
     0
 10
3.860037108423977
 20
3.946083662620723
 30
0.0
  0
VERTEX
  5
442
  8
0
 62
     0
 10
3.860037108423977
 20
3.899548692158183
 30
0.0
  0
SEQEND
  5
494
  8
0
 62
     0
  0
POLYLINE
  5
150
  8
0
 62
     0
 66
     1
 10
0.0
 20
0.0
 30
0.0
  0
VERTEX
  5
443
  8
0
 62
     0
 10
3.860039862714628
 20
3.899515614520061
 30
0.0
 42
0.0407967307456462
  0
VERTEX
  5
444
  8
0
 62
     0
 10
3.865037108423977
 20
3.879755316445398
 30
0.0
 42
0.4142135623730932
  0
SEQEND
  5
495
  8
0
 62
     0
  0
POLYLINE
  5
151
  8
0
 62
     0
 66
     1
 10
0.0
 20
0.0
 30
0.0
  0
VERTEX
  5
445
  8
0
 62
     0
 10
3.865037108423977
 20
3.879755316445398
 30
0.0
 42
0.4142135623730932
  0
VERTEX
  5
446
  8
0
 62
     0
 10
3.864037108423977
 20
3.878755316445398
 30
0.0
  0
VERTEX
  5
447
  8
0
 62
     0
 10
3.864037108423977
 20
3.877755316445398
 30
0.0
 42
0.1622776601684705
  0
VERTEX
  5
448
  8
0
 62
     0
 10
3.864237108423977
 20
3.87715531644531
 30
0.0
  0
VERTEX
  5
449
  8
0
 62
     0
 10
3.864237108423976
 20
3.80801325444121
 30
0.0
 42
0.3431077501415958
  0
VERTEX
  5
44A
  8
0
 62
     0
 10
3.870537108423976
 20
3.803113254441211
 30
0.0
  0
VERTEX
  5
44B
  8
0
 62
     0
 10
3.875037108423976
 20
3.803113254441211
 30
0.0
 42
0.3333333333332691
  0
VERTEX
  5
44C
  8
0
 62
     0
 10
3.879837108423976
 20
3.806713254441751
 30
0.0
  0
VERTEX
  5
44D
  8
0
 62
     0
 10
3.879837108423977
 20
3.877155316446619
 30
0.0
 42
0.1622776599177665
  0
VERTEX
  5
44E
  8
0
 62
     0
 10
3.880037108423977
 20
3.877755316445398
 30
0.0
  0
VERTEX
  5
44F
  8
0
 62
     0
 10
3.880037108423977
 20
3.878755316445397
 30
0.0
 42
0.4142135623730951
  0
VERTEX
  5
450
  8
0
 62
     0
 10
3.879037108423977
 20
3.879755316445397
 30
0.0
  0
SEQEND
  5
496
  8
0
 62
     0
  0
ENDSEC
  0
EOF
