  0
SECTION
  2
HEADER
  9
$ACADVER
  1
AC1009
  9
$DWGCODEPAGE
  3
ansi_1252
  9
$INSBASE
 10
281.6818808361709
 20
79.49958815316627
 30
0.0
  9
$EXTMIN
 10
280.9091203031476
 20
78.68889209528523
 30
0.0
  9
$EXTMAX
 10
282.4683662340841
 20
80.25711881783303
 30
0.0
  9
$LIMMIN
 10
0.0
 20
0.0
  9
$LIMMAX
 10
420.0
 20
297.0
  9
$ORTHOMODE
 70
     0
  9
$REGENMODE
 70
     1
  9
$FILLMODE
 70
     1
  9
$QTEXTMODE
 70
     0
  9
$MIRRTEXT
 70
     1
  9
$DRAGMODE
 70
     2
  9
$LTSCALE
 40
1.0
  9
$OSMODE
 70
    37
  9
$ATTMODE
 70
     1
  9
$TEXTSIZE
 40
0.09
  9
$TRACEWID
 40
1.0
  9
$TEXTSTYLE
  7
ROMANS
  9
$CLAYER
  8
LAYOUT
  9
$CELTYPE
  6
BYLAYER
  9
$CECOLOR
 62
   256
  9
$DIMSCALE
 40
1.0
  9
$DIMASZ
 40
0.1
  9
$DIMEXO
 40
0.063
  9
$DIMDLI
 40
0.0
  9
$DIMRND
 40
0.0
  9
$DIMDLE
 40
0.0
  9
$DIMEXE
 40
0.18
  9
$DIMTP
 40
0.0
  9
$DIMTM
 40
0.0
  9
$DIMTXT
 40
0.09
  9
$DIMCEN
 40
0.09
  9
$DIMTSZ
 40
0.0
  9
$DIMTOL
 70
     0
  9
$DIMLIM
 70
     0
  9
$DIMTIH
 70
     0
  9
$DIMTOH
 70
     0
  9
$DIMSE1
 70
     1
  9
$DIMSE2
 70
     1
  9
$DIMTAD
 70
     1
  9
$DIMZIN
 70
     4
  9
$DIMBLK
  1
BOLA
  9
$DIMASO
 70
     1
  9
$DIMSHO
 70
     1
  9
$DIMPOST
  1

  9
$DIMAPOST
  1

  9
$DIMALT
 70
     0
  9
$DIMALTD
 70
     2
  9
$DIMALTF
 40
25.4
  9
$DIMLFAC
 40
1.0
  9
$DIMTOFL
 70
     1
  9
$DIMTVP
 40
2.0
  9
$DIMTIX
 70
     1
  9
$DIMSOXD
 70
     0
  9
$DIMSAH
 70
     1
  9
$DIMBLK1
  1
BOLA
  9
$DIMBLK2
  1
BOLA
  9
$DIMSTYLE
  2
BOLA100
  9
$DIMCLRD
 70
     1
  9
$DIMCLRE
 70
     0
  9
$DIMCLRT
 70
     2
  9
$DIMTFAC
 40
1.2
  9
$DIMGAP
 40
0.1
  9
$LUNITS
 70
     2
  9
$LUPREC
 70
     4
  9
$SKETCHINC
 40
1.0
  9
$FILLETRAD
 40
0.0
  9
$AUNITS
 70
     0
  9
$AUPREC
 70
     0
  9
$MENU
  1
.
  9
$ELEVATION
 40
0.0
  9
$PELEVATION
 40
0.0
  9
$THICKNESS
 40
0.0
  9
$LIMCHECK
 70
     0
  9
$CHAMFERA
 40
10.0
  9
$CHAMFERB
 40
10.0
  9
$SKPOLY
 70
     0
  9
$TDCREATE
 40
2450718.381823033
  9
$TDUPDATE
 40
2458028.605729167
  9
$TDINDWG
 40
0.3124481019
  9
$TDUSRTIMER
 40
0.3124481019
  9
$USRTIMER
 70
     1
  9
$ANGBASE
 50
0.0
  9
$ANGDIR
 70
     0
  9
$PDMODE
 70
     0
  9
$PDSIZE
 40
0.0
  9
$PLINEWID
 40
0.0
  9
$COORDS
 70
     1
  9
$SPLFRAME
 70
     0
  9
$SPLINETYPE
 70
     6
  9
$SPLINESEGS
 70
     8
  9
$ATTDIA
 70
     0
  9
$ATTREQ
 70
     1
  9
$HANDLING
 70
     1
  9
$HANDSEED
  5
C8
  9
$SURFTAB1
 70
     6
  9
$SURFTAB2
 70
     6
  9
$SURFTYPE
 70
     6
  9
$SURFU
 70
     6
  9
$SURFV
 70
     6
  9
$UCSNAME
  2

  9
$UCSORG
 10
0.0
 20
0.0
 30
0.0
  9
$UCSXDIR
 10
1.0
 20
0.0
 30
0.0
  9
$UCSYDIR
 10
0.0
 20
1.0
 30
0.0
  9
$PUCSNAME
  2

  9
$PUCSORG
 10
0.0
 20
0.0
 30
0.0
  9
$PUCSXDIR
 10
1.0
 20
0.0
 30
0.0
  9
$PUCSYDIR
 10
0.0
 20
1.0
 30
0.0
  9
$USERI1
 70
     0
  9
$USERI2
 70
     0
  9
$USERI3
 70
     0
  9
$USERI4
 70
     0
  9
$USERI5
 70
     0
  9
$USERR1
 40
0.0
  9
$USERR2
 40
0.0
  9
$USERR3
 40
0.0
  9
$USERR4
 40
0.0
  9
$USERR5
 40
0.0
  9
$WORLDVIEW
 70
     1
  9
$SHADEDGE
 70
     3
  9
$SHADEDIF
 70
    70
  9
$TILEMODE
 70
     1
  9
$MAXACTVP
 70
    48
  9
$PLIMCHECK
 70
     0
  9
$PEXTMIN
 10
1.000000000000000E+20
 20
1.000000000000000E+20
 30
1.000000000000000E+20
  9
$PEXTMAX
 10
-1.000000000000000E+20
 20
-1.000000000000000E+20
 30
-1.000000000000000E+20
  9
$PLIMMIN
 10
0.0
 20
0.0
  9
$PLIMMAX
 10
420.0
 20
297.0
  9
$UNITMODE
 70
     0
  9
$VISRETAIN
 70
     1
  9
$PLINEGEN
 70
     0
  9
$PSLTSCALE
 70
     1
  0
ENDSEC
  0
SECTION
  2
TABLES
  0
TABLE
  2
VPORT
 70
     1
  0
VPORT
  2
*ACTIVE
 70
     0
 10
0.0
 20
0.0
 11
1.0
 21
1.0
 12
281.7617232786004
 22
79.70003865993019
 13
0.0
 23
0.0
 14
10.0
 24
10.0
 15
10.0
 25
10.0
 16
0.0
 26
0.0
 36
1.0
 17
0.0
 27
0.0
 37
0.0
 40
2.192643524783896
 41
1.503537735849057
 42
50.0
 43
0.0
 44
0.0
 50
0.0
 51
0.0
 71
     0
 72
   100
 73
     1
 74
     1
 75
     0
 76
     0
 77
     0
 78
     0
  0
ENDTAB
  0
TABLE
  2
LTYPE
 70
     1
  0
LTYPE
  2
CONTINUOUS
 70
     0
  3
Solid line
 72
    65
 73
     0
 40
0.0
  0
ENDTAB
  0
TABLE
  2
LAYER
 70
     2
  0
LAYER
  2
0
 70
     0
 62
     7
  6
CONTINUOUS
  0
LAYER
  2
LAYOUT
 70
     0
 62
     4
  6
CONTINUOUS
  0
ENDTAB
  0
TABLE
  2
STYLE
 70
     2
  0
STYLE
  2
STANDARD
 70
     0
 40
0.0
 41
1.0
 50
0.0
 71
     0
 42
2.5
  3
txt
  4

  0
STYLE
  2
ROMANS
 70
     0
 40
0.0
 41
1.0
 50
0.0
 71
     0
 42
0.09
  3
C:\r13\com\fonts\romans.shx
  4

  0
ENDTAB
  0
TABLE
  2
VIEW
 70
     0
  0
ENDTAB
  0
TABLE
  2
UCS
 70
     0
  0
ENDTAB
  0
TABLE
  2
APPID
 70
     2
  0
APPID
  2
ACAD
 70
     0
  0
APPID
  2
DCO15
 70
     0
  0
ENDTAB
  0
TABLE
  2
DIMSTYLE
 70
     1
  0
DIMSTYLE
  2
BOLA100
 70
     0
  3

  4

  5
BOLA
  6

  7

 40
1.0
 41
0.18
 42
0.063
 43
0.0
 44
0.18
 45
0.0
 46
0.0
 47
0.0
 48
0.0
140
0.15
141
0.09
142
0.0
143
25.4
144
1.0
145
2.0
146
1.2
147
0.0
 71
     0
 72
     0
 73
     0
 74
     0
 75
     1
 76
     1
 77
     0
 78
     4
170
     0
171
     2
172
     1
173
     0
174
     1
175
     0
176
     0
177
     0
178
     2
  0
ENDTAB
  0
ENDSEC
  0
SECTION
  2
BLOCKS
  0
BLOCK
  8
0
  2
$MODEL_SPACE
 70
     0
 10
0.0
 20
0.0
 30
0.0
  3
$MODEL_SPACE
  1

  0
ENDBLK
  5
6
  8
0
  0
BLOCK
 67
     1
  8
0
  2
$PAPER_SPACE
 70
     0
 10
0.0
 20
0.0
 30
0.0
  3
$PAPER_SPACE
  1

  0
ENDBLK
  5
9
 67
     1
  8
0
  0
BLOCK
  8
0
  2
BOLA
 70
     0
 10
0.0
 20
0.0
 30
0.0
  3
BOLA
  1

  0
LINE
  5
20
  8
0
 10
-1.0
 20
0.0
 30
0.0
 11
1.0
 21
0.0
 31
0.0
  0
CIRCLE
  5
21
  8
0
 10
0.0
 20
0.0
 30
0.0
 40
0.3
  0
LINE
  5
22
  8
0
 10
0.0
 20
-1.0
 30
0.0
 11
0.0
 21
1.0
 31
0.0
  0
ENDBLK
  5
24
  8
0
  0
ENDSEC
  0
SECTION
  2
ENTITIES
  0
LINE
  5
25
  8
0
 62
     0
 10
281.5182347417972
 20
78.82315694432322
 30
0.0
 11
281.5052013165847
 21
78.96864180114459
 31
0.0
  0
LINE
  5
27
  8
0
 62
     0
 10
281.8394482623544
 20
78.82315694432319
 30
0.0
 11
281.8524816875669
 21
78.96864180114459
 31
0.0
  0
ARC
  5
28
  8
0
 62
     0
 10
281.8111340091837
 20
78.73124364408955
 30
0.0
 40
0.02
 50
354.8807588149591
 51
100.6679657078431
  0
LINE
  5
29
  8
0
 62
     0
 10
281.8301274777531
 20
78.71911422408016
 30
0.0
 11
281.8310542323154
 21
78.72945906840192
 31
0.0
  0
ARC
  5
2A
  8
0
 62
     0
 10
281.8102072546214
 20
78.72089879976778
 30
0.0
 40
0.02
 50
280.4445398869078
 51
354.8807588149554
  0
ARC
  5
2B
  8
0
 62
     0
 10
281.5465489949679
 20
78.73124364408955
 30
0.0
 40
0.02
 50
79.3320342921569
 51
185.1192411850446
  0
LINE
  5
2C
  8
0
 62
     0
 10
281.5275555263985
 20
78.71911422408016
 30
0.0
 11
281.5266287718363
 21
78.72945906840192
 31
0.0
  0
ARC
  5
2D
  8
0
 62
     0
 10
281.5474757495302
 20
78.72089879976778
 30
0.0
 40
0.02
 50
185.119241185041
 51
259.5554601130922
  0
ARC
  5
2E
  8
0
 62
     0
 10
281.6788415020758
 20
79.43353397842424
 30
0.0
 40
0.6946418831390048
 50
259.3320342921527
 51
280.667965707845
  0
ARC
  5
2F
  8
0
 62
     0
 10
281.6788415020758
 20
79.43353397842424
 30
0.0
 40
0.7446418831390048
 50
259.5554601130856
 51
280.4445398869132
  0
ARC
  5
30
  8
0
 62
     0
 10
281.8195280392227
 20
78.82494152001081
 30
0.0
 40
0.02
 50
283.0162570350129
 51
354.8807588149554
  0
ARC
  5
31
  8
0
 62
     0
 10
281.5381549649289
 20
78.82494152001084
 30
0.0
 40
0.02
 50
185.1192411850446
 51
256.9837429649657
  0
ARC
  5
32
  8
0
 62
     0
 10
281.6788415020758
 20
79.43353397842424
 30
0.0
 40
0.6446418831390047
 50
256.9837429649648
 51
283.0162570350328
  0
ARC
  5
33
  8
0
 62
     0
 10
281.6788415020758
 20
79.51247693469402
 30
0.0
 40
0.7446418831390048
 50
79.55546011308678
 51
100.4445398869143
  0
LINE
  5
34
  8
0
 62
     0
 10
281.8301274777531
 20
80.2268966890381
 30
0.0
 11
281.8310542323154
 21
80.21655184471634
 31
0.0
  0
ARC
  5
35
  8
0
 62
     0
 10
281.8111340091837
 20
80.21476726902871
 30
0.0
 40
0.02
 50
259.3320342921569
 51
5.119241185040971
  0
ARC
  5
36
  8
0
 62
     0
 10
281.8195280392227
 20
80.12106939310745
 30
0.0
 40
0.02
 50
5.119241185044583
 51
76.98374296498714
  0
ARC
  5
37
  8
0
 62
     0
 10
281.6788415020758
 20
79.51247693469402
 30
0.0
 40
0.6946418831390048
 50
79.33203429215497
 51
100.6679657078473
  0
ARC
  5
38
  8
0
 62
     0
 10
281.6788415020758
 20
79.51247693469402
 30
0.0
 40
0.6446418831390047
 50
76.98374296496725
 51
103.0162570350352
  0
LINE
  5
39
  8
0
 62
     0
 10
281.5275555263985
 20
80.2268966890381
 30
0.0
 11
281.5266287718363
 21
80.21655184471634
 31
0.0
  0
ARC
  5
3A
  8
0
 62
     0
 10
281.5465489949679
 20
80.21476726902871
 30
0.0
 40
0.02
 50
174.8807588149554
 51
280.6679657078431
  0
ARC
  5
3B
  8
0
 62
     0
 10
281.5381549649289
 20
80.12106939310742
 30
0.0
 40
0.02
 50
103.0162570350343
 51
174.8807588149554
  0
ARC
  5
3C
  8
0
 62
     0
 10
281.8102072546214
 20
80.22511211335048
 30
0.0
 40
0.02
 50
5.119241185044583
 51
79.55546011309218
  0
ARC
  5
3D
  8
0
 62
     0
 10
281.5474757495302
 20
80.22511211335048
 30
0.0
 40
0.02
 50
100.4445398869078
 51
174.880758814959
  0
LINE
  5
3E
  8
0
 62
     0
 10
281.0423142220182
 20
79.61445272496113
 30
0.0
 11
281.1890614764865
 21
79.6285990644488
 31
0.0
  0
ARC
  5
3F
  8
0
 62
     0
 10
281.0442333126804
 20
79.59454501060137
 30
0.0
 40
0.02
 50
95.50626152835909
 51
167.3707633083017
  0
ARC
  5
40
  8
0
 62
     0
 10
280.940255925373
 20
79.58452165837429
 30
0.0
 40
0.02
 50
95.50626152835909
 51
169.9424804564067
  0
LINE
  5
41
  8
0
 62
     0
 10
280.9383368347108
 20
79.60442937273407
 30
0.0
 11
280.9486751830561
 21
79.6054259827624
 31
0.0
  0
ARC
  5
42
  8
0
 62
     0
 10
280.9505942737184
 20
79.58551826840264
 30
0.0
 40
0.02
 50
349.7190546354715
 51
95.50626152835548
  0
ARC
  5
43
  8
0
 62
     0
 10
281.0461339112347
 20
79.31317835539375
 30
0.0
 40
0.02
 50
193.4032773783488
 51
265.2677791582699
  0
ARC
  5
44
  8
0
 62
     0
 10
280.9420306051996
 20
79.3217961470911
 30
0.0
 40
0.02
 50
190.8315602302224
 51
265.2677791582735
  0
LINE
  5
45
  8
0
 62
     0
 10
280.9403806259112
 20
79.30186432408496
 30
0.0
 11
280.9507314942064
 21
79.30100746727368
 31
0.0
  0
ARC
  5
46
  8
0
 62
     0
 10
280.9523814734949
 20
79.3209392902798
 30
0.0
 40
0.02
 50
265.2677791582699
 51
11.05498605115761
  0
ARC
  5
47
  8
0
 62
     0
 10
281.6537621862867
 20
79.45797255945394
 30
0.0
 40
0.6446418831390047
 50
167.3707633082818
 51
193.4032773783497
  0
ARC
  5
48
  8
0
 62
     0
 10
281.6537621862867
 20
79.45797255945394
 30
0.0
 40
0.7446418831390048
 50
169.9424804564013
 51
190.8315602302289
  0
ARC
  5
49
  8
0
 62
     0
 10
281.6537621862867
 20
79.45797255945394
 30
0.0
 40
0.6946418831390048
 50
169.7190546354695
 51
191.0549860511618
  0
ARC
  5
4A
  8
0
 62
     0
 10
281.7237243509451
 20
79.45797255945394
 30
0.0
 40
0.6946418831390048
 50
348.9450139488382
 51
10.28094536453052
  0
ARC
  5
4B
  8
0
 62
     0
 10
281.7237243509451
 20
79.45797255945394
 30
0.0
 40
0.7446418831390048
 50
349.1684397697712
 51
10.0575195435987
  0
ARC
  5
4C
  8
0
 62
     0
 10
281.7237243509451
 20
79.45797255945394
 30
0.0
 40
0.6446418831390047
 50
346.5967226216503
 51
12.62923669171824
  0
ARC
  5
4D
  8
0
 62
     0
 10
282.4251050637369
 20
79.3209392902798
 30
0.0
 40
0.02
 50
168.9450139488424
 51
274.7322208417301
  0
LINE
  5
4E
  8
0
 62
     0
 10
282.4371059113205
 20
79.30186432408496
 30
0.0
 11
282.4267550430253
 21
79.30100746727368
 31
0.0
  0
ARC
  5
4F
  8
0
 62
     0
 10
282.435455932032
 20
79.3217961470911
 30
0.0
 40
0.02
 50
274.7322208417265
 51
349.1684397697776
  0
ARC
  5
50
  8
0
 62
     0
 10
282.3313526259971
 20
79.31317835539375
 30
0.0
 40
0.02
 50
274.7322208417301
 51
346.5967226216512
  0
ARC
  5
51
  8
0
 62
     0
 10
282.4268922635133
 20
79.58551826840264
 30
0.0
 40
0.02
 50
84.49373847164452
 51
190.2809453645285
  0
LINE
  5
52
  8
0
 62
     0
 10
282.4391497025209
 20
79.60442937273407
 30
0.0
 11
282.4288113541755
 21
79.6054259827624
 31
0.0
  0
ARC
  5
53
  8
0
 62
     0
 10
282.4372306118588
 20
79.58452165837429
 30
0.0
 40
0.02
 50
10.05751954359331
 51
84.4937384716409
  0
ARC
  5
54
  8
0
 62
     0
 10
282.3332532245513
 20
79.59454501060137
 30
0.0
 40
0.02
 50
12.62923669169835
 51
84.4937384716409
  0
LINE
  5
55
  8
0
 62
     0
 10
282.3351723152135
 20
79.61445272496113
 30
0.0
 11
282.1884250607453
 21
79.62859906444879
 31
0.0
  0
LINE
  5
56
  8
0
 62
     0
 10
281.1887432686158
 20
79.96864180114457
 30
0.0
 11
281.1887432686159
 21
78.96864180114459
 31
0.0
  0
LINE
  5
57
  8
0
 62
     0
 10
281.1887432686159
 20
78.96864180114459
 30
0.0
 11
282.1887432686159
 21
78.96864180114459
 31
0.0
  0
LINE
  5
58
  8
0
 62
     0
 10
282.1887432686159
 20
79.96864180114459
 30
0.0
 11
282.1887432686159
 21
78.96864180114459
 31
0.0
  0
LINE
  5
59
  8
0
 62
     0
 10
281.1887432686158
 20
79.96864180114457
 30
0.0
 11
282.1887432686159
 21
79.96864180114459
 31
0.0
  0
LINE
  5
5A
  8
0
 62
     0
 10
281.0444839319462
 20
79.29324653238757
 30
0.0
 11
281.1887432686158
 21
79.28130457817717
 31
0.0
  0
LINE
  5
5B
  8
0
 62
     0
 10
281.5182347417972
 20
80.12285396879504
 30
0.0
 11
281.5044194705873
 21
79.96864180114459
 31
0.0
  0
LINE
  5
5C
  8
0
 62
     0
 10
281.8394482623544
 20
80.12285396879507
 30
0.0
 11
281.8532635335644
 21
79.96864180114459
 31
0.0
  0
LINE
  5
5D
  8
0
 62
     0
 10
282.3330026052855
 20
79.29324653238757
 30
0.0
 11
282.1887432686159
 21
79.2813045781772
 31
0.0
  0
ENDSEC
  0
EOF
