  0
SECTION
  2
HEADER
  9
$ACADVER
  1
AC1009
  9
$DWGCODEPAGE
  3
ansi_1252
  9
$INSBASE
 10
-6.567583316834115
 20
22.85775506241476
 30
0.0
  9
$EXTMIN
 10
-7.776814993231618
 20
22.12444900585851
 30
0.0
  9
$EXTMAX
 10
-5.339314993231618
 20
23.56194900585851
 30
0.0
  9
$LIMMIN
 10
0.0
 20
0.0
  9
$LIMMAX
 10
12.0
 20
9.0
  9
$ORTHOMODE
 70
     0
  9
$REGENMODE
 70
     1
  9
$FILLMODE
 70
     1
  9
$QTEXTMODE
 70
     0
  9
$MIRRTEXT
 70
     1
  9
$DRAGMODE
 70
     2
  9
$LTSCALE
 40
1.0
  9
$OSMODE
 70
    37
  9
$ATTMODE
 70
     1
  9
$TEXTSIZE
 40
0.2
  9
$TRACEWID
 40
0.05
  9
$TEXTSTYLE
  7
STANDARD
  9
$CLAYER
  8
0
  9
$CELTYPE
  6
BYLAYER
  9
$CECOLOR
 62
   256
  9
$DIMSCALE
 40
1.0
  9
$DIMASZ
 40
0.18
  9
$DIMEXO
 40
0.0625
  9
$DIMDLI
 40
0.38
  9
$DIMRND
 40
0.0
  9
$DIMDLE
 40
0.0
  9
$DIMEXE
 40
0.18
  9
$DIMTP
 40
0.0
  9
$DIMTM
 40
0.0
  9
$DIMTXT
 40
0.18
  9
$DIMCEN
 40
0.09
  9
$DIMTSZ
 40
0.0
  9
$DIMTOL
 70
     0
  9
$DIMLIM
 70
     0
  9
$DIMTIH
 70
     1
  9
$DIMTOH
 70
     1
  9
$DIMSE1
 70
     0
  9
$DIMSE2
 70
     0
  9
$DIMTAD
 70
     0
  9
$DIMZIN
 70
     0
  9
$DIMBLK
  1

  9
$DIMASO
 70
     1
  9
$DIMSHO
 70
     1
  9
$DIMPOST
  1

  9
$DIMAPOST
  1

  9
$DIMALT
 70
     0
  9
$DIMALTD
 70
     2
  9
$DIMALTF
 40
25.4
  9
$DIMLFAC
 40
1.0
  9
$DIMTOFL
 70
     0
  9
$DIMTVP
 40
0.0
  9
$DIMTIX
 70
     0
  9
$DIMSOXD
 70
     0
  9
$DIMSAH
 70
     0
  9
$DIMBLK1
  1

  9
$DIMBLK2
  1

  9
$DIMSTYLE
  2
STANDARD
  9
$DIMCLRD
 70
     0
  9
$DIMCLRE
 70
     0
  9
$DIMCLRT
 70
     0
  9
$DIMTFAC
 40
1.0
  9
$DIMGAP
 40
0.09
  9
$LUNITS
 70
     2
  9
$LUPREC
 70
     4
  9
$SKETCHINC
 40
0.1
  9
$FILLETRAD
 40
0.0
  9
$AUNITS
 70
     0
  9
$AUPREC
 70
     0
  9
$MENU
  1
ACAD
  9
$ELEVATION
 40
0.0
  9
$PELEVATION
 40
0.0
  9
$THICKNESS
 40
0.0
  9
$LIMCHECK
 70
     0
  9
$CHAMFERA
 40
0.0
  9
$CHAMFERB
 40
0.0
  9
$SKPOLY
 70
     0
  9
$TDCREATE
 40
2450365.390812037
  9
$TDUPDATE
 40
2458028.605729167
  9
$TDINDWG
 40
0.0006418171
  9
$TDUSRTIMER
 40
0.0006418171
  9
$USRTIMER
 70
     1
  9
$ANGBASE
 50
0.0
  9
$ANGDIR
 70
     0
  9
$PDMODE
 70
     0
  9
$PDSIZE
 40
0.0
  9
$PLINEWID
 40
0.25
  9
$COORDS
 70
     1
  9
$SPLFRAME
 70
     0
  9
$SPLINETYPE
 70
     6
  9
$SPLINESEGS
 70
     8
  9
$ATTDIA
 70
     0
  9
$ATTREQ
 70
     1
  9
$HANDLING
 70
     1
  9
$HANDSEED
  5
1B3F6D84EBD2A35
  9
$SURFTAB1
 70
     6
  9
$SURFTAB2
 70
     6
  9
$SURFTYPE
 70
     6
  9
$SURFU
 70
     6
  9
$SURFV
 70
     6
  9
$UCSNAME
  2

  9
$UCSORG
 10
0.0
 20
0.0
 30
0.0
  9
$UCSXDIR
 10
1.0
 20
0.0
 30
0.0
  9
$UCSYDIR
 10
0.0
 20
1.0
 30
0.0
  9
$PUCSNAME
  2

  9
$PUCSORG
 10
0.0
 20
0.0
 30
0.0
  9
$PUCSXDIR
 10
1.0
 20
0.0
 30
0.0
  9
$PUCSYDIR
 10
0.0
 20
1.0
 30
0.0
  9
$USERI1
 70
     1
  9
$USERI2
 70
     0
  9
$USERI3
 70
     0
  9
$USERI4
 70
     0
  9
$USERI5
 70
     0
  9
$USERR1
 40
0.0
  9
$USERR2
 40
0.125
  9
$USERR3
 40
48.0
  9
$USERR4
 40
0.0
  9
$USERR5
 40
0.0
  9
$WORLDVIEW
 70
     0
  9
$SHADEDGE
 70
     3
  9
$SHADEDIF
 70
    70
  9
$TILEMODE
 70
     1
  9
$MAXACTVP
 70
    16
  9
$PLIMCHECK
 70
     0
  9
$PEXTMIN
 10
1.000000000000000E+20
 20
1.000000000000000E+20
 30
1.000000000000000E+20
  9
$PEXTMAX
 10
-1.000000000000000E+20
 20
-1.000000000000000E+20
 30
-1.000000000000000E+20
  9
$PLIMMIN
 10
0.0
 20
0.0
  9
$PLIMMAX
 10
12.0
 20
9.0
  9
$UNITMODE
 70
     0
  9
$VISRETAIN
 70
     0
  9
$PLINEGEN
 70
     0
  9
$PSLTSCALE
 70
     1
  0
ENDSEC
  0
SECTION
  2
TABLES
  0
TABLE
  2
VPORT
 70
     1
  0
VPORT
  2
*ACTIVE
 70
     0
 10
0.0
 20
0.0
 11
1.0
 21
1.0
 12
-6.559159857866849
 22
22.80174094613801
 13
0.0
 23
0.0
 14
1.0
 24
1.0
 15
0.0
 25
0.0
 16
0.0
 26
0.0
 36
1.0
 17
0.0
 27
0.0
 37
0.0
 40
2.053936655478122
 41
1.503537735849057
 42
50.0
 43
0.0
 44
0.0
 50
0.0
 51
0.0
 71
     0
 72
   100
 73
     1
 74
     1
 75
     0
 76
     0
 77
     0
 78
     0
  0
ENDTAB
  0
TABLE
  2
LTYPE
 70
     1
  0
LTYPE
  2
CONTINUOUS
 70
     0
  3
Solid line
 72
    65
 73
     0
 40
0.0
  0
ENDTAB
  0
TABLE
  2
LAYER
 70
     2
  0
LAYER
  2
0
 70
     0
 62
     7
  6
CONTINUOUS
  0
LAYER
  2
MOB
 70
     0
 62
     1
  6
CONTINUOUS
  0
ENDTAB
  0
TABLE
  2
STYLE
 70
     1
  0
STYLE
  2
STANDARD
 70
     0
 40
0.0
 41
1.0
 50
0.0
 71
     0
 42
0.2
  3
txt
  4

  0
ENDTAB
  0
TABLE
  2
VIEW
 70
     0
  0
ENDTAB
  0
TABLE
  2
UCS
 70
     0
  0
ENDTAB
  0
TABLE
  2
APPID
 70
     2
  0
APPID
  2
ACAD
 70
     0
  0
APPID
  2
DCO15
 70
     0
  0
ENDTAB
  0
TABLE
  2
DIMSTYLE
 70
     1
  0
DIMSTYLE
  2
STANDARD
 70
     0
  3

  4

  5

  6

  7

 40
1.0
 41
0.18
 42
0.0625
 43
0.38
 44
0.18
 45
0.0
 46
0.0
 47
0.0
 48
0.0
140
0.18
141
0.09
142
0.0
143
25.4
144
1.0
145
0.0
146
1.0
147
0.09
 71
     0
 72
     0
 73
     1
 74
     1
 75
     0
 76
     0
 77
     0
 78
     0
170
     0
171
     2
172
     0
173
     0
174
     0
175
     0
176
     0
177
     0
178
     0
  0
ENDTAB
  0
ENDSEC
  0
SECTION
  2
BLOCKS
  0
BLOCK
  8
0
  2
$MODEL_SPACE
 70
     0
 10
0.0
 20
0.0
 30
0.0
  3
$MODEL_SPACE
  1

  0
ENDBLK
  5
1B3F6D84EBD2992
  8
0
  0
BLOCK
 67
     1
  8
0
  2
$PAPER_SPACE
 70
     0
 10
0.0
 20
0.0
 30
0.0
  3
$PAPER_SPACE
  1

  0
ENDBLK
  5
1B3F6D84EBD2994
 67
     1
  8
0
  0
BLOCK
  8
0
  2
AB19A
 70
     0
 10
0.0
 20
0.0
 30
0.0
  3
AB19A
  1

  0
LINE
  5
4B0
  8
0
 10
1.0
 20
-1.0
 30
0.0
 11
0.0
 21
-1.0
 31
0.0
  0
LINE
  5
4B1
  8
0
 10
1.0
 20
0.0
 30
0.0
 11
1.0
 21
-1.0
 31
0.0
  0
LINE
  5
4B2
  8
0
 10
0.0
 20
0.0
 30
0.0
 11
1.0
 21
0.0
 31
0.0
  0
LINE
  5
4B3
  8
0
 10
0.0
 20
-1.0
 30
0.0
 11
0.0
 21
0.0
 31
0.0
  0
ENDBLK
  5
4B4
  8
0
  0
BLOCK
  8
0
  2
AC18F
 70
     0
 10
0.0
 20
0.0
 30
0.0
  3
AC18F
  1

  0
LINE
  5
955
  8
0
 10
0.0
 20
0.392168318387121
 30
0.0
 11
-0.5443873732583597
 21
0.3480702884262428
 31
0.0
  0
LINE
  5
956
  8
0
 10
0.0
 20
0.4696231726557016
 30
0.0
 11
-0.625
 21
0.418995127081871
 31
0.0
  0
LINE
  5
957
  8
0
 10
0.0
 20
-0.3921683185035363
 30
0.0
 11
-0.5443873732583597
 21
-0.3480702885426581
 31
0.0
  0
LINE
  5
958
  8
0
 10
0.0
 20
-0.4696231726557016
 30
0.0
 11
-0.625
 21
-0.4189951271982864
 31
0.0
  0
LINE
  5
959
  8
0
 10
-0.4006866038544104
 20
0.3597107509849593
 30
0.0
 11
-0.4006866038544104
 21
-0.3597107511013746
 31
0.0
  0
LINE
  5
95A
  8
0
 10
-0.5443873732583597
 20
0.3480702884262428
 30
0.0
 11
-0.5443873732583597
 21
-0.3480702885426581
 31
0.0
  0
LINE
  5
95B
  8
0
 10
-0.625
 20
0.418995127081871
 30
0.0
 11
-0.625
 21
-0.4189951271982864
 31
0.0
  0
ENDBLK
  5
95C
  8
0
  0
ENDSEC
  0
SECTION
  2
ENTITIES
  0
LINE
  5
1B3F6D84EBD29A6
  8
0
 10
-5.558064993231618
 20
23.00006633323664
 30
0.0
 11
-5.367529412591192
 21
22.98242712125229
 31
0.0
  0
LINE
  5
1B3F6D84EBD29A7
  8
0
 10
-5.558064993231618
 20
23.03104827494407
 30
0.0
 11
-5.339314993231618
 21
23.01079705671454
 31
0.0
  0
LINE
  5
1B3F6D84EBD29A8
  8
0
 10
-5.558064993231618
 20
22.68633167848038
 30
0.0
 11
-5.367529412591192
 21
22.70397089046473
 31
0.0
  0
LINE
  5
1B3F6D84EBD29A9
  8
0
 10
-5.558064993231618
 20
22.65534973681951
 30
0.0
 11
-5.339314993231618
 21
22.67560095500248
 31
0.0
  0
LINE
  5
1B3F6D84EBD29AA
  8
0
 10
-5.417824681882574
 20
22.98708330627577
 30
0.0
 11
-5.417824681882574
 21
22.69931470544124
 31
0.0
  0
LINE
  5
1B3F6D84EBD29AB
  8
0
 10
-5.367529412591192
 20
22.98242712125229
 30
0.0
 11
-5.367529412591192
 21
22.70397089046473
 31
0.0
  0
LINE
  5
1B3F6D84EBD29AC
  8
0
 10
-5.339314993231618
 20
23.01079705671454
 30
0.0
 11
-5.339314993231618
 21
22.67560095500248
 31
0.0
  0
LINE
  5
1B3F6D84EBD29AF
  8
0
 10
-6.147220750711969
 20
23.34319900585851
 30
0.0
 11
-6.129581538727618
 21
23.53373458649893
 31
0.0
  0
LINE
  5
1B3F6D84EBD29B0
  8
0
 10
-6.178202692419402
 20
23.34319900585851
 30
0.0
 11
-6.157951474189869
 21
23.56194900585851
 31
0.0
  0
LINE
  5
1B3F6D84EBD29B1
  8
0
 10
-5.833486095955706
 20
23.34319900585851
 30
0.0
 11
-5.851125307940057
 21
23.53373458649893
 31
0.0
  0
LINE
  5
1B3F6D84EBD29B2
  8
0
 10
-5.80250415429484
 20
23.34319900585851
 30
0.0
 11
-5.822755372477806
 21
23.56194900585851
 31
0.0
  0
LINE
  5
1B3F6D84EBD29B3
  8
0
 10
-6.134237723751104
 20
23.48343931720755
 30
0.0
 11
-5.846469122916571
 21
23.48343931720755
 31
0.0
  0
LINE
  5
1B3F6D84EBD29B4
  8
0
 10
-6.129581538727618
 20
23.53373458649893
 30
0.0
 11
-5.851125307940057
 21
23.53373458649893
 31
0.0
  0
LINE
  5
1B3F6D84EBD29B5
  8
0
 10
-6.157951474189869
 20
23.56194900585851
 30
0.0
 11
-5.822755372477806
 21
23.56194900585851
 31
0.0
  0
LINE
  5
1B3F6D84EBD29B6
  8
0
 10
-6.147220750711969
 20
22.34319900585851
 30
0.0
 11
-6.129581538727618
 21
22.15266342521808
 31
0.0
  0
LINE
  5
1B3F6D84EBD29B7
  8
0
 10
-6.178202692419402
 20
22.34319900585851
 30
0.0
 11
-6.157951474189869
 21
22.12444900585851
 31
0.0
  0
LINE
  5
1B3F6D84EBD29B8
  8
0
 10
-5.833486095955706
 20
22.34319900585851
 30
0.0
 11
-5.851125307940057
 21
22.15266342521808
 31
0.0
  0
LINE
  5
1B3F6D84EBD29B9
  8
0
 10
-5.80250415429484
 20
22.34319900585851
 30
0.0
 11
-5.822755372477806
 21
22.12444900585851
 31
0.0
  0
LINE
  5
1B3F6D84EBD29BA
  8
0
 10
-6.134237723751104
 20
22.20295869450947
 30
0.0
 11
-5.846469122916571
 21
22.20295869450947
 31
0.0
  0
LINE
  5
1B3F6D84EBD29BB
  8
0
 10
-6.129581538727618
 20
22.15266342521808
 30
0.0
 11
-5.851125307940057
 21
22.15266342521808
 31
0.0
  0
LINE
  5
1B3F6D84EBD29BC
  8
0
 10
-6.157951474189869
 20
22.12444900585851
 30
0.0
 11
-5.822755372477806
 21
22.12444900585851
 31
0.0
  0
LINE
  5
1B3F6D84EBD29BD
  8
0
 10
-6.71493232060975
 20
23.34319900585851
 30
0.0
 11
-6.6972931086254
 21
23.53373458649893
 31
0.0
  0
LINE
  5
1B3F6D84EBD29BE
  8
0
 10
-6.745914262317183
 20
23.34319900585851
 30
0.0
 11
-6.725663044087651
 21
23.56194900585851
 31
0.0
  0
LINE
  5
1B3F6D84EBD29BF
  8
0
 10
-6.401197665853488
 20
23.34319900585851
 30
0.0
 11
-6.418836877837839
 21
23.53373458649893
 31
0.0
  0
LINE
  5
1B3F6D84EBD29C0
  8
0
 10
-6.370215724192621
 20
23.34319900585851
 30
0.0
 11
-6.390466942375587
 21
23.56194900585851
 31
0.0
  0
LINE
  5
1B3F6D84EBD29C1
  8
0
 10
-6.701949293648886
 20
23.48343931720755
 30
0.0
 11
-6.414180692814353
 21
23.48343931720755
 31
0.0
  0
LINE
  5
1B3F6D84EBD29C2
  8
0
 10
-6.6972931086254
 20
23.53373458649893
 30
0.0
 11
-6.418836877837839
 21
23.53373458649893
 31
0.0
  0
LINE
  5
1B3F6D84EBD29C3
  8
0
 10
-6.725663044087651
 20
23.56194900585851
 30
0.0
 11
-6.390466942375587
 21
23.56194900585851
 31
0.0
  0
LINE
  5
1B3F6D84EBD29C4
  8
0
 10
-7.282643890460963
 20
23.34319900585851
 30
0.0
 11
-7.265004678476612
 21
23.53373458649893
 31
0.0
  0
LINE
  5
1B3F6D84EBD29C5
  8
0
 10
-7.313625832168396
 20
23.34319900585851
 30
0.0
 11
-7.293374613938863
 21
23.56194900585851
 31
0.0
  0
LINE
  5
1B3F6D84EBD29C6
  8
0
 10
-6.9689092357047
 20
23.34319900585851
 30
0.0
 11
-6.986548447689051
 21
23.53373458649893
 31
0.0
  0
LINE
  5
1B3F6D84EBD29C7
  8
0
 10
-6.937927294043834
 20
23.34319900585851
 30
0.0
 11
-6.9581785122268
 21
23.56194900585851
 31
0.0
  0
LINE
  5
1B3F6D84EBD29C8
  8
0
 10
-7.269660863500098
 20
23.48343931720755
 30
0.0
 11
-6.981892262665565
 21
23.48343931720755
 31
0.0
  0
LINE
  5
1B3F6D84EBD29C9
  8
0
 10
-7.265004678476612
 20
23.53373458649893
 30
0.0
 11
-6.986548447689051
 21
23.53373458649893
 31
0.0
  0
LINE
  5
1B3F6D84EBD29CA
  8
0
 10
-7.293374613938863
 20
23.56194900585851
 30
0.0
 11
-6.9581785122268
 21
23.56194900585851
 31
0.0
  0
LINE
  5
1B3F6D84EBD29CB
  8
0
 10
-6.71493232060975
 20
22.34319900585851
 30
0.0
 11
-6.6972931086254
 21
22.15266342521808
 31
0.0
  0
LINE
  5
1B3F6D84EBD29CC
  8
0
 10
-6.745914262317183
 20
22.34319900585851
 30
0.0
 11
-6.725663044087651
 21
22.12444900585851
 31
0.0
  0
LINE
  5
1B3F6D84EBD29CD
  8
0
 10
-6.401197665853488
 20
22.34319900585851
 30
0.0
 11
-6.418836877837839
 21
22.15266342521808
 31
0.0
  0
LINE
  5
1B3F6D84EBD29CE
  8
0
 10
-6.370215724192621
 20
22.34319900585851
 30
0.0
 11
-6.390466942375587
 21
22.12444900585851
 31
0.0
  0
LINE
  5
1B3F6D84EBD29CF
  8
0
 10
-6.701949293648886
 20
22.20295869450947
 30
0.0
 11
-6.414180692814353
 21
22.20295869450947
 31
0.0
  0
LINE
  5
1B3F6D84EBD29D0
  8
0
 10
-6.6972931086254
 20
22.15266342521808
 30
0.0
 11
-6.418836877837839
 21
22.15266342521808
 31
0.0
  0
LINE
  5
1B3F6D84EBD29D1
  8
0
 10
-6.725663044087651
 20
22.12444900585851
 30
0.0
 11
-6.390466942375587
 21
22.12444900585851
 31
0.0
  0
LINE
  5
1B3F6D84EBD29D2
  8
0
 10
-7.282643890460963
 20
22.34319900585851
 30
0.0
 11
-7.265004678476612
 21
22.15266342521808
 31
0.0
  0
LINE
  5
1B3F6D84EBD29D3
  8
0
 10
-7.313625832168396
 20
22.34319900585851
 30
0.0
 11
-7.293374613938863
 21
22.12444900585851
 31
0.0
  0
LINE
  5
1B3F6D84EBD29D4
  8
0
 10
-6.9689092357047
 20
22.34319900585851
 30
0.0
 11
-6.986548447689051
 21
22.15266342521808
 31
0.0
  0
LINE
  5
1B3F6D84EBD29D5
  8
0
 10
-6.937927294043834
 20
22.34319900585851
 30
0.0
 11
-6.9581785122268
 21
22.12444900585851
 31
0.0
  0
LINE
  5
1B3F6D84EBD29D6
  8
0
 10
-7.269660863500098
 20
22.20295869450947
 30
0.0
 11
-6.981892262665565
 21
22.20295869450947
 31
0.0
  0
LINE
  5
1B3F6D84EBD29D7
  8
0
 10
-7.265004678476612
 20
22.15266342521808
 30
0.0
 11
-6.986548447689051
 21
22.15266342521808
 31
0.0
  0
LINE
  5
1B3F6D84EBD29D8
  8
0
 10
-7.293374613938863
 20
22.12444900585851
 30
0.0
 11
-6.9581785122268
 21
22.12444900585851
 31
0.0
  0
LINE
  5
1B3F6D84EBD29D9
  8
0
 10
-7.558064993231618
 20
23.00006633323664
 30
0.0
 11
-7.748600573872044
 21
22.98242712125229
 31
0.0
  0
LINE
  5
1B3F6D84EBD29DA
  8
0
 10
-7.558064993231618
 20
23.03104827494407
 30
0.0
 11
-7.776814993231618
 21
23.01079705671454
 31
0.0
  0
LINE
  5
1B3F6D84EBD29DB
  8
0
 10
-7.558064993231618
 20
22.68633167848038
 30
0.0
 11
-7.748600573872044
 21
22.70397089046473
 31
0.0
  0
LINE
  5
1B3F6D84EBD29DC
  8
0
 10
-7.558064993231618
 20
22.65534973681951
 30
0.0
 11
-7.776814993231618
 21
22.67560095500248
 31
0.0
  0
LINE
  5
1B3F6D84EBD29DD
  8
0
 10
-7.698305304580662
 20
22.98708330627577
 30
0.0
 11
-7.698305304580662
 21
22.69931470544124
 31
0.0
  0
LINE
  5
1B3F6D84EBD29DE
  8
0
 10
-7.748600573872044
 20
22.98242712125229
 30
0.0
 11
-7.748600573872044
 21
22.70397089046473
 31
0.0
  0
LINE
  5
1B3F6D84EBD29DF
  8
0
 10
-7.776814993231618
 20
23.01079705671454
 30
0.0
 11
-7.776814993231618
 21
22.67560095500248
 31
0.0
  0
LINE
  5
1B3F6D84EBD29E0
  8
0
 10
-5.558064993231618
 20
23.34319900585851
 30
0.0
 11
-5.558064993231618
 21
22.34319900585851
 31
0.0
  0
LINE
  5
1B3F6D84EBD29E1
  8
0
 10
-7.558064993231618
 20
23.34319900585851
 30
0.0
 11
-5.558064993231618
 21
23.34319900585851
 31
0.0
  0
LINE
  5
1B3F6D84EBD29E2
  8
0
 10
-7.558064993231618
 20
22.34319900585851
 30
0.0
 11
-7.558064993231618
 21
23.34319900585851
 31
0.0
  0
LINE
  5
1B3F6D84EBD29E3
  8
0
 10
-5.558064993231618
 20
22.34319900585851
 30
0.0
 11
-7.558064993231618
 21
22.34319900585851
 31
0.0
  0
ENDSEC
  0
EOF
