  0
SECTION
  2
HEADER
  9
$ACADVER
  1
AC1009
  9
$DWGCODEPAGE
  3
ansi_1252
  9
$INSBASE
 10
3.791562187036496
 20
5.447962712396313
 30
0.0
  9
$EXTMIN
 10
2.88477115064484
 20
5.447962712396313
 30
0.0
  9
$EXTMAX
 10
4.719651735954268
 20
6.247962712396312
 30
0.0
  9
$LIMMIN
 10
0.0
 20
0.0
  9
$LIMMAX
 10
12.0
 20
9.0
  9
$ORTHOMODE
 70
     0
  9
$REGENMODE
 70
     1
  9
$FILLMODE
 70
     1
  9
$QTEXTMODE
 70
     0
  9
$MIRRTEXT
 70
     0
  9
$DRAGMODE
 70
     2
  9
$LTSCALE
 40
1.0
  9
$OSMODE
 70
    37
  9
$ATTMODE
 70
     1
  9
$TEXTSIZE
 40
0.08
  9
$TRACEWID
 40
0.05
  9
$TEXTSTYLE
  7
STANDARD
  9
$CLAYER
  8
0
  9
$CELTYPE
  6
BYLAYER
  9
$CECOLOR
 62
   256
  9
$DIMSCALE
 40
1.0
  9
$DIMASZ
 40
0.0
  9
$DIMEXO
 40
0.5
  9
$DIMDLI
 40
0.0
  9
$DIMRND
 40
0.0
  9
$DIMDLE
 40
0.0
  9
$DIMEXE
 40
0.05
  9
$DIMTP
 40
0.0
  9
$DIMTM
 40
0.0
  9
$DIMTXT
 40
0.18
  9
$DIMCEN
 40
0.05
  9
$DIMTSZ
 40
0.05
  9
$DIMTOL
 70
     0
  9
$DIMLIM
 70
     0
  9
$DIMTIH
 70
     0
  9
$DIMTOH
 70
     0
  9
$DIMSE1
 70
     0
  9
$DIMSE2
 70
     0
  9
$DIMTAD
 70
     1
  9
$DIMZIN
 70
     0
  9
$DIMBLK
  1

  9
$DIMASO
 70
     1
  9
$DIMSHO
 70
     0
  9
$DIMPOST
  1

  9
$DIMAPOST
  1

  9
$DIMALT
 70
     0
  9
$DIMALTD
 70
     2
  9
$DIMALTF
 40
1.0
  9
$DIMLFAC
 40
1.0
  9
$DIMTOFL
 70
     0
  9
$DIMTVP
 40
0.0
  9
$DIMTIX
 70
     0
  9
$DIMSOXD
 70
     0
  9
$DIMSAH
 70
     0
  9
$DIMBLK1
  1

  9
$DIMBLK2
  1

  9
$DIMSTYLE
  2
STANDARD
  9
$DIMCLRD
 70
     0
  9
$DIMCLRE
 70
     0
  9
$DIMCLRT
 70
     0
  9
$DIMTFAC
 40
1.0
  9
$DIMGAP
 40
0.09
  9
$LUNITS
 70
     2
  9
$LUPREC
 70
     2
  9
$SKETCHINC
 40
0.1
  9
$FILLETRAD
 40
0.0
  9
$AUNITS
 70
     0
  9
$AUPREC
 70
     0
  9
$MENU
  1
\acad\support\acad
  9
$ELEVATION
 40
0.0
  9
$PELEVATION
 40
0.0
  9
$THICKNESS
 40
0.0
  9
$LIMCHECK
 70
     0
  9
$CHAMFERA
 40
0.0
  9
$CHAMFERB
 40
0.0
  9
$SKPOLY
 70
     0
  9
$TDCREATE
 40
2449295.58281794
  9
$TDUPDATE
 40
2458028.605752315
  9
$TDINDWG
 40
0.0010433333
  9
$TDUSRTIMER
 40
0.0010433333
  9
$USRTIMER
 70
     1
  9
$ANGBASE
 50
0.0
  9
$ANGDIR
 70
     0
  9
$PDMODE
 70
     2
  9
$PDSIZE
 40
1.0
  9
$PLINEWID
 40
0.0
  9
$COORDS
 70
     1
  9
$SPLFRAME
 70
     0
  9
$SPLINETYPE
 70
     6
  9
$SPLINESEGS
 70
     8
  9
$ATTDIA
 70
     0
  9
$ATTREQ
 70
     1
  9
$HANDLING
 70
     1
  9
$HANDSEED
  5
2AB
  9
$SURFTAB1
 70
     6
  9
$SURFTAB2
 70
     6
  9
$SURFTYPE
 70
     6
  9
$SURFU
 70
     6
  9
$SURFV
 70
     6
  9
$UCSNAME
  2

  9
$UCSORG
 10
0.0
 20
0.0
 30
0.0
  9
$UCSXDIR
 10
1.0
 20
0.0
 30
0.0
  9
$UCSYDIR
 10
0.0
 20
1.0
 30
0.0
  9
$PUCSNAME
  2

  9
$PUCSORG
 10
0.0
 20
0.0
 30
0.0
  9
$PUCSXDIR
 10
1.0
 20
0.0
 30
0.0
  9
$PUCSYDIR
 10
0.0
 20
1.0
 30
0.0
  9
$USERI1
 70
     0
  9
$USERI2
 70
     0
  9
$USERI3
 70
     0
  9
$USERI4
 70
     0
  9
$USERI5
 70
     0
  9
$USERR1
 40
0.0
  9
$USERR2
 40
0.0
  9
$USERR3
 40
0.0
  9
$USERR4
 40
0.0
  9
$USERR5
 40
0.0
  9
$WORLDVIEW
 70
     1
  9
$SHADEDGE
 70
     3
  9
$SHADEDIF
 70
    70
  9
$TILEMODE
 70
     1
  9
$MAXACTVP
 70
    16
  9
$PLIMCHECK
 70
     0
  9
$PEXTMIN
 10
1.000000000000000E+20
 20
1.000000000000000E+20
 30
1.000000000000000E+20
  9
$PEXTMAX
 10
-1.000000000000000E+20
 20
-1.000000000000000E+20
 30
-1.000000000000000E+20
  9
$PLIMMIN
 10
0.0
 20
0.0
  9
$PLIMMAX
 10
12.0
 20
9.0
  9
$UNITMODE
 70
     0
  9
$VISRETAIN
 70
     0
  9
$PLINEGEN
 70
     0
  9
$PSLTSCALE
 70
     0
  0
ENDSEC
  0
SECTION
  2
TABLES
  0
TABLE
  2
VPORT
 70
     1
  0
VPORT
  2
*ACTIVE
 70
     0
 10
0.0
 20
0.0
 11
1.0
 21
1.0
 12
3.802276636709316
 22
6.026098752926579
 13
0.0
 23
0.0
 14
1.0
 24
1.0
 15
0.0
 25
0.0
 16
0.0
 26
0.0
 36
1.0
 17
0.0
 27
0.0
 37
0.0
 40
1.345451440669057
 41
1.376889848812095
 42
50.0
 43
0.0
 44
0.0
 50
0.0
 51
0.0
 71
     0
 72
   100
 73
     1
 74
     0
 75
     0
 76
     0
 77
     0
 78
     0
  0
ENDTAB
  0
TABLE
  2
LTYPE
 70
     1
  0
LTYPE
  2
CONTINUOUS
 70
     0
  3
Solid line
 72
    65
 73
     0
 40
0.0
  0
ENDTAB
  0
TABLE
  2
LAYER
 70
     1
  0
LAYER
  2
0
 70
     0
 62
     7
  6
CONTINUOUS
  0
ENDTAB
  0
TABLE
  2
STYLE
 70
     1
  0
STYLE
  2
STANDARD
 70
     0
 40
0.0
 41
1.0
 50
0.0
 71
     0
 42
0.08
  3
txt
  4

  0
ENDTAB
  0
TABLE
  2
VIEW
 70
     0
  0
ENDTAB
  0
TABLE
  2
UCS
 70
     0
  0
ENDTAB
  0
TABLE
  2
APPID
 70
     1
  0
APPID
  2
ACAD
 70
     0
  0
ENDTAB
  0
TABLE
  2
DIMSTYLE
 70
     1
  0
DIMSTYLE
  2
STANDARD
 70
     0
  3

  4

  5

  6

  7

 40
1.0
 41
0.18
 42
0.0625
 43
0.38
 44
0.18
 45
0.0
 46
0.0
 47
0.0
 48
0.0
140
0.18
141
0.09
142
0.0
143
25.4
144
1.0
145
0.0
146
1.0
147
0.09
 71
     0
 72
     0
 73
     1
 74
     1
 75
     0
 76
     0
 77
     0
 78
     0
170
     0
171
     2
172
     0
173
     0
174
     0
175
     0
176
     0
177
     0
178
     0
  0
ENDTAB
  0
ENDSEC
  0
SECTION
  2
BLOCKS
  0
BLOCK
  8
0
  2
$MODEL_SPACE
 70
     0
 10
0.0
 20
0.0
 30
0.0
  3
$MODEL_SPACE
  1

  0
ENDBLK
  5
20
  8
0
  0
BLOCK
 67
     1
  8
0
  2
$PAPER_SPACE
 70
     0
 10
0.0
 20
0.0
 30
0.0
  3
$PAPER_SPACE
  1

  0
ENDBLK
  5
1E
 67
     1
  8
0
  0
ENDSEC
  0
SECTION
  2
ENTITIES
  0
POLYLINE
  5
23
  8
0
  6
CONTINUOUS
 62
     0
 66
     1
 10
0.0
 20
0.0
 30
0.0
  0
VERTEX
  5
20C
  8
0
  6
CONTINUOUS
 62
     0
 10
4.659651735954269
 20
5.997962712396311
 30
0.0
  0
VERTEX
  5
20D
  8
0
  6
CONTINUOUS
 62
     0
 10
4.719651735954268
 20
5.997962712396312
 30
0.0
  0
SEQEND
  5
276
  8
0
  6
CONTINUOUS
 62
     0
  0
POLYLINE
  5
27
  8
0
  6
CONTINUOUS
 62
     0
 66
     1
 10
0.0
 20
0.0
 30
0.0
  0
VERTEX
  5
20E
  8
0
  6
CONTINUOUS
 62
     0
 10
4.659651735954266
 20
6.247962712396311
 30
0.0
  0
VERTEX
  5
20F
  8
0
  6
CONTINUOUS
 62
     0
 10
4.719651735954268
 20
6.247962712396312
 30
0.0
  0
SEQEND
  5
277
  8
0
  6
CONTINUOUS
 62
     0
  0
POLYLINE
  5
2B
  8
0
  6
CONTINUOUS
 62
     0
 66
     1
 10
0.0
 20
0.0
 30
0.0
  0
VERTEX
  5
210
  8
0
  6
CONTINUOUS
 62
     0
 10
2.944771150644839
 20
5.997962712396312
 30
0.0
  0
VERTEX
  5
211
  8
0
  6
CONTINUOUS
 62
     0
 10
2.88477115064484
 20
5.997962712396312
 30
0.0
  0
SEQEND
  5
278
  8
0
  6
CONTINUOUS
 62
     0
  0
POLYLINE
  5
2F
  8
0
  6
CONTINUOUS
 62
     0
 66
     1
 10
0.0
 20
0.0
 30
0.0
  0
VERTEX
  5
212
  8
0
  6
CONTINUOUS
 62
     0
 10
2.944771150644839
 20
6.247962712396312
 30
0.0
  0
VERTEX
  5
213
  8
0
  6
CONTINUOUS
 62
     0
 10
2.88477115064484
 20
6.247962712396312
 30
0.0
  0
SEQEND
  5
279
  8
0
  6
CONTINUOUS
 62
     0
  0
POLYLINE
  5
33
  8
0
  6
CONTINUOUS
 62
     0
 66
     1
 10
0.0
 20
0.0
 30
0.0
  0
VERTEX
  5
214
  8
0
  6
CONTINUOUS
 62
     0
 10
3.401310694083229
 20
6.114464439704976
 30
0.0
  0
VERTEX
  5
215
  8
0
  6
CONTINUOUS
 62
     0
 10
4.203112192515875
 20
6.114464439704976
 30
0.0
  0
SEQEND
  5
27A
  8
0
  6
CONTINUOUS
 62
     0
  0
POLYLINE
  5
37
  8
0
  6
CONTINUOUS
 62
     0
 66
     1
 10
0.0
 20
0.0
 30
0.0
  0
VERTEX
  5
216
  8
0
  6
CONTINUOUS
 62
     0
 10
3.401310694083229
 20
6.084464439704977
 30
0.0
  0
VERTEX
  5
217
  8
0
  6
CONTINUOUS
 62
     0
 10
4.203112192515875
 20
6.084464439704977
 30
0.0
  0
SEQEND
  5
27B
  8
0
  6
CONTINUOUS
 62
     0
  0
POLYLINE
  5
3B
  8
0
  6
CONTINUOUS
 62
     0
 66
     1
 10
0.0
 20
0.0
 30
0.0
  0
VERTEX
  5
218
  8
0
  6
CONTINUOUS
 62
     0
 10
4.203112192515875
 20
6.114464439704976
 30
0.0
  0
VERTEX
  5
219
  8
0
  6
CONTINUOUS
 62
     0
 10
4.203112192515875
 20
6.084464439704977
 30
0.0
  0
SEQEND
  5
27C
  8
0
  6
CONTINUOUS
 62
     0
  0
POLYLINE
  5
3F
  8
0
  6
CONTINUOUS
 62
     0
 66
     1
 10
0.0
 20
0.0
 30
0.0
  0
VERTEX
  5
21A
  8
0
  6
CONTINUOUS
 62
     0
 10
3.401310694083229
 20
6.114464439704976
 30
0.0
  0
VERTEX
  5
21B
  8
0
  6
CONTINUOUS
 62
     0
 10
3.401310694083229
 20
6.084464439704977
 30
0.0
  0
SEQEND
  5
27D
  8
0
  6
CONTINUOUS
 62
     0
  0
POLYLINE
  5
43
  8
0
  6
CONTINUOUS
 62
     0
 66
     1
 10
0.0
 20
0.0
 30
0.0
  0
VERTEX
  5
21C
  8
0
  6
CONTINUOUS
 62
     0
 10
3.591562187036498
 20
5.484464439704977
 30
0.0
  0
VERTEX
  5
21D
  8
0
  6
CONTINUOUS
 62
     0
 10
3.591562187036495
 20
5.447962712396313
 30
0.0
  0
SEQEND
  5
27E
  8
0
  6
CONTINUOUS
 62
     0
  0
POLYLINE
  5
47
  8
0
  6
CONTINUOUS
 62
     0
 66
     1
 10
0.0
 20
0.0
 30
0.0
  0
VERTEX
  5
21E
  8
0
  6
CONTINUOUS
 62
     0
 10
3.691562187036496
 20
6.084464439704977
 30
0.0
  0
VERTEX
  5
21F
  8
0
  6
CONTINUOUS
 62
     0
 10
3.691562187036496
 20
5.484464439704977
 30
0.0
  0
SEQEND
  5
27F
  8
0
  6
CONTINUOUS
 62
     0
  0
POLYLINE
  5
4B
  8
0
  6
CONTINUOUS
 62
     0
 66
     1
 10
0.0
 20
0.0
 30
0.0
  0
VERTEX
  5
220
  8
0
  6
CONTINUOUS
 62
     0
 10
3.891562187036496
 20
6.084464439704977
 30
0.0
  0
VERTEX
  5
221
  8
0
  6
CONTINUOUS
 62
     0
 10
3.891562187036496
 20
5.484464439704977
 30
0.0
  0
SEQEND
  5
280
  8
0
  6
CONTINUOUS
 62
     0
  0
POLYLINE
  5
4F
  8
0
  6
CONTINUOUS
 62
     0
 66
     1
 10
0.0
 20
0.0
 30
0.0
  0
VERTEX
  5
222
  8
0
  6
CONTINUOUS
 62
     0
 10
3.991562187036496
 20
5.484464439704977
 30
0.0
  0
VERTEX
  5
223
  8
0
  6
CONTINUOUS
 62
     0
 10
3.991562187036496
 20
5.447962712396313
 30
0.0
  0
SEQEND
  5
281
  8
0
  6
CONTINUOUS
 62
     0
  0
POLYLINE
  5
53
  8
0
  6
CONTINUOUS
 62
     0
 66
     1
 10
0.0
 20
0.0
 30
0.0
  0
VERTEX
  5
224
  8
0
  6
CONTINUOUS
 62
     0
 10
3.591562187036495
 20
5.484464439704977
 30
0.0
  0
VERTEX
  5
225
  8
0
  6
CONTINUOUS
 62
     0
 10
3.991562187036496
 20
5.484464439704977
 30
0.0
  0
SEQEND
  5
282
  8
0
  6
CONTINUOUS
 62
     0
  0
POLYLINE
  5
57
  8
0
  6
CONTINUOUS
 62
     0
 66
     1
 10
0.0
 20
0.0
 30
0.0
  0
VERTEX
  5
226
  8
0
  6
CONTINUOUS
 62
     0
 10
4.719651735954268
 20
6.247962712396312
 30
0.0
  0
VERTEX
  5
227
  8
0
  6
CONTINUOUS
 62
     0
 10
4.719651735954268
 20
5.817962712396312
 30
0.0
  0
SEQEND
  5
283
  8
0
  6
CONTINUOUS
 62
     0
  0
POLYLINE
  5
5B
  8
0
  6
CONTINUOUS
 62
     0
 66
     1
 10
0.0
 20
0.0
 30
0.0
  0
VERTEX
  5
228
  8
0
  6
CONTINUOUS
 62
     0
 10
4.29965173595427
 20
5.817962712396312
 30
0.0
  0
VERTEX
  5
229
  8
0
  6
CONTINUOUS
 62
     0
 10
4.29965173595427
 20
5.447962712396313
 30
0.0
  0
SEQEND
  5
284
  8
0
  6
CONTINUOUS
 62
     0
  0
POLYLINE
  5
5F
  8
0
  6
CONTINUOUS
 62
     0
 66
     1
 10
0.0
 20
0.0
 30
0.0
  0
VERTEX
  5
22A
  8
0
  6
CONTINUOUS
 62
     0
 10
4.63965173595427
 20
5.817962712396312
 30
0.0
  0
VERTEX
  5
22B
  8
0
  6
CONTINUOUS
 62
     0
 10
4.63965173595427
 20
5.447962712396313
 30
0.0
  0
SEQEND
  5
285
  8
0
  6
CONTINUOUS
 62
     0
  0
POLYLINE
  5
63
  8
0
  6
CONTINUOUS
 62
     0
 66
     1
 10
0.0
 20
0.0
 30
0.0
  0
VERTEX
  5
22C
  8
0
  6
CONTINUOUS
 62
     0
 10
4.329651735954267
 20
5.817962712396312
 30
0.0
  0
VERTEX
  5
22D
  8
0
  6
CONTINUOUS
 62
     0
 10
4.329651735954267
 20
5.447962712396313
 30
0.0
  0
SEQEND
  5
286
  8
0
  6
CONTINUOUS
 62
     0
  0
POLYLINE
  5
67
  8
0
  6
CONTINUOUS
 62
     0
 66
     1
 10
0.0
 20
0.0
 30
0.0
  0
VERTEX
  5
22E
  8
0
  6
CONTINUOUS
 62
     0
 10
4.609651735954269
 20
5.817962712396312
 30
0.0
  0
VERTEX
  5
22F
  8
0
  6
CONTINUOUS
 62
     0
 10
4.609651735954269
 20
5.447962712396313
 30
0.0
  0
SEQEND
  5
287
  8
0
  6
CONTINUOUS
 62
     0
  0
POLYLINE
  5
6B
  8
0
  6
CONTINUOUS
 62
     0
 66
     1
 10
0.0
 20
0.0
 30
0.0
  0
VERTEX
  5
230
  8
0
  6
CONTINUOUS
 62
     0
 10
4.269651735954269
 20
5.847962712396312
 30
0.0
  0
VERTEX
  5
231
  8
0
  6
CONTINUOUS
 62
     0
 10
4.269651735954269
 20
5.817962712396312
 30
0.0
  0
SEQEND
  5
288
  8
0
  6
CONTINUOUS
 62
     0
  0
POLYLINE
  5
6F
  8
0
  6
CONTINUOUS
 62
     0
 66
     1
 10
0.0
 20
0.0
 30
0.0
  0
VERTEX
  5
232
  8
0
  6
CONTINUOUS
 62
     0
 10
4.659651735954266
 20
6.247962712396312
 30
0.0
  0
VERTEX
  5
233
  8
0
  6
CONTINUOUS
 62
     0
 10
4.659651735954269
 20
5.997962712396312
 30
0.0
  0
SEQEND
  5
289
  8
0
  6
CONTINUOUS
 62
     0
  0
POLYLINE
  5
73
  8
0
  6
CONTINUOUS
 62
     0
 66
     1
 10
0.0
 20
0.0
 30
0.0
  0
VERTEX
  5
234
  8
0
  6
CONTINUOUS
 62
     0
 10
2.944771150644839
 20
6.247962712396312
 30
0.0
  0
VERTEX
  5
235
  8
0
  6
CONTINUOUS
 62
     0
 10
2.944771150644839
 20
5.997962712396312
 30
0.0
  0
SEQEND
  5
28A
  8
0
  6
CONTINUOUS
 62
     0
  0
POLYLINE
  5
77
  8
0
  6
CONTINUOUS
 62
     0
 66
     1
 10
0.0
 20
0.0
 30
0.0
  0
VERTEX
  5
236
  8
0
  6
CONTINUOUS
 62
     0
 10
3.334771150644836
 20
5.847962712396312
 30
0.0
  0
VERTEX
  5
237
  8
0
  6
CONTINUOUS
 62
     0
 10
2.914771150644837
 20
5.847962712396312
 30
0.0
  0
SEQEND
  5
28B
  8
0
  6
CONTINUOUS
 62
     0
  0
POLYLINE
  5
7B
  8
0
  6
CONTINUOUS
 62
     0
 66
     1
 10
0.0
 20
0.0
 30
0.0
  0
VERTEX
  5
238
  8
0
  6
CONTINUOUS
 62
     0
 10
3.334771150644836
 20
5.847962712396312
 30
0.0
  0
VERTEX
  5
239
  8
0
  6
CONTINUOUS
 62
     0
 10
3.334771150644836
 20
5.817962712396312
 30
0.0
  0
SEQEND
  5
28C
  8
0
  6
CONTINUOUS
 62
     0
  0
POLYLINE
  5
7F
  8
0
  6
CONTINUOUS
 62
     0
 66
     1
 10
0.0
 20
0.0
 30
0.0
  0
VERTEX
  5
23A
  8
0
  6
CONTINUOUS
 62
     0
 10
2.994771150644836
 20
5.817962712396312
 30
0.0
  0
VERTEX
  5
23B
  8
0
  6
CONTINUOUS
 62
     0
 10
2.994771150644836
 20
5.447962712396313
 30
0.0
  0
SEQEND
  5
28D
  8
0
  6
CONTINUOUS
 62
     0
  0
POLYLINE
  5
83
  8
0
  6
CONTINUOUS
 62
     0
 66
     1
 10
0.0
 20
0.0
 30
0.0
  0
VERTEX
  5
23C
  8
0
  6
CONTINUOUS
 62
     0
 10
3.274771150644837
 20
5.817962712396312
 30
0.0
  0
VERTEX
  5
23D
  8
0
  6
CONTINUOUS
 62
     0
 10
3.274771150644837
 20
5.447962712396313
 30
0.0
  0
SEQEND
  5
28E
  8
0
  6
CONTINUOUS
 62
     0
  0
POLYLINE
  5
87
  8
0
  6
CONTINUOUS
 62
     0
 66
     1
 10
0.0
 20
0.0
 30
0.0
  0
VERTEX
  5
23E
  8
0
  6
CONTINUOUS
 62
     0
 10
2.964771150644838
 20
5.817962712396312
 30
0.0
  0
VERTEX
  5
23F
  8
0
  6
CONTINUOUS
 62
     0
 10
2.964771150644838
 20
5.447962712396313
 30
0.0
  0
SEQEND
  5
28F
  8
0
  6
CONTINUOUS
 62
     0
  0
POLYLINE
  5
8B
  8
0
  6
CONTINUOUS
 62
     0
 66
     1
 10
0.0
 20
0.0
 30
0.0
  0
VERTEX
  5
240
  8
0
  6
CONTINUOUS
 62
     0
 10
3.304771150644838
 20
5.817962712396312
 30
0.0
  0
VERTEX
  5
241
  8
0
  6
CONTINUOUS
 62
     0
 10
3.304771150644838
 20
5.447962712396313
 30
0.0
  0
SEQEND
  5
290
  8
0
  6
CONTINUOUS
 62
     0
  0
POLYLINE
  5
8F
  8
0
  6
CONTINUOUS
 62
     0
 66
     1
 10
0.0
 20
0.0
 30
0.0
  0
VERTEX
  5
242
  8
0
  6
CONTINUOUS
 62
     0
 10
2.88477115064484
 20
6.247962712396312
 30
0.0
  0
VERTEX
  5
243
  8
0
  6
CONTINUOUS
 62
     0
 10
2.88477115064484
 20
5.817962712396312
 30
0.0
  0
SEQEND
  5
291
  8
0
  6
CONTINUOUS
 62
     0
  0
POLYLINE
  5
93
  8
0
  6
CONTINUOUS
 62
     0
 66
     1
 10
0.0
 20
0.0
 30
0.0
  0
VERTEX
  5
244
  8
0
  6
CONTINUOUS
 62
     0
 10
3.334771150644836
 20
5.817962712396312
 30
0.0
  0
VERTEX
  5
245
  8
0
  6
CONTINUOUS
 62
     0
 10
2.88477115064484
 20
5.817962712396312
 30
0.0
  0
SEQEND
  5
292
  8
0
  6
CONTINUOUS
 62
     0
  0
POLYLINE
  5
97
  8
0
  6
CONTINUOUS
 62
     0
 66
     1
 10
0.0
 20
0.0
 30
0.0
  0
VERTEX
  5
246
  8
0
  6
CONTINUOUS
 62
     0
 10
3.401310694083229
 20
6.114464439704976
 30
0.0
  0
VERTEX
  5
247
  8
0
  6
CONTINUOUS
 62
     0
 10
3.401310694083229
 20
6.084464439704977
 30
0.0
  0
SEQEND
  5
293
  8
0
  6
CONTINUOUS
 62
     0
  0
POLYLINE
  5
9B
  8
0
  6
CONTINUOUS
 62
     0
 66
     1
 10
0.0
 20
0.0
 30
0.0
  0
VERTEX
  5
248
  8
0
  6
CONTINUOUS
 62
     0
 10
3.591562187036498
 20
6.247962712396312
 30
0.0
  0
VERTEX
  5
249
  8
0
  6
CONTINUOUS
 62
     0
 10
3.991562187036496
 20
6.247962712396312
 30
0.0
  0
SEQEND
  5
294
  8
0
  6
CONTINUOUS
 62
     0
  0
POLYLINE
  5
9F
  8
0
  6
CONTINUOUS
 62
     0
 66
     1
 10
0.0
 20
0.0
 30
0.0
  0
VERTEX
  5
24A
  8
0
  6
CONTINUOUS
 62
     0
 10
3.991562187036496
 20
6.247962712396312
 30
0.0
  0
VERTEX
  5
24B
  8
0
  6
CONTINUOUS
 62
     0
 10
3.991562187036496
 20
6.114464439704976
 30
0.0
  0
SEQEND
  5
295
  8
0
  6
CONTINUOUS
 62
     0
  0
POLYLINE
  5
A3
  8
0
  6
CONTINUOUS
 62
     0
 66
     1
 10
0.0
 20
0.0
 30
0.0
  0
VERTEX
  5
24C
  8
0
  6
CONTINUOUS
 62
     0
 10
3.591562187036498
 20
6.247962712396312
 30
0.0
  0
VERTEX
  5
24D
  8
0
  6
CONTINUOUS
 62
     0
 10
3.591562187036498
 20
6.114464439704976
 30
0.0
  0
SEQEND
  5
296
  8
0
  6
CONTINUOUS
 62
     0
  0
POLYLINE
  5
A7
  8
0
  6
CONTINUOUS
 62
     0
 66
     1
 10
0.0
 20
0.0
 30
0.0
  0
VERTEX
  5
24E
  8
0
  6
CONTINUOUS
 62
     0
 10
3.591562187036498
 20
5.997962712396312
 30
0.0
  0
VERTEX
  5
24F
  8
0
  6
CONTINUOUS
 62
     0
 10
3.691562187036496
 20
5.997962712396312
 30
0.0
  0
SEQEND
  5
297
  8
0
  6
CONTINUOUS
 62
     0
  0
POLYLINE
  5
AB
  8
0
  6
CONTINUOUS
 62
     0
 66
     1
 10
0.0
 20
0.0
 30
0.0
  0
VERTEX
  5
250
  8
0
  6
CONTINUOUS
 62
     0
 10
3.891562187036496
 20
5.997962712396312
 30
0.0
  0
VERTEX
  5
251
  8
0
  6
CONTINUOUS
 62
     0
 10
3.991562187036496
 20
5.997962712396312
 30
0.0
  0
SEQEND
  5
298
  8
0
  6
CONTINUOUS
 62
     0
  0
POLYLINE
  5
AF
  8
0
  6
CONTINUOUS
 62
     0
 66
     1
 10
0.0
 20
0.0
 30
0.0
  0
VERTEX
  5
252
  8
0
  6
CONTINUOUS
 62
     0
 10
3.591562187036498
 20
6.084464439704977
 30
0.0
  0
VERTEX
  5
253
  8
0
  6
CONTINUOUS
 62
     0
 10
3.591562187036498
 20
5.997962712396312
 30
0.0
  0
SEQEND
  5
299
  8
0
  6
CONTINUOUS
 62
     0
  0
POLYLINE
  5
B3
  8
0
  6
CONTINUOUS
 62
     0
 66
     1
 10
0.0
 20
0.0
 30
0.0
  0
VERTEX
  5
254
  8
0
  6
CONTINUOUS
 62
     0
 10
3.591562187036495
 20
5.847962712396313
 30
0.0
  0
VERTEX
  5
255
  8
0
  6
CONTINUOUS
 62
     0
 10
3.691562187036496
 20
5.847962712396313
 30
0.0
  0
SEQEND
  5
29A
  8
0
  6
CONTINUOUS
 62
     0
  0
POLYLINE
  5
B7
  8
0
  6
CONTINUOUS
 62
     0
 66
     1
 10
0.0
 20
0.0
 30
0.0
  0
VERTEX
  5
256
  8
0
  6
CONTINUOUS
 62
     0
 10
3.591562187036495
 20
5.817962712396312
 30
0.0
  0
VERTEX
  5
257
  8
0
  6
CONTINUOUS
 62
     0
 10
3.691562187036496
 20
5.817962712396312
 30
0.0
  0
SEQEND
  5
29B
  8
0
  6
CONTINUOUS
 62
     0
  0
POLYLINE
  5
BB
  8
0
  6
CONTINUOUS
 62
     0
 66
     1
 10
0.0
 20
0.0
 30
0.0
  0
VERTEX
  5
258
  8
0
  6
CONTINUOUS
 62
     0
 10
3.891562187036496
 20
5.847962712396312
 30
0.0
  0
VERTEX
  5
259
  8
0
  6
CONTINUOUS
 62
     0
 10
3.991562187036496
 20
5.847962712396312
 30
0.0
  0
SEQEND
  5
29C
  8
0
  6
CONTINUOUS
 62
     0
  0
POLYLINE
  5
BF
  8
0
  6
CONTINUOUS
 62
     0
 66
     1
 10
0.0
 20
0.0
 30
0.0
  0
VERTEX
  5
25A
  8
0
  6
CONTINUOUS
 62
     0
 10
4.269651735954269
 20
5.847962712396312
 30
0.0
  0
VERTEX
  5
25B
  8
0
  6
CONTINUOUS
 62
     0
 10
4.68965173595427
 20
5.847962712396312
 30
0.0
  0
SEQEND
  5
29D
  8
0
  6
CONTINUOUS
 62
     0
  0
POLYLINE
  5
C3
  8
0
  6
CONTINUOUS
 62
     0
 66
     1
 10
0.0
 20
0.0
 30
0.0
  0
VERTEX
  5
25C
  8
0
  6
CONTINUOUS
 62
     0
 10
3.891562187036496
 20
5.817962712396312
 30
0.0
  0
VERTEX
  5
25D
  8
0
  6
CONTINUOUS
 62
     0
 10
3.991562187036496
 20
5.817962712396312
 30
0.0
  0
SEQEND
  5
29E
  8
0
  6
CONTINUOUS
 62
     0
  0
POLYLINE
  5
C7
  8
0
  6
CONTINUOUS
 62
     0
 66
     1
 10
0.0
 20
0.0
 30
0.0
  0
VERTEX
  5
25E
  8
0
  6
CONTINUOUS
 62
     0
 10
4.269651735954269
 20
5.817962712396312
 30
0.0
  0
VERTEX
  5
25F
  8
0
  6
CONTINUOUS
 62
     0
 10
4.719651735954268
 20
5.817962712396312
 30
0.0
  0
SEQEND
  5
29F
  8
0
  6
CONTINUOUS
 62
     0
  0
POLYLINE
  5
CB
  8
0
  6
CONTINUOUS
 62
     0
 66
     1
 10
0.0
 20
0.0
 30
0.0
  0
VERTEX
  5
260
  8
0
  6
CONTINUOUS
 62
     0
 10
3.991562187036496
 20
6.084464439704977
 30
0.0
  0
VERTEX
  5
261
  8
0
  6
CONTINUOUS
 62
     0
 10
3.991562187036496
 20
5.997962712396312
 30
0.0
  0
SEQEND
  5
2A0
  8
0
  6
CONTINUOUS
 62
     0
  0
POLYLINE
  5
CF
  8
0
  6
CONTINUOUS
 62
     0
 66
     1
 10
0.0
 20
0.0
 30
0.0
  0
VERTEX
  5
262
  8
0
  6
CONTINUOUS
 62
     0
 10
3.991562187036496
 20
5.847962712396312
 30
0.0
  0
VERTEX
  5
263
  8
0
  6
CONTINUOUS
 62
     0
 10
3.991562187036496
 20
5.817962712396312
 30
0.0
  0
SEQEND
  5
2A1
  8
0
  6
CONTINUOUS
 62
     0
  0
POLYLINE
  5
D3
  8
0
  6
CONTINUOUS
 62
     0
 66
     1
 10
0.0
 20
0.0
 30
0.0
  0
VERTEX
  5
264
  8
0
  6
CONTINUOUS
 62
     0
 10
3.991562187036496
 20
5.484464439704977
 30
0.0
  0
VERTEX
  5
265
  8
0
  6
CONTINUOUS
 62
     0
 10
3.991562187036496
 20
5.447962712396313
 30
0.0
  0
SEQEND
  5
2A2
  8
0
  6
CONTINUOUS
 62
     0
  0
POLYLINE
  5
D7
  8
0
  6
CONTINUOUS
 62
     0
 66
     1
 10
0.0
 20
0.0
 30
0.0
  0
VERTEX
  5
266
  8
0
  6
CONTINUOUS
 62
     0
 10
3.931562187036498
 20
5.817962712396312
 30
0.0
  0
VERTEX
  5
267
  8
0
  6
CONTINUOUS
 62
     0
 10
3.931562187036498
 20
5.484464439704977
 30
0.0
  0
SEQEND
  5
2A3
  8
0
  6
CONTINUOUS
 62
     0
  0
POLYLINE
  5
DB
  8
0
  6
CONTINUOUS
 62
     0
 66
     1
 10
0.0
 20
0.0
 30
0.0
  0
VERTEX
  5
268
  8
0
  6
CONTINUOUS
 62
     0
 10
3.961562187036496
 20
5.817962712396312
 30
0.0
  0
VERTEX
  5
269
  8
0
  6
CONTINUOUS
 62
     0
 10
3.961562187036499
 20
5.484464439704977
 30
0.0
  0
SEQEND
  5
2A4
  8
0
  6
CONTINUOUS
 62
     0
  0
POLYLINE
  5
DF
  8
0
  6
CONTINUOUS
 62
     0
 66
     1
 10
0.0
 20
0.0
 30
0.0
  0
VERTEX
  5
26A
  8
0
  6
CONTINUOUS
 62
     0
 10
3.591562187036495
 20
5.847962712396313
 30
0.0
  0
VERTEX
  5
26B
  8
0
  6
CONTINUOUS
 62
     0
 10
3.591562187036495
 20
5.817962712396312
 30
0.0
  0
SEQEND
  5
2A5
  8
0
  6
CONTINUOUS
 62
     0
  0
POLYLINE
  5
E3
  8
0
  6
CONTINUOUS
 62
     0
 66
     1
 10
0.0
 20
0.0
 30
0.0
  0
VERTEX
  5
26C
  8
0
  6
CONTINUOUS
 62
     0
 10
3.591562187036495
 20
5.484464439704977
 30
0.0
  0
VERTEX
  5
26D
  8
0
  6
CONTINUOUS
 62
     0
 10
3.591562187036495
 20
5.447962712396313
 30
0.0
  0
SEQEND
  5
2A6
  8
0
  6
CONTINUOUS
 62
     0
  0
POLYLINE
  5
E7
  8
0
  6
CONTINUOUS
 62
     0
 66
     1
 10
0.0
 20
0.0
 30
0.0
  0
VERTEX
  5
26E
  8
0
  6
CONTINUOUS
 62
     0
 10
3.621562187036496
 20
5.817962712396312
 30
0.0
  0
VERTEX
  5
26F
  8
0
  6
CONTINUOUS
 62
     0
 10
3.621562187036496
 20
5.484464439704977
 30
0.0
  0
SEQEND
  5
2A7
  8
0
  6
CONTINUOUS
 62
     0
  0
POLYLINE
  5
EB
  8
0
  6
CONTINUOUS
 62
     0
 66
     1
 10
0.0
 20
0.0
 30
0.0
  0
VERTEX
  5
270
  8
0
  6
CONTINUOUS
 62
     0
 10
3.651562187036497
 20
5.817962712396312
 30
0.0
  0
VERTEX
  5
271
  8
0
  6
CONTINUOUS
 62
     0
 10
3.651562187036497
 20
5.484464439704977
 30
0.0
  0
SEQEND
  5
2A8
  8
0
  6
CONTINUOUS
 62
     0
  0
POLYLINE
  5
EF
  8
0
  6
CONTINUOUS
 62
     0
 66
     1
 10
0.0
 20
0.0
 30
0.0
  0
VERTEX
  5
272
  8
0
  6
CONTINUOUS
 62
     0
 10
2.914771150644837
 20
5.997962712396312
 30
0.0
  0
VERTEX
  5
273
  8
0
  6
CONTINUOUS
 62
     0
 10
2.914771150644837
 20
5.817962712396312
 30
0.0
  0
SEQEND
  5
2A9
  8
0
  6
CONTINUOUS
 62
     0
  0
POLYLINE
  5
F3
  8
0
  6
CONTINUOUS
 62
     0
 66
     1
 10
0.0
 20
0.0
 30
0.0
  0
VERTEX
  5
274
  8
0
  6
CONTINUOUS
 62
     0
 10
4.689651735954267
 20
5.997962712396312
 30
0.0
  0
VERTEX
  5
275
  8
0
  6
CONTINUOUS
 62
     0
 10
4.689651735954267
 20
5.817962712396312
 30
0.0
  0
SEQEND
  5
2AA
  8
0
  6
CONTINUOUS
 62
     0
  0
LINE
  5
F7
  8
0
  6
CONTINUOUS
 62
     0
 10
2.964771150644838
 20
5.447962712396313
 30
0.0
 11
2.994771150644836
 21
5.447962712396313
 31
0.0
  0
LINE
  5
F8
  8
0
  6
CONTINUOUS
 62
     0
 10
3.274771150644837
 20
5.447962712396313
 30
0.0
 11
3.304771150644838
 21
5.447962712396313
 31
0.0
  0
LINE
  5
F9
  8
0
  6
CONTINUOUS
 62
     0
 10
3.591562187036495
 20
5.447962712396313
 30
0.0
 11
3.991562187036496
 21
5.447962712396313
 31
0.0
  0
LINE
  5
FA
  8
0
  6
CONTINUOUS
 62
     0
 10
4.29965173595427
 20
5.447962712396313
 30
0.0
 11
4.329651735954264
 21
5.447962712396313
 31
0.0
  0
LINE
  5
FB
  8
0
  6
CONTINUOUS
 62
     0
 10
4.609651735954269
 20
5.447962712396313
 30
0.0
 11
4.63965173595427
 21
5.447962712396313
 31
0.0
  0
ENDSEC
  0
EOF
