  0
SECTION
  2
HEADER
  9
$ACADVER
  1
AC1009
  9
$DWGCODEPAGE
  3
ansi_1252
  9
$INSBASE
 10
97.14852296238139
 20
33.33934186317333
 30
0.0
  9
$EXTMIN
 10
97.07750362589744
 20
33.29359403273768
 30
0.0
  9
$EXTMAX
 10
97.1850367754574
 20
33.5724385775598
 30
0.0
  9
$LIMMIN
 10
0.0
 20
0.0
  9
$LIMMAX
 10
297.0
 20
210.0
  9
$ORTHOMODE
 70
     0
  9
$REGENMODE
 70
     1
  9
$FILLMODE
 70
     1
  9
$QTEXTMODE
 70
     0
  9
$MIRRTEXT
 70
     1
  9
$DRAGMODE
 70
     2
  9
$LTSCALE
 40
0.111870608676944
  9
$OSMODE
 70
    37
  9
$ATTMODE
 70
     1
  9
$TEXTSIZE
 40
0.0
  9
$TRACEWID
 40
0.05
  9
$TEXTSTYLE
  7
STANDARD
  9
$CLAYER
  8
0
  9
$CELTYPE
  6
CONTINUOUS
  9
$CECOLOR
 62
   256
  9
$DIMSCALE
 40
1.0
  9
$DIMASZ
 40
0.0
  9
$DIMEXO
 40
0.0999999940395355
  9
$DIMDLI
 40
10.0
  9
$DIMRND
 40
0.0
  9
$DIMDLE
 40
0.0
  9
$DIMEXE
 40
1.800000071525574
  9
$DIMTP
 40
0.0
  9
$DIMTM
 40
0.0
  9
$DIMTXT
 40
0.18
  9
$DIMCEN
 40
0.0
  9
$DIMTSZ
 40
0.0
  9
$DIMTOL
 70
     0
  9
$DIMLIM
 70
     0
  9
$DIMTIH
 70
     1
  9
$DIMTOH
 70
     1
  9
$DIMSE1
 70
     0
  9
$DIMSE2
 70
     0
  9
$DIMTAD
 70
     0
  9
$DIMZIN
 70
     0
  9
$DIMBLK
  1

  9
$DIMASO
 70
     1
  9
$DIMSHO
 70
     1
  9
$DIMPOST
  1

  9
$DIMAPOST
  1

  9
$DIMALT
 70
     0
  9
$DIMALTD
 70
     2
  9
$DIMALTF
 40
25.4
  9
$DIMLFAC
 40
1.0
  9
$DIMTOFL
 70
     0
  9
$DIMTVP
 40
0.0
  9
$DIMTIX
 70
     0
  9
$DIMSOXD
 70
     0
  9
$DIMSAH
 70
     0
  9
$DIMBLK1
  1

  9
$DIMBLK2
  1

  9
$DIMSTYLE
  2
STANDARD
  9
$DIMCLRD
 70
     0
  9
$DIMCLRE
 70
     0
  9
$DIMCLRT
 70
     0
  9
$DIMTFAC
 40
1.0
  9
$DIMGAP
 40
0.09
  9
$LUNITS
 70
     2
  9
$LUPREC
 70
     6
  9
$SKETCHINC
 40
0.1
  9
$FILLETRAD
 40
0.0
  9
$AUNITS
 70
     1
  9
$AUPREC
 70
     6
  9
$MENU
  1
acad
  9
$ELEVATION
 40
0.0
  9
$PELEVATION
 40
0.0
  9
$THICKNESS
 40
0.0
  9
$LIMCHECK
 70
     0
  9
$CHAMFERA
 40
0.0
  9
$CHAMFERB
 40
0.0
  9
$SKPOLY
 70
     0
  9
$TDCREATE
 40
2452524.490138889
  9
$TDUPDATE
 40
2458028.613993056
  9
$TDINDWG
 40
0.0022716204
  9
$TDUSRTIMER
 40
0.0022716204
  9
$USRTIMER
 70
     1
  9
$ANGBASE
 50
0.0
  9
$ANGDIR
 70
     0
  9
$PDMODE
 70
     2
  9
$PDSIZE
 40
1.0
  9
$PLINEWID
 40
0.0
  9
$COORDS
 70
     1
  9
$SPLFRAME
 70
     0
  9
$SPLINETYPE
 70
     6
  9
$SPLINESEGS
 70
     8
  9
$ATTDIA
 70
     0
  9
$ATTREQ
 70
     1
  9
$HANDLING
 70
     1
  9
$HANDSEED
  5
C46
  9
$SURFTAB1
 70
     6
  9
$SURFTAB2
 70
     6
  9
$SURFTYPE
 70
     6
  9
$SURFU
 70
     6
  9
$SURFV
 70
     6
  9
$UCSNAME
  2

  9
$UCSORG
 10
0.0
 20
0.0
 30
0.0
  9
$UCSXDIR
 10
1.0
 20
0.0
 30
0.0
  9
$UCSYDIR
 10
0.0
 20
1.0
 30
0.0
  9
$PUCSNAME
  2

  9
$PUCSORG
 10
0.0
 20
0.0
 30
0.0
  9
$PUCSXDIR
 10
1.0
 20
0.0
 30
0.0
  9
$PUCSYDIR
 10
0.0
 20
1.0
 30
0.0
  9
$USERI1
 70
     0
  9
$USERI2
 70
     0
  9
$USERI3
 70
     0
  9
$USERI4
 70
     0
  9
$USERI5
 70
     0
  9
$USERR1
 40
0.0
  9
$USERR2
 40
0.0
  9
$USERR3
 40
0.0
  9
$USERR4
 40
0.0
  9
$USERR5
 40
0.0
  9
$WORLDVIEW
 70
     1
  9
$SHADEDGE
 70
     3
  9
$SHADEDIF
 70
    70
  9
$TILEMODE
 70
     1
  9
$MAXACTVP
 70
    16
  9
$PLIMCHECK
 70
     0
  9
$PEXTMIN
 10
1.000000000000000E+20
 20
1.000000000000000E+20
 30
1.000000000000000E+20
  9
$PEXTMAX
 10
-1.000000000000000E+20
 20
-1.000000000000000E+20
 30
-1.000000000000000E+20
  9
$PLIMMIN
 10
0.0
 20
0.0
  9
$PLIMMAX
 10
297.0
 20
210.0
  9
$UNITMODE
 70
     0
  9
$VISRETAIN
 70
     0
  9
$PLINEGEN
 70
     1
  9
$PSLTSCALE
 70
     0
  0
ENDSEC
  0
SECTION
  2
TABLES
  0
TABLE
  2
VPORT
 70
     1
  0
VPORT
  2
*ACTIVE
 70
     0
 10
0.0
 20
0.0
 11
1.0
 21
1.0
 12
97.13127020067742
 22
33.45146917920179
 13
0.0
 23
0.0
 14
1.0
 24
1.0
 15
0.0
 25
0.0
 16
0.0
 26
0.0
 36
1.0
 17
0.0
 27
0.0
 37
0.0
 40
0.3188413634143064
 41
1.503537735849057
 42
50.0
 43
0.0
 44
0.0
 50
0.0
 51
0.0
 71
     0
 72
   100
 73
     1
 74
     1
 75
     0
 76
     0
 77
     0
 78
     0
  0
ENDTAB
  0
TABLE
  2
LTYPE
 70
     3
  0
LTYPE
  2
CONTINUOUS
 70
     0
  3
Solid line
 72
    65
 73
     0
 40
0.0
  0
LTYPE
  2
CONTINU
 70
     0
  3

 72
    65
 73
     0
 40
0.0
  0
LTYPE
  2
AXES
 70
     0
  3

 72
    65
 73
     4
 40
0.5400000065565109
 49
0.300000011920929
 49
-0.0799999982118607
 49
0.0799999982118607
 49
-0.0799999982118607
  0
ENDTAB
  0
TABLE
  2
LAYER
 70
     1
  0
LAYER
  2
0
 70
     0
 62
     7
  6
CONTINUOUS
  0
ENDTAB
  0
TABLE
  2
STYLE
 70
     1
  0
STYLE
  2
STANDARD
 70
     0
 40
0.0
 41
1.0
 50
0.0
 71
     0
 42
0.0
  3
txt
  4

  0
ENDTAB
  0
TABLE
  2
VIEW
 70
     0
  0
ENDTAB
  0
TABLE
  2
UCS
 70
     0
  0
ENDTAB
  0
TABLE
  2
APPID
 70
     2
  0
APPID
  2
ACAD
 70
     0
  0
APPID
  2
DCO15
 70
     0
  0
ENDTAB
  0
TABLE
  2
DIMSTYLE
 70
     1
  0
DIMSTYLE
  2
STANDARD
 70
     0
  3

  4

  5

  6

  7

 40
1.0
 41
0.0
 42
0.0999999940395355
 43
10.0
 44
1.800000071525574
 45
0.0
 46
0.0
 47
0.0
 48
0.0
140
0.18
141
0.0
142
0.0
143
25.4
144
1.0
145
0.0
146
1.0
147
0.09
 71
     0
 72
     0
 73
     1
 74
     1
 75
     0
 76
     0
 77
     0
 78
     0
170
     0
171
     2
172
     0
173
     0
174
     0
175
     0
176
     0
177
     0
178
     0
  0
ENDTAB
  0
ENDSEC
  0
SECTION
  2
BLOCKS
  0
BLOCK
  8
0
  2
$MODEL_SPACE
 70
     0
 10
0.0
 20
0.0
 30
0.0
  3
$MODEL_SPACE
  1

  0
ENDBLK
  5
E
  8
0
  0
BLOCK
 67
     1
  8
0
  2
$PAPER_SPACE
 70
     0
 10
0.0
 20
0.0
 30
0.0
  3
$PAPER_SPACE
  1

  0
ENDBLK
  5
10
 67
     1
  8
0
  0
BLOCK
  8
0
  2
BLK0
 70
     0
 10
0.0
 20
0.0
 30
0.0
  3
BLK0
  1

  0
LINE
  5
4DC
  8
0
  6
CONTINU
 62
     2
 10
30.3914680480957
 20
49.94513320922852
 30
0.0
 11
24.04144859313965
 21
49.94513702392578
 31
0.0
  0
LINE
  5
4DD
  8
0
  6
CONTINU
 62
     2
 10
23.82143783569336
 20
36.44247817993164
 30
0.0
 11
23.82143783569336
 21
39.34524917602539
 31
0.0
  0
LINE
  5
4DE
  8
0
  6
CONTINU
 62
     2
 10
36.96145248413086
 20
36.44247817993164
 30
0.0
 11
36.96145248413086
 21
39.34552383422852
 31
0.0
  0
LINE
  5
4DF
  8
0
  6
CONTINU
 62
     2
 10
35.90647125244141
 20
31.72340393066406
 30
0.0
 11
36.43162155151367
 21
31.92439651489258
 31
0.0
  0
LINE
  5
4E0
  8
0
  6
CONTINU
 62
     2
 10
24.38540840148926
 20
35.93439483642578
 30
0.0
 11
30.39144706726074
 21
35.93071365356445
 31
0.0
  0
LINE
  5
4E1
  8
0
  6
CONTINU
 62
     2
 10
30.39148712158203
 20
35.92795562744141
 30
0.0
 11
36.43547821044922
 21
35.92295837402344
 31
0.0
  0
LINE
  5
4E2
  8
0
  6
CONTINU
 62
     2
 10
24.90645027160645
 20
31.73385620117188
 30
0.0
 11
35.90637969970703
 21
31.72334480285645
 31
0.0
  0
LINE
  5
4E3
  8
0
  6
CONTINU
 62
     2
 10
24.38170433044434
 20
31.93604469299316
 30
0.0
 11
24.90654373168945
 21
31.73406982421875
 31
0.0
  0
LINE
  5
4E4
  8
0
  6
CONTINU
 62
     2
 10
24.38549995422363
 20
35.93448638916016
 30
0.0
 11
24.38164329528809
 21
31.93598365783691
 31
0.0
  0
LINE
  5
4E5
  8
0
  6
CONTINU
 62
     2
 10
24.81099700927734
 20
36.44248199462891
 30
0.0
 11
24.81044006347656
 21
35.93410491943359
 31
0.0
  0
LINE
  5
4E6
  8
0
  6
CONTINU
 62
     2
 10
36.43550872802734
 20
35.92283630371094
 30
0.0
 11
36.43159103393555
 21
31.92436599731445
 31
0.0
  0
LINE
  5
4E7
  8
0
  6
CONTINU
 62
     2
 10
36.01097869873047
 20
36.44247817993164
 30
0.0
 11
36.01054000854492
 21
35.92337036132812
 31
0.0
  0
LINE
  5
4E8
  8
0
  6
CONTINU
 62
     2
 10
23.82143783569336
 20
36.44247817993164
 30
0.0
 11
30.3914680480957
 21
36.44247817993164
 31
0.0
  0
LINE
  5
4E9
  8
0
  6
CONTINU
 62
     2
 10
30.3914680480957
 20
36.44247817993164
 30
0.0
 11
36.96145248413086
 21
36.44247817993164
 31
0.0
  0
ARC
  5
4EA
  8
0
  6
CONTINU
 62
     2
 10
-27.64144515991211
 20
43.49829483032227
 30
0.0
 40
0.7500519752502441
 50
128.6821136474609
 51
-179.9999237060547
210
0.0
220
0.0
230
-1.0
  0
ARC
  5
4EB
  8
0
  6
CONTINU
 62
     2
 10
33.14144515991211
 20
43.49829483032227
 30
0.0
 40
0.750012993812561
 50
128.6767272949219
 51
-179.9958648681641
  0
ARC
  5
4EC
  8
0
  6
CONTINU
 62
     2
 10
-33.14144515991211
 20
42.41675186157227
 30
0.0
 40
0.7499619722366333
 50
-59.99822998046876
 51
0.0000919313315535
210
0.0
220
0.0
230
-1.0
  0
ARC
  5
4ED
  8
0
  6
CONTINU
 62
     2
 10
-35.04146957397461
 20
45.54516983032227
 30
0.0
 40
1.0
 50
-179.9999237060547
 51
-90.0
210
0.0
220
0.0
230
-1.0
  0
ARC
  5
4EE
  8
0
  6
CONTINU
 62
     2
 10
-30.39144515991211
 20
46.93304824829102
 30
0.0
 40
3.650012969970703
 50
-139.1398773193359
 51
-128.682861328125
210
0.0
220
0.0
230
-1.0
  0
ARC
  5
4EF
  8
0
  6
CONTINU
 62
     2
 10
-27.64144515991211
 20
42.41675186157227
 30
0.0
 40
0.75
 50
-179.9999237060547
 51
-119.999252319336
210
0.0
220
0.0
230
-1.0
  0
ARC
  5
4F0
  8
0
  6
CONTINU
 62
     2
 10
-25.74148178100586
 20
45.54516983032227
 30
0.0
 40
1.0
 50
-90.0
 51
0.0000937218137551
210
0.0
220
0.0
230
-1.0
  0
ARC
  5
4F1
  8
0
  6
CONTINU
 62
     2
 10
30.39144515991211
 20
46.93304824829102
 30
0.0
 40
3.650012969970703
 50
-139.1386108398438
 51
-128.6815032958985
  0
LINE
  5
4F2
  8
0
  6
CONTINU
 62
     2
 10
36.54146957397461
 20
48.94513320922852
 30
0.0
 11
36.04128646850586
 21
49.44501113891602
 31
0.0
  0
LINE
  5
4F3
  8
0
  6
CONTINU
 62
     2
 10
24.74132919311523
 20
45.79480361938477
 30
0.0
 11
24.24135971069336
 21
46.29498672485352
 31
0.0
  0
LINE
  5
4F4
  8
0
  6
CONTINU
 62
     2
 10
36.96145248413086
 20
39.34552383422852
 30
0.0
 11
32.76641464233398
 21
41.76733779907227
 31
0.0
  0
LINE
  5
4F5
  8
0
  6
CONTINU
 62
     2
 10
36.54153060913086
 20
46.29492568969727
 30
0.0
 11
36.04146957397461
 21
45.79474258422852
 31
0.0
  0
LINE
  5
4F6
  8
0
  6
CONTINU
 62
     2
 10
24.74151229858398
 20
49.44464492797852
 30
0.0
 11
24.24154281616211
 21
48.94488906860352
 31
0.0
  0
LINE
  5
4F7
  8
0
  6
CONTINU
 62
     2
 10
28.01644515991211
 20
41.76733779907227
 30
0.0
 11
23.82143783569336
 21
39.34524917602539
 31
0.0
  0
LINE
  5
4F8
  8
0
  6
CONTINU
 62
     3
 10
36.29146957397461
 20
46.04516983032227
 30
0.0
 11
36.29146957397461
 21
49.19513320922852
 31
0.0
  0
LINE
  5
4F9
  8
0
  6
CONTINU
 62
     2
 10
32.39144515991211
 20
42.41675186157227
 30
0.0
 11
32.39144515991211
 21
43.49829483032227
 31
0.0
  0
LINE
  5
4FA
  8
0
  6
CONTINU
 62
     2
 10
28.39144515991211
 20
42.41675186157227
 30
0.0
 11
28.39144515991211
 21
43.49829483032227
 31
0.0
  0
LINE
  5
4FB
  8
0
  6
CONTINU
 62
     2
 10
24.74148178100586
 20
45.54516983032227
 30
0.0
 11
24.74148178100586
 21
45.79516983032227
 31
0.0
  0
LINE
  5
4FC
  8
0
  6
CONTINU
 62
     2
 10
24.24148178100586
 20
46.29516983032227
 30
0.0
 11
24.24148178100586
 21
48.94513320922852
 31
0.0
  0
LINE
  5
4FD
  8
0
  6
CONTINU
 62
     3
 10
24.49148178100586
 20
46.04516983032227
 30
0.0
 11
24.49148178100586
 21
49.19513320922852
 31
0.0
  0
LINE
  5
4FE
  8
0
  6
CONTINU
 62
     2
 10
36.04146957397461
 20
45.54516983032227
 30
0.0
 11
36.04146957397461
 21
45.79516983032227
 31
0.0
  0
LINE
  5
4FF
  8
0
  6
CONTINU
 62
     2
 10
36.54146957397461
 20
46.29516983032227
 30
0.0
 11
36.54146957397461
 21
48.94513320922852
 31
0.0
  0
LINE
  5
500
  8
0
  6
CONTINU
 62
     2
 10
35.04146957397461
 20
44.54516983032227
 30
0.0
 11
30.3914680480957
 21
44.54516983032227
 31
0.0
  0
LINE
  5
501
  8
0
  6
CONTINU
 62
     2
 10
30.3914680480957
 20
44.54516983032227
 30
0.0
 11
25.74148178100586
 21
44.54516983032227
 31
0.0
  0
LINE
  5
502
  8
0
  6
CONTINU
 62
     2
 10
30.39146041870117
 20
49.94513320922852
 30
0.0
 11
36.7414436340332
 21
49.94513320922852
 31
0.0
  0
LINE
  5
503
  8
0
  6
CONTINU
 62
     2
 10
36.04128646850586
 20
49.44501113891602
 30
0.0
 11
36.04128646850586
 21
49.94512557983398
 31
0.0
  0
LINE
  5
504
  8
0
  6
CONTINU
 62
     2
 10
24.74160766601562
 20
49.44501113891602
 30
0.0
 11
24.74160766601562
 21
49.94512557983398
 31
0.0
  0
LINE
  5
505
  8
0
  6
CONTINU
 62
     2
 10
24.74160766601562
 20
49.94513320922852
 30
0.0
 11
24.04144859313965
 21
49.94513320922852
 31
0.0
  0
ENDBLK
  5
506
  8
0
  0
ENDSEC
  0
SECTION
  2
ENTITIES
  0
POLYLINE
  5
1E1
  8
0
  6
CONTINU
 66
     1
 10
0.0
 20
0.0
 30
0.0
 70
     1
  0
VERTEX
  5
8AD
  8
0
  6
CONTINU
 10
97.14852313003416
 20
33.38682751554097
 30
0.0
  0
VERTEX
  5
8AE
  8
0
  6
CONTINU
 10
97.15418504603282
 20
33.38752999207743
 30
0.0
  0
VERTEX
  5
8AF
  8
0
  6
CONTINU
 10
97.15900952120502
 20
33.38945986978299
 30
0.0
  0
VERTEX
  5
8B0
  8
0
  6
CONTINU
 10
97.16258287234119
 20
33.39230607465865
 30
0.0
  0
VERTEX
  5
8B1
  8
0
  6
CONTINU
 10
97.16465268295521
 20
33.39572195221532
 30
0.0
  0
VERTEX
  5
8B2
  8
0
  6
CONTINU
 10
97.16511866620837
 20
33.39935233006013
 30
0.0
  0
VERTEX
  5
8B3
  8
0
  6
CONTINU
 10
97.16401898596757
 20
33.4028569702327
 30
0.0
  0
VERTEX
  5
8B4
  8
0
  6
CONTINU
 10
97.16151309525807
 20
33.40593043558216
 30
0.0
  0
VERTEX
  5
8B5
  8
0
  6
CONTINU
 10
97.1578610921111
 20
33.40831831350657
 30
0.0
  0
VERTEX
  5
8B6
  8
0
  6
CONTINU
 10
97.15340085782252
 20
33.40982986516393
 30
0.0
  0
VERTEX
  5
8B7
  8
0
  6
CONTINU
 10
97.14852313003416
 20
33.41034703305777
 30
0.0
  0
VERTEX
  5
8B8
  8
0
  6
CONTINU
 10
97.14364540986638
 20
33.40982986516393
 30
0.0
  0
VERTEX
  5
8B9
  8
0
  6
CONTINU
 10
97.13918517557781
 20
33.40831831350657
 30
0.0
  0
VERTEX
  5
8BA
  8
0
  6
CONTINU
 10
97.13553317243084
 20
33.40593043558216
 30
0.0
  0
VERTEX
  5
8BB
  8
0
  6
CONTINU
 10
97.13302727410077
 20
33.4028569702327
 30
0.0
  0
VERTEX
  5
8BC
  8
0
  6
CONTINU
 10
97.13192760910113
 20
33.39935233006013
 30
0.0
  0
VERTEX
  5
8BD
  8
0
  6
CONTINU
 10
97.13239357711312
 20
33.39572195221532
 30
0.0
  0
VERTEX
  5
8BE
  8
0
  6
CONTINU
 10
97.13446339534771
 20
33.39230607465865
 30
0.0
  0
VERTEX
  5
8BF
  8
0
  6
CONTINU
 10
97.13803674648389
 20
33.38945986978299
 30
0.0
  0
VERTEX
  5
8C0
  8
0
  6
CONTINU
 10
97.14286122165609
 20
33.38752999207743
 30
0.0
  0
SEQEND
  5
B2B
  8
0
  6
CONTINU
  0
POLYLINE
  5
1F8
  8
0
  6
CONTINU
 66
     1
 10
0.0
 20
0.0
 30
0.0
  0
VERTEX
  5
8C1
  8
0
  6
CONTINU
 10
97.13189237153713
 20
33.39796457854241
 30
0.0
  0
VERTEX
  5
8C2
  8
0
  6
CONTINU
 10
97.13262772706794
 20
33.3945064677289
 30
0.0
  0
VERTEX
  5
8C3
  8
0
  6
CONTINU
 10
97.1346920584846
 20
33.39143465747426
 30
0.0
  0
VERTEX
  5
8C4
  8
0
  6
CONTINU
 10
97.13783900766245
 20
33.38895269348222
 30
0.0
  0
VERTEX
  5
8C5
  8
0
  6
CONTINU
 10
97.1417855005202
 20
33.38721324074601
 30
0.0
  0
VERTEX
  5
8C6
  8
0
  6
CONTINU
 10
97.14622221769753
 20
33.38631807211752
 30
0.0
  0
VERTEX
  5
8C7
  8
0
  6
CONTINU
 10
97.15082408809428
 20
33.38631807592781
 30
0.0
  0
VERTEX
  5
8C8
  8
0
  6
CONTINU
 10
97.15526079765102
 20
33.38721325217688
 30
0.0
  0
VERTEX
  5
8C9
  8
0
  6
CONTINU
 10
97.1592072828882
 20
33.38895271062852
 30
0.0
  0
VERTEX
  5
8CA
  8
0
  6
CONTINU
 10
97.16235422444547
 20
33.39143467652571
 30
0.0
  0
VERTEX
  5
8CB
  8
0
  6
CONTINU
 10
97.16441854824156
 20
33.39450648678035
 30
0.0
  0
VERTEX
  5
8CC
  8
0
  6
CONTINU
 10
97.1651538885312
 20
33.39796459092586
 30
0.0
  0
SEQEND
  5
B2C
  8
0
  6
CONTINU
  0
POLYLINE
  5
206
  8
0
  6
CONTINU
 66
     1
 10
0.0
 20
0.0
 30
0.0
  0
VERTEX
  5
8CD
  8
0
  6
CONTINU
 10
97.16836637155218
 20
33.36447728371647
 30
0.0
  0
VERTEX
  5
8CE
  8
0
  6
CONTINU
 10
97.16654110851341
 20
33.36034508592365
 30
0.0
  0
VERTEX
  5
8CF
  8
0
  6
CONTINU
 10
97.16316293568364
 20
33.35688726278705
 30
0.0
  0
VERTEX
  5
8D0
  8
0
  6
CONTINU
 10
97.15855685872648
 20
33.35430353546887
 30
0.0
  0
SEQEND
  5
B2D
  8
0
  6
CONTINU
  0
POLYLINE
  5
20C
  8
0
  6
CONTINU
 66
     1
 10
0.0
 20
0.0
 30
0.0
  0
VERTEX
  5
8D1
  8
0
  6
CONTINU
 10
97.15855685872648
 20
33.35430353546887
 30
0.0
  0
VERTEX
  5
8D2
  8
0
  6
CONTINU
 10
97.15185043548945
 20
33.35259886877726
 30
0.0
  0
VERTEX
  5
8D3
  8
0
  6
CONTINU
 10
97.14494018458721
 20
33.35263048275524
 30
0.0
  0
VERTEX
  5
8D4
  8
0
  6
CONTINU
 10
97.13848949278882
 20
33.35430364215699
 30
0.0
  0
SEQEND
  5
B2E
  8
0
  6
CONTINU
  0
POLYLINE
  5
212
  8
0
  6
CONTINU
 66
     1
 10
0.0
 20
0.0
 30
0.0
  0
VERTEX
  5
8D5
  8
0
  6
CONTINU
 10
97.13848949278882
 20
33.35430364215699
 30
0.0
  0
VERTEX
  5
8D6
  8
0
  6
CONTINU
 10
97.13371621267606
 20
33.35701475509792
 30
0.0
  0
VERTEX
  5
8D7
  8
0
  6
CONTINU
 10
97.13039837198168
 20
33.36050157073283
 30
0.0
  0
VERTEX
  5
8D8
  8
0
  6
CONTINU
 10
97.1286797862999
 20
33.36447727327544
 30
0.0
  0
SEQEND
  5
B2F
  8
0
  6
CONTINU
  0
POLYLINE
  5
218
  8
0
  6
CONTINU
 66
     1
 10
0.0
 20
0.0
 30
0.0
  0
VERTEX
  5
8D9
  8
0
  6
CONTINU
 10
97.16307437039703
 20
33.36565198257606
 30
0.0
 42
0.0413109416192308
  0
VERTEX
  5
8DA
  8
0
  6
CONTINU
 10
97.16390327507406
 20
33.3634741457889
 30
0.0
 42
0.1086798811542093
  0
VERTEX
  5
8DB
  8
0
  6
CONTINU
 10
97.16482262189918
 20
33.36222329228348
 30
0.0
 42
0.2069241013061425
  0
VERTEX
  5
8DC
  8
0
  6
CONTINU
 10
97.1656288945516
 20
33.36198704666905
 30
0.0
 42
0.1619279299453021
  0
VERTEX
  5
8DD
  8
0
  6
CONTINU
 10
97.16669800102366
 20
33.36277351724319
 30
0.0
  0
SEQEND
  5
B30
  8
0
  6
CONTINU
  0
POLYLINE
  5
23C
  8
0
  6
CONTINU
 66
     1
 10
0.0
 20
0.0
 30
0.0
  0
VERTEX
  5
8DE
  8
0
  6
CONTINU
 10
97.16307437039703
 20
33.36565198257606
 30
0.0
 42
-0.0347515123731044
  0
VERTEX
  5
8DF
  8
0
  6
CONTINU
 10
97.16000606451006
 20
33.36415200785051
 30
0.0
  0
SEQEND
  5
B31
  8
0
  6
CONTINU
  0
POLYLINE
  5
242
  8
0
  6
CONTINU
 66
     1
 10
0.0
 20
0.0
 30
0.0
  0
VERTEX
  5
8E0
  8
0
  6
CONTINU
 10
97.16669800102366
 20
33.36277351724319
 30
0.0
 42
0.0566618417219631
  0
VERTEX
  5
8E1
  8
0
  6
CONTINU
 10
97.16780777091297
 20
33.36469451697253
 30
0.0
 42
0.0217738710552178
  0
VERTEX
  5
8E2
  8
0
  6
CONTINU
 10
97.16873935639028
 20
33.36704501261585
 30
0.0
 42
0.022860337046902
  0
VERTEX
  5
8E3
  8
0
  6
CONTINU
 10
97.17118642346875
 20
33.37558995658502
 30
0.0
  0
SEQEND
  5
B32
  8
0
  6
CONTINU
  0
POLYLINE
  5
263
  8
0
  6
CONTINU
 66
     1
 10
0.0
 20
0.0
 30
0.0
  0
VERTEX
  5
8E4
  8
0
  6
CONTINU
 10
97.17118642346875
 20
33.37558995658502
 30
0.0
  0
VERTEX
  5
8E5
  8
0
  6
CONTINU
 10
97.17142478797511
 20
33.37700210875119
 30
0.0
  0
SEQEND
  5
B33
  8
0
  6
CONTINU
  0
POLYLINE
  5
269
  8
0
  6
CONTINU
 66
     1
 10
0.0
 20
0.0
 30
0.0
  0
VERTEX
  5
8E6
  8
0
  6
CONTINU
 10
97.14041143365984
 20
33.36302304933964
 30
0.0
 42
0.0291921786742522
  0
VERTEX
  5
8E7
  8
0
  6
CONTINU
 10
97.14248812565799
 20
33.35965900887631
 30
0.0
 42
0.049870014759425
  0
VERTEX
  5
8E8
  8
0
  6
CONTINU
 10
97.14462156049815
 20
33.35716186278287
 30
0.0
 42
0.0647581094958581
  0
VERTEX
  5
8E9
  8
0
  6
CONTINU
 10
97.14638313387424
 20
33.35587730345014
 30
0.0
 42
0.1137517091042443
  0
VERTEX
  5
8EA
  8
0
  6
CONTINU
 10
97.14852296238139
 20
33.35532875213672
 30
0.0
  0
SEQEND
  5
B34
  8
0
  6
CONTINU
  0
POLYLINE
  5
28D
  8
0
  6
CONTINU
 66
     1
 10
0.0
 20
0.0
 30
0.0
  0
VERTEX
  5
8EB
  8
0
  6
CONTINU
 10
97.14041143365984
 20
33.36302304933964
 30
0.0
 42
-0.0314917119914445
  0
VERTEX
  5
8EC
  8
0
  6
CONTINU
 10
97.13704018793769
 20
33.36415200404023
 30
0.0
  0
SEQEND
  5
B35
  8
0
  6
CONTINU
  0
POLYLINE
  5
293
  8
0
  6
CONTINU
 66
     1
 10
0.0
 20
0.0
 30
0.0
  0
VERTEX
  5
8ED
  8
0
  6
CONTINU
 10
97.14852296238139
 20
33.35532875213672
 30
0.0
 42
0.1181515788874899
  0
VERTEX
  5
8EE
  8
0
  6
CONTINU
 10
97.1507348358561
 20
33.35591867177109
 30
0.0
 42
0.0640351355622112
  0
VERTEX
  5
8EF
  8
0
  6
CONTINU
 10
97.15245169166613
 20
33.35718795184003
 30
0.0
 42
0.0496827961143295
  0
VERTEX
  5
8F0
  8
0
  6
CONTINU
 10
97.15457509782242
 20
33.35968257552134
 30
0.0
 42
0.0289010723059215
  0
VERTEX
  5
8F1
  8
0
  6
CONTINU
 10
97.15663507788766
 20
33.36302311411457
 30
0.0
  0
SEQEND
  5
B36
  8
0
  6
CONTINU
  0
POLYLINE
  5
2B4
  8
0
  6
CONTINU
 66
     1
 10
0.0
 20
0.0
 30
0.0
  0
VERTEX
  5
8F2
  8
0
  6
CONTINU
 10
97.15663507788766
 20
33.36302311411457
 30
0.0
 42
0.0314909155961333
  0
VERTEX
  5
8F3
  8
0
  6
CONTINU
 10
97.16000606451006
 20
33.36415200785051
 30
0.0
  0
SEQEND
  5
B37
  8
0
  6
CONTINU
  0
POLYLINE
  5
2BA
  8
0
  6
CONTINU
 66
     1
 10
0.0
 20
0.0
 30
0.0
  0
VERTEX
  5
8F4
  8
0
  6
CONTINU
 10
97.12585987001073
 20
33.37558982735135
 30
0.0
 42
0.0230900819434244
  0
VERTEX
  5
8F5
  8
0
  6
CONTINU
 10
97.12832206863314
 20
33.36700172390861
 30
0.0
 42
0.0223933038332395
  0
VERTEX
  5
8F6
  8
0
  6
CONTINU
 10
97.1292773693568
 20
33.36460799671242
 30
0.0
 42
0.0586498228798387
  0
VERTEX
  5
8F7
  8
0
  6
CONTINU
 10
97.13040493330145
 20
33.36270411661707
 30
0.0
  0
SEQEND
  5
B38
  8
0
  6
CONTINU
  0
POLYLINE
  5
2DE
  8
0
  6
CONTINU
 66
     1
 10
0.0
 20
0.0
 30
0.0
  0
VERTEX
  5
8F8
  8
0
  6
CONTINU
 10
97.12585987001073
 20
33.37558982735135
 30
0.0
  0
VERTEX
  5
8F9
  8
0
  6
CONTINU
 10
97.12562147209323
 20
33.37700210875119
 30
0.0
  0
SEQEND
  5
B39
  8
0
  6
CONTINU
  0
POLYLINE
  5
2E4
  8
0
  6
CONTINU
 66
     1
 10
0.0
 20
0.0
 30
0.0
  0
VERTEX
  5
8FA
  8
0
  6
CONTINU
 10
97.13040493330145
 20
33.36270411661707
 30
0.0
 42
0.1766309244723868
  0
VERTEX
  5
8FB
  8
0
  6
CONTINU
 10
97.13145021021845
 20
33.36198574354979
 30
0.0
 42
0.2051185945294793
  0
VERTEX
  5
8FC
  8
0
  6
CONTINU
 10
97.13223548055117
 20
33.36223352672302
 30
0.0
 42
0.1080632263353543
  0
VERTEX
  5
8FD
  8
0
  6
CONTINU
 10
97.13315009499583
 20
33.36348788950573
 30
0.0
 42
0.0408474709725199
  0
VERTEX
  5
8FE
  8
0
  6
CONTINU
 10
97.13397196079084
 20
33.36565238235116
 30
0.0
  0
SEQEND
  5
B3A
  8
0
  6
CONTINU
  0
POLYLINE
  5
305
  8
0
  6
CONTINU
 66
     1
 10
0.0
 20
0.0
 30
0.0
  0
VERTEX
  5
8FF
  8
0
  6
CONTINU
 10
97.13397196079084
 20
33.36565238235116
 30
0.0
 42
0.0345740175219651
  0
VERTEX
  5
900
  8
0
  6
CONTINU
 10
97.13704018793769
 20
33.36415200404023
 30
0.0
  0
SEQEND
  5
B3B
  8
0
  6
CONTINU
  0
POLYLINE
  5
311
  8
0
  6
CONTINU
 66
     1
 10
0.0
 20
0.0
 30
0.0
  0
VERTEX
  5
901
  8
0
  6
CONTINU
 10
97.15632107949092
 20
33.4116621079928
 30
0.0
 42
-0.0319934227945192
  0
VERTEX
  5
902
  8
0
  6
CONTINU
 10
97.15957992927206
 20
33.41057165922194
 30
0.0
  0
SEQEND
  5
B3C
  8
0
  6
CONTINU
  0
POLYLINE
  5
317
  8
0
  6
CONTINU
 66
     1
 10
0.0
 20
0.0
 30
0.0
  0
VERTEX
  5
903
  8
0
  6
CONTINU
 10
97.13746633841686
 20
33.41057165922194
 30
0.0
 42
-0.0319649443352464
  0
VERTEX
  5
904
  8
0
  6
CONTINU
 10
97.14072495196
 20
33.41166205006448
 30
0.0
  0
SEQEND
  5
B3D
  8
0
  6
CONTINU
  0
POLYLINE
  5
31D
  8
0
  6
CONTINU
 66
     1
 10
0.0
 20
0.0
 30
0.0
  0
VERTEX
  5
905
  8
0
  6
CONTINU
 10
97.15620332628185
 20
33.41186534690863
 30
0.0
 42
-0.0284242938378841
  0
VERTEX
  5
906
  8
0
  6
CONTINU
 10
97.14084269754848
 20
33.41186529100453
 30
0.0
  0
SEQEND
  5
B3E
  8
0
  6
CONTINU
  0
POLYLINE
  5
32C
  8
0
  6
CONTINU
 66
     1
 10
0.0
 20
0.0
 30
0.0
  0
VERTEX
  5
907
  8
0
  6
CONTINU
 10
97.14072495196
 20
33.41166205006448
 30
0.0
 42
0.0274152297744426
  0
VERTEX
  5
908
  8
0
  6
CONTINU
 10
97.15632107949092
 20
33.4116621079928
 30
0.0
  0
SEQEND
  5
B3F
  8
0
  6
CONTINU
  0
POLYLINE
  5
353
  8
0
  6
CONTINU
 66
     1
 10
0.0
 20
0.0
 30
0.0
  0
VERTEX
  5
909
  8
0
  6
CONTINU
 10
97.17034283320443
 20
33.39957075685233
 30
0.0
 42
-0.0575104897859358
  0
VERTEX
  5
90A
  8
0
  6
CONTINU
 10
97.17063672850993
 20
33.39702990006202
 30
0.0
  0
SEQEND
  5
B40
  8
0
  6
CONTINU
  0
POLYLINE
  5
359
  8
0
  6
CONTINU
 66
     1
 10
0.0
 20
0.0
 30
0.0
  0
VERTEX
  5
90B
  8
0
  6
CONTINU
 10
97.15957992927206
 20
33.41057165922194
 30
0.0
 42
-0.0341996872267712
  0
VERTEX
  5
90C
  8
0
  6
CONTINU
 10
97.16254470175143
 20
33.40912135299304
 30
0.0
  0
SEQEND
  5
B41
  8
0
  6
CONTINU
  0
POLYLINE
  5
35F
  8
0
  6
CONTINU
 66
     1
 10
0.0
 20
0.0
 30
0.0
  0
VERTEX
  5
90D
  8
0
  6
CONTINU
 10
97.17083725646381
 20
33.39961438848567
 30
0.0
 42
-0.06543925834849
  0
VERTEX
  5
90E
  8
0
  6
CONTINU
 10
97.16331636845037
 20
33.40885458923192
 30
0.0
  0
SEQEND
  5
B42
  8
0
  6
CONTINU
  0
POLYLINE
  5
36E
  8
0
  6
CONTINU
 66
     1
 10
0.0
 20
0.0
 30
0.0
  0
VERTEX
  5
90F
  8
0
  6
CONTINU
 10
97.16254470175143
 20
33.40912135299304
 30
0.0
 42
0.0644598477314149
  0
VERTEX
  5
910
  8
0
  6
CONTINU
 10
97.17034283320443
 20
33.39957075685233
 30
0.0
  0
SEQEND
  5
B43
  8
0
  6
CONTINU
  0
POLYLINE
  5
395
  8
0
  6
CONTINU
 66
     1
 10
0.0
 20
0.0
 30
0.0
  0
VERTEX
  5
911
  8
0
  6
CONTINU
 10
97.16309003721109
 20
33.38376895176029
 30
0.0
 42
0.1829685872294871
  0
VERTEX
  5
912
  8
0
  6
CONTINU
 10
97.16254487612709
 20
33.3849385470164
 30
0.0
  0
SEQEND
  5
B44
  8
0
  6
CONTINU
  0
POLYLINE
  5
39B
  8
0
  6
CONTINU
 66
     1
 10
0.0
 20
0.0
 30
0.0
  0
VERTEX
  5
913
  8
0
  6
CONTINU
 10
97.16254487612709
 20
33.3849385470164
 30
0.0
 42
-0.0342174686212346
  0
VERTEX
  5
914
  8
0
  6
CONTINU
 10
97.15957992927206
 20
33.38348814289655
 30
0.0
  0
SEQEND
  5
B45
  8
0
  6
CONTINU
  0
POLYLINE
  5
3A1
  8
0
  6
CONTINU
 66
     1
 10
0.0
 20
0.0
 30
0.0
  0
VERTEX
  5
915
  8
0
  6
CONTINU
 10
97.17034286368674
 20
33.39448921854506
 30
0.0
 42
0.0575168658595869
  0
VERTEX
  5
916
  8
0
  6
CONTINU
 10
97.17063672850993
 20
33.39702990006202
 30
0.0
  0
SEQEND
  5
B46
  8
0
  6
CONTINU
  0
POLYLINE
  5
3A7
  8
0
  6
CONTINU
 66
     1
 10
0.0
 20
0.0
 30
0.0
  0
VERTEX
  5
917
  8
0
  6
CONTINU
 10
97.17034286368674
 20
33.39448921854506
 30
0.0
 42
0.1051451206817307
  0
VERTEX
  5
918
  8
0
  6
CONTINU
 10
97.16254487612709
 20
33.3849385470164
 30
0.0
  0
SEQEND
  5
B47
  8
0
  6
CONTINU
  0
POLYLINE
  5
3CE
  8
0
  6
CONTINU
 66
     1
 10
0.0
 20
0.0
 30
0.0
  0
VERTEX
  5
919
  8
0
  6
CONTINU
 10
97.14042192719911
 20
33.3811293389154
 30
0.0
 42
-0.0981112846785956
  0
VERTEX
  5
91A
  8
0
  6
CONTINU
 10
97.14072518819799
 20
33.38239768927352
 30
0.0
  0
SEQEND
  5
B48
  8
0
  6
CONTINU
  0
POLYLINE
  5
3D4
  8
0
  6
CONTINU
 66
     1
 10
0.0
 20
0.0
 30
0.0
  0
VERTEX
  5
91B
  8
0
  6
CONTINU
 10
97.13746633079629
 20
33.3834881448017
 30
0.0
 42
0.031966849760565
  0
VERTEX
  5
91C
  8
0
  6
CONTINU
 10
97.14072518819799
 20
33.38239768927352
 30
0.0
  0
SEQEND
  5
B49
  8
0
  6
CONTINU
  0
POLYLINE
  5
3DA
  8
0
  6
CONTINU
 66
     1
 10
0.0
 20
0.0
 30
0.0
  0
VERTEX
  5
91D
  8
0
  6
CONTINU
 10
97.15662458434838
 20
33.38112940369033
 30
0.0
 42
0.0981206397630638
  0
VERTEX
  5
91E
  8
0
  6
CONTINU
 10
97.15632131572892
 20
33.38239775404845
 30
0.0
  0
SEQEND
  5
B4A
  8
0
  6
CONTINU
  0
POLYLINE
  5
3E0
  8
0
  6
CONTINU
 66
     1
 10
0.0
 20
0.0
 30
0.0
  0
VERTEX
  5
91F
  8
0
  6
CONTINU
 10
97.15632131572892
 20
33.38239775404845
 30
0.0
 42
0.0319829823729288
  0
VERTEX
  5
920
  8
0
  6
CONTINU
 10
97.15957992927206
 20
33.38348814289655
 30
0.0
  0
SEQEND
  5
B4B
  8
0
  6
CONTINU
  0
POLYLINE
  5
3E6
  8
0
  6
CONTINU
 66
     1
 10
0.0
 20
0.0
 30
0.0
  0
VERTEX
  5
921
  8
0
  6
CONTINU
 10
97.15632131572892
 20
33.38239775404845
 30
0.0
 42
0.0784826393413559
  0
VERTEX
  5
922
  8
0
  6
CONTINU
 10
97.14072518819799
 20
33.38239768927352
 30
0.0
  0
SEQEND
  5
B4C
  8
0
  6
CONTINU
  0
POLYLINE
  5
40D
  8
0
  6
CONTINU
 66
     1
 10
0.0
 20
0.0
 30
0.0
  0
VERTEX
  5
923
  8
0
  6
CONTINU
 10
97.12640953917898
 20
33.39702990387231
 30
0.0
 42
0.0574831020033949
  0
VERTEX
  5
924
  8
0
  6
CONTINU
 10
97.12670343448448
 20
33.39448904517685
 30
0.0
  0
SEQEND
  5
B4D
  8
0
  6
CONTINU
  0
POLYLINE
  5
413
  8
0
  6
CONTINU
 66
     1
 10
0.0
 20
0.0
 30
0.0
  0
VERTEX
  5
925
  8
0
  6
CONTINU
 10
97.13395642099232
 20
33.38376883364129
 30
0.0
 42
-0.1829696876574429
  0
VERTEX
  5
926
  8
0
  6
CONTINU
 10
97.13450157445575
 20
33.38493843461284
 30
0.0
  0
SEQEND
  5
B4E
  8
0
  6
CONTINU
  0
POLYLINE
  5
419
  8
0
  6
CONTINU
 66
     1
 10
0.0
 20
0.0
 30
0.0
  0
VERTEX
  5
927
  8
0
  6
CONTINU
 10
97.13450157445575
 20
33.38493843461284
 30
0.0
 42
0.0342048298818476
  0
VERTEX
  5
928
  8
0
  6
CONTINU
 10
97.13746633079629
 20
33.3834881448017
 30
0.0
  0
SEQEND
  5
B4F
  8
0
  6
CONTINU
  0
POLYLINE
  5
41F
  8
0
  6
CONTINU
 66
     1
 10
0.0
 20
0.0
 30
0.0
  0
VERTEX
  5
929
  8
0
  6
CONTINU
 10
97.13450157445575
 20
33.38493843461284
 30
0.0
 42
0.1051449240509863
  0
VERTEX
  5
92A
  8
0
  6
CONTINU
 10
97.12670343448448
 20
33.39448904517685
 30
0.0
  0
SEQEND
  5
B50
  8
0
  6
CONTINU
  0
POLYLINE
  5
446
  8
0
  6
CONTINU
 66
     1
 10
0.0
 20
0.0
 30
0.0
  0
VERTEX
  5
92B
  8
0
  6
CONTINU
 10
97.13746633841686
 20
33.41057165922194
 30
0.0
 42
0.0341995008010836
  0
VERTEX
  5
92C
  8
0
  6
CONTINU
 10
97.13450138394124
 20
33.40912125275042
 30
0.0
  0
SEQEND
  5
B51
  8
0
  6
CONTINU
  0
POLYLINE
  5
44C
  8
0
  6
CONTINU
 66
     1
 10
0.0
 20
0.0
 30
0.0
  0
VERTEX
  5
92D
  8
0
  6
CONTINU
 10
97.12640953917898
 20
33.39702990387231
 30
0.0
 42
-0.0574824738940287
  0
VERTEX
  5
92E
  8
0
  6
CONTINU
 10
97.12670339638159
 20
33.39957058157898
 30
0.0
  0
SEQEND
  5
B52
  8
0
  6
CONTINU
  0
POLYLINE
  5
452
  8
0
  6
CONTINU
 66
     1
 10
0.0
 20
0.0
 30
0.0
  0
VERTEX
  5
92F
  8
0
  6
CONTINU
 10
97.13372970110345
 20
33.40885447135106
 30
0.0
 42
-0.0654409098156718
  0
VERTEX
  5
930
  8
0
  6
CONTINU
 10
97.12620890453697
 20
33.39961416653627
 30
0.0
  0
SEQEND
  5
B53
  8
0
  6
CONTINU
  0
POLYLINE
  5
461
  8
0
  6
CONTINU
 66
     1
 10
0.0
 20
0.0
 30
0.0
  0
VERTEX
  5
931
  8
0
  6
CONTINU
 10
97.12670339638159
 20
33.39957058157898
 30
0.0
 42
0.0644579974723024
  0
VERTEX
  5
932
  8
0
  6
CONTINU
 10
97.13450138394124
 20
33.40912125275042
 30
0.0
  0
SEQEND
  5
B54
  8
0
  6
CONTINU
  0
POLYLINE
  5
488
  8
0
  6
CONTINU
 66
     1
 10
0.0
 20
0.0
 30
0.0
  0
VERTEX
  5
933
  8
0
  6
CONTINU
 10
97.17111937035196
 20
33.39925895794563
 30
0.0
  0
VERTEX
  5
934
  8
0
  6
CONTINU
 10
97.17083725646381
 20
33.39961438848567
 30
0.0
  0
SEQEND
  5
B55
  8
0
  6
CONTINU
  0
POLYLINE
  5
48E
  8
0
  6
CONTINU
 66
     1
 10
0.0
 20
0.0
 30
0.0
  0
VERTEX
  5
935
  8
0
  6
CONTINU
 10
97.16318940958013
 20
33.40902180381838
 30
0.0
  0
VERTEX
  5
936
  8
0
  6
CONTINU
 10
97.16331636845037
 20
33.40885458923192
 30
0.0
  0
SEQEND
  5
B56
  8
0
  6
CONTINU
  0
POLYLINE
  5
494
  8
0
  6
CONTINU
 66
     1
 10
0.0
 20
0.0
 30
0.0
  0
VERTEX
  5
937
  8
0
  6
CONTINU
 10
97.13372970110345
 20
33.40885447135106
 30
0.0
  0
VERTEX
  5
938
  8
0
  6
CONTINU
 10
97.13395190198813
 20
33.40911444864373
 30
0.0
  0
SEQEND
  5
B57
  8
0
  6
CONTINU
  0
POLYLINE
  5
49A
  8
0
  6
CONTINU
 66
     1
 10
0.0
 20
0.0
 30
0.0
  0
VERTEX
  5
939
  8
0
  6
CONTINU
 10
97.12620890453697
 20
33.39961416653627
 30
0.0
  0
VERTEX
  5
93A
  8
0
  6
CONTINU
 10
97.12600745449285
 20
33.39940539406692
 30
0.0
  0
SEQEND
  5
B58
  8
0
  6
CONTINU
  0
POLYLINE
  5
5D8
  8
0
  6
CONTINU
 66
     1
 10
0.0
 20
0.0
 30
0.0
  0
VERTEX
  5
93B
  8
0
  6
CONTINU
 10
97.14872010679755
 20
33.32356291029691
 30
0.0
  0
VERTEX
  5
93C
  8
0
  6
CONTINU
 10
97.14584318526725
 20
33.32382663572444
 30
0.0
  0
VERTEX
  5
93D
  8
0
  6
CONTINU
 10
97.14306292317936
 20
33.32461168506033
 30
0.0
  0
VERTEX
  5
93E
  8
0
  6
CONTINU
 10
97.14047188772452
 20
33.32588970212475
 30
0.0
  0
SEQEND
  5
B59
  8
0
  6
CONTINU
  0
POLYLINE
  5
5FC
  8
0
  6
CONTINU
 66
     1
 10
0.0
 20
0.0
 30
0.0
  0
VERTEX
  5
93F
  8
0
  6
CONTINU
 10
97.07750362589744
 20
33.356324810606
 30
0.0
  0
VERTEX
  5
940
  8
0
  6
CONTINU
 10
97.07830223224595
 20
33.35061121945134
 30
0.0
  0
VERTEX
  5
941
  8
0
  6
CONTINU
 10
97.08050560496316
 20
33.34527848585594
 30
0.0
  0
VERTEX
  5
942
  8
0
  6
CONTINU
 10
97.083802839608
 20
33.34054032137789
 30
0.0
  0
VERTEX
  5
943
  8
0
  6
CONTINU
 10
97.08790233847996
 20
33.33646540649845
 30
0.0
  0
VERTEX
  5
944
  8
0
  6
CONTINU
 10
97.09260334881806
 20
33.33310596505542
 30
0.0
  0
VERTEX
  5
945
  8
0
  6
CONTINU
 10
97.09777228946761
 20
33.33053048320527
 30
0.0
  0
VERTEX
  5
946
  8
0
  6
CONTINU
 10
97.10328421720192
 20
33.32879113906235
 30
0.0
  0
VERTEX
  5
947
  8
0
  6
CONTINU
 10
97.10898919710068
 20
33.3278589058357
 30
0.0
  0
VERTEX
  5
948
  8
0
  6
CONTINU
 10
97.11476216019761
 20
33.32756089541675
 30
0.0
  0
SEQEND
  5
B5A
  8
0
  6
CONTINU
  0
POLYLINE
  5
609
  8
0
  6
CONTINU
 66
     1
 10
0.0
 20
0.0
 30
0.0
  0
VERTEX
  5
949
  8
0
  6
CONTINU
 10
97.14047188772452
 20
33.32588970212475
 30
0.0
  0
VERTEX
  5
94A
  8
0
  6
CONTINU
 10
97.13861255754246
 20
33.3268067703963
 30
0.0
  0
VERTEX
  5
94B
  8
0
  6
CONTINU
 10
97.13661718475825
 20
33.32736935974779
 30
0.0
  0
VERTEX
  5
94C
  8
0
  6
CONTINU
 10
97.13456411655947
 20
33.32755989712071
 30
0.0
  0
SEQEND
  5
B5B
  8
0
  6
CONTINU
  0
POLYLINE
  5
60F
  8
0
  6
CONTINU
 66
     1
 10
0.0
 20
0.0
 30
0.0
  0
VERTEX
  5
94D
  8
0
  6
CONTINU
 10
97.14872010679755
 20
33.32356291029691
 30
0.0
  0
VERTEX
  5
94E
  8
0
  6
CONTINU
 10
97.1459724455528
 20
33.32380385780948
 30
0.0
  0
VERTEX
  5
94F
  8
0
  6
CONTINU
 10
97.14330850400484
 20
33.3245193693488
 30
0.0
  0
VERTEX
  5
950
  8
0
  6
CONTINU
 10
97.14081091972803
 20
33.32568962378512
 30
0.0
  0
SEQEND
  5
B5C
  8
0
  6
CONTINU
  0
POLYLINE
  5
615
  8
0
  6
CONTINU
 66
     1
 10
0.0
 20
0.0
 30
0.0
  0
VERTEX
  5
951
  8
0
  6
CONTINU
 10
97.15902377169046
 20
33.32739045351447
 30
0.0
  0
VERTEX
  5
952
  8
0
  6
CONTINU
 10
97.15592694307021
 20
33.32530492926358
 30
0.0
  0
VERTEX
  5
953
  8
0
  6
CONTINU
 10
97.15242739725566
 20
33.3240040580784
 30
0.0
  0
VERTEX
  5
954
  8
0
  6
CONTINU
 10
97.14872010679755
 20
33.32356291029691
 30
0.0
  0
SEQEND
  5
B5D
  8
0
  6
CONTINU
  0
POLYLINE
  5
61B
  8
0
  6
CONTINU
 66
     1
 10
0.0
 20
0.0
 30
0.0
  0
VERTEX
  5
955
  8
0
  6
CONTINU
 10
97.16240170066165
 20
33.33147853675693
 30
0.0
  0
VERTEX
  5
956
  8
0
  6
CONTINU
 10
97.16144551595066
 20
33.33001232945837
 30
0.0
  0
VERTEX
  5
957
  8
0
  6
CONTINU
 10
97.16034076040329
 20
33.32866776186491
 30
0.0
  0
VERTEX
  5
958
  8
0
  6
CONTINU
 10
97.15902377169046
 20
33.32739045351447
 30
0.0
  0
SEQEND
  5
B5E
  8
0
  6
CONTINU
  0
POLYLINE
  5
621
  8
0
  6
CONTINU
 66
     1
 10
0.0
 20
0.0
 30
0.0
  0
VERTEX
  5
959
  8
0
  6
CONTINU
 10
97.16437770193036
 20
33.33736901682493
 30
0.0
 42
-0.0302588732875409
  0
VERTEX
  5
95A
  8
0
  6
CONTINU
 10
97.16402486797385
 20
33.33549376151015
 30
0.0
  0
SEQEND
  5
B5F
  8
0
  6
CONTINU
  0
POLYLINE
  5
628
  8
0
  6
CONTINU
 66
     1
 10
0.0
 20
0.0
 30
0.0
  0
VERTEX
  5
95B
  8
0
  6
CONTINU
 10
97.1638240667609
 20
33.33476892812052
 30
0.0
  0
VERTEX
  5
95C
  8
0
  6
CONTINU
 10
97.1634498810198
 20
33.33367602257574
 30
0.0
  0
SEQEND
  5
B60
  8
0
  6
CONTINU
  0
POLYLINE
  5
62E
  8
0
  6
CONTINU
 66
     1
 10
0.0
 20
0.0
 30
0.0
  0
VERTEX
  5
95D
  8
0
  6
CONTINU
 10
97.16300927429953
 20
33.3326449504207
 30
0.0
  0
VERTEX
  5
95E
  8
0
  6
CONTINU
 10
97.16240170066165
 20
33.33147853675693
 30
0.0
  0
SEQEND
  5
B61
  8
0
  6
CONTINU
  0
POLYLINE
  5
635
  8
0
  6
CONTINU
 66
     1
 10
0.0
 20
0.0
 30
0.0
  0
VERTEX
  5
95F
  8
0
  6
CONTINU
 10
97.16448679816004
 20
33.33865572135106
 30
0.0
  0
VERTEX
  5
960
  8
0
  6
CONTINU
 10
97.16437770193036
 20
33.33736901682493
 30
0.0
  0
SEQEND
  5
B62
  8
0
  6
CONTINU
  0
POLYLINE
  5
63B
  8
0
  6
CONTINU
 66
     1
 10
0.0
 20
0.0
 30
0.0
  0
VERTEX
  5
961
  8
0
  6
CONTINU
 10
97.16450238986764
 20
33.33948065680502
 30
0.0
  0
VERTEX
  5
962
  8
0
  6
CONTINU
 10
97.1645012315394
 20
33.33920333626197
 30
0.0
  0
SEQEND
  5
B63
  8
0
  6
CONTINU
  0
POLYLINE
  5
643
  8
0
  6
CONTINU
 66
     1
 10
0.0
 20
0.0
 30
0.0
  0
VERTEX
  5
963
  8
0
  6
CONTINU
 10
97.1283933286809
 20
33.35194427996832
 30
0.0
  0
VERTEX
  5
964
  8
0
  6
CONTINU
 10
97.13061171775188
 20
33.35346369796985
 30
0.0
  0
VERTEX
  5
965
  8
0
  6
CONTINU
 10
97.13227240226344
 20
33.3555420283928
 30
0.0
  0
VERTEX
  5
966
  8
0
  6
CONTINU
 10
97.13318244702859
 20
33.35757570499771
 30
0.0
  0
SEQEND
  5
B64
  8
0
  6
CONTINU
  0
POLYLINE
  5
649
  8
0
  6
CONTINU
 66
     1
 10
0.0
 20
0.0
 30
0.0
  0
VERTEX
  5
967
  8
0
  6
CONTINU
 10
97.1261807160099
 20
33.35121413691455
 30
0.0
 42
0.0704860948564334
  0
VERTEX
  5
968
  8
0
  6
CONTINU
 10
97.1283933286809
 20
33.35194427996832
 30
0.0
  0
SEQEND
  5
B65
  8
0
  6
CONTINU
  0
POLYLINE
  5
652
  8
0
  6
CONTINU
 66
     1
 10
0.0
 20
0.0
 30
0.0
  0
VERTEX
  5
969
  8
0
  6
CONTINU
 10
97.1100744134798
 20
33.35632483346775
 30
0.0
  0
VERTEX
  5
96A
  8
0
  6
CONTINU
 10
97.11047616286038
 20
33.35439399937935
 30
0.0
  0
VERTEX
  5
96B
  8
0
  6
CONTINU
 10
97.11152304009926
 20
33.35278899082854
 30
0.0
  0
VERTEX
  5
96C
  8
0
  6
CONTINU
 10
97.11306815017005
 20
33.35165845101419
 30
0.0
  0
SEQEND
  5
B66
  8
0
  6
CONTINU
  0
POLYLINE
  5
768
  8
0
  6
CONTINU
 66
     1
 10
0.0
 20
0.0
 30
0.0
  0
VERTEX
  5
96D
  8
0
  6
CONTINU
 10
97.08229982871617
 20
33.5107328164551
 30
0.0
  0
VERTEX
  5
96E
  8
0
  6
CONTINU
 10
97.08090116643241
 20
33.51073281729535
 30
0.0
  0
SEQEND
  5
B67
  8
0
  6
CONTINU
  0
POLYLINE
  5
769
  8
0
  6
CONTINU
 66
     1
 10
0.0
 20
0.0
 30
0.0
  0
VERTEX
  5
96F
  8
0
  6
CONTINU
 10
97.08229963820168
 20
33.50973298952015
 30
0.0
  0
VERTEX
  5
970
  8
0
  6
CONTINU
 10
97.08229982871617
 20
33.5107328164551
 30
0.0
  0
SEQEND
  5
B68
  8
0
  6
CONTINU
  0
POLYLINE
  5
76A
  8
0
  6
CONTINU
 66
     1
 10
0.0
 20
0.0
 30
0.0
  0
VERTEX
  5
971
  8
0
  6
CONTINU
 10
97.10487307774277
 20
33.50973372109587
 30
0.0
  0
VERTEX
  5
972
  8
0
  6
CONTINU
 10
97.10487307774277
 20
33.51073280967477
 30
0.0
  0
SEQEND
  5
B69
  8
0
  6
CONTINU
  0
POLYLINE
  5
76B
  8
0
  6
CONTINU
 66
     1
 10
0.0
 20
0.0
 30
0.0
  0
VERTEX
  5
973
  8
0
  6
CONTINU
 10
97.09358649514266
 20
33.51073280967477
 30
0.0
  0
VERTEX
  5
974
  8
0
  6
CONTINU
 10
97.10627182004262
 20
33.51073280967477
 30
0.0
  0
SEQEND
  5
B6A
  8
0
  6
CONTINU
  0
POLYLINE
  5
76C
  8
0
  6
CONTINU
 66
     1
 10
0.0
 20
0.0
 30
0.0
  0
VERTEX
  5
975
  8
0
  6
CONTINU
 10
97.09358649514266
 20
33.49994535985278
 30
0.0
  0
VERTEX
  5
976
  8
0
  6
CONTINU
 10
97.08429726667768
 20
33.49994535985278
 30
0.0
  0
SEQEND
  5
B6B
  8
0
  6
CONTINU
  0
POLYLINE
  5
76D
  8
0
  6
CONTINU
 66
     1
 10
0.0
 20
0.0
 30
0.0
  0
VERTEX
  5
977
  8
0
  6
CONTINU
 10
97.10287575408996
 20
33.49994535985278
 30
0.0
  0
VERTEX
  5
978
  8
0
  6
CONTINU
 10
97.09358649514266
 20
33.49994535985278
 30
0.0
  0
SEQEND
  5
B6C
  8
0
  6
CONTINU
  0
POLYLINE
  5
76E
  8
0
  6
CONTINU
 66
     1
 10
0.0
 20
0.0
 30
0.0
  0
VERTEX
  5
979
  8
0
  6
CONTINU
 10
97.10587228825095
 20
33.50344070669773
 30
0.0
  0
VERTEX
  5
97A
  8
0
  6
CONTINU
 10
97.10587228825095
 20
33.50873512023411
 30
0.0
  0
SEQEND
  5
B6D
  8
0
  6
CONTINU
  0
POLYLINE
  5
76F
  8
0
  6
CONTINU
 66
     1
 10
0.0
 20
0.0
 30
0.0
  0
VERTEX
  5
97B
  8
0
  6
CONTINU
 10
97.10487344353062
 20
33.50194304663336
 30
0.0
  0
VERTEX
  5
97C
  8
0
  6
CONTINU
 10
97.10487344353062
 20
33.50244161814859
 30
0.0
  0
SEQEND
  5
B6E
  8
0
  6
CONTINU
  0
POLYLINE
  5
770
  8
0
  6
CONTINU
 66
     1
 10
0.0
 20
0.0
 30
0.0
  0
VERTEX
  5
97D
  8
0
  6
CONTINU
 10
97.08180015487686
 20
33.50294107087386
 30
0.0
  0
VERTEX
  5
97E
  8
0
  6
CONTINU
 10
97.08180015487686
 20
33.50923454259428
 30
0.0
  0
SEQEND
  5
B6F
  8
0
  6
CONTINU
  0
POLYLINE
  5
771
  8
0
  6
CONTINU
 66
     1
 10
0.0
 20
0.0
 30
0.0
  0
VERTEX
  5
97F
  8
0
  6
CONTINU
 10
97.0813007325167
 20
33.5034407066233
 30
0.0
  0
VERTEX
  5
980
  8
0
  6
CONTINU
 10
97.08130085444598
 20
33.50873463251696
 30
0.0
  0
SEQEND
  5
B70
  8
0
  6
CONTINU
  0
POLYLINE
  5
772
  8
0
  6
CONTINU
 66
     1
 10
0.0
 20
0.0
 30
0.0
  0
VERTEX
  5
981
  8
0
  6
CONTINU
 10
97.08229957723702
 20
33.50194305256117
 30
0.0
  0
VERTEX
  5
982
  8
0
  6
CONTINU
 10
97.0822992724138
 20
33.50244174007788
 30
0.0
  0
SEQEND
  5
B71
  8
0
  6
CONTINU
  0
POLYLINE
  5
773
  8
0
  6
CONTINU
 66
     1
 10
0.0
 20
0.0
 30
0.0
  0
VERTEX
  5
983
  8
0
  6
CONTINU
 10
97.08959107053786
 20
33.49569343975623
 30
0.0
  0
VERTEX
  5
984
  8
0
  6
CONTINU
 10
97.08959117436827
 20
33.49785402672439
 30
0.0
  0
SEQEND
  5
B72
  8
0
  6
CONTINU
  0
POLYLINE
  5
774
  8
0
  6
CONTINU
 66
     1
 10
0.0
 20
0.0
 30
0.0
  0
VERTEX
  5
985
  8
0
  6
CONTINU
 10
97.09758190426817
 20
33.49569344415515
 30
0.0
  0
VERTEX
  5
986
  8
0
  6
CONTINU
 10
97.09758180234681
 20
33.49785392058529
 30
0.0
  0
SEQEND
  5
B73
  8
0
  6
CONTINU
  0
POLYLINE
  5
775
  8
0
  6
CONTINU
 66
     1
 10
0.0
 20
0.0
 30
0.0
  0
VERTEX
  5
987
  8
0
  6
CONTINU
 10
97.10537286589079
 20
33.50294116242316
 30
0.0
  0
VERTEX
  5
988
  8
0
  6
CONTINU
 10
97.10537286589079
 20
33.50923454259428
 30
0.0
  0
SEQEND
  5
B74
  8
0
  6
CONTINU
  0
POLYLINE
  5
776
  8
0
  6
CONTINU
 66
     1
 10
0.0
 20
0.0
 30
0.0
  0
VERTEX
  5
989
  8
0
  6
CONTINU
 10
97.08884192006535
 20
33.49439589462224
 30
0.0
  0
VERTEX
  5
98A
  8
0
  6
CONTINU
 10
97.08046161516253
 20
33.48955753326942
 30
0.0
  0
SEQEND
  5
B75
  8
0
  6
CONTINU
  0
POLYLINE
  5
777
  8
0
  6
CONTINU
 66
     1
 10
0.0
 20
0.0
 30
0.0
  0
VERTEX
  5
98B
  8
0
  6
CONTINU
 10
97.08229963820168
 20
33.50973298952015
 30
0.0
  0
VERTEX
  5
98C
  8
0
  6
CONTINU
 10
97.08130085444598
 20
33.50873463251696
 30
0.0
  0
SEQEND
  5
B76
  8
0
  6
CONTINU
  0
POLYLINE
  5
778
  8
0
  6
CONTINU
 66
     1
 10
0.0
 20
0.0
 30
0.0
  0
VERTEX
  5
98D
  8
0
  6
CONTINU
 10
97.10587228825095
 20
33.50344070669773
 30
0.0
  0
VERTEX
  5
98E
  8
0
  6
CONTINU
 10
97.10487344353062
 20
33.50244161814859
 30
0.0
  0
SEQEND
  5
B77
  8
0
  6
CONTINU
  0
POLYLINE
  5
779
  8
0
  6
CONTINU
 66
     1
 10
0.0
 20
0.0
 30
0.0
  0
VERTEX
  5
98F
  8
0
  6
CONTINU
 10
97.10671128367584
 20
33.48955808195122
 30
0.0
  0
VERTEX
  5
990
  8
0
  6
CONTINU
 10
97.09833095974258
 20
33.49439599333004
 30
0.0
  0
SEQEND
  5
B78
  8
0
  6
CONTINU
  0
POLYLINE
  5
77A
  8
0
  6
CONTINU
 66
     1
 10
0.0
 20
0.0
 30
0.0
  0
VERTEX
  5
991
  8
0
  6
CONTINU
 10
97.0822992724138
 20
33.50244174007788
 30
0.0
  0
VERTEX
  5
992
  8
0
  6
CONTINU
 10
97.0813007325167
 20
33.5034407066233
 30
0.0
  0
SEQEND
  5
B79
  8
0
  6
CONTINU
  0
POLYLINE
  5
77B
  8
0
  6
CONTINU
 66
     1
 10
0.0
 20
0.0
 30
0.0
  0
VERTEX
  5
993
  8
0
  6
CONTINU
 10
97.10587228825095
 20
33.50873512023411
 30
0.0
  0
VERTEX
  5
994
  8
0
  6
CONTINU
 10
97.10487307774277
 20
33.50973372109587
 30
0.0
  0
SEQEND
  5
B7A
  8
0
  6
CONTINU
  0
POLYLINE
  5
77C
  8
0
  6
CONTINU
 66
     1
 10
0.0
 20
0.0
 30
0.0
  0
VERTEX
  5
995
  8
0
  6
CONTINU
 10
97.08807172962864
 20
33.49994535985278
 30
0.0
 42
0.0462633866393876
  0
VERTEX
  5
996
  8
0
  6
CONTINU
 10
97.08904285385113
 20
33.49901270021573
 30
0.0
  0
SEQEND
  5
B7B
  8
0
  6
CONTINU
  0
POLYLINE
  5
77D
  8
0
  6
CONTINU
 66
     1
 10
0.0
 20
0.0
 30
0.0
  0
VERTEX
  5
997
  8
0
  6
CONTINU
 10
97.08229957723702
 20
33.50194305256117
 30
0.0
 42
0.4142140414744981
  0
VERTEX
  5
998
  8
0
  6
CONTINU
 10
97.08429726667768
 20
33.49994535985278
 30
0.0
  0
SEQEND
  5
B7C
  8
0
  6
CONTINU
  0
POLYLINE
  5
77E
  8
0
  6
CONTINU
 66
     1
 10
0.0
 20
0.0
 30
0.0
  0
VERTEX
  5
999
  8
0
  6
CONTINU
 10
97.08884192006535
 20
33.49439589462224
 30
0.0
 42
0.2679523322377861
  0
VERTEX
  5
99A
  8
0
  6
CONTINU
 10
97.08959107053786
 20
33.49569343975623
 30
0.0
  0
SEQEND
  5
B7D
  8
0
  6
CONTINU
  0
POLYLINE
  5
77F
  8
0
  6
CONTINU
 66
     1
 10
0.0
 20
0.0
 30
0.0
  0
VERTEX
  5
99B
  8
0
  6
CONTINU
 10
97.09813544650129
 20
33.49901700787765
 30
0.0
 42
0.0460260047271477
  0
VERTEX
  5
99C
  8
0
  6
CONTINU
 10
97.09910116920973
 20
33.49994535985278
 30
0.0
  0
SEQEND
  5
B7E
  8
0
  6
CONTINU
  0
POLYLINE
  5
780
  8
0
  6
CONTINU
 66
     1
 10
0.0
 20
0.0
 30
0.0
  0
VERTEX
  5
99D
  8
0
  6
CONTINU
 10
97.10287575408996
 20
33.49994535985278
 30
0.0
 42
0.4142131723622368
  0
VERTEX
  5
99E
  8
0
  6
CONTINU
 10
97.10487344353062
 20
33.50194304663336
 30
0.0
  0
SEQEND
  5
B7F
  8
0
  6
CONTINU
  0
POLYLINE
  5
781
  8
0
  6
CONTINU
 66
     1
 10
0.0
 20
0.0
 30
0.0
  0
VERTEX
  5
99F
  8
0
  6
CONTINU
 10
97.09758190426817
 20
33.49569344415515
 30
0.0
 42
0.2679413447065678
  0
VERTEX
  5
9A0
  8
0
  6
CONTINU
 10
97.09833095974258
 20
33.49439599333004
 30
0.0
  0
SEQEND
  5
B80
  8
0
  6
CONTINU
  0
POLYLINE
  5
782
  8
0
  6
CONTINU
 66
     1
 10
0.0
 20
0.0
 30
0.0
  0
VERTEX
  5
9A1
  8
0
  6
CONTINU
 10
97.09813544650129
 20
33.49901700787765
 30
0.0
 42
0.2277791164424695
  0
VERTEX
  5
9A2
  8
0
  6
CONTINU
 10
97.09758180234681
 20
33.49785392058529
 30
0.0
  0
SEQEND
  5
B81
  8
0
  6
CONTINU
  0
POLYLINE
  5
783
  8
0
  6
CONTINU
 66
     1
 10
0.0
 20
0.0
 30
0.0
  0
VERTEX
  5
9A3
  8
0
  6
CONTINU
 10
97.08959117436827
 20
33.49785402672439
 30
0.0
 42
0.2277357661942124
  0
VERTEX
  5
9A4
  8
0
  6
CONTINU
 10
97.08904285385113
 20
33.49901270021573
 30
0.0
  0
SEQEND
  5
B82
  8
0
  6
CONTINU
  0
POLYLINE
  5
784
  8
0
  6
CONTINU
 66
     1
 10
0.0
 20
0.0
 30
0.0
  0
VERTEX
  5
9A5
  8
0
  6
CONTINU
 10
97.09358649514266
 20
33.48375869830187
 30
0.0
  0
VERTEX
  5
9A6
  8
0
  6
CONTINU
 10
97.10671128367584
 20
33.48375869830187
 30
0.0
  0
SEQEND
  5
B83
  8
0
  6
CONTINU
  0
POLYLINE
  5
785
  8
0
  6
CONTINU
 66
     1
 10
0.0
 20
0.0
 30
0.0
  0
VERTEX
  5
9A7
  8
0
  6
CONTINU
 10
97.08046161516253
 20
33.48375869830187
 30
0.0
  0
VERTEX
  5
9A8
  8
0
  6
CONTINU
 10
97.09358649514266
 20
33.48375869830187
 30
0.0
  0
SEQEND
  5
B84
  8
0
  6
CONTINU
  0
POLYLINE
  5
786
  8
0
  6
CONTINU
 66
     1
 10
0.0
 20
0.0
 30
0.0
  0
VERTEX
  5
9A9
  8
0
  6
CONTINU
 10
97.10481253223111
 20
33.48375869830187
 30
0.0
  0
VERTEX
  5
9AA
  8
0
  6
CONTINU
 10
97.10481165557043
 20
33.4827213342836
 30
0.0
  0
SEQEND
  5
B85
  8
0
  6
CONTINU
  0
POLYLINE
  5
787
  8
0
  6
CONTINU
 66
     1
 10
0.0
 20
0.0
 30
0.0
  0
VERTEX
  5
9AB
  8
0
  6
CONTINU
 10
97.10566061138789
 20
33.48272061521282
 30
0.0
  0
VERTEX
  5
9AC
  8
0
  6
CONTINU
 10
97.10565278505176
 20
33.47473291330294
 30
0.0
  0
SEQEND
  5
B86
  8
0
  6
CONTINU
  0
POLYLINE
  5
788
  8
0
  6
CONTINU
 66
     1
 10
0.0
 20
0.0
 30
0.0
  0
VERTEX
  5
9AD
  8
0
  6
CONTINU
 10
97.08243844707451
 20
33.48375870592245
 30
0.0
  0
VERTEX
  5
9AE
  8
0
  6
CONTINU
 10
97.08243733410697
 20
33.48274279525828
 30
0.0
  0
SEQEND
  5
B87
  8
0
  6
CONTINU
  0
POLYLINE
  5
789
  8
0
  6
CONTINU
 66
     1
 10
0.0
 20
0.0
 30
0.0
  0
VERTEX
  5
9AF
  8
0
  6
CONTINU
 10
97.08158825320666
 20
33.48274370557157
 30
0.0
  0
VERTEX
  5
9B0
  8
0
  6
CONTINU
 10
97.08158073169376
 20
33.47475612178069
 30
0.0
  0
SEQEND
  5
B88
  8
0
  6
CONTINU
  0
POLYLINE
  5
78A
  8
0
  6
CONTINU
 66
     1
 10
0.0
 20
0.0
 30
0.0
  0
VERTEX
  5
9B1
  8
0
  6
CONTINU
 10
97.08158073169376
 20
33.47475612178069
 30
0.0
  0
VERTEX
  5
9B2
  8
0
  6
CONTINU
 10
97.08263043191087
 20
33.47435233265367
 30
0.0
  0
SEQEND
  5
B89
  8
0
  6
CONTINU
  0
POLYLINE
  5
78B
  8
0
  6
CONTINU
 66
     1
 10
0.0
 20
0.0
 30
0.0
  0
VERTEX
  5
9B3
  8
0
  6
CONTINU
 10
97.08263043191087
 20
33.47435233265367
 30
0.0
  0
VERTEX
  5
9B4
  8
0
  6
CONTINU
 10
97.10460357591526
 20
33.47433133538542
 30
0.0
  0
SEQEND
  5
B8A
  8
0
  6
CONTINU
  0
POLYLINE
  5
78C
  8
0
  6
CONTINU
 66
     1
 10
0.0
 20
0.0
 30
0.0
  0
VERTEX
  5
9B5
  8
0
  6
CONTINU
 10
97.09358649514266
 20
33.48273084206328
 30
0.0
  0
VERTEX
  5
9B6
  8
0
  6
CONTINU
 10
97.10566061138789
 20
33.48272061521282
 30
0.0
  0
SEQEND
  5
B8B
  8
0
  6
CONTINU
  0
POLYLINE
  5
78D
  8
0
  6
CONTINU
 66
     1
 10
0.0
 20
0.0
 30
0.0
  0
VERTEX
  5
9B7
  8
0
  6
CONTINU
 10
97.08158825320666
 20
33.48274370557157
 30
0.0
  0
VERTEX
  5
9B8
  8
0
  6
CONTINU
 10
97.09358649514266
 20
33.48273084206328
 30
0.0
  0
SEQEND
  5
B8C
  8
0
  6
CONTINU
  0
POLYLINE
  5
78E
  8
0
  6
CONTINU
 66
     1
 10
0.0
 20
0.0
 30
0.0
  0
VERTEX
  5
9B9
  8
0
  6
CONTINU
 10
97.10460357591526
 20
33.47433133538542
 30
0.0
  0
VERTEX
  5
9BA
  8
0
  6
CONTINU
 10
97.10565278505176
 20
33.47473291330294
 30
0.0
  0
SEQEND
  5
B8D
  8
0
  6
CONTINU
  0
POLYLINE
  5
78F
  8
0
  6
CONTINU
 66
     1
 10
0.0
 20
0.0
 30
0.0
  0
VERTEX
  5
9BB
  8
0
  6
CONTINU
 10
97.10671128367584
 20
33.48375869830187
 30
0.0
  0
VERTEX
  5
9BC
  8
0
  6
CONTINU
 10
97.10671128367584
 20
33.48955808195122
 30
0.0
  0
SEQEND
  5
B8E
  8
0
  6
CONTINU
  0
POLYLINE
  5
790
  8
0
  6
CONTINU
 66
     1
 10
0.0
 20
0.0
 30
0.0
  0
VERTEX
  5
9BD
  8
0
  6
CONTINU
 10
97.08046161516253
 20
33.48375869830187
 30
0.0
  0
VERTEX
  5
9BE
  8
0
  6
CONTINU
 10
97.08046161516253
 20
33.48955753326942
 30
0.0
  0
SEQEND
  5
B8F
  8
0
  6
CONTINU
  0
POLYLINE
  5
791
  8
0
  6
CONTINU
 66
     1
 10
0.0
 20
0.0
 30
0.0
  0
VERTEX
  5
9BF
  8
0
  6
CONTINU
 10
97.08536161028695
 20
33.37072578345399
 30
0.0
  0
VERTEX
  5
9C0
  8
0
  6
CONTINU
 10
97.08465816974707
 20
33.37010578445971
 30
0.0
  0
SEQEND
  5
B90
  8
0
  6
CONTINU
  0
POLYLINE
  5
792
  8
0
  6
CONTINU
 66
     1
 10
0.0
 20
0.0
 30
0.0
  0
VERTEX
  5
9C1
  8
0
  6
CONTINU
 10
97.08605762838148
 20
33.3712062877232
 30
0.0
  0
VERTEX
  5
9C2
  8
0
  6
CONTINU
 10
97.08536161028695
 20
33.37072578345399
 30
0.0
  0
SEQEND
  5
B91
  8
0
  6
CONTINU
  0
POLYLINE
  5
793
  8
0
  6
CONTINU
 66
     1
 10
0.0
 20
0.0
 30
0.0
  0
VERTEX
  5
9C3
  8
0
  6
CONTINU
 10
97.08010504439314
 20
33.37175358638002
 30
0.0
  0
VERTEX
  5
9C4
  8
0
  6
CONTINU
 10
97.07982858116539
 20
33.37155620191558
 30
0.0
  0
SEQEND
  5
B92
  8
0
  6
CONTINU
  0
POLYLINE
  5
794
  8
0
  6
CONTINU
 66
     1
 10
0.0
 20
0.0
 30
0.0
  0
VERTEX
  5
9C5
  8
0
  6
CONTINU
 10
97.08676743972663
 20
33.37155620953616
 30
0.0
  0
VERTEX
  5
9C6
  8
0
  6
CONTINU
 10
97.08605762838148
 20
33.3712062877232
 30
0.0
  0
SEQEND
  5
B93
  8
0
  6
CONTINU
  0
POLYLINE
  5
795
  8
0
  6
CONTINU
 66
     1
 10
0.0
 20
0.0
 30
0.0
  0
VERTEX
  5
9C7
  8
0
  6
CONTINU
 10
97.08211784925511
 20
33.35878983595286
 30
0.0
  0
VERTEX
  5
9C8
  8
0
  6
CONTINU
 10
97.08181543795095
 20
33.35878983595286
 30
0.0
  0
SEQEND
  5
B94
  8
0
  6
CONTINU
  0
POLYLINE
  5
796
  8
0
  6
CONTINU
 66
     1
 10
0.0
 20
0.0
 30
0.0
  0
VERTEX
  5
9C9
  8
0
  6
CONTINU
 10
97.08181543795095
 20
33.35878983595286
 30
0.0
  0
VERTEX
  5
9CA
  8
0
  6
CONTINU
 10
97.08153124364435
 20
33.35856529936028
 30
0.0
  0
SEQEND
  5
B95
  8
0
  6
CONTINU
  0
POLYLINE
  5
797
  8
0
  6
CONTINU
 66
     1
 10
0.0
 20
0.0
 30
0.0
  0
VERTEX
  5
9CB
  8
0
  6
CONTINU
 10
97.0874348806445
 20
33.37175358256973
 30
0.0
  0
VERTEX
  5
9CC
  8
0
  6
CONTINU
 10
97.08676743972663
 20
33.37155620953616
 30
0.0
  0
SEQEND
  5
B96
  8
0
  6
CONTINU
  0
POLYLINE
  5
798
  8
0
  6
CONTINU
 66
     1
 10
0.0
 20
0.0
 30
0.0
  0
VERTEX
  5
9CD
  8
0
  6
CONTINU
 10
97.08153124364435
 20
33.35856529936028
 30
0.0
  0
VERTEX
  5
9CE
  8
0
  6
CONTINU
 10
97.08124293803459
 20
33.35835732228902
 30
0.0
  0
SEQEND
  5
B97
  8
0
  6
CONTINU
  0
POLYLINE
  5
799
  8
0
  6
CONTINU
 66
     1
 10
0.0
 20
0.0
 30
0.0
  0
VERTEX
  5
9CF
  8
0
  6
CONTINU
 10
97.08038875479288
 20
33.37182185916025
 30
0.0
  0
VERTEX
  5
9D0
  8
0
  6
CONTINU
 10
97.08010504439314
 20
33.37175358638002
 30
0.0
  0
SEQEND
  5
B98
  8
0
  6
CONTINU
  0
POLYLINE
  5
79A
  8
0
  6
CONTINU
 66
     1
 10
0.0
 20
0.0
 30
0.0
  0
VERTEX
  5
9D1
  8
0
  6
CONTINU
 10
97.08124293803459
 20
33.35835732228902
 30
0.0
  0
VERTEX
  5
9D2
  8
0
  6
CONTINU
 10
97.08095693384013
 20
33.35835732228902
 30
0.0
  0
SEQEND
  5
B99
  8
0
  6
CONTINU
  0
POLYLINE
  5
79B
  8
0
  6
CONTINU
 66
     1
 10
0.0
 20
0.0
 30
0.0
  0
VERTEX
  5
9D3
  8
0
  6
CONTINU
 10
97.09156412645223
 20
33.35878983595286
 30
0.0
  0
VERTEX
  5
9D4
  8
0
  6
CONTINU
 10
97.0908780074917
 20
33.35856529936028
 30
0.0
  0
SEQEND
  5
B9A
  8
0
  6
CONTINU
  0
POLYLINE
  5
79C
  8
0
  6
CONTINU
 66
     1
 10
0.0
 20
0.0
 30
0.0
  0
VERTEX
  5
9D5
  8
0
  6
CONTINU
 10
97.09229421616193
 20
33.35878983595286
 30
0.0
  0
VERTEX
  5
9D6
  8
0
  6
CONTINU
 10
97.09156412645223
 20
33.35878983595286
 30
0.0
  0
SEQEND
  5
B9B
  8
0
  6
CONTINU
  0
POLYLINE
  5
79D
  8
0
  6
CONTINU
 66
     1
 10
0.0
 20
0.0
 30
0.0
  0
VERTEX
  5
9D7
  8
0
  6
CONTINU
 10
97.08095693384013
 20
33.35835732228902
 30
0.0
  0
VERTEX
  5
9D8
  8
0
  6
CONTINU
 10
97.0806681100309
 20
33.35835732228902
 30
0.0
  0
SEQEND
  5
B9C
  8
0
  6
CONTINU
  0
POLYLINE
  5
79E
  8
0
  6
CONTINU
 66
     1
 10
0.0
 20
0.0
 30
0.0
  0
VERTEX
  5
9D9
  8
0
  6
CONTINU
 10
97.0908780074917
 20
33.35856529936028
 30
0.0
  0
VERTEX
  5
9DA
  8
0
  6
CONTINU
 10
97.0901572682342
 20
33.35835732228902
 30
0.0
  0
SEQEND
  5
B9D
  8
0
  6
CONTINU
  0
POLYLINE
  5
79F
  8
0
  6
CONTINU
 66
     1
 10
0.0
 20
0.0
 30
0.0
  0
VERTEX
  5
9DB
  8
0
  6
CONTINU
 10
97.0901572682342
 20
33.35835732228902
 30
0.0
  0
VERTEX
  5
9DC
  8
0
  6
CONTINU
 10
97.0894721818623
 20
33.35835732228902
 30
0.0
  0
SEQEND
  5
B9E
  8
0
  6
CONTINU
  0
POLYLINE
  5
7A0
  8
0
  6
CONTINU
 66
     1
 10
0.0
 20
0.0
 30
0.0
  0
VERTEX
  5
9DD
  8
0
  6
CONTINU
 10
97.08811981460477
 20
33.37182185534996
 30
0.0
  0
VERTEX
  5
9DE
  8
0
  6
CONTINU
 10
97.0874348806445
 20
33.37175358256973
 30
0.0
  0
SEQEND
  5
B9F
  8
0
  6
CONTINU
  0
POLYLINE
  5
7A1
  8
0
  6
CONTINU
 66
     1
 10
0.0
 20
0.0
 30
0.0
  0
VERTEX
  5
9DF
  8
0
  6
CONTINU
 10
97.0894721818623
 20
33.35835732228902
 30
0.0
  0
VERTEX
  5
9E0
  8
0
  6
CONTINU
 10
97.08879423216402
 20
33.35835732228902
 30
0.0
  0
SEQEND
  5
BA0
  8
0
  6
CONTINU
  0
POLYLINE
  5
7A2
  8
0
  6
CONTINU
 66
     1
 10
0.0
 20
0.0
 30
0.0
  0
VERTEX
  5
9E1
  8
0
  6
CONTINU
 10
97.08879423216402
 20
33.35835732228902
 30
0.0
  0
VERTEX
  5
9E2
  8
0
  6
CONTINU
 10
97.08811981460477
 20
33.35835732228902
 30
0.0
  0
SEQEND
  5
BA1
  8
0
  6
CONTINU
  0
POLYLINE
  5
7A3
  8
0
  6
CONTINU
 66
     1
 10
0.0
 20
0.0
 30
0.0
  0
VERTEX
  5
9E3
  8
0
  6
CONTINU
 10
97.08811981460477
 20
33.35835732228902
 30
0.0
  0
VERTEX
  5
9E4
  8
0
  6
CONTINU
 10
97.08744539323521
 20
33.35835732228902
 30
0.0
  0
SEQEND
  5
BA2
  8
0
  6
CONTINU
  0
POLYLINE
  5
7A4
  8
0
  6
CONTINU
 66
     1
 10
0.0
 20
0.0
 30
0.0
  0
VERTEX
  5
9E5
  8
0
  6
CONTINU
 10
97.08038875860316
 20
33.35835732228902
 30
0.0
  0
VERTEX
  5
9E6
  8
0
  6
CONTINU
 10
97.08010504058284
 20
33.35835732228902
 30
0.0
  0
SEQEND
  5
BA3
  8
0
  6
CONTINU
  0
POLYLINE
  5
7A5
  8
0
  6
CONTINU
 66
     1
 10
0.0
 20
0.0
 30
0.0
  0
VERTEX
  5
9E7
  8
0
  6
CONTINU
 10
97.08744539323521
 20
33.35835732228902
 30
0.0
  0
VERTEX
  5
9E8
  8
0
  6
CONTINU
 10
97.08674809488316
 20
33.35835732228902
 30
0.0
  0
SEQEND
  5
BA4
  8
0
  6
CONTINU
  0
POLYLINE
  5
7A6
  8
0
  6
CONTINU
 66
     1
 10
0.0
 20
0.0
 30
0.0
  0
VERTEX
  5
9E9
  8
0
  6
CONTINU
 10
97.08674809488316
 20
33.35835732228902
 30
0.0
  0
VERTEX
  5
9EA
  8
0
  6
CONTINU
 10
97.08605763219178
 20
33.35835732228902
 30
0.0
  0
SEQEND
  5
BA5
  8
0
  6
CONTINU
  0
POLYLINE
  5
7A7
  8
0
  6
CONTINU
 66
     1
 10
0.0
 20
0.0
 30
0.0
  0
VERTEX
  5
9EB
  8
0
  6
CONTINU
 10
97.08880474856504
 20
33.37175357875945
 30
0.0
  0
VERTEX
  5
9EC
  8
0
  6
CONTINU
 10
97.08811981460477
 20
33.37182185534996
 30
0.0
  0
SEQEND
  5
BA6
  8
0
  6
CONTINU
  0
POLYLINE
  5
7A8
  8
0
  6
CONTINU
 66
     1
 10
0.0
 20
0.0
 30
0.0
  0
VERTEX
  5
9ED
  8
0
  6
CONTINU
 10
97.08010504058284
 20
33.35835732228902
 30
0.0
  0
VERTEX
  5
9EE
  8
0
  6
CONTINU
 10
97.07982057193534
 20
33.35835732228902
 30
0.0
  0
SEQEND
  5
BA7
  8
0
  6
CONTINU
  0
POLYLINE
  5
7A9
  8
0
  6
CONTINU
 66
     1
 10
0.0
 20
0.0
 30
0.0
  0
VERTEX
  5
9EF
  8
0
  6
CONTINU
 10
97.08605763219178
 20
33.35835732228902
 30
0.0
  0
VERTEX
  5
9F0
  8
0
  6
CONTINU
 10
97.08536161028695
 20
33.35856529936028
 30
0.0
  0
SEQEND
  5
BA8
  8
0
  6
CONTINU
  0
POLYLINE
  5
7AA
  8
0
  6
CONTINU
 66
     1
 10
0.0
 20
0.0
 30
0.0
  0
VERTEX
  5
9F1
  8
0
  6
CONTINU
 10
97.08467549513671
 20
33.35878983595286
 30
0.0
  0
VERTEX
  5
9F2
  8
0
  6
CONTINU
 10
97.08394538724278
 20
33.35878983595286
 30
0.0
  0
SEQEND
  5
BA9
  8
0
  6
CONTINU
  0
POLYLINE
  5
7AB
  8
0
  6
CONTINU
 66
     1
 10
0.0
 20
0.0
 30
0.0
  0
VERTEX
  5
9F3
  8
0
  6
CONTINU
 10
97.08536161028695
 20
33.35856529936028
 30
0.0
  0
VERTEX
  5
9F4
  8
0
  6
CONTINU
 10
97.08467549513671
 20
33.35878983595286
 30
0.0
  0
SEQEND
  5
BAA
  8
0
  6
CONTINU
  0
POLYLINE
  5
7AC
  8
0
  6
CONTINU
 66
     1
 10
0.0
 20
0.0
 30
0.0
  0
VERTEX
  5
9F5
  8
0
  6
CONTINU
 10
97.07982057193534
 20
33.35835732228902
 30
0.0
  0
VERTEX
  5
9F6
  8
0
  6
CONTINU
 10
97.079544809801
 20
33.35848481459989
 30
0.0
  0
SEQEND
  5
BAB
  8
0
  6
CONTINU
  0
POLYLINE
  5
7AD
  8
0
  6
CONTINU
 66
     1
 10
0.0
 20
0.0
 30
0.0
  0
VERTEX
  5
9F7
  8
0
  6
CONTINU
 10
97.08067246710287
 20
33.37175358119311
 30
0.0
  0
VERTEX
  5
9F8
  8
0
  6
CONTINU
 10
97.08038875479288
 20
33.37182185916025
 30
0.0
  0
SEQEND
  5
BAC
  8
0
  6
CONTINU
  0
POLYLINE
  5
7AE
  8
0
  6
CONTINU
 66
     1
 10
0.0
 20
0.0
 30
0.0
  0
VERTEX
  5
9F9
  8
0
  6
CONTINU
 10
97.07929876793041
 20
33.35855021823158
 30
0.0
  0
VERTEX
  5
9FA
  8
0
  6
CONTINU
 10
97.07935295787796
 20
33.35835732228902
 30
0.0
  0
SEQEND
  5
BAD
  8
0
  6
CONTINU
  0
POLYLINE
  5
7AF
  8
0
  6
CONTINU
 66
     1
 10
0.0
 20
0.0
 30
0.0
  0
VERTEX
  5
9FB
  8
0
  6
CONTINU
 10
97.0894721818623
 20
33.37155619810529
 30
0.0
  0
VERTEX
  5
9FC
  8
0
  6
CONTINU
 10
97.08880474856504
 20
33.37175357875945
 30
0.0
  0
SEQEND
  5
BAE
  8
0
  6
CONTINU
  0
POLYLINE
  5
7B0
  8
0
  6
CONTINU
 66
     1
 10
0.0
 20
0.0
 30
0.0
  0
VERTEX
  5
9FD
  8
0
  6
CONTINU
 10
97.07935295787796
 20
33.35835732228902
 30
0.0
  0
VERTEX
  5
9FE
  8
0
  6
CONTINU
 10
97.07892727807607
 20
33.35878983595286
 30
0.0
  0
SEQEND
  5
BAF
  8
0
  6
CONTINU
  0
POLYLINE
  5
7B1
  8
0
  6
CONTINU
 66
     1
 10
0.0
 20
0.0
 30
0.0
  0
VERTEX
  5
9FF
  8
0
  6
CONTINU
 10
97.07892727807607
 20
33.35878983595286
 30
0.0
  0
VERTEX
  5
A00
  8
0
  6
CONTINU
 10
97.07860382433772
 20
33.35878983595286
 30
0.0
  0
SEQEND
  5
BB0
  8
0
  6
CONTINU
  0
POLYLINE
  5
7B2
  8
0
  6
CONTINU
 66
     1
 10
0.0
 20
0.0
 30
0.0
  0
VERTEX
  5
A01
  8
0
  6
CONTINU
 10
97.0901572682342
 20
33.37122086208331
 30
0.0
  0
VERTEX
  5
A02
  8
0
  6
CONTINU
 10
97.0894721818623
 20
33.37155619810529
 30
0.0
  0
SEQEND
  5
BB1
  8
0
  6
CONTINU
  0
POLYLINE
  5
7B3
  8
0
  6
CONTINU
 66
     1
 10
0.0
 20
0.0
 30
0.0
  0
VERTEX
  5
A03
  8
0
  6
CONTINU
 10
97.07935295787796
 20
33.35835732228902
 30
0.0
  0
VERTEX
  5
A04
  8
0
  6
CONTINU
 10
97.07860382433772
 20
33.35878983595286
 30
0.0
  0
SEQEND
  5
BB2
  8
0
  6
CONTINU
  0
POLYLINE
  5
7B4
  8
0
  6
CONTINU
 66
     1
 10
0.0
 20
0.0
 30
0.0
  0
VERTEX
  5
A05
  8
0
  6
CONTINU
 10
97.09085325203611
 20
33.37074516259007
 30
0.0
  0
VERTEX
  5
A06
  8
0
  6
CONTINU
 10
97.0901572682342
 20
33.37122086208331
 30
0.0
  0
SEQEND
  5
BB3
  8
0
  6
CONTINU
  0
POLYLINE
  5
7B5
  8
0
  6
CONTINU
 66
     1
 10
0.0
 20
0.0
 30
0.0
  0
VERTEX
  5
A07
  8
0
  6
CONTINU
 10
97.08095693384013
 20
33.37154857752484
 30
0.0
  0
VERTEX
  5
A08
  8
0
  6
CONTINU
 10
97.08067246710287
 20
33.37175358119311
 30
0.0
  0
SEQEND
  5
BB4
  8
0
  6
CONTINU
  0
POLYLINE
  5
7B6
  8
0
  6
CONTINU
 66
     1
 10
0.0
 20
0.0
 30
0.0
  0
VERTEX
  5
A09
  8
0
  6
CONTINU
 10
97.09158145565216
 20
33.37010578827
 30
0.0
  0
VERTEX
  5
A0A
  8
0
  6
CONTINU
 10
97.09085325203611
 20
33.37074516259007
 30
0.0
  0
SEQEND
  5
BB5
  8
0
  6
CONTINU
  0
POLYLINE
  5
7B7
  8
0
  6
CONTINU
 66
     1
 10
0.0
 20
0.0
 30
0.0
  0
VERTEX
  5
A0B
  8
0
  6
CONTINU
 10
97.09229421616193
 20
33.36934461802294
 30
0.0
  0
VERTEX
  5
A0C
  8
0
  6
CONTINU
 10
97.09158145565216
 20
33.37010578827
 30
0.0
  0
SEQEND
  5
BB6
  8
0
  6
CONTINU
  0
POLYLINE
  5
7B8
  8
0
  6
CONTINU
 66
     1
 10
0.0
 20
0.0
 30
0.0
  0
VERTEX
  5
A0D
  8
0
  6
CONTINU
 10
97.08124293803459
 20
33.37120628010262
 30
0.0
  0
VERTEX
  5
A0E
  8
0
  6
CONTINU
 10
97.08095693384013
 20
33.37154857752484
 30
0.0
  0
SEQEND
  5
BB7
  8
0
  6
CONTINU
  0
POLYLINE
  5
7B9
  8
0
  6
CONTINU
 66
     1
 10
0.0
 20
0.0
 30
0.0
  0
VERTEX
  5
A0F
  8
0
  6
CONTINU
 10
97.08152098253277
 20
33.37074517402094
 30
0.0
  0
VERTEX
  5
A10
  8
0
  6
CONTINU
 10
97.08124293803459
 20
33.37120628010262
 30
0.0
  0
SEQEND
  5
BB8
  8
0
  6
CONTINU
  0
POLYLINE
  5
7BA
  8
0
  6
CONTINU
 66
     1
 10
0.0
 20
0.0
 30
0.0
  0
VERTEX
  5
A11
  8
0
  6
CONTINU
 10
97.08181543414065
 20
33.37012265261453
 30
0.0
  0
VERTEX
  5
A12
  8
0
  6
CONTINU
 10
97.08152098253277
 20
33.37074517402094
 30
0.0
  0
SEQEND
  5
BB9
  8
0
  6
CONTINU
  0
POLYLINE
  5
7BB
  8
0
  6
CONTINU
 66
     1
 10
0.0
 20
0.0
 30
0.0
  0
VERTEX
  5
A13
  8
0
  6
CONTINU
 10
97.08211784925511
 20
33.36934461802294
 30
0.0
  0
VERTEX
  5
A14
  8
0
  6
CONTINU
 10
97.08181543414065
 20
33.37012265261453
 30
0.0
  0
SEQEND
  5
BBA
  8
0
  6
CONTINU
  0
POLYLINE
  5
7BC
  8
0
  6
CONTINU
 66
     1
 10
0.0
 20
0.0
 30
0.0
  0
VERTEX
  5
A15
  8
0
  6
CONTINU
 10
97.09358649514266
 20
33.35835732228902
 30
0.0
  0
VERTEX
  5
A16
  8
0
  6
CONTINU
 10
97.07935295787796
 20
33.35835732228902
 30
0.0
  0
SEQEND
  5
BBB
  8
0
  6
CONTINU
  0
POLYLINE
  5
7BD
  8
0
  6
CONTINU
 66
     1
 10
0.0
 20
0.0
 30
0.0
  0
VERTEX
  5
A17
  8
0
  6
CONTINU
 10
97.09358649514266
 20
33.3883226677092
 30
0.0
  0
VERTEX
  5
A18
  8
0
  6
CONTINU
 10
97.08394764587766
 20
33.3883226677092
 30
0.0
  0
SEQEND
  5
BBC
  8
0
  6
CONTINU
  0
POLYLINE
  5
7BE
  8
0
  6
CONTINU
 66
     1
 10
0.0
 20
0.0
 30
0.0
  0
VERTEX
  5
A19
  8
0
  6
CONTINU
 10
97.0956088638331
 20
33.35878983595286
 30
0.0
  0
VERTEX
  5
A1A
  8
0
  6
CONTINU
 10
97.09629498279364
 20
33.35856529936028
 30
0.0
  0
SEQEND
  5
BBD
  8
0
  6
CONTINU
  0
POLYLINE
  5
7BF
  8
0
  6
CONTINU
 66
     1
 10
0.0
 20
0.0
 30
0.0
  0
VERTEX
  5
A1B
  8
0
  6
CONTINU
 10
97.09487877412339
 20
33.35878983595286
 30
0.0
  0
VERTEX
  5
A1C
  8
0
  6
CONTINU
 10
97.0956088638331
 20
33.35878983595286
 30
0.0
  0
SEQEND
  5
BBE
  8
0
  6
CONTINU
  0
POLYLINE
  5
7C0
  8
0
  6
CONTINU
 66
     1
 10
0.0
 20
0.0
 30
0.0
  0
VERTEX
  5
A1D
  8
0
  6
CONTINU
 10
97.10622406948555
 20
33.35835732228902
 30
0.0
  0
VERTEX
  5
A1E
  8
0
  6
CONTINU
 10
97.10650488025443
 20
33.35835732228902
 30
0.0
  0
SEQEND
  5
BBF
  8
0
  6
CONTINU
  0
POLYLINE
  5
7C1
  8
0
  6
CONTINU
 66
     1
 10
0.0
 20
0.0
 30
0.0
  0
VERTEX
  5
A1F
  8
0
  6
CONTINU
 10
97.09629498279364
 20
33.35856529936028
 30
0.0
  0
VERTEX
  5
A20
  8
0
  6
CONTINU
 10
97.09701572586143
 20
33.35835732228902
 30
0.0
  0
SEQEND
  5
BC0
  8
0
  6
CONTINU
  0
POLYLINE
  5
7C2
  8
0
  6
CONTINU
 66
     1
 10
0.0
 20
0.0
 30
0.0
  0
VERTEX
  5
A21
  8
0
  6
CONTINU
 10
97.09701572586143
 20
33.35835732228902
 30
0.0
  0
VERTEX
  5
A22
  8
0
  6
CONTINU
 10
97.09768146738985
 20
33.35835732228902
 30
0.0
  0
SEQEND
  5
BC1
  8
0
  6
CONTINU
  0
POLYLINE
  5
7C3
  8
0
  6
CONTINU
 66
     1
 10
0.0
 20
0.0
 30
0.0
  0
VERTEX
  5
A23
  8
0
  6
CONTINU
 10
97.09905317949085
 20
33.37182185534996
 30
0.0
  0
VERTEX
  5
A24
  8
0
  6
CONTINU
 10
97.09973810964084
 20
33.37175358256973
 30
0.0
  0
SEQEND
  5
BC2
  8
0
  6
CONTINU
  0
POLYLINE
  5
7C4
  8
0
  6
CONTINU
 66
     1
 10
0.0
 20
0.0
 30
0.0
  0
VERTEX
  5
A25
  8
0
  6
CONTINU
 10
97.09768146738985
 20
33.35835732228902
 30
0.0
  0
VERTEX
  5
A26
  8
0
  6
CONTINU
 10
97.0983682417203
 20
33.35835732228902
 30
0.0
  0
SEQEND
  5
BC3
  8
0
  6
CONTINU
  0
POLYLINE
  5
7C5
  8
0
  6
CONTINU
 66
     1
 10
0.0
 20
0.0
 30
0.0
  0
VERTEX
  5
A27
  8
0
  6
CONTINU
 10
97.0983682417203
 20
33.35835732228902
 30
0.0
  0
VERTEX
  5
A28
  8
0
  6
CONTINU
 10
97.09905317949085
 20
33.35835732228902
 30
0.0
  0
SEQEND
  5
BC4
  8
0
  6
CONTINU
  0
POLYLINE
  5
7C6
  8
0
  6
CONTINU
 66
     1
 10
0.0
 20
0.0
 30
0.0
  0
VERTEX
  5
A29
  8
0
  6
CONTINU
 10
97.09905317949085
 20
33.35835732228902
 30
0.0
  0
VERTEX
  5
A2A
  8
0
  6
CONTINU
 10
97.0997276008604
 20
33.35835732228902
 30
0.0
  0
SEQEND
  5
BC5
  8
0
  6
CONTINU
  0
POLYLINE
  5
7C7
  8
0
  6
CONTINU
 66
     1
 10
0.0
 20
0.0
 30
0.0
  0
VERTEX
  5
A2B
  8
0
  6
CONTINU
 10
97.10678423549246
 20
33.35835732228902
 30
0.0
  0
VERTEX
  5
A2C
  8
0
  6
CONTINU
 10
97.10706794970248
 20
33.35835732228902
 30
0.0
  0
SEQEND
  5
BC6
  8
0
  6
CONTINU
  0
POLYLINE
  5
7C8
  8
0
  6
CONTINU
 66
     1
 10
0.0
 20
0.0
 30
0.0
  0
VERTEX
  5
A2D
  8
0
  6
CONTINU
 10
97.0997276008604
 20
33.35835732228902
 30
0.0
  0
VERTEX
  5
A2E
  8
0
  6
CONTINU
 10
97.10042489159187
 20
33.35835732228902
 30
0.0
  0
SEQEND
  5
BC7
  8
0
  6
CONTINU
  0
POLYLINE
  5
7C9
  8
0
  6
CONTINU
 66
     1
 10
0.0
 20
0.0
 30
0.0
  0
VERTEX
  5
A2F
  8
0
  6
CONTINU
 10
97.10042489159187
 20
33.35835732228902
 30
0.0
  0
VERTEX
  5
A30
  8
0
  6
CONTINU
 10
97.10111535428327
 20
33.35835732228902
 30
0.0
  0
SEQEND
  5
BC8
  8
0
  6
CONTINU
  0
POLYLINE
  5
7CA
  8
0
  6
CONTINU
 66
     1
 10
0.0
 20
0.0
 30
0.0
  0
VERTEX
  5
A31
  8
0
  6
CONTINU
 10
97.0983682417203
 20
33.37175357875945
 30
0.0
  0
VERTEX
  5
A32
  8
0
  6
CONTINU
 10
97.09905317949085
 20
33.37182185534996
 30
0.0
  0
SEQEND
  5
BC9
  8
0
  6
CONTINU
  0
POLYLINE
  5
7CB
  8
0
  6
CONTINU
 66
     1
 10
0.0
 20
0.0
 30
0.0
  0
VERTEX
  5
A33
  8
0
  6
CONTINU
 10
97.10706794970248
 20
33.35835732228902
 30
0.0
  0
VERTEX
  5
A34
  8
0
  6
CONTINU
 10
97.10734440911993
 20
33.35835732228902
 30
0.0
  0
SEQEND
  5
BCA
  8
0
  6
CONTINU
  0
POLYLINE
  5
7CC
  8
0
  6
CONTINU
 66
     1
 10
0.0
 20
0.0
 30
0.0
  0
VERTEX
  5
A35
  8
0
  6
CONTINU
 10
97.10111535428327
 20
33.35835732228902
 30
0.0
  0
VERTEX
  5
A36
  8
0
  6
CONTINU
 10
97.10181137999837
 20
33.35856529936028
 30
0.0
  0
SEQEND
  5
BCB
  8
0
  6
CONTINU
  0
POLYLINE
  5
7CD
  8
0
  6
CONTINU
 66
     1
 10
0.0
 20
0.0
 30
0.0
  0
VERTEX
  5
A37
  8
0
  6
CONTINU
 10
97.10249749895891
 20
33.35878983595286
 30
0.0
  0
VERTEX
  5
A38
  8
0
  6
CONTINU
 10
97.10322760304244
 20
33.35878983595286
 30
0.0
  0
SEQEND
  5
BCC
  8
0
  6
CONTINU
  0
POLYLINE
  5
7CE
  8
0
  6
CONTINU
 66
     1
 10
0.0
 20
0.0
 30
0.0
  0
VERTEX
  5
A39
  8
0
  6
CONTINU
 10
97.10181137999837
 20
33.35856529936028
 30
0.0
  0
VERTEX
  5
A3A
  8
0
  6
CONTINU
 10
97.10249749895891
 20
33.35878983595286
 30
0.0
  0
SEQEND
  5
BCD
  8
0
  6
CONTINU
  0
POLYLINE
  5
7CF
  8
0
  6
CONTINU
 66
     1
 10
0.0
 20
0.0
 30
0.0
  0
VERTEX
  5
A3B
  8
0
  6
CONTINU
 10
97.10734440911993
 20
33.35835732228902
 30
0.0
  0
VERTEX
  5
A3C
  8
0
  6
CONTINU
 10
97.10763842635474
 20
33.3584871884107
 30
0.0
  0
SEQEND
  5
BCE
  8
0
  6
CONTINU
  0
POLYLINE
  5
7D0
  8
0
  6
CONTINU
 66
     1
 10
0.0
 20
0.0
 30
0.0
  0
VERTEX
  5
A3D
  8
0
  6
CONTINU
 10
97.106500528903
 20
33.37175358256973
 30
0.0
  0
VERTEX
  5
A3E
  8
0
  6
CONTINU
 10
97.10678423549246
 20
33.37182185916025
 30
0.0
  0
SEQEND
  5
BCF
  8
0
  6
CONTINU
  0
POLYLINE
  5
7D1
  8
0
  6
CONTINU
 66
     1
 10
0.0
 20
0.0
 30
0.0
  0
VERTEX
  5
A3F
  8
0
  6
CONTINU
 10
97.10787422235492
 20
33.35855021823158
 30
0.0
  0
VERTEX
  5
A40
  8
0
  6
CONTINU
 10
97.10782003240736
 20
33.35835732228902
 30
0.0
  0
SEQEND
  5
BD0
  8
0
  6
CONTINU
  0
POLYLINE
  5
7D2
  8
0
  6
CONTINU
 66
     1
 10
0.0
 20
0.0
 30
0.0
  0
VERTEX
  5
A41
  8
0
  6
CONTINU
 10
97.09770080842301
 20
33.37155619810529
 30
0.0
  0
VERTEX
  5
A42
  8
0
  6
CONTINU
 10
97.0983682417203
 20
33.37175357875945
 30
0.0
  0
SEQEND
  5
BD1
  8
0
  6
CONTINU
  0
POLYLINE
  5
7D3
  8
0
  6
CONTINU
 66
     1
 10
0.0
 20
0.0
 30
0.0
  0
VERTEX
  5
A43
  8
0
  6
CONTINU
 10
97.10782003240736
 20
33.35835732228902
 30
0.0
  0
VERTEX
  5
A44
  8
0
  6
CONTINU
 10
97.10824570935155
 20
33.35878983595286
 30
0.0
  0
SEQEND
  5
BD2
  8
0
  6
CONTINU
  0
POLYLINE
  5
7D4
  8
0
  6
CONTINU
 66
     1
 10
0.0
 20
0.0
 30
0.0
  0
VERTEX
  5
A45
  8
0
  6
CONTINU
 10
97.10824570935155
 20
33.35878983595286
 30
0.0
  0
VERTEX
  5
A46
  8
0
  6
CONTINU
 10
97.10856916594761
 20
33.35878983595286
 30
0.0
  0
SEQEND
  5
BD3
  8
0
  6
CONTINU
  0
POLYLINE
  5
7D5
  8
0
  6
CONTINU
 66
     1
 10
0.0
 20
0.0
 30
0.0
  0
VERTEX
  5
A47
  8
0
  6
CONTINU
 10
97.09701572586143
 20
33.37122086208331
 30
0.0
  0
VERTEX
  5
A48
  8
0
  6
CONTINU
 10
97.09770080842301
 20
33.37155619810529
 30
0.0
  0
SEQEND
  5
BD4
  8
0
  6
CONTINU
  0
POLYLINE
  5
7D6
  8
0
  6
CONTINU
 66
     1
 10
0.0
 20
0.0
 30
0.0
  0
VERTEX
  5
A49
  8
0
  6
CONTINU
 10
97.10782003240736
 20
33.35835732228902
 30
0.0
  0
VERTEX
  5
A4A
  8
0
  6
CONTINU
 10
97.10856916594761
 20
33.35878983595286
 30
0.0
  0
SEQEND
  5
BD5
  8
0
  6
CONTINU
  0
POLYLINE
  5
7D7
  8
0
  6
CONTINU
 66
     1
 10
0.0
 20
0.0
 30
0.0
  0
VERTEX
  5
A4B
  8
0
  6
CONTINU
 10
97.10622406186496
 20
33.37155620191558
 30
0.0
  0
VERTEX
  5
A4C
  8
0
  6
CONTINU
 10
97.106500528903
 20
33.37175358256973
 30
0.0
  0
SEQEND
  5
BD6
  8
0
  6
CONTINU
  0
POLYLINE
  5
7D8
  8
0
  6
CONTINU
 66
     1
 10
0.0
 20
0.0
 30
0.0
  0
VERTEX
  5
A4D
  8
0
  6
CONTINU
 10
97.09629497898334
 20
33.37072578345399
 30
0.0
  0
VERTEX
  5
A4E
  8
0
  6
CONTINU
 10
97.09701572586143
 20
33.37122086208331
 30
0.0
  0
SEQEND
  5
BD7
  8
0
  6
CONTINU
  0
POLYLINE
  5
7D9
  8
0
  6
CONTINU
 66
     1
 10
0.0
 20
0.0
 30
0.0
  0
VERTEX
  5
A4F
  8
0
  6
CONTINU
 10
97.09559153844346
 20
33.37010578827
 30
0.0
  0
VERTEX
  5
A50
  8
0
  6
CONTINU
 10
97.09629497898334
 20
33.37072578345399
 30
0.0
  0
SEQEND
  5
BD8
  8
0
  6
CONTINU
  0
POLYLINE
  5
7DA
  8
0
  6
CONTINU
 66
     1
 10
0.0
 20
0.0
 30
0.0
  0
VERTEX
  5
A51
  8
0
  6
CONTINU
 10
97.09487877412339
 20
33.36934461802294
 30
0.0
  0
VERTEX
  5
A52
  8
0
  6
CONTINU
 10
97.09559153844346
 20
33.37010578827
 30
0.0
  0
SEQEND
  5
BD9
  8
0
  6
CONTINU
  0
POLYLINE
  5
7DB
  8
0
  6
CONTINU
 66
     1
 10
0.0
 20
0.0
 30
0.0
  0
VERTEX
  5
A53
  8
0
  6
CONTINU
 10
97.10594029431087
 20
33.37122086208331
 30
0.0
  0
VERTEX
  5
A54
  8
0
  6
CONTINU
 10
97.10622406186496
 20
33.37155620191558
 30
0.0
  0
SEQEND
  5
BDA
  8
0
  6
CONTINU
  0
POLYLINE
  5
7DC
  8
0
  6
CONTINU
 66
     1
 10
0.0
 20
0.0
 30
0.0
  0
VERTEX
  5
A55
  8
0
  6
CONTINU
 10
97.10564175045128
 20
33.37072578345399
 30
0.0
  0
VERTEX
  5
A56
  8
0
  6
CONTINU
 10
97.10594029431087
 20
33.37122086208331
 30
0.0
  0
SEQEND
  5
BDB
  8
0
  6
CONTINU
  0
POLYLINE
  5
7DD
  8
0
  6
CONTINU
 66
     1
 10
0.0
 20
0.0
 30
0.0
  0
VERTEX
  5
A57
  8
0
  6
CONTINU
 10
97.10535755614467
 20
33.37012265261453
 30
0.0
  0
VERTEX
  5
A58
  8
0
  6
CONTINU
 10
97.10564175045128
 20
33.37072578345399
 30
0.0
  0
SEQEND
  5
BDC
  8
0
  6
CONTINU
  0
POLYLINE
  5
7DE
  8
0
  6
CONTINU
 66
     1
 10
0.0
 20
0.0
 30
0.0
  0
VERTEX
  5
A59
  8
0
  6
CONTINU
 10
97.10505514103022
 20
33.36934461802294
 30
0.0
  0
VERTEX
  5
A5A
  8
0
  6
CONTINU
 10
97.10535755614467
 20
33.37012265261453
 30
0.0
  0
SEQEND
  5
BDD
  8
0
  6
CONTINU
  0
POLYLINE
  5
7DF
  8
0
  6
CONTINU
 66
     1
 10
0.0
 20
0.0
 30
0.0
  0
VERTEX
  5
A5B
  8
0
  6
CONTINU
 10
97.09358649514266
 20
33.35835732228902
 30
0.0
  0
VERTEX
  5
A5C
  8
0
  6
CONTINU
 10
97.10782003240736
 20
33.35835732228902
 30
0.0
  0
SEQEND
  5
BDE
  8
0
  6
CONTINU
  0
POLYLINE
  5
7E0
  8
0
  6
CONTINU
 66
     1
 10
0.0
 20
0.0
 30
0.0
  0
VERTEX
  5
A5D
  8
0
  6
CONTINU
 10
97.09358649514266
 20
33.3883226677092
 30
0.0
  0
VERTEX
  5
A5E
  8
0
  6
CONTINU
 10
97.10322534059739
 20
33.38832266961435
 30
0.0
  0
SEQEND
  5
BDF
  8
0
  6
CONTINU
  0
POLYLINE
  5
7E1
  8
0
  6
CONTINU
 66
     1
 10
0.0
 20
0.0
 30
0.0
  0
VERTEX
  5
A5F
  8
0
  6
CONTINU
 10
97.09358649514266
 20
33.35878983595286
 30
0.0
  0
VERTEX
  5
A60
  8
0
  6
CONTINU
 10
97.07860382433772
 20
33.35878983595286
 30
0.0
  0
SEQEND
  5
BE0
  8
0
  6
CONTINU
  0
POLYLINE
  5
7E2
  8
0
  6
CONTINU
 66
     1
 10
0.0
 20
0.0
 30
0.0
  0
VERTEX
  5
A61
  8
0
  6
CONTINU
 10
97.09229421616193
 20
33.35878983595286
 30
0.0
  0
VERTEX
  5
A62
  8
0
  6
CONTINU
 10
97.09229421616193
 20
33.36934461802294
 30
0.0
  0
SEQEND
  5
BE1
  8
0
  6
CONTINU
  0
POLYLINE
  5
7E3
  8
0
  6
CONTINU
 66
     1
 10
0.0
 20
0.0
 30
0.0
  0
VERTEX
  5
A63
  8
0
  6
CONTINU
 10
97.08394538724278
 20
33.35878983595286
 30
0.0
  0
VERTEX
  5
A64
  8
0
  6
CONTINU
 10
97.08394540923729
 20
33.36934461802294
 30
0.0
  0
SEQEND
  5
BE2
  8
0
  6
CONTINU
  0
POLYLINE
  5
7E4
  8
0
  6
CONTINU
 66
     1
 10
0.0
 20
0.0
 30
0.0
  0
VERTEX
  5
A65
  8
0
  6
CONTINU
 10
97.08211784925511
 20
33.35878983595286
 30
0.0
  0
VERTEX
  5
A66
  8
0
  6
CONTINU
 10
97.08211784925511
 20
33.36934461802294
 30
0.0
  0
SEQEND
  5
BE3
  8
0
  6
CONTINU
  0
POLYLINE
  5
7E5
  8
0
  6
CONTINU
 66
     1
 10
0.0
 20
0.0
 30
0.0
  0
VERTEX
  5
A67
  8
0
  6
CONTINU
 10
97.07860382433772
 20
33.35878983595286
 30
0.0
  0
VERTEX
  5
A68
  8
0
  6
CONTINU
 10
97.07860382433772
 20
33.36934461802294
 30
0.0
  0
SEQEND
  5
BE4
  8
0
  6
CONTINU
  0
POLYLINE
  5
7E6
  8
0
  6
CONTINU
 66
     1
 10
0.0
 20
0.0
 30
0.0
  0
VERTEX
  5
A69
  8
0
  6
CONTINU
 10
97.08394764587766
 20
33.3883226677092
 30
0.0
  0
VERTEX
  5
A6A
  8
0
  6
CONTINU
 10
97.07860382433772
 20
33.36934461802294
 30
0.0
  0
SEQEND
  5
BE5
  8
0
  6
CONTINU
  0
POLYLINE
  5
7E7
  8
0
  6
CONTINU
 66
     1
 10
0.0
 20
0.0
 30
0.0
  0
VERTEX
  5
A6B
  8
0
  6
CONTINU
 10
97.07882819808452
 20
33.37014145910585
 30
0.0
  0
VERTEX
  5
A6C
  8
0
  6
CONTINU
 10
97.07860382433772
 20
33.36934461802294
 30
0.0
  0
SEQEND
  5
BE6
  8
0
  6
CONTINU
  0
POLYLINE
  5
7E8
  8
0
  6
CONTINU
 66
     1
 10
0.0
 20
0.0
 30
0.0
  0
VERTEX
  5
A6D
  8
0
  6
CONTINU
 10
97.0792462697517
 20
33.37072578345399
 30
0.0
  0
VERTEX
  5
A6E
  8
0
  6
CONTINU
 10
97.07882819808452
 20
33.37014145910585
 30
0.0
  0
SEQEND
  5
BE7
  8
0
  6
CONTINU
  0
POLYLINE
  5
7E9
  8
0
  6
CONTINU
 66
     1
 10
0.0
 20
0.0
 30
0.0
  0
VERTEX
  5
A6F
  8
0
  6
CONTINU
 10
97.07953457155118
 20
33.37120628010262
 30
0.0
  0
VERTEX
  5
A70
  8
0
  6
CONTINU
 10
97.0792462697517
 20
33.37072578345399
 30
0.0
  0
SEQEND
  5
BE8
  8
0
  6
CONTINU
  0
POLYLINE
  5
7EA
  8
0
  6
CONTINU
 66
     1
 10
0.0
 20
0.0
 30
0.0
  0
VERTEX
  5
A71
  8
0
  6
CONTINU
 10
97.07982858116539
 20
33.37155620191558
 30
0.0
  0
VERTEX
  5
A72
  8
0
  6
CONTINU
 10
97.07953457155118
 20
33.37120628010262
 30
0.0
  0
SEQEND
  5
BE9
  8
0
  6
CONTINU
  0
POLYLINE
  5
7EB
  8
0
  6
CONTINU
 66
     1
 10
0.0
 20
0.0
 30
0.0
  0
VERTEX
  5
A73
  8
0
  6
CONTINU
 10
97.08465816974707
 20
33.37010578445971
 30
0.0
  0
VERTEX
  5
A74
  8
0
  6
CONTINU
 10
97.08394540923729
 20
33.36934461802294
 30
0.0
  0
SEQEND
  5
BEA
  8
0
  6
CONTINU
  0
POLYLINE
  5
7EC
  8
0
  6
CONTINU
 66
     1
 10
0.0
 20
0.0
 30
0.0
  0
VERTEX
  5
A75
  8
0
  6
CONTINU
 10
97.09358649514266
 20
33.35878983595286
 30
0.0
  0
VERTEX
  5
A76
  8
0
  6
CONTINU
 10
97.10856916594761
 20
33.35878983595286
 30
0.0
  0
SEQEND
  5
BEB
  8
0
  6
CONTINU
  0
POLYLINE
  5
7ED
  8
0
  6
CONTINU
 66
     1
 10
0.0
 20
0.0
 30
0.0
  0
VERTEX
  5
A77
  8
0
  6
CONTINU
 10
97.09487877412339
 20
33.35878983595286
 30
0.0
  0
VERTEX
  5
A78
  8
0
  6
CONTINU
 10
97.09487877412339
 20
33.36934461802294
 30
0.0
  0
SEQEND
  5
BEC
  8
0
  6
CONTINU
  0
POLYLINE
  5
7EE
  8
0
  6
CONTINU
 66
     1
 10
0.0
 20
0.0
 30
0.0
  0
VERTEX
  5
A79
  8
0
  6
CONTINU
 10
97.10322760304244
 20
33.35878983595286
 30
0.0
  0
VERTEX
  5
A7A
  8
0
  6
CONTINU
 10
97.10322758104803
 20
33.36934461802294
 30
0.0
  0
SEQEND
  5
BED
  8
0
  6
CONTINU
  0
POLYLINE
  5
7EF
  8
0
  6
CONTINU
 66
     1
 10
0.0
 20
0.0
 30
0.0
  0
VERTEX
  5
A7B
  8
0
  6
CONTINU
 10
97.10505514103022
 20
33.35878983595286
 30
0.0
  0
VERTEX
  5
A7C
  8
0
  6
CONTINU
 10
97.10505514103022
 20
33.36934461802294
 30
0.0
  0
SEQEND
  5
BEE
  8
0
  6
CONTINU
  0
POLYLINE
  5
7F0
  8
0
  6
CONTINU
 66
     1
 10
0.0
 20
0.0
 30
0.0
  0
VERTEX
  5
A7D
  8
0
  6
CONTINU
 10
97.10856916594761
 20
33.35878983595286
 30
0.0
  0
VERTEX
  5
A7E
  8
0
  6
CONTINU
 10
97.10856916594761
 20
33.36934461802294
 30
0.0
  0
SEQEND
  5
BEF
  8
0
  6
CONTINU
  0
POLYLINE
  5
7F1
  8
0
  6
CONTINU
 66
     1
 10
0.0
 20
0.0
 30
0.0
  0
VERTEX
  5
A7F
  8
0
  6
CONTINU
 10
97.10322534059739
 20
33.38832266961435
 30
0.0
  0
VERTEX
  5
A80
  8
0
  6
CONTINU
 10
97.10856916594761
 20
33.36934461802294
 30
0.0
  0
SEQEND
  5
BF0
  8
0
  6
CONTINU
  0
POLYLINE
  5
7F2
  8
0
  6
CONTINU
 66
     1
 10
0.0
 20
0.0
 30
0.0
  0
VERTEX
  5
A81
  8
0
  6
CONTINU
 10
97.10833986460797
 20
33.37015895838188
 30
0.0
  0
VERTEX
  5
A82
  8
0
  6
CONTINU
 10
97.10856916594761
 20
33.36934461802294
 30
0.0
  0
SEQEND
  5
BF1
  8
0
  6
CONTINU
  0
POLYLINE
  5
7F3
  8
0
  6
CONTINU
 66
     1
 10
0.0
 20
0.0
 30
0.0
  0
VERTEX
  5
A83
  8
0
  6
CONTINU
 10
97.10792672053363
 20
33.37072578345399
 30
0.0
  0
VERTEX
  5
A84
  8
0
  6
CONTINU
 10
97.10833986460797
 20
33.37015895838188
 30
0.0
  0
SEQEND
  5
BF2
  8
0
  6
CONTINU
  0
POLYLINE
  5
7F4
  8
0
  6
CONTINU
 66
     1
 10
0.0
 20
0.0
 30
0.0
  0
VERTEX
  5
A85
  8
0
  6
CONTINU
 10
97.10763841873415
 20
33.37120628010262
 30
0.0
  0
VERTEX
  5
A86
  8
0
  6
CONTINU
 10
97.10792672053363
 20
33.37072578345399
 30
0.0
  0
SEQEND
  5
BF3
  8
0
  6
CONTINU
  0
POLYLINE
  5
7F5
  8
0
  6
CONTINU
 66
     1
 10
0.0
 20
0.0
 30
0.0
  0
VERTEX
  5
A87
  8
0
  6
CONTINU
 10
97.10734440911993
 20
33.37155620191558
 30
0.0
  0
VERTEX
  5
A88
  8
0
  6
CONTINU
 10
97.10763841873415
 20
33.37120628010262
 30
0.0
  0
SEQEND
  5
BF4
  8
0
  6
CONTINU
  0
POLYLINE
  5
7F6
  8
0
  6
CONTINU
 66
     1
 10
0.0
 20
0.0
 30
0.0
  0
VERTEX
  5
A89
  8
0
  6
CONTINU
 10
97.10251482053826
 20
33.37010578445971
 30
0.0
  0
VERTEX
  5
A8A
  8
0
  6
CONTINU
 10
97.10322758104803
 20
33.36934461802294
 30
0.0
  0
SEQEND
  5
BF5
  8
0
  6
CONTINU
  0
POLYLINE
  5
7F7
  8
0
  6
CONTINU
 66
     1
 10
0.0
 20
0.0
 30
0.0
  0
VERTEX
  5
A8B
  8
0
  6
CONTINU
 10
97.10181137999837
 20
33.37072578345399
 30
0.0
  0
VERTEX
  5
A8C
  8
0
  6
CONTINU
 10
97.10251482053826
 20
33.37010578445971
 30
0.0
  0
SEQEND
  5
BF6
  8
0
  6
CONTINU
  0
POLYLINE
  5
7F8
  8
0
  6
CONTINU
 66
     1
 10
0.0
 20
0.0
 30
0.0
  0
VERTEX
  5
A8D
  8
0
  6
CONTINU
 10
97.10111536190384
 20
33.3712062877232
 30
0.0
  0
VERTEX
  5
A8E
  8
0
  6
CONTINU
 10
97.10181137999837
 20
33.37072578345399
 30
0.0
  0
SEQEND
  5
BF7
  8
0
  6
CONTINU
  0
POLYLINE
  5
7F9
  8
0
  6
CONTINU
 66
     1
 10
0.0
 20
0.0
 30
0.0
  0
VERTEX
  5
A8F
  8
0
  6
CONTINU
 10
97.10706794208191
 20
33.37175358638002
 30
0.0
  0
VERTEX
  5
A90
  8
0
  6
CONTINU
 10
97.10734440911993
 20
33.37155620191558
 30
0.0
  0
SEQEND
  5
BF8
  8
0
  6
CONTINU
  0
POLYLINE
  5
7FA
  8
0
  6
CONTINU
 66
     1
 10
0.0
 20
0.0
 30
0.0
  0
VERTEX
  5
A91
  8
0
  6
CONTINU
 10
97.1004055505587
 20
33.37155620953616
 30
0.0
  0
VERTEX
  5
A92
  8
0
  6
CONTINU
 10
97.10111536190384
 20
33.3712062877232
 30
0.0
  0
SEQEND
  5
BF9
  8
0
  6
CONTINU
  0
POLYLINE
  5
7FB
  8
0
  6
CONTINU
 66
     1
 10
0.0
 20
0.0
 30
0.0
  0
VERTEX
  5
A93
  8
0
  6
CONTINU
 10
97.10505514103022
 20
33.35878983595286
 30
0.0
  0
VERTEX
  5
A94
  8
0
  6
CONTINU
 10
97.1053503775579
 20
33.35878983595286
 30
0.0
  0
SEQEND
  5
BFA
  8
0
  6
CONTINU
  0
POLYLINE
  5
7FC
  8
0
  6
CONTINU
 66
     1
 10
0.0
 20
0.0
 30
0.0
  0
VERTEX
  5
A95
  8
0
  6
CONTINU
 10
97.1053503775579
 20
33.35878983595286
 30
0.0
  0
VERTEX
  5
A96
  8
0
  6
CONTINU
 10
97.10565200775255
 20
33.35856215206056
 30
0.0
  0
SEQEND
  5
BFB
  8
0
  6
CONTINU
  0
POLYLINE
  5
7FD
  8
0
  6
CONTINU
 66
     1
 10
0.0
 20
0.0
 30
0.0
  0
VERTEX
  5
A97
  8
0
  6
CONTINU
 10
97.09973810964084
 20
33.37175358256973
 30
0.0
  0
VERTEX
  5
A98
  8
0
  6
CONTINU
 10
97.1004055505587
 20
33.37155620953616
 30
0.0
  0
SEQEND
  5
BFC
  8
0
  6
CONTINU
  0
POLYLINE
  5
7FE
  8
0
  6
CONTINU
 66
     1
 10
0.0
 20
0.0
 30
0.0
  0
VERTEX
  5
A99
  8
0
  6
CONTINU
 10
97.10565200775255
 20
33.35856215206056
 30
0.0
  0
VERTEX
  5
A9A
  8
0
  6
CONTINU
 10
97.10593005225074
 20
33.35835732228902
 30
0.0
  0
SEQEND
  5
BFD
  8
0
  6
CONTINU
  0
POLYLINE
  5
7FF
  8
0
  6
CONTINU
 66
     1
 10
0.0
 20
0.0
 30
0.0
  0
VERTEX
  5
A9B
  8
0
  6
CONTINU
 10
97.10678423549246
 20
33.37182185916025
 30
0.0
  0
VERTEX
  5
A9C
  8
0
  6
CONTINU
 10
97.10706794208191
 20
33.37175358638002
 30
0.0
  0
SEQEND
  5
BFE
  8
0
  6
CONTINU
  0
POLYLINE
  5
800
  8
0
  6
CONTINU
 66
     1
 10
0.0
 20
0.0
 30
0.0
  0
VERTEX
  5
A9D
  8
0
  6
CONTINU
 10
97.10593005225074
 20
33.35835732228902
 30
0.0
  0
VERTEX
  5
A9E
  8
0
  6
CONTINU
 10
97.10622406948555
 20
33.35835732228902
 30
0.0
  0
SEQEND
  5
BFF
  8
0
  6
CONTINU
  0
POLYLINE
  5
801
  8
0
  6
CONTINU
 66
     1
 10
0.0
 20
0.0
 30
0.0
  0
VERTEX
  5
A9F
  8
0
  6
CONTINU
 10
97.1100744134798
 20
33.35632483346775
 30
0.0
  0
VERTEX
  5
AA0
  8
0
  6
CONTINU
 10
97.0936141248573
 20
33.35632482961709
 30
0.0
  0
SEQEND
  5
C00
  8
0
  6
CONTINU
  0
POLYLINE
  5
802
  8
0
  6
CONTINU
 66
     1
 10
0.0
 20
0.0
 30
0.0
  0
VERTEX
  5
AA1
  8
0
  6
CONTINU
 10
97.11306815017005
 20
33.35165845101419
 30
0.0
 42
0.1081545459998836
  0
VERTEX
  5
AA2
  8
0
  6
CONTINU
 10
97.11526692746024
 20
33.35113083950991
 30
0.0
  0
SEQEND
  5
C01
  8
0
  6
CONTINU
  0
POLYLINE
  5
803
  8
0
  6
CONTINU
 66
     1
 10
0.0
 20
0.0
 30
0.0
  0
VERTEX
  5
AA3
  8
0
  6
CONTINU
 10
97.1252611710497
 20
33.35113134216571
 30
0.0
 42
0.0393285224058681
  0
VERTEX
  5
AA4
  8
0
  6
CONTINU
 10
97.1261807160099
 20
33.35121413691455
 30
0.0
  0
SEQEND
  5
C02
  8
0
  6
CONTINU
  0
POLYLINE
  5
804
  8
0
  6
CONTINU
 66
     1
 10
0.0
 20
0.0
 30
0.0
  0
VERTEX
  5
AA5
  8
0
  6
CONTINU
 10
97.11526692746024
 20
33.35113083950991
 30
0.0
  0
VERTEX
  5
AA6
  8
0
  6
CONTINU
 10
97.1252611710497
 20
33.35113134216571
 30
0.0
  0
SEQEND
  5
C03
  8
0
  6
CONTINU
  0
POLYLINE
  5
805
  8
0
  6
CONTINU
 66
     1
 10
0.0
 20
0.0
 30
0.0
  0
VERTEX
  5
AA7
  8
0
  6
CONTINU
 10
97.16448679816004
 20
33.33865572135106
 30
0.0
  0
VERTEX
  5
AA8
  8
0
  6
CONTINU
 10
97.16450261202215
 20
33.33934186317333
 30
0.0
  0
SEQEND
  5
C04
  8
0
  6
CONTINU
  0
POLYLINE
  5
806
  8
0
  6
CONTINU
 66
     1
 10
0.0
 20
0.0
 30
0.0
  0
VERTEX
  5
AA9
  8
0
  6
CONTINU
 10
97.16450182594468
 20
33.33985832515138
 30
0.0
  0
VERTEX
  5
AAA
  8
0
  6
CONTINU
 10
97.16450261202215
 20
33.33934186317333
 30
0.0
  0
SEQEND
  5
C05
  8
0
  6
CONTINU
  0
POLYLINE
  5
807
  8
0
  6
CONTINU
 66
     1
 10
0.0
 20
0.0
 30
0.0
  0
VERTEX
  5
AAB
  8
0
  6
CONTINU
 10
97.16402486797385
 20
33.33549376151015
 30
0.0
  0
VERTEX
  5
AAC
  8
0
  6
CONTINU
 10
97.1638240667609
 20
33.33476892812052
 30
0.0
  0
SEQEND
  5
C06
  8
0
  6
CONTINU
  0
POLYLINE
  5
808
  8
0
  6
CONTINU
 66
     1
 10
0.0
 20
0.0
 30
0.0
  0
VERTEX
  5
AAD
  8
0
  6
CONTINU
 10
97.1634498810198
 20
33.33367602257574
 30
0.0
  0
VERTEX
  5
AAE
  8
0
  6
CONTINU
 10
97.16311267033502
 20
33.33286849252753
 30
0.0
  0
SEQEND
  5
C07
  8
0
  6
CONTINU
  0
POLYLINE
  5
809
  8
0
  6
CONTINU
 66
     1
 10
0.0
 20
0.0
 30
0.0
  0
VERTEX
  5
AAF
  8
0
  6
CONTINU
 10
97.13456411655947
 20
33.32755989712071
 30
0.0
  0
VERTEX
  5
AB0
  8
0
  6
CONTINU
 10
97.11530413882767
 20
33.32755758808483
 30
0.0
  0
SEQEND
  5
C08
  8
0
  6
CONTINU
  0
POLYLINE
  5
80A
  8
0
  6
CONTINU
 66
     1
 10
0.0
 20
0.0
 30
0.0
  0
VERTEX
  5
AB1
  8
0
  6
CONTINU
 10
97.0936141248573
 20
33.35632482961709
 30
0.0
  0
VERTEX
  5
AB2
  8
0
  6
CONTINU
 10
97.07750362589744
 20
33.356324810606
 30
0.0
  0
SEQEND
  5
C09
  8
0
  6
CONTINU
  0
POLYLINE
  5
80B
  8
0
  6
CONTINU
 66
     1
 10
0.0
 20
0.0
 30
0.0
  0
VERTEX
  5
AB3
  8
0
  6
CONTINU
 10
97.08161035288997
 20
33.51672587799675
 30
0.0
  0
VERTEX
  5
AB4
  8
0
  6
CONTINU
 10
97.10556264882624
 20
33.51672587799675
 30
0.0
  0
SEQEND
  5
C0A
  8
0
  6
CONTINU
  0
POLYLINE
  5
80C
  8
0
  6
CONTINU
 66
     1
 10
0.0
 20
0.0
 30
0.0
  0
VERTEX
  5
AB5
  8
0
  6
CONTINU
 10
97.10627182004262
 20
33.51073280967477
 30
0.0
  0
VERTEX
  5
AB6
  8
0
  6
CONTINU
 10
97.10627182004262
 20
33.51601669915978
 30
0.0
  0
SEQEND
  5
C0B
  8
0
  6
CONTINU
  0
POLYLINE
  5
80D
  8
0
  6
CONTINU
 66
     1
 10
0.0
 20
0.0
 30
0.0
  0
VERTEX
  5
AB7
  8
0
  6
CONTINU
 10
97.10627182004262
 20
33.51601669915978
 30
0.0
  0
VERTEX
  5
AB8
  8
0
  6
CONTINU
 10
97.10556264882624
 20
33.51672587799675
 30
0.0
  0
SEQEND
  5
C0C
  8
0
  6
CONTINU
  0
POLYLINE
  5
80E
  8
0
  6
CONTINU
 66
     1
 10
0.0
 20
0.0
 30
0.0
  0
VERTEX
  5
AB9
  8
0
  6
CONTINU
 10
97.09358649514266
 20
33.51073280967477
 30
0.0
  0
VERTEX
  5
ABA
  8
0
  6
CONTINU
 10
97.08090116643241
 20
33.51073281729535
 30
0.0
  0
SEQEND
  5
C0D
  8
0
  6
CONTINU
  0
POLYLINE
  5
80F
  8
0
  6
CONTINU
 66
     1
 10
0.0
 20
0.0
 30
0.0
  0
VERTEX
  5
ABB
  8
0
  6
CONTINU
 10
97.08090116643241
 20
33.51073281729535
 30
0.0
  0
VERTEX
  5
ABC
  8
0
  6
CONTINU
 10
97.08090117024271
 20
33.51601670678037
 30
0.0
  0
SEQEND
  5
C0E
  8
0
  6
CONTINU
  0
POLYLINE
  5
810
  8
0
  6
CONTINU
 66
     1
 10
0.0
 20
0.0
 30
0.0
  0
VERTEX
  5
ABD
  8
0
  6
CONTINU
 10
97.08090117024271
 20
33.51601670678037
 30
0.0
  0
VERTEX
  5
ABE
  8
0
  6
CONTINU
 10
97.08161035288997
 20
33.51672587799675
 30
0.0
  0
SEQEND
  5
C0F
  8
0
  6
CONTINU
  0
POLYLINE
  5
811
  8
0
  6
AXES
 66
     1
 10
0.0
 20
0.0
 30
0.0
  0
VERTEX
  5
ABF
  8
0
  6
AXES
 10
97.1850367754574
 20
33.33934186317333
 30
0.0
  0
VERTEX
  5
AC0
  8
0
  6
AXES
 10
97.11157741294015
 20
33.33934186317333
 30
0.0
  0
SEQEND
  5
C10
  8
0
  6
AXES
  0
POLYLINE
  5
812
  8
0
  6
AXES
 66
     1
 10
0.0
 20
0.0
 30
0.0
  0
VERTEX
  5
AC1
  8
0
  6
AXES
 10
97.09358649514266
 20
33.32178249884595
 30
0.0
  0
VERTEX
  5
AC2
  8
0
  6
AXES
 10
97.09358649514266
 20
33.5724385775598
 30
0.0
  0
SEQEND
  5
C11
  8
0
  6
AXES
  0
POLYLINE
  5
813
  8
0
  6
AXES
 66
     1
 10
0.0
 20
0.0
 30
0.0
  0
VERTEX
  5
AC3
  8
0
  6
AXES
 10
97.09358650295049
 20
33.35732365913663
 30
0.0
 42
0.4144465384018928
  0
VERTEX
  5
AC4
  8
0
  6
AXES
 10
97.11157741294015
 20
33.33934186317333
 30
0.0
  0
SEQEND
  5
C12
  8
0
  6
AXES
  0
POLYLINE
  5
814
  8
0
  6
AXES
 66
     1
 10
0.0
 20
0.0
 30
0.0
  0
VERTEX
  5
AC5
  8
0
  6
AXES
 10
97.14852296238139
 20
33.29359403273768
 30
0.0
  0
VERTEX
  5
AC6
  8
0
  6
AXES
 10
97.14852296238139
 20
33.4395303049192
 30
0.0
  0
SEQEND
  5
C13
  8
0
  6
AXES
  0
POLYLINE
  5
815
  8
0
  6
CONTINU
 66
     1
 10
0.0
 20
0.0
 30
0.0
  0
VERTEX
  5
AC7
  8
0
  6
CONTINU
 10
97.10232638644555
 20
33.3883226677092
 30
0.0
  0
VERTEX
  5
AC8
  8
0
  6
CONTINU
 10
97.10232638644555
 20
33.47433351143989
 30
0.0
  0
SEQEND
  5
C14
  8
0
  6
CONTINU
  0
POLYLINE
  5
816
  8
0
  6
CONTINU
 66
     1
 10
0.0
 20
0.0
 30
0.0
  0
VERTEX
  5
AC9
  8
0
  6
CONTINU
 10
97.08484660383978
 20
33.3883226677092
 30
0.0
  0
VERTEX
  5
ACA
  8
0
  6
CONTINU
 10
97.08484660383978
 20
33.47435021490681
 30
0.0
  0
SEQEND
  5
C15
  8
0
  6
CONTINU
  0
POLYLINE
  5
817
  8
0
  6
CONTINU
 66
     1
 10
0.0
 20
0.0
 30
0.0
  0
VERTEX
  5
ACB
  8
0
  6
CONTINU
 10
97.10232638644538
 20
33.55737685880038
 30
0.0
 42
0.9999968949137384
  0
VERTEX
  5
ACC
  8
0
  6
CONTINU
 10
97.08484660383978
 20
33.55737680573556
 30
0.0
  0
SEQEND
  5
C16
  8
0
  6
CONTINU
  0
POLYLINE
  5
818
  8
0
  6
CONTINU
 66
     1
 10
0.0
 20
0.0
 30
0.0
  0
VERTEX
  5
ACD
  8
0
  6
CONTINU
 10
97.0848465962192
 20
33.51672587799675
 30
0.0
  0
VERTEX
  5
ACE
  8
0
  6
CONTINU
 10
97.10232638644555
 20
33.51672587799675
 30
0.0
  0
SEQEND
  5
C17
  8
0
  6
CONTINU
  0
POLYLINE
  5
819
  8
0
  6
CONTINU
 66
     1
 10
0.0
 20
0.0
 30
0.0
  0
VERTEX
  5
ACF
  8
0
  6
CONTINU
 10
97.08090117024271
 20
33.51601670678037
 30
0.0
  0
VERTEX
  5
AD0
  8
0
  6
CONTINU
 10
97.10627182004262
 20
33.51601669915978
 30
0.0
  0
SEQEND
  5
C18
  8
0
  6
CONTINU
  0
POLYLINE
  5
81A
  8
0
  6
CONTINU
 66
     1
 10
0.0
 20
0.0
 30
0.0
  0
VERTEX
  5
AD1
  8
0
  6
CONTINU
 10
97.10232638644555
 20
33.51672587799675
 30
0.0
  0
VERTEX
  5
AD2
  8
0
  6
CONTINU
 10
97.10232638644538
 20
33.55737685880038
 30
0.0
  0
SEQEND
  5
C19
  8
0
  6
CONTINU
  0
POLYLINE
  5
81B
  8
0
  6
CONTINU
 66
     1
 10
0.0
 20
0.0
 30
0.0
  0
VERTEX
  5
AD3
  8
0
  6
CONTINU
 10
97.0848465962192
 20
33.51672587799675
 30
0.0
  0
VERTEX
  5
AD4
  8
0
  6
CONTINU
 10
97.08484660383978
 20
33.55737680573556
 30
0.0
  0
SEQEND
  5
C1A
  8
0
  6
CONTINU
  0
POLYLINE
  5
81C
  8
0
  6
CONTINU
 66
     1
 10
0.0
 20
0.0
 30
0.0
  0
VERTEX
  5
AD5
  8
0
  6
CONTINU
 10
97.13027115802139
 20
33.36079589059731
 30
0.0
 42
0.1089350883601976
  0
VERTEX
  5
AD6
  8
0
  6
CONTINU
 10
97.12294143406234
 20
33.35113122549562
 30
0.0
  0
SEQEND
  5
C1B
  8
0
  6
CONTINU
  0
POLYLINE
  5
81D
  8
0
  6
CONTINU
 66
     1
 10
0.0
 20
0.0
 30
0.0
  0
VERTEX
  5
AD7
  8
0
  6
CONTINU
 10
97.0813979711232
 20
33.35632481333987
 30
0.0
  0
VERTEX
  5
AD8
  8
0
  6
CONTINU
 10
97.08124293803459
 20
33.35835732228902
 30
0.0
  0
SEQEND
  5
C1C
  8
0
  6
CONTINU
  0
POLYLINE
  5
81E
  8
0
  6
CONTINU
 66
     1
 10
0.0
 20
0.0
 30
0.0
  0
VERTEX
  5
AD9
  8
0
  6
CONTINU
 10
97.10616932323562
 20
33.35632483255419
 30
0.0
  0
VERTEX
  5
ADA
  8
0
  6
CONTINU
 10
97.10622406948555
 20
33.35835732228902
 30
0.0
  0
SEQEND
  5
C1D
  8
0
  6
CONTINU
  0
POLYLINE
  5
81F
  8
0
  6
CONTINU
 66
     1
 10
0.0
 20
0.0
 30
0.0
  0
VERTEX
  5
ADB
  8
0
  6
CONTINU
 10
97.16450184118584
 20
33.35362676315025
 30
0.0
  0
VERTEX
  5
ADC
  8
0
  6
CONTINU
 10
97.16450182594468
 20
33.33985832515138
 30
0.0
  0
SEQEND
  5
C1E
  8
0
  6
CONTINU
  0
POLYLINE
  5
820
  8
0
  6
CONTINU
 66
     1
 10
0.0
 20
0.0
 30
0.0
  0
VERTEX
  5
ADD
  8
0
  6
CONTINU
 10
97.11476216019761
 20
33.32756089541675
 30
0.0
  0
VERTEX
  5
ADE
  8
0
  6
CONTINU
 10
97.11530413882767
 20
33.32755758808483
 30
0.0
  0
SEQEND
  5
C1F
  8
0
  6
CONTINU
  0
POLYLINE
  5
821
  8
0
  6
CONTINU
 66
     1
 10
0.0
 20
0.0
 30
0.0
  0
VERTEX
  5
ADF
  8
0
  6
CONTINU
 10
97.16300927429953
 20
33.3326449504207
 30
0.0
  0
VERTEX
  5
AE0
  8
0
  6
CONTINU
 10
97.16311267033502
 20
33.33286849252753
 30
0.0
  0
SEQEND
  5
C20
  8
0
  6
CONTINU
  0
POLYLINE
  5
822
  8
0
  6
CONTINU
 66
     1
 10
0.0
 20
0.0
 30
0.0
  0
VERTEX
  5
AE1
  8
0
  6
CONTINU
 10
97.12293866862746
 20
33.32755850337162
 30
0.0
 42
1.245400599311665
  0
VERTEX
  5
AE2
  8
0
  6
CONTINU
 10
97.16674966023038
 20
33.36081722441887
 30
0.0
  0
SEQEND
  5
C21
  8
0
  6
CONTINU
  0
POLYLINE
  5
823
  8
0
  6
CONTINU
 66
     1
 10
0.0
 20
0.0
 30
0.0
  0
VERTEX
  5
AE3
  8
0
  6
CONTINU
 10
97.16437710674964
 20
33.35813006148781
 30
0.0
  0
VERTEX
  5
AE4
  8
0
  6
CONTINU
 10
97.16450182594468
 20
33.33985832515138
 30
0.0
  0
SEQEND
  5
C22
  8
0
  6
CONTINU
  0
POLYLINE
  5
824
  8
0
  6
CONTINU
 66
     1
 10
0.0
 20
0.0
 30
0.0
  0
VERTEX
  5
AE5
  8
0
  6
CONTINU
 10
97.0813217824555
 20
33.35732365913663
 30
0.0
  0
VERTEX
  5
AE6
  8
0
  6
CONTINU
 10
97.10619622718932
 20
33.35732365913663
 30
0.0
  0
SEQEND
  5
C23
  8
0
  6
CONTINU
  0
POLYLINE
  5
825
  8
0
  6
CONTINU
 66
     1
 10
0.0
 20
0.0
 30
0.0
  0
VERTEX
  5
AE7
  8
0
  6
CONTINU
 10
97.08204722552581
 20
33.35732365151605
 30
0.0
  0
VERTEX
  5
AE8
  8
0
  6
CONTINU
 10
97.08204722552581
 20
33.35835732228902
 30
0.0
  0
SEQEND
  5
C24
  8
0
  6
CONTINU
  0
POLYLINE
  5
826
  8
0
  6
CONTINU
 66
     1
 10
0.0
 20
0.0
 30
0.0
  0
VERTEX
  5
AE9
  8
0
  6
CONTINU
 10
97.10552007264329
 20
33.35732365532633
 30
0.0
  0
VERTEX
  5
AEA
  8
0
  6
CONTINU
 10
97.10552007264329
 20
33.35835732228902
 30
0.0
  0
SEQEND
  5
C25
  8
0
  6
CONTINU
  0
POLYLINE
  5
827
  8
0
  6
CONTINU
 66
     1
 10
0.0
 20
0.0
 30
0.0
  0
VERTEX
  5
AEB
  8
0
  6
CONTINU
 10
97.08484660383978
 20
33.4920892024622
 30
0.0
  0
VERTEX
  5
AEC
  8
0
  6
CONTINU
 10
97.08484660383978
 20
33.49994536747336
 30
0.0
  0
SEQEND
  5
C26
  8
0
  6
CONTINU
  0
POLYLINE
  5
828
  8
0
  6
CONTINU
 66
     1
 10
0.0
 20
0.0
 30
0.0
  0
VERTEX
  5
AED
  8
0
  6
CONTINU
 10
97.10232638644555
 20
33.49208945715512
 30
0.0
  0
VERTEX
  5
AEE
  8
0
  6
CONTINU
 10
97.10232638644555
 20
33.49994536747336
 30
0.0
  0
SEQEND
  5
C27
  8
0
  6
CONTINU
  0
POLYLINE
  5
829
  8
0
  6
CONTINU
 66
     1
 10
0.0
 20
0.0
 30
0.0
  0
VERTEX
  5
AEF
  8
0
  6
CONTINU
 10
97.08229963820168
 20
33.50973298952015
 30
0.0
  0
VERTEX
  5
AF0
  8
0
  6
CONTINU
 10
97.10487307774277
 20
33.50973372109587
 30
0.0
  0
SEQEND
  5
C28
  8
0
  6
CONTINU
  0
POLYLINE
  5
82A
  8
0
  6
CONTINU
 66
     1
 10
0.0
 20
0.0
 30
0.0
  0
VERTEX
  5
AF1
  8
0
  6
CONTINU
 10
97.10487344353062
 20
33.50244161814859
 30
0.0
  0
VERTEX
  5
AF2
  8
0
  6
CONTINU
 10
97.0822992724138
 20
33.50244174007788
 30
0.0
  0
SEQEND
  5
C29
  8
0
  6
CONTINU
  0
POLYLINE
  5
82B
  8
0
  6
CONTINU
 66
     1
 10
0.0
 20
0.0
 30
0.0
  0
VERTEX
  5
AF3
  8
0
  6
CONTINU
 10
97.17142478797511
 20
33.37700210875119
 30
0.0
  0
VERTEX
  5
AF4
  8
0
  6
CONTINU
 10
97.17149658908407
 20
33.37827699375704
 30
0.0
  0
SEQEND
  5
C2A
  8
0
  6
CONTINU
  0
POLYLINE
  5
82C
  8
0
  6
CONTINU
 66
     1
 10
0.0
 20
0.0
 30
0.0
  0
VERTEX
  5
AF5
  8
0
  6
CONTINU
 10
97.17119129339021
 20
33.39369104656964
 30
0.0
  0
VERTEX
  5
AF6
  8
0
  6
CONTINU
 10
97.17149655860176
 20
33.39633047461545
 30
0.0
  0
SEQEND
  5
C2B
  8
0
  6
CONTINU
  0
POLYLINE
  5
82D
  8
0
  6
CONTINU
 66
     1
 10
0.0
 20
0.0
 30
0.0
  0
VERTEX
  5
AF7
  8
0
  6
CONTINU
 10
97.125549693846
 20
33.3963304765206
 30
0.0
  0
VERTEX
  5
AF8
  8
0
  6
CONTINU
 10
97.12589505855185
 20
33.39916466659861
 30
0.0
  0
SEQEND
  5
C2C
  8
0
  6
CONTINU
  0
POLYLINE
  5
82E
  8
0
  6
CONTINU
 66
     1
 10
0.0
 20
0.0
 30
0.0
  0
VERTEX
  5
AF9
  8
0
  6
CONTINU
 10
97.16836637155218
 20
33.36447728371647
 30
0.0
  0
VERTEX
  5
AFA
  8
0
  6
CONTINU
 10
97.17074966551216
 20
33.37386234578069
 30
0.0
  0
SEQEND
  5
C2D
  8
0
  6
CONTINU
  0
POLYLINE
  5
82F
  8
0
  6
CONTINU
 66
     1
 10
0.0
 20
0.0
 30
0.0
  0
VERTEX
  5
AFB
  8
0
  6
CONTINU
 10
97.12589505855185
 20
33.39916466659861
 30
0.0
  0
VERTEX
  5
AFC
  8
0
  6
CONTINU
 10
97.12600745449285
 20
33.39940539406692
 30
0.0
  0
SEQEND
  5
C2E
  8
0
  6
CONTINU
  0
POLYLINE
  5
830
  8
0
  6
CONTINU
 66
     1
 10
0.0
 20
0.0
 30
0.0
  0
VERTEX
  5
AFD
  8
0
  6
CONTINU
 10
97.13395190198813
 20
33.40911444864373
 30
0.0
  0
VERTEX
  5
AFE
  8
0
  6
CONTINU
 10
97.13716588941216
 20
33.41071468181436
 30
0.0
  0
SEQEND
  5
C2F
  8
0
  6
CONTINU
  0
POLYLINE
  5
831
  8
0
  6
CONTINU
 66
     1
 10
0.0
 20
0.0
 30
0.0
  0
VERTEX
  5
AFF
  8
0
  6
CONTINU
 10
97.13863170099071
 20
33.41120516816461
 30
0.0
  0
VERTEX
  5
B00
  8
0
  6
CONTINU
 10
97.1405117281191
 20
33.4118342489273
 30
0.0
  0
SEQEND
  5
C30
  8
0
  6
CONTINU
  0
POLYLINE
  5
832
  8
0
  6
CONTINU
 66
     1
 10
0.0
 20
0.0
 30
0.0
  0
VERTEX
  5
B01
  8
0
  6
CONTINU
 10
97.13716588941216
 20
33.41071468181436
 30
0.0
  0
VERTEX
  5
B02
  8
0
  6
CONTINU
 10
97.1405117281191
 20
33.4118342489273
 30
0.0
  0
SEQEND
  5
C31
  8
0
  6
CONTINU
  0
POLYLINE
  5
833
  8
0
  6
CONTINU
 66
     1
 10
0.0
 20
0.0
 30
0.0
  0
VERTEX
  5
B03
  8
0
  6
CONTINU
 10
97.1405117281191
 20
33.4118342489273
 30
0.0
  0
VERTEX
  5
B04
  8
0
  6
CONTINU
 10
97.14084269754848
 20
33.41186529100453
 30
0.0
  0
SEQEND
  5
C32
  8
0
  6
CONTINU
  0
POLYLINE
  5
834
  8
0
  6
CONTINU
 66
     1
 10
0.0
 20
0.0
 30
0.0
  0
VERTEX
  5
B05
  8
0
  6
CONTINU
 10
97.15620332628185
 20
33.41186534690863
 30
0.0
  0
VERTEX
  5
B06
  8
0
  6
CONTINU
 10
97.15653428809067
 20
33.4118343088203
 30
0.0
  0
SEQEND
  5
C33
  8
0
  6
CONTINU
  0
POLYLINE
  5
835
  8
0
  6
CONTINU
 66
     1
 10
0.0
 20
0.0
 30
0.0
  0
VERTEX
  5
B07
  8
0
  6
CONTINU
 10
97.15653428809067
 20
33.4118343088203
 30
0.0
  0
VERTEX
  5
B08
  8
0
  6
CONTINU
 10
97.15988037065617
 20
33.41071468181436
 30
0.0
  0
SEQEND
  5
C34
  8
0
  6
CONTINU
  0
POLYLINE
  5
836
  8
0
  6
CONTINU
 66
     1
 10
0.0
 20
0.0
 30
0.0
  0
VERTEX
  5
B09
  8
0
  6
CONTINU
 10
97.15988037065617
 20
33.41071468181436
 30
0.0
  0
VERTEX
  5
B0A
  8
0
  6
CONTINU
 10
97.16292800842963
 20
33.40922411987001
 30
0.0
  0
SEQEND
  5
C35
  8
0
  6
CONTINU
  0
POLYLINE
  5
837
  8
0
  6
CONTINU
 66
     1
 10
0.0
 20
0.0
 30
0.0
  0
VERTEX
  5
B0B
  8
0
  6
CONTINU
 10
97.16292800842963
 20
33.40922411987001
 30
0.0
  0
VERTEX
  5
B0C
  8
0
  6
CONTINU
 10
97.16318940958013
 20
33.40902180381838
 30
0.0
  0
SEQEND
  5
C36
  8
0
  6
CONTINU
  0
POLYLINE
  5
838
  8
0
  6
CONTINU
 66
     1
 10
0.0
 20
0.0
 30
0.0
  0
VERTEX
  5
B0D
  8
0
  6
CONTINU
 10
97.12677192826155
 20
33.37199068930975
 30
0.0
  0
VERTEX
  5
B0E
  8
0
  6
CONTINU
 10
97.1286797862999
 20
33.36447727327543
 30
0.0
  0
SEQEND
  5
C37
  8
0
  6
CONTINU
  0
POLYLINE
  5
839
  8
0
  6
CONTINU
 66
     1
 10
0.0
 20
0.0
 30
0.0
  0
VERTEX
  5
B0F
  8
0
  6
CONTINU
 10
97.17119124766673
 20
33.3989700922232
 30
0.0
  0
VERTEX
  5
B10
  8
0
  6
CONTINU
 10
97.17149655860176
 20
33.39633047461545
 30
0.0
  0
SEQEND
  5
C38
  8
0
  6
CONTINU
  0
POLYLINE
  5
83A
  8
0
  6
CONTINU
 66
     1
 10
0.0
 20
0.0
 30
0.0
  0
VERTEX
  5
B11
  8
0
  6
CONTINU
 10
97.125549693846
 20
33.3963304765206
 30
0.0
  0
VERTEX
  5
B12
  8
0
  6
CONTINU
 10
97.1258550124016
 20
33.39369085986542
 30
0.0
  0
SEQEND
  5
C39
  8
0
  6
CONTINU
  0
POLYLINE
  5
83B
  8
0
  6
CONTINU
 66
     1
 10
0.0
 20
0.0
 30
0.0
  0
VERTEX
  5
B13
  8
0
  6
CONTINU
 10
97.12554966336367
 20
33.37827700137762
 30
0.0
  0
VERTEX
  5
B14
  8
0
  6
CONTINU
 10
97.12562147209323
 20
33.37700210875119
 30
0.0
  0
SEQEND
  5
C3A
  8
0
  6
CONTINU
  0
POLYLINE
  5
83C
  8
0
  6
CONTINU
 66
     1
 10
0.0
 20
0.0
 30
0.0
  0
VERTEX
  5
B15
  8
0
  6
CONTINU
 10
97.17149658908407
 20
33.37827699375704
 30
0.0
  0
VERTEX
  5
B16
  8
0
  6
CONTINU
 10
97.17149655860176
 20
33.39633047461545
 30
0.0
  0
SEQEND
  5
C3B
  8
0
  6
CONTINU
  0
POLYLINE
  5
83D
  8
0
  6
CONTINU
 66
     1
 10
0.0
 20
0.0
 30
0.0
  0
VERTEX
  5
B17
  8
0
  6
CONTINU
 10
97.17118642346875
 20
33.37558995658502
 30
0.0
  0
VERTEX
  5
B18
  8
0
  6
CONTINU
 10
97.17119129339021
 20
33.39369104656964
 30
0.0
  0
SEQEND
  5
C3C
  8
0
  6
CONTINU
  0
POLYLINE
  5
83E
  8
0
  6
CONTINU
 66
     1
 10
0.0
 20
0.0
 30
0.0
  0
VERTEX
  5
B19
  8
0
  6
CONTINU
 10
97.1651538885312
 20
33.39796459092585
 30
0.0
  0
VERTEX
  5
B1A
  8
0
  6
CONTINU
 10
97.16502261166744
 20
33.3986039892669
 30
0.0
  0
SEQEND
  5
C3D
  8
0
  6
CONTINU
  0
POLYLINE
  5
83F
  8
0
  6
CONTINU
 66
     1
 10
0.0
 20
0.0
 30
0.0
  0
VERTEX
  5
B1B
  8
0
  6
CONTINU
 10
97.16307437039703
 20
33.36565198257606
 30
0.0
  0
VERTEX
  5
B1C
  8
0
  6
CONTINU
 10
97.16309003721109
 20
33.38376895176029
 30
0.0
  0
SEQEND
  5
C3E
  8
0
  6
CONTINU
  0
POLYLINE
  5
840
  8
0
  6
CONTINU
 66
     1
 10
0.0
 20
0.0
 30
0.0
  0
VERTEX
  5
B1D
  8
0
  6
CONTINU
 10
97.15663507788766
 20
33.36302311411457
 30
0.0
  0
VERTEX
  5
B1E
  8
0
  6
CONTINU
 10
97.15662458434838
 20
33.38112940369033
 30
0.0
  0
SEQEND
  5
C3F
  8
0
  6
CONTINU
  0
POLYLINE
  5
841
  8
0
  6
CONTINU
 66
     1
 10
0.0
 20
0.0
 30
0.0
  0
VERTEX
  5
B1F
  8
0
  6
CONTINU
 10
97.14041143365984
 20
33.36302304933963
 30
0.0
  0
VERTEX
  5
B20
  8
0
  6
CONTINU
 10
97.14042192719911
 20
33.38112933891539
 30
0.0
  0
SEQEND
  5
C40
  8
0
  6
CONTINU
  0
POLYLINE
  5
842
  8
0
  6
CONTINU
 66
     1
 10
0.0
 20
0.0
 30
0.0
  0
VERTEX
  5
B21
  8
0
  6
CONTINU
 10
97.13397196079084
 20
33.36565238235116
 30
0.0
  0
VERTEX
  5
B22
  8
0
  6
CONTINU
 10
97.13395642099232
 20
33.38376883364129
 30
0.0
  0
SEQEND
  5
C41
  8
0
  6
CONTINU
  0
POLYLINE
  5
843
  8
0
  6
CONTINU
 66
     1
 10
0.0
 20
0.0
 30
0.0
  0
VERTEX
  5
B23
  8
0
  6
CONTINU
 10
97.13189237153713
 20
33.39796457854241
 30
0.0
  0
VERTEX
  5
B24
  8
0
  6
CONTINU
 10
97.13202366193752
 20
33.39860397806979
 30
0.0
  0
SEQEND
  5
C42
  8
0
  6
CONTINU
  0
POLYLINE
  5
844
  8
0
  6
CONTINU
 66
     1
 10
0.0
 20
0.0
 30
0.0
  0
VERTEX
  5
B25
  8
0
  6
CONTINU
 10
97.12585987001073
 20
33.37558982735135
 30
0.0
  0
VERTEX
  5
B26
  8
0
  6
CONTINU
 10
97.1258550124016
 20
33.39369085986542
 30
0.0
  0
SEQEND
  5
C43
  8
0
  6
CONTINU
  0
POLYLINE
  5
845
  8
0
  6
CONTINU
 66
     1
 10
0.0
 20
0.0
 30
0.0
  0
VERTEX
  5
B27
  8
0
  6
CONTINU
 10
97.12554966336367
 20
33.37827700137762
 30
0.0
  0
VERTEX
  5
B28
  8
0
  6
CONTINU
 10
97.125549693846
 20
33.3963304765206
 30
0.0
  0
SEQEND
  5
C44
  8
0
  6
CONTINU
  0
POLYLINE
  5
846
  8
0
  6
CONTINU
 66
     1
 10
0.0
 20
0.0
 30
0.0
  0
VERTEX
  5
B29
  8
0
  6
CONTINU
 10
97.17111937035196
 20
33.39925895794563
 30
0.0
  0
VERTEX
  5
B2A
  8
0
  6
CONTINU
 10
97.17119124766673
 20
33.3989700922232
 30
0.0
  0
SEQEND
  5
C45
  8
0
  6
CONTINU
  0
ENDSEC
  0
EOF
