  0
SECTION
  2
HEADER
  9
$ACADVER
  1
AC1009
  9
$DWGCODEPAGE
  3
ansi_1252
  9
$INSBASE
 10
12.41137782001696
 20
4.945536250723958
 30
0.0
  9
$EXTMIN
 10
12.2847275713861
 20
5.131996692704396
 30
0.0
  9
$EXTMAX
 10
12.88005345069374
 20
5.416820842285015
 30
0.0
  9
$LIMMIN
 10
0.0
 20
0.0
  9
$LIMMAX
 10
297.0
 20
210.0
  9
$ORTHOMODE
 70
     0
  9
$REGENMODE
 70
     1
  9
$FILLMODE
 70
     1
  9
$QTEXTMODE
 70
     0
  9
$MIRRTEXT
 70
     1
  9
$DRAGMODE
 70
     2
  9
$LTSCALE
 40
0.140000022252404
  9
$OSMODE
 70
    37
  9
$ATTMODE
 70
     1
  9
$TEXTSIZE
 40
0.0
  9
$TRACEWID
 40
0.05
  9
$TEXTSTYLE
  7
STANDARD
  9
$CLAYER
  8
0
  9
$CELTYPE
  6
CONTINUOUS
  9
$CECOLOR
 62
   256
  9
$DIMSCALE
 40
1.0
  9
$DIMASZ
 40
0.0
  9
$DIMEXO
 40
0.0999999940395355
  9
$DIMDLI
 40
10.0
  9
$DIMRND
 40
0.0
  9
$DIMDLE
 40
0.0
  9
$DIMEXE
 40
1.800000071525574
  9
$DIMTP
 40
0.0
  9
$DIMTM
 40
0.0
  9
$DIMTXT
 40
0.18
  9
$DIMCEN
 40
0.0
  9
$DIMTSZ
 40
0.0
  9
$DIMTOL
 70
     0
  9
$DIMLIM
 70
     0
  9
$DIMTIH
 70
     1
  9
$DIMTOH
 70
     1
  9
$DIMSE1
 70
     0
  9
$DIMSE2
 70
     0
  9
$DIMTAD
 70
     0
  9
$DIMZIN
 70
     0
  9
$DIMBLK
  1

  9
$DIMASO
 70
     1
  9
$DIMSHO
 70
     1
  9
$DIMPOST
  1

  9
$DIMAPOST
  1

  9
$DIMALT
 70
     0
  9
$DIMALTD
 70
     2
  9
$DIMALTF
 40
25.4
  9
$DIMLFAC
 40
1.0
  9
$DIMTOFL
 70
     0
  9
$DIMTVP
 40
0.0
  9
$DIMTIX
 70
     0
  9
$DIMSOXD
 70
     0
  9
$DIMSAH
 70
     0
  9
$DIMBLK1
  1

  9
$DIMBLK2
  1

  9
$DIMSTYLE
  2
STANDARD
  9
$DIMCLRD
 70
     0
  9
$DIMCLRE
 70
     0
  9
$DIMCLRT
 70
     0
  9
$DIMTFAC
 40
1.0
  9
$DIMGAP
 40
0.09
  9
$LUNITS
 70
     2
  9
$LUPREC
 70
     6
  9
$SKETCHINC
 40
0.1
  9
$FILLETRAD
 40
0.0
  9
$AUNITS
 70
     1
  9
$AUPREC
 70
     6
  9
$MENU
  1
acad
  9
$ELEVATION
 40
0.0
  9
$PELEVATION
 40
0.0
  9
$THICKNESS
 40
0.0
  9
$LIMCHECK
 70
     0
  9
$CHAMFERA
 40
0.0
  9
$CHAMFERB
 40
0.0
  9
$SKPOLY
 70
     0
  9
$TDCREATE
 40
2452524.561064815
  9
$TDUPDATE
 40
2458028.613726852
  9
$TDINDWG
 40
0.0006597569
  9
$TDUSRTIMER
 40
0.0006597569
  9
$USRTIMER
 70
     1
  9
$ANGBASE
 50
0.0
  9
$ANGDIR
 70
     0
  9
$PDMODE
 70
     2
  9
$PDSIZE
 40
1.0
  9
$PLINEWID
 40
0.0
  9
$COORDS
 70
     1
  9
$SPLFRAME
 70
     0
  9
$SPLINETYPE
 70
     6
  9
$SPLINESEGS
 70
     8
  9
$ATTDIA
 70
     0
  9
$ATTREQ
 70
     1
  9
$HANDLING
 70
     1
  9
$HANDSEED
  5
C34
  9
$SURFTAB1
 70
     6
  9
$SURFTAB2
 70
     6
  9
$SURFTYPE
 70
     6
  9
$SURFU
 70
     6
  9
$SURFV
 70
     6
  9
$UCSNAME
  2

  9
$UCSORG
 10
0.0
 20
0.0
 30
0.0
  9
$UCSXDIR
 10
1.0
 20
0.0
 30
0.0
  9
$UCSYDIR
 10
0.0
 20
1.0
 30
0.0
  9
$PUCSNAME
  2

  9
$PUCSORG
 10
0.0
 20
0.0
 30
0.0
  9
$PUCSXDIR
 10
1.0
 20
0.0
 30
0.0
  9
$PUCSYDIR
 10
0.0
 20
1.0
 30
0.0
  9
$USERI1
 70
     0
  9
$USERI2
 70
     0
  9
$USERI3
 70
     0
  9
$USERI4
 70
     0
  9
$USERI5
 70
     0
  9
$USERR1
 40
0.0
  9
$USERR2
 40
0.0
  9
$USERR3
 40
0.0
  9
$USERR4
 40
0.0
  9
$USERR5
 40
0.0
  9
$WORLDVIEW
 70
     1
  9
$SHADEDGE
 70
     3
  9
$SHADEDIF
 70
    70
  9
$TILEMODE
 70
     1
  9
$MAXACTVP
 70
    16
  9
$PLIMCHECK
 70
     0
  9
$PEXTMIN
 10
1.000000000000000E+20
 20
1.000000000000000E+20
 30
1.000000000000000E+20
  9
$PEXTMAX
 10
-1.000000000000000E+20
 20
-1.000000000000000E+20
 30
-1.000000000000000E+20
  9
$PLIMMIN
 10
0.0
 20
0.0
  9
$PLIMMAX
 10
297.0
 20
210.0
  9
$UNITMODE
 70
     0
  9
$VISRETAIN
 70
     0
  9
$PLINEGEN
 70
     1
  9
$PSLTSCALE
 70
     0
  0
ENDSEC
  0
SECTION
  2
TABLES
  0
TABLE
  2
VPORT
 70
     1
  0
VPORT
  2
*ACTIVE
 70
     0
 10
0.0
 20
0.0
 11
1.0
 21
1.0
 12
12.58950858992699
 22
5.297332879342734
 13
0.0
 23
0.0
 14
1.0
 24
1.0
 15
0.0
 25
0.0
 16
0.0
 26
0.0
 36
1.0
 17
0.0
 27
0.0
 37
0.0
 40
0.4247103046680377
 41
1.503537735849057
 42
50.0
 43
0.0
 44
0.0
 50
0.0
 51
0.0
 71
     0
 72
   100
 73
     1
 74
     1
 75
     0
 76
     0
 77
     0
 78
     0
  0
ENDTAB
  0
TABLE
  2
LTYPE
 70
     3
  0
LTYPE
  2
CONTINUOUS
 70
     0
  3
Solid line
 72
    65
 73
     0
 40
0.0
  0
LTYPE
  2
CONTINU
 70
     0
  3

 72
    65
 73
     0
 40
0.0
  0
LTYPE
  2
AXES
 70
     0
  3

 72
    65
 73
     4
 40
0.5400000065565109
 49
0.300000011920929
 49
-0.0799999982118607
 49
0.0799999982118607
 49
-0.0799999982118607
  0
ENDTAB
  0
TABLE
  2
LAYER
 70
     1
  0
LAYER
  2
0
 70
     0
 62
     7
  6
CONTINUOUS
  0
ENDTAB
  0
TABLE
  2
STYLE
 70
     1
  0
STYLE
  2
STANDARD
 70
     0
 40
0.0
 41
1.0
 50
0.0
 71
     0
 42
0.0
  3
txt
  4

  0
ENDTAB
  0
TABLE
  2
VIEW
 70
     0
  0
ENDTAB
  0
TABLE
  2
UCS
 70
     0
  0
ENDTAB
  0
TABLE
  2
APPID
 70
     2
  0
APPID
  2
ACAD
 70
     0
  0
APPID
  2
DCO15
 70
     0
  0
ENDTAB
  0
TABLE
  2
DIMSTYLE
 70
     1
  0
DIMSTYLE
  2
STANDARD
 70
     0
  3

  4

  5

  6

  7

 40
1.0
 41
0.0
 42
0.0999999940395355
 43
10.0
 44
1.800000071525574
 45
0.0
 46
0.0
 47
0.0
 48
0.0
140
0.18
141
0.0
142
0.0
143
25.4
144
1.0
145
0.0
146
1.0
147
0.09
 71
     0
 72
     0
 73
     1
 74
     1
 75
     0
 76
     0
 77
     0
 78
     0
170
     0
171
     2
172
     0
173
     0
174
     0
175
     0
176
     0
177
     0
178
     0
  0
ENDTAB
  0
ENDSEC
  0
SECTION
  2
BLOCKS
  0
BLOCK
  8
0
  2
$MODEL_SPACE
 70
     0
 10
0.0
 20
0.0
 30
0.0
  3
$MODEL_SPACE
  1

  0
ENDBLK
  5
E
  8
0
  0
BLOCK
 67
     1
  8
0
  2
$PAPER_SPACE
 70
     0
 10
0.0
 20
0.0
 30
0.0
  3
$PAPER_SPACE
  1

  0
ENDBLK
  5
10
 67
     1
  8
0
  0
ENDSEC
  0
SECTION
  2
ENTITIES
  0
POLYLINE
  5
28
  8
0
  6
CONTINU
 66
     1
 10
0.0
 20
0.0
 30
0.0
  0
VERTEX
  5
696
  8
0
  6
CONTINU
 10
12.75279495802394
 20
5.217503512668922
 30
0.0
  0
VERTEX
  5
697
  8
0
  6
CONTINU
 10
12.75358946422322
 20
5.218032389534448
 30
0.0
  0
VERTEX
  5
698
  8
0
  6
CONTINU
 10
12.75452736491551
 20
5.21815814581817
 30
0.0
  0
VERTEX
  5
699
  8
0
  6
CONTINU
 10
12.75537808234528
 20
5.217749035861532
 30
0.0
  0
SEQEND
  5
A98
  8
0
  6
CONTINU
  0
POLYLINE
  5
3C
  8
0
  6
CONTINU
 66
     1
 10
0.0
 20
0.0
 30
0.0
  0
VERTEX
  5
69A
  8
0
  6
CONTINU
 10
12.73409914282698
 20
5.236199532905892
 30
0.0
  0
VERTEX
  5
69B
  8
0
  6
CONTINU
 10
12.73500595373161
 20
5.236720217707738
 30
0.0
  0
VERTEX
  5
69C
  8
0
  6
CONTINU
 10
12.736020758733
 20
5.236720220091924
 30
0.0
  0
VERTEX
  5
69D
  8
0
  6
CONTINU
 10
12.73692756963763
 20
5.236199537674263
 30
0.0
  0
SEQEND
  5
A99
  8
0
  6
CONTINU
  0
POLYLINE
  5
52
  8
0
  6
CONTINU
 66
     1
 10
0.0
 20
0.0
 30
0.0
  0
VERTEX
  5
69E
  8
0
  6
CONTINU
 10
12.7654345207324
 20
5.20486415976884
 30
0.0
  0
VERTEX
  5
69F
  8
0
  6
CONTINU
 10
12.76596339044537
 20
5.205658661199749
 30
0.0
  0
VERTEX
  5
6A0
  8
0
  6
CONTINU
 10
12.76608914196072
 20
5.206596557123664
 30
0.0
  0
VERTEX
  5
6A1
  8
0
  6
CONTINU
 10
12.76568021737542
 20
5.20744688431739
 30
0.0
  0
SEQEND
  5
A9A
  8
0
  6
CONTINU
  0
POLYLINE
  5
58
  8
0
  6
CONTINU
 66
     1
 10
0.0
 20
0.0
 30
0.0
  0
VERTEX
  5
6A2
  8
0
  6
CONTINU
 10
12.75279495802394
 20
5.217503512668922
 30
0.0
  0
VERTEX
  5
6A3
  8
0
  6
CONTINU
 10
12.74868557474138
 20
5.211425235068591
 30
0.0
  0
VERTEX
  5
6A4
  8
0
  6
CONTINU
 10
12.74481966455049
 20
5.2051897633057
 30
0.0
  0
VERTEX
  5
6A5
  8
0
  6
CONTINU
 10
12.74139788207416
 20
5.1987094223333
 30
0.0
  0
SEQEND
  5
A9B
  8
0
  6
CONTINU
  0
POLYLINE
  5
5E
  8
0
  6
CONTINU
 66
     1
 10
0.0
 20
0.0
 30
0.0
  0
VERTEX
  5
6A6
  8
0
  6
CONTINU
 10
12.74139788207416
 20
5.1987094223333
 30
0.0
 42
0.027344088653413
  0
VERTEX
  5
6A7
  8
0
  6
CONTINU
 10
12.74011476878314
 20
5.195491099006267
 30
0.0
  0
VERTEX
  5
6A8
  8
0
  6
CONTINU
 10
12.73966564532918
 20
5.193841652256668
 30
0.0
  0
VERTEX
  5
6A9
  8
0
  6
CONTINU
 10
12.73949516648129
 20
5.192099861208334
 30
0.0
  0
VERTEX
  5
6AA
  8
0
  6
CONTINU
 10
12.7400746763085
 20
5.190520471385152
 30
0.0
  0
SEQEND
  5
A9C
  8
0
  6
CONTINU
  0
POLYLINE
  5
66
  8
0
  6
CONTINU
 66
     1
 10
0.0
 20
0.0
 30
0.0
  0
VERTEX
  5
6AB
  8
0
  6
CONTINU
 10
12.7400746763085
 20
5.190520471385152
 30
0.0
  0
VERTEX
  5
6AC
  8
0
  6
CONTINU
 10
12.74162140278115
 20
5.189985140527664
 30
0.0
  0
VERTEX
  5
6AD
  8
0
  6
CONTINU
 10
12.74328325683558
 20
5.190242365605171
 30
0.0
 42
0.0458006761137718
  0
VERTEX
  5
6AE
  8
0
  6
CONTINU
 10
12.74639326556965
 20
5.191486867870545
 30
0.0
 42
0.0201312650212424
  0
VERTEX
  5
6AF
  8
0
  6
CONTINU
 10
12.74935282533643
 20
5.193116132085559
 30
0.0
  0
SEQEND
  5
A9D
  8
0
  6
CONTINU
  0
POLYLINE
  5
6F
  8
0
  6
CONTINU
 66
     1
 10
0.0
 20
0.0
 30
0.0
  0
VERTEX
  5
6B0
  8
0
  6
CONTINU
 10
12.74935282533643
 20
5.193116132085559
 30
0.0
  0
VERTEX
  5
6B1
  8
0
  6
CONTINU
 10
12.75488720536577
 20
5.196763715594957
 30
0.0
  0
VERTEX
  5
6B2
  8
0
  6
CONTINU
 10
12.76022673334459
 20
5.200728302483046
 30
0.0
  0
VERTEX
  5
6B3
  8
0
  6
CONTINU
 10
12.7654345207324
 20
5.20486415976884
 30
0.0
  0
SEQEND
  5
A9E
  8
0
  6
CONTINU
  0
POLYLINE
  5
86
  8
0
  6
CONTINU
 66
     1
 10
0.0
 20
0.0
 30
0.0
  0
VERTEX
  5
6B4
  8
0
  6
CONTINU
 10
12.76853543141205
 20
5.201763234784079
 30
0.0
  0
VERTEX
  5
6B5
  8
0
  6
CONTINU
 10
12.76905611859808
 20
5.202670050457082
 30
0.0
  0
VERTEX
  5
6B6
  8
0
  6
CONTINU
 10
12.76905611859808
 20
5.203684845921725
 30
0.0
  0
VERTEX
  5
6B7
  8
0
  6
CONTINU
 10
12.76853543141205
 20
5.204591661594729
 30
0.0
  0
SEQEND
  5
A9F
  8
0
  6
CONTINU
  0
POLYLINE
  5
98
  8
0
  6
CONTINU
 66
     1
 10
0.0
 20
0.0
 30
0.0
  0
VERTEX
  5
6B8
  8
0
  6
CONTINU
 10
12.7498392347453
 20
5.22045921687407
 30
0.0
  0
VERTEX
  5
6B9
  8
0
  6
CONTINU
 10
12.75036812353176
 20
5.221253720689165
 30
0.0
  0
VERTEX
  5
6BA
  8
0
  6
CONTINU
 10
12.75049387504711
 20
5.222191618997266
 30
0.0
  0
VERTEX
  5
6BB
  8
0
  6
CONTINU
 10
12.75008470528566
 20
5.223042416331355
 30
0.0
  0
SEQEND
  5
AA0
  8
0
  6
CONTINU
  0
POLYLINE
  5
9E
  8
0
  6
CONTINU
 66
     1
 10
0.0
 20
0.0
 30
0.0
  0
VERTEX
  5
6BC
  8
0
  6
CONTINU
 10
12.7254519386254
 20
5.21701700219022
 30
0.0
  0
VERTEX
  5
6BD
  8
0
  6
CONTINU
 10
12.72909942813459
 20
5.222551314012172
 30
0.0
  0
VERTEX
  5
6BE
  8
0
  6
CONTINU
 10
12.73306398641245
 20
5.227890882522158
 30
0.0
  0
VERTEX
  5
6BF
  8
0
  6
CONTINU
 10
12.73720047312339
 20
5.233098362349955
 30
0.0
  0
SEQEND
  5
AA1
  8
0
  6
CONTINU
  0
POLYLINE
  5
A4
  8
0
  6
CONTINU
 66
     1
 10
0.0
 20
0.0
 30
0.0
  0
VERTEX
  5
6C0
  8
0
  6
CONTINU
 10
12.72285628406061
 20
5.207738749192113
 30
0.0
  0
VERTEX
  5
6C1
  8
0
  6
CONTINU
 10
12.72232094843475
 20
5.209285475664764
 30
0.0
  0
VERTEX
  5
6C2
  8
0
  6
CONTINU
 10
12.72257815443876
 20
5.210947329719192
 30
0.0
 42
-0.0458014228376931
  0
VERTEX
  5
6C3
  8
0
  6
CONTINU
 10
12.72382264239902
 20
5.214057347990005
 30
0.0
 42
-0.0201307273849423
  0
VERTEX
  5
6C4
  8
0
  6
CONTINU
 10
12.7254519386254
 20
5.21701700219022
 30
0.0
  0
SEQEND
  5
AA2
  8
0
  6
CONTINU
  0
POLYLINE
  5
AD
  8
0
  6
CONTINU
 66
     1
 10
0.0
 20
0.0
 30
0.0
  0
VERTEX
  5
6C5
  8
0
  6
CONTINU
 10
12.7310451515334
 20
5.209061977948128
 30
0.0
 42
-0.027343025745239
  0
VERTEX
  5
6C6
  8
0
  6
CONTINU
 10
12.72782692121847
 20
5.207778879813725
 30
0.0
  0
VERTEX
  5
6C7
  8
0
  6
CONTINU
 10
12.72617746493212
 20
5.207329746823026
 30
0.0
  0
VERTEX
  5
6C8
  8
0
  6
CONTINU
 10
12.72443567388379
 20
5.207159258438383
 30
0.0
  0
VERTEX
  5
6C9
  8
0
  6
CONTINU
 10
12.72285628406061
 20
5.207738749192113
 30
0.0
  0
SEQEND
  5
AA3
  8
0
  6
CONTINU
  0
POLYLINE
  5
B5
  8
0
  6
CONTINU
 66
     1
 10
0.0
 20
0.0
 30
0.0
  0
VERTEX
  5
6CA
  8
0
  6
CONTINU
 10
12.7498392347453
 20
5.22045921687407
 30
0.0
  0
VERTEX
  5
6CB
  8
0
  6
CONTINU
 10
12.74376099052358
 20
5.216349781139411
 30
0.0
  0
VERTEX
  5
6CC
  8
0
  6
CONTINU
 10
12.73752554260255
 20
5.212483837569919
 30
0.0
  0
VERTEX
  5
6CD
  8
0
  6
CONTINU
 10
12.7310451515334
 20
5.209061977948128
 30
0.0
  0
SEQEND
  5
AA4
  8
0
  6
CONTINU
  0
POLYLINE
  5
BB
  8
0
  6
CONTINU
 66
     1
 10
0.0
 20
0.0
 30
0.0
  0
VERTEX
  5
6CE
  8
0
  6
CONTINU
 10
12.73720047312339
 20
5.233098362349955
 30
0.0
  0
VERTEX
  5
6CF
  8
0
  6
CONTINU
 10
12.73799431175054
 20
5.23362756704108
 30
0.0
  0
VERTEX
  5
6D0
  8
0
  6
CONTINU
 10
12.73893221244283
 20
5.233753330477359
 30
0.0
  0
VERTEX
  5
6D1
  8
0
  6
CONTINU
 10
12.73978285804901
 20
5.233344251847389
 30
0.0
  0
SEQEND
  5
AA5
  8
0
  6
CONTINU
  0
POLYLINE
  5
C1
  8
0
  6
CONTINU
 66
     1
 10
0.0
 20
0.0
 30
0.0
  0
VERTEX
  5
6D2
  8
0
  6
CONTINU
 10
12.49847250797069
 20
5.22826697596954
 30
0.0
  0
VERTEX
  5
6D3
  8
0
  6
CONTINU
 10
12.49866371493315
 20
5.229487328813199
 30
0.0
  0
VERTEX
  5
6D4
  8
0
  6
CONTINU
 10
12.49862818102247
 20
5.2307000546453
 30
0.0
  0
VERTEX
  5
6D5
  8
0
  6
CONTINU
 10
12.49837616539783
 20
5.231740565939279
 30
0.0
  0
SEQEND
  5
AA6
  8
0
  6
CONTINU
  0
POLYLINE
  5
CD
  8
0
  6
CONTINU
 66
     1
 10
0.0
 20
0.0
 30
0.0
  0
VERTEX
  5
6D6
  8
0
  6
CONTINU
 10
12.49837616539783
 20
5.231740565939279
 30
0.0
 42
-0.2036888517069746
  0
VERTEX
  5
6D7
  8
0
  6
CONTINU
 10
12.49825442169335
 20
5.232322576780481
 30
0.0
  0
SEQEND
  5
AA7
  8
0
  6
CONTINU
  0
POLYLINE
  5
DF
  8
0
  6
CONTINU
 66
     1
 10
0.0
 20
0.0
 30
0.0
  0
VERTEX
  5
6D8
  8
0
  6
CONTINU
 10
12.49837616539783
 20
5.231740565939279
 30
0.0
  0
VERTEX
  5
6D9
  8
0
  6
CONTINU
 10
12.4971302969877
 20
5.225930735783447
 30
0.0
  0
SEQEND
  5
AA8
  8
0
  6
CONTINU
  0
POLYLINE
  5
E5
  8
0
  6
CONTINU
 66
     1
 10
0.0
 20
0.0
 30
0.0
  0
VERTEX
  5
6DA
  8
0
  6
CONTINU
 10
12.48862791717254
 20
5.218980854555656
 30
0.0
  0
VERTEX
  5
6DB
  8
0
  6
CONTINU
 10
12.4887258595404
 20
5.220580638707334
 30
0.0
  0
SEQEND
  5
AA9
  8
0
  6
CONTINU
  0
POLYLINE
  5
EB
  8
0
  6
CONTINU
 66
     1
 10
0.0
 20
0.0
 30
0.0
  0
VERTEX
  5
6DC
  8
0
  6
CONTINU
 10
12.49847250797069
 20
5.22826697596954
 30
0.0
  0
VERTEX
  5
6DD
  8
0
  6
CONTINU
 10
12.49654440707829
 20
5.225315940000913
 30
0.0
  0
VERTEX
  5
6DE
  8
0
  6
CONTINU
 10
12.49364285250943
 20
5.223378941325726
 30
0.0
  0
VERTEX
  5
6DF
  8
0
  6
CONTINU
 10
12.49032236782028
 20
5.222284006211353
 30
0.0
  0
SEQEND
  5
AAA
  8
0
  6
CONTINU
  0
POLYLINE
  5
F1
  8
0
  6
CONTINU
 66
     1
 10
0.0
 20
0.0
 30
0.0
  0
VERTEX
  5
6E0
  8
0
  6
CONTINU
 10
12.4887258595404
 20
5.220580638707334
 30
0.0
  0
VERTEX
  5
6E1
  8
0
  6
CONTINU
 10
12.48899715608468
 20
5.221359323447191
 30
0.0
  0
VERTEX
  5
6E2
  8
0
  6
CONTINU
 10
12.48956409171404
 20
5.221958333533093
 30
0.0
  0
VERTEX
  5
6E3
  8
0
  6
CONTINU
 10
12.49032236782028
 20
5.222284006211353
 30
0.0
  0
SEQEND
  5
AAB
  8
0
  6
CONTINU
  0
POLYLINE
  5
F7
  8
0
  6
CONTINU
 66
     1
 10
0.0
 20
0.0
 30
0.0
  0
VERTEX
  5
6E4
  8
0
  6
CONTINU
 10
12.49929910054745
 20
5.233732762103272
 30
0.0
 42
0.242214281968488
  0
VERTEX
  5
6E5
  8
0
  6
CONTINU
 10
12.49825442169335
 20
5.232322576780481
 30
0.0
  0
SEQEND
  5
AAC
  8
0
  6
CONTINU
  0
POLYLINE
  5
103
  8
0
  6
CONTINU
 66
     1
 10
0.0
 20
0.0
 30
0.0
  0
VERTEX
  5
6E6
  8
0
  6
CONTINU
 10
12.49929910054745
 20
5.233732762103272
 30
0.0
  0
VERTEX
  5
6E7
  8
0
  6
CONTINU
 10
12.50368175448044
 20
5.235448012391162
 30
0.0
  0
VERTEX
  5
6E8
  8
0
  6
CONTINU
 10
12.50828142657537
 20
5.236453635891608
 30
0.0
  0
VERTEX
  5
6E9
  8
0
  6
CONTINU
 10
12.51297802060648
 20
5.236778087866548
 30
0.0
  0
SEQEND
  5
AAD
  8
0
  6
CONTINU
  0
POLYLINE
  5
10F
  8
0
  6
CONTINU
 66
     1
 10
0.0
 20
0.0
 30
0.0
  0
VERTEX
  5
6EA
  8
0
  6
CONTINU
 10
12.49711259678957
 20
5.212854325795616
 30
0.0
  0
VERTEX
  5
6EB
  8
0
  6
CONTINU
 10
12.49815206858107
 20
5.211166784519393
 30
0.0
  0
VERTEX
  5
6EC
  8
0
  6
CONTINU
 10
12.49865241865908
 20
5.209252540517013
 30
0.0
  0
VERTEX
  5
6ED
  8
0
  6
CONTINU
 10
12.49851054050847
 20
5.207219993196878
 30
0.0
  0
SEQEND
  5
AAE
  8
0
  6
CONTINU
  0
POLYLINE
  5
11B
  8
0
  6
CONTINU
 66
     1
 10
0.0
 20
0.0
 30
0.0
  0
VERTEX
  5
6EE
  8
0
  6
CONTINU
 10
12.4900886363486
 20
5.216546904864392
 30
0.0
  0
VERTEX
  5
6EF
  8
0
  6
CONTINU
 10
12.49275342709035
 20
5.215877519158677
 30
0.0
  0
VERTEX
  5
6F0
  8
0
  6
CONTINU
 10
12.49512841030171
 20
5.214643543075243
 30
0.0
  0
VERTEX
  5
6F1
  8
0
  6
CONTINU
 10
12.49711259678957
 20
5.212854325795616
 30
0.0
  0
SEQEND
  5
AAF
  8
0
  6
CONTINU
  0
POLYLINE
  5
124
  8
0
  6
CONTINU
 66
     1
 10
0.0
 20
0.0
 30
0.0
  0
VERTEX
  5
6F2
  8
0
  6
CONTINU
 10
12.48862791717254
 20
5.217657551490698
 30
0.0
  0
VERTEX
  5
6F3
  8
0
  6
CONTINU
 10
12.4890107888612
 20
5.217003164975106
 30
0.0
 42
0.1400648574698007
  0
VERTEX
  5
6F4
  8
0
  6
CONTINU
 10
12.4900886363486
 20
5.216546904864392
 30
0.0
  0
SEQEND
  5
AB0
  8
0
  6
CONTINU
  0
POLYLINE
  5
12A
  8
0
  6
CONTINU
 66
     1
 10
0.0
 20
0.0
 30
0.0
  0
VERTEX
  5
6F5
  8
0
  6
CONTINU
 10
12.4903911658964
 20
5.198347120387648
 30
0.0
  0
VERTEX
  5
6F6
  8
0
  6
CONTINU
 10
12.4901099082223
 20
5.204409624212279
 30
0.0
 42
-0.0097902809153835
  0
VERTEX
  5
6F7
  8
0
  6
CONTINU
 10
12.4900886363486
 20
5.216546904864392
 30
0.0
  0
SEQEND
  5
AB1
  8
0
  6
CONTINU
  0
POLYLINE
  5
130
  8
0
  6
CONTINU
 66
     1
 10
0.0
 20
0.0
 30
0.0
  0
VERTEX
  5
6F8
  8
0
  6
CONTINU
 10
12.49192622893031
 20
5.190814527370613
 30
0.0
  0
VERTEX
  5
6F9
  8
0
  6
CONTINU
 10
12.49103257396496
 20
5.193232516532102
 30
0.0
 42
-0.0308536950180869
  0
VERTEX
  5
6FA
  8
0
  6
CONTINU
 10
12.4903911658964
 20
5.198347120387648
 30
0.0
  0
SEQEND
  5
AB2
  8
0
  6
CONTINU
  0
POLYLINE
  5
136
  8
0
  6
CONTINU
 66
     1
 10
0.0
 20
0.0
 30
0.0
  0
VERTEX
  5
6FB
  8
0
  6
CONTINU
 10
12.49495954793203
 20
5.194142274290839
 30
0.0
 42
-0.0338233763960121
  0
VERTEX
  5
6FC
  8
0
  6
CONTINU
 10
12.49349341648867
 20
5.191088227174553
 30
0.0
  0
VERTEX
  5
6FD
  8
0
  6
CONTINU
 10
12.49192622893031
 20
5.190814527370613
 30
0.0
  0
SEQEND
  5
AB3
  8
0
  6
CONTINU
  0
POLYLINE
  5
13C
  8
0
  6
CONTINU
 66
     1
 10
0.0
 20
0.0
 30
0.0
  0
VERTEX
  5
6FE
  8
0
  6
CONTINU
 10
12.49758178992654
 20
5.203273204985869
 30
0.0
 42
-0.0161216342153602
  0
VERTEX
  5
6FF
  8
0
  6
CONTINU
 10
12.49595918950938
 20
5.197129526047388
 30
0.0
  0
VERTEX
  5
700
  8
0
  6
CONTINU
 10
12.49495954793203
 20
5.194142274290839
 30
0.0
  0
SEQEND
  5
AB4
  8
0
  6
CONTINU
  0
POLYLINE
  5
142
  8
0
  6
CONTINU
 66
     1
 10
0.0
 20
0.0
 30
0.0
  0
VERTEX
  5
701
  8
0
  6
CONTINU
 10
12.49830513277826
 20
5.206347099199477
 30
0.0
  0
VERTEX
  5
702
  8
0
  6
CONTINU
 10
12.49829845284354
 20
5.205768095344951
 30
0.0
  0
VERTEX
  5
703
  8
0
  6
CONTINU
 10
12.49858835557669
 20
5.205251919039151
 30
0.0
  0
VERTEX
  5
704
  8
0
  6
CONTINU
 10
12.4990378652688
 20
5.20486415976884
 30
0.0
  0
SEQEND
  5
AB5
  8
0
  6
CONTINU
  0
POLYLINE
  5
148
  8
0
  6
CONTINU
 66
     1
 10
0.0
 20
0.0
 30
0.0
  0
VERTEX
  5
705
  8
0
  6
CONTINU
 10
12.48862791717254
 20
5.218980854555656
 30
0.0
  0
VERTEX
  5
706
  8
0
  6
CONTINU
 10
12.48862791717254
 20
5.217657551490698
 30
0.0
  0
SEQEND
  5
AB6
  8
0
  6
CONTINU
  0
POLYLINE
  5
14E
  8
0
  6
CONTINU
 66
     1
 10
0.0
 20
0.0
 30
0.0
  0
VERTEX
  5
707
  8
0
  6
CONTINU
 10
12.4990378652688
 20
5.20486415976884
 30
0.0
  0
VERTEX
  5
708
  8
0
  6
CONTINU
 10
12.50349630294339
 20
5.203122077849792
 30
0.0
  0
VERTEX
  5
709
  8
0
  6
CONTINU
 10
12.50820091260841
 20
5.202098098500024
 30
0.0
  0
VERTEX
  5
70A
  8
0
  6
CONTINU
 10
12.51297805875346
 20
5.20176322575912
 30
0.0
  0
SEQEND
  5
AB7
  8
0
  6
CONTINU
  0
POLYLINE
  5
157
  8
0
  6
CONTINU
 66
     1
 10
0.0
 20
0.0
 30
0.0
  0
VERTEX
  5
70B
  8
0
  6
CONTINU
 10
12.49830513277826
 20
5.206347099199477
 30
0.0
  0
VERTEX
  5
70C
  8
0
  6
CONTINU
 10
12.49839008104878
 20
5.206708092601971
 30
0.0
  0
SEQEND
  5
AB8
  8
0
  6
CONTINU
  0
POLYLINE
  5
15F
  8
0
  6
CONTINU
 66
     1
 10
0.0
 20
0.0
 30
0.0
  0
VERTEX
  5
70D
  8
0
  6
CONTINU
 10
12.51297805875346
 20
5.175600273178058
 30
0.0
  0
VERTEX
  5
70E
  8
0
  6
CONTINU
 10
12.50829648509522
 20
5.175921689386397
 30
0.0
  0
VERTEX
  5
70F
  8
0
  6
CONTINU
 10
12.50370096148422
 20
5.17689880994118
 30
0.0
  0
VERTEX
  5
710
  8
0
  6
CONTINU
 10
12.49932386747338
 20
5.178562108812427
 30
0.0
  0
VERTEX
  5
711
  8
0
  6
CONTINU
 10
12.49530093478134
 20
5.180977146351438
 30
0.0
  0
VERTEX
  5
712
  8
0
  6
CONTINU
 10
12.49189146272758
 20
5.184207866431292
 30
0.0
  0
VERTEX
  5
713
  8
0
  6
CONTINU
 10
12.48950912668607
 20
5.188228510304608
 30
0.0
  0
VERTEX
  5
714
  8
0
  6
CONTINU
 10
12.48862791717254
 20
5.192818340479027
 30
0.0
  0
SEQEND
  5
AB9
  8
0
  6
CONTINU
  0
POLYLINE
  5
169
  8
0
  6
CONTINU
 66
     1
 10
0.0
 20
0.0
 30
0.0
  0
VERTEX
  5
715
  8
0
  6
CONTINU
 10
12.52750777564724
 20
5.228275020213678
 30
0.0
  0
VERTEX
  5
716
  8
0
  6
CONTINU
 10
12.52729240495795
 20
5.229487328813199
 30
0.0
  0
VERTEX
  5
717
  8
0
  6
CONTINU
 10
12.52732793410025
 20
5.2307000546453
 30
0.0
  0
VERTEX
  5
718
  8
0
  6
CONTINU
 10
12.527579904307
 20
5.231740378419835
 30
0.0
  0
SEQEND
  5
ABA
  8
0
  6
CONTINU
  0
POLYLINE
  5
16F
  8
0
  6
CONTINU
 66
     1
 10
0.0
 20
0.0
 30
0.0
  0
VERTEX
  5
719
  8
0
  6
CONTINU
 10
12.527579904307
 20
5.231740378419835
 30
0.0
  0
VERTEX
  5
71A
  8
0
  6
CONTINU
 10
12.528732095748
 20
5.226050325196529
 30
0.0
  0
SEQEND
  5
ABB
  8
0
  6
CONTINU
  0
POLYLINE
  5
17B
  8
0
  6
CONTINU
 66
     1
 10
0.0
 20
0.0
 30
0.0
  0
VERTEX
  5
71B
  8
0
  6
CONTINU
 10
12.528732095748
 20
5.226050325196529
 30
0.0
  0
VERTEX
  5
71C
  8
0
  6
CONTINU
 10
12.53069566859092
 20
5.224291493350655
 30
0.0
  0
VERTEX
  5
71D
  8
0
  6
CONTINU
 10
12.53306787660958
 20
5.223051799988786
 30
0.0
  0
VERTEX
  5
71E
  8
0
  6
CONTINU
 10
12.53563375207082
 20
5.222284006211353
 30
0.0
  0
SEQEND
  5
ABC
  8
0
  6
CONTINU
  0
POLYLINE
  5
183
  8
0
  6
CONTINU
 66
     1
 10
0.0
 20
0.0
 30
0.0
  0
VERTEX
  5
71F
  8
0
  6
CONTINU
 10
12.52750777564724
 20
5.228275020213678
 30
0.0
 42
0.1003742160718658
  0
VERTEX
  5
720
  8
0
  6
CONTINU
 10
12.528732095748
 20
5.226050325196529
 30
0.0
  0
SEQEND
  5
ABD
  8
0
  6
CONTINU
  0
POLYLINE
  5
189
  8
0
  6
CONTINU
 66
     1
 10
0.0
 20
0.0
 30
0.0
  0
VERTEX
  5
721
  8
0
  6
CONTINU
 10
12.5372302603507
 20
5.220580638707334
 30
0.0
  0
VERTEX
  5
722
  8
0
  6
CONTINU
 10
12.53695896380642
 20
5.221359323447191
 30
0.0
  0
VERTEX
  5
723
  8
0
  6
CONTINU
 10
12.53639202579287
 20
5.221958333533093
 30
0.0
  0
VERTEX
  5
724
  8
0
  6
CONTINU
 10
12.53563375207082
 20
5.222284006211353
 30
0.0
  0
SEQEND
  5
ABE
  8
0
  6
CONTINU
  0
POLYLINE
  5
195
  8
0
  6
CONTINU
 66
     1
 10
0.0
 20
0.0
 30
0.0
  0
VERTEX
  5
725
  8
0
  6
CONTINU
 10
12.53732819795019
 20
5.218981913134315
 30
0.0
  0
VERTEX
  5
726
  8
0
  6
CONTINU
 10
12.5372302603507
 20
5.220580638707334
 30
0.0
  0
SEQEND
  5
ABF
  8
0
  6
CONTINU
  0
POLYLINE
  5
19B
  8
0
  6
CONTINU
 66
     1
 10
0.0
 20
0.0
 30
0.0
  0
VERTEX
  5
727
  8
0
  6
CONTINU
 10
12.52665701695947
 20
5.233732762103272
 30
0.0
  0
VERTEX
  5
728
  8
0
  6
CONTINU
 10
12.52227436302647
 20
5.235448012391162
 30
0.0
  0
VERTEX
  5
729
  8
0
  6
CONTINU
 10
12.51767469093154
 20
5.236453635891608
 30
0.0
  0
VERTEX
  5
72A
  8
0
  6
CONTINU
 10
12.51297802060648
 20
5.236778087866548
 30
0.0
  0
SEQEND
  5
AC0
  8
0
  6
CONTINU
  0
POLYLINE
  5
1A7
  8
0
  6
CONTINU
 66
     1
 10
0.0
 20
0.0
 30
0.0
  0
VERTEX
  5
72B
  8
0
  6
CONTINU
 10
12.52884352071734
 20
5.212854325795616
 30
0.0
  0
VERTEX
  5
72C
  8
0
  6
CONTINU
 10
12.52780404892584
 20
5.211166784519393
 30
0.0
  0
VERTEX
  5
72D
  8
0
  6
CONTINU
 10
12.52730369884783
 20
5.209252540517013
 30
0.0
  0
VERTEX
  5
72E
  8
0
  6
CONTINU
 10
12.52744557461425
 20
5.207219993196878
 30
0.0
  0
SEQEND
  5
AC1
  8
0
  6
CONTINU
  0
POLYLINE
  5
1B3
  8
0
  6
CONTINU
 66
     1
 10
0.0
 20
0.0
 30
0.0
  0
VERTEX
  5
72F
  8
0
  6
CONTINU
 10
12.5358679316048
 20
5.216546960488226
 30
0.0
  0
VERTEX
  5
730
  8
0
  6
CONTINU
 10
12.53320269041656
 20
5.215877519158677
 30
0.0
  0
VERTEX
  5
731
  8
0
  6
CONTINU
 10
12.5308277072052
 20
5.214643543075243
 30
0.0
  0
VERTEX
  5
732
  8
0
  6
CONTINU
 10
12.52884352071734
 20
5.212854325795616
 30
0.0
  0
SEQEND
  5
AC2
  8
0
  6
CONTINU
  0
POLYLINE
  5
1BC
  8
0
  6
CONTINU
 66
     1
 10
0.0
 20
0.0
 30
0.0
  0
VERTEX
  5
733
  8
0
  6
CONTINU
 10
12.53556494922632
 20
5.198347120387648
 30
0.0
  0
VERTEX
  5
734
  8
0
  6
CONTINU
 10
12.53584620690042
 20
5.204409624212279
 30
0.0
 42
0.0097910666490839
  0
VERTEX
  5
735
  8
0
  6
CONTINU
 10
12.5358679316048
 20
5.216546960488226
 30
0.0
  0
SEQEND
  5
AC3
  8
0
  6
CONTINU
  0
POLYLINE
  5
1C2
  8
0
  6
CONTINU
 66
     1
 10
0.0
 20
0.0
 30
0.0
  0
VERTEX
  5
736
  8
0
  6
CONTINU
 10
12.53402989096079
 20
5.190814527370613
 30
0.0
  0
VERTEX
  5
737
  8
0
  6
CONTINU
 10
12.53492354592613
 20
5.193232516532102
 30
0.0
 42
0.0308536985492415
  0
VERTEX
  5
738
  8
0
  6
CONTINU
 10
12.53556494922632
 20
5.198347120387648
 30
0.0
  0
SEQEND
  5
AC4
  8
0
  6
CONTINU
  0
POLYLINE
  5
1C8
  8
0
  6
CONTINU
 66
     1
 10
0.0
 20
0.0
 30
0.0
  0
VERTEX
  5
739
  8
0
  6
CONTINU
 10
12.53099656957488
 20
5.194142274290839
 30
0.0
 42
0.0338221051560279
  0
VERTEX
  5
73A
  8
0
  6
CONTINU
 10
12.53246270101824
 20
5.191088227174553
 30
0.0
  0
VERTEX
  5
73B
  8
0
  6
CONTINU
 10
12.53402989096079
 20
5.190814527370613
 30
0.0
  0
SEQEND
  5
AC5
  8
0
  6
CONTINU
  0
POLYLINE
  5
1CE
  8
0
  6
CONTINU
 66
     1
 10
0.0
 20
0.0
 30
0.0
  0
VERTEX
  5
73C
  8
0
  6
CONTINU
 10
12.52838448984525
 20
5.203229058683957
 30
0.0
 42
0.0160067057309757
  0
VERTEX
  5
73D
  8
0
  6
CONTINU
 10
12.52999692561334
 20
5.197129526047388
 30
0.0
  0
VERTEX
  5
73E
  8
0
  6
CONTINU
 10
12.53099656957488
 20
5.194142274290839
 30
0.0
  0
SEQEND
  5
AC6
  8
0
  6
CONTINU
  0
POLYLINE
  5
1D4
  8
0
  6
CONTINU
 66
     1
 10
0.0
 20
0.0
 30
0.0
  0
VERTEX
  5
73F
  8
0
  6
CONTINU
 10
12.52768985832923
 20
5.206356283609827
 30
0.0
  0
VERTEX
  5
740
  8
0
  6
CONTINU
 10
12.52765766227919
 20
5.205768095344951
 30
0.0
  0
VERTEX
  5
741
  8
0
  6
CONTINU
 10
12.52736775954604
 20
5.205251919039151
 30
0.0
  0
VERTEX
  5
742
  8
0
  6
CONTINU
 10
12.52691825223811
 20
5.20486415976884
 30
0.0
  0
SEQEND
  5
AC7
  8
0
  6
CONTINU
  0
POLYLINE
  5
1DA
  8
0
  6
CONTINU
 66
     1
 10
0.0
 20
0.0
 30
0.0
  0
VERTEX
  5
743
  8
0
  6
CONTINU
 10
12.52691825223811
 20
5.20486415976884
 30
0.0
  0
VERTEX
  5
744
  8
0
  6
CONTINU
 10
12.52245981456352
 20
5.203122077849792
 30
0.0
  0
VERTEX
  5
745
  8
0
  6
CONTINU
 10
12.5177552048985
 20
5.202098098500024
 30
0.0
  0
VERTEX
  5
746
  8
0
  6
CONTINU
 10
12.51297805875346
 20
5.20176322575912
 30
0.0
  0
SEQEND
  5
AC8
  8
0
  6
CONTINU
  0
POLYLINE
  5
1E4
  8
0
  6
CONTINU
 66
     1
 10
0.0
 20
0.0
 30
0.0
  0
VERTEX
  5
747
  8
0
  6
CONTINU
 10
12.52768985832923
 20
5.206356283609827
 30
0.0
  0
VERTEX
  5
748
  8
0
  6
CONTINU
 10
12.52756594763481
 20
5.206708338016202
 30
0.0
  0
SEQEND
  5
AC9
  8
0
  6
CONTINU
  0
POLYLINE
  5
1EA
  8
0
  6
CONTINU
 66
     1
 10
0.0
 20
0.0
 30
0.0
  0
VERTEX
  5
749
  8
0
  6
CONTINU
 10
12.52838448984525
 20
5.203229058683957
 30
0.0
  0
VERTEX
  5
74A
  8
0
  6
CONTINU
 10
12.52768985832923
 20
5.206356283609827
 30
0.0
  0
SEQEND
  5
ACA
  8
0
  6
CONTINU
  0
POLYLINE
  5
1F2
  8
0
  6
CONTINU
 66
     1
 10
0.0
 20
0.0
 30
0.0
  0
VERTEX
  5
74B
  8
0
  6
CONTINU
 10
12.51297805875346
 20
5.175600273178058
 30
0.0
  0
VERTEX
  5
74C
  8
0
  6
CONTINU
 10
12.51765963241169
 20
5.175921689386397
 30
0.0
  0
VERTEX
  5
74D
  8
0
  6
CONTINU
 10
12.52225515602269
 20
5.17689880994118
 30
0.0
  0
VERTEX
  5
74E
  8
0
  6
CONTINU
 10
12.52663225241772
 20
5.178562108812427
 30
0.0
  0
VERTEX
  5
74F
  8
0
  6
CONTINU
 10
12.53065518034138
 20
5.180977146351438
 30
0.0
  0
VERTEX
  5
750
  8
0
  6
CONTINU
 10
12.53406465477933
 20
5.184207866431292
 30
0.0
  0
VERTEX
  5
751
  8
0
  6
CONTINU
 10
12.53644699082083
 20
5.188228510304608
 30
0.0
  0
VERTEX
  5
752
  8
0
  6
CONTINU
 10
12.53732819795019
 20
5.192818340479027
 30
0.0
  0
SEQEND
  5
ACB
  8
0
  6
CONTINU
  0
POLYLINE
  5
1FC
  8
0
  6
CONTINU
 66
     1
 10
0.0
 20
0.0
 30
0.0
  0
VERTEX
  5
753
  8
0
  6
CONTINU
 10
12.52867815594877
 20
5.220395544798214
 30
0.0
  0
VERTEX
  5
754
  8
0
  6
CONTINU
 10
12.52759475552709
 20
5.216343026739992
 30
0.0
  0
VERTEX
  5
755
  8
0
  6
CONTINU
 10
12.52485456983078
 20
5.213134918281773
 30
0.0
  0
VERTEX
  5
756
  8
0
  6
CONTINU
 10
12.52123304587488
 20
5.210952439030154
 30
0.0
  0
VERTEX
  5
757
  8
0
  6
CONTINU
 10
12.51719469703506
 20
5.209701878547722
 30
0.0
  0
VERTEX
  5
758
  8
0
  6
CONTINU
 10
12.51297805875346
 20
5.209293950756991
 30
0.0
  0
SEQEND
  5
ACC
  8
0
  6
CONTINU
  0
POLYLINE
  5
205
  8
0
  6
CONTINU
 66
     1
 10
0.0
 20
0.0
 30
0.0
  0
VERTEX
  5
759
  8
0
  6
CONTINU
 10
12.4972780545414
 20
5.22039559725031
 30
0.0
  0
VERTEX
  5
75A
  8
0
  6
CONTINU
 10
12.49811416478934
 20
5.216821053682884
 30
0.0
  0
VERTEX
  5
75B
  8
0
  6
CONTINU
 10
12.50044151672939
 20
5.213712616127502
 30
0.0
  0
VERTEX
  5
75C
  8
0
  6
CONTINU
 10
12.50394315665211
 20
5.211316463727144
 30
0.0
  0
VERTEX
  5
75D
  8
0
  6
CONTINU
 10
12.5082542516214
 20
5.209808437364403
 30
0.0
  0
VERTEX
  5
75E
  8
0
  6
CONTINU
 10
12.51297805875346
 20
5.209294034893115
 30
0.0
  0
VERTEX
  5
75F
  8
0
  6
CONTINU
 10
12.51770186588551
 20
5.209808437364403
 30
0.0
  0
VERTEX
  5
760
  8
0
  6
CONTINU
 10
12.5220129608548
 20
5.211316463727144
 30
0.0
  0
VERTEX
  5
761
  8
0
  6
CONTINU
 10
12.52551460077752
 20
5.213712616127502
 30
0.0
  0
VERTEX
  5
762
  8
0
  6
CONTINU
 10
12.52784195510175
 20
5.216821053682884
 30
0.0
  0
VERTEX
  5
763
  8
0
  6
CONTINU
 10
12.52867815594877
 20
5.220395544798214
 30
0.0
  0
SEQEND
  5
ACD
  8
0
  6
CONTINU
  0
POLYLINE
  5
212
  8
0
  6
CONTINU
 66
     1
 10
0.0
 20
0.0
 30
0.0
 70
     1
  0
VERTEX
  5
764
  8
0
  6
CONTINU
 10
12.52867806296551
 20
5.22145625968849
 30
0.0
  0
VERTEX
  5
765
  8
0
  6
CONTINU
 10
12.52774020757276
 20
5.225235771740948
 30
0.0
  0
VERTEX
  5
766
  8
0
  6
CONTINU
 10
12.52516369625702
 20
5.228456266046319
 30
0.0
  0
VERTEX
  5
767
  8
0
  6
CONTINU
 10
12.52136382325467
 20
5.230841594241466
 30
0.0
  0
VERTEX
  5
768
  8
0
  6
CONTINU
 10
12.51680339963247
 20
5.232223267081849
 30
0.0
  0
VERTEX
  5
769
  8
0
  6
CONTINU
 10
12.51195660664103
 20
5.232534319930515
 30
0.0
  0
VERTEX
  5
76A
  8
0
  6
CONTINU
 10
12.50727767942944
 20
5.231800255234829
 30
0.0
  0
VERTEX
  5
76B
  8
0
  6
CONTINU
 10
12.50317440443184
 20
5.230127482799836
 30
0.0
  0
VERTEX
  5
76C
  8
0
  6
CONTINU
 10
12.49998642804164
 20
5.22768965244104
 30
0.0
  0
VERTEX
  5
76D
  8
0
  6
CONTINU
 10
12.49796840518366
 20
5.224712302209655
 30
0.0
  0
VERTEX
  5
76E
  8
0
  6
CONTINU
 10
12.49727795440558
 20
5.22145625968849
 30
0.0
  0
VERTEX
  5
76F
  8
0
  6
CONTINU
 10
12.49796840518366
 20
5.218200217167325
 30
0.0
  0
VERTEX
  5
770
  8
0
  6
CONTINU
 10
12.49998642804164
 20
5.21522286693594
 30
0.0
  0
VERTEX
  5
771
  8
0
  6
CONTINU
 10
12.50317440443184
 20
5.212785034192958
 30
0.0
  0
VERTEX
  5
772
  8
0
  6
CONTINU
 10
12.50727767942944
 20
5.211112265334244
 30
0.0
  0
VERTEX
  5
773
  8
0
  6
CONTINU
 10
12.51195660664103
 20
5.210378200638558
 30
0.0
  0
VERTEX
  5
774
  8
0
  6
CONTINU
 10
12.51680339963247
 20
5.210689251103037
 30
0.0
  0
VERTEX
  5
775
  8
0
  6
CONTINU
 10
12.52136382325467
 20
5.212070920367142
 30
0.0
  0
VERTEX
  5
776
  8
0
  6
CONTINU
 10
12.52516369625702
 20
5.214456253330662
 30
0.0
  0
VERTEX
  5
777
  8
0
  6
CONTINU
 10
12.52774020757276
 20
5.217676747636032
 30
0.0
  0
SEQEND
  5
ACE
  8
0
  6
CONTINU
  0
POLYLINE
  5
229
  8
0
  6
CONTINU
 66
     1
 10
0.0
 20
0.0
 30
0.0
  0
VERTEX
  5
778
  8
0
  6
CONTINU
 10
12.52665701695947
 20
5.233732762103272
 30
0.0
 42
-0.2422142819684777
  0
VERTEX
  5
779
  8
0
  6
CONTINU
 10
12.52770169581356
 20
5.232322576780481
 30
0.0
  0
SEQEND
  5
ACF
  8
0
  6
CONTINU
  0
POLYLINE
  5
235
  8
0
  6
CONTINU
 66
     1
 10
0.0
 20
0.0
 30
0.0
  0
VERTEX
  5
77A
  8
0
  6
CONTINU
 10
12.527579904307
 20
5.231740378419835
 30
0.0
 42
0.2037045109998501
  0
VERTEX
  5
77B
  8
0
  6
CONTINU
 10
12.52770169581356
 20
5.232322576780481
 30
0.0
  0
SEQEND
  5
AD0
  8
0
  6
CONTINU
  0
POLYLINE
  5
241
  8
0
  6
CONTINU
 66
     1
 10
0.0
 20
0.0
 30
0.0
  0
VERTEX
  5
77C
  8
0
  6
CONTINU
 10
12.53732819795019
 20
5.218981913134315
 30
0.0
  0
VERTEX
  5
77D
  8
0
  6
CONTINU
 10
12.53723793266179
 20
5.217503274250305
 30
0.0
  0
SEQEND
  5
AD1
  8
0
  6
CONTINU
  0
POLYLINE
  5
247
  8
0
  6
CONTINU
 66
     1
 10
0.0
 20
0.0
 30
0.0
  0
VERTEX
  5
77E
  8
0
  6
CONTINU
 10
12.53723793266179
 20
5.217503274250305
 30
0.0
  0
VERTEX
  5
77F
  8
0
  6
CONTINU
 10
12.53694532626152
 20
5.217003164975106
 30
0.0
 42
-0.1400691343674792
  0
VERTEX
  5
780
  8
0
  6
CONTINU
 10
12.5358679316048
 20
5.216546960488226
 30
0.0
  0
SEQEND
  5
AD2
  8
0
  6
CONTINU
  0
POLYLINE
  5
363
  8
0
  6
CONTINU
 66
     1
 10
0.0
 20
0.0
 30
0.0
  0
VERTEX
  5
781
  8
0
  6
CONTINU
 10
12.33412772762976
 20
5.21765765093213
 30
0.0
  0
VERTEX
  5
782
  8
0
  6
CONTINU
 10
12.33374484640435
 20
5.217003164975106
 30
0.0
 42
-0.140069081864754
  0
VERTEX
  5
783
  8
0
  6
CONTINU
 10
12.33266746128437
 20
5.216546960488226
 30
0.0
  0
SEQEND
  5
AD3
  8
0
  6
CONTINU
  0
POLYLINE
  5
369
  8
0
  6
CONTINU
 66
     1
 10
0.0
 20
0.0
 30
0.0
  0
VERTEX
  5
784
  8
0
  6
CONTINU
 10
12.33412772762976
 20
5.218980854555656
 30
0.0
  0
VERTEX
  5
785
  8
0
  6
CONTINU
 10
12.33412772762976
 20
5.21765765093213
 30
0.0
  0
SEQEND
  5
AD4
  8
0
  6
CONTINU
  0
POLYLINE
  5
375
  8
0
  6
CONTINU
 66
     1
 10
0.0
 20
0.0
 30
0.0
  0
VERTEX
  5
786
  8
0
  6
CONTINU
 10
12.3243794207502
 20
5.23174034345752
 30
0.0
 42
0.2037734945372616
  0
VERTEX
  5
787
  8
0
  6
CONTINU
 10
12.32450122310895
 20
5.232322576780481
 30
0.0
  0
SEQEND
  5
AD5
  8
0
  6
CONTINU
  0
POLYLINE
  5
381
  8
0
  6
CONTINU
 66
     1
 10
0.0
 20
0.0
 30
0.0
  0
VERTEX
  5
788
  8
0
  6
CONTINU
 10
12.32345654902322
 20
5.233732762103272
 30
0.0
 42
-0.2422118706747797
  0
VERTEX
  5
789
  8
0
  6
CONTINU
 10
12.32450122310895
 20
5.232322576780481
 30
0.0
  0
SEQEND
  5
AD6
  8
0
  6
CONTINU
  0
POLYLINE
  5
387
  8
0
  6
CONTINU
 66
     1
 10
0.0
 20
0.0
 30
0.0
 70
     1
  0
VERTEX
  5
78A
  8
0
  6
CONTINU
 10
12.32547759502927
 20
5.22145625968849
 30
0.0
  0
VERTEX
  5
78B
  8
0
  6
CONTINU
 10
12.32453973248396
 20
5.225235771740948
 30
0.0
  0
VERTEX
  5
78C
  8
0
  6
CONTINU
 10
12.32196322832078
 20
5.228456266046319
 30
0.0
  0
VERTEX
  5
78D
  8
0
  6
CONTINU
 10
12.31816335055005
 20
5.230841594241466
 30
0.0
  0
VERTEX
  5
78E
  8
0
  6
CONTINU
 10
12.3136029364646
 20
5.232223267081849
 30
0.0
  0
VERTEX
  5
78F
  8
0
  6
CONTINU
 10
12.30875613393641
 20
5.232534319930515
 30
0.0
  0
VERTEX
  5
790
  8
0
  6
CONTINU
 10
12.30407721626157
 20
5.231800255234829
 30
0.0
  0
VERTEX
  5
791
  8
0
  6
CONTINU
 10
12.2999739364956
 20
5.230127482799836
 30
0.0
  0
VERTEX
  5
792
  8
0
  6
CONTINU
 10
12.29678595533703
 20
5.22768965244104
 30
0.0
  0
VERTEX
  5
793
  8
0
  6
CONTINU
 10
12.29476794201578
 20
5.224712302209655
 30
0.0
  0
VERTEX
  5
794
  8
0
  6
CONTINU
 10
12.29407748170096
 20
5.22145625968849
 30
0.0
  0
VERTEX
  5
795
  8
0
  6
CONTINU
 10
12.29476794201578
 20
5.218200217167325
 30
0.0
  0
VERTEX
  5
796
  8
0
  6
CONTINU
 10
12.29678595533703
 20
5.21522286693594
 30
0.0
  0
VERTEX
  5
797
  8
0
  6
CONTINU
 10
12.2999739364956
 20
5.212785034192958
 30
0.0
  0
VERTEX
  5
798
  8
0
  6
CONTINU
 10
12.30407721626157
 20
5.211112265334244
 30
0.0
  0
VERTEX
  5
799
  8
0
  6
CONTINU
 10
12.30875613393641
 20
5.210378200638558
 30
0.0
  0
VERTEX
  5
79A
  8
0
  6
CONTINU
 10
12.3136029364646
 20
5.210689251103037
 30
0.0
  0
VERTEX
  5
79B
  8
0
  6
CONTINU
 10
12.31816335055005
 20
5.212070920367142
 30
0.0
  0
VERTEX
  5
79C
  8
0
  6
CONTINU
 10
12.32196322832078
 20
5.214456253330662
 30
0.0
  0
VERTEX
  5
79D
  8
0
  6
CONTINU
 10
12.32453973248396
 20
5.217676747636032
 30
0.0
  0
SEQEND
  5
AD7
  8
0
  6
CONTINU
  0
POLYLINE
  5
39E
  8
0
  6
CONTINU
 66
     1
 10
0.0
 20
0.0
 30
0.0
  0
VERTEX
  5
79E
  8
0
  6
CONTINU
 10
12.29429272587338
 20
5.220441220644553
 30
0.0
  0
VERTEX
  5
79F
  8
0
  6
CONTINU
 10
12.29491370162147
 20
5.216821053682884
 30
0.0
  0
VERTEX
  5
7A0
  8
0
  6
CONTINU
 10
12.29724104879315
 20
5.213712616127502
 30
0.0
  0
VERTEX
  5
7A1
  8
0
  6
CONTINU
 10
12.30074269348424
 20
5.211316463727144
 30
0.0
  0
VERTEX
  5
7A2
  8
0
  6
CONTINU
 10
12.30505377891679
 20
5.209808437364403
 30
0.0
  0
VERTEX
  5
7A3
  8
0
  6
CONTINU
 10
12.30977759558558
 20
5.209294034893115
 30
0.0
  0
VERTEX
  5
7A4
  8
0
  6
CONTINU
 10
12.31450139318089
 20
5.209808437364403
 30
0.0
  0
VERTEX
  5
7A5
  8
0
  6
CONTINU
 10
12.31881249768693
 20
5.211316463727144
 30
0.0
  0
VERTEX
  5
7A6
  8
0
  6
CONTINU
 10
12.32231412330453
 20
5.213712616127502
 30
0.0
  0
VERTEX
  5
7A7
  8
0
  6
CONTINU
 10
12.3246414895497
 20
5.216821053682884
 30
0.0
  0
VERTEX
  5
7A8
  8
0
  6
CONTINU
 10
12.32547769039672
 20
5.220395544798214
 30
0.0
  0
SEQEND
  5
AD8
  8
0
  6
CONTINU
  0
POLYLINE
  5
3AC
  8
0
  6
CONTINU
 66
     1
 10
0.0
 20
0.0
 30
0.0
  0
VERTEX
  5
7A9
  8
0
  6
CONTINU
 10
12.32547769039672
 20
5.220395544798214
 30
0.0
  0
VERTEX
  5
7AA
  8
0
  6
CONTINU
 10
12.32439427805411
 20
5.216343026739992
 30
0.0
  0
VERTEX
  5
7AB
  8
0
  6
CONTINU
 10
12.32165410427872
 20
5.213134918281773
 30
0.0
  0
VERTEX
  5
7AC
  8
0
  6
CONTINU
 10
12.318032582707
 20
5.210952439030154
 30
0.0
  0
VERTEX
  5
7AD
  8
0
  6
CONTINU
 10
12.31399422909882
 20
5.209701878547722
 30
0.0
  0
VERTEX
  5
7AE
  8
0
  6
CONTINU
 10
12.3097775765121
 20
5.209293949373079
 30
0.0
  0
SEQEND
  5
AD9
  8
0
  6
CONTINU
  0
POLYLINE
  5
3B4
  8
0
  6
CONTINU
 66
     1
 10
0.0
 20
0.0
 30
0.0
  0
VERTEX
  5
7AF
  8
0
  6
CONTINU
 10
12.3097775765121
 20
5.175600274160201
 30
0.0
  0
VERTEX
  5
7B0
  8
0
  6
CONTINU
 10
12.31445916447545
 20
5.175921689386397
 30
0.0
  0
VERTEX
  5
7B1
  8
0
  6
CONTINU
 10
12.31905469285482
 20
5.17689880994118
 30
0.0
  0
VERTEX
  5
7B2
  8
0
  6
CONTINU
 10
12.32343177256054
 20
5.178562108812427
 30
0.0
  0
VERTEX
  5
7B3
  8
0
  6
CONTINU
 10
12.32745471478933
 20
5.180977146351438
 30
0.0
  0
VERTEX
  5
7B4
  8
0
  6
CONTINU
 10
12.33086417730634
 20
5.184207866431292
 30
0.0
  0
VERTEX
  5
7B5
  8
0
  6
CONTINU
 10
12.33324651334785
 20
5.188228510304608
 30
0.0
  0
VERTEX
  5
7B6
  8
0
  6
CONTINU
 10
12.33412772762976
 20
5.192818340479027
 30
0.0
  0
SEQEND
  5
ADA
  8
0
  6
CONTINU
  0
POLYLINE
  5
3C0
  8
0
  6
CONTINU
 66
     1
 10
0.0
 20
0.0
 30
0.0
  0
VERTEX
  5
7B7
  8
0
  6
CONTINU
 10
12.32518394430169
 20
5.203229364140444
 30
0.0
  0
VERTEX
  5
7B8
  8
0
  6
CONTINU
 10
12.32448937847205
 20
5.206356283609827
 30
0.0
  0
SEQEND
  5
ADB
  8
0
  6
CONTINU
  0
POLYLINE
  5
3C6
  8
0
  6
CONTINU
 66
     1
 10
0.0
 20
0.0
 30
0.0
  0
VERTEX
  5
7B9
  8
0
  6
CONTINU
 10
12.32448937847205
 20
5.206356283609827
 30
0.0
  0
VERTEX
  5
7BA
  8
0
  6
CONTINU
 10
12.32436547308579
 20
5.206708354158597
 30
0.0
  0
SEQEND
  5
ADC
  8
0
  6
CONTINU
  0
POLYLINE
  5
3D0
  8
0
  6
CONTINU
 66
     1
 10
0.0
 20
0.0
 30
0.0
  0
VERTEX
  5
7BB
  8
0
  6
CONTINU
 10
12.32371777953349
 20
5.20486415976884
 30
0.0
  0
VERTEX
  5
7BC
  8
0
  6
CONTINU
 10
12.31925935139565
 20
5.203122077849792
 30
0.0
  0
VERTEX
  5
7BD
  8
0
  6
CONTINU
 10
12.31455474173063
 20
5.202098098500024
 30
0.0
  0
VERTEX
  5
7BE
  8
0
  6
CONTINU
 10
12.3097775765121
 20
5.201763226761918
 30
0.0
  0
SEQEND
  5
ADD
  8
0
  6
CONTINU
  0
POLYLINE
  5
3D6
  8
0
  6
CONTINU
 66
     1
 10
0.0
 20
0.0
 30
0.0
  0
VERTEX
  5
7BF
  8
0
  6
CONTINU
 10
12.32448937847205
 20
5.206356283609827
 30
0.0
  0
VERTEX
  5
7C0
  8
0
  6
CONTINU
 10
12.3244572014955
 20
5.205768095344951
 30
0.0
  0
VERTEX
  5
7C1
  8
0
  6
CONTINU
 10
12.32416728445723
 20
5.205251919039151
 30
0.0
  0
VERTEX
  5
7C2
  8
0
  6
CONTINU
 10
12.32371777953349
 20
5.20486415976884
 30
0.0
  0
SEQEND
  5
ADE
  8
0
  6
CONTINU
  0
POLYLINE
  5
3DC
  8
0
  6
CONTINU
 66
     1
 10
0.0
 20
0.0
 30
0.0
  0
VERTEX
  5
7C3
  8
0
  6
CONTINU
 10
12.32518394430169
 20
5.203229364140444
 30
0.0
 42
0.0160038349120977
  0
VERTEX
  5
7C4
  8
0
  6
CONTINU
 10
12.32679645052454
 20
5.197129526047388
 30
0.0
  0
VERTEX
  5
7C5
  8
0
  6
CONTINU
 10
12.32779609210189
 20
5.194142274290839
 30
0.0
  0
SEQEND
  5
ADF
  8
0
  6
CONTINU
  0
POLYLINE
  5
3E2
  8
0
  6
CONTINU
 66
     1
 10
0.0
 20
0.0
 30
0.0
  0
VERTEX
  5
7C6
  8
0
  6
CONTINU
 10
12.32779609210189
 20
5.194142274290839
 30
0.0
 42
0.0338207173592185
  0
VERTEX
  5
7C7
  8
0
  6
CONTINU
 10
12.329262233082
 20
5.191088227174553
 30
0.0
  0
VERTEX
  5
7C8
  8
0
  6
CONTINU
 10
12.33082942540873
 20
5.190814527370613
 30
0.0
  0
SEQEND
  5
AE0
  8
0
  6
CONTINU
  0
POLYLINE
  5
3E8
  8
0
  6
CONTINU
 66
     1
 10
0.0
 20
0.0
 30
0.0
  0
VERTEX
  5
7C9
  8
0
  6
CONTINU
 10
12.33082942540873
 20
5.190814527370613
 30
0.0
  0
VERTEX
  5
7CA
  8
0
  6
CONTINU
 10
12.3317230756057
 20
5.193232516532102
 30
0.0
 42
0.0308509449390709
  0
VERTEX
  5
7CB
  8
0
  6
CONTINU
 10
12.33236447890589
 20
5.198347120387648
 30
0.0
  0
SEQEND
  5
AE1
  8
0
  6
CONTINU
  0
POLYLINE
  5
3EE
  8
0
  6
CONTINU
 66
     1
 10
0.0
 20
0.0
 30
0.0
  0
VERTEX
  5
7CC
  8
0
  6
CONTINU
 10
12.33236447890589
 20
5.198347120387648
 30
0.0
  0
VERTEX
  5
7CD
  8
0
  6
CONTINU
 10
12.33264573657999
 20
5.204409624212279
 30
0.0
 42
0.0097918523827731
  0
VERTEX
  5
7CE
  8
0
  6
CONTINU
 10
12.33266746128437
 20
5.216546960488226
 30
0.0
  0
SEQEND
  5
AE2
  8
0
  6
CONTINU
  0
POLYLINE
  5
3F7
  8
0
  6
CONTINU
 66
     1
 10
0.0
 20
0.0
 30
0.0
  0
VERTEX
  5
7CF
  8
0
  6
CONTINU
 10
12.33266746128437
 20
5.216546960488226
 30
0.0
  0
VERTEX
  5
7D0
  8
0
  6
CONTINU
 10
12.33000222724869
 20
5.215877519158677
 30
0.0
  0
VERTEX
  5
7D1
  8
0
  6
CONTINU
 10
12.32762723450059
 20
5.214643543075243
 30
0.0
  0
VERTEX
  5
7D2
  8
0
  6
CONTINU
 10
12.32564305754947
 20
5.212854325795616
 30
0.0
  0
SEQEND
  5
AE3
  8
0
  6
CONTINU
  0
POLYLINE
  5
403
  8
0
  6
CONTINU
 66
     1
 10
0.0
 20
0.0
 30
0.0
  0
VERTEX
  5
7D3
  8
0
  6
CONTINU
 10
12.32564305754947
 20
5.212854325795616
 30
0.0
  0
VERTEX
  5
7D4
  8
0
  6
CONTINU
 10
12.32460357145285
 20
5.211166784519393
 30
0.0
  0
VERTEX
  5
7D5
  8
0
  6
CONTINU
 10
12.32410323567997
 20
5.209252540517013
 30
0.0
  0
VERTEX
  5
7D6
  8
0
  6
CONTINU
 10
12.32424510429382
 20
5.207219993196878
 30
0.0
  0
SEQEND
  5
AE4
  8
0
  6
CONTINU
  0
POLYLINE
  5
40F
  8
0
  6
CONTINU
 66
     1
 10
0.0
 20
0.0
 30
0.0
  0
VERTEX
  5
7D7
  8
0
  6
CONTINU
 10
12.32345654902322
 20
5.233732762103272
 30
0.0
  0
VERTEX
  5
7D8
  8
0
  6
CONTINU
 10
12.3190738998586
 20
5.235448012391162
 30
0.0
  0
VERTEX
  5
7D9
  8
0
  6
CONTINU
 10
12.31447421345856
 20
5.236453635891608
 30
0.0
  0
VERTEX
  5
7DA
  8
0
  6
CONTINU
 10
12.3097775765121
 20
5.236723996548688
 30
0.0
  0
SEQEND
  5
AE5
  8
0
  6
CONTINU
  0
POLYLINE
  5
415
  8
0
  6
CONTINU
 66
     1
 10
0.0
 20
0.0
 30
0.0
  0
VERTEX
  5
7DB
  8
0
  6
CONTINU
 10
12.33412772762976
 20
5.218980854555656
 30
0.0
  0
VERTEX
  5
7DC
  8
0
  6
CONTINU
 10
12.3340297852619
 20
5.220580638707334
 30
0.0
  0
SEQEND
  5
AE6
  8
0
  6
CONTINU
  0
POLYLINE
  5
421
  8
0
  6
CONTINU
 66
     1
 10
0.0
 20
0.0
 30
0.0
  0
VERTEX
  5
7DD
  8
0
  6
CONTINU
 10
12.3340297852619
 20
5.220580638707334
 30
0.0
  0
VERTEX
  5
7DE
  8
0
  6
CONTINU
 10
12.33375848394924
 20
5.221359323447191
 30
0.0
  0
VERTEX
  5
7DF
  8
0
  6
CONTINU
 10
12.333191562625
 20
5.221958333533093
 30
0.0
  0
VERTEX
  5
7E0
  8
0
  6
CONTINU
 10
12.33243327698202
 20
5.222284006211353
 30
0.0
  0
SEQEND
  5
AE7
  8
0
  6
CONTINU
  0
POLYLINE
  5
427
  8
0
  6
CONTINU
 66
     1
 10
0.0
 20
0.0
 30
0.0
  0
VERTEX
  5
7E1
  8
0
  6
CONTINU
 10
12.32430730294262
 20
5.228275020213678
 30
0.0
 42
0.1003626216067377
  0
VERTEX
  5
7E2
  8
0
  6
CONTINU
 10
12.32553157605337
 20
5.226050375630382
 30
0.0
  0
SEQEND
  5
AE8
  8
0
  6
CONTINU
  0
POLYLINE
  5
42F
  8
0
  6
CONTINU
 66
     1
 10
0.0
 20
0.0
 30
0.0
  0
VERTEX
  5
7E3
  8
0
  6
CONTINU
 10
12.32553157605337
 20
5.226050375630382
 30
0.0
  0
VERTEX
  5
7E4
  8
0
  6
CONTINU
 10
12.32749518873375
 20
5.224291493350655
 30
0.0
  0
VERTEX
  5
7E5
  8
0
  6
CONTINU
 10
12.32986741582589
 20
5.223051799988786
 30
0.0
  0
VERTEX
  5
7E6
  8
0
  6
CONTINU
 10
12.33243327698202
 20
5.222284006211353
 30
0.0
  0
SEQEND
  5
AE9
  8
0
  6
CONTINU
  0
POLYLINE
  5
43B
  8
0
  6
CONTINU
 66
     1
 10
0.0
 20
0.0
 30
0.0
  0
VERTEX
  5
7E7
  8
0
  6
CONTINU
 10
12.3243794207502
 20
5.23174034345752
 30
0.0
  0
VERTEX
  5
7E8
  8
0
  6
CONTINU
 10
12.32553157605337
 20
5.226050375630382
 30
0.0
  0
SEQEND
  5
AEA
  8
0
  6
CONTINU
  0
POLYLINE
  5
441
  8
0
  6
CONTINU
 66
     1
 10
0.0
 20
0.0
 30
0.0
  0
VERTEX
  5
7E9
  8
0
  6
CONTINU
 10
12.32430730294262
 20
5.228275020213678
 30
0.0
  0
VERTEX
  5
7EA
  8
0
  6
CONTINU
 10
12.32409192510077
 20
5.229487328813199
 30
0.0
  0
VERTEX
  5
7EB
  8
0
  6
CONTINU
 10
12.32412745901145
 20
5.2307000546453
 30
0.0
  0
VERTEX
  5
7EC
  8
0
  6
CONTINU
 10
12.3243794207502
 20
5.23174034345752
 30
0.0
  0
SEQEND
  5
AEB
  8
0
  6
CONTINU
  0
POLYLINE
  5
447
  8
0
  6
CONTINU
 66
     1
 10
0.0
 20
0.0
 30
0.0
  0
VERTEX
  5
7ED
  8
0
  6
CONTINU
 10
12.3097775765121
 20
5.175600274160201
 30
0.0
  0
VERTEX
  5
7EE
  8
0
  6
CONTINU
 10
12.30509600762223
 20
5.175921689386397
 30
0.0
  0
VERTEX
  5
7EF
  8
0
  6
CONTINU
 10
12.30050049831635
 20
5.17689880994118
 30
0.0
  0
VERTEX
  5
7F0
  8
0
  6
CONTINU
 10
12.29612339953714
 20
5.178562108812427
 30
0.0
  0
VERTEX
  5
7F1
  8
0
  6
CONTINU
 10
12.29210045730835
 20
5.180977146351438
 30
0.0
  0
VERTEX
  5
7F2
  8
0
  6
CONTINU
 10
12.28869099479134
 20
5.184207866431292
 30
0.0
  0
VERTEX
  5
7F3
  8
0
  6
CONTINU
 10
12.28630865874983
 20
5.188228510304608
 30
0.0
  0
VERTEX
  5
7F4
  8
0
  6
CONTINU
 10
12.28542744446792
 20
5.192818340479027
 30
0.0
  0
SEQEND
  5
AEC
  8
0
  6
CONTINU
  0
POLYLINE
  5
453
  8
0
  6
CONTINU
 66
     1
 10
0.0
 20
0.0
 30
0.0
  0
VERTEX
  5
7F5
  8
0
  6
CONTINU
 10
12.29510467065661
 20
5.206347135235621
 30
0.0
  0
VERTEX
  5
7F6
  8
0
  6
CONTINU
 10
12.29518960977632
 20
5.206708093446811
 30
0.0
  0
SEQEND
  5
AED
  8
0
  6
CONTINU
  0
POLYLINE
  5
45C
  8
0
  6
CONTINU
 66
     1
 10
0.0
 20
0.0
 30
0.0
  0
VERTEX
  5
7F7
  8
0
  6
CONTINU
 10
12.29583739256419
 20
5.20486415976884
 30
0.0
  0
VERTEX
  5
7F8
  8
0
  6
CONTINU
 10
12.30029583977552
 20
5.203122077849792
 30
0.0
  0
VERTEX
  5
7F9
  8
0
  6
CONTINU
 10
12.30500043036705
 20
5.202098098500024
 30
0.0
  0
VERTEX
  5
7FA
  8
0
  6
CONTINU
 10
12.3097775765121
 20
5.201763226761918
 30
0.0
  0
SEQEND
  5
AEE
  8
0
  6
CONTINU
  0
POLYLINE
  5
462
  8
0
  6
CONTINU
 66
     1
 10
0.0
 20
0.0
 30
0.0
  0
VERTEX
  5
7FB
  8
0
  6
CONTINU
 10
12.28542744446792
 20
5.218981913134315
 30
0.0
  0
VERTEX
  5
7FC
  8
0
  6
CONTINU
 10
12.28542744446792
 20
5.217657693591884
 30
0.0
  0
SEQEND
  5
AEF
  8
0
  6
CONTINU
  0
POLYLINE
  5
468
  8
0
  6
CONTINU
 66
     1
 10
0.0
 20
0.0
 30
0.0
  0
VERTEX
  5
7FD
  8
0
  6
CONTINU
 10
12.29510467065661
 20
5.206347135235621
 30
0.0
  0
VERTEX
  5
7FE
  8
0
  6
CONTINU
 10
12.29509798967567
 20
5.205768095344951
 30
0.0
  0
VERTEX
  5
7FF
  8
0
  6
CONTINU
 10
12.29538788764044
 20
5.205251919039151
 30
0.0
  0
VERTEX
  5
800
  8
0
  6
CONTINU
 10
12.29583739256419
 20
5.20486415976884
 30
0.0
  0
SEQEND
  5
AF0
  8
0
  6
CONTINU
  0
POLYLINE
  5
46E
  8
0
  6
CONTINU
 66
     1
 10
0.0
 20
0.0
 30
0.0
  0
VERTEX
  5
801
  8
0
  6
CONTINU
 10
12.29438090035324
 20
5.203271393045882
 30
0.0
 42
-0.0161191348397694
  0
VERTEX
  5
802
  8
0
  6
CONTINU
 10
12.29275872157314
 20
5.197129526047388
 30
0.0
  0
VERTEX
  5
803
  8
0
  6
CONTINU
 10
12.29175907999579
 20
5.194142274290839
 30
0.0
  0
SEQEND
  5
AF1
  8
0
  6
CONTINU
  0
POLYLINE
  5
474
  8
0
  6
CONTINU
 66
     1
 10
0.0
 20
0.0
 30
0.0
  0
VERTEX
  5
804
  8
0
  6
CONTINU
 10
12.29175907999579
 20
5.194142274290839
 30
0.0
 42
-0.0338207173592135
  0
VERTEX
  5
805
  8
0
  6
CONTINU
 10
12.29029293901568
 20
5.191088227174553
 30
0.0
  0
VERTEX
  5
806
  8
0
  6
CONTINU
 10
12.28872574668895
 20
5.190814527370613
 30
0.0
  0
SEQEND
  5
AF2
  8
0
  6
CONTINU
  0
POLYLINE
  5
47A
  8
0
  6
CONTINU
 66
     1
 10
0.0
 20
0.0
 30
0.0
  0
VERTEX
  5
807
  8
0
  6
CONTINU
 10
12.28872574668895
 20
5.190814527370613
 30
0.0
  0
VERTEX
  5
808
  8
0
  6
CONTINU
 10
12.28783209649198
 20
5.193232516532102
 30
0.0
 42
-0.0308509449390709
  0
VERTEX
  5
809
  8
0
  6
CONTINU
 10
12.28719069319179
 20
5.198347120387648
 30
0.0
  0
SEQEND
  5
AF3
  8
0
  6
CONTINU
  0
POLYLINE
  5
480
  8
0
  6
CONTINU
 66
     1
 10
0.0
 20
0.0
 30
0.0
  0
VERTEX
  5
80A
  8
0
  6
CONTINU
 10
12.28719069319179
 20
5.198347120387648
 30
0.0
  0
VERTEX
  5
80B
  8
0
  6
CONTINU
 10
12.28690943551769
 20
5.204409624212279
 30
0.0
 42
-0.0097887094479827
  0
VERTEX
  5
80C
  8
0
  6
CONTINU
 10
12.28688816364678
 20
5.216546904866395
 30
0.0
  0
SEQEND
  5
AF4
  8
0
  6
CONTINU
  0
POLYLINE
  5
486
  8
0
  6
CONTINU
 66
     1
 10
0.0
 20
0.0
 30
0.0
  0
VERTEX
  5
80D
  8
0
  6
CONTINU
 10
12.28542744446792
 20
5.217657693591884
 30
0.0
  0
VERTEX
  5
80E
  8
0
  6
CONTINU
 10
12.28581032569333
 20
5.217003164975106
 30
0.0
 42
0.1400690818647567
  0
VERTEX
  5
80F
  8
0
  6
CONTINU
 10
12.28688816364678
 20
5.216546904866395
 30
0.0
  0
SEQEND
  5
AF5
  8
0
  6
CONTINU
  0
POLYLINE
  5
48F
  8
0
  6
CONTINU
 66
     1
 10
0.0
 20
0.0
 30
0.0
  0
VERTEX
  5
810
  8
0
  6
CONTINU
 10
12.28688816364678
 20
5.216546904866395
 30
0.0
  0
VERTEX
  5
811
  8
0
  6
CONTINU
 10
12.28955296392248
 20
5.215877519158677
 30
0.0
  0
VERTEX
  5
812
  8
0
  6
CONTINU
 10
12.29192793759709
 20
5.214643543075243
 30
0.0
  0
VERTEX
  5
813
  8
0
  6
CONTINU
 10
12.2939121336217
 20
5.212854325795616
 30
0.0
  0
SEQEND
  5
AF6
  8
0
  6
CONTINU
  0
POLYLINE
  5
49B
  8
0
  6
CONTINU
 66
     1
 10
0.0
 20
0.0
 30
0.0
  0
VERTEX
  5
814
  8
0
  6
CONTINU
 10
12.2939121336217
 20
5.212854325795616
 30
0.0
  0
VERTEX
  5
815
  8
0
  6
CONTINU
 10
12.29495160064483
 20
5.211166784519393
 30
0.0
  0
VERTEX
  5
816
  8
0
  6
CONTINU
 10
12.2954519554912
 20
5.209252540517013
 30
0.0
  0
VERTEX
  5
817
  8
0
  6
CONTINU
 10
12.29531006780386
 20
5.207219993196878
 30
0.0
  0
SEQEND
  5
AF7
  8
0
  6
CONTINU
  0
POLYLINE
  5
4A7
  8
0
  6
CONTINU
 66
     1
 10
0.0
 20
0.0
 30
0.0
  0
VERTEX
  5
818
  8
0
  6
CONTINU
 10
12.29609862307446
 20
5.233732762103272
 30
0.0
  0
VERTEX
  5
819
  8
0
  6
CONTINU
 10
12.30048129131257
 20
5.235448012391162
 30
0.0
  0
VERTEX
  5
81A
  8
0
  6
CONTINU
 10
12.30508095863912
 20
5.236453635891608
 30
0.0
  0
VERTEX
  5
81B
  8
0
  6
CONTINU
 10
12.3097775765121
 20
5.236723996548688
 30
0.0
  0
SEQEND
  5
AF8
  8
0
  6
CONTINU
  0
POLYLINE
  5
4AD
  8
0
  6
CONTINU
 66
     1
 10
0.0
 20
0.0
 30
0.0
  0
VERTEX
  5
81C
  8
0
  6
CONTINU
 10
12.28542744446792
 20
5.218981913134315
 30
0.0
  0
VERTEX
  5
81D
  8
0
  6
CONTINU
 10
12.28552511980693
 20
5.220580827058042
 30
0.0
  0
SEQEND
  5
AF9
  8
0
  6
CONTINU
  0
POLYLINE
  5
4B3
  8
0
  6
CONTINU
 66
     1
 10
0.0
 20
0.0
 30
0.0
  0
VERTEX
  5
81E
  8
0
  6
CONTINU
 10
12.29609862307446
 20
5.233732762103272
 30
0.0
 42
0.2422118706747758
  0
VERTEX
  5
81F
  8
0
  6
CONTINU
 10
12.29506370304962
 20
5.232377176399888
 30
0.0
  0
SEQEND
  5
AFA
  8
0
  6
CONTINU
  0
POLYLINE
  5
4B9
  8
0
  6
CONTINU
 66
     1
 10
0.0
 20
0.0
 30
0.0
  0
VERTEX
  5
820
  8
0
  6
CONTINU
 10
12.28552511980693
 20
5.220580827058042
 30
0.0
  0
VERTEX
  5
821
  8
0
  6
CONTINU
 10
12.28579668814844
 20
5.221359323447191
 30
0.0
  0
VERTEX
  5
822
  8
0
  6
CONTINU
 10
12.28636362854617
 20
5.221958333533093
 30
0.0
  0
VERTEX
  5
823
  8
0
  6
CONTINU
 10
12.28712189511566
 20
5.222284006211353
 30
0.0
  0
SEQEND
  5
AFB
  8
0
  6
CONTINU
  0
POLYLINE
  5
4BF
  8
0
  6
CONTINU
 66
     1
 10
0.0
 20
0.0
 30
0.0
  0
VERTEX
  5
824
  8
0
  6
CONTINU
 10
12.29522772336836
 20
5.228199154827755
 30
0.0
  0
VERTEX
  5
825
  8
0
  6
CONTINU
 10
12.29334393437367
 20
5.225315940000913
 30
0.0
  0
VERTEX
  5
826
  8
0
  6
CONTINU
 10
12.29044237980482
 20
5.223378941325726
 30
0.0
  0
VERTEX
  5
827
  8
0
  6
CONTINU
 10
12.28712189511566
 20
5.222284006211353
 30
0.0
  0
SEQEND
  5
AFC
  8
0
  6
CONTINU
  0
POLYLINE
  5
4CB
  8
0
  6
CONTINU
 66
     1
 10
0.0
 20
0.0
 30
0.0
  0
VERTEX
  5
828
  8
0
  6
CONTINU
 10
12.29517569942475
 20
5.23174055783388
 30
0.0
  0
VERTEX
  5
829
  8
0
  6
CONTINU
 10
12.29392983381983
 20
5.225930735783447
 30
0.0
  0
SEQEND
  5
AFD
  8
0
  6
CONTINU
  0
POLYLINE
  5
4DD
  8
0
  6
CONTINU
 66
     1
 10
0.0
 20
0.0
 30
0.0
  0
VERTEX
  5
82A
  8
0
  6
CONTINU
 10
12.29517569942475
 20
5.23174055783388
 30
0.0
 42
-0.2036088689070542
  0
VERTEX
  5
82B
  8
0
  6
CONTINU
 10
12.29506370304962
 20
5.232377176399888
 30
0.0
  0
SEQEND
  5
AFE
  8
0
  6
CONTINU
  0
POLYLINE
  5
4E9
  8
0
  6
CONTINU
 66
     1
 10
0.0
 20
0.0
 30
0.0
  0
VERTEX
  5
82C
  8
0
  6
CONTINU
 10
12.29522772336836
 20
5.228199154827755
 30
0.0
  0
VERTEX
  5
82D
  8
0
  6
CONTINU
 10
12.29546324699691
 20
5.229487328813199
 30
0.0
  0
VERTEX
  5
82E
  8
0
  6
CONTINU
 10
12.29542771308623
 20
5.2307000546453
 30
0.0
  0
VERTEX
  5
82F
  8
0
  6
CONTINU
 10
12.29517569942475
 20
5.23174055783388
 30
0.0
  0
SEQEND
  5
AFF
  8
0
  6
CONTINU
  0
POLYLINE
  5
4FC
  8
0
  6
CONTINU
 66
     1
 10
0.0
 20
0.0
 30
0.0
  0
VERTEX
  5
830
  8
0
  6
CONTINU
 10
12.28542744446792
 20
5.218981913134315
 30
0.0
  0
VERTEX
  5
831
  8
0
  6
CONTINU
 10
12.28542744446792
 20
5.192818340479027
 30
0.0
  0
SEQEND
  5
B00
  8
0
  6
CONTINU
  0
POLYLINE
  5
4FD
  8
0
  6
CONTINU
 66
     1
 10
0.0
 20
0.0
 30
0.0
  0
VERTEX
  5
832
  8
0
  6
CONTINU
 10
12.29531006780386
 20
5.207219993196878
 30
0.0
  0
VERTEX
  5
833
  8
0
  6
CONTINU
 10
12.29518960977632
 20
5.206708093446811
 30
0.0
  0
SEQEND
  5
B01
  8
0
  6
CONTINU
  0
POLYLINE
  5
4FE
  8
0
  6
CONTINU
 66
     1
 10
0.0
 20
0.0
 30
0.0
  0
VERTEX
  5
834
  8
0
  6
CONTINU
 10
12.29531006780386
 20
5.207219993196878
 30
0.0
  0
VERTEX
  5
835
  8
0
  6
CONTINU
 10
12.29438090035324
 20
5.203271393045882
 30
0.0
  0
SEQEND
  5
B02
  8
0
  6
CONTINU
  0
POLYLINE
  5
4FF
  8
0
  6
CONTINU
 66
     1
 10
0.0
 20
0.0
 30
0.0
  0
VERTEX
  5
836
  8
0
  6
CONTINU
 10
12.32424510429382
 20
5.207219993196878
 30
0.0
  0
VERTEX
  5
837
  8
0
  6
CONTINU
 10
12.32436547308579
 20
5.206708354158597
 30
0.0
  0
SEQEND
  5
B03
  8
0
  6
CONTINU
  0
POLYLINE
  5
500
  8
0
  6
CONTINU
 66
     1
 10
0.0
 20
0.0
 30
0.0
  0
VERTEX
  5
838
  8
0
  6
CONTINU
 10
12.32424510429382
 20
5.207219993196878
 30
0.0
  0
VERTEX
  5
839
  8
0
  6
CONTINU
 10
12.32518394430169
 20
5.203229364140445
 30
0.0
  0
SEQEND
  5
B04
  8
0
  6
CONTINU
  0
POLYLINE
  5
501
  8
0
  6
CONTINU
 66
     1
 10
0.0
 20
0.0
 30
0.0
  0
VERTEX
  5
83A
  8
0
  6
CONTINU
 10
12.33412772762976
 20
5.218980854555656
 30
0.0
  0
VERTEX
  5
83B
  8
0
  6
CONTINU
 10
12.33412772762976
 20
5.192818340479027
 30
0.0
  0
SEQEND
  5
B05
  8
0
  6
CONTINU
  0
POLYLINE
  5
502
  8
0
  6
CONTINU
 66
     1
 10
0.0
 20
0.0
 30
0.0
  0
VERTEX
  5
83C
  8
0
  6
CONTINU
 10
12.29429272587338
 20
5.220441220644554
 30
0.0
  0
VERTEX
  5
83D
  8
0
  6
CONTINU
 10
12.29407757706841
 20
5.221456709418121
 30
0.0
  0
SEQEND
  5
B06
  8
0
  6
CONTINU
  0
POLYLINE
  5
503
  8
0
  6
AXES
 66
     1
 10
0.0
 20
0.0
 30
0.0
  0
VERTEX
  5
83E
  8
0
  6
AXES
 10
12.76325974240211
 20
5.230923219239181
 30
0.0
  0
VERTEX
  5
83F
  8
0
  6
AXES
 10
12.69309011073505
 20
5.160754231302379
 30
0.0
  0
SEQEND
  5
B07
  8
0
  6
AXES
  0
POLYLINE
  5
504
  8
0
  6
CONTINU
 66
     1
 10
0.0
 20
0.0
 30
0.0
  0
VERTEX
  5
840
  8
0
  6
CONTINU
 10
12.85561336807375
 20
5.345257548897408
 30
0.0
  0
VERTEX
  5
841
  8
0
  6
CONTINU
 10
12.85511337562367
 20
5.345757350612591
 30
0.0
  0
SEQEND
  5
B08
  8
0
  6
CONTINU
  0
POLYLINE
  5
505
  8
0
  6
CONTINU
 66
     1
 10
0.0
 20
0.0
 30
0.0
  0
VERTEX
  5
842
  8
0
  6
CONTINU
 10
12.85511337562367
 20
5.352057219243932
 30
0.0
  0
VERTEX
  5
843
  8
0
  6
CONTINU
 10
12.85561447433613
 20
5.352558012780563
 30
0.0
  0
SEQEND
  5
B09
  8
0
  6
CONTINU
  0
POLYLINE
  5
506
  8
0
  6
CONTINU
 66
     1
 10
0.0
 20
0.0
 30
0.0
  0
VERTEX
  5
844
  8
0
  6
CONTINU
 10
12.85561447433613
 20
5.352558012780563
 30
0.0
  0
VERTEX
  5
845
  8
0
  6
CONTINU
 10
12.85545490552415
 20
5.353558016754206
 30
0.0
  0
SEQEND
  5
B0A
  8
0
  6
CONTINU
  0
POLYLINE
  5
507
  8
0
  6
CONTINU
 66
     1
 10
0.0
 20
0.0
 30
0.0
  0
VERTEX
  5
846
  8
0
  6
CONTINU
 10
12.86691341869796
 20
5.342758082557745
 30
0.0
  0
VERTEX
  5
847
  8
0
  6
CONTINU
 10
12.85761337602103
 20
5.342758080620595
 30
0.0
  0
SEQEND
  5
B0B
  8
0
  6
CONTINU
  0
POLYLINE
  5
508
  8
0
  6
CONTINU
 66
     1
 10
0.0
 20
0.0
 30
0.0
  0
VERTEX
  5
848
  8
0
  6
CONTINU
 10
12.87821349985392
 20
5.344757830818422
 30
0.0
  0
VERTEX
  5
849
  8
0
  6
CONTINU
 10
12.87821350746916
 20
5.345257548897408
 30
0.0
  0
SEQEND
  5
B0C
  8
0
  6
CONTINU
  0
POLYLINE
  5
509
  8
0
  6
CONTINU
 66
     1
 10
0.0
 20
0.0
 30
0.0
  0
VERTEX
  5
84A
  8
0
  6
CONTINU
 10
12.87621349952187
 20
5.342758080620595
 30
0.0
 42
0.4141769292539938
  0
VERTEX
  5
84B
  8
0
  6
CONTINU
 10
12.87821349985392
 20
5.344757830818422
 30
0.0
  0
SEQEND
  5
B0D
  8
0
  6
CONTINU
  0
POLYLINE
  5
50A
  8
0
  6
CONTINU
 66
     1
 10
0.0
 20
0.0
 30
0.0
  0
VERTEX
  5
84C
  8
0
  6
CONTINU
 10
12.87821350746916
 20
5.345257548897408
 30
0.0
  0
VERTEX
  5
84D
  8
0
  6
CONTINU
 10
12.87871349991924
 20
5.345757350612591
 30
0.0
  0
SEQEND
  5
B0E
  8
0
  6
CONTINU
  0
POLYLINE
  5
50B
  8
0
  6
CONTINU
 66
     1
 10
0.0
 20
0.0
 30
0.0
  0
VERTEX
  5
84E
  8
0
  6
CONTINU
 10
12.87871349991924
 20
5.352057219243932
 30
0.0
  0
VERTEX
  5
84F
  8
0
  6
CONTINU
 10
12.87837197001876
 20
5.352558012780563
 30
0.0
  0
SEQEND
  5
B0F
  8
0
  6
CONTINU
  0
POLYLINE
  5
50C
  8
0
  6
CONTINU
 66
     1
 10
0.0
 20
0.0
 30
0.0
  0
VERTEX
  5
850
  8
0
  6
CONTINU
 10
12.87837197001876
 20
5.352558012780563
 30
0.0
  0
VERTEX
  5
851
  8
0
  6
CONTINU
 10
12.87837197001876
 20
5.353558016754206
 30
0.0
  0
SEQEND
  5
B10
  8
0
  6
CONTINU
  0
POLYLINE
  5
50D
  8
0
  6
CONTINU
 66
     1
 10
0.0
 20
0.0
 30
0.0
  0
VERTEX
  5
852
  8
0
  6
CONTINU
 10
12.86691341869796
 20
5.342758082557745
 30
0.0
  0
VERTEX
  5
853
  8
0
  6
CONTINU
 10
12.87621349952187
 20
5.342758080620595
 30
0.0
  0
SEQEND
  5
B11
  8
0
  6
CONTINU
  0
POLYLINE
  5
50E
  8
0
  6
AXES
 66
     1
 10
0.0
 20
0.0
 30
0.0
  0
VERTEX
  5
854
  8
0
  6
AXES
 10
12.57515647177555
 20
5.171536250723958
 30
0.0
  0
VERTEX
  5
855
  8
0
  6
AXES
 10
12.60446425550761
 20
5.171536250723958
 30
0.0
  0
SEQEND
  5
B12
  8
0
  6
AXES
  0
POLYLINE
  5
50F
  8
0
  6
CONTINU
 66
     1
 10
0.0
 20
0.0
 30
0.0
  0
VERTEX
  5
856
  8
0
  6
CONTINU
 10
12.59169861105618
 20
5.159161318665775
 30
0.0
  0
VERTEX
  5
857
  8
0
  6
CONTINU
 10
12.59164628891642
 20
5.183986599649602
 30
0.0
  0
SEQEND
  5
B13
  8
0
  6
CONTINU
  0
POLYLINE
  5
510
  8
0
  6
CONTINU
 66
     1
 10
0.0
 20
0.0
 30
0.0
  0
VERTEX
  5
858
  8
0
  6
CONTINU
 10
12.57972754674947
 20
5.158461254558525
 30
0.0
  0
VERTEX
  5
859
  8
0
  6
CONTINU
 10
12.57972754674947
 20
5.184611251657762
 30
0.0
  0
SEQEND
  5
B14
  8
0
  6
CONTINU
  0
POLYLINE
  5
511
  8
0
  6
CONTINU
 66
     1
 10
0.0
 20
0.0
 30
0.0
  0
VERTEX
  5
85A
  8
0
  6
CONTINU
 10
12.59276846811511
 20
5.177536232995513
 30
0.0
  0
VERTEX
  5
85B
  8
0
  6
CONTINU
 10
12.59558661379235
 20
5.177536229634907
 30
0.0
  0
SEQEND
  5
B15
  8
0
  6
CONTINU
  0
POLYLINE
  5
512
  8
0
  6
CONTINU
 66
     1
 10
0.0
 20
0.0
 30
0.0
  0
VERTEX
  5
85C
  8
0
  6
CONTINU
 10
12.59276846275024
 20
5.188174651159656
 30
0.0
 42
0.2109681917330275
  0
VERTEX
  5
85D
  8
0
  6
CONTINU
 10
12.59276846811511
 20
5.177536232995513
 30
0.0
  0
SEQEND
  5
B16
  8
0
  6
CONTINU
  0
POLYLINE
  5
513
  8
0
  6
CONTINU
 66
     1
 10
0.0
 20
0.0
 30
0.0
  0
VERTEX
  5
85E
  8
0
  6
CONTINU
 10
12.59558661379235
 20
5.177536229634907
 30
0.0
 42
0.1580933948052589
  0
VERTEX
  5
85F
  8
0
  6
CONTINU
 10
12.59558661753867
 20
5.188174651539029
 30
0.0
  0
SEQEND
  5
B17
  8
0
  6
CONTINU
  0
POLYLINE
  5
514
  8
0
  6
CONTINU
 66
     1
 10
0.0
 20
0.0
 30
0.0
  0
VERTEX
  5
860
  8
0
  6
CONTINU
 10
12.59276846811511
 20
5.177536232995513
 30
0.0
 42
0.1870305167382831
  0
VERTEX
  5
861
  8
0
  6
CONTINU
 10
12.59276847498702
 20
5.165536250723958
 30
0.0
  0
SEQEND
  5
B18
  8
0
  6
CONTINU
  0
POLYLINE
  5
515
  8
0
  6
CONTINU
 66
     1
 10
0.0
 20
0.0
 30
0.0
  0
VERTEX
  5
862
  8
0
  6
CONTINU
 10
12.59276847498702
 20
5.165536250723958
 30
0.0
 42
0.2077758160373732
  0
VERTEX
  5
863
  8
0
  6
CONTINU
 10
12.59261981675207
 20
5.155452375576815
 30
0.0
  0
SEQEND
  5
B19
  8
0
  6
CONTINU
  0
POLYLINE
  5
516
  8
0
  6
CONTINU
 66
     1
 10
0.0
 20
0.0
 30
0.0
  0
VERTEX
  5
864
  8
0
  6
CONTINU
 10
12.59558662740632
 20
5.155452422539108
 30
0.0
 42
0.1668609966791385
  0
VERTEX
  5
865
  8
0
  6
CONTINU
 10
12.59558661747856
 20
5.165536243092167
 30
0.0
  0
SEQEND
  5
B1A
  8
0
  6
CONTINU
  0
POLYLINE
  5
517
  8
0
  6
CONTINU
 66
     1
 10
0.0
 20
0.0
 30
0.0
  0
VERTEX
  5
866
  8
0
  6
CONTINU
 10
12.59276847498702
 20
5.165536250723958
 30
0.0
  0
VERTEX
  5
867
  8
0
  6
CONTINU
 10
12.59558661747856
 20
5.165536243092167
 30
0.0
  0
SEQEND
  5
B1B
  8
0
  6
CONTINU
  0
POLYLINE
  5
518
  8
0
  6
CONTINU
 66
     1
 10
0.0
 20
0.0
 30
0.0
  0
VERTEX
  5
868
  8
0
  6
CONTINU
 10
12.59558661747856
 20
5.165536243092167
 30
0.0
 42
0.1401546185630182
  0
VERTEX
  5
869
  8
0
  6
CONTINU
 10
12.59558661379235
 20
5.177536229634907
 30
0.0
  0
SEQEND
  5
B1C
  8
0
  6
CONTINU
  0
POLYLINE
  5
519
  8
0
  6
CONTINU
 66
     1
 10
0.0
 20
0.0
 30
0.0
  0
VERTEX
  5
86A
  8
0
  6
CONTINU
 10
12.52747806153496
 20
5.16553628721238
 30
0.0
  0
VERTEX
  5
86B
  8
0
  6
CONTINU
 10
12.527478061535
 20
5.179069863564152
 30
0.0
  0
SEQEND
  5
B1D
  8
0
  6
CONTINU
  0
POLYLINE
  5
51A
  8
0
  6
CONTINU
 66
     1
 10
0.0
 20
0.0
 30
0.0
  0
VERTEX
  5
86C
  8
0
  6
CONTINU
 10
12.48907708499325
 20
5.175652519626171
 30
0.0
 42
0.2346810703447638
  0
VERTEX
  5
86D
  8
0
  6
CONTINU
 10
12.49679405139241
 20
5.180080802081752
 30
0.0
  0
SEQEND
  5
B1E
  8
0
  6
CONTINU
  0
POLYLINE
  5
51B
  8
0
  6
CONTINU
 66
     1
 10
0.0
 20
0.0
 30
0.0
  0
VERTEX
  5
86E
  8
0
  6
CONTINU
 10
12.29447580460703
 20
5.179551186800379
 30
0.0
 42
1.100819173088892
  0
VERTEX
  5
86F
  8
0
  6
CONTINU
 10
12.32747052608023
 20
5.154695485426234
 30
0.0
  0
SEQEND
  5
B1F
  8
0
  6
CONTINU
  0
POLYLINE
  5
51C
  8
0
  6
CONTINU
 66
     1
 10
0.0
 20
0.0
 30
0.0
  0
VERTEX
  5
870
  8
0
  6
CONTINU
 10
12.29316518343233
 20
5.180337973971638
 30
0.0
 42
1.122961342183928
  0
VERTEX
  5
871
  8
0
  6
CONTINU
 10
12.32934203675215
 20
5.154939340303809
 30
0.0
  0
SEQEND
  5
B20
  8
0
  6
CONTINU
  0
POLYLINE
  5
51D
  8
0
  6
CONTINU
 66
     1
 10
0.0
 20
0.0
 30
0.0
  0
VERTEX
  5
872
  8
0
  6
CONTINU
 10
12.29095362665161
 20
5.182063853951961
 30
0.0
 42
1.161378246409025
  0
VERTEX
  5
873
  8
0
  6
CONTINU
 10
12.33262560200503
 20
5.155266368159544
 30
0.0
  0
SEQEND
  5
B21
  8
0
  6
CONTINU
  0
POLYLINE
  5
51E
  8
0
  6
CONTINU
 66
     1
 10
0.0
 20
0.0
 30
0.0
  0
VERTEX
  5
874
  8
0
  6
CONTINU
 10
12.32859851728451
 20
5.177403634739772
 30
0.0
 42
0.0413356182848256
  0
VERTEX
  5
875
  8
0
  6
CONTINU
 10
12.32638997623869
 20
5.180337966511711
 30
0.0
  0
SEQEND
  5
B22
  8
0
  6
CONTINU
  0
POLYLINE
  5
51F
  8
0
  6
CONTINU
 66
     1
 10
0.0
 20
0.0
 30
0.0
  0
VERTEX
  5
876
  8
0
  6
CONTINU
 10
12.33266406106495
 20
5.175720139059187
 30
0.0
 42
0.0756098302330919
  0
VERTEX
  5
877
  8
0
  6
CONTINU
 10
12.32860153503466
 20
5.18206384408637
 30
0.0
  0
SEQEND
  5
B23
  8
0
  6
CONTINU
  0
POLYLINE
  5
520
  8
0
  6
CONTINU
 66
     1
 10
0.0
 20
0.0
 30
0.0
  0
VERTEX
  5
878
  8
0
  6
CONTINU
 10
12.29527758565148
 20
5.171223083102159
 30
0.0
  0
VERTEX
  5
879
  8
0
  6
CONTINU
 10
12.29527758565148
 20
5.165554843919462
 30
0.0
  0
SEQEND
  5
B24
  8
0
  6
CONTINU
  0
POLYLINE
  5
521
  8
0
  6
CONTINU
 66
     1
 10
0.0
 20
0.0
 30
0.0
  0
VERTEX
  5
87A
  8
0
  6
CONTINU
 10
12.33367856640578
 20
5.175652519312276
 30
0.0
 42
0.0211635716068804
  0
VERTEX
  5
87B
  8
0
  6
CONTINU
 10
12.34027760541457
 20
5.175536247140508
 30
0.0
  0
SEQEND
  5
B25
  8
0
  6
CONTINU
  0
POLYLINE
  5
522
  8
0
  6
CONTINU
 66
     1
 10
0.0
 20
0.0
 30
0.0
  0
VERTEX
  5
87C
  8
0
  6
CONTINU
 10
12.34027807439073
 20
5.15553622824132
 30
0.0
 42
0.0778084988439186
  0
VERTEX
  5
87D
  8
0
  6
CONTINU
 10
12.31407804789139
 20
5.151688650694322
 30
0.0
  0
SEQEND
  5
B26
  8
0
  6
CONTINU
  0
POLYLINE
  5
523
  8
0
  6
CONTINU
 66
     1
 10
0.0
 20
0.0
 30
0.0
  0
VERTEX
  5
87E
  8
0
  6
CONTINU
 10
12.29527758565148
 20
5.165554843919462
 30
0.0
 42
0.5058267419986552
  0
VERTEX
  5
87F
  8
0
  6
CONTINU
 10
12.31407804789139
 20
5.151688650694322
 30
0.0
  0
SEQEND
  5
B27
  8
0
  6
CONTINU
  0
POLYLINE
  5
524
  8
0
  6
AXES
 66
     1
 10
0.0
 20
0.0
 30
0.0
  0
VERTEX
  5
880
  8
0
  6
AXES
 10
12.3097775765121
 20
5.131996692704396
 30
0.0
  0
VERTEX
  5
881
  8
0
  6
AXES
 10
12.3097775765121
 20
5.255691780724558
 30
0.0
  0
SEQEND
  5
B28
  8
0
  6
AXES
  0
POLYLINE
  5
525
  8
0
  6
CONTINU
 66
     1
 10
0.0
 20
0.0
 30
0.0
  0
VERTEX
  5
882
  8
0
  6
CONTINU
 10
12.29527758565148
 20
5.165554843919462
 30
0.0
  0
VERTEX
  5
883
  8
0
  6
CONTINU
 10
12.29527758565148
 20
5.179069864621166
 30
0.0
  0
SEQEND
  5
B29
  8
0
  6
CONTINU
  0
POLYLINE
  5
526
  8
0
  6
CONTINU
 66
     1
 10
0.0
 20
0.0
 30
0.0
  0
VERTEX
  5
884
  8
0
  6
CONTINU
 10
12.32596159376155
 20
5.180080801555191
 30
0.0
 42
0.2346822127005075
  0
VERTEX
  5
885
  8
0
  6
CONTINU
 10
12.33367856640578
 20
5.175652519312276
 30
0.0
  0
SEQEND
  5
B2A
  8
0
  6
CONTINU
  0
POLYLINE
  5
527
  8
0
  6
CONTINU
 66
     1
 10
0.0
 20
0.0
 30
0.0
  0
VERTEX
  5
886
  8
0
  6
CONTINU
 10
12.42147661274456
 20
5.36003518300589
 30
0.0
  0
VERTEX
  5
887
  8
0
  6
CONTINU
 10
12.42247782788477
 20
5.35903628529463
 30
0.0
  0
SEQEND
  5
B2B
  8
0
  6
CONTINU
  0
POLYLINE
  5
528
  8
0
  6
CONTINU
 66
     1
 10
0.0
 20
0.0
 30
0.0
  0
VERTEX
  5
888
  8
0
  6
CONTINU
 10
12.42267695511369
 20
5.35303505982294
 30
0.0
  0
VERTEX
  5
889
  8
0
  6
CONTINU
 10
12.42367787461482
 20
5.35203628608936
 30
0.0
  0
SEQEND
  5
B2C
  8
0
  6
CONTINU
  0
POLYLINE
  5
529
  8
0
  6
CONTINU
 66
     1
 10
0.0
 20
0.0
 30
0.0
  0
VERTEX
  5
88A
  8
0
  6
CONTINU
 10
12.39907784171306
 20
5.34673635467445
 30
0.0
  0
VERTEX
  5
88B
  8
0
  6
CONTINU
 10
12.40007786476019
 20
5.34573636023755
 30
0.0
  0
SEQEND
  5
B2D
  8
0
  6
CONTINU
  0
POLYLINE
  5
52A
  8
0
  6
CONTINU
 66
     1
 10
0.0
 20
0.0
 30
0.0
  0
VERTEX
  5
88C
  8
0
  6
CONTINU
 10
12.73516793683643
 20
5.182804826818757
 30
0.0
  0
VERTEX
  5
88D
  8
0
  6
CONTINU
 10
12.70716788424885
 20
5.15480410859403
 30
0.0
  0
SEQEND
  5
B2E
  8
0
  6
CONTINU
  0
POLYLINE
  5
52B
  8
0
  6
CONTINU
 66
     1
 10
0.0
 20
0.0
 30
0.0
  0
VERTEX
  5
88E
  8
0
  6
CONTINU
 10
12.39637781763278
 20
5.197969645650685
 30
0.0
  0
VERTEX
  5
88F
  8
0
  6
CONTINU
 10
12.39712800135121
 20
5.197536258671241
 30
0.0
  0
SEQEND
  5
B2F
  8
0
  6
CONTINU
  0
POLYLINE
  5
52C
  8
0
  6
CONTINU
 66
     1
 10
0.0
 20
0.0
 30
0.0
  0
VERTEX
  5
890
  8
0
  6
CONTINU
 10
12.42102781353992
 20
5.227536261055423
 30
0.0
  0
VERTEX
  5
891
  8
0
  6
CONTINU
 10
12.42637782240115
 20
5.208536378675277
 30
0.0
  0
SEQEND
  5
B30
  8
0
  6
CONTINU
  0
POLYLINE
  5
52D
  8
0
  6
CONTINU
 66
     1
 10
0.0
 20
0.0
 30
0.0
  0
VERTEX
  5
892
  8
0
  6
CONTINU
 10
12.7065635187146
 20
5.227058112519035
 30
0.0
  0
VERTEX
  5
893
  8
0
  6
CONTINU
 10
12.71060496222806
 20
5.212705347538599
 30
0.0
  0
SEQEND
  5
B31
  8
0
  6
CONTINU
  0
POLYLINE
  5
52E
  8
0
  6
CONTINU
 66
     1
 10
0.0
 20
0.0
 30
0.0
  0
VERTEX
  5
894
  8
0
  6
CONTINU
 10
12.40044544459845
 20
5.209671398953851
 30
0.0
  0
VERTEX
  5
895
  8
0
  6
CONTINU
 10
12.4007712242454
 20
5.208535606492707
 30
0.0
  0
SEQEND
  5
B32
  8
0
  6
CONTINU
  0
POLYLINE
  5
52F
  8
0
  6
CONTINU
 66
     1
 10
0.0
 20
0.0
 30
0.0
  0
VERTEX
  5
896
  8
0
  6
CONTINU
 10
12.68598148800787
 20
5.209192721286009
 30
0.0
  0
VERTEX
  5
897
  8
0
  6
CONTINU
 10
12.68630692942007
 20
5.208057340333632
 30
0.0
  0
SEQEND
  5
B33
  8
0
  6
CONTINU
  0
POLYLINE
  5
530
  8
0
  6
CONTINU
 66
     1
 10
0.0
 20
0.0
 30
0.0
  0
VERTEX
  5
898
  8
0
  6
CONTINU
 10
12.39637781763278
 20
5.197969645650685
 30
0.0
  0
VERTEX
  5
899
  8
0
  6
CONTINU
 10
12.39637781763278
 20
5.208535949383682
 30
0.0
  0
SEQEND
  5
B34
  8
0
  6
CONTINU
  0
POLYLINE
  5
531
  8
0
  6
CONTINU
 66
     1
 10
0.0
 20
0.0
 30
0.0
  0
VERTEX
  5
89A
  8
0
  6
CONTINU
 10
12.39897785848183
 20
5.196536254697598
 30
0.0
  0
VERTEX
  5
89B
  8
0
  6
CONTINU
 10
12.39897785848183
 20
5.197550547256482
 30
0.0
  0
SEQEND
  5
B35
  8
0
  6
CONTINU
  0
POLYLINE
  5
532
  8
0
  6
CONTINU
 66
     1
 10
0.0
 20
0.0
 30
0.0
  0
VERTEX
  5
89C
  8
0
  6
CONTINU
 10
12.4007716825866
 20
5.197969747632849
 30
0.0
  0
VERTEX
  5
89D
  8
0
  6
CONTINU
 10
12.4007712242454
 20
5.208535606492707
 30
0.0
  0
SEQEND
  5
B36
  8
0
  6
CONTINU
  0
POLYLINE
  5
533
  8
0
  6
CONTINU
 66
     1
 10
0.0
 20
0.0
 30
0.0
  0
VERTEX
  5
89E
  8
0
  6
CONTINU
 10
12.40262781862619
 20
5.360035752565829
 30
0.0
  0
VERTEX
  5
89F
  8
0
  6
CONTINU
 10
12.40262781862619
 20
5.398786294849995
 30
0.0
  0
SEQEND
  5
B37
  8
0
  6
CONTINU
  0
POLYLINE
  5
534
  8
0
  6
CONTINU
 66
     1
 10
0.0
 20
0.0
 30
0.0
  0
VERTEX
  5
8A0
  8
0
  6
CONTINU
 10
12.40027781214915
 20
5.354036284499902
 30
0.0
  0
VERTEX
  5
8A1
  8
0
  6
CONTINU
 10
12.40027781214915
 20
5.35903628529463
 30
0.0
  0
SEQEND
  5
B38
  8
0
  6
CONTINU
  0
POLYLINE
  5
535
  8
0
  6
CONTINU
 66
     1
 10
0.0
 20
0.0
 30
0.0
  0
VERTEX
  5
8A2
  8
0
  6
CONTINU
 10
12.40007786476019
 20
5.345247412147291
 30
0.0
  0
VERTEX
  5
8A3
  8
0
  6
CONTINU
 10
12.40007786476019
 20
5.34573636023755
 30
0.0
  0
SEQEND
  5
B39
  8
0
  6
CONTINU
  0
POLYLINE
  5
536
  8
0
  6
CONTINU
 66
     1
 10
0.0
 20
0.0
 30
0.0
  0
VERTEX
  5
8A4
  8
0
  6
CONTINU
 10
12.39907784171306
 20
5.34673635467445
 30
0.0
  0
VERTEX
  5
8A5
  8
0
  6
CONTINU
 10
12.39907784171306
 20
5.35203628608936
 30
0.0
  0
SEQEND
  5
B3A
  8
0
  6
CONTINU
  0
POLYLINE
  5
537
  8
0
  6
CONTINU
 66
     1
 10
0.0
 20
0.0
 30
0.0
  0
VERTEX
  5
8A6
  8
0
  6
CONTINU
 10
12.40097782828214
 20
5.353036002978976
 30
0.0
  0
VERTEX
  5
8A7
  8
0
  6
CONTINU
 10
12.40097782828214
 20
5.354036284499902
 30
0.0
  0
SEQEND
  5
B3B
  8
0
  6
CONTINU
  0
POLYLINE
  5
538
  8
0
  6
CONTINU
 66
     1
 10
0.0
 20
0.0
 30
0.0
  0
VERTEX
  5
8A8
  8
0
  6
CONTINU
 10
12.40262781862619
 20
5.227536261055423
 30
0.0
  0
VERTEX
  5
8A9
  8
0
  6
CONTINU
 10
12.40262781862619
 20
5.317633690823246
 30
0.0
  0
SEQEND
  5
B3C
  8
0
  6
CONTINU
  0
POLYLINE
  5
539
  8
0
  6
CONTINU
 66
     1
 10
0.0
 20
0.0
 30
0.0
  0
VERTEX
  5
8AA
  8
0
  6
CONTINU
 10
12.40262781862619
 20
5.335362468667671
 30
0.0
  0
VERTEX
  5
8AB
  8
0
  6
CONTINU
 10
12.40262781862619
 20
5.343236357682729
 30
0.0
  0
SEQEND
  5
B3D
  8
0
  6
CONTINU
  0
POLYLINE
  5
53A
  8
0
  6
AXES
 66
     1
 10
0.0
 20
0.0
 30
0.0
  0
VERTEX
  5
8AC
  8
0
  6
AXES
 10
12.41137782001696
 20
5.147437063810918
 30
0.0
  0
VERTEX
  5
8AD
  8
0
  6
AXES
 10
12.41137782001696
 20
5.416820842285015
 30
0.0
  0
SEQEND
  5
B3E
  8
0
  6
AXES
  0
POLYLINE
  5
53B
  8
0
  6
CONTINU
 66
     1
 10
0.0
 20
0.0
 30
0.0
  0
VERTEX
  5
8AE
  8
0
  6
CONTINU
 10
12.41539282260778
 20
5.338979518655295
 30
0.0
  0
VERTEX
  5
8AF
  8
0
  6
CONTINU
 10
12.41537783992231
 20
5.341117081479012
 30
0.0
  0
SEQEND
  5
B3F
  8
0
  6
CONTINU
  0
POLYLINE
  5
53C
  8
0
  6
CONTINU
 66
     1
 10
0.0
 20
0.0
 30
0.0
  0
VERTEX
  5
8B0
  8
0
  6
CONTINU
 10
12.40739274253886
 20
5.338979520609806
 30
0.0
  0
VERTEX
  5
8B1
  8
0
  6
CONTINU
 10
12.40737782420596
 20
5.341111842151228
 30
0.0
  0
SEQEND
  5
B40
  8
0
  6
CONTINU
  0
POLYLINE
  5
53D
  8
0
  6
CONTINU
 66
     1
 10
0.0
 20
0.0
 30
0.0
  0
VERTEX
  5
8B2
  8
0
  6
CONTINU
 10
12.42377781969907
 20
5.196536254697598
 30
0.0
  0
VERTEX
  5
8B3
  8
0
  6
CONTINU
 10
12.42377781969907
 20
5.197550849109239
 30
0.0
  0
SEQEND
  5
B41
  8
0
  6
CONTINU
  0
POLYLINE
  5
53E
  8
0
  6
CONTINU
 66
     1
 10
0.0
 20
0.0
 30
0.0
  0
VERTEX
  5
8B4
  8
0
  6
CONTINU
 10
12.42637782662421
 20
5.197969526323732
 30
0.0
  0
VERTEX
  5
8B5
  8
0
  6
CONTINU
 10
12.42637782240115
 20
5.208536378675277
 30
0.0
  0
SEQEND
  5
B42
  8
0
  6
CONTINU
  0
POLYLINE
  5
53F
  8
0
  6
CONTINU
 66
     1
 10
0.0
 20
0.0
 30
0.0
  0
VERTEX
  5
8B6
  8
0
  6
CONTINU
 10
12.42198659641864
 20
5.197969693037176
 30
0.0
  0
VERTEX
  5
8B7
  8
0
  6
CONTINU
 10
12.42198445393551
 20
5.208535858613638
 30
0.0
  0
SEQEND
  5
B43
  8
0
  6
CONTINU
  0
POLYLINE
  5
540
  8
0
  6
CONTINU
 66
     1
 10
0.0
 20
0.0
 30
0.0
  0
VERTEX
  5
8B8
  8
0
  6
CONTINU
 10
12.42012782140774
 20
5.360035223762742
 30
0.0
  0
VERTEX
  5
8B9
  8
0
  6
CONTINU
 10
12.42012782140774
 20
5.398786294849995
 30
0.0
  0
SEQEND
  5
B44
  8
0
  6
CONTINU
  0
POLYLINE
  5
541
  8
0
  6
CONTINU
 66
     1
 10
0.0
 20
0.0
 30
0.0
  0
VERTEX
  5
8BA
  8
0
  6
CONTINU
 10
12.42247782788477
 20
5.354036284499902
 30
0.0
  0
VERTEX
  5
8BB
  8
0
  6
CONTINU
 10
12.42247782788477
 20
5.35903628529463
 30
0.0
  0
SEQEND
  5
B45
  8
0
  6
CONTINU
  0
POLYLINE
  5
542
  8
0
  6
CONTINU
 66
     1
 10
0.0
 20
0.0
 30
0.0
  0
VERTEX
  5
8BC
  8
0
  6
CONTINU
 10
12.42267784203095
 20
5.345242486137023
 30
0.0
  0
VERTEX
  5
8BD
  8
0
  6
CONTINU
 10
12.42267784203095
 20
5.34573636023755
 30
0.0
  0
SEQEND
  5
B46
  8
0
  6
CONTINU
  0
POLYLINE
  5
543
  8
0
  6
CONTINU
 66
     1
 10
0.0
 20
0.0
 30
0.0
  0
VERTEX
  5
8BE
  8
0
  6
CONTINU
 10
12.42367787461482
 20
5.34673635467445
 30
0.0
  0
VERTEX
  5
8BF
  8
0
  6
CONTINU
 10
12.42367787461482
 20
5.35203628608936
 30
0.0
  0
SEQEND
  5
B47
  8
0
  6
CONTINU
  0
POLYLINE
  5
544
  8
0
  6
CONTINU
 66
     1
 10
0.0
 20
0.0
 30
0.0
  0
VERTEX
  5
8C0
  8
0
  6
CONTINU
 10
12.42177784989876
 20
5.353035098902692
 30
0.0
  0
VERTEX
  5
8C1
  8
0
  6
CONTINU
 10
12.42177784989876
 20
5.354036284499902
 30
0.0
  0
SEQEND
  5
B48
  8
0
  6
CONTINU
  0
POLYLINE
  5
545
  8
0
  6
CONTINU
 66
     1
 10
0.0
 20
0.0
 30
0.0
  0
VERTEX
  5
8C2
  8
0
  6
CONTINU
 10
12.42012782140774
 20
5.227536261055423
 30
0.0
  0
VERTEX
  5
8C3
  8
0
  6
CONTINU
 10
12.42012782140774
 20
5.317616171823269
 30
0.0
  0
SEQEND
  5
B49
  8
0
  6
CONTINU
  0
POLYLINE
  5
546
  8
0
  6
CONTINU
 66
     1
 10
0.0
 20
0.0
 30
0.0
  0
VERTEX
  5
8C4
  8
0
  6
CONTINU
 10
12.42012782140774
 20
5.335371120400344
 30
0.0
  0
VERTEX
  5
8C5
  8
0
  6
CONTINU
 10
12.42012782140774
 20
5.343236350672775
 30
0.0
  0
SEQEND
  5
B4A
  8
0
  6
CONTINU
  0
POLYLINE
  5
547
  8
0
  6
CONTINU
 66
     1
 10
0.0
 20
0.0
 30
0.0
  0
VERTEX
  5
8C6
  8
0
  6
CONTINU
 10
12.48247757785017
 20
5.155536228357168
 30
0.0
  0
VERTEX
  5
8C7
  8
0
  6
CONTINU
 10
12.48247804023414
 20
5.175536246883961
 30
0.0
  0
SEQEND
  5
B4B
  8
0
  6
CONTINU
  0
POLYLINE
  5
548
  8
0
  6
AXES
 66
     1
 10
0.0
 20
0.0
 30
0.0
  0
VERTEX
  5
8C8
  8
0
  6
AXES
 10
12.51297805875346
 20
5.131996692704396
 30
0.0
  0
VERTEX
  5
8C9
  8
0
  6
AXES
 10
12.51297805875346
 20
5.255691780724558
 30
0.0
  0
SEQEND
  5
B4C
  8
0
  6
AXES
  0
POLYLINE
  5
549
  8
0
  6
CONTINU
 66
     1
 10
0.0
 20
0.0
 30
0.0
  0
VERTEX
  5
8CA
  8
0
  6
CONTINU
 10
12.68191352475034
 20
5.19749139218839
 30
0.0
  0
VERTEX
  5
8CB
  8
0
  6
CONTINU
 10
12.68191352280745
 20
5.20805804894074
 30
0.0
  0
SEQEND
  5
B4D
  8
0
  6
CONTINU
  0
POLYLINE
  5
54A
  8
0
  6
CONTINU
 66
     1
 10
0.0
 20
0.0
 30
0.0
  0
VERTEX
  5
8CC
  8
0
  6
CONTINU
 10
12.68630497097736
 20
5.197491455756227
 30
0.0
  0
VERTEX
  5
8CD
  8
0
  6
CONTINU
 10
12.68630692942007
 20
5.208057340333632
 30
0.0
  0
SEQEND
  5
B4E
  8
0
  6
CONTINU
  0
POLYLINE
  5
54B
  8
0
  6
AXES
 66
     1
 10
0.0
 20
0.0
 30
0.0
  0
VERTEX
  5
8CE
  8
0
  6
AXES
 10
12.6969134965814
 20
5.16284007948853
 30
0.0
  0
VERTEX
  5
8CF
  8
0
  6
AXES
 10
12.69691350611815
 20
5.242860220008181
 30
0.0
  0
SEQEND
  5
B4F
  8
0
  6
AXES
  0
POLYLINE
  5
54C
  8
0
  6
CONTINU
 66
     1
 10
0.0
 20
0.0
 30
0.0
  0
VERTEX
  5
8D0
  8
0
  6
CONTINU
 10
12.64562756351823
 20
5.150556904928751
 30
0.0
  0
VERTEX
  5
8D1
  8
0
  6
CONTINU
 10
12.69691459330704
 20
5.150556914465496
 30
0.0
  0
SEQEND
  5
B50
  8
0
  6
CONTINU
  0
POLYLINE
  5
54D
  8
0
  6
CONTINU
 66
     1
 10
0.0
 20
0.0
 30
0.0
  0
VERTEX
  5
8D2
  8
0
  6
CONTINU
 10
12.71191349896559
 20
5.200561920222364
 30
0.0
  0
VERTEX
  5
8D3
  8
0
  6
CONTINU
 10
12.71191349896559
 20
5.20605926701587
 30
0.0
  0
SEQEND
  5
B51
  8
0
  6
CONTINU
  0
POLYLINE
  5
54E
  8
0
  6
CONTINU
 66
     1
 10
0.0
 20
0.0
 30
0.0
  0
VERTEX
  5
8D4
  8
0
  6
CONTINU
 10
12.70752013049995
 20
5.197058014767407
 30
0.0
  0
VERTEX
  5
8D5
  8
0
  6
CONTINU
 10
12.70752013049995
 20
5.208057550344696
 30
0.0
  0
SEQEND
  5
B52
  8
0
  6
CONTINU
  0
POLYLINE
  5
54F
  8
0
  6
CONTINU
 66
     1
 10
0.0
 20
0.0
 30
0.0
  0
VERTEX
  5
8D6
  8
0
  6
CONTINU
 10
12.64562756545535
 20
5.17955718705757
 30
0.0
  0
VERTEX
  5
8D7
  8
0
  6
CONTINU
 10
12.68698427932041
 20
5.179556881516462
 30
0.0
  0
SEQEND
  5
B53
  8
0
  6
CONTINU
  0
POLYLINE
  5
550
  8
0
  6
CONTINU
 66
     1
 10
0.0
 20
0.0
 30
0.0
  0
VERTEX
  5
8D8
  8
0
  6
CONTINU
 10
12.4020778345605
 20
5.343236357903035
 30
0.0
  0
VERTEX
  5
8D9
  8
0
  6
CONTINU
 10
12.4206778436204
 20
5.343236350452454
 30
0.0
  0
SEQEND
  5
B54
  8
0
  6
CONTINU
  0
POLYLINE
  5
551
  8
0
  6
CONTINU
 66
     1
 10
0.0
 20
0.0
 30
0.0
  0
VERTEX
  5
8DA
  8
0
  6
CONTINU
 10
12.40007786476019
 20
5.34573636023755
 30
0.0
  0
VERTEX
  5
8DB
  8
0
  6
CONTINU
 10
12.42267784203095
 20
5.34573636023755
 30
0.0
  0
SEQEND
  5
B55
  8
0
  6
CONTINU
  0
POLYLINE
  5
552
  8
0
  6
CONTINU
 66
     1
 10
0.0
 20
0.0
 30
0.0
  0
VERTEX
  5
8DC
  8
0
  6
CONTINU
 10
12.39907784171306
 20
5.34673635467445
 30
0.0
  0
VERTEX
  5
8DD
  8
0
  6
CONTINU
 10
12.42367787461482
 20
5.34673635467445
 30
0.0
  0
SEQEND
  5
B56
  8
0
  6
CONTINU
  0
POLYLINE
  5
553
  8
0
  6
CONTINU
 66
     1
 10
0.0
 20
0.0
 30
0.0
  0
VERTEX
  5
8DE
  8
0
  6
CONTINU
 10
12.40027781214915
 20
5.354036284499902
 30
0.0
  0
VERTEX
  5
8DF
  8
0
  6
CONTINU
 10
12.42247782788477
 20
5.354036284499902
 30
0.0
  0
SEQEND
  5
B57
  8
0
  6
CONTINU
  0
POLYLINE
  5
554
  8
0
  6
CONTINU
 66
     1
 10
0.0
 20
0.0
 30
0.0
  0
VERTEX
  5
8E0
  8
0
  6
CONTINU
 10
12.40007759773134
 20
5.353036042107641
 30
0.0
  0
VERTEX
  5
8E1
  8
0
  6
CONTINU
 10
12.42267695511369
 20
5.35303505982294
 30
0.0
  0
SEQEND
  5
B58
  8
0
  6
CONTINU
  0
POLYLINE
  5
555
  8
0
  6
CONTINU
 66
     1
 10
0.0
 20
0.0
 30
0.0
  0
VERTEX
  5
8E2
  8
0
  6
CONTINU
 10
12.39907784171306
 20
5.35203628608936
 30
0.0
  0
VERTEX
  5
8E3
  8
0
  6
CONTINU
 10
12.42367787461482
 20
5.35203628608936
 30
0.0
  0
SEQEND
  5
B59
  8
0
  6
CONTINU
  0
POLYLINE
  5
556
  8
0
  6
CONTINU
 66
     1
 10
0.0
 20
0.0
 30
0.0
  0
VERTEX
  5
8E4
  8
0
  6
CONTINU
 10
12.40127787334326
 20
5.36003579335755
 30
0.0
  0
VERTEX
  5
8E5
  8
0
  6
CONTINU
 10
12.42147661274456
 20
5.36003518300589
 30
0.0
  0
SEQEND
  5
B5A
  8
0
  6
CONTINU
  0
POLYLINE
  5
557
  8
0
  6
CONTINU
 66
     1
 10
0.0
 20
0.0
 30
0.0
  0
VERTEX
  5
8E6
  8
0
  6
CONTINU
 10
12.40027781214915
 20
5.35903628529463
 30
0.0
  0
VERTEX
  5
8E7
  8
0
  6
CONTINU
 10
12.42247782788477
 20
5.35903628529463
 30
0.0
  0
SEQEND
  5
B5B
  8
0
  6
CONTINU
  0
POLYLINE
  5
558
  8
0
  6
AXES
 66
     1
 10
0.0
 20
0.0
 30
0.0
  0
VERTEX
  5
8E8
  8
0
  6
AXES
 10
12.29033699877611
 20
5.165536250723958
 30
0.0
  0
VERTEX
  5
8E9
  8
0
  6
AXES
 10
12.54998108706725
 20
5.165536250723958
 30
0.0
  0
SEQEND
  5
B5C
  8
0
  6
AXES
  0
POLYLINE
  5
559
  8
0
  6
CONTINU
 66
     1
 10
0.0
 20
0.0
 30
0.0
  0
VERTEX
  5
8EA
  8
0
  6
CONTINU
 10
12.39712800135121
 20
5.197536258671241
 30
0.0
  0
VERTEX
  5
8EB
  8
0
  6
CONTINU
 10
12.42562782418929
 20
5.197536258671241
 30
0.0
  0
SEQEND
  5
B5D
  8
0
  6
CONTINU
  0
POLYLINE
  5
55A
  8
0
  6
CONTINU
 66
     1
 10
0.0
 20
0.0
 30
0.0
  0
VERTEX
  5
8EC
  8
0
  6
CONTINU
 10
12.39687782912107
 20
5.196546092312603
 30
0.0
  0
VERTEX
  5
8ED
  8
0
  6
CONTINU
 10
12.42587788717158
 20
5.196536297308182
 30
0.0
  0
SEQEND
  5
B5E
  8
0
  6
CONTINU
  0
POLYLINE
  5
55B
  8
0
  6
CONTINU
 66
     1
 10
0.0
 20
0.0
 30
0.0
  0
VERTEX
  5
8EE
  8
0
  6
CONTINU
 10
12.68266431256912
 20
5.197058014767407
 30
0.0
  0
VERTEX
  5
8EF
  8
0
  6
CONTINU
 10
12.70840945101484
 20
5.197058014767407
 30
0.0
  0
SEQEND
  5
B5F
  8
0
  6
CONTINU
  0
POLYLINE
  5
55C
  8
0
  6
CONTINU
 66
     1
 10
0.0
 20
0.0
 30
0.0
  0
VERTEX
  5
8F0
  8
0
  6
CONTINU
 10
12.40172783603075
 20
5.227536261055423
 30
0.0
  0
VERTEX
  5
8F1
  8
0
  6
CONTINU
 10
12.42102781353992
 20
5.227536261055423
 30
0.0
  0
SEQEND
  5
B60
  8
0
  6
CONTINU
  0
POLYLINE
  5
55D
  8
0
  6
CONTINU
 66
     1
 10
0.0
 20
0.0
 30
0.0
  0
VERTEX
  5
8F2
  8
0
  6
CONTINU
 10
12.68726353166868
 20
5.227058019535774
 30
0.0
  0
VERTEX
  5
8F3
  8
0
  6
CONTINU
 10
12.7065635187146
 20
5.227058112519035
 30
0.0
  0
SEQEND
  5
B61
  8
0
  6
CONTINU
  0
POLYLINE
  5
55E
  8
0
  6
CONTINU
 66
     1
 10
0.0
 20
0.0
 30
0.0
  0
VERTEX
  5
8F4
  8
0
  6
CONTINU
 10
12.85377342484917
 20
5.353558016754206
 30
0.0
  0
VERTEX
  5
8F5
  8
0
  6
CONTINU
 10
12.85377341952203
 20
5.358958013397924
 30
0.0
  0
SEQEND
  5
B62
  8
0
  6
CONTINU
  0
POLYLINE
  5
55F
  8
0
  6
CONTINU
 66
     1
 10
0.0
 20
0.0
 30
0.0
  0
VERTEX
  5
8F6
  8
0
  6
CONTINU
 10
12.88005345069374
 20
5.353558016754206
 30
0.0
  0
VERTEX
  5
8F7
  8
0
  6
CONTINU
 10
12.88005343693093
 20
5.358958148371396
 30
0.0
  0
SEQEND
  5
B63
  8
0
  6
CONTINU
  0
POLYLINE
  5
560
  8
0
  6
CONTINU
 66
     1
 10
0.0
 20
0.0
 30
0.0
  0
VERTEX
  5
8F8
  8
0
  6
CONTINU
 10
12.8575634225524
 20
5.359558016195411
 30
0.0
 42
0.4142103642872332
  0
VERTEX
  5
8F9
  8
0
  6
CONTINU
 10
12.85816342263432
 20
5.360158009725991
 30
0.0
  0
SEQEND
  5
B64
  8
0
  6
CONTINU
  0
POLYLINE
  5
561
  8
0
  6
CONTINU
 66
     1
 10
0.0
 20
0.0
 30
0.0
  0
VERTEX
  5
8FA
  8
0
  6
CONTINU
 10
12.85437341960396
 20
5.359558007776254
 30
0.0
 42
0.4142107781203928
  0
VERTEX
  5
8FB
  8
0
  6
CONTINU
 10
12.85377341952203
 20
5.358958013397924
 30
0.0
  0
SEQEND
  5
B65
  8
0
  6
CONTINU
  0
POLYLINE
  5
562
  8
0
  6
CONTINU
 66
     1
 10
0.0
 20
0.0
 30
0.0
  0
VERTEX
  5
8FC
  8
0
  6
CONTINU
 10
12.88005343693093
 20
5.358958148371396
 30
0.0
 42
0.4141448917692084
  0
VERTEX
  5
8FD
  8
0
  6
CONTINU
 10
12.87945343686546
 20
5.359558007776254
 30
0.0
  0
SEQEND
  5
B66
  8
0
  6
CONTINU
  0
POLYLINE
  5
563
  8
0
  6
CONTINU
 66
     1
 10
0.0
 20
0.0
 30
0.0
  0
VERTEX
  5
8FE
  8
0
  6
CONTINU
 10
12.87566343916223
 20
5.360160544630903
 30
0.0
 42
0.4154483344702022
  0
VERTEX
  5
8FF
  8
0
  6
CONTINU
 10
12.87626343391702
 20
5.359558016195411
 30
0.0
  0
SEQEND
  5
B67
  8
0
  6
CONTINU
  0
POLYLINE
  5
564
  8
0
  6
CONTINU
 66
     1
 10
0.0
 20
0.0
 30
0.0
  0
VERTEX
  5
900
  8
0
  6
CONTINU
 10
12.85561337567334
 20
5.344758082556064
 30
0.0
 42
0.414213794897504
  0
VERTEX
  5
901
  8
0
  6
CONTINU
 10
12.85761337602103
 20
5.342758080620595
 30
0.0
  0
SEQEND
  5
B68
  8
0
  6
CONTINU
  0
POLYLINE
  5
565
  8
0
  6
CONTINU
 66
     1
 10
0.0
 20
0.0
 30
0.0
  0
VERTEX
  5
902
  8
0
  6
CONTINU
 10
12.85561337567334
 20
5.344758082556064
 30
0.0
  0
VERTEX
  5
903
  8
0
  6
CONTINU
 10
12.85561336807375
 20
5.345257548897408
 30
0.0
  0
SEQEND
  5
B69
  8
0
  6
CONTINU
  0
POLYLINE
  5
566
  8
0
  6
CONTINU
 66
     1
 10
0.0
 20
0.0
 30
0.0
  0
VERTEX
  5
904
  8
0
  6
CONTINU
 10
12.80532698292053
 20
5.396672964592413
 30
0.0
  0
VERTEX
  5
905
  8
0
  6
CONTINU
 10
12.77988549272537
 20
5.374644932261029
 30
0.0
  0
SEQEND
  5
B6A
  8
0
  6
CONTINU
  0
POLYLINE
  5
567
  8
0
  6
CONTINU
 66
     1
 10
0.0
 20
0.0
 30
0.0
  0
VERTEX
  5
906
  8
0
  6
CONTINU
 10
12.79159528004801
 20
5.361639921496431
 30
0.0
  0
VERTEX
  5
907
  8
0
  6
CONTINU
 10
12.73643428197004
 20
5.311972554941891
 30
0.0
  0
SEQEND
  5
B6B
  8
0
  6
CONTINU
  0
POLYLINE
  5
568
  8
0
  6
CONTINU
 66
     1
 10
0.0
 20
0.0
 30
0.0
  0
VERTEX
  5
908
  8
0
  6
CONTINU
 10
12.8167889180846
 20
5.383448991205688
 30
0.0
  0
VERTEX
  5
909
  8
0
  6
CONTINU
 10
12.7913405726711
 20
5.361415073667112
 30
0.0
  0
SEQEND
  5
B6C
  8
0
  6
CONTINU
  0
POLYLINE
  5
569
  8
0
  6
AXES
 66
     1
 10
0.0
 20
0.0
 30
0.0
  0
VERTEX
  5
90A
  8
0
  6
AXES
 10
12.8110579130942
 20
5.390060929698761
 30
0.0
  0
VERTEX
  5
90B
  8
0
  6
AXES
 10
12.78561278474287
 20
5.36802981699755
 30
0.0
  0
SEQEND
  5
B6D
  8
0
  6
AXES
  0
POLYLINE
  5
56A
  8
0
  6
CONTINU
 66
     1
 10
0.0
 20
0.0
 30
0.0
  0
VERTEX
  5
90C
  8
0
  6
CONTINU
 10
12.86216340865032
 20
5.337202193978162
 30
0.0
  0
VERTEX
  5
90D
  8
0
  6
CONTINU
 10
12.85377342484917
 20
5.332358243410841
 30
0.0
  0
SEQEND
  5
B6E
  8
0
  6
CONTINU
  0
POLYLINE
  5
56B
  8
0
  6
CONTINU
 66
     1
 10
0.0
 20
0.0
 30
0.0
  0
VERTEX
  5
90E
  8
0
  6
CONTINU
 10
12.70566349797218
 20
5.227058019535774
 30
0.0
  0
VERTEX
  5
90F
  8
0
  6
CONTINU
 10
12.70566350750893
 20
5.242860221656294
 30
0.0
  0
SEQEND
  5
B6F
  8
0
  6
CONTINU
  0
POLYLINE
  5
56C
  8
0
  6
CONTINU
 66
     1
 10
0.0
 20
0.0
 30
0.0
  0
VERTEX
  5
910
  8
0
  6
CONTINU
 10
12.68816349519063
 20
5.227058019535774
 30
0.0
  0
VERTEX
  5
911
  8
0
  6
CONTINU
 10
12.68816350472738
 20
5.242860218360065
 30
0.0
  0
SEQEND
  5
B70
  8
0
  6
CONTINU
  0
POLYLINE
  5
56D
  8
0
  6
CONTINU
 66
     1
 10
0.0
 20
0.0
 30
0.0
  0
VERTEX
  5
912
  8
0
  6
CONTINU
 10
12.8709135058201
 20
5.338501244626117
 30
0.0
  0
VERTEX
  5
913
  8
0
  6
CONTINU
 10
12.87091343459254
 20
5.34065463933981
 30
0.0
  0
SEQEND
  5
B71
  8
0
  6
CONTINU
  0
POLYLINE
  5
56E
  8
0
  6
CONTINU
 66
     1
 10
0.0
 20
0.0
 30
0.0
  0
VERTEX
  5
914
  8
0
  6
CONTINU
 10
12.86291342575118
 20
5.338501239732097
 30
0.0
  0
VERTEX
  5
915
  8
0
  6
CONTINU
 10
12.86291344095037
 20
5.340648156653351
 30
0.0
  0
SEQEND
  5
B72
  8
0
  6
CONTINU
  0
POLYLINE
  5
56F
  8
0
  6
CONTINU
 66
     1
 10
0.0
 20
0.0
 30
0.0
  0
VERTEX
  5
916
  8
0
  6
CONTINU
 10
12.85816342263432
 20
5.360158009725991
 30
0.0
  0
VERTEX
  5
917
  8
0
  6
CONTINU
 10
12.85816315027833
 20
5.364557992807002
 30
0.0
  0
SEQEND
  5
B73
  8
0
  6
CONTINU
  0
POLYLINE
  5
570
  8
0
  6
CONTINU
 66
     1
 10
0.0
 20
0.0
 30
0.0
  0
VERTEX
  5
918
  8
0
  6
CONTINU
 10
12.87566343916223
 20
5.360160544630903
 30
0.0
  0
VERTEX
  5
919
  8
0
  6
CONTINU
 10
12.87566313398638
 20
5.364557978825419
 30
0.0
  0
SEQEND
  5
B74
  8
0
  6
CONTINU
  0
POLYLINE
  5
571
  8
0
  6
CONTINU
 66
     1
 10
0.0
 20
0.0
 30
0.0
  0
VERTEX
  5
91A
  8
0
  6
CONTINU
 10
12.88005345069374
 20
5.353558016754206
 30
0.0
  0
VERTEX
  5
91B
  8
0
  6
CONTINU
 10
12.86691343777145
 20
5.353558016754206
 30
0.0
  0
SEQEND
  5
B75
  8
0
  6
CONTINU
  0
POLYLINE
  5
572
  8
0
  6
CONTINU
 66
     1
 10
0.0
 20
0.0
 30
0.0
  0
VERTEX
  5
91C
  8
0
  6
CONTINU
 10
12.86691343777145
 20
5.353558016754206
 30
0.0
  0
VERTEX
  5
91D
  8
0
  6
CONTINU
 10
12.85377342484917
 20
5.353558016754206
 30
0.0
  0
SEQEND
  5
B76
  8
0
  6
CONTINU
  0
POLYLINE
  5
573
  8
0
  6
CONTINU
 66
     1
 10
0.0
 20
0.0
 30
0.0
  0
VERTEX
  5
91E
  8
0
  6
CONTINU
 10
12.87945343686546
 20
5.359558007776254
 30
0.0
  0
VERTEX
  5
91F
  8
0
  6
CONTINU
 10
12.86691338055099
 20
5.359558011985833
 30
0.0
  0
SEQEND
  5
B77
  8
0
  6
CONTINU
  0
POLYLINE
  5
574
  8
0
  6
CONTINU
 66
     1
 10
0.0
 20
0.0
 30
0.0
  0
VERTEX
  5
920
  8
0
  6
CONTINU
 10
12.86691338055099
 20
5.359558011985833
 30
0.0
  0
VERTEX
  5
921
  8
0
  6
CONTINU
 10
12.85437341960396
 20
5.359558007776254
 30
0.0
  0
SEQEND
  5
B78
  8
0
  6
CONTINU
  0
POLYLINE
  5
575
  8
0
  6
CONTINU
 66
     1
 10
0.0
 20
0.0
 30
0.0
  0
VERTEX
  5
922
  8
0
  6
CONTINU
 10
12.37741978238333
 20
5.176543574836112
 30
0.0
 42
0.4064409250589862
  0
VERTEX
  5
923
  8
0
  6
CONTINU
 10
12.39687782912107
 20
5.196546092312603
 30
0.0
  0
SEQEND
  5
B79
  8
0
  6
CONTINU
  0
POLYLINE
  5
576
  8
0
  6
CONTINU
 66
     1
 10
0.0
 20
0.0
 30
0.0
  0
VERTEX
  5
924
  8
0
  6
CONTINU
 10
12.4159403438118
 20
5.342296228520317
 30
0.0
 42
0.0468461284940438
  0
VERTEX
  5
925
  8
0
  6
CONTINU
 10
12.41691388654144
 20
5.343236351960177
 30
0.0
  0
SEQEND
  5
B7A
  8
0
  6
CONTINU
  0
POLYLINE
  5
577
  8
0
  6
CONTINU
 66
     1
 10
0.0
 20
0.0
 30
0.0
  0
VERTEX
  5
926
  8
0
  6
CONTINU
 10
12.4159403438118
 20
5.342296228520317
 30
0.0
 42
0.2291761451991339
  0
VERTEX
  5
927
  8
0
  6
CONTINU
 10
12.41537783992231
 20
5.341117081479012
 30
0.0
  0
SEQEND
  5
B7B
  8
0
  6
CONTINU
  0
POLYLINE
  5
578
  8
0
  6
CONTINU
 66
     1
 10
0.0
 20
0.0
 30
0.0
  0
VERTEX
  5
928
  8
0
  6
CONTINU
 10
12.4206778436204
 20
5.343236350452454
 30
0.0
 42
0.415111253444484
  0
VERTEX
  5
929
  8
0
  6
CONTINU
 10
12.42267784203095
 20
5.345242486137023
 30
0.0
  0
SEQEND
  5
B7C
  8
0
  6
CONTINU
  0
POLYLINE
  5
579
  8
0
  6
CONTINU
 66
     1
 10
0.0
 20
0.0
 30
0.0
  0
VERTEX
  5
92A
  8
0
  6
CONTINU
 10
12.40584175597581
 20
5.343236356395326
 30
0.0
 42
0.0469524237767219
  0
VERTEX
  5
92B
  8
0
  6
CONTINU
 10
12.40681542305323
 20
5.342296174122769
 30
0.0
  0
SEQEND
  5
B7D
  8
0
  6
CONTINU
  0
POLYLINE
  5
57A
  8
0
  6
CONTINU
 66
     1
 10
0.0
 20
0.0
 30
0.0
  0
VERTEX
  5
92C
  8
0
  6
CONTINU
 10
12.40737782420596
 20
5.341111842151228
 30
0.0
 42
0.2300812466095841
  0
VERTEX
  5
92D
  8
0
  6
CONTINU
 10
12.40681542305323
 20
5.342296174122769
 30
0.0
  0
SEQEND
  5
B7E
  8
0
  6
CONTINU
  0
POLYLINE
  5
57B
  8
0
  6
CONTINU
 66
     1
 10
0.0
 20
0.0
 30
0.0
  0
VERTEX
  5
92E
  8
0
  6
CONTINU
 10
12.40007786476019
 20
5.345247412147291
 30
0.0
 42
0.4158333040747333
  0
VERTEX
  5
92F
  8
0
  6
CONTINU
 10
12.4020778345605
 20
5.343236357903035
 30
0.0
  0
SEQEND
  5
B7F
  8
0
  6
CONTINU
  0
POLYLINE
  5
57C
  8
0
  6
CONTINU
 66
     1
 10
0.0
 20
0.0
 30
0.0
  0
VERTEX
  5
930
  8
0
  6
CONTINU
 10
12.69691459330704
 20
5.150556914465496
 30
0.0
 42
0.1989185100674031
  0
VERTEX
  5
931
  8
0
  6
CONTINU
 10
12.70716788424885
 20
5.15480410859403
 30
0.0
  0
SEQEND
  5
B80
  8
0
  6
CONTINU
  0
POLYLINE
  5
57D
  8
0
  6
CONTINU
 66
     1
 10
0.0
 20
0.0
 30
0.0
  0
VERTEX
  5
932
  8
0
  6
CONTINU
 10
12.70752013049995
 20
5.208057550344696
 30
0.0
 42
0.4687967599711463
  0
VERTEX
  5
933
  8
0
  6
CONTINU
 10
12.69691350197037
 20
5.20805733758509
 30
0.0
  0
SEQEND
  5
B81
  8
0
  6
CONTINU
  0
POLYLINE
  5
57E
  8
0
  6
CONTINU
 66
     1
 10
0.0
 20
0.0
 30
0.0
  0
VERTEX
  5
934
  8
0
  6
CONTINU
 10
12.69691350071109
 20
5.19749109513872
 30
0.0
 42
0.0816668730192113
  0
VERTEX
  5
935
  8
0
  6
CONTINU
 10
12.70752014332473
 20
5.197491107545094
 30
0.0
  0
SEQEND
  5
B82
  8
0
  6
CONTINU
  0
POLYLINE
  5
57F
  8
0
  6
CONTINU
 66
     1
 10
0.0
 20
0.0
 30
0.0
  0
VERTEX
  5
936
  8
0
  6
CONTINU
 10
12.69691350197037
 20
5.20805733758509
 30
0.0
 42
0.4688008926380278
  0
VERTEX
  5
937
  8
0
  6
CONTINU
 10
12.68630692942007
 20
5.208057340333632
 30
0.0
  0
SEQEND
  5
B83
  8
0
  6
CONTINU
  0
POLYLINE
  5
580
  8
0
  6
CONTINU
 66
     1
 10
0.0
 20
0.0
 30
0.0
  0
VERTEX
  5
938
  8
0
  6
CONTINU
 10
12.68630497097736
 20
5.197491455756227
 30
0.0
 42
0.0816815660712278
  0
VERTEX
  5
939
  8
0
  6
CONTINU
 10
12.69691350071109
 20
5.19749109513872
 30
0.0
  0
SEQEND
  5
B84
  8
0
  6
CONTINU
  0
POLYLINE
  5
581
  8
0
  6
CONTINU
 66
     1
 10
0.0
 20
0.0
 30
0.0
  0
VERTEX
  5
93A
  8
0
  6
CONTINU
 10
12.68191352475034
 20
5.19749139218839
 30
0.0
 42
0.1971868251698063
  0
VERTEX
  5
93B
  8
0
  6
CONTINU
 10
12.68630497097736
 20
5.197491455756227
 30
0.0
  0
SEQEND
  5
B85
  8
0
  6
CONTINU
  0
POLYLINE
  5
582
  8
0
  6
CONTINU
 66
     1
 10
0.0
 20
0.0
 30
0.0
  0
VERTEX
  5
93C
  8
0
  6
CONTINU
 10
12.68319546421209
 20
5.210284327348547
 30
0.0
 42
0.185707778877969
  0
VERTEX
  5
93D
  8
0
  6
CONTINU
 10
12.68221335322082
 20
5.209122869030645
 30
0.0
  0
SEQEND
  5
B86
  8
0
  6
CONTINU
  0
POLYLINE
  5
583
  8
0
  6
CONTINU
 66
     1
 10
0.0
 20
0.0
 30
0.0
  0
VERTEX
  5
93E
  8
0
  6
CONTINU
 10
12.68608730034917
 20
5.208824008983374
 30
0.0
 42
0.2240581078137711
  0
VERTEX
  5
93F
  8
0
  6
CONTINU
 10
12.68502472542183
 20
5.210284359928086
 30
0.0
  0
SEQEND
  5
B87
  8
0
  6
CONTINU
  0
POLYLINE
  5
584
  8
0
  6
CONTINU
 66
     1
 10
0.0
 20
0.0
 30
0.0
  0
VERTEX
  5
940
  8
0
  6
CONTINU
 10
12.68502472542183
 20
5.210284359928086
 30
0.0
 42
0.2837565858903722
  0
VERTEX
  5
941
  8
0
  6
CONTINU
 10
12.68319546421209
 20
5.210284327348547
 30
0.0
  0
SEQEND
  5
B88
  8
0
  6
CONTINU
  0
POLYLINE
  5
585
  8
0
  6
CONTINU
 66
     1
 10
0.0
 20
0.0
 30
0.0
  0
VERTEX
  5
942
  8
0
  6
CONTINU
 10
12.42198445393551
 20
5.208535858613638
 30
0.0
 42
0.468795177243541
  0
VERTEX
  5
943
  8
0
  6
CONTINU
 10
12.41137782001696
 20
5.208535560649919
 30
0.0
  0
SEQEND
  5
B89
  8
0
  6
CONTINU
  0
POLYLINE
  5
586
  8
0
  6
CONTINU
 66
     1
 10
0.0
 20
0.0
 30
0.0
  0
VERTEX
  5
944
  8
0
  6
CONTINU
 10
12.41137782001696
 20
5.197969340683604
 30
0.0
 42
0.0816834908208555
  0
VERTEX
  5
945
  8
0
  6
CONTINU
 10
12.42198659641864
 20
5.197969693037176
 30
0.0
  0
SEQEND
  5
B8A
  8
0
  6
CONTINU
  0
POLYLINE
  5
587
  8
0
  6
CONTINU
 66
     1
 10
0.0
 20
0.0
 30
0.0
  0
VERTEX
  5
946
  8
0
  6
CONTINU
 10
12.42198659641864
 20
5.197969693037176
 30
0.0
 42
0.1971787671339123
  0
VERTEX
  5
947
  8
0
  6
CONTINU
 10
12.42637782662421
 20
5.197969526323732
 30
0.0
  0
SEQEND
  5
B8B
  8
0
  6
CONTINU
  0
POLYLINE
  5
588
  8
0
  6
CONTINU
 66
     1
 10
0.0
 20
0.0
 30
0.0
  0
VERTEX
  5
948
  8
0
  6
CONTINU
 10
12.42607899100792
 20
5.209597659634189
 30
0.0
 42
0.1861756350215184
  0
VERTEX
  5
949
  8
0
  6
CONTINU
 10
12.42509321180741
 20
5.210763810199007
 30
0.0
  0
SEQEND
  5
B8C
  8
0
  6
CONTINU
  0
POLYLINE
  5
589
  8
0
  6
CONTINU
 66
     1
 10
0.0
 20
0.0
 30
0.0
  0
VERTEX
  5
94A
  8
0
  6
CONTINU
 10
12.42327111220333
 20
5.210765254720686
 30
0.0
 42
0.1770181752317354
  0
VERTEX
  5
94B
  8
0
  6
CONTINU
 10
12.42230971205243
 20
5.209670496738976
 30
0.0
  0
SEQEND
  5
B8D
  8
0
  6
CONTINU
  0
POLYLINE
  5
58A
  8
0
  6
CONTINU
 66
     1
 10
0.0
 20
0.0
 30
0.0
  0
VERTEX
  5
94C
  8
0
  6
CONTINU
 10
12.42509321180741
 20
5.210763810199007
 30
0.0
 42
0.2850042409269029
  0
VERTEX
  5
94D
  8
0
  6
CONTINU
 10
12.42327111220333
 20
5.210765254720686
 30
0.0
  0
SEQEND
  5
B8E
  8
0
  6
CONTINU
  0
POLYLINE
  5
58B
  8
0
  6
CONTINU
 66
     1
 10
0.0
 20
0.0
 30
0.0
  0
VERTEX
  5
94E
  8
0
  6
CONTINU
 10
12.41137782001696
 20
5.208535560649919
 30
0.0
 42
0.4687944046434388
  0
VERTEX
  5
94F
  8
0
  6
CONTINU
 10
12.4007712242454
 20
5.208535606492707
 30
0.0
  0
SEQEND
  5
B8F
  8
0
  6
CONTINU
  0
POLYLINE
  5
58C
  8
0
  6
CONTINU
 66
     1
 10
0.0
 20
0.0
 30
0.0
  0
VERTEX
  5
950
  8
0
  6
CONTINU
 10
12.4007716825866
 20
5.197969747632849
 30
0.0
 42
0.0816816900697449
  0
VERTEX
  5
951
  8
0
  6
CONTINU
 10
12.41137782001696
 20
5.197969340683604
 30
0.0
  0
SEQEND
  5
B90
  8
0
  6
CONTINU
  0
POLYLINE
  5
58D
  8
0
  6
CONTINU
 66
     1
 10
0.0
 20
0.0
 30
0.0
  0
VERTEX
  5
952
  8
0
  6
CONTINU
 10
12.39637781763278
 20
5.197969645650685
 30
0.0
 42
0.1971906082985947
  0
VERTEX
  5
953
  8
0
  6
CONTINU
 10
12.4007716825866
 20
5.197969747632849
 30
0.0
  0
SEQEND
  5
B91
  8
0
  6
CONTINU
  0
POLYLINE
  5
58E
  8
0
  6
CONTINU
 66
     1
 10
0.0
 20
0.0
 30
0.0
  0
VERTEX
  5
954
  8
0
  6
CONTINU
 10
12.39766220240049
 20
5.210763873778708
 30
0.0
 42
0.1856222435993023
  0
VERTEX
  5
955
  8
0
  6
CONTINU
 10
12.39667793972392
 20
5.209601817357797
 30
0.0
  0
SEQEND
  5
B92
  8
0
  6
CONTINU
  0
POLYLINE
  5
58F
  8
0
  6
CONTINU
 66
     1
 10
0.0
 20
0.0
 30
0.0
  0
VERTEX
  5
956
  8
0
  6
CONTINU
 10
12.40044544459845
 20
5.209671398953851
 30
0.0
 42
0.1768995784835363
  0
VERTEX
  5
957
  8
0
  6
CONTINU
 10
12.39948445137891
 20
5.210765115880843
 30
0.0
  0
SEQEND
  5
B93
  8
0
  6
CONTINU
  0
POLYLINE
  5
590
  8
0
  6
CONTINU
 66
     1
 10
0.0
 20
0.0
 30
0.0
  0
VERTEX
  5
958
  8
0
  6
CONTINU
 10
12.39948445137891
 20
5.210765115880843
 30
0.0
 42
0.2836661702137774
  0
VERTEX
  5
959
  8
0
  6
CONTINU
 10
12.39766220240049
 20
5.210763873778708
 30
0.0
  0
SEQEND
  5
B94
  8
0
  6
CONTINU
  0
POLYLINE
  5
591
  8
0
  6
CONTINU
 66
     1
 10
0.0
 20
0.0
 30
0.0
  0
VERTEX
  5
95A
  8
0
  6
CONTINU
 10
12.42012782140774
 20
5.398786294849995
 30
0.0
 42
1.000000065990858
  0
VERTEX
  5
95B
  8
0
  6
CONTINU
 10
12.40262781862619
 20
5.398786294849995
 30
0.0
  0
SEQEND
  5
B95
  8
0
  6
CONTINU
  0
POLYLINE
  5
592
  8
0
  6
CONTINU
 66
     1
 10
0.0
 20
0.0
 30
0.0
  0
VERTEX
  5
95C
  8
0
  6
CONTINU
 10
12.68698427932041
 20
5.179556881516462
 30
0.0
 42
0.2012380643190929
  0
VERTEX
  5
95D
  8
0
  6
CONTINU
 10
12.69375821524835
 20
5.182407396045084
 30
0.0
  0
SEQEND
  5
B96
  8
0
  6
CONTINU
  0
POLYLINE
  5
593
  8
0
  6
CONTINU
 66
     1
 10
0.0
 20
0.0
 30
0.0
  0
VERTEX
  5
95E
  8
0
  6
CONTINU
 10
12.40747725831516
 20
5.152621230035276
 30
0.0
 42
0.0216811613718571
  0
VERTEX
  5
95F
  8
0
  6
CONTINU
 10
12.41527879381891
 20
5.152621226399345
 30
0.0
  0
SEQEND
  5
B97
  8
0
  6
CONTINU
  0
POLYLINE
  5
594
  8
0
  6
CONTINU
 66
     1
 10
0.0
 20
0.0
 30
0.0
  0
VERTEX
  5
960
  8
0
  6
CONTINU
 10
12.42587788717158
 20
5.196536297308182
 30
0.0
 42
0.4062976482374956
  0
VERTEX
  5
961
  8
0
  6
CONTINU
 10
12.44533587285761
 20
5.176543597440646
 30
0.0
  0
SEQEND
  5
B98
  8
0
  6
CONTINU
  0
POLYLINE
  5
595
  8
0
  6
CONTINU
 66
     1
 10
0.0
 20
0.0
 30
0.0
  0
VERTEX
  5
962
  8
0
  6
CONTINU
 10
12.42198445393551
 20
5.208535858613638
 30
0.0
  0
VERTEX
  5
963
  8
0
  6
CONTINU
 10
12.42230971205243
 20
5.209670496738976
 30
0.0
  0
SEQEND
  5
B99
  8
0
  6
CONTINU
  0
POLYLINE
  5
596
  8
0
  6
CONTINU
 66
     1
 10
0.0
 20
0.0
 30
0.0
  0
VERTEX
  5
964
  8
0
  6
CONTINU
 10
12.39637781763278
 20
5.208535949383682
 30
0.0
  0
VERTEX
  5
965
  8
0
  6
CONTINU
 10
12.40172783603075
 20
5.227536261055423
 30
0.0
  0
SEQEND
  5
B9A
  8
0
  6
CONTINU
  0
POLYLINE
  5
597
  8
0
  6
CONTINU
 66
     1
 10
0.0
 20
0.0
 30
0.0
  0
VERTEX
  5
966
  8
0
  6
CONTINU
 10
12.68191352280745
 20
5.20805804894074
 30
0.0
  0
VERTEX
  5
967
  8
0
  6
CONTINU
 10
12.68726353166868
 20
5.227058019535774
 30
0.0
  0
SEQEND
  5
B9B
  8
0
  6
CONTINU
  0
POLYLINE
  5
598
  8
0
  6
CONTINU
 66
     1
 10
0.0
 20
0.0
 30
0.0
  0
VERTEX
  5
968
  8
0
  6
CONTINU
 10
12.40027781214915
 20
5.35903628529463
 30
0.0
  0
VERTEX
  5
969
  8
0
  6
CONTINU
 10
12.40127787334326
 20
5.36003579335755
 30
0.0
  0
SEQEND
  5
B9C
  8
0
  6
CONTINU
  0
POLYLINE
  5
599
  8
0
  6
CONTINU
 66
     1
 10
0.0
 20
0.0
 30
0.0
  0
VERTEX
  5
96A
  8
0
  6
CONTINU
 10
12.42267784203095
 20
5.34573636023755
 30
0.0
  0
VERTEX
  5
96B
  8
0
  6
CONTINU
 10
12.42367787461482
 20
5.34673635467445
 30
0.0
  0
SEQEND
  5
B9D
  8
0
  6
CONTINU
  0
POLYLINE
  5
59A
  8
0
  6
CONTINU
 66
     1
 10
0.0
 20
0.0
 30
0.0
  0
VERTEX
  5
96C
  8
0
  6
CONTINU
 10
12.39907784171306
 20
5.35203628608936
 30
0.0
  0
VERTEX
  5
96D
  8
0
  6
CONTINU
 10
12.40007759773134
 20
5.353036042107641
 30
0.0
  0
SEQEND
  5
B9E
  8
0
  6
CONTINU
  0
POLYLINE
  5
59B
  8
0
  6
CONTINU
 66
     1
 10
0.0
 20
0.0
 30
0.0
  0
VERTEX
  5
96E
  8
0
  6
CONTINU
 10
12.34027807439073
 20
5.15553622824132
 30
0.0
  0
VERTEX
  5
96F
  8
0
  6
CONTINU
 10
12.40747725831516
 20
5.152621230035276
 30
0.0
  0
SEQEND
  5
B9F
  8
0
  6
CONTINU
  0
POLYLINE
  5
59C
  8
0
  6
CONTINU
 66
     1
 10
0.0
 20
0.0
 30
0.0
  0
VERTEX
  5
970
  8
0
  6
CONTINU
 10
12.44533587285761
 20
5.176543597440646
 30
0.0
  0
VERTEX
  5
971
  8
0
  6
CONTINU
 10
12.48247804023414
 20
5.175536246883961
 30
0.0
  0
SEQEND
  5
BA0
  8
0
  6
CONTINU
  0
POLYLINE
  5
59D
  8
0
  6
CONTINU
 66
     1
 10
0.0
 20
0.0
 30
0.0
  0
VERTEX
  5
972
  8
0
  6
CONTINU
 10
12.34027760541457
 20
5.175536247140508
 30
0.0
  0
VERTEX
  5
973
  8
0
  6
CONTINU
 10
12.37741978238333
 20
5.176543574836112
 30
0.0
  0
SEQEND
  5
BA1
  8
0
  6
CONTINU
  0
POLYLINE
  5
59E
  8
0
  6
CONTINU
 66
     1
 10
0.0
 20
0.0
 30
0.0
  0
VERTEX
  5
974
  8
0
  6
CONTINU
 10
12.41527879381891
 20
5.152621226399345
 30
0.0
  0
VERTEX
  5
975
  8
0
  6
CONTINU
 10
12.48247757785017
 20
5.155536228357168
 30
0.0
  0
SEQEND
  5
BA2
  8
0
  6
CONTINU
  0
POLYLINE
  5
59F
  8
0
  6
CONTINU
 66
     1
 10
0.0
 20
0.0
 30
0.0
  0
VERTEX
  5
976
  8
0
  6
CONTINU
 10
12.42562782418929
 20
5.197536258671241
 30
0.0
  0
VERTEX
  5
977
  8
0
  6
CONTINU
 10
12.42637782662421
 20
5.197969526323732
 30
0.0
  0
SEQEND
  5
BA3
  8
0
  6
CONTINU
  0
POLYLINE
  5
5A0
  8
0
  6
CONTINU
 66
     1
 10
0.0
 20
0.0
 30
0.0
  0
VERTEX
  5
978
  8
0
  6
CONTINU
 10
12.71466225581118
 20
5.203310562071646
 30
0.0
  0
VERTEX
  5
979
  8
0
  6
CONTINU
 10
12.69375821524835
 20
5.182407396045084
 30
0.0
  0
SEQEND
  5
BA4
  8
0
  6
CONTINU
  0
POLYLINE
  5
5A1
  8
0
  6
CONTINU
 66
     1
 10
0.0
 20
0.0
 30
0.0
  0
VERTEX
  5
97A
  8
0
  6
CONTINU
 10
12.39825272256335
 20
5.327030970148933
 30
0.0
  0
VERTEX
  5
97B
  8
0
  6
CONTINU
 10
12.42453275794467
 20
5.327030970148933
 30
0.0
  0
SEQEND
  5
BA5
  8
0
  6
CONTINU
  0
POLYLINE
  5
5A2
  8
0
  6
CONTINU
 66
     1
 10
0.0
 20
0.0
 30
0.0
  0
VERTEX
  5
97C
  8
0
  6
CONTINU
 10
12.42263249480999
 20
5.327030970148933
 30
0.0
  0
VERTEX
  5
97D
  8
0
  6
CONTINU
 10
12.42264050567552
 20
5.326010948548206
 30
0.0
  0
SEQEND
  5
BA6
  8
0
  6
CONTINU
  0
POLYLINE
  5
5A3
  8
0
  6
CONTINU
 66
     1
 10
0.0
 20
0.0
 30
0.0
  0
VERTEX
  5
97E
  8
0
  6
CONTINU
 10
12.4002318259663
 20
5.327030970148933
 30
0.0
  0
VERTEX
  5
97F
  8
0
  6
CONTINU
 10
12.40023963316934
 20
5.326010948548206
 30
0.0
  0
SEQEND
  5
BA7
  8
0
  6
CONTINU
  0
POLYLINE
  5
5A4
  8
0
  6
CONTINU
 66
     1
 10
0.0
 20
0.0
 30
0.0
  0
VERTEX
  5
980
  8
0
  6
CONTINU
 10
12.42453275794467
 20
5.327030970148933
 30
0.0
  0
VERTEX
  5
981
  8
0
  6
CONTINU
 10
12.42453275794467
 20
5.332837064287729
 30
0.0
  0
SEQEND
  5
BA8
  8
0
  6
CONTINU
  0
POLYLINE
  5
5A5
  8
0
  6
CONTINU
 66
     1
 10
0.0
 20
0.0
 30
0.0
  0
VERTEX
  5
982
  8
0
  6
CONTINU
 10
12.39825272256335
 20
5.327030970148933
 30
0.0
  0
VERTEX
  5
983
  8
0
  6
CONTINU
 10
12.39825272256335
 20
5.332836511156537
 30
0.0
  0
SEQEND
  5
BA9
  8
0
  6
CONTINU
  0
POLYLINE
  5
5A6
  8
0
  6
AXES
 66
     1
 10
0.0
 20
0.0
 30
0.0
  0
VERTEX
  5
984
  8
0
  6
AXES
 10
12.86691343777145
 20
5.314024743449388
 30
0.0
  0
VERTEX
  5
985
  8
0
  6
AXES
 10
12.86691343777145
 20
5.361223423246026
 30
0.0
  0
SEQEND
  5
BAA
  8
0
  6
AXES
  0
POLYLINE
  5
5A7
  8
0
  6
CONTINU
 66
     1
 10
0.0
 20
0.0
 30
0.0
  0
VERTEX
  5
986
  8
0
  6
CONTINU
 10
12.85377342484917
 20
5.326552697634865
 30
0.0
  0
VERTEX
  5
987
  8
0
  6
CONTINU
 10
12.85377342484917
 20
5.332358243410841
 30
0.0
  0
SEQEND
  5
BAB
  8
0
  6
CONTINU
  0
POLYLINE
  5
5A8
  8
0
  6
CONTINU
 66
     1
 10
0.0
 20
0.0
 30
0.0
  0
VERTEX
  5
988
  8
0
  6
CONTINU
 10
12.88005345069374
 20
5.326552697634865
 30
0.0
  0
VERTEX
  5
989
  8
0
  6
CONTINU
 10
12.88005345069374
 20
5.332358787005288
 30
0.0
  0
SEQEND
  5
BAC
  8
0
  6
CONTINU
  0
POLYLINE
  5
5A9
  8
0
  6
CONTINU
 66
     1
 10
0.0
 20
0.0
 30
0.0
  0
VERTEX
  5
98A
  8
0
  6
CONTINU
 10
12.87802483251241
 20
5.317308435377566
 30
0.0
  0
VERTEX
  5
98B
  8
0
  6
CONTINU
 10
12.87907175726988
 20
5.317719688418396
 30
0.0
  0
SEQEND
  5
BAD
  8
0
  6
CONTINU
  0
POLYLINE
  5
5AA
  8
0
  6
CONTINU
 66
     1
 10
0.0
 20
0.0
 30
0.0
  0
VERTEX
  5
98C
  8
0
  6
CONTINU
 10
12.85491026203548
 20
5.325529137901862
 30
0.0
  0
VERTEX
  5
98D
  8
0
  6
CONTINU
 10
12.86691343777145
 20
5.325626527138533
 30
0.0
  0
SEQEND
  5
BAE
  8
0
  6
CONTINU
  0
POLYLINE
  5
5AB
  8
0
  6
CONTINU
 66
     1
 10
0.0
 20
0.0
 30
0.0
  0
VERTEX
  5
98E
  8
0
  6
CONTINU
 10
12.86691343777145
 20
5.325626527138533
 30
0.0
  0
VERTEX
  5
98F
  8
0
  6
CONTINU
 10
12.87900974935597
 20
5.325716334663183
 30
0.0
  0
SEQEND
  5
BAF
  8
0
  6
CONTINU
  0
POLYLINE
  5
5AC
  8
0
  6
CONTINU
 66
     1
 10
0.0
 20
0.0
 30
0.0
  0
VERTEX
  5
990
  8
0
  6
CONTINU
 10
12.85602562247277
 20
5.317137474924063
 30
0.0
  0
VERTEX
  5
991
  8
0
  6
CONTINU
 10
12.87802483251241
 20
5.317308435377566
 30
0.0
  0
SEQEND
  5
BB0
  8
0
  6
CONTINU
  0
POLYLINE
  5
5AD
  8
0
  6
CONTINU
 66
     1
 10
0.0
 20
0.0
 30
0.0
  0
VERTEX
  5
992
  8
0
  6
CONTINU
 10
12.85497263234568
 20
5.317532677623596
 30
0.0
  0
VERTEX
  5
993
  8
0
  6
CONTINU
 10
12.85602562247277
 20
5.317137474924063
 30
0.0
  0
SEQEND
  5
BB1
  8
0
  6
CONTINU
  0
POLYLINE
  5
5AE
  8
0
  6
CONTINU
 66
     1
 10
0.0
 20
0.0
 30
0.0
  0
VERTEX
  5
994
  8
0
  6
CONTINU
 10
12.85491026203548
 20
5.325529137901862
 30
0.0
  0
VERTEX
  5
995
  8
0
  6
CONTINU
 10
12.85497263234568
 20
5.317532677623596
 30
0.0
  0
SEQEND
  5
BB2
  8
0
  6
CONTINU
  0
POLYLINE
  5
5AF
  8
0
  6
CONTINU
 66
     1
 10
0.0
 20
0.0
 30
0.0
  0
VERTEX
  5
996
  8
0
  6
CONTINU
 10
12.85575252825211
 20
5.326552697634865
 30
0.0
  0
VERTEX
  5
997
  8
0
  6
CONTINU
 10
12.85576029116229
 20
5.325535975747798
 30
0.0
  0
SEQEND
  5
BB3
  8
0
  6
CONTINU
  0
POLYLINE
  5
5B0
  8
0
  6
CONTINU
 66
     1
 10
0.0
 20
0.0
 30
0.0
  0
VERTEX
  5
998
  8
0
  6
CONTINU
 10
12.87900974935597
 20
5.325716334663183
 30
0.0
  0
VERTEX
  5
999
  8
0
  6
CONTINU
 10
12.87907175726988
 20
5.317719688418396
 30
0.0
  0
SEQEND
  5
BB4
  8
0
  6
CONTINU
  0
POLYLINE
  5
5B1
  8
0
  6
CONTINU
 66
     1
 10
0.0
 20
0.0
 30
0.0
  0
VERTEX
  5
99A
  8
0
  6
CONTINU
 10
12.87815319679533
 20
5.326552697634865
 30
0.0
  0
VERTEX
  5
99B
  8
0
  6
CONTINU
 10
12.87815983561065
 20
5.325709863783956
 30
0.0
  0
SEQEND
  5
BB5
  8
0
  6
CONTINU
  0
POLYLINE
  5
5B2
  8
0
  6
CONTINU
 66
     1
 10
0.0
 20
0.0
 30
0.0
  0
VERTEX
  5
99C
  8
0
  6
CONTINU
 10
12.85377342484917
 20
5.326552697634865
 30
0.0
  0
VERTEX
  5
99D
  8
0
  6
CONTINU
 10
12.86691343777145
 20
5.326552697634865
 30
0.0
  0
SEQEND
  5
BB6
  8
0
  6
CONTINU
  0
POLYLINE
  5
5B3
  8
0
  6
CONTINU
 66
     1
 10
0.0
 20
0.0
 30
0.0
  0
VERTEX
  5
99E
  8
0
  6
CONTINU
 10
12.86691343777145
 20
5.326552697634865
 30
0.0
  0
VERTEX
  5
99F
  8
0
  6
CONTINU
 10
12.88005345069374
 20
5.326552697634865
 30
0.0
  0
SEQEND
  5
BB7
  8
0
  6
CONTINU
  0
POLYLINE
  5
5B4
  8
0
  6
CONTINU
 66
     1
 10
0.0
 20
0.0
 30
0.0
  0
VERTEX
  5
9A0
  8
0
  6
CONTINU
 10
12.64362756510769
 20
5.144806236412884
 30
0.0
 42
0.4142136403752795
  0
VERTEX
  5
9A1
  8
0
  6
CONTINU
 10
12.64562756545538
 20
5.14680623729321
 30
0.0
  0
SEQEND
  5
BB8
  8
0
  6
CONTINU
  0
POLYLINE
  5
5B5
  8
0
  6
CONTINU
 66
     1
 10
0.0
 20
0.0
 30
0.0
  0
VERTEX
  5
9A2
  8
0
  6
CONTINU
 10
12.64562756545535
 20
5.184266252464121
 30
0.0
 42
0.4142153524229071
  0
VERTEX
  5
9A3
  8
0
  6
CONTINU
 10
12.64362756510769
 20
5.186266265035033
 30
0.0
  0
SEQEND
  5
BB9
  8
0
  6
CONTINU
  0
POLYLINE
  5
5B6
  8
0
  6
CONTINU
 66
     1
 10
0.0
 20
0.0
 30
0.0
  0
VERTEX
  5
9A4
  8
0
  6
CONTINU
 10
12.64113478417956
 20
5.143102949592855
 30
0.0
 42
0.3788596752382007
  0
VERTEX
  5
9A5
  8
0
  6
CONTINU
 10
12.64262756992573
 20
5.144790272481229
 30
0.0
  0
SEQEND
  5
BBA
  8
0
  6
CONTINU
  0
POLYLINE
  5
5B7
  8
0
  6
CONTINU
 66
     1
 10
0.0
 20
0.0
 30
0.0
  0
VERTEX
  5
9A6
  8
0
  6
CONTINU
 10
12.64262756992573
 20
5.186282228966689
 30
0.0
 42
0.3788597133059137
  0
VERTEX
  5
9A7
  8
0
  6
CONTINU
 10
12.64113478395488
 20
5.187969551882655
 30
0.0
  0
SEQEND
  5
BBB
  8
0
  6
CONTINU
  0
POLYLINE
  5
5B8
  8
0
  6
CONTINU
 66
     1
 10
0.0
 20
0.0
 30
0.0
  0
VERTEX
  5
9A8
  8
0
  6
CONTINU
 10
12.64113478417956
 20
5.143102949592855
 30
0.0
  0
VERTEX
  5
9A9
  8
0
  6
CONTINU
 10
12.61982756018038
 20
5.140486226524473
 30
0.0
  0
SEQEND
  5
BBC
  8
0
  6
CONTINU
  0
POLYLINE
  5
5B9
  8
0
  6
CONTINU
 66
     1
 10
0.0
 20
0.0
 30
0.0
  0
VERTEX
  5
9AA
  8
0
  6
CONTINU
 10
12.64113478395488
 20
5.187969551882655
 30
0.0
  0
VERTEX
  5
9AB
  8
0
  6
CONTINU
 10
12.61982756018038
 20
5.190586241544838
 30
0.0
  0
SEQEND
  5
BBD
  8
0
  6
CONTINU
  0
POLYLINE
  5
5BA
  8
0
  6
CONTINU
 66
     1
 10
0.0
 20
0.0
 30
0.0
  0
VERTEX
  5
9AC
  8
0
  6
CONTINU
 10
12.64262756992573
 20
5.144790272481229
 30
0.0
  0
VERTEX
  5
9AD
  8
0
  6
CONTINU
 10
12.64362756510769
 20
5.144806236412884
 30
0.0
  0
SEQEND
  5
BBE
  8
0
  6
CONTINU
  0
POLYLINE
  5
5BB
  8
0
  6
CONTINU
 66
     1
 10
0.0
 20
0.0
 30
0.0
  0
VERTEX
  5
9AE
  8
0
  6
CONTINU
 10
12.64262756992573
 20
5.186282228966689
 30
0.0
  0
VERTEX
  5
9AF
  8
0
  6
CONTINU
 10
12.64362756510769
 20
5.186266265035033
 30
0.0
  0
SEQEND
  5
BBF
  8
0
  6
CONTINU
  0
POLYLINE
  5
5BC
  8
0
  6
CONTINU
 66
     1
 10
0.0
 20
0.0
 30
0.0
  0
VERTEX
  5
9B0
  8
0
  6
CONTINU
 10
12.60062755874987
 20
5.140486226524473
 30
0.0
  0
VERTEX
  5
9B1
  8
0
  6
CONTINU
 10
12.61982756018038
 20
5.140486226524473
 30
0.0
  0
SEQEND
  5
BC0
  8
0
  6
CONTINU
  0
POLYLINE
  5
5BD
  8
0
  6
CONTINU
 66
     1
 10
0.0
 20
0.0
 30
0.0
  0
VERTEX
  5
9B2
  8
0
  6
CONTINU
 10
12.61982756018038
 20
5.190586241544838
 30
0.0
  0
VERTEX
  5
9B3
  8
0
  6
CONTINU
 10
12.61982756018038
 20
5.140486226524473
 30
0.0
  0
SEQEND
  5
BC1
  8
0
  6
CONTINU
  0
POLYLINE
  5
5BE
  8
0
  6
CONTINU
 66
     1
 10
0.0
 20
0.0
 30
0.0
  0
VERTEX
  5
9B4
  8
0
  6
CONTINU
 10
12.60062755874987
 20
5.190586241544838
 30
0.0
  0
VERTEX
  5
9B5
  8
0
  6
CONTINU
 10
12.61982756018038
 20
5.190586241544838
 30
0.0
  0
SEQEND
  5
BC2
  8
0
  6
CONTINU
  0
POLYLINE
  5
5BF
  8
0
  6
CONTINU
 66
     1
 10
0.0
 20
0.0
 30
0.0
  0
VERTEX
  5
9B6
  8
0
  6
CONTINU
 10
12.64562756545535
 20
5.184266252464121
 30
0.0
  0
VERTEX
  5
9B7
  8
0
  6
CONTINU
 10
12.64562756545538
 20
5.14680623729321
 30
0.0
  0
SEQEND
  5
BC3
  8
0
  6
CONTINU
  0
POLYLINE
  5
5C0
  8
0
  6
CONTINU
 66
     1
 10
0.0
 20
0.0
 30
0.0
  0
VERTEX
  5
9B8
  8
0
  6
CONTINU
 10
12.64262756992573
 20
5.186282228966689
 30
0.0
  0
VERTEX
  5
9B9
  8
0
  6
CONTINU
 10
12.64262756992573
 20
5.144790272481229
 30
0.0
  0
SEQEND
  5
BC4
  8
0
  6
CONTINU
  0
POLYLINE
  5
5C1
  8
0
  6
CONTINU
 66
     1
 10
0.0
 20
0.0
 30
0.0
  0
VERTEX
  5
9BA
  8
0
  6
CONTINU
 10
12.60062755874987
 20
5.190586241544838
 30
0.0
  0
VERTEX
  5
9BB
  8
0
  6
CONTINU
 10
12.60062755874987
 20
5.140486226524473
 30
0.0
  0
SEQEND
  5
BC5
  8
0
  6
CONTINU
  0
POLYLINE
  5
5C2
  8
0
  6
AXES
 66
     1
 10
0.0
 20
0.0
 30
0.0
  0
VERTEX
  5
9BC
  8
0
  6
AXES
 10
12.57358709613033
 20
5.165536250723958
 30
0.0
  0
VERTEX
  5
9BD
  8
0
  6
AXES
 10
12.70339825408185
 20
5.165536250723958
 30
0.0
  0
SEQEND
  5
BC6
  8
0
  6
AXES
  0
POLYLINE
  5
5C3
  8
0
  6
CONTINU
 66
     1
 10
0.0
 20
0.0
 30
0.0
  0
VERTEX
  5
9BE
  8
0
  6
CONTINU
 10
12.34027807439073
 20
5.15553622824132
 30
0.0
  0
VERTEX
  5
9BF
  8
0
  6
CONTINU
 10
12.34027760541457
 20
5.175536247140508
 30
0.0
  0
SEQEND
  5
BC7
  8
0
  6
CONTINU
  0
POLYLINE
  5
5C4
  8
0
  6
CONTINU
 66
     1
 10
0.0
 20
0.0
 30
0.0
  0
VERTEX
  5
9C0
  8
0
  6
CONTINU
 10
12.49528510229101
 20
5.154695496678283
 30
0.0
 42
1.100819373145864
  0
VERTEX
  5
9C1
  8
0
  6
CONTINU
 10
12.5282798345009
 20
5.179551182605195
 30
0.0
  0
SEQEND
  5
BC8
  8
0
  6
CONTINU
  0
POLYLINE
  5
5C5
  8
0
  6
CONTINU
 66
     1
 10
0.0
 20
0.0
 30
0.0
  0
VERTEX
  5
9C2
  8
0
  6
CONTINU
 10
12.49341358792309
 20
5.154939359856109
 30
0.0
 42
1.122961824977993
  0
VERTEX
  5
9C3
  8
0
  6
CONTINU
 10
12.52959045398346
 20
5.180337971558363
 30
0.0
  0
SEQEND
  5
BC9
  8
0
  6
CONTINU
  0
POLYLINE
  5
5C6
  8
0
  6
CONTINU
 66
     1
 10
0.0
 20
0.0
 30
0.0
  0
VERTEX
  5
9C4
  8
0
  6
CONTINU
 10
12.49013002441081
 20
5.15526638784807
 30
0.0
 42
1.161378649242289
  0
VERTEX
  5
9C5
  8
0
  6
CONTINU
 10
12.53180201151772
 20
5.182063850644732
 30
0.0
  0
SEQEND
  5
BCA
  8
0
  6
CONTINU
  0
POLYLINE
  5
5C7
  8
0
  6
CONTINU
 66
     1
 10
0.0
 20
0.0
 30
0.0
  0
VERTEX
  5
9C6
  8
0
  6
CONTINU
 10
12.49636566313239
 20
5.180337971119466
 30
0.0
 42
0.0413357412714169
  0
VERTEX
  5
9C7
  8
0
  6
CONTINU
 10
12.49415711544452
 20
5.177403630717007
 30
0.0
  0
SEQEND
  5
BCB
  8
0
  6
CONTINU
  0
POLYLINE
  5
5C8
  8
0
  6
CONTINU
 66
     1
 10
0.0
 20
0.0
 30
0.0
  0
VERTEX
  5
9C8
  8
0
  6
CONTINU
 10
12.49415410527063
 20
5.182063849826341
 30
0.0
 42
0.0756109531457705
  0
VERTEX
  5
9C9
  8
0
  6
CONTINU
 10
12.49009153182371
 20
5.175720043824107
 30
0.0
  0
SEQEND
  5
BCC
  8
0
  6
CONTINU
  0
POLYLINE
  5
5C9
  8
0
  6
CONTINU
 66
     1
 10
0.0
 20
0.0
 30
0.0
  0
VERTEX
  5
9CA
  8
0
  6
CONTINU
 10
12.52747805438245
 20
5.171223083102159
 30
0.0
  0
VERTEX
  5
9CB
  8
0
  6
CONTINU
 10
12.52747806153496
 20
5.16553628721238
 30
0.0
  0
SEQEND
  5
BCD
  8
0
  6
CONTINU
  0
POLYLINE
  5
5CA
  8
0
  6
CONTINU
 66
     1
 10
0.0
 20
0.0
 30
0.0
  0
VERTEX
  5
9CC
  8
0
  6
CONTINU
 10
12.48247804023414
 20
5.175536246883961
 30
0.0
 42
0.0211635383024566
  0
VERTEX
  5
9CD
  8
0
  6
CONTINU
 10
12.48907708499325
 20
5.175652519626171
 30
0.0
  0
SEQEND
  5
BCE
  8
0
  6
CONTINU
  0
POLYLINE
  5
5CB
  8
0
  6
CONTINU
 66
     1
 10
0.0
 20
0.0
 30
0.0
  0
VERTEX
  5
9CE
  8
0
  6
CONTINU
 10
12.50867779320057
 20
5.151688572428202
 30
0.0
 42
0.0778082620289191
  0
VERTEX
  5
9CF
  8
0
  6
CONTINU
 10
12.48247757785017
 20
5.155536228357168
 30
0.0
  0
SEQEND
  5
BCF
  8
0
  6
CONTINU
  0
POLYLINE
  5
5CC
  8
0
  6
CONTINU
 66
     1
 10
0.0
 20
0.0
 30
0.0
  0
VERTEX
  5
9D0
  8
0
  6
CONTINU
 10
12.50867779320057
 20
5.151688572428202
 30
0.0
 42
0.5054260476837049
  0
VERTEX
  5
9D1
  8
0
  6
CONTINU
 10
12.52747806153496
 20
5.16553628721238
 30
0.0
  0
SEQEND
  5
BD0
  8
0
  6
CONTINU
  0
POLYLINE
  5
5CD
  8
0
  6
CONTINU
 66
     1
 10
0.0
 20
0.0
 30
0.0
  0
VERTEX
  5
9D2
  8
0
  6
CONTINU
 10
12.68241349618404
 20
5.196058015562135
 30
0.0
  0
VERTEX
  5
9D3
  8
0
  6
CONTINU
 10
12.68241349618404
 20
5.179556754438172
 30
0.0
  0
SEQEND
  5
BD1
  8
0
  6
CONTINU
  0
POLYLINE
  5
5CE
  8
0
  6
CONTINU
 66
     1
 10
0.0
 20
0.0
 30
0.0
  0
VERTEX
  5
9D4
  8
0
  6
CONTINU
 10
12.70740940587323
 20
5.196058015562135
 30
0.0
  0
VERTEX
  5
9D5
  8
0
  6
CONTINU
 10
12.68241349618404
 20
5.196058015562135
 30
0.0
  0
SEQEND
  5
BD2
  8
0
  6
CONTINU
  0
POLYLINE
  5
5CF
  8
0
  6
CONTINU
 66
     1
 10
0.0
 20
0.0
 30
0.0
  0
VERTEX
  5
9D6
  8
0
  6
CONTINU
 10
12.68451346828906
 20
5.196058015562135
 30
0.0
  0
VERTEX
  5
9D7
  8
0
  6
CONTINU
 10
12.68451346828906
 20
5.197072603427499
 30
0.0
  0
SEQEND
  5
BD3
  8
0
  6
CONTINU
  0
POLYLINE
  5
5D0
  8
0
  6
CONTINU
 66
     1
 10
0.0
 20
0.0
 30
0.0
  0
VERTEX
  5
9D8
  8
0
  6
CONTINU
 10
12.68266431256912
 20
5.197058014767407
 30
0.0
  0
VERTEX
  5
9D9
  8
0
  6
CONTINU
 10
12.68191352475034
 20
5.19749139218839
 30
0.0
  0
SEQEND
  5
BD4
  8
0
  6
CONTINU
  0
POLYLINE
  5
5D1
  8
0
  6
CONTINU
 66
     1
 10
0.0
 20
0.0
 30
0.0
  0
VERTEX
  5
9DA
  8
0
  6
CONTINU
 10
12.86291344095037
 20
5.340648156653351
 30
0.0
 42
0.2334563789503274
  0
VERTEX
  5
9DB
  8
0
  6
CONTINU
 10
12.86233811214852
 20
5.341845540725216
 30
0.0
  0
SEQEND
  5
BD5
  8
0
  6
CONTINU
  0
POLYLINE
  5
5D2
  8
0
  6
CONTINU
 66
     1
 10
0.0
 20
0.0
 30
0.0
  0
VERTEX
  5
9DC
  8
0
  6
CONTINU
 10
12.87148423306741
 20
5.341841899775875
 30
0.0
 42
0.2312994552196649
  0
VERTEX
  5
9DD
  8
0
  6
CONTINU
 10
12.87091343459254
 20
5.34065463933981
 30
0.0
  0
SEQEND
  5
BD6
  8
0
  6
CONTINU
  0
POLYLINE
  5
5D3
  8
0
  6
AXES
 66
     1
 10
0.0
 20
0.0
 30
0.0
  0
VERTEX
  5
9DE
  8
0
  6
AXES
 10
12.86691313021143
 20
5.364557985816219
 30
0.0
 42
0.6427167962036252
  0
VERTEX
  5
9DF
  8
0
  6
AXES
 10
12.8110579130942
 20
5.390060929698761
 30
0.0
  0
SEQEND
  5
BD7
  8
0
  6
AXES
  0
POLYLINE
  5
5D4
  8
0
  6
AXES
 66
     1
 10
0.0
 20
0.0
 30
0.0
  0
VERTEX
  5
9E0
  8
0
  6
AXES
 10
12.73058251289906
 20
5.318477886544086
 30
0.0
 42
0.2125673447183312
  0
VERTEX
  5
9E1
  8
0
  6
AXES
 10
12.69691350611815
 20
5.242860220008181
 30
0.0
  0
SEQEND
  5
BD8
  8
0
  6
AXES
  0
POLYLINE
  5
5D5
  8
0
  6
CONTINU
 66
     1
 10
0.0
 20
0.0
 30
0.0
  0
VERTEX
  5
9E2
  8
0
  6
CONTINU
 10
12.8709135058201
 20
5.338501244626117
 30
0.0
 42
0.267941325200764
  0
VERTEX
  5
9E3
  8
0
  6
CONTINU
 10
12.87166342811682
 20
5.337202292074127
 30
0.0
  0
SEQEND
  5
BD9
  8
0
  6
CONTINU
  0
POLYLINE
  5
5D6
  8
0
  6
CONTINU
 66
     1
 10
0.0
 20
0.0
 30
0.0
  0
VERTEX
  5
9E4
  8
0
  6
CONTINU
 10
12.87148423306741
 20
5.341841899775875
 30
0.0
 42
0.0456592961611254
  0
VERTEX
  5
9E5
  8
0
  6
CONTINU
 10
12.87243453670162
 20
5.342758085554804
 30
0.0
  0
SEQEND
  5
BDA
  8
0
  6
CONTINU
  0
POLYLINE
  5
5D7
  8
0
  6
CONTINU
 66
     1
 10
0.0
 20
0.0
 30
0.0
  0
VERTEX
  5
9E6
  8
0
  6
CONTINU
 10
12.86216340865032
 20
5.337202193978162
 30
0.0
 42
0.2679522608784891
  0
VERTEX
  5
9E7
  8
0
  6
CONTINU
 10
12.86291342575118
 20
5.338501239732097
 30
0.0
  0
SEQEND
  5
BDB
  8
0
  6
CONTINU
  0
POLYLINE
  5
5D8
  8
0
  6
CONTINU
 66
     1
 10
0.0
 20
0.0
 30
0.0
  0
VERTEX
  5
9E8
  8
0
  6
CONTINU
 10
12.86139196238732
 20
5.342758520795488
 30
0.0
 42
0.0456628989244987
  0
VERTEX
  5
9E9
  8
0
  6
CONTINU
 10
12.86233811214852
 20
5.341845540725216
 30
0.0
  0
SEQEND
  5
BDC
  8
0
  6
CONTINU
  0
POLYLINE
  5
5D9
  8
0
  6
CONTINU
 66
     1
 10
0.0
 20
0.0
 30
0.0
  0
VERTEX
  5
9EA
  8
0
  6
CONTINU
 10
12.72472785348141
 20
5.32498061577447
 30
0.0
 42
0.2125672403372491
  0
VERTEX
  5
9EB
  8
0
  6
CONTINU
 10
12.68816350472738
 20
5.242860218360065
 30
0.0
  0
SEQEND
  5
BDD
  8
0
  6
CONTINU
  0
POLYLINE
  5
5DA
  8
0
  6
CONTINU
 66
     1
 10
0.0
 20
0.0
 30
0.0
  0
VERTEX
  5
9EC
  8
0
  6
CONTINU
 10
12.87566313398638
 20
5.364557978825419
 30
0.0
 42
0.6427152203343245
  0
VERTEX
  5
9ED
  8
0
  6
CONTINU
 10
12.80532698292053
 20
5.396672964592413
 30
0.0
  0
SEQEND
  5
BDE
  8
0
  6
CONTINU
  0
POLYLINE
  5
5DB
  8
0
  6
CONTINU
 66
     1
 10
0.0
 20
0.0
 30
0.0
  0
VERTEX
  5
9EE
  8
0
  6
CONTINU
 10
12.73643428197004
 20
5.311972554941891
 30
0.0
 42
0.2125565412994105
  0
VERTEX
  5
9EF
  8
0
  6
CONTINU
 10
12.70566350750893
 20
5.242860221656294
 30
0.0
  0
SEQEND
  5
BDF
  8
0
  6
CONTINU
  0
POLYLINE
  5
5DC
  8
0
  6
CONTINU
 66
     1
 10
0.0
 20
0.0
 30
0.0
  0
VERTEX
  5
9F0
  8
0
  6
CONTINU
 10
12.85816315027833
 20
5.364557992807002
 30
0.0
 42
0.6427177840631454
  0
VERTEX
  5
9F1
  8
0
  6
CONTINU
 10
12.8167889180846
 20
5.383448991205688
 30
0.0
  0
SEQEND
  5
BE0
  8
0
  6
CONTINU
  0
POLYLINE
  5
5DD
  8
0
  6
CONTINU
 66
     1
 10
0.0
 20
0.0
 30
0.0
  0
VERTEX
  5
9F2
  8
0
  6
CONTINU
 10
12.88005345069374
 20
5.332358787005288
 30
0.0
  0
VERTEX
  5
9F3
  8
0
  6
CONTINU
 10
12.87166342811682
 20
5.337202292074127
 30
0.0
  0
SEQEND
  5
BE1
  8
0
  6
CONTINU
  0
POLYLINE
  5
5DE
  8
0
  6
AXES
 66
     1
 10
0.0
 20
0.0
 30
0.0
  0
VERTEX
  5
9F4
  8
0
  6
AXES
 10
12.78561278474287
 20
5.36802981699755
 30
0.0
  0
VERTEX
  5
9F5
  8
0
  6
AXES
 10
12.73058251289906
 20
5.318477886544086
 30
0.0
  0
SEQEND
  5
BE2
  8
0
  6
AXES
  0
POLYLINE
  5
5DF
  8
0
  6
CONTINU
 66
     1
 10
0.0
 20
0.0
 30
0.0
  0
VERTEX
  5
9F6
  8
0
  6
CONTINU
 10
12.77988549272537
 20
5.374644932261029
 30
0.0
  0
VERTEX
  5
9F7
  8
0
  6
CONTINU
 10
12.72472785348141
 20
5.32498061577447
 30
0.0
  0
SEQEND
  5
BE3
  8
0
  6
CONTINU
  0
POLYLINE
  5
5E0
  8
0
  6
CONTINU
 66
     1
 10
0.0
 20
0.0
 30
0.0
  0
VERTEX
  5
9F8
  8
0
  6
CONTINU
 10
12.85377342484917
 20
5.332358243410841
 30
0.0
  0
VERTEX
  5
9F9
  8
0
  6
CONTINU
 10
12.88005345069374
 20
5.332358787005288
 30
0.0
  0
SEQEND
  5
BE4
  8
0
  6
CONTINU
  0
POLYLINE
  5
5E1
  8
0
  6
CONTINU
 66
     1
 10
0.0
 20
0.0
 30
0.0
  0
VERTEX
  5
9FA
  8
0
  6
CONTINU
 10
12.85561447433613
 20
5.352558012780563
 30
0.0
  0
VERTEX
  5
9FB
  8
0
  6
CONTINU
 10
12.87837197001876
 20
5.352558012780563
 30
0.0
  0
SEQEND
  5
BE5
  8
0
  6
CONTINU
  0
POLYLINE
  5
5E2
  8
0
  6
CONTINU
 66
     1
 10
0.0
 20
0.0
 30
0.0
  0
VERTEX
  5
9FC
  8
0
  6
CONTINU
 10
12.87821350746916
 20
5.345257548897408
 30
0.0
  0
VERTEX
  5
9FD
  8
0
  6
CONTINU
 10
12.85561336807375
 20
5.345257548897408
 30
0.0
  0
SEQEND
  5
BE6
  8
0
  6
CONTINU
  0
POLYLINE
  5
5E3
  8
0
  6
CONTINU
 66
     1
 10
0.0
 20
0.0
 30
0.0
  0
VERTEX
  5
9FE
  8
0
  6
CONTINU
 10
12.8546133641001
 20
5.351558008806919
 30
0.0
  0
VERTEX
  5
9FF
  8
0
  6
CONTINU
 10
12.87921349236932
 20
5.351558008806919
 30
0.0
  0
SEQEND
  5
BE7
  8
0
  6
CONTINU
  0
POLYLINE
  5
5E4
  8
0
  6
CONTINU
 66
     1
 10
0.0
 20
0.0
 30
0.0
  0
VERTEX
  5
A00
  8
0
  6
CONTINU
 10
12.87921349236932
 20
5.346258086928753
 30
0.0
  0
VERTEX
  5
A01
  8
0
  6
CONTINU
 10
12.8546133641001
 20
5.346258086928753
 30
0.0
  0
SEQEND
  5
BE8
  8
0
  6
CONTINU
  0
POLYLINE
  5
5E5
  8
0
  6
CONTINU
 66
     1
 10
0.0
 20
0.0
 30
0.0
  0
VERTEX
  5
A02
  8
0
  6
CONTINU
 10
12.59640807795459
 20
5.182036254300235
 30
0.0
  0
VERTEX
  5
A03
  8
0
  6
CONTINU
 10
12.60062756113405
 20
5.182036254300235
 30
0.0
  0
SEQEND
  5
BE9
  8
0
  6
CONTINU
  0
POLYLINE
  5
5E6
  8
0
  6
CONTINU
 66
     1
 10
0.0
 20
0.0
 30
0.0
  0
VERTEX
  5
A04
  8
0
  6
CONTINU
 10
12.59642754778261
 20
5.171536250723958
 30
0.0
  0
VERTEX
  5
A05
  8
0
  6
CONTINU
 10
12.59642754778261
 20
5.185036261452794
 30
0.0
  0
SEQEND
  5
BEA
  8
0
  6
CONTINU
  0
POLYLINE
  5
5E7
  8
0
  6
CONTINU
 66
     1
 10
0.0
 20
0.0
 30
0.0
  0
VERTEX
  5
A06
  8
0
  6
CONTINU
 10
12.59642754778261
 20
5.185036261452794
 30
0.0
  0
VERTEX
  5
A07
  8
0
  6
CONTINU
 10
12.59558661753867
 20
5.188174651539029
 30
0.0
  0
SEQEND
  5
BEB
  8
0
  6
CONTINU
  0
POLYLINE
  5
5E8
  8
0
  6
CONTINU
 66
     1
 10
0.0
 20
0.0
 30
0.0
  0
VERTEX
  5
A08
  8
0
  6
CONTINU
 10
12.59276846275024
 20
5.188174651159656
 30
0.0
  0
VERTEX
  5
A09
  8
0
  6
CONTINU
 10
12.59558661753867
 20
5.188174651539029
 30
0.0
  0
SEQEND
  5
BEC
  8
0
  6
CONTINU
  0
POLYLINE
  5
5E9
  8
0
  6
CONTINU
 66
     1
 10
0.0
 20
0.0
 30
0.0
  0
VERTEX
  5
A0A
  8
0
  6
CONTINU
 10
12.59164628891642
 20
5.183986599649602
 30
0.0
  0
VERTEX
  5
A0B
  8
0
  6
CONTINU
 10
12.59276846275024
 20
5.188174651159656
 30
0.0
  0
SEQEND
  5
BED
  8
0
  6
CONTINU
  0
POLYLINE
  5
5EA
  8
0
  6
CONTINU
 66
     1
 10
0.0
 20
0.0
 30
0.0
  0
VERTEX
  5
A0C
  8
0
  6
CONTINU
 10
12.57972754674947
 20
5.184611251657762
 30
0.0
  0
VERTEX
  5
A0D
  8
0
  6
CONTINU
 10
12.59192754659052
 20
5.184611251657762
 30
0.0
  0
SEQEND
  5
BEE
  8
0
  6
CONTINU
  0
POLYLINE
  5
5EB
  8
0
  6
CONTINU
 66
     1
 10
0.0
 20
0.0
 30
0.0
  0
VERTEX
  5
A0E
  8
0
  6
CONTINU
 10
12.57972754674947
 20
5.184611251657762
 30
0.0
  0
VERTEX
  5
A0F
  8
0
  6
CONTINU
 10
12.57842754420633
 20
5.183311245538351
 30
0.0
  0
SEQEND
  5
BEF
  8
0
  6
CONTINU
  0
POLYLINE
  5
5EC
  8
0
  6
CONTINU
 66
     1
 10
0.0
 20
0.0
 30
0.0
  0
VERTEX
  5
A10
  8
0
  6
CONTINU
 10
12.57902755161563
 20
5.183911254598258
 30
0.0
  0
VERTEX
  5
A11
  8
0
  6
CONTINU
 10
12.59164628891642
 20
5.183986599649602
 30
0.0
  0
SEQEND
  5
BF0
  8
0
  6
CONTINU
  0
POLYLINE
  5
5ED
  8
0
  6
CONTINU
 66
     1
 10
0.0
 20
0.0
 30
0.0
  0
VERTEX
  5
A12
  8
0
  6
CONTINU
 10
12.57842754420633
 20
5.159761255909564
 30
0.0
  0
VERTEX
  5
A13
  8
0
  6
CONTINU
 10
12.57842754420633
 20
5.183311245538351
 30
0.0
  0
SEQEND
  5
BF1
  8
0
  6
CONTINU
  0
POLYLINE
  5
5EE
  8
0
  6
CONTINU
 66
     1
 10
0.0
 20
0.0
 30
0.0
  0
VERTEX
  5
A14
  8
0
  6
CONTINU
 10
12.57902754904807
 20
5.15916125161803
 30
0.0
  0
VERTEX
  5
A15
  8
0
  6
CONTINU
 10
12.59169861105618
 20
5.159161318665775
 30
0.0
  0
SEQEND
  5
BF2
  8
0
  6
CONTINU
  0
POLYLINE
  5
5EF
  8
0
  6
CONTINU
 66
     1
 10
0.0
 20
0.0
 30
0.0
  0
VERTEX
  5
A16
  8
0
  6
CONTINU
 10
12.57972754674947
 20
5.158461254558525
 30
0.0
  0
VERTEX
  5
A17
  8
0
  6
CONTINU
 10
12.57842754420633
 20
5.159761255909564
 30
0.0
  0
SEQEND
  5
BF3
  8
0
  6
CONTINU
  0
POLYLINE
  5
5F0
  8
0
  6
CONTINU
 66
     1
 10
0.0
 20
0.0
 30
0.0
  0
VERTEX
  5
A18
  8
0
  6
CONTINU
 10
12.57972754674947
 20
5.158461254558525
 30
0.0
  0
VERTEX
  5
A19
  8
0
  6
CONTINU
 10
12.59192754659052
 20
5.158461254558525
 30
0.0
  0
SEQEND
  5
BF4
  8
0
  6
CONTINU
  0
POLYLINE
  5
5F1
  8
0
  6
CONTINU
 66
     1
 10
0.0
 20
0.0
 30
0.0
  0
VERTEX
  5
A1A
  8
0
  6
CONTINU
 10
12.59261981675207
 20
5.155452375576815
 30
0.0
  0
VERTEX
  5
A1B
  8
0
  6
CONTINU
 10
12.59169861105618
 20
5.159161318665775
 30
0.0
  0
SEQEND
  5
BF5
  8
0
  6
CONTINU
  0
POLYLINE
  5
5F2
  8
0
  6
CONTINU
 66
     1
 10
0.0
 20
0.0
 30
0.0
  0
VERTEX
  5
A1C
  8
0
  6
CONTINU
 10
12.59261981675207
 20
5.155452375576815
 30
0.0
  0
VERTEX
  5
A1D
  8
0
  6
CONTINU
 10
12.59558662740632
 20
5.155452422539108
 30
0.0
  0
SEQEND
  5
BF6
  8
0
  6
CONTINU
  0
POLYLINE
  5
5F3
  8
0
  6
CONTINU
 66
     1
 10
0.0
 20
0.0
 30
0.0
  0
VERTEX
  5
A1E
  8
0
  6
CONTINU
 10
12.59558662740632
 20
5.155452422539108
 30
0.0
  0
VERTEX
  5
A1F
  8
0
  6
CONTINU
 10
12.59642754778261
 20
5.15803629721559
 30
0.0
  0
SEQEND
  5
BF7
  8
0
  6
CONTINU
  0
POLYLINE
  5
5F4
  8
0
  6
CONTINU
 66
     1
 10
0.0
 20
0.0
 30
0.0
  0
VERTEX
  5
A20
  8
0
  6
CONTINU
 10
12.59642754778261
 20
5.15803629721559
 30
0.0
  0
VERTEX
  5
A21
  8
0
  6
CONTINU
 10
12.59642754778261
 20
5.171536250723958
 30
0.0
  0
SEQEND
  5
BF8
  8
0
  6
CONTINU
  0
POLYLINE
  5
5F5
  8
0
  6
CONTINU
 66
     1
 10
0.0
 20
0.0
 30
0.0
  0
VERTEX
  5
A22
  8
0
  6
CONTINU
 10
12.59641845840941
 20
5.161036251916053
 30
0.0
  0
VERTEX
  5
A23
  8
0
  6
CONTINU
 10
12.60062756113405
 20
5.161036251916053
 30
0.0
  0
SEQEND
  5
BF9
  8
0
  6
CONTINU
  0
POLYLINE
  5
5F6
  8
0
  6
CONTINU
 66
     1
 10
0.0
 20
0.0
 30
0.0
  0
VERTEX
  5
A24
  8
0
  6
CONTINU
 10
12.59636049538854
 20
5.181336257240732
 30
0.0
  0
VERTEX
  5
A25
  8
0
  6
CONTINU
 10
12.60062756113405
 20
5.181336257240732
 30
0.0
  0
SEQEND
  5
BFA
  8
0
  6
CONTINU
  0
POLYLINE
  5
5F7
  8
0
  6
CONTINU
 66
     1
 10
0.0
 20
0.0
 30
0.0
  0
VERTEX
  5
A26
  8
0
  6
CONTINU
 10
12.5963781762399
 20
5.161736248975556
 30
0.0
  0
VERTEX
  5
A27
  8
0
  6
CONTINU
 10
12.60062756113405
 20
5.161736248975556
 30
0.0
  0
SEQEND
  5
BFB
  8
0
  6
CONTINU
  0
POLYLINE
  5
5F8
  8
0
  6
CONTINU
 66
     1
 10
0.0
 20
0.0
 30
0.0
  0
VERTEX
  5
A28
  8
0
  6
CONTINU
 10
12.8546133641001
 20
5.351558008806919
 30
0.0
  0
VERTEX
  5
A29
  8
0
  6
CONTINU
 10
12.85511337562367
 20
5.352057219243932
 30
0.0
  0
SEQEND
  5
BFC
  8
0
  6
CONTINU
  0
POLYLINE
  5
5F9
  8
0
  6
CONTINU
 66
     1
 10
0.0
 20
0.0
 30
0.0
  0
VERTEX
  5
A2A
  8
0
  6
CONTINU
 10
12.8546133641001
 20
5.346258086928753
 30
0.0
  0
VERTEX
  5
A2B
  8
0
  6
CONTINU
 10
12.8546133641001
 20
5.351558008806919
 30
0.0
  0
SEQEND
  5
BFD
  8
0
  6
CONTINU
  0
POLYLINE
  5
5FA
  8
0
  6
CONTINU
 66
     1
 10
0.0
 20
0.0
 30
0.0
  0
VERTEX
  5
A2C
  8
0
  6
CONTINU
 10
12.85511337562367
 20
5.345757350612591
 30
0.0
  0
VERTEX
  5
A2D
  8
0
  6
CONTINU
 10
12.8546133641001
 20
5.346258086928753
 30
0.0
  0
SEQEND
  5
BFE
  8
0
  6
CONTINU
  0
POLYLINE
  5
5FB
  8
0
  6
CONTINU
 66
     1
 10
0.0
 20
0.0
 30
0.0
  0
VERTEX
  5
A2E
  8
0
  6
CONTINU
 10
12.87921349236932
 20
5.351558008806919
 30
0.0
  0
VERTEX
  5
A2F
  8
0
  6
CONTINU
 10
12.87871349991924
 20
5.352057219243932
 30
0.0
  0
SEQEND
  5
BFF
  8
0
  6
CONTINU
  0
POLYLINE
  5
5FC
  8
0
  6
CONTINU
 66
     1
 10
0.0
 20
0.0
 30
0.0
  0
VERTEX
  5
A30
  8
0
  6
CONTINU
 10
12.87921349236932
 20
5.346258086928753
 30
0.0
  0
VERTEX
  5
A31
  8
0
  6
CONTINU
 10
12.87921349236932
 20
5.351558008806919
 30
0.0
  0
SEQEND
  5
C00
  8
0
  6
CONTINU
  0
POLYLINE
  5
5FD
  8
0
  6
CONTINU
 66
     1
 10
0.0
 20
0.0
 30
0.0
  0
VERTEX
  5
A32
  8
0
  6
CONTINU
 10
12.87871349991924
 20
5.345757350612591
 30
0.0
  0
VERTEX
  5
A33
  8
0
  6
CONTINU
 10
12.87921349236932
 20
5.346258086928753
 30
0.0
  0
SEQEND
  5
C01
  8
0
  6
CONTINU
  0
POLYLINE
  5
5FE
  8
0
  6
CONTINU
 66
     1
 10
0.0
 20
0.0
 30
0.0
  0
VERTEX
  5
A34
  8
0
  6
CONTINU
 10
12.42225056725905
 20
5.317616171823269
 30
0.0
  0
VERTEX
  5
A35
  8
0
  6
CONTINU
 10
12.42348905660691
 20
5.318010950137666
 30
0.0
  0
SEQEND
  5
C02
  8
0
  6
CONTINU
  0
POLYLINE
  5
5FF
  8
0
  6
CONTINU
 66
     1
 10
0.0
 20
0.0
 30
0.0
  0
VERTEX
  5
A36
  8
0
  6
CONTINU
 10
12.40050507277487
 20
5.317616171823269
 30
0.0
  0
VERTEX
  5
A37
  8
0
  6
CONTINU
 10
12.39938973141107
 20
5.318010950137666
 30
0.0
  0
SEQEND
  5
C03
  8
0
  6
CONTINU
  0
POLYLINE
  5
600
  8
0
  6
CONTINU
 66
     1
 10
0.0
 20
0.0
 30
0.0
  0
VERTEX
  5
A38
  8
0
  6
CONTINU
 10
12.42348905660691
 20
5.326010948548206
 30
0.0
  0
VERTEX
  5
A39
  8
0
  6
CONTINU
 10
12.42348905660691
 20
5.318010950137666
 30
0.0
  0
SEQEND
  5
C04
  8
0
  6
CONTINU
  0
POLYLINE
  5
601
  8
0
  6
CONTINU
 66
     1
 10
0.0
 20
0.0
 30
0.0
  0
VERTEX
  5
A3A
  8
0
  6
CONTINU
 10
12.39938973141107
 20
5.318010950137666
 30
0.0
  0
VERTEX
  5
A3B
  8
0
  6
CONTINU
 10
12.39938973141107
 20
5.326010948548206
 30
0.0
  0
SEQEND
  5
C05
  8
0
  6
CONTINU
  0
POLYLINE
  5
602
  8
0
  6
CONTINU
 66
     1
 10
0.0
 20
0.0
 30
0.0
  0
VERTEX
  5
A3C
  8
0
  6
CONTINU
 10
12.40050507277487
 20
5.317616171823269
 30
0.0
  0
VERTEX
  5
A3D
  8
0
  6
CONTINU
 10
12.42225056725905
 20
5.317616171823269
 30
0.0
  0
SEQEND
  5
C06
  8
0
  6
CONTINU
  0
POLYLINE
  5
603
  8
0
  6
CONTINU
 66
     1
 10
0.0
 20
0.0
 30
0.0
  0
VERTEX
  5
A3E
  8
0
  6
CONTINU
 10
12.39938973141107
 20
5.318010950137666
 30
0.0
  0
VERTEX
  5
A3F
  8
0
  6
CONTINU
 10
12.42348905660691
 20
5.318010950137666
 30
0.0
  0
SEQEND
  5
C07
  8
0
  6
CONTINU
  0
POLYLINE
  5
604
  8
0
  6
CONTINU
 66
     1
 10
0.0
 20
0.0
 30
0.0
  0
VERTEX
  5
A40
  8
0
  6
CONTINU
 10
12.39938973141107
 20
5.326010948548206
 30
0.0
  0
VERTEX
  5
A41
  8
0
  6
CONTINU
 10
12.42348905660691
 20
5.326010948548206
 30
0.0
  0
SEQEND
  5
C08
  8
0
  6
CONTINU
  0
POLYLINE
  5
605
  8
0
  6
CONTINU
 66
     1
 10
0.0
 20
0.0
 30
0.0
  0
VERTEX
  5
A42
  8
0
  6
CONTINU
 10
12.39825272256335
 20
5.332836511156537
 30
0.0
  0
VERTEX
  5
A43
  8
0
  6
CONTINU
 10
12.42453275794467
 20
5.332837064287729
 30
0.0
  0
SEQEND
  5
C09
  8
0
  6
CONTINU
  0
POLYLINE
  5
606
  8
0
  6
CONTINU
 66
     1
 10
0.0
 20
0.0
 30
0.0
  0
VERTEX
  5
A44
  8
0
  6
CONTINU
 10
12.40664272837863
 20
5.337680472958334
 30
0.0
  0
VERTEX
  5
A45
  8
0
  6
CONTINU
 10
12.39825272256335
 20
5.332836511156537
 30
0.0
  0
SEQEND
  5
C0A
  8
0
  6
CONTINU
  0
POLYLINE
  5
607
  8
0
  6
CONTINU
 66
     1
 10
0.0
 20
0.0
 30
0.0
  0
VERTEX
  5
A46
  8
0
  6
CONTINU
 10
12.42453275794467
 20
5.332837064287729
 30
0.0
  0
VERTEX
  5
A47
  8
0
  6
CONTINU
 10
12.41614274758547
 20
5.337680567808603
 30
0.0
  0
SEQEND
  5
C0B
  8
0
  6
CONTINU
  0
POLYLINE
  5
608
  8
0
  6
CONTINU
 66
     1
 10
0.0
 20
0.0
 30
0.0
  0
VERTEX
  5
A48
  8
0
  6
CONTINU
 10
12.40664272837863
 20
5.337680472958334
 30
0.0
 42
0.2679522965581376
  0
VERTEX
  5
A49
  8
0
  6
CONTINU
 10
12.40739274253886
 20
5.338979520609806
 30
0.0
  0
SEQEND
  5
C0C
  8
0
  6
CONTINU
  0
POLYLINE
  5
609
  8
0
  6
CONTINU
 66
     1
 10
0.0
 20
0.0
 30
0.0
  0
VERTEX
  5
A4A
  8
0
  6
CONTINU
 10
12.41539282260778
 20
5.338979518655295
 30
0.0
 42
0.267941297066271
  0
VERTEX
  5
A4B
  8
0
  6
CONTINU
 10
12.41614274758547
 20
5.337680567808603
 30
0.0
  0
SEQEND
  5
C0D
  8
0
  6
CONTINU
  0
POLYLINE
  5
60A
  8
0
  6
CONTINU
 66
     1
 10
0.0
 20
0.0
 30
0.0
  0
VERTEX
  5
A4C
  8
0
  6
CONTINU
 10
12.4972780545414
 20
5.22039559725031
 30
0.0
  0
VERTEX
  5
A4D
  8
0
  6
CONTINU
 10
12.4972780545414
 20
5.221456731911124
 30
0.0
  0
SEQEND
  5
C0E
  8
0
  6
CONTINU
  0
POLYLINE
  5
60B
  8
0
  6
CONTINU
 66
     1
 10
0.0
 20
0.0
 30
0.0
  0
VERTEX
  5
A4E
  8
0
  6
CONTINU
 10
12.53732819795019
 20
5.218981913134315
 30
0.0
  0
VERTEX
  5
A4F
  8
0
  6
CONTINU
 10
12.53732819795019
 20
5.192818340479027
 30
0.0
  0
SEQEND
  5
C0F
  8
0
  6
CONTINU
  0
POLYLINE
  5
60C
  8
0
  6
CONTINU
 66
     1
 10
0.0
 20
0.0
 30
0.0
  0
VERTEX
  5
A50
  8
0
  6
CONTINU
 10
12.52744557461425
 20
5.207219993196878
 30
0.0
  0
VERTEX
  5
A51
  8
0
  6
CONTINU
 10
12.52838448984525
 20
5.203229058683957
 30
0.0
  0
SEQEND
  5
C10
  8
0
  6
CONTINU
  0
POLYLINE
  5
60D
  8
0
  6
CONTINU
 66
     1
 10
0.0
 20
0.0
 30
0.0
  0
VERTEX
  5
A52
  8
0
  6
CONTINU
 10
12.52744557461425
 20
5.207219993196878
 30
0.0
  0
VERTEX
  5
A53
  8
0
  6
CONTINU
 10
12.52756594763481
 20
5.206708338016202
 30
0.0
  0
SEQEND
  5
C11
  8
0
  6
CONTINU
  0
POLYLINE
  5
60E
  8
0
  6
CONTINU
 66
     1
 10
0.0
 20
0.0
 30
0.0
  0
VERTEX
  5
A54
  8
0
  6
CONTINU
 10
12.48862791717254
 20
5.218980854555656
 30
0.0
  0
VERTEX
  5
A55
  8
0
  6
CONTINU
 10
12.48862791717254
 20
5.192818340479027
 30
0.0
  0
SEQEND
  5
C12
  8
0
  6
CONTINU
  0
POLYLINE
  5
60F
  8
0
  6
CONTINU
 66
     1
 10
0.0
 20
0.0
 30
0.0
  0
VERTEX
  5
A56
  8
0
  6
CONTINU
 10
12.49851054050847
 20
5.207219993196878
 30
0.0
  0
VERTEX
  5
A57
  8
0
  6
CONTINU
 10
12.49758178992654
 20
5.20327320498587
 30
0.0
  0
SEQEND
  5
C13
  8
0
  6
CONTINU
  0
POLYLINE
  5
610
  8
0
  6
CONTINU
 66
     1
 10
0.0
 20
0.0
 30
0.0
  0
VERTEX
  5
A58
  8
0
  6
CONTINU
 10
12.49851054050847
 20
5.207219993196878
 30
0.0
  0
VERTEX
  5
A59
  8
0
  6
CONTINU
 10
12.49839008104878
 20
5.206708092601972
 30
0.0
  0
SEQEND
  5
C14
  8
0
  6
CONTINU
  0
POLYLINE
  5
611
  8
0
  6
CONTINU
 66
     1
 10
0.0
 20
0.0
 30
0.0
  0
VERTEX
  5
A5A
  8
0
  6
CONTINU
 10
12.7527315732425
 20
5.220395541221916
 30
0.0
  0
VERTEX
  5
A5B
  8
0
  6
CONTINU
 10
12.76383314871274
 20
5.209293958599158
 30
0.0
  0
SEQEND
  5
C15
  8
0
  6
CONTINU
  0
POLYLINE
  5
612
  8
0
  6
CONTINU
 66
     1
 10
0.0
 20
0.0
 30
0.0
  0
VERTEX
  5
A5C
  8
0
  6
CONTINU
 10
12.74237247864517
 20
5.175600282017196
 30
0.0
  0
VERTEX
  5
A5D
  8
0
  6
CONTINU
 10
12.72515441660703
 20
5.192818351207854
 30
0.0
  0
SEQEND
  5
C16
  8
0
  6
CONTINU
  0
POLYLINE
  5
613
  8
0
  6
CONTINU
 66
     1
 10
0.0
 20
0.0
 30
0.0
  0
VERTEX
  5
A5E
  8
0
  6
CONTINU
 10
12.74237247864517
 20
5.175600282017196
 30
0.0
  0
VERTEX
  5
A5F
  8
0
  6
CONTINU
 10
12.76853543141205
 20
5.201763234784079
 30
0.0
  0
SEQEND
  5
C17
  8
0
  6
CONTINU
  0
POLYLINE
  5
614
  8
0
  6
CONTINU
 66
     1
 10
0.0
 20
0.0
 30
0.0
  0
VERTEX
  5
A60
  8
0
  6
CONTINU
 10
12.72515441660703
 20
5.192818351207854
 30
0.0
  0
VERTEX
  5
A61
  8
0
  6
CONTINU
 10
12.73965010043536
 20
5.178322655458633
 30
0.0
  0
SEQEND
  5
C18
  8
0
  6
CONTINU
  0
POLYLINE
  5
615
  8
0
  6
CONTINU
 66
     1
 10
0.0
 20
0.0
 30
0.0
  0
VERTEX
  5
A62
  8
0
  6
CONTINU
 10
12.73965010043536
 20
5.178322655458633
 30
0.0
  0
VERTEX
  5
A63
  8
0
  6
CONTINU
 10
12.74237247864517
 20
5.175600282017196
 30
0.0
  0
SEQEND
  5
C19
  8
0
  6
CONTINU
  0
POLYLINE
  5
616
  8
0
  6
CONTINU
 66
     1
 10
0.0
 20
0.0
 30
0.0
  0
VERTEX
  5
A64
  8
0
  6
CONTINU
 10
12.76853543141205
 20
5.204591661594729
 30
0.0
  0
VERTEX
  5
A65
  8
0
  6
CONTINU
 10
12.76383314871274
 20
5.209293958599158
 30
0.0
  0
SEQEND
  5
C1A
  8
0
  6
CONTINU
  0
POLYLINE
  5
617
  8
0
  6
CONTINU
 66
     1
 10
0.0
 20
0.0
 30
0.0
  0
VERTEX
  5
A66
  8
0
  6
CONTINU
 10
12.76270329517169
 20
5.210423812868145
 30
0.0
  0
VERTEX
  5
A67
  8
0
  6
CONTINU
 10
12.75772427562711
 20
5.21540283562061
 30
0.0
  0
SEQEND
  5
C1B
  8
0
  6
CONTINU
  0
POLYLINE
  5
618
  8
0
  6
CONTINU
 66
     1
 10
0.0
 20
0.0
 30
0.0
  0
VERTEX
  5
A68
  8
0
  6
CONTINU
 10
12.76620623050224
 20
5.206920869590347
 30
0.0
  0
VERTEX
  5
A69
  8
0
  6
CONTINU
 10
12.76568021737542
 20
5.207446884317391
 30
0.0
  0
SEQEND
  5
C1C
  8
0
  6
CONTINU
  0
POLYLINE
  5
619
  8
0
  6
CONTINU
 66
     1
 10
0.0
 20
0.0
 30
0.0
  0
VERTEX
  5
A6A
  8
0
  6
CONTINU
 10
12.75343069984884
 20
5.219696414165144
 30
0.0
  0
VERTEX
  5
A6B
  8
0
  6
CONTINU
 10
12.7527315732425
 20
5.220395541221916
 30
0.0
  0
SEQEND
  5
C1D
  8
0
  6
CONTINU
  0
POLYLINE
  5
61A
  8
0
  6
CONTINU
 66
     1
 10
0.0
 20
0.0
 30
0.0
  0
VERTEX
  5
A6C
  8
0
  6
CONTINU
 10
12.75410384598685
 20
5.219023267593436
 30
0.0
  0
VERTEX
  5
A6D
  8
0
  6
CONTINU
 10
12.75384968467044
 20
5.219277429073594
 30
0.0
  0
SEQEND
  5
C1E
  8
0
  6
CONTINU
  0
POLYLINE
  5
61B
  8
0
  6
CONTINU
 66
     1
 10
0.0
 20
0.0
 30
0.0
  0
VERTEX
  5
A6E
  8
0
  6
CONTINU
 10
12.75384968467044
 20
5.219277429073594
 30
0.0
  0
VERTEX
  5
A6F
  8
0
  6
CONTINU
 10
12.75343069984884
 20
5.219696414165144
 30
0.0
  0
SEQEND
  5
C1F
  8
0
  6
CONTINU
  0
POLYLINE
  5
61C
  8
0
  6
CONTINU
 66
     1
 10
0.0
 20
0.0
 30
0.0
  0
VERTEX
  5
A70
  8
0
  6
CONTINU
 10
12.75855149497835
 20
5.214575615736408
 30
0.0
  0
VERTEX
  5
A71
  8
0
  6
CONTINU
 10
12.75447543081848
 20
5.218651682522403
 30
0.0
  0
SEQEND
  5
C20
  8
0
  6
CONTINU
  0
POLYLINE
  5
61D
  8
0
  6
CONTINU
 66
     1
 10
0.0
 20
0.0
 30
0.0
  0
VERTEX
  5
A72
  8
0
  6
CONTINU
 10
12.76489374916208
 20
5.210354678257805
 30
0.0
  0
VERTEX
  5
A73
  8
0
  6
CONTINU
 10
12.76383314871274
 20
5.209293958599158
 30
0.0
  0
SEQEND
  5
C21
  8
0
  6
CONTINU
  0
POLYLINE
  5
61E
  8
0
  6
CONTINU
 66
     1
 10
0.0
 20
0.0
 30
0.0
  0
VERTEX
  5
A74
  8
0
  6
CONTINU
 10
12.74269058630071
 20
5.232557837542896
 30
0.0
  0
VERTEX
  5
A75
  8
0
  6
CONTINU
 10
12.74162987141043
 20
5.231497250206581
 30
0.0
  0
SEQEND
  5
C22
  8
0
  6
CONTINU
  0
POLYLINE
  5
61F
  8
0
  6
CONTINU
 66
     1
 10
0.0
 20
0.0
 30
0.0
  0
VERTEX
  5
A76
  8
0
  6
CONTINU
 10
12.76383314871274
 20
5.209293958599158
 30
0.0
  0
VERTEX
  5
A77
  8
0
  6
CONTINU
 10
12.74162987141043
 20
5.231497250206581
 30
0.0
  0
SEQEND
  5
C23
  8
0
  6
CONTINU
  0
POLYLINE
  5
620
  8
0
  6
CONTINU
 66
     1
 10
0.0
 20
0.0
 30
0.0
  0
VERTEX
  5
A78
  8
0
  6
CONTINU
 10
12.76489374916208
 20
5.210354678257805
 30
0.0
  0
VERTEX
  5
A79
  8
0
  6
CONTINU
 10
12.74269058630071
 20
5.232557837542896
 30
0.0
  0
SEQEND
  5
C24
  8
0
  6
CONTINU
  0
POLYLINE
  5
621
  8
0
  6
CONTINU
 66
     1
 10
0.0
 20
0.0
 30
0.0
  0
VERTEX
  5
A7A
  8
0
  6
CONTINU
 10
12.71065856588572
 20
5.207314199545012
 30
0.0
  0
VERTEX
  5
A7B
  8
0
  6
CONTINU
 10
12.72515441660703
 20
5.192818351207854
 30
0.0
  0
SEQEND
  5
C25
  8
0
  6
CONTINU
  0
POLYLINE
  5
622
  8
0
  6
CONTINU
 66
     1
 10
0.0
 20
0.0
 30
0.0
  0
VERTEX
  5
A7C
  8
0
  6
CONTINU
 10
12.7527315732425
 20
5.220395541221916
 30
0.0
  0
VERTEX
  5
A7D
  8
0
  6
CONTINU
 10
12.74162987141043
 20
5.231497250206581
 30
0.0
  0
SEQEND
  5
C26
  8
0
  6
CONTINU
  0
POLYLINE
  5
623
  8
0
  6
CONTINU
 66
     1
 10
0.0
 20
0.0
 30
0.0
  0
VERTEX
  5
A7E
  8
0
  6
CONTINU
 10
12.7527315732425
 20
5.220395541221916
 30
0.0
  0
VERTEX
  5
A7F
  8
0
  6
CONTINU
 10
12.73692756963763
 20
5.236199537674264
 30
0.0
  0
SEQEND
  5
C27
  8
0
  6
CONTINU
  0
POLYLINE
  5
624
  8
0
  6
CONTINU
 66
     1
 10
0.0
 20
0.0
 30
0.0
  0
VERTEX
  5
A80
  8
0
  6
CONTINU
 10
12.7079361900601
 20
5.210036575370635
 30
0.0
  0
VERTEX
  5
A81
  8
0
  6
CONTINU
 10
12.72515441660703
 20
5.192818351207854
 30
0.0
  0
SEQEND
  5
C28
  8
0
  6
CONTINU
  0
POLYLINE
  5
625
  8
0
  6
CONTINU
 66
     1
 10
0.0
 20
0.0
 30
0.0
  0
VERTEX
  5
A82
  8
0
  6
CONTINU
 10
12.7079361900601
 20
5.210036575370635
 30
0.0
  0
VERTEX
  5
A83
  8
0
  6
CONTINU
 10
12.73409914282698
 20
5.236199532905892
 30
0.0
  0
SEQEND
  5
C29
  8
0
  6
CONTINU
  0
POLYLINE
  5
626
  8
0
  6
CONTINU
 66
     1
 10
0.0
 20
0.0
 30
0.0
  0
VERTEX
  5
A84
  8
0
  6
CONTINU
 10
12.71065856588572
 20
5.207314199545012
 30
0.0
  0
VERTEX
  5
A85
  8
0
  6
CONTINU
 10
12.7079361900601
 20
5.210036575370635
 30
0.0
  0
SEQEND
  5
C2A
  8
0
  6
CONTINU
  0
POLYLINE
  5
627
  8
0
  6
CONTINU
 66
     1
 10
0.0
 20
0.0
 30
0.0
  0
VERTEX
  5
A86
  8
0
  6
CONTINU
 10
12.7427597278273
 20
5.230367382124095
 30
0.0
  0
VERTEX
  5
A87
  8
0
  6
CONTINU
 10
12.74773874891042
 20
5.225388363294361
 30
0.0
  0
SEQEND
  5
C2B
  8
0
  6
CONTINU
  0
POLYLINE
  5
628
  8
0
  6
CONTINU
 66
     1
 10
0.0
 20
0.0
 30
0.0
  0
VERTEX
  5
A88
  8
0
  6
CONTINU
 10
12.75203232585131
 20
5.22109478829664
 30
0.0
  0
VERTEX
  5
A89
  8
0
  6
CONTINU
 10
12.7527315732425
 20
5.220395541221916
 30
0.0
  0
SEQEND
  5
C2C
  8
0
  6
CONTINU
  0
POLYLINE
  5
629
  8
0
  6
CONTINU
 66
     1
 10
0.0
 20
0.0
 30
0.0
  0
VERTEX
  5
A8A
  8
0
  6
CONTINU
 10
12.75135917099947
 20
5.221767942843824
 30
0.0
  0
VERTEX
  5
A8B
  8
0
  6
CONTINU
 10
12.75161334260528
 20
5.221513772579587
 30
0.0
  0
SEQEND
  5
C2D
  8
0
  6
CONTINU
  0
POLYLINE
  5
62A
  8
0
  6
CONTINU
 66
     1
 10
0.0
 20
0.0
 30
0.0
  0
VERTEX
  5
A8C
  8
0
  6
CONTINU
 10
12.75161334260528
 20
5.221513772579587
 30
0.0
  0
VERTEX
  5
A8D
  8
0
  6
CONTINU
 10
12.75203232585131
 20
5.22109478829664
 30
0.0
  0
SEQEND
  5
C2E
  8
0
  6
CONTINU
  0
POLYLINE
  5
62B
  8
0
  6
CONTINU
 66
     1
 10
0.0
 20
0.0
 30
0.0
  0
VERTEX
  5
A8E
  8
0
  6
CONTINU
 10
12.74691151837667
 20
5.226215593453728
 30
0.0
  0
VERTEX
  5
A8F
  8
0
  6
CONTINU
 10
12.75098759430871
 20
5.22213951936642
 30
0.0
  0
SEQEND
  5
C2F
  8
0
  6
CONTINU
  0
POLYLINE
  5
62C
  8
0
  6
CONTINU
 66
     1
 10
0.0
 20
0.0
 30
0.0
  0
VERTEX
  5
A90
  8
0
  6
CONTINU
 10
12.73540743160915
 20
5.182565305211353
 30
0.0
  0
VERTEX
  5
A91
  8
0
  6
CONTINU
 10
12.71490138014729
 20
5.203071418662053
 30
0.0
  0
SEQEND
  5
C30
  8
0
  6
CONTINU
  0
POLYLINE
  5
62D
  8
0
  6
CONTINU
 66
     1
 10
0.0
 20
0.0
 30
0.0
  0
VERTEX
  5
A92
  8
0
  6
CONTINU
 10
12.69691350071109
 20
5.19749109513872
 30
0.0
  0
VERTEX
  5
A93
  8
0
  6
CONTINU
 10
12.69691350197037
 20
5.20805733758509
 30
0.0
  0
SEQEND
  5
C31
  8
0
  6
CONTINU
  0
POLYLINE
  5
62E
  8
0
  6
CONTINU
 66
     1
 10
0.0
 20
0.0
 30
0.0
  0
VERTEX
  5
A94
  8
0
  6
CONTINU
 10
12.70819014766372
 20
5.209782622748217
 30
0.0
 42
0.1268618113838944
  0
VERTEX
  5
A95
  8
0
  6
CONTINU
 10
12.70773900454897
 20
5.208823723628912
 30
0.0
  0
SEQEND
  5
C32
  8
0
  6
CONTINU
  0
POLYLINE
  5
62F
  8
0
  6
CONTINU
 66
     1
 10
0.0
 20
0.0
 30
0.0
  0
VERTEX
  5
A96
  8
0
  6
CONTINU
 10
12.707845390714
 20
5.209196130672232
 30
0.0
  0
VERTEX
  5
A97
  8
0
  6
CONTINU
 10
12.70752013049995
 20
5.208057550344696
 30
0.0
  0
SEQEND
  5
C33
  8
0
  6
CONTINU
  0
ENDSEC
  0
EOF
