  0
SECTION
  2
HEADER
  9
$ACADVER
  1
AC1009
  9
$DWGCODEPAGE
  3
ansi_1252
  9
$INSBASE
 10
-57.61244979599149
 20
-9.485742602274208
 30
0.0
  9
$EXTMIN
 10
-57.74319349280838
 20
-9.297268391539445
 30
0.0
  9
$EXTMAX
 10
-57.48170609245149
 20
-9.029545539852139
 30
0.0
  9
$LIMMIN
 10
0.0
 20
0.0
  9
$LIMMAX
 10
297.0
 20
210.0
  9
$ORTHOMODE
 70
     0
  9
$REGENMODE
 70
     1
  9
$FILLMODE
 70
     1
  9
$QTEXTMODE
 70
     0
  9
$MIRRTEXT
 70
     1
  9
$DRAGMODE
 70
     2
  9
$LTSCALE
 40
0.131594196801383
  9
$OSMODE
 70
    37
  9
$ATTMODE
 70
     1
  9
$TEXTSIZE
 40
0.0
  9
$TRACEWID
 40
0.05
  9
$TEXTSTYLE
  7
STANDARD
  9
$CLAYER
  8
0
  9
$CELTYPE
  6
CONTINUOUS
  9
$CECOLOR
 62
   256
  9
$DIMSCALE
 40
1.0
  9
$DIMASZ
 40
0.0
  9
$DIMEXO
 40
0.0999999940395355
  9
$DIMDLI
 40
10.0
  9
$DIMRND
 40
0.0
  9
$DIMDLE
 40
0.0
  9
$DIMEXE
 40
1.800000071525574
  9
$DIMTP
 40
0.0
  9
$DIMTM
 40
0.0
  9
$DIMTXT
 40
0.18
  9
$DIMCEN
 40
0.0
  9
$DIMTSZ
 40
0.0
  9
$DIMTOL
 70
     0
  9
$DIMLIM
 70
     0
  9
$DIMTIH
 70
     1
  9
$DIMTOH
 70
     1
  9
$DIMSE1
 70
     0
  9
$DIMSE2
 70
     0
  9
$DIMTAD
 70
     0
  9
$DIMZIN
 70
     0
  9
$DIMBLK
  1

  9
$DIMASO
 70
     1
  9
$DIMSHO
 70
     1
  9
$DIMPOST
  1

  9
$DIMAPOST
  1

  9
$DIMALT
 70
     0
  9
$DIMALTD
 70
     2
  9
$DIMALTF
 40
25.4
  9
$DIMLFAC
 40
1.0
  9
$DIMTOFL
 70
     0
  9
$DIMTVP
 40
0.0
  9
$DIMTIX
 70
     0
  9
$DIMSOXD
 70
     0
  9
$DIMSAH
 70
     0
  9
$DIMBLK1
  1

  9
$DIMBLK2
  1

  9
$DIMSTYLE
  2
STANDARD
  9
$DIMCLRD
 70
     0
  9
$DIMCLRE
 70
     0
  9
$DIMCLRT
 70
     0
  9
$DIMTFAC
 40
1.0
  9
$DIMGAP
 40
0.09
  9
$LUNITS
 70
     2
  9
$LUPREC
 70
     6
  9
$SKETCHINC
 40
0.1
  9
$FILLETRAD
 40
0.0
  9
$AUNITS
 70
     1
  9
$AUPREC
 70
     6
  9
$MENU
  1
acad
  9
$ELEVATION
 40
0.0
  9
$PELEVATION
 40
0.0
  9
$THICKNESS
 40
0.0
  9
$LIMCHECK
 70
     0
  9
$CHAMFERA
 40
0.0
  9
$CHAMFERB
 40
0.0
  9
$SKPOLY
 70
     0
  9
$TDCREATE
 40
2452524.469895833
  9
$TDUPDATE
 40
2458028.613483796
  9
$TDINDWG
 40
0.0011967593
  9
$TDUSRTIMER
 40
0.0011967593
  9
$USRTIMER
 70
     1
  9
$ANGBASE
 50
0.0
  9
$ANGDIR
 70
     0
  9
$PDMODE
 70
     2
  9
$PDSIZE
 40
1.0
  9
$PLINEWID
 40
0.0
  9
$COORDS
 70
     1
  9
$SPLFRAME
 70
     0
  9
$SPLINETYPE
 70
     6
  9
$SPLINESEGS
 70
     8
  9
$ATTDIA
 70
     0
  9
$ATTREQ
 70
     1
  9
$HANDLING
 70
     1
  9
$HANDSEED
  5
E9D
  9
$SURFTAB1
 70
     6
  9
$SURFTAB2
 70
     6
  9
$SURFTYPE
 70
     6
  9
$SURFU
 70
     6
  9
$SURFV
 70
     6
  9
$UCSNAME
  2

  9
$UCSORG
 10
0.0
 20
0.0
 30
0.0
  9
$UCSXDIR
 10
1.0
 20
0.0
 30
0.0
  9
$UCSYDIR
 10
0.0
 20
1.0
 30
0.0
  9
$PUCSNAME
  2

  9
$PUCSORG
 10
0.0
 20
0.0
 30
0.0
  9
$PUCSXDIR
 10
1.0
 20
0.0
 30
0.0
  9
$PUCSYDIR
 10
0.0
 20
1.0
 30
0.0
  9
$USERI1
 70
     0
  9
$USERI2
 70
     0
  9
$USERI3
 70
     0
  9
$USERI4
 70
     0
  9
$USERI5
 70
     0
  9
$USERR1
 40
0.0
  9
$USERR2
 40
0.0
  9
$USERR3
 40
0.0
  9
$USERR4
 40
0.0
  9
$USERR5
 40
0.0
  9
$WORLDVIEW
 70
     1
  9
$SHADEDGE
 70
     3
  9
$SHADEDIF
 70
    70
  9
$TILEMODE
 70
     1
  9
$MAXACTVP
 70
    16
  9
$PLIMCHECK
 70
     0
  9
$PEXTMIN
 10
1.000000000000000E+20
 20
1.000000000000000E+20
 30
1.000000000000000E+20
  9
$PEXTMAX
 10
-1.000000000000000E+20
 20
-1.000000000000000E+20
 30
-1.000000000000000E+20
  9
$PLIMMIN
 10
0.0
 20
0.0
  9
$PLIMMAX
 10
297.0
 20
210.0
  9
$UNITMODE
 70
     0
  9
$VISRETAIN
 70
     0
  9
$PLINEGEN
 70
     1
  9
$PSLTSCALE
 70
     0
  0
ENDSEC
  0
SECTION
  2
TABLES
  0
TABLE
  2
VPORT
 70
     1
  0
VPORT
  2
*ACTIVE
 70
     0
 10
0.0
 20
0.0
 11
1.0
 21
1.0
 12
-57.61244979262993
 22
-9.145690083099211
 13
0.0
 23
0.0
 14
1.0
 24
1.0
 15
0.0
 25
0.0
 16
0.0
 26
0.0
 36
1.0
 17
0.0
 27
0.0
 37
0.0
 40
0.3061946587180942
 41
1.503537735849057
 42
50.0
 43
0.0
 44
0.0
 50
0.0
 51
0.0
 71
     0
 72
   100
 73
     1
 74
     1
 75
     0
 76
     0
 77
     0
 78
     0
  0
ENDTAB
  0
TABLE
  2
LTYPE
 70
     3
  0
LTYPE
  2
CONTINUOUS
 70
     0
  3
Solid line
 72
    65
 73
     0
 40
0.0
  0
LTYPE
  2
CONTINU
 70
     0
  3

 72
    65
 73
     0
 40
0.0
  0
LTYPE
  2
AXES
 70
     0
  3

 72
    65
 73
     4
 40
0.5400000065565109
 49
0.300000011920929
 49
-0.0799999982118607
 49
0.0799999982118607
 49
-0.0799999982118607
  0
ENDTAB
  0
TABLE
  2
LAYER
 70
     1
  0
LAYER
  2
0
 70
     0
 62
     7
  6
CONTINUOUS
  0
ENDTAB
  0
TABLE
  2
STYLE
 70
     1
  0
STYLE
  2
STANDARD
 70
     0
 40
0.0
 41
1.0
 50
0.0
 71
     0
 42
0.0
  3
txt
  4

  0
ENDTAB
  0
TABLE
  2
VIEW
 70
     0
  0
ENDTAB
  0
TABLE
  2
UCS
 70
     0
  0
ENDTAB
  0
TABLE
  2
APPID
 70
     2
  0
APPID
  2
ACAD
 70
     0
  0
APPID
  2
DCO15
 70
     0
  0
ENDTAB
  0
TABLE
  2
DIMSTYLE
 70
     1
  0
DIMSTYLE
  2
STANDARD
 70
     0
  3

  4

  5

  6

  7

 40
1.0
 41
0.0
 42
0.0999999940395355
 43
10.0
 44
1.800000071525574
 45
0.0
 46
0.0
 47
0.0
 48
0.0
140
0.18
141
0.0
142
0.0
143
25.4
144
1.0
145
0.0
146
1.0
147
0.09
 71
     0
 72
     0
 73
     1
 74
     1
 75
     0
 76
     0
 77
     0
 78
     0
170
     0
171
     2
172
     0
173
     0
174
     0
175
     0
176
     0
177
     0
178
     0
  0
ENDTAB
  0
ENDSEC
  0
SECTION
  2
BLOCKS
  0
BLOCK
  8
0
  2
$MODEL_SPACE
 70
     0
 10
0.0
 20
0.0
 30
0.0
  3
$MODEL_SPACE
  1

  0
ENDBLK
  5
E
  8
0
  0
BLOCK
 67
     1
  8
0
  2
$PAPER_SPACE
 70
     0
 10
0.0
 20
0.0
 30
0.0
  3
$PAPER_SPACE
  1

  0
ENDBLK
  5
10
 67
     1
  8
0
  0
ENDSEC
  0
SECTION
  2
ENTITIES
  0
POLYLINE
  5
137
  8
0
  6
CONTINU
 66
     1
 10
0.0
 20
0.0
 30
0.0
 70
     1
  0
VERTEX
  5
8F3
  8
0
  6
CONTINU
 10
-57.70794981616081
 20
-9.208165506711541
 30
0.0
  0
VERTEX
  5
8F4
  8
0
  6
CONTINU
 10
-57.70379617281032
 20
-9.207427650151303
 30
0.0
  0
VERTEX
  5
8F5
  8
0
  6
CONTINU
 10
-57.70074320075449
 20
-9.205508019210244
 30
0.0
  0
VERTEX
  5
8F6
  8
0
  6
CONTINU
 10
-57.69926881432721
 20
-9.202920513654881
 30
0.0
  0
VERTEX
  5
8F7
  8
0
  6
CONTINU
 10
-57.69951430635461
 20
-9.200207182902611
 30
0.0
  0
VERTEX
  5
8F8
  8
0
  6
CONTINU
 10
-57.70132760911036
 20
-9.19786527582384
 30
0.0
  0
VERTEX
  5
8F9
  8
0
  6
CONTINU
 10
-57.70432245766127
 20
-9.196290502197204
 30
0.0
  0
VERTEX
  5
8FA
  8
0
  6
CONTINU
 10
-57.70794981616081
 20
-9.195736495733213
 30
0.0
  0
VERTEX
  5
8FB
  8
0
  6
CONTINU
 10
-57.71157715673205
 20
-9.196290502197204
 30
0.0
  0
VERTEX
  5
8FC
  8
0
  6
CONTINU
 10
-57.71457202321125
 20
-9.19786527582384
 30
0.0
  0
VERTEX
  5
8FD
  8
0
  6
CONTINU
 10
-57.716385325967
 20
-9.200207182902611
 30
0.0
  0
VERTEX
  5
8FE
  8
0
  6
CONTINU
 10
-57.71663081799439
 20
-9.202920513654881
 30
0.0
  0
VERTEX
  5
8FF
  8
0
  6
CONTINU
 10
-57.71515641363883
 20
-9.205508019210244
 30
0.0
  0
VERTEX
  5
900
  8
0
  6
CONTINU
 10
-57.71210345951129
 20
-9.207427650151303
 30
0.0
  0
SEQEND
  5
D0B
  8
0
  6
CONTINU
  0
POLYLINE
  5
148
  8
0
  6
CONTINU
 66
     1
 10
0.0
 20
0.0
 30
0.0
  0
VERTEX
  5
901
  8
0
  6
CONTINU
 10
-57.6991611908232
 20
-9.203406632420908
 30
0.0
  0
VERTEX
  5
902
  8
0
  6
CONTINU
 10
-57.70009500355516
 20
-9.206194228859074
 30
0.0
  0
VERTEX
  5
903
  8
0
  6
CONTINU
 10
-57.70257945171699
 20
-9.208325937983513
 30
0.0
  0
VERTEX
  5
904
  8
0
  6
CONTINU
 10
-57.70604746360588
 20
-9.209473787564157
 30
0.0
  0
VERTEX
  5
905
  8
0
  6
CONTINU
 10
-57.70985216871573
 20
-9.209473787564157
 30
0.0
  0
VERTEX
  5
906
  8
0
  6
CONTINU
 10
-57.71332016267633
 20
-9.208325937983513
 30
0.0
  0
VERTEX
  5
907
  8
0
  6
CONTINU
 10
-57.71580462876644
 20
-9.206194228859074
 30
0.0
  0
VERTEX
  5
908
  8
0
  6
CONTINU
 10
-57.71673842357012
 20
-9.203406632420908
 30
0.0
  0
SEQEND
  5
D0C
  8
0
  6
CONTINU
  0
POLYLINE
  5
154
  8
0
  6
CONTINU
 66
     1
 10
0.0
 20
0.0
 30
0.0
  0
VERTEX
  5
909
  8
0
  6
CONTINU
 10
-57.70152080432595
 20
-9.202122729555896
 30
0.0
  0
VERTEX
  5
90A
  8
0
  6
CONTINU
 10
-57.7023636310038
 20
-9.204374715072563
 30
0.0
  0
VERTEX
  5
90B
  8
0
  6
CONTINU
 10
-57.70456237399156
 20
-9.205990328215385
 30
0.0
  0
VERTEX
  5
90C
  8
0
  6
CONTINU
 10
-57.70752487991358
 20
-9.206665195981952
 30
0.0
  0
VERTEX
  5
90D
  8
0
  6
CONTINU
 10
-57.71058253125219
 20
-9.20628066785152
 30
0.0
  0
VERTEX
  5
90E
  8
0
  6
CONTINU
 10
-57.71305736985244
 20
-9.204903804579837
 30
0.0
  0
VERTEX
  5
90F
  8
0
  6
CONTINU
 10
-57.71432925628341
 20
-9.202787378199144
 30
0.0
  0
SEQEND
  5
D0D
  8
0
  6
CONTINU
  0
POLYLINE
  5
15D
  8
0
  6
CONTINU
 66
     1
 10
0.0
 20
0.0
 30
0.0
 70
     1
  0
VERTEX
  5
910
  8
0
  6
CONTINU
 10
-57.70795951536381
 20
-9.206010932298675
 30
0.0
  0
VERTEX
  5
911
  8
0
  6
CONTINU
 10
-57.7044750273796
 20
-9.205286609353728
 30
0.0
  0
VERTEX
  5
912
  8
0
  6
CONTINU
 10
-57.70218131825812
 20
-9.203466731398896
 30
0.0
  0
VERTEX
  5
913
  8
0
  6
CONTINU
 10
-57.701534447752
 20
-9.201161860798534
 30
0.0
  0
VERTEX
  5
914
  8
0
  6
CONTINU
 10
-57.70255198558203
 20
-9.198986644204767
 30
0.0
  0
VERTEX
  5
915
  8
0
  6
CONTINU
 10
-57.70489223653534
 20
-9.197454989227744
 30
0.0
  0
VERTEX
  5
916
  8
0
  6
CONTINU
 10
-57.70795951536381
 20
-9.196905183585388
 30
0.0
  0
VERTEX
  5
917
  8
0
  6
CONTINU
 10
-57.71102679419229
 20
-9.197454989227744
 30
0.0
  0
VERTEX
  5
918
  8
0
  6
CONTINU
 10
-57.7133670451456
 20
-9.198986644204767
 30
0.0
  0
VERTEX
  5
919
  8
0
  6
CONTINU
 10
-57.71438458297563
 20
-9.201161860798534
 30
0.0
  0
VERTEX
  5
91A
  8
0
  6
CONTINU
 10
-57.7137377303978
 20
-9.203466731398896
 30
0.0
  0
VERTEX
  5
91B
  8
0
  6
CONTINU
 10
-57.71144400334803
 20
-9.205286609353728
 30
0.0
  0
SEQEND
  5
D0E
  8
0
  6
CONTINU
  0
POLYLINE
  5
16C
  8
0
  6
CONTINU
 66
     1
 10
0.0
 20
0.0
 30
0.0
  0
VERTEX
  5
91C
  8
0
  6
CONTINU
 10
-57.71421660740805
 20
-9.201760392767904
 30
0.0
  0
VERTEX
  5
91D
  8
0
  6
CONTINU
 10
-57.71432925628341
 20
-9.202489080644828
 30
0.0
  0
SEQEND
  5
D0F
  8
0
  6
CONTINU
  0
POLYLINE
  5
175
  8
0
  6
CONTINU
 66
     1
 10
0.0
 20
0.0
 30
0.0
  0
VERTEX
  5
91E
  8
0
  6
CONTINU
 10
-57.70140426070687
 20
-9.233460320925229
 30
0.0
  0
VERTEX
  5
91F
  8
0
  6
CONTINU
 10
-57.69887491194397
 20
-9.231228409677058
 30
0.0
  0
VERTEX
  5
920
  8
0
  6
CONTINU
 10
-57.69773560519185
 20
-9.22870079468335
 30
0.0
  0
VERTEX
  5
921
  8
0
  6
CONTINU
 10
-57.69795406136316
 20
-9.226048842540518
 30
0.0
  0
SEQEND
  5
D10
  8
0
  6
CONTINU
  0
POLYLINE
  5
18B
  8
0
  6
CONTINU
 66
     1
 10
0.0
 20
0.0
 30
0.0
  0
VERTEX
  5
922
  8
0
  6
CONTINU
 10
-57.71838306479987
 20
-9.201007768709141
 30
0.0
 42
-0.0949102378600786
  0
VERTEX
  5
923
  8
0
  6
CONTINU
 10
-57.71661930552401
 20
-9.199203841030597
 30
0.0
  0
SEQEND
  5
D11
  8
0
  6
CONTINU
  0
POLYLINE
  5
193
  8
0
  6
CONTINU
 66
     1
 10
0.0
 20
0.0
 30
0.0
  0
VERTEX
  5
924
  8
0
  6
CONTINU
 10
-57.70118587064856
 20
-9.198048333124097
 30
0.0
  0
VERTEX
  5
925
  8
0
  6
CONTINU
 10
-57.70435186005118
 20
-9.196552797511142
 30
0.0
  0
VERTEX
  5
926
  8
0
  6
CONTINU
 10
-57.70792394564334
 20
-9.19616275307105
 30
0.0
  0
VERTEX
  5
927
  8
0
  6
CONTINU
 10
-57.711497250359
 20
-9.196544559463485
 30
0.0
  0
VERTEX
  5
928
  8
0
  6
CONTINU
 10
-57.71468434093462
 20
-9.198010335809322
 30
0.0
  0
SEQEND
  5
D12
  8
0
  6
CONTINU
  0
POLYLINE
  5
19E
  8
0
  6
CONTINU
 66
     1
 10
0.0
 20
0.0
 30
0.0
  0
VERTEX
  5
929
  8
0
  6
CONTINU
 10
-57.6975347337711
 20
-9.20098682576784
 30
0.0
 42
0.0948188760676545
  0
VERTEX
  5
92A
  8
0
  6
CONTINU
 10
-57.69929282046577
 20
-9.199195008783642
 30
0.0
  0
SEQEND
  5
D13
  8
0
  6
CONTINU
  0
POLYLINE
  5
1A4
  8
0
  6
CONTINU
 66
     1
 10
0.0
 20
0.0
 30
0.0
  0
VERTEX
  5
92B
  8
0
  6
CONTINU
 10
-57.71738299925556
 20
-9.219866748031839
 30
0.0
  0
VERTEX
  5
92C
  8
0
  6
CONTINU
 10
-57.71810224625439
 20
-9.218840219166111
 30
0.0
  0
SEQEND
  5
D14
  8
0
  6
CONTINU
  0
POLYLINE
  5
1AA
  8
0
  6
CONTINU
 66
     1
 10
0.0
 20
0.0
 30
0.0
  0
VERTEX
  5
92D
  8
0
  6
CONTINU
 10
-57.71838306479987
 20
-9.201007768709141
 30
0.0
  0
VERTEX
  5
92E
  8
0
  6
CONTINU
 10
-57.7194145251149
 20
-9.202214791307204
 30
0.0
  0
VERTEX
  5
92F
  8
0
  6
CONTINU
 10
-57.72072076214285
 20
-9.203193982773396
 30
0.0
  0
VERTEX
  5
930
  8
0
  6
CONTINU
 10
-57.72221078203597
 20
-9.203861234379742
 30
0.0
  0
SEQEND
  5
D15
  8
0
  6
CONTINU
  0
POLYLINE
  5
1B0
  8
0
  6
CONTINU
 66
     1
 10
0.0
 20
0.0
 30
0.0
  0
VERTEX
  5
931
  8
0
  6
CONTINU
 10
-57.69851923266759
 20
-9.219870739316626
 30
0.0
  0
VERTEX
  5
932
  8
0
  6
CONTINU
 10
-57.69770073467456
 20
-9.218684881768548
 30
0.0
  0
SEQEND
  5
D16
  8
0
  6
CONTINU
  0
POLYLINE
  5
1B6
  8
0
  6
CONTINU
 66
     1
 10
0.0
 20
0.0
 30
0.0
  0
VERTEX
  5
933
  8
0
  6
CONTINU
 10
-57.6975347337711
 20
-9.20098682576784
 30
0.0
  0
VERTEX
  5
934
  8
0
  6
CONTINU
 10
-57.69649093389983
 20
-9.202213376093086
 30
0.0
  0
VERTEX
  5
935
  8
0
  6
CONTINU
 10
-57.69518401559699
 20
-9.203193710487543
 30
0.0
  0
VERTEX
  5
936
  8
0
  6
CONTINU
 10
-57.69369102733027
 20
-9.203862152200568
 30
0.0
  0
SEQEND
  5
D17
  8
0
  6
CONTINU
  0
POLYLINE
  5
1BE
  8
0
  6
CONTINU
 66
     1
 10
0.0
 20
0.0
 30
0.0
  0
VERTEX
  5
937
  8
0
  6
CONTINU
 10
-57.71810224625439
 20
-9.218840219166111
 30
0.0
  0
VERTEX
  5
938
  8
0
  6
CONTINU
 10
-57.7202715151391
 20
-9.216500857904029
 30
0.0
  0
VERTEX
  5
939
  8
0
  6
CONTINU
 10
-57.72305371628354
 20
-9.215351560614248
 30
0.0
  0
VERTEX
  5
93A
  8
0
  6
CONTINU
 10
-57.72606403694573
 20
-9.215418531728563
 30
0.0
  0
SEQEND
  5
D18
  8
0
  6
CONTINU
  0
POLYLINE
  5
1C6
  8
0
  6
CONTINU
 66
     1
 10
0.0
 20
0.0
 30
0.0
  0
VERTEX
  5
93B
  8
0
  6
CONTINU
 10
-57.69851923266759
 20
-9.219870739316626
 30
0.0
 42
-0.0715749249069099
  0
VERTEX
  5
93C
  8
0
  6
CONTINU
 10
-57.69978731830182
 20
-9.221068624503925
 30
0.0
  0
SEQEND
  5
D19
  8
0
  6
CONTINU
  0
POLYLINE
  5
1CC
  8
0
  6
CONTINU
 66
     1
 10
0.0
 20
0.0
 30
0.0
  0
VERTEX
  5
93D
  8
0
  6
CONTINU
 10
-57.69770073467456
 20
-9.218684881768548
 30
0.0
  0
VERTEX
  5
93E
  8
0
  6
CONTINU
 10
-57.69556812913579
 20
-9.216461290175667
 30
0.0
  0
VERTEX
  5
93F
  8
0
  6
CONTINU
 10
-57.69270175468612
 20
-9.215326384817894
 30
0.0
  0
VERTEX
  5
940
  8
0
  6
CONTINU
 10
-57.6896220156985
 20
-9.215464936857199
 30
0.0
  0
SEQEND
  5
D1A
  8
0
  6
CONTINU
  0
POLYLINE
  5
1DF
  8
0
  6
CONTINU
 66
     1
 10
0.0
 20
0.0
 30
0.0
  0
VERTEX
  5
941
  8
0
  6
CONTINU
 10
-57.73299475395071
 20
-9.202045450797346
 30
0.0
  0
VERTEX
  5
942
  8
0
  6
CONTINU
 10
-57.73543025789031
 20
-9.201741246993137
 30
0.0
  0
VERTEX
  5
943
  8
0
  6
CONTINU
 10
-57.73784473194983
 20
-9.202185905476057
 30
0.0
  0
VERTEX
  5
944
  8
0
  6
CONTINU
 10
-57.74001190322502
 20
-9.203339136904212
 30
0.0
  0
SEQEND
  5
D1B
  8
0
  6
CONTINU
  0
POLYLINE
  5
1E5
  8
0
  6
CONTINU
 66
     1
 10
0.0
 20
0.0
 30
0.0
  0
VERTEX
  5
945
  8
0
  6
CONTINU
 10
-57.71593496740948
 20
-9.190457483752871
 30
0.0
  0
VERTEX
  5
946
  8
0
  6
CONTINU
 10
-57.71548116662095
 20
-9.187801370146593
 30
0.0
  0
VERTEX
  5
947
  8
0
  6
CONTINU
 10
-57.71417385389581
 20
-9.185442579454149
 30
0.0
  0
VERTEX
  5
948
  8
0
  6
CONTINU
 10
-57.71215236787693
 20
-9.183655720570863
 30
0.0
  0
SEQEND
  5
D1C
  8
0
  6
CONTINU
  0
POLYLINE
  5
1EB
  8
0
  6
CONTINU
 66
     1
 10
0.0
 20
0.0
 30
0.0
  0
VERTEX
  5
949
  8
0
  6
CONTINU
 10
-57.69996464698384
 20
-9.190457483752871
 30
0.0
  0
VERTEX
  5
94A
  8
0
  6
CONTINU
 10
-57.70041844777236
 20
-9.187801370146593
 30
0.0
  0
VERTEX
  5
94B
  8
0
  6
CONTINU
 10
-57.70172576049751
 20
-9.185442579454149
 30
0.0
  0
VERTEX
  5
94C
  8
0
  6
CONTINU
 10
-57.70368336803151
 20
-9.18369237187124
 30
0.0
  0
SEQEND
  5
D1D
  8
0
  6
CONTINU
  0
POLYLINE
  5
1F2
  8
0
  6
CONTINU
 66
     1
 10
0.0
 20
0.0
 30
0.0
  0
VERTEX
  5
94D
  8
0
  6
CONTINU
 10
-57.68290518315177
 20
-9.202046764044335
 30
0.0
  0
VERTEX
  5
94E
  8
0
  6
CONTINU
 10
-57.680469356503
 20
-9.201741246993137
 30
0.0
  0
VERTEX
  5
94F
  8
0
  6
CONTINU
 10
-57.67805488244349
 20
-9.202185908837611
 30
0.0
  0
VERTEX
  5
950
  8
0
  6
CONTINU
 10
-57.6758877111683
 20
-9.203339139145248
 30
0.0
  0
SEQEND
  5
D1E
  8
0
  6
CONTINU
  0
POLYLINE
  5
1F8
  8
0
  6
CONTINU
 66
     1
 10
0.0
 20
0.0
 30
0.0
  0
VERTEX
  5
951
  8
0
  6
CONTINU
 10
-57.69996464698384
 20
-9.228982855933182
 30
0.0
 42
0.1006198998169926
  0
VERTEX
  5
952
  8
0
  6
CONTINU
 10
-57.70059970274914
 20
-9.225863455093702
 30
0.0
  0
SEQEND
  5
D1F
  8
0
  6
CONTINU
  0
POLYLINE
  5
1FE
  8
0
  6
CONTINU
 66
     1
 10
0.0
 20
0.0
 30
0.0
  0
VERTEX
  5
953
  8
0
  6
CONTINU
 10
-57.71593496740948
 20
-9.228982855933182
 30
0.0
 42
-0.1006099915506647
  0
VERTEX
  5
954
  8
0
  6
CONTINU
 10
-57.71529991164418
 20
-9.225863459575773
 30
0.0
  0
SEQEND
  5
D20
  8
0
  6
CONTINU
  0
POLYLINE
  5
204
  8
0
  6
CONTINU
 66
     1
 10
0.0
 20
0.0
 30
0.0
  0
VERTEX
  5
955
  8
0
  6
CONTINU
 10
-57.73299475395071
 20
-9.217398928355765
 30
0.0
  0
VERTEX
  5
956
  8
0
  6
CONTINU
 10
-57.73543025789031
 20
-9.21770312879842
 30
0.0
  0
VERTEX
  5
957
  8
0
  6
CONTINU
 10
-57.73784473194983
 20
-9.217258466953945
 30
0.0
  0
VERTEX
  5
958
  8
0
  6
CONTINU
 10
-57.74001107852384
 20
-9.216106128578563
 30
0.0
  0
SEQEND
  5
D21
  8
0
  6
CONTINU
  0
POLYLINE
  5
20A
  8
0
  6
CONTINU
 66
     1
 10
0.0
 20
0.0
 30
0.0
  0
VERTEX
  5
959
  8
0
  6
CONTINU
 10
-57.74001190322502
 20
-9.203339136904212
 30
0.0
  0
VERTEX
  5
95A
  8
0
  6
CONTINU
 10
-57.74167659841376
 20
-9.205041101639084
 30
0.0
  0
VERTEX
  5
95B
  8
0
  6
CONTINU
 10
-57.74276947090377
 20
-9.207157932526744
 30
0.0
  0
VERTEX
  5
95C
  8
0
  6
CONTINU
 10
-57.74319349280838
 20
-9.209501733280778
 30
0.0
  0
SEQEND
  5
D22
  8
0
  6
CONTINU
  0
POLYLINE
  5
210
  8
0
  6
CONTINU
 66
     1
 10
0.0
 20
0.0
 30
0.0
  0
VERTEX
  5
95D
  8
0
  6
CONTINU
 10
-57.69996464698384
 20
-9.190457483752871
 30
0.0
 42
-0.1007480471122307
  0
VERTEX
  5
95E
  8
0
  6
CONTINU
 10
-57.70059970274914
 20
-9.193580926300443
 30
0.0
  0
SEQEND
  5
D23
  8
0
  6
CONTINU
  0
POLYLINE
  5
216
  8
0
  6
CONTINU
 66
     1
 10
0.0
 20
0.0
 30
0.0
  0
VERTEX
  5
95F
  8
0
  6
CONTINU
 10
-57.71593496740948
 20
-9.190457483752871
 30
0.0
 42
0.1007370861829994
  0
VERTEX
  5
960
  8
0
  6
CONTINU
 10
-57.71529991164418
 20
-9.193580926300443
 30
0.0
  0
SEQEND
  5
D24
  8
0
  6
CONTINU
  0
POLYLINE
  5
21C
  8
0
  6
CONTINU
 66
     1
 10
0.0
 20
0.0
 30
0.0
  0
VERTEX
  5
961
  8
0
  6
CONTINU
 10
-57.70794979823252
 20
-9.182459590534801
 30
0.0
  0
VERTEX
  5
962
  8
0
  6
CONTINU
 10
-57.70941762290692
 20
-9.182595078517886
 30
0.0
  0
VERTEX
  5
963
  8
0
  6
CONTINU
 10
-57.71083560694478
 20
-9.182997625136535
 30
0.0
  0
VERTEX
  5
964
  8
0
  6
CONTINU
 10
-57.71215236787693
 20
-9.183655720570863
 30
0.0
  0
SEQEND
  5
D25
  8
0
  6
CONTINU
  0
POLYLINE
  5
222
  8
0
  6
CONTINU
 66
     1
 10
0.0
 20
0.0
 30
0.0
  0
VERTEX
  5
965
  8
0
  6
CONTINU
 10
-57.70794979823252
 20
-9.182459590534801
 30
0.0
  0
VERTEX
  5
966
  8
0
  6
CONTINU
 10
-57.70648204527126
 20
-9.18259507123452
 30
0.0
  0
VERTEX
  5
967
  8
0
  6
CONTINU
 10
-57.70506402537682
 20
-9.182997618133298
 30
0.0
  0
VERTEX
  5
968
  8
0
  6
CONTINU
 10
-57.70368336803151
 20
-9.18369237187124
 30
0.0
  0
SEQEND
  5
D26
  8
0
  6
CONTINU
  0
POLYLINE
  5
228
  8
0
  6
CONTINU
 66
     1
 10
0.0
 20
0.0
 30
0.0
  0
VERTEX
  5
969
  8
0
  6
CONTINU
 10
-57.68290486044262
 20
-9.217398921632658
 30
0.0
  0
VERTEX
  5
96A
  8
0
  6
CONTINU
 10
-57.680469356503
 20
-9.21770312879842
 30
0.0
  0
VERTEX
  5
96B
  8
0
  6
CONTINU
 10
-57.67805488244349
 20
-9.21725846919498
 30
0.0
  0
VERTEX
  5
96C
  8
0
  6
CONTINU
 10
-57.6758877111683
 20
-9.216105238887344
 30
0.0
  0
SEQEND
  5
D27
  8
0
  6
CONTINU
  0
POLYLINE
  5
22E
  8
0
  6
CONTINU
 66
     1
 10
0.0
 20
0.0
 30
0.0
  0
VERTEX
  5
96D
  8
0
  6
CONTINU
 10
-57.6758877111683
 20
-9.203339139145248
 30
0.0
  0
VERTEX
  5
96E
  8
0
  6
CONTINU
 10
-57.67422301597956
 20
-9.205041106121156
 30
0.0
  0
VERTEX
  5
96F
  8
0
  6
CONTINU
 10
-57.67313014348955
 20
-9.207157941490888
 30
0.0
  0
VERTEX
  5
970
  8
0
  6
CONTINU
 10
-57.67270612158494
 20
-9.209501744485957
 30
0.0
  0
SEQEND
  5
D28
  8
0
  6
CONTINU
  0
POLYLINE
  5
234
  8
0
  6
CONTINU
 66
     1
 10
0.0
 20
0.0
 30
0.0
  0
VERTEX
  5
971
  8
0
  6
CONTINU
 10
-57.71593496740948
 20
-9.228982855933182
 30
0.0
  0
VERTEX
  5
972
  8
0
  6
CONTINU
 10
-57.71548206303528
 20
-9.231640473414556
 30
0.0
  0
VERTEX
  5
973
  8
0
  6
CONTINU
 10
-57.71417469652528
 20
-9.234000750263908
 30
0.0
  0
VERTEX
  5
974
  8
0
  6
CONTINU
 10
-57.71215530811592
 20
-9.235790078418502
 30
0.0
  0
SEQEND
  5
D29
  8
0
  6
CONTINU
  0
POLYLINE
  5
23A
  8
0
  6
CONTINU
 66
     1
 10
0.0
 20
0.0
 30
0.0
  0
VERTEX
  5
975
  8
0
  6
CONTINU
 10
-57.69996464698384
 20
-9.228982855933182
 30
0.0
  0
VERTEX
  5
976
  8
0
  6
CONTINU
 10
-57.70039107127884
 20
-9.23156368656337
 30
0.0
  0
VERTEX
  5
977
  8
0
  6
CONTINU
 10
-57.70162471667465
 20
-9.233873002258271
 30
0.0
  0
VERTEX
  5
978
  8
0
  6
CONTINU
 10
-57.70354137600222
 20
-9.235657471847215
 30
0.0
  0
SEQEND
  5
D2A
  8
0
  6
CONTINU
  0
POLYLINE
  5
240
  8
0
  6
CONTINU
 66
     1
 10
0.0
 20
0.0
 30
0.0
  0
VERTEX
  5
979
  8
0
  6
CONTINU
 10
-57.74001107852384
 20
-9.216106128578563
 30
0.0
  0
VERTEX
  5
97A
  8
0
  6
CONTINU
 10
-57.74167659841376
 20
-9.21440327527299
 30
0.0
  0
VERTEX
  5
97B
  8
0
  6
CONTINU
 10
-57.74276947090377
 20
-9.212286444385331
 30
0.0
  0
VERTEX
  5
97C
  8
0
  6
CONTINU
 10
-57.74319349280838
 20
-9.209942645872333
 30
0.0
  0
SEQEND
  5
D2B
  8
0
  6
CONTINU
  0
POLYLINE
  5
246
  8
0
  6
CONTINU
 66
     1
 10
0.0
 20
0.0
 30
0.0
  0
VERTEX
  5
97D
  8
0
  6
CONTINU
 10
-57.6758877111683
 20
-9.216105238887344
 30
0.0
  0
VERTEX
  5
97E
  8
0
  6
CONTINU
 10
-57.67422301597956
 20
-9.21440327527299
 30
0.0
  0
VERTEX
  5
97F
  8
0
  6
CONTINU
 10
-57.67313014348955
 20
-9.212286446626367
 30
0.0
  0
VERTEX
  5
980
  8
0
  6
CONTINU
 10
-57.67270612158494
 20
-9.209942648113369
 30
0.0
  0
SEQEND
  5
D2C
  8
0
  6
CONTINU
  0
POLYLINE
  5
24C
  8
0
  6
CONTINU
 66
     1
 10
0.0
 20
0.0
 30
0.0
  0
VERTEX
  5
981
  8
0
  6
CONTINU
 10
-57.70794988787395
 20
-9.236984783575979
 30
0.0
  0
VERTEX
  5
982
  8
0
  6
CONTINU
 10
-57.70941762290692
 20
-9.236849295032634
 30
0.0
  0
VERTEX
  5
983
  8
0
  6
CONTINU
 10
-57.71083560694478
 20
-9.236446751215281
 30
0.0
  0
VERTEX
  5
984
  8
0
  6
CONTINU
 10
-57.71215530811592
 20
-9.235790078418502
 30
0.0
  0
SEQEND
  5
D2D
  8
0
  6
CONTINU
  0
POLYLINE
  5
252
  8
0
  6
CONTINU
 66
     1
 10
0.0
 20
0.0
 30
0.0
  0
VERTEX
  5
985
  8
0
  6
CONTINU
 10
-57.70794988787395
 20
-9.236984783575979
 30
0.0
  0
VERTEX
  5
986
  8
0
  6
CONTINU
 10
-57.70648204527126
 20
-9.236849303996777
 30
0.0
  0
VERTEX
  5
987
  8
0
  6
CONTINU
 10
-57.70506402537682
 20
-9.236446755697353
 30
0.0
  0
VERTEX
  5
988
  8
0
  6
CONTINU
 10
-57.7037443062774
 20
-9.235790078418502
 30
0.0
  0
SEQEND
  5
D2E
  8
0
  6
CONTINU
  0
POLYLINE
  5
258
  8
0
  6
CONTINU
 66
     1
 10
0.0
 20
0.0
 30
0.0
  0
VERTEX
  5
989
  8
0
  6
CONTINU
 10
-57.71645887988655
 20
-9.201020146622753
 30
0.0
  0
VERTEX
  5
98A
  8
0
  6
CONTINU
 10
-57.71722306101147
 20
-9.203250270869978
 30
0.0
  0
VERTEX
  5
98B
  8
0
  6
CONTINU
 10
-57.71677096341016
 20
-9.20553137304448
 30
0.0
  0
VERTEX
  5
98C
  8
0
  6
CONTINU
 10
-57.71530591762017
 20
-9.207326359814507
 30
0.0
  0
SEQEND
  5
D2F
  8
0
  6
CONTINU
  0
POLYLINE
  5
25E
  8
0
  6
CONTINU
 66
     1
 10
0.0
 20
0.0
 30
0.0
  0
VERTEX
  5
98D
  8
0
  6
CONTINU
 10
-57.70059193980107
 20
-9.207323061009786
 30
0.0
  0
VERTEX
  5
98E
  8
0
  6
CONTINU
 10
-57.69912687608279
 20
-9.205537231112102
 30
0.0
  0
VERTEX
  5
98F
  8
0
  6
CONTINU
 10
-57.69867666095157
 20
-9.203260153837924
 30
0.0
  0
VERTEX
  5
990
  8
0
  6
CONTINU
 10
-57.69943967074502
 20
-9.201032102134723
 30
0.0
  0
SEQEND
  5
D30
  8
0
  6
CONTINU
  0
POLYLINE
  5
266
  8
0
  6
CONTINU
 66
     1
 10
0.0
 20
0.0
 30
0.0
  0
VERTEX
  5
991
  8
0
  6
CONTINU
 10
-57.71348736187647
 20
-9.20861276367549
 30
0.0
  0
VERTEX
  5
992
  8
0
  6
CONTINU
 10
-57.71082151531158
 20
-9.209680774114164
 30
0.0
  0
VERTEX
  5
993
  8
0
  6
CONTINU
 10
-57.70795040779426
 20
-9.209963552495458
 30
0.0
  0
VERTEX
  5
994
  8
0
  6
CONTINU
 10
-57.70507940784666
 20
-9.209677661315416
 30
0.0
  0
VERTEX
  5
995
  8
0
  6
CONTINU
 10
-57.70241212701885
 20
-9.208612873486244
 30
0.0
  0
SEQEND
  5
D31
  8
0
  6
CONTINU
  0
POLYLINE
  5
26F
  8
0
  6
CONTINU
 66
     1
 10
0.0
 20
0.0
 30
0.0
  0
VERTEX
  5
996
  8
0
  6
CONTINU
 10
-57.71685816659582
 20
-9.209484761916546
 30
0.0
 42
-0.0679497226613609
  0
VERTEX
  5
997
  8
0
  6
CONTINU
 10
-57.71823118649108
 20
-9.208224665575003
 30
0.0
  0
SEQEND
  5
D32
  8
0
  6
CONTINU
  0
POLYLINE
  5
275
  8
0
  6
CONTINU
 66
     1
 10
0.0
 20
0.0
 30
0.0
  0
VERTEX
  5
998
  8
0
  6
CONTINU
 10
-57.71899360480386
 20
-9.203967710473417
 30
0.0
 42
0.0817084890358829
  0
VERTEX
  5
999
  8
0
  6
CONTINU
 10
-57.71823118649108
 20
-9.208224665575003
 30
0.0
  0
SEQEND
  5
D33
  8
0
  6
CONTINU
  0
POLYLINE
  5
27B
  8
0
  6
CONTINU
 66
     1
 10
0.0
 20
0.0
 30
0.0
  0
VERTEX
  5
99A
  8
0
  6
CONTINU
 10
-57.71874888369278
 20
-9.201893005456503
 30
0.0
 42
0.0643490617713041
  0
VERTEX
  5
99B
  8
0
  6
CONTINU
 10
-57.71899360480386
 20
-9.203967710473417
 30
0.0
  0
SEQEND
  5
D34
  8
0
  6
CONTINU
  0
POLYLINE
  5
281
  8
0
  6
CONTINU
 66
     1
 10
0.0
 20
0.0
 30
0.0
  0
VERTEX
  5
99C
  8
0
  6
CONTINU
 10
-57.71838306479987
 20
-9.201007768709141
 30
0.0
 42
0.0782623143871125
  0
VERTEX
  5
99D
  8
0
  6
CONTINU
 10
-57.71874888369278
 20
-9.201893005456503
 30
0.0
  0
SEQEND
  5
D35
  8
0
  6
CONTINU
  0
POLYLINE
  5
287
  8
0
  6
CONTINU
 66
     1
 10
0.0
 20
0.0
 30
0.0
  0
VERTEX
  5
99E
  8
0
  6
CONTINU
 10
-57.69766213507367
 20
-9.20822030227827
 30
0.0
 42
-0.0677681875604364
  0
VERTEX
  5
99F
  8
0
  6
CONTINU
 10
-57.6990414477975
 20
-9.209484752952402
 30
0.0
  0
SEQEND
  5
D36
  8
0
  6
CONTINU
  0
POLYLINE
  5
28D
  8
0
  6
CONTINU
 66
     1
 10
0.0
 20
0.0
 30
0.0
  0
VERTEX
  5
9A0
  8
0
  6
CONTINU
 10
-57.69715329444551
 20
-9.206348028906067
 30
0.0
 42
0.0492840210931082
  0
VERTEX
  5
9A1
  8
0
  6
CONTINU
 10
-57.69690961317505
 20
-9.203975530567895
 30
0.0
  0
SEQEND
  5
D37
  8
0
  6
CONTINU
  0
POLYLINE
  5
293
  8
0
  6
CONTINU
 66
     1
 10
0.0
 20
0.0
 30
0.0
  0
VERTEX
  5
9A2
  8
0
  6
CONTINU
 10
-57.69766213507367
 20
-9.20822030227827
 30
0.0
 42
0.0338693931327539
  0
VERTEX
  5
9A3
  8
0
  6
CONTINU
 10
-57.69715329444551
 20
-9.206348028906067
 30
0.0
  0
SEQEND
  5
D38
  8
0
  6
CONTINU
  0
POLYLINE
  5
29B
  8
0
  6
CONTINU
 66
     1
 10
0.0
 20
0.0
 30
0.0
  0
VERTEX
  5
9A4
  8
0
  6
CONTINU
 10
-57.71318693757916
 20
-9.211791074623456
 30
0.0
 42
-0.057169398311113
  0
VERTEX
  5
9A5
  8
0
  6
CONTINU
 10
-57.71515475489557
 20
-9.210689595186878
 30
0.0
  0
SEQEND
  5
D39
  8
0
  6
CONTINU
  0
POLYLINE
  5
2A1
  8
0
  6
CONTINU
 66
     1
 10
0.0
 20
0.0
 30
0.0
  0
VERTEX
  5
9A6
  8
0
  6
CONTINU
 10
-57.70074017408535
 20
-9.210686282118763
 30
0.0
 42
-0.05736103633879
  0
VERTEX
  5
9A7
  8
0
  6
CONTINU
 10
-57.70270711904534
 20
-9.211787092302812
 30
0.0
  0
SEQEND
  5
D3A
  8
0
  6
CONTINU
  0
POLYLINE
  5
2A7
  8
0
  6
CONTINU
 66
     1
 10
0.0
 20
0.0
 30
0.0
  0
VERTEX
  5
9A8
  8
0
  6
CONTINU
 10
-57.70811782045058
 20
-9.21178143913913
 30
0.0
 42
-0.0140063757901738
  0
VERTEX
  5
9A9
  8
0
  6
CONTINU
 10
-57.70270711904534
 20
-9.211787092302812
 30
0.0
  0
SEQEND
  5
D3B
  8
0
  6
CONTINU
  0
POLYLINE
  5
2AE
  8
0
  6
CONTINU
 66
     1
 10
0.0
 20
0.0
 30
0.0
  0
VERTEX
  5
9AA
  8
0
  6
CONTINU
 10
-57.71318693757916
 20
-9.211791074623456
 30
0.0
  0
VERTEX
  5
9AB
  8
0
  6
CONTINU
 10
-57.7110990272587
 20
-9.211757028807344
 30
0.0
  0
SEQEND
  5
D3C
  8
0
  6
CONTINU
  0
POLYLINE
  5
2B7
  8
0
  6
CONTINU
 66
     1
 10
0.0
 20
0.0
 30
0.0
  0
VERTEX
  5
9AC
  8
0
  6
CONTINU
 10
-57.72221078203597
 20
-9.203861234379742
 30
0.0
  0
VERTEX
  5
9AD
  8
0
  6
CONTINU
 10
-57.72366021228841
 20
-9.204170536540433
 30
0.0
  0
VERTEX
  5
9AE
  8
0
  6
CONTINU
 10
-57.72513339752048
 20
-9.20418589772043
 30
0.0
  0
VERTEX
  5
9AF
  8
0
  6
CONTINU
 10
-57.72648260865123
 20
-9.20392341191845
 30
0.0
  0
SEQEND
  5
D3D
  8
0
  6
CONTINU
  0
POLYLINE
  5
2BE
  8
0
  6
CONTINU
 66
     1
 10
0.0
 20
0.0
 30
0.0
  0
VERTEX
  5
9B0
  8
0
  6
CONTINU
 10
-57.69690961317505
 20
-9.203975530567895
 30
0.0
 42
0.0603369285595176
  0
VERTEX
  5
9B1
  8
0
  6
CONTINU
 10
-57.69714947572048
 20
-9.201920033468959
 30
0.0
  0
VERTEX
  5
9B2
  8
0
  6
CONTINU
 10
-57.6975347337711
 20
-9.20098682576784
 30
0.0
  0
SEQEND
  5
D3E
  8
0
  6
CONTINU
  0
POLYLINE
  5
2C4
  8
0
  6
CONTINU
 66
     1
 10
0.0
 20
0.0
 30
0.0
  0
VERTEX
  5
9B3
  8
0
  6
CONTINU
 10
-57.6894196412002
 20
-9.203924176111661
 30
0.0
  0
VERTEX
  5
9B4
  8
0
  6
CONTINU
 10
-57.69076991009987
 20
-9.204186728024201
 30
0.0
  0
VERTEX
  5
9B5
  8
0
  6
CONTINU
 10
-57.69224329254309
 20
-9.204171230141018
 30
0.0
  0
VERTEX
  5
9B6
  8
0
  6
CONTINU
 10
-57.69369102733027
 20
-9.203862152200568
 30
0.0
  0
SEQEND
  5
D3F
  8
0
  6
CONTINU
  0
POLYLINE
  5
2CA
  8
0
  6
CONTINU
 66
     1
 10
0.0
 20
0.0
 30
0.0
  0
VERTEX
  5
9B7
  8
0
  6
CONTINU
 10
-57.7157575849426
 20
-9.216880514022597
 30
0.0
  0
VERTEX
  5
9B8
  8
0
  6
CONTINU
 10
-57.71461639572041
 20
-9.217786735121594
 30
0.0
  0
VERTEX
  5
9B9
  8
0
  6
CONTINU
 10
-57.71375630410263
 20
-9.218922514483335
 30
0.0
  0
VERTEX
  5
9BA
  8
0
  6
CONTINU
 10
-57.71329287582424
 20
-9.220260917098349
 30
0.0
  0
SEQEND
  5
D40
  8
0
  6
CONTINU
  0
POLYLINE
  5
2D0
  8
0
  6
CONTINU
 66
     1
 10
0.0
 20
0.0
 30
0.0
  0
VERTEX
  5
9BB
  8
0
  6
CONTINU
 10
-57.70014021869378
 20
-9.216879265765648
 30
0.0
  0
VERTEX
  5
9BC
  8
0
  6
CONTINU
 10
-57.70130050154113
 20
-9.217804006784625
 30
0.0
  0
VERTEX
  5
9BD
  8
0
  6
CONTINU
 10
-57.70215442582833
 20
-9.218942795857467
 30
0.0
  0
VERTEX
  5
9BE
  8
0
  6
CONTINU
 10
-57.70260727641767
 20
-9.220263980594309
 30
0.0
  0
SEQEND
  5
D41
  8
0
  6
CONTINU
  0
POLYLINE
  5
2EA
  8
0
  6
CONTINU
 66
     1
 10
0.0
 20
0.0
 30
0.0
  0
VERTEX
  5
9BF
  8
0
  6
CONTINU
 10
-57.69217943198649
 20
-9.242879523508229
 30
0.0
 42
0.0590646967481169
  0
VERTEX
  5
9C0
  8
0
  6
CONTINU
 10
-57.69197049573532
 20
-9.240923274041943
 30
0.0
  0
SEQEND
  5
D42
  8
0
  6
CONTINU
  0
POLYLINE
  5
2F0
  8
0
  6
CONTINU
 66
     1
 10
0.0
 20
0.0
 30
0.0
  0
VERTEX
  5
9C1
  8
0
  6
CONTINU
 10
-57.70229738598508
 20
-9.251626815181247
 30
0.0
 42
0.0647911568588648
  0
VERTEX
  5
9C2
  8
0
  6
CONTINU
 10
-57.69783404941316
 20
-9.249670005456005
 30
0.0
  0
SEQEND
  5
D43
  8
0
  6
CONTINU
  0
POLYLINE
  5
2F6
  8
0
  6
CONTINU
 66
     1
 10
0.0
 20
0.0
 30
0.0
  0
VERTEX
  5
9C3
  8
0
  6
CONTINU
 10
-57.71806552912359
 20
-9.24980497856111
 30
0.0
 42
0.0664986192205153
  0
VERTEX
  5
9C4
  8
0
  6
CONTINU
 10
-57.71360219255166
 20
-9.251626819663318
 30
0.0
  0
SEQEND
  5
D44
  8
0
  6
CONTINU
  0
POLYLINE
  5
302
  8
0
  6
CONTINU
 66
     1
 10
0.0
 20
0.0
 30
0.0
  0
VERTEX
  5
9C5
  8
0
  6
CONTINU
 10
-57.69308798376274
 20
-9.23488184486934
 30
0.0
  0
VERTEX
  5
9C6
  8
0
  6
CONTINU
 10
-57.69379231442717
 20
-9.233304012228816
 30
0.0
  0
SEQEND
  5
D45
  8
0
  6
CONTINU
  0
POLYLINE
  5
308
  8
0
  6
CONTINU
 66
     1
 10
0.0
 20
0.0
 30
0.0
  0
VERTEX
  5
9C7
  8
0
  6
CONTINU
 10
-57.69238016913405
 20
-9.237291439312365
 30
0.0
 42
0.029574157367544
  0
VERTEX
  5
9C8
  8
0
  6
CONTINU
 10
-57.69284225866762
 20
-9.235568829916563
 30
0.0
  0
SEQEND
  5
D46
  8
0
  6
CONTINU
  0
POLYLINE
  5
30E
  8
0
  6
CONTINU
 66
     1
 10
0.0
 20
0.0
 30
0.0
  0
VERTEX
  5
9C9
  8
0
  6
CONTINU
 10
-57.69197049573532
 20
-9.240923274041943
 30
0.0
 42
0.0426201244118165
  0
VERTEX
  5
9CA
  8
0
  6
CONTINU
 10
-57.69208699374116
 20
-9.239561338309828
 30
0.0
  0
SEQEND
  5
D47
  8
0
  6
CONTINU
  0
POLYLINE
  5
31A
  8
0
  6
CONTINU
 66
     1
 10
0.0
 20
0.0
 30
0.0
  0
VERTEX
  5
9CB
  8
0
  6
CONTINU
 10
-57.69783404941316
 20
-9.249670005456005
 30
0.0
 42
-0.1471001537236925
  0
VERTEX
  5
9CC
  8
0
  6
CONTINU
 10
-57.69500830046076
 20
-9.241974723225939
 30
0.0
 42
-0.0995052460833173
  0
VERTEX
  5
9CD
  8
0
  6
CONTINU
 10
-57.69379231442717
 20
-9.240897237687836
 30
0.0
 42
-0.1948183100309868
  0
VERTEX
  5
9CE
  8
0
  6
CONTINU
 10
-57.69300232240972
 20
-9.24076847225194
 30
0.0
  0
VERTEX
  5
9CF
  8
0
  6
CONTINU
 10
-57.69248005349495
 20
-9.241217638578403
 30
0.0
  0
VERTEX
  5
9D0
  8
0
  6
CONTINU
 10
-57.69225240011265
 20
-9.241865988168163
 30
0.0
  0
VERTEX
  5
9D1
  8
0
  6
CONTINU
 10
-57.69217943198649
 20
-9.242879523508229
 30
0.0
  0
SEQEND
  5
D48
  8
0
  6
CONTINU
  0
POLYLINE
  5
338
  8
0
  6
CONTINU
 66
     1
 10
0.0
 20
0.0
 30
0.0
  0
VERTEX
  5
9D2
  8
0
  6
CONTINU
 10
-57.70229738598508
 20
-9.251626815181247
 30
0.0
  0
VERTEX
  5
9D3
  8
0
  6
CONTINU
 10
-57.70191406129089
 20
-9.251589770859214
 30
0.0
  0
VERTEX
  5
9D4
  8
0
  6
CONTINU
 10
-57.70125358321529
 20
-9.251321079629058
 30
0.0
 42
-0.0447855326514475
  0
VERTEX
  5
9D5
  8
0
  6
CONTINU
 10
-57.698705095214
 20
-9.250151124471127
 30
0.0
  0
VERTEX
  5
9D6
  8
0
  6
CONTINU
 10
-57.69783404941316
 20
-9.249670005456005
 30
0.0
  0
SEQEND
  5
D49
  8
0
  6
CONTINU
  0
POLYLINE
  5
341
  8
0
  6
CONTINU
 66
     1
 10
0.0
 20
0.0
 30
0.0
  0
VERTEX
  5
9D7
  8
0
  6
CONTINU
 10
-57.71360219255166
 20
-9.251626819663318
 30
0.0
  0
VERTEX
  5
9D8
  8
0
  6
CONTINU
 10
-57.71339626825263
 20
-9.250340572674842
 30
0.0
  0
VERTEX
  5
9D9
  8
0
  6
CONTINU
 10
-57.71276472643149
 20
-9.24928015038344
 30
0.0
  0
VERTEX
  5
9DA
  8
0
  6
CONTINU
 10
-57.7117873121067
 20
-9.248383780877887
 30
0.0
 42
-0.1492676568812991
  0
VERTEX
  5
9DB
  8
0
  6
CONTINU
 10
-57.70794978030423
 20
-9.247256737073757
 30
0.0
 42
-0.1492670409109081
  0
VERTEX
  5
9DC
  8
0
  6
CONTINU
 10
-57.70411226643005
 20
-9.248383780877887
 30
0.0
  0
VERTEX
  5
9DD
  8
0
  6
CONTINU
 10
-57.70313485210526
 20
-9.24928015038344
 30
0.0
  0
VERTEX
  5
9DE
  8
0
  6
CONTINU
 10
-57.70250331028411
 20
-9.25034056819277
 30
0.0
  0
VERTEX
  5
9DF
  8
0
  6
CONTINU
 10
-57.70229738598508
 20
-9.251626815181247
 30
0.0
  0
SEQEND
  5
D4A
  8
0
  6
CONTINU
  0
POLYLINE
  5
35C
  8
0
  6
CONTINU
 66
     1
 10
0.0
 20
0.0
 30
0.0
  0
VERTEX
  5
9E0
  8
0
  6
CONTINU
 10
-57.71806552912359
 20
-9.24980497856111
 30
0.0
 42
-0.0386553566554742
  0
VERTEX
  5
9E1
  8
0
  6
CONTINU
 10
-57.71464599532145
 20
-9.251321079629058
 30
0.0
  0
VERTEX
  5
9E2
  8
0
  6
CONTINU
 10
-57.71398551724586
 20
-9.251589770859214
 30
0.0
  0
VERTEX
  5
9E3
  8
0
  6
CONTINU
 10
-57.71360219255166
 20
-9.251626819663318
 30
0.0
  0
SEQEND
  5
D4B
  8
0
  6
CONTINU
  0
POLYLINE
  5
365
  8
0
  6
CONTINU
 66
     1
 10
0.0
 20
0.0
 30
0.0
  0
VERTEX
  5
9E4
  8
0
  6
CONTINU
 10
-57.72372014655026
 20
-9.242879523508229
 30
0.0
  0
VERTEX
  5
9E5
  8
0
  6
CONTINU
 10
-57.7236471784241
 20
-9.24186597920402
 30
0.0
  0
VERTEX
  5
9E6
  8
0
  6
CONTINU
 10
-57.7234195250418
 20
-9.241217634096332
 30
0.0
  0
VERTEX
  5
9E7
  8
0
  6
CONTINU
 10
-57.72305731986913
 20
-9.240834896553515
 30
0.0
 42
-0.1948183100309981
  0
VERTEX
  5
9E8
  8
0
  6
CONTINU
 10
-57.72210726410957
 20
-9.240897237687836
 30
0.0
 42
-0.0995052460833219
  0
VERTEX
  5
9E9
  8
0
  6
CONTINU
 10
-57.720891278076
 20
-9.241974723225939
 30
0.0
 42
-0.1503632997774756
  0
VERTEX
  5
9EA
  8
0
  6
CONTINU
 10
-57.71806552912359
 20
-9.24980497856111
 30
0.0
  0
SEQEND
  5
D4C
  8
0
  6
CONTINU
  0
POLYLINE
  5
383
  8
0
  6
CONTINU
 66
     1
 10
0.0
 20
0.0
 30
0.0
  0
VERTEX
  5
9EB
  8
0
  6
CONTINU
 10
-57.72392908280143
 20
-9.240923274041943
 30
0.0
 42
0.0632020251329839
  0
VERTEX
  5
9EC
  8
0
  6
CONTINU
 10
-57.72372014655026
 20
-9.242879523508229
 30
0.0
  0
SEQEND
  5
D4D
  8
0
  6
CONTINU
  0
POLYLINE
  5
389
  8
0
  6
CONTINU
 66
     1
 10
0.0
 20
0.0
 30
0.0
  0
VERTEX
  5
9ED
  8
0
  6
CONTINU
 10
-57.72381258479558
 20
-9.239561338309828
 30
0.0
 42
0.0425140799234618
  0
VERTEX
  5
9EE
  8
0
  6
CONTINU
 10
-57.72392908280143
 20
-9.240923274041943
 30
0.0
  0
SEQEND
  5
D4E
  8
0
  6
CONTINU
  0
POLYLINE
  5
38F
  8
0
  6
CONTINU
 66
     1
 10
0.0
 20
0.0
 30
0.0
  0
VERTEX
  5
9EF
  8
0
  6
CONTINU
 10
-57.72305731986913
 20
-9.235568829916563
 30
0.0
 42
0.0295570341269385
  0
VERTEX
  5
9F0
  8
0
  6
CONTINU
 10
-57.72351909874516
 20
-9.237290012654073
 30
0.0
  0
SEQEND
  5
D4F
  8
0
  6
CONTINU
  0
POLYLINE
  5
395
  8
0
  6
CONTINU
 66
     1
 10
0.0
 20
0.0
 30
0.0
  0
VERTEX
  5
9F1
  8
0
  6
CONTINU
 10
-57.72210726410957
 20
-9.233304012228816
 30
0.0
  0
VERTEX
  5
9F2
  8
0
  6
CONTINU
 10
-57.72281159477402
 20
-9.23488184486934
 30
0.0
  0
SEQEND
  5
D50
  8
0
  6
CONTINU
  0
POLYLINE
  5
39B
  8
0
  6
CONTINU
 66
     1
 10
0.0
 20
0.0
 30
0.0
  0
VERTEX
  5
9F3
  8
0
  6
CONTINU
 10
-57.69222380449564
 20
-9.238007269613092
 30
0.0
  0
VERTEX
  5
9F4
  8
0
  6
CONTINU
 10
-57.69238016913405
 20
-9.237291439312365
 30
0.0
  0
SEQEND
  5
D51
  8
0
  6
CONTINU
  0
POLYLINE
  5
3A1
  8
0
  6
CONTINU
 66
     1
 10
0.0
 20
0.0
 30
0.0
  0
VERTEX
  5
9F5
  8
0
  6
CONTINU
 10
-57.72351909874516
 20
-9.237290012654073
 30
0.0
  0
VERTEX
  5
9F6
  8
0
  6
CONTINU
 10
-57.72367577404111
 20
-9.238007269613092
 30
0.0
  0
SEQEND
  5
D52
  8
0
  6
CONTINU
  0
POLYLINE
  5
3A7
  8
0
  6
CONTINU
 66
     1
 10
0.0
 20
0.0
 30
0.0
  0
VERTEX
  5
9F7
  8
0
  6
CONTINU
 10
-57.69296800766931
 20
-9.235204710899303
 30
0.0
  0
VERTEX
  5
9F8
  8
0
  6
CONTINU
 10
-57.69308798376274
 20
-9.23488184486934
 30
0.0
  0
SEQEND
  5
D53
  8
0
  6
CONTINU
  0
POLYLINE
  5
3AD
  8
0
  6
CONTINU
 66
     1
 10
0.0
 20
0.0
 30
0.0
  0
VERTEX
  5
9F9
  8
0
  6
CONTINU
 10
-57.72281159477402
 20
-9.23488184486934
 30
0.0
  0
VERTEX
  5
9FA
  8
0
  6
CONTINU
 10
-57.72293157086744
 20
-9.235204710899303
 30
0.0
  0
SEQEND
  5
D54
  8
0
  6
CONTINU
  0
POLYLINE
  5
3B3
  8
0
  6
CONTINU
 66
     1
 10
0.0
 20
0.0
 30
0.0
  0
VERTEX
  5
9FB
  8
0
  6
CONTINU
 10
-57.69296800766931
 20
-9.235204710899303
 30
0.0
  0
VERTEX
  5
9FC
  8
0
  6
CONTINU
 10
-57.69284225866762
 20
-9.235568829916563
 30
0.0
  0
SEQEND
  5
D55
  8
0
  6
CONTINU
  0
POLYLINE
  5
3B9
  8
0
  6
CONTINU
 66
     1
 10
0.0
 20
0.0
 30
0.0
  0
VERTEX
  5
9FD
  8
0
  6
CONTINU
 10
-57.69222380449564
 20
-9.238007269613092
 30
0.0
 42
-0.0441867948836131
  0
VERTEX
  5
9FE
  8
0
  6
CONTINU
 10
-57.69208699374116
 20
-9.239561338309828
 30
0.0
  0
SEQEND
  5
D56
  8
0
  6
CONTINU
  0
POLYLINE
  5
3BF
  8
0
  6
CONTINU
 66
     1
 10
0.0
 20
0.0
 30
0.0
  0
VERTEX
  5
9FF
  8
0
  6
CONTINU
 10
-57.72367577404111
 20
-9.238007269613092
 30
0.0
 42
0.0441867948836106
  0
VERTEX
  5
A00
  8
0
  6
CONTINU
 10
-57.72381258479558
 20
-9.239561338309828
 30
0.0
  0
SEQEND
  5
D57
  8
0
  6
CONTINU
  0
POLYLINE
  5
3C5
  8
0
  6
CONTINU
 66
     1
 10
0.0
 20
0.0
 30
0.0
  0
VERTEX
  5
A01
  8
0
  6
CONTINU
 10
-57.72293157086744
 20
-9.235204710899303
 30
0.0
  0
VERTEX
  5
A02
  8
0
  6
CONTINU
 10
-57.72305731986913
 20
-9.235568829916563
 30
0.0
  0
SEQEND
  5
D58
  8
0
  6
CONTINU
  0
POLYLINE
  5
3CB
  8
0
  6
CONTINU
 66
     1
 10
0.0
 20
0.0
 30
0.0
  0
VERTEX
  5
A03
  8
0
  6
CONTINU
 10
-57.69415672477908
 20
-9.232623248297019
 30
0.0
  0
VERTEX
  5
A04
  8
0
  6
CONTINU
 10
-57.6948878223753
 20
-9.231474605389696
 30
0.0
  0
SEQEND
  5
D59
  8
0
  6
CONTINU
  0
POLYLINE
  5
3D1
  8
0
  6
CONTINU
 66
     1
 10
0.0
 20
0.0
 30
0.0
  0
VERTEX
  5
A05
  8
0
  6
CONTINU
 10
-57.72101175616145
 20
-9.231474605389696
 30
0.0
  0
VERTEX
  5
A06
  8
0
  6
CONTINU
 10
-57.72174285375766
 20
-9.232623248297019
 30
0.0
  0
SEQEND
  5
D5A
  8
0
  6
CONTINU
  0
POLYLINE
  5
3D7
  8
0
  6
CONTINU
 66
     1
 10
0.0
 20
0.0
 30
0.0
  0
VERTEX
  5
A07
  8
0
  6
CONTINU
 10
-57.69676858927325
 20
-9.22903958103175
 30
0.0
 42
0.0322479123526814
  0
VERTEX
  5
A08
  8
0
  6
CONTINU
 10
-57.69571585821677
 20
-9.230359228418022
 30
0.0
  0
SEQEND
  5
D5B
  8
0
  6
CONTINU
  0
POLYLINE
  5
3DD
  8
0
  6
CONTINU
 66
     1
 10
0.0
 20
0.0
 30
0.0
  0
VERTEX
  5
A09
  8
0
  6
CONTINU
 10
-57.69730532631525
 20
-9.22802766371954
 30
0.0
  0
VERTEX
  5
A0A
  8
0
  6
CONTINU
 10
-57.69646208728681
 20
-9.229542693572366
 30
0.0
  0
SEQEND
  5
D5C
  8
0
  6
CONTINU
  0
POLYLINE
  5
3E3
  8
0
  6
CONTINU
 66
     1
 10
0.0
 20
0.0
 30
0.0
  0
VERTEX
  5
A0B
  8
0
  6
CONTINU
 10
-57.69795406136316
 20
-9.226048842540518
 30
0.0
 42
0.0389189532267652
  0
VERTEX
  5
A0C
  8
0
  6
CONTINU
 10
-57.69716482233375
 20
-9.228365141303023
 30
0.0
  0
SEQEND
  5
D5D
  8
0
  6
CONTINU
  0
POLYLINE
  5
3E9
  8
0
  6
CONTINU
 66
     1
 10
0.0
 20
0.0
 30
0.0
  0
VERTEX
  5
A0D
  8
0
  6
CONTINU
 10
-57.71794551717358
 20
-9.226048842540518
 30
0.0
 42
-0.038918953226759
  0
VERTEX
  5
A0E
  8
0
  6
CONTINU
 10
-57.71873475620301
 20
-9.228365141303023
 30
0.0
  0
SEQEND
  5
D5E
  8
0
  6
CONTINU
  0
POLYLINE
  5
3EF
  8
0
  6
CONTINU
 66
     1
 10
0.0
 20
0.0
 30
0.0
  0
VERTEX
  5
A0F
  8
0
  6
CONTINU
 10
-57.71859425222151
 20
-9.22802766371954
 30
0.0
  0
VERTEX
  5
A10
  8
0
  6
CONTINU
 10
-57.71943749124994
 20
-9.229542693572366
 30
0.0
  0
SEQEND
  5
D5F
  8
0
  6
CONTINU
  0
POLYLINE
  5
3F5
  8
0
  6
CONTINU
 66
     1
 10
0.0
 20
0.0
 30
0.0
  0
VERTEX
  5
A11
  8
0
  6
CONTINU
 10
-57.7191309892635
 20
-9.22903958103175
 30
0.0
 42
-0.0322479123526836
  0
VERTEX
  5
A12
  8
0
  6
CONTINU
 10
-57.72018372031999
 20
-9.230359228418022
 30
0.0
  0
SEQEND
  5
D60
  8
0
  6
CONTINU
  0
POLYLINE
  5
3FB
  8
0
  6
CONTINU
 66
     1
 10
0.0
 20
0.0
 30
0.0
  0
VERTEX
  5
A13
  8
0
  6
CONTINU
 10
-57.69795406136316
 20
-9.226048842540518
 30
0.0
  0
VERTEX
  5
A14
  8
0
  6
CONTINU
 10
-57.69832390398589
 20
-9.225209583591692
 30
0.0
  0
SEQEND
  5
D61
  8
0
  6
CONTINU
  0
POLYLINE
  5
401
  8
0
  6
CONTINU
 66
     1
 10
0.0
 20
0.0
 30
0.0
  0
VERTEX
  5
A15
  8
0
  6
CONTINU
 10
-57.71794551717358
 20
-9.226048842540518
 30
0.0
  0
VERTEX
  5
A16
  8
0
  6
CONTINU
 10
-57.7181454713532
 20
-9.228799158227371
 30
0.0
  0
VERTEX
  5
A17
  8
0
  6
CONTINU
 10
-57.71696062675331
 20
-9.231311574516177
 30
0.0
  0
VERTEX
  5
A18
  8
0
  6
CONTINU
 10
-57.71445660122872
 20
-9.23349180870837
 30
0.0
  0
SEQEND
  5
D62
  8
0
  6
CONTINU
  0
POLYLINE
  5
407
  8
0
  6
CONTINU
 66
     1
 10
0.0
 20
0.0
 30
0.0
  0
VERTEX
  5
A19
  8
0
  6
CONTINU
 10
-57.71757567455085
 20
-9.225209583591692
 30
0.0
  0
VERTEX
  5
A1A
  8
0
  6
CONTINU
 10
-57.71794551717358
 20
-9.226048842540518
 30
0.0
  0
SEQEND
  5
D63
  8
0
  6
CONTINU
  0
POLYLINE
  5
40D
  8
0
  6
CONTINU
 66
     1
 10
0.0
 20
0.0
 30
0.0
  0
VERTEX
  5
A1B
  8
0
  6
CONTINU
 10
-57.69857923864259
 20
-9.224709998441448
 30
0.0
  0
VERTEX
  5
A1C
  8
0
  6
CONTINU
 10
-57.69924792787342
 20
-9.2237076144956
 30
0.0
  0
VERTEX
  5
A1D
  8
0
  6
CONTINU
 10
-57.70010968682183
 20
-9.222808746235113
 30
0.0
  0
VERTEX
  5
A1E
  8
0
  6
CONTINU
 10
-57.70113893432185
 20
-9.222024401964662
 30
0.0
  0
SEQEND
  5
D64
  8
0
  6
CONTINU
  0
POLYLINE
  5
413
  8
0
  6
CONTINU
 66
     1
 10
0.0
 20
0.0
 30
0.0
  0
VERTEX
  5
A1F
  8
0
  6
CONTINU
 10
-57.71475546543898
 20
-9.222021017663833
 30
0.0
  0
VERTEX
  5
A20
  8
0
  6
CONTINU
 10
-57.71582004709285
 20
-9.222835654352153
 30
0.0
  0
VERTEX
  5
A21
  8
0
  6
CONTINU
 10
-57.71667680404933
 20
-9.223738948658374
 30
0.0
  0
VERTEX
  5
A22
  8
0
  6
CONTINU
 10
-57.71732033989416
 20
-9.224709998441448
 30
0.0
  0
SEQEND
  5
D65
  8
0
  6
CONTINU
  0
POLYLINE
  5
419
  8
0
  6
CONTINU
 66
     1
 10
0.0
 20
0.0
 30
0.0
  0
VERTEX
  5
A23
  8
0
  6
CONTINU
 10
-57.69857923864259
 20
-9.224709998441448
 30
0.0
 42
-0.1144069954734404
  0
VERTEX
  5
A24
  8
0
  6
CONTINU
 10
-57.69832390398589
 20
-9.225209583591692
 30
0.0
  0
SEQEND
  5
D66
  8
0
  6
CONTINU
  0
POLYLINE
  5
41F
  8
0
  6
CONTINU
 66
     1
 10
0.0
 20
0.0
 30
0.0
  0
VERTEX
  5
A25
  8
0
  6
CONTINU
 10
-57.71732033989416
 20
-9.224709998441448
 30
0.0
 42
0.1144069954734297
  0
VERTEX
  5
A26
  8
0
  6
CONTINU
 10
-57.71757567455085
 20
-9.225209583591692
 30
0.0
  0
SEQEND
  5
D67
  8
0
  6
CONTINU
  0
POLYLINE
  5
4B6
  8
0
  6
CONTINU
 66
     1
 10
0.0
 20
0.0
 30
0.0
 70
     1
  0
VERTEX
  5
A27
  8
0
  6
CONTINU
 10
-57.51694977134011
 20
-9.208165506711541
 30
0.0
  0
VERTEX
  5
A28
  8
0
  6
CONTINU
 10
-57.52110341469059
 20
-9.207427650151303
 30
0.0
  0
VERTEX
  5
A29
  8
0
  6
CONTINU
 10
-57.52415637778228
 20
-9.205508019210244
 30
0.0
  0
VERTEX
  5
A2A
  8
0
  6
CONTINU
 10
-57.5256307731737
 20
-9.202920513654881
 30
0.0
  0
VERTEX
  5
A2B
  8
0
  6
CONTINU
 10
-57.52538528114631
 20
-9.200207182902611
 30
0.0
  0
VERTEX
  5
A2C
  8
0
  6
CONTINU
 10
-57.52357197839056
 20
-9.19786527582384
 30
0.0
  0
VERTEX
  5
A2D
  8
0
  6
CONTINU
 10
-57.52057712087549
 20
-9.196290502197204
 30
0.0
  0
VERTEX
  5
A2E
  8
0
  6
CONTINU
 10
-57.51694977134011
 20
-9.195736495733213
 30
0.0
  0
VERTEX
  5
A2F
  8
0
  6
CONTINU
 10
-57.51332242180472
 20
-9.196290502197204
 30
0.0
  0
VERTEX
  5
A30
  8
0
  6
CONTINU
 10
-57.51032755980759
 20
-9.19786527582384
 30
0.0
  0
VERTEX
  5
A31
  8
0
  6
CONTINU
 10
-57.50851426153391
 20
-9.200207182902611
 30
0.0
  0
VERTEX
  5
A32
  8
0
  6
CONTINU
 10
-57.50826876502445
 20
-9.202920513654881
 30
0.0
  0
VERTEX
  5
A33
  8
0
  6
CONTINU
 10
-57.50974316489793
 20
-9.205508019210244
 30
0.0
  0
VERTEX
  5
A34
  8
0
  6
CONTINU
 10
-57.51279612798962
 20
-9.207427650151303
 30
0.0
  0
SEQEND
  5
D68
  8
0
  6
CONTINU
  0
POLYLINE
  5
4C7
  8
0
  6
CONTINU
 66
     1
 10
0.0
 20
0.0
 30
0.0
  0
VERTEX
  5
A35
  8
0
  6
CONTINU
 10
-57.52573838323149
 20
-9.203406632420908
 30
0.0
  0
VERTEX
  5
A36
  8
0
  6
CONTINU
 10
-57.52480458394575
 20
-9.206194228859074
 30
0.0
  0
VERTEX
  5
A37
  8
0
  6
CONTINU
 10
-57.52232013130185
 20
-9.208325937983513
 30
0.0
  0
VERTEX
  5
A38
  8
0
  6
CONTINU
 10
-57.5188521283771
 20
-9.209473787564157
 30
0.0
  0
VERTEX
  5
A39
  8
0
  6
CONTINU
 10
-57.51504741430312
 20
-9.209473787564157
 30
0.0
  0
VERTEX
  5
A3A
  8
0
  6
CONTINU
 10
-57.51157941137836
 20
-9.208325937983513
 30
0.0
  0
VERTEX
  5
A3B
  8
0
  6
CONTINU
 10
-57.50909495873447
 20
-9.206194228859074
 30
0.0
  0
VERTEX
  5
A3C
  8
0
  6
CONTINU
 10
-57.50816115944873
 20
-9.203406632420908
 30
0.0
  0
SEQEND
  5
D69
  8
0
  6
CONTINU
  0
POLYLINE
  5
4D3
  8
0
  6
CONTINU
 66
     1
 10
0.0
 20
0.0
 30
0.0
  0
VERTEX
  5
A3D
  8
0
  6
CONTINU
 10
-57.52337877869289
 20
-9.202122729555896
 30
0.0
  0
VERTEX
  5
A3E
  8
0
  6
CONTINU
 10
-57.52253595649712
 20
-9.204374715072563
 30
0.0
  0
VERTEX
  5
A3F
  8
0
  6
CONTINU
 10
-57.52033720454521
 20
-9.205990328215385
 30
0.0
  0
VERTEX
  5
A40
  8
0
  6
CONTINU
 10
-57.51737469414112
 20
-9.206665195981952
 30
0.0
  0
VERTEX
  5
A41
  8
0
  6
CONTINU
 10
-57.51431704728457
 20
-9.20628066785152
 30
0.0
  0
VERTEX
  5
A42
  8
0
  6
CONTINU
 10
-57.5118422131664
 20
-9.204903804579837
 30
0.0
  0
VERTEX
  5
A43
  8
0
  6
CONTINU
 10
-57.51057032673543
 20
-9.202787378199144
 30
0.0
  0
SEQEND
  5
D6A
  8
0
  6
CONTINU
  0
POLYLINE
  5
4DC
  8
0
  6
CONTINU
 66
     1
 10
0.0
 20
0.0
 30
0.0
 70
     1
  0
VERTEX
  5
A44
  8
0
  6
CONTINU
 10
-57.51694006317295
 20
-9.206010932298675
 30
0.0
  0
VERTEX
  5
A45
  8
0
  6
CONTINU
 10
-57.52042455115716
 20
-9.205286609353728
 30
0.0
  0
VERTEX
  5
A46
  8
0
  6
CONTINU
 10
-57.52271826924279
 20
-9.203466731398896
 30
0.0
  0
VERTEX
  5
A47
  8
0
  6
CONTINU
 10
-57.52336513974891
 20
-9.201161860798534
 30
0.0
  0
VERTEX
  5
A48
  8
0
  6
CONTINU
 10
-57.52234759295474
 20
-9.198986644204767
 30
0.0
  0
VERTEX
  5
A49
  8
0
  6
CONTINU
 10
-57.52000733751936
 20
-9.197454989227744
 30
0.0
  0
VERTEX
  5
A4A
  8
0
  6
CONTINU
 10
-57.51694006317295
 20
-9.196905183585388
 30
0.0
  0
VERTEX
  5
A4B
  8
0
  6
CONTINU
 10
-57.51387278882655
 20
-9.197454989227744
 30
0.0
  0
VERTEX
  5
A4C
  8
0
  6
CONTINU
 10
-57.51153253339118
 20
-9.198986644204767
 30
0.0
  0
VERTEX
  5
A4D
  8
0
  6
CONTINU
 10
-57.51051499107907
 20
-9.201161860798534
 30
0.0
  0
VERTEX
  5
A4E
  8
0
  6
CONTINU
 10
-57.51116186158519
 20
-9.203466731398896
 30
0.0
  0
VERTEX
  5
A4F
  8
0
  6
CONTINU
 10
-57.51345557518874
 20
-9.205286609353728
 30
0.0
  0
SEQEND
  5
D6B
  8
0
  6
CONTINU
  0
POLYLINE
  5
4EB
  8
0
  6
CONTINU
 66
     1
 10
0.0
 20
0.0
 30
0.0
  0
VERTEX
  5
A50
  8
0
  6
CONTINU
 10
-57.51068297157661
 20
-9.201760393745312
 30
0.0
  0
VERTEX
  5
A51
  8
0
  6
CONTINU
 10
-57.51057032673543
 20
-9.202489080644828
 30
0.0
  0
SEQEND
  5
D6C
  8
0
  6
CONTINU
  0
POLYLINE
  5
4F4
  8
0
  6
CONTINU
 66
     1
 10
0.0
 20
0.0
 30
0.0
  0
VERTEX
  5
A52
  8
0
  6
CONTINU
 10
-57.52349531105158
 20
-9.233460335113168
 30
0.0
  0
VERTEX
  5
A53
  8
0
  6
CONTINU
 10
-57.52602467107487
 20
-9.231228409677058
 30
0.0
  0
VERTEX
  5
A54
  8
0
  6
CONTINU
 10
-57.52716396886284
 20
-9.22870079468335
 30
0.0
  0
VERTEX
  5
A55
  8
0
  6
CONTINU
 10
-57.52694553061982
 20
-9.226048842540518
 30
0.0
  0
SEQEND
  5
D6D
  8
0
  6
CONTINU
  0
POLYLINE
  5
50A
  8
0
  6
CONTINU
 66
     1
 10
0.0
 20
0.0
 30
0.0
  0
VERTEX
  5
A56
  8
0
  6
CONTINU
 10
-57.50651651831379
 20
-9.201007759576985
 30
0.0
 42
0.094922082130196
  0
VERTEX
  5
A57
  8
0
  6
CONTINU
 10
-57.50828084303765
 20
-9.199203446298272
 30
0.0
  0
SEQEND
  5
D6E
  8
0
  6
CONTINU
  0
POLYLINE
  5
512
  8
0
  6
CONTINU
 66
     1
 10
0.0
 20
0.0
 30
0.0
  0
VERTEX
  5
A58
  8
0
  6
CONTINU
 10
-57.52371371517242
 20
-9.198048330954443
 30
0.0
  0
VERTEX
  5
A59
  8
0
  6
CONTINU
 10
-57.52054772744974
 20
-9.196552797511142
 30
0.0
  0
VERTEX
  5
A5A
  8
0
  6
CONTINU
 10
-57.5169756373755
 20
-9.19616275307105
 30
0.0
  0
VERTEX
  5
A5B
  8
0
  6
CONTINU
 10
-57.51340232369569
 20
-9.196544559463485
 30
0.0
  0
VERTEX
  5
A5C
  8
0
  6
CONTINU
 10
-57.51021524236705
 20
-9.1980103358026
 30
0.0
  0
SEQEND
  5
D6F
  8
0
  6
CONTINU
  0
POLYLINE
  5
51D
  8
0
  6
CONTINU
 66
     1
 10
0.0
 20
0.0
 30
0.0
  0
VERTEX
  5
A5D
  8
0
  6
CONTINU
 10
-57.52736483742977
 20
-9.200986807744151
 30
0.0
 42
-0.0947981344482881
  0
VERTEX
  5
A5E
  8
0
  6
CONTINU
 10
-57.52560712531326
 20
-9.199195259556902
 30
0.0
  0
SEQEND
  5
D70
  8
0
  6
CONTINU
  0
POLYLINE
  5
523
  8
0
  6
CONTINU
 66
     1
 10
0.0
 20
0.0
 30
0.0
  0
VERTEX
  5
A5F
  8
0
  6
CONTINU
 10
-57.50751658376328
 20
-9.219866748031839
 30
0.0
  0
VERTEX
  5
A60
  8
0
  6
CONTINU
 10
-57.50679734124652
 20
-9.218840219166111
 30
0.0
  0
SEQEND
  5
D71
  8
0
  6
CONTINU
  0
POLYLINE
  5
529
  8
0
  6
CONTINU
 66
     1
 10
0.0
 20
0.0
 30
0.0
  0
VERTEX
  5
A61
  8
0
  6
CONTINU
 10
-57.50651651831379
 20
-9.201007759576985
 30
0.0
  0
VERTEX
  5
A62
  8
0
  6
CONTINU
 10
-57.5054850556629
 20
-9.202214791307204
 30
0.0
  0
VERTEX
  5
A63
  8
0
  6
CONTINU
 10
-57.50417881863495
 20
-9.203193982773396
 30
0.0
  0
VERTEX
  5
A64
  8
0
  6
CONTINU
 10
-57.50268880546493
 20
-9.203861234379742
 30
0.0
  0
SEQEND
  5
D72
  8
0
  6
CONTINU
  0
POLYLINE
  5
52F
  8
0
  6
CONTINU
 66
     1
 10
0.0
 20
0.0
 30
0.0
  0
VERTEX
  5
A65
  8
0
  6
CONTINU
 10
-57.52638034586918
 20
-9.219870739316626
 30
0.0
  0
VERTEX
  5
A66
  8
0
  6
CONTINU
 10
-57.52710329505917
 20
-9.21884079287128
 30
0.0
  0
SEQEND
  5
D73
  8
0
  6
CONTINU
  0
POLYLINE
  5
535
  8
0
  6
CONTINU
 66
     1
 10
0.0
 20
0.0
 30
0.0
  0
VERTEX
  5
A67
  8
0
  6
CONTINU
 10
-57.52736483742977
 20
-9.200986807744151
 30
0.0
  0
VERTEX
  5
A68
  8
0
  6
CONTINU
 10
-57.52840865360108
 20
-9.202213376093086
 30
0.0
  0
VERTEX
  5
A69
  8
0
  6
CONTINU
 10
-57.52971557190392
 20
-9.203193710487543
 30
0.0
  0
VERTEX
  5
A6A
  8
0
  6
CONTINU
 10
-57.53120855159883
 20
-9.203862150371881
 30
0.0
  0
SEQEND
  5
D74
  8
0
  6
CONTINU
  0
POLYLINE
  5
53D
  8
0
  6
CONTINU
 66
     1
 10
0.0
 20
0.0
 30
0.0
  0
VERTEX
  5
A6B
  8
0
  6
CONTINU
 10
-57.50679734124652
 20
-9.218840219166111
 30
0.0
  0
VERTEX
  5
A6C
  8
0
  6
CONTINU
 10
-57.50462806563871
 20
-9.216500857904029
 30
0.0
  0
VERTEX
  5
A6D
  8
0
  6
CONTINU
 10
-57.5018458667353
 20
-9.215351560614248
 30
0.0
  0
VERTEX
  5
A6E
  8
0
  6
CONTINU
 10
-57.49883554159104
 20
-9.215418531728563
 30
0.0
  0
SEQEND
  5
D75
  8
0
  6
CONTINU
  0
POLYLINE
  5
545
  8
0
  6
CONTINU
 66
     1
 10
0.0
 20
0.0
 30
0.0
  0
VERTEX
  5
A6F
  8
0
  6
CONTINU
 10
-57.52638034586918
 20
-9.219870739316626
 30
0.0
 42
0.0715824522599652
  0
VERTEX
  5
A70
  8
0
  6
CONTINU
 10
-57.52511226023496
 20
-9.221068624503925
 30
0.0
  0
SEQEND
  5
D76
  8
0
  6
CONTINU
  0
POLYLINE
  5
54B
  8
0
  6
CONTINU
 66
     1
 10
0.0
 20
0.0
 30
0.0
  0
VERTEX
  5
A71
  8
0
  6
CONTINU
 10
-57.52710329505917
 20
-9.21884079287128
 30
0.0
  0
VERTEX
  5
A72
  8
0
  6
CONTINU
 10
-57.52933144940097
 20
-9.216461290175667
 30
0.0
  0
VERTEX
  5
A73
  8
0
  6
CONTINU
 10
-57.53219783281479
 20
-9.215326384817894
 30
0.0
  0
VERTEX
  5
A74
  8
0
  6
CONTINU
 10
-57.53527756283827
 20
-9.215464936857199
 30
0.0
  0
SEQEND
  5
D77
  8
0
  6
CONTINU
  0
POLYLINE
  5
55E
  8
0
  6
CONTINU
 66
     1
 10
0.0
 20
0.0
 30
0.0
  0
VERTEX
  5
A75
  8
0
  6
CONTINU
 10
-57.49190482458607
 20
-9.202045450797346
 30
0.0
  0
VERTEX
  5
A76
  8
0
  6
CONTINU
 10
-57.48946932736956
 20
-9.201741246993137
 30
0.0
  0
VERTEX
  5
A77
  8
0
  6
CONTINU
 10
-57.48705485331004
 20
-9.202185905476057
 30
0.0
  0
VERTEX
  5
A78
  8
0
  6
CONTINU
 10
-57.48488767531175
 20
-9.203339136904212
 30
0.0
  0
SEQEND
  5
D78
  8
0
  6
CONTINU
  0
POLYLINE
  5
564
  8
0
  6
CONTINU
 66
     1
 10
0.0
 20
0.0
 30
0.0
  0
VERTEX
  5
A79
  8
0
  6
CONTINU
 10
-57.50896461112728
 20
-9.190457483752871
 30
0.0
  0
VERTEX
  5
A7A
  8
0
  6
CONTINU
 10
-57.50941841191582
 20
-9.187801370146593
 30
0.0
  0
VERTEX
  5
A7B
  8
0
  6
CONTINU
 10
-57.51072572464096
 20
-9.185442579454149
 30
0.0
  0
VERTEX
  5
A7C
  8
0
  6
CONTINU
 10
-57.51274720617777
 20
-9.183655720570863
 30
0.0
  0
SEQEND
  5
D79
  8
0
  6
CONTINU
  0
POLYLINE
  5
56A
  8
0
  6
CONTINU
 66
     1
 10
0.0
 20
0.0
 30
0.0
  0
VERTEX
  5
A7D
  8
0
  6
CONTINU
 10
-57.524934936035
 20
-9.190457483752871
 30
0.0
  0
VERTEX
  5
A7E
  8
0
  6
CONTINU
 10
-57.52448113524648
 20
-9.187801370146593
 30
0.0
  0
VERTEX
  5
A7F
  8
0
  6
CONTINU
 10
-57.52317382252133
 20
-9.185442579454149
 30
0.0
  0
VERTEX
  5
A80
  8
0
  6
CONTINU
 10
-57.52115531259801
 20
-9.183654127334464
 30
0.0
  0
SEQEND
  5
D7A
  8
0
  6
CONTINU
  0
POLYLINE
  5
571
  8
0
  6
CONTINU
 66
     1
 10
0.0
 20
0.0
 30
0.0
  0
VERTEX
  5
A81
  8
0
  6
CONTINU
 10
-57.54199439090292
 20
-9.202046764044335
 30
0.0
  0
VERTEX
  5
A82
  8
0
  6
CONTINU
 10
-57.54443021755169
 20
-9.201741246993137
 30
0.0
  0
VERTEX
  5
A83
  8
0
  6
CONTINU
 10
-57.54684469161121
 20
-9.202185908837611
 30
0.0
  0
VERTEX
  5
A84
  8
0
  6
CONTINU
 10
-57.54901187185054
 20
-9.203339139145248
 30
0.0
  0
SEQEND
  5
D7B
  8
0
  6
CONTINU
  0
POLYLINE
  5
577
  8
0
  6
CONTINU
 66
     1
 10
0.0
 20
0.0
 30
0.0
  0
VERTEX
  5
A85
  8
0
  6
CONTINU
 10
-57.52493493155293
 20
-9.228982855933182
 30
0.0
 42
-0.1006061502582577
  0
VERTEX
  5
A86
  8
0
  6
CONTINU
 10
-57.52429987578763
 20
-9.225863455093702
 30
0.0
  0
SEQEND
  5
D7C
  8
0
  6
CONTINU
  0
POLYLINE
  5
57D
  8
0
  6
CONTINU
 66
     1
 10
0.0
 20
0.0
 30
0.0
  0
VERTEX
  5
A87
  8
0
  6
CONTINU
 10
-57.50896461112728
 20
-9.228982855933182
 30
0.0
 42
0.1006236460762433
  0
VERTEX
  5
A88
  8
0
  6
CONTINU
 10
-57.50959966689258
 20
-9.225863459575773
 30
0.0
  0
SEQEND
  5
D7D
  8
0
  6
CONTINU
  0
POLYLINE
  5
583
  8
0
  6
CONTINU
 66
     1
 10
0.0
 20
0.0
 30
0.0
  0
VERTEX
  5
A89
  8
0
  6
CONTINU
 10
-57.49190482906814
 20
-9.217398928355765
 30
0.0
  0
VERTEX
  5
A8A
  8
0
  6
CONTINU
 10
-57.48946932736956
 20
-9.21770312879842
 30
0.0
  0
VERTEX
  5
A8B
  8
0
  6
CONTINU
 10
-57.48705485106901
 20
-9.217258466953945
 30
0.0
  0
VERTEX
  5
A8C
  8
0
  6
CONTINU
 10
-57.48488850001293
 20
-9.216106128578563
 30
0.0
  0
SEQEND
  5
D7E
  8
0
  6
CONTINU
  0
POLYLINE
  5
589
  8
0
  6
CONTINU
 66
     1
 10
0.0
 20
0.0
 30
0.0
  0
VERTEX
  5
A8D
  8
0
  6
CONTINU
 10
-57.48488767531175
 20
-9.203339136904212
 30
0.0
  0
VERTEX
  5
A8E
  8
0
  6
CONTINU
 10
-57.48322297564094
 20
-9.205041101639084
 30
0.0
  0
VERTEX
  5
A8F
  8
0
  6
CONTINU
 10
-57.48213011211507
 20
-9.207157932526744
 30
0.0
  0
VERTEX
  5
A90
  8
0
  6
CONTINU
 10
-57.4817060924515
 20
-9.209501733280778
 30
0.0
  0
SEQEND
  5
D7F
  8
0
  6
CONTINU
  0
POLYLINE
  5
58F
  8
0
  6
CONTINU
 66
     1
 10
0.0
 20
0.0
 30
0.0
  0
VERTEX
  5
A91
  8
0
  6
CONTINU
 10
-57.524934936035
 20
-9.190457483752871
 30
0.0
 42
0.1007318478366216
  0
VERTEX
  5
A92
  8
0
  6
CONTINU
 10
-57.52429987578763
 20
-9.193580926300443
 30
0.0
  0
SEQEND
  5
D80
  8
0
  6
CONTINU
  0
POLYLINE
  5
595
  8
0
  6
CONTINU
 66
     1
 10
0.0
 20
0.0
 30
0.0
  0
VERTEX
  5
A93
  8
0
  6
CONTINU
 10
-57.50896461112728
 20
-9.190457483752871
 30
0.0
 42
-0.1007318478366216
  0
VERTEX
  5
A94
  8
0
  6
CONTINU
 10
-57.50959967137466
 20
-9.193580926300443
 30
0.0
  0
SEQEND
  5
D81
  8
0
  6
CONTINU
  0
POLYLINE
  5
59B
  8
0
  6
CONTINU
 66
     1
 10
0.0
 20
0.0
 30
0.0
  0
VERTEX
  5
A95
  8
0
  6
CONTINU
 10
-57.51694969514489
 20
-9.182459590534801
 30
0.0
  0
VERTEX
  5
A96
  8
0
  6
CONTINU
 10
-57.51548196459399
 20
-9.182595078517886
 30
0.0
  0
VERTEX
  5
A97
  8
0
  6
CONTINU
 10
-57.51406398055612
 20
-9.182997625136535
 30
0.0
  0
VERTEX
  5
A98
  8
0
  6
CONTINU
 10
-57.51274720617777
 20
-9.183655720570863
 30
0.0
  0
SEQEND
  5
D82
  8
0
  6
CONTINU
  0
POLYLINE
  5
5A1
  8
0
  6
CONTINU
 66
     1
 10
0.0
 20
0.0
 30
0.0
  0
VERTEX
  5
A99
  8
0
  6
CONTINU
 10
-57.51694969514489
 20
-9.182459590534801
 30
0.0
  0
VERTEX
  5
A9A
  8
0
  6
CONTINU
 10
-57.51841754222966
 20
-9.18259507123452
 30
0.0
  0
VERTEX
  5
A9B
  8
0
  6
CONTINU
 10
-57.51983554867788
 20
-9.182997618133298
 30
0.0
  0
VERTEX
  5
A9C
  8
0
  6
CONTINU
 10
-57.52115531259801
 20
-9.183654127334464
 30
0.0
  0
SEQEND
  5
D83
  8
0
  6
CONTINU
  0
POLYLINE
  5
5A7
  8
0
  6
CONTINU
 66
     1
 10
0.0
 20
0.0
 30
0.0
  0
VERTEX
  5
A9D
  8
0
  6
CONTINU
 10
-57.54199471809415
 20
-9.217398921632658
 30
0.0
  0
VERTEX
  5
A9E
  8
0
  6
CONTINU
 10
-57.54443021755169
 20
-9.21770312879842
 30
0.0
  0
VERTEX
  5
A9F
  8
0
  6
CONTINU
 10
-57.54684469161121
 20
-9.21725846919498
 30
0.0
  0
VERTEX
  5
AA0
  8
0
  6
CONTINU
 10
-57.54901187185054
 20
-9.216105238887344
 30
0.0
  0
SEQEND
  5
D84
  8
0
  6
CONTINU
  0
POLYLINE
  5
5AD
  8
0
  6
CONTINU
 66
     1
 10
0.0
 20
0.0
 30
0.0
  0
VERTEX
  5
AA1
  8
0
  6
CONTINU
 10
-57.54901187185054
 20
-9.203339139145248
 30
0.0
  0
VERTEX
  5
AA2
  8
0
  6
CONTINU
 10
-57.55067657600342
 20
-9.205041106121156
 30
0.0
  0
VERTEX
  5
AA3
  8
0
  6
CONTINU
 10
-57.55176943952929
 20
-9.207157941490888
 30
0.0
  0
VERTEX
  5
AA4
  8
0
  6
CONTINU
 10
-57.55219345246976
 20
-9.209501744485957
 30
0.0
  0
SEQEND
  5
D85
  8
0
  6
CONTINU
  0
POLYLINE
  5
5B3
  8
0
  6
CONTINU
 66
     1
 10
0.0
 20
0.0
 30
0.0
  0
VERTEX
  5
AA5
  8
0
  6
CONTINU
 10
-57.50896461112728
 20
-9.228982855933182
 30
0.0
  0
VERTEX
  5
AA6
  8
0
  6
CONTINU
 10
-57.50941752446563
 20
-9.231640473414556
 30
0.0
  0
VERTEX
  5
AA7
  8
0
  6
CONTINU
 10
-57.51072488649356
 20
-9.234000750263908
 30
0.0
  0
VERTEX
  5
AA8
  8
0
  6
CONTINU
 10
-57.51275468380091
 20
-9.235795259998321
 30
0.0
  0
SEQEND
  5
D86
  8
0
  6
CONTINU
  0
POLYLINE
  5
5B9
  8
0
  6
CONTINU
 66
     1
 10
0.0
 20
0.0
 30
0.0
  0
VERTEX
  5
AA9
  8
0
  6
CONTINU
 10
-57.52493493155293
 20
-9.228982855933182
 30
0.0
  0
VERTEX
  5
AAA
  8
0
  6
CONTINU
 10
-57.52450851174
 20
-9.23156368656337
 30
0.0
  0
VERTEX
  5
AAB
  8
0
  6
CONTINU
 10
-57.52327486186211
 20
-9.233873002258271
 30
0.0
  0
VERTEX
  5
AAC
  8
0
  6
CONTINU
 10
-57.52135820253455
 20
-9.235657471847215
 30
0.0
  0
SEQEND
  5
D87
  8
0
  6
CONTINU
  0
POLYLINE
  5
5BF
  8
0
  6
CONTINU
 66
     1
 10
0.0
 20
0.0
 30
0.0
  0
VERTEX
  5
AAD
  8
0
  6
CONTINU
 10
-57.48488850001293
 20
-9.216106128578563
 30
0.0
  0
VERTEX
  5
AAE
  8
0
  6
CONTINU
 10
-57.48322297564094
 20
-9.21440327527299
 30
0.0
  0
VERTEX
  5
AAF
  8
0
  6
CONTINU
 10
-57.48213011211507
 20
-9.212286444385331
 30
0.0
  0
VERTEX
  5
AB0
  8
0
  6
CONTINU
 10
-57.4817060924515
 20
-9.209942645872333
 30
0.0
  0
SEQEND
  5
D88
  8
0
  6
CONTINU
  0
POLYLINE
  5
5C5
  8
0
  6
CONTINU
 66
     1
 10
0.0
 20
0.0
 30
0.0
  0
VERTEX
  5
AB1
  8
0
  6
CONTINU
 10
-57.54901187185054
 20
-9.216105238887344
 30
0.0
  0
VERTEX
  5
AB2
  8
0
  6
CONTINU
 10
-57.55067656703928
 20
-9.21440327527299
 30
0.0
  0
VERTEX
  5
AB3
  8
0
  6
CONTINU
 10
-57.55176943056514
 20
-9.212286446626367
 30
0.0
  0
VERTEX
  5
AB4
  8
0
  6
CONTINU
 10
-57.55219345246976
 20
-9.209942648113369
 30
0.0
  0
SEQEND
  5
D89
  8
0
  6
CONTINU
  0
POLYLINE
  5
5CB
  8
0
  6
CONTINU
 66
     1
 10
0.0
 20
0.0
 30
0.0
  0
VERTEX
  5
AB5
  8
0
  6
CONTINU
 10
-57.51694979823254
 20
-9.23698478440342
 30
0.0
  0
VERTEX
  5
AB6
  8
0
  6
CONTINU
 10
-57.51548196459399
 20
-9.236849295032634
 30
0.0
  0
VERTEX
  5
AB7
  8
0
  6
CONTINU
 10
-57.51406398055612
 20
-9.236446751215281
 30
0.0
  0
VERTEX
  5
AB8
  8
0
  6
CONTINU
 10
-57.51275468380091
 20
-9.235795259998321
 30
0.0
  0
SEQEND
  5
D8A
  8
0
  6
CONTINU
  0
POLYLINE
  5
5D1
  8
0
  6
CONTINU
 66
     1
 10
0.0
 20
0.0
 30
0.0
  0
VERTEX
  5
AB9
  8
0
  6
CONTINU
 10
-57.51694979823254
 20
-9.23698478440342
 30
0.0
  0
VERTEX
  5
ABA
  8
0
  6
CONTINU
 10
-57.51841754222966
 20
-9.236849303996777
 30
0.0
  0
VERTEX
  5
ABB
  8
0
  6
CONTINU
 10
-57.51983554867788
 20
-9.236446755697353
 30
0.0
  0
VERTEX
  5
ABC
  8
0
  6
CONTINU
 10
-57.52115527674144
 20
-9.235790078418502
 30
0.0
  0
SEQEND
  5
D8B
  8
0
  6
CONTINU
  0
POLYLINE
  5
5D7
  8
0
  6
CONTINU
 66
     1
 10
0.0
 20
0.0
 30
0.0
  0
VERTEX
  5
ABD
  8
0
  6
CONTINU
 10
-57.50844070614682
 20
-9.20102014800029
 30
0.0
  0
VERTEX
  5
ABE
  8
0
  6
CONTINU
 10
-57.50767652648944
 20
-9.203250270869978
 30
0.0
  0
VERTEX
  5
ABF
  8
0
  6
CONTINU
 10
-57.50812861960868
 20
-9.20553137304448
 30
0.0
  0
VERTEX
  5
AC0
  8
0
  6
CONTINU
 10
-57.50959189946245
 20
-9.207323061009786
 30
0.0
  0
SEQEND
  5
D8C
  8
0
  6
CONTINU
  0
POLYLINE
  5
5DD
  8
0
  6
CONTINU
 66
     1
 10
0.0
 20
0.0
 30
0.0
  0
VERTEX
  5
AC1
  8
0
  6
CONTINU
 10
-57.52430764769984
 20
-9.207323061009786
 30
0.0
  0
VERTEX
  5
AC2
  8
0
  6
CONTINU
 10
-57.5257726979719
 20
-9.205537231112102
 30
0.0
  0
VERTEX
  5
AC3
  8
0
  6
CONTINU
 10
-57.52622292206727
 20
-9.203260153837924
 30
0.0
  0
VERTEX
  5
AC4
  8
0
  6
CONTINU
 10
-57.5254599167559
 20
-9.201032102134723
 30
0.0
  0
SEQEND
  5
D8D
  8
0
  6
CONTINU
  0
POLYLINE
  5
5E5
  8
0
  6
CONTINU
 66
     1
 10
0.0
 20
0.0
 30
0.0
  0
VERTEX
  5
AC5
  8
0
  6
CONTINU
 10
-57.51142050892417
 20
-9.20861608220118
 30
0.0
  0
VERTEX
  5
AC6
  8
0
  6
CONTINU
 10
-57.51407806322519
 20
-9.209680774114164
 30
0.0
  0
VERTEX
  5
AC7
  8
0
  6
CONTINU
 10
-57.51694917522458
 20
-9.209963552495458
 30
0.0
  0
VERTEX
  5
AC8
  8
0
  6
CONTINU
 10
-57.51982016620804
 20
-9.209677661315416
 30
0.0
  0
VERTEX
  5
AC9
  8
0
  6
CONTINU
 10
-57.52248745151792
 20
-9.208612873486244
 30
0.0
  0
SEQEND
  5
D8E
  8
0
  6
CONTINU
  0
POLYLINE
  5
5EE
  8
0
  6
CONTINU
 66
     1
 10
0.0
 20
0.0
 30
0.0
  0
VERTEX
  5
ACA
  8
0
  6
CONTINU
 10
-57.50804140745888
 20
-9.209484761916546
 30
0.0
 42
0.0679435644166449
  0
VERTEX
  5
ACB
  8
0
  6
CONTINU
 10
-57.50666839652776
 20
-9.208224665575003
 30
0.0
  0
SEQEND
  5
D8F
  8
0
  6
CONTINU
  0
POLYLINE
  5
5F4
  8
0
  6
CONTINU
 66
     1
 10
0.0
 20
0.0
 30
0.0
  0
VERTEX
  5
ACC
  8
0
  6
CONTINU
 10
-57.50591264081446
 20
-9.203971658058006
 30
0.0
 42
-0.0816679287549645
  0
VERTEX
  5
ACD
  8
0
  6
CONTINU
 10
-57.50666839652776
 20
-9.208224665575003
 30
0.0
  0
SEQEND
  5
D90
  8
0
  6
CONTINU
  0
POLYLINE
  5
5FA
  8
0
  6
CONTINU
 66
     1
 10
0.0
 20
0.0
 30
0.0
  0
VERTEX
  5
ACE
  8
0
  6
CONTINU
 10
-57.50615069932606
 20
-9.201893005456503
 30
0.0
 42
-0.0643514504396077
  0
VERTEX
  5
ACF
  8
0
  6
CONTINU
 10
-57.50591264081446
 20
-9.203971658058006
 30
0.0
  0
SEQEND
  5
D91
  8
0
  6
CONTINU
  0
POLYLINE
  5
600
  8
0
  6
CONTINU
 66
     1
 10
0.0
 20
0.0
 30
0.0
  0
VERTEX
  5
AD0
  8
0
  6
CONTINU
 10
-57.50651651831379
 20
-9.201007759576985
 30
0.0
 42
-0.0782260489029976
  0
VERTEX
  5
AD1
  8
0
  6
CONTINU
 10
-57.50615069932606
 20
-9.201893005456503
 30
0.0
  0
SEQEND
  5
D92
  8
0
  6
CONTINU
  0
POLYLINE
  5
606
  8
0
  6
CONTINU
 66
     1
 10
0.0
 20
0.0
 30
0.0
  0
VERTEX
  5
AD2
  8
0
  6
CONTINU
 10
-57.52723743898103
 20
-9.20822030227827
 30
0.0
 42
0.0677796345949387
  0
VERTEX
  5
AD3
  8
0
  6
CONTINU
 10
-57.5258581262572
 20
-9.209484752952402
 30
0.0
  0
SEQEND
  5
D93
  8
0
  6
CONTINU
  0
POLYLINE
  5
60C
  8
0
  6
CONTINU
 66
     1
 10
0.0
 20
0.0
 30
0.0
  0
VERTEX
  5
AD4
  8
0
  6
CONTINU
 10
-57.52774531148172
 20
-9.206348779653066
 30
0.0
 42
-0.0492767722006276
  0
VERTEX
  5
AD5
  8
0
  6
CONTINU
 10
-57.52799236775211
 20
-9.203973796006174
 30
0.0
  0
SEQEND
  5
D94
  8
0
  6
CONTINU
  0
POLYLINE
  5
612
  8
0
  6
CONTINU
 66
     1
 10
0.0
 20
0.0
 30
0.0
  0
VERTEX
  5
AD6
  8
0
  6
CONTINU
 10
-57.52723743898103
 20
-9.20822030227827
 30
0.0
 42
-0.0338604277075388
  0
VERTEX
  5
AD7
  8
0
  6
CONTINU
 10
-57.52774531148172
 20
-9.206348779653066
 30
0.0
  0
SEQEND
  5
D95
  8
0
  6
CONTINU
  0
POLYLINE
  5
61A
  8
0
  6
CONTINU
 66
     1
 10
0.0
 20
0.0
 30
0.0
  0
VERTEX
  5
AD8
  8
0
  6
CONTINU
 10
-57.51171265440382
 20
-9.211791074623456
 30
0.0
 42
0.0571489512795215
  0
VERTEX
  5
AD9
  8
0
  6
CONTINU
 10
-57.50974557550121
 20
-9.210690126423357
 30
0.0
  0
SEQEND
  5
D96
  8
0
  6
CONTINU
  0
POLYLINE
  5
620
  8
0
  6
CONTINU
 66
     1
 10
0.0
 20
0.0
 30
0.0
  0
VERTEX
  5
ADA
  8
0
  6
CONTINU
 10
-57.52415885481809
 20
-9.210686673512482
 30
0.0
 42
0.0573482306593661
  0
VERTEX
  5
ADB
  8
0
  6
CONTINU
 10
-57.52219245949144
 20
-9.211787092302812
 30
0.0
  0
SEQEND
  5
D97
  8
0
  6
CONTINU
  0
POLYLINE
  5
626
  8
0
  6
CONTINU
 66
     1
 10
0.0
 20
0.0
 30
0.0
  0
VERTEX
  5
ADC
  8
0
  6
CONTINU
 10
-57.51678176252374
 20
-9.211781439138765
 30
0.0
 42
0.014006370472864
  0
VERTEX
  5
ADD
  8
0
  6
CONTINU
 10
-57.52219245949144
 20
-9.211787092302812
 30
0.0
  0
SEQEND
  5
D98
  8
0
  6
CONTINU
  0
POLYLINE
  5
62D
  8
0
  6
CONTINU
 66
     1
 10
0.0
 20
0.0
 30
0.0
  0
VERTEX
  5
ADE
  8
0
  6
CONTINU
 10
-57.51171265440382
 20
-9.211791074623456
 30
0.0
  0
VERTEX
  5
ADF
  8
0
  6
CONTINU
 10
-57.5138004661187
 20
-9.211756892104159
 30
0.0
  0
SEQEND
  5
D99
  8
0
  6
CONTINU
  0
POLYLINE
  5
636
  8
0
  6
CONTINU
 66
     1
 10
0.0
 20
0.0
 30
0.0
  0
VERTEX
  5
AE0
  8
0
  6
CONTINU
 10
-57.50268880546493
 20
-9.203861234379742
 30
0.0
  0
VERTEX
  5
AE1
  8
0
  6
CONTINU
 10
-57.5012393684894
 20
-9.204170536540433
 30
0.0
  0
VERTEX
  5
AE2
  8
0
  6
CONTINU
 10
-57.4997661877394
 20
-9.20418589772043
 30
0.0
  0
VERTEX
  5
AE3
  8
0
  6
CONTINU
 10
-57.4984169676445
 20
-9.203923405195342
 30
0.0
  0
SEQEND
  5
D9A
  8
0
  6
CONTINU
  0
POLYLINE
  5
63D
  8
0
  6
CONTINU
 66
     1
 10
0.0
 20
0.0
 30
0.0
  0
VERTEX
  5
AE4
  8
0
  6
CONTINU
 10
-57.52799236775211
 20
-9.203973796006174
 30
0.0
 42
-0.0603304898025126
  0
VERTEX
  5
AE5
  8
0
  6
CONTINU
 10
-57.52775010729836
 20
-9.201920033468959
 30
0.0
  0
VERTEX
  5
AE6
  8
0
  6
CONTINU
 10
-57.52736483742977
 20
-9.200986807744151
 30
0.0
  0
SEQEND
  5
D9B
  8
0
  6
CONTINU
  0
POLYLINE
  5
643
  8
0
  6
CONTINU
 66
     1
 10
0.0
 20
0.0
 30
0.0
  0
VERTEX
  5
AE7
  8
0
  6
CONTINU
 10
-57.53547994181864
 20
-9.203924176111661
 30
0.0
  0
VERTEX
  5
AE8
  8
0
  6
CONTINU
 10
-57.53412966395484
 20
-9.204186728024201
 30
0.0
  0
VERTEX
  5
AE9
  8
0
  6
CONTINU
 10
-57.53265629047575
 20
-9.204171230141018
 30
0.0
  0
VERTEX
  5
AEA
  8
0
  6
CONTINU
 10
-57.53120855159883
 20
-9.203862150371881
 30
0.0
  0
SEQEND
  5
D9C
  8
0
  6
CONTINU
  0
POLYLINE
  5
649
  8
0
  6
CONTINU
 66
     1
 10
0.0
 20
0.0
 30
0.0
  0
VERTEX
  5
AEB
  8
0
  6
CONTINU
 10
-57.50914199807624
 20
-9.216880514022597
 30
0.0
  0
VERTEX
  5
AEC
  8
0
  6
CONTINU
 10
-57.51028318729844
 20
-9.217786735121594
 30
0.0
  0
VERTEX
  5
AED
  8
0
  6
CONTINU
 10
-57.51114327891621
 20
-9.218922514483335
 30
0.0
  0
VERTEX
  5
AEE
  8
0
  6
CONTINU
 10
-57.51160671167667
 20
-9.220260917098349
 30
0.0
  0
SEQEND
  5
D9D
  8
0
  6
CONTINU
  0
POLYLINE
  5
64F
  8
0
  6
CONTINU
 66
     1
 10
0.0
 20
0.0
 30
0.0
  0
VERTEX
  5
AEF
  8
0
  6
CONTINU
 10
-57.52475935984299
 20
-9.216879265765648
 30
0.0
  0
VERTEX
  5
AF0
  8
0
  6
CONTINU
 10
-57.52359907699564
 20
-9.217804006784625
 30
0.0
  0
VERTEX
  5
AF1
  8
0
  6
CONTINU
 10
-57.52274514822636
 20
-9.218942795857467
 30
0.0
  0
VERTEX
  5
AF2
  8
0
  6
CONTINU
 10
-57.52229230211909
 20
-9.220263980594309
 30
0.0
  0
SEQEND
  5
D9E
  8
0
  6
CONTINU
  0
POLYLINE
  5
66F
  8
0
  6
CONTINU
 66
     1
 10
0.0
 20
0.0
 30
0.0
  0
VERTEX
  5
AF3
  8
0
  6
CONTINU
 10
-57.52260219255168
 20
-9.251626815181247
 30
0.0
 42
-0.0647915574040603
  0
VERTEX
  5
AF4
  8
0
  6
CONTINU
 10
-57.52706553360568
 20
-9.249670005456005
 30
0.0
  0
SEQEND
  5
D9F
  8
0
  6
CONTINU
  0
POLYLINE
  5
675
  8
0
  6
CONTINU
 66
     1
 10
0.0
 20
0.0
 30
0.0
  0
VERTEX
  5
AF5
  8
0
  6
CONTINU
 10
-57.50683405389525
 20
-9.24980497856111
 30
0.0
 42
-0.066498853425374
  0
VERTEX
  5
AF6
  8
0
  6
CONTINU
 10
-57.51129739494925
 20
-9.251626819663318
 30
0.0
  0
SEQEND
  5
DA0
  8
0
  6
CONTINU
  0
POLYLINE
  5
681
  8
0
  6
CONTINU
 66
     1
 10
0.0
 20
0.0
 30
0.0
  0
VERTEX
  5
AF7
  8
0
  6
CONTINU
 10
-57.53181159925611
 20
-9.23488184486934
 30
0.0
  0
VERTEX
  5
AF8
  8
0
  6
CONTINU
 10
-57.5311072641096
 20
-9.233304012228816
 30
0.0
  0
SEQEND
  5
DA1
  8
0
  6
CONTINU
  0
POLYLINE
  5
687
  8
0
  6
CONTINU
 66
     1
 10
0.0
 20
0.0
 30
0.0
  0
VERTEX
  5
AF9
  8
0
  6
CONTINU
 10
-57.5325191121914
 20
-9.237290017136145
 30
0.0
 42
-0.0295484065128401
  0
VERTEX
  5
AFA
  8
0
  6
CONTINU
 10
-57.53205732435122
 20
-9.235568829916563
 30
0.0
  0
SEQEND
  5
DA2
  8
0
  6
CONTINU
  0
POLYLINE
  5
68D
  8
0
  6
CONTINU
 66
     1
 10
0.0
 20
0.0
 30
0.0
  0
VERTEX
  5
AFB
  8
0
  6
CONTINU
 10
-57.53292908728352
 20
-9.240923274041943
 30
0.0
 42
-0.0426323777357409
  0
VERTEX
  5
AFC
  8
0
  6
CONTINU
 10
-57.53281258031353
 20
-9.239561338309828
 30
0.0
  0
SEQEND
  5
DA3
  8
0
  6
CONTINU
  0
POLYLINE
  5
693
  8
0
  6
CONTINU
 66
     1
 10
0.0
 20
0.0
 30
0.0
  0
VERTEX
  5
AFD
  8
0
  6
CONTINU
 10
-57.53272014206821
 20
-9.242879523508229
 30
0.0
 42
-0.0629256019277777
  0
VERTEX
  5
AFE
  8
0
  6
CONTINU
 10
-57.53292908728352
 20
-9.240923274041943
 30
0.0
  0
SEQEND
  5
DA4
  8
0
  6
CONTINU
  0
POLYLINE
  5
699
  8
0
  6
CONTINU
 66
     1
 10
0.0
 20
0.0
 30
0.0
  0
VERTEX
  5
AFF
  8
0
  6
CONTINU
 10
-57.52706553360568
 20
-9.249670005456005
 30
0.0
 42
0.1470970963449867
  0
VERTEX
  5
B00
  8
0
  6
CONTINU
 10
-57.52989127359395
 20
-9.241974723225939
 30
0.0
 42
0.0995034153454508
  0
VERTEX
  5
B01
  8
0
  6
CONTINU
 10
-57.5311072641096
 20
-9.240897237687836
 30
0.0
 42
0.1948169457612808
  0
VERTEX
  5
B02
  8
0
  6
CONTINU
 10
-57.53189726060912
 20
-9.24076847225194
 30
0.0
  0
VERTEX
  5
B03
  8
0
  6
CONTINU
 10
-57.53241953400597
 20
-9.241217638578403
 30
0.0
  0
VERTEX
  5
B04
  8
0
  6
CONTINU
 10
-57.5326471829062
 20
-9.241865988168163
 30
0.0
  0
VERTEX
  5
B05
  8
0
  6
CONTINU
 10
-57.53272014206821
 20
-9.242879523508229
 30
0.0
  0
SEQEND
  5
DA5
  8
0
  6
CONTINU
  0
POLYLINE
  5
6B7
  8
0
  6
CONTINU
 66
     1
 10
0.0
 20
0.0
 30
0.0
  0
VERTEX
  5
B06
  8
0
  6
CONTINU
 10
-57.52260219255168
 20
-9.251626815181247
 30
0.0
  0
VERTEX
  5
B07
  8
0
  6
CONTINU
 10
-57.52298552172795
 20
-9.251589770859214
 30
0.0
  0
VERTEX
  5
B08
  8
0
  6
CONTINU
 10
-57.52364600428562
 20
-9.251321079629058
 30
0.0
 42
0.0447848460530307
  0
VERTEX
  5
B09
  8
0
  6
CONTINU
 10
-57.52619448332277
 20
-9.250151124471127
 30
0.0
  0
VERTEX
  5
B0A
  8
0
  6
CONTINU
 10
-57.52706553360568
 20
-9.249670005456005
 30
0.0
  0
SEQEND
  5
DA6
  8
0
  6
CONTINU
  0
POLYLINE
  5
6C0
  8
0
  6
CONTINU
 66
     1
 10
0.0
 20
0.0
 30
0.0
  0
VERTEX
  5
B0B
  8
0
  6
CONTINU
 10
-57.51129739494925
 20
-9.251626819663318
 30
0.0
  0
VERTEX
  5
B0C
  8
0
  6
CONTINU
 10
-57.51150330580207
 20
-9.250340572674842
 30
0.0
  0
VERTEX
  5
B0D
  8
0
  6
CONTINU
 10
-57.51213485658735
 20
-9.24928015038344
 30
0.0
  0
VERTEX
  5
B0E
  8
0
  6
CONTINU
 10
-57.51311226643007
 20
-9.248383780877887
 30
0.0
 42
0.149266927549669
  0
VERTEX
  5
B0F
  8
0
  6
CONTINU
 10
-57.51694979375046
 20
-9.247256737073757
 30
0.0
 42
0.1492669275496613
  0
VERTEX
  5
B10
  8
0
  6
CONTINU
 10
-57.52078732107086
 20
-9.248383780877887
 30
0.0
  0
VERTEX
  5
B11
  8
0
  6
CONTINU
 10
-57.52176473091358
 20
-9.24928015038344
 30
0.0
  0
VERTEX
  5
B12
  8
0
  6
CONTINU
 10
-57.5223962772168
 20
-9.25034056819277
 30
0.0
  0
VERTEX
  5
B13
  8
0
  6
CONTINU
 10
-57.52260219255168
 20
-9.251626815181247
 30
0.0
  0
SEQEND
  5
DA7
  8
0
  6
CONTINU
  0
POLYLINE
  5
6DB
  8
0
  6
CONTINU
 66
     1
 10
0.0
 20
0.0
 30
0.0
  0
VERTEX
  5
B14
  8
0
  6
CONTINU
 10
-57.50683405389525
 20
-9.24980497856111
 30
0.0
 42
0.0386573517292988
  0
VERTEX
  5
B15
  8
0
  6
CONTINU
 10
-57.51025357873324
 20
-9.251321079629058
 30
0.0
  0
VERTEX
  5
B16
  8
0
  6
CONTINU
 10
-57.51091406577298
 20
-9.251589770859214
 30
0.0
  0
VERTEX
  5
B17
  8
0
  6
CONTINU
 10
-57.51129739494925
 20
-9.251626819663318
 30
0.0
  0
SEQEND
  5
DA8
  8
0
  6
CONTINU
  0
POLYLINE
  5
6E4
  8
0
  6
CONTINU
 66
     1
 10
0.0
 20
0.0
 30
0.0
  0
VERTEX
  5
B18
  8
0
  6
CONTINU
 10
-57.50117944319169
 20
-9.242879523508229
 30
0.0
  0
VERTEX
  5
B19
  8
0
  6
CONTINU
 10
-57.50125240235371
 20
-9.24186597920402
 30
0.0
  0
VERTEX
  5
B1A
  8
0
  6
CONTINU
 10
-57.5014800490129
 20
-9.241217634096332
 30
0.0
  0
VERTEX
  5
B1B
  8
0
  6
CONTINU
 10
-57.50184226314971
 20
-9.240834896553515
 30
0.0
 42
0.1948176278931811
  0
VERTEX
  5
B1C
  8
0
  6
CONTINU
 10
-57.50279231890926
 20
-9.240897237687836
 30
0.0
 42
0.0995061125857655
  0
VERTEX
  5
B1D
  8
0
  6
CONTINU
 10
-57.50400831166596
 20
-9.241974723225939
 30
0.0
 42
0.150360521727052
  0
VERTEX
  5
B1E
  8
0
  6
CONTINU
 10
-57.50683405389525
 20
-9.24980497856111
 30
0.0
  0
SEQEND
  5
DA9
  8
0
  6
CONTINU
  0
POLYLINE
  5
702
  8
0
  6
CONTINU
 66
     1
 10
0.0
 20
0.0
 30
0.0
  0
VERTEX
  5
B1F
  8
0
  6
CONTINU
 10
-57.50097050021741
 20
-9.240923274041943
 30
0.0
 42
-0.0631989522754447
  0
VERTEX
  5
B20
  8
0
  6
CONTINU
 10
-57.50117944319169
 20
-9.242879523508229
 30
0.0
  0
SEQEND
  5
DAA
  8
0
  6
CONTINU
  0
POLYLINE
  5
708
  8
0
  6
CONTINU
 66
     1
 10
0.0
 20
0.0
 30
0.0
  0
VERTEX
  5
B21
  8
0
  6
CONTINU
 10
-57.5010870071874
 20
-9.239561338309828
 30
0.0
 42
-0.0425346863542752
  0
VERTEX
  5
B22
  8
0
  6
CONTINU
 10
-57.50097050021741
 20
-9.240923274041943
 30
0.0
  0
SEQEND
  5
DAB
  8
0
  6
CONTINU
  0
POLYLINE
  5
70E
  8
0
  6
CONTINU
 66
     1
 10
0.0
 20
0.0
 30
0.0
  0
VERTEX
  5
B23
  8
0
  6
CONTINU
 10
-57.50184226314971
 20
-9.235568829916563
 30
0.0
 42
-0.0295488755624204
  0
VERTEX
  5
B24
  8
0
  6
CONTINU
 10
-57.50138047755057
 20
-9.237290012654073
 30
0.0
  0
SEQEND
  5
DAC
  8
0
  6
CONTINU
  0
POLYLINE
  5
714
  8
0
  6
CONTINU
 66
     1
 10
0.0
 20
0.0
 30
0.0
  0
VERTEX
  5
B25
  8
0
  6
CONTINU
 10
-57.50279231890926
 20
-9.233304012228816
 30
0.0
  0
VERTEX
  5
B26
  8
0
  6
CONTINU
 10
-57.50208798600379
 20
-9.23488184486934
 30
0.0
  0
SEQEND
  5
DAD
  8
0
  6
CONTINU
  0
POLYLINE
  5
71A
  8
0
  6
CONTINU
 66
     1
 10
0.0
 20
0.0
 30
0.0
  0
VERTEX
  5
B27
  8
0
  6
CONTINU
 10
-57.53267576955906
 20
-9.238007269613092
 30
0.0
  0
VERTEX
  5
B28
  8
0
  6
CONTINU
 10
-57.5325191121914
 20
-9.237290017136145
 30
0.0
  0
SEQEND
  5
DAE
  8
0
  6
CONTINU
  0
POLYLINE
  5
720
  8
0
  6
CONTINU
 66
     1
 10
0.0
 20
0.0
 30
0.0
  0
VERTEX
  5
B29
  8
0
  6
CONTINU
 10
-57.50138047755057
 20
-9.237290012654073
 30
0.0
  0
VERTEX
  5
B2A
  8
0
  6
CONTINU
 10
-57.50122382018291
 20
-9.238007269613092
 30
0.0
  0
SEQEND
  5
DAF
  8
0
  6
CONTINU
  0
POLYLINE
  5
726
  8
0
  6
CONTINU
 66
     1
 10
0.0
 20
0.0
 30
0.0
  0
VERTEX
  5
B2B
  8
0
  6
CONTINU
 10
-57.53193157983161
 20
-9.235204710899303
 30
0.0
  0
VERTEX
  5
B2C
  8
0
  6
CONTINU
 10
-57.53181159925611
 20
-9.23488184486934
 30
0.0
  0
SEQEND
  5
DB0
  8
0
  6
CONTINU
  0
POLYLINE
  5
72C
  8
0
  6
CONTINU
 66
     1
 10
0.0
 20
0.0
 30
0.0
  0
VERTEX
  5
B2D
  8
0
  6
CONTINU
 10
-57.50208798600379
 20
-9.23488184486934
 30
0.0
  0
VERTEX
  5
B2E
  8
0
  6
CONTINU
 10
-57.50196800542829
 20
-9.235204710899303
 30
0.0
  0
SEQEND
  5
DB1
  8
0
  6
CONTINU
  0
POLYLINE
  5
732
  8
0
  6
CONTINU
 66
     1
 10
0.0
 20
0.0
 30
0.0
  0
VERTEX
  5
B2F
  8
0
  6
CONTINU
 10
-57.53193157983161
 20
-9.235204710899303
 30
0.0
  0
VERTEX
  5
B30
  8
0
  6
CONTINU
 10
-57.53205732435122
 20
-9.235568829916563
 30
0.0
  0
SEQEND
  5
DB2
  8
0
  6
CONTINU
  0
POLYLINE
  5
738
  8
0
  6
CONTINU
 66
     1
 10
0.0
 20
0.0
 30
0.0
  0
VERTEX
  5
B31
  8
0
  6
CONTINU
 10
-57.53267576955906
 20
-9.238007269613092
 30
0.0
 42
0.0441932016195085
  0
VERTEX
  5
B32
  8
0
  6
CONTINU
 10
-57.53281258031353
 20
-9.239561338309828
 30
0.0
  0
SEQEND
  5
DB3
  8
0
  6
CONTINU
  0
POLYLINE
  5
73E
  8
0
  6
CONTINU
 66
     1
 10
0.0
 20
0.0
 30
0.0
  0
VERTEX
  5
B33
  8
0
  6
CONTINU
 10
-57.50122382018291
 20
-9.238007269613092
 30
0.0
 42
-0.0441985291663429
  0
VERTEX
  5
B34
  8
0
  6
CONTINU
 10
-57.5010870071874
 20
-9.239561338309828
 30
0.0
  0
SEQEND
  5
DB4
  8
0
  6
CONTINU
  0
POLYLINE
  5
744
  8
0
  6
CONTINU
 66
     1
 10
0.0
 20
0.0
 30
0.0
  0
VERTEX
  5
B35
  8
0
  6
CONTINU
 10
-57.50196800542829
 20
-9.235204710899303
 30
0.0
  0
VERTEX
  5
B36
  8
0
  6
CONTINU
 10
-57.50184226314971
 20
-9.235568829916563
 30
0.0
  0
SEQEND
  5
DB5
  8
0
  6
CONTINU
  0
POLYLINE
  5
74A
  8
0
  6
CONTINU
 66
     1
 10
0.0
 20
0.0
 30
0.0
  0
VERTEX
  5
B37
  8
0
  6
CONTINU
 10
-57.53074285823975
 20
-9.232623248297019
 30
0.0
  0
VERTEX
  5
B38
  8
0
  6
CONTINU
 10
-57.53001176512561
 20
-9.231474605389696
 30
0.0
  0
SEQEND
  5
DB6
  8
0
  6
CONTINU
  0
POLYLINE
  5
750
  8
0
  6
CONTINU
 66
     1
 10
0.0
 20
0.0
 30
0.0
  0
VERTEX
  5
B39
  8
0
  6
CONTINU
 10
-57.50388780890585
 20
-9.231474626551934
 30
0.0
  0
VERTEX
  5
B3A
  8
0
  6
CONTINU
 10
-57.50315672702014
 20
-9.232623248297019
 30
0.0
  0
SEQEND
  5
DB7
  8
0
  6
CONTINU
  0
POLYLINE
  5
756
  8
0
  6
CONTINU
 66
     1
 10
0.0
 20
0.0
 30
0.0
  0
VERTEX
  5
B3B
  8
0
  6
CONTINU
 10
-57.52813099822767
 20
-9.22903958103175
 30
0.0
 42
-0.0322605993742796
  0
VERTEX
  5
B3C
  8
0
  6
CONTINU
 10
-57.52918372480207
 20
-9.230359228418022
 30
0.0
  0
SEQEND
  5
DB8
  8
0
  6
CONTINU
  0
POLYLINE
  5
75C
  8
0
  6
CONTINU
 66
     1
 10
0.0
 20
0.0
 30
0.0
  0
VERTEX
  5
B3D
  8
0
  6
CONTINU
 10
-57.52759425670359
 20
-9.22802766371954
 30
0.0
  0
VERTEX
  5
B3E
  8
0
  6
CONTINU
 10
-57.52843750469617
 20
-9.229542693572366
 30
0.0
  0
SEQEND
  5
DB9
  8
0
  6
CONTINU
  0
POLYLINE
  5
762
  8
0
  6
CONTINU
 66
     1
 10
0.0
 20
0.0
 30
0.0
  0
VERTEX
  5
B3F
  8
0
  6
CONTINU
 10
-57.52694553061982
 20
-9.226048842540518
 30
0.0
 42
-0.038922875296474
  0
VERTEX
  5
B40
  8
0
  6
CONTINU
 10
-57.52773476964924
 20
-9.228365141303023
 30
0.0
  0
SEQEND
  5
DBA
  8
0
  6
CONTINU
  0
POLYLINE
  5
768
  8
0
  6
CONTINU
 66
     1
 10
0.0
 20
0.0
 30
0.0
  0
VERTEX
  5
B41
  8
0
  6
CONTINU
 10
-57.50695405688111
 20
-9.226048842540518
 30
0.0
 42
0.038922875296446
  0
VERTEX
  5
B42
  8
0
  6
CONTINU
 10
-57.50616481785169
 20
-9.228365141303023
 30
0.0
  0
SEQEND
  5
DBB
  8
0
  6
CONTINU
  0
POLYLINE
  5
76E
  8
0
  6
CONTINU
 66
     1
 10
0.0
 20
0.0
 30
0.0
  0
VERTEX
  5
B43
  8
0
  6
CONTINU
 10
-57.5063053285563
 20
-9.22802766371954
 30
0.0
  0
VERTEX
  5
B44
  8
0
  6
CONTINU
 10
-57.50546208280476
 20
-9.229542693572366
 30
0.0
  0
SEQEND
  5
DBC
  8
0
  6
CONTINU
  0
POLYLINE
  5
774
  8
0
  6
CONTINU
 66
     1
 10
0.0
 20
0.0
 30
0.0
  0
VERTEX
  5
B45
  8
0
  6
CONTINU
 10
-57.50576858703223
 20
-9.22903958103175
 30
0.0
 42
0.032259832730188
  0
VERTEX
  5
B46
  8
0
  6
CONTINU
 10
-57.50471586269886
 20
-9.230359228418022
 30
0.0
  0
SEQEND
  5
DBD
  8
0
  6
CONTINU
  0
POLYLINE
  5
77A
  8
0
  6
CONTINU
 66
     1
 10
0.0
 20
0.0
 30
0.0
  0
VERTEX
  5
B47
  8
0
  6
CONTINU
 10
-57.52694553061982
 20
-9.226048842540518
 30
0.0
  0
VERTEX
  5
B48
  8
0
  6
CONTINU
 10
-57.52657568937018
 20
-9.225209607048727
 30
0.0
  0
SEQEND
  5
DBE
  8
0
  6
CONTINU
  0
POLYLINE
  5
780
  8
0
  6
CONTINU
 66
     1
 10
0.0
 20
0.0
 30
0.0
  0
VERTEX
  5
B49
  8
0
  6
CONTINU
 10
-57.50695405688111
 20
-9.226048842540518
 30
0.0
  0
VERTEX
  5
B4A
  8
0
  6
CONTINU
 10
-57.50675411166564
 20
-9.228799158227371
 30
0.0
  0
VERTEX
  5
B4B
  8
0
  6
CONTINU
 10
-57.50793895626553
 20
-9.231311574516177
 30
0.0
  0
VERTEX
  5
B4C
  8
0
  6
CONTINU
 10
-57.51044298822384
 20
-9.233491818578818
 30
0.0
  0
SEQEND
  5
DBF
  8
0
  6
CONTINU
  0
POLYLINE
  5
786
  8
0
  6
CONTINU
 66
     1
 10
0.0
 20
0.0
 30
0.0
  0
VERTEX
  5
B4D
  8
0
  6
CONTINU
 10
-57.50732390398591
 20
-9.225209583591692
 30
0.0
  0
VERTEX
  5
B4E
  8
0
  6
CONTINU
 10
-57.50695405688111
 20
-9.226048842540518
 30
0.0
  0
SEQEND
  5
DC0
  8
0
  6
CONTINU
  0
POLYLINE
  5
78C
  8
0
  6
CONTINU
 66
     1
 10
0.0
 20
0.0
 30
0.0
  0
VERTEX
  5
B4F
  8
0
  6
CONTINU
 10
-57.52632033541211
 20
-9.224709998441448
 30
0.0
  0
VERTEX
  5
B50
  8
0
  6
CONTINU
 10
-57.52565165514542
 20
-9.2237076144956
 30
0.0
  0
VERTEX
  5
B51
  8
0
  6
CONTINU
 10
-57.52478989171494
 20
-9.222808746235113
 30
0.0
  0
VERTEX
  5
B52
  8
0
  6
CONTINU
 10
-57.52376064521833
 20
-9.222024402729314
 30
0.0
  0
SEQEND
  5
DC1
  8
0
  6
CONTINU
  0
POLYLINE
  5
792
  8
0
  6
CONTINU
 66
     1
 10
0.0
 20
0.0
 30
0.0
  0
VERTEX
  5
B53
  8
0
  6
CONTINU
 10
-57.51014410861572
 20
-9.222021017663833
 30
0.0
  0
VERTEX
  5
B54
  8
0
  6
CONTINU
 10
-57.50907952696184
 20
-9.222835654352153
 30
0.0
  0
VERTEX
  5
B55
  8
0
  6
CONTINU
 10
-57.50822277896951
 20
-9.223738948658374
 30
0.0
  0
VERTEX
  5
B56
  8
0
  6
CONTINU
 10
-57.50757925208882
 20
-9.224709998441448
 30
0.0
  0
SEQEND
  5
DC2
  8
0
  6
CONTINU
  0
POLYLINE
  5
798
  8
0
  6
CONTINU
 66
     1
 10
0.0
 20
0.0
 30
0.0
  0
VERTEX
  5
B57
  8
0
  6
CONTINU
 10
-57.52632033541211
 20
-9.224709998441448
 30
0.0
 42
0.1144408597211209
  0
VERTEX
  5
B58
  8
0
  6
CONTINU
 10
-57.52657568937018
 20
-9.225209607048727
 30
0.0
  0
SEQEND
  5
DC3
  8
0
  6
CONTINU
  0
POLYLINE
  5
79E
  8
0
  6
CONTINU
 66
     1
 10
0.0
 20
0.0
 30
0.0
  0
VERTEX
  5
B59
  8
0
  6
CONTINU
 10
-57.50757925208882
 20
-9.224709998441448
 30
0.0
 42
-0.1144359285330965
  0
VERTEX
  5
B5A
  8
0
  6
CONTINU
 10
-57.50732390398591
 20
-9.225209583591692
 30
0.0
  0
SEQEND
  5
DC4
  8
0
  6
CONTINU
  0
POLYLINE
  5
7B5
  8
0
  6
CONTINU
 66
     1
 10
0.0
 20
0.0
 30
0.0
  0
VERTEX
  5
B5B
  8
0
  6
CONTINU
 10
-57.51129739494925
 20
-9.251626819663318
 30
0.0
  0
VERTEX
  5
B5C
  8
0
  6
CONTINU
 10
-57.52260219255168
 20
-9.251626815181247
 30
0.0
  0
SEQEND
  5
DC5
  8
0
  6
CONTINU
  0
POLYLINE
  5
7B6
  8
0
  6
CONTINU
 66
     1
 10
0.0
 20
0.0
 30
0.0
  0
VERTEX
  5
B5D
  8
0
  6
CONTINU
 10
-57.51060507172713
 20
-9.223504338736888
 30
0.0
  0
VERTEX
  5
B5E
  8
0
  6
CONTINU
 10
-57.51060799854748
 20
-9.222356101821065
 30
0.0
  0
SEQEND
  5
DC6
  8
0
  6
CONTINU
  0
POLYLINE
  5
7B7
  8
0
  6
CONTINU
 66
     1
 10
0.0
 20
0.0
 30
0.0
  0
VERTEX
  5
B5F
  8
0
  6
CONTINU
 10
-57.52329451607115
 20
-9.223504443337223
 30
0.0
  0
VERTEX
  5
B60
  8
0
  6
CONTINU
 10
-57.52327773198134
 20
-9.22236587459321
 30
0.0
  0
SEQEND
  5
DC7
  8
0
  6
CONTINU
  0
POLYLINE
  5
7B8
  8
0
  6
CONTINU
 66
     1
 10
0.0
 20
0.0
 30
0.0
  0
VERTEX
  5
B61
  8
0
  6
CONTINU
 10
-57.53074285823975
 20
-9.232623248297019
 30
0.0
  0
VERTEX
  5
B62
  8
0
  6
CONTINU
 10
-57.53110726410959
 20
-9.233304012228816
 30
0.0
  0
SEQEND
  5
DC8
  8
0
  6
CONTINU
  0
POLYLINE
  5
7B9
  8
0
  6
CONTINU
 66
     1
 10
0.0
 20
0.0
 30
0.0
  0
VERTEX
  5
B63
  8
0
  6
CONTINU
 10
-57.52918372480207
 20
-9.230359228418022
 30
0.0
  0
VERTEX
  5
B64
  8
0
  6
CONTINU
 10
-57.53001176512561
 20
-9.231474605389696
 30
0.0
  0
SEQEND
  5
DC9
  8
0
  6
CONTINU
  0
POLYLINE
  5
7BA
  8
0
  6
CONTINU
 66
     1
 10
0.0
 20
0.0
 30
0.0
  0
VERTEX
  5
B65
  8
0
  6
CONTINU
 10
-57.50117944319169
 20
-9.242879523508229
 30
0.0
  0
VERTEX
  5
B66
  8
0
  6
CONTINU
 10
-57.50683405389525
 20
-9.24980497856111
 30
0.0
  0
SEQEND
  5
DCA
  8
0
  6
CONTINU
  0
POLYLINE
  5
7BB
  8
0
  6
CONTINU
 66
     1
 10
0.0
 20
0.0
 30
0.0
  0
VERTEX
  5
B67
  8
0
  6
CONTINU
 10
-57.52706553360567
 20
-9.249670005456005
 30
0.0
  0
VERTEX
  5
B68
  8
0
  6
CONTINU
 10
-57.53272014206821
 20
-9.242879523508229
 30
0.0
  0
SEQEND
  5
DCB
  8
0
  6
CONTINU
  0
POLYLINE
  5
7BC
  8
0
  6
CONTINU
 66
     1
 10
0.0
 20
0.0
 30
0.0
  0
VERTEX
  5
B69
  8
0
  6
CONTINU
 10
-57.50388780890585
 20
-9.231474626551934
 30
0.0
  0
VERTEX
  5
B6A
  8
0
  6
CONTINU
 10
-57.50471586269885
 20
-9.230359228418022
 30
0.0
  0
SEQEND
  5
DCC
  8
0
  6
CONTINU
  0
POLYLINE
  5
7BD
  8
0
  6
CONTINU
 66
     1
 10
0.0
 20
0.0
 30
0.0
  0
VERTEX
  5
B6B
  8
0
  6
CONTINU
 10
-57.50279231890926
 20
-9.233304012228816
 30
0.0
  0
VERTEX
  5
B6C
  8
0
  6
CONTINU
 10
-57.50315672702014
 20
-9.232623248297019
 30
0.0
  0
SEQEND
  5
DCD
  8
0
  6
CONTINU
  0
POLYLINE
  5
7BE
  8
0
  6
CONTINU
 66
     1
 10
0.0
 20
0.0
 30
0.0
  0
VERTEX
  5
B6D
  8
0
  6
CONTINU
 10
-57.50804140745888
 20
-9.209484761916546
 30
0.0
  0
VERTEX
  5
B6E
  8
0
  6
CONTINU
 10
-57.50895159967334
 20
-9.210128701147822
 30
0.0
  0
SEQEND
  5
DCE
  8
0
  6
CONTINU
  0
POLYLINE
  5
7BF
  8
0
  6
CONTINU
 66
     1
 10
0.0
 20
0.0
 30
0.0
  0
VERTEX
  5
B6F
  8
0
  6
CONTINU
 10
-57.50895159967334
 20
-9.210128701147822
 30
0.0
  0
VERTEX
  5
B70
  8
0
  6
CONTINU
 10
-57.50974557550121
 20
-9.210690126423357
 30
0.0
  0
SEQEND
  5
DCF
  8
0
  6
CONTINU
  0
POLYLINE
  5
7C0
  8
0
  6
CONTINU
 66
     1
 10
0.0
 20
0.0
 30
0.0
  0
VERTEX
  5
B71
  8
0
  6
CONTINU
 10
-57.5138004661187
 20
-9.211756892104159
 30
0.0
  0
VERTEX
  5
B72
  8
0
  6
CONTINU
 10
-57.51678176252374
 20
-9.211781439138765
 30
0.0
  0
SEQEND
  5
DD0
  8
0
  6
CONTINU
  0
POLYLINE
  5
7C1
  8
0
  6
CONTINU
 66
     1
 10
0.0
 20
0.0
 30
0.0
  0
VERTEX
  5
B73
  8
0
  6
CONTINU
 10
-57.52415885481809
 20
-9.210686673512482
 30
0.0
  0
VERTEX
  5
B74
  8
0
  6
CONTINU
 10
-57.52494794748895
 20
-9.210128701147822
 30
0.0
  0
SEQEND
  5
DD1
  8
0
  6
CONTINU
  0
POLYLINE
  5
7C2
  8
0
  6
CONTINU
 66
     1
 10
0.0
 20
0.0
 30
0.0
  0
VERTEX
  5
B75
  8
0
  6
CONTINU
 10
-57.52494794748895
 20
-9.210128701147822
 30
0.0
  0
VERTEX
  5
B76
  8
0
  6
CONTINU
 10
-57.52585812625719
 20
-9.209484752952402
 30
0.0
  0
SEQEND
  5
DD2
  8
0
  6
CONTINU
  0
POLYLINE
  5
7C3
  8
0
  6
CONTINU
 66
     1
 10
0.0
 20
0.0
 30
0.0
  0
VERTEX
  5
B77
  8
0
  6
CONTINU
 10
-57.50959189946245
 20
-9.207323061009786
 30
0.0
  0
VERTEX
  5
B78
  8
0
  6
CONTINU
 10
-57.510502472653
 20
-9.207966933009986
 30
0.0
  0
SEQEND
  5
DD3
  8
0
  6
CONTINU
  0
POLYLINE
  5
7C4
  8
0
  6
CONTINU
 66
     1
 10
0.0
 20
0.0
 30
0.0
  0
VERTEX
  5
B79
  8
0
  6
CONTINU
 10
-57.510502472653
 20
-9.207966933009986
 30
0.0
  0
VERTEX
  5
B7A
  8
0
  6
CONTINU
 10
-57.51142050892416
 20
-9.208616082201182
 30
0.0
  0
SEQEND
  5
DD4
  8
0
  6
CONTINU
  0
POLYLINE
  5
7C5
  8
0
  6
CONTINU
 66
     1
 10
0.0
 20
0.0
 30
0.0
  0
VERTEX
  5
B7B
  8
0
  6
CONTINU
 10
-57.52248745151792
 20
-9.208612873486244
 30
0.0
  0
VERTEX
  5
B7C
  8
0
  6
CONTINU
 10
-57.52339707450928
 20
-9.207966933009986
 30
0.0
  0
SEQEND
  5
DD5
  8
0
  6
CONTINU
  0
POLYLINE
  5
7C6
  8
0
  6
CONTINU
 66
     1
 10
0.0
 20
0.0
 30
0.0
  0
VERTEX
  5
B7D
  8
0
  6
CONTINU
 10
-57.52339707450928
 20
-9.207966933009986
 30
0.0
  0
VERTEX
  5
B7E
  8
0
  6
CONTINU
 10
-57.52430764769984
 20
-9.207323061009786
 30
0.0
  0
SEQEND
  5
DD6
  8
0
  6
CONTINU
  0
POLYLINE
  5
7C7
  8
0
  6
CONTINU
 66
     1
 10
0.0
 20
0.0
 30
0.0
  0
VERTEX
  5
B7F
  8
0
  6
CONTINU
 10
-57.53527756283826
 20
-9.215464936857199
 30
0.0
  0
VERTEX
  5
B80
  8
0
  6
CONTINU
 10
-57.54199471809414
 20
-9.217398921632658
 30
0.0
  0
SEQEND
  5
DD7
  8
0
  6
CONTINU
  0
POLYLINE
  5
7C8
  8
0
  6
CONTINU
 66
     1
 10
0.0
 20
0.0
 30
0.0
  0
VERTEX
  5
B81
  8
0
  6
CONTINU
 10
-57.49844308019382
 20
-9.215513419426035
 30
0.0
  0
VERTEX
  5
B82
  8
0
  6
CONTINU
 10
-57.49190482906813
 20
-9.217398928355765
 30
0.0
  0
SEQEND
  5
DD8
  8
0
  6
CONTINU
  0
POLYLINE
  5
7C9
  8
0
  6
CONTINU
 66
     1
 10
0.0
 20
0.0
 30
0.0
  0
VERTEX
  5
B83
  8
0
  6
CONTINU
 10
-57.50969742535693
 20
-9.2217122320619
 30
0.0
  0
VERTEX
  5
B84
  8
0
  6
CONTINU
 10
-57.50878685664846
 20
-9.221068362302736
 30
0.0
  0
SEQEND
  5
DD9
  8
0
  6
CONTINU
  0
POLYLINE
  5
7CA
  8
0
  6
CONTINU
 66
     1
 10
0.0
 20
0.0
 30
0.0
  0
VERTEX
  5
B85
  8
0
  6
CONTINU
 10
-57.51060799854748
 20
-9.222356101821065
 30
0.0
  0
VERTEX
  5
B86
  8
0
  6
CONTINU
 10
-57.50969742535693
 20
-9.2217122320619
 30
0.0
  0
SEQEND
  5
DDA
  8
0
  6
CONTINU
  0
POLYLINE
  5
7CB
  8
0
  6
CONTINU
 66
     1
 10
0.0
 20
0.0
 30
0.0
  0
VERTEX
  5
B87
  8
0
  6
CONTINU
 10
-57.51156210161772
 20
-9.221257425048288
 30
0.0
  0
VERTEX
  5
B88
  8
0
  6
CONTINU
 10
-57.50978333322389
 20
-9.225433615460114
 30
0.0
  0
SEQEND
  5
DDB
  8
0
  6
CONTINU
  0
POLYLINE
  5
7CC
  8
0
  6
CONTINU
 66
     1
 10
0.0
 20
0.0
 30
0.0
  0
VERTEX
  5
B89
  8
0
  6
CONTINU
 10
-57.52233732176171
 20
-9.221257133453065
 30
0.0
  0
VERTEX
  5
B8A
  8
0
  6
CONTINU
 10
-57.52411621393839
 20
-9.2254336333884
 30
0.0
  0
SEQEND
  5
DDC
  8
0
  6
CONTINU
  0
POLYLINE
  5
7CD
  8
0
  6
CONTINU
 66
     1
 10
0.0
 20
0.0
 30
0.0
  0
VERTEX
  5
B8B
  8
0
  6
CONTINU
 10
-57.52327773198134
 20
-9.22236587459321
 30
0.0
  0
VERTEX
  5
B8C
  8
0
  6
CONTINU
 10
-57.52291008818929
 20
-9.222601879907694
 30
0.0
  0
SEQEND
  5
DDD
  8
0
  6
CONTINU
  0
POLYLINE
  5
7CE
  8
0
  6
CONTINU
 66
     1
 10
0.0
 20
0.0
 30
0.0
  0
VERTEX
  5
B8D
  8
0
  6
CONTINU
 10
-57.52424302967312
 20
-9.221683304771592
 30
0.0
  0
VERTEX
  5
B8E
  8
0
  6
CONTINU
 10
-57.52327773198134
 20
-9.22236587459321
 30
0.0
  0
SEQEND
  5
DDE
  8
0
  6
CONTINU
  0
POLYLINE
  5
7CF
  8
0
  6
CONTINU
 66
     1
 10
0.0
 20
0.0
 30
0.0
  0
VERTEX
  5
B8F
  8
0
  6
CONTINU
 10
-57.52511226023495
 20
-9.221068624503925
 30
0.0
  0
VERTEX
  5
B90
  8
0
  6
CONTINU
 10
-57.52424302967312
 20
-9.221683304771592
 30
0.0
  0
SEQEND
  5
DDF
  8
0
  6
CONTINU
  0
POLYLINE
  5
7D0
  8
0
  6
CONTINU
 66
     1
 10
0.0
 20
0.0
 30
0.0
  0
VERTEX
  5
B91
  8
0
  6
CONTINU
 10
-57.53547994181863
 20
-9.203924176111661
 30
0.0
  0
VERTEX
  5
B92
  8
0
  6
CONTINU
 10
-57.54199439090292
 20
-9.202046764044335
 30
0.0
  0
SEQEND
  5
DE0
  8
0
  6
CONTINU
  0
POLYLINE
  5
7D1
  8
0
  6
CONTINU
 66
     1
 10
0.0
 20
0.0
 30
0.0
  0
VERTEX
  5
B93
  8
0
  6
CONTINU
 10
-57.49841696764449
 20
-9.203923405195342
 30
0.0
  0
VERTEX
  5
B94
  8
0
  6
CONTINU
 10
-57.49190482458607
 20
-9.202045450797346
 30
0.0
  0
SEQEND
  5
DE1
  8
0
  6
CONTINU
  0
POLYLINE
  5
7D2
  8
0
  6
CONTINU
 66
     1
 10
0.0
 20
0.0
 30
0.0
  0
VERTEX
  5
B95
  8
0
  6
CONTINU
 10
-57.52560712531325
 20
-9.199195259556902
 30
0.0
  0
VERTEX
  5
B96
  8
0
  6
CONTINU
 10
-57.52475383793074
 20
-9.198591894709981
 30
0.0
  0
SEQEND
  5
DE2
  8
0
  6
CONTINU
  0
POLYLINE
  5
7D3
  8
0
  6
CONTINU
 66
     1
 10
0.0
 20
0.0
 30
0.0
  0
VERTEX
  5
B97
  8
0
  6
CONTINU
 10
-57.52475383793074
 20
-9.198591894709981
 30
0.0
  0
VERTEX
  5
B98
  8
0
  6
CONTINU
 10
-57.52371371517242
 20
-9.198048330954443
 30
0.0
  0
SEQEND
  5
DE3
  8
0
  6
CONTINU
  0
POLYLINE
  5
7D4
  8
0
  6
CONTINU
 66
     1
 10
0.0
 20
0.0
 30
0.0
  0
VERTEX
  5
B99
  8
0
  6
CONTINU
 10
-57.50959967137466
 20
-9.193580926300443
 30
0.0
  0
VERTEX
  5
B9A
  8
0
  6
CONTINU
 10
-57.51150325765126
 20
-9.197417962363284
 30
0.0
  0
SEQEND
  5
DE4
  8
0
  6
CONTINU
  0
POLYLINE
  5
7D5
  8
0
  6
CONTINU
 66
     1
 10
0.0
 20
0.0
 30
0.0
  0
VERTEX
  5
B9B
  8
0
  6
CONTINU
 10
-57.52429987578763
 20
-9.193580926300443
 30
0.0
  0
VERTEX
  5
B9C
  8
0
  6
CONTINU
 10
-57.52239304476903
 20
-9.197424479275647
 30
0.0
  0
SEQEND
  5
DE5
  8
0
  6
CONTINU
  0
POLYLINE
  5
7D6
  8
0
  6
CONTINU
 66
     1
 10
0.0
 20
0.0
 30
0.0
  0
VERTEX
  5
B9D
  8
0
  6
CONTINU
 10
-57.50828084303765
 20
-9.199203446298272
 30
0.0
  0
VERTEX
  5
B9E
  8
0
  6
CONTINU
 10
-57.51021524236705
 20
-9.1980103358026
 30
0.0
  0
SEQEND
  5
DE6
  8
0
  6
CONTINU
  0
POLYLINE
  5
7D7
  8
0
  6
CONTINU
 66
     1
 10
0.0
 20
0.0
 30
0.0
  0
VERTEX
  5
B9F
  8
0
  6
CONTINU
 10
-57.48170609245149
 20
-9.209942645872333
 30
0.0
  0
VERTEX
  5
BA0
  8
0
  6
CONTINU
 10
-57.48170609245149
 20
-9.209501733280778
 30
0.0
  0
SEQEND
  5
DE7
  8
0
  6
CONTINU
  0
POLYLINE
  5
7D8
  8
0
  6
CONTINU
 66
     1
 10
0.0
 20
0.0
 30
0.0
  0
VERTEX
  5
BA1
  8
0
  6
CONTINU
 10
-57.49844308019382
 20
-9.215513419426035
 30
0.0
  0
VERTEX
  5
BA2
  8
0
  6
CONTINU
 10
-57.49883554159104
 20
-9.215418531728563
 30
0.0
  0
SEQEND
  5
DE8
  8
0
  6
CONTINU
  0
POLYLINE
  5
7D9
  8
0
  6
CONTINU
 66
     1
 10
0.0
 20
0.0
 30
0.0
  0
VERTEX
  5
BA3
  8
0
  6
CONTINU
 10
-57.50751658376327
 20
-9.219866748031839
 30
0.0
  0
VERTEX
  5
BA4
  8
0
  6
CONTINU
 10
-57.50878685664846
 20
-9.221068362302736
 30
0.0
  0
SEQEND
  5
DE9
  8
0
  6
CONTINU
  0
POLYLINE
  5
7DA
  8
0
  6
CONTINU
 66
     1
 10
0.0
 20
0.0
 30
0.0
  0
VERTEX
  5
BA5
  8
0
  6
CONTINU
 10
-57.51060799854748
 20
-9.222356101821065
 30
0.0
  0
VERTEX
  5
BA6
  8
0
  6
CONTINU
 10
-57.51098446183724
 20
-9.222613607067888
 30
0.0
  0
SEQEND
  5
DEA
  8
0
  6
CONTINU
  0
POLYLINE
  5
7DB
  8
0
  6
CONTINU
 66
     1
 10
0.0
 20
0.0
 30
0.0
  0
VERTEX
  5
BA7
  8
0
  6
CONTINU
 10
-57.50959966689258
 20
-9.225863459575775
 30
0.0
  0
VERTEX
  5
BA8
  8
0
  6
CONTINU
 10
-57.50978333322389
 20
-9.225433615460114
 30
0.0
  0
SEQEND
  5
DEB
  8
0
  6
CONTINU
  0
POLYLINE
  5
7DC
  8
0
  6
CONTINU
 66
     1
 10
0.0
 20
0.0
 30
0.0
  0
VERTEX
  5
BA9
  8
0
  6
CONTINU
 10
-57.51156210161772
 20
-9.221257425048288
 30
0.0
  0
VERTEX
  5
BAA
  8
0
  6
CONTINU
 10
-57.51160671167667
 20
-9.220260917098349
 30
0.0
  0
SEQEND
  5
DEC
  8
0
  6
CONTINU
  0
POLYLINE
  5
7DD
  8
0
  6
CONTINU
 66
     1
 10
0.0
 20
0.0
 30
0.0
  0
VERTEX
  5
BAB
  8
0
  6
CONTINU
 10
-57.52233732176171
 20
-9.221257133453065
 30
0.0
  0
VERTEX
  5
BAC
  8
0
  6
CONTINU
 10
-57.52229230211909
 20
-9.220263980594309
 30
0.0
  0
SEQEND
  5
DED
  8
0
  6
CONTINU
  0
POLYLINE
  5
7DE
  8
0
  6
CONTINU
 66
     1
 10
0.0
 20
0.0
 30
0.0
  0
VERTEX
  5
BAD
  8
0
  6
CONTINU
 10
-57.52429987578763
 20
-9.225863455093702
 30
0.0
  0
VERTEX
  5
BAE
  8
0
  6
CONTINU
 10
-57.52411621393839
 20
-9.2254336333884
 30
0.0
  0
SEQEND
  5
DEE
  8
0
  6
CONTINU
  0
POLYLINE
  5
7DF
  8
0
  6
CONTINU
 66
     1
 10
0.0
 20
0.0
 30
0.0
  0
VERTEX
  5
BAF
  8
0
  6
CONTINU
 10
-57.52115527674143
 20
-9.235790078418502
 30
0.0
  0
VERTEX
  5
BB0
  8
0
  6
CONTINU
 10
-57.52135820253454
 20
-9.235657471847215
 30
0.0
  0
SEQEND
  5
DEF
  8
0
  6
CONTINU
  0
POLYLINE
  5
7E0
  8
0
  6
CONTINU
 66
     1
 10
0.0
 20
0.0
 30
0.0
  0
VERTEX
  5
BB1
  8
0
  6
CONTINU
 10
-57.55219345246976
 20
-9.209942648113369
 30
0.0
  0
VERTEX
  5
BB2
  8
0
  6
CONTINU
 10
-57.55219345246976
 20
-9.209501744485957
 30
0.0
  0
SEQEND
  5
DF0
  8
0
  6
CONTINU
  0
POLYLINE
  5
7E1
  8
0
  6
CONTINU
 66
     1
 10
0.0
 20
0.0
 30
0.0
  0
VERTEX
  5
BB3
  8
0
  6
CONTINU
 10
-57.52337877869289
 20
-9.202122729555896
 30
0.0
  0
VERTEX
  5
BB4
  8
0
  6
CONTINU
 10
-57.52328907251603
 20
-9.201432896696858
 30
0.0
  0
SEQEND
  5
DF1
  8
0
  6
CONTINU
  0
POLYLINE
  5
7E2
  8
0
  6
CONTINU
 66
     1
 10
0.0
 20
0.0
 30
0.0
  0
VERTEX
  5
BB5
  8
0
  6
CONTINU
 10
-57.51068297157661
 20
-9.201760393745312
 30
0.0
  0
VERTEX
  5
BB6
  8
0
  6
CONTINU
 10
-57.51059105856772
 20
-9.2014328976082
 30
0.0
  0
SEQEND
  5
DF2
  8
0
  6
CONTINU
  0
POLYLINE
  5
7E3
  8
0
  6
CONTINU
 66
     1
 10
0.0
 20
0.0
 30
0.0
  0
VERTEX
  5
BB7
  8
0
  6
CONTINU
 10
-57.51057032673543
 20
-9.202787378199144
 30
0.0
  0
VERTEX
  5
BB8
  8
0
  6
CONTINU
 10
-57.51057032673543
 20
-9.202489080644828
 30
0.0
  0
SEQEND
  5
DF3
  8
0
  6
CONTINU
  0
POLYLINE
  5
7E4
  8
0
  6
CONTINU
 66
     1
 10
0.0
 20
0.0
 30
0.0
  0
VERTEX
  5
BB9
  8
0
  6
CONTINU
 10
-57.52573838323149
 20
-9.20340663242091
 30
0.0
  0
VERTEX
  5
BBA
  8
0
  6
CONTINU
 10
-57.52553536082164
 20
-9.20186595692759
 30
0.0
  0
SEQEND
  5
DF4
  8
0
  6
CONTINU
  0
POLYLINE
  5
7E5
  8
0
  6
CONTINU
 66
     1
 10
0.0
 20
0.0
 30
0.0
  0
VERTEX
  5
BBB
  8
0
  6
CONTINU
 10
-57.50816115944872
 20
-9.20340663242091
 30
0.0
  0
VERTEX
  5
BBC
  8
0
  6
CONTINU
 10
-57.50836431139969
 20
-9.201864494900173
 30
0.0
  0
SEQEND
  5
DF5
  8
0
  6
CONTINU
  0
POLYLINE
  5
7E6
  8
0
  6
CONTINU
 66
     1
 10
0.0
 20
0.0
 30
0.0
  0
VERTEX
  5
BBD
  8
0
  6
CONTINU
 10
-57.71360219255166
 20
-9.251626819663318
 30
0.0
  0
VERTEX
  5
BBE
  8
0
  6
CONTINU
 10
-57.70229738598508
 20
-9.251626815181247
 30
0.0
  0
SEQEND
  5
DF6
  8
0
  6
CONTINU
  0
POLYLINE
  5
7E7
  8
0
  6
CONTINU
 66
     1
 10
0.0
 20
0.0
 30
0.0
  0
VERTEX
  5
BBF
  8
0
  6
CONTINU
 10
-57.71429451126677
 20
-9.223504333016672
 30
0.0
  0
VERTEX
  5
BC0
  8
0
  6
CONTINU
 10
-57.71429158895342
 20
-9.222356101821065
 30
0.0
  0
SEQEND
  5
DF7
  8
0
  6
CONTINU
  0
POLYLINE
  5
7E8
  8
0
  6
CONTINU
 66
     1
 10
0.0
 20
0.0
 30
0.0
  0
VERTEX
  5
BC1
  8
0
  6
CONTINU
 10
-57.70160506803991
 20
-9.223504429448273
 30
0.0
  0
VERTEX
  5
BC2
  8
0
  6
CONTINU
 10
-57.70155657125757
 20
-9.222323963126431
 30
0.0
  0
SEQEND
  5
DF8
  8
0
  6
CONTINU
  0
POLYLINE
  5
7E9
  8
0
  6
CONTINU
 66
     1
 10
0.0
 20
0.0
 30
0.0
  0
VERTEX
  5
BC3
  8
0
  6
CONTINU
 10
-57.69415672477908
 20
-9.232623248297019
 30
0.0
  0
VERTEX
  5
BC4
  8
0
  6
CONTINU
 10
-57.69379231442716
 20
-9.233304012228816
 30
0.0
  0
SEQEND
  5
DF9
  8
0
  6
CONTINU
  0
POLYLINE
  5
7EA
  8
0
  6
CONTINU
 66
     1
 10
0.0
 20
0.0
 30
0.0
  0
VERTEX
  5
BC5
  8
0
  6
CONTINU
 10
-57.69571585821676
 20
-9.230359228418022
 30
0.0
  0
VERTEX
  5
BC6
  8
0
  6
CONTINU
 10
-57.6948878223753
 20
-9.231474605389696
 30
0.0
  0
SEQEND
  5
DFA
  8
0
  6
CONTINU
  0
POLYLINE
  5
7EB
  8
0
  6
CONTINU
 66
     1
 10
0.0
 20
0.0
 30
0.0
  0
VERTEX
  5
BC7
  8
0
  6
CONTINU
 10
-57.72372014655026
 20
-9.242879523508229
 30
0.0
  0
VERTEX
  5
BC8
  8
0
  6
CONTINU
 10
-57.71806552912358
 20
-9.24980497856111
 30
0.0
  0
SEQEND
  5
DFB
  8
0
  6
CONTINU
  0
POLYLINE
  5
7EC
  8
0
  6
CONTINU
 66
     1
 10
0.0
 20
0.0
 30
0.0
  0
VERTEX
  5
BC9
  8
0
  6
CONTINU
 10
-57.69783404941316
 20
-9.249670005456005
 30
0.0
  0
VERTEX
  5
BCA
  8
0
  6
CONTINU
 10
-57.69217943198649
 20
-9.242879523508229
 30
0.0
  0
SEQEND
  5
DFC
  8
0
  6
CONTINU
  0
POLYLINE
  5
7ED
  8
0
  6
CONTINU
 66
     1
 10
0.0
 20
0.0
 30
0.0
  0
VERTEX
  5
BCB
  8
0
  6
CONTINU
 10
-57.72101175616144
 20
-9.231474605389696
 30
0.0
  0
VERTEX
  5
BCC
  8
0
  6
CONTINU
 10
-57.72018372031998
 20
-9.230359228418022
 30
0.0
  0
SEQEND
  5
DFD
  8
0
  6
CONTINU
  0
POLYLINE
  5
7EE
  8
0
  6
CONTINU
 66
     1
 10
0.0
 20
0.0
 30
0.0
  0
VERTEX
  5
BCD
  8
0
  6
CONTINU
 10
-57.72210726410957
 20
-9.233304012228816
 30
0.0
  0
VERTEX
  5
BCE
  8
0
  6
CONTINU
 10
-57.72174285375766
 20
-9.232623248297019
 30
0.0
  0
SEQEND
  5
DFE
  8
0
  6
CONTINU
  0
POLYLINE
  5
7EF
  8
0
  6
CONTINU
 66
     1
 10
0.0
 20
0.0
 30
0.0
  0
VERTEX
  5
BCF
  8
0
  6
CONTINU
 10
-57.71685816659582
 20
-9.209484761916546
 30
0.0
  0
VERTEX
  5
BD0
  8
0
  6
CONTINU
 10
-57.71594798334549
 20
-9.210128701147822
 30
0.0
  0
SEQEND
  5
DFF
  8
0
  6
CONTINU
  0
POLYLINE
  5
7F0
  8
0
  6
CONTINU
 66
     1
 10
0.0
 20
0.0
 30
0.0
  0
VERTEX
  5
BD1
  8
0
  6
CONTINU
 10
-57.71594798334549
 20
-9.210128701147822
 30
0.0
  0
VERTEX
  5
BD2
  8
0
  6
CONTINU
 10
-57.71515475489556
 20
-9.21068959518688
 30
0.0
  0
SEQEND
  5
E00
  8
0
  6
CONTINU
  0
POLYLINE
  5
7F1
  8
0
  6
CONTINU
 66
     1
 10
0.0
 20
0.0
 30
0.0
  0
VERTEX
  5
BD3
  8
0
  6
CONTINU
 10
-57.7110990272587
 20
-9.211757028807344
 30
0.0
  0
VERTEX
  5
BD4
  8
0
  6
CONTINU
 10
-57.70811782045057
 20
-9.21178143913913
 30
0.0
  0
SEQEND
  5
E01
  8
0
  6
CONTINU
  0
POLYLINE
  5
7F2
  8
0
  6
CONTINU
 66
     1
 10
0.0
 20
0.0
 30
0.0
  0
VERTEX
  5
BD5
  8
0
  6
CONTINU
 10
-57.70074017408535
 20
-9.210686282118763
 30
0.0
  0
VERTEX
  5
BD6
  8
0
  6
CONTINU
 10
-57.69995163104782
 20
-9.210128701147822
 30
0.0
  0
SEQEND
  5
E02
  8
0
  6
CONTINU
  0
POLYLINE
  5
7F3
  8
0
  6
CONTINU
 66
     1
 10
0.0
 20
0.0
 30
0.0
  0
VERTEX
  5
BD7
  8
0
  6
CONTINU
 10
-57.69995163104782
 20
-9.210128701147822
 30
0.0
  0
VERTEX
  5
BD8
  8
0
  6
CONTINU
 10
-57.6990414477975
 20
-9.209484752952402
 30
0.0
  0
SEQEND
  5
E03
  8
0
  6
CONTINU
  0
POLYLINE
  5
7F4
  8
0
  6
CONTINU
 66
     1
 10
0.0
 20
0.0
 30
0.0
  0
VERTEX
  5
BD9
  8
0
  6
CONTINU
 10
-57.71530591762016
 20
-9.207326359814507
 30
0.0
  0
VERTEX
  5
BDA
  8
0
  6
CONTINU
 10
-57.71439711484791
 20
-9.207966933009986
 30
0.0
  0
SEQEND
  5
E04
  8
0
  6
CONTINU
  0
POLYLINE
  5
7F5
  8
0
  6
CONTINU
 66
     1
 10
0.0
 20
0.0
 30
0.0
  0
VERTEX
  5
BDB
  8
0
  6
CONTINU
 10
-57.71439711484791
 20
-9.207966933009986
 30
0.0
  0
VERTEX
  5
BDC
  8
0
  6
CONTINU
 10
-57.71348736187646
 20
-9.20861276367549
 30
0.0
  0
SEQEND
  5
E05
  8
0
  6
CONTINU
  0
POLYLINE
  5
7F6
  8
0
  6
CONTINU
 66
     1
 10
0.0
 20
0.0
 30
0.0
  0
VERTEX
  5
BDD
  8
0
  6
CONTINU
 10
-57.70241212701885
 20
-9.208612873486244
 30
0.0
  0
VERTEX
  5
BDE
  8
0
  6
CONTINU
 10
-57.70150249954541
 20
-9.207966933009986
 30
0.0
  0
SEQEND
  5
E06
  8
0
  6
CONTINU
  0
POLYLINE
  5
7F7
  8
0
  6
CONTINU
 66
     1
 10
0.0
 20
0.0
 30
0.0
  0
VERTEX
  5
BDF
  8
0
  6
CONTINU
 10
-57.70150249954541
 20
-9.207966933009986
 30
0.0
  0
VERTEX
  5
BE0
  8
0
  6
CONTINU
 10
-57.70059193980107
 20
-9.207323061009786
 30
0.0
  0
SEQEND
  5
E07
  8
0
  6
CONTINU
  0
POLYLINE
  5
7F8
  8
0
  6
CONTINU
 66
     1
 10
0.0
 20
0.0
 30
0.0
  0
VERTEX
  5
BE1
  8
0
  6
CONTINU
 10
-57.6896220156985
 20
-9.215464936857199
 30
0.0
  0
VERTEX
  5
BE2
  8
0
  6
CONTINU
 10
-57.68290486044261
 20
-9.217398921632658
 30
0.0
  0
SEQEND
  5
E08
  8
0
  6
CONTINU
  0
POLYLINE
  5
7F9
  8
0
  6
CONTINU
 66
     1
 10
0.0
 20
0.0
 30
0.0
  0
VERTEX
  5
BE3
  8
0
  6
CONTINU
 10
-57.72645650506605
 20
-9.215513419426035
 30
0.0
  0
VERTEX
  5
BE4
  8
0
  6
CONTINU
 10
-57.7329947539507
 20
-9.217398928355765
 30
0.0
  0
SEQEND
  5
E09
  8
0
  6
CONTINU
  0
POLYLINE
  5
7FA
  8
0
  6
CONTINU
 66
     1
 10
0.0
 20
0.0
 30
0.0
  0
VERTEX
  5
BE5
  8
0
  6
CONTINU
 10
-57.71520214869776
 20
-9.2217122320619
 30
0.0
  0
VERTEX
  5
BE6
  8
0
  6
CONTINU
 10
-57.71611272637038
 20
-9.221068362302736
 30
0.0
  0
SEQEND
  5
E0A
  8
0
  6
CONTINU
  0
POLYLINE
  5
7FB
  8
0
  6
CONTINU
 66
     1
 10
0.0
 20
0.0
 30
0.0
  0
VERTEX
  5
BE7
  8
0
  6
CONTINU
 10
-57.71429158895342
 20
-9.222356101821065
 30
0.0
  0
VERTEX
  5
BE8
  8
0
  6
CONTINU
 10
-57.71520214869776
 20
-9.2217122320619
 30
0.0
  0
SEQEND
  5
E0B
  8
0
  6
CONTINU
  0
POLYLINE
  5
7FC
  8
0
  6
CONTINU
 66
     1
 10
0.0
 20
0.0
 30
0.0
  0
VERTEX
  5
BE9
  8
0
  6
CONTINU
 10
-57.71333748140111
 20
-9.221257425048288
 30
0.0
  0
VERTEX
  5
BEA
  8
0
  6
CONTINU
 10
-57.71511625427701
 20
-9.225433615460114
 30
0.0
  0
SEQEND
  5
E0C
  8
0
  6
CONTINU
  0
POLYLINE
  5
7FD
  8
0
  6
CONTINU
 66
     1
 10
0.0
 20
0.0
 30
0.0
  0
VERTEX
  5
BEB
  8
0
  6
CONTINU
 10
-57.70256225624124
 20
-9.221257145229163
 30
0.0
  0
VERTEX
  5
BEC
  8
0
  6
CONTINU
 10
-57.7007833601163
 20
-9.2254336333884
 30
0.0
  0
SEQEND
  5
E0D
  8
0
  6
CONTINU
  0
POLYLINE
  5
7FE
  8
0
  6
CONTINU
 66
     1
 10
0.0
 20
0.0
 30
0.0
  0
VERTEX
  5
BED
  8
0
  6
CONTINU
 10
-57.70155657125757
 20
-9.222323963126431
 30
0.0
  0
VERTEX
  5
BEE
  8
0
  6
CONTINU
 10
-57.70198949256293
 20
-9.222601878452755
 30
0.0
  0
SEQEND
  5
E0E
  8
0
  6
CONTINU
  0
POLYLINE
  5
7FF
  8
0
  6
CONTINU
 66
     1
 10
0.0
 20
0.0
 30
0.0
  0
VERTEX
  5
BEF
  8
0
  6
CONTINU
 10
-57.70069746569556
 20
-9.2217122320619
 30
0.0
  0
VERTEX
  5
BF0
  8
0
  6
CONTINU
 10
-57.70155657125757
 20
-9.222323963126431
 30
0.0
  0
SEQEND
  5
E0F
  8
0
  6
CONTINU
  0
POLYLINE
  5
800
  8
0
  6
CONTINU
 66
     1
 10
0.0
 20
0.0
 30
0.0
  0
VERTEX
  5
BF1
  8
0
  6
CONTINU
 10
-57.69978731830181
 20
-9.221068624503925
 30
0.0
  0
VERTEX
  5
BF2
  8
0
  6
CONTINU
 10
-57.70069746569556
 20
-9.2217122320619
 30
0.0
  0
SEQEND
  5
E10
  8
0
  6
CONTINU
  0
POLYLINE
  5
801
  8
0
  6
CONTINU
 66
     1
 10
0.0
 20
0.0
 30
0.0
  0
VERTEX
  5
BF3
  8
0
  6
CONTINU
 10
-57.6894196412002
 20
-9.203924176111661
 30
0.0
  0
VERTEX
  5
BF4
  8
0
  6
CONTINU
 10
-57.68290518315177
 20
-9.202046764044335
 30
0.0
  0
SEQEND
  5
E11
  8
0
  6
CONTINU
  0
POLYLINE
  5
802
  8
0
  6
CONTINU
 66
     1
 10
0.0
 20
0.0
 30
0.0
  0
VERTEX
  5
BF5
  8
0
  6
CONTINU
 10
-57.72648260865123
 20
-9.20392341191845
 30
0.0
  0
VERTEX
  5
BF6
  8
0
  6
CONTINU
 10
-57.7329947539507
 20
-9.202045450797346
 30
0.0
  0
SEQEND
  5
E12
  8
0
  6
CONTINU
  0
POLYLINE
  5
803
  8
0
  6
CONTINU
 66
     1
 10
0.0
 20
0.0
 30
0.0
  0
VERTEX
  5
BF7
  8
0
  6
CONTINU
 10
-57.69929282046577
 20
-9.199195008783642
 30
0.0
  0
VERTEX
  5
BF8
  8
0
  6
CONTINU
 10
-57.70014574060603
 20
-9.198591894709981
 30
0.0
  0
SEQEND
  5
E13
  8
0
  6
CONTINU
  0
POLYLINE
  5
804
  8
0
  6
CONTINU
 66
     1
 10
0.0
 20
0.0
 30
0.0
  0
VERTEX
  5
BF9
  8
0
  6
CONTINU
 10
-57.70014574060603
 20
-9.198591894709981
 30
0.0
  0
VERTEX
  5
BFA
  8
0
  6
CONTINU
 10
-57.70118587064856
 20
-9.198048333124097
 30
0.0
  0
SEQEND
  5
E14
  8
0
  6
CONTINU
  0
POLYLINE
  5
805
  8
0
  6
CONTINU
 66
     1
 10
0.0
 20
0.0
 30
0.0
  0
VERTEX
  5
BFB
  8
0
  6
CONTINU
 10
-57.71529991164418
 20
-9.193580926300443
 30
0.0
  0
VERTEX
  5
BFC
  8
0
  6
CONTINU
 10
-57.71339632859537
 20
-9.197417965440417
 30
0.0
  0
SEQEND
  5
E15
  8
0
  6
CONTINU
  0
POLYLINE
  5
806
  8
0
  6
CONTINU
 66
     1
 10
0.0
 20
0.0
 30
0.0
  0
VERTEX
  5
BFD
  8
0
  6
CONTINU
 10
-57.70059970274914
 20
-9.193580926300443
 30
0.0
  0
VERTEX
  5
BFE
  8
0
  6
CONTINU
 10
-57.70250653193212
 20
-9.197424485179251
 30
0.0
  0
SEQEND
  5
E16
  8
0
  6
CONTINU
  0
POLYLINE
  5
807
  8
0
  6
CONTINU
 66
     1
 10
0.0
 20
0.0
 30
0.0
  0
VERTEX
  5
BFF
  8
0
  6
CONTINU
 10
-57.71661930552401
 20
-9.199203841030597
 30
0.0
  0
VERTEX
  5
C00
  8
0
  6
CONTINU
 10
-57.71468434093461
 20
-9.198010335809322
 30
0.0
  0
SEQEND
  5
E17
  8
0
  6
CONTINU
  0
POLYLINE
  5
808
  8
0
  6
CONTINU
 66
     1
 10
0.0
 20
0.0
 30
0.0
  0
VERTEX
  5
C01
  8
0
  6
CONTINU
 10
-57.74319349280838
 20
-9.209942645872333
 30
0.0
  0
VERTEX
  5
C02
  8
0
  6
CONTINU
 10
-57.74319349280838
 20
-9.209501733280778
 30
0.0
  0
SEQEND
  5
E18
  8
0
  6
CONTINU
  0
POLYLINE
  5
809
  8
0
  6
CONTINU
 66
     1
 10
0.0
 20
0.0
 30
0.0
  0
VERTEX
  5
C03
  8
0
  6
CONTINU
 10
-57.72645650506605
 20
-9.215513419426035
 30
0.0
  0
VERTEX
  5
C04
  8
0
  6
CONTINU
 10
-57.72606403694572
 20
-9.215418531728563
 30
0.0
  0
SEQEND
  5
E19
  8
0
  6
CONTINU
  0
POLYLINE
  5
80A
  8
0
  6
CONTINU
 66
     1
 10
0.0
 20
0.0
 30
0.0
  0
VERTEX
  5
C05
  8
0
  6
CONTINU
 10
-57.71738299925556
 20
-9.219866748031839
 30
0.0
  0
VERTEX
  5
C06
  8
0
  6
CONTINU
 10
-57.71611272637038
 20
-9.221068362302736
 30
0.0
  0
SEQEND
  5
E1A
  8
0
  6
CONTINU
  0
POLYLINE
  5
80B
  8
0
  6
CONTINU
 66
     1
 10
0.0
 20
0.0
 30
0.0
  0
VERTEX
  5
C07
  8
0
  6
CONTINU
 10
-57.71429158895342
 20
-9.222356101821065
 30
0.0
  0
VERTEX
  5
C08
  8
0
  6
CONTINU
 10
-57.71391512331994
 20
-9.222613608671026
 30
0.0
  0
SEQEND
  5
E1B
  8
0
  6
CONTINU
  0
POLYLINE
  5
80C
  8
0
  6
CONTINU
 66
     1
 10
0.0
 20
0.0
 30
0.0
  0
VERTEX
  5
C09
  8
0
  6
CONTINU
 10
-57.71529991164418
 20
-9.225863459575775
 30
0.0
  0
VERTEX
  5
C0A
  8
0
  6
CONTINU
 10
-57.71511625427701
 20
-9.225433615460114
 30
0.0
  0
SEQEND
  5
E1C
  8
0
  6
CONTINU
  0
POLYLINE
  5
80D
  8
0
  6
CONTINU
 66
     1
 10
0.0
 20
0.0
 30
0.0
  0
VERTEX
  5
C0B
  8
0
  6
CONTINU
 10
-57.71333748140111
 20
-9.221257425048288
 30
0.0
  0
VERTEX
  5
C0C
  8
0
  6
CONTINU
 10
-57.71329287582424
 20
-9.220260917098349
 30
0.0
  0
SEQEND
  5
E1D
  8
0
  6
CONTINU
  0
POLYLINE
  5
80E
  8
0
  6
CONTINU
 66
     1
 10
0.0
 20
0.0
 30
0.0
  0
VERTEX
  5
C0D
  8
0
  6
CONTINU
 10
-57.70256225624124
 20
-9.221257145229163
 30
0.0
  0
VERTEX
  5
C0E
  8
0
  6
CONTINU
 10
-57.70260727641767
 20
-9.220263980594309
 30
0.0
  0
SEQEND
  5
E1E
  8
0
  6
CONTINU
  0
POLYLINE
  5
80F
  8
0
  6
CONTINU
 66
     1
 10
0.0
 20
0.0
 30
0.0
  0
VERTEX
  5
C0F
  8
0
  6
CONTINU
 10
-57.70059970274914
 20
-9.225863455093702
 30
0.0
  0
VERTEX
  5
C10
  8
0
  6
CONTINU
 10
-57.7007833601163
 20
-9.2254336333884
 30
0.0
  0
SEQEND
  5
E1F
  8
0
  6
CONTINU
  0
POLYLINE
  5
810
  8
0
  6
CONTINU
 66
     1
 10
0.0
 20
0.0
 30
0.0
  0
VERTEX
  5
C11
  8
0
  6
CONTINU
 10
-57.7037443062774
 20
-9.235790078418502
 30
0.0
  0
VERTEX
  5
C12
  8
0
  6
CONTINU
 10
-57.70354137600222
 20
-9.235657471847215
 30
0.0
  0
SEQEND
  5
E20
  8
0
  6
CONTINU
  0
POLYLINE
  5
811
  8
0
  6
CONTINU
 66
     1
 10
0.0
 20
0.0
 30
0.0
  0
VERTEX
  5
C13
  8
0
  6
CONTINU
 10
-57.67270612158494
 20
-9.209942648113369
 30
0.0
  0
VERTEX
  5
C14
  8
0
  6
CONTINU
 10
-57.67270612158494
 20
-9.209501744485957
 30
0.0
  0
SEQEND
  5
E21
  8
0
  6
CONTINU
  0
POLYLINE
  5
812
  8
0
  6
CONTINU
 66
     1
 10
0.0
 20
0.0
 30
0.0
  0
VERTEX
  5
C15
  8
0
  6
CONTINU
 10
-57.70152080432595
 20
-9.202122729555896
 30
0.0
  0
VERTEX
  5
C16
  8
0
  6
CONTINU
 10
-57.70161051465762
 20
-9.201432895530795
 30
0.0
  0
SEQEND
  5
E22
  8
0
  6
CONTINU
  0
POLYLINE
  5
813
  8
0
  6
CONTINU
 66
     1
 10
0.0
 20
0.0
 30
0.0
  0
VERTEX
  5
C17
  8
0
  6
CONTINU
 10
-57.71421660740804
 20
-9.201760392767904
 30
0.0
  0
VERTEX
  5
C18
  8
0
  6
CONTINU
 10
-57.71430851725975
 20
-9.201432898803533
 30
0.0
  0
SEQEND
  5
E23
  8
0
  6
CONTINU
  0
POLYLINE
  5
814
  8
0
  6
CONTINU
 66
     1
 10
0.0
 20
0.0
 30
0.0
  0
VERTEX
  5
C19
  8
0
  6
CONTINU
 10
-57.71432925628341
 20
-9.202787378199144
 30
0.0
  0
VERTEX
  5
C1A
  8
0
  6
CONTINU
 10
-57.71432925628341
 20
-9.202489080644828
 30
0.0
  0
SEQEND
  5
E24
  8
0
  6
CONTINU
  0
POLYLINE
  5
815
  8
0
  6
CONTINU
 66
     1
 10
0.0
 20
0.0
 30
0.0
  0
VERTEX
  5
C1B
  8
0
  6
CONTINU
 10
-57.6991611908232
 20
-9.20340663242091
 30
0.0
  0
VERTEX
  5
C1C
  8
0
  6
CONTINU
 10
-57.69936422681207
 20
-9.201865955459828
 30
0.0
  0
SEQEND
  5
E25
  8
0
  6
CONTINU
  0
POLYLINE
  5
816
  8
0
  6
CONTINU
 66
     1
 10
0.0
 20
0.0
 30
0.0
  0
VERTEX
  5
C1D
  8
0
  6
CONTINU
 10
-57.71673842357011
 20
-9.20340663242091
 30
0.0
  0
VERTEX
  5
C1E
  8
0
  6
CONTINU
 10
-57.71653527316062
 20
-9.201864492657212
 30
0.0
  0
SEQEND
  5
E26
  8
0
  6
CONTINU
  0
POLYLINE
  5
817
  8
0
  6
CONTINU
 66
     1
 10
0.0
 20
0.0
 30
0.0
  0
VERTEX
  5
C1F
  8
0
  6
CONTINU
 10
-57.50332039882994
 20
-9.2657425679816
 30
0.0
  0
VERTEX
  5
C20
  8
0
  6
CONTINU
 10
-57.5033203988299
 20
-9.245501647464355
 30
0.0
  0
SEQEND
  5
E27
  8
0
  6
CONTINU
  0
POLYLINE
  5
818
  8
0
  6
CONTINU
 66
     1
 10
0.0
 20
0.0
 30
0.0
  0
VERTEX
  5
C21
  8
0
  6
CONTINU
 10
-57.53941568423802
 20
-9.25623372817199
 30
0.0
 42
0.4061916831910141
  0
VERTEX
  5
C22
  8
0
  6
CONTINU
 10
-57.53058414623757
 20
-9.246545807886108
 30
0.0
  0
SEQEND
  5
E28
  8
0
  6
CONTINU
  0
POLYLINE
  5
819
  8
0
  6
CONTINU
 66
     1
 10
0.0
 20
0.0
 30
0.0
  0
VERTEX
  5
C23
  8
0
  6
CONTINU
 10
-57.72157918642997
 20
-9.251790854447327
 30
0.0
 42
1.132016361746329
  0
VERTEX
  5
C24
  8
0
  6
CONTINU
 10
-57.6913191616797
 20
-9.27593247066933
 30
0.0
  0
SEQEND
  5
E29
  8
0
  6
CONTINU
  0
POLYLINE
  5
81A
  8
0
  6
CONTINU
 66
     1
 10
0.0
 20
0.0
 30
0.0
  0
VERTEX
  5
C25
  8
0
  6
CONTINU
 10
-57.72157918642997
 20
-9.249879488262215
 30
0.0
 42
1.201190369480844
  0
VERTEX
  5
C26
  8
0
  6
CONTINU
 10
-57.68956001950447
 20
-9.275703257228972
 30
0.0
  0
SEQEND
  5
E2A
  8
0
  6
CONTINU
  0
POLYLINE
  5
81B
  8
0
  6
CONTINU
 66
     1
 10
0.0
 20
0.0
 30
0.0
  0
VERTEX
  5
C27
  8
0
  6
CONTINU
 10
-57.72157918642997
 20
-9.2465422861918
 30
0.0
 42
1.308272135340767
  0
VERTEX
  5
C28
  8
0
  6
CONTINU
 10
-57.68647360476578
 20
-9.275395864649209
 30
0.0
  0
SEQEND
  5
E2B
  8
0
  6
CONTINU
  0
POLYLINE
  5
81C
  8
0
  6
CONTINU
 66
     1
 10
0.0
 20
0.0
 30
0.0
  0
VERTEX
  5
C29
  8
0
  6
CONTINU
 10
-57.69025886791785
 20
-9.25458780091352
 30
0.0
 42
0.0623057523488041
  0
VERTEX
  5
C2A
  8
0
  6
CONTINU
 10
-57.69355190267298
 20
-9.250573580807707
 30
0.0
  0
SEQEND
  5
E2C
  8
0
  6
CONTINU
  0
POLYLINE
  5
81D
  8
0
  6
CONTINU
 66
     1
 10
0.0
 20
0.0
 30
0.0
  0
VERTEX
  5
C2B
  8
0
  6
CONTINU
 10
-57.68643745484938
 20
-9.256170170897208
 30
0.0
 42
0.1344432142186596
  0
VERTEX
  5
C2C
  8
0
  6
CONTINU
 10
-57.69431551796707
 20
-9.246545759774861
 30
0.0
  0
SEQEND
  5
E2D
  8
0
  6
CONTINU
  0
POLYLINE
  5
81E
  8
0
  6
CONTINU
 66
     1
 10
0.0
 20
0.0
 30
0.0
  0
VERTEX
  5
C2D
  8
0
  6
CONTINU
 10
-57.72157918642997
 20
-9.260397216415594
 30
0.0
  0
VERTEX
  5
C2E
  8
0
  6
CONTINU
 10
-57.72157918642997
 20
-9.265725125443925
 30
0.0
  0
SEQEND
  5
E2E
  8
0
  6
CONTINU
  0
POLYLINE
  5
81F
  8
0
  6
CONTINU
 66
     1
 10
0.0
 20
0.0
 30
0.0
  0
VERTEX
  5
C2F
  8
0
  6
CONTINU
 10
-57.68548387719805
 20
-9.25623373035122
 30
0.0
 42
0.0211635716068804
  0
VERTEX
  5
C30
  8
0
  6
CONTINU
 10
-57.67928103989043
 20
-9.25634302165071
 30
0.0
  0
SEQEND
  5
E2F
  8
0
  6
CONTINU
  0
POLYLINE
  5
820
  8
0
  6
CONTINU
 66
     1
 10
0.0
 20
0.0
 30
0.0
  0
VERTEX
  5
C31
  8
0
  6
CONTINU
 10
-57.67928059907235
 20
-9.27514220739874
 30
0.0
 42
0.0778084988439186
  0
VERTEX
  5
C32
  8
0
  6
CONTINU
 10
-57.70390753403912
 20
-9.278758770230533
 30
0.0
  0
SEQEND
  5
E30
  8
0
  6
CONTINU
  0
POLYLINE
  5
821
  8
0
  6
CONTINU
 66
     1
 10
0.0
 20
0.0
 30
0.0
  0
VERTEX
  5
C33
  8
0
  6
CONTINU
 10
-57.72157918642997
 20
-9.265725125443925
 30
0.0
 42
0.505826741998687
  0
VERTEX
  5
C34
  8
0
  6
CONTINU
 10
-57.70390753403912
 20
-9.278758770230533
 30
0.0
  0
SEQEND
  5
E31
  8
0
  6
CONTINU
  0
POLYLINE
  5
822
  8
0
  6
AXES
 66
     1
 10
0.0
 20
0.0
 30
0.0
  0
VERTEX
  5
C35
  8
0
  6
AXES
 10
-57.70794979823251
 20
-9.297268391539445
 30
0.0
  0
VERTEX
  5
C36
  8
0
  6
AXES
 10
-57.70794979823251
 20
-9.181000154617713
 30
0.0
  0
SEQEND
  5
E32
  8
0
  6
AXES
  0
POLYLINE
  5
823
  8
0
  6
CONTINU
 66
     1
 10
0.0
 20
0.0
 30
0.0
  0
VERTEX
  5
C37
  8
0
  6
CONTINU
 10
-57.72157918642997
 20
-9.265725125443925
 30
0.0
  0
VERTEX
  5
C38
  8
0
  6
CONTINU
 10
-57.72157918642997
 20
-9.245501638500212
 30
0.0
  0
SEQEND
  5
E33
  8
0
  6
CONTINU
  0
POLYLINE
  5
824
  8
0
  6
CONTINU
 66
     1
 10
0.0
 20
0.0
 30
0.0
  0
VERTEX
  5
C39
  8
0
  6
CONTINU
 10
-57.69431551796707
 20
-9.246545759774861
 30
0.0
 42
0.4061927700715125
  0
VERTEX
  5
C3A
  8
0
  6
CONTINU
 10
-57.68548387719805
 20
-9.25623373035122
 30
0.0
  0
SEQEND
  5
E34
  8
0
  6
CONTINU
  0
POLYLINE
  5
825
  8
0
  6
CONTINU
 66
     1
 10
0.0
 20
0.0
 30
0.0
  0
VERTEX
  5
C3B
  8
0
  6
CONTINU
 10
-57.60295735094562
 20
-9.082921697244467
 30
0.0
  0
VERTEX
  5
C3C
  8
0
  6
CONTINU
 10
-57.60201625036519
 20
-9.083860619538086
 30
0.0
  0
SEQEND
  5
E35
  8
0
  6
CONTINU
  0
POLYLINE
  5
826
  8
0
  6
CONTINU
 66
     1
 10
0.0
 20
0.0
 30
0.0
  0
VERTEX
  5
C3D
  8
0
  6
CONTINU
 10
-57.60182907905386
 20
-9.08950152182557
 30
0.0
  0
VERTEX
  5
C3E
  8
0
  6
CONTINU
 10
-57.60088825636187
 20
-9.090440327585327
 30
0.0
  0
SEQEND
  5
E36
  8
0
  6
CONTINU
  0
POLYLINE
  5
827
  8
0
  6
CONTINU
 66
     1
 10
0.0
 20
0.0
 30
0.0
  0
VERTEX
  5
C3F
  8
0
  6
CONTINU
 10
-57.62401173004341
 20
-9.095422956976456
 30
0.0
  0
VERTEX
  5
C40
  8
0
  6
CONTINU
 10
-57.62307128384543
 20
-9.096361995803939
 30
0.0
  0
SEQEND
  5
E37
  8
0
  6
CONTINU
  0
POLYLINE
  5
828
  8
0
  6
CONTINU
 66
     1
 10
0.0
 20
0.0
 30
0.0
  0
VERTEX
  5
C41
  8
0
  6
CONTINU
 10
-57.62654917422021
 20
-9.235256560298943
 30
0.0
  0
VERTEX
  5
C42
  8
0
  6
CONTINU
 10
-57.62584418020917
 20
-9.235663926030366
 30
0.0
  0
SEQEND
  5
E38
  8
0
  6
CONTINU
  0
POLYLINE
  5
829
  8
0
  6
CONTINU
 66
     1
 10
0.0
 20
0.0
 30
0.0
  0
VERTEX
  5
C43
  8
0
  6
CONTINU
 10
-57.60337920352756
 20
-9.207465171813965
 30
0.0
  0
VERTEX
  5
C44
  8
0
  6
CONTINU
 10
-57.59835041776277
 20
-9.225324382892387
 30
0.0
  0
SEQEND
  5
E39
  8
0
  6
CONTINU
  0
POLYLINE
  5
82A
  8
0
  6
CONTINU
 66
     1
 10
0.0
 20
0.0
 30
0.0
  0
VERTEX
  5
C45
  8
0
  6
CONTINU
 10
-57.6227257740891
 20
-9.224257398996512
 30
0.0
  0
VERTEX
  5
C46
  8
0
  6
CONTINU
 10
-57.62241955477366
 20
-9.225324996660087
 30
0.0
  0
SEQEND
  5
E3A
  8
0
  6
CONTINU
  0
POLYLINE
  5
82B
  8
0
  6
CONTINU
 66
     1
 10
0.0
 20
0.0
 30
0.0
  0
VERTEX
  5
C47
  8
0
  6
CONTINU
 10
-57.62654917422021
 20
-9.235256560298943
 30
0.0
  0
VERTEX
  5
C48
  8
0
  6
CONTINU
 10
-57.62654917422021
 20
-9.225324382892387
 30
0.0
  0
SEQEND
  5
E3B
  8
0
  6
CONTINU
  0
POLYLINE
  5
82C
  8
0
  6
CONTINU
 66
     1
 10
0.0
 20
0.0
 30
0.0
  0
VERTEX
  5
C49
  8
0
  6
CONTINU
 10
-57.62410524398593
 20
-9.236603888164604
 30
0.0
  0
VERTEX
  5
C4A
  8
0
  6
CONTINU
 10
-57.62410524398593
 20
-9.235650495354657
 30
0.0
  0
SEQEND
  5
E3C
  8
0
  6
CONTINU
  0
POLYLINE
  5
82D
  8
0
  6
CONTINU
 66
     1
 10
0.0
 20
0.0
 30
0.0
  0
VERTEX
  5
C4B
  8
0
  6
CONTINU
 10
-57.622419123952
 20
-9.235256464439951
 30
0.0
  0
VERTEX
  5
C4C
  8
0
  6
CONTINU
 10
-57.62241955477366
 20
-9.225324996660087
 30
0.0
  0
SEQEND
  5
E3D
  8
0
  6
CONTINU
  0
POLYLINE
  5
82E
  8
0
  6
CONTINU
 66
     1
 10
0.0
 20
0.0
 30
0.0
  0
VERTEX
  5
C4D
  8
0
  6
CONTINU
 10
-57.62067443329454
 20
-9.082921161881819
 30
0.0
  0
VERTEX
  5
C4E
  8
0
  6
CONTINU
 10
-57.6206742190289
 20
-9.046437896823205
 30
0.0
  0
SEQEND
  5
E3E
  8
0
  6
CONTINU
  0
POLYLINE
  5
82F
  8
0
  6
CONTINU
 66
     1
 10
0.0
 20
0.0
 30
0.0
  0
VERTEX
  5
C4F
  8
0
  6
CONTINU
 10
-57.62288334161779
 20
-9.088560412280993
 30
0.0
  0
VERTEX
  5
C50
  8
0
  6
CONTINU
 10
-57.62288334161779
 20
-9.083860619538086
 30
0.0
  0
SEQEND
  5
E3F
  8
0
  6
CONTINU
  0
POLYLINE
  5
830
  8
0
  6
CONTINU
 66
     1
 10
0.0
 20
0.0
 30
0.0
  0
VERTEX
  5
C51
  8
0
  6
CONTINU
 10
-57.62307128384543
 20
-9.096821586668138
 30
0.0
  0
VERTEX
  5
C52
  8
0
  6
CONTINU
 10
-57.62307128384543
 20
-9.096361995803939
 30
0.0
  0
SEQEND
  5
E40
  8
0
  6
CONTINU
  0
POLYLINE
  5
831
  8
0
  6
CONTINU
 66
     1
 10
0.0
 20
0.0
 30
0.0
  0
VERTEX
  5
C53
  8
0
  6
CONTINU
 10
-57.62401173004341
 20
-9.095422956976456
 30
0.0
  0
VERTEX
  5
C54
  8
0
  6
CONTINU
 10
-57.62401126390796
 20
-9.090440327585327
 30
0.0
  0
SEQEND
  5
E41
  8
0
  6
CONTINU
  0
POLYLINE
  5
832
  8
0
  6
CONTINU
 66
     1
 10
0.0
 20
0.0
 30
0.0
  0
VERTEX
  5
C55
  8
0
  6
CONTINU
 10
-57.62222535557402
 20
-9.089500635298132
 30
0.0
  0
VERTEX
  5
C56
  8
0
  6
CONTINU
 10
-57.62222535557402
 20
-9.088560412280993
 30
0.0
  0
SEQEND
  5
E42
  8
0
  6
CONTINU
  0
POLYLINE
  5
833
  8
0
  6
CONTINU
 66
     1
 10
0.0
 20
0.0
 30
0.0
  0
VERTEX
  5
C57
  8
0
  6
CONTINU
 10
-57.62067443329158
 20
-9.207465171813965
 30
0.0
  0
VERTEX
  5
C58
  8
0
  6
CONTINU
 10
-57.62067443329158
 20
-9.122777335959265
 30
0.0
  0
SEQEND
  5
E43
  8
0
  6
CONTINU
  0
POLYLINE
  5
834
  8
0
  6
CONTINU
 66
     1
 10
0.0
 20
0.0
 30
0.0
  0
VERTEX
  5
C59
  8
0
  6
CONTINU
 10
-57.62067443329158
 20
-9.10611302231722
 30
0.0
  0
VERTEX
  5
C5A
  8
0
  6
CONTINU
 10
-57.62067443329158
 20
-9.098711894203312
 30
0.0
  0
SEQEND
  5
E44
  8
0
  6
CONTINU
  0
POLYLINE
  5
835
  8
0
  6
AXES
 66
     1
 10
0.0
 20
0.0
 30
0.0
  0
VERTEX
  5
C5B
  8
0
  6
AXES
 10
-57.61244979599149
 20
-9.282755085031429
 30
0.0
  0
VERTEX
  5
C5C
  8
0
  6
AXES
 10
-57.61244979599149
 20
-9.029545539852139
 30
0.0
  0
SEQEND
  5
E45
  8
0
  6
AXES
  0
POLYLINE
  5
836
  8
0
  6
CONTINU
 66
     1
 10
0.0
 20
0.0
 30
0.0
  0
VERTEX
  5
C5D
  8
0
  6
CONTINU
 10
-57.60867586058352
 20
-9.102713145801102
 30
0.0
  0
VERTEX
  5
C5E
  8
0
  6
CONTINU
 10
-57.60868994368457
 20
-9.100703925671176
 30
0.0
  0
SEQEND
  5
E46
  8
0
  6
CONTINU
  0
POLYLINE
  5
837
  8
0
  6
CONTINU
 66
     1
 10
0.0
 20
0.0
 30
0.0
  0
VERTEX
  5
C5F
  8
0
  6
CONTINU
 10
-57.61619560303841
 20
-9.102713143963943
 30
0.0
  0
VERTEX
  5
C60
  8
0
  6
CONTINU
 10
-57.61620962565072
 20
-9.100708850421334
 30
0.0
  0
SEQEND
  5
E47
  8
0
  6
CONTINU
  0
POLYLINE
  5
838
  8
0
  6
CONTINU
 66
     1
 10
0.0
 20
0.0
 30
0.0
  0
VERTEX
  5
C61
  8
0
  6
CONTINU
 10
-57.60079431214048
 20
-9.236603888164604
 30
0.0
  0
VERTEX
  5
C62
  8
0
  6
CONTINU
 10
-57.60079431214048
 20
-9.235650498425299
 30
0.0
  0
SEQEND
  5
E48
  8
0
  6
CONTINU
  0
POLYLINE
  5
839
  8
0
  6
CONTINU
 66
     1
 10
0.0
 20
0.0
 30
0.0
  0
VERTEX
  5
C63
  8
0
  6
CONTINU
 10
-57.59835041379326
 20
-9.235256672461315
 30
0.0
  0
VERTEX
  5
C64
  8
0
  6
CONTINU
 10
-57.59835041776277
 20
-9.225324382892387
 30
0.0
  0
SEQEND
  5
E49
  8
0
  6
CONTINU
  0
POLYLINE
  5
83A
  8
0
  6
CONTINU
 66
     1
 10
0.0
 20
0.0
 30
0.0
  0
VERTEX
  5
C65
  8
0
  6
CONTINU
 10
-57.60248024737521
 20
-9.23525647751446
 30
0.0
  0
VERTEX
  5
C66
  8
0
  6
CONTINU
 10
-57.60248000135274
 20
-9.2253247596769
 30
0.0
  0
SEQEND
  5
E4A
  8
0
  6
CONTINU
  0
POLYLINE
  5
83B
  8
0
  6
CONTINU
 66
     1
 10
0.0
 20
0.0
 30
0.0
  0
VERTEX
  5
C67
  8
0
  6
CONTINU
 10
-57.60422515869141
 20
-9.08292165893472
 30
0.0
  0
VERTEX
  5
C68
  8
0
  6
CONTINU
 10
-57.60422515869141
 20
-9.046497264189078
 30
0.0
  0
SEQEND
  5
E4B
  8
0
  6
CONTINU
  0
POLYLINE
  5
83C
  8
0
  6
CONTINU
 66
     1
 10
0.0
 20
0.0
 30
0.0
  0
VERTEX
  5
C69
  8
0
  6
CONTINU
 10
-57.60201625036519
 20
-9.088560412280993
 30
0.0
  0
VERTEX
  5
C6A
  8
0
  6
CONTINU
 10
-57.60201625036519
 20
-9.083860619538086
 30
0.0
  0
SEQEND
  5
E4C
  8
0
  6
CONTINU
  0
POLYLINE
  5
83D
  8
0
  6
CONTINU
 66
     1
 10
0.0
 20
0.0
 30
0.0
  0
VERTEX
  5
C6B
  8
0
  6
CONTINU
 10
-57.60182824538854
 20
-9.096826216912874
 30
0.0
  0
VERTEX
  5
C6C
  8
0
  6
CONTINU
 10
-57.60182824538854
 20
-9.096361995803939
 30
0.0
  0
SEQEND
  5
E4D
  8
0
  6
CONTINU
  0
POLYLINE
  5
83E
  8
0
  6
CONTINU
 66
     1
 10
0.0
 20
0.0
 30
0.0
  0
VERTEX
  5
C6D
  8
0
  6
CONTINU
 10
-57.60088825636187
 20
-9.095422042633844
 30
0.0
  0
VERTEX
  5
C6E
  8
0
  6
CONTINU
 10
-57.60088825636187
 20
-9.090440327585327
 30
0.0
  0
SEQEND
  5
E4E
  8
0
  6
CONTINU
  0
POLYLINE
  5
83F
  8
0
  6
CONTINU
 66
     1
 10
0.0
 20
0.0
 30
0.0
  0
VERTEX
  5
C6F
  8
0
  6
CONTINU
 10
-57.60267420055238
 20
-9.089501485092228
 30
0.0
  0
VERTEX
  5
C70
  8
0
  6
CONTINU
 10
-57.60267420055238
 20
-9.088560412280993
 30
0.0
  0
SEQEND
  5
E4F
  8
0
  6
CONTINU
  0
POLYLINE
  5
840
  8
0
  6
CONTINU
 66
     1
 10
0.0
 20
0.0
 30
0.0
  0
VERTEX
  5
C71
  8
0
  6
CONTINU
 10
-57.60422515869141
 20
-9.207465171813965
 30
0.0
  0
VERTEX
  5
C72
  8
0
  6
CONTINU
 10
-57.60422515869141
 20
-9.122793803090438
 30
0.0
  0
SEQEND
  5
E50
  8
0
  6
CONTINU
  0
POLYLINE
  5
841
  8
0
  6
CONTINU
 66
     1
 10
0.0
 20
0.0
 30
0.0
  0
VERTEX
  5
C73
  8
0
  6
CONTINU
 10
-57.60422515869141
 20
-9.106104890048426
 30
0.0
  0
VERTEX
  5
C74
  8
0
  6
CONTINU
 10
-57.60422515869141
 20
-9.098711900792377
 30
0.0
  0
SEQEND
  5
E51
  8
0
  6
CONTINU
  0
POLYLINE
  5
842
  8
0
  6
CONTINU
 66
     1
 10
0.0
 20
0.0
 30
0.0
  0
VERTEX
  5
C75
  8
0
  6
CONTINU
 10
-57.54561898143658
 20
-9.275142207289848
 30
0.0
  0
VERTEX
  5
C76
  8
0
  6
CONTINU
 10
-57.54561854681488
 20
-9.256343021891855
 30
0.0
  0
SEQEND
  5
E52
  8
0
  6
CONTINU
  0
POLYLINE
  5
843
  8
0
  6
AXES
 66
     1
 10
0.0
 20
0.0
 30
0.0
  0
VERTEX
  5
C77
  8
0
  6
AXES
 10
-57.51694979823254
 20
-9.297268391539445
 30
0.0
  0
VERTEX
  5
C78
  8
0
  6
AXES
 10
-57.51694979823254
 20
-9.181000154617713
 30
0.0
  0
SEQEND
  5
E53
  8
0
  6
AXES
  0
POLYLINE
  5
844
  8
0
  6
CONTINU
 66
     1
 10
0.0
 20
0.0
 30
0.0
  0
VERTEX
  5
C79
  8
0
  6
CONTINU
 10
-57.62119139543353
 20
-9.098711893996233
 30
0.0
  0
VERTEX
  5
C7A
  8
0
  6
CONTINU
 10
-57.60370816069287
 20
-9.09871190099947
 30
0.0
  0
SEQEND
  5
E54
  8
0
  6
CONTINU
  0
POLYLINE
  5
845
  8
0
  6
CONTINU
 66
     1
 10
0.0
 20
0.0
 30
0.0
  0
VERTEX
  5
C7B
  8
0
  6
CONTINU
 10
-57.62307128384543
 20
-9.096361995803939
 30
0.0
  0
VERTEX
  5
C7C
  8
0
  6
CONTINU
 10
-57.60182824538854
 20
-9.096361995803939
 30
0.0
  0
SEQEND
  5
E55
  8
0
  6
CONTINU
  0
POLYLINE
  5
846
  8
0
  6
CONTINU
 66
     1
 10
0.0
 20
0.0
 30
0.0
  0
VERTEX
  5
C7D
  8
0
  6
CONTINU
 10
-57.62401173004341
 20
-9.095422956976456
 30
0.0
  0
VERTEX
  5
C7E
  8
0
  6
CONTINU
 10
-57.60088825636187
 20
-9.095422042633844
 30
0.0
  0
SEQEND
  5
E56
  8
0
  6
CONTINU
  0
POLYLINE
  5
847
  8
0
  6
CONTINU
 66
     1
 10
0.0
 20
0.0
 30
0.0
  0
VERTEX
  5
C7F
  8
0
  6
CONTINU
 10
-57.62288334161779
 20
-9.088560412280993
 30
0.0
  0
VERTEX
  5
C80
  8
0
  6
CONTINU
 10
-57.60201625036519
 20
-9.088560412280993
 30
0.0
  0
SEQEND
  5
E57
  8
0
  6
CONTINU
  0
POLYLINE
  5
848
  8
0
  6
CONTINU
 66
     1
 10
0.0
 20
0.0
 30
0.0
  0
VERTEX
  5
C81
  8
0
  6
CONTINU
 10
-57.62307153484145
 20
-9.089500598518812
 30
0.0
  0
VERTEX
  5
C82
  8
0
  6
CONTINU
 10
-57.60182907905386
 20
-9.08950152182557
 30
0.0
  0
SEQEND
  5
E58
  8
0
  6
CONTINU
  0
POLYLINE
  5
849
  8
0
  6
CONTINU
 66
     1
 10
0.0
 20
0.0
 30
0.0
  0
VERTEX
  5
C83
  8
0
  6
CONTINU
 10
-57.62401126390796
 20
-9.090440327585327
 30
0.0
  0
VERTEX
  5
C84
  8
0
  6
CONTINU
 10
-57.60088825636187
 20
-9.090440327585327
 30
0.0
  0
SEQEND
  5
E59
  8
0
  6
CONTINU
  0
POLYLINE
  5
84A
  8
0
  6
CONTINU
 66
     1
 10
0.0
 20
0.0
 30
0.0
  0
VERTEX
  5
C85
  8
0
  6
CONTINU
 10
-57.62194332569869
 20
-9.082921123539299
 30
0.0
  0
VERTEX
  5
C86
  8
0
  6
CONTINU
 10
-57.60295735094562
 20
-9.082921697244467
 30
0.0
  0
SEQEND
  5
E5A
  8
0
  6
CONTINU
  0
POLYLINE
  5
84B
  8
0
  6
CONTINU
 66
     1
 10
0.0
 20
0.0
 30
0.0
  0
VERTEX
  5
C87
  8
0
  6
CONTINU
 10
-57.62288334161779
 20
-9.083860619538086
 30
0.0
  0
VERTEX
  5
C88
  8
0
  6
CONTINU
 10
-57.60201625036519
 20
-9.083860619538086
 30
0.0
  0
SEQEND
  5
E5B
  8
0
  6
CONTINU
  0
POLYLINE
  5
84C
  8
0
  6
AXES
 66
     1
 10
0.0
 20
0.0
 30
0.0
  0
VERTEX
  5
C89
  8
0
  6
AXES
 10
-57.72622313256035
 20
-9.265742602274207
 30
0.0
  0
VERTEX
  5
C8A
  8
0
  6
AXES
 10
-57.48216849097393
 20
-9.265742602274207
 30
0.0
  0
SEQEND
  5
E5C
  8
0
  6
AXES
  0
POLYLINE
  5
84D
  8
0
  6
CONTINU
 66
     1
 10
0.0
 20
0.0
 30
0.0
  0
VERTEX
  5
C8B
  8
0
  6
CONTINU
 10
-57.62584418020917
 20
-9.235663926030366
 30
0.0
  0
VERTEX
  5
C8C
  8
0
  6
CONTINU
 10
-57.59905538488137
 20
-9.235663926030366
 30
0.0
  0
SEQEND
  5
E5D
  8
0
  6
CONTINU
  0
POLYLINE
  5
84E
  8
0
  6
CONTINU
 66
     1
 10
0.0
 20
0.0
 30
0.0
  0
VERTEX
  5
C8D
  8
0
  6
CONTINU
 10
-57.62607918422211
 20
-9.236594641215751
 30
0.0
  0
VERTEX
  5
C8E
  8
0
  6
CONTINU
 10
-57.59882033608084
 20
-9.236603848112427
 30
0.0
  0
SEQEND
  5
E5E
  8
0
  6
CONTINU
  0
POLYLINE
  5
84F
  8
0
  6
CONTINU
 66
     1
 10
0.0
 20
0.0
 30
0.0
  0
VERTEX
  5
C8F
  8
0
  6
CONTINU
 10
-57.62152037949127
 20
-9.207465171813965
 30
0.0
  0
VERTEX
  5
C90
  8
0
  6
CONTINU
 10
-57.60337920352756
 20
-9.207465171813965
 30
0.0
  0
SEQEND
  5
E5F
  8
0
  6
CONTINU
  0
POLYLINE
  5
850
  8
0
  6
CONTINU
 66
     1
 10
0.0
 20
0.0
 30
0.0
  0
VERTEX
  5
C91
  8
0
  6
CONTINU
 10
-57.64436893868486
 20
-9.255396175522502
 30
0.0
 42
0.4064409250589862
  0
VERTEX
  5
C92
  8
0
  6
CONTINU
 10
-57.62607918422211
 20
-9.236594641215751
 30
0.0
  0
SEQEND
  5
E60
  8
0
  6
CONTINU
  0
POLYLINE
  5
851
  8
0
  6
CONTINU
 66
     1
 10
0.0
 20
0.0
 30
0.0
  0
VERTEX
  5
C93
  8
0
  6
CONTINU
 10
-57.60816968298416
 20
-9.099602411095448
 30
0.0
 42
0.0468461279040329
  0
VERTEX
  5
C94
  8
0
  6
CONTINU
 10
-57.60724612376136
 20
-9.098711899582273
 30
0.0
  0
SEQEND
  5
E61
  8
0
  6
CONTINU
  0
POLYLINE
  5
852
  8
0
  6
CONTINU
 66
     1
 10
0.0
 20
0.0
 30
0.0
  0
VERTEX
  5
C95
  8
0
  6
CONTINU
 10
-57.60816968298416
 20
-9.099602411095448
 30
0.0
 42
0.2291761451991339
  0
VERTEX
  5
C96
  8
0
  6
CONTINU
 10
-57.60868994368457
 20
-9.100703925671176
 30
0.0
  0
SEQEND
  5
E62
  8
0
  6
CONTINU
  0
POLYLINE
  5
853
  8
0
  6
CONTINU
 66
     1
 10
0.0
 20
0.0
 30
0.0
  0
VERTEX
  5
C97
  8
0
  6
CONTINU
 10
-57.60370816069287
 20
-9.09871190099947
 30
0.0
 42
0.4151112534436229
  0
VERTEX
  5
C98
  8
0
  6
CONTINU
 10
-57.60182824538854
 20
-9.096826216912874
 30
0.0
  0
SEQEND
  5
E63
  8
0
  6
CONTINU
  0
POLYLINE
  5
854
  8
0
  6
CONTINU
 66
     1
 10
0.0
 20
0.0
 30
0.0
  0
VERTEX
  5
C99
  8
0
  6
CONTINU
 10
-57.61765346589465
 20
-9.098711895413418
 30
0.0
 42
0.0469524210493449
  0
VERTEX
  5
C9A
  8
0
  6
CONTINU
 10
-57.61672763185645
 20
-9.099604221875746
 30
0.0
  0
SEQEND
  5
E64
  8
0
  6
CONTINU
  0
POLYLINE
  5
855
  8
0
  6
CONTINU
 66
     1
 10
0.0
 20
0.0
 30
0.0
  0
VERTEX
  5
C9B
  8
0
  6
CONTINU
 10
-57.61620962565072
 20
-9.100708850421334
 30
0.0
 42
0.2300812466095841
  0
VERTEX
  5
C9C
  8
0
  6
CONTINU
 10
-57.61672763185645
 20
-9.099604221875746
 30
0.0
  0
SEQEND
  5
E65
  8
0
  6
CONTINU
  0
POLYLINE
  5
856
  8
0
  6
CONTINU
 66
     1
 10
0.0
 20
0.0
 30
0.0
  0
VERTEX
  5
C9D
  8
0
  6
CONTINU
 10
-57.62307128384543
 20
-9.096821586668138
 30
0.0
 42
0.4158333040751099
  0
VERTEX
  5
C9E
  8
0
  6
CONTINU
 10
-57.62119139543353
 20
-9.098711893996233
 30
0.0
  0
SEQEND
  5
E66
  8
0
  6
CONTINU
  0
POLYLINE
  5
857
  8
0
  6
CONTINU
 66
     1
 10
0.0
 20
0.0
 30
0.0
  0
VERTEX
  5
C9F
  8
0
  6
CONTINU
 10
-57.60248000135274
 20
-9.2253247596769
 30
0.0
 42
0.4687951772435376
  0
VERTEX
  5
CA0
  8
0
  6
CONTINU
 10
-57.61244979599149
 20
-9.225325039750402
 30
0.0
  0
SEQEND
  5
E67
  8
0
  6
CONTINU
  0
POLYLINE
  5
858
  8
0
  6
CONTINU
 66
     1
 10
0.0
 20
0.0
 30
0.0
  0
VERTEX
  5
CA1
  8
0
  6
CONTINU
 10
-57.61244979599149
 20
-9.235256846955311
 30
0.0
 42
0.0816834908208555
  0
VERTEX
  5
CA2
  8
0
  6
CONTINU
 10
-57.60248024737521
 20
-9.23525647751446
 30
0.0
  0
SEQEND
  5
E68
  8
0
  6
CONTINU
  0
POLYLINE
  5
859
  8
0
  6
CONTINU
 66
     1
 10
0.0
 20
0.0
 30
0.0
  0
VERTEX
  5
CA3
  8
0
  6
CONTINU
 10
-57.60248024737521
 20
-9.23525647751446
 30
0.0
 42
0.1971787671339123
  0
VERTEX
  5
CA4
  8
0
  6
CONTINU
 10
-57.59835041379326
 20
-9.235256672461315
 30
0.0
  0
SEQEND
  5
E69
  8
0
  6
CONTINU
  0
POLYLINE
  5
85A
  8
0
  6
CONTINU
 66
     1
 10
0.0
 20
0.0
 30
0.0
  0
VERTEX
  5
CA5
  8
0
  6
CONTINU
 10
-57.59863130684077
 20
-9.224326710889377
 30
0.0
 42
0.1861756350214979
  0
VERTEX
  5
CA6
  8
0
  6
CONTINU
 10
-57.59954891008435
 20
-9.223235528572872
 30
0.0
  0
SEQEND
  5
E6A
  8
0
  6
CONTINU
  0
POLYLINE
  5
85B
  8
0
  6
CONTINU
 66
     1
 10
0.0
 20
0.0
 30
0.0
  0
VERTEX
  5
CA7
  8
0
  6
CONTINU
 10
-57.6012749551403
 20
-9.223231607120638
 30
0.0
 42
0.1770181752316737
  0
VERTEX
  5
CA8
  8
0
  6
CONTINU
 10
-57.60217427225383
 20
-9.22425824704096
 30
0.0
  0
SEQEND
  5
E6B
  8
0
  6
CONTINU
  0
POLYLINE
  5
85C
  8
0
  6
CONTINU
 66
     1
 10
0.0
 20
0.0
 30
0.0
  0
VERTEX
  5
CA9
  8
0
  6
CONTINU
 10
-57.59954891008435
 20
-9.223235528572872
 30
0.0
 42
0.2850042409268426
  0
VERTEX
  5
CAA
  8
0
  6
CONTINU
 10
-57.6012749551403
 20
-9.223231607120638
 30
0.0
  0
SEQEND
  5
E6C
  8
0
  6
CONTINU
  0
POLYLINE
  5
85D
  8
0
  6
CONTINU
 66
     1
 10
0.0
 20
0.0
 30
0.0
  0
VERTEX
  5
CAB
  8
0
  6
CONTINU
 10
-57.61244979599149
 20
-9.225325039750402
 30
0.0
 42
0.4687944046434381
  0
VERTEX
  5
CAC
  8
0
  6
CONTINU
 10
-57.62241955477366
 20
-9.225324996660087
 30
0.0
  0
SEQEND
  5
E6D
  8
0
  6
CONTINU
  0
POLYLINE
  5
85E
  8
0
  6
CONTINU
 66
     1
 10
0.0
 20
0.0
 30
0.0
  0
VERTEX
  5
CAD
  8
0
  6
CONTINU
 10
-57.622419123952
 20
-9.235256464439951
 30
0.0
 42
0.0816816900697449
  0
VERTEX
  5
CAE
  8
0
  6
CONTINU
 10
-57.61244979599149
 20
-9.235256846955311
 30
0.0
  0
SEQEND
  5
E6E
  8
0
  6
CONTINU
  0
POLYLINE
  5
85F
  8
0
  6
CONTINU
 66
     1
 10
0.0
 20
0.0
 30
0.0
  0
VERTEX
  5
CAF
  8
0
  6
CONTINU
 10
-57.62654917422021
 20
-9.235256560298943
 30
0.0
 42
0.1971906082985945
  0
VERTEX
  5
CB0
  8
0
  6
CONTINU
 10
-57.622419123952
 20
-9.235256464439951
 30
0.0
  0
SEQEND
  5
E6F
  8
0
  6
CONTINU
  0
POLYLINE
  5
860
  8
0
  6
CONTINU
 66
     1
 10
0.0
 20
0.0
 30
0.0
  0
VERTEX
  5
CB1
  8
0
  6
CONTINU
 10
-57.62534428938916
 20
-9.223231825321461
 30
0.0
 42
0.1857832059791392
  0
VERTEX
  5
CB2
  8
0
  6
CONTINU
 10
-57.62626747893509
 20
-9.224323973086886
 30
0.0
  0
SEQEND
  5
E70
  8
0
  6
CONTINU
  0
POLYLINE
  5
861
  8
0
  6
CONTINU
 66
     1
 10
0.0
 20
0.0
 30
0.0
  0
VERTEX
  5
CB3
  8
0
  6
CONTINU
 10
-57.6227257740891
 20
-9.224257398996512
 30
0.0
 42
0.1768995784835363
  0
VERTEX
  5
CB4
  8
0
  6
CONTINU
 10
-57.62362534847525
 20
-9.223231386242968
 30
0.0
  0
SEQEND
  5
E71
  8
0
  6
CONTINU
  0
POLYLINE
  5
862
  8
0
  6
CONTINU
 66
     1
 10
0.0
 20
0.0
 30
0.0
  0
VERTEX
  5
CB5
  8
0
  6
CONTINU
 10
-57.62362534847525
 20
-9.223231386242968
 30
0.0
 42
0.2836661702136629
  0
VERTEX
  5
CB6
  8
0
  6
CONTINU
 10
-57.62534428938916
 20
-9.223231825321461
 30
0.0
  0
SEQEND
  5
E72
  8
0
  6
CONTINU
  0
POLYLINE
  5
863
  8
0
  6
CONTINU
 66
     1
 10
0.0
 20
0.0
 30
0.0
  0
VERTEX
  5
CB7
  8
0
  6
CONTINU
 10
-57.60422515869141
 20
-9.046497264189078
 30
0.0
 42
0.9963974141911445
  0
VERTEX
  5
CB8
  8
0
  6
CONTINU
 10
-57.6206742190289
 20
-9.046437896823205
 30
0.0
  0
SEQEND
  5
E73
  8
0
  6
CONTINU
  0
POLYLINE
  5
864
  8
0
  6
CONTINU
 66
     1
 10
0.0
 20
0.0
 30
0.0
  0
VERTEX
  5
CB9
  8
0
  6
CONTINU
 10
-57.61611616172461
 20
-9.277882184446103
 30
0.0
 42
0.0216811613718571
  0
VERTEX
  5
CBA
  8
0
  6
CONTINU
 10
-57.60878304290137
 20
-9.277882187863726
 30
0.0
  0
SEQEND
  5
E74
  8
0
  6
CONTINU
  0
POLYLINE
  5
865
  8
0
  6
CONTINU
 66
     1
 10
0.0
 20
0.0
 30
0.0
  0
VERTEX
  5
CBB
  8
0
  6
CONTINU
 10
-57.59882033608084
 20
-9.236603848112427
 30
0.0
 42
0.4062976482374956
  0
VERTEX
  5
CBC
  8
0
  6
CONTINU
 10
-57.58053063900416
 20
-9.255396154275182
 30
0.0
  0
SEQEND
  5
E75
  8
0
  6
CONTINU
  0
POLYLINE
  5
866
  8
0
  6
CONTINU
 66
     1
 10
0.0
 20
0.0
 30
0.0
  0
VERTEX
  5
CBD
  8
0
  6
CONTINU
 10
-57.60248000135274
 20
-9.2253247596769
 30
0.0
  0
VERTEX
  5
CBE
  8
0
  6
CONTINU
 10
-57.60217427225383
 20
-9.22425824704096
 30
0.0
  0
SEQEND
  5
E76
  8
0
  6
CONTINU
  0
POLYLINE
  5
867
  8
0
  6
CONTINU
 66
     1
 10
0.0
 20
0.0
 30
0.0
  0
VERTEX
  5
CBF
  8
0
  6
CONTINU
 10
-57.62654917422021
 20
-9.225324382892387
 30
0.0
  0
VERTEX
  5
CC0
  8
0
  6
CONTINU
 10
-57.62152037949127
 20
-9.207465171813965
 30
0.0
  0
SEQEND
  5
E77
  8
0
  6
CONTINU
  0
POLYLINE
  5
868
  8
0
  6
CONTINU
 66
     1
 10
0.0
 20
0.0
 30
0.0
  0
VERTEX
  5
CC1
  8
0
  6
CONTINU
 10
-57.62288334161779
 20
-9.083860619538086
 30
0.0
  0
VERTEX
  5
CC2
  8
0
  6
CONTINU
 10
-57.62194332569869
 20
-9.082921123539299
 30
0.0
  0
SEQEND
  5
E78
  8
0
  6
CONTINU
  0
POLYLINE
  5
869
  8
0
  6
CONTINU
 66
     1
 10
0.0
 20
0.0
 30
0.0
  0
VERTEX
  5
CC3
  8
0
  6
CONTINU
 10
-57.60182824538854
 20
-9.096361995803939
 30
0.0
  0
VERTEX
  5
CC4
  8
0
  6
CONTINU
 10
-57.60088825636187
 20
-9.095422042633844
 30
0.0
  0
SEQEND
  5
E79
  8
0
  6
CONTINU
  0
POLYLINE
  5
86A
  8
0
  6
CONTINU
 66
     1
 10
0.0
 20
0.0
 30
0.0
  0
VERTEX
  5
CC5
  8
0
  6
CONTINU
 10
-57.62401126390796
 20
-9.090440327585327
 30
0.0
  0
VERTEX
  5
CC6
  8
0
  6
CONTINU
 10
-57.62307153484145
 20
-9.089500598518812
 30
0.0
  0
SEQEND
  5
E7A
  8
0
  6
CONTINU
  0
POLYLINE
  5
86B
  8
0
  6
CONTINU
 66
     1
 10
0.0
 20
0.0
 30
0.0
  0
VERTEX
  5
CC7
  8
0
  6
CONTINU
 10
-57.67928059907235
 20
-9.27514220739874
 30
0.0
  0
VERTEX
  5
CC8
  8
0
  6
CONTINU
 10
-57.61611616172461
 20
-9.277882184446103
 30
0.0
  0
SEQEND
  5
E7B
  8
0
  6
CONTINU
  0
POLYLINE
  5
86C
  8
0
  6
CONTINU
 66
     1
 10
0.0
 20
0.0
 30
0.0
  0
VERTEX
  5
CC9
  8
0
  6
CONTINU
 10
-57.58053063900416
 20
-9.255396154275182
 30
0.0
  0
VERTEX
  5
CCA
  8
0
  6
CONTINU
 10
-57.54561854681488
 20
-9.256343021891855
 30
0.0
  0
SEQEND
  5
E7C
  8
0
  6
CONTINU
  0
POLYLINE
  5
86D
  8
0
  6
CONTINU
 66
     1
 10
0.0
 20
0.0
 30
0.0
  0
VERTEX
  5
CCB
  8
0
  6
CONTINU
 10
-57.67928103989043
 20
-9.25634302165071
 30
0.0
  0
VERTEX
  5
CCC
  8
0
  6
CONTINU
 10
-57.64436893868486
 20
-9.255396175522502
 30
0.0
  0
SEQEND
  5
E7D
  8
0
  6
CONTINU
  0
POLYLINE
  5
86E
  8
0
  6
CONTINU
 66
     1
 10
0.0
 20
0.0
 30
0.0
  0
VERTEX
  5
CCD
  8
0
  6
CONTINU
 10
-57.60878304290137
 20
-9.277882187863726
 30
0.0
  0
VERTEX
  5
CCE
  8
0
  6
CONTINU
 10
-57.54561898143658
 20
-9.275142207289848
 30
0.0
  0
SEQEND
  5
E7E
  8
0
  6
CONTINU
  0
POLYLINE
  5
86F
  8
0
  6
CONTINU
 66
     1
 10
0.0
 20
0.0
 30
0.0
  0
VERTEX
  5
CCF
  8
0
  6
CONTINU
 10
-57.59905538488137
 20
-9.235663926030366
 30
0.0
  0
VERTEX
  5
CD0
  8
0
  6
CONTINU
 10
-57.59835041379326
 20
-9.235256672461315
 30
0.0
  0
SEQEND
  5
E7F
  8
0
  6
CONTINU
  0
POLYLINE
  5
870
  8
0
  6
CONTINU
 66
     1
 10
0.0
 20
0.0
 30
0.0
  0
VERTEX
  5
CD1
  8
0
  6
CONTINU
 10
-57.62478684158305
 20
-9.113944284327655
 30
0.0
  0
VERTEX
  5
CD2
  8
0
  6
CONTINU
 10
-57.60008470159566
 20
-9.113944284327655
 30
0.0
  0
SEQEND
  5
E80
  8
0
  6
CONTINU
  0
POLYLINE
  5
871
  8
0
  6
CONTINU
 66
     1
 10
0.0
 20
0.0
 30
0.0
  0
VERTEX
  5
CD3
  8
0
  6
CONTINU
 10
-57.60187086988975
 20
-9.113944284327655
 30
0.0
  0
VERTEX
  5
CD4
  8
0
  6
CONTINU
 10
-57.60186334000941
 20
-9.114903062198602
 30
0.0
  0
SEQEND
  5
E81
  8
0
  6
CONTINU
  0
POLYLINE
  5
872
  8
0
  6
CONTINU
 66
     1
 10
0.0
 20
0.0
 30
0.0
  0
VERTEX
  5
CD5
  8
0
  6
CONTINU
 10
-57.62292656671661
 20
-9.113944284327655
 30
0.0
  0
VERTEX
  5
CD6
  8
0
  6
CONTINU
 10
-57.62291922827054
 20
-9.114903062198602
 30
0.0
  0
SEQEND
  5
E82
  8
0
  6
CONTINU
  0
POLYLINE
  5
873
  8
0
  6
CONTINU
 66
     1
 10
0.0
 20
0.0
 30
0.0
  0
VERTEX
  5
CD7
  8
0
  6
CONTINU
 10
-57.60008470159566
 20
-9.113944284327655
 30
0.0
  0
VERTEX
  5
CD8
  8
0
  6
CONTINU
 10
-57.60008470159566
 20
-9.10848679737547
 30
0.0
  0
SEQEND
  5
E83
  8
0
  6
CONTINU
  0
POLYLINE
  5
874
  8
0
  6
CONTINU
 66
     1
 10
0.0
 20
0.0
 30
0.0
  0
VERTEX
  5
CD9
  8
0
  6
CONTINU
 10
-57.62478684158305
 20
-9.113944284327655
 30
0.0
  0
VERTEX
  5
CDA
  8
0
  6
CONTINU
 10
-57.62478684158305
 20
-9.10848731729578
 30
0.0
  0
SEQEND
  5
E84
  8
0
  6
CONTINU
  0
POLYLINE
  5
875
  8
0
  6
CONTINU
 66
     1
 10
0.0
 20
0.0
 30
0.0
  0
VERTEX
  5
CDB
  8
0
  6
CONTINU
 10
-57.67928059907235
 20
-9.27514220739874
 30
0.0
  0
VERTEX
  5
CDC
  8
0
  6
CONTINU
 10
-57.67928103989043
 20
-9.25634302165071
 30
0.0
  0
SEQEND
  5
E85
  8
0
  6
CONTINU
  0
POLYLINE
  5
876
  8
0
  6
CONTINU
 66
     1
 10
0.0
 20
0.0
 30
0.0
  0
VERTEX
  5
CDD
  8
0
  6
CONTINU
 10
-57.53358044126572
 20
-9.275932460092873
 30
0.0
 42
1.132017481935929
  0
VERTEX
  5
CDE
  8
0
  6
CONTINU
 10
-57.50332042856333
 20
-9.251790836347197
 30
0.0
  0
SEQEND
  5
E86
  8
0
  6
CONTINU
  0
POLYLINE
  5
877
  8
0
  6
CONTINU
 66
     1
 10
0.0
 20
0.0
 30
0.0
  0
VERTEX
  5
CDF
  8
0
  6
CONTINU
 10
-57.53533958691503
 20
-9.275703238850625
 30
0.0
 42
1.201191701265784
  0
VERTEX
  5
CE0
  8
0
  6
CONTINU
 10
-57.5033204287745
 20
-9.24987947216156
 30
0.0
  0
SEQEND
  5
E87
  8
0
  6
CONTINU
  0
POLYLINE
  5
878
  8
0
  6
CONTINU
 66
     1
 10
0.0
 20
0.0
 30
0.0
  0
VERTEX
  5
CE1
  8
0
  6
CONTINU
 10
-57.53842600001764
 20
-9.275395846142814
 30
0.0
 42
1.308273430700117
  0
VERTEX
  5
CE2
  8
0
  6
CONTINU
 10
-57.50332043017892
 20
-9.246542271892668
 30
0.0
  0
SEQEND
  5
E88
  8
0
  6
CONTINU
  0
POLYLINE
  5
879
  8
0
  6
CONTINU
 66
     1
 10
0.0
 20
0.0
 30
0.0
  0
VERTEX
  5
CE3
  8
0
  6
CONTINU
 10
-57.53134777366081
 20
-9.250573656616679
 30
0.0
 42
0.0623039732779996
  0
VERTEX
  5
CE4
  8
0
  6
CONTINU
 10
-57.5346407082064
 20
-9.254587768654151
 30
0.0
  0
SEQEND
  5
E89
  8
0
  6
CONTINU
  0
POLYLINE
  5
87A
  8
0
  6
CONTINU
 66
     1
 10
0.0
 20
0.0
 30
0.0
  0
VERTEX
  5
CE5
  8
0
  6
CONTINU
 10
-57.53058414623757
 20
-9.246545807886108
 30
0.0
 42
0.1344433752019621
  0
VERTEX
  5
CE6
  8
0
  6
CONTINU
 10
-57.53846218144818
 20
-9.25617026041422
 30
0.0
  0
SEQEND
  5
E8A
  8
0
  6
CONTINU
  0
POLYLINE
  5
87B
  8
0
  6
CONTINU
 66
     1
 10
0.0
 20
0.0
 30
0.0
  0
VERTEX
  5
CE7
  8
0
  6
CONTINU
 10
-57.503320405553
 20
-9.260397216415594
 30
0.0
  0
VERTEX
  5
CE8
  8
0
  6
CONTINU
 10
-57.50332039882994
 20
-9.2657425679816
 30
0.0
  0
SEQEND
  5
E8B
  8
0
  6
CONTINU
  0
POLYLINE
  5
87C
  8
0
  6
CONTINU
 66
     1
 10
0.0
 20
0.0
 30
0.0
  0
VERTEX
  5
CE9
  8
0
  6
CONTINU
 10
-57.54561854681488
 20
-9.256343021891855
 30
0.0
 42
0.0211635383024566
  0
VERTEX
  5
CEA
  8
0
  6
CONTINU
 10
-57.53941568423802
 20
-9.25623372817199
 30
0.0
  0
SEQEND
  5
E8C
  8
0
  6
CONTINU
  0
POLYLINE
  5
87D
  8
0
  6
CONTINU
 66
     1
 10
0.0
 20
0.0
 30
0.0
  0
VERTEX
  5
CEB
  8
0
  6
CONTINU
 10
-57.52099186895767
 20
-9.278758843797432
 30
0.0
 42
0.0778082620289173
  0
VERTEX
  5
CEC
  8
0
  6
CONTINU
 10
-57.54561898143658
 20
-9.275142207289848
 30
0.0
  0
SEQEND
  5
E8D
  8
0
  6
CONTINU
  0
POLYLINE
  5
87E
  8
0
  6
CONTINU
 66
     1
 10
0.0
 20
0.0
 30
0.0
  0
VERTEX
  5
CED
  8
0
  6
CONTINU
 10
-57.52099186895767
 20
-9.278758843797432
 30
0.0
 42
0.5054260475687137
  0
VERTEX
  5
CEE
  8
0
  6
CONTINU
 10
-57.50332039882994
 20
-9.2657425679816
 30
0.0
  0
SEQEND
  5
E8E
  8
0
  6
CONTINU
  0
POLYLINE
  5
87F
  8
0
  6
CONTINU
 66
     1
 10
0.0
 20
0.0
 30
0.0
  0
VERTEX
  5
CEF
  8
0
  6
CONTINU
 10
-57.60222986589913
 20
-9.122793803090438
 30
0.0
  0
VERTEX
  5
CF0
  8
0
  6
CONTINU
 10
-57.60106573743433
 20
-9.122422727898007
 30
0.0
  0
SEQEND
  5
E8F
  8
0
  6
CONTINU
  0
POLYLINE
  5
880
  8
0
  6
CONTINU
 66
     1
 10
0.0
 20
0.0
 30
0.0
  0
VERTEX
  5
CF1
  8
0
  6
CONTINU
 10
-57.62266972608384
 20
-9.122793803090438
 30
0.0
  0
VERTEX
  5
CF2
  8
0
  6
CONTINU
 10
-57.6237181005667
 20
-9.122422727898007
 30
0.0
  0
SEQEND
  5
E90
  8
0
  6
CONTINU
  0
POLYLINE
  5
881
  8
0
  6
CONTINU
 66
     1
 10
0.0
 20
0.0
 30
0.0
  0
VERTEX
  5
CF3
  8
0
  6
CONTINU
 10
-57.60106573743433
 20
-9.114903062198602
 30
0.0
  0
VERTEX
  5
CF4
  8
0
  6
CONTINU
 10
-57.60106573743433
 20
-9.122422727898007
 30
0.0
  0
SEQEND
  5
E91
  8
0
  6
CONTINU
  0
POLYLINE
  5
882
  8
0
  6
CONTINU
 66
     1
 10
0.0
 20
0.0
 30
0.0
  0
VERTEX
  5
CF5
  8
0
  6
CONTINU
 10
-57.6237181005667
 20
-9.122422727898007
 30
0.0
  0
VERTEX
  5
CF6
  8
0
  6
CONTINU
 10
-57.6237181005667
 20
-9.114903062198602
 30
0.0
  0
SEQEND
  5
E92
  8
0
  6
CONTINU
  0
POLYLINE
  5
883
  8
0
  6
CONTINU
 66
     1
 10
0.0
 20
0.0
 30
0.0
  0
VERTEX
  5
CF7
  8
0
  6
CONTINU
 10
-57.62266972608384
 20
-9.122793803090438
 30
0.0
  0
VERTEX
  5
CF8
  8
0
  6
CONTINU
 10
-57.60222986589913
 20
-9.122793803090438
 30
0.0
  0
SEQEND
  5
E93
  8
0
  6
CONTINU
  0
POLYLINE
  5
884
  8
0
  6
CONTINU
 66
     1
 10
0.0
 20
0.0
 30
0.0
  0
VERTEX
  5
CF9
  8
0
  6
CONTINU
 10
-57.6237181005667
 20
-9.122422727898007
 30
0.0
  0
VERTEX
  5
CFA
  8
0
  6
CONTINU
 10
-57.60106573743433
 20
-9.122422727898007
 30
0.0
  0
SEQEND
  5
E94
  8
0
  6
CONTINU
  0
POLYLINE
  5
885
  8
0
  6
CONTINU
 66
     1
 10
0.0
 20
0.0
 30
0.0
  0
VERTEX
  5
CFB
  8
0
  6
CONTINU
 10
-57.6237181005667
 20
-9.114903062198602
 30
0.0
  0
VERTEX
  5
CFC
  8
0
  6
CONTINU
 10
-57.60106573743433
 20
-9.114903062198602
 30
0.0
  0
SEQEND
  5
E95
  8
0
  6
CONTINU
  0
POLYLINE
  5
886
  8
0
  6
CONTINU
 66
     1
 10
0.0
 20
0.0
 30
0.0
  0
VERTEX
  5
CFD
  8
0
  6
CONTINU
 10
-57.62478684158305
 20
-9.10848731729578
 30
0.0
  0
VERTEX
  5
CFE
  8
0
  6
CONTINU
 10
-57.60008470159566
 20
-9.10848679737547
 30
0.0
  0
SEQEND
  5
E96
  8
0
  6
CONTINU
  0
POLYLINE
  5
887
  8
0
  6
CONTINU
 66
     1
 10
0.0
 20
0.0
 30
0.0
  0
VERTEX
  5
CFF
  8
0
  6
CONTINU
 10
-57.61690058514782
 20
-9.103934194714878
 30
0.0
  0
VERTEX
  5
D00
  8
0
  6
CONTINU
 10
-57.62478684158305
 20
-9.10848731729578
 30
0.0
  0
SEQEND
  5
E97
  8
0
  6
CONTINU
  0
POLYLINE
  5
888
  8
0
  6
CONTINU
 66
     1
 10
0.0
 20
0.0
 30
0.0
  0
VERTEX
  5
D01
  8
0
  6
CONTINU
 10
-57.60008470159566
 20
-9.10848679737547
 30
0.0
  0
VERTEX
  5
D02
  8
0
  6
CONTINU
 10
-57.60797096230199
 20
-9.10393410555957
 30
0.0
  0
SEQEND
  5
E98
  8
0
  6
CONTINU
  0
POLYLINE
  5
889
  8
0
  6
CONTINU
 66
     1
 10
0.0
 20
0.0
 30
0.0
  0
VERTEX
  5
D03
  8
0
  6
CONTINU
 10
-57.61690058514782
 20
-9.103934194714878
 30
0.0
 42
0.2679522965581376
  0
VERTEX
  5
D04
  8
0
  6
CONTINU
 10
-57.61619560303841
 20
-9.102713143963943
 30
0.0
  0
SEQEND
  5
E99
  8
0
  6
CONTINU
  0
POLYLINE
  5
88A
  8
0
  6
CONTINU
 66
     1
 10
0.0
 20
0.0
 30
0.0
  0
VERTEX
  5
D05
  8
0
  6
CONTINU
 10
-57.60867586058352
 20
-9.102713145801102
 30
0.0
 42
0.267941297066271
  0
VERTEX
  5
D06
  8
0
  6
CONTINU
 10
-57.60797096230199
 20
-9.10393410555957
 30
0.0
  0
SEQEND
  5
E9A
  8
0
  6
CONTINU
  0
POLYLINE
  5
88B
  8
0
  6
CONTINU
 66
     1
 10
0.0
 20
0.0
 30
0.0
  0
VERTEX
  5
D07
  8
0
  6
CONTINU
 10
-57.69431551796707
 20
-9.246545759774861
 30
0.0
  0
VERTEX
  5
D08
  8
0
  6
CONTINU
 10
-57.69431544030491
 20
-9.245444599946142
 30
0.0
  0
SEQEND
  5
E9B
  8
0
  6
CONTINU
  0
POLYLINE
  5
88C
  8
0
  6
CONTINU
 66
     1
 10
0.0
 20
0.0
 30
0.0
  0
VERTEX
  5
D09
  8
0
  6
CONTINU
 10
-57.53058414623757
 20
-9.246545807886108
 30
0.0
  0
VERTEX
  5
D0A
  8
0
  6
CONTINU
 10
-57.53058415287255
 20
-9.245444581048439
 30
0.0
  0
SEQEND
  5
E9C
  8
0
  6
CONTINU
  0
ENDSEC
  0
EOF
