  0
SECTION
  2
HEADER
  9
$ACADVER
  1
AC1009
  9
$DWGCODEPAGE
  3
ansi_1252
  9
$INSBASE
 10
144.4097834647405
 20
57.1158111545342
 30
0.0
  9
$EXTMIN
 10
144.4287316886118
 20
57.04343124487539
 30
-0.0015258207003583
  9
$EXTMAX
 10
144.8094427673226
 20
57.32466658509921
 30
0.0000000349246037
  9
$LIMMIN
 10
0.0
 20
0.0
  9
$LIMMAX
 10
12.0
 20
9.0
  9
$ORTHOMODE
 70
     0
  9
$REGENMODE
 70
     1
  9
$FILLMODE
 70
     1
  9
$QTEXTMODE
 70
     0
  9
$MIRRTEXT
 70
     1
  9
$DRAGMODE
 70
     2
  9
$LTSCALE
 40
1.0
  9
$OSMODE
 70
    37
  9
$ATTMODE
 70
     1
  9
$TEXTSIZE
 40
0.2
  9
$TRACEWID
 40
0.05
  9
$TEXTSTYLE
  7
STANDARD
  9
$CLAYER
  8
0
  9
$CELTYPE
  6
BYLAYER
  9
$CECOLOR
 62
   256
  9
$DIMSCALE
 40
1.0
  9
$DIMASZ
 40
0.18
  9
$DIMEXO
 40
0.0625
  9
$DIMDLI
 40
0.38
  9
$DIMRND
 40
0.0
  9
$DIMDLE
 40
0.0
  9
$DIMEXE
 40
0.18
  9
$DIMTP
 40
0.0
  9
$DIMTM
 40
0.0
  9
$DIMTXT
 40
0.18
  9
$DIMCEN
 40
0.09
  9
$DIMTSZ
 40
0.0
  9
$DIMTOL
 70
     0
  9
$DIMLIM
 70
     0
  9
$DIMTIH
 70
     1
  9
$DIMTOH
 70
     1
  9
$DIMSE1
 70
     0
  9
$DIMSE2
 70
     0
  9
$DIMTAD
 70
     0
  9
$DIMZIN
 70
     0
  9
$DIMBLK
  1

  9
$DIMASO
 70
     1
  9
$DIMSHO
 70
     1
  9
$DIMPOST
  1

  9
$DIMAPOST
  1

  9
$DIMALT
 70
     0
  9
$DIMALTD
 70
     2
  9
$DIMALTF
 40
25.4
  9
$DIMLFAC
 40
1.0
  9
$DIMTOFL
 70
     0
  9
$DIMTVP
 40
0.0
  9
$DIMTIX
 70
     0
  9
$DIMSOXD
 70
     0
  9
$DIMSAH
 70
     0
  9
$DIMBLK1
  1

  9
$DIMBLK2
  1

  9
$DIMSTYLE
  2
STANDARD
  9
$DIMCLRD
 70
     0
  9
$DIMCLRE
 70
     0
  9
$DIMCLRT
 70
     0
  9
$DIMTFAC
 40
1.0
  9
$DIMGAP
 40
0.09
  9
$LUNITS
 70
     2
  9
$LUPREC
 70
     4
  9
$SKETCHINC
 40
0.1
  9
$FILLETRAD
 40
0.0
  9
$AUNITS
 70
     1
  9
$AUPREC
 70
     3
  9
$MENU
  1
icad
  9
$ELEVATION
 40
0.0
  9
$PELEVATION
 40
0.0
  9
$THICKNESS
 40
0.0
  9
$LIMCHECK
 70
     0
  9
$CHAMFERA
 40
0.5
  9
$CHAMFERB
 40
0.5
  9
$SKPOLY
 70
     0
  9
$TDCREATE
 40
2444971.875
  9
$TDUPDATE
 40
2457718.55400463
  9
$TDINDWG
 40
0.0007727778
  9
$TDUSRTIMER
 40
1.0629591667
  9
$USRTIMER
 70
     1
  9
$ANGBASE
 50
0.0
  9
$ANGDIR
 70
     0
  9
$PDMODE
 70
    34
  9
$PDSIZE
 40
0.0
  9
$PLINEWID
 40
0.0
  9
$COORDS
 70
     1
  9
$SPLFRAME
 70
     0
  9
$SPLINETYPE
 70
     6
  9
$SPLINESEGS
 70
     8
  9
$ATTDIA
 70
     0
  9
$ATTREQ
 70
     1
  9
$HANDLING
 70
     1
  9
$HANDSEED
  5
D3
  9
$SURFTAB1
 70
     6
  9
$SURFTAB2
 70
     6
  9
$SURFTYPE
 70
     6
  9
$SURFU
 70
     6
  9
$SURFV
 70
     6
  9
$UCSNAME
  2

  9
$UCSORG
 10
0.0
 20
0.0
 30
0.0
  9
$UCSXDIR
 10
1.0
 20
0.0
 30
0.0
  9
$UCSYDIR
 10
0.0
 20
1.0
 30
0.0
  9
$PUCSNAME
  2

  9
$PUCSORG
 10
0.0
 20
0.0
 30
0.0
  9
$PUCSXDIR
 10
1.0
 20
0.0
 30
0.0
  9
$PUCSYDIR
 10
0.0
 20
1.0
 30
0.0
  9
$USERI1
 70
     0
  9
$USERI2
 70
     0
  9
$USERI3
 70
     0
  9
$USERI4
 70
     0
  9
$USERI5
 70
     0
  9
$USERR1
 40
0.0
  9
$USERR2
 40
0.0
  9
$USERR3
 40
0.0
  9
$USERR4
 40
0.0
  9
$USERR5
 40
0.0
  9
$WORLDVIEW
 70
     1
  9
$SHADEDGE
 70
     3
  9
$SHADEDIF
 70
    70
  9
$TILEMODE
 70
     1
  9
$MAXACTVP
 70
    16
  9
$PLIMCHECK
 70
     0
  9
$PEXTMIN
 10
1.000000000000000E+20
 20
1.000000000000000E+20
 30
1.000000000000000E+20
  9
$PEXTMAX
 10
-1.000000000000000E+20
 20
-1.000000000000000E+20
 30
-1.000000000000000E+20
  9
$PLIMMIN
 10
0.0
 20
0.0
  9
$PLIMMAX
 10
12.0
 20
9.0
  9
$UNITMODE
 70
     0
  9
$VISRETAIN
 70
     1
  9
$PLINEGEN
 70
     0
  9
$PSLTSCALE
 70
     1
  0
ENDSEC
  0
SECTION
  2
TABLES
  0
TABLE
  2
VPORT
 70
     1
  0
VPORT
  2
*ACTIVE
 70
     0
 10
0.0
 20
0.0
 11
1.0
 21
1.0
 12
144.6190872279672
 22
57.1840489149873
 13
0.0
 23
0.0
 14
0.5
 24
0.5
 15
0.5
 25
0.5
 16
0.0
 26
0.0
 36
1.0
 17
0.0
 27
0.0
 37
0.0
 40
0.2832228691299861
 41
1.503537735849057
 42
50.0
 43
0.0
 44
0.0
 50
0.0
 51
0.0
 71
     0
 72
   100
 73
     1
 74
     1
 75
     0
 76
     0
 77
     0
 78
     0
  0
ENDTAB
  0
TABLE
  2
LTYPE
 70
     1
  0
LTYPE
  2
CONTINUOUS
 70
     0
  3
CONTINUOUS
 72
    65
 73
     0
 40
0.0
  0
ENDTAB
  0
TABLE
  2
LAYER
 70
     3
  0
LAYER
  2
0
 70
     0
 62
     7
  6
CONTINUOUS
  0
LAYER
  2
ESQ-SOL
 70
     0
 62
    -9
  6
CONTINUOUS
  0
LAYER
  2
EQU-PIA
 70
     0
 62
     3
  6
CONTINUOUS
  0
ENDTAB
  0
TABLE
  2
STYLE
 70
     1
  0
STYLE
  2
STANDARD
 70
     0
 40
0.0
 41
1.0
 50
0.0
 71
     0
 42
0.2
  3
C:\Program Files\IntelliCAD 98\Fonts\ic-romns.shx
  4

  0
ENDTAB
  0
TABLE
  2
VIEW
 70
     0
  0
ENDTAB
  0
TABLE
  2
UCS
 70
     0
  0
ENDTAB
  0
TABLE
  2
APPID
 70
     2
  0
APPID
  2
ACAD
 70
     0
  0
APPID
  2
DCO15
 70
     0
  0
ENDTAB
  0
TABLE
  2
DIMSTYLE
 70
     1
  0
DIMSTYLE
  2
STANDARD
 70
     0
  3

  4

  5

  6

  7

 40
1.0
 41
0.18
 42
0.0625
 43
0.38
 44
0.18
 45
0.0
 46
0.0
 47
0.0
 48
0.0
140
0.18
141
0.09
142
0.0
143
25.4
144
1.0
145
0.0
146
1.0
147
0.09
 71
     0
 72
     0
 73
     1
 74
     1
 75
     0
 76
     0
 77
     0
 78
     0
170
     0
171
     2
172
     0
173
     0
174
     0
175
     0
176
     0
177
     0
178
     0
  0
ENDTAB
  0
ENDSEC
  0
SECTION
  2
BLOCKS
  0
BLOCK
  8
0
  2
$MODEL_SPACE
 70
     0
 10
0.0
 20
0.0
 30
0.0
  3
$MODEL_SPACE
  1

  0
ENDBLK
  5
1B
  8
0
  0
BLOCK
 67
     1
  8
0
  2
$PAPER_SPACE
 70
     0
 10
0.0
 20
0.0
 30
0.0
  3
$PAPER_SPACE
  1

  0
ENDBLK
  5
18
 67
     1
  8
0
  0
BLOCK
  8
0
  2
CUBA-EMB
 70
     0
 10
0.0
 20
0.0
 30
0.0
  3
CUBA-EMB
  1

  0
ARC
  5
2F
  8
EQU-PIA
 10
0.0194645612624242
 20
0.0684816205615348
 30
0.0
 40
0.251557591540112
 50
287.5399940792487
 51
307.3455052162718
  0
ARC
  5
30
  8
EQU-PIA
 10
0.0194645612624136
 20
-0.0671069492605163
 30
0.0
 40
0.2515575915401217
 50
52.65449478372672
 51
72.46000592074951
  0
ARC
  5
31
  8
EQU-PIA
 62
     9
 10
0.050270913465944
 20
-0.0246112350973213
 30
0.0
 40
0.170709183118606
 50
29.36686036592766
 51
53.64299881648734
  0
ARC
  5
32
  8
EQU-PIA
 62
     9
 10
0.0502709134659547
 20
0.0276068383679409
 30
0.0
 40
0.1707091831185967
 50
306.3570011835105
 51
330.6331396340706
  0
ARC
  5
33
  8
EQU-PIA
 62
     9
 10
0.0199717336276031
 20
-0.0657726803559591
 30
0.0
 40
0.2218198950551066
 50
53.64299881648967
 51
73.04327313734025
  0
ARC
  5
34
  8
EQU-PIA
 62
     9
 10
0.0199717336275995
 20
0.0687682836265999
 30
0.0
 40
0.2218198950551231
 50
286.9567268626575
 51
306.3570011835084
  0
ARC
  5
35
  8
EQU-PIA
 10
-0.1019809215647172
 20
0.000687335650511
 30
0.0
 40
0.1441958291117729
 50
180.0
 51
208.4947962000102
  0
ARC
  5
36
  8
EQU-PIA
 10
-0.0534439023973512
 20
0.0270350792625784
 30
0.0
 40
0.1994230490590098
 50
208.4947962000095
 51
232.6544947837267
  0
ARC
  5
37
  8
EQU-PIA
 10
-0.0218180469295923
 20
0.0684816205615277
 30
0.0
 40
0.2515575915401047
 50
232.6544947837278
 51
252.4600059207508
  0
ARC
  5
38
  8
EQU-PIA
 10
-0.0011767428335858
 20
0.1337884846462174
 30
0.0
 40
0.3200488313548432
 50
252.4600059207509
 51
270.0000000000006
  0
ARC
  5
39
  8
EQU-PIA
 10
-0.0011767428335858
 20
-0.1324138133451811
 30
0.0
 40
0.320048831354832
 50
89.99999999999936
 51
107.539994079249
  0
ARC
  5
3A
  8
EQU-PIA
 10
-0.0218180469295817
 20
-0.0671069492605092
 30
0.0
 40
0.2515575915401141
 50
107.5399940792502
 51
127.3455052162736
  0
ARC
  5
3B
  8
EQU-PIA
 10
-0.0534439023973583
 20
-0.0256604079615563
 30
0.0
 40
0.1994230490590055
 50
127.3455052162716
 51
151.5052037999885
  0
ARC
  5
3C
  8
EQU-PIA
 10
-0.1019809215647101
 20
0.000687335650511
 30
0.0
 40
0.1441958291117808
 50
151.5052037999899
 51
180.0
  0
CIRCLE
  5
3D
  8
EQU-PIA
 62
     9
 10
0.0001740338077489
 20
0.000687335650511
 30
0.0
 40
0.0225000000000009
  0
ARC
  5
3E
  8
EQU-PIA
 62
     9
 10
-0.0196236660121016
 20
0.0687682836265786
 30
0.0
 40
0.2218198950551037
 50
233.6429988164891
 51
253.04327313734
  0
ARC
  5
3F
  8
EQU-PIA
 62
     9
 10
-0.0499228458504533
 20
0.0276068383679515
 30
0.0
 40
0.170709183118605
 50
209.366860365932
 51
233.6429988164917
  0
ARC
  5
40
  8
EQU-PIA
 62
     9
 10
-0.0963216504966198
 20
0.0014978016353133
 30
0.0
 40
0.1174688706505194
 50
180.0000000000017
 51
209.3668603659322
  0
ARC
  5
41
  8
EQU-PIA
 62
     9
 10
-0.0499228458504462
 20
-0.0246112350973284
 30
0.0
 40
0.1707091831186095
 50
126.3570011835103
 51
150.6331396340703
  0
ARC
  5
42
  8
EQU-PIA
 62
     9
 10
-0.0196236660121016
 20
-0.065772680355952
 30
0.0
 40
0.2218198950551004
 50
106.9567268626603
 51
126.3570011835114
  0
ARC
  5
43
  8
EQU-PIA
 62
     9
 10
0.0001740338077489
 20
-0.1307033920031841
 30
0.0
 40
0.2897017500177697
 50
90.0
 51
106.9567268626592
  0
ARC
  5
44
  8
EQU-PIA
 62
     9
 10
0.0001740338077489
 20
0.1336989952738179
 30
0.0
 40
0.2897017500177803
 50
253.0432731373414
 51
270.0
  0
ARC
  5
45
  8
EQU-PIA
 62
     9
 10
-0.0963216504966198
 20
0.0014978016353062
 30
0.0
 40
0.1174688706505196
 50
150.6331396340679
 51
179.9999999999983
  0
ARC
  5
46
  8
EQU-PIA
 10
-0.0011767428335787
 20
0.1337884846462103
 30
0.0
 40
0.3200488313548355
 50
269.9999999999993
 51
287.5399940792487
  0
ARC
  5
47
  8
EQU-PIA
 10
-0.0011767428335787
 20
-0.1324138133451811
 30
0.0
 40
0.3200488313548319
 50
72.46000592075102
 51
90.00000000000064
  0
ARC
  5
48
  8
EQU-PIA
 62
     9
 10
0.0001740338077525
 20
-0.1307033920031984
 30
0.0
 40
0.2897017500177836
 50
73.04327313734163
 51
90.0000000000007
  0
ARC
  5
49
  8
EQU-PIA
 62
     9
 10
0.0001740338077454
 20
0.1336989952738072
 30
0.0
 40
0.2897017500177697
 50
270.0000000000007
 51
286.9567268626592
  0
ARC
  5
4A
  8
EQU-PIA
 10
0.0510904167301831
 20
0.0270350792625713
 30
0.0
 40
0.1994230490590063
 50
307.3455052162753
 51
331.5052037999922
  0
ARC
  5
4B
  8
EQU-PIA
 10
0.0996274358975491
 20
0.000687335650511
 30
0.0
 40
0.1441958291117728
 50
331.5052037999898
 51
360.0
  0
ARC
  5
4C
  8
EQU-PIA
 10
0.099627435897542
 20
0.000687335650511
 30
0.0
 40
0.14419582911178
 50
0.0
 51
28.49479620001008
  0
ARC
  5
4D
  8
EQU-PIA
 10
0.0510904167301902
 20
-0.0256604079615492
 30
0.0
 40
0.1994230490590019
 50
28.49479620000963
 51
52.65449478372631
  0
ARC
  5
4E
  8
EQU-PIA
 62
     9
 10
0.0966697181121177
 20
0.0014978016353062
 30
0.0
 40
0.1174688706505194
 50
0.0000000000017328
 51
29.36686036593214
  0
ARC
  5
4F
  8
EQU-PIA
 62
     9
 10
0.0966697181121177
 20
0.0014978016353133
 30
0.0
 40
0.1174688706505196
 50
330.6331396340678
 51
359.9999999999983
  0
ENDBLK
  5
51
  8
0
  0
ENDSEC
  0
SECTION
  2
ENTITIES
  0
ARC
  5
5F
  8
0
 62
     0
 10
144.6322998633487
 20
57.23390633440034
 30
0.0
 40
0.1846029121067825
 50
287.5399940792489
 51
307.3455052162714
  0
ARC
  5
60
  8
0
 62
     0
 10
144.6322998633487
 20
57.1344060780801
 30
0.0
 40
0.1846029121067897
 50
52.65449478372648
 51
72.46000592074887
  0
ARC
  5
61
  8
0
 62
     0
 10
144.6549067832724
 20
57.16559111423248
 30
0.0
 40
0.1252731517030752
 50
29.36686036592752
 51
53.64299881648808
  0
ARC
  5
62
  8
0
 62
     0
 10
144.6549067832724
 20
57.20391080225015
 30
0.0
 40
0.1252731517030683
 50
306.3570011835109
 51
330.6331396340699
  0
ARC
  5
63
  8
0
 62
     0
 10
144.6326720464936
 20
57.13538521738497
 30
0.0
 40
0.1627802140245254
 50
53.64299881648906
 51
73.04327313733931
  0
ARC
  5
64
  8
0
 62
     0
 10
144.6326720464936
 20
57.23411669909768
 30
0.0
 40
0.1627802140245375
 50
286.9567268626585
 51
306.3570011835085
  0
ARC
  5
65
  8
0
 62
     0
 10
144.5431783637555
 20
57.18415620624022
 30
0.0
 40
0.105816603683935
 50
180.0
 51
208.4947962000103
  0
ARC
  5
66
  8
0
 62
     0
 10
144.5787967485095
 20
57.20349122280026
 30
0.0
 40
0.1463445224297149
 50
208.4947962000097
 51
232.6544947837265
  0
ARC
  5
67
  8
0
 62
     0
 10
144.6020050523475
 20
57.23390633440034
 30
0.0
 40
0.1846029121067771
 50
232.6544947837286
 51
252.4600059207511
  0
ARC
  5
68
  8
0
 62
     0
 10
144.6171524578481
 20
57.28183109475755
 30
0.0
 40
0.234864493346271
 50
252.4600059207511
 51
270.0
  0
ARC
  5
69
  8
0
 62
     0
 10
144.6171524578481
 20
57.08648131772291
 30
0.0
 40
0.2348644933462627
 50
90.0
 51
107.5399940792489
  0
ARC
  5
6A
  8
0
 62
     0
 10
144.6020050523476
 20
57.13440607808011
 30
0.0
 40
0.1846029121067841
 50
107.539994079251
 51
127.3455052162738
  0
ARC
  5
6B
  8
0
 62
     0
 10
144.5787967485095
 20
57.16482118968019
 30
0.0
 40
0.1463445224297117
 50
127.3455052162714
 51
151.5052037999888
  0
ARC
  5
6C
  8
0
 62
     0
 10
144.5431783637555
 20
57.18415620624022
 30
0.0
 40
0.1058166036839408
 50
151.5052037999897
 51
180.0
  0
CIRCLE
  5
6D
  8
0
 62
     0
 10
144.6181437111833
 20
57.18415620624022
 30
0.0
 40
0.0165113900835724
  0
ARC
  5
6E
  8
0
 62
     0
 10
144.6036153758729
 20
57.23411669909766
 30
0.0
 40
0.1627802140245233
 50
233.6429988164887
 51
253.0432731373393
  0
ARC
  5
6F
  8
0
 62
     0
 10
144.5813806390941
 20
57.20391080225016
 30
0.0
 40
0.1252731517030745
 50
209.366860365932
 51
233.6429988164915
  0
ARC
  5
70
  8
0
 62
     0
 10
144.5473313607419
 20
57.18475095824132
 30
0.0
 40
0.086203304266105
 50
180.0000000000016
 51
209.366860365932
  0
ARC
  5
71
  8
0
 62
     0
 10
144.5813806390941
 20
57.16559111423248
 30
0.0
 40
0.1252731517030777
 50
126.3570011835109
 51
150.6331396340699
  0
ARC
  5
72
  8
0
 62
     0
 10
144.6036153758729
 20
57.13538521738498
 30
0.0
 40
0.1627802140245208
 50
106.9567268626607
 51
126.3570011835113
  0
ARC
  5
73
  8
0
 62
     0
 10
144.6181437111833
 20
57.08773649256669
 30
0.0
 40
0.2125946045527464
 50
90.0
 51
106.9567268626586
  0
ARC
  5
74
  8
0
 62
     0
 10
144.6181437111833
 20
57.28176542391595
 30
0.0
 40
0.2125946045527542
 50
253.0432731373416
 51
270.0
  0
ARC
  5
75
  8
0
 62
     0
 10
144.5473313607419
 20
57.18475095824131
 30
0.0
 40
0.0862033042661051
 50
150.633139634068
 51
179.9999999999984
  0
ARC
  5
76
  8
0
 62
     0
 10
144.6171524578481
 20
57.28183109475754
 30
0.0
 40
0.2348644933462653
 50
270.0
 51
287.5399940792489
  0
ARC
  5
77
  8
0
 62
     0
 10
144.6171524578481
 20
57.08648131772291
 30
0.0
 40
0.2348644933462627
 50
72.46000592075114
 51
90.0
  0
ARC
  5
78
  8
0
 62
     0
 10
144.6181437111833
 20
57.08773649256668
 30
0.0
 40
0.2125946045527567
 50
73.0432731373416
 51
90.0
  0
ARC
  5
79
  8
0
 62
     0
 10
144.6181437111833
 20
57.28176542391594
 30
0.0
 40
0.2125946045527464
 50
270.0
 51
286.9567268626585
  0
ARC
  5
7A
  8
0
 62
     0
 10
144.6555081671867
 20
57.20349122280026
 30
0.0
 40
0.1463445224297123
 50
307.3455052162763
 51
331.5052037999923
  0
ARC
  5
7B
  8
0
 62
     0
 10
144.6911265519407
 20
57.18415620624022
 30
0.0
 40
0.105816603683935
 50
331.5052037999897
 51
0.0
  0
ARC
  5
7C
  8
0
 62
     0
 10
144.6911265519407
 20
57.18415620624022
 30
0.0
 40
0.1058166036839402
 50
0.0
 51
28.49479620001025
  0
ARC
  5
7D
  8
0
 62
     0
 10
144.6555081671867
 20
57.1648211896802
 30
0.0
 40
0.146344522429709
 50
28.49479620000977
 51
52.65449478372613
  0
ARC
  5
7E
  8
0
 62
     0
 10
144.6889560616246
 20
57.18475095824131
 30
0.0
 40
0.086203304266105
 50
0.0000000000016643
 51
29.366860365932
  0
ARC
  5
7F
  8
0
 62
     0
 10
144.6889560616246
 20
57.18475095824132
 30
0.0
 40
0.0862033042661051
 50
330.633139634068
 51
359.9999999999983
  0
ENDSEC
  0
EOF
