  0
SECTION
  2
HEADER
  9
$ACADVER
  1
AC1009
  9
$DWGCODEPAGE
  3
ansi_1252
  9
$INSBASE
 10
0.0
 20
0.0
 30
0.0
  9
$EXTMIN
 10
-0.2987009165079419
 20
0.0
 30
0.0
  9
$EXTMAX
 10
0.2987009165079456
 20
0.8312421999999984
 30
0.0
  9
$LIMMIN
 10
0.0
 20
0.0
  9
$LIMMAX
 10
90.0
 20
65.0
  9
$ORTHOMODE
 70
     0
  9
$REGENMODE
 70
     1
  9
$FILLMODE
 70
     1
  9
$QTEXTMODE
 70
     0
  9
$MIRRTEXT
 70
     1
  9
$DRAGMODE
 70
     2
  9
$LTSCALE
 40
0.5
  9
$OSMODE
 70
    37
  9
$ATTMODE
 70
     1
  9
$TEXTSIZE
 40
30.0
  9
$TRACEWID
 40
0.05
  9
$TEXTSTYLE
  7
STANDARD
  9
$CLAYER
  8
0
  9
$CELTYPE
  6
BYLAYER
  9
$CECOLOR
 62
   256
  9
$DIMSCALE
 40
1.0
  9
$DIMASZ
 40
0.18
  9
$DIMEXO
 40
0.0625
  9
$DIMDLI
 40
0.38
  9
$DIMRND
 40
0.0
  9
$DIMDLE
 40
0.0
  9
$DIMEXE
 40
0.18
  9
$DIMTP
 40
0.0
  9
$DIMTM
 40
0.0
  9
$DIMTXT
 40
0.18
  9
$DIMCEN
 40
0.09
  9
$DIMTSZ
 40
0.0
  9
$DIMTOL
 70
     0
  9
$DIMLIM
 70
     0
  9
$DIMTIH
 70
     1
  9
$DIMTOH
 70
     1
  9
$DIMSE1
 70
     0
  9
$DIMSE2
 70
     0
  9
$DIMTAD
 70
     0
  9
$DIMZIN
 70
     0
  9
$DIMBLK
  1

  9
$DIMASO
 70
     1
  9
$DIMSHO
 70
     0
  9
$DIMPOST
  1

  9
$DIMAPOST
  1

  9
$DIMALT
 70
     0
  9
$DIMALTD
 70
     2
  9
$DIMALTF
 40
25.4
  9
$DIMLFAC
 40
1.0
  9
$DIMTOFL
 70
     0
  9
$DIMTVP
 40
0.0
  9
$DIMTIX
 70
     0
  9
$DIMSOXD
 70
     0
  9
$DIMSAH
 70
     0
  9
$DIMBLK1
  1

  9
$DIMBLK2
  1

  9
$DIMSTYLE
  2
STANDARD
  9
$DIMCLRD
 70
     0
  9
$DIMCLRE
 70
     0
  9
$DIMCLRT
 70
     0
  9
$DIMTFAC
 40
1.0
  9
$DIMGAP
 40
0.09
  9
$LUNITS
 70
     2
  9
$LUPREC
 70
     4
  9
$SKETCHINC
 40
0.1
  9
$FILLETRAD
 40
0.0
  9
$AUNITS
 70
     0
  9
$AUPREC
 70
     2
  9
$MENU
  1
ACAD
  9
$ELEVATION
 40
0.0
  9
$PELEVATION
 40
0.0
  9
$THICKNESS
 40
0.0
  9
$LIMCHECK
 70
     0
  9
$CHAMFERA
 40
0.0
  9
$CHAMFERB
 40
0.0
  9
$SKPOLY
 70
     0
  9
$TDCREATE
 40
2449028.728931829
  9
$TDUPDATE
 40
2457869.462511574
  9
$TDINDWG
 40
0.0004247801
  9
$TDUSRTIMER
 40
0.0004247801
  9
$USRTIMER
 70
     1
  9
$ANGBASE
 50
0.0
  9
$ANGDIR
 70
     0
  9
$PDMODE
 70
     3
  9
$PDSIZE
 40
0.2
  9
$PLINEWID
 40
0.0
  9
$COORDS
 70
     1
  9
$SPLFRAME
 70
     0
  9
$SPLINETYPE
 70
     6
  9
$SPLINESEGS
 70
     8
  9
$ATTDIA
 70
     0
  9
$ATTREQ
 70
     1
  9
$HANDLING
 70
     1
  9
$HANDSEED
  5
EB
  9
$SURFTAB1
 70
     6
  9
$SURFTAB2
 70
     6
  9
$SURFTYPE
 70
     6
  9
$SURFU
 70
     6
  9
$SURFV
 70
     6
  9
$UCSNAME
  2

  9
$UCSORG
 10
0.0
 20
0.0
 30
0.0
  9
$UCSXDIR
 10
1.0
 20
0.0
 30
0.0
  9
$UCSYDIR
 10
0.0
 20
1.0
 30
0.0
  9
$PUCSNAME
  2

  9
$PUCSORG
 10
0.0
 20
0.0
 30
0.0
  9
$PUCSXDIR
 10
1.0
 20
0.0
 30
0.0
  9
$PUCSYDIR
 10
0.0
 20
1.0
 30
0.0
  9
$USERI1
 70
     0
  9
$USERI2
 70
     0
  9
$USERI3
 70
     0
  9
$USERI4
 70
     0
  9
$USERI5
 70
     0
  9
$USERR1
 40
0.0
  9
$USERR2
 40
0.0
  9
$USERR3
 40
0.0
  9
$USERR4
 40
0.0
  9
$USERR5
 40
0.0
  9
$WORLDVIEW
 70
     1
  9
$SHADEDGE
 70
     3
  9
$SHADEDIF
 70
    70
  9
$TILEMODE
 70
     1
  9
$MAXACTVP
 70
     4
  9
$PLIMCHECK
 70
     0
  9
$PEXTMIN
 10
1.000000000000000E+20
 20
1.000000000000000E+20
 30
1.000000000000000E+20
  9
$PEXTMAX
 10
-1.000000000000000E+20
 20
-1.000000000000000E+20
 30
-1.000000000000000E+20
  9
$PLIMMIN
 10
0.0
 20
0.0
  9
$PLIMMAX
 10
12.0
 20
9.0
  9
$UNITMODE
 70
     0
  9
$VISRETAIN
 70
     0
  9
$PLINEGEN
 70
     0
  9
$PSLTSCALE
 70
     0
  0
ENDSEC
  0
SECTION
  2
TABLES
  0
TABLE
  2
VPORT
 70
     1
  0
VPORT
  2
*ACTIVE
 70
     0
 10
0.0
 20
0.0
 11
1.0
 21
1.0
 12
0.1627015114677567
 22
0.6533773589327045
 13
85.19999999999999
 23
-133.65
 14
0.05
 24
0.05
 15
0.5
 25
0.5
 16
0.0
 26
0.0
 36
1.0
 17
0.0
 27
0.0
 37
0.0
 40
1.324203974198852
 41
1.376889848812095
 42
50.0
 43
0.0
 44
0.0
 50
0.0
 51
0.0
 71
     0
 72
  2000
 73
     1
 74
     2
 75
     0
 76
     0
 77
     0
 78
     0
  0
ENDTAB
  0
TABLE
  2
LTYPE
 70
     1
  0
LTYPE
  2
CONTINUOUS
 70
     0
  3
Solid line
 72
    65
 73
     0
 40
0.0
  0
ENDTAB
  0
TABLE
  2
LAYER
 70
     1
  0
LAYER
  2
0
 70
     0
 62
     7
  6
CONTINUOUS
  0
ENDTAB
  0
TABLE
  2
STYLE
 70
     1
  0
STYLE
  2
STANDARD
 70
     0
 40
0.0
 41
1.0
 50
0.0
 71
     0
 42
30.0
  3
txt
  4

  0
ENDTAB
  0
TABLE
  2
VIEW
 70
     0
  0
ENDTAB
  0
TABLE
  2
UCS
 70
     0
  0
ENDTAB
  0
TABLE
  2
APPID
 70
     1
  0
APPID
  2
ACAD
 70
     0
  0
ENDTAB
  0
TABLE
  2
DIMSTYLE
 70
     1
  0
DIMSTYLE
  2
STANDARD
 70
     0
  3

  4

  5

  6

  7

 40
1.0
 41
0.18
 42
0.0625
 43
0.38
 44
0.18
 45
0.0
 46
0.0
 47
0.0
 48
0.0
140
0.18
141
0.09
142
0.0
143
25.4
144
1.0
145
0.0
146
1.0
147
0.09
 71
     0
 72
     0
 73
     1
 74
     1
 75
     0
 76
     0
 77
     0
 78
     0
170
     0
171
     2
172
     0
173
     0
174
     0
175
     0
176
     0
177
     0
178
     0
  0
ENDTAB
  0
ENDSEC
  0
SECTION
  2
BLOCKS
  0
BLOCK
  8
0
  2
$MODEL_SPACE
 70
     0
 10
0.0
 20
0.0
 30
0.0
  3
$MODEL_SPACE
  1

  0
ENDBLK
  5
1F
  8
0
  0
BLOCK
 67
     1
  8
0
  2
$PAPER_SPACE
 70
     0
 10
0.0
 20
0.0
 30
0.0
  3
$PAPER_SPACE
  1

  0
ENDBLK
  5
1D
 67
     1
  8
0
  0
ENDSEC
  0
SECTION
  2
ENTITIES
  0
POLYLINE
  5
23
  8
0
 66
     1
 10
0.0
 20
0.0
 30
0.0
 70
     1
  0
VERTEX
  5
C4
  8
0
 10
0.0
 20
0.0
 30
0.0
  0
VERTEX
  5
C5
  8
0
 10
0.0861653500000017
 20
0.0
 30
0.0
 42
0.414213562373095
  0
VERTEX
  5
C6
  8
0
 10
0.0912339000000024
 20
0.0050685500000043
 30
0.0
  0
VERTEX
  5
C7
  8
0
 10
0.0912339000000024
 20
0.5083755650000015
 30
0.0
 42
0.414213562373095
  0
VERTEX
  5
C8
  8
0
 10
0.0861653500000017
 20
0.5134441150000058
 30
0.0
  0
VERTEX
  5
C9
  8
0
 10
0.2369216431561867
 20
0.5271292000000045
 30
0.0
  0
VERTEX
  5
CA
  8
0
 10
0.2614538348889113
 20
0.5271292000000045
 30
0.0
 42
0.4044874037899023
  0
VERTEX
  5
CB
  8
0
 10
0.2898219591952156
 20
0.5545674758564587
 30
0.0
  0
VERTEX
  5
CC
  8
0
 10
0.2978505311411475
 20
0.7954246342344504
 30
0.0
  0
VERTEX
  5
CD
  8
0
 10
0.2986952894744839
 20
0.8207673842344434
 30
0.0
 42
0.4240070751814172
  0
VERTEX
  5
CE
  8
0
 10
0.2885638165079456
 20
0.8312421999999984
 30
0.0
  0
VERTEX
  5
CF
  8
0
 10
0.0
 20
0.8312421999999984
 30
0.0
  0
VERTEX
  5
D0
  8
0
 10
-0.2885638165079385
 20
0.8312421999999984
 30
0.0
 42
0.4240070751814172
  0
VERTEX
  5
D1
  8
0
 10
-0.2986952894744803
 20
0.8207673842344434
 30
0.0
  0
VERTEX
  5
D2
  8
0
 10
-0.2978505311411439
 20
0.7954246342344504
 30
0.0
  0
VERTEX
  5
D3
  8
0
 10
-0.2898219591952156
 20
0.5545674758564587
 30
0.0
 42
0.4044874037899023
  0
VERTEX
  5
D4
  8
0
 10
-0.2614538348889077
 20
0.5271292000000045
 30
0.0
  0
VERTEX
  5
D5
  8
0
 10
-0.2369216431561831
 20
0.5271292000000045
 30
0.0
  0
VERTEX
  5
D6
  8
0
 10
-0.0861653499999981
 20
0.5134441150000058
 30
0.0
 42
0.414213562373095
  0
VERTEX
  5
D7
  8
0
 10
-0.0912338999999989
 20
0.5083755650000015
 30
0.0
  0
VERTEX
  5
D8
  8
0
 10
-0.0912338999999989
 20
0.0050685500000043
 30
0.0
 42
0.414213562373095
  0
VERTEX
  5
D9
  8
0
 10
-0.0861653499999981
 20
0.0
 30
0.0
  0
SEQEND
  5
E8
  8
0
  0
POLYLINE
  5
3B
  8
0
 66
     1
 10
0.0
 20
0.0
 30
0.0
  0
VERTEX
  5
DA
  8
0
 10
-0.2978505311411439
 20
0.7954246342344504
 30
0.0
 42
0.4044874037899024
  0
VERTEX
  5
DB
  8
0
 10
-0.2877190581746092
 20
0.7856252500000025
 30
0.0
  0
VERTEX
  5
DC
  8
0
 10
0.0
 20
0.7856252500000025
 30
0.0
  0
VERTEX
  5
DD
  8
0
 10
0.2877190581746127
 20
0.7856252500000025
 30
0.0
 42
0.4044874037899024
  0
VERTEX
  5
DE
  8
0
 10
0.2978505311411475
 20
0.7954246342344504
 30
0.0
  0
SEQEND
  5
E9
  8
0
  0
POLYLINE
  5
42
  8
0
 66
     1
 10
0.0
 20
0.0
 30
0.0
  0
VERTEX
  5
DF
  8
0
 10
-0.2873583476400761
 20
0.7855859191417736
 30
0.0
 42
-0.209124540348822
  0
VERTEX
  5
E0
  8
0
 10
-0.2621901794654633
 20
0.7399689691417635
 30
0.0
  0
VERTEX
  5
E1
  8
0
 10
-0.2470307206577758
 20
0.5365130746175311
 30
0.0
 42
0.3925944066928864
  0
VERTEX
  5
E2
  8
0
 10
-0.2369216431561831
 20
0.5271292000000045
 30
0.0
  0
VERTEX
  5
E3
  8
0
 10
0.0
 20
0.5271292000000045
 30
0.0
  0
VERTEX
  5
E4
  8
0
 10
0.2369216431561867
 20
0.5271292000000045
 30
0.0
 42
0.3925944066928863
  0
VERTEX
  5
E5
  8
0
 10
0.2470307206577793
 20
0.5365130746175311
 30
0.0
  0
VERTEX
  5
E6
  8
0
 10
0.2621901794654669
 20
0.7399689691417635
 30
0.0
 42
-0.209124540348822
  0
VERTEX
  5
E7
  8
0
 10
0.2873583476400796
 20
0.7855859191417736
 30
0.0
  0
SEQEND
  5
EA
  8
0
  0
LINE
  5
4D
  8
0
 10
0.0630414198115368
 20
0.5210469400000051
 30
0.0
 11
0.0
 21
0.5210469400000051
 31
0.0
  0
ARC
  5
4E
  8
0
 10
0.1253047524583906
 20
0.6107299824167782
 30
0.0
 40
0.1048638775929734
 50
242.5953603843385
 51
248.0844190345854
  0
ARC
  5
4F
  8
0
 10
0.0630414198115368
 20
0.4906356400000007
 30
0.0
 40
0.0304113
 50
62.5953603843386
 51
90.0
  0
ARC
  5
50
  8
0
 10
-0.0630414198115332
 20
0.4906356400000007
 30
0.0
 40
0.0304113
 50
90.0
 51
117.4046396156614
  0
ARC
  5
51
  8
0
 10
-0.125304752458387
 20
0.6107299824167782
 30
0.0
 40
0.1048638775929734
 50
291.9155809654146
 51
297.4046396156615
  0
LINE
  5
52
  8
0
 10
-0.0630414198115332
 20
0.5210469400000051
 30
0.0
 11
0.0
 21
0.5210469400000051
 31
0.0
  0
ENDSEC
  0
EOF
