  0
SECTION
  2
HEADER
  9
$ACADVER
  1
AC1009
  9
$DWGCODEPAGE
  3
ansi_1252
  9
$INSBASE
 10
0.0
 20
0.0
 30
0.0
  9
$EXTMIN
 10
-0.3092067719698577
 20
-0.0010137099999952
 30
0.0
  9
$EXTMAX
 10
0.309206771969857
 20
0.8099543587343623
 30
0.0
  9
$LIMMIN
 10
0.0
 20
0.0
  9
$LIMMAX
 10
90.0
 20
65.0
  9
$ORTHOMODE
 70
     0
  9
$REGENMODE
 70
     1
  9
$FILLMODE
 70
     1
  9
$QTEXTMODE
 70
     0
  9
$MIRRTEXT
 70
     1
  9
$DRAGMODE
 70
     2
  9
$LTSCALE
 40
0.5
  9
$OSMODE
 70
    37
  9
$ATTMODE
 70
     1
  9
$TEXTSIZE
 40
30.0
  9
$TRACEWID
 40
0.05
  9
$TEXTSTYLE
  7
STANDARD
  9
$CLAYER
  8
0
  9
$CELTYPE
  6
BYLAYER
  9
$CECOLOR
 62
   256
  9
$DIMSCALE
 40
1.0
  9
$DIMASZ
 40
0.18
  9
$DIMEXO
 40
0.0625
  9
$DIMDLI
 40
0.38
  9
$DIMRND
 40
0.0
  9
$DIMDLE
 40
0.0
  9
$DIMEXE
 40
0.18
  9
$DIMTP
 40
0.0
  9
$DIMTM
 40
0.0
  9
$DIMTXT
 40
0.18
  9
$DIMCEN
 40
0.09
  9
$DIMTSZ
 40
0.0
  9
$DIMTOL
 70
     0
  9
$DIMLIM
 70
     0
  9
$DIMTIH
 70
     1
  9
$DIMTOH
 70
     1
  9
$DIMSE1
 70
     0
  9
$DIMSE2
 70
     0
  9
$DIMTAD
 70
     0
  9
$DIMZIN
 70
     0
  9
$DIMBLK
  1

  9
$DIMASO
 70
     1
  9
$DIMSHO
 70
     0
  9
$DIMPOST
  1

  9
$DIMAPOST
  1

  9
$DIMALT
 70
     0
  9
$DIMALTD
 70
     2
  9
$DIMALTF
 40
25.4
  9
$DIMLFAC
 40
1.0
  9
$DIMTOFL
 70
     0
  9
$DIMTVP
 40
0.0
  9
$DIMTIX
 70
     0
  9
$DIMSOXD
 70
     0
  9
$DIMSAH
 70
     0
  9
$DIMBLK1
  1

  9
$DIMBLK2
  1

  9
$DIMSTYLE
  2
STANDARD
  9
$DIMCLRD
 70
     0
  9
$DIMCLRE
 70
     0
  9
$DIMCLRT
 70
     0
  9
$DIMTFAC
 40
1.0
  9
$DIMGAP
 40
0.09
  9
$LUNITS
 70
     2
  9
$LUPREC
 70
     4
  9
$SKETCHINC
 40
0.1
  9
$FILLETRAD
 40
0.0
  9
$AUNITS
 70
     0
  9
$AUPREC
 70
     2
  9
$MENU
  1
ACAD
  9
$ELEVATION
 40
0.0
  9
$PELEVATION
 40
0.0
  9
$THICKNESS
 40
0.0
  9
$LIMCHECK
 70
     0
  9
$CHAMFERA
 40
0.0
  9
$CHAMFERB
 40
0.0
  9
$SKPOLY
 70
     0
  9
$TDCREATE
 40
2449028.72886632
  9
$TDUPDATE
 40
2457869.462511574
  9
$TDINDWG
 40
0.0004216319
  9
$TDUSRTIMER
 40
0.0004216319
  9
$USRTIMER
 70
     1
  9
$ANGBASE
 50
0.0
  9
$ANGDIR
 70
     0
  9
$PDMODE
 70
     3
  9
$PDSIZE
 40
0.2
  9
$PLINEWID
 40
0.0
  9
$COORDS
 70
     1
  9
$SPLFRAME
 70
     0
  9
$SPLINETYPE
 70
     6
  9
$SPLINESEGS
 70
     8
  9
$ATTDIA
 70
     0
  9
$ATTREQ
 70
     1
  9
$HANDLING
 70
     1
  9
$HANDSEED
  5
EB
  9
$SURFTAB1
 70
     6
  9
$SURFTAB2
 70
     6
  9
$SURFTYPE
 70
     6
  9
$SURFU
 70
     6
  9
$SURFV
 70
     6
  9
$UCSNAME
  2

  9
$UCSORG
 10
0.0
 20
0.0
 30
0.0
  9
$UCSXDIR
 10
1.0
 20
0.0
 30
0.0
  9
$UCSYDIR
 10
0.0
 20
1.0
 30
0.0
  9
$PUCSNAME
  2

  9
$PUCSORG
 10
0.0
 20
0.0
 30
0.0
  9
$PUCSXDIR
 10
1.0
 20
0.0
 30
0.0
  9
$PUCSYDIR
 10
0.0
 20
1.0
 30
0.0
  9
$USERI1
 70
     0
  9
$USERI2
 70
     0
  9
$USERI3
 70
     0
  9
$USERI4
 70
     0
  9
$USERI5
 70
     0
  9
$USERR1
 40
0.0
  9
$USERR2
 40
0.0
  9
$USERR3
 40
0.0
  9
$USERR4
 40
0.0
  9
$USERR5
 40
0.0
  9
$WORLDVIEW
 70
     1
  9
$SHADEDGE
 70
     3
  9
$SHADEDIF
 70
    70
  9
$TILEMODE
 70
     1
  9
$MAXACTVP
 70
     4
  9
$PLIMCHECK
 70
     0
  9
$PEXTMIN
 10
1.000000000000000E+20
 20
1.000000000000000E+20
 30
1.000000000000000E+20
  9
$PEXTMAX
 10
-1.000000000000000E+20
 20
-1.000000000000000E+20
 30
-1.000000000000000E+20
  9
$PLIMMIN
 10
0.0
 20
0.0
  9
$PLIMMAX
 10
12.0
 20
9.0
  9
$UNITMODE
 70
     0
  9
$VISRETAIN
 70
     0
  9
$PLINEGEN
 70
     0
  9
$PSLTSCALE
 70
     0
  0
ENDSEC
  0
SECTION
  2
TABLES
  0
TABLE
  2
VPORT
 70
     1
  0
VPORT
  2
*ACTIVE
 70
     0
 10
0.0
 20
0.0
 11
1.0
 21
1.0
 12
0.0006868026692928
 22
0.5212062398802686
 13
85.19999999999999
 23
-133.65
 14
0.05
 24
0.05
 15
0.5
 25
0.5
 16
0.0
 26
0.0
 36
1.0
 17
0.0
 27
0.0
 37
0.0
 40
1.069454093138635
 41
1.376889848812095
 42
50.0
 43
0.0
 44
0.0
 50
0.0
 51
0.0
 71
     0
 72
  2000
 73
     1
 74
     2
 75
     0
 76
     0
 77
     0
 78
     0
  0
ENDTAB
  0
TABLE
  2
LTYPE
 70
     1
  0
LTYPE
  2
CONTINUOUS
 70
     0
  3
Solid line
 72
    65
 73
     0
 40
0.0
  0
ENDTAB
  0
TABLE
  2
LAYER
 70
     1
  0
LAYER
  2
0
 70
     0
 62
     7
  6
CONTINUOUS
  0
ENDTAB
  0
TABLE
  2
STYLE
 70
     1
  0
STYLE
  2
STANDARD
 70
     0
 40
0.0
 41
1.0
 50
0.0
 71
     0
 42
30.0
  3
txt
  4

  0
ENDTAB
  0
TABLE
  2
VIEW
 70
     0
  0
ENDTAB
  0
TABLE
  2
UCS
 70
     0
  0
ENDTAB
  0
TABLE
  2
APPID
 70
     1
  0
APPID
  2
ACAD
 70
     0
  0
ENDTAB
  0
TABLE
  2
DIMSTYLE
 70
     1
  0
DIMSTYLE
  2
STANDARD
 70
     0
  3

  4

  5

  6

  7

 40
1.0
 41
0.18
 42
0.0625
 43
0.38
 44
0.18
 45
0.0
 46
0.0
 47
0.0
 48
0.0
140
0.18
141
0.09
142
0.0
143
25.4
144
1.0
145
0.0
146
1.0
147
0.09
 71
     0
 72
     0
 73
     1
 74
     1
 75
     0
 76
     0
 77
     0
 78
     0
170
     0
171
     2
172
     0
173
     0
174
     0
175
     0
176
     0
177
     0
178
     0
  0
ENDTAB
  0
ENDSEC
  0
SECTION
  2
BLOCKS
  0
BLOCK
  8
0
  2
$MODEL_SPACE
 70
     0
 10
0.0
 20
0.0
 30
0.0
  3
$MODEL_SPACE
  1

  0
ENDBLK
  5
1F
  8
0
  0
BLOCK
 67
     1
  8
0
  2
$PAPER_SPACE
 70
     0
 10
0.0
 20
0.0
 30
0.0
  3
$PAPER_SPACE
  1

  0
ENDBLK
  5
1D
 67
     1
  8
0
  0
ENDSEC
  0
SECTION
  2
ENTITIES
  0
POLYLINE
  5
23
  8
0
 66
     1
 10
0.0
 20
0.0
 30
0.0
 70
     1
  0
VERTEX
  5
BF
  8
0
 10
0.0
 20
-0.0010137099999952
 30
0.0
  0
VERTEX
  5
C0
  8
0
 10
0.0709596999999995
 20
-0.0010137099999952
 30
0.0
 42
0.414213562373095
  0
VERTEX
  5
C1
  8
0
 10
0.0760282499999985
 20
0.004054840000002
 30
0.0
  0
VERTEX
  5
C2
  8
0
 10
0.0760282499999985
 20
0.6384831950354553
 30
0.0
 42
-0.001011761671403
  0
VERTEX
  5
C3
  8
0
 10
0.0780556699999995
 20
0.6381304450000016
 30
0.0
 42
0.2781628673229407
  0
VERTEX
  5
C4
  8
0
 10
0.0826807602977571
 20
0.6400364475177156
 30
0.0
  0
VERTEX
  5
C5
  8
0
 10
0.0831242200000002
 20
0.6406647200000037
 30
0.0
 42
-0.1985762802422379
  0
VERTEX
  5
C6
  8
0
 10
0.0892064799999996
 20
0.6447195600000057
 30
0.0
 42
0.0699436849222648
  0
VERTEX
  5
C7
  8
0
 10
0.1723306999999998
 20
0.6690485999999964
 30
0.0
 42
0.0670171100160102
  0
VERTEX
  5
C8
  8
0
 10
0.2382218499999986
 20
0.7095970000000094
 30
0.0
 42
0.0545091885109728
  0
VERTEX
  5
C9
  8
0
 10
0.2919484800000003
 20
0.7668716150000066
 30
0.0
 42
-0.1048467747045367
  0
VERTEX
  5
CA
  8
0
 10
0.2961880741036875
 20
0.7706733249007414
 30
0.0
 42
0.7720819738882914
  0
VERTEX
  5
CB
  8
0
 10
0.2917070046374821
 20
0.8098589175446946
 30
0.0
 42
0.0365473723055542
  0
VERTEX
  5
CC
  8
0
 10
0.2903319163540168
 20
0.8099542900000003
 30
0.0
  0
VERTEX
  5
CD
  8
0
 10
0.2113585350000005
 20
0.8099542900000003
 30
0.0
  0
VERTEX
  5
CE
  8
0
 10
0.0
 20
0.8099542900000003
 30
0.0
  0
VERTEX
  5
CF
  8
0
 10
-0.2113585350000022
 20
0.8099542900000003
 30
0.0
  0
VERTEX
  5
D0
  8
0
 10
-0.2903319163540186
 20
0.8099542900000003
 30
0.0
 42
0.0365473723055542
  0
VERTEX
  5
D1
  8
0
 10
-0.2917070046374839
 20
0.8098589175446946
 30
0.0
 42
0.7720819738882914
  0
VERTEX
  5
D2
  8
0
 10
-0.2961880741036875
 20
0.7706733249007414
 30
0.0
 42
-0.1048467747045367
  0
VERTEX
  5
D3
  8
0
 10
-0.2919484800000003
 20
0.7668716150000066
 30
0.0
 42
0.0545091885109728
  0
VERTEX
  5
D4
  8
0
 10
-0.2382218500000004
 20
0.7095970000000094
 30
0.0
 42
0.0670171100160102
  0
VERTEX
  5
D5
  8
0
 10
-0.1723306999999998
 20
0.6690485999999964
 30
0.0
 42
0.0699436849222648
  0
VERTEX
  5
D6
  8
0
 10
-0.0892064800000014
 20
0.6447195600000057
 30
0.0
 42
-0.1985762802422379
  0
VERTEX
  5
D7
  8
0
 10
-0.083124220000002
 20
0.6406647200000037
 30
0.0
  0
VERTEX
  5
D8
  8
0
 10
-0.0826807602977588
 20
0.6400364475177156
 30
0.0
 42
0.2781628673229407
  0
VERTEX
  5
D9
  8
0
 10
-0.0780556700000012
 20
0.6381304450000016
 30
0.0
 42
-0.001011761671403
  0
VERTEX
  5
DA
  8
0
 10
-0.0760282500000002
 20
0.6384831950354553
 30
0.0
  0
VERTEX
  5
DB
  8
0
 10
-0.0760282500000002
 20
0.004054840000002
 30
0.0
 42
0.414213562373095
  0
VERTEX
  5
DC
  8
0
 10
-0.0709597000000013
 20
-0.0010137099999952
 30
0.0
  0
SEQEND
  5
E8
  8
0
  0
POLYLINE
  5
43
  8
0
 66
     1
 10
0.0
 20
0.0
 30
0.0
  0
VERTEX
  5
DD
  8
0
 10
-0.2961880741036875
 20
0.7706733249007414
 30
0.0
 42
0.0645335102488265
  0
VERTEX
  5
DE
  8
0
 10
-0.2910993036641933
 20
0.7694237043798182
 30
0.0
 42
0.0462235105188862
  0
VERTEX
  5
DF
  8
0
 10
-0.2907255002478308
 20
0.7694058900000016
 30
0.0
  0
VERTEX
  5
E0
  8
0
 10
0.0
 20
0.7694058900000016
 30
0.0
  0
VERTEX
  5
E1
  8
0
 10
0.2907255002478308
 20
0.7694058900000016
 30
0.0
 42
0.0462235105188862
  0
VERTEX
  5
E2
  8
0
 10
0.2910993036641933
 20
0.7694237043798182
 30
0.0
 42
0.0645335102488265
  0
VERTEX
  5
E3
  8
0
 10
0.2961880741036875
 20
0.7706733249007414
 30
0.0
 42
0.0645335102488265
  0
SEQEND
  5
E9
  8
0
  0
POLYLINE
  5
4C
  8
0
 66
     1
 10
0.0
 20
0.0
 30
0.0
  0
VERTEX
  5
E4
  8
0
 10
0.0760282499999985
 20
0.6384831950354553
 30
0.0
 42
0.0371311548408183
  0
VERTEX
  5
E5
  8
0
 10
0.0009563851259919
 20
0.6457133316665136
 30
0.0
  0
VERTEX
  5
E6
  8
0
 10
-0.0021684736842307
 20
0.6456854761583912
 30
0.0
 42
0.0365342626050305
  0
VERTEX
  5
E7
  8
0
 10
-0.0760282500000002
 20
0.6384831950354553
 30
0.0
 42
0.0376021226577118
  0
SEQEND
  5
EA
  8
0
  0
ENDSEC
  0
EOF
