  0
SECTION
  2
HEADER
  9
$ACADVER
  1
AC1009
  9
$DWGCODEPAGE
  3
ansi_1252
  9
$INSBASE
 10
0.0
 20
0.0
 30
0.0
  9
$EXTMIN
 10
-0.2832744936333905
 20
0.0
 30
0.0
  9
$EXTMAX
 10
0.2832744936333906
 20
0.8109680000000026
 30
0.0
  9
$LIMMIN
 10
0.0
 20
0.0
  9
$LIMMAX
 10
90.0
 20
65.0
  9
$ORTHOMODE
 70
     0
  9
$REGENMODE
 70
     1
  9
$FILLMODE
 70
     1
  9
$QTEXTMODE
 70
     0
  9
$MIRRTEXT
 70
     1
  9
$DRAGMODE
 70
     2
  9
$LTSCALE
 40
0.5
  9
$OSMODE
 70
    37
  9
$ATTMODE
 70
     1
  9
$TEXTSIZE
 40
30.0
  9
$TRACEWID
 40
0.05
  9
$TEXTSTYLE
  7
STANDARD
  9
$CLAYER
  8
0
  9
$CELTYPE
  6
BYLAYER
  9
$CECOLOR
 62
   256
  9
$DIMSCALE
 40
1.0
  9
$DIMASZ
 40
0.18
  9
$DIMEXO
 40
0.0625
  9
$DIMDLI
 40
0.38
  9
$DIMRND
 40
0.0
  9
$DIMDLE
 40
0.0
  9
$DIMEXE
 40
0.18
  9
$DIMTP
 40
0.0
  9
$DIMTM
 40
0.0
  9
$DIMTXT
 40
0.18
  9
$DIMCEN
 40
0.09
  9
$DIMTSZ
 40
0.0
  9
$DIMTOL
 70
     0
  9
$DIMLIM
 70
     0
  9
$DIMTIH
 70
     1
  9
$DIMTOH
 70
     1
  9
$DIMSE1
 70
     0
  9
$DIMSE2
 70
     0
  9
$DIMTAD
 70
     0
  9
$DIMZIN
 70
     0
  9
$DIMBLK
  1

  9
$DIMASO
 70
     1
  9
$DIMSHO
 70
     0
  9
$DIMPOST
  1

  9
$DIMAPOST
  1

  9
$DIMALT
 70
     0
  9
$DIMALTD
 70
     2
  9
$DIMALTF
 40
25.4
  9
$DIMLFAC
 40
1.0
  9
$DIMTOFL
 70
     0
  9
$DIMTVP
 40
0.0
  9
$DIMTIX
 70
     0
  9
$DIMSOXD
 70
     0
  9
$DIMSAH
 70
     0
  9
$DIMBLK1
  1

  9
$DIMBLK2
  1

  9
$DIMSTYLE
  2
STANDARD
  9
$DIMCLRD
 70
     0
  9
$DIMCLRE
 70
     0
  9
$DIMCLRT
 70
     0
  9
$DIMTFAC
 40
1.0
  9
$DIMGAP
 40
0.09
  9
$LUNITS
 70
     2
  9
$LUPREC
 70
     4
  9
$SKETCHINC
 40
0.1
  9
$FILLETRAD
 40
0.0
  9
$AUNITS
 70
     0
  9
$AUPREC
 70
     2
  9
$MENU
  1
ACAD
  9
$ELEVATION
 40
0.0
  9
$PELEVATION
 40
0.0
  9
$THICKNESS
 40
0.0
  9
$LIMCHECK
 70
     0
  9
$CHAMFERA
 40
0.0
  9
$CHAMFERB
 40
0.0
  9
$SKPOLY
 70
     0
  9
$TDCREATE
 40
2449028.728935648
  9
$TDUPDATE
 40
2457869.462511574
  9
$TDINDWG
 40
0.0002993634
  9
$TDUSRTIMER
 40
0.0002993634
  9
$USRTIMER
 70
     1
  9
$ANGBASE
 50
0.0
  9
$ANGDIR
 70
     0
  9
$PDMODE
 70
     3
  9
$PDSIZE
 40
0.2
  9
$PLINEWID
 40
0.0
  9
$COORDS
 70
     1
  9
$SPLFRAME
 70
     0
  9
$SPLINETYPE
 70
     6
  9
$SPLINESEGS
 70
     8
  9
$ATTDIA
 70
     0
  9
$ATTREQ
 70
     1
  9
$HANDLING
 70
     1
  9
$HANDSEED
  5
11D
  9
$SURFTAB1
 70
     6
  9
$SURFTAB2
 70
     6
  9
$SURFTYPE
 70
     6
  9
$SURFU
 70
     6
  9
$SURFV
 70
     6
  9
$UCSNAME
  2

  9
$UCSORG
 10
0.0
 20
0.0
 30
0.0
  9
$UCSXDIR
 10
1.0
 20
0.0
 30
0.0
  9
$UCSYDIR
 10
0.0
 20
1.0
 30
0.0
  9
$PUCSNAME
  2

  9
$PUCSORG
 10
0.0
 20
0.0
 30
0.0
  9
$PUCSXDIR
 10
1.0
 20
0.0
 30
0.0
  9
$PUCSYDIR
 10
0.0
 20
1.0
 30
0.0
  9
$USERI1
 70
     0
  9
$USERI2
 70
     0
  9
$USERI3
 70
     0
  9
$USERI4
 70
     0
  9
$USERI5
 70
     0
  9
$USERR1
 40
0.0
  9
$USERR2
 40
0.0
  9
$USERR3
 40
0.0
  9
$USERR4
 40
0.0
  9
$USERR5
 40
0.0
  9
$WORLDVIEW
 70
     1
  9
$SHADEDGE
 70
     3
  9
$SHADEDIF
 70
    70
  9
$TILEMODE
 70
     1
  9
$MAXACTVP
 70
     4
  9
$PLIMCHECK
 70
     0
  9
$PEXTMIN
 10
1.000000000000000E+20
 20
1.000000000000000E+20
 30
1.000000000000000E+20
  9
$PEXTMAX
 10
-1.000000000000000E+20
 20
-1.000000000000000E+20
 30
-1.000000000000000E+20
  9
$PLIMMIN
 10
0.0
 20
0.0
  9
$PLIMMAX
 10
12.0
 20
9.0
  9
$UNITMODE
 70
     0
  9
$VISRETAIN
 70
     0
  9
$PLINEGEN
 70
     0
  9
$PSLTSCALE
 70
     0
  0
ENDSEC
  0
SECTION
  2
TABLES
  0
TABLE
  2
VPORT
 70
     1
  0
VPORT
  2
*ACTIVE
 70
     0
 10
0.0
 20
0.0
 11
1.0
 21
1.0
 12
0.1554336159146159
 22
0.6378658581197962
 13
85.19999999999999
 23
-133.65
 14
0.05
 24
0.05
 15
0.5
 25
0.5
 16
0.0
 26
0.0
 36
1.0
 17
0.0
 27
0.0
 37
0.0
 40
1.292956468987791
 41
1.376889848812095
 42
50.0
 43
0.0
 44
0.0
 50
0.0
 51
0.0
 71
     0
 72
  2000
 73
     1
 74
     2
 75
     0
 76
     0
 77
     0
 78
     0
  0
ENDTAB
  0
TABLE
  2
LTYPE
 70
     1
  0
LTYPE
  2
CONTINUOUS
 70
     0
  3
Solid line
 72
    65
 73
     0
 40
0.0
  0
ENDTAB
  0
TABLE
  2
LAYER
 70
     1
  0
LAYER
  2
0
 70
     0
 62
     7
  6
CONTINUOUS
  0
ENDTAB
  0
TABLE
  2
STYLE
 70
     1
  0
STYLE
  2
STANDARD
 70
     0
 40
0.0
 41
1.0
 50
0.0
 71
     0
 42
30.0
  3
txt
  4

  0
ENDTAB
  0
TABLE
  2
VIEW
 70
     0
  0
ENDTAB
  0
TABLE
  2
UCS
 70
     0
  0
ENDTAB
  0
TABLE
  2
APPID
 70
     1
  0
APPID
  2
ACAD
 70
     0
  0
ENDTAB
  0
TABLE
  2
DIMSTYLE
 70
     1
  0
DIMSTYLE
  2
STANDARD
 70
     0
  3

  4

  5

  6

  7

 40
1.0
 41
0.18
 42
0.0625
 43
0.38
 44
0.18
 45
0.0
 46
0.0
 47
0.0
 48
0.0
140
0.18
141
0.09
142
0.0
143
25.4
144
1.0
145
0.0
146
1.0
147
0.09
 71
     0
 72
     0
 73
     1
 74
     1
 75
     0
 76
     0
 77
     0
 78
     0
170
     0
171
     2
172
     0
173
     0
174
     0
175
     0
176
     0
177
     0
178
     0
  0
ENDTAB
  0
ENDSEC
  0
SECTION
  2
BLOCKS
  0
BLOCK
  8
0
  2
$MODEL_SPACE
 70
     0
 10
0.0
 20
0.0
 30
0.0
  3
$MODEL_SPACE
  1

  0
ENDBLK
  5
1F
  8
0
  0
BLOCK
 67
     1
  8
0
  2
$PAPER_SPACE
 70
     0
 10
0.0
 20
0.0
 30
0.0
  3
$PAPER_SPACE
  1

  0
ENDBLK
  5
1D
 67
     1
  8
0
  0
ENDSEC
  0
SECTION
  2
ENTITIES
  0
POLYLINE
  5
23
  8
0
 66
     1
 10
0.0
 20
0.0
 30
0.0
  0
VERTEX
  5
E0
  8
0
 10
-0.0861653500000017
 20
0.5727461500000004
 30
0.0
 42
-0.0780920474157858
  0
VERTEX
  5
E1
  8
0
 10
-0.0718787970666632
 20
0.4804985399999993
 30
0.0
  0
VERTEX
  5
E2
  8
0
 10
-0.0935267664811974
 20
0.0052992113883761
 30
0.0
 42
0.427610993186133
  0
VERTEX
  5
E3
  8
0
 10
-0.0884634677119749
 20
0.0
 30
0.0
  0
VERTEX
  5
E4
  8
0
 10
0.0
 20
0.0
 30
0.0
  0
VERTEX
  5
E5
  8
0
 10
0.0884634677119749
 20
0.0
 30
0.0
 42
0.4276109931861327
  0
VERTEX
  5
E6
  8
0
 10
0.0935267664811974
 20
0.0052992113883761
 30
0.0
  0
VERTEX
  5
E7
  8
0
 10
0.0718787970666668
 20
0.4804985399999993
 30
0.0
 42
-0.0780920474157861
  0
VERTEX
  5
E8
  8
0
 10
0.0861653500000017
 20
0.5727461500000004
 30
0.0
  0
SEQEND
  5
114
  8
0
  0
POLYLINE
  5
2E
  8
0
 66
     1
 10
0.0
 20
0.0
 30
0.0
  0
VERTEX
  5
E9
  8
0
 10
-0.2746056886641242
 20
0.7454904160724425
 30
0.0
  0
VERTEX
  5
EA
  8
0
 10
-0.2468794721121057
 20
0.7349230489727105
 30
0.0
 42
0.0912864073447649
  0
VERTEX
  5
EB
  8
0
 10
-0.2414640947402162
 20
0.7339260400000001
 30
0.0
  0
VERTEX
  5
EC
  8
0
 10
0.0
 20
0.7339260400000001
 30
0.0
  0
VERTEX
  5
ED
  8
0
 10
0.2414640947402198
 20
0.7339260400000001
 30
0.0
 42
0.0912864073447649
  0
VERTEX
  5
EE
  8
0
 10
0.2468794721121057
 20
0.7349230489727105
 30
0.0
  0
VERTEX
  5
EF
  8
0
 10
0.2746056886641242
 20
0.7454904160724425
 30
0.0
  0
SEQEND
  5
115
  8
0
  0
POLYLINE
  5
37
  8
0
 66
     1
 10
0.0
 20
0.0
 30
0.0
  0
VERTEX
  5
F0
  8
0
 10
0.2330103825188061
 20
0.7094389225988849
 30
0.0
 42
-0.0748164615923686
  0
VERTEX
  5
F1
  8
0
 10
0.223023622663753
 20
0.70858329
 30
0.0
  0
VERTEX
  5
F2
  8
0
 10
0.0
 20
0.70858329
 30
0.0
  0
VERTEX
  5
F3
  8
0
 10
-0.223023622663753
 20
0.70858329
 30
0.0
 42
-0.0748164615923686
  0
VERTEX
  5
F4
  8
0
 10
-0.2330103825188026
 20
0.7094389225988849
 30
0.0
  0
SEQEND
  5
116
  8
0
  0
POLYLINE
  5
3E
  8
0
 66
     1
 10
0.0
 20
0.0
 30
0.0
 70
     1
  0
VERTEX
  5
F5
  8
0
 10
0.2792938295894203
 20
0.7516308863063159
 30
0.0
  0
VERTEX
  5
F6
  8
0
 10
0.2832537690787831
 20
0.8033300963063184
 30
0.0
 42
0.4367856524069103
  0
VERTEX
  5
F7
  8
0
 10
0.2761785236333907
 20
0.8109680000000026
 30
0.0
  0
VERTEX
  5
F8
  8
0
 10
0.0
 20
0.8109680000000026
 30
0.0
  0
VERTEX
  5
F9
  8
0
 10
-0.2761785236333871
 20
0.8109680000000026
 30
0.0
 42
0.4367856524069103
  0
VERTEX
  5
FA
  8
0
 10
-0.2832537690787831
 20
0.8033300963063184
 30
0.0
  0
VERTEX
  5
FB
  8
0
 10
-0.2792938295894167
 20
0.7516308863063159
 30
0.0
  0
VERTEX
  5
FC
  8
0
 10
-0.2677434969637709
 20
0.6008348770270473
 30
0.0
 42
0.3919960828183318
  0
VERTEX
  5
FD
  8
0
 10
-0.2374210164835198
 20
0.5727461500000004
 30
0.0
  0
VERTEX
  5
FE
  8
0
 10
0.0
 20
0.5727461500000004
 30
0.0
  0
VERTEX
  5
FF
  8
0
 10
0.2374210164835233
 20
0.5727461500000004
 30
0.0
 42
0.3919960828183315
  0
VERTEX
  5
100
  8
0
 10
0.2677434969637744
 20
0.6008348770270473
 30
0.0
  0
SEQEND
  5
117
  8
0
  0
POLYLINE
  5
4C
  8
0
 66
     1
 10
0.0
 20
0.0
 30
0.0
  0
VERTEX
  5
101
  8
0
 10
0.2792938295894203
 20
0.7516308863063159
 30
0.0
 42
-0.3919960828183315
  0
VERTEX
  5
102
  8
0
 10
0.2722185841440279
 20
0.7450768500000038
 30
0.0
  0
VERTEX
  5
103
  8
0
 10
0.0
 20
0.7450768500000038
 30
0.0
  0
VERTEX
  5
104
  8
0
 10
-0.2722185841440243
 20
0.7450768500000038
 30
0.0
 42
-0.3919960828183318
  0
VERTEX
  5
105
  8
0
 10
-0.2792938295894167
 20
0.7516308863063159
 30
0.0
  0
SEQEND
  5
118
  8
0
  0
POLYLINE
  5
53
  8
0
 66
     1
 10
0.0
 20
0.0
 30
0.0
  0
VERTEX
  5
106
  8
0
 10
-0.2225143824701554
 20
0.5727461500000004
 30
0.0
 42
-0.3834209052522761
  0
VERTEX
  5
107
  8
0
 10
-0.2275543417961146
 20
0.5772771043385703
 30
0.0
  0
VERTEX
  5
108
  8
0
 10
-0.2429445662682639
 20
0.7215604587649764
 30
0.0
 42
0.2822552489323189
  0
VERTEX
  5
109
  8
0
 10
-0.2558839004095752
 20
0.7383549308222968
 30
0.0
  0
SEQEND
  5
119
  8
0
  0
POLYLINE
  5
59
  8
0
 66
     1
 10
0.0
 20
0.0
 30
0.0
  0
VERTEX
  5
10A
  8
0
 10
-0.2085284902073354
 20
0.5727461500000004
 30
0.0
 42
-0.3703207313345966
  0
VERTEX
  5
10B
  8
0
 10
-0.2135384870736772
 20
0.577046500480499
 30
0.0
  0
VERTEX
  5
10C
  8
0
 10
-0.2358375240596473
 20
0.7224750025629234
 30
0.0
 42
0.2699099508587045
  0
VERTEX
  5
10D
  8
0
 10
-0.245452137286776
 20
0.7343790450316945
 30
0.0
  0
SEQEND
  5
11A
  8
0
  0
LINE
  5
5F
  8
0
 10
-0.2497706744018338
 20
0.736694480753286
 30
0.0
 11
-0.2496970706361878
 21
0.7366692280110101
 31
0.0
  0
LINE
  5
60
  8
0
 10
-0.2442635616000004
 20
0.7339260400000001
 30
0.0
 11
-0.2375933498000009
 21
0.7339260400000001
 31
0.0
  0
POLYLINE
  5
61
  8
0
 66
     1
 10
0.0
 20
0.0
 30
0.0
  0
VERTEX
  5
10E
  8
0
 10
0.2275543417961146
 20
0.5772771043385703
 30
0.0
  0
VERTEX
  5
10F
  8
0
 10
0.2429445662682674
 20
0.7215604587649764
 30
0.0
 42
-0.2822552489323189
  0
VERTEX
  5
110
  8
0
 10
0.2558839004095788
 20
0.7383549308222968
 30
0.0
  0
SEQEND
  5
11B
  8
0
  0
POLYLINE
  5
66
  8
0
 66
     1
 10
0.0
 20
0.0
 30
0.0
  0
VERTEX
  5
111
  8
0
 10
0.2135384870736772
 20
0.577046500480499
 30
0.0
  0
VERTEX
  5
112
  8
0
 10
0.2358375240596509
 20
0.7224750025629234
 30
0.0
 42
-0.2699099508587045
  0
VERTEX
  5
113
  8
0
 10
0.2454521372867795
 20
0.7343790450316945
 30
0.0
  0
SEQEND
  5
11C
  8
0
  0
LINE
  5
6B
  8
0
 10
0.2442635616000004
 20
0.7339260400000001
 30
0.0
 11
0.2375933498000009
 21
0.7339260400000001
 31
0.0
  0
ARC
  5
6C
  8
0
 10
0.2085284902073354
 20
0.5778147000000047
 30
0.0
 40
0.00506855
 50
270.0000000000001
 51
351.2825430354004
  0
ARC
  5
6D
  8
0
 10
0.222514382470159
 20
0.5778147000000047
 30
0.0
 40
0.00506855
 50
270.0000000000001
 51
353.9114718458048
  0
LINE
  5
6E
  8
0
 10
0.2497706744018373
 20
0.736694480753286
 30
0.0
 11
0.2496970706361914
 21
0.7366692280110101
 31
0.0
  0
ENDSEC
  0
EOF
