  0
SECTION
  2
HEADER
  9
$ACADVER
  1
AC1009
  9
$DWGCODEPAGE
  3
ansi_1252
  9
$INSBASE
 10
0.0
 20
-0.015
 30
0.0
  9
$EXTMIN
 10
-0.253
 20
-0.6865010418784162
 30
0.0
  9
$EXTMAX
 10
0.2355192149288473
 20
-0.0149983963231301
 30
0.0
  9
$LIMMIN
 10
0.0
 20
0.0
  9
$LIMMAX
 10
600.0
 20
840.0
  9
$ORTHOMODE
 70
     0
  9
$REGENMODE
 70
     1
  9
$FILLMODE
 70
     1
  9
$QTEXTMODE
 70
     0
  9
$MIRRTEXT
 70
     1
  9
$DRAGMODE
 70
     2
  9
$LTSCALE
 40
50.0
  9
$OSMODE
 70
    37
  9
$ATTMODE
 70
     1
  9
$TEXTSIZE
 40
0.024
  9
$TRACEWID
 40
0.05
  9
$TEXTSTYLE
  7
STANDARD
  9
$CLAYER
  8
ARQ-SAN
  9
$CELTYPE
  6
BYLAYER
  9
$CECOLOR
 62
   256
  9
$DIMSCALE
 40
3.0
  9
$DIMASZ
 40
0.006
  9
$DIMEXO
 40
0.004
  9
$DIMDLI
 40
0.38
  9
$DIMRND
 40
0.0
  9
$DIMDLE
 40
0.0
  9
$DIMEXE
 40
0.00018
  9
$DIMTP
 40
0.0
  9
$DIMTM
 40
0.0
  9
$DIMTXT
 40
0.004
  9
$DIMCEN
 40
0.09
  9
$DIMTSZ
 40
0.0
  9
$DIMTOL
 70
     0
  9
$DIMLIM
 70
     0
  9
$DIMTIH
 70
     0
  9
$DIMTOH
 70
     1
  9
$DIMSE1
 70
     0
  9
$DIMSE2
 70
     0
  9
$DIMTAD
 70
     0
  9
$DIMZIN
 70
     0
  9
$DIMBLK
  1

  9
$DIMASO
 70
     1
  9
$DIMSHO
 70
     0
  9
$DIMPOST
  1

  9
$DIMAPOST
  1

  9
$DIMALT
 70
     0
  9
$DIMALTD
 70
     2
  9
$DIMALTF
 40
25.4
  9
$DIMLFAC
 40
1000.0
  9
$DIMTOFL
 70
     0
  9
$DIMTVP
 40
0.0
  9
$DIMTIX
 70
     0
  9
$DIMSOXD
 70
     0
  9
$DIMSAH
 70
     0
  9
$DIMBLK1
  1

  9
$DIMBLK2
  1

  9
$DIMSTYLE
  2
STANDARD
  9
$DIMCLRD
 70
     0
  9
$DIMCLRE
 70
     0
  9
$DIMCLRT
 70
     0
  9
$DIMTFAC
 40
1.0
  9
$DIMGAP
 40
0.09
  9
$LUNITS
 70
     2
  9
$LUPREC
 70
     4
  9
$SKETCHINC
 40
0.1
  9
$FILLETRAD
 40
0.0
  9
$AUNITS
 70
     0
  9
$AUPREC
 70
     0
  9
$MENU
  1
acad
  9
$ELEVATION
 40
0.0
  9
$PELEVATION
 40
0.0
  9
$THICKNESS
 40
0.0
  9
$LIMCHECK
 70
     0
  9
$CHAMFERA
 40
0.0
  9
$CHAMFERB
 40
0.0
  9
$SKPOLY
 70
     0
  9
$TDCREATE
 40
2444975.256022685
  9
$TDUPDATE
 40
2457718.552453704
  9
$TDINDWG
 40
0.1073263889
  9
$TDUSRTIMER
 40
0.1073263889
  9
$USRTIMER
 70
     1
  9
$ANGBASE
 50
0.0
  9
$ANGDIR
 70
     0
  9
$PDMODE
 70
     0
  9
$PDSIZE
 40
0.0
  9
$PLINEWID
 40
0.0
  9
$COORDS
 70
     1
  9
$SPLFRAME
 70
     0
  9
$SPLINETYPE
 70
     6
  9
$SPLINESEGS
 70
     8
  9
$ATTDIA
 70
     0
  9
$ATTREQ
 70
     1
  9
$HANDLING
 70
     1
  9
$HANDSEED
  5
184
  9
$SURFTAB1
 70
     6
  9
$SURFTAB2
 70
     6
  9
$SURFTYPE
 70
     6
  9
$SURFU
 70
     6
  9
$SURFV
 70
     6
  9
$UCSNAME
  2

  9
$UCSORG
 10
0.0
 20
0.0
 30
0.0
  9
$UCSXDIR
 10
1.0
 20
0.0
 30
0.0
  9
$UCSYDIR
 10
0.0
 20
1.0
 30
0.0
  9
$PUCSNAME
  2

  9
$PUCSORG
 10
0.0
 20
0.0
 30
0.0
  9
$PUCSXDIR
 10
1.0
 20
0.0
 30
0.0
  9
$PUCSYDIR
 10
0.0
 20
1.0
 30
0.0
  9
$USERI1
 70
     0
  9
$USERI2
 70
     0
  9
$USERI3
 70
     0
  9
$USERI4
 70
     0
  9
$USERI5
 70
     0
  9
$USERR1
 40
0.0
  9
$USERR2
 40
0.0
  9
$USERR3
 40
0.0
  9
$USERR4
 40
0.0
  9
$USERR5
 40
0.0
  9
$WORLDVIEW
 70
     1
  9
$SHADEDGE
 70
     3
  9
$SHADEDIF
 70
    70
  9
$TILEMODE
 70
     1
  9
$MAXACTVP
 70
    64
  9
$PLIMCHECK
 70
     0
  9
$PEXTMIN
 10
1.000000000000000E+20
 20
1.000000000000000E+20
 30
1.000000000000000E+20
  9
$PEXTMAX
 10
-1.000000000000000E+20
 20
-1.000000000000000E+20
 30
-1.000000000000000E+20
  9
$PLIMMIN
 10
0.0
 20
0.0
  9
$PLIMMAX
 10
12.0
 20
9.0
  9
$UNITMODE
 70
     0
  9
$VISRETAIN
 70
     1
  9
$PLINEGEN
 70
     0
  9
$PSLTSCALE
 70
     0
  0
ENDSEC
  0
SECTION
  2
TABLES
  0
TABLE
  2
VPORT
 70
     1
  0
VPORT
  2
*ACTIVE
 70
     0
 10
0.0
 20
0.0
 11
1.0
 21
1.0
 12
0.0683920940474971
 22
-0.2927051404328766
 13
0.0
 23
0.0
 14
10.0
 24
10.0
 15
0.0
 25
0.0
 16
0.0
 26
0.0
 36
1.0
 17
0.0
 27
0.0
 37
0.0
 40
0.8606563584706994
 41
1.503537735849057
 42
50.0
 43
0.0
 44
0.0
 50
0.0
 51
0.0
 71
     0
 72
   100
 73
     1
 74
     0
 75
     0
 76
     0
 77
     0
 78
     0
  0
ENDTAB
  0
TABLE
  2
LTYPE
 70
     2
  0
LTYPE
  2
CONTINUOUS
 70
     0
  3
Solid line
 72
    65
 73
     0
 40
0.0
  0
LTYPE
  2
HIDDEN
 70
     0
  3
_ _ _ _ _ _ _ _ _ _ _ _ _ _ _ _ _ _ _ _ _ _ _
 72
    65
 73
     2
 40
0.375
 49
0.25
 49
-0.125
  0
ENDTAB
  0
TABLE
  2
LAYER
 70
     2
  0
LAYER
  2
0
 70
     0
 62
     7
  6
CONTINUOUS
  0
LAYER
  2
ARQ-SAN
 70
     0
 62
     1
  6
CONTINUOUS
  0
ENDTAB
  0
TABLE
  2
STYLE
 70
     1
  0
STYLE
  2
STANDARD
 70
     0
 40
0.0
 41
1.0
 50
0.0
 71
     0
 42
0.024
  3
txt
  4

  0
ENDTAB
  0
TABLE
  2
VIEW
 70
     0
  0
ENDTAB
  0
TABLE
  2
UCS
 70
     0
  0
ENDTAB
  0
TABLE
  2
APPID
 70
     2
  0
APPID
  2
ACAD
 70
     0
  0
APPID
  2
DCO15
 70
     0
  0
ENDTAB
  0
TABLE
  2
DIMSTYLE
 70
     1
  0
DIMSTYLE
  2
STANDARD
 70
     0
  3

  4

  5

  6

  7

 40
1.0
 41
0.18
 42
0.0625
 43
0.38
 44
0.18
 45
0.0
 46
0.0
 47
0.0
 48
0.0
140
0.18
141
0.09
142
0.0
143
25.4
144
1.0
145
0.0
146
1.0
147
0.09
 71
     0
 72
     0
 73
     1
 74
     1
 75
     0
 76
     0
 77
     0
 78
     0
170
     0
171
     2
172
     0
173
     0
174
     0
175
     0
176
     0
177
     0
178
     0
  0
ENDTAB
  0
ENDSEC
  0
SECTION
  2
BLOCKS
  0
BLOCK
  8
0
  2
$MODEL_SPACE
 70
     0
 10
0.0
 20
0.0
 30
0.0
  3
$MODEL_SPACE
  1

  0
ENDBLK
  5
2E
  8
0
  0
BLOCK
 67
     1
  8
0
  2
$PAPER_SPACE
 70
     0
 10
0.0
 20
0.0
 30
0.0
  3
$PAPER_SPACE
  1

  0
ENDBLK
  5
2C
 67
     1
  8
0
  0
ENDSEC
  0
SECTION
  2
ENTITIES
  0
POLYLINE
  5
30
  8
0
 62
     0
 66
     1
 10
0.0
 20
0.0
 30
0.0
 70
     1
  0
VERTEX
  5
123
  8
0
 62
     0
 10
0.0259999999999998
 20
-0.4899999999999999
 30
0.0
 42
0.2265134566979074
  0
VERTEX
  5
124
  8
0
 62
     0
 10
0.0454999999999998
 20
-0.455
 30
0.0
  0
VERTEX
  5
125
  8
0
 62
     0
 10
0.0454999999999998
 20
-0.3759999999999999
 30
0.0
 42
0.1868131868131868
  0
VERTEX
  5
126
  8
0
 62
     0
 10
-0.0455000000000001
 20
-0.3759999999999999
 30
0.0
  0
VERTEX
  5
127
  8
0
 62
     0
 10
-0.0455000000000001
 20
-0.455
 30
0.0
 42
0.2265134566979074
  0
VERTEX
  5
128
  8
0
 62
     0
 10
-0.0260000000000001
 20
-0.4899999999999999
 30
0.0
 42
0.3269230769230771
  0
SEQEND
  5
17B
  8
0
 62
     0
  0
CIRCLE
  5
38
  8
0
 62
     0
 10
-0.0750000000000001
 20
-0.2599999999999999
 30
0.0
 40
0.0075
  0
POLYLINE
  5
3B
  8
0
 62
     0
 66
     1
 10
0.0
 20
0.0
 30
0.0
  0
VERTEX
  5
129
  8
0
 62
     0
 10
-0.1150000000000001
 20
-0.3179999999999999
 30
0.0
  0
VERTEX
  5
12A
  8
0
 62
     0
 10
-0.1150000000000001
 20
-0.2564999999999999
 30
0.0
  0
SEQEND
  5
17C
  8
0
 62
     0
  0
ARC
  5
3F
  8
0
 62
     0
 10
-0.1066297843791099
 20
-0.3170920288933258
 30
0.0
 40
0.0084193183257761
 50
186.1910337555744
 51
278.2536589199115
  0
CIRCLE
  5
40
  8
0
  6
HIDDEN
 62
     0
 10
-0.165
 20
-0.065
 30
0.0
 40
0.0125
  0
CIRCLE
  5
43
  8
0
  6
HIDDEN
 62
     0
 10
0.0
 20
-0.105
 30
0.0
 40
0.03
  0
CIRCLE
  5
44
  8
0
  6
HIDDEN
 62
     0
 10
0.0
 20
-0.105
 30
0.0
 40
0.0425
  0
CIRCLE
  5
45
  8
0
  6
HIDDEN
 62
     0
 10
0.0
 20
-0.105
 30
0.0
 40
0.045
  0
CIRCLE
  5
46
  8
0
  6
HIDDEN
 62
     0
 10
-0.07
 20
-0.105
 30
0.0
 40
0.0075
  0
CIRCLE
  5
4B
  8
0
  6
HIDDEN
 62
     0
 10
0.07
 20
-0.105
 30
0.0
 40
0.0075
  0
ARC
  5
4C
  8
0
 62
     0
 10
0.1066297843791097
 20
-0.3170920288933259
 30
0.0
 40
0.0084193183257761
 50
261.7463410800885
 51
353.8089662444256
  0
POLYLINE
  5
4D
  8
0
 62
     0
 66
     1
 10
0.0
 20
0.0
 30
0.0
  0
VERTEX
  5
12B
  8
0
 62
     0
 10
0.115
 20
-0.318
 30
0.0
  0
VERTEX
  5
12C
  8
0
 62
     0
 10
0.115
 20
-0.2565
 30
0.0
  0
SEQEND
  5
17D
  8
0
 62
     0
  0
CIRCLE
  5
53
  8
0
 62
     0
 10
0.0749999999999999
 20
-0.26
 30
0.0
 40
0.0075
  0
POLYLINE
  5
54
  8
0
 62
     0
 66
     1
 10
0.0
 20
0.0
 30
0.0
  0
VERTEX
  5
12D
  8
0
 62
     0
 10
0.1054211422243099
 20
-0.3254241417833671
 30
0.0
  0
VERTEX
  5
12E
  8
0
 62
     0
 10
0.1035156021699436
 20
-0.3255
 30
0.0
  0
VERTEX
  5
12F
  8
0
 62
     0
 10
-0.0000000000000001
 20
-0.3255
 30
0.0
  0
VERTEX
  5
130
  8
0
 62
     0
 10
-0.1035156021699437
 20
-0.3254999999999999
 30
0.0
  0
VERTEX
  5
131
  8
0
 62
     0
 10
-0.1054211422243101
 20
-0.3254241417833671
 30
0.0
  0
SEQEND
  5
17E
  8
0
 62
     0
  0
POLYLINE
  5
5B
  8
0
  6
HIDDEN
 62
     0
 66
     1
 10
0.0
 20
0.0
 30
0.0
 70
     1
  0
VERTEX
  5
132
  8
0
  6
HIDDEN
 62
     0
 10
-0.0000000000000001
 20
-0.19
 30
0.0
  0
VERTEX
  5
133
  8
0
  6
HIDDEN
 62
     0
 10
-0.1150000000000002
 20
-0.19
 30
0.0
  0
VERTEX
  5
134
  8
0
  6
HIDDEN
 62
     0
 10
-0.115
 20
-0.098
 30
0.0
 42
-0.1887277032137349
  0
VERTEX
  5
135
  8
0
  6
HIDDEN
 62
     0
 10
-0.1070937723696587
 20
-0.080986904783485
 30
0.0
 42
-0.0347805799767382
  0
VERTEX
  5
136
  8
0
  6
HIDDEN
 62
     0
 10
-0.1052363342756549
 20
-0.079428435882799
 30
0.0
 42
-0.1632214441986697
  0
VERTEX
  5
137
  8
0
  6
HIDDEN
 62
     0
 10
0.0
 20
-0.045
 30
0.0
 42
-0.1632214441986697
  0
VERTEX
  5
138
  8
0
  6
HIDDEN
 62
     0
 10
0.105236334275655
 20
-0.0794284358827991
 30
0.0
 42
-0.0347805799767382
  0
VERTEX
  5
139
  8
0
  6
HIDDEN
 62
     0
 10
0.1070937723696588
 20
-0.0809869047834851
 30
0.0
 42
-0.1887277032137349
  0
VERTEX
  5
13A
  8
0
  6
HIDDEN
 62
     0
 10
0.115
 20
-0.098
 30
0.0
  0
VERTEX
  5
13B
  8
0
  6
HIDDEN
 62
     0
 10
0.115
 20
-0.19
 30
0.0
  0
SEQEND
  5
17F
  8
0
  6
HIDDEN
 62
     0
  0
POLYLINE
  5
68
  8
0
 62
     0
 66
     1
 10
0.0
 20
0.0
 30
0.0
  0
VERTEX
  5
13C
  8
0
 62
     0
 10
-0.237
 20
-0.137
 30
0.0
  0
VERTEX
  5
13D
  8
0
 62
     0
 10
-0.237
 20
-0.107
 30
0.0
  0
SEQEND
  5
180
  8
0
 62
     0
  0
POLYLINE
  5
6C
  8
0
 62
     0
 66
     1
 10
0.0
 20
0.0
 30
0.0
  0
VERTEX
  5
13E
  8
0
 62
     0
 10
-0.2355
 20
-0.107
 30
0.0
  0
VERTEX
  5
13F
  8
0
 62
     0
 10
-0.2355
 20
-0.137
 30
0.0
 42
0.4153625060980889
  0
SEQEND
  5
181
  8
0
 62
     0
  0
POLYLINE
  5
70
  8
0
 62
     0
 66
     1
 10
0.0
 20
0.0
 30
0.0
 70
     1
  0
VERTEX
  5
140
  8
0
 62
     0
 10
-0.2355
 20
-0.137
 30
0.0
  0
VERTEX
  5
141
  8
0
 62
     0
 10
-0.2355
 20
-0.16
 30
0.0
 42
0.4153625060980889
  0
VERTEX
  5
142
  8
0
 62
     0
 10
-0.2075000000000001
 20
-0.19
 30
0.0
  0
VERTEX
  5
143
  8
0
 62
     0
 10
-0.1150000000000002
 20
-0.19
 30
0.0
  0
VERTEX
  5
144
  8
0
 62
     0
 10
-0.1150000000000001
 20
-0.2564999999999999
 30
0.0
 42
-0.2304454142649359
  0
VERTEX
  5
145
  8
0
 62
     0
 10
-0.1240000000000001
 20
-0.2699999999999999
 30
0.0
 42
0.2333803474186393
  0
VERTEX
  5
146
  8
0
 62
     0
 10
-0.1725000000000002
 20
-0.3299999999999999
 30
0.0
 42
0.0122397329984023
  0
VERTEX
  5
147
  8
0
 62
     0
 10
-0.1780000000000001
 20
-0.36
 30
0.0
 42
0.0121455963833129
  0
VERTEX
  5
148
  8
0
 62
     0
 10
-0.1820000000000001
 20
-0.3899999999999998
 30
0.0
 42
0.0270409954191662
  0
VERTEX
  5
149
  8
0
 62
     0
 10
-0.1845
 20
-0.4600000000000003
 30
0.0
 42
0.0248602479619724
  0
VERTEX
  5
14A
  8
0
 62
     0
 10
-0.1800000000000001
 20
-0.5200000000000002
 30
0.0
 42
0.0242575623948217
  0
VERTEX
  5
14B
  8
0
 62
     0
 10
-0.1745000000000001
 20
-0.55
 30
0.0
 42
0.0543644767539403
  0
VERTEX
  5
14C
  8
0
 62
     0
 10
-0.159
 20
-0.59
 30
0.0
 42
0.124881252224338
  0
VERTEX
  5
14D
  8
0
 62
     0
 10
-0.1000000000000001
 20
-0.6565
 30
0.0
 42
0.1485089238136047
  0
VERTEX
  5
14E
  8
0
 62
     0
 10
-0.0000000000000002
 20
-0.6865
 30
0.0
 42
0.1485089238136047
  0
VERTEX
  5
14F
  8
0
 62
     0
 10
0.0999999999999998
 20
-0.6565
 30
0.0
 42
0.124881252224338
  0
VERTEX
  5
150
  8
0
 62
     0
 10
0.1589999999999998
 20
-0.5900000000000001
 30
0.0
 42
0.0543644767539403
  0
VERTEX
  5
151
  8
0
 62
     0
 10
0.1744999999999998
 20
-0.55
 30
0.0
 42
0.0242575623948217
  0
VERTEX
  5
152
  8
0
 62
     0
 10
0.1799999999999999
 20
-0.5200000000000002
 30
0.0
 42
0.0248602479619724
  0
VERTEX
  5
153
  8
0
 62
     0
 10
0.1844999999999998
 20
-0.4600000000000004
 30
0.0
 42
0.0270409954191662
  0
VERTEX
  5
154
  8
0
 62
     0
 10
0.1819999999999998
 20
-0.3899999999999999
 30
0.0
 42
0.0121455963833129
  0
VERTEX
  5
155
  8
0
 62
     0
 10
0.1779999999999999
 20
-0.36
 30
0.0
 42
0.0122397329984022
  0
VERTEX
  5
156
  8
0
 62
     0
 10
0.1725
 20
-0.33
 30
0.0
 42
0.2333803474186392
  0
VERTEX
  5
157
  8
0
 62
     0
 10
0.124
 20
-0.27
 30
0.0
 42
-0.2304454142649357
  0
VERTEX
  5
158
  8
0
 62
     0
 10
0.115
 20
-0.2565
 30
0.0
  0
VERTEX
  5
159
  8
0
 62
     0
 10
0.115
 20
-0.19
 30
0.0
  0
VERTEX
  5
15A
  8
0
 62
     0
 10
0.2075
 20
-0.1899999999999999
 30
0.0
 42
0.4153625060980887
  0
VERTEX
  5
15B
  8
0
 62
     0
 10
0.2355
 20
-0.16
 30
0.0
  0
VERTEX
  5
15C
  8
0
 62
     0
 10
0.2355000000000001
 20
-0.03779697925965
 30
0.0
 42
0.4164857236094796
  0
VERTEX
  5
15D
  8
0
 62
     0
 10
0.212337123681924
 20
-0.015
 30
0.0
  0
VERTEX
  5
15E
  8
0
 62
     0
 10
0.0
 20
-0.015
 30
0.0
  0
VERTEX
  5
15F
  8
0
 62
     0
 10
-0.2123371236819239
 20
-0.015
 30
0.0
 42
0.4164857236094796
  0
VERTEX
  5
160
  8
0
 62
     0
 10
-0.2355
 20
-0.03779697925965
 30
0.0
  0
VERTEX
  5
161
  8
0
 62
     0
 10
-0.2355
 20
-0.107
 30
0.0
  0
VERTEX
  5
162
  8
0
 62
     0
 10
-0.237
 20
-0.107
 30
0.0
  0
VERTEX
  5
163
  8
0
 62
     0
 10
-0.237
 20
-0.105
 30
0.0
  0
VERTEX
  5
164
  8
0
 62
     0
 10
-0.253
 20
-0.105
 30
0.0
  0
VERTEX
  5
165
  8
0
 62
     0
 10
-0.253
 20
-0.14
 30
0.0
  0
VERTEX
  5
166
  8
0
 62
     0
 10
-0.237
 20
-0.14
 30
0.0
  0
VERTEX
  5
167
  8
0
 62
     0
 10
-0.237
 20
-0.137
 30
0.0
  0
SEQEND
  5
182
  8
0
 62
     0
  0
POLYLINE
  5
9A
  8
0
 62
     0
 66
     1
 10
0.0
 20
0.0
 30
0.0
  0
VERTEX
  5
168
  8
0
 62
     0
 10
0.1026009904234255
 20
-0.3255
 30
0.0
 42
-0.2944551280138606
  0
VERTEX
  5
169
  8
0
 62
     0
 10
0.1229999999999999
 20
-0.3399999999999998
 30
0.0
 42
-0.0399344039757093
  0
VERTEX
  5
16A
  8
0
 62
     0
 10
0.128613722002542
 20
-0.3678099645042603
 30
0.0
 42
-0.0119440335805961
  0
VERTEX
  5
16B
  8
0
 62
     0
 10
0.1322426272038093
 20
-0.3949432667502618
 30
0.0
 42
-0.0267764073663761
  0
VERTEX
  5
16C
  8
0
 62
     0
 10
0.1345115298707237
 20
-0.4589118467256472
 30
0.0
 42
-0.0246891846472409
  0
VERTEX
  5
16D
  8
0
 62
     0
 10
0.1304135661389347
 20
-0.513578636173776
 30
0.0
 42
-0.0233065262197308
  0
VERTEX
  5
16E
  8
0
 62
     0
 10
0.1259966755895945
 20
-0.5378264107849503
 30
0.0
 42
-0.0587251666881155
  0
VERTEX
  5
16F
  8
0
 62
     0
 10
0.1130459542685039
 20
-0.5699238360861228
 30
0.0
 42
-0.1180270715965267
  0
VERTEX
  5
170
  8
0
 62
     0
 10
0.0721206971644156
 20
-0.6149929389836937
 30
0.0
 42
-0.148337707526487
  0
VERTEX
  5
171
  8
0
 62
     0
 10
-0.0000000000000001
 20
-0.6364995981248562
 30
0.0
 42
-0.148337707526487
  0
VERTEX
  5
172
  8
0
 62
     0
 10
-0.0721206971644158
 20
-0.6149929389836936
 30
0.0
 42
-0.1180270715965267
  0
VERTEX
  5
173
  8
0
 62
     0
 10
-0.1130459542685042
 20
-0.5699238360861227
 30
0.0
 42
-0.0587251666881155
  0
VERTEX
  5
174
  8
0
 62
     0
 10
-0.1259966755895948
 20
-0.5378264107849502
 30
0.0
 42
-0.0233065262197308
  0
VERTEX
  5
175
  8
0
 62
     0
 10
-0.1304135661389349
 20
-0.513578636173776
 30
0.0
 42
-0.0246891846472409
  0
VERTEX
  5
176
  8
0
 62
     0
 10
-0.134511529870724
 20
-0.4589118467256472
 30
0.0
 42
-0.0267764073663761
  0
VERTEX
  5
177
  8
0
 62
     0
 10
-0.1322426272038096
 20
-0.3949432667502618
 30
0.0
 42
-0.0119440335805961
  0
VERTEX
  5
178
  8
0
 62
     0
 10
-0.1286137220025422
 20
-0.3678099645042603
 30
0.0
 42
-0.0399344039757092
  0
VERTEX
  5
179
  8
0
 62
     0
 10
-0.1230000000000001
 20
-0.3399999999999998
 30
0.0
 42
-0.2944551280138605
  0
VERTEX
  5
17A
  8
0
 62
     0
 10
-0.1026009904234257
 20
-0.3255
 30
0.0
  0
SEQEND
  5
183
  8
0
 62
     0
  0
ENDSEC
  0
EOF
