  0
SECTION
  2
HEADER
  9
$ACADVER
  1
AC1009
  9
$DWGCODEPAGE
  3
ansi_1252
  9
$INSBASE
 10
-1.304654420150483
 20
6.298934109688052
 30
0.0
  9
$EXTMIN
 10
-1.484762417545587
 20
6.298934109688064
 30
0.0
  9
$EXTMAX
 10
-1.124546422755379
 20
6.953303249295217
 30
0.0
  9
$LIMMIN
 10
0.0
 20
0.0
  9
$LIMMAX
 10
12.0
 20
9.0
  9
$ORTHOMODE
 70
     0
  9
$REGENMODE
 70
     1
  9
$FILLMODE
 70
     1
  9
$QTEXTMODE
 70
     0
  9
$MIRRTEXT
 70
     1
  9
$DRAGMODE
 70
     2
  9
$LTSCALE
 40
1.0
  9
$OSMODE
 70
    37
  9
$ATTMODE
 70
     1
  9
$TEXTSIZE
 40
0.2
  9
$TRACEWID
 40
0.05
  9
$TEXTSTYLE
  7
STANDARD
  9
$CLAYER
  8
ARQ-SAN
  9
$CELTYPE
  6
BYLAYER
  9
$CECOLOR
 62
   256
  9
$DIMSCALE
 40
1.0
  9
$DIMASZ
 40
0.18
  9
$DIMEXO
 40
0.0625
  9
$DIMDLI
 40
0.38
  9
$DIMRND
 40
0.0
  9
$DIMDLE
 40
0.0
  9
$DIMEXE
 40
0.18
  9
$DIMTP
 40
0.0
  9
$DIMTM
 40
0.0
  9
$DIMTXT
 40
0.18
  9
$DIMCEN
 40
0.09
  9
$DIMTSZ
 40
0.0
  9
$DIMTOL
 70
     0
  9
$DIMLIM
 70
     0
  9
$DIMTIH
 70
     1
  9
$DIMTOH
 70
     1
  9
$DIMSE1
 70
     0
  9
$DIMSE2
 70
     0
  9
$DIMTAD
 70
     0
  9
$DIMZIN
 70
     0
  9
$DIMBLK
  1

  9
$DIMASO
 70
     1
  9
$DIMSHO
 70
     0
  9
$DIMPOST
  1

  9
$DIMAPOST
  1

  9
$DIMALT
 70
     0
  9
$DIMALTD
 70
     2
  9
$DIMALTF
 40
25.4
  9
$DIMLFAC
 40
1.0
  9
$DIMTOFL
 70
     0
  9
$DIMTVP
 40
0.0
  9
$DIMTIX
 70
     0
  9
$DIMSOXD
 70
     0
  9
$DIMSAH
 70
     0
  9
$DIMBLK1
  1

  9
$DIMBLK2
  1

  9
$DIMSTYLE
  2
STANDARD
  9
$DIMCLRD
 70
     0
  9
$DIMCLRE
 70
     0
  9
$DIMCLRT
 70
     0
  9
$DIMTFAC
 40
1.0
  9
$DIMGAP
 40
0.09
  9
$LUNITS
 70
     2
  9
$LUPREC
 70
     4
  9
$SKETCHINC
 40
0.1
  9
$FILLETRAD
 40
0.0
  9
$AUNITS
 70
     0
  9
$AUPREC
 70
     0
  9
$MENU
  1
acad
  9
$ELEVATION
 40
0.0
  9
$PELEVATION
 40
0.0
  9
$THICKNESS
 40
0.0
  9
$LIMCHECK
 70
     0
  9
$CHAMFERA
 40
0.0
  9
$CHAMFERB
 40
0.0
  9
$SKPOLY
 70
     0
  9
$TDCREATE
 40
2448544.639884491
  9
$TDUPDATE
 40
2457718.552465278
  9
$TDINDWG
 40
0.0779937616
  9
$TDUSRTIMER
 40
0.0779937616
  9
$USRTIMER
 70
     1
  9
$ANGBASE
 50
0.0
  9
$ANGDIR
 70
     0
  9
$PDMODE
 70
     0
  9
$PDSIZE
 40
0.0
  9
$PLINEWID
 40
0.0
  9
$COORDS
 70
     1
  9
$SPLFRAME
 70
     0
  9
$SPLINETYPE
 70
     6
  9
$SPLINESEGS
 70
     8
  9
$ATTDIA
 70
     0
  9
$ATTREQ
 70
     1
  9
$HANDLING
 70
     1
  9
$HANDSEED
  5
E9
  9
$SURFTAB1
 70
     6
  9
$SURFTAB2
 70
     6
  9
$SURFTYPE
 70
     6
  9
$SURFU
 70
     6
  9
$SURFV
 70
     6
  9
$UCSNAME
  2

  9
$UCSORG
 10
0.0
 20
0.0
 30
0.0
  9
$UCSXDIR
 10
1.0
 20
0.0
 30
0.0
  9
$UCSYDIR
 10
0.0
 20
1.0
 30
0.0
  9
$PUCSNAME
  2

  9
$PUCSORG
 10
0.0
 20
0.0
 30
0.0
  9
$PUCSXDIR
 10
1.0
 20
0.0
 30
0.0
  9
$PUCSYDIR
 10
0.0
 20
1.0
 30
0.0
  9
$USERI1
 70
     0
  9
$USERI2
 70
     0
  9
$USERI3
 70
     0
  9
$USERI4
 70
     0
  9
$USERI5
 70
     0
  9
$USERR1
 40
0.0
  9
$USERR2
 40
0.0
  9
$USERR3
 40
0.0
  9
$USERR4
 40
0.0
  9
$USERR5
 40
0.0
  9
$WORLDVIEW
 70
     1
  9
$SHADEDGE
 70
     3
  9
$SHADEDIF
 70
    70
  9
$TILEMODE
 70
     1
  9
$MAXACTVP
 70
    64
  9
$PLIMCHECK
 70
     0
  9
$PEXTMIN
 10
1.000000000000000E+20
 20
1.000000000000000E+20
 30
1.000000000000000E+20
  9
$PEXTMAX
 10
-1.000000000000000E+20
 20
-1.000000000000000E+20
 30
-1.000000000000000E+20
  9
$PLIMMIN
 10
0.0
 20
0.0
  9
$PLIMMAX
 10
12.0
 20
9.0
  9
$UNITMODE
 70
     0
  9
$VISRETAIN
 70
     1
  9
$PLINEGEN
 70
     0
  9
$PSLTSCALE
 70
     0
  0
ENDSEC
  0
SECTION
  2
TABLES
  0
TABLE
  2
VPORT
 70
     1
  0
VPORT
  2
*ACTIVE
 70
     0
 10
0.0
 20
0.0
 11
1.0
 21
1.0
 12
-1.251855352630264
 22
6.634632473555732
 13
0.0
 23
0.0
 14
1.0
 24
1.0
 15
0.0
 25
0.0
 16
0.0
 26
0.0
 36
1.0
 17
0.0
 27
0.0
 37
0.0
 40
0.765046512925383
 41
1.503537735849057
 42
50.0
 43
0.0
 44
0.0
 50
0.0
 51
0.0
 71
     0
 72
   100
 73
     1
 74
     1
 75
     0
 76
     0
 77
     0
 78
     0
  0
ENDTAB
  0
TABLE
  2
LTYPE
 70
     1
  0
LTYPE
  2
CONTINUOUS
 70
     0
  3
Solid line
 72
    65
 73
     0
 40
0.0
  0
ENDTAB
  0
TABLE
  2
LAYER
 70
     2
  0
LAYER
  2
0
 70
     0
 62
     7
  6
CONTINUOUS
  0
LAYER
  2
ARQ-SAN
 70
     0
 62
     1
  6
CONTINUOUS
  0
ENDTAB
  0
TABLE
  2
STYLE
 70
     1
  0
STYLE
  2
STANDARD
 70
     0
 40
0.0
 41
1.0
 50
0.0
 71
     0
 42
0.2
  3
txt
  4

  0
ENDTAB
  0
TABLE
  2
VIEW
 70
     0
  0
ENDTAB
  0
TABLE
  2
UCS
 70
     0
  0
ENDTAB
  0
TABLE
  2
APPID
 70
     3
  0
APPID
  2
ACAD
 70
     0
  0
APPID
  2
ACAECLAYERSTANDARD
 70
     0
  0
APPID
  2
DCO15
 70
     0
  0
ENDTAB
  0
TABLE
  2
DIMSTYLE
 70
     1
  0
DIMSTYLE
  2
STANDARD
 70
     0
  3

  4

  5

  6

  7

 40
1.0
 41
0.18
 42
0.0625
 43
0.38
 44
0.18
 45
0.0
 46
0.0
 47
0.0
 48
0.0
140
0.18
141
0.09
142
0.0
143
25.4
144
1.0
145
0.0
146
1.0
147
0.09
 71
     0
 72
     0
 73
     1
 74
     1
 75
     0
 76
     0
 77
     0
 78
     0
170
     0
171
     2
172
     0
173
     0
174
     0
175
     0
176
     0
177
     0
178
     0
  0
ENDTAB
  0
ENDSEC
  0
SECTION
  2
BLOCKS
  0
BLOCK
  8
0
  2
$MODEL_SPACE
 70
     0
 10
0.0
 20
0.0
 30
0.0
  3
$MODEL_SPACE
  1

  0
ENDBLK
  5
27
  8
0
  0
BLOCK
 67
     1
  8
0
  2
$PAPER_SPACE
 70
     0
 10
0.0
 20
0.0
 30
0.0
  3
$PAPER_SPACE
  1

  0
ENDBLK
  5
25
 67
     1
  8
0
  0
ENDSEC
  0
SECTION
  2
ENTITIES
  0
ARC
  5
29
  8
0
 62
     0
 10
-1.416034144310522
 20
6.723934140212779
 30
0.0
 40
0.2913797241600324
 50
0.0000254877352872
 51
18.00723643300816
  0
ARC
  5
2A
  8
0
 62
     0
 10
-1.361429446420171
 20
6.741683907015893
 30
0.0
 40
0.2339625903647842
 50
18.00723643300612
 51
38.12348215449273
  0
ARC
  5
2B
  8
0
 62
     0
 10
-1.326742577005468
 20
6.768904850530021
 30
0.0
 40
0.1898699756136488
 50
38.12348215449388
 51
62.17399339856708
  0
ARC
  5
2C
  8
0
 62
     0
 10
-1.304654458771248
 20
6.810752641998937
 30
0.0
 40
0.1425506072962807
 50
62.17399339857099
 51
90.0000254877347
  0
ARC
  5
2D
  8
0
 62
     0
 10
-1.304654458771248
 20
6.810752641998944
 30
0.0
 40
0.1425506072962735
 50
90.0000254877346
 51
117.8260575769048
  0
ARC
  5
2E
  8
0
 62
     0
 10
-1.282566303305487
 20
6.768904870181612
 30
0.0
 40
0.1898699756136454
 50
117.8260575769058
 51
141.8765688209755
  0
ARC
  5
2F
  8
0
 62
     0
 10
-1.247879409672582
 20
6.74168395752804
 30
0.0
 40
0.2339625903648013
 50
141.8765688209781
 51
161.9928145424623
  0
ARC
  5
30
  8
0
 62
     0
 10
-1.193274695990457
 20
6.723934239306187
 30
0.0
 40
0.2913797241600546
 50
161.9928145424633
 51
180.0000254877355
  0
ARC
  5
31
  8
0
 62
     0
 10
-1.470081086417363
 20
6.706910318479643
 30
0.0
 40
0.3054267867360758
 50
344.3603869182216
 51
0.0
  0
ARC
  5
32
  8
0
 62
     0
 10
-1.388649451293343
 20
6.684113496704718
 30
0.0
 40
0.2208643465985707
 50
325.9468069998961
 51
344.3603869182227
  0
ARC
  5
33
  8
0
 62
     0
 10
-1.337149876075776
 20
6.649306986592869
 30
0.0
 40
0.1587056835357587
 50
301.5028309816574
 51
325.9468069998966
  0
ARC
  5
34
  8
0
 62
     0
 10
-1.304654299681287
 20
6.596284906189206
 30
0.0
 40
0.0965180360843352
 50
269.9999999999995
 51
301.5028309816579
  0
ARC
  5
35
  8
0
 62
     0
 10
-1.304654299681287
 20
6.596284906189233
 30
0.0
 40
0.0965180360843618
 50
238.4971690183506
 51
269.9999999999995
  0
ARC
  5
36
  8
0
 62
     0
 10
-1.272158723286752
 20
6.649306986592904
 30
0.0
 40
0.158705683535816
 50
214.0531930001045
 51
238.4971690183351
  0
ARC
  5
37
  8
0
 62
     0
 10
-1.220659148069216
 20
6.684113496704731
 30
0.0
 40
0.2208643465985893
 50
195.6396130817793
 51
214.0531930001046
  0
ARC
  5
38
  8
0
 62
     0
 10
-1.139227512945188
 20
6.70691031847964
 30
0.0
 40
0.3054267867360985
 50
179.9999999999993
 51
195.6396130817765
  0
ARC
  5
39
  8
0
 62
     0
 10
-1.139227512945211
 20
6.706910318479643
 30
0.0
 40
0.3054267867360758
 50
164.3603869182216
 51
180.0
  0
ARC
  5
3A
  8
0
 62
     0
 10
-1.22065914806923
 20
6.729707140254568
 30
0.0
 40
0.2208643465985707
 50
145.9468069998961
 51
164.3603869182226
  0
ARC
  5
3B
  8
0
 62
     0
 10
-1.272158723286793
 20
6.764513650366412
 30
0.0
 40
0.1587056835357657
 50
121.5028309816579
 51
145.946806999896
  0
ARC
  5
3C
  8
0
 62
     0
 10
-1.304654299681287
 20
6.817535730770082
 30
0.0
 40
0.0965180360843334
 50
90.00000000000026
 51
121.5028309816582
  0
ARC
  5
3D
  8
0
 62
     0
 10
-1.304654299681287
 20
6.81753573077006
 30
0.0
 40
0.0965180360843556
 50
58.49716901834557
 51
90.00000000000026
  0
ARC
  5
3E
  8
0
 62
     0
 10
-1.337149876075806
 20
6.764513650366395
 30
0.0
 40
0.1587056835357962
 50
34.05319300010392
 51
58.4971690183358
  0
ARC
  5
3F
  8
0
 62
     0
 10
-1.388649451293345
 20
6.729707140254564
 30
0.0
 40
0.2208643465985744
 50
15.63961308177922
 51
34.05319300010463
  0
ARC
  5
40
  8
0
 62
     0
 10
-1.470081086417365
 20
6.706910318479647
 30
0.0
 40
0.305426786736078
 50
359.9999999999993
 51
15.63961308177822
  0
ARC
  5
41
  8
0
 62
     0
 10
-1.149448645147013
 20
6.715424725590356
 30
0.0
 40
0.3353137723985742
 50
178.5457796031961
 51
219.1035960640455
  0
ARC
  5
42
  8
0
 62
     0
 10
-1.364654420150482
 20
6.448934109687407
 30
0.0
 40
0.02
 50
180.0
 51
270.0004613477005
  0
ARC
  5
43
  8
0
 62
     0
 10
-1.32126596737861
 20
6.571147834679262
 30
0.0
 40
0.111041449066031
 50
217.2506504596433
 51
225.2461249273396
  0
ARC
  5
44
  8
0
 62
     0
 10
-1.437195630672532
 20
6.455212504949063
 30
0.0
 40
0.0529149983481443
 50
353.1857698612561
 51
45.51495721673714
  0
ARC
  5
45
  8
0
 62
     0
 10
-1.459860195153953
 20
6.715424725590356
 30
0.0
 40
0.3353137723985742
 50
320.8964039359544
 51
1.454220396803871
  0
ARC
  5
46
  8
0
 62
     0
 10
-1.244654420150484
 20
6.448934109687407
 30
0.0
 40
0.02
 50
269.9995386522995
 51
0.000000000000007
  0
ARC
  5
47
  8
0
 62
     0
 10
-1.172113209628434
 20
6.455212504949063
 30
0.0
 40
0.0529149983481443
 50
134.4850427832629
 51
186.814230138744
  0
ARC
  5
48
  8
0
 62
     0
 10
-1.288042872922356
 20
6.571147834679262
 30
0.0
 40
0.111041449066031
 50
314.7538750726604
 51
322.7493495403567
  0
LINE
  5
49
  8
0
 62
     0
 10
-1.364654259109754
 20
6.428934109688054
 30
0.0
 11
-1.244654581191212
 21
6.428934109688054
 31
0.0
  0
POLYLINE
  5
4A
  8
0
 62
     0
 66
     1
 10
0.0
 20
0.0
 30
0.0
  0
VERTEX
  5
DF
  8
0
 62
     0
 10
-1.444654299681288
 20
6.706910140521469
 30
0.0
 42
0.0756564057006662
  0
VERTEX
  5
E0
  8
0
 62
     0
 10
-1.433489944924342
 20
6.633549820054988
 30
0.0
 42
0.0859297868480262
  0
VERTEX
  5
E1
  8
0
 62
     0
 10
-1.40364908176432
 20
6.575308303829217
 30
0.0
 42
0.1060269801270036
  0
VERTEX
  5
E2
  8
0
 62
     0
 10
-1.356048451943785
 20
6.534011676626072
 30
0.0
 42
0.126503392199186
  0
VERTEX
  5
E3
  8
0
 62
     0
 10
-1.304654063107281
 20
6.520797142483559
 30
0.0
 42
0.1265033921991766
  0
VERTEX
  5
E4
  8
0
 62
     0
 10
-1.253259707865722
 20
6.534011807283907
 30
0.0
 42
0.106026980127019
  0
VERTEX
  5
E5
  8
0
 62
     0
 10
-1.205659183032085
 20
6.575308555500079
 30
0.0
 42
0.0859297868480181
  0
VERTEX
  5
E6
  8
0
 62
     0
 10
-1.175818467937216
 20
6.633550147588881
 30
0.0
 42
0.0756564057006684
  0
VERTEX
  5
E7
  8
0
 62
     0
 10
-1.164654299681287
 20
6.706910496437818
 30
0.0
 42
0.0756564057006656
  0
SEQEND
  5
E8
  8
0
 62
     0
  0
LINE
  5
55
  8
0
 62
     0
 10
-1.304654420150483
 20
6.388934109688051
 30
0.0
 11
-1.279654420150481
 21
6.388934109688055
 31
0.0
  0
LINE
  5
56
  8
0
 62
     0
 10
-1.304654420150483
 20
6.388934109688051
 30
0.0
 11
-1.329654420150482
 21
6.388934109688051
 31
0.0
  0
LINE
  5
57
  8
0
 62
     0
 10
-1.259654420150483
 20
6.408934109688055
 30
0.0
 11
-1.259654420150483
 21
6.418934294606597
 31
0.0
  0
LINE
  5
58
  8
0
 62
     0
 10
-1.349654420150481
 20
6.418934294606597
 30
0.0
 11
-1.349654420150481
 21
6.408934109688051
 31
0.0
  0
LINE
  5
59
  8
0
 62
     0
 10
-1.284654420150483
 20
6.325824734414859
 30
0.0
 11
-1.284654420150483
 21
6.388934109688055
 31
0.0
  0
LINE
  5
5A
  8
0
 62
     0
 10
-1.324654420150483
 20
6.388934109688051
 30
0.0
 11
-1.324654420150484
 21
6.325824734414859
 31
0.0
  0
ARC
  5
5B
  8
0
 62
     0
 10
-1.279654420150483
 20
6.408934109688055
 30
0.0
 40
0.02
 50
270.0000000000045
 51
0.0
  0
ARC
  5
5C
  8
0
 62
     0
 10
-1.329654420150482
 20
6.408934109688051
 30
0.0
 40
0.02
 50
180.0000000000007
 51
270.0
  0
ARC
  5
5D
  8
0
 62
     0
 10
-1.369654420150481
 20
6.418934109688049
 30
0.0
 40
0.0199999999999996
 50
0.0
 51
29.99999999934593
  0
ARC
  5
5E
  8
0
 62
     0
 10
-1.239654420150485
 20
6.418934109688049
 30
0.0
 40
0.0199999999999996
 50
150.0000000006541
 51
180.0
  0
LINE
  5
5F
  8
0
 62
     0
 10
-1.304654420150483
 20
6.639766870104889
 30
0.0
 11
-1.338042545942404
 21
6.639766870104889
 31
0.0
  0
LINE
  5
60
  8
0
 62
     0
 10
-1.304654420150483
 20
6.639766870104889
 30
0.0
 11
-1.27126629435856
 21
6.639766870104893
 31
0.0
  0
LINE
  5
61
  8
0
 62
     0
 10
-1.304654420150483
 20
6.539766870104891
 30
0.0
 11
-1.28326629435856
 21
6.539766870104891
 31
0.0
  0
LINE
  5
62
  8
0
 62
     0
 10
-1.304654420150483
 20
6.539766870104891
 30
0.0
 11
-1.326042545942402
 21
6.539766870104891
 31
0.0
  0
LINE
  5
63
  8
0
 62
     0
 10
-1.347931909471088
 20
6.628283465575585
 30
0.0
 11
-1.335931909471086
 21
6.54828346557559
 31
0.0
  0
LINE
  5
64
  8
0
 62
     0
 10
-1.273376930829878
 20
6.54828346557559
 30
0.0
 11
-1.261376930829878
 21
6.628283465575588
 31
0.0
  0
ARC
  5
65
  8
0
 62
     0
 10
-1.338042545942404
 20
6.629766870104888
 30
0.0
 40
0.01
 50
90.0
 51
188.5307656099486
  0
ARC
  5
66
  8
0
 62
     0
 10
-1.27126629435856
 20
6.629766870104891
 30
0.0
 40
0.01
 50
351.4692343900514
 51
90.0
  0
ARC
  5
67
  8
0
 62
     0
 10
-1.28326629435856
 20
6.549766870104893
 30
0.0
 40
0.01
 50
270.0
 51
351.4692343900514
  0
ARC
  5
68
  8
0
 62
     0
 10
-1.326042545942402
 20
6.549766870104893
 30
0.0
 40
0.01
 50
188.5307656099492
 51
270.0
  0
CIRCLE
  5
69
  8
0
 62
     0
 10
-1.24465438139135
 20
6.455248849555009
 30
0.0
 40
0.01
  0
CIRCLE
  5
6A
  8
0
 62
     0
 10
-1.364654259109754
 20
6.455248849555009
 30
0.0
 40
0.01
  0
ARC
  5
6B
  8
0
 62
     0
 10
-1.304654420150483
 20
6.289341931152411
 30
0.0
 40
0.0416052272422398
 50
118.7317068829996
 51
166.6704131232455
  0
ARC
  5
6C
  8
0
 62
     0
 10
-1.304654420150483
 20
6.289341931152411
 30
0.0
 40
0.0416052272422398
 50
13.32958687678217
 51
61.26829311700043
  0
ARC
  5
6D
  8
0
 62
     0
 10
-1.304654420150483
 20
6.376288504286904
 30
0.0
 40
0.0542825208487857
 50
248.3803917708339
 51
291.6196082290323
  0
ENDSEC
  0
EOF
