  0
SECTION
  2
HEADER
  9
$ACADVER
  1
AC1009
  9
$DWGCODEPAGE
  3
ansi_1252
  9
$INSBASE
 10
0.0
 20
0.0
 30
0.0
  9
$EXTMIN
 10
0.014698401986406
 20
0.0
 30
0.0
  9
$EXTMAX
 10
0.6949044858785014
 20
0.8297216350000056
 30
0.0
  9
$LIMMIN
 10
0.0
 20
0.0
  9
$LIMMAX
 10
90.0
 20
65.0
  9
$ORTHOMODE
 70
     0
  9
$REGENMODE
 70
     1
  9
$FILLMODE
 70
     1
  9
$QTEXTMODE
 70
     0
  9
$MIRRTEXT
 70
     1
  9
$DRAGMODE
 70
     2
  9
$LTSCALE
 40
0.5
  9
$OSMODE
 70
    37
  9
$ATTMODE
 70
     1
  9
$TEXTSIZE
 40
30.0
  9
$TRACEWID
 40
0.05
  9
$TEXTSTYLE
  7
STANDARD
  9
$CLAYER
  8
0
  9
$CELTYPE
  6
BYLAYER
  9
$CECOLOR
 62
   256
  9
$DIMSCALE
 40
1.0
  9
$DIMASZ
 40
0.18
  9
$DIMEXO
 40
0.0625
  9
$DIMDLI
 40
0.38
  9
$DIMRND
 40
0.0
  9
$DIMDLE
 40
0.0
  9
$DIMEXE
 40
0.18
  9
$DIMTP
 40
0.0
  9
$DIMTM
 40
0.0
  9
$DIMTXT
 40
0.18
  9
$DIMCEN
 40
0.09
  9
$DIMTSZ
 40
0.0
  9
$DIMTOL
 70
     0
  9
$DIMLIM
 70
     0
  9
$DIMTIH
 70
     1
  9
$DIMTOH
 70
     1
  9
$DIMSE1
 70
     0
  9
$DIMSE2
 70
     0
  9
$DIMTAD
 70
     0
  9
$DIMZIN
 70
     0
  9
$DIMBLK
  1

  9
$DIMASO
 70
     1
  9
$DIMSHO
 70
     0
  9
$DIMPOST
  1

  9
$DIMAPOST
  1

  9
$DIMALT
 70
     0
  9
$DIMALTD
 70
     2
  9
$DIMALTF
 40
25.4
  9
$DIMLFAC
 40
1.0
  9
$DIMTOFL
 70
     0
  9
$DIMTVP
 40
0.0
  9
$DIMTIX
 70
     0
  9
$DIMSOXD
 70
     0
  9
$DIMSAH
 70
     0
  9
$DIMBLK1
  1

  9
$DIMBLK2
  1

  9
$DIMSTYLE
  2
STANDARD
  9
$DIMCLRD
 70
     0
  9
$DIMCLRE
 70
     0
  9
$DIMCLRT
 70
     0
  9
$DIMTFAC
 40
1.0
  9
$DIMGAP
 40
0.09
  9
$LUNITS
 70
     2
  9
$LUPREC
 70
     4
  9
$SKETCHINC
 40
0.1
  9
$FILLETRAD
 40
0.0
  9
$AUNITS
 70
     0
  9
$AUPREC
 70
     2
  9
$MENU
  1
ACAD
  9
$ELEVATION
 40
0.0
  9
$PELEVATION
 40
0.0
  9
$THICKNESS
 40
0.0
  9
$LIMCHECK
 70
     0
  9
$CHAMFERA
 40
0.0
  9
$CHAMFERB
 40
0.0
  9
$SKPOLY
 70
     0
  9
$TDCREATE
 40
2449028.728894908
  9
$TDUPDATE
 40
2457718.552465278
  9
$TDINDWG
 40
0.0008834259
  9
$TDUSRTIMER
 40
0.0008834259
  9
$USRTIMER
 70
     1
  9
$ANGBASE
 50
0.0
  9
$ANGDIR
 70
     0
  9
$PDMODE
 70
     3
  9
$PDSIZE
 40
0.2
  9
$PLINEWID
 40
0.0
  9
$COORDS
 70
     1
  9
$SPLFRAME
 70
     0
  9
$SPLINETYPE
 70
     6
  9
$SPLINESEGS
 70
     8
  9
$ATTDIA
 70
     0
  9
$ATTREQ
 70
     1
  9
$HANDLING
 70
     1
  9
$HANDSEED
  5
134
  9
$SURFTAB1
 70
     6
  9
$SURFTAB2
 70
     6
  9
$SURFTYPE
 70
     6
  9
$SURFU
 70
     6
  9
$SURFV
 70
     6
  9
$UCSNAME
  2

  9
$UCSORG
 10
0.0
 20
0.0
 30
0.0
  9
$UCSXDIR
 10
1.0
 20
0.0
 30
0.0
  9
$UCSYDIR
 10
0.0
 20
1.0
 30
0.0
  9
$PUCSNAME
  2

  9
$PUCSORG
 10
0.0
 20
0.0
 30
0.0
  9
$PUCSXDIR
 10
1.0
 20
0.0
 30
0.0
  9
$PUCSYDIR
 10
0.0
 20
1.0
 30
0.0
  9
$USERI1
 70
     0
  9
$USERI2
 70
     0
  9
$USERI3
 70
     0
  9
$USERI4
 70
     0
  9
$USERI5
 70
     0
  9
$USERR1
 40
0.0
  9
$USERR2
 40
0.0
  9
$USERR3
 40
0.0
  9
$USERR4
 40
0.0
  9
$USERR5
 40
0.0
  9
$WORLDVIEW
 70
     1
  9
$SHADEDGE
 70
     3
  9
$SHADEDIF
 70
    70
  9
$TILEMODE
 70
     1
  9
$MAXACTVP
 70
     4
  9
$PLIMCHECK
 70
     0
  9
$PEXTMIN
 10
1.000000000000000E+20
 20
1.000000000000000E+20
 30
1.000000000000000E+20
  9
$PEXTMAX
 10
-1.000000000000000E+20
 20
-1.000000000000000E+20
 30
-1.000000000000000E+20
  9
$PLIMMIN
 10
0.0
 20
0.0
  9
$PLIMMAX
 10
12.0
 20
9.0
  9
$UNITMODE
 70
     0
  9
$VISRETAIN
 70
     0
  9
$PLINEGEN
 70
     0
  9
$PSLTSCALE
 70
     0
  0
ENDSEC
  0
SECTION
  2
TABLES
  0
TABLE
  2
VPORT
 70
     1
  0
VPORT
  2
*ACTIVE
 70
     0
 10
0.0
 20
0.0
 11
1.0
 21
1.0
 12
0.5163239484028826
 22
0.6533773589327045
 13
85.19999999999999
 23
-133.65
 14
0.05
 24
0.05
 15
0.5
 25
0.5
 16
0.0
 26
0.0
 36
1.0
 17
0.0
 27
0.0
 37
0.0
 40
1.324381135251461
 41
1.376889848812095
 42
50.0
 43
0.0
 44
0.0
 50
0.0
 51
0.0
 71
     0
 72
  2000
 73
     1
 74
     2
 75
     0
 76
     0
 77
     0
 78
     0
  0
ENDTAB
  0
TABLE
  2
LTYPE
 70
     1
  0
LTYPE
  2
CONTINUOUS
 70
     0
  3
Solid line
 72
    65
 73
     0
 40
0.0
  0
ENDTAB
  0
TABLE
  2
LAYER
 70
     1
  0
LAYER
  2
0
 70
     0
 62
     7
  6
CONTINUOUS
  0
ENDTAB
  0
TABLE
  2
STYLE
 70
     1
  0
STYLE
  2
STANDARD
 70
     0
 40
0.0
 41
1.0
 50
0.0
 71
     0
 42
30.0
  3
txt
  4

  0
ENDTAB
  0
TABLE
  2
VIEW
 70
     0
  0
ENDTAB
  0
TABLE
  2
UCS
 70
     0
  0
ENDTAB
  0
TABLE
  2
APPID
 70
     1
  0
APPID
  2
ACAD
 70
     0
  0
ENDTAB
  0
TABLE
  2
DIMSTYLE
 70
     1
  0
DIMSTYLE
  2
STANDARD
 70
     0
  3

  4

  5

  6

  7

 40
1.0
 41
0.18
 42
0.0625
 43
0.38
 44
0.18
 45
0.0
 46
0.0
 47
0.0
 48
0.0
140
0.18
141
0.09
142
0.0
143
25.4
144
1.0
145
0.0
146
1.0
147
0.09
 71
     0
 72
     0
 73
     1
 74
     1
 75
     0
 76
     0
 77
     0
 78
     0
170
     0
171
     2
172
     0
173
     0
174
     0
175
     0
176
     0
177
     0
178
     0
  0
ENDTAB
  0
ENDSEC
  0
SECTION
  2
BLOCKS
  0
BLOCK
  8
0
  2
$MODEL_SPACE
 70
     0
 10
0.0
 20
0.0
 30
0.0
  3
$MODEL_SPACE
  1

  0
ENDBLK
  5
1F
  8
0
  0
BLOCK
 67
     1
  8
0
  2
$PAPER_SPACE
 70
     0
 10
0.0
 20
0.0
 30
0.0
  3
$PAPER_SPACE
  1

  0
ENDBLK
  5
1D
 67
     1
  8
0
  0
ENDSEC
  0
SECTION
  2
ENTITIES
  0
POLYLINE
  5
23
  8
0
 66
     1
 10
0.0
 20
0.0
 30
0.0
  0
VERTEX
  5
EB
  8
0
 10
0.2777715183774863
 20
0.3447947023991986
 30
0.0
 42
-0.2826244024735506
  0
VERTEX
  5
EC
  8
0
 10
0.2878936400000018
 20
0.3365517200000028
 30
0.0
 42
0.0122680919499374
  0
VERTEX
  5
ED
  8
0
 10
0.2924553350000014
 20
0.304113000000001
 30
0.0
 42
0.0400045646459785
  0
VERTEX
  5
EE
  8
0
 10
0.3137432449999995
 20
0.2331532999999979
 30
0.0
 42
0.020399670478455
  0
VERTEX
  5
EF
  8
0
 10
0.3284420400000005
 20
0.2027420000000077
 30
0.0
 42
0.053993754932936
  0
VERTEX
  5
F0
  8
0
 10
0.3411134150000006
 20
0.1824678000000048
 30
0.0
 42
0.2042714019310717
  0
VERTEX
  5
F1
  8
0
 10
0.3917989150000007
 20
0.1581387599999999
 30
0.0
 42
-0.3311316997381911
  0
VERTEX
  5
F2
  8
0
 10
0.4054839999999995
 20
0.1469879500000033
 30
0.0
 42
-0.0863170196629059
  0
VERTEX
  5
F3
  8
0
 10
0.40649771
 20
0.1378645600000041
 30
0.0
  0
VERTEX
  5
F4
  8
0
 10
0.3953469000000016
 20
0.0567677599999996
 30
0.0
 42
-0.3028258083776644
  0
VERTEX
  5
F5
  8
0
 10
0.3832125148995225
 20
0.0429871343009793
 30
0.0
 42
-0.0494614266815531
  0
VERTEX
  5
F6
  8
0
 10
0.3792810397350035
 20
0.0425653316403114
 30
0.0
  0
VERTEX
  5
F7
  8
0
 10
0.1043265444404469
 20
0.0410264072263544
 30
0.0
  0
SEQEND
  5
12D
  8
0
  0
POLYLINE
  5
32
  8
0
 66
     1
 10
0.0
 20
0.0
 30
0.0
 70
     1
  0
VERTEX
  5
F8
  8
0
 10
0.1644302432309228
 20
0.3033035379361877
 30
0.0
 42
-0.2787594861110423
  0
VERTEX
  5
F9
  8
0
 10
0.1677690050000002
 20
0.2995513050000014
 30
0.0
  0
VERTEX
  5
FA
  8
0
 10
0.1677690050000002
 20
0.2696468600000017
 30
0.0
 42
-0.3846129794241904
  0
VERTEX
  5
FB
  8
0
 10
0.1601661799999992
 20
0.2605234700000025
 30
0.0
  0
VERTEX
  5
FC
  8
0
 10
0.135469375053983
 20
0.257065917307564
 30
0.0
 42
0.340700812200817
  0
VERTEX
  5
FD
  8
0
 10
0.1297548800000001
 20
0.2503863700000011
 30
0.0
  0
VERTEX
  5
FE
  8
0
 10
0.1000334187346947
 20
0.0056796722489949
 30
0.0
 42
0.4500739857310527
  0
VERTEX
  5
FF
  8
0
 10
0.1050649919180326
 20
0.0
 30
0.0
  0
VERTEX
  5
100
  8
0
 10
0.5802883646608858
 20
0.0
 30
0.0
 42
0.4455894445200985
  0
VERTEX
  5
101
  8
0
 10
0.5853285069928944
 20
0.0056044272019662
 30
0.0
  0
VERTEX
  5
102
  8
0
 10
0.5671707450000003
 20
0.1763855400000054
 30
0.0
 42
-0.1105210623169543
  0
VERTEX
  5
103
  8
0
 10
0.5691981650000013
 20
0.1926048999999992
 30
0.0
 42
-0.1557580239292861
  0
VERTEX
  5
104
  8
0
 10
0.585462222273609
 20
0.2128791000000021
 30
0.0
 42
0.1510604540832296
  0
VERTEX
  5
105
  8
0
 10
0.6725965849999991
 20
0.3385791400000073
 30
0.0
 42
-0.2186898092890718
  0
VERTEX
  5
106
  8
0
 10
0.6806012742379384
 20
0.3449212759518332
 30
0.0
 42
0.8018030040566417
  0
VERTEX
  5
107
  8
0
 10
0.6771582799999987
 20
0.3847029450000008
 30
0.0
  0
VERTEX
  5
108
  8
0
 10
0.4789779750000012
 20
0.3847029450000008
 30
0.0
  0
VERTEX
  5
109
  8
0
 10
0.3248940549999997
 20
0.3847029450000008
 30
0.0
 42
0.3990531064272206
  0
VERTEX
  5
10A
  8
0
 10
0.3086746950000006
 20
0.3999085950000065
 30
0.0
  0
VERTEX
  5
10B
  8
0
 10
0.153070210000001
 20
0.3999085950000065
 30
0.0
 42
0.386252691928691
  0
VERTEX
  5
10C
  8
0
 10
0.1718238450000005
 20
0.4161279550000003
 30
0.0
  0
VERTEX
  5
10D
  8
0
 10
0.1789198150000004
 20
0.7937349300000065
 30
0.0
  0
VERTEX
  5
10E
  8
0
 10
0.1844952200000005
 20
0.7937349300000065
 30
0.0
 42
0.632922982998074
  0
VERTEX
  5
10F
  8
0
 10
0.1758786850000007
 20
0.8297216350000056
 30
0.0
  0
VERTEX
  5
110
  8
0
 10
0.0319318649999989
 20
0.8297216350000056
 30
0.0
 42
0.3800590817287955
  0
VERTEX
  5
111
  8
0
 10
0.0146987949999993
 20
0.8140091300000023
 30
0.0
  0
VERTEX
  5
112
  8
0
 10
0.0146987949999993
 20
0.799817190000006
 30
0.0
  0
VERTEX
  5
113
  8
0
 10
0.0146987949999993
 20
0.4163147309170441
 30
0.0
 42
0.4175404801329775
  0
VERTEX
  5
114
  8
0
 10
0.0310632137662399
 20
0.3999085950000065
 30
0.0
  0
VERTEX
  5
115
  8
0
 10
0.0532197750000005
 20
0.3999085950000065
 30
0.0
 42
0.3559559338826307
  0
VERTEX
  5
116
  8
0
 10
0.0481244526057676
 20
0.3960081068092833
 30
0.0
  0
VERTEX
  5
117
  8
0
 10
0.0451100950000001
 20
0.356319065000001
 30
0.0
 42
0.2686715898172027
  0
VERTEX
  5
118
  8
0
 10
0.0611885961384626
 20
0.330419915910646
 30
0.0
 42
0.0519840131511574
  0
VERTEX
  5
119
  8
0
 10
0.0681791648957333
 20
0.3275870550655426
 30
0.0
  0
VERTEX
  5
11A
  8
0
 10
0.0713643425524388
 20
0.3268207724276877
 30
0.0
 42
0.0096248489977361
  0
VERTEX
  5
11B
  8
0
 10
0.072743918443182
 20
0.3265814131413762
 30
0.0
  0
SEQEND
  5
12E
  8
0
  0
POLYLINE
  5
58
  8
0
 66
     1
 10
0.0
 20
0.0
 30
0.0
  0
VERTEX
  5
11C
  8
0
 10
0.6806012742379384
 20
0.3449212759518332
 30
0.0
 42
-0.0431928948686444
  0
VERTEX
  5
11D
  8
0
 10
0.6771582799999987
 20
0.3441545450000021
 30
0.0
  0
VERTEX
  5
11E
  8
0
 10
0.4789779750000012
 20
0.3441545450000021
 30
0.0
  0
SEQEND
  5
12F
  8
0
  0
CIRCLE
  5
5D
  8
0
 10
0.1279155098463196
 20
0.7501455495565921
 30
0.0
 40
0.017739925
  0
POLYLINE
  5
5E
  8
0
 66
     1
 10
0.0
 20
0.0
 30
0.0
  0
VERTEX
  5
11F
  8
0
 10
0.0532197750000005
 20
0.3999085950000065
 30
0.0
  0
VERTEX
  5
120
  8
0
 10
0.153070210000001
 20
0.3999085950000065
 30
0.0
  0
SEQEND
  5
130
  8
0
  0
POLYLINE
  5
62
  8
0
 66
     1
 10
0.0
 20
0.0
 30
0.0
  0
VERTEX
  5
121
  8
0
 10
0.0511923549999995
 20
0.3725384250000019
 30
0.0
  0
VERTEX
  5
122
  8
0
 10
0.2549480650000007
 20
0.3613876149999982
 30
0.0
  0
SEQEND
  5
131
  8
0
  0
ARC
  5
66
  8
0
 10
0.0515477129315034
 20
0.3774522596409042
 30
0.0
 40
0.0049266672444562
 50
187.6746698016582
 51
265.8636934566959
  0
POLYLINE
  5
67
  8
0
 66
     1
 10
0.0
 20
0.0
 30
0.0
  0
VERTEX
  5
123
  8
0
 10
0.0146987949999993
 20
0.799817190000006
 30
0.0
  0
VERTEX
  5
124
  8
0
 10
0.0293975900000003
 20
0.799817190000006
 30
0.0
 42
-0.2233117405156702
  0
VERTEX
  5
125
  8
0
 10
0.0334524299999988
 20
0.7977897700000014
 30
0.0
 42
0.1793958397718437
  0
VERTEX
  5
126
  8
0
 10
0.0410967288540522
 20
0.7938285465473953
 30
0.0
 42
0.0546634145030703
  0
VERTEX
  5
127
  8
0
 10
0.043061044889587
 20
0.7937349300000065
 30
0.0
  0
VERTEX
  5
128
  8
0
 10
0.1789198150000004
 20
0.7937349300000065
 30
0.0
  0
SEQEND
  5
132
  8
0
  0
ARC
  5
6F
  8
0
 10
0.2545218017207933
 20
0.3490264445678761
 30
0.0
 40
0.0123685178916256
 50
27.55985683793697
 51
88.02499180878885
  0
POLYLINE
  5
70
  8
0
 66
     1
 10
0.0
 20
0.0
 30
0.0
  0
VERTEX
  5
129
  8
0
 10
0.3248940549999997
 20
0.3847029450000008
 30
0.0
  0
VERTEX
  5
12A
  8
0
 10
0.2807976700000001
 20
0.3847029450000008
 30
0.0
 42
0.875309796613485
  0
VERTEX
  5
12B
  8
0
 10
0.2807976700000001
 20
0.3441545450000021
 30
0.0
  0
VERTEX
  5
12C
  8
0
 10
0.4789779750000012
 20
0.3441545450000021
 30
0.0
  0
SEQEND
  5
133
  8
0
  0
ENDSEC
  0
EOF
