  0
SECTION
  2
HEADER
  9
$ACADVER
  1
AC1009
  9
$DWGCODEPAGE
  3
ansi_1252
  9
$INSBASE
 10
0.0
 20
0.0
 30
0.0
  9
$EXTMIN
 10
0.0
 20
-0.381
 30
0.0254
  9
$EXTMAX
 10
0.6883399999999998
 20
0.381
 30
1.1684
  9
$LIMMIN
 10
0.0
 20
0.0
  9
$LIMMAX
 10
12.0
 20
9.0
  9
$ORTHOMODE
 70
     0
  9
$REGENMODE
 70
     1
  9
$FILLMODE
 70
     1
  9
$QTEXTMODE
 70
     0
  9
$MIRRTEXT
 70
     1
  9
$DRAGMODE
 70
     2
  9
$LTSCALE
 40
1.0
  9
$OSMODE
 70
    37
  9
$ATTMODE
 70
     1
  9
$TEXTSIZE
 40
0.2
  9
$TRACEWID
 40
0.05
  9
$TEXTSTYLE
  7
STANDARD
  9
$CLAYER
  8
0
  9
$CELTYPE
  6
BYLAYER
  9
$CECOLOR
 62
   256
  9
$DIMSCALE
 40
1.0
  9
$DIMASZ
 40
0.18
  9
$DIMEXO
 40
0.0625
  9
$DIMDLI
 40
0.38
  9
$DIMRND
 40
0.0
  9
$DIMDLE
 40
0.0
  9
$DIMEXE
 40
0.18
  9
$DIMTP
 40
0.0
  9
$DIMTM
 40
0.0
  9
$DIMTXT
 40
0.18
  9
$DIMCEN
 40
0.09
  9
$DIMTSZ
 40
0.0
  9
$DIMTOL
 70
     0
  9
$DIMLIM
 70
     0
  9
$DIMTIH
 70
     1
  9
$DIMTOH
 70
     1
  9
$DIMSE1
 70
     0
  9
$DIMSE2
 70
     0
  9
$DIMTAD
 70
     0
  9
$DIMZIN
 70
     0
  9
$DIMBLK
  1

  9
$DIMASO
 70
     1
  9
$DIMSHO
 70
     0
  9
$DIMPOST
  1

  9
$DIMAPOST
  1

  9
$DIMALT
 70
     0
  9
$DIMALTD
 70
     2
  9
$DIMALTF
 40
25.4
  9
$DIMLFAC
 40
1.0
  9
$DIMTOFL
 70
     0
  9
$DIMTVP
 40
0.0
  9
$DIMTIX
 70
     0
  9
$DIMSOXD
 70
     0
  9
$DIMSAH
 70
     0
  9
$DIMBLK1
  1

  9
$DIMBLK2
  1

  9
$DIMSTYLE
  2
STANDARD
  9
$DIMCLRD
 70
     0
  9
$DIMCLRE
 70
     0
  9
$DIMCLRT
 70
     0
  9
$DIMTFAC
 40
1.0
  9
$DIMGAP
 40
0.09
  9
$LUNITS
 70
     2
  9
$LUPREC
 70
     4
  9
$SKETCHINC
 40
0.1
  9
$FILLETRAD
 40
0.0
  9
$AUNITS
 70
     0
  9
$AUPREC
 70
     0
  9
$MENU
  1
acad
  9
$ELEVATION
 40
0.0
  9
$PELEVATION
 40
0.0
  9
$THICKNESS
 40
0.0
  9
$LIMCHECK
 70
     0
  9
$CHAMFERA
 40
0.0
  9
$CHAMFERB
 40
0.0
  9
$SKPOLY
 70
     0
  9
$TDCREATE
 40
2447677.529916551
  9
$TDUPDATE
 40
2458028.615474537
  9
$TDINDWG
 40
0.0001163194
  9
$TDUSRTIMER
 40
0.0001163194
  9
$USRTIMER
 70
     1
  9
$ANGBASE
 50
0.0
  9
$ANGDIR
 70
     0
  9
$PDMODE
 70
     0
  9
$PDSIZE
 40
0.0
  9
$PLINEWID
 40
0.0
  9
$COORDS
 70
     1
  9
$SPLFRAME
 70
     0
  9
$SPLINETYPE
 70
     6
  9
$SPLINESEGS
 70
     8
  9
$ATTDIA
 70
     0
  9
$ATTREQ
 70
     1
  9
$HANDLING
 70
     1
  9
$HANDSEED
  5
F2
  9
$SURFTAB1
 70
     6
  9
$SURFTAB2
 70
     6
  9
$SURFTYPE
 70
     6
  9
$SURFU
 70
     6
  9
$SURFV
 70
     6
  9
$UCSNAME
  2

  9
$UCSORG
 10
0.0
 20
0.0
 30
0.0
  9
$UCSXDIR
 10
1.0
 20
0.0
 30
0.0
  9
$UCSYDIR
 10
0.0
 20
1.0
 30
0.0
  9
$PUCSNAME
  2

  9
$PUCSORG
 10
0.0
 20
0.0
 30
0.0
  9
$PUCSXDIR
 10
1.0
 20
0.0
 30
0.0
  9
$PUCSYDIR
 10
0.0
 20
1.0
 30
0.0
  9
$USERI1
 70
     0
  9
$USERI2
 70
     0
  9
$USERI3
 70
     0
  9
$USERI4
 70
     0
  9
$USERI5
 70
     0
  9
$USERR1
 40
0.0
  9
$USERR2
 40
0.0
  9
$USERR3
 40
0.0
  9
$USERR4
 40
0.0
  9
$USERR5
 40
0.0
  9
$WORLDVIEW
 70
     1
  9
$SHADEDGE
 70
     3
  9
$SHADEDIF
 70
    70
  9
$TILEMODE
 70
     1
  9
$MAXACTVP
 70
    48
  9
$PLIMCHECK
 70
     0
  9
$PEXTMIN
 10
1.000000000000000E+20
 20
1.000000000000000E+20
 30
1.000000000000000E+20
  9
$PEXTMAX
 10
-1.000000000000000E+20
 20
-1.000000000000000E+20
 30
-1.000000000000000E+20
  9
$PLIMMIN
 10
0.0
 20
0.0
  9
$PLIMMAX
 10
12.0
 20
9.0
  9
$UNITMODE
 70
     0
  9
$VISRETAIN
 70
     1
  9
$PLINEGEN
 70
     0
  9
$PSLTSCALE
 70
     0
  0
ENDSEC
  0
SECTION
  2
TABLES
  0
TABLE
  2
VPORT
 70
     1
  0
VPORT
  2
*ACTIVE
 70
     0
 10
0.0
 20
0.0
 11
1.0
 21
1.0
 12
0.243364940880974
 22
0.3468599950268121
 13
0.0
 23
0.0
 14
1.0
 24
1.0
 15
0.0
 25
0.0
 16
1.0
 26
-1.0
 36
1.0
 17
0.0
 27
0.0
 37
0.0
 40
1.543405949160883
 41
1.982213438735178
 42
50.0
 43
0.0
 44
0.0
 50
0.0
 51
0.0
 71
     0
 72
   100
 73
     1
 74
     1
 75
     0
 76
     0
 77
     0
 78
     0
  0
ENDTAB
  0
TABLE
  2
LTYPE
 70
     1
  0
LTYPE
  2
CONTINUOUS
 70
     0
  3
Solid line
 72
    65
 73
     0
 40
0.0
  0
ENDTAB
  0
TABLE
  2
LAYER
 70
     1
  0
LAYER
  2
0
 70
     0
 62
     7
  6
CONTINUOUS
  0
ENDTAB
  0
TABLE
  2
STYLE
 70
     1
  0
STYLE
  2
STANDARD
 70
     0
 40
0.0
 41
1.0
 50
0.0
 71
     0
 42
0.2
  3
txt
  4

  0
ENDTAB
  0
TABLE
  2
VIEW
 70
     0
  0
ENDTAB
  0
TABLE
  2
UCS
 70
     0
  0
ENDTAB
  0
TABLE
  2
APPID
 70
     1
  0
APPID
  2
ACAD
 70
     0
  0
ENDTAB
  0
TABLE
  2
DIMSTYLE
 70
     1
  0
DIMSTYLE
  2
STANDARD
 70
     0
  3

  4

  5

  6

  7

 40
1.0
 41
0.18
 42
0.0625
 43
0.38
 44
0.18
 45
0.0
 46
0.0
 47
0.0
 48
0.0
140
0.18
141
0.09
142
0.0
143
25.4
144
1.0
145
0.0
146
1.0
147
0.09
 71
     0
 72
     0
 73
     1
 74
     1
 75
     0
 76
     0
 77
     0
 78
     0
170
     0
171
     2
172
     0
173
     0
174
     0
175
     0
176
     0
177
     0
178
     0
  0
ENDTAB
  0
ENDSEC
  0
SECTION
  2
BLOCKS
  0
BLOCK
  8
0
  2
$MODEL_SPACE
 70
     0
 10
0.0
 20
0.0
 30
0.0
  3
$MODEL_SPACE
  1

  0
ENDBLK
  5
25
  8
0
  0
BLOCK
 67
     1
  8
0
  2
$PAPER_SPACE
 70
     0
 10
0.0
 20
0.0
 30
0.0
  3
$PAPER_SPACE
  1

  0
ENDBLK
  5
23
 67
     1
  8
0
  0
ENDSEC
  0
SECTION
  2
ENTITIES
  0
POLYLINE
  5
27
  8
0
 66
     1
 10
0.0
 20
0.0
 30
0.0254
 39
0.889
 70
     1
  0
VERTEX
  5
E2
  8
0
 10
0.0
 20
-0.381
 30
0.0254
  0
VERTEX
  5
E3
  8
0
 10
0.6604
 20
-0.381
 30
0.0254
  0
VERTEX
  5
E4
  8
0
 10
0.6604
 20
0.381
 30
0.0254
  0
VERTEX
  5
E5
  8
0
 10
0.0
 20
0.381
 30
0.0254
  0
SEQEND
  5
EE
  8
0
  0
POLYLINE
  5
2D
  8
0
 66
     1
 10
0.0
 20
0.0
 30
0.9144
 39
0.254
 70
     1
  0
VERTEX
  5
E6
  8
0
 10
0.0
 20
-0.381
 30
0.9144
  0
VERTEX
  5
E7
  8
0
 10
0.0508
 20
-0.381
 30
0.9144
  0
VERTEX
  5
E8
  8
0
 10
0.0508
 20
0.381
 30
0.9144
  0
VERTEX
  5
E9
  8
0
 10
0.0
 20
0.381
 30
0.9144
  0
SEQEND
  5
EF
  8
0
  0
3DFACE
  5
33
  8
0
 10
0.0
 20
-0.381
 30
1.1684
 11
0.0508
 21
-0.381
 31
1.1684
 12
0.0508
 22
0.381
 32
1.1684
 13
0.0
 23
0.381
 33
1.1684
  0
CIRCLE
  5
34
  8
0
 10
0.2032
 20
0.2286
 30
0.91694
 40
0.1016
  0
CIRCLE
  5
35
  8
0
 10
0.508
 20
0.2286
 30
0.91694
 40
0.1143
  0
CIRCLE
  5
36
  8
0
 10
0.2032
 20
-0.2286
 30
0.91694
 40
0.1143
  0
CIRCLE
  5
37
  8
0
 10
0.508
 20
-0.2286
 30
0.91694
 40
0.1016
  0
LINE
  5
38
  8
0
 62
     8
 39
0.0127
 10
0.22225
 20
0.1956044321158129
 30
0.91694
 11
0.254
 21
0.140611818975501
 31
0.91694
  0
LINE
  5
39
  8
0
 62
     8
 39
0.0127
 10
0.18415
 20
0.1956044321158129
 30
0.91694
 11
0.1524
 21
0.140611818975501
 31
0.91694
  0
LINE
  5
3A
  8
0
 62
     8
 39
0.0127
 10
0.1651
 20
0.2286000000000002
 30
0.91694
 11
0.1016
 21
0.2286000000000002
 31
0.91694
  0
LINE
  5
3B
  8
0
 62
     8
 39
0.0127
 10
0.18415
 20
0.2615955678841871
 30
0.91694
 11
0.1524
 21
0.316588181024499
 31
0.91694
  0
LINE
  5
3C
  8
0
 62
     8
 39
0.0127
 10
0.22225
 20
0.2615955678841873
 30
0.91694
 11
0.254
 21
0.316588181024499
 31
0.91694
  0
LINE
  5
3D
  8
0
 62
     8
 39
0.0127
 10
0.2413
 20
0.2286
 30
0.91694
 11
0.3048
 21
0.2286
 31
0.91694
  0
LINE
  5
3E
  8
0
 62
     8
 39
0.0127
 10
0.52705
 20
0.1956044321158129
 30
0.91694
 11
0.5651500000000004
 21
0.1296132963474383
 31
0.91694
  0
LINE
  5
3F
  8
0
 62
     8
 39
0.0127
 10
0.48895
 20
0.1956044321158129
 30
0.91694
 11
0.4508499999999985
 21
0.129613296347436
 31
0.91694
  0
LINE
  5
40
  8
0
 62
     8
 39
0.0127
 10
0.4699
 20
0.2286000000000002
 30
0.91694
 11
0.3937
 21
0.2286000000000004
 31
0.91694
  0
LINE
  5
41
  8
0
 62
     8
 39
0.0127
 10
0.48895
 20
0.2615955678841871
 30
0.91694
 11
0.4508500000000007
 21
0.3275867036525599
 31
0.91694
  0
LINE
  5
42
  8
0
 62
     8
 39
0.0127
 10
0.52705
 20
0.2615955678841873
 30
0.91694
 11
0.5651500000000004
 21
0.327586703652562
 31
0.91694
  0
LINE
  5
43
  8
0
 62
     8
 39
0.0127
 10
0.5461
 20
0.2286
 30
0.91694
 11
0.6223
 21
0.2286
 31
0.91694
  0
LINE
  5
44
  8
0
 62
     8
 39
0.0127
 10
0.2413
 20
-0.2286
 30
0.91694
 11
0.3175
 21
-0.2286
 31
0.91694
  0
LINE
  5
45
  8
0
 62
     8
 39
0.0127
 10
0.22225
 20
-0.1956044321158127
 30
0.91694
 11
0.2603499999999995
 21
-0.1296132963474396
 31
0.91694
  0
LINE
  5
46
  8
0
 62
     8
 39
0.0127
 10
0.18415
 20
-0.1956044321158129
 30
0.91694
 11
0.1460500000000002
 21
-0.1296132963474392
 31
0.91694
  0
LINE
  5
47
  8
0
 62
     8
 39
0.0127
 10
0.1651
 20
-0.2285999999999998
 30
0.91694
 11
0.0889
 21
-0.2285999999999998
 31
0.91694
  0
LINE
  5
48
  8
0
 62
     8
 39
0.0127
 10
0.18415
 20
-0.2615955678841871
 30
0.91694
 11
0.1460500000000002
 21
-0.3275867036525612
 31
0.91694
  0
LINE
  5
49
  8
0
 62
     8
 39
0.0127
 10
0.22225
 20
-0.2615955678841871
 30
0.91694
 11
0.26035
 21
-0.3275867036525612
 31
0.91694
  0
LINE
  5
4A
  8
0
 62
     8
 39
0.0127
 10
0.5461
 20
-0.2286
 30
0.91694
 11
0.6095999999999999
 21
-0.2286
 31
0.91694
  0
LINE
  5
4B
  8
0
 62
     8
 39
0.0127
 10
0.52705
 20
-0.1956044321158127
 30
0.91694
 11
0.5588
 21
-0.140611818975501
 31
0.91694
  0
LINE
  5
4C
  8
0
 62
     8
 39
0.0127
 10
0.48895
 20
-0.1956044321158129
 30
0.91694
 11
0.4572
 21
-0.140611818975501
 31
0.91694
  0
LINE
  5
4D
  8
0
 62
     8
 39
0.0127
 10
0.4699
 20
-0.2285999999999998
 30
0.91694
 11
0.4064
 21
-0.2285999999999998
 31
0.91694
  0
LINE
  5
4E
  8
0
 62
     8
 39
0.0127
 10
0.48895
 20
-0.2615955678841871
 30
0.91694
 11
0.4572
 21
-0.316588181024499
 31
0.91694
  0
LINE
  5
4F
  8
0
 62
     8
 39
0.0127
 10
0.52705
 20
-0.2615955678841871
 30
0.91694
 11
0.5588
 21
-0.316588181024499
 31
0.91694
  0
3DFACE
  5
50
  8
0
 62
     8
 10
0.6629399999999999
 20
-0.3556
 30
0.8382
 11
0.6629399999999999
 21
-0.3556
 31
0.381
 12
0.6629399999999999
 22
0.3556
 32
0.381
 13
0.6629399999999999
 23
0.3556
 33
0.8382
  0
3DFACE
  5
51
  8
0
 62
     8
 10
0.6629399999999999
 20
-0.3556
 30
0.3175
 11
0.6629399999999999
 21
-0.3556
 31
0.0635
 12
0.6629399999999999
 22
0.3556
 32
0.0635
 13
0.6629399999999999
 23
0.3556
 33
0.3175
  0
POLYLINE
  5
52
  8
0
 66
     1
 10
0.0
 20
0.0
 30
0.6629399999999999
 39
0.0254
 40
0.0254
 41
0.0254
210
1.0
220
0.0
230
0.0
  0
VERTEX
  5
EA
  8
0
 10
-0.3175
 20
0.8128
 30
0.6629399999999999
  0
VERTEX
  5
EB
  8
0
 10
0.3175
 20
0.8128
 30
0.6629399999999999
  0
SEQEND
  5
F0
  8
0
  0
POLYLINE
  5
56
  8
0
 66
     1
 10
0.0
 20
0.0
 30
0.6629399999999999
 39
0.0254
 40
0.0254
 41
0.0254
210
1.0
220
0.0
230
0.0
  0
VERTEX
  5
EC
  8
0
 10
-0.3175
 20
0.2921
 30
0.6629399999999999
  0
VERTEX
  5
ED
  8
0
 10
0.3175
 20
0.2921
 30
0.6629399999999999
  0
SEQEND
  5
F1
  8
0
  0
CIRCLE
  5
5A
  8
0
 62
     8
 39
0.0127
 10
-0.2921
 20
0.8763
 30
0.6629399999999999
 40
0.0254
210
1.0
220
0.0
230
0.0
  0
CIRCLE
  5
5B
  8
0
 62
     8
 39
0.0127
 10
-0.1651
 20
0.8763
 30
0.6629399999999999
 40
0.0254
210
1.0
220
0.0
230
0.0
  0
CIRCLE
  5
5C
  8
0
 62
     8
 39
0.0127
 10
0.2921
 20
0.8763
 30
0.6629399999999999
 40
0.0254
210
1.0
220
0.0
230
0.0
  0
CIRCLE
  5
5D
  8
0
 62
     8
 39
0.0127
 10
0.1651
 20
0.8763
 30
0.6629399999999999
 40
0.0254
210
1.0
220
0.0
230
0.0
  0
CIRCLE
  5
5E
  8
0
 62
     8
 39
0.0127
 10
0.0
 20
0.8763
 30
0.6629399999999999
 40
0.0254
210
1.0
220
0.0
230
0.0
  0
3DFACE
  5
5F
  8
0
 10
0.6604
 20
-0.381
 30
0.9144
 11
0.0508
 21
-0.381
 31
0.9144
 12
0.0508
 22
0.381
 32
0.9144
 13
0.6604
 23
0.381
 33
0.9144
  0
ENDSEC
  0
EOF
