  0
SECTION
  2
HEADER
  9
$ACADVER
  1
AC1009
  9
$DWGCODEPAGE
  3
ansi_1252
  9
$INSBASE
 10
2054.769552139774
 20
1068.165074137642
 30
0.0
  9
$EXTMIN
 10
2051.208634730399
 20
1064.299433600359
 30
0.0
  9
$EXTMAX
 10
2051.456191343373
 20
1064.56873171455
 30
0.0
  9
$LIMMIN
 10
-100.0
 20
-100.0
  9
$LIMMAX
 10
3400.0
 20
2300.0
  9
$ORTHOMODE
 70
     0
  9
$REGENMODE
 70
     1
  9
$FILLMODE
 70
     1
  9
$QTEXTMODE
 70
     0
  9
$MIRRTEXT
 70
     1
  9
$DRAGMODE
 70
     2
  9
$LTSCALE
 40
1.0
  9
$OSMODE
 70
    37
  9
$ATTMODE
 70
     1
  9
$TEXTSIZE
 40
8.0
  9
$TRACEWID
 40
0.05
  9
$TEXTSTYLE
  7
STANDARD
  9
$CLAYER
  8
0
  9
$CELTYPE
  6
BYLAYER
  9
$CECOLOR
 62
   256
  9
$DIMSCALE
 40
1.0
  9
$DIMASZ
 40
0.18
  9
$DIMEXO
 40
0.0625
  9
$DIMDLI
 40
0.38
  9
$DIMRND
 40
0.0
  9
$DIMDLE
 40
0.0
  9
$DIMEXE
 40
0.18
  9
$DIMTP
 40
0.0
  9
$DIMTM
 40
0.0
  9
$DIMTXT
 40
0.18
  9
$DIMCEN
 40
0.09
  9
$DIMTSZ
 40
0.0
  9
$DIMTOL
 70
     0
  9
$DIMLIM
 70
     0
  9
$DIMTIH
 70
     1
  9
$DIMTOH
 70
     1
  9
$DIMSE1
 70
     0
  9
$DIMSE2
 70
     0
  9
$DIMTAD
 70
     0
  9
$DIMZIN
 70
     0
  9
$DIMBLK
  1

  9
$DIMASO
 70
     1
  9
$DIMSHO
 70
     1
  9
$DIMPOST
  1

  9
$DIMAPOST
  1

  9
$DIMALT
 70
     0
  9
$DIMALTD
 70
     2
  9
$DIMALTF
 40
25.4
  9
$DIMLFAC
 40
1.0
  9
$DIMTOFL
 70
     0
  9
$DIMTVP
 40
0.0
  9
$DIMTIX
 70
     0
  9
$DIMSOXD
 70
     0
  9
$DIMSAH
 70
     0
  9
$DIMBLK1
  1

  9
$DIMBLK2
  1

  9
$DIMSTYLE
  2
STANDARD
  9
$DIMCLRD
 70
     0
  9
$DIMCLRE
 70
     0
  9
$DIMCLRT
 70
     0
  9
$DIMTFAC
 40
1.0
  9
$DIMGAP
 40
0.09
  9
$LUNITS
 70
     2
  9
$LUPREC
 70
     4
  9
$SKETCHINC
 40
0.1
  9
$FILLETRAD
 40
0.0
  9
$AUNITS
 70
     0
  9
$AUPREC
 70
     0
  9
$MENU
  1
acad
  9
$ELEVATION
 40
0.0
  9
$PELEVATION
 40
0.0
  9
$THICKNESS
 40
0.0
  9
$LIMCHECK
 70
     0
  9
$CHAMFERA
 40
0.0
  9
$CHAMFERB
 40
0.0
  9
$SKPOLY
 70
     0
  9
$TDCREATE
 40
2448544.348821991
  9
$TDUPDATE
 40
2458028.615520834
  9
$TDINDWG
 40
1.4846073958
  9
$TDUSRTIMER
 40
1.4846073958
  9
$USRTIMER
 70
     1
  9
$ANGBASE
 50
0.0
  9
$ANGDIR
 70
     0
  9
$PDMODE
 70
     0
  9
$PDSIZE
 40
0.0
  9
$PLINEWID
 40
2.0
  9
$COORDS
 70
     1
  9
$SPLFRAME
 70
     0
  9
$SPLINETYPE
 70
     6
  9
$SPLINESEGS
 70
     8
  9
$ATTDIA
 70
     0
  9
$ATTREQ
 70
     1
  9
$HANDLING
 70
     1
  9
$HANDSEED
  5
F5
  9
$SURFTAB1
 70
     6
  9
$SURFTAB2
 70
     6
  9
$SURFTYPE
 70
     6
  9
$SURFU
 70
     6
  9
$SURFV
 70
     6
  9
$UCSNAME
  2

  9
$UCSORG
 10
0.0
 20
0.0
 30
0.0
  9
$UCSXDIR
 10
1.0
 20
0.0
 30
0.0
  9
$UCSYDIR
 10
0.0
 20
1.0
 30
0.0
  9
$PUCSNAME
  2

  9
$PUCSORG
 10
0.0
 20
0.0
 30
0.0
  9
$PUCSXDIR
 10
1.0
 20
0.0
 30
0.0
  9
$PUCSYDIR
 10
0.0
 20
1.0
 30
0.0
  9
$USERI1
 70
     0
  9
$USERI2
 70
     0
  9
$USERI3
 70
     0
  9
$USERI4
 70
     0
  9
$USERI5
 70
     0
  9
$USERR1
 40
0.0
  9
$USERR2
 40
0.0
  9
$USERR3
 40
0.0
  9
$USERR4
 40
0.0
  9
$USERR5
 40
0.0
  9
$WORLDVIEW
 70
     1
  9
$SHADEDGE
 70
     3
  9
$SHADEDIF
 70
    70
  9
$TILEMODE
 70
     1
  9
$MAXACTVP
 70
    48
  9
$PLIMCHECK
 70
     0
  9
$PEXTMIN
 10
1.000000000000000E+20
 20
1.000000000000000E+20
 30
1.000000000000000E+20
  9
$PEXTMAX
 10
-1.000000000000000E+20
 20
-1.000000000000000E+20
 30
-1.000000000000000E+20
  9
$PLIMMIN
 10
0.0
 20
0.0
  9
$PLIMMAX
 10
12.0
 20
9.0
  9
$UNITMODE
 70
     0
  9
$VISRETAIN
 70
     0
  9
$PLINEGEN
 70
     0
  9
$PSLTSCALE
 70
     0
  0
ENDSEC
  0
SECTION
  2
TABLES
  0
TABLE
  2
VPORT
 70
     1
  0
VPORT
  2
*ACTIVE
 70
     0
 10
0.0
 20
0.0
 11
1.0
 21
1.0
 12
2051.332413036886
 22
1064.480309089477
 13
0.0
 23
0.0
 14
12.0
 24
12.0
 15
12.0
 25
12.0
 16
0.0
 26
0.0
 36
1.0
 17
0.0
 27
0.0
 37
0.0
 40
0.3653293547945972
 41
1.503537735849057
 42
50.0
 43
0.0
 44
0.0
 50
0.0
 51
0.0
 71
     0
 72
   100
 73
     1
 74
     0
 75
     0
 76
     0
 77
     0
 78
     0
  0
ENDTAB
  0
TABLE
  2
LTYPE
 70
     1
  0
LTYPE
  2
CONTINUOUS
 70
     0
  3
Solid line
 72
    65
 73
     0
 40
0.0
  0
ENDTAB
  0
TABLE
  2
LAYER
 70
     2
  0
LAYER
  2
0
 70
     0
 62
     7
  6
CONTINUOUS
  0
LAYER
  2
ARQ-EQP
 70
     0
 62
     9
  6
CONTINUOUS
  0
ENDTAB
  0
TABLE
  2
STYLE
 70
     1
  0
STYLE
  2
STANDARD
 70
     0
 40
0.0
 41
1.0
 50
0.0
 71
     0
 42
8.0
  3
txt
  4

  0
ENDTAB
  0
TABLE
  2
VIEW
 70
     0
  0
ENDTAB
  0
TABLE
  2
UCS
 70
     0
  0
ENDTAB
  0
TABLE
  2
APPID
 70
     2
  0
APPID
  2
ACAD
 70
     0
  0
APPID
  2
DCO15
 70
     0
  0
ENDTAB
  0
TABLE
  2
DIMSTYLE
 70
     1
  0
DIMSTYLE
  2
STANDARD
 70
     0
  3

  4

  5

  6

  7

 40
1.0
 41
0.18
 42
0.0625
 43
0.38
 44
0.18
 45
0.0
 46
0.0
 47
0.0
 48
0.0
140
0.18
141
0.09
142
0.0
143
25.4
144
1.0
145
0.0
146
1.0
147
0.09
 71
     0
 72
     0
 73
     1
 74
     1
 75
     0
 76
     0
 77
     0
 78
     0
170
     0
171
     2
172
     0
173
     0
174
     0
175
     0
176
     0
177
     0
178
     0
  0
ENDTAB
  0
ENDSEC
  0
SECTION
  2
BLOCKS
  0
BLOCK
  8
0
  2
$MODEL_SPACE
 70
     0
 10
0.0
 20
0.0
 30
0.0
  3
$MODEL_SPACE
  1

  0
ENDBLK
  5
9
  8
0
  0
BLOCK
 67
     1
  8
0
  2
$PAPER_SPACE
 70
     0
 10
0.0
 20
0.0
 30
0.0
  3
$PAPER_SPACE
  1

  0
ENDBLK
  5
E
 67
     1
  8
0
  0
BLOCK
  8
0
  2
RECTANG
 70
     0
 10
0.0
 20
0.0
 30
0.0
  3
RECTANG
  1

  0
LINE
  5
3E
  8
0
 10
0.0
 20
0.0
 30
0.0
 11
1.00000000000004
 21
0.0
 31
0.0
  0
LINE
  5
3F
  8
0
 10
1.00000000000004
 20
0.0
 30
0.0
 11
1.00000000000004
 21
1.00000000000004
 31
0.0
  0
LINE
  5
40
  8
0
 10
1.00000000000004
 20
1.00000000000004
 30
0.0
 11
0.0
 21
1.00000000000004
 31
0.0
  0
LINE
  5
41
  8
0
 10
0.0
 20
1.00000000000004
 30
0.0
 11
0.0
 21
0.0
 31
0.0
  0
ENDBLK
  5
42
  8
0
  0
BLOCK
  8
0
  2
FNPHONE
 70
     0
 10
0.0
 20
0.0
 30
0.0
  3
FNPHONE
  1

  0
LINE
  5
2A
  8
0
 10
-9.102527935209764
 20
-1.776791737903409
 30
0.0
 11
-9.702527935209673
 21
-1.976791737903341
 31
0.0
  0
LINE
  5
2B
  8
0
 10
-8.902527935209719
 20
-2.176791737903386
 30
0.0
 11
-9.502527935209628
 21
-2.376791737903318
 31
0.0
  0
LINE
  5
2C
  8
0
 10
-8.431885602710508
 20
-2.461596727813458
 30
0.0
 11
-9.031885602710645
 21
-2.661596727813503
 31
0.0
  0
LINE
  5
2D
  8
0
 10
-9.30252793520981
 20
-1.376791737903318
 30
0.0
 11
-9.902527935209719
 21
-1.576791737903363
 31
0.0
  0
LINE
  5
2E
  8
0
 10
-9.102527935209764
 20
0.2232082620965912
 30
0.0
 11
-9.702527935209673
 21
0.0232082620966594
 31
0.0
  0
LINE
  5
2F
  8
0
 10
-9.30252793520981
 20
-0.1767917379033861
 30
0.0
 11
-9.902527935209719
 21
-0.3767917379033179
 31
0.0
  0
LINE
  5
30
  8
0
 10
-9.30252793520981
 20
-0.5767917379033634
 30
0.0
 11
-9.902527935209719
 21
-0.7767917379034088
 31
0.0
  0
LINE
  5
31
  8
0
 10
-9.30252793520981
 20
-0.9767917379033406
 30
0.0
 11
-9.902527935209719
 21
-1.176791737903386
 31
0.0
  0
LINE
  5
32
  8
0
 10
-8.30252793520981
 20
1.823208262096614
 30
0.0
 11
-8.902527935209719
 21
1.623208262096682
 31
0.0
  0
LINE
  5
33
  8
0
 10
-8.502527935209628
 20
1.423208262096637
 30
0.0
 11
-9.102527935209764
 21
1.223208262096591
 31
0.0
  0
LINE
  5
34
  8
0
 10
-8.702527935209673
 20
1.023208262096659
 30
0.0
 11
-9.30252793520981
 21
0.8232082620966139
 31
0.0
  0
LINE
  5
35
  8
0
 10
-8.902527935209719
 20
0.6232082620966821
 30
0.0
 11
-9.502527935209628
 21
0.4232082620966366
 31
0.0
  0
LINE
  5
36
  8
0
 10
-7.902527935209719
 20
-1.976791737903341
 30
0.0
 11
-8.502527935209628
 21
-2.176791737903386
 31
0.0
  0
LINE
  5
37
  8
0
 10
-7.702527935209673
 20
-1.576791737903363
 30
0.0
 11
-8.30252793520981
 21
-1.776791737903409
 31
0.0
  0
LINE
  5
38
  8
0
 10
-7.502527935209628
 20
-1.176791737903386
 30
0.0
 11
-8.102527935209764
 21
-1.376791737903318
 31
0.0
  0
LINE
  5
39
  8
0
 10
-7.30252793520981
 20
-0.7767917379034088
 30
0.0
 11
-7.902527935209719
 21
-0.9767917379033406
 31
0.0
  0
LINE
  5
3A
  8
0
 10
-7.141690481751766
 20
0.561086816490274
 30
0.0
 11
-7.502527935209628
 21
-0.5767917379033634
 31
0.0
  0
INSERT
  5
3B
  8
0
  2
RECTANG
 10
-4.028915524515241
 20
6.722341472888615
 30
0.0
 41
2.03125
 42
0.46875
 43
2.03125
  0
LINE
  5
43
  8
0
 10
-1.997665524515241
 20
2.034841472888615
 30
0.0
 11
-1.997665524515241
 21
2.034841472888615
 31
0.0
  0
LINE
  5
44
  8
0
 10
-1.997665524515241
 20
2.972341472888615
 30
0.0
 11
-1.997665524515241
 21
2.972341472888615
 31
0.0
  0
LINE
  5
45
  8
0
 10
-1.997665524515241
 20
3.909841472888615
 30
0.0
 11
-1.997665524515241
 21
3.909841472888615
 31
0.0
  0
LINE
  5
46
  8
0
 10
-1.997665524515241
 20
4.847341472888615
 30
0.0
 11
-1.997665524515241
 21
4.847341472888615
 31
0.0
  0
LINE
  5
47
  8
0
 10
-2.935165524515241
 20
2.034841472888615
 30
0.0
 11
-2.935165524515241
 21
2.034841472888615
 31
0.0
  0
LINE
  5
48
  8
0
 10
-2.935165524515241
 20
2.972341472888615
 30
0.0
 11
-2.935165524515241
 21
2.972341472888615
 31
0.0
  0
LINE
  5
49
  8
0
 10
-2.935165524515241
 20
3.909841472888615
 30
0.0
 11
-2.935165524515241
 21
3.909841472888615
 31
0.0
  0
LINE
  5
4A
  8
0
 10
-2.935165524515241
 20
4.847341472888615
 30
0.0
 11
-2.935165524515241
 21
4.847341472888615
 31
0.0
  0
LINE
  5
4B
  8
0
 10
-3.872665524515241
 20
2.034841472888615
 30
0.0
 11
-3.872665524515241
 21
2.034841472888615
 31
0.0
  0
LINE
  5
4C
  8
0
 10
-3.872665524515241
 20
2.972341472888615
 30
0.0
 11
-3.872665524515241
 21
2.972341472888615
 31
0.0
  0
LINE
  5
4D
  8
0
 10
-3.872665524515241
 20
3.909841472888615
 30
0.0
 11
-3.872665524515241
 21
3.909841472888615
 31
0.0
  0
LINE
  5
4E
  8
0
 10
-3.872665524515241
 20
4.847341472888615
 30
0.0
 11
-3.872665524515241
 21
4.847341472888615
 31
0.0
  0
ARC
  5
4F
  8
0
 10
-6.787295046443433
 20
1.539471852875181
 30
0.0
 40
1.048156864453217
 50
118.4914644925404
 51
61.50853550744854
  0
ARC
  5
50
  8
0
 10
-6.787295046442978
 20
6.539471852875295
 30
0.0
 40
1.048156864453217
 50
298.4914644925404
 51
241.5085355074485
  0
INSERT
  5
51
  8
0
  2
RECTANG
 10
-4.810165524515241
 20
1.253591472888615
 30
0.0
 41
3.75
 42
4.375
 43
3.75
  0
INSERT
  5
52
  8
0
  2
RECTANG
 10
-8.205282344832767
 20
0.0
 30
0.0
 41
8.20528234483245
 42
8.104073169521023
 43
8.20528234483245
  0
LINE
  5
53
  8
0
 10
-7.287295046442978
 20
6.539471852875408
 30
0.0
 11
-7.287295046443433
 21
1.539471852875181
 31
0.0
  0
LINE
  5
54
  8
0
 10
-6.287295046442978
 20
6.539471852875295
 30
0.0
 11
-6.287295046443433
 21
1.539471852875181
 31
0.0
  0
ENDBLK
  5
55
  8
0
  0
ENDSEC
  0
SECTION
  2
ENTITIES
  0
LINE
  5
64
  8
0
 62
     0
 10
2051.228658973459
 20
1064.546612818629
 30
0.0
 11
2051.213662441039
 21
1064.551623209369
 31
0.0
  0
LINE
  5
65
  8
0
 62
     0
 10
2051.233665900219
 20
1064.556609352249
 30
0.0
 11
2051.218669367798
 21
1064.561619742989
 31
0.0
  0
LINE
  5
66
  8
0
 62
     0
 10
2051.245436888501
 20
1064.563721323811
 30
0.0
 11
2051.230440356081
 21
1064.56873171455
 31
0.0
  0
LINE
  5
67
  8
0
 62
     0
 10
2051.223652046699
 20
1064.536616285009
 30
0.0
 11
2051.208655514278
 21
1064.541626675748
 31
0.0
  0
LINE
  5
68
  8
0
 62
     0
 10
2051.22862433366
 20
1064.496612830629
 30
0.0
 11
2051.21362780124
 21
1064.501623221368
 31
0.0
  0
LINE
  5
69
  8
0
 62
     0
 10
2051.22363126282
 20
1064.506616292208
 30
0.0
 11
2051.208634730399
 21
1064.511626682948
 31
0.0
  0
LINE
  5
6A
  8
0
 62
     0
 10
2051.22363819078
 20
1064.516616289809
 30
0.0
 11
2051.20864165836
 21
1064.521626680548
 31
0.0
  0
LINE
  5
6B
  8
0
 62
     0
 10
2051.223645118739
 20
1064.526616287409
 30
0.0
 11
2051.208648586318
 21
1064.531626678148
 31
0.0
  0
LINE
  5
6C
  8
0
 62
     0
 10
2051.248596617022
 20
1064.456598984308
 30
0.0
 11
2051.233600084601
 21
1064.461609375048
 31
0.0
  0
LINE
  5
6D
  8
0
 62
     0
 10
2051.243603546182
 20
1064.466602445889
 30
0.0
 11
2051.228607013761
 21
1064.471612836628
 31
0.0
  0
LINE
  5
6E
  8
0
 62
     0
 10
2051.238610475341
 20
1064.476605907468
 30
0.0
 11
2051.223613942921
 21
1064.481616298208
 31
0.0
  0
LINE
  5
6F
  8
0
 62
     0
 10
2051.233617404501
 20
1064.486609369048
 30
0.0
 11
2051.21862087208
 21
1064.491619759788
 31
0.0
  0
LINE
  5
70
  8
0
 62
     0
 10
2051.258662430238
 20
1064.55159203355
 30
0.0
 11
2051.243665897818
 21
1064.55660242429
 31
0.0
  0
LINE
  5
71
  8
0
 62
     0
 10
2051.263655501079
 20
1064.54158857197
 30
0.0
 11
2051.248658968659
 21
1064.54659896271
 31
0.0
  0
LINE
  5
72
  8
0
 62
     0
 10
2051.26864857192
 20
1064.531585110391
 30
0.0
 11
2051.253652039499
 21
1064.53659550113
 31
0.0
  0
LINE
  5
73
  8
0
 62
     0
 10
2051.27364164276
 20
1064.521581648811
 30
0.0
 11
2051.25864511034
 21
1064.52659203955
 31
0.0
  0
LINE
  5
74
  8
0
 62
     0
 10
2051.27763940621
 20
1064.488131907289
 30
0.0
 11
2051.268638179981
 21
1064.51658511399
 31
0.0
  0
INSERT
  5
75
  8
0
 62
     0
  2
RECTANG
 10
-2051.355352049157
 20
1064.334046664896
 30
0.0
 41
0.05078125
 42
0.01171875
 43
-0.05078125
 50
180.0396942880287
210
0.0
220
0.0
230
-1.0
  0
LINE
  5
76
  8
0
 62
     0
 10
2051.406214473997
 20
1064.451198955727
 30
0.0
 11
2051.406214473997
 21
1064.451198955727
 31
0.0
  0
LINE
  5
77
  8
0
 62
     0
 10
2051.406198236592
 20
1064.427761461352
 30
0.0
 11
2051.406198236592
 21
1064.427761461352
 31
0.0
  0
LINE
  5
78
  8
0
 62
     0
 10
2051.406181999186
 20
1064.404323966977
 30
0.0
 11
2051.406181999186
 21
1064.404323966977
 31
0.0
  0
LINE
  5
79
  8
0
 62
     0
 10
2051.40616576178
 20
1064.380886472601
 30
0.0
 11
2051.40616576178
 21
1064.380886472601
 31
0.0
  0
LINE
  5
7A
  8
0
 62
     0
 10
2051.382776979621
 20
1064.451215193133
 30
0.0
 11
2051.382776979621
 21
1064.451215193133
 31
0.0
  0
LINE
  5
7B
  8
0
 62
     0
 10
2051.382760742217
 20
1064.427777698757
 30
0.0
 11
2051.382760742217
 21
1064.427777698757
 31
0.0
  0
LINE
  5
7C
  8
0
 62
     0
 10
2051.382744504811
 20
1064.404340204382
 30
0.0
 11
2051.382744504811
 21
1064.404340204382
 31
0.0
  0
LINE
  5
7D
  8
0
 62
     0
 10
2051.382728267406
 20
1064.380902710007
 30
0.0
 11
2051.382728267406
 21
1064.380902710007
 31
0.0
  0
LINE
  5
7E
  8
0
 62
     0
 10
2051.359339485246
 20
1064.451231430538
 30
0.0
 11
2051.359339485246
 21
1064.451231430538
 31
0.0
  0
LINE
  5
7F
  8
0
 62
     0
 10
2051.359323247841
 20
1064.427793936163
 30
0.0
 11
2051.359323247841
 21
1064.427793936163
 31
0.0
  0
LINE
  5
80
  8
0
 62
     0
 10
2051.359307010435
 20
1064.404356441788
 30
0.0
 11
2051.359307010435
 21
1064.404356441788
 31
0.0
  0
LINE
  5
81
  8
0
 62
     0
 10
2051.359290773029
 20
1064.380918947412
 30
0.0
 11
2051.359290773029
 21
1064.380918947412
 31
0.0
  0
ARC
  5
82
  8
0
 62
     0
 10
2051.286482344437
 20
1064.463666149156
 30
0.0
 40
0.0262039216113304
 50
298.4517702045147
 51
241.4688412194292
  0
ARC
  5
83
  8
0
 62
     0
 10
2051.286395744941
 20
1064.338666179154
 30
0.0
 40
0.0262039216113304
 50
118.4517702045147
 51
61.46884121942921
  0
INSERT
  5
84
  8
0
 62
     0
  2
RECTANG
 10
-2051.335915522042
 20
1064.470778913256
 30
0.0
 41
0.09375
 42
0.109375
 43
-0.09375
 50
180.0396942880287
210
0.0
220
0.0
230
-1.0
  0
INSERT
  5
85
  8
0
 62
     0
  2
RECTANG
 10
-2051.251059333981
 20
1064.502177495639
 30
0.0
 41
0.2051320586208112
 42
0.2026018292380255
 43
-0.2051320586208112
 50
180.0396942880287
210
0.0
220
0.0
230
-1.0
  0
LINE
  5
86
  8
0
 62
     0
 10
2051.27389574794
 20
1064.338674839104
 30
0.0
 11
2051.273982347436
 21
1064.463674809105
 31
0.0
  0
LINE
  5
87
  8
0
 62
     0
 10
2051.298895741941
 20
1064.338657519204
 30
0.0
 11
2051.298982341437
 21
1064.463657489206
 31
0.0
  0
ENDSEC
  0
EOF
