  0
SECTION
  2
HEADER
  9
$ACADVER
  1
AC1009
  9
$DWGCODEPAGE
  3
ansi_1252
  9
$INSBASE
 10
-5.708611467017621
 20
4.002019671086702
 30
0.0
  9
$EXTMIN
 10
-6.259025022368927
 20
3.795571250788343
 30
0.0
  9
$EXTMAX
 10
-5.095801380233078
 20
4.167645729458834
 30
0.0
  9
$LIMMIN
 10
0.0
 20
0.0
  9
$LIMMAX
 10
12.0
 20
9.0
  9
$ORTHOMODE
 70
     0
  9
$REGENMODE
 70
     1
  9
$FILLMODE
 70
     1
  9
$QTEXTMODE
 70
     0
  9
$MIRRTEXT
 70
     1
  9
$DRAGMODE
 70
     2
  9
$LTSCALE
 40
0.5
  9
$OSMODE
 70
    37
  9
$ATTMODE
 70
     1
  9
$TEXTSIZE
 40
0.2
  9
$TRACEWID
 40
0.05
  9
$TEXTSTYLE
  7
STANDARD
  9
$CLAYER
  8
0
  9
$CELTYPE
  6
BYLAYER
  9
$CECOLOR
 62
   256
  9
$DIMSCALE
 40
0.0
  9
$DIMASZ
 40
0.02
  9
$DIMEXO
 40
0.2
  9
$DIMDLI
 40
0.0
  9
$DIMRND
 40
0.0
  9
$DIMDLE
 40
0.0
  9
$DIMEXE
 40
0.06
  9
$DIMTP
 40
0.0
  9
$DIMTM
 40
0.0
  9
$DIMTXT
 40
0.04
  9
$DIMCEN
 40
0.09
  9
$DIMTSZ
 40
0.0
  9
$DIMTOL
 70
     0
  9
$DIMLIM
 70
     0
  9
$DIMTIH
 70
     0
  9
$DIMTOH
 70
     0
  9
$DIMSE1
 70
     0
  9
$DIMSE2
 70
     0
  9
$DIMTAD
 70
     1
  9
$DIMZIN
 70
     4
  9
$DIMBLK
  1

  9
$DIMASO
 70
     1
  9
$DIMSHO
 70
     1
  9
$DIMPOST
  1

  9
$DIMAPOST
  1

  9
$DIMALT
 70
     0
  9
$DIMALTD
 70
     2
  9
$DIMALTF
 40
25.4
  9
$DIMLFAC
 40
1.0
  9
$DIMTOFL
 70
     1
  9
$DIMTVP
 40
0.0
  9
$DIMTIX
 70
     1
  9
$DIMSOXD
 70
     0
  9
$DIMSAH
 70
     0
  9
$DIMBLK1
  1

  9
$DIMBLK2
  1

  9
$DIMSTYLE
  2
STANDARD
  9
$DIMCLRD
 70
   256
  9
$DIMCLRE
 70
   256
  9
$DIMCLRT
 70
   256
  9
$DIMTFAC
 40
4.5
  9
$DIMGAP
 40
0.09
  9
$LUNITS
 70
     2
  9
$LUPREC
 70
     2
  9
$SKETCHINC
 40
0.1
  9
$FILLETRAD
 40
0.0
  9
$AUNITS
 70
     0
  9
$AUPREC
 70
     0
  9
$MENU
  1
acad
  9
$ELEVATION
 40
0.0
  9
$PELEVATION
 40
0.0
  9
$THICKNESS
 40
0.0
  9
$LIMCHECK
 70
     0
  9
$CHAMFERA
 40
0.015
  9
$CHAMFERB
 40
0.015
  9
$SKPOLY
 70
     0
  9
$TDCREATE
 40
2450371.706866898
  9
$TDUPDATE
 40
2458028.615555556
  9
$TDINDWG
 40
0.0001277431
  9
$TDUSRTIMER
 40
0.0001277431
  9
$USRTIMER
 70
     1
  9
$ANGBASE
 50
0.0
  9
$ANGDIR
 70
     0
  9
$PDMODE
 70
     0
  9
$PDSIZE
 40
0.0
  9
$PLINEWID
 40
0.0
  9
$COORDS
 70
     1
  9
$SPLFRAME
 70
     0
  9
$SPLINETYPE
 70
     6
  9
$SPLINESEGS
 70
     8
  9
$ATTDIA
 70
     0
  9
$ATTREQ
 70
     1
  9
$HANDLING
 70
     1
  9
$HANDSEED
  5
8DA6
  9
$SURFTAB1
 70
     6
  9
$SURFTAB2
 70
     6
  9
$SURFTYPE
 70
     6
  9
$SURFU
 70
     6
  9
$SURFV
 70
     6
  9
$UCSNAME
  2

  9
$UCSORG
 10
0.0
 20
0.0
 30
0.0
  9
$UCSXDIR
 10
1.0
 20
0.0
 30
0.0
  9
$UCSYDIR
 10
0.0
 20
1.0
 30
0.0
  9
$PUCSNAME
  2

  9
$PUCSORG
 10
0.0
 20
0.0
 30
0.0
  9
$PUCSXDIR
 10
1.0
 20
0.0
 30
0.0
  9
$PUCSYDIR
 10
0.0
 20
1.0
 30
0.0
  9
$USERI1
 70
     0
  9
$USERI2
 70
     0
  9
$USERI3
 70
     0
  9
$USERI4
 70
     0
  9
$USERI5
 70
     0
  9
$USERR1
 40
0.0
  9
$USERR2
 40
0.0
  9
$USERR3
 40
0.0
  9
$USERR4
 40
0.0
  9
$USERR5
 40
0.0
  9
$WORLDVIEW
 70
     1
  9
$SHADEDGE
 70
     3
  9
$SHADEDIF
 70
    70
  9
$TILEMODE
 70
     1
  9
$MAXACTVP
 70
    16
  9
$PLIMCHECK
 70
     0
  9
$PEXTMIN
 10
1.000000000000000E+20
 20
1.000000000000000E+20
 30
1.000000000000000E+20
  9
$PEXTMAX
 10
-1.000000000000000E+20
 20
-1.000000000000000E+20
 30
-1.000000000000000E+20
  9
$PLIMMIN
 10
0.0
 20
0.0
  9
$PLIMMAX
 10
12.0
 20
9.0
  9
$UNITMODE
 70
     0
  9
$VISRETAIN
 70
     0
  9
$PLINEGEN
 70
     0
  9
$PSLTSCALE
 70
     1
  0
ENDSEC
  0
SECTION
  2
TABLES
  0
TABLE
  2
VPORT
 70
     1
  0
VPORT
  2
*ACTIVE
 70
     0
 10
0.0
 20
0.0
 11
1.0
 21
1.0
 12
-5.67749942800306
 22
4.094750495650199
 13
0.0
 23
0.0
 14
1.0
 24
1.0
 15
0.0
 25
0.0
 16
0.0
 26
0.0
 36
1.0
 17
0.0
 27
0.0
 37
0.0
 40
0.853611507198594
 41
1.376889848812095
 42
50.0
 43
0.0
 44
0.0
 50
0.0
 51
0.0
 71
     0
 72
   100
 73
     1
 74
     1
 75
     0
 76
     0
 77
     0
 78
     0
  0
ENDTAB
  0
TABLE
  2
LTYPE
 70
     1
  0
LTYPE
  2
CONTINUOUS
 70
     0
  3
Solid line
 72
    65
 73
     0
 40
0.0
  0
ENDTAB
  0
TABLE
  2
LAYER
 70
     1
  0
LAYER
  2
0
 70
     0
 62
     7
  6
CONTINUOUS
  0
ENDTAB
  0
TABLE
  2
STYLE
 70
     1
  0
STYLE
  2
STANDARD
 70
     0
 40
0.0
 41
1.0
 50
0.0
 71
     0
 42
0.2
  3
txt
  4

  0
ENDTAB
  0
TABLE
  2
VIEW
 70
     0
  0
ENDTAB
  0
TABLE
  2
UCS
 70
     0
  0
ENDTAB
  0
TABLE
  2
APPID
 70
     1
  0
APPID
  2
ACAD
 70
     0
  0
ENDTAB
  0
TABLE
  2
DIMSTYLE
 70
     1
  0
DIMSTYLE
  2
STANDARD
 70
     0
  3

  4

  5

  6

  7

 40
1.0
 41
0.18
 42
0.0625
 43
0.38
 44
0.18
 45
0.0
 46
0.0
 47
0.0
 48
0.0
140
0.18
141
0.09
142
0.0
143
25.4
144
1.0
145
0.0
146
1.0
147
0.09
 71
     0
 72
     0
 73
     1
 74
     1
 75
     0
 76
     0
 77
     0
 78
     0
170
     0
171
     2
172
     0
173
     0
174
     0
175
     0
176
     0
177
     0
178
     0
  0
ENDTAB
  0
ENDSEC
  0
SECTION
  2
BLOCKS
  0
BLOCK
  8
0
  2
$MODEL_SPACE
 70
     0
 10
0.0
 20
0.0
 30
0.0
  3
$MODEL_SPACE
  1

  0
ENDBLK
  5
8C3D
  8
0
  0
BLOCK
 67
     1
  8
0
  2
$PAPER_SPACE
 70
     0
 10
0.0
 20
0.0
 30
0.0
  3
$PAPER_SPACE
  1

  0
ENDBLK
  5
8C3B
 67
     1
  8
0
  0
ENDSEC
  0
SECTION
  2
ENTITIES
  0
POLYLINE
  5
8C18
  8
0
 62
     0
 66
     1
 10
0.0
 20
0.0
 30
0.0
 70
     1
  0
VERTEX
  5
8D2A
  8
0
 62
     0
 10
-5.919018169477475
 20
4.027119131910735
 30
0.0
  0
VERTEX
  5
8D2B
  8
0
 62
     0
 10
-5.919018169477475
 20
3.979405608304623
 30
0.0
  0
VERTEX
  5
8D2C
  8
0
 62
     0
 10
-5.472696862907723
 20
3.979405608304623
 30
0.0
  0
VERTEX
  5
8D2D
  8
0
 62
     0
 10
-5.472696862907723
 20
4.027119131910735
 30
0.0
  0
SEQEND
  5
8D84
  8
0
 62
     0
  0
POLYLINE
  5
8C12
  8
0
 62
     0
 66
     1
 10
0.0
 20
0.0
 30
0.0
 70
     1
  0
VERTEX
  5
8D2E
  8
0
 62
     0
 10
-5.919018169477475
 20
4.072758091148883
 30
0.0
  0
VERTEX
  5
8D2F
  8
0
 62
     0
 10
-5.919018169477475
 20
4.043715132669601
 30
0.0
  0
VERTEX
  5
8D30
  8
0
 62
     0
 10
-5.470620912770685
 20
4.043715132669601
 30
0.0
  0
VERTEX
  5
8D31
  8
0
 62
     0
 10
-5.470620912770685
 20
4.072758091148883
 30
0.0
  0
SEQEND
  5
8D85
  8
0
 62
     0
  0
POLYLINE
  5
8C0C
  8
0
 62
     0
 66
     1
 10
0.0
 20
0.0
 30
0.0
 70
     1
  0
VERTEX
  5
8D32
  8
0
 62
     0
 10
-5.919018169477475
 20
4.141216572854844
 30
0.0
  0
VERTEX
  5
8D33
  8
0
 62
     0
 10
-5.919018169477475
 20
4.091428613426977
 30
0.0
  0
VERTEX
  5
8D34
  8
0
 62
     0
 10
-5.470620912770685
 20
4.091428613426977
 30
0.0
  0
VERTEX
  5
8D35
  8
0
 62
     0
 10
-5.470620912770685
 20
4.141216572854844
 30
0.0
  0
SEQEND
  5
8D86
  8
0
 62
     0
  0
POLYLINE
  5
8C00
  8
0
 62
     0
 66
     1
 10
0.0
 20
0.0
 30
0.0
 70
     1
  0
VERTEX
  5
8D36
  8
0
 62
     0
 10
-5.63990861785323
 20
3.924511607166323
 30
0.0
  0
VERTEX
  5
8D37
  8
0
 62
     0
 10
-5.639908617853229
 20
3.884935645461855
 30
0.0
  0
VERTEX
  5
8D38
  8
0
 62
     0
 10
-5.502696862907725
 20
3.884935645461856
 30
0.0
  0
VERTEX
  5
8D39
  8
0
 62
     0
 10
-5.502696862907724
 20
3.924511607166323
 30
0.0
  0
SEQEND
  5
8D87
  8
0
 62
     0
  0
POLYLINE
  5
8BC9
  8
0
 62
     0
 66
     1
 10
0.0
 20
0.0
 30
0.0
  0
VERTEX
  5
8D3A
  8
0
 62
     0
 10
-5.605719003322534
 20
3.845227193262772
 30
0.0
  0
VERTEX
  5
8D3B
  8
0
 62
     0
 10
-5.625719003322534
 20
3.845227193262772
 30
0.0
  0
SEQEND
  5
8D88
  8
0
 62
     0
  0
POLYLINE
  5
8BC5
  8
0
 62
     0
 66
     1
 10
0.0
 20
0.0
 30
0.0
  0
VERTEX
  5
8D3C
  8
0
 62
     0
 10
-5.625719003322534
 20
3.823938227619639
 30
0.0
  0
VERTEX
  5
8D3D
  8
0
 62
     0
 10
-5.605719003322534
 20
3.823938227619638
 30
0.0
  0
SEQEND
  5
8D89
  8
0
 62
     0
  0
POLYLINE
  5
8B16
  8
0
 62
     0
 66
     1
 10
0.0
 20
0.0
 30
0.0
 70
     1
  0
VERTEX
  5
8D3E
  8
0
 62
     0
 10
-5.927321842459333
 20
3.966958650584208
 30
0.0
  0
VERTEX
  5
8D3F
  8
0
 62
     0
 10
-5.927321842459333
 20
3.813445686413422
 30
0.0
  0
VERTEX
  5
8D40
  8
0
 62
     0
 10
-5.464393253709014
 20
3.813445686413422
 30
0.0
  0
VERTEX
  5
8D41
  8
0
 62
     0
 10
-5.464393253709014
 20
3.966958650584208
 30
0.0
  0
SEQEND
  5
8D8A
  8
0
 62
     0
  0
POLYLINE
  5
8B0A
  8
0
 62
     0
 66
     1
 10
0.0
 20
0.0
 30
0.0
 70
     1
  0
VERTEX
  5
8D42
  8
0
 62
     0
 10
-5.66990861785323
 20
3.954511607166323
 30
0.0
  0
VERTEX
  5
8D43
  8
0
 62
     0
 10
-5.66990861785323
 20
3.854935645461855
 30
0.0
  0
VERTEX
  5
8D44
  8
0
 62
     0
 10
-5.472696862907724
 20
3.854935645461855
 30
0.0
  0
VERTEX
  5
8D45
  8
0
 62
     0
 10
-5.472696862907724
 20
3.954511607166323
 30
0.0
  0
SEQEND
  5
8D8B
  8
0
 62
     0
  0
LINE
  5
8AFE
  8
0
 62
     0
 10
-5.455562100810006
 20
3.805571250788343
 30
0.0
 11
-5.935562100810007
 21
3.805571250788344
 31
0.0
  0
LINE
  5
8AFC
  8
0
 62
     0
 10
-5.935562100810007
 20
4.155571250788344
 30
0.0
 11
-5.455562100810006
 21
4.155571250788344
 31
0.0
  0
LINE
  5
8AE7
  8
0
 62
     0
 10
-5.445562100810006
 20
3.795571250788344
 30
0.0
 11
-5.945562100810006
 21
3.795571250788344
 31
0.0
  0
LINE
  5
8AE5
  8
0
 62
     0
 10
-5.945562100810006
 20
4.165571250788344
 30
0.0
 11
-5.445562100810006
 21
4.165571250788344
 31
0.0
  0
LINE
  5
8AFD
  8
0
 62
     0
 10
-5.935562100810007
 20
3.805571250788344
 30
0.0
 11
-5.935562100810007
 21
4.155571250788344
 31
0.0
  0
LINE
  5
8AF8
  8
0
 62
     0
 10
-6.249025022368927
 20
3.807645729458834
 30
0.0
 11
-6.249025022368927
 21
4.157645729458834
 31
0.0
  0
LINE
  5
8AFA
  8
0
 62
     0
 10
-6.069025022368926
 20
3.807645729458834
 30
0.0
 11
-6.069025022368926
 21
4.157645729458834
 31
0.0
  0
LINE
  5
8AE4
  8
0
 62
     0
 10
-5.945562100810006
 20
3.795571250788344
 30
0.0
 11
-5.945562100810006
 21
4.165571250788344
 31
0.0
  0
LINE
  5
8AE9
  8
0
 62
     0
 10
-6.259025022368927
 20
3.797645729458834
 30
0.0
 11
-6.259025022368927
 21
4.167645729458834
 31
0.0
  0
LINE
  5
8AEB
  8
0
 62
     0
 10
-6.059025022368926
 20
3.797645729458834
 30
0.0
 11
-6.059025022368926
 21
4.167645729458834
 31
0.0
  0
LINE
  5
8AE8
  8
0
 62
     0
 10
-6.059025022368925
 20
3.797645729458834
 30
0.0
 11
-6.259025022368927
 21
3.797645729458834
 31
0.0
  0
LINE
  5
8AF9
  8
0
 62
     0
 10
-6.069025022368926
 20
3.807645729458834
 30
0.0
 11
-6.249025022368927
 21
3.807645729458834
 31
0.0
  0
POLYLINE
  5
8C06
  8
0
 62
     0
 66
     1
 10
0.0
 20
0.0
 30
0.0
 70
     1
  0
VERTEX
  5
8D46
  8
0
 62
     0
 10
-5.886942219340435
 20
3.924511650015058
 30
0.0
  0
VERTEX
  5
8D47
  8
0
 62
     0
 10
-5.886942219340436
 20
3.88493568831059
 30
0.0
  0
VERTEX
  5
8D48
  8
0
 62
     0
 10
-5.749730464394929
 20
3.88493568831059
 30
0.0
  0
VERTEX
  5
8D49
  8
0
 62
     0
 10
-5.74973046439493
 20
3.924511650015059
 30
0.0
  0
SEQEND
  5
8D8C
  8
0
 62
     0
  0
POLYLINE
  5
8B7F
  8
0
 62
     0
 66
     1
 10
0.0
 20
0.0
 30
0.0
  0
VERTEX
  5
8D4A
  8
0
 62
     0
 10
-5.851166685010364
 20
3.823938227619638
 30
0.0
  0
VERTEX
  5
8D4B
  8
0
 62
     0
 10
-5.831166685010365
 20
3.823938227619639
 30
0.0
  0
SEQEND
  5
8D8D
  8
0
 62
     0
  0
POLYLINE
  5
8B7B
  8
0
 62
     0
 66
     1
 10
0.0
 20
0.0
 30
0.0
  0
VERTEX
  5
8D4C
  8
0
 62
     0
 10
-5.831166685010365
 20
3.845227193262772
 30
0.0
  0
VERTEX
  5
8D4D
  8
0
 62
     0
 10
-5.851166685010364
 20
3.845227193262772
 30
0.0
  0
SEQEND
  5
8D8E
  8
0
 62
     0
  0
POLYLINE
  5
8B04
  8
0
 62
     0
 66
     1
 10
0.0
 20
0.0
 30
0.0
 70
     1
  0
VERTEX
  5
8D4E
  8
0
 62
     0
 10
-5.916942219340436
 20
3.954511650015058
 30
0.0
  0
VERTEX
  5
8D4F
  8
0
 62
     0
 10
-5.916942219340436
 20
3.854935688310591
 30
0.0
  0
VERTEX
  5
8D50
  8
0
 62
     0
 10
-5.71973046439493
 20
3.854935688310591
 30
0.0
  0
VERTEX
  5
8D51
  8
0
 62
     0
 10
-5.71973046439493
 20
3.954511650015058
 30
0.0
  0
SEQEND
  5
8D8F
  8
0
 62
     0
  0
POLYLINE
  5
8B6B
  8
0
 62
     0
 66
     1
 10
0.0
 20
0.0
 30
0.0
  0
VERTEX
  5
8D52
  8
0
 62
     0
 10
-5.873166685010363
 20
3.823938227619639
 30
0.0
  0
VERTEX
  5
8D53
  8
0
 62
     0
 10
-5.853166685010363
 20
3.823938227619638
 30
0.0
  0
SEQEND
  5
8D90
  8
0
 62
     0
  0
POLYLINE
  5
8B67
  8
0
 62
     0
 66
     1
 10
0.0
 20
0.0
 30
0.0
  0
VERTEX
  5
8D54
  8
0
 62
     0
 10
-5.853166685010363
 20
3.845227193262772
 30
0.0
  0
VERTEX
  5
8D55
  8
0
 62
     0
 10
-5.873166685010363
 20
3.845227193262772
 30
0.0
  0
SEQEND
  5
8D91
  8
0
 62
     0
  0
POLYLINE
  5
8B5D
  8
0
 62
     0
 66
     1
 10
0.0
 20
0.0
 30
0.0
  0
VERTEX
  5
8D56
  8
0
 62
     0
 10
-5.875166685010362
 20
3.845227193262772
 30
0.0
  0
VERTEX
  5
8D57
  8
0
 62
     0
 10
-5.895166685010363
 20
3.845227193262772
 30
0.0
  0
SEQEND
  5
8D92
  8
0
 62
     0
  0
POLYLINE
  5
8B4D
  8
0
 62
     0
 66
     1
 10
0.0
 20
0.0
 30
0.0
  0
VERTEX
  5
8D58
  8
0
 62
     0
 10
-5.895166685010363
 20
3.823938227619639
 30
0.0
  0
VERTEX
  5
8D59
  8
0
 62
     0
 10
-5.875166685010362
 20
3.823938227619639
 30
0.0
  0
SEQEND
  5
8D93
  8
0
 62
     0
  0
POLYLINE
  5
8B42
  8
0
 62
     0
 66
     1
 10
0.0
 20
0.0
 30
0.0
  0
VERTEX
  5
8D5A
  8
0
 62
     0
 10
-5.917192695764935
 20
3.845227193262772
 30
0.0
  0
VERTEX
  5
8D5B
  8
0
 62
     0
 10
-5.917192695764935
 20
3.823938227619639
 30
0.0
  0
VERTEX
  5
8D5C
  8
0
 62
     0
 10
-5.897166685010362
 20
3.823938227619639
 30
0.0
  0
SEQEND
  5
8D94
  8
0
 62
     0
  0
POLYLINE
  5
8B3E
  8
0
 62
     0
 66
     1
 10
0.0
 20
0.0
 30
0.0
  0
VERTEX
  5
8D5D
  8
0
 62
     0
 10
-5.897166685010362
 20
3.845227193262772
 30
0.0
  0
VERTEX
  5
8D5E
  8
0
 62
     0
 10
-5.917192695764935
 20
3.845227193262772
 30
0.0
  0
SEQEND
  5
8D95
  8
0
 62
     0
  0
LINE
  5
8B2F
  8
0
 62
     0
 10
-5.851166685010364
 20
3.823119431136919
 30
0.0
 11
-5.851166685010364
 21
3.845227193262772
 31
0.0
  0
LINE
  5
8B2E
  8
0
 62
     0
 10
-5.853166685010364
 20
3.823119431136919
 30
0.0
 11
-5.853166685010364
 21
3.845227193262772
 31
0.0
  0
LINE
  5
8B2D
  8
0
 62
     0
 10
-5.873166685010363
 20
3.823119431136919
 30
0.0
 11
-5.873166685010363
 21
3.845227193262772
 31
0.0
  0
LINE
  5
8B2C
  8
0
 62
     0
 10
-5.875166685010363
 20
3.823119431136919
 30
0.0
 11
-5.875166685010363
 21
3.845227193262772
 31
0.0
  0
LINE
  5
8B2A
  8
0
 62
     0
 10
-5.895166685010363
 20
3.823119431136919
 30
0.0
 11
-5.895166685010363
 21
3.845227193262772
 31
0.0
  0
LINE
  5
8B29
  8
0
 62
     0
 10
-5.897166685010363
 20
3.823119431136919
 30
0.0
 11
-5.897166685010363
 21
3.845227193262772
 31
0.0
  0
LINE
  5
8BE3
  8
0
 62
     0
 10
-5.649719003322534
 20
3.823119431136919
 30
0.0
 11
-5.649719003322534
 21
3.845227193262772
 31
0.0
  0
LINE
  5
8BE2
  8
0
 62
     0
 10
-5.647719003322534
 20
3.823119431136919
 30
0.0
 11
-5.647719003322534
 21
3.845227193262772
 31
0.0
  0
LINE
  5
8BE1
  8
0
 62
     0
 10
-5.627719003322534
 20
3.823119431136919
 30
0.0
 11
-5.627719003322534
 21
3.845227193262772
 31
0.0
  0
LINE
  5
8BE0
  8
0
 62
     0
 10
-5.625719003322534
 20
3.823119431136919
 30
0.0
 11
-5.625719003322534
 21
3.845227193262772
 31
0.0
  0
POLYLINE
  5
8BDA
  8
0
 62
     0
 66
     1
 10
0.0
 20
0.0
 30
0.0
  0
VERTEX
  5
8D5F
  8
0
 62
     0
 10
-5.649719003322533
 20
3.845227193262772
 30
0.0
  0
VERTEX
  5
8D60
  8
0
 62
     0
 10
-5.669745014077106
 20
3.845227193262772
 30
0.0
  0
SEQEND
  5
8D96
  8
0
 62
     0
  0
POLYLINE
  5
8BD5
  8
0
 62
     0
 66
     1
 10
0.0
 20
0.0
 30
0.0
  0
VERTEX
  5
8D61
  8
0
 62
     0
 10
-5.669745014077106
 20
3.845227193262772
 30
0.0
  0
VERTEX
  5
8D62
  8
0
 62
     0
 10
-5.669745014077106
 20
3.823938227619639
 30
0.0
  0
VERTEX
  5
8D63
  8
0
 62
     0
 10
-5.649719003322533
 20
3.823938227619639
 30
0.0
  0
SEQEND
  5
8D97
  8
0
 62
     0
  0
POLYLINE
  5
8BD1
  8
0
 62
     0
 66
     1
 10
0.0
 20
0.0
 30
0.0
  0
VERTEX
  5
8D64
  8
0
 62
     0
 10
-5.647719003322534
 20
3.823938227619639
 30
0.0
  0
VERTEX
  5
8D65
  8
0
 62
     0
 10
-5.627719003322533
 20
3.823938227619639
 30
0.0
  0
SEQEND
  5
8D98
  8
0
 62
     0
  0
POLYLINE
  5
8BCD
  8
0
 62
     0
 66
     1
 10
0.0
 20
0.0
 30
0.0
  0
VERTEX
  5
8D66
  8
0
 62
     0
 10
-5.627719003322533
 20
3.845227193262772
 30
0.0
  0
VERTEX
  5
8D67
  8
0
 62
     0
 10
-5.647719003322534
 20
3.845227193262772
 30
0.0
  0
SEQEND
  5
8D99
  8
0
 62
     0
  0
POLYLINE
  5
8BB7
  8
0
 62
     0
 66
     1
 10
0.0
 20
0.0
 30
0.0
  0
VERTEX
  5
8D68
  8
0
 62
     0
 10
-5.755166685010366
 20
3.823938227619638
 30
0.0
  0
VERTEX
  5
8D69
  8
0
 62
     0
 10
-5.719726127140826
 20
3.823938227619639
 30
0.0
  0
VERTEX
  5
8D6A
  8
0
 62
     0
 10
-5.719726127140826
 20
3.845227193262772
 30
0.0
  0
VERTEX
  5
8D6B
  8
0
 62
     0
 10
-5.755166685010366
 20
3.845227193262772
 30
0.0
  0
SEQEND
  5
8D9A
  8
0
 62
     0
  0
POLYLINE
  5
8BAD
  8
0
 62
     0
 66
     1
 10
0.0
 20
0.0
 30
0.0
  0
VERTEX
  5
8D6C
  8
0
 62
     0
 10
-5.807166685010366
 20
3.823938227619639
 30
0.0
  0
VERTEX
  5
8D6D
  8
0
 62
     0
 10
-5.787166685010365
 20
3.823938227619639
 30
0.0
  0
SEQEND
  5
8D9B
  8
0
 62
     0
  0
POLYLINE
  5
8BA3
  8
0
 62
     0
 66
     1
 10
0.0
 20
0.0
 30
0.0
  0
VERTEX
  5
8D6E
  8
0
 62
     0
 10
-5.787166685010365
 20
3.845227193262772
 30
0.0
  0
VERTEX
  5
8D6F
  8
0
 62
     0
 10
-5.807166685010366
 20
3.845227193262772
 30
0.0
  0
SEQEND
  5
8D9C
  8
0
 62
     0
  0
POLYLINE
  5
8B93
  8
0
 62
     0
 66
     1
 10
0.0
 20
0.0
 30
0.0
  0
VERTEX
  5
8D70
  8
0
 62
     0
 10
-5.829166685010366
 20
3.823938227619639
 30
0.0
  0
VERTEX
  5
8D71
  8
0
 62
     0
 10
-5.809166685010365
 20
3.823938227619639
 30
0.0
  0
SEQEND
  5
8D9D
  8
0
 62
     0
  0
POLYLINE
  5
8B8F
  8
0
 62
     0
 66
     1
 10
0.0
 20
0.0
 30
0.0
  0
VERTEX
  5
8D72
  8
0
 62
     0
 10
-5.809166685010365
 20
3.845227193262772
 30
0.0
  0
VERTEX
  5
8D73
  8
0
 62
     0
 10
-5.829166685010366
 20
3.845227193262772
 30
0.0
  0
SEQEND
  5
8D9E
  8
0
 62
     0
  0
LINE
  5
8B36
  8
0
 62
     0
 10
-5.755166685010366
 20
3.823119431136919
 30
0.0
 11
-5.755166685010366
 21
3.845227193262772
 31
0.0
  0
LINE
  5
8B34
  8
0
 62
     0
 10
-5.787166685010366
 20
3.823119431136919
 30
0.0
 11
-5.787166685010366
 21
3.845227193262772
 31
0.0
  0
LINE
  5
8B33
  8
0
 62
     0
 10
-5.807166685010365
 20
3.823119431136919
 30
0.0
 11
-5.807166685010365
 21
3.845227193262772
 31
0.0
  0
LINE
  5
8B32
  8
0
 62
     0
 10
-5.809166685010365
 20
3.823119431136919
 30
0.0
 11
-5.809166685010365
 21
3.845227193262772
 31
0.0
  0
LINE
  5
8B31
  8
0
 62
     0
 10
-5.829166685010365
 20
3.823119431136919
 30
0.0
 11
-5.829166685010365
 21
3.845227193262772
 31
0.0
  0
LINE
  5
8B30
  8
0
 62
     0
 10
-5.831166685010365
 20
3.823119431136919
 30
0.0
 11
-5.831166685010365
 21
3.845227193262772
 31
0.0
  0
LINE
  5
8AEA
  8
0
 62
     0
 10
-6.259025022368927
 20
4.167645729458834
 30
0.0
 11
-6.059025022368925
 21
4.167645729458834
 31
0.0
  0
LINE
  5
8AFB
  8
0
 62
     0
 10
-6.249025022368927
 20
4.157645729458834
 30
0.0
 11
-6.069025022368926
 21
4.157645729458834
 31
0.0
  0
LINE
  5
8B02
  8
0
 62
     0
 10
-5.105801380233078
 20
3.805571250788343
 30
0.0
 11
-5.105801380233079
 21
4.155571250788344
 31
0.0
  0
LINE
  5
8B00
  8
0
 62
     0
 10
-5.285801380233079
 20
3.805571250788344
 30
0.0
 11
-5.285801380233079
 21
4.155571250788343
 31
0.0
  0
LINE
  5
8AFF
  8
0
 62
     0
 10
-5.455562100810006
 20
4.155571250788344
 30
0.0
 11
-5.455562100810006
 21
3.805571250788343
 31
0.0
  0
LINE
  5
8AEC
  8
0
 62
     0
 10
-5.295801380233079
 20
3.795571250788344
 30
0.0
 11
-5.295801380233079
 21
4.165571250788343
 31
0.0
  0
LINE
  5
8AED
  8
0
 62
     0
 10
-5.095801380233079
 20
3.795571250788344
 30
0.0
 11
-5.095801380233079
 21
4.165571250788343
 31
0.0
  0
LINE
  5
8AE6
  8
0
 62
     0
 10
-5.445562100810006
 20
4.165571250788344
 30
0.0
 11
-5.445562100810006
 21
3.795571250788344
 31
0.0
  0
LINE
  5
8B01
  8
0
 62
     0
 10
-5.105801380233078
 20
3.805571250788343
 30
0.0
 11
-5.285801380233079
 21
3.805571250788344
 31
0.0
  0
LINE
  5
8AEE
  8
0
 62
     0
 10
-5.095801380233078
 20
3.795571250788343
 30
0.0
 11
-5.295801380233079
 21
3.795571250788344
 31
0.0
  0
LINE
  5
8BFF
  8
0
 62
     0
 10
-5.583719003322535
 20
3.823119431136919
 30
0.0
 11
-5.583719003322535
 21
3.845227193262772
 31
0.0
  0
LINE
  5
8BFE
  8
0
 62
     0
 10
-5.581719003322536
 20
3.823119431136919
 30
0.0
 11
-5.581719003322536
 21
3.845227193262772
 31
0.0
  0
LINE
  5
8BFD
  8
0
 62
     0
 10
-5.561719003322536
 20
3.823119431136919
 30
0.0
 11
-5.561719003322536
 21
3.845227193262772
 31
0.0
  0
LINE
  5
8BFC
  8
0
 62
     0
 10
-5.559719003322536
 20
3.823119431136919
 30
0.0
 11
-5.559719003322536
 21
3.845227193262772
 31
0.0
  0
LINE
  5
8BFB
  8
0
 62
     0
 10
-5.539719003322537
 20
3.823119431136919
 30
0.0
 11
-5.539719003322537
 21
3.845227193262772
 31
0.0
  0
LINE
  5
8BFA
  8
0
 62
     0
 10
-5.507719003322537
 20
3.823119431136919
 30
0.0
 11
-5.507719003322537
 21
3.845227193262772
 31
0.0
  0
POLYLINE
  5
8BF6
  8
0
 62
     0
 66
     1
 10
0.0
 20
0.0
 30
0.0
  0
VERTEX
  5
8D74
  8
0
 62
     0
 10
-5.561719003322536
 20
3.845227193262772
 30
0.0
  0
VERTEX
  5
8D75
  8
0
 62
     0
 10
-5.581719003322537
 20
3.845227193262772
 30
0.0
  0
SEQEND
  5
8D9F
  8
0
 62
     0
  0
POLYLINE
  5
8BF2
  8
0
 62
     0
 66
     1
 10
0.0
 20
0.0
 30
0.0
  0
VERTEX
  5
8D76
  8
0
 62
     0
 10
-5.581719003322537
 20
3.823938227619639
 30
0.0
  0
VERTEX
  5
8D77
  8
0
 62
     0
 10
-5.561719003322536
 20
3.823938227619639
 30
0.0
  0
SEQEND
  5
8DA0
  8
0
 62
     0
  0
POLYLINE
  5
8BEE
  8
0
 62
     0
 66
     1
 10
0.0
 20
0.0
 30
0.0
  0
VERTEX
  5
8D78
  8
0
 62
     0
 10
-5.539719003322536
 20
3.845227193262772
 30
0.0
  0
VERTEX
  5
8D79
  8
0
 62
     0
 10
-5.559719003322537
 20
3.845227193262772
 30
0.0
  0
SEQEND
  5
8DA1
  8
0
 62
     0
  0
POLYLINE
  5
8BEA
  8
0
 62
     0
 66
     1
 10
0.0
 20
0.0
 30
0.0
  0
VERTEX
  5
8D7A
  8
0
 62
     0
 10
-5.559719003322537
 20
3.823938227619639
 30
0.0
  0
VERTEX
  5
8D7B
  8
0
 62
     0
 10
-5.539719003322536
 20
3.823938227619639
 30
0.0
  0
SEQEND
  5
8DA2
  8
0
 62
     0
  0
POLYLINE
  5
8BE4
  8
0
 62
     0
 66
     1
 10
0.0
 20
0.0
 30
0.0
  0
VERTEX
  5
8D7C
  8
0
 62
     0
 10
-5.507719003322537
 20
3.823938227619638
 30
0.0
  0
VERTEX
  5
8D7D
  8
0
 62
     0
 10
-5.472278445452997
 20
3.823938227619639
 30
0.0
  0
VERTEX
  5
8D7E
  8
0
 62
     0
 10
-5.472278445452997
 20
3.845227193262772
 30
0.0
  0
VERTEX
  5
8D7F
  8
0
 62
     0
 10
-5.507719003322537
 20
3.845227193262772
 30
0.0
  0
SEQEND
  5
8DA3
  8
0
 62
     0
  0
LINE
  5
8BDF
  8
0
 62
     0
 10
-5.605719003322535
 20
3.823119431136919
 30
0.0
 11
-5.605719003322535
 21
3.845227193262772
 31
0.0
  0
LINE
  5
8BDE
  8
0
 62
     0
 10
-5.603719003322535
 20
3.823119431136919
 30
0.0
 11
-5.603719003322535
 21
3.845227193262772
 31
0.0
  0
POLYLINE
  5
8BC1
  8
0
 62
     0
 66
     1
 10
0.0
 20
0.0
 30
0.0
  0
VERTEX
  5
8D80
  8
0
 62
     0
 10
-5.583719003322535
 20
3.845227193262772
 30
0.0
  0
VERTEX
  5
8D81
  8
0
 62
     0
 10
-5.603719003322535
 20
3.845227193262772
 30
0.0
  0
SEQEND
  5
8DA4
  8
0
 62
     0
  0
POLYLINE
  5
8BBD
  8
0
 62
     0
 66
     1
 10
0.0
 20
0.0
 30
0.0
  0
VERTEX
  5
8D82
  8
0
 62
     0
 10
-5.603719003322535
 20
3.823938227619638
 30
0.0
  0
VERTEX
  5
8D83
  8
0
 62
     0
 10
-5.583719003322535
 20
3.823938227619639
 30
0.0
  0
SEQEND
  5
8DA5
  8
0
 62
     0
  0
LINE
  5
8B03
  8
0
 62
     0
 10
-5.285801380233079
 20
4.155571250788343
 30
0.0
 11
-5.105801380233079
 21
4.155571250788344
 31
0.0
  0
LINE
  5
8AEF
  8
0
 62
     0
 10
-5.295801380233079
 20
4.165571250788343
 30
0.0
 11
-5.095801380233078
 21
4.165571250788343
 31
0.0
  0
ENDSEC
  0
EOF
