  0
SECTION
  2
HEADER
  9
$ACADVER
  1
AC1009
  9
$DWGCODEPAGE
  3
ansi_1252
  9
$INSBASE
 10
0.0
 20
0.0
 30
0.0
  9
$EXTMIN
 10
-0.7837801123538668
 20
-0.0002755923150772
 30
-0.0015258207003583
  9
$EXTMAX
 10
0.7837803988099381
 20
0.6970824423999318
 30
0.0000000349246037
  9
$LIMMIN
 10
-4.938
 20
-3.3036
  9
$LIMMAX
 10
2.638
 20
5.8728
  9
$ORTHOMODE
 70
     1
  9
$REGENMODE
 70
     1
  9
$FILLMODE
 70
     1
  9
$QTEXTMODE
 70
     0
  9
$MIRRTEXT
 70
     1
  9
$DRAGMODE
 70
     2
  9
$LTSCALE
 40
1.0
  9
$OSMODE
 70
    37
  9
$ATTMODE
 70
     1
  9
$TEXTSIZE
 40
0.2
  9
$TRACEWID
 40
0.05
  9
$TEXTSTYLE
  7
STANDARD
  9
$CLAYER
  8
0
  9
$CELTYPE
  6
BYLAYER
  9
$CECOLOR
 62
   256
  9
$DIMSCALE
 40
1.0
  9
$DIMASZ
 40
0.18
  9
$DIMEXO
 40
0.0625
  9
$DIMDLI
 40
0.38
  9
$DIMRND
 40
0.0
  9
$DIMDLE
 40
0.0
  9
$DIMEXE
 40
0.18
  9
$DIMTP
 40
0.0
  9
$DIMTM
 40
0.0
  9
$DIMTXT
 40
0.18
  9
$DIMCEN
 40
0.09
  9
$DIMTSZ
 40
0.0
  9
$DIMTOL
 70
     0
  9
$DIMLIM
 70
     0
  9
$DIMTIH
 70
     1
  9
$DIMTOH
 70
     1
  9
$DIMSE1
 70
     0
  9
$DIMSE2
 70
     0
  9
$DIMTAD
 70
     0
  9
$DIMZIN
 70
     0
  9
$DIMBLK
  1

  9
$DIMASO
 70
     1
  9
$DIMSHO
 70
     0
  9
$DIMPOST
  1

  9
$DIMAPOST
  1

  9
$DIMALT
 70
     0
  9
$DIMALTD
 70
     2
  9
$DIMALTF
 40
25.4
  9
$DIMLFAC
 40
1.0
  9
$DIMTOFL
 70
     0
  9
$DIMTVP
 40
0.0
  9
$DIMTIX
 70
     0
  9
$DIMSOXD
 70
     0
  9
$DIMSAH
 70
     0
  9
$DIMBLK1
  1

  9
$DIMBLK2
  1

  9
$DIMSTYLE
  2
STANDARD
  9
$DIMCLRD
 70
     0
  9
$DIMCLRE
 70
     0
  9
$DIMCLRT
 70
     0
  9
$DIMTFAC
 40
1.0
  9
$DIMGAP
 40
0.09
  9
$LUNITS
 70
     2
  9
$LUPREC
 70
     4
  9
$SKETCHINC
 40
0.1
  9
$FILLETRAD
 40
0.0
  9
$AUNITS
 70
     0
  9
$AUPREC
 70
     0
  9
$MENU
  1
ACAD
  9
$ELEVATION
 40
0.0
  9
$PELEVATION
 40
0.0
  9
$THICKNESS
 40
0.0
  9
$LIMCHECK
 70
     0
  9
$CHAMFERA
 40
0.0
  9
$CHAMFERB
 40
0.0
  9
$SKPOLY
 70
     0
  9
$TDCREATE
 40
2450115.44015081
  9
$TDUPDATE
 40
2458028.632592592
  9
$TDINDWG
 40
0.0273818171
  9
$TDUSRTIMER
 40
0.0273818171
  9
$USRTIMER
 70
     1
  9
$ANGBASE
 50
0.0
  9
$ANGDIR
 70
     0
  9
$PDMODE
 70
     0
  9
$PDSIZE
 40
0.0
  9
$PLINEWID
 40
0.0
  9
$COORDS
 70
     1
  9
$SPLFRAME
 70
     0
  9
$SPLINETYPE
 70
     6
  9
$SPLINESEGS
 70
     8
  9
$ATTDIA
 70
     0
  9
$ATTREQ
 70
     1
  9
$HANDLING
 70
     1
  9
$HANDSEED
  5
1DC
  9
$SURFTAB1
 70
     6
  9
$SURFTAB2
 70
     6
  9
$SURFTYPE
 70
     6
  9
$SURFU
 70
     6
  9
$SURFV
 70
     6
  9
$UCSNAME
  2

  9
$UCSORG
 10
0.0
 20
0.0
 30
0.0
  9
$UCSXDIR
 10
1.0
 20
0.0
 30
0.0
  9
$UCSYDIR
 10
0.0
 20
1.0
 30
0.0
  9
$PUCSNAME
  2

  9
$PUCSORG
 10
0.0
 20
0.0
 30
0.0
  9
$PUCSXDIR
 10
1.0
 20
0.0
 30
0.0
  9
$PUCSYDIR
 10
0.0
 20
1.0
 30
0.0
  9
$USERI1
 70
     0
  9
$USERI2
 70
     0
  9
$USERI3
 70
     0
  9
$USERI4
 70
     0
  9
$USERI5
 70
     0
  9
$USERR1
 40
0.0
  9
$USERR2
 40
0.0
  9
$USERR3
 40
0.0
  9
$USERR4
 40
0.0
  9
$USERR5
 40
0.0
  9
$WORLDVIEW
 70
     1
  9
$SHADEDGE
 70
     3
  9
$SHADEDIF
 70
    70
  9
$TILEMODE
 70
     1
  9
$MAXACTVP
 70
    16
  9
$PLIMCHECK
 70
     0
  9
$PEXTMIN
 10
1.000000000000000E+20
 20
1.000000000000000E+20
 30
1.000000000000000E+20
  9
$PEXTMAX
 10
-1.000000000000000E+20
 20
-1.000000000000000E+20
 30
-1.000000000000000E+20
  9
$PLIMMIN
 10
0.0
 20
0.0
  9
$PLIMMAX
 10
12.0
 20
9.0
  9
$UNITMODE
 70
     0
  9
$VISRETAIN
 70
     0
  9
$PLINEGEN
 70
     0
  9
$PSLTSCALE
 70
     1
  0
ENDSEC
  0
SECTION
  2
TABLES
  0
TABLE
  2
VPORT
 70
     1
  0
VPORT
  2
*ACTIVE
 70
     0
 10
0.0
 20
0.0
 11
1.0
 21
1.0
 12
0.0000001432280357
 22
0.3484034250424273
 13
0.0
 23
0.0
 14
1.0
 24
1.0
 15
0.0
 25
0.0
 16
0.0
 26
0.0
 36
1.0
 17
0.0
 27
0.0
 37
0.0
 40
1.123909898609935
 41
1.56198347107438
 42
50.0
 43
0.0
 44
0.0
 50
0.0
 51
0.0
 71
     0
 72
   100
 73
     1
 74
     1
 75
     0
 76
     0
 77
     0
 78
     0
  0
ENDTAB
  0
TABLE
  2
LTYPE
 70
     1
  0
LTYPE
  2
CONTINUOUS
 70
     0
  3
Solid line
 72
    65
 73
     0
 40
0.0
  0
ENDTAB
  0
TABLE
  2
LAYER
 70
     2
  0
LAYER
  2
0
 70
     0
 62
     7
  6
CONTINUOUS
  0
LAYER
  2
_KTI_CONTROL
 70
     5
 62
     7
  6
CONTINUOUS
  0
ENDTAB
  0
TABLE
  2
STYLE
 70
     1
  0
STYLE
  2
STANDARD
 70
     0
 40
0.0
 41
1.0
 50
0.0
 71
     0
 42
0.2
  3
txt
  4

  0
ENDTAB
  0
TABLE
  2
VIEW
 70
     0
  0
ENDTAB
  0
TABLE
  2
UCS
 70
     0
  0
ENDTAB
  0
TABLE
  2
APPID
 70
     2
  0
APPID
  2
ACAD
 70
     0
  0
APPID
  2
_KTI_ARCHT
 70
     0
  0
ENDTAB
  0
TABLE
  2
DIMSTYLE
 70
     1
  0
DIMSTYLE
  2
STANDARD
 70
     0
  3

  4

  5

  6

  7

 40
1.0
 41
0.18
 42
0.0625
 43
0.38
 44
0.18
 45
0.0
 46
0.0
 47
0.0
 48
0.0
140
0.18
141
0.09
142
0.0
143
25.4
144
1.0
145
0.0
146
1.0
147
0.09
 71
     0
 72
     0
 73
     1
 74
     1
 75
     0
 76
     0
 77
     0
 78
     0
170
     0
171
     2
172
     0
173
     0
174
     0
175
     0
176
     0
177
     0
178
     0
  0
ENDTAB
  0
ENDSEC
  0
SECTION
  2
BLOCKS
  0
BLOCK
  8
0
  2
$MODEL_SPACE
 70
     0
 10
0.0
 20
0.0
 30
0.0
  3
$MODEL_SPACE
  1

  0
ENDBLK
  5
7
  8
0
  0
BLOCK
 67
     1
  8
0
  2
$PAPER_SPACE
 70
     0
 10
0.0
 20
0.0
 30
0.0
  3
$PAPER_SPACE
  1

  0
ENDBLK
  5
A
 67
     1
  8
0
  0
ENDSEC
  0
SECTION
  2
ENTITIES
  0
LINE
  5
1E
  8
0
  6
BYBLOCK
 62
     0
 10
0.7150237852122867
 20
0.4452483614062338
 30
0.0
 11
0.675317475230867
 21
0.466445740432773
 31
0.0
  0
LINE
  5
1F
  8
0
  6
BYBLOCK
 62
     0
 10
0.675317475230867
 20
0.466445740432773
 30
0.0
 11
0.6269254099410115
 21
0.4756485049857584
 31
0.0
  0
LINE
  5
20
  8
0
  6
BYBLOCK
 62
     0
 10
0.6269254099410115
 20
0.4756485049857584
 30
0.0
 11
0.1046943720213219
 21
0.4756485049857584
 31
0.0
  0
LINE
  5
21
  8
0
  6
BYBLOCK
 62
     0
 10
0.1046943720213219
 20
0.4756485049857584
 30
0.0
 11
0.0561472039581014
 21
0.466445740432773
 31
0.0
  0
LINE
  5
22
  8
0
  6
BYBLOCK
 62
     0
 10
0.0561472039581014
 20
0.466445740432773
 30
0.0
 11
0.0164408939766816
 21
0.4452483614062338
 31
0.0
  0
LINE
  5
24
  8
0
  6
BYBLOCK
 62
     0
 10
-0.0144245579229378
 20
0.4457653706507835
 30
0.0
 11
-0.0539757651309925
 21
0.4669627496773228
 31
0.0
  0
LINE
  5
25
  8
0
  6
BYBLOCK
 62
     0
 10
-0.0539757651309925
 20
0.4669627496773228
 30
0.0
 11
-0.102522933194213
 21
0.4761655142303081
 31
0.0
  0
LINE
  5
26
  8
0
  6
BYBLOCK
 62
     0
 10
-0.102522933194213
 20
0.4761655142303081
 30
0.0
 11
-0.6247539711139026
 21
0.4761655142303081
 31
0.0
  0
LINE
  5
27
  8
0
  6
BYBLOCK
 62
     0
 10
-0.6247539711139026
 20
0.4761655142303081
 30
0.0
 11
-0.673146036403758
 21
0.4669627496773228
 31
0.0
  0
LINE
  5
28
  8
0
  6
BYBLOCK
 62
     0
 10
-0.673146036403758
 20
0.4669627496773228
 30
0.0
 11
-0.7128523463851779
 21
0.4457653706507835
 31
0.0
  0
LINE
  5
2A
  8
0
  6
BYBLOCK
 62
     0
 10
-0.6691133642962701
 20
0.4760621123813982
 30
0.0
 11
-0.6304927737284047
 21
0.4810254011290756
 31
0.0
  0
LINE
  5
2C
  8
0
  6
BYBLOCK
 62
     0
 10
-0.7077339548641355
 20
0.4810254011290756
 30
0.0
 11
-0.6691133642962701
 21
0.4760621123813982
 31
0.0
  0
LINE
  5
2D
  8
0
  6
BYBLOCK
 62
     0
 10
-0.7128523463851779
 20
0.4850580732365636
 30
0.0
 11
-0.7128523463851779
 21
0.3202355260741073
 31
0.0
  0
LINE
  5
2E
  8
0
  6
BYBLOCK
 62
     0
 10
-0.7128523463851779
 20
0.3202355260741073
 30
0.0
 11
-0.7294483431352244
 21
0.3482574271287031
 31
0.0
  0
LINE
  5
2F
  8
0
  6
BYBLOCK
 62
     0
 10
-0.7294483431352244
 20
0.3482574271287031
 30
0.0
 11
-0.7294483431352244
 21
0.651638451830489
 31
0.0
  0
LINE
  5
30
  8
0
  6
BYBLOCK
 62
     0
 10
-0.7294483431352244
 20
0.651638451830489
 30
0.0
 11
-0.7291381375884946
 21
0.6515350499815791
 31
0.0
  0
LINE
  5
31
  8
0
  6
BYBLOCK
 62
     0
 10
-0.7291381375884946
 20
0.6515350499815791
 30
0.0
 11
-0.7291381375884946
 21
0.651638451830489
 31
0.0
  0
LINE
  5
32
  8
0
  6
BYBLOCK
 62
     0
 10
-0.7291381375884946
 20
0.651638451830489
 30
0.0
 11
-0.7294483431352244
 21
0.651638451830489
 31
0.0
  0
LINE
  5
33
  8
0
  6
BYBLOCK
 62
     0
 10
-0.7294483431352244
 20
0.651638451830489
 30
0.0
 11
-0.7291381375884946
 21
0.6519486573772187
 31
0.0
  0
LINE
  5
34
  8
0
  6
BYBLOCK
 62
     0
 10
-0.7291381375884946
 20
0.6519486573772187
 30
0.0
 11
-0.7291381375884946
 21
0.6521554610750387
 31
0.0
  0
LINE
  5
35
  8
0
  6
BYBLOCK
 62
     0
 10
-0.7291381375884946
 20
0.6521554610750387
 30
0.0
 11
-0.7294483431352244
 21
0.651638451830489
 31
0.0
  0
LINE
  5
36
  8
0
  6
BYBLOCK
 62
     0
 10
-0.7294483431352244
 20
0.6481227889675508
 30
0.0
 11
-0.7365830707100108
 21
0.6481227889675508
 31
0.0
  0
LINE
  5
3D
  8
0
  6
BYBLOCK
 62
     0
 10
-0.7365830707100108
 20
0.6730426345548481
 30
0.0
 11
-0.7810975666657431
 21
0.6730426345548481
 31
0.0
  0
LINE
  5
3E
  8
0
  6
BYBLOCK
 62
     0
 10
-0.7810975666657431
 20
0.6730426345548481
 30
0.0
 11
-0.7810975666657431
 21
0.0
 31
0.0
  0
LINE
  5
3F
  8
0
  6
BYBLOCK
 62
     0
 10
-0.7810975666657431
 20
0.0
 30
0.0
 11
-0.7365830707100108
 21
0.0
 31
0.0
  0
LINE
  5
40
  8
0
  6
BYBLOCK
 62
     0
 10
-0.7365830707100108
 20
0.0
 30
0.0
 11
-0.7365830707100108
 21
0.6730426345548481
 31
0.0
  0
LINE
  5
4B
  8
0
  6
BYBLOCK
 62
     0
 10
-0.6304927737284047
 20
0.6898971359271695
 30
0.0
 11
-0.6691133642962701
 21
0.694860424674847
 31
0.0
  0
LINE
  5
4C
  8
0
  6
BYBLOCK
 62
     0
 10
-0.6691133642962701
 20
0.694860424674847
 30
0.0
 11
-0.7077339548641355
 21
0.6898971359271695
 31
0.0
  0
LINE
  5
4F
  8
0
  6
BYBLOCK
 62
     0
 10
-0.7294483431352244
 20
0.6479159852697308
 30
0.0
 11
-0.7365830707100108
 21
0.6479159852697308
 31
0.0
  0
LINE
  5
55
  8
0
  6
BYBLOCK
 62
     0
 10
0.0001551027733649
 20
0.6515350499815791
 30
0.0
 11
0.0003102055467298
 21
0.651638451830489
 31
0.0
  0
LINE
  5
56
  8
0
  6
BYBLOCK
 62
     0
 10
0.0003102055467298
 20
0.651638451830489
 30
0.0
 11
0.0004653083200947
 21
0.651638451830489
 31
0.0
  0
LINE
  5
61
  8
0
  6
BYBLOCK
 62
     0
 10
0.6303376709550397
 20
0.6898971359271695
 30
0.0
 11
0.668958261522905
 21
0.694860424674847
 31
0.0
  0
LINE
  5
62
  8
0
  6
BYBLOCK
 62
     0
 10
0.668958261522905
 20
0.694860424674847
 30
0.0
 11
0.7075788520907706
 21
0.6898971359271695
 31
0.0
  0
LINE
  5
64
  8
0
  6
BYBLOCK
 62
     0
 10
0.736583070710011
 20
0.6730426345548481
 30
0.0
 11
0.7810975666657431
 21
0.6730426345548481
 31
0.0
  0
LINE
  5
65
  8
0
  6
BYBLOCK
 62
     0
 10
0.7810975666657431
 20
0.6730426345548481
 30
0.0
 11
0.7810975666657431
 21
0.0
 31
0.0
  0
LINE
  5
66
  8
0
  6
BYBLOCK
 62
     0
 10
0.736583070710011
 20
0.0
 30
0.0
 11
0.736583070710011
 21
0.6730426345548481
 31
0.0
  0
LINE
  5
6D
  8
0
  6
BYBLOCK
 62
     0
 10
0.736583070710011
 20
0.647605779723001
 30
0.0
 11
0.736583070710011
 21
0.647398976025181
 31
0.0
  0
LINE
  5
70
  8
0
  6
BYBLOCK
 62
     0
 10
0.736583070710011
 20
0.6479159852697308
 30
0.0
 11
0.736583070710011
 21
0.6481227889675508
 31
0.0
  0
LINE
  5
71
  8
0
  6
BYBLOCK
 62
     0
 10
0.736583070710011
 20
0.6481227889675508
 30
0.0
 11
0.7314646791889685
 21
0.6481227889675508
 31
0.0
  0
LINE
  5
77
  8
0
  6
BYBLOCK
 62
     0
 10
0.736583070710011
 20
0.639747239205845
 30
0.0
 11
0.736583070710011
 21
0.6396438373569351
 31
0.0
  0
LINE
  5
7D
  8
0
  6
BYBLOCK
 62
     0
 10
0.7314646791889685
 20
0.6511214425859392
 30
0.0
 11
0.7289830348151298
 21
0.6552575165423371
 31
0.0
  0
LINE
  5
7E
  8
0
  6
BYBLOCK
 62
     0
 10
0.7289830348151298
 20
0.6537064888086879
 30
0.0
 11
0.7314646791889685
 21
0.6511214425859392
 31
0.0
  0
LINE
  5
7F
  8
0
  6
BYBLOCK
 62
     0
 10
0.7314646791889685
 20
0.6511214425859392
 30
0.0
 11
0.7289830348151298
 21
0.6511214425859392
 31
0.0
  0
LINE
  5
80
  8
0
  6
BYBLOCK
 62
     0
 10
0.7289830348151298
 20
0.6511214425859392
 30
0.0
 11
0.7289830348151298
 21
0.6510180407370293
 31
0.0
  0
LINE
  5
81
  8
0
  6
BYBLOCK
 62
     0
 10
0.7289830348151298
 20
0.6510180407370293
 30
0.0
 11
0.7314646791889685
 21
0.6511214425859392
 31
0.0
  0
LINE
  5
82
  8
0
  6
BYBLOCK
 62
     0
 10
0.7314646791889685
 20
0.6511214425859392
 30
0.0
 11
0.7314646791889685
 21
0.3477404178841533
 31
0.0
  0
LINE
  5
AF
  8
0
  6
BYBLOCK
 62
     0
 10
0.668958261522905
 20
0.4760621123813982
 30
0.0
 11
0.7075788520907706
 21
0.4810254011290756
 31
0.0
  0
LINE
  5
B0
  8
0
  6
BYBLOCK
 62
     0
 10
0.7075788520907706
 20
0.4810254011290756
 30
0.0
 11
0.7224687183338031
 21
0.4929166137537196
 31
0.0
  0
LINE
  5
B1
  8
0
  6
BYBLOCK
 62
     0
 10
0.7224687183338031
 20
0.4929166137537196
 30
0.0
 11
0.7289830348151298
 21
0.5073928726011122
 31
0.0
  0
LINE
  5
B2
  8
0
  6
BYBLOCK
 62
     0
 10
0.7289830348151298
 20
0.5073928726011122
 30
0.0
 11
0.7289830348151298
 21
0.6636330663040428
 31
0.0
  0
LINE
  5
B3
  8
0
  6
BYBLOCK
 62
     0
 10
0.7289830348151298
 20
0.6636330663040428
 30
0.0
 11
0.7224687183338031
 21
0.6781093251514355
 31
0.0
  0
LINE
  5
B4
  8
0
  6
BYBLOCK
 62
     0
 10
0.7224687183338031
 20
0.6781093251514355
 30
0.0
 11
0.7075788520907706
 21
0.6898971359271695
 31
0.0
  0
LINE
  5
BB
  8
0
  6
BYBLOCK
 62
     0
 10
0.6303376709550397
 20
0.4810254011290756
 30
0.0
 11
0.668958261522905
 21
0.4760621123813982
 31
0.0
  0
LINE
  5
CB
  8
0
  6
BYBLOCK
 62
     0
 10
0.6303376709550397
 20
0.6898971359271695
 30
0.0
 11
0.6154478047120072
 21
0.6781093251514355
 31
0.0
  0
LINE
  5
CC
  8
0
  6
BYBLOCK
 62
     0
 10
0.6154478047120072
 20
0.6781093251514355
 30
0.0
 11
0.6089334882306806
 21
0.6636330663040428
 31
0.0
  0
LINE
  5
CD
  8
0
  6
BYBLOCK
 62
     0
 10
0.6089334882306806
 20
0.6636330663040428
 30
0.0
 11
0.6089334882306806
 21
0.5073928726011122
 31
0.0
  0
LINE
  5
CE
  8
0
  6
BYBLOCK
 62
     0
 10
0.6089334882306806
 20
0.5073928726011122
 30
0.0
 11
0.6154478047120072
 21
0.4929166137537196
 31
0.0
  0
LINE
  5
CF
  8
0
  6
BYBLOCK
 62
     0
 10
0.6154478047120072
 20
0.4929166137537196
 30
0.0
 11
0.6303376709550397
 21
0.4810254011290756
 31
0.0
  0
LINE
  5
D0
  8
0
  6
BYBLOCK
 62
     0
 10
0.7150237852122867
 20
0.4869193065169426
 30
0.0
 11
0.7150237852122867
 21
0.3197185168295575
 31
0.0
  0
LINE
  5
D1
  8
0
  6
BYBLOCK
 62
     0
 10
0.7150237852122867
 20
0.3197185168295575
 30
0.0
 11
0.7314646791889685
 21
0.3477404178841533
 31
0.0
  0
LINE
  5
D6
  8
0
  6
BYBLOCK
 62
     0
 10
0.6294070543148502
 20
0.305138856133255
 30
0.0
 11
0.6295621570882153
 21
0.305242257982165
 31
0.0
  0
LINE
  5
D7
  8
0
  6
BYBLOCK
 62
     0
 10
0.6295621570882153
 20
0.305242257982165
 30
0.0
 11
0.736583070710011
 21
0.305242257982165
 31
0.0
  0
LINE
  5
D8
  8
0
  6
BYBLOCK
 62
     0
 10
0.736583070710011
 20
0.305242257982165
 30
0.0
 11
0.736583070710011
 21
0.3048286505865251
 31
0.0
  0
LINE
  5
D9
  8
0
  6
BYBLOCK
 62
     0
 10
0.736583070710011
 20
0.3048286505865251
 30
0.0
 11
-0.7365830707100108
 21
0.3048286505865251
 31
0.0
  0
LINE
  5
DA
  8
0
  6
BYBLOCK
 62
     0
 10
-0.7365830707100108
 20
0.3048286505865251
 30
0.0
 11
-0.7365830707100108
 21
0.305242257982165
 31
0.0
  0
LINE
  5
E4
  8
0
  6
BYBLOCK
 62
     0
 10
-0.0972494388998056
 20
0.305242257982165
 30
0.0
 11
-0.0539757651309925
 21
0.3093783319385628
 31
0.0
  0
LINE
  5
E5
  8
0
  6
BYBLOCK
 62
     0
 10
-0.0539757651309925
 20
0.3093783319385628
 30
0.0
 11
-0.0144245579229378
 21
0.3202355260741073
 31
0.0
  0
LINE
  5
E7
  8
0
  6
BYBLOCK
 62
     0
 10
-0.0144245579229378
 20
0.6796603528850848
 30
0.0
 11
0.0010857194135544
 21
0.6531894795641382
 31
0.0
  0
LINE
  5
E8
  8
0
  6
BYBLOCK
 62
     0
 10
0.0010857194135544
 20
0.6531894795641382
 30
0.0
 11
0.0164408939766816
 21
0.679143343640535
 31
0.0
  0
LINE
  5
E9
  8
0
  6
BYBLOCK
 62
     0
 10
0.0164408939766816
 20
0.679143343640535
 30
0.0
 11
0.0561472039581014
 21
0.6900005377760795
 31
0.0
  0
LINE
  5
EA
  8
0
  6
BYBLOCK
 62
     0
 10
0.0561472039581014
 20
0.6900005377760795
 30
0.0
 11
0.1046943720213219
 21
0.6946536209770271
 31
0.0
  0
LINE
  5
EB
  8
0
  6
BYBLOCK
 62
     0
 10
0.1046943720213219
 20
0.6946536209770271
 30
0.0
 11
0.6269254099410115
 21
0.6946536209770271
 31
0.0
  0
LINE
  5
EC
  8
0
  6
BYBLOCK
 62
     0
 10
0.6269254099410115
 20
0.6946536209770271
 30
0.0
 11
0.6500357231723848
 21
0.6923787803010082
 31
0.0
  0
LINE
  5
EE
  8
0
  6
BYBLOCK
 62
     0
 10
0.7150237852122867
 20
0.3197185168295575
 30
0.0
 11
0.675317475230867
 21
0.3088613226940131
 31
0.0
  0
LINE
  5
EF
  8
0
  6
BYBLOCK
 62
     0
 10
0.675317475230867
 20
0.3088613226940131
 30
0.0
 11
0.637627501303191
 21
0.305242257982165
 31
0.0
  0
LINE
  5
F7
  8
0
  6
BYBLOCK
 62
     0
 10
-0.7367381734833758
 20
0.2843550845023555
 30
0.0
 11
-0.7367381734833758
 21
0.2240718065878562
 31
0.0
  0
LINE
  5
F9
  8
0
  6
BYBLOCK
 62
     0
 10
0.7368932762567407
 20
0.2240718065878562
 30
0.0
 11
0.7368932762567407
 21
0.2843550845023555
 31
0.0
  0
LINE
  5
102
  8
0
  6
BYBLOCK
 62
     0
 10
0.736583070710011
 20
0.2034948386547766
 30
0.0
 11
-0.7365830707100108
 21
0.2034948386547766
 31
0.0
  0
LINE
  5
103
  8
0
  6
BYBLOCK
 62
     0
 10
-0.7365830707100108
 20
0.2034948386547766
 30
0.0
 11
-0.7365830707100108
 21
0.2031846331080468
 31
0.0
  0
LINE
  5
105
  8
0
  6
BYBLOCK
 62
     0
 10
0.7810975666657431
 20
0.1943954759507012
 30
0.0
 11
0.7812526694391083
 21
0.1943954759507012
 31
0.0
  0
LINE
  5
106
  8
0
  6
BYBLOCK
 62
     0
 10
0.7812526694391083
 20
0.1943954759507012
 30
0.0
 11
0.7810975666657431
 21
0.3475336141863334
 31
0.0
  0
LINE
  5
133
  8
0
  6
BYBLOCK
 62
     0
 10
0.0164408939766816
 20
0.3197185168295575
 30
0.0
 11
0.0007755138668247
 21
0.3460859883015941
 31
0.0
  0
LINE
  5
134
  8
0
  6
BYBLOCK
 62
     0
 10
0.0007755138668247
 20
0.3460859883015941
 30
0.0
 11
-0.0144245579229378
 21
0.3202355260741073
 31
0.0
  0
LINE
  5
135
  8
0
  6
BYBLOCK
 62
     0
 10
0.0164408939766816
 20
0.3197185168295575
 30
0.0
 11
0.0561472039581014
 21
0.3088613226940131
 31
0.0
  0
LINE
  5
136
  8
0
  6
BYBLOCK
 62
     0
 10
0.0561472039581014
 20
0.3088613226940131
 30
0.0
 11
0.0938371778857774
 21
0.305242257982165
 31
0.0
  0
LINE
  5
137
  8
0
  6
BYBLOCK
 62
     0
 10
0.0021714388271089
 20
0.6510180407370293
 30
0.0
 11
0.0021714388271089
 21
0.6511214425859392
 31
0.0
  0
LINE
  5
138
  8
0
  6
BYBLOCK
 62
     0
 10
0.0004653083200947
 20
0.6515350499815791
 30
0.0
 11
0.0004653083200947
 21
0.651638451830489
 31
0.0
  0
LINE
  5
139
  8
0
  6
BYBLOCK
 62
     0
 10
-0.0144245579229378
 20
0.6796603528850848
 30
0.0
 11
-0.0539757651309925
 21
0.6905175470206292
 31
0.0
  0
LINE
  5
13A
  8
0
  6
BYBLOCK
 62
     0
 10
-0.0539757651309925
 20
0.6905175470206292
 30
0.0
 11
-0.102522933194213
 21
0.6951706302215769
 31
0.0
  0
LINE
  5
13B
  8
0
  6
BYBLOCK
 62
     0
 10
-0.102522933194213
 20
0.6951706302215769
 30
0.0
 11
-0.6247539711139026
 21
0.6951706302215769
 31
0.0
  0
LINE
  5
13C
  8
0
  6
BYBLOCK
 62
     0
 10
-0.6247539711139026
 20
0.6951706302215769
 30
0.0
 11
-0.6515867509060339
 21
0.6925855839988282
 31
0.0
  0
LINE
  5
147
  8
0
  6
BYBLOCK
 62
     0
 10
-0.6304927737284047
 20
0.6898971359271695
 30
0.0
 11
-0.6156029074853724
 21
0.6781093251514355
 31
0.0
  0
LINE
  5
148
  8
0
  6
BYBLOCK
 62
     0
 10
-0.6156029074853724
 20
0.6781093251514355
 30
0.0
 11
-0.6090885910040456
 21
0.6636330663040428
 31
0.0
  0
LINE
  5
149
  8
0
  6
BYBLOCK
 62
     0
 10
-0.6090885910040456
 20
0.6636330663040428
 30
0.0
 11
-0.6090885910040456
 21
0.5073928726011122
 31
0.0
  0
LINE
  5
14A
  8
0
  6
BYBLOCK
 62
     0
 10
-0.6090885910040456
 20
0.5073928726011122
 30
0.0
 11
-0.6156029074853724
 21
0.4929166137537196
 31
0.0
  0
LINE
  5
14B
  8
0
  6
BYBLOCK
 62
     0
 10
-0.6156029074853724
 20
0.4929166137537196
 30
0.0
 11
-0.6304927737284047
 21
0.4810254011290756
 31
0.0
  0
LINE
  5
157
  8
0
  6
BYBLOCK
 62
     0
 10
-0.7077339548641355
 20
0.4810254011290756
 30
0.0
 11
-0.7226238211071679
 21
0.4929166137537196
 31
0.0
  0
LINE
  5
158
  8
0
  6
BYBLOCK
 62
     0
 10
-0.7226238211071679
 20
0.4929166137537196
 30
0.0
 11
-0.7291381375884946
 21
0.5073928726011122
 31
0.0
  0
LINE
  5
159
  8
0
  6
BYBLOCK
 62
     0
 10
-0.7291381375884946
 20
0.5073928726011122
 30
0.0
 11
-0.7291381375884946
 21
0.6636330663040428
 31
0.0
  0
LINE
  5
15A
  8
0
  6
BYBLOCK
 62
     0
 10
-0.7291381375884946
 20
0.6636330663040428
 30
0.0
 11
-0.7226238211071679
 21
0.6781093251514355
 31
0.0
  0
LINE
  5
15B
  8
0
  6
BYBLOCK
 62
     0
 10
-0.7226238211071679
 20
0.6781093251514355
 30
0.0
 11
-0.7077339548641355
 21
0.6898971359271695
 31
0.0
  0
LINE
  5
15D
  8
0
  6
BYBLOCK
 62
     0
 10
-0.6301825681816748
 20
0.305242257982165
 30
0.0
 11
-0.673146036403758
 21
0.3093783319385628
 31
0.0
  0
LINE
  5
15F
  8
0
  6
BYBLOCK
 62
     0
 10
-0.7810975666657431
 20
0.3475336141863334
 30
0.0
 11
-0.7812526694391081
 21
0.1943954759507012
 31
0.0
  0
LINE
  5
160
  8
0
  6
BYBLOCK
 62
     0
 10
-0.7812526694391081
 20
0.1943954759507012
 30
0.0
 11
-0.7810975666657431
 21
0.1943954759507012
 31
0.0
  0
LINE
  5
167
  8
0
  6
BYBLOCK
 62
     0
 10
0.0007755138668247
 20
0.4199149084232967
 30
0.0
 11
-0.0144245579229378
 21
0.4457653706507834
 31
0.0
  0
LINE
  5
168
  8
0
  6
BYBLOCK
 62
     0
 10
0.0164408939766816
 20
0.4462823798953333
 30
0.0
 11
0.0007755138668247
 21
0.4199149084232967
 31
0.0
  0
LINE
  5
169
  8
0
  6
BYBLOCK
 62
     0
 10
-0.7128523463851779
 20
0.3202355260741073
 30
0.0
 11
-0.673146036403758
 21
0.3093783319385628
 31
0.0
  0
LINE
  5
16A
  8
0
  6
BYBLOCK
 62
     0
 10
0.736583070710011
 20
0.0
 30
0.0
 11
0.7810975666657431
 21
0.0
 31
0.0
  0
POLYLINE
  5
185
  8
_KTI_CONTROL
 10
0.0
 20
0.0
 30
0.0
 66
     1
 70
     8
1001
_KTI_ARCHT
1070
 12000
1000
ENVIRONMENT
1070
 10003
1000
12ecou14
1070
 20000
1000
standard
1070
 20001
1000
c:\program files\ketiv\archt
1070
 20003
1000
d:\archt
1070
 20002
1000
c:\program files\ketiv\archt\tmp
1070
 20004
1002
{
1000
c:\program files\ketiv\archt\blks
1000
c:\program files\ketiv\archt\blks3d
1000
e:\archt\blks
1000
e:\archt\blks3d
1000
d:\archt\blks
1000
d:\archt\blks3d
1002
}
1070
 20005
1002
{
1000
c:\program files\ketiv\archt\slds
1002
}
1070
 20006
1002
{
1000
c:\program files\ketiv\archt\dclswin
1002
}
1070
 20007
1002
{
1000
c:\program files\ketiv\archt\docs
1000
e:\archt\docs
1000
d:\archt\docs
1002
}
1070
 20008
1002
{
1000
c:\program files\ketiv\archt\help
1002
}
  0
VERTEX
  5
186
  8
_KTI_CONTROL
 10
0.0
 20
0.0
 30
0.0
 70
    32
  0
VERTEX
  5
187
  8
_KTI_CONTROL
 10
0.0
 20
0.0
 30
0.0
 70
    32
  0
SEQEND
  5
188
  8
_KTI_CONTROL
  0
POLYLINE
  5
189
  8
_KTI_CONTROL
 10
0.0
 20
0.0
 30
0.0
 66
     1
 70
     8
1001
_KTI_ARCHT
1070
 12000
1000
ARCHTVARS
1070
 10003
1000
12ecou14
1070
 12030
1000
in
1070
 12020
1070
     1
1070
 12021
1070
     0
1070
 12070
1070
     0
1070
 12071
1070
     1
1070
 12907
1070
     0
1070
 12913
1070
     1
1070
 12914
1070
     1
1070
 12072
1070
     2
1070
 12073
1070
    48
1070
 12074
1070
     0
1070
 12080
1070
     1
1070
 12092
1070
     1
1070
 12096
1070
     0
1070
 12095
1070
     0
1070
 12081
1070
     1
1070
 12082
1070
     1
1070
 12083
1070
     1
1070
 12084
1070
     1
1070
 12085
1070
     0
1070
 12086
1070
     1
1070
 12087
1070
     0
1070
 12088
1070
     0
1070
 12097
1070
     1
1070
 12089
1070
     4
1070
 12090
1070
     6
1070
 12091
1070
     1
1070
 12045
1000
standard
1070
 12046
1000

1070
 12047
1000
standard
1070
 12048
1000

1070
 12049
1000

1070
 12093
1070
     1
1070
 12094
1070
     1
1070
 12908
1070
     0
1070
 12909
1070
     0
1070
 12911
1070
     0
1070
 12910
1070
     0
1070
 12912
1070
     0
1070
 12098
1070
   800
1070
 12060
1002
{
1000

1000

1000

1000

1002
}
1070
 12904
1002
{
1070
     0
1070
     0
1070
     0
1070
     0
1070
     0
1002
}
1070
 12905
1002
{
1040
0.0
1040
0.0
1040
0.0
1040
0.0
1040
0.0
1002
}
1070
 12906
1002
{
1000

1000

1000

1000

1000

1002
}
1070
 12040
1002
{
1002
}
  0
VERTEX
  5
18A
  8
_KTI_CONTROL
 10
0.0
 20
0.0
 30
0.0
 70
    32
  0
VERTEX
  5
18B
  8
_KTI_CONTROL
 10
0.0
 20
0.0
 30
0.0
 70
    32
  0
SEQEND
  5
18C
  8
_KTI_CONTROL
  0
ENDSEC
  0
EOF
