  0
SECTION
  2
HEADER
  9
$ACADVER
  1
AC1009
  9
$DWGCODEPAGE
  3
ansi_1252
  9
$INSBASE
 10
0.0
 20
0.0
 30
0.0
  9
$EXTMIN
 10
-0.8497601769625476
 20
-0.7838370934826173
 30
-0.0015258207003583
  9
$EXTMAX
 10
0.0622880014265661
 20
0.783837379959408
 30
0.0000000349246037
  9
$LIMMIN
 10
-4.938
 20
-3.3036
  9
$LIMMAX
 10
2.638
 20
5.8728
  9
$ORTHOMODE
 70
     1
  9
$REGENMODE
 70
     1
  9
$FILLMODE
 70
     1
  9
$QTEXTMODE
 70
     0
  9
$MIRRTEXT
 70
     1
  9
$DRAGMODE
 70
     2
  9
$LTSCALE
 40
1.0
  9
$OSMODE
 70
    37
  9
$ATTMODE
 70
     1
  9
$TEXTSIZE
 40
0.2
  9
$TRACEWID
 40
0.05
  9
$TEXTSTYLE
  7
STANDARD
  9
$CLAYER
  8
0
  9
$CELTYPE
  6
BYLAYER
  9
$CECOLOR
 62
   256
  9
$DIMSCALE
 40
1.0
  9
$DIMASZ
 40
0.18
  9
$DIMEXO
 40
0.0625
  9
$DIMDLI
 40
0.38
  9
$DIMRND
 40
0.0
  9
$DIMDLE
 40
0.0
  9
$DIMEXE
 40
0.18
  9
$DIMTP
 40
0.0
  9
$DIMTM
 40
0.0
  9
$DIMTXT
 40
0.18
  9
$DIMCEN
 40
0.09
  9
$DIMTSZ
 40
0.0
  9
$DIMTOL
 70
     0
  9
$DIMLIM
 70
     0
  9
$DIMTIH
 70
     1
  9
$DIMTOH
 70
     1
  9
$DIMSE1
 70
     0
  9
$DIMSE2
 70
     0
  9
$DIMTAD
 70
     0
  9
$DIMZIN
 70
     0
  9
$DIMBLK
  1

  9
$DIMASO
 70
     1
  9
$DIMSHO
 70
     0
  9
$DIMPOST
  1

  9
$DIMAPOST
  1

  9
$DIMALT
 70
     0
  9
$DIMALTD
 70
     2
  9
$DIMALTF
 40
25.4
  9
$DIMLFAC
 40
1.0
  9
$DIMTOFL
 70
     0
  9
$DIMTVP
 40
0.0
  9
$DIMTIX
 70
     0
  9
$DIMSOXD
 70
     0
  9
$DIMSAH
 70
     0
  9
$DIMBLK1
  1

  9
$DIMBLK2
  1

  9
$DIMSTYLE
  2
STANDARD
  9
$DIMCLRD
 70
     0
  9
$DIMCLRE
 70
     0
  9
$DIMCLRT
 70
     0
  9
$DIMTFAC
 40
1.0
  9
$DIMGAP
 40
0.09
  9
$LUNITS
 70
     2
  9
$LUPREC
 70
     4
  9
$SKETCHINC
 40
0.1
  9
$FILLETRAD
 40
0.0
  9
$AUNITS
 70
     0
  9
$AUPREC
 70
     0
  9
$MENU
  1
ACAD
  9
$ELEVATION
 40
0.0
  9
$PELEVATION
 40
0.0
  9
$THICKNESS
 40
0.0
  9
$LIMCHECK
 70
     0
  9
$CHAMFERA
 40
0.0
  9
$CHAMFERB
 40
0.0
  9
$SKPOLY
 70
     0
  9
$TDCREATE
 40
2450115.44015081
  9
$TDUPDATE
 40
2458028.632615741
  9
$TDINDWG
 40
0.0265837153
  9
$TDUSRTIMER
 40
0.0265837153
  9
$USRTIMER
 70
     1
  9
$ANGBASE
 50
0.0
  9
$ANGDIR
 70
     0
  9
$PDMODE
 70
     0
  9
$PDSIZE
 40
0.0
  9
$PLINEWID
 40
0.0
  9
$COORDS
 70
     1
  9
$SPLFRAME
 70
     0
  9
$SPLINETYPE
 70
     6
  9
$SPLINESEGS
 70
     8
  9
$ATTDIA
 70
     0
  9
$ATTREQ
 70
     1
  9
$HANDLING
 70
     1
  9
$HANDSEED
  5
1C4
  9
$SURFTAB1
 70
     6
  9
$SURFTAB2
 70
     6
  9
$SURFTYPE
 70
     6
  9
$SURFU
 70
     6
  9
$SURFV
 70
     6
  9
$UCSNAME
  2

  9
$UCSORG
 10
0.0
 20
0.0
 30
0.0
  9
$UCSXDIR
 10
1.0
 20
0.0
 30
0.0
  9
$UCSYDIR
 10
0.0
 20
1.0
 30
0.0
  9
$PUCSNAME
  2

  9
$PUCSORG
 10
0.0
 20
0.0
 30
0.0
  9
$PUCSXDIR
 10
1.0
 20
0.0
 30
0.0
  9
$PUCSYDIR
 10
0.0
 20
1.0
 30
0.0
  9
$USERI1
 70
     0
  9
$USERI2
 70
     0
  9
$USERI3
 70
     0
  9
$USERI4
 70
     0
  9
$USERI5
 70
     0
  9
$USERR1
 40
0.0
  9
$USERR2
 40
0.0
  9
$USERR3
 40
0.0
  9
$USERR4
 40
0.0
  9
$USERR5
 40
0.0
  9
$WORLDVIEW
 70
     1
  9
$SHADEDGE
 70
     3
  9
$SHADEDIF
 70
    70
  9
$TILEMODE
 70
     1
  9
$MAXACTVP
 70
    16
  9
$PLIMCHECK
 70
     0
  9
$PEXTMIN
 10
1.000000000000000E+20
 20
1.000000000000000E+20
 30
1.000000000000000E+20
  9
$PEXTMAX
 10
-1.000000000000000E+20
 20
-1.000000000000000E+20
 30
-1.000000000000000E+20
  9
$PLIMMIN
 10
0.0
 20
0.0
  9
$PLIMMAX
 10
12.0
 20
9.0
  9
$UNITMODE
 70
     0
  9
$VISRETAIN
 70
     0
  9
$PLINEGEN
 70
     0
  9
$PSLTSCALE
 70
     1
  0
ENDSEC
  0
SECTION
  2
TABLES
  0
TABLE
  2
VPORT
 70
     1
  0
VPORT
  2
*ACTIVE
 70
     0
 10
0.0
 20
0.0
 11
1.0
 21
1.0
 12
-0.3937360877679906
 22
0.0000001432383954
 13
0.0
 23
0.0
 14
1.0
 24
1.0
 15
0.0
 25
0.0
 16
0.0
 26
0.0
 36
1.0
 17
0.0
 27
0.0
 37
0.0
 40
1.763409316059644
 41
1.56198347107438
 42
50.0
 43
0.0
 44
0.0
 50
0.0
 51
0.0
 71
     0
 72
   100
 73
     1
 74
     1
 75
     0
 76
     0
 77
     0
 78
     0
  0
ENDTAB
  0
TABLE
  2
LTYPE
 70
     1
  0
LTYPE
  2
CONTINUOUS
 70
     0
  3
Solid line
 72
    65
 73
     0
 40
0.0
  0
ENDTAB
  0
TABLE
  2
LAYER
 70
     2
  0
LAYER
  2
0
 70
     0
 62
     7
  6
CONTINUOUS
  0
LAYER
  2
_KTI_CONTROL
 70
     5
 62
     7
  6
CONTINUOUS
  0
ENDTAB
  0
TABLE
  2
STYLE
 70
     1
  0
STYLE
  2
STANDARD
 70
     0
 40
0.0
 41
1.0
 50
0.0
 71
     0
 42
0.2
  3
txt
  4

  0
ENDTAB
  0
TABLE
  2
VIEW
 70
     0
  0
ENDTAB
  0
TABLE
  2
UCS
 70
     0
  0
ENDTAB
  0
TABLE
  2
APPID
 70
     3
  0
APPID
  2
ACAD
 70
     0
  0
APPID
  2
_KTI_ARCHT
 70
     0
  0
APPID
  2
ADE
 70
     0
  0
ENDTAB
  0
TABLE
  2
DIMSTYLE
 70
     1
  0
DIMSTYLE
  2
STANDARD
 70
     0
  3

  4

  5

  6

  7

 40
1.0
 41
0.18
 42
0.0625
 43
0.38
 44
0.18
 45
0.0
 46
0.0
 47
0.0
 48
0.0
140
0.18
141
0.09
142
0.0
143
25.4
144
1.0
145
0.0
146
1.0
147
0.09
 71
     0
 72
     0
 73
     1
 74
     1
 75
     0
 76
     0
 77
     0
 78
     0
170
     0
171
     2
172
     0
173
     0
174
     0
175
     0
176
     0
177
     0
178
     0
  0
ENDTAB
  0
ENDSEC
  0
SECTION
  2
BLOCKS
  0
BLOCK
  8
0
  2
$MODEL_SPACE
 70
     0
 10
0.0
 20
0.0
 30
0.0
  3
$MODEL_SPACE
  1

  0
ENDBLK
  5
7
  8
0
  0
BLOCK
 67
     1
  8
0
  2
$PAPER_SPACE
 70
     0
 10
0.0
 20
0.0
 30
0.0
  3
$PAPER_SPACE
  1

  0
ENDBLK
  5
A
 67
     1
  8
0
  0
ENDSEC
  0
SECTION
  2
ENTITIES
  0
LINE
  5
1D
  8
0
  6
BYBLOCK
 62
     0
 10
0.0293791798380788
 20
-0.6202762179347738
 30
0.0
 11
0.0293791798380788
 21
-0.1025510093220152
 31
0.0
  0
LINE
  5
1E
  8
0
  6
BYBLOCK
 62
     0
 10
0.0293791798380788
 20
-0.1025510093220152
 30
0.0
 11
0.024077673701884
 21
-0.054009093762483
 31
0.0
  0
LINE
  5
1F
  8
0
  6
BYBLOCK
 62
     0
 10
0.024077673701884
 20
-0.054009093762483
 30
0.0
 11
0.0112657005394136
 21
-0.0144134698077793
 31
0.0
  0
LINE
  5
20
  8
0
  6
BYBLOCK
 62
     0
 10
0.0311463485501437
 20
-0.0144134698077793
 30
0.0
 11
-0.6412613463905444
 21
-0.0144134698077793
 31
0.0
  0
LINE
  5
21
  8
0
  6
BYBLOCK
 62
     0
 10
-0.6412613463905444
 20
0.0165672066756083
 30
0.0
 11
0.0311463485501437
 21
0.0165672066756083
 31
0.0
  0
LINE
  5
22
  8
0
  6
BYBLOCK
 62
     0
 10
0.0112657005394136
 20
0.0165672066756083
 30
0.0
 11
0.0238567776128759
 21
0.056162830630312
 31
0.0
  0
LINE
  5
23
  8
0
  6
BYBLOCK
 62
     0
 10
0.0238567776128759
 20
0.056162830630312
 30
0.0
 11
0.0293791798380788
 21
0.1045390741230883
 31
0.0
  0
LINE
  5
24
  8
0
  6
BYBLOCK
 62
     0
 10
0.0293791798380788
 20
0.1045390741230883
 30
0.0
 11
0.0293791798380788
 21
0.6199448738012617
 31
0.0
  0
LINE
  5
25
  8
0
  6
BYBLOCK
 62
     0
 10
0.012149284895446
 20
0.6375061128774067
 30
0.0
 11
0.0324717250841923
 21
0.6567240726211122
 31
0.0
  0
LINE
  5
26
  8
0
  6
BYBLOCK
 62
     0
 10
0.0324717250841923
 20
0.6567240726211122
 30
0.0
 11
0.0326926211732004
 21
0.680746522300744
 31
0.0
  0
LINE
  5
27
  8
0
  6
BYBLOCK
 62
     0
 10
0.0326926211732004
 20
0.680746522300744
 30
0.0
 11
0.0128119731624705
 21
0.7001301541112059
 31
0.0
  0
LINE
  5
28
  8
0
  6
BYBLOCK
 62
     0
 10
0.0128119731624705
 20
0.7001301541112059
 30
0.0
 11
-0.0194388558327136
 21
0.7075853971152295
 31
0.0
  0
LINE
  5
29
  8
0
  6
BYBLOCK
 62
     0
 10
-0.0194388558327136
 20
0.7075853971152295
 30
0.0
 11
-0.5891298693846303
 21
0.7075853971152295
 31
0.0
  0
LINE
  5
2A
  8
0
  6
BYBLOCK
 62
     0
 10
-0.5891298693846303
 20
0.7075853971152295
 30
0.0
 11
-0.6213806983798145
 21
0.7001301541112059
 31
0.0
  0
LINE
  5
2B
  8
0
  6
BYBLOCK
 62
     0
 10
-0.6213806983798145
 20
0.7001301541112059
 30
0.0
 11
-0.6412613463905444
 21
0.680746522300744
 31
0.0
  0
LINE
  5
2C
  8
0
  6
BYBLOCK
 62
     0
 10
-0.676383824542834
 20
0.6752793440977936
 30
0.0
 11
-0.6947181999305071
 21
0.7150406401192534
 31
0.0
  0
LINE
  5
2E
  8
0
  6
BYBLOCK
 62
     0
 10
-0.7912497908270514
 20
0.7150406401192534
 30
0.0
 11
-0.7428735473342752
 21
0.7314421747281055
 31
0.0
  0
LINE
  5
30
  8
0
  6
BYBLOCK
 62
     0
 10
-0.6947181999305071
 20
0.7150406401192534
 30
0.0
 11
-0.7428735473342752
 21
0.7314421747281055
 31
0.0
  0
LINE
  5
42
  8
0
  6
BYBLOCK
 62
     0
 10
-0.6947181999305071
 20
-0.7128869032514242
 30
0.0
 11
-0.6761629284538258
 21
-0.6731256072299643
 31
0.0
  0
LINE
  5
43
  8
0
  6
BYBLOCK
 62
     0
 10
-0.6761629284538258
 20
-0.6731256072299643
 30
0.0
 11
-0.6682106692495339
 21
-0.624749363737188
 31
0.0
  0
LINE
  5
44
  8
0
  6
BYBLOCK
 62
     0
 10
-0.6682106692495339
 20
-0.624749363737188
 30
0.0
 11
-0.6682106692495339
 21
-0.1025510093220152
 31
0.0
  0
LINE
  5
45
  8
0
  6
BYBLOCK
 62
     0
 10
-0.6682106692495339
 20
-0.1025510093220152
 30
0.0
 11
-0.6761629284538258
 21
-0.054009093762483
 31
0.0
  0
LINE
  5
46
  8
0
  6
BYBLOCK
 62
     0
 10
-0.6761629284538258
 20
-0.054009093762483
 30
0.0
 11
-0.6947181999305071
 21
-0.0144134698077793
 31
0.0
  0
LINE
  5
47
  8
0
  6
BYBLOCK
 62
     0
 10
-0.6947181999305071
 20
-0.0144134698077793
 30
0.0
 11
-0.7402227942661779
 21
0.0011597044672927
 31
0.0
  0
LINE
  5
48
  8
0
  6
BYBLOCK
 62
     0
 10
-0.7402227942661779
 20
0.0011597044672927
 30
0.0
 11
-0.7400018981771697
 21
0.0009940324005365
 31
0.0
  0
LINE
  5
49
  8
0
  6
BYBLOCK
 62
     0
 10
-0.7400018981771697
 20
0.0009940324005365
 30
0.0
 11
-0.6947181999305071
 21
0.0165672066756083
 31
0.0
  0
LINE
  5
4A
  8
0
  6
BYBLOCK
 62
     0
 10
-0.6947181999305071
 20
0.0165672066756083
 30
0.0
 11
-0.676383824542834
 21
0.056162830630312
 31
0.0
  0
LINE
  5
4B
  8
0
  6
BYBLOCK
 62
     0
 10
-0.676383824542834
 20
0.056162830630312
 30
0.0
 11
-0.6682106692495339
 21
0.1045390741230883
 31
0.0
  0
LINE
  5
4C
  8
0
  6
BYBLOCK
 62
     0
 10
-0.6682106692495339
 20
0.1045390741230883
 30
0.0
 11
-0.6682106692495339
 21
0.6269031006050173
 31
0.0
  0
LINE
  5
4D
  8
0
  6
BYBLOCK
 62
     0
 10
-0.6682106692495339
 20
0.6269031006050173
 30
0.0
 11
-0.676383824542834
 21
0.6752793440977936
 31
0.0
  0
LINE
  5
4E
  8
0
  6
BYBLOCK
 62
     0
 10
-0.6209389062017983
 20
0.6375061128774067
 30
0.0
 11
-0.588467181117606
 21
0.6302165419401389
 31
0.0
  0
LINE
  5
4F
  8
0
  6
BYBLOCK
 62
     0
 10
-0.588467181117606
 20
0.6302165419401389
 30
0.0
 11
-0.0203224401887461
 21
0.6302165419401389
 31
0.0
  0
LINE
  5
50
  8
0
  6
BYBLOCK
 62
     0
 10
-0.0209851284557705
 20
0.6302165419401389
 30
0.0
 11
-0.0212060245447785
 21
0.6689838055610624
 31
0.0
  0
LINE
  5
51
  8
0
  6
BYBLOCK
 62
     0
 10
-0.0212060245447785
 20
0.6689838055610624
 30
0.0
 11
-0.0198806480107299
 21
0.6689838055610624
 31
0.0
  0
LINE
  5
52
  8
0
  6
BYBLOCK
 62
     0
 10
-0.0212060245447785
 20
0.6689838055610624
 30
0.0
 11
-0.0207642323667624
 21
0.722495883123277
 31
0.0
  0
LINE
  5
55
  8
0
  6
BYBLOCK
 62
     0
 10
0.0033134413351217
 20
0.007786587137536
 30
0.0
 11
0.0033134413351217
 21
-0.0056328502697068
 31
0.0
  0
LINE
  5
58
  8
0
  6
BYBLOCK
 62
     0
 10
-0.0194388558327136
 20
-0.7077510691819856
 30
0.0
 11
0.0128119731624705
 21
-0.7002958261779618
 31
0.0
  0
LINE
  5
59
  8
0
  6
BYBLOCK
 62
     0
 10
0.0128119731624705
 20
-0.7002958261779618
 30
0.0
 11
0.0326926211732004
 21
-0.6809121943675002
 31
0.0
  0
LINE
  5
5A
  8
0
  6
BYBLOCK
 62
     0
 10
0.0326926211732004
 20
-0.6809121943675002
 30
0.0
 11
0.0324717250841923
 21
-0.6568897446878682
 31
0.0
  0
LINE
  5
5B
  8
0
  6
BYBLOCK
 62
     0
 10
0.0324717250841923
 20
-0.6568897446878682
 30
0.0
 11
0.012149284895446
 21
-0.6376717849441627
 31
0.0
  0
LINE
  5
5C
  8
0
  6
BYBLOCK
 62
     0
 10
-0.0203224401887461
 20
-0.630547886073651
 30
0.0
 11
-0.588467181117606
 21
-0.630547886073651
 31
0.0
  0
LINE
  5
5D
  8
0
  6
BYBLOCK
 62
     0
 10
-0.588467181117606
 20
-0.630547886073651
 30
0.0
 11
-0.6209389062017983
 21
-0.6376717849441627
 31
0.0
  0
LINE
  5
5E
  8
0
  6
BYBLOCK
 62
     0
 10
-0.6209389062017983
 20
-0.6376717849441627
 30
0.0
 11
-0.6410404503015362
 21
-0.6568897446878682
 31
0.0
  0
LINE
  5
5F
  8
0
  6
BYBLOCK
 62
     0
 10
-0.6412613463905444
 20
-0.6809121943675002
 30
0.0
 11
-0.6213806983798145
 21
-0.7002958261779618
 31
0.0
  0
LINE
  5
60
  8
0
  6
BYBLOCK
 62
     0
 10
-0.6213806983798145
 20
-0.7002958261779618
 30
0.0
 11
-0.5891298693846303
 21
-0.7077510691819856
 31
0.0
  0
LINE
  5
61
  8
0
  6
BYBLOCK
 62
     0
 10
-0.5891298693846303
 20
-0.7077510691819856
 30
0.0
 11
-0.0194388558327136
 21
-0.7077510691819856
 31
0.0
  0
LINE
  5
6F
  8
0
  6
BYBLOCK
 62
     0
 10
-0.0002208960890082
 20
-0.736578008797544
 30
0.0
 11
0.0002208960890082
 21
-0.736578008797544
 31
0.0
  0
LINE
  5
71
  8
0
  6
BYBLOCK
 62
     0
 10
0.0024298569790892
 20
-0.7809781226881742
 30
0.0
 11
0.0024298569790892
 21
-0.736578008797544
 31
0.0
  0
LINE
  5
74
  8
0
  6
BYBLOCK
 62
     0
 10
0.0033134413351217
 20
-0.7809781226881742
 30
0.0
 11
-0.8475782935241196
 21
-0.7809781226881742
 31
0.0
  0
LINE
  5
75
  8
0
  6
BYBLOCK
 62
     0
 10
-0.8475782935241196
 20
-0.7809781226881742
 30
0.0
 11
-0.8475782935241196
 21
0.7811437947549303
 31
0.0
  0
LINE
  5
76
  8
0
  6
BYBLOCK
 62
     0
 10
-0.8475782935241196
 20
0.7811437947549303
 30
0.0
 11
0.0033134413351217
 21
0.7811437947549303
 31
0.0
  0
LINE
  5
79
  8
0
  6
BYBLOCK
 62
     0
 10
0.0028716491571055
 20
0.7365780087975441
 30
0.0
 11
0.0024298569790892
 21
0.7365780087975441
 31
0.0
  0
LINE
  5
7A
  8
0
  6
BYBLOCK
 62
     0
 10
0.0024298569790892
 20
0.7365780087975441
 30
0.0
 11
0.0024298569790892
 21
0.7811437947549303
 31
0.0
  0
LINE
  5
7C
  8
0
  6
BYBLOCK
 62
     0
 10
0.0002208960890082
 20
0.7365780087975441
 30
0.0
 11
-0.0002208960890082
 21
0.7365780087975441
 31
0.0
  0
LINE
  5
7F
  8
0
  6
BYBLOCK
 62
     0
 10
0.0033134413351217
 20
0.7365780087975441
 30
0.0
 11
-0.8475782935241196
 21
0.7365780087975441
 31
0.0
  0
LINE
  5
80
  8
0
  6
BYBLOCK
 62
     0
 10
-0.8475782935241196
 20
0.7365780087975441
 30
0.0
 11
-0.8473573974351114
 21
0.7365780087975441
 31
0.0
  0
LINE
  5
81
  8
0
  6
BYBLOCK
 62
     0
 10
-0.8473573974351114
 20
0.7365780087975441
 30
0.0
 11
-0.8473573974351114
 21
0.7811437947549303
 31
0.0
  0
LINE
  5
82
  8
0
  6
BYBLOCK
 62
     0
 10
-0.8460320209010628
 20
0.7811437947549303
 30
0.0
 11
-0.8460320209010628
 21
0.7365780087975441
 31
0.0
  0
LINE
  5
83
  8
0
  6
BYBLOCK
 62
     0
 10
-0.8442648521889979
 20
0.7365780087975441
 30
0.0
 11
-0.8442648521889979
 21
0.7811437947549303
 31
0.0
  0
LINE
  5
84
  8
0
  6
BYBLOCK
 62
     0
 10
-0.8418349952099086
 20
0.7811437947549303
 30
0.0
 11
-0.8418349952099086
 21
0.7365780087975441
 31
0.0
  0
LINE
  5
85
  8
0
  6
BYBLOCK
 62
     0
 10
-0.8385215538747869
 20
0.7365780087975441
 30
0.0
 11
-0.8385215538747869
 21
0.7811437947549303
 31
0.0
  0
LINE
  5
86
  8
0
  6
BYBLOCK
 62
     0
 10
-0.8349872164506571
 20
0.7811437947549303
 30
0.0
 11
-0.8349872164506571
 21
-0.7809781226881742
 31
0.0
  0
LINE
  5
87
  8
0
  6
BYBLOCK
 62
     0
 10
-0.8385215538747869
 20
-0.7809781226881742
 30
0.0
 11
-0.8385215538747869
 21
-0.736578008797544
 31
0.0
  0
LINE
  5
88
  8
0
  6
BYBLOCK
 62
     0
 10
-0.8418349952099086
 20
-0.736578008797544
 30
0.0
 11
-0.8418349952099086
 21
-0.7809781226881742
 31
0.0
  0
LINE
  5
89
  8
0
  6
BYBLOCK
 62
     0
 10
-0.8442648521889979
 20
-0.7809781226881742
 30
0.0
 11
-0.8442648521889979
 21
-0.736578008797544
 31
0.0
  0
LINE
  5
8A
  8
0
  6
BYBLOCK
 62
     0
 10
-0.8460320209010628
 20
-0.736578008797544
 30
0.0
 11
-0.8460320209010628
 21
-0.7809781226881742
 31
0.0
  0
LINE
  5
8B
  8
0
  6
BYBLOCK
 62
     0
 10
-0.8473573974351114
 20
-0.7809781226881742
 30
0.0
 11
-0.8473573974351114
 21
-0.736578008797544
 31
0.0
  0
LINE
  5
8C
  8
0
  6
BYBLOCK
 62
     0
 10
-0.8473573974351114
 20
-0.736578008797544
 30
0.0
 11
-0.8475782935241196
 21
-0.736578008797544
 31
0.0
  0
LINE
  5
8D
  8
0
  6
BYBLOCK
 62
     0
 10
-0.8475782935241196
 20
-0.736578008797544
 30
0.0
 11
0.0033134413351217
 21
-0.736578008797544
 31
0.0
  0
LINE
  5
8E
  8
0
  6
BYBLOCK
 62
     0
 10
0.0033134413351217
 20
-0.736578008797544
 30
0.0
 11
0.0028716491571055
 21
-0.736578008797544
 31
0.0
  0
LINE
  5
95
  8
0
  6
BYBLOCK
 62
     0
 10
-0.1230391215775174
 20
-0.7809781226881742
 30
0.0
 11
-0.1230391215775174
 21
-0.7813094668216863
 31
0.0
  0
LINE
  5
96
  8
0
  6
BYBLOCK
 62
     0
 10
-0.1230391215775174
 20
-0.7813094668216863
 30
0.0
 11
-0.718574977543383
 21
-0.7813094668216863
 31
0.0
  0
LINE
  5
97
  8
0
  6
BYBLOCK
 62
     0
 10
-0.718574977543383
 20
-0.7813094668216863
 30
0.0
 11
-0.718574977543383
 21
-0.7809781226881742
 31
0.0
  0
LINE
  5
9A
  8
0
  6
BYBLOCK
 62
     0
 10
-0.7428735473342752
 20
-0.7294541099270324
 30
0.0
 11
-0.6947181999305071
 21
-0.7128869032514242
 31
0.0
  0
LINE
  5
9C
  8
0
  6
BYBLOCK
 62
     0
 10
-0.7910288947380432
 20
-0.7128869032514242
 30
0.0
 11
-0.8095841662147245
 21
-0.6731256072299643
 31
0.0
  0
LINE
  5
9D
  8
0
  6
BYBLOCK
 62
     0
 10
-0.8095841662147245
 20
-0.6731256072299643
 30
0.0
 11
-0.8177573215080247
 21
-0.624749363737188
 31
0.0
  0
LINE
  5
9E
  8
0
  6
BYBLOCK
 62
     0
 10
-0.8177573215080247
 20
-0.624749363737188
 30
0.0
 11
-0.8177573215080247
 21
-0.1025510093220152
 31
0.0
  0
LINE
  5
9F
  8
0
  6
BYBLOCK
 62
     0
 10
-0.8177573215080247
 20
-0.1025510093220152
 30
0.0
 11
-0.8095841662147245
 21
-0.054009093762483
 31
0.0
  0
LINE
  5
A0
  8
0
  6
BYBLOCK
 62
     0
 10
-0.8095841662147245
 20
-0.054009093762483
 30
0.0
 11
-0.7910288947380432
 21
-0.0144134698077793
 31
0.0
  0
LINE
  5
A1
  8
0
  6
BYBLOCK
 62
     0
 10
-0.7910288947380432
 20
-0.0144134698077793
 30
0.0
 11
-0.7457451964913806
 21
0.0011597044672927
 31
0.0
  0
LINE
  5
A2
  8
0
  6
BYBLOCK
 62
     0
 10
-0.7461869886693968
 20
0.0009940324005365
 30
0.0
 11
-0.7912497908270514
 21
0.0165672066756083
 31
0.0
  0
LINE
  5
A5
  8
0
  6
BYBLOCK
 62
     0
 10
-0.7406645864441941
 20
0.0009940324005365
 30
0.0
 11
-0.7404436903551859
 21
0.0009940324005365
 31
0.0
  0
LINE
  5
A8
  8
0
  6
BYBLOCK
 62
     0
 10
-0.7912497908270514
 20
0.0165672066756083
 30
0.0
 11
-0.8095841662147245
 21
0.056162830630312
 31
0.0
  0
LINE
  5
A9
  8
0
  6
BYBLOCK
 62
     0
 10
-0.8095841662147245
 20
0.056162830630312
 30
0.0
 11
-0.8177573215080247
 21
0.1045390741230883
 31
0.0
  0
LINE
  5
AA
  8
0
  6
BYBLOCK
 62
     0
 10
-0.8177573215080247
 20
0.1045390741230883
 30
0.0
 11
-0.8177573215080247
 21
0.6269031006050173
 31
0.0
  0
LINE
  5
AB
  8
0
  6
BYBLOCK
 62
     0
 10
-0.8177573215080247
 20
0.6269031006050173
 30
0.0
 11
-0.8095841662147245
 21
0.6752793440977936
 31
0.0
  0
LINE
  5
AC
  8
0
  6
BYBLOCK
 62
     0
 10
-0.8095841662147245
 20
0.6752793440977936
 30
0.0
 11
-0.7912497908270514
 21
0.7150406401192534
 31
0.0
  0
LINE
  5
AD
  8
0
  6
BYBLOCK
 62
     0
 10
-0.8223961393771949
 20
0.7365780087975441
 30
0.0
 11
-0.8223961393771949
 21
-0.736578008797544
 31
0.0
  0
LINE
  5
AE
  8
0
  6
BYBLOCK
 62
     0
 10
-0.8230588276442192
 20
-0.736578008797544
 30
0.0
 11
-0.8230588276442192
 21
0.7365780087975441
 31
0.0
  0
LINE
  5
AF
  8
0
  6
BYBLOCK
 62
     0
 10
-0.8239424120002516
 20
0.7365780087975441
 30
0.0
 11
-0.8239424120002516
 21
-0.736578008797544
 31
0.0
  0
LINE
  5
B0
  8
0
  6
BYBLOCK
 62
     0
 10
-0.8252677885343003
 20
-0.736578008797544
 30
0.0
 11
-0.8252677885343003
 21
0.7365780087975441
 31
0.0
  0
LINE
  5
B1
  8
0
  6
BYBLOCK
 62
     0
 10
-0.826593165068349
 20
0.7365780087975441
 30
0.0
 11
-0.826593165068349
 21
0.7811437947549303
 31
0.0
  0
LINE
  5
B2
  8
0
  6
BYBLOCK
 62
     0
 10
-0.8310110868485113
 20
0.7811437947549303
 30
0.0
 11
-0.8310110868485113
 21
0.7365780087975441
 31
0.0
  0
LINE
  5
B3
  8
0
  6
BYBLOCK
 62
     0
 10
-0.8310110868485113
 20
0.7365780087975441
 30
0.0
 11
-0.830569294670495
 21
0.7365780087975441
 31
0.0
  0
LINE
  5
B4
  8
0
  6
BYBLOCK
 62
     0
 10
-0.830569294670495
 20
0.7365780087975441
 30
0.0
 11
-0.830569294670495
 21
-0.736578008797544
 31
0.0
  0
LINE
  5
B5
  8
0
  6
BYBLOCK
 62
     0
 10
-0.830569294670495
 20
-0.736578008797544
 30
0.0
 11
-0.8310110868485113
 21
-0.736578008797544
 31
0.0
  0
LINE
  5
B6
  8
0
  6
BYBLOCK
 62
     0
 10
-0.8310110868485113
 20
-0.736578008797544
 30
0.0
 11
-0.8310110868485113
 21
-0.7809781226881742
 31
0.0
  0
LINE
  5
B7
  8
0
  6
BYBLOCK
 62
     0
 10
-0.826593165068349
 20
-0.7809781226881742
 30
0.0
 11
-0.826593165068349
 21
-0.736578008797544
 31
0.0
  0
LINE
  5
B8
  8
0
  6
BYBLOCK
 62
     0
 10
-0.826593165068349
 20
-0.736578008797544
 30
0.0
 11
-0.826814061157357
 21
-0.736578008797544
 31
0.0
  0
LINE
  5
B9
  8
0
  6
BYBLOCK
 62
     0
 10
-0.826814061157357
 20
-0.736578008797544
 30
0.0
 11
-0.826814061157357
 21
0.7365780087975441
 31
0.0
  0
LINE
  5
BA
  8
0
  6
BYBLOCK
 62
     0
 10
-0.828581229869422
 20
0.7365780087975441
 30
0.0
 11
-0.828581229869422
 21
-0.736578008797544
 31
0.0
  0
LINE
  5
BB
  8
0
  6
BYBLOCK
 62
     0
 10
-0.8327782555605762
 20
-0.736578008797544
 30
0.0
 11
-0.8327782555605762
 21
0.7365780087975441
 31
0.0
  0
LINE
  5
BC
  8
0
  6
BYBLOCK
 62
     0
 10
-0.8221752432881868
 20
0.7811437947549303
 30
0.0
 11
-0.8221752432881868
 21
-0.7809781226881742
 31
0.0
  0
LINE
  5
BD
  8
0
  6
BYBLOCK
 62
     0
 10
-0.7910288947380432
 20
-0.7128869032514242
 30
0.0
 11
-0.7428735473342752
 21
-0.7294541099270324
 31
0.0
  0
LINE
  5
C9
  8
0
  6
BYBLOCK
 62
     0
 10
-0.6209389062017983
 20
-0.6376717849441627
 30
0.0
 11
-0.638389697233439
 21
-0.6202762179347738
 31
0.0
  0
LINE
  5
CA
  8
0
  6
BYBLOCK
 62
     0
 10
-0.6397150737674876
 20
-0.6216015944688226
 30
0.0
 11
-0.6397150737674876
 21
-0.1025510093220152
 31
0.0
  0
LINE
  5
CB
  8
0
  6
BYBLOCK
 62
     0
 10
-0.6397150737674876
 20
-0.1025510093220152
 30
0.0
 11
-0.6341926715422849
 21
-0.054009093762483
 31
0.0
  0
LINE
  5
CC
  8
0
  6
BYBLOCK
 62
     0
 10
-0.6341926715422849
 20
-0.054009093762483
 30
0.0
 11
-0.6213806983798145
 21
-0.0144134698077793
 31
0.0
  0
LINE
  5
CD
  8
0
  6
BYBLOCK
 62
     0
 10
-0.6412613463905444
 20
-0.0144134698077793
 30
0.0
 11
-0.6615837865792906
 21
-0.054009093762483
 31
0.0
  0
LINE
  5
CE
  8
0
  6
BYBLOCK
 62
     0
 10
-0.6615837865792906
 20
-0.054009093762483
 30
0.0
 11
-0.6693151496945744
 21
-0.0967524869855523
 31
0.0
  0
LINE
  5
D5
  8
0
  6
BYBLOCK
 62
     0
 10
-0.6412613463905444
 20
0.0165672066756083
 30
0.0
 11
-0.6615837865792906
 21
0.056162830630312
 31
0.0
  0
LINE
  5
D6
  8
0
  6
BYBLOCK
 62
     0
 10
-0.6615837865792906
 20
0.056162830630312
 30
0.0
 11
-0.6693151496945744
 21
0.0982435355863572
 31
0.0
  0
LINE
  5
E0
  8
0
  6
BYBLOCK
 62
     0
 10
-0.6693151496945744
 20
0.6330329670749922
 30
0.0
 11
-0.6668852927154852
 21
0.6469494206825033
 31
0.0
  0
LINE
  5
E1
  8
0
  6
BYBLOCK
 62
     0
 10
-0.6697569418725906
 20
0.6499315178841127
 30
0.0
 11
-0.6611419944012743
 21
0.6520852547519419
 31
0.0
  0
LINE
  5
E2
  8
0
  6
BYBLOCK
 62
     0
 10
-0.6611419944012743
 20
0.6520852547519419
 30
0.0
 11
-0.6410404503015362
 21
0.6567240726211122
 31
0.0
  0
LINE
  5
E3
  8
0
  6
BYBLOCK
 62
     0
 10
-0.6410404503015362
 20
0.6567240726211122
 30
0.0
 11
-0.6209389062017983
 21
0.6375061128774067
 31
0.0
  0
LINE
  5
E4
  8
0
  6
BYBLOCK
 62
     0
 10
-0.6209389062017983
 20
0.6375061128774067
 30
0.0
 11
-0.638389697233439
 21
0.6201105458680178
 31
0.0
  0
LINE
  5
E5
  8
0
  6
BYBLOCK
 62
     0
 10
-0.6397150737674876
 20
0.6212702503353104
 30
0.0
 11
-0.6397150737674876
 21
0.1045390741230883
 31
0.0
  0
LINE
  5
E6
  8
0
  6
BYBLOCK
 62
     0
 10
-0.6397150737674876
 20
0.1045390741230883
 30
0.0
 11
-0.6341926715422849
 21
0.056162830630312
 31
0.0
  0
LINE
  5
E7
  8
0
  6
BYBLOCK
 62
     0
 10
-0.6341926715422849
 20
0.056162830630312
 30
0.0
 11
-0.6216015944688226
 21
0.0165672066756083
 31
0.0
  0
LINE
  5
ED
  8
0
  6
BYBLOCK
 62
     0
 10
-0.5895716615626465
 20
0.7289570937267641
 30
0.0
 11
-0.5880253889395898
 21
0.7289570937267641
 31
0.0
  0
LINE
  5
F1
  8
0
  6
BYBLOCK
 62
     0
 10
-0.6213806983798145
 20
0.7001301541112059
 30
0.0
 11
-0.6397150737674876
 21
0.7171943769870822
 31
0.0
  0
LINE
  5
F2
  8
0
  6
BYBLOCK
 62
     0
 10
-0.6412613463905444
 20
0.680746522300744
 30
0.0
 11
-0.6410404503015362
 21
0.6567240726211122
 31
0.0
  0
LINE
  5
F3
  8
0
  6
BYBLOCK
 62
     0
 10
-0.6412613463905444
 20
0.680746522300744
 30
0.0
 11
-0.6701987340506068
 21
0.6870420608374754
 31
0.0
  0
LINE
  5
F8
  8
0
  6
BYBLOCK
 62
     0
 10
-0.718574977543383
 20
0.7811437947549303
 30
0.0
 11
-0.718574977543383
 21
0.7813094668216864
 31
0.0
  0
LINE
  5
F9
  8
0
  6
BYBLOCK
 62
     0
 10
-0.718574977543383
 20
0.7813094668216864
 30
0.0
 11
-0.1230391215775174
 21
0.7813094668216864
 31
0.0
  0
LINE
  5
FA
  8
0
  6
BYBLOCK
 62
     0
 10
-0.1230391215775174
 20
0.7813094668216864
 30
0.0
 11
-0.1230391215775174
 21
0.7811437947549303
 31
0.0
  0
LINE
  5
10B
  8
0
  6
BYBLOCK
 62
     0
 10
0.0128119731624705
 20
0.7001301541112059
 30
0.0
 11
0.0309254524611355
 21
0.7171943769870822
 31
0.0
  0
LINE
  5
10C
  8
0
  6
BYBLOCK
 62
     0
 10
0.0326926211732004
 20
0.680746522300744
 30
0.0
 11
0.0616300088332629
 21
0.6870420608374754
 31
0.0
  0
LINE
  5
10D
  8
0
  6
BYBLOCK
 62
     0
 10
0.0611882166552465
 20
0.6499315178841127
 30
0.0
 11
0.0324717250841923
 21
0.6567240726211122
 31
0.0
  0
LINE
  5
10E
  8
0
  6
BYBLOCK
 62
     0
 10
0.0565493987860763
 20
0.6456240441484548
 30
0.0
 11
0.0600837362102061
 21
0.6269031006050173
 31
0.0
  0
LINE
  5
10F
  8
0
  6
BYBLOCK
 62
     0
 10
0.0600837362102061
 20
0.6269031006050173
 30
0.0
 11
0.0600837362102061
 21
0.1045390741230883
 31
0.0
  0
LINE
  5
110
  8
0
  6
BYBLOCK
 62
     0
 10
0.0600837362102061
 20
0.1045390741230883
 30
0.0
 11
0.0512478926498816
 21
0.056162830630312
 31
0.0
  0
LINE
  5
111
  8
0
  6
BYBLOCK
 62
     0
 10
0.0512478926498816
 20
0.056162830630312
 30
0.0
 11
0.0311463485501437
 21
0.0165672066756083
 31
0.0
  0
LINE
  5
112
  8
0
  6
BYBLOCK
 62
     0
 10
0.0311463485501437
 20
-0.0144134698077793
 30
0.0
 11
0.0514687887388897
 21
-0.054009093762483
 31
0.0
  0
LINE
  5
113
  8
0
  6
BYBLOCK
 62
     0
 10
0.0514687887388897
 20
-0.054009093762483
 30
0.0
 11
0.0600837362102061
 21
-0.1025510093220152
 31
0.0
  0
LINE
  5
114
  8
0
  6
BYBLOCK
 62
     0
 10
0.0600837362102061
 20
-0.1025510093220152
 30
0.0
 11
0.0600837362102061
 21
-0.624749363737188
 31
0.0
  0
LINE
  5
115
  8
0
  6
BYBLOCK
 62
     0
 10
0.0600837362102061
 20
-0.624749363737188
 30
0.0
 11
0.0563285026970681
 21
-0.6456240441484545
 31
0.0
  0
LINE
  5
116
  8
0
  6
BYBLOCK
 62
     0
 10
0.0611882166552465
 20
-0.6500971899508688
 30
0.0
 11
0.0324717250841923
 21
-0.6568897446878682
 31
0.0
  0
LINE
  5
117
  8
0
  6
BYBLOCK
 62
     0
 10
0.0326926211732004
 20
-0.6809121943675002
 30
0.0
 11
0.0616300088332629
 21
-0.6872077329042313
 31
0.0
  0
LINE
  5
118
  8
0
  6
BYBLOCK
 62
     0
 10
0.0309254524611355
 20
-0.7173600490538384
 30
0.0
 11
0.0254030502359326
 21
-0.7122242149843999
 31
0.0
  0
LINE
  5
119
  8
0
  6
BYBLOCK
 62
     0
 10
0.0254030502359326
 20
-0.7122242149843999
 30
0.0
 11
0.0128119731624705
 21
-0.7002958261779618
 31
0.0
  0
LINE
  5
11E
  8
0
  6
BYBLOCK
 62
     0
 10
-0.0203224401887461
 20
-0.630547886073651
 30
0.0
 11
0.012149284895446
 21
-0.6376717849441627
 31
0.0
  0
LINE
  5
11F
  8
0
  6
BYBLOCK
 62
     0
 10
0.012149284895446
 20
-0.6376717849441627
 30
0.0
 11
0.0298209720160949
 21
-0.6202762179347738
 31
0.0
  0
LINE
  5
123
  8
0
  6
BYBLOCK
 62
     0
 10
-0.0176716871206489
 20
0.0009940324005365
 30
0.0
 11
-0.0176716871206489
 21
0.0011597044672927
 31
0.0
  0
LINE
  5
124
  8
0
  6
BYBLOCK
 62
     0
 10
-0.0134746614294948
 20
0.0024850810013412
 30
0.0
 11
-0.0134746614294948
 21
-0.0003313441335122
 31
0.0
  0
LINE
  5
125
  8
0
  6
BYBLOCK
 62
     0
 10
-0.0094985318273486
 20
-0.0016567206675608
 30
0.0
 11
-0.0094985318273486
 21
0.0036447854686339
 31
0.0
  0
LINE
  5
126
  8
0
  6
BYBLOCK
 62
     0
 10
-0.0057432983142109
 20
0.0048044899359264
 30
0.0
 11
-0.0057432983142109
 21
-0.0028164251348535
 31
0.0
  0
LINE
  5
127
  8
0
  6
BYBLOCK
 62
     0
 10
-0.0026507530680974
 20
-0.0038104575353898
 30
0.0
 11
-0.0026507530680974
 21
0.0057985223364629
 31
0.0
  0
LINE
  5
128
  8
0
  6
BYBLOCK
 62
     0
 10
-0.0002208960890082
 20
0.0066268826702433
 30
0.0
 11
-0.0002208960890082
 21
-0.0046388178691702
 31
0.0
  0
LINE
  5
129
  8
0
  6
BYBLOCK
 62
     0
 10
0.0017671687120649
 20
-0.0051358340694386
 30
0.0
 11
0.0017671687120649
 21
0.0072895709372676
 31
0.0
  0
LINE
  5
12A
  8
0
  6
BYBLOCK
 62
     0
 10
0.0028716491571055
 20
0.0076209150707798
 30
0.0
 11
0.0028716491571055
 21
-0.0054671782029507
 31
0.0
  0
LINE
  5
12D
  8
0
  6
BYBLOCK
 62
     0
 10
0.0298209720160949
 20
0.6201105458680178
 30
0.0
 11
0.0245194658799004
 21
0.6254120520042126
 31
0.0
  0
LINE
  5
12E
  8
0
  6
BYBLOCK
 62
     0
 10
0.0245194658799004
 20
0.6254120520042126
 30
0.0
 11
0.012149284895446
 21
0.6375061128774067
 31
0.0
  0
LINE
  5
12F
  8
0
  6
BYBLOCK
 62
     0
 10
0.012149284895446
 20
0.6375061128774067
 30
0.0
 11
-0.0203224401887461
 21
0.6302165419401389
 31
0.0
  0
LINE
  5
130
  8
0
  6
BYBLOCK
 62
     0
 10
-0.0209851284557705
 20
0.6302165419401389
 30
0.0
 11
-0.0207642323667624
 21
0.6154717279988476
 31
0.0
  0
LINE
  5
131
  8
0
  6
BYBLOCK
 62
     0
 10
-0.0207642323667624
 20
0.6154717279988476
 30
0.0
 11
-0.0205433362777542
 21
0.6154717279988476
 31
0.0
  0
LINE
  5
132
  8
0
  6
BYBLOCK
 62
     0
 10
-0.0205433362777542
 20
0.6154717279988476
 30
0.0
 11
-0.0205433362777542
 21
0.6090105173953604
 31
0.0
  0
LINE
  5
133
  8
0
  6
BYBLOCK
 62
     0
 10
-0.0205433362777542
 20
0.6090105173953604
 30
0.0
 11
-0.0207642323667624
 21
0.6154717279988476
 31
0.0
  0
LINE
  5
141
  8
0
  6
BYBLOCK
 62
     0
 10
-0.6693151496945744
 20
-0.6307135581404071
 30
0.0
 11
-0.6664435005374689
 21
-0.6469494206825033
 31
0.0
  0
LINE
  5
142
  8
0
  6
BYBLOCK
 62
     0
 10
-0.6697569418725906
 20
-0.6500971899508688
 30
0.0
 11
-0.6410404503015362
 21
-0.6568897446878682
 31
0.0
  0
LINE
  5
143
  8
0
  6
BYBLOCK
 62
     0
 10
-0.6410404503015362
 20
-0.6568897446878682
 30
0.0
 11
-0.6412613463905444
 21
-0.6809121943675002
 31
0.0
  0
LINE
  5
144
  8
0
  6
BYBLOCK
 62
     0
 10
-0.6412613463905444
 20
-0.6809121943675002
 30
0.0
 11
-0.6701987340506068
 21
-0.6872077329042313
 31
0.0
  0
LINE
  5
145
  8
0
  6
BYBLOCK
 62
     0
 10
-0.6397150737674876
 20
-0.7173600490538384
 30
0.0
 11
-0.6213806983798145
 21
-0.7002958261779618
 31
0.0
  0
POLYLINE
  5
16D
  8
_KTI_CONTROL
 10
0.0
 20
0.0
 30
0.0
 66
     1
 70
     8
1001
_KTI_ARCHT
1070
 12000
1000
ENVIRONMENT
1070
 10003
1000
12pcou14
1070
 20000
1000
standard
1070
 20001
1000
c:\program files\ketiv\archt
1070
 20003
1000
d:\archt
1070
 20002
1000
c:\program files\ketiv\archt\tmp
1070
 20004
1002
{
1000
c:\program files\ketiv\archt\blks
1000
c:\program files\ketiv\archt\blks3d
1000
e:\archt\blks
1000
e:\archt\blks3d
1000
d:\archt\blks
1000
d:\archt\blks3d
1002
}
1070
 20005
1002
{
1000
c:\program files\ketiv\archt\slds
1002
}
1070
 20006
1002
{
1000
c:\program files\ketiv\archt\dclswin
1002
}
1070
 20007
1002
{
1000
c:\program files\ketiv\archt\docs
1000
e:\archt\docs
1000
d:\archt\docs
1002
}
1070
 20008
1002
{
1000
c:\program files\ketiv\archt\help
1002
}
  0
VERTEX
  5
16E
  8
_KTI_CONTROL
 10
0.0
 20
0.0
 30
0.0
 70
    32
  0
VERTEX
  5
16F
  8
_KTI_CONTROL
 10
0.0
 20
0.0
 30
0.0
 70
    32
  0
SEQEND
  5
170
  8
_KTI_CONTROL
  0
POLYLINE
  5
171
  8
_KTI_CONTROL
 10
0.0
 20
0.0
 30
0.0
 66
     1
 70
     8
1001
_KTI_ARCHT
1070
 12000
1000
ARCHTVARS
1070
 10003
1000
12pcou14
1070
 12030
1000
in
1070
 12020
1070
     1
1070
 12021
1070
     0
1070
 12070
1070
     0
1070
 12071
1070
     1
1070
 12907
1070
     0
1070
 12913
1070
     1
1070
 12914
1070
     1
1070
 12072
1070
     2
1070
 12073
1070
    48
1070
 12074
1070
     0
1070
 12080
1070
     1
1070
 12092
1070
     1
1070
 12096
1070
     0
1070
 12095
1070
     0
1070
 12081
1070
     1
1070
 12082
1070
     1
1070
 12083
1070
     1
1070
 12084
1070
     1
1070
 12085
1070
     0
1070
 12086
1070
     1
1070
 12087
1070
     0
1070
 12088
1070
     0
1070
 12097
1070
     1
1070
 12089
1070
     4
1070
 12090
1070
     6
1070
 12091
1070
     1
1070
 12045
1000
standard
1070
 12046
1000

1070
 12047
1000
standard
1070
 12048
1000

1070
 12049
1000

1070
 12093
1070
     1
1070
 12094
1070
     1
1070
 12908
1070
     0
1070
 12909
1070
     0
1070
 12911
1070
     0
1070
 12910
1070
     0
1070
 12912
1070
     0
1070
 12098
1070
   800
1070
 12060
1002
{
1000
standard.nvx
1000
12 Furnishings
1000
Couches
1000
plan
1002
}
1070
 12904
1002
{
1070
     0
1070
     0
1070
     0
1070
     0
1070
     0
1002
}
1070
 12905
1002
{
1040
0.0
1040
0.0
1040
0.0
1040
0.0
1040
0.0
1002
}
1070
 12906
1002
{
1000

1000

1000

1000

1000

1002
}
1070
 12040
1002
{
1002
}
  0
VERTEX
  5
172
  8
_KTI_CONTROL
 10
0.0
 20
0.0
 30
0.0
 70
    32
  0
VERTEX
  5
173
  8
_KTI_CONTROL
 10
0.0
 20
0.0
 30
0.0
 70
    32
  0
SEQEND
  5
174
  8
_KTI_CONTROL
  0
ENDSEC
  0
EOF
