  0
SECTION
  2
HEADER
  9
$ACADVER
  1
AC1009
  9
$DWGCODEPAGE
  3
ansi_1252
  9
$INSBASE
 10
6.462597611015173
 20
8.162802546723936
 30
0.0
  9
$EXTMIN
 10
5.918785197291016
 20
7.925131879208367
 30
0.0
  9
$EXTMAX
 10
7.002893855898893
 20
8.373699771275074
 30
0.0
  9
$LIMMIN
 10
0.0
 20
0.0
  9
$LIMMAX
 10
12.0
 20
9.0
  9
$ORTHOMODE
 70
     0
  9
$REGENMODE
 70
     1
  9
$FILLMODE
 70
     1
  9
$QTEXTMODE
 70
     0
  9
$MIRRTEXT
 70
     1
  9
$DRAGMODE
 70
     2
  9
$LTSCALE
 40
1.0
  9
$OSMODE
 70
    37
  9
$ATTMODE
 70
     1
  9
$TEXTSIZE
 40
0.2
  9
$TRACEWID
 40
0.05
  9
$TEXTSTYLE
  7
STANDARD
  9
$CLAYER
  8
LAYOUT
  9
$CELTYPE
  6
BYLAYER
  9
$CECOLOR
 62
   256
  9
$DIMSCALE
 40
1.0
  9
$DIMASZ
 40
0.09
  9
$DIMEXO
 40
0.0625
  9
$DIMDLI
 40
0.38
  9
$DIMRND
 40
0.0
  9
$DIMDLE
 40
0.0
  9
$DIMEXE
 40
0.18
  9
$DIMTP
 40
0.0
  9
$DIMTM
 40
0.0
  9
$DIMTXT
 40
0.2
  9
$DIMCEN
 40
0.09
  9
$DIMTSZ
 40
0.0
  9
$DIMTOL
 70
     0
  9
$DIMLIM
 70
     0
  9
$DIMTIH
 70
     0
  9
$DIMTOH
 70
     0
  9
$DIMSE1
 70
     0
  9
$DIMSE2
 70
     0
  9
$DIMTAD
 70
     1
  9
$DIMZIN
 70
     4
  9
$DIMBLK
  1

  9
$DIMASO
 70
     1
  9
$DIMSHO
 70
     1
  9
$DIMPOST
  1

  9
$DIMAPOST
  1

  9
$DIMALT
 70
     0
  9
$DIMALTD
 70
     2
  9
$DIMALTF
 40
25.4
  9
$DIMLFAC
 40
1.0
  9
$DIMTOFL
 70
     1
  9
$DIMTVP
 40
0.0
  9
$DIMTIX
 70
     0
  9
$DIMSOXD
 70
     0
  9
$DIMSAH
 70
     1
  9
$DIMBLK1
  1

  9
$DIMBLK2
  1

  9
$DIMSTYLE
  2
STANDARD
  9
$DIMCLRD
 70
     0
  9
$DIMCLRE
 70
     0
  9
$DIMCLRT
 70
     0
  9
$DIMTFAC
 40
1.0
  9
$DIMGAP
 40
0.09
  9
$LUNITS
 70
     2
  9
$LUPREC
 70
     4
  9
$SKETCHINC
 40
0.1
  9
$FILLETRAD
 40
0.0
  9
$AUNITS
 70
     0
  9
$AUPREC
 70
     0
  9
$MENU
  1
acad
  9
$ELEVATION
 40
0.0
  9
$PELEVATION
 40
0.0
  9
$THICKNESS
 40
0.0
  9
$LIMCHECK
 70
     0
  9
$CHAMFERA
 40
0.005
  9
$CHAMFERB
 40
0.005
  9
$SKPOLY
 70
     0
  9
$TDCREATE
 40
2450127.384900463
  9
$TDUPDATE
 40
2458028.632627315
  9
$TDINDWG
 40
0.0028820833
  9
$TDUSRTIMER
 40
0.0028820833
  9
$USRTIMER
 70
     1
  9
$ANGBASE
 50
0.0
  9
$ANGDIR
 70
     0
  9
$PDMODE
 70
    35
  9
$PDSIZE
 40
0.0
  9
$PLINEWID
 40
0.0
  9
$COORDS
 70
     1
  9
$SPLFRAME
 70
     0
  9
$SPLINETYPE
 70
     6
  9
$SPLINESEGS
 70
     8
  9
$ATTDIA
 70
     0
  9
$ATTREQ
 70
     1
  9
$HANDLING
 70
     1
  9
$HANDSEED
  5
6EC7
  9
$SURFTAB1
 70
     6
  9
$SURFTAB2
 70
     6
  9
$SURFTYPE
 70
     6
  9
$SURFU
 70
     6
  9
$SURFV
 70
     6
  9
$UCSNAME
  2

  9
$UCSORG
 10
0.0
 20
0.0
 30
0.0
  9
$UCSXDIR
 10
1.0
 20
0.0
 30
0.0
  9
$UCSYDIR
 10
0.0
 20
1.0
 30
0.0
  9
$PUCSNAME
  2

  9
$PUCSORG
 10
0.0
 20
0.0
 30
0.0
  9
$PUCSXDIR
 10
1.0
 20
0.0
 30
0.0
  9
$PUCSYDIR
 10
0.0
 20
1.0
 30
0.0
  9
$USERI1
 70
     0
  9
$USERI2
 70
     0
  9
$USERI3
 70
     0
  9
$USERI4
 70
     0
  9
$USERI5
 70
     0
  9
$USERR1
 40
0.0
  9
$USERR2
 40
0.0
  9
$USERR3
 40
0.0
  9
$USERR4
 40
0.0
  9
$USERR5
 40
0.0
  9
$WORLDVIEW
 70
     1
  9
$SHADEDGE
 70
     3
  9
$SHADEDIF
 70
    70
  9
$TILEMODE
 70
     1
  9
$MAXACTVP
 70
    16
  9
$PLIMCHECK
 70
     0
  9
$PEXTMIN
 10
1.000000000000000E+20
 20
1.000000000000000E+20
 30
1.000000000000000E+20
  9
$PEXTMAX
 10
-1.000000000000000E+20
 20
-1.000000000000000E+20
 30
-1.000000000000000E+20
  9
$PLIMMIN
 10
0.0
 20
0.0
  9
$PLIMMAX
 10
12.0
 20
9.0
  9
$UNITMODE
 70
     0
  9
$VISRETAIN
 70
     0
  9
$PLINEGEN
 70
     0
  9
$PSLTSCALE
 70
     1
  0
ENDSEC
  0
SECTION
  2
TABLES
  0
TABLE
  2
VPORT
 70
     1
  0
VPORT
  2
*ACTIVE
 70
     0
 10
0.0
 20
0.0
 11
1.0
 21
1.0
 12
6.538237116045115
 22
8.19097808157202
 13
0.0
 23
0.0
 14
1.0
 24
1.0
 15
0.0
 25
0.0
 16
0.0
 26
0.0
 36
1.0
 17
0.0
 27
0.0
 37
0.0
 40
1.146225635061221
 41
1.503537735849057
 42
50.0
 43
0.0
 44
0.0
 50
0.0
 51
0.0
 71
     0
 72
   100
 73
     1
 74
     1
 75
     0
 76
     0
 77
     0
 78
     0
  0
ENDTAB
  0
TABLE
  2
LTYPE
 70
     1
  0
LTYPE
  2
CONTINUOUS
 70
     0
  3
Solid line
 72
    65
 73
     0
 40
0.0
  0
ENDTAB
  0
TABLE
  2
LAYER
 70
     3
  0
LAYER
  2
0
 70
     0
 62
     7
  6
CONTINUOUS
  0
LAYER
  2
ACES-I
 70
     0
 62
   251
  6
CONTINUOUS
  0
LAYER
  2
LAYOUT
 70
     0
 62
     4
  6
CONTINUOUS
  0
ENDTAB
  0
TABLE
  2
STYLE
 70
     1
  0
STYLE
  2
STANDARD
 70
     0
 40
0.0
 41
1.0
 50
0.0
 71
     0
 42
0.2
  3
txt
  4

  0
ENDTAB
  0
TABLE
  2
VIEW
 70
     0
  0
ENDTAB
  0
TABLE
  2
UCS
 70
     0
  0
ENDTAB
  0
TABLE
  2
APPID
 70
     2
  0
APPID
  2
ACAD
 70
     0
  0
APPID
  2
DCO15
 70
     0
  0
ENDTAB
  0
TABLE
  2
DIMSTYLE
 70
     1
  0
DIMSTYLE
  2
STANDARD
 70
     0
  3

  4

  5

  6

  7

 40
1.0
 41
0.18
 42
0.0625
 43
0.38
 44
0.18
 45
0.0
 46
0.0
 47
0.0
 48
0.0
140
0.18
141
0.09
142
0.0
143
25.4
144
1.0
145
0.0
146
1.0
147
0.09
 71
     0
 72
     0
 73
     1
 74
     1
 75
     0
 76
     0
 77
     0
 78
     0
170
     0
171
     2
172
     0
173
     0
174
     0
175
     0
176
     0
177
     0
178
     0
  0
ENDTAB
  0
ENDSEC
  0
SECTION
  2
BLOCKS
  0
BLOCK
  8
0
  2
$MODEL_SPACE
 70
     0
 10
0.0
 20
0.0
 30
0.0
  3
$MODEL_SPACE
  1

  0
ENDBLK
  5
6DCC
  8
0
  0
BLOCK
 67
     1
  8
0
  2
$PAPER_SPACE
 70
     0
 10
0.0
 20
0.0
 30
0.0
  3
$PAPER_SPACE
  1

  0
ENDBLK
  5
6DCA
 67
     1
  8
0
  0
BLOCK
  8
0
  2
*X0
 70
     1
 10
0.0
 20
0.0
 30
0.0
  3
*X0
  1

  0
LINE
  5
2701
  8
0
 62
     0
 10
8.542075416108533
 20
8.542075416108533
 30
0.0
 11
8.754207457345297
 21
8.754207457345297
 31
0.0
  0
LINE
  5
2702
  8
0
 62
     0
 10
8.510057986592448
 20
8.686834681889085
 30
0.0
 11
8.65557816278488
 21
8.832354858081516
 31
0.0
  0
LINE
  5
2703
  8
0
 62
     0
 10
8.632035962980513
 20
8.455259267683877
 30
0.0
 11
8.777911747916317
 21
8.60113505261968
 31
0.0
  0
LINE
  5
2704
  8
0
 62
     0
 10
8.686724936179495
 20
8.460614507594284
 30
0.0
 11
8.552070842240163
 21
8.595268601533617
 31
0.0
  0
LINE
  5
2705
  8
0
 62
     0
 10
8.775333342762451
 20
8.548782796307966
 30
0.0
 11
8.563201301525687
 21
8.760914837544728
 31
0.0
  0
LINE
  5
2706
  8
0
 62
     0
 10
8.799966051165484
 20
8.700926783201568
 30
0.0
 11
8.67105909058041
 21
8.829833743786642
 31
0.0
  0
ENDBLK
  5
2707
  8
0
  0
ENDSEC
  0
SECTION
  2
ENTITIES
  0
INSERT
  5
6C0A
  8
0
 62
     0
  2
*X0
 10
-2.199460458520035
 20
-0.4992555228112714
 30
0.0
1001
ACAD
1000
HATCH
1002
{
1070
    19
1000
ANSI37
1040
1.0
1040
6.226133556016614
1002
}
  0
POLYLINE
  5
6BF4
  8
0
 62
     0
 66
     1
 10
0.0
 20
0.0
 30
0.0
 70
     1
  0
VERTEX
  5
6E34
  8
0
 62
     0
 10
6.100520049327196
 20
7.96546635432748
 30
0.0
  0
VERTEX
  5
6E35
  8
0
 62
     0
 10
6.280841858431634
 20
8.05197673036008
 30
0.0
 42
0.4142135623731226
  0
VERTEX
  5
6E36
  8
0
 62
     0
 10
6.304294716699594
 20
8.118684776644342
 30
0.0
  0
VERTEX
  5
6E37
  8
0
 62
     0
 10
6.217784340666995
 20
8.299006585748783
 30
0.0
 42
0.4142135623730675
  0
VERTEX
  5
6E38
  8
0
 62
     0
 10
6.151076294382738
 20
8.322459444016745
 30
0.0
  0
VERTEX
  5
6E39
  8
0
 62
     0
 10
5.970754485278295
 20
8.235949067984143
 30
0.0
 42
0.4142135623731203
  0
VERTEX
  5
6E3A
  8
0
 62
     0
 10
5.947301627010335
 20
8.169241021699884
 30
0.0
  0
VERTEX
  5
6E3B
  8
0
 62
     0
 10
6.033812003042936
 20
7.988919212595443
 30
0.0
 42
0.4142135623730677
  0
SEQEND
  5
6EB9
  8
0
 62
     0
  0
POLYLINE
  5
6BEE
  8
0
 62
     0
 66
     1
 10
0.0
 20
0.0
 30
0.0
  0
VERTEX
  5
6E3C
  8
0
 62
     0
 10
6.323512857423516
 20
8.061931726603982
 30
0.0
  0
VERTEX
  5
6E3D
  8
0
 62
     0
 10
6.420484487278973
 20
7.964910686547041
 30
0.0
 42
0.4142135623730969
  0
VERTEX
  5
6E3E
  8
0
 62
     0
 10
6.491195163104029
 20
7.964892676440053
 30
0.0
  0
VERTEX
  5
6E3F
  8
0
 62
     0
 10
6.600914878266405
 20
8.074556514307881
 30
0.0
  0
SEQEND
  5
6EBA
  8
0
 62
     0
  0
POLYLINE
  5
6BE8
  8
0
 62
     0
 66
     1
 10
0.0
 20
0.0
 30
0.0
  0
VERTEX
  5
6E40
  8
0
 62
     0
 10
6.605520394155798
 20
8.204152668506078
 30
0.0
  0
VERTEX
  5
6E41
  8
0
 62
     0
 10
6.491285213638964
 20
8.31844605556533
 30
0.0
 42
0.4142135623730977
  0
VERTEX
  5
6E42
  8
0
 62
     0
 10
6.420574537813909
 20
8.318464065672318
 30
0.0
  0
VERTEX
  5
6E43
  8
0
 62
     0
 10
6.296620696940343
 20
8.194573351150003
 30
0.0
  0
SEQEND
  5
6EBB
  8
0
 62
     0
  0
POLYLINE
  5
6BDE
  8
0
 62
     0
 66
     1
 10
0.0
 20
0.0
 30
0.0
 70
     1
  0
VERTEX
  5
6E44
  8
0
 62
     0
 10
6.94923235780055
 20
8.218250078540104
 30
0.0
  0
VERTEX
  5
6E45
  8
0
 62
     0
 10
6.785413424771255
 20
8.332981753247408
 30
0.0
 42
0.4142135623730949
  0
VERTEX
  5
6E46
  8
0
 62
     0
 10
6.715775772837103
 20
8.32070993866691
 30
0.0
  0
VERTEX
  5
6E47
  8
0
 62
     0
 10
6.601044098129798
 20
8.156891005637616
 30
0.0
 42
0.4142135623730949
  0
VERTEX
  5
6E48
  8
0
 62
     0
 10
6.613315912710295
 20
8.087253353703465
 30
0.0
  0
VERTEX
  5
6E49
  8
0
 62
     0
 10
6.777134845739592
 20
7.972521678996157
 30
0.0
 42
0.4142135623730951
  0
VERTEX
  5
6E4A
  8
0
 62
     0
 10
6.846772497673744
 20
7.984793493576655
 30
0.0
  0
VERTEX
  5
6E4B
  8
0
 62
     0
 10
6.961504172381048
 20
8.148612426605952
 30
0.0
 42
0.4142135623730951
  0
SEQEND
  5
6EBC
  8
0
 62
     0
  0
POLYLINE
  5
6BAF
  8
0
 62
     0
 66
     1
 10
0.0
 20
0.0
 30
0.0
  0
VERTEX
  5
6E4C
  8
0
 62
     0
 10
6.316792074880196
 20
8.031320564804338
 30
0.0
 42
0.0689860386580599
  0
VERTEX
  5
6E4D
  8
0
 62
     0
 10
6.325121756637095
 20
8.029970312987595
 30
0.0
 42
-0.3300792286289643
  0
VERTEX
  5
6E4E
  8
0
 62
     0
 10
6.343690152359851
 20
7.991692943319068
 30
0.0
 42
0.149681024731768
  0
VERTEX
  5
6E4F
  8
0
 62
     0
 10
6.373393554139184
 20
7.972216297565515
 30
0.0
 42
-0.2803153278054762
  0
VERTEX
  5
6E50
  8
0
 62
     0
 10
6.39606149859841
 20
7.942215265906816
 30
0.0
 42
0.3954781235656571
  0
VERTEX
  5
6E51
  8
0
 62
     0
 10
6.434466818656249
 20
7.927314882308702
 30
0.0
 42
-0.2584237702622986
  0
VERTEX
  5
6E52
  8
0
 62
     0
 10
6.476918686773699
 20
7.928516554171887
 30
0.0
 42
0.4981595462756812
  0
VERTEX
  5
6E53
  8
0
 62
     0
 10
6.513339396207034
 20
7.966518580193609
 30
0.0
 42
-0.3159030773534345
  0
VERTEX
  5
6E54
  8
0
 62
     0
 10
6.559017750054069
 20
7.989294754250638
 30
0.0
 42
0.342873563414204
  0
VERTEX
  5
6E55
  8
0
 62
     0
 10
6.590994936946304
 20
8.025339096952736
 30
0.0
 42
-0.3491029469794426
  0
VERTEX
  5
6E56
  8
0
 62
     0
 10
6.638022153097095
 20
8.053482648412503
 30
0.0
 42
0.0252099461408241
  0
VERTEX
  5
6E57
  8
0
 62
     0
 10
6.640960311317738
 20
8.054070000249455
 30
0.0
 42
-0.0396883989554268
  0
SEQEND
  5
6EBD
  8
0
 62
     0
  0
POLYLINE
  5
6BA0
  8
0
 62
     0
 66
     1
 10
0.0
 20
0.0
 30
0.0
  0
VERTEX
  5
6E58
  8
0
 62
     0
 10
6.581238129963182
 20
8.248093925564733
 30
0.0
 42
0.5054601927567275
  0
VERTEX
  5
6E59
  8
0
 62
     0
 10
6.557518769540669
 20
8.269442390148798
 30
0.0
 42
-0.3461996895126241
  0
VERTEX
  5
6E5A
  8
0
 62
     0
 10
6.542975252143119
 20
8.298027156517813
 30
0.0
 42
0.4228580122228971
  0
VERTEX
  5
6E5B
  8
0
 62
     0
 10
6.515550867059639
 20
8.319270732394523
 30
0.0
 42
-0.2805287608253624
  0
VERTEX
  5
6E5C
  8
0
 62
     0
 10
6.499622370502594
 20
8.342801869250247
 30
0.0
 42
0.5238021261318498
  0
VERTEX
  5
6E5D
  8
0
 62
     0
 10
6.466173326715339
 20
8.34556137085425
 30
0.0
 42
-0.3941429555227494
  0
VERTEX
  5
6E5E
  8
0
 62
     0
 10
6.439164719622566
 20
8.351991457526255
 30
0.0
 42
0.5115860822966033
  0
VERTEX
  5
6E5F
  8
0
 62
     0
 10
6.411810166621002
 20
8.33966217285475
 30
0.0
 42
-0.5507376534336023
  0
VERTEX
  5
6E60
  8
0
 62
     0
 10
6.384663491476115
 20
8.31992612948324
 30
0.0
 42
0.6647229560575234
  0
VERTEX
  5
6E61
  8
0
 62
     0
 10
6.358105547583099
 20
8.294756299015583
 30
0.0
 42
-0.6180896239166216
  0
VERTEX
  5
6E62
  8
0
 62
     0
 10
6.343285882675247
 20
8.271008846010174
 30
0.0
 42
0.3158462860203267
  0
VERTEX
  5
6E63
  8
0
 62
     0
 10
6.308382845395672
 20
8.25563163664233
 30
0.0
 42
-0.509549915441466
  0
VERTEX
  5
6E64
  8
0
 62
     0
 10
6.279955152296978
 20
8.22713861260283
 30
0.0
  0
SEQEND
  5
6EBE
  8
0
 62
     0
  0
LINE
  5
6B81
  8
0
 62
     0
 10
6.613127384320652
 20
8.086762800861857
 30
0.0
 11
6.613493646589996
 21
8.087128876603698
 31
0.0
  0
POLYLINE
  5
6B7D
  8
0
 62
     0
 66
     1
 10
0.0
 20
0.0
 30
0.0
  0
VERTEX
  5
6E65
  8
0
 62
     0
 10
6.615965728288472
 20
8.231909291191217
 30
0.0
 42
-0.2085834957308204
  0
VERTEX
  5
6E66
  8
0
 62
     0
 10
6.581388884623284
 20
8.24743640837728
 30
0.0
  0
SEQEND
  5
6EBF
  8
0
 62
     0
  0
ARC
  5
6B30
  8
0
 62
     0
 10
6.327934907919976
 20
8.209810772891261
 30
0.0
 40
0.0458261691971945
 50
176.8410071824388
 51
177.6844299798218
  0
POLYLINE
  5
6B0A
  8
0
 62
     0
 66
     1
 10
0.0
 20
0.0
 30
0.0
  0
VERTEX
  5
6E67
  8
0
 62
     0
 10
6.613127384320652
 20
8.086762800861857
 30
0.0
  0
VERTEX
  5
6E68
  8
0
 62
     0
 10
6.614016345640534
 20
8.086762800861857
 30
0.0
  0
SEQEND
  5
6EC0
  8
0
 62
     0
  0
POLYLINE
  5
6D0C
  8
0
 62
     0
 66
     1
 10
0.0
 20
0.0
 30
0.0
  0
VERTEX
  5
6E69
  8
0
 62
     0
 10
6.282178373397644
 20
8.212336110848147
 30
0.0
 42
0.20520083297051
  0
VERTEX
  5
6E6A
  8
0
 62
     0
 10
6.2816545228701
 20
8.227935224768517
 30
0.0
 42
-0.3461996895126264
  0
SEQEND
  5
6EC1
  8
0
 62
     0
  0
POLYLINE
  5
6D36
  8
0
 62
     0
 66
     1
 10
0.0
 20
0.0
 30
0.0
  0
VERTEX
  5
6E6B
  8
0
 62
     0
 10
6.2816545228701
 20
8.227935224768517
 30
0.0
 42
0.2720428440600704
  0
VERTEX
  5
6E6C
  8
0
 62
     0
 10
6.265097685300375
 20
8.239291909724715
 30
0.0
 42
-0.3461996895126264
  0
VERTEX
  5
6E6D
  8
0
 62
     0
 10
6.258804797153198
 20
8.270740317083932
 30
0.0
 42
0.4228580122228846
  0
VERTEX
  5
6E6E
  8
0
 62
     0
 10
6.238128156367411
 20
8.298594633429014
 30
0.0
 42
-0.2805287608253594
  0
VERTEX
  5
6E6F
  8
0
 62
     0
 10
6.229138303703845
 20
8.325550411165485
 30
0.0
 42
0.523802126131859
  0
VERTEX
  5
6E70
  8
0
 62
     0
 10
6.197673862967964
 20
8.3372312650967
 30
0.0
 42
-0.3941429555227494
  0
VERTEX
  5
6E71
  8
0
 62
     0
 10
6.17340129855139
 20
8.350709153964937
 30
0.0
 42
0.5115860822965906
  0
VERTEX
  5
6E72
  8
0
 62
     0
 10
6.143734834159769
 20
8.346216524342191
 30
0.0
 42
-0.550737653433575
  0
VERTEX
  5
6E73
  8
0
 62
     0
 10
6.11227039342389
 20
8.334535670410977
 30
0.0
 42
0.6647229560575195
  0
VERTEX
  5
6E74
  8
0
 62
     0
 10
6.079906964515878
 20
8.317463669388504
 30
0.0
 42
-0.6180896239166129
  0
VERTEX
  5
6E75
  8
0
 62
     0
 10
6.059230323730089
 20
8.298594633429014
 30
0.0
 42
0.3158462860203221
  0
VERTEX
  5
6E76
  8
0
 62
     0
 10
6.021472994847034
 20
8.293203465197662
 30
0.0
 42
-0.5095499154414944
  0
VERTEX
  5
6E77
  8
0
 62
     0
 10
5.986412630480366
 20
8.273435890629562
 30
0.0
 42
0.4039242761325996
  0
VERTEX
  5
6E78
  8
0
 62
     0
 10
5.954948189744487
 20
8.251871259984346
 30
0.0
 42
-0.4169440887312321
  0
VERTEX
  5
6E79
  8
0
 62
     0
 10
5.927978660811522
 20
8.233002224024853
 30
0.0
 42
0.343275597463894
  0
VERTEX
  5
6E7A
  8
0
 62
     0
 10
5.922584760836475
 20
8.197061165902793
 30
0.0
 42
-0.2099930325106693
  0
VERTEX
  5
6E7B
  8
0
 62
     0
 10
5.928644751246253
 20
8.161991523647133
 30
0.0
 42
0.3714571592956439
  0
VERTEX
  5
6E7C
  8
0
 62
     0
 10
5.948559091440289
 20
8.13110569650277
 30
0.0
 42
-0.2215942542983941
  0
VERTEX
  5
6E7D
  8
0
 62
     0
 10
5.955426131352063
 20
8.095415402190595
 30
0.0
 42
0.2819168232890207
  0
VERTEX
  5
6E7E
  8
0
 62
     0
 10
5.976713856282265
 20
8.071393087491627
 30
0.0
 42
-0.3300792286289643
  0
VERTEX
  5
6E7F
  8
0
 62
     0
 10
5.984267588562126
 20
8.029525636206623
 30
0.0
 42
0.149681024731768
  0
VERTEX
  5
6E80
  8
0
 62
     0
 10
6.007615419654311
 20
8.002757920757508
 30
0.0
 42
-0.2803153278054762
  0
VERTEX
  5
6E81
  8
0
 62
     0
 10
6.021349441362389
 20
7.967754003057985
 30
0.0
 42
0.3954781235656571
  0
VERTEX
  5
6E82
  8
0
 62
     0
 10
6.054311110896421
 20
7.943045332886461
 30
0.0
 42
-0.2584237702622986
  0
VERTEX
  5
6E83
  8
0
 62
     0
 10
6.095513205078392
 20
7.93275006421837
 30
0.0
 42
0.4981595462756812
  0
VERTEX
  5
6E84
  8
0
 62
     0
 10
6.140835511584333
 20
7.959517779667477
 30
0.0
 42
-0.3159030773534345
  0
VERTEX
  5
6E85
  8
0
 62
     0
 10
6.190964693724597
 20
7.969126692863009
 30
0.0
 42
0.342873563414204
  0
VERTEX
  5
6E86
  8
0
 62
     0
 10
6.231480095538485
 20
7.995208052839557
 30
0.0
 42
-0.3491029469794426
  0
VERTEX
  5
6E87
  8
0
 62
     0
 10
6.284356105266552
 20
8.009621454342996
 30
0.0
 42
0.3740456578787247
  0
VERTEX
  5
6E88
  8
0
 62
     0
 10
6.316792074880196
 20
8.031320564804338
 30
0.0
 42
-0.0396883989554038
  0
SEQEND
  5
6EC2
  8
0
 62
     0
  0
POLYLINE
  5
6D56
  8
0
 62
     0
 66
     1
 10
0.0
 20
0.0
 30
0.0
  0
VERTEX
  5
6E89
  8
0
 62
     0
 10
6.316792074880196
 20
8.031320564804338
 30
0.0
 42
0.1133988229172881
  0
VERTEX
  5
6E8A
  8
0
 62
     0
 10
6.317317774800582
 20
8.04462537204252
 30
0.0
 42
-0.0396883989554038
  0
VERTEX
  5
6E8B
  8
0
 62
     0
 10
6.323512857423516
 20
8.061931726603978
 30
0.0
 42
-0.2133940488622079
  0
VERTEX
  5
6E8C
  8
0
 62
     0
 10
6.341655399483411
 20
8.077814095463195
 30
0.0
 42
0.5823944325521825
  0
VERTEX
  5
6E8D
  8
0
 62
     0
 10
6.335348970432227
 20
8.126664056789776
 30
0.0
 42
-0.2975564163808194
  0
VERTEX
  5
6E8E
  8
0
 62
     0
 10
6.319582883275398
 20
8.157392263383935
 30
0.0
 42
0.3380945172826149
  0
VERTEX
  5
6E8F
  8
0
 62
     0
 10
6.312882286063539
 20
8.186938590672822
 30
0.0
 42
-0.2178992437095063
  0
VERTEX
  5
6E90
  8
0
 62
     0
 10
6.28214615796751
 20
8.211662302280823
 30
0.0
  0
SEQEND
  5
6EC3
  8
0
 62
     0
  0
POLYLINE
  5
6D60
  8
0
 62
     0
 66
     1
 10
0.0
 20
0.0
 30
0.0
  0
VERTEX
  5
6E91
  8
0
 62
     0
 10
6.880775652153742
 20
8.296544908011205
 30
0.0
 42
0.5054601927567336
  0
VERTEX
  5
6E92
  8
0
 62
     0
 10
6.852440399106721
 20
8.311224091698028
 30
0.0
 42
-0.3461996895126264
  0
VERTEX
  5
6E93
  8
0
 62
     0
 10
6.831160315669729
 20
8.335219108171843
 30
0.0
 42
0.4228580122228846
  0
VERTEX
  5
6E94
  8
0
 62
     0
 10
6.799266151956651
 20
8.34886274164243
 30
0.0
 42
-0.2805287608253594
  0
VERTEX
  5
6E95
  8
0
 62
     0
 10
6.777919861051023
 20
8.36761820135055
 30
0.0
 42
0.523802126131859
  0
VERTEX
  5
6E96
  8
0
 62
     0
 10
6.744855531629293
 20
8.361855953588114
 30
0.0
 42
-0.3941429555227494
  0
VERTEX
  5
6E97
  8
0
 62
     0
 10
6.717098247670972
 20
8.361269388196773
 30
0.0
 42
0.5115860822965906
  0
VERTEX
  5
6E98
  8
0
 62
     0
 10
6.69373549339946
 20
8.34244215942365
 30
0.0
 42
-0.550737653433575
  0
VERTEX
  5
6E99
  8
0
 62
     0
 10
6.672441171780491
 20
8.316499814769164
 30
0.0
 42
0.6647229560575195
  0
VERTEX
  5
6E9A
  8
0
 62
     0
 10
6.653086441871958
 20
8.285447613884804
 30
0.0
 42
-0.6180896239166129
  0
VERTEX
  5
6E9B
  8
0
 62
     0
 10
6.644732261812228
 20
8.258731108354427
 30
0.0
 42
0.3158462860203221
  0
VERTEX
  5
6E9C
  8
0
 62
     0
 10
6.614833229292465
 20
8.235051403253555
 30
0.0
 42
-0.0336060493609345
  0
VERTEX
  5
6E9D
  8
0
 62
     0
 10
6.615965728288471
 20
8.231909291191217
 30
0.0
 42
0.4039242761325996
  0
SEQEND
  5
6EC4
  8
0
 62
     0
  0
POLYLINE
  5
6D8A
  8
0
 62
     0
 66
     1
 10
0.0
 20
0.0
 30
0.0
  0
VERTEX
  5
6E9E
  8
0
 62
     0
 10
6.615965728288471
 20
8.231909291191217
 30
0.0
 42
-0.4679310339547567
  0
VERTEX
  5
6E9F
  8
0
 62
     0
 10
6.594506930980797
 20
8.200311976793495
 30
0.0
 42
0.4039242761325996
  0
VERTEX
  5
6EA0
  8
0
 62
     0
 10
6.578192216577602
 20
8.165831918504269
 30
0.0
 42
-0.4169440887312321
  0
VERTEX
  5
6EA1
  8
0
 62
     0
 10
6.564402171413809
 20
8.135944953732198
 30
0.0
 42
0.343275597463894
  0
VERTEX
  5
6EA2
  8
0
 62
     0
 10
6.577850550798725
 20
8.102181143109087
 30
0.0
 42
-0.2099930325106693
  0
VERTEX
  5
6EA3
  8
0
 62
     0
 10
6.600753891589308
 20
8.074940726953367
 30
0.0
 42
0.3714571592956439
  0
VERTEX
  5
6EA4
  8
0
 62
     0
 10
6.633516896145652
 20
8.058294382123451
 30
0.0
 42
-0.0498629507275066
  0
VERTEX
  5
6EA5
  8
0
 62
     0
 10
6.640960311317738
 20
8.054070000249455
 30
0.0
 42
0.2819168232890207
  0
SEQEND
  5
6EC5
  8
0
 62
     0
  0
POLYLINE
  5
6D94
  8
0
 62
     0
 66
     1
 10
0.0
 20
0.0
 30
0.0
  0
VERTEX
  5
6EA6
  8
0
 62
     0
 10
6.640960311317738
 20
8.054070000249455
 30
0.0
 42
-0.1698545226251444
  0
VERTEX
  5
6EA7
  8
0
 62
     0
 10
6.657430069643413
 20
8.030924444627987
 30
0.0
 42
0.2819168232890207
  0
VERTEX
  5
6EA8
  8
0
 62
     0
 10
6.687921469816063
 20
8.020898809899384
 30
0.0
 42
-0.3300792286289643
  0
VERTEX
  5
6EA9
  8
0
 62
     0
 10
6.715539967633511
 20
7.988538943911314
 30
0.0
 42
0.149681024731768
  0
VERTEX
  5
6EAA
  8
0
 62
     0
 10
6.749194087357436
 20
7.977179717147068
 30
0.0
 42
-0.2803153278054762
  0
VERTEX
  5
6EAB
  8
0
 62
     0
 10
6.778693226602531
 20
7.953862376166773
 30
0.0
 42
0.3954781235656571
  0
VERTEX
  5
6EAC
  8
0
 62
     0
 10
6.81961450390232
 20
7.949125382999183
 30
0.0
 42
-0.2584237702622986
  0
VERTEX
  5
6EAD
  8
0
 62
     0
 10
6.860392243736763
 20
7.960990502295784
 30
0.0
 42
0.4981595462756812
  0
VERTEX
  5
6EAE
  8
0
 62
     0
 10
6.8860561344289
 20
8.006946859548345
 30
0.0
 42
-0.3159030773534345
  0
VERTEX
  5
6EAF
  8
0
 62
     0
 10
6.924517139707856
 20
8.04050303912504
 30
0.0
 42
0.342873563414204
  0
VERTEX
  5
6EB0
  8
0
 62
     0
 10
6.946374570971054
 20
8.08344471842315
 30
0.0
 42
-0.3491029469794426
  0
VERTEX
  5
6EB1
  8
0
 62
     0
 10
6.984787736511093
 20
8.122534963508793
 30
0.0
 42
0.509035920090975
  0
VERTEX
  5
6EB2
  8
0
 62
     0
 10
6.995624842340888
 20
8.169378352049966
 30
0.0
 42
-0.0396883989554038
  0
VERTEX
  5
6EB3
  8
0
 62
     0
 10
6.992256999497206
 20
8.187448952247307
 30
0.0
 42
-0.2133940488622079
  0
VERTEX
  5
6EB4
  8
0
 62
     0
 10
6.999926928951535
 20
8.210308822219398
 30
0.0
 42
0.5823944325521825
  0
VERTEX
  5
6EB5
  8
0
 62
     0
 10
6.96986796325394
 20
8.24932866781336
 30
0.0
 42
-0.2975564163808194
  0
VERTEX
  5
6EB6
  8
0
 62
     0
 10
6.940767676502016
 20
8.267928815546268
 30
0.0
 42
0.3380945172826149
  0
VERTEX
  5
6EB7
  8
0
 62
     0
 10
6.920093708376605
 20
8.290075384156486
 30
0.0
 42
-0.2178992437095063
  0
VERTEX
  5
6EB8
  8
0
 62
     0
 10
6.881087299813936
 20
8.295946634198282
 30
0.0
  0
SEQEND
  5
6EC6
  8
0
 62
     0
  0
ENDSEC
  0
EOF
