  0
SECTION
  2
HEADER
  9
$ACADVER
  1
AC1009
  9
$DWGCODEPAGE
  3
ansi_1252
  9
$INSBASE
 10
6.783436774572472
 20
8.157411701284868
 30
0.0
  9
$EXTMIN
 10
6.563231055519134
 20
7.943202386025756
 30
0.0
  9
$EXTMAX
 10
7.002893855898893
 20
8.373699771275074
 30
0.0
  9
$LIMMIN
 10
0.0
 20
0.0
  9
$LIMMAX
 10
12.0
 20
9.0
  9
$ORTHOMODE
 70
     0
  9
$REGENMODE
 70
     1
  9
$FILLMODE
 70
     1
  9
$QTEXTMODE
 70
     0
  9
$MIRRTEXT
 70
     1
  9
$DRAGMODE
 70
     2
  9
$LTSCALE
 40
1.0
  9
$OSMODE
 70
    37
  9
$ATTMODE
 70
     1
  9
$TEXTSIZE
 40
0.2
  9
$TRACEWID
 40
0.05
  9
$TEXTSTYLE
  7
STANDARD
  9
$CLAYER
  8
ARQ-MOB
  9
$CELTYPE
  6
BYLAYER
  9
$CECOLOR
 62
   256
  9
$DIMSCALE
 40
1.0
  9
$DIMASZ
 40
0.18
  9
$DIMEXO
 40
0.0625
  9
$DIMDLI
 40
0.38
  9
$DIMRND
 40
0.0
  9
$DIMDLE
 40
0.0
  9
$DIMEXE
 40
0.18
  9
$DIMTP
 40
0.0
  9
$DIMTM
 40
0.0
  9
$DIMTXT
 40
0.18
  9
$DIMCEN
 40
0.09
  9
$DIMTSZ
 40
0.0
  9
$DIMTOL
 70
     0
  9
$DIMLIM
 70
     0
  9
$DIMTIH
 70
     1
  9
$DIMTOH
 70
     1
  9
$DIMSE1
 70
     0
  9
$DIMSE2
 70
     0
  9
$DIMTAD
 70
     0
  9
$DIMZIN
 70
     0
  9
$DIMBLK
  1

  9
$DIMASO
 70
     1
  9
$DIMSHO
 70
     1
  9
$DIMPOST
  1

  9
$DIMAPOST
  1

  9
$DIMALT
 70
     0
  9
$DIMALTD
 70
     2
  9
$DIMALTF
 40
25.4
  9
$DIMLFAC
 40
1.0
  9
$DIMTOFL
 70
     0
  9
$DIMTVP
 40
0.0
  9
$DIMTIX
 70
     0
  9
$DIMSOXD
 70
     0
  9
$DIMSAH
 70
     0
  9
$DIMBLK1
  1

  9
$DIMBLK2
  1

  9
$DIMSTYLE
  2
STANDARD
  9
$DIMCLRD
 70
     0
  9
$DIMCLRE
 70
     0
  9
$DIMCLRT
 70
     0
  9
$DIMTFAC
 40
1.0
  9
$DIMGAP
 40
0.09
  9
$LUNITS
 70
     2
  9
$LUPREC
 70
     4
  9
$SKETCHINC
 40
0.1
  9
$FILLETRAD
 40
0.0
  9
$AUNITS
 70
     0
  9
$AUPREC
 70
     0
  9
$MENU
  1
acad
  9
$ELEVATION
 40
0.0
  9
$PELEVATION
 40
0.0
  9
$THICKNESS
 40
0.0
  9
$LIMCHECK
 70
     0
  9
$CHAMFERA
 40
0.005
  9
$CHAMFERB
 40
0.005
  9
$SKPOLY
 70
     0
  9
$TDCREATE
 40
2450127.385295255
  9
$TDUPDATE
 40
2458028.632627315
  9
$TDINDWG
 40
0.0888901157
  9
$TDUSRTIMER
 40
0.0888901157
  9
$USRTIMER
 70
     1
  9
$ANGBASE
 50
0.0
  9
$ANGDIR
 70
     0
  9
$PDMODE
 70
    35
  9
$PDSIZE
 40
0.0
  9
$PLINEWID
 40
0.0
  9
$COORDS
 70
     1
  9
$SPLFRAME
 70
     0
  9
$SPLINETYPE
 70
     6
  9
$SPLINESEGS
 70
     8
  9
$ATTDIA
 70
     0
  9
$ATTREQ
 70
     1
  9
$HANDLING
 70
     1
  9
$HANDSEED
  5
C1
  9
$SURFTAB1
 70
     6
  9
$SURFTAB2
 70
     6
  9
$SURFTYPE
 70
     6
  9
$SURFU
 70
     6
  9
$SURFV
 70
     6
  9
$UCSNAME
  2

  9
$UCSORG
 10
0.0
 20
0.0
 30
0.0
  9
$UCSXDIR
 10
1.0
 20
0.0
 30
0.0
  9
$UCSYDIR
 10
0.0
 20
1.0
 30
0.0
  9
$PUCSNAME
  2

  9
$PUCSORG
 10
0.0
 20
0.0
 30
0.0
  9
$PUCSXDIR
 10
1.0
 20
0.0
 30
0.0
  9
$PUCSYDIR
 10
0.0
 20
1.0
 30
0.0
  9
$USERI1
 70
     0
  9
$USERI2
 70
     0
  9
$USERI3
 70
     0
  9
$USERI4
 70
     0
  9
$USERI5
 70
     0
  9
$USERR1
 40
0.0
  9
$USERR2
 40
0.0
  9
$USERR3
 40
0.0
  9
$USERR4
 40
0.0
  9
$USERR5
 40
0.0
  9
$WORLDVIEW
 70
     1
  9
$SHADEDGE
 70
     3
  9
$SHADEDIF
 70
    70
  9
$TILEMODE
 70
     1
  9
$MAXACTVP
 70
    16
  9
$PLIMCHECK
 70
     0
  9
$PEXTMIN
 10
1.000000000000000E+20
 20
1.000000000000000E+20
 30
1.000000000000000E+20
  9
$PEXTMAX
 10
-1.000000000000000E+20
 20
-1.000000000000000E+20
 30
-1.000000000000000E+20
  9
$PLIMMIN
 10
0.0
 20
0.0
  9
$PLIMMAX
 10
12.0
 20
9.0
  9
$UNITMODE
 70
     0
  9
$VISRETAIN
 70
     0
  9
$PLINEGEN
 70
     0
  9
$PSLTSCALE
 70
     1
  0
ENDSEC
  0
SECTION
  2
TABLES
  0
TABLE
  2
VPORT
 70
     1
  0
VPORT
  2
*ACTIVE
 70
     0
 10
0.0
 20
0.0
 11
1.0
 21
1.0
 12
6.780429958780761
 22
8.187809339691913
 13
0.0
 23
0.0
 14
1.0
 24
1.0
 15
0.0
 25
0.0
 16
0.0
 26
0.0
 36
1.0
 17
0.0
 27
0.0
 37
0.0
 40
0.5842610702688222
 41
1.503537735849057
 42
50.0
 43
0.0
 44
0.0
 50
0.0
 51
0.0
 71
     0
 72
   100
 73
     1
 74
     1
 75
     0
 76
     0
 77
     0
 78
     0
  0
ENDTAB
  0
TABLE
  2
LTYPE
 70
     1
  0
LTYPE
  2
CONTINUOUS
 70
     0
  3
Solid line
 72
    65
 73
     0
 40
0.0
  0
ENDTAB
  0
TABLE
  2
LAYER
 70
     2
  0
LAYER
  2
0
 70
     0
 62
     7
  6
CONTINUOUS
  0
LAYER
  2
ARQ-MOB
 70
     0
 62
     2
  6
CONTINUOUS
  0
ENDTAB
  0
TABLE
  2
STYLE
 70
     1
  0
STYLE
  2
STANDARD
 70
     0
 40
0.0
 41
1.0
 50
0.0
 71
     0
 42
0.2
  3
txt
  4

  0
ENDTAB
  0
TABLE
  2
VIEW
 70
     0
  0
ENDTAB
  0
TABLE
  2
UCS
 70
     0
  0
ENDTAB
  0
TABLE
  2
APPID
 70
     1
  0
APPID
  2
ACAD
 70
     0
  0
ENDTAB
  0
TABLE
  2
DIMSTYLE
 70
     1
  0
DIMSTYLE
  2
STANDARD
 70
     0
  3

  4

  5

  6

  7

 40
1.0
 41
0.18
 42
0.0625
 43
0.38
 44
0.18
 45
0.0
 46
0.0
 47
0.0
 48
0.0
140
0.18
141
0.09
142
0.0
143
25.4
144
1.0
145
0.0
146
1.0
147
0.09
 71
     0
 72
     0
 73
     1
 74
     1
 75
     0
 76
     0
 77
     0
 78
     0
170
     0
171
     2
172
     0
173
     0
174
     0
175
     0
176
     0
177
     0
178
     0
  0
ENDTAB
  0
ENDSEC
  0
SECTION
  2
BLOCKS
  0
BLOCK
  8
0
  2
$MODEL_SPACE
 70
     0
 10
0.0
 20
0.0
 30
0.0
  3
$MODEL_SPACE
  1

  0
ENDBLK
  5
9
  8
0
  0
BLOCK
 67
     1
  8
0
  2
$PAPER_SPACE
 70
     0
 10
0.0
 20
0.0
 30
0.0
  3
$PAPER_SPACE
  1

  0
ENDBLK
  5
E
 67
     1
  8
0
  0
ENDSEC
  0
SECTION
  2
ENTITIES
  0
POLYLINE
  5
24
  8
0
 62
     0
 66
     1
 10
0.0
 20
0.0
 30
0.0
  0
VERTEX
  5
90
  8
0
 62
     0
 10
6.613127384320652
 20
8.086762800861857
 30
0.0
  0
VERTEX
  5
91
  8
0
 62
     0
 10
6.614016345640534
 20
8.086762800861857
 30
0.0
  0
SEQEND
  5
BE
  8
0
 62
     0
  0
POLYLINE
  5
26
  8
0
 62
     0
 66
     1
 10
0.0
 20
0.0
 30
0.0
  0
VERTEX
  5
92
  8
0
 62
     0
 10
6.880775652153742
 20
8.296544908011205
 30
0.0
 42
0.5054601927567336
  0
VERTEX
  5
93
  8
0
 62
     0
 10
6.852440399106721
 20
8.311224091698028
 30
0.0
 42
-0.3461996895126264
  0
VERTEX
  5
94
  8
0
 62
     0
 10
6.831160315669729
 20
8.335219108171843
 30
0.0
 42
0.4228580122228846
  0
VERTEX
  5
95
  8
0
 62
     0
 10
6.799266151956651
 20
8.34886274164243
 30
0.0
 42
-0.2805287608253594
  0
VERTEX
  5
96
  8
0
 62
     0
 10
6.777919861051023
 20
8.36761820135055
 30
0.0
 42
0.523802126131859
  0
VERTEX
  5
97
  8
0
 62
     0
 10
6.744855531629293
 20
8.361855953588114
 30
0.0
 42
-0.3941429555227494
  0
VERTEX
  5
98
  8
0
 62
     0
 10
6.717098247670972
 20
8.361269388196773
 30
0.0
 42
0.5115860822965906
  0
VERTEX
  5
99
  8
0
 62
     0
 10
6.69373549339946
 20
8.34244215942365
 30
0.0
 42
-0.550737653433575
  0
VERTEX
  5
9A
  8
0
 62
     0
 10
6.672441171780491
 20
8.316499814769164
 30
0.0
 42
0.6647229560575195
  0
VERTEX
  5
9B
  8
0
 62
     0
 10
6.653086441871958
 20
8.285447613884804
 30
0.0
 42
-0.6180896239166129
  0
VERTEX
  5
9C
  8
0
 62
     0
 10
6.644732261812228
 20
8.258731108354427
 30
0.0
 42
0.3158462860203221
  0
VERTEX
  5
9D
  8
0
 62
     0
 10
6.614833229292465
 20
8.235051403253555
 30
0.0
 42
-0.5095499154414944
  0
VERTEX
  5
9E
  8
0
 62
     0
 10
6.594506930980797
 20
8.200311976793495
 30
0.0
 42
0.4039242761325996
  0
VERTEX
  5
9F
  8
0
 62
     0
 10
6.578192216577602
 20
8.165831918504269
 30
0.0
 42
-0.4169440887312321
  0
VERTEX
  5
A0
  8
0
 62
     0
 10
6.564402171413809
 20
8.135944953732198
 30
0.0
 42
0.343275597463894
  0
VERTEX
  5
A1
  8
0
 62
     0
 10
6.577850550798725
 20
8.102181143109087
 30
0.0
 42
-0.2099930325106693
  0
VERTEX
  5
A2
  8
0
 62
     0
 10
6.600753891589308
 20
8.074940726953367
 30
0.0
 42
0.3714571592956439
  0
VERTEX
  5
A3
  8
0
 62
     0
 10
6.633516896145652
 20
8.058294382123451
 30
0.0
 42
-0.2215942542983941
  0
VERTEX
  5
A4
  8
0
 62
     0
 10
6.657430069643413
 20
8.030924444627987
 30
0.0
 42
0.2819168232890207
  0
VERTEX
  5
A5
  8
0
 62
     0
 10
6.687921469816063
 20
8.020898809899384
 30
0.0
 42
-0.3300792286289643
  0
VERTEX
  5
A6
  8
0
 62
     0
 10
6.715539967633511
 20
7.988538943911314
 30
0.0
 42
0.149681024731768
  0
VERTEX
  5
A7
  8
0
 62
     0
 10
6.749194087357436
 20
7.977179717147068
 30
0.0
 42
-0.2803153278054762
  0
VERTEX
  5
A8
  8
0
 62
     0
 10
6.778693226602531
 20
7.953862376166773
 30
0.0
 42
0.3954781235656571
  0
VERTEX
  5
A9
  8
0
 62
     0
 10
6.81961450390232
 20
7.949125382999183
 30
0.0
 42
-0.2584237702622986
  0
VERTEX
  5
AA
  8
0
 62
     0
 10
6.860392243736763
 20
7.960990502295784
 30
0.0
 42
0.4981595462756812
  0
VERTEX
  5
AB
  8
0
 62
     0
 10
6.8860561344289
 20
8.006946859548345
 30
0.0
 42
-0.3159030773534345
  0
VERTEX
  5
AC
  8
0
 62
     0
 10
6.924517139707856
 20
8.04050303912504
 30
0.0
 42
0.342873563414204
  0
VERTEX
  5
AD
  8
0
 62
     0
 10
6.946374570971054
 20
8.08344471842315
 30
0.0
 42
-0.3491029469794426
  0
VERTEX
  5
AE
  8
0
 62
     0
 10
6.984787736511093
 20
8.122534963508793
 30
0.0
 42
0.509035920090975
  0
VERTEX
  5
AF
  8
0
 62
     0
 10
6.995624842340888
 20
8.169378352049966
 30
0.0
 42
-0.0396883989554038
  0
VERTEX
  5
B0
  8
0
 62
     0
 10
6.992256999497206
 20
8.187448952247307
 30
0.0
 42
-0.2133940488622079
  0
VERTEX
  5
B1
  8
0
 62
     0
 10
6.999926928951535
 20
8.210308822219398
 30
0.0
 42
0.5823944325521825
  0
VERTEX
  5
B2
  8
0
 62
     0
 10
6.96986796325394
 20
8.24932866781336
 30
0.0
 42
-0.2975564163808194
  0
VERTEX
  5
B3
  8
0
 62
     0
 10
6.940767676502016
 20
8.267928815546268
 30
0.0
 42
0.3380945172826149
  0
VERTEX
  5
B4
  8
0
 62
     0
 10
6.920093708376605
 20
8.290075384156486
 30
0.0
 42
-0.2178992437095063
  0
VERTEX
  5
B5
  8
0
 62
     0
 10
6.881087299813936
 20
8.295946634198282
 30
0.0
  0
SEQEND
  5
BF
  8
0
 62
     0
  0
LINE
  5
27
  8
0
 62
     0
 10
6.613127384320652
 20
8.086762800861857
 30
0.0
 11
6.613493646589996
 21
8.087128876603698
 31
0.0
  0
POLYLINE
  5
28
  8
0
 62
     0
 66
     1
 10
0.0
 20
0.0
 30
0.0
 70
     1
  0
VERTEX
  5
B6
  8
0
 62
     0
 10
6.94923235780055
 20
8.218250078540104
 30
0.0
  0
VERTEX
  5
B7
  8
0
 62
     0
 10
6.785413424771255
 20
8.332981753247408
 30
0.0
 42
0.4142135623730949
  0
VERTEX
  5
B8
  8
0
 62
     0
 10
6.715775772837103
 20
8.32070993866691
 30
0.0
  0
VERTEX
  5
B9
  8
0
 62
     0
 10
6.601044098129798
 20
8.156891005637616
 30
0.0
 42
0.4142135623730949
  0
VERTEX
  5
BA
  8
0
 62
     0
 10
6.613315912710295
 20
8.087253353703465
 30
0.0
  0
VERTEX
  5
BB
  8
0
 62
     0
 10
6.777134845739592
 20
7.972521678996157
 30
0.0
 42
0.4142135623730951
  0
VERTEX
  5
BC
  8
0
 62
     0
 10
6.846772497673744
 20
7.984793493576655
 30
0.0
  0
VERTEX
  5
BD
  8
0
 62
     0
 10
6.961504172381048
 20
8.148612426605952
 30
0.0
 42
0.4142135623730951
  0
SEQEND
  5
C0
  8
0
 62
     0
  0
ENDSEC
  0
EOF
