  0
SECTION
  2
HEADER
  9
$ACADVER
  1
AC1009
  9
$DWGCODEPAGE
  3
ansi_1252
  9
$INSBASE
 10
27.39828899238669
 20
37.17027342720833
 30
0.0
  9
$EXTMIN
 10
27.48794257179245
 20
37.30826131999176
 30
0.0
  9
$EXTMAX
 10
28.61294257179244
 20
38.05826131999176
 30
0.0
  9
$LIMMIN
 10
0.0
 20
0.0
  9
$LIMMAX
 10
12.0
 20
9.0
  9
$ORTHOMODE
 70
     0
  9
$REGENMODE
 70
     1
  9
$FILLMODE
 70
     1
  9
$QTEXTMODE
 70
     0
  9
$MIRRTEXT
 70
     1
  9
$DRAGMODE
 70
     2
  9
$LTSCALE
 40
0.5
  9
$OSMODE
 70
    37
  9
$ATTMODE
 70
     1
  9
$TEXTSIZE
 40
0.2
  9
$TRACEWID
 40
0.05
  9
$TEXTSTYLE
  7
STANDARD
  9
$CLAYER
  8
0
  9
$CELTYPE
  6
BYLAYER
  9
$CECOLOR
 62
   256
  9
$DIMSCALE
 40
1.0
  9
$DIMASZ
 40
0.05
  9
$DIMEXO
 40
0.0625
  9
$DIMDLI
 40
0.38
  9
$DIMRND
 40
0.0
  9
$DIMDLE
 40
0.0
  9
$DIMEXE
 40
0.18
  9
$DIMTP
 40
0.0
  9
$DIMTM
 40
0.0
  9
$DIMTXT
 40
0.1
  9
$DIMCEN
 40
0.09
  9
$DIMTSZ
 40
0.0
  9
$DIMTOL
 70
     0
  9
$DIMLIM
 70
     0
  9
$DIMTIH
 70
     0
  9
$DIMTOH
 70
     0
  9
$DIMSE1
 70
     0
  9
$DIMSE2
 70
     0
  9
$DIMTAD
 70
     1
  9
$DIMZIN
 70
     0
  9
$DIMBLK
  1

  9
$DIMASO
 70
     1
  9
$DIMSHO
 70
     1
  9
$DIMPOST
  1

  9
$DIMAPOST
  1

  9
$DIMALT
 70
     0
  9
$DIMALTD
 70
     2
  9
$DIMALTF
 40
25.4
  9
$DIMLFAC
 40
1.0
  9
$DIMTOFL
 70
     0
  9
$DIMTVP
 40
0.0
  9
$DIMTIX
 70
     1
  9
$DIMSOXD
 70
     0
  9
$DIMSAH
 70
     0
  9
$DIMBLK1
  1

  9
$DIMBLK2
  1

  9
$DIMSTYLE
  2
STANDARD
  9
$DIMCLRD
 70
     0
  9
$DIMCLRE
 70
     0
  9
$DIMCLRT
 70
     0
  9
$DIMTFAC
 40
1.8
  9
$DIMGAP
 40
0.09
  9
$LUNITS
 70
     2
  9
$LUPREC
 70
     2
  9
$SKETCHINC
 40
0.1
  9
$FILLETRAD
 40
0.0
  9
$AUNITS
 70
     0
  9
$AUPREC
 70
     0
  9
$MENU
  1
acad
  9
$ELEVATION
 40
0.0
  9
$PELEVATION
 40
0.0
  9
$THICKNESS
 40
0.0
  9
$LIMCHECK
 70
     0
  9
$CHAMFERA
 40
0.1
  9
$CHAMFERB
 40
0.1
  9
$SKPOLY
 70
     0
  9
$TDCREATE
 40
2450022.607615741
  9
$TDUPDATE
 40
2458028.632662037
  9
$TDINDWG
 40
0.0009904398
  9
$TDUSRTIMER
 40
0.0009904398
  9
$USRTIMER
 70
     1
  9
$ANGBASE
 50
0.0
  9
$ANGDIR
 70
     0
  9
$PDMODE
 70
     0
  9
$PDSIZE
 40
0.0
  9
$PLINEWID
 40
0.0
  9
$COORDS
 70
     1
  9
$SPLFRAME
 70
     0
  9
$SPLINETYPE
 70
     6
  9
$SPLINESEGS
 70
     8
  9
$ATTDIA
 70
     0
  9
$ATTREQ
 70
     1
  9
$HANDLING
 70
     1
  9
$HANDSEED
  5
147
  9
$SURFTAB1
 70
     6
  9
$SURFTAB2
 70
     6
  9
$SURFTYPE
 70
     6
  9
$SURFU
 70
     6
  9
$SURFV
 70
     6
  9
$UCSNAME
  2

  9
$UCSORG
 10
0.0
 20
0.0
 30
0.0
  9
$UCSXDIR
 10
1.0
 20
0.0
 30
0.0
  9
$UCSYDIR
 10
0.0
 20
1.0
 30
0.0
  9
$PUCSNAME
  2

  9
$PUCSORG
 10
0.0
 20
0.0
 30
0.0
  9
$PUCSXDIR
 10
1.0
 20
0.0
 30
0.0
  9
$PUCSYDIR
 10
0.0
 20
1.0
 30
0.0
  9
$USERI1
 70
     0
  9
$USERI2
 70
     0
  9
$USERI3
 70
     0
  9
$USERI4
 70
     0
  9
$USERI5
 70
     0
  9
$USERR1
 40
0.0
  9
$USERR2
 40
0.0
  9
$USERR3
 40
0.0
  9
$USERR4
 40
0.0
  9
$USERR5
 40
0.0
  9
$WORLDVIEW
 70
     1
  9
$SHADEDGE
 70
     3
  9
$SHADEDIF
 70
    70
  9
$TILEMODE
 70
     1
  9
$MAXACTVP
 70
    16
  9
$PLIMCHECK
 70
     0
  9
$PEXTMIN
 10
1.000000000000000E+20
 20
1.000000000000000E+20
 30
1.000000000000000E+20
  9
$PEXTMAX
 10
-1.000000000000000E+20
 20
-1.000000000000000E+20
 30
-1.000000000000000E+20
  9
$PLIMMIN
 10
0.0
 20
0.0
  9
$PLIMMAX
 10
12.0
 20
9.0
  9
$UNITMODE
 70
     0
  9
$VISRETAIN
 70
     0
  9
$PLINEGEN
 70
     0
  9
$PSLTSCALE
 70
     1
  0
ENDSEC
  0
SECTION
  2
TABLES
  0
TABLE
  2
VPORT
 70
     1
  0
VPORT
  2
*ACTIVE
 70
     0
 10
0.0
 20
0.0
 11
1.0
 21
1.0
 12
28.05022393946666
 22
37.82136085966828
 13
0.0
 23
0.0
 14
1.0
 24
1.0
 15
0.0
 25
0.0
 16
0.0
 26
0.0
 36
1.0
 17
0.0
 27
0.0
 37
0.0
 40
1.041676228187665
 41
1.376889848812095
 42
50.0
 43
0.0
 44
0.0
 50
0.0
 51
0.0
 71
     0
 72
   100
 73
     1
 74
     0
 75
     0
 76
     0
 77
     0
 78
     0
  0
ENDTAB
  0
TABLE
  2
LTYPE
 70
     1
  0
LTYPE
  2
CONTINUOUS
 70
     0
  3
Solid line
 72
    65
 73
     0
 40
0.0
  0
ENDTAB
  0
TABLE
  2
LAYER
 70
     1
  0
LAYER
  2
0
 70
     0
 62
     7
  6
CONTINUOUS
  0
ENDTAB
  0
TABLE
  2
STYLE
 70
     1
  0
STYLE
  2
STANDARD
 70
     0
 40
0.0
 41
1.0
 50
0.0
 71
     0
 42
0.2
  3
txt
  4

  0
ENDTAB
  0
TABLE
  2
VIEW
 70
     0
  0
ENDTAB
  0
TABLE
  2
UCS
 70
     0
  0
ENDTAB
  0
TABLE
  2
APPID
 70
     1
  0
APPID
  2
ACAD
 70
     0
  0
ENDTAB
  0
TABLE
  2
DIMSTYLE
 70
     1
  0
DIMSTYLE
  2
STANDARD
 70
     0
  3

  4

  5

  6

  7

 40
1.0
 41
0.18
 42
0.0625
 43
0.38
 44
0.18
 45
0.0
 46
0.0
 47
0.0
 48
0.0
140
0.18
141
0.09
142
0.0
143
25.4
144
1.0
145
0.0
146
1.0
147
0.09
 71
     0
 72
     0
 73
     1
 74
     1
 75
     0
 76
     0
 77
     0
 78
     0
170
     0
171
     2
172
     0
173
     0
174
     0
175
     0
176
     0
177
     0
178
     0
  0
ENDTAB
  0
ENDSEC
  0
SECTION
  2
BLOCKS
  0
BLOCK
  8
0
  2
$MODEL_SPACE
 70
     0
 10
0.0
 20
0.0
 30
0.0
  3
$MODEL_SPACE
  1

  0
ENDBLK
  5
22
  8
0
  0
BLOCK
 67
     1
  8
0
  2
$PAPER_SPACE
 70
     0
 10
0.0
 20
0.0
 30
0.0
  3
$PAPER_SPACE
  1

  0
ENDBLK
  5
20
 67
     1
  8
0
  0
ENDSEC
  0
SECTION
  2
ENTITIES
  0
LINE
  5
25
  8
0
 62
     0
 10
27.48794257179245
 20
37.30826131999176
 30
0.0
 11
28.61294257179244
 21
37.30826131999176
 31
0.0
  0
LINE
  5
26
  8
0
 62
     0
 10
28.61294257179244
 20
38.05826131999176
 30
0.0
 11
27.48794257179245
 21
38.05826131999176
 31
0.0
  0
LINE
  5
27
  8
0
 62
     0
 10
28.58169257179245
 20
38.02701131999176
 30
0.0
 11
27.51919257179244
 21
38.02701131999176
 31
0.0
  0
LINE
  5
28
  8
0
 62
     0
 10
27.51919257179244
 20
37.33951131999176
 30
0.0
 11
28.58169257179245
 21
37.33951131999176
 31
0.0
  0
LINE
  5
29
  8
0
 62
     0
 10
27.48794257179245
 20
38.05826131999176
 30
0.0
 11
27.48794257179245
 21
37.30826131999176
 31
0.0
  0
LINE
  5
2A
  8
0
 62
     0
 10
27.51919257179244
 20
38.02701131999176
 30
0.0
 11
27.51919257179244
 21
37.33951131999176
 31
0.0
  0
LINE
  5
2B
  8
0
 62
     0
 10
27.51919257179244
 20
37.33951131999176
 30
0.0
 11
27.48794257179245
 21
37.30826131999176
 31
0.0
  0
LINE
  5
2C
  8
0
 62
     0
 10
27.51919257179244
 20
38.02701131999176
 30
0.0
 11
27.48794257179245
 21
38.05826131999176
 31
0.0
  0
POLYLINE
  5
2D
  8
0
 62
     0
 66
     1
 10
0.0
 20
0.0
 30
0.0
  0
VERTEX
  5
113
  8
0
 62
     0
 10
28.40067748235171
 20
37.92701131999177
 30
0.0
  0
VERTEX
  5
114
  8
0
 62
     0
 10
28.43539880765222
 20
37.84318662554771
 30
0.0
  0
VERTEX
  5
115
  8
0
 62
     0
 10
28.28141010867391
 20
37.77940241797869
 30
0.0
  0
VERTEX
  5
116
  8
0
 62
     0
 10
28.38779595749548
 20
37.52256425890907
 30
0.0
  0
VERTEX
  5
117
  8
0
 62
     0
 10
28.18728842596633
 20
37.43951131999174
 30
0.0
  0
SEQEND
  5
13E
  8
0
 62
     0
  0
POLYLINE
  5
34
  8
0
 62
     0
 66
     1
 10
0.0
 20
0.0
 30
0.0
  0
VERTEX
  5
118
  8
0
 62
     0
 10
28.24242776297065
 20
37.92701131999177
 30
0.0
  0
VERTEX
  5
119
  8
0
 62
     0
 10
28.26203267791831
 20
37.90740640504411
 30
0.0
  0
VERTEX
  5
11A
  8
0
 62
     0
 10
28.1441748301774
 20
37.78954855730318
 30
0.0
  0
VERTEX
  5
11B
  8
0
 62
     0
 10
28.3407502467276
 20
37.59297314075299
 30
0.0
  0
VERTEX
  5
11C
  8
0
 62
     0
 10
28.18728842596633
 20
37.43951131999173
 30
0.0
  0
SEQEND
  5
13F
  8
0
 62
     0
  0
LINE
  5
3B
  8
0
 62
     0
 10
28.61294257179244
 20
37.30826131999176
 30
0.0
 11
28.61294257179244
 21
38.05826131999176
 31
0.0
  0
LINE
  5
3C
  8
0
 62
     0
 10
28.58169257179245
 20
37.33951131999176
 30
0.0
 11
28.58169257179245
 21
38.02701131999176
 31
0.0
  0
LINE
  5
3D
  8
0
 62
     0
 10
28.48169257179245
 20
37.43951131999176
 30
0.0
 11
28.48169257179245
 21
37.92701131999177
 31
0.0
  0
LINE
  5
3E
  8
0
 62
     0
 10
27.61919257179245
 20
37.92701131999177
 30
0.0
 11
27.61919257179245
 21
37.43951131999176
 31
0.0
  0
POLYLINE
  5
3F
  8
0
 62
     0
 66
     1
 10
0.0
 20
0.0
 30
0.0
  0
VERTEX
  5
11D
  8
0
 62
     0
 10
28.01302606829704
 20
37.92701131999177
 30
0.0
  0
VERTEX
  5
11E
  8
0
 62
     0
 10
28.07728741338304
 20
37.90039339932081
 30
0.0
  0
VERTEX
  5
11F
  8
0
 62
     0
 10
28.01350320581403
 20
37.74640470034249
 30
0.0
  0
VERTEX
  5
120
  8
0
 62
     0
 10
28.27034136488366
 20
37.6400188515209
 30
0.0
  0
VERTEX
  5
121
  8
0
 62
     0
 10
28.18728842596633
 20
37.43951131999173
 30
0.0
  0
SEQEND
  5
140
  8
0
 62
     0
  0
POLYLINE
  5
46
  8
0
 62
     0
 66
     1
 10
0.0
 20
0.0
 30
0.0
  0
VERTEX
  5
122
  8
0
 62
     0
 10
27.61919257179245
 20
37.90131747929873
 30
0.0
  0
VERTEX
  5
123
  8
0
 62
     0
 10
27.96175054731736
 20
37.85621886625238
 30
0.0
  0
VERTEX
  5
124
  8
0
 62
     0
 10
27.93999494194323
 20
37.69096863725694
 30
0.0
  0
VERTEX
  5
125
  8
0
 62
     0
 10
28.21561623676954
 20
37.65468240540478
 30
0.0
  0
VERTEX
  5
126
  8
0
 62
     0
 10
28.18728842596633
 20
37.43951131999174
 30
0.0
  0
SEQEND
  5
141
  8
0
 62
     0
  0
POLYLINE
  5
4D
  8
0
 62
     0
 66
     1
 10
0.0
 20
0.0
 30
0.0
  0
VERTEX
  5
127
  8
0
 62
     0
 10
27.61919257179245
 20
37.82321527492611
 30
0.0
  0
VERTEX
  5
128
  8
0
 62
     0
 10
27.9092888058519
 20
37.82321527492611
 30
0.0
  0
VERTEX
  5
129
  8
0
 62
     0
 10
27.90928880585191
 20
37.6565391082188
 30
0.0
  0
VERTEX
  5
12A
  8
0
 62
     0
 10
28.18728842596633
 20
37.65653910821879
 30
0.0
  0
VERTEX
  5
12B
  8
0
 62
     0
 10
28.18728842596633
 20
37.43951131999174
 30
0.0
  0
SEQEND
  5
142
  8
0
 62
     0
  0
POLYLINE
  5
54
  8
0
 62
     0
 66
     1
 10
0.0
 20
0.0
 30
0.0
  0
VERTEX
  5
12C
  8
0
 62
     0
 10
27.61919257179245
 20
37.75173500315665
 30
0.0
  0
VERTEX
  5
12D
  8
0
 62
     0
 10
27.86158371496265
 20
37.78364640254806
 30
0.0
  0
VERTEX
  5
12E
  8
0
 62
     0
 10
27.8833393203368
 20
37.61839617355262
 30
0.0
  0
VERTEX
  5
12F
  8
0
 62
     0
 10
28.15896061516311
 20
37.65468240540476
 30
0.0
  0
VERTEX
  5
130
  8
0
 62
     0
 10
28.18728842596633
 20
37.43951131999174
 30
0.0
  0
SEQEND
  5
143
  8
0
 62
     0
  0
POLYLINE
  5
5B
  8
0
 62
     0
 66
     1
 10
0.0
 20
0.0
 30
0.0
  0
VERTEX
  5
131
  8
0
 62
     0
 10
27.61919257179245
 20
37.68453005951506
 30
0.0
  0
VERTEX
  5
132
  8
0
 62
     0
 10
27.81945152198108
 20
37.73818928349522
 30
0.0
  0
VERTEX
  5
133
  8
0
 62
     0
 10
27.86259048828962
 20
37.57719246944576
 30
0.0
  0
VERTEX
  5
134
  8
0
 62
     0
 10
28.1311175010567
 20
37.64914406566264
 30
0.0
  0
VERTEX
  5
135
  8
0
 62
     0
 10
28.18728842596633
 20
37.43951131999173
 30
0.0
  0
SEQEND
  5
144
  8
0
 62
     0
  0
POLYLINE
  5
62
  8
0
 62
     0
 66
     1
 10
0.0
 20
0.0
 30
0.0
  0
VERTEX
  5
136
  8
0
 62
     0
 10
27.95237924074268
 20
37.43951131999176
 30
0.0
  0
VERTEX
  5
137
  8
0
 62
     0
 10
27.98678089443717
 20
37.52256425890907
 30
0.0
  0
VERTEX
  5
138
  8
0
 62
     0
 10
28.18728842596634
 20
37.43951131999174
 30
0.0
  0
SEQEND
  5
145
  8
0
 62
     0
  0
POLYLINE
  5
67
  8
0
 62
     0
 66
     1
 10
0.0
 20
0.0
 30
0.0
  0
VERTEX
  5
139
  8
0
 62
     0
 10
27.61919257179245
 20
37.61951648050729
 30
0.0
  0
VERTEX
  5
13A
  8
0
 62
     0
 10
27.78361312041036
 20
37.68762170167765
 30
0.0
  0
VERTEX
  5
13B
  8
0
 62
     0
 10
27.84739732797937
 20
37.53363300269933
 30
0.0
  0
VERTEX
  5
13C
  8
0
 62
     0
 10
28.104235487049
 20
37.6400188515209
 30
0.0
  0
VERTEX
  5
13D
  8
0
 62
     0
 10
28.18728842596633
 20
37.43951131999173
 30
0.0
  0
SEQEND
  5
146
  8
0
 62
     0
  0
LINE
  5
6E
  8
0
 62
     0
 10
27.61919257179245
 20
37.43951131999176
 30
0.0
 11
28.48169257179245
 21
37.43951131999176
 31
0.0
  0
LINE
  5
6F
  8
0
 62
     0
 10
28.58169257179245
 20
37.33951131999176
 30
0.0
 11
28.61294257179244
 21
37.30826131999176
 31
0.0
  0
LINE
  5
70
  8
0
 62
     0
 10
28.48169257179245
 20
37.92701131999177
 30
0.0
 11
27.61919257179245
 21
37.92701131999177
 31
0.0
  0
LINE
  5
71
  8
0
 62
     0
 10
28.58169257179245
 20
38.02701131999176
 30
0.0
 11
28.61294257179244
 21
38.05826131999176
 31
0.0
  0
ENDSEC
  0
EOF
