  0
SECTION
  2
HEADER
  9
$ACADVER
  1
AC1009
  9
$DWGCODEPAGE
  3
ansi_1252
  9
$INSBASE
 10
0.0
 20
0.0
 30
0.0
  9
$EXTMIN
 10
-0.0146473199299635
 20
-0.0109854899475295
 30
-0.0015258207003583
  9
$EXTMAX
 10
3.061523999857627
 20
0.6756595995691441
 30
0.0000000349246037
  9
$LIMMIN
 10
0.0
 20
0.0
  9
$LIMMAX
 10
480.0
 20
360.0
  9
$ORTHOMODE
 70
     1
  9
$REGENMODE
 70
     0
  9
$FILLMODE
 70
     0
  9
$QTEXTMODE
 70
     0
  9
$MIRRTEXT
 70
     1
  9
$DRAGMODE
 70
     2
  9
$LTSCALE
 40
2.0
  9
$OSMODE
 70
    37
  9
$ATTMODE
 70
     1
  9
$TEXTSIZE
 40
1.0
  9
$TRACEWID
 40
0.05
  9
$TEXTSTYLE
  7
ST
  9
$CLAYER
  8
0
  9
$CELTYPE
  6
BYLAYER
  9
$CECOLOR
 62
   256
  9
$DIMSCALE
 40
1.0
  9
$DIMASZ
 40
0.125
  9
$DIMEXO
 40
0.0625
  9
$DIMDLI
 40
0.3799999999999999
  9
$DIMRND
 40
0.0
  9
$DIMDLE
 40
0.0
  9
$DIMEXE
 40
0.18
  9
$DIMTP
 40
0.0
  9
$DIMTM
 40
0.0
  9
$DIMTXT
 40
0.11
  9
$DIMCEN
 40
0.09
  9
$DIMTSZ
 40
0.0
  9
$DIMTOL
 70
     0
  9
$DIMLIM
 70
     0
  9
$DIMTIH
 70
     0
  9
$DIMTOH
 70
     0
  9
$DIMSE1
 70
     0
  9
$DIMSE2
 70
     0
  9
$DIMTAD
 70
     1
  9
$DIMZIN
 70
     1
  9
$DIMBLK
  1

  9
$DIMASO
 70
     0
  9
$DIMSHO
 70
     0
  9
$DIMPOST
  1

  9
$DIMAPOST
  1

  9
$DIMALT
 70
     0
  9
$DIMALTD
 70
     2
  9
$DIMALTF
 40
25.4
  9
$DIMLFAC
 40
1.0
  9
$DIMTOFL
 70
     0
  9
$DIMTVP
 40
0.0
  9
$DIMTIX
 70
     0
  9
$DIMSOXD
 70
     0
  9
$DIMSAH
 70
     0
  9
$DIMBLK1
  1

  9
$DIMBLK2
  1

  9
$DIMSTYLE
  2
STANDARD
  9
$DIMCLRD
 70
     0
  9
$DIMCLRE
 70
     0
  9
$DIMCLRT
 70
     0
  9
$DIMTFAC
 40
1.0
  9
$DIMGAP
 40
0.09
  9
$LUNITS
 70
     2
  9
$LUPREC
 70
     4
  9
$SKETCHINC
 40
0.1
  9
$FILLETRAD
 40
0.0
  9
$AUNITS
 70
     0
  9
$AUPREC
 70
     4
  9
$MENU
  1
acad
  9
$ELEVATION
 40
0.0
  9
$PELEVATION
 40
0.0
  9
$THICKNESS
 40
0.0
  9
$LIMCHECK
 70
     0
  9
$CHAMFERA
 40
0.0
  9
$CHAMFERB
 40
0.0
  9
$SKPOLY
 70
     0
  9
$TDCREATE
 40
2449742.26450625
  9
$TDUPDATE
 40
2457521.785636574
  9
$TDINDWG
 40
0.0035355556
  9
$TDUSRTIMER
 40
0.0035355556
  9
$USRTIMER
 70
     1
  9
$ANGBASE
 50
0.0
  9
$ANGDIR
 70
     0
  9
$PDMODE
 70
     0
  9
$PDSIZE
 40
0.0
  9
$PLINEWID
 40
0.0
  9
$COORDS
 70
     1
  9
$SPLFRAME
 70
     0
  9
$SPLINETYPE
 70
     6
  9
$SPLINESEGS
 70
     8
  9
$ATTDIA
 70
     0
  9
$ATTREQ
 70
     1
  9
$HANDLING
 70
     1
  9
$HANDSEED
  5
150
  9
$SURFTAB1
 70
     6
  9
$SURFTAB2
 70
     6
  9
$SURFTYPE
 70
     6
  9
$SURFU
 70
     6
  9
$SURFV
 70
     6
  9
$UCSNAME
  2

  9
$UCSORG
 10
0.0
 20
0.0
 30
0.0
  9
$UCSXDIR
 10
1.0
 20
0.0
 30
0.0
  9
$UCSYDIR
 10
0.0
 20
1.0
 30
0.0
  9
$PUCSNAME
  2

  9
$PUCSORG
 10
0.0
 20
0.0
 30
0.0
  9
$PUCSXDIR
 10
1.0
 20
0.0
 30
0.0
  9
$PUCSYDIR
 10
0.0
 20
1.0
 30
0.0
  9
$USERI1
 70
     0
  9
$USERI2
 70
     0
  9
$USERI3
 70
     0
  9
$USERI4
 70
     0
  9
$USERI5
 70
     0
  9
$USERR1
 40
0.0
  9
$USERR2
 40
0.0
  9
$USERR3
 40
0.0
  9
$USERR4
 40
0.0
  9
$USERR5
 40
1.0
  9
$WORLDVIEW
 70
     0
  9
$SHADEDGE
 70
     3
  9
$SHADEDIF
 70
    70
  9
$TILEMODE
 70
     1
  9
$MAXACTVP
 70
    16
  9
$PLIMCHECK
 70
     0
  9
$PEXTMIN
 10
1.000000000000000E+20
 20
1.000000000000000E+20
 30
1.000000000000000E+20
  9
$PEXTMAX
 10
-1.000000000000000E+20
 20
-1.000000000000000E+20
 30
-1.000000000000000E+20
  9
$PLIMMIN
 10
0.0
 20
0.0
  9
$PLIMMAX
 10
12.0
 20
9.0
  9
$UNITMODE
 70
     0
  9
$VISRETAIN
 70
     0
  9
$PLINEGEN
 70
     0
  9
$PSLTSCALE
 70
     0
  0
ENDSEC
  0
SECTION
  2
TABLES
  0
TABLE
  2
VPORT
 70
     1
  0
VPORT
  2
*ACTIVE
 70
     0
 10
0.0
 20
0.0
 11
1.0
 21
1.0
 12
1.523438339963832
 22
0.3323370548108073
 13
0.0
 23
0.0
 14
1.0
 24
1.0
 15
12.0
 25
12.0
 16
0.0
 26
0.0
 36
1.0
 17
0.0
 27
0.0
 37
0.0
 40
2.20555402582987
 41
1.56198347107438
 42
50.0
 43
0.0
 44
0.0
 50
0.0
 51
0.0
 71
     0
 72
  2000
 73
     1
 74
     0
 75
     0
 76
     0
 77
     0
 78
     0
  0
ENDTAB
  0
TABLE
  2
LTYPE
 70
     1
  0
LTYPE
  2
CONTINUOUS
 70
     0
  3
Solid line
 72
    65
 73
     0
 40
0.0
  0
ENDTAB
  0
TABLE
  2
LAYER
 70
     2
  0
LAYER
  2
0
 70
     0
 62
     7
  6
CONTINUOUS
  0
LAYER
  2
_KTI_CONTROL
 70
     5
 62
     7
  6
CONTINUOUS
  0
ENDTAB
  0
TABLE
  2
STYLE
 70
     1
  0
STYLE
  2
ST
 70
     0
 40
0.0
 41
1.0
 50
0.0
 71
     0
 42
0.100000000000017
  3
SIMPLEX
  4

  0
ENDTAB
  0
TABLE
  2
VIEW
 70
     0
  0
ENDTAB
  0
TABLE
  2
UCS
 70
     0
  0
ENDTAB
  0
TABLE
  2
APPID
 70
     2
  0
APPID
  2
ACAD
 70
     0
  0
APPID
  2
_KTI_ARCHT
 70
     0
  0
ENDTAB
  0
TABLE
  2
DIMSTYLE
 70
     1
  0
DIMSTYLE
  2
STANDARD
 70
     0
  3

  4

  5

  6

  7

 40
1.0
 41
0.18
 42
0.0625
 43
0.38
 44
0.18
 45
0.0
 46
0.0
 47
0.0
 48
0.0
140
0.18
141
0.09
142
0.0
143
25.4
144
1.0
145
0.0
146
1.0
147
0.09
 71
     0
 72
     0
 73
     1
 74
     1
 75
     0
 76
     0
 77
     0
 78
     0
170
     0
171
     2
172
     0
173
     0
174
     0
175
     0
176
     0
177
     0
178
     0
  0
ENDTAB
  0
ENDSEC
  0
SECTION
  2
BLOCKS
  0
BLOCK
  8
0
  2
$MODEL_SPACE
 70
     0
 10
0.0
 20
0.0
 30
0.0
  3
$MODEL_SPACE
  1

  0
ENDBLK
  5
7
  8
0
  0
BLOCK
 67
     1
  8
0
  2
$PAPER_SPACE
 70
     0
 10
0.0
 20
0.0
 30
0.0
  3
$PAPER_SPACE
  1

  0
ENDBLK
  5
A
 67
     1
  8
0
  0
ENDSEC
  0
SECTION
  2
ENTITIES
  0
LINE
  5
1D
  8
0
  6
BYBLOCK
 62
     0
 10
0.0
 20
0.6604030417130246
 30
0.0
 11
1.498551564403276
 21
0.6604030417130246
 31
0.0
  0
LINE
  5
1E
  8
0
  6
BYBLOCK
 62
     0
 10
1.498551564403276
 20
0.6604030417130246
 30
0.0
 11
1.498551564403276
 21
0.6096028077350998
 31
0.0
  0
LINE
  5
1F
  8
0
  6
BYBLOCK
 62
     0
 10
1.498551564403276
 20
0.6096028077350998
 30
0.0
 11
0.0
 21
0.6096028077350998
 31
0.0
  0
LINE
  5
20
  8
0
  6
BYBLOCK
 62
     0
 10
0.0
 20
0.6096028077350998
 30
0.0
 11
0.0
 21
0.6604030417130246
 31
0.0
  0
LINE
  5
21
  8
0
  6
BYBLOCK
 62
     0
 10
0.1015451300103402
 20
0.3556016378454747
 30
0.0
 11
0.4064572097689094
 21
0.3556016378454747
 31
0.0
  0
LINE
  5
22
  8
0
  6
BYBLOCK
 62
     0
 10
0.4064572097689094
 20
0.3556016378454747
 30
0.0
 11
0.4064572097689094
 21
0.3048014038675499
 31
0.0
  0
LINE
  5
23
  8
0
  6
BYBLOCK
 62
     0
 10
0.4064572097689094
 20
0.3048014038675499
 30
0.0
 11
0.1015451300103402
 21
0.3048014038675499
 31
0.0
  0
LINE
  5
24
  8
0
  6
BYBLOCK
 62
     0
 10
0.1015451300103402
 20
0.3048014038675499
 30
0.0
 11
0.1015451300103402
 21
0.3556016378454747
 31
0.0
  0
LINE
  5
25
  8
0
  6
BYBLOCK
 62
     0
 10
0.1068022348337639
 20
0.3556016378454747
 30
0.0
 11
0.1068022348337639
 21
0.3048014038675499
 31
0.0
  0
LINE
  5
26
  8
0
  6
BYBLOCK
 62
     0
 10
0.1220201698489375
 20
0.3048014038675499
 30
0.0
 11
0.1220201698489375
 21
0.3556016378454747
 31
0.0
  0
LINE
  5
27
  8
0
  6
BYBLOCK
 62
     0
 10
0.1463688658732152
 20
0.3556016378454747
 30
0.0
 11
0.1463688658732152
 21
0.3048014038675499
 31
0.0
  0
LINE
  5
28
  8
0
  6
BYBLOCK
 62
     0
 10
0.1779114948137566
 20
0.3048014038675499
 30
0.0
 11
0.1779114948137566
 21
0.3556016378454747
 31
0.0
  0
LINE
  5
29
  8
0
  6
BYBLOCK
 62
     0
 10
0.2147112285777221
 20
0.3556016378454747
 30
0.0
 11
0.2147112285777221
 21
0.3048014038675499
 31
0.0
  0
LINE
  5
2A
  8
0
  6
BYBLOCK
 62
     0
 10
0.2540011698896248
 20
0.3048014038675499
 30
0.0
 11
0.2540011698896248
 21
0.3556016378454747
 31
0.0
  0
LINE
  5
2B
  8
0
  6
BYBLOCK
 62
     0
 10
0.2935678009290761
 20
0.3556016378454747
 30
0.0
 11
0.2935678009290761
 21
0.3048014038675499
 31
0.0
  0
LINE
  5
2C
  8
0
  6
BYBLOCK
 62
     0
 10
0.3300908449654926
 20
0.3048014038675499
 30
0.0
 11
0.3300908449654926
 21
0.3556016378454747
 31
0.0
  0
LINE
  5
2D
  8
0
  6
BYBLOCK
 62
     0
 10
0.361910163633583
 20
0.3556016378454747
 30
0.0
 11
0.361910163633583
 21
0.3048014038675499
 31
0.0
  0
LINE
  5
2E
  8
0
  6
BYBLOCK
 62
     0
 10
0.3859821699303121
 20
0.3048014038675499
 30
0.0
 11
0.3859821699303121
 21
0.3556016378454747
 31
0.0
  0
LINE
  5
2F
  8
0
  6
BYBLOCK
 62
     0
 10
0.4012001049454857
 20
0.3556016378454747
 30
0.0
 11
0.4012001049454857
 21
0.3048014038675499
 31
0.0
  0
LINE
  5
30
  8
0
  6
BYBLOCK
 62
     0
 10
0.6095474697895898
 20
0.3048014038675499
 30
0.0
 11
0.6095474697895898
 21
0.3556016378454747
 31
0.0
  0
LINE
  5
31
  8
0
  6
BYBLOCK
 62
     0
 10
0.6095474697895898
 20
0.3556016378454747
 30
0.0
 11
0.914459549548159
 21
0.3556016378454747
 31
0.0
  0
LINE
  5
32
  8
0
  6
BYBLOCK
 62
     0
 10
0.914459549548159
 20
0.3556016378454747
 30
0.0
 11
0.914459549548159
 21
0.3048014038675499
 31
0.0
  0
LINE
  5
33
  8
0
  6
BYBLOCK
 62
     0
 10
0.914459549548159
 20
0.3048014038675499
 30
0.0
 11
0.6095474697895898
 21
0.3048014038675499
 31
0.0
  0
LINE
  5
34
  8
0
  6
BYBLOCK
 62
     0
 10
0.6148045746130135
 20
0.3048014038675499
 30
0.0
 11
0.6148045746130135
 21
0.3556016378454747
 31
0.0
  0
LINE
  5
35
  8
0
  6
BYBLOCK
 62
     0
 10
0.6300225096281871
 20
0.3556016378454747
 30
0.0
 11
0.6300225096281871
 21
0.3048014038675499
 31
0.0
  0
LINE
  5
36
  8
0
  6
BYBLOCK
 62
     0
 10
0.6543712056524648
 20
0.3048014038675499
 30
0.0
 11
0.6543712056524648
 21
0.3556016378454747
 31
0.0
  0
LINE
  5
37
  8
0
  6
BYBLOCK
 62
     0
 10
0.6859138345930066
 20
0.3556016378454747
 30
0.0
 11
0.6859138345930066
 21
0.3048014038675499
 31
0.0
  0
LINE
  5
38
  8
0
  6
BYBLOCK
 62
     0
 10
0.7227135683569716
 20
0.3048014038675499
 30
0.0
 11
0.7227135683569716
 21
0.3556016378454747
 31
0.0
  0
LINE
  5
39
  8
0
  6
BYBLOCK
 62
     0
 10
0.7620035096688744
 20
0.3556016378454747
 30
0.0
 11
0.7620035096688744
 21
0.3048014038675499
 31
0.0
  0
LINE
  5
3A
  8
0
  6
BYBLOCK
 62
     0
 10
0.8015701407083257
 20
0.3048014038675499
 30
0.0
 11
0.8015701407083257
 21
0.3556016378454747
 31
0.0
  0
LINE
  5
3B
  8
0
  6
BYBLOCK
 62
     0
 10
0.8380931847447426
 20
0.3556016378454747
 30
0.0
 11
0.8380931847447426
 21
0.3048014038675499
 31
0.0
  0
LINE
  5
3C
  8
0
  6
BYBLOCK
 62
     0
 10
0.8699125034128325
 20
0.3048014038675499
 30
0.0
 11
0.8699125034128325
 21
0.3556016378454747
 31
0.0
  0
LINE
  5
3D
  8
0
  6
BYBLOCK
 62
     0
 10
0.8939845097095618
 20
0.3556016378454747
 30
0.0
 11
0.8939845097095618
 21
0.3048014038675499
 31
0.0
  0
LINE
  5
3E
  8
0
  6
BYBLOCK
 62
     0
 10
0.9092024447247353
 20
0.3048014038675499
 30
0.0
 11
0.9092024447247353
 21
0.3556016378454747
 31
0.0
  0
LINE
  5
3F
  8
0
  6
BYBLOCK
 62
     0
 10
1.117549809568839
 20
0.3556016378454747
 30
0.0
 11
1.422461889327409
 21
0.3556016378454747
 31
0.0
  0
LINE
  5
40
  8
0
  6
BYBLOCK
 62
     0
 10
1.422461889327409
 20
0.3556016378454747
 30
0.0
 11
1.422461889327409
 21
0.3048014038675499
 31
0.0
  0
LINE
  5
41
  8
0
  6
BYBLOCK
 62
     0
 10
1.422461889327409
 20
0.3048014038675499
 30
0.0
 11
1.117549809568839
 21
0.3048014038675499
 31
0.0
  0
LINE
  5
42
  8
0
  6
BYBLOCK
 62
     0
 10
1.117549809568839
 20
0.3048014038675499
 30
0.0
 11
1.117549809568839
 21
0.3556016378454747
 31
0.0
  0
LINE
  5
43
  8
0
  6
BYBLOCK
 62
     0
 10
1.122806914392263
 20
0.3556016378454747
 30
0.0
 11
1.122806914392263
 21
0.3048014038675499
 31
0.0
  0
LINE
  5
44
  8
0
  6
BYBLOCK
 62
     0
 10
1.138024849407437
 20
0.3048014038675499
 30
0.0
 11
1.138024849407437
 21
0.3556016378454747
 31
0.0
  0
LINE
  5
45
  8
0
  6
BYBLOCK
 62
     0
 10
1.162373545431715
 20
0.3556016378454747
 30
0.0
 11
1.162373545431715
 21
0.3048014038675499
 31
0.0
  0
LINE
  5
46
  8
0
  6
BYBLOCK
 62
     0
 10
1.193916174372256
 20
0.3048014038675499
 30
0.0
 11
1.193916174372256
 21
0.3556016378454747
 31
0.0
  0
LINE
  5
47
  8
0
  6
BYBLOCK
 62
     0
 10
1.230715908136222
 20
0.3556016378454747
 30
0.0
 11
1.230715908136222
 21
0.3048014038675499
 31
0.0
  0
LINE
  5
48
  8
0
  6
BYBLOCK
 62
     0
 10
1.270005849448124
 20
0.3048014038675499
 30
0.0
 11
1.270005849448124
 21
0.3556016378454747
 31
0.0
  0
LINE
  5
49
  8
0
  6
BYBLOCK
 62
     0
 10
1.309572480487575
 20
0.3556016378454747
 30
0.0
 11
1.309572480487575
 21
0.3048014038675499
 31
0.0
  0
LINE
  5
4A
  8
0
  6
BYBLOCK
 62
     0
 10
1.346095524523992
 20
0.3048014038675499
 30
0.0
 11
1.346095524523992
 21
0.3556016378454747
 31
0.0
  0
LINE
  5
4B
  8
0
  6
BYBLOCK
 62
     0
 10
1.377914843192082
 20
0.3556016378454747
 30
0.0
 11
1.377914843192082
 21
0.3048014038675499
 31
0.0
  0
LINE
  5
4C
  8
0
  6
BYBLOCK
 62
     0
 10
1.401986849488812
 20
0.3048014038675499
 30
0.0
 11
1.401986849488812
 21
0.3556016378454747
 31
0.0
  0
LINE
  5
4D
  8
0
  6
BYBLOCK
 62
     0
 10
1.417204784503985
 20
0.3556016378454747
 30
0.0
 11
1.417204784503985
 21
0.3048014038675499
 31
0.0
  0
LINE
  5
4E
  8
0
  6
BYBLOCK
 62
     0
 10
1.625552149348089
 20
0.3048014038675499
 30
0.0
 11
1.625552149348089
 21
0.3556016378454747
 31
0.0
  0
LINE
  5
4F
  8
0
  6
BYBLOCK
 62
     0
 10
1.625552149348089
 20
0.3556016378454747
 30
0.0
 11
1.930464229106658
 21
0.3556016378454747
 31
0.0
  0
LINE
  5
50
  8
0
  6
BYBLOCK
 62
     0
 10
1.930464229106658
 20
0.3556016378454747
 30
0.0
 11
1.930464229106658
 21
0.3048014038675499
 31
0.0
  0
LINE
  5
51
  8
0
  6
BYBLOCK
 62
     0
 10
1.930464229106658
 20
0.3048014038675499
 30
0.0
 11
1.625552149348089
 21
0.3048014038675499
 31
0.0
  0
LINE
  5
52
  8
0
  6
BYBLOCK
 62
     0
 10
1.630809254171513
 20
0.3048014038675499
 30
0.0
 11
1.630809254171513
 21
0.3556016378454747
 31
0.0
  0
LINE
  5
53
  8
0
  6
BYBLOCK
 62
     0
 10
1.646027189186687
 20
0.3556016378454747
 30
0.0
 11
1.646027189186687
 21
0.3048014038675499
 31
0.0
  0
LINE
  5
54
  8
0
  6
BYBLOCK
 62
     0
 10
1.670375885210964
 20
0.3048014038675499
 30
0.0
 11
1.670375885210964
 21
0.3556016378454747
 31
0.0
  0
LINE
  5
55
  8
0
  6
BYBLOCK
 62
     0
 10
1.701918514151506
 20
0.3556016378454747
 30
0.0
 11
1.701918514151506
 21
0.3048014038675499
 31
0.0
  0
LINE
  5
56
  8
0
  6
BYBLOCK
 62
     0
 10
1.738718247915471
 20
0.3048014038675499
 30
0.0
 11
1.738718247915471
 21
0.3556016378454747
 31
0.0
  0
LINE
  5
57
  8
0
  6
BYBLOCK
 62
     0
 10
1.778008189227374
 20
0.3556016378454747
 30
0.0
 11
1.778008189227374
 21
0.3048014038675499
 31
0.0
  0
LINE
  5
58
  8
0
  6
BYBLOCK
 62
     0
 10
1.817574820266825
 20
0.3048014038675499
 30
0.0
 11
1.817574820266825
 21
0.3556016378454747
 31
0.0
  0
LINE
  5
59
  8
0
  6
BYBLOCK
 62
     0
 10
1.854097864303241
 20
0.3556016378454747
 30
0.0
 11
1.854097864303241
 21
0.3048014038675499
 31
0.0
  0
LINE
  5
5A
  8
0
  6
BYBLOCK
 62
     0
 10
1.885917182971332
 20
0.3048014038675499
 30
0.0
 11
1.885917182971332
 21
0.3556016378454747
 31
0.0
  0
LINE
  5
5B
  8
0
  6
BYBLOCK
 62
     0
 10
1.909989189268061
 20
0.3556016378454747
 30
0.0
 11
1.909989189268061
 21
0.3048014038675499
 31
0.0
  0
LINE
  5
5C
  8
0
  6
BYBLOCK
 62
     0
 10
1.925207124283235
 20
0.3048014038675499
 30
0.0
 11
1.925207124283235
 21
0.3556016378454747
 31
0.0
  0
LINE
  5
5D
  8
0
  6
BYBLOCK
 62
     0
 10
2.133554489127339
 20
0.3556016378454747
 30
0.0
 11
2.438466568885908
 21
0.3556016378454747
 31
0.0
  0
LINE
  5
5E
  8
0
  6
BYBLOCK
 62
     0
 10
2.438466568885908
 20
0.3556016378454747
 30
0.0
 11
2.438466568885908
 21
0.3048014038675499
 31
0.0
  0
LINE
  5
5F
  8
0
  6
BYBLOCK
 62
     0
 10
2.438466568885908
 20
0.3048014038675499
 30
0.0
 11
2.133554489127339
 21
0.3048014038675499
 31
0.0
  0
LINE
  5
60
  8
0
  6
BYBLOCK
 62
     0
 10
2.133554489127339
 20
0.3048014038675499
 30
0.0
 11
2.133554489127339
 21
0.3556016378454747
 31
0.0
  0
LINE
  5
61
  8
0
  6
BYBLOCK
 62
     0
 10
2.138811593950763
 20
0.3556016378454747
 30
0.0
 11
2.138811593950763
 21
0.3048014038675499
 31
0.0
  0
LINE
  5
62
  8
0
  6
BYBLOCK
 62
     0
 10
2.154029528965936
 20
0.3048014038675499
 30
0.0
 11
2.154029528965936
 21
0.3556016378454747
 31
0.0
  0
LINE
  5
63
  8
0
  6
BYBLOCK
 62
     0
 10
2.178378224990214
 20
0.3556016378454747
 30
0.0
 11
2.178378224990214
 21
0.3048014038675499
 31
0.0
  0
LINE
  5
64
  8
0
  6
BYBLOCK
 62
     0
 10
2.209920853930755
 20
0.3048014038675499
 30
0.0
 11
2.209920853930755
 21
0.3556016378454747
 31
0.0
  0
LINE
  5
65
  8
0
  6
BYBLOCK
 62
     0
 10
2.246443897967172
 20
0.3556016378454747
 30
0.0
 11
2.246443897967172
 21
0.3048014038675499
 31
0.0
  0
LINE
  5
66
  8
0
  6
BYBLOCK
 62
     0
 10
2.286010529006623
 20
0.3048014038675499
 30
0.0
 11
2.286010529006623
 21
0.3556016378454747
 31
0.0
  0
LINE
  5
67
  8
0
  6
BYBLOCK
 62
     0
 10
2.325577160046075
 20
0.3556016378454747
 30
0.0
 11
2.325577160046075
 21
0.3048014038675499
 31
0.0
  0
LINE
  5
68
  8
0
  6
BYBLOCK
 62
     0
 10
2.362100204082491
 20
0.3048014038675499
 30
0.0
 11
2.362100204082491
 21
0.3556016378454747
 31
0.0
  0
LINE
  5
69
  8
0
  6
BYBLOCK
 62
     0
 10
2.393919522750581
 20
0.3556016378454747
 30
0.0
 11
2.393919522750581
 21
0.3048014038675499
 31
0.0
  0
LINE
  5
6A
  8
0
  6
BYBLOCK
 62
     0
 10
2.417991529047311
 20
0.3048014038675499
 30
0.0
 11
2.417991529047311
 21
0.3556016378454747
 31
0.0
  0
LINE
  5
6B
  8
0
  6
BYBLOCK
 62
     0
 10
2.433209464062485
 20
0.3556016378454747
 30
0.0
 11
2.433209464062485
 21
0.3048014038675499
 31
0.0
  0
LINE
  5
6C
  8
0
  6
BYBLOCK
 62
     0
 10
2.641556828906588
 20
0.3048014038675499
 30
0.0
 11
2.641556828906588
 21
0.3556016378454747
 31
0.0
  0
LINE
  5
6D
  8
0
  6
BYBLOCK
 62
     0
 10
2.641556828906588
 20
0.3556016378454747
 30
0.0
 11
2.946468908665157
 21
0.3556016378454747
 31
0.0
  0
LINE
  5
6E
  8
0
  6
BYBLOCK
 62
     0
 10
2.946468908665157
 20
0.3556016378454747
 30
0.0
 11
2.946468908665157
 21
0.3048014038675499
 31
0.0
  0
LINE
  5
6F
  8
0
  6
BYBLOCK
 62
     0
 10
2.946468908665157
 20
0.3048014038675499
 30
0.0
 11
2.641556828906588
 21
0.3048014038675499
 31
0.0
  0
LINE
  5
70
  8
0
  6
BYBLOCK
 62
     0
 10
2.646813933730012
 20
0.3048014038675499
 30
0.0
 11
2.646813933730012
 21
0.3556016378454747
 31
0.0
  0
LINE
  5
71
  8
0
  6
BYBLOCK
 62
     0
 10
2.662031868745186
 20
0.3556016378454747
 30
0.0
 11
2.662031868745186
 21
0.3048014038675499
 31
0.0
  0
LINE
  5
72
  8
0
  6
BYBLOCK
 62
     0
 10
2.686380564769463
 20
0.3048014038675499
 30
0.0
 11
2.686380564769463
 21
0.3556016378454747
 31
0.0
  0
LINE
  5
73
  8
0
  6
BYBLOCK
 62
     0
 10
2.717923193710005
 20
0.3556016378454747
 30
0.0
 11
2.717923193710005
 21
0.3048014038675499
 31
0.0
  0
LINE
  5
74
  8
0
  6
BYBLOCK
 62
     0
 10
2.754446237746421
 20
0.3048014038675499
 30
0.0
 11
2.754446237746421
 21
0.3556016378454747
 31
0.0
  0
LINE
  5
75
  8
0
  6
BYBLOCK
 62
     0
 10
2.794012868785873
 20
0.3556016378454747
 30
0.0
 11
2.794012868785873
 21
0.3048014038675499
 31
0.0
  0
LINE
  5
76
  8
0
  6
BYBLOCK
 62
     0
 10
2.833579499825324
 20
0.3048014038675499
 30
0.0
 11
2.833579499825324
 21
0.3556016378454747
 31
0.0
  0
LINE
  5
77
  8
0
  6
BYBLOCK
 62
     0
 10
2.870102543861741
 20
0.3556016378454747
 30
0.0
 11
2.870102543861741
 21
0.3048014038675499
 31
0.0
  0
LINE
  5
78
  8
0
  6
BYBLOCK
 62
     0
 10
2.901921862529831
 20
0.3048014038675499
 30
0.0
 11
2.901921862529831
 21
0.3556016378454747
 31
0.0
  0
LINE
  5
79
  8
0
  6
BYBLOCK
 62
     0
 10
2.925993868826561
 20
0.3556016378454747
 30
0.0
 11
2.925993868826561
 21
0.3048014038675499
 31
0.0
  0
LINE
  5
7A
  8
0
  6
BYBLOCK
 62
     0
 10
2.941211803841734
 20
0.3048014038675499
 30
0.0
 11
2.941211803841734
 21
0.3556016378454747
 31
0.0
  0
LINE
  5
7B
  8
0
  6
BYBLOCK
 62
     0
 10
3.048014038675498
 20
0.6096028077350998
 30
0.0
 11
3.048014038675498
 21
0.6604030417130246
 31
0.0
  0
LINE
  5
7C
  8
0
  6
BYBLOCK
 62
     0
 10
3.048014038675498
 20
0.6604030417130246
 30
0.0
 11
1.549462474272221
 21
0.6604030417130246
 31
0.0
  0
LINE
  5
7D
  8
0
  6
BYBLOCK
 62
     0
 10
1.549462474272221
 20
0.6604030417130246
 30
0.0
 11
1.549462474272221
 21
0.6096028077350998
 31
0.0
  0
LINE
  5
7E
  8
0
  6
BYBLOCK
 62
     0
 10
1.549462474272221
 20
0.6096028077350998
 30
0.0
 11
3.048014038675498
 21
0.6096028077350998
 31
0.0
  0
LINE
  5
7F
  8
0
  6
BYBLOCK
 62
     0
 10
0.5046820630486663
 20
0.3810017548344374
 30
0.0
 11
0.9432352812132146
 21
0.3810017548344374
 31
0.0
  0
LINE
  5
80
  8
0
  6
BYBLOCK
 62
     0
 10
0.9432352812132146
 20
0.4318019888123621
 30
0.0
 11
0.5046820630486663
 21
0.4318019888123621
 31
0.0
  0
LINE
  5
81
  8
0
  6
BYBLOCK
 62
     0
 10
0.5046820630486663
 20
0.6096028077350998
 30
0.0
 11
0.5046820630486663
 21
0.1524007019337749
 31
0.0
  0
LINE
  5
82
  8
0
  6
BYBLOCK
 62
     0
 10
0.5046820630486663
 20
0.1524007019337749
 30
0.0
 11
0.2194149539460483
 21
0.1524007019337749
 31
0.0
  0
LINE
  5
83
  8
0
  6
BYBLOCK
 62
     0
 10
0.2194149539460483
 20
0.1524007019337749
 30
0.0
 11
0.2194149539460483
 21
0.3048014038675499
 31
0.0
  0
LINE
  5
84
  8
0
  6
BYBLOCK
 62
     0
 10
0.2634086206262775
 20
0.3048014038675499
 30
0.0
 11
0.2634086206262775
 21
0.1524007019337749
 31
0.0
  0
LINE
  5
85
  8
0
  6
BYBLOCK
 62
     0
 10
0.2634086206262775
 20
0.1524007019337749
 30
0.0
 11
0.2885873858332013
 21
0.2032009359117
 31
0.0
  0
LINE
  5
86
  8
0
  6
BYBLOCK
 62
     0
 10
0.2885873858332013
 20
0.2032009359117
 30
0.0
 11
0.2885873858332013
 21
0.3048014038675499
 31
0.0
  0
LINE
  5
87
  8
0
  6
BYBLOCK
 62
     0
 10
0.2885873858332013
 20
0.2032009359117
 30
0.0
 11
0.4792266081141939
 21
0.2032009359117
 31
0.0
  0
LINE
  5
88
  8
0
  6
BYBLOCK
 62
     0
 10
0.4352329414339651
 20
0.2032009359117
 30
0.0
 11
0.4352329414339651
 21
0.6096028077350998
 31
0.0
  0
LINE
  5
89
  8
0
  6
BYBLOCK
 62
     0
 10
0.4792266081141939
 20
0.6096028077350998
 30
0.0
 11
0.4792266081141939
 21
0.1524007019337749
 31
0.0
  0
LINE
  5
8A
  8
0
  6
BYBLOCK
 62
     0
 10
0.3776814781038537
 20
0.1524007019337749
 30
0.0
 11
0.3776814781038537
 21
0.0
 31
0.0
  0
LINE
  5
8B
  8
0
  6
BYBLOCK
 62
     0
 10
0.3776814781038537
 20
0.0
 30
0.0
 11
0.3082323564891525
 21
0.0
 31
0.0
  0
LINE
  5
8C
  8
0
  6
BYBLOCK
 62
     0
 10
0.3082323564891525
 20
0.0
 30
0.0
 11
0.3082323564891525
 21
0.1524007019337749
 31
0.0
  0
LINE
  5
8D
  8
0
  6
BYBLOCK
 62
     0
 10
0.3522260231693817
 20
0.1524007019337749
 30
0.0
 11
0.3522260231693817
 21
0.0
 31
0.0
  0
LINE
  5
8E
  8
0
  6
BYBLOCK
 62
     0
 10
0.8162346962684021
 20
0.0
 30
0.0
 11
0.8162346962684021
 21
0.1524007019337749
 31
0.0
  0
LINE
  5
8F
  8
0
  6
BYBLOCK
 62
     0
 10
0.8602283629486313
 20
0.1524007019337749
 30
0.0
 11
0.8602283629486313
 21
0.0
 31
0.0
  0
LINE
  5
90
  8
0
  6
BYBLOCK
 62
     0
 10
0.8856838178831034
 20
0.0
 30
0.0
 11
0.8856838178831034
 21
0.1524007019337749
 31
0.0
  0
LINE
  5
91
  8
0
  6
BYBLOCK
 62
     0
 10
0.9872289478934438
 20
0.1524007019337749
 30
0.0
 11
0.9872289478934438
 21
0.6096028077350998
 31
0.0
  0
LINE
  5
92
  8
0
  6
BYBLOCK
 62
     0
 10
1.012684402827916
 20
0.6096028077350998
 30
0.0
 11
1.012684402827916
 21
0.1524007019337749
 31
0.0
  0
LINE
  5
93
  8
0
  6
BYBLOCK
 62
     0
 10
1.012684402827916
 20
0.1524007019337749
 30
0.0
 11
0.7274172937252978
 21
0.1524007019337749
 31
0.0
  0
LINE
  5
94
  8
0
  6
BYBLOCK
 62
     0
 10
0.7274172937252978
 20
0.1524007019337749
 30
0.0
 11
0.7274172937252978
 21
0.3048014038675499
 31
0.0
  0
LINE
  5
95
  8
0
  6
BYBLOCK
 62
     0
 10
0.7714109604055271
 20
0.3048014038675499
 30
0.0
 11
0.7714109604055271
 21
0.1524007019337749
 31
0.0
  0
LINE
  5
96
  8
0
  6
BYBLOCK
 62
     0
 10
0.7714109604055271
 20
0.1524007019337749
 30
0.0
 11
0.7965897256124509
 21
0.2032009359117
 31
0.0
  0
LINE
  5
97
  8
0
  6
BYBLOCK
 62
     0
 10
0.7965897256124509
 20
0.2032009359117
 30
0.0
 11
0.9872289478934438
 21
0.2032009359117
 31
0.0
  0
LINE
  5
98
  8
0
  6
BYBLOCK
 62
     0
 10
0.9432352812132146
 20
0.2032009359117
 30
0.0
 11
0.9432352812132146
 21
0.6096028077350998
 31
0.0
  0
LINE
  5
99
  8
0
  6
BYBLOCK
 62
     0
 10
1.012684402827916
 20
0.4318019888123621
 30
0.0
 11
1.451237620992464
 21
0.4318019888123621
 31
0.0
  0
LINE
  5
9A
  8
0
  6
BYBLOCK
 62
     0
 10
1.451237620992464
 20
0.3810017548344374
 30
0.0
 11
1.012684402827916
 21
0.3810017548344374
 31
0.0
  0
LINE
  5
9B
  8
0
  6
BYBLOCK
 62
     0
 10
0.7965897256124509
 20
0.3048014038675499
 30
0.0
 11
0.7965897256124509
 21
0.2032009359117
 31
0.0
  0
LINE
  5
9C
  8
0
  6
BYBLOCK
 62
     0
 10
0.8162346962684021
 20
0.0
 30
0.0
 11
0.8856838178831034
 21
0.0
 31
0.0
  0
LINE
  5
9D
  8
0
  6
BYBLOCK
 62
     0
 10
1.324237036047652
 20
0.0
 30
0.0
 11
1.324237036047652
 21
0.1524007019337749
 31
0.0
  0
LINE
  5
9E
  8
0
  6
BYBLOCK
 62
     0
 10
1.368230702727881
 20
0.1524007019337749
 30
0.0
 11
1.368230702727881
 21
0.0
 31
0.0
  0
LINE
  5
9F
  8
0
  6
BYBLOCK
 62
     0
 10
1.393686157662353
 20
0.0
 30
0.0
 11
1.393686157662353
 21
0.1524007019337749
 31
0.0
  0
LINE
  5
A0
  8
0
  6
BYBLOCK
 62
     0
 10
1.495231287672693
 20
0.1524007019337749
 30
0.0
 11
1.495231287672693
 21
0.6096028077350998
 31
0.0
  0
LINE
  5
A1
  8
0
  6
BYBLOCK
 62
     0
 10
1.498551564403276
 20
0.6096028077350998
 30
0.0
 11
1.520686742607166
 21
0.6096028077350998
 31
0.0
  0
LINE
  5
A2
  8
0
  6
BYBLOCK
 62
     0
 10
1.520686742607166
 20
0.6096028077350998
 30
0.0
 11
1.520686742607166
 21
0.1524007019337749
 31
0.0
  0
LINE
  5
A3
  8
0
  6
BYBLOCK
 62
     0
 10
1.520686742607166
 20
0.1524007019337749
 30
0.0
 11
1.235419633504548
 21
0.1524007019337749
 31
0.0
  0
LINE
  5
A4
  8
0
  6
BYBLOCK
 62
     0
 10
1.235419633504548
 20
0.1524007019337749
 30
0.0
 11
1.235419633504548
 21
0.3048014038675499
 31
0.0
  0
LINE
  5
A5
  8
0
  6
BYBLOCK
 62
     0
 10
1.279413300184777
 20
0.3048014038675499
 30
0.0
 11
1.279413300184777
 21
0.1524007019337749
 31
0.0
  0
LINE
  5
A6
  8
0
  6
BYBLOCK
 62
     0
 10
1.279413300184777
 20
0.1524007019337749
 30
0.0
 11
1.3045920653917
 21
0.2032009359117
 31
0.0
  0
LINE
  5
A7
  8
0
  6
BYBLOCK
 62
     0
 10
1.3045920653917
 20
0.2032009359117
 30
0.0
 11
1.495231287672693
 21
0.2032009359117
 31
0.0
  0
LINE
  5
A8
  8
0
  6
BYBLOCK
 62
     0
 10
1.451237620992464
 20
0.2032009359117
 30
0.0
 11
1.451237620992464
 21
0.6096028077350998
 31
0.0
  0
LINE
  5
A9
  8
0
  6
BYBLOCK
 62
     0
 10
1.527327296068332
 20
0.6096028077350998
 30
0.0
 11
1.549462474272221
 21
0.6096028077350998
 31
0.0
  0
LINE
  5
AA
  8
0
  6
BYBLOCK
 62
     0
 10
1.552782751002804
 20
0.6096028077350998
 30
0.0
 11
1.552782751002804
 21
0.1524007019337749
 31
0.0
  0
LINE
  5
AB
  8
0
  6
BYBLOCK
 62
     0
 10
1.527327296068332
 20
0.1524007019337749
 30
0.0
 11
1.81259440517095
 21
0.1524007019337749
 31
0.0
  0
LINE
  5
AC
  8
0
  6
BYBLOCK
 62
     0
 10
1.81259440517095
 20
0.1524007019337749
 30
0.0
 11
1.81259440517095
 21
0.3048014038675499
 31
0.0
  0
LINE
  5
AD
  8
0
  6
BYBLOCK
 62
     0
 10
1.768600738490721
 20
0.3048014038675499
 30
0.0
 11
1.768600738490721
 21
0.1524007019337749
 31
0.0
  0
LINE
  5
AE
  8
0
  6
BYBLOCK
 62
     0
 10
1.768600738490721
 20
0.1524007019337749
 30
0.0
 11
1.743421973283797
 21
0.2032009359117
 31
0.0
  0
LINE
  5
AF
  8
0
  6
BYBLOCK
 62
     0
 10
1.743421973283797
 20
0.2032009359117
 30
0.0
 11
1.743421973283797
 21
0.3048014038675499
 31
0.0
  0
LINE
  5
B0
  8
0
  6
BYBLOCK
 62
     0
 10
1.743421973283797
 20
0.2032009359117
 30
0.0
 11
1.552782751002804
 21
0.2032009359117
 31
0.0
  0
LINE
  5
B1
  8
0
  6
BYBLOCK
 62
     0
 10
1.596776417683033
 20
0.2032009359117
 30
0.0
 11
1.596776417683033
 21
0.6096028077350998
 31
0.0
  0
LINE
  5
B2
  8
0
  6
BYBLOCK
 62
     0
 10
1.527327296068332
 20
0.6096028077350998
 30
0.0
 11
1.527327296068332
 21
0.1524007019337749
 31
0.0
  0
LINE
  5
B3
  8
0
  6
BYBLOCK
 62
     0
 10
1.654327881013145
 20
0.1524007019337749
 30
0.0
 11
1.654327881013145
 21
0.0
 31
0.0
  0
LINE
  5
B4
  8
0
  6
BYBLOCK
 62
     0
 10
1.654327881013145
 20
0.0
 30
0.0
 11
1.723777002627846
 21
0.0
 31
0.0
  0
LINE
  5
B5
  8
0
  6
BYBLOCK
 62
     0
 10
1.723777002627846
 20
0.0
 30
0.0
 11
1.723777002627846
 21
0.1524007019337749
 31
0.0
  0
LINE
  5
B6
  8
0
  6
BYBLOCK
 62
     0
 10
1.679783335947617
 20
0.1524007019337749
 30
0.0
 11
1.679783335947617
 21
0.0
 31
0.0
  0
LINE
  5
B7
  8
0
  6
BYBLOCK
 62
     0
 10
1.393686157662353
 20
0.0
 30
0.0
 11
1.324237036047652
 21
0.0
 31
0.0
  0
LINE
  5
B8
  8
0
  6
BYBLOCK
 62
     0
 10
1.3045920653917
 20
0.2032009359117
 30
0.0
 11
1.3045920653917
 21
0.3048014038675499
 31
0.0
  0
LINE
  5
B9
  8
0
  6
BYBLOCK
 62
     0
 10
1.596776417683033
 20
0.3810017548344374
 30
0.0
 11
2.035329635847582
 21
0.3810017548344374
 31
0.0
  0
LINE
  5
BA
  8
0
  6
BYBLOCK
 62
     0
 10
2.035329635847582
 20
0.4318019888123621
 30
0.0
 11
1.596776417683033
 21
0.4318019888123621
 31
0.0
  0
LINE
  5
BB
  8
0
  6
BYBLOCK
 62
     0
 10
2.104778757462283
 20
0.4318019888123621
 30
0.0
 11
2.543331975626831
 21
0.4318019888123621
 31
0.0
  0
LINE
  5
BC
  8
0
  6
BYBLOCK
 62
     0
 10
2.543331975626831
 20
0.3810017548344374
 30
0.0
 11
2.104778757462283
 21
0.3810017548344374
 31
0.0
  0
LINE
  5
BD
  8
0
  6
BYBLOCK
 62
     0
 10
2.104778757462283
 20
0.2032009359117
 30
0.0
 11
2.104778757462283
 21
0.6096028077350998
 31
0.0
  0
LINE
  5
BE
  8
0
  6
BYBLOCK
 62
     0
 10
2.060785090782054
 20
0.6096028077350998
 30
0.0
 11
2.060785090782054
 21
0.1524007019337749
 31
0.0
  0
LINE
  5
BF
  8
0
  6
BYBLOCK
 62
     0
 10
2.035329635847582
 20
0.1524007019337749
 30
0.0
 11
2.3205967449502
 21
0.1524007019337749
 31
0.0
  0
LINE
  5
C0
  8
0
  6
BYBLOCK
 62
     0
 10
2.3205967449502
 20
0.1524007019337749
 30
0.0
 11
2.3205967449502
 21
0.3048014038675499
 31
0.0
  0
LINE
  5
C1
  8
0
  6
BYBLOCK
 62
     0
 10
2.276603078269971
 20
0.3048014038675499
 30
0.0
 11
2.276603078269971
 21
0.1524007019337749
 31
0.0
  0
LINE
  5
C2
  8
0
  6
BYBLOCK
 62
     0
 10
2.276603078269971
 20
0.1524007019337749
 30
0.0
 11
2.251424313063047
 21
0.2032009359117
 31
0.0
  0
LINE
  5
C3
  8
0
  6
BYBLOCK
 62
     0
 10
2.251424313063047
 20
0.2032009359117
 30
0.0
 11
2.251424313063047
 21
0.3048014038675499
 31
0.0
  0
LINE
  5
C4
  8
0
  6
BYBLOCK
 62
     0
 10
2.251424313063047
 20
0.2032009359117
 30
0.0
 11
2.060785090782054
 21
0.2032009359117
 31
0.0
  0
LINE
  5
C5
  8
0
  6
BYBLOCK
 62
     0
 10
2.035329635847582
 20
0.1524007019337749
 30
0.0
 11
2.035329635847582
 21
0.6096028077350998
 31
0.0
  0
LINE
  5
C6
  8
0
  6
BYBLOCK
 62
     0
 10
2.543331975626831
 20
0.6096028077350998
 30
0.0
 11
2.543331975626831
 21
0.1524007019337749
 31
0.0
  0
LINE
  5
C7
  8
0
  6
BYBLOCK
 62
     0
 10
2.543331975626831
 20
0.1524007019337749
 30
0.0
 11
2.82859908472945
 21
0.1524007019337749
 31
0.0
  0
LINE
  5
C8
  8
0
  6
BYBLOCK
 62
     0
 10
2.82859908472945
 20
0.1524007019337749
 30
0.0
 11
2.82859908472945
 21
0.3048014038675499
 31
0.0
  0
LINE
  5
C9
  8
0
  6
BYBLOCK
 62
     0
 10
2.784605418049221
 20
0.3048014038675499
 30
0.0
 11
2.784605418049221
 21
0.1524007019337749
 31
0.0
  0
LINE
  5
CA
  8
0
  6
BYBLOCK
 62
     0
 10
2.784605418049221
 20
0.1524007019337749
 30
0.0
 11
2.759426652842297
 21
0.2032009359117
 31
0.0
  0
LINE
  5
CB
  8
0
  6
BYBLOCK
 62
     0
 10
2.759426652842297
 20
0.2032009359117
 30
0.0
 11
2.759426652842297
 21
0.3048014038675499
 31
0.0
  0
LINE
  5
CC
  8
0
  6
BYBLOCK
 62
     0
 10
2.759426652842297
 20
0.2032009359117
 30
0.0
 11
2.568787430561304
 21
0.2032009359117
 31
0.0
  0
LINE
  5
CD
  8
0
  6
BYBLOCK
 62
     0
 10
2.612781097241533
 20
0.2032009359117
 30
0.0
 11
2.612781097241533
 21
0.6096028077350998
 31
0.0
  0
LINE
  5
CE
  8
0
  6
BYBLOCK
 62
     0
 10
2.568787430561304
 20
0.6096028077350998
 30
0.0
 11
2.568787430561304
 21
0.1524007019337749
 31
0.0
  0
LINE
  5
CF
  8
0
  6
BYBLOCK
 62
     0
 10
2.670332560571644
 20
0.1524007019337749
 30
0.0
 11
2.670332560571644
 21
0.0
 31
0.0
  0
LINE
  5
D0
  8
0
  6
BYBLOCK
 62
     0
 10
2.670332560571644
 20
0.0
 30
0.0
 11
2.739781682186345
 21
0.0
 31
0.0
  0
LINE
  5
D1
  8
0
  6
BYBLOCK
 62
     0
 10
2.739781682186345
 20
0.0
 30
0.0
 11
2.739781682186345
 21
0.1524007019337749
 31
0.0
  0
LINE
  5
D2
  8
0
  6
BYBLOCK
 62
     0
 10
2.695788015506116
 20
0.1524007019337749
 30
0.0
 11
2.695788015506116
 21
0.0
 31
0.0
  0
LINE
  5
D3
  8
0
  6
BYBLOCK
 62
     0
 10
2.231779342407096
 20
0.0
 30
0.0
 11
2.231779342407096
 21
0.1524007019337749
 31
0.0
  0
LINE
  5
D4
  8
0
  6
BYBLOCK
 62
     0
 10
2.187785675726866
 20
0.1524007019337749
 30
0.0
 11
2.187785675726866
 21
0.0
 31
0.0
  0
LINE
  5
D5
  8
0
  6
BYBLOCK
 62
     0
 10
2.162330220792394
 20
0.0
 30
0.0
 11
2.162330220792394
 21
0.1524007019337749
 31
0.0
  0
LINE
  5
D6
  8
0
  6
BYBLOCK
 62
     0
 10
2.162330220792394
 20
0.0
 30
0.0
 11
2.231779342407096
 21
0.0
 31
0.0
  0
POLYLINE
  5
F9
  8
_KTI_CONTROL
 10
0.0
 20
0.0
 30
0.0
 66
     1
 70
     8
1001
_KTI_ARCHT
1070
 12000
1000
ENVIRONMENT
1070
 10003
1000
12fcvc06
1070
 20000
1000
standard
1070
 20001
1000
c:\program files\ketiv\archt
1070
 20003
1000
d:\archt
1070
 20002
1000
c:\program files\ketiv\archt\tmp
1070
 20004
1002
{
1000
c:\program files\ketiv\archt\blks
1000
c:\program files\ketiv\archt\blks3d
1000
e:\archt\blks
1000
e:\archt\blks3d
1000
d:\archt\blks
1000
d:\archt\blks3d
1002
}
1070
 20005
1002
{
1000
c:\program files\ketiv\archt\slds
1002
}
1070
 20006
1002
{
1000
c:\program files\ketiv\archt\dclswin
1002
}
1070
 20007
1002
{
1000
c:\program files\ketiv\archt\docs
1000
e:\archt\docs
1000
d:\archt\docs
1002
}
1070
 20008
1002
{
1000
c:\program files\ketiv\archt\help
1002
}
  0
VERTEX
  5
FA
  8
_KTI_CONTROL
 10
0.0
 20
0.0
 30
0.0
 70
    32
  0
VERTEX
  5
FB
  8
_KTI_CONTROL
 10
0.0
 20
0.0
 30
0.0
 70
    32
  0
SEQEND
  5
FC
  8
_KTI_CONTROL
  0
POLYLINE
  5
FD
  8
_KTI_CONTROL
 10
0.0
 20
0.0
 30
0.0
 66
     1
 70
     8
1001
_KTI_ARCHT
1070
 12000
1000
ARCHTVARS
1070
 10003
1000
12fcvc06
1070
 12030
1000
m
1070
 12020
1070
     1
1070
 12021
1070
     0
1070
 12070
1070
     0
1070
 12071
1070
     1
1070
 12907
1070
     0
1070
 12913
1070
     1
1070
 12914
1070
     1
1070
 12072
1070
     2
1070
 12073
1070
    48
1070
 12074
1070
     0
1070
 12080
1070
     1
1070
 12092
1070
     1
1070
 12096
1070
     0
1070
 12095
1070
     0
1070
 12081
1070
     1
1070
 12082
1070
     1
1070
 12083
1070
     1
1070
 12084
1070
     1
1070
 12085
1070
     0
1070
 12086
1070
     1
1070
 12087
1070
     0
1070
 12088
1070
     0
1070
 12097
1070
     1
1070
 12089
1070
     4
1070
 12090
1070
     6
1070
 12091
1070
     1
1070
 12045
1000

1070
 12046
1000

1070
 12047
1000
standard
1070
 12048
1000

1070
 12049
1000

1070
 12093
1070
     1
1070
 12094
1070
     1
1070
 12908
1070
     0
1070
 12909
1070
     0
1070
 12911
1070
     0
1070
 12910
1070
     0
1070
 12912
1070
     0
1070
 12098
1070
   800
1070
 12060
1002
{
1000

1000

1000

1000

1002
}
1070
 12904
1002
{
1070
     0
1070
     0
1070
     0
1070
     0
1070
     0
1002
}
1070
 12905
1002
{
1040
0.0
1040
0.0
1040
0.0
1040
0.0
1040
0.0
1002
}
1070
 12906
1002
{
1000

1000

1000

1000

1000

1002
}
1070
 12040
1002
{
1002
}
  0
VERTEX
  5
FE
  8
_KTI_CONTROL
 10
0.0
 20
0.0
 30
0.0
 70
    32
  0
VERTEX
  5
FF
  8
_KTI_CONTROL
 10
0.0
 20
0.0
 30
0.0
 70
    32
  0
SEQEND
  5
100
  8
_KTI_CONTROL
  0
ENDSEC
  0
EOF
