  0
SECTION
  2
HEADER
  9
$ACADVER
  1
AC1009
  9
$DWGCODEPAGE
  3
ansi_1252
  9
$INSBASE
 10
0.0
 20
0.0
 30
0.0
  9
$EXTMIN
 10
-1.311230706910482
 20
-0.0051248232730039
 30
0.0
  9
$EXTMAX
 10
0.4510716217149655
 20
1.394875176726996
 30
0.0
  9
$LIMMIN
 10
0.0
 20
0.0
  9
$LIMMAX
 10
12.0
 20
9.0
  9
$ORTHOMODE
 70
     0
  9
$REGENMODE
 70
     1
  9
$FILLMODE
 70
     1
  9
$QTEXTMODE
 70
     0
  9
$MIRRTEXT
 70
     1
  9
$DRAGMODE
 70
     2
  9
$LTSCALE
 40
0.5
  9
$OSMODE
 70
    37
  9
$ATTMODE
 70
     1
  9
$TEXTSIZE
 40
0.2
  9
$TRACEWID
 40
0.05
  9
$TEXTSTYLE
  7
STANDARD
  9
$CLAYER
  8
0
  9
$CELTYPE
  6
BYLAYER
  9
$CECOLOR
 62
   256
  9
$DIMSCALE
 40
1.0
  9
$DIMASZ
 40
0.07
  9
$DIMEXO
 40
0.0625
  9
$DIMDLI
 40
0.38
  9
$DIMRND
 40
0.0
  9
$DIMDLE
 40
0.0
  9
$DIMEXE
 40
0.18
  9
$DIMTP
 40
0.0
  9
$DIMTM
 40
0.0
  9
$DIMTXT
 40
0.18
  9
$DIMCEN
 40
0.09
  9
$DIMTSZ
 40
0.0
  9
$DIMTOL
 70
     0
  9
$DIMLIM
 70
     0
  9
$DIMTIH
 70
     1
  9
$DIMTOH
 70
     1
  9
$DIMSE1
 70
     0
  9
$DIMSE2
 70
     0
  9
$DIMTAD
 70
     0
  9
$DIMZIN
 70
     0
  9
$DIMBLK
  1

  9
$DIMASO
 70
     1
  9
$DIMSHO
 70
     1
  9
$DIMPOST
  1

  9
$DIMAPOST
  1

  9
$DIMALT
 70
     0
  9
$DIMALTD
 70
     2
  9
$DIMALTF
 40
25.4
  9
$DIMLFAC
 40
1.0
  9
$DIMTOFL
 70
     0
  9
$DIMTVP
 40
0.0
  9
$DIMTIX
 70
     0
  9
$DIMSOXD
 70
     0
  9
$DIMSAH
 70
     0
  9
$DIMBLK1
  1

  9
$DIMBLK2
  1

  9
$DIMSTYLE
  2
STANDARD
  9
$DIMCLRD
 70
     0
  9
$DIMCLRE
 70
     0
  9
$DIMCLRT
 70
     0
  9
$DIMTFAC
 40
1.0
  9
$DIMGAP
 40
0.09
  9
$LUNITS
 70
     2
  9
$LUPREC
 70
     2
  9
$SKETCHINC
 40
0.1
  9
$FILLETRAD
 40
0.0
  9
$AUNITS
 70
     0
  9
$AUPREC
 70
     0
  9
$MENU
  1
acad
  9
$ELEVATION
 40
0.0
  9
$PELEVATION
 40
0.0
  9
$THICKNESS
 40
0.0
  9
$LIMCHECK
 70
     0
  9
$CHAMFERA
 40
0.0
  9
$CHAMFERB
 40
0.0
  9
$SKPOLY
 70
     0
  9
$TDCREATE
 40
2449625.716012268
  9
$TDUPDATE
 40
2457521.785659722
  9
$TDINDWG
 40
0.0001550116
  9
$TDUSRTIMER
 40
0.0001550116
  9
$USRTIMER
 70
     1
  9
$ANGBASE
 50
0.0
  9
$ANGDIR
 70
     0
  9
$PDMODE
 70
     0
  9
$PDSIZE
 40
0.0
  9
$PLINEWID
 40
0.0
  9
$COORDS
 70
     1
  9
$SPLFRAME
 70
     0
  9
$SPLINETYPE
 70
     6
  9
$SPLINESEGS
 70
     8
  9
$ATTDIA
 70
     0
  9
$ATTREQ
 70
     1
  9
$HANDLING
 70
     1
  9
$HANDSEED
  5
C5
  9
$SURFTAB1
 70
     6
  9
$SURFTAB2
 70
     6
  9
$SURFTYPE
 70
     6
  9
$SURFU
 70
     6
  9
$SURFV
 70
     6
  9
$UCSNAME
  2

  9
$UCSORG
 10
0.0
 20
0.0
 30
0.0
  9
$UCSXDIR
 10
1.0
 20
0.0
 30
0.0
  9
$UCSYDIR
 10
0.0
 20
1.0
 30
0.0
  9
$PUCSNAME
  2

  9
$PUCSORG
 10
0.0
 20
0.0
 30
0.0
  9
$PUCSXDIR
 10
1.0
 20
0.0
 30
0.0
  9
$PUCSYDIR
 10
0.0
 20
1.0
 30
0.0
  9
$USERI1
 70
     0
  9
$USERI2
 70
     0
  9
$USERI3
 70
     0
  9
$USERI4
 70
     0
  9
$USERI5
 70
     0
  9
$USERR1
 40
0.0
  9
$USERR2
 40
0.0
  9
$USERR3
 40
0.0
  9
$USERR4
 40
0.0
  9
$USERR5
 40
0.0
  9
$WORLDVIEW
 70
     1
  9
$SHADEDGE
 70
     3
  9
$SHADEDIF
 70
    70
  9
$TILEMODE
 70
     1
  9
$MAXACTVP
 70
    16
  9
$PLIMCHECK
 70
     0
  9
$PEXTMIN
 10
1.000000000000000E+20
 20
1.000000000000000E+20
 30
1.000000000000000E+20
  9
$PEXTMAX
 10
-1.000000000000000E+20
 20
-1.000000000000000E+20
 30
-1.000000000000000E+20
  9
$PLIMMIN
 10
0.0
 20
0.0
  9
$PLIMMAX
 10
12.0
 20
9.0
  9
$UNITMODE
 70
     0
  9
$VISRETAIN
 70
     0
  9
$PLINEGEN
 70
     0
  9
$PSLTSCALE
 70
     0
  0
ENDSEC
  0
SECTION
  2
TABLES
  0
TABLE
  2
VPORT
 70
     1
  0
VPORT
  2
*ACTIVE
 70
     0
 10
0.0
 20
0.0
 11
1.0
 21
1.0
 12
-0.4414500853391787
 22
0.870153174393239
 13
-2.476353411350466
 23
11.18186254121261
 14
1.0
 24
1.0
 15
0.0
 25
0.0
 16
0.0
 26
0.0
 36
1.0
 17
0.0
 27
0.0
 37
0.0
 40
1.77495232287568
 41
1.503537735849057
 42
50.0
 43
0.0
 44
0.0
 50
0.0
 51
0.0
 71
     0
 72
   100
 73
     1
 74
     0
 75
     0
 76
     0
 77
     0
 78
     0
  0
ENDTAB
  0
TABLE
  2
LTYPE
 70
     1
  0
LTYPE
  2
CONTINUOUS
 70
     0
  3
Solid line
 72
    65
 73
     0
 40
0.0
  0
ENDTAB
  0
TABLE
  2
LAYER
 70
     1
  0
LAYER
  2
0
 70
     0
 62
     7
  6
CONTINUOUS
  0
ENDTAB
  0
TABLE
  2
STYLE
 70
     1
  0
STYLE
  2
STANDARD
 70
     0
 40
0.1
 41
1.0
 50
0.0
 71
     0
 42
0.2
  3
AVANT
  4

  0
ENDTAB
  0
TABLE
  2
VIEW
 70
     0
  0
ENDTAB
  0
TABLE
  2
UCS
 70
     0
  0
ENDTAB
  0
TABLE
  2
APPID
 70
     2
  0
APPID
  2
ACAD
 70
     0
  0
APPID
  2
DCO15
 70
     0
  0
ENDTAB
  0
TABLE
  2
DIMSTYLE
 70
     1
  0
DIMSTYLE
  2
STANDARD
 70
     0
  3

  4

  5

  6

  7

 40
1.0
 41
0.18
 42
0.0625
 43
0.38
 44
0.18
 45
0.0
 46
0.0
 47
0.0
 48
0.0
140
0.18
141
0.09
142
0.0
143
25.4
144
1.0
145
0.0
146
1.0
147
0.09
 71
     0
 72
     0
 73
     1
 74
     1
 75
     0
 76
     0
 77
     0
 78
     0
170
     0
171
     2
172
     0
173
     0
174
     0
175
     0
176
     0
177
     0
178
     0
  0
ENDTAB
  0
ENDSEC
  0
SECTION
  2
BLOCKS
  0
BLOCK
  8
0
  2
$MODEL_SPACE
 70
     0
 10
0.0
 20
0.0
 30
0.0
  3
$MODEL_SPACE
  1

  0
ENDBLK
  5
25
  8
0
  0
BLOCK
 67
     1
  8
0
  2
$PAPER_SPACE
 70
     0
 10
0.0
 20
0.0
 30
0.0
  3
$PAPER_SPACE
  1

  0
ENDBLK
  5
23
 67
     1
  8
0
  0
ENDSEC
  0
SECTION
  2
ENTITIES
  0
LINE
  5
29
  8
0
 62
     0
 10
0.0109139866397445
 20
1.394875176726996
 30
0.0
 11
0.0109139866397445
 21
-0.0051248232730039
 31
0.0
  0
LINE
  5
2A
  8
0
 62
     0
 10
-0.7890860133602562
 20
-0.0051248232730039
 30
0.0
 11
-0.7890860133602562
 21
1.394875176726996
 31
0.0
  0
LINE
  5
2B
  8
0
 62
     0
 10
0.0730103890744989
 20
0.5283389716105411
 30
0.0
 11
0.0730103890744989
 21
0.82833897161054
 31
0.0
  0
ARC
  5
2C
  8
0
 62
     0
 10
-0.0872270825330776
 20
0.678338971610545
 30
0.0
 40
0.5382987042480432
 50
341.028468715415
 51
18.97153128458399
  0
ARC
  5
2D
  8
0
 62
     0
 10
-0.0872270825330776
 20
0.678338971610545
 30
0.0
 40
0.4882987042480432
 50
340.071395645149
 51
19.92860435485098
  0
ARC
  5
2E
  8
0
 62
     0
 10
-0.4125132889146794
 20
0.6783389716105503
 30
0.0
 40
0.750663094125937
 50
348.4733718905006
 51
11.52662810949783
  0
LINE
  5
2F
  8
0
 62
     0
 10
-1.020904359353048
 20
0.5494280373672016
 30
0.0
 11
-1.159356182728301
 21
0.4917124189951583
 31
0.0
  0
ARC
  5
30
  8
0
 62
     0
 10
-1.129355395463319
 20
0.0979401689642661
 30
0.0
 40
0.025
 50
292.6295113121918
 51
22.62951131219173
  0
LINE
  5
31
  8
0
 62
     0
 10
-1.109575232257138
 20
0.1154640276003196
 30
0.0
 11
-1.106280091567443
 21
0.1075594386929399
 31
0.0
  0
ARC
  5
32
  8
0
 62
     0
 10
-0.4496553370021648
 20
0.5708794743869845
 30
0.0
 40
0.750663094125937
 50
191.1028832026939
 51
214.1561394216912
  0
LINE
  5
33
  8
0
 62
     0
 10
-1.240949867768878
 20
0.4306136932352
 30
0.0
 11
-1.237654727079191
 21
0.422709104327831
 31
0.0
  0
LINE
  5
34
  8
0
 62
     0
 10
-1.119736125734642
 20
0.0748648650683901
 30
0.0
 11
-1.119736125734649
 21
0.0748648650683901
 31
0.0
  0
LINE
  5
35
  8
0
 62
     0
 10
-1.273644441393428
 20
0.4440697274024021
 30
0.0
 11
-1.273644441393435
 21
0.4440697274023986
 31
0.0
  0
ARC
  5
36
  8
0
 62
     0
 10
-1.140117643270953
 20
0.4455618112034081
 30
0.0
 40
0.05
 50
112.6295113121918
 51
202.6295113121924
  0
ARC
  5
37
  8
0
 62
     0
 10
-1.264025171664754
 20
0.4209944235065262
 30
0.0
 40
0.025
 50
22.62951131219173
 51
112.6295113121918
  0
ARC
  5
38
  8
0
 62
     0
 10
-1.129355395463323
 20
0.0979401689642661
 30
0.0
 40
0.025
 50
202.6295113121918
 51
292.6295113121918
  0
ARC
  5
39
  8
0
 62
     0
 10
-1.264025171664761
 20
0.4209944235065226
 30
0.0
 40
0.025
 50
112.6295113121918
 51
202.6295113121918
  0
ARC
  5
3A
  8
0
 62
     0
 10
-0.7498984596178406
 20
0.4457188440589075
 30
0.0
 40
0.5382987042480432
 50
183.6579800276077
 51
221.6010425967768
  0
ARC
  5
3B
  8
0
 62
     0
 10
-0.7498984596178406
 20
0.4457188440589075
 30
0.0
 40
0.4882987042480432
 50
182.7009069573408
 51
222.5581156670427
  0
LINE
  5
3C
  8
0
 62
     0
 10
0.0109139866397445
 20
-0.0051248232730039
 30
0.0
 11
-0.7890860133602562
 21
-0.0051248232730039
 31
0.0
  0
LINE
  5
3D
  8
0
 62
     0
 10
-1.005447867069512
 20
0.1225075566611498
 30
0.0
 11
-0.8669960436942663
 21
0.1802231750331895
 31
0.0
  0
LINE
  5
3E
  8
0
 62
     0
 10
-0.8400839753598621
 20
0.2456123222822928
 30
0.0
 11
-0.9555152121039487
 21
0.522515969032801
 31
0.0
  0
ARC
  5
3F
  8
0
 62
     0
 10
-0.8862345831516105
 20
0.2263737828249432
 30
0.0
 40
0.05
 50
292.6295113121918
 51
22.62951131219173
  0
ARC
  5
40
  8
0
 62
     0
 10
-1.001665819895701
 20
0.5032774295754514
 30
0.0
 40
0.05
 50
22.62951131219173
 51
112.6295113121918
  0
ARC
  5
41
  8
0
 62
     0
 10
-1.024686406526863
 20
0.1686581644528999
 30
0.0
 40
0.05
 50
202.6295113121918
 51
292.6295113121918
  0
LINE
  5
42
  8
0
 62
     0
 10
0.2730103890744946
 20
0.4783389716105404
 30
0.0
 11
0.1230103890744996
 21
0.4783389716105404
 31
0.0
  0
LINE
  5
43
  8
0
 62
     0
 10
0.396831357132859
 20
0.4783389716105404
 30
0.0
 11
0.3968313571328625
 21
0.4783389716105404
 31
0.0
  0
ARC
  5
44
  8
0
 62
     0
 10
0.1230103890744996
 20
0.5283389716105411
 30
0.0
 40
0.05
 50
180.0
 51
270.0
  0
ARC
  5
45
  8
0
 62
     0
 10
0.2730103890744946
 20
0.5283389716105411
 30
0.0
 40
0.05
 50
270.0
 51
0.0
  0
ARC
  5
46
  8
0
 62
     0
 10
0.3968313571328625
 20
0.5033389716105408
 30
0.0
 40
0.025
 50
270.0
 51
0.0
  0
ARC
  5
47
  8
0
 62
     0
 10
0.396831357132859
 20
0.5033389716105408
 30
0.0
 40
0.025
 50
180.0
 51
270.0
  0
LINE
  5
48
  8
0
 62
     0
 10
0.3718313571328604
 20
0.5119028771424539
 30
0.0
 11
0.3718313571328604
 21
0.5033389716105408
 31
0.0
  0
ARC
  5
49
  8
0
 62
     0
 10
-0.4839798533325759
 20
0.7782916799610913
 30
0.0
 40
0.750663094125937
 50
141.9330577472444
 51
164.9863139662417
  0
ARC
  5
4A
  8
0
 62
     0
 10
-1.129841119909218
 20
1.296487569969718
 30
0.0
 40
0.025
 50
333.4596858567423
 51
63.45968585674225
  0
LINE
  5
4B
  8
0
 62
     0
 10
-1.107475615188415
 20
1.285316885183914
 30
0.0
 11
-1.111302202757711
 21
1.277655442399819
 31
0.0
  0
LINE
  5
4C
  8
0
 62
     0
 10
-1.186628653870541
 20
0.905678398995569
 30
0.0
 11
-1.052435625545739
 21
0.8386542902807417
 31
0.0
  0
LINE
  5
4D
  8
0
 62
     0
 10
-1.260038614620383
 20
0.9798612618767937
 30
0.0
 11
-1.263865202189679
 21
0.9721998190926904
 31
0.0
  0
ARC
  5
4E
  8
0
 62
     0
 10
-0.7749874607101521
 20
0.92363846702745
 30
0.0
 40
0.4882987042480432
 50
133.5310815018912
 51
173.3882902115932
  0
ARC
  5
4F
  8
0
 62
     0
 10
-0.7749874607101521
 20
0.92363846702745
 30
0.0
 40
0.5382987042480432
 50
134.4881545721583
 51
172.4312171413273
  0
ARC
  5
50
  8
0
 62
     0
 10
-1.129841119909221
 20
1.29648756996972
 30
0.0
 40
0.025
 50
63.45968585674225
 51
153.4596858567423
  0
ARC
  5
51
  8
0
 62
     0
 10
-1.286230706910478
 20
0.9833705038784952
 30
0.0
 40
0.025
 50
243.4596858567423
 51
333.4596858567423
  0
ARC
  5
52
  8
0
 62
     0
 10
-1.286230706910482
 20
0.983370503878497
 30
0.0
 40
0.025
 50
153.4596858567423
 51
243.4596858567423
  0
ARC
  5
53
  8
0
 62
     0
 10
-1.164287284298931
 20
0.9504094084371708
 30
0.0
 40
0.05
 50
153.4596858567423
 51
243.4596858567423
  0
LINE
  5
54
  8
0
 62
     0
 10
-1.118670435123411
 20
1.318853074690518
 30
0.0
 11
-1.118670435123418
 21
1.318853074690523
 31
0.0
  0
LINE
  5
55
  8
0
 62
     0
 10
-1.297401391696285
 20
0.9610049991576961
 30
0.0
 11
-1.297401391696289
 21
0.9610049991576943
 31
0.0
  0
LINE
  5
56
  8
0
 62
     0
 10
-0.7890860133602562
 20
1.394875176726996
 30
0.0
 11
0.0109139866397445
 21
1.394875176726996
 31
0.0
  0
ARC
  5
57
  8
0
 62
     0
 10
-1.030239066869283
 20
1.21879546508679
 30
0.0
 40
0.05
 50
63.45968585674225
 51
153.4596858567429
  0
ARC
  5
58
  8
0
 62
     0
 10
-0.8960460385444744
 20
1.151771356371963
 30
0.0
 40
0.05
 50
333.4596858567423
 51
63.45968585674225
  0
ARC
  5
59
  8
0
 62
     0
 10
-1.030094255974129
 20
0.883385299722347
 30
0.0
 40
0.05
 50
243.4596858567423
 51
333.4596858567423
  0
LINE
  5
5A
  8
0
 62
     0
 10
-0.9853632465325237
 20
0.8610439301507355
 30
0.0
 11
-0.8513150291028726
 21
1.129429986800355
 31
0.0
  0
LINE
  5
5B
  8
0
 62
     0
 10
-0.8737046689728611
 20
1.196502365813567
 30
0.0
 11
-1.007897697297674
 21
1.263526474528392
 31
0.0
  0
LINE
  5
5C
  8
0
 62
     0
 10
0.1230103890744996
 20
0.8783389716105408
 30
0.0
 11
0.2730103890744981
 21
0.8783389716105408
 31
0.0
  0
LINE
  5
5D
  8
0
 62
     0
 10
0.3718313571328604
 20
0.8533389716105404
 30
0.0
 11
0.3718313571328604
 21
0.8447750660786362
 31
0.0
  0
LINE
  5
5E
  8
0
 62
     0
 10
0.396831357132859
 20
0.8783389716105408
 30
0.0
 11
0.3968313571328661
 21
0.8783389716105408
 31
0.0
  0
ARC
  5
5F
  8
0
 62
     0
 10
0.1230103890744996
 20
0.82833897161054
 30
0.0
 40
0.05
 50
90.0
 51
180.0
  0
ARC
  5
60
  8
0
 62
     0
 10
0.2730103890744981
 20
0.82833897161054
 30
0.0
 40
0.05
 50
359.9999999999994
 51
90.0
  0
ARC
  5
61
  8
0
 62
     0
 10
0.396831357132859
 20
0.8533389716105404
 30
0.0
 40
0.025
 50
90.0
 51
180.0
  0
ARC
  5
62
  8
0
 62
     0
 10
0.3968313571328661
 20
0.8533389716105404
 30
0.0
 40
0.025
 50
0.0
 51
90.0
  0
ENDSEC
  0
EOF
