  0
SECTION
  2
HEADER
  9
$ACADVER
  1
AC1009
  9
$DWGCODEPAGE
  3
ansi_1252
  9
$INSBASE
 10
2902.412921891922
 20
-1460.689636090941
 30
0.0
  9
$EXTMIN
 10
1705.238772
 20
-2197.800347
 30
0.0
  9
$EXTMAX
 10
4105.238772
 20
-997.8003469999999
 30
0.0
  9
$LIMMIN
 10
0.0
 20
0.0
  9
$LIMMAX
 10
420.0
 20
297.0
  9
$ORTHOMODE
 70
     0
  9
$REGENMODE
 70
     1
  9
$FILLMODE
 70
     1
  9
$QTEXTMODE
 70
     0
  9
$MIRRTEXT
 70
     1
  9
$DRAGMODE
 70
     2
  9
$LTSCALE
 40
1.0
  9
$OSMODE
 70
    37
  9
$ATTMODE
 70
     1
  9
$TEXTSIZE
 40
2.5
  9
$TRACEWID
 40
1.0
  9
$TEXTSTYLE
  7
STANDARD
  9
$CLAYER
  8
0
  9
$CELTYPE
  6
BYLAYER
  9
$CECOLOR
 62
   256
  9
$DIMSCALE
 40
1.0
  9
$DIMASZ
 40
2.5
  9
$DIMEXO
 40
0.625
  9
$DIMDLI
 40
3.75
  9
$DIMRND
 40
0.0
  9
$DIMDLE
 40
0.0
  9
$DIMEXE
 40
1.25
  9
$DIMTP
 40
0.0
  9
$DIMTM
 40
0.0
  9
$DIMTXT
 40
2.5
  9
$DIMCEN
 40
2.5
  9
$DIMTSZ
 40
0.0
  9
$DIMTOL
 70
     0
  9
$DIMLIM
 70
     0
  9
$DIMTIH
 70
     1
  9
$DIMTOH
 70
     0
  9
$DIMSE1
 70
     0
  9
$DIMSE2
 70
     0
  9
$DIMTAD
 70
     1
  9
$DIMZIN
 70
     8
  9
$DIMBLK
  1

  9
$DIMASO
 70
     1
  9
$DIMSHO
 70
     1
  9
$DIMPOST
  1

  9
$DIMAPOST
  1

  9
$DIMALT
 70
     0
  9
$DIMALTD
 70
     2
  9
$DIMALTF
 40
0.0394
  9
$DIMLFAC
 40
1.0
  9
$DIMTOFL
 70
     1
  9
$DIMTVP
 40
1.0
  9
$DIMTIX
 70
     0
  9
$DIMSOXD
 70
     0
  9
$DIMSAH
 70
     0
  9
$DIMBLK1
  1

  9
$DIMBLK2
  1

  9
$DIMSTYLE
  2
ISO-25
  9
$DIMCLRD
 70
     0
  9
$DIMCLRE
 70
     0
  9
$DIMCLRT
 70
     0
  9
$DIMTFAC
 40
1.0
  9
$DIMGAP
 40
0.625
  9
$LUNITS
 70
     2
  9
$LUPREC
 70
     4
  9
$SKETCHINC
 40
1.0
  9
$FILLETRAD
 40
10.0
  9
$AUNITS
 70
     0
  9
$AUPREC
 70
     0
  9
$MENU
  1
.
  9
$ELEVATION
 40
0.0
  9
$PELEVATION
 40
0.0
  9
$THICKNESS
 40
0.0
  9
$LIMCHECK
 70
     0
  9
$CHAMFERA
 40
10.0
  9
$CHAMFERB
 40
10.0
  9
$SKPOLY
 70
     0
  9
$TDCREATE
 40
2450630.636199306
  9
$TDUPDATE
 40
2457521.785671296
  9
$TDINDWG
 40
0.0005833565
  9
$TDUSRTIMER
 40
0.0005833565
  9
$USRTIMER
 70
     1
  9
$ANGBASE
 50
0.0
  9
$ANGDIR
 70
     0
  9
$PDMODE
 70
     0
  9
$PDSIZE
 40
0.0
  9
$PLINEWID
 40
0.0
  9
$COORDS
 70
     1
  9
$SPLFRAME
 70
     0
  9
$SPLINETYPE
 70
     6
  9
$SPLINESEGS
 70
     8
  9
$ATTDIA
 70
     0
  9
$ATTREQ
 70
     1
  9
$HANDLING
 70
     1
  9
$HANDSEED
  5
1BF
  9
$SURFTAB1
 70
     6
  9
$SURFTAB2
 70
     6
  9
$SURFTYPE
 70
     6
  9
$SURFU
 70
     6
  9
$SURFV
 70
     6
  9
$UCSNAME
  2

  9
$UCSORG
 10
0.0
 20
0.0
 30
0.0
  9
$UCSXDIR
 10
1.0
 20
0.0
 30
0.0
  9
$UCSYDIR
 10
0.0
 20
1.0
 30
0.0
  9
$PUCSNAME
  2

  9
$PUCSORG
 10
0.0
 20
0.0
 30
0.0
  9
$PUCSXDIR
 10
1.0
 20
0.0
 30
0.0
  9
$PUCSYDIR
 10
0.0
 20
1.0
 30
0.0
  9
$USERI1
 70
     0
  9
$USERI2
 70
     0
  9
$USERI3
 70
     0
  9
$USERI4
 70
     0
  9
$USERI5
 70
     0
  9
$USERR1
 40
0.0
  9
$USERR2
 40
0.0
  9
$USERR3
 40
0.0
  9
$USERR4
 40
0.0
  9
$USERR5
 40
0.0
  9
$WORLDVIEW
 70
     1
  9
$SHADEDGE
 70
     3
  9
$SHADEDIF
 70
    70
  9
$TILEMODE
 70
     1
  9
$MAXACTVP
 70
    16
  9
$PLIMCHECK
 70
     0
  9
$PEXTMIN
 10
1.000000000000000E+20
 20
1.000000000000000E+20
 30
1.000000000000000E+20
  9
$PEXTMAX
 10
-1.000000000000000E+20
 20
-1.000000000000000E+20
 30
-1.000000000000000E+20
  9
$PLIMMIN
 10
0.0
 20
0.0
  9
$PLIMMAX
 10
420.0
 20
297.0
  9
$UNITMODE
 70
     0
  9
$VISRETAIN
 70
     0
  9
$PLINEGEN
 70
     0
  9
$PSLTSCALE
 70
     1
  0
ENDSEC
  0
SECTION
  2
TABLES
  0
TABLE
  2
VPORT
 70
     1
  0
VPORT
  2
*ACTIVE
 70
     0
 10
0.0
 20
0.0
 11
1.0
 21
1.0
 12
2905.163031910242
 22
-1453.272313925322
 13
0.0
 23
0.0
 14
5.0
 24
5.0
 15
0.0
 25
0.0
 16
0.0
 26
0.0
 36
1.0
 17
0.0
 27
0.0
 37
0.0
 40
1606.226087017548
 41
1.503537735849057
 42
50.0
 43
0.0
 44
0.0
 50
0.0
 51
0.0
 71
     0
 72
   100
 73
     1
 74
     0
 75
     0
 76
     0
 77
     0
 78
     0
  0
ENDTAB
  0
TABLE
  2
LTYPE
 70
     1
  0
LTYPE
  2
CONTINUOUS
 70
     0
  3
Solid line
 72
    65
 73
     0
 40
0.0
  0
ENDTAB
  0
TABLE
  2
LAYER
 70
     1
  0
LAYER
  2
0
 70
     0
 62
     7
  6
CONTINUOUS
  0
ENDTAB
  0
TABLE
  2
STYLE
 70
     1
  0
STYLE
  2
STANDARD
 70
     0
 40
0.0
 41
1.0
 50
0.0
 71
     0
 42
2.5
  3
ISOCP
  4

  0
ENDTAB
  0
TABLE
  2
VIEW
 70
     0
  0
ENDTAB
  0
TABLE
  2
UCS
 70
     0
  0
ENDTAB
  0
TABLE
  2
APPID
 70
     2
  0
APPID
  2
ACAD
 70
     0
  0
APPID
  2
DCO15
 70
     0
  0
ENDTAB
  0
TABLE
  2
DIMSTYLE
 70
     1
  0
DIMSTYLE
  2
ISO-25
 70
     0
  3

  4

  5

  6

  7

 40
1.0
 41
2.5
 42
0.625
 43
3.75
 44
1.25
 45
0.0
 46
0.0
 47
0.0
 48
0.0
140
2.5
141
2.5
142
0.0
143
0.0394
144
1.0
145
1.0
146
1.0
147
0.625
 71
     0
 72
     0
 73
     1
 74
     0
 75
     0
 76
     0
 77
     1
 78
     8
170
     0
171
     2
172
     1
173
     0
174
     0
175
     0
176
     0
177
     0
178
     0
  0
ENDTAB
  0
ENDSEC
  0
SECTION
  2
BLOCKS
  0
BLOCK
  8
0
  2
$MODEL_SPACE
 70
     0
 10
0.0
 20
0.0
 30
0.0
  3
$MODEL_SPACE
  1

  0
ENDBLK
  5
103
  8
0
  0
BLOCK
 67
     1
  8
0
  2
$PAPER_SPACE
 70
     0
 10
0.0
 20
0.0
 30
0.0
  3
$PAPER_SPACE
  1

  0
ENDBLK
  5
101
 67
     1
  8
0
  0
BLOCK
  8
0
  2
CHAIR2
 70
     0
 10
0.0
 20
0.0
 30
0.0
  3
CHAIR2
  1

  0
LINE
  5
4F
  8
0
 10
226.672319
 20
143.490078
 30
0.0
 11
217.961232
 21
-117.842515
 31
0.0
  0
LINE
  5
50
  8
0
 10
-223.327681
 20
143.490078
 30
0.0
 11
-214.616595
 21
-117.842515
 31
0.0
  0
ARC
  5
51
  8
0
 10
-174.638799
 20
-116.509922
 30
0.0
 40
40.0
 50
181.909152
 51
270.0
  0
ARC
  5
52
  8
0
 10
177.983436
 20
-116.509922
 30
0.0
 40
40.0
 50
270.0
 51
358.090848
  0
ARC
  5
53
  8
0
 10
1.672319
 20
-695.628411
 30
0.0
 40
947.646454
 50
80.755792
 51
97.701408
  0
ARC
  5
54
  8
0
 10
1.672319
 20
-691.382664
 30
0.0
 40
947.646454
 50
77.069902
 51
102.930098
  0
ARC
  5
55
  8
0
 10
1.672319
 20
-731.009634
 30
0.0
 40
947.646454
 50
77.34447
 51
102.65553
  0
ARC
  5
56
  8
0
 10
-123.327681
 20
143.490078
 30
0.0
 40
100.0
 50
90.0
 51
180.0
  0
LINE
  5
57
  8
0
 10
-218.137459
 20
222.488624
 30
0.0
 11
-218.137459
 21
203.37069
 31
0.0
  0
ARC
  5
58
  8
0
 10
-208.137459
 20
203.37069
 30
0.0
 40
10.0
 50
180.0
 51
282.65553
  0
ARC
  5
59
  8
0
 10
-208.137459
 20
222.488624
 30
0.0
 40
10.0
 50
102.930098
 51
180.0
  0
LINE
  5
5A
  8
0
 10
-48.138313
 20
276.182539
 30
0.0
 11
-59.424942
 21
254.292189
 31
0.0
  0
LINE
  5
5B
  8
0
 10
51.48295
 20
276.182539
 30
0.0
 11
62.769579
 21
254.292189
 31
0.0
  0
LINE
  5
5C
  8
0
 10
-18.592074
 20
302.880291
 30
0.0
 11
21.936711
 21
302.880291
 31
0.0
  0
ARC
  5
5D
  8
0
 10
1.672319
 20
-670.153926
 30
0.0
 40
947.646454
 50
86.987004
 51
93.012996
  0
LINE
  5
5E
  8
0
 10
-18.592074
 20
277.492529
 30
0.0
 11
-18.592074
 21
302.880291
 31
0.0
  0
LINE
  5
5F
  8
0
 10
21.936711
 20
277.492529
 30
0.0
 11
21.936711
 21
302.880291
 31
0.0
  0
ARC
  5
60
  8
0
 10
126.672319
 20
143.490078
 30
0.0
 40
100.0
 50
0.0
 51
74.19729
  0
ARC
  5
61
  8
0
 10
126.672319
 20
143.490078
 30
0.0
 40
100.0
 50
88.85709399999999
 51
90.0
  0
LINE
  5
62
  8
0
 10
221.482097
 20
203.37069
 30
0.0
 11
221.482097
 21
222.488624
 31
0.0
  0
ARC
  5
63
  8
0
 10
211.482097
 20
203.37069
 30
0.0
 40
10.0
 50
257.34447
 51
0.0
  0
ARC
  5
64
  8
0
 10
211.482097
 20
222.488624
 30
0.0
 40
10.0
 50
0.0
 51
77.069902
  0
LINE
  5
65
  8
0
 10
-174.638799
 20
-156.509922
 30
0.0
 11
177.983436
 21
-156.509922
 31
0.0
  0
ENDBLK
  5
67
  8
0
  0
BLOCK
  8
0
  2
TAB60120
 70
     0
 10
0.0
 20
0.0
 30
0.0
  3
TAB60120
  1

  0
POLYLINE
  5
6A
  8
0
 66
     1
 10
0.0
 20
0.0
 30
0.0
 70
     1
  0
VERTEX
  5
192
  8
0
 10
0.0
 20
600.0
 30
0.0
  0
VERTEX
  5
193
  8
0
 10
1200.0
 20
600.0
 30
0.0
  0
VERTEX
  5
194
  8
0
 10
1200.0
 20
0.0
 30
0.0
  0
VERTEX
  5
195
  8
0
 10
0.0
 20
0.0
 30
0.0
  0
SEQEND
  5
1B6
  8
0
  0
ENDBLK
  5
71
  8
0
  0
BLOCK
  8
0
  2
MONITOR
 70
     0
 10
0.0
 20
0.0
 30
0.0
  3
MONITOR
  1

  0
ARC
  5
C7
  8
0
 10
0.0
 20
524.198688
 30
0.0
 40
900.071418
 50
263.451293
 51
276.548707
  0
LINE
  5
C8
  8
0
 10
-135.0
 20
0.0
 30
0.0
 11
135.0
 21
0.0
 31
0.0
  0
LINE
  5
C9
  8
0
 10
-175.0
 20
-300.0
 30
0.0
 11
175.0
 21
-300.0
 31
0.0
  0
LINE
  5
CA
  8
0
 10
-175.0
 20
-370.0
 30
0.0
 11
175.0
 21
-370.0
 31
0.0
  0
LINE
  5
CB
  8
0
 10
-135.0
 20
0.0
 30
0.0
 11
-165.0
 21
-300.0
 31
0.0
  0
LINE
  5
CC
  8
0
 10
-175.0
 20
-300.0
 30
0.0
 11
-175.0
 21
-370.0
 31
0.0
  0
LINE
  5
CD
  8
0
 10
135.0
 20
0.0
 30
0.0
 11
165.0
 21
-300.0
 31
0.0
  0
LINE
  5
CE
  8
0
 10
175.0
 20
-300.0
 30
0.0
 11
175.0
 21
-370.0
 31
0.0
  0
ENDBLK
  5
D0
  8
0
  0
BLOCK
  8
0
  2
KEYBOARD
 70
     0
 10
0.0
 20
0.0
 30
0.0
  3
KEYBOARD
  1

  0
POLYLINE
  5
21
  8
0
 66
     1
 10
0.0
 20
0.0
 30
0.0
 70
     1
  0
VERTEX
  5
196
  8
0
 10
16.488865
 20
108.997808
 30
0.0
  0
VERTEX
  5
197
  8
0
 10
281.563213
 20
108.997808
 30
0.0
  0
VERTEX
  5
198
  8
0
 10
281.563213
 20
18.997808
 30
0.0
  0
VERTEX
  5
199
  8
0
 10
16.488865
 20
18.997808
 30
0.0
  0
SEQEND
  5
1B7
  8
0
  0
POLYLINE
  5
27
  8
0
 66
     1
 10
0.0
 20
0.0
 30
0.0
 70
     1
  0
VERTEX
  5
19A
  8
0
 10
16.488865
 20
136.858131
 30
0.0
  0
VERTEX
  5
19B
  8
0
 10
281.563213
 20
136.858131
 30
0.0
  0
VERTEX
  5
19C
  8
0
 10
281.563213
 20
121.858131
 30
0.0
  0
VERTEX
  5
19D
  8
0
 10
16.488865
 20
121.858131
 30
0.0
  0
SEQEND
  5
1B8
  8
0
  0
POLYLINE
  5
2D
  8
0
 66
     1
 10
0.0
 20
0.0
 30
0.0
 70
     1
  0
VERTEX
  5
19E
  8
0
 10
0.0
 20
150.0
 30
0.0
  0
VERTEX
  5
19F
  8
0
 10
450.0
 20
150.0
 30
0.0
  0
VERTEX
  5
1A0
  8
0
 10
450.0
 20
0.0
 30
0.0
  0
VERTEX
  5
1A1
  8
0
 10
0.0
 20
0.0
 30
0.0
  0
SEQEND
  5
1B9
  8
0
  0
POLYLINE
  5
33
  8
0
 66
     1
 10
0.0
 20
0.0
 30
0.0
 70
     1
  0
VERTEX
  5
1A2
  8
0
 10
433.385009
 20
18.997808
 30
0.0
  0
VERTEX
  5
1A3
  8
0
 10
363.385009
 20
18.997808
 30
0.0
  0
VERTEX
  5
1A4
  8
0
 10
363.385009
 20
108.997808
 30
0.0
  0
VERTEX
  5
1A5
  8
0
 10
433.385009
 20
108.997808
 30
0.0
  0
SEQEND
  5
1BA
  8
0
  0
POLYLINE
  5
39
  8
0
 66
     1
 10
0.0
 20
0.0
 30
0.0
 70
     1
  0
VERTEX
  5
1A6
  8
0
 10
298.373545
 20
48.997808
 30
0.0
  0
VERTEX
  5
1A7
  8
0
 10
348.373545
 20
48.997808
 30
0.0
  0
VERTEX
  5
1A8
  8
0
 10
348.373545
 20
18.997808
 30
0.0
  0
VERTEX
  5
1A9
  8
0
 10
298.373545
 20
18.997808
 30
0.0
  0
SEQEND
  5
1BB
  8
0
  0
POLYLINE
  5
3F
  8
0
 66
     1
 10
0.0
 20
0.0
 30
0.0
 70
     1
  0
VERTEX
  5
1AA
  8
0
 10
298.373545
 20
136.858131
 30
0.0
  0
VERTEX
  5
1AB
  8
0
 10
348.373545
 20
136.858131
 30
0.0
  0
VERTEX
  5
1AC
  8
0
 10
348.373545
 20
121.858131
 30
0.0
  0
VERTEX
  5
1AD
  8
0
 10
298.373545
 20
121.858131
 30
0.0
  0
SEQEND
  5
1BC
  8
0
  0
POLYLINE
  5
45
  8
0
 66
     1
 10
0.0
 20
0.0
 30
0.0
 70
     1
  0
VERTEX
  5
1AE
  8
0
 10
298.373545
 20
108.997808
 30
0.0
  0
VERTEX
  5
1AF
  8
0
 10
348.373545
 20
108.997808
 30
0.0
  0
VERTEX
  5
1B0
  8
0
 10
348.373545
 20
78.99780799999999
 30
0.0
  0
VERTEX
  5
1B1
  8
0
 10
298.373545
 20
78.99780799999999
 30
0.0
  0
SEQEND
  5
1BD
  8
0
  0
ENDBLK
  5
4C
  8
0
  0
BLOCK
  8
0
  2
PHONE
 70
     0
 10
0.0
 20
0.0
 30
0.0
  3
PHONE
  1

  0
LINE
  5
74
  8
0
 10
157.334901
 20
190.0
 30
0.0
 11
157.334901
 21
35.0
 31
0.0
  0
LINE
  5
75
  8
0
 10
71.334901
 20
190.0
 30
0.0
 11
71.334901
 21
35.0
 31
0.0
  0
POLYLINE
  5
76
  8
0
 66
     1
 10
0.0
 20
0.0
 30
0.0
 70
     1
  0
VERTEX
  5
1B2
  8
0
 10
8.669803
 20
194.930293
 30
0.0
  0
VERTEX
  5
1B3
  8
0
 10
48.669803
 20
194.930293
 30
0.0
  0
VERTEX
  5
1B4
  8
0
 10
48.669803
 20
-14.930293
 30
0.0
  0
VERTEX
  5
1B5
  8
0
 10
8.669803
 20
-14.930293
 30
0.0
  0
SEQEND
  5
1BE
  8
0
  0
LINE
  5
7C
  8
0
 10
0.0
 20
180.0
 30
0.0
 11
0.0
 21
0.0
 31
0.0
  0
LINE
  5
7D
  8
0
 10
180.0
 20
180.0
 30
0.0
 11
180.0
 21
0.0
 31
0.0
  0
LINE
  5
7E
  8
0
 10
71.334901
 20
35.0
 30
0.0
 11
157.334901
 21
35.0
 31
0.0
  0
LINE
  5
7F
  8
0
 10
48.669803
 20
0.0
 30
0.0
 11
180.0
 21
0.0
 31
0.0
  0
LINE
  5
80
  8
0
 10
0.0
 20
0.0
 30
0.0
 11
8.669803
 21
0.0
 31
0.0
  0
ARC
  5
81
  8
0
 10
79.39448
 20
42.592362
 30
0.0
 40
2.0
 50
180.0
 51
270.0
  0
ARC
  5
82
  8
0
 10
80.39448
 20
42.592362
 30
0.0
 40
2.0
 50
270.0
 51
0.0
  0
ARC
  5
83
  8
0
 10
80.39448
 20
48.592362
 30
0.0
 40
2.0
 50
0.0
 51
90.0
  0
LINE
  5
84
  8
0
 10
79.39448
 20
50.592362
 30
0.0
 11
80.39448
 21
50.592362
 31
0.0
  0
LINE
  5
85
  8
0
 10
79.39448
 20
40.592362
 30
0.0
 11
80.39448
 21
40.592362
 31
0.0
  0
LINE
  5
86
  8
0
 10
77.39448
 20
48.592362
 30
0.0
 11
77.39448
 21
42.592362
 31
0.0
  0
ARC
  5
87
  8
0
 10
79.39448
 20
48.592362
 30
0.0
 40
2.0
 50
90.0
 51
180.0
  0
LINE
  5
88
  8
0
 10
82.39448
 20
48.592362
 30
0.0
 11
82.39448
 21
42.592362
 31
0.0
  0
ARC
  5
89
  8
0
 10
91.007306
 20
42.592362
 30
0.0
 40
2.0
 50
270.0
 51
0.0
  0
ARC
  5
8A
  8
0
 10
90.007306
 20
42.592362
 30
0.0
 40
2.0
 50
180.0
 51
270.0
  0
LINE
  5
8B
  8
0
 10
90.007306
 20
40.592362
 30
0.0
 11
91.007306
 21
40.592362
 31
0.0
  0
LINE
  5
8C
  8
0
 10
90.007306
 20
50.592362
 30
0.0
 11
91.007306
 21
50.592362
 31
0.0
  0
LINE
  5
8D
  8
0
 10
88.007306
 20
48.592362
 30
0.0
 11
88.007306
 21
42.592362
 31
0.0
  0
ARC
  5
8E
  8
0
 10
90.007306
 20
48.592362
 30
0.0
 40
2.0
 50
90.0
 51
180.0
  0
LINE
  5
8F
  8
0
 10
93.007306
 20
48.592362
 30
0.0
 11
93.007306
 21
42.592362
 31
0.0
  0
ARC
  5
90
  8
0
 10
91.007306
 20
48.592362
 30
0.0
 40
2.0
 50
0.0
 51
90.0
  0
CIRCLE
  5
91
  8
0
 10
114.280601
 20
45.592362
 30
0.0
 40
5.0
  0
ARC
  5
92
  8
0
 10
101.620133
 20
42.592362
 30
0.0
 40
2.0
 50
270.0
 51
0.0
  0
ARC
  5
93
  8
0
 10
100.620133
 20
42.592362
 30
0.0
 40
2.0
 50
180.0
 51
270.0
  0
LINE
  5
94
  8
0
 10
100.620133
 20
50.592362
 30
0.0
 11
101.620133
 21
50.592362
 31
0.0
  0
LINE
  5
95
  8
0
 10
100.620133
 20
40.592362
 30
0.0
 11
101.620133
 21
40.592362
 31
0.0
  0
LINE
  5
96
  8
0
 10
98.620133
 20
48.592362
 30
0.0
 11
98.620133
 21
42.592362
 31
0.0
  0
ARC
  5
97
  8
0
 10
100.620133
 20
48.592362
 30
0.0
 40
2.0
 50
90.0
 51
180.0
  0
ARC
  5
98
  8
0
 10
101.620133
 20
48.592362
 30
0.0
 40
2.0
 50
0.0
 51
90.0
  0
LINE
  5
99
  8
0
 10
103.620133
 20
48.592362
 30
0.0
 11
103.620133
 21
42.592362
 31
0.0
  0
CIRCLE
  5
9A
  8
0
 10
130.630086
 20
45.592362
 30
0.0
 40
5.0
  0
CIRCLE
  5
9B
  8
0
 10
146.40591
 20
45.592362
 30
0.0
 40
5.0
  0
LINE
  5
9C
  8
0
 10
71.334901
 20
130.0
 30
0.0
 11
157.334901
 21
130.0
 31
0.0
  0
LINE
  5
9D
  8
0
 10
71.334901
 20
190.0
 30
0.0
 11
157.334901
 21
190.0
 31
0.0
  0
LINE
  5
9E
  8
0
 10
48.669803
 20
180.0
 30
0.0
 11
71.334901
 21
180.0
 31
0.0
  0
LINE
  5
9F
  8
0
 10
0.0
 20
180.0
 30
0.0
 11
8.669803
 21
180.0
 31
0.0
  0
LINE
  5
A0
  8
0
 10
82.39448
 20
65.784588
 30
0.0
 11
82.39448
 21
59.784588
 31
0.0
  0
LINE
  5
A1
  8
0
 10
77.39448
 20
65.784588
 30
0.0
 11
77.39448
 21
59.784588
 31
0.0
  0
ARC
  5
A2
  8
0
 10
80.39448
 20
59.784588
 30
0.0
 40
2.0
 50
270.0
 51
0.0
  0
LINE
  5
A3
  8
0
 10
79.39448
 20
57.784588
 30
0.0
 11
80.39448
 21
57.784588
 31
0.0
  0
ARC
  5
A4
  8
0
 10
79.39448
 20
59.784588
 30
0.0
 40
2.0
 50
180.0
 51
270.0
  0
ARC
  5
A5
  8
0
 10
80.39448
 20
65.784588
 30
0.0
 40
2.0
 50
0.0
 51
90.0
  0
LINE
  5
A6
  8
0
 10
79.39448
 20
67.784588
 30
0.0
 11
80.39448
 21
67.784588
 31
0.0
  0
ARC
  5
A7
  8
0
 10
79.39448
 20
65.784588
 30
0.0
 40
2.0
 50
90.0
 51
180.0
  0
LINE
  5
A8
  8
0
 10
88.007306
 20
65.784588
 30
0.0
 11
88.007306
 21
59.784588
 31
0.0
  0
LINE
  5
A9
  8
0
 10
93.007306
 20
65.784588
 30
0.0
 11
93.007306
 21
59.784588
 31
0.0
  0
LINE
  5
AA
  8
0
 10
90.007306
 20
57.784588
 30
0.0
 11
91.007306
 21
57.784588
 31
0.0
  0
ARC
  5
AB
  8
0
 10
90.007306
 20
59.784588
 30
0.0
 40
2.0
 50
180.0
 51
270.0
  0
ARC
  5
AC
  8
0
 10
91.007306
 20
59.784588
 30
0.0
 40
2.0
 50
270.0
 51
0.0
  0
LINE
  5
AD
  8
0
 10
90.007306
 20
67.784588
 30
0.0
 11
91.007306
 21
67.784588
 31
0.0
  0
ARC
  5
AE
  8
0
 10
90.007306
 20
65.784588
 30
0.0
 40
2.0
 50
90.0
 51
180.0
  0
ARC
  5
AF
  8
0
 10
91.007306
 20
65.784588
 30
0.0
 40
2.0
 50
0.0
 51
90.0
  0
CIRCLE
  5
B0
  8
0
 10
114.280601
 20
79.69027700000001
 30
0.0
 40
5.0
  0
CIRCLE
  5
B1
  8
0
 10
114.280601
 20
62.784588
 30
0.0
 40
5.0
  0
CIRCLE
  5
B2
  8
0
 10
114.280601
 20
96.309431
 30
0.0
 40
5.0
  0
LINE
  5
B3
  8
0
 10
103.620133
 20
65.784588
 30
0.0
 11
103.620133
 21
59.784588
 31
0.0
  0
LINE
  5
B4
  8
0
 10
98.620133
 20
65.784588
 30
0.0
 11
98.620133
 21
59.784588
 31
0.0
  0
LINE
  5
B5
  8
0
 10
100.620133
 20
57.784588
 30
0.0
 11
101.620133
 21
57.784588
 31
0.0
  0
ARC
  5
B6
  8
0
 10
100.620133
 20
59.784588
 30
0.0
 40
2.0
 50
180.0
 51
270.0
  0
ARC
  5
B7
  8
0
 10
101.620133
 20
59.784588
 30
0.0
 40
2.0
 50
270.0
 51
0.0
  0
LINE
  5
B8
  8
0
 10
100.620133
 20
67.784588
 30
0.0
 11
101.620133
 21
67.784588
 31
0.0
  0
ARC
  5
B9
  8
0
 10
100.620133
 20
65.784588
 30
0.0
 40
2.0
 50
90.0
 51
180.0
  0
ARC
  5
BA
  8
0
 10
101.620133
 20
65.784588
 30
0.0
 40
2.0
 50
0.0
 51
90.0
  0
CIRCLE
  5
BB
  8
0
 10
130.630086
 20
79.69027700000001
 30
0.0
 40
5.0
  0
CIRCLE
  5
BC
  8
0
 10
130.630086
 20
62.784588
 30
0.0
 40
5.0
  0
CIRCLE
  5
BD
  8
0
 10
130.630086
 20
96.309431
 30
0.0
 40
5.0
  0
CIRCLE
  5
BE
  8
0
 10
146.40591
 20
79.69027700000001
 30
0.0
 40
5.0
  0
CIRCLE
  5
BF
  8
0
 10
146.40591
 20
62.784588
 30
0.0
 40
5.0
  0
CIRCLE
  5
C0
  8
0
 10
146.40591
 20
96.309431
 30
0.0
 40
5.0
  0
LINE
  5
C1
  8
0
 10
157.334901
 20
180.0
 30
0.0
 11
180.0
 21
180.0
 31
0.0
  0
ENDBLK
  5
C3
  8
0
  0
BLOCK
  8
0
  2
COMB3
 70
     0
 10
0.0
 20
0.0
 30
0.0
  3
COMB3
  1

  0
INSERT
  5
1F
  8
0
  2
KEYBOARD
 10
882.6959019999999
 20
649.454482
 30
0.0
  0
INSERT
  5
4D
  8
0
  2
CHAIR2
 10
916.962071
 20
312.851514
 30
0.0
 50
180.0
  0
INSERT
  5
68
  8
0
  2
TAB60120
 10
600.0
 20
600.0
 30
0.0
  0
INSERT
  5
72
  8
0
  2
PHONE
 10
277.273843
 20
95.95029699999999
 30
0.0
 50
90.0
  0
INSERT
  5
C4
  8
0
  2
TAB60120
 10
0.0
 20
1200.0
 30
0.0
 50
270.0
  0
INSERT
  5
C5
  8
0
  2
MONITOR
 10
465.790827
 20
1105.86528
 30
0.0
 50
23.680879
  0
INSERT
  5
D1
  8
0
  2
TAB60120
 10
1800.0
 20
1200.0
 30
0.0
 50
270.0
  0
ENDBLK
  5
D3
  8
0
  0
ENDSEC
  0
SECTION
  2
ENTITIES
  0
INSERT
  5
1D
  8
0
  2
COMB3
 10
1705.238772
 20
-2197.800347
 30
0.0
  0
ENDSEC
  0
EOF
